%TF.GenerationSoftware,KiCad,Pcbnew,8.0.8-unknown-202501170223~559b1827ca~ubuntu24.04.1*%
%TF.CreationDate,2025-02-15T19:36:14+01:00*%
%TF.ProjectId,horse_feeder,686f7273-655f-4666-9565-6465722e6b69,rev?*%
%TF.SameCoordinates,Original*%
%TF.FileFunction,Soldermask,Top*%
%TF.FilePolarity,Negative*%
%FSLAX46Y46*%
G04 Gerber Fmt 4.6, Leading zero omitted, Abs format (unit mm)*
G04 Created by KiCad (PCBNEW 8.0.8-unknown-202501170223~559b1827ca~ubuntu24.04.1) date 2025-02-15 19:36:14*
%MOMM*%
%LPD*%
G01*
G04 APERTURE LIST*
G04 Aperture macros list*
%AMRoundRect*
0 Rectangle with rounded corners*
0 $1 Rounding radius*
0 $2 $3 $4 $5 $6 $7 $8 $9 X,Y pos of 4 corners*
0 Add a 4 corners polygon primitive as box body*
4,1,4,$2,$3,$4,$5,$6,$7,$8,$9,$2,$3,0*
0 Add four circle primitives for the rounded corners*
1,1,$1+$1,$2,$3*
1,1,$1+$1,$4,$5*
1,1,$1+$1,$6,$7*
1,1,$1+$1,$8,$9*
0 Add four rect primitives between the rounded corners*
20,1,$1+$1,$2,$3,$4,$5,0*
20,1,$1+$1,$4,$5,$6,$7,0*
20,1,$1+$1,$6,$7,$8,$9,0*
20,1,$1+$1,$8,$9,$2,$3,0*%
G04 Aperture macros list end*
%ADD10R,2.400000X2.400000*%
%ADD11C,2.400000*%
%ADD12R,1.700000X1.700000*%
%ADD13O,1.700000X1.700000*%
%ADD14C,1.727200*%
%ADD15C,4.000000*%
%ADD16C,0.900000*%
%ADD17C,8.600000*%
%ADD18R,1.800000X1.800000*%
%ADD19C,1.800000*%
%ADD20R,3.000000X3.000000*%
%ADD21C,3.000000*%
%ADD22RoundRect,0.243750X0.456250X-0.243750X0.456250X0.243750X-0.456250X0.243750X-0.456250X-0.243750X0*%
%ADD23R,3.200000X3.200000*%
%ADD24O,3.200000X3.200000*%
%ADD25R,2.400000X1.600000*%
%ADD26O,2.400000X1.600000*%
%ADD27R,2.600000X2.600000*%
%ADD28O,2.600000X2.600000*%
%ADD29RoundRect,0.250000X-0.600000X0.600000X-0.600000X-0.600000X0.600000X-0.600000X0.600000X0.600000X0*%
%ADD30C,1.700000*%
%ADD31R,1.800000X1.275000*%
%ADD32O,1.800000X1.275000*%
%ADD33C,1.600000*%
%ADD34R,1.600000X1.600000*%
%ADD35O,1.600000X1.600000*%
G04 APERTURE END LIST*
D10*
%TO.C,C2*%
X192323959Y-93000000D03*
D11*
X187323959Y-93000000D03*
%TD*%
D12*
%TO.C,J7*%
X188247500Y-57537500D03*
D13*
X190787500Y-57537500D03*
X193327500Y-57537500D03*
%TD*%
D14*
%TO.C,J9*%
X175060000Y-43749999D03*
X172520000Y-43749999D03*
X169980000Y-43749999D03*
X167440000Y-43749999D03*
%TD*%
D15*
%TO.C,M1*%
X118510000Y-136325000D03*
X163510000Y-136325000D03*
X118510000Y-91325000D03*
X163510000Y-91325000D03*
D12*
X124510000Y-97325000D03*
D13*
X127050000Y-97325000D03*
X129590000Y-97325000D03*
X132130000Y-97325000D03*
X134670000Y-97325000D03*
X137210000Y-97325000D03*
X139750000Y-97325000D03*
%TD*%
D16*
%TO.C,H4*%
X196775000Y-45000000D03*
X197719581Y-42719581D03*
X197719581Y-47280419D03*
X200000000Y-41775000D03*
D17*
X200000000Y-45000000D03*
D16*
X200000000Y-48225000D03*
X202280419Y-42719581D03*
X202280419Y-47280419D03*
X203225000Y-45000000D03*
%TD*%
D18*
%TO.C,D8*%
X170085000Y-50749999D03*
D19*
X167545000Y-50749999D03*
%TD*%
D20*
%TO.C,J3*%
X200500000Y-88000000D03*
D21*
X200500000Y-82920000D03*
%TD*%
D20*
%TO.C,J2*%
X200500000Y-103000000D03*
D21*
X200500000Y-97920000D03*
%TD*%
D18*
%TO.C,D9*%
X155005000Y-50749999D03*
D19*
X152465000Y-50749999D03*
%TD*%
D21*
%TO.C,F1*%
X185905000Y-137330000D03*
X185905000Y-114730000D03*
%TD*%
D22*
%TO.C,D12*%
X171810000Y-83417976D03*
X171810000Y-81542976D03*
%TD*%
D14*
%TO.C,J6*%
X201500000Y-60640400D03*
X201500000Y-58100400D03*
X201500000Y-55560400D03*
%TD*%
D23*
%TO.C,D2*%
X113500000Y-85620000D03*
D24*
X113500000Y-70380000D03*
%TD*%
D10*
%TO.C,C3*%
X192500000Y-78000000D03*
D11*
X187500000Y-78000000D03*
%TD*%
D25*
%TO.C,U2*%
X170200000Y-90700000D03*
D26*
X170200000Y-93240000D03*
X170200000Y-95780000D03*
X170200000Y-98320000D03*
X177820000Y-98320000D03*
X177820000Y-95780000D03*
X177820000Y-93240000D03*
X177820000Y-90700000D03*
%TD*%
D27*
%TO.C,D1*%
X194000000Y-126620000D03*
D28*
X194000000Y-111380000D03*
%TD*%
D29*
%TO.C,J8*%
X155350000Y-79572500D03*
D30*
X155350000Y-82112500D03*
X152810000Y-79572500D03*
X152810000Y-82112500D03*
X150270000Y-79572500D03*
X150270000Y-82112500D03*
X147730000Y-79572500D03*
X147730000Y-82112500D03*
X145190000Y-79572500D03*
X145190000Y-82112500D03*
%TD*%
D18*
%TO.C,D10*%
X125025000Y-50750000D03*
D19*
X122485000Y-50750000D03*
%TD*%
D14*
%TO.C,J11*%
X160060000Y-43749999D03*
X157520000Y-43749999D03*
X154980000Y-43749999D03*
X152440000Y-43749999D03*
%TD*%
D22*
%TO.C,D11*%
X174260000Y-83417976D03*
X174260000Y-81542976D03*
%TD*%
D31*
%TO.C,U5*%
X108840000Y-80200000D03*
D32*
X108840000Y-78500000D03*
X108840000Y-76800000D03*
X108840000Y-75100000D03*
X108840000Y-73400000D03*
%TD*%
D14*
%TO.C,J10*%
X145060000Y-43749999D03*
X142520000Y-43749999D03*
X139980000Y-43749999D03*
X137440000Y-43749999D03*
%TD*%
D33*
%TO.C,L1*%
X122000000Y-76750000D03*
X122000000Y-70750000D03*
%TD*%
D34*
%TO.C,U3*%
X130125000Y-70987500D03*
D35*
X132665000Y-70987500D03*
X135205000Y-70987500D03*
X137745000Y-70987500D03*
X140285000Y-70987500D03*
X142825000Y-70987500D03*
X145365000Y-70987500D03*
X147905000Y-70987500D03*
X150445000Y-70987500D03*
X152985000Y-70987500D03*
X155525000Y-70987500D03*
X158065000Y-70987500D03*
X160605000Y-70987500D03*
X163145000Y-70987500D03*
X165685000Y-70987500D03*
X168225000Y-70987500D03*
X170765000Y-70987500D03*
X173305000Y-70987500D03*
X175845000Y-70987500D03*
X178385000Y-70987500D03*
X178385000Y-55747500D03*
X175845000Y-55747500D03*
X173305000Y-55747500D03*
X170765000Y-55747500D03*
X168225000Y-55747500D03*
X165685000Y-55747500D03*
X163145000Y-55747500D03*
X160605000Y-55747500D03*
X158065000Y-55747500D03*
X155525000Y-55747500D03*
X152985000Y-55747500D03*
X150445000Y-55747500D03*
X147905000Y-55747500D03*
X145365000Y-55747500D03*
X142825000Y-55747500D03*
X140285000Y-55747500D03*
X137745000Y-55747500D03*
X135205000Y-55747500D03*
X132665000Y-55747500D03*
X130125000Y-55747500D03*
%TD*%
D14*
%TO.C,J4*%
X201500000Y-71540000D03*
X201500000Y-69000000D03*
X201500000Y-66460000D03*
%TD*%
D20*
%TO.C,J1*%
X201000000Y-121500000D03*
D21*
X201000000Y-116420000D03*
%TD*%
D10*
%TO.C,C28*%
X130426041Y-82250000D03*
D11*
X135426041Y-82250000D03*
%TD*%
D16*
%TO.C,H1*%
X106775000Y-45000000D03*
X107719581Y-42719581D03*
X107719581Y-47280419D03*
X110000000Y-41775000D03*
D17*
X110000000Y-45000000D03*
D16*
X110000000Y-48225000D03*
X112280419Y-42719581D03*
X112280419Y-47280419D03*
X113225000Y-45000000D03*
%TD*%
D18*
%TO.C,D7*%
X140085000Y-50749999D03*
D19*
X137545000Y-50749999D03*
%TD*%
D12*
%TO.C,U4*%
X193062500Y-53787500D03*
D13*
X190522500Y-53787500D03*
X187982500Y-53787500D03*
X185442500Y-53787500D03*
X182902500Y-53787500D03*
%TD*%
D12*
%TO.C,J5*%
X168025000Y-84000000D03*
D13*
X165485000Y-84000000D03*
X162945000Y-84000000D03*
%TD*%
D10*
%TO.C,C4*%
X120573959Y-62250000D03*
D11*
X115573959Y-62250000D03*
%TD*%
D16*
%TO.C,H3*%
X196775000Y-135000000D03*
X197719581Y-132719581D03*
X197719581Y-137280419D03*
X200000000Y-131775000D03*
D17*
X200000000Y-135000000D03*
D16*
X200000000Y-138225000D03*
X202280419Y-132719581D03*
X202280419Y-137280419D03*
X203225000Y-135000000D03*
%TD*%
%TO.C,H2*%
X106775000Y-135000000D03*
X107719581Y-132719581D03*
X107719581Y-137280419D03*
X110000000Y-131775000D03*
D17*
X110000000Y-135000000D03*
D16*
X110000000Y-138225000D03*
X112280419Y-132719581D03*
X112280419Y-137280419D03*
X113225000Y-135000000D03*
%TD*%
M02*
