M48
; DRILL file {KiCad (7.0.0)} date Mon Jan 15 14:21:00 2024
; FORMAT={-:-/ absolute / metric / decimal}
; #@! TF.CreationDate,2024-01-15T14:21:00+01:00
; #@! TF.GenerationSoftware,Kicad,Pcbnew,(7.0.0)
; #@! TF.FileFunction,Plated,1,4,PTH
FMAT,2
METRIC
; #@! TA.AperFunction,Plated,PTH,ViaDrill
T1C0.400
; #@! TA.AperFunction,Plated,PTH,ComponentDrill
T2C0.600
; #@! TA.AperFunction,Plated,PTH,ComponentDrill
T3C0.900
; #@! TA.AperFunction,Plated,PTH,ViaDrill
T4C2.000
%
G90
G05
T1
X82.8Y-62.6
X83.0Y-54.8
X83.0Y-58.4
X83.5Y-49.2
X83.871Y-70.549
X84.4Y-58.4
X84.8Y-77.6
X86.0Y-76.4
X86.4Y-67.4
X87.15Y-50.8
X87.2Y-71.0
X87.6Y-67.2
X87.897Y-49.2
X88.195Y-60.642
X88.311Y-59.649
X88.4Y-78.6
X88.6Y-61.8
X89.0Y-75.8
X89.049Y-50.806
X89.6Y-62.8
X89.8Y-71.2
X90.006Y-74.95
X90.6Y-64.0
X91.15Y-78.0
X91.4Y-51.0
X91.4Y-57.0
X91.8Y-68.8
X92.6Y-65.2
X92.7Y-50.4
X93.0Y-57.0
X93.2Y-77.2
X93.8Y-65.0
X94.0Y-71.8
X94.0Y-74.0
X94.2Y-79.8
X94.6Y-50.4
X96.0Y-57.0
X96.006Y-78.95
X96.4Y-58.2
X96.45Y-65.394
X96.8Y-73.6
X97.2Y-56.0
X98.0Y-75.8
X98.8Y-68.4
X99.2Y-53.4
X99.8Y-62.8
X101.0Y-60.4
T2
X94.8Y-69.2
X100.1Y-49.8
X100.3Y-55.6
X100.7Y-67.7
T3
X94.96Y-47.25
X97.5Y-47.25
X100.04Y-47.25
T4
X100.0Y-80.0
T0
M30
