%TF.GenerationSoftware,KiCad,Pcbnew,(7.0.0)*%
%TF.CreationDate,2024-01-10T08:15:54+01:00*%
%TF.ProjectId,LED_poi,4c45445f-706f-4692-9e6b-696361645f70,A*%
%TF.SameCoordinates,Original*%
%TF.FileFunction,Drillmap*%
%TF.FilePolarity,Positive*%
%FSLAX45Y45*%
G04 Gerber Fmt 4.5, Leading zero omitted, Abs format (unit mm)*
G04 Created by KiCad (PCBNEW (7.0.0)) date 2024-01-10 08:15:54*
%MOMM*%
%LPD*%
G01*
G04 APERTURE LIST*
%ADD10C,0.100000*%
%ADD11C,0.200000*%
%ADD12C,0.040000*%
%ADD13C,0.060000*%
%ADD14C,0.155000*%
G04 APERTURE END LIST*
D10*
X10600000Y-7300000D02*
X10600000Y-5150000D01*
X7800000Y-6950000D02*
X7800000Y-5050000D01*
X8100000Y-4600000D02*
G75*
G03*
X8050000Y-4650000I0J-50000D01*
G01*
X10400000Y-8500000D02*
G75*
G03*
X10600000Y-8300000I0J200000D01*
G01*
X7800000Y-6950000D02*
G75*
G03*
X7850000Y-7000000I50000J0D01*
G01*
X10250000Y-4600000D02*
X8100000Y-4600000D01*
X10500000Y-7750000D02*
X10500000Y-7400000D01*
X10300000Y-4650000D02*
G75*
G03*
X10250000Y-4600000I-50000J0D01*
G01*
X10600000Y-5150000D02*
G75*
G03*
X10550000Y-5100000I-50000J0D01*
G01*
X8050000Y-4650000D02*
X8050000Y-4950000D01*
X7850000Y-5000000D02*
G75*
G03*
X7800000Y-5050000I0J-50000D01*
G01*
X10550000Y-7350000D02*
G75*
G03*
X10500000Y-7400000I0J-50000D01*
G01*
X7900000Y-7050000D02*
G75*
G03*
X7850000Y-7000000I-50000J0D01*
G01*
X7850000Y-7450000D02*
G75*
G03*
X7800000Y-7500000I0J-50000D01*
G01*
X8000000Y-5000000D02*
X7850000Y-5000000D01*
X10500000Y-7750000D02*
G75*
G03*
X10550000Y-7800000I50000J0D01*
G01*
X7900000Y-7400000D02*
X7900000Y-7050000D01*
X8000000Y-5000000D02*
G75*
G03*
X8050000Y-4950000I0J50000D01*
G01*
X7850000Y-7450000D02*
G75*
G03*
X7900000Y-7400000I0J50000D01*
G01*
X10550000Y-7350000D02*
G75*
G03*
X10600000Y-7300000I0J50000D01*
G01*
X10550000Y-5100000D02*
X10350000Y-5100000D01*
X8000000Y-8500000D02*
X10400000Y-8500000D01*
X10600000Y-7850000D02*
X10600000Y-8300000D01*
X7800000Y-8300000D02*
G75*
G03*
X8000000Y-8500000I200000J0D01*
G01*
X10600000Y-7850000D02*
G75*
G03*
X10550000Y-7800000I-50000J0D01*
G01*
X10300000Y-5050000D02*
X10300000Y-4650000D01*
X7800000Y-7500000D02*
X7800000Y-8300000D01*
X10300000Y-5050000D02*
G75*
G03*
X10350000Y-5100000I50000J0D01*
G01*
D11*
D12*
X7860000Y-8070000D02*
X7900000Y-8110000D01*
X7900000Y-8070000D02*
X7860000Y-8110000D01*
X7880000Y-7740000D02*
X7920000Y-7780000D01*
X7920000Y-7740000D02*
X7880000Y-7780000D01*
X7970000Y-5070000D02*
X8010000Y-5110000D01*
X8010000Y-5070000D02*
X7970000Y-5110000D01*
X7970000Y-8390000D02*
X8010000Y-8430000D01*
X8010000Y-8390000D02*
X7970000Y-8430000D01*
X7980000Y-5520000D02*
X8020000Y-5560000D01*
X8020000Y-5520000D02*
X7980000Y-5560000D01*
X7980000Y-6740000D02*
X8020000Y-6780000D01*
X8020000Y-6740000D02*
X7980000Y-6780000D01*
X7980000Y-6830000D02*
X8020000Y-6870000D01*
X8020000Y-6830000D02*
X7980000Y-6870000D01*
X8060000Y-6950000D02*
X8100000Y-6990000D01*
X8100000Y-6950000D02*
X8060000Y-6990000D01*
X8102018Y-7745261D02*
X8142018Y-7785261D01*
X8142018Y-7745261D02*
X8102018Y-7785261D01*
X8140000Y-5550000D02*
X8180000Y-5590000D01*
X8180000Y-5550000D02*
X8140000Y-5590000D01*
X8160000Y-6200000D02*
X8200000Y-6240000D01*
X8200000Y-6200000D02*
X8160000Y-6240000D01*
X8170000Y-6080000D02*
X8210000Y-6120000D01*
X8210000Y-6080000D02*
X8170000Y-6120000D01*
X8220000Y-7750000D02*
X8260000Y-7790000D01*
X8260000Y-7750000D02*
X8220000Y-7790000D01*
X8230000Y-5040000D02*
X8270000Y-5080000D01*
X8270000Y-5040000D02*
X8230000Y-5080000D01*
X8253000Y-4683500D02*
X8293000Y-4723500D01*
X8293000Y-4683500D02*
X8253000Y-4723500D01*
X8290000Y-6830000D02*
X8330000Y-6870000D01*
X8330000Y-6830000D02*
X8290000Y-6870000D01*
X8330000Y-5730000D02*
X8370000Y-5770000D01*
X8370000Y-5730000D02*
X8330000Y-5770000D01*
X8340000Y-7860000D02*
X8380000Y-7900000D01*
X8380000Y-7860000D02*
X8340000Y-7900000D01*
X8360000Y-8180000D02*
X8400000Y-8220000D01*
X8400000Y-8180000D02*
X8360000Y-8220000D01*
X8383000Y-4683500D02*
X8423000Y-4723500D01*
X8423000Y-4683500D02*
X8383000Y-4723500D01*
X8410000Y-7550000D02*
X8450000Y-7590000D01*
X8450000Y-7550000D02*
X8410000Y-7590000D01*
X8480000Y-6650000D02*
X8520000Y-6690000D01*
X8520000Y-6650000D02*
X8480000Y-6690000D01*
X8503000Y-4683500D02*
X8543000Y-4723500D01*
X8543000Y-4683500D02*
X8503000Y-4723500D01*
X8570000Y-7420000D02*
X8610000Y-7460000D01*
X8610000Y-7420000D02*
X8570000Y-7460000D01*
X8610000Y-6950000D02*
X8650000Y-6990000D01*
X8650000Y-6950000D02*
X8610000Y-6990000D01*
X8660000Y-5810000D02*
X8700000Y-5850000D01*
X8700000Y-5810000D02*
X8660000Y-5850000D01*
X8670000Y-5970000D02*
X8710000Y-6010000D01*
X8710000Y-5970000D02*
X8670000Y-6010000D01*
X8750000Y-6460000D02*
X8790000Y-6500000D01*
X8790000Y-6460000D02*
X8750000Y-6500000D01*
X8760000Y-6300000D02*
X8800000Y-6340000D01*
X8800000Y-6300000D02*
X8760000Y-6340000D01*
X8810000Y-4870000D02*
X8850000Y-4910000D01*
X8850000Y-4870000D02*
X8810000Y-4910000D01*
X8829999Y-5199999D02*
X8869999Y-5239999D01*
X8869999Y-5199999D02*
X8829999Y-5239999D01*
X9000000Y-6450000D02*
X9040000Y-6490000D01*
X9040000Y-6450000D02*
X9000000Y-6490000D01*
X9140000Y-5620000D02*
X9180000Y-5660000D01*
X9180000Y-5620000D02*
X9140000Y-5660000D01*
X9180000Y-6450000D02*
X9220000Y-6490000D01*
X9220000Y-6450000D02*
X9180000Y-6490000D01*
X9380000Y-6450000D02*
X9420000Y-6490000D01*
X9420000Y-6450000D02*
X9380000Y-6490000D01*
X9390000Y-5630000D02*
X9430000Y-5670000D01*
X9430000Y-5630000D02*
X9390000Y-5670000D01*
X9460000Y-5740000D02*
X9500000Y-5780000D01*
X9500000Y-5740000D02*
X9460000Y-5780000D01*
X9770000Y-6550000D02*
X9810000Y-6590000D01*
X9810000Y-6550000D02*
X9770000Y-6590000D01*
X9820000Y-6200000D02*
X9860000Y-6240000D01*
X9860000Y-6200000D02*
X9820000Y-6240000D01*
X9940000Y-7080000D02*
X9980000Y-7120000D01*
X9980000Y-7080000D02*
X9940000Y-7120000D01*
X10099999Y-7200000D02*
X10139999Y-7240000D01*
X10139999Y-7200000D02*
X10099999Y-7240000D01*
X10280000Y-5150000D02*
X10320000Y-5190000D01*
X10320000Y-5150000D02*
X10280000Y-5190000D01*
X10350000Y-7500000D02*
X10390000Y-7540000D01*
X10390000Y-7500000D02*
X10350000Y-7540000D01*
X10470000Y-7240000D02*
X10510000Y-7280000D01*
X10510000Y-7240000D02*
X10470000Y-7280000D01*
D13*
X9020000Y-5120000D02*
G75*
G03*
X9020000Y-5120000I-30000J0D01*
G01*
X9680000Y-5160000D02*
G75*
G03*
X9680000Y-5160000I-30000J0D01*
G01*
X10100000Y-6770000D02*
G75*
G03*
X10100000Y-6770000I-30000J0D01*
G01*
D10*
X8000000Y-5647500D02*
X8000000Y-5747500D01*
X7950000Y-5697500D02*
X8050000Y-5697500D01*
X8000000Y-5901500D02*
X8000000Y-6001500D01*
X7950000Y-5951500D02*
X8050000Y-5951500D01*
X8000000Y-6155500D02*
X8000000Y-6255500D01*
X7950000Y-6205500D02*
X8050000Y-6205500D01*
X8500000Y-7950000D02*
X8500000Y-8050000D01*
X8450000Y-8000000D02*
X8550000Y-8000000D01*
X8754000Y-7950000D02*
X8754000Y-8050000D01*
X8704000Y-8000000D02*
X8804000Y-8000000D01*
X8892000Y-7580000D02*
X8892000Y-7680000D01*
X8842000Y-7630000D02*
X8942000Y-7630000D01*
X9008000Y-7950000D02*
X9008000Y-8050000D01*
X8958000Y-8000000D02*
X9058000Y-8000000D01*
X9146000Y-7580000D02*
X9146000Y-7680000D01*
X9096000Y-7630000D02*
X9196000Y-7630000D01*
X9262000Y-7950000D02*
X9262000Y-8050000D01*
X9212000Y-8000000D02*
X9312000Y-8000000D01*
X9400000Y-7580000D02*
X9400000Y-7680000D01*
X9350000Y-7630000D02*
X9450000Y-7630000D01*
X9516000Y-7950000D02*
X9516000Y-8050000D01*
X9466000Y-8000000D02*
X9566000Y-8000000D01*
X10400000Y-5694500D02*
X10400000Y-5794500D01*
X10350000Y-5744500D02*
X10450000Y-5744500D01*
X10400000Y-5948500D02*
X10400000Y-6048500D01*
X10350000Y-5998500D02*
X10450000Y-5998500D01*
X10400000Y-6202500D02*
X10400000Y-6302500D01*
X10350000Y-6252500D02*
X10450000Y-6252500D01*
D14*
X9534801Y-6974801D02*
X9534801Y-6865199D01*
X9425199Y-6865199D01*
X9425199Y-6974801D01*
X9534801Y-6974801D01*
X10054801Y-5629801D02*
X10054801Y-5520199D01*
X9945199Y-5520199D01*
X9945199Y-5629801D01*
X10054801Y-5629801D01*
X10064801Y-5034801D02*
X10064801Y-4925199D01*
X9955199Y-4925199D01*
X9955199Y-5034801D01*
X10064801Y-5034801D01*
D11*
X8042619Y-8798476D02*
X8042619Y-8598476D01*
X8042619Y-8598476D02*
X8090238Y-8598476D01*
X8090238Y-8598476D02*
X8118809Y-8608000D01*
X8118809Y-8608000D02*
X8137857Y-8627048D01*
X8137857Y-8627048D02*
X8147381Y-8646095D01*
X8147381Y-8646095D02*
X8156905Y-8684190D01*
X8156905Y-8684190D02*
X8156905Y-8712762D01*
X8156905Y-8712762D02*
X8147381Y-8750857D01*
X8147381Y-8750857D02*
X8137857Y-8769905D01*
X8137857Y-8769905D02*
X8118809Y-8788952D01*
X8118809Y-8788952D02*
X8090238Y-8798476D01*
X8090238Y-8798476D02*
X8042619Y-8798476D01*
X8242619Y-8798476D02*
X8242619Y-8665143D01*
X8242619Y-8703238D02*
X8252143Y-8684190D01*
X8252143Y-8684190D02*
X8261667Y-8674667D01*
X8261667Y-8674667D02*
X8280714Y-8665143D01*
X8280714Y-8665143D02*
X8299762Y-8665143D01*
X8366428Y-8798476D02*
X8366428Y-8665143D01*
X8366428Y-8598476D02*
X8356905Y-8608000D01*
X8356905Y-8608000D02*
X8366428Y-8617524D01*
X8366428Y-8617524D02*
X8375952Y-8608000D01*
X8375952Y-8608000D02*
X8366428Y-8598476D01*
X8366428Y-8598476D02*
X8366428Y-8617524D01*
X8490238Y-8798476D02*
X8471190Y-8788952D01*
X8471190Y-8788952D02*
X8461667Y-8769905D01*
X8461667Y-8769905D02*
X8461667Y-8598476D01*
X8595000Y-8798476D02*
X8575952Y-8788952D01*
X8575952Y-8788952D02*
X8566429Y-8769905D01*
X8566429Y-8769905D02*
X8566429Y-8598476D01*
X8791190Y-8798476D02*
X8791190Y-8598476D01*
X8791190Y-8598476D02*
X8857857Y-8741333D01*
X8857857Y-8741333D02*
X8924524Y-8598476D01*
X8924524Y-8598476D02*
X8924524Y-8798476D01*
X9105476Y-8798476D02*
X9105476Y-8693714D01*
X9105476Y-8693714D02*
X9095952Y-8674667D01*
X9095952Y-8674667D02*
X9076905Y-8665143D01*
X9076905Y-8665143D02*
X9038809Y-8665143D01*
X9038809Y-8665143D02*
X9019762Y-8674667D01*
X9105476Y-8788952D02*
X9086429Y-8798476D01*
X9086429Y-8798476D02*
X9038809Y-8798476D01*
X9038809Y-8798476D02*
X9019762Y-8788952D01*
X9019762Y-8788952D02*
X9010238Y-8769905D01*
X9010238Y-8769905D02*
X9010238Y-8750857D01*
X9010238Y-8750857D02*
X9019762Y-8731810D01*
X9019762Y-8731810D02*
X9038809Y-8722286D01*
X9038809Y-8722286D02*
X9086429Y-8722286D01*
X9086429Y-8722286D02*
X9105476Y-8712762D01*
X9200714Y-8665143D02*
X9200714Y-8865143D01*
X9200714Y-8674667D02*
X9219762Y-8665143D01*
X9219762Y-8665143D02*
X9257857Y-8665143D01*
X9257857Y-8665143D02*
X9276905Y-8674667D01*
X9276905Y-8674667D02*
X9286429Y-8684190D01*
X9286429Y-8684190D02*
X9295952Y-8703238D01*
X9295952Y-8703238D02*
X9295952Y-8760381D01*
X9295952Y-8760381D02*
X9286429Y-8779429D01*
X9286429Y-8779429D02*
X9276905Y-8788952D01*
X9276905Y-8788952D02*
X9257857Y-8798476D01*
X9257857Y-8798476D02*
X9219762Y-8798476D01*
X9219762Y-8798476D02*
X9200714Y-8788952D01*
X9381667Y-8779429D02*
X9391190Y-8788952D01*
X9391190Y-8788952D02*
X9381667Y-8798476D01*
X9381667Y-8798476D02*
X9372143Y-8788952D01*
X9372143Y-8788952D02*
X9381667Y-8779429D01*
X9381667Y-8779429D02*
X9381667Y-8798476D01*
X9381667Y-8674667D02*
X9391190Y-8684190D01*
X9391190Y-8684190D02*
X9381667Y-8693714D01*
X9381667Y-8693714D02*
X9372143Y-8684190D01*
X9372143Y-8684190D02*
X9381667Y-8674667D01*
X9381667Y-8674667D02*
X9381667Y-8693714D01*
D12*
X7755000Y-9125000D02*
X7795000Y-9165000D01*
X7795000Y-9125000D02*
X7755000Y-9165000D01*
D11*
X8080714Y-9018476D02*
X8099762Y-9018476D01*
X8099762Y-9018476D02*
X8118809Y-9028000D01*
X8118809Y-9028000D02*
X8128333Y-9037524D01*
X8128333Y-9037524D02*
X8137857Y-9056571D01*
X8137857Y-9056571D02*
X8147381Y-9094667D01*
X8147381Y-9094667D02*
X8147381Y-9142286D01*
X8147381Y-9142286D02*
X8137857Y-9180381D01*
X8137857Y-9180381D02*
X8128333Y-9199429D01*
X8128333Y-9199429D02*
X8118809Y-9208952D01*
X8118809Y-9208952D02*
X8099762Y-9218476D01*
X8099762Y-9218476D02*
X8080714Y-9218476D01*
X8080714Y-9218476D02*
X8061667Y-9208952D01*
X8061667Y-9208952D02*
X8052143Y-9199429D01*
X8052143Y-9199429D02*
X8042619Y-9180381D01*
X8042619Y-9180381D02*
X8033095Y-9142286D01*
X8033095Y-9142286D02*
X8033095Y-9094667D01*
X8033095Y-9094667D02*
X8042619Y-9056571D01*
X8042619Y-9056571D02*
X8052143Y-9037524D01*
X8052143Y-9037524D02*
X8061667Y-9028000D01*
X8061667Y-9028000D02*
X8080714Y-9018476D01*
X8233095Y-9199429D02*
X8242619Y-9208952D01*
X8242619Y-9208952D02*
X8233095Y-9218476D01*
X8233095Y-9218476D02*
X8223571Y-9208952D01*
X8223571Y-9208952D02*
X8233095Y-9199429D01*
X8233095Y-9199429D02*
X8233095Y-9218476D01*
X8414048Y-9085143D02*
X8414048Y-9218476D01*
X8366428Y-9008952D02*
X8318809Y-9151810D01*
X8318809Y-9151810D02*
X8442619Y-9151810D01*
X8556905Y-9018476D02*
X8575952Y-9018476D01*
X8575952Y-9018476D02*
X8595000Y-9028000D01*
X8595000Y-9028000D02*
X8604524Y-9037524D01*
X8604524Y-9037524D02*
X8614048Y-9056571D01*
X8614048Y-9056571D02*
X8623571Y-9094667D01*
X8623571Y-9094667D02*
X8623571Y-9142286D01*
X8623571Y-9142286D02*
X8614048Y-9180381D01*
X8614048Y-9180381D02*
X8604524Y-9199429D01*
X8604524Y-9199429D02*
X8595000Y-9208952D01*
X8595000Y-9208952D02*
X8575952Y-9218476D01*
X8575952Y-9218476D02*
X8556905Y-9218476D01*
X8556905Y-9218476D02*
X8537857Y-9208952D01*
X8537857Y-9208952D02*
X8528333Y-9199429D01*
X8528333Y-9199429D02*
X8518810Y-9180381D01*
X8518810Y-9180381D02*
X8509286Y-9142286D01*
X8509286Y-9142286D02*
X8509286Y-9094667D01*
X8509286Y-9094667D02*
X8518810Y-9056571D01*
X8518810Y-9056571D02*
X8528333Y-9037524D01*
X8528333Y-9037524D02*
X8537857Y-9028000D01*
X8537857Y-9028000D02*
X8556905Y-9018476D01*
X8747381Y-9018476D02*
X8766429Y-9018476D01*
X8766429Y-9018476D02*
X8785476Y-9028000D01*
X8785476Y-9028000D02*
X8795000Y-9037524D01*
X8795000Y-9037524D02*
X8804524Y-9056571D01*
X8804524Y-9056571D02*
X8814048Y-9094667D01*
X8814048Y-9094667D02*
X8814048Y-9142286D01*
X8814048Y-9142286D02*
X8804524Y-9180381D01*
X8804524Y-9180381D02*
X8795000Y-9199429D01*
X8795000Y-9199429D02*
X8785476Y-9208952D01*
X8785476Y-9208952D02*
X8766429Y-9218476D01*
X8766429Y-9218476D02*
X8747381Y-9218476D01*
X8747381Y-9218476D02*
X8728333Y-9208952D01*
X8728333Y-9208952D02*
X8718810Y-9199429D01*
X8718810Y-9199429D02*
X8709286Y-9180381D01*
X8709286Y-9180381D02*
X8699762Y-9142286D01*
X8699762Y-9142286D02*
X8699762Y-9094667D01*
X8699762Y-9094667D02*
X8709286Y-9056571D01*
X8709286Y-9056571D02*
X8718810Y-9037524D01*
X8718810Y-9037524D02*
X8728333Y-9028000D01*
X8728333Y-9028000D02*
X8747381Y-9018476D01*
X8899762Y-9218476D02*
X8899762Y-9085143D01*
X8899762Y-9104190D02*
X8909286Y-9094667D01*
X8909286Y-9094667D02*
X8928333Y-9085143D01*
X8928333Y-9085143D02*
X8956905Y-9085143D01*
X8956905Y-9085143D02*
X8975952Y-9094667D01*
X8975952Y-9094667D02*
X8985476Y-9113714D01*
X8985476Y-9113714D02*
X8985476Y-9218476D01*
X8985476Y-9113714D02*
X8995000Y-9094667D01*
X8995000Y-9094667D02*
X9014048Y-9085143D01*
X9014048Y-9085143D02*
X9042619Y-9085143D01*
X9042619Y-9085143D02*
X9061667Y-9094667D01*
X9061667Y-9094667D02*
X9071191Y-9113714D01*
X9071191Y-9113714D02*
X9071191Y-9218476D01*
X9166429Y-9218476D02*
X9166429Y-9085143D01*
X9166429Y-9104190D02*
X9175952Y-9094667D01*
X9175952Y-9094667D02*
X9195000Y-9085143D01*
X9195000Y-9085143D02*
X9223572Y-9085143D01*
X9223572Y-9085143D02*
X9242619Y-9094667D01*
X9242619Y-9094667D02*
X9252143Y-9113714D01*
X9252143Y-9113714D02*
X9252143Y-9218476D01*
X9252143Y-9113714D02*
X9261667Y-9094667D01*
X9261667Y-9094667D02*
X9280714Y-9085143D01*
X9280714Y-9085143D02*
X9309286Y-9085143D01*
X9309286Y-9085143D02*
X9328333Y-9094667D01*
X9328333Y-9094667D02*
X9337857Y-9113714D01*
X9337857Y-9113714D02*
X9337857Y-9218476D01*
X9695952Y-9008952D02*
X9524524Y-9266095D01*
X9920714Y-9018476D02*
X9939762Y-9018476D01*
X9939762Y-9018476D02*
X9958810Y-9028000D01*
X9958810Y-9028000D02*
X9968333Y-9037524D01*
X9968333Y-9037524D02*
X9977857Y-9056571D01*
X9977857Y-9056571D02*
X9987381Y-9094667D01*
X9987381Y-9094667D02*
X9987381Y-9142286D01*
X9987381Y-9142286D02*
X9977857Y-9180381D01*
X9977857Y-9180381D02*
X9968333Y-9199429D01*
X9968333Y-9199429D02*
X9958810Y-9208952D01*
X9958810Y-9208952D02*
X9939762Y-9218476D01*
X9939762Y-9218476D02*
X9920714Y-9218476D01*
X9920714Y-9218476D02*
X9901667Y-9208952D01*
X9901667Y-9208952D02*
X9892143Y-9199429D01*
X9892143Y-9199429D02*
X9882619Y-9180381D01*
X9882619Y-9180381D02*
X9873095Y-9142286D01*
X9873095Y-9142286D02*
X9873095Y-9094667D01*
X9873095Y-9094667D02*
X9882619Y-9056571D01*
X9882619Y-9056571D02*
X9892143Y-9037524D01*
X9892143Y-9037524D02*
X9901667Y-9028000D01*
X9901667Y-9028000D02*
X9920714Y-9018476D01*
X10073095Y-9199429D02*
X10082619Y-9208952D01*
X10082619Y-9208952D02*
X10073095Y-9218476D01*
X10073095Y-9218476D02*
X10063572Y-9208952D01*
X10063572Y-9208952D02*
X10073095Y-9199429D01*
X10073095Y-9199429D02*
X10073095Y-9218476D01*
X10206429Y-9018476D02*
X10225476Y-9018476D01*
X10225476Y-9018476D02*
X10244524Y-9028000D01*
X10244524Y-9028000D02*
X10254048Y-9037524D01*
X10254048Y-9037524D02*
X10263572Y-9056571D01*
X10263572Y-9056571D02*
X10273095Y-9094667D01*
X10273095Y-9094667D02*
X10273095Y-9142286D01*
X10273095Y-9142286D02*
X10263572Y-9180381D01*
X10263572Y-9180381D02*
X10254048Y-9199429D01*
X10254048Y-9199429D02*
X10244524Y-9208952D01*
X10244524Y-9208952D02*
X10225476Y-9218476D01*
X10225476Y-9218476D02*
X10206429Y-9218476D01*
X10206429Y-9218476D02*
X10187381Y-9208952D01*
X10187381Y-9208952D02*
X10177857Y-9199429D01*
X10177857Y-9199429D02*
X10168333Y-9180381D01*
X10168333Y-9180381D02*
X10158810Y-9142286D01*
X10158810Y-9142286D02*
X10158810Y-9094667D01*
X10158810Y-9094667D02*
X10168333Y-9056571D01*
X10168333Y-9056571D02*
X10177857Y-9037524D01*
X10177857Y-9037524D02*
X10187381Y-9028000D01*
X10187381Y-9028000D02*
X10206429Y-9018476D01*
X10463572Y-9218476D02*
X10349286Y-9218476D01*
X10406429Y-9218476D02*
X10406429Y-9018476D01*
X10406429Y-9018476D02*
X10387381Y-9047048D01*
X10387381Y-9047048D02*
X10368333Y-9066095D01*
X10368333Y-9066095D02*
X10349286Y-9075619D01*
X10644524Y-9018476D02*
X10549286Y-9018476D01*
X10549286Y-9018476D02*
X10539762Y-9113714D01*
X10539762Y-9113714D02*
X10549286Y-9104190D01*
X10549286Y-9104190D02*
X10568333Y-9094667D01*
X10568333Y-9094667D02*
X10615953Y-9094667D01*
X10615953Y-9094667D02*
X10635000Y-9104190D01*
X10635000Y-9104190D02*
X10644524Y-9113714D01*
X10644524Y-9113714D02*
X10654048Y-9132762D01*
X10654048Y-9132762D02*
X10654048Y-9180381D01*
X10654048Y-9180381D02*
X10644524Y-9199429D01*
X10644524Y-9199429D02*
X10635000Y-9208952D01*
X10635000Y-9208952D02*
X10615953Y-9218476D01*
X10615953Y-9218476D02*
X10568333Y-9218476D01*
X10568333Y-9218476D02*
X10549286Y-9208952D01*
X10549286Y-9208952D02*
X10539762Y-9199429D01*
X10720714Y-9018476D02*
X10854048Y-9018476D01*
X10854048Y-9018476D02*
X10768333Y-9218476D01*
X10920714Y-9018476D02*
X10920714Y-9056571D01*
X10996905Y-9018476D02*
X10996905Y-9056571D01*
X11259762Y-9294667D02*
X11250238Y-9285143D01*
X11250238Y-9285143D02*
X11231191Y-9256571D01*
X11231191Y-9256571D02*
X11221667Y-9237524D01*
X11221667Y-9237524D02*
X11212143Y-9208952D01*
X11212143Y-9208952D02*
X11202619Y-9161333D01*
X11202619Y-9161333D02*
X11202619Y-9123238D01*
X11202619Y-9123238D02*
X11212143Y-9075619D01*
X11212143Y-9075619D02*
X11221667Y-9047048D01*
X11221667Y-9047048D02*
X11231191Y-9028000D01*
X11231191Y-9028000D02*
X11250238Y-8999429D01*
X11250238Y-8999429D02*
X11259762Y-8989905D01*
X11421667Y-9085143D02*
X11421667Y-9218476D01*
X11374048Y-9008952D02*
X11326429Y-9151810D01*
X11326429Y-9151810D02*
X11450238Y-9151810D01*
X11612143Y-9085143D02*
X11612143Y-9218476D01*
X11564524Y-9008952D02*
X11516905Y-9151810D01*
X11516905Y-9151810D02*
X11640714Y-9151810D01*
X11836905Y-9218476D02*
X11836905Y-9018476D01*
X11922619Y-9218476D02*
X11922619Y-9113714D01*
X11922619Y-9113714D02*
X11913095Y-9094667D01*
X11913095Y-9094667D02*
X11894048Y-9085143D01*
X11894048Y-9085143D02*
X11865476Y-9085143D01*
X11865476Y-9085143D02*
X11846429Y-9094667D01*
X11846429Y-9094667D02*
X11836905Y-9104190D01*
X12046429Y-9218476D02*
X12027381Y-9208952D01*
X12027381Y-9208952D02*
X12017857Y-9199429D01*
X12017857Y-9199429D02*
X12008333Y-9180381D01*
X12008333Y-9180381D02*
X12008333Y-9123238D01*
X12008333Y-9123238D02*
X12017857Y-9104190D01*
X12017857Y-9104190D02*
X12027381Y-9094667D01*
X12027381Y-9094667D02*
X12046429Y-9085143D01*
X12046429Y-9085143D02*
X12075000Y-9085143D01*
X12075000Y-9085143D02*
X12094048Y-9094667D01*
X12094048Y-9094667D02*
X12103572Y-9104190D01*
X12103572Y-9104190D02*
X12113095Y-9123238D01*
X12113095Y-9123238D02*
X12113095Y-9180381D01*
X12113095Y-9180381D02*
X12103572Y-9199429D01*
X12103572Y-9199429D02*
X12094048Y-9208952D01*
X12094048Y-9208952D02*
X12075000Y-9218476D01*
X12075000Y-9218476D02*
X12046429Y-9218476D01*
X12227381Y-9218476D02*
X12208333Y-9208952D01*
X12208333Y-9208952D02*
X12198810Y-9189905D01*
X12198810Y-9189905D02*
X12198810Y-9018476D01*
X12379762Y-9208952D02*
X12360714Y-9218476D01*
X12360714Y-9218476D02*
X12322619Y-9218476D01*
X12322619Y-9218476D02*
X12303572Y-9208952D01*
X12303572Y-9208952D02*
X12294048Y-9189905D01*
X12294048Y-9189905D02*
X12294048Y-9113714D01*
X12294048Y-9113714D02*
X12303572Y-9094667D01*
X12303572Y-9094667D02*
X12322619Y-9085143D01*
X12322619Y-9085143D02*
X12360714Y-9085143D01*
X12360714Y-9085143D02*
X12379762Y-9094667D01*
X12379762Y-9094667D02*
X12389286Y-9113714D01*
X12389286Y-9113714D02*
X12389286Y-9132762D01*
X12389286Y-9132762D02*
X12294048Y-9151810D01*
X12465476Y-9208952D02*
X12484524Y-9218476D01*
X12484524Y-9218476D02*
X12522619Y-9218476D01*
X12522619Y-9218476D02*
X12541667Y-9208952D01*
X12541667Y-9208952D02*
X12551191Y-9189905D01*
X12551191Y-9189905D02*
X12551191Y-9180381D01*
X12551191Y-9180381D02*
X12541667Y-9161333D01*
X12541667Y-9161333D02*
X12522619Y-9151810D01*
X12522619Y-9151810D02*
X12494048Y-9151810D01*
X12494048Y-9151810D02*
X12475000Y-9142286D01*
X12475000Y-9142286D02*
X12465476Y-9123238D01*
X12465476Y-9123238D02*
X12465476Y-9113714D01*
X12465476Y-9113714D02*
X12475000Y-9094667D01*
X12475000Y-9094667D02*
X12494048Y-9085143D01*
X12494048Y-9085143D02*
X12522619Y-9085143D01*
X12522619Y-9085143D02*
X12541667Y-9094667D01*
X12617857Y-9294667D02*
X12627381Y-9285143D01*
X12627381Y-9285143D02*
X12646429Y-9256571D01*
X12646429Y-9256571D02*
X12655953Y-9237524D01*
X12655953Y-9237524D02*
X12665476Y-9208952D01*
X12665476Y-9208952D02*
X12675000Y-9161333D01*
X12675000Y-9161333D02*
X12675000Y-9123238D01*
X12675000Y-9123238D02*
X12665476Y-9075619D01*
X12665476Y-9075619D02*
X12655953Y-9047048D01*
X12655953Y-9047048D02*
X12646429Y-9028000D01*
X12646429Y-9028000D02*
X12627381Y-8999429D01*
X12627381Y-8999429D02*
X12617857Y-8989905D01*
D13*
X7795000Y-9409000D02*
G75*
G03*
X7795000Y-9409000I-30000J0D01*
G01*
D11*
X8080714Y-9282476D02*
X8099762Y-9282476D01*
X8099762Y-9282476D02*
X8118809Y-9292000D01*
X8118809Y-9292000D02*
X8128333Y-9301524D01*
X8128333Y-9301524D02*
X8137857Y-9320571D01*
X8137857Y-9320571D02*
X8147381Y-9358667D01*
X8147381Y-9358667D02*
X8147381Y-9406286D01*
X8147381Y-9406286D02*
X8137857Y-9444381D01*
X8137857Y-9444381D02*
X8128333Y-9463429D01*
X8128333Y-9463429D02*
X8118809Y-9472952D01*
X8118809Y-9472952D02*
X8099762Y-9482476D01*
X8099762Y-9482476D02*
X8080714Y-9482476D01*
X8080714Y-9482476D02*
X8061667Y-9472952D01*
X8061667Y-9472952D02*
X8052143Y-9463429D01*
X8052143Y-9463429D02*
X8042619Y-9444381D01*
X8042619Y-9444381D02*
X8033095Y-9406286D01*
X8033095Y-9406286D02*
X8033095Y-9358667D01*
X8033095Y-9358667D02*
X8042619Y-9320571D01*
X8042619Y-9320571D02*
X8052143Y-9301524D01*
X8052143Y-9301524D02*
X8061667Y-9292000D01*
X8061667Y-9292000D02*
X8080714Y-9282476D01*
X8233095Y-9463429D02*
X8242619Y-9472952D01*
X8242619Y-9472952D02*
X8233095Y-9482476D01*
X8233095Y-9482476D02*
X8223571Y-9472952D01*
X8223571Y-9472952D02*
X8233095Y-9463429D01*
X8233095Y-9463429D02*
X8233095Y-9482476D01*
X8414048Y-9282476D02*
X8375952Y-9282476D01*
X8375952Y-9282476D02*
X8356905Y-9292000D01*
X8356905Y-9292000D02*
X8347381Y-9301524D01*
X8347381Y-9301524D02*
X8328333Y-9330095D01*
X8328333Y-9330095D02*
X8318809Y-9368190D01*
X8318809Y-9368190D02*
X8318809Y-9444381D01*
X8318809Y-9444381D02*
X8328333Y-9463429D01*
X8328333Y-9463429D02*
X8337857Y-9472952D01*
X8337857Y-9472952D02*
X8356905Y-9482476D01*
X8356905Y-9482476D02*
X8395000Y-9482476D01*
X8395000Y-9482476D02*
X8414048Y-9472952D01*
X8414048Y-9472952D02*
X8423571Y-9463429D01*
X8423571Y-9463429D02*
X8433095Y-9444381D01*
X8433095Y-9444381D02*
X8433095Y-9396762D01*
X8433095Y-9396762D02*
X8423571Y-9377714D01*
X8423571Y-9377714D02*
X8414048Y-9368190D01*
X8414048Y-9368190D02*
X8395000Y-9358667D01*
X8395000Y-9358667D02*
X8356905Y-9358667D01*
X8356905Y-9358667D02*
X8337857Y-9368190D01*
X8337857Y-9368190D02*
X8328333Y-9377714D01*
X8328333Y-9377714D02*
X8318809Y-9396762D01*
X8556905Y-9282476D02*
X8575952Y-9282476D01*
X8575952Y-9282476D02*
X8595000Y-9292000D01*
X8595000Y-9292000D02*
X8604524Y-9301524D01*
X8604524Y-9301524D02*
X8614048Y-9320571D01*
X8614048Y-9320571D02*
X8623571Y-9358667D01*
X8623571Y-9358667D02*
X8623571Y-9406286D01*
X8623571Y-9406286D02*
X8614048Y-9444381D01*
X8614048Y-9444381D02*
X8604524Y-9463429D01*
X8604524Y-9463429D02*
X8595000Y-9472952D01*
X8595000Y-9472952D02*
X8575952Y-9482476D01*
X8575952Y-9482476D02*
X8556905Y-9482476D01*
X8556905Y-9482476D02*
X8537857Y-9472952D01*
X8537857Y-9472952D02*
X8528333Y-9463429D01*
X8528333Y-9463429D02*
X8518810Y-9444381D01*
X8518810Y-9444381D02*
X8509286Y-9406286D01*
X8509286Y-9406286D02*
X8509286Y-9358667D01*
X8509286Y-9358667D02*
X8518810Y-9320571D01*
X8518810Y-9320571D02*
X8528333Y-9301524D01*
X8528333Y-9301524D02*
X8537857Y-9292000D01*
X8537857Y-9292000D02*
X8556905Y-9282476D01*
X8747381Y-9282476D02*
X8766429Y-9282476D01*
X8766429Y-9282476D02*
X8785476Y-9292000D01*
X8785476Y-9292000D02*
X8795000Y-9301524D01*
X8795000Y-9301524D02*
X8804524Y-9320571D01*
X8804524Y-9320571D02*
X8814048Y-9358667D01*
X8814048Y-9358667D02*
X8814048Y-9406286D01*
X8814048Y-9406286D02*
X8804524Y-9444381D01*
X8804524Y-9444381D02*
X8795000Y-9463429D01*
X8795000Y-9463429D02*
X8785476Y-9472952D01*
X8785476Y-9472952D02*
X8766429Y-9482476D01*
X8766429Y-9482476D02*
X8747381Y-9482476D01*
X8747381Y-9482476D02*
X8728333Y-9472952D01*
X8728333Y-9472952D02*
X8718810Y-9463429D01*
X8718810Y-9463429D02*
X8709286Y-9444381D01*
X8709286Y-9444381D02*
X8699762Y-9406286D01*
X8699762Y-9406286D02*
X8699762Y-9358667D01*
X8699762Y-9358667D02*
X8709286Y-9320571D01*
X8709286Y-9320571D02*
X8718810Y-9301524D01*
X8718810Y-9301524D02*
X8728333Y-9292000D01*
X8728333Y-9292000D02*
X8747381Y-9282476D01*
X8899762Y-9482476D02*
X8899762Y-9349143D01*
X8899762Y-9368190D02*
X8909286Y-9358667D01*
X8909286Y-9358667D02*
X8928333Y-9349143D01*
X8928333Y-9349143D02*
X8956905Y-9349143D01*
X8956905Y-9349143D02*
X8975952Y-9358667D01*
X8975952Y-9358667D02*
X8985476Y-9377714D01*
X8985476Y-9377714D02*
X8985476Y-9482476D01*
X8985476Y-9377714D02*
X8995000Y-9358667D01*
X8995000Y-9358667D02*
X9014048Y-9349143D01*
X9014048Y-9349143D02*
X9042619Y-9349143D01*
X9042619Y-9349143D02*
X9061667Y-9358667D01*
X9061667Y-9358667D02*
X9071191Y-9377714D01*
X9071191Y-9377714D02*
X9071191Y-9482476D01*
X9166429Y-9482476D02*
X9166429Y-9349143D01*
X9166429Y-9368190D02*
X9175952Y-9358667D01*
X9175952Y-9358667D02*
X9195000Y-9349143D01*
X9195000Y-9349143D02*
X9223572Y-9349143D01*
X9223572Y-9349143D02*
X9242619Y-9358667D01*
X9242619Y-9358667D02*
X9252143Y-9377714D01*
X9252143Y-9377714D02*
X9252143Y-9482476D01*
X9252143Y-9377714D02*
X9261667Y-9358667D01*
X9261667Y-9358667D02*
X9280714Y-9349143D01*
X9280714Y-9349143D02*
X9309286Y-9349143D01*
X9309286Y-9349143D02*
X9328333Y-9358667D01*
X9328333Y-9358667D02*
X9337857Y-9377714D01*
X9337857Y-9377714D02*
X9337857Y-9482476D01*
X9695952Y-9272952D02*
X9524524Y-9530095D01*
X9920714Y-9282476D02*
X9939762Y-9282476D01*
X9939762Y-9282476D02*
X9958810Y-9292000D01*
X9958810Y-9292000D02*
X9968333Y-9301524D01*
X9968333Y-9301524D02*
X9977857Y-9320571D01*
X9977857Y-9320571D02*
X9987381Y-9358667D01*
X9987381Y-9358667D02*
X9987381Y-9406286D01*
X9987381Y-9406286D02*
X9977857Y-9444381D01*
X9977857Y-9444381D02*
X9968333Y-9463429D01*
X9968333Y-9463429D02*
X9958810Y-9472952D01*
X9958810Y-9472952D02*
X9939762Y-9482476D01*
X9939762Y-9482476D02*
X9920714Y-9482476D01*
X9920714Y-9482476D02*
X9901667Y-9472952D01*
X9901667Y-9472952D02*
X9892143Y-9463429D01*
X9892143Y-9463429D02*
X9882619Y-9444381D01*
X9882619Y-9444381D02*
X9873095Y-9406286D01*
X9873095Y-9406286D02*
X9873095Y-9358667D01*
X9873095Y-9358667D02*
X9882619Y-9320571D01*
X9882619Y-9320571D02*
X9892143Y-9301524D01*
X9892143Y-9301524D02*
X9901667Y-9292000D01*
X9901667Y-9292000D02*
X9920714Y-9282476D01*
X10073095Y-9463429D02*
X10082619Y-9472952D01*
X10082619Y-9472952D02*
X10073095Y-9482476D01*
X10073095Y-9482476D02*
X10063572Y-9472952D01*
X10063572Y-9472952D02*
X10073095Y-9463429D01*
X10073095Y-9463429D02*
X10073095Y-9482476D01*
X10206429Y-9282476D02*
X10225476Y-9282476D01*
X10225476Y-9282476D02*
X10244524Y-9292000D01*
X10244524Y-9292000D02*
X10254048Y-9301524D01*
X10254048Y-9301524D02*
X10263572Y-9320571D01*
X10263572Y-9320571D02*
X10273095Y-9358667D01*
X10273095Y-9358667D02*
X10273095Y-9406286D01*
X10273095Y-9406286D02*
X10263572Y-9444381D01*
X10263572Y-9444381D02*
X10254048Y-9463429D01*
X10254048Y-9463429D02*
X10244524Y-9472952D01*
X10244524Y-9472952D02*
X10225476Y-9482476D01*
X10225476Y-9482476D02*
X10206429Y-9482476D01*
X10206429Y-9482476D02*
X10187381Y-9472952D01*
X10187381Y-9472952D02*
X10177857Y-9463429D01*
X10177857Y-9463429D02*
X10168333Y-9444381D01*
X10168333Y-9444381D02*
X10158810Y-9406286D01*
X10158810Y-9406286D02*
X10158810Y-9358667D01*
X10158810Y-9358667D02*
X10168333Y-9320571D01*
X10168333Y-9320571D02*
X10177857Y-9301524D01*
X10177857Y-9301524D02*
X10187381Y-9292000D01*
X10187381Y-9292000D02*
X10206429Y-9282476D01*
X10349286Y-9301524D02*
X10358810Y-9292000D01*
X10358810Y-9292000D02*
X10377857Y-9282476D01*
X10377857Y-9282476D02*
X10425476Y-9282476D01*
X10425476Y-9282476D02*
X10444524Y-9292000D01*
X10444524Y-9292000D02*
X10454048Y-9301524D01*
X10454048Y-9301524D02*
X10463572Y-9320571D01*
X10463572Y-9320571D02*
X10463572Y-9339619D01*
X10463572Y-9339619D02*
X10454048Y-9368190D01*
X10454048Y-9368190D02*
X10339762Y-9482476D01*
X10339762Y-9482476D02*
X10463572Y-9482476D01*
X10530238Y-9282476D02*
X10654048Y-9282476D01*
X10654048Y-9282476D02*
X10587381Y-9358667D01*
X10587381Y-9358667D02*
X10615953Y-9358667D01*
X10615953Y-9358667D02*
X10635000Y-9368190D01*
X10635000Y-9368190D02*
X10644524Y-9377714D01*
X10644524Y-9377714D02*
X10654048Y-9396762D01*
X10654048Y-9396762D02*
X10654048Y-9444381D01*
X10654048Y-9444381D02*
X10644524Y-9463429D01*
X10644524Y-9463429D02*
X10635000Y-9472952D01*
X10635000Y-9472952D02*
X10615953Y-9482476D01*
X10615953Y-9482476D02*
X10558810Y-9482476D01*
X10558810Y-9482476D02*
X10539762Y-9472952D01*
X10539762Y-9472952D02*
X10530238Y-9463429D01*
X10825476Y-9282476D02*
X10787381Y-9282476D01*
X10787381Y-9282476D02*
X10768333Y-9292000D01*
X10768333Y-9292000D02*
X10758810Y-9301524D01*
X10758810Y-9301524D02*
X10739762Y-9330095D01*
X10739762Y-9330095D02*
X10730238Y-9368190D01*
X10730238Y-9368190D02*
X10730238Y-9444381D01*
X10730238Y-9444381D02*
X10739762Y-9463429D01*
X10739762Y-9463429D02*
X10749286Y-9472952D01*
X10749286Y-9472952D02*
X10768333Y-9482476D01*
X10768333Y-9482476D02*
X10806429Y-9482476D01*
X10806429Y-9482476D02*
X10825476Y-9472952D01*
X10825476Y-9472952D02*
X10835000Y-9463429D01*
X10835000Y-9463429D02*
X10844524Y-9444381D01*
X10844524Y-9444381D02*
X10844524Y-9396762D01*
X10844524Y-9396762D02*
X10835000Y-9377714D01*
X10835000Y-9377714D02*
X10825476Y-9368190D01*
X10825476Y-9368190D02*
X10806429Y-9358667D01*
X10806429Y-9358667D02*
X10768333Y-9358667D01*
X10768333Y-9358667D02*
X10749286Y-9368190D01*
X10749286Y-9368190D02*
X10739762Y-9377714D01*
X10739762Y-9377714D02*
X10730238Y-9396762D01*
X10920714Y-9282476D02*
X10920714Y-9320571D01*
X10996905Y-9282476D02*
X10996905Y-9320571D01*
X11259762Y-9558667D02*
X11250238Y-9549143D01*
X11250238Y-9549143D02*
X11231191Y-9520571D01*
X11231191Y-9520571D02*
X11221667Y-9501524D01*
X11221667Y-9501524D02*
X11212143Y-9472952D01*
X11212143Y-9472952D02*
X11202619Y-9425333D01*
X11202619Y-9425333D02*
X11202619Y-9387238D01*
X11202619Y-9387238D02*
X11212143Y-9339619D01*
X11212143Y-9339619D02*
X11221667Y-9311048D01*
X11221667Y-9311048D02*
X11231191Y-9292000D01*
X11231191Y-9292000D02*
X11250238Y-9263429D01*
X11250238Y-9263429D02*
X11259762Y-9253905D01*
X11316905Y-9282476D02*
X11440714Y-9282476D01*
X11440714Y-9282476D02*
X11374048Y-9358667D01*
X11374048Y-9358667D02*
X11402619Y-9358667D01*
X11402619Y-9358667D02*
X11421667Y-9368190D01*
X11421667Y-9368190D02*
X11431191Y-9377714D01*
X11431191Y-9377714D02*
X11440714Y-9396762D01*
X11440714Y-9396762D02*
X11440714Y-9444381D01*
X11440714Y-9444381D02*
X11431191Y-9463429D01*
X11431191Y-9463429D02*
X11421667Y-9472952D01*
X11421667Y-9472952D02*
X11402619Y-9482476D01*
X11402619Y-9482476D02*
X11345476Y-9482476D01*
X11345476Y-9482476D02*
X11326429Y-9472952D01*
X11326429Y-9472952D02*
X11316905Y-9463429D01*
X11646429Y-9482476D02*
X11646429Y-9282476D01*
X11732143Y-9482476D02*
X11732143Y-9377714D01*
X11732143Y-9377714D02*
X11722619Y-9358667D01*
X11722619Y-9358667D02*
X11703572Y-9349143D01*
X11703572Y-9349143D02*
X11675000Y-9349143D01*
X11675000Y-9349143D02*
X11655952Y-9358667D01*
X11655952Y-9358667D02*
X11646429Y-9368190D01*
X11855952Y-9482476D02*
X11836905Y-9472952D01*
X11836905Y-9472952D02*
X11827381Y-9463429D01*
X11827381Y-9463429D02*
X11817857Y-9444381D01*
X11817857Y-9444381D02*
X11817857Y-9387238D01*
X11817857Y-9387238D02*
X11827381Y-9368190D01*
X11827381Y-9368190D02*
X11836905Y-9358667D01*
X11836905Y-9358667D02*
X11855952Y-9349143D01*
X11855952Y-9349143D02*
X11884524Y-9349143D01*
X11884524Y-9349143D02*
X11903572Y-9358667D01*
X11903572Y-9358667D02*
X11913095Y-9368190D01*
X11913095Y-9368190D02*
X11922619Y-9387238D01*
X11922619Y-9387238D02*
X11922619Y-9444381D01*
X11922619Y-9444381D02*
X11913095Y-9463429D01*
X11913095Y-9463429D02*
X11903572Y-9472952D01*
X11903572Y-9472952D02*
X11884524Y-9482476D01*
X11884524Y-9482476D02*
X11855952Y-9482476D01*
X12036905Y-9482476D02*
X12017857Y-9472952D01*
X12017857Y-9472952D02*
X12008333Y-9453905D01*
X12008333Y-9453905D02*
X12008333Y-9282476D01*
X12189286Y-9472952D02*
X12170238Y-9482476D01*
X12170238Y-9482476D02*
X12132143Y-9482476D01*
X12132143Y-9482476D02*
X12113095Y-9472952D01*
X12113095Y-9472952D02*
X12103572Y-9453905D01*
X12103572Y-9453905D02*
X12103572Y-9377714D01*
X12103572Y-9377714D02*
X12113095Y-9358667D01*
X12113095Y-9358667D02*
X12132143Y-9349143D01*
X12132143Y-9349143D02*
X12170238Y-9349143D01*
X12170238Y-9349143D02*
X12189286Y-9358667D01*
X12189286Y-9358667D02*
X12198810Y-9377714D01*
X12198810Y-9377714D02*
X12198810Y-9396762D01*
X12198810Y-9396762D02*
X12103572Y-9415810D01*
X12275000Y-9472952D02*
X12294048Y-9482476D01*
X12294048Y-9482476D02*
X12332143Y-9482476D01*
X12332143Y-9482476D02*
X12351191Y-9472952D01*
X12351191Y-9472952D02*
X12360714Y-9453905D01*
X12360714Y-9453905D02*
X12360714Y-9444381D01*
X12360714Y-9444381D02*
X12351191Y-9425333D01*
X12351191Y-9425333D02*
X12332143Y-9415810D01*
X12332143Y-9415810D02*
X12303572Y-9415810D01*
X12303572Y-9415810D02*
X12284524Y-9406286D01*
X12284524Y-9406286D02*
X12275000Y-9387238D01*
X12275000Y-9387238D02*
X12275000Y-9377714D01*
X12275000Y-9377714D02*
X12284524Y-9358667D01*
X12284524Y-9358667D02*
X12303572Y-9349143D01*
X12303572Y-9349143D02*
X12332143Y-9349143D01*
X12332143Y-9349143D02*
X12351191Y-9358667D01*
X12427381Y-9558667D02*
X12436905Y-9549143D01*
X12436905Y-9549143D02*
X12455953Y-9520571D01*
X12455953Y-9520571D02*
X12465476Y-9501524D01*
X12465476Y-9501524D02*
X12475000Y-9472952D01*
X12475000Y-9472952D02*
X12484524Y-9425333D01*
X12484524Y-9425333D02*
X12484524Y-9387238D01*
X12484524Y-9387238D02*
X12475000Y-9339619D01*
X12475000Y-9339619D02*
X12465476Y-9311048D01*
X12465476Y-9311048D02*
X12455953Y-9292000D01*
X12455953Y-9292000D02*
X12436905Y-9263429D01*
X12436905Y-9263429D02*
X12427381Y-9253905D01*
D10*
X7745000Y-9623000D02*
X7745000Y-9723000D01*
X7695000Y-9673000D02*
X7795000Y-9673000D01*
D11*
X8147381Y-9746476D02*
X8033095Y-9746476D01*
X8090238Y-9746476D02*
X8090238Y-9546476D01*
X8090238Y-9546476D02*
X8071190Y-9575048D01*
X8071190Y-9575048D02*
X8052143Y-9594095D01*
X8052143Y-9594095D02*
X8033095Y-9603619D01*
X8233095Y-9727429D02*
X8242619Y-9736952D01*
X8242619Y-9736952D02*
X8233095Y-9746476D01*
X8233095Y-9746476D02*
X8223571Y-9736952D01*
X8223571Y-9736952D02*
X8233095Y-9727429D01*
X8233095Y-9727429D02*
X8233095Y-9746476D01*
X8366428Y-9546476D02*
X8385476Y-9546476D01*
X8385476Y-9546476D02*
X8404524Y-9556000D01*
X8404524Y-9556000D02*
X8414048Y-9565524D01*
X8414048Y-9565524D02*
X8423571Y-9584571D01*
X8423571Y-9584571D02*
X8433095Y-9622667D01*
X8433095Y-9622667D02*
X8433095Y-9670286D01*
X8433095Y-9670286D02*
X8423571Y-9708381D01*
X8423571Y-9708381D02*
X8414048Y-9727429D01*
X8414048Y-9727429D02*
X8404524Y-9736952D01*
X8404524Y-9736952D02*
X8385476Y-9746476D01*
X8385476Y-9746476D02*
X8366428Y-9746476D01*
X8366428Y-9746476D02*
X8347381Y-9736952D01*
X8347381Y-9736952D02*
X8337857Y-9727429D01*
X8337857Y-9727429D02*
X8328333Y-9708381D01*
X8328333Y-9708381D02*
X8318809Y-9670286D01*
X8318809Y-9670286D02*
X8318809Y-9622667D01*
X8318809Y-9622667D02*
X8328333Y-9584571D01*
X8328333Y-9584571D02*
X8337857Y-9565524D01*
X8337857Y-9565524D02*
X8347381Y-9556000D01*
X8347381Y-9556000D02*
X8366428Y-9546476D01*
X8556905Y-9546476D02*
X8575952Y-9546476D01*
X8575952Y-9546476D02*
X8595000Y-9556000D01*
X8595000Y-9556000D02*
X8604524Y-9565524D01*
X8604524Y-9565524D02*
X8614048Y-9584571D01*
X8614048Y-9584571D02*
X8623571Y-9622667D01*
X8623571Y-9622667D02*
X8623571Y-9670286D01*
X8623571Y-9670286D02*
X8614048Y-9708381D01*
X8614048Y-9708381D02*
X8604524Y-9727429D01*
X8604524Y-9727429D02*
X8595000Y-9736952D01*
X8595000Y-9736952D02*
X8575952Y-9746476D01*
X8575952Y-9746476D02*
X8556905Y-9746476D01*
X8556905Y-9746476D02*
X8537857Y-9736952D01*
X8537857Y-9736952D02*
X8528333Y-9727429D01*
X8528333Y-9727429D02*
X8518810Y-9708381D01*
X8518810Y-9708381D02*
X8509286Y-9670286D01*
X8509286Y-9670286D02*
X8509286Y-9622667D01*
X8509286Y-9622667D02*
X8518810Y-9584571D01*
X8518810Y-9584571D02*
X8528333Y-9565524D01*
X8528333Y-9565524D02*
X8537857Y-9556000D01*
X8537857Y-9556000D02*
X8556905Y-9546476D01*
X8747381Y-9546476D02*
X8766429Y-9546476D01*
X8766429Y-9546476D02*
X8785476Y-9556000D01*
X8785476Y-9556000D02*
X8795000Y-9565524D01*
X8795000Y-9565524D02*
X8804524Y-9584571D01*
X8804524Y-9584571D02*
X8814048Y-9622667D01*
X8814048Y-9622667D02*
X8814048Y-9670286D01*
X8814048Y-9670286D02*
X8804524Y-9708381D01*
X8804524Y-9708381D02*
X8795000Y-9727429D01*
X8795000Y-9727429D02*
X8785476Y-9736952D01*
X8785476Y-9736952D02*
X8766429Y-9746476D01*
X8766429Y-9746476D02*
X8747381Y-9746476D01*
X8747381Y-9746476D02*
X8728333Y-9736952D01*
X8728333Y-9736952D02*
X8718810Y-9727429D01*
X8718810Y-9727429D02*
X8709286Y-9708381D01*
X8709286Y-9708381D02*
X8699762Y-9670286D01*
X8699762Y-9670286D02*
X8699762Y-9622667D01*
X8699762Y-9622667D02*
X8709286Y-9584571D01*
X8709286Y-9584571D02*
X8718810Y-9565524D01*
X8718810Y-9565524D02*
X8728333Y-9556000D01*
X8728333Y-9556000D02*
X8747381Y-9546476D01*
X8899762Y-9746476D02*
X8899762Y-9613143D01*
X8899762Y-9632190D02*
X8909286Y-9622667D01*
X8909286Y-9622667D02*
X8928333Y-9613143D01*
X8928333Y-9613143D02*
X8956905Y-9613143D01*
X8956905Y-9613143D02*
X8975952Y-9622667D01*
X8975952Y-9622667D02*
X8985476Y-9641714D01*
X8985476Y-9641714D02*
X8985476Y-9746476D01*
X8985476Y-9641714D02*
X8995000Y-9622667D01*
X8995000Y-9622667D02*
X9014048Y-9613143D01*
X9014048Y-9613143D02*
X9042619Y-9613143D01*
X9042619Y-9613143D02*
X9061667Y-9622667D01*
X9061667Y-9622667D02*
X9071191Y-9641714D01*
X9071191Y-9641714D02*
X9071191Y-9746476D01*
X9166429Y-9746476D02*
X9166429Y-9613143D01*
X9166429Y-9632190D02*
X9175952Y-9622667D01*
X9175952Y-9622667D02*
X9195000Y-9613143D01*
X9195000Y-9613143D02*
X9223572Y-9613143D01*
X9223572Y-9613143D02*
X9242619Y-9622667D01*
X9242619Y-9622667D02*
X9252143Y-9641714D01*
X9252143Y-9641714D02*
X9252143Y-9746476D01*
X9252143Y-9641714D02*
X9261667Y-9622667D01*
X9261667Y-9622667D02*
X9280714Y-9613143D01*
X9280714Y-9613143D02*
X9309286Y-9613143D01*
X9309286Y-9613143D02*
X9328333Y-9622667D01*
X9328333Y-9622667D02*
X9337857Y-9641714D01*
X9337857Y-9641714D02*
X9337857Y-9746476D01*
X9695952Y-9536952D02*
X9524524Y-9794095D01*
X9920714Y-9546476D02*
X9939762Y-9546476D01*
X9939762Y-9546476D02*
X9958810Y-9556000D01*
X9958810Y-9556000D02*
X9968333Y-9565524D01*
X9968333Y-9565524D02*
X9977857Y-9584571D01*
X9977857Y-9584571D02*
X9987381Y-9622667D01*
X9987381Y-9622667D02*
X9987381Y-9670286D01*
X9987381Y-9670286D02*
X9977857Y-9708381D01*
X9977857Y-9708381D02*
X9968333Y-9727429D01*
X9968333Y-9727429D02*
X9958810Y-9736952D01*
X9958810Y-9736952D02*
X9939762Y-9746476D01*
X9939762Y-9746476D02*
X9920714Y-9746476D01*
X9920714Y-9746476D02*
X9901667Y-9736952D01*
X9901667Y-9736952D02*
X9892143Y-9727429D01*
X9892143Y-9727429D02*
X9882619Y-9708381D01*
X9882619Y-9708381D02*
X9873095Y-9670286D01*
X9873095Y-9670286D02*
X9873095Y-9622667D01*
X9873095Y-9622667D02*
X9882619Y-9584571D01*
X9882619Y-9584571D02*
X9892143Y-9565524D01*
X9892143Y-9565524D02*
X9901667Y-9556000D01*
X9901667Y-9556000D02*
X9920714Y-9546476D01*
X10073095Y-9727429D02*
X10082619Y-9736952D01*
X10082619Y-9736952D02*
X10073095Y-9746476D01*
X10073095Y-9746476D02*
X10063572Y-9736952D01*
X10063572Y-9736952D02*
X10073095Y-9727429D01*
X10073095Y-9727429D02*
X10073095Y-9746476D01*
X10206429Y-9546476D02*
X10225476Y-9546476D01*
X10225476Y-9546476D02*
X10244524Y-9556000D01*
X10244524Y-9556000D02*
X10254048Y-9565524D01*
X10254048Y-9565524D02*
X10263572Y-9584571D01*
X10263572Y-9584571D02*
X10273095Y-9622667D01*
X10273095Y-9622667D02*
X10273095Y-9670286D01*
X10273095Y-9670286D02*
X10263572Y-9708381D01*
X10263572Y-9708381D02*
X10254048Y-9727429D01*
X10254048Y-9727429D02*
X10244524Y-9736952D01*
X10244524Y-9736952D02*
X10225476Y-9746476D01*
X10225476Y-9746476D02*
X10206429Y-9746476D01*
X10206429Y-9746476D02*
X10187381Y-9736952D01*
X10187381Y-9736952D02*
X10177857Y-9727429D01*
X10177857Y-9727429D02*
X10168333Y-9708381D01*
X10168333Y-9708381D02*
X10158810Y-9670286D01*
X10158810Y-9670286D02*
X10158810Y-9622667D01*
X10158810Y-9622667D02*
X10168333Y-9584571D01*
X10168333Y-9584571D02*
X10177857Y-9565524D01*
X10177857Y-9565524D02*
X10187381Y-9556000D01*
X10187381Y-9556000D02*
X10206429Y-9546476D01*
X10339762Y-9546476D02*
X10463572Y-9546476D01*
X10463572Y-9546476D02*
X10396905Y-9622667D01*
X10396905Y-9622667D02*
X10425476Y-9622667D01*
X10425476Y-9622667D02*
X10444524Y-9632190D01*
X10444524Y-9632190D02*
X10454048Y-9641714D01*
X10454048Y-9641714D02*
X10463572Y-9660762D01*
X10463572Y-9660762D02*
X10463572Y-9708381D01*
X10463572Y-9708381D02*
X10454048Y-9727429D01*
X10454048Y-9727429D02*
X10444524Y-9736952D01*
X10444524Y-9736952D02*
X10425476Y-9746476D01*
X10425476Y-9746476D02*
X10368333Y-9746476D01*
X10368333Y-9746476D02*
X10349286Y-9736952D01*
X10349286Y-9736952D02*
X10339762Y-9727429D01*
X10558810Y-9746476D02*
X10596905Y-9746476D01*
X10596905Y-9746476D02*
X10615953Y-9736952D01*
X10615953Y-9736952D02*
X10625476Y-9727429D01*
X10625476Y-9727429D02*
X10644524Y-9698857D01*
X10644524Y-9698857D02*
X10654048Y-9660762D01*
X10654048Y-9660762D02*
X10654048Y-9584571D01*
X10654048Y-9584571D02*
X10644524Y-9565524D01*
X10644524Y-9565524D02*
X10635000Y-9556000D01*
X10635000Y-9556000D02*
X10615953Y-9546476D01*
X10615953Y-9546476D02*
X10577857Y-9546476D01*
X10577857Y-9546476D02*
X10558810Y-9556000D01*
X10558810Y-9556000D02*
X10549286Y-9565524D01*
X10549286Y-9565524D02*
X10539762Y-9584571D01*
X10539762Y-9584571D02*
X10539762Y-9632190D01*
X10539762Y-9632190D02*
X10549286Y-9651238D01*
X10549286Y-9651238D02*
X10558810Y-9660762D01*
X10558810Y-9660762D02*
X10577857Y-9670286D01*
X10577857Y-9670286D02*
X10615953Y-9670286D01*
X10615953Y-9670286D02*
X10635000Y-9660762D01*
X10635000Y-9660762D02*
X10644524Y-9651238D01*
X10644524Y-9651238D02*
X10654048Y-9632190D01*
X10825476Y-9613143D02*
X10825476Y-9746476D01*
X10777857Y-9536952D02*
X10730238Y-9679810D01*
X10730238Y-9679810D02*
X10854048Y-9679810D01*
X10920714Y-9546476D02*
X10920714Y-9584571D01*
X10996905Y-9546476D02*
X10996905Y-9584571D01*
X11259762Y-9822667D02*
X11250238Y-9813143D01*
X11250238Y-9813143D02*
X11231191Y-9784571D01*
X11231191Y-9784571D02*
X11221667Y-9765524D01*
X11221667Y-9765524D02*
X11212143Y-9736952D01*
X11212143Y-9736952D02*
X11202619Y-9689333D01*
X11202619Y-9689333D02*
X11202619Y-9651238D01*
X11202619Y-9651238D02*
X11212143Y-9603619D01*
X11212143Y-9603619D02*
X11221667Y-9575048D01*
X11221667Y-9575048D02*
X11231191Y-9556000D01*
X11231191Y-9556000D02*
X11250238Y-9527429D01*
X11250238Y-9527429D02*
X11259762Y-9517905D01*
X11440714Y-9746476D02*
X11326429Y-9746476D01*
X11383571Y-9746476D02*
X11383571Y-9546476D01*
X11383571Y-9546476D02*
X11364524Y-9575048D01*
X11364524Y-9575048D02*
X11345476Y-9594095D01*
X11345476Y-9594095D02*
X11326429Y-9603619D01*
X11612143Y-9613143D02*
X11612143Y-9746476D01*
X11564524Y-9536952D02*
X11516905Y-9679810D01*
X11516905Y-9679810D02*
X11640714Y-9679810D01*
X11836905Y-9746476D02*
X11836905Y-9546476D01*
X11922619Y-9746476D02*
X11922619Y-9641714D01*
X11922619Y-9641714D02*
X11913095Y-9622667D01*
X11913095Y-9622667D02*
X11894048Y-9613143D01*
X11894048Y-9613143D02*
X11865476Y-9613143D01*
X11865476Y-9613143D02*
X11846429Y-9622667D01*
X11846429Y-9622667D02*
X11836905Y-9632190D01*
X12046429Y-9746476D02*
X12027381Y-9736952D01*
X12027381Y-9736952D02*
X12017857Y-9727429D01*
X12017857Y-9727429D02*
X12008333Y-9708381D01*
X12008333Y-9708381D02*
X12008333Y-9651238D01*
X12008333Y-9651238D02*
X12017857Y-9632190D01*
X12017857Y-9632190D02*
X12027381Y-9622667D01*
X12027381Y-9622667D02*
X12046429Y-9613143D01*
X12046429Y-9613143D02*
X12075000Y-9613143D01*
X12075000Y-9613143D02*
X12094048Y-9622667D01*
X12094048Y-9622667D02*
X12103572Y-9632190D01*
X12103572Y-9632190D02*
X12113095Y-9651238D01*
X12113095Y-9651238D02*
X12113095Y-9708381D01*
X12113095Y-9708381D02*
X12103572Y-9727429D01*
X12103572Y-9727429D02*
X12094048Y-9736952D01*
X12094048Y-9736952D02*
X12075000Y-9746476D01*
X12075000Y-9746476D02*
X12046429Y-9746476D01*
X12227381Y-9746476D02*
X12208333Y-9736952D01*
X12208333Y-9736952D02*
X12198810Y-9717905D01*
X12198810Y-9717905D02*
X12198810Y-9546476D01*
X12379762Y-9736952D02*
X12360714Y-9746476D01*
X12360714Y-9746476D02*
X12322619Y-9746476D01*
X12322619Y-9746476D02*
X12303572Y-9736952D01*
X12303572Y-9736952D02*
X12294048Y-9717905D01*
X12294048Y-9717905D02*
X12294048Y-9641714D01*
X12294048Y-9641714D02*
X12303572Y-9622667D01*
X12303572Y-9622667D02*
X12322619Y-9613143D01*
X12322619Y-9613143D02*
X12360714Y-9613143D01*
X12360714Y-9613143D02*
X12379762Y-9622667D01*
X12379762Y-9622667D02*
X12389286Y-9641714D01*
X12389286Y-9641714D02*
X12389286Y-9660762D01*
X12389286Y-9660762D02*
X12294048Y-9679810D01*
X12465476Y-9736952D02*
X12484524Y-9746476D01*
X12484524Y-9746476D02*
X12522619Y-9746476D01*
X12522619Y-9746476D02*
X12541667Y-9736952D01*
X12541667Y-9736952D02*
X12551191Y-9717905D01*
X12551191Y-9717905D02*
X12551191Y-9708381D01*
X12551191Y-9708381D02*
X12541667Y-9689333D01*
X12541667Y-9689333D02*
X12522619Y-9679810D01*
X12522619Y-9679810D02*
X12494048Y-9679810D01*
X12494048Y-9679810D02*
X12475000Y-9670286D01*
X12475000Y-9670286D02*
X12465476Y-9651238D01*
X12465476Y-9651238D02*
X12465476Y-9641714D01*
X12465476Y-9641714D02*
X12475000Y-9622667D01*
X12475000Y-9622667D02*
X12494048Y-9613143D01*
X12494048Y-9613143D02*
X12522619Y-9613143D01*
X12522619Y-9613143D02*
X12541667Y-9622667D01*
X12617857Y-9822667D02*
X12627381Y-9813143D01*
X12627381Y-9813143D02*
X12646429Y-9784571D01*
X12646429Y-9784571D02*
X12655953Y-9765524D01*
X12655953Y-9765524D02*
X12665476Y-9736952D01*
X12665476Y-9736952D02*
X12675000Y-9689333D01*
X12675000Y-9689333D02*
X12675000Y-9651238D01*
X12675000Y-9651238D02*
X12665476Y-9603619D01*
X12665476Y-9603619D02*
X12655953Y-9575048D01*
X12655953Y-9575048D02*
X12646429Y-9556000D01*
X12646429Y-9556000D02*
X12627381Y-9527429D01*
X12627381Y-9527429D02*
X12617857Y-9517905D01*
D14*
X7772301Y-9991801D02*
X7772301Y-9882199D01*
X7662699Y-9882199D01*
X7662699Y-9991801D01*
X7772301Y-9991801D01*
D11*
X8147381Y-10010476D02*
X8033095Y-10010476D01*
X8090238Y-10010476D02*
X8090238Y-9810476D01*
X8090238Y-9810476D02*
X8071190Y-9839048D01*
X8071190Y-9839048D02*
X8052143Y-9858095D01*
X8052143Y-9858095D02*
X8033095Y-9867619D01*
X8233095Y-9991429D02*
X8242619Y-10000952D01*
X8242619Y-10000952D02*
X8233095Y-10010476D01*
X8233095Y-10010476D02*
X8223571Y-10000952D01*
X8223571Y-10000952D02*
X8233095Y-9991429D01*
X8233095Y-9991429D02*
X8233095Y-10010476D01*
X8423571Y-9810476D02*
X8328333Y-9810476D01*
X8328333Y-9810476D02*
X8318809Y-9905714D01*
X8318809Y-9905714D02*
X8328333Y-9896190D01*
X8328333Y-9896190D02*
X8347381Y-9886667D01*
X8347381Y-9886667D02*
X8395000Y-9886667D01*
X8395000Y-9886667D02*
X8414048Y-9896190D01*
X8414048Y-9896190D02*
X8423571Y-9905714D01*
X8423571Y-9905714D02*
X8433095Y-9924762D01*
X8433095Y-9924762D02*
X8433095Y-9972381D01*
X8433095Y-9972381D02*
X8423571Y-9991429D01*
X8423571Y-9991429D02*
X8414048Y-10000952D01*
X8414048Y-10000952D02*
X8395000Y-10010476D01*
X8395000Y-10010476D02*
X8347381Y-10010476D01*
X8347381Y-10010476D02*
X8328333Y-10000952D01*
X8328333Y-10000952D02*
X8318809Y-9991429D01*
X8614048Y-9810476D02*
X8518810Y-9810476D01*
X8518810Y-9810476D02*
X8509286Y-9905714D01*
X8509286Y-9905714D02*
X8518810Y-9896190D01*
X8518810Y-9896190D02*
X8537857Y-9886667D01*
X8537857Y-9886667D02*
X8585476Y-9886667D01*
X8585476Y-9886667D02*
X8604524Y-9896190D01*
X8604524Y-9896190D02*
X8614048Y-9905714D01*
X8614048Y-9905714D02*
X8623571Y-9924762D01*
X8623571Y-9924762D02*
X8623571Y-9972381D01*
X8623571Y-9972381D02*
X8614048Y-9991429D01*
X8614048Y-9991429D02*
X8604524Y-10000952D01*
X8604524Y-10000952D02*
X8585476Y-10010476D01*
X8585476Y-10010476D02*
X8537857Y-10010476D01*
X8537857Y-10010476D02*
X8518810Y-10000952D01*
X8518810Y-10000952D02*
X8509286Y-9991429D01*
X8747381Y-9810476D02*
X8766429Y-9810476D01*
X8766429Y-9810476D02*
X8785476Y-9820000D01*
X8785476Y-9820000D02*
X8795000Y-9829524D01*
X8795000Y-9829524D02*
X8804524Y-9848571D01*
X8804524Y-9848571D02*
X8814048Y-9886667D01*
X8814048Y-9886667D02*
X8814048Y-9934286D01*
X8814048Y-9934286D02*
X8804524Y-9972381D01*
X8804524Y-9972381D02*
X8795000Y-9991429D01*
X8795000Y-9991429D02*
X8785476Y-10000952D01*
X8785476Y-10000952D02*
X8766429Y-10010476D01*
X8766429Y-10010476D02*
X8747381Y-10010476D01*
X8747381Y-10010476D02*
X8728333Y-10000952D01*
X8728333Y-10000952D02*
X8718810Y-9991429D01*
X8718810Y-9991429D02*
X8709286Y-9972381D01*
X8709286Y-9972381D02*
X8699762Y-9934286D01*
X8699762Y-9934286D02*
X8699762Y-9886667D01*
X8699762Y-9886667D02*
X8709286Y-9848571D01*
X8709286Y-9848571D02*
X8718810Y-9829524D01*
X8718810Y-9829524D02*
X8728333Y-9820000D01*
X8728333Y-9820000D02*
X8747381Y-9810476D01*
X8899762Y-10010476D02*
X8899762Y-9877143D01*
X8899762Y-9896190D02*
X8909286Y-9886667D01*
X8909286Y-9886667D02*
X8928333Y-9877143D01*
X8928333Y-9877143D02*
X8956905Y-9877143D01*
X8956905Y-9877143D02*
X8975952Y-9886667D01*
X8975952Y-9886667D02*
X8985476Y-9905714D01*
X8985476Y-9905714D02*
X8985476Y-10010476D01*
X8985476Y-9905714D02*
X8995000Y-9886667D01*
X8995000Y-9886667D02*
X9014048Y-9877143D01*
X9014048Y-9877143D02*
X9042619Y-9877143D01*
X9042619Y-9877143D02*
X9061667Y-9886667D01*
X9061667Y-9886667D02*
X9071191Y-9905714D01*
X9071191Y-9905714D02*
X9071191Y-10010476D01*
X9166429Y-10010476D02*
X9166429Y-9877143D01*
X9166429Y-9896190D02*
X9175952Y-9886667D01*
X9175952Y-9886667D02*
X9195000Y-9877143D01*
X9195000Y-9877143D02*
X9223572Y-9877143D01*
X9223572Y-9877143D02*
X9242619Y-9886667D01*
X9242619Y-9886667D02*
X9252143Y-9905714D01*
X9252143Y-9905714D02*
X9252143Y-10010476D01*
X9252143Y-9905714D02*
X9261667Y-9886667D01*
X9261667Y-9886667D02*
X9280714Y-9877143D01*
X9280714Y-9877143D02*
X9309286Y-9877143D01*
X9309286Y-9877143D02*
X9328333Y-9886667D01*
X9328333Y-9886667D02*
X9337857Y-9905714D01*
X9337857Y-9905714D02*
X9337857Y-10010476D01*
X9695952Y-9800952D02*
X9524524Y-10058095D01*
X9920714Y-9810476D02*
X9939762Y-9810476D01*
X9939762Y-9810476D02*
X9958810Y-9820000D01*
X9958810Y-9820000D02*
X9968333Y-9829524D01*
X9968333Y-9829524D02*
X9977857Y-9848571D01*
X9977857Y-9848571D02*
X9987381Y-9886667D01*
X9987381Y-9886667D02*
X9987381Y-9934286D01*
X9987381Y-9934286D02*
X9977857Y-9972381D01*
X9977857Y-9972381D02*
X9968333Y-9991429D01*
X9968333Y-9991429D02*
X9958810Y-10000952D01*
X9958810Y-10000952D02*
X9939762Y-10010476D01*
X9939762Y-10010476D02*
X9920714Y-10010476D01*
X9920714Y-10010476D02*
X9901667Y-10000952D01*
X9901667Y-10000952D02*
X9892143Y-9991429D01*
X9892143Y-9991429D02*
X9882619Y-9972381D01*
X9882619Y-9972381D02*
X9873095Y-9934286D01*
X9873095Y-9934286D02*
X9873095Y-9886667D01*
X9873095Y-9886667D02*
X9882619Y-9848571D01*
X9882619Y-9848571D02*
X9892143Y-9829524D01*
X9892143Y-9829524D02*
X9901667Y-9820000D01*
X9901667Y-9820000D02*
X9920714Y-9810476D01*
X10073095Y-9991429D02*
X10082619Y-10000952D01*
X10082619Y-10000952D02*
X10073095Y-10010476D01*
X10073095Y-10010476D02*
X10063572Y-10000952D01*
X10063572Y-10000952D02*
X10073095Y-9991429D01*
X10073095Y-9991429D02*
X10073095Y-10010476D01*
X10206429Y-9810476D02*
X10225476Y-9810476D01*
X10225476Y-9810476D02*
X10244524Y-9820000D01*
X10244524Y-9820000D02*
X10254048Y-9829524D01*
X10254048Y-9829524D02*
X10263572Y-9848571D01*
X10263572Y-9848571D02*
X10273095Y-9886667D01*
X10273095Y-9886667D02*
X10273095Y-9934286D01*
X10273095Y-9934286D02*
X10263572Y-9972381D01*
X10263572Y-9972381D02*
X10254048Y-9991429D01*
X10254048Y-9991429D02*
X10244524Y-10000952D01*
X10244524Y-10000952D02*
X10225476Y-10010476D01*
X10225476Y-10010476D02*
X10206429Y-10010476D01*
X10206429Y-10010476D02*
X10187381Y-10000952D01*
X10187381Y-10000952D02*
X10177857Y-9991429D01*
X10177857Y-9991429D02*
X10168333Y-9972381D01*
X10168333Y-9972381D02*
X10158810Y-9934286D01*
X10158810Y-9934286D02*
X10158810Y-9886667D01*
X10158810Y-9886667D02*
X10168333Y-9848571D01*
X10168333Y-9848571D02*
X10177857Y-9829524D01*
X10177857Y-9829524D02*
X10187381Y-9820000D01*
X10187381Y-9820000D02*
X10206429Y-9810476D01*
X10444524Y-9810476D02*
X10406429Y-9810476D01*
X10406429Y-9810476D02*
X10387381Y-9820000D01*
X10387381Y-9820000D02*
X10377857Y-9829524D01*
X10377857Y-9829524D02*
X10358810Y-9858095D01*
X10358810Y-9858095D02*
X10349286Y-9896190D01*
X10349286Y-9896190D02*
X10349286Y-9972381D01*
X10349286Y-9972381D02*
X10358810Y-9991429D01*
X10358810Y-9991429D02*
X10368333Y-10000952D01*
X10368333Y-10000952D02*
X10387381Y-10010476D01*
X10387381Y-10010476D02*
X10425476Y-10010476D01*
X10425476Y-10010476D02*
X10444524Y-10000952D01*
X10444524Y-10000952D02*
X10454048Y-9991429D01*
X10454048Y-9991429D02*
X10463572Y-9972381D01*
X10463572Y-9972381D02*
X10463572Y-9924762D01*
X10463572Y-9924762D02*
X10454048Y-9905714D01*
X10454048Y-9905714D02*
X10444524Y-9896190D01*
X10444524Y-9896190D02*
X10425476Y-9886667D01*
X10425476Y-9886667D02*
X10387381Y-9886667D01*
X10387381Y-9886667D02*
X10368333Y-9896190D01*
X10368333Y-9896190D02*
X10358810Y-9905714D01*
X10358810Y-9905714D02*
X10349286Y-9924762D01*
X10654048Y-10010476D02*
X10539762Y-10010476D01*
X10596905Y-10010476D02*
X10596905Y-9810476D01*
X10596905Y-9810476D02*
X10577857Y-9839048D01*
X10577857Y-9839048D02*
X10558810Y-9858095D01*
X10558810Y-9858095D02*
X10539762Y-9867619D01*
X10777857Y-9810476D02*
X10796905Y-9810476D01*
X10796905Y-9810476D02*
X10815953Y-9820000D01*
X10815953Y-9820000D02*
X10825476Y-9829524D01*
X10825476Y-9829524D02*
X10835000Y-9848571D01*
X10835000Y-9848571D02*
X10844524Y-9886667D01*
X10844524Y-9886667D02*
X10844524Y-9934286D01*
X10844524Y-9934286D02*
X10835000Y-9972381D01*
X10835000Y-9972381D02*
X10825476Y-9991429D01*
X10825476Y-9991429D02*
X10815953Y-10000952D01*
X10815953Y-10000952D02*
X10796905Y-10010476D01*
X10796905Y-10010476D02*
X10777857Y-10010476D01*
X10777857Y-10010476D02*
X10758810Y-10000952D01*
X10758810Y-10000952D02*
X10749286Y-9991429D01*
X10749286Y-9991429D02*
X10739762Y-9972381D01*
X10739762Y-9972381D02*
X10730238Y-9934286D01*
X10730238Y-9934286D02*
X10730238Y-9886667D01*
X10730238Y-9886667D02*
X10739762Y-9848571D01*
X10739762Y-9848571D02*
X10749286Y-9829524D01*
X10749286Y-9829524D02*
X10758810Y-9820000D01*
X10758810Y-9820000D02*
X10777857Y-9810476D01*
X10920714Y-9810476D02*
X10920714Y-9848571D01*
X10996905Y-9810476D02*
X10996905Y-9848571D01*
X11259762Y-10086667D02*
X11250238Y-10077143D01*
X11250238Y-10077143D02*
X11231191Y-10048571D01*
X11231191Y-10048571D02*
X11221667Y-10029524D01*
X11221667Y-10029524D02*
X11212143Y-10000952D01*
X11212143Y-10000952D02*
X11202619Y-9953333D01*
X11202619Y-9953333D02*
X11202619Y-9915238D01*
X11202619Y-9915238D02*
X11212143Y-9867619D01*
X11212143Y-9867619D02*
X11221667Y-9839048D01*
X11221667Y-9839048D02*
X11231191Y-9820000D01*
X11231191Y-9820000D02*
X11250238Y-9791429D01*
X11250238Y-9791429D02*
X11259762Y-9781905D01*
X11316905Y-9810476D02*
X11440714Y-9810476D01*
X11440714Y-9810476D02*
X11374048Y-9886667D01*
X11374048Y-9886667D02*
X11402619Y-9886667D01*
X11402619Y-9886667D02*
X11421667Y-9896190D01*
X11421667Y-9896190D02*
X11431191Y-9905714D01*
X11431191Y-9905714D02*
X11440714Y-9924762D01*
X11440714Y-9924762D02*
X11440714Y-9972381D01*
X11440714Y-9972381D02*
X11431191Y-9991429D01*
X11431191Y-9991429D02*
X11421667Y-10000952D01*
X11421667Y-10000952D02*
X11402619Y-10010476D01*
X11402619Y-10010476D02*
X11345476Y-10010476D01*
X11345476Y-10010476D02*
X11326429Y-10000952D01*
X11326429Y-10000952D02*
X11316905Y-9991429D01*
X11646429Y-10010476D02*
X11646429Y-9810476D01*
X11732143Y-10010476D02*
X11732143Y-9905714D01*
X11732143Y-9905714D02*
X11722619Y-9886667D01*
X11722619Y-9886667D02*
X11703572Y-9877143D01*
X11703572Y-9877143D02*
X11675000Y-9877143D01*
X11675000Y-9877143D02*
X11655952Y-9886667D01*
X11655952Y-9886667D02*
X11646429Y-9896190D01*
X11855952Y-10010476D02*
X11836905Y-10000952D01*
X11836905Y-10000952D02*
X11827381Y-9991429D01*
X11827381Y-9991429D02*
X11817857Y-9972381D01*
X11817857Y-9972381D02*
X11817857Y-9915238D01*
X11817857Y-9915238D02*
X11827381Y-9896190D01*
X11827381Y-9896190D02*
X11836905Y-9886667D01*
X11836905Y-9886667D02*
X11855952Y-9877143D01*
X11855952Y-9877143D02*
X11884524Y-9877143D01*
X11884524Y-9877143D02*
X11903572Y-9886667D01*
X11903572Y-9886667D02*
X11913095Y-9896190D01*
X11913095Y-9896190D02*
X11922619Y-9915238D01*
X11922619Y-9915238D02*
X11922619Y-9972381D01*
X11922619Y-9972381D02*
X11913095Y-9991429D01*
X11913095Y-9991429D02*
X11903572Y-10000952D01*
X11903572Y-10000952D02*
X11884524Y-10010476D01*
X11884524Y-10010476D02*
X11855952Y-10010476D01*
X12036905Y-10010476D02*
X12017857Y-10000952D01*
X12017857Y-10000952D02*
X12008333Y-9981905D01*
X12008333Y-9981905D02*
X12008333Y-9810476D01*
X12189286Y-10000952D02*
X12170238Y-10010476D01*
X12170238Y-10010476D02*
X12132143Y-10010476D01*
X12132143Y-10010476D02*
X12113095Y-10000952D01*
X12113095Y-10000952D02*
X12103572Y-9981905D01*
X12103572Y-9981905D02*
X12103572Y-9905714D01*
X12103572Y-9905714D02*
X12113095Y-9886667D01*
X12113095Y-9886667D02*
X12132143Y-9877143D01*
X12132143Y-9877143D02*
X12170238Y-9877143D01*
X12170238Y-9877143D02*
X12189286Y-9886667D01*
X12189286Y-9886667D02*
X12198810Y-9905714D01*
X12198810Y-9905714D02*
X12198810Y-9924762D01*
X12198810Y-9924762D02*
X12103572Y-9943810D01*
X12275000Y-10000952D02*
X12294048Y-10010476D01*
X12294048Y-10010476D02*
X12332143Y-10010476D01*
X12332143Y-10010476D02*
X12351191Y-10000952D01*
X12351191Y-10000952D02*
X12360714Y-9981905D01*
X12360714Y-9981905D02*
X12360714Y-9972381D01*
X12360714Y-9972381D02*
X12351191Y-9953333D01*
X12351191Y-9953333D02*
X12332143Y-9943810D01*
X12332143Y-9943810D02*
X12303572Y-9943810D01*
X12303572Y-9943810D02*
X12284524Y-9934286D01*
X12284524Y-9934286D02*
X12275000Y-9915238D01*
X12275000Y-9915238D02*
X12275000Y-9905714D01*
X12275000Y-9905714D02*
X12284524Y-9886667D01*
X12284524Y-9886667D02*
X12303572Y-9877143D01*
X12303572Y-9877143D02*
X12332143Y-9877143D01*
X12332143Y-9877143D02*
X12351191Y-9886667D01*
X12427381Y-10086667D02*
X12436905Y-10077143D01*
X12436905Y-10077143D02*
X12455953Y-10048571D01*
X12455953Y-10048571D02*
X12465476Y-10029524D01*
X12465476Y-10029524D02*
X12475000Y-10000952D01*
X12475000Y-10000952D02*
X12484524Y-9953333D01*
X12484524Y-9953333D02*
X12484524Y-9915238D01*
X12484524Y-9915238D02*
X12475000Y-9867619D01*
X12475000Y-9867619D02*
X12465476Y-9839048D01*
X12465476Y-9839048D02*
X12455953Y-9820000D01*
X12455953Y-9820000D02*
X12436905Y-9791429D01*
X12436905Y-9791429D02*
X12427381Y-9781905D01*
M02*
