%TF.GenerationSoftware,KiCad,Pcbnew,7.0.9-7.0.9~ubuntu23.10.1*%
%TF.CreationDate,2024-01-10T03:53:01+01:00*%
%TF.ProjectId,LED_poi,4c45445f-706f-4692-9e6b-696361645f70,A*%
%TF.SameCoordinates,Original*%
%TF.FileFunction,Copper,L1,Top*%
%TF.FilePolarity,Positive*%
%FSLAX46Y46*%
G04 Gerber Fmt 4.6, Leading zero omitted, Abs format (unit mm)*
G04 Created by KiCad (PCBNEW 7.0.9-7.0.9~ubuntu23.10.1) date 2024-01-10 03:53:01*
%MOMM*%
%LPD*%
G01*
G04 APERTURE LIST*
G04 Aperture macros list*
%AMRoundRect*
0 Rectangle with rounded corners*
0 $1 Rounding radius*
0 $2 $3 $4 $5 $6 $7 $8 $9 X,Y pos of 4 corners*
0 Add a 4 corners polygon primitive as box body*
4,1,4,$2,$3,$4,$5,$6,$7,$8,$9,$2,$3,0*
0 Add four circle primitives for the rounded corners*
1,1,$1+$1,$2,$3*
1,1,$1+$1,$4,$5*
1,1,$1+$1,$6,$7*
1,1,$1+$1,$8,$9*
0 Add four rect primitives between the rounded corners*
20,1,$1+$1,$2,$3,$4,$5,0*
20,1,$1+$1,$4,$5,$6,$7,0*
20,1,$1+$1,$6,$7,$8,$9,0*
20,1,$1+$1,$8,$9,$2,$3,0*%
G04 Aperture macros list end*
%ADD10C,0.150000*%
%TA.AperFunction,NonConductor*%
%ADD11C,0.150000*%
%TD*%
%TA.AperFunction,EtchedComponent*%
%ADD12C,0.120000*%
%TD*%
%TA.AperFunction,ComponentPad*%
%ADD13R,1.700000X1.700000*%
%TD*%
%TA.AperFunction,ComponentPad*%
%ADD14O,1.700000X1.700000*%
%TD*%
%TA.AperFunction,SMDPad,CuDef*%
%ADD15RoundRect,0.225000X-0.250000X0.225000X-0.250000X-0.225000X0.250000X-0.225000X0.250000X0.225000X0*%
%TD*%
%TA.AperFunction,SMDPad,CuDef*%
%ADD16RoundRect,0.150000X-0.150000X0.587500X-0.150000X-0.587500X0.150000X-0.587500X0.150000X0.587500X0*%
%TD*%
%TA.AperFunction,SMDPad,CuDef*%
%ADD17RoundRect,0.250000X-0.475000X0.250000X-0.475000X-0.250000X0.475000X-0.250000X0.475000X0.250000X0*%
%TD*%
%TA.AperFunction,SMDPad,CuDef*%
%ADD18R,0.900000X0.900000*%
%TD*%
%TA.AperFunction,ComponentPad*%
%ADD19RoundRect,0.249999X-1.025001X-1.025001X1.025001X-1.025001X1.025001X1.025001X-1.025001X1.025001X0*%
%TD*%
%TA.AperFunction,WasherPad*%
%ADD20C,0.800000*%
%TD*%
%TA.AperFunction,SMDPad,CuDef*%
%ADD21R,0.889000X1.270000*%
%TD*%
%TA.AperFunction,SMDPad,CuDef*%
%ADD22R,1.447800X0.787400*%
%TD*%
%TA.AperFunction,SMDPad,CuDef*%
%ADD23RoundRect,0.250000X-0.262500X-0.450000X0.262500X-0.450000X0.262500X0.450000X-0.262500X0.450000X0*%
%TD*%
%TA.AperFunction,SMDPad,CuDef*%
%ADD24RoundRect,0.250000X0.250000X0.475000X-0.250000X0.475000X-0.250000X-0.475000X0.250000X-0.475000X0*%
%TD*%
%TA.AperFunction,SMDPad,CuDef*%
%ADD25RoundRect,0.225000X0.225000X0.250000X-0.225000X0.250000X-0.225000X-0.250000X0.225000X-0.250000X0*%
%TD*%
%TA.AperFunction,SMDPad,CuDef*%
%ADD26RoundRect,0.250000X-0.450000X0.262500X-0.450000X-0.262500X0.450000X-0.262500X0.450000X0.262500X0*%
%TD*%
%TA.AperFunction,SMDPad,CuDef*%
%ADD27R,1.200000X1.400000*%
%TD*%
%TA.AperFunction,SMDPad,CuDef*%
%ADD28RoundRect,0.150000X0.150000X-0.587500X0.150000X0.587500X-0.150000X0.587500X-0.150000X-0.587500X0*%
%TD*%
%TA.AperFunction,SMDPad,CuDef*%
%ADD29R,0.550000X1.500000*%
%TD*%
%TA.AperFunction,SMDPad,CuDef*%
%ADD30R,1.500000X0.550000*%
%TD*%
%TA.AperFunction,ComponentPad*%
%ADD31RoundRect,0.250000X-0.550000X-0.550000X0.550000X-0.550000X0.550000X0.550000X-0.550000X0.550000X0*%
%TD*%
%TA.AperFunction,SMDPad,CuDef*%
%ADD32RoundRect,0.250000X0.262500X0.450000X-0.262500X0.450000X-0.262500X-0.450000X0.262500X-0.450000X0*%
%TD*%
%TA.AperFunction,SMDPad,CuDef*%
%ADD33RoundRect,0.225000X-0.225000X-0.250000X0.225000X-0.250000X0.225000X0.250000X-0.225000X0.250000X0*%
%TD*%
%TA.AperFunction,SMDPad,CuDef*%
%ADD34RoundRect,0.225000X0.250000X-0.225000X0.250000X0.225000X-0.250000X0.225000X-0.250000X-0.225000X0*%
%TD*%
%TA.AperFunction,SMDPad,CuDef*%
%ADD35RoundRect,0.150000X0.587500X0.150000X-0.587500X0.150000X-0.587500X-0.150000X0.587500X-0.150000X0*%
%TD*%
%TA.AperFunction,SMDPad,CuDef*%
%ADD36RoundRect,0.150000X-0.325000X-0.150000X0.325000X-0.150000X0.325000X0.150000X-0.325000X0.150000X0*%
%TD*%
%TA.AperFunction,SMDPad,CuDef*%
%ADD37RoundRect,0.150000X-0.150000X-0.325000X0.150000X-0.325000X0.150000X0.325000X-0.150000X0.325000X0*%
%TD*%
%TA.AperFunction,SMDPad,CuDef*%
%ADD38RoundRect,0.250000X-0.250000X-0.750000X0.250000X-0.750000X0.250000X0.750000X-0.250000X0.750000X0*%
%TD*%
%TA.AperFunction,ConnectorPad*%
%ADD39C,0.787400*%
%TD*%
%TA.AperFunction,ViaPad*%
%ADD40C,0.800000*%
%TD*%
%TA.AperFunction,Conductor*%
%ADD41C,0.500000*%
%TD*%
%TA.AperFunction,Conductor*%
%ADD42C,0.800000*%
%TD*%
%TA.AperFunction,Conductor*%
%ADD43C,1.000000*%
%TD*%
%TA.AperFunction,Conductor*%
%ADD44C,0.600000*%
%TD*%
G04 APERTURE END LIST*
D10*
D11*
X99060588Y-83969819D02*
X98489160Y-83969819D01*
X98774874Y-83969819D02*
X98774874Y-82969819D01*
X98774874Y-82969819D02*
X98679636Y-83112676D01*
X98679636Y-83112676D02*
X98584398Y-83207914D01*
X98584398Y-83207914D02*
X98489160Y-83255533D01*
D12*
%TO.C,REF\u002A\u002A*%
X98000000Y-84250000D02*
X99500000Y-84250000D01*
X99500000Y-84250000D02*
X99500000Y-82750000D01*
X99500000Y-82750000D02*
X98000000Y-82750000D01*
X98000000Y-82750000D02*
X98000000Y-84250000D01*
X98000000Y-84250000D02*
X104000000Y-84250000D01*
X104000000Y-84250000D02*
X104000000Y-82750000D01*
X104000000Y-82750000D02*
X98000000Y-82750000D01*
X98000000Y-82750000D02*
X98000000Y-84250000D01*
%TD*%
D13*
%TO.P,J11,1,Pin_1*%
%TO.N,/SCL_3V3*%
X85000000Y-80000000D03*
D14*
%TO.P,J11,2,Pin_2*%
%TO.N,/SDA_3V3*%
X87540000Y-80000000D03*
%TO.P,J11,3,Pin_3*%
%TO.N,+3.3V*%
X90080000Y-80000000D03*
%TO.P,J11,4,Pin_4*%
%TO.N,GND*%
X92620000Y-80000000D03*
%TO.P,J11,5,Pin_5*%
%TO.N,/ACC_INT1*%
X95160000Y-80000000D03*
%TD*%
D15*
%TO.P,C8,1*%
%TO.N,/XTAL1*%
X79200000Y-51925000D03*
%TO.P,C8,2*%
%TO.N,GND*%
X79200000Y-53475000D03*
%TD*%
D16*
%TO.P,Q2,1,G*%
%TO.N,+3.3V*%
X84250000Y-74262500D03*
%TO.P,Q2,2,S*%
%TO.N,/SDA_3V3*%
X82350000Y-74262500D03*
%TO.P,Q2,3,D*%
%TO.N,/SDA*%
X83300000Y-76137500D03*
%TD*%
D17*
%TO.P,C3,1*%
%TO.N,VCC*%
X101200000Y-58800000D03*
%TO.P,C3,2*%
%TO.N,GND*%
X101200000Y-60700000D03*
%TD*%
D18*
%TO.P,RN1,1,R1.1*%
%TO.N,/SDA*%
X81900000Y-68300000D03*
%TO.P,RN1,2,R2.1*%
%TO.N,/SCL*%
X81900000Y-69640000D03*
%TO.P,RN1,3,R3.1*%
%TO.N,/SCL_3V3*%
X81900000Y-70960000D03*
%TO.P,RN1,4,R4.1*%
%TO.N,/SDA_3V3*%
X81900000Y-72300000D03*
%TO.P,RN1,5,R4.2*%
%TO.N,+3.3V*%
X84900000Y-72300000D03*
%TO.P,RN1,6,R3.2*%
X84900000Y-70960000D03*
%TO.P,RN1,7,R2.2*%
%TO.N,VCC*%
X84900000Y-69640000D03*
%TO.P,RN1,8,R1.2*%
X84900000Y-68300000D03*
%TD*%
D19*
%TO.P,J6,1,Pin_1*%
%TO.N,VCC*%
X100000000Y-55750000D03*
%TD*%
%TO.P,J9,1,Pin_1*%
%TO.N,GND*%
X100100000Y-49800000D03*
%TD*%
D20*
%TO.P,SW1,*%
%TO.N,*%
X93150000Y-47400000D03*
X90850000Y-47400000D03*
D21*
%TO.P,SW1,1,A*%
%TO.N,Net-(C1-Pad1)*%
X94095500Y-48897000D03*
%TO.P,SW1,2,B*%
%TO.N,+BATT*%
X89904500Y-48897000D03*
D22*
%TO.P,SW1,3,C*%
%TO.N,GND*%
X95378200Y-47004700D03*
%TO.P,SW1,4,Shield*%
X88621800Y-47004700D03*
%TD*%
D15*
%TO.P,C1,1*%
%TO.N,Net-(C1-Pad1)*%
X103000000Y-52800000D03*
%TO.P,C1,2*%
%TO.N,VCC*%
X103000000Y-54350000D03*
%TD*%
D23*
%TO.P,R5,1*%
%TO.N,/KEY*%
X100600000Y-65300000D03*
%TO.P,R5,2*%
%TO.N,Net-(Q1-D)*%
X102425000Y-65300000D03*
%TD*%
D24*
%TO.P,C2,1*%
%TO.N,VCC*%
X92500000Y-73400000D03*
%TO.P,C2,2*%
%TO.N,GND*%
X90600000Y-73400000D03*
%TD*%
D25*
%TO.P,C5,1*%
%TO.N,VCC*%
X87875000Y-68475000D03*
%TO.P,C5,2*%
%TO.N,GND*%
X86325000Y-68475000D03*
%TD*%
D26*
%TO.P,R6,1*%
%TO.N,Net-(J8-Pin_1)*%
X94200000Y-51087500D03*
%TO.P,R6,2*%
%TO.N,Net-(U1-D-)*%
X94200000Y-52912500D03*
%TD*%
D27*
%TO.P,Y1,1,1*%
%TO.N,/XTAL2*%
X82500000Y-54050000D03*
%TO.P,Y1,2,2*%
%TO.N,GND*%
X82500000Y-51850000D03*
%TO.P,Y1,3,3*%
%TO.N,/XTAL1*%
X80900000Y-51850000D03*
%TO.P,Y1,4,4*%
%TO.N,GND*%
X80900000Y-54050000D03*
%TD*%
D28*
%TO.P,Q1,1,G*%
%TO.N,/PWR*%
X102925000Y-69237500D03*
%TO.P,Q1,2,S*%
%TO.N,GND*%
X104825000Y-69237500D03*
%TO.P,Q1,3,D*%
%TO.N,Net-(Q1-D)*%
X103875000Y-67362500D03*
%TD*%
D26*
%TO.P,R3,1*%
%TO.N,Net-(J4-Pin_1)*%
X92200000Y-51087500D03*
%TO.P,R3,2*%
%TO.N,Net-(U1-D+)*%
X92200000Y-52912500D03*
%TD*%
D13*
%TO.P,J3,1,Pin_1*%
%TO.N,GND*%
X88920000Y-76300000D03*
D14*
%TO.P,J3,2,Pin_2*%
%TO.N,/Data*%
X91460000Y-76300000D03*
%TO.P,J3,3,Pin_3*%
%TO.N,VCC*%
X94000000Y-76300000D03*
%TD*%
D29*
%TO.P,U1,1,PE6*%
%TO.N,unconnected-(U1-PE6-Pad1)*%
X94800000Y-55000000D03*
%TO.P,U1,2,UVCC*%
%TO.N,VCC*%
X94000000Y-55000000D03*
%TO.P,U1,3,D-*%
%TO.N,Net-(U1-D-)*%
X93200000Y-55000000D03*
%TO.P,U1,4,D+*%
%TO.N,Net-(U1-D+)*%
X92400000Y-55000000D03*
%TO.P,U1,5,UGND*%
%TO.N,GND*%
X91600000Y-55000000D03*
%TO.P,U1,6,UCAP*%
%TO.N,/UCAP*%
X90800000Y-55000000D03*
%TO.P,U1,7,VBUS*%
%TO.N,VCC*%
X90000000Y-55000000D03*
%TO.P,U1,8,PB0*%
%TO.N,unconnected-(U1-PB0-Pad8)*%
X89200000Y-55000000D03*
%TO.P,U1,9,PB1*%
%TO.N,/SCK*%
X88400000Y-55000000D03*
%TO.P,U1,10,PB2*%
%TO.N,/MOSI*%
X87600000Y-55000000D03*
%TO.P,U1,11,PB3*%
%TO.N,/MISO*%
X86800000Y-55000000D03*
D30*
%TO.P,U1,12,PB7*%
%TO.N,unconnected-(U1-PB7-Pad12)*%
X85100000Y-56700000D03*
%TO.P,U1,13,~{RESET}*%
%TO.N,/~{RST}*%
X85100000Y-57500000D03*
%TO.P,U1,14,VCC*%
%TO.N,VCC*%
X85100000Y-58300000D03*
%TO.P,U1,15,GND*%
%TO.N,GND*%
X85100000Y-59100000D03*
%TO.P,U1,16,XTAL2*%
%TO.N,/XTAL2*%
X85100000Y-59900000D03*
%TO.P,U1,17,XTAL1*%
%TO.N,/XTAL1*%
X85100000Y-60700000D03*
%TO.P,U1,18,PD0*%
%TO.N,/SCL*%
X85100000Y-61500000D03*
%TO.P,U1,19,PD1*%
%TO.N,/SDA*%
X85100000Y-62300000D03*
%TO.P,U1,20,PD2*%
%TO.N,/RX*%
X85100000Y-63100000D03*
%TO.P,U1,21,PD3*%
%TO.N,/TX*%
X85100000Y-63900000D03*
%TO.P,U1,22,PD5*%
%TO.N,unconnected-(U1-PD5-Pad22)*%
X85100000Y-64700000D03*
D29*
%TO.P,U1,23,GND*%
%TO.N,GND*%
X86800000Y-66400000D03*
%TO.P,U1,24,AVCC*%
%TO.N,VCC*%
X87600000Y-66400000D03*
%TO.P,U1,25,PD4*%
%TO.N,unconnected-(U1-PD4-Pad25)*%
X88400000Y-66400000D03*
%TO.P,U1,26,PD6*%
%TO.N,unconnected-(U1-PD6-Pad26)*%
X89200000Y-66400000D03*
%TO.P,U1,27,PD7*%
%TO.N,unconnected-(U1-PD7-Pad27)*%
X90000000Y-66400000D03*
%TO.P,U1,28,PB4*%
%TO.N,/ACC_INT1*%
X90800000Y-66400000D03*
%TO.P,U1,29,PB5*%
%TO.N,/ACC_INT2*%
X91600000Y-66400000D03*
%TO.P,U1,30,PB6*%
%TO.N,/Button*%
X92400000Y-66400000D03*
%TO.P,U1,31,PC6*%
%TO.N,/PWR*%
X93200000Y-66400000D03*
%TO.P,U1,32,PC7*%
%TO.N,/LED_Data*%
X94000000Y-66400000D03*
%TO.P,U1,33,~{HWB}/PE2*%
%TO.N,VCC*%
X94800000Y-66400000D03*
D30*
%TO.P,U1,34,VCC*%
X96500000Y-64700000D03*
%TO.P,U1,35,GND*%
%TO.N,GND*%
X96500000Y-63900000D03*
%TO.P,U1,36,PF7*%
%TO.N,unconnected-(U1-PF7-Pad36)*%
X96500000Y-63100000D03*
%TO.P,U1,37,PF6*%
%TO.N,unconnected-(U1-PF6-Pad37)*%
X96500000Y-62300000D03*
%TO.P,U1,38,PF5*%
%TO.N,unconnected-(U1-PF5-Pad38)*%
X96500000Y-61500000D03*
%TO.P,U1,39,PF4*%
%TO.N,unconnected-(U1-PF4-Pad39)*%
X96500000Y-60700000D03*
%TO.P,U1,40,PF1*%
%TO.N,unconnected-(U1-PF1-Pad40)*%
X96500000Y-59900000D03*
%TO.P,U1,41,PF0*%
%TO.N,unconnected-(U1-PF0-Pad41)*%
X96500000Y-59100000D03*
%TO.P,U1,42,AREF*%
%TO.N,/AREF*%
X96500000Y-58300000D03*
%TO.P,U1,43,GND*%
%TO.N,GND*%
X96500000Y-57500000D03*
%TO.P,U1,44,AVCC*%
%TO.N,VCC*%
X96500000Y-56700000D03*
%TD*%
D13*
%TO.P,J1,1,Pin_1*%
%TO.N,GND*%
X80000000Y-56975000D03*
D14*
%TO.P,J1,2,Pin_2*%
%TO.N,/Data*%
X80000000Y-59515000D03*
%TO.P,J1,3,Pin_3*%
%TO.N,VCC*%
X80000000Y-62055000D03*
%TD*%
D31*
%TO.P,J8,1,Pin_1*%
%TO.N,Net-(J8-Pin_1)*%
X96500000Y-51600000D03*
%TD*%
%TO.P,J7,1,Pin_1*%
%TO.N,/KEY*%
X100700000Y-67700000D03*
%TD*%
D32*
%TO.P,R7,1*%
%TO.N,Net-(C1-Pad1)*%
X99612500Y-74700000D03*
%TO.P,R7,2*%
%TO.N,/Button*%
X97787500Y-74700000D03*
%TD*%
D19*
%TO.P,J5,1,Pin_1*%
%TO.N,+BATT*%
X94800000Y-69200000D03*
%TD*%
D33*
%TO.P,C9,1*%
%TO.N,VCC*%
X99200000Y-52800000D03*
%TO.P,C9,2*%
%TO.N,GND*%
X100750000Y-52800000D03*
%TD*%
%TO.P,C12,1*%
%TO.N,VCC*%
X89425000Y-68500000D03*
%TO.P,C12,2*%
%TO.N,GND*%
X90975000Y-68500000D03*
%TD*%
D28*
%TO.P,Q3,1,G*%
%TO.N,+3.3V*%
X78950000Y-76175000D03*
%TO.P,Q3,2,S*%
%TO.N,/SCL_3V3*%
X80850000Y-76175000D03*
%TO.P,Q3,3,D*%
%TO.N,/SCL*%
X79900000Y-74300000D03*
%TD*%
D23*
%TO.P,R1,1*%
%TO.N,/PWR*%
X97787500Y-72700000D03*
%TO.P,R1,2*%
%TO.N,Net-(C1-Pad1)*%
X99612500Y-72700000D03*
%TD*%
D25*
%TO.P,C10,1*%
%TO.N,/UCAP*%
X90500000Y-53200000D03*
%TO.P,C10,2*%
%TO.N,GND*%
X88950000Y-53200000D03*
%TD*%
D13*
%TO.P,J2,1,Pin_1*%
%TO.N,GND*%
X104000000Y-62525000D03*
D14*
%TO.P,J2,2,Pin_2*%
%TO.N,/Data*%
X104000000Y-59985000D03*
%TO.P,J2,3,Pin_3*%
%TO.N,VCC*%
X104000000Y-57445000D03*
%TD*%
D31*
%TO.P,J4,1,Pin_1*%
%TO.N,Net-(J4-Pin_1)*%
X89900000Y-51200000D03*
%TD*%
D23*
%TO.P,R4,1*%
%TO.N,/LED_Data*%
X101887500Y-73700000D03*
%TO.P,R4,2*%
%TO.N,/Data*%
X103712500Y-73700000D03*
%TD*%
D34*
%TO.P,C7,1*%
%TO.N,/XTAL2*%
X84200000Y-53275000D03*
%TO.P,C7,2*%
%TO.N,GND*%
X84200000Y-51725000D03*
%TD*%
D15*
%TO.P,C11,1*%
%TO.N,/AREF*%
X98400000Y-58525000D03*
%TO.P,C11,2*%
%TO.N,GND*%
X98400000Y-60075000D03*
%TD*%
%TO.P,C14,1*%
%TO.N,+3.3V*%
X78800000Y-78650000D03*
%TO.P,C14,2*%
%TO.N,GND*%
X78800000Y-80200000D03*
%TD*%
D35*
%TO.P,U2,1,Vout*%
%TO.N,+3.3V*%
X88737500Y-71950000D03*
%TO.P,U2,2,Vin*%
%TO.N,VCC*%
X88737500Y-70050000D03*
%TO.P,U2,3,GND*%
%TO.N,GND*%
X86862500Y-71000000D03*
%TD*%
D36*
%TO.P,U3,1,Vdd_I/O*%
%TO.N,+3.3V*%
X80400000Y-78900000D03*
%TO.P,U3,2,GND*%
%TO.N,GND*%
X80400000Y-79700000D03*
%TO.P,U3,3,RES*%
%TO.N,unconnected-(U3-RES-Pad3)*%
X80400000Y-80500000D03*
%TO.P,U3,4,GND*%
%TO.N,GND*%
X80400000Y-81300000D03*
%TO.P,U3,5,GND*%
X80400000Y-82100000D03*
%TO.P,U3,6,Vs*%
%TO.N,+3.3V*%
X80400000Y-82900000D03*
D37*
%TO.P,U3,7,~{CS}*%
X81400000Y-82900000D03*
D36*
%TO.P,U3,8,INT1*%
%TO.N,/ACC_INT1*%
X82400000Y-82900000D03*
%TO.P,U3,9,INT2*%
%TO.N,/ACC_INT2*%
X82400000Y-82100000D03*
%TO.P,U3,10,NC*%
%TO.N,unconnected-(U3-NC-Pad10)*%
X82400000Y-81300000D03*
%TO.P,U3,11,RES*%
%TO.N,GND*%
X82400000Y-80500000D03*
%TO.P,U3,12,SDO/ADDR*%
X82400000Y-79700000D03*
%TO.P,U3,13,SDA/SDI/SDIO*%
%TO.N,/SDA_3V3*%
X82400000Y-78900000D03*
D37*
%TO.P,U3,14,SCL/SCLK*%
%TO.N,/SCL_3V3*%
X81400000Y-78900000D03*
%TD*%
D32*
%TO.P,R2,1*%
%TO.N,GND*%
X104800000Y-71300000D03*
%TO.P,R2,2*%
%TO.N,/PWR*%
X102975000Y-71300000D03*
%TD*%
D25*
%TO.P,C13,1*%
%TO.N,+3.3V*%
X88175000Y-73600000D03*
%TO.P,C13,2*%
%TO.N,GND*%
X86625000Y-73600000D03*
%TD*%
D38*
%TO.P,J12,1,Pin_1*%
%TO.N,/RX*%
X81800000Y-66100000D03*
%TD*%
D34*
%TO.P,C15,1*%
%TO.N,+3.3V*%
X78800000Y-83250000D03*
%TO.P,C15,2*%
%TO.N,GND*%
X78800000Y-81700000D03*
%TD*%
D39*
%TO.P,J10,1,VCC*%
%TO.N,VCC*%
X85270000Y-47965000D03*
%TO.P,J10,2,SCK*%
%TO.N,/SCK*%
X85270000Y-49235000D03*
%TO.P,J10,3,GND*%
%TO.N,GND*%
X84000000Y-47965000D03*
%TO.P,J10,4,MISO*%
%TO.N,/MISO*%
X84000000Y-49235000D03*
%TO.P,J10,5,~{RST}*%
%TO.N,/~{RST}*%
X82730000Y-47965000D03*
%TO.P,J10,6,MOSI*%
%TO.N,/MOSI*%
X82730000Y-49235000D03*
%TD*%
D38*
%TO.P,J13,1,Pin_1*%
%TO.N,/TX*%
X83300000Y-66100000D03*
%TD*%
D17*
%TO.P,C4,1*%
%TO.N,VCC*%
X80000000Y-64700000D03*
%TO.P,C4,2*%
%TO.N,GND*%
X80000000Y-66600000D03*
%TD*%
D34*
%TO.P,C6,1*%
%TO.N,VCC*%
X98800000Y-64850000D03*
%TO.P,C6,2*%
%TO.N,GND*%
X98800000Y-63300000D03*
%TD*%
D40*
%TO.N,VCC*%
X94100000Y-56500000D03*
X85230000Y-47035000D03*
X87700000Y-64800000D03*
X97900000Y-65700000D03*
X85000000Y-66700000D03*
X86800000Y-58300000D03*
%TO.N,GND*%
X80000000Y-55400000D03*
X85900000Y-74400000D03*
X98400000Y-62200000D03*
X86300000Y-69700000D03*
X86900000Y-59900000D03*
X80000000Y-67600000D03*
X91600000Y-56400000D03*
X84030000Y-47035000D03*
X88499994Y-52199994D03*
X82500000Y-50600000D03*
X80000000Y-68500000D03*
X78800000Y-80900000D03*
X87800000Y-63200000D03*
X94800000Y-57600000D03*
X83600000Y-78800000D03*
X104900000Y-72600000D03*
%TO.N,/XTAL1*%
X81600000Y-55700000D03*
X79900000Y-50900000D03*
%TO.N,/Data*%
X103700000Y-75200000D03*
%TO.N,+BATT*%
X88300000Y-48900000D03*
%TO.N,Net-(C1-Pad1)*%
X103000000Y-51700000D03*
X99600000Y-71000000D03*
%TO.N,/~{RST}*%
X83500000Y-57500000D03*
X82730000Y-47035000D03*
%TO.N,+3.3V*%
X84300000Y-75700000D03*
X79000000Y-77600000D03*
X79900000Y-84100000D03*
%TO.N,/SCL_3V3*%
X81220180Y-77652613D03*
%TO.N,/SDA_3V3*%
X82400000Y-77700000D03*
%TO.N,/ACC_INT1*%
X90200000Y-64700000D03*
%TO.N,/SDA*%
X81800000Y-62200000D03*
X83100000Y-68500000D03*
%TO.N,/SCL*%
X81900000Y-61000000D03*
X80800000Y-69700000D03*
%TO.N,/LED_Data*%
X94000000Y-64700000D03*
X101199994Y-72200000D03*
%TO.N,/ACC_INT2*%
X92000000Y-64700000D03*
X83800000Y-82000000D03*
%TD*%
D41*
%TO.N,/SCK*%
X87300000Y-52985828D02*
X88400000Y-54085828D01*
X87300000Y-51265000D02*
X87300000Y-52985828D01*
X85270000Y-49235000D02*
X87300000Y-51265000D01*
X85270000Y-49235000D02*
X85320727Y-49235000D01*
X88400000Y-54085828D02*
X88400000Y-55000000D01*
%TO.N,VCC*%
X90000000Y-58300000D02*
X90000000Y-55000000D01*
X86800000Y-58300000D02*
X90000000Y-58300000D01*
X95200000Y-64700000D02*
X95200000Y-63500000D01*
X94800000Y-65100000D02*
X95200000Y-64700000D01*
X87600000Y-66400000D02*
X87600000Y-68200000D01*
X97800000Y-64700000D02*
X98650000Y-64700000D01*
X92000000Y-58300000D02*
X90000000Y-58300000D01*
X94300000Y-56700000D02*
X94100000Y-56500000D01*
D42*
X103000000Y-54350000D02*
X103000000Y-57000000D01*
D41*
X93600000Y-56700000D02*
X92000000Y-58300000D01*
X94800000Y-66400000D02*
X94800000Y-65100000D01*
D42*
X103000000Y-57000000D02*
X102555000Y-57445000D01*
D41*
X94000000Y-56100000D02*
X94000000Y-55000000D01*
X95200000Y-63500000D02*
X92600000Y-60900000D01*
D43*
X80000000Y-64700000D02*
X80000000Y-62055000D01*
D41*
X88737500Y-70050000D02*
X88737500Y-68562500D01*
D43*
X104000000Y-57445000D02*
X102555000Y-57445000D01*
D41*
X97900000Y-64800000D02*
X97800000Y-64700000D01*
D43*
X94000000Y-74900000D02*
X92500000Y-73400000D01*
D41*
X93900000Y-56700000D02*
X93600000Y-56700000D01*
X99050000Y-56700000D02*
X100000000Y-55750000D01*
X85000000Y-68200000D02*
X84900000Y-68300000D01*
X87600000Y-68200000D02*
X87875000Y-68475000D01*
X87800000Y-64800000D02*
X90000000Y-62600000D01*
X87700000Y-64800000D02*
X87800000Y-64800000D01*
X84900000Y-69640000D02*
X84900000Y-68300000D01*
X98650000Y-64700000D02*
X98800000Y-64850000D01*
X89425000Y-68500000D02*
X88800000Y-68500000D01*
X96500000Y-56700000D02*
X99050000Y-56700000D01*
X97900000Y-65700000D02*
X97900000Y-64800000D01*
X87600000Y-66400000D02*
X87600000Y-64900000D01*
X92600000Y-60900000D02*
X90000000Y-60900000D01*
X88800000Y-68500000D02*
X87900000Y-68500000D01*
X87600000Y-64900000D02*
X87700000Y-64800000D01*
X98800000Y-64850000D02*
X98750000Y-64850000D01*
X85230000Y-47035000D02*
X85270000Y-47175000D01*
D42*
X99200000Y-54950000D02*
X100000000Y-55750000D01*
D41*
X85270000Y-47965000D02*
X85230000Y-47035000D01*
X87900000Y-68500000D02*
X87875000Y-68475000D01*
X94600000Y-56700000D02*
X94300000Y-56700000D01*
X87700000Y-64800000D02*
X87600000Y-64700000D01*
X85100000Y-58300000D02*
X86800000Y-58300000D01*
D43*
X100860000Y-55750000D02*
X102555000Y-57445000D01*
X102555000Y-57445000D02*
X101200000Y-58800000D01*
D42*
X99200000Y-52800000D02*
X99200000Y-54950000D01*
D41*
X90000000Y-60900000D02*
X90000000Y-58300000D01*
X90000000Y-62600000D02*
X90000000Y-60900000D01*
X88737500Y-68562500D02*
X88800000Y-68500000D01*
X85000000Y-66700000D02*
X85000000Y-68200000D01*
X96500000Y-64700000D02*
X97800000Y-64700000D01*
X94600000Y-56700000D02*
X94000000Y-56100000D01*
D43*
X100000000Y-55750000D02*
X100860000Y-55750000D01*
D41*
X95200000Y-64700000D02*
X96500000Y-64700000D01*
X94100000Y-56500000D02*
X93900000Y-56700000D01*
X96500000Y-56700000D02*
X94600000Y-56700000D01*
D43*
X94000000Y-76300000D02*
X94000000Y-74900000D01*
D41*
X85000000Y-66700000D02*
X84900000Y-66700000D01*
D42*
%TO.N,GND*%
X98400000Y-62200000D02*
X98400000Y-62900000D01*
D41*
X86800000Y-63200000D02*
X86800000Y-60000000D01*
X88500006Y-52199994D02*
X88499994Y-52199994D01*
X90975000Y-68500000D02*
X90975000Y-69925000D01*
X84000000Y-47965000D02*
X84030000Y-47035000D01*
X85100000Y-59100000D02*
X86100000Y-59100000D01*
X104825000Y-63350000D02*
X104000000Y-62525000D01*
D42*
X80000000Y-56975000D02*
X80000000Y-55400000D01*
D41*
X84030000Y-47035000D02*
X84000000Y-47165000D01*
D42*
X80000000Y-55400000D02*
X80000000Y-54950000D01*
D43*
X103025000Y-62525000D02*
X101200000Y-60700000D01*
D41*
X88499994Y-52199994D02*
X88499994Y-52749994D01*
X80400000Y-79700000D02*
X79300000Y-79700000D01*
X88621800Y-47004700D02*
X89107500Y-46519000D01*
D42*
X98400000Y-60075000D02*
X98400000Y-60700000D01*
D41*
X104900000Y-72600000D02*
X104800000Y-72300000D01*
X90975000Y-69925000D02*
X90600000Y-70300000D01*
X97400000Y-63900000D02*
X98000000Y-63300000D01*
X80400000Y-82100000D02*
X80400000Y-81700000D01*
X96500000Y-57500000D02*
X94900000Y-57500000D01*
X94800000Y-57600000D02*
X94800000Y-57500000D01*
X79300000Y-79700000D02*
X78800000Y-80200000D01*
X86300000Y-69700000D02*
X86325000Y-69725000D01*
X86900000Y-59900000D02*
X86800000Y-59800000D01*
X82400000Y-79700000D02*
X82927684Y-79700000D01*
X88600000Y-52100000D02*
X88500006Y-52199994D01*
X86800000Y-66400000D02*
X86800000Y-63200000D01*
D42*
X98400000Y-60700000D02*
X98400000Y-62200000D01*
D41*
X83700000Y-78900000D02*
X85900000Y-76700000D01*
X86800000Y-68000000D02*
X86325000Y-68475000D01*
X83600000Y-78800000D02*
X83700000Y-78900000D01*
D43*
X88920000Y-76300000D02*
X88920000Y-75080000D01*
D41*
X86800000Y-66400000D02*
X86800000Y-68000000D01*
X82725000Y-51625000D02*
X82500000Y-51850000D01*
X82400000Y-79700000D02*
X82400000Y-80500000D01*
X78800000Y-80900000D02*
X78800000Y-81700000D01*
X86800000Y-60000000D02*
X86900000Y-59900000D01*
D42*
X100750000Y-50450000D02*
X100100000Y-49800000D01*
D41*
X98000000Y-63300000D02*
X98800000Y-63300000D01*
X82625000Y-51725000D02*
X82500000Y-51850000D01*
X86325000Y-69675000D02*
X86300000Y-69700000D01*
D42*
X100750000Y-52800000D02*
X100750000Y-50450000D01*
D41*
X90600000Y-70300000D02*
X90600000Y-73400000D01*
X78800000Y-80200000D02*
X78800000Y-80900000D01*
X86325000Y-70462500D02*
X86862500Y-71000000D01*
D43*
X80000000Y-66600000D02*
X80000000Y-67600000D01*
X80000000Y-68500000D02*
X80000000Y-68100000D01*
X80000000Y-67600000D02*
X80000000Y-68500000D01*
D41*
X88499994Y-52749994D02*
X88950000Y-53200000D01*
D42*
X101200000Y-60700000D02*
X98400000Y-60700000D01*
D41*
X81400000Y-80700000D02*
X81600000Y-80500000D01*
X96500000Y-63900000D02*
X97400000Y-63900000D01*
D42*
X80000000Y-54950000D02*
X80900000Y-54050000D01*
D43*
X104000000Y-62525000D02*
X103025000Y-62525000D01*
D41*
X104825000Y-69237500D02*
X104825000Y-63350000D01*
X86325000Y-69725000D02*
X86325000Y-70462500D01*
X85900000Y-76700000D02*
X85900000Y-74400000D01*
D43*
X92620000Y-80000000D02*
X88920000Y-76300000D01*
D41*
X86800000Y-59800000D02*
X86100000Y-59100000D01*
X80400000Y-81700000D02*
X80400000Y-81300000D01*
X78800000Y-81700000D02*
X80400000Y-81700000D01*
X83600000Y-79027684D02*
X83600000Y-78800000D01*
X81600000Y-80500000D02*
X82400000Y-80500000D01*
X86325000Y-68475000D02*
X86325000Y-69675000D01*
X82927684Y-79700000D02*
X83600000Y-79027684D01*
X81400000Y-80827684D02*
X81400000Y-80700000D01*
X89107500Y-46519000D02*
X94892500Y-46519000D01*
X86625000Y-73675000D02*
X85900000Y-74400000D01*
D44*
X104825000Y-71275000D02*
X104800000Y-71300000D01*
D41*
X79775000Y-54050000D02*
X79200000Y-53475000D01*
X104800000Y-71300000D02*
X104900000Y-72600000D01*
D42*
X82500000Y-51850000D02*
X82500000Y-50600000D01*
D41*
X94900000Y-57500000D02*
X94800000Y-57600000D01*
X80400000Y-81300000D02*
X80927684Y-81300000D01*
X87800000Y-63200000D02*
X86800000Y-63200000D01*
X80900000Y-54050000D02*
X79775000Y-54050000D01*
X91600000Y-55000000D02*
X91600000Y-56400000D01*
X94892500Y-46519000D02*
X95378200Y-47004700D01*
D43*
X88920000Y-75080000D02*
X90600000Y-73400000D01*
D41*
X84200000Y-51725000D02*
X82625000Y-51725000D01*
X80927684Y-81300000D02*
X81400000Y-80827684D01*
X86625000Y-73600000D02*
X86625000Y-73675000D01*
D44*
X104825000Y-69237500D02*
X104825000Y-71275000D01*
D42*
X98400000Y-62900000D02*
X98800000Y-63300000D01*
D41*
%TO.N,/XTAL2*%
X82500000Y-54050000D02*
X83425000Y-54050000D01*
X82500000Y-58700000D02*
X82500000Y-54050000D01*
X83700000Y-59900000D02*
X82500000Y-58700000D01*
X83425000Y-54050000D02*
X84200000Y-53275000D01*
X85100000Y-59900000D02*
X83700000Y-59900000D01*
%TO.N,/XTAL1*%
X85100000Y-60700000D02*
X83200000Y-60700000D01*
X80000000Y-51925000D02*
X80825000Y-51925000D01*
X80000000Y-51000000D02*
X80000000Y-51925000D01*
X81600000Y-59100000D02*
X81600000Y-55700000D01*
X79900000Y-50900000D02*
X80000000Y-51000000D01*
X80825000Y-51925000D02*
X80900000Y-51850000D01*
X79200000Y-51925000D02*
X80000000Y-51925000D01*
X83200000Y-60700000D02*
X81600000Y-59100000D01*
%TO.N,/Data*%
X103712500Y-75187500D02*
X103700000Y-75200000D01*
X103700000Y-75200000D02*
X103712500Y-75212500D01*
X103712500Y-73700000D02*
X103712500Y-75187500D01*
X102200000Y-78100000D02*
X93260000Y-78100000D01*
X103712500Y-76587500D02*
X102200000Y-78100000D01*
X103712500Y-75212500D02*
X103712500Y-76587500D01*
X91460000Y-76300000D02*
X93260000Y-78100000D01*
%TO.N,+BATT*%
X88300000Y-48900000D02*
X88303000Y-48897000D01*
X89904500Y-48897000D02*
X88300000Y-48900000D01*
%TO.N,Net-(C1-Pad1)*%
X94095500Y-48897000D02*
X97603000Y-48897000D01*
X103000000Y-51700000D02*
X103000000Y-52800000D01*
X102000000Y-48500000D02*
X102000000Y-50700000D01*
X98500000Y-48000000D02*
X101500000Y-48000000D01*
D42*
X99612500Y-72700000D02*
X99600000Y-71000000D01*
D41*
X97603000Y-48897000D02*
X98500000Y-48000000D01*
X102000000Y-50700000D02*
X103000000Y-51700000D01*
D42*
X99612500Y-72700000D02*
X99612500Y-74700000D01*
X99600000Y-71000000D02*
X99612500Y-71012500D01*
D41*
X101500000Y-48000000D02*
X102000000Y-48500000D01*
%TO.N,/MISO*%
X84000000Y-49235000D02*
X84865000Y-50100000D01*
X86600000Y-54800000D02*
X86600000Y-51599223D01*
X86800000Y-55000000D02*
X86600000Y-54800000D01*
X84865000Y-50100000D02*
X85100777Y-50100000D01*
X85100777Y-50100000D02*
X86600000Y-51599223D01*
%TO.N,/~{RST}*%
X82730000Y-47035000D02*
X82730000Y-46935000D01*
X85100000Y-57500000D02*
X83500000Y-57500000D01*
X82730000Y-47965000D02*
X82730000Y-47035000D01*
%TO.N,/MOSI*%
X87600000Y-56250000D02*
X87600000Y-55000000D01*
X86500000Y-56400000D02*
X87450000Y-56400000D01*
X85700000Y-55600000D02*
X86500000Y-56400000D01*
X85700000Y-51689172D02*
X85700000Y-55600000D01*
X84295000Y-50800000D02*
X84810828Y-50800000D01*
X82730000Y-49235000D02*
X84295000Y-50800000D01*
X84810828Y-50800000D02*
X85700000Y-51689172D01*
X87450000Y-56400000D02*
X87600000Y-56250000D01*
D44*
%TO.N,Net-(Q1-D)*%
X103875000Y-67362500D02*
X103875000Y-66750000D01*
X103875000Y-66750000D02*
X102425000Y-65300000D01*
D41*
%TO.N,/UCAP*%
X90800000Y-53500000D02*
X90500000Y-53200000D01*
X90800000Y-55000000D02*
X90800000Y-53500000D01*
%TO.N,/AREF*%
X96500000Y-58300000D02*
X98175000Y-58300000D01*
X98175000Y-58300000D02*
X98400000Y-58525000D01*
%TO.N,+3.3V*%
X84950000Y-71550000D02*
X84900000Y-71600000D01*
X84250000Y-74262500D02*
X84250000Y-75650000D01*
X84900000Y-71600000D02*
X84900000Y-70960000D01*
X88737500Y-73037500D02*
X88175000Y-73600000D01*
X79050000Y-78900000D02*
X78800000Y-78650000D01*
X88737500Y-71950000D02*
X85250000Y-71950000D01*
X84250000Y-75650000D02*
X84300000Y-75700000D01*
X80400000Y-82900000D02*
X79900000Y-82900000D01*
X87500000Y-74275000D02*
X88175000Y-73600000D01*
X79150000Y-82900000D02*
X78800000Y-83250000D01*
X84900000Y-73612500D02*
X84250000Y-74262500D01*
X84900000Y-72300000D02*
X84900000Y-73612500D01*
X80400000Y-82900000D02*
X81400000Y-82900000D01*
X78950000Y-78700000D02*
X78800000Y-78850000D01*
X78950000Y-76175000D02*
X78950000Y-77550000D01*
X84900000Y-72300000D02*
X84900000Y-71600000D01*
X90080000Y-80000000D02*
X87500000Y-77420000D01*
X78950000Y-78500000D02*
X78800000Y-78650000D01*
X78850000Y-78900000D02*
X78800000Y-78850000D01*
X87500000Y-77420000D02*
X87500000Y-74275000D01*
X78950000Y-77650000D02*
X78950000Y-78500000D01*
X78950000Y-77550000D02*
X79000000Y-77600000D01*
X79000000Y-77600000D02*
X78950000Y-77650000D01*
X79900000Y-82900000D02*
X79900000Y-84100000D01*
X88737500Y-71950000D02*
X88737500Y-73037500D01*
X79900000Y-82900000D02*
X79150000Y-82900000D01*
X80400000Y-78900000D02*
X79050000Y-78900000D01*
X85250000Y-71950000D02*
X84900000Y-72300000D01*
D43*
%TO.N,Net-(J4-Pin_1)*%
X90012500Y-51087500D02*
X89900000Y-51200000D01*
X92200000Y-51087500D02*
X90012500Y-51087500D01*
%TO.N,/KEY*%
X100600000Y-67600000D02*
X100700000Y-67700000D01*
X100600000Y-65300000D02*
X100600000Y-67600000D01*
%TO.N,Net-(J8-Pin_1)*%
X94200000Y-51087500D02*
X95987500Y-51087500D01*
X95987500Y-51087500D02*
X96500000Y-51600000D01*
D41*
%TO.N,/SCL_3V3*%
X81400000Y-78900000D02*
X81400000Y-77832433D01*
X81400000Y-77832433D02*
X81220180Y-77652613D01*
X80850000Y-76175000D02*
X80850000Y-71550000D01*
X80850000Y-77282433D02*
X81220180Y-77652613D01*
X80850000Y-76175000D02*
X80850000Y-77282433D01*
X80850000Y-71550000D02*
X81440000Y-70960000D01*
X81440000Y-70960000D02*
X81900000Y-70960000D01*
%TO.N,/SDA_3V3*%
X81900000Y-73812500D02*
X82350000Y-74262500D01*
X82400000Y-74312500D02*
X82350000Y-74262500D01*
X82400000Y-77700000D02*
X82400000Y-74312500D01*
X81900000Y-72300000D02*
X81900000Y-73812500D01*
X82400000Y-78900000D02*
X82400000Y-77700000D01*
%TO.N,/ACC_INT1*%
X95160000Y-80000000D02*
X95160000Y-81740000D01*
X90800000Y-65200000D02*
X90300000Y-64700000D01*
X90200000Y-64700000D02*
X90200000Y-64600000D01*
X90200000Y-64600000D02*
X90300000Y-64700000D01*
X94000000Y-82900000D02*
X82400000Y-82900000D01*
X90800000Y-66400000D02*
X90800000Y-65200000D01*
X90300000Y-64700000D02*
X90200000Y-64700000D01*
X95160000Y-81740000D02*
X94000000Y-82900000D01*
%TO.N,/RX*%
X82500000Y-63100000D02*
X81800000Y-63800000D01*
X81800000Y-63800000D02*
X81800000Y-66100000D01*
X85100000Y-63100000D02*
X82500000Y-63100000D01*
%TO.N,/TX*%
X83300000Y-64500000D02*
X83300000Y-66100000D01*
X83900000Y-63900000D02*
X83300000Y-64500000D01*
X85100000Y-63900000D02*
X83900000Y-63900000D01*
%TO.N,/PWR*%
X99462500Y-69237500D02*
X102925000Y-69237500D01*
X93000000Y-70446878D02*
X95253122Y-72700000D01*
X93200000Y-67753122D02*
X93100000Y-67853122D01*
X95253122Y-72700000D02*
X97787500Y-72700000D01*
D44*
X102925000Y-69237500D02*
X102925000Y-71250000D01*
D41*
X97787500Y-72700000D02*
X97787500Y-70912500D01*
X97787500Y-70912500D02*
X99462500Y-69237500D01*
X93000000Y-68039949D02*
X93000000Y-70446878D01*
D44*
X102925000Y-71250000D02*
X102975000Y-71300000D01*
D41*
X93100000Y-67853122D02*
X93100000Y-67939950D01*
X93200000Y-66400000D02*
X93200000Y-67753122D01*
X93100000Y-67939950D02*
X93000000Y-68039949D01*
%TO.N,/SDA*%
X83100000Y-68550000D02*
X83100000Y-68500000D01*
X81900000Y-62300000D02*
X81800000Y-62200000D01*
X83050000Y-68500000D02*
X82850000Y-68300000D01*
X83100000Y-68500000D02*
X83050000Y-68500000D01*
X82850000Y-68300000D02*
X81900000Y-68300000D01*
X85100000Y-62300000D02*
X81900000Y-62300000D01*
X83300000Y-68750000D02*
X83100000Y-68550000D01*
X83300000Y-76137500D02*
X83300000Y-68750000D01*
%TO.N,/SCL*%
X85100000Y-61500000D02*
X82400000Y-61500000D01*
X80950000Y-69640000D02*
X81900000Y-69640000D01*
X80800000Y-69790000D02*
X80800000Y-69700000D01*
X80890000Y-69700000D02*
X80950000Y-69640000D01*
X79900000Y-74300000D02*
X79900000Y-70690000D01*
X80800000Y-69700000D02*
X80890000Y-69700000D01*
X82400000Y-61500000D02*
X81900000Y-61000000D01*
X79900000Y-70690000D02*
X80800000Y-69790000D01*
%TO.N,Net-(U1-D+)*%
X92400000Y-53112500D02*
X92200000Y-52912500D01*
X92400000Y-55000000D02*
X92400000Y-53112500D01*
D44*
%TO.N,/LED_Data*%
X101887500Y-72887506D02*
X101199994Y-72200000D01*
X101887500Y-73700000D02*
X101887500Y-72887506D01*
X94000000Y-66400000D02*
X94000000Y-64700000D01*
D41*
%TO.N,Net-(U1-D-)*%
X93200000Y-55000000D02*
X93200000Y-53912500D01*
X93200000Y-53912500D02*
X94200000Y-52912500D01*
%TO.N,/Button*%
X96200000Y-74700000D02*
X97787500Y-74700000D01*
X92400000Y-66400000D02*
X92400000Y-67650000D01*
X92300000Y-70800000D02*
X96200000Y-74700000D01*
X92400000Y-67650000D02*
X92300000Y-67750000D01*
X92300000Y-67750000D02*
X92300000Y-70800000D01*
%TO.N,/ACC_INT2*%
X92100000Y-64700000D02*
X92100000Y-64700000D01*
X83700000Y-82100000D02*
X83800000Y-82000000D01*
X91600000Y-66400000D02*
X91600000Y-65200000D01*
X92000000Y-64800000D02*
X92000000Y-64700000D01*
X91600000Y-65200000D02*
X92000000Y-64800000D01*
X92000000Y-64700000D02*
X92100000Y-64700000D01*
X82400000Y-82100000D02*
X83700000Y-82100000D01*
%TD*%
%TA.AperFunction,Conductor*%
%TO.N,VCC*%
G36*
X85967539Y-65495184D02*
G01*
X86013294Y-65547988D01*
X86024500Y-65599499D01*
X86024500Y-67197870D01*
X86024501Y-67197876D01*
X86030908Y-67257481D01*
X86041682Y-67286366D01*
X86049500Y-67329700D01*
X86049500Y-67388576D01*
X86029815Y-67455615D01*
X85977011Y-67501370D01*
X85958689Y-67507435D01*
X85958718Y-67507521D01*
X85850763Y-67543293D01*
X85780935Y-67545694D01*
X85720893Y-67509962D01*
X85712491Y-67499895D01*
X85707186Y-67492808D01*
X85592093Y-67406649D01*
X85592086Y-67406645D01*
X85457379Y-67356403D01*
X85457372Y-67356401D01*
X85397844Y-67350000D01*
X85150000Y-67350000D01*
X85150000Y-69766000D01*
X85130315Y-69833039D01*
X85077511Y-69878794D01*
X85026000Y-69890000D01*
X84774000Y-69890000D01*
X84706961Y-69870315D01*
X84661206Y-69817511D01*
X84650000Y-69766000D01*
X84650000Y-67350000D01*
X84402155Y-67350000D01*
X84355259Y-67355043D01*
X84286499Y-67342638D01*
X84235362Y-67295028D01*
X84218082Y-67227329D01*
X84233436Y-67176663D01*
X84231760Y-67175882D01*
X84234808Y-67169343D01*
X84234814Y-67169334D01*
X84289999Y-67002797D01*
X84300500Y-66900009D01*
X84300499Y-65599498D01*
X84320184Y-65532460D01*
X84372987Y-65486705D01*
X84424494Y-65475499D01*
X85897872Y-65475499D01*
X85900500Y-65475499D01*
X85967539Y-65495184D01*
G37*
%TD.AperFunction*%
%TA.AperFunction,Conductor*%
G36*
X88855677Y-68244685D02*
G01*
X88862273Y-68250000D01*
X89551000Y-68250000D01*
X89618039Y-68269685D01*
X89663794Y-68322489D01*
X89675000Y-68374000D01*
X89675000Y-68626000D01*
X89655315Y-68693039D01*
X89602511Y-68738794D01*
X89551000Y-68750000D01*
X88511362Y-68750000D01*
X88444323Y-68730315D01*
X88437727Y-68725000D01*
X87749000Y-68725000D01*
X87681961Y-68705315D01*
X87636206Y-68652511D01*
X87625000Y-68601000D01*
X87625000Y-68349000D01*
X87644685Y-68281961D01*
X87697489Y-68236206D01*
X87749000Y-68225000D01*
X88788638Y-68225000D01*
X88855677Y-68244685D01*
G37*
%TD.AperFunction*%
%TA.AperFunction,Conductor*%
G36*
X98307286Y-52019685D02*
G01*
X98353041Y-52072489D01*
X98362985Y-52141647D01*
X98345786Y-52189097D01*
X98313454Y-52241513D01*
X98313452Y-52241518D01*
X98260144Y-52402393D01*
X98250000Y-52501677D01*
X98250000Y-52550000D01*
X99326000Y-52550000D01*
X99393039Y-52569685D01*
X99438794Y-52622489D01*
X99450000Y-52674000D01*
X99450000Y-52926000D01*
X99430315Y-52993039D01*
X99377511Y-53038794D01*
X99326000Y-53050000D01*
X98250001Y-53050000D01*
X98250001Y-53098322D01*
X98260144Y-53197607D01*
X98313452Y-53358481D01*
X98313457Y-53358492D01*
X98402424Y-53502728D01*
X98402427Y-53502732D01*
X98522267Y-53622572D01*
X98522271Y-53622575D01*
X98666507Y-53711542D01*
X98666518Y-53711547D01*
X98802555Y-53756625D01*
X98860000Y-53796397D01*
X98886823Y-53860913D01*
X98874508Y-53929689D01*
X98826965Y-53980889D01*
X98802555Y-53992037D01*
X98655880Y-54040640D01*
X98655869Y-54040645D01*
X98506659Y-54132680D01*
X98506655Y-54132683D01*
X98382683Y-54256655D01*
X98382680Y-54256659D01*
X98290645Y-54405869D01*
X98290640Y-54405880D01*
X98235494Y-54572302D01*
X98225000Y-54675013D01*
X98225000Y-55500000D01*
X99266403Y-55500000D01*
X99239650Y-55576455D01*
X99220096Y-55750000D01*
X99239650Y-55923545D01*
X99266403Y-56000000D01*
X98225001Y-56000000D01*
X98225001Y-56824986D01*
X98235494Y-56927696D01*
X98235494Y-56927698D01*
X98290640Y-57094119D01*
X98290645Y-57094130D01*
X98382680Y-57243340D01*
X98382683Y-57243344D01*
X98502158Y-57362819D01*
X98535643Y-57424142D01*
X98530659Y-57493834D01*
X98488787Y-57549767D01*
X98423323Y-57574184D01*
X98414477Y-57574500D01*
X98385422Y-57574500D01*
X98360348Y-57571938D01*
X98351922Y-57570198D01*
X98337433Y-57567206D01*
X98277296Y-57552954D01*
X98262721Y-57549500D01*
X98262720Y-57549500D01*
X98262716Y-57549499D01*
X98255547Y-57548661D01*
X98255553Y-57548601D01*
X98248055Y-57547835D01*
X98248050Y-57547895D01*
X98240860Y-57547265D01*
X98164083Y-57549500D01*
X97874500Y-57549500D01*
X97807461Y-57529815D01*
X97761706Y-57477011D01*
X97750500Y-57425500D01*
X97750499Y-57177130D01*
X97750499Y-57177128D01*
X97744091Y-57117517D01*
X97744090Y-57117516D01*
X97743380Y-57110904D01*
X97743381Y-57084393D01*
X97749999Y-57022842D01*
X97750000Y-57022827D01*
X97750000Y-56950000D01*
X97731409Y-56950000D01*
X97664370Y-56930315D01*
X97632144Y-56900313D01*
X97607546Y-56867454D01*
X97584709Y-56850358D01*
X97492335Y-56781206D01*
X97492328Y-56781202D01*
X97357482Y-56730908D01*
X97357483Y-56730908D01*
X97297883Y-56724501D01*
X97297881Y-56724500D01*
X97297873Y-56724500D01*
X97297864Y-56724500D01*
X95702129Y-56724500D01*
X95702123Y-56724501D01*
X95642518Y-56730908D01*
X95623547Y-56737984D01*
X95613632Y-56741682D01*
X95570300Y-56749500D01*
X95130067Y-56749500D01*
X95086209Y-56740178D01*
X95085986Y-56740865D01*
X95079801Y-56738855D01*
X94944624Y-56710123D01*
X94894646Y-56699500D01*
X94705354Y-56699500D01*
X94672897Y-56706398D01*
X94520197Y-56738855D01*
X94520192Y-56738857D01*
X94347270Y-56815848D01*
X94347265Y-56815851D01*
X94194129Y-56927111D01*
X94067466Y-57067785D01*
X93972821Y-57231715D01*
X93972818Y-57231722D01*
X93914327Y-57411740D01*
X93914326Y-57411744D01*
X93894540Y-57600000D01*
X93914326Y-57788256D01*
X93914327Y-57788259D01*
X93972818Y-57968277D01*
X93972821Y-57968284D01*
X94067467Y-58132216D01*
X94156300Y-58230875D01*
X94194129Y-58272888D01*
X94347265Y-58384148D01*
X94347270Y-58384151D01*
X94520192Y-58461142D01*
X94520197Y-58461144D01*
X94705354Y-58500500D01*
X94705355Y-58500500D01*
X94894644Y-58500500D01*
X94894646Y-58500500D01*
X95079803Y-58461144D01*
X95079805Y-58461142D01*
X95085987Y-58459135D01*
X95086816Y-58461687D01*
X95144262Y-58453961D01*
X95207551Y-58483562D01*
X95244790Y-58542681D01*
X95249500Y-58576531D01*
X95249500Y-58622868D01*
X95249501Y-58622879D01*
X95256367Y-58686751D01*
X95256367Y-58713257D01*
X95255909Y-58717516D01*
X95255909Y-58717517D01*
X95249500Y-58777127D01*
X95249500Y-58777132D01*
X95249500Y-58777133D01*
X95249500Y-59422870D01*
X95249501Y-59422879D01*
X95256367Y-59486751D01*
X95256367Y-59513257D01*
X95255909Y-59517516D01*
X95255909Y-59517517D01*
X95249500Y-59577127D01*
X95249500Y-59577132D01*
X95249500Y-59577133D01*
X95249500Y-60222870D01*
X95249501Y-60222879D01*
X95256367Y-60286751D01*
X95256367Y-60313257D01*
X95255909Y-60317516D01*
X95255909Y-60317517D01*
X95249500Y-60377127D01*
X95249500Y-60377132D01*
X95249500Y-60377133D01*
X95249500Y-61022870D01*
X95249501Y-61022879D01*
X95256367Y-61086751D01*
X95256367Y-61113257D01*
X95255909Y-61117516D01*
X95255909Y-61117517D01*
X95249500Y-61177127D01*
X95249500Y-61177132D01*
X95249500Y-61177133D01*
X95249500Y-61822870D01*
X95249501Y-61822879D01*
X95256367Y-61886751D01*
X95256367Y-61913257D01*
X95255909Y-61917516D01*
X95255909Y-61917517D01*
X95249500Y-61977127D01*
X95249500Y-61977132D01*
X95249500Y-61977133D01*
X95249500Y-62622870D01*
X95249501Y-62622879D01*
X95256367Y-62686751D01*
X95256367Y-62713257D01*
X95255909Y-62717516D01*
X95255909Y-62717517D01*
X95249500Y-62777127D01*
X95249500Y-62777132D01*
X95249500Y-62777133D01*
X95249500Y-63422870D01*
X95249501Y-63422879D01*
X95256367Y-63486751D01*
X95256367Y-63513257D01*
X95255909Y-63517516D01*
X95255909Y-63517517D01*
X95249500Y-63577127D01*
X95249500Y-63577132D01*
X95249500Y-63577133D01*
X95249500Y-64222870D01*
X95249501Y-64222876D01*
X95256619Y-64289092D01*
X95256619Y-64315599D01*
X95250000Y-64377169D01*
X95250000Y-64450000D01*
X95268591Y-64450000D01*
X95335630Y-64469685D01*
X95367855Y-64499686D01*
X95392454Y-64532546D01*
X95426889Y-64558324D01*
X95507664Y-64618793D01*
X95507671Y-64618797D01*
X95642517Y-64669091D01*
X95642516Y-64669091D01*
X95649444Y-64669835D01*
X95702127Y-64675500D01*
X97000000Y-64675499D01*
X97000000Y-64950000D01*
X96750000Y-64950000D01*
X96750000Y-65475000D01*
X96876000Y-65475000D01*
X96943039Y-65494685D01*
X96988794Y-65547489D01*
X97000000Y-65599000D01*
X97000000Y-66876000D01*
X96980315Y-66943039D01*
X96927511Y-66988794D01*
X96876000Y-67000000D01*
X95699000Y-67000000D01*
X95631961Y-66980315D01*
X95586206Y-66927511D01*
X95575000Y-66876000D01*
X95575000Y-66650000D01*
X94916153Y-66650000D01*
X94849114Y-66630315D01*
X94803359Y-66577511D01*
X94792933Y-66512116D01*
X94795580Y-66488613D01*
X94800500Y-66444954D01*
X94800500Y-66274000D01*
X94820185Y-66206961D01*
X94872989Y-66161206D01*
X94924500Y-66150000D01*
X95575000Y-66150000D01*
X95575000Y-65599000D01*
X95594685Y-65531961D01*
X95647489Y-65486206D01*
X95699000Y-65475000D01*
X96250000Y-65475000D01*
X96250000Y-64950000D01*
X95250000Y-64950000D01*
X95250000Y-65026000D01*
X95230315Y-65093039D01*
X95177511Y-65138794D01*
X95126000Y-65150000D01*
X94971300Y-65150000D01*
X94904261Y-65130315D01*
X94858506Y-65077511D01*
X94848562Y-65008353D01*
X94853369Y-64987682D01*
X94866053Y-64948642D01*
X94885674Y-64888256D01*
X94905460Y-64700000D01*
X94885674Y-64511744D01*
X94829079Y-64337565D01*
X94827181Y-64331722D01*
X94827180Y-64331721D01*
X94827179Y-64331716D01*
X94732533Y-64167784D01*
X94605871Y-64027112D01*
X94604284Y-64025959D01*
X94452734Y-63915851D01*
X94452729Y-63915848D01*
X94279807Y-63838857D01*
X94279802Y-63838855D01*
X94134001Y-63807865D01*
X94094646Y-63799500D01*
X93905354Y-63799500D01*
X93872897Y-63806398D01*
X93720197Y-63838855D01*
X93720192Y-63838857D01*
X93547270Y-63915848D01*
X93547265Y-63915851D01*
X93394129Y-64027111D01*
X93267466Y-64167785D01*
X93172821Y-64331715D01*
X93172818Y-64331722D01*
X93117931Y-64500648D01*
X93078493Y-64558324D01*
X93014135Y-64585522D01*
X92945288Y-64573607D01*
X92893813Y-64526363D01*
X92882069Y-64500648D01*
X92827181Y-64331722D01*
X92827180Y-64331721D01*
X92827179Y-64331716D01*
X92732533Y-64167784D01*
X92605871Y-64027112D01*
X92604284Y-64025959D01*
X92452734Y-63915851D01*
X92452729Y-63915848D01*
X92279807Y-63838857D01*
X92279802Y-63838855D01*
X92134001Y-63807865D01*
X92094646Y-63799500D01*
X91905354Y-63799500D01*
X91872897Y-63806398D01*
X91720197Y-63838855D01*
X91720192Y-63838857D01*
X91547270Y-63915848D01*
X91547265Y-63915851D01*
X91394129Y-64027111D01*
X91267465Y-64167785D01*
X91207387Y-64271845D01*
X91156820Y-64320061D01*
X91088213Y-64333284D01*
X91023348Y-64307316D01*
X90992613Y-64271845D01*
X90932534Y-64167785D01*
X90805870Y-64027111D01*
X90652734Y-63915851D01*
X90652729Y-63915848D01*
X90479807Y-63838857D01*
X90479802Y-63838855D01*
X90334001Y-63807865D01*
X90294646Y-63799500D01*
X90105354Y-63799500D01*
X90072897Y-63806398D01*
X89920197Y-63838855D01*
X89920192Y-63838857D01*
X89747270Y-63915848D01*
X89747265Y-63915851D01*
X89594129Y-64027111D01*
X89467466Y-64167785D01*
X89372821Y-64331715D01*
X89372818Y-64331722D01*
X89320510Y-64492712D01*
X89314326Y-64511744D01*
X89294540Y-64700000D01*
X89314326Y-64888256D01*
X89314327Y-64888259D01*
X89346469Y-64987182D01*
X89348464Y-65057023D01*
X89312384Y-65116856D01*
X89249683Y-65147684D01*
X89228538Y-65149500D01*
X88877130Y-65149500D01*
X88877120Y-65149501D01*
X88813248Y-65156367D01*
X88786742Y-65156367D01*
X88782483Y-65155909D01*
X88722873Y-65149500D01*
X88722864Y-65149500D01*
X88077129Y-65149500D01*
X88077125Y-65149501D01*
X88029160Y-65154657D01*
X88017517Y-65155909D01*
X88017516Y-65155909D01*
X88010904Y-65156620D01*
X87984393Y-65156619D01*
X87922842Y-65150000D01*
X87850000Y-65150000D01*
X87850000Y-65168590D01*
X87830315Y-65235629D01*
X87800313Y-65267856D01*
X87767449Y-65292458D01*
X87762181Y-65297727D01*
X87700858Y-65331212D01*
X87631166Y-65326228D01*
X87575233Y-65284356D01*
X87550816Y-65218892D01*
X87550500Y-65210046D01*
X87550500Y-64220711D01*
X87570185Y-64153672D01*
X87622989Y-64107917D01*
X87692147Y-64097973D01*
X87700263Y-64099418D01*
X87705354Y-64100500D01*
X87705357Y-64100500D01*
X87894644Y-64100500D01*
X87894646Y-64100500D01*
X88079803Y-64061144D01*
X88252730Y-63984151D01*
X88405871Y-63872888D01*
X88532533Y-63732216D01*
X88627179Y-63568284D01*
X88685674Y-63388256D01*
X88705460Y-63200000D01*
X88685674Y-63011744D01*
X88627179Y-62831716D01*
X88532533Y-62667784D01*
X88405871Y-62527112D01*
X88405870Y-62527111D01*
X88252734Y-62415851D01*
X88252729Y-62415848D01*
X88079807Y-62338857D01*
X88079802Y-62338855D01*
X87934001Y-62307865D01*
X87894646Y-62299500D01*
X87705354Y-62299500D01*
X87705349Y-62299500D01*
X87700276Y-62300578D01*
X87630609Y-62295259D01*
X87574877Y-62253120D01*
X87550775Y-62187539D01*
X87550500Y-62179287D01*
X87550500Y-60570921D01*
X87570185Y-60503882D01*
X87582351Y-60487948D01*
X87632533Y-60432216D01*
X87727179Y-60268284D01*
X87785674Y-60088256D01*
X87805460Y-59900000D01*
X87785674Y-59711744D01*
X87727179Y-59531716D01*
X87632533Y-59367784D01*
X87505871Y-59227112D01*
X87505870Y-59227111D01*
X87352734Y-59115851D01*
X87352729Y-59115848D01*
X87179807Y-59038857D01*
X87179802Y-59038855D01*
X87114669Y-59025011D01*
X87053187Y-58991818D01*
X87052769Y-58991402D01*
X86872332Y-58810965D01*
X86675729Y-58614361D01*
X86663949Y-58600730D01*
X86650503Y-58582669D01*
X86649612Y-58581472D01*
X86643724Y-58576531D01*
X86609587Y-58547886D01*
X86605612Y-58544244D01*
X86602690Y-58541322D01*
X86599780Y-58538411D01*
X86574040Y-58518059D01*
X86553114Y-58500500D01*
X86515214Y-58468698D01*
X86515213Y-58468697D01*
X86515209Y-58468694D01*
X86509180Y-58464729D01*
X86509212Y-58464680D01*
X86502853Y-58460628D01*
X86502822Y-58460679D01*
X86496680Y-58456891D01*
X86496678Y-58456890D01*
X86496677Y-58456889D01*
X86457474Y-58438608D01*
X86427058Y-58424424D01*
X86373052Y-58397302D01*
X86358433Y-58389960D01*
X86358431Y-58389959D01*
X86358430Y-58389959D01*
X86351645Y-58387489D01*
X86351665Y-58387433D01*
X86344549Y-58384959D01*
X86344531Y-58385015D01*
X86337670Y-58382741D01*
X86279756Y-58370783D01*
X86262434Y-58367207D01*
X86254074Y-58365225D01*
X86240509Y-58362010D01*
X86179818Y-58327394D01*
X86147476Y-58265460D01*
X86153752Y-58195873D01*
X86194799Y-58142088D01*
X86207546Y-58132546D01*
X86232143Y-58099687D01*
X86288076Y-58057818D01*
X86331409Y-58050000D01*
X86350000Y-58050000D01*
X86350000Y-57977172D01*
X86349999Y-57977160D01*
X86343380Y-57915604D01*
X86343380Y-57889090D01*
X86344090Y-57882485D01*
X86344091Y-57882483D01*
X86350500Y-57822873D01*
X86350499Y-57275611D01*
X86370183Y-57208573D01*
X86422987Y-57162818D01*
X86470889Y-57151664D01*
X86509201Y-57150549D01*
X86510918Y-57150500D01*
X87386295Y-57150500D01*
X87404265Y-57151809D01*
X87428023Y-57155289D01*
X87480068Y-57150735D01*
X87485470Y-57150500D01*
X87493704Y-57150500D01*
X87493709Y-57150500D01*
X87505327Y-57149141D01*
X87526276Y-57146693D01*
X87539028Y-57145577D01*
X87602797Y-57139999D01*
X87602805Y-57139996D01*
X87609866Y-57138539D01*
X87609878Y-57138598D01*
X87617243Y-57136965D01*
X87617229Y-57136906D01*
X87624246Y-57135241D01*
X87624255Y-57135241D01*
X87696423Y-57108974D01*
X87769334Y-57084814D01*
X87769343Y-57084807D01*
X87775882Y-57081760D01*
X87775908Y-57081816D01*
X87782690Y-57078532D01*
X87782663Y-57078478D01*
X87789106Y-57075240D01*
X87789117Y-57075237D01*
X87853283Y-57033034D01*
X87918656Y-56992712D01*
X87918662Y-56992705D01*
X87924325Y-56988229D01*
X87924363Y-56988277D01*
X87930200Y-56983522D01*
X87930161Y-56983475D01*
X87935696Y-56978830D01*
X87988385Y-56922983D01*
X88043915Y-56867452D01*
X88085641Y-56825725D01*
X88099271Y-56813947D01*
X88118530Y-56799610D01*
X88152101Y-56759601D01*
X88155761Y-56755606D01*
X88161590Y-56749778D01*
X88181941Y-56724039D01*
X88202532Y-56699500D01*
X88231302Y-56665214D01*
X88231306Y-56665205D01*
X88235274Y-56659175D01*
X88235325Y-56659208D01*
X88239372Y-56652856D01*
X88239320Y-56652824D01*
X88243112Y-56646675D01*
X88275575Y-56577058D01*
X88293116Y-56542128D01*
X88310040Y-56508433D01*
X88310042Y-56508421D01*
X88312509Y-56501646D01*
X88312567Y-56501667D01*
X88315043Y-56494546D01*
X88314986Y-56494528D01*
X88317257Y-56487673D01*
X88332792Y-56412434D01*
X88348562Y-56345901D01*
X88383177Y-56285209D01*
X88445110Y-56252865D01*
X88469219Y-56250499D01*
X88722871Y-56250499D01*
X88722872Y-56250499D01*
X88782483Y-56244091D01*
X88782486Y-56244089D01*
X88786744Y-56243632D01*
X88813254Y-56243632D01*
X88817514Y-56244089D01*
X88817517Y-56244091D01*
X88877127Y-56250500D01*
X89522872Y-56250499D01*
X89582483Y-56244091D01*
X89582483Y-56244090D01*
X89589096Y-56243380D01*
X89615607Y-56243381D01*
X89677157Y-56249999D01*
X89677172Y-56250000D01*
X89750000Y-56250000D01*
X89750000Y-56231409D01*
X89769685Y-56164370D01*
X89799691Y-56132141D01*
X89823438Y-56114364D01*
X89832546Y-56107546D01*
X89900734Y-56016457D01*
X89922720Y-56000000D01*
X90082024Y-56000000D01*
X90087681Y-56003089D01*
X90099261Y-56016452D01*
X90167454Y-56107546D01*
X90167455Y-56107547D01*
X90200309Y-56132141D01*
X90242181Y-56188074D01*
X90250000Y-56231409D01*
X90250000Y-56250000D01*
X90322828Y-56250000D01*
X90322839Y-56249999D01*
X90384395Y-56243380D01*
X90410909Y-56243380D01*
X90417514Y-56244090D01*
X90417517Y-56244091D01*
X90477127Y-56250500D01*
X90572538Y-56250499D01*
X90639575Y-56270183D01*
X90685331Y-56322986D01*
X90695858Y-56387459D01*
X90694540Y-56400000D01*
X90714326Y-56588256D01*
X90714327Y-56588259D01*
X90772818Y-56768277D01*
X90772821Y-56768284D01*
X90867467Y-56932216D01*
X90958244Y-57033034D01*
X90994129Y-57072888D01*
X91147265Y-57184148D01*
X91147270Y-57184151D01*
X91320192Y-57261142D01*
X91320197Y-57261144D01*
X91505354Y-57300500D01*
X91505355Y-57300500D01*
X91694644Y-57300500D01*
X91694646Y-57300500D01*
X91879803Y-57261144D01*
X92052730Y-57184151D01*
X92205871Y-57072888D01*
X92332533Y-56932216D01*
X92427179Y-56768284D01*
X92485674Y-56588256D01*
X92505460Y-56400000D01*
X92504142Y-56387459D01*
X92516712Y-56318730D01*
X92564445Y-56267706D01*
X92627463Y-56250499D01*
X92722871Y-56250499D01*
X92722872Y-56250499D01*
X92782483Y-56244091D01*
X92782486Y-56244089D01*
X92786744Y-56243632D01*
X92813254Y-56243632D01*
X92817514Y-56244089D01*
X92817517Y-56244091D01*
X92877127Y-56250500D01*
X93522872Y-56250499D01*
X93582483Y-56244091D01*
X93582483Y-56244090D01*
X93589096Y-56243380D01*
X93615607Y-56243381D01*
X93677157Y-56249999D01*
X93677172Y-56250000D01*
X93750000Y-56250000D01*
X93750000Y-56231409D01*
X93769685Y-56164370D01*
X93799691Y-56132141D01*
X93823438Y-56114364D01*
X93832546Y-56107546D01*
X93900734Y-56016457D01*
X93922720Y-56000000D01*
X94082024Y-56000000D01*
X94087681Y-56003089D01*
X94099261Y-56016452D01*
X94167454Y-56107546D01*
X94167455Y-56107547D01*
X94200309Y-56132141D01*
X94242181Y-56188074D01*
X94250000Y-56231409D01*
X94250000Y-56250000D01*
X94322828Y-56250000D01*
X94322839Y-56249999D01*
X94384395Y-56243380D01*
X94410909Y-56243380D01*
X94417514Y-56244090D01*
X94417517Y-56244091D01*
X94477127Y-56250500D01*
X95122872Y-56250499D01*
X95126000Y-56250499D01*
X95193039Y-56270183D01*
X95238794Y-56322987D01*
X95250000Y-56374499D01*
X95250000Y-56450000D01*
X96250000Y-56450000D01*
X96250000Y-55925000D01*
X96750000Y-55925000D01*
X96750000Y-56450000D01*
X97750000Y-56450000D01*
X97750000Y-56377172D01*
X97749999Y-56377155D01*
X97743598Y-56317627D01*
X97743596Y-56317620D01*
X97693354Y-56182913D01*
X97693350Y-56182906D01*
X97607190Y-56067812D01*
X97607187Y-56067809D01*
X97492093Y-55981649D01*
X97492086Y-55981645D01*
X97357379Y-55931403D01*
X97357372Y-55931401D01*
X97297844Y-55925000D01*
X96750000Y-55925000D01*
X96250000Y-55925000D01*
X95699500Y-55925000D01*
X95632461Y-55905315D01*
X95586706Y-55852511D01*
X95575500Y-55801000D01*
X95575500Y-55545328D01*
X95575499Y-55273997D01*
X95595183Y-55206961D01*
X95600286Y-55199618D01*
X97363713Y-52848381D01*
X97397809Y-52817250D01*
X97518656Y-52742712D01*
X97642712Y-52618656D01*
X97734814Y-52469334D01*
X97789999Y-52302797D01*
X97791123Y-52297546D01*
X97813175Y-52249099D01*
X97962800Y-52049600D01*
X98018772Y-52007779D01*
X98062000Y-52000000D01*
X98240247Y-52000000D01*
X98307286Y-52019685D01*
G37*
%TD.AperFunction*%
%TA.AperFunction,Conductor*%
G36*
X102015677Y-52019685D02*
G01*
X102036319Y-52036319D01*
X102086690Y-52086690D01*
X102120175Y-52148013D01*
X102115191Y-52217705D01*
X102104550Y-52239464D01*
X102088001Y-52266295D01*
X102087996Y-52266305D01*
X102034651Y-52427290D01*
X102024500Y-52526647D01*
X102024500Y-53073337D01*
X102024501Y-53073355D01*
X102034650Y-53172707D01*
X102034651Y-53172710D01*
X102087996Y-53333694D01*
X102088001Y-53333705D01*
X102177029Y-53478040D01*
X102177032Y-53478044D01*
X102186660Y-53487672D01*
X102220145Y-53548995D01*
X102215161Y-53618687D01*
X102186663Y-53663031D01*
X102177428Y-53672265D01*
X102177424Y-53672271D01*
X102088457Y-53816507D01*
X102088452Y-53816518D01*
X102035144Y-53977393D01*
X102025000Y-54076677D01*
X102025000Y-54100000D01*
X103995929Y-54100000D01*
X104011135Y-54091696D01*
X104080827Y-54096677D01*
X104125180Y-54125180D01*
X104963681Y-54963681D01*
X104997166Y-55025004D01*
X105000000Y-55051362D01*
X105000000Y-56258960D01*
X104980315Y-56325999D01*
X104927511Y-56371754D01*
X104858353Y-56381698D01*
X104804876Y-56360535D01*
X104677578Y-56271400D01*
X104463492Y-56171570D01*
X104463486Y-56171567D01*
X104250000Y-56114364D01*
X104250000Y-57009498D01*
X104142315Y-56960320D01*
X104035763Y-56945000D01*
X103964237Y-56945000D01*
X103857685Y-56960320D01*
X103750000Y-57009498D01*
X103750000Y-56114364D01*
X103749999Y-56114364D01*
X103536513Y-56171567D01*
X103536507Y-56171570D01*
X103322422Y-56271399D01*
X103322420Y-56271400D01*
X103128926Y-56406886D01*
X103128920Y-56406891D01*
X102961891Y-56573920D01*
X102961886Y-56573926D01*
X102826400Y-56767420D01*
X102826399Y-56767422D01*
X102726570Y-56981507D01*
X102726567Y-56981513D01*
X102669364Y-57194999D01*
X102669364Y-57195000D01*
X103566314Y-57195000D01*
X103540507Y-57235156D01*
X103500000Y-57373111D01*
X103500000Y-57516889D01*
X103540507Y-57654844D01*
X103566314Y-57695000D01*
X102669364Y-57695000D01*
X102726567Y-57908486D01*
X102726570Y-57908492D01*
X102826399Y-58122578D01*
X102961894Y-58316082D01*
X103128917Y-58483105D01*
X103314595Y-58613119D01*
X103358219Y-58667696D01*
X103365412Y-58737195D01*
X103333890Y-58799549D01*
X103314595Y-58816269D01*
X103128594Y-58946508D01*
X102961505Y-59113597D01*
X102825965Y-59307169D01*
X102825964Y-59307171D01*
X102726098Y-59521335D01*
X102726094Y-59521344D01*
X102664938Y-59749586D01*
X102664936Y-59749596D01*
X102652932Y-59886808D01*
X102627479Y-59951876D01*
X102570889Y-59992855D01*
X102529404Y-60000000D01*
X102337730Y-60000000D01*
X102270691Y-59980315D01*
X102250049Y-59963681D01*
X102143657Y-59857289D01*
X102143656Y-59857288D01*
X102140342Y-59855243D01*
X102138546Y-59853248D01*
X102137989Y-59852807D01*
X102138064Y-59852711D01*
X102093618Y-59803297D01*
X102082397Y-59734334D01*
X102110240Y-59670252D01*
X102140348Y-59644165D01*
X102143342Y-59642318D01*
X102267315Y-59518345D01*
X102359356Y-59369124D01*
X102359358Y-59369119D01*
X102414505Y-59202697D01*
X102414506Y-59202690D01*
X102424999Y-59099986D01*
X102425000Y-59099973D01*
X102425000Y-59050000D01*
X99975001Y-59050000D01*
X99975001Y-59099986D01*
X99985494Y-59202697D01*
X100040641Y-59369119D01*
X100040643Y-59369124D01*
X100132684Y-59518345D01*
X100202158Y-59587819D01*
X100235643Y-59649142D01*
X100230659Y-59718834D01*
X100188787Y-59774767D01*
X100123323Y-59799184D01*
X100114477Y-59799500D01*
X99486423Y-59799500D01*
X99419384Y-59779815D01*
X99373629Y-59727011D01*
X99367564Y-59708690D01*
X99367479Y-59708719D01*
X99345476Y-59642318D01*
X99312003Y-59541303D01*
X99311999Y-59541297D01*
X99311998Y-59541294D01*
X99222970Y-59396959D01*
X99222967Y-59396955D01*
X99213693Y-59387681D01*
X99180208Y-59326358D01*
X99185192Y-59256666D01*
X99213693Y-59212319D01*
X99222968Y-59203044D01*
X99312003Y-59058697D01*
X99365349Y-58897708D01*
X99375500Y-58798345D01*
X99375500Y-58550000D01*
X99975000Y-58550000D01*
X100950000Y-58550000D01*
X100950000Y-57800000D01*
X101450000Y-57800000D01*
X101450000Y-58550000D01*
X102424999Y-58550000D01*
X102424999Y-58500028D01*
X102424998Y-58500013D01*
X102414505Y-58397302D01*
X102359358Y-58230880D01*
X102359356Y-58230875D01*
X102267315Y-58081654D01*
X102143345Y-57957684D01*
X101994124Y-57865643D01*
X101994119Y-57865641D01*
X101827697Y-57810494D01*
X101827690Y-57810493D01*
X101724986Y-57800000D01*
X101450000Y-57800000D01*
X100950000Y-57800000D01*
X100675029Y-57800000D01*
X100675012Y-57800001D01*
X100572302Y-57810494D01*
X100405880Y-57865641D01*
X100405875Y-57865643D01*
X100256654Y-57957684D01*
X100132684Y-58081654D01*
X100040643Y-58230875D01*
X100040641Y-58230880D01*
X99985494Y-58397302D01*
X99985493Y-58397309D01*
X99975000Y-58500013D01*
X99975000Y-58550000D01*
X99375500Y-58550000D01*
X99375499Y-58251656D01*
X99372142Y-58218796D01*
X99365349Y-58152292D01*
X99365348Y-58152289D01*
X99358806Y-58132546D01*
X99312003Y-57991303D01*
X99311999Y-57991297D01*
X99311998Y-57991294D01*
X99222970Y-57846959D01*
X99222967Y-57846955D01*
X99112692Y-57736680D01*
X99079207Y-57675357D01*
X99084191Y-57605665D01*
X99126063Y-57549732D01*
X99191527Y-57525315D01*
X99200373Y-57524999D01*
X99749999Y-57524999D01*
X99750000Y-57524998D01*
X99750000Y-56483597D01*
X99826455Y-56510350D01*
X99956476Y-56525000D01*
X100043524Y-56525000D01*
X100173545Y-56510350D01*
X100250000Y-56483597D01*
X100250000Y-57524999D01*
X101074972Y-57524999D01*
X101074986Y-57524998D01*
X101177696Y-57514505D01*
X101177698Y-57514505D01*
X101344119Y-57459359D01*
X101344130Y-57459354D01*
X101493340Y-57367319D01*
X101493344Y-57367316D01*
X101617316Y-57243344D01*
X101617319Y-57243340D01*
X101709354Y-57094130D01*
X101709359Y-57094119D01*
X101764505Y-56927697D01*
X101774999Y-56824986D01*
X101775000Y-56824973D01*
X101775000Y-56000000D01*
X100733597Y-56000000D01*
X100760350Y-55923545D01*
X100779904Y-55750000D01*
X100760350Y-55576455D01*
X100733597Y-55500000D01*
X101774999Y-55500000D01*
X101774999Y-54675028D01*
X101774998Y-54675013D01*
X101767335Y-54600000D01*
X102025001Y-54600000D01*
X102025001Y-54623322D01*
X102035144Y-54722607D01*
X102088452Y-54883481D01*
X102088457Y-54883492D01*
X102177424Y-55027728D01*
X102177427Y-55027732D01*
X102297267Y-55147572D01*
X102297271Y-55147575D01*
X102441507Y-55236542D01*
X102441518Y-55236547D01*
X102602393Y-55289855D01*
X102701683Y-55299999D01*
X102749999Y-55299998D01*
X102750000Y-55299998D01*
X102750000Y-54600000D01*
X103250000Y-54600000D01*
X103250000Y-55299999D01*
X103298308Y-55299999D01*
X103298322Y-55299998D01*
X103397607Y-55289855D01*
X103558481Y-55236547D01*
X103558492Y-55236542D01*
X103702728Y-55147575D01*
X103702732Y-55147572D01*
X103822572Y-55027732D01*
X103822575Y-55027728D01*
X103911542Y-54883492D01*
X103911547Y-54883481D01*
X103964855Y-54722606D01*
X103974999Y-54623322D01*
X103975000Y-54623309D01*
X103975000Y-54600000D01*
X103250000Y-54600000D01*
X102750000Y-54600000D01*
X102025001Y-54600000D01*
X101767335Y-54600000D01*
X101764505Y-54572303D01*
X101764505Y-54572301D01*
X101709359Y-54405880D01*
X101709354Y-54405869D01*
X101617319Y-54256659D01*
X101617316Y-54256655D01*
X101493344Y-54132683D01*
X101493340Y-54132680D01*
X101344130Y-54040645D01*
X101344119Y-54040640D01*
X101173239Y-53984016D01*
X101115794Y-53944243D01*
X101088971Y-53879727D01*
X101101286Y-53810952D01*
X101148829Y-53759752D01*
X101173235Y-53748605D01*
X101283697Y-53712003D01*
X101428044Y-53622968D01*
X101547968Y-53503044D01*
X101637003Y-53358697D01*
X101690349Y-53197708D01*
X101700500Y-53098345D01*
X101700499Y-52501656D01*
X101690349Y-52402292D01*
X101656794Y-52301028D01*
X101650500Y-52262024D01*
X101650500Y-52124000D01*
X101670185Y-52056961D01*
X101722989Y-52011206D01*
X101774500Y-52000000D01*
X101948638Y-52000000D01*
X102015677Y-52019685D01*
G37*
%TD.AperFunction*%
%TA.AperFunction,Conductor*%
G36*
X100017971Y-53584835D02*
G01*
X100062327Y-53613339D01*
X100071955Y-53622967D01*
X100071959Y-53622970D01*
X100216294Y-53711998D01*
X100216297Y-53711999D01*
X100216303Y-53712003D01*
X100280556Y-53733294D01*
X100338001Y-53773067D01*
X100364824Y-53837583D01*
X100352509Y-53906358D01*
X100304966Y-53957558D01*
X100253205Y-53971794D01*
X100250000Y-53975000D01*
X100250000Y-55016402D01*
X100173545Y-54989650D01*
X100043524Y-54975000D01*
X99956476Y-54975000D01*
X99826455Y-54989650D01*
X99750000Y-55016402D01*
X99750000Y-53975000D01*
X99706858Y-53975000D01*
X99639819Y-53955315D01*
X99594064Y-53902511D01*
X99584120Y-53833353D01*
X99613145Y-53769797D01*
X99667854Y-53733294D01*
X99733481Y-53711547D01*
X99733492Y-53711542D01*
X99877731Y-53622573D01*
X99886959Y-53613345D01*
X99948279Y-53579856D01*
X100017971Y-53584835D01*
G37*
%TD.AperFunction*%
%TD*%
%TA.AperFunction,Conductor*%
%TO.N,GND*%
G36*
X105503455Y-51000889D02*
G01*
X105516485Y-51002357D01*
X105526354Y-51003470D01*
X105568982Y-51009081D01*
X105605831Y-51013932D01*
X105630599Y-51019830D01*
X105664736Y-51031775D01*
X105667976Y-51033011D01*
X105722195Y-51055469D01*
X105740695Y-51065027D01*
X105775520Y-51086909D01*
X105780267Y-51090212D01*
X105828200Y-51126993D01*
X105834295Y-51132337D01*
X105867660Y-51165702D01*
X105873005Y-51171798D01*
X105909786Y-51219731D01*
X105913097Y-51224490D01*
X105934967Y-51259296D01*
X105944536Y-51277818D01*
X105966983Y-51332014D01*
X105968223Y-51335263D01*
X105980169Y-51369401D01*
X105986066Y-51394169D01*
X105996530Y-51473647D01*
X105999110Y-51496538D01*
X105999500Y-51503486D01*
X105999500Y-70524877D01*
X105979815Y-70591916D01*
X105927011Y-70637671D01*
X105857853Y-70647615D01*
X105794297Y-70618590D01*
X105757794Y-70563882D01*
X105746857Y-70530878D01*
X105746856Y-70530875D01*
X105654815Y-70381654D01*
X105563309Y-70290148D01*
X105529824Y-70228825D01*
X105534808Y-70159133D01*
X105544259Y-70139345D01*
X105576281Y-70085198D01*
X105576283Y-70085193D01*
X105622099Y-69927495D01*
X105622100Y-69927489D01*
X105625000Y-69890644D01*
X105625000Y-69487500D01*
X105075000Y-69487500D01*
X105075000Y-70438638D01*
X105055315Y-70505677D01*
X105050000Y-70512272D01*
X105050000Y-72499999D01*
X105112472Y-72499999D01*
X105112486Y-72499998D01*
X105215197Y-72489505D01*
X105381619Y-72434358D01*
X105381624Y-72434356D01*
X105530845Y-72342315D01*
X105654815Y-72218345D01*
X105746856Y-72069124D01*
X105746859Y-72069117D01*
X105757794Y-72036118D01*
X105797566Y-71978673D01*
X105862082Y-71951849D01*
X105930857Y-71964164D01*
X105982058Y-72011706D01*
X105999500Y-72075121D01*
X105999500Y-72996514D01*
X105999110Y-73003462D01*
X105996530Y-73026351D01*
X105986066Y-73105829D01*
X105980169Y-73130597D01*
X105968223Y-73164735D01*
X105966983Y-73167984D01*
X105944536Y-73222180D01*
X105934967Y-73240702D01*
X105913097Y-73275508D01*
X105909786Y-73280267D01*
X105873005Y-73328200D01*
X105867653Y-73334304D01*
X105834304Y-73367653D01*
X105828200Y-73373005D01*
X105780267Y-73409786D01*
X105775508Y-73413097D01*
X105740702Y-73434967D01*
X105722180Y-73444536D01*
X105667984Y-73466983D01*
X105664735Y-73468223D01*
X105630597Y-73480169D01*
X105605829Y-73486066D01*
X105526351Y-73496530D01*
X105505688Y-73498859D01*
X105503460Y-73499110D01*
X105496514Y-73499500D01*
X105443600Y-73499500D01*
X105333649Y-73524596D01*
X105232033Y-73573532D01*
X105232030Y-73573533D01*
X105143854Y-73643854D01*
X105073533Y-73732030D01*
X105073532Y-73732033D01*
X105024596Y-73833649D01*
X104999500Y-73943600D01*
X104999500Y-77556399D01*
X105024596Y-77666350D01*
X105073532Y-77767966D01*
X105073533Y-77767969D01*
X105099398Y-77800401D01*
X105143854Y-77856146D01*
X105180710Y-77885538D01*
X105232030Y-77926466D01*
X105232033Y-77926467D01*
X105333649Y-77975403D01*
X105443600Y-78000499D01*
X105443605Y-78000499D01*
X105443607Y-78000500D01*
X105496518Y-78000500D01*
X105503455Y-78000889D01*
X105516485Y-78002357D01*
X105526354Y-78003470D01*
X105568982Y-78009081D01*
X105605831Y-78013932D01*
X105630599Y-78019830D01*
X105664736Y-78031775D01*
X105667976Y-78033011D01*
X105722195Y-78055469D01*
X105740695Y-78065027D01*
X105775520Y-78086909D01*
X105780267Y-78090212D01*
X105828200Y-78126993D01*
X105834295Y-78132337D01*
X105867660Y-78165702D01*
X105873005Y-78171798D01*
X105909786Y-78219731D01*
X105913097Y-78224490D01*
X105934967Y-78259296D01*
X105944536Y-78277818D01*
X105966983Y-78332014D01*
X105968223Y-78335263D01*
X105980169Y-78369401D01*
X105986066Y-78394169D01*
X105996530Y-78473647D01*
X105999110Y-78496538D01*
X105999500Y-78503486D01*
X105999500Y-82997975D01*
X105999367Y-83002032D01*
X105994017Y-83083648D01*
X105981015Y-83265438D01*
X105979980Y-83273118D01*
X105956846Y-83389420D01*
X105925472Y-83533646D01*
X105923597Y-83540401D01*
X105883197Y-83659418D01*
X105878893Y-83670956D01*
X105833841Y-83791741D01*
X105831355Y-83797499D01*
X105774421Y-83912952D01*
X105707828Y-84034907D01*
X105704961Y-84039641D01*
X105633461Y-84146649D01*
X105631543Y-84149359D01*
X105549744Y-84258631D01*
X105546723Y-84262357D01*
X105461529Y-84359502D01*
X105458755Y-84362464D01*
X105362464Y-84458755D01*
X105359502Y-84461529D01*
X105262357Y-84546723D01*
X105258631Y-84549744D01*
X105149359Y-84631543D01*
X105146649Y-84633461D01*
X105039641Y-84704961D01*
X105034907Y-84707828D01*
X104912952Y-84774421D01*
X104797499Y-84831355D01*
X104791741Y-84833841D01*
X104670956Y-84878893D01*
X104659418Y-84883197D01*
X104540401Y-84923597D01*
X104533646Y-84925472D01*
X104389406Y-84956849D01*
X104384668Y-84957791D01*
X104315078Y-84951548D01*
X104259910Y-84908672D01*
X104236680Y-84842777D01*
X104252764Y-84774784D01*
X104285016Y-84737794D01*
X104399754Y-84649754D01*
X104479889Y-84545319D01*
X104489596Y-84532669D01*
X104546074Y-84396320D01*
X104565337Y-84250000D01*
X104561030Y-84217289D01*
X104560500Y-84209191D01*
X104560500Y-82790808D01*
X104561031Y-82782706D01*
X104565337Y-82749999D01*
X104565337Y-82749998D01*
X104546074Y-82603681D01*
X104546074Y-82603680D01*
X104489596Y-82467332D01*
X104489596Y-82467331D01*
X104399756Y-82350247D01*
X104356050Y-82316711D01*
X104282668Y-82260403D01*
X104146320Y-82203926D01*
X104146318Y-82203925D01*
X104000001Y-82184663D01*
X104000000Y-82184663D01*
X103967290Y-82188969D01*
X103959192Y-82189500D01*
X99540808Y-82189500D01*
X99532709Y-82188969D01*
X99500000Y-82184663D01*
X99467290Y-82188969D01*
X99459192Y-82189500D01*
X98040808Y-82189500D01*
X98032709Y-82188969D01*
X98000000Y-82184663D01*
X97999999Y-82184663D01*
X97853681Y-82203925D01*
X97853679Y-82203926D01*
X97717331Y-82260403D01*
X97600247Y-82350243D01*
X97510403Y-82467331D01*
X97453926Y-82603679D01*
X97453925Y-82603681D01*
X97434663Y-82749998D01*
X97434663Y-82749999D01*
X97438969Y-82782706D01*
X97439500Y-82790808D01*
X97439500Y-84209191D01*
X97438969Y-84217293D01*
X97434663Y-84249999D01*
X97434663Y-84250000D01*
X97439500Y-84286741D01*
X97453925Y-84396318D01*
X97453926Y-84396320D01*
X97510403Y-84532668D01*
X97600243Y-84649752D01*
X97717331Y-84739596D01*
X97768857Y-84760939D01*
X97823260Y-84804780D01*
X97845325Y-84871074D01*
X97828046Y-84938773D01*
X97776909Y-84986384D01*
X97721404Y-84999500D01*
X80575599Y-84999500D01*
X80508560Y-84979815D01*
X80462805Y-84927011D01*
X80452861Y-84857853D01*
X80481886Y-84794297D01*
X80502713Y-84775183D01*
X80503954Y-84774280D01*
X80505871Y-84772888D01*
X80632533Y-84632216D01*
X80727179Y-84468284D01*
X80785674Y-84288256D01*
X80805460Y-84100000D01*
X80788402Y-83937706D01*
X80800971Y-83868980D01*
X80848703Y-83817956D01*
X80916444Y-83800838D01*
X80974843Y-83818015D01*
X80989602Y-83826744D01*
X81031224Y-83838836D01*
X81147426Y-83872597D01*
X81147429Y-83872597D01*
X81147431Y-83872598D01*
X81159722Y-83873565D01*
X81184304Y-83875500D01*
X81184306Y-83875500D01*
X81615696Y-83875500D01*
X81634131Y-83874049D01*
X81652569Y-83872598D01*
X81652571Y-83872597D01*
X81652573Y-83872597D01*
X81694191Y-83860505D01*
X81810398Y-83826744D01*
X81951865Y-83743081D01*
X81951870Y-83743076D01*
X81958128Y-83736819D01*
X82019451Y-83703334D01*
X82045809Y-83700500D01*
X82790696Y-83700500D01*
X82809131Y-83699049D01*
X82827569Y-83697598D01*
X82827571Y-83697597D01*
X82827573Y-83697597D01*
X82972733Y-83655424D01*
X83007328Y-83650500D01*
X93936295Y-83650500D01*
X93954265Y-83651809D01*
X93978023Y-83655289D01*
X94030068Y-83650735D01*
X94035470Y-83650500D01*
X94043704Y-83650500D01*
X94043709Y-83650500D01*
X94055327Y-83649141D01*
X94076276Y-83646693D01*
X94089028Y-83645577D01*
X94152797Y-83639999D01*
X94152805Y-83639996D01*
X94159866Y-83638539D01*
X94159878Y-83638598D01*
X94167243Y-83636965D01*
X94167229Y-83636906D01*
X94174246Y-83635241D01*
X94174255Y-83635241D01*
X94246423Y-83608974D01*
X94319334Y-83584814D01*
X94319343Y-83584807D01*
X94325882Y-83581760D01*
X94325908Y-83581816D01*
X94332690Y-83578532D01*
X94332663Y-83578478D01*
X94339106Y-83575240D01*
X94339117Y-83575237D01*
X94403283Y-83533034D01*
X94468656Y-83492712D01*
X94468662Y-83492705D01*
X94474325Y-83488229D01*
X94474363Y-83488277D01*
X94480200Y-83483522D01*
X94480161Y-83483475D01*
X94485696Y-83478830D01*
X94538385Y-83422983D01*
X95357688Y-82603679D01*
X95645642Y-82315724D01*
X95659271Y-82303947D01*
X95678530Y-82289610D01*
X95712101Y-82249601D01*
X95715761Y-82245606D01*
X95721590Y-82239778D01*
X95741941Y-82214039D01*
X95762532Y-82189500D01*
X95791302Y-82155214D01*
X95791306Y-82155205D01*
X95795274Y-82149175D01*
X95795325Y-82149208D01*
X95799372Y-82142856D01*
X95799320Y-82142824D01*
X95803112Y-82136675D01*
X95835575Y-82067058D01*
X95855687Y-82027011D01*
X95870040Y-81998433D01*
X95870042Y-81998421D01*
X95872509Y-81991646D01*
X95872567Y-81991667D01*
X95875043Y-81984546D01*
X95874986Y-81984527D01*
X95877255Y-81977680D01*
X95877256Y-81977675D01*
X95877257Y-81977673D01*
X95892791Y-81902437D01*
X95910500Y-81827721D01*
X95910500Y-81827719D01*
X95911339Y-81820548D01*
X95911398Y-81820554D01*
X95912164Y-81813054D01*
X95912105Y-81813049D01*
X95912734Y-81805859D01*
X95910500Y-81729082D01*
X95910500Y-81187700D01*
X95930185Y-81120661D01*
X95963375Y-81086126D01*
X96031401Y-81038495D01*
X96198495Y-80871401D01*
X96334035Y-80677830D01*
X96433903Y-80463663D01*
X96495063Y-80235408D01*
X96515659Y-80000000D01*
X96495063Y-79764592D01*
X96442408Y-79568079D01*
X96433905Y-79536344D01*
X96433904Y-79536343D01*
X96433903Y-79536337D01*
X96334035Y-79322171D01*
X96328731Y-79314595D01*
X96198494Y-79128597D01*
X96132078Y-79062181D01*
X96098593Y-79000858D01*
X96103577Y-78931166D01*
X96145449Y-78875233D01*
X96210913Y-78850816D01*
X96219759Y-78850500D01*
X102136295Y-78850500D01*
X102154265Y-78851809D01*
X102178023Y-78855289D01*
X102230068Y-78850735D01*
X102235470Y-78850500D01*
X102243704Y-78850500D01*
X102243709Y-78850500D01*
X102255327Y-78849141D01*
X102276276Y-78846693D01*
X102289028Y-78845577D01*
X102352797Y-78839999D01*
X102352805Y-78839996D01*
X102359866Y-78838539D01*
X102359878Y-78838598D01*
X102367243Y-78836965D01*
X102367229Y-78836906D01*
X102374246Y-78835241D01*
X102374255Y-78835241D01*
X102446423Y-78808974D01*
X102519334Y-78784814D01*
X102519343Y-78784807D01*
X102525882Y-78781760D01*
X102525908Y-78781816D01*
X102532690Y-78778532D01*
X102532663Y-78778478D01*
X102539106Y-78775240D01*
X102539117Y-78775237D01*
X102603283Y-78733034D01*
X102668656Y-78692712D01*
X102668662Y-78692705D01*
X102674325Y-78688229D01*
X102674363Y-78688277D01*
X102680200Y-78683522D01*
X102680161Y-78683475D01*
X102685696Y-78678830D01*
X102738385Y-78622983D01*
X103832511Y-77528856D01*
X104198142Y-77163224D01*
X104211771Y-77151447D01*
X104231030Y-77137110D01*
X104264601Y-77097101D01*
X104268261Y-77093106D01*
X104274090Y-77087278D01*
X104294441Y-77061539D01*
X104308463Y-77044828D01*
X104343802Y-77002714D01*
X104343806Y-77002705D01*
X104347774Y-76996675D01*
X104347825Y-76996708D01*
X104351872Y-76990356D01*
X104351820Y-76990324D01*
X104355612Y-76984175D01*
X104388075Y-76914558D01*
X104416460Y-76858039D01*
X104422540Y-76845933D01*
X104422542Y-76845921D01*
X104425009Y-76839146D01*
X104425067Y-76839167D01*
X104427543Y-76832046D01*
X104427486Y-76832028D01*
X104429757Y-76825173D01*
X104445292Y-76749934D01*
X104462998Y-76675228D01*
X104463000Y-76675221D01*
X104463000Y-76675210D01*
X104463838Y-76668048D01*
X104463898Y-76668055D01*
X104464664Y-76660555D01*
X104464605Y-76660550D01*
X104465234Y-76653360D01*
X104463000Y-76576583D01*
X104463000Y-75712670D01*
X104479613Y-75650670D01*
X104497004Y-75620548D01*
X104527179Y-75568284D01*
X104585674Y-75388256D01*
X104605460Y-75200000D01*
X104585674Y-75011744D01*
X104527179Y-74831716D01*
X104511603Y-74804739D01*
X104495130Y-74736840D01*
X104517982Y-74670813D01*
X104531307Y-74655060D01*
X104567712Y-74618656D01*
X104659814Y-74469334D01*
X104714999Y-74302797D01*
X104725500Y-74200009D01*
X104725499Y-73199992D01*
X104722229Y-73167984D01*
X104714999Y-73097203D01*
X104714998Y-73097200D01*
X104700062Y-73052126D01*
X104659814Y-72930666D01*
X104567712Y-72781344D01*
X104498047Y-72711679D01*
X104464562Y-72650356D01*
X104469546Y-72580664D01*
X104511418Y-72524731D01*
X104533506Y-72516492D01*
X104550000Y-72499998D01*
X104550000Y-70136362D01*
X104569685Y-70069323D01*
X104575000Y-70062727D01*
X104575000Y-69487500D01*
X104025000Y-69487500D01*
X104025000Y-69890644D01*
X104027899Y-69927489D01*
X104027900Y-69927495D01*
X104073716Y-70085193D01*
X104073718Y-70085198D01*
X104087160Y-70107927D01*
X104104343Y-70175651D01*
X104082183Y-70241914D01*
X104068109Y-70258729D01*
X103975534Y-70351304D01*
X103914211Y-70384789D01*
X103844519Y-70379805D01*
X103800172Y-70351304D01*
X103761819Y-70312951D01*
X103728334Y-70251628D01*
X103725500Y-70225270D01*
X103725500Y-68724500D01*
X103745185Y-68657461D01*
X103797989Y-68611706D01*
X103849500Y-68600500D01*
X103901000Y-68600500D01*
X103968039Y-68620185D01*
X104013794Y-68672989D01*
X104025000Y-68724500D01*
X104025000Y-68987500D01*
X104575000Y-68987500D01*
X104575000Y-68331814D01*
X104592267Y-68268694D01*
X104626744Y-68210398D01*
X104672598Y-68052569D01*
X104675500Y-68015694D01*
X104675500Y-68002703D01*
X105075000Y-68002703D01*
X105075000Y-68987500D01*
X105625000Y-68987500D01*
X105625000Y-68584356D01*
X105622100Y-68547510D01*
X105622099Y-68547504D01*
X105576283Y-68389806D01*
X105576282Y-68389803D01*
X105492685Y-68248447D01*
X105492678Y-68248438D01*
X105376561Y-68132321D01*
X105376552Y-68132314D01*
X105235196Y-68048717D01*
X105235193Y-68048716D01*
X105077494Y-68002900D01*
X105077497Y-68002900D01*
X105075000Y-68002703D01*
X104675500Y-68002703D01*
X104675500Y-66709306D01*
X104675500Y-66705046D01*
X104675500Y-66659806D01*
X104666207Y-66619093D01*
X104665042Y-66612233D01*
X104660368Y-66570745D01*
X104659111Y-66567153D01*
X104646576Y-66531328D01*
X104644650Y-66524641D01*
X104635360Y-66483939D01*
X104617238Y-66446307D01*
X104614583Y-66439899D01*
X104600789Y-66400478D01*
X104581440Y-66369685D01*
X104578574Y-66365123D01*
X104575208Y-66359033D01*
X104570858Y-66350000D01*
X104557092Y-66321414D01*
X104531057Y-66288768D01*
X104527037Y-66283103D01*
X104504816Y-66247738D01*
X104377262Y-66120184D01*
X104377261Y-66120183D01*
X104374929Y-66117851D01*
X104374918Y-66117841D01*
X103474318Y-65217240D01*
X103440833Y-65155917D01*
X103437999Y-65129559D01*
X103437999Y-64799998D01*
X103437998Y-64799981D01*
X103427499Y-64697203D01*
X103427498Y-64697200D01*
X103372314Y-64530666D01*
X103280212Y-64381344D01*
X103156156Y-64257288D01*
X103006834Y-64165186D01*
X102840297Y-64110001D01*
X102840295Y-64110000D01*
X102737510Y-64099500D01*
X102112498Y-64099500D01*
X102112480Y-64099501D01*
X102009703Y-64110000D01*
X102009700Y-64110001D01*
X101843168Y-64165185D01*
X101843163Y-64165187D01*
X101693842Y-64257289D01*
X101600181Y-64350951D01*
X101538858Y-64384436D01*
X101469166Y-64379452D01*
X101424819Y-64350951D01*
X101331157Y-64257289D01*
X101331156Y-64257288D01*
X101181834Y-64165186D01*
X101015297Y-64110001D01*
X101015295Y-64110000D01*
X100912510Y-64099500D01*
X100287498Y-64099500D01*
X100287480Y-64099501D01*
X100184703Y-64110000D01*
X100184700Y-64110001D01*
X100018168Y-64165185D01*
X100018163Y-64165187D01*
X99868841Y-64257289D01*
X99860211Y-64265920D01*
X99798887Y-64299403D01*
X99729195Y-64294416D01*
X99673263Y-64252543D01*
X99666995Y-64243334D01*
X99622968Y-64171956D01*
X99613339Y-64162327D01*
X99579854Y-64101004D01*
X99584838Y-64031312D01*
X99613345Y-63986959D01*
X99622573Y-63977731D01*
X99711542Y-63833492D01*
X99711547Y-63833481D01*
X99764855Y-63672606D01*
X99774999Y-63573322D01*
X99775000Y-63573309D01*
X99775000Y-63550000D01*
X98674000Y-63550000D01*
X98606961Y-63530315D01*
X98561206Y-63477511D01*
X98550000Y-63426000D01*
X98550000Y-62350000D01*
X99050000Y-62350000D01*
X99050000Y-63050000D01*
X99774999Y-63050000D01*
X99774999Y-63026692D01*
X99774998Y-63026677D01*
X99764855Y-62927392D01*
X99711547Y-62766518D01*
X99711542Y-62766507D01*
X99622575Y-62622271D01*
X99622572Y-62622267D01*
X99502732Y-62502427D01*
X99502728Y-62502424D01*
X99358492Y-62413457D01*
X99358481Y-62413452D01*
X99197606Y-62360144D01*
X99098322Y-62350000D01*
X99050000Y-62350000D01*
X98550000Y-62350000D01*
X98549999Y-62349999D01*
X98501693Y-62350000D01*
X98501675Y-62350001D01*
X98402392Y-62360144D01*
X98241518Y-62413452D01*
X98241507Y-62413457D01*
X98097271Y-62502424D01*
X98097267Y-62502427D01*
X97977427Y-62622267D01*
X97972946Y-62627935D01*
X97970869Y-62626292D01*
X97928045Y-62664780D01*
X97859078Y-62675974D01*
X97795007Y-62648106D01*
X97756174Y-62590021D01*
X97750499Y-62552942D01*
X97750499Y-61977128D01*
X97744091Y-61917517D01*
X97744089Y-61917513D01*
X97743632Y-61913255D01*
X97743632Y-61886745D01*
X97744089Y-61882486D01*
X97744091Y-61882483D01*
X97750500Y-61822873D01*
X97750499Y-61177128D01*
X97744091Y-61117517D01*
X97744090Y-61117516D01*
X97743699Y-61113872D01*
X97756104Y-61045113D01*
X97803714Y-60993975D01*
X97871414Y-60976696D01*
X97905993Y-60982911D01*
X98002394Y-61014856D01*
X98101683Y-61024999D01*
X98149999Y-61024998D01*
X98150000Y-61024998D01*
X98150000Y-59949000D01*
X98169685Y-59881961D01*
X98222489Y-59836206D01*
X98274000Y-59825000D01*
X98526000Y-59825000D01*
X98593039Y-59844685D01*
X98638794Y-59897489D01*
X98650000Y-59949000D01*
X98650000Y-61024999D01*
X98698308Y-61024999D01*
X98698322Y-61024998D01*
X98797607Y-61014855D01*
X98958481Y-60961547D01*
X98958492Y-60961542D01*
X98977204Y-60950000D01*
X99975001Y-60950000D01*
X99975001Y-60999986D01*
X99985494Y-61102697D01*
X100040641Y-61269119D01*
X100040643Y-61269124D01*
X100132684Y-61418345D01*
X100256654Y-61542315D01*
X100405875Y-61634356D01*
X100405880Y-61634358D01*
X100572302Y-61689505D01*
X100572309Y-61689506D01*
X100675019Y-61699999D01*
X100949999Y-61699999D01*
X100950000Y-61699998D01*
X100950000Y-60950000D01*
X101450000Y-60950000D01*
X101450000Y-61699999D01*
X101724972Y-61699999D01*
X101724986Y-61699998D01*
X101827697Y-61689505D01*
X101994119Y-61634358D01*
X101994124Y-61634356D01*
X102143345Y-61542315D01*
X102267315Y-61418345D01*
X102359356Y-61269124D01*
X102359358Y-61269119D01*
X102414505Y-61102697D01*
X102414506Y-61102690D01*
X102424999Y-60999986D01*
X102425000Y-60999973D01*
X102425000Y-60950000D01*
X101450000Y-60950000D01*
X100950000Y-60950000D01*
X99975001Y-60950000D01*
X98977204Y-60950000D01*
X99102728Y-60872575D01*
X99102732Y-60872572D01*
X99222572Y-60752732D01*
X99222575Y-60752728D01*
X99311542Y-60608492D01*
X99311547Y-60608481D01*
X99364855Y-60447607D01*
X99368045Y-60416396D01*
X99394442Y-60351704D01*
X99451624Y-60311554D01*
X99491403Y-60305000D01*
X99851000Y-60305000D01*
X99918039Y-60324685D01*
X99963794Y-60377489D01*
X99975000Y-60429000D01*
X99975000Y-60450000D01*
X102067711Y-60450000D01*
X102119225Y-60461207D01*
X102128264Y-60465335D01*
X102128271Y-60465338D01*
X102173087Y-60478497D01*
X102195305Y-60485022D01*
X102195310Y-60485023D01*
X102195314Y-60485024D01*
X102337730Y-60505500D01*
X102337733Y-60505500D01*
X102529409Y-60505500D01*
X102569512Y-60502071D01*
X102615203Y-60498165D01*
X102615209Y-60498164D01*
X102615207Y-60498165D01*
X102634682Y-60494810D01*
X102645835Y-60492889D01*
X102715242Y-60500907D01*
X102769296Y-60545177D01*
X102779266Y-60562684D01*
X102825965Y-60662830D01*
X102825967Y-60662834D01*
X102878601Y-60738002D01*
X102961501Y-60856396D01*
X102961506Y-60856402D01*
X103083818Y-60978714D01*
X103117303Y-61040037D01*
X103112319Y-61109729D01*
X103070447Y-61165662D01*
X103039471Y-61182577D01*
X102907912Y-61231646D01*
X102907906Y-61231649D01*
X102792812Y-61317809D01*
X102792809Y-61317812D01*
X102706649Y-61432906D01*
X102706645Y-61432913D01*
X102656403Y-61567620D01*
X102656401Y-61567627D01*
X102650000Y-61627155D01*
X102650000Y-62275000D01*
X103566314Y-62275000D01*
X103540507Y-62315156D01*
X103500000Y-62453111D01*
X103500000Y-62596889D01*
X103540507Y-62734844D01*
X103566314Y-62775000D01*
X102650000Y-62775000D01*
X102650000Y-63422844D01*
X102656401Y-63482372D01*
X102656403Y-63482379D01*
X102706645Y-63617086D01*
X102706649Y-63617093D01*
X102792809Y-63732187D01*
X102792812Y-63732190D01*
X102907906Y-63818350D01*
X102907913Y-63818354D01*
X103042620Y-63868596D01*
X103042627Y-63868598D01*
X103102155Y-63874999D01*
X103102172Y-63875000D01*
X103750000Y-63875000D01*
X103750000Y-62960501D01*
X103857685Y-63009680D01*
X103964237Y-63025000D01*
X104035763Y-63025000D01*
X104142315Y-63009680D01*
X104250000Y-62960501D01*
X104250000Y-63875000D01*
X104897828Y-63875000D01*
X104897844Y-63874999D01*
X104957372Y-63868598D01*
X104957379Y-63868596D01*
X105092086Y-63818354D01*
X105092093Y-63818350D01*
X105207187Y-63732190D01*
X105207190Y-63732187D01*
X105293350Y-63617093D01*
X105293354Y-63617086D01*
X105343596Y-63482379D01*
X105343598Y-63482372D01*
X105349999Y-63422844D01*
X105350000Y-63422827D01*
X105350000Y-62775000D01*
X104433686Y-62775000D01*
X104459493Y-62734844D01*
X104500000Y-62596889D01*
X104500000Y-62453111D01*
X104459493Y-62315156D01*
X104433686Y-62275000D01*
X105350000Y-62275000D01*
X105350000Y-61627172D01*
X105349999Y-61627155D01*
X105343598Y-61567627D01*
X105343596Y-61567620D01*
X105293354Y-61432913D01*
X105293350Y-61432906D01*
X105207190Y-61317812D01*
X105207187Y-61317809D01*
X105092093Y-61231649D01*
X105092088Y-61231646D01*
X104960528Y-61182577D01*
X104904595Y-61140705D01*
X104880178Y-61075241D01*
X104895030Y-61006968D01*
X104916175Y-60978720D01*
X105038495Y-60856401D01*
X105174035Y-60662830D01*
X105273903Y-60448663D01*
X105335063Y-60220408D01*
X105355659Y-59985000D01*
X105335063Y-59749592D01*
X105273903Y-59521337D01*
X105233259Y-59434177D01*
X105222768Y-59365105D01*
X105251287Y-59301320D01*
X105264441Y-59288062D01*
X105274212Y-59279596D01*
X105311347Y-59247418D01*
X105405567Y-59138684D01*
X105465338Y-59007807D01*
X105485023Y-58940768D01*
X105485024Y-58940764D01*
X105505500Y-58798348D01*
X105505500Y-58631039D01*
X105504540Y-58622876D01*
X105502439Y-58605000D01*
X105491720Y-58513813D01*
X105478383Y-58457869D01*
X105437793Y-58347033D01*
X105437791Y-58347030D01*
X105437791Y-58347029D01*
X105404744Y-58299835D01*
X105355266Y-58229173D01*
X105307453Y-58178225D01*
X105307450Y-58178222D01*
X105307449Y-58178221D01*
X105267615Y-58146381D01*
X105227539Y-58089147D01*
X105224768Y-58019333D01*
X105232654Y-57997119D01*
X105273903Y-57908663D01*
X105335063Y-57680408D01*
X105355659Y-57445000D01*
X105335063Y-57209592D01*
X105273903Y-56981337D01*
X105233464Y-56894616D01*
X105222972Y-56825538D01*
X105251492Y-56761754D01*
X105264640Y-56748501D01*
X105311347Y-56708030D01*
X105405567Y-56599296D01*
X105465338Y-56468419D01*
X105485023Y-56401380D01*
X105485024Y-56401376D01*
X105505500Y-56258960D01*
X105505500Y-55037823D01*
X105504051Y-55010784D01*
X105502066Y-54992328D01*
X105499769Y-54970964D01*
X105491114Y-54917554D01*
X105491114Y-54917552D01*
X105468709Y-54857483D01*
X105440832Y-54782743D01*
X105407347Y-54721420D01*
X105321123Y-54606239D01*
X105321118Y-54606234D01*
X105321113Y-54606228D01*
X104482624Y-53767740D01*
X104482620Y-53767736D01*
X104442071Y-53735060D01*
X104398468Y-53699922D01*
X104354115Y-53671419D01*
X104257458Y-53623040D01*
X104257452Y-53623038D01*
X104116870Y-53592463D01*
X104116873Y-53592463D01*
X104072062Y-53589260D01*
X104047172Y-53587482D01*
X104047169Y-53587482D01*
X104047167Y-53587482D01*
X103983484Y-53592039D01*
X103915211Y-53577189D01*
X103865804Y-53527785D01*
X103850950Y-53459513D01*
X103869095Y-53403259D01*
X103912003Y-53333697D01*
X103965349Y-53172708D01*
X103975500Y-53073345D01*
X103975499Y-52526656D01*
X103975175Y-52523488D01*
X103965349Y-52427292D01*
X103965348Y-52427289D01*
X103950194Y-52381558D01*
X103912003Y-52266303D01*
X103911999Y-52266297D01*
X103911998Y-52266294D01*
X103844429Y-52156749D01*
X103825988Y-52089357D01*
X103832035Y-52053338D01*
X103885674Y-51888256D01*
X103905460Y-51700000D01*
X103885674Y-51511744D01*
X103831112Y-51343823D01*
X103827181Y-51331722D01*
X103827180Y-51331721D01*
X103827179Y-51331716D01*
X103743339Y-51186500D01*
X103726866Y-51118599D01*
X103749719Y-51052573D01*
X103804640Y-51009382D01*
X103850726Y-51000500D01*
X105496518Y-51000500D01*
X105503455Y-51000889D01*
G37*
%TD.AperFunction*%
%TA.AperFunction,Conductor*%
G36*
X92870000Y-81330633D02*
G01*
X93083483Y-81273433D01*
X93083492Y-81273429D01*
X93297578Y-81173600D01*
X93491082Y-81038105D01*
X93658105Y-80871082D01*
X93788119Y-80685405D01*
X93842696Y-80641781D01*
X93912195Y-80634588D01*
X93974549Y-80666110D01*
X93991269Y-80685405D01*
X94121505Y-80871401D01*
X94121506Y-80871402D01*
X94288595Y-81038492D01*
X94288598Y-81038494D01*
X94288599Y-81038495D01*
X94356623Y-81086125D01*
X94400248Y-81140701D01*
X94409500Y-81187700D01*
X94409500Y-81377770D01*
X94389815Y-81444809D01*
X94373181Y-81465451D01*
X93725451Y-82113181D01*
X93664128Y-82146666D01*
X93637770Y-82149500D01*
X84827463Y-82149500D01*
X84760424Y-82129815D01*
X84714669Y-82077011D01*
X84704142Y-82012539D01*
X84705460Y-82000000D01*
X84685674Y-81811744D01*
X84627179Y-81631716D01*
X84572205Y-81536498D01*
X84555733Y-81468598D01*
X84578586Y-81402571D01*
X84633508Y-81359381D01*
X84679593Y-81350499D01*
X85897871Y-81350499D01*
X85897872Y-81350499D01*
X85957483Y-81344091D01*
X86092331Y-81293796D01*
X86207546Y-81207546D01*
X86293796Y-81092331D01*
X86342810Y-80960916D01*
X86384681Y-80904984D01*
X86450145Y-80880566D01*
X86518418Y-80895417D01*
X86546673Y-80916569D01*
X86668599Y-81038495D01*
X86749434Y-81095096D01*
X86862165Y-81174032D01*
X86862167Y-81174033D01*
X86862170Y-81174035D01*
X87076337Y-81273903D01*
X87304592Y-81335063D01*
X87492918Y-81351539D01*
X87539999Y-81355659D01*
X87540000Y-81355659D01*
X87540001Y-81355659D01*
X87579234Y-81352226D01*
X87775408Y-81335063D01*
X88003663Y-81273903D01*
X88217830Y-81174035D01*
X88411401Y-81038495D01*
X88578495Y-80871401D01*
X88708425Y-80685842D01*
X88763002Y-80642217D01*
X88832500Y-80635023D01*
X88894855Y-80666546D01*
X88911575Y-80685842D01*
X89041500Y-80871395D01*
X89041505Y-80871401D01*
X89208599Y-81038495D01*
X89289434Y-81095096D01*
X89402165Y-81174032D01*
X89402167Y-81174033D01*
X89402170Y-81174035D01*
X89616337Y-81273903D01*
X89844592Y-81335063D01*
X90032918Y-81351539D01*
X90079999Y-81355659D01*
X90080000Y-81355659D01*
X90080001Y-81355659D01*
X90119234Y-81352226D01*
X90315408Y-81335063D01*
X90543663Y-81273903D01*
X90757830Y-81174035D01*
X90951401Y-81038495D01*
X91118495Y-80871401D01*
X91248730Y-80685405D01*
X91303307Y-80641781D01*
X91372805Y-80634587D01*
X91435160Y-80666110D01*
X91451879Y-80685405D01*
X91581890Y-80871078D01*
X91748917Y-81038105D01*
X91942421Y-81173600D01*
X92156507Y-81273429D01*
X92156516Y-81273433D01*
X92370000Y-81330634D01*
X92370000Y-80435501D01*
X92477685Y-80484680D01*
X92584237Y-80500000D01*
X92655763Y-80500000D01*
X92762315Y-80484680D01*
X92870000Y-80435501D01*
X92870000Y-81330633D01*
G37*
%TD.AperFunction*%
%TA.AperFunction,Conductor*%
G36*
X80593039Y-81320185D02*
G01*
X80638794Y-81372989D01*
X80650000Y-81424500D01*
X80650000Y-81975500D01*
X80630315Y-82042539D01*
X80577511Y-82088294D01*
X80526000Y-82099500D01*
X80274000Y-82099500D01*
X80206961Y-82079815D01*
X80161206Y-82027011D01*
X80150000Y-81975500D01*
X80150000Y-81424500D01*
X80169685Y-81357461D01*
X80222489Y-81311706D01*
X80274000Y-81300500D01*
X80526000Y-81300500D01*
X80593039Y-81320185D01*
G37*
%TD.AperFunction*%
%TA.AperFunction,Conductor*%
G36*
X78993039Y-79969685D02*
G01*
X79038794Y-80022489D01*
X79050000Y-80074000D01*
X79050000Y-81826000D01*
X79030315Y-81893039D01*
X78977511Y-81938794D01*
X78926000Y-81950000D01*
X78674000Y-81950000D01*
X78606961Y-81930315D01*
X78561206Y-81877511D01*
X78550000Y-81826000D01*
X78550000Y-80074000D01*
X78569685Y-80006961D01*
X78622489Y-79961206D01*
X78674000Y-79950000D01*
X78926000Y-79950000D01*
X78993039Y-79969685D01*
G37*
%TD.AperFunction*%
%TA.AperFunction,Conductor*%
G36*
X86818039Y-73369685D02*
G01*
X86863794Y-73422489D01*
X86875000Y-73474000D01*
X86875000Y-73813793D01*
X86858719Y-73871213D01*
X86859939Y-73871782D01*
X86824424Y-73947941D01*
X86789960Y-74016566D01*
X86787488Y-74023357D01*
X86787432Y-74023336D01*
X86784960Y-74030450D01*
X86785015Y-74030469D01*
X86782742Y-74037327D01*
X86779099Y-74054973D01*
X86767207Y-74112565D01*
X86755465Y-74162110D01*
X86749498Y-74187286D01*
X86748661Y-74194454D01*
X86748601Y-74194447D01*
X86747835Y-74201945D01*
X86747895Y-74201951D01*
X86747265Y-74209140D01*
X86749500Y-74285916D01*
X86749500Y-77356294D01*
X86748191Y-77374263D01*
X86744710Y-77398025D01*
X86749264Y-77450064D01*
X86749500Y-77455470D01*
X86749500Y-77463709D01*
X86753306Y-77496274D01*
X86760000Y-77572791D01*
X86761461Y-77579867D01*
X86761403Y-77579878D01*
X86763034Y-77587237D01*
X86763092Y-77587224D01*
X86764757Y-77594250D01*
X86791025Y-77666424D01*
X86815185Y-77739331D01*
X86818236Y-77745874D01*
X86818182Y-77745898D01*
X86821470Y-77752688D01*
X86821521Y-77752663D01*
X86824761Y-77759113D01*
X86824762Y-77759114D01*
X86824763Y-77759117D01*
X86830693Y-77768133D01*
X86866965Y-77823283D01*
X86907287Y-77888655D01*
X86911766Y-77894319D01*
X86911719Y-77894356D01*
X86916482Y-77900202D01*
X86916528Y-77900164D01*
X86921173Y-77905700D01*
X86977017Y-77958385D01*
X87465047Y-78446415D01*
X87498532Y-78507738D01*
X87493548Y-78577429D01*
X87451677Y-78633363D01*
X87388174Y-78657624D01*
X87304596Y-78664936D01*
X87304586Y-78664938D01*
X87076344Y-78726094D01*
X87076335Y-78726098D01*
X86862171Y-78825964D01*
X86862169Y-78825965D01*
X86668600Y-78961503D01*
X86546673Y-79083430D01*
X86485350Y-79116914D01*
X86415658Y-79111930D01*
X86359725Y-79070058D01*
X86342810Y-79039081D01*
X86293797Y-78907671D01*
X86293793Y-78907664D01*
X86207547Y-78792455D01*
X86207544Y-78792452D01*
X86092335Y-78706206D01*
X86092328Y-78706202D01*
X85957482Y-78655908D01*
X85957483Y-78655908D01*
X85897883Y-78649501D01*
X85897881Y-78649500D01*
X85897873Y-78649500D01*
X85897864Y-78649500D01*
X84102129Y-78649500D01*
X84102123Y-78649501D01*
X84042516Y-78655908D01*
X83907671Y-78706202D01*
X83907664Y-78706206D01*
X83792455Y-78792452D01*
X83792452Y-78792455D01*
X83706206Y-78907664D01*
X83706202Y-78907671D01*
X83655908Y-79042517D01*
X83649501Y-79102116D01*
X83649500Y-79102135D01*
X83649500Y-80897870D01*
X83649501Y-80897876D01*
X83655909Y-80957486D01*
X83658369Y-80964082D01*
X83663351Y-81033774D01*
X83629864Y-81095096D01*
X83568539Y-81128578D01*
X83567968Y-81128701D01*
X83518910Y-81139129D01*
X83449243Y-81133814D01*
X83393509Y-81091677D01*
X83374052Y-81052435D01*
X83364347Y-81019034D01*
X83339555Y-80933697D01*
X83339555Y-80864507D01*
X83372100Y-80752490D01*
X83372295Y-80750001D01*
X83372295Y-80750000D01*
X83296308Y-80750000D01*
X83229269Y-80730315D01*
X83208631Y-80713685D01*
X83126865Y-80631919D01*
X82985398Y-80548256D01*
X82985397Y-80548255D01*
X82985396Y-80548255D01*
X82985393Y-80548254D01*
X82827573Y-80502402D01*
X82827567Y-80502401D01*
X82790696Y-80499500D01*
X82790694Y-80499500D01*
X82274000Y-80499500D01*
X82206961Y-80479815D01*
X82161206Y-80427011D01*
X82150000Y-80375500D01*
X82150000Y-79950000D01*
X82650000Y-79950000D01*
X82650000Y-80250000D01*
X83372295Y-80250000D01*
X83372295Y-80249998D01*
X83372100Y-80247511D01*
X83372099Y-80247508D01*
X83339294Y-80134596D01*
X83339294Y-80065404D01*
X83372099Y-79952491D01*
X83372100Y-79952488D01*
X83372295Y-79950001D01*
X83372295Y-79950000D01*
X82650000Y-79950000D01*
X82150000Y-79950000D01*
X82044309Y-79950000D01*
X81977270Y-79930315D01*
X81931515Y-79877511D01*
X81921571Y-79808353D01*
X81950596Y-79744797D01*
X81956628Y-79738319D01*
X81958128Y-79736819D01*
X82019451Y-79703334D01*
X82045809Y-79700500D01*
X82790696Y-79700500D01*
X82809131Y-79699049D01*
X82827569Y-79697598D01*
X82827571Y-79697597D01*
X82827573Y-79697597D01*
X82869191Y-79685505D01*
X82985398Y-79651744D01*
X83126865Y-79568081D01*
X83208628Y-79486317D01*
X83269949Y-79452834D01*
X83296308Y-79450000D01*
X83372295Y-79450000D01*
X83372295Y-79449998D01*
X83372100Y-79447508D01*
X83339555Y-79335491D01*
X83339555Y-79266302D01*
X83372598Y-79152569D01*
X83375500Y-79115694D01*
X83375500Y-78684306D01*
X83375312Y-78681923D01*
X83372598Y-78647432D01*
X83372597Y-78647426D01*
X83326745Y-78489606D01*
X83326744Y-78489603D01*
X83326744Y-78489602D01*
X83243081Y-78348135D01*
X83243079Y-78348133D01*
X83243076Y-78348129D01*
X83197847Y-78302900D01*
X83164362Y-78241577D01*
X83169346Y-78171885D01*
X83178137Y-78153226D01*
X83227179Y-78068284D01*
X83285674Y-77888256D01*
X83305460Y-77700000D01*
X83285749Y-77512459D01*
X83298319Y-77443731D01*
X83346051Y-77392708D01*
X83409070Y-77375500D01*
X83515696Y-77375500D01*
X83534131Y-77374049D01*
X83552569Y-77372598D01*
X83552571Y-77372597D01*
X83552573Y-77372597D01*
X83632072Y-77349500D01*
X83710398Y-77326744D01*
X83851865Y-77243081D01*
X83968081Y-77126865D01*
X84051744Y-76985398D01*
X84093725Y-76840900D01*
X84097597Y-76827573D01*
X84097598Y-76827567D01*
X84097787Y-76825173D01*
X84100500Y-76790694D01*
X84100500Y-76724500D01*
X84120185Y-76657461D01*
X84172989Y-76611706D01*
X84224500Y-76600500D01*
X84394644Y-76600500D01*
X84394646Y-76600500D01*
X84579803Y-76561144D01*
X84752730Y-76484151D01*
X84905871Y-76372888D01*
X85032533Y-76232216D01*
X85127179Y-76068284D01*
X85185674Y-75888256D01*
X85205460Y-75700000D01*
X85185674Y-75511744D01*
X85127179Y-75331716D01*
X85055879Y-75208221D01*
X85029284Y-75162156D01*
X85031075Y-75161121D01*
X85010856Y-75104469D01*
X85015576Y-75062786D01*
X85047598Y-74952569D01*
X85050500Y-74915694D01*
X85050500Y-74574729D01*
X85070185Y-74507690D01*
X85086815Y-74487052D01*
X85385642Y-74188224D01*
X85399271Y-74176447D01*
X85418530Y-74162110D01*
X85452101Y-74122101D01*
X85455761Y-74118106D01*
X85461591Y-74112277D01*
X85473512Y-74097200D01*
X85481940Y-74086541D01*
X85496264Y-74069469D01*
X85505930Y-74057950D01*
X85564099Y-74019247D01*
X85633960Y-74018137D01*
X85693331Y-74054973D01*
X85718626Y-74098649D01*
X85738453Y-74158483D01*
X85738457Y-74158492D01*
X85827424Y-74302728D01*
X85827427Y-74302732D01*
X85947267Y-74422572D01*
X85947271Y-74422575D01*
X86091507Y-74511542D01*
X86091518Y-74511547D01*
X86252393Y-74564855D01*
X86351683Y-74574999D01*
X86375000Y-74574998D01*
X86375000Y-73474000D01*
X86394685Y-73406961D01*
X86447489Y-73361206D01*
X86499000Y-73350000D01*
X86751000Y-73350000D01*
X86818039Y-73369685D01*
G37*
%TD.AperFunction*%
%TA.AperFunction,Conductor*%
G36*
X90438030Y-77195030D02*
G01*
X90466285Y-77216181D01*
X90588599Y-77338495D01*
X90637302Y-77372597D01*
X90782165Y-77474032D01*
X90782167Y-77474033D01*
X90782170Y-77474035D01*
X90996337Y-77573903D01*
X91224592Y-77635063D01*
X91412918Y-77651539D01*
X91459999Y-77655659D01*
X91460000Y-77655659D01*
X91460001Y-77655659D01*
X91502289Y-77651959D01*
X91673014Y-77637022D01*
X91741513Y-77650788D01*
X91771502Y-77672869D01*
X92545509Y-78446876D01*
X92578994Y-78508199D01*
X92574010Y-78577891D01*
X92532138Y-78633824D01*
X92468637Y-78658085D01*
X92384682Y-78665430D01*
X92384673Y-78665432D01*
X92156516Y-78726566D01*
X92156507Y-78726570D01*
X91942422Y-78826399D01*
X91942420Y-78826400D01*
X91748926Y-78961886D01*
X91748920Y-78961891D01*
X91581891Y-79128920D01*
X91581890Y-79128922D01*
X91451880Y-79314595D01*
X91397303Y-79358219D01*
X91327804Y-79365412D01*
X91265450Y-79333890D01*
X91248730Y-79314594D01*
X91118494Y-79128597D01*
X90951402Y-78961506D01*
X90951395Y-78961501D01*
X90757834Y-78825967D01*
X90757830Y-78825965D01*
X90757828Y-78825964D01*
X90543663Y-78726097D01*
X90543659Y-78726096D01*
X90543655Y-78726094D01*
X90315413Y-78664938D01*
X90315403Y-78664936D01*
X90080001Y-78644341D01*
X90079998Y-78644341D01*
X89866986Y-78662977D01*
X89798486Y-78649210D01*
X89768498Y-78627130D01*
X89003049Y-77861681D01*
X88969564Y-77800358D01*
X88974548Y-77730666D01*
X89016420Y-77674733D01*
X89081884Y-77650316D01*
X89090730Y-77650000D01*
X89817828Y-77650000D01*
X89817844Y-77649999D01*
X89877372Y-77643598D01*
X89877379Y-77643596D01*
X90012086Y-77593354D01*
X90012093Y-77593350D01*
X90127187Y-77507190D01*
X90127190Y-77507187D01*
X90213350Y-77392093D01*
X90213354Y-77392086D01*
X90262422Y-77260529D01*
X90304293Y-77204595D01*
X90369757Y-77180178D01*
X90438030Y-77195030D01*
G37*
%TD.AperFunction*%
%TA.AperFunction,Conductor*%
G36*
X91168039Y-68269685D02*
G01*
X91213794Y-68322489D01*
X91225000Y-68374000D01*
X91225000Y-69474999D01*
X91248308Y-69474999D01*
X91248322Y-69474998D01*
X91347605Y-69464856D01*
X91386495Y-69451969D01*
X91456323Y-69449567D01*
X91516366Y-69485298D01*
X91547559Y-69547818D01*
X91549500Y-69569675D01*
X91549500Y-70736294D01*
X91548191Y-70754263D01*
X91544710Y-70778025D01*
X91548183Y-70817710D01*
X91548801Y-70824779D01*
X91549264Y-70830064D01*
X91549500Y-70835470D01*
X91549500Y-70843709D01*
X91552672Y-70870854D01*
X91553306Y-70876274D01*
X91560000Y-70952791D01*
X91561461Y-70959867D01*
X91561403Y-70959878D01*
X91563034Y-70967237D01*
X91563092Y-70967224D01*
X91564757Y-70974250D01*
X91591025Y-71046424D01*
X91615185Y-71119331D01*
X91618236Y-71125874D01*
X91618182Y-71125898D01*
X91621470Y-71132688D01*
X91621521Y-71132663D01*
X91624761Y-71139113D01*
X91624762Y-71139114D01*
X91624763Y-71139117D01*
X91641889Y-71165156D01*
X91666965Y-71203283D01*
X91707287Y-71268655D01*
X91711766Y-71274319D01*
X91711719Y-71274356D01*
X91716482Y-71280202D01*
X91716528Y-71280164D01*
X91721173Y-71285700D01*
X91777017Y-71338385D01*
X92401451Y-71962819D01*
X92434936Y-72024142D01*
X92429952Y-72093833D01*
X92388081Y-72149767D01*
X92322616Y-72174184D01*
X92313771Y-72174500D01*
X92199999Y-72174500D01*
X92199980Y-72174501D01*
X92097203Y-72185000D01*
X92097200Y-72185001D01*
X91930668Y-72240185D01*
X91930663Y-72240187D01*
X91781342Y-72332289D01*
X91657288Y-72456343D01*
X91657283Y-72456349D01*
X91655241Y-72459661D01*
X91653247Y-72461453D01*
X91652807Y-72462011D01*
X91652711Y-72461935D01*
X91603291Y-72506383D01*
X91534328Y-72517602D01*
X91470247Y-72489755D01*
X91444168Y-72459656D01*
X91442319Y-72456659D01*
X91442316Y-72456655D01*
X91318345Y-72332684D01*
X91169124Y-72240643D01*
X91169119Y-72240641D01*
X91002697Y-72185494D01*
X91002690Y-72185493D01*
X90899986Y-72175000D01*
X90850000Y-72175000D01*
X90850000Y-74624999D01*
X90899972Y-74624999D01*
X90899986Y-74624998D01*
X91002697Y-74614505D01*
X91169119Y-74559358D01*
X91169124Y-74559356D01*
X91318345Y-74467315D01*
X91442318Y-74343342D01*
X91444165Y-74340348D01*
X91445969Y-74338724D01*
X91446798Y-74337677D01*
X91446976Y-74337818D01*
X91496110Y-74293621D01*
X91565073Y-74282396D01*
X91629156Y-74310236D01*
X91655243Y-74340341D01*
X91657288Y-74343656D01*
X91781344Y-74467712D01*
X91930666Y-74559814D01*
X92097203Y-74614999D01*
X92199991Y-74625500D01*
X92259215Y-74625499D01*
X92326254Y-74645182D01*
X92346897Y-74661818D01*
X92950601Y-75265522D01*
X92984086Y-75326845D01*
X92979102Y-75396537D01*
X92964495Y-75424326D01*
X92831575Y-75614158D01*
X92776999Y-75657783D01*
X92707500Y-75664977D01*
X92645145Y-75633455D01*
X92628425Y-75614158D01*
X92498494Y-75428597D01*
X92331402Y-75261506D01*
X92331395Y-75261501D01*
X92137834Y-75125967D01*
X92137830Y-75125965D01*
X92108956Y-75112501D01*
X91923663Y-75026097D01*
X91923659Y-75026096D01*
X91923655Y-75026094D01*
X91695413Y-74964938D01*
X91695403Y-74964936D01*
X91460001Y-74944341D01*
X91459999Y-74944341D01*
X91224596Y-74964936D01*
X91224586Y-74964938D01*
X90996344Y-75026094D01*
X90996335Y-75026098D01*
X90782171Y-75125964D01*
X90782169Y-75125965D01*
X90588600Y-75261503D01*
X90466284Y-75383819D01*
X90404961Y-75417303D01*
X90335269Y-75412319D01*
X90279336Y-75370447D01*
X90262421Y-75339470D01*
X90213354Y-75207913D01*
X90213350Y-75207906D01*
X90127190Y-75092812D01*
X90127187Y-75092809D01*
X90012093Y-75006649D01*
X90012086Y-75006645D01*
X89877379Y-74956403D01*
X89877372Y-74956401D01*
X89817844Y-74950000D01*
X89170000Y-74950000D01*
X89170000Y-75864498D01*
X89062315Y-75815320D01*
X88955763Y-75800000D01*
X88884237Y-75800000D01*
X88777685Y-75815320D01*
X88670000Y-75864498D01*
X88670000Y-74950000D01*
X88374500Y-74950000D01*
X88307461Y-74930315D01*
X88261706Y-74877511D01*
X88250500Y-74826000D01*
X88250500Y-74699499D01*
X88270185Y-74632460D01*
X88322989Y-74586705D01*
X88374500Y-74575499D01*
X88448338Y-74575499D01*
X88448344Y-74575499D01*
X88448352Y-74575498D01*
X88448355Y-74575498D01*
X88502760Y-74569940D01*
X88547708Y-74565349D01*
X88708697Y-74512003D01*
X88853044Y-74422968D01*
X88972968Y-74303044D01*
X89062003Y-74158697D01*
X89115349Y-73997708D01*
X89125500Y-73898345D01*
X89125499Y-73762228D01*
X89145183Y-73695189D01*
X89161813Y-73674552D01*
X89223141Y-73613224D01*
X89236760Y-73601454D01*
X89256030Y-73587110D01*
X89289623Y-73547074D01*
X89293257Y-73543108D01*
X89299090Y-73537277D01*
X89319427Y-73511555D01*
X89368802Y-73452714D01*
X89368804Y-73452711D01*
X89372396Y-73447250D01*
X89425678Y-73402053D01*
X89494937Y-73392838D01*
X89558184Y-73422529D01*
X89595338Y-73481702D01*
X89600000Y-73515383D01*
X89600000Y-73924971D01*
X89600001Y-73924987D01*
X89610494Y-74027697D01*
X89665641Y-74194119D01*
X89665643Y-74194124D01*
X89757684Y-74343345D01*
X89881654Y-74467315D01*
X90030875Y-74559356D01*
X90030880Y-74559358D01*
X90197302Y-74614505D01*
X90197309Y-74614506D01*
X90300019Y-74624999D01*
X90349999Y-74624998D01*
X90350000Y-74624998D01*
X90350000Y-72175000D01*
X90349999Y-72174999D01*
X90300029Y-72175000D01*
X90300011Y-72175001D01*
X90197302Y-72185494D01*
X90138504Y-72204978D01*
X90068675Y-72207380D01*
X90008634Y-72171648D01*
X89977441Y-72109127D01*
X89975500Y-72087272D01*
X89975500Y-71734304D01*
X89972598Y-71697432D01*
X89972597Y-71697426D01*
X89926745Y-71539606D01*
X89926744Y-71539603D01*
X89926744Y-71539602D01*
X89843081Y-71398135D01*
X89843079Y-71398133D01*
X89843076Y-71398129D01*
X89726870Y-71281923D01*
X89726862Y-71281917D01*
X89585396Y-71198255D01*
X89585393Y-71198254D01*
X89427573Y-71152402D01*
X89427567Y-71152401D01*
X89390696Y-71149500D01*
X89390694Y-71149500D01*
X88084306Y-71149500D01*
X88084304Y-71149500D01*
X88047432Y-71152401D01*
X88047426Y-71152402D01*
X87902267Y-71194576D01*
X87867672Y-71199500D01*
X86736500Y-71199500D01*
X86669461Y-71179815D01*
X86623706Y-71127011D01*
X86612500Y-71075500D01*
X86612500Y-70874000D01*
X86632185Y-70806961D01*
X86684989Y-70761206D01*
X86736500Y-70750000D01*
X87768185Y-70750000D01*
X87831306Y-70767268D01*
X87889602Y-70801744D01*
X87907559Y-70806961D01*
X88047426Y-70847597D01*
X88047429Y-70847597D01*
X88047431Y-70847598D01*
X88059722Y-70848565D01*
X88084304Y-70850500D01*
X88084306Y-70850500D01*
X89390696Y-70850500D01*
X89409131Y-70849049D01*
X89427569Y-70847598D01*
X89427571Y-70847597D01*
X89427573Y-70847597D01*
X89481415Y-70831954D01*
X89585398Y-70801744D01*
X89726865Y-70718081D01*
X89843081Y-70601865D01*
X89926744Y-70460398D01*
X89972598Y-70302569D01*
X89974784Y-70274789D01*
X89975500Y-70265696D01*
X89975500Y-69834304D01*
X89972598Y-69797432D01*
X89972597Y-69797426D01*
X89926745Y-69639606D01*
X89926744Y-69639603D01*
X89926744Y-69639602D01*
X89897752Y-69590580D01*
X89880570Y-69522857D01*
X89902730Y-69456594D01*
X89952774Y-69416383D01*
X89952154Y-69415053D01*
X89958687Y-69412006D01*
X89958697Y-69412003D01*
X90103044Y-69322968D01*
X90112668Y-69313343D01*
X90173987Y-69279856D01*
X90243679Y-69284835D01*
X90288034Y-69313339D01*
X90297267Y-69322572D01*
X90297271Y-69322575D01*
X90441507Y-69411542D01*
X90441518Y-69411547D01*
X90602393Y-69464855D01*
X90701683Y-69474999D01*
X90725000Y-69474998D01*
X90725000Y-68374000D01*
X90744685Y-68306961D01*
X90797489Y-68261206D01*
X90849000Y-68250000D01*
X91101000Y-68250000D01*
X91168039Y-68269685D01*
G37*
%TD.AperFunction*%
%TA.AperFunction,Conductor*%
G36*
X79393039Y-53244685D02*
G01*
X79438794Y-53297489D01*
X79450000Y-53349000D01*
X79450000Y-54424999D01*
X79498308Y-54424999D01*
X79498322Y-54424998D01*
X79597608Y-54414855D01*
X79636994Y-54401804D01*
X79706823Y-54399401D01*
X79766865Y-54435132D01*
X79798058Y-54497652D01*
X79800000Y-54519509D01*
X79800000Y-54797844D01*
X79806401Y-54857372D01*
X79806403Y-54857379D01*
X79856645Y-54992086D01*
X79856649Y-54992093D01*
X79942809Y-55107187D01*
X79942812Y-55107190D01*
X80057906Y-55193350D01*
X80057913Y-55193354D01*
X80192620Y-55243596D01*
X80192627Y-55243598D01*
X80252155Y-55249999D01*
X80252172Y-55250000D01*
X80628700Y-55250000D01*
X80695739Y-55269685D01*
X80741494Y-55322489D01*
X80751438Y-55391647D01*
X80746631Y-55412318D01*
X80714325Y-55511746D01*
X80714093Y-55513957D01*
X80713600Y-55515153D01*
X80712973Y-55518106D01*
X80712433Y-55517991D01*
X80687511Y-55578573D01*
X80630215Y-55618560D01*
X80590772Y-55625000D01*
X80250000Y-55625000D01*
X80250000Y-56539498D01*
X80142315Y-56490320D01*
X80035763Y-56475000D01*
X79964237Y-56475000D01*
X79857685Y-56490320D01*
X79750000Y-56539498D01*
X79750000Y-55625000D01*
X79102155Y-55625000D01*
X79042627Y-55631401D01*
X79042620Y-55631403D01*
X78907913Y-55681645D01*
X78907906Y-55681649D01*
X78792812Y-55767809D01*
X78792809Y-55767812D01*
X78706649Y-55882906D01*
X78706645Y-55882913D01*
X78656403Y-56017620D01*
X78656401Y-56017627D01*
X78650000Y-56077155D01*
X78650000Y-56725000D01*
X79566314Y-56725000D01*
X79540507Y-56765156D01*
X79500000Y-56903111D01*
X79500000Y-57046889D01*
X79540507Y-57184844D01*
X79566314Y-57225000D01*
X78650000Y-57225000D01*
X78650000Y-57872844D01*
X78656401Y-57932372D01*
X78656403Y-57932379D01*
X78706645Y-58067086D01*
X78706649Y-58067093D01*
X78792809Y-58182187D01*
X78792812Y-58182190D01*
X78907906Y-58268350D01*
X78907913Y-58268354D01*
X79039470Y-58317421D01*
X79095403Y-58359292D01*
X79119821Y-58424756D01*
X79104970Y-58493029D01*
X79083819Y-58521284D01*
X78961503Y-58643600D01*
X78825965Y-58837169D01*
X78825964Y-58837171D01*
X78726098Y-59051335D01*
X78726094Y-59051344D01*
X78664938Y-59279586D01*
X78664936Y-59279596D01*
X78644341Y-59514999D01*
X78644341Y-59515000D01*
X78664936Y-59750403D01*
X78664938Y-59750413D01*
X78726094Y-59978655D01*
X78726096Y-59978659D01*
X78726097Y-59978663D01*
X78816741Y-60173050D01*
X78825965Y-60192830D01*
X78825967Y-60192834D01*
X78961501Y-60386395D01*
X78961506Y-60386402D01*
X79128597Y-60553493D01*
X79128603Y-60553498D01*
X79314158Y-60683425D01*
X79357783Y-60738002D01*
X79364977Y-60807500D01*
X79333454Y-60869855D01*
X79314158Y-60886575D01*
X79128597Y-61016505D01*
X78961505Y-61183597D01*
X78825965Y-61377169D01*
X78825964Y-61377171D01*
X78726098Y-61591335D01*
X78726094Y-61591344D01*
X78664938Y-61819586D01*
X78664936Y-61819596D01*
X78644341Y-62054999D01*
X78644341Y-62055000D01*
X78664936Y-62290403D01*
X78664938Y-62290413D01*
X78726094Y-62518655D01*
X78726096Y-62518659D01*
X78726097Y-62518663D01*
X78809945Y-62698475D01*
X78825965Y-62732830D01*
X78825967Y-62732834D01*
X78961501Y-62926395D01*
X78961506Y-62926402D01*
X78963181Y-62928077D01*
X78963682Y-62928995D01*
X78964982Y-62930544D01*
X78964670Y-62930805D01*
X78996666Y-62989400D01*
X78999500Y-63015758D01*
X78999500Y-63862770D01*
X78979815Y-63929809D01*
X78963181Y-63950451D01*
X78932289Y-63981342D01*
X78840187Y-64130663D01*
X78840185Y-64130668D01*
X78828747Y-64165186D01*
X78785001Y-64297203D01*
X78785001Y-64297204D01*
X78785000Y-64297204D01*
X78774500Y-64399983D01*
X78774500Y-65000001D01*
X78774501Y-65000019D01*
X78785000Y-65102796D01*
X78785001Y-65102799D01*
X78822924Y-65217240D01*
X78840186Y-65269334D01*
X78932288Y-65418656D01*
X79056344Y-65542712D01*
X79059628Y-65544737D01*
X79059653Y-65544753D01*
X79061445Y-65546746D01*
X79062011Y-65547193D01*
X79061934Y-65547289D01*
X79106379Y-65596699D01*
X79117603Y-65665661D01*
X79089761Y-65729744D01*
X79059665Y-65755826D01*
X79056660Y-65757679D01*
X79056655Y-65757683D01*
X78932684Y-65881654D01*
X78840643Y-66030875D01*
X78840641Y-66030880D01*
X78785494Y-66197302D01*
X78785493Y-66197309D01*
X78775000Y-66300013D01*
X78775000Y-66350000D01*
X80126000Y-66350000D01*
X80193039Y-66369685D01*
X80238794Y-66422489D01*
X80250000Y-66474000D01*
X80250000Y-67599999D01*
X80524972Y-67599999D01*
X80524986Y-67599998D01*
X80627697Y-67589505D01*
X80794119Y-67534358D01*
X80794125Y-67534355D01*
X80797521Y-67532261D01*
X80800175Y-67531534D01*
X80800670Y-67531304D01*
X80800709Y-67531388D01*
X80864913Y-67513818D01*
X80931577Y-67534738D01*
X80976349Y-67588378D01*
X80985013Y-67657709D01*
X80978804Y-67681129D01*
X80955909Y-67742514D01*
X80955908Y-67742516D01*
X80950056Y-67796956D01*
X80949500Y-67802127D01*
X80949500Y-68297489D01*
X80949501Y-68675500D01*
X80929817Y-68742539D01*
X80877013Y-68788294D01*
X80825501Y-68799500D01*
X80705354Y-68799500D01*
X80672897Y-68806398D01*
X80520197Y-68838855D01*
X80520192Y-68838857D01*
X80347270Y-68915848D01*
X80347265Y-68915851D01*
X80194129Y-69027111D01*
X80067466Y-69167785D01*
X79972821Y-69331715D01*
X79972818Y-69331722D01*
X79914327Y-69511739D01*
X79914327Y-69511740D01*
X79914326Y-69511744D01*
X79909633Y-69556393D01*
X79906870Y-69582682D01*
X79880285Y-69647296D01*
X79871230Y-69657400D01*
X79414358Y-70114272D01*
X79400729Y-70126051D01*
X79381468Y-70140390D01*
X79347898Y-70180397D01*
X79344253Y-70184376D01*
X79338409Y-70190222D01*
X79318059Y-70215959D01*
X79268695Y-70274789D01*
X79264729Y-70280819D01*
X79264682Y-70280788D01*
X79260630Y-70287147D01*
X79260679Y-70287177D01*
X79256889Y-70293321D01*
X79224423Y-70362944D01*
X79212708Y-70386268D01*
X79165028Y-70437341D01*
X79097306Y-70454529D01*
X79031041Y-70432374D01*
X78987274Y-70377912D01*
X78981007Y-70358204D01*
X78975403Y-70333649D01*
X78926467Y-70232033D01*
X78926466Y-70232030D01*
X78876148Y-70168936D01*
X78856146Y-70143854D01*
X78813444Y-70109800D01*
X78767969Y-70073533D01*
X78767966Y-70073532D01*
X78666350Y-70024596D01*
X78556399Y-69999500D01*
X78556393Y-69999500D01*
X78503486Y-69999500D01*
X78496539Y-69999110D01*
X78493592Y-69998777D01*
X78473647Y-69996530D01*
X78394169Y-69986066D01*
X78369401Y-69980169D01*
X78335263Y-69968223D01*
X78332014Y-69966983D01*
X78290803Y-69949914D01*
X78277813Y-69944533D01*
X78259296Y-69934967D01*
X78224490Y-69913097D01*
X78219731Y-69909786D01*
X78171798Y-69873005D01*
X78165702Y-69867660D01*
X78132337Y-69834295D01*
X78126993Y-69828200D01*
X78090212Y-69780267D01*
X78086909Y-69775520D01*
X78065027Y-69740695D01*
X78055469Y-69722195D01*
X78033011Y-69667976D01*
X78031775Y-69664736D01*
X78019830Y-69630599D01*
X78013932Y-69605828D01*
X78003470Y-69526354D01*
X78001823Y-69511741D01*
X78000889Y-69503455D01*
X78000500Y-69496518D01*
X78000500Y-66850000D01*
X78775001Y-66850000D01*
X78775001Y-66899986D01*
X78785494Y-67002697D01*
X78840641Y-67169119D01*
X78840643Y-67169124D01*
X78932684Y-67318345D01*
X79056654Y-67442315D01*
X79205875Y-67534356D01*
X79205880Y-67534358D01*
X79372302Y-67589505D01*
X79372309Y-67589506D01*
X79475019Y-67599999D01*
X79749999Y-67599999D01*
X79750000Y-67599998D01*
X79750000Y-66850000D01*
X78775001Y-66850000D01*
X78000500Y-66850000D01*
X78000500Y-53907922D01*
X78020185Y-53840883D01*
X78072989Y-53795128D01*
X78142147Y-53785184D01*
X78205703Y-53814209D01*
X78242206Y-53868918D01*
X78288452Y-54008481D01*
X78288457Y-54008492D01*
X78377424Y-54152728D01*
X78377427Y-54152732D01*
X78497267Y-54272572D01*
X78497271Y-54272575D01*
X78641507Y-54361542D01*
X78641518Y-54361547D01*
X78802393Y-54414855D01*
X78901683Y-54424999D01*
X78949999Y-54424998D01*
X78950000Y-54424998D01*
X78950000Y-53349000D01*
X78969685Y-53281961D01*
X79022489Y-53236206D01*
X79074000Y-53225000D01*
X79326000Y-53225000D01*
X79393039Y-53244685D01*
G37*
%TD.AperFunction*%
%TA.AperFunction,Conductor*%
G36*
X86518039Y-68244685D02*
G01*
X86563794Y-68297489D01*
X86575000Y-68349000D01*
X86575000Y-69449999D01*
X86581338Y-69456337D01*
X86626792Y-69469684D01*
X86672547Y-69522488D01*
X86683260Y-69568071D01*
X86683308Y-69568067D01*
X86683347Y-69568440D01*
X86683684Y-69569873D01*
X86683770Y-69572465D01*
X86695812Y-69687039D01*
X86695812Y-69712960D01*
X86685594Y-69810189D01*
X86685593Y-69810208D01*
X86689430Y-69944494D01*
X86689431Y-69944499D01*
X86699957Y-70008967D01*
X86699958Y-70008972D01*
X86709371Y-70039934D01*
X86710036Y-70109800D01*
X86672823Y-70168936D01*
X86609547Y-70198564D01*
X86590732Y-70200000D01*
X86209356Y-70200000D01*
X86172510Y-70202899D01*
X86009093Y-70250376D01*
X85939224Y-70250176D01*
X85880554Y-70212233D01*
X85851711Y-70148595D01*
X85850499Y-70131313D01*
X85850499Y-69566757D01*
X85870184Y-69499720D01*
X85922988Y-69453965D01*
X85987103Y-69443401D01*
X86051685Y-69449999D01*
X86075000Y-69449998D01*
X86075000Y-68349000D01*
X86094685Y-68281961D01*
X86147489Y-68236206D01*
X86199000Y-68225000D01*
X86451000Y-68225000D01*
X86518039Y-68244685D01*
G37*
%TD.AperFunction*%
%TA.AperFunction,Conductor*%
G36*
X86555203Y-59209166D02*
G01*
X86561681Y-59215198D01*
X86634546Y-59288062D01*
X86695745Y-59349261D01*
X86697449Y-59350957D01*
X86813040Y-59436632D01*
X86874522Y-59469825D01*
X86874526Y-59469827D01*
X87009573Y-59519465D01*
X87009984Y-59519552D01*
X87010822Y-59519824D01*
X87013826Y-59520691D01*
X87013797Y-59520791D01*
X87034640Y-59527563D01*
X87086677Y-59550731D01*
X87109117Y-59563686D01*
X87155227Y-59597186D01*
X87174483Y-59614525D01*
X87212599Y-59656857D01*
X87227836Y-59677829D01*
X87256320Y-59727165D01*
X87266864Y-59750847D01*
X87284468Y-59805027D01*
X87289858Y-59830385D01*
X87295812Y-59887039D01*
X87295812Y-59912959D01*
X87289858Y-59969613D01*
X87284468Y-59994972D01*
X87266863Y-60049153D01*
X87256319Y-60072834D01*
X87227836Y-60122168D01*
X87212604Y-60143135D01*
X87199848Y-60157303D01*
X87186783Y-60173050D01*
X87168408Y-60197116D01*
X87162831Y-60205067D01*
X87144934Y-60230582D01*
X87085163Y-60361458D01*
X87065478Y-60428496D01*
X87065476Y-60428501D01*
X87055066Y-60500907D01*
X87046506Y-60560450D01*
X87045000Y-60570922D01*
X87045000Y-62187708D01*
X87045555Y-62204375D01*
X87046394Y-62221170D01*
X87046394Y-62221173D01*
X87046395Y-62221177D01*
X87075927Y-62360144D01*
X87076303Y-62361913D01*
X87100403Y-62427490D01*
X87100405Y-62427496D01*
X87100408Y-62427503D01*
X87168754Y-62554109D01*
X87168753Y-62554109D01*
X87270003Y-62656334D01*
X87270011Y-62656341D01*
X87325733Y-62698472D01*
X87325735Y-62698474D01*
X87325737Y-62698475D01*
X87451683Y-62768033D01*
X87592127Y-62799292D01*
X87661794Y-62804611D01*
X87661799Y-62804610D01*
X87662748Y-62804683D01*
X87663586Y-62805000D01*
X87705349Y-62805000D01*
X87828484Y-62805000D01*
X87854264Y-62807709D01*
X87909988Y-62819553D01*
X87934643Y-62827564D01*
X87986677Y-62850731D01*
X88009117Y-62863686D01*
X88055227Y-62897186D01*
X88074483Y-62914525D01*
X88112599Y-62956857D01*
X88127836Y-62977829D01*
X88156320Y-63027165D01*
X88166864Y-63050847D01*
X88184468Y-63105027D01*
X88189858Y-63130385D01*
X88195812Y-63187039D01*
X88195812Y-63212959D01*
X88189858Y-63269613D01*
X88184468Y-63294971D01*
X88166864Y-63349150D01*
X88156318Y-63372835D01*
X88151532Y-63381124D01*
X88131828Y-63406802D01*
X88007773Y-63530857D01*
X87970530Y-63556454D01*
X87934643Y-63572433D01*
X87909988Y-63580444D01*
X87854263Y-63592290D01*
X87828482Y-63595000D01*
X87675747Y-63595000D01*
X87651379Y-63597618D01*
X87620206Y-63597618D01*
X87589346Y-63602055D01*
X87551045Y-63607563D01*
X87551040Y-63607564D01*
X87551036Y-63607565D01*
X87412998Y-63648097D01*
X87412992Y-63648100D01*
X87291962Y-63725882D01*
X87291951Y-63725890D01*
X87239159Y-63771634D01*
X87144933Y-63880375D01*
X87144930Y-63880379D01*
X87085164Y-64011245D01*
X87065478Y-64078284D01*
X87065472Y-64078315D01*
X87057041Y-64136948D01*
X87028015Y-64200503D01*
X87026455Y-64202269D01*
X86967468Y-64267782D01*
X86967464Y-64267787D01*
X86872821Y-64431715D01*
X86872818Y-64431722D01*
X86840669Y-64530668D01*
X86814326Y-64611744D01*
X86805344Y-64697203D01*
X86794540Y-64800000D01*
X86814327Y-64988261D01*
X86815678Y-64994617D01*
X86814344Y-64994900D01*
X86816138Y-65057513D01*
X86780062Y-65117349D01*
X86717364Y-65148182D01*
X86696209Y-65150000D01*
X86474500Y-65150000D01*
X86407461Y-65130315D01*
X86361706Y-65077511D01*
X86350500Y-65026000D01*
X86350499Y-64377129D01*
X86350499Y-64377128D01*
X86344091Y-64317517D01*
X86344089Y-64317513D01*
X86343632Y-64313255D01*
X86343632Y-64286745D01*
X86344089Y-64282486D01*
X86344091Y-64282483D01*
X86350500Y-64222873D01*
X86350499Y-63577128D01*
X86344091Y-63517517D01*
X86344089Y-63517513D01*
X86343632Y-63513255D01*
X86343632Y-63486745D01*
X86344089Y-63482486D01*
X86344091Y-63482483D01*
X86350500Y-63422873D01*
X86350499Y-62777128D01*
X86344091Y-62717517D01*
X86344089Y-62717513D01*
X86343632Y-62713255D01*
X86343632Y-62686745D01*
X86344089Y-62682486D01*
X86344091Y-62682483D01*
X86350500Y-62622873D01*
X86350499Y-61977128D01*
X86344091Y-61917517D01*
X86344089Y-61917513D01*
X86343632Y-61913255D01*
X86343632Y-61886745D01*
X86344089Y-61882486D01*
X86344091Y-61882483D01*
X86350500Y-61822873D01*
X86350499Y-61177128D01*
X86344091Y-61117517D01*
X86344089Y-61117513D01*
X86343632Y-61113255D01*
X86343632Y-61086745D01*
X86344089Y-61082486D01*
X86344091Y-61082483D01*
X86350500Y-61022873D01*
X86350499Y-60377128D01*
X86344091Y-60317517D01*
X86344089Y-60317513D01*
X86343632Y-60313255D01*
X86343632Y-60286745D01*
X86344089Y-60282486D01*
X86344091Y-60282483D01*
X86350500Y-60222873D01*
X86350499Y-59577128D01*
X86344091Y-59517517D01*
X86344090Y-59517516D01*
X86343380Y-59510904D01*
X86343381Y-59484393D01*
X86349999Y-59422842D01*
X86350000Y-59422827D01*
X86350000Y-59302879D01*
X86369685Y-59235840D01*
X86422489Y-59190085D01*
X86491647Y-59180141D01*
X86555203Y-59209166D01*
G37*
%TD.AperFunction*%
%TA.AperFunction,Conductor*%
G36*
X95377085Y-57470185D02*
G01*
X95422840Y-57522989D01*
X95432784Y-57592147D01*
X95403759Y-57655703D01*
X95397727Y-57662181D01*
X95392456Y-57667451D01*
X95392454Y-57667454D01*
X95367856Y-57700312D01*
X95311924Y-57742182D01*
X95268591Y-57750000D01*
X95250000Y-57750000D01*
X95250000Y-57826149D01*
X95249210Y-57826149D01*
X95233908Y-57890810D01*
X95183613Y-57939309D01*
X95125047Y-57953410D01*
X95077681Y-57952979D01*
X95076883Y-57952972D01*
X95076882Y-57952972D01*
X95076879Y-57952972D01*
X95020271Y-57960585D01*
X95010472Y-57959084D01*
X94977722Y-57966045D01*
X94977715Y-57966048D01*
X94854262Y-57992290D01*
X94828480Y-57995000D01*
X94771516Y-57995000D01*
X94745736Y-57992290D01*
X94723984Y-57987666D01*
X94690010Y-57980445D01*
X94665356Y-57972434D01*
X94613325Y-57949268D01*
X94590878Y-57936308D01*
X94544777Y-57902815D01*
X94525514Y-57885472D01*
X94487397Y-57843139D01*
X94472162Y-57822169D01*
X94443678Y-57772833D01*
X94433136Y-57749155D01*
X94415530Y-57694972D01*
X94410141Y-57669617D01*
X94409913Y-57667451D01*
X94404186Y-57612956D01*
X94404186Y-57587035D01*
X94406620Y-57563877D01*
X94433205Y-57499263D01*
X94490502Y-57459278D01*
X94526982Y-57454957D01*
X94526924Y-57452943D01*
X94534143Y-57452732D01*
X94534144Y-57452733D01*
X94610898Y-57450500D01*
X95310046Y-57450500D01*
X95377085Y-57470185D01*
G37*
%TD.AperFunction*%
%TA.AperFunction,Conductor*%
G36*
X91687681Y-56003089D02*
G01*
X91699261Y-56016452D01*
X91767454Y-56107546D01*
X91767455Y-56107547D01*
X91800309Y-56132141D01*
X91842181Y-56188074D01*
X91850000Y-56231409D01*
X91850000Y-56250000D01*
X91875225Y-56250000D01*
X91942264Y-56269685D01*
X91988019Y-56322489D01*
X91998545Y-56386961D01*
X91997030Y-56401385D01*
X91989858Y-56469618D01*
X91984468Y-56494973D01*
X91981048Y-56505501D01*
X91966863Y-56549153D01*
X91956321Y-56572831D01*
X91927837Y-56622168D01*
X91912599Y-56643141D01*
X91874488Y-56685468D01*
X91855221Y-56702816D01*
X91809124Y-56736306D01*
X91786677Y-56749265D01*
X91734639Y-56772434D01*
X91709986Y-56780445D01*
X91672790Y-56788352D01*
X91654263Y-56792290D01*
X91628482Y-56795000D01*
X91571516Y-56795000D01*
X91545736Y-56792290D01*
X91523984Y-56787666D01*
X91490010Y-56780445D01*
X91465356Y-56772434D01*
X91413325Y-56749268D01*
X91390878Y-56736308D01*
X91344777Y-56702815D01*
X91325514Y-56685472D01*
X91287397Y-56643139D01*
X91272162Y-56622169D01*
X91243676Y-56572829D01*
X91233135Y-56549153D01*
X91215530Y-56494972D01*
X91210142Y-56469622D01*
X91201454Y-56386960D01*
X91214024Y-56318231D01*
X91261756Y-56267208D01*
X91324775Y-56250000D01*
X91350000Y-56250000D01*
X91350000Y-56231409D01*
X91369685Y-56164370D01*
X91399691Y-56132141D01*
X91432546Y-56107546D01*
X91500734Y-56016457D01*
X91556667Y-55974588D01*
X91626358Y-55969604D01*
X91687681Y-56003089D01*
G37*
%TD.AperFunction*%
%TA.AperFunction,Conductor*%
G36*
X100350000Y-51574999D02*
G01*
X101154220Y-51574999D01*
X101221259Y-51594684D01*
X101267014Y-51647488D01*
X101276958Y-51716646D01*
X101247934Y-51780201D01*
X101239127Y-51790365D01*
X101237169Y-51788668D01*
X101194607Y-51825533D01*
X101129437Y-51834887D01*
X101129341Y-51835832D01*
X101125551Y-51835444D01*
X101125446Y-51835460D01*
X101125107Y-51835399D01*
X101023322Y-51825000D01*
X101000000Y-51825000D01*
X101000000Y-52926000D01*
X100980315Y-52993039D01*
X100927511Y-53038794D01*
X100876000Y-53050000D01*
X100624000Y-53050000D01*
X100556961Y-53030315D01*
X100511206Y-52977511D01*
X100500000Y-52926000D01*
X100500000Y-51824999D01*
X100476693Y-51825000D01*
X100476674Y-51825001D01*
X100377392Y-51835144D01*
X100216518Y-51888452D01*
X100216507Y-51888457D01*
X100072271Y-51977424D01*
X100072265Y-51977428D01*
X100063031Y-51986663D01*
X100001707Y-52020146D01*
X99932015Y-52015159D01*
X99887672Y-51986660D01*
X99878044Y-51977032D01*
X99878040Y-51977029D01*
X99733705Y-51888001D01*
X99733699Y-51887998D01*
X99733697Y-51887997D01*
X99733694Y-51887996D01*
X99572709Y-51834651D01*
X99473346Y-51824500D01*
X98926662Y-51824500D01*
X98926639Y-51824502D01*
X98872703Y-51830011D01*
X98804011Y-51817240D01*
X98755789Y-51773693D01*
X98735068Y-51741451D01*
X98733916Y-51739912D01*
X98733690Y-51739307D01*
X98732678Y-51737732D01*
X98733020Y-51737511D01*
X98709502Y-51674447D01*
X98724356Y-51606175D01*
X98773764Y-51556771D01*
X98842037Y-51541922D01*
X98872190Y-51547900D01*
X98922302Y-51564505D01*
X99025019Y-51574999D01*
X99849999Y-51574999D01*
X99850000Y-51574998D01*
X99850000Y-50533597D01*
X99926455Y-50560350D01*
X100056476Y-50575000D01*
X100143524Y-50575000D01*
X100273545Y-50560350D01*
X100350000Y-50533597D01*
X100350000Y-51574999D01*
G37*
%TD.AperFunction*%
%TA.AperFunction,Conductor*%
G36*
X87362107Y-48950956D02*
G01*
X87402637Y-49007870D01*
X87408777Y-49035463D01*
X87414326Y-49088256D01*
X87414327Y-49088259D01*
X87472818Y-49268277D01*
X87472821Y-49268284D01*
X87567467Y-49432216D01*
X87679277Y-49556393D01*
X87694129Y-49572888D01*
X87847265Y-49684148D01*
X87847270Y-49684151D01*
X88020192Y-49761142D01*
X88020197Y-49761144D01*
X88205354Y-49800500D01*
X88205355Y-49800500D01*
X88394644Y-49800500D01*
X88394646Y-49800500D01*
X88579803Y-49761144D01*
X88752730Y-49684151D01*
X88767838Y-49673173D01*
X88833644Y-49649692D01*
X88840466Y-49649490D01*
X88883286Y-49649410D01*
X88950360Y-49668969D01*
X88996214Y-49721688D01*
X88999697Y-49730075D01*
X89016204Y-49774331D01*
X89037201Y-49802379D01*
X89061619Y-49867843D01*
X89046768Y-49936116D01*
X89003032Y-49982229D01*
X88881347Y-50057285D01*
X88881343Y-50057288D01*
X88757289Y-50181342D01*
X88665187Y-50330663D01*
X88665185Y-50330668D01*
X88653747Y-50365186D01*
X88610001Y-50497203D01*
X88610001Y-50497204D01*
X88610000Y-50497204D01*
X88599500Y-50599983D01*
X88599500Y-51800001D01*
X88599501Y-51800018D01*
X88610000Y-51902796D01*
X88610001Y-51902799D01*
X88667166Y-52075310D01*
X88669568Y-52145138D01*
X88633836Y-52205180D01*
X88583306Y-52231462D01*
X88583821Y-52233014D01*
X88416518Y-52288452D01*
X88416507Y-52288457D01*
X88272271Y-52377424D01*
X88272267Y-52377427D01*
X88262181Y-52387514D01*
X88200858Y-52420999D01*
X88131166Y-52416015D01*
X88075233Y-52374143D01*
X88050816Y-52308679D01*
X88050500Y-52299833D01*
X88050500Y-51328705D01*
X88051809Y-51310736D01*
X88055289Y-51286974D01*
X88050736Y-51234934D01*
X88050500Y-51229528D01*
X88050500Y-51221297D01*
X88050500Y-51221291D01*
X88046693Y-51188724D01*
X88045212Y-51171798D01*
X88039999Y-51112201D01*
X88038539Y-51105129D01*
X88038597Y-51105116D01*
X88036965Y-51097757D01*
X88036906Y-51097772D01*
X88035242Y-51090753D01*
X88035241Y-51090745D01*
X88008974Y-51018576D01*
X87984814Y-50945666D01*
X87984809Y-50945659D01*
X87981760Y-50939118D01*
X87981815Y-50939091D01*
X87978533Y-50932313D01*
X87978480Y-50932340D01*
X87975235Y-50925880D01*
X87933028Y-50861708D01*
X87892710Y-50796342D01*
X87888234Y-50790682D01*
X87888281Y-50790644D01*
X87883519Y-50784799D01*
X87883474Y-50784838D01*
X87878834Y-50779308D01*
X87822964Y-50726596D01*
X86638059Y-49541691D01*
X86604574Y-49480368D01*
X86609558Y-49410676D01*
X86651430Y-49354743D01*
X86706272Y-49332875D01*
X86706137Y-49332302D01*
X86710017Y-49331382D01*
X86711356Y-49330848D01*
X86713164Y-49330637D01*
X86876993Y-49271008D01*
X87022654Y-49175205D01*
X87142296Y-49048393D01*
X87178072Y-48986425D01*
X87228635Y-48938213D01*
X87297242Y-48924989D01*
X87362107Y-48950956D01*
G37*
%TD.AperFunction*%
%TA.AperFunction,Conductor*%
G36*
X80649924Y-49596451D02*
G01*
X80700329Y-49644836D01*
X80714851Y-49684943D01*
X80740668Y-49831354D01*
X80809721Y-49991438D01*
X80809722Y-49991440D01*
X80809724Y-49991443D01*
X80901327Y-50114486D01*
X80913832Y-50131283D01*
X81047386Y-50243349D01*
X81203185Y-50321594D01*
X81372829Y-50361800D01*
X81372831Y-50361800D01*
X81503429Y-50361800D01*
X81503436Y-50361800D01*
X81633164Y-50346637D01*
X81796993Y-50287008D01*
X81942654Y-50191205D01*
X82062296Y-50064393D01*
X82078533Y-50036268D01*
X82129098Y-49988053D01*
X82197705Y-49974829D01*
X82258805Y-49997950D01*
X82279553Y-50013024D01*
X82280437Y-50013666D01*
X82452155Y-50090120D01*
X82452158Y-50090120D01*
X82452159Y-50090121D01*
X82452517Y-50090197D01*
X82507149Y-50101808D01*
X82568631Y-50134999D01*
X82569051Y-50135418D01*
X82871952Y-50438319D01*
X82905437Y-50499642D01*
X82900453Y-50569334D01*
X82858581Y-50625267D01*
X82793117Y-50649684D01*
X82784271Y-50650000D01*
X82750000Y-50650000D01*
X82750000Y-51600000D01*
X83185000Y-51600000D01*
X83185000Y-51599000D01*
X83204685Y-51531961D01*
X83257489Y-51486206D01*
X83309000Y-51475000D01*
X83937408Y-51475000D01*
X83993059Y-51488190D01*
X84036558Y-51510036D01*
X84036561Y-51510037D01*
X84036567Y-51510040D01*
X84036572Y-51510041D01*
X84043355Y-51512510D01*
X84043334Y-51512567D01*
X84050451Y-51515040D01*
X84050470Y-51514984D01*
X84057330Y-51517257D01*
X84116583Y-51529491D01*
X84132532Y-51532784D01*
X84207279Y-51550500D01*
X84207288Y-51550500D01*
X84214452Y-51551338D01*
X84214445Y-51551397D01*
X84221946Y-51552163D01*
X84221952Y-51552104D01*
X84229140Y-51552733D01*
X84229143Y-51552732D01*
X84229144Y-51552733D01*
X84305898Y-51550500D01*
X84326000Y-51550500D01*
X84393039Y-51570185D01*
X84438794Y-51622989D01*
X84450000Y-51674500D01*
X84450000Y-51851000D01*
X84430315Y-51918039D01*
X84377511Y-51963794D01*
X84326000Y-51975000D01*
X83640000Y-51975000D01*
X83640000Y-51976000D01*
X83620315Y-52043039D01*
X83567511Y-52088794D01*
X83516000Y-52100000D01*
X82374000Y-52100000D01*
X82306961Y-52080315D01*
X82261206Y-52027511D01*
X82250000Y-51976000D01*
X82250000Y-50650000D01*
X81852155Y-50650000D01*
X81792627Y-50656401D01*
X81792623Y-50656402D01*
X81744046Y-50674520D01*
X81674354Y-50679503D01*
X81657382Y-50674519D01*
X81607485Y-50655909D01*
X81607483Y-50655908D01*
X81547883Y-50649501D01*
X81547881Y-50649500D01*
X81547873Y-50649500D01*
X81547865Y-50649500D01*
X80855540Y-50649500D01*
X80788501Y-50629815D01*
X80742746Y-50577011D01*
X80737614Y-50563834D01*
X80727179Y-50531716D01*
X80708661Y-50499642D01*
X80632534Y-50367785D01*
X80510532Y-50232289D01*
X80505871Y-50227112D01*
X80505867Y-50227109D01*
X80352734Y-50115851D01*
X80352730Y-50115849D01*
X80332353Y-50106776D01*
X80279117Y-50061524D01*
X80258798Y-49994674D01*
X80277845Y-49927451D01*
X80305476Y-49896554D01*
X80356146Y-49856146D01*
X80421389Y-49774335D01*
X80426466Y-49767969D01*
X80426467Y-49767966D01*
X80429753Y-49761144D01*
X80475403Y-49666351D01*
X80475404Y-49666343D01*
X80475691Y-49665527D01*
X80476024Y-49665062D01*
X80478425Y-49660077D01*
X80479298Y-49660497D01*
X80516410Y-49608749D01*
X80581362Y-49582999D01*
X80649924Y-49596451D01*
G37*
%TD.AperFunction*%
%TA.AperFunction,Conductor*%
G36*
X98240933Y-49420094D02*
G01*
X98298062Y-49460319D01*
X98324374Y-49525045D01*
X98325000Y-49537488D01*
X98325000Y-49550000D01*
X99366403Y-49550000D01*
X99339650Y-49626455D01*
X99320096Y-49800000D01*
X99339650Y-49973545D01*
X99366403Y-50050000D01*
X98325001Y-50050000D01*
X98325001Y-50874986D01*
X98335494Y-50977696D01*
X98335494Y-50977698D01*
X98390640Y-51144119D01*
X98390645Y-51144130D01*
X98482680Y-51293340D01*
X98482683Y-51293344D01*
X98495133Y-51305794D01*
X98528618Y-51367117D01*
X98523634Y-51436809D01*
X98481762Y-51492742D01*
X98416298Y-51517159D01*
X98385818Y-51515292D01*
X98385799Y-51515427D01*
X98384151Y-51515190D01*
X98383578Y-51515155D01*
X98382675Y-51514977D01*
X98268172Y-51498515D01*
X98240247Y-51494500D01*
X98062000Y-51494500D01*
X98000380Y-51500000D01*
X97972471Y-51502491D01*
X97972470Y-51502491D01*
X97946458Y-51507171D01*
X97876992Y-51499669D01*
X97822609Y-51455803D01*
X97800576Y-51389498D01*
X97800499Y-51385131D01*
X97800499Y-50999998D01*
X97800498Y-50999981D01*
X97789999Y-50897203D01*
X97789998Y-50897200D01*
X97775284Y-50852797D01*
X97734814Y-50730666D01*
X97642712Y-50581344D01*
X97518656Y-50457288D01*
X97425888Y-50400069D01*
X97369336Y-50365187D01*
X97369331Y-50365185D01*
X97359113Y-50361799D01*
X97202797Y-50310001D01*
X97202795Y-50310000D01*
X97100016Y-50299500D01*
X97100009Y-50299500D01*
X96648456Y-50299500D01*
X96581417Y-50279815D01*
X96570094Y-50271601D01*
X96540908Y-50247802D01*
X96540906Y-50247800D01*
X96510459Y-50231897D01*
X96503751Y-50227834D01*
X96475549Y-50208205D01*
X96475546Y-50208203D01*
X96475545Y-50208203D01*
X96475541Y-50208201D01*
X96419180Y-50184014D01*
X96414924Y-50181993D01*
X96360557Y-50153594D01*
X96360550Y-50153591D01*
X96360549Y-50153591D01*
X96351987Y-50151141D01*
X96327530Y-50144142D01*
X96320130Y-50141508D01*
X96288557Y-50127959D01*
X96288558Y-50127959D01*
X96228466Y-50115609D01*
X96223891Y-50114486D01*
X96164920Y-50097613D01*
X96164925Y-50097613D01*
X96130658Y-50095003D01*
X96122880Y-50093912D01*
X96089242Y-50087000D01*
X96089241Y-50087000D01*
X96027902Y-50087000D01*
X96023195Y-50086821D01*
X96017621Y-50086396D01*
X95962024Y-50082162D01*
X95942089Y-50084701D01*
X95927940Y-50086503D01*
X95920111Y-50087000D01*
X94997454Y-50087000D01*
X94930415Y-50067315D01*
X94884660Y-50014511D01*
X94874716Y-49945353D01*
X94898188Y-49888689D01*
X94983793Y-49774335D01*
X94983795Y-49774332D01*
X94983796Y-49774331D01*
X94986170Y-49767966D01*
X95001014Y-49728168D01*
X95042884Y-49672234D01*
X95108348Y-49647816D01*
X95117196Y-49647500D01*
X97539295Y-49647500D01*
X97557265Y-49648809D01*
X97581023Y-49652289D01*
X97633068Y-49647735D01*
X97638470Y-49647500D01*
X97646704Y-49647500D01*
X97646709Y-49647500D01*
X97669498Y-49644836D01*
X97679276Y-49643693D01*
X97692028Y-49642577D01*
X97755797Y-49636999D01*
X97755805Y-49636996D01*
X97762866Y-49635539D01*
X97762878Y-49635598D01*
X97770243Y-49633965D01*
X97770229Y-49633906D01*
X97777246Y-49632241D01*
X97777255Y-49632241D01*
X97849423Y-49605974D01*
X97922334Y-49581814D01*
X97922343Y-49581807D01*
X97928882Y-49578760D01*
X97928908Y-49578816D01*
X97935690Y-49575532D01*
X97935663Y-49575478D01*
X97942106Y-49572240D01*
X97942117Y-49572237D01*
X98006283Y-49530034D01*
X98071656Y-49489712D01*
X98071662Y-49489705D01*
X98077325Y-49485229D01*
X98077362Y-49485277D01*
X98083204Y-49480518D01*
X98083164Y-49480471D01*
X98088687Y-49475835D01*
X98088696Y-49475830D01*
X98110804Y-49452396D01*
X98171125Y-49417141D01*
X98240933Y-49420094D01*
G37*
%TD.AperFunction*%
%TA.AperFunction,Conductor*%
G36*
X102503455Y-46000889D02*
G01*
X102516485Y-46002357D01*
X102526354Y-46003470D01*
X102568982Y-46009081D01*
X102605831Y-46013932D01*
X102630599Y-46019830D01*
X102664736Y-46031775D01*
X102667976Y-46033011D01*
X102722195Y-46055469D01*
X102740695Y-46065027D01*
X102775520Y-46086909D01*
X102780267Y-46090212D01*
X102828200Y-46126993D01*
X102834295Y-46132337D01*
X102867660Y-46165702D01*
X102873005Y-46171798D01*
X102909786Y-46219731D01*
X102913097Y-46224490D01*
X102934967Y-46259296D01*
X102944536Y-46277818D01*
X102966983Y-46332014D01*
X102968223Y-46335263D01*
X102980169Y-46369401D01*
X102986066Y-46394169D01*
X102996530Y-46473647D01*
X102999110Y-46496538D01*
X102999500Y-46503486D01*
X102999500Y-48473252D01*
X102987205Y-48515123D01*
X102998284Y-48539552D01*
X102999500Y-48556877D01*
X102999500Y-50338770D01*
X102979815Y-50405809D01*
X102927011Y-50451564D01*
X102857853Y-50461508D01*
X102794297Y-50432483D01*
X102787819Y-50426451D01*
X102786819Y-50425451D01*
X102753334Y-50364128D01*
X102750500Y-50337770D01*
X102750500Y-48563705D01*
X102751809Y-48545736D01*
X102752809Y-48538908D01*
X102762592Y-48517631D01*
X102756523Y-48508187D01*
X102751972Y-48484059D01*
X102750736Y-48469934D01*
X102750500Y-48464528D01*
X102750500Y-48456297D01*
X102750500Y-48456291D01*
X102746693Y-48423724D01*
X102743275Y-48384647D01*
X102739999Y-48347201D01*
X102738539Y-48340129D01*
X102738597Y-48340116D01*
X102736965Y-48332757D01*
X102736906Y-48332772D01*
X102735242Y-48325753D01*
X102735241Y-48325745D01*
X102708974Y-48253576D01*
X102684814Y-48180666D01*
X102684809Y-48180659D01*
X102681760Y-48174118D01*
X102681815Y-48174091D01*
X102678533Y-48167313D01*
X102678480Y-48167340D01*
X102675235Y-48160880D01*
X102633028Y-48096708D01*
X102613735Y-48065429D01*
X102592712Y-48031345D01*
X102592711Y-48031344D01*
X102592710Y-48031342D01*
X102588234Y-48025682D01*
X102588281Y-48025644D01*
X102583519Y-48019799D01*
X102583474Y-48019838D01*
X102578834Y-48014309D01*
X102578832Y-48014307D01*
X102578830Y-48014304D01*
X102548061Y-47985275D01*
X102522966Y-47961598D01*
X102075729Y-47514361D01*
X102063949Y-47500730D01*
X102056482Y-47490701D01*
X102049612Y-47481472D01*
X102044323Y-47477034D01*
X102009587Y-47447886D01*
X102005612Y-47444244D01*
X102002690Y-47441322D01*
X101999780Y-47438411D01*
X101974040Y-47418059D01*
X101966484Y-47411719D01*
X101915214Y-47368698D01*
X101915213Y-47368697D01*
X101915209Y-47368694D01*
X101909180Y-47364729D01*
X101909212Y-47364680D01*
X101902853Y-47360628D01*
X101902822Y-47360679D01*
X101896680Y-47356891D01*
X101896678Y-47356890D01*
X101896677Y-47356889D01*
X101857474Y-47338608D01*
X101827058Y-47324424D01*
X101792894Y-47307267D01*
X101758433Y-47289960D01*
X101758431Y-47289959D01*
X101758430Y-47289959D01*
X101751645Y-47287489D01*
X101751665Y-47287433D01*
X101744549Y-47284959D01*
X101744531Y-47285015D01*
X101737671Y-47282742D01*
X101709841Y-47276996D01*
X101662434Y-47267207D01*
X101609662Y-47254700D01*
X101587719Y-47249499D01*
X101580547Y-47248661D01*
X101580553Y-47248601D01*
X101573055Y-47247835D01*
X101573050Y-47247895D01*
X101565860Y-47247265D01*
X101489083Y-47249500D01*
X98563705Y-47249500D01*
X98545735Y-47248191D01*
X98521972Y-47244710D01*
X98477512Y-47248601D01*
X98469931Y-47249264D01*
X98464530Y-47249500D01*
X98456289Y-47249500D01*
X98434579Y-47252037D01*
X98423724Y-47253306D01*
X98408419Y-47254645D01*
X98347199Y-47260001D01*
X98340132Y-47261460D01*
X98340120Y-47261404D01*
X98332763Y-47263035D01*
X98332777Y-47263092D01*
X98325743Y-47264759D01*
X98253575Y-47291025D01*
X98180675Y-47315181D01*
X98174126Y-47318236D01*
X98174101Y-47318183D01*
X98167308Y-47321471D01*
X98167334Y-47321523D01*
X98160880Y-47324764D01*
X98096708Y-47366971D01*
X98031347Y-47407285D01*
X98025683Y-47411765D01*
X98025647Y-47411719D01*
X98019798Y-47416484D01*
X98019835Y-47416528D01*
X98014310Y-47421164D01*
X98014304Y-47421169D01*
X98014304Y-47421170D01*
X97989092Y-47447893D01*
X97961598Y-47477034D01*
X97328451Y-48110181D01*
X97267128Y-48143666D01*
X97240770Y-48146500D01*
X95117196Y-48146500D01*
X95050157Y-48126815D01*
X95004402Y-48074011D01*
X95000901Y-48065529D01*
X95000864Y-48065429D01*
X94996062Y-47995725D01*
X95029708Y-47934489D01*
X95091118Y-47901165D01*
X95117159Y-47898400D01*
X95128200Y-47898400D01*
X95128200Y-47254700D01*
X95628200Y-47254700D01*
X95628200Y-47898400D01*
X96149928Y-47898400D01*
X96149944Y-47898399D01*
X96209472Y-47891998D01*
X96209479Y-47891996D01*
X96344186Y-47841754D01*
X96344193Y-47841750D01*
X96459287Y-47755590D01*
X96459290Y-47755587D01*
X96545450Y-47640493D01*
X96545454Y-47640486D01*
X96595696Y-47505779D01*
X96595698Y-47505772D01*
X96602099Y-47446244D01*
X96602100Y-47446227D01*
X96602100Y-47254700D01*
X95628200Y-47254700D01*
X95128200Y-47254700D01*
X95128200Y-46878700D01*
X95147885Y-46811661D01*
X95200689Y-46765906D01*
X95252200Y-46754700D01*
X96602100Y-46754700D01*
X96602100Y-46563172D01*
X96602099Y-46563155D01*
X96595698Y-46503627D01*
X96595696Y-46503620D01*
X96545454Y-46368913D01*
X96545450Y-46368906D01*
X96459290Y-46253812D01*
X96419154Y-46223766D01*
X96377284Y-46167832D01*
X96372300Y-46098141D01*
X96405786Y-46036818D01*
X96467109Y-46003333D01*
X96493466Y-46000500D01*
X102496518Y-46000500D01*
X102503455Y-46000889D01*
G37*
%TD.AperFunction*%
%TA.AperFunction,Conductor*%
G36*
X94329973Y-46020185D02*
G01*
X94375728Y-46072989D01*
X94385672Y-46142147D01*
X94356647Y-46205703D01*
X94337246Y-46223766D01*
X94297109Y-46253812D01*
X94210949Y-46368906D01*
X94210945Y-46368913D01*
X94160703Y-46503620D01*
X94160701Y-46503627D01*
X94154300Y-46563155D01*
X94154300Y-46875724D01*
X94134615Y-46942763D01*
X94081811Y-46988518D01*
X94012653Y-46998462D01*
X93949097Y-46969437D01*
X93922913Y-46937724D01*
X93908633Y-46912991D01*
X93882533Y-46867784D01*
X93755871Y-46727112D01*
X93755870Y-46727111D01*
X93602734Y-46615851D01*
X93602729Y-46615848D01*
X93429807Y-46538857D01*
X93429802Y-46538855D01*
X93264029Y-46503620D01*
X93244646Y-46499500D01*
X93055354Y-46499500D01*
X93035971Y-46503620D01*
X92870197Y-46538855D01*
X92870192Y-46538857D01*
X92697270Y-46615848D01*
X92697265Y-46615851D01*
X92544129Y-46727111D01*
X92417466Y-46867785D01*
X92322821Y-47031715D01*
X92322818Y-47031722D01*
X92264327Y-47211740D01*
X92264326Y-47211744D01*
X92244540Y-47400000D01*
X92264326Y-47588256D01*
X92264327Y-47588259D01*
X92322818Y-47768277D01*
X92322821Y-47768284D01*
X92417467Y-47932216D01*
X92519655Y-48045707D01*
X92544129Y-48072888D01*
X92697265Y-48184148D01*
X92697270Y-48184151D01*
X92870192Y-48261142D01*
X92870193Y-48261142D01*
X92870197Y-48261144D01*
X93052281Y-48299847D01*
X93113762Y-48333038D01*
X93147539Y-48394201D01*
X93150500Y-48421136D01*
X93150500Y-49579870D01*
X93150501Y-49579876D01*
X93156908Y-49639483D01*
X93207202Y-49774328D01*
X93207206Y-49774335D01*
X93293452Y-49889544D01*
X93293455Y-49889547D01*
X93393168Y-49964193D01*
X93435039Y-50020127D01*
X93440023Y-50089818D01*
X93406537Y-50151141D01*
X93383954Y-50168998D01*
X93281342Y-50232289D01*
X93276909Y-50235795D01*
X93212113Y-50261934D01*
X93143471Y-50248892D01*
X93123091Y-50235795D01*
X93118657Y-50232289D01*
X93118656Y-50232288D01*
X92991067Y-50153591D01*
X92969336Y-50140187D01*
X92969331Y-50140185D01*
X92945671Y-50132345D01*
X92802797Y-50085001D01*
X92802795Y-50085000D01*
X92700010Y-50074500D01*
X91699998Y-50074500D01*
X91699980Y-50074501D01*
X91590468Y-50085689D01*
X91590432Y-50085339D01*
X91574742Y-50087000D01*
X90999333Y-50087000D01*
X90932294Y-50067315D01*
X90922422Y-50060266D01*
X90918658Y-50057289D01*
X90858408Y-50020127D01*
X90803123Y-49986027D01*
X90756400Y-49934080D01*
X90745177Y-49865117D01*
X90768955Y-49806178D01*
X90792796Y-49774331D01*
X90843091Y-49639483D01*
X90849500Y-49579873D01*
X90849499Y-48421135D01*
X90869184Y-48354097D01*
X90921987Y-48308342D01*
X90947703Y-48299850D01*
X91129803Y-48261144D01*
X91129807Y-48261142D01*
X91129808Y-48261142D01*
X91206239Y-48227112D01*
X91302730Y-48184151D01*
X91455871Y-48072888D01*
X91582533Y-47932216D01*
X91677179Y-47768284D01*
X91735674Y-47588256D01*
X91755460Y-47400000D01*
X91735674Y-47211744D01*
X91677179Y-47031716D01*
X91582533Y-46867784D01*
X91455871Y-46727112D01*
X91455870Y-46727111D01*
X91302734Y-46615851D01*
X91302729Y-46615848D01*
X91129807Y-46538857D01*
X91129802Y-46538855D01*
X90964029Y-46503620D01*
X90944646Y-46499500D01*
X90755354Y-46499500D01*
X90735971Y-46503620D01*
X90570197Y-46538855D01*
X90570192Y-46538857D01*
X90397270Y-46615848D01*
X90397265Y-46615851D01*
X90244129Y-46727111D01*
X90117466Y-46867785D01*
X90077087Y-46937724D01*
X90026520Y-46985939D01*
X89957913Y-46999163D01*
X89893048Y-46973195D01*
X89852520Y-46916281D01*
X89845700Y-46875724D01*
X89845700Y-46563172D01*
X89845699Y-46563155D01*
X89839298Y-46503627D01*
X89839296Y-46503620D01*
X89789054Y-46368913D01*
X89789050Y-46368906D01*
X89702890Y-46253812D01*
X89662754Y-46223766D01*
X89620884Y-46167832D01*
X89615900Y-46098141D01*
X89649386Y-46036818D01*
X89710709Y-46003333D01*
X89737066Y-46000500D01*
X94262934Y-46000500D01*
X94329973Y-46020185D01*
G37*
%TD.AperFunction*%
%TA.AperFunction,Conductor*%
G36*
X87573573Y-46020185D02*
G01*
X87619328Y-46072989D01*
X87629272Y-46142147D01*
X87600247Y-46205703D01*
X87580846Y-46223766D01*
X87540709Y-46253812D01*
X87454549Y-46368906D01*
X87454545Y-46368913D01*
X87404303Y-46503620D01*
X87404301Y-46503627D01*
X87397900Y-46563155D01*
X87397900Y-46754700D01*
X88747800Y-46754700D01*
X88814839Y-46774385D01*
X88860594Y-46827189D01*
X88871800Y-46878700D01*
X88871800Y-47130700D01*
X88852115Y-47197739D01*
X88799311Y-47243494D01*
X88747800Y-47254700D01*
X87397900Y-47254700D01*
X87397900Y-47446244D01*
X87404301Y-47505772D01*
X87404303Y-47505779D01*
X87454545Y-47640486D01*
X87454549Y-47640493D01*
X87540709Y-47755587D01*
X87540712Y-47755590D01*
X87655806Y-47841750D01*
X87655813Y-47841754D01*
X87790520Y-47891996D01*
X87798068Y-47893780D01*
X87797632Y-47895624D01*
X87852848Y-47918492D01*
X87892700Y-47975882D01*
X87895198Y-48045707D01*
X87859549Y-48105798D01*
X87847934Y-48115366D01*
X87694127Y-48227113D01*
X87567465Y-48367785D01*
X87499487Y-48485527D01*
X87448920Y-48533743D01*
X87380313Y-48546965D01*
X87315448Y-48520997D01*
X87274920Y-48464083D01*
X87269985Y-48445064D01*
X87259332Y-48384646D01*
X87190279Y-48224562D01*
X87180442Y-48211349D01*
X87086167Y-48084716D01*
X86952614Y-47972651D01*
X86952612Y-47972650D01*
X86796818Y-47894407D01*
X86796816Y-47894406D01*
X86796815Y-47894406D01*
X86627171Y-47854200D01*
X86496564Y-47854200D01*
X86383052Y-47867467D01*
X86366835Y-47869363D01*
X86366831Y-47869364D01*
X86315869Y-47887913D01*
X86246140Y-47892344D01*
X86185084Y-47858373D01*
X86152087Y-47796786D01*
X86150140Y-47784362D01*
X86149478Y-47778061D01*
X86091392Y-47599293D01*
X86053497Y-47533658D01*
X86037025Y-47465759D01*
X86053499Y-47409657D01*
X86057179Y-47403284D01*
X86115674Y-47223256D01*
X86135460Y-47035000D01*
X86115674Y-46846744D01*
X86057179Y-46666716D01*
X85962533Y-46502784D01*
X85835871Y-46362112D01*
X85835870Y-46362111D01*
X85682734Y-46250851D01*
X85682732Y-46250850D01*
X85682730Y-46250849D01*
X85653373Y-46237778D01*
X85600138Y-46192528D01*
X85579817Y-46125679D01*
X85598863Y-46058456D01*
X85651229Y-46012201D01*
X85703811Y-46000500D01*
X87506534Y-46000500D01*
X87573573Y-46020185D01*
G37*
%TD.AperFunction*%
%TA.AperFunction,Conductor*%
G36*
X84823228Y-46020185D02*
G01*
X84868983Y-46072989D01*
X84878927Y-46142147D01*
X84849902Y-46205703D01*
X84806626Y-46237778D01*
X84792950Y-46243867D01*
X84777267Y-46250850D01*
X84777265Y-46250851D01*
X84624129Y-46362111D01*
X84497466Y-46502785D01*
X84402821Y-46666715D01*
X84402818Y-46666722D01*
X84347102Y-46838200D01*
X84344326Y-46846744D01*
X84331431Y-46969437D01*
X84330164Y-46981492D01*
X84303579Y-47046106D01*
X84246282Y-47086091D01*
X84181062Y-47089820D01*
X84093932Y-47071300D01*
X83906067Y-47071300D01*
X83779810Y-47098136D01*
X83710143Y-47092820D01*
X83654410Y-47050683D01*
X83630710Y-46989811D01*
X83615674Y-46846744D01*
X83557179Y-46666716D01*
X83462533Y-46502784D01*
X83335871Y-46362112D01*
X83335870Y-46362111D01*
X83182734Y-46250851D01*
X83182732Y-46250850D01*
X83182730Y-46250849D01*
X83153373Y-46237778D01*
X83100138Y-46192528D01*
X83079817Y-46125679D01*
X83098863Y-46058456D01*
X83151229Y-46012201D01*
X83203811Y-46000500D01*
X84756189Y-46000500D01*
X84823228Y-46020185D01*
G37*
%TD.AperFunction*%
%TD*%
M02*
