M48
; DRILL file {KiCad 7.0.9-7.0.9~ubuntu23.10.1} date mer. 10 janv. 2024 03:53:06
; FORMAT={-:-/ absolute / metric / decimal}
; #@! TF.CreationDate,2024-01-10T03:53:06+01:00
; #@! TF.GenerationSoftware,Kicad,Pcbnew,7.0.9-7.0.9~ubuntu23.10.1
; #@! TF.FileFunction,MixedPlating,1,4
FMAT,2
METRIC
; #@! TA.AperFunction,Plated,PTH,ViaDrill
T1C0.400
; #@! TA.AperFunction,Plated,PTH,ComponentDrill
T2C0.600
; #@! TA.AperFunction,Plated,PTH,ComponentDrill
T3C1.000
; #@! TA.AperFunction,Plated,PTH,ComponentDrill
T4C1.550
; #@! TA.AperFunction,NonPlated,NPTH,ComponentDrill
T5C0.762
; #@! TA.AperFunction,NonPlated,NPTH,ComponentDrill
T6C0.991
%
G90
G05
T1
X78.8Y-80.9
X79.0Y-77.6
X79.9Y-50.9
X79.9Y-84.1
X80.0Y-55.4
X80.0Y-67.6
X80.0Y-68.5
X80.8Y-69.7
X81.22Y-77.653
X81.6Y-55.7
X81.8Y-62.2
X81.9Y-61.0
X82.4Y-77.7
X82.5Y-50.6
X82.73Y-47.035
X83.1Y-68.5
X83.5Y-57.5
X83.6Y-78.8
X83.8Y-82.0
X84.03Y-47.035
X84.3Y-75.7
X85.0Y-66.7
X85.23Y-47.035
X85.9Y-74.4
X86.3Y-69.7
X86.8Y-58.3
X86.9Y-59.9
X87.7Y-64.8
X87.8Y-63.2
X88.3Y-48.9
X88.5Y-52.2
X90.2Y-64.7
X91.6Y-56.4
X92.0Y-64.7
X94.0Y-64.7
X94.1Y-56.5
X94.8Y-57.6
X97.9Y-65.7
X98.4Y-62.2
X99.6Y-71.0
X101.2Y-72.2
X103.0Y-51.7
X103.7Y-75.2
X104.9Y-72.6
T2
X89.9Y-51.2
X96.5Y-51.6
X100.7Y-67.7
T3
X80.0Y-56.975
X80.0Y-59.515
X80.0Y-62.055
X85.0Y-80.0
X87.54Y-80.0
X88.92Y-76.3
X90.08Y-80.0
X91.46Y-76.3
X92.62Y-80.0
X94.0Y-76.3
X95.16Y-80.0
X104.0Y-57.445
X104.0Y-59.985
X104.0Y-62.525
T4
X94.8Y-69.2
X100.0Y-55.75
X100.1Y-49.8
T5
X90.85Y-47.4
X93.15Y-47.4
T6
X81.46Y-47.584
X81.46Y-49.616
X86.54Y-48.6
T0
M30
