%TF.GenerationSoftware,KiCad,Pcbnew,(7.0.0)*%
%TF.CreationDate,2024-01-10T08:15:57+01:00*%
%TF.ProjectId,LED_poi,4c45445f-706f-4692-9e6b-696361645f70,A*%
%TF.SameCoordinates,Original*%
%TF.FileFunction,Legend,Top*%
%TF.FilePolarity,Positive*%
%FSLAX46Y46*%
G04 Gerber Fmt 4.6, Leading zero omitted, Abs format (unit mm)*
G04 Created by KiCad (PCBNEW (7.0.0)) date 2024-01-10 08:15:57*
%MOMM*%
%LPD*%
G01*
G04 APERTURE LIST*
%ADD10C,0.150000*%
%ADD11C,0.106250*%
%ADD12C,0.100000*%
%ADD13C,0.120000*%
%ADD14C,0.152400*%
G04 APERTURE END LIST*
D10*
%TO.C,J11*%
X97590476Y-79367380D02*
X97590476Y-80081666D01*
X97590476Y-80081666D02*
X97542857Y-80224523D01*
X97542857Y-80224523D02*
X97447619Y-80319761D01*
X97447619Y-80319761D02*
X97304762Y-80367380D01*
X97304762Y-80367380D02*
X97209524Y-80367380D01*
X98590476Y-80367380D02*
X98019048Y-80367380D01*
X98304762Y-80367380D02*
X98304762Y-79367380D01*
X98304762Y-79367380D02*
X98209524Y-79510238D01*
X98209524Y-79510238D02*
X98114286Y-79605476D01*
X98114286Y-79605476D02*
X98019048Y-79653095D01*
X99542857Y-80367380D02*
X98971429Y-80367380D01*
X99257143Y-80367380D02*
X99257143Y-79367380D01*
X99257143Y-79367380D02*
X99161905Y-79510238D01*
X99161905Y-79510238D02*
X99066667Y-79605476D01*
X99066667Y-79605476D02*
X98971429Y-79653095D01*
D11*
X84608571Y-82271798D02*
X84730000Y-82312274D01*
X84730000Y-82312274D02*
X84932381Y-82312274D01*
X84932381Y-82312274D02*
X85013333Y-82271798D01*
X85013333Y-82271798D02*
X85053809Y-82231322D01*
X85053809Y-82231322D02*
X85094286Y-82150370D01*
X85094286Y-82150370D02*
X85094286Y-82069417D01*
X85094286Y-82069417D02*
X85053809Y-81988465D01*
X85053809Y-81988465D02*
X85013333Y-81947989D01*
X85013333Y-81947989D02*
X84932381Y-81907512D01*
X84932381Y-81907512D02*
X84770476Y-81867036D01*
X84770476Y-81867036D02*
X84689524Y-81826560D01*
X84689524Y-81826560D02*
X84649047Y-81786084D01*
X84649047Y-81786084D02*
X84608571Y-81705131D01*
X84608571Y-81705131D02*
X84608571Y-81624179D01*
X84608571Y-81624179D02*
X84649047Y-81543227D01*
X84649047Y-81543227D02*
X84689524Y-81502751D01*
X84689524Y-81502751D02*
X84770476Y-81462274D01*
X84770476Y-81462274D02*
X84972857Y-81462274D01*
X84972857Y-81462274D02*
X85094286Y-81502751D01*
X85944286Y-82231322D02*
X85903810Y-82271798D01*
X85903810Y-82271798D02*
X85782381Y-82312274D01*
X85782381Y-82312274D02*
X85701429Y-82312274D01*
X85701429Y-82312274D02*
X85580000Y-82271798D01*
X85580000Y-82271798D02*
X85499048Y-82190846D01*
X85499048Y-82190846D02*
X85458571Y-82109893D01*
X85458571Y-82109893D02*
X85418095Y-81947989D01*
X85418095Y-81947989D02*
X85418095Y-81826560D01*
X85418095Y-81826560D02*
X85458571Y-81664655D01*
X85458571Y-81664655D02*
X85499048Y-81583703D01*
X85499048Y-81583703D02*
X85580000Y-81502751D01*
X85580000Y-81502751D02*
X85701429Y-81462274D01*
X85701429Y-81462274D02*
X85782381Y-81462274D01*
X85782381Y-81462274D02*
X85903810Y-81502751D01*
X85903810Y-81502751D02*
X85944286Y-81543227D01*
X86713333Y-82312274D02*
X86308571Y-82312274D01*
X86308571Y-82312274D02*
X86308571Y-81462274D01*
X87466190Y-82271798D02*
X87587619Y-82312274D01*
X87587619Y-82312274D02*
X87790000Y-82312274D01*
X87790000Y-82312274D02*
X87870952Y-82271798D01*
X87870952Y-82271798D02*
X87911428Y-82231322D01*
X87911428Y-82231322D02*
X87951905Y-82150370D01*
X87951905Y-82150370D02*
X87951905Y-82069417D01*
X87951905Y-82069417D02*
X87911428Y-81988465D01*
X87911428Y-81988465D02*
X87870952Y-81947989D01*
X87870952Y-81947989D02*
X87790000Y-81907512D01*
X87790000Y-81907512D02*
X87628095Y-81867036D01*
X87628095Y-81867036D02*
X87547143Y-81826560D01*
X87547143Y-81826560D02*
X87506666Y-81786084D01*
X87506666Y-81786084D02*
X87466190Y-81705131D01*
X87466190Y-81705131D02*
X87466190Y-81624179D01*
X87466190Y-81624179D02*
X87506666Y-81543227D01*
X87506666Y-81543227D02*
X87547143Y-81502751D01*
X87547143Y-81502751D02*
X87628095Y-81462274D01*
X87628095Y-81462274D02*
X87830476Y-81462274D01*
X87830476Y-81462274D02*
X87951905Y-81502751D01*
X88316190Y-82312274D02*
X88316190Y-81462274D01*
X88316190Y-81462274D02*
X88518571Y-81462274D01*
X88518571Y-81462274D02*
X88640000Y-81502751D01*
X88640000Y-81502751D02*
X88720952Y-81583703D01*
X88720952Y-81583703D02*
X88761429Y-81664655D01*
X88761429Y-81664655D02*
X88801905Y-81826560D01*
X88801905Y-81826560D02*
X88801905Y-81947989D01*
X88801905Y-81947989D02*
X88761429Y-82109893D01*
X88761429Y-82109893D02*
X88720952Y-82190846D01*
X88720952Y-82190846D02*
X88640000Y-82271798D01*
X88640000Y-82271798D02*
X88518571Y-82312274D01*
X88518571Y-82312274D02*
X88316190Y-82312274D01*
X89125714Y-82069417D02*
X89530476Y-82069417D01*
X89044762Y-82312274D02*
X89328095Y-81462274D01*
X89328095Y-81462274D02*
X89611429Y-82312274D01*
X90323809Y-81462274D02*
X90850000Y-81462274D01*
X90850000Y-81462274D02*
X90566666Y-81786084D01*
X90566666Y-81786084D02*
X90688095Y-81786084D01*
X90688095Y-81786084D02*
X90769047Y-81826560D01*
X90769047Y-81826560D02*
X90809523Y-81867036D01*
X90809523Y-81867036D02*
X90850000Y-81947989D01*
X90850000Y-81947989D02*
X90850000Y-82150370D01*
X90850000Y-82150370D02*
X90809523Y-82231322D01*
X90809523Y-82231322D02*
X90769047Y-82271798D01*
X90769047Y-82271798D02*
X90688095Y-82312274D01*
X90688095Y-82312274D02*
X90445238Y-82312274D01*
X90445238Y-82312274D02*
X90364285Y-82271798D01*
X90364285Y-82271798D02*
X90323809Y-82231322D01*
X91092857Y-81462274D02*
X91376190Y-82312274D01*
X91376190Y-82312274D02*
X91659524Y-81462274D01*
X92898095Y-81502751D02*
X92817142Y-81462274D01*
X92817142Y-81462274D02*
X92695714Y-81462274D01*
X92695714Y-81462274D02*
X92574285Y-81502751D01*
X92574285Y-81502751D02*
X92493333Y-81583703D01*
X92493333Y-81583703D02*
X92452856Y-81664655D01*
X92452856Y-81664655D02*
X92412380Y-81826560D01*
X92412380Y-81826560D02*
X92412380Y-81947989D01*
X92412380Y-81947989D02*
X92452856Y-82109893D01*
X92452856Y-82109893D02*
X92493333Y-82190846D01*
X92493333Y-82190846D02*
X92574285Y-82271798D01*
X92574285Y-82271798D02*
X92695714Y-82312274D01*
X92695714Y-82312274D02*
X92776666Y-82312274D01*
X92776666Y-82312274D02*
X92898095Y-82271798D01*
X92898095Y-82271798D02*
X92938571Y-82231322D01*
X92938571Y-82231322D02*
X92938571Y-81947989D01*
X92938571Y-81947989D02*
X92776666Y-81947989D01*
X93812856Y-82312274D02*
X93812856Y-81462274D01*
X94217618Y-82312274D02*
X94217618Y-81462274D01*
X94217618Y-81462274D02*
X94703333Y-82312274D01*
X94703333Y-82312274D02*
X94703333Y-81462274D01*
X94986666Y-81462274D02*
X95472380Y-81462274D01*
X95229523Y-82312274D02*
X95229523Y-81462274D01*
D10*
%TO.C,C8*%
X78833333Y-55072142D02*
X78785714Y-55119761D01*
X78785714Y-55119761D02*
X78642857Y-55167380D01*
X78642857Y-55167380D02*
X78547619Y-55167380D01*
X78547619Y-55167380D02*
X78404762Y-55119761D01*
X78404762Y-55119761D02*
X78309524Y-55024523D01*
X78309524Y-55024523D02*
X78261905Y-54929285D01*
X78261905Y-54929285D02*
X78214286Y-54738809D01*
X78214286Y-54738809D02*
X78214286Y-54595952D01*
X78214286Y-54595952D02*
X78261905Y-54405476D01*
X78261905Y-54405476D02*
X78309524Y-54310238D01*
X78309524Y-54310238D02*
X78404762Y-54215000D01*
X78404762Y-54215000D02*
X78547619Y-54167380D01*
X78547619Y-54167380D02*
X78642857Y-54167380D01*
X78642857Y-54167380D02*
X78785714Y-54215000D01*
X78785714Y-54215000D02*
X78833333Y-54262619D01*
X79404762Y-54595952D02*
X79309524Y-54548333D01*
X79309524Y-54548333D02*
X79261905Y-54500714D01*
X79261905Y-54500714D02*
X79214286Y-54405476D01*
X79214286Y-54405476D02*
X79214286Y-54357857D01*
X79214286Y-54357857D02*
X79261905Y-54262619D01*
X79261905Y-54262619D02*
X79309524Y-54215000D01*
X79309524Y-54215000D02*
X79404762Y-54167380D01*
X79404762Y-54167380D02*
X79595238Y-54167380D01*
X79595238Y-54167380D02*
X79690476Y-54215000D01*
X79690476Y-54215000D02*
X79738095Y-54262619D01*
X79738095Y-54262619D02*
X79785714Y-54357857D01*
X79785714Y-54357857D02*
X79785714Y-54405476D01*
X79785714Y-54405476D02*
X79738095Y-54500714D01*
X79738095Y-54500714D02*
X79690476Y-54548333D01*
X79690476Y-54548333D02*
X79595238Y-54595952D01*
X79595238Y-54595952D02*
X79404762Y-54595952D01*
X79404762Y-54595952D02*
X79309524Y-54643571D01*
X79309524Y-54643571D02*
X79261905Y-54691190D01*
X79261905Y-54691190D02*
X79214286Y-54786428D01*
X79214286Y-54786428D02*
X79214286Y-54976904D01*
X79214286Y-54976904D02*
X79261905Y-55072142D01*
X79261905Y-55072142D02*
X79309524Y-55119761D01*
X79309524Y-55119761D02*
X79404762Y-55167380D01*
X79404762Y-55167380D02*
X79595238Y-55167380D01*
X79595238Y-55167380D02*
X79690476Y-55119761D01*
X79690476Y-55119761D02*
X79738095Y-55072142D01*
X79738095Y-55072142D02*
X79785714Y-54976904D01*
X79785714Y-54976904D02*
X79785714Y-54786428D01*
X79785714Y-54786428D02*
X79738095Y-54691190D01*
X79738095Y-54691190D02*
X79690476Y-54643571D01*
X79690476Y-54643571D02*
X79595238Y-54595952D01*
%TO.C,Q2*%
X85904761Y-77062619D02*
X85809523Y-77015000D01*
X85809523Y-77015000D02*
X85714285Y-76919761D01*
X85714285Y-76919761D02*
X85571428Y-76776904D01*
X85571428Y-76776904D02*
X85476190Y-76729285D01*
X85476190Y-76729285D02*
X85380952Y-76729285D01*
X85428571Y-76967380D02*
X85333333Y-76919761D01*
X85333333Y-76919761D02*
X85238095Y-76824523D01*
X85238095Y-76824523D02*
X85190476Y-76634047D01*
X85190476Y-76634047D02*
X85190476Y-76300714D01*
X85190476Y-76300714D02*
X85238095Y-76110238D01*
X85238095Y-76110238D02*
X85333333Y-76015000D01*
X85333333Y-76015000D02*
X85428571Y-75967380D01*
X85428571Y-75967380D02*
X85619047Y-75967380D01*
X85619047Y-75967380D02*
X85714285Y-76015000D01*
X85714285Y-76015000D02*
X85809523Y-76110238D01*
X85809523Y-76110238D02*
X85857142Y-76300714D01*
X85857142Y-76300714D02*
X85857142Y-76634047D01*
X85857142Y-76634047D02*
X85809523Y-76824523D01*
X85809523Y-76824523D02*
X85714285Y-76919761D01*
X85714285Y-76919761D02*
X85619047Y-76967380D01*
X85619047Y-76967380D02*
X85428571Y-76967380D01*
X86238095Y-76062619D02*
X86285714Y-76015000D01*
X86285714Y-76015000D02*
X86380952Y-75967380D01*
X86380952Y-75967380D02*
X86619047Y-75967380D01*
X86619047Y-75967380D02*
X86714285Y-76015000D01*
X86714285Y-76015000D02*
X86761904Y-76062619D01*
X86761904Y-76062619D02*
X86809523Y-76157857D01*
X86809523Y-76157857D02*
X86809523Y-76253095D01*
X86809523Y-76253095D02*
X86761904Y-76395952D01*
X86761904Y-76395952D02*
X86190476Y-76967380D01*
X86190476Y-76967380D02*
X86809523Y-76967380D01*
%TO.C,C3*%
X100633333Y-62472142D02*
X100585714Y-62519761D01*
X100585714Y-62519761D02*
X100442857Y-62567380D01*
X100442857Y-62567380D02*
X100347619Y-62567380D01*
X100347619Y-62567380D02*
X100204762Y-62519761D01*
X100204762Y-62519761D02*
X100109524Y-62424523D01*
X100109524Y-62424523D02*
X100061905Y-62329285D01*
X100061905Y-62329285D02*
X100014286Y-62138809D01*
X100014286Y-62138809D02*
X100014286Y-61995952D01*
X100014286Y-61995952D02*
X100061905Y-61805476D01*
X100061905Y-61805476D02*
X100109524Y-61710238D01*
X100109524Y-61710238D02*
X100204762Y-61615000D01*
X100204762Y-61615000D02*
X100347619Y-61567380D01*
X100347619Y-61567380D02*
X100442857Y-61567380D01*
X100442857Y-61567380D02*
X100585714Y-61615000D01*
X100585714Y-61615000D02*
X100633333Y-61662619D01*
X100966667Y-61567380D02*
X101585714Y-61567380D01*
X101585714Y-61567380D02*
X101252381Y-61948333D01*
X101252381Y-61948333D02*
X101395238Y-61948333D01*
X101395238Y-61948333D02*
X101490476Y-61995952D01*
X101490476Y-61995952D02*
X101538095Y-62043571D01*
X101538095Y-62043571D02*
X101585714Y-62138809D01*
X101585714Y-62138809D02*
X101585714Y-62376904D01*
X101585714Y-62376904D02*
X101538095Y-62472142D01*
X101538095Y-62472142D02*
X101490476Y-62519761D01*
X101490476Y-62519761D02*
X101395238Y-62567380D01*
X101395238Y-62567380D02*
X101109524Y-62567380D01*
X101109524Y-62567380D02*
X101014286Y-62519761D01*
X101014286Y-62519761D02*
X100966667Y-62472142D01*
%TO.C,RN1*%
X80367380Y-70690476D02*
X79891190Y-71023809D01*
X80367380Y-71261904D02*
X79367380Y-71261904D01*
X79367380Y-71261904D02*
X79367380Y-70880952D01*
X79367380Y-70880952D02*
X79415000Y-70785714D01*
X79415000Y-70785714D02*
X79462619Y-70738095D01*
X79462619Y-70738095D02*
X79557857Y-70690476D01*
X79557857Y-70690476D02*
X79700714Y-70690476D01*
X79700714Y-70690476D02*
X79795952Y-70738095D01*
X79795952Y-70738095D02*
X79843571Y-70785714D01*
X79843571Y-70785714D02*
X79891190Y-70880952D01*
X79891190Y-70880952D02*
X79891190Y-71261904D01*
X80367380Y-70261904D02*
X79367380Y-70261904D01*
X79367380Y-70261904D02*
X80367380Y-69690476D01*
X80367380Y-69690476D02*
X79367380Y-69690476D01*
X80367380Y-68690476D02*
X80367380Y-69261904D01*
X80367380Y-68976190D02*
X79367380Y-68976190D01*
X79367380Y-68976190D02*
X79510238Y-69071428D01*
X79510238Y-69071428D02*
X79605476Y-69166666D01*
X79605476Y-69166666D02*
X79653095Y-69261904D01*
%TO.C,J6*%
X97786428Y-57285713D02*
X97786428Y-56523809D01*
X98167380Y-56904761D02*
X97405476Y-56904761D01*
X97167380Y-55571428D02*
X97167380Y-56047618D01*
X97167380Y-56047618D02*
X97643571Y-56095237D01*
X97643571Y-56095237D02*
X97595952Y-56047618D01*
X97595952Y-56047618D02*
X97548333Y-55952380D01*
X97548333Y-55952380D02*
X97548333Y-55714285D01*
X97548333Y-55714285D02*
X97595952Y-55619047D01*
X97595952Y-55619047D02*
X97643571Y-55571428D01*
X97643571Y-55571428D02*
X97738809Y-55523809D01*
X97738809Y-55523809D02*
X97976904Y-55523809D01*
X97976904Y-55523809D02*
X98072142Y-55571428D01*
X98072142Y-55571428D02*
X98119761Y-55619047D01*
X98119761Y-55619047D02*
X98167380Y-55714285D01*
X98167380Y-55714285D02*
X98167380Y-55952380D01*
X98167380Y-55952380D02*
X98119761Y-56047618D01*
X98119761Y-56047618D02*
X98072142Y-56095237D01*
X97167380Y-55238094D02*
X98167380Y-54904761D01*
X98167380Y-54904761D02*
X97167380Y-54571428D01*
%TO.C,J9*%
X101615000Y-50561904D02*
X101567380Y-50657142D01*
X101567380Y-50657142D02*
X101567380Y-50799999D01*
X101567380Y-50799999D02*
X101615000Y-50942856D01*
X101615000Y-50942856D02*
X101710238Y-51038094D01*
X101710238Y-51038094D02*
X101805476Y-51085713D01*
X101805476Y-51085713D02*
X101995952Y-51133332D01*
X101995952Y-51133332D02*
X102138809Y-51133332D01*
X102138809Y-51133332D02*
X102329285Y-51085713D01*
X102329285Y-51085713D02*
X102424523Y-51038094D01*
X102424523Y-51038094D02*
X102519761Y-50942856D01*
X102519761Y-50942856D02*
X102567380Y-50799999D01*
X102567380Y-50799999D02*
X102567380Y-50704761D01*
X102567380Y-50704761D02*
X102519761Y-50561904D01*
X102519761Y-50561904D02*
X102472142Y-50514285D01*
X102472142Y-50514285D02*
X102138809Y-50514285D01*
X102138809Y-50514285D02*
X102138809Y-50704761D01*
X102567380Y-50085713D02*
X101567380Y-50085713D01*
X101567380Y-50085713D02*
X102567380Y-49514285D01*
X102567380Y-49514285D02*
X101567380Y-49514285D01*
X102567380Y-49038094D02*
X101567380Y-49038094D01*
X101567380Y-49038094D02*
X101567380Y-48799999D01*
X101567380Y-48799999D02*
X101615000Y-48657142D01*
X101615000Y-48657142D02*
X101710238Y-48561904D01*
X101710238Y-48561904D02*
X101805476Y-48514285D01*
X101805476Y-48514285D02*
X101995952Y-48466666D01*
X101995952Y-48466666D02*
X102138809Y-48466666D01*
X102138809Y-48466666D02*
X102329285Y-48514285D01*
X102329285Y-48514285D02*
X102424523Y-48561904D01*
X102424523Y-48561904D02*
X102519761Y-48657142D01*
X102519761Y-48657142D02*
X102567380Y-48799999D01*
X102567380Y-48799999D02*
X102567380Y-49038094D01*
%TO.C,SW1*%
X96666667Y-47519761D02*
X96809524Y-47567380D01*
X96809524Y-47567380D02*
X97047619Y-47567380D01*
X97047619Y-47567380D02*
X97142857Y-47519761D01*
X97142857Y-47519761D02*
X97190476Y-47472142D01*
X97190476Y-47472142D02*
X97238095Y-47376904D01*
X97238095Y-47376904D02*
X97238095Y-47281666D01*
X97238095Y-47281666D02*
X97190476Y-47186428D01*
X97190476Y-47186428D02*
X97142857Y-47138809D01*
X97142857Y-47138809D02*
X97047619Y-47091190D01*
X97047619Y-47091190D02*
X96857143Y-47043571D01*
X96857143Y-47043571D02*
X96761905Y-46995952D01*
X96761905Y-46995952D02*
X96714286Y-46948333D01*
X96714286Y-46948333D02*
X96666667Y-46853095D01*
X96666667Y-46853095D02*
X96666667Y-46757857D01*
X96666667Y-46757857D02*
X96714286Y-46662619D01*
X96714286Y-46662619D02*
X96761905Y-46615000D01*
X96761905Y-46615000D02*
X96857143Y-46567380D01*
X96857143Y-46567380D02*
X97095238Y-46567380D01*
X97095238Y-46567380D02*
X97238095Y-46615000D01*
X97571429Y-46567380D02*
X97809524Y-47567380D01*
X97809524Y-47567380D02*
X98000000Y-46853095D01*
X98000000Y-46853095D02*
X98190476Y-47567380D01*
X98190476Y-47567380D02*
X98428572Y-46567380D01*
X99333333Y-47567380D02*
X98761905Y-47567380D01*
X99047619Y-47567380D02*
X99047619Y-46567380D01*
X99047619Y-46567380D02*
X98952381Y-46710238D01*
X98952381Y-46710238D02*
X98857143Y-46805476D01*
X98857143Y-46805476D02*
X98761905Y-46853095D01*
%TO.C,C1*%
X104672142Y-53766666D02*
X104719761Y-53814285D01*
X104719761Y-53814285D02*
X104767380Y-53957142D01*
X104767380Y-53957142D02*
X104767380Y-54052380D01*
X104767380Y-54052380D02*
X104719761Y-54195237D01*
X104719761Y-54195237D02*
X104624523Y-54290475D01*
X104624523Y-54290475D02*
X104529285Y-54338094D01*
X104529285Y-54338094D02*
X104338809Y-54385713D01*
X104338809Y-54385713D02*
X104195952Y-54385713D01*
X104195952Y-54385713D02*
X104005476Y-54338094D01*
X104005476Y-54338094D02*
X103910238Y-54290475D01*
X103910238Y-54290475D02*
X103815000Y-54195237D01*
X103815000Y-54195237D02*
X103767380Y-54052380D01*
X103767380Y-54052380D02*
X103767380Y-53957142D01*
X103767380Y-53957142D02*
X103815000Y-53814285D01*
X103815000Y-53814285D02*
X103862619Y-53766666D01*
X104767380Y-52814285D02*
X104767380Y-53385713D01*
X104767380Y-53099999D02*
X103767380Y-53099999D01*
X103767380Y-53099999D02*
X103910238Y-53195237D01*
X103910238Y-53195237D02*
X104005476Y-53290475D01*
X104005476Y-53290475D02*
X104053095Y-53385713D01*
%TO.C,R5*%
X100645833Y-64017380D02*
X100312500Y-63541190D01*
X100074405Y-64017380D02*
X100074405Y-63017380D01*
X100074405Y-63017380D02*
X100455357Y-63017380D01*
X100455357Y-63017380D02*
X100550595Y-63065000D01*
X100550595Y-63065000D02*
X100598214Y-63112619D01*
X100598214Y-63112619D02*
X100645833Y-63207857D01*
X100645833Y-63207857D02*
X100645833Y-63350714D01*
X100645833Y-63350714D02*
X100598214Y-63445952D01*
X100598214Y-63445952D02*
X100550595Y-63493571D01*
X100550595Y-63493571D02*
X100455357Y-63541190D01*
X100455357Y-63541190D02*
X100074405Y-63541190D01*
X101550595Y-63017380D02*
X101074405Y-63017380D01*
X101074405Y-63017380D02*
X101026786Y-63493571D01*
X101026786Y-63493571D02*
X101074405Y-63445952D01*
X101074405Y-63445952D02*
X101169643Y-63398333D01*
X101169643Y-63398333D02*
X101407738Y-63398333D01*
X101407738Y-63398333D02*
X101502976Y-63445952D01*
X101502976Y-63445952D02*
X101550595Y-63493571D01*
X101550595Y-63493571D02*
X101598214Y-63588809D01*
X101598214Y-63588809D02*
X101598214Y-63826904D01*
X101598214Y-63826904D02*
X101550595Y-63922142D01*
X101550595Y-63922142D02*
X101502976Y-63969761D01*
X101502976Y-63969761D02*
X101407738Y-64017380D01*
X101407738Y-64017380D02*
X101169643Y-64017380D01*
X101169643Y-64017380D02*
X101074405Y-63969761D01*
X101074405Y-63969761D02*
X101026786Y-63922142D01*
%TO.C,C2*%
X94033333Y-73672142D02*
X93985714Y-73719761D01*
X93985714Y-73719761D02*
X93842857Y-73767380D01*
X93842857Y-73767380D02*
X93747619Y-73767380D01*
X93747619Y-73767380D02*
X93604762Y-73719761D01*
X93604762Y-73719761D02*
X93509524Y-73624523D01*
X93509524Y-73624523D02*
X93461905Y-73529285D01*
X93461905Y-73529285D02*
X93414286Y-73338809D01*
X93414286Y-73338809D02*
X93414286Y-73195952D01*
X93414286Y-73195952D02*
X93461905Y-73005476D01*
X93461905Y-73005476D02*
X93509524Y-72910238D01*
X93509524Y-72910238D02*
X93604762Y-72815000D01*
X93604762Y-72815000D02*
X93747619Y-72767380D01*
X93747619Y-72767380D02*
X93842857Y-72767380D01*
X93842857Y-72767380D02*
X93985714Y-72815000D01*
X93985714Y-72815000D02*
X94033333Y-72862619D01*
X94414286Y-72862619D02*
X94461905Y-72815000D01*
X94461905Y-72815000D02*
X94557143Y-72767380D01*
X94557143Y-72767380D02*
X94795238Y-72767380D01*
X94795238Y-72767380D02*
X94890476Y-72815000D01*
X94890476Y-72815000D02*
X94938095Y-72862619D01*
X94938095Y-72862619D02*
X94985714Y-72957857D01*
X94985714Y-72957857D02*
X94985714Y-73053095D01*
X94985714Y-73053095D02*
X94938095Y-73195952D01*
X94938095Y-73195952D02*
X94366667Y-73767380D01*
X94366667Y-73767380D02*
X94985714Y-73767380D01*
%TO.C,C5*%
X85233333Y-67072142D02*
X85185714Y-67119761D01*
X85185714Y-67119761D02*
X85042857Y-67167380D01*
X85042857Y-67167380D02*
X84947619Y-67167380D01*
X84947619Y-67167380D02*
X84804762Y-67119761D01*
X84804762Y-67119761D02*
X84709524Y-67024523D01*
X84709524Y-67024523D02*
X84661905Y-66929285D01*
X84661905Y-66929285D02*
X84614286Y-66738809D01*
X84614286Y-66738809D02*
X84614286Y-66595952D01*
X84614286Y-66595952D02*
X84661905Y-66405476D01*
X84661905Y-66405476D02*
X84709524Y-66310238D01*
X84709524Y-66310238D02*
X84804762Y-66215000D01*
X84804762Y-66215000D02*
X84947619Y-66167380D01*
X84947619Y-66167380D02*
X85042857Y-66167380D01*
X85042857Y-66167380D02*
X85185714Y-66215000D01*
X85185714Y-66215000D02*
X85233333Y-66262619D01*
X86138095Y-66167380D02*
X85661905Y-66167380D01*
X85661905Y-66167380D02*
X85614286Y-66643571D01*
X85614286Y-66643571D02*
X85661905Y-66595952D01*
X85661905Y-66595952D02*
X85757143Y-66548333D01*
X85757143Y-66548333D02*
X85995238Y-66548333D01*
X85995238Y-66548333D02*
X86090476Y-66595952D01*
X86090476Y-66595952D02*
X86138095Y-66643571D01*
X86138095Y-66643571D02*
X86185714Y-66738809D01*
X86185714Y-66738809D02*
X86185714Y-66976904D01*
X86185714Y-66976904D02*
X86138095Y-67072142D01*
X86138095Y-67072142D02*
X86090476Y-67119761D01*
X86090476Y-67119761D02*
X85995238Y-67167380D01*
X85995238Y-67167380D02*
X85757143Y-67167380D01*
X85757143Y-67167380D02*
X85661905Y-67119761D01*
X85661905Y-67119761D02*
X85614286Y-67072142D01*
D12*
%TO.C,R6*%
X94074999Y-50275535D02*
X93824999Y-49918392D01*
X93646428Y-50275535D02*
X93646428Y-49525535D01*
X93646428Y-49525535D02*
X93932142Y-49525535D01*
X93932142Y-49525535D02*
X94003571Y-49561250D01*
X94003571Y-49561250D02*
X94039285Y-49596964D01*
X94039285Y-49596964D02*
X94074999Y-49668392D01*
X94074999Y-49668392D02*
X94074999Y-49775535D01*
X94074999Y-49775535D02*
X94039285Y-49846964D01*
X94039285Y-49846964D02*
X94003571Y-49882678D01*
X94003571Y-49882678D02*
X93932142Y-49918392D01*
X93932142Y-49918392D02*
X93646428Y-49918392D01*
X94717857Y-49525535D02*
X94574999Y-49525535D01*
X94574999Y-49525535D02*
X94503571Y-49561250D01*
X94503571Y-49561250D02*
X94467857Y-49596964D01*
X94467857Y-49596964D02*
X94396428Y-49704107D01*
X94396428Y-49704107D02*
X94360714Y-49846964D01*
X94360714Y-49846964D02*
X94360714Y-50132678D01*
X94360714Y-50132678D02*
X94396428Y-50204107D01*
X94396428Y-50204107D02*
X94432142Y-50239821D01*
X94432142Y-50239821D02*
X94503571Y-50275535D01*
X94503571Y-50275535D02*
X94646428Y-50275535D01*
X94646428Y-50275535D02*
X94717857Y-50239821D01*
X94717857Y-50239821D02*
X94753571Y-50204107D01*
X94753571Y-50204107D02*
X94789285Y-50132678D01*
X94789285Y-50132678D02*
X94789285Y-49954107D01*
X94789285Y-49954107D02*
X94753571Y-49882678D01*
X94753571Y-49882678D02*
X94717857Y-49846964D01*
X94717857Y-49846964D02*
X94646428Y-49811250D01*
X94646428Y-49811250D02*
X94503571Y-49811250D01*
X94503571Y-49811250D02*
X94432142Y-49846964D01*
X94432142Y-49846964D02*
X94396428Y-49882678D01*
X94396428Y-49882678D02*
X94360714Y-49954107D01*
D10*
%TO.C,Y1*%
X82523809Y-55691190D02*
X82523809Y-56167380D01*
X82190476Y-55167380D02*
X82523809Y-55691190D01*
X82523809Y-55691190D02*
X82857142Y-55167380D01*
X83714285Y-56167380D02*
X83142857Y-56167380D01*
X83428571Y-56167380D02*
X83428571Y-55167380D01*
X83428571Y-55167380D02*
X83333333Y-55310238D01*
X83333333Y-55310238D02*
X83238095Y-55405476D01*
X83238095Y-55405476D02*
X83142857Y-55453095D01*
%TO.C,Q1*%
X104154761Y-66212619D02*
X104059523Y-66165000D01*
X104059523Y-66165000D02*
X103964285Y-66069761D01*
X103964285Y-66069761D02*
X103821428Y-65926904D01*
X103821428Y-65926904D02*
X103726190Y-65879285D01*
X103726190Y-65879285D02*
X103630952Y-65879285D01*
X103678571Y-66117380D02*
X103583333Y-66069761D01*
X103583333Y-66069761D02*
X103488095Y-65974523D01*
X103488095Y-65974523D02*
X103440476Y-65784047D01*
X103440476Y-65784047D02*
X103440476Y-65450714D01*
X103440476Y-65450714D02*
X103488095Y-65260238D01*
X103488095Y-65260238D02*
X103583333Y-65165000D01*
X103583333Y-65165000D02*
X103678571Y-65117380D01*
X103678571Y-65117380D02*
X103869047Y-65117380D01*
X103869047Y-65117380D02*
X103964285Y-65165000D01*
X103964285Y-65165000D02*
X104059523Y-65260238D01*
X104059523Y-65260238D02*
X104107142Y-65450714D01*
X104107142Y-65450714D02*
X104107142Y-65784047D01*
X104107142Y-65784047D02*
X104059523Y-65974523D01*
X104059523Y-65974523D02*
X103964285Y-66069761D01*
X103964285Y-66069761D02*
X103869047Y-66117380D01*
X103869047Y-66117380D02*
X103678571Y-66117380D01*
X105059523Y-66117380D02*
X104488095Y-66117380D01*
X104773809Y-66117380D02*
X104773809Y-65117380D01*
X104773809Y-65117380D02*
X104678571Y-65260238D01*
X104678571Y-65260238D02*
X104583333Y-65355476D01*
X104583333Y-65355476D02*
X104488095Y-65403095D01*
D12*
%TO.C,R3*%
X92074999Y-50275535D02*
X91824999Y-49918392D01*
X91646428Y-50275535D02*
X91646428Y-49525535D01*
X91646428Y-49525535D02*
X91932142Y-49525535D01*
X91932142Y-49525535D02*
X92003571Y-49561250D01*
X92003571Y-49561250D02*
X92039285Y-49596964D01*
X92039285Y-49596964D02*
X92074999Y-49668392D01*
X92074999Y-49668392D02*
X92074999Y-49775535D01*
X92074999Y-49775535D02*
X92039285Y-49846964D01*
X92039285Y-49846964D02*
X92003571Y-49882678D01*
X92003571Y-49882678D02*
X91932142Y-49918392D01*
X91932142Y-49918392D02*
X91646428Y-49918392D01*
X92324999Y-49525535D02*
X92789285Y-49525535D01*
X92789285Y-49525535D02*
X92539285Y-49811250D01*
X92539285Y-49811250D02*
X92646428Y-49811250D01*
X92646428Y-49811250D02*
X92717857Y-49846964D01*
X92717857Y-49846964D02*
X92753571Y-49882678D01*
X92753571Y-49882678D02*
X92789285Y-49954107D01*
X92789285Y-49954107D02*
X92789285Y-50132678D01*
X92789285Y-50132678D02*
X92753571Y-50204107D01*
X92753571Y-50204107D02*
X92717857Y-50239821D01*
X92717857Y-50239821D02*
X92646428Y-50275535D01*
X92646428Y-50275535D02*
X92432142Y-50275535D01*
X92432142Y-50275535D02*
X92360714Y-50239821D01*
X92360714Y-50239821D02*
X92324999Y-50204107D01*
%TO.C,J3*%
X89550000Y-77761250D02*
X89478572Y-77725535D01*
X89478572Y-77725535D02*
X89371429Y-77725535D01*
X89371429Y-77725535D02*
X89264286Y-77761250D01*
X89264286Y-77761250D02*
X89192857Y-77832678D01*
X89192857Y-77832678D02*
X89157143Y-77904107D01*
X89157143Y-77904107D02*
X89121429Y-78046964D01*
X89121429Y-78046964D02*
X89121429Y-78154107D01*
X89121429Y-78154107D02*
X89157143Y-78296964D01*
X89157143Y-78296964D02*
X89192857Y-78368392D01*
X89192857Y-78368392D02*
X89264286Y-78439821D01*
X89264286Y-78439821D02*
X89371429Y-78475535D01*
X89371429Y-78475535D02*
X89442857Y-78475535D01*
X89442857Y-78475535D02*
X89550000Y-78439821D01*
X89550000Y-78439821D02*
X89585714Y-78404107D01*
X89585714Y-78404107D02*
X89585714Y-78154107D01*
X89585714Y-78154107D02*
X89442857Y-78154107D01*
X91257143Y-78475535D02*
X91257143Y-77725535D01*
X91257143Y-77725535D02*
X91435714Y-77725535D01*
X91435714Y-77725535D02*
X91542857Y-77761250D01*
X91542857Y-77761250D02*
X91614286Y-77832678D01*
X91614286Y-77832678D02*
X91650000Y-77904107D01*
X91650000Y-77904107D02*
X91685714Y-78046964D01*
X91685714Y-78046964D02*
X91685714Y-78154107D01*
X91685714Y-78154107D02*
X91650000Y-78296964D01*
X91650000Y-78296964D02*
X91614286Y-78368392D01*
X91614286Y-78368392D02*
X91542857Y-78439821D01*
X91542857Y-78439821D02*
X91435714Y-78475535D01*
X91435714Y-78475535D02*
X91257143Y-78475535D01*
X93250000Y-77725535D02*
X93500000Y-78475535D01*
X93500000Y-78475535D02*
X93750000Y-77725535D01*
D10*
%TO.C,U1*%
X95567380Y-55161904D02*
X96376904Y-55161904D01*
X96376904Y-55161904D02*
X96472142Y-55114285D01*
X96472142Y-55114285D02*
X96519761Y-55066666D01*
X96519761Y-55066666D02*
X96567380Y-54971428D01*
X96567380Y-54971428D02*
X96567380Y-54780952D01*
X96567380Y-54780952D02*
X96519761Y-54685714D01*
X96519761Y-54685714D02*
X96472142Y-54638095D01*
X96472142Y-54638095D02*
X96376904Y-54590476D01*
X96376904Y-54590476D02*
X95567380Y-54590476D01*
X96567380Y-53590476D02*
X96567380Y-54161904D01*
X96567380Y-53876190D02*
X95567380Y-53876190D01*
X95567380Y-53876190D02*
X95710238Y-53971428D01*
X95710238Y-53971428D02*
X95805476Y-54066666D01*
X95805476Y-54066666D02*
X95853095Y-54161904D01*
%TO.C,J1*%
X81967380Y-62133332D02*
X82967380Y-61799999D01*
X82967380Y-61799999D02*
X81967380Y-61466666D01*
X82967380Y-59933332D02*
X81967380Y-59933332D01*
X81967380Y-59933332D02*
X81967380Y-59695237D01*
X81967380Y-59695237D02*
X82015000Y-59552380D01*
X82015000Y-59552380D02*
X82110238Y-59457142D01*
X82110238Y-59457142D02*
X82205476Y-59409523D01*
X82205476Y-59409523D02*
X82395952Y-59361904D01*
X82395952Y-59361904D02*
X82538809Y-59361904D01*
X82538809Y-59361904D02*
X82729285Y-59409523D01*
X82729285Y-59409523D02*
X82824523Y-59457142D01*
X82824523Y-59457142D02*
X82919761Y-59552380D01*
X82919761Y-59552380D02*
X82967380Y-59695237D01*
X82967380Y-59695237D02*
X82967380Y-59933332D01*
X82015000Y-57209523D02*
X81967380Y-57304761D01*
X81967380Y-57304761D02*
X81967380Y-57447618D01*
X81967380Y-57447618D02*
X82015000Y-57590475D01*
X82015000Y-57590475D02*
X82110238Y-57685713D01*
X82110238Y-57685713D02*
X82205476Y-57733332D01*
X82205476Y-57733332D02*
X82395952Y-57780951D01*
X82395952Y-57780951D02*
X82538809Y-57780951D01*
X82538809Y-57780951D02*
X82729285Y-57733332D01*
X82729285Y-57733332D02*
X82824523Y-57685713D01*
X82824523Y-57685713D02*
X82919761Y-57590475D01*
X82919761Y-57590475D02*
X82967380Y-57447618D01*
X82967380Y-57447618D02*
X82967380Y-57352380D01*
X82967380Y-57352380D02*
X82919761Y-57209523D01*
X82919761Y-57209523D02*
X82872142Y-57161904D01*
X82872142Y-57161904D02*
X82538809Y-57161904D01*
X82538809Y-57161904D02*
X82538809Y-57352380D01*
%TO.C,J7*%
X97257143Y-69767380D02*
X97257143Y-68767380D01*
X97828571Y-69767380D02*
X97400000Y-69195952D01*
X97828571Y-68767380D02*
X97257143Y-69338809D01*
X98257143Y-69243571D02*
X98590476Y-69243571D01*
X98733333Y-69767380D02*
X98257143Y-69767380D01*
X98257143Y-69767380D02*
X98257143Y-68767380D01*
X98257143Y-68767380D02*
X98733333Y-68767380D01*
X99352381Y-69291190D02*
X99352381Y-69767380D01*
X99019048Y-68767380D02*
X99352381Y-69291190D01*
X99352381Y-69291190D02*
X99685714Y-68767380D01*
%TO.C,R7*%
X98533333Y-76717380D02*
X98200000Y-76241190D01*
X97961905Y-76717380D02*
X97961905Y-75717380D01*
X97961905Y-75717380D02*
X98342857Y-75717380D01*
X98342857Y-75717380D02*
X98438095Y-75765000D01*
X98438095Y-75765000D02*
X98485714Y-75812619D01*
X98485714Y-75812619D02*
X98533333Y-75907857D01*
X98533333Y-75907857D02*
X98533333Y-76050714D01*
X98533333Y-76050714D02*
X98485714Y-76145952D01*
X98485714Y-76145952D02*
X98438095Y-76193571D01*
X98438095Y-76193571D02*
X98342857Y-76241190D01*
X98342857Y-76241190D02*
X97961905Y-76241190D01*
X98866667Y-75717380D02*
X99533333Y-75717380D01*
X99533333Y-75717380D02*
X99104762Y-76717380D01*
%TO.C,J5*%
X93797618Y-71593571D02*
X93940475Y-71641190D01*
X93940475Y-71641190D02*
X93988094Y-71688809D01*
X93988094Y-71688809D02*
X94035713Y-71784047D01*
X94035713Y-71784047D02*
X94035713Y-71926904D01*
X94035713Y-71926904D02*
X93988094Y-72022142D01*
X93988094Y-72022142D02*
X93940475Y-72069761D01*
X93940475Y-72069761D02*
X93845237Y-72117380D01*
X93845237Y-72117380D02*
X93464285Y-72117380D01*
X93464285Y-72117380D02*
X93464285Y-71117380D01*
X93464285Y-71117380D02*
X93797618Y-71117380D01*
X93797618Y-71117380D02*
X93892856Y-71165000D01*
X93892856Y-71165000D02*
X93940475Y-71212619D01*
X93940475Y-71212619D02*
X93988094Y-71307857D01*
X93988094Y-71307857D02*
X93988094Y-71403095D01*
X93988094Y-71403095D02*
X93940475Y-71498333D01*
X93940475Y-71498333D02*
X93892856Y-71545952D01*
X93892856Y-71545952D02*
X93797618Y-71593571D01*
X93797618Y-71593571D02*
X93464285Y-71593571D01*
X94892856Y-72117380D02*
X94892856Y-71593571D01*
X94892856Y-71593571D02*
X94845237Y-71498333D01*
X94845237Y-71498333D02*
X94749999Y-71450714D01*
X94749999Y-71450714D02*
X94559523Y-71450714D01*
X94559523Y-71450714D02*
X94464285Y-71498333D01*
X94892856Y-72069761D02*
X94797618Y-72117380D01*
X94797618Y-72117380D02*
X94559523Y-72117380D01*
X94559523Y-72117380D02*
X94464285Y-72069761D01*
X94464285Y-72069761D02*
X94416666Y-71974523D01*
X94416666Y-71974523D02*
X94416666Y-71879285D01*
X94416666Y-71879285D02*
X94464285Y-71784047D01*
X94464285Y-71784047D02*
X94559523Y-71736428D01*
X94559523Y-71736428D02*
X94797618Y-71736428D01*
X94797618Y-71736428D02*
X94892856Y-71688809D01*
X95226190Y-71450714D02*
X95607142Y-71450714D01*
X95369047Y-71117380D02*
X95369047Y-71974523D01*
X95369047Y-71974523D02*
X95416666Y-72069761D01*
X95416666Y-72069761D02*
X95511904Y-72117380D01*
X95511904Y-72117380D02*
X95607142Y-72117380D01*
X95797619Y-71450714D02*
X96178571Y-71450714D01*
X95940476Y-71117380D02*
X95940476Y-71974523D01*
X95940476Y-71974523D02*
X95988095Y-72069761D01*
X95988095Y-72069761D02*
X96083333Y-72117380D01*
X96083333Y-72117380D02*
X96178571Y-72117380D01*
%TO.C,C9*%
X98472142Y-52966666D02*
X98519761Y-53014285D01*
X98519761Y-53014285D02*
X98567380Y-53157142D01*
X98567380Y-53157142D02*
X98567380Y-53252380D01*
X98567380Y-53252380D02*
X98519761Y-53395237D01*
X98519761Y-53395237D02*
X98424523Y-53490475D01*
X98424523Y-53490475D02*
X98329285Y-53538094D01*
X98329285Y-53538094D02*
X98138809Y-53585713D01*
X98138809Y-53585713D02*
X97995952Y-53585713D01*
X97995952Y-53585713D02*
X97805476Y-53538094D01*
X97805476Y-53538094D02*
X97710238Y-53490475D01*
X97710238Y-53490475D02*
X97615000Y-53395237D01*
X97615000Y-53395237D02*
X97567380Y-53252380D01*
X97567380Y-53252380D02*
X97567380Y-53157142D01*
X97567380Y-53157142D02*
X97615000Y-53014285D01*
X97615000Y-53014285D02*
X97662619Y-52966666D01*
X98567380Y-52490475D02*
X98567380Y-52299999D01*
X98567380Y-52299999D02*
X98519761Y-52204761D01*
X98519761Y-52204761D02*
X98472142Y-52157142D01*
X98472142Y-52157142D02*
X98329285Y-52061904D01*
X98329285Y-52061904D02*
X98138809Y-52014285D01*
X98138809Y-52014285D02*
X97757857Y-52014285D01*
X97757857Y-52014285D02*
X97662619Y-52061904D01*
X97662619Y-52061904D02*
X97615000Y-52109523D01*
X97615000Y-52109523D02*
X97567380Y-52204761D01*
X97567380Y-52204761D02*
X97567380Y-52395237D01*
X97567380Y-52395237D02*
X97615000Y-52490475D01*
X97615000Y-52490475D02*
X97662619Y-52538094D01*
X97662619Y-52538094D02*
X97757857Y-52585713D01*
X97757857Y-52585713D02*
X97995952Y-52585713D01*
X97995952Y-52585713D02*
X98091190Y-52538094D01*
X98091190Y-52538094D02*
X98138809Y-52490475D01*
X98138809Y-52490475D02*
X98186428Y-52395237D01*
X98186428Y-52395237D02*
X98186428Y-52204761D01*
X98186428Y-52204761D02*
X98138809Y-52109523D01*
X98138809Y-52109523D02*
X98091190Y-52061904D01*
X98091190Y-52061904D02*
X97995952Y-52014285D01*
%TO.C,C12*%
X90557142Y-70272142D02*
X90509523Y-70319761D01*
X90509523Y-70319761D02*
X90366666Y-70367380D01*
X90366666Y-70367380D02*
X90271428Y-70367380D01*
X90271428Y-70367380D02*
X90128571Y-70319761D01*
X90128571Y-70319761D02*
X90033333Y-70224523D01*
X90033333Y-70224523D02*
X89985714Y-70129285D01*
X89985714Y-70129285D02*
X89938095Y-69938809D01*
X89938095Y-69938809D02*
X89938095Y-69795952D01*
X89938095Y-69795952D02*
X89985714Y-69605476D01*
X89985714Y-69605476D02*
X90033333Y-69510238D01*
X90033333Y-69510238D02*
X90128571Y-69415000D01*
X90128571Y-69415000D02*
X90271428Y-69367380D01*
X90271428Y-69367380D02*
X90366666Y-69367380D01*
X90366666Y-69367380D02*
X90509523Y-69415000D01*
X90509523Y-69415000D02*
X90557142Y-69462619D01*
X91509523Y-70367380D02*
X90938095Y-70367380D01*
X91223809Y-70367380D02*
X91223809Y-69367380D01*
X91223809Y-69367380D02*
X91128571Y-69510238D01*
X91128571Y-69510238D02*
X91033333Y-69605476D01*
X91033333Y-69605476D02*
X90938095Y-69653095D01*
X91890476Y-69462619D02*
X91938095Y-69415000D01*
X91938095Y-69415000D02*
X92033333Y-69367380D01*
X92033333Y-69367380D02*
X92271428Y-69367380D01*
X92271428Y-69367380D02*
X92366666Y-69415000D01*
X92366666Y-69415000D02*
X92414285Y-69462619D01*
X92414285Y-69462619D02*
X92461904Y-69557857D01*
X92461904Y-69557857D02*
X92461904Y-69653095D01*
X92461904Y-69653095D02*
X92414285Y-69795952D01*
X92414285Y-69795952D02*
X91842857Y-70367380D01*
X91842857Y-70367380D02*
X92461904Y-70367380D01*
%TO.C,Q3*%
X79904761Y-73062619D02*
X79809523Y-73015000D01*
X79809523Y-73015000D02*
X79714285Y-72919761D01*
X79714285Y-72919761D02*
X79571428Y-72776904D01*
X79571428Y-72776904D02*
X79476190Y-72729285D01*
X79476190Y-72729285D02*
X79380952Y-72729285D01*
X79428571Y-72967380D02*
X79333333Y-72919761D01*
X79333333Y-72919761D02*
X79238095Y-72824523D01*
X79238095Y-72824523D02*
X79190476Y-72634047D01*
X79190476Y-72634047D02*
X79190476Y-72300714D01*
X79190476Y-72300714D02*
X79238095Y-72110238D01*
X79238095Y-72110238D02*
X79333333Y-72015000D01*
X79333333Y-72015000D02*
X79428571Y-71967380D01*
X79428571Y-71967380D02*
X79619047Y-71967380D01*
X79619047Y-71967380D02*
X79714285Y-72015000D01*
X79714285Y-72015000D02*
X79809523Y-72110238D01*
X79809523Y-72110238D02*
X79857142Y-72300714D01*
X79857142Y-72300714D02*
X79857142Y-72634047D01*
X79857142Y-72634047D02*
X79809523Y-72824523D01*
X79809523Y-72824523D02*
X79714285Y-72919761D01*
X79714285Y-72919761D02*
X79619047Y-72967380D01*
X79619047Y-72967380D02*
X79428571Y-72967380D01*
X80190476Y-71967380D02*
X80809523Y-71967380D01*
X80809523Y-71967380D02*
X80476190Y-72348333D01*
X80476190Y-72348333D02*
X80619047Y-72348333D01*
X80619047Y-72348333D02*
X80714285Y-72395952D01*
X80714285Y-72395952D02*
X80761904Y-72443571D01*
X80761904Y-72443571D02*
X80809523Y-72538809D01*
X80809523Y-72538809D02*
X80809523Y-72776904D01*
X80809523Y-72776904D02*
X80761904Y-72872142D01*
X80761904Y-72872142D02*
X80714285Y-72919761D01*
X80714285Y-72919761D02*
X80619047Y-72967380D01*
X80619047Y-72967380D02*
X80333333Y-72967380D01*
X80333333Y-72967380D02*
X80238095Y-72919761D01*
X80238095Y-72919761D02*
X80190476Y-72872142D01*
%TO.C,R1*%
X98333333Y-71367380D02*
X98000000Y-70891190D01*
X97761905Y-71367380D02*
X97761905Y-70367380D01*
X97761905Y-70367380D02*
X98142857Y-70367380D01*
X98142857Y-70367380D02*
X98238095Y-70415000D01*
X98238095Y-70415000D02*
X98285714Y-70462619D01*
X98285714Y-70462619D02*
X98333333Y-70557857D01*
X98333333Y-70557857D02*
X98333333Y-70700714D01*
X98333333Y-70700714D02*
X98285714Y-70795952D01*
X98285714Y-70795952D02*
X98238095Y-70843571D01*
X98238095Y-70843571D02*
X98142857Y-70891190D01*
X98142857Y-70891190D02*
X97761905Y-70891190D01*
X99285714Y-71367380D02*
X98714286Y-71367380D01*
X99000000Y-71367380D02*
X99000000Y-70367380D01*
X99000000Y-70367380D02*
X98904762Y-70510238D01*
X98904762Y-70510238D02*
X98809524Y-70605476D01*
X98809524Y-70605476D02*
X98714286Y-70653095D01*
%TO.C,C10*%
X86157142Y-53472142D02*
X86109523Y-53519761D01*
X86109523Y-53519761D02*
X85966666Y-53567380D01*
X85966666Y-53567380D02*
X85871428Y-53567380D01*
X85871428Y-53567380D02*
X85728571Y-53519761D01*
X85728571Y-53519761D02*
X85633333Y-53424523D01*
X85633333Y-53424523D02*
X85585714Y-53329285D01*
X85585714Y-53329285D02*
X85538095Y-53138809D01*
X85538095Y-53138809D02*
X85538095Y-52995952D01*
X85538095Y-52995952D02*
X85585714Y-52805476D01*
X85585714Y-52805476D02*
X85633333Y-52710238D01*
X85633333Y-52710238D02*
X85728571Y-52615000D01*
X85728571Y-52615000D02*
X85871428Y-52567380D01*
X85871428Y-52567380D02*
X85966666Y-52567380D01*
X85966666Y-52567380D02*
X86109523Y-52615000D01*
X86109523Y-52615000D02*
X86157142Y-52662619D01*
X87109523Y-53567380D02*
X86538095Y-53567380D01*
X86823809Y-53567380D02*
X86823809Y-52567380D01*
X86823809Y-52567380D02*
X86728571Y-52710238D01*
X86728571Y-52710238D02*
X86633333Y-52805476D01*
X86633333Y-52805476D02*
X86538095Y-52853095D01*
X87728571Y-52567380D02*
X87823809Y-52567380D01*
X87823809Y-52567380D02*
X87919047Y-52615000D01*
X87919047Y-52615000D02*
X87966666Y-52662619D01*
X87966666Y-52662619D02*
X88014285Y-52757857D01*
X88014285Y-52757857D02*
X88061904Y-52948333D01*
X88061904Y-52948333D02*
X88061904Y-53186428D01*
X88061904Y-53186428D02*
X88014285Y-53376904D01*
X88014285Y-53376904D02*
X87966666Y-53472142D01*
X87966666Y-53472142D02*
X87919047Y-53519761D01*
X87919047Y-53519761D02*
X87823809Y-53567380D01*
X87823809Y-53567380D02*
X87728571Y-53567380D01*
X87728571Y-53567380D02*
X87633333Y-53519761D01*
X87633333Y-53519761D02*
X87585714Y-53472142D01*
X87585714Y-53472142D02*
X87538095Y-53376904D01*
X87538095Y-53376904D02*
X87490476Y-53186428D01*
X87490476Y-53186428D02*
X87490476Y-52948333D01*
X87490476Y-52948333D02*
X87538095Y-52757857D01*
X87538095Y-52757857D02*
X87585714Y-52662619D01*
X87585714Y-52662619D02*
X87633333Y-52615000D01*
X87633333Y-52615000D02*
X87728571Y-52567380D01*
%TO.C,J2*%
X103415000Y-63466666D02*
X103367380Y-63561904D01*
X103367380Y-63561904D02*
X103367380Y-63704761D01*
X103367380Y-63704761D02*
X103415000Y-63847618D01*
X103415000Y-63847618D02*
X103510238Y-63942856D01*
X103510238Y-63942856D02*
X103605476Y-63990475D01*
X103605476Y-63990475D02*
X103795952Y-64038094D01*
X103795952Y-64038094D02*
X103938809Y-64038094D01*
X103938809Y-64038094D02*
X104129285Y-63990475D01*
X104129285Y-63990475D02*
X104224523Y-63942856D01*
X104224523Y-63942856D02*
X104319761Y-63847618D01*
X104319761Y-63847618D02*
X104367380Y-63704761D01*
X104367380Y-63704761D02*
X104367380Y-63609523D01*
X104367380Y-63609523D02*
X104319761Y-63466666D01*
X104319761Y-63466666D02*
X104272142Y-63419047D01*
X104272142Y-63419047D02*
X103938809Y-63419047D01*
X103938809Y-63419047D02*
X103938809Y-63609523D01*
X103367380Y-56533332D02*
X104367380Y-56199999D01*
X104367380Y-56199999D02*
X103367380Y-55866666D01*
%TO.C,R4*%
X102333333Y-75867380D02*
X102000000Y-75391190D01*
X101761905Y-75867380D02*
X101761905Y-74867380D01*
X101761905Y-74867380D02*
X102142857Y-74867380D01*
X102142857Y-74867380D02*
X102238095Y-74915000D01*
X102238095Y-74915000D02*
X102285714Y-74962619D01*
X102285714Y-74962619D02*
X102333333Y-75057857D01*
X102333333Y-75057857D02*
X102333333Y-75200714D01*
X102333333Y-75200714D02*
X102285714Y-75295952D01*
X102285714Y-75295952D02*
X102238095Y-75343571D01*
X102238095Y-75343571D02*
X102142857Y-75391190D01*
X102142857Y-75391190D02*
X101761905Y-75391190D01*
X103190476Y-75200714D02*
X103190476Y-75867380D01*
X102952381Y-74819761D02*
X102714286Y-75534047D01*
X102714286Y-75534047D02*
X103333333Y-75534047D01*
%TO.C,C7*%
X84233333Y-54972142D02*
X84185714Y-55019761D01*
X84185714Y-55019761D02*
X84042857Y-55067380D01*
X84042857Y-55067380D02*
X83947619Y-55067380D01*
X83947619Y-55067380D02*
X83804762Y-55019761D01*
X83804762Y-55019761D02*
X83709524Y-54924523D01*
X83709524Y-54924523D02*
X83661905Y-54829285D01*
X83661905Y-54829285D02*
X83614286Y-54638809D01*
X83614286Y-54638809D02*
X83614286Y-54495952D01*
X83614286Y-54495952D02*
X83661905Y-54305476D01*
X83661905Y-54305476D02*
X83709524Y-54210238D01*
X83709524Y-54210238D02*
X83804762Y-54115000D01*
X83804762Y-54115000D02*
X83947619Y-54067380D01*
X83947619Y-54067380D02*
X84042857Y-54067380D01*
X84042857Y-54067380D02*
X84185714Y-54115000D01*
X84185714Y-54115000D02*
X84233333Y-54162619D01*
X84566667Y-54067380D02*
X85233333Y-54067380D01*
X85233333Y-54067380D02*
X84804762Y-55067380D01*
%TO.C,C11*%
X99872142Y-59942857D02*
X99919761Y-59990476D01*
X99919761Y-59990476D02*
X99967380Y-60133333D01*
X99967380Y-60133333D02*
X99967380Y-60228571D01*
X99967380Y-60228571D02*
X99919761Y-60371428D01*
X99919761Y-60371428D02*
X99824523Y-60466666D01*
X99824523Y-60466666D02*
X99729285Y-60514285D01*
X99729285Y-60514285D02*
X99538809Y-60561904D01*
X99538809Y-60561904D02*
X99395952Y-60561904D01*
X99395952Y-60561904D02*
X99205476Y-60514285D01*
X99205476Y-60514285D02*
X99110238Y-60466666D01*
X99110238Y-60466666D02*
X99015000Y-60371428D01*
X99015000Y-60371428D02*
X98967380Y-60228571D01*
X98967380Y-60228571D02*
X98967380Y-60133333D01*
X98967380Y-60133333D02*
X99015000Y-59990476D01*
X99015000Y-59990476D02*
X99062619Y-59942857D01*
X99967380Y-58990476D02*
X99967380Y-59561904D01*
X99967380Y-59276190D02*
X98967380Y-59276190D01*
X98967380Y-59276190D02*
X99110238Y-59371428D01*
X99110238Y-59371428D02*
X99205476Y-59466666D01*
X99205476Y-59466666D02*
X99253095Y-59561904D01*
X99967380Y-58038095D02*
X99967380Y-58609523D01*
X99967380Y-58323809D02*
X98967380Y-58323809D01*
X98967380Y-58323809D02*
X99110238Y-58419047D01*
X99110238Y-58419047D02*
X99205476Y-58514285D01*
X99205476Y-58514285D02*
X99253095Y-58609523D01*
%TO.C,C14*%
X78957142Y-77872142D02*
X78909523Y-77919761D01*
X78909523Y-77919761D02*
X78766666Y-77967380D01*
X78766666Y-77967380D02*
X78671428Y-77967380D01*
X78671428Y-77967380D02*
X78528571Y-77919761D01*
X78528571Y-77919761D02*
X78433333Y-77824523D01*
X78433333Y-77824523D02*
X78385714Y-77729285D01*
X78385714Y-77729285D02*
X78338095Y-77538809D01*
X78338095Y-77538809D02*
X78338095Y-77395952D01*
X78338095Y-77395952D02*
X78385714Y-77205476D01*
X78385714Y-77205476D02*
X78433333Y-77110238D01*
X78433333Y-77110238D02*
X78528571Y-77015000D01*
X78528571Y-77015000D02*
X78671428Y-76967380D01*
X78671428Y-76967380D02*
X78766666Y-76967380D01*
X78766666Y-76967380D02*
X78909523Y-77015000D01*
X78909523Y-77015000D02*
X78957142Y-77062619D01*
X79909523Y-77967380D02*
X79338095Y-77967380D01*
X79623809Y-77967380D02*
X79623809Y-76967380D01*
X79623809Y-76967380D02*
X79528571Y-77110238D01*
X79528571Y-77110238D02*
X79433333Y-77205476D01*
X79433333Y-77205476D02*
X79338095Y-77253095D01*
X80766666Y-77300714D02*
X80766666Y-77967380D01*
X80528571Y-76919761D02*
X80290476Y-77634047D01*
X80290476Y-77634047D02*
X80909523Y-77634047D01*
%TO.C,U2*%
X90038095Y-70767380D02*
X90038095Y-71576904D01*
X90038095Y-71576904D02*
X90085714Y-71672142D01*
X90085714Y-71672142D02*
X90133333Y-71719761D01*
X90133333Y-71719761D02*
X90228571Y-71767380D01*
X90228571Y-71767380D02*
X90419047Y-71767380D01*
X90419047Y-71767380D02*
X90514285Y-71719761D01*
X90514285Y-71719761D02*
X90561904Y-71672142D01*
X90561904Y-71672142D02*
X90609523Y-71576904D01*
X90609523Y-71576904D02*
X90609523Y-70767380D01*
X91038095Y-70862619D02*
X91085714Y-70815000D01*
X91085714Y-70815000D02*
X91180952Y-70767380D01*
X91180952Y-70767380D02*
X91419047Y-70767380D01*
X91419047Y-70767380D02*
X91514285Y-70815000D01*
X91514285Y-70815000D02*
X91561904Y-70862619D01*
X91561904Y-70862619D02*
X91609523Y-70957857D01*
X91609523Y-70957857D02*
X91609523Y-71053095D01*
X91609523Y-71053095D02*
X91561904Y-71195952D01*
X91561904Y-71195952D02*
X90990476Y-71767380D01*
X90990476Y-71767380D02*
X91609523Y-71767380D01*
%TO.C,U3*%
X83438095Y-83567380D02*
X83438095Y-84376904D01*
X83438095Y-84376904D02*
X83485714Y-84472142D01*
X83485714Y-84472142D02*
X83533333Y-84519761D01*
X83533333Y-84519761D02*
X83628571Y-84567380D01*
X83628571Y-84567380D02*
X83819047Y-84567380D01*
X83819047Y-84567380D02*
X83914285Y-84519761D01*
X83914285Y-84519761D02*
X83961904Y-84472142D01*
X83961904Y-84472142D02*
X84009523Y-84376904D01*
X84009523Y-84376904D02*
X84009523Y-83567380D01*
X84390476Y-83567380D02*
X85009523Y-83567380D01*
X85009523Y-83567380D02*
X84676190Y-83948333D01*
X84676190Y-83948333D02*
X84819047Y-83948333D01*
X84819047Y-83948333D02*
X84914285Y-83995952D01*
X84914285Y-83995952D02*
X84961904Y-84043571D01*
X84961904Y-84043571D02*
X85009523Y-84138809D01*
X85009523Y-84138809D02*
X85009523Y-84376904D01*
X85009523Y-84376904D02*
X84961904Y-84472142D01*
X84961904Y-84472142D02*
X84914285Y-84519761D01*
X84914285Y-84519761D02*
X84819047Y-84567380D01*
X84819047Y-84567380D02*
X84533333Y-84567380D01*
X84533333Y-84567380D02*
X84438095Y-84519761D01*
X84438095Y-84519761D02*
X84390476Y-84472142D01*
%TO.C,R2*%
X101083333Y-71617380D02*
X100750000Y-71141190D01*
X100511905Y-71617380D02*
X100511905Y-70617380D01*
X100511905Y-70617380D02*
X100892857Y-70617380D01*
X100892857Y-70617380D02*
X100988095Y-70665000D01*
X100988095Y-70665000D02*
X101035714Y-70712619D01*
X101035714Y-70712619D02*
X101083333Y-70807857D01*
X101083333Y-70807857D02*
X101083333Y-70950714D01*
X101083333Y-70950714D02*
X101035714Y-71045952D01*
X101035714Y-71045952D02*
X100988095Y-71093571D01*
X100988095Y-71093571D02*
X100892857Y-71141190D01*
X100892857Y-71141190D02*
X100511905Y-71141190D01*
X101464286Y-70712619D02*
X101511905Y-70665000D01*
X101511905Y-70665000D02*
X101607143Y-70617380D01*
X101607143Y-70617380D02*
X101845238Y-70617380D01*
X101845238Y-70617380D02*
X101940476Y-70665000D01*
X101940476Y-70665000D02*
X101988095Y-70712619D01*
X101988095Y-70712619D02*
X102035714Y-70807857D01*
X102035714Y-70807857D02*
X102035714Y-70903095D01*
X102035714Y-70903095D02*
X101988095Y-71045952D01*
X101988095Y-71045952D02*
X101416667Y-71617380D01*
X101416667Y-71617380D02*
X102035714Y-71617380D01*
%TO.C,C13*%
X85757142Y-75472142D02*
X85709523Y-75519761D01*
X85709523Y-75519761D02*
X85566666Y-75567380D01*
X85566666Y-75567380D02*
X85471428Y-75567380D01*
X85471428Y-75567380D02*
X85328571Y-75519761D01*
X85328571Y-75519761D02*
X85233333Y-75424523D01*
X85233333Y-75424523D02*
X85185714Y-75329285D01*
X85185714Y-75329285D02*
X85138095Y-75138809D01*
X85138095Y-75138809D02*
X85138095Y-74995952D01*
X85138095Y-74995952D02*
X85185714Y-74805476D01*
X85185714Y-74805476D02*
X85233333Y-74710238D01*
X85233333Y-74710238D02*
X85328571Y-74615000D01*
X85328571Y-74615000D02*
X85471428Y-74567380D01*
X85471428Y-74567380D02*
X85566666Y-74567380D01*
X85566666Y-74567380D02*
X85709523Y-74615000D01*
X85709523Y-74615000D02*
X85757142Y-74662619D01*
X86709523Y-75567380D02*
X86138095Y-75567380D01*
X86423809Y-75567380D02*
X86423809Y-74567380D01*
X86423809Y-74567380D02*
X86328571Y-74710238D01*
X86328571Y-74710238D02*
X86233333Y-74805476D01*
X86233333Y-74805476D02*
X86138095Y-74853095D01*
X87042857Y-74567380D02*
X87661904Y-74567380D01*
X87661904Y-74567380D02*
X87328571Y-74948333D01*
X87328571Y-74948333D02*
X87471428Y-74948333D01*
X87471428Y-74948333D02*
X87566666Y-74995952D01*
X87566666Y-74995952D02*
X87614285Y-75043571D01*
X87614285Y-75043571D02*
X87661904Y-75138809D01*
X87661904Y-75138809D02*
X87661904Y-75376904D01*
X87661904Y-75376904D02*
X87614285Y-75472142D01*
X87614285Y-75472142D02*
X87566666Y-75519761D01*
X87566666Y-75519761D02*
X87471428Y-75567380D01*
X87471428Y-75567380D02*
X87185714Y-75567380D01*
X87185714Y-75567380D02*
X87090476Y-75519761D01*
X87090476Y-75519761D02*
X87042857Y-75472142D01*
%TO.C,J12*%
X82467380Y-64166666D02*
X81991190Y-64499999D01*
X82467380Y-64738094D02*
X81467380Y-64738094D01*
X81467380Y-64738094D02*
X81467380Y-64357142D01*
X81467380Y-64357142D02*
X81515000Y-64261904D01*
X81515000Y-64261904D02*
X81562619Y-64214285D01*
X81562619Y-64214285D02*
X81657857Y-64166666D01*
X81657857Y-64166666D02*
X81800714Y-64166666D01*
X81800714Y-64166666D02*
X81895952Y-64214285D01*
X81895952Y-64214285D02*
X81943571Y-64261904D01*
X81943571Y-64261904D02*
X81991190Y-64357142D01*
X81991190Y-64357142D02*
X81991190Y-64738094D01*
X81467380Y-63833332D02*
X82467380Y-63166666D01*
X81467380Y-63166666D02*
X82467380Y-63833332D01*
%TO.C,C15*%
X79957142Y-84472142D02*
X79909523Y-84519761D01*
X79909523Y-84519761D02*
X79766666Y-84567380D01*
X79766666Y-84567380D02*
X79671428Y-84567380D01*
X79671428Y-84567380D02*
X79528571Y-84519761D01*
X79528571Y-84519761D02*
X79433333Y-84424523D01*
X79433333Y-84424523D02*
X79385714Y-84329285D01*
X79385714Y-84329285D02*
X79338095Y-84138809D01*
X79338095Y-84138809D02*
X79338095Y-83995952D01*
X79338095Y-83995952D02*
X79385714Y-83805476D01*
X79385714Y-83805476D02*
X79433333Y-83710238D01*
X79433333Y-83710238D02*
X79528571Y-83615000D01*
X79528571Y-83615000D02*
X79671428Y-83567380D01*
X79671428Y-83567380D02*
X79766666Y-83567380D01*
X79766666Y-83567380D02*
X79909523Y-83615000D01*
X79909523Y-83615000D02*
X79957142Y-83662619D01*
X80909523Y-84567380D02*
X80338095Y-84567380D01*
X80623809Y-84567380D02*
X80623809Y-83567380D01*
X80623809Y-83567380D02*
X80528571Y-83710238D01*
X80528571Y-83710238D02*
X80433333Y-83805476D01*
X80433333Y-83805476D02*
X80338095Y-83853095D01*
X81814285Y-83567380D02*
X81338095Y-83567380D01*
X81338095Y-83567380D02*
X81290476Y-84043571D01*
X81290476Y-84043571D02*
X81338095Y-83995952D01*
X81338095Y-83995952D02*
X81433333Y-83948333D01*
X81433333Y-83948333D02*
X81671428Y-83948333D01*
X81671428Y-83948333D02*
X81766666Y-83995952D01*
X81766666Y-83995952D02*
X81814285Y-84043571D01*
X81814285Y-84043571D02*
X81861904Y-84138809D01*
X81861904Y-84138809D02*
X81861904Y-84376904D01*
X81861904Y-84376904D02*
X81814285Y-84472142D01*
X81814285Y-84472142D02*
X81766666Y-84519761D01*
X81766666Y-84519761D02*
X81671428Y-84567380D01*
X81671428Y-84567380D02*
X81433333Y-84567380D01*
X81433333Y-84567380D02*
X81338095Y-84519761D01*
X81338095Y-84519761D02*
X81290476Y-84472142D01*
%TO.C,J10*%
X83623810Y-50802380D02*
X83623810Y-49802380D01*
X84671428Y-50707142D02*
X84623809Y-50754761D01*
X84623809Y-50754761D02*
X84480952Y-50802380D01*
X84480952Y-50802380D02*
X84385714Y-50802380D01*
X84385714Y-50802380D02*
X84242857Y-50754761D01*
X84242857Y-50754761D02*
X84147619Y-50659523D01*
X84147619Y-50659523D02*
X84100000Y-50564285D01*
X84100000Y-50564285D02*
X84052381Y-50373809D01*
X84052381Y-50373809D02*
X84052381Y-50230952D01*
X84052381Y-50230952D02*
X84100000Y-50040476D01*
X84100000Y-50040476D02*
X84147619Y-49945238D01*
X84147619Y-49945238D02*
X84242857Y-49850000D01*
X84242857Y-49850000D02*
X84385714Y-49802380D01*
X84385714Y-49802380D02*
X84480952Y-49802380D01*
X84480952Y-49802380D02*
X84623809Y-49850000D01*
X84623809Y-49850000D02*
X84671428Y-49897619D01*
X85052381Y-50754761D02*
X85195238Y-50802380D01*
X85195238Y-50802380D02*
X85433333Y-50802380D01*
X85433333Y-50802380D02*
X85528571Y-50754761D01*
X85528571Y-50754761D02*
X85576190Y-50707142D01*
X85576190Y-50707142D02*
X85623809Y-50611904D01*
X85623809Y-50611904D02*
X85623809Y-50516666D01*
X85623809Y-50516666D02*
X85576190Y-50421428D01*
X85576190Y-50421428D02*
X85528571Y-50373809D01*
X85528571Y-50373809D02*
X85433333Y-50326190D01*
X85433333Y-50326190D02*
X85242857Y-50278571D01*
X85242857Y-50278571D02*
X85147619Y-50230952D01*
X85147619Y-50230952D02*
X85100000Y-50183333D01*
X85100000Y-50183333D02*
X85052381Y-50088095D01*
X85052381Y-50088095D02*
X85052381Y-49992857D01*
X85052381Y-49992857D02*
X85100000Y-49897619D01*
X85100000Y-49897619D02*
X85147619Y-49850000D01*
X85147619Y-49850000D02*
X85242857Y-49802380D01*
X85242857Y-49802380D02*
X85480952Y-49802380D01*
X85480952Y-49802380D02*
X85623809Y-49850000D01*
X86052381Y-50802380D02*
X86052381Y-49802380D01*
X86052381Y-49802380D02*
X86433333Y-49802380D01*
X86433333Y-49802380D02*
X86528571Y-49850000D01*
X86528571Y-49850000D02*
X86576190Y-49897619D01*
X86576190Y-49897619D02*
X86623809Y-49992857D01*
X86623809Y-49992857D02*
X86623809Y-50135714D01*
X86623809Y-50135714D02*
X86576190Y-50230952D01*
X86576190Y-50230952D02*
X86528571Y-50278571D01*
X86528571Y-50278571D02*
X86433333Y-50326190D01*
X86433333Y-50326190D02*
X86052381Y-50326190D01*
%TO.C,J13*%
X82867380Y-64761904D02*
X82867380Y-64190476D01*
X83867380Y-64476190D02*
X82867380Y-64476190D01*
X82867380Y-63952380D02*
X83867380Y-63285714D01*
X82867380Y-63285714D02*
X83867380Y-63952380D01*
D12*
%TO.C,C4*%
X78904107Y-65825000D02*
X78939821Y-65860714D01*
X78939821Y-65860714D02*
X78975535Y-65967857D01*
X78975535Y-65967857D02*
X78975535Y-66039285D01*
X78975535Y-66039285D02*
X78939821Y-66146428D01*
X78939821Y-66146428D02*
X78868392Y-66217857D01*
X78868392Y-66217857D02*
X78796964Y-66253571D01*
X78796964Y-66253571D02*
X78654107Y-66289285D01*
X78654107Y-66289285D02*
X78546964Y-66289285D01*
X78546964Y-66289285D02*
X78404107Y-66253571D01*
X78404107Y-66253571D02*
X78332678Y-66217857D01*
X78332678Y-66217857D02*
X78261250Y-66146428D01*
X78261250Y-66146428D02*
X78225535Y-66039285D01*
X78225535Y-66039285D02*
X78225535Y-65967857D01*
X78225535Y-65967857D02*
X78261250Y-65860714D01*
X78261250Y-65860714D02*
X78296964Y-65825000D01*
X78475535Y-65182143D02*
X78975535Y-65182143D01*
X78189821Y-65360714D02*
X78725535Y-65539285D01*
X78725535Y-65539285D02*
X78725535Y-65075000D01*
D10*
%TO.C,C6*%
X99072142Y-66766666D02*
X99119761Y-66814285D01*
X99119761Y-66814285D02*
X99167380Y-66957142D01*
X99167380Y-66957142D02*
X99167380Y-67052380D01*
X99167380Y-67052380D02*
X99119761Y-67195237D01*
X99119761Y-67195237D02*
X99024523Y-67290475D01*
X99024523Y-67290475D02*
X98929285Y-67338094D01*
X98929285Y-67338094D02*
X98738809Y-67385713D01*
X98738809Y-67385713D02*
X98595952Y-67385713D01*
X98595952Y-67385713D02*
X98405476Y-67338094D01*
X98405476Y-67338094D02*
X98310238Y-67290475D01*
X98310238Y-67290475D02*
X98215000Y-67195237D01*
X98215000Y-67195237D02*
X98167380Y-67052380D01*
X98167380Y-67052380D02*
X98167380Y-66957142D01*
X98167380Y-66957142D02*
X98215000Y-66814285D01*
X98215000Y-66814285D02*
X98262619Y-66766666D01*
X98167380Y-65909523D02*
X98167380Y-66099999D01*
X98167380Y-66099999D02*
X98215000Y-66195237D01*
X98215000Y-66195237D02*
X98262619Y-66242856D01*
X98262619Y-66242856D02*
X98405476Y-66338094D01*
X98405476Y-66338094D02*
X98595952Y-66385713D01*
X98595952Y-66385713D02*
X98976904Y-66385713D01*
X98976904Y-66385713D02*
X99072142Y-66338094D01*
X99072142Y-66338094D02*
X99119761Y-66290475D01*
X99119761Y-66290475D02*
X99167380Y-66195237D01*
X99167380Y-66195237D02*
X99167380Y-66004761D01*
X99167380Y-66004761D02*
X99119761Y-65909523D01*
X99119761Y-65909523D02*
X99072142Y-65861904D01*
X99072142Y-65861904D02*
X98976904Y-65814285D01*
X98976904Y-65814285D02*
X98738809Y-65814285D01*
X98738809Y-65814285D02*
X98643571Y-65861904D01*
X98643571Y-65861904D02*
X98595952Y-65909523D01*
X98595952Y-65909523D02*
X98548333Y-66004761D01*
X98548333Y-66004761D02*
X98548333Y-66195237D01*
X98548333Y-66195237D02*
X98595952Y-66290475D01*
X98595952Y-66290475D02*
X98643571Y-66338094D01*
X98643571Y-66338094D02*
X98738809Y-66385713D01*
D13*
%TO.C,J11*%
X83670000Y-81330000D02*
X83670000Y-80000000D01*
X85000000Y-81330000D02*
X83670000Y-81330000D01*
X86270000Y-81330000D02*
X96490000Y-81330000D01*
X86270000Y-81330000D02*
X86270000Y-78670000D01*
X96490000Y-81330000D02*
X96490000Y-78670000D01*
X86270000Y-78670000D02*
X96490000Y-78670000D01*
%TO.C,C8*%
X79710000Y-52559420D02*
X79710000Y-52840580D01*
X78690000Y-52559420D02*
X78690000Y-52840580D01*
%TO.C,Q2*%
X84860000Y-75200000D02*
X84860000Y-73525000D01*
X84860000Y-75200000D02*
X84860000Y-75850000D01*
X81740000Y-75200000D02*
X81740000Y-74550000D01*
X81740000Y-75200000D02*
X81740000Y-75850000D01*
%TO.C,C3*%
X101935000Y-59488748D02*
X101935000Y-60011252D01*
X100465000Y-59488748D02*
X100465000Y-60011252D01*
%TO.C,RN1*%
X84450000Y-67630000D02*
X82350000Y-67630000D01*
X84450000Y-72970000D02*
X82350000Y-72970000D01*
D14*
%TO.C,SW1*%
X96025900Y-49379600D02*
X96025900Y-47731140D01*
X96025900Y-46278260D02*
X96025900Y-45620400D01*
X96025900Y-45620400D02*
X87974100Y-45620400D01*
X94872740Y-49379600D02*
X96025900Y-49379600D01*
X90681740Y-49379600D02*
X93318260Y-49379600D01*
X87974100Y-49379600D02*
X89127260Y-49379600D01*
X87974100Y-47731140D02*
X87974100Y-49379600D01*
X87974100Y-45620400D02*
X87974100Y-46278260D01*
D13*
%TO.C,C1*%
X103510000Y-53434420D02*
X103510000Y-53715580D01*
X102490000Y-53434420D02*
X102490000Y-53715580D01*
%TO.C,R5*%
X101285436Y-64565000D02*
X101739564Y-64565000D01*
X101285436Y-66035000D02*
X101739564Y-66035000D01*
%TO.C,C2*%
X91811252Y-74135000D02*
X91288748Y-74135000D01*
X91811252Y-72665000D02*
X91288748Y-72665000D01*
%TO.C,C5*%
X87240580Y-68985000D02*
X86959420Y-68985000D01*
X87240580Y-67965000D02*
X86959420Y-67965000D01*
%TO.C,R6*%
X94935000Y-51772936D02*
X94935000Y-52227064D01*
X93465000Y-51772936D02*
X93465000Y-52227064D01*
%TO.C,Y1*%
X80100000Y-54950000D02*
X83300000Y-54950000D01*
X83300000Y-54950000D02*
X83300000Y-50950000D01*
%TO.C,Q1*%
X102315000Y-68300000D02*
X102315000Y-69975000D01*
X102315000Y-68300000D02*
X102315000Y-67650000D01*
X105435000Y-68300000D02*
X105435000Y-68950000D01*
X105435000Y-68300000D02*
X105435000Y-67650000D01*
%TO.C,R3*%
X92935000Y-51772936D02*
X92935000Y-52227064D01*
X91465000Y-51772936D02*
X91465000Y-52227064D01*
%TO.C,J3*%
X87590000Y-77630000D02*
X87590000Y-76300000D01*
X88920000Y-77630000D02*
X87590000Y-77630000D01*
X90190000Y-77630000D02*
X95330000Y-77630000D01*
X90190000Y-77630000D02*
X90190000Y-74970000D01*
X95330000Y-77630000D02*
X95330000Y-74970000D01*
X90190000Y-74970000D02*
X95330000Y-74970000D01*
D10*
%TO.C,U1*%
X95975000Y-55525000D02*
X95400000Y-55525000D01*
X95975000Y-55525000D02*
X95975000Y-56200000D01*
X95400000Y-55525000D02*
X95400000Y-54250000D01*
X85625000Y-55525000D02*
X86300000Y-55525000D01*
X85625000Y-55525000D02*
X85625000Y-56200000D01*
X95975000Y-65875000D02*
X95975000Y-65200000D01*
X95975000Y-65875000D02*
X95300000Y-65875000D01*
X85625000Y-65875000D02*
X85625000Y-65200000D01*
X85625000Y-65875000D02*
X86300000Y-65875000D01*
D13*
%TO.C,J1*%
X78670000Y-55645000D02*
X80000000Y-55645000D01*
X78670000Y-56975000D02*
X78670000Y-55645000D01*
X78670000Y-58245000D02*
X78670000Y-63385000D01*
X78670000Y-58245000D02*
X81330000Y-58245000D01*
X78670000Y-63385000D02*
X81330000Y-63385000D01*
X81330000Y-58245000D02*
X81330000Y-63385000D01*
%TO.C,R7*%
X98927064Y-75435000D02*
X98472936Y-75435000D01*
X98927064Y-73965000D02*
X98472936Y-73965000D01*
%TO.C,C9*%
X99834420Y-52290000D02*
X100115580Y-52290000D01*
X99834420Y-53310000D02*
X100115580Y-53310000D01*
%TO.C,C12*%
X90059420Y-67990000D02*
X90340580Y-67990000D01*
X90059420Y-69010000D02*
X90340580Y-69010000D01*
%TO.C,Q3*%
X78340000Y-75237500D02*
X78340000Y-76912500D01*
X78340000Y-75237500D02*
X78340000Y-74587500D01*
X81460000Y-75237500D02*
X81460000Y-75887500D01*
X81460000Y-75237500D02*
X81460000Y-74587500D01*
%TO.C,R1*%
X98472936Y-71965000D02*
X98927064Y-71965000D01*
X98472936Y-73435000D02*
X98927064Y-73435000D01*
%TO.C,C10*%
X89865580Y-53710000D02*
X89584420Y-53710000D01*
X89865580Y-52690000D02*
X89584420Y-52690000D01*
%TO.C,J2*%
X105330000Y-63855000D02*
X104000000Y-63855000D01*
X105330000Y-62525000D02*
X105330000Y-63855000D01*
X105330000Y-61255000D02*
X105330000Y-56115000D01*
X105330000Y-61255000D02*
X102670000Y-61255000D01*
X105330000Y-56115000D02*
X102670000Y-56115000D01*
X102670000Y-61255000D02*
X102670000Y-56115000D01*
%TO.C,R4*%
X102572936Y-72965000D02*
X103027064Y-72965000D01*
X102572936Y-74435000D02*
X103027064Y-74435000D01*
%TO.C,C7*%
X83690000Y-52640580D02*
X83690000Y-52359420D01*
X84710000Y-52640580D02*
X84710000Y-52359420D01*
%TO.C,C11*%
X98910000Y-59159420D02*
X98910000Y-59440580D01*
X97890000Y-59159420D02*
X97890000Y-59440580D01*
%TO.C,C14*%
X79310000Y-79284420D02*
X79310000Y-79565580D01*
X78290000Y-79284420D02*
X78290000Y-79565580D01*
%TO.C,U2*%
X87800000Y-72560000D02*
X89475000Y-72560000D01*
X87800000Y-72560000D02*
X87150000Y-72560000D01*
X87800000Y-69440000D02*
X88450000Y-69440000D01*
X87800000Y-69440000D02*
X87150000Y-69440000D01*
%TO.C,U3*%
X80840000Y-83510000D02*
X79790000Y-83510000D01*
X81960000Y-78290000D02*
X83010000Y-78290000D01*
X81960000Y-83510000D02*
X83010000Y-83510000D01*
%TO.C,R2*%
X104114564Y-72035000D02*
X103660436Y-72035000D01*
X104114564Y-70565000D02*
X103660436Y-70565000D01*
%TO.C,C13*%
X87540580Y-74110000D02*
X87259420Y-74110000D01*
X87540580Y-73090000D02*
X87259420Y-73090000D01*
%TO.C,C15*%
X78290000Y-82615580D02*
X78290000Y-82334420D01*
X79310000Y-82615580D02*
X79310000Y-82334420D01*
%TO.C,J10*%
X85905000Y-47330000D02*
X85905000Y-47965000D01*
X85270000Y-47330000D02*
X85905000Y-47330000D01*
%TO.C,C4*%
X80735000Y-65388748D02*
X80735000Y-65911252D01*
X79265000Y-65388748D02*
X79265000Y-65911252D01*
%TO.C,C6*%
X98290000Y-64215580D02*
X98290000Y-63934420D01*
X99310000Y-64215580D02*
X99310000Y-63934420D01*
%TD*%
M02*
