%TF.GenerationSoftware,KiCad,Pcbnew,7.0.9-7.0.9~ubuntu23.10.1*%
%TF.CreationDate,2024-01-10T03:53:01+01:00*%
%TF.ProjectId,LED_poi,4c45445f-706f-4692-9e6b-696361645f70,A*%
%TF.SameCoordinates,Original*%
%TF.FileFunction,Copper,L2,Inr*%
%TF.FilePolarity,Positive*%
%FSLAX46Y46*%
G04 Gerber Fmt 4.6, Leading zero omitted, Abs format (unit mm)*
G04 Created by KiCad (PCBNEW 7.0.9-7.0.9~ubuntu23.10.1) date 2024-01-10 03:53:01*
%MOMM*%
%LPD*%
G01*
G04 APERTURE LIST*
G04 Aperture macros list*
%AMRoundRect*
0 Rectangle with rounded corners*
0 $1 Rounding radius*
0 $2 $3 $4 $5 $6 $7 $8 $9 X,Y pos of 4 corners*
0 Add a 4 corners polygon primitive as box body*
4,1,4,$2,$3,$4,$5,$6,$7,$8,$9,$2,$3,0*
0 Add four circle primitives for the rounded corners*
1,1,$1+$1,$2,$3*
1,1,$1+$1,$4,$5*
1,1,$1+$1,$6,$7*
1,1,$1+$1,$8,$9*
0 Add four rect primitives between the rounded corners*
20,1,$1+$1,$2,$3,$4,$5,0*
20,1,$1+$1,$4,$5,$6,$7,0*
20,1,$1+$1,$6,$7,$8,$9,0*
20,1,$1+$1,$8,$9,$2,$3,0*%
G04 Aperture macros list end*
%ADD10C,0.150000*%
%TA.AperFunction,NonConductor*%
%ADD11C,0.150000*%
%TD*%
%TA.AperFunction,EtchedComponent*%
%ADD12C,0.120000*%
%TD*%
%TA.AperFunction,ComponentPad*%
%ADD13R,1.700000X1.700000*%
%TD*%
%TA.AperFunction,ComponentPad*%
%ADD14O,1.700000X1.700000*%
%TD*%
%TA.AperFunction,ComponentPad*%
%ADD15RoundRect,0.249999X-1.025001X-1.025001X1.025001X-1.025001X1.025001X1.025001X-1.025001X1.025001X0*%
%TD*%
%TA.AperFunction,ComponentPad*%
%ADD16RoundRect,0.250000X-0.550000X-0.550000X0.550000X-0.550000X0.550000X0.550000X-0.550000X0.550000X0*%
%TD*%
%TA.AperFunction,ViaPad*%
%ADD17C,0.800000*%
%TD*%
G04 APERTURE END LIST*
D10*
D11*
X99989160Y-83065057D02*
X100036779Y-83017438D01*
X100036779Y-83017438D02*
X100132017Y-82969819D01*
X100132017Y-82969819D02*
X100370112Y-82969819D01*
X100370112Y-82969819D02*
X100465350Y-83017438D01*
X100465350Y-83017438D02*
X100512969Y-83065057D01*
X100512969Y-83065057D02*
X100560588Y-83160295D01*
X100560588Y-83160295D02*
X100560588Y-83255533D01*
X100560588Y-83255533D02*
X100512969Y-83398390D01*
X100512969Y-83398390D02*
X99941541Y-83969819D01*
X99941541Y-83969819D02*
X100560588Y-83969819D01*
D12*
%TO.C,REF\u002A\u002A*%
X99500000Y-82750000D02*
X101000000Y-82750000D01*
X101000000Y-82750000D02*
X101000000Y-84250000D01*
X101000000Y-84250000D02*
X99500000Y-84250000D01*
X99500000Y-84250000D02*
X99500000Y-82750000D01*
%TD*%
D13*
%TO.N,/SCL_3V3*%
%TO.C,J11*%
X85000000Y-80000000D03*
D14*
%TO.N,/SDA_3V3*%
X87540000Y-80000000D03*
%TO.N,+3.3V*%
X90080000Y-80000000D03*
%TO.N,GND*%
X92620000Y-80000000D03*
%TO.N,/ACC_INT1*%
X95160000Y-80000000D03*
%TD*%
D15*
%TO.N,VCC*%
%TO.C,J6*%
X100000000Y-55750000D03*
%TD*%
%TO.N,GND*%
%TO.C,J9*%
X100100000Y-49800000D03*
%TD*%
D13*
%TO.N,GND*%
%TO.C,J3*%
X88920000Y-76300000D03*
D14*
%TO.N,/Data*%
X91460000Y-76300000D03*
%TO.N,VCC*%
X94000000Y-76300000D03*
%TD*%
D13*
%TO.N,GND*%
%TO.C,J1*%
X80000000Y-56975000D03*
D14*
%TO.N,/Data*%
X80000000Y-59515000D03*
%TO.N,VCC*%
X80000000Y-62055000D03*
%TD*%
D16*
%TO.N,Net-(J8-Pin_1)*%
%TO.C,J8*%
X96500000Y-51600000D03*
%TD*%
%TO.N,/KEY*%
%TO.C,J7*%
X100700000Y-67700000D03*
%TD*%
D15*
%TO.N,+BATT*%
%TO.C,J5*%
X94800000Y-69200000D03*
%TD*%
D13*
%TO.N,GND*%
%TO.C,J2*%
X104000000Y-62525000D03*
D14*
%TO.N,/Data*%
X104000000Y-59985000D03*
%TO.N,VCC*%
X104000000Y-57445000D03*
%TD*%
D16*
%TO.N,Net-(J4-Pin_1)*%
%TO.C,J4*%
X89900000Y-51200000D03*
%TD*%
D17*
%TO.N,VCC*%
X94100000Y-56500000D03*
X85230000Y-47035000D03*
X87700000Y-64800000D03*
X97900000Y-65700000D03*
X85000000Y-66700000D03*
X86800000Y-58300000D03*
%TO.N,GND*%
X80000000Y-55400000D03*
X85900000Y-74400000D03*
X98400000Y-62200000D03*
X86300000Y-69700000D03*
X86900000Y-59900000D03*
X80000000Y-67600000D03*
X91600000Y-56400000D03*
X84030000Y-47035000D03*
X88499994Y-52199994D03*
X82500000Y-50600000D03*
X80000000Y-68500000D03*
X78800000Y-80900000D03*
X87800000Y-63200000D03*
X94800000Y-57600000D03*
X83600000Y-78800000D03*
X104900000Y-72600000D03*
%TO.N,/XTAL1*%
X81600000Y-55700000D03*
X79900000Y-50900000D03*
%TO.N,/Data*%
X103700000Y-75200000D03*
%TO.N,+BATT*%
X88300000Y-48900000D03*
%TO.N,Net-(C1-Pad1)*%
X103000000Y-51700000D03*
X99600000Y-71000000D03*
%TO.N,/~{RST}*%
X83500000Y-57500000D03*
X82730000Y-47035000D03*
%TO.N,+3.3V*%
X84300000Y-75700000D03*
X79000000Y-77600000D03*
X79900000Y-84100000D03*
%TO.N,/SCL_3V3*%
X81220180Y-77652613D03*
%TO.N,/SDA_3V3*%
X82400000Y-77700000D03*
%TO.N,/ACC_INT1*%
X90200000Y-64700000D03*
%TO.N,/SDA*%
X81800000Y-62200000D03*
X83100000Y-68500000D03*
%TO.N,/SCL*%
X81900000Y-61000000D03*
X80800000Y-69700000D03*
%TO.N,/LED_Data*%
X94000000Y-64700000D03*
X101199994Y-72200000D03*
%TO.N,/ACC_INT2*%
X92000000Y-64700000D03*
X83800000Y-82000000D03*
%TD*%
%TA.AperFunction,Conductor*%
%TO.N,VCC*%
G36*
X102503455Y-46000889D02*
G01*
X102516485Y-46002357D01*
X102526354Y-46003470D01*
X102568982Y-46009081D01*
X102605831Y-46013932D01*
X102630599Y-46019830D01*
X102664736Y-46031775D01*
X102667976Y-46033011D01*
X102722195Y-46055469D01*
X102740695Y-46065027D01*
X102775520Y-46086909D01*
X102780267Y-46090212D01*
X102828200Y-46126993D01*
X102834295Y-46132337D01*
X102867660Y-46165702D01*
X102873005Y-46171798D01*
X102909786Y-46219731D01*
X102913097Y-46224490D01*
X102934967Y-46259296D01*
X102944536Y-46277818D01*
X102966983Y-46332014D01*
X102968223Y-46335263D01*
X102980169Y-46369401D01*
X102986066Y-46394169D01*
X102996530Y-46473647D01*
X102999110Y-46496538D01*
X102999500Y-46503486D01*
X102999500Y-50556398D01*
X103020387Y-50647908D01*
X103016114Y-50717647D01*
X102974815Y-50774004D01*
X102911762Y-50798256D01*
X102911822Y-50798820D01*
X102909723Y-50799040D01*
X102909603Y-50799087D01*
X102909079Y-50799108D01*
X102905355Y-50799499D01*
X102720197Y-50838855D01*
X102720192Y-50838857D01*
X102547270Y-50915848D01*
X102547265Y-50915851D01*
X102394129Y-51027111D01*
X102267466Y-51167785D01*
X102172821Y-51331715D01*
X102172818Y-51331722D01*
X102114953Y-51509814D01*
X102114326Y-51511744D01*
X102094540Y-51700000D01*
X102114326Y-51888256D01*
X102114327Y-51888259D01*
X102172818Y-52068277D01*
X102172821Y-52068284D01*
X102267467Y-52232216D01*
X102394129Y-52372888D01*
X102547265Y-52484148D01*
X102547270Y-52484151D01*
X102720192Y-52561142D01*
X102720197Y-52561144D01*
X102905354Y-52600500D01*
X102905355Y-52600500D01*
X103094644Y-52600500D01*
X103094646Y-52600500D01*
X103279803Y-52561144D01*
X103452730Y-52484151D01*
X103605871Y-52372888D01*
X103732533Y-52232216D01*
X103827179Y-52068284D01*
X103885674Y-51888256D01*
X103905460Y-51700000D01*
X103885674Y-51511744D01*
X103829497Y-51338849D01*
X103827181Y-51331722D01*
X103827180Y-51331721D01*
X103827179Y-51331716D01*
X103743339Y-51186500D01*
X103726866Y-51118599D01*
X103749719Y-51052573D01*
X103804640Y-51009382D01*
X103850726Y-51000500D01*
X105496518Y-51000500D01*
X105503455Y-51000889D01*
X105516485Y-51002357D01*
X105526354Y-51003470D01*
X105568982Y-51009081D01*
X105605831Y-51013932D01*
X105630599Y-51019830D01*
X105664736Y-51031775D01*
X105667976Y-51033011D01*
X105722195Y-51055469D01*
X105740695Y-51065027D01*
X105775520Y-51086909D01*
X105780267Y-51090212D01*
X105828200Y-51126993D01*
X105834295Y-51132337D01*
X105867660Y-51165702D01*
X105873005Y-51171798D01*
X105909786Y-51219731D01*
X105913097Y-51224490D01*
X105934967Y-51259296D01*
X105944536Y-51277818D01*
X105966983Y-51332014D01*
X105968223Y-51335263D01*
X105980169Y-51369401D01*
X105986066Y-51394169D01*
X105996530Y-51473647D01*
X105999110Y-51496538D01*
X105999500Y-51503486D01*
X105999500Y-72286927D01*
X105979815Y-72353966D01*
X105927011Y-72399721D01*
X105857853Y-72409665D01*
X105794297Y-72380640D01*
X105757569Y-72325245D01*
X105727181Y-72231722D01*
X105727180Y-72231721D01*
X105727179Y-72231716D01*
X105632533Y-72067784D01*
X105505871Y-71927112D01*
X105469243Y-71900500D01*
X105352734Y-71815851D01*
X105352729Y-71815848D01*
X105179807Y-71738857D01*
X105179802Y-71738855D01*
X105034001Y-71707865D01*
X104994646Y-71699500D01*
X104805354Y-71699500D01*
X104772897Y-71706398D01*
X104620197Y-71738855D01*
X104620192Y-71738857D01*
X104447270Y-71815848D01*
X104447265Y-71815851D01*
X104294129Y-71927111D01*
X104167466Y-72067785D01*
X104072821Y-72231715D01*
X104072818Y-72231722D01*
X104014327Y-72411740D01*
X104014326Y-72411744D01*
X103994540Y-72600000D01*
X104014326Y-72788256D01*
X104014327Y-72788259D01*
X104072818Y-72968277D01*
X104072821Y-72968284D01*
X104167467Y-73132216D01*
X104248471Y-73222180D01*
X104294129Y-73272888D01*
X104447265Y-73384148D01*
X104447270Y-73384151D01*
X104620192Y-73461142D01*
X104620197Y-73461144D01*
X104805354Y-73500500D01*
X104805355Y-73500500D01*
X105000686Y-73500500D01*
X105067725Y-73520185D01*
X105113480Y-73572989D01*
X105123424Y-73642147D01*
X105097632Y-73701814D01*
X105073533Y-73732031D01*
X105073532Y-73732033D01*
X105024596Y-73833649D01*
X104999500Y-73943600D01*
X104999500Y-77556399D01*
X105024596Y-77666350D01*
X105073532Y-77767966D01*
X105073533Y-77767969D01*
X105108196Y-77811433D01*
X105143854Y-77856146D01*
X105180710Y-77885538D01*
X105232030Y-77926466D01*
X105232033Y-77926467D01*
X105333649Y-77975403D01*
X105443600Y-78000499D01*
X105443605Y-78000499D01*
X105443607Y-78000500D01*
X105496518Y-78000500D01*
X105503455Y-78000889D01*
X105516485Y-78002357D01*
X105526354Y-78003470D01*
X105568982Y-78009081D01*
X105605831Y-78013932D01*
X105630599Y-78019830D01*
X105664736Y-78031775D01*
X105667976Y-78033011D01*
X105722195Y-78055469D01*
X105740695Y-78065027D01*
X105775520Y-78086909D01*
X105780267Y-78090212D01*
X105828200Y-78126993D01*
X105834295Y-78132337D01*
X105867660Y-78165702D01*
X105873005Y-78171798D01*
X105909786Y-78219731D01*
X105913097Y-78224490D01*
X105934967Y-78259296D01*
X105944536Y-78277818D01*
X105966983Y-78332014D01*
X105968223Y-78335263D01*
X105980169Y-78369401D01*
X105986066Y-78394169D01*
X105996530Y-78473647D01*
X105999110Y-78496538D01*
X105999500Y-78503486D01*
X105999500Y-82997975D01*
X105999367Y-83002032D01*
X105994017Y-83083648D01*
X105981015Y-83265438D01*
X105979980Y-83273118D01*
X105956846Y-83389420D01*
X105925472Y-83533646D01*
X105923597Y-83540401D01*
X105889297Y-83641448D01*
X105883208Y-83659388D01*
X105883195Y-83659425D01*
X105833841Y-83791741D01*
X105831355Y-83797499D01*
X105774421Y-83912952D01*
X105707828Y-84034907D01*
X105704961Y-84039641D01*
X105633461Y-84146649D01*
X105631543Y-84149359D01*
X105549744Y-84258631D01*
X105546723Y-84262357D01*
X105461529Y-84359502D01*
X105458755Y-84362464D01*
X105362464Y-84458755D01*
X105359502Y-84461529D01*
X105262357Y-84546723D01*
X105258631Y-84549744D01*
X105149359Y-84631543D01*
X105146649Y-84633461D01*
X105039641Y-84704961D01*
X105034907Y-84707828D01*
X104912952Y-84774421D01*
X104797499Y-84831355D01*
X104791741Y-84833841D01*
X104670956Y-84878893D01*
X104659418Y-84883197D01*
X104540401Y-84923597D01*
X104533646Y-84925472D01*
X104389420Y-84956846D01*
X104273118Y-84979980D01*
X104265438Y-84981015D01*
X104083648Y-84994017D01*
X104032582Y-84997364D01*
X104002025Y-84999367D01*
X103997976Y-84999500D01*
X101278595Y-84999500D01*
X101211556Y-84979815D01*
X101165801Y-84927011D01*
X101155857Y-84857853D01*
X101184882Y-84794297D01*
X101231142Y-84760939D01*
X101282668Y-84739596D01*
X101399752Y-84649756D01*
X101399756Y-84649752D01*
X101479889Y-84545319D01*
X101489596Y-84532669D01*
X101546074Y-84396320D01*
X101565337Y-84250000D01*
X101561030Y-84217289D01*
X101560500Y-84209191D01*
X101560500Y-82790808D01*
X101561031Y-82782706D01*
X101565337Y-82749999D01*
X101565337Y-82749998D01*
X101546074Y-82603681D01*
X101546074Y-82603680D01*
X101489596Y-82467332D01*
X101489596Y-82467331D01*
X101399757Y-82350249D01*
X101399755Y-82350247D01*
X101399754Y-82350246D01*
X101370671Y-82327930D01*
X101282669Y-82260404D01*
X101282668Y-82260403D01*
X101146320Y-82203926D01*
X101146318Y-82203925D01*
X101000001Y-82184663D01*
X101000000Y-82184663D01*
X100967290Y-82188969D01*
X100959192Y-82189500D01*
X99540808Y-82189500D01*
X99532709Y-82188969D01*
X99500000Y-82184663D01*
X99463259Y-82189500D01*
X99353681Y-82203925D01*
X99353679Y-82203926D01*
X99217331Y-82260403D01*
X99100247Y-82350243D01*
X99010403Y-82467331D01*
X98953926Y-82603679D01*
X98953925Y-82603681D01*
X98934663Y-82749998D01*
X98934663Y-82749999D01*
X98938969Y-82782706D01*
X98939500Y-82790808D01*
X98939500Y-84209191D01*
X98938969Y-84217293D01*
X98934663Y-84249999D01*
X98934663Y-84250000D01*
X98939500Y-84286741D01*
X98953925Y-84396318D01*
X98953926Y-84396320D01*
X99010403Y-84532668D01*
X99100243Y-84649752D01*
X99217331Y-84739596D01*
X99268857Y-84760939D01*
X99323260Y-84804780D01*
X99345325Y-84871074D01*
X99328046Y-84938773D01*
X99276909Y-84986384D01*
X99221404Y-84999500D01*
X80575599Y-84999500D01*
X80508560Y-84979815D01*
X80462805Y-84927011D01*
X80452861Y-84857853D01*
X80481886Y-84794297D01*
X80502713Y-84775183D01*
X80503954Y-84774280D01*
X80505871Y-84772888D01*
X80632533Y-84632216D01*
X80727179Y-84468284D01*
X80785674Y-84288256D01*
X80805460Y-84100000D01*
X80785674Y-83911744D01*
X80727179Y-83731716D01*
X80632533Y-83567784D01*
X80505871Y-83427112D01*
X80456327Y-83391116D01*
X80352734Y-83315851D01*
X80352729Y-83315848D01*
X80179807Y-83238857D01*
X80179802Y-83238855D01*
X80034001Y-83207865D01*
X79994646Y-83199500D01*
X79805354Y-83199500D01*
X79772897Y-83206398D01*
X79620197Y-83238855D01*
X79620192Y-83238857D01*
X79447270Y-83315848D01*
X79447265Y-83315851D01*
X79294129Y-83427111D01*
X79167466Y-83567785D01*
X79072821Y-83731715D01*
X79072818Y-83731722D01*
X79022464Y-83886697D01*
X79014326Y-83911744D01*
X78994540Y-84100000D01*
X79014326Y-84288256D01*
X79014327Y-84288259D01*
X79072818Y-84468277D01*
X79072820Y-84468282D01*
X79100021Y-84515396D01*
X79116492Y-84583297D01*
X79093640Y-84649323D01*
X79038718Y-84692513D01*
X78969164Y-84699154D01*
X78923744Y-84680498D01*
X78888543Y-84656977D01*
X78853348Y-84633460D01*
X78850639Y-84631543D01*
X78810592Y-84601564D01*
X78741353Y-84549732D01*
X78737648Y-84546729D01*
X78640492Y-84461526D01*
X78637549Y-84458769D01*
X78541228Y-84362448D01*
X78538469Y-84359502D01*
X78505450Y-84321851D01*
X78453265Y-84262345D01*
X78450271Y-84258652D01*
X78368454Y-84149358D01*
X78366537Y-84146649D01*
X78295036Y-84039641D01*
X78292170Y-84034906D01*
X78225578Y-83912952D01*
X78168643Y-83797499D01*
X78166157Y-83791741D01*
X78153076Y-83756671D01*
X78116805Y-83659425D01*
X78076395Y-83540383D01*
X78074531Y-83533666D01*
X78043153Y-83389420D01*
X78038641Y-83366738D01*
X78020015Y-83273100D01*
X78018985Y-83265459D01*
X78005986Y-83083708D01*
X78002938Y-83037198D01*
X78000633Y-83002019D01*
X78000500Y-82997964D01*
X78000500Y-81675571D01*
X78020185Y-81608532D01*
X78072989Y-81562777D01*
X78142147Y-81552833D01*
X78197381Y-81575251D01*
X78335461Y-81675571D01*
X78347270Y-81684151D01*
X78520192Y-81761142D01*
X78520197Y-81761144D01*
X78705354Y-81800500D01*
X78705355Y-81800500D01*
X78894644Y-81800500D01*
X78894646Y-81800500D01*
X79079803Y-81761144D01*
X79252730Y-81684151D01*
X79405871Y-81572888D01*
X79532533Y-81432216D01*
X79627179Y-81268284D01*
X79685674Y-81088256D01*
X79705460Y-80900000D01*
X79685674Y-80711744D01*
X79627179Y-80531716D01*
X79532533Y-80367784D01*
X79405871Y-80227112D01*
X79405870Y-80227111D01*
X79252734Y-80115851D01*
X79252729Y-80115848D01*
X79079807Y-80038857D01*
X79079802Y-80038855D01*
X78934001Y-80007865D01*
X78894646Y-79999500D01*
X78705354Y-79999500D01*
X78672897Y-80006398D01*
X78520197Y-80038855D01*
X78520192Y-80038857D01*
X78347270Y-80115848D01*
X78347265Y-80115851D01*
X78197385Y-80224746D01*
X78131579Y-80248226D01*
X78063525Y-80232400D01*
X78014830Y-80182295D01*
X78000500Y-80124428D01*
X78000500Y-78132589D01*
X78020185Y-78065550D01*
X78072989Y-78019795D01*
X78142147Y-78009851D01*
X78205703Y-78038876D01*
X78231885Y-78070587D01*
X78254338Y-78109475D01*
X78267467Y-78132216D01*
X78394129Y-78272888D01*
X78547265Y-78384148D01*
X78547270Y-78384151D01*
X78720192Y-78461142D01*
X78720197Y-78461144D01*
X78905354Y-78500500D01*
X78905355Y-78500500D01*
X79094644Y-78500500D01*
X79094646Y-78500500D01*
X79279803Y-78461144D01*
X79452730Y-78384151D01*
X79605871Y-78272888D01*
X79732533Y-78132216D01*
X79827179Y-77968284D01*
X79885674Y-77788256D01*
X79899930Y-77652613D01*
X80314720Y-77652613D01*
X80334506Y-77840869D01*
X80334507Y-77840872D01*
X80392998Y-78020890D01*
X80393001Y-78020897D01*
X80487647Y-78184829D01*
X80614309Y-78325501D01*
X80767445Y-78436761D01*
X80767450Y-78436764D01*
X80940372Y-78513755D01*
X80940377Y-78513757D01*
X81125534Y-78553113D01*
X81125535Y-78553113D01*
X81314824Y-78553113D01*
X81314826Y-78553113D01*
X81499983Y-78513757D01*
X81672910Y-78436764D01*
X81704592Y-78413745D01*
X81770396Y-78390264D01*
X81838450Y-78406088D01*
X81850352Y-78413736D01*
X81947270Y-78484151D01*
X82120192Y-78561142D01*
X82120197Y-78561144D01*
X82305354Y-78600500D01*
X82305355Y-78600500D01*
X82494644Y-78600500D01*
X82494646Y-78600500D01*
X82553613Y-78587966D01*
X82623280Y-78593282D01*
X82679014Y-78635419D01*
X82703119Y-78700999D01*
X82702715Y-78722217D01*
X82694540Y-78800000D01*
X82714326Y-78988256D01*
X82714327Y-78988259D01*
X82772818Y-79168277D01*
X82772821Y-79168284D01*
X82867467Y-79332216D01*
X82994129Y-79472888D01*
X83147265Y-79584148D01*
X83147270Y-79584151D01*
X83320192Y-79661142D01*
X83320197Y-79661144D01*
X83505354Y-79700500D01*
X83525500Y-79700500D01*
X83592539Y-79720185D01*
X83638294Y-79772989D01*
X83649500Y-79824500D01*
X83649500Y-80897870D01*
X83649501Y-80897876D01*
X83655909Y-80957486D01*
X83658369Y-80964082D01*
X83663351Y-81033774D01*
X83629864Y-81095096D01*
X83568539Y-81128578D01*
X83567969Y-81128701D01*
X83520194Y-81138856D01*
X83520192Y-81138857D01*
X83347270Y-81215848D01*
X83347265Y-81215851D01*
X83194129Y-81327111D01*
X83067466Y-81467785D01*
X82972821Y-81631715D01*
X82972818Y-81631722D01*
X82930767Y-81761144D01*
X82914326Y-81811744D01*
X82894540Y-82000000D01*
X82914326Y-82188256D01*
X82914327Y-82188259D01*
X82972818Y-82368277D01*
X82972821Y-82368284D01*
X83067467Y-82532216D01*
X83131813Y-82603679D01*
X83194129Y-82672888D01*
X83347265Y-82784148D01*
X83347270Y-82784151D01*
X83520192Y-82861142D01*
X83520197Y-82861144D01*
X83705354Y-82900500D01*
X83705355Y-82900500D01*
X83894644Y-82900500D01*
X83894646Y-82900500D01*
X84079803Y-82861144D01*
X84252730Y-82784151D01*
X84405871Y-82672888D01*
X84532533Y-82532216D01*
X84627179Y-82368284D01*
X84685674Y-82188256D01*
X84705460Y-82000000D01*
X84685674Y-81811744D01*
X84627179Y-81631716D01*
X84572205Y-81536498D01*
X84555733Y-81468598D01*
X84578586Y-81402571D01*
X84633508Y-81359381D01*
X84679593Y-81350499D01*
X85897871Y-81350499D01*
X85897872Y-81350499D01*
X85957483Y-81344091D01*
X86092331Y-81293796D01*
X86207546Y-81207546D01*
X86293796Y-81092331D01*
X86342810Y-80960916D01*
X86384681Y-80904984D01*
X86450145Y-80880566D01*
X86518418Y-80895417D01*
X86546673Y-80916569D01*
X86668599Y-81038495D01*
X86749434Y-81095096D01*
X86862165Y-81174032D01*
X86862167Y-81174033D01*
X86862170Y-81174035D01*
X87076337Y-81273903D01*
X87304592Y-81335063D01*
X87492918Y-81351539D01*
X87539999Y-81355659D01*
X87540000Y-81355659D01*
X87540001Y-81355659D01*
X87579234Y-81352226D01*
X87775408Y-81335063D01*
X88003663Y-81273903D01*
X88217830Y-81174035D01*
X88411401Y-81038495D01*
X88578495Y-80871401D01*
X88708425Y-80685842D01*
X88763002Y-80642217D01*
X88832500Y-80635023D01*
X88894855Y-80666546D01*
X88911575Y-80685842D01*
X89041500Y-80871395D01*
X89041505Y-80871401D01*
X89208599Y-81038495D01*
X89289434Y-81095096D01*
X89402165Y-81174032D01*
X89402167Y-81174033D01*
X89402170Y-81174035D01*
X89616337Y-81273903D01*
X89844592Y-81335063D01*
X90032918Y-81351539D01*
X90079999Y-81355659D01*
X90080000Y-81355659D01*
X90080001Y-81355659D01*
X90119234Y-81352226D01*
X90315408Y-81335063D01*
X90543663Y-81273903D01*
X90757830Y-81174035D01*
X90951401Y-81038495D01*
X91118495Y-80871401D01*
X91248425Y-80685842D01*
X91303002Y-80642217D01*
X91372500Y-80635023D01*
X91434855Y-80666546D01*
X91451575Y-80685842D01*
X91581500Y-80871395D01*
X91581505Y-80871401D01*
X91748599Y-81038495D01*
X91829434Y-81095096D01*
X91942165Y-81174032D01*
X91942167Y-81174033D01*
X91942170Y-81174035D01*
X92156337Y-81273903D01*
X92384592Y-81335063D01*
X92572918Y-81351539D01*
X92619999Y-81355659D01*
X92620000Y-81355659D01*
X92620001Y-81355659D01*
X92659234Y-81352226D01*
X92855408Y-81335063D01*
X93083663Y-81273903D01*
X93297830Y-81174035D01*
X93491401Y-81038495D01*
X93658495Y-80871401D01*
X93788425Y-80685842D01*
X93843002Y-80642217D01*
X93912500Y-80635023D01*
X93974855Y-80666546D01*
X93991575Y-80685842D01*
X94121500Y-80871395D01*
X94121505Y-80871401D01*
X94288599Y-81038495D01*
X94369434Y-81095096D01*
X94482165Y-81174032D01*
X94482167Y-81174033D01*
X94482170Y-81174035D01*
X94696337Y-81273903D01*
X94924592Y-81335063D01*
X95112918Y-81351539D01*
X95159999Y-81355659D01*
X95160000Y-81355659D01*
X95160001Y-81355659D01*
X95199234Y-81352226D01*
X95395408Y-81335063D01*
X95623663Y-81273903D01*
X95837830Y-81174035D01*
X96031401Y-81038495D01*
X96198495Y-80871401D01*
X96334035Y-80677830D01*
X96433903Y-80463663D01*
X96495063Y-80235408D01*
X96515659Y-80000000D01*
X96495063Y-79764592D01*
X96433903Y-79536337D01*
X96334035Y-79322171D01*
X96328425Y-79314158D01*
X96198494Y-79128597D01*
X96031402Y-78961506D01*
X96031395Y-78961501D01*
X95837834Y-78825967D01*
X95837830Y-78825965D01*
X95782146Y-78799999D01*
X95623663Y-78726097D01*
X95623659Y-78726096D01*
X95623655Y-78726094D01*
X95395413Y-78664938D01*
X95395403Y-78664936D01*
X95160001Y-78644341D01*
X95159999Y-78644341D01*
X94924596Y-78664936D01*
X94924586Y-78664938D01*
X94696344Y-78726094D01*
X94696335Y-78726098D01*
X94482171Y-78825964D01*
X94482169Y-78825965D01*
X94288597Y-78961505D01*
X94121505Y-79128597D01*
X93991575Y-79314158D01*
X93936998Y-79357783D01*
X93867500Y-79364977D01*
X93805145Y-79333454D01*
X93788425Y-79314158D01*
X93658494Y-79128597D01*
X93491402Y-78961506D01*
X93491395Y-78961501D01*
X93297834Y-78825967D01*
X93297830Y-78825965D01*
X93242146Y-78799999D01*
X93083663Y-78726097D01*
X93083659Y-78726096D01*
X93083655Y-78726094D01*
X92855413Y-78664938D01*
X92855403Y-78664936D01*
X92620001Y-78644341D01*
X92619999Y-78644341D01*
X92384596Y-78664936D01*
X92384586Y-78664938D01*
X92156344Y-78726094D01*
X92156335Y-78726098D01*
X91942171Y-78825964D01*
X91942169Y-78825965D01*
X91748597Y-78961505D01*
X91581505Y-79128597D01*
X91451575Y-79314158D01*
X91396998Y-79357783D01*
X91327500Y-79364977D01*
X91265145Y-79333454D01*
X91248425Y-79314158D01*
X91118494Y-79128597D01*
X90951402Y-78961506D01*
X90951395Y-78961501D01*
X90757834Y-78825967D01*
X90757830Y-78825965D01*
X90702146Y-78799999D01*
X90543663Y-78726097D01*
X90543659Y-78726096D01*
X90543655Y-78726094D01*
X90315413Y-78664938D01*
X90315403Y-78664936D01*
X90080001Y-78644341D01*
X90079999Y-78644341D01*
X89844596Y-78664936D01*
X89844586Y-78664938D01*
X89616344Y-78726094D01*
X89616335Y-78726098D01*
X89402171Y-78825964D01*
X89402169Y-78825965D01*
X89208597Y-78961505D01*
X89041505Y-79128597D01*
X88911575Y-79314158D01*
X88856998Y-79357783D01*
X88787500Y-79364977D01*
X88725145Y-79333454D01*
X88708425Y-79314158D01*
X88578494Y-79128597D01*
X88411402Y-78961506D01*
X88411395Y-78961501D01*
X88217834Y-78825967D01*
X88217830Y-78825965D01*
X88162146Y-78799999D01*
X88003663Y-78726097D01*
X88003659Y-78726096D01*
X88003655Y-78726094D01*
X87775413Y-78664938D01*
X87775403Y-78664936D01*
X87540001Y-78644341D01*
X87539999Y-78644341D01*
X87304596Y-78664936D01*
X87304586Y-78664938D01*
X87076344Y-78726094D01*
X87076335Y-78726098D01*
X86862171Y-78825964D01*
X86862169Y-78825965D01*
X86668600Y-78961503D01*
X86546673Y-79083430D01*
X86485350Y-79116914D01*
X86415658Y-79111930D01*
X86359725Y-79070058D01*
X86342810Y-79039081D01*
X86293797Y-78907671D01*
X86293793Y-78907664D01*
X86207547Y-78792455D01*
X86207544Y-78792452D01*
X86092335Y-78706206D01*
X86092328Y-78706202D01*
X85957482Y-78655908D01*
X85957483Y-78655908D01*
X85897883Y-78649501D01*
X85897881Y-78649500D01*
X85897873Y-78649500D01*
X85897865Y-78649500D01*
X84588033Y-78649500D01*
X84520994Y-78629815D01*
X84475239Y-78577011D01*
X84470102Y-78563818D01*
X84427181Y-78431722D01*
X84427180Y-78431721D01*
X84427179Y-78431716D01*
X84332533Y-78267784D01*
X84205871Y-78127112D01*
X84205870Y-78127111D01*
X84052734Y-78015851D01*
X84052729Y-78015848D01*
X83879807Y-77938857D01*
X83879802Y-77938855D01*
X83728595Y-77906716D01*
X83694646Y-77899500D01*
X83505354Y-77899500D01*
X83471405Y-77906716D01*
X83446384Y-77912034D01*
X83376717Y-77906716D01*
X83320984Y-77864578D01*
X83296880Y-77798998D01*
X83297283Y-77777793D01*
X83305460Y-77700000D01*
X83285674Y-77511744D01*
X83227179Y-77331716D01*
X83149903Y-77197870D01*
X87569500Y-77197870D01*
X87569501Y-77197876D01*
X87575908Y-77257483D01*
X87626202Y-77392328D01*
X87626206Y-77392335D01*
X87712452Y-77507544D01*
X87712455Y-77507547D01*
X87827664Y-77593793D01*
X87827671Y-77593797D01*
X87962517Y-77644091D01*
X87962516Y-77644091D01*
X87969444Y-77644835D01*
X88022127Y-77650500D01*
X89817872Y-77650499D01*
X89877483Y-77644091D01*
X90012331Y-77593796D01*
X90127546Y-77507546D01*
X90213796Y-77392331D01*
X90262810Y-77260916D01*
X90304681Y-77204984D01*
X90370145Y-77180566D01*
X90438418Y-77195417D01*
X90466673Y-77216569D01*
X90588599Y-77338495D01*
X90685384Y-77406265D01*
X90782165Y-77474032D01*
X90782167Y-77474033D01*
X90782170Y-77474035D01*
X90996337Y-77573903D01*
X91224592Y-77635063D01*
X91401034Y-77650500D01*
X91459999Y-77655659D01*
X91460000Y-77655659D01*
X91460001Y-77655659D01*
X91518966Y-77650500D01*
X91695408Y-77635063D01*
X91923663Y-77573903D01*
X92137830Y-77474035D01*
X92331401Y-77338495D01*
X92498495Y-77171401D01*
X92628730Y-76985405D01*
X92683307Y-76941781D01*
X92752805Y-76934587D01*
X92815160Y-76966110D01*
X92831879Y-76985405D01*
X92961890Y-77171078D01*
X93128917Y-77338105D01*
X93322421Y-77473600D01*
X93536507Y-77573429D01*
X93536516Y-77573433D01*
X93750000Y-77630634D01*
X93750000Y-76735501D01*
X93857685Y-76784680D01*
X93964237Y-76800000D01*
X94035763Y-76800000D01*
X94142315Y-76784680D01*
X94250000Y-76735501D01*
X94250000Y-77630633D01*
X94463483Y-77573433D01*
X94463492Y-77573429D01*
X94677578Y-77473600D01*
X94871082Y-77338105D01*
X95038105Y-77171082D01*
X95173600Y-76977578D01*
X95273429Y-76763492D01*
X95273432Y-76763486D01*
X95330636Y-76550000D01*
X94433686Y-76550000D01*
X94459493Y-76509844D01*
X94500000Y-76371889D01*
X94500000Y-76228111D01*
X94459493Y-76090156D01*
X94433686Y-76050000D01*
X95330636Y-76050000D01*
X95330635Y-76049999D01*
X95273432Y-75836513D01*
X95273429Y-75836507D01*
X95173600Y-75622422D01*
X95173599Y-75622420D01*
X95038113Y-75428926D01*
X95038108Y-75428920D01*
X94871082Y-75261894D01*
X94782690Y-75200000D01*
X102794540Y-75200000D01*
X102814326Y-75388256D01*
X102814327Y-75388259D01*
X102872818Y-75568277D01*
X102872821Y-75568284D01*
X102967467Y-75732216D01*
X103061377Y-75836513D01*
X103094129Y-75872888D01*
X103247265Y-75984148D01*
X103247270Y-75984151D01*
X103420192Y-76061142D01*
X103420197Y-76061144D01*
X103605354Y-76100500D01*
X103605355Y-76100500D01*
X103794644Y-76100500D01*
X103794646Y-76100500D01*
X103979803Y-76061144D01*
X104152730Y-75984151D01*
X104305871Y-75872888D01*
X104432533Y-75732216D01*
X104527179Y-75568284D01*
X104585674Y-75388256D01*
X104605460Y-75200000D01*
X104585674Y-75011744D01*
X104527179Y-74831716D01*
X104432533Y-74667784D01*
X104305871Y-74527112D01*
X104305870Y-74527111D01*
X104152734Y-74415851D01*
X104152729Y-74415848D01*
X103979807Y-74338857D01*
X103979802Y-74338855D01*
X103834001Y-74307865D01*
X103794646Y-74299500D01*
X103605354Y-74299500D01*
X103572897Y-74306398D01*
X103420197Y-74338855D01*
X103420192Y-74338857D01*
X103247270Y-74415848D01*
X103247265Y-74415851D01*
X103094129Y-74527111D01*
X102967466Y-74667785D01*
X102872821Y-74831715D01*
X102872818Y-74831722D01*
X102816126Y-75006204D01*
X102814326Y-75011744D01*
X102794540Y-75200000D01*
X94782690Y-75200000D01*
X94677578Y-75126399D01*
X94463492Y-75026570D01*
X94463486Y-75026567D01*
X94250000Y-74969364D01*
X94250000Y-75864498D01*
X94142315Y-75815320D01*
X94035763Y-75800000D01*
X93964237Y-75800000D01*
X93857685Y-75815320D01*
X93750000Y-75864498D01*
X93750000Y-74969364D01*
X93749999Y-74969364D01*
X93536513Y-75026567D01*
X93536507Y-75026570D01*
X93322422Y-75126399D01*
X93322420Y-75126400D01*
X93128926Y-75261886D01*
X93128920Y-75261891D01*
X92961891Y-75428920D01*
X92961890Y-75428922D01*
X92831880Y-75614595D01*
X92777303Y-75658219D01*
X92707804Y-75665412D01*
X92645450Y-75633890D01*
X92628730Y-75614594D01*
X92498494Y-75428597D01*
X92331402Y-75261506D01*
X92331395Y-75261501D01*
X92330882Y-75261142D01*
X92254518Y-75207671D01*
X92137834Y-75125967D01*
X92137830Y-75125965D01*
X92137828Y-75125964D01*
X91923663Y-75026097D01*
X91923659Y-75026096D01*
X91923655Y-75026094D01*
X91695413Y-74964938D01*
X91695403Y-74964936D01*
X91460001Y-74944341D01*
X91459999Y-74944341D01*
X91224596Y-74964936D01*
X91224586Y-74964938D01*
X90996344Y-75026094D01*
X90996337Y-75026096D01*
X90996337Y-75026097D01*
X90994160Y-75027112D01*
X90782171Y-75125964D01*
X90782169Y-75125965D01*
X90588600Y-75261503D01*
X90466673Y-75383430D01*
X90405350Y-75416914D01*
X90335658Y-75411930D01*
X90279725Y-75370058D01*
X90262810Y-75339081D01*
X90213797Y-75207671D01*
X90213793Y-75207664D01*
X90127547Y-75092455D01*
X90127544Y-75092452D01*
X90012335Y-75006206D01*
X90012328Y-75006202D01*
X89877482Y-74955908D01*
X89877483Y-74955908D01*
X89817883Y-74949501D01*
X89817881Y-74949500D01*
X89817873Y-74949500D01*
X89817864Y-74949500D01*
X88022129Y-74949500D01*
X88022123Y-74949501D01*
X87962516Y-74955908D01*
X87827671Y-75006202D01*
X87827664Y-75006206D01*
X87712455Y-75092452D01*
X87712452Y-75092455D01*
X87626206Y-75207664D01*
X87626202Y-75207671D01*
X87575908Y-75342517D01*
X87569501Y-75402116D01*
X87569500Y-75402135D01*
X87569500Y-77197870D01*
X83149903Y-77197870D01*
X83132533Y-77167784D01*
X83005871Y-77027112D01*
X83005870Y-77027111D01*
X82852734Y-76915851D01*
X82852729Y-76915848D01*
X82679807Y-76838857D01*
X82679802Y-76838855D01*
X82534001Y-76807865D01*
X82494646Y-76799500D01*
X82305354Y-76799500D01*
X82272897Y-76806398D01*
X82120197Y-76838855D01*
X82120192Y-76838857D01*
X81947270Y-76915848D01*
X81947267Y-76915850D01*
X81915584Y-76938869D01*
X81849777Y-76962347D01*
X81781724Y-76946520D01*
X81769816Y-76938867D01*
X81672914Y-76868464D01*
X81672909Y-76868461D01*
X81499987Y-76791470D01*
X81499982Y-76791468D01*
X81354181Y-76760478D01*
X81314826Y-76752113D01*
X81125534Y-76752113D01*
X81093077Y-76759011D01*
X80940377Y-76791468D01*
X80940372Y-76791470D01*
X80767450Y-76868461D01*
X80767445Y-76868464D01*
X80614309Y-76979724D01*
X80487646Y-77120398D01*
X80393001Y-77284328D01*
X80392998Y-77284335D01*
X80351602Y-77411740D01*
X80334506Y-77464357D01*
X80314720Y-77652613D01*
X79899930Y-77652613D01*
X79905460Y-77600000D01*
X79885674Y-77411744D01*
X79827179Y-77231716D01*
X79732533Y-77067784D01*
X79605871Y-76927112D01*
X79590372Y-76915851D01*
X79452734Y-76815851D01*
X79452729Y-76815848D01*
X79279807Y-76738857D01*
X79279802Y-76738855D01*
X79134001Y-76707865D01*
X79094646Y-76699500D01*
X78905354Y-76699500D01*
X78872897Y-76706398D01*
X78720197Y-76738855D01*
X78720192Y-76738857D01*
X78547270Y-76815848D01*
X78547265Y-76815851D01*
X78394129Y-76927111D01*
X78267466Y-77067785D01*
X78231887Y-77129410D01*
X78181320Y-77177626D01*
X78112713Y-77190849D01*
X78047848Y-77164881D01*
X78007320Y-77107967D01*
X78000500Y-77067410D01*
X78000500Y-75700000D01*
X83394540Y-75700000D01*
X83414326Y-75888256D01*
X83414327Y-75888259D01*
X83472818Y-76068277D01*
X83472821Y-76068284D01*
X83567467Y-76232216D01*
X83693229Y-76371889D01*
X83694129Y-76372888D01*
X83847265Y-76484148D01*
X83847270Y-76484151D01*
X84020192Y-76561142D01*
X84020197Y-76561144D01*
X84205354Y-76600500D01*
X84205355Y-76600500D01*
X84394644Y-76600500D01*
X84394646Y-76600500D01*
X84579803Y-76561144D01*
X84752730Y-76484151D01*
X84905871Y-76372888D01*
X85032533Y-76232216D01*
X85127179Y-76068284D01*
X85185674Y-75888256D01*
X85205460Y-75700000D01*
X85185674Y-75511744D01*
X85127179Y-75331716D01*
X85032533Y-75167784D01*
X84905871Y-75027112D01*
X84905121Y-75026567D01*
X84752734Y-74915851D01*
X84752729Y-74915848D01*
X84579807Y-74838857D01*
X84579802Y-74838855D01*
X84434001Y-74807865D01*
X84394646Y-74799500D01*
X84205354Y-74799500D01*
X84172897Y-74806398D01*
X84020197Y-74838855D01*
X84020192Y-74838857D01*
X83847270Y-74915848D01*
X83847265Y-74915851D01*
X83694129Y-75027111D01*
X83567466Y-75167785D01*
X83472821Y-75331715D01*
X83472818Y-75331722D01*
X83441235Y-75428926D01*
X83414326Y-75511744D01*
X83394540Y-75700000D01*
X78000500Y-75700000D01*
X78000500Y-75003480D01*
X78000889Y-74996546D01*
X78003470Y-74973645D01*
X78011078Y-74915851D01*
X78013933Y-74894163D01*
X78019830Y-74869399D01*
X78030518Y-74838856D01*
X78031778Y-74835253D01*
X78033001Y-74832047D01*
X78055474Y-74777794D01*
X78065021Y-74759313D01*
X78086922Y-74724459D01*
X78090197Y-74719752D01*
X78127003Y-74671786D01*
X78132323Y-74665718D01*
X78165718Y-74632323D01*
X78171786Y-74627003D01*
X78219752Y-74590197D01*
X78224459Y-74586922D01*
X78259313Y-74565021D01*
X78277794Y-74555474D01*
X78332047Y-74533001D01*
X78335253Y-74531778D01*
X78369402Y-74519829D01*
X78394163Y-74513933D01*
X78441020Y-74507764D01*
X78473646Y-74503470D01*
X78482632Y-74502456D01*
X78496545Y-74500889D01*
X78503481Y-74500500D01*
X78556391Y-74500500D01*
X78556393Y-74500500D01*
X78556395Y-74500499D01*
X78556399Y-74500499D01*
X78624362Y-74484986D01*
X78666351Y-74475403D01*
X78767967Y-74426467D01*
X78767967Y-74426466D01*
X78767969Y-74426466D01*
X78801155Y-74400000D01*
X84994540Y-74400000D01*
X85014326Y-74588256D01*
X85014327Y-74588259D01*
X85072818Y-74768277D01*
X85072821Y-74768284D01*
X85167467Y-74932216D01*
X85252424Y-75026570D01*
X85294129Y-75072888D01*
X85447265Y-75184148D01*
X85447270Y-75184151D01*
X85620192Y-75261142D01*
X85620197Y-75261144D01*
X85805354Y-75300500D01*
X85805355Y-75300500D01*
X85994644Y-75300500D01*
X85994646Y-75300500D01*
X86179803Y-75261144D01*
X86352730Y-75184151D01*
X86505871Y-75072888D01*
X86632533Y-74932216D01*
X86727179Y-74768284D01*
X86785674Y-74588256D01*
X86805460Y-74400000D01*
X86785674Y-74211744D01*
X86727179Y-74031716D01*
X86632533Y-73867784D01*
X86505871Y-73727112D01*
X86505870Y-73727111D01*
X86352734Y-73615851D01*
X86352729Y-73615848D01*
X86179807Y-73538857D01*
X86179802Y-73538855D01*
X86034001Y-73507865D01*
X85994646Y-73499500D01*
X85805354Y-73499500D01*
X85772897Y-73506398D01*
X85620197Y-73538855D01*
X85620192Y-73538857D01*
X85447270Y-73615848D01*
X85447265Y-73615851D01*
X85294129Y-73727111D01*
X85167466Y-73867785D01*
X85072821Y-74031715D01*
X85072818Y-74031722D01*
X85047011Y-74111149D01*
X85014326Y-74211744D01*
X84994540Y-74400000D01*
X78801155Y-74400000D01*
X78813036Y-74390525D01*
X78856146Y-74356146D01*
X78908978Y-74289896D01*
X78926466Y-74267969D01*
X78926467Y-74267966D01*
X78953543Y-74211744D01*
X78975403Y-74166351D01*
X79000500Y-74056393D01*
X79000500Y-74000000D01*
X79000500Y-73999500D01*
X79000500Y-71000000D01*
X98694540Y-71000000D01*
X98714326Y-71188256D01*
X98714327Y-71188259D01*
X98772818Y-71368277D01*
X98772821Y-71368284D01*
X98867467Y-71532216D01*
X98869188Y-71534127D01*
X98994129Y-71672888D01*
X99147265Y-71784148D01*
X99147270Y-71784151D01*
X99320192Y-71861142D01*
X99320197Y-71861144D01*
X99505354Y-71900500D01*
X99505355Y-71900500D01*
X99694644Y-71900500D01*
X99694646Y-71900500D01*
X99879803Y-71861144D01*
X100052730Y-71784151D01*
X100183212Y-71689350D01*
X100249014Y-71665872D01*
X100317068Y-71681697D01*
X100365763Y-71731803D01*
X100379639Y-71800281D01*
X100374025Y-71827988D01*
X100314321Y-72011740D01*
X100314320Y-72011744D01*
X100294534Y-72200000D01*
X100314320Y-72388256D01*
X100314321Y-72388259D01*
X100372812Y-72568277D01*
X100372815Y-72568284D01*
X100467461Y-72732216D01*
X100572649Y-72849039D01*
X100594123Y-72872888D01*
X100747259Y-72984148D01*
X100747264Y-72984151D01*
X100920186Y-73061142D01*
X100920191Y-73061144D01*
X101105348Y-73100500D01*
X101105349Y-73100500D01*
X101294638Y-73100500D01*
X101294640Y-73100500D01*
X101479797Y-73061144D01*
X101652724Y-72984151D01*
X101805865Y-72872888D01*
X101932527Y-72732216D01*
X102027173Y-72568284D01*
X102085668Y-72388256D01*
X102105454Y-72200000D01*
X102085668Y-72011744D01*
X102027173Y-71831716D01*
X101932527Y-71667784D01*
X101805865Y-71527112D01*
X101783203Y-71510647D01*
X101652728Y-71415851D01*
X101652723Y-71415848D01*
X101479801Y-71338857D01*
X101479796Y-71338855D01*
X101333995Y-71307865D01*
X101294640Y-71299500D01*
X101105348Y-71299500D01*
X101072891Y-71306398D01*
X100920191Y-71338855D01*
X100920186Y-71338857D01*
X100747264Y-71415848D01*
X100747259Y-71415851D01*
X100616784Y-71510647D01*
X100550978Y-71534127D01*
X100482924Y-71518301D01*
X100434229Y-71468195D01*
X100420354Y-71399717D01*
X100425968Y-71372011D01*
X100449528Y-71299500D01*
X100485674Y-71188256D01*
X100505460Y-71000000D01*
X100485674Y-70811744D01*
X100427179Y-70631716D01*
X100332533Y-70467784D01*
X100205871Y-70327112D01*
X100205870Y-70327111D01*
X100052734Y-70215851D01*
X100052729Y-70215848D01*
X99879807Y-70138857D01*
X99879802Y-70138855D01*
X99734001Y-70107865D01*
X99694646Y-70099500D01*
X99505354Y-70099500D01*
X99472897Y-70106398D01*
X99320197Y-70138855D01*
X99320192Y-70138857D01*
X99147270Y-70215848D01*
X99147265Y-70215851D01*
X98994129Y-70327111D01*
X98867466Y-70467785D01*
X98772821Y-70631715D01*
X98772818Y-70631722D01*
X98714327Y-70811740D01*
X98714326Y-70811744D01*
X98694540Y-71000000D01*
X79000500Y-71000000D01*
X79000500Y-70499901D01*
X79000500Y-70443607D01*
X79000499Y-70443605D01*
X79000499Y-70443600D01*
X78975403Y-70333649D01*
X78926467Y-70232033D01*
X78926466Y-70232030D01*
X78885538Y-70180710D01*
X78856146Y-70143854D01*
X78826753Y-70120413D01*
X78767969Y-70073533D01*
X78767966Y-70073532D01*
X78666350Y-70024596D01*
X78556399Y-69999500D01*
X78556393Y-69999500D01*
X78503486Y-69999500D01*
X78496539Y-69999110D01*
X78493592Y-69998777D01*
X78473647Y-69996530D01*
X78394169Y-69986066D01*
X78369401Y-69980169D01*
X78335263Y-69968223D01*
X78332014Y-69966983D01*
X78290803Y-69949914D01*
X78277813Y-69944533D01*
X78259296Y-69934967D01*
X78224490Y-69913097D01*
X78219731Y-69909786D01*
X78171798Y-69873005D01*
X78165702Y-69867660D01*
X78132337Y-69834295D01*
X78126993Y-69828200D01*
X78090212Y-69780267D01*
X78086909Y-69775520D01*
X78065027Y-69740695D01*
X78055469Y-69722195D01*
X78033011Y-69667976D01*
X78031775Y-69664736D01*
X78019830Y-69630599D01*
X78013932Y-69605828D01*
X78003470Y-69526354D01*
X78001823Y-69511740D01*
X78000889Y-69503455D01*
X78000500Y-69496518D01*
X78000500Y-68500000D01*
X79094540Y-68500000D01*
X79114326Y-68688256D01*
X79114327Y-68688259D01*
X79172818Y-68868277D01*
X79172821Y-68868284D01*
X79267467Y-69032216D01*
X79389533Y-69167784D01*
X79394129Y-69172888D01*
X79547265Y-69284148D01*
X79547270Y-69284151D01*
X79720192Y-69361142D01*
X79720197Y-69361144D01*
X79816356Y-69381583D01*
X79877838Y-69414775D01*
X79911614Y-69475938D01*
X79913896Y-69515834D01*
X79897906Y-69667976D01*
X79894540Y-69700000D01*
X79914326Y-69888256D01*
X79914327Y-69888259D01*
X79972818Y-70068277D01*
X79972821Y-70068284D01*
X80067467Y-70232216D01*
X80113441Y-70283275D01*
X80194129Y-70372888D01*
X80347265Y-70484148D01*
X80347270Y-70484151D01*
X80520192Y-70561142D01*
X80520197Y-70561144D01*
X80705354Y-70600500D01*
X80705355Y-70600500D01*
X80894644Y-70600500D01*
X80894646Y-70600500D01*
X81079803Y-70561144D01*
X81252730Y-70484151D01*
X81405871Y-70372888D01*
X81532533Y-70232216D01*
X81627179Y-70068284D01*
X81685674Y-69888256D01*
X81705460Y-69700000D01*
X85394540Y-69700000D01*
X85414326Y-69888256D01*
X85414327Y-69888259D01*
X85472818Y-70068277D01*
X85472821Y-70068284D01*
X85567467Y-70232216D01*
X85613441Y-70283275D01*
X85694129Y-70372888D01*
X85847265Y-70484148D01*
X85847270Y-70484151D01*
X86020192Y-70561142D01*
X86020197Y-70561144D01*
X86205354Y-70600500D01*
X86205355Y-70600500D01*
X86394644Y-70600500D01*
X86394646Y-70600500D01*
X86579803Y-70561144D01*
X86752730Y-70484151D01*
X86905871Y-70372888D01*
X86993995Y-70275017D01*
X93024500Y-70275017D01*
X93035000Y-70377796D01*
X93090185Y-70544332D01*
X93090187Y-70544337D01*
X93100554Y-70561144D01*
X93182288Y-70693656D01*
X93306344Y-70817712D01*
X93455665Y-70909814D01*
X93622202Y-70964999D01*
X93724990Y-70975500D01*
X93724995Y-70975500D01*
X95875005Y-70975500D01*
X95875010Y-70975500D01*
X95977798Y-70964999D01*
X96144335Y-70909814D01*
X96293656Y-70817712D01*
X96417712Y-70693656D01*
X96509814Y-70544335D01*
X96564999Y-70377798D01*
X96575500Y-70275010D01*
X96575500Y-68300001D01*
X99399500Y-68300001D01*
X99399501Y-68300018D01*
X99410000Y-68402796D01*
X99410001Y-68402799D01*
X99442211Y-68500000D01*
X99465186Y-68569334D01*
X99557288Y-68718656D01*
X99681344Y-68842712D01*
X99830666Y-68934814D01*
X99997203Y-68989999D01*
X100099991Y-69000500D01*
X101300008Y-69000499D01*
X101402797Y-68989999D01*
X101569334Y-68934814D01*
X101718656Y-68842712D01*
X101842712Y-68718656D01*
X101934814Y-68569334D01*
X101989999Y-68402797D01*
X102000500Y-68300009D01*
X102000499Y-67099992D01*
X101989999Y-66997203D01*
X101934814Y-66830666D01*
X101842712Y-66681344D01*
X101718656Y-66557288D01*
X101569334Y-66465186D01*
X101402797Y-66410001D01*
X101402795Y-66410000D01*
X101300010Y-66399500D01*
X100099998Y-66399500D01*
X100099981Y-66399501D01*
X99997203Y-66410000D01*
X99997200Y-66410001D01*
X99830668Y-66465185D01*
X99830663Y-66465187D01*
X99681342Y-66557289D01*
X99557289Y-66681342D01*
X99465187Y-66830663D01*
X99465186Y-66830666D01*
X99410001Y-66997203D01*
X99410001Y-66997204D01*
X99410000Y-66997204D01*
X99399500Y-67099983D01*
X99399500Y-68300001D01*
X96575500Y-68300001D01*
X96575500Y-68124990D01*
X96564999Y-68022202D01*
X96509814Y-67855665D01*
X96417712Y-67706344D01*
X96293656Y-67582288D01*
X96144335Y-67490186D01*
X95977798Y-67435001D01*
X95977796Y-67435000D01*
X95875017Y-67424500D01*
X95875010Y-67424500D01*
X93724990Y-67424500D01*
X93724982Y-67424500D01*
X93622203Y-67435000D01*
X93622202Y-67435001D01*
X93539669Y-67462349D01*
X93455667Y-67490185D01*
X93455662Y-67490187D01*
X93306342Y-67582289D01*
X93182289Y-67706342D01*
X93090187Y-67855662D01*
X93090186Y-67855665D01*
X93035001Y-68022202D01*
X93035001Y-68022203D01*
X93035000Y-68022203D01*
X93024500Y-68124982D01*
X93024500Y-70275017D01*
X86993995Y-70275017D01*
X87032533Y-70232216D01*
X87127179Y-70068284D01*
X87185674Y-69888256D01*
X87205460Y-69700000D01*
X87185674Y-69511744D01*
X87127179Y-69331716D01*
X87032533Y-69167784D01*
X86905871Y-69027112D01*
X86869243Y-69000500D01*
X86752734Y-68915851D01*
X86752729Y-68915848D01*
X86579807Y-68838857D01*
X86579802Y-68838855D01*
X86434001Y-68807865D01*
X86394646Y-68799500D01*
X86205354Y-68799500D01*
X86172897Y-68806398D01*
X86020197Y-68838855D01*
X86020192Y-68838857D01*
X85847270Y-68915848D01*
X85847265Y-68915851D01*
X85694129Y-69027111D01*
X85567466Y-69167785D01*
X85472821Y-69331715D01*
X85472818Y-69331722D01*
X85445833Y-69414775D01*
X85414326Y-69511744D01*
X85394540Y-69700000D01*
X81705460Y-69700000D01*
X81685674Y-69511744D01*
X81627179Y-69331716D01*
X81532533Y-69167784D01*
X81405871Y-69027112D01*
X81369243Y-69000500D01*
X81252734Y-68915851D01*
X81252729Y-68915848D01*
X81079807Y-68838857D01*
X81079802Y-68838855D01*
X80983643Y-68818416D01*
X80922161Y-68785223D01*
X80888385Y-68724060D01*
X80886103Y-68684170D01*
X80905460Y-68500000D01*
X82194540Y-68500000D01*
X82214326Y-68688256D01*
X82214327Y-68688259D01*
X82272818Y-68868277D01*
X82272821Y-68868284D01*
X82367467Y-69032216D01*
X82489533Y-69167784D01*
X82494129Y-69172888D01*
X82647265Y-69284148D01*
X82647270Y-69284151D01*
X82820192Y-69361142D01*
X82820197Y-69361144D01*
X83005354Y-69400500D01*
X83005355Y-69400500D01*
X83194644Y-69400500D01*
X83194646Y-69400500D01*
X83379803Y-69361144D01*
X83552730Y-69284151D01*
X83705871Y-69172888D01*
X83832533Y-69032216D01*
X83927179Y-68868284D01*
X83985674Y-68688256D01*
X84005460Y-68500000D01*
X83985674Y-68311744D01*
X83927179Y-68131716D01*
X83832533Y-67967784D01*
X83705871Y-67827112D01*
X83705870Y-67827111D01*
X83552734Y-67715851D01*
X83552729Y-67715848D01*
X83379807Y-67638857D01*
X83379802Y-67638855D01*
X83234001Y-67607865D01*
X83194646Y-67599500D01*
X83005354Y-67599500D01*
X82972897Y-67606398D01*
X82820197Y-67638855D01*
X82820192Y-67638857D01*
X82647270Y-67715848D01*
X82647265Y-67715851D01*
X82494129Y-67827111D01*
X82367466Y-67967785D01*
X82272821Y-68131715D01*
X82272818Y-68131722D01*
X82218136Y-68300018D01*
X82214326Y-68311744D01*
X82194540Y-68500000D01*
X80905460Y-68500000D01*
X80885674Y-68311744D01*
X80827179Y-68131716D01*
X80815795Y-68111998D01*
X80799322Y-68044102D01*
X80815794Y-67988001D01*
X80827179Y-67968284D01*
X80885674Y-67788256D01*
X80905460Y-67600000D01*
X80885674Y-67411744D01*
X80827179Y-67231716D01*
X80732533Y-67067784D01*
X80605871Y-66927112D01*
X80605870Y-66927111D01*
X80452734Y-66815851D01*
X80452729Y-66815848D01*
X80279807Y-66738857D01*
X80279802Y-66738855D01*
X80134001Y-66707865D01*
X80094646Y-66699500D01*
X79905354Y-66699500D01*
X79872897Y-66706398D01*
X79720197Y-66738855D01*
X79720192Y-66738857D01*
X79547270Y-66815848D01*
X79547265Y-66815851D01*
X79394129Y-66927111D01*
X79267466Y-67067785D01*
X79172821Y-67231715D01*
X79172818Y-67231722D01*
X79114327Y-67411740D01*
X79114326Y-67411744D01*
X79094540Y-67600000D01*
X79114326Y-67788256D01*
X79114327Y-67788259D01*
X79172820Y-67968284D01*
X79184204Y-67988001D01*
X79200675Y-68055901D01*
X79184204Y-68111999D01*
X79172820Y-68131715D01*
X79118136Y-68300018D01*
X79114326Y-68311744D01*
X79094540Y-68500000D01*
X78000500Y-68500000D01*
X78000500Y-64700000D01*
X89294540Y-64700000D01*
X89314326Y-64888256D01*
X89314327Y-64888259D01*
X89372818Y-65068277D01*
X89372821Y-65068284D01*
X89467467Y-65232216D01*
X89594129Y-65372888D01*
X89747265Y-65484148D01*
X89747270Y-65484151D01*
X89920192Y-65561142D01*
X89920197Y-65561144D01*
X90105354Y-65600500D01*
X90105355Y-65600500D01*
X90294644Y-65600500D01*
X90294646Y-65600500D01*
X90479803Y-65561144D01*
X90652730Y-65484151D01*
X90805871Y-65372888D01*
X90932533Y-65232216D01*
X90992613Y-65128153D01*
X91043179Y-65079939D01*
X91111786Y-65066715D01*
X91176651Y-65092683D01*
X91207386Y-65128153D01*
X91267467Y-65232216D01*
X91394129Y-65372888D01*
X91547265Y-65484148D01*
X91547270Y-65484151D01*
X91720192Y-65561142D01*
X91720197Y-65561144D01*
X91905354Y-65600500D01*
X91905355Y-65600500D01*
X92094644Y-65600500D01*
X92094646Y-65600500D01*
X92279803Y-65561144D01*
X92452730Y-65484151D01*
X92605871Y-65372888D01*
X92732533Y-65232216D01*
X92827179Y-65068284D01*
X92882069Y-64899351D01*
X92921506Y-64841675D01*
X92985865Y-64814477D01*
X93054711Y-64826392D01*
X93106187Y-64873636D01*
X93117931Y-64899351D01*
X93172818Y-65068277D01*
X93172821Y-65068284D01*
X93267467Y-65232216D01*
X93394129Y-65372888D01*
X93547265Y-65484148D01*
X93547270Y-65484151D01*
X93720192Y-65561142D01*
X93720197Y-65561144D01*
X93905354Y-65600500D01*
X93905355Y-65600500D01*
X94094644Y-65600500D01*
X94094646Y-65600500D01*
X94279803Y-65561144D01*
X94452730Y-65484151D01*
X94605871Y-65372888D01*
X94732533Y-65232216D01*
X94827179Y-65068284D01*
X94885674Y-64888256D01*
X94905460Y-64700000D01*
X94885674Y-64511744D01*
X94831112Y-64343823D01*
X94827181Y-64331722D01*
X94827180Y-64331721D01*
X94827179Y-64331716D01*
X94732533Y-64167784D01*
X94605871Y-64027112D01*
X94605870Y-64027111D01*
X94452734Y-63915851D01*
X94452729Y-63915848D01*
X94279807Y-63838857D01*
X94279802Y-63838855D01*
X94134001Y-63807865D01*
X94094646Y-63799500D01*
X93905354Y-63799500D01*
X93872897Y-63806398D01*
X93720197Y-63838855D01*
X93720192Y-63838857D01*
X93547270Y-63915848D01*
X93547265Y-63915851D01*
X93394129Y-64027111D01*
X93267466Y-64167785D01*
X93172821Y-64331715D01*
X93172818Y-64331722D01*
X93117931Y-64500648D01*
X93078493Y-64558324D01*
X93014135Y-64585522D01*
X92945288Y-64573607D01*
X92893813Y-64526363D01*
X92882069Y-64500648D01*
X92827181Y-64331722D01*
X92827180Y-64331721D01*
X92827179Y-64331716D01*
X92732533Y-64167784D01*
X92605871Y-64027112D01*
X92605870Y-64027111D01*
X92452734Y-63915851D01*
X92452729Y-63915848D01*
X92279807Y-63838857D01*
X92279802Y-63838855D01*
X92134001Y-63807865D01*
X92094646Y-63799500D01*
X91905354Y-63799500D01*
X91872897Y-63806398D01*
X91720197Y-63838855D01*
X91720192Y-63838857D01*
X91547270Y-63915848D01*
X91547265Y-63915851D01*
X91394129Y-64027111D01*
X91267465Y-64167785D01*
X91207387Y-64271845D01*
X91156820Y-64320061D01*
X91088213Y-64333284D01*
X91023348Y-64307316D01*
X90992613Y-64271845D01*
X90932534Y-64167785D01*
X90805870Y-64027111D01*
X90652734Y-63915851D01*
X90652729Y-63915848D01*
X90479807Y-63838857D01*
X90479802Y-63838855D01*
X90334001Y-63807865D01*
X90294646Y-63799500D01*
X90105354Y-63799500D01*
X90072897Y-63806398D01*
X89920197Y-63838855D01*
X89920192Y-63838857D01*
X89747270Y-63915848D01*
X89747265Y-63915851D01*
X89594129Y-64027111D01*
X89467466Y-64167785D01*
X89372821Y-64331715D01*
X89372818Y-64331722D01*
X89317931Y-64500648D01*
X89314326Y-64511744D01*
X89294540Y-64700000D01*
X78000500Y-64700000D01*
X78000500Y-59515000D01*
X78644341Y-59515000D01*
X78664936Y-59750403D01*
X78664938Y-59750413D01*
X78726094Y-59978655D01*
X78726096Y-59978659D01*
X78726097Y-59978663D01*
X78800797Y-60138857D01*
X78825965Y-60192830D01*
X78825967Y-60192834D01*
X78961501Y-60386395D01*
X78961506Y-60386402D01*
X79128597Y-60553493D01*
X79128603Y-60553498D01*
X79216403Y-60614976D01*
X79301827Y-60674791D01*
X79314594Y-60683730D01*
X79358219Y-60738307D01*
X79365413Y-60807805D01*
X79333890Y-60870160D01*
X79314595Y-60886880D01*
X79128922Y-61016890D01*
X79128920Y-61016891D01*
X78961891Y-61183920D01*
X78961886Y-61183926D01*
X78826400Y-61377420D01*
X78826399Y-61377422D01*
X78726570Y-61591507D01*
X78726567Y-61591513D01*
X78669364Y-61804999D01*
X78669364Y-61805000D01*
X79566314Y-61805000D01*
X79540507Y-61845156D01*
X79500000Y-61983111D01*
X79500000Y-62126889D01*
X79540507Y-62264844D01*
X79566314Y-62305000D01*
X78669364Y-62305000D01*
X78726567Y-62518486D01*
X78726570Y-62518492D01*
X78826399Y-62732578D01*
X78961894Y-62926082D01*
X79128917Y-63093105D01*
X79322421Y-63228600D01*
X79536507Y-63328429D01*
X79536516Y-63328433D01*
X79750000Y-63385634D01*
X79750000Y-62490501D01*
X79857685Y-62539680D01*
X79964237Y-62555000D01*
X80035763Y-62555000D01*
X80142315Y-62539680D01*
X80250000Y-62490501D01*
X80250000Y-63385633D01*
X80463483Y-63328433D01*
X80463492Y-63328429D01*
X80677578Y-63228600D01*
X80718422Y-63200000D01*
X86894540Y-63200000D01*
X86914326Y-63388256D01*
X86914327Y-63388259D01*
X86972818Y-63568277D01*
X86972821Y-63568284D01*
X87067467Y-63732216D01*
X87163487Y-63838857D01*
X87194129Y-63872888D01*
X87347265Y-63984148D01*
X87347270Y-63984151D01*
X87520192Y-64061142D01*
X87520197Y-64061144D01*
X87705354Y-64100500D01*
X87705355Y-64100500D01*
X87894644Y-64100500D01*
X87894646Y-64100500D01*
X88079803Y-64061144D01*
X88252730Y-63984151D01*
X88405871Y-63872888D01*
X88532533Y-63732216D01*
X88627179Y-63568284D01*
X88685674Y-63388256D01*
X88705460Y-63200000D01*
X88685674Y-63011744D01*
X88627179Y-62831716D01*
X88532533Y-62667784D01*
X88405871Y-62527112D01*
X88394007Y-62518492D01*
X88252734Y-62415851D01*
X88252729Y-62415848D01*
X88079807Y-62338857D01*
X88079802Y-62338855D01*
X87934001Y-62307865D01*
X87894646Y-62299500D01*
X87705354Y-62299500D01*
X87672897Y-62306398D01*
X87520197Y-62338855D01*
X87520192Y-62338857D01*
X87347270Y-62415848D01*
X87347265Y-62415851D01*
X87194129Y-62527111D01*
X87067466Y-62667785D01*
X86972821Y-62831715D01*
X86972818Y-62831722D01*
X86914327Y-63011740D01*
X86914326Y-63011744D01*
X86894540Y-63200000D01*
X80718422Y-63200000D01*
X80871082Y-63093105D01*
X81038106Y-62926082D01*
X81043023Y-62919060D01*
X81097597Y-62875432D01*
X81167095Y-62868235D01*
X81217487Y-62889859D01*
X81267345Y-62926082D01*
X81347270Y-62984151D01*
X81520192Y-63061142D01*
X81520197Y-63061144D01*
X81705354Y-63100500D01*
X81705355Y-63100500D01*
X81894644Y-63100500D01*
X81894646Y-63100500D01*
X82079803Y-63061144D01*
X82252730Y-62984151D01*
X82405871Y-62872888D01*
X82532533Y-62732216D01*
X82627179Y-62568284D01*
X82685674Y-62388256D01*
X82705460Y-62200000D01*
X97494540Y-62200000D01*
X97514326Y-62388256D01*
X97514327Y-62388259D01*
X97572818Y-62568277D01*
X97572821Y-62568284D01*
X97667467Y-62732216D01*
X97757063Y-62831722D01*
X97794129Y-62872888D01*
X97947265Y-62984148D01*
X97947270Y-62984151D01*
X98120192Y-63061142D01*
X98120197Y-63061144D01*
X98305354Y-63100500D01*
X98305355Y-63100500D01*
X98494644Y-63100500D01*
X98494646Y-63100500D01*
X98679803Y-63061144D01*
X98852730Y-62984151D01*
X99005871Y-62872888D01*
X99132533Y-62732216D01*
X99227179Y-62568284D01*
X99285674Y-62388256D01*
X99305460Y-62200000D01*
X99285674Y-62011744D01*
X99227179Y-61831716D01*
X99132533Y-61667784D01*
X99005871Y-61527112D01*
X99005870Y-61527111D01*
X98852734Y-61415851D01*
X98852729Y-61415848D01*
X98679807Y-61338857D01*
X98679802Y-61338855D01*
X98534001Y-61307865D01*
X98494646Y-61299500D01*
X98305354Y-61299500D01*
X98272897Y-61306398D01*
X98120197Y-61338855D01*
X98120192Y-61338857D01*
X97947270Y-61415848D01*
X97947265Y-61415851D01*
X97794129Y-61527111D01*
X97667466Y-61667785D01*
X97572821Y-61831715D01*
X97572818Y-61831722D01*
X97557948Y-61877489D01*
X97514326Y-62011744D01*
X97494540Y-62200000D01*
X82705460Y-62200000D01*
X82685674Y-62011744D01*
X82627179Y-61831716D01*
X82568957Y-61730872D01*
X82552484Y-61662971D01*
X82575337Y-61596944D01*
X82584180Y-61585916D01*
X82632533Y-61532216D01*
X82727179Y-61368284D01*
X82785674Y-61188256D01*
X82805460Y-61000000D01*
X82785674Y-60811744D01*
X82727179Y-60631716D01*
X82632533Y-60467784D01*
X82505871Y-60327112D01*
X82505870Y-60327111D01*
X82352734Y-60215851D01*
X82352729Y-60215848D01*
X82179807Y-60138857D01*
X82179802Y-60138855D01*
X82034001Y-60107865D01*
X81994646Y-60099500D01*
X81805354Y-60099500D01*
X81772897Y-60106398D01*
X81620197Y-60138855D01*
X81620192Y-60138857D01*
X81447270Y-60215848D01*
X81447266Y-60215851D01*
X81405699Y-60246051D01*
X81339893Y-60269530D01*
X81271839Y-60253704D01*
X81223145Y-60203598D01*
X81209270Y-60135119D01*
X81220430Y-60093334D01*
X81273903Y-59978663D01*
X81294980Y-59900000D01*
X85994540Y-59900000D01*
X86014326Y-60088256D01*
X86014327Y-60088259D01*
X86072818Y-60268277D01*
X86072821Y-60268284D01*
X86167467Y-60432216D01*
X86276670Y-60553498D01*
X86294129Y-60572888D01*
X86447265Y-60684148D01*
X86447270Y-60684151D01*
X86620192Y-60761142D01*
X86620197Y-60761144D01*
X86805354Y-60800500D01*
X86805355Y-60800500D01*
X86994644Y-60800500D01*
X86994646Y-60800500D01*
X87179803Y-60761144D01*
X87352730Y-60684151D01*
X87505871Y-60572888D01*
X87632533Y-60432216D01*
X87727179Y-60268284D01*
X87785674Y-60088256D01*
X87796526Y-59985000D01*
X102644341Y-59985000D01*
X102664936Y-60220403D01*
X102664938Y-60220413D01*
X102726094Y-60448655D01*
X102726096Y-60448659D01*
X102726097Y-60448663D01*
X102811456Y-60631715D01*
X102825965Y-60662830D01*
X102825967Y-60662834D01*
X102914242Y-60788903D01*
X102961501Y-60856396D01*
X102961506Y-60856402D01*
X103083430Y-60978326D01*
X103116915Y-61039649D01*
X103111931Y-61109341D01*
X103070059Y-61165274D01*
X103039083Y-61182189D01*
X102907669Y-61231203D01*
X102907664Y-61231206D01*
X102792455Y-61317452D01*
X102792452Y-61317455D01*
X102706206Y-61432664D01*
X102706202Y-61432671D01*
X102655908Y-61567517D01*
X102652745Y-61596944D01*
X102649501Y-61627123D01*
X102649500Y-61627135D01*
X102649500Y-63422873D01*
X102655908Y-63482483D01*
X102706202Y-63617328D01*
X102706206Y-63617335D01*
X102792452Y-63732544D01*
X102792455Y-63732547D01*
X102907664Y-63818793D01*
X102907671Y-63818797D01*
X103042517Y-63869091D01*
X103042516Y-63869091D01*
X103049444Y-63869835D01*
X103102127Y-63875500D01*
X104897872Y-63875499D01*
X104957483Y-63869091D01*
X105092331Y-63818796D01*
X105207546Y-63732546D01*
X105293796Y-63617331D01*
X105344091Y-63482483D01*
X105350500Y-63422873D01*
X105350499Y-61627128D01*
X105344091Y-61567517D01*
X105339422Y-61555000D01*
X105293797Y-61432671D01*
X105293793Y-61432664D01*
X105207547Y-61317455D01*
X105207544Y-61317452D01*
X105092335Y-61231206D01*
X105092328Y-61231202D01*
X104960917Y-61182189D01*
X104904983Y-61140318D01*
X104880566Y-61074853D01*
X104895418Y-61006580D01*
X104916563Y-60978332D01*
X105038495Y-60856401D01*
X105174035Y-60662830D01*
X105273903Y-60448663D01*
X105335063Y-60220408D01*
X105355659Y-59985000D01*
X105335063Y-59749592D01*
X105273903Y-59521337D01*
X105174035Y-59307171D01*
X105117978Y-59227112D01*
X105038494Y-59113597D01*
X104871402Y-58946506D01*
X104871401Y-58946505D01*
X104685405Y-58816269D01*
X104641781Y-58761692D01*
X104634588Y-58692193D01*
X104666110Y-58629839D01*
X104685405Y-58613119D01*
X104871082Y-58483105D01*
X105038105Y-58316082D01*
X105173600Y-58122578D01*
X105273429Y-57908492D01*
X105273432Y-57908486D01*
X105330636Y-57695000D01*
X104433686Y-57695000D01*
X104459493Y-57654844D01*
X104500000Y-57516889D01*
X104500000Y-57373111D01*
X104459493Y-57235156D01*
X104433686Y-57195000D01*
X105330636Y-57195000D01*
X105330635Y-57194999D01*
X105273432Y-56981513D01*
X105273429Y-56981507D01*
X105173600Y-56767422D01*
X105173599Y-56767420D01*
X105038113Y-56573926D01*
X105038108Y-56573920D01*
X104871082Y-56406894D01*
X104677578Y-56271399D01*
X104463492Y-56171570D01*
X104463486Y-56171567D01*
X104250000Y-56114364D01*
X104250000Y-57009498D01*
X104142315Y-56960320D01*
X104035763Y-56945000D01*
X103964237Y-56945000D01*
X103857685Y-56960320D01*
X103750000Y-57009498D01*
X103750000Y-56114364D01*
X103749999Y-56114364D01*
X103536513Y-56171567D01*
X103536507Y-56171570D01*
X103322422Y-56271399D01*
X103322420Y-56271400D01*
X103128926Y-56406886D01*
X103128920Y-56406891D01*
X102961891Y-56573920D01*
X102961886Y-56573926D01*
X102826400Y-56767420D01*
X102826399Y-56767422D01*
X102726570Y-56981507D01*
X102726567Y-56981513D01*
X102669364Y-57194999D01*
X102669364Y-57195000D01*
X103566314Y-57195000D01*
X103540507Y-57235156D01*
X103500000Y-57373111D01*
X103500000Y-57516889D01*
X103540507Y-57654844D01*
X103566314Y-57695000D01*
X102669364Y-57695000D01*
X102726567Y-57908486D01*
X102726570Y-57908492D01*
X102826399Y-58122578D01*
X102961894Y-58316082D01*
X103128917Y-58483105D01*
X103314595Y-58613119D01*
X103358219Y-58667696D01*
X103365412Y-58737195D01*
X103333890Y-58799549D01*
X103314595Y-58816269D01*
X103128594Y-58946508D01*
X102961505Y-59113597D01*
X102825965Y-59307169D01*
X102825964Y-59307171D01*
X102732401Y-59507816D01*
X102729053Y-59514999D01*
X102726098Y-59521335D01*
X102726094Y-59521344D01*
X102664938Y-59749586D01*
X102664936Y-59749596D01*
X102644341Y-59984999D01*
X102644341Y-59985000D01*
X87796526Y-59985000D01*
X87805460Y-59900000D01*
X87785674Y-59711744D01*
X87727179Y-59531716D01*
X87632533Y-59367784D01*
X87505871Y-59227112D01*
X87505870Y-59227111D01*
X87352734Y-59115851D01*
X87352729Y-59115848D01*
X87179807Y-59038857D01*
X87179802Y-59038855D01*
X87034001Y-59007865D01*
X86994646Y-58999500D01*
X86805354Y-58999500D01*
X86772897Y-59006398D01*
X86620197Y-59038855D01*
X86620192Y-59038857D01*
X86447270Y-59115848D01*
X86447265Y-59115851D01*
X86294129Y-59227111D01*
X86167466Y-59367785D01*
X86072821Y-59531715D01*
X86072818Y-59531722D01*
X86014327Y-59711740D01*
X86014326Y-59711744D01*
X85994540Y-59900000D01*
X81294980Y-59900000D01*
X81335063Y-59750408D01*
X81355659Y-59515000D01*
X81335063Y-59279592D01*
X81273903Y-59051337D01*
X81174035Y-58837171D01*
X81159399Y-58816269D01*
X81038496Y-58643600D01*
X81008015Y-58613119D01*
X80916567Y-58521671D01*
X80883084Y-58460351D01*
X80888068Y-58390659D01*
X80929939Y-58334725D01*
X80960915Y-58317810D01*
X81092331Y-58268796D01*
X81207546Y-58182546D01*
X81293796Y-58067331D01*
X81344091Y-57932483D01*
X81350500Y-57872873D01*
X81350500Y-57500000D01*
X82594540Y-57500000D01*
X82614326Y-57688256D01*
X82614327Y-57688259D01*
X82672818Y-57868277D01*
X82672821Y-57868284D01*
X82767467Y-58032216D01*
X82848830Y-58122578D01*
X82894129Y-58172888D01*
X83047265Y-58284148D01*
X83047270Y-58284151D01*
X83220192Y-58361142D01*
X83220197Y-58361144D01*
X83405354Y-58400500D01*
X83405355Y-58400500D01*
X83594644Y-58400500D01*
X83594646Y-58400500D01*
X83779803Y-58361144D01*
X83952730Y-58284151D01*
X84105871Y-58172888D01*
X84232533Y-58032216D01*
X84327179Y-57868284D01*
X84385674Y-57688256D01*
X84394950Y-57600000D01*
X93894540Y-57600000D01*
X93914326Y-57788256D01*
X93914327Y-57788259D01*
X93972818Y-57968277D01*
X93972821Y-57968284D01*
X94067467Y-58132216D01*
X94190442Y-58268793D01*
X94194129Y-58272888D01*
X94347265Y-58384148D01*
X94347270Y-58384151D01*
X94520192Y-58461142D01*
X94520197Y-58461144D01*
X94705354Y-58500500D01*
X94705355Y-58500500D01*
X94894644Y-58500500D01*
X94894646Y-58500500D01*
X95079803Y-58461144D01*
X95252730Y-58384151D01*
X95405871Y-58272888D01*
X95532533Y-58132216D01*
X95627179Y-57968284D01*
X95685674Y-57788256D01*
X95705460Y-57600000D01*
X95685674Y-57411744D01*
X95627179Y-57231716D01*
X95532533Y-57067784D01*
X95405871Y-56927112D01*
X95405870Y-56927111D01*
X95252734Y-56815851D01*
X95252729Y-56815848D01*
X95079807Y-56738857D01*
X95079802Y-56738855D01*
X94934001Y-56707865D01*
X94894646Y-56699500D01*
X94705354Y-56699500D01*
X94672897Y-56706398D01*
X94520197Y-56738855D01*
X94520192Y-56738857D01*
X94347270Y-56815848D01*
X94347265Y-56815851D01*
X94194129Y-56927111D01*
X94067466Y-57067785D01*
X93972821Y-57231715D01*
X93972818Y-57231722D01*
X93914327Y-57411740D01*
X93914326Y-57411744D01*
X93894540Y-57600000D01*
X84394950Y-57600000D01*
X84405460Y-57500000D01*
X84385674Y-57311744D01*
X84327179Y-57131716D01*
X84232533Y-56967784D01*
X84105871Y-56827112D01*
X84090369Y-56815849D01*
X83952734Y-56715851D01*
X83952729Y-56715848D01*
X83779807Y-56638857D01*
X83779802Y-56638855D01*
X83634001Y-56607865D01*
X83594646Y-56599500D01*
X83405354Y-56599500D01*
X83372897Y-56606398D01*
X83220197Y-56638855D01*
X83220192Y-56638857D01*
X83047270Y-56715848D01*
X83047265Y-56715851D01*
X82894129Y-56827111D01*
X82767466Y-56967785D01*
X82672821Y-57131715D01*
X82672818Y-57131722D01*
X82630767Y-57261144D01*
X82614326Y-57311744D01*
X82594540Y-57500000D01*
X81350500Y-57500000D01*
X81350499Y-56720710D01*
X81370184Y-56653672D01*
X81422987Y-56607917D01*
X81492146Y-56597973D01*
X81500269Y-56599419D01*
X81505354Y-56600500D01*
X81505356Y-56600500D01*
X81694644Y-56600500D01*
X81694646Y-56600500D01*
X81879803Y-56561144D01*
X82052730Y-56484151D01*
X82168554Y-56400000D01*
X90694540Y-56400000D01*
X90714326Y-56588256D01*
X90714327Y-56588259D01*
X90772818Y-56768277D01*
X90772821Y-56768284D01*
X90867467Y-56932216D01*
X90946552Y-57020048D01*
X90994129Y-57072888D01*
X91147265Y-57184148D01*
X91147270Y-57184151D01*
X91320192Y-57261142D01*
X91320197Y-57261144D01*
X91505354Y-57300500D01*
X91505355Y-57300500D01*
X91694644Y-57300500D01*
X91694646Y-57300500D01*
X91879803Y-57261144D01*
X92052730Y-57184151D01*
X92205871Y-57072888D01*
X92332533Y-56932216D01*
X92427179Y-56768284D01*
X92485674Y-56588256D01*
X92505460Y-56400000D01*
X92485674Y-56211744D01*
X92427179Y-56031716D01*
X92332533Y-55867784D01*
X92205871Y-55727112D01*
X92205870Y-55727111D01*
X92052734Y-55615851D01*
X92052729Y-55615848D01*
X91879807Y-55538857D01*
X91879802Y-55538855D01*
X91734001Y-55507865D01*
X91696998Y-55500000D01*
X98225000Y-55500000D01*
X99266403Y-55500000D01*
X99239650Y-55576455D01*
X99220096Y-55750000D01*
X99239650Y-55923545D01*
X99266403Y-56000000D01*
X98225001Y-56000000D01*
X98225001Y-56824986D01*
X98235494Y-56927696D01*
X98235494Y-56927698D01*
X98290640Y-57094119D01*
X98290645Y-57094130D01*
X98382680Y-57243340D01*
X98382683Y-57243344D01*
X98506655Y-57367316D01*
X98506659Y-57367319D01*
X98655869Y-57459354D01*
X98655880Y-57459359D01*
X98822302Y-57514505D01*
X98925019Y-57524999D01*
X99749999Y-57524999D01*
X99750000Y-57524998D01*
X99750000Y-56483597D01*
X99826455Y-56510350D01*
X99956476Y-56525000D01*
X100043524Y-56525000D01*
X100173545Y-56510350D01*
X100250000Y-56483597D01*
X100250000Y-57524999D01*
X101074972Y-57524999D01*
X101074986Y-57524998D01*
X101177696Y-57514505D01*
X101177698Y-57514505D01*
X101344119Y-57459359D01*
X101344130Y-57459354D01*
X101493340Y-57367319D01*
X101493344Y-57367316D01*
X101617316Y-57243344D01*
X101617319Y-57243340D01*
X101709354Y-57094130D01*
X101709359Y-57094119D01*
X101764505Y-56927697D01*
X101774999Y-56824986D01*
X101775000Y-56824973D01*
X101775000Y-56000000D01*
X100733597Y-56000000D01*
X100760350Y-55923545D01*
X100779904Y-55750000D01*
X100760350Y-55576455D01*
X100733597Y-55500000D01*
X101774999Y-55500000D01*
X101774999Y-54675028D01*
X101774998Y-54675013D01*
X101764505Y-54572303D01*
X101764505Y-54572301D01*
X101709359Y-54405880D01*
X101709354Y-54405869D01*
X101617319Y-54256659D01*
X101617316Y-54256655D01*
X101493344Y-54132683D01*
X101493340Y-54132680D01*
X101344130Y-54040645D01*
X101344119Y-54040640D01*
X101177697Y-53985494D01*
X101074986Y-53975000D01*
X100250000Y-53975000D01*
X100250000Y-55016402D01*
X100173545Y-54989650D01*
X100043524Y-54975000D01*
X99956476Y-54975000D01*
X99826455Y-54989650D01*
X99750000Y-55016402D01*
X99750000Y-53975000D01*
X98925028Y-53975000D01*
X98925012Y-53975001D01*
X98822303Y-53985494D01*
X98822301Y-53985494D01*
X98655880Y-54040640D01*
X98655869Y-54040645D01*
X98506659Y-54132680D01*
X98506655Y-54132683D01*
X98382683Y-54256655D01*
X98382680Y-54256659D01*
X98290645Y-54405869D01*
X98290640Y-54405880D01*
X98235494Y-54572302D01*
X98225000Y-54675013D01*
X98225000Y-55500000D01*
X91696998Y-55500000D01*
X91694646Y-55499500D01*
X91505354Y-55499500D01*
X91472897Y-55506398D01*
X91320197Y-55538855D01*
X91320192Y-55538857D01*
X91147270Y-55615848D01*
X91147265Y-55615851D01*
X90994129Y-55727111D01*
X90867466Y-55867785D01*
X90772821Y-56031715D01*
X90772818Y-56031722D01*
X90727380Y-56171567D01*
X90714326Y-56211744D01*
X90694540Y-56400000D01*
X82168554Y-56400000D01*
X82205871Y-56372888D01*
X82332533Y-56232216D01*
X82427179Y-56068284D01*
X82485674Y-55888256D01*
X82505460Y-55700000D01*
X82485674Y-55511744D01*
X82427179Y-55331716D01*
X82332533Y-55167784D01*
X82205871Y-55027112D01*
X82205870Y-55027111D01*
X82052734Y-54915851D01*
X82052729Y-54915848D01*
X81879807Y-54838857D01*
X81879802Y-54838855D01*
X81734001Y-54807865D01*
X81694646Y-54799500D01*
X81505354Y-54799500D01*
X81472897Y-54806398D01*
X81320197Y-54838855D01*
X81320192Y-54838857D01*
X81147270Y-54915848D01*
X81147265Y-54915851D01*
X80988871Y-55030932D01*
X80987677Y-55029288D01*
X80933309Y-55055365D01*
X80863976Y-55046725D01*
X80810320Y-55001971D01*
X80805988Y-54995013D01*
X80732533Y-54867784D01*
X80605871Y-54727112D01*
X80605870Y-54727111D01*
X80452734Y-54615851D01*
X80452729Y-54615848D01*
X80279807Y-54538857D01*
X80279802Y-54538855D01*
X80134001Y-54507865D01*
X80094646Y-54499500D01*
X79905354Y-54499500D01*
X79872897Y-54506398D01*
X79720197Y-54538855D01*
X79720192Y-54538857D01*
X79547270Y-54615848D01*
X79547265Y-54615851D01*
X79394129Y-54727111D01*
X79267466Y-54867785D01*
X79172821Y-55031715D01*
X79172818Y-55031722D01*
X79128609Y-55167785D01*
X79114326Y-55211744D01*
X79101717Y-55331715D01*
X79094540Y-55400000D01*
X79105887Y-55507963D01*
X79093317Y-55576693D01*
X79045585Y-55627716D01*
X79025900Y-55637106D01*
X78907669Y-55681203D01*
X78907664Y-55681206D01*
X78792455Y-55767452D01*
X78792452Y-55767455D01*
X78706206Y-55882664D01*
X78706202Y-55882671D01*
X78655908Y-56017517D01*
X78649501Y-56077116D01*
X78649500Y-56077135D01*
X78649500Y-57872870D01*
X78649501Y-57872876D01*
X78655908Y-57932483D01*
X78706202Y-58067328D01*
X78706206Y-58067335D01*
X78792452Y-58182544D01*
X78792455Y-58182547D01*
X78907664Y-58268793D01*
X78907671Y-58268797D01*
X79039081Y-58317810D01*
X79095015Y-58359681D01*
X79119432Y-58425145D01*
X79104580Y-58493418D01*
X79083430Y-58521673D01*
X78961503Y-58643600D01*
X78825965Y-58837169D01*
X78825964Y-58837171D01*
X78750269Y-58999500D01*
X78731918Y-59038855D01*
X78726098Y-59051335D01*
X78726094Y-59051344D01*
X78664938Y-59279586D01*
X78664936Y-59279596D01*
X78644341Y-59514999D01*
X78644341Y-59515000D01*
X78000500Y-59515000D01*
X78000500Y-52199994D01*
X87594534Y-52199994D01*
X87614320Y-52388250D01*
X87614321Y-52388253D01*
X87672812Y-52568271D01*
X87672815Y-52568278D01*
X87767461Y-52732210D01*
X87894123Y-52872882D01*
X88047259Y-52984142D01*
X88047264Y-52984145D01*
X88220186Y-53061136D01*
X88220191Y-53061138D01*
X88405348Y-53100494D01*
X88405349Y-53100494D01*
X88594638Y-53100494D01*
X88594640Y-53100494D01*
X88779797Y-53061138D01*
X88952724Y-52984145D01*
X89105865Y-52872882D01*
X89232527Y-52732210D01*
X89298087Y-52618657D01*
X89330423Y-52562650D01*
X89333046Y-52564164D01*
X89369716Y-52520913D01*
X89436539Y-52500506D01*
X89437877Y-52500499D01*
X90500002Y-52500499D01*
X90500008Y-52500499D01*
X90602797Y-52489999D01*
X90769334Y-52434814D01*
X90918656Y-52342712D01*
X91042712Y-52218656D01*
X91054218Y-52200001D01*
X95199500Y-52200001D01*
X95199501Y-52200018D01*
X95210000Y-52302796D01*
X95210001Y-52302799D01*
X95265185Y-52469331D01*
X95265187Y-52469336D01*
X95277932Y-52489999D01*
X95357288Y-52618656D01*
X95481344Y-52742712D01*
X95630666Y-52834814D01*
X95797203Y-52889999D01*
X95899991Y-52900500D01*
X97100008Y-52900499D01*
X97202797Y-52889999D01*
X97369334Y-52834814D01*
X97518656Y-52742712D01*
X97642712Y-52618656D01*
X97734814Y-52469334D01*
X97789999Y-52302797D01*
X97800500Y-52200009D01*
X97800499Y-50999992D01*
X97789999Y-50897203D01*
X97782647Y-50875017D01*
X98324500Y-50875017D01*
X98335000Y-50977796D01*
X98390185Y-51144332D01*
X98390187Y-51144337D01*
X98425070Y-51200890D01*
X98482288Y-51293656D01*
X98606344Y-51417712D01*
X98755665Y-51509814D01*
X98922202Y-51564999D01*
X99024990Y-51575500D01*
X99024995Y-51575500D01*
X101175005Y-51575500D01*
X101175010Y-51575500D01*
X101277798Y-51564999D01*
X101444335Y-51509814D01*
X101593656Y-51417712D01*
X101717712Y-51293656D01*
X101809814Y-51144335D01*
X101864999Y-50977798D01*
X101875500Y-50875010D01*
X101875500Y-48724990D01*
X101864999Y-48622202D01*
X101809814Y-48455665D01*
X101717712Y-48306344D01*
X101593656Y-48182288D01*
X101444335Y-48090186D01*
X101277798Y-48035001D01*
X101277796Y-48035000D01*
X101175017Y-48024500D01*
X101175010Y-48024500D01*
X99024990Y-48024500D01*
X99024982Y-48024500D01*
X98922203Y-48035000D01*
X98922202Y-48035001D01*
X98839669Y-48062349D01*
X98755667Y-48090185D01*
X98755662Y-48090187D01*
X98606342Y-48182289D01*
X98482289Y-48306342D01*
X98390187Y-48455662D01*
X98390185Y-48455667D01*
X98368537Y-48520997D01*
X98335001Y-48622202D01*
X98335001Y-48622203D01*
X98335000Y-48622203D01*
X98324500Y-48724982D01*
X98324500Y-50875017D01*
X97782647Y-50875017D01*
X97734814Y-50730666D01*
X97642712Y-50581344D01*
X97518656Y-50457288D01*
X97425888Y-50400069D01*
X97369336Y-50365187D01*
X97369331Y-50365185D01*
X97359116Y-50361800D01*
X97202797Y-50310001D01*
X97202795Y-50310000D01*
X97100010Y-50299500D01*
X95899998Y-50299500D01*
X95899981Y-50299501D01*
X95797203Y-50310000D01*
X95797200Y-50310001D01*
X95630668Y-50365185D01*
X95630663Y-50365187D01*
X95481342Y-50457289D01*
X95357289Y-50581342D01*
X95265187Y-50730663D01*
X95265185Y-50730668D01*
X95242377Y-50799499D01*
X95210001Y-50897203D01*
X95210001Y-50897204D01*
X95210000Y-50897204D01*
X95199500Y-50999983D01*
X95199500Y-52200001D01*
X91054218Y-52200001D01*
X91134814Y-52069334D01*
X91189999Y-51902797D01*
X91200500Y-51800009D01*
X91200499Y-50599992D01*
X91189999Y-50497203D01*
X91134814Y-50330666D01*
X91042712Y-50181344D01*
X90918656Y-50057288D01*
X90811894Y-49991437D01*
X90769336Y-49965187D01*
X90769331Y-49965185D01*
X90723608Y-49950034D01*
X90602797Y-49910001D01*
X90602795Y-49910000D01*
X90500010Y-49899500D01*
X89299998Y-49899500D01*
X89299981Y-49899501D01*
X89197203Y-49910000D01*
X89197200Y-49910001D01*
X89030668Y-49965185D01*
X89030663Y-49965187D01*
X88881342Y-50057289D01*
X88757289Y-50181342D01*
X88665187Y-50330663D01*
X88665185Y-50330668D01*
X88653747Y-50365186D01*
X88610001Y-50497203D01*
X88610001Y-50497204D01*
X88610000Y-50497204D01*
X88599500Y-50599983D01*
X88599500Y-51175494D01*
X88579815Y-51242533D01*
X88527011Y-51288288D01*
X88475500Y-51299494D01*
X88405348Y-51299494D01*
X88372891Y-51306392D01*
X88220191Y-51338849D01*
X88220186Y-51338851D01*
X88047264Y-51415842D01*
X88047259Y-51415845D01*
X87894123Y-51527105D01*
X87767460Y-51667779D01*
X87672815Y-51831709D01*
X87672812Y-51831716D01*
X87649717Y-51902797D01*
X87614320Y-52011738D01*
X87594534Y-52199994D01*
X78000500Y-52199994D01*
X78000500Y-50503480D01*
X78000889Y-50496546D01*
X78003470Y-50473645D01*
X78008651Y-50434289D01*
X78013933Y-50394163D01*
X78019830Y-50369399D01*
X78020396Y-50367784D01*
X78031778Y-50335253D01*
X78033001Y-50332047D01*
X78055474Y-50277794D01*
X78065021Y-50259313D01*
X78086922Y-50224459D01*
X78090197Y-50219752D01*
X78127003Y-50171786D01*
X78132323Y-50165718D01*
X78165718Y-50132323D01*
X78171786Y-50127003D01*
X78219752Y-50090197D01*
X78224459Y-50086922D01*
X78259313Y-50065021D01*
X78277794Y-50055474D01*
X78332047Y-50033001D01*
X78335253Y-50031778D01*
X78369402Y-50019829D01*
X78394163Y-50013933D01*
X78441020Y-50007764D01*
X78473646Y-50003470D01*
X78482632Y-50002456D01*
X78496545Y-50000889D01*
X78503481Y-50000500D01*
X79224401Y-50000500D01*
X79291440Y-50020185D01*
X79337195Y-50072989D01*
X79347139Y-50142147D01*
X79318114Y-50205703D01*
X79297287Y-50224817D01*
X79294132Y-50227109D01*
X79294129Y-50227111D01*
X79167466Y-50367785D01*
X79072821Y-50531715D01*
X79072818Y-50531722D01*
X79029075Y-50666351D01*
X79014326Y-50711744D01*
X78994540Y-50900000D01*
X79014326Y-51088256D01*
X79014327Y-51088259D01*
X79072818Y-51268277D01*
X79072821Y-51268284D01*
X79167467Y-51432216D01*
X79231639Y-51503486D01*
X79294129Y-51572888D01*
X79447265Y-51684148D01*
X79447270Y-51684151D01*
X79620192Y-51761142D01*
X79620197Y-51761144D01*
X79805354Y-51800500D01*
X79805355Y-51800500D01*
X79994644Y-51800500D01*
X79994646Y-51800500D01*
X80179803Y-51761144D01*
X80352730Y-51684151D01*
X80505871Y-51572888D01*
X80632533Y-51432216D01*
X80727179Y-51268284D01*
X80785674Y-51088256D01*
X80805460Y-50900000D01*
X80785674Y-50711744D01*
X80727179Y-50531716D01*
X80632533Y-50367784D01*
X80505871Y-50227112D01*
X80505867Y-50227109D01*
X80352734Y-50115851D01*
X80352730Y-50115849D01*
X80332353Y-50106776D01*
X80279117Y-50061524D01*
X80258798Y-49994674D01*
X80277845Y-49927451D01*
X80305476Y-49896554D01*
X80356146Y-49856146D01*
X80400523Y-49800500D01*
X80426466Y-49767969D01*
X80426467Y-49767966D01*
X80429753Y-49761144D01*
X80475403Y-49666351D01*
X80475404Y-49666343D01*
X80475691Y-49665527D01*
X80476024Y-49665062D01*
X80478425Y-49660077D01*
X80479298Y-49660497D01*
X80516410Y-49608749D01*
X80581362Y-49582999D01*
X80649924Y-49596451D01*
X80700329Y-49644836D01*
X80714851Y-49684943D01*
X80724358Y-49738856D01*
X80740668Y-49831354D01*
X80809721Y-49991438D01*
X80809722Y-49991440D01*
X80809724Y-49991443D01*
X80902342Y-50115849D01*
X80913832Y-50131283D01*
X81047386Y-50243349D01*
X81203185Y-50321594D01*
X81372829Y-50361800D01*
X81372831Y-50361800D01*
X81481860Y-50361800D01*
X81548899Y-50381485D01*
X81594654Y-50434289D01*
X81605180Y-50498759D01*
X81594540Y-50600000D01*
X81614326Y-50788256D01*
X81614327Y-50788259D01*
X81672818Y-50968277D01*
X81672821Y-50968284D01*
X81767467Y-51132216D01*
X81797611Y-51165694D01*
X81894129Y-51272888D01*
X82047265Y-51384148D01*
X82047270Y-51384151D01*
X82220192Y-51461142D01*
X82220197Y-51461144D01*
X82405354Y-51500500D01*
X82405355Y-51500500D01*
X82594644Y-51500500D01*
X82594646Y-51500500D01*
X82779803Y-51461144D01*
X82952730Y-51384151D01*
X83105871Y-51272888D01*
X83232533Y-51132216D01*
X83327179Y-50968284D01*
X83385674Y-50788256D01*
X83405460Y-50600000D01*
X83385674Y-50411744D01*
X83327179Y-50231716D01*
X83232533Y-50067784D01*
X83105871Y-49927112D01*
X83105870Y-49927111D01*
X82952734Y-49815851D01*
X82952729Y-49815848D01*
X82779807Y-49738857D01*
X82779802Y-49738855D01*
X82616311Y-49704105D01*
X82594646Y-49699500D01*
X82405354Y-49699500D01*
X82358674Y-49709421D01*
X82289010Y-49704105D01*
X82233277Y-49661967D01*
X82209172Y-49596387D01*
X82209107Y-49580919D01*
X82209607Y-49572340D01*
X82179332Y-49400646D01*
X82110279Y-49240562D01*
X82100442Y-49227349D01*
X82006167Y-49100716D01*
X81872614Y-48988651D01*
X81872612Y-48988650D01*
X81716818Y-48910407D01*
X81716816Y-48910406D01*
X81716815Y-48910406D01*
X81547171Y-48870200D01*
X81416564Y-48870200D01*
X81303052Y-48883467D01*
X81286835Y-48885363D01*
X81286832Y-48885364D01*
X81123008Y-48944991D01*
X81123004Y-48944993D01*
X80977348Y-49040792D01*
X80977347Y-49040793D01*
X80857706Y-49167603D01*
X80857703Y-49167609D01*
X80770534Y-49318590D01*
X80770533Y-49318592D01*
X80770533Y-49318593D01*
X80743289Y-49409591D01*
X80705206Y-49468167D01*
X80641497Y-49496856D01*
X80572393Y-49486546D01*
X80519831Y-49440513D01*
X80500500Y-49374026D01*
X80500500Y-48643660D01*
X85790393Y-48643660D01*
X85820668Y-48815354D01*
X85889721Y-48975438D01*
X85889722Y-48975440D01*
X85889724Y-48975443D01*
X85944034Y-49048393D01*
X85993832Y-49115283D01*
X86127386Y-49227349D01*
X86283185Y-49305594D01*
X86452829Y-49345800D01*
X86452831Y-49345800D01*
X86583429Y-49345800D01*
X86583436Y-49345800D01*
X86713164Y-49330637D01*
X86876993Y-49271008D01*
X87022654Y-49175205D01*
X87142296Y-49048393D01*
X87178072Y-48986425D01*
X87228635Y-48938213D01*
X87297242Y-48924989D01*
X87362107Y-48950956D01*
X87402637Y-49007870D01*
X87408777Y-49035463D01*
X87414326Y-49088256D01*
X87414327Y-49088259D01*
X87472818Y-49268277D01*
X87472821Y-49268284D01*
X87567467Y-49432216D01*
X87679277Y-49556393D01*
X87694129Y-49572888D01*
X87847265Y-49684148D01*
X87847270Y-49684151D01*
X88020192Y-49761142D01*
X88020197Y-49761144D01*
X88205354Y-49800500D01*
X88205355Y-49800500D01*
X88394644Y-49800500D01*
X88394646Y-49800500D01*
X88579803Y-49761144D01*
X88752730Y-49684151D01*
X88905871Y-49572888D01*
X89032533Y-49432216D01*
X89127179Y-49268284D01*
X89185674Y-49088256D01*
X89205460Y-48900000D01*
X89185674Y-48711744D01*
X89127179Y-48531716D01*
X89032533Y-48367784D01*
X88905871Y-48227112D01*
X88905870Y-48227111D01*
X88752734Y-48115851D01*
X88752729Y-48115848D01*
X88579807Y-48038857D01*
X88579802Y-48038855D01*
X88434001Y-48007865D01*
X88394646Y-47999500D01*
X88205354Y-47999500D01*
X88172897Y-48006398D01*
X88020197Y-48038855D01*
X88020192Y-48038857D01*
X87847270Y-48115848D01*
X87847265Y-48115851D01*
X87694129Y-48227111D01*
X87567465Y-48367785D01*
X87499487Y-48485527D01*
X87448920Y-48533743D01*
X87380313Y-48546965D01*
X87315448Y-48520997D01*
X87274920Y-48464083D01*
X87269985Y-48445064D01*
X87259332Y-48384646D01*
X87190279Y-48224562D01*
X87180442Y-48211349D01*
X87090240Y-48090187D01*
X87086168Y-48084717D01*
X87031513Y-48038856D01*
X86952614Y-47972651D01*
X86952612Y-47972650D01*
X86796818Y-47894407D01*
X86796816Y-47894406D01*
X86796815Y-47894406D01*
X86627171Y-47854200D01*
X86496564Y-47854200D01*
X86383052Y-47867467D01*
X86366835Y-47869363D01*
X86366832Y-47869364D01*
X86203008Y-47928991D01*
X86203004Y-47928993D01*
X86057348Y-48024792D01*
X86057347Y-48024793D01*
X85937706Y-48151603D01*
X85937703Y-48151609D01*
X85850534Y-48302590D01*
X85800531Y-48469610D01*
X85800530Y-48469616D01*
X85796913Y-48531722D01*
X85790393Y-48643660D01*
X80500500Y-48643660D01*
X80500500Y-47843113D01*
X80520185Y-47776074D01*
X80572989Y-47730319D01*
X80642147Y-47720375D01*
X80705703Y-47749400D01*
X80738359Y-47794000D01*
X80740667Y-47799352D01*
X80740668Y-47799354D01*
X80809721Y-47959438D01*
X80809722Y-47959440D01*
X80809724Y-47959443D01*
X80907060Y-48090187D01*
X80913832Y-48099283D01*
X81047386Y-48211349D01*
X81203185Y-48289594D01*
X81372829Y-48329800D01*
X81372831Y-48329800D01*
X81503429Y-48329800D01*
X81503436Y-48329800D01*
X81633164Y-48314637D01*
X81796993Y-48255008D01*
X81942654Y-48159205D01*
X82062296Y-48032393D01*
X82148370Y-47883306D01*
X82198937Y-47835092D01*
X82267544Y-47821868D01*
X82306188Y-47832026D01*
X82450197Y-47896144D01*
X82635354Y-47935500D01*
X82635355Y-47935500D01*
X82824644Y-47935500D01*
X82824646Y-47935500D01*
X83009803Y-47896144D01*
X83182730Y-47819151D01*
X83307116Y-47728778D01*
X83372921Y-47705300D01*
X83440975Y-47721125D01*
X83452872Y-47728771D01*
X83550022Y-47799354D01*
X83577270Y-47819151D01*
X83750192Y-47896142D01*
X83750197Y-47896144D01*
X83935354Y-47935500D01*
X83935355Y-47935500D01*
X84124644Y-47935500D01*
X84124646Y-47935500D01*
X84309803Y-47896144D01*
X84482730Y-47819151D01*
X84635871Y-47707888D01*
X84762533Y-47567216D01*
X84857179Y-47403284D01*
X84871232Y-47360033D01*
X90214737Y-47360033D01*
X90224756Y-47519273D01*
X90274061Y-47671020D01*
X90359553Y-47805732D01*
X90475864Y-47914955D01*
X90475868Y-47914958D01*
X90580813Y-47972651D01*
X90615682Y-47991820D01*
X90770223Y-48031500D01*
X90770226Y-48031500D01*
X90889728Y-48031500D01*
X90889730Y-48031500D01*
X90889735Y-48031499D01*
X90889739Y-48031499D01*
X90902590Y-48029875D01*
X91008296Y-48016522D01*
X91156645Y-47957786D01*
X91285727Y-47864002D01*
X91387431Y-47741064D01*
X91455366Y-47596695D01*
X91485263Y-47439967D01*
X91480234Y-47360033D01*
X92514737Y-47360033D01*
X92524756Y-47519273D01*
X92574061Y-47671020D01*
X92659553Y-47805732D01*
X92775864Y-47914955D01*
X92775868Y-47914958D01*
X92880813Y-47972651D01*
X92915682Y-47991820D01*
X93070223Y-48031500D01*
X93070226Y-48031500D01*
X93189728Y-48031500D01*
X93189730Y-48031500D01*
X93189735Y-48031499D01*
X93189739Y-48031499D01*
X93202590Y-48029875D01*
X93308296Y-48016522D01*
X93456645Y-47957786D01*
X93585727Y-47864002D01*
X93687431Y-47741064D01*
X93755366Y-47596695D01*
X93785263Y-47439967D01*
X93775244Y-47280728D01*
X93725940Y-47128983D01*
X93725938Y-47128980D01*
X93725938Y-47128979D01*
X93640446Y-46994267D01*
X93524135Y-46885044D01*
X93524131Y-46885041D01*
X93384321Y-46808181D01*
X93384313Y-46808178D01*
X93229779Y-46768500D01*
X93229777Y-46768500D01*
X93110270Y-46768500D01*
X93110260Y-46768500D01*
X92991704Y-46783478D01*
X92991702Y-46783478D01*
X92843356Y-46842213D01*
X92843351Y-46842216D01*
X92714272Y-46935999D01*
X92612567Y-47058938D01*
X92544634Y-47203304D01*
X92544634Y-47203305D01*
X92514737Y-47360030D01*
X92514737Y-47360033D01*
X91480234Y-47360033D01*
X91475244Y-47280728D01*
X91425940Y-47128983D01*
X91425938Y-47128980D01*
X91425938Y-47128979D01*
X91340446Y-46994267D01*
X91224135Y-46885044D01*
X91224131Y-46885041D01*
X91084321Y-46808181D01*
X91084313Y-46808178D01*
X90929779Y-46768500D01*
X90929777Y-46768500D01*
X90810270Y-46768500D01*
X90810260Y-46768500D01*
X90691704Y-46783478D01*
X90691702Y-46783478D01*
X90543356Y-46842213D01*
X90543351Y-46842216D01*
X90414272Y-46935999D01*
X90312567Y-47058938D01*
X90244634Y-47203304D01*
X90244634Y-47203305D01*
X90214737Y-47360030D01*
X90214737Y-47360033D01*
X84871232Y-47360033D01*
X84915674Y-47223256D01*
X84935460Y-47035000D01*
X84915674Y-46846744D01*
X84857179Y-46666716D01*
X84762533Y-46502784D01*
X84635871Y-46362112D01*
X84617648Y-46348872D01*
X84482734Y-46250851D01*
X84482732Y-46250850D01*
X84482730Y-46250849D01*
X84453373Y-46237778D01*
X84400138Y-46192528D01*
X84379817Y-46125679D01*
X84398863Y-46058456D01*
X84451229Y-46012201D01*
X84503811Y-46000500D01*
X102496518Y-46000500D01*
X102503455Y-46000889D01*
G37*
%TD.AperFunction*%
%TD*%
M02*
