%TF.GenerationSoftware,KiCad,Pcbnew,7.0.9-7.0.9~ubuntu23.10.1*%
%TF.CreationDate,2024-01-10T03:53:02+01:00*%
%TF.ProjectId,LED_poi,4c45445f-706f-4692-9e6b-696361645f70,A*%
%TF.SameCoordinates,Original*%
%TF.FileFunction,Soldermask,Top*%
%TF.FilePolarity,Negative*%
%FSLAX46Y46*%
G04 Gerber Fmt 4.6, Leading zero omitted, Abs format (unit mm)*
G04 Created by KiCad (PCBNEW 7.0.9-7.0.9~ubuntu23.10.1) date 2024-01-10 03:53:02*
%MOMM*%
%LPD*%
G01*
G04 APERTURE LIST*
G04 Aperture macros list*
%AMRoundRect*
0 Rectangle with rounded corners*
0 $1 Rounding radius*
0 $2 $3 $4 $5 $6 $7 $8 $9 X,Y pos of 4 corners*
0 Add a 4 corners polygon primitive as box body*
4,1,4,$2,$3,$4,$5,$6,$7,$8,$9,$2,$3,0*
0 Add four circle primitives for the rounded corners*
1,1,$1+$1,$2,$3*
1,1,$1+$1,$4,$5*
1,1,$1+$1,$6,$7*
1,1,$1+$1,$8,$9*
0 Add four rect primitives between the rounded corners*
20,1,$1+$1,$2,$3,$4,$5,0*
20,1,$1+$1,$4,$5,$6,$7,0*
20,1,$1+$1,$6,$7,$8,$9,0*
20,1,$1+$1,$8,$9,$2,$3,0*%
G04 Aperture macros list end*
%ADD10C,0.120000*%
%ADD11R,1.700000X1.700000*%
%ADD12O,1.700000X1.700000*%
%ADD13RoundRect,0.225000X-0.250000X0.225000X-0.250000X-0.225000X0.250000X-0.225000X0.250000X0.225000X0*%
%ADD14RoundRect,0.150000X-0.150000X0.587500X-0.150000X-0.587500X0.150000X-0.587500X0.150000X0.587500X0*%
%ADD15RoundRect,0.250000X-0.475000X0.250000X-0.475000X-0.250000X0.475000X-0.250000X0.475000X0.250000X0*%
%ADD16R,0.900000X0.900000*%
%ADD17RoundRect,0.249999X-1.025001X-1.025001X1.025001X-1.025001X1.025001X1.025001X-1.025001X1.025001X0*%
%ADD18C,0.800000*%
%ADD19R,0.889000X1.270000*%
%ADD20R,1.447800X0.787400*%
%ADD21RoundRect,0.250000X-0.262500X-0.450000X0.262500X-0.450000X0.262500X0.450000X-0.262500X0.450000X0*%
%ADD22RoundRect,0.250000X0.250000X0.475000X-0.250000X0.475000X-0.250000X-0.475000X0.250000X-0.475000X0*%
%ADD23RoundRect,0.225000X0.225000X0.250000X-0.225000X0.250000X-0.225000X-0.250000X0.225000X-0.250000X0*%
%ADD24RoundRect,0.250000X-0.450000X0.262500X-0.450000X-0.262500X0.450000X-0.262500X0.450000X0.262500X0*%
%ADD25R,1.200000X1.400000*%
%ADD26RoundRect,0.150000X0.150000X-0.587500X0.150000X0.587500X-0.150000X0.587500X-0.150000X-0.587500X0*%
%ADD27R,0.550000X1.500000*%
%ADD28R,1.500000X0.550000*%
%ADD29RoundRect,0.250000X-0.550000X-0.550000X0.550000X-0.550000X0.550000X0.550000X-0.550000X0.550000X0*%
%ADD30RoundRect,0.250000X0.262500X0.450000X-0.262500X0.450000X-0.262500X-0.450000X0.262500X-0.450000X0*%
%ADD31RoundRect,0.225000X-0.225000X-0.250000X0.225000X-0.250000X0.225000X0.250000X-0.225000X0.250000X0*%
%ADD32RoundRect,0.225000X0.250000X-0.225000X0.250000X0.225000X-0.250000X0.225000X-0.250000X-0.225000X0*%
%ADD33RoundRect,0.150000X0.587500X0.150000X-0.587500X0.150000X-0.587500X-0.150000X0.587500X-0.150000X0*%
%ADD34RoundRect,0.150000X-0.325000X-0.150000X0.325000X-0.150000X0.325000X0.150000X-0.325000X0.150000X0*%
%ADD35RoundRect,0.150000X-0.150000X-0.325000X0.150000X-0.325000X0.150000X0.325000X-0.150000X0.325000X0*%
%ADD36RoundRect,0.250000X-0.250000X-0.750000X0.250000X-0.750000X0.250000X0.750000X-0.250000X0.750000X0*%
%ADD37C,0.990600*%
%ADD38C,0.787400*%
G04 APERTURE END LIST*
D10*
%TO.C,REF\u002A\u002A*%
X98000000Y-82750000D02*
X104000000Y-82750000D01*
X104000000Y-82750000D02*
X104000000Y-84250000D01*
X104000000Y-84250000D02*
X98000000Y-84250000D01*
X98000000Y-84250000D02*
X98000000Y-82750000D01*
G36*
X98000000Y-82750000D02*
G01*
X104000000Y-82750000D01*
X104000000Y-84250000D01*
X98000000Y-84250000D01*
X98000000Y-82750000D01*
G37*
%TD*%
D11*
%TO.C,J11*%
X85000000Y-80000000D03*
D12*
X87540000Y-80000000D03*
X90080000Y-80000000D03*
X92620000Y-80000000D03*
X95160000Y-80000000D03*
%TD*%
D13*
%TO.C,C8*%
X79200000Y-51925000D03*
X79200000Y-53475000D03*
%TD*%
D14*
%TO.C,Q2*%
X84250000Y-74262500D03*
X82350000Y-74262500D03*
X83300000Y-76137500D03*
%TD*%
D15*
%TO.C,C3*%
X101200000Y-58800000D03*
X101200000Y-60700000D03*
%TD*%
D16*
%TO.C,RN1*%
X81900000Y-68300000D03*
X81900000Y-69640000D03*
X81900000Y-70960000D03*
X81900000Y-72300000D03*
X84900000Y-72300000D03*
X84900000Y-70960000D03*
X84900000Y-69640000D03*
X84900000Y-68300000D03*
%TD*%
D17*
%TO.C,J6*%
X100000000Y-55750000D03*
%TD*%
%TO.C,J9*%
X100100000Y-49800000D03*
%TD*%
D18*
%TO.C,SW1*%
X93150000Y-47400000D03*
X90850000Y-47400000D03*
D19*
X94095500Y-48897000D03*
X89904500Y-48897000D03*
D20*
X95378200Y-47004700D03*
X88621800Y-47004700D03*
%TD*%
D13*
%TO.C,C1*%
X103000000Y-52800000D03*
X103000000Y-54350000D03*
%TD*%
D21*
%TO.C,R5*%
X100600000Y-65300000D03*
X102425000Y-65300000D03*
%TD*%
D22*
%TO.C,C2*%
X92500000Y-73400000D03*
X90600000Y-73400000D03*
%TD*%
D23*
%TO.C,C5*%
X87875000Y-68475000D03*
X86325000Y-68475000D03*
%TD*%
D24*
%TO.C,R6*%
X94200000Y-51087500D03*
X94200000Y-52912500D03*
%TD*%
D25*
%TO.C,Y1*%
X82500000Y-54050000D03*
X82500000Y-51850000D03*
X80900000Y-51850000D03*
X80900000Y-54050000D03*
%TD*%
D26*
%TO.C,Q1*%
X102925000Y-69237500D03*
X104825000Y-69237500D03*
X103875000Y-67362500D03*
%TD*%
D24*
%TO.C,R3*%
X92200000Y-51087500D03*
X92200000Y-52912500D03*
%TD*%
D11*
%TO.C,J3*%
X88920000Y-76300000D03*
D12*
X91460000Y-76300000D03*
X94000000Y-76300000D03*
%TD*%
D27*
%TO.C,U1*%
X94800000Y-55000000D03*
X94000000Y-55000000D03*
X93200000Y-55000000D03*
X92400000Y-55000000D03*
X91600000Y-55000000D03*
X90800000Y-55000000D03*
X90000000Y-55000000D03*
X89200000Y-55000000D03*
X88400000Y-55000000D03*
X87600000Y-55000000D03*
X86800000Y-55000000D03*
D28*
X85100000Y-56700000D03*
X85100000Y-57500000D03*
X85100000Y-58300000D03*
X85100000Y-59100000D03*
X85100000Y-59900000D03*
X85100000Y-60700000D03*
X85100000Y-61500000D03*
X85100000Y-62300000D03*
X85100000Y-63100000D03*
X85100000Y-63900000D03*
X85100000Y-64700000D03*
D27*
X86800000Y-66400000D03*
X87600000Y-66400000D03*
X88400000Y-66400000D03*
X89200000Y-66400000D03*
X90000000Y-66400000D03*
X90800000Y-66400000D03*
X91600000Y-66400000D03*
X92400000Y-66400000D03*
X93200000Y-66400000D03*
X94000000Y-66400000D03*
X94800000Y-66400000D03*
D28*
X96500000Y-64700000D03*
X96500000Y-63900000D03*
X96500000Y-63100000D03*
X96500000Y-62300000D03*
X96500000Y-61500000D03*
X96500000Y-60700000D03*
X96500000Y-59900000D03*
X96500000Y-59100000D03*
X96500000Y-58300000D03*
X96500000Y-57500000D03*
X96500000Y-56700000D03*
%TD*%
D11*
%TO.C,J1*%
X80000000Y-56975000D03*
D12*
X80000000Y-59515000D03*
X80000000Y-62055000D03*
%TD*%
D29*
%TO.C,J8*%
X96500000Y-51600000D03*
%TD*%
%TO.C,J7*%
X100700000Y-67700000D03*
%TD*%
D30*
%TO.C,R7*%
X99612500Y-74700000D03*
X97787500Y-74700000D03*
%TD*%
D17*
%TO.C,J5*%
X94800000Y-69200000D03*
%TD*%
D31*
%TO.C,C9*%
X99200000Y-52800000D03*
X100750000Y-52800000D03*
%TD*%
%TO.C,C12*%
X89425000Y-68500000D03*
X90975000Y-68500000D03*
%TD*%
D26*
%TO.C,Q3*%
X78950000Y-76175000D03*
X80850000Y-76175000D03*
X79900000Y-74300000D03*
%TD*%
D21*
%TO.C,R1*%
X97787500Y-72700000D03*
X99612500Y-72700000D03*
%TD*%
D23*
%TO.C,C10*%
X90500000Y-53200000D03*
X88950000Y-53200000D03*
%TD*%
D11*
%TO.C,J2*%
X104000000Y-62525000D03*
D12*
X104000000Y-59985000D03*
X104000000Y-57445000D03*
%TD*%
D29*
%TO.C,J4*%
X89900000Y-51200000D03*
%TD*%
D21*
%TO.C,R4*%
X101887500Y-73700000D03*
X103712500Y-73700000D03*
%TD*%
D32*
%TO.C,C7*%
X84200000Y-53275000D03*
X84200000Y-51725000D03*
%TD*%
D13*
%TO.C,C11*%
X98400000Y-58525000D03*
X98400000Y-60075000D03*
%TD*%
%TO.C,C14*%
X78800000Y-78650000D03*
X78800000Y-80200000D03*
%TD*%
D33*
%TO.C,U2*%
X88737500Y-71950000D03*
X88737500Y-70050000D03*
X86862500Y-71000000D03*
%TD*%
D34*
%TO.C,U3*%
X80400000Y-78900000D03*
X80400000Y-79700000D03*
X80400000Y-80500000D03*
X80400000Y-81300000D03*
X80400000Y-82100000D03*
X80400000Y-82900000D03*
D35*
X81400000Y-82900000D03*
D34*
X82400000Y-82900000D03*
X82400000Y-82100000D03*
X82400000Y-81300000D03*
X82400000Y-80500000D03*
X82400000Y-79700000D03*
X82400000Y-78900000D03*
D35*
X81400000Y-78900000D03*
%TD*%
D30*
%TO.C,R2*%
X104800000Y-71300000D03*
X102975000Y-71300000D03*
%TD*%
D23*
%TO.C,C13*%
X88175000Y-73600000D03*
X86625000Y-73600000D03*
%TD*%
D36*
%TO.C,J12*%
X81800000Y-66100000D03*
%TD*%
D32*
%TO.C,C15*%
X78800000Y-83250000D03*
X78800000Y-81700000D03*
%TD*%
D37*
%TO.C,J10*%
X86540000Y-48600000D03*
X81460000Y-49616000D03*
X81460000Y-47584000D03*
D38*
X85270000Y-47965000D03*
X85270000Y-49235000D03*
X84000000Y-47965000D03*
X84000000Y-49235000D03*
X82730000Y-47965000D03*
X82730000Y-49235000D03*
%TD*%
D36*
%TO.C,J13*%
X83300000Y-66100000D03*
%TD*%
D15*
%TO.C,C4*%
X80000000Y-64700000D03*
X80000000Y-66600000D03*
%TD*%
D32*
%TO.C,C6*%
X98800000Y-64850000D03*
X98800000Y-63300000D03*
%TD*%
M02*
