%TF.GenerationSoftware,KiCad,Pcbnew,7.0.9-7.0.9~ubuntu23.10.1*%
%TF.CreationDate,2024-01-10T03:53:01+01:00*%
%TF.ProjectId,LED_poi,4c45445f-706f-4692-9e6b-696361645f70,A*%
%TF.SameCoordinates,Original*%
%TF.FileFunction,Copper,L4,Bot*%
%TF.FilePolarity,Positive*%
%FSLAX46Y46*%
G04 Gerber Fmt 4.6, Leading zero omitted, Abs format (unit mm)*
G04 Created by KiCad (PCBNEW 7.0.9-7.0.9~ubuntu23.10.1) date 2024-01-10 03:53:01*
%MOMM*%
%LPD*%
G01*
G04 APERTURE LIST*
G04 Aperture macros list*
%AMRoundRect*
0 Rectangle with rounded corners*
0 $1 Rounding radius*
0 $2 $3 $4 $5 $6 $7 $8 $9 X,Y pos of 4 corners*
0 Add a 4 corners polygon primitive as box body*
4,1,4,$2,$3,$4,$5,$6,$7,$8,$9,$2,$3,0*
0 Add four circle primitives for the rounded corners*
1,1,$1+$1,$2,$3*
1,1,$1+$1,$4,$5*
1,1,$1+$1,$6,$7*
1,1,$1+$1,$8,$9*
0 Add four rect primitives between the rounded corners*
20,1,$1+$1,$2,$3,$4,$5,0*
20,1,$1+$1,$4,$5,$6,$7,0*
20,1,$1+$1,$6,$7,$8,$9,0*
20,1,$1+$1,$8,$9,$2,$3,0*%
G04 Aperture macros list end*
%ADD10C,0.150000*%
%TA.AperFunction,NonConductor*%
%ADD11C,0.150000*%
%TD*%
%TA.AperFunction,EtchedComponent*%
%ADD12C,0.120000*%
%TD*%
%TA.AperFunction,ComponentPad*%
%ADD13R,1.700000X1.700000*%
%TD*%
%TA.AperFunction,ComponentPad*%
%ADD14O,1.700000X1.700000*%
%TD*%
%TA.AperFunction,ComponentPad*%
%ADD15RoundRect,0.249999X-1.025001X-1.025001X1.025001X-1.025001X1.025001X1.025001X-1.025001X1.025001X0*%
%TD*%
%TA.AperFunction,WasherPad*%
%ADD16C,0.800000*%
%TD*%
%TA.AperFunction,ComponentPad*%
%ADD17RoundRect,0.250000X-0.550000X-0.550000X0.550000X-0.550000X0.550000X0.550000X-0.550000X0.550000X0*%
%TD*%
%TA.AperFunction,ViaPad*%
%ADD18C,0.800000*%
%TD*%
%TA.AperFunction,Conductor*%
%ADD19C,0.500000*%
%TD*%
%TA.AperFunction,Conductor*%
%ADD20C,0.600000*%
%TD*%
G04 APERTURE END LIST*
D10*
D11*
X103365350Y-83303152D02*
X103365350Y-83969819D01*
X103127255Y-82922200D02*
X102889160Y-83636485D01*
X102889160Y-83636485D02*
X103508207Y-83636485D01*
D12*
%TO.C,REF\u002A\u002A*%
X98000000Y-82750000D02*
X104000000Y-82750000D01*
X104000000Y-82750000D02*
X104000000Y-84250000D01*
X104000000Y-84250000D02*
X98000000Y-84250000D01*
X98000000Y-84250000D02*
X98000000Y-82750000D01*
X102500000Y-82750000D02*
X104000000Y-82750000D01*
X104000000Y-82750000D02*
X104000000Y-84250000D01*
X104000000Y-84250000D02*
X102500000Y-84250000D01*
X102500000Y-84250000D02*
X102500000Y-82750000D01*
%TD*%
D13*
%TO.P,J11,1,Pin_1*%
%TO.N,/SCL_3V3*%
X85000000Y-80000000D03*
D14*
%TO.P,J11,2,Pin_2*%
%TO.N,/SDA_3V3*%
X87540000Y-80000000D03*
%TO.P,J11,3,Pin_3*%
%TO.N,+3.3V*%
X90080000Y-80000000D03*
%TO.P,J11,4,Pin_4*%
%TO.N,GND*%
X92620000Y-80000000D03*
%TO.P,J11,5,Pin_5*%
%TO.N,/ACC_INT1*%
X95160000Y-80000000D03*
%TD*%
D15*
%TO.P,J6,1,Pin_1*%
%TO.N,VCC*%
X100000000Y-55750000D03*
%TD*%
%TO.P,J9,1,Pin_1*%
%TO.N,GND*%
X100100000Y-49800000D03*
%TD*%
D16*
%TO.P,SW1,*%
%TO.N,*%
X93150000Y-47400000D03*
X90850000Y-47400000D03*
%TD*%
D13*
%TO.P,J3,1,Pin_1*%
%TO.N,GND*%
X88920000Y-76300000D03*
D14*
%TO.P,J3,2,Pin_2*%
%TO.N,/Data*%
X91460000Y-76300000D03*
%TO.P,J3,3,Pin_3*%
%TO.N,VCC*%
X94000000Y-76300000D03*
%TD*%
D13*
%TO.P,J1,1,Pin_1*%
%TO.N,GND*%
X80000000Y-56975000D03*
D14*
%TO.P,J1,2,Pin_2*%
%TO.N,/Data*%
X80000000Y-59515000D03*
%TO.P,J1,3,Pin_3*%
%TO.N,VCC*%
X80000000Y-62055000D03*
%TD*%
D17*
%TO.P,J8,1,Pin_1*%
%TO.N,Net-(J8-Pin_1)*%
X96500000Y-51600000D03*
%TD*%
%TO.P,J7,1,Pin_1*%
%TO.N,/KEY*%
X100700000Y-67700000D03*
%TD*%
D15*
%TO.P,J5,1,Pin_1*%
%TO.N,+BATT*%
X94800000Y-69200000D03*
%TD*%
D13*
%TO.P,J2,1,Pin_1*%
%TO.N,GND*%
X104000000Y-62525000D03*
D14*
%TO.P,J2,2,Pin_2*%
%TO.N,/Data*%
X104000000Y-59985000D03*
%TO.P,J2,3,Pin_3*%
%TO.N,VCC*%
X104000000Y-57445000D03*
%TD*%
D17*
%TO.P,J4,1,Pin_1*%
%TO.N,Net-(J4-Pin_1)*%
X89900000Y-51200000D03*
%TD*%
D18*
%TO.N,VCC*%
X94100000Y-56500000D03*
X85230000Y-47035000D03*
X87700000Y-64800000D03*
X97900000Y-65700000D03*
X85000000Y-66700000D03*
X86800000Y-58300000D03*
%TO.N,GND*%
X80000000Y-55400000D03*
X85900000Y-74400000D03*
X98400000Y-62200000D03*
X86300000Y-69700000D03*
X86900000Y-59900000D03*
X80000000Y-67600000D03*
X91600000Y-56400000D03*
X84030000Y-47035000D03*
X88499994Y-52199994D03*
X82500000Y-50600000D03*
X80000000Y-68500000D03*
X78800000Y-80900000D03*
X87800000Y-63200000D03*
X94800000Y-57600000D03*
X83600000Y-78800000D03*
X104900000Y-72600000D03*
%TO.N,/XTAL1*%
X81600000Y-55700000D03*
X79900000Y-50900000D03*
%TO.N,/Data*%
X103700000Y-75200000D03*
%TO.N,+BATT*%
X88300000Y-48900000D03*
%TO.N,Net-(C1-Pad1)*%
X103000000Y-51700000D03*
X99600000Y-71000000D03*
%TO.N,/~{RST}*%
X83500000Y-57500000D03*
X82730000Y-47035000D03*
%TO.N,+3.3V*%
X84300000Y-75700000D03*
X79000000Y-77600000D03*
X79900000Y-84100000D03*
%TO.N,/SCL_3V3*%
X81220180Y-77652613D03*
%TO.N,/SDA_3V3*%
X82400000Y-77700000D03*
%TO.N,/ACC_INT1*%
X90200000Y-64700000D03*
%TO.N,/SDA*%
X81800000Y-62200000D03*
X83100000Y-68500000D03*
%TO.N,/SCL*%
X81900000Y-61000000D03*
X80800000Y-69700000D03*
%TO.N,/LED_Data*%
X94000000Y-64700000D03*
X101199994Y-72200000D03*
%TO.N,/ACC_INT2*%
X92000000Y-64700000D03*
X83800000Y-82000000D03*
%TD*%
D19*
%TO.N,/XTAL1*%
X79900000Y-50900000D02*
X79900000Y-54000000D01*
X79900000Y-54000000D02*
X81600000Y-55700000D01*
%TO.N,/Data*%
X91460000Y-73060000D02*
X86700000Y-68300000D01*
X86700000Y-63000000D02*
X83215000Y-59515000D01*
X86700000Y-68300000D02*
X86700000Y-63000000D01*
X80000000Y-59515000D02*
X83215000Y-59515000D01*
X102400000Y-73900000D02*
X103700000Y-75200000D01*
X91460000Y-76300000D02*
X91460000Y-73060000D01*
X104000000Y-59985000D02*
X102400000Y-61585000D01*
X102400000Y-61585000D02*
X102400000Y-73900000D01*
%TO.N,+BATT*%
X93000000Y-63100000D02*
X93000000Y-67400000D01*
X87400000Y-49800000D02*
X87400000Y-57500000D01*
X87400000Y-57500000D02*
X93000000Y-63100000D01*
X88300000Y-48900000D02*
X87400000Y-49800000D01*
X93000000Y-67400000D02*
X94800000Y-69200000D01*
%TO.N,Net-(C1-Pad1)*%
X102200000Y-57700000D02*
X102200000Y-52500000D01*
X99600000Y-71000000D02*
X99450000Y-70850000D01*
X99450000Y-70850000D02*
X99450000Y-60450000D01*
X102200000Y-52500000D02*
X103000000Y-51700000D01*
X99450000Y-60450000D02*
X102200000Y-57700000D01*
%TO.N,/~{RST}*%
X82700000Y-47065000D02*
X82730000Y-47035000D01*
X82700000Y-49300000D02*
X82700000Y-47065000D01*
X83500000Y-50100000D02*
X82700000Y-49300000D01*
X83500000Y-57500000D02*
X83500000Y-50100000D01*
%TO.N,+3.3V*%
X79000000Y-77510050D02*
X80810050Y-75700000D01*
X80810050Y-75700000D02*
X84300000Y-75700000D01*
X79000000Y-78289949D02*
X79000000Y-77600000D01*
X79000000Y-77600000D02*
X79000000Y-77510050D01*
X79900000Y-79189949D02*
X79000000Y-78289949D01*
X79900000Y-84100000D02*
X79900000Y-79189949D01*
%TO.N,/SCL_3V3*%
X85000000Y-80000000D02*
X83400000Y-80000000D01*
X83400000Y-80000000D02*
X81220180Y-77820180D01*
X81220180Y-77820180D02*
X81220180Y-77652613D01*
%TO.N,/SDA_3V3*%
X87540000Y-78840000D02*
X87540000Y-80000000D01*
X82400000Y-77700000D02*
X86400000Y-77700000D01*
X86400000Y-77700000D02*
X87540000Y-78840000D01*
%TO.N,/ACC_INT1*%
X95160000Y-80000000D02*
X96400000Y-78760000D01*
X96400000Y-78760000D02*
X96400000Y-74710050D01*
X90200000Y-68510050D02*
X90200000Y-64700000D01*
X96400000Y-74710050D02*
X90200000Y-68510050D01*
%TO.N,/SDA*%
X81800000Y-67200000D02*
X83100000Y-68500000D01*
X81800000Y-62200000D02*
X81800000Y-67200000D01*
%TO.N,/SCL*%
X80800000Y-69700000D02*
X83400000Y-69700000D01*
X83400000Y-69700000D02*
X84000000Y-69100000D01*
X84000000Y-63100000D02*
X81900000Y-61000000D01*
X84000000Y-69100000D02*
X84000000Y-63100000D01*
D20*
%TO.N,/LED_Data*%
X98900000Y-72200000D02*
X101200000Y-72200000D01*
X98200000Y-68900000D02*
X98200000Y-71500000D01*
X98200000Y-71500000D02*
X98900000Y-72200000D01*
X94000000Y-64700000D02*
X98200000Y-68900000D01*
D19*
%TO.N,/ACC_INT2*%
X86500000Y-76600000D02*
X88100000Y-78200000D01*
X80100000Y-78400000D02*
X83700000Y-82000000D01*
X95700000Y-77100000D02*
X95700000Y-75000000D01*
X95700000Y-75000000D02*
X88800000Y-68100000D01*
X94600000Y-78200000D02*
X95700000Y-77100000D01*
X83700000Y-82000000D02*
X83800000Y-82000000D01*
X80100000Y-77400000D02*
X80900000Y-76600000D01*
X80900000Y-76600000D02*
X86500000Y-76600000D01*
X90900000Y-63600000D02*
X92000000Y-64700000D01*
X80100000Y-78400000D02*
X80100000Y-77400000D01*
X88800000Y-64400000D02*
X89600000Y-63600000D01*
X88100000Y-78200000D02*
X94600000Y-78200000D01*
X89600000Y-63600000D02*
X90900000Y-63600000D01*
X88800000Y-68100000D02*
X88800000Y-64400000D01*
%TD*%
%TA.AperFunction,Conductor*%
%TO.N,GND*%
G36*
X105503455Y-51000889D02*
G01*
X105516485Y-51002357D01*
X105526354Y-51003470D01*
X105568982Y-51009081D01*
X105605831Y-51013932D01*
X105630599Y-51019830D01*
X105664736Y-51031775D01*
X105667976Y-51033011D01*
X105722195Y-51055469D01*
X105740695Y-51065027D01*
X105775520Y-51086909D01*
X105780267Y-51090212D01*
X105828200Y-51126993D01*
X105834295Y-51132337D01*
X105867660Y-51165702D01*
X105873005Y-51171798D01*
X105909786Y-51219731D01*
X105913097Y-51224490D01*
X105934967Y-51259296D01*
X105944536Y-51277818D01*
X105966983Y-51332014D01*
X105968223Y-51335263D01*
X105980169Y-51369401D01*
X105986066Y-51394169D01*
X105996530Y-51473647D01*
X105999110Y-51496538D01*
X105999500Y-51503486D01*
X105999500Y-72996514D01*
X105999110Y-73003462D01*
X105996530Y-73026351D01*
X105986066Y-73105829D01*
X105980169Y-73130597D01*
X105968223Y-73164735D01*
X105966983Y-73167984D01*
X105944536Y-73222180D01*
X105934967Y-73240702D01*
X105913097Y-73275508D01*
X105909786Y-73280267D01*
X105873005Y-73328200D01*
X105867653Y-73334304D01*
X105834304Y-73367653D01*
X105828200Y-73373005D01*
X105780267Y-73409786D01*
X105775508Y-73413097D01*
X105740702Y-73434967D01*
X105722180Y-73444536D01*
X105667984Y-73466983D01*
X105664735Y-73468223D01*
X105630597Y-73480169D01*
X105605829Y-73486066D01*
X105526351Y-73496530D01*
X105505688Y-73498859D01*
X105503460Y-73499110D01*
X105496514Y-73499500D01*
X105443600Y-73499500D01*
X105333649Y-73524596D01*
X105232033Y-73573532D01*
X105232030Y-73573533D01*
X105143854Y-73643854D01*
X105073533Y-73732030D01*
X105073532Y-73732033D01*
X105024596Y-73833649D01*
X104999500Y-73943600D01*
X104999500Y-77556399D01*
X105024596Y-77666350D01*
X105073532Y-77767966D01*
X105073533Y-77767969D01*
X105108196Y-77811433D01*
X105143854Y-77856146D01*
X105180710Y-77885538D01*
X105232030Y-77926466D01*
X105232033Y-77926467D01*
X105333649Y-77975403D01*
X105443600Y-78000499D01*
X105443605Y-78000499D01*
X105443607Y-78000500D01*
X105496518Y-78000500D01*
X105503455Y-78000889D01*
X105516485Y-78002357D01*
X105526354Y-78003470D01*
X105568982Y-78009081D01*
X105605831Y-78013932D01*
X105630599Y-78019830D01*
X105664736Y-78031775D01*
X105667976Y-78033011D01*
X105722195Y-78055469D01*
X105740695Y-78065027D01*
X105775520Y-78086909D01*
X105780267Y-78090212D01*
X105828200Y-78126993D01*
X105834295Y-78132337D01*
X105867660Y-78165702D01*
X105873005Y-78171798D01*
X105909786Y-78219731D01*
X105913097Y-78224490D01*
X105934967Y-78259296D01*
X105944533Y-78277813D01*
X105949914Y-78290803D01*
X105966983Y-78332014D01*
X105968223Y-78335263D01*
X105980169Y-78369401D01*
X105986066Y-78394169D01*
X105996530Y-78473647D01*
X105999110Y-78496538D01*
X105999500Y-78503486D01*
X105999500Y-82997975D01*
X105999367Y-83002032D01*
X105994017Y-83083648D01*
X105981015Y-83265438D01*
X105979980Y-83273118D01*
X105956846Y-83389420D01*
X105925472Y-83533646D01*
X105923597Y-83540401D01*
X105883197Y-83659418D01*
X105878893Y-83670956D01*
X105833841Y-83791741D01*
X105831355Y-83797499D01*
X105774421Y-83912952D01*
X105707828Y-84034907D01*
X105704961Y-84039641D01*
X105633461Y-84146649D01*
X105631543Y-84149359D01*
X105549744Y-84258631D01*
X105546723Y-84262357D01*
X105461529Y-84359502D01*
X105458755Y-84362464D01*
X105362464Y-84458755D01*
X105359502Y-84461529D01*
X105262357Y-84546723D01*
X105258631Y-84549744D01*
X105149359Y-84631543D01*
X105146649Y-84633461D01*
X105039641Y-84704961D01*
X105034907Y-84707828D01*
X104912952Y-84774421D01*
X104797499Y-84831355D01*
X104791741Y-84833841D01*
X104670956Y-84878893D01*
X104659418Y-84883197D01*
X104540401Y-84923597D01*
X104533646Y-84925472D01*
X104389406Y-84956849D01*
X104384668Y-84957791D01*
X104315078Y-84951548D01*
X104259910Y-84908672D01*
X104236680Y-84842777D01*
X104252764Y-84774784D01*
X104285016Y-84737794D01*
X104399754Y-84649754D01*
X104480763Y-84544180D01*
X104489596Y-84532669D01*
X104546074Y-84396320D01*
X104565337Y-84250000D01*
X104561030Y-84217289D01*
X104560500Y-84209191D01*
X104560500Y-82790808D01*
X104561031Y-82782706D01*
X104565337Y-82749999D01*
X104565337Y-82749998D01*
X104546074Y-82603681D01*
X104546074Y-82603680D01*
X104489596Y-82467332D01*
X104489596Y-82467331D01*
X104399757Y-82350249D01*
X104399755Y-82350247D01*
X104399754Y-82350246D01*
X104370671Y-82327930D01*
X104282669Y-82260404D01*
X104282668Y-82260403D01*
X104146320Y-82203926D01*
X104146318Y-82203925D01*
X104000001Y-82184663D01*
X104000000Y-82184663D01*
X103967290Y-82188969D01*
X103959192Y-82189500D01*
X102540808Y-82189500D01*
X102532709Y-82188969D01*
X102500000Y-82184663D01*
X102467290Y-82188969D01*
X102459192Y-82189500D01*
X98040808Y-82189500D01*
X98032709Y-82188969D01*
X98000000Y-82184663D01*
X97963259Y-82189500D01*
X97853681Y-82203925D01*
X97853679Y-82203926D01*
X97717331Y-82260403D01*
X97600247Y-82350243D01*
X97510403Y-82467331D01*
X97453926Y-82603679D01*
X97453925Y-82603681D01*
X97434663Y-82749998D01*
X97434663Y-82749999D01*
X97438969Y-82782706D01*
X97439500Y-82790808D01*
X97439500Y-84209191D01*
X97438969Y-84217293D01*
X97434663Y-84249999D01*
X97434663Y-84250000D01*
X97439500Y-84286741D01*
X97453925Y-84396318D01*
X97453926Y-84396320D01*
X97510403Y-84532668D01*
X97600243Y-84649752D01*
X97717331Y-84739596D01*
X97768857Y-84760939D01*
X97823260Y-84804780D01*
X97845325Y-84871074D01*
X97828046Y-84938773D01*
X97776909Y-84986384D01*
X97721404Y-84999500D01*
X80575599Y-84999500D01*
X80508560Y-84979815D01*
X80462805Y-84927011D01*
X80452861Y-84857853D01*
X80481886Y-84794297D01*
X80502713Y-84775183D01*
X80503954Y-84774280D01*
X80505871Y-84772888D01*
X80632533Y-84632216D01*
X80727179Y-84468284D01*
X80785674Y-84288256D01*
X80805460Y-84100000D01*
X80785674Y-83911744D01*
X80727179Y-83731716D01*
X80696336Y-83678294D01*
X80667113Y-83627677D01*
X80650500Y-83565677D01*
X80650500Y-80311230D01*
X80670185Y-80244191D01*
X80722989Y-80198436D01*
X80792147Y-80188492D01*
X80855703Y-80217517D01*
X80862181Y-80223549D01*
X82935359Y-82296727D01*
X82965608Y-82346086D01*
X82972821Y-82368283D01*
X82972821Y-82368285D01*
X83030006Y-82467331D01*
X83067467Y-82532216D01*
X83131813Y-82603679D01*
X83194129Y-82672888D01*
X83347265Y-82784148D01*
X83347270Y-82784151D01*
X83520192Y-82861142D01*
X83520197Y-82861144D01*
X83705354Y-82900500D01*
X83705355Y-82900500D01*
X83894644Y-82900500D01*
X83894646Y-82900500D01*
X84079803Y-82861144D01*
X84252730Y-82784151D01*
X84405871Y-82672888D01*
X84532533Y-82532216D01*
X84627179Y-82368284D01*
X84685674Y-82188256D01*
X84705460Y-82000000D01*
X84685674Y-81811744D01*
X84627179Y-81631716D01*
X84572205Y-81536498D01*
X84555733Y-81468598D01*
X84578586Y-81402571D01*
X84633508Y-81359381D01*
X84679593Y-81350499D01*
X85897871Y-81350499D01*
X85897872Y-81350499D01*
X85957483Y-81344091D01*
X86092331Y-81293796D01*
X86207546Y-81207546D01*
X86293796Y-81092331D01*
X86342810Y-80960916D01*
X86384681Y-80904984D01*
X86450145Y-80880566D01*
X86518418Y-80895417D01*
X86546673Y-80916569D01*
X86668599Y-81038495D01*
X86765384Y-81106265D01*
X86862165Y-81174032D01*
X86862167Y-81174033D01*
X86862170Y-81174035D01*
X87076337Y-81273903D01*
X87304592Y-81335063D01*
X87492918Y-81351539D01*
X87539999Y-81355659D01*
X87540000Y-81355659D01*
X87540001Y-81355659D01*
X87579234Y-81352226D01*
X87775408Y-81335063D01*
X88003663Y-81273903D01*
X88217830Y-81174035D01*
X88411401Y-81038495D01*
X88578495Y-80871401D01*
X88708425Y-80685842D01*
X88763002Y-80642217D01*
X88832500Y-80635023D01*
X88894855Y-80666546D01*
X88911575Y-80685842D01*
X89041500Y-80871395D01*
X89041505Y-80871401D01*
X89208599Y-81038495D01*
X89305384Y-81106265D01*
X89402165Y-81174032D01*
X89402167Y-81174033D01*
X89402170Y-81174035D01*
X89616337Y-81273903D01*
X89844592Y-81335063D01*
X90032918Y-81351539D01*
X90079999Y-81355659D01*
X90080000Y-81355659D01*
X90080001Y-81355659D01*
X90119234Y-81352226D01*
X90315408Y-81335063D01*
X90543663Y-81273903D01*
X90757830Y-81174035D01*
X90951401Y-81038495D01*
X91118495Y-80871401D01*
X91248730Y-80685405D01*
X91303307Y-80641781D01*
X91372805Y-80634587D01*
X91435160Y-80666110D01*
X91451879Y-80685405D01*
X91581890Y-80871078D01*
X91748917Y-81038105D01*
X91942421Y-81173600D01*
X92156507Y-81273429D01*
X92156516Y-81273433D01*
X92370000Y-81330634D01*
X92370000Y-80435501D01*
X92477685Y-80484680D01*
X92584237Y-80500000D01*
X92655763Y-80500000D01*
X92762315Y-80484680D01*
X92870000Y-80435501D01*
X92870000Y-81330633D01*
X93083483Y-81273433D01*
X93083492Y-81273429D01*
X93297578Y-81173600D01*
X93491082Y-81038105D01*
X93658105Y-80871082D01*
X93788119Y-80685405D01*
X93842696Y-80641781D01*
X93912195Y-80634588D01*
X93974549Y-80666110D01*
X93991269Y-80685405D01*
X94121505Y-80871401D01*
X94288599Y-81038495D01*
X94385384Y-81106265D01*
X94482165Y-81174032D01*
X94482167Y-81174033D01*
X94482170Y-81174035D01*
X94696337Y-81273903D01*
X94924592Y-81335063D01*
X95112918Y-81351539D01*
X95159999Y-81355659D01*
X95160000Y-81355659D01*
X95160001Y-81355659D01*
X95199234Y-81352226D01*
X95395408Y-81335063D01*
X95623663Y-81273903D01*
X95837830Y-81174035D01*
X96031401Y-81038495D01*
X96198495Y-80871401D01*
X96334035Y-80677830D01*
X96433903Y-80463663D01*
X96495063Y-80235408D01*
X96515659Y-80000000D01*
X96497022Y-79786985D01*
X96510788Y-79718486D01*
X96532866Y-79688500D01*
X96885642Y-79335724D01*
X96899271Y-79323947D01*
X96901657Y-79322171D01*
X96918530Y-79309610D01*
X96952101Y-79269601D01*
X96955761Y-79265606D01*
X96961590Y-79259778D01*
X96981941Y-79234039D01*
X96987948Y-79226879D01*
X97031302Y-79175214D01*
X97031306Y-79175205D01*
X97035274Y-79169175D01*
X97035325Y-79169208D01*
X97039372Y-79162856D01*
X97039320Y-79162824D01*
X97043112Y-79156675D01*
X97075575Y-79087058D01*
X97100234Y-79037958D01*
X97110040Y-79018433D01*
X97110042Y-79018421D01*
X97112509Y-79011646D01*
X97112567Y-79011667D01*
X97115043Y-79004546D01*
X97114986Y-79004528D01*
X97117257Y-78997673D01*
X97132792Y-78922434D01*
X97150500Y-78847721D01*
X97150500Y-78847710D01*
X97151338Y-78840548D01*
X97151398Y-78840555D01*
X97152164Y-78833055D01*
X97152105Y-78833050D01*
X97152734Y-78825860D01*
X97150500Y-78749082D01*
X97150500Y-74773755D01*
X97151809Y-74755785D01*
X97155289Y-74732024D01*
X97150736Y-74679989D01*
X97150500Y-74674582D01*
X97150500Y-74666346D01*
X97150500Y-74666341D01*
X97146691Y-74633755D01*
X97139998Y-74557253D01*
X97139995Y-74557244D01*
X97138538Y-74550185D01*
X97138598Y-74550172D01*
X97136966Y-74542814D01*
X97136908Y-74542828D01*
X97135241Y-74535797D01*
X97135241Y-74535795D01*
X97108969Y-74463613D01*
X97084815Y-74390718D01*
X97081762Y-74384171D01*
X97081815Y-74384145D01*
X97078531Y-74377361D01*
X97078479Y-74377388D01*
X97075236Y-74370932D01*
X97073738Y-74368655D01*
X97033034Y-74306766D01*
X97009104Y-74267969D01*
X96992714Y-74241397D01*
X96988234Y-74235731D01*
X96988280Y-74235693D01*
X96983519Y-74229849D01*
X96983474Y-74229888D01*
X96978834Y-74224358D01*
X96922982Y-74171663D01*
X93938499Y-71187181D01*
X93905014Y-71125858D01*
X93909998Y-71056166D01*
X93951870Y-71000233D01*
X94017334Y-70975816D01*
X94026180Y-70975500D01*
X95875005Y-70975500D01*
X95875010Y-70975500D01*
X95977798Y-70964999D01*
X96144335Y-70909814D01*
X96293656Y-70817712D01*
X96417712Y-70693656D01*
X96509814Y-70544335D01*
X96564999Y-70377798D01*
X96575500Y-70275010D01*
X96575500Y-68706940D01*
X96595185Y-68639901D01*
X96647989Y-68594146D01*
X96717147Y-68584202D01*
X96780703Y-68613227D01*
X96787181Y-68619259D01*
X97363181Y-69195259D01*
X97396666Y-69256582D01*
X97399500Y-69282940D01*
X97399500Y-71590191D01*
X97399501Y-71590200D01*
X97408791Y-71630908D01*
X97409955Y-71637763D01*
X97414632Y-71679259D01*
X97428420Y-71718662D01*
X97430345Y-71725345D01*
X97439639Y-71766061D01*
X97457759Y-71803688D01*
X97460421Y-71810114D01*
X97474212Y-71849525D01*
X97496422Y-71884872D01*
X97499787Y-71890959D01*
X97517910Y-71928589D01*
X97543940Y-71961229D01*
X97547966Y-71966904D01*
X97570182Y-72002259D01*
X97570184Y-72002262D01*
X98397740Y-72829818D01*
X98410790Y-72838017D01*
X98433104Y-72852038D01*
X98438757Y-72856049D01*
X98471413Y-72882091D01*
X98509044Y-72900213D01*
X98515106Y-72903563D01*
X98550478Y-72925789D01*
X98589898Y-72939583D01*
X98596326Y-72942245D01*
X98633939Y-72960359D01*
X98674655Y-72969652D01*
X98681324Y-72971574D01*
X98720745Y-72985368D01*
X98762251Y-72990044D01*
X98769076Y-72991203D01*
X98809805Y-73000500D01*
X98855046Y-73000500D01*
X100757627Y-73000500D01*
X100808063Y-73011221D01*
X100920186Y-73061142D01*
X100920191Y-73061144D01*
X101105348Y-73100500D01*
X101105349Y-73100500D01*
X101294638Y-73100500D01*
X101294640Y-73100500D01*
X101479797Y-73061144D01*
X101479799Y-73061142D01*
X101485981Y-73059135D01*
X101486811Y-73061690D01*
X101544234Y-73053953D01*
X101607530Y-73083541D01*
X101644782Y-73142651D01*
X101649500Y-73176530D01*
X101649500Y-73836294D01*
X101648191Y-73854263D01*
X101644710Y-73878025D01*
X101649264Y-73930064D01*
X101649500Y-73935470D01*
X101649500Y-73943709D01*
X101653306Y-73976274D01*
X101660000Y-74052791D01*
X101661461Y-74059867D01*
X101661403Y-74059878D01*
X101663034Y-74067237D01*
X101663092Y-74067224D01*
X101664757Y-74074250D01*
X101691025Y-74146424D01*
X101715185Y-74219331D01*
X101718236Y-74225874D01*
X101718182Y-74225898D01*
X101721470Y-74232688D01*
X101721521Y-74232663D01*
X101724761Y-74239113D01*
X101724762Y-74239114D01*
X101724763Y-74239117D01*
X101766965Y-74303283D01*
X101807287Y-74368655D01*
X101811766Y-74374319D01*
X101811719Y-74374356D01*
X101816482Y-74380202D01*
X101816528Y-74380164D01*
X101821173Y-74385700D01*
X101877018Y-74438386D01*
X102342109Y-74903477D01*
X102787228Y-75348595D01*
X102817478Y-75397958D01*
X102872818Y-75568277D01*
X102872821Y-75568284D01*
X102967467Y-75732216D01*
X103073070Y-75849500D01*
X103094129Y-75872888D01*
X103247265Y-75984148D01*
X103247270Y-75984151D01*
X103420192Y-76061142D01*
X103420197Y-76061144D01*
X103605354Y-76100500D01*
X103605355Y-76100500D01*
X103794644Y-76100500D01*
X103794646Y-76100500D01*
X103979803Y-76061144D01*
X104152730Y-75984151D01*
X104305871Y-75872888D01*
X104432533Y-75732216D01*
X104527179Y-75568284D01*
X104585674Y-75388256D01*
X104605460Y-75200000D01*
X104585674Y-75011744D01*
X104527179Y-74831716D01*
X104432533Y-74667784D01*
X104305871Y-74527112D01*
X104305870Y-74527111D01*
X104152734Y-74415851D01*
X104152729Y-74415848D01*
X103979807Y-74338857D01*
X103979802Y-74338855D01*
X103914669Y-74325011D01*
X103853187Y-74291818D01*
X103852769Y-74291402D01*
X103186819Y-73625451D01*
X103153334Y-73564128D01*
X103150500Y-73537770D01*
X103150500Y-63999000D01*
X103170185Y-63931961D01*
X103222989Y-63886206D01*
X103274500Y-63875000D01*
X103750000Y-63875000D01*
X103750000Y-62960501D01*
X103857685Y-63009680D01*
X103964237Y-63025000D01*
X104035763Y-63025000D01*
X104142315Y-63009680D01*
X104250000Y-62960501D01*
X104250000Y-63875000D01*
X104897828Y-63875000D01*
X104897844Y-63874999D01*
X104957372Y-63868598D01*
X104957379Y-63868596D01*
X105092086Y-63818354D01*
X105092093Y-63818350D01*
X105207187Y-63732190D01*
X105207190Y-63732187D01*
X105293350Y-63617093D01*
X105293354Y-63617086D01*
X105343596Y-63482379D01*
X105343598Y-63482372D01*
X105349999Y-63422844D01*
X105350000Y-63422827D01*
X105350000Y-62775000D01*
X104433686Y-62775000D01*
X104459493Y-62734844D01*
X104500000Y-62596889D01*
X104500000Y-62453111D01*
X104459493Y-62315156D01*
X104433686Y-62275000D01*
X105350000Y-62275000D01*
X105350000Y-61627172D01*
X105349999Y-61627155D01*
X105343598Y-61567627D01*
X105343596Y-61567620D01*
X105293354Y-61432913D01*
X105293350Y-61432906D01*
X105207190Y-61317812D01*
X105207187Y-61317809D01*
X105092093Y-61231649D01*
X105092088Y-61231646D01*
X104960528Y-61182577D01*
X104904595Y-61140705D01*
X104880178Y-61075241D01*
X104895030Y-61006968D01*
X104916175Y-60978720D01*
X105038495Y-60856401D01*
X105174035Y-60662830D01*
X105273903Y-60448663D01*
X105335063Y-60220408D01*
X105355659Y-59985000D01*
X105335063Y-59749592D01*
X105273903Y-59521337D01*
X105174035Y-59307171D01*
X105099344Y-59200500D01*
X105038494Y-59113597D01*
X104871402Y-58946506D01*
X104871396Y-58946501D01*
X104685842Y-58816575D01*
X104642217Y-58761998D01*
X104635023Y-58692500D01*
X104666546Y-58630145D01*
X104685842Y-58613425D01*
X104708026Y-58597891D01*
X104871401Y-58483495D01*
X105038495Y-58316401D01*
X105174035Y-58122830D01*
X105273903Y-57908663D01*
X105335063Y-57680408D01*
X105355659Y-57445000D01*
X105355121Y-57438856D01*
X105344000Y-57311740D01*
X105335063Y-57209592D01*
X105273903Y-56981337D01*
X105174035Y-56767171D01*
X105141430Y-56720605D01*
X105038494Y-56573597D01*
X104871402Y-56406506D01*
X104871395Y-56406501D01*
X104861969Y-56399901D01*
X104823391Y-56372888D01*
X104677834Y-56270967D01*
X104677830Y-56270965D01*
X104677828Y-56270964D01*
X104463663Y-56171097D01*
X104463659Y-56171096D01*
X104463655Y-56171094D01*
X104235413Y-56109938D01*
X104235403Y-56109936D01*
X104000001Y-56089341D01*
X103999999Y-56089341D01*
X103764596Y-56109936D01*
X103764586Y-56109938D01*
X103536344Y-56171094D01*
X103536335Y-56171098D01*
X103322171Y-56270964D01*
X103322169Y-56270965D01*
X103145623Y-56394584D01*
X103079417Y-56416911D01*
X103011650Y-56399901D01*
X102963837Y-56348953D01*
X102950500Y-56293009D01*
X102950500Y-52862229D01*
X102970185Y-52795190D01*
X102986810Y-52774557D01*
X103152772Y-52608594D01*
X103214092Y-52575112D01*
X103214448Y-52575034D01*
X103279803Y-52561144D01*
X103452730Y-52484151D01*
X103605871Y-52372888D01*
X103732533Y-52232216D01*
X103827179Y-52068284D01*
X103885674Y-51888256D01*
X103905460Y-51700000D01*
X103885674Y-51511744D01*
X103831112Y-51343823D01*
X103827181Y-51331722D01*
X103827180Y-51331719D01*
X103827179Y-51331716D01*
X103743339Y-51186500D01*
X103726866Y-51118599D01*
X103749719Y-51052573D01*
X103804640Y-51009382D01*
X103850726Y-51000500D01*
X105496518Y-51000500D01*
X105503455Y-51000889D01*
G37*
%TD.AperFunction*%
%TA.AperFunction,Conductor*%
G36*
X78205703Y-78222982D02*
G01*
X78243477Y-78281760D01*
X78248028Y-78305888D01*
X78249264Y-78320013D01*
X78249500Y-78325419D01*
X78249500Y-78333658D01*
X78253306Y-78366223D01*
X78260000Y-78442740D01*
X78261461Y-78449816D01*
X78261403Y-78449827D01*
X78263034Y-78457186D01*
X78263092Y-78457173D01*
X78264757Y-78464199D01*
X78291025Y-78536373D01*
X78315185Y-78609280D01*
X78318236Y-78615823D01*
X78318182Y-78615847D01*
X78321470Y-78622637D01*
X78321521Y-78622612D01*
X78324761Y-78629062D01*
X78324762Y-78629063D01*
X78324763Y-78629066D01*
X78353677Y-78673028D01*
X78366965Y-78693232D01*
X78407287Y-78758604D01*
X78411766Y-78764268D01*
X78411719Y-78764305D01*
X78416482Y-78770151D01*
X78416528Y-78770113D01*
X78421173Y-78775649D01*
X78438986Y-78792454D01*
X78477019Y-78828336D01*
X78811539Y-79162856D01*
X79113181Y-79464497D01*
X79146666Y-79525820D01*
X79149500Y-79552178D01*
X79149500Y-83565677D01*
X79132887Y-83627677D01*
X79072821Y-83731714D01*
X79022464Y-83886697D01*
X79014326Y-83911744D01*
X78994540Y-84100000D01*
X79014326Y-84288256D01*
X79014327Y-84288259D01*
X79072818Y-84468277D01*
X79072820Y-84468282D01*
X79100021Y-84515396D01*
X79116492Y-84583297D01*
X79093640Y-84649323D01*
X79038718Y-84692513D01*
X78969164Y-84699154D01*
X78923744Y-84680498D01*
X78877734Y-84649755D01*
X78853348Y-84633460D01*
X78850639Y-84631543D01*
X78810592Y-84601564D01*
X78741353Y-84549732D01*
X78737648Y-84546729D01*
X78640492Y-84461526D01*
X78637549Y-84458769D01*
X78541228Y-84362448D01*
X78538469Y-84359502D01*
X78505450Y-84321851D01*
X78453265Y-84262345D01*
X78450271Y-84258652D01*
X78368454Y-84149358D01*
X78366537Y-84146649D01*
X78295036Y-84039641D01*
X78292170Y-84034906D01*
X78225578Y-83912952D01*
X78168643Y-83797499D01*
X78166157Y-83791741D01*
X78153076Y-83756671D01*
X78116809Y-83659437D01*
X78076395Y-83540383D01*
X78074531Y-83533666D01*
X78043153Y-83389420D01*
X78031370Y-83330185D01*
X78020015Y-83273100D01*
X78018985Y-83265459D01*
X78005986Y-83083708D01*
X78002938Y-83037198D01*
X78000633Y-83002019D01*
X78000500Y-82997964D01*
X78000500Y-78316695D01*
X78020185Y-78249656D01*
X78072989Y-78203901D01*
X78142147Y-78193957D01*
X78205703Y-78222982D01*
G37*
%TD.AperFunction*%
%TA.AperFunction,Conductor*%
G36*
X83972991Y-78470185D02*
G01*
X84018746Y-78522989D01*
X84028690Y-78592147D01*
X83999665Y-78655703D01*
X83949285Y-78690682D01*
X83907671Y-78706202D01*
X83907664Y-78706206D01*
X83792455Y-78792452D01*
X83792452Y-78792455D01*
X83706206Y-78907664D01*
X83706203Y-78907669D01*
X83682038Y-78972460D01*
X83640166Y-79028393D01*
X83574702Y-79052810D01*
X83506429Y-79037958D01*
X83478175Y-79016807D01*
X83123549Y-78662181D01*
X83090064Y-78600858D01*
X83095048Y-78531166D01*
X83136920Y-78475233D01*
X83202384Y-78450816D01*
X83211230Y-78450500D01*
X83905952Y-78450500D01*
X83972991Y-78470185D01*
G37*
%TD.AperFunction*%
%TA.AperFunction,Conductor*%
G36*
X79291440Y-50020185D02*
G01*
X79337195Y-50072989D01*
X79347139Y-50142147D01*
X79318114Y-50205703D01*
X79297287Y-50224817D01*
X79294132Y-50227109D01*
X79294129Y-50227111D01*
X79167466Y-50367785D01*
X79072821Y-50531715D01*
X79072818Y-50531722D01*
X79029075Y-50666351D01*
X79014326Y-50711744D01*
X78994540Y-50900000D01*
X79014326Y-51088256D01*
X79014327Y-51088259D01*
X79072818Y-51268277D01*
X79072821Y-51268284D01*
X79110559Y-51333649D01*
X79132887Y-51372321D01*
X79149500Y-51434321D01*
X79149500Y-53936294D01*
X79148191Y-53954263D01*
X79144710Y-53978025D01*
X79149264Y-54030064D01*
X79149500Y-54035470D01*
X79149500Y-54043709D01*
X79153306Y-54076274D01*
X79160000Y-54152791D01*
X79161461Y-54159867D01*
X79161403Y-54159878D01*
X79163034Y-54167237D01*
X79163092Y-54167224D01*
X79164757Y-54174250D01*
X79191025Y-54246424D01*
X79215185Y-54319331D01*
X79218236Y-54325874D01*
X79218182Y-54325898D01*
X79221470Y-54332688D01*
X79221521Y-54332663D01*
X79224761Y-54339113D01*
X79224762Y-54339114D01*
X79224763Y-54339117D01*
X79266965Y-54403283D01*
X79307287Y-54468655D01*
X79311766Y-54474319D01*
X79311719Y-54474356D01*
X79316482Y-54480202D01*
X79316528Y-54480164D01*
X79321173Y-54485700D01*
X79377017Y-54538385D01*
X80269134Y-55430503D01*
X80302619Y-55491826D01*
X80297635Y-55561518D01*
X80269135Y-55605864D01*
X80250000Y-55624999D01*
X80250000Y-56539498D01*
X80142315Y-56490320D01*
X80035763Y-56475000D01*
X79964237Y-56475000D01*
X79857685Y-56490320D01*
X79750000Y-56539498D01*
X79750000Y-55625000D01*
X79102155Y-55625000D01*
X79042627Y-55631401D01*
X79042620Y-55631403D01*
X78907913Y-55681645D01*
X78907906Y-55681649D01*
X78792812Y-55767809D01*
X78792809Y-55767812D01*
X78706649Y-55882906D01*
X78706645Y-55882913D01*
X78656403Y-56017620D01*
X78656401Y-56017627D01*
X78650000Y-56077155D01*
X78650000Y-56725000D01*
X79566314Y-56725000D01*
X79540507Y-56765156D01*
X79500000Y-56903111D01*
X79500000Y-57046889D01*
X79540507Y-57184844D01*
X79566314Y-57225000D01*
X78650000Y-57225000D01*
X78650000Y-57872844D01*
X78656401Y-57932372D01*
X78656403Y-57932379D01*
X78706645Y-58067086D01*
X78706649Y-58067093D01*
X78792809Y-58182187D01*
X78792812Y-58182190D01*
X78907906Y-58268350D01*
X78907913Y-58268354D01*
X79039470Y-58317421D01*
X79095403Y-58359292D01*
X79119821Y-58424756D01*
X79104970Y-58493029D01*
X79083819Y-58521284D01*
X78961503Y-58643600D01*
X78825965Y-58837169D01*
X78825964Y-58837171D01*
X78726098Y-59051335D01*
X78726094Y-59051344D01*
X78664938Y-59279586D01*
X78664936Y-59279596D01*
X78644341Y-59514999D01*
X78644341Y-59515000D01*
X78664936Y-59750403D01*
X78664938Y-59750413D01*
X78726094Y-59978655D01*
X78726096Y-59978659D01*
X78726097Y-59978663D01*
X78755081Y-60040819D01*
X78825965Y-60192830D01*
X78825967Y-60192834D01*
X78891547Y-60286491D01*
X78952348Y-60373324D01*
X78961501Y-60386395D01*
X78961506Y-60386402D01*
X79128597Y-60553493D01*
X79128603Y-60553498D01*
X79314158Y-60683425D01*
X79357783Y-60738002D01*
X79364977Y-60807500D01*
X79333454Y-60869855D01*
X79314158Y-60886575D01*
X79128597Y-61016505D01*
X78961505Y-61183597D01*
X78825965Y-61377169D01*
X78825964Y-61377171D01*
X78726098Y-61591335D01*
X78726094Y-61591344D01*
X78664938Y-61819586D01*
X78664936Y-61819596D01*
X78644341Y-62054999D01*
X78644341Y-62055000D01*
X78664936Y-62290403D01*
X78664938Y-62290413D01*
X78726094Y-62518655D01*
X78726096Y-62518659D01*
X78726097Y-62518663D01*
X78797256Y-62671263D01*
X78825965Y-62732830D01*
X78825967Y-62732834D01*
X78930935Y-62882742D01*
X78961505Y-62926401D01*
X79128599Y-63093495D01*
X79210790Y-63151046D01*
X79322165Y-63229032D01*
X79322167Y-63229033D01*
X79322170Y-63229035D01*
X79536337Y-63328903D01*
X79764592Y-63390063D01*
X79952918Y-63406539D01*
X79999999Y-63410659D01*
X80000000Y-63410659D01*
X80000001Y-63410659D01*
X80039234Y-63407226D01*
X80235408Y-63390063D01*
X80463663Y-63328903D01*
X80677830Y-63229035D01*
X80854378Y-63105414D01*
X80920582Y-63083088D01*
X80988350Y-63100098D01*
X81036163Y-63151046D01*
X81049500Y-63206990D01*
X81049500Y-67136294D01*
X81048191Y-67154263D01*
X81044710Y-67178025D01*
X81049264Y-67230064D01*
X81049500Y-67235470D01*
X81049500Y-67243709D01*
X81053306Y-67276274D01*
X81060000Y-67352791D01*
X81061461Y-67359867D01*
X81061403Y-67359878D01*
X81063034Y-67367237D01*
X81063092Y-67367224D01*
X81064757Y-67374250D01*
X81091025Y-67446424D01*
X81115185Y-67519331D01*
X81118236Y-67525874D01*
X81118182Y-67525898D01*
X81121470Y-67532688D01*
X81121521Y-67532663D01*
X81124761Y-67539113D01*
X81124762Y-67539114D01*
X81124763Y-67539117D01*
X81157000Y-67588132D01*
X81166965Y-67603283D01*
X81207287Y-67668655D01*
X81211766Y-67674319D01*
X81211719Y-67674356D01*
X81216482Y-67680202D01*
X81216528Y-67680164D01*
X81221173Y-67685700D01*
X81270952Y-67732663D01*
X81277018Y-67738386D01*
X81737814Y-68199182D01*
X82187228Y-68648595D01*
X82217478Y-68697957D01*
X82246469Y-68787181D01*
X82248464Y-68857023D01*
X82212384Y-68916856D01*
X82149683Y-68947684D01*
X82128538Y-68949500D01*
X81339337Y-68949500D01*
X81272298Y-68929815D01*
X81266452Y-68925818D01*
X81252734Y-68915851D01*
X81252729Y-68915848D01*
X81079807Y-68838857D01*
X81079802Y-68838855D01*
X80934001Y-68807865D01*
X80894646Y-68799500D01*
X80705354Y-68799500D01*
X80672897Y-68806398D01*
X80520197Y-68838855D01*
X80520192Y-68838857D01*
X80347270Y-68915848D01*
X80347265Y-68915851D01*
X80194129Y-69027111D01*
X80067466Y-69167785D01*
X79972821Y-69331715D01*
X79972818Y-69331722D01*
X79914327Y-69511740D01*
X79914326Y-69511744D01*
X79894540Y-69700000D01*
X79914326Y-69888256D01*
X79914327Y-69888259D01*
X79972818Y-70068277D01*
X79972821Y-70068284D01*
X80067467Y-70232216D01*
X80117945Y-70288277D01*
X80194129Y-70372888D01*
X80347265Y-70484148D01*
X80347270Y-70484151D01*
X80520192Y-70561142D01*
X80520197Y-70561144D01*
X80705354Y-70600500D01*
X80705355Y-70600500D01*
X80894644Y-70600500D01*
X80894646Y-70600500D01*
X81079803Y-70561144D01*
X81252730Y-70484151D01*
X81254776Y-70482664D01*
X81266452Y-70474182D01*
X81332258Y-70450702D01*
X81339337Y-70450500D01*
X83336295Y-70450500D01*
X83354265Y-70451809D01*
X83378023Y-70455289D01*
X83430068Y-70450735D01*
X83435470Y-70450500D01*
X83443704Y-70450500D01*
X83443709Y-70450500D01*
X83455327Y-70449141D01*
X83476276Y-70446693D01*
X83489028Y-70445577D01*
X83552797Y-70439999D01*
X83552805Y-70439996D01*
X83559866Y-70438539D01*
X83559878Y-70438598D01*
X83567243Y-70436965D01*
X83567229Y-70436906D01*
X83574246Y-70435241D01*
X83574255Y-70435241D01*
X83646423Y-70408974D01*
X83719334Y-70384814D01*
X83719343Y-70384807D01*
X83725882Y-70381760D01*
X83725908Y-70381816D01*
X83732690Y-70378532D01*
X83732663Y-70378478D01*
X83739106Y-70375240D01*
X83739117Y-70375237D01*
X83803283Y-70333034D01*
X83868656Y-70292712D01*
X83868662Y-70292705D01*
X83874325Y-70288229D01*
X83874362Y-70288277D01*
X83880204Y-70283518D01*
X83880164Y-70283471D01*
X83885686Y-70278836D01*
X83885696Y-70278830D01*
X83907399Y-70255825D01*
X83938387Y-70222981D01*
X84393399Y-69767967D01*
X84485641Y-69675724D01*
X84499260Y-69663954D01*
X84518530Y-69649610D01*
X84552123Y-69609574D01*
X84555757Y-69605608D01*
X84561590Y-69599777D01*
X84581927Y-69574055D01*
X84631302Y-69515214D01*
X84631304Y-69515209D01*
X84635272Y-69509179D01*
X84635323Y-69509212D01*
X84639369Y-69502860D01*
X84639317Y-69502828D01*
X84643109Y-69496679D01*
X84643111Y-69496677D01*
X84675569Y-69427069D01*
X84710040Y-69358433D01*
X84710043Y-69358417D01*
X84712510Y-69351644D01*
X84712568Y-69351665D01*
X84715043Y-69344546D01*
X84714985Y-69344527D01*
X84717256Y-69337672D01*
X84732784Y-69262467D01*
X84750500Y-69187720D01*
X84751339Y-69180548D01*
X84751397Y-69180554D01*
X84752164Y-69173056D01*
X84752104Y-69173051D01*
X84752733Y-69165860D01*
X84750500Y-69089103D01*
X84750500Y-67720711D01*
X84770185Y-67653672D01*
X84822989Y-67607917D01*
X84892147Y-67597973D01*
X84900263Y-67599418D01*
X84905354Y-67600500D01*
X84905357Y-67600500D01*
X85094644Y-67600500D01*
X85094646Y-67600500D01*
X85279803Y-67561144D01*
X85452730Y-67484151D01*
X85605871Y-67372888D01*
X85732533Y-67232216D01*
X85732534Y-67232214D01*
X85733350Y-67231308D01*
X85792837Y-67194659D01*
X85862694Y-67195990D01*
X85920742Y-67234876D01*
X85948552Y-67298973D01*
X85949500Y-67314280D01*
X85949500Y-68236294D01*
X85948191Y-68254263D01*
X85944710Y-68278025D01*
X85949264Y-68330064D01*
X85949500Y-68335470D01*
X85949500Y-68343709D01*
X85953306Y-68376274D01*
X85960000Y-68452791D01*
X85961461Y-68459867D01*
X85961403Y-68459878D01*
X85963034Y-68467237D01*
X85963092Y-68467224D01*
X85964757Y-68474250D01*
X85991025Y-68546424D01*
X86015185Y-68619331D01*
X86018236Y-68625874D01*
X86018182Y-68625898D01*
X86021470Y-68632688D01*
X86021521Y-68632663D01*
X86024761Y-68639113D01*
X86024762Y-68639114D01*
X86024763Y-68639117D01*
X86057082Y-68688256D01*
X86066965Y-68703283D01*
X86107287Y-68768655D01*
X86111766Y-68774319D01*
X86111719Y-68774356D01*
X86116482Y-68780202D01*
X86116528Y-68780164D01*
X86121173Y-68785700D01*
X86177018Y-68838386D01*
X90673181Y-73334548D01*
X90706666Y-73395871D01*
X90709500Y-73422229D01*
X90709500Y-75112298D01*
X90689815Y-75179337D01*
X90656625Y-75213872D01*
X90588599Y-75261505D01*
X90466284Y-75383819D01*
X90404960Y-75417303D01*
X90335269Y-75412318D01*
X90279335Y-75370447D01*
X90262421Y-75339470D01*
X90213354Y-75207913D01*
X90213350Y-75207906D01*
X90127190Y-75092812D01*
X90127187Y-75092809D01*
X90012093Y-75006649D01*
X90012086Y-75006645D01*
X89877379Y-74956403D01*
X89877372Y-74956401D01*
X89817844Y-74950000D01*
X89170000Y-74950000D01*
X89170000Y-75864498D01*
X89062315Y-75815320D01*
X88955763Y-75800000D01*
X88884237Y-75800000D01*
X88777685Y-75815320D01*
X88670000Y-75864498D01*
X88670000Y-74950000D01*
X88022155Y-74950000D01*
X87962627Y-74956401D01*
X87962620Y-74956403D01*
X87827913Y-75006645D01*
X87827906Y-75006649D01*
X87712812Y-75092809D01*
X87712809Y-75092812D01*
X87626649Y-75207906D01*
X87626645Y-75207913D01*
X87576403Y-75342620D01*
X87576401Y-75342627D01*
X87570000Y-75402155D01*
X87570000Y-76050000D01*
X88486314Y-76050000D01*
X88460507Y-76090156D01*
X88420000Y-76228111D01*
X88420000Y-76371889D01*
X88460507Y-76509844D01*
X88486314Y-76550000D01*
X87562730Y-76550000D01*
X87495691Y-76530315D01*
X87475049Y-76513681D01*
X87075729Y-76114361D01*
X87063949Y-76100730D01*
X87056482Y-76090701D01*
X87049612Y-76081472D01*
X87049610Y-76081470D01*
X87009587Y-76047886D01*
X87005612Y-76044244D01*
X87002690Y-76041322D01*
X86999780Y-76038411D01*
X86974040Y-76018059D01*
X86933630Y-75984151D01*
X86915214Y-75968698D01*
X86915213Y-75968697D01*
X86915209Y-75968694D01*
X86909180Y-75964729D01*
X86909212Y-75964680D01*
X86902853Y-75960628D01*
X86902822Y-75960679D01*
X86896680Y-75956891D01*
X86896678Y-75956890D01*
X86896677Y-75956889D01*
X86857474Y-75938608D01*
X86827058Y-75924424D01*
X86792894Y-75907267D01*
X86758433Y-75889960D01*
X86758431Y-75889959D01*
X86758430Y-75889959D01*
X86751645Y-75887489D01*
X86751665Y-75887433D01*
X86744549Y-75884959D01*
X86744531Y-75885015D01*
X86737671Y-75882742D01*
X86709841Y-75876996D01*
X86662434Y-75867207D01*
X86613472Y-75855603D01*
X86587719Y-75849499D01*
X86580547Y-75848661D01*
X86580553Y-75848601D01*
X86573055Y-75847835D01*
X86573050Y-75847895D01*
X86565860Y-75847265D01*
X86489083Y-75849500D01*
X85327463Y-75849500D01*
X85260424Y-75829815D01*
X85214669Y-75777011D01*
X85204142Y-75712539D01*
X85205460Y-75700000D01*
X85185674Y-75511744D01*
X85127179Y-75331716D01*
X85032533Y-75167784D01*
X84905871Y-75027112D01*
X84905870Y-75027111D01*
X84752734Y-74915851D01*
X84752729Y-74915848D01*
X84579807Y-74838857D01*
X84579802Y-74838855D01*
X84434001Y-74807865D01*
X84394646Y-74799500D01*
X84205354Y-74799500D01*
X84172897Y-74806398D01*
X84020197Y-74838855D01*
X84020192Y-74838857D01*
X83847270Y-74915848D01*
X83847265Y-74915851D01*
X83833548Y-74925818D01*
X83767742Y-74949298D01*
X83760663Y-74949500D01*
X80873755Y-74949500D01*
X80855785Y-74948191D01*
X80832022Y-74944710D01*
X80786940Y-74948655D01*
X80779983Y-74949264D01*
X80774582Y-74949500D01*
X80766337Y-74949500D01*
X80740272Y-74952546D01*
X80733755Y-74953308D01*
X80728453Y-74953771D01*
X80657251Y-74960001D01*
X80650184Y-74961461D01*
X80650172Y-74961404D01*
X80642803Y-74963038D01*
X80642817Y-74963095D01*
X80635789Y-74964760D01*
X80563618Y-74991028D01*
X80490715Y-75015186D01*
X80490713Y-75015186D01*
X80490710Y-75015188D01*
X80484173Y-75018236D01*
X80484148Y-75018184D01*
X80477360Y-75021470D01*
X80477386Y-75021521D01*
X80470935Y-75024761D01*
X80406773Y-75066961D01*
X80341396Y-75107285D01*
X80335732Y-75111765D01*
X80335696Y-75111719D01*
X80329848Y-75116484D01*
X80329885Y-75116528D01*
X80324360Y-75121164D01*
X80271664Y-75177017D01*
X78717752Y-76730928D01*
X78680508Y-76756526D01*
X78547267Y-76815850D01*
X78394129Y-76927111D01*
X78267466Y-77067785D01*
X78231887Y-77129410D01*
X78181320Y-77177626D01*
X78112713Y-77190849D01*
X78047848Y-77164881D01*
X78007320Y-77107967D01*
X78000500Y-77067410D01*
X78000500Y-75003480D01*
X78000889Y-74996546D01*
X78003470Y-74973645D01*
X78011078Y-74915851D01*
X78013933Y-74894163D01*
X78019830Y-74869399D01*
X78030518Y-74838856D01*
X78031778Y-74835253D01*
X78033001Y-74832047D01*
X78055474Y-74777794D01*
X78065021Y-74759313D01*
X78086922Y-74724459D01*
X78090197Y-74719752D01*
X78127003Y-74671786D01*
X78132323Y-74665718D01*
X78165718Y-74632323D01*
X78171786Y-74627003D01*
X78219752Y-74590197D01*
X78224459Y-74586922D01*
X78259313Y-74565021D01*
X78277794Y-74555474D01*
X78332047Y-74533001D01*
X78335253Y-74531778D01*
X78369402Y-74519829D01*
X78394163Y-74513933D01*
X78441020Y-74507764D01*
X78473646Y-74503470D01*
X78482632Y-74502456D01*
X78496545Y-74500889D01*
X78503481Y-74500500D01*
X78556391Y-74500500D01*
X78556393Y-74500500D01*
X78556395Y-74500499D01*
X78556399Y-74500499D01*
X78624362Y-74484986D01*
X78666351Y-74475403D01*
X78767967Y-74426467D01*
X78767967Y-74426466D01*
X78767969Y-74426466D01*
X78812794Y-74390718D01*
X78856146Y-74356146D01*
X78908978Y-74289896D01*
X78926466Y-74267969D01*
X78926467Y-74267966D01*
X78939263Y-74241397D01*
X78975403Y-74166351D01*
X78996423Y-74074255D01*
X79000499Y-74056399D01*
X79000500Y-74056391D01*
X79000500Y-70443608D01*
X79000499Y-70443600D01*
X78975403Y-70333649D01*
X78926467Y-70232033D01*
X78926466Y-70232030D01*
X78885538Y-70180710D01*
X78856146Y-70143854D01*
X78826753Y-70120413D01*
X78767969Y-70073533D01*
X78767966Y-70073532D01*
X78666350Y-70024596D01*
X78556399Y-69999500D01*
X78556393Y-69999500D01*
X78503486Y-69999500D01*
X78496539Y-69999110D01*
X78493592Y-69998777D01*
X78473647Y-69996530D01*
X78394169Y-69986066D01*
X78369401Y-69980169D01*
X78335263Y-69968223D01*
X78332014Y-69966983D01*
X78290803Y-69949914D01*
X78277813Y-69944533D01*
X78259296Y-69934967D01*
X78224490Y-69913097D01*
X78219731Y-69909786D01*
X78171798Y-69873005D01*
X78165702Y-69867660D01*
X78132337Y-69834295D01*
X78126993Y-69828200D01*
X78090212Y-69780267D01*
X78086909Y-69775520D01*
X78065027Y-69740695D01*
X78055469Y-69722195D01*
X78033011Y-69667976D01*
X78031775Y-69664736D01*
X78019830Y-69630599D01*
X78013932Y-69605828D01*
X78013901Y-69605594D01*
X78003470Y-69526354D01*
X78001534Y-69509179D01*
X78000889Y-69503455D01*
X78000500Y-69496518D01*
X78000500Y-50503480D01*
X78000889Y-50496546D01*
X78003470Y-50473645D01*
X78006944Y-50447248D01*
X78013933Y-50394163D01*
X78019830Y-50369399D01*
X78020396Y-50367784D01*
X78031778Y-50335253D01*
X78033001Y-50332047D01*
X78055474Y-50277794D01*
X78065021Y-50259313D01*
X78086922Y-50224459D01*
X78090197Y-50219752D01*
X78127003Y-50171786D01*
X78132323Y-50165718D01*
X78165718Y-50132323D01*
X78171786Y-50127003D01*
X78219752Y-50090197D01*
X78224459Y-50086922D01*
X78259313Y-50065021D01*
X78277794Y-50055474D01*
X78332047Y-50033001D01*
X78335253Y-50031778D01*
X78369402Y-50019829D01*
X78394163Y-50013933D01*
X78441020Y-50007764D01*
X78473646Y-50003470D01*
X78482632Y-50002456D01*
X78496545Y-50000889D01*
X78503481Y-50000500D01*
X79224401Y-50000500D01*
X79291440Y-50020185D01*
G37*
%TD.AperFunction*%
%TA.AperFunction,Conductor*%
G36*
X84823228Y-46020185D02*
G01*
X84868983Y-46072989D01*
X84878927Y-46142147D01*
X84849902Y-46205703D01*
X84806626Y-46237778D01*
X84792950Y-46243867D01*
X84777267Y-46250850D01*
X84777265Y-46250851D01*
X84624129Y-46362111D01*
X84497466Y-46502785D01*
X84402821Y-46666715D01*
X84402818Y-46666722D01*
X84360974Y-46795506D01*
X84344326Y-46846744D01*
X84324540Y-47035000D01*
X84344326Y-47223256D01*
X84344327Y-47223259D01*
X84402818Y-47403277D01*
X84402821Y-47403284D01*
X84497467Y-47567216D01*
X84624129Y-47707888D01*
X84777265Y-47819148D01*
X84777270Y-47819151D01*
X84950192Y-47896142D01*
X84950197Y-47896144D01*
X85135354Y-47935500D01*
X85135355Y-47935500D01*
X85324644Y-47935500D01*
X85324646Y-47935500D01*
X85509803Y-47896144D01*
X85682730Y-47819151D01*
X85835871Y-47707888D01*
X85962533Y-47567216D01*
X86057179Y-47403284D01*
X86058246Y-47400000D01*
X89944540Y-47400000D01*
X89964326Y-47588256D01*
X89964327Y-47588259D01*
X90022818Y-47768277D01*
X90022821Y-47768284D01*
X90117467Y-47932216D01*
X90213487Y-48038857D01*
X90244129Y-48072888D01*
X90397265Y-48184148D01*
X90397270Y-48184151D01*
X90570192Y-48261142D01*
X90570197Y-48261144D01*
X90755354Y-48300500D01*
X90755355Y-48300500D01*
X90944644Y-48300500D01*
X90944646Y-48300500D01*
X91129803Y-48261144D01*
X91302730Y-48184151D01*
X91455871Y-48072888D01*
X91582533Y-47932216D01*
X91677179Y-47768284D01*
X91735674Y-47588256D01*
X91755460Y-47400000D01*
X92244540Y-47400000D01*
X92264326Y-47588256D01*
X92264327Y-47588259D01*
X92322818Y-47768277D01*
X92322821Y-47768284D01*
X92417467Y-47932216D01*
X92513487Y-48038857D01*
X92544129Y-48072888D01*
X92697265Y-48184148D01*
X92697270Y-48184151D01*
X92870192Y-48261142D01*
X92870197Y-48261144D01*
X93055354Y-48300500D01*
X93055355Y-48300500D01*
X93244644Y-48300500D01*
X93244646Y-48300500D01*
X93429803Y-48261144D01*
X93602730Y-48184151D01*
X93755871Y-48072888D01*
X93882533Y-47932216D01*
X93977179Y-47768284D01*
X94035674Y-47588256D01*
X94055460Y-47400000D01*
X94035674Y-47211744D01*
X93977179Y-47031716D01*
X93882533Y-46867784D01*
X93755871Y-46727112D01*
X93755870Y-46727111D01*
X93602734Y-46615851D01*
X93602729Y-46615848D01*
X93429807Y-46538857D01*
X93429802Y-46538855D01*
X93284001Y-46507865D01*
X93244646Y-46499500D01*
X93055354Y-46499500D01*
X93022897Y-46506398D01*
X92870197Y-46538855D01*
X92870192Y-46538857D01*
X92697270Y-46615848D01*
X92697265Y-46615851D01*
X92544129Y-46727111D01*
X92417466Y-46867785D01*
X92322821Y-47031715D01*
X92322818Y-47031722D01*
X92264327Y-47211740D01*
X92264326Y-47211744D01*
X92244540Y-47400000D01*
X91755460Y-47400000D01*
X91735674Y-47211744D01*
X91677179Y-47031716D01*
X91582533Y-46867784D01*
X91455871Y-46727112D01*
X91455870Y-46727111D01*
X91302734Y-46615851D01*
X91302729Y-46615848D01*
X91129807Y-46538857D01*
X91129802Y-46538855D01*
X90984001Y-46507865D01*
X90944646Y-46499500D01*
X90755354Y-46499500D01*
X90722897Y-46506398D01*
X90570197Y-46538855D01*
X90570192Y-46538857D01*
X90397270Y-46615848D01*
X90397265Y-46615851D01*
X90244129Y-46727111D01*
X90117466Y-46867785D01*
X90022821Y-47031715D01*
X90022818Y-47031722D01*
X89964327Y-47211740D01*
X89964326Y-47211744D01*
X89944540Y-47400000D01*
X86058246Y-47400000D01*
X86115674Y-47223256D01*
X86135460Y-47035000D01*
X86115674Y-46846744D01*
X86057179Y-46666716D01*
X85962533Y-46502784D01*
X85835871Y-46362112D01*
X85835870Y-46362111D01*
X85682734Y-46250851D01*
X85682732Y-46250850D01*
X85682730Y-46250849D01*
X85653373Y-46237778D01*
X85600138Y-46192528D01*
X85579817Y-46125679D01*
X85598863Y-46058456D01*
X85651229Y-46012201D01*
X85703811Y-46000500D01*
X102496518Y-46000500D01*
X102503455Y-46000889D01*
X102516485Y-46002357D01*
X102526354Y-46003470D01*
X102568982Y-46009081D01*
X102605831Y-46013932D01*
X102630599Y-46019830D01*
X102664736Y-46031775D01*
X102667976Y-46033011D01*
X102722195Y-46055469D01*
X102740695Y-46065027D01*
X102775520Y-46086909D01*
X102780267Y-46090212D01*
X102828200Y-46126993D01*
X102834295Y-46132337D01*
X102867660Y-46165702D01*
X102873005Y-46171798D01*
X102909786Y-46219731D01*
X102913097Y-46224490D01*
X102934967Y-46259296D01*
X102944536Y-46277818D01*
X102966983Y-46332014D01*
X102968223Y-46335263D01*
X102980169Y-46369401D01*
X102986066Y-46394169D01*
X102996530Y-46473647D01*
X102999110Y-46496538D01*
X102999500Y-46503486D01*
X102999500Y-50556398D01*
X103020387Y-50647908D01*
X103016114Y-50717647D01*
X102974815Y-50774004D01*
X102911762Y-50798256D01*
X102911822Y-50798820D01*
X102909723Y-50799040D01*
X102909603Y-50799087D01*
X102909079Y-50799108D01*
X102905355Y-50799499D01*
X102720197Y-50838855D01*
X102720192Y-50838857D01*
X102547270Y-50915848D01*
X102547265Y-50915851D01*
X102394129Y-51027111D01*
X102267466Y-51167785D01*
X102172821Y-51331715D01*
X102172819Y-51331719D01*
X102117479Y-51502039D01*
X102087229Y-51551401D01*
X101714358Y-51924272D01*
X101700729Y-51936051D01*
X101681468Y-51950390D01*
X101647898Y-51990397D01*
X101644253Y-51994376D01*
X101638409Y-52000222D01*
X101618059Y-52025959D01*
X101568695Y-52084789D01*
X101564729Y-52090819D01*
X101564682Y-52090788D01*
X101560630Y-52097147D01*
X101560679Y-52097177D01*
X101556889Y-52103321D01*
X101524424Y-52172941D01*
X101489960Y-52241566D01*
X101487488Y-52248357D01*
X101487432Y-52248336D01*
X101484960Y-52255450D01*
X101485015Y-52255469D01*
X101482742Y-52262327D01*
X101474975Y-52299946D01*
X101467207Y-52337565D01*
X101458836Y-52372888D01*
X101449498Y-52412286D01*
X101448661Y-52419454D01*
X101448601Y-52419447D01*
X101447835Y-52426945D01*
X101447895Y-52426951D01*
X101447265Y-52434140D01*
X101449500Y-52510916D01*
X101449500Y-53903314D01*
X101429815Y-53970353D01*
X101377011Y-54016108D01*
X101307853Y-54026052D01*
X101286496Y-54021020D01*
X101281021Y-54019205D01*
X101177798Y-53985001D01*
X101177796Y-53985000D01*
X101075017Y-53974500D01*
X101075010Y-53974500D01*
X98924990Y-53974500D01*
X98924982Y-53974500D01*
X98822203Y-53985000D01*
X98822202Y-53985001D01*
X98739669Y-54012349D01*
X98655667Y-54040185D01*
X98655662Y-54040187D01*
X98506342Y-54132289D01*
X98382289Y-54256342D01*
X98290187Y-54405662D01*
X98290186Y-54405665D01*
X98235001Y-54572202D01*
X98235001Y-54572203D01*
X98235000Y-54572203D01*
X98224500Y-54674982D01*
X98224500Y-56825017D01*
X98235000Y-56927796D01*
X98290185Y-57094332D01*
X98290187Y-57094337D01*
X98313243Y-57131716D01*
X98382288Y-57243656D01*
X98506344Y-57367712D01*
X98655665Y-57459814D01*
X98822202Y-57514999D01*
X98924990Y-57525500D01*
X98924995Y-57525500D01*
X101013769Y-57525500D01*
X101080808Y-57545185D01*
X101126563Y-57597989D01*
X101136507Y-57667147D01*
X101107482Y-57730703D01*
X101101450Y-57737181D01*
X98964358Y-59874272D01*
X98950729Y-59886051D01*
X98931468Y-59900390D01*
X98897898Y-59940397D01*
X98894253Y-59944376D01*
X98888409Y-59950222D01*
X98868059Y-59975959D01*
X98818695Y-60034789D01*
X98814729Y-60040819D01*
X98814682Y-60040788D01*
X98810630Y-60047147D01*
X98810679Y-60047177D01*
X98806889Y-60053321D01*
X98774424Y-60122941D01*
X98739960Y-60191566D01*
X98737488Y-60198357D01*
X98737432Y-60198336D01*
X98734960Y-60205450D01*
X98735015Y-60205469D01*
X98732742Y-60212327D01*
X98731075Y-60220403D01*
X98717207Y-60287565D01*
X98704741Y-60340165D01*
X98699498Y-60362286D01*
X98698661Y-60369454D01*
X98698601Y-60369447D01*
X98697835Y-60376945D01*
X98697895Y-60376951D01*
X98697265Y-60384140D01*
X98699500Y-60460916D01*
X98699500Y-64924428D01*
X98679815Y-64991467D01*
X98627011Y-65037222D01*
X98557853Y-65047166D01*
X98502615Y-65024746D01*
X98352734Y-64915851D01*
X98352729Y-64915848D01*
X98179807Y-64838857D01*
X98179802Y-64838855D01*
X98034001Y-64807865D01*
X97994646Y-64799500D01*
X97805354Y-64799500D01*
X97772897Y-64806398D01*
X97620197Y-64838855D01*
X97620192Y-64838857D01*
X97447270Y-64915848D01*
X97447265Y-64915851D01*
X97294129Y-65027111D01*
X97167466Y-65167785D01*
X97072821Y-65331715D01*
X97072818Y-65331722D01*
X97014327Y-65511740D01*
X97014326Y-65511744D01*
X96994540Y-65700000D01*
X97014326Y-65888256D01*
X97014327Y-65888259D01*
X97072818Y-66068277D01*
X97072821Y-66068284D01*
X97167467Y-66232216D01*
X97275117Y-66351773D01*
X97294129Y-66372888D01*
X97447265Y-66484148D01*
X97447270Y-66484151D01*
X97620192Y-66561142D01*
X97620197Y-66561144D01*
X97805354Y-66600500D01*
X97805355Y-66600500D01*
X97994644Y-66600500D01*
X97994646Y-66600500D01*
X98179803Y-66561144D01*
X98352730Y-66484151D01*
X98502617Y-66375251D01*
X98568421Y-66351773D01*
X98636475Y-66367598D01*
X98685170Y-66417704D01*
X98699500Y-66475571D01*
X98699500Y-67968060D01*
X98679815Y-68035099D01*
X98627011Y-68080854D01*
X98557853Y-68090798D01*
X98494297Y-68061773D01*
X98487819Y-68055741D01*
X94878736Y-64446658D01*
X94848486Y-64397294D01*
X94827179Y-64331716D01*
X94827177Y-64331712D01*
X94732534Y-64167785D01*
X94605870Y-64027111D01*
X94452734Y-63915851D01*
X94452729Y-63915848D01*
X94279807Y-63838857D01*
X94279802Y-63838855D01*
X94134001Y-63807865D01*
X94094646Y-63799500D01*
X93905354Y-63799500D01*
X93905349Y-63799500D01*
X93900276Y-63800578D01*
X93830609Y-63795259D01*
X93774877Y-63753120D01*
X93750775Y-63687539D01*
X93750500Y-63679287D01*
X93750500Y-63163705D01*
X93751809Y-63145735D01*
X93752129Y-63143547D01*
X93755289Y-63121977D01*
X93750735Y-63069931D01*
X93750500Y-63064528D01*
X93750500Y-63056297D01*
X93750500Y-63056291D01*
X93746693Y-63023724D01*
X93746197Y-63018059D01*
X93739999Y-62947201D01*
X93738539Y-62940129D01*
X93738597Y-62940116D01*
X93736965Y-62932757D01*
X93736906Y-62932772D01*
X93735242Y-62925753D01*
X93735241Y-62925745D01*
X93708974Y-62853576D01*
X93684814Y-62780666D01*
X93684809Y-62780659D01*
X93681760Y-62774118D01*
X93681815Y-62774091D01*
X93678533Y-62767313D01*
X93678480Y-62767340D01*
X93675235Y-62760880D01*
X93633028Y-62696708D01*
X93614914Y-62667340D01*
X93592712Y-62631345D01*
X93592711Y-62631344D01*
X93592710Y-62631342D01*
X93588234Y-62625682D01*
X93588281Y-62625644D01*
X93583519Y-62619799D01*
X93583474Y-62619838D01*
X93578834Y-62614308D01*
X93522964Y-62561596D01*
X88186819Y-57225451D01*
X88153334Y-57164128D01*
X88150500Y-57137770D01*
X88150500Y-56500000D01*
X93194540Y-56500000D01*
X93214326Y-56688256D01*
X93214327Y-56688259D01*
X93272818Y-56868277D01*
X93272821Y-56868284D01*
X93367467Y-57032216D01*
X93462509Y-57137770D01*
X93494129Y-57172888D01*
X93647265Y-57284148D01*
X93647270Y-57284151D01*
X93820192Y-57361142D01*
X93820197Y-57361144D01*
X94005354Y-57400500D01*
X94005355Y-57400500D01*
X94194644Y-57400500D01*
X94194646Y-57400500D01*
X94379803Y-57361144D01*
X94552730Y-57284151D01*
X94705871Y-57172888D01*
X94832533Y-57032216D01*
X94927179Y-56868284D01*
X94985674Y-56688256D01*
X95005460Y-56500000D01*
X94985674Y-56311744D01*
X94927179Y-56131716D01*
X94832533Y-55967784D01*
X94705871Y-55827112D01*
X94705870Y-55827111D01*
X94552734Y-55715851D01*
X94552729Y-55715848D01*
X94379807Y-55638857D01*
X94379802Y-55638855D01*
X94234001Y-55607865D01*
X94194646Y-55599500D01*
X94005354Y-55599500D01*
X93972897Y-55606398D01*
X93820197Y-55638855D01*
X93820192Y-55638857D01*
X93647270Y-55715848D01*
X93647265Y-55715851D01*
X93494129Y-55827111D01*
X93367466Y-55967785D01*
X93272821Y-56131715D01*
X93272818Y-56131722D01*
X93240166Y-56232216D01*
X93214326Y-56311744D01*
X93194540Y-56500000D01*
X88150500Y-56500000D01*
X88150500Y-51800001D01*
X88599500Y-51800001D01*
X88599501Y-51800018D01*
X88610000Y-51902796D01*
X88610001Y-51902799D01*
X88665185Y-52069331D01*
X88665187Y-52069336D01*
X88686149Y-52103321D01*
X88757288Y-52218656D01*
X88881344Y-52342712D01*
X89030666Y-52434814D01*
X89197203Y-52489999D01*
X89299991Y-52500500D01*
X90500008Y-52500499D01*
X90602797Y-52489999D01*
X90769334Y-52434814D01*
X90918656Y-52342712D01*
X91042712Y-52218656D01*
X91054218Y-52200001D01*
X95199500Y-52200001D01*
X95199501Y-52200018D01*
X95210000Y-52302796D01*
X95210001Y-52302799D01*
X95265185Y-52469331D01*
X95265187Y-52469336D01*
X95277932Y-52489999D01*
X95357288Y-52618656D01*
X95481344Y-52742712D01*
X95630666Y-52834814D01*
X95797203Y-52889999D01*
X95899991Y-52900500D01*
X97100008Y-52900499D01*
X97202797Y-52889999D01*
X97369334Y-52834814D01*
X97518656Y-52742712D01*
X97642712Y-52618656D01*
X97734814Y-52469334D01*
X97789999Y-52302797D01*
X97800500Y-52200009D01*
X97800499Y-50999992D01*
X97798221Y-50977696D01*
X97789999Y-50897203D01*
X97789998Y-50897200D01*
X97770665Y-50838857D01*
X97734814Y-50730666D01*
X97642712Y-50581344D01*
X97518656Y-50457288D01*
X97425888Y-50400069D01*
X97369336Y-50365187D01*
X97369331Y-50365185D01*
X97359113Y-50361799D01*
X97202797Y-50310001D01*
X97202795Y-50310000D01*
X97100010Y-50299500D01*
X95899998Y-50299500D01*
X95899981Y-50299501D01*
X95797203Y-50310000D01*
X95797200Y-50310001D01*
X95630668Y-50365185D01*
X95630663Y-50365187D01*
X95481342Y-50457289D01*
X95357289Y-50581342D01*
X95265187Y-50730663D01*
X95265185Y-50730668D01*
X95242377Y-50799499D01*
X95210001Y-50897203D01*
X95210001Y-50897204D01*
X95210000Y-50897204D01*
X95199500Y-50999983D01*
X95199500Y-52200001D01*
X91054218Y-52200001D01*
X91134814Y-52069334D01*
X91189999Y-51902797D01*
X91200500Y-51800009D01*
X91200499Y-50599992D01*
X91189999Y-50497203D01*
X91134814Y-50330666D01*
X91042712Y-50181344D01*
X90918656Y-50057288D01*
X90806855Y-49988329D01*
X90769336Y-49965187D01*
X90769331Y-49965185D01*
X90761672Y-49962647D01*
X90602797Y-49910001D01*
X90602795Y-49910000D01*
X90500010Y-49899500D01*
X89299998Y-49899500D01*
X89299981Y-49899501D01*
X89197203Y-49910000D01*
X89197200Y-49910001D01*
X89030668Y-49965185D01*
X89030663Y-49965187D01*
X88881342Y-50057289D01*
X88757289Y-50181342D01*
X88665187Y-50330663D01*
X88665185Y-50330668D01*
X88645905Y-50388851D01*
X88610001Y-50497203D01*
X88610001Y-50497204D01*
X88610000Y-50497204D01*
X88599500Y-50599983D01*
X88599500Y-51800001D01*
X88150500Y-51800001D01*
X88150500Y-50162228D01*
X88170185Y-50095189D01*
X88186815Y-50074551D01*
X88452770Y-49808595D01*
X88514091Y-49775112D01*
X88514427Y-49775039D01*
X88579803Y-49761144D01*
X88752730Y-49684151D01*
X88905871Y-49572888D01*
X88926480Y-49550000D01*
X98325000Y-49550000D01*
X99366403Y-49550000D01*
X99339650Y-49626455D01*
X99320096Y-49800000D01*
X99339650Y-49973545D01*
X99366403Y-50050000D01*
X98325001Y-50050000D01*
X98325001Y-50874986D01*
X98335494Y-50977696D01*
X98335494Y-50977698D01*
X98390640Y-51144119D01*
X98390645Y-51144130D01*
X98482680Y-51293340D01*
X98482683Y-51293344D01*
X98606655Y-51417316D01*
X98606659Y-51417319D01*
X98755869Y-51509354D01*
X98755880Y-51509359D01*
X98922302Y-51564505D01*
X99025019Y-51574999D01*
X99849999Y-51574999D01*
X99850000Y-51574998D01*
X99850000Y-50533597D01*
X99926455Y-50560350D01*
X100056476Y-50575000D01*
X100143524Y-50575000D01*
X100273545Y-50560350D01*
X100350000Y-50533597D01*
X100350000Y-51574999D01*
X101174972Y-51574999D01*
X101174986Y-51574998D01*
X101277696Y-51564505D01*
X101277698Y-51564505D01*
X101444119Y-51509359D01*
X101444130Y-51509354D01*
X101593340Y-51417319D01*
X101593344Y-51417316D01*
X101717316Y-51293344D01*
X101717319Y-51293340D01*
X101809354Y-51144130D01*
X101809359Y-51144119D01*
X101864505Y-50977697D01*
X101874999Y-50874986D01*
X101875000Y-50874973D01*
X101875000Y-50050000D01*
X100833597Y-50050000D01*
X100860350Y-49973545D01*
X100879904Y-49800000D01*
X100860350Y-49626455D01*
X100833597Y-49550000D01*
X101874999Y-49550000D01*
X101874999Y-48725028D01*
X101874998Y-48725013D01*
X101864505Y-48622303D01*
X101864505Y-48622301D01*
X101809359Y-48455880D01*
X101809354Y-48455869D01*
X101717319Y-48306659D01*
X101717316Y-48306655D01*
X101593344Y-48182683D01*
X101593340Y-48182680D01*
X101444130Y-48090645D01*
X101444119Y-48090640D01*
X101277697Y-48035494D01*
X101174986Y-48025000D01*
X100350000Y-48025000D01*
X100350000Y-49066402D01*
X100273545Y-49039650D01*
X100143524Y-49025000D01*
X100056476Y-49025000D01*
X99926455Y-49039650D01*
X99850000Y-49066402D01*
X99850000Y-48025000D01*
X99025028Y-48025000D01*
X99025012Y-48025001D01*
X98922303Y-48035494D01*
X98922301Y-48035494D01*
X98755880Y-48090640D01*
X98755869Y-48090645D01*
X98606659Y-48182680D01*
X98606655Y-48182683D01*
X98482683Y-48306655D01*
X98482680Y-48306659D01*
X98390645Y-48455869D01*
X98390640Y-48455880D01*
X98335494Y-48622302D01*
X98325000Y-48725013D01*
X98325000Y-49550000D01*
X88926480Y-49550000D01*
X89032533Y-49432216D01*
X89127179Y-49268284D01*
X89185674Y-49088256D01*
X89205460Y-48900000D01*
X89185674Y-48711744D01*
X89127179Y-48531716D01*
X89032533Y-48367784D01*
X88905871Y-48227112D01*
X88905870Y-48227111D01*
X88752734Y-48115851D01*
X88752729Y-48115848D01*
X88579807Y-48038857D01*
X88579802Y-48038855D01*
X88434001Y-48007865D01*
X88394646Y-47999500D01*
X88205354Y-47999500D01*
X88172897Y-48006398D01*
X88020197Y-48038855D01*
X88020192Y-48038857D01*
X87847270Y-48115848D01*
X87847265Y-48115851D01*
X87694129Y-48227111D01*
X87567465Y-48367785D01*
X87499487Y-48485527D01*
X87448920Y-48533743D01*
X87380313Y-48546965D01*
X87315448Y-48520997D01*
X87274920Y-48464083D01*
X87269985Y-48445064D01*
X87259332Y-48384646D01*
X87190279Y-48224562D01*
X87180442Y-48211349D01*
X87090581Y-48090645D01*
X87086168Y-48084717D01*
X87031513Y-48038856D01*
X86952614Y-47972651D01*
X86952612Y-47972650D01*
X86796818Y-47894407D01*
X86796816Y-47894406D01*
X86796815Y-47894406D01*
X86627171Y-47854200D01*
X86496564Y-47854200D01*
X86383052Y-47867467D01*
X86366835Y-47869363D01*
X86366832Y-47869364D01*
X86203008Y-47928991D01*
X86203004Y-47928993D01*
X86057348Y-48024792D01*
X86057347Y-48024793D01*
X85937706Y-48151603D01*
X85937703Y-48151609D01*
X85850534Y-48302590D01*
X85800531Y-48469610D01*
X85800530Y-48469616D01*
X85796913Y-48531722D01*
X85790393Y-48643660D01*
X85820668Y-48815354D01*
X85889721Y-48975438D01*
X85889722Y-48975440D01*
X85889724Y-48975443D01*
X85947587Y-49053166D01*
X85993832Y-49115283D01*
X86127386Y-49227349D01*
X86283185Y-49305594D01*
X86452829Y-49345800D01*
X86452831Y-49345800D01*
X86587044Y-49345800D01*
X86587044Y-49347627D01*
X86648078Y-49361733D01*
X86696840Y-49411773D01*
X86710808Y-49480233D01*
X86698061Y-49525437D01*
X86689957Y-49541572D01*
X86687488Y-49548357D01*
X86687432Y-49548336D01*
X86684960Y-49555450D01*
X86685015Y-49555469D01*
X86682742Y-49562327D01*
X86680562Y-49572888D01*
X86667207Y-49637565D01*
X86656167Y-49684148D01*
X86649498Y-49712286D01*
X86648661Y-49719454D01*
X86648601Y-49719447D01*
X86647835Y-49726945D01*
X86647895Y-49726951D01*
X86647265Y-49734140D01*
X86649500Y-49810916D01*
X86649500Y-57310958D01*
X86629815Y-57377997D01*
X86577011Y-57423752D01*
X86551283Y-57432248D01*
X86520194Y-57438856D01*
X86520192Y-57438857D01*
X86347270Y-57515848D01*
X86347265Y-57515851D01*
X86194129Y-57627111D01*
X86067466Y-57767785D01*
X85972821Y-57931715D01*
X85972818Y-57931722D01*
X85940166Y-58032216D01*
X85914326Y-58111744D01*
X85894540Y-58300000D01*
X85914326Y-58488256D01*
X85914327Y-58488259D01*
X85972818Y-58668277D01*
X85972821Y-58668284D01*
X86067467Y-58832216D01*
X86176590Y-58953409D01*
X86194129Y-58972888D01*
X86347265Y-59084148D01*
X86347270Y-59084151D01*
X86520192Y-59161142D01*
X86520197Y-59161144D01*
X86705354Y-59200500D01*
X86705355Y-59200500D01*
X86894644Y-59200500D01*
X86894646Y-59200500D01*
X87079803Y-59161144D01*
X87252730Y-59084151D01*
X87405871Y-58972888D01*
X87510634Y-58856537D01*
X87570117Y-58819890D01*
X87639974Y-58821220D01*
X87690462Y-58851830D01*
X92213181Y-63374549D01*
X92246666Y-63435872D01*
X92249500Y-63462230D01*
X92249500Y-63588770D01*
X92229815Y-63655809D01*
X92177011Y-63701564D01*
X92107853Y-63711508D01*
X92044297Y-63682483D01*
X92037819Y-63676451D01*
X91475729Y-63114361D01*
X91463949Y-63100730D01*
X91450815Y-63083088D01*
X91449612Y-63081472D01*
X91444323Y-63077034D01*
X91409587Y-63047886D01*
X91405612Y-63044244D01*
X91402690Y-63041322D01*
X91399780Y-63038411D01*
X91374040Y-63018059D01*
X91315209Y-62968694D01*
X91309180Y-62964729D01*
X91309212Y-62964680D01*
X91302853Y-62960628D01*
X91302822Y-62960679D01*
X91296680Y-62956891D01*
X91296678Y-62956890D01*
X91296677Y-62956889D01*
X91244927Y-62932757D01*
X91227058Y-62924424D01*
X91175308Y-62898435D01*
X91158433Y-62889960D01*
X91158431Y-62889959D01*
X91158430Y-62889959D01*
X91151645Y-62887489D01*
X91151665Y-62887433D01*
X91144549Y-62884959D01*
X91144531Y-62885015D01*
X91137671Y-62882742D01*
X91109841Y-62876996D01*
X91062434Y-62867207D01*
X91013472Y-62855603D01*
X90987719Y-62849499D01*
X90980547Y-62848661D01*
X90980553Y-62848601D01*
X90973055Y-62847835D01*
X90973050Y-62847895D01*
X90965860Y-62847265D01*
X90889083Y-62849500D01*
X89663705Y-62849500D01*
X89645735Y-62848191D01*
X89621972Y-62844710D01*
X89577512Y-62848601D01*
X89569931Y-62849264D01*
X89564530Y-62849500D01*
X89556289Y-62849500D01*
X89534579Y-62852037D01*
X89523724Y-62853306D01*
X89508419Y-62854645D01*
X89447199Y-62860001D01*
X89440132Y-62861460D01*
X89440120Y-62861404D01*
X89432763Y-62863035D01*
X89432777Y-62863092D01*
X89425743Y-62864759D01*
X89353575Y-62891025D01*
X89280675Y-62915181D01*
X89274126Y-62918236D01*
X89274101Y-62918183D01*
X89267308Y-62921471D01*
X89267334Y-62921523D01*
X89260880Y-62924764D01*
X89196708Y-62966971D01*
X89131347Y-63007285D01*
X89125683Y-63011765D01*
X89125647Y-63011719D01*
X89119798Y-63016484D01*
X89119835Y-63016528D01*
X89114310Y-63021164D01*
X89114304Y-63021169D01*
X89114304Y-63021170D01*
X89081163Y-63056297D01*
X89061598Y-63077034D01*
X88314358Y-63824272D01*
X88300729Y-63836051D01*
X88281468Y-63850390D01*
X88247898Y-63890397D01*
X88244253Y-63894376D01*
X88238409Y-63900222D01*
X88238128Y-63900578D01*
X88218059Y-63925959D01*
X88215425Y-63929097D01*
X88205438Y-63940998D01*
X88147265Y-63979698D01*
X88077404Y-63980804D01*
X88060017Y-63974569D01*
X87979804Y-63938856D01*
X87979802Y-63938855D01*
X87834001Y-63907865D01*
X87794646Y-63899500D01*
X87605354Y-63899500D01*
X87605349Y-63899500D01*
X87600276Y-63900578D01*
X87530609Y-63895259D01*
X87474877Y-63853120D01*
X87450775Y-63787539D01*
X87450500Y-63779287D01*
X87450500Y-63063705D01*
X87451809Y-63045735D01*
X87455033Y-63023724D01*
X87455289Y-63021977D01*
X87455218Y-63021170D01*
X87450736Y-62969939D01*
X87450500Y-62964532D01*
X87450500Y-62956296D01*
X87450500Y-62956291D01*
X87446691Y-62923705D01*
X87439998Y-62847203D01*
X87439995Y-62847194D01*
X87438538Y-62840135D01*
X87438598Y-62840122D01*
X87436965Y-62832757D01*
X87436906Y-62832772D01*
X87435241Y-62825749D01*
X87435241Y-62825745D01*
X87408971Y-62753568D01*
X87390130Y-62696708D01*
X87384816Y-62680670D01*
X87381761Y-62674118D01*
X87381815Y-62674092D01*
X87378533Y-62667312D01*
X87378480Y-62667340D01*
X87375238Y-62660886D01*
X87375237Y-62660883D01*
X87333038Y-62596723D01*
X87292712Y-62531344D01*
X87292711Y-62531343D01*
X87292710Y-62531341D01*
X87288234Y-62525681D01*
X87288280Y-62525643D01*
X87283519Y-62519799D01*
X87283474Y-62519838D01*
X87278834Y-62514308D01*
X87222982Y-62461613D01*
X83790729Y-59029361D01*
X83778949Y-59015730D01*
X83771482Y-59005701D01*
X83764612Y-58996472D01*
X83736506Y-58972888D01*
X83724587Y-58962886D01*
X83720612Y-58959244D01*
X83717690Y-58956322D01*
X83714780Y-58953411D01*
X83689040Y-58933059D01*
X83630209Y-58883694D01*
X83624180Y-58879729D01*
X83624212Y-58879680D01*
X83617853Y-58875628D01*
X83617822Y-58875679D01*
X83611680Y-58871891D01*
X83611678Y-58871890D01*
X83611677Y-58871889D01*
X83568661Y-58851830D01*
X83542058Y-58839424D01*
X83503161Y-58819890D01*
X83473433Y-58804960D01*
X83473431Y-58804959D01*
X83473430Y-58804959D01*
X83466645Y-58802489D01*
X83466665Y-58802433D01*
X83459549Y-58799959D01*
X83459531Y-58800015D01*
X83452671Y-58797742D01*
X83424841Y-58791996D01*
X83377434Y-58782207D01*
X83328472Y-58770603D01*
X83302719Y-58764499D01*
X83295547Y-58763661D01*
X83295553Y-58763601D01*
X83288055Y-58762835D01*
X83288050Y-58762895D01*
X83280860Y-58762265D01*
X83204083Y-58764500D01*
X81187701Y-58764500D01*
X81120662Y-58744815D01*
X81086126Y-58711623D01*
X81038496Y-58643600D01*
X81008321Y-58613425D01*
X80916179Y-58521283D01*
X80882696Y-58459963D01*
X80887680Y-58390271D01*
X80929551Y-58334337D01*
X80960529Y-58317422D01*
X81092086Y-58268354D01*
X81092093Y-58268350D01*
X81207187Y-58182190D01*
X81207190Y-58182187D01*
X81293350Y-58067093D01*
X81293354Y-58067086D01*
X81343596Y-57932379D01*
X81343598Y-57932372D01*
X81349999Y-57872844D01*
X81350000Y-57872827D01*
X81350000Y-57225000D01*
X80433686Y-57225000D01*
X80459493Y-57184844D01*
X80500000Y-57046889D01*
X80500000Y-56903111D01*
X80459493Y-56765156D01*
X80433686Y-56725000D01*
X81350000Y-56725000D01*
X81350000Y-56720605D01*
X81369685Y-56653566D01*
X81422489Y-56607811D01*
X81491647Y-56597867D01*
X81499776Y-56599314D01*
X81505354Y-56600500D01*
X81694644Y-56600500D01*
X81694646Y-56600500D01*
X81879803Y-56561144D01*
X82052730Y-56484151D01*
X82205871Y-56372888D01*
X82332533Y-56232216D01*
X82427179Y-56068284D01*
X82485674Y-55888256D01*
X82502179Y-55731212D01*
X82514022Y-55702428D01*
X82506523Y-55690759D01*
X82502179Y-55668786D01*
X82500817Y-55655824D01*
X82485674Y-55511744D01*
X82427179Y-55331716D01*
X82332533Y-55167784D01*
X82205871Y-55027112D01*
X82205870Y-55027111D01*
X82052734Y-54915851D01*
X82052729Y-54915848D01*
X81879807Y-54838857D01*
X81879803Y-54838856D01*
X81814669Y-54825011D01*
X81753188Y-54791818D01*
X81752770Y-54791402D01*
X80686819Y-53725451D01*
X80653334Y-53664128D01*
X80650500Y-53637770D01*
X80650500Y-51434321D01*
X80667113Y-51372321D01*
X80668799Y-51369401D01*
X80727179Y-51268284D01*
X80785674Y-51088256D01*
X80805460Y-50900000D01*
X80785674Y-50711744D01*
X80727179Y-50531716D01*
X80632533Y-50367784D01*
X80505871Y-50227112D01*
X80505867Y-50227109D01*
X80352734Y-50115851D01*
X80352730Y-50115849D01*
X80332353Y-50106776D01*
X80279117Y-50061524D01*
X80258798Y-49994674D01*
X80277845Y-49927451D01*
X80305476Y-49896554D01*
X80356146Y-49856146D01*
X80400921Y-49800000D01*
X80426466Y-49767969D01*
X80426467Y-49767966D01*
X80426769Y-49767340D01*
X80475403Y-49666351D01*
X80475404Y-49666343D01*
X80475691Y-49665527D01*
X80476024Y-49665062D01*
X80478425Y-49660077D01*
X80479298Y-49660497D01*
X80516410Y-49608749D01*
X80581362Y-49582999D01*
X80649924Y-49596451D01*
X80700329Y-49644836D01*
X80714851Y-49684943D01*
X80730729Y-49774987D01*
X80740668Y-49831354D01*
X80809721Y-49991438D01*
X80809722Y-49991440D01*
X80809724Y-49991443D01*
X80898633Y-50110867D01*
X80913832Y-50131283D01*
X81047386Y-50243349D01*
X81203185Y-50321594D01*
X81372829Y-50361800D01*
X81372831Y-50361800D01*
X81503429Y-50361800D01*
X81503436Y-50361800D01*
X81633164Y-50346637D01*
X81796993Y-50287008D01*
X81942654Y-50191205D01*
X82062296Y-50064393D01*
X82106212Y-49988326D01*
X82156777Y-49940113D01*
X82225384Y-49926889D01*
X82290249Y-49952857D01*
X82301279Y-49962647D01*
X82713181Y-50374549D01*
X82746666Y-50435872D01*
X82749500Y-50462230D01*
X82749500Y-55655824D01*
X82736505Y-55700078D01*
X82747477Y-55721868D01*
X82749500Y-55744175D01*
X82749500Y-56965677D01*
X82732887Y-57027677D01*
X82672821Y-57131714D01*
X82616258Y-57305798D01*
X82614326Y-57311744D01*
X82594540Y-57500000D01*
X82614326Y-57688256D01*
X82614327Y-57688259D01*
X82672818Y-57868277D01*
X82672821Y-57868284D01*
X82767467Y-58032216D01*
X82849060Y-58122834D01*
X82894129Y-58172888D01*
X83047265Y-58284148D01*
X83047270Y-58284151D01*
X83220192Y-58361142D01*
X83220197Y-58361144D01*
X83405354Y-58400500D01*
X83405355Y-58400500D01*
X83594644Y-58400500D01*
X83594646Y-58400500D01*
X83779803Y-58361144D01*
X83952730Y-58284151D01*
X84105871Y-58172888D01*
X84232533Y-58032216D01*
X84327179Y-57868284D01*
X84385674Y-57688256D01*
X84405460Y-57500000D01*
X84385674Y-57311744D01*
X84327179Y-57131716D01*
X84327178Y-57131714D01*
X84267113Y-57027677D01*
X84250500Y-56965677D01*
X84250500Y-50163705D01*
X84251809Y-50145735D01*
X84252129Y-50143547D01*
X84255289Y-50121977D01*
X84254195Y-50109475D01*
X84250736Y-50069934D01*
X84250500Y-50064528D01*
X84250500Y-50056297D01*
X84250500Y-50056291D01*
X84246693Y-50023724D01*
X84246352Y-50019830D01*
X84239999Y-49947201D01*
X84238539Y-49940129D01*
X84238597Y-49940116D01*
X84236965Y-49932757D01*
X84236906Y-49932772D01*
X84235242Y-49925753D01*
X84235241Y-49925745D01*
X84208974Y-49853576D01*
X84184814Y-49780666D01*
X84184809Y-49780659D01*
X84181760Y-49774118D01*
X84181815Y-49774091D01*
X84178533Y-49767313D01*
X84178480Y-49767340D01*
X84175235Y-49760880D01*
X84133028Y-49696708D01*
X84114304Y-49666351D01*
X84092712Y-49631345D01*
X84092711Y-49631344D01*
X84092710Y-49631342D01*
X84088234Y-49625682D01*
X84088281Y-49625644D01*
X84083519Y-49619799D01*
X84083474Y-49619838D01*
X84078834Y-49614309D01*
X84078832Y-49614307D01*
X84078830Y-49614304D01*
X84034932Y-49572888D01*
X84022965Y-49561597D01*
X83486819Y-49025451D01*
X83453334Y-48964128D01*
X83450500Y-48937770D01*
X83450500Y-47621282D01*
X83467112Y-47559284D01*
X83557179Y-47403284D01*
X83615674Y-47223256D01*
X83635460Y-47035000D01*
X83615674Y-46846744D01*
X83557179Y-46666716D01*
X83462533Y-46502784D01*
X83335871Y-46362112D01*
X83335870Y-46362111D01*
X83182734Y-46250851D01*
X83182732Y-46250850D01*
X83182730Y-46250849D01*
X83153373Y-46237778D01*
X83100138Y-46192528D01*
X83079817Y-46125679D01*
X83098863Y-46058456D01*
X83151229Y-46012201D01*
X83203811Y-46000500D01*
X84756189Y-46000500D01*
X84823228Y-46020185D01*
G37*
%TD.AperFunction*%
%TD*%
M02*
