%TF.GenerationSoftware,KiCad,Pcbnew,(7.0.0)*%
%TF.CreationDate,2024-01-10T08:15:54+01:00*%
%TF.ProjectId,LED_poi,4c45445f-706f-4692-9e6b-696361645f70,A*%
%TF.SameCoordinates,Original*%
%TF.FileFunction,Drillmap*%
%TF.FilePolarity,Positive*%
%FSLAX45Y45*%
G04 Gerber Fmt 4.5, Leading zero omitted, Abs format (unit mm)*
G04 Created by KiCad (PCBNEW (7.0.0)) date 2024-01-10 08:15:54*
%MOMM*%
%LPD*%
G01*
G04 APERTURE LIST*
%ADD10C,0.100000*%
%ADD11C,0.200000*%
%ADD12C,0.076200*%
%ADD13C,0.099060*%
G04 APERTURE END LIST*
D10*
X10600000Y-7300000D02*
X10600000Y-5150000D01*
X7800000Y-6950000D02*
X7800000Y-5050000D01*
X8100000Y-4600000D02*
G75*
G03*
X8050000Y-4650000I0J-50000D01*
G01*
X10400000Y-8500000D02*
G75*
G03*
X10600000Y-8300000I0J200000D01*
G01*
X7800000Y-6950000D02*
G75*
G03*
X7850000Y-7000000I50000J0D01*
G01*
X10250000Y-4600000D02*
X8100000Y-4600000D01*
X10500000Y-7750000D02*
X10500000Y-7400000D01*
X10300000Y-4650000D02*
G75*
G03*
X10250000Y-4600000I-50000J0D01*
G01*
X10600000Y-5150000D02*
G75*
G03*
X10550000Y-5100000I-50000J0D01*
G01*
X8050000Y-4650000D02*
X8050000Y-4950000D01*
X7850000Y-5000000D02*
G75*
G03*
X7800000Y-5050000I0J-50000D01*
G01*
X10550000Y-7350000D02*
G75*
G03*
X10500000Y-7400000I0J-50000D01*
G01*
X7900000Y-7050000D02*
G75*
G03*
X7850000Y-7000000I-50000J0D01*
G01*
X7850000Y-7450000D02*
G75*
G03*
X7800000Y-7500000I0J-50000D01*
G01*
X8000000Y-5000000D02*
X7850000Y-5000000D01*
X10500000Y-7750000D02*
G75*
G03*
X10550000Y-7800000I50000J0D01*
G01*
X7900000Y-7400000D02*
X7900000Y-7050000D01*
X8000000Y-5000000D02*
G75*
G03*
X8050000Y-4950000I0J50000D01*
G01*
X7850000Y-7450000D02*
G75*
G03*
X7900000Y-7400000I0J50000D01*
G01*
X10550000Y-7350000D02*
G75*
G03*
X10600000Y-7300000I0J50000D01*
G01*
X10550000Y-5100000D02*
X10350000Y-5100000D01*
X8000000Y-8500000D02*
X10400000Y-8500000D01*
X10600000Y-7850000D02*
X10600000Y-8300000D01*
X7800000Y-8300000D02*
G75*
G03*
X8000000Y-8500000I200000J0D01*
G01*
X10600000Y-7850000D02*
G75*
G03*
X10550000Y-7800000I-50000J0D01*
G01*
X10300000Y-5050000D02*
X10300000Y-4650000D01*
X7800000Y-7500000D02*
X7800000Y-8300000D01*
X10300000Y-5050000D02*
G75*
G03*
X10350000Y-5100000I50000J0D01*
G01*
D11*
D12*
X9046900Y-4701900D02*
X9123100Y-4778100D01*
X9123100Y-4701900D02*
X9046900Y-4778100D01*
X9276900Y-4701900D02*
X9353100Y-4778100D01*
X9353100Y-4701900D02*
X9276900Y-4778100D01*
D13*
X8195530Y-4758400D02*
G75*
G03*
X8195530Y-4758400I-49530J0D01*
G01*
X8195530Y-4961600D02*
G75*
G03*
X8195530Y-4961600I-49530J0D01*
G01*
X8703530Y-4860000D02*
G75*
G03*
X8703530Y-4860000I-49530J0D01*
G01*
D11*
X8042619Y-8798476D02*
X8042619Y-8598476D01*
X8042619Y-8598476D02*
X8090238Y-8598476D01*
X8090238Y-8598476D02*
X8118809Y-8608000D01*
X8118809Y-8608000D02*
X8137857Y-8627048D01*
X8137857Y-8627048D02*
X8147381Y-8646095D01*
X8147381Y-8646095D02*
X8156905Y-8684190D01*
X8156905Y-8684190D02*
X8156905Y-8712762D01*
X8156905Y-8712762D02*
X8147381Y-8750857D01*
X8147381Y-8750857D02*
X8137857Y-8769905D01*
X8137857Y-8769905D02*
X8118809Y-8788952D01*
X8118809Y-8788952D02*
X8090238Y-8798476D01*
X8090238Y-8798476D02*
X8042619Y-8798476D01*
X8242619Y-8798476D02*
X8242619Y-8665143D01*
X8242619Y-8703238D02*
X8252143Y-8684190D01*
X8252143Y-8684190D02*
X8261667Y-8674667D01*
X8261667Y-8674667D02*
X8280714Y-8665143D01*
X8280714Y-8665143D02*
X8299762Y-8665143D01*
X8366428Y-8798476D02*
X8366428Y-8665143D01*
X8366428Y-8598476D02*
X8356905Y-8608000D01*
X8356905Y-8608000D02*
X8366428Y-8617524D01*
X8366428Y-8617524D02*
X8375952Y-8608000D01*
X8375952Y-8608000D02*
X8366428Y-8598476D01*
X8366428Y-8598476D02*
X8366428Y-8617524D01*
X8490238Y-8798476D02*
X8471190Y-8788952D01*
X8471190Y-8788952D02*
X8461667Y-8769905D01*
X8461667Y-8769905D02*
X8461667Y-8598476D01*
X8595000Y-8798476D02*
X8575952Y-8788952D01*
X8575952Y-8788952D02*
X8566429Y-8769905D01*
X8566429Y-8769905D02*
X8566429Y-8598476D01*
X8791190Y-8798476D02*
X8791190Y-8598476D01*
X8791190Y-8598476D02*
X8857857Y-8741333D01*
X8857857Y-8741333D02*
X8924524Y-8598476D01*
X8924524Y-8598476D02*
X8924524Y-8798476D01*
X9105476Y-8798476D02*
X9105476Y-8693714D01*
X9105476Y-8693714D02*
X9095952Y-8674667D01*
X9095952Y-8674667D02*
X9076905Y-8665143D01*
X9076905Y-8665143D02*
X9038809Y-8665143D01*
X9038809Y-8665143D02*
X9019762Y-8674667D01*
X9105476Y-8788952D02*
X9086429Y-8798476D01*
X9086429Y-8798476D02*
X9038809Y-8798476D01*
X9038809Y-8798476D02*
X9019762Y-8788952D01*
X9019762Y-8788952D02*
X9010238Y-8769905D01*
X9010238Y-8769905D02*
X9010238Y-8750857D01*
X9010238Y-8750857D02*
X9019762Y-8731810D01*
X9019762Y-8731810D02*
X9038809Y-8722286D01*
X9038809Y-8722286D02*
X9086429Y-8722286D01*
X9086429Y-8722286D02*
X9105476Y-8712762D01*
X9200714Y-8665143D02*
X9200714Y-8865143D01*
X9200714Y-8674667D02*
X9219762Y-8665143D01*
X9219762Y-8665143D02*
X9257857Y-8665143D01*
X9257857Y-8665143D02*
X9276905Y-8674667D01*
X9276905Y-8674667D02*
X9286429Y-8684190D01*
X9286429Y-8684190D02*
X9295952Y-8703238D01*
X9295952Y-8703238D02*
X9295952Y-8760381D01*
X9295952Y-8760381D02*
X9286429Y-8779429D01*
X9286429Y-8779429D02*
X9276905Y-8788952D01*
X9276905Y-8788952D02*
X9257857Y-8798476D01*
X9257857Y-8798476D02*
X9219762Y-8798476D01*
X9219762Y-8798476D02*
X9200714Y-8788952D01*
X9381667Y-8779429D02*
X9391190Y-8788952D01*
X9391190Y-8788952D02*
X9381667Y-8798476D01*
X9381667Y-8798476D02*
X9372143Y-8788952D01*
X9372143Y-8788952D02*
X9381667Y-8779429D01*
X9381667Y-8779429D02*
X9381667Y-8798476D01*
X9381667Y-8674667D02*
X9391190Y-8684190D01*
X9391190Y-8684190D02*
X9381667Y-8693714D01*
X9381667Y-8693714D02*
X9372143Y-8684190D01*
X9372143Y-8684190D02*
X9381667Y-8674667D01*
X9381667Y-8674667D02*
X9381667Y-8693714D01*
D12*
X7718800Y-9106900D02*
X7795000Y-9183100D01*
X7795000Y-9106900D02*
X7718800Y-9183100D01*
D11*
X8080714Y-9018476D02*
X8099762Y-9018476D01*
X8099762Y-9018476D02*
X8118809Y-9028000D01*
X8118809Y-9028000D02*
X8128333Y-9037524D01*
X8128333Y-9037524D02*
X8137857Y-9056571D01*
X8137857Y-9056571D02*
X8147381Y-9094667D01*
X8147381Y-9094667D02*
X8147381Y-9142286D01*
X8147381Y-9142286D02*
X8137857Y-9180381D01*
X8137857Y-9180381D02*
X8128333Y-9199429D01*
X8128333Y-9199429D02*
X8118809Y-9208952D01*
X8118809Y-9208952D02*
X8099762Y-9218476D01*
X8099762Y-9218476D02*
X8080714Y-9218476D01*
X8080714Y-9218476D02*
X8061667Y-9208952D01*
X8061667Y-9208952D02*
X8052143Y-9199429D01*
X8052143Y-9199429D02*
X8042619Y-9180381D01*
X8042619Y-9180381D02*
X8033095Y-9142286D01*
X8033095Y-9142286D02*
X8033095Y-9094667D01*
X8033095Y-9094667D02*
X8042619Y-9056571D01*
X8042619Y-9056571D02*
X8052143Y-9037524D01*
X8052143Y-9037524D02*
X8061667Y-9028000D01*
X8061667Y-9028000D02*
X8080714Y-9018476D01*
X8233095Y-9199429D02*
X8242619Y-9208952D01*
X8242619Y-9208952D02*
X8233095Y-9218476D01*
X8233095Y-9218476D02*
X8223571Y-9208952D01*
X8223571Y-9208952D02*
X8233095Y-9199429D01*
X8233095Y-9199429D02*
X8233095Y-9218476D01*
X8309286Y-9018476D02*
X8442619Y-9018476D01*
X8442619Y-9018476D02*
X8356905Y-9218476D01*
X8604524Y-9018476D02*
X8566429Y-9018476D01*
X8566429Y-9018476D02*
X8547381Y-9028000D01*
X8547381Y-9028000D02*
X8537857Y-9037524D01*
X8537857Y-9037524D02*
X8518810Y-9066095D01*
X8518810Y-9066095D02*
X8509286Y-9104190D01*
X8509286Y-9104190D02*
X8509286Y-9180381D01*
X8509286Y-9180381D02*
X8518810Y-9199429D01*
X8518810Y-9199429D02*
X8528333Y-9208952D01*
X8528333Y-9208952D02*
X8547381Y-9218476D01*
X8547381Y-9218476D02*
X8585476Y-9218476D01*
X8585476Y-9218476D02*
X8604524Y-9208952D01*
X8604524Y-9208952D02*
X8614048Y-9199429D01*
X8614048Y-9199429D02*
X8623571Y-9180381D01*
X8623571Y-9180381D02*
X8623571Y-9132762D01*
X8623571Y-9132762D02*
X8614048Y-9113714D01*
X8614048Y-9113714D02*
X8604524Y-9104190D01*
X8604524Y-9104190D02*
X8585476Y-9094667D01*
X8585476Y-9094667D02*
X8547381Y-9094667D01*
X8547381Y-9094667D02*
X8528333Y-9104190D01*
X8528333Y-9104190D02*
X8518810Y-9113714D01*
X8518810Y-9113714D02*
X8509286Y-9132762D01*
X8699762Y-9037524D02*
X8709286Y-9028000D01*
X8709286Y-9028000D02*
X8728333Y-9018476D01*
X8728333Y-9018476D02*
X8775952Y-9018476D01*
X8775952Y-9018476D02*
X8795000Y-9028000D01*
X8795000Y-9028000D02*
X8804524Y-9037524D01*
X8804524Y-9037524D02*
X8814048Y-9056571D01*
X8814048Y-9056571D02*
X8814048Y-9075619D01*
X8814048Y-9075619D02*
X8804524Y-9104190D01*
X8804524Y-9104190D02*
X8690238Y-9218476D01*
X8690238Y-9218476D02*
X8814048Y-9218476D01*
X8899762Y-9218476D02*
X8899762Y-9085143D01*
X8899762Y-9104190D02*
X8909286Y-9094667D01*
X8909286Y-9094667D02*
X8928333Y-9085143D01*
X8928333Y-9085143D02*
X8956905Y-9085143D01*
X8956905Y-9085143D02*
X8975952Y-9094667D01*
X8975952Y-9094667D02*
X8985476Y-9113714D01*
X8985476Y-9113714D02*
X8985476Y-9218476D01*
X8985476Y-9113714D02*
X8995000Y-9094667D01*
X8995000Y-9094667D02*
X9014048Y-9085143D01*
X9014048Y-9085143D02*
X9042619Y-9085143D01*
X9042619Y-9085143D02*
X9061667Y-9094667D01*
X9061667Y-9094667D02*
X9071191Y-9113714D01*
X9071191Y-9113714D02*
X9071191Y-9218476D01*
X9166429Y-9218476D02*
X9166429Y-9085143D01*
X9166429Y-9104190D02*
X9175952Y-9094667D01*
X9175952Y-9094667D02*
X9195000Y-9085143D01*
X9195000Y-9085143D02*
X9223572Y-9085143D01*
X9223572Y-9085143D02*
X9242619Y-9094667D01*
X9242619Y-9094667D02*
X9252143Y-9113714D01*
X9252143Y-9113714D02*
X9252143Y-9218476D01*
X9252143Y-9113714D02*
X9261667Y-9094667D01*
X9261667Y-9094667D02*
X9280714Y-9085143D01*
X9280714Y-9085143D02*
X9309286Y-9085143D01*
X9309286Y-9085143D02*
X9328333Y-9094667D01*
X9328333Y-9094667D02*
X9337857Y-9113714D01*
X9337857Y-9113714D02*
X9337857Y-9218476D01*
X9695952Y-9008952D02*
X9524524Y-9266095D01*
X9920714Y-9018476D02*
X9939762Y-9018476D01*
X9939762Y-9018476D02*
X9958810Y-9028000D01*
X9958810Y-9028000D02*
X9968333Y-9037524D01*
X9968333Y-9037524D02*
X9977857Y-9056571D01*
X9977857Y-9056571D02*
X9987381Y-9094667D01*
X9987381Y-9094667D02*
X9987381Y-9142286D01*
X9987381Y-9142286D02*
X9977857Y-9180381D01*
X9977857Y-9180381D02*
X9968333Y-9199429D01*
X9968333Y-9199429D02*
X9958810Y-9208952D01*
X9958810Y-9208952D02*
X9939762Y-9218476D01*
X9939762Y-9218476D02*
X9920714Y-9218476D01*
X9920714Y-9218476D02*
X9901667Y-9208952D01*
X9901667Y-9208952D02*
X9892143Y-9199429D01*
X9892143Y-9199429D02*
X9882619Y-9180381D01*
X9882619Y-9180381D02*
X9873095Y-9142286D01*
X9873095Y-9142286D02*
X9873095Y-9094667D01*
X9873095Y-9094667D02*
X9882619Y-9056571D01*
X9882619Y-9056571D02*
X9892143Y-9037524D01*
X9892143Y-9037524D02*
X9901667Y-9028000D01*
X9901667Y-9028000D02*
X9920714Y-9018476D01*
X10073095Y-9199429D02*
X10082619Y-9208952D01*
X10082619Y-9208952D02*
X10073095Y-9218476D01*
X10073095Y-9218476D02*
X10063572Y-9208952D01*
X10063572Y-9208952D02*
X10073095Y-9199429D01*
X10073095Y-9199429D02*
X10073095Y-9218476D01*
X10206429Y-9018476D02*
X10225476Y-9018476D01*
X10225476Y-9018476D02*
X10244524Y-9028000D01*
X10244524Y-9028000D02*
X10254048Y-9037524D01*
X10254048Y-9037524D02*
X10263572Y-9056571D01*
X10263572Y-9056571D02*
X10273095Y-9094667D01*
X10273095Y-9094667D02*
X10273095Y-9142286D01*
X10273095Y-9142286D02*
X10263572Y-9180381D01*
X10263572Y-9180381D02*
X10254048Y-9199429D01*
X10254048Y-9199429D02*
X10244524Y-9208952D01*
X10244524Y-9208952D02*
X10225476Y-9218476D01*
X10225476Y-9218476D02*
X10206429Y-9218476D01*
X10206429Y-9218476D02*
X10187381Y-9208952D01*
X10187381Y-9208952D02*
X10177857Y-9199429D01*
X10177857Y-9199429D02*
X10168333Y-9180381D01*
X10168333Y-9180381D02*
X10158810Y-9142286D01*
X10158810Y-9142286D02*
X10158810Y-9094667D01*
X10158810Y-9094667D02*
X10168333Y-9056571D01*
X10168333Y-9056571D02*
X10177857Y-9037524D01*
X10177857Y-9037524D02*
X10187381Y-9028000D01*
X10187381Y-9028000D02*
X10206429Y-9018476D01*
X10339762Y-9018476D02*
X10463572Y-9018476D01*
X10463572Y-9018476D02*
X10396905Y-9094667D01*
X10396905Y-9094667D02*
X10425476Y-9094667D01*
X10425476Y-9094667D02*
X10444524Y-9104190D01*
X10444524Y-9104190D02*
X10454048Y-9113714D01*
X10454048Y-9113714D02*
X10463572Y-9132762D01*
X10463572Y-9132762D02*
X10463572Y-9180381D01*
X10463572Y-9180381D02*
X10454048Y-9199429D01*
X10454048Y-9199429D02*
X10444524Y-9208952D01*
X10444524Y-9208952D02*
X10425476Y-9218476D01*
X10425476Y-9218476D02*
X10368333Y-9218476D01*
X10368333Y-9218476D02*
X10349286Y-9208952D01*
X10349286Y-9208952D02*
X10339762Y-9199429D01*
X10587381Y-9018476D02*
X10606429Y-9018476D01*
X10606429Y-9018476D02*
X10625476Y-9028000D01*
X10625476Y-9028000D02*
X10635000Y-9037524D01*
X10635000Y-9037524D02*
X10644524Y-9056571D01*
X10644524Y-9056571D02*
X10654048Y-9094667D01*
X10654048Y-9094667D02*
X10654048Y-9142286D01*
X10654048Y-9142286D02*
X10644524Y-9180381D01*
X10644524Y-9180381D02*
X10635000Y-9199429D01*
X10635000Y-9199429D02*
X10625476Y-9208952D01*
X10625476Y-9208952D02*
X10606429Y-9218476D01*
X10606429Y-9218476D02*
X10587381Y-9218476D01*
X10587381Y-9218476D02*
X10568333Y-9208952D01*
X10568333Y-9208952D02*
X10558810Y-9199429D01*
X10558810Y-9199429D02*
X10549286Y-9180381D01*
X10549286Y-9180381D02*
X10539762Y-9142286D01*
X10539762Y-9142286D02*
X10539762Y-9094667D01*
X10539762Y-9094667D02*
X10549286Y-9056571D01*
X10549286Y-9056571D02*
X10558810Y-9037524D01*
X10558810Y-9037524D02*
X10568333Y-9028000D01*
X10568333Y-9028000D02*
X10587381Y-9018476D01*
X10777857Y-9018476D02*
X10796905Y-9018476D01*
X10796905Y-9018476D02*
X10815953Y-9028000D01*
X10815953Y-9028000D02*
X10825476Y-9037524D01*
X10825476Y-9037524D02*
X10835000Y-9056571D01*
X10835000Y-9056571D02*
X10844524Y-9094667D01*
X10844524Y-9094667D02*
X10844524Y-9142286D01*
X10844524Y-9142286D02*
X10835000Y-9180381D01*
X10835000Y-9180381D02*
X10825476Y-9199429D01*
X10825476Y-9199429D02*
X10815953Y-9208952D01*
X10815953Y-9208952D02*
X10796905Y-9218476D01*
X10796905Y-9218476D02*
X10777857Y-9218476D01*
X10777857Y-9218476D02*
X10758810Y-9208952D01*
X10758810Y-9208952D02*
X10749286Y-9199429D01*
X10749286Y-9199429D02*
X10739762Y-9180381D01*
X10739762Y-9180381D02*
X10730238Y-9142286D01*
X10730238Y-9142286D02*
X10730238Y-9094667D01*
X10730238Y-9094667D02*
X10739762Y-9056571D01*
X10739762Y-9056571D02*
X10749286Y-9037524D01*
X10749286Y-9037524D02*
X10758810Y-9028000D01*
X10758810Y-9028000D02*
X10777857Y-9018476D01*
X10920714Y-9018476D02*
X10920714Y-9056571D01*
X10996905Y-9018476D02*
X10996905Y-9056571D01*
X11259762Y-9294667D02*
X11250238Y-9285143D01*
X11250238Y-9285143D02*
X11231191Y-9256571D01*
X11231191Y-9256571D02*
X11221667Y-9237524D01*
X11221667Y-9237524D02*
X11212143Y-9208952D01*
X11212143Y-9208952D02*
X11202619Y-9161333D01*
X11202619Y-9161333D02*
X11202619Y-9123238D01*
X11202619Y-9123238D02*
X11212143Y-9075619D01*
X11212143Y-9075619D02*
X11221667Y-9047048D01*
X11221667Y-9047048D02*
X11231191Y-9028000D01*
X11231191Y-9028000D02*
X11250238Y-8999429D01*
X11250238Y-8999429D02*
X11259762Y-8989905D01*
X11326429Y-9037524D02*
X11335952Y-9028000D01*
X11335952Y-9028000D02*
X11355000Y-9018476D01*
X11355000Y-9018476D02*
X11402619Y-9018476D01*
X11402619Y-9018476D02*
X11421667Y-9028000D01*
X11421667Y-9028000D02*
X11431191Y-9037524D01*
X11431191Y-9037524D02*
X11440714Y-9056571D01*
X11440714Y-9056571D02*
X11440714Y-9075619D01*
X11440714Y-9075619D02*
X11431191Y-9104190D01*
X11431191Y-9104190D02*
X11316905Y-9218476D01*
X11316905Y-9218476D02*
X11440714Y-9218476D01*
X11646429Y-9218476D02*
X11646429Y-9018476D01*
X11732143Y-9218476D02*
X11732143Y-9113714D01*
X11732143Y-9113714D02*
X11722619Y-9094667D01*
X11722619Y-9094667D02*
X11703572Y-9085143D01*
X11703572Y-9085143D02*
X11675000Y-9085143D01*
X11675000Y-9085143D02*
X11655952Y-9094667D01*
X11655952Y-9094667D02*
X11646429Y-9104190D01*
X11855952Y-9218476D02*
X11836905Y-9208952D01*
X11836905Y-9208952D02*
X11827381Y-9199429D01*
X11827381Y-9199429D02*
X11817857Y-9180381D01*
X11817857Y-9180381D02*
X11817857Y-9123238D01*
X11817857Y-9123238D02*
X11827381Y-9104190D01*
X11827381Y-9104190D02*
X11836905Y-9094667D01*
X11836905Y-9094667D02*
X11855952Y-9085143D01*
X11855952Y-9085143D02*
X11884524Y-9085143D01*
X11884524Y-9085143D02*
X11903572Y-9094667D01*
X11903572Y-9094667D02*
X11913095Y-9104190D01*
X11913095Y-9104190D02*
X11922619Y-9123238D01*
X11922619Y-9123238D02*
X11922619Y-9180381D01*
X11922619Y-9180381D02*
X11913095Y-9199429D01*
X11913095Y-9199429D02*
X11903572Y-9208952D01*
X11903572Y-9208952D02*
X11884524Y-9218476D01*
X11884524Y-9218476D02*
X11855952Y-9218476D01*
X12036905Y-9218476D02*
X12017857Y-9208952D01*
X12017857Y-9208952D02*
X12008333Y-9189905D01*
X12008333Y-9189905D02*
X12008333Y-9018476D01*
X12189286Y-9208952D02*
X12170238Y-9218476D01*
X12170238Y-9218476D02*
X12132143Y-9218476D01*
X12132143Y-9218476D02*
X12113095Y-9208952D01*
X12113095Y-9208952D02*
X12103572Y-9189905D01*
X12103572Y-9189905D02*
X12103572Y-9113714D01*
X12103572Y-9113714D02*
X12113095Y-9094667D01*
X12113095Y-9094667D02*
X12132143Y-9085143D01*
X12132143Y-9085143D02*
X12170238Y-9085143D01*
X12170238Y-9085143D02*
X12189286Y-9094667D01*
X12189286Y-9094667D02*
X12198810Y-9113714D01*
X12198810Y-9113714D02*
X12198810Y-9132762D01*
X12198810Y-9132762D02*
X12103572Y-9151810D01*
X12275000Y-9208952D02*
X12294048Y-9218476D01*
X12294048Y-9218476D02*
X12332143Y-9218476D01*
X12332143Y-9218476D02*
X12351191Y-9208952D01*
X12351191Y-9208952D02*
X12360714Y-9189905D01*
X12360714Y-9189905D02*
X12360714Y-9180381D01*
X12360714Y-9180381D02*
X12351191Y-9161333D01*
X12351191Y-9161333D02*
X12332143Y-9151810D01*
X12332143Y-9151810D02*
X12303572Y-9151810D01*
X12303572Y-9151810D02*
X12284524Y-9142286D01*
X12284524Y-9142286D02*
X12275000Y-9123238D01*
X12275000Y-9123238D02*
X12275000Y-9113714D01*
X12275000Y-9113714D02*
X12284524Y-9094667D01*
X12284524Y-9094667D02*
X12303572Y-9085143D01*
X12303572Y-9085143D02*
X12332143Y-9085143D01*
X12332143Y-9085143D02*
X12351191Y-9094667D01*
X12427381Y-9294667D02*
X12436905Y-9285143D01*
X12436905Y-9285143D02*
X12455953Y-9256571D01*
X12455953Y-9256571D02*
X12465476Y-9237524D01*
X12465476Y-9237524D02*
X12475000Y-9208952D01*
X12475000Y-9208952D02*
X12484524Y-9161333D01*
X12484524Y-9161333D02*
X12484524Y-9123238D01*
X12484524Y-9123238D02*
X12475000Y-9075619D01*
X12475000Y-9075619D02*
X12465476Y-9047048D01*
X12465476Y-9047048D02*
X12455953Y-9028000D01*
X12455953Y-9028000D02*
X12436905Y-8999429D01*
X12436905Y-8999429D02*
X12427381Y-8989905D01*
X12756905Y-9294667D02*
X12747381Y-9285143D01*
X12747381Y-9285143D02*
X12728333Y-9256571D01*
X12728333Y-9256571D02*
X12718810Y-9237524D01*
X12718810Y-9237524D02*
X12709286Y-9208952D01*
X12709286Y-9208952D02*
X12699762Y-9161333D01*
X12699762Y-9161333D02*
X12699762Y-9123238D01*
X12699762Y-9123238D02*
X12709286Y-9075619D01*
X12709286Y-9075619D02*
X12718810Y-9047048D01*
X12718810Y-9047048D02*
X12728333Y-9028000D01*
X12728333Y-9028000D02*
X12747381Y-8999429D01*
X12747381Y-8999429D02*
X12756905Y-8989905D01*
X12833095Y-9085143D02*
X12833095Y-9218476D01*
X12833095Y-9104190D02*
X12842619Y-9094667D01*
X12842619Y-9094667D02*
X12861667Y-9085143D01*
X12861667Y-9085143D02*
X12890238Y-9085143D01*
X12890238Y-9085143D02*
X12909286Y-9094667D01*
X12909286Y-9094667D02*
X12918810Y-9113714D01*
X12918810Y-9113714D02*
X12918810Y-9218476D01*
X13042619Y-9218476D02*
X13023572Y-9208952D01*
X13023572Y-9208952D02*
X13014048Y-9199429D01*
X13014048Y-9199429D02*
X13004524Y-9180381D01*
X13004524Y-9180381D02*
X13004524Y-9123238D01*
X13004524Y-9123238D02*
X13014048Y-9104190D01*
X13014048Y-9104190D02*
X13023572Y-9094667D01*
X13023572Y-9094667D02*
X13042619Y-9085143D01*
X13042619Y-9085143D02*
X13071191Y-9085143D01*
X13071191Y-9085143D02*
X13090238Y-9094667D01*
X13090238Y-9094667D02*
X13099762Y-9104190D01*
X13099762Y-9104190D02*
X13109286Y-9123238D01*
X13109286Y-9123238D02*
X13109286Y-9180381D01*
X13109286Y-9180381D02*
X13099762Y-9199429D01*
X13099762Y-9199429D02*
X13090238Y-9208952D01*
X13090238Y-9208952D02*
X13071191Y-9218476D01*
X13071191Y-9218476D02*
X13042619Y-9218476D01*
X13166429Y-9085143D02*
X13242619Y-9085143D01*
X13195000Y-9018476D02*
X13195000Y-9189905D01*
X13195000Y-9189905D02*
X13204524Y-9208952D01*
X13204524Y-9208952D02*
X13223572Y-9218476D01*
X13223572Y-9218476D02*
X13242619Y-9218476D01*
X13429286Y-9085143D02*
X13429286Y-9285143D01*
X13429286Y-9094667D02*
X13448333Y-9085143D01*
X13448333Y-9085143D02*
X13486429Y-9085143D01*
X13486429Y-9085143D02*
X13505476Y-9094667D01*
X13505476Y-9094667D02*
X13515000Y-9104190D01*
X13515000Y-9104190D02*
X13524524Y-9123238D01*
X13524524Y-9123238D02*
X13524524Y-9180381D01*
X13524524Y-9180381D02*
X13515000Y-9199429D01*
X13515000Y-9199429D02*
X13505476Y-9208952D01*
X13505476Y-9208952D02*
X13486429Y-9218476D01*
X13486429Y-9218476D02*
X13448333Y-9218476D01*
X13448333Y-9218476D02*
X13429286Y-9208952D01*
X13638810Y-9218476D02*
X13619762Y-9208952D01*
X13619762Y-9208952D02*
X13610238Y-9189905D01*
X13610238Y-9189905D02*
X13610238Y-9018476D01*
X13800714Y-9218476D02*
X13800714Y-9113714D01*
X13800714Y-9113714D02*
X13791191Y-9094667D01*
X13791191Y-9094667D02*
X13772143Y-9085143D01*
X13772143Y-9085143D02*
X13734048Y-9085143D01*
X13734048Y-9085143D02*
X13715000Y-9094667D01*
X13800714Y-9208952D02*
X13781667Y-9218476D01*
X13781667Y-9218476D02*
X13734048Y-9218476D01*
X13734048Y-9218476D02*
X13715000Y-9208952D01*
X13715000Y-9208952D02*
X13705476Y-9189905D01*
X13705476Y-9189905D02*
X13705476Y-9170857D01*
X13705476Y-9170857D02*
X13715000Y-9151810D01*
X13715000Y-9151810D02*
X13734048Y-9142286D01*
X13734048Y-9142286D02*
X13781667Y-9142286D01*
X13781667Y-9142286D02*
X13800714Y-9132762D01*
X13867381Y-9085143D02*
X13943572Y-9085143D01*
X13895953Y-9018476D02*
X13895953Y-9189905D01*
X13895953Y-9189905D02*
X13905476Y-9208952D01*
X13905476Y-9208952D02*
X13924524Y-9218476D01*
X13924524Y-9218476D02*
X13943572Y-9218476D01*
X14086429Y-9208952D02*
X14067381Y-9218476D01*
X14067381Y-9218476D02*
X14029286Y-9218476D01*
X14029286Y-9218476D02*
X14010238Y-9208952D01*
X14010238Y-9208952D02*
X14000714Y-9189905D01*
X14000714Y-9189905D02*
X14000714Y-9113714D01*
X14000714Y-9113714D02*
X14010238Y-9094667D01*
X14010238Y-9094667D02*
X14029286Y-9085143D01*
X14029286Y-9085143D02*
X14067381Y-9085143D01*
X14067381Y-9085143D02*
X14086429Y-9094667D01*
X14086429Y-9094667D02*
X14095953Y-9113714D01*
X14095953Y-9113714D02*
X14095953Y-9132762D01*
X14095953Y-9132762D02*
X14000714Y-9151810D01*
X14267381Y-9218476D02*
X14267381Y-9018476D01*
X14267381Y-9208952D02*
X14248334Y-9218476D01*
X14248334Y-9218476D02*
X14210238Y-9218476D01*
X14210238Y-9218476D02*
X14191191Y-9208952D01*
X14191191Y-9208952D02*
X14181667Y-9199429D01*
X14181667Y-9199429D02*
X14172143Y-9180381D01*
X14172143Y-9180381D02*
X14172143Y-9123238D01*
X14172143Y-9123238D02*
X14181667Y-9104190D01*
X14181667Y-9104190D02*
X14191191Y-9094667D01*
X14191191Y-9094667D02*
X14210238Y-9085143D01*
X14210238Y-9085143D02*
X14248334Y-9085143D01*
X14248334Y-9085143D02*
X14267381Y-9094667D01*
X14343572Y-9294667D02*
X14353095Y-9285143D01*
X14353095Y-9285143D02*
X14372143Y-9256571D01*
X14372143Y-9256571D02*
X14381667Y-9237524D01*
X14381667Y-9237524D02*
X14391191Y-9208952D01*
X14391191Y-9208952D02*
X14400714Y-9161333D01*
X14400714Y-9161333D02*
X14400714Y-9123238D01*
X14400714Y-9123238D02*
X14391191Y-9075619D01*
X14391191Y-9075619D02*
X14381667Y-9047048D01*
X14381667Y-9047048D02*
X14372143Y-9028000D01*
X14372143Y-9028000D02*
X14353095Y-8999429D01*
X14353095Y-8999429D02*
X14343572Y-8989905D01*
D13*
X7795000Y-9409000D02*
G75*
G03*
X7795000Y-9409000I-49530J0D01*
G01*
D11*
X8080714Y-9282476D02*
X8099762Y-9282476D01*
X8099762Y-9282476D02*
X8118809Y-9292000D01*
X8118809Y-9292000D02*
X8128333Y-9301524D01*
X8128333Y-9301524D02*
X8137857Y-9320571D01*
X8137857Y-9320571D02*
X8147381Y-9358667D01*
X8147381Y-9358667D02*
X8147381Y-9406286D01*
X8147381Y-9406286D02*
X8137857Y-9444381D01*
X8137857Y-9444381D02*
X8128333Y-9463429D01*
X8128333Y-9463429D02*
X8118809Y-9472952D01*
X8118809Y-9472952D02*
X8099762Y-9482476D01*
X8099762Y-9482476D02*
X8080714Y-9482476D01*
X8080714Y-9482476D02*
X8061667Y-9472952D01*
X8061667Y-9472952D02*
X8052143Y-9463429D01*
X8052143Y-9463429D02*
X8042619Y-9444381D01*
X8042619Y-9444381D02*
X8033095Y-9406286D01*
X8033095Y-9406286D02*
X8033095Y-9358667D01*
X8033095Y-9358667D02*
X8042619Y-9320571D01*
X8042619Y-9320571D02*
X8052143Y-9301524D01*
X8052143Y-9301524D02*
X8061667Y-9292000D01*
X8061667Y-9292000D02*
X8080714Y-9282476D01*
X8233095Y-9463429D02*
X8242619Y-9472952D01*
X8242619Y-9472952D02*
X8233095Y-9482476D01*
X8233095Y-9482476D02*
X8223571Y-9472952D01*
X8223571Y-9472952D02*
X8233095Y-9463429D01*
X8233095Y-9463429D02*
X8233095Y-9482476D01*
X8337857Y-9482476D02*
X8375952Y-9482476D01*
X8375952Y-9482476D02*
X8395000Y-9472952D01*
X8395000Y-9472952D02*
X8404524Y-9463429D01*
X8404524Y-9463429D02*
X8423571Y-9434857D01*
X8423571Y-9434857D02*
X8433095Y-9396762D01*
X8433095Y-9396762D02*
X8433095Y-9320571D01*
X8433095Y-9320571D02*
X8423571Y-9301524D01*
X8423571Y-9301524D02*
X8414048Y-9292000D01*
X8414048Y-9292000D02*
X8395000Y-9282476D01*
X8395000Y-9282476D02*
X8356905Y-9282476D01*
X8356905Y-9282476D02*
X8337857Y-9292000D01*
X8337857Y-9292000D02*
X8328333Y-9301524D01*
X8328333Y-9301524D02*
X8318809Y-9320571D01*
X8318809Y-9320571D02*
X8318809Y-9368190D01*
X8318809Y-9368190D02*
X8328333Y-9387238D01*
X8328333Y-9387238D02*
X8337857Y-9396762D01*
X8337857Y-9396762D02*
X8356905Y-9406286D01*
X8356905Y-9406286D02*
X8395000Y-9406286D01*
X8395000Y-9406286D02*
X8414048Y-9396762D01*
X8414048Y-9396762D02*
X8423571Y-9387238D01*
X8423571Y-9387238D02*
X8433095Y-9368190D01*
X8528333Y-9482476D02*
X8566429Y-9482476D01*
X8566429Y-9482476D02*
X8585476Y-9472952D01*
X8585476Y-9472952D02*
X8595000Y-9463429D01*
X8595000Y-9463429D02*
X8614048Y-9434857D01*
X8614048Y-9434857D02*
X8623571Y-9396762D01*
X8623571Y-9396762D02*
X8623571Y-9320571D01*
X8623571Y-9320571D02*
X8614048Y-9301524D01*
X8614048Y-9301524D02*
X8604524Y-9292000D01*
X8604524Y-9292000D02*
X8585476Y-9282476D01*
X8585476Y-9282476D02*
X8547381Y-9282476D01*
X8547381Y-9282476D02*
X8528333Y-9292000D01*
X8528333Y-9292000D02*
X8518810Y-9301524D01*
X8518810Y-9301524D02*
X8509286Y-9320571D01*
X8509286Y-9320571D02*
X8509286Y-9368190D01*
X8509286Y-9368190D02*
X8518810Y-9387238D01*
X8518810Y-9387238D02*
X8528333Y-9396762D01*
X8528333Y-9396762D02*
X8547381Y-9406286D01*
X8547381Y-9406286D02*
X8585476Y-9406286D01*
X8585476Y-9406286D02*
X8604524Y-9396762D01*
X8604524Y-9396762D02*
X8614048Y-9387238D01*
X8614048Y-9387238D02*
X8623571Y-9368190D01*
X8814048Y-9482476D02*
X8699762Y-9482476D01*
X8756905Y-9482476D02*
X8756905Y-9282476D01*
X8756905Y-9282476D02*
X8737857Y-9311048D01*
X8737857Y-9311048D02*
X8718810Y-9330095D01*
X8718810Y-9330095D02*
X8699762Y-9339619D01*
X8899762Y-9482476D02*
X8899762Y-9349143D01*
X8899762Y-9368190D02*
X8909286Y-9358667D01*
X8909286Y-9358667D02*
X8928333Y-9349143D01*
X8928333Y-9349143D02*
X8956905Y-9349143D01*
X8956905Y-9349143D02*
X8975952Y-9358667D01*
X8975952Y-9358667D02*
X8985476Y-9377714D01*
X8985476Y-9377714D02*
X8985476Y-9482476D01*
X8985476Y-9377714D02*
X8995000Y-9358667D01*
X8995000Y-9358667D02*
X9014048Y-9349143D01*
X9014048Y-9349143D02*
X9042619Y-9349143D01*
X9042619Y-9349143D02*
X9061667Y-9358667D01*
X9061667Y-9358667D02*
X9071191Y-9377714D01*
X9071191Y-9377714D02*
X9071191Y-9482476D01*
X9166429Y-9482476D02*
X9166429Y-9349143D01*
X9166429Y-9368190D02*
X9175952Y-9358667D01*
X9175952Y-9358667D02*
X9195000Y-9349143D01*
X9195000Y-9349143D02*
X9223572Y-9349143D01*
X9223572Y-9349143D02*
X9242619Y-9358667D01*
X9242619Y-9358667D02*
X9252143Y-9377714D01*
X9252143Y-9377714D02*
X9252143Y-9482476D01*
X9252143Y-9377714D02*
X9261667Y-9358667D01*
X9261667Y-9358667D02*
X9280714Y-9349143D01*
X9280714Y-9349143D02*
X9309286Y-9349143D01*
X9309286Y-9349143D02*
X9328333Y-9358667D01*
X9328333Y-9358667D02*
X9337857Y-9377714D01*
X9337857Y-9377714D02*
X9337857Y-9482476D01*
X9695952Y-9272952D02*
X9524524Y-9530095D01*
X9920714Y-9282476D02*
X9939762Y-9282476D01*
X9939762Y-9282476D02*
X9958810Y-9292000D01*
X9958810Y-9292000D02*
X9968333Y-9301524D01*
X9968333Y-9301524D02*
X9977857Y-9320571D01*
X9977857Y-9320571D02*
X9987381Y-9358667D01*
X9987381Y-9358667D02*
X9987381Y-9406286D01*
X9987381Y-9406286D02*
X9977857Y-9444381D01*
X9977857Y-9444381D02*
X9968333Y-9463429D01*
X9968333Y-9463429D02*
X9958810Y-9472952D01*
X9958810Y-9472952D02*
X9939762Y-9482476D01*
X9939762Y-9482476D02*
X9920714Y-9482476D01*
X9920714Y-9482476D02*
X9901667Y-9472952D01*
X9901667Y-9472952D02*
X9892143Y-9463429D01*
X9892143Y-9463429D02*
X9882619Y-9444381D01*
X9882619Y-9444381D02*
X9873095Y-9406286D01*
X9873095Y-9406286D02*
X9873095Y-9358667D01*
X9873095Y-9358667D02*
X9882619Y-9320571D01*
X9882619Y-9320571D02*
X9892143Y-9301524D01*
X9892143Y-9301524D02*
X9901667Y-9292000D01*
X9901667Y-9292000D02*
X9920714Y-9282476D01*
X10073095Y-9463429D02*
X10082619Y-9472952D01*
X10082619Y-9472952D02*
X10073095Y-9482476D01*
X10073095Y-9482476D02*
X10063572Y-9472952D01*
X10063572Y-9472952D02*
X10073095Y-9463429D01*
X10073095Y-9463429D02*
X10073095Y-9482476D01*
X10206429Y-9282476D02*
X10225476Y-9282476D01*
X10225476Y-9282476D02*
X10244524Y-9292000D01*
X10244524Y-9292000D02*
X10254048Y-9301524D01*
X10254048Y-9301524D02*
X10263572Y-9320571D01*
X10263572Y-9320571D02*
X10273095Y-9358667D01*
X10273095Y-9358667D02*
X10273095Y-9406286D01*
X10273095Y-9406286D02*
X10263572Y-9444381D01*
X10263572Y-9444381D02*
X10254048Y-9463429D01*
X10254048Y-9463429D02*
X10244524Y-9472952D01*
X10244524Y-9472952D02*
X10225476Y-9482476D01*
X10225476Y-9482476D02*
X10206429Y-9482476D01*
X10206429Y-9482476D02*
X10187381Y-9472952D01*
X10187381Y-9472952D02*
X10177857Y-9463429D01*
X10177857Y-9463429D02*
X10168333Y-9444381D01*
X10168333Y-9444381D02*
X10158810Y-9406286D01*
X10158810Y-9406286D02*
X10158810Y-9358667D01*
X10158810Y-9358667D02*
X10168333Y-9320571D01*
X10168333Y-9320571D02*
X10177857Y-9301524D01*
X10177857Y-9301524D02*
X10187381Y-9292000D01*
X10187381Y-9292000D02*
X10206429Y-9282476D01*
X10339762Y-9282476D02*
X10463572Y-9282476D01*
X10463572Y-9282476D02*
X10396905Y-9358667D01*
X10396905Y-9358667D02*
X10425476Y-9358667D01*
X10425476Y-9358667D02*
X10444524Y-9368190D01*
X10444524Y-9368190D02*
X10454048Y-9377714D01*
X10454048Y-9377714D02*
X10463572Y-9396762D01*
X10463572Y-9396762D02*
X10463572Y-9444381D01*
X10463572Y-9444381D02*
X10454048Y-9463429D01*
X10454048Y-9463429D02*
X10444524Y-9472952D01*
X10444524Y-9472952D02*
X10425476Y-9482476D01*
X10425476Y-9482476D02*
X10368333Y-9482476D01*
X10368333Y-9482476D02*
X10349286Y-9472952D01*
X10349286Y-9472952D02*
X10339762Y-9463429D01*
X10558810Y-9482476D02*
X10596905Y-9482476D01*
X10596905Y-9482476D02*
X10615953Y-9472952D01*
X10615953Y-9472952D02*
X10625476Y-9463429D01*
X10625476Y-9463429D02*
X10644524Y-9434857D01*
X10644524Y-9434857D02*
X10654048Y-9396762D01*
X10654048Y-9396762D02*
X10654048Y-9320571D01*
X10654048Y-9320571D02*
X10644524Y-9301524D01*
X10644524Y-9301524D02*
X10635000Y-9292000D01*
X10635000Y-9292000D02*
X10615953Y-9282476D01*
X10615953Y-9282476D02*
X10577857Y-9282476D01*
X10577857Y-9282476D02*
X10558810Y-9292000D01*
X10558810Y-9292000D02*
X10549286Y-9301524D01*
X10549286Y-9301524D02*
X10539762Y-9320571D01*
X10539762Y-9320571D02*
X10539762Y-9368190D01*
X10539762Y-9368190D02*
X10549286Y-9387238D01*
X10549286Y-9387238D02*
X10558810Y-9396762D01*
X10558810Y-9396762D02*
X10577857Y-9406286D01*
X10577857Y-9406286D02*
X10615953Y-9406286D01*
X10615953Y-9406286D02*
X10635000Y-9396762D01*
X10635000Y-9396762D02*
X10644524Y-9387238D01*
X10644524Y-9387238D02*
X10654048Y-9368190D01*
X10777857Y-9282476D02*
X10796905Y-9282476D01*
X10796905Y-9282476D02*
X10815953Y-9292000D01*
X10815953Y-9292000D02*
X10825476Y-9301524D01*
X10825476Y-9301524D02*
X10835000Y-9320571D01*
X10835000Y-9320571D02*
X10844524Y-9358667D01*
X10844524Y-9358667D02*
X10844524Y-9406286D01*
X10844524Y-9406286D02*
X10835000Y-9444381D01*
X10835000Y-9444381D02*
X10825476Y-9463429D01*
X10825476Y-9463429D02*
X10815953Y-9472952D01*
X10815953Y-9472952D02*
X10796905Y-9482476D01*
X10796905Y-9482476D02*
X10777857Y-9482476D01*
X10777857Y-9482476D02*
X10758810Y-9472952D01*
X10758810Y-9472952D02*
X10749286Y-9463429D01*
X10749286Y-9463429D02*
X10739762Y-9444381D01*
X10739762Y-9444381D02*
X10730238Y-9406286D01*
X10730238Y-9406286D02*
X10730238Y-9358667D01*
X10730238Y-9358667D02*
X10739762Y-9320571D01*
X10739762Y-9320571D02*
X10749286Y-9301524D01*
X10749286Y-9301524D02*
X10758810Y-9292000D01*
X10758810Y-9292000D02*
X10777857Y-9282476D01*
X10920714Y-9282476D02*
X10920714Y-9320571D01*
X10996905Y-9282476D02*
X10996905Y-9320571D01*
X11259762Y-9558667D02*
X11250238Y-9549143D01*
X11250238Y-9549143D02*
X11231191Y-9520571D01*
X11231191Y-9520571D02*
X11221667Y-9501524D01*
X11221667Y-9501524D02*
X11212143Y-9472952D01*
X11212143Y-9472952D02*
X11202619Y-9425333D01*
X11202619Y-9425333D02*
X11202619Y-9387238D01*
X11202619Y-9387238D02*
X11212143Y-9339619D01*
X11212143Y-9339619D02*
X11221667Y-9311048D01*
X11221667Y-9311048D02*
X11231191Y-9292000D01*
X11231191Y-9292000D02*
X11250238Y-9263429D01*
X11250238Y-9263429D02*
X11259762Y-9253905D01*
X11316905Y-9282476D02*
X11440714Y-9282476D01*
X11440714Y-9282476D02*
X11374048Y-9358667D01*
X11374048Y-9358667D02*
X11402619Y-9358667D01*
X11402619Y-9358667D02*
X11421667Y-9368190D01*
X11421667Y-9368190D02*
X11431191Y-9377714D01*
X11431191Y-9377714D02*
X11440714Y-9396762D01*
X11440714Y-9396762D02*
X11440714Y-9444381D01*
X11440714Y-9444381D02*
X11431191Y-9463429D01*
X11431191Y-9463429D02*
X11421667Y-9472952D01*
X11421667Y-9472952D02*
X11402619Y-9482476D01*
X11402619Y-9482476D02*
X11345476Y-9482476D01*
X11345476Y-9482476D02*
X11326429Y-9472952D01*
X11326429Y-9472952D02*
X11316905Y-9463429D01*
X11646429Y-9482476D02*
X11646429Y-9282476D01*
X11732143Y-9482476D02*
X11732143Y-9377714D01*
X11732143Y-9377714D02*
X11722619Y-9358667D01*
X11722619Y-9358667D02*
X11703572Y-9349143D01*
X11703572Y-9349143D02*
X11675000Y-9349143D01*
X11675000Y-9349143D02*
X11655952Y-9358667D01*
X11655952Y-9358667D02*
X11646429Y-9368190D01*
X11855952Y-9482476D02*
X11836905Y-9472952D01*
X11836905Y-9472952D02*
X11827381Y-9463429D01*
X11827381Y-9463429D02*
X11817857Y-9444381D01*
X11817857Y-9444381D02*
X11817857Y-9387238D01*
X11817857Y-9387238D02*
X11827381Y-9368190D01*
X11827381Y-9368190D02*
X11836905Y-9358667D01*
X11836905Y-9358667D02*
X11855952Y-9349143D01*
X11855952Y-9349143D02*
X11884524Y-9349143D01*
X11884524Y-9349143D02*
X11903572Y-9358667D01*
X11903572Y-9358667D02*
X11913095Y-9368190D01*
X11913095Y-9368190D02*
X11922619Y-9387238D01*
X11922619Y-9387238D02*
X11922619Y-9444381D01*
X11922619Y-9444381D02*
X11913095Y-9463429D01*
X11913095Y-9463429D02*
X11903572Y-9472952D01*
X11903572Y-9472952D02*
X11884524Y-9482476D01*
X11884524Y-9482476D02*
X11855952Y-9482476D01*
X12036905Y-9482476D02*
X12017857Y-9472952D01*
X12017857Y-9472952D02*
X12008333Y-9453905D01*
X12008333Y-9453905D02*
X12008333Y-9282476D01*
X12189286Y-9472952D02*
X12170238Y-9482476D01*
X12170238Y-9482476D02*
X12132143Y-9482476D01*
X12132143Y-9482476D02*
X12113095Y-9472952D01*
X12113095Y-9472952D02*
X12103572Y-9453905D01*
X12103572Y-9453905D02*
X12103572Y-9377714D01*
X12103572Y-9377714D02*
X12113095Y-9358667D01*
X12113095Y-9358667D02*
X12132143Y-9349143D01*
X12132143Y-9349143D02*
X12170238Y-9349143D01*
X12170238Y-9349143D02*
X12189286Y-9358667D01*
X12189286Y-9358667D02*
X12198810Y-9377714D01*
X12198810Y-9377714D02*
X12198810Y-9396762D01*
X12198810Y-9396762D02*
X12103572Y-9415810D01*
X12275000Y-9472952D02*
X12294048Y-9482476D01*
X12294048Y-9482476D02*
X12332143Y-9482476D01*
X12332143Y-9482476D02*
X12351191Y-9472952D01*
X12351191Y-9472952D02*
X12360714Y-9453905D01*
X12360714Y-9453905D02*
X12360714Y-9444381D01*
X12360714Y-9444381D02*
X12351191Y-9425333D01*
X12351191Y-9425333D02*
X12332143Y-9415810D01*
X12332143Y-9415810D02*
X12303572Y-9415810D01*
X12303572Y-9415810D02*
X12284524Y-9406286D01*
X12284524Y-9406286D02*
X12275000Y-9387238D01*
X12275000Y-9387238D02*
X12275000Y-9377714D01*
X12275000Y-9377714D02*
X12284524Y-9358667D01*
X12284524Y-9358667D02*
X12303572Y-9349143D01*
X12303572Y-9349143D02*
X12332143Y-9349143D01*
X12332143Y-9349143D02*
X12351191Y-9358667D01*
X12427381Y-9558667D02*
X12436905Y-9549143D01*
X12436905Y-9549143D02*
X12455953Y-9520571D01*
X12455953Y-9520571D02*
X12465476Y-9501524D01*
X12465476Y-9501524D02*
X12475000Y-9472952D01*
X12475000Y-9472952D02*
X12484524Y-9425333D01*
X12484524Y-9425333D02*
X12484524Y-9387238D01*
X12484524Y-9387238D02*
X12475000Y-9339619D01*
X12475000Y-9339619D02*
X12465476Y-9311048D01*
X12465476Y-9311048D02*
X12455953Y-9292000D01*
X12455953Y-9292000D02*
X12436905Y-9263429D01*
X12436905Y-9263429D02*
X12427381Y-9253905D01*
X12756905Y-9558667D02*
X12747381Y-9549143D01*
X12747381Y-9549143D02*
X12728333Y-9520571D01*
X12728333Y-9520571D02*
X12718810Y-9501524D01*
X12718810Y-9501524D02*
X12709286Y-9472952D01*
X12709286Y-9472952D02*
X12699762Y-9425333D01*
X12699762Y-9425333D02*
X12699762Y-9387238D01*
X12699762Y-9387238D02*
X12709286Y-9339619D01*
X12709286Y-9339619D02*
X12718810Y-9311048D01*
X12718810Y-9311048D02*
X12728333Y-9292000D01*
X12728333Y-9292000D02*
X12747381Y-9263429D01*
X12747381Y-9263429D02*
X12756905Y-9253905D01*
X12833095Y-9349143D02*
X12833095Y-9482476D01*
X12833095Y-9368190D02*
X12842619Y-9358667D01*
X12842619Y-9358667D02*
X12861667Y-9349143D01*
X12861667Y-9349143D02*
X12890238Y-9349143D01*
X12890238Y-9349143D02*
X12909286Y-9358667D01*
X12909286Y-9358667D02*
X12918810Y-9377714D01*
X12918810Y-9377714D02*
X12918810Y-9482476D01*
X13042619Y-9482476D02*
X13023572Y-9472952D01*
X13023572Y-9472952D02*
X13014048Y-9463429D01*
X13014048Y-9463429D02*
X13004524Y-9444381D01*
X13004524Y-9444381D02*
X13004524Y-9387238D01*
X13004524Y-9387238D02*
X13014048Y-9368190D01*
X13014048Y-9368190D02*
X13023572Y-9358667D01*
X13023572Y-9358667D02*
X13042619Y-9349143D01*
X13042619Y-9349143D02*
X13071191Y-9349143D01*
X13071191Y-9349143D02*
X13090238Y-9358667D01*
X13090238Y-9358667D02*
X13099762Y-9368190D01*
X13099762Y-9368190D02*
X13109286Y-9387238D01*
X13109286Y-9387238D02*
X13109286Y-9444381D01*
X13109286Y-9444381D02*
X13099762Y-9463429D01*
X13099762Y-9463429D02*
X13090238Y-9472952D01*
X13090238Y-9472952D02*
X13071191Y-9482476D01*
X13071191Y-9482476D02*
X13042619Y-9482476D01*
X13166429Y-9349143D02*
X13242619Y-9349143D01*
X13195000Y-9282476D02*
X13195000Y-9453905D01*
X13195000Y-9453905D02*
X13204524Y-9472952D01*
X13204524Y-9472952D02*
X13223572Y-9482476D01*
X13223572Y-9482476D02*
X13242619Y-9482476D01*
X13429286Y-9349143D02*
X13429286Y-9549143D01*
X13429286Y-9358667D02*
X13448333Y-9349143D01*
X13448333Y-9349143D02*
X13486429Y-9349143D01*
X13486429Y-9349143D02*
X13505476Y-9358667D01*
X13505476Y-9358667D02*
X13515000Y-9368190D01*
X13515000Y-9368190D02*
X13524524Y-9387238D01*
X13524524Y-9387238D02*
X13524524Y-9444381D01*
X13524524Y-9444381D02*
X13515000Y-9463429D01*
X13515000Y-9463429D02*
X13505476Y-9472952D01*
X13505476Y-9472952D02*
X13486429Y-9482476D01*
X13486429Y-9482476D02*
X13448333Y-9482476D01*
X13448333Y-9482476D02*
X13429286Y-9472952D01*
X13638810Y-9482476D02*
X13619762Y-9472952D01*
X13619762Y-9472952D02*
X13610238Y-9453905D01*
X13610238Y-9453905D02*
X13610238Y-9282476D01*
X13800714Y-9482476D02*
X13800714Y-9377714D01*
X13800714Y-9377714D02*
X13791191Y-9358667D01*
X13791191Y-9358667D02*
X13772143Y-9349143D01*
X13772143Y-9349143D02*
X13734048Y-9349143D01*
X13734048Y-9349143D02*
X13715000Y-9358667D01*
X13800714Y-9472952D02*
X13781667Y-9482476D01*
X13781667Y-9482476D02*
X13734048Y-9482476D01*
X13734048Y-9482476D02*
X13715000Y-9472952D01*
X13715000Y-9472952D02*
X13705476Y-9453905D01*
X13705476Y-9453905D02*
X13705476Y-9434857D01*
X13705476Y-9434857D02*
X13715000Y-9415810D01*
X13715000Y-9415810D02*
X13734048Y-9406286D01*
X13734048Y-9406286D02*
X13781667Y-9406286D01*
X13781667Y-9406286D02*
X13800714Y-9396762D01*
X13867381Y-9349143D02*
X13943572Y-9349143D01*
X13895953Y-9282476D02*
X13895953Y-9453905D01*
X13895953Y-9453905D02*
X13905476Y-9472952D01*
X13905476Y-9472952D02*
X13924524Y-9482476D01*
X13924524Y-9482476D02*
X13943572Y-9482476D01*
X14086429Y-9472952D02*
X14067381Y-9482476D01*
X14067381Y-9482476D02*
X14029286Y-9482476D01*
X14029286Y-9482476D02*
X14010238Y-9472952D01*
X14010238Y-9472952D02*
X14000714Y-9453905D01*
X14000714Y-9453905D02*
X14000714Y-9377714D01*
X14000714Y-9377714D02*
X14010238Y-9358667D01*
X14010238Y-9358667D02*
X14029286Y-9349143D01*
X14029286Y-9349143D02*
X14067381Y-9349143D01*
X14067381Y-9349143D02*
X14086429Y-9358667D01*
X14086429Y-9358667D02*
X14095953Y-9377714D01*
X14095953Y-9377714D02*
X14095953Y-9396762D01*
X14095953Y-9396762D02*
X14000714Y-9415810D01*
X14267381Y-9482476D02*
X14267381Y-9282476D01*
X14267381Y-9472952D02*
X14248334Y-9482476D01*
X14248334Y-9482476D02*
X14210238Y-9482476D01*
X14210238Y-9482476D02*
X14191191Y-9472952D01*
X14191191Y-9472952D02*
X14181667Y-9463429D01*
X14181667Y-9463429D02*
X14172143Y-9444381D01*
X14172143Y-9444381D02*
X14172143Y-9387238D01*
X14172143Y-9387238D02*
X14181667Y-9368190D01*
X14181667Y-9368190D02*
X14191191Y-9358667D01*
X14191191Y-9358667D02*
X14210238Y-9349143D01*
X14210238Y-9349143D02*
X14248334Y-9349143D01*
X14248334Y-9349143D02*
X14267381Y-9358667D01*
X14343572Y-9558667D02*
X14353095Y-9549143D01*
X14353095Y-9549143D02*
X14372143Y-9520571D01*
X14372143Y-9520571D02*
X14381667Y-9501524D01*
X14381667Y-9501524D02*
X14391191Y-9472952D01*
X14391191Y-9472952D02*
X14400714Y-9425333D01*
X14400714Y-9425333D02*
X14400714Y-9387238D01*
X14400714Y-9387238D02*
X14391191Y-9339619D01*
X14391191Y-9339619D02*
X14381667Y-9311048D01*
X14381667Y-9311048D02*
X14372143Y-9292000D01*
X14372143Y-9292000D02*
X14353095Y-9263429D01*
X14353095Y-9263429D02*
X14343572Y-9253905D01*
M02*
