%TF.GenerationSoftware,KiCad,Pcbnew,(7.0.0)*%
%TF.CreationDate,2024-01-10T08:15:57+01:00*%
%TF.ProjectId,LED_poi,4c45445f-706f-4692-9e6b-696361645f70,A*%
%TF.SameCoordinates,Original*%
%TF.FileFunction,Paste,Top*%
%TF.FilePolarity,Positive*%
%FSLAX46Y46*%
G04 Gerber Fmt 4.6, Leading zero omitted, Abs format (unit mm)*
G04 Created by KiCad (PCBNEW (7.0.0)) date 2024-01-10 08:15:57*
%MOMM*%
%LPD*%
G01*
G04 APERTURE LIST*
G04 Aperture macros list*
%AMRoundRect*
0 Rectangle with rounded corners*
0 $1 Rounding radius*
0 $2 $3 $4 $5 $6 $7 $8 $9 X,Y pos of 4 corners*
0 Add a 4 corners polygon primitive as box body*
4,1,4,$2,$3,$4,$5,$6,$7,$8,$9,$2,$3,0*
0 Add four circle primitives for the rounded corners*
1,1,$1+$1,$2,$3*
1,1,$1+$1,$4,$5*
1,1,$1+$1,$6,$7*
1,1,$1+$1,$8,$9*
0 Add four rect primitives between the rounded corners*
20,1,$1+$1,$2,$3,$4,$5,0*
20,1,$1+$1,$4,$5,$6,$7,0*
20,1,$1+$1,$6,$7,$8,$9,0*
20,1,$1+$1,$8,$9,$2,$3,0*%
G04 Aperture macros list end*
%ADD10RoundRect,0.225000X-0.250000X0.225000X-0.250000X-0.225000X0.250000X-0.225000X0.250000X0.225000X0*%
%ADD11RoundRect,0.150000X-0.150000X0.587500X-0.150000X-0.587500X0.150000X-0.587500X0.150000X0.587500X0*%
%ADD12RoundRect,0.250000X-0.475000X0.250000X-0.475000X-0.250000X0.475000X-0.250000X0.475000X0.250000X0*%
%ADD13R,0.900000X0.900000*%
%ADD14R,0.889000X1.270000*%
%ADD15R,1.447800X0.787400*%
%ADD16RoundRect,0.250000X-0.262500X-0.450000X0.262500X-0.450000X0.262500X0.450000X-0.262500X0.450000X0*%
%ADD17RoundRect,0.250000X0.250000X0.475000X-0.250000X0.475000X-0.250000X-0.475000X0.250000X-0.475000X0*%
%ADD18RoundRect,0.225000X0.225000X0.250000X-0.225000X0.250000X-0.225000X-0.250000X0.225000X-0.250000X0*%
%ADD19RoundRect,0.250000X-0.450000X0.262500X-0.450000X-0.262500X0.450000X-0.262500X0.450000X0.262500X0*%
%ADD20R,1.200000X1.400000*%
%ADD21RoundRect,0.150000X0.150000X-0.587500X0.150000X0.587500X-0.150000X0.587500X-0.150000X-0.587500X0*%
%ADD22R,0.550000X1.500000*%
%ADD23R,1.500000X0.550000*%
%ADD24RoundRect,0.250000X0.262500X0.450000X-0.262500X0.450000X-0.262500X-0.450000X0.262500X-0.450000X0*%
%ADD25RoundRect,0.225000X-0.225000X-0.250000X0.225000X-0.250000X0.225000X0.250000X-0.225000X0.250000X0*%
%ADD26RoundRect,0.225000X0.250000X-0.225000X0.250000X0.225000X-0.250000X0.225000X-0.250000X-0.225000X0*%
%ADD27RoundRect,0.150000X0.587500X0.150000X-0.587500X0.150000X-0.587500X-0.150000X0.587500X-0.150000X0*%
%ADD28RoundRect,0.150000X-0.325000X-0.150000X0.325000X-0.150000X0.325000X0.150000X-0.325000X0.150000X0*%
%ADD29RoundRect,0.150000X-0.150000X-0.325000X0.150000X-0.325000X0.150000X0.325000X-0.150000X0.325000X0*%
%ADD30RoundRect,0.250000X-0.250000X-0.750000X0.250000X-0.750000X0.250000X0.750000X-0.250000X0.750000X0*%
G04 APERTURE END LIST*
D10*
%TO.C,C8*%
X79200000Y-51925000D03*
X79200000Y-53475000D03*
%TD*%
D11*
%TO.C,Q2*%
X84250000Y-74262500D03*
X82350000Y-74262500D03*
X83300000Y-76137500D03*
%TD*%
D12*
%TO.C,C3*%
X101200000Y-58800000D03*
X101200000Y-60700000D03*
%TD*%
D13*
%TO.C,RN1*%
X81899999Y-68299999D03*
X81899999Y-69639999D03*
X81899999Y-70959999D03*
X81899999Y-72299999D03*
X84899999Y-72299999D03*
X84899999Y-70959999D03*
X84899999Y-69639999D03*
X84899999Y-68299999D03*
%TD*%
D14*
%TO.C,SW1*%
X94095499Y-48896999D03*
X89904499Y-48896999D03*
D15*
X95378199Y-47004699D03*
X88621799Y-47004699D03*
%TD*%
D10*
%TO.C,C1*%
X103000000Y-52800000D03*
X103000000Y-54350000D03*
%TD*%
D16*
%TO.C,R5*%
X100600000Y-65300000D03*
X102425000Y-65300000D03*
%TD*%
D17*
%TO.C,C2*%
X92500000Y-73400000D03*
X90600000Y-73400000D03*
%TD*%
D18*
%TO.C,C5*%
X87875000Y-68475000D03*
X86325000Y-68475000D03*
%TD*%
D19*
%TO.C,R6*%
X94200000Y-51087500D03*
X94200000Y-52912500D03*
%TD*%
D20*
%TO.C,Y1*%
X82499999Y-54049999D03*
X82499999Y-51849999D03*
X80899999Y-51849999D03*
X80899999Y-54049999D03*
%TD*%
D21*
%TO.C,Q1*%
X102925000Y-69237500D03*
X104825000Y-69237500D03*
X103875000Y-67362500D03*
%TD*%
D19*
%TO.C,R3*%
X92200000Y-51087500D03*
X92200000Y-52912500D03*
%TD*%
D22*
%TO.C,U1*%
X94799999Y-54999999D03*
X93999999Y-54999999D03*
X93199999Y-54999999D03*
X92399999Y-54999999D03*
X91599999Y-54999999D03*
X90799999Y-54999999D03*
X89999999Y-54999999D03*
X89199999Y-54999999D03*
X88399999Y-54999999D03*
X87599999Y-54999999D03*
X86799999Y-54999999D03*
D23*
X85099999Y-56699999D03*
X85099999Y-57499999D03*
X85099999Y-58299999D03*
X85099999Y-59099999D03*
X85099999Y-59899999D03*
X85099999Y-60699999D03*
X85099999Y-61499999D03*
X85099999Y-62299999D03*
X85099999Y-63099999D03*
X85099999Y-63899999D03*
X85099999Y-64699999D03*
D22*
X86799999Y-66399999D03*
X87599999Y-66399999D03*
X88399999Y-66399999D03*
X89199999Y-66399999D03*
X89999999Y-66399999D03*
X90799999Y-66399999D03*
X91599999Y-66399999D03*
X92399999Y-66399999D03*
X93199999Y-66399999D03*
X93999999Y-66399999D03*
X94799999Y-66399999D03*
D23*
X96499999Y-64699999D03*
X96499999Y-63899999D03*
X96499999Y-63099999D03*
X96499999Y-62299999D03*
X96499999Y-61499999D03*
X96499999Y-60699999D03*
X96499999Y-59899999D03*
X96499999Y-59099999D03*
X96499999Y-58299999D03*
X96499999Y-57499999D03*
X96499999Y-56699999D03*
%TD*%
D24*
%TO.C,R7*%
X99612500Y-74700000D03*
X97787500Y-74700000D03*
%TD*%
D25*
%TO.C,C9*%
X99200000Y-52800000D03*
X100750000Y-52800000D03*
%TD*%
%TO.C,C12*%
X89425000Y-68500000D03*
X90975000Y-68500000D03*
%TD*%
D21*
%TO.C,Q3*%
X78950000Y-76175000D03*
X80850000Y-76175000D03*
X79900000Y-74300000D03*
%TD*%
D16*
%TO.C,R1*%
X97787500Y-72700000D03*
X99612500Y-72700000D03*
%TD*%
D18*
%TO.C,C10*%
X90500000Y-53200000D03*
X88950000Y-53200000D03*
%TD*%
D16*
%TO.C,R4*%
X101887500Y-73700000D03*
X103712500Y-73700000D03*
%TD*%
D26*
%TO.C,C7*%
X84200000Y-53275000D03*
X84200000Y-51725000D03*
%TD*%
D10*
%TO.C,C11*%
X98400000Y-58525000D03*
X98400000Y-60075000D03*
%TD*%
%TO.C,C14*%
X78800000Y-78650000D03*
X78800000Y-80200000D03*
%TD*%
D27*
%TO.C,U2*%
X88737500Y-71950000D03*
X88737500Y-70050000D03*
X86862500Y-71000000D03*
%TD*%
D28*
%TO.C,U3*%
X80400000Y-78900000D03*
X80400000Y-79700000D03*
X80400000Y-80500000D03*
X80400000Y-81300000D03*
X80400000Y-82100000D03*
X80400000Y-82900000D03*
D29*
X81400000Y-82900000D03*
D28*
X82400000Y-82900000D03*
X82400000Y-82100000D03*
X82400000Y-81300000D03*
X82400000Y-80500000D03*
X82400000Y-79700000D03*
X82400000Y-78900000D03*
D29*
X81400000Y-78900000D03*
%TD*%
D24*
%TO.C,R2*%
X104800000Y-71300000D03*
X102975000Y-71300000D03*
%TD*%
D18*
%TO.C,C13*%
X88175000Y-73600000D03*
X86625000Y-73600000D03*
%TD*%
D30*
%TO.C,J12*%
X81800000Y-66100000D03*
%TD*%
D26*
%TO.C,C15*%
X78800000Y-83250000D03*
X78800000Y-81700000D03*
%TD*%
D30*
%TO.C,J13*%
X83300000Y-66100000D03*
%TD*%
D12*
%TO.C,C4*%
X80000000Y-64700000D03*
X80000000Y-66600000D03*
%TD*%
D26*
%TO.C,C6*%
X98800000Y-64850000D03*
X98800000Y-63300000D03*
%TD*%
M02*
