G04 #@! TF.GenerationSoftware,KiCad,Pcbnew,7.0.1-3b83917a11~172~ubuntu22.10.1*
G04 #@! TF.CreationDate,2023-08-26T17:13:59+02:00*
G04 #@! TF.ProjectId,RGB_strip_driver,5247425f-7374-4726-9970-5f6472697665,rev?*
G04 #@! TF.SameCoordinates,Original*
G04 #@! TF.FileFunction,Paste,Top*
G04 #@! TF.FilePolarity,Positive*
%FSLAX46Y46*%
G04 Gerber Fmt 4.6, Leading zero omitted, Abs format (unit mm)*
G04 Created by KiCad (PCBNEW 7.0.1-3b83917a11~172~ubuntu22.10.1) date 2023-08-26 17:13:59*
%MOMM*%
%LPD*%
G01*
G04 APERTURE LIST*
G04 Aperture macros list*
%AMRoundRect*
0 Rectangle with rounded corners*
0 $1 Rounding radius*
0 $2 $3 $4 $5 $6 $7 $8 $9 X,Y pos of 4 corners*
0 Add a 4 corners polygon primitive as box body*
4,1,4,$2,$3,$4,$5,$6,$7,$8,$9,$2,$3,0*
0 Add four circle primitives for the rounded corners*
1,1,$1+$1,$2,$3*
1,1,$1+$1,$4,$5*
1,1,$1+$1,$6,$7*
1,1,$1+$1,$8,$9*
0 Add four rect primitives between the rounded corners*
20,1,$1+$1,$2,$3,$4,$5,0*
20,1,$1+$1,$4,$5,$6,$7,0*
20,1,$1+$1,$6,$7,$8,$9,0*
20,1,$1+$1,$8,$9,$2,$3,0*%
%AMOutline4P*
0 Free polygon, 4 corners , with rotation*
0 The origin of the aperture is its center*
0 number of corners: always 4*
0 $1 to $8 corner X, Y*
0 $9 Rotation angle, in degrees counterclockwise*
0 create outline with 4 corners*
4,1,4,$1,$2,$3,$4,$5,$6,$7,$8,$1,$2,$9*%
G04 Aperture macros list end*
%ADD10RoundRect,0.237500X-0.237500X0.287500X-0.237500X-0.287500X0.237500X-0.287500X0.237500X0.287500X0*%
%ADD11RoundRect,0.237500X-0.287500X-0.237500X0.287500X-0.237500X0.287500X0.237500X-0.287500X0.237500X0*%
%ADD12RoundRect,0.237500X0.287500X0.237500X-0.287500X0.237500X-0.287500X-0.237500X0.287500X-0.237500X0*%
%ADD13RoundRect,0.237500X0.237500X-0.287500X0.237500X0.287500X-0.237500X0.287500X-0.237500X-0.287500X0*%
%ADD14R,1.900000X0.800000*%
%ADD15R,2.500000X1.000000*%
%ADD16Outline4P,-1.000000X-0.375000X1.000000X-0.375000X0.500000X0.375000X-0.500000X0.375000X90.000000*%
%ADD17R,4.000000X2.000000*%
%ADD18RoundRect,0.150000X0.825000X0.150000X-0.825000X0.150000X-0.825000X-0.150000X0.825000X-0.150000X0*%
%ADD19RoundRect,0.250001X-0.624999X0.462499X-0.624999X-0.462499X0.624999X-0.462499X0.624999X0.462499X0*%
%ADD20RoundRect,0.250000X0.325000X0.450000X-0.325000X0.450000X-0.325000X-0.450000X0.325000X-0.450000X0*%
%ADD21RoundRect,0.125000X0.687500X0.125000X-0.687500X0.125000X-0.687500X-0.125000X0.687500X-0.125000X0*%
%ADD22R,0.889000X1.270000*%
%ADD23R,1.447800X0.787400*%
G04 APERTURE END LIST*
D10*
X124750000Y-128875000D03*
X124750000Y-130625000D03*
X111900000Y-124875000D03*
X111900000Y-126625000D03*
D11*
X117125000Y-138000000D03*
X118875000Y-138000000D03*
D10*
X124750000Y-123125000D03*
X124750000Y-124875000D03*
D12*
X116875000Y-126750000D03*
X115125000Y-126750000D03*
X115125000Y-138000000D03*
X113375000Y-138000000D03*
D13*
X113500000Y-126675000D03*
X113500000Y-124925000D03*
X124750000Y-134875000D03*
X124750000Y-133125000D03*
D14*
X132250000Y-134050000D03*
X132250000Y-135950000D03*
X135250000Y-135000000D03*
D15*
X127270000Y-123000000D03*
X127270000Y-124500000D03*
D16*
X128880000Y-124500000D03*
D17*
X131230000Y-124500000D03*
D15*
X127270000Y-126000000D03*
D14*
X132250000Y-128050000D03*
X132250000Y-129950000D03*
X135250000Y-129000000D03*
D18*
X121575000Y-132405000D03*
X121575000Y-131135000D03*
X121575000Y-129865000D03*
X121575000Y-128595000D03*
X116625000Y-128595000D03*
X116625000Y-129865000D03*
X116625000Y-131135000D03*
X116625000Y-132405000D03*
D19*
X139100000Y-135012500D03*
X139100000Y-137987500D03*
X141600000Y-135025000D03*
X141600000Y-138000000D03*
D15*
X127290000Y-129000000D03*
X127290000Y-130500000D03*
D16*
X128900000Y-130500000D03*
D17*
X131250000Y-130500000D03*
D15*
X127290000Y-132000000D03*
D20*
X114025000Y-122500000D03*
X111975000Y-122500000D03*
D19*
X122750000Y-134512500D03*
X122750000Y-137487500D03*
D21*
X118612500Y-136225000D03*
X118612500Y-135575000D03*
X118612500Y-134925000D03*
X118612500Y-134275000D03*
X114387500Y-134275000D03*
X114387500Y-134925000D03*
X114387500Y-135575000D03*
X114387500Y-136225000D03*
D19*
X144100000Y-135012500D03*
X144100000Y-137987500D03*
X111250000Y-135262500D03*
X111250000Y-138237500D03*
D15*
X127270000Y-135000000D03*
X127270000Y-136500000D03*
D16*
X128880000Y-136500000D03*
D17*
X131230000Y-136500000D03*
D15*
X127270000Y-138000000D03*
D14*
X132250000Y-122050000D03*
X132250000Y-123950000D03*
X135250000Y-123000000D03*
D12*
X114375000Y-132500000D03*
X112625000Y-132500000D03*
D10*
X120750000Y-135925000D03*
X120750000Y-137675000D03*
D11*
X118525000Y-126750000D03*
X120275000Y-126750000D03*
D22*
X121595500Y-124897000D03*
X117404500Y-124897000D03*
D23*
X122878200Y-123004700D03*
X116121800Y-123004700D03*
D12*
X103625000Y-129000000D03*
X101875000Y-129000000D03*
M02*
