G04 #@! TF.GenerationSoftware,KiCad,Pcbnew,7.0.1-3b83917a11~172~ubuntu22.10.1*
G04 #@! TF.CreationDate,2023-08-26T17:13:58+02:00*
G04 #@! TF.ProjectId,RGB_strip_driver,5247425f-7374-4726-9970-5f6472697665,rev?*
G04 #@! TF.SameCoordinates,Original*
G04 #@! TF.FileFunction,Copper,L1,Top*
G04 #@! TF.FilePolarity,Positive*
%FSLAX46Y46*%
G04 Gerber Fmt 4.6, Leading zero omitted, Abs format (unit mm)*
G04 Created by KiCad (PCBNEW 7.0.1-3b83917a11~172~ubuntu22.10.1) date 2023-08-26 17:13:58*
%MOMM*%
%LPD*%
G01*
G04 APERTURE LIST*
G04 Aperture macros list*
%AMRoundRect*
0 Rectangle with rounded corners*
0 $1 Rounding radius*
0 $2 $3 $4 $5 $6 $7 $8 $9 X,Y pos of 4 corners*
0 Add a 4 corners polygon primitive as box body*
4,1,4,$2,$3,$4,$5,$6,$7,$8,$9,$2,$3,0*
0 Add four circle primitives for the rounded corners*
1,1,$1+$1,$2,$3*
1,1,$1+$1,$4,$5*
1,1,$1+$1,$6,$7*
1,1,$1+$1,$8,$9*
0 Add four rect primitives between the rounded corners*
20,1,$1+$1,$2,$3,$4,$5,0*
20,1,$1+$1,$4,$5,$6,$7,0*
20,1,$1+$1,$6,$7,$8,$9,0*
20,1,$1+$1,$8,$9,$2,$3,0*%
%AMOutline4P*
0 Free polygon, 4 corners , with rotation*
0 The origin of the aperture is its center*
0 number of corners: always 4*
0 $1 to $8 corner X, Y*
0 $9 Rotation angle, in degrees counterclockwise*
0 create outline with 4 corners*
4,1,4,$1,$2,$3,$4,$5,$6,$7,$8,$1,$2,$9*%
G04 Aperture macros list end*
G04 #@! TA.AperFunction,SMDPad,CuDef*
%ADD10RoundRect,0.237500X-0.237500X0.287500X-0.237500X-0.287500X0.237500X-0.287500X0.237500X0.287500X0*%
G04 #@! TD*
G04 #@! TA.AperFunction,SMDPad,CuDef*
%ADD11RoundRect,0.237500X-0.287500X-0.237500X0.287500X-0.237500X0.287500X0.237500X-0.287500X0.237500X0*%
G04 #@! TD*
G04 #@! TA.AperFunction,SMDPad,CuDef*
%ADD12RoundRect,0.237500X0.287500X0.237500X-0.287500X0.237500X-0.287500X-0.237500X0.287500X-0.237500X0*%
G04 #@! TD*
G04 #@! TA.AperFunction,SMDPad,CuDef*
%ADD13RoundRect,0.237500X0.237500X-0.287500X0.237500X0.287500X-0.237500X0.287500X-0.237500X-0.287500X0*%
G04 #@! TD*
G04 #@! TA.AperFunction,SMDPad,CuDef*
%ADD14R,1.900000X0.800000*%
G04 #@! TD*
G04 #@! TA.AperFunction,SMDPad,CuDef*
%ADD15R,2.500000X1.000000*%
G04 #@! TD*
G04 #@! TA.AperFunction,SMDPad,CuDef*
%ADD16Outline4P,-1.000000X-0.375000X1.000000X-0.375000X0.500000X0.375000X-0.500000X0.375000X90.000000*%
G04 #@! TD*
G04 #@! TA.AperFunction,SMDPad,CuDef*
%ADD17R,4.000000X2.000000*%
G04 #@! TD*
G04 #@! TA.AperFunction,ComponentPad*
%ADD18R,1.700000X1.700000*%
G04 #@! TD*
G04 #@! TA.AperFunction,ComponentPad*
%ADD19O,1.700000X1.700000*%
G04 #@! TD*
G04 #@! TA.AperFunction,SMDPad,CuDef*
%ADD20RoundRect,0.150000X0.825000X0.150000X-0.825000X0.150000X-0.825000X-0.150000X0.825000X-0.150000X0*%
G04 #@! TD*
G04 #@! TA.AperFunction,SMDPad,CuDef*
%ADD21RoundRect,0.250001X-0.624999X0.462499X-0.624999X-0.462499X0.624999X-0.462499X0.624999X0.462499X0*%
G04 #@! TD*
G04 #@! TA.AperFunction,SMDPad,CuDef*
%ADD22RoundRect,0.250000X0.325000X0.450000X-0.325000X0.450000X-0.325000X-0.450000X0.325000X-0.450000X0*%
G04 #@! TD*
G04 #@! TA.AperFunction,SMDPad,CuDef*
%ADD23RoundRect,0.125000X0.687500X0.125000X-0.687500X0.125000X-0.687500X-0.125000X0.687500X-0.125000X0*%
G04 #@! TD*
G04 #@! TA.AperFunction,ConnectorPad*
%ADD24C,0.787400*%
G04 #@! TD*
G04 #@! TA.AperFunction,SMDPad,CuDef*
%ADD25R,0.889000X1.270000*%
G04 #@! TD*
G04 #@! TA.AperFunction,SMDPad,CuDef*
%ADD26R,1.447800X0.787400*%
G04 #@! TD*
G04 #@! TA.AperFunction,ComponentPad*
%ADD27C,2.340000*%
G04 #@! TD*
G04 #@! TA.AperFunction,ViaPad*
%ADD28C,0.800000*%
G04 #@! TD*
G04 #@! TA.AperFunction,Conductor*
%ADD29C,0.800000*%
G04 #@! TD*
G04 #@! TA.AperFunction,Conductor*
%ADD30C,0.500000*%
G04 #@! TD*
G04 #@! TA.AperFunction,Conductor*
%ADD31C,1.000000*%
G04 #@! TD*
G04 #@! TA.AperFunction,Conductor*
%ADD32C,0.350000*%
G04 #@! TD*
G04 APERTURE END LIST*
D10*
X124750000Y-128875000D03*
X124750000Y-130625000D03*
X111900000Y-124875000D03*
X111900000Y-126625000D03*
D11*
X117125000Y-138000000D03*
X118875000Y-138000000D03*
D10*
X124750000Y-123125000D03*
X124750000Y-124875000D03*
D12*
X116875000Y-126750000D03*
X115125000Y-126750000D03*
X115125000Y-138000000D03*
X113375000Y-138000000D03*
D13*
X113500000Y-126675000D03*
X113500000Y-124925000D03*
X124750000Y-134875000D03*
X124750000Y-133125000D03*
D14*
X132250000Y-134050000D03*
X132250000Y-135950000D03*
X135250000Y-135000000D03*
D15*
X127270000Y-123000000D03*
X127270000Y-124500000D03*
D16*
X128880000Y-124500000D03*
D17*
X131230000Y-124500000D03*
D15*
X127270000Y-126000000D03*
D14*
X132250000Y-128050000D03*
X132250000Y-129950000D03*
X135250000Y-129000000D03*
D18*
X145000000Y-130500000D03*
D19*
X142460000Y-130500000D03*
D20*
X121575000Y-132405000D03*
X121575000Y-131135000D03*
X121575000Y-129865000D03*
X121575000Y-128595000D03*
X116625000Y-128595000D03*
X116625000Y-129865000D03*
X116625000Y-131135000D03*
X116625000Y-132405000D03*
D21*
X139100000Y-135012500D03*
X139100000Y-137987500D03*
X141600000Y-135025000D03*
X141600000Y-138000000D03*
D15*
X127290000Y-129000000D03*
X127290000Y-130500000D03*
D16*
X128900000Y-130500000D03*
D17*
X131250000Y-130500000D03*
D15*
X127290000Y-132000000D03*
D22*
X114025000Y-122500000D03*
X111975000Y-122500000D03*
D21*
X122750000Y-134512500D03*
X122750000Y-137487500D03*
D23*
X118612500Y-136225000D03*
X118612500Y-135575000D03*
X118612500Y-134925000D03*
X118612500Y-134275000D03*
X114387500Y-134275000D03*
X114387500Y-134925000D03*
X114387500Y-135575000D03*
X114387500Y-136225000D03*
D21*
X144100000Y-135012500D03*
X144100000Y-137987500D03*
X111250000Y-135262500D03*
X111250000Y-138237500D03*
D15*
X127270000Y-135000000D03*
X127270000Y-136500000D03*
D16*
X128880000Y-136500000D03*
D17*
X131230000Y-136500000D03*
D15*
X127270000Y-138000000D03*
D24*
X109500000Y-129565000D03*
X109500000Y-130835000D03*
X108230000Y-129565000D03*
X108230000Y-130835000D03*
X106960000Y-129565000D03*
X106960000Y-130835000D03*
D14*
X132250000Y-122050000D03*
X132250000Y-123950000D03*
X135250000Y-123000000D03*
D18*
X138500000Y-132250000D03*
D19*
X138500000Y-129710000D03*
X138500000Y-127170000D03*
X138500000Y-124630000D03*
D12*
X114375000Y-132500000D03*
X112625000Y-132500000D03*
D10*
X120750000Y-135925000D03*
X120750000Y-137675000D03*
D11*
X118525000Y-126750000D03*
X120275000Y-126750000D03*
D25*
X121595500Y-124897000D03*
X117404500Y-124897000D03*
D26*
X122878200Y-123004700D03*
X116121800Y-123004700D03*
D27*
X108750000Y-123000000D03*
X106250000Y-125500000D03*
X103750000Y-123000000D03*
D12*
X103625000Y-129000000D03*
X101875000Y-129000000D03*
D28*
X145700000Y-138600000D03*
X140300000Y-139000000D03*
X142900000Y-139000000D03*
X129750000Y-124500000D03*
X124610000Y-136910000D03*
X129750000Y-130500000D03*
X131750000Y-124500000D03*
X131750000Y-130500000D03*
X145700000Y-137600000D03*
X137500000Y-138600000D03*
X132750000Y-130500000D03*
X130750000Y-124500000D03*
X120250000Y-134250000D03*
X129750000Y-136500000D03*
X118400000Y-132400000D03*
X132750000Y-124500000D03*
X112500000Y-137300000D03*
X137500000Y-137600000D03*
X121800000Y-126600000D03*
X132750000Y-136500000D03*
X130750000Y-130500000D03*
X114025000Y-123725000D03*
X130750000Y-136500000D03*
X108200000Y-128300000D03*
X109600000Y-138400000D03*
X131750000Y-136500000D03*
X119250000Y-129950000D03*
X109500000Y-132000000D03*
X110750001Y-128249999D03*
X123350000Y-127850000D03*
D29*
X122878200Y-123004700D02*
X116121800Y-123004700D01*
D30*
X114025000Y-123725000D02*
X114025000Y-124400000D01*
D31*
X124610000Y-136910000D02*
X124020000Y-137500000D01*
D30*
X109600000Y-138400000D02*
X111087500Y-138400000D01*
D31*
X127290000Y-130500000D02*
X131250000Y-130500000D01*
X127270000Y-136500000D02*
X129750000Y-136500000D01*
D30*
X137500000Y-138600000D02*
X138487500Y-138600000D01*
X112500000Y-138000000D02*
X111487500Y-138000000D01*
X114025000Y-124400000D02*
X113500000Y-124925000D01*
D31*
X124020000Y-137500000D02*
X124007500Y-137487500D01*
D30*
X113375000Y-138000000D02*
X112500000Y-138000000D01*
X101875000Y-129000000D02*
X101875000Y-124875000D01*
X116625000Y-132405000D02*
X114470000Y-132405000D01*
D29*
X121800000Y-126600000D02*
X121800000Y-125101500D01*
D30*
X138487500Y-138600000D02*
X139100000Y-137987500D01*
D31*
X125020000Y-136500000D02*
X124610000Y-136910000D01*
D30*
X137500000Y-137600000D02*
X138712500Y-137600000D01*
X120750000Y-137675000D02*
X122562500Y-137675000D01*
X111487500Y-138000000D02*
X111250000Y-138237500D01*
X118400000Y-132400000D02*
X116630000Y-132400000D01*
D31*
X124007500Y-137487500D02*
X122750000Y-137487500D01*
X144100000Y-137987500D02*
X139100000Y-137987500D01*
D30*
X111087500Y-138400000D02*
X111250000Y-138237500D01*
X108230000Y-129565000D02*
X108230000Y-128330000D01*
X114025000Y-122500000D02*
X114025000Y-123725000D01*
X112500000Y-137300000D02*
X112500000Y-138000000D01*
X122562500Y-137675000D02*
X122750000Y-137487500D01*
X108230000Y-128330000D02*
X108200000Y-128300000D01*
D31*
X127270000Y-124500000D02*
X131230000Y-124500000D01*
D30*
X114470000Y-132405000D02*
X114375000Y-132500000D01*
X138712500Y-137600000D02*
X139100000Y-137987500D01*
D29*
X121800000Y-125101500D02*
X121595500Y-124897000D01*
D30*
X116625000Y-132405000D02*
X118444990Y-134224990D01*
X101875000Y-124875000D02*
X103750000Y-123000000D01*
D31*
X127270000Y-136500000D02*
X125020000Y-136500000D01*
D30*
X116630000Y-132400000D02*
X116625000Y-132405000D01*
X137500000Y-138600000D02*
X137500000Y-137600000D01*
X103625000Y-128125000D02*
X106250000Y-125500000D01*
X108230000Y-130835000D02*
X108230000Y-132970000D01*
X111865000Y-131135000D02*
X116625000Y-131135000D01*
X103625000Y-131325000D02*
X105300000Y-133000000D01*
X103625000Y-129000000D02*
X103625000Y-128125000D01*
X108230000Y-132970000D02*
X108200000Y-133000000D01*
X103625000Y-129000000D02*
X103625000Y-131325000D01*
X105300000Y-133000000D02*
X108200000Y-133000000D01*
X110000000Y-133000000D02*
X111865000Y-131135000D01*
X108200000Y-133000000D02*
X110000000Y-133000000D01*
X112725000Y-135575000D02*
X111562500Y-135575000D01*
X136649999Y-136250001D02*
X137887500Y-135012500D01*
D31*
X138500000Y-132250000D02*
X140710000Y-132250000D01*
D30*
X137887500Y-135012500D02*
X139100000Y-135012500D01*
X136649999Y-137850001D02*
X136649999Y-136250001D01*
X135300000Y-139200000D02*
X136649999Y-137850001D01*
X114387500Y-135575000D02*
X112725000Y-135575000D01*
D31*
X139100000Y-135012500D02*
X139100000Y-132850000D01*
D30*
X115850000Y-139200000D02*
X135300000Y-139200000D01*
D31*
X140710000Y-132250000D02*
X142460000Y-130500000D01*
X139100000Y-132850000D02*
X138500000Y-132250000D01*
D30*
X115125000Y-138000000D02*
X115125000Y-138475000D01*
D32*
X114387500Y-134925000D02*
X114387500Y-136225000D01*
D30*
X115125000Y-138000000D02*
X115125000Y-136962500D01*
X111562500Y-135575000D02*
X111250000Y-135262500D01*
X115125000Y-138475000D02*
X115850000Y-139200000D01*
D31*
X139100000Y-135012500D02*
X144100000Y-135012500D01*
D30*
X115125000Y-136962500D02*
X114387500Y-136225000D01*
X113500000Y-127500000D02*
X114595000Y-128595000D01*
X115050000Y-126675000D02*
X115125000Y-126750000D01*
X113500000Y-126675000D02*
X113500000Y-127500000D01*
X114595000Y-128595000D02*
X116625000Y-128595000D01*
X113500000Y-126675000D02*
X115050000Y-126675000D01*
X109500000Y-132000000D02*
X109500000Y-132000000D01*
X119250000Y-128350000D02*
X119250000Y-129950000D01*
X119250000Y-129950000D02*
X119250000Y-131250000D01*
X118612500Y-135575000D02*
X120625000Y-135575000D01*
X119250000Y-131250000D02*
X120405000Y-132405000D01*
X118875000Y-138000000D02*
X118875000Y-136487500D01*
X121575000Y-134625000D02*
X121575000Y-132405000D01*
X121687500Y-134512500D02*
X121575000Y-134625000D01*
X109500000Y-130835000D02*
X109500000Y-132000000D01*
X120625000Y-135575000D02*
X121575000Y-134625000D01*
X119250000Y-128250000D02*
X119250000Y-128350000D01*
X120405000Y-132405000D02*
X121575000Y-132405000D01*
X122750000Y-134512500D02*
X121687500Y-134512500D01*
X118612500Y-136225000D02*
X118612500Y-134975010D01*
X120275000Y-127225000D02*
X119250000Y-128250000D01*
X120275000Y-126750000D02*
X120275000Y-127225000D01*
X118875000Y-136487500D02*
X118612500Y-136225000D01*
X111900000Y-128600000D02*
X113165000Y-129865000D01*
X106960000Y-127740000D02*
X106960000Y-129565000D01*
X108075000Y-126625000D02*
X106960000Y-127740000D01*
X111900000Y-126625000D02*
X111900000Y-128600000D01*
X111900000Y-126625000D02*
X108075000Y-126625000D01*
X113165000Y-129865000D02*
X116625000Y-129865000D01*
X122760000Y-131135000D02*
X121575000Y-131135000D01*
X124750000Y-133125000D02*
X122760000Y-131135000D01*
D29*
X136120000Y-124370000D02*
X136120000Y-124630000D01*
D31*
X136120000Y-124630000D02*
X138500000Y-124630000D01*
X128520000Y-126500000D02*
X134250000Y-126500000D01*
X128020000Y-126000000D02*
X128520000Y-126500000D01*
D29*
X135250000Y-123500000D02*
X136120000Y-124370000D01*
D31*
X134250000Y-126500000D02*
X136120000Y-124630000D01*
D29*
X135250000Y-123000000D02*
X135250000Y-123500000D01*
D31*
X127270000Y-126000000D02*
X128020000Y-126000000D01*
X135250000Y-130750000D02*
X135250000Y-129000000D01*
X127290000Y-132000000D02*
X128040000Y-132000000D01*
X133250000Y-132750000D02*
X135250000Y-130750000D01*
X135250000Y-128500000D02*
X136580000Y-127170000D01*
X128040000Y-132000000D02*
X128790000Y-132750000D01*
X135250000Y-129000000D02*
X135250000Y-128500000D01*
X128790000Y-132750000D02*
X133250000Y-132750000D01*
X136580000Y-127170000D02*
X138500000Y-127170000D01*
X135250000Y-137250000D02*
X135250000Y-136400000D01*
X127270000Y-138000000D02*
X127519989Y-138249989D01*
X138040000Y-129710000D02*
X138500000Y-129710000D01*
X134250011Y-138249989D02*
X135250000Y-137250000D01*
X135250000Y-136400000D02*
X135250000Y-135000000D01*
X127519989Y-138249989D02*
X134250011Y-138249989D01*
X135250000Y-132500000D02*
X138040000Y-129710000D01*
X135250000Y-135000000D02*
X135250000Y-132500000D01*
D29*
X117404500Y-124897000D02*
X117404500Y-126220500D01*
X117404500Y-126220500D02*
X116875000Y-126750000D01*
D30*
X118525000Y-126750000D02*
X116875000Y-126750000D01*
X123365000Y-129865000D02*
X124125000Y-130625000D01*
X124125000Y-130625000D02*
X124750000Y-130625000D01*
X121575000Y-129865000D02*
X123365000Y-129865000D01*
X123350000Y-127850000D02*
X122605000Y-128595000D01*
X122605000Y-128595000D02*
X121575000Y-128595000D01*
X124750000Y-126450000D02*
X123350000Y-127850000D01*
X109500000Y-129500000D02*
X110750001Y-128249999D01*
X124750000Y-124875000D02*
X124750000Y-126450000D01*
X109500000Y-129565000D02*
X109500000Y-129500000D01*
X111900000Y-124875000D02*
X111900000Y-122575000D01*
X111900000Y-122575000D02*
X111975000Y-122500000D01*
D29*
X128649998Y-135000000D02*
X129599998Y-134050000D01*
X127270000Y-135000000D02*
X128649998Y-135000000D01*
X127270000Y-135000000D02*
X124875000Y-135000000D01*
X129599998Y-134050000D02*
X132250000Y-134050000D01*
X124875000Y-135000000D02*
X124750000Y-134875000D01*
X127290000Y-129000000D02*
X124875000Y-129000000D01*
X128990000Y-128050000D02*
X132250000Y-128050000D01*
X127290000Y-129000000D02*
X128040000Y-129000000D01*
X128040000Y-129000000D02*
X128990000Y-128050000D01*
X124875000Y-129000000D02*
X124750000Y-128875000D01*
X127270000Y-123000000D02*
X128020000Y-123000000D01*
X127270000Y-123000000D02*
X124875000Y-123000000D01*
X128020000Y-123000000D02*
X128970000Y-122050000D01*
X124875000Y-123000000D02*
X124750000Y-123125000D01*
X128970000Y-122050000D02*
X132250000Y-122050000D01*
D32*
X114387500Y-134275000D02*
X113275000Y-134275000D01*
X113275000Y-134275000D02*
X112625000Y-133625000D01*
X112625000Y-133625000D02*
X112625000Y-132500000D01*
X115975000Y-134275000D02*
X117125000Y-135425000D01*
X114387500Y-134275000D02*
X115975000Y-134275000D01*
X117125000Y-135425000D02*
X117125000Y-138000000D01*
G04 #@! TA.AperFunction,Conductor*
G36*
X144503300Y-121025672D02*
G01*
X144804319Y-121041449D01*
X144817436Y-121042827D01*
X145111911Y-121089467D01*
X145124811Y-121092209D01*
X145412799Y-121169374D01*
X145425332Y-121173447D01*
X145628190Y-121251317D01*
X145703672Y-121280292D01*
X145715719Y-121285656D01*
X145981368Y-121421010D01*
X145992785Y-121427601D01*
X146242838Y-121589988D01*
X146253495Y-121597732D01*
X146413452Y-121727262D01*
X146485197Y-121785360D01*
X146494998Y-121794185D01*
X146705814Y-122005001D01*
X146714639Y-122014802D01*
X146884175Y-122224162D01*
X146902263Y-122246498D01*
X146910013Y-122257164D01*
X146923332Y-122277674D01*
X147072394Y-122507208D01*
X147078989Y-122518631D01*
X147214343Y-122784280D01*
X147219707Y-122796327D01*
X147326550Y-123074661D01*
X147330626Y-123087205D01*
X147407790Y-123375188D01*
X147410532Y-123388088D01*
X147457172Y-123682563D01*
X147458550Y-123695679D01*
X147471784Y-123948180D01*
X147474036Y-123991156D01*
X147474327Y-123996698D01*
X147474500Y-124003293D01*
X147474500Y-136996707D01*
X147474327Y-137003302D01*
X147458550Y-137304320D01*
X147457172Y-137317436D01*
X147410532Y-137611911D01*
X147407790Y-137624811D01*
X147330626Y-137912794D01*
X147326550Y-137925338D01*
X147219707Y-138203672D01*
X147214343Y-138215719D01*
X147078989Y-138481368D01*
X147072394Y-138492791D01*
X146910015Y-138742832D01*
X146902263Y-138753501D01*
X146714639Y-138985197D01*
X146705814Y-138994998D01*
X146494998Y-139205814D01*
X146485197Y-139214639D01*
X146253501Y-139402263D01*
X146242832Y-139410015D01*
X145992791Y-139572394D01*
X145981368Y-139578989D01*
X145715719Y-139714343D01*
X145703672Y-139719707D01*
X145425338Y-139826550D01*
X145412794Y-139830626D01*
X145124811Y-139907790D01*
X145111911Y-139910532D01*
X144817436Y-139957172D01*
X144804320Y-139958550D01*
X144520488Y-139973426D01*
X144503299Y-139974327D01*
X144496707Y-139974500D01*
X135904192Y-139974500D01*
X135847644Y-139961098D01*
X135803125Y-139923743D01*
X135780107Y-139870382D01*
X135783485Y-139812365D01*
X135812541Y-139762036D01*
X135842927Y-139729827D01*
X135845448Y-139727231D01*
X137140776Y-138431903D01*
X137154623Y-138419937D01*
X137174057Y-138405470D01*
X137206225Y-138367132D01*
X137213641Y-138359038D01*
X137217580Y-138355101D01*
X137237011Y-138330524D01*
X137239285Y-138327732D01*
X137288031Y-138269641D01*
X137288032Y-138269637D01*
X137288889Y-138268617D01*
X137299401Y-138252118D01*
X137303154Y-138244069D01*
X137332035Y-138182132D01*
X137333543Y-138179016D01*
X137367608Y-138111189D01*
X137367609Y-138111180D01*
X137368211Y-138109984D01*
X137374633Y-138091510D01*
X137390237Y-138015936D01*
X137391021Y-138012398D01*
X137408499Y-137938657D01*
X137408499Y-137938655D01*
X137408807Y-137937356D01*
X137410796Y-137917886D01*
X137410757Y-137916561D01*
X137410758Y-137916559D01*
X137408552Y-137840742D01*
X137408499Y-137837078D01*
X137408499Y-136639500D01*
X137425380Y-136576500D01*
X137471499Y-136530381D01*
X137534499Y-136513500D01*
X145074000Y-136513500D01*
X145206905Y-136496003D01*
X145269905Y-136479122D01*
X145393751Y-136427823D01*
X145500099Y-136346218D01*
X145546218Y-136300099D01*
X145627823Y-136193751D01*
X145679122Y-136069905D01*
X145696003Y-136006905D01*
X145713500Y-135874000D01*
X145713500Y-134052190D01*
X145713492Y-134052113D01*
X145703635Y-133952021D01*
X145703634Y-133952018D01*
X145703634Y-133952013D01*
X145694043Y-133903795D01*
X145664820Y-133807461D01*
X145617364Y-133718680D01*
X145590050Y-133677803D01*
X145526194Y-133599996D01*
X144150402Y-132224205D01*
X144123091Y-132183331D01*
X144113500Y-132135113D01*
X144113500Y-131984000D01*
X144130381Y-131921000D01*
X144176500Y-131874881D01*
X144239500Y-131858000D01*
X144746000Y-131858000D01*
X144746000Y-130754000D01*
X145254000Y-130754000D01*
X145254000Y-131858000D01*
X145898589Y-131858000D01*
X145959093Y-131851494D01*
X146095962Y-131800445D01*
X146212904Y-131712904D01*
X146300445Y-131595962D01*
X146351494Y-131459093D01*
X146358000Y-131398589D01*
X146358000Y-130754000D01*
X145254000Y-130754000D01*
X144746000Y-130754000D01*
X144746000Y-129142000D01*
X145254000Y-129142000D01*
X145254000Y-130246000D01*
X146358000Y-130246000D01*
X146358000Y-129601411D01*
X146351494Y-129540906D01*
X146300445Y-129404037D01*
X146212904Y-129287095D01*
X146095962Y-129199554D01*
X145959093Y-129148505D01*
X145898589Y-129142000D01*
X145254000Y-129142000D01*
X144746000Y-129142000D01*
X144101411Y-129142000D01*
X144040906Y-129148505D01*
X143904037Y-129199554D01*
X143787095Y-129287095D01*
X143699554Y-129404036D01*
X143655381Y-129522470D01*
X143618849Y-129574509D01*
X143561558Y-129602085D01*
X143498096Y-129598175D01*
X143444624Y-129563774D01*
X143383240Y-129497093D01*
X143205578Y-129358812D01*
X143007573Y-129251657D01*
X142806493Y-129182627D01*
X142794635Y-129178556D01*
X142572569Y-129141500D01*
X142347431Y-129141500D01*
X142125365Y-129178556D01*
X142125362Y-129178556D01*
X142125362Y-129178557D01*
X141912426Y-129251657D01*
X141802990Y-129310881D01*
X141750827Y-129325825D01*
X141697217Y-129317447D01*
X141652103Y-129287301D01*
X141628061Y-129262244D01*
X141628060Y-129262243D01*
X141628056Y-129262239D01*
X141520389Y-129176637D01*
X141520387Y-129176636D01*
X141520386Y-129176635D01*
X141393847Y-129122683D01*
X141393846Y-129122682D01*
X141393842Y-129122681D01*
X141329354Y-129104925D01*
X141329351Y-129104924D01*
X141329349Y-129104924D01*
X141193034Y-129086500D01*
X140852190Y-129086500D01*
X140852185Y-129086500D01*
X140752021Y-129096364D01*
X140727582Y-129101225D01*
X140703795Y-129105957D01*
X140607469Y-129135177D01*
X140607466Y-129135178D01*
X140518693Y-129182627D01*
X140498647Y-129196021D01*
X140477821Y-129209936D01*
X140457886Y-129226295D01*
X140399998Y-129273802D01*
X140063073Y-129610726D01*
X140001108Y-129644675D01*
X139930611Y-129639932D01*
X139873752Y-129597989D01*
X139848409Y-129532037D01*
X139844564Y-129485632D01*
X139789296Y-129267384D01*
X139698860Y-129061209D01*
X139575722Y-128872732D01*
X139423240Y-128707094D01*
X139423239Y-128707093D01*
X139423237Y-128707091D01*
X139245579Y-128568813D01*
X139245577Y-128568812D01*
X139245576Y-128568811D01*
X139212317Y-128550812D01*
X139164047Y-128504498D01*
X139146288Y-128440000D01*
X139164047Y-128375502D01*
X139212317Y-128329187D01*
X139245576Y-128311189D01*
X139423240Y-128172906D01*
X139575722Y-128007268D01*
X139698860Y-127818791D01*
X139789296Y-127612616D01*
X139844564Y-127394368D01*
X139863156Y-127170000D01*
X139844564Y-126945632D01*
X139789296Y-126727384D01*
X139698860Y-126521209D01*
X139575722Y-126332732D01*
X139423240Y-126167094D01*
X139423239Y-126167093D01*
X139423237Y-126167091D01*
X139245578Y-126028812D01*
X139212317Y-126010812D01*
X139164046Y-125964495D01*
X139146288Y-125899997D01*
X139164049Y-125835499D01*
X139212317Y-125789187D01*
X139245576Y-125771189D01*
X139423240Y-125632906D01*
X139575722Y-125467268D01*
X139698860Y-125278791D01*
X139789296Y-125072616D01*
X139844564Y-124854368D01*
X139863156Y-124630000D01*
X139857999Y-124567766D01*
X142145787Y-124567766D01*
X142175413Y-124837015D01*
X142175414Y-124837018D01*
X142243928Y-125099088D01*
X142349870Y-125348390D01*
X142490982Y-125579610D01*
X142664255Y-125787820D01*
X142664256Y-125787821D01*
X142664258Y-125787823D01*
X142865993Y-125968578D01*
X142865995Y-125968579D01*
X142865998Y-125968582D01*
X143091910Y-126118044D01*
X143224104Y-126180014D01*
X143337171Y-126233018D01*
X143337173Y-126233018D01*
X143337176Y-126233020D01*
X143596569Y-126311060D01*
X143596572Y-126311060D01*
X143596574Y-126311061D01*
X143864558Y-126350500D01*
X143864561Y-126350500D01*
X144067630Y-126350500D01*
X144067631Y-126350500D01*
X144270156Y-126335677D01*
X144534553Y-126276780D01*
X144787558Y-126180014D01*
X145023777Y-126047441D01*
X145238177Y-125881888D01*
X145426186Y-125686881D01*
X145583799Y-125466579D01*
X145707656Y-125225675D01*
X145795118Y-124969305D01*
X145844319Y-124702933D01*
X145854212Y-124432235D01*
X145850433Y-124397893D01*
X145830129Y-124213362D01*
X145824586Y-124162982D01*
X145756072Y-123900912D01*
X145650130Y-123651610D01*
X145509018Y-123420390D01*
X145335745Y-123212180D01*
X145230759Y-123118112D01*
X145134006Y-123031421D01*
X145134003Y-123031419D01*
X145134002Y-123031418D01*
X144908090Y-122881956D01*
X144908086Y-122881954D01*
X144662828Y-122766981D01*
X144403425Y-122688938D01*
X144135442Y-122649500D01*
X144135439Y-122649500D01*
X143932369Y-122649500D01*
X143898614Y-122651970D01*
X143729839Y-122664323D01*
X143465449Y-122723219D01*
X143212441Y-122819985D01*
X142976225Y-122952557D01*
X142761820Y-123118114D01*
X142573815Y-123313117D01*
X142416200Y-123533422D01*
X142292342Y-123774328D01*
X142204882Y-124030693D01*
X142155681Y-124297065D01*
X142145787Y-124567766D01*
X139857999Y-124567766D01*
X139844564Y-124405632D01*
X139839327Y-124384953D01*
X139789297Y-124187388D01*
X139789296Y-124187384D01*
X139698860Y-123981209D01*
X139575722Y-123792732D01*
X139423240Y-123627094D01*
X139423239Y-123627093D01*
X139423237Y-123627091D01*
X139245578Y-123488812D01*
X139047573Y-123381657D01*
X138892739Y-123328503D01*
X138834635Y-123308556D01*
X138612569Y-123271500D01*
X138387431Y-123271500D01*
X138165365Y-123308556D01*
X138165362Y-123308556D01*
X138165362Y-123308557D01*
X137952426Y-123381657D01*
X137754421Y-123488812D01*
X137618082Y-123594931D01*
X137581603Y-123614673D01*
X137540691Y-123621500D01*
X136830188Y-123621500D01*
X136763333Y-123602301D01*
X136716853Y-123550555D01*
X136704910Y-123482031D01*
X136708500Y-123448639D01*
X136708500Y-122551362D01*
X136704981Y-122518631D01*
X136701989Y-122490799D01*
X136650889Y-122353796D01*
X136650888Y-122353794D01*
X136563261Y-122236738D01*
X136446205Y-122149111D01*
X136377702Y-122123560D01*
X136309201Y-122098011D01*
X136248638Y-122091500D01*
X134251362Y-122091500D01*
X134190799Y-122098011D01*
X134053794Y-122149111D01*
X133936737Y-122236739D01*
X133935367Y-122238570D01*
X133886841Y-122277674D01*
X133825510Y-122288739D01*
X133766379Y-122269058D01*
X133723912Y-122223445D01*
X133708500Y-122163060D01*
X133708500Y-121601362D01*
X133707277Y-121589984D01*
X133701989Y-121540799D01*
X133650889Y-121403796D01*
X133650888Y-121403794D01*
X133563261Y-121286738D01*
X133517348Y-121252368D01*
X133478243Y-121203842D01*
X133467178Y-121142511D01*
X133486859Y-121083379D01*
X133532472Y-121040912D01*
X133592857Y-121025500D01*
X144491715Y-121025500D01*
X144496707Y-121025500D01*
X144503300Y-121025672D01*
G37*
G04 #@! TD.AperFunction*
G04 #@! TA.AperFunction,Conductor*
G36*
X128518861Y-121043046D02*
G01*
X128565136Y-121090798D01*
X128580660Y-121155456D01*
X128561109Y-121219012D01*
X128511928Y-121263765D01*
X128472468Y-121283871D01*
X128461524Y-121292733D01*
X128445249Y-121303918D01*
X128433060Y-121310956D01*
X128382223Y-121356728D01*
X128377216Y-121361004D01*
X128361259Y-121373927D01*
X128346729Y-121388456D01*
X128341949Y-121392991D01*
X128291133Y-121438746D01*
X128282861Y-121450131D01*
X128270025Y-121465160D01*
X127780592Y-121954595D01*
X127739714Y-121981909D01*
X127691496Y-121991500D01*
X125971362Y-121991500D01*
X125910799Y-121998011D01*
X125773794Y-122049111D01*
X125750744Y-122066367D01*
X125715025Y-122085052D01*
X125675234Y-122091500D01*
X124956416Y-122091500D01*
X124936708Y-122089949D01*
X124929896Y-122088870D01*
X124922810Y-122087748D01*
X124922809Y-122087748D01*
X124854520Y-122091327D01*
X124847926Y-122091500D01*
X124462791Y-122091500D01*
X124360618Y-122101938D01*
X124195080Y-122156791D01*
X124075523Y-122230535D01*
X124028735Y-122247798D01*
X123978915Y-122245557D01*
X123933867Y-122224162D01*
X123848305Y-122160111D01*
X123779802Y-122134561D01*
X123711301Y-122109011D01*
X123650738Y-122102500D01*
X122992356Y-122102500D01*
X122979186Y-122101810D01*
X122925810Y-122096200D01*
X116074190Y-122096200D01*
X116020814Y-122101810D01*
X116007644Y-122102500D01*
X115349262Y-122102500D01*
X115288699Y-122109011D01*
X115151694Y-122160111D01*
X115034638Y-122247738D01*
X114947011Y-122364794D01*
X114900014Y-122490799D01*
X114895911Y-122501799D01*
X114889400Y-122562362D01*
X114889400Y-123447038D01*
X114895911Y-123507601D01*
X114911932Y-123550555D01*
X114947011Y-123644605D01*
X115034638Y-123761661D01*
X115151694Y-123849288D01*
X115151695Y-123849288D01*
X115151696Y-123849289D01*
X115288699Y-123900389D01*
X115349262Y-123906900D01*
X116007644Y-123906900D01*
X116020813Y-123907589D01*
X116074190Y-123913200D01*
X116365903Y-123913200D01*
X116424305Y-123927552D01*
X116469402Y-123967340D01*
X116490921Y-124023498D01*
X116483959Y-124083229D01*
X116463448Y-124138219D01*
X116458010Y-124152801D01*
X116454293Y-124187384D01*
X116451500Y-124213362D01*
X116451500Y-125580638D01*
X116457119Y-125632908D01*
X116459703Y-125656936D01*
X116457084Y-125657217D01*
X116460845Y-125699355D01*
X116432008Y-125759523D01*
X116376490Y-125796530D01*
X116270083Y-125831789D01*
X116121650Y-125923344D01*
X116089095Y-125955900D01*
X116032611Y-125988512D01*
X115967389Y-125988512D01*
X115910905Y-125955900D01*
X115878349Y-125923344D01*
X115820338Y-125887562D01*
X115729920Y-125831791D01*
X115647150Y-125804364D01*
X115564382Y-125776938D01*
X115547353Y-125775198D01*
X115462213Y-125766500D01*
X115462208Y-125766500D01*
X114787791Y-125766500D01*
X114685618Y-125776938D01*
X114520080Y-125831791D01*
X114429662Y-125887562D01*
X114376928Y-125905605D01*
X114321570Y-125899134D01*
X114274421Y-125869417D01*
X114203346Y-125798342D01*
X114054920Y-125706791D01*
X113929009Y-125665069D01*
X113889382Y-125651938D01*
X113872352Y-125650198D01*
X113787213Y-125641500D01*
X113787208Y-125641500D01*
X113212791Y-125641500D01*
X113110618Y-125651938D01*
X112938340Y-125709024D01*
X112877549Y-125713630D01*
X112821712Y-125689157D01*
X112783901Y-125641335D01*
X112772966Y-125581359D01*
X112791465Y-125523277D01*
X112818209Y-125479920D01*
X112873062Y-125314381D01*
X112883500Y-125212213D01*
X112883499Y-124537788D01*
X112873062Y-124435619D01*
X112818209Y-124270080D01*
X112726658Y-124121654D01*
X112695403Y-124090399D01*
X112668091Y-124049525D01*
X112658500Y-124001306D01*
X112658500Y-123690380D01*
X112674476Y-123628974D01*
X112718353Y-123583140D01*
X112773652Y-123549030D01*
X112899027Y-123423655D01*
X112899026Y-123423655D01*
X112899030Y-123423652D01*
X112992115Y-123272738D01*
X113047887Y-123104426D01*
X113058500Y-123000545D01*
X113058499Y-121999456D01*
X113047887Y-121895574D01*
X112992115Y-121727262D01*
X112899030Y-121576348D01*
X112899028Y-121576346D01*
X112899027Y-121576344D01*
X112773655Y-121450972D01*
X112753835Y-121438747D01*
X112622738Y-121357885D01*
X112454426Y-121302113D01*
X112350545Y-121291500D01*
X112350540Y-121291500D01*
X111599459Y-121291500D01*
X111495573Y-121302113D01*
X111327262Y-121357885D01*
X111176344Y-121450972D01*
X111050972Y-121576344D01*
X111035541Y-121601362D01*
X110957885Y-121727262D01*
X110915515Y-121855128D01*
X110902113Y-121895574D01*
X110891500Y-121999459D01*
X110891500Y-123000540D01*
X110894655Y-123031421D01*
X110902113Y-123104426D01*
X110957885Y-123272738D01*
X111050970Y-123423652D01*
X111104597Y-123477279D01*
X111131909Y-123518153D01*
X111141500Y-123566372D01*
X111141500Y-124001306D01*
X111131909Y-124049525D01*
X111104596Y-124090399D01*
X111093889Y-124101107D01*
X111073342Y-124121653D01*
X110981791Y-124270080D01*
X110926938Y-124435617D01*
X110924727Y-124457263D01*
X110918483Y-124518384D01*
X110916500Y-124537791D01*
X110916500Y-125212208D01*
X110920749Y-125253796D01*
X110926938Y-125314381D01*
X110981791Y-125479920D01*
X111043281Y-125579610D01*
X111073344Y-125628349D01*
X111096400Y-125651405D01*
X111127138Y-125701564D01*
X111131754Y-125760211D01*
X111109241Y-125814561D01*
X111064508Y-125852767D01*
X111007305Y-125866500D01*
X108139441Y-125866500D01*
X108121180Y-125865170D01*
X108097211Y-125861659D01*
X108052551Y-125865566D01*
X107998845Y-125858580D01*
X107953032Y-125829694D01*
X107923578Y-125784244D01*
X107915923Y-125730632D01*
X107933207Y-125500000D01*
X107914407Y-125249131D01*
X107858427Y-125003866D01*
X107766517Y-124769684D01*
X107653380Y-124573726D01*
X107636514Y-124508842D01*
X107655314Y-124444491D01*
X107704459Y-124398891D01*
X107770036Y-124384953D01*
X107833476Y-124406620D01*
X107908397Y-124457700D01*
X108012522Y-124507844D01*
X108135054Y-124566853D01*
X108188667Y-124583390D01*
X108375451Y-124641005D01*
X108624214Y-124678500D01*
X108875784Y-124678500D01*
X108875786Y-124678500D01*
X109124549Y-124641005D01*
X109364945Y-124566853D01*
X109591604Y-124457700D01*
X109799462Y-124315984D01*
X109983878Y-124144872D01*
X110140731Y-123948184D01*
X110266517Y-123730316D01*
X110358427Y-123496134D01*
X110414407Y-123250869D01*
X110433207Y-123000000D01*
X110414407Y-122749131D01*
X110358427Y-122503866D01*
X110266517Y-122269684D01*
X110140731Y-122051816D01*
X109983878Y-121855128D01*
X109799462Y-121684016D01*
X109591604Y-121542300D01*
X109591603Y-121542299D01*
X109591601Y-121542298D01*
X109364945Y-121433146D01*
X109191134Y-121379533D01*
X109124549Y-121358995D01*
X108875786Y-121321500D01*
X108624214Y-121321500D01*
X108375451Y-121358995D01*
X108368938Y-121361004D01*
X108135054Y-121433146D01*
X107908396Y-121542300D01*
X107700541Y-121684012D01*
X107599327Y-121777924D01*
X107516122Y-121855128D01*
X107359269Y-122051816D01*
X107359267Y-122051819D01*
X107233483Y-122269683D01*
X107141572Y-122503866D01*
X107085593Y-122749128D01*
X107070391Y-122951988D01*
X107066793Y-123000000D01*
X107066834Y-123000544D01*
X107085593Y-123250871D01*
X107141572Y-123496133D01*
X107233483Y-123730317D01*
X107346617Y-123926271D01*
X107363484Y-123991156D01*
X107344683Y-124055507D01*
X107295539Y-124101107D01*
X107229962Y-124115045D01*
X107166520Y-124093377D01*
X107091604Y-124042300D01*
X107091603Y-124042299D01*
X107091601Y-124042298D01*
X106864945Y-123933146D01*
X106687284Y-123878346D01*
X106624549Y-123858995D01*
X106375786Y-123821500D01*
X106124214Y-123821500D01*
X105875451Y-123858995D01*
X105875447Y-123858996D01*
X105875448Y-123858996D01*
X105635054Y-123933146D01*
X105408396Y-124042300D01*
X105332525Y-124094028D01*
X105269082Y-124115696D01*
X105203506Y-124101758D01*
X105154361Y-124056158D01*
X105135561Y-123991807D01*
X105152428Y-123926922D01*
X105266064Y-123730098D01*
X105357946Y-123495987D01*
X105413910Y-123250795D01*
X105432704Y-122999999D01*
X105413910Y-122749204D01*
X105357946Y-122504012D01*
X105266064Y-122269901D01*
X105140315Y-122052098D01*
X105103401Y-122005809D01*
X105103399Y-122005809D01*
X103750000Y-123359210D01*
X102756011Y-124353197D01*
X102756011Y-124353199D01*
X102908644Y-124457263D01*
X103135241Y-124566387D01*
X103375559Y-124640514D01*
X103624254Y-124678000D01*
X103875746Y-124678000D01*
X104124440Y-124640514D01*
X104364761Y-124566386D01*
X104591349Y-124457266D01*
X104667096Y-124405623D01*
X104730539Y-124383955D01*
X104796115Y-124397893D01*
X104845260Y-124443492D01*
X104864061Y-124507844D01*
X104847194Y-124572729D01*
X104733483Y-124769682D01*
X104641572Y-125003866D01*
X104585593Y-125249128D01*
X104566793Y-125499999D01*
X104585593Y-125750871D01*
X104633438Y-125960493D01*
X104631673Y-126023411D01*
X104599692Y-126077625D01*
X103134225Y-127543092D01*
X103120377Y-127555061D01*
X103100941Y-127569531D01*
X103068771Y-127607869D01*
X103061357Y-127615961D01*
X103057422Y-127619895D01*
X103037997Y-127644461D01*
X103035688Y-127647294D01*
X102986119Y-127706369D01*
X102975591Y-127722897D01*
X102942995Y-127792794D01*
X102941401Y-127796087D01*
X102906795Y-127864997D01*
X102900363Y-127883500D01*
X102884759Y-127959064D01*
X102883967Y-127962637D01*
X102866192Y-128037640D01*
X102864202Y-128057115D01*
X102866118Y-128122971D01*
X102857269Y-128173155D01*
X102829266Y-128215729D01*
X102748344Y-128296650D01*
X102656791Y-128445080D01*
X102601938Y-128610617D01*
X102601938Y-128610618D01*
X102601938Y-128610619D01*
X102593195Y-128696204D01*
X102591500Y-128712791D01*
X102591500Y-129287208D01*
X102595445Y-129325825D01*
X102601938Y-129389381D01*
X102656791Y-129554920D01*
X102748342Y-129703346D01*
X102829597Y-129784601D01*
X102856909Y-129825476D01*
X102866500Y-129873694D01*
X102866500Y-131260559D01*
X102865170Y-131278820D01*
X102861659Y-131302788D01*
X102866021Y-131352647D01*
X102866500Y-131363628D01*
X102866500Y-131369184D01*
X102870135Y-131400290D01*
X102870507Y-131403932D01*
X102877228Y-131480744D01*
X102881469Y-131499873D01*
X102899204Y-131548599D01*
X102907710Y-131571970D01*
X102907846Y-131572342D01*
X102909049Y-131575804D01*
X102933304Y-131649000D01*
X102941837Y-131666627D01*
X102984232Y-131731084D01*
X102986171Y-131734127D01*
X103021379Y-131791207D01*
X103026674Y-131799792D01*
X103039038Y-131814967D01*
X103095155Y-131867911D01*
X103097784Y-131870465D01*
X104718092Y-133490773D01*
X104730060Y-133504620D01*
X104744531Y-133524058D01*
X104769522Y-133545028D01*
X104782868Y-133556226D01*
X104790965Y-133563646D01*
X104794900Y-133567581D01*
X104794904Y-133567584D01*
X104819455Y-133586997D01*
X104822296Y-133589311D01*
X104881377Y-133638885D01*
X104897890Y-133649405D01*
X104899094Y-133649966D01*
X104899095Y-133649967D01*
X104967588Y-133681906D01*
X104967786Y-133681998D01*
X104971078Y-133683591D01*
X105038812Y-133717609D01*
X105038814Y-133717609D01*
X105040008Y-133718209D01*
X105058490Y-133724633D01*
X105059791Y-133724901D01*
X105059794Y-133724903D01*
X105134078Y-133740241D01*
X105137630Y-133741029D01*
X105211344Y-133758500D01*
X105211346Y-133758500D01*
X105212641Y-133758807D01*
X105232114Y-133760797D01*
X105233439Y-133760758D01*
X105233442Y-133760759D01*
X105307477Y-133758604D01*
X105309259Y-133758553D01*
X105312923Y-133758500D01*
X105594701Y-133758500D01*
X105661124Y-133777430D01*
X105707588Y-133828531D01*
X105720133Y-133896450D01*
X105694989Y-133960777D01*
X105639712Y-134002186D01*
X105462441Y-134069985D01*
X105226225Y-134202557D01*
X105011820Y-134368114D01*
X104823815Y-134563117D01*
X104666200Y-134783422D01*
X104542342Y-135024328D01*
X104454882Y-135280693D01*
X104405681Y-135547065D01*
X104395787Y-135817766D01*
X104425413Y-136087015D01*
X104425414Y-136087018D01*
X104493928Y-136349088D01*
X104599870Y-136598390D01*
X104740982Y-136829610D01*
X104914255Y-137037820D01*
X104914256Y-137037821D01*
X104914258Y-137037823D01*
X105115993Y-137218578D01*
X105115995Y-137218579D01*
X105115998Y-137218582D01*
X105341910Y-137368044D01*
X105390451Y-137390799D01*
X105587171Y-137483018D01*
X105587173Y-137483018D01*
X105587176Y-137483020D01*
X105846569Y-137561060D01*
X105846572Y-137561060D01*
X105846574Y-137561061D01*
X106114558Y-137600500D01*
X106114561Y-137600500D01*
X106317630Y-137600500D01*
X106317631Y-137600500D01*
X106520156Y-137585677D01*
X106784553Y-137526780D01*
X107037558Y-137430014D01*
X107273777Y-137297441D01*
X107488177Y-137131888D01*
X107676186Y-136936881D01*
X107833799Y-136716579D01*
X107957656Y-136475675D01*
X108045118Y-136219305D01*
X108094319Y-135952933D01*
X108104212Y-135682235D01*
X108102548Y-135667115D01*
X108074586Y-135412984D01*
X108074586Y-135412982D01*
X108006072Y-135150912D01*
X107900130Y-134901610D01*
X107759018Y-134670390D01*
X107585745Y-134462180D01*
X107533808Y-134415644D01*
X107384006Y-134281421D01*
X107384003Y-134281419D01*
X107384002Y-134281418D01*
X107158090Y-134131956D01*
X107158086Y-134131954D01*
X106912828Y-134016981D01*
X106873529Y-134005158D01*
X106814168Y-133966505D01*
X106785042Y-133901934D01*
X106795356Y-133831853D01*
X106841850Y-133778412D01*
X106909830Y-133758500D01*
X108111344Y-133758500D01*
X108135559Y-133758500D01*
X108153820Y-133759830D01*
X108177789Y-133763341D01*
X108224253Y-133759275D01*
X108227647Y-133758979D01*
X108238628Y-133758500D01*
X108244180Y-133758500D01*
X109935559Y-133758500D01*
X109953820Y-133759830D01*
X109977789Y-133763341D01*
X110024253Y-133759275D01*
X110027647Y-133758979D01*
X110038628Y-133758500D01*
X110044177Y-133758500D01*
X110044180Y-133758500D01*
X110075301Y-133754861D01*
X110078889Y-133754495D01*
X110154426Y-133747887D01*
X110154430Y-133747885D01*
X110155751Y-133747770D01*
X110174856Y-133743535D01*
X110176106Y-133743079D01*
X110176113Y-133743079D01*
X110247400Y-133717132D01*
X110250769Y-133715961D01*
X110322738Y-133692114D01*
X110322739Y-133692112D01*
X110324007Y-133691693D01*
X110341613Y-133683169D01*
X110342725Y-133682437D01*
X110342732Y-133682435D01*
X110406138Y-133640730D01*
X110409161Y-133638806D01*
X110443452Y-133617656D01*
X110473651Y-133599030D01*
X110473652Y-133599028D01*
X110474788Y-133598328D01*
X110489959Y-133585970D01*
X110490871Y-133585002D01*
X110490874Y-133585001D01*
X110542929Y-133529824D01*
X110545448Y-133527231D01*
X111376407Y-132696272D01*
X111426561Y-132665537D01*
X111485205Y-132660919D01*
X111539554Y-132683427D01*
X111577761Y-132728155D01*
X111590422Y-132780869D01*
X111590849Y-132780826D01*
X111591172Y-132783988D01*
X111591500Y-132785354D01*
X111591500Y-132787200D01*
X111591501Y-132787208D01*
X111591501Y-132787212D01*
X111601938Y-132889381D01*
X111656791Y-133054920D01*
X111736862Y-133184734D01*
X111748344Y-133203349D01*
X111871650Y-133326655D01*
X111871652Y-133326656D01*
X111871654Y-133326658D01*
X111881646Y-133332821D01*
X111925523Y-133378655D01*
X111941500Y-133440062D01*
X111941500Y-133600541D01*
X111941270Y-133608149D01*
X111937735Y-133666572D01*
X111948285Y-133724139D01*
X111949430Y-133731662D01*
X111956487Y-133789775D01*
X111959833Y-133798599D01*
X111965954Y-133820556D01*
X111967654Y-133829834D01*
X111982936Y-133863787D01*
X111993678Y-133925006D01*
X111973848Y-133983911D01*
X111928271Y-134026170D01*
X111868037Y-134041500D01*
X110574456Y-134041500D01*
X110505201Y-134048575D01*
X110470573Y-134052113D01*
X110302262Y-134107885D01*
X110151345Y-134200972D01*
X110025972Y-134326345D01*
X109932885Y-134477262D01*
X109877113Y-134645573D01*
X109877112Y-134645575D01*
X109877113Y-134645575D01*
X109866500Y-134749456D01*
X109866500Y-135775544D01*
X109870814Y-135817765D01*
X109877113Y-135879426D01*
X109901471Y-135952934D01*
X109932885Y-136047738D01*
X110022947Y-136193750D01*
X110025972Y-136198654D01*
X110151345Y-136324027D01*
X110151347Y-136324028D01*
X110151349Y-136324030D01*
X110302262Y-136417115D01*
X110470575Y-136472887D01*
X110574456Y-136483500D01*
X111925540Y-136483500D01*
X111925544Y-136483500D01*
X112029425Y-136472887D01*
X112197738Y-136417115D01*
X112302885Y-136352258D01*
X112369032Y-136333500D01*
X112636344Y-136333500D01*
X112769180Y-136333500D01*
X112943693Y-136333500D01*
X113003816Y-136348770D01*
X113049367Y-136390877D01*
X113065236Y-136437631D01*
X113065724Y-136437490D01*
X113068906Y-136448443D01*
X113069305Y-136449618D01*
X113069326Y-136449889D01*
X113112469Y-136598388D01*
X113113982Y-136603593D01*
X113179965Y-136715166D01*
X113195460Y-136741366D01*
X113308633Y-136854539D01*
X113308635Y-136854540D01*
X113308637Y-136854542D01*
X113446407Y-136936018D01*
X113600111Y-136980674D01*
X113636021Y-136983500D01*
X114021128Y-136983499D01*
X114069346Y-136993090D01*
X114110223Y-137020404D01*
X114230591Y-137140772D01*
X114260310Y-137187923D01*
X114266780Y-137243281D01*
X114248737Y-137296014D01*
X114248342Y-137296653D01*
X114248342Y-137296654D01*
X114204308Y-137368044D01*
X114156791Y-137445080D01*
X114101938Y-137610617D01*
X114091500Y-137712791D01*
X114091500Y-138287208D01*
X114100513Y-138375433D01*
X114101938Y-138389381D01*
X114156791Y-138554920D01*
X114215479Y-138650067D01*
X114248344Y-138703349D01*
X114371650Y-138826655D01*
X114371652Y-138826656D01*
X114371654Y-138826658D01*
X114473865Y-138889703D01*
X114514954Y-138930792D01*
X114523820Y-138945165D01*
X114526673Y-138949791D01*
X114539038Y-138964967D01*
X114595155Y-139017911D01*
X114597784Y-139020465D01*
X115268092Y-139690773D01*
X115280060Y-139704620D01*
X115291292Y-139719707D01*
X115294531Y-139724058D01*
X115327805Y-139751978D01*
X115363639Y-139801300D01*
X115372124Y-139861671D01*
X115351273Y-139918958D01*
X115305967Y-139959751D01*
X115246814Y-139974500D01*
X103803293Y-139974500D01*
X103796700Y-139974327D01*
X103778512Y-139973373D01*
X103495679Y-139958550D01*
X103482563Y-139957172D01*
X103188088Y-139910532D01*
X103175188Y-139907790D01*
X102887205Y-139830626D01*
X102874661Y-139826550D01*
X102596327Y-139719707D01*
X102584280Y-139714343D01*
X102318631Y-139578989D01*
X102307208Y-139572394D01*
X102057167Y-139410015D01*
X102046498Y-139402263D01*
X101987493Y-139354482D01*
X101814802Y-139214639D01*
X101805001Y-139205814D01*
X101594185Y-138994998D01*
X101585360Y-138985197D01*
X101508028Y-138889700D01*
X101397732Y-138753495D01*
X101389988Y-138742838D01*
X101227601Y-138492785D01*
X101221010Y-138481368D01*
X101085656Y-138215719D01*
X101080292Y-138203672D01*
X101072050Y-138182201D01*
X100973447Y-137925332D01*
X100969373Y-137912794D01*
X100934898Y-137784132D01*
X100892209Y-137624811D01*
X100889467Y-137611911D01*
X100860658Y-137430014D01*
X100842826Y-137317435D01*
X100841449Y-137304319D01*
X100825673Y-137003301D01*
X100825500Y-136996707D01*
X100825500Y-124003293D01*
X100825673Y-123996699D01*
X100830693Y-123900912D01*
X100841449Y-123695678D01*
X100842827Y-123682563D01*
X100847730Y-123651610D01*
X100889467Y-123388084D01*
X100892209Y-123375188D01*
X100969376Y-123087195D01*
X100973445Y-123074672D01*
X101002109Y-122999999D01*
X102067295Y-122999999D01*
X102086089Y-123250795D01*
X102142053Y-123495987D01*
X102233935Y-123730098D01*
X102359684Y-123947901D01*
X102396597Y-123994189D01*
X102396599Y-123994189D01*
X103390789Y-123000000D01*
X103390789Y-122999999D01*
X102396597Y-122005809D01*
X102359684Y-122052098D01*
X102233935Y-122269901D01*
X102142053Y-122504012D01*
X102086089Y-122749204D01*
X102067295Y-122999999D01*
X101002109Y-122999999D01*
X101080295Y-122796319D01*
X101085656Y-122784280D01*
X101103567Y-122749128D01*
X101221014Y-122518623D01*
X101227596Y-122507222D01*
X101389994Y-122257151D01*
X101397725Y-122246512D01*
X101585369Y-122014790D01*
X101594175Y-122005011D01*
X101805011Y-121794175D01*
X101814790Y-121785369D01*
X101985908Y-121646801D01*
X102756011Y-121646801D01*
X103749999Y-122640789D01*
X103750001Y-122640789D01*
X104743987Y-121646801D01*
X104743987Y-121646799D01*
X104591353Y-121542735D01*
X104364761Y-121433613D01*
X104124440Y-121359485D01*
X103875746Y-121322000D01*
X103624254Y-121322000D01*
X103375559Y-121359485D01*
X103135241Y-121433612D01*
X102908650Y-121542734D01*
X102756011Y-121646800D01*
X102756011Y-121646801D01*
X101985908Y-121646801D01*
X102046512Y-121597725D01*
X102057151Y-121589994D01*
X102307222Y-121427596D01*
X102318623Y-121421014D01*
X102584280Y-121285655D01*
X102596319Y-121280295D01*
X102874672Y-121173445D01*
X102887195Y-121169376D01*
X103175192Y-121092208D01*
X103188084Y-121089467D01*
X103482566Y-121042826D01*
X103495678Y-121041449D01*
X103796699Y-121025672D01*
X103803293Y-121025500D01*
X103808285Y-121025500D01*
X128454722Y-121025500D01*
X128518861Y-121043046D01*
G37*
G04 #@! TD.AperFunction*
G04 #@! TA.AperFunction,Conductor*
G36*
X133733621Y-134780942D02*
G01*
X133776088Y-134826555D01*
X133791500Y-134886940D01*
X133791500Y-135448638D01*
X133798011Y-135509201D01*
X133822191Y-135574030D01*
X133849111Y-135646205D01*
X133936738Y-135763261D01*
X134053793Y-135850888D01*
X134053796Y-135850889D01*
X134159534Y-135890327D01*
X134202450Y-135917193D01*
X134231327Y-135958783D01*
X134241500Y-136008383D01*
X134241500Y-136780076D01*
X134231909Y-136828294D01*
X134204595Y-136869171D01*
X133869182Y-137204584D01*
X133828305Y-137231898D01*
X133780087Y-137241489D01*
X129024747Y-137241489D01*
X128968347Y-137228161D01*
X128923878Y-137190997D01*
X128883260Y-137136737D01*
X128766205Y-137049111D01*
X128689238Y-137020404D01*
X128629201Y-136998011D01*
X128568638Y-136991500D01*
X127325737Y-136991500D01*
X127313387Y-136990893D01*
X127310546Y-136990613D01*
X127270000Y-136986619D01*
X127229453Y-136990613D01*
X127226612Y-136990893D01*
X127214263Y-136991500D01*
X125971362Y-136991500D01*
X125910799Y-136998011D01*
X125773794Y-137049111D01*
X125656738Y-137136738D01*
X125569111Y-137253794D01*
X125518011Y-137390799D01*
X125511500Y-137451362D01*
X125511500Y-138315500D01*
X125494619Y-138378500D01*
X125448500Y-138424619D01*
X125385500Y-138441500D01*
X120032266Y-138441500D01*
X119965600Y-138422419D01*
X119919125Y-138370954D01*
X119906918Y-138302694D01*
X119908500Y-138287213D01*
X119908499Y-137712788D01*
X119898062Y-137610619D01*
X119843209Y-137445080D01*
X119751658Y-137296654D01*
X119670402Y-137215398D01*
X119643091Y-137174524D01*
X119633500Y-137126306D01*
X119633500Y-136960631D01*
X119650053Y-136898202D01*
X119681037Y-136866728D01*
X119680107Y-136865798D01*
X119739155Y-136806750D01*
X119804542Y-136741363D01*
X119804543Y-136741360D01*
X119806354Y-136739550D01*
X119862838Y-136706938D01*
X119928061Y-136706938D01*
X119984545Y-136739550D01*
X120046650Y-136801655D01*
X120046652Y-136801656D01*
X120046654Y-136801658D01*
X120195080Y-136893209D01*
X120360619Y-136948062D01*
X120462787Y-136958500D01*
X121037212Y-136958499D01*
X121139381Y-136948062D01*
X121304920Y-136893209D01*
X121453346Y-136801658D01*
X121576658Y-136678346D01*
X121668209Y-136529920D01*
X121723062Y-136364381D01*
X121733500Y-136262213D01*
X121733499Y-135818816D01*
X121747315Y-135761452D01*
X121785735Y-135716667D01*
X121840331Y-135694284D01*
X121899129Y-135699212D01*
X121970575Y-135722887D01*
X122074456Y-135733500D01*
X123425540Y-135733500D01*
X123425544Y-135733500D01*
X123529425Y-135722887D01*
X123697738Y-135667115D01*
X123776462Y-135618556D01*
X123829189Y-135600515D01*
X123884548Y-135606985D01*
X123931699Y-135636704D01*
X124046650Y-135751655D01*
X124046652Y-135751656D01*
X124046654Y-135751658D01*
X124195080Y-135843209D01*
X124360619Y-135898062D01*
X124462787Y-135908500D01*
X124818428Y-135908499D01*
X124818442Y-135908500D01*
X124827390Y-135908500D01*
X124847926Y-135908500D01*
X124854519Y-135908672D01*
X124922810Y-135912252D01*
X124935093Y-135910306D01*
X124936708Y-135910051D01*
X124956416Y-135908500D01*
X125675234Y-135908500D01*
X125715025Y-135914948D01*
X125750744Y-135933633D01*
X125773794Y-135950888D01*
X125773795Y-135950888D01*
X125773796Y-135950889D01*
X125910799Y-136001989D01*
X125971362Y-136008500D01*
X128568638Y-136008500D01*
X128629201Y-136001989D01*
X128766204Y-135950889D01*
X128828308Y-135904397D01*
X128864876Y-135885434D01*
X128905002Y-135872396D01*
X128911297Y-135870532D01*
X128977368Y-135852829D01*
X128989908Y-135846439D01*
X129008160Y-135838878D01*
X129021554Y-135834527D01*
X129080797Y-135800321D01*
X129086582Y-135797181D01*
X129147528Y-135766129D01*
X129158465Y-135757272D01*
X129174762Y-135746072D01*
X129186942Y-135739040D01*
X129231174Y-135699213D01*
X129237766Y-135693278D01*
X129242763Y-135689008D01*
X129258739Y-135676072D01*
X129273280Y-135661529D01*
X129278026Y-135657026D01*
X129328864Y-135611253D01*
X129337132Y-135599871D01*
X129349967Y-135584842D01*
X129939406Y-134995404D01*
X129980284Y-134968091D01*
X130028502Y-134958500D01*
X133248638Y-134958500D01*
X133309201Y-134951989D01*
X133446204Y-134900889D01*
X133563261Y-134813261D01*
X133563262Y-134813260D01*
X133564633Y-134811430D01*
X133613159Y-134772326D01*
X133674490Y-134761261D01*
X133733621Y-134780942D01*
G37*
G04 #@! TD.AperFunction*
G04 #@! TA.AperFunction,Conductor*
G36*
X118274902Y-130024422D02*
G01*
X118329877Y-130065337D01*
X118355306Y-130128973D01*
X118356457Y-130139925D01*
X118415472Y-130321555D01*
X118474619Y-130424000D01*
X118491500Y-130487000D01*
X118491500Y-131185559D01*
X118490170Y-131203820D01*
X118486659Y-131227788D01*
X118491021Y-131277647D01*
X118491500Y-131288628D01*
X118491500Y-131294184D01*
X118495135Y-131325290D01*
X118495507Y-131328932D01*
X118502228Y-131405744D01*
X118506469Y-131424873D01*
X118532846Y-131497342D01*
X118534049Y-131500804D01*
X118558304Y-131574000D01*
X118566837Y-131591627D01*
X118609232Y-131656084D01*
X118611171Y-131659127D01*
X118650970Y-131723651D01*
X118651674Y-131724792D01*
X118664038Y-131739967D01*
X118664998Y-131740873D01*
X118664999Y-131740874D01*
X118715872Y-131788870D01*
X118720155Y-131792911D01*
X118722784Y-131795465D01*
X119823092Y-132895773D01*
X119835060Y-132909620D01*
X119849531Y-132929058D01*
X119875548Y-132950889D01*
X119887868Y-132961226D01*
X119895965Y-132968646D01*
X119899900Y-132972581D01*
X119899904Y-132972584D01*
X119924455Y-132991997D01*
X119927296Y-132994311D01*
X119986377Y-133043885D01*
X120002890Y-133054405D01*
X120004094Y-133054966D01*
X120004095Y-133054967D01*
X120056605Y-133079453D01*
X120072786Y-133086998D01*
X120076078Y-133088591D01*
X120143812Y-133122609D01*
X120143814Y-133122609D01*
X120145008Y-133123209D01*
X120163490Y-133129633D01*
X120164791Y-133129901D01*
X120164794Y-133129903D01*
X120239078Y-133145241D01*
X120242630Y-133146029D01*
X120316344Y-133163500D01*
X120316346Y-133163500D01*
X120317641Y-133163807D01*
X120337114Y-133165797D01*
X120338439Y-133165758D01*
X120338442Y-133165759D01*
X120412477Y-133163604D01*
X120414259Y-133163553D01*
X120417923Y-133163500D01*
X120466246Y-133163500D01*
X120501399Y-133168503D01*
X120558909Y-133185211D01*
X120646169Y-133210562D01*
X120683498Y-133213500D01*
X120690500Y-133213500D01*
X120753500Y-133230381D01*
X120799619Y-133276500D01*
X120816500Y-133339500D01*
X120816500Y-134258629D01*
X120806909Y-134306847D01*
X120779595Y-134347724D01*
X120347724Y-134779595D01*
X120306847Y-134806909D01*
X120258629Y-134816500D01*
X120056307Y-134816500D01*
X119996184Y-134801230D01*
X119950633Y-134759123D01*
X119934763Y-134712368D01*
X119934276Y-134712510D01*
X119931093Y-134701556D01*
X119930695Y-134700382D01*
X119930674Y-134700111D01*
X119886018Y-134546407D01*
X119804542Y-134408637D01*
X119804540Y-134408635D01*
X119804539Y-134408633D01*
X119691366Y-134295460D01*
X119691363Y-134295458D01*
X119553593Y-134213982D01*
X119399889Y-134169326D01*
X119363979Y-134166500D01*
X119363974Y-134166500D01*
X117861024Y-134166500D01*
X117825110Y-134169326D01*
X117671408Y-134213981D01*
X117533633Y-134295460D01*
X117420460Y-134408633D01*
X117374860Y-134485740D01*
X117335583Y-134526913D01*
X117282198Y-134546607D01*
X117225592Y-134540808D01*
X117177311Y-134510696D01*
X116475604Y-133808989D01*
X116470403Y-133803465D01*
X116431573Y-133759635D01*
X116383740Y-133726618D01*
X116383398Y-133726382D01*
X116377281Y-133721881D01*
X116338748Y-133691693D01*
X116331196Y-133685776D01*
X116323772Y-133682435D01*
X116322594Y-133681905D01*
X116302738Y-133670706D01*
X116294973Y-133665347D01*
X116294971Y-133665346D01*
X116240238Y-133644588D01*
X116233217Y-133641680D01*
X116211972Y-133632119D01*
X116179834Y-133617654D01*
X116170556Y-133615954D01*
X116148599Y-133609833D01*
X116139775Y-133606487D01*
X116081662Y-133599430D01*
X116074139Y-133598285D01*
X116016572Y-133587735D01*
X115958149Y-133591270D01*
X115950541Y-133591500D01*
X115409593Y-133591500D01*
X115345455Y-133573954D01*
X115328594Y-133563982D01*
X115174889Y-133519326D01*
X115174888Y-133519325D01*
X115138979Y-133516500D01*
X115138974Y-133516500D01*
X113636024Y-133516500D01*
X113600110Y-133519326D01*
X113583197Y-133524240D01*
X113516711Y-133525283D01*
X113458952Y-133492337D01*
X113424905Y-133458290D01*
X113392293Y-133401806D01*
X113392293Y-133336584D01*
X113424905Y-133280100D01*
X113501655Y-133203349D01*
X113501655Y-133203348D01*
X113501658Y-133203346D01*
X113593209Y-133054920D01*
X113648062Y-132889381D01*
X113658500Y-132787213D01*
X113658499Y-132212788D01*
X113648062Y-132110619D01*
X113631000Y-132059130D01*
X113626073Y-132000332D01*
X113648455Y-131945736D01*
X113693240Y-131907316D01*
X113750606Y-131893500D01*
X115516246Y-131893500D01*
X115551399Y-131898503D01*
X115696169Y-131940562D01*
X115733498Y-131943500D01*
X117516497Y-131943500D01*
X117516502Y-131943500D01*
X117553831Y-131940562D01*
X117713601Y-131894145D01*
X117856807Y-131809453D01*
X117974453Y-131691807D01*
X118059145Y-131548601D01*
X118105562Y-131388831D01*
X118108500Y-131351502D01*
X118108500Y-130918498D01*
X118105562Y-130881169D01*
X118059145Y-130721399D01*
X117974453Y-130578193D01*
X117974452Y-130578192D01*
X117966350Y-130564492D01*
X117969942Y-130562367D01*
X117952759Y-130532669D01*
X117952759Y-130467331D01*
X117969942Y-130437632D01*
X117966350Y-130435508D01*
X117986926Y-130400716D01*
X118059145Y-130278601D01*
X118105562Y-130118831D01*
X118105562Y-130118829D01*
X118109000Y-130106996D01*
X118145294Y-130048867D01*
X118206644Y-130018331D01*
X118274902Y-130024422D01*
G37*
G04 #@! TD.AperFunction*
G04 #@! TA.AperFunction,Conductor*
G36*
X133733621Y-128780942D02*
G01*
X133776088Y-128826555D01*
X133791500Y-128886940D01*
X133791500Y-129448638D01*
X133798011Y-129509201D01*
X133821677Y-129572651D01*
X133849111Y-129646205D01*
X133936738Y-129763261D01*
X134053793Y-129850888D01*
X134053796Y-129850889D01*
X134159534Y-129890327D01*
X134202450Y-129917193D01*
X134231327Y-129958783D01*
X134241500Y-130008383D01*
X134241500Y-130280076D01*
X134231909Y-130328294D01*
X134204595Y-130369171D01*
X132869171Y-131704595D01*
X132828294Y-131731909D01*
X132780076Y-131741500D01*
X129259924Y-131741500D01*
X129211706Y-131731909D01*
X129170829Y-131704595D01*
X129085405Y-131619171D01*
X129058091Y-131578294D01*
X129048500Y-131530076D01*
X129048500Y-131451362D01*
X129046349Y-131431354D01*
X129041989Y-131390799D01*
X128990889Y-131253796D01*
X128990888Y-131253794D01*
X128903261Y-131136738D01*
X128786205Y-131049111D01*
X128700533Y-131017157D01*
X128649201Y-130998011D01*
X128588638Y-130991500D01*
X128095737Y-130991500D01*
X128083387Y-130990893D01*
X128080546Y-130990613D01*
X128040000Y-130986619D01*
X127999453Y-130990613D01*
X127996612Y-130990893D01*
X127984263Y-130991500D01*
X125991362Y-130991500D01*
X125930799Y-130998011D01*
X125903529Y-131008182D01*
X125843794Y-131015142D01*
X125787637Y-130993623D01*
X125747851Y-130948526D01*
X125733499Y-130890128D01*
X125733499Y-130287788D01*
X125723062Y-130185619D01*
X125707033Y-130137248D01*
X125704308Y-130067428D01*
X125739206Y-130006889D01*
X125800995Y-129974255D01*
X125870670Y-129979562D01*
X125880142Y-129983094D01*
X125930799Y-130001989D01*
X125991362Y-130008500D01*
X128588638Y-130008500D01*
X128649201Y-130001989D01*
X128786204Y-129950889D01*
X128903261Y-129863261D01*
X128990889Y-129746204D01*
X129041989Y-129609201D01*
X129048500Y-129548638D01*
X129048500Y-129328503D01*
X129058091Y-129280285D01*
X129085405Y-129239408D01*
X129329408Y-128995405D01*
X129370285Y-128968091D01*
X129418503Y-128958500D01*
X133248638Y-128958500D01*
X133309201Y-128951989D01*
X133446204Y-128900889D01*
X133563261Y-128813261D01*
X133563262Y-128813260D01*
X133564633Y-128811430D01*
X133613159Y-128772326D01*
X133674490Y-128761261D01*
X133733621Y-128780942D01*
G37*
G04 #@! TD.AperFunction*
G04 #@! TA.AperFunction,Conductor*
G36*
X110080717Y-127396640D02*
G01*
X110125056Y-127433321D01*
X110148461Y-127485890D01*
X110146051Y-127543384D01*
X110118329Y-127593811D01*
X110010959Y-127713056D01*
X109915474Y-127878442D01*
X109860613Y-128047284D01*
X109829875Y-128097442D01*
X109245951Y-128681366D01*
X109208106Y-128707377D01*
X109046415Y-128779367D01*
X108892985Y-128890840D01*
X108766082Y-129031780D01*
X108671258Y-129196020D01*
X108612654Y-129376387D01*
X108601172Y-129485632D01*
X108592830Y-129565000D01*
X108612654Y-129753611D01*
X108612655Y-129753614D01*
X108629109Y-129804256D01*
X108632522Y-129869389D01*
X108602912Y-129927502D01*
X108548212Y-129963024D01*
X108483080Y-129966437D01*
X108324825Y-129932800D01*
X108135175Y-129932800D01*
X107976919Y-129966438D01*
X107911786Y-129963024D01*
X107857086Y-129927501D01*
X107827476Y-129869387D01*
X107830890Y-129804256D01*
X107847346Y-129753611D01*
X107867170Y-129565000D01*
X107847346Y-129376389D01*
X107814014Y-129273802D01*
X107788741Y-129196020D01*
X107737056Y-129106500D01*
X107735380Y-129103598D01*
X107718500Y-129040599D01*
X107718500Y-128106371D01*
X107728091Y-128058153D01*
X107755405Y-128017276D01*
X108352276Y-127420405D01*
X108393153Y-127393091D01*
X108441371Y-127383500D01*
X110024693Y-127383500D01*
X110080717Y-127396640D01*
G37*
G04 #@! TD.AperFunction*
G04 #@! TA.AperFunction,Conductor*
G36*
X123899556Y-123867324D02*
G01*
X123939051Y-123894056D01*
X123955900Y-123910905D01*
X123988512Y-123967389D01*
X123988512Y-124032611D01*
X123955900Y-124089095D01*
X123923344Y-124121650D01*
X123831791Y-124270080D01*
X123776938Y-124435617D01*
X123774727Y-124457263D01*
X123768483Y-124518384D01*
X123766500Y-124537791D01*
X123766500Y-125212208D01*
X123770749Y-125253796D01*
X123776938Y-125314381D01*
X123831791Y-125479920D01*
X123923342Y-125628346D01*
X123954596Y-125659600D01*
X123981909Y-125700475D01*
X123991500Y-125748694D01*
X123991500Y-126083628D01*
X123981909Y-126131846D01*
X123954595Y-126172724D01*
X123193665Y-126933652D01*
X123164692Y-126955287D01*
X123130768Y-126967802D01*
X123067715Y-126981204D01*
X122893246Y-127058883D01*
X122738747Y-127171133D01*
X122610958Y-127313057D01*
X122515472Y-127478444D01*
X122460613Y-127647283D01*
X122429875Y-127697442D01*
X122403225Y-127724094D01*
X122377724Y-127749595D01*
X122336847Y-127776909D01*
X122288628Y-127786500D01*
X121122695Y-127786500D01*
X121065492Y-127772767D01*
X121020759Y-127734561D01*
X120998246Y-127680211D01*
X121002862Y-127621564D01*
X121033600Y-127571405D01*
X121151655Y-127453349D01*
X121151654Y-127453349D01*
X121151658Y-127453346D01*
X121243209Y-127304920D01*
X121298062Y-127139381D01*
X121308500Y-127037213D01*
X121308499Y-126462788D01*
X121298062Y-126360619D01*
X121243209Y-126195080D01*
X121151658Y-126046654D01*
X121151656Y-126046652D01*
X121151655Y-126046650D01*
X121028349Y-125923344D01*
X120970338Y-125887562D01*
X120879920Y-125831791D01*
X120797150Y-125804364D01*
X120714382Y-125776938D01*
X120697353Y-125775198D01*
X120612213Y-125766500D01*
X120612208Y-125766500D01*
X119937791Y-125766500D01*
X119835618Y-125776938D01*
X119670080Y-125831791D01*
X119521650Y-125923344D01*
X119489095Y-125955900D01*
X119432611Y-125988512D01*
X119367389Y-125988512D01*
X119310905Y-125955900D01*
X119278349Y-125923344D01*
X119220338Y-125887562D01*
X119129920Y-125831791D01*
X119047150Y-125804364D01*
X118964382Y-125776938D01*
X118943947Y-125774850D01*
X118862213Y-125766500D01*
X118862209Y-125766500D01*
X118477790Y-125766500D01*
X118410935Y-125747301D01*
X118364454Y-125695555D01*
X118352512Y-125627031D01*
X118357500Y-125580638D01*
X118357500Y-124213362D01*
X118355307Y-124192963D01*
X118350989Y-124152799D01*
X118325040Y-124083229D01*
X118318079Y-124023498D01*
X118339598Y-123967340D01*
X118384695Y-123927552D01*
X118443097Y-123913200D01*
X122925808Y-123913200D01*
X122925810Y-123913200D01*
X122979186Y-123907589D01*
X122992356Y-123906900D01*
X123650738Y-123906900D01*
X123711301Y-123900389D01*
X123805925Y-123865095D01*
X123852954Y-123857187D01*
X123899556Y-123867324D01*
G37*
G04 #@! TD.AperFunction*
G04 #@! TA.AperFunction,Conductor*
G36*
X133733621Y-122780942D02*
G01*
X133776088Y-122826555D01*
X133791500Y-122886940D01*
X133791500Y-123448638D01*
X133798011Y-123509201D01*
X133819335Y-123566372D01*
X133849111Y-123646205D01*
X133936738Y-123763261D01*
X134053794Y-123850888D01*
X134053795Y-123850888D01*
X134053796Y-123850889D01*
X134190799Y-123901989D01*
X134251362Y-123908500D01*
X134361295Y-123908500D01*
X134427131Y-123927068D01*
X134473563Y-123977299D01*
X134483447Y-123996699D01*
X134483871Y-123997530D01*
X134492730Y-124008471D01*
X134503926Y-124024761D01*
X134510961Y-124036946D01*
X134556728Y-124087776D01*
X134560997Y-124092774D01*
X134573928Y-124108741D01*
X134588459Y-124123272D01*
X134592965Y-124128020D01*
X134638747Y-124178866D01*
X134650132Y-124187137D01*
X134665164Y-124199977D01*
X134805381Y-124340194D01*
X134837993Y-124396678D01*
X134837993Y-124461900D01*
X134805383Y-124518381D01*
X133869168Y-125454597D01*
X133828294Y-125481909D01*
X133780076Y-125491500D01*
X129145995Y-125491500D01*
X129086931Y-125476799D01*
X129041650Y-125436127D01*
X129030123Y-125404655D01*
X129027519Y-125405627D01*
X129021989Y-125390801D01*
X129021989Y-125390799D01*
X128970889Y-125253796D01*
X128949835Y-125225671D01*
X128883261Y-125136738D01*
X128766205Y-125049111D01*
X128697702Y-125023561D01*
X128629201Y-124998011D01*
X128568638Y-124991500D01*
X128075737Y-124991500D01*
X128063387Y-124990893D01*
X128060546Y-124990613D01*
X128020000Y-124986619D01*
X127979453Y-124990613D01*
X127976612Y-124990893D01*
X127964263Y-124991500D01*
X125971362Y-124991500D01*
X125910797Y-124998011D01*
X125903530Y-125000722D01*
X125843795Y-125007684D01*
X125787638Y-124986164D01*
X125747851Y-124941067D01*
X125733499Y-124882666D01*
X125733499Y-124537792D01*
X125733499Y-124537788D01*
X125723062Y-124435619D01*
X125668209Y-124270080D01*
X125576658Y-124121654D01*
X125576657Y-124121653D01*
X125568926Y-124109119D01*
X125569508Y-124108759D01*
X125547862Y-124073436D01*
X125543246Y-124014789D01*
X125565759Y-123960439D01*
X125610492Y-123922233D01*
X125667695Y-123908500D01*
X125675234Y-123908500D01*
X125715025Y-123914948D01*
X125750744Y-123933633D01*
X125773794Y-123950888D01*
X125773795Y-123950888D01*
X125773796Y-123950889D01*
X125910799Y-124001989D01*
X125971362Y-124008500D01*
X128568638Y-124008500D01*
X128629201Y-124001989D01*
X128766204Y-123950889D01*
X128883261Y-123863261D01*
X128970889Y-123746204D01*
X129021989Y-123609201D01*
X129028500Y-123548638D01*
X129028500Y-123328503D01*
X129038091Y-123280285D01*
X129065405Y-123239408D01*
X129309408Y-122995405D01*
X129350285Y-122968091D01*
X129398503Y-122958500D01*
X133248638Y-122958500D01*
X133309201Y-122951989D01*
X133446204Y-122900889D01*
X133563261Y-122813261D01*
X133563262Y-122813260D01*
X133564633Y-122811430D01*
X133613159Y-122772326D01*
X133674490Y-122761261D01*
X133733621Y-122780942D01*
G37*
G04 #@! TD.AperFunction*
G04 #@! TA.AperFunction,Conductor*
G36*
X141257532Y-129617759D02*
G01*
X141303848Y-129666031D01*
X141318926Y-129731207D01*
X141298517Y-129794915D01*
X141261582Y-129851447D01*
X141171177Y-130057548D01*
X141123455Y-130245999D01*
X141123456Y-130246000D01*
X142588000Y-130246000D01*
X142651000Y-130262881D01*
X142697119Y-130309000D01*
X142714000Y-130372000D01*
X142714000Y-131834391D01*
X142794514Y-131820955D01*
X143007368Y-131747883D01*
X143205302Y-131640766D01*
X143391139Y-131496124D01*
X143391962Y-131497182D01*
X143431123Y-131471134D01*
X143490618Y-131464715D01*
X143546365Y-131486467D01*
X143585790Y-131531485D01*
X143600000Y-131589614D01*
X143600000Y-132400001D01*
X145163095Y-133963095D01*
X145190409Y-134003972D01*
X145200000Y-134052190D01*
X145200000Y-135874000D01*
X145183119Y-135937000D01*
X145137000Y-135983119D01*
X145074000Y-136000000D01*
X137526000Y-136000000D01*
X137463000Y-135983119D01*
X137416881Y-135937000D01*
X137400000Y-135874000D01*
X137400000Y-133726618D01*
X137419199Y-133659763D01*
X137470946Y-133613282D01*
X137539470Y-133601340D01*
X137601411Y-133608000D01*
X138246000Y-133608000D01*
X138246000Y-132504000D01*
X138754000Y-132504000D01*
X138754000Y-133608000D01*
X139398589Y-133608000D01*
X139459093Y-133601494D01*
X139595962Y-133550445D01*
X139712904Y-133462904D01*
X139800445Y-133345962D01*
X139851494Y-133209093D01*
X139858000Y-133148589D01*
X139858000Y-132504000D01*
X138754000Y-132504000D01*
X138246000Y-132504000D01*
X138246000Y-132122000D01*
X138262881Y-132059000D01*
X138309000Y-132012881D01*
X138372000Y-131996000D01*
X139858000Y-131996000D01*
X139858000Y-131351411D01*
X139851494Y-131290906D01*
X139800445Y-131154037D01*
X139712904Y-131037095D01*
X139629150Y-130974397D01*
X139586603Y-130917561D01*
X139581539Y-130846746D01*
X139615560Y-130784439D01*
X139645999Y-130754000D01*
X141123455Y-130754000D01*
X141171177Y-130942451D01*
X141261580Y-131148548D01*
X141384678Y-131336962D01*
X141537096Y-131502533D01*
X141714697Y-131640766D01*
X141912631Y-131747883D01*
X142125485Y-131820955D01*
X142206000Y-131834391D01*
X142206000Y-130754000D01*
X141123455Y-130754000D01*
X139645999Y-130754000D01*
X140763098Y-129636901D01*
X140803972Y-129609591D01*
X140852190Y-129600000D01*
X141193034Y-129600000D01*
X141257532Y-129617759D01*
G37*
G04 #@! TD.AperFunction*
M02*
