G04 #@! TF.GenerationSoftware,KiCad,Pcbnew,5.1.5+dfsg1-2build2*
G04 #@! TF.CreationDate,2022-02-26T18:56:12+01:00*
G04 #@! TF.ProjectId,RGB_strip_driver,5247425f-7374-4726-9970-5f6472697665,rev?*
G04 #@! TF.SameCoordinates,Original*
G04 #@! TF.FileFunction,Paste,Top*
G04 #@! TF.FilePolarity,Positive*
%FSLAX46Y46*%
G04 Gerber Fmt 4.6, Leading zero omitted, Abs format (unit mm)*
G04 Created by KiCad (PCBNEW 5.1.5+dfsg1-2build2) date 2022-02-26 18:56:12*
%MOMM*%
%LPD*%
G04 APERTURE LIST*
%ADD10C,0.100000*%
%ADD11R,1.447800X0.787400*%
%ADD12R,0.889000X1.270000*%
%ADD13R,4.000000X2.000000*%
%ADD14R,2.500000X1.000000*%
%ADD15R,1.900000X0.800000*%
G04 APERTURE END LIST*
D10*
G36*
X102185779Y-128526144D02*
G01*
X102208834Y-128529563D01*
X102231443Y-128535227D01*
X102253387Y-128543079D01*
X102274457Y-128553044D01*
X102294448Y-128565026D01*
X102313168Y-128578910D01*
X102330438Y-128594562D01*
X102346090Y-128611832D01*
X102359974Y-128630552D01*
X102371956Y-128650543D01*
X102381921Y-128671613D01*
X102389773Y-128693557D01*
X102395437Y-128716166D01*
X102398856Y-128739221D01*
X102400000Y-128762500D01*
X102400000Y-129237500D01*
X102398856Y-129260779D01*
X102395437Y-129283834D01*
X102389773Y-129306443D01*
X102381921Y-129328387D01*
X102371956Y-129349457D01*
X102359974Y-129369448D01*
X102346090Y-129388168D01*
X102330438Y-129405438D01*
X102313168Y-129421090D01*
X102294448Y-129434974D01*
X102274457Y-129446956D01*
X102253387Y-129456921D01*
X102231443Y-129464773D01*
X102208834Y-129470437D01*
X102185779Y-129473856D01*
X102162500Y-129475000D01*
X101587500Y-129475000D01*
X101564221Y-129473856D01*
X101541166Y-129470437D01*
X101518557Y-129464773D01*
X101496613Y-129456921D01*
X101475543Y-129446956D01*
X101455552Y-129434974D01*
X101436832Y-129421090D01*
X101419562Y-129405438D01*
X101403910Y-129388168D01*
X101390026Y-129369448D01*
X101378044Y-129349457D01*
X101368079Y-129328387D01*
X101360227Y-129306443D01*
X101354563Y-129283834D01*
X101351144Y-129260779D01*
X101350000Y-129237500D01*
X101350000Y-128762500D01*
X101351144Y-128739221D01*
X101354563Y-128716166D01*
X101360227Y-128693557D01*
X101368079Y-128671613D01*
X101378044Y-128650543D01*
X101390026Y-128630552D01*
X101403910Y-128611832D01*
X101419562Y-128594562D01*
X101436832Y-128578910D01*
X101455552Y-128565026D01*
X101475543Y-128553044D01*
X101496613Y-128543079D01*
X101518557Y-128535227D01*
X101541166Y-128529563D01*
X101564221Y-128526144D01*
X101587500Y-128525000D01*
X102162500Y-128525000D01*
X102185779Y-128526144D01*
G37*
G36*
X103935779Y-128526144D02*
G01*
X103958834Y-128529563D01*
X103981443Y-128535227D01*
X104003387Y-128543079D01*
X104024457Y-128553044D01*
X104044448Y-128565026D01*
X104063168Y-128578910D01*
X104080438Y-128594562D01*
X104096090Y-128611832D01*
X104109974Y-128630552D01*
X104121956Y-128650543D01*
X104131921Y-128671613D01*
X104139773Y-128693557D01*
X104145437Y-128716166D01*
X104148856Y-128739221D01*
X104150000Y-128762500D01*
X104150000Y-129237500D01*
X104148856Y-129260779D01*
X104145437Y-129283834D01*
X104139773Y-129306443D01*
X104131921Y-129328387D01*
X104121956Y-129349457D01*
X104109974Y-129369448D01*
X104096090Y-129388168D01*
X104080438Y-129405438D01*
X104063168Y-129421090D01*
X104044448Y-129434974D01*
X104024457Y-129446956D01*
X104003387Y-129456921D01*
X103981443Y-129464773D01*
X103958834Y-129470437D01*
X103935779Y-129473856D01*
X103912500Y-129475000D01*
X103337500Y-129475000D01*
X103314221Y-129473856D01*
X103291166Y-129470437D01*
X103268557Y-129464773D01*
X103246613Y-129456921D01*
X103225543Y-129446956D01*
X103205552Y-129434974D01*
X103186832Y-129421090D01*
X103169562Y-129405438D01*
X103153910Y-129388168D01*
X103140026Y-129369448D01*
X103128044Y-129349457D01*
X103118079Y-129328387D01*
X103110227Y-129306443D01*
X103104563Y-129283834D01*
X103101144Y-129260779D01*
X103100000Y-129237500D01*
X103100000Y-128762500D01*
X103101144Y-128739221D01*
X103104563Y-128716166D01*
X103110227Y-128693557D01*
X103118079Y-128671613D01*
X103128044Y-128650543D01*
X103140026Y-128630552D01*
X103153910Y-128611832D01*
X103169562Y-128594562D01*
X103186832Y-128578910D01*
X103205552Y-128565026D01*
X103225543Y-128553044D01*
X103246613Y-128543079D01*
X103268557Y-128535227D01*
X103291166Y-128529563D01*
X103314221Y-128526144D01*
X103337500Y-128525000D01*
X103912500Y-128525000D01*
X103935779Y-128526144D01*
G37*
D11*
X116121800Y-123004700D03*
X122878200Y-123004700D03*
D12*
X117404500Y-124897000D03*
X121595500Y-124897000D03*
D10*
G36*
X125010779Y-132601144D02*
G01*
X125033834Y-132604563D01*
X125056443Y-132610227D01*
X125078387Y-132618079D01*
X125099457Y-132628044D01*
X125119448Y-132640026D01*
X125138168Y-132653910D01*
X125155438Y-132669562D01*
X125171090Y-132686832D01*
X125184974Y-132705552D01*
X125196956Y-132725543D01*
X125206921Y-132746613D01*
X125214773Y-132768557D01*
X125220437Y-132791166D01*
X125223856Y-132814221D01*
X125225000Y-132837500D01*
X125225000Y-133412500D01*
X125223856Y-133435779D01*
X125220437Y-133458834D01*
X125214773Y-133481443D01*
X125206921Y-133503387D01*
X125196956Y-133524457D01*
X125184974Y-133544448D01*
X125171090Y-133563168D01*
X125155438Y-133580438D01*
X125138168Y-133596090D01*
X125119448Y-133609974D01*
X125099457Y-133621956D01*
X125078387Y-133631921D01*
X125056443Y-133639773D01*
X125033834Y-133645437D01*
X125010779Y-133648856D01*
X124987500Y-133650000D01*
X124512500Y-133650000D01*
X124489221Y-133648856D01*
X124466166Y-133645437D01*
X124443557Y-133639773D01*
X124421613Y-133631921D01*
X124400543Y-133621956D01*
X124380552Y-133609974D01*
X124361832Y-133596090D01*
X124344562Y-133580438D01*
X124328910Y-133563168D01*
X124315026Y-133544448D01*
X124303044Y-133524457D01*
X124293079Y-133503387D01*
X124285227Y-133481443D01*
X124279563Y-133458834D01*
X124276144Y-133435779D01*
X124275000Y-133412500D01*
X124275000Y-132837500D01*
X124276144Y-132814221D01*
X124279563Y-132791166D01*
X124285227Y-132768557D01*
X124293079Y-132746613D01*
X124303044Y-132725543D01*
X124315026Y-132705552D01*
X124328910Y-132686832D01*
X124344562Y-132669562D01*
X124361832Y-132653910D01*
X124380552Y-132640026D01*
X124400543Y-132628044D01*
X124421613Y-132618079D01*
X124443557Y-132610227D01*
X124466166Y-132604563D01*
X124489221Y-132601144D01*
X124512500Y-132600000D01*
X124987500Y-132600000D01*
X125010779Y-132601144D01*
G37*
G36*
X125010779Y-134351144D02*
G01*
X125033834Y-134354563D01*
X125056443Y-134360227D01*
X125078387Y-134368079D01*
X125099457Y-134378044D01*
X125119448Y-134390026D01*
X125138168Y-134403910D01*
X125155438Y-134419562D01*
X125171090Y-134436832D01*
X125184974Y-134455552D01*
X125196956Y-134475543D01*
X125206921Y-134496613D01*
X125214773Y-134518557D01*
X125220437Y-134541166D01*
X125223856Y-134564221D01*
X125225000Y-134587500D01*
X125225000Y-135162500D01*
X125223856Y-135185779D01*
X125220437Y-135208834D01*
X125214773Y-135231443D01*
X125206921Y-135253387D01*
X125196956Y-135274457D01*
X125184974Y-135294448D01*
X125171090Y-135313168D01*
X125155438Y-135330438D01*
X125138168Y-135346090D01*
X125119448Y-135359974D01*
X125099457Y-135371956D01*
X125078387Y-135381921D01*
X125056443Y-135389773D01*
X125033834Y-135395437D01*
X125010779Y-135398856D01*
X124987500Y-135400000D01*
X124512500Y-135400000D01*
X124489221Y-135398856D01*
X124466166Y-135395437D01*
X124443557Y-135389773D01*
X124421613Y-135381921D01*
X124400543Y-135371956D01*
X124380552Y-135359974D01*
X124361832Y-135346090D01*
X124344562Y-135330438D01*
X124328910Y-135313168D01*
X124315026Y-135294448D01*
X124303044Y-135274457D01*
X124293079Y-135253387D01*
X124285227Y-135231443D01*
X124279563Y-135208834D01*
X124276144Y-135185779D01*
X124275000Y-135162500D01*
X124275000Y-134587500D01*
X124276144Y-134564221D01*
X124279563Y-134541166D01*
X124285227Y-134518557D01*
X124293079Y-134496613D01*
X124303044Y-134475543D01*
X124315026Y-134455552D01*
X124328910Y-134436832D01*
X124344562Y-134419562D01*
X124361832Y-134403910D01*
X124380552Y-134390026D01*
X124400543Y-134378044D01*
X124421613Y-134368079D01*
X124443557Y-134360227D01*
X124466166Y-134354563D01*
X124489221Y-134351144D01*
X124512500Y-134350000D01*
X124987500Y-134350000D01*
X125010779Y-134351144D01*
G37*
G36*
X125010779Y-130101144D02*
G01*
X125033834Y-130104563D01*
X125056443Y-130110227D01*
X125078387Y-130118079D01*
X125099457Y-130128044D01*
X125119448Y-130140026D01*
X125138168Y-130153910D01*
X125155438Y-130169562D01*
X125171090Y-130186832D01*
X125184974Y-130205552D01*
X125196956Y-130225543D01*
X125206921Y-130246613D01*
X125214773Y-130268557D01*
X125220437Y-130291166D01*
X125223856Y-130314221D01*
X125225000Y-130337500D01*
X125225000Y-130912500D01*
X125223856Y-130935779D01*
X125220437Y-130958834D01*
X125214773Y-130981443D01*
X125206921Y-131003387D01*
X125196956Y-131024457D01*
X125184974Y-131044448D01*
X125171090Y-131063168D01*
X125155438Y-131080438D01*
X125138168Y-131096090D01*
X125119448Y-131109974D01*
X125099457Y-131121956D01*
X125078387Y-131131921D01*
X125056443Y-131139773D01*
X125033834Y-131145437D01*
X125010779Y-131148856D01*
X124987500Y-131150000D01*
X124512500Y-131150000D01*
X124489221Y-131148856D01*
X124466166Y-131145437D01*
X124443557Y-131139773D01*
X124421613Y-131131921D01*
X124400543Y-131121956D01*
X124380552Y-131109974D01*
X124361832Y-131096090D01*
X124344562Y-131080438D01*
X124328910Y-131063168D01*
X124315026Y-131044448D01*
X124303044Y-131024457D01*
X124293079Y-131003387D01*
X124285227Y-130981443D01*
X124279563Y-130958834D01*
X124276144Y-130935779D01*
X124275000Y-130912500D01*
X124275000Y-130337500D01*
X124276144Y-130314221D01*
X124279563Y-130291166D01*
X124285227Y-130268557D01*
X124293079Y-130246613D01*
X124303044Y-130225543D01*
X124315026Y-130205552D01*
X124328910Y-130186832D01*
X124344562Y-130169562D01*
X124361832Y-130153910D01*
X124380552Y-130140026D01*
X124400543Y-130128044D01*
X124421613Y-130118079D01*
X124443557Y-130110227D01*
X124466166Y-130104563D01*
X124489221Y-130101144D01*
X124512500Y-130100000D01*
X124987500Y-130100000D01*
X125010779Y-130101144D01*
G37*
G36*
X125010779Y-128351144D02*
G01*
X125033834Y-128354563D01*
X125056443Y-128360227D01*
X125078387Y-128368079D01*
X125099457Y-128378044D01*
X125119448Y-128390026D01*
X125138168Y-128403910D01*
X125155438Y-128419562D01*
X125171090Y-128436832D01*
X125184974Y-128455552D01*
X125196956Y-128475543D01*
X125206921Y-128496613D01*
X125214773Y-128518557D01*
X125220437Y-128541166D01*
X125223856Y-128564221D01*
X125225000Y-128587500D01*
X125225000Y-129162500D01*
X125223856Y-129185779D01*
X125220437Y-129208834D01*
X125214773Y-129231443D01*
X125206921Y-129253387D01*
X125196956Y-129274457D01*
X125184974Y-129294448D01*
X125171090Y-129313168D01*
X125155438Y-129330438D01*
X125138168Y-129346090D01*
X125119448Y-129359974D01*
X125099457Y-129371956D01*
X125078387Y-129381921D01*
X125056443Y-129389773D01*
X125033834Y-129395437D01*
X125010779Y-129398856D01*
X124987500Y-129400000D01*
X124512500Y-129400000D01*
X124489221Y-129398856D01*
X124466166Y-129395437D01*
X124443557Y-129389773D01*
X124421613Y-129381921D01*
X124400543Y-129371956D01*
X124380552Y-129359974D01*
X124361832Y-129346090D01*
X124344562Y-129330438D01*
X124328910Y-129313168D01*
X124315026Y-129294448D01*
X124303044Y-129274457D01*
X124293079Y-129253387D01*
X124285227Y-129231443D01*
X124279563Y-129208834D01*
X124276144Y-129185779D01*
X124275000Y-129162500D01*
X124275000Y-128587500D01*
X124276144Y-128564221D01*
X124279563Y-128541166D01*
X124285227Y-128518557D01*
X124293079Y-128496613D01*
X124303044Y-128475543D01*
X124315026Y-128455552D01*
X124328910Y-128436832D01*
X124344562Y-128419562D01*
X124361832Y-128403910D01*
X124380552Y-128390026D01*
X124400543Y-128378044D01*
X124421613Y-128368079D01*
X124443557Y-128360227D01*
X124466166Y-128354563D01*
X124489221Y-128351144D01*
X124512500Y-128350000D01*
X124987500Y-128350000D01*
X125010779Y-128351144D01*
G37*
G36*
X125010779Y-124351144D02*
G01*
X125033834Y-124354563D01*
X125056443Y-124360227D01*
X125078387Y-124368079D01*
X125099457Y-124378044D01*
X125119448Y-124390026D01*
X125138168Y-124403910D01*
X125155438Y-124419562D01*
X125171090Y-124436832D01*
X125184974Y-124455552D01*
X125196956Y-124475543D01*
X125206921Y-124496613D01*
X125214773Y-124518557D01*
X125220437Y-124541166D01*
X125223856Y-124564221D01*
X125225000Y-124587500D01*
X125225000Y-125162500D01*
X125223856Y-125185779D01*
X125220437Y-125208834D01*
X125214773Y-125231443D01*
X125206921Y-125253387D01*
X125196956Y-125274457D01*
X125184974Y-125294448D01*
X125171090Y-125313168D01*
X125155438Y-125330438D01*
X125138168Y-125346090D01*
X125119448Y-125359974D01*
X125099457Y-125371956D01*
X125078387Y-125381921D01*
X125056443Y-125389773D01*
X125033834Y-125395437D01*
X125010779Y-125398856D01*
X124987500Y-125400000D01*
X124512500Y-125400000D01*
X124489221Y-125398856D01*
X124466166Y-125395437D01*
X124443557Y-125389773D01*
X124421613Y-125381921D01*
X124400543Y-125371956D01*
X124380552Y-125359974D01*
X124361832Y-125346090D01*
X124344562Y-125330438D01*
X124328910Y-125313168D01*
X124315026Y-125294448D01*
X124303044Y-125274457D01*
X124293079Y-125253387D01*
X124285227Y-125231443D01*
X124279563Y-125208834D01*
X124276144Y-125185779D01*
X124275000Y-125162500D01*
X124275000Y-124587500D01*
X124276144Y-124564221D01*
X124279563Y-124541166D01*
X124285227Y-124518557D01*
X124293079Y-124496613D01*
X124303044Y-124475543D01*
X124315026Y-124455552D01*
X124328910Y-124436832D01*
X124344562Y-124419562D01*
X124361832Y-124403910D01*
X124380552Y-124390026D01*
X124400543Y-124378044D01*
X124421613Y-124368079D01*
X124443557Y-124360227D01*
X124466166Y-124354563D01*
X124489221Y-124351144D01*
X124512500Y-124350000D01*
X124987500Y-124350000D01*
X125010779Y-124351144D01*
G37*
G36*
X125010779Y-122601144D02*
G01*
X125033834Y-122604563D01*
X125056443Y-122610227D01*
X125078387Y-122618079D01*
X125099457Y-122628044D01*
X125119448Y-122640026D01*
X125138168Y-122653910D01*
X125155438Y-122669562D01*
X125171090Y-122686832D01*
X125184974Y-122705552D01*
X125196956Y-122725543D01*
X125206921Y-122746613D01*
X125214773Y-122768557D01*
X125220437Y-122791166D01*
X125223856Y-122814221D01*
X125225000Y-122837500D01*
X125225000Y-123412500D01*
X125223856Y-123435779D01*
X125220437Y-123458834D01*
X125214773Y-123481443D01*
X125206921Y-123503387D01*
X125196956Y-123524457D01*
X125184974Y-123544448D01*
X125171090Y-123563168D01*
X125155438Y-123580438D01*
X125138168Y-123596090D01*
X125119448Y-123609974D01*
X125099457Y-123621956D01*
X125078387Y-123631921D01*
X125056443Y-123639773D01*
X125033834Y-123645437D01*
X125010779Y-123648856D01*
X124987500Y-123650000D01*
X124512500Y-123650000D01*
X124489221Y-123648856D01*
X124466166Y-123645437D01*
X124443557Y-123639773D01*
X124421613Y-123631921D01*
X124400543Y-123621956D01*
X124380552Y-123609974D01*
X124361832Y-123596090D01*
X124344562Y-123580438D01*
X124328910Y-123563168D01*
X124315026Y-123544448D01*
X124303044Y-123524457D01*
X124293079Y-123503387D01*
X124285227Y-123481443D01*
X124279563Y-123458834D01*
X124276144Y-123435779D01*
X124275000Y-123412500D01*
X124275000Y-122837500D01*
X124276144Y-122814221D01*
X124279563Y-122791166D01*
X124285227Y-122768557D01*
X124293079Y-122746613D01*
X124303044Y-122725543D01*
X124315026Y-122705552D01*
X124328910Y-122686832D01*
X124344562Y-122669562D01*
X124361832Y-122653910D01*
X124380552Y-122640026D01*
X124400543Y-122628044D01*
X124421613Y-122618079D01*
X124443557Y-122610227D01*
X124466166Y-122604563D01*
X124489221Y-122601144D01*
X124512500Y-122600000D01*
X124987500Y-122600000D01*
X125010779Y-122601144D01*
G37*
G36*
X114685779Y-132026144D02*
G01*
X114708834Y-132029563D01*
X114731443Y-132035227D01*
X114753387Y-132043079D01*
X114774457Y-132053044D01*
X114794448Y-132065026D01*
X114813168Y-132078910D01*
X114830438Y-132094562D01*
X114846090Y-132111832D01*
X114859974Y-132130552D01*
X114871956Y-132150543D01*
X114881921Y-132171613D01*
X114889773Y-132193557D01*
X114895437Y-132216166D01*
X114898856Y-132239221D01*
X114900000Y-132262500D01*
X114900000Y-132737500D01*
X114898856Y-132760779D01*
X114895437Y-132783834D01*
X114889773Y-132806443D01*
X114881921Y-132828387D01*
X114871956Y-132849457D01*
X114859974Y-132869448D01*
X114846090Y-132888168D01*
X114830438Y-132905438D01*
X114813168Y-132921090D01*
X114794448Y-132934974D01*
X114774457Y-132946956D01*
X114753387Y-132956921D01*
X114731443Y-132964773D01*
X114708834Y-132970437D01*
X114685779Y-132973856D01*
X114662500Y-132975000D01*
X114087500Y-132975000D01*
X114064221Y-132973856D01*
X114041166Y-132970437D01*
X114018557Y-132964773D01*
X113996613Y-132956921D01*
X113975543Y-132946956D01*
X113955552Y-132934974D01*
X113936832Y-132921090D01*
X113919562Y-132905438D01*
X113903910Y-132888168D01*
X113890026Y-132869448D01*
X113878044Y-132849457D01*
X113868079Y-132828387D01*
X113860227Y-132806443D01*
X113854563Y-132783834D01*
X113851144Y-132760779D01*
X113850000Y-132737500D01*
X113850000Y-132262500D01*
X113851144Y-132239221D01*
X113854563Y-132216166D01*
X113860227Y-132193557D01*
X113868079Y-132171613D01*
X113878044Y-132150543D01*
X113890026Y-132130552D01*
X113903910Y-132111832D01*
X113919562Y-132094562D01*
X113936832Y-132078910D01*
X113955552Y-132065026D01*
X113975543Y-132053044D01*
X113996613Y-132043079D01*
X114018557Y-132035227D01*
X114041166Y-132029563D01*
X114064221Y-132026144D01*
X114087500Y-132025000D01*
X114662500Y-132025000D01*
X114685779Y-132026144D01*
G37*
G36*
X112935779Y-132026144D02*
G01*
X112958834Y-132029563D01*
X112981443Y-132035227D01*
X113003387Y-132043079D01*
X113024457Y-132053044D01*
X113044448Y-132065026D01*
X113063168Y-132078910D01*
X113080438Y-132094562D01*
X113096090Y-132111832D01*
X113109974Y-132130552D01*
X113121956Y-132150543D01*
X113131921Y-132171613D01*
X113139773Y-132193557D01*
X113145437Y-132216166D01*
X113148856Y-132239221D01*
X113150000Y-132262500D01*
X113150000Y-132737500D01*
X113148856Y-132760779D01*
X113145437Y-132783834D01*
X113139773Y-132806443D01*
X113131921Y-132828387D01*
X113121956Y-132849457D01*
X113109974Y-132869448D01*
X113096090Y-132888168D01*
X113080438Y-132905438D01*
X113063168Y-132921090D01*
X113044448Y-132934974D01*
X113024457Y-132946956D01*
X113003387Y-132956921D01*
X112981443Y-132964773D01*
X112958834Y-132970437D01*
X112935779Y-132973856D01*
X112912500Y-132975000D01*
X112337500Y-132975000D01*
X112314221Y-132973856D01*
X112291166Y-132970437D01*
X112268557Y-132964773D01*
X112246613Y-132956921D01*
X112225543Y-132946956D01*
X112205552Y-132934974D01*
X112186832Y-132921090D01*
X112169562Y-132905438D01*
X112153910Y-132888168D01*
X112140026Y-132869448D01*
X112128044Y-132849457D01*
X112118079Y-132828387D01*
X112110227Y-132806443D01*
X112104563Y-132783834D01*
X112101144Y-132760779D01*
X112100000Y-132737500D01*
X112100000Y-132262500D01*
X112101144Y-132239221D01*
X112104563Y-132216166D01*
X112110227Y-132193557D01*
X112118079Y-132171613D01*
X112128044Y-132150543D01*
X112140026Y-132130552D01*
X112153910Y-132111832D01*
X112169562Y-132094562D01*
X112186832Y-132078910D01*
X112205552Y-132065026D01*
X112225543Y-132053044D01*
X112246613Y-132043079D01*
X112268557Y-132035227D01*
X112291166Y-132029563D01*
X112314221Y-132026144D01*
X112337500Y-132025000D01*
X112912500Y-132025000D01*
X112935779Y-132026144D01*
G37*
G36*
X119185779Y-137526144D02*
G01*
X119208834Y-137529563D01*
X119231443Y-137535227D01*
X119253387Y-137543079D01*
X119274457Y-137553044D01*
X119294448Y-137565026D01*
X119313168Y-137578910D01*
X119330438Y-137594562D01*
X119346090Y-137611832D01*
X119359974Y-137630552D01*
X119371956Y-137650543D01*
X119381921Y-137671613D01*
X119389773Y-137693557D01*
X119395437Y-137716166D01*
X119398856Y-137739221D01*
X119400000Y-137762500D01*
X119400000Y-138237500D01*
X119398856Y-138260779D01*
X119395437Y-138283834D01*
X119389773Y-138306443D01*
X119381921Y-138328387D01*
X119371956Y-138349457D01*
X119359974Y-138369448D01*
X119346090Y-138388168D01*
X119330438Y-138405438D01*
X119313168Y-138421090D01*
X119294448Y-138434974D01*
X119274457Y-138446956D01*
X119253387Y-138456921D01*
X119231443Y-138464773D01*
X119208834Y-138470437D01*
X119185779Y-138473856D01*
X119162500Y-138475000D01*
X118587500Y-138475000D01*
X118564221Y-138473856D01*
X118541166Y-138470437D01*
X118518557Y-138464773D01*
X118496613Y-138456921D01*
X118475543Y-138446956D01*
X118455552Y-138434974D01*
X118436832Y-138421090D01*
X118419562Y-138405438D01*
X118403910Y-138388168D01*
X118390026Y-138369448D01*
X118378044Y-138349457D01*
X118368079Y-138328387D01*
X118360227Y-138306443D01*
X118354563Y-138283834D01*
X118351144Y-138260779D01*
X118350000Y-138237500D01*
X118350000Y-137762500D01*
X118351144Y-137739221D01*
X118354563Y-137716166D01*
X118360227Y-137693557D01*
X118368079Y-137671613D01*
X118378044Y-137650543D01*
X118390026Y-137630552D01*
X118403910Y-137611832D01*
X118419562Y-137594562D01*
X118436832Y-137578910D01*
X118455552Y-137565026D01*
X118475543Y-137553044D01*
X118496613Y-137543079D01*
X118518557Y-137535227D01*
X118541166Y-137529563D01*
X118564221Y-137526144D01*
X118587500Y-137525000D01*
X119162500Y-137525000D01*
X119185779Y-137526144D01*
G37*
G36*
X117435779Y-137526144D02*
G01*
X117458834Y-137529563D01*
X117481443Y-137535227D01*
X117503387Y-137543079D01*
X117524457Y-137553044D01*
X117544448Y-137565026D01*
X117563168Y-137578910D01*
X117580438Y-137594562D01*
X117596090Y-137611832D01*
X117609974Y-137630552D01*
X117621956Y-137650543D01*
X117631921Y-137671613D01*
X117639773Y-137693557D01*
X117645437Y-137716166D01*
X117648856Y-137739221D01*
X117650000Y-137762500D01*
X117650000Y-138237500D01*
X117648856Y-138260779D01*
X117645437Y-138283834D01*
X117639773Y-138306443D01*
X117631921Y-138328387D01*
X117621956Y-138349457D01*
X117609974Y-138369448D01*
X117596090Y-138388168D01*
X117580438Y-138405438D01*
X117563168Y-138421090D01*
X117544448Y-138434974D01*
X117524457Y-138446956D01*
X117503387Y-138456921D01*
X117481443Y-138464773D01*
X117458834Y-138470437D01*
X117435779Y-138473856D01*
X117412500Y-138475000D01*
X116837500Y-138475000D01*
X116814221Y-138473856D01*
X116791166Y-138470437D01*
X116768557Y-138464773D01*
X116746613Y-138456921D01*
X116725543Y-138446956D01*
X116705552Y-138434974D01*
X116686832Y-138421090D01*
X116669562Y-138405438D01*
X116653910Y-138388168D01*
X116640026Y-138369448D01*
X116628044Y-138349457D01*
X116618079Y-138328387D01*
X116610227Y-138306443D01*
X116604563Y-138283834D01*
X116601144Y-138260779D01*
X116600000Y-138237500D01*
X116600000Y-137762500D01*
X116601144Y-137739221D01*
X116604563Y-137716166D01*
X116610227Y-137693557D01*
X116618079Y-137671613D01*
X116628044Y-137650543D01*
X116640026Y-137630552D01*
X116653910Y-137611832D01*
X116669562Y-137594562D01*
X116686832Y-137578910D01*
X116705552Y-137565026D01*
X116725543Y-137553044D01*
X116746613Y-137543079D01*
X116768557Y-137535227D01*
X116791166Y-137529563D01*
X116814221Y-137526144D01*
X116837500Y-137525000D01*
X117412500Y-137525000D01*
X117435779Y-137526144D01*
G37*
G36*
X112160779Y-126101144D02*
G01*
X112183834Y-126104563D01*
X112206443Y-126110227D01*
X112228387Y-126118079D01*
X112249457Y-126128044D01*
X112269448Y-126140026D01*
X112288168Y-126153910D01*
X112305438Y-126169562D01*
X112321090Y-126186832D01*
X112334974Y-126205552D01*
X112346956Y-126225543D01*
X112356921Y-126246613D01*
X112364773Y-126268557D01*
X112370437Y-126291166D01*
X112373856Y-126314221D01*
X112375000Y-126337500D01*
X112375000Y-126912500D01*
X112373856Y-126935779D01*
X112370437Y-126958834D01*
X112364773Y-126981443D01*
X112356921Y-127003387D01*
X112346956Y-127024457D01*
X112334974Y-127044448D01*
X112321090Y-127063168D01*
X112305438Y-127080438D01*
X112288168Y-127096090D01*
X112269448Y-127109974D01*
X112249457Y-127121956D01*
X112228387Y-127131921D01*
X112206443Y-127139773D01*
X112183834Y-127145437D01*
X112160779Y-127148856D01*
X112137500Y-127150000D01*
X111662500Y-127150000D01*
X111639221Y-127148856D01*
X111616166Y-127145437D01*
X111593557Y-127139773D01*
X111571613Y-127131921D01*
X111550543Y-127121956D01*
X111530552Y-127109974D01*
X111511832Y-127096090D01*
X111494562Y-127080438D01*
X111478910Y-127063168D01*
X111465026Y-127044448D01*
X111453044Y-127024457D01*
X111443079Y-127003387D01*
X111435227Y-126981443D01*
X111429563Y-126958834D01*
X111426144Y-126935779D01*
X111425000Y-126912500D01*
X111425000Y-126337500D01*
X111426144Y-126314221D01*
X111429563Y-126291166D01*
X111435227Y-126268557D01*
X111443079Y-126246613D01*
X111453044Y-126225543D01*
X111465026Y-126205552D01*
X111478910Y-126186832D01*
X111494562Y-126169562D01*
X111511832Y-126153910D01*
X111530552Y-126140026D01*
X111550543Y-126128044D01*
X111571613Y-126118079D01*
X111593557Y-126110227D01*
X111616166Y-126104563D01*
X111639221Y-126101144D01*
X111662500Y-126100000D01*
X112137500Y-126100000D01*
X112160779Y-126101144D01*
G37*
G36*
X112160779Y-124351144D02*
G01*
X112183834Y-124354563D01*
X112206443Y-124360227D01*
X112228387Y-124368079D01*
X112249457Y-124378044D01*
X112269448Y-124390026D01*
X112288168Y-124403910D01*
X112305438Y-124419562D01*
X112321090Y-124436832D01*
X112334974Y-124455552D01*
X112346956Y-124475543D01*
X112356921Y-124496613D01*
X112364773Y-124518557D01*
X112370437Y-124541166D01*
X112373856Y-124564221D01*
X112375000Y-124587500D01*
X112375000Y-125162500D01*
X112373856Y-125185779D01*
X112370437Y-125208834D01*
X112364773Y-125231443D01*
X112356921Y-125253387D01*
X112346956Y-125274457D01*
X112334974Y-125294448D01*
X112321090Y-125313168D01*
X112305438Y-125330438D01*
X112288168Y-125346090D01*
X112269448Y-125359974D01*
X112249457Y-125371956D01*
X112228387Y-125381921D01*
X112206443Y-125389773D01*
X112183834Y-125395437D01*
X112160779Y-125398856D01*
X112137500Y-125400000D01*
X111662500Y-125400000D01*
X111639221Y-125398856D01*
X111616166Y-125395437D01*
X111593557Y-125389773D01*
X111571613Y-125381921D01*
X111550543Y-125371956D01*
X111530552Y-125359974D01*
X111511832Y-125346090D01*
X111494562Y-125330438D01*
X111478910Y-125313168D01*
X111465026Y-125294448D01*
X111453044Y-125274457D01*
X111443079Y-125253387D01*
X111435227Y-125231443D01*
X111429563Y-125208834D01*
X111426144Y-125185779D01*
X111425000Y-125162500D01*
X111425000Y-124587500D01*
X111426144Y-124564221D01*
X111429563Y-124541166D01*
X111435227Y-124518557D01*
X111443079Y-124496613D01*
X111453044Y-124475543D01*
X111465026Y-124455552D01*
X111478910Y-124436832D01*
X111494562Y-124419562D01*
X111511832Y-124403910D01*
X111530552Y-124390026D01*
X111550543Y-124378044D01*
X111571613Y-124368079D01*
X111593557Y-124360227D01*
X111616166Y-124354563D01*
X111639221Y-124351144D01*
X111662500Y-124350000D01*
X112137500Y-124350000D01*
X112160779Y-124351144D01*
G37*
G36*
X115435779Y-126276144D02*
G01*
X115458834Y-126279563D01*
X115481443Y-126285227D01*
X115503387Y-126293079D01*
X115524457Y-126303044D01*
X115544448Y-126315026D01*
X115563168Y-126328910D01*
X115580438Y-126344562D01*
X115596090Y-126361832D01*
X115609974Y-126380552D01*
X115621956Y-126400543D01*
X115631921Y-126421613D01*
X115639773Y-126443557D01*
X115645437Y-126466166D01*
X115648856Y-126489221D01*
X115650000Y-126512500D01*
X115650000Y-126987500D01*
X115648856Y-127010779D01*
X115645437Y-127033834D01*
X115639773Y-127056443D01*
X115631921Y-127078387D01*
X115621956Y-127099457D01*
X115609974Y-127119448D01*
X115596090Y-127138168D01*
X115580438Y-127155438D01*
X115563168Y-127171090D01*
X115544448Y-127184974D01*
X115524457Y-127196956D01*
X115503387Y-127206921D01*
X115481443Y-127214773D01*
X115458834Y-127220437D01*
X115435779Y-127223856D01*
X115412500Y-127225000D01*
X114837500Y-127225000D01*
X114814221Y-127223856D01*
X114791166Y-127220437D01*
X114768557Y-127214773D01*
X114746613Y-127206921D01*
X114725543Y-127196956D01*
X114705552Y-127184974D01*
X114686832Y-127171090D01*
X114669562Y-127155438D01*
X114653910Y-127138168D01*
X114640026Y-127119448D01*
X114628044Y-127099457D01*
X114618079Y-127078387D01*
X114610227Y-127056443D01*
X114604563Y-127033834D01*
X114601144Y-127010779D01*
X114600000Y-126987500D01*
X114600000Y-126512500D01*
X114601144Y-126489221D01*
X114604563Y-126466166D01*
X114610227Y-126443557D01*
X114618079Y-126421613D01*
X114628044Y-126400543D01*
X114640026Y-126380552D01*
X114653910Y-126361832D01*
X114669562Y-126344562D01*
X114686832Y-126328910D01*
X114705552Y-126315026D01*
X114725543Y-126303044D01*
X114746613Y-126293079D01*
X114768557Y-126285227D01*
X114791166Y-126279563D01*
X114814221Y-126276144D01*
X114837500Y-126275000D01*
X115412500Y-126275000D01*
X115435779Y-126276144D01*
G37*
G36*
X117185779Y-126276144D02*
G01*
X117208834Y-126279563D01*
X117231443Y-126285227D01*
X117253387Y-126293079D01*
X117274457Y-126303044D01*
X117294448Y-126315026D01*
X117313168Y-126328910D01*
X117330438Y-126344562D01*
X117346090Y-126361832D01*
X117359974Y-126380552D01*
X117371956Y-126400543D01*
X117381921Y-126421613D01*
X117389773Y-126443557D01*
X117395437Y-126466166D01*
X117398856Y-126489221D01*
X117400000Y-126512500D01*
X117400000Y-126987500D01*
X117398856Y-127010779D01*
X117395437Y-127033834D01*
X117389773Y-127056443D01*
X117381921Y-127078387D01*
X117371956Y-127099457D01*
X117359974Y-127119448D01*
X117346090Y-127138168D01*
X117330438Y-127155438D01*
X117313168Y-127171090D01*
X117294448Y-127184974D01*
X117274457Y-127196956D01*
X117253387Y-127206921D01*
X117231443Y-127214773D01*
X117208834Y-127220437D01*
X117185779Y-127223856D01*
X117162500Y-127225000D01*
X116587500Y-127225000D01*
X116564221Y-127223856D01*
X116541166Y-127220437D01*
X116518557Y-127214773D01*
X116496613Y-127206921D01*
X116475543Y-127196956D01*
X116455552Y-127184974D01*
X116436832Y-127171090D01*
X116419562Y-127155438D01*
X116403910Y-127138168D01*
X116390026Y-127119448D01*
X116378044Y-127099457D01*
X116368079Y-127078387D01*
X116360227Y-127056443D01*
X116354563Y-127033834D01*
X116351144Y-127010779D01*
X116350000Y-126987500D01*
X116350000Y-126512500D01*
X116351144Y-126489221D01*
X116354563Y-126466166D01*
X116360227Y-126443557D01*
X116368079Y-126421613D01*
X116378044Y-126400543D01*
X116390026Y-126380552D01*
X116403910Y-126361832D01*
X116419562Y-126344562D01*
X116436832Y-126328910D01*
X116455552Y-126315026D01*
X116475543Y-126303044D01*
X116496613Y-126293079D01*
X116518557Y-126285227D01*
X116541166Y-126279563D01*
X116564221Y-126276144D01*
X116587500Y-126275000D01*
X117162500Y-126275000D01*
X117185779Y-126276144D01*
G37*
G36*
X120585779Y-126276144D02*
G01*
X120608834Y-126279563D01*
X120631443Y-126285227D01*
X120653387Y-126293079D01*
X120674457Y-126303044D01*
X120694448Y-126315026D01*
X120713168Y-126328910D01*
X120730438Y-126344562D01*
X120746090Y-126361832D01*
X120759974Y-126380552D01*
X120771956Y-126400543D01*
X120781921Y-126421613D01*
X120789773Y-126443557D01*
X120795437Y-126466166D01*
X120798856Y-126489221D01*
X120800000Y-126512500D01*
X120800000Y-126987500D01*
X120798856Y-127010779D01*
X120795437Y-127033834D01*
X120789773Y-127056443D01*
X120781921Y-127078387D01*
X120771956Y-127099457D01*
X120759974Y-127119448D01*
X120746090Y-127138168D01*
X120730438Y-127155438D01*
X120713168Y-127171090D01*
X120694448Y-127184974D01*
X120674457Y-127196956D01*
X120653387Y-127206921D01*
X120631443Y-127214773D01*
X120608834Y-127220437D01*
X120585779Y-127223856D01*
X120562500Y-127225000D01*
X119987500Y-127225000D01*
X119964221Y-127223856D01*
X119941166Y-127220437D01*
X119918557Y-127214773D01*
X119896613Y-127206921D01*
X119875543Y-127196956D01*
X119855552Y-127184974D01*
X119836832Y-127171090D01*
X119819562Y-127155438D01*
X119803910Y-127138168D01*
X119790026Y-127119448D01*
X119778044Y-127099457D01*
X119768079Y-127078387D01*
X119760227Y-127056443D01*
X119754563Y-127033834D01*
X119751144Y-127010779D01*
X119750000Y-126987500D01*
X119750000Y-126512500D01*
X119751144Y-126489221D01*
X119754563Y-126466166D01*
X119760227Y-126443557D01*
X119768079Y-126421613D01*
X119778044Y-126400543D01*
X119790026Y-126380552D01*
X119803910Y-126361832D01*
X119819562Y-126344562D01*
X119836832Y-126328910D01*
X119855552Y-126315026D01*
X119875543Y-126303044D01*
X119896613Y-126293079D01*
X119918557Y-126285227D01*
X119941166Y-126279563D01*
X119964221Y-126276144D01*
X119987500Y-126275000D01*
X120562500Y-126275000D01*
X120585779Y-126276144D01*
G37*
G36*
X118835779Y-126276144D02*
G01*
X118858834Y-126279563D01*
X118881443Y-126285227D01*
X118903387Y-126293079D01*
X118924457Y-126303044D01*
X118944448Y-126315026D01*
X118963168Y-126328910D01*
X118980438Y-126344562D01*
X118996090Y-126361832D01*
X119009974Y-126380552D01*
X119021956Y-126400543D01*
X119031921Y-126421613D01*
X119039773Y-126443557D01*
X119045437Y-126466166D01*
X119048856Y-126489221D01*
X119050000Y-126512500D01*
X119050000Y-126987500D01*
X119048856Y-127010779D01*
X119045437Y-127033834D01*
X119039773Y-127056443D01*
X119031921Y-127078387D01*
X119021956Y-127099457D01*
X119009974Y-127119448D01*
X118996090Y-127138168D01*
X118980438Y-127155438D01*
X118963168Y-127171090D01*
X118944448Y-127184974D01*
X118924457Y-127196956D01*
X118903387Y-127206921D01*
X118881443Y-127214773D01*
X118858834Y-127220437D01*
X118835779Y-127223856D01*
X118812500Y-127225000D01*
X118237500Y-127225000D01*
X118214221Y-127223856D01*
X118191166Y-127220437D01*
X118168557Y-127214773D01*
X118146613Y-127206921D01*
X118125543Y-127196956D01*
X118105552Y-127184974D01*
X118086832Y-127171090D01*
X118069562Y-127155438D01*
X118053910Y-127138168D01*
X118040026Y-127119448D01*
X118028044Y-127099457D01*
X118018079Y-127078387D01*
X118010227Y-127056443D01*
X118004563Y-127033834D01*
X118001144Y-127010779D01*
X118000000Y-126987500D01*
X118000000Y-126512500D01*
X118001144Y-126489221D01*
X118004563Y-126466166D01*
X118010227Y-126443557D01*
X118018079Y-126421613D01*
X118028044Y-126400543D01*
X118040026Y-126380552D01*
X118053910Y-126361832D01*
X118069562Y-126344562D01*
X118086832Y-126328910D01*
X118105552Y-126315026D01*
X118125543Y-126303044D01*
X118146613Y-126293079D01*
X118168557Y-126285227D01*
X118191166Y-126279563D01*
X118214221Y-126276144D01*
X118237500Y-126275000D01*
X118812500Y-126275000D01*
X118835779Y-126276144D01*
G37*
G36*
X121010779Y-137151144D02*
G01*
X121033834Y-137154563D01*
X121056443Y-137160227D01*
X121078387Y-137168079D01*
X121099457Y-137178044D01*
X121119448Y-137190026D01*
X121138168Y-137203910D01*
X121155438Y-137219562D01*
X121171090Y-137236832D01*
X121184974Y-137255552D01*
X121196956Y-137275543D01*
X121206921Y-137296613D01*
X121214773Y-137318557D01*
X121220437Y-137341166D01*
X121223856Y-137364221D01*
X121225000Y-137387500D01*
X121225000Y-137962500D01*
X121223856Y-137985779D01*
X121220437Y-138008834D01*
X121214773Y-138031443D01*
X121206921Y-138053387D01*
X121196956Y-138074457D01*
X121184974Y-138094448D01*
X121171090Y-138113168D01*
X121155438Y-138130438D01*
X121138168Y-138146090D01*
X121119448Y-138159974D01*
X121099457Y-138171956D01*
X121078387Y-138181921D01*
X121056443Y-138189773D01*
X121033834Y-138195437D01*
X121010779Y-138198856D01*
X120987500Y-138200000D01*
X120512500Y-138200000D01*
X120489221Y-138198856D01*
X120466166Y-138195437D01*
X120443557Y-138189773D01*
X120421613Y-138181921D01*
X120400543Y-138171956D01*
X120380552Y-138159974D01*
X120361832Y-138146090D01*
X120344562Y-138130438D01*
X120328910Y-138113168D01*
X120315026Y-138094448D01*
X120303044Y-138074457D01*
X120293079Y-138053387D01*
X120285227Y-138031443D01*
X120279563Y-138008834D01*
X120276144Y-137985779D01*
X120275000Y-137962500D01*
X120275000Y-137387500D01*
X120276144Y-137364221D01*
X120279563Y-137341166D01*
X120285227Y-137318557D01*
X120293079Y-137296613D01*
X120303044Y-137275543D01*
X120315026Y-137255552D01*
X120328910Y-137236832D01*
X120344562Y-137219562D01*
X120361832Y-137203910D01*
X120380552Y-137190026D01*
X120400543Y-137178044D01*
X120421613Y-137168079D01*
X120443557Y-137160227D01*
X120466166Y-137154563D01*
X120489221Y-137151144D01*
X120512500Y-137150000D01*
X120987500Y-137150000D01*
X121010779Y-137151144D01*
G37*
G36*
X121010779Y-135401144D02*
G01*
X121033834Y-135404563D01*
X121056443Y-135410227D01*
X121078387Y-135418079D01*
X121099457Y-135428044D01*
X121119448Y-135440026D01*
X121138168Y-135453910D01*
X121155438Y-135469562D01*
X121171090Y-135486832D01*
X121184974Y-135505552D01*
X121196956Y-135525543D01*
X121206921Y-135546613D01*
X121214773Y-135568557D01*
X121220437Y-135591166D01*
X121223856Y-135614221D01*
X121225000Y-135637500D01*
X121225000Y-136212500D01*
X121223856Y-136235779D01*
X121220437Y-136258834D01*
X121214773Y-136281443D01*
X121206921Y-136303387D01*
X121196956Y-136324457D01*
X121184974Y-136344448D01*
X121171090Y-136363168D01*
X121155438Y-136380438D01*
X121138168Y-136396090D01*
X121119448Y-136409974D01*
X121099457Y-136421956D01*
X121078387Y-136431921D01*
X121056443Y-136439773D01*
X121033834Y-136445437D01*
X121010779Y-136448856D01*
X120987500Y-136450000D01*
X120512500Y-136450000D01*
X120489221Y-136448856D01*
X120466166Y-136445437D01*
X120443557Y-136439773D01*
X120421613Y-136431921D01*
X120400543Y-136421956D01*
X120380552Y-136409974D01*
X120361832Y-136396090D01*
X120344562Y-136380438D01*
X120328910Y-136363168D01*
X120315026Y-136344448D01*
X120303044Y-136324457D01*
X120293079Y-136303387D01*
X120285227Y-136281443D01*
X120279563Y-136258834D01*
X120276144Y-136235779D01*
X120275000Y-136212500D01*
X120275000Y-135637500D01*
X120276144Y-135614221D01*
X120279563Y-135591166D01*
X120285227Y-135568557D01*
X120293079Y-135546613D01*
X120303044Y-135525543D01*
X120315026Y-135505552D01*
X120328910Y-135486832D01*
X120344562Y-135469562D01*
X120361832Y-135453910D01*
X120380552Y-135440026D01*
X120400543Y-135428044D01*
X120421613Y-135418079D01*
X120443557Y-135410227D01*
X120466166Y-135404563D01*
X120489221Y-135401144D01*
X120512500Y-135400000D01*
X120987500Y-135400000D01*
X121010779Y-135401144D01*
G37*
G36*
X113685779Y-137526144D02*
G01*
X113708834Y-137529563D01*
X113731443Y-137535227D01*
X113753387Y-137543079D01*
X113774457Y-137553044D01*
X113794448Y-137565026D01*
X113813168Y-137578910D01*
X113830438Y-137594562D01*
X113846090Y-137611832D01*
X113859974Y-137630552D01*
X113871956Y-137650543D01*
X113881921Y-137671613D01*
X113889773Y-137693557D01*
X113895437Y-137716166D01*
X113898856Y-137739221D01*
X113900000Y-137762500D01*
X113900000Y-138237500D01*
X113898856Y-138260779D01*
X113895437Y-138283834D01*
X113889773Y-138306443D01*
X113881921Y-138328387D01*
X113871956Y-138349457D01*
X113859974Y-138369448D01*
X113846090Y-138388168D01*
X113830438Y-138405438D01*
X113813168Y-138421090D01*
X113794448Y-138434974D01*
X113774457Y-138446956D01*
X113753387Y-138456921D01*
X113731443Y-138464773D01*
X113708834Y-138470437D01*
X113685779Y-138473856D01*
X113662500Y-138475000D01*
X113087500Y-138475000D01*
X113064221Y-138473856D01*
X113041166Y-138470437D01*
X113018557Y-138464773D01*
X112996613Y-138456921D01*
X112975543Y-138446956D01*
X112955552Y-138434974D01*
X112936832Y-138421090D01*
X112919562Y-138405438D01*
X112903910Y-138388168D01*
X112890026Y-138369448D01*
X112878044Y-138349457D01*
X112868079Y-138328387D01*
X112860227Y-138306443D01*
X112854563Y-138283834D01*
X112851144Y-138260779D01*
X112850000Y-138237500D01*
X112850000Y-137762500D01*
X112851144Y-137739221D01*
X112854563Y-137716166D01*
X112860227Y-137693557D01*
X112868079Y-137671613D01*
X112878044Y-137650543D01*
X112890026Y-137630552D01*
X112903910Y-137611832D01*
X112919562Y-137594562D01*
X112936832Y-137578910D01*
X112955552Y-137565026D01*
X112975543Y-137553044D01*
X112996613Y-137543079D01*
X113018557Y-137535227D01*
X113041166Y-137529563D01*
X113064221Y-137526144D01*
X113087500Y-137525000D01*
X113662500Y-137525000D01*
X113685779Y-137526144D01*
G37*
G36*
X115435779Y-137526144D02*
G01*
X115458834Y-137529563D01*
X115481443Y-137535227D01*
X115503387Y-137543079D01*
X115524457Y-137553044D01*
X115544448Y-137565026D01*
X115563168Y-137578910D01*
X115580438Y-137594562D01*
X115596090Y-137611832D01*
X115609974Y-137630552D01*
X115621956Y-137650543D01*
X115631921Y-137671613D01*
X115639773Y-137693557D01*
X115645437Y-137716166D01*
X115648856Y-137739221D01*
X115650000Y-137762500D01*
X115650000Y-138237500D01*
X115648856Y-138260779D01*
X115645437Y-138283834D01*
X115639773Y-138306443D01*
X115631921Y-138328387D01*
X115621956Y-138349457D01*
X115609974Y-138369448D01*
X115596090Y-138388168D01*
X115580438Y-138405438D01*
X115563168Y-138421090D01*
X115544448Y-138434974D01*
X115524457Y-138446956D01*
X115503387Y-138456921D01*
X115481443Y-138464773D01*
X115458834Y-138470437D01*
X115435779Y-138473856D01*
X115412500Y-138475000D01*
X114837500Y-138475000D01*
X114814221Y-138473856D01*
X114791166Y-138470437D01*
X114768557Y-138464773D01*
X114746613Y-138456921D01*
X114725543Y-138446956D01*
X114705552Y-138434974D01*
X114686832Y-138421090D01*
X114669562Y-138405438D01*
X114653910Y-138388168D01*
X114640026Y-138369448D01*
X114628044Y-138349457D01*
X114618079Y-138328387D01*
X114610227Y-138306443D01*
X114604563Y-138283834D01*
X114601144Y-138260779D01*
X114600000Y-138237500D01*
X114600000Y-137762500D01*
X114601144Y-137739221D01*
X114604563Y-137716166D01*
X114610227Y-137693557D01*
X114618079Y-137671613D01*
X114628044Y-137650543D01*
X114640026Y-137630552D01*
X114653910Y-137611832D01*
X114669562Y-137594562D01*
X114686832Y-137578910D01*
X114705552Y-137565026D01*
X114725543Y-137553044D01*
X114746613Y-137543079D01*
X114768557Y-137535227D01*
X114791166Y-137529563D01*
X114814221Y-137526144D01*
X114837500Y-137525000D01*
X115412500Y-137525000D01*
X115435779Y-137526144D01*
G37*
G36*
X113760779Y-124401144D02*
G01*
X113783834Y-124404563D01*
X113806443Y-124410227D01*
X113828387Y-124418079D01*
X113849457Y-124428044D01*
X113869448Y-124440026D01*
X113888168Y-124453910D01*
X113905438Y-124469562D01*
X113921090Y-124486832D01*
X113934974Y-124505552D01*
X113946956Y-124525543D01*
X113956921Y-124546613D01*
X113964773Y-124568557D01*
X113970437Y-124591166D01*
X113973856Y-124614221D01*
X113975000Y-124637500D01*
X113975000Y-125212500D01*
X113973856Y-125235779D01*
X113970437Y-125258834D01*
X113964773Y-125281443D01*
X113956921Y-125303387D01*
X113946956Y-125324457D01*
X113934974Y-125344448D01*
X113921090Y-125363168D01*
X113905438Y-125380438D01*
X113888168Y-125396090D01*
X113869448Y-125409974D01*
X113849457Y-125421956D01*
X113828387Y-125431921D01*
X113806443Y-125439773D01*
X113783834Y-125445437D01*
X113760779Y-125448856D01*
X113737500Y-125450000D01*
X113262500Y-125450000D01*
X113239221Y-125448856D01*
X113216166Y-125445437D01*
X113193557Y-125439773D01*
X113171613Y-125431921D01*
X113150543Y-125421956D01*
X113130552Y-125409974D01*
X113111832Y-125396090D01*
X113094562Y-125380438D01*
X113078910Y-125363168D01*
X113065026Y-125344448D01*
X113053044Y-125324457D01*
X113043079Y-125303387D01*
X113035227Y-125281443D01*
X113029563Y-125258834D01*
X113026144Y-125235779D01*
X113025000Y-125212500D01*
X113025000Y-124637500D01*
X113026144Y-124614221D01*
X113029563Y-124591166D01*
X113035227Y-124568557D01*
X113043079Y-124546613D01*
X113053044Y-124525543D01*
X113065026Y-124505552D01*
X113078910Y-124486832D01*
X113094562Y-124469562D01*
X113111832Y-124453910D01*
X113130552Y-124440026D01*
X113150543Y-124428044D01*
X113171613Y-124418079D01*
X113193557Y-124410227D01*
X113216166Y-124404563D01*
X113239221Y-124401144D01*
X113262500Y-124400000D01*
X113737500Y-124400000D01*
X113760779Y-124401144D01*
G37*
G36*
X113760779Y-126151144D02*
G01*
X113783834Y-126154563D01*
X113806443Y-126160227D01*
X113828387Y-126168079D01*
X113849457Y-126178044D01*
X113869448Y-126190026D01*
X113888168Y-126203910D01*
X113905438Y-126219562D01*
X113921090Y-126236832D01*
X113934974Y-126255552D01*
X113946956Y-126275543D01*
X113956921Y-126296613D01*
X113964773Y-126318557D01*
X113970437Y-126341166D01*
X113973856Y-126364221D01*
X113975000Y-126387500D01*
X113975000Y-126962500D01*
X113973856Y-126985779D01*
X113970437Y-127008834D01*
X113964773Y-127031443D01*
X113956921Y-127053387D01*
X113946956Y-127074457D01*
X113934974Y-127094448D01*
X113921090Y-127113168D01*
X113905438Y-127130438D01*
X113888168Y-127146090D01*
X113869448Y-127159974D01*
X113849457Y-127171956D01*
X113828387Y-127181921D01*
X113806443Y-127189773D01*
X113783834Y-127195437D01*
X113760779Y-127198856D01*
X113737500Y-127200000D01*
X113262500Y-127200000D01*
X113239221Y-127198856D01*
X113216166Y-127195437D01*
X113193557Y-127189773D01*
X113171613Y-127181921D01*
X113150543Y-127171956D01*
X113130552Y-127159974D01*
X113111832Y-127146090D01*
X113094562Y-127130438D01*
X113078910Y-127113168D01*
X113065026Y-127094448D01*
X113053044Y-127074457D01*
X113043079Y-127053387D01*
X113035227Y-127031443D01*
X113029563Y-127008834D01*
X113026144Y-126985779D01*
X113025000Y-126962500D01*
X113025000Y-126387500D01*
X113026144Y-126364221D01*
X113029563Y-126341166D01*
X113035227Y-126318557D01*
X113043079Y-126296613D01*
X113053044Y-126275543D01*
X113065026Y-126255552D01*
X113078910Y-126236832D01*
X113094562Y-126219562D01*
X113111832Y-126203910D01*
X113130552Y-126190026D01*
X113150543Y-126178044D01*
X113171613Y-126168079D01*
X113193557Y-126160227D01*
X113216166Y-126154563D01*
X113239221Y-126151144D01*
X113262500Y-126150000D01*
X113737500Y-126150000D01*
X113760779Y-126151144D01*
G37*
G36*
X117464703Y-132105722D02*
G01*
X117479264Y-132107882D01*
X117493543Y-132111459D01*
X117507403Y-132116418D01*
X117520710Y-132122712D01*
X117533336Y-132130280D01*
X117545159Y-132139048D01*
X117556066Y-132148934D01*
X117565952Y-132159841D01*
X117574720Y-132171664D01*
X117582288Y-132184290D01*
X117588582Y-132197597D01*
X117593541Y-132211457D01*
X117597118Y-132225736D01*
X117599278Y-132240297D01*
X117600000Y-132255000D01*
X117600000Y-132555000D01*
X117599278Y-132569703D01*
X117597118Y-132584264D01*
X117593541Y-132598543D01*
X117588582Y-132612403D01*
X117582288Y-132625710D01*
X117574720Y-132638336D01*
X117565952Y-132650159D01*
X117556066Y-132661066D01*
X117545159Y-132670952D01*
X117533336Y-132679720D01*
X117520710Y-132687288D01*
X117507403Y-132693582D01*
X117493543Y-132698541D01*
X117479264Y-132702118D01*
X117464703Y-132704278D01*
X117450000Y-132705000D01*
X115800000Y-132705000D01*
X115785297Y-132704278D01*
X115770736Y-132702118D01*
X115756457Y-132698541D01*
X115742597Y-132693582D01*
X115729290Y-132687288D01*
X115716664Y-132679720D01*
X115704841Y-132670952D01*
X115693934Y-132661066D01*
X115684048Y-132650159D01*
X115675280Y-132638336D01*
X115667712Y-132625710D01*
X115661418Y-132612403D01*
X115656459Y-132598543D01*
X115652882Y-132584264D01*
X115650722Y-132569703D01*
X115650000Y-132555000D01*
X115650000Y-132255000D01*
X115650722Y-132240297D01*
X115652882Y-132225736D01*
X115656459Y-132211457D01*
X115661418Y-132197597D01*
X115667712Y-132184290D01*
X115675280Y-132171664D01*
X115684048Y-132159841D01*
X115693934Y-132148934D01*
X115704841Y-132139048D01*
X115716664Y-132130280D01*
X115729290Y-132122712D01*
X115742597Y-132116418D01*
X115756457Y-132111459D01*
X115770736Y-132107882D01*
X115785297Y-132105722D01*
X115800000Y-132105000D01*
X117450000Y-132105000D01*
X117464703Y-132105722D01*
G37*
G36*
X117464703Y-130835722D02*
G01*
X117479264Y-130837882D01*
X117493543Y-130841459D01*
X117507403Y-130846418D01*
X117520710Y-130852712D01*
X117533336Y-130860280D01*
X117545159Y-130869048D01*
X117556066Y-130878934D01*
X117565952Y-130889841D01*
X117574720Y-130901664D01*
X117582288Y-130914290D01*
X117588582Y-130927597D01*
X117593541Y-130941457D01*
X117597118Y-130955736D01*
X117599278Y-130970297D01*
X117600000Y-130985000D01*
X117600000Y-131285000D01*
X117599278Y-131299703D01*
X117597118Y-131314264D01*
X117593541Y-131328543D01*
X117588582Y-131342403D01*
X117582288Y-131355710D01*
X117574720Y-131368336D01*
X117565952Y-131380159D01*
X117556066Y-131391066D01*
X117545159Y-131400952D01*
X117533336Y-131409720D01*
X117520710Y-131417288D01*
X117507403Y-131423582D01*
X117493543Y-131428541D01*
X117479264Y-131432118D01*
X117464703Y-131434278D01*
X117450000Y-131435000D01*
X115800000Y-131435000D01*
X115785297Y-131434278D01*
X115770736Y-131432118D01*
X115756457Y-131428541D01*
X115742597Y-131423582D01*
X115729290Y-131417288D01*
X115716664Y-131409720D01*
X115704841Y-131400952D01*
X115693934Y-131391066D01*
X115684048Y-131380159D01*
X115675280Y-131368336D01*
X115667712Y-131355710D01*
X115661418Y-131342403D01*
X115656459Y-131328543D01*
X115652882Y-131314264D01*
X115650722Y-131299703D01*
X115650000Y-131285000D01*
X115650000Y-130985000D01*
X115650722Y-130970297D01*
X115652882Y-130955736D01*
X115656459Y-130941457D01*
X115661418Y-130927597D01*
X115667712Y-130914290D01*
X115675280Y-130901664D01*
X115684048Y-130889841D01*
X115693934Y-130878934D01*
X115704841Y-130869048D01*
X115716664Y-130860280D01*
X115729290Y-130852712D01*
X115742597Y-130846418D01*
X115756457Y-130841459D01*
X115770736Y-130837882D01*
X115785297Y-130835722D01*
X115800000Y-130835000D01*
X117450000Y-130835000D01*
X117464703Y-130835722D01*
G37*
G36*
X117464703Y-129565722D02*
G01*
X117479264Y-129567882D01*
X117493543Y-129571459D01*
X117507403Y-129576418D01*
X117520710Y-129582712D01*
X117533336Y-129590280D01*
X117545159Y-129599048D01*
X117556066Y-129608934D01*
X117565952Y-129619841D01*
X117574720Y-129631664D01*
X117582288Y-129644290D01*
X117588582Y-129657597D01*
X117593541Y-129671457D01*
X117597118Y-129685736D01*
X117599278Y-129700297D01*
X117600000Y-129715000D01*
X117600000Y-130015000D01*
X117599278Y-130029703D01*
X117597118Y-130044264D01*
X117593541Y-130058543D01*
X117588582Y-130072403D01*
X117582288Y-130085710D01*
X117574720Y-130098336D01*
X117565952Y-130110159D01*
X117556066Y-130121066D01*
X117545159Y-130130952D01*
X117533336Y-130139720D01*
X117520710Y-130147288D01*
X117507403Y-130153582D01*
X117493543Y-130158541D01*
X117479264Y-130162118D01*
X117464703Y-130164278D01*
X117450000Y-130165000D01*
X115800000Y-130165000D01*
X115785297Y-130164278D01*
X115770736Y-130162118D01*
X115756457Y-130158541D01*
X115742597Y-130153582D01*
X115729290Y-130147288D01*
X115716664Y-130139720D01*
X115704841Y-130130952D01*
X115693934Y-130121066D01*
X115684048Y-130110159D01*
X115675280Y-130098336D01*
X115667712Y-130085710D01*
X115661418Y-130072403D01*
X115656459Y-130058543D01*
X115652882Y-130044264D01*
X115650722Y-130029703D01*
X115650000Y-130015000D01*
X115650000Y-129715000D01*
X115650722Y-129700297D01*
X115652882Y-129685736D01*
X115656459Y-129671457D01*
X115661418Y-129657597D01*
X115667712Y-129644290D01*
X115675280Y-129631664D01*
X115684048Y-129619841D01*
X115693934Y-129608934D01*
X115704841Y-129599048D01*
X115716664Y-129590280D01*
X115729290Y-129582712D01*
X115742597Y-129576418D01*
X115756457Y-129571459D01*
X115770736Y-129567882D01*
X115785297Y-129565722D01*
X115800000Y-129565000D01*
X117450000Y-129565000D01*
X117464703Y-129565722D01*
G37*
G36*
X117464703Y-128295722D02*
G01*
X117479264Y-128297882D01*
X117493543Y-128301459D01*
X117507403Y-128306418D01*
X117520710Y-128312712D01*
X117533336Y-128320280D01*
X117545159Y-128329048D01*
X117556066Y-128338934D01*
X117565952Y-128349841D01*
X117574720Y-128361664D01*
X117582288Y-128374290D01*
X117588582Y-128387597D01*
X117593541Y-128401457D01*
X117597118Y-128415736D01*
X117599278Y-128430297D01*
X117600000Y-128445000D01*
X117600000Y-128745000D01*
X117599278Y-128759703D01*
X117597118Y-128774264D01*
X117593541Y-128788543D01*
X117588582Y-128802403D01*
X117582288Y-128815710D01*
X117574720Y-128828336D01*
X117565952Y-128840159D01*
X117556066Y-128851066D01*
X117545159Y-128860952D01*
X117533336Y-128869720D01*
X117520710Y-128877288D01*
X117507403Y-128883582D01*
X117493543Y-128888541D01*
X117479264Y-128892118D01*
X117464703Y-128894278D01*
X117450000Y-128895000D01*
X115800000Y-128895000D01*
X115785297Y-128894278D01*
X115770736Y-128892118D01*
X115756457Y-128888541D01*
X115742597Y-128883582D01*
X115729290Y-128877288D01*
X115716664Y-128869720D01*
X115704841Y-128860952D01*
X115693934Y-128851066D01*
X115684048Y-128840159D01*
X115675280Y-128828336D01*
X115667712Y-128815710D01*
X115661418Y-128802403D01*
X115656459Y-128788543D01*
X115652882Y-128774264D01*
X115650722Y-128759703D01*
X115650000Y-128745000D01*
X115650000Y-128445000D01*
X115650722Y-128430297D01*
X115652882Y-128415736D01*
X115656459Y-128401457D01*
X115661418Y-128387597D01*
X115667712Y-128374290D01*
X115675280Y-128361664D01*
X115684048Y-128349841D01*
X115693934Y-128338934D01*
X115704841Y-128329048D01*
X115716664Y-128320280D01*
X115729290Y-128312712D01*
X115742597Y-128306418D01*
X115756457Y-128301459D01*
X115770736Y-128297882D01*
X115785297Y-128295722D01*
X115800000Y-128295000D01*
X117450000Y-128295000D01*
X117464703Y-128295722D01*
G37*
G36*
X122414703Y-128295722D02*
G01*
X122429264Y-128297882D01*
X122443543Y-128301459D01*
X122457403Y-128306418D01*
X122470710Y-128312712D01*
X122483336Y-128320280D01*
X122495159Y-128329048D01*
X122506066Y-128338934D01*
X122515952Y-128349841D01*
X122524720Y-128361664D01*
X122532288Y-128374290D01*
X122538582Y-128387597D01*
X122543541Y-128401457D01*
X122547118Y-128415736D01*
X122549278Y-128430297D01*
X122550000Y-128445000D01*
X122550000Y-128745000D01*
X122549278Y-128759703D01*
X122547118Y-128774264D01*
X122543541Y-128788543D01*
X122538582Y-128802403D01*
X122532288Y-128815710D01*
X122524720Y-128828336D01*
X122515952Y-128840159D01*
X122506066Y-128851066D01*
X122495159Y-128860952D01*
X122483336Y-128869720D01*
X122470710Y-128877288D01*
X122457403Y-128883582D01*
X122443543Y-128888541D01*
X122429264Y-128892118D01*
X122414703Y-128894278D01*
X122400000Y-128895000D01*
X120750000Y-128895000D01*
X120735297Y-128894278D01*
X120720736Y-128892118D01*
X120706457Y-128888541D01*
X120692597Y-128883582D01*
X120679290Y-128877288D01*
X120666664Y-128869720D01*
X120654841Y-128860952D01*
X120643934Y-128851066D01*
X120634048Y-128840159D01*
X120625280Y-128828336D01*
X120617712Y-128815710D01*
X120611418Y-128802403D01*
X120606459Y-128788543D01*
X120602882Y-128774264D01*
X120600722Y-128759703D01*
X120600000Y-128745000D01*
X120600000Y-128445000D01*
X120600722Y-128430297D01*
X120602882Y-128415736D01*
X120606459Y-128401457D01*
X120611418Y-128387597D01*
X120617712Y-128374290D01*
X120625280Y-128361664D01*
X120634048Y-128349841D01*
X120643934Y-128338934D01*
X120654841Y-128329048D01*
X120666664Y-128320280D01*
X120679290Y-128312712D01*
X120692597Y-128306418D01*
X120706457Y-128301459D01*
X120720736Y-128297882D01*
X120735297Y-128295722D01*
X120750000Y-128295000D01*
X122400000Y-128295000D01*
X122414703Y-128295722D01*
G37*
G36*
X122414703Y-129565722D02*
G01*
X122429264Y-129567882D01*
X122443543Y-129571459D01*
X122457403Y-129576418D01*
X122470710Y-129582712D01*
X122483336Y-129590280D01*
X122495159Y-129599048D01*
X122506066Y-129608934D01*
X122515952Y-129619841D01*
X122524720Y-129631664D01*
X122532288Y-129644290D01*
X122538582Y-129657597D01*
X122543541Y-129671457D01*
X122547118Y-129685736D01*
X122549278Y-129700297D01*
X122550000Y-129715000D01*
X122550000Y-130015000D01*
X122549278Y-130029703D01*
X122547118Y-130044264D01*
X122543541Y-130058543D01*
X122538582Y-130072403D01*
X122532288Y-130085710D01*
X122524720Y-130098336D01*
X122515952Y-130110159D01*
X122506066Y-130121066D01*
X122495159Y-130130952D01*
X122483336Y-130139720D01*
X122470710Y-130147288D01*
X122457403Y-130153582D01*
X122443543Y-130158541D01*
X122429264Y-130162118D01*
X122414703Y-130164278D01*
X122400000Y-130165000D01*
X120750000Y-130165000D01*
X120735297Y-130164278D01*
X120720736Y-130162118D01*
X120706457Y-130158541D01*
X120692597Y-130153582D01*
X120679290Y-130147288D01*
X120666664Y-130139720D01*
X120654841Y-130130952D01*
X120643934Y-130121066D01*
X120634048Y-130110159D01*
X120625280Y-130098336D01*
X120617712Y-130085710D01*
X120611418Y-130072403D01*
X120606459Y-130058543D01*
X120602882Y-130044264D01*
X120600722Y-130029703D01*
X120600000Y-130015000D01*
X120600000Y-129715000D01*
X120600722Y-129700297D01*
X120602882Y-129685736D01*
X120606459Y-129671457D01*
X120611418Y-129657597D01*
X120617712Y-129644290D01*
X120625280Y-129631664D01*
X120634048Y-129619841D01*
X120643934Y-129608934D01*
X120654841Y-129599048D01*
X120666664Y-129590280D01*
X120679290Y-129582712D01*
X120692597Y-129576418D01*
X120706457Y-129571459D01*
X120720736Y-129567882D01*
X120735297Y-129565722D01*
X120750000Y-129565000D01*
X122400000Y-129565000D01*
X122414703Y-129565722D01*
G37*
G36*
X122414703Y-130835722D02*
G01*
X122429264Y-130837882D01*
X122443543Y-130841459D01*
X122457403Y-130846418D01*
X122470710Y-130852712D01*
X122483336Y-130860280D01*
X122495159Y-130869048D01*
X122506066Y-130878934D01*
X122515952Y-130889841D01*
X122524720Y-130901664D01*
X122532288Y-130914290D01*
X122538582Y-130927597D01*
X122543541Y-130941457D01*
X122547118Y-130955736D01*
X122549278Y-130970297D01*
X122550000Y-130985000D01*
X122550000Y-131285000D01*
X122549278Y-131299703D01*
X122547118Y-131314264D01*
X122543541Y-131328543D01*
X122538582Y-131342403D01*
X122532288Y-131355710D01*
X122524720Y-131368336D01*
X122515952Y-131380159D01*
X122506066Y-131391066D01*
X122495159Y-131400952D01*
X122483336Y-131409720D01*
X122470710Y-131417288D01*
X122457403Y-131423582D01*
X122443543Y-131428541D01*
X122429264Y-131432118D01*
X122414703Y-131434278D01*
X122400000Y-131435000D01*
X120750000Y-131435000D01*
X120735297Y-131434278D01*
X120720736Y-131432118D01*
X120706457Y-131428541D01*
X120692597Y-131423582D01*
X120679290Y-131417288D01*
X120666664Y-131409720D01*
X120654841Y-131400952D01*
X120643934Y-131391066D01*
X120634048Y-131380159D01*
X120625280Y-131368336D01*
X120617712Y-131355710D01*
X120611418Y-131342403D01*
X120606459Y-131328543D01*
X120602882Y-131314264D01*
X120600722Y-131299703D01*
X120600000Y-131285000D01*
X120600000Y-130985000D01*
X120600722Y-130970297D01*
X120602882Y-130955736D01*
X120606459Y-130941457D01*
X120611418Y-130927597D01*
X120617712Y-130914290D01*
X120625280Y-130901664D01*
X120634048Y-130889841D01*
X120643934Y-130878934D01*
X120654841Y-130869048D01*
X120666664Y-130860280D01*
X120679290Y-130852712D01*
X120692597Y-130846418D01*
X120706457Y-130841459D01*
X120720736Y-130837882D01*
X120735297Y-130835722D01*
X120750000Y-130835000D01*
X122400000Y-130835000D01*
X122414703Y-130835722D01*
G37*
G36*
X122414703Y-132105722D02*
G01*
X122429264Y-132107882D01*
X122443543Y-132111459D01*
X122457403Y-132116418D01*
X122470710Y-132122712D01*
X122483336Y-132130280D01*
X122495159Y-132139048D01*
X122506066Y-132148934D01*
X122515952Y-132159841D01*
X122524720Y-132171664D01*
X122532288Y-132184290D01*
X122538582Y-132197597D01*
X122543541Y-132211457D01*
X122547118Y-132225736D01*
X122549278Y-132240297D01*
X122550000Y-132255000D01*
X122550000Y-132555000D01*
X122549278Y-132569703D01*
X122547118Y-132584264D01*
X122543541Y-132598543D01*
X122538582Y-132612403D01*
X122532288Y-132625710D01*
X122524720Y-132638336D01*
X122515952Y-132650159D01*
X122506066Y-132661066D01*
X122495159Y-132670952D01*
X122483336Y-132679720D01*
X122470710Y-132687288D01*
X122457403Y-132693582D01*
X122443543Y-132698541D01*
X122429264Y-132702118D01*
X122414703Y-132704278D01*
X122400000Y-132705000D01*
X120750000Y-132705000D01*
X120735297Y-132704278D01*
X120720736Y-132702118D01*
X120706457Y-132698541D01*
X120692597Y-132693582D01*
X120679290Y-132687288D01*
X120666664Y-132679720D01*
X120654841Y-132670952D01*
X120643934Y-132661066D01*
X120634048Y-132650159D01*
X120625280Y-132638336D01*
X120617712Y-132625710D01*
X120611418Y-132612403D01*
X120606459Y-132598543D01*
X120602882Y-132584264D01*
X120600722Y-132569703D01*
X120600000Y-132555000D01*
X120600000Y-132255000D01*
X120600722Y-132240297D01*
X120602882Y-132225736D01*
X120606459Y-132211457D01*
X120611418Y-132197597D01*
X120617712Y-132184290D01*
X120625280Y-132171664D01*
X120634048Y-132159841D01*
X120643934Y-132148934D01*
X120654841Y-132139048D01*
X120666664Y-132130280D01*
X120679290Y-132122712D01*
X120692597Y-132116418D01*
X120706457Y-132111459D01*
X120720736Y-132107882D01*
X120735297Y-132105722D01*
X120750000Y-132105000D01*
X122400000Y-132105000D01*
X122414703Y-132105722D01*
G37*
G36*
X115087252Y-135975602D02*
G01*
X115099386Y-135977402D01*
X115111286Y-135980382D01*
X115122835Y-135984515D01*
X115133925Y-135989760D01*
X115144446Y-135996066D01*
X115154299Y-136003374D01*
X115163388Y-136011612D01*
X115171626Y-136020701D01*
X115178934Y-136030554D01*
X115185240Y-136041075D01*
X115190485Y-136052165D01*
X115194618Y-136063714D01*
X115197598Y-136075614D01*
X115199398Y-136087748D01*
X115200000Y-136100000D01*
X115200000Y-136350000D01*
X115199398Y-136362252D01*
X115197598Y-136374386D01*
X115194618Y-136386286D01*
X115190485Y-136397835D01*
X115185240Y-136408925D01*
X115178934Y-136419446D01*
X115171626Y-136429299D01*
X115163388Y-136438388D01*
X115154299Y-136446626D01*
X115144446Y-136453934D01*
X115133925Y-136460240D01*
X115122835Y-136465485D01*
X115111286Y-136469618D01*
X115099386Y-136472598D01*
X115087252Y-136474398D01*
X115075000Y-136475000D01*
X113700000Y-136475000D01*
X113687748Y-136474398D01*
X113675614Y-136472598D01*
X113663714Y-136469618D01*
X113652165Y-136465485D01*
X113641075Y-136460240D01*
X113630554Y-136453934D01*
X113620701Y-136446626D01*
X113611612Y-136438388D01*
X113603374Y-136429299D01*
X113596066Y-136419446D01*
X113589760Y-136408925D01*
X113584515Y-136397835D01*
X113580382Y-136386286D01*
X113577402Y-136374386D01*
X113575602Y-136362252D01*
X113575000Y-136350000D01*
X113575000Y-136100000D01*
X113575602Y-136087748D01*
X113577402Y-136075614D01*
X113580382Y-136063714D01*
X113584515Y-136052165D01*
X113589760Y-136041075D01*
X113596066Y-136030554D01*
X113603374Y-136020701D01*
X113611612Y-136011612D01*
X113620701Y-136003374D01*
X113630554Y-135996066D01*
X113641075Y-135989760D01*
X113652165Y-135984515D01*
X113663714Y-135980382D01*
X113675614Y-135977402D01*
X113687748Y-135975602D01*
X113700000Y-135975000D01*
X115075000Y-135975000D01*
X115087252Y-135975602D01*
G37*
G36*
X115087252Y-135325602D02*
G01*
X115099386Y-135327402D01*
X115111286Y-135330382D01*
X115122835Y-135334515D01*
X115133925Y-135339760D01*
X115144446Y-135346066D01*
X115154299Y-135353374D01*
X115163388Y-135361612D01*
X115171626Y-135370701D01*
X115178934Y-135380554D01*
X115185240Y-135391075D01*
X115190485Y-135402165D01*
X115194618Y-135413714D01*
X115197598Y-135425614D01*
X115199398Y-135437748D01*
X115200000Y-135450000D01*
X115200000Y-135700000D01*
X115199398Y-135712252D01*
X115197598Y-135724386D01*
X115194618Y-135736286D01*
X115190485Y-135747835D01*
X115185240Y-135758925D01*
X115178934Y-135769446D01*
X115171626Y-135779299D01*
X115163388Y-135788388D01*
X115154299Y-135796626D01*
X115144446Y-135803934D01*
X115133925Y-135810240D01*
X115122835Y-135815485D01*
X115111286Y-135819618D01*
X115099386Y-135822598D01*
X115087252Y-135824398D01*
X115075000Y-135825000D01*
X113700000Y-135825000D01*
X113687748Y-135824398D01*
X113675614Y-135822598D01*
X113663714Y-135819618D01*
X113652165Y-135815485D01*
X113641075Y-135810240D01*
X113630554Y-135803934D01*
X113620701Y-135796626D01*
X113611612Y-135788388D01*
X113603374Y-135779299D01*
X113596066Y-135769446D01*
X113589760Y-135758925D01*
X113584515Y-135747835D01*
X113580382Y-135736286D01*
X113577402Y-135724386D01*
X113575602Y-135712252D01*
X113575000Y-135700000D01*
X113575000Y-135450000D01*
X113575602Y-135437748D01*
X113577402Y-135425614D01*
X113580382Y-135413714D01*
X113584515Y-135402165D01*
X113589760Y-135391075D01*
X113596066Y-135380554D01*
X113603374Y-135370701D01*
X113611612Y-135361612D01*
X113620701Y-135353374D01*
X113630554Y-135346066D01*
X113641075Y-135339760D01*
X113652165Y-135334515D01*
X113663714Y-135330382D01*
X113675614Y-135327402D01*
X113687748Y-135325602D01*
X113700000Y-135325000D01*
X115075000Y-135325000D01*
X115087252Y-135325602D01*
G37*
G36*
X115087252Y-134675602D02*
G01*
X115099386Y-134677402D01*
X115111286Y-134680382D01*
X115122835Y-134684515D01*
X115133925Y-134689760D01*
X115144446Y-134696066D01*
X115154299Y-134703374D01*
X115163388Y-134711612D01*
X115171626Y-134720701D01*
X115178934Y-134730554D01*
X115185240Y-134741075D01*
X115190485Y-134752165D01*
X115194618Y-134763714D01*
X115197598Y-134775614D01*
X115199398Y-134787748D01*
X115200000Y-134800000D01*
X115200000Y-135050000D01*
X115199398Y-135062252D01*
X115197598Y-135074386D01*
X115194618Y-135086286D01*
X115190485Y-135097835D01*
X115185240Y-135108925D01*
X115178934Y-135119446D01*
X115171626Y-135129299D01*
X115163388Y-135138388D01*
X115154299Y-135146626D01*
X115144446Y-135153934D01*
X115133925Y-135160240D01*
X115122835Y-135165485D01*
X115111286Y-135169618D01*
X115099386Y-135172598D01*
X115087252Y-135174398D01*
X115075000Y-135175000D01*
X113700000Y-135175000D01*
X113687748Y-135174398D01*
X113675614Y-135172598D01*
X113663714Y-135169618D01*
X113652165Y-135165485D01*
X113641075Y-135160240D01*
X113630554Y-135153934D01*
X113620701Y-135146626D01*
X113611612Y-135138388D01*
X113603374Y-135129299D01*
X113596066Y-135119446D01*
X113589760Y-135108925D01*
X113584515Y-135097835D01*
X113580382Y-135086286D01*
X113577402Y-135074386D01*
X113575602Y-135062252D01*
X113575000Y-135050000D01*
X113575000Y-134800000D01*
X113575602Y-134787748D01*
X113577402Y-134775614D01*
X113580382Y-134763714D01*
X113584515Y-134752165D01*
X113589760Y-134741075D01*
X113596066Y-134730554D01*
X113603374Y-134720701D01*
X113611612Y-134711612D01*
X113620701Y-134703374D01*
X113630554Y-134696066D01*
X113641075Y-134689760D01*
X113652165Y-134684515D01*
X113663714Y-134680382D01*
X113675614Y-134677402D01*
X113687748Y-134675602D01*
X113700000Y-134675000D01*
X115075000Y-134675000D01*
X115087252Y-134675602D01*
G37*
G36*
X115087252Y-134025602D02*
G01*
X115099386Y-134027402D01*
X115111286Y-134030382D01*
X115122835Y-134034515D01*
X115133925Y-134039760D01*
X115144446Y-134046066D01*
X115154299Y-134053374D01*
X115163388Y-134061612D01*
X115171626Y-134070701D01*
X115178934Y-134080554D01*
X115185240Y-134091075D01*
X115190485Y-134102165D01*
X115194618Y-134113714D01*
X115197598Y-134125614D01*
X115199398Y-134137748D01*
X115200000Y-134150000D01*
X115200000Y-134400000D01*
X115199398Y-134412252D01*
X115197598Y-134424386D01*
X115194618Y-134436286D01*
X115190485Y-134447835D01*
X115185240Y-134458925D01*
X115178934Y-134469446D01*
X115171626Y-134479299D01*
X115163388Y-134488388D01*
X115154299Y-134496626D01*
X115144446Y-134503934D01*
X115133925Y-134510240D01*
X115122835Y-134515485D01*
X115111286Y-134519618D01*
X115099386Y-134522598D01*
X115087252Y-134524398D01*
X115075000Y-134525000D01*
X113700000Y-134525000D01*
X113687748Y-134524398D01*
X113675614Y-134522598D01*
X113663714Y-134519618D01*
X113652165Y-134515485D01*
X113641075Y-134510240D01*
X113630554Y-134503934D01*
X113620701Y-134496626D01*
X113611612Y-134488388D01*
X113603374Y-134479299D01*
X113596066Y-134469446D01*
X113589760Y-134458925D01*
X113584515Y-134447835D01*
X113580382Y-134436286D01*
X113577402Y-134424386D01*
X113575602Y-134412252D01*
X113575000Y-134400000D01*
X113575000Y-134150000D01*
X113575602Y-134137748D01*
X113577402Y-134125614D01*
X113580382Y-134113714D01*
X113584515Y-134102165D01*
X113589760Y-134091075D01*
X113596066Y-134080554D01*
X113603374Y-134070701D01*
X113611612Y-134061612D01*
X113620701Y-134053374D01*
X113630554Y-134046066D01*
X113641075Y-134039760D01*
X113652165Y-134034515D01*
X113663714Y-134030382D01*
X113675614Y-134027402D01*
X113687748Y-134025602D01*
X113700000Y-134025000D01*
X115075000Y-134025000D01*
X115087252Y-134025602D01*
G37*
G36*
X119312252Y-134025602D02*
G01*
X119324386Y-134027402D01*
X119336286Y-134030382D01*
X119347835Y-134034515D01*
X119358925Y-134039760D01*
X119369446Y-134046066D01*
X119379299Y-134053374D01*
X119388388Y-134061612D01*
X119396626Y-134070701D01*
X119403934Y-134080554D01*
X119410240Y-134091075D01*
X119415485Y-134102165D01*
X119419618Y-134113714D01*
X119422598Y-134125614D01*
X119424398Y-134137748D01*
X119425000Y-134150000D01*
X119425000Y-134400000D01*
X119424398Y-134412252D01*
X119422598Y-134424386D01*
X119419618Y-134436286D01*
X119415485Y-134447835D01*
X119410240Y-134458925D01*
X119403934Y-134469446D01*
X119396626Y-134479299D01*
X119388388Y-134488388D01*
X119379299Y-134496626D01*
X119369446Y-134503934D01*
X119358925Y-134510240D01*
X119347835Y-134515485D01*
X119336286Y-134519618D01*
X119324386Y-134522598D01*
X119312252Y-134524398D01*
X119300000Y-134525000D01*
X117925000Y-134525000D01*
X117912748Y-134524398D01*
X117900614Y-134522598D01*
X117888714Y-134519618D01*
X117877165Y-134515485D01*
X117866075Y-134510240D01*
X117855554Y-134503934D01*
X117845701Y-134496626D01*
X117836612Y-134488388D01*
X117828374Y-134479299D01*
X117821066Y-134469446D01*
X117814760Y-134458925D01*
X117809515Y-134447835D01*
X117805382Y-134436286D01*
X117802402Y-134424386D01*
X117800602Y-134412252D01*
X117800000Y-134400000D01*
X117800000Y-134150000D01*
X117800602Y-134137748D01*
X117802402Y-134125614D01*
X117805382Y-134113714D01*
X117809515Y-134102165D01*
X117814760Y-134091075D01*
X117821066Y-134080554D01*
X117828374Y-134070701D01*
X117836612Y-134061612D01*
X117845701Y-134053374D01*
X117855554Y-134046066D01*
X117866075Y-134039760D01*
X117877165Y-134034515D01*
X117888714Y-134030382D01*
X117900614Y-134027402D01*
X117912748Y-134025602D01*
X117925000Y-134025000D01*
X119300000Y-134025000D01*
X119312252Y-134025602D01*
G37*
G36*
X119312252Y-134675602D02*
G01*
X119324386Y-134677402D01*
X119336286Y-134680382D01*
X119347835Y-134684515D01*
X119358925Y-134689760D01*
X119369446Y-134696066D01*
X119379299Y-134703374D01*
X119388388Y-134711612D01*
X119396626Y-134720701D01*
X119403934Y-134730554D01*
X119410240Y-134741075D01*
X119415485Y-134752165D01*
X119419618Y-134763714D01*
X119422598Y-134775614D01*
X119424398Y-134787748D01*
X119425000Y-134800000D01*
X119425000Y-135050000D01*
X119424398Y-135062252D01*
X119422598Y-135074386D01*
X119419618Y-135086286D01*
X119415485Y-135097835D01*
X119410240Y-135108925D01*
X119403934Y-135119446D01*
X119396626Y-135129299D01*
X119388388Y-135138388D01*
X119379299Y-135146626D01*
X119369446Y-135153934D01*
X119358925Y-135160240D01*
X119347835Y-135165485D01*
X119336286Y-135169618D01*
X119324386Y-135172598D01*
X119312252Y-135174398D01*
X119300000Y-135175000D01*
X117925000Y-135175000D01*
X117912748Y-135174398D01*
X117900614Y-135172598D01*
X117888714Y-135169618D01*
X117877165Y-135165485D01*
X117866075Y-135160240D01*
X117855554Y-135153934D01*
X117845701Y-135146626D01*
X117836612Y-135138388D01*
X117828374Y-135129299D01*
X117821066Y-135119446D01*
X117814760Y-135108925D01*
X117809515Y-135097835D01*
X117805382Y-135086286D01*
X117802402Y-135074386D01*
X117800602Y-135062252D01*
X117800000Y-135050000D01*
X117800000Y-134800000D01*
X117800602Y-134787748D01*
X117802402Y-134775614D01*
X117805382Y-134763714D01*
X117809515Y-134752165D01*
X117814760Y-134741075D01*
X117821066Y-134730554D01*
X117828374Y-134720701D01*
X117836612Y-134711612D01*
X117845701Y-134703374D01*
X117855554Y-134696066D01*
X117866075Y-134689760D01*
X117877165Y-134684515D01*
X117888714Y-134680382D01*
X117900614Y-134677402D01*
X117912748Y-134675602D01*
X117925000Y-134675000D01*
X119300000Y-134675000D01*
X119312252Y-134675602D01*
G37*
G36*
X119312252Y-135325602D02*
G01*
X119324386Y-135327402D01*
X119336286Y-135330382D01*
X119347835Y-135334515D01*
X119358925Y-135339760D01*
X119369446Y-135346066D01*
X119379299Y-135353374D01*
X119388388Y-135361612D01*
X119396626Y-135370701D01*
X119403934Y-135380554D01*
X119410240Y-135391075D01*
X119415485Y-135402165D01*
X119419618Y-135413714D01*
X119422598Y-135425614D01*
X119424398Y-135437748D01*
X119425000Y-135450000D01*
X119425000Y-135700000D01*
X119424398Y-135712252D01*
X119422598Y-135724386D01*
X119419618Y-135736286D01*
X119415485Y-135747835D01*
X119410240Y-135758925D01*
X119403934Y-135769446D01*
X119396626Y-135779299D01*
X119388388Y-135788388D01*
X119379299Y-135796626D01*
X119369446Y-135803934D01*
X119358925Y-135810240D01*
X119347835Y-135815485D01*
X119336286Y-135819618D01*
X119324386Y-135822598D01*
X119312252Y-135824398D01*
X119300000Y-135825000D01*
X117925000Y-135825000D01*
X117912748Y-135824398D01*
X117900614Y-135822598D01*
X117888714Y-135819618D01*
X117877165Y-135815485D01*
X117866075Y-135810240D01*
X117855554Y-135803934D01*
X117845701Y-135796626D01*
X117836612Y-135788388D01*
X117828374Y-135779299D01*
X117821066Y-135769446D01*
X117814760Y-135758925D01*
X117809515Y-135747835D01*
X117805382Y-135736286D01*
X117802402Y-135724386D01*
X117800602Y-135712252D01*
X117800000Y-135700000D01*
X117800000Y-135450000D01*
X117800602Y-135437748D01*
X117802402Y-135425614D01*
X117805382Y-135413714D01*
X117809515Y-135402165D01*
X117814760Y-135391075D01*
X117821066Y-135380554D01*
X117828374Y-135370701D01*
X117836612Y-135361612D01*
X117845701Y-135353374D01*
X117855554Y-135346066D01*
X117866075Y-135339760D01*
X117877165Y-135334515D01*
X117888714Y-135330382D01*
X117900614Y-135327402D01*
X117912748Y-135325602D01*
X117925000Y-135325000D01*
X119300000Y-135325000D01*
X119312252Y-135325602D01*
G37*
G36*
X119312252Y-135975602D02*
G01*
X119324386Y-135977402D01*
X119336286Y-135980382D01*
X119347835Y-135984515D01*
X119358925Y-135989760D01*
X119369446Y-135996066D01*
X119379299Y-136003374D01*
X119388388Y-136011612D01*
X119396626Y-136020701D01*
X119403934Y-136030554D01*
X119410240Y-136041075D01*
X119415485Y-136052165D01*
X119419618Y-136063714D01*
X119422598Y-136075614D01*
X119424398Y-136087748D01*
X119425000Y-136100000D01*
X119425000Y-136350000D01*
X119424398Y-136362252D01*
X119422598Y-136374386D01*
X119419618Y-136386286D01*
X119415485Y-136397835D01*
X119410240Y-136408925D01*
X119403934Y-136419446D01*
X119396626Y-136429299D01*
X119388388Y-136438388D01*
X119379299Y-136446626D01*
X119369446Y-136453934D01*
X119358925Y-136460240D01*
X119347835Y-136465485D01*
X119336286Y-136469618D01*
X119324386Y-136472598D01*
X119312252Y-136474398D01*
X119300000Y-136475000D01*
X117925000Y-136475000D01*
X117912748Y-136474398D01*
X117900614Y-136472598D01*
X117888714Y-136469618D01*
X117877165Y-136465485D01*
X117866075Y-136460240D01*
X117855554Y-136453934D01*
X117845701Y-136446626D01*
X117836612Y-136438388D01*
X117828374Y-136429299D01*
X117821066Y-136419446D01*
X117814760Y-136408925D01*
X117809515Y-136397835D01*
X117805382Y-136386286D01*
X117802402Y-136374386D01*
X117800602Y-136362252D01*
X117800000Y-136350000D01*
X117800000Y-136100000D01*
X117800602Y-136087748D01*
X117802402Y-136075614D01*
X117805382Y-136063714D01*
X117809515Y-136052165D01*
X117814760Y-136041075D01*
X117821066Y-136030554D01*
X117828374Y-136020701D01*
X117836612Y-136011612D01*
X117845701Y-136003374D01*
X117855554Y-135996066D01*
X117866075Y-135989760D01*
X117877165Y-135984515D01*
X117888714Y-135980382D01*
X117900614Y-135977402D01*
X117912748Y-135975602D01*
X117925000Y-135975000D01*
X119300000Y-135975000D01*
X119312252Y-135975602D01*
G37*
G36*
X129255000Y-137500000D02*
G01*
X128505000Y-137000000D01*
X128505000Y-136000000D01*
X129255000Y-135500000D01*
X129255000Y-137500000D01*
G37*
D13*
X131230000Y-136500000D03*
D14*
X127270000Y-138000000D03*
X127270000Y-136500000D03*
X127270000Y-135000000D03*
D10*
G36*
X129275000Y-131500000D02*
G01*
X128525000Y-131000000D01*
X128525000Y-130000000D01*
X129275000Y-129500000D01*
X129275000Y-131500000D01*
G37*
D13*
X131250000Y-130500000D03*
D14*
X127290000Y-132000000D03*
X127290000Y-130500000D03*
X127290000Y-129000000D03*
D10*
G36*
X129255000Y-125500000D02*
G01*
X128505000Y-125000000D01*
X128505000Y-124000000D01*
X129255000Y-123500000D01*
X129255000Y-125500000D01*
G37*
D13*
X131230000Y-124500000D03*
D14*
X127270000Y-126000000D03*
X127270000Y-124500000D03*
X127270000Y-123000000D03*
D15*
X135250000Y-135000000D03*
X132250000Y-135950000D03*
X132250000Y-134050000D03*
X135250000Y-129000000D03*
X132250000Y-129950000D03*
X132250000Y-128050000D03*
X135250000Y-123000000D03*
X132250000Y-123950000D03*
X132250000Y-122050000D03*
D10*
G36*
X112324505Y-121801204D02*
G01*
X112348773Y-121804804D01*
X112372572Y-121810765D01*
X112395671Y-121819030D01*
X112417850Y-121829520D01*
X112438893Y-121842132D01*
X112458599Y-121856747D01*
X112476777Y-121873223D01*
X112493253Y-121891401D01*
X112507868Y-121911107D01*
X112520480Y-121932150D01*
X112530970Y-121954329D01*
X112539235Y-121977428D01*
X112545196Y-122001227D01*
X112548796Y-122025495D01*
X112550000Y-122049999D01*
X112550000Y-122950001D01*
X112548796Y-122974505D01*
X112545196Y-122998773D01*
X112539235Y-123022572D01*
X112530970Y-123045671D01*
X112520480Y-123067850D01*
X112507868Y-123088893D01*
X112493253Y-123108599D01*
X112476777Y-123126777D01*
X112458599Y-123143253D01*
X112438893Y-123157868D01*
X112417850Y-123170480D01*
X112395671Y-123180970D01*
X112372572Y-123189235D01*
X112348773Y-123195196D01*
X112324505Y-123198796D01*
X112300001Y-123200000D01*
X111649999Y-123200000D01*
X111625495Y-123198796D01*
X111601227Y-123195196D01*
X111577428Y-123189235D01*
X111554329Y-123180970D01*
X111532150Y-123170480D01*
X111511107Y-123157868D01*
X111491401Y-123143253D01*
X111473223Y-123126777D01*
X111456747Y-123108599D01*
X111442132Y-123088893D01*
X111429520Y-123067850D01*
X111419030Y-123045671D01*
X111410765Y-123022572D01*
X111404804Y-122998773D01*
X111401204Y-122974505D01*
X111400000Y-122950001D01*
X111400000Y-122049999D01*
X111401204Y-122025495D01*
X111404804Y-122001227D01*
X111410765Y-121977428D01*
X111419030Y-121954329D01*
X111429520Y-121932150D01*
X111442132Y-121911107D01*
X111456747Y-121891401D01*
X111473223Y-121873223D01*
X111491401Y-121856747D01*
X111511107Y-121842132D01*
X111532150Y-121829520D01*
X111554329Y-121819030D01*
X111577428Y-121810765D01*
X111601227Y-121804804D01*
X111625495Y-121801204D01*
X111649999Y-121800000D01*
X112300001Y-121800000D01*
X112324505Y-121801204D01*
G37*
G36*
X114374505Y-121801204D02*
G01*
X114398773Y-121804804D01*
X114422572Y-121810765D01*
X114445671Y-121819030D01*
X114467850Y-121829520D01*
X114488893Y-121842132D01*
X114508599Y-121856747D01*
X114526777Y-121873223D01*
X114543253Y-121891401D01*
X114557868Y-121911107D01*
X114570480Y-121932150D01*
X114580970Y-121954329D01*
X114589235Y-121977428D01*
X114595196Y-122001227D01*
X114598796Y-122025495D01*
X114600000Y-122049999D01*
X114600000Y-122950001D01*
X114598796Y-122974505D01*
X114595196Y-122998773D01*
X114589235Y-123022572D01*
X114580970Y-123045671D01*
X114570480Y-123067850D01*
X114557868Y-123088893D01*
X114543253Y-123108599D01*
X114526777Y-123126777D01*
X114508599Y-123143253D01*
X114488893Y-123157868D01*
X114467850Y-123170480D01*
X114445671Y-123180970D01*
X114422572Y-123189235D01*
X114398773Y-123195196D01*
X114374505Y-123198796D01*
X114350001Y-123200000D01*
X113699999Y-123200000D01*
X113675495Y-123198796D01*
X113651227Y-123195196D01*
X113627428Y-123189235D01*
X113604329Y-123180970D01*
X113582150Y-123170480D01*
X113561107Y-123157868D01*
X113541401Y-123143253D01*
X113523223Y-123126777D01*
X113506747Y-123108599D01*
X113492132Y-123088893D01*
X113479520Y-123067850D01*
X113469030Y-123045671D01*
X113460765Y-123022572D01*
X113454804Y-122998773D01*
X113451204Y-122974505D01*
X113450000Y-122950001D01*
X113450000Y-122049999D01*
X113451204Y-122025495D01*
X113454804Y-122001227D01*
X113460765Y-121977428D01*
X113469030Y-121954329D01*
X113479520Y-121932150D01*
X113492132Y-121911107D01*
X113506747Y-121891401D01*
X113523223Y-121873223D01*
X113541401Y-121856747D01*
X113561107Y-121842132D01*
X113582150Y-121829520D01*
X113604329Y-121819030D01*
X113627428Y-121810765D01*
X113651227Y-121804804D01*
X113675495Y-121801204D01*
X113699999Y-121800000D01*
X114350001Y-121800000D01*
X114374505Y-121801204D01*
G37*
G36*
X123399504Y-136776204D02*
G01*
X123423773Y-136779804D01*
X123447571Y-136785765D01*
X123470671Y-136794030D01*
X123492849Y-136804520D01*
X123513893Y-136817133D01*
X123533598Y-136831747D01*
X123551777Y-136848223D01*
X123568253Y-136866402D01*
X123582867Y-136886107D01*
X123595480Y-136907151D01*
X123605970Y-136929329D01*
X123614235Y-136952429D01*
X123620196Y-136976227D01*
X123623796Y-137000496D01*
X123625000Y-137025000D01*
X123625000Y-137950000D01*
X123623796Y-137974504D01*
X123620196Y-137998773D01*
X123614235Y-138022571D01*
X123605970Y-138045671D01*
X123595480Y-138067849D01*
X123582867Y-138088893D01*
X123568253Y-138108598D01*
X123551777Y-138126777D01*
X123533598Y-138143253D01*
X123513893Y-138157867D01*
X123492849Y-138170480D01*
X123470671Y-138180970D01*
X123447571Y-138189235D01*
X123423773Y-138195196D01*
X123399504Y-138198796D01*
X123375000Y-138200000D01*
X122125000Y-138200000D01*
X122100496Y-138198796D01*
X122076227Y-138195196D01*
X122052429Y-138189235D01*
X122029329Y-138180970D01*
X122007151Y-138170480D01*
X121986107Y-138157867D01*
X121966402Y-138143253D01*
X121948223Y-138126777D01*
X121931747Y-138108598D01*
X121917133Y-138088893D01*
X121904520Y-138067849D01*
X121894030Y-138045671D01*
X121885765Y-138022571D01*
X121879804Y-137998773D01*
X121876204Y-137974504D01*
X121875000Y-137950000D01*
X121875000Y-137025000D01*
X121876204Y-137000496D01*
X121879804Y-136976227D01*
X121885765Y-136952429D01*
X121894030Y-136929329D01*
X121904520Y-136907151D01*
X121917133Y-136886107D01*
X121931747Y-136866402D01*
X121948223Y-136848223D01*
X121966402Y-136831747D01*
X121986107Y-136817133D01*
X122007151Y-136804520D01*
X122029329Y-136794030D01*
X122052429Y-136785765D01*
X122076227Y-136779804D01*
X122100496Y-136776204D01*
X122125000Y-136775000D01*
X123375000Y-136775000D01*
X123399504Y-136776204D01*
G37*
G36*
X123399504Y-133801204D02*
G01*
X123423773Y-133804804D01*
X123447571Y-133810765D01*
X123470671Y-133819030D01*
X123492849Y-133829520D01*
X123513893Y-133842133D01*
X123533598Y-133856747D01*
X123551777Y-133873223D01*
X123568253Y-133891402D01*
X123582867Y-133911107D01*
X123595480Y-133932151D01*
X123605970Y-133954329D01*
X123614235Y-133977429D01*
X123620196Y-134001227D01*
X123623796Y-134025496D01*
X123625000Y-134050000D01*
X123625000Y-134975000D01*
X123623796Y-134999504D01*
X123620196Y-135023773D01*
X123614235Y-135047571D01*
X123605970Y-135070671D01*
X123595480Y-135092849D01*
X123582867Y-135113893D01*
X123568253Y-135133598D01*
X123551777Y-135151777D01*
X123533598Y-135168253D01*
X123513893Y-135182867D01*
X123492849Y-135195480D01*
X123470671Y-135205970D01*
X123447571Y-135214235D01*
X123423773Y-135220196D01*
X123399504Y-135223796D01*
X123375000Y-135225000D01*
X122125000Y-135225000D01*
X122100496Y-135223796D01*
X122076227Y-135220196D01*
X122052429Y-135214235D01*
X122029329Y-135205970D01*
X122007151Y-135195480D01*
X121986107Y-135182867D01*
X121966402Y-135168253D01*
X121948223Y-135151777D01*
X121931747Y-135133598D01*
X121917133Y-135113893D01*
X121904520Y-135092849D01*
X121894030Y-135070671D01*
X121885765Y-135047571D01*
X121879804Y-135023773D01*
X121876204Y-134999504D01*
X121875000Y-134975000D01*
X121875000Y-134050000D01*
X121876204Y-134025496D01*
X121879804Y-134001227D01*
X121885765Y-133977429D01*
X121894030Y-133954329D01*
X121904520Y-133932151D01*
X121917133Y-133911107D01*
X121931747Y-133891402D01*
X121948223Y-133873223D01*
X121966402Y-133856747D01*
X121986107Y-133842133D01*
X122007151Y-133829520D01*
X122029329Y-133819030D01*
X122052429Y-133810765D01*
X122076227Y-133804804D01*
X122100496Y-133801204D01*
X122125000Y-133800000D01*
X123375000Y-133800000D01*
X123399504Y-133801204D01*
G37*
G36*
X111899504Y-137526204D02*
G01*
X111923773Y-137529804D01*
X111947571Y-137535765D01*
X111970671Y-137544030D01*
X111992849Y-137554520D01*
X112013893Y-137567133D01*
X112033598Y-137581747D01*
X112051777Y-137598223D01*
X112068253Y-137616402D01*
X112082867Y-137636107D01*
X112095480Y-137657151D01*
X112105970Y-137679329D01*
X112114235Y-137702429D01*
X112120196Y-137726227D01*
X112123796Y-137750496D01*
X112125000Y-137775000D01*
X112125000Y-138700000D01*
X112123796Y-138724504D01*
X112120196Y-138748773D01*
X112114235Y-138772571D01*
X112105970Y-138795671D01*
X112095480Y-138817849D01*
X112082867Y-138838893D01*
X112068253Y-138858598D01*
X112051777Y-138876777D01*
X112033598Y-138893253D01*
X112013893Y-138907867D01*
X111992849Y-138920480D01*
X111970671Y-138930970D01*
X111947571Y-138939235D01*
X111923773Y-138945196D01*
X111899504Y-138948796D01*
X111875000Y-138950000D01*
X110625000Y-138950000D01*
X110600496Y-138948796D01*
X110576227Y-138945196D01*
X110552429Y-138939235D01*
X110529329Y-138930970D01*
X110507151Y-138920480D01*
X110486107Y-138907867D01*
X110466402Y-138893253D01*
X110448223Y-138876777D01*
X110431747Y-138858598D01*
X110417133Y-138838893D01*
X110404520Y-138817849D01*
X110394030Y-138795671D01*
X110385765Y-138772571D01*
X110379804Y-138748773D01*
X110376204Y-138724504D01*
X110375000Y-138700000D01*
X110375000Y-137775000D01*
X110376204Y-137750496D01*
X110379804Y-137726227D01*
X110385765Y-137702429D01*
X110394030Y-137679329D01*
X110404520Y-137657151D01*
X110417133Y-137636107D01*
X110431747Y-137616402D01*
X110448223Y-137598223D01*
X110466402Y-137581747D01*
X110486107Y-137567133D01*
X110507151Y-137554520D01*
X110529329Y-137544030D01*
X110552429Y-137535765D01*
X110576227Y-137529804D01*
X110600496Y-137526204D01*
X110625000Y-137525000D01*
X111875000Y-137525000D01*
X111899504Y-137526204D01*
G37*
G36*
X111899504Y-134551204D02*
G01*
X111923773Y-134554804D01*
X111947571Y-134560765D01*
X111970671Y-134569030D01*
X111992849Y-134579520D01*
X112013893Y-134592133D01*
X112033598Y-134606747D01*
X112051777Y-134623223D01*
X112068253Y-134641402D01*
X112082867Y-134661107D01*
X112095480Y-134682151D01*
X112105970Y-134704329D01*
X112114235Y-134727429D01*
X112120196Y-134751227D01*
X112123796Y-134775496D01*
X112125000Y-134800000D01*
X112125000Y-135725000D01*
X112123796Y-135749504D01*
X112120196Y-135773773D01*
X112114235Y-135797571D01*
X112105970Y-135820671D01*
X112095480Y-135842849D01*
X112082867Y-135863893D01*
X112068253Y-135883598D01*
X112051777Y-135901777D01*
X112033598Y-135918253D01*
X112013893Y-135932867D01*
X111992849Y-135945480D01*
X111970671Y-135955970D01*
X111947571Y-135964235D01*
X111923773Y-135970196D01*
X111899504Y-135973796D01*
X111875000Y-135975000D01*
X110625000Y-135975000D01*
X110600496Y-135973796D01*
X110576227Y-135970196D01*
X110552429Y-135964235D01*
X110529329Y-135955970D01*
X110507151Y-135945480D01*
X110486107Y-135932867D01*
X110466402Y-135918253D01*
X110448223Y-135901777D01*
X110431747Y-135883598D01*
X110417133Y-135863893D01*
X110404520Y-135842849D01*
X110394030Y-135820671D01*
X110385765Y-135797571D01*
X110379804Y-135773773D01*
X110376204Y-135749504D01*
X110375000Y-135725000D01*
X110375000Y-134800000D01*
X110376204Y-134775496D01*
X110379804Y-134751227D01*
X110385765Y-134727429D01*
X110394030Y-134704329D01*
X110404520Y-134682151D01*
X110417133Y-134661107D01*
X110431747Y-134641402D01*
X110448223Y-134623223D01*
X110466402Y-134606747D01*
X110486107Y-134592133D01*
X110507151Y-134579520D01*
X110529329Y-134569030D01*
X110552429Y-134560765D01*
X110576227Y-134554804D01*
X110600496Y-134551204D01*
X110625000Y-134550000D01*
X111875000Y-134550000D01*
X111899504Y-134551204D01*
G37*
G36*
X142249504Y-137288704D02*
G01*
X142273773Y-137292304D01*
X142297571Y-137298265D01*
X142320671Y-137306530D01*
X142342849Y-137317020D01*
X142363893Y-137329633D01*
X142383598Y-137344247D01*
X142401777Y-137360723D01*
X142418253Y-137378902D01*
X142432867Y-137398607D01*
X142445480Y-137419651D01*
X142455970Y-137441829D01*
X142464235Y-137464929D01*
X142470196Y-137488727D01*
X142473796Y-137512996D01*
X142475000Y-137537500D01*
X142475000Y-138462500D01*
X142473796Y-138487004D01*
X142470196Y-138511273D01*
X142464235Y-138535071D01*
X142455970Y-138558171D01*
X142445480Y-138580349D01*
X142432867Y-138601393D01*
X142418253Y-138621098D01*
X142401777Y-138639277D01*
X142383598Y-138655753D01*
X142363893Y-138670367D01*
X142342849Y-138682980D01*
X142320671Y-138693470D01*
X142297571Y-138701735D01*
X142273773Y-138707696D01*
X142249504Y-138711296D01*
X142225000Y-138712500D01*
X140975000Y-138712500D01*
X140950496Y-138711296D01*
X140926227Y-138707696D01*
X140902429Y-138701735D01*
X140879329Y-138693470D01*
X140857151Y-138682980D01*
X140836107Y-138670367D01*
X140816402Y-138655753D01*
X140798223Y-138639277D01*
X140781747Y-138621098D01*
X140767133Y-138601393D01*
X140754520Y-138580349D01*
X140744030Y-138558171D01*
X140735765Y-138535071D01*
X140729804Y-138511273D01*
X140726204Y-138487004D01*
X140725000Y-138462500D01*
X140725000Y-137537500D01*
X140726204Y-137512996D01*
X140729804Y-137488727D01*
X140735765Y-137464929D01*
X140744030Y-137441829D01*
X140754520Y-137419651D01*
X140767133Y-137398607D01*
X140781747Y-137378902D01*
X140798223Y-137360723D01*
X140816402Y-137344247D01*
X140836107Y-137329633D01*
X140857151Y-137317020D01*
X140879329Y-137306530D01*
X140902429Y-137298265D01*
X140926227Y-137292304D01*
X140950496Y-137288704D01*
X140975000Y-137287500D01*
X142225000Y-137287500D01*
X142249504Y-137288704D01*
G37*
G36*
X142249504Y-134313704D02*
G01*
X142273773Y-134317304D01*
X142297571Y-134323265D01*
X142320671Y-134331530D01*
X142342849Y-134342020D01*
X142363893Y-134354633D01*
X142383598Y-134369247D01*
X142401777Y-134385723D01*
X142418253Y-134403902D01*
X142432867Y-134423607D01*
X142445480Y-134444651D01*
X142455970Y-134466829D01*
X142464235Y-134489929D01*
X142470196Y-134513727D01*
X142473796Y-134537996D01*
X142475000Y-134562500D01*
X142475000Y-135487500D01*
X142473796Y-135512004D01*
X142470196Y-135536273D01*
X142464235Y-135560071D01*
X142455970Y-135583171D01*
X142445480Y-135605349D01*
X142432867Y-135626393D01*
X142418253Y-135646098D01*
X142401777Y-135664277D01*
X142383598Y-135680753D01*
X142363893Y-135695367D01*
X142342849Y-135707980D01*
X142320671Y-135718470D01*
X142297571Y-135726735D01*
X142273773Y-135732696D01*
X142249504Y-135736296D01*
X142225000Y-135737500D01*
X140975000Y-135737500D01*
X140950496Y-135736296D01*
X140926227Y-135732696D01*
X140902429Y-135726735D01*
X140879329Y-135718470D01*
X140857151Y-135707980D01*
X140836107Y-135695367D01*
X140816402Y-135680753D01*
X140798223Y-135664277D01*
X140781747Y-135646098D01*
X140767133Y-135626393D01*
X140754520Y-135605349D01*
X140744030Y-135583171D01*
X140735765Y-135560071D01*
X140729804Y-135536273D01*
X140726204Y-135512004D01*
X140725000Y-135487500D01*
X140725000Y-134562500D01*
X140726204Y-134537996D01*
X140729804Y-134513727D01*
X140735765Y-134489929D01*
X140744030Y-134466829D01*
X140754520Y-134444651D01*
X140767133Y-134423607D01*
X140781747Y-134403902D01*
X140798223Y-134385723D01*
X140816402Y-134369247D01*
X140836107Y-134354633D01*
X140857151Y-134342020D01*
X140879329Y-134331530D01*
X140902429Y-134323265D01*
X140926227Y-134317304D01*
X140950496Y-134313704D01*
X140975000Y-134312500D01*
X142225000Y-134312500D01*
X142249504Y-134313704D01*
G37*
G36*
X139749504Y-137276204D02*
G01*
X139773773Y-137279804D01*
X139797571Y-137285765D01*
X139820671Y-137294030D01*
X139842849Y-137304520D01*
X139863893Y-137317133D01*
X139883598Y-137331747D01*
X139901777Y-137348223D01*
X139918253Y-137366402D01*
X139932867Y-137386107D01*
X139945480Y-137407151D01*
X139955970Y-137429329D01*
X139964235Y-137452429D01*
X139970196Y-137476227D01*
X139973796Y-137500496D01*
X139975000Y-137525000D01*
X139975000Y-138450000D01*
X139973796Y-138474504D01*
X139970196Y-138498773D01*
X139964235Y-138522571D01*
X139955970Y-138545671D01*
X139945480Y-138567849D01*
X139932867Y-138588893D01*
X139918253Y-138608598D01*
X139901777Y-138626777D01*
X139883598Y-138643253D01*
X139863893Y-138657867D01*
X139842849Y-138670480D01*
X139820671Y-138680970D01*
X139797571Y-138689235D01*
X139773773Y-138695196D01*
X139749504Y-138698796D01*
X139725000Y-138700000D01*
X138475000Y-138700000D01*
X138450496Y-138698796D01*
X138426227Y-138695196D01*
X138402429Y-138689235D01*
X138379329Y-138680970D01*
X138357151Y-138670480D01*
X138336107Y-138657867D01*
X138316402Y-138643253D01*
X138298223Y-138626777D01*
X138281747Y-138608598D01*
X138267133Y-138588893D01*
X138254520Y-138567849D01*
X138244030Y-138545671D01*
X138235765Y-138522571D01*
X138229804Y-138498773D01*
X138226204Y-138474504D01*
X138225000Y-138450000D01*
X138225000Y-137525000D01*
X138226204Y-137500496D01*
X138229804Y-137476227D01*
X138235765Y-137452429D01*
X138244030Y-137429329D01*
X138254520Y-137407151D01*
X138267133Y-137386107D01*
X138281747Y-137366402D01*
X138298223Y-137348223D01*
X138316402Y-137331747D01*
X138336107Y-137317133D01*
X138357151Y-137304520D01*
X138379329Y-137294030D01*
X138402429Y-137285765D01*
X138426227Y-137279804D01*
X138450496Y-137276204D01*
X138475000Y-137275000D01*
X139725000Y-137275000D01*
X139749504Y-137276204D01*
G37*
G36*
X139749504Y-134301204D02*
G01*
X139773773Y-134304804D01*
X139797571Y-134310765D01*
X139820671Y-134319030D01*
X139842849Y-134329520D01*
X139863893Y-134342133D01*
X139883598Y-134356747D01*
X139901777Y-134373223D01*
X139918253Y-134391402D01*
X139932867Y-134411107D01*
X139945480Y-134432151D01*
X139955970Y-134454329D01*
X139964235Y-134477429D01*
X139970196Y-134501227D01*
X139973796Y-134525496D01*
X139975000Y-134550000D01*
X139975000Y-135475000D01*
X139973796Y-135499504D01*
X139970196Y-135523773D01*
X139964235Y-135547571D01*
X139955970Y-135570671D01*
X139945480Y-135592849D01*
X139932867Y-135613893D01*
X139918253Y-135633598D01*
X139901777Y-135651777D01*
X139883598Y-135668253D01*
X139863893Y-135682867D01*
X139842849Y-135695480D01*
X139820671Y-135705970D01*
X139797571Y-135714235D01*
X139773773Y-135720196D01*
X139749504Y-135723796D01*
X139725000Y-135725000D01*
X138475000Y-135725000D01*
X138450496Y-135723796D01*
X138426227Y-135720196D01*
X138402429Y-135714235D01*
X138379329Y-135705970D01*
X138357151Y-135695480D01*
X138336107Y-135682867D01*
X138316402Y-135668253D01*
X138298223Y-135651777D01*
X138281747Y-135633598D01*
X138267133Y-135613893D01*
X138254520Y-135592849D01*
X138244030Y-135570671D01*
X138235765Y-135547571D01*
X138229804Y-135523773D01*
X138226204Y-135499504D01*
X138225000Y-135475000D01*
X138225000Y-134550000D01*
X138226204Y-134525496D01*
X138229804Y-134501227D01*
X138235765Y-134477429D01*
X138244030Y-134454329D01*
X138254520Y-134432151D01*
X138267133Y-134411107D01*
X138281747Y-134391402D01*
X138298223Y-134373223D01*
X138316402Y-134356747D01*
X138336107Y-134342133D01*
X138357151Y-134329520D01*
X138379329Y-134319030D01*
X138402429Y-134310765D01*
X138426227Y-134304804D01*
X138450496Y-134301204D01*
X138475000Y-134300000D01*
X139725000Y-134300000D01*
X139749504Y-134301204D01*
G37*
G36*
X144749504Y-137276204D02*
G01*
X144773773Y-137279804D01*
X144797571Y-137285765D01*
X144820671Y-137294030D01*
X144842849Y-137304520D01*
X144863893Y-137317133D01*
X144883598Y-137331747D01*
X144901777Y-137348223D01*
X144918253Y-137366402D01*
X144932867Y-137386107D01*
X144945480Y-137407151D01*
X144955970Y-137429329D01*
X144964235Y-137452429D01*
X144970196Y-137476227D01*
X144973796Y-137500496D01*
X144975000Y-137525000D01*
X144975000Y-138450000D01*
X144973796Y-138474504D01*
X144970196Y-138498773D01*
X144964235Y-138522571D01*
X144955970Y-138545671D01*
X144945480Y-138567849D01*
X144932867Y-138588893D01*
X144918253Y-138608598D01*
X144901777Y-138626777D01*
X144883598Y-138643253D01*
X144863893Y-138657867D01*
X144842849Y-138670480D01*
X144820671Y-138680970D01*
X144797571Y-138689235D01*
X144773773Y-138695196D01*
X144749504Y-138698796D01*
X144725000Y-138700000D01*
X143475000Y-138700000D01*
X143450496Y-138698796D01*
X143426227Y-138695196D01*
X143402429Y-138689235D01*
X143379329Y-138680970D01*
X143357151Y-138670480D01*
X143336107Y-138657867D01*
X143316402Y-138643253D01*
X143298223Y-138626777D01*
X143281747Y-138608598D01*
X143267133Y-138588893D01*
X143254520Y-138567849D01*
X143244030Y-138545671D01*
X143235765Y-138522571D01*
X143229804Y-138498773D01*
X143226204Y-138474504D01*
X143225000Y-138450000D01*
X143225000Y-137525000D01*
X143226204Y-137500496D01*
X143229804Y-137476227D01*
X143235765Y-137452429D01*
X143244030Y-137429329D01*
X143254520Y-137407151D01*
X143267133Y-137386107D01*
X143281747Y-137366402D01*
X143298223Y-137348223D01*
X143316402Y-137331747D01*
X143336107Y-137317133D01*
X143357151Y-137304520D01*
X143379329Y-137294030D01*
X143402429Y-137285765D01*
X143426227Y-137279804D01*
X143450496Y-137276204D01*
X143475000Y-137275000D01*
X144725000Y-137275000D01*
X144749504Y-137276204D01*
G37*
G36*
X144749504Y-134301204D02*
G01*
X144773773Y-134304804D01*
X144797571Y-134310765D01*
X144820671Y-134319030D01*
X144842849Y-134329520D01*
X144863893Y-134342133D01*
X144883598Y-134356747D01*
X144901777Y-134373223D01*
X144918253Y-134391402D01*
X144932867Y-134411107D01*
X144945480Y-134432151D01*
X144955970Y-134454329D01*
X144964235Y-134477429D01*
X144970196Y-134501227D01*
X144973796Y-134525496D01*
X144975000Y-134550000D01*
X144975000Y-135475000D01*
X144973796Y-135499504D01*
X144970196Y-135523773D01*
X144964235Y-135547571D01*
X144955970Y-135570671D01*
X144945480Y-135592849D01*
X144932867Y-135613893D01*
X144918253Y-135633598D01*
X144901777Y-135651777D01*
X144883598Y-135668253D01*
X144863893Y-135682867D01*
X144842849Y-135695480D01*
X144820671Y-135705970D01*
X144797571Y-135714235D01*
X144773773Y-135720196D01*
X144749504Y-135723796D01*
X144725000Y-135725000D01*
X143475000Y-135725000D01*
X143450496Y-135723796D01*
X143426227Y-135720196D01*
X143402429Y-135714235D01*
X143379329Y-135705970D01*
X143357151Y-135695480D01*
X143336107Y-135682867D01*
X143316402Y-135668253D01*
X143298223Y-135651777D01*
X143281747Y-135633598D01*
X143267133Y-135613893D01*
X143254520Y-135592849D01*
X143244030Y-135570671D01*
X143235765Y-135547571D01*
X143229804Y-135523773D01*
X143226204Y-135499504D01*
X143225000Y-135475000D01*
X143225000Y-134550000D01*
X143226204Y-134525496D01*
X143229804Y-134501227D01*
X143235765Y-134477429D01*
X143244030Y-134454329D01*
X143254520Y-134432151D01*
X143267133Y-134411107D01*
X143281747Y-134391402D01*
X143298223Y-134373223D01*
X143316402Y-134356747D01*
X143336107Y-134342133D01*
X143357151Y-134329520D01*
X143379329Y-134319030D01*
X143402429Y-134310765D01*
X143426227Y-134304804D01*
X143450496Y-134301204D01*
X143475000Y-134300000D01*
X144725000Y-134300000D01*
X144749504Y-134301204D01*
G37*
M02*
