%TF.GenerationSoftware,KiCad,Pcbnew,8.0.0*%
%TF.CreationDate,2024-05-13T09:11:22+02:00*%
%TF.ProjectId,Planar_XFMR,506c616e-6172-45f5-9846-4d522e6b6963,A*%
%TF.SameCoordinates,Original*%
%TF.FileFunction,Profile,NP*%
%FSLAX46Y46*%
G04 Gerber Fmt 4.6, Leading zero omitted, Abs format (unit mm)*
G04 Created by KiCad (PCBNEW 8.0.0) date 2024-05-13 09:11:22*
%MOMM*%
%LPD*%
G01*
G04 APERTURE LIST*
%TA.AperFunction,Profile*%
%ADD10C,0.010000*%
%TD*%
%TA.AperFunction,Profile*%
%ADD11C,0.100000*%
%TD*%
G04 APERTURE END LIST*
D10*
X118250000Y-71000000D02*
X118253553Y-72146447D01*
X118848401Y-58449251D02*
X118850000Y-59600000D01*
X154520900Y-53635500D02*
X152970900Y-53635500D01*
X119500000Y-71000000D02*
X118250000Y-71000000D01*
X136500000Y-70950000D02*
X135250000Y-70950000D01*
X144660900Y-56635500D02*
G75*
G02*
X145071201Y-54789024I4360000J0D01*
G01*
D11*
X108585786Y-81585786D02*
X154585786Y-81585786D01*
X154585786Y-31585786D02*
X108585786Y-31585786D01*
D10*
X134700000Y-44650000D02*
X134700000Y-43400000D01*
X143520900Y-53635500D02*
X145070900Y-53635500D01*
X137500000Y-59600000D02*
X135950000Y-59600000D01*
X111250000Y-76000000D02*
X111250000Y-74850000D01*
X128050000Y-53600000D02*
X128050301Y-54753524D01*
X110540000Y-56600000D02*
G75*
G02*
X110950301Y-54753524I4360000J0D01*
G01*
X129700000Y-35150000D02*
X134700000Y-35150000D01*
X112650000Y-44650000D02*
X117650000Y-44650000D01*
X133950000Y-39900000D02*
G75*
G02*
X130450000Y-39900000I-1750000J0D01*
G01*
X130450000Y-39900000D02*
G75*
G02*
X133950000Y-39900000I1750000J0D01*
G01*
X136500000Y-70950000D02*
X136500000Y-75950000D01*
X134125000Y-56600000D02*
G75*
G02*
X129875000Y-56600000I-2125000J0D01*
G01*
X129875000Y-56600000D02*
G75*
G02*
X134125000Y-56600000I2125000J0D01*
G01*
X152270000Y-75950000D02*
X153520000Y-75950000D01*
X129700000Y-44650000D02*
X134700000Y-44650000D01*
X135250000Y-75950000D02*
X136500000Y-75950000D01*
X136360000Y-56600000D02*
G75*
G02*
X135948401Y-58449251I-4360000J0D01*
G01*
X129700000Y-36400000D02*
X130846447Y-36396447D01*
X153520000Y-70950000D02*
X152270000Y-70950000D01*
X145070900Y-59635500D02*
X145071382Y-58482364D01*
X137500000Y-53600000D02*
X137500000Y-59600000D01*
D11*
X154585786Y-31585786D02*
G75*
G02*
X156585814Y-33585786I14J-2000014D01*
G01*
D10*
X128250000Y-70950000D02*
X127000000Y-70950000D01*
X147650000Y-36400000D02*
G75*
G02*
X150350000Y-36400000I1350000J-3500001D01*
G01*
D11*
X156585786Y-79585786D02*
G75*
G02*
X154585786Y-81585786I-1999986J-14D01*
G01*
D10*
X146500000Y-35150000D02*
X146500000Y-36400000D01*
X110950483Y-58446864D02*
G75*
G02*
X110540001Y-56600000I3949517J1846864D01*
G01*
D11*
X108585786Y-81585786D02*
G75*
G02*
X106585814Y-79585786I14J1999986D01*
G01*
D10*
X110950000Y-59600000D02*
X110950482Y-58446864D01*
X151145900Y-56635500D02*
G75*
G02*
X146895900Y-56635500I-2125000J0D01*
G01*
X146895900Y-56635500D02*
G75*
G02*
X151145900Y-56635500I2125000J0D01*
G01*
X144020000Y-75950000D02*
X145270000Y-75950000D01*
X110000000Y-71000000D02*
X110000000Y-76000000D01*
X150750000Y-39900000D02*
G75*
G02*
X147250000Y-39900000I-1750000J0D01*
G01*
X147250000Y-39900000D02*
G75*
G02*
X150750000Y-39900000I1750000J0D01*
G01*
X119260000Y-56600000D02*
G75*
G02*
X118848401Y-58449251I-4360000J0D01*
G01*
X152273600Y-75946400D02*
X152273553Y-74796447D01*
X151500000Y-43400000D02*
X150350000Y-43400000D01*
X109400000Y-59600000D02*
X109400000Y-53600000D01*
X129700000Y-35150000D02*
X129700000Y-36400000D01*
X145270000Y-74800000D02*
G75*
G02*
X145270000Y-72100000I3500000J1350000D01*
G01*
X153380900Y-56635500D02*
G75*
G02*
X152969301Y-58484751I-4360000J0D01*
G01*
X128250000Y-75950000D02*
X128250000Y-74800000D01*
X143520900Y-59635500D02*
X143520900Y-53635500D01*
X152270000Y-72100000D02*
G75*
G02*
X152270000Y-74800000I-3500000J-1350000D01*
G01*
D11*
X156585786Y-79585786D02*
X156585786Y-33585786D01*
D10*
X137500000Y-53600000D02*
X135950000Y-53600000D01*
X112650000Y-35150000D02*
X117650000Y-35150000D01*
X128050483Y-58446864D02*
G75*
G02*
X127640001Y-56600000I3949517J1846864D01*
G01*
X146500000Y-35150000D02*
X151500000Y-35150000D01*
X116900000Y-39900000D02*
G75*
G02*
X113400000Y-39900000I-1750000J0D01*
G01*
X113400000Y-39900000D02*
G75*
G02*
X116900000Y-39900000I1750000J0D01*
G01*
X133500000Y-73450000D02*
G75*
G02*
X130000000Y-73450000I-1750000J0D01*
G01*
X130000000Y-73450000D02*
G75*
G02*
X133500000Y-73450000I1750000J0D01*
G01*
X145071383Y-58482364D02*
G75*
G02*
X144660901Y-56635500I3949517J1846864D01*
G01*
X127000000Y-75950000D02*
X128250000Y-75950000D01*
X110950000Y-53600000D02*
X110950301Y-54753524D01*
X120400000Y-53600000D02*
X120400000Y-59600000D01*
X154520900Y-53635500D02*
X154520900Y-59635500D01*
X109400000Y-53600000D02*
X110950000Y-53600000D01*
X111250000Y-71000000D02*
X110000000Y-71000000D01*
X118250000Y-76000000D02*
X119500000Y-76000000D01*
X116500000Y-73500000D02*
G75*
G02*
X113000000Y-73500000I-1750000J0D01*
G01*
X113000000Y-73500000D02*
G75*
G02*
X116500000Y-73500000I1750000J0D01*
G01*
X110950000Y-59600000D02*
X109400000Y-59600000D01*
X150350000Y-43400000D02*
G75*
G02*
X147650000Y-43400000I-1350000J3500001D01*
G01*
X127000000Y-70950000D02*
X127000000Y-75950000D01*
X128050000Y-59600000D02*
X126500000Y-59600000D01*
X111250000Y-74850000D02*
G75*
G02*
X111250000Y-72150000I3500000J1350000D01*
G01*
X152969301Y-58484751D02*
X152970900Y-59635500D01*
X135948400Y-54750749D02*
G75*
G02*
X136359999Y-56600000I-3948400J-1849251D01*
G01*
X127640000Y-56600000D02*
G75*
G02*
X128050301Y-54753524I4360000J0D01*
G01*
X119500000Y-71000000D02*
X119500000Y-76000000D01*
X113800000Y-36400000D02*
G75*
G02*
X116500000Y-36400000I1350000J-3500001D01*
G01*
X128250000Y-70950000D02*
X128250000Y-72100000D01*
X117650000Y-36400000D02*
X117650000Y-35150000D01*
X152270000Y-70950000D02*
X152273553Y-72096447D01*
X112650000Y-36400000D02*
X113796447Y-36396447D01*
X134700000Y-43400000D02*
X133550000Y-43400000D01*
X130850000Y-36400000D02*
G75*
G02*
X133550000Y-36400000I1350000J-3500001D01*
G01*
X126500000Y-53600000D02*
X128050000Y-53600000D01*
X112650000Y-43400000D02*
X112650000Y-44650000D01*
X117650000Y-43400000D02*
X116500000Y-43400000D01*
X128250000Y-74800000D02*
G75*
G02*
X128250000Y-72100000I3500000J1350000D01*
G01*
X117646400Y-36396400D02*
X116496447Y-36396447D01*
D11*
X106585786Y-33585786D02*
X106585786Y-79585786D01*
D10*
X145270000Y-70950000D02*
X145270000Y-72100000D01*
X118850000Y-53600000D02*
X118848401Y-54750749D01*
X133550000Y-43400000D02*
G75*
G02*
X130850000Y-43400000I-1350000J3500001D01*
G01*
X129700000Y-43400000D02*
X129700000Y-44650000D01*
X110000000Y-76000000D02*
X111250000Y-76000000D01*
X135253600Y-75946400D02*
X135253553Y-74796447D01*
D11*
X106585786Y-33585786D02*
G75*
G02*
X108585786Y-31585786I2000014J-14D01*
G01*
D10*
X118848400Y-54750749D02*
G75*
G02*
X119259999Y-56600000I-3948400J-1849251D01*
G01*
X134700000Y-36400000D02*
X134700000Y-35150000D01*
X145070900Y-59635500D02*
X143520900Y-59635500D01*
X112650000Y-43400000D02*
X113800000Y-43400000D01*
X146500000Y-36400000D02*
X147646447Y-36396447D01*
X144020000Y-70950000D02*
X144020000Y-75950000D01*
X152969300Y-54786249D02*
G75*
G02*
X153380899Y-56635500I-3948400J-1849251D01*
G01*
X117025000Y-56600000D02*
G75*
G02*
X112775000Y-56600000I-2125000J0D01*
G01*
X112775000Y-56600000D02*
G75*
G02*
X117025000Y-56600000I2125000J0D01*
G01*
X128050000Y-59600000D02*
X128050482Y-58446864D01*
X146500000Y-44650000D02*
X151500000Y-44650000D01*
X145070900Y-53635500D02*
X145071201Y-54789024D01*
X146500000Y-43400000D02*
X146500000Y-44650000D01*
X135948401Y-58449251D02*
X135950000Y-59600000D01*
X116500000Y-43400000D02*
G75*
G02*
X113800000Y-43400000I-1350000J3500001D01*
G01*
X120400000Y-53600000D02*
X118850000Y-53600000D01*
X146500000Y-43400000D02*
X147650000Y-43400000D01*
X151500000Y-44650000D02*
X151500000Y-43400000D01*
X134696400Y-36396400D02*
X133546447Y-36396447D01*
X118253600Y-75996400D02*
X118253553Y-74846447D01*
X135950000Y-53600000D02*
X135948401Y-54750749D01*
X153520000Y-70950000D02*
X153520000Y-75950000D01*
X120400000Y-59600000D02*
X118850000Y-59600000D01*
X154520900Y-59635500D02*
X152970900Y-59635500D01*
X126500000Y-59600000D02*
X126500000Y-53600000D01*
X112650000Y-35150000D02*
X112650000Y-36400000D01*
X151500000Y-36400000D02*
X151500000Y-35150000D01*
X145270000Y-70950000D02*
X144020000Y-70950000D01*
X145270000Y-75950000D02*
X145270000Y-74800000D01*
X150520000Y-73450000D02*
G75*
G02*
X147020000Y-73450000I-1750000J0D01*
G01*
X147020000Y-73450000D02*
G75*
G02*
X150520000Y-73450000I1750000J0D01*
G01*
X135250000Y-70950000D02*
X135253553Y-72096447D01*
X118250000Y-72150000D02*
G75*
G02*
X118250000Y-74850000I-3500000J-1350000D01*
G01*
X111250000Y-71000000D02*
X111250000Y-72150000D01*
X152970900Y-53635500D02*
X152969301Y-54786249D01*
X151496400Y-36396400D02*
X150346447Y-36396447D01*
X129700000Y-43400000D02*
X130850000Y-43400000D01*
X135250000Y-72100000D02*
G75*
G02*
X135250000Y-74800000I-3500000J-1350000D01*
G01*
X117650000Y-44650000D02*
X117650000Y-43400000D01*
M02*
