%TF.GenerationSoftware,KiCad,Pcbnew,8.0.0*%
%TF.CreationDate,2024-05-13T09:11:22+02:00*%
%TF.ProjectId,Planar_XFMR,506c616e-6172-45f5-9846-4d522e6b6963,A*%
%TF.SameCoordinates,Original*%
%TF.FileFunction,Copper,L3,Inr*%
%TF.FilePolarity,Positive*%
%FSLAX46Y46*%
G04 Gerber Fmt 4.6, Leading zero omitted, Abs format (unit mm)*
G04 Created by KiCad (PCBNEW 8.0.0) date 2024-05-13 09:11:22*
%MOMM*%
%LPD*%
G01*
G04 APERTURE LIST*
%TA.AperFunction,NonConductor*%
%ADD10C,0.100000*%
%TD*%
%TA.AperFunction,Conductor*%
%ADD11C,0.100000*%
%TD*%
%TA.AperFunction,NonConductor*%
%ADD12C,0.200000*%
%TD*%
%TA.AperFunction,ComponentPad*%
%ADD13R,1.700000X1.700000*%
%TD*%
%TA.AperFunction,ComponentPad*%
%ADD14O,1.700000X1.700000*%
%TD*%
%TA.AperFunction,ViaPad*%
%ADD15C,0.450000*%
%TD*%
%TA.AperFunction,ViaPad*%
%ADD16C,1.300000*%
%TD*%
%TA.AperFunction,Conductor*%
%ADD17C,0.200000*%
%TD*%
%TA.AperFunction,Conductor*%
%ADD18C,0.250000*%
%TD*%
%TA.AperFunction,Conductor*%
%ADD19C,1.300000*%
%TD*%
G04 APERTURE END LIST*
D10*
X112400000Y-56600000D02*
G75*
G02*
X114545297Y-54125291I2500000J0D01*
G01*
D11*
%TO.N,Net-(J10-Pin_1)*%
X135300000Y-56600000D02*
G75*
G02*
X132848011Y-59789181I-3300000J0D01*
G01*
D12*
X115988906Y-70702017D02*
G75*
G02*
X117809999Y-73500000I-1238906J-2797983D01*
G01*
D11*
%TO.N,Net-(J10-Pin_4)*%
X148663154Y-54139344D02*
G75*
G02*
X148620941Y-53960459I357746J178844D01*
G01*
%TO.N,Net-(J10-Pin_1)*%
X132778152Y-53799157D02*
G75*
G02*
X132574004Y-59449695I-778152J-2800843D01*
G01*
D12*
X117210000Y-73500000D02*
G75*
G02*
X115182774Y-75921633I-2460000J0D01*
G01*
D11*
%TO.N,Net-(J10-Pin_4)*%
X149612888Y-53996293D02*
G75*
G02*
X149420925Y-59310460I-591968J-2639167D01*
G01*
D10*
X111600000Y-56600000D02*
G75*
G02*
X113781453Y-53495350I3300000J0D01*
G01*
D11*
%TO.N,Net-(J10-Pin_1)*%
X131600000Y-53925000D02*
G75*
G02*
X132357771Y-54103885I400000J0D01*
G01*
X129300000Y-56600000D02*
G75*
G02*
X131409075Y-53965459I2700000J0D01*
G01*
D12*
X132603695Y-76388445D02*
G75*
G02*
X130707707Y-76005626I-853695J658445D01*
G01*
D11*
X131642230Y-54103885D02*
G75*
G02*
X131600001Y-53925000I357770J178885D01*
G01*
D10*
X114309075Y-59234540D02*
G75*
G02*
X112200001Y-56600000I590925J2634540D01*
G01*
D11*
%TO.N,Net-(J10-Pin_4)*%
X148446922Y-53785762D02*
G75*
G02*
X149620887Y-53960459I573978J-174738D01*
G01*
D12*
X118100014Y-73500000D02*
G75*
G02*
X115776033Y-76689020I-3350014J0D01*
G01*
D11*
X148235501Y-53808441D02*
G75*
G02*
X149806349Y-53808441I785424J-152018D01*
G01*
%TO.N,Net-(J10-Pin_1)*%
X132720440Y-59622799D02*
G75*
G02*
X131214577Y-59427018I-720440J347799D01*
G01*
D10*
X113194948Y-60107535D02*
G75*
G02*
X111000000Y-56600000I1705052J3507535D01*
G01*
D11*
%TO.N,Net-(J10-Pin_4)*%
X148244628Y-59429624D02*
G75*
G02*
X146120947Y-56635459I776272J2794124D01*
G01*
D10*
X114123703Y-59394166D02*
G75*
G02*
X112000000Y-56600000I776297J2794166D01*
G01*
X149162230Y-75642971D02*
G75*
G02*
X148382877Y-75620748I-392230J-78429D01*
G01*
X114179560Y-53577201D02*
G75*
G02*
X115685423Y-53772982I720440J-347799D01*
G01*
D12*
X132742565Y-70874652D02*
G75*
G02*
X134510000Y-73450000I-992565J-2575348D01*
G01*
D10*
X115995816Y-60146672D02*
G75*
G02*
X113633052Y-59871211I-1095816J871672D01*
G01*
D11*
X148169864Y-53434803D02*
G75*
G02*
X149974769Y-53659245I851036J-525697D01*
G01*
X149420925Y-59310459D02*
G75*
G02*
X148663128Y-59131561I-400025J-41D01*
G01*
%TO.N,Net-(J10-Pin_1)*%
X131409075Y-59234540D02*
G75*
G02*
X129300001Y-56600000I590925J2634540D01*
G01*
%TO.N,Net-(J10-Pin_4)*%
X147475242Y-53038035D02*
G75*
G02*
X150573003Y-53048922I1545658J-922465D01*
G01*
X148300485Y-53612660D02*
G75*
G02*
X149806311Y-53808448I720415J-347840D01*
G01*
D10*
X149155878Y-71284108D02*
G75*
G02*
X149157340Y-75615631I-385878J-2165892D01*
G01*
X115751062Y-59800656D02*
G75*
G02*
X113946122Y-59576225I-851062J525656D01*
G01*
X147882959Y-70361807D02*
G75*
G02*
X149845268Y-70637254I887041J-808193D01*
G01*
X113500173Y-53150095D02*
G75*
G02*
X116299827Y-53150095I1399827J-774905D01*
G01*
X112400000Y-56600000D02*
G75*
G02*
X114545297Y-54125291I2500000J0D01*
G01*
X115678152Y-53799157D02*
G75*
G02*
X115474004Y-59449695I-778152J-2800843D01*
G01*
D11*
%TO.N,Net-(J10-Pin_1)*%
X132720440Y-59622799D02*
G75*
G02*
X131214577Y-59427018I-720440J347799D01*
G01*
D10*
X146370000Y-73450000D02*
G75*
G02*
X148394034Y-71079631I2400000J0D01*
G01*
D11*
%TO.N,Net-(J10-Pin_4)*%
X149871987Y-59836115D02*
G75*
G02*
X148067012Y-59611695I-851087J525615D01*
G01*
D12*
X115424557Y-76188762D02*
G75*
G02*
X113962888Y-75830676I-674557J408762D01*
G01*
D11*
X147621098Y-53185554D02*
G75*
G02*
X150420752Y-53185554I1399827J-774905D01*
G01*
X147925109Y-53088787D02*
G75*
G02*
X150287842Y-53364263I1095791J-871713D01*
G01*
X149799077Y-53834616D02*
G75*
G02*
X149594929Y-59485156I-778147J-2800844D01*
G01*
X152720925Y-56635459D02*
G75*
G02*
X150113186Y-60170623I-3700025J-41D01*
G01*
%TO.N,Net-(J10-Pin_1)*%
X129100000Y-56600000D02*
G75*
G02*
X131223703Y-53805834I2900000J0D01*
G01*
D10*
X147431065Y-76575261D02*
G75*
G02*
X145370000Y-73450000I1338935J3125261D01*
G01*
X147999117Y-75933091D02*
G75*
G02*
X146170000Y-73450000I770883J2483091D01*
G01*
D11*
%TO.N,Net-(J10-Pin_4)*%
X147621098Y-53185554D02*
G75*
G02*
X150420752Y-53185554I1399827J-774905D01*
G01*
%TO.N,Net-(J10-Pin_1)*%
X132851062Y-59800656D02*
G75*
G02*
X131046122Y-59576225I-851062J525656D01*
G01*
X130600173Y-53150095D02*
G75*
G02*
X133399827Y-53150095I1399827J-774905D01*
G01*
%TO.N,Net-(J10-Pin_4)*%
X145720925Y-56635459D02*
G75*
G02*
X147902397Y-53530861I3299975J-41D01*
G01*
D12*
X113475385Y-76281897D02*
G75*
G02*
X113507557Y-70703586I1274615J2781897D01*
G01*
D11*
X145720925Y-56635459D02*
G75*
G02*
X147902397Y-53530861I3299975J-41D01*
G01*
D12*
X131309459Y-75564598D02*
G75*
G02*
X131329942Y-71331238I440541J2114598D01*
G01*
D10*
X116448938Y-53020783D02*
G75*
G02*
X118800000Y-56600000I-1548938J-3579217D01*
G01*
D12*
X131003161Y-71101212D02*
G75*
G02*
X132495536Y-71088297I746839J-68788D01*
G01*
X130270163Y-70440217D02*
G75*
G02*
X133223873Y-70428247I1479837J-729783D01*
G01*
D10*
X115620440Y-59622799D02*
G75*
G02*
X114114577Y-59427018I-720440J347799D01*
G01*
X113796055Y-59709871D02*
G75*
G02*
X111600001Y-56600000I1103945J3109871D01*
G01*
X114500001Y-53925000D02*
G75*
G02*
X115257770Y-54103885I399999J0D01*
G01*
X149687019Y-70784956D02*
G75*
G02*
X149689659Y-76114134I-917019J-2665044D01*
G01*
X149842407Y-70644741D02*
G75*
G02*
X149845269Y-76254163I-1072407J-2805259D01*
G01*
D11*
%TO.N,Net-(J10-Pin_1)*%
X132851062Y-59800656D02*
G75*
G02*
X131046122Y-59576225I-851062J525656D01*
G01*
%TO.N,Net-(J10-Pin_4)*%
X145120925Y-56635459D02*
G75*
G02*
X147481354Y-53052261I3899975J-41D01*
G01*
X148045926Y-53260460D02*
G75*
G02*
X150131789Y-53506015I974974J-700040D01*
G01*
D10*
X111400000Y-56600000D02*
G75*
G02*
X113635937Y-53336238I3500000J0D01*
G01*
D11*
X149594928Y-59485156D02*
G75*
G02*
X148420889Y-59310459I-574028J174656D01*
G01*
%TO.N,Net-(J10-Pin_1)*%
X130733052Y-53328789D02*
G75*
G02*
X133266948Y-53328789I1266948J-596211D01*
G01*
%TO.N,Net-(J10-Pin_4)*%
X149967068Y-53683373D02*
G75*
G02*
X152120946Y-56635459I-946168J-2952127D01*
G01*
D10*
X115300000Y-59275000D02*
G75*
G02*
X114542229Y-59096115I-400000J0D01*
G01*
X146570000Y-73450000D02*
G75*
G02*
X148770000Y-71250000I2200000J0D01*
G01*
X149365603Y-75793925D02*
G75*
G02*
X148173256Y-75783844I-595603J72525D01*
G01*
D11*
X149799077Y-53834616D02*
G75*
G02*
X149594929Y-59485156I-778147J-2800844D01*
G01*
D10*
X115678152Y-53799157D02*
G75*
G02*
X115474004Y-59449695I-778152J-2800843D01*
G01*
D11*
X150235734Y-60351724D02*
G75*
G02*
X147621068Y-60085380I-1214834J1041224D01*
G01*
D12*
X115603695Y-76438445D02*
G75*
G02*
X113707707Y-76055626I-853695J658445D01*
G01*
D11*
X146520925Y-56635459D02*
G75*
G02*
X148666231Y-54160811I2499975J-41D01*
G01*
D12*
X130741890Y-70876376D02*
G75*
G02*
X132750962Y-70852864I1008110J-293624D01*
G01*
D11*
%TO.N,Net-(J10-Pin_1)*%
X130880401Y-53492427D02*
G75*
G02*
X133110896Y-53470542I1119599J-432573D01*
G01*
D10*
X114300000Y-53925000D02*
G75*
G02*
X115500000Y-53925000I600000J0D01*
G01*
X152170000Y-73450000D02*
G75*
G02*
X150092505Y-76582249I-3400000J0D01*
G01*
D12*
X113741890Y-70926376D02*
G75*
G02*
X115750962Y-70902864I1008110J-293624D01*
G01*
D11*
X130785191Y-52883735D02*
G75*
G02*
X133399827Y-53150095I1214809J-1041265D01*
G01*
%TO.N,Net-(J10-Pin_4)*%
X146520925Y-56635459D02*
G75*
G02*
X148666231Y-54160811I2499975J-41D01*
G01*
X147475242Y-53038035D02*
G75*
G02*
X150573003Y-53048922I1545658J-922465D01*
G01*
%TO.N,Net-(J10-Pin_1)*%
X130880401Y-53492427D02*
G75*
G02*
X133110896Y-53470542I1119599J-432573D01*
G01*
%TO.N,Net-(J10-Pin_4)*%
X147315873Y-60142993D02*
G75*
G02*
X145120948Y-56635459I1705027J3507493D01*
G01*
D10*
X118600000Y-56600000D02*
G75*
G02*
X115992244Y-60135110I-3700000J0D01*
G01*
D11*
%TO.N,Net-(J10-Pin_1)*%
X132778152Y-53799157D02*
G75*
G02*
X132574004Y-59449695I-778152J-2800843D01*
G01*
X133103945Y-53490129D02*
G75*
G02*
X135299999Y-56600000I-1103945J-3109871D01*
G01*
D10*
X115299999Y-59275000D02*
G75*
G02*
X114542230Y-59096115I-399999J0D01*
G01*
D11*
%TO.N,Net-(J10-Pin_4)*%
X148300485Y-53612660D02*
G75*
G02*
X149806311Y-53808448I720415J-347840D01*
G01*
D12*
X114003161Y-71151212D02*
G75*
G02*
X115495536Y-71138297I746839J-68788D01*
G01*
D11*
%TO.N,Net-(J10-Pin_1)*%
X133548938Y-53020783D02*
G75*
G02*
X135900000Y-56600000I-1548938J-3579217D01*
G01*
%TO.N,Net-(J10-Pin_4)*%
X150124870Y-53525588D02*
G75*
G02*
X152320946Y-56635459I-1103970J-3109912D01*
G01*
D12*
X115490545Y-71154111D02*
G75*
G02*
X117210000Y-73500000I-740545J-2345889D01*
G01*
D11*
%TO.N,Net-(J10-Pin_1)*%
X135700000Y-56600000D02*
G75*
G02*
X133092244Y-60135110I-3700000J0D01*
G01*
D12*
X115775346Y-76688411D02*
G75*
G02*
X113475385Y-76281898I-1025346J908411D01*
G01*
X132775346Y-76638411D02*
G75*
G02*
X130475385Y-76231898I-1025346J908411D01*
G01*
D11*
X131600001Y-53925000D02*
G75*
G02*
X132357770Y-54103885I399999J0D01*
G01*
X132946143Y-53647915D02*
G75*
G02*
X135099999Y-56600000I-946143J-2952085D01*
G01*
%TO.N,Net-(J10-Pin_4)*%
X152920925Y-56635459D02*
G75*
G02*
X150232713Y-60342481I-3900025J-41D01*
G01*
X147629778Y-60063973D02*
G75*
G02*
X145320948Y-56635459I1391122J3428473D01*
G01*
D10*
X113633052Y-53328789D02*
G75*
G02*
X116166948Y-53328789I1266948J-596211D01*
G01*
X113508853Y-60028513D02*
G75*
G02*
X111200001Y-56600000I1391147J3428513D01*
G01*
D11*
X147916980Y-59745330D02*
G75*
G02*
X145720948Y-56635459I1103920J3109830D01*
G01*
%TO.N,Net-(J10-Pin_1)*%
X128700000Y-56600000D02*
G75*
G02*
X130881453Y-53495350I3300000J0D01*
G01*
%TO.N,Net-(J10-Pin_4)*%
X147916980Y-59745330D02*
G75*
G02*
X145720948Y-56635459I1103920J3109830D01*
G01*
X152520925Y-56635459D02*
G75*
G02*
X149992330Y-59998014I-3500025J-41D01*
G01*
D10*
X148001372Y-70530303D02*
G75*
G02*
X149689659Y-70777281I768628J-639697D01*
G01*
D11*
X145920925Y-56635459D02*
G75*
G02*
X148074799Y-53683426I3099975J-41D01*
G01*
X148666222Y-59110167D02*
G75*
G02*
X146520945Y-56635459I354678J2474667D01*
G01*
D10*
X113796055Y-59709871D02*
G75*
G02*
X111600001Y-56600000I1103945J3109871D01*
G01*
D11*
%TO.N,Net-(J10-Pin_1)*%
X132591963Y-53960834D02*
G75*
G02*
X132400000Y-59274999I-591963J-2639166D01*
G01*
D10*
X111000000Y-56600000D02*
G75*
G02*
X113360408Y-53016753I3900000J0D01*
G01*
X114300000Y-53925000D02*
G75*
G02*
X115500000Y-53925000I600000J0D01*
G01*
D11*
%TO.N,Net-(J10-Pin_4)*%
X148067047Y-53659234D02*
G75*
G02*
X149974803Y-53659234I953878J-301225D01*
G01*
D12*
X134510000Y-73450000D02*
G75*
G02*
X132409983Y-76129930I-2760000J0D01*
G01*
D10*
X149359042Y-71123408D02*
G75*
G02*
X149361068Y-75776078I-589042J-2326592D01*
G01*
D11*
X148620925Y-53960459D02*
G75*
G02*
X149378670Y-54139331I399975J-41D01*
G01*
D10*
X150360818Y-70445121D02*
X150360000Y-70120000D01*
D11*
%TO.N,Net-(J10-Pin_1)*%
X133264063Y-53336239D02*
G75*
G02*
X135499999Y-56600000I-1264063J-3263761D01*
G01*
D12*
X129915217Y-76252884D02*
G75*
G02*
X130271882Y-70443714I1834783J2802884D01*
G01*
D10*
X145770000Y-73450000D02*
G75*
G02*
X148006254Y-70548846I3000000J0D01*
G01*
D12*
X129915217Y-76252885D02*
X130170000Y-76600000D01*
D10*
X116164063Y-53336239D02*
G75*
G02*
X118399999Y-56600000I-1264063J-3263761D01*
G01*
D11*
%TO.N,Net-(J10-Pin_4)*%
X152320925Y-56635459D02*
G75*
G02*
X149868951Y-59824697I-3300025J-41D01*
G01*
%TO.N,Net-(J10-Pin_1)*%
X130454317Y-53002576D02*
G75*
G02*
X133552115Y-53013441I1545683J-922424D01*
G01*
D12*
X115172317Y-71381687D02*
G75*
G02*
X116910000Y-73500000I-422317J-2118313D01*
G01*
D11*
X133095816Y-60146672D02*
G75*
G02*
X130733052Y-59871211I-1095816J871672D01*
G01*
%TO.N,Net-(J10-Pin_4)*%
X148074783Y-59587545D02*
G75*
G02*
X145920947Y-56635459I946117J2952045D01*
G01*
%TO.N,Net-(J10-Pin_1)*%
X128700000Y-56600000D02*
G75*
G02*
X130881453Y-53495350I3300000J0D01*
G01*
X130600173Y-53150095D02*
G75*
G02*
X133399827Y-53150095I1399827J-774905D01*
G01*
X135700000Y-56600000D02*
G75*
G02*
X133092244Y-60135110I-3700000J0D01*
G01*
D10*
X111800000Y-56600000D02*
G75*
G02*
X113953857Y-53647914I3100000J0D01*
G01*
D12*
X113505040Y-70697919D02*
G75*
G02*
X115992892Y-70693014I1244960J-522081D01*
G01*
D11*
X131053858Y-59552087D02*
G75*
G02*
X128900000Y-56600000I946142J2952087D01*
G01*
D10*
X113633052Y-53328789D02*
G75*
G02*
X116166948Y-53328789I1266948J-596211D01*
G01*
X149983619Y-70489066D02*
G75*
G02*
X149986628Y-76409699I-1213619J-2960934D01*
G01*
D12*
X112915217Y-76302884D02*
G75*
G02*
X113271882Y-70493714I1834783J2802884D01*
G01*
D11*
%TO.N,Net-(J10-Pin_4)*%
X149420924Y-59310459D02*
G75*
G02*
X148663129Y-59131561I-400024J-41D01*
G01*
%TO.N,Net-(J10-Pin_1)*%
X131025000Y-53225000D02*
G75*
G02*
X133110897Y-53470542I975000J-700000D01*
G01*
D10*
X118200000Y-56600000D02*
G75*
G02*
X115748011Y-59789181I-3300000J0D01*
G01*
D11*
%TO.N,Net-(J10-Pin_4)*%
X148663154Y-54139344D02*
G75*
G02*
X148620941Y-53960459I357746J178844D01*
G01*
D12*
X130962886Y-75780674D02*
G75*
G02*
X131004575Y-71105660I787114J2330674D01*
G01*
D11*
%TO.N,Net-(J10-Pin_1)*%
X128300000Y-56600000D02*
G75*
G02*
X130608852Y-53171486I3700000J0D01*
G01*
D10*
X113953858Y-59552087D02*
G75*
G02*
X111800000Y-56600000I946142J2952087D01*
G01*
X111200000Y-56600000D02*
G75*
G02*
X113508852Y-53171486I3700000J0D01*
G01*
D11*
%TO.N,Net-(J10-Pin_4)*%
X148620926Y-53960459D02*
G75*
G02*
X149378669Y-54139331I399974J-41D01*
G01*
%TO.N,Net-(J10-Pin_1)*%
X131645297Y-59074708D02*
G75*
G02*
X129500001Y-56600000I354703J2474708D01*
G01*
D12*
X134210000Y-73450000D02*
G75*
G02*
X132182774Y-75871633I-2460000J0D01*
G01*
D11*
X133214809Y-60316265D02*
G75*
G02*
X130600173Y-60049905I-1214809J1041265D01*
G01*
X130735937Y-59863761D02*
G75*
G02*
X128500001Y-56600000I1264063J3263761D01*
G01*
%TO.N,Net-(J10-Pin_4)*%
X150235734Y-60351724D02*
G75*
G02*
X147621068Y-60085380I-1214834J1041224D01*
G01*
D10*
X145970000Y-73450000D02*
G75*
G02*
X148112358Y-70728326I2800000J0D01*
G01*
X114114576Y-53772982D02*
G75*
G02*
X115685424Y-53772982I785424J-152018D01*
G01*
D11*
%TO.N,Net-(J10-Pin_1)*%
X133214809Y-60316265D02*
G75*
G02*
X130600173Y-60049905I-1214809J1041265D01*
G01*
%TO.N,Net-(J10-Pin_4)*%
X148067047Y-53659234D02*
G75*
G02*
X149974803Y-53659234I953878J-301225D01*
G01*
X147315873Y-60142994D02*
X147470925Y-60660459D01*
D10*
X113194948Y-60107535D02*
G75*
G02*
X111000000Y-56600000I1705052J3507535D01*
G01*
D11*
%TO.N,Net-(J10-Pin_1)*%
X131279560Y-53577201D02*
G75*
G02*
X132785423Y-53772982I720440J-347799D01*
G01*
D10*
X113946122Y-53623775D02*
G75*
G02*
X115853878Y-53623775I953878J-301225D01*
G01*
X115995816Y-60146672D02*
G75*
G02*
X113633052Y-59871211I-1095816J871672D01*
G01*
D11*
%TO.N,Net-(J10-Pin_4)*%
X149420925Y-59310459D02*
G75*
G02*
X148663128Y-59131561I-400025J-41D01*
G01*
D10*
X149531749Y-70964092D02*
G75*
G02*
X149534141Y-75935174I-761749J-2485908D01*
G01*
D11*
%TO.N,Net-(J10-Pin_1)*%
X131214576Y-53772982D02*
G75*
G02*
X132785424Y-53772982I785424J-152018D01*
G01*
D10*
X113635937Y-59863761D02*
G75*
G02*
X111400001Y-56600000I1264063J3263761D01*
G01*
D11*
X135500000Y-56600000D02*
G75*
G02*
X132971389Y-59962500I-3500000J0D01*
G01*
D10*
X114179560Y-53577201D02*
G75*
G02*
X115685423Y-53772982I720440J-347799D01*
G01*
X115846143Y-53647915D02*
G75*
G02*
X117999999Y-56600000I-946143J-2952085D01*
G01*
D11*
%TO.N,Net-(J10-Pin_4)*%
X152120925Y-56635459D02*
G75*
G02*
X149739649Y-59651052I-3100025J-41D01*
G01*
X147756862Y-59899221D02*
G75*
G02*
X145520948Y-56635459I1264038J3263721D01*
G01*
%TO.N,Net-(J10-Pin_1)*%
X133548938Y-53020783D02*
G75*
G02*
X135900000Y-56600000I-1548938J-3579217D01*
G01*
D10*
X145370000Y-73450000D02*
G75*
G02*
X147781887Y-70196750I3400000J0D01*
G01*
D11*
X130896055Y-59709871D02*
G75*
G02*
X128700001Y-56600000I1103945J3109871D01*
G01*
%TO.N,Net-(J10-Pin_4)*%
X150412073Y-53206945D02*
G75*
G02*
X152720947Y-56635459I-1391173J-3428555D01*
G01*
X147806117Y-52919194D02*
G75*
G02*
X150420722Y-53185571I1214783J-1041306D01*
G01*
D10*
X148175468Y-75775195D02*
G75*
G02*
X146370000Y-73450000I594532J2325195D01*
G01*
X115299999Y-59275000D02*
G75*
G02*
X114542230Y-59096115I-399999J0D01*
G01*
D11*
X148620926Y-53960459D02*
G75*
G02*
X149378669Y-54139331I399974J-41D01*
G01*
%TO.N,Net-(J10-Pin_1)*%
X130735937Y-59863761D02*
G75*
G02*
X128500001Y-56600000I1264063J3263761D01*
G01*
D10*
X118800000Y-56600000D02*
G75*
G02*
X116111770Y-60306968I-3900000J0D01*
G01*
D11*
X133095816Y-60146672D02*
G75*
G02*
X130733052Y-59871211I-1095816J871672D01*
G01*
D10*
X147777568Y-70182530D02*
G75*
G02*
X149987682Y-70479153I992432J-987470D01*
G01*
X112000000Y-56600000D02*
G75*
G02*
X114123703Y-53805834I2900000J0D01*
G01*
D12*
X115742565Y-70924652D02*
G75*
G02*
X117510000Y-73500000I-992565J-2575348D01*
G01*
D11*
X130904184Y-53053328D02*
G75*
G02*
X133266948Y-53328789I1095816J-871672D01*
G01*
D10*
X116164063Y-53336239D02*
G75*
G02*
X118399999Y-56600000I-1264063J-3263761D01*
G01*
D11*
%TO.N,Net-(J10-Pin_4)*%
X145120925Y-56635459D02*
G75*
G02*
X147481354Y-53052261I3899975J-41D01*
G01*
D10*
X146170000Y-73450000D02*
G75*
G02*
X148252206Y-70902081I2600000J0D01*
G01*
D11*
%TO.N,Net-(J10-Pin_1)*%
X130896055Y-59709871D02*
G75*
G02*
X128700001Y-56600000I1103945J3109871D01*
G01*
D10*
X114542230Y-54103885D02*
G75*
G02*
X114500001Y-53925000I357770J178885D01*
G01*
D11*
%TO.N,Net-(J10-Pin_4)*%
X148430000Y-59270000D02*
G75*
G02*
X146320946Y-56635459I590900J2634500D01*
G01*
D10*
X114048938Y-53399344D02*
G75*
G02*
X115853878Y-53623775I851062J-525656D01*
G01*
X113508853Y-60028513D02*
G75*
G02*
X111200001Y-56600000I1391147J3428513D01*
G01*
X113685191Y-52883735D02*
G75*
G02*
X116299827Y-53150095I1214809J-1041265D01*
G01*
D11*
%TO.N,Net-(J10-Pin_1)*%
X128900000Y-56600000D02*
G75*
G02*
X131053857Y-53647914I3100000J0D01*
G01*
D10*
X114500001Y-53925000D02*
G75*
G02*
X115257770Y-54103885I399999J0D01*
G01*
D12*
X133218602Y-70439054D02*
G75*
G02*
X135100013Y-73450000I-1468602J-3010946D01*
G01*
X130707706Y-76005626D02*
G75*
G02*
X130743357Y-70880123I1042294J2555626D01*
G01*
X134810000Y-73450000D02*
G75*
G02*
X132603750Y-76388488I-3060000J0D01*
G01*
D11*
%TO.N,Net-(J10-Pin_4)*%
X146120925Y-56635459D02*
G75*
G02*
X148244644Y-53841349I2899975J-41D01*
G01*
%TO.N,Net-(J10-Pin_1)*%
X130294948Y-60107535D02*
G75*
G02*
X128100000Y-56600000I1705052J3507535D01*
G01*
D10*
X112000000Y-56600000D02*
G75*
G02*
X114123703Y-53805834I2900000J0D01*
G01*
D11*
%TO.N,Net-(J10-Pin_4)*%
X152120925Y-56635459D02*
G75*
G02*
X149739649Y-59651052I-3100025J-41D01*
G01*
X150284988Y-53371698D02*
G75*
G02*
X152520946Y-56635459I-1264088J-3263802D01*
G01*
D10*
X114114576Y-53772982D02*
G75*
G02*
X115685424Y-53772982I785424J-152018D01*
G01*
D11*
%TO.N,Net-(J10-Pin_1)*%
X128500000Y-56600000D02*
G75*
G02*
X130735937Y-53336238I3500000J0D01*
G01*
%TO.N,Net-(J10-Pin_4)*%
X148045926Y-53260460D02*
G75*
G02*
X150131789Y-53506015I974974J-700040D01*
G01*
%TO.N,Net-(J10-Pin_1)*%
X132399999Y-59275000D02*
G75*
G02*
X131642230Y-59096115I-399999J0D01*
G01*
%TO.N,Net-(J10-Pin_4)*%
X146320925Y-56635459D02*
G75*
G02*
X148430013Y-54000976I2699975J-41D01*
G01*
D10*
X118000000Y-56600000D02*
G75*
G02*
X115618710Y-59615536I-3100000J0D01*
G01*
X115751062Y-59800656D02*
G75*
G02*
X113946122Y-59576225I-851062J525656D01*
G01*
D12*
X135100014Y-73450000D02*
G75*
G02*
X132776033Y-76639020I-3350014J0D01*
G01*
D10*
X150099999Y-76600000D02*
G75*
G02*
X147428220Y-76581902I-1329999J878600D01*
G01*
X115875000Y-59975000D02*
G75*
G02*
X113789103Y-59729458I-975000J700000D01*
G01*
D11*
X145320925Y-56635459D02*
G75*
G02*
X147629797Y-53206995I3699975J-41D01*
G01*
D12*
X132172317Y-71331687D02*
G75*
G02*
X133910000Y-73450000I-422317J-2118313D01*
G01*
D10*
X113354317Y-53002576D02*
G75*
G02*
X116452115Y-53013441I1545683J-922424D01*
G01*
D11*
%TO.N,Net-(J10-Pin_1)*%
X135300000Y-56600000D02*
G75*
G02*
X132848011Y-59789181I-3300000J0D01*
G01*
%TO.N,Net-(J10-Pin_4)*%
X149420924Y-59310459D02*
G75*
G02*
X148663129Y-59131561I-400024J-41D01*
G01*
D10*
X147845909Y-76093115D02*
G75*
G02*
X145970000Y-73450000I924091J2643115D01*
G01*
D11*
%TO.N,Net-(J10-Pin_1)*%
X132354702Y-54125292D02*
G75*
G02*
X132000000Y-59099999I-354702J-2474708D01*
G01*
D12*
X113962886Y-75830674D02*
G75*
G02*
X114004575Y-71155660I787114J2330674D01*
G01*
D11*
%TO.N,Net-(J10-Pin_4)*%
X147753977Y-53364248D02*
G75*
G02*
X150287873Y-53364248I1266948J-596211D01*
G01*
X152720925Y-56635459D02*
G75*
G02*
X150113186Y-60170623I-3700025J-41D01*
G01*
D10*
X114542230Y-54103885D02*
G75*
G02*
X114500001Y-53925000I357770J178885D01*
G01*
D11*
%TO.N,Net-(J10-Pin_1)*%
X128100000Y-56600000D02*
G75*
G02*
X130460408Y-53016753I3900000J0D01*
G01*
%TO.N,Net-(J10-Pin_4)*%
X149741366Y-59658258D02*
G75*
G02*
X148235466Y-59462484I-720466J347758D01*
G01*
D10*
X113946122Y-53623775D02*
G75*
G02*
X115853878Y-53623775I953878J-301225D01*
G01*
D11*
X147753977Y-53364248D02*
G75*
G02*
X150287873Y-53364248I1266948J-596211D01*
G01*
D10*
X113804184Y-53053328D02*
G75*
G02*
X116166948Y-53328789I1095816J-871672D01*
G01*
X113635937Y-59863761D02*
G75*
G02*
X111400001Y-56600000I1264063J3263761D01*
G01*
D11*
%TO.N,Net-(J10-Pin_1)*%
X131025000Y-53225000D02*
G75*
G02*
X133110897Y-53470542I975000J-700000D01*
G01*
%TO.N,Net-(J10-Pin_4)*%
X148169864Y-53434803D02*
G75*
G02*
X149974769Y-53659245I851036J-525697D01*
G01*
D10*
X115491963Y-53960834D02*
G75*
G02*
X115300000Y-59274999I-591963J-2639166D01*
G01*
X149845269Y-76254164D02*
G75*
G02*
X147696071Y-76256860I-1075269J532764D01*
G01*
D11*
%TO.N,Net-(J10-Pin_1)*%
X130904184Y-53053328D02*
G75*
G02*
X133266948Y-53328789I1095816J-871672D01*
G01*
D10*
X116291148Y-53171486D02*
G75*
G02*
X118600000Y-56600000I-1391148J-3428514D01*
G01*
D11*
%TO.N,Net-(J10-Pin_4)*%
X149594928Y-59485156D02*
G75*
G02*
X148420889Y-59310459I-574028J174656D01*
G01*
%TO.N,Net-(J10-Pin_1)*%
X132946143Y-53647915D02*
G75*
G02*
X135099999Y-56600000I-946143J-2952085D01*
G01*
D12*
X130475385Y-76231897D02*
G75*
G02*
X130507557Y-70653586I1274615J2781897D01*
G01*
X116910000Y-73500000D02*
G75*
G02*
X114750000Y-75660000I-2160000J0D01*
G01*
D10*
X114325997Y-53750303D02*
G75*
G02*
X115499999Y-53925000I574003J-174697D01*
G01*
D11*
X131400000Y-53925000D02*
G75*
G02*
X132600000Y-53925000I600000J0D01*
G01*
X129500000Y-56600000D02*
G75*
G02*
X131645297Y-54125291I2500000J0D01*
G01*
D10*
X113953858Y-59552087D02*
G75*
G02*
X111800000Y-56600000I946142J2952087D01*
G01*
D11*
%TO.N,Net-(J10-Pin_4)*%
X145520925Y-56635459D02*
G75*
G02*
X147756881Y-53371747I3499975J-41D01*
G01*
X152320925Y-56635459D02*
G75*
G02*
X149868951Y-59824697I-3300025J-41D01*
G01*
X150124870Y-53525588D02*
G75*
G02*
X152320946Y-56635459I-1103970J-3109912D01*
G01*
D10*
X115620440Y-59622799D02*
G75*
G02*
X114114577Y-59427018I-720440J347799D01*
G01*
X113780401Y-53492427D02*
G75*
G02*
X116010896Y-53470542I1119599J-432573D01*
G01*
D11*
%TO.N,Net-(J10-Pin_1)*%
X131642230Y-54103885D02*
G75*
G02*
X131600001Y-53925000I357770J178885D01*
G01*
D12*
X115186488Y-75942414D02*
G75*
G02*
X114300000Y-75660000I-436488J162414D01*
G01*
D10*
X111800000Y-56600000D02*
G75*
G02*
X113953857Y-53647914I3100000J0D01*
G01*
D11*
%TO.N,Net-(J10-Pin_4)*%
X148235501Y-53808441D02*
G75*
G02*
X149806349Y-53808441I785424J-152018D01*
G01*
%TO.N,Net-(J10-Pin_1)*%
X133103945Y-53490129D02*
G75*
G02*
X135299999Y-56600000I-1103945J-3109871D01*
G01*
D10*
X111200000Y-56600000D02*
G75*
G02*
X113508852Y-53171486I3700000J0D01*
G01*
D11*
X128100000Y-56600000D02*
G75*
G02*
X130460408Y-53016753I3900000J0D01*
G01*
D10*
X118600000Y-56600000D02*
G75*
G02*
X115992244Y-60135110I-3700000J0D01*
G01*
D12*
X131330137Y-71332220D02*
G75*
G02*
X132174995Y-71318254I419863J162220D01*
G01*
D10*
X112200000Y-56600000D02*
G75*
G02*
X114309075Y-53965459I2700000J0D01*
G01*
D11*
%TO.N,Net-(J10-Pin_4)*%
X148420925Y-53960459D02*
G75*
G02*
X149620925Y-53960459I600000J0D01*
G01*
%TO.N,Net-(J10-Pin_1)*%
X130785191Y-52883735D02*
G75*
G02*
X133399827Y-53150095I1214809J-1041265D01*
G01*
%TO.N,Net-(J10-Pin_4)*%
X148074783Y-59587545D02*
G75*
G02*
X145920947Y-56635459I946117J2952045D01*
G01*
X148244628Y-59429624D02*
G75*
G02*
X146120947Y-56635459I776272J2794124D01*
G01*
X147315873Y-60142993D02*
G75*
G02*
X145120948Y-56635459I1705027J3507493D01*
G01*
X148420925Y-53960459D02*
G75*
G02*
X149620925Y-53960459I600000J0D01*
G01*
%TO.N,Net-(J10-Pin_1)*%
X131279560Y-53577201D02*
G75*
G02*
X132785423Y-53772982I720440J-347799D01*
G01*
D12*
X116218602Y-70489054D02*
G75*
G02*
X118100013Y-73500000I-1468602J-3010946D01*
G01*
D11*
%TO.N,Net-(J10-Pin_4)*%
X145320925Y-56635459D02*
G75*
G02*
X147629797Y-53206995I3699975J-41D01*
G01*
D10*
X116003945Y-53490129D02*
G75*
G02*
X118199999Y-56600000I-1103945J-3109871D01*
G01*
X115875000Y-59975000D02*
G75*
G02*
X113789103Y-59729458I-975000J700000D01*
G01*
D11*
%TO.N,Net-(J10-Pin_1)*%
X133391148Y-53171486D02*
G75*
G02*
X135700000Y-56600000I-1391148J-3428514D01*
G01*
X135500000Y-56600000D02*
G75*
G02*
X132971389Y-59962500I-3500000J0D01*
G01*
D10*
X112200000Y-56600000D02*
G75*
G02*
X114309075Y-53965459I2700000J0D01*
G01*
D11*
X131046122Y-53623775D02*
G75*
G02*
X132953878Y-53623775I953878J-301225D01*
G01*
X135900000Y-56600000D02*
G75*
G02*
X133211770Y-60306968I-3900000J0D01*
G01*
D10*
X113925000Y-53225000D02*
G75*
G02*
X116010897Y-53470542I975000J-700000D01*
G01*
D11*
%TO.N,Net-(J10-Pin_4)*%
X147629778Y-60063973D02*
G75*
G02*
X145320948Y-56635459I1391122J3428473D01*
G01*
X150116741Y-60182131D02*
G75*
G02*
X147753946Y-59906684I-1095841J871631D01*
G01*
%TO.N,Net-(J10-Pin_1)*%
X132399999Y-59275000D02*
G75*
G02*
X131642230Y-59096115I-399999J0D01*
G01*
D12*
X132186488Y-75892414D02*
G75*
G02*
X131300000Y-75610000I-436488J162414D01*
G01*
X132988906Y-70652017D02*
G75*
G02*
X134809999Y-73450000I-1238906J-2797983D01*
G01*
D11*
X128900000Y-56600000D02*
G75*
G02*
X131053857Y-53647914I3100000J0D01*
G01*
X132574003Y-59449697D02*
G75*
G02*
X131400001Y-59275000I-574003J174697D01*
G01*
%TO.N,Net-(J10-Pin_4)*%
X148446922Y-53785762D02*
G75*
G02*
X149620887Y-53960459I573978J-174738D01*
G01*
X149375627Y-54160750D02*
G75*
G02*
X149020925Y-59135461I-354707J-2474710D01*
G01*
%TO.N,Net-(J10-Pin_1)*%
X132574003Y-59449697D02*
G75*
G02*
X131400001Y-59275000I-574003J174697D01*
G01*
D10*
X113194948Y-60107535D02*
X113350000Y-60625000D01*
D11*
%TO.N,Net-(J10-Pin_4)*%
X150569863Y-53056243D02*
G75*
G02*
X152920947Y-56635459I-1548963J-3579257D01*
G01*
X145920925Y-56635459D02*
G75*
G02*
X148074799Y-53683426I3099975J-41D01*
G01*
D10*
X116114809Y-60316265D02*
G75*
G02*
X113500173Y-60049905I-1214809J1041265D01*
G01*
X145570000Y-73450000D02*
G75*
G02*
X147886565Y-70374363I3200000J0D01*
G01*
D11*
%TO.N,Net-(J10-Pin_1)*%
X133391148Y-53171486D02*
G75*
G02*
X135700000Y-56600000I-1391148J-3428514D01*
G01*
X128500000Y-56600000D02*
G75*
G02*
X130735937Y-53336238I3500000J0D01*
G01*
X129500000Y-56600000D02*
G75*
G02*
X131645297Y-54125291I2500000J0D01*
G01*
X135100000Y-56600000D02*
G75*
G02*
X132718710Y-59615536I-3100000J0D01*
G01*
D10*
X115300000Y-59275000D02*
G75*
G02*
X114542229Y-59096115I-400000J0D01*
G01*
X149987683Y-76412265D02*
G75*
G02*
X147777570Y-76708885I-1217683J690865D01*
G01*
D12*
X130505040Y-70647919D02*
G75*
G02*
X132992892Y-70643014I1244960J-522081D01*
G01*
D10*
X149537652Y-75946596D02*
G75*
G02*
X147998798Y-75934122I-767652J225196D01*
G01*
D12*
X113270163Y-70490217D02*
G75*
G02*
X116223873Y-70478247I1479837J-729783D01*
G01*
D10*
X148383754Y-75615829D02*
G75*
G02*
X146570000Y-73450000I386246J2165829D01*
G01*
X113500173Y-53150095D02*
G75*
G02*
X116299827Y-53150095I1399827J-774905D01*
G01*
D11*
%TO.N,Net-(J10-Pin_4)*%
X150116741Y-60182131D02*
G75*
G02*
X147753946Y-59906684I-1095841J871631D01*
G01*
D12*
X132424557Y-76138762D02*
G75*
G02*
X130962888Y-75780676I-674557J408762D01*
G01*
D10*
X115491963Y-53960834D02*
G75*
G02*
X115300000Y-59274999I-591963J-2639166D01*
G01*
D11*
%TO.N,Net-(J10-Pin_1)*%
X131645297Y-59074708D02*
G75*
G02*
X129500001Y-56600000I354703J2474708D01*
G01*
X129300000Y-56600000D02*
G75*
G02*
X131409075Y-53965459I2700000J0D01*
G01*
D10*
X118000000Y-56600000D02*
G75*
G02*
X115618710Y-59615536I-3100000J0D01*
G01*
D11*
%TO.N,Net-(J10-Pin_4)*%
X149741366Y-59658258D02*
G75*
G02*
X148235466Y-59462484I-720466J347758D01*
G01*
%TO.N,Net-(J10-Pin_1)*%
X131600000Y-53925000D02*
G75*
G02*
X132357771Y-54103885I400000J0D01*
G01*
X131214576Y-53772982D02*
G75*
G02*
X132785424Y-53772982I785424J-152018D01*
G01*
D10*
X147563073Y-76413668D02*
G75*
G02*
X145570000Y-73450000I1206927J2963668D01*
G01*
D11*
X130608853Y-60028513D02*
G75*
G02*
X128300001Y-56600000I1391147J3428513D01*
G01*
D10*
X111000000Y-56600000D02*
G75*
G02*
X113360408Y-53016753I3900000J0D01*
G01*
D11*
X129100000Y-56600000D02*
G75*
G02*
X131223703Y-53805834I2900000J0D01*
G01*
%TO.N,Net-(J10-Pin_4)*%
X149871987Y-59836115D02*
G75*
G02*
X148067012Y-59611695I-851087J525615D01*
G01*
X149995924Y-60010459D02*
G75*
G02*
X147909996Y-59764930I-975024J699959D01*
G01*
D10*
X111600000Y-56600000D02*
G75*
G02*
X113781453Y-53495350I3300000J0D01*
G01*
D11*
%TO.N,Net-(J10-Pin_1)*%
X132591963Y-53960834D02*
G75*
G02*
X132400000Y-59274999I-591963J-2639166D01*
G01*
%TO.N,Net-(J10-Pin_4)*%
X148666222Y-59110167D02*
G75*
G02*
X146520945Y-56635459I354678J2474667D01*
G01*
D10*
X149987683Y-76412265D02*
G75*
G02*
X147558942Y-76423813I-1217683J690865D01*
G01*
X114123703Y-59394166D02*
G75*
G02*
X112000000Y-56600000I776297J2794166D01*
G01*
X114048938Y-53399344D02*
G75*
G02*
X115853878Y-53623775I851062J-525656D01*
G01*
D11*
%TO.N,Net-(J10-Pin_1)*%
X132400000Y-59275000D02*
G75*
G02*
X131642229Y-59096115I-400000J0D01*
G01*
%TO.N,Net-(J10-Pin_4)*%
X148620925Y-53960459D02*
G75*
G02*
X149378670Y-54139331I399975J-41D01*
G01*
D12*
X112915217Y-76302885D02*
X113170000Y-76650000D01*
X132490545Y-71104111D02*
G75*
G02*
X134210000Y-73450000I-740545J-2345889D01*
G01*
D11*
%TO.N,Net-(J10-Pin_1)*%
X131425997Y-53750303D02*
G75*
G02*
X132599999Y-53925000I574003J-174697D01*
G01*
D10*
X116114809Y-60316265D02*
G75*
G02*
X113500173Y-60049905I-1214809J1041265D01*
G01*
D11*
X135100000Y-56600000D02*
G75*
G02*
X132718710Y-59615536I-3100000J0D01*
G01*
X128300000Y-56600000D02*
G75*
G02*
X130608852Y-53171486I3700000J0D01*
G01*
D10*
X116003945Y-53490129D02*
G75*
G02*
X118199999Y-56600000I-1103945J-3109871D01*
G01*
X114325997Y-53750303D02*
G75*
G02*
X115499999Y-53925000I574003J-174697D01*
G01*
X150360818Y-70445122D02*
G75*
G02*
X152169999Y-73450000I-1590818J-3004878D01*
G01*
X147697962Y-76251915D02*
G75*
G02*
X145770001Y-73450000I1072038J2801915D01*
G01*
X114545297Y-59074708D02*
G75*
G02*
X112400001Y-56600000I354703J2474708D01*
G01*
D11*
%TO.N,Net-(J10-Pin_4)*%
X149967068Y-53683373D02*
G75*
G02*
X152120946Y-56635459I-946168J-2952127D01*
G01*
%TO.N,Net-(J10-Pin_1)*%
X132400000Y-59275000D02*
G75*
G02*
X131642229Y-59096115I-400000J0D01*
G01*
D10*
X114500000Y-53925000D02*
G75*
G02*
X115257771Y-54103885I400000J0D01*
G01*
D12*
X114309459Y-75614598D02*
G75*
G02*
X114329942Y-71381238I440541J2114598D01*
G01*
D11*
%TO.N,Net-(J10-Pin_4)*%
X152920925Y-56635459D02*
G75*
G02*
X150232713Y-60342481I-3900025J-41D01*
G01*
D10*
X113804184Y-53053328D02*
G75*
G02*
X116166948Y-53328789I1095816J-871672D01*
G01*
D11*
%TO.N,Net-(J10-Pin_1)*%
X133264063Y-53336239D02*
G75*
G02*
X135499999Y-56600000I-1264063J-3263761D01*
G01*
X131148938Y-53399344D02*
G75*
G02*
X132953878Y-53623775I851062J-525656D01*
G01*
X131409075Y-59234540D02*
G75*
G02*
X129300001Y-56600000I590925J2634540D01*
G01*
%TO.N,Net-(J10-Pin_4)*%
X152520925Y-56635459D02*
G75*
G02*
X149992330Y-59998014I-3500025J-41D01*
G01*
D10*
X115474003Y-59449697D02*
G75*
G02*
X114300001Y-59275000I-574003J174697D01*
G01*
X113354317Y-53002576D02*
G75*
G02*
X116452115Y-53013441I1545683J-922424D01*
G01*
D12*
X114330137Y-71382220D02*
G75*
G02*
X115174995Y-71368254I419863J162220D01*
G01*
D11*
%TO.N,Net-(J10-Pin_1)*%
X130294948Y-60107535D02*
G75*
G02*
X128100000Y-56600000I1705052J3507535D01*
G01*
%TO.N,Net-(J10-Pin_4)*%
X150284988Y-53371698D02*
G75*
G02*
X152520946Y-56635459I-1264088J-3263802D01*
G01*
%TO.N,Net-(J10-Pin_1)*%
X131046122Y-53623775D02*
G75*
G02*
X132953878Y-53623775I953878J-301225D01*
G01*
D10*
X115846143Y-53647915D02*
G75*
G02*
X117999999Y-56600000I-946143J-2952085D01*
G01*
D11*
X131053858Y-59552087D02*
G75*
G02*
X128900000Y-56600000I946142J2952087D01*
G01*
%TO.N,Net-(J10-Pin_4)*%
X147756862Y-59899221D02*
G75*
G02*
X145520948Y-56635459I1264038J3263721D01*
G01*
X145520925Y-56635459D02*
G75*
G02*
X147756881Y-53371747I3499975J-41D01*
G01*
%TO.N,Net-(J10-Pin_1)*%
X131600001Y-53925000D02*
G75*
G02*
X132357770Y-54103885I399999J0D01*
G01*
%TO.N,Net-(J10-Pin_4)*%
X149612888Y-53996293D02*
G75*
G02*
X149420925Y-59310460I-591968J-2639167D01*
G01*
X147901325Y-53527886D02*
G75*
G02*
X150131778Y-53506019I1119575J-432614D01*
G01*
%TO.N,Net-(J10-Pin_1)*%
X131425997Y-53750303D02*
G75*
G02*
X132599999Y-53925000I574003J-174697D01*
G01*
X130294948Y-60107535D02*
X130450000Y-60625000D01*
%TO.N,Net-(J10-Pin_4)*%
X147925109Y-53088787D02*
G75*
G02*
X150287842Y-53364263I1095791J-871713D01*
G01*
X146120925Y-56635459D02*
G75*
G02*
X148244644Y-53841349I2899975J-41D01*
G01*
D10*
X115474003Y-59449697D02*
G75*
G02*
X114300001Y-59275000I-574003J174697D01*
G01*
X118400000Y-56600000D02*
G75*
G02*
X115871389Y-59962500I-3500000J0D01*
G01*
X113780401Y-53492427D02*
G75*
G02*
X116010896Y-53470542I1119599J-432573D01*
G01*
X148389031Y-71048090D02*
G75*
G02*
X149162231Y-71248446I380969J-121910D01*
G01*
D12*
X117510000Y-73500000D02*
G75*
G02*
X115409983Y-76179930I-2760000J0D01*
G01*
D10*
X115254702Y-54125292D02*
G75*
G02*
X114900000Y-59099999I-354702J-2474708D01*
G01*
D11*
%TO.N,Net-(J10-Pin_1)*%
X135900000Y-56600000D02*
G75*
G02*
X133211770Y-60306968I-3900000J0D01*
G01*
%TO.N,Net-(J10-Pin_4)*%
X147806117Y-52919194D02*
G75*
G02*
X150420722Y-53185571I1214783J-1041306D01*
G01*
%TO.N,Net-(J10-Pin_1)*%
X130454317Y-53002576D02*
G75*
G02*
X133552115Y-53013441I1545683J-922424D01*
G01*
D10*
X113685191Y-52883735D02*
G75*
G02*
X116299827Y-53150095I1214809J-1041265D01*
G01*
D11*
X132975000Y-59975000D02*
G75*
G02*
X130889103Y-59729458I-975000J700000D01*
G01*
D10*
X118400000Y-56600000D02*
G75*
G02*
X115871389Y-59962500I-3500000J0D01*
G01*
D11*
%TO.N,Net-(J10-Pin_4)*%
X149375627Y-54160750D02*
G75*
G02*
X149020925Y-59135461I-354707J-2474710D01*
G01*
D10*
X118800000Y-56600000D02*
G75*
G02*
X116111770Y-60306968I-3900000J0D01*
G01*
X113925000Y-53225000D02*
G75*
G02*
X116010897Y-53470542I975000J-700000D01*
G01*
D12*
X133910000Y-73450000D02*
G75*
G02*
X131750000Y-75610000I-2160000J0D01*
G01*
D10*
X115254702Y-54125292D02*
G75*
G02*
X114900000Y-59099999I-354702J-2474708D01*
G01*
D12*
X113707706Y-76055626D02*
G75*
G02*
X113743357Y-70930123I1042294J2555626D01*
G01*
D11*
X149995924Y-60010459D02*
G75*
G02*
X147909996Y-59764930I-975024J699959D01*
G01*
X150412073Y-53206945D02*
G75*
G02*
X152720947Y-56635459I-1391173J-3428555D01*
G01*
%TO.N,Net-(J10-Pin_1)*%
X130608853Y-60028513D02*
G75*
G02*
X128300001Y-56600000I1391147J3428513D01*
G01*
D10*
X114545297Y-59074708D02*
G75*
G02*
X112400001Y-56600000I354703J2474708D01*
G01*
D11*
X131148938Y-53399344D02*
G75*
G02*
X132953878Y-53623775I851062J-525656D01*
G01*
X132354702Y-54125292D02*
G75*
G02*
X132000000Y-59099999I-354702J-2474708D01*
G01*
D10*
X118200000Y-56600000D02*
G75*
G02*
X115748011Y-59789181I-3300000J0D01*
G01*
D11*
%TO.N,Net-(J10-Pin_4)*%
X147901325Y-53527886D02*
G75*
G02*
X150131778Y-53506019I1119575J-432614D01*
G01*
X146320925Y-56635459D02*
G75*
G02*
X148430013Y-54000976I2699975J-41D01*
G01*
D10*
X149689659Y-76114136D02*
G75*
G02*
X147843931Y-76098772I-919659J392736D01*
G01*
D11*
%TO.N,Net-(J10-Pin_1)*%
X131223703Y-59394166D02*
G75*
G02*
X129100000Y-56600000I776297J2794166D01*
G01*
D12*
X117810000Y-73500000D02*
G75*
G02*
X115603750Y-76438488I-3060000J0D01*
G01*
D10*
X116291148Y-53171486D02*
G75*
G02*
X118600000Y-56600000I-1391148J-3428514D01*
G01*
X116448938Y-53020783D02*
G75*
G02*
X118800000Y-56600000I-1548938J-3579217D01*
G01*
X111400000Y-56600000D02*
G75*
G02*
X113635937Y-53336238I3500000J0D01*
G01*
X148109881Y-70718072D02*
G75*
G02*
X149537653Y-70944821I660119J-451928D01*
G01*
D11*
X130733052Y-53328789D02*
G75*
G02*
X133266948Y-53328789I1266948J-596211D01*
G01*
D10*
X114309075Y-59234540D02*
G75*
G02*
X112200001Y-56600000I590925J2634540D01*
G01*
X148246923Y-70876080D02*
G75*
G02*
X149365602Y-71097492I523077J-293920D01*
G01*
D11*
X132975000Y-59975000D02*
G75*
G02*
X130889103Y-59729458I-975000J700000D01*
G01*
%TO.N,Net-(J10-Pin_4)*%
X150569863Y-53056243D02*
G75*
G02*
X152920947Y-56635459I-1548963J-3579257D01*
G01*
%TO.N,Net-(J10-Pin_1)*%
X131400000Y-53925000D02*
G75*
G02*
X132600000Y-53925000I600000J0D01*
G01*
D10*
X114500000Y-53925000D02*
G75*
G02*
X115257771Y-54103885I400000J0D01*
G01*
D11*
%TO.N,Net-(J10-Pin_4)*%
X148430000Y-59270000D02*
G75*
G02*
X146320946Y-56635459I590900J2634500D01*
G01*
%TO.N,Net-(J10-Pin_1)*%
X131223703Y-59394166D02*
G75*
G02*
X129100000Y-56600000I776297J2794166D01*
G01*
%TD*%
D13*
%TO.N,Net-(J3-Pin_4)*%
%TO.C,J6*%
X143925000Y-46750000D03*
D14*
X146465000Y-46750000D03*
%TO.N,Net-(J11-Pin_3)*%
X149005000Y-46750000D03*
%TO.N,Net-(J5-Pin_4)*%
X151545000Y-46750000D03*
X154085000Y-46750000D03*
%TD*%
D13*
%TO.N,Net-(J10-Pin_1)*%
%TO.C,J10*%
X126925000Y-63750000D03*
D14*
X129465000Y-63750000D03*
%TO.N,Net-(J10-Pin_3)*%
X132005000Y-63750000D03*
%TO.N,Net-(J10-Pin_4)*%
X134545000Y-63750000D03*
X137085000Y-63750000D03*
%TD*%
D13*
%TO.N,Net-(J1-Pin_1)*%
%TO.C,J2*%
X109925000Y-46750000D03*
D14*
X112465000Y-46750000D03*
%TO.N,Net-(J2-Pin_3)*%
X115005000Y-46750000D03*
%TO.N,Net-(J1-Pin_4)*%
X117545000Y-46750000D03*
X120085000Y-46750000D03*
%TD*%
D13*
%TO.N,Net-(J1-Pin_4)*%
%TO.C,J3*%
X126925000Y-33000000D03*
D14*
X129465000Y-33000000D03*
%TO.N,unconnected-(J3-Pin_3-Pad3)*%
X132005000Y-33000000D03*
%TO.N,Net-(J3-Pin_4)*%
X134545000Y-33000000D03*
X137085000Y-33000000D03*
%TD*%
D13*
%TO.N,Net-(J10-Pin_4)*%
%TO.C,J12*%
X143925000Y-63750000D03*
D14*
X146465000Y-63750000D03*
%TO.N,Net-(J12-Pin_3)*%
X149005000Y-63750000D03*
%TO.N,Net-(J10-Pin_4)*%
X151545000Y-63750000D03*
X154085000Y-63750000D03*
%TD*%
D13*
%TO.N,Net-(J10-Pin_1)*%
%TO.C,J8*%
X109925000Y-63750000D03*
D14*
X112465000Y-63750000D03*
%TO.N,Net-(J13-Pin_3)*%
X115005000Y-63750000D03*
%TO.N,Net-(J10-Pin_1)*%
X117545000Y-63750000D03*
X120085000Y-63750000D03*
%TD*%
D13*
%TO.N,Net-(J11-Pin_1)*%
%TO.C,J11*%
X143925000Y-49500000D03*
D14*
X146465000Y-49500000D03*
%TO.N,Net-(J11-Pin_3)*%
X149005000Y-49500000D03*
%TO.N,Net-(J11-Pin_1)*%
X151545000Y-49500000D03*
X154085000Y-49500000D03*
%TD*%
D13*
%TO.N,Net-(J16-Pin_4)*%
%TO.C,J18*%
X143925000Y-80250000D03*
D14*
X146465000Y-80250000D03*
%TO.N,unconnected-(J18-Pin_3-Pad3)*%
X149005000Y-80250000D03*
%TO.N,Net-(J18-Pin_4)*%
X151545000Y-80250000D03*
X154085000Y-80250000D03*
%TD*%
D13*
%TO.N,Net-(J14-Pin_4)*%
%TO.C,J16*%
X126925000Y-80250000D03*
D14*
X129465000Y-80250000D03*
%TO.N,unconnected-(J16-Pin_3-Pad3)*%
X132005000Y-80250000D03*
%TO.N,Net-(J16-Pin_4)*%
X134545000Y-80250000D03*
X137085000Y-80250000D03*
%TD*%
D13*
%TO.N,Net-(J15-Pin_4)*%
%TO.C,J17*%
X143925000Y-66500000D03*
D14*
X146465000Y-66500000D03*
%TO.N,Net-(J12-Pin_3)*%
X149005000Y-66500000D03*
%TO.N,Net-(J17-Pin_4)*%
X151545000Y-66500000D03*
X154085000Y-66500000D03*
%TD*%
D13*
%TO.N,Net-(J1-Pin_4)*%
%TO.C,J4*%
X126925000Y-46750000D03*
D14*
X129465000Y-46750000D03*
%TO.N,Net-(J4-Pin_3)*%
X132005000Y-46750000D03*
%TO.N,Net-(J3-Pin_4)*%
X134545000Y-46750000D03*
X137085000Y-46750000D03*
%TD*%
D13*
%TO.N,Net-(J11-Pin_1)*%
%TO.C,J9*%
X126925000Y-49500000D03*
D14*
X129465000Y-49500000D03*
%TO.N,Net-(J4-Pin_3)*%
X132005000Y-49500000D03*
%TO.N,Net-(J11-Pin_1)*%
X134545000Y-49500000D03*
X137085000Y-49500000D03*
%TD*%
D13*
%TO.N,Net-(J11-Pin_1)*%
%TO.C,J7*%
X109925000Y-49500000D03*
D14*
X112465000Y-49500000D03*
%TO.N,Net-(J2-Pin_3)*%
X115005000Y-49500000D03*
%TO.N,Net-(J11-Pin_1)*%
X117545000Y-49500000D03*
X120085000Y-49500000D03*
%TD*%
D13*
%TO.N,Net-(J3-Pin_4)*%
%TO.C,J5*%
X143925000Y-33000000D03*
D14*
X146465000Y-33000000D03*
%TO.N,unconnected-(J5-Pin_3-Pad3)*%
X149005000Y-33000000D03*
%TO.N,Net-(J5-Pin_4)*%
X151545000Y-33000000D03*
X154085000Y-33000000D03*
%TD*%
D13*
%TO.N,Net-(J13-Pin_4)*%
%TO.C,J15*%
X126925000Y-66500000D03*
D14*
X129465000Y-66500000D03*
%TO.N,Net-(J10-Pin_3)*%
X132005000Y-66500000D03*
%TO.N,Net-(J15-Pin_4)*%
X134545000Y-66500000D03*
X137085000Y-66500000D03*
%TD*%
D13*
%TO.N,Net-(J1-Pin_1)*%
%TO.C,J1*%
X109925000Y-33000000D03*
D14*
X112465000Y-33000000D03*
%TO.N,unconnected-(J1-Pin_3-Pad3)*%
X115005000Y-33000000D03*
%TO.N,Net-(J1-Pin_4)*%
X117545000Y-33000000D03*
X120085000Y-33000000D03*
%TD*%
D13*
%TO.N,Net-(J14-Pin_1)*%
%TO.C,J14*%
X109925000Y-80250000D03*
D14*
X112465000Y-80250000D03*
%TO.N,unconnected-(J14-Pin_3-Pad3)*%
X115005000Y-80250000D03*
%TO.N,Net-(J14-Pin_4)*%
X117545000Y-80250000D03*
X120085000Y-80250000D03*
%TD*%
D13*
%TO.N,Net-(J13-Pin_1)*%
%TO.C,J13*%
X109925000Y-66500000D03*
D14*
X112465000Y-66500000D03*
%TO.N,Net-(J13-Pin_3)*%
X115005000Y-66500000D03*
%TO.N,Net-(J13-Pin_4)*%
X117545000Y-66500000D03*
X120085000Y-66500000D03*
%TD*%
D15*
%TO.N,*%
X131750000Y-71170000D03*
X131750000Y-75730000D03*
X114750000Y-71220000D03*
X148770000Y-75730000D03*
X132000000Y-59275000D03*
X114750000Y-75780000D03*
X148770000Y-71170000D03*
X149020925Y-59310459D03*
%TO.N,Net-(J1-Pin_1)*%
X108325000Y-39900000D03*
%TO.N,Net-(J1-Pin_4)*%
X121675000Y-39900000D03*
X125375000Y-39900000D03*
D16*
%TO.N,Net-(J3-Pin_4)*%
X142400000Y-42450000D03*
D15*
X138725000Y-39900000D03*
D16*
%TO.N,Net-(J5-Pin_4)*%
X155300000Y-38800000D03*
D15*
%TO.N,Net-(J10-Pin_1)*%
X114900000Y-59275000D03*
%TO.N,Net-(J11-Pin_1)*%
X149020925Y-53960459D03*
X114900000Y-53925000D03*
X132000000Y-53925000D03*
%TD*%
D17*
%TO.N,*%
X109825000Y-63750000D02*
X110200000Y-63750000D01*
D18*
%TO.N,Net-(J1-Pin_4)*%
X118850000Y-34355000D02*
X118850000Y-36825000D01*
X122125000Y-39900000D02*
X122125000Y-38854057D01*
X121124990Y-37525010D02*
X116025000Y-37525047D01*
X121120951Y-37854065D02*
X115950000Y-37875000D01*
X117545000Y-33050000D02*
X118850000Y-34355000D01*
X122475000Y-39900000D02*
X122475000Y-38875010D01*
X122125000Y-39900000D02*
X122125000Y-41274992D01*
X121675000Y-39900000D02*
X121675000Y-40925000D01*
X120085000Y-33050000D02*
X120085000Y-35590000D01*
X121125000Y-42625000D02*
X116075000Y-42625000D01*
X122825000Y-39900000D02*
X122825000Y-38875648D01*
X121124352Y-37175648D02*
X116074127Y-37177572D01*
X122475000Y-39900000D02*
X122475000Y-41274989D01*
X121125000Y-42975000D02*
X116225000Y-42974977D01*
X122825000Y-39900000D02*
X122825000Y-41275000D01*
X121124992Y-42274992D02*
X116025000Y-42274953D01*
X120675000Y-41925000D02*
X115950000Y-41925000D01*
X120085000Y-35590000D02*
X118850000Y-36825000D01*
X118850000Y-36825000D02*
X116225000Y-36825023D01*
X115150000Y-42075000D02*
G75*
G03*
X115949156Y-41922863I0J2175000D01*
G01*
X122825000Y-38875648D02*
G75*
G03*
X121124352Y-37175600I-1700000J48D01*
G01*
X121125000Y-42975000D02*
G75*
G03*
X122825000Y-41275000I0J1700000D01*
G01*
X115949156Y-37877137D02*
G75*
G03*
X115150000Y-42075000I-799156J-2022863D01*
G01*
X122475000Y-38875010D02*
G75*
G03*
X121124990Y-37525000I-1350000J10D01*
G01*
X116074127Y-37177573D02*
G75*
G03*
X115150000Y-42774999I-924127J-2722427D01*
G01*
X121125000Y-42625000D02*
G75*
G03*
X122475000Y-41274989I0J1350000D01*
G01*
X115150000Y-42775000D02*
G75*
G03*
X116074127Y-42622428I0J2875000D01*
G01*
X116022921Y-37530689D02*
G75*
G03*
X115150000Y-42425000I-872921J-2369311D01*
G01*
X121124992Y-42274992D02*
G75*
G03*
X122124992Y-41274992I8J999992D01*
G01*
X115150000Y-43155000D02*
G75*
G03*
X116224185Y-42972646I0J3255000D01*
G01*
X122125000Y-38854057D02*
G75*
G03*
X121120951Y-37854108I-1000000J-43D01*
G01*
X115150000Y-42425000D02*
G75*
G03*
X116022921Y-42269311I0J2525000D01*
G01*
X116224185Y-36827354D02*
G75*
G03*
X115150000Y-43155000I-1074185J-3072646D01*
G01*
X120675000Y-41925000D02*
G75*
G03*
X121675000Y-40925000I0J1000000D01*
G01*
%TO.N,Net-(J3-Pin_4)*%
X139525000Y-39900000D02*
X139525000Y-41274989D01*
X137135000Y-35590000D02*
X135900000Y-36825000D01*
X135900000Y-34355000D02*
X135900000Y-36825000D01*
X139875000Y-39900000D02*
X139875000Y-38875648D01*
X138725000Y-39900000D02*
X138725000Y-40925000D01*
X137135000Y-33050000D02*
X137135000Y-35590000D01*
X139175000Y-39900000D02*
X139175000Y-38854057D01*
X134595000Y-33050000D02*
X135900000Y-34355000D01*
X139875000Y-39900000D02*
X139875000Y-41275000D01*
X138174990Y-37525010D02*
X133075000Y-37525047D01*
X137725000Y-41925000D02*
X133000000Y-41925000D01*
X138174352Y-37175648D02*
X133124127Y-37177572D01*
X135900000Y-36825000D02*
X133275000Y-36825023D01*
X138174992Y-42274992D02*
X133075000Y-42274953D01*
X138170951Y-37854065D02*
X133000000Y-37875000D01*
X138175000Y-42625000D02*
X133125000Y-42625000D01*
X139175000Y-39900000D02*
X139175000Y-41274992D01*
X139525000Y-39900000D02*
X139525000Y-38875010D01*
X138175000Y-42975000D02*
X133275000Y-42974977D01*
X132200000Y-42075000D02*
G75*
G03*
X132999156Y-41922863I0J2175000D01*
G01*
X139875000Y-38875648D02*
G75*
G03*
X138174352Y-37175600I-1700000J48D01*
G01*
X132200000Y-42775000D02*
G75*
G03*
X133124127Y-42622428I0J2875000D01*
G01*
X138174992Y-42274992D02*
G75*
G03*
X139174992Y-41274992I8J999992D01*
G01*
X137725000Y-41925000D02*
G75*
G03*
X138725000Y-40925000I0J1000000D01*
G01*
X139525000Y-38875010D02*
G75*
G03*
X138174990Y-37525000I-1350000J10D01*
G01*
X133274185Y-36827354D02*
G75*
G03*
X132200000Y-43155000I-1074185J-3072646D01*
G01*
X138175000Y-42625000D02*
G75*
G03*
X139525000Y-41274989I0J1350000D01*
G01*
X139175000Y-38854057D02*
G75*
G03*
X138170951Y-37854108I-1000000J-43D01*
G01*
X138175000Y-42975000D02*
G75*
G03*
X139875000Y-41275000I0J1700000D01*
G01*
X132200000Y-43155000D02*
G75*
G03*
X133274185Y-42972646I0J3255000D01*
G01*
X133072921Y-37530689D02*
G75*
G03*
X132200000Y-42425000I-872921J-2369311D01*
G01*
X132200000Y-42425000D02*
G75*
G03*
X133072921Y-42269311I0J2525000D01*
G01*
X132999156Y-37877137D02*
G75*
G03*
X132200000Y-42075000I-799156J-2022863D01*
G01*
X133124127Y-37177573D02*
G75*
G03*
X132200000Y-42774999I-924127J-2722427D01*
G01*
D19*
%TO.N,Net-(J5-Pin_4)*%
X154075000Y-33050000D02*
X154075000Y-36225000D01*
D18*
X152650000Y-34165000D02*
X152650000Y-37050000D01*
X151535000Y-33050000D02*
X152650000Y-34165000D01*
D19*
X151650000Y-42450000D02*
X155300000Y-38800000D01*
X152950000Y-37350000D02*
X150050000Y-37350000D01*
D18*
X152650000Y-37050000D02*
X152950000Y-37350000D01*
D19*
X154075000Y-36225000D02*
X152950000Y-37350000D01*
X150050000Y-42450000D02*
X151650000Y-42450000D01*
X150050000Y-37350000D02*
G75*
G03*
X150050000Y-42450000I-1050000J-2550000D01*
G01*
D17*
%TO.N,Net-(J10-Pin_1)*%
X110200000Y-63750000D02*
X113350000Y-60600000D01*
X126925000Y-63750000D02*
X127300000Y-63750000D01*
X127300000Y-63750000D02*
X130450000Y-60600000D01*
X130450000Y-62765000D02*
X130450000Y-60600000D01*
X129465000Y-63750000D02*
X130450000Y-62765000D01*
X112365000Y-63750000D02*
X113350000Y-62765000D01*
X113350000Y-62765000D02*
X113350000Y-60600000D01*
%TO.N,Net-(J11-Pin_1)*%
X154095925Y-49485459D02*
X153720925Y-49485459D01*
%TO.N,Net-(J14-Pin_1)*%
X113170000Y-79570000D02*
X113170000Y-76680000D01*
X109925000Y-80300000D02*
X109925000Y-79925000D01*
X112465000Y-80300000D02*
X112465000Y-80275000D01*
X112465000Y-80275000D02*
X113170000Y-79570000D01*
X109925000Y-79925000D02*
X113170000Y-76680000D01*
%TO.N,Net-(J10-Pin_4)*%
X144320925Y-63785459D02*
X147470925Y-60635459D01*
X146485925Y-63785459D02*
X147470925Y-62800459D01*
X147470925Y-62800459D02*
X147470925Y-60635459D01*
X143945925Y-63785459D02*
X144320925Y-63785459D01*
%TO.N,Net-(J14-Pin_4)*%
X129465000Y-80225000D02*
X130170000Y-79520000D01*
X129465000Y-80250000D02*
X129465000Y-80225000D01*
X130170000Y-79520000D02*
X130170000Y-76630000D01*
X126925000Y-79875000D02*
X130170000Y-76630000D01*
X126925000Y-80250000D02*
X126925000Y-79875000D01*
%TO.N,Net-(J17-Pin_4)*%
X154105000Y-66500000D02*
X150475000Y-70130000D01*
X151565000Y-66500000D02*
X150270000Y-67795000D01*
X150475000Y-70130000D02*
X150270000Y-70130000D01*
X150270000Y-67795000D02*
X150270000Y-70130000D01*
%TD*%
M02*
