%TF.GenerationSoftware,KiCad,Pcbnew,8.0.0*%
%TF.CreationDate,2024-05-13T09:11:22+02:00*%
%TF.ProjectId,Planar_XFMR,506c616e-6172-45f5-9846-4d522e6b6963,A*%
%TF.SameCoordinates,Original*%
%TF.FileFunction,Soldermask,Bot*%
%TF.FilePolarity,Negative*%
%FSLAX46Y46*%
G04 Gerber Fmt 4.6, Leading zero omitted, Abs format (unit mm)*
G04 Created by KiCad (PCBNEW 8.0.0) date 2024-05-13 09:11:22*
%MOMM*%
%LPD*%
G01*
G04 APERTURE LIST*
G04 Aperture macros list*
%AMFreePoly0*
4,1,19,0.500000,-0.750000,0.000000,-0.750000,0.000000,-0.744911,-0.071157,-0.744911,-0.207708,-0.704816,-0.327430,-0.627875,-0.420627,-0.520320,-0.479746,-0.390866,-0.500000,-0.250000,-0.500000,0.250000,-0.479746,0.390866,-0.420627,0.520320,-0.327430,0.627875,-0.207708,0.704816,-0.071157,0.744911,0.000000,0.744911,0.000000,0.750000,0.500000,0.750000,0.500000,-0.750000,0.500000,-0.750000,
$1*%
%AMFreePoly1*
4,1,19,0.000000,0.744911,0.071157,0.744911,0.207708,0.704816,0.327430,0.627875,0.420627,0.520320,0.479746,0.390866,0.500000,0.250000,0.500000,-0.250000,0.479746,-0.390866,0.420627,-0.520320,0.327430,-0.627875,0.207708,-0.704816,0.071157,-0.744911,0.000000,-0.744911,0.000000,-0.750000,-0.500000,-0.750000,-0.500000,0.750000,0.000000,0.750000,0.000000,0.744911,0.000000,0.744911,
$1*%
G04 Aperture macros list end*
%ADD10FreePoly0,270.000000*%
%ADD11FreePoly1,270.000000*%
%ADD12R,1.700000X1.700000*%
%ADD13O,1.700000X1.700000*%
G04 APERTURE END LIST*
D10*
%TO.C,JP4*%
X123500000Y-55850000D03*
D11*
X123500000Y-57150000D03*
%TD*%
D10*
%TO.C,JP3*%
X140500000Y-72350000D03*
D11*
X140500000Y-73650000D03*
%TD*%
D10*
%TO.C,JP2*%
X123500000Y-72350000D03*
D11*
X123500000Y-73650000D03*
%TD*%
D10*
%TO.C,JP1*%
X140500000Y-55850000D03*
D11*
X140500000Y-57150000D03*
%TD*%
D12*
%TO.C,J6*%
X143925000Y-46750000D03*
D13*
X146465000Y-46750000D03*
X149005000Y-46750000D03*
X151545000Y-46750000D03*
X154085000Y-46750000D03*
%TD*%
D12*
%TO.C,J10*%
X126925000Y-63750000D03*
D13*
X129465000Y-63750000D03*
X132005000Y-63750000D03*
X134545000Y-63750000D03*
X137085000Y-63750000D03*
%TD*%
D12*
%TO.C,J2*%
X109925000Y-46750000D03*
D13*
X112465000Y-46750000D03*
X115005000Y-46750000D03*
X117545000Y-46750000D03*
X120085000Y-46750000D03*
%TD*%
D12*
%TO.C,J3*%
X126925000Y-33000000D03*
D13*
X129465000Y-33000000D03*
X132005000Y-33000000D03*
X134545000Y-33000000D03*
X137085000Y-33000000D03*
%TD*%
D12*
%TO.C,J12*%
X143925000Y-63750000D03*
D13*
X146465000Y-63750000D03*
X149005000Y-63750000D03*
X151545000Y-63750000D03*
X154085000Y-63750000D03*
%TD*%
D12*
%TO.C,J8*%
X109925000Y-63750000D03*
D13*
X112465000Y-63750000D03*
X115005000Y-63750000D03*
X117545000Y-63750000D03*
X120085000Y-63750000D03*
%TD*%
D12*
%TO.C,J11*%
X143925000Y-49500000D03*
D13*
X146465000Y-49500000D03*
X149005000Y-49500000D03*
X151545000Y-49500000D03*
X154085000Y-49500000D03*
%TD*%
D12*
%TO.C,J18*%
X143925000Y-80250000D03*
D13*
X146465000Y-80250000D03*
X149005000Y-80250000D03*
X151545000Y-80250000D03*
X154085000Y-80250000D03*
%TD*%
D12*
%TO.C,J16*%
X126925000Y-80250000D03*
D13*
X129465000Y-80250000D03*
X132005000Y-80250000D03*
X134545000Y-80250000D03*
X137085000Y-80250000D03*
%TD*%
D12*
%TO.C,J17*%
X143925000Y-66500000D03*
D13*
X146465000Y-66500000D03*
X149005000Y-66500000D03*
X151545000Y-66500000D03*
X154085000Y-66500000D03*
%TD*%
D12*
%TO.C,J4*%
X126925000Y-46750000D03*
D13*
X129465000Y-46750000D03*
X132005000Y-46750000D03*
X134545000Y-46750000D03*
X137085000Y-46750000D03*
%TD*%
D12*
%TO.C,J9*%
X126925000Y-49500000D03*
D13*
X129465000Y-49500000D03*
X132005000Y-49500000D03*
X134545000Y-49500000D03*
X137085000Y-49500000D03*
%TD*%
D12*
%TO.C,J7*%
X109925000Y-49500000D03*
D13*
X112465000Y-49500000D03*
X115005000Y-49500000D03*
X117545000Y-49500000D03*
X120085000Y-49500000D03*
%TD*%
D12*
%TO.C,J5*%
X143925000Y-33000000D03*
D13*
X146465000Y-33000000D03*
X149005000Y-33000000D03*
X151545000Y-33000000D03*
X154085000Y-33000000D03*
%TD*%
D12*
%TO.C,J15*%
X126925000Y-66500000D03*
D13*
X129465000Y-66500000D03*
X132005000Y-66500000D03*
X134545000Y-66500000D03*
X137085000Y-66500000D03*
%TD*%
D12*
%TO.C,J1*%
X109925000Y-33000000D03*
D13*
X112465000Y-33000000D03*
X115005000Y-33000000D03*
X117545000Y-33000000D03*
X120085000Y-33000000D03*
%TD*%
D12*
%TO.C,J14*%
X109925000Y-80250000D03*
D13*
X112465000Y-80250000D03*
X115005000Y-80250000D03*
X117545000Y-80250000D03*
X120085000Y-80250000D03*
%TD*%
D12*
%TO.C,J13*%
X109925000Y-66500000D03*
D13*
X112465000Y-66500000D03*
X115005000Y-66500000D03*
X117545000Y-66500000D03*
X120085000Y-66500000D03*
%TD*%
M02*
