%TF.GenerationSoftware,KiCad,Pcbnew,7.0.10*%
%TF.CreationDate,2024-02-14T10:35:41+01:00*%
%TF.ProjectId,Planar_XFMR,506c616e-6172-45f5-9846-4d522e6b6963,A*%
%TF.SameCoordinates,Original*%
%TF.FileFunction,Drillmap*%
%TF.FilePolarity,Positive*%
%FSLAX45Y45*%
G04 Gerber Fmt 4.5, Leading zero omitted, Abs format (unit mm)*
G04 Created by KiCad (PCBNEW 7.0.10) date 2024-02-14 10:35:41*
%MOMM*%
%LPD*%
G01*
G04 APERTURE LIST*
%ADD10C,0.010000*%
%ADD11C,0.100000*%
%ADD12C,0.200000*%
G04 APERTURE END LIST*
D10*
X14402092Y-5363546D02*
X14457092Y-5363546D01*
X14507093Y-5848546D02*
X14507092Y-5913546D01*
X14507092Y-5413546D02*
G75*
G03*
X14457092Y-5363546I0J50000D01*
G01*
X14457092Y-5963546D02*
G75*
G03*
X14507092Y-5913546I50000J0D01*
G01*
X14352092Y-5913546D02*
G75*
G03*
X14402092Y-5963546I0J-50000D01*
G01*
X15452092Y-5413546D02*
G75*
G03*
X15402092Y-5363546I0J50000D01*
G01*
X15297092Y-5913546D02*
G75*
G03*
X15347092Y-5963546I0J-50000D01*
G01*
X15347092Y-5363546D02*
G75*
G03*
X15297092Y-5413546I-50000J0D01*
G01*
X14352092Y-5413546D02*
X14352092Y-5913546D01*
X14457092Y-5963546D02*
X14402092Y-5963546D01*
X15297092Y-5848546D02*
X15297092Y-5913546D01*
X15297092Y-5848546D02*
G75*
G03*
X15298050Y-5480604I-395000J185000D01*
G01*
X14506135Y-5480604D02*
X14507092Y-5413546D01*
X14506135Y-5480604D02*
G75*
G03*
X14507093Y-5848546I395957J-182942D01*
G01*
X15347092Y-5963546D02*
X15402092Y-5963546D01*
X15452092Y-5413546D02*
X15452092Y-5913546D01*
X15298050Y-5480604D02*
X15297092Y-5413546D01*
X15114651Y-5663546D02*
G75*
G03*
X14689534Y-5663546I-212559J0D01*
G01*
X14689534Y-5663546D02*
G75*
G03*
X15114651Y-5663546I212559J0D01*
G01*
X15402092Y-5363546D02*
X15347092Y-5363546D01*
X14402092Y-5363546D02*
G75*
G03*
X14352092Y-5413546I-50000J0D01*
G01*
X15402092Y-5963546D02*
G75*
G03*
X15452092Y-5913546I50000J0D01*
G01*
X11825355Y-7149645D02*
X11825355Y-7214645D01*
X11825355Y-7549645D02*
X11825355Y-7484645D01*
X11825000Y-7485000D02*
G75*
G03*
X11825000Y-7215000I-350000J135000D01*
G01*
X11125000Y-7150000D02*
X11125000Y-7215000D01*
X11125000Y-7215000D02*
G75*
G03*
X11125000Y-7485000I350000J-135000D01*
G01*
X11125000Y-7550000D02*
X11125000Y-7485000D01*
X10970000Y-7550000D02*
X10970000Y-7150000D01*
X11020000Y-7100000D02*
G75*
G03*
X10970000Y-7150000I-50000J0D01*
G01*
X11075000Y-7600000D02*
G75*
G03*
X11125000Y-7550000I50000J0D01*
G01*
X11075000Y-7600000D02*
X11020000Y-7600000D01*
X11020000Y-7100000D02*
X11075000Y-7100000D01*
X11125000Y-7150000D02*
G75*
G03*
X11075000Y-7100000I0J50000D01*
G01*
X10970000Y-7550000D02*
G75*
G03*
X11020000Y-7600000I0J-50000D01*
G01*
X12700000Y-5360000D02*
G75*
G03*
X12650000Y-5410000I-50000J0D01*
G01*
X12755000Y-5960000D02*
G75*
G03*
X12805000Y-5910000I50000J0D01*
G01*
X12805000Y-5410000D02*
G75*
G03*
X12755000Y-5360000I0J50000D01*
G01*
X12650000Y-5910000D02*
G75*
G03*
X12700000Y-5960000I0J-50000D01*
G01*
X12650000Y-5410000D02*
X12650000Y-5910000D01*
X12804043Y-5477058D02*
X12805000Y-5410000D01*
X12804043Y-5477058D02*
G75*
G03*
X12805000Y-5845000I395957J-182942D01*
G01*
X12700000Y-5360000D02*
X12755000Y-5360000D01*
X12805000Y-5845000D02*
X12805000Y-5910000D01*
X12755000Y-5960000D02*
X12700000Y-5960000D01*
X13595000Y-5910000D02*
G75*
G03*
X13645000Y-5960000I0J-50000D01*
G01*
X13645000Y-5360000D02*
G75*
G03*
X13595000Y-5410000I-50000J0D01*
G01*
X13750000Y-5410000D02*
G75*
G03*
X13700000Y-5360000I0J50000D01*
G01*
X13700000Y-5960000D02*
G75*
G03*
X13750000Y-5910000I50000J0D01*
G01*
X13645000Y-5960000D02*
X13700000Y-5960000D01*
X13595000Y-5845000D02*
X13595000Y-5910000D01*
X13412559Y-5660000D02*
G75*
G03*
X12987441Y-5660000I-212559J0D01*
G01*
X12987441Y-5660000D02*
G75*
G03*
X13412559Y-5660000I212559J0D01*
G01*
X13750000Y-5410000D02*
X13750000Y-5910000D01*
X13595957Y-5477058D02*
X13595000Y-5410000D01*
X13595000Y-5845000D02*
G75*
G03*
X13595957Y-5477058I-395000J185000D01*
G01*
X13700000Y-5360000D02*
X13645000Y-5360000D01*
X12825000Y-7545000D02*
X12825000Y-7480000D01*
D11*
X10858579Y-8158579D02*
X15458579Y-8158579D01*
D10*
X12775000Y-7595000D02*
X12720000Y-7595000D01*
D11*
X15458579Y-3158579D02*
X10858579Y-3158579D01*
D10*
X12670000Y-7545000D02*
X12670000Y-7145000D01*
X11875355Y-7599645D02*
X11930355Y-7599645D01*
D11*
X15658581Y-3358579D02*
G75*
G03*
X15458579Y-3158579I-200001J-1D01*
G01*
X15458579Y-8158579D02*
G75*
G03*
X15658579Y-7958579I1J199999D01*
G01*
D10*
X11825355Y-7549645D02*
G75*
G03*
X11875355Y-7599645I5J-49995D01*
G01*
D11*
X10658581Y-7958579D02*
G75*
G03*
X10858579Y-8158579I199999J-1D01*
G01*
D10*
X13680355Y-7144645D02*
G75*
G03*
X13630355Y-7094645I5J50005D01*
G01*
X11930355Y-7099645D02*
X11875355Y-7099645D01*
X13630355Y-7094645D02*
X13575355Y-7094645D01*
X12825000Y-7145000D02*
X12825000Y-7210000D01*
X12825000Y-7210000D02*
G75*
G03*
X12825000Y-7480000I350000J-135000D01*
G01*
X11930365Y-7599645D02*
G75*
G03*
X11980355Y-7549645I49995J5D01*
G01*
X12670000Y-7545000D02*
G75*
G03*
X12720000Y-7595000I0J-50000D01*
G01*
D11*
X15658579Y-7958579D02*
X15658579Y-3358579D01*
D10*
X12775000Y-7595000D02*
G75*
G03*
X12825000Y-7545000I50000J0D01*
G01*
X12825000Y-7145000D02*
G75*
G03*
X12775000Y-7095000I0J50000D01*
G01*
X13630365Y-7594645D02*
G75*
G03*
X13680355Y-7544645I49995J5D01*
G01*
X13350000Y-7345000D02*
G75*
G03*
X13000000Y-7345000I-175000J0D01*
G01*
X13000000Y-7345000D02*
G75*
G03*
X13350000Y-7345000I175000J0D01*
G01*
X13525355Y-7544645D02*
G75*
G03*
X13575355Y-7594645I5J-49995D01*
G01*
X13575355Y-7594645D02*
X13630355Y-7594645D01*
X13525355Y-7544645D02*
X13525355Y-7479645D01*
X12720000Y-7095000D02*
G75*
G03*
X12670000Y-7145000I-50000J0D01*
G01*
D11*
X10658579Y-3358579D02*
X10658579Y-7958579D01*
D10*
X13575365Y-7094645D02*
G75*
G03*
X13525355Y-7144645I-50005J5D01*
G01*
X12720000Y-7095000D02*
X12775000Y-7095000D01*
D11*
X10858579Y-3158579D02*
G75*
G03*
X10658579Y-3358579I1J-200001D01*
G01*
D10*
X11875365Y-7099645D02*
G75*
G03*
X11825355Y-7149645I-50005J5D01*
G01*
X13525000Y-7480000D02*
G75*
G03*
X13525000Y-7210000I-350000J135000D01*
G01*
X11980355Y-7549645D02*
X11980355Y-7149645D01*
X11980355Y-7149645D02*
G75*
G03*
X11930355Y-7099645I5J50005D01*
G01*
X13525355Y-7144645D02*
X13525355Y-7209645D01*
X13680355Y-7544645D02*
X13680355Y-7144645D01*
D12*
X10914355Y-8475062D02*
X10914355Y-8275062D01*
X10914355Y-8275062D02*
X10961974Y-8275062D01*
X10961974Y-8275062D02*
X10990546Y-8284586D01*
X10990546Y-8284586D02*
X11009594Y-8303634D01*
X11009594Y-8303634D02*
X11019117Y-8322681D01*
X11019117Y-8322681D02*
X11028641Y-8360777D01*
X11028641Y-8360777D02*
X11028641Y-8389348D01*
X11028641Y-8389348D02*
X11019117Y-8427443D01*
X11019117Y-8427443D02*
X11009594Y-8446491D01*
X11009594Y-8446491D02*
X10990546Y-8465539D01*
X10990546Y-8465539D02*
X10961974Y-8475062D01*
X10961974Y-8475062D02*
X10914355Y-8475062D01*
X11114355Y-8475062D02*
X11114355Y-8341729D01*
X11114355Y-8379824D02*
X11123879Y-8360777D01*
X11123879Y-8360777D02*
X11133403Y-8351253D01*
X11133403Y-8351253D02*
X11152451Y-8341729D01*
X11152451Y-8341729D02*
X11171498Y-8341729D01*
X11238165Y-8475062D02*
X11238165Y-8341729D01*
X11238165Y-8275062D02*
X11228641Y-8284586D01*
X11228641Y-8284586D02*
X11238165Y-8294110D01*
X11238165Y-8294110D02*
X11247689Y-8284586D01*
X11247689Y-8284586D02*
X11238165Y-8275062D01*
X11238165Y-8275062D02*
X11238165Y-8294110D01*
X11361974Y-8475062D02*
X11342927Y-8465539D01*
X11342927Y-8465539D02*
X11333403Y-8446491D01*
X11333403Y-8446491D02*
X11333403Y-8275062D01*
X11466736Y-8475062D02*
X11447689Y-8465539D01*
X11447689Y-8465539D02*
X11438165Y-8446491D01*
X11438165Y-8446491D02*
X11438165Y-8275062D01*
X11695308Y-8475062D02*
X11695308Y-8275062D01*
X11695308Y-8275062D02*
X11761974Y-8417920D01*
X11761974Y-8417920D02*
X11828641Y-8275062D01*
X11828641Y-8275062D02*
X11828641Y-8475062D01*
X12009593Y-8475062D02*
X12009593Y-8370300D01*
X12009593Y-8370300D02*
X12000070Y-8351253D01*
X12000070Y-8351253D02*
X11981022Y-8341729D01*
X11981022Y-8341729D02*
X11942927Y-8341729D01*
X11942927Y-8341729D02*
X11923879Y-8351253D01*
X12009593Y-8465539D02*
X11990546Y-8475062D01*
X11990546Y-8475062D02*
X11942927Y-8475062D01*
X11942927Y-8475062D02*
X11923879Y-8465539D01*
X11923879Y-8465539D02*
X11914355Y-8446491D01*
X11914355Y-8446491D02*
X11914355Y-8427443D01*
X11914355Y-8427443D02*
X11923879Y-8408396D01*
X11923879Y-8408396D02*
X11942927Y-8398872D01*
X11942927Y-8398872D02*
X11990546Y-8398872D01*
X11990546Y-8398872D02*
X12009593Y-8389348D01*
X12104832Y-8341729D02*
X12104832Y-8541729D01*
X12104832Y-8351253D02*
X12123879Y-8341729D01*
X12123879Y-8341729D02*
X12161974Y-8341729D01*
X12161974Y-8341729D02*
X12181022Y-8351253D01*
X12181022Y-8351253D02*
X12190546Y-8360777D01*
X12190546Y-8360777D02*
X12200070Y-8379824D01*
X12200070Y-8379824D02*
X12200070Y-8436967D01*
X12200070Y-8436967D02*
X12190546Y-8456015D01*
X12190546Y-8456015D02*
X12181022Y-8465539D01*
X12181022Y-8465539D02*
X12161974Y-8475062D01*
X12161974Y-8475062D02*
X12123879Y-8475062D01*
X12123879Y-8475062D02*
X12104832Y-8465539D01*
X12285784Y-8456015D02*
X12295308Y-8465539D01*
X12295308Y-8465539D02*
X12285784Y-8475062D01*
X12285784Y-8475062D02*
X12276260Y-8465539D01*
X12276260Y-8465539D02*
X12285784Y-8456015D01*
X12285784Y-8456015D02*
X12285784Y-8475062D01*
X12285784Y-8351253D02*
X12295308Y-8360777D01*
X12295308Y-8360777D02*
X12285784Y-8370300D01*
X12285784Y-8370300D02*
X12276260Y-8360777D01*
X12276260Y-8360777D02*
X12285784Y-8351253D01*
X12285784Y-8351253D02*
X12285784Y-8370300D01*
M02*
