%TF.GenerationSoftware,KiCad,Pcbnew,8.0.0*%
%TF.CreationDate,2024-05-13T09:11:22+02:00*%
%TF.ProjectId,Planar_XFMR,506c616e-6172-45f5-9846-4d522e6b6963,A*%
%TF.SameCoordinates,Original*%
%TF.FileFunction,Copper,L4,Bot*%
%TF.FilePolarity,Positive*%
%FSLAX46Y46*%
G04 Gerber Fmt 4.6, Leading zero omitted, Abs format (unit mm)*
G04 Created by KiCad (PCBNEW 8.0.0) date 2024-05-13 09:11:22*
%MOMM*%
%LPD*%
G01*
G04 APERTURE LIST*
G04 Aperture macros list*
%AMFreePoly0*
4,1,19,0.500000,-0.750000,0.000000,-0.750000,0.000000,-0.744911,-0.071157,-0.744911,-0.207708,-0.704816,-0.327430,-0.627875,-0.420627,-0.520320,-0.479746,-0.390866,-0.500000,-0.250000,-0.500000,0.250000,-0.479746,0.390866,-0.420627,0.520320,-0.327430,0.627875,-0.207708,0.704816,-0.071157,0.744911,0.000000,0.744911,0.000000,0.750000,0.500000,0.750000,0.500000,-0.750000,0.500000,-0.750000,
$1*%
%AMFreePoly1*
4,1,19,0.000000,0.744911,0.071157,0.744911,0.207708,0.704816,0.327430,0.627875,0.420627,0.520320,0.479746,0.390866,0.500000,0.250000,0.500000,-0.250000,0.479746,-0.390866,0.420627,-0.520320,0.327430,-0.627875,0.207708,-0.704816,0.071157,-0.744911,0.000000,-0.744911,0.000000,-0.750000,-0.500000,-0.750000,-0.500000,0.750000,0.000000,0.750000,0.000000,0.744911,0.000000,0.744911,
$1*%
G04 Aperture macros list end*
%TA.AperFunction,NonConductor*%
%ADD10C,0.200000*%
%TD*%
%TA.AperFunction,NonConductor*%
%ADD11C,0.100000*%
%TD*%
%TA.AperFunction,EtchedComponent*%
%ADD12C,0.000000*%
%TD*%
%TA.AperFunction,SMDPad,CuDef*%
%ADD13FreePoly0,270.000000*%
%TD*%
%TA.AperFunction,SMDPad,CuDef*%
%ADD14FreePoly1,270.000000*%
%TD*%
%TA.AperFunction,ComponentPad*%
%ADD15R,1.700000X1.700000*%
%TD*%
%TA.AperFunction,ComponentPad*%
%ADD16O,1.700000X1.700000*%
%TD*%
%TA.AperFunction,ViaPad*%
%ADD17C,0.450000*%
%TD*%
%TA.AperFunction,ViaPad*%
%ADD18C,1.300000*%
%TD*%
%TA.AperFunction,Conductor*%
%ADD19C,0.500000*%
%TD*%
%TA.AperFunction,Conductor*%
%ADD20C,0.200000*%
%TD*%
%TA.AperFunction,Conductor*%
%ADD21C,0.250000*%
%TD*%
%TA.AperFunction,Conductor*%
%ADD22C,1.300000*%
%TD*%
%TA.AperFunction,Conductor*%
%ADD23C,0.400000*%
%TD*%
%TA.AperFunction,Conductor*%
%ADD24C,0.100000*%
%TD*%
%TA.AperFunction,Conductor*%
%ADD25C,0.450000*%
%TD*%
%TA.AperFunction,Conductor*%
%ADD26C,1.500000*%
%TD*%
G04 APERTURE END LIST*
D10*
X111990000Y-73500000D02*
G75*
G02*
X114090017Y-70820070I2760000J0D01*
G01*
X152120014Y-73450000D02*
G75*
G02*
X149796033Y-76639020I-3350014J0D01*
G01*
D11*
X133340818Y-70445121D02*
X133340000Y-70120000D01*
X130411065Y-76575261D02*
G75*
G02*
X128350000Y-73450000I1338935J3125261D01*
G01*
D10*
X112290000Y-73500000D02*
G75*
G02*
X114317226Y-71078367I2460000J0D01*
G01*
X148350137Y-71332220D02*
G75*
G02*
X149194995Y-71318254I419863J162220D01*
G01*
X113896305Y-70561555D02*
G75*
G02*
X115792293Y-70944374I853695J-658445D01*
G01*
X115792294Y-70944374D02*
G75*
G02*
X115756643Y-76069877I-1042294J-2555626D01*
G01*
X114009455Y-75845889D02*
G75*
G02*
X112290000Y-73500000I740545J2345889D01*
G01*
X115994960Y-76302081D02*
G75*
G02*
X113507108Y-76306986I-1244960J522081D01*
G01*
D11*
X133079999Y-76600000D02*
G75*
G02*
X130408220Y-76581902I-1329999J878600D01*
G01*
X132511749Y-70964092D02*
G75*
G02*
X132514141Y-75935174I-761749J-2485908D01*
G01*
X129550000Y-73450000D02*
G75*
G02*
X131750000Y-71250000I2200000J0D01*
G01*
X128550000Y-73450000D02*
G75*
G02*
X130866565Y-70374363I3200000J0D01*
G01*
D10*
X113281398Y-76510946D02*
G75*
G02*
X111399987Y-73500000I1468602J3010946D01*
G01*
X146935217Y-76252885D02*
X147190000Y-76600000D01*
D11*
X129150000Y-73450000D02*
G75*
G02*
X131232206Y-70902081I2600000J0D01*
G01*
D10*
X148329459Y-75564598D02*
G75*
G02*
X148349942Y-71331238I440541J2114598D01*
G01*
X111399986Y-73500000D02*
G75*
G02*
X113723967Y-70310980I3350014J0D01*
G01*
D11*
X132517652Y-75946596D02*
G75*
G02*
X130978798Y-75934122I-767652J225196D01*
G01*
D10*
X147761890Y-70876376D02*
G75*
G02*
X149770962Y-70852864I1008110J-293624D01*
G01*
D11*
X130543073Y-76413668D02*
G75*
G02*
X128550000Y-73450000I1206927J2963668D01*
G01*
D10*
X115496839Y-75848788D02*
G75*
G02*
X114004464Y-75861703I-746839J68788D01*
G01*
X147290163Y-70440217D02*
G75*
G02*
X150243873Y-70428247I1479837J-729783D01*
G01*
D11*
X131369031Y-71048090D02*
G75*
G02*
X132142231Y-71248446I380969J-121910D01*
G01*
D10*
X151230000Y-73450000D02*
G75*
G02*
X149202774Y-75871633I-2460000J0D01*
G01*
D11*
X129350000Y-73450000D02*
G75*
G02*
X131374034Y-71079631I2400000J0D01*
G01*
X132967683Y-76412265D02*
G75*
G02*
X130757570Y-76708885I-1217683J690865D01*
G01*
D10*
X148023161Y-71101212D02*
G75*
G02*
X149515536Y-71088297I746839J-68788D01*
G01*
X113724654Y-70311589D02*
G75*
G02*
X116024615Y-70718102I1025346J-908411D01*
G01*
D11*
X128950000Y-73450000D02*
G75*
G02*
X131092358Y-70728326I2800000J0D01*
G01*
D10*
X116229837Y-76509783D02*
G75*
G02*
X113276127Y-76521753I-1479837J729783D01*
G01*
D11*
X132963619Y-70489066D02*
G75*
G02*
X132966628Y-76409699I-1213619J-2960934D01*
G01*
X128750000Y-73450000D02*
G75*
G02*
X130986254Y-70548846I3000000J0D01*
G01*
X132825269Y-76254164D02*
G75*
G02*
X130676071Y-76256860I-1075269J532764D01*
G01*
D10*
X150238602Y-70439054D02*
G75*
G02*
X152120013Y-73450000I-1468602J-3010946D01*
G01*
X150930000Y-73450000D02*
G75*
G02*
X148770000Y-75610000I-2160000J0D01*
G01*
X149206488Y-75892414D02*
G75*
G02*
X148320000Y-75610000I-436488J162414D01*
G01*
D11*
X132142230Y-75642971D02*
G75*
G02*
X131362877Y-75620748I-392230J-78429D01*
G01*
D10*
X112590000Y-73500000D02*
G75*
G02*
X114750000Y-71340000I2160000J0D01*
G01*
X147727706Y-76005626D02*
G75*
G02*
X147763357Y-70880123I1042294J2555626D01*
G01*
D11*
X132669659Y-76114136D02*
G75*
G02*
X130823931Y-76098772I-919659J392736D01*
G01*
D10*
X116024615Y-70718103D02*
G75*
G02*
X115992443Y-76296414I-1274615J-2781897D01*
G01*
D11*
X130862959Y-70361807D02*
G75*
G02*
X132825268Y-70637254I887041J-808193D01*
G01*
D10*
X113511094Y-76297983D02*
G75*
G02*
X111690001Y-73500000I1238906J2797983D01*
G01*
X116569237Y-70679968D02*
X116450000Y-70150000D01*
X147525040Y-70647919D02*
G75*
G02*
X150012892Y-70643014I1244960J-522081D01*
G01*
X116584783Y-70697116D02*
G75*
G02*
X116228118Y-76506286I-1834783J-2802884D01*
G01*
D11*
X132345603Y-75793925D02*
G75*
G02*
X131153256Y-75783844I-595603J72525D01*
G01*
D10*
X149510545Y-71104111D02*
G75*
G02*
X151230000Y-73450000I-740545J-2345889D01*
G01*
D11*
X132135878Y-71284108D02*
G75*
G02*
X132137340Y-75615631I-385878J-2165892D01*
G01*
X130979117Y-75933091D02*
G75*
G02*
X129150000Y-73450000I770883J2483091D01*
G01*
D10*
X115169863Y-75617780D02*
G75*
G02*
X114325005Y-75631746I-419863J-162220D01*
G01*
X111690000Y-73500000D02*
G75*
G02*
X113896250Y-70561512I3060000J0D01*
G01*
X149444557Y-76138762D02*
G75*
G02*
X147982888Y-75780676I-674557J408762D01*
G01*
D11*
X130825909Y-76093115D02*
G75*
G02*
X128950000Y-73450000I924091J2643115D01*
G01*
D10*
X113757435Y-76075348D02*
G75*
G02*
X111990000Y-73500000I992565J2575348D01*
G01*
D11*
X131089881Y-70718072D02*
G75*
G02*
X132517653Y-70944821I660119J-451928D01*
G01*
D10*
X149762565Y-70874652D02*
G75*
G02*
X151530000Y-73450000I-992565J-2575348D01*
G01*
X114313512Y-71057586D02*
G75*
G02*
X115200000Y-71340000I436488J-162414D01*
G01*
D11*
X132339042Y-71123408D02*
G75*
G02*
X132341068Y-75776078I-589042J-2326592D01*
G01*
D10*
X149623695Y-76388445D02*
G75*
G02*
X147727707Y-76005626I-853695J658445D01*
G01*
D11*
X135150000Y-73450000D02*
G75*
G02*
X133072505Y-76582249I-3400000J0D01*
G01*
D10*
X115758110Y-76073624D02*
G75*
G02*
X113749038Y-76097136I-1008110J293624D01*
G01*
D11*
X133340818Y-70445122D02*
G75*
G02*
X135149999Y-73450000I-1590818J-3004878D01*
G01*
D10*
X146935217Y-76252884D02*
G75*
G02*
X147291882Y-70443714I1834783J2802884D01*
G01*
X151530000Y-73450000D02*
G75*
G02*
X149429983Y-76129930I-2760000J0D01*
G01*
X150008906Y-70652017D02*
G75*
G02*
X151829999Y-73450000I-1238906J-2797983D01*
G01*
D11*
X132822407Y-70644741D02*
G75*
G02*
X132825269Y-76254163I-1072407J-2805259D01*
G01*
X131155468Y-75775195D02*
G75*
G02*
X129350000Y-73450000I594532J2325195D01*
G01*
D10*
X147495385Y-76231897D02*
G75*
G02*
X147527557Y-70653586I1274615J2781897D01*
G01*
D11*
X131363754Y-75615829D02*
G75*
G02*
X129550000Y-73450000I386246J2165829D01*
G01*
D10*
X114327683Y-75618313D02*
G75*
G02*
X112590000Y-73500000I422317J2118313D01*
G01*
D11*
X128350000Y-73450000D02*
G75*
G02*
X130761887Y-70196750I3400000J0D01*
G01*
D10*
X114075443Y-70811238D02*
G75*
G02*
X115537112Y-71169324I674557J-408762D01*
G01*
D11*
X132967683Y-76412265D02*
G75*
G02*
X130538942Y-76423813I-1217683J690865D01*
G01*
D10*
X147982886Y-75780674D02*
G75*
G02*
X148024575Y-71105660I787114J2330674D01*
G01*
X115190541Y-71385402D02*
G75*
G02*
X115170058Y-75618762I-440541J-2114598D01*
G01*
D11*
X130757568Y-70182530D02*
G75*
G02*
X132967682Y-70479153I992432J-987470D01*
G01*
X130981372Y-70530303D02*
G75*
G02*
X132669659Y-70777281I768628J-639697D01*
G01*
D10*
X115537114Y-71169326D02*
G75*
G02*
X115495425Y-75844340I-787114J-2330674D01*
G01*
D11*
X130677962Y-76251915D02*
G75*
G02*
X128750001Y-73450000I1072038J2801915D01*
G01*
D10*
X149795346Y-76638411D02*
G75*
G02*
X147495385Y-76231898I-1025346J908411D01*
G01*
D11*
X131226923Y-70876080D02*
G75*
G02*
X132345602Y-71097492I523077J-293920D01*
G01*
D10*
X149192317Y-71331687D02*
G75*
G02*
X150930000Y-73450000I-422317J-2118313D01*
G01*
D11*
X132667019Y-70784956D02*
G75*
G02*
X132669659Y-76114134I-917019J-2665044D01*
G01*
D10*
X151830000Y-73450000D02*
G75*
G02*
X149623750Y-76388488I-3060000J0D01*
G01*
D12*
%TA.AperFunction,EtchedComponent*%
%TO.C,JP4*%
G36*
X123800000Y-56750000D02*
G01*
X123200000Y-56750000D01*
X123200000Y-56250000D01*
X123800000Y-56250000D01*
X123800000Y-56750000D01*
G37*
%TD.AperFunction*%
%TA.AperFunction,EtchedComponent*%
%TO.C,JP3*%
G36*
X140800000Y-73250000D02*
G01*
X140200000Y-73250000D01*
X140200000Y-72750000D01*
X140800000Y-72750000D01*
X140800000Y-73250000D01*
G37*
%TD.AperFunction*%
%TA.AperFunction,EtchedComponent*%
%TO.C,JP2*%
G36*
X123800000Y-73250000D02*
G01*
X123200000Y-73250000D01*
X123200000Y-72750000D01*
X123800000Y-72750000D01*
X123800000Y-73250000D01*
G37*
%TD.AperFunction*%
%TA.AperFunction,EtchedComponent*%
%TO.C,JP1*%
G36*
X140800000Y-56750000D02*
G01*
X140200000Y-56750000D01*
X140200000Y-56250000D01*
X140800000Y-56250000D01*
X140800000Y-56750000D01*
G37*
%TD.AperFunction*%
%TD*%
D13*
%TO.P,JP4,1,A*%
%TO.N,Net-(J11-Pin_1)*%
X123500000Y-55850000D03*
D14*
%TO.P,JP4,2,B*%
%TO.N,Net-(J10-Pin_1)*%
X123500000Y-57150000D03*
%TD*%
D13*
%TO.P,JP3,1,A*%
%TO.N,Net-(J15-Pin_4)*%
X140500000Y-72350000D03*
D14*
%TO.P,JP3,2,B*%
%TO.N,Net-(J16-Pin_4)*%
X140500000Y-73650000D03*
%TD*%
D13*
%TO.P,JP2,1,A*%
%TO.N,Net-(J13-Pin_4)*%
X123500000Y-72350000D03*
D14*
%TO.P,JP2,2,B*%
%TO.N,Net-(J14-Pin_4)*%
X123500000Y-73650000D03*
%TD*%
D13*
%TO.P,JP1,1,A*%
%TO.N,Net-(J11-Pin_1)*%
X140500000Y-55850000D03*
D14*
%TO.P,JP1,2,B*%
%TO.N,Net-(J10-Pin_4)*%
X140500000Y-57150000D03*
%TD*%
D15*
%TO.P,J6,1,Pin_1*%
%TO.N,Net-(J3-Pin_4)*%
X143925000Y-46750000D03*
D16*
%TO.P,J6,2,Pin_2*%
X146465000Y-46750000D03*
%TO.P,J6,3,Pin_3*%
%TO.N,Net-(J11-Pin_3)*%
X149005000Y-46750000D03*
%TO.P,J6,4,Pin_4*%
%TO.N,Net-(J5-Pin_4)*%
X151545000Y-46750000D03*
%TO.P,J6,5,Pin_5*%
X154085000Y-46750000D03*
%TD*%
D15*
%TO.P,J10,1,Pin_1*%
%TO.N,Net-(J10-Pin_1)*%
X126925000Y-63750000D03*
D16*
%TO.P,J10,2,Pin_2*%
X129465000Y-63750000D03*
%TO.P,J10,3,Pin_3*%
%TO.N,Net-(J10-Pin_3)*%
X132005000Y-63750000D03*
%TO.P,J10,4,Pin_4*%
%TO.N,Net-(J10-Pin_4)*%
X134545000Y-63750000D03*
%TO.P,J10,5,Pin_5*%
X137085000Y-63750000D03*
%TD*%
D15*
%TO.P,J2,1,Pin_1*%
%TO.N,Net-(J1-Pin_1)*%
X109925000Y-46750000D03*
D16*
%TO.P,J2,2,Pin_2*%
X112465000Y-46750000D03*
%TO.P,J2,3,Pin_3*%
%TO.N,Net-(J2-Pin_3)*%
X115005000Y-46750000D03*
%TO.P,J2,4,Pin_4*%
%TO.N,Net-(J1-Pin_4)*%
X117545000Y-46750000D03*
%TO.P,J2,5,Pin_5*%
X120085000Y-46750000D03*
%TD*%
D15*
%TO.P,J3,1,Pin_1*%
%TO.N,Net-(J1-Pin_4)*%
X126925000Y-33000000D03*
D16*
%TO.P,J3,2,Pin_2*%
X129465000Y-33000000D03*
%TO.P,J3,3,Pin_3*%
%TO.N,unconnected-(J3-Pin_3-Pad3)*%
X132005000Y-33000000D03*
%TO.P,J3,4,Pin_4*%
%TO.N,Net-(J3-Pin_4)*%
X134545000Y-33000000D03*
%TO.P,J3,5,Pin_5*%
X137085000Y-33000000D03*
%TD*%
D15*
%TO.P,J12,1,Pin_1*%
%TO.N,Net-(J10-Pin_4)*%
X143925000Y-63750000D03*
D16*
%TO.P,J12,2,Pin_2*%
X146465000Y-63750000D03*
%TO.P,J12,3,Pin_3*%
%TO.N,Net-(J12-Pin_3)*%
X149005000Y-63750000D03*
%TO.P,J12,4,Pin_4*%
%TO.N,Net-(J10-Pin_4)*%
X151545000Y-63750000D03*
%TO.P,J12,5,Pin_5*%
X154085000Y-63750000D03*
%TD*%
D15*
%TO.P,J8,1,Pin_1*%
%TO.N,Net-(J10-Pin_1)*%
X109925000Y-63750000D03*
D16*
%TO.P,J8,2,Pin_2*%
X112465000Y-63750000D03*
%TO.P,J8,3,Pin_3*%
%TO.N,Net-(J13-Pin_3)*%
X115005000Y-63750000D03*
%TO.P,J8,4,Pin_4*%
%TO.N,Net-(J10-Pin_1)*%
X117545000Y-63750000D03*
%TO.P,J8,5,Pin_5*%
X120085000Y-63750000D03*
%TD*%
D15*
%TO.P,J11,1,Pin_1*%
%TO.N,Net-(J11-Pin_1)*%
X143925000Y-49500000D03*
D16*
%TO.P,J11,2,Pin_2*%
X146465000Y-49500000D03*
%TO.P,J11,3,Pin_3*%
%TO.N,Net-(J11-Pin_3)*%
X149005000Y-49500000D03*
%TO.P,J11,4,Pin_4*%
%TO.N,Net-(J11-Pin_1)*%
X151545000Y-49500000D03*
%TO.P,J11,5,Pin_5*%
X154085000Y-49500000D03*
%TD*%
D15*
%TO.P,J18,1,Pin_1*%
%TO.N,Net-(J16-Pin_4)*%
X143925000Y-80250000D03*
D16*
%TO.P,J18,2,Pin_2*%
X146465000Y-80250000D03*
%TO.P,J18,3,Pin_3*%
%TO.N,unconnected-(J18-Pin_3-Pad3)*%
X149005000Y-80250000D03*
%TO.P,J18,4,Pin_4*%
%TO.N,Net-(J18-Pin_4)*%
X151545000Y-80250000D03*
%TO.P,J18,5,Pin_5*%
X154085000Y-80250000D03*
%TD*%
D15*
%TO.P,J16,1,Pin_1*%
%TO.N,Net-(J14-Pin_4)*%
X126925000Y-80250000D03*
D16*
%TO.P,J16,2,Pin_2*%
X129465000Y-80250000D03*
%TO.P,J16,3,Pin_3*%
%TO.N,unconnected-(J16-Pin_3-Pad3)*%
X132005000Y-80250000D03*
%TO.P,J16,4,Pin_4*%
%TO.N,Net-(J16-Pin_4)*%
X134545000Y-80250000D03*
%TO.P,J16,5,Pin_5*%
X137085000Y-80250000D03*
%TD*%
D15*
%TO.P,J17,1,Pin_1*%
%TO.N,Net-(J15-Pin_4)*%
X143925000Y-66500000D03*
D16*
%TO.P,J17,2,Pin_2*%
X146465000Y-66500000D03*
%TO.P,J17,3,Pin_3*%
%TO.N,Net-(J12-Pin_3)*%
X149005000Y-66500000D03*
%TO.P,J17,4,Pin_4*%
%TO.N,Net-(J17-Pin_4)*%
X151545000Y-66500000D03*
%TO.P,J17,5,Pin_5*%
X154085000Y-66500000D03*
%TD*%
D15*
%TO.P,J4,1,Pin_1*%
%TO.N,Net-(J1-Pin_4)*%
X126925000Y-46750000D03*
D16*
%TO.P,J4,2,Pin_2*%
X129465000Y-46750000D03*
%TO.P,J4,3,Pin_3*%
%TO.N,Net-(J4-Pin_3)*%
X132005000Y-46750000D03*
%TO.P,J4,4,Pin_4*%
%TO.N,Net-(J3-Pin_4)*%
X134545000Y-46750000D03*
%TO.P,J4,5,Pin_5*%
X137085000Y-46750000D03*
%TD*%
D15*
%TO.P,J9,1,Pin_1*%
%TO.N,Net-(J11-Pin_1)*%
X126925000Y-49500000D03*
D16*
%TO.P,J9,2,Pin_2*%
X129465000Y-49500000D03*
%TO.P,J9,3,Pin_3*%
%TO.N,Net-(J4-Pin_3)*%
X132005000Y-49500000D03*
%TO.P,J9,4,Pin_4*%
%TO.N,Net-(J11-Pin_1)*%
X134545000Y-49500000D03*
%TO.P,J9,5,Pin_5*%
X137085000Y-49500000D03*
%TD*%
D15*
%TO.P,J7,1,Pin_1*%
%TO.N,Net-(J11-Pin_1)*%
X109925000Y-49500000D03*
D16*
%TO.P,J7,2,Pin_2*%
X112465000Y-49500000D03*
%TO.P,J7,3,Pin_3*%
%TO.N,Net-(J2-Pin_3)*%
X115005000Y-49500000D03*
%TO.P,J7,4,Pin_4*%
%TO.N,Net-(J11-Pin_1)*%
X117545000Y-49500000D03*
%TO.P,J7,5,Pin_5*%
X120085000Y-49500000D03*
%TD*%
D15*
%TO.P,J5,1,Pin_1*%
%TO.N,Net-(J3-Pin_4)*%
X143925000Y-33000000D03*
D16*
%TO.P,J5,2,Pin_2*%
X146465000Y-33000000D03*
%TO.P,J5,3,Pin_3*%
%TO.N,unconnected-(J5-Pin_3-Pad3)*%
X149005000Y-33000000D03*
%TO.P,J5,4,Pin_4*%
%TO.N,Net-(J5-Pin_4)*%
X151545000Y-33000000D03*
%TO.P,J5,5,Pin_5*%
X154085000Y-33000000D03*
%TD*%
D15*
%TO.P,J15,1,Pin_1*%
%TO.N,Net-(J13-Pin_4)*%
X126925000Y-66500000D03*
D16*
%TO.P,J15,2,Pin_2*%
X129465000Y-66500000D03*
%TO.P,J15,3,Pin_3*%
%TO.N,Net-(J10-Pin_3)*%
X132005000Y-66500000D03*
%TO.P,J15,4,Pin_4*%
%TO.N,Net-(J15-Pin_4)*%
X134545000Y-66500000D03*
%TO.P,J15,5,Pin_5*%
X137085000Y-66500000D03*
%TD*%
D15*
%TO.P,J1,1,Pin_1*%
%TO.N,Net-(J1-Pin_1)*%
X109925000Y-33000000D03*
D16*
%TO.P,J1,2,Pin_2*%
X112465000Y-33000000D03*
%TO.P,J1,3,Pin_3*%
%TO.N,unconnected-(J1-Pin_3-Pad3)*%
X115005000Y-33000000D03*
%TO.P,J1,4,Pin_4*%
%TO.N,Net-(J1-Pin_4)*%
X117545000Y-33000000D03*
%TO.P,J1,5,Pin_5*%
X120085000Y-33000000D03*
%TD*%
D15*
%TO.P,J14,1,Pin_1*%
%TO.N,Net-(J14-Pin_1)*%
X109925000Y-80250000D03*
D16*
%TO.P,J14,2,Pin_2*%
X112465000Y-80250000D03*
%TO.P,J14,3,Pin_3*%
%TO.N,unconnected-(J14-Pin_3-Pad3)*%
X115005000Y-80250000D03*
%TO.P,J14,4,Pin_4*%
%TO.N,Net-(J14-Pin_4)*%
X117545000Y-80250000D03*
%TO.P,J14,5,Pin_5*%
X120085000Y-80250000D03*
%TD*%
D15*
%TO.P,J13,1,Pin_1*%
%TO.N,Net-(J13-Pin_1)*%
X109925000Y-66500000D03*
D16*
%TO.P,J13,2,Pin_2*%
X112465000Y-66500000D03*
%TO.P,J13,3,Pin_3*%
%TO.N,Net-(J13-Pin_3)*%
X115005000Y-66500000D03*
%TO.P,J13,4,Pin_4*%
%TO.N,Net-(J13-Pin_4)*%
X117545000Y-66500000D03*
%TO.P,J13,5,Pin_5*%
X120085000Y-66500000D03*
%TD*%
D17*
%TO.N,*%
X131750000Y-71170000D03*
X131750000Y-75730000D03*
X114750000Y-71220000D03*
X148770000Y-75730000D03*
X132000000Y-59275000D03*
X114750000Y-75780000D03*
X148770000Y-71170000D03*
X149020925Y-59310459D03*
%TO.N,Net-(J1-Pin_1)*%
X108325000Y-39900000D03*
%TO.N,Net-(J1-Pin_4)*%
X121675000Y-39900000D03*
X125375000Y-39900000D03*
D18*
%TO.N,Net-(J3-Pin_4)*%
X142400000Y-42450000D03*
D17*
X138725000Y-39900000D03*
D18*
%TO.N,Net-(J5-Pin_4)*%
X155300000Y-38800000D03*
D17*
%TO.N,Net-(J10-Pin_1)*%
X114900000Y-59275000D03*
%TO.N,Net-(J11-Pin_1)*%
X149020925Y-53960459D03*
X114900000Y-53925000D03*
X132000000Y-53925000D03*
%TD*%
D19*
%TO.N,Net-(J11-Pin_1)*%
X123500000Y-52915000D02*
X123500000Y-55850000D01*
X120085000Y-49500000D02*
X123500000Y-52915000D01*
%TO.N,Net-(J10-Pin_1)*%
X123500000Y-60325000D02*
X126925000Y-63750000D01*
X123500000Y-57150000D02*
X123500000Y-60325000D01*
%TO.N,Net-(J15-Pin_4)*%
X140500000Y-69915000D02*
X140500000Y-72350000D01*
X137085000Y-66500000D02*
X140500000Y-69915000D01*
%TO.N,Net-(J16-Pin_4)*%
X140500000Y-76825000D02*
X140500000Y-73650000D01*
X143925000Y-80250000D02*
X140500000Y-76825000D01*
%TO.N,Net-(J13-Pin_4)*%
X123500000Y-69915000D02*
X123500000Y-72350000D01*
X120085000Y-66500000D02*
X123500000Y-69915000D01*
%TO.N,Net-(J14-Pin_4)*%
X123500000Y-76825000D02*
X123500000Y-73650000D01*
X126925000Y-80250000D02*
X123500000Y-76825000D01*
%TO.N,Net-(J10-Pin_4)*%
X140500000Y-60325000D02*
X143925000Y-63750000D01*
X140500000Y-57150000D02*
X140500000Y-60325000D01*
%TO.N,Net-(J11-Pin_1)*%
X140500000Y-52915000D02*
X137085000Y-49500000D01*
X140500000Y-55850000D02*
X140500000Y-52915000D01*
D20*
%TO.N,Net-(J1-Pin_1)*%
X114125000Y-38000000D02*
X109325000Y-38000000D01*
X107000000Y-39900000D02*
X107000000Y-38700000D01*
X107300000Y-39900000D02*
X107300000Y-38700000D01*
X114000000Y-42400000D02*
X108900000Y-42400000D01*
X110500000Y-43025000D02*
X109925000Y-43600000D01*
X107600000Y-40350000D02*
X107600000Y-38700000D01*
X114000000Y-37400000D02*
X108900000Y-37400000D01*
X112465000Y-46800000D02*
X110500000Y-44835000D01*
X113875000Y-43000000D02*
X110500000Y-43000000D01*
X110500000Y-44835000D02*
X110500000Y-43025000D01*
X107300000Y-39900000D02*
X107300000Y-40800000D01*
X110500000Y-43000000D02*
X110500000Y-43025000D01*
X108325000Y-39900000D02*
X108325000Y-39000000D01*
X107600000Y-39900000D02*
X107600000Y-40800000D01*
X113925000Y-42700000D02*
X108900000Y-42700000D01*
X113875000Y-36800000D02*
X108900000Y-36800000D01*
X114050000Y-37700000D02*
X108900000Y-37700000D01*
X109925000Y-43600000D02*
X109925000Y-46800000D01*
X114125000Y-41800000D02*
X108900000Y-41800000D01*
X107900000Y-40800000D02*
X107900000Y-38700000D01*
X107000000Y-39900000D02*
X107000000Y-40800000D01*
X113925000Y-37100000D02*
X108900000Y-37100000D01*
X114050000Y-42100000D02*
X108900000Y-42100000D01*
X113927503Y-42694279D02*
G75*
G03*
X115150000Y-42949999I1222497J2794279D01*
G01*
X107000000Y-40800000D02*
G75*
G03*
X108900000Y-42700000I1900000J0D01*
G01*
X107600000Y-40800000D02*
G75*
G03*
X108900000Y-42100000I1300000J0D01*
G01*
X114054327Y-42091347D02*
G75*
G03*
X115150000Y-42350000I1095673J2191347D01*
G01*
X115150000Y-42050000D02*
G75*
G03*
X114129201Y-38007787I0J2150000D01*
G01*
X109325000Y-38000000D02*
G75*
G03*
X108325000Y-39000000I0J-1000000D01*
G01*
X108900000Y-37400000D02*
G75*
G03*
X107600000Y-38700000I0J-1300000D01*
G01*
X115150000Y-42650000D02*
G75*
G03*
X114000760Y-37401651I0J2750000D01*
G01*
X107900000Y-40800000D02*
G75*
G03*
X108900000Y-41800000I1000000J0D01*
G01*
X115150000Y-42950000D02*
G75*
G03*
X113927503Y-37105720I0J3050000D01*
G01*
X113875745Y-42998189D02*
G75*
G03*
X115150000Y-43250000I1274255J3098189D01*
G01*
X108900000Y-37100000D02*
G75*
G03*
X107300000Y-38700000I0J-1600000D01*
G01*
X108900000Y-37700000D02*
G75*
G03*
X107900000Y-38700000I0J-1000000D01*
G01*
X114129201Y-41792213D02*
G75*
G03*
X115150000Y-42050000I1020799J1892213D01*
G01*
X108900000Y-36800000D02*
G75*
G03*
X107000000Y-38700000I0J-1900000D01*
G01*
X115150000Y-43250000D02*
G75*
G03*
X113875745Y-36801811I0J3350000D01*
G01*
X114000760Y-42398349D02*
G75*
G03*
X115150000Y-42650000I1149240J2498349D01*
G01*
X107300000Y-40800000D02*
G75*
G03*
X108900000Y-42400000I1600000J0D01*
G01*
X115150000Y-42350000D02*
G75*
G03*
X114054327Y-37708653I0J2450000D01*
G01*
D21*
%TO.N,Net-(J3-Pin_4)*%
X138174352Y-42624352D02*
X133124127Y-42622428D01*
X138175000Y-37175000D02*
X133125000Y-37175000D01*
X137725000Y-37875000D02*
X133000000Y-37875000D01*
X138174992Y-37525008D02*
X133075000Y-37525047D01*
X134595000Y-46750000D02*
X135900000Y-45445000D01*
X139175000Y-39900000D02*
X139175000Y-38525008D01*
X135900000Y-42975000D02*
X133275000Y-42974977D01*
X135900000Y-45445000D02*
X135900000Y-42975000D01*
X138174990Y-42274990D02*
X133075000Y-42274953D01*
X137135000Y-44210000D02*
X135900000Y-42975000D01*
X139525000Y-39900000D02*
X139525000Y-38525011D01*
X138175000Y-36825000D02*
X133275000Y-36825023D01*
X138170951Y-41945935D02*
X133000000Y-41925000D01*
X139875000Y-39900000D02*
X139875000Y-40924352D01*
X139175000Y-39900000D02*
X139175000Y-40945943D01*
X139525000Y-39900000D02*
X139525000Y-40924990D01*
X138725000Y-39900000D02*
X138725000Y-38875000D01*
X137135000Y-46750000D02*
X137135000Y-44210000D01*
X139875000Y-39900000D02*
X139875000Y-38525000D01*
X132200000Y-36645000D02*
G75*
G02*
X133274185Y-36827354I0J-3255000D01*
G01*
X138175000Y-37175000D02*
G75*
G02*
X139525000Y-38525011I0J-1350000D01*
G01*
X132200000Y-37025000D02*
G75*
G02*
X133124127Y-37177572I0J-2875000D01*
G01*
X132200000Y-37725000D02*
G75*
G02*
X132999156Y-37877137I0J-2175000D01*
G01*
X137725000Y-37875000D02*
G75*
G02*
X138725000Y-38875000I0J-1000000D01*
G01*
X133072921Y-42269311D02*
G75*
G02*
X132200000Y-37375000I-872921J2369311D01*
G01*
X138175000Y-36825000D02*
G75*
G02*
X139875000Y-38525000I0J-1700000D01*
G01*
X139525000Y-40924990D02*
G75*
G02*
X138174990Y-42275000I-1350000J-10D01*
G01*
X139875000Y-40924352D02*
G75*
G02*
X138174352Y-42624400I-1700000J-48D01*
G01*
X133274185Y-42972646D02*
G75*
G02*
X132200000Y-36645000I-1074185J3072646D01*
G01*
X133124127Y-42622427D02*
G75*
G02*
X132200000Y-37025001I-924127J2722427D01*
G01*
X132999156Y-41922863D02*
G75*
G02*
X132200000Y-37725000I-799156J2022863D01*
G01*
X138174992Y-37525008D02*
G75*
G02*
X139174992Y-38525008I8J-999992D01*
G01*
X139175000Y-40945943D02*
G75*
G02*
X138170951Y-41945892I-1000000J43D01*
G01*
X132200000Y-37375000D02*
G75*
G02*
X133072921Y-37530689I0J-2525000D01*
G01*
D22*
%TO.N,Net-(J5-Pin_4)*%
X153850000Y-37350000D02*
X150050000Y-37350000D01*
X153850000Y-37350000D02*
X155300000Y-38800000D01*
X152821681Y-43378319D02*
X151891585Y-42448224D01*
X151891585Y-42448224D02*
X151573224Y-42448224D01*
X151573224Y-42448224D02*
X150050000Y-42450000D01*
D21*
X151535000Y-46800000D02*
X152650000Y-45685000D01*
D22*
X154075000Y-46800000D02*
X154075000Y-44631639D01*
X154075000Y-44631639D02*
X152821681Y-43378319D01*
D21*
X152650000Y-45685000D02*
X152650000Y-43550000D01*
X152650000Y-43550000D02*
X152821681Y-43378319D01*
D22*
X150050000Y-42450000D02*
G75*
G02*
X150050000Y-37350000I-1050000J2550000D01*
G01*
D23*
%TO.N,Net-(J11-Pin_1)*%
X130500000Y-50535000D02*
X130500000Y-52500000D01*
D20*
X153720925Y-49485459D02*
X150570925Y-52635459D01*
D24*
X150725977Y-53127924D02*
X150570925Y-52610459D01*
D23*
X109825000Y-49500000D02*
X110400000Y-49500000D01*
X112365000Y-49500000D02*
X113400000Y-50535000D01*
X126925000Y-49500000D02*
X127500000Y-49500000D01*
X127500000Y-49500000D02*
X130500000Y-52500000D01*
D20*
X150570925Y-50470459D02*
X150570925Y-52635459D01*
D25*
X113289228Y-53125189D02*
X113370000Y-52530000D01*
D23*
X110400000Y-49500000D02*
X113400000Y-52500000D01*
D25*
X130389228Y-53125189D02*
X130470000Y-52530000D01*
D20*
X151555925Y-49485459D02*
X150570925Y-50470459D01*
D23*
X113400000Y-50535000D02*
X113400000Y-52500000D01*
X129465000Y-49500000D02*
X130500000Y-50535000D01*
D24*
X148300485Y-53612660D02*
G75*
G02*
X149806311Y-53808448I720415J-347840D01*
G01*
X149378695Y-59131574D02*
G75*
G02*
X149420940Y-59310459I-357795J-178926D01*
G01*
D25*
X115470000Y-59260018D02*
G75*
G02*
X114330000Y-59260003I-570000J18D01*
G01*
D24*
X149995924Y-60010459D02*
G75*
G02*
X147909996Y-59764930I-975024J699959D01*
G01*
X148242773Y-59436302D02*
G75*
G02*
X148446922Y-53785766I778147J2800842D01*
G01*
X148620926Y-53960459D02*
G75*
G02*
X149378669Y-54139331I399974J-41D01*
G01*
X152920925Y-56635459D02*
G75*
G02*
X150560538Y-60218754I-3900025J-41D01*
G01*
D25*
X111070000Y-56600000D02*
G75*
G02*
X113289228Y-53125189I3830000J0D01*
G01*
D24*
X149620925Y-59310459D02*
G75*
G02*
X148420925Y-59310459I-600000J0D01*
G01*
D25*
X114900000Y-53939982D02*
G75*
G02*
X117560018Y-56600000I0J-2660018D01*
G01*
D24*
X147806117Y-52919194D02*
G75*
G02*
X150420722Y-53185571I1214783J-1041306D01*
G01*
X151920925Y-56635459D02*
G75*
G02*
X149797237Y-59429681I-2900025J-41D01*
G01*
X147925109Y-53088787D02*
G75*
G02*
X150287842Y-53364263I1095791J-871713D01*
G01*
X150725977Y-53127924D02*
G75*
G02*
X152920948Y-56635459I-1705077J-3507576D01*
G01*
D25*
X133493695Y-60209635D02*
G75*
G02*
X130471448Y-60152447I-1493695J949635D01*
G01*
D24*
X149871987Y-59836115D02*
G75*
G02*
X148067012Y-59611695I-851087J525615D01*
G01*
X149611850Y-54000918D02*
G75*
G02*
X151720945Y-56635459I-590950J-2634582D01*
G01*
X152520925Y-56635459D02*
G75*
G02*
X150285008Y-59899272I-3500025J-41D01*
G01*
X149420925Y-59310459D02*
G75*
G02*
X148663128Y-59131561I-400025J-41D01*
G01*
D25*
X131414412Y-59194761D02*
G75*
G02*
X129339982Y-56600000I585588J2594761D01*
G01*
X132570000Y-59260018D02*
G75*
G02*
X131430000Y-59260003I-570000J18D01*
G01*
D24*
X148074782Y-59587545D02*
G75*
G02*
X145920947Y-56635459I946118J2952045D01*
G01*
X150140525Y-59743032D02*
G75*
G02*
X147909985Y-59764935I-1119625J432532D01*
G01*
X148242773Y-59436302D02*
G75*
G02*
X148446922Y-53785766I778147J2800842D01*
G01*
X148666223Y-59110168D02*
G75*
G02*
X149020925Y-54135461I354707J2474708D01*
G01*
X148045926Y-53260460D02*
G75*
G02*
X150131789Y-53506015I974974J-700040D01*
G01*
D25*
X130914339Y-53503706D02*
G75*
G02*
X131981986Y-52770091I1085661J-436294D01*
G01*
D24*
X151720925Y-56635459D02*
G75*
G02*
X149611863Y-59270058I-2700025J-41D01*
G01*
X152720925Y-56635459D02*
G75*
G02*
X150412093Y-60064023I-3700025J-41D01*
G01*
X150235734Y-60351724D02*
G75*
G02*
X147621068Y-60085380I-1214834J1041224D01*
G01*
X149806349Y-59462477D02*
G75*
G02*
X148235501Y-59462477I-785424J152018D01*
G01*
X148620926Y-53960459D02*
G75*
G02*
X149378669Y-54139331I399974J-41D01*
G01*
X145120925Y-56635459D02*
G75*
G02*
X147809172Y-52928544I3899975J-41D01*
G01*
X152320925Y-56635459D02*
G75*
G02*
X150139491Y-59740161I-3300025J-41D01*
G01*
X151720925Y-56635459D02*
G75*
G02*
X149611863Y-59270058I-2700025J-41D01*
G01*
X145520925Y-56635459D02*
G75*
G02*
X148049552Y-53273015I3499975J-41D01*
G01*
D25*
X133085661Y-59696294D02*
G75*
G02*
X130928286Y-59729512I-1085661J436294D01*
G01*
D24*
X145920925Y-56635459D02*
G75*
G02*
X148302229Y-53619981I3099975J-41D01*
G01*
X149620925Y-59310459D02*
G75*
G02*
X148420925Y-59310459I-600000J0D01*
G01*
X149871987Y-59836115D02*
G75*
G02*
X148067012Y-59611695I-851087J525615D01*
G01*
X150420752Y-60085364D02*
G75*
G02*
X147621098Y-60085364I-1399827J774905D01*
G01*
X152920925Y-56635459D02*
G75*
G02*
X150560538Y-60218754I-3900025J-41D01*
G01*
X149375628Y-54160751D02*
G75*
G02*
X151520943Y-56635459I-354728J-2474749D01*
G01*
D25*
X135240000Y-56600000D02*
G75*
G02*
X133113632Y-59642602I-3240000J0D01*
G01*
X118730000Y-56600000D02*
G75*
G02*
X116443790Y-60105084I-3830000J0D01*
G01*
X135830000Y-56600000D02*
G75*
G02*
X133543790Y-60105084I-3830000J0D01*
G01*
D24*
X149375628Y-54160751D02*
G75*
G02*
X151520943Y-56635459I-354728J-2474749D01*
G01*
X151520925Y-56635459D02*
G75*
G02*
X149375637Y-59110230I-2500025J-41D01*
G01*
X148446922Y-53785762D02*
G75*
G02*
X149620887Y-53960459I573978J-174738D01*
G01*
X150284988Y-53371698D02*
G75*
G02*
X152520946Y-56635459I-1264088J-3263802D01*
G01*
X145720925Y-56635459D02*
G75*
G02*
X148172929Y-53446334I3299975J-41D01*
G01*
X149420925Y-59310459D02*
G75*
G02*
X148663128Y-59131561I-400025J-41D01*
G01*
X148169864Y-53434803D02*
G75*
G02*
X149974769Y-53659245I851036J-525697D01*
G01*
D25*
X128170000Y-56600000D02*
G75*
G02*
X130389228Y-53125189I3830000J0D01*
G01*
D24*
X149974803Y-59611684D02*
G75*
G02*
X148067047Y-59611684I-953878J301225D01*
G01*
D25*
X134660018Y-56600000D02*
G75*
G02*
X132571728Y-59197850I-2660018J0D01*
G01*
D24*
X149967067Y-53683372D02*
G75*
G02*
X152120947Y-56635459I-946167J-2952128D01*
G01*
X148169864Y-53434803D02*
G75*
G02*
X149974769Y-53659245I851036J-525697D01*
G01*
X150287873Y-59906670D02*
G75*
G02*
X147753977Y-59906670I-1266948J596211D01*
G01*
D25*
X128760000Y-56600000D02*
G75*
G02*
X130843649Y-53573376I3240000J0D01*
G01*
D24*
X150566608Y-60232883D02*
G75*
G02*
X147468773Y-60222040I-1545708J922383D01*
G01*
X145320925Y-56635459D02*
G75*
G02*
X147928698Y-53100403I3699975J-41D01*
G01*
D25*
X113814339Y-53503706D02*
G75*
G02*
X114881986Y-52770091I1085661J-436294D01*
G01*
D24*
X150287873Y-59906670D02*
G75*
G02*
X147753977Y-59906670I-1266948J596211D01*
G01*
D25*
X130429115Y-60093024D02*
G75*
G02*
X128170001Y-56600000I1570885J3493024D01*
G01*
X132000000Y-52770000D02*
G75*
G02*
X135830000Y-56600000I0J-3830000D01*
G01*
D24*
X150412072Y-53206945D02*
G75*
G02*
X152720947Y-56635459I-1391172J-3428555D01*
G01*
X147806117Y-52919194D02*
G75*
G02*
X150420722Y-53185571I1214783J-1041306D01*
G01*
X148620925Y-53960459D02*
G75*
G02*
X149378670Y-54139331I399975J-41D01*
G01*
X149611850Y-54000918D02*
G75*
G02*
X151720945Y-56635459I-590950J-2634582D01*
G01*
X148620925Y-53960459D02*
G75*
G02*
X149378670Y-54139331I399975J-41D01*
G01*
X150116741Y-60182131D02*
G75*
G02*
X147753946Y-59906684I-1095841J871631D01*
G01*
X151920925Y-56635459D02*
G75*
G02*
X149797237Y-59429681I-2900025J-41D01*
G01*
X148300485Y-53612660D02*
G75*
G02*
X149806311Y-53808448I720415J-347840D01*
G01*
X147471987Y-60214675D02*
G75*
G02*
X145120948Y-56635459I1548913J3579175D01*
G01*
X152320925Y-56635459D02*
G75*
G02*
X150139491Y-59740161I-3300025J-41D01*
G01*
X147629777Y-60063972D02*
G75*
G02*
X145320948Y-56635459I1391123J3428472D01*
G01*
X149420924Y-59310459D02*
G75*
G02*
X148663129Y-59131561I-400024J-41D01*
G01*
D25*
X132000000Y-53939982D02*
G75*
G02*
X134660018Y-56600000I0J-2660018D01*
G01*
D24*
X147916980Y-59745330D02*
G75*
G02*
X145720948Y-56635459I1103920J3109830D01*
G01*
D25*
X114900000Y-53360000D02*
G75*
G02*
X118140000Y-56600000I0J-3240000D01*
G01*
D24*
X145320925Y-56635459D02*
G75*
G02*
X147928698Y-53100403I3699975J-41D01*
G01*
X151520925Y-56635459D02*
G75*
G02*
X149375637Y-59110230I-2500025J-41D01*
G01*
X145120925Y-56635459D02*
G75*
G02*
X147809172Y-52928544I3899975J-41D01*
G01*
X145520925Y-56635459D02*
G75*
G02*
X148049552Y-53273015I3499975J-41D01*
G01*
X150124870Y-53525588D02*
G75*
G02*
X152320946Y-56635459I-1103970J-3109912D01*
G01*
X149594928Y-59485156D02*
G75*
G02*
X148420889Y-59310459I-574028J174656D01*
G01*
D25*
X130887220Y-59642912D02*
G75*
G02*
X128760001Y-56600000I1112780J3042912D01*
G01*
X112239982Y-56600000D02*
G75*
G02*
X114264351Y-54017047I2660018J0D01*
G01*
D24*
X149378695Y-59131574D02*
G75*
G02*
X149420940Y-59310459I-357795J-178926D01*
G01*
X148428962Y-59274625D02*
G75*
G02*
X148620925Y-53960462I591968J2639165D01*
G01*
D25*
X118140000Y-56600000D02*
G75*
G02*
X116013632Y-59642602I-3240000J0D01*
G01*
X114314412Y-59194761D02*
G75*
G02*
X112239982Y-56600000I585588J2594761D01*
G01*
D24*
X149797222Y-53841293D02*
G75*
G02*
X151920946Y-56635459I-776322J-2794207D01*
G01*
X148428962Y-59274625D02*
G75*
G02*
X148620925Y-53960462I591968J2639165D01*
G01*
D25*
X111660000Y-56600000D02*
G75*
G02*
X113743649Y-53573376I3240000J0D01*
G01*
X113329115Y-60093024D02*
G75*
G02*
X111070001Y-56600000I1570885J3493024D01*
G01*
X117560018Y-56600000D02*
G75*
G02*
X115471728Y-59197850I-2660018J0D01*
G01*
D24*
X145720925Y-56635459D02*
G75*
G02*
X148172929Y-53446334I3299975J-41D01*
G01*
X147471987Y-60214675D02*
G75*
G02*
X145120948Y-56635459I1548913J3579175D01*
G01*
X149797222Y-53841293D02*
G75*
G02*
X151920946Y-56635459I-776322J-2794207D01*
G01*
D25*
X114900000Y-52770000D02*
G75*
G02*
X118730000Y-56600000I0J-3830000D01*
G01*
D24*
X150566608Y-60232883D02*
G75*
G02*
X147468773Y-60222040I-1545708J922383D01*
G01*
X152120925Y-56635459D02*
G75*
G02*
X149967085Y-59587599I-3100025J-41D01*
G01*
D25*
X113787220Y-59642912D02*
G75*
G02*
X111660001Y-56600000I1112780J3042912D01*
G01*
D24*
X147925109Y-53088787D02*
G75*
G02*
X150287842Y-53364263I1095791J-871713D01*
G01*
X152720925Y-56635459D02*
G75*
G02*
X150412093Y-60064023I-3700025J-41D01*
G01*
D25*
X115985661Y-59696294D02*
G75*
G02*
X113828286Y-59729512I-1085661J436294D01*
G01*
D24*
X150124870Y-53525588D02*
G75*
G02*
X152320946Y-56635459I-1103970J-3109912D01*
G01*
X147756862Y-59899221D02*
G75*
G02*
X145520948Y-56635459I1264038J3263721D01*
G01*
X150412072Y-53206945D02*
G75*
G02*
X152720947Y-56635459I-1391172J-3428555D01*
G01*
X147629777Y-60063972D02*
G75*
G02*
X145320948Y-56635459I1391123J3428472D01*
G01*
X148074782Y-59587545D02*
G75*
G02*
X145920947Y-56635459I946118J2952045D01*
G01*
X149741366Y-59658258D02*
G75*
G02*
X148235466Y-59462484I-720466J347758D01*
G01*
X150420752Y-60085364D02*
G75*
G02*
X147621098Y-60085364I-1399827J774905D01*
G01*
X149806349Y-59462477D02*
G75*
G02*
X148235501Y-59462477I-785424J152018D01*
G01*
X149974803Y-59611684D02*
G75*
G02*
X148067047Y-59611684I-953878J301225D01*
G01*
D25*
X129339982Y-56600000D02*
G75*
G02*
X131364351Y-54017047I2660018J0D01*
G01*
X131420018Y-53939996D02*
G75*
G02*
X132000000Y-53360018I579982J-4D01*
G01*
D24*
X149995924Y-60010459D02*
G75*
G02*
X147909996Y-59764930I-975024J699959D01*
G01*
X148446922Y-53785762D02*
G75*
G02*
X149620887Y-53960459I573978J-174738D01*
G01*
X147756862Y-59899221D02*
G75*
G02*
X145520948Y-56635459I1264038J3263721D01*
G01*
X147916980Y-59745330D02*
G75*
G02*
X145720948Y-56635459I1103920J3109830D01*
G01*
X148045926Y-53260460D02*
G75*
G02*
X150131789Y-53506015I974974J-700040D01*
G01*
X149967067Y-53683372D02*
G75*
G02*
X152120947Y-56635459I-946167J-2952128D01*
G01*
D25*
X114320018Y-53939996D02*
G75*
G02*
X114900000Y-53360018I579982J-4D01*
G01*
D24*
X150140525Y-59743032D02*
G75*
G02*
X147909985Y-59764935I-1119625J432532D01*
G01*
X150235734Y-60351724D02*
G75*
G02*
X147621068Y-60085380I-1214834J1041224D01*
G01*
X149594928Y-59485156D02*
G75*
G02*
X148420889Y-59310459I-574028J174656D01*
G01*
X152120925Y-56635459D02*
G75*
G02*
X149967085Y-59587599I-3100025J-41D01*
G01*
X152520925Y-56635459D02*
G75*
G02*
X150285008Y-59899272I-3500025J-41D01*
G01*
X150116741Y-60182131D02*
G75*
G02*
X147753946Y-59906684I-1095841J871631D01*
G01*
X149420924Y-59310459D02*
G75*
G02*
X148663129Y-59131561I-400024J-41D01*
G01*
X145920925Y-56635459D02*
G75*
G02*
X148302229Y-53619981I3099975J-41D01*
G01*
X148666223Y-59110168D02*
G75*
G02*
X149020925Y-54135461I354707J2474708D01*
G01*
X150725977Y-53127924D02*
G75*
G02*
X152920948Y-56635459I-1705077J-3507576D01*
G01*
X149741366Y-59658258D02*
G75*
G02*
X148235466Y-59462484I-720466J347758D01*
G01*
X150284988Y-53371698D02*
G75*
G02*
X152520946Y-56635459I-1264088J-3263802D01*
G01*
D25*
X116393695Y-60209635D02*
G75*
G02*
X113371448Y-60152447I-1493695J949635D01*
G01*
X132000000Y-53360000D02*
G75*
G02*
X135240000Y-56600000I0J-3240000D01*
G01*
D26*
%TO.N,Net-(J2-Pin_3)*%
X115005000Y-49500000D02*
X115005000Y-46750000D01*
%TO.N,Net-(J4-Pin_3)*%
X132005000Y-49500000D02*
X132005000Y-46750000D01*
%TO.N,Net-(J11-Pin_3)*%
X149005000Y-49500000D02*
X149005000Y-46750000D01*
%TO.N,Net-(J13-Pin_3)*%
X115005000Y-66500000D02*
X115005000Y-63750000D01*
%TO.N,Net-(J12-Pin_3)*%
X149005000Y-66500000D02*
X149005000Y-63750000D01*
%TO.N,Net-(J10-Pin_3)*%
X132005000Y-66500000D02*
X132005000Y-63750000D01*
D20*
%TO.N,Net-(J13-Pin_4)*%
X116455000Y-70180000D02*
X116250000Y-70180000D01*
X117545000Y-66550000D02*
X116250000Y-67845000D01*
X116250000Y-67845000D02*
X116250000Y-70180000D01*
X120085000Y-66550000D02*
X116455000Y-70180000D01*
%TO.N,Net-(J15-Pin_4)*%
X134545000Y-66500000D02*
X133250000Y-67795000D01*
X133250000Y-67795000D02*
X133250000Y-70130000D01*
X133455000Y-70130000D02*
X133250000Y-70130000D01*
X137085000Y-66500000D02*
X133455000Y-70130000D01*
%TO.N,Net-(J16-Pin_4)*%
X147190000Y-79520000D02*
X147190000Y-76630000D01*
X143945000Y-80250000D02*
X143945000Y-79875000D01*
X146485000Y-80225000D02*
X147190000Y-79520000D01*
X146485000Y-80250000D02*
X146485000Y-80225000D01*
X143945000Y-79875000D02*
X147190000Y-76630000D01*
%TD*%
M02*
