M48
; DRILL file {KiCad 8.0.0} date 2024-05-13T09:11:19+0200
; FORMAT={-:-/ absolute / metric / decimal}
; #@! TF.CreationDate,2024-05-13T09:11:19+02:00
; #@! TF.GenerationSoftware,Kicad,Pcbnew,8.0.0
; #@! TF.FileFunction,Plated,1,4,PTH
FMAT,2
METRIC
; #@! TA.AperFunction,Plated,PTH,ViaDrill
T1C0.200
; #@! TA.AperFunction,Plated,PTH,ViaDrill
T2C0.800
; #@! TA.AperFunction,Plated,PTH,ComponentDrill
T3C1.000
%
G90
G05
T1
X108.325Y-39.9
X114.75Y-71.22
X114.75Y-75.78
X114.9Y-53.925
X114.9Y-59.275
X121.675Y-39.9
X125.375Y-39.9
X131.75Y-71.17
X131.75Y-75.73
X132.0Y-53.925
X132.0Y-59.275
X138.725Y-39.9
X148.77Y-71.17
X148.77Y-75.73
X149.021Y-53.96
X149.021Y-59.31
T2
X142.4Y-42.45
X155.3Y-38.8
T3
X109.925Y-33.0
X109.925Y-46.75
X109.925Y-49.5
X109.925Y-63.75
X109.925Y-66.5
X109.925Y-80.25
X112.465Y-33.0
X112.465Y-46.75
X112.465Y-49.5
X112.465Y-63.75
X112.465Y-66.5
X112.465Y-80.25
X115.005Y-33.0
X115.005Y-46.75
X115.005Y-49.5
X115.005Y-63.75
X115.005Y-66.5
X115.005Y-80.25
X117.545Y-33.0
X117.545Y-46.75
X117.545Y-49.5
X117.545Y-63.75
X117.545Y-66.5
X117.545Y-80.25
X120.085Y-33.0
X120.085Y-46.75
X120.085Y-49.5
X120.085Y-63.75
X120.085Y-66.5
X120.085Y-80.25
X126.925Y-33.0
X126.925Y-46.75
X126.925Y-49.5
X126.925Y-63.75
X126.925Y-66.5
X126.925Y-80.25
X129.465Y-33.0
X129.465Y-46.75
X129.465Y-49.5
X129.465Y-63.75
X129.465Y-66.5
X129.465Y-80.25
X132.005Y-33.0
X132.005Y-46.75
X132.005Y-49.5
X132.005Y-63.75
X132.005Y-66.5
X132.005Y-80.25
X134.545Y-33.0
X134.545Y-46.75
X134.545Y-49.5
X134.545Y-63.75
X134.545Y-66.5
X134.545Y-80.25
X137.085Y-33.0
X137.085Y-46.75
X137.085Y-49.5
X137.085Y-63.75
X137.085Y-66.5
X137.085Y-80.25
X143.925Y-33.0
X143.925Y-46.75
X143.925Y-49.5
X143.925Y-63.75
X143.925Y-66.5
X143.925Y-80.25
X146.465Y-33.0
X146.465Y-46.75
X146.465Y-49.5
X146.465Y-63.75
X146.465Y-66.5
X146.465Y-80.25
X149.005Y-33.0
X149.005Y-46.75
X149.005Y-49.5
X149.005Y-63.75
X149.005Y-66.5
X149.005Y-80.25
X151.545Y-33.0
X151.545Y-46.75
X151.545Y-49.5
X151.545Y-63.75
X151.545Y-66.5
X151.545Y-80.25
X154.085Y-33.0
X154.085Y-46.75
X154.085Y-49.5
X154.085Y-63.75
X154.085Y-66.5
X154.085Y-80.25
M30
