%TF.GenerationSoftware,KiCad,Pcbnew,7.0.10*%
%TF.CreationDate,2024-02-14T10:35:43+01:00*%
%TF.ProjectId,Planar_XFMR,506c616e-6172-45f5-9846-4d522e6b6963,A*%
%TF.SameCoordinates,Original*%
%TF.FileFunction,Copper,L2,Inr*%
%TF.FilePolarity,Positive*%
%FSLAX46Y46*%
G04 Gerber Fmt 4.6, Leading zero omitted, Abs format (unit mm)*
G04 Created by KiCad (PCBNEW 7.0.10) date 2024-02-14 10:35:43*
%MOMM*%
%LPD*%
G01*
G04 APERTURE LIST*
%TA.AperFunction,NonConductor*%
%ADD10C,0.100000*%
%TD*%
%TA.AperFunction,NonConductor*%
%ADD11C,0.200000*%
%TD*%
%TA.AperFunction,ComponentPad*%
%ADD12R,1.700000X1.700000*%
%TD*%
%TA.AperFunction,ComponentPad*%
%ADD13O,1.700000X1.700000*%
%TD*%
%TA.AperFunction,ViaPad*%
%ADD14C,0.450000*%
%TD*%
%TA.AperFunction,Conductor*%
%ADD15C,0.200000*%
%TD*%
G04 APERTURE END LIST*
D10*
X147925109Y-60182131D02*
G75*
G03*
X150287873Y-59906670I1095816J871672D01*
G01*
X149620925Y-53960459D02*
G75*
G03*
X148420925Y-53960459I-600000J0D01*
G01*
X149967067Y-59587546D02*
G75*
G03*
X152120925Y-56635459I-946142J2952087D01*
G01*
X148300484Y-59658258D02*
G75*
G03*
X149806349Y-59462477I720441J347799D01*
G01*
X151520924Y-56635459D02*
G75*
G03*
X149375628Y-54160751I-2499999J0D01*
G01*
X148428962Y-53996292D02*
G75*
G03*
X148620925Y-59310459I591963J-2639167D01*
G01*
X149995925Y-53260459D02*
G75*
G03*
X147910028Y-53506001I-975000J-700000D01*
G01*
X149871986Y-53434804D02*
G75*
G03*
X148067048Y-53659234I-851061J-525655D01*
G01*
X148045925Y-60010459D02*
G75*
G03*
X150131822Y-59764917I975000J700000D01*
G01*
X145320926Y-56635459D02*
G75*
G03*
X147928681Y-60170568I3699999J0D01*
G01*
X149741366Y-53612660D02*
G75*
G03*
X148235501Y-53808441I-720441J-347799D01*
G01*
X145520925Y-56635459D02*
G75*
G03*
X148049536Y-59997959I3500000J0D01*
G01*
X149594929Y-53785762D02*
G75*
G03*
X148420925Y-53960459I-574004J-174697D01*
G01*
X149378696Y-54139344D02*
G75*
G03*
X149420925Y-53960459I-357771J178885D01*
G01*
X148666223Y-54160750D02*
G75*
G03*
X149020925Y-59135459I354702J-2474709D01*
G01*
X147806117Y-60351723D02*
G75*
G03*
X150420751Y-60085364I1214808J1041264D01*
G01*
X145120926Y-56635459D02*
G75*
G03*
X147809155Y-60342426I3899999J0D01*
G01*
X148169864Y-59836114D02*
G75*
G03*
X149974802Y-59611684I851061J525655D01*
G01*
X149420924Y-53960459D02*
G75*
G03*
X148663155Y-54139344I-399999J0D01*
G01*
X152720925Y-56635459D02*
G75*
G03*
X150412073Y-53206945I-3700000J0D01*
G01*
X148446921Y-59485156D02*
G75*
G03*
X149620925Y-59310459I574004J174697D01*
G01*
X152520924Y-56635459D02*
G75*
G03*
X150284988Y-53371698I-3499999J0D01*
G01*
X150124870Y-59745331D02*
G75*
G03*
X152320925Y-56635459I-1103945J3109872D01*
G01*
X148620926Y-59310459D02*
G75*
G03*
X149378695Y-59131574I399999J0D01*
G01*
X151720924Y-56635459D02*
G75*
G03*
X149611850Y-54000919I-2699999J0D01*
G01*
X152920925Y-56635459D02*
G75*
G03*
X150560517Y-53052212I-3900000J0D01*
G01*
X150116741Y-53088787D02*
G75*
G03*
X147753977Y-53364248I-1095816J-871672D01*
G01*
X149974803Y-53659234D02*
G75*
G03*
X148067047Y-53659234I-953878J-301225D01*
G01*
X149797222Y-59429625D02*
G75*
G03*
X151920925Y-56635459I-776297J2794166D01*
G01*
X151920925Y-56635459D02*
G75*
G03*
X149797222Y-53841293I-2900000J0D01*
G01*
X145920925Y-56635459D02*
G75*
G03*
X148302215Y-59650995I3100000J0D01*
G01*
X149611850Y-59270000D02*
G75*
G03*
X151720925Y-56635459I-590925J2634541D01*
G01*
X150235733Y-52919195D02*
G75*
G03*
X147621099Y-53185554I-1214808J-1041264D01*
G01*
X150725977Y-60142994D02*
G75*
G03*
X152920925Y-56635459I-1705052J3507535D01*
G01*
X150412072Y-60063973D02*
G75*
G03*
X152720925Y-56635459I-1391147J3428514D01*
G01*
X147629777Y-53206945D02*
G75*
G03*
X145320925Y-56635459I1391148J-3428514D01*
G01*
X150140525Y-53527886D02*
G75*
G03*
X147910028Y-53506001I-1119600J-432573D01*
G01*
X149420924Y-53960459D02*
G75*
G03*
X148663155Y-54139344I-399999J0D01*
G01*
X149806349Y-53808441D02*
G75*
G03*
X148235501Y-53808441I-785424J-152018D01*
G01*
X147471987Y-53056242D02*
G75*
G03*
X145120925Y-56635459I1548938J-3579217D01*
G01*
X148620926Y-59310459D02*
G75*
G03*
X149378695Y-59131574I399999J0D01*
G01*
X150284988Y-59899221D02*
G75*
G03*
X152520925Y-56635459I-1264063J3263762D01*
G01*
X150420752Y-53185554D02*
G75*
G03*
X147621098Y-53185554I-1399827J-774905D01*
G01*
X152120924Y-56635459D02*
G75*
G03*
X149967068Y-53683374I-3099999J0D01*
G01*
X149375628Y-59110168D02*
G75*
G03*
X151520925Y-56635459I-354703J2474709D01*
G01*
X150566608Y-53038035D02*
G75*
G03*
X147468810Y-53048900I-1545683J-922424D01*
G01*
X147756862Y-53371697D02*
G75*
G03*
X145520925Y-56635459I1264063J-3263762D01*
G01*
X145720926Y-56635459D02*
G75*
G03*
X148172914Y-59824639I3299999J0D01*
G01*
X148074782Y-53683373D02*
G75*
G03*
X145920925Y-56635459I946143J-2952086D01*
G01*
X150287873Y-53364248D02*
G75*
G03*
X147753977Y-53364248I-1266948J-596211D01*
G01*
X147916980Y-53525587D02*
G75*
G03*
X145720925Y-56635459I1103945J-3109872D01*
G01*
X152320924Y-56635459D02*
G75*
G03*
X150139472Y-53530810I-3299999J0D01*
G01*
X148242773Y-53834615D02*
G75*
G03*
X148446921Y-59485155I778152J-2800844D01*
G01*
X150725977Y-60142994D02*
X150720925Y-60560459D01*
X133705052Y-60107535D02*
X133700000Y-60525000D01*
X131221848Y-53799156D02*
G75*
G03*
X131425996Y-59449696I778152J-2800844D01*
G01*
X131600001Y-59275000D02*
G75*
G03*
X132357770Y-59096115I399999J0D01*
G01*
X134699999Y-56600000D02*
G75*
G03*
X132590925Y-53965460I-2699999J0D01*
G01*
X132776297Y-59394166D02*
G75*
G03*
X134900000Y-56600000I-776297J2794166D01*
G01*
X134900000Y-56600000D02*
G75*
G03*
X132776297Y-53805834I-2900000J0D01*
G01*
X128900000Y-56600000D02*
G75*
G03*
X131281290Y-59615536I3100000J0D01*
G01*
X132590925Y-59234541D02*
G75*
G03*
X134700000Y-56600000I-590925J2634541D01*
G01*
X133214808Y-52883736D02*
G75*
G03*
X130600174Y-53150095I-1214808J-1041264D01*
G01*
X131279559Y-59622799D02*
G75*
G03*
X132785424Y-59427018I720441J347799D01*
G01*
X133095816Y-53053328D02*
G75*
G03*
X130733052Y-53328789I-1095816J-871672D01*
G01*
X132975000Y-53225000D02*
G75*
G03*
X130889103Y-53470542I-975000J-700000D01*
G01*
X131425996Y-59449697D02*
G75*
G03*
X132600000Y-59275000I574004J174697D01*
G01*
X132851061Y-53399345D02*
G75*
G03*
X131046123Y-53623775I-851061J-525655D01*
G01*
X131025000Y-59975000D02*
G75*
G03*
X133110897Y-59729458I975000J700000D01*
G01*
X135499999Y-56600000D02*
G75*
G03*
X133264063Y-53336239I-3499999J0D01*
G01*
X131645298Y-54125291D02*
G75*
G03*
X132000000Y-59100000I354702J-2474709D01*
G01*
X130785192Y-60316264D02*
G75*
G03*
X133399826Y-60049905I1214808J1041264D01*
G01*
X133103945Y-59709872D02*
G75*
G03*
X135300000Y-56600000I-1103945J3109872D01*
G01*
X128300001Y-56600000D02*
G75*
G03*
X130907756Y-60135109I3699999J0D01*
G01*
X132720441Y-53577201D02*
G75*
G03*
X131214576Y-53772982I-720441J-347799D01*
G01*
X135900000Y-56600000D02*
G75*
G03*
X133539592Y-53016753I-3900000J0D01*
G01*
X128500000Y-56600000D02*
G75*
G03*
X131028611Y-59962500I3500000J0D01*
G01*
X132574004Y-53750303D02*
G75*
G03*
X131400000Y-53925000I-574004J-174697D01*
G01*
X135700000Y-56600000D02*
G75*
G03*
X133391148Y-53171486I-3700000J0D01*
G01*
X128100001Y-56600000D02*
G75*
G03*
X130788230Y-60306967I3899999J0D01*
G01*
X132357771Y-54103885D02*
G75*
G03*
X132400000Y-53925000I-357771J178885D01*
G01*
X131148939Y-59800655D02*
G75*
G03*
X132953877Y-59576225I851061J525655D01*
G01*
X134499999Y-56600000D02*
G75*
G03*
X132354703Y-54125292I-2499999J0D01*
G01*
X130904184Y-60146672D02*
G75*
G03*
X133266948Y-59871211I1095816J871672D01*
G01*
X132600000Y-53925000D02*
G75*
G03*
X131400000Y-53925000I-600000J0D01*
G01*
X132399999Y-53925000D02*
G75*
G03*
X131642230Y-54103885I-399999J0D01*
G01*
X132946142Y-59552087D02*
G75*
G03*
X135100000Y-56600000I-946142J2952087D01*
G01*
X131408037Y-53960833D02*
G75*
G03*
X131600000Y-59275000I591963J-2639167D01*
G01*
X132953878Y-53623775D02*
G75*
G03*
X131046122Y-53623775I-953878J-301225D01*
G01*
X133119600Y-53492427D02*
G75*
G03*
X130889103Y-53470542I-1119600J-432573D01*
G01*
X133705052Y-60107535D02*
G75*
G03*
X135900000Y-56600000I-1705052J3507535D01*
G01*
X133391147Y-60028514D02*
G75*
G03*
X135700000Y-56600000I-1391147J3428514D01*
G01*
X130608852Y-53171486D02*
G75*
G03*
X128300000Y-56600000I1391148J-3428514D01*
G01*
X130451062Y-53020783D02*
G75*
G03*
X128100000Y-56600000I1548938J-3579217D01*
G01*
X131600001Y-59275000D02*
G75*
G03*
X132357770Y-59096115I399999J0D01*
G01*
X133264063Y-59863762D02*
G75*
G03*
X135500000Y-56600000I-1264063J3263762D01*
G01*
X130735937Y-53336238D02*
G75*
G03*
X128500000Y-56600000I1264063J-3263762D01*
G01*
X132354703Y-59074709D02*
G75*
G03*
X134500000Y-56600000I-354703J2474709D01*
G01*
X128700001Y-56600000D02*
G75*
G03*
X131151989Y-59789180I3299999J0D01*
G01*
X131053857Y-53647914D02*
G75*
G03*
X128900000Y-56600000I946143J-2952086D01*
G01*
X132399999Y-53925000D02*
G75*
G03*
X131642230Y-54103885I-399999J0D01*
G01*
X133545683Y-53002576D02*
G75*
G03*
X130447885Y-53013441I-1545683J-922424D01*
G01*
X133266948Y-53328789D02*
G75*
G03*
X130733052Y-53328789I-1266948J-596211D01*
G01*
X133399827Y-53150095D02*
G75*
G03*
X130600173Y-53150095I-1399827J-774905D01*
G01*
X132785424Y-53772982D02*
G75*
G03*
X131214576Y-53772982I-785424J-152018D01*
G01*
X130896055Y-53490128D02*
G75*
G03*
X128700000Y-56600000I1103945J-3109872D01*
G01*
X135099999Y-56600000D02*
G75*
G03*
X132946143Y-53647915I-3099999J0D01*
G01*
X135299999Y-56600000D02*
G75*
G03*
X133118547Y-53495351I-3299999J0D01*
G01*
D11*
X132496839Y-71101212D02*
G75*
G03*
X131004464Y-71088297I-746839J-68788D01*
G01*
X113511094Y-70702017D02*
G75*
G03*
X111690000Y-73500000I1238906J-2797983D01*
G01*
X128690000Y-73450000D02*
G75*
G03*
X130896250Y-76388488I3060000J0D01*
G01*
X131327683Y-71331687D02*
G75*
G03*
X129590000Y-73450000I422317J-2118313D01*
G01*
X132758110Y-70876376D02*
G75*
G03*
X130749038Y-70852864I-1008110J-293624D01*
G01*
X116584783Y-76302884D02*
G75*
G03*
X116228118Y-70493714I-1834783J2802884D01*
G01*
X130896306Y-76388444D02*
G75*
G03*
X132792292Y-76005626I853694J658444D01*
G01*
X132190541Y-75564598D02*
G75*
G03*
X132170058Y-71331238I-440541J2114598D01*
G01*
X115537114Y-75830674D02*
G75*
G03*
X115495425Y-71155660I-787114J2330674D01*
G01*
X114327683Y-71381687D02*
G75*
G03*
X112590000Y-73500000I422317J-2118313D01*
G01*
X128399987Y-73450000D02*
G75*
G03*
X130723967Y-76639019I3350013J0D01*
G01*
X114313512Y-75942414D02*
G75*
G03*
X115200000Y-75660000I436488J162414D01*
G01*
X115496839Y-71151212D02*
G75*
G03*
X114004464Y-71138297I-746839J-68788D01*
G01*
X130757435Y-70874652D02*
G75*
G03*
X128990000Y-73450000I992565J-2575348D01*
G01*
X113896306Y-76438444D02*
G75*
G03*
X115792292Y-76055626I853694J658444D01*
G01*
X133024615Y-76231897D02*
G75*
G03*
X132992443Y-70653586I-1274615J2781897D01*
G01*
X112590000Y-73500000D02*
G75*
G03*
X114750000Y-75660000I2160000J0D01*
G01*
X111690000Y-73500000D02*
G75*
G03*
X113896250Y-76438488I3060000J0D01*
G01*
X115169863Y-71382220D02*
G75*
G03*
X114325005Y-71368254I-419863J162220D01*
G01*
X115190541Y-75614598D02*
G75*
G03*
X115170058Y-71381238I-440541J2114598D01*
G01*
X131009455Y-71104111D02*
G75*
G03*
X129290000Y-73450000I740545J-2345889D01*
G01*
X131313512Y-75892414D02*
G75*
G03*
X132200000Y-75610000I436488J162414D01*
G01*
X128990000Y-73450000D02*
G75*
G03*
X131090017Y-76129930I2760000J0D01*
G01*
X133584783Y-76252884D02*
X133490000Y-76540000D01*
X133584783Y-76252884D02*
G75*
G03*
X133228118Y-70443714I-1834783J2802884D01*
G01*
X113281398Y-70489053D02*
G75*
G03*
X111399986Y-73500000I1468602J-3010947D01*
G01*
X116584783Y-76302884D02*
X116490000Y-76590000D01*
X132537114Y-75780674D02*
G75*
G03*
X132495425Y-71105660I-787114J2330674D01*
G01*
X130281398Y-70439053D02*
G75*
G03*
X128399986Y-73450000I1468602J-3010947D01*
G01*
X132994961Y-70647919D02*
G75*
G03*
X130507107Y-70643013I-1244961J-522081D01*
G01*
X112290001Y-73500000D02*
G75*
G03*
X114317226Y-75921632I2459999J0D01*
G01*
X115792294Y-76055626D02*
G75*
G03*
X115756643Y-70930123I-1042294J2555626D01*
G01*
X129290001Y-73450000D02*
G75*
G03*
X131317226Y-75871632I2459999J0D01*
G01*
X115758110Y-70926376D02*
G75*
G03*
X113749038Y-70902864I-1008110J-293624D01*
G01*
X129590000Y-73450000D02*
G75*
G03*
X131750000Y-75610000I2160000J0D01*
G01*
X132792294Y-76005626D02*
G75*
G03*
X132756643Y-70880123I-1042294J2555626D01*
G01*
X130511094Y-70652017D02*
G75*
G03*
X128690000Y-73450000I1238906J-2797983D01*
G01*
X131075443Y-76138762D02*
G75*
G03*
X132537112Y-75780676I674557J408762D01*
G01*
X114075443Y-76188762D02*
G75*
G03*
X115537112Y-75830676I674557J408762D01*
G01*
X116024615Y-76281897D02*
G75*
G03*
X115992443Y-70703586I-1274615J2781897D01*
G01*
X113724654Y-76688411D02*
G75*
G03*
X116024615Y-76281898I1025346J908411D01*
G01*
X111990000Y-73500000D02*
G75*
G03*
X114090017Y-76179930I2760000J0D01*
G01*
X133229836Y-70440218D02*
G75*
G03*
X130276128Y-70428247I-1479836J-729782D01*
G01*
X113757435Y-70924652D02*
G75*
G03*
X111990000Y-73500000I992565J-2575348D01*
G01*
X132169863Y-71332220D02*
G75*
G03*
X131325005Y-71318254I-419863J162220D01*
G01*
X115994961Y-70697919D02*
G75*
G03*
X113507107Y-70693013I-1244961J-522081D01*
G01*
X114009455Y-71154111D02*
G75*
G03*
X112290000Y-73500000I740545J-2345889D01*
G01*
X116229836Y-70490218D02*
G75*
G03*
X113276128Y-70478247I-1479836J-729782D01*
G01*
X111399987Y-73500000D02*
G75*
G03*
X113723967Y-76689019I3350013J0D01*
G01*
X130724654Y-76638411D02*
G75*
G03*
X133024615Y-76231898I1025346J908411D01*
G01*
D12*
%TO.N,Net-(J4-Pin_4)*%
%TO.C,J6*%
X143925000Y-46750000D03*
D13*
X146465000Y-46750000D03*
%TO.N,Net-(J11-Pin_3)*%
X149005000Y-46750000D03*
%TO.N,Net-(J6-Pin_4)*%
X151545000Y-46750000D03*
X154085000Y-46750000D03*
%TD*%
D12*
%TO.N,Net-(J10-Pin_1)*%
%TO.C,J10*%
X126925000Y-63750000D03*
D13*
X129465000Y-63750000D03*
%TO.N,Net-(J10-Pin_3)*%
X132005000Y-63750000D03*
%TO.N,Net-(J10-Pin_4)*%
X134545000Y-63750000D03*
X137085000Y-63750000D03*
%TD*%
D12*
%TO.N,Net-(J2-Pin_1)*%
%TO.C,J2*%
X109925000Y-46750000D03*
D13*
X112465000Y-46750000D03*
%TO.N,Net-(J2-Pin_3)*%
X115005000Y-46750000D03*
%TO.N,Net-(J2-Pin_4)*%
X117545000Y-46750000D03*
X120085000Y-46750000D03*
%TD*%
D12*
%TO.N,Net-(J1-Pin_4)*%
%TO.C,J3*%
X126925000Y-33000000D03*
D13*
X129465000Y-33000000D03*
%TO.N,unconnected-(J3-Pin_3-Pad3)*%
X132005000Y-33000000D03*
%TO.N,Net-(J3-Pin_4)*%
X134545000Y-33000000D03*
X137085000Y-33000000D03*
%TD*%
D12*
%TO.N,Net-(J10-Pin_4)*%
%TO.C,J12*%
X143925000Y-63750000D03*
D13*
X146465000Y-63750000D03*
%TO.N,Net-(J12-Pin_3)*%
X149005000Y-63750000D03*
%TO.N,Net-(J12-Pin_4)*%
X151545000Y-63750000D03*
X154085000Y-63750000D03*
%TD*%
D12*
%TO.N,Net-(J8-Pin_1)*%
%TO.C,J8*%
X109925000Y-63750000D03*
D13*
X112465000Y-63750000D03*
%TO.N,Net-(J13-Pin_3)*%
X115005000Y-63750000D03*
%TO.N,Net-(J10-Pin_1)*%
X117545000Y-63750000D03*
X120085000Y-63750000D03*
%TD*%
D12*
%TO.N,Net-(J11-Pin_1)*%
%TO.C,J11*%
X143925000Y-49500000D03*
D13*
X146465000Y-49500000D03*
%TO.N,Net-(J11-Pin_3)*%
X149005000Y-49500000D03*
%TO.N,Net-(J11-Pin_4)*%
X151545000Y-49500000D03*
X154085000Y-49500000D03*
%TD*%
D12*
%TO.N,Net-(J16-Pin_4)*%
%TO.C,J18*%
X143925000Y-80250000D03*
D13*
X146465000Y-80250000D03*
%TO.N,unconnected-(J18-Pin_3-Pad3)*%
X149005000Y-80250000D03*
%TO.N,Net-(J18-Pin_4)*%
X151545000Y-80250000D03*
X154085000Y-80250000D03*
%TD*%
D12*
%TO.N,Net-(J14-Pin_4)*%
%TO.C,J16*%
X126925000Y-80250000D03*
D13*
X129465000Y-80250000D03*
%TO.N,unconnected-(J16-Pin_3-Pad3)*%
X132005000Y-80250000D03*
%TO.N,Net-(J16-Pin_4)*%
X134545000Y-80250000D03*
X137085000Y-80250000D03*
%TD*%
D12*
%TO.N,Net-(J15-Pin_4)*%
%TO.C,J17*%
X143925000Y-66500000D03*
D13*
X146465000Y-66500000D03*
%TO.N,Net-(J12-Pin_3)*%
X149005000Y-66500000D03*
%TO.N,Net-(J17-Pin_4)*%
X151545000Y-66500000D03*
X154085000Y-66500000D03*
%TD*%
D12*
%TO.N,Net-(J2-Pin_4)*%
%TO.C,J4*%
X126925000Y-46750000D03*
D13*
X129465000Y-46750000D03*
%TO.N,Net-(J4-Pin_3)*%
X132005000Y-46750000D03*
%TO.N,Net-(J4-Pin_4)*%
X134545000Y-46750000D03*
X137085000Y-46750000D03*
%TD*%
D12*
%TO.N,Net-(J7-Pin_4)*%
%TO.C,J9*%
X126925000Y-49500000D03*
D13*
X129465000Y-49500000D03*
%TO.N,Net-(J4-Pin_3)*%
X132005000Y-49500000D03*
%TO.N,Net-(J11-Pin_1)*%
X134545000Y-49500000D03*
X137085000Y-49500000D03*
%TD*%
D12*
%TO.N,Net-(J7-Pin_1)*%
%TO.C,J7*%
X109925000Y-49500000D03*
D13*
X112465000Y-49500000D03*
%TO.N,Net-(J2-Pin_3)*%
X115005000Y-49500000D03*
%TO.N,Net-(J7-Pin_4)*%
X117545000Y-49500000D03*
X120085000Y-49500000D03*
%TD*%
D12*
%TO.N,Net-(J3-Pin_4)*%
%TO.C,J5*%
X143925000Y-33000000D03*
D13*
X146465000Y-33000000D03*
%TO.N,unconnected-(J5-Pin_3-Pad3)*%
X149005000Y-33000000D03*
%TO.N,Net-(J5-Pin_4)*%
X151545000Y-33000000D03*
X154085000Y-33000000D03*
%TD*%
D12*
%TO.N,Net-(J13-Pin_4)*%
%TO.C,J15*%
X126925000Y-66500000D03*
D13*
X129465000Y-66500000D03*
%TO.N,Net-(J10-Pin_3)*%
X132005000Y-66500000D03*
%TO.N,Net-(J15-Pin_4)*%
X134545000Y-66500000D03*
X137085000Y-66500000D03*
%TD*%
D12*
%TO.N,Net-(J1-Pin_1)*%
%TO.C,J1*%
X109925000Y-33000000D03*
D13*
X112465000Y-33000000D03*
%TO.N,unconnected-(J1-Pin_3-Pad3)*%
X115005000Y-33000000D03*
%TO.N,Net-(J1-Pin_4)*%
X117545000Y-33000000D03*
X120085000Y-33000000D03*
%TD*%
D12*
%TO.N,Net-(J14-Pin_1)*%
%TO.C,J14*%
X109925000Y-80250000D03*
D13*
X112465000Y-80250000D03*
%TO.N,unconnected-(J14-Pin_3-Pad3)*%
X115005000Y-80250000D03*
%TO.N,Net-(J14-Pin_4)*%
X117545000Y-80250000D03*
X120085000Y-80250000D03*
%TD*%
D12*
%TO.N,Net-(J13-Pin_1)*%
%TO.C,J13*%
X109925000Y-66500000D03*
D13*
X112465000Y-66500000D03*
%TO.N,Net-(J13-Pin_3)*%
X115005000Y-66500000D03*
%TO.N,Net-(J13-Pin_4)*%
X117545000Y-66500000D03*
X120085000Y-66500000D03*
%TD*%
D14*
%TO.N,*%
X149020925Y-59310459D03*
X149020925Y-53960459D03*
X132000000Y-53925000D03*
X132000000Y-59275000D03*
X114750000Y-71220000D03*
X114750000Y-75780000D03*
X131750000Y-71170000D03*
X131750000Y-75730000D03*
%TD*%
D15*
%TO.N,Net-(J12-Pin_4)*%
X151565925Y-63785459D02*
X150520925Y-62740459D01*
X150520925Y-62740459D02*
X150520925Y-60610459D01*
X154105925Y-63785459D02*
X150930925Y-60610459D01*
X150930925Y-60610459D02*
X150520925Y-60610459D01*
%TO.N,Net-(J10-Pin_4)*%
X137085000Y-63750000D02*
X133910000Y-60575000D01*
X133910000Y-60575000D02*
X133500000Y-60575000D01*
X133500000Y-62705000D02*
X133500000Y-60575000D01*
X134545000Y-63750000D02*
X133500000Y-62705000D01*
%TO.N,Net-(J14-Pin_4)*%
X116480000Y-76596687D02*
X116475637Y-76592324D01*
X120085000Y-80300000D02*
X116480000Y-76695000D01*
X116475637Y-79230637D02*
X116480000Y-79226274D01*
X116480000Y-79226274D02*
X116480000Y-76596687D01*
X117545000Y-80300000D02*
X116475637Y-79230637D01*
X116480000Y-76695000D02*
X116480000Y-76596687D01*
%TO.N,Net-(J16-Pin_4)*%
X133480000Y-76546687D02*
X133475637Y-76542324D01*
X133475637Y-79180637D02*
X133480000Y-79176274D01*
X137085000Y-80250000D02*
X133480000Y-76645000D01*
X133480000Y-76645000D02*
X133480000Y-76546687D01*
X133480000Y-79176274D02*
X133480000Y-76546687D01*
X134545000Y-80250000D02*
X133475637Y-79180637D01*
%TD*%
M02*
