%TF.GenerationSoftware,KiCad,Pcbnew,7.0.10*%
%TF.CreationDate,2024-02-14T10:35:43+01:00*%
%TF.ProjectId,Planar_XFMR,506c616e-6172-45f5-9846-4d522e6b6963,A*%
%TF.SameCoordinates,Original*%
%TF.FileFunction,Legend,Top*%
%TF.FilePolarity,Positive*%
%FSLAX46Y46*%
G04 Gerber Fmt 4.6, Leading zero omitted, Abs format (unit mm)*
G04 Created by KiCad (PCBNEW 7.0.10) date 2024-02-14 10:35:43*
%MOMM*%
%LPD*%
G01*
G04 APERTURE LIST*
%ADD10C,0.275000*%
%ADD11C,0.160000*%
%ADD12C,0.200000*%
%ADD13C,0.150000*%
%ADD14C,0.120000*%
G04 APERTURE END LIST*
D10*
X152718425Y-52205459D02*
G75*
G03*
X152443425Y-52205459I-137500J0D01*
G01*
X152443425Y-52205459D02*
G75*
G03*
X152718425Y-52205459I137500J0D01*
G01*
X145528425Y-61315459D02*
G75*
G03*
X145253425Y-61315459I-137500J0D01*
G01*
X145253425Y-61315459D02*
G75*
G03*
X145528425Y-61315459I137500J0D01*
G01*
D11*
X141084786Y-58697775D02*
X140627643Y-58697775D01*
X140856215Y-58697775D02*
X140856215Y-57897775D01*
X140856215Y-57897775D02*
X140780024Y-58012060D01*
X140780024Y-58012060D02*
X140703834Y-58088251D01*
X140703834Y-58088251D02*
X140627643Y-58126346D01*
X141770501Y-57897775D02*
X141618120Y-57897775D01*
X141618120Y-57897775D02*
X141541929Y-57935870D01*
X141541929Y-57935870D02*
X141503834Y-57973965D01*
X141503834Y-57973965D02*
X141427644Y-58088251D01*
X141427644Y-58088251D02*
X141389548Y-58240632D01*
X141389548Y-58240632D02*
X141389548Y-58545394D01*
X141389548Y-58545394D02*
X141427644Y-58621584D01*
X141427644Y-58621584D02*
X141465739Y-58659680D01*
X141465739Y-58659680D02*
X141541929Y-58697775D01*
X141541929Y-58697775D02*
X141694310Y-58697775D01*
X141694310Y-58697775D02*
X141770501Y-58659680D01*
X141770501Y-58659680D02*
X141808596Y-58621584D01*
X141808596Y-58621584D02*
X141846691Y-58545394D01*
X141846691Y-58545394D02*
X141846691Y-58354918D01*
X141846691Y-58354918D02*
X141808596Y-58278727D01*
X141808596Y-58278727D02*
X141770501Y-58240632D01*
X141770501Y-58240632D02*
X141694310Y-58202537D01*
X141694310Y-58202537D02*
X141541929Y-58202537D01*
X141541929Y-58202537D02*
X141465739Y-58240632D01*
X141465739Y-58240632D02*
X141427644Y-58278727D01*
X141427644Y-58278727D02*
X141389548Y-58354918D01*
X142075263Y-57897775D02*
X142532406Y-57897775D01*
X142303834Y-58697775D02*
X142303834Y-57897775D01*
X140818120Y-59185775D02*
X140894310Y-59185775D01*
X140894310Y-59185775D02*
X140970501Y-59223870D01*
X140970501Y-59223870D02*
X141008596Y-59261965D01*
X141008596Y-59261965D02*
X141046691Y-59338156D01*
X141046691Y-59338156D02*
X141084786Y-59490537D01*
X141084786Y-59490537D02*
X141084786Y-59681013D01*
X141084786Y-59681013D02*
X141046691Y-59833394D01*
X141046691Y-59833394D02*
X141008596Y-59909584D01*
X141008596Y-59909584D02*
X140970501Y-59947680D01*
X140970501Y-59947680D02*
X140894310Y-59985775D01*
X140894310Y-59985775D02*
X140818120Y-59985775D01*
X140818120Y-59985775D02*
X140741929Y-59947680D01*
X140741929Y-59947680D02*
X140703834Y-59909584D01*
X140703834Y-59909584D02*
X140665739Y-59833394D01*
X140665739Y-59833394D02*
X140627643Y-59681013D01*
X140627643Y-59681013D02*
X140627643Y-59490537D01*
X140627643Y-59490537D02*
X140665739Y-59338156D01*
X140665739Y-59338156D02*
X140703834Y-59261965D01*
X140703834Y-59261965D02*
X140741929Y-59223870D01*
X140741929Y-59223870D02*
X140818120Y-59185775D01*
X141427644Y-59909584D02*
X141465739Y-59947680D01*
X141465739Y-59947680D02*
X141427644Y-59985775D01*
X141427644Y-59985775D02*
X141389548Y-59947680D01*
X141389548Y-59947680D02*
X141427644Y-59909584D01*
X141427644Y-59909584D02*
X141427644Y-59985775D01*
X142227643Y-59985775D02*
X141770500Y-59985775D01*
X141999072Y-59985775D02*
X141999072Y-59185775D01*
X141999072Y-59185775D02*
X141922881Y-59300060D01*
X141922881Y-59300060D02*
X141846691Y-59376251D01*
X141846691Y-59376251D02*
X141770500Y-59414346D01*
X140665739Y-61273775D02*
X140665739Y-60473775D01*
X141046691Y-61273775D02*
X141046691Y-60473775D01*
X141046691Y-60473775D02*
X141503834Y-61273775D01*
X141503834Y-61273775D02*
X141503834Y-60473775D01*
X141770500Y-60473775D02*
X142227643Y-60473775D01*
X141999071Y-61273775D02*
X141999071Y-60473775D01*
X141184786Y-52697775D02*
X140727643Y-52697775D01*
X140956215Y-52697775D02*
X140956215Y-51897775D01*
X140956215Y-51897775D02*
X140880024Y-52012060D01*
X140880024Y-52012060D02*
X140803834Y-52088251D01*
X140803834Y-52088251D02*
X140727643Y-52126346D01*
X141870501Y-51897775D02*
X141718120Y-51897775D01*
X141718120Y-51897775D02*
X141641929Y-51935870D01*
X141641929Y-51935870D02*
X141603834Y-51973965D01*
X141603834Y-51973965D02*
X141527644Y-52088251D01*
X141527644Y-52088251D02*
X141489548Y-52240632D01*
X141489548Y-52240632D02*
X141489548Y-52545394D01*
X141489548Y-52545394D02*
X141527644Y-52621584D01*
X141527644Y-52621584D02*
X141565739Y-52659680D01*
X141565739Y-52659680D02*
X141641929Y-52697775D01*
X141641929Y-52697775D02*
X141794310Y-52697775D01*
X141794310Y-52697775D02*
X141870501Y-52659680D01*
X141870501Y-52659680D02*
X141908596Y-52621584D01*
X141908596Y-52621584D02*
X141946691Y-52545394D01*
X141946691Y-52545394D02*
X141946691Y-52354918D01*
X141946691Y-52354918D02*
X141908596Y-52278727D01*
X141908596Y-52278727D02*
X141870501Y-52240632D01*
X141870501Y-52240632D02*
X141794310Y-52202537D01*
X141794310Y-52202537D02*
X141641929Y-52202537D01*
X141641929Y-52202537D02*
X141565739Y-52240632D01*
X141565739Y-52240632D02*
X141527644Y-52278727D01*
X141527644Y-52278727D02*
X141489548Y-52354918D01*
X142175263Y-51897775D02*
X142632406Y-51897775D01*
X142403834Y-52697775D02*
X142403834Y-51897775D01*
X140918120Y-53185775D02*
X140994310Y-53185775D01*
X140994310Y-53185775D02*
X141070501Y-53223870D01*
X141070501Y-53223870D02*
X141108596Y-53261965D01*
X141108596Y-53261965D02*
X141146691Y-53338156D01*
X141146691Y-53338156D02*
X141184786Y-53490537D01*
X141184786Y-53490537D02*
X141184786Y-53681013D01*
X141184786Y-53681013D02*
X141146691Y-53833394D01*
X141146691Y-53833394D02*
X141108596Y-53909584D01*
X141108596Y-53909584D02*
X141070501Y-53947680D01*
X141070501Y-53947680D02*
X140994310Y-53985775D01*
X140994310Y-53985775D02*
X140918120Y-53985775D01*
X140918120Y-53985775D02*
X140841929Y-53947680D01*
X140841929Y-53947680D02*
X140803834Y-53909584D01*
X140803834Y-53909584D02*
X140765739Y-53833394D01*
X140765739Y-53833394D02*
X140727643Y-53681013D01*
X140727643Y-53681013D02*
X140727643Y-53490537D01*
X140727643Y-53490537D02*
X140765739Y-53338156D01*
X140765739Y-53338156D02*
X140803834Y-53261965D01*
X140803834Y-53261965D02*
X140841929Y-53223870D01*
X140841929Y-53223870D02*
X140918120Y-53185775D01*
X141527644Y-53909584D02*
X141565739Y-53947680D01*
X141565739Y-53947680D02*
X141527644Y-53985775D01*
X141527644Y-53985775D02*
X141489548Y-53947680D01*
X141489548Y-53947680D02*
X141527644Y-53909584D01*
X141527644Y-53909584D02*
X141527644Y-53985775D01*
X142327643Y-53985775D02*
X141870500Y-53985775D01*
X142099072Y-53985775D02*
X142099072Y-53185775D01*
X142099072Y-53185775D02*
X142022881Y-53300060D01*
X142022881Y-53300060D02*
X141946691Y-53376251D01*
X141946691Y-53376251D02*
X141870500Y-53414346D01*
X140765739Y-54854727D02*
X141032405Y-54854727D01*
X141146691Y-55273775D02*
X140765739Y-55273775D01*
X140765739Y-55273775D02*
X140765739Y-54473775D01*
X140765739Y-54473775D02*
X141146691Y-54473775D01*
X141413358Y-54473775D02*
X141946692Y-55273775D01*
X141946692Y-54473775D02*
X141413358Y-55273775D01*
X142137168Y-54473775D02*
X142594311Y-54473775D01*
X142365739Y-55273775D02*
X142365739Y-54473775D01*
D12*
X155623409Y-59300326D02*
X155623409Y-58966993D01*
X156147219Y-58824136D02*
X156147219Y-59300326D01*
X156147219Y-59300326D02*
X155147219Y-59300326D01*
X155147219Y-59300326D02*
X155147219Y-58824136D01*
X156147219Y-57824136D02*
X155671028Y-58157469D01*
X156147219Y-58395564D02*
X155147219Y-58395564D01*
X155147219Y-58395564D02*
X155147219Y-58014612D01*
X155147219Y-58014612D02*
X155194838Y-57919374D01*
X155194838Y-57919374D02*
X155242457Y-57871755D01*
X155242457Y-57871755D02*
X155337695Y-57824136D01*
X155337695Y-57824136D02*
X155480552Y-57824136D01*
X155480552Y-57824136D02*
X155575790Y-57871755D01*
X155575790Y-57871755D02*
X155623409Y-57919374D01*
X155623409Y-57919374D02*
X155671028Y-58014612D01*
X155671028Y-58014612D02*
X155671028Y-58395564D01*
X156147219Y-56871755D02*
X156147219Y-57443183D01*
X156147219Y-57157469D02*
X155147219Y-57157469D01*
X155147219Y-57157469D02*
X155290076Y-57252707D01*
X155290076Y-57252707D02*
X155385314Y-57347945D01*
X155385314Y-57347945D02*
X155432933Y-57443183D01*
X156147219Y-55919374D02*
X156147219Y-56490802D01*
X156147219Y-56205088D02*
X155147219Y-56205088D01*
X155147219Y-56205088D02*
X155290076Y-56300326D01*
X155290076Y-56300326D02*
X155385314Y-56395564D01*
X155385314Y-56395564D02*
X155432933Y-56490802D01*
X155099600Y-54776517D02*
X156385314Y-55633659D01*
X155147219Y-53966993D02*
X155147219Y-54443183D01*
X155147219Y-54443183D02*
X155623409Y-54490802D01*
X155623409Y-54490802D02*
X155575790Y-54443183D01*
X155575790Y-54443183D02*
X155528171Y-54347945D01*
X155528171Y-54347945D02*
X155528171Y-54109850D01*
X155528171Y-54109850D02*
X155575790Y-54014612D01*
X155575790Y-54014612D02*
X155623409Y-53966993D01*
X155623409Y-53966993D02*
X155718647Y-53919374D01*
X155718647Y-53919374D02*
X155956742Y-53919374D01*
X155956742Y-53919374D02*
X156051980Y-53966993D01*
X156051980Y-53966993D02*
X156099600Y-54014612D01*
X156099600Y-54014612D02*
X156147219Y-54109850D01*
X156147219Y-54109850D02*
X156147219Y-54347945D01*
X156147219Y-54347945D02*
X156099600Y-54443183D01*
X156099600Y-54443183D02*
X156051980Y-54490802D01*
X138793409Y-59320326D02*
X138793409Y-58986993D01*
X139317219Y-58844136D02*
X139317219Y-59320326D01*
X139317219Y-59320326D02*
X138317219Y-59320326D01*
X138317219Y-59320326D02*
X138317219Y-58844136D01*
X139317219Y-57844136D02*
X138841028Y-58177469D01*
X139317219Y-58415564D02*
X138317219Y-58415564D01*
X138317219Y-58415564D02*
X138317219Y-58034612D01*
X138317219Y-58034612D02*
X138364838Y-57939374D01*
X138364838Y-57939374D02*
X138412457Y-57891755D01*
X138412457Y-57891755D02*
X138507695Y-57844136D01*
X138507695Y-57844136D02*
X138650552Y-57844136D01*
X138650552Y-57844136D02*
X138745790Y-57891755D01*
X138745790Y-57891755D02*
X138793409Y-57939374D01*
X138793409Y-57939374D02*
X138841028Y-58034612D01*
X138841028Y-58034612D02*
X138841028Y-58415564D01*
X139317219Y-56891755D02*
X139317219Y-57463183D01*
X139317219Y-57177469D02*
X138317219Y-57177469D01*
X138317219Y-57177469D02*
X138460076Y-57272707D01*
X138460076Y-57272707D02*
X138555314Y-57367945D01*
X138555314Y-57367945D02*
X138602933Y-57463183D01*
X139317219Y-55939374D02*
X139317219Y-56510802D01*
X139317219Y-56225088D02*
X138317219Y-56225088D01*
X138317219Y-56225088D02*
X138460076Y-56320326D01*
X138460076Y-56320326D02*
X138555314Y-56415564D01*
X138555314Y-56415564D02*
X138602933Y-56510802D01*
X138269600Y-54796517D02*
X139555314Y-55653659D01*
X138317219Y-53986993D02*
X138317219Y-54463183D01*
X138317219Y-54463183D02*
X138793409Y-54510802D01*
X138793409Y-54510802D02*
X138745790Y-54463183D01*
X138745790Y-54463183D02*
X138698171Y-54367945D01*
X138698171Y-54367945D02*
X138698171Y-54129850D01*
X138698171Y-54129850D02*
X138745790Y-54034612D01*
X138745790Y-54034612D02*
X138793409Y-53986993D01*
X138793409Y-53986993D02*
X138888647Y-53939374D01*
X138888647Y-53939374D02*
X139126742Y-53939374D01*
X139126742Y-53939374D02*
X139221980Y-53986993D01*
X139221980Y-53986993D02*
X139269600Y-54034612D01*
X139269600Y-54034612D02*
X139317219Y-54129850D01*
X139317219Y-54129850D02*
X139317219Y-54367945D01*
X139317219Y-54367945D02*
X139269600Y-54463183D01*
X139269600Y-54463183D02*
X139221980Y-54510802D01*
D10*
X135697500Y-52170000D02*
G75*
G03*
X135422500Y-52170000I-137500J0D01*
G01*
X135422500Y-52170000D02*
G75*
G03*
X135697500Y-52170000I137500J0D01*
G01*
X128507500Y-61280000D02*
G75*
G03*
X128232500Y-61280000I-137500J0D01*
G01*
X128232500Y-61280000D02*
G75*
G03*
X128507500Y-61280000I137500J0D01*
G01*
D11*
X124378596Y-52107775D02*
X124226215Y-52107775D01*
X124226215Y-52107775D02*
X124150024Y-52145870D01*
X124150024Y-52145870D02*
X124111929Y-52183965D01*
X124111929Y-52183965D02*
X124035739Y-52298251D01*
X124035739Y-52298251D02*
X123997643Y-52450632D01*
X123997643Y-52450632D02*
X123997643Y-52755394D01*
X123997643Y-52755394D02*
X124035739Y-52831584D01*
X124035739Y-52831584D02*
X124073834Y-52869680D01*
X124073834Y-52869680D02*
X124150024Y-52907775D01*
X124150024Y-52907775D02*
X124302405Y-52907775D01*
X124302405Y-52907775D02*
X124378596Y-52869680D01*
X124378596Y-52869680D02*
X124416691Y-52831584D01*
X124416691Y-52831584D02*
X124454786Y-52755394D01*
X124454786Y-52755394D02*
X124454786Y-52564918D01*
X124454786Y-52564918D02*
X124416691Y-52488727D01*
X124416691Y-52488727D02*
X124378596Y-52450632D01*
X124378596Y-52450632D02*
X124302405Y-52412537D01*
X124302405Y-52412537D02*
X124150024Y-52412537D01*
X124150024Y-52412537D02*
X124073834Y-52450632D01*
X124073834Y-52450632D02*
X124035739Y-52488727D01*
X124035739Y-52488727D02*
X123997643Y-52564918D01*
X124683358Y-52107775D02*
X125140501Y-52107775D01*
X124911929Y-52907775D02*
X124911929Y-52107775D01*
X124188120Y-53395775D02*
X124264310Y-53395775D01*
X124264310Y-53395775D02*
X124340501Y-53433870D01*
X124340501Y-53433870D02*
X124378596Y-53471965D01*
X124378596Y-53471965D02*
X124416691Y-53548156D01*
X124416691Y-53548156D02*
X124454786Y-53700537D01*
X124454786Y-53700537D02*
X124454786Y-53891013D01*
X124454786Y-53891013D02*
X124416691Y-54043394D01*
X124416691Y-54043394D02*
X124378596Y-54119584D01*
X124378596Y-54119584D02*
X124340501Y-54157680D01*
X124340501Y-54157680D02*
X124264310Y-54195775D01*
X124264310Y-54195775D02*
X124188120Y-54195775D01*
X124188120Y-54195775D02*
X124111929Y-54157680D01*
X124111929Y-54157680D02*
X124073834Y-54119584D01*
X124073834Y-54119584D02*
X124035739Y-54043394D01*
X124035739Y-54043394D02*
X123997643Y-53891013D01*
X123997643Y-53891013D02*
X123997643Y-53700537D01*
X123997643Y-53700537D02*
X124035739Y-53548156D01*
X124035739Y-53548156D02*
X124073834Y-53471965D01*
X124073834Y-53471965D02*
X124111929Y-53433870D01*
X124111929Y-53433870D02*
X124188120Y-53395775D01*
X124797644Y-54119584D02*
X124835739Y-54157680D01*
X124835739Y-54157680D02*
X124797644Y-54195775D01*
X124797644Y-54195775D02*
X124759548Y-54157680D01*
X124759548Y-54157680D02*
X124797644Y-54119584D01*
X124797644Y-54119584D02*
X124797644Y-54195775D01*
X125521453Y-53662441D02*
X125521453Y-54195775D01*
X125330977Y-53357680D02*
X125140500Y-53929108D01*
X125140500Y-53929108D02*
X125635739Y-53929108D01*
X124035739Y-55064727D02*
X124302405Y-55064727D01*
X124416691Y-55483775D02*
X124035739Y-55483775D01*
X124035739Y-55483775D02*
X124035739Y-54683775D01*
X124035739Y-54683775D02*
X124416691Y-54683775D01*
X124683358Y-54683775D02*
X125216692Y-55483775D01*
X125216692Y-54683775D02*
X124683358Y-55483775D01*
X125407168Y-54683775D02*
X125864311Y-54683775D01*
X125635739Y-55483775D02*
X125635739Y-54683775D01*
X124354786Y-58907775D02*
X123897643Y-58907775D01*
X124126215Y-58907775D02*
X124126215Y-58107775D01*
X124126215Y-58107775D02*
X124050024Y-58222060D01*
X124050024Y-58222060D02*
X123973834Y-58298251D01*
X123973834Y-58298251D02*
X123897643Y-58336346D01*
X125040501Y-58107775D02*
X124888120Y-58107775D01*
X124888120Y-58107775D02*
X124811929Y-58145870D01*
X124811929Y-58145870D02*
X124773834Y-58183965D01*
X124773834Y-58183965D02*
X124697644Y-58298251D01*
X124697644Y-58298251D02*
X124659548Y-58450632D01*
X124659548Y-58450632D02*
X124659548Y-58755394D01*
X124659548Y-58755394D02*
X124697644Y-58831584D01*
X124697644Y-58831584D02*
X124735739Y-58869680D01*
X124735739Y-58869680D02*
X124811929Y-58907775D01*
X124811929Y-58907775D02*
X124964310Y-58907775D01*
X124964310Y-58907775D02*
X125040501Y-58869680D01*
X125040501Y-58869680D02*
X125078596Y-58831584D01*
X125078596Y-58831584D02*
X125116691Y-58755394D01*
X125116691Y-58755394D02*
X125116691Y-58564918D01*
X125116691Y-58564918D02*
X125078596Y-58488727D01*
X125078596Y-58488727D02*
X125040501Y-58450632D01*
X125040501Y-58450632D02*
X124964310Y-58412537D01*
X124964310Y-58412537D02*
X124811929Y-58412537D01*
X124811929Y-58412537D02*
X124735739Y-58450632D01*
X124735739Y-58450632D02*
X124697644Y-58488727D01*
X124697644Y-58488727D02*
X124659548Y-58564918D01*
X125345263Y-58107775D02*
X125802406Y-58107775D01*
X125573834Y-58907775D02*
X125573834Y-58107775D01*
X124088120Y-59395775D02*
X124164310Y-59395775D01*
X124164310Y-59395775D02*
X124240501Y-59433870D01*
X124240501Y-59433870D02*
X124278596Y-59471965D01*
X124278596Y-59471965D02*
X124316691Y-59548156D01*
X124316691Y-59548156D02*
X124354786Y-59700537D01*
X124354786Y-59700537D02*
X124354786Y-59891013D01*
X124354786Y-59891013D02*
X124316691Y-60043394D01*
X124316691Y-60043394D02*
X124278596Y-60119584D01*
X124278596Y-60119584D02*
X124240501Y-60157680D01*
X124240501Y-60157680D02*
X124164310Y-60195775D01*
X124164310Y-60195775D02*
X124088120Y-60195775D01*
X124088120Y-60195775D02*
X124011929Y-60157680D01*
X124011929Y-60157680D02*
X123973834Y-60119584D01*
X123973834Y-60119584D02*
X123935739Y-60043394D01*
X123935739Y-60043394D02*
X123897643Y-59891013D01*
X123897643Y-59891013D02*
X123897643Y-59700537D01*
X123897643Y-59700537D02*
X123935739Y-59548156D01*
X123935739Y-59548156D02*
X123973834Y-59471965D01*
X123973834Y-59471965D02*
X124011929Y-59433870D01*
X124011929Y-59433870D02*
X124088120Y-59395775D01*
X124697644Y-60119584D02*
X124735739Y-60157680D01*
X124735739Y-60157680D02*
X124697644Y-60195775D01*
X124697644Y-60195775D02*
X124659548Y-60157680D01*
X124659548Y-60157680D02*
X124697644Y-60119584D01*
X124697644Y-60119584D02*
X124697644Y-60195775D01*
X125497643Y-60195775D02*
X125040500Y-60195775D01*
X125269072Y-60195775D02*
X125269072Y-59395775D01*
X125269072Y-59395775D02*
X125192881Y-59510060D01*
X125192881Y-59510060D02*
X125116691Y-59586251D01*
X125116691Y-59586251D02*
X125040500Y-59624346D01*
X123935739Y-61483775D02*
X123935739Y-60683775D01*
X124316691Y-61483775D02*
X124316691Y-60683775D01*
X124316691Y-60683775D02*
X124773834Y-61483775D01*
X124773834Y-61483775D02*
X124773834Y-60683775D01*
X125040500Y-60683775D02*
X125497643Y-60683775D01*
X125269071Y-61483775D02*
X125269071Y-60683775D01*
D10*
X128387500Y-77550000D02*
G75*
G03*
X128112500Y-77550000I-137500J0D01*
G01*
X128112500Y-77550000D02*
G75*
G03*
X128387500Y-77550000I137500J0D01*
G01*
D13*
X106585786Y-65085786D02*
X108235786Y-65085786D01*
X108835786Y-65085786D02*
X110485786Y-65085786D01*
X111085786Y-65085786D02*
X112735786Y-65085786D01*
X113335786Y-65085786D02*
X114985786Y-65085786D01*
X115585786Y-65085786D02*
X117235786Y-65085786D01*
X117835786Y-65085786D02*
X119485786Y-65085786D01*
X120085786Y-65085786D02*
X121735786Y-65085786D01*
X122335786Y-65085786D02*
X123985786Y-65085786D01*
X124585786Y-65085786D02*
X126235786Y-65085786D01*
X126835786Y-65085786D02*
X128485786Y-65085786D01*
X129085786Y-65085786D02*
X130735786Y-65085786D01*
X131335786Y-65085786D02*
X132985786Y-65085786D01*
X133585786Y-65085786D02*
X135235786Y-65085786D01*
X135835786Y-65085786D02*
X137485786Y-65085786D01*
X138085786Y-65085786D02*
X139735786Y-65085786D01*
X140335786Y-65085786D02*
X141985786Y-65085786D01*
X142585786Y-65085786D02*
X144235786Y-65085786D01*
X144835786Y-65085786D02*
X146485786Y-65085786D01*
X147085786Y-65085786D02*
X148735786Y-65085786D01*
X149335786Y-65085786D02*
X150985786Y-65085786D01*
X151585786Y-65085786D02*
X153235786Y-65085786D01*
X153835786Y-65085786D02*
X155485786Y-65085786D01*
X156085786Y-65085786D02*
X156585786Y-65085786D01*
D10*
X135987500Y-69250000D02*
G75*
G03*
X135712500Y-69250000I-137500J0D01*
G01*
X135712500Y-69250000D02*
G75*
G03*
X135987500Y-69250000I137500J0D01*
G01*
D13*
X106585786Y-48085786D02*
X108235786Y-48085786D01*
X108835786Y-48085786D02*
X110485786Y-48085786D01*
X111085786Y-48085786D02*
X112735786Y-48085786D01*
X113335786Y-48085786D02*
X114985786Y-48085786D01*
X115585786Y-48085786D02*
X117235786Y-48085786D01*
X117835786Y-48085786D02*
X119485786Y-48085786D01*
X120085786Y-48085786D02*
X121735786Y-48085786D01*
X122335786Y-48085786D02*
X123985786Y-48085786D01*
X124585786Y-48085786D02*
X126235786Y-48085786D01*
X126835786Y-48085786D02*
X128485786Y-48085786D01*
X129085786Y-48085786D02*
X130735786Y-48085786D01*
X131335786Y-48085786D02*
X132985786Y-48085786D01*
X133585786Y-48085786D02*
X135235786Y-48085786D01*
X135835786Y-48085786D02*
X137485786Y-48085786D01*
X138085786Y-48085786D02*
X139735786Y-48085786D01*
X140335786Y-48085786D02*
X141985786Y-48085786D01*
X142585786Y-48085786D02*
X144235786Y-48085786D01*
X144835786Y-48085786D02*
X146485786Y-48085786D01*
X147085786Y-48085786D02*
X148735786Y-48085786D01*
X149335786Y-48085786D02*
X150985786Y-48085786D01*
X151585786Y-48085786D02*
X153235786Y-48085786D01*
X153835786Y-48085786D02*
X155485786Y-48085786D01*
X156085786Y-48085786D02*
X156585786Y-48085786D01*
D10*
X118887500Y-69100000D02*
G75*
G03*
X118612500Y-69100000I-137500J0D01*
G01*
X118612500Y-69100000D02*
G75*
G03*
X118887500Y-69100000I137500J0D01*
G01*
D13*
X123235786Y-81585786D02*
X123235786Y-79935786D01*
X123235786Y-79335786D02*
X123235786Y-77685786D01*
X123235786Y-77085786D02*
X123235786Y-75435786D01*
X123235786Y-74835786D02*
X123235786Y-73185786D01*
X123235786Y-72585786D02*
X123235786Y-70935786D01*
X123235786Y-70335786D02*
X123235786Y-68685786D01*
X123235786Y-68085786D02*
X123235786Y-66435786D01*
X123235786Y-65835786D02*
X123235786Y-64185786D01*
X123235786Y-63585786D02*
X123235786Y-61935786D01*
X123235786Y-61335786D02*
X123235786Y-59685786D01*
X123235786Y-59085786D02*
X123235786Y-57435786D01*
X123235786Y-56835786D02*
X123235786Y-55185786D01*
X123235786Y-54585786D02*
X123235786Y-52935786D01*
X123235786Y-52335786D02*
X123235786Y-50685786D01*
X123235786Y-50085786D02*
X123235786Y-48435786D01*
X123235786Y-47835786D02*
X123235786Y-46185786D01*
X123235786Y-45585786D02*
X123235786Y-43935786D01*
X123235786Y-43335786D02*
X123235786Y-41685786D01*
X123235786Y-41085786D02*
X123235786Y-39435786D01*
X123235786Y-38835786D02*
X123235786Y-37185786D01*
X123235786Y-36585786D02*
X123235786Y-34935786D01*
X123235786Y-34335786D02*
X123235786Y-32685786D01*
X123235786Y-32085786D02*
X123235786Y-31585786D01*
X139935786Y-81585786D02*
X139935786Y-79935786D01*
X139935786Y-79335786D02*
X139935786Y-77685786D01*
X139935786Y-77085786D02*
X139935786Y-75435786D01*
X139935786Y-74835786D02*
X139935786Y-73185786D01*
X139935786Y-72585786D02*
X139935786Y-70935786D01*
X139935786Y-70335786D02*
X139935786Y-68685786D01*
X139935786Y-68085786D02*
X139935786Y-66435786D01*
X139935786Y-65835786D02*
X139935786Y-64185786D01*
X139935786Y-63585786D02*
X139935786Y-61935786D01*
X139935786Y-61335786D02*
X139935786Y-59685786D01*
X139935786Y-59085786D02*
X139935786Y-57435786D01*
X139935786Y-56835786D02*
X139935786Y-55185786D01*
X139935786Y-54585786D02*
X139935786Y-52935786D01*
X139935786Y-52335786D02*
X139935786Y-50685786D01*
X139935786Y-50085786D02*
X139935786Y-48435786D01*
X139935786Y-47835786D02*
X139935786Y-46185786D01*
X139935786Y-45585786D02*
X139935786Y-43935786D01*
X139935786Y-43335786D02*
X139935786Y-41685786D01*
X139935786Y-41085786D02*
X139935786Y-39435786D01*
X139935786Y-38835786D02*
X139935786Y-37185786D01*
X139935786Y-36585786D02*
X139935786Y-34935786D01*
X139935786Y-34335786D02*
X139935786Y-32685786D01*
X139935786Y-32085786D02*
X139935786Y-31585786D01*
D10*
X110127500Y-77560000D02*
G75*
G03*
X109852500Y-77560000I-137500J0D01*
G01*
X109852500Y-77560000D02*
G75*
G03*
X110127500Y-77560000I137500J0D01*
G01*
D12*
X141493409Y-76130326D02*
X141493409Y-75796993D01*
X142017219Y-75654136D02*
X142017219Y-76130326D01*
X142017219Y-76130326D02*
X141017219Y-76130326D01*
X141017219Y-76130326D02*
X141017219Y-75654136D01*
X142017219Y-74654136D02*
X141541028Y-74987469D01*
X142017219Y-75225564D02*
X141017219Y-75225564D01*
X141017219Y-75225564D02*
X141017219Y-74844612D01*
X141017219Y-74844612D02*
X141064838Y-74749374D01*
X141064838Y-74749374D02*
X141112457Y-74701755D01*
X141112457Y-74701755D02*
X141207695Y-74654136D01*
X141207695Y-74654136D02*
X141350552Y-74654136D01*
X141350552Y-74654136D02*
X141445790Y-74701755D01*
X141445790Y-74701755D02*
X141493409Y-74749374D01*
X141493409Y-74749374D02*
X141541028Y-74844612D01*
X141541028Y-74844612D02*
X141541028Y-75225564D01*
X142017219Y-74177945D02*
X142017219Y-73987469D01*
X142017219Y-73987469D02*
X141969600Y-73892231D01*
X141969600Y-73892231D02*
X141921980Y-73844612D01*
X141921980Y-73844612D02*
X141779123Y-73749374D01*
X141779123Y-73749374D02*
X141588647Y-73701755D01*
X141588647Y-73701755D02*
X141207695Y-73701755D01*
X141207695Y-73701755D02*
X141112457Y-73749374D01*
X141112457Y-73749374D02*
X141064838Y-73796993D01*
X141064838Y-73796993D02*
X141017219Y-73892231D01*
X141017219Y-73892231D02*
X141017219Y-74082707D01*
X141017219Y-74082707D02*
X141064838Y-74177945D01*
X141064838Y-74177945D02*
X141112457Y-74225564D01*
X141112457Y-74225564D02*
X141207695Y-74273183D01*
X141207695Y-74273183D02*
X141445790Y-74273183D01*
X141445790Y-74273183D02*
X141541028Y-74225564D01*
X141541028Y-74225564D02*
X141588647Y-74177945D01*
X141588647Y-74177945D02*
X141636266Y-74082707D01*
X141636266Y-74082707D02*
X141636266Y-73892231D01*
X141636266Y-73892231D02*
X141588647Y-73796993D01*
X141588647Y-73796993D02*
X141541028Y-73749374D01*
X141541028Y-73749374D02*
X141445790Y-73701755D01*
X141921980Y-73273183D02*
X141969600Y-73225564D01*
X141969600Y-73225564D02*
X142017219Y-73273183D01*
X142017219Y-73273183D02*
X141969600Y-73320802D01*
X141969600Y-73320802D02*
X141921980Y-73273183D01*
X141921980Y-73273183D02*
X142017219Y-73273183D01*
X141017219Y-72320803D02*
X141017219Y-72796993D01*
X141017219Y-72796993D02*
X141493409Y-72844612D01*
X141493409Y-72844612D02*
X141445790Y-72796993D01*
X141445790Y-72796993D02*
X141398171Y-72701755D01*
X141398171Y-72701755D02*
X141398171Y-72463660D01*
X141398171Y-72463660D02*
X141445790Y-72368422D01*
X141445790Y-72368422D02*
X141493409Y-72320803D01*
X141493409Y-72320803D02*
X141588647Y-72273184D01*
X141588647Y-72273184D02*
X141826742Y-72273184D01*
X141826742Y-72273184D02*
X141921980Y-72320803D01*
X141921980Y-72320803D02*
X141969600Y-72368422D01*
X141969600Y-72368422D02*
X142017219Y-72463660D01*
X142017219Y-72463660D02*
X142017219Y-72701755D01*
X142017219Y-72701755D02*
X141969600Y-72796993D01*
X141969600Y-72796993D02*
X141921980Y-72844612D01*
X140969600Y-71130327D02*
X142255314Y-71987469D01*
X141017219Y-70320803D02*
X141017219Y-70796993D01*
X141017219Y-70796993D02*
X141493409Y-70844612D01*
X141493409Y-70844612D02*
X141445790Y-70796993D01*
X141445790Y-70796993D02*
X141398171Y-70701755D01*
X141398171Y-70701755D02*
X141398171Y-70463660D01*
X141398171Y-70463660D02*
X141445790Y-70368422D01*
X141445790Y-70368422D02*
X141493409Y-70320803D01*
X141493409Y-70320803D02*
X141588647Y-70273184D01*
X141588647Y-70273184D02*
X141826742Y-70273184D01*
X141826742Y-70273184D02*
X141921980Y-70320803D01*
X141921980Y-70320803D02*
X141969600Y-70368422D01*
X141969600Y-70368422D02*
X142017219Y-70463660D01*
X142017219Y-70463660D02*
X142017219Y-70701755D01*
X142017219Y-70701755D02*
X141969600Y-70796993D01*
X141969600Y-70796993D02*
X141921980Y-70844612D01*
D11*
X121164786Y-75667775D02*
X120707643Y-75667775D01*
X120936215Y-75667775D02*
X120936215Y-74867775D01*
X120936215Y-74867775D02*
X120860024Y-74982060D01*
X120860024Y-74982060D02*
X120783834Y-75058251D01*
X120783834Y-75058251D02*
X120707643Y-75096346D01*
X121660025Y-74867775D02*
X121736215Y-74867775D01*
X121736215Y-74867775D02*
X121812406Y-74905870D01*
X121812406Y-74905870D02*
X121850501Y-74943965D01*
X121850501Y-74943965D02*
X121888596Y-75020156D01*
X121888596Y-75020156D02*
X121926691Y-75172537D01*
X121926691Y-75172537D02*
X121926691Y-75363013D01*
X121926691Y-75363013D02*
X121888596Y-75515394D01*
X121888596Y-75515394D02*
X121850501Y-75591584D01*
X121850501Y-75591584D02*
X121812406Y-75629680D01*
X121812406Y-75629680D02*
X121736215Y-75667775D01*
X121736215Y-75667775D02*
X121660025Y-75667775D01*
X121660025Y-75667775D02*
X121583834Y-75629680D01*
X121583834Y-75629680D02*
X121545739Y-75591584D01*
X121545739Y-75591584D02*
X121507644Y-75515394D01*
X121507644Y-75515394D02*
X121469548Y-75363013D01*
X121469548Y-75363013D02*
X121469548Y-75172537D01*
X121469548Y-75172537D02*
X121507644Y-75020156D01*
X121507644Y-75020156D02*
X121545739Y-74943965D01*
X121545739Y-74943965D02*
X121583834Y-74905870D01*
X121583834Y-74905870D02*
X121660025Y-74867775D01*
X122155263Y-74867775D02*
X122612406Y-74867775D01*
X122383834Y-75667775D02*
X122383834Y-74867775D01*
X120898120Y-76155775D02*
X120974310Y-76155775D01*
X120974310Y-76155775D02*
X121050501Y-76193870D01*
X121050501Y-76193870D02*
X121088596Y-76231965D01*
X121088596Y-76231965D02*
X121126691Y-76308156D01*
X121126691Y-76308156D02*
X121164786Y-76460537D01*
X121164786Y-76460537D02*
X121164786Y-76651013D01*
X121164786Y-76651013D02*
X121126691Y-76803394D01*
X121126691Y-76803394D02*
X121088596Y-76879584D01*
X121088596Y-76879584D02*
X121050501Y-76917680D01*
X121050501Y-76917680D02*
X120974310Y-76955775D01*
X120974310Y-76955775D02*
X120898120Y-76955775D01*
X120898120Y-76955775D02*
X120821929Y-76917680D01*
X120821929Y-76917680D02*
X120783834Y-76879584D01*
X120783834Y-76879584D02*
X120745739Y-76803394D01*
X120745739Y-76803394D02*
X120707643Y-76651013D01*
X120707643Y-76651013D02*
X120707643Y-76460537D01*
X120707643Y-76460537D02*
X120745739Y-76308156D01*
X120745739Y-76308156D02*
X120783834Y-76231965D01*
X120783834Y-76231965D02*
X120821929Y-76193870D01*
X120821929Y-76193870D02*
X120898120Y-76155775D01*
X121507644Y-76879584D02*
X121545739Y-76917680D01*
X121545739Y-76917680D02*
X121507644Y-76955775D01*
X121507644Y-76955775D02*
X121469548Y-76917680D01*
X121469548Y-76917680D02*
X121507644Y-76879584D01*
X121507644Y-76879584D02*
X121507644Y-76955775D01*
X121850500Y-76231965D02*
X121888596Y-76193870D01*
X121888596Y-76193870D02*
X121964786Y-76155775D01*
X121964786Y-76155775D02*
X122155262Y-76155775D01*
X122155262Y-76155775D02*
X122231453Y-76193870D01*
X122231453Y-76193870D02*
X122269548Y-76231965D01*
X122269548Y-76231965D02*
X122307643Y-76308156D01*
X122307643Y-76308156D02*
X122307643Y-76384346D01*
X122307643Y-76384346D02*
X122269548Y-76498632D01*
X122269548Y-76498632D02*
X121812405Y-76955775D01*
X121812405Y-76955775D02*
X122307643Y-76955775D01*
X120745739Y-78243775D02*
X120745739Y-77443775D01*
X121126691Y-78243775D02*
X121126691Y-77443775D01*
X121126691Y-77443775D02*
X121583834Y-78243775D01*
X121583834Y-78243775D02*
X121583834Y-77443775D01*
X121850500Y-77443775D02*
X122307643Y-77443775D01*
X122079071Y-78243775D02*
X122079071Y-77443775D01*
X121114786Y-69617775D02*
X120657643Y-69617775D01*
X120886215Y-69617775D02*
X120886215Y-68817775D01*
X120886215Y-68817775D02*
X120810024Y-68932060D01*
X120810024Y-68932060D02*
X120733834Y-69008251D01*
X120733834Y-69008251D02*
X120657643Y-69046346D01*
X121610025Y-68817775D02*
X121686215Y-68817775D01*
X121686215Y-68817775D02*
X121762406Y-68855870D01*
X121762406Y-68855870D02*
X121800501Y-68893965D01*
X121800501Y-68893965D02*
X121838596Y-68970156D01*
X121838596Y-68970156D02*
X121876691Y-69122537D01*
X121876691Y-69122537D02*
X121876691Y-69313013D01*
X121876691Y-69313013D02*
X121838596Y-69465394D01*
X121838596Y-69465394D02*
X121800501Y-69541584D01*
X121800501Y-69541584D02*
X121762406Y-69579680D01*
X121762406Y-69579680D02*
X121686215Y-69617775D01*
X121686215Y-69617775D02*
X121610025Y-69617775D01*
X121610025Y-69617775D02*
X121533834Y-69579680D01*
X121533834Y-69579680D02*
X121495739Y-69541584D01*
X121495739Y-69541584D02*
X121457644Y-69465394D01*
X121457644Y-69465394D02*
X121419548Y-69313013D01*
X121419548Y-69313013D02*
X121419548Y-69122537D01*
X121419548Y-69122537D02*
X121457644Y-68970156D01*
X121457644Y-68970156D02*
X121495739Y-68893965D01*
X121495739Y-68893965D02*
X121533834Y-68855870D01*
X121533834Y-68855870D02*
X121610025Y-68817775D01*
X122105263Y-68817775D02*
X122562406Y-68817775D01*
X122333834Y-69617775D02*
X122333834Y-68817775D01*
X120848120Y-70105775D02*
X120924310Y-70105775D01*
X120924310Y-70105775D02*
X121000501Y-70143870D01*
X121000501Y-70143870D02*
X121038596Y-70181965D01*
X121038596Y-70181965D02*
X121076691Y-70258156D01*
X121076691Y-70258156D02*
X121114786Y-70410537D01*
X121114786Y-70410537D02*
X121114786Y-70601013D01*
X121114786Y-70601013D02*
X121076691Y-70753394D01*
X121076691Y-70753394D02*
X121038596Y-70829584D01*
X121038596Y-70829584D02*
X121000501Y-70867680D01*
X121000501Y-70867680D02*
X120924310Y-70905775D01*
X120924310Y-70905775D02*
X120848120Y-70905775D01*
X120848120Y-70905775D02*
X120771929Y-70867680D01*
X120771929Y-70867680D02*
X120733834Y-70829584D01*
X120733834Y-70829584D02*
X120695739Y-70753394D01*
X120695739Y-70753394D02*
X120657643Y-70601013D01*
X120657643Y-70601013D02*
X120657643Y-70410537D01*
X120657643Y-70410537D02*
X120695739Y-70258156D01*
X120695739Y-70258156D02*
X120733834Y-70181965D01*
X120733834Y-70181965D02*
X120771929Y-70143870D01*
X120771929Y-70143870D02*
X120848120Y-70105775D01*
X121457644Y-70829584D02*
X121495739Y-70867680D01*
X121495739Y-70867680D02*
X121457644Y-70905775D01*
X121457644Y-70905775D02*
X121419548Y-70867680D01*
X121419548Y-70867680D02*
X121457644Y-70829584D01*
X121457644Y-70829584D02*
X121457644Y-70905775D01*
X121800500Y-70181965D02*
X121838596Y-70143870D01*
X121838596Y-70143870D02*
X121914786Y-70105775D01*
X121914786Y-70105775D02*
X122105262Y-70105775D01*
X122105262Y-70105775D02*
X122181453Y-70143870D01*
X122181453Y-70143870D02*
X122219548Y-70181965D01*
X122219548Y-70181965D02*
X122257643Y-70258156D01*
X122257643Y-70258156D02*
X122257643Y-70334346D01*
X122257643Y-70334346D02*
X122219548Y-70448632D01*
X122219548Y-70448632D02*
X121762405Y-70905775D01*
X121762405Y-70905775D02*
X122257643Y-70905775D01*
X120695739Y-71774727D02*
X120962405Y-71774727D01*
X121076691Y-72193775D02*
X120695739Y-72193775D01*
X120695739Y-72193775D02*
X120695739Y-71393775D01*
X120695739Y-71393775D02*
X121076691Y-71393775D01*
X121343358Y-71393775D02*
X121876692Y-72193775D01*
X121876692Y-71393775D02*
X121343358Y-72193775D01*
X122067168Y-71393775D02*
X122524311Y-71393775D01*
X122295739Y-72193775D02*
X122295739Y-71393775D01*
D12*
X108069600Y-42177945D02*
X108117219Y-42035088D01*
X108117219Y-42035088D02*
X108117219Y-41796993D01*
X108117219Y-41796993D02*
X108069600Y-41701755D01*
X108069600Y-41701755D02*
X108021980Y-41654136D01*
X108021980Y-41654136D02*
X107926742Y-41606517D01*
X107926742Y-41606517D02*
X107831504Y-41606517D01*
X107831504Y-41606517D02*
X107736266Y-41654136D01*
X107736266Y-41654136D02*
X107688647Y-41701755D01*
X107688647Y-41701755D02*
X107641028Y-41796993D01*
X107641028Y-41796993D02*
X107593409Y-41987469D01*
X107593409Y-41987469D02*
X107545790Y-42082707D01*
X107545790Y-42082707D02*
X107498171Y-42130326D01*
X107498171Y-42130326D02*
X107402933Y-42177945D01*
X107402933Y-42177945D02*
X107307695Y-42177945D01*
X107307695Y-42177945D02*
X107212457Y-42130326D01*
X107212457Y-42130326D02*
X107164838Y-42082707D01*
X107164838Y-42082707D02*
X107117219Y-41987469D01*
X107117219Y-41987469D02*
X107117219Y-41749374D01*
X107117219Y-41749374D02*
X107164838Y-41606517D01*
X107117219Y-41177945D02*
X107926742Y-41177945D01*
X107926742Y-41177945D02*
X108021980Y-41130326D01*
X108021980Y-41130326D02*
X108069600Y-41082707D01*
X108069600Y-41082707D02*
X108117219Y-40987469D01*
X108117219Y-40987469D02*
X108117219Y-40796993D01*
X108117219Y-40796993D02*
X108069600Y-40701755D01*
X108069600Y-40701755D02*
X108021980Y-40654136D01*
X108021980Y-40654136D02*
X107926742Y-40606517D01*
X107926742Y-40606517D02*
X107117219Y-40606517D01*
X108117219Y-40130326D02*
X107117219Y-40130326D01*
X107117219Y-40130326D02*
X107831504Y-39796993D01*
X107831504Y-39796993D02*
X107117219Y-39463660D01*
X107117219Y-39463660D02*
X108117219Y-39463660D01*
X108117219Y-38987469D02*
X107117219Y-38987469D01*
X108117219Y-38511279D02*
X107117219Y-38511279D01*
X107117219Y-38511279D02*
X107117219Y-38273184D01*
X107117219Y-38273184D02*
X107164838Y-38130327D01*
X107164838Y-38130327D02*
X107260076Y-38035089D01*
X107260076Y-38035089D02*
X107355314Y-37987470D01*
X107355314Y-37987470D02*
X107545790Y-37939851D01*
X107545790Y-37939851D02*
X107688647Y-37939851D01*
X107688647Y-37939851D02*
X107879123Y-37987470D01*
X107879123Y-37987470D02*
X107974361Y-38035089D01*
X107974361Y-38035089D02*
X108069600Y-38130327D01*
X108069600Y-38130327D02*
X108117219Y-38273184D01*
X108117219Y-38273184D02*
X108117219Y-38511279D01*
X107831504Y-37558898D02*
X107831504Y-37082708D01*
X108117219Y-37654136D02*
X107117219Y-37320803D01*
X107117219Y-37320803D02*
X108117219Y-36987470D01*
X124643409Y-76480326D02*
X124643409Y-76146993D01*
X125167219Y-76004136D02*
X125167219Y-76480326D01*
X125167219Y-76480326D02*
X124167219Y-76480326D01*
X124167219Y-76480326D02*
X124167219Y-76004136D01*
X125167219Y-75004136D02*
X124691028Y-75337469D01*
X125167219Y-75575564D02*
X124167219Y-75575564D01*
X124167219Y-75575564D02*
X124167219Y-75194612D01*
X124167219Y-75194612D02*
X124214838Y-75099374D01*
X124214838Y-75099374D02*
X124262457Y-75051755D01*
X124262457Y-75051755D02*
X124357695Y-75004136D01*
X124357695Y-75004136D02*
X124500552Y-75004136D01*
X124500552Y-75004136D02*
X124595790Y-75051755D01*
X124595790Y-75051755D02*
X124643409Y-75099374D01*
X124643409Y-75099374D02*
X124691028Y-75194612D01*
X124691028Y-75194612D02*
X124691028Y-75575564D01*
X125167219Y-74527945D02*
X125167219Y-74337469D01*
X125167219Y-74337469D02*
X125119600Y-74242231D01*
X125119600Y-74242231D02*
X125071980Y-74194612D01*
X125071980Y-74194612D02*
X124929123Y-74099374D01*
X124929123Y-74099374D02*
X124738647Y-74051755D01*
X124738647Y-74051755D02*
X124357695Y-74051755D01*
X124357695Y-74051755D02*
X124262457Y-74099374D01*
X124262457Y-74099374D02*
X124214838Y-74146993D01*
X124214838Y-74146993D02*
X124167219Y-74242231D01*
X124167219Y-74242231D02*
X124167219Y-74432707D01*
X124167219Y-74432707D02*
X124214838Y-74527945D01*
X124214838Y-74527945D02*
X124262457Y-74575564D01*
X124262457Y-74575564D02*
X124357695Y-74623183D01*
X124357695Y-74623183D02*
X124595790Y-74623183D01*
X124595790Y-74623183D02*
X124691028Y-74575564D01*
X124691028Y-74575564D02*
X124738647Y-74527945D01*
X124738647Y-74527945D02*
X124786266Y-74432707D01*
X124786266Y-74432707D02*
X124786266Y-74242231D01*
X124786266Y-74242231D02*
X124738647Y-74146993D01*
X124738647Y-74146993D02*
X124691028Y-74099374D01*
X124691028Y-74099374D02*
X124595790Y-74051755D01*
X125071980Y-73623183D02*
X125119600Y-73575564D01*
X125119600Y-73575564D02*
X125167219Y-73623183D01*
X125167219Y-73623183D02*
X125119600Y-73670802D01*
X125119600Y-73670802D02*
X125071980Y-73623183D01*
X125071980Y-73623183D02*
X125167219Y-73623183D01*
X124167219Y-72670803D02*
X124167219Y-73146993D01*
X124167219Y-73146993D02*
X124643409Y-73194612D01*
X124643409Y-73194612D02*
X124595790Y-73146993D01*
X124595790Y-73146993D02*
X124548171Y-73051755D01*
X124548171Y-73051755D02*
X124548171Y-72813660D01*
X124548171Y-72813660D02*
X124595790Y-72718422D01*
X124595790Y-72718422D02*
X124643409Y-72670803D01*
X124643409Y-72670803D02*
X124738647Y-72623184D01*
X124738647Y-72623184D02*
X124976742Y-72623184D01*
X124976742Y-72623184D02*
X125071980Y-72670803D01*
X125071980Y-72670803D02*
X125119600Y-72718422D01*
X125119600Y-72718422D02*
X125167219Y-72813660D01*
X125167219Y-72813660D02*
X125167219Y-73051755D01*
X125167219Y-73051755D02*
X125119600Y-73146993D01*
X125119600Y-73146993D02*
X125071980Y-73194612D01*
X124119600Y-71480327D02*
X125405314Y-72337469D01*
X124167219Y-70670803D02*
X124167219Y-71146993D01*
X124167219Y-71146993D02*
X124643409Y-71194612D01*
X124643409Y-71194612D02*
X124595790Y-71146993D01*
X124595790Y-71146993D02*
X124548171Y-71051755D01*
X124548171Y-71051755D02*
X124548171Y-70813660D01*
X124548171Y-70813660D02*
X124595790Y-70718422D01*
X124595790Y-70718422D02*
X124643409Y-70670803D01*
X124643409Y-70670803D02*
X124738647Y-70623184D01*
X124738647Y-70623184D02*
X124976742Y-70623184D01*
X124976742Y-70623184D02*
X125071980Y-70670803D01*
X125071980Y-70670803D02*
X125119600Y-70718422D01*
X125119600Y-70718422D02*
X125167219Y-70813660D01*
X125167219Y-70813660D02*
X125167219Y-71051755D01*
X125167219Y-71051755D02*
X125119600Y-71146993D01*
X125119600Y-71146993D02*
X125071980Y-71194612D01*
D11*
X138214786Y-69667775D02*
X137757643Y-69667775D01*
X137986215Y-69667775D02*
X137986215Y-68867775D01*
X137986215Y-68867775D02*
X137910024Y-68982060D01*
X137910024Y-68982060D02*
X137833834Y-69058251D01*
X137833834Y-69058251D02*
X137757643Y-69096346D01*
X138900501Y-69134441D02*
X138900501Y-69667775D01*
X138710025Y-68829680D02*
X138519548Y-69401108D01*
X138519548Y-69401108D02*
X139014787Y-69401108D01*
X139205263Y-68867775D02*
X139662406Y-68867775D01*
X139433834Y-69667775D02*
X139433834Y-68867775D01*
X137948120Y-70155775D02*
X138024310Y-70155775D01*
X138024310Y-70155775D02*
X138100501Y-70193870D01*
X138100501Y-70193870D02*
X138138596Y-70231965D01*
X138138596Y-70231965D02*
X138176691Y-70308156D01*
X138176691Y-70308156D02*
X138214786Y-70460537D01*
X138214786Y-70460537D02*
X138214786Y-70651013D01*
X138214786Y-70651013D02*
X138176691Y-70803394D01*
X138176691Y-70803394D02*
X138138596Y-70879584D01*
X138138596Y-70879584D02*
X138100501Y-70917680D01*
X138100501Y-70917680D02*
X138024310Y-70955775D01*
X138024310Y-70955775D02*
X137948120Y-70955775D01*
X137948120Y-70955775D02*
X137871929Y-70917680D01*
X137871929Y-70917680D02*
X137833834Y-70879584D01*
X137833834Y-70879584D02*
X137795739Y-70803394D01*
X137795739Y-70803394D02*
X137757643Y-70651013D01*
X137757643Y-70651013D02*
X137757643Y-70460537D01*
X137757643Y-70460537D02*
X137795739Y-70308156D01*
X137795739Y-70308156D02*
X137833834Y-70231965D01*
X137833834Y-70231965D02*
X137871929Y-70193870D01*
X137871929Y-70193870D02*
X137948120Y-70155775D01*
X138557644Y-70879584D02*
X138595739Y-70917680D01*
X138595739Y-70917680D02*
X138557644Y-70955775D01*
X138557644Y-70955775D02*
X138519548Y-70917680D01*
X138519548Y-70917680D02*
X138557644Y-70879584D01*
X138557644Y-70879584D02*
X138557644Y-70955775D01*
X139357643Y-70955775D02*
X138900500Y-70955775D01*
X139129072Y-70955775D02*
X139129072Y-70155775D01*
X139129072Y-70155775D02*
X139052881Y-70270060D01*
X139052881Y-70270060D02*
X138976691Y-70346251D01*
X138976691Y-70346251D02*
X138900500Y-70384346D01*
X137795739Y-71824727D02*
X138062405Y-71824727D01*
X138176691Y-72243775D02*
X137795739Y-72243775D01*
X137795739Y-72243775D02*
X137795739Y-71443775D01*
X137795739Y-71443775D02*
X138176691Y-71443775D01*
X138443358Y-71443775D02*
X138976692Y-72243775D01*
X138976692Y-71443775D02*
X138443358Y-72243775D01*
X139167168Y-71443775D02*
X139624311Y-71443775D01*
X139395739Y-72243775D02*
X139395739Y-71443775D01*
D12*
X107743409Y-76480326D02*
X107743409Y-76146993D01*
X108267219Y-76004136D02*
X108267219Y-76480326D01*
X108267219Y-76480326D02*
X107267219Y-76480326D01*
X107267219Y-76480326D02*
X107267219Y-76004136D01*
X108267219Y-75004136D02*
X107791028Y-75337469D01*
X108267219Y-75575564D02*
X107267219Y-75575564D01*
X107267219Y-75575564D02*
X107267219Y-75194612D01*
X107267219Y-75194612D02*
X107314838Y-75099374D01*
X107314838Y-75099374D02*
X107362457Y-75051755D01*
X107362457Y-75051755D02*
X107457695Y-75004136D01*
X107457695Y-75004136D02*
X107600552Y-75004136D01*
X107600552Y-75004136D02*
X107695790Y-75051755D01*
X107695790Y-75051755D02*
X107743409Y-75099374D01*
X107743409Y-75099374D02*
X107791028Y-75194612D01*
X107791028Y-75194612D02*
X107791028Y-75575564D01*
X108267219Y-74527945D02*
X108267219Y-74337469D01*
X108267219Y-74337469D02*
X108219600Y-74242231D01*
X108219600Y-74242231D02*
X108171980Y-74194612D01*
X108171980Y-74194612D02*
X108029123Y-74099374D01*
X108029123Y-74099374D02*
X107838647Y-74051755D01*
X107838647Y-74051755D02*
X107457695Y-74051755D01*
X107457695Y-74051755D02*
X107362457Y-74099374D01*
X107362457Y-74099374D02*
X107314838Y-74146993D01*
X107314838Y-74146993D02*
X107267219Y-74242231D01*
X107267219Y-74242231D02*
X107267219Y-74432707D01*
X107267219Y-74432707D02*
X107314838Y-74527945D01*
X107314838Y-74527945D02*
X107362457Y-74575564D01*
X107362457Y-74575564D02*
X107457695Y-74623183D01*
X107457695Y-74623183D02*
X107695790Y-74623183D01*
X107695790Y-74623183D02*
X107791028Y-74575564D01*
X107791028Y-74575564D02*
X107838647Y-74527945D01*
X107838647Y-74527945D02*
X107886266Y-74432707D01*
X107886266Y-74432707D02*
X107886266Y-74242231D01*
X107886266Y-74242231D02*
X107838647Y-74146993D01*
X107838647Y-74146993D02*
X107791028Y-74099374D01*
X107791028Y-74099374D02*
X107695790Y-74051755D01*
X108171980Y-73623183D02*
X108219600Y-73575564D01*
X108219600Y-73575564D02*
X108267219Y-73623183D01*
X108267219Y-73623183D02*
X108219600Y-73670802D01*
X108219600Y-73670802D02*
X108171980Y-73623183D01*
X108171980Y-73623183D02*
X108267219Y-73623183D01*
X107267219Y-72670803D02*
X107267219Y-73146993D01*
X107267219Y-73146993D02*
X107743409Y-73194612D01*
X107743409Y-73194612D02*
X107695790Y-73146993D01*
X107695790Y-73146993D02*
X107648171Y-73051755D01*
X107648171Y-73051755D02*
X107648171Y-72813660D01*
X107648171Y-72813660D02*
X107695790Y-72718422D01*
X107695790Y-72718422D02*
X107743409Y-72670803D01*
X107743409Y-72670803D02*
X107838647Y-72623184D01*
X107838647Y-72623184D02*
X108076742Y-72623184D01*
X108076742Y-72623184D02*
X108171980Y-72670803D01*
X108171980Y-72670803D02*
X108219600Y-72718422D01*
X108219600Y-72718422D02*
X108267219Y-72813660D01*
X108267219Y-72813660D02*
X108267219Y-73051755D01*
X108267219Y-73051755D02*
X108219600Y-73146993D01*
X108219600Y-73146993D02*
X108171980Y-73194612D01*
X107219600Y-71480327D02*
X108505314Y-72337469D01*
X107267219Y-70670803D02*
X107267219Y-71146993D01*
X107267219Y-71146993D02*
X107743409Y-71194612D01*
X107743409Y-71194612D02*
X107695790Y-71146993D01*
X107695790Y-71146993D02*
X107648171Y-71051755D01*
X107648171Y-71051755D02*
X107648171Y-70813660D01*
X107648171Y-70813660D02*
X107695790Y-70718422D01*
X107695790Y-70718422D02*
X107743409Y-70670803D01*
X107743409Y-70670803D02*
X107838647Y-70623184D01*
X107838647Y-70623184D02*
X108076742Y-70623184D01*
X108076742Y-70623184D02*
X108171980Y-70670803D01*
X108171980Y-70670803D02*
X108219600Y-70718422D01*
X108219600Y-70718422D02*
X108267219Y-70813660D01*
X108267219Y-70813660D02*
X108267219Y-71051755D01*
X108267219Y-71051755D02*
X108219600Y-71146993D01*
X108219600Y-71146993D02*
X108171980Y-71194612D01*
X107593409Y-58380326D02*
X107593409Y-58046993D01*
X108117219Y-57904136D02*
X108117219Y-58380326D01*
X108117219Y-58380326D02*
X107117219Y-58380326D01*
X107117219Y-58380326D02*
X107117219Y-57904136D01*
X108117219Y-56904136D02*
X107641028Y-57237469D01*
X108117219Y-57475564D02*
X107117219Y-57475564D01*
X107117219Y-57475564D02*
X107117219Y-57094612D01*
X107117219Y-57094612D02*
X107164838Y-56999374D01*
X107164838Y-56999374D02*
X107212457Y-56951755D01*
X107212457Y-56951755D02*
X107307695Y-56904136D01*
X107307695Y-56904136D02*
X107450552Y-56904136D01*
X107450552Y-56904136D02*
X107545790Y-56951755D01*
X107545790Y-56951755D02*
X107593409Y-56999374D01*
X107593409Y-56999374D02*
X107641028Y-57094612D01*
X107641028Y-57094612D02*
X107641028Y-57475564D01*
X108117219Y-55951755D02*
X108117219Y-56523183D01*
X108117219Y-56237469D02*
X107117219Y-56237469D01*
X107117219Y-56237469D02*
X107260076Y-56332707D01*
X107260076Y-56332707D02*
X107355314Y-56427945D01*
X107355314Y-56427945D02*
X107402933Y-56523183D01*
X108117219Y-54999374D02*
X108117219Y-55570802D01*
X108117219Y-55285088D02*
X107117219Y-55285088D01*
X107117219Y-55285088D02*
X107260076Y-55380326D01*
X107260076Y-55380326D02*
X107355314Y-55475564D01*
X107355314Y-55475564D02*
X107402933Y-55570802D01*
X107069600Y-53856517D02*
X108355314Y-54713659D01*
X107117219Y-53046993D02*
X107117219Y-53523183D01*
X107117219Y-53523183D02*
X107593409Y-53570802D01*
X107593409Y-53570802D02*
X107545790Y-53523183D01*
X107545790Y-53523183D02*
X107498171Y-53427945D01*
X107498171Y-53427945D02*
X107498171Y-53189850D01*
X107498171Y-53189850D02*
X107545790Y-53094612D01*
X107545790Y-53094612D02*
X107593409Y-53046993D01*
X107593409Y-53046993D02*
X107688647Y-52999374D01*
X107688647Y-52999374D02*
X107926742Y-52999374D01*
X107926742Y-52999374D02*
X108021980Y-53046993D01*
X108021980Y-53046993D02*
X108069600Y-53094612D01*
X108069600Y-53094612D02*
X108117219Y-53189850D01*
X108117219Y-53189850D02*
X108117219Y-53427945D01*
X108117219Y-53427945D02*
X108069600Y-53523183D01*
X108069600Y-53523183D02*
X108021980Y-53570802D01*
D11*
X138114786Y-75667775D02*
X137657643Y-75667775D01*
X137886215Y-75667775D02*
X137886215Y-74867775D01*
X137886215Y-74867775D02*
X137810024Y-74982060D01*
X137810024Y-74982060D02*
X137733834Y-75058251D01*
X137733834Y-75058251D02*
X137657643Y-75096346D01*
X138610025Y-74867775D02*
X138686215Y-74867775D01*
X138686215Y-74867775D02*
X138762406Y-74905870D01*
X138762406Y-74905870D02*
X138800501Y-74943965D01*
X138800501Y-74943965D02*
X138838596Y-75020156D01*
X138838596Y-75020156D02*
X138876691Y-75172537D01*
X138876691Y-75172537D02*
X138876691Y-75363013D01*
X138876691Y-75363013D02*
X138838596Y-75515394D01*
X138838596Y-75515394D02*
X138800501Y-75591584D01*
X138800501Y-75591584D02*
X138762406Y-75629680D01*
X138762406Y-75629680D02*
X138686215Y-75667775D01*
X138686215Y-75667775D02*
X138610025Y-75667775D01*
X138610025Y-75667775D02*
X138533834Y-75629680D01*
X138533834Y-75629680D02*
X138495739Y-75591584D01*
X138495739Y-75591584D02*
X138457644Y-75515394D01*
X138457644Y-75515394D02*
X138419548Y-75363013D01*
X138419548Y-75363013D02*
X138419548Y-75172537D01*
X138419548Y-75172537D02*
X138457644Y-75020156D01*
X138457644Y-75020156D02*
X138495739Y-74943965D01*
X138495739Y-74943965D02*
X138533834Y-74905870D01*
X138533834Y-74905870D02*
X138610025Y-74867775D01*
X139105263Y-74867775D02*
X139562406Y-74867775D01*
X139333834Y-75667775D02*
X139333834Y-74867775D01*
X137848120Y-76155775D02*
X137924310Y-76155775D01*
X137924310Y-76155775D02*
X138000501Y-76193870D01*
X138000501Y-76193870D02*
X138038596Y-76231965D01*
X138038596Y-76231965D02*
X138076691Y-76308156D01*
X138076691Y-76308156D02*
X138114786Y-76460537D01*
X138114786Y-76460537D02*
X138114786Y-76651013D01*
X138114786Y-76651013D02*
X138076691Y-76803394D01*
X138076691Y-76803394D02*
X138038596Y-76879584D01*
X138038596Y-76879584D02*
X138000501Y-76917680D01*
X138000501Y-76917680D02*
X137924310Y-76955775D01*
X137924310Y-76955775D02*
X137848120Y-76955775D01*
X137848120Y-76955775D02*
X137771929Y-76917680D01*
X137771929Y-76917680D02*
X137733834Y-76879584D01*
X137733834Y-76879584D02*
X137695739Y-76803394D01*
X137695739Y-76803394D02*
X137657643Y-76651013D01*
X137657643Y-76651013D02*
X137657643Y-76460537D01*
X137657643Y-76460537D02*
X137695739Y-76308156D01*
X137695739Y-76308156D02*
X137733834Y-76231965D01*
X137733834Y-76231965D02*
X137771929Y-76193870D01*
X137771929Y-76193870D02*
X137848120Y-76155775D01*
X138457644Y-76879584D02*
X138495739Y-76917680D01*
X138495739Y-76917680D02*
X138457644Y-76955775D01*
X138457644Y-76955775D02*
X138419548Y-76917680D01*
X138419548Y-76917680D02*
X138457644Y-76879584D01*
X138457644Y-76879584D02*
X138457644Y-76955775D01*
X138800500Y-76231965D02*
X138838596Y-76193870D01*
X138838596Y-76193870D02*
X138914786Y-76155775D01*
X138914786Y-76155775D02*
X139105262Y-76155775D01*
X139105262Y-76155775D02*
X139181453Y-76193870D01*
X139181453Y-76193870D02*
X139219548Y-76231965D01*
X139219548Y-76231965D02*
X139257643Y-76308156D01*
X139257643Y-76308156D02*
X139257643Y-76384346D01*
X139257643Y-76384346D02*
X139219548Y-76498632D01*
X139219548Y-76498632D02*
X138762405Y-76955775D01*
X138762405Y-76955775D02*
X139257643Y-76955775D01*
X137695739Y-78243775D02*
X137695739Y-77443775D01*
X138076691Y-78243775D02*
X138076691Y-77443775D01*
X138076691Y-77443775D02*
X138533834Y-78243775D01*
X138533834Y-78243775D02*
X138533834Y-77443775D01*
X138800500Y-77443775D02*
X139257643Y-77443775D01*
X139029071Y-78243775D02*
X139029071Y-77443775D01*
D13*
X148095237Y-44859580D02*
X148047618Y-44907200D01*
X148047618Y-44907200D02*
X147904761Y-44954819D01*
X147904761Y-44954819D02*
X147809523Y-44954819D01*
X147809523Y-44954819D02*
X147666666Y-44907200D01*
X147666666Y-44907200D02*
X147571428Y-44811961D01*
X147571428Y-44811961D02*
X147523809Y-44716723D01*
X147523809Y-44716723D02*
X147476190Y-44526247D01*
X147476190Y-44526247D02*
X147476190Y-44383390D01*
X147476190Y-44383390D02*
X147523809Y-44192914D01*
X147523809Y-44192914D02*
X147571428Y-44097676D01*
X147571428Y-44097676D02*
X147666666Y-44002438D01*
X147666666Y-44002438D02*
X147809523Y-43954819D01*
X147809523Y-43954819D02*
X147904761Y-43954819D01*
X147904761Y-43954819D02*
X148047618Y-44002438D01*
X148047618Y-44002438D02*
X148095237Y-44050057D01*
X148285714Y-45050057D02*
X149047618Y-45050057D01*
X149238095Y-44907200D02*
X149380952Y-44954819D01*
X149380952Y-44954819D02*
X149619047Y-44954819D01*
X149619047Y-44954819D02*
X149714285Y-44907200D01*
X149714285Y-44907200D02*
X149761904Y-44859580D01*
X149761904Y-44859580D02*
X149809523Y-44764342D01*
X149809523Y-44764342D02*
X149809523Y-44669104D01*
X149809523Y-44669104D02*
X149761904Y-44573866D01*
X149761904Y-44573866D02*
X149714285Y-44526247D01*
X149714285Y-44526247D02*
X149619047Y-44478628D01*
X149619047Y-44478628D02*
X149428571Y-44431009D01*
X149428571Y-44431009D02*
X149333333Y-44383390D01*
X149333333Y-44383390D02*
X149285714Y-44335771D01*
X149285714Y-44335771D02*
X149238095Y-44240533D01*
X149238095Y-44240533D02*
X149238095Y-44145295D01*
X149238095Y-44145295D02*
X149285714Y-44050057D01*
X149285714Y-44050057D02*
X149333333Y-44002438D01*
X149333333Y-44002438D02*
X149428571Y-43954819D01*
X149428571Y-43954819D02*
X149666666Y-43954819D01*
X149666666Y-43954819D02*
X149809523Y-44002438D01*
X150619047Y-44907200D02*
X150523809Y-44954819D01*
X150523809Y-44954819D02*
X150333333Y-44954819D01*
X150333333Y-44954819D02*
X150238095Y-44907200D01*
X150238095Y-44907200D02*
X150190476Y-44811961D01*
X150190476Y-44811961D02*
X150190476Y-44431009D01*
X150190476Y-44431009D02*
X150238095Y-44335771D01*
X150238095Y-44335771D02*
X150333333Y-44288152D01*
X150333333Y-44288152D02*
X150523809Y-44288152D01*
X150523809Y-44288152D02*
X150619047Y-44335771D01*
X150619047Y-44335771D02*
X150666666Y-44431009D01*
X150666666Y-44431009D02*
X150666666Y-44526247D01*
X150666666Y-44526247D02*
X150190476Y-44621485D01*
X151523809Y-44907200D02*
X151428571Y-44954819D01*
X151428571Y-44954819D02*
X151238095Y-44954819D01*
X151238095Y-44954819D02*
X151142857Y-44907200D01*
X151142857Y-44907200D02*
X151095238Y-44859580D01*
X151095238Y-44859580D02*
X151047619Y-44764342D01*
X151047619Y-44764342D02*
X151047619Y-44478628D01*
X151047619Y-44478628D02*
X151095238Y-44383390D01*
X151095238Y-44383390D02*
X151142857Y-44335771D01*
X151142857Y-44335771D02*
X151238095Y-44288152D01*
X151238095Y-44288152D02*
X151428571Y-44288152D01*
X151428571Y-44288152D02*
X151523809Y-44335771D01*
X130571428Y-61431009D02*
X130904761Y-61431009D01*
X131047618Y-61954819D02*
X130571428Y-61954819D01*
X130571428Y-61954819D02*
X130571428Y-60954819D01*
X130571428Y-60954819D02*
X131047618Y-60954819D01*
X131238095Y-62050057D02*
X131999999Y-62050057D01*
X132190476Y-61907200D02*
X132333333Y-61954819D01*
X132333333Y-61954819D02*
X132571428Y-61954819D01*
X132571428Y-61954819D02*
X132666666Y-61907200D01*
X132666666Y-61907200D02*
X132714285Y-61859580D01*
X132714285Y-61859580D02*
X132761904Y-61764342D01*
X132761904Y-61764342D02*
X132761904Y-61669104D01*
X132761904Y-61669104D02*
X132714285Y-61573866D01*
X132714285Y-61573866D02*
X132666666Y-61526247D01*
X132666666Y-61526247D02*
X132571428Y-61478628D01*
X132571428Y-61478628D02*
X132380952Y-61431009D01*
X132380952Y-61431009D02*
X132285714Y-61383390D01*
X132285714Y-61383390D02*
X132238095Y-61335771D01*
X132238095Y-61335771D02*
X132190476Y-61240533D01*
X132190476Y-61240533D02*
X132190476Y-61145295D01*
X132190476Y-61145295D02*
X132238095Y-61050057D01*
X132238095Y-61050057D02*
X132285714Y-61002438D01*
X132285714Y-61002438D02*
X132380952Y-60954819D01*
X132380952Y-60954819D02*
X132619047Y-60954819D01*
X132619047Y-60954819D02*
X132761904Y-61002438D01*
X133571428Y-61907200D02*
X133476190Y-61954819D01*
X133476190Y-61954819D02*
X133285714Y-61954819D01*
X133285714Y-61954819D02*
X133190476Y-61907200D01*
X133190476Y-61907200D02*
X133142857Y-61811961D01*
X133142857Y-61811961D02*
X133142857Y-61431009D01*
X133142857Y-61431009D02*
X133190476Y-61335771D01*
X133190476Y-61335771D02*
X133285714Y-61288152D01*
X133285714Y-61288152D02*
X133476190Y-61288152D01*
X133476190Y-61288152D02*
X133571428Y-61335771D01*
X133571428Y-61335771D02*
X133619047Y-61431009D01*
X133619047Y-61431009D02*
X133619047Y-61526247D01*
X133619047Y-61526247D02*
X133142857Y-61621485D01*
X134476190Y-61907200D02*
X134380952Y-61954819D01*
X134380952Y-61954819D02*
X134190476Y-61954819D01*
X134190476Y-61954819D02*
X134095238Y-61907200D01*
X134095238Y-61907200D02*
X134047619Y-61859580D01*
X134047619Y-61859580D02*
X134000000Y-61764342D01*
X134000000Y-61764342D02*
X134000000Y-61478628D01*
X134000000Y-61478628D02*
X134047619Y-61383390D01*
X134047619Y-61383390D02*
X134095238Y-61335771D01*
X134095238Y-61335771D02*
X134190476Y-61288152D01*
X134190476Y-61288152D02*
X134380952Y-61288152D01*
X134380952Y-61288152D02*
X134476190Y-61335771D01*
X113547619Y-44669104D02*
X114023809Y-44669104D01*
X113452381Y-44954819D02*
X113785714Y-43954819D01*
X113785714Y-43954819D02*
X114119047Y-44954819D01*
X114214286Y-45050057D02*
X114976190Y-45050057D01*
X115166667Y-44907200D02*
X115309524Y-44954819D01*
X115309524Y-44954819D02*
X115547619Y-44954819D01*
X115547619Y-44954819D02*
X115642857Y-44907200D01*
X115642857Y-44907200D02*
X115690476Y-44859580D01*
X115690476Y-44859580D02*
X115738095Y-44764342D01*
X115738095Y-44764342D02*
X115738095Y-44669104D01*
X115738095Y-44669104D02*
X115690476Y-44573866D01*
X115690476Y-44573866D02*
X115642857Y-44526247D01*
X115642857Y-44526247D02*
X115547619Y-44478628D01*
X115547619Y-44478628D02*
X115357143Y-44431009D01*
X115357143Y-44431009D02*
X115261905Y-44383390D01*
X115261905Y-44383390D02*
X115214286Y-44335771D01*
X115214286Y-44335771D02*
X115166667Y-44240533D01*
X115166667Y-44240533D02*
X115166667Y-44145295D01*
X115166667Y-44145295D02*
X115214286Y-44050057D01*
X115214286Y-44050057D02*
X115261905Y-44002438D01*
X115261905Y-44002438D02*
X115357143Y-43954819D01*
X115357143Y-43954819D02*
X115595238Y-43954819D01*
X115595238Y-43954819D02*
X115738095Y-44002438D01*
X116547619Y-44907200D02*
X116452381Y-44954819D01*
X116452381Y-44954819D02*
X116261905Y-44954819D01*
X116261905Y-44954819D02*
X116166667Y-44907200D01*
X116166667Y-44907200D02*
X116119048Y-44811961D01*
X116119048Y-44811961D02*
X116119048Y-44431009D01*
X116119048Y-44431009D02*
X116166667Y-44335771D01*
X116166667Y-44335771D02*
X116261905Y-44288152D01*
X116261905Y-44288152D02*
X116452381Y-44288152D01*
X116452381Y-44288152D02*
X116547619Y-44335771D01*
X116547619Y-44335771D02*
X116595238Y-44431009D01*
X116595238Y-44431009D02*
X116595238Y-44526247D01*
X116595238Y-44526247D02*
X116119048Y-44621485D01*
X117452381Y-44907200D02*
X117357143Y-44954819D01*
X117357143Y-44954819D02*
X117166667Y-44954819D01*
X117166667Y-44954819D02*
X117071429Y-44907200D01*
X117071429Y-44907200D02*
X117023810Y-44859580D01*
X117023810Y-44859580D02*
X116976191Y-44764342D01*
X116976191Y-44764342D02*
X116976191Y-44478628D01*
X116976191Y-44478628D02*
X117023810Y-44383390D01*
X117023810Y-44383390D02*
X117071429Y-44335771D01*
X117071429Y-44335771D02*
X117166667Y-44288152D01*
X117166667Y-44288152D02*
X117357143Y-44288152D01*
X117357143Y-44288152D02*
X117452381Y-44335771D01*
X130892857Y-35431009D02*
X131035714Y-35478628D01*
X131035714Y-35478628D02*
X131083333Y-35526247D01*
X131083333Y-35526247D02*
X131130952Y-35621485D01*
X131130952Y-35621485D02*
X131130952Y-35764342D01*
X131130952Y-35764342D02*
X131083333Y-35859580D01*
X131083333Y-35859580D02*
X131035714Y-35907200D01*
X131035714Y-35907200D02*
X130940476Y-35954819D01*
X130940476Y-35954819D02*
X130559524Y-35954819D01*
X130559524Y-35954819D02*
X130559524Y-34954819D01*
X130559524Y-34954819D02*
X130892857Y-34954819D01*
X130892857Y-34954819D02*
X130988095Y-35002438D01*
X130988095Y-35002438D02*
X131035714Y-35050057D01*
X131035714Y-35050057D02*
X131083333Y-35145295D01*
X131083333Y-35145295D02*
X131083333Y-35240533D01*
X131083333Y-35240533D02*
X131035714Y-35335771D01*
X131035714Y-35335771D02*
X130988095Y-35383390D01*
X130988095Y-35383390D02*
X130892857Y-35431009D01*
X130892857Y-35431009D02*
X130559524Y-35431009D01*
X131321429Y-36050057D02*
X132083333Y-36050057D01*
X132321429Y-35954819D02*
X132321429Y-34954819D01*
X132321429Y-34954819D02*
X132702381Y-34954819D01*
X132702381Y-34954819D02*
X132797619Y-35002438D01*
X132797619Y-35002438D02*
X132845238Y-35050057D01*
X132845238Y-35050057D02*
X132892857Y-35145295D01*
X132892857Y-35145295D02*
X132892857Y-35288152D01*
X132892857Y-35288152D02*
X132845238Y-35383390D01*
X132845238Y-35383390D02*
X132797619Y-35431009D01*
X132797619Y-35431009D02*
X132702381Y-35478628D01*
X132702381Y-35478628D02*
X132321429Y-35478628D01*
X133321429Y-35954819D02*
X133321429Y-35288152D01*
X133321429Y-35478628D02*
X133369048Y-35383390D01*
X133369048Y-35383390D02*
X133416667Y-35335771D01*
X133416667Y-35335771D02*
X133511905Y-35288152D01*
X133511905Y-35288152D02*
X133607143Y-35288152D01*
X133940477Y-35954819D02*
X133940477Y-35288152D01*
X133940477Y-34954819D02*
X133892858Y-35002438D01*
X133892858Y-35002438D02*
X133940477Y-35050057D01*
X133940477Y-35050057D02*
X133988096Y-35002438D01*
X133988096Y-35002438D02*
X133940477Y-34954819D01*
X133940477Y-34954819D02*
X133940477Y-35050057D01*
X147928571Y-61431009D02*
X147595238Y-61431009D01*
X147595238Y-61954819D02*
X147595238Y-60954819D01*
X147595238Y-60954819D02*
X148071428Y-60954819D01*
X148214286Y-62050057D02*
X148976190Y-62050057D01*
X149166667Y-61907200D02*
X149309524Y-61954819D01*
X149309524Y-61954819D02*
X149547619Y-61954819D01*
X149547619Y-61954819D02*
X149642857Y-61907200D01*
X149642857Y-61907200D02*
X149690476Y-61859580D01*
X149690476Y-61859580D02*
X149738095Y-61764342D01*
X149738095Y-61764342D02*
X149738095Y-61669104D01*
X149738095Y-61669104D02*
X149690476Y-61573866D01*
X149690476Y-61573866D02*
X149642857Y-61526247D01*
X149642857Y-61526247D02*
X149547619Y-61478628D01*
X149547619Y-61478628D02*
X149357143Y-61431009D01*
X149357143Y-61431009D02*
X149261905Y-61383390D01*
X149261905Y-61383390D02*
X149214286Y-61335771D01*
X149214286Y-61335771D02*
X149166667Y-61240533D01*
X149166667Y-61240533D02*
X149166667Y-61145295D01*
X149166667Y-61145295D02*
X149214286Y-61050057D01*
X149214286Y-61050057D02*
X149261905Y-61002438D01*
X149261905Y-61002438D02*
X149357143Y-60954819D01*
X149357143Y-60954819D02*
X149595238Y-60954819D01*
X149595238Y-60954819D02*
X149738095Y-61002438D01*
X150547619Y-61907200D02*
X150452381Y-61954819D01*
X150452381Y-61954819D02*
X150261905Y-61954819D01*
X150261905Y-61954819D02*
X150166667Y-61907200D01*
X150166667Y-61907200D02*
X150119048Y-61811961D01*
X150119048Y-61811961D02*
X150119048Y-61431009D01*
X150119048Y-61431009D02*
X150166667Y-61335771D01*
X150166667Y-61335771D02*
X150261905Y-61288152D01*
X150261905Y-61288152D02*
X150452381Y-61288152D01*
X150452381Y-61288152D02*
X150547619Y-61335771D01*
X150547619Y-61335771D02*
X150595238Y-61431009D01*
X150595238Y-61431009D02*
X150595238Y-61526247D01*
X150595238Y-61526247D02*
X150119048Y-61621485D01*
X151452381Y-61907200D02*
X151357143Y-61954819D01*
X151357143Y-61954819D02*
X151166667Y-61954819D01*
X151166667Y-61954819D02*
X151071429Y-61907200D01*
X151071429Y-61907200D02*
X151023810Y-61859580D01*
X151023810Y-61859580D02*
X150976191Y-61764342D01*
X150976191Y-61764342D02*
X150976191Y-61478628D01*
X150976191Y-61478628D02*
X151023810Y-61383390D01*
X151023810Y-61383390D02*
X151071429Y-61335771D01*
X151071429Y-61335771D02*
X151166667Y-61288152D01*
X151166667Y-61288152D02*
X151357143Y-61288152D01*
X151357143Y-61288152D02*
X151452381Y-61335771D01*
X113523809Y-61954819D02*
X113523809Y-60954819D01*
X113523809Y-60954819D02*
X113761904Y-60954819D01*
X113761904Y-60954819D02*
X113904761Y-61002438D01*
X113904761Y-61002438D02*
X113999999Y-61097676D01*
X113999999Y-61097676D02*
X114047618Y-61192914D01*
X114047618Y-61192914D02*
X114095237Y-61383390D01*
X114095237Y-61383390D02*
X114095237Y-61526247D01*
X114095237Y-61526247D02*
X114047618Y-61716723D01*
X114047618Y-61716723D02*
X113999999Y-61811961D01*
X113999999Y-61811961D02*
X113904761Y-61907200D01*
X113904761Y-61907200D02*
X113761904Y-61954819D01*
X113761904Y-61954819D02*
X113523809Y-61954819D01*
X114285714Y-62050057D02*
X115047618Y-62050057D01*
X115238095Y-61907200D02*
X115380952Y-61954819D01*
X115380952Y-61954819D02*
X115619047Y-61954819D01*
X115619047Y-61954819D02*
X115714285Y-61907200D01*
X115714285Y-61907200D02*
X115761904Y-61859580D01*
X115761904Y-61859580D02*
X115809523Y-61764342D01*
X115809523Y-61764342D02*
X115809523Y-61669104D01*
X115809523Y-61669104D02*
X115761904Y-61573866D01*
X115761904Y-61573866D02*
X115714285Y-61526247D01*
X115714285Y-61526247D02*
X115619047Y-61478628D01*
X115619047Y-61478628D02*
X115428571Y-61431009D01*
X115428571Y-61431009D02*
X115333333Y-61383390D01*
X115333333Y-61383390D02*
X115285714Y-61335771D01*
X115285714Y-61335771D02*
X115238095Y-61240533D01*
X115238095Y-61240533D02*
X115238095Y-61145295D01*
X115238095Y-61145295D02*
X115285714Y-61050057D01*
X115285714Y-61050057D02*
X115333333Y-61002438D01*
X115333333Y-61002438D02*
X115428571Y-60954819D01*
X115428571Y-60954819D02*
X115666666Y-60954819D01*
X115666666Y-60954819D02*
X115809523Y-61002438D01*
X116619047Y-61907200D02*
X116523809Y-61954819D01*
X116523809Y-61954819D02*
X116333333Y-61954819D01*
X116333333Y-61954819D02*
X116238095Y-61907200D01*
X116238095Y-61907200D02*
X116190476Y-61811961D01*
X116190476Y-61811961D02*
X116190476Y-61431009D01*
X116190476Y-61431009D02*
X116238095Y-61335771D01*
X116238095Y-61335771D02*
X116333333Y-61288152D01*
X116333333Y-61288152D02*
X116523809Y-61288152D01*
X116523809Y-61288152D02*
X116619047Y-61335771D01*
X116619047Y-61335771D02*
X116666666Y-61431009D01*
X116666666Y-61431009D02*
X116666666Y-61526247D01*
X116666666Y-61526247D02*
X116190476Y-61621485D01*
X117523809Y-61907200D02*
X117428571Y-61954819D01*
X117428571Y-61954819D02*
X117238095Y-61954819D01*
X117238095Y-61954819D02*
X117142857Y-61907200D01*
X117142857Y-61907200D02*
X117095238Y-61859580D01*
X117095238Y-61859580D02*
X117047619Y-61764342D01*
X117047619Y-61764342D02*
X117047619Y-61478628D01*
X117047619Y-61478628D02*
X117095238Y-61383390D01*
X117095238Y-61383390D02*
X117142857Y-61335771D01*
X117142857Y-61335771D02*
X117238095Y-61288152D01*
X117238095Y-61288152D02*
X117428571Y-61288152D01*
X117428571Y-61288152D02*
X117523809Y-61335771D01*
X147964285Y-51931009D02*
X147630952Y-51931009D01*
X147630952Y-52454819D02*
X147630952Y-51454819D01*
X147630952Y-51454819D02*
X148107142Y-51454819D01*
X148250000Y-52550057D02*
X149011904Y-52550057D01*
X149250000Y-52454819D02*
X149250000Y-51454819D01*
X149250000Y-51454819D02*
X149630952Y-51454819D01*
X149630952Y-51454819D02*
X149726190Y-51502438D01*
X149726190Y-51502438D02*
X149773809Y-51550057D01*
X149773809Y-51550057D02*
X149821428Y-51645295D01*
X149821428Y-51645295D02*
X149821428Y-51788152D01*
X149821428Y-51788152D02*
X149773809Y-51883390D01*
X149773809Y-51883390D02*
X149726190Y-51931009D01*
X149726190Y-51931009D02*
X149630952Y-51978628D01*
X149630952Y-51978628D02*
X149250000Y-51978628D01*
X150250000Y-52454819D02*
X150250000Y-51788152D01*
X150250000Y-51978628D02*
X150297619Y-51883390D01*
X150297619Y-51883390D02*
X150345238Y-51835771D01*
X150345238Y-51835771D02*
X150440476Y-51788152D01*
X150440476Y-51788152D02*
X150535714Y-51788152D01*
X150869048Y-52454819D02*
X150869048Y-51788152D01*
X150869048Y-51454819D02*
X150821429Y-51502438D01*
X150821429Y-51502438D02*
X150869048Y-51550057D01*
X150869048Y-51550057D02*
X150916667Y-51502438D01*
X150916667Y-51502438D02*
X150869048Y-51454819D01*
X150869048Y-51454819D02*
X150869048Y-51550057D01*
X148071429Y-78454819D02*
X148071429Y-77454819D01*
X148309524Y-78550057D02*
X149071428Y-78550057D01*
X149309524Y-78454819D02*
X149309524Y-77454819D01*
X149309524Y-77454819D02*
X149690476Y-77454819D01*
X149690476Y-77454819D02*
X149785714Y-77502438D01*
X149785714Y-77502438D02*
X149833333Y-77550057D01*
X149833333Y-77550057D02*
X149880952Y-77645295D01*
X149880952Y-77645295D02*
X149880952Y-77788152D01*
X149880952Y-77788152D02*
X149833333Y-77883390D01*
X149833333Y-77883390D02*
X149785714Y-77931009D01*
X149785714Y-77931009D02*
X149690476Y-77978628D01*
X149690476Y-77978628D02*
X149309524Y-77978628D01*
X150309524Y-78454819D02*
X150309524Y-77788152D01*
X150309524Y-77978628D02*
X150357143Y-77883390D01*
X150357143Y-77883390D02*
X150404762Y-77835771D01*
X150404762Y-77835771D02*
X150500000Y-77788152D01*
X150500000Y-77788152D02*
X150595238Y-77788152D01*
X150928572Y-78454819D02*
X150928572Y-77788152D01*
X150928572Y-77454819D02*
X150880953Y-77502438D01*
X150880953Y-77502438D02*
X150928572Y-77550057D01*
X150928572Y-77550057D02*
X150976191Y-77502438D01*
X150976191Y-77502438D02*
X150928572Y-77454819D01*
X150928572Y-77454819D02*
X150928572Y-77550057D01*
X130785714Y-78454819D02*
X130785714Y-77454819D01*
X130785714Y-77931009D02*
X131357142Y-77931009D01*
X131357142Y-78454819D02*
X131357142Y-77454819D01*
X131595238Y-78550057D02*
X132357142Y-78550057D01*
X132595238Y-78454819D02*
X132595238Y-77454819D01*
X132595238Y-77454819D02*
X132976190Y-77454819D01*
X132976190Y-77454819D02*
X133071428Y-77502438D01*
X133071428Y-77502438D02*
X133119047Y-77550057D01*
X133119047Y-77550057D02*
X133166666Y-77645295D01*
X133166666Y-77645295D02*
X133166666Y-77788152D01*
X133166666Y-77788152D02*
X133119047Y-77883390D01*
X133119047Y-77883390D02*
X133071428Y-77931009D01*
X133071428Y-77931009D02*
X132976190Y-77978628D01*
X132976190Y-77978628D02*
X132595238Y-77978628D01*
X133595238Y-78454819D02*
X133595238Y-77788152D01*
X133595238Y-77978628D02*
X133642857Y-77883390D01*
X133642857Y-77883390D02*
X133690476Y-77835771D01*
X133690476Y-77835771D02*
X133785714Y-77788152D01*
X133785714Y-77788152D02*
X133880952Y-77788152D01*
X134214286Y-78454819D02*
X134214286Y-77788152D01*
X134214286Y-77454819D02*
X134166667Y-77502438D01*
X134166667Y-77502438D02*
X134214286Y-77550057D01*
X134214286Y-77550057D02*
X134261905Y-77502438D01*
X134261905Y-77502438D02*
X134214286Y-77454819D01*
X134214286Y-77454819D02*
X134214286Y-77550057D01*
X147535714Y-69454819D02*
X147535714Y-68454819D01*
X147773809Y-69550057D02*
X148535713Y-69550057D01*
X148726190Y-69407200D02*
X148869047Y-69454819D01*
X148869047Y-69454819D02*
X149107142Y-69454819D01*
X149107142Y-69454819D02*
X149202380Y-69407200D01*
X149202380Y-69407200D02*
X149249999Y-69359580D01*
X149249999Y-69359580D02*
X149297618Y-69264342D01*
X149297618Y-69264342D02*
X149297618Y-69169104D01*
X149297618Y-69169104D02*
X149249999Y-69073866D01*
X149249999Y-69073866D02*
X149202380Y-69026247D01*
X149202380Y-69026247D02*
X149107142Y-68978628D01*
X149107142Y-68978628D02*
X148916666Y-68931009D01*
X148916666Y-68931009D02*
X148821428Y-68883390D01*
X148821428Y-68883390D02*
X148773809Y-68835771D01*
X148773809Y-68835771D02*
X148726190Y-68740533D01*
X148726190Y-68740533D02*
X148726190Y-68645295D01*
X148726190Y-68645295D02*
X148773809Y-68550057D01*
X148773809Y-68550057D02*
X148821428Y-68502438D01*
X148821428Y-68502438D02*
X148916666Y-68454819D01*
X148916666Y-68454819D02*
X149154761Y-68454819D01*
X149154761Y-68454819D02*
X149297618Y-68502438D01*
X150107142Y-69407200D02*
X150011904Y-69454819D01*
X150011904Y-69454819D02*
X149821428Y-69454819D01*
X149821428Y-69454819D02*
X149726190Y-69407200D01*
X149726190Y-69407200D02*
X149678571Y-69311961D01*
X149678571Y-69311961D02*
X149678571Y-68931009D01*
X149678571Y-68931009D02*
X149726190Y-68835771D01*
X149726190Y-68835771D02*
X149821428Y-68788152D01*
X149821428Y-68788152D02*
X150011904Y-68788152D01*
X150011904Y-68788152D02*
X150107142Y-68835771D01*
X150107142Y-68835771D02*
X150154761Y-68931009D01*
X150154761Y-68931009D02*
X150154761Y-69026247D01*
X150154761Y-69026247D02*
X149678571Y-69121485D01*
X151011904Y-69407200D02*
X150916666Y-69454819D01*
X150916666Y-69454819D02*
X150726190Y-69454819D01*
X150726190Y-69454819D02*
X150630952Y-69407200D01*
X150630952Y-69407200D02*
X150583333Y-69359580D01*
X150583333Y-69359580D02*
X150535714Y-69264342D01*
X150535714Y-69264342D02*
X150535714Y-68978628D01*
X150535714Y-68978628D02*
X150583333Y-68883390D01*
X150583333Y-68883390D02*
X150630952Y-68835771D01*
X150630952Y-68835771D02*
X150726190Y-68788152D01*
X150726190Y-68788152D02*
X150916666Y-68788152D01*
X150916666Y-68788152D02*
X151011904Y-68835771D01*
X130857142Y-44431009D02*
X130999999Y-44478628D01*
X130999999Y-44478628D02*
X131047618Y-44526247D01*
X131047618Y-44526247D02*
X131095237Y-44621485D01*
X131095237Y-44621485D02*
X131095237Y-44764342D01*
X131095237Y-44764342D02*
X131047618Y-44859580D01*
X131047618Y-44859580D02*
X130999999Y-44907200D01*
X130999999Y-44907200D02*
X130904761Y-44954819D01*
X130904761Y-44954819D02*
X130523809Y-44954819D01*
X130523809Y-44954819D02*
X130523809Y-43954819D01*
X130523809Y-43954819D02*
X130857142Y-43954819D01*
X130857142Y-43954819D02*
X130952380Y-44002438D01*
X130952380Y-44002438D02*
X130999999Y-44050057D01*
X130999999Y-44050057D02*
X131047618Y-44145295D01*
X131047618Y-44145295D02*
X131047618Y-44240533D01*
X131047618Y-44240533D02*
X130999999Y-44335771D01*
X130999999Y-44335771D02*
X130952380Y-44383390D01*
X130952380Y-44383390D02*
X130857142Y-44431009D01*
X130857142Y-44431009D02*
X130523809Y-44431009D01*
X131285714Y-45050057D02*
X132047618Y-45050057D01*
X132238095Y-44907200D02*
X132380952Y-44954819D01*
X132380952Y-44954819D02*
X132619047Y-44954819D01*
X132619047Y-44954819D02*
X132714285Y-44907200D01*
X132714285Y-44907200D02*
X132761904Y-44859580D01*
X132761904Y-44859580D02*
X132809523Y-44764342D01*
X132809523Y-44764342D02*
X132809523Y-44669104D01*
X132809523Y-44669104D02*
X132761904Y-44573866D01*
X132761904Y-44573866D02*
X132714285Y-44526247D01*
X132714285Y-44526247D02*
X132619047Y-44478628D01*
X132619047Y-44478628D02*
X132428571Y-44431009D01*
X132428571Y-44431009D02*
X132333333Y-44383390D01*
X132333333Y-44383390D02*
X132285714Y-44335771D01*
X132285714Y-44335771D02*
X132238095Y-44240533D01*
X132238095Y-44240533D02*
X132238095Y-44145295D01*
X132238095Y-44145295D02*
X132285714Y-44050057D01*
X132285714Y-44050057D02*
X132333333Y-44002438D01*
X132333333Y-44002438D02*
X132428571Y-43954819D01*
X132428571Y-43954819D02*
X132666666Y-43954819D01*
X132666666Y-43954819D02*
X132809523Y-44002438D01*
X133619047Y-44907200D02*
X133523809Y-44954819D01*
X133523809Y-44954819D02*
X133333333Y-44954819D01*
X133333333Y-44954819D02*
X133238095Y-44907200D01*
X133238095Y-44907200D02*
X133190476Y-44811961D01*
X133190476Y-44811961D02*
X133190476Y-44431009D01*
X133190476Y-44431009D02*
X133238095Y-44335771D01*
X133238095Y-44335771D02*
X133333333Y-44288152D01*
X133333333Y-44288152D02*
X133523809Y-44288152D01*
X133523809Y-44288152D02*
X133619047Y-44335771D01*
X133619047Y-44335771D02*
X133666666Y-44431009D01*
X133666666Y-44431009D02*
X133666666Y-44526247D01*
X133666666Y-44526247D02*
X133190476Y-44621485D01*
X134523809Y-44907200D02*
X134428571Y-44954819D01*
X134428571Y-44954819D02*
X134238095Y-44954819D01*
X134238095Y-44954819D02*
X134142857Y-44907200D01*
X134142857Y-44907200D02*
X134095238Y-44859580D01*
X134095238Y-44859580D02*
X134047619Y-44764342D01*
X134047619Y-44764342D02*
X134047619Y-44478628D01*
X134047619Y-44478628D02*
X134095238Y-44383390D01*
X134095238Y-44383390D02*
X134142857Y-44335771D01*
X134142857Y-44335771D02*
X134238095Y-44288152D01*
X134238095Y-44288152D02*
X134428571Y-44288152D01*
X134428571Y-44288152D02*
X134523809Y-44335771D01*
X130607143Y-51931009D02*
X130940476Y-51931009D01*
X131083333Y-52454819D02*
X130607143Y-52454819D01*
X130607143Y-52454819D02*
X130607143Y-51454819D01*
X130607143Y-51454819D02*
X131083333Y-51454819D01*
X131273810Y-52550057D02*
X132035714Y-52550057D01*
X132273810Y-52454819D02*
X132273810Y-51454819D01*
X132273810Y-51454819D02*
X132654762Y-51454819D01*
X132654762Y-51454819D02*
X132750000Y-51502438D01*
X132750000Y-51502438D02*
X132797619Y-51550057D01*
X132797619Y-51550057D02*
X132845238Y-51645295D01*
X132845238Y-51645295D02*
X132845238Y-51788152D01*
X132845238Y-51788152D02*
X132797619Y-51883390D01*
X132797619Y-51883390D02*
X132750000Y-51931009D01*
X132750000Y-51931009D02*
X132654762Y-51978628D01*
X132654762Y-51978628D02*
X132273810Y-51978628D01*
X133273810Y-52454819D02*
X133273810Y-51788152D01*
X133273810Y-51978628D02*
X133321429Y-51883390D01*
X133321429Y-51883390D02*
X133369048Y-51835771D01*
X133369048Y-51835771D02*
X133464286Y-51788152D01*
X133464286Y-51788152D02*
X133559524Y-51788152D01*
X133892858Y-52454819D02*
X133892858Y-51788152D01*
X133892858Y-51454819D02*
X133845239Y-51502438D01*
X133845239Y-51502438D02*
X133892858Y-51550057D01*
X133892858Y-51550057D02*
X133940477Y-51502438D01*
X133940477Y-51502438D02*
X133892858Y-51454819D01*
X133892858Y-51454819D02*
X133892858Y-51550057D01*
X113559524Y-52454819D02*
X113559524Y-51454819D01*
X113559524Y-51454819D02*
X113797619Y-51454819D01*
X113797619Y-51454819D02*
X113940476Y-51502438D01*
X113940476Y-51502438D02*
X114035714Y-51597676D01*
X114035714Y-51597676D02*
X114083333Y-51692914D01*
X114083333Y-51692914D02*
X114130952Y-51883390D01*
X114130952Y-51883390D02*
X114130952Y-52026247D01*
X114130952Y-52026247D02*
X114083333Y-52216723D01*
X114083333Y-52216723D02*
X114035714Y-52311961D01*
X114035714Y-52311961D02*
X113940476Y-52407200D01*
X113940476Y-52407200D02*
X113797619Y-52454819D01*
X113797619Y-52454819D02*
X113559524Y-52454819D01*
X114321429Y-52550057D02*
X115083333Y-52550057D01*
X115321429Y-52454819D02*
X115321429Y-51454819D01*
X115321429Y-51454819D02*
X115702381Y-51454819D01*
X115702381Y-51454819D02*
X115797619Y-51502438D01*
X115797619Y-51502438D02*
X115845238Y-51550057D01*
X115845238Y-51550057D02*
X115892857Y-51645295D01*
X115892857Y-51645295D02*
X115892857Y-51788152D01*
X115892857Y-51788152D02*
X115845238Y-51883390D01*
X115845238Y-51883390D02*
X115797619Y-51931009D01*
X115797619Y-51931009D02*
X115702381Y-51978628D01*
X115702381Y-51978628D02*
X115321429Y-51978628D01*
X116321429Y-52454819D02*
X116321429Y-51788152D01*
X116321429Y-51978628D02*
X116369048Y-51883390D01*
X116369048Y-51883390D02*
X116416667Y-51835771D01*
X116416667Y-51835771D02*
X116511905Y-51788152D01*
X116511905Y-51788152D02*
X116607143Y-51788152D01*
X116940477Y-52454819D02*
X116940477Y-51788152D01*
X116940477Y-51454819D02*
X116892858Y-51502438D01*
X116892858Y-51502438D02*
X116940477Y-51550057D01*
X116940477Y-51550057D02*
X116988096Y-51502438D01*
X116988096Y-51502438D02*
X116940477Y-51454819D01*
X116940477Y-51454819D02*
X116940477Y-51550057D01*
X148130952Y-35859580D02*
X148083333Y-35907200D01*
X148083333Y-35907200D02*
X147940476Y-35954819D01*
X147940476Y-35954819D02*
X147845238Y-35954819D01*
X147845238Y-35954819D02*
X147702381Y-35907200D01*
X147702381Y-35907200D02*
X147607143Y-35811961D01*
X147607143Y-35811961D02*
X147559524Y-35716723D01*
X147559524Y-35716723D02*
X147511905Y-35526247D01*
X147511905Y-35526247D02*
X147511905Y-35383390D01*
X147511905Y-35383390D02*
X147559524Y-35192914D01*
X147559524Y-35192914D02*
X147607143Y-35097676D01*
X147607143Y-35097676D02*
X147702381Y-35002438D01*
X147702381Y-35002438D02*
X147845238Y-34954819D01*
X147845238Y-34954819D02*
X147940476Y-34954819D01*
X147940476Y-34954819D02*
X148083333Y-35002438D01*
X148083333Y-35002438D02*
X148130952Y-35050057D01*
X148321429Y-36050057D02*
X149083333Y-36050057D01*
X149321429Y-35954819D02*
X149321429Y-34954819D01*
X149321429Y-34954819D02*
X149702381Y-34954819D01*
X149702381Y-34954819D02*
X149797619Y-35002438D01*
X149797619Y-35002438D02*
X149845238Y-35050057D01*
X149845238Y-35050057D02*
X149892857Y-35145295D01*
X149892857Y-35145295D02*
X149892857Y-35288152D01*
X149892857Y-35288152D02*
X149845238Y-35383390D01*
X149845238Y-35383390D02*
X149797619Y-35431009D01*
X149797619Y-35431009D02*
X149702381Y-35478628D01*
X149702381Y-35478628D02*
X149321429Y-35478628D01*
X150321429Y-35954819D02*
X150321429Y-35288152D01*
X150321429Y-35478628D02*
X150369048Y-35383390D01*
X150369048Y-35383390D02*
X150416667Y-35335771D01*
X150416667Y-35335771D02*
X150511905Y-35288152D01*
X150511905Y-35288152D02*
X150607143Y-35288152D01*
X150940477Y-35954819D02*
X150940477Y-35288152D01*
X150940477Y-34954819D02*
X150892858Y-35002438D01*
X150892858Y-35002438D02*
X150940477Y-35050057D01*
X150940477Y-35050057D02*
X150988096Y-35002438D01*
X150988096Y-35002438D02*
X150940477Y-34954819D01*
X150940477Y-34954819D02*
X150940477Y-35050057D01*
X130250000Y-69454819D02*
X130250000Y-68454819D01*
X130250000Y-68931009D02*
X130821428Y-68931009D01*
X130821428Y-69454819D02*
X130821428Y-68454819D01*
X131059524Y-69550057D02*
X131821428Y-69550057D01*
X132011905Y-69407200D02*
X132154762Y-69454819D01*
X132154762Y-69454819D02*
X132392857Y-69454819D01*
X132392857Y-69454819D02*
X132488095Y-69407200D01*
X132488095Y-69407200D02*
X132535714Y-69359580D01*
X132535714Y-69359580D02*
X132583333Y-69264342D01*
X132583333Y-69264342D02*
X132583333Y-69169104D01*
X132583333Y-69169104D02*
X132535714Y-69073866D01*
X132535714Y-69073866D02*
X132488095Y-69026247D01*
X132488095Y-69026247D02*
X132392857Y-68978628D01*
X132392857Y-68978628D02*
X132202381Y-68931009D01*
X132202381Y-68931009D02*
X132107143Y-68883390D01*
X132107143Y-68883390D02*
X132059524Y-68835771D01*
X132059524Y-68835771D02*
X132011905Y-68740533D01*
X132011905Y-68740533D02*
X132011905Y-68645295D01*
X132011905Y-68645295D02*
X132059524Y-68550057D01*
X132059524Y-68550057D02*
X132107143Y-68502438D01*
X132107143Y-68502438D02*
X132202381Y-68454819D01*
X132202381Y-68454819D02*
X132440476Y-68454819D01*
X132440476Y-68454819D02*
X132583333Y-68502438D01*
X133392857Y-69407200D02*
X133297619Y-69454819D01*
X133297619Y-69454819D02*
X133107143Y-69454819D01*
X133107143Y-69454819D02*
X133011905Y-69407200D01*
X133011905Y-69407200D02*
X132964286Y-69311961D01*
X132964286Y-69311961D02*
X132964286Y-68931009D01*
X132964286Y-68931009D02*
X133011905Y-68835771D01*
X133011905Y-68835771D02*
X133107143Y-68788152D01*
X133107143Y-68788152D02*
X133297619Y-68788152D01*
X133297619Y-68788152D02*
X133392857Y-68835771D01*
X133392857Y-68835771D02*
X133440476Y-68931009D01*
X133440476Y-68931009D02*
X133440476Y-69026247D01*
X133440476Y-69026247D02*
X132964286Y-69121485D01*
X134297619Y-69407200D02*
X134202381Y-69454819D01*
X134202381Y-69454819D02*
X134011905Y-69454819D01*
X134011905Y-69454819D02*
X133916667Y-69407200D01*
X133916667Y-69407200D02*
X133869048Y-69359580D01*
X133869048Y-69359580D02*
X133821429Y-69264342D01*
X133821429Y-69264342D02*
X133821429Y-68978628D01*
X133821429Y-68978628D02*
X133869048Y-68883390D01*
X133869048Y-68883390D02*
X133916667Y-68835771D01*
X133916667Y-68835771D02*
X134011905Y-68788152D01*
X134011905Y-68788152D02*
X134202381Y-68788152D01*
X134202381Y-68788152D02*
X134297619Y-68835771D01*
X113583333Y-35669104D02*
X114059523Y-35669104D01*
X113488095Y-35954819D02*
X113821428Y-34954819D01*
X113821428Y-34954819D02*
X114154761Y-35954819D01*
X114250000Y-36050057D02*
X115011904Y-36050057D01*
X115250000Y-35954819D02*
X115250000Y-34954819D01*
X115250000Y-34954819D02*
X115630952Y-34954819D01*
X115630952Y-34954819D02*
X115726190Y-35002438D01*
X115726190Y-35002438D02*
X115773809Y-35050057D01*
X115773809Y-35050057D02*
X115821428Y-35145295D01*
X115821428Y-35145295D02*
X115821428Y-35288152D01*
X115821428Y-35288152D02*
X115773809Y-35383390D01*
X115773809Y-35383390D02*
X115726190Y-35431009D01*
X115726190Y-35431009D02*
X115630952Y-35478628D01*
X115630952Y-35478628D02*
X115250000Y-35478628D01*
X116250000Y-35954819D02*
X116250000Y-35288152D01*
X116250000Y-35478628D02*
X116297619Y-35383390D01*
X116297619Y-35383390D02*
X116345238Y-35335771D01*
X116345238Y-35335771D02*
X116440476Y-35288152D01*
X116440476Y-35288152D02*
X116535714Y-35288152D01*
X116869048Y-35954819D02*
X116869048Y-35288152D01*
X116869048Y-34954819D02*
X116821429Y-35002438D01*
X116821429Y-35002438D02*
X116869048Y-35050057D01*
X116869048Y-35050057D02*
X116916667Y-35002438D01*
X116916667Y-35002438D02*
X116869048Y-34954819D01*
X116869048Y-34954819D02*
X116869048Y-35050057D01*
X114333333Y-77502438D02*
X114238095Y-77454819D01*
X114238095Y-77454819D02*
X114095238Y-77454819D01*
X114095238Y-77454819D02*
X113952381Y-77502438D01*
X113952381Y-77502438D02*
X113857143Y-77597676D01*
X113857143Y-77597676D02*
X113809524Y-77692914D01*
X113809524Y-77692914D02*
X113761905Y-77883390D01*
X113761905Y-77883390D02*
X113761905Y-78026247D01*
X113761905Y-78026247D02*
X113809524Y-78216723D01*
X113809524Y-78216723D02*
X113857143Y-78311961D01*
X113857143Y-78311961D02*
X113952381Y-78407200D01*
X113952381Y-78407200D02*
X114095238Y-78454819D01*
X114095238Y-78454819D02*
X114190476Y-78454819D01*
X114190476Y-78454819D02*
X114333333Y-78407200D01*
X114333333Y-78407200D02*
X114380952Y-78359580D01*
X114380952Y-78359580D02*
X114380952Y-78026247D01*
X114380952Y-78026247D02*
X114190476Y-78026247D01*
X114571429Y-78550057D02*
X115333333Y-78550057D01*
X115571429Y-78454819D02*
X115571429Y-77454819D01*
X115571429Y-77454819D02*
X115952381Y-77454819D01*
X115952381Y-77454819D02*
X116047619Y-77502438D01*
X116047619Y-77502438D02*
X116095238Y-77550057D01*
X116095238Y-77550057D02*
X116142857Y-77645295D01*
X116142857Y-77645295D02*
X116142857Y-77788152D01*
X116142857Y-77788152D02*
X116095238Y-77883390D01*
X116095238Y-77883390D02*
X116047619Y-77931009D01*
X116047619Y-77931009D02*
X115952381Y-77978628D01*
X115952381Y-77978628D02*
X115571429Y-77978628D01*
X116571429Y-78454819D02*
X116571429Y-77788152D01*
X116571429Y-77978628D02*
X116619048Y-77883390D01*
X116619048Y-77883390D02*
X116666667Y-77835771D01*
X116666667Y-77835771D02*
X116761905Y-77788152D01*
X116761905Y-77788152D02*
X116857143Y-77788152D01*
X117190477Y-78454819D02*
X117190477Y-77788152D01*
X117190477Y-77454819D02*
X117142858Y-77502438D01*
X117142858Y-77502438D02*
X117190477Y-77550057D01*
X117190477Y-77550057D02*
X117238096Y-77502438D01*
X117238096Y-77502438D02*
X117190477Y-77454819D01*
X117190477Y-77454819D02*
X117190477Y-77550057D01*
X113797618Y-68502438D02*
X113702380Y-68454819D01*
X113702380Y-68454819D02*
X113559523Y-68454819D01*
X113559523Y-68454819D02*
X113416666Y-68502438D01*
X113416666Y-68502438D02*
X113321428Y-68597676D01*
X113321428Y-68597676D02*
X113273809Y-68692914D01*
X113273809Y-68692914D02*
X113226190Y-68883390D01*
X113226190Y-68883390D02*
X113226190Y-69026247D01*
X113226190Y-69026247D02*
X113273809Y-69216723D01*
X113273809Y-69216723D02*
X113321428Y-69311961D01*
X113321428Y-69311961D02*
X113416666Y-69407200D01*
X113416666Y-69407200D02*
X113559523Y-69454819D01*
X113559523Y-69454819D02*
X113654761Y-69454819D01*
X113654761Y-69454819D02*
X113797618Y-69407200D01*
X113797618Y-69407200D02*
X113845237Y-69359580D01*
X113845237Y-69359580D02*
X113845237Y-69026247D01*
X113845237Y-69026247D02*
X113654761Y-69026247D01*
X114035714Y-69550057D02*
X114797618Y-69550057D01*
X114988095Y-69407200D02*
X115130952Y-69454819D01*
X115130952Y-69454819D02*
X115369047Y-69454819D01*
X115369047Y-69454819D02*
X115464285Y-69407200D01*
X115464285Y-69407200D02*
X115511904Y-69359580D01*
X115511904Y-69359580D02*
X115559523Y-69264342D01*
X115559523Y-69264342D02*
X115559523Y-69169104D01*
X115559523Y-69169104D02*
X115511904Y-69073866D01*
X115511904Y-69073866D02*
X115464285Y-69026247D01*
X115464285Y-69026247D02*
X115369047Y-68978628D01*
X115369047Y-68978628D02*
X115178571Y-68931009D01*
X115178571Y-68931009D02*
X115083333Y-68883390D01*
X115083333Y-68883390D02*
X115035714Y-68835771D01*
X115035714Y-68835771D02*
X114988095Y-68740533D01*
X114988095Y-68740533D02*
X114988095Y-68645295D01*
X114988095Y-68645295D02*
X115035714Y-68550057D01*
X115035714Y-68550057D02*
X115083333Y-68502438D01*
X115083333Y-68502438D02*
X115178571Y-68454819D01*
X115178571Y-68454819D02*
X115416666Y-68454819D01*
X115416666Y-68454819D02*
X115559523Y-68502438D01*
X116369047Y-69407200D02*
X116273809Y-69454819D01*
X116273809Y-69454819D02*
X116083333Y-69454819D01*
X116083333Y-69454819D02*
X115988095Y-69407200D01*
X115988095Y-69407200D02*
X115940476Y-69311961D01*
X115940476Y-69311961D02*
X115940476Y-68931009D01*
X115940476Y-68931009D02*
X115988095Y-68835771D01*
X115988095Y-68835771D02*
X116083333Y-68788152D01*
X116083333Y-68788152D02*
X116273809Y-68788152D01*
X116273809Y-68788152D02*
X116369047Y-68835771D01*
X116369047Y-68835771D02*
X116416666Y-68931009D01*
X116416666Y-68931009D02*
X116416666Y-69026247D01*
X116416666Y-69026247D02*
X115940476Y-69121485D01*
X117273809Y-69407200D02*
X117178571Y-69454819D01*
X117178571Y-69454819D02*
X116988095Y-69454819D01*
X116988095Y-69454819D02*
X116892857Y-69407200D01*
X116892857Y-69407200D02*
X116845238Y-69359580D01*
X116845238Y-69359580D02*
X116797619Y-69264342D01*
X116797619Y-69264342D02*
X116797619Y-68978628D01*
X116797619Y-68978628D02*
X116845238Y-68883390D01*
X116845238Y-68883390D02*
X116892857Y-68835771D01*
X116892857Y-68835771D02*
X116988095Y-68788152D01*
X116988095Y-68788152D02*
X117178571Y-68788152D01*
X117178571Y-68788152D02*
X117273809Y-68835771D01*
D14*
%TO.C,J6*%
X142595000Y-48080000D02*
X142595000Y-46750000D01*
X143925000Y-48080000D02*
X142595000Y-48080000D01*
X145195000Y-48080000D02*
X155415000Y-48080000D01*
X145195000Y-48080000D02*
X145195000Y-45420000D01*
X155415000Y-48080000D02*
X155415000Y-45420000D01*
X145195000Y-45420000D02*
X155415000Y-45420000D01*
%TO.C,J10*%
X125595000Y-65080000D02*
X125595000Y-63750000D01*
X126925000Y-65080000D02*
X125595000Y-65080000D01*
X128195000Y-65080000D02*
X138415000Y-65080000D01*
X128195000Y-65080000D02*
X128195000Y-62420000D01*
X138415000Y-65080000D02*
X138415000Y-62420000D01*
X128195000Y-62420000D02*
X138415000Y-62420000D01*
%TO.C,J2*%
X108595000Y-48080000D02*
X108595000Y-46750000D01*
X109925000Y-48080000D02*
X108595000Y-48080000D01*
X111195000Y-48080000D02*
X121415000Y-48080000D01*
X111195000Y-48080000D02*
X111195000Y-45420000D01*
X121415000Y-48080000D02*
X121415000Y-45420000D01*
X111195000Y-45420000D02*
X121415000Y-45420000D01*
%TO.C,J3*%
X125595000Y-34330000D02*
X125595000Y-33000000D01*
X126925000Y-34330000D02*
X125595000Y-34330000D01*
X128195000Y-34330000D02*
X138415000Y-34330000D01*
X128195000Y-34330000D02*
X128195000Y-31670000D01*
X138415000Y-34330000D02*
X138415000Y-31670000D01*
X128195000Y-31670000D02*
X138415000Y-31670000D01*
%TO.C,J12*%
X142595000Y-65080000D02*
X142595000Y-63750000D01*
X143925000Y-65080000D02*
X142595000Y-65080000D01*
X145195000Y-65080000D02*
X155415000Y-65080000D01*
X145195000Y-65080000D02*
X145195000Y-62420000D01*
X155415000Y-65080000D02*
X155415000Y-62420000D01*
X145195000Y-62420000D02*
X155415000Y-62420000D01*
%TO.C,J8*%
X108595000Y-65080000D02*
X108595000Y-63750000D01*
X109925000Y-65080000D02*
X108595000Y-65080000D01*
X111195000Y-65080000D02*
X121415000Y-65080000D01*
X111195000Y-65080000D02*
X111195000Y-62420000D01*
X121415000Y-65080000D02*
X121415000Y-62420000D01*
X111195000Y-62420000D02*
X121415000Y-62420000D01*
%TO.C,J11*%
X142595000Y-50830000D02*
X142595000Y-49500000D01*
X143925000Y-50830000D02*
X142595000Y-50830000D01*
X145195000Y-50830000D02*
X155415000Y-50830000D01*
X145195000Y-50830000D02*
X145195000Y-48170000D01*
X155415000Y-50830000D02*
X155415000Y-48170000D01*
X145195000Y-48170000D02*
X155415000Y-48170000D01*
%TO.C,J18*%
X142595000Y-81580000D02*
X142595000Y-80250000D01*
X143925000Y-81580000D02*
X142595000Y-81580000D01*
X145195000Y-81580000D02*
X155415000Y-81580000D01*
X145195000Y-81580000D02*
X145195000Y-78920000D01*
X155415000Y-81580000D02*
X155415000Y-78920000D01*
X145195000Y-78920000D02*
X155415000Y-78920000D01*
%TO.C,J16*%
X125595000Y-81580000D02*
X125595000Y-80250000D01*
X126925000Y-81580000D02*
X125595000Y-81580000D01*
X128195000Y-81580000D02*
X138415000Y-81580000D01*
X128195000Y-81580000D02*
X128195000Y-78920000D01*
X138415000Y-81580000D02*
X138415000Y-78920000D01*
X128195000Y-78920000D02*
X138415000Y-78920000D01*
%TO.C,J17*%
X142595000Y-67830000D02*
X142595000Y-66500000D01*
X143925000Y-67830000D02*
X142595000Y-67830000D01*
X145195000Y-67830000D02*
X155415000Y-67830000D01*
X145195000Y-67830000D02*
X145195000Y-65170000D01*
X155415000Y-67830000D02*
X155415000Y-65170000D01*
X145195000Y-65170000D02*
X155415000Y-65170000D01*
%TO.C,J4*%
X125595000Y-48080000D02*
X125595000Y-46750000D01*
X126925000Y-48080000D02*
X125595000Y-48080000D01*
X128195000Y-48080000D02*
X138415000Y-48080000D01*
X128195000Y-48080000D02*
X128195000Y-45420000D01*
X138415000Y-48080000D02*
X138415000Y-45420000D01*
X128195000Y-45420000D02*
X138415000Y-45420000D01*
%TO.C,J9*%
X125595000Y-50830000D02*
X125595000Y-49500000D01*
X126925000Y-50830000D02*
X125595000Y-50830000D01*
X128195000Y-50830000D02*
X138415000Y-50830000D01*
X128195000Y-50830000D02*
X128195000Y-48170000D01*
X138415000Y-50830000D02*
X138415000Y-48170000D01*
X128195000Y-48170000D02*
X138415000Y-48170000D01*
%TO.C,J7*%
X108595000Y-50830000D02*
X108595000Y-49500000D01*
X109925000Y-50830000D02*
X108595000Y-50830000D01*
X111195000Y-50830000D02*
X121415000Y-50830000D01*
X111195000Y-50830000D02*
X111195000Y-48170000D01*
X121415000Y-50830000D02*
X121415000Y-48170000D01*
X111195000Y-48170000D02*
X121415000Y-48170000D01*
%TO.C,J5*%
X142595000Y-34330000D02*
X142595000Y-33000000D01*
X143925000Y-34330000D02*
X142595000Y-34330000D01*
X145195000Y-34330000D02*
X155415000Y-34330000D01*
X145195000Y-34330000D02*
X145195000Y-31670000D01*
X155415000Y-34330000D02*
X155415000Y-31670000D01*
X145195000Y-31670000D02*
X155415000Y-31670000D01*
%TO.C,J15*%
X125595000Y-67830000D02*
X125595000Y-66500000D01*
X126925000Y-67830000D02*
X125595000Y-67830000D01*
X128195000Y-67830000D02*
X138415000Y-67830000D01*
X128195000Y-67830000D02*
X128195000Y-65170000D01*
X138415000Y-67830000D02*
X138415000Y-65170000D01*
X128195000Y-65170000D02*
X138415000Y-65170000D01*
%TO.C,J1*%
X108595000Y-34330000D02*
X108595000Y-33000000D01*
X109925000Y-34330000D02*
X108595000Y-34330000D01*
X111195000Y-34330000D02*
X121415000Y-34330000D01*
X111195000Y-34330000D02*
X111195000Y-31670000D01*
X121415000Y-34330000D02*
X121415000Y-31670000D01*
X111195000Y-31670000D02*
X121415000Y-31670000D01*
%TO.C,J14*%
X108595000Y-81580000D02*
X108595000Y-80250000D01*
X109925000Y-81580000D02*
X108595000Y-81580000D01*
X111195000Y-81580000D02*
X121415000Y-81580000D01*
X111195000Y-81580000D02*
X111195000Y-78920000D01*
X121415000Y-81580000D02*
X121415000Y-78920000D01*
X111195000Y-78920000D02*
X121415000Y-78920000D01*
%TO.C,J13*%
X108595000Y-67830000D02*
X108595000Y-66500000D01*
X109925000Y-67830000D02*
X108595000Y-67830000D01*
X111195000Y-67830000D02*
X121415000Y-67830000D01*
X111195000Y-67830000D02*
X111195000Y-65170000D01*
X121415000Y-67830000D02*
X121415000Y-65170000D01*
X111195000Y-65170000D02*
X121415000Y-65170000D01*
%TD*%
M02*
