ISO-10303-21;
HEADER;
FILE_DESCRIPTION((''),'2;1');
FILE_NAME('C-710025-5','2010-11-18T',('workeradm'),('Tyco Electronics Ltd.'),
'PRO/ENGINEER BY PARAMETRIC TECHNOLOGY CORPORATION, 2009300',
'PRO/ENGINEER BY PARAMETRIC TECHNOLOGY CORPORATION, 2009300','');
FILE_SCHEMA(('AUTOMOTIVE_DESIGN { 1 0 10303 214 1 1 1 1 }'));
ENDSEC;
DATA;
#1=DRAUGHTING_PRE_DEFINED_COLOUR('black');
#2=COLOUR_RGB('',0.E0,0.E0,3.6E-1);
#3=COLOUR_RGB('',0.E0,0.E0,4.8E-1);
#4=DRAUGHTING_PRE_DEFINED_COLOUR('blue');
#5=COLOUR_RGB('',0.E0,3.6E-1,9.E-2);
#6=COLOUR_RGB('',0.E0,3.6E-1,2.7E-1);
#7=COLOUR_RGB('',0.E0,5.6E-1,6.4E-1);
#8=COLOUR_RGB('',0.E0,5.8E-1,8.E-1);
#9=COLOUR_RGB('',0.E0,7.1E-1,6.6E-1);
#10=COLOUR_RGB('',0.E0,7.13E-1,0.E0);
#11=COLOUR_RGB('',0.E0,9.5E-1,8.4E-1);
#12=DRAUGHTING_PRE_DEFINED_COLOUR('green');
#13=DRAUGHTING_PRE_DEFINED_COLOUR('cyan');
#14=COLOUR_RGB('',4.E-2,0.E0,1.6E-1);
#15=COLOUR_RGB('',9.E-2,0.E0,1.2E-1);
#16=COLOUR_RGB('',1.E-1,0.E0,2.5E-1);
#17=COLOUR_RGB('',1.6E-1,3.2E-2,0.E0);
#18=COLOUR_RGB('',1.6E-1,4.6E-1,6.5E-1);
#19=COLOUR_RGB('',1.6E-1,1.E0,1.6E-1);
#20=COLOUR_RGB('',2.E-1,3.2E-2,0.E0);
#21=COLOUR_RGB('',3.1E-1,3.1E-1,5.6E-1);
#22=COLOUR_RGB('',3.2E-1,1.5E-1,0.E0);
#23=COLOUR_RGB('',4.E-1,4.E-1,4.E-1);
#24=COLOUR_RGB('',4.2E-1,4.2E-1,1.E0);
#25=COLOUR_RGB('',4.4E-1,8.5E-1,1.E0);
#26=COLOUR_RGB('',4.9E-1,4.9E-1,0.E0);
#27=COLOUR_RGB('',4.9E-1,1.E0,0.E0);
#28=COLOUR_RGB('',5.E-1,0.E0,0.E0);
#29=COLOUR_RGB('',5.E-1,0.E0,2.3E-1);
#30=COLOUR_RGB('',5.E-1,5.E-1,5.E-1);
#31=COLOUR_RGB('',5.3E-1,0.E0,0.E0);
#32=COLOUR_RGB('',5.4E-1,0.E0,4.4E-1);
#33=COLOUR_RGB('',5.5E-1,3.E-1,0.E0);
#34=COLOUR_RGB('',5.6E-1,1.E-1,5.E-2);
#35=COLOUR_RGB('',5.8E-1,2.2E-1,1.E-2);
#36=COLOUR_RGB('',6.E-1,6.E-1,6.E-1);
#37=COLOUR_RGB('',6.2E-1,0.E0,5.5E-1);
#38=COLOUR_RGB('',6.4E-1,0.E0,2.5E-1);
#39=COLOUR_RGB('',6.4E-1,1.E-2,0.E0);
#40=COLOUR_RGB('',6.8E-1,7.5E-1,1.E0);
#41=COLOUR_RGB('',7.1E-1,3.1E-1,0.E0);
#42=COLOUR_RGB('',7.2E-1,7.2E-1,7.2E-1);
#43=COLOUR_RGB('',7.4E-1,1.E0,2.6E-1);
#44=COLOUR_RGB('',7.5E-1,3.E-2,0.E0);
#45=COLOUR_RGB('',7.6E-1,0.E0,4.7E-1);
#46=COLOUR_RGB('',8.1E-1,4.E-2,0.E0);
#47=COLOUR_RGB('',8.1E-1,6.1E-1,0.E0);
#48=COLOUR_RGB('',8.2E-1,4.E-2,6.6E-1);
#49=COLOUR_RGB('',8.5E-1,8.5E-1,8.5E-1);
#50=COLOUR_RGB('',8.784E-1,9.49E-1,1.E0);
#51=COLOUR_RGB('',9.E-1,1.E0,0.E0);
#52=COLOUR_RGB('',9.37E-1,7.85E-1,0.E0);
#53=COLOUR_RGB('',9.5E-1,2.2E-1,8.1E-1);
#54=COLOUR_RGB('',9.6E-1,3.7E-1,3.E-1);
#55=COLOUR_RGB('',9.6E-1,7.1E-1,3.75E-1);
#56=DRAUGHTING_PRE_DEFINED_COLOUR('red');
#57=COLOUR_RGB('',1.E0,0.E0,6.1E-1);
#58=COLOUR_RGB('',1.E0,4.E-2,0.E0);
#59=COLOUR_RGB('',1.E0,2.3E-1,0.E0);
#60=COLOUR_RGB('',1.E0,3.5E-1,5.2E-1);
#61=COLOUR_RGB('',1.E0,3.6E-1,0.E0);
#62=COLOUR_RGB('',1.E0,4.9E-1,3.7E-1);
#63=COLOUR_RGB('',1.E0,5.E-1,0.E0);
#64=COLOUR_RGB('',1.E0,5.6E-1,7.8E-1);
#65=COLOUR_RGB('',1.E0,6.4E-1,4.9E-1);
#66=COLOUR_RGB('',1.E0,6.7E-1,0.E0);
#67=COLOUR_RGB('',1.E0,7.6E-1,6.5E-1);
#68=COLOUR_RGB('',1.E0,8.6E-1,4.E-2);
#69=COLOUR_RGB('',1.E0,9.8E-1,7.2E-1);
#70=DRAUGHTING_PRE_DEFINED_COLOUR('yellow');
#71=DRAUGHTING_PRE_DEFINED_COLOUR('white');
#72=CARTESIAN_POINT('',(0.E0,0.E0,0.E0));
#73=DIRECTION('',(0.E0,-1.E0,0.E0));
#74=DIRECTION('',(1.E0,0.E0,0.E0));
#75=AXIS2_PLACEMENT_3D('',#72,#73,#74);
#77=CARTESIAN_POINT('',(0.E0,0.E0,0.E0));
#78=DIRECTION('',(0.E0,-1.E0,0.E0));
#79=DIRECTION('',(-1.E0,0.E0,0.E0));
#80=AXIS2_PLACEMENT_3D('',#77,#78,#79);
#82=CARTESIAN_POINT('',(0.E0,0.E0,-4.E0));
#83=DIRECTION('',(0.E0,1.E0,0.E0));
#84=DIRECTION('',(-6.666666666667E-1,0.E0,7.453559924999E-1));
#85=AXIS2_PLACEMENT_3D('',#82,#83,#84);
#87=DIRECTION('',(1.E0,0.E0,0.E0));
#88=VECTOR('',#87,9.E0);
#89=CARTESIAN_POINT('',(0.E0,0.E0,-1.35E1));
#90=LINE('',#89,#88);
#91=DIRECTION('',(1.E0,0.E0,0.E0));
#92=VECTOR('',#91,9.E0);
#93=CARTESIAN_POINT('',(-9.E0,0.E0,-1.35E1));
#94=LINE('',#93,#92);
#95=DIRECTION('',(0.E0,1.E0,0.E0));
#96=VECTOR('',#95,3.5E0);
#97=CARTESIAN_POINT('',(5.15E0,0.E0,0.E0));
#98=LINE('',#97,#96);
#99=DIRECTION('',(0.E0,1.E0,0.E0));
#100=VECTOR('',#99,3.5E0);
#101=CARTESIAN_POINT('',(-5.15E0,0.E0,0.E0));
#102=LINE('',#101,#100);
#103=CARTESIAN_POINT('',(0.E0,3.5E0,0.E0));
#104=DIRECTION('',(0.E0,-1.E0,0.E0));
#105=DIRECTION('',(1.E0,0.E0,0.E0));
#106=AXIS2_PLACEMENT_3D('',#103,#104,#105);
#108=CARTESIAN_POINT('',(0.E0,3.5E0,0.E0));
#109=DIRECTION('',(0.E0,-1.E0,0.E0));
#110=DIRECTION('',(-1.E0,0.E0,0.E0));
#111=AXIS2_PLACEMENT_3D('',#108,#109,#110);
#113=CARTESIAN_POINT('',(0.E0,3.5E0,-4.E0));
#114=DIRECTION('',(0.E0,1.E0,0.E0));
#115=DIRECTION('',(-6.666666666667E-1,0.E0,7.453559924999E-1));
#116=AXIS2_PLACEMENT_3D('',#113,#114,#115);
#118=DIRECTION('',(1.E0,0.E0,0.E0));
#119=VECTOR('',#118,1.8E1);
#120=CARTESIAN_POINT('',(-9.E0,3.5E0,-1.35E1));
#121=LINE('',#120,#119);
#122=DIRECTION('',(0.E0,0.E0,-1.E0));
#123=VECTOR('',#122,1.956230589875E1);
#124=CARTESIAN_POINT('',(9.E0,3.5E0,6.062305898749E0));
#125=LINE('',#124,#123);
#126=DIRECTION('',(0.E0,1.E0,0.E0));
#127=VECTOR('',#126,3.5E0);
#128=CARTESIAN_POINT('',(9.E0,0.E0,-1.35E1));
#129=LINE('',#128,#127);
#130=DIRECTION('',(0.E0,0.E0,1.E0));
#131=VECTOR('',#130,1.956230589875E1);
#132=CARTESIAN_POINT('',(9.E0,0.E0,-1.35E1));
#133=LINE('',#132,#131);
#134=DIRECTION('',(0.E0,1.E0,0.E0));
#135=VECTOR('',#134,3.5E0);
#136=CARTESIAN_POINT('',(9.E0,0.E0,6.062305898749E0));
#137=LINE('',#136,#135);
#138=DIRECTION('',(4.399820480742E-1,-2.430719001255E-1,8.644835734367E-1));
#139=VECTOR('',#138,1.041083980835E1);
#140=CARTESIAN_POINT('',(4.419417378950E0,2.530582614118E0,-2.25E1));
#141=LINE('',#140,#139);
#142=CARTESIAN_POINT('',(0.E0,6.95E0,-2.25E1));
#143=DIRECTION('',(0.E0,0.E0,1.E0));
#144=DIRECTION('',(7.071067795227E-1,-7.071067828504E-1,0.E0));
#145=AXIS2_PLACEMENT_3D('',#142,#143,#144);
#147=CARTESIAN_POINT('',(0.E0,6.95E0,-2.25E1));
#148=DIRECTION('',(0.E0,0.E0,1.E0));
#149=DIRECTION('',(8.986019755744E-1,4.387647313695E-1,0.E0));
#150=AXIS2_PLACEMENT_3D('',#147,#148,#149);
#152=CARTESIAN_POINT('',(0.E0,6.95E0,-2.25E1));
#153=DIRECTION('',(0.E0,0.E0,1.E0));
#154=DIRECTION('',(7.071067814063E-1,7.071067809668E-1,0.E0));
#155=AXIS2_PLACEMENT_3D('',#152,#153,#154);
#157=DIRECTION('',(2.264481371376E-12,0.E0,1.E0));
#158=VECTOR('',#157,2.1E1);
#159=CARTESIAN_POINT('',(0.E0,1.32E1,-4.35E1));
#160=LINE('',#159,#158);
#161=CARTESIAN_POINT('',(0.E0,6.95E0,-4.35E1));
#162=DIRECTION('',(0.E0,0.E0,-1.E0));
#163=DIRECTION('',(0.E0,1.E0,0.E0));
#164=AXIS2_PLACEMENT_3D('',#161,#162,#163);
#166=DIRECTION('',(0.E0,0.E0,1.E0));
#167=VECTOR('',#166,2.1E1);
#168=CARTESIAN_POINT('',(0.E0,7.E-1,-4.35E1));
#169=LINE('',#168,#167);
#170=CARTESIAN_POINT('',(0.E0,6.95E0,-2.25E1));
#171=DIRECTION('',(0.E0,0.E0,1.E0));
#172=DIRECTION('',(0.E0,-1.E0,0.E0));
#173=AXIS2_PLACEMENT_3D('',#170,#171,#172);
#175=DIRECTION('',(3.577821763985E-1,-6.146679392656E-1,7.029759872787E-1));
#176=VECTOR('',#175,1.280271326883E1);
#177=CARTESIAN_POINT('',(4.419417382874E0,1.136941738196E1,-2.25E1));
#178=LINE('',#177,#176);
#179=DIRECTION('',(-3.577821764382E-1,-6.146679392901E-1,7.029759872371E-1));
#180=VECTOR('',#179,1.280271326959E1);
#181=CARTESIAN_POINT('',(-4.419417382093E0,1.136941738274E1,-2.25E1));
#182=LINE('',#181,#180);
#183=CARTESIAN_POINT('',(0.E0,6.95E0,-2.25E1));
#184=DIRECTION('',(0.E0,0.E0,1.E0));
#185=DIRECTION('',(-7.071067810317E-1,7.071067813414E-1,0.E0));
#186=AXIS2_PLACEMENT_3D('',#183,#184,#185);
#188=CARTESIAN_POINT('',(0.E0,6.95E0,-2.25E1));
#189=DIRECTION('',(0.E0,0.E0,1.E0));
#190=DIRECTION('',(-8.986078893144E-1,4.387526196639E-1,0.E0));
#191=AXIS2_PLACEMENT_3D('',#188,#189,#190);
#193=CARTESIAN_POINT('',(0.E0,6.95E0,-2.25E1));
#194=DIRECTION('',(0.E0,0.E0,1.E0));
#195=DIRECTION('',(-7.071067800864E-1,-7.071067822867E-1,0.E0));
#196=AXIS2_PLACEMENT_3D('',#193,#194,#195);
#198=CARTESIAN_POINT('',(0.E0,6.95E0,-4.35E1));
#199=DIRECTION('',(0.E0,0.E0,1.E0));
#200=DIRECTION('',(0.E0,1.E0,0.E0));
#201=AXIS2_PLACEMENT_3D('',#198,#199,#200);
#203=CARTESIAN_POINT('',(0.E0,6.95E0,-2.25E1));
#204=DIRECTION('',(0.E0,0.E0,1.E0));
#205=DIRECTION('',(0.E0,1.E0,0.E0));
#206=AXIS2_PLACEMENT_3D('',#203,#204,#205);
#208=DIRECTION('',(-4.399820479712E-1,-2.430719002437E-1,8.644835734559E-1));
#209=VECTOR('',#208,1.041083980812E1);
#210=CARTESIAN_POINT('',(-4.419417380124E0,2.530582615292E0,-2.25E1));
#211=LINE('',#210,#209);
#212=DIRECTION('',(0.E0,-7.754358600819E-2,9.969889629625E-1));
#213=VECTOR('',#212,9.027181176868E0);
#214=CARTESIAN_POINT('',(0.E0,7.E-1,-2.25E1));
#215=LINE('',#214,#213);
#216=CARTESIAN_POINT('',(0.E0,6.95E0,-4.35E1));
#217=DIRECTION('',(0.E0,0.E0,1.E0));
#218=DIRECTION('',(0.E0,1.E0,0.E0));
#219=AXIS2_PLACEMENT_3D('',#216,#217,#218);
#221=CARTESIAN_POINT('',(0.E0,6.95E0,-4.35E1));
#222=DIRECTION('',(0.E0,0.E0,-1.E0));
#223=DIRECTION('',(0.E0,1.E0,0.E0));
#224=AXIS2_PLACEMENT_3D('',#221,#222,#223);
#226=CARTESIAN_POINT('',(0.E0,6.95E0,-4.25E1));
#227=DIRECTION('',(0.E0,0.E0,1.E0));
#228=DIRECTION('',(0.E0,1.E0,0.E0));
#229=AXIS2_PLACEMENT_3D('',#226,#227,#228);
#231=DIRECTION('',(0.E0,0.E0,-1.E0));
#232=VECTOR('',#231,1.E0);
#233=CARTESIAN_POINT('',(0.E0,1.155E1,-4.25E1));
#234=LINE('',#233,#232);
#235=CARTESIAN_POINT('',(0.E0,6.95E0,-4.25E1));
#236=DIRECTION('',(0.E0,0.E0,-1.E0));
#237=DIRECTION('',(0.E0,1.E0,0.E0));
#238=AXIS2_PLACEMENT_3D('',#235,#236,#237);
#240=DIRECTION('',(0.E0,0.E0,-1.E0));
#241=VECTOR('',#240,1.E0);
#242=CARTESIAN_POINT('',(0.E0,2.35E0,-4.25E1));
#243=LINE('',#242,#241);
#244=DIRECTION('',(0.E0,0.E0,-1.E0));
#245=VECTOR('',#244,1.956230589875E1);
#246=CARTESIAN_POINT('',(-9.E0,0.E0,6.062305898749E0));
#247=LINE('',#246,#245);
#248=DIRECTION('',(0.E0,1.E0,0.E0));
#249=VECTOR('',#248,3.5E0);
#250=CARTESIAN_POINT('',(-9.E0,0.E0,-1.35E1));
#251=LINE('',#250,#249);
#252=DIRECTION('',(0.E0,0.E0,1.E0));
#253=VECTOR('',#252,1.956230589875E1);
#254=CARTESIAN_POINT('',(-9.E0,3.5E0,-1.35E1));
#255=LINE('',#254,#253);
#256=DIRECTION('',(0.E0,1.E0,0.E0));
#257=VECTOR('',#256,3.5E0);
#258=CARTESIAN_POINT('',(-9.E0,0.E0,6.062305898749E0));
#259=LINE('',#258,#257);
#260=CARTESIAN_POINT('',(5.15E0,0.E0,0.E0));
#261=CARTESIAN_POINT('',(-5.15E0,0.E0,0.E0));
#262=VERTEX_POINT('',#260);
#263=VERTEX_POINT('',#261);
#264=CARTESIAN_POINT('',(-9.E0,0.E0,6.062305898749E0));
#265=CARTESIAN_POINT('',(9.E0,0.E0,6.062305898749E0));
#266=VERTEX_POINT('',#264);
#267=VERTEX_POINT('',#265);
#268=CARTESIAN_POINT('',(5.15E0,3.5E0,0.E0));
#269=CARTESIAN_POINT('',(-5.15E0,3.5E0,0.E0));
#270=VERTEX_POINT('',#268);
#271=VERTEX_POINT('',#269);
#272=CARTESIAN_POINT('',(-9.E0,3.5E0,6.062305898749E0));
#273=CARTESIAN_POINT('',(9.E0,3.5E0,6.062305898749E0));
#274=VERTEX_POINT('',#272);
#275=VERTEX_POINT('',#273);
#276=CARTESIAN_POINT('',(-4.419417381448E0,1.136941738338E1,-2.25E1));
#277=CARTESIAN_POINT('',(-5.616299308215E0,9.692203872899E0,-2.25E1));
#278=VERTEX_POINT('',#276);
#279=VERTEX_POINT('',#277);
#280=CARTESIAN_POINT('',(-4.419417375540E0,2.530582610708E0,-2.25E1));
#281=VERTEX_POINT('',#280);
#282=CARTESIAN_POINT('',(0.E0,7.E-1,-2.25E1));
#283=VERTEX_POINT('',#282);
#284=CARTESIAN_POINT('',(4.419417372017E0,2.530582607185E0,-2.25E1));
#285=CARTESIAN_POINT('',(5.616262347340E0,9.692279571059E0,-2.25E1));
#286=VERTEX_POINT('',#284);
#287=VERTEX_POINT('',#285);
#288=CARTESIAN_POINT('',(4.419417383789E0,1.136941738104E1,-2.25E1));
#289=VERTEX_POINT('',#288);
#290=CARTESIAN_POINT('',(0.E0,1.32E1,-2.25E1));
#291=VERTEX_POINT('',#290);
#292=CARTESIAN_POINT('',(0.E0,1.32E1,-4.35E1));
#293=VERTEX_POINT('',#292);
#294=CARTESIAN_POINT('',(0.E0,7.E-1,-4.35E1));
#295=VERTEX_POINT('',#294);
#296=CARTESIAN_POINT('',(-9.E0,3.5E0,-1.35E1));
#297=VERTEX_POINT('',#296);
#298=CARTESIAN_POINT('',(-9.E0,0.E0,-1.35E1));
#299=VERTEX_POINT('',#298);
#300=CARTESIAN_POINT('',(9.E0,3.5E0,-1.35E1));
#301=VERTEX_POINT('',#300);
#302=CARTESIAN_POINT('',(0.E0,0.E0,-1.35E1));
#303=VERTEX_POINT('',#302);
#304=CARTESIAN_POINT('',(9.E0,0.E0,-1.35E1));
#305=VERTEX_POINT('',#304);
#306=CARTESIAN_POINT('',(0.E0,1.155E1,-4.25E1));
#307=CARTESIAN_POINT('',(0.E0,1.155E1,-4.35E1));
#308=VERTEX_POINT('',#306);
#309=VERTEX_POINT('',#307);
#310=CARTESIAN_POINT('',(0.E0,2.35E0,-4.25E1));
#311=CARTESIAN_POINT('',(0.E0,2.35E0,-4.35E1));
#312=VERTEX_POINT('',#310);
#313=VERTEX_POINT('',#311);
#314=CARTESIAN_POINT('',(0.E0,0.E0,0.E0));
#315=DIRECTION('',(0.E0,1.E0,0.E0));
#316=DIRECTION('',(1.E0,0.E0,0.E0));
#317=AXIS2_PLACEMENT_3D('',#314,#315,#316);
#318=PLANE('',#317);
#320=ORIENTED_EDGE('',*,*,#319,.F.);
#322=ORIENTED_EDGE('',*,*,#321,.T.);
#324=ORIENTED_EDGE('',*,*,#323,.F.);
#326=ORIENTED_EDGE('',*,*,#325,.F.);
#328=ORIENTED_EDGE('',*,*,#327,.F.);
#329=EDGE_LOOP('',(#320,#322,#324,#326,#328));
#330=FACE_OUTER_BOUND('',#329,.F.);
#332=ORIENTED_EDGE('',*,*,#331,.T.);
#334=ORIENTED_EDGE('',*,*,#333,.T.);
#335=EDGE_LOOP('',(#332,#334));
#336=FACE_BOUND('',#335,.F.);
#337=ADVANCED_FACE('',(#330,#336),#318,.F.);
#338=CARTESIAN_POINT('',(0.E0,0.E0,0.E0));
#339=DIRECTION('',(0.E0,1.E0,0.E0));
#340=DIRECTION('',(1.E0,0.E0,0.E0));
#341=AXIS2_PLACEMENT_3D('',#338,#339,#340);
#342=CYLINDRICAL_SURFACE('',#341,5.15E0);
#343=ORIENTED_EDGE('',*,*,#331,.F.);
#345=ORIENTED_EDGE('',*,*,#344,.T.);
#347=ORIENTED_EDGE('',*,*,#346,.T.);
#349=ORIENTED_EDGE('',*,*,#348,.F.);
#350=EDGE_LOOP('',(#343,#345,#347,#349));
#351=FACE_OUTER_BOUND('',#350,.F.);
#352=ADVANCED_FACE('',(#351),#342,.F.);
#353=CARTESIAN_POINT('',(0.E0,0.E0,0.E0));
#354=DIRECTION('',(0.E0,1.E0,0.E0));
#355=DIRECTION('',(1.E0,0.E0,0.E0));
#356=AXIS2_PLACEMENT_3D('',#353,#354,#355);
#357=CYLINDRICAL_SURFACE('',#356,5.15E0);
#358=ORIENTED_EDGE('',*,*,#333,.F.);
#359=ORIENTED_EDGE('',*,*,#348,.T.);
#361=ORIENTED_EDGE('',*,*,#360,.T.);
#362=ORIENTED_EDGE('',*,*,#344,.F.);
#363=EDGE_LOOP('',(#358,#359,#361,#362));
#364=FACE_OUTER_BOUND('',#363,.F.);
#365=ADVANCED_FACE('',(#364),#357,.F.);
#366=CARTESIAN_POINT('',(0.E0,3.5E0,0.E0));
#367=DIRECTION('',(0.E0,1.E0,0.E0));
#368=DIRECTION('',(1.E0,0.E0,0.E0));
#369=AXIS2_PLACEMENT_3D('',#366,#367,#368);
#370=PLANE('',#369);
#372=ORIENTED_EDGE('',*,*,#371,.F.);
#374=ORIENTED_EDGE('',*,*,#373,.F.);
#376=ORIENTED_EDGE('',*,*,#375,.F.);
#378=ORIENTED_EDGE('',*,*,#377,.T.);
#379=EDGE_LOOP('',(#372,#374,#376,#378));
#380=FACE_OUTER_BOUND('',#379,.F.);
#381=ORIENTED_EDGE('',*,*,#346,.F.);
#382=ORIENTED_EDGE('',*,*,#360,.F.);
#383=EDGE_LOOP('',(#381,#382));
#384=FACE_BOUND('',#383,.F.);
#385=ADVANCED_FACE('',(#380,#384),#370,.T.);
#386=CARTESIAN_POINT('',(9.E0,0.E0,6.062305898749E0));
#387=DIRECTION('',(1.E0,0.E0,0.E0));
#388=DIRECTION('',(0.E0,0.E0,-1.E0));
#389=AXIS2_PLACEMENT_3D('',#386,#387,#388);
#390=PLANE('',#389);
#391=ORIENTED_EDGE('',*,*,#371,.T.);
#393=ORIENTED_EDGE('',*,*,#392,.F.);
#394=ORIENTED_EDGE('',*,*,#323,.T.);
#396=ORIENTED_EDGE('',*,*,#395,.T.);
#397=EDGE_LOOP('',(#391,#393,#394,#396));
#398=FACE_OUTER_BOUND('',#397,.F.);
#399=ADVANCED_FACE('',(#398),#390,.T.);
#400=CARTESIAN_POINT('',(4.183987800253E0,2.443225000211E0,-2.268000000008E1));
#401=CARTESIAN_POINT('',(5.820802404089E0,1.589057026283E0,-1.956000000005E1));
#402=CARTESIAN_POINT('',(7.457617007924E0,7.348890523550E-1,-1.644000000003E1));
#403=CARTESIAN_POINT('',(9.094431611760E0,-1.192789215728E-1,-1.332E1));
#404=CARTESIAN_POINT('',(4.232652903051E0,2.488457906923E0,-2.268000000008E1));
#405=CARTESIAN_POINT('',(5.852927733387E0,1.626846940736E0,-1.956000000005E1));
#406=CARTESIAN_POINT('',(7.473202563722E0,7.652359745484E-1,-1.644000000003E1));
#407=CARTESIAN_POINT('',(9.093477394058E0,-9.637499163902E-2,-1.332E1));
#408=CARTESIAN_POINT('',(4.880005693657E0,3.109368181231E0,-2.268000000008E1));
#409=CARTESIAN_POINT('',(6.280265196467E0,2.143787710050E0,-1.956000000005E1));
#410=CARTESIAN_POINT('',(7.680524699276E0,1.178207238869E0,-1.644000000003E1));
#411=CARTESIAN_POINT('',(9.080784202085E0,2.126267676883E-1,-1.332E1));
#412=CARTESIAN_POINT('',(5.863056371909E0,4.568324537521E0,-2.268000000008E1));
#413=CARTESIAN_POINT('',(6.929207147469E0,3.313076982285E0,-1.956000000005E1));
#414=CARTESIAN_POINT('',(7.995357923030E0,2.057829427049E0,-1.644000000003E1));
#415=CARTESIAN_POINT('',(9.061508698590E0,8.025818718133E-1,-1.332E1));
#416=CARTESIAN_POINT('',(6.360971814008E0,7.054000000047E0,-2.268000000008E1));
#417=CARTESIAN_POINT('',(7.257896426241E0,5.251333333364E0,-1.956000000005E1));
#418=CARTESIAN_POINT('',(8.154821038473E0,3.448666666682E0,-1.644000000003E1));
#419=CARTESIAN_POINT('',(9.051745650706E0,1.645999999999E0,-1.332E1));
#420=CARTESIAN_POINT('',(5.863056371909E0,9.539675462572E0,-2.268000000008E1));
#421=CARTESIAN_POINT('',(6.929207147469E0,7.189589684443E0,-1.956000000005E1));
#422=CARTESIAN_POINT('',(7.995357923030E0,4.839503906314E0,-1.644000000003E1));
#423=CARTESIAN_POINT('',(9.061508698590E0,2.489418128185E0,-1.332E1));
#424=CARTESIAN_POINT('',(4.880005693657E0,1.099863181886E1,-2.268000000008E1));
#425=CARTESIAN_POINT('',(6.280265196467E0,8.358878956678E0,-1.956000000005E1));
#426=CARTESIAN_POINT('',(7.680524699276E0,5.719126094494E0,-1.644000000003E1));
#427=CARTESIAN_POINT('',(9.080784202085E0,3.079373232310E0,-1.332E1));
#428=CARTESIAN_POINT('',(4.232652903051E0,1.161954209317E1,-2.268000000008E1));
#429=CARTESIAN_POINT('',(5.852927733387E0,8.875819725992E0,-1.956000000005E1));
#430=CARTESIAN_POINT('',(7.473202563722E0,6.132097358815E0,-1.644000000003E1));
#431=CARTESIAN_POINT('',(9.093477394058E0,3.388374991637E0,-1.332E1));
#432=CARTESIAN_POINT('',(4.183987800253E0,1.166477499988E1,-2.268000000008E1));
#433=CARTESIAN_POINT('',(5.820802404089E0,8.913609640445E0,-1.956000000005E1));
#434=CARTESIAN_POINT('',(7.457617007924E0,6.162444281008E0,-1.644000000003E1));
#435=CARTESIAN_POINT('',(9.094431611760E0,3.411278921571E0,-1.332E1));
#436=B_SPLINE_SURFACE_WITH_KNOTS('',3,3,((#400,#401,#402,#403),(#404,#405,#406,
#407),(#408,#409,#410,#411),(#412,#413,#414,#415),(#416,#417,#418,#419),(#420,
#421,#422,#423),(#424,#425,#426,#427),(#428,#429,#430,#431),(#432,#433,#434,
#435)),.UNSPECIFIED.,.F.,.F.,.F.,(4,1,1,1,1,1,4),(4,4),(-2.E-2,0.E0,2.5E-1,
5.E-1,7.5E-1,1.E0,1.02E0),(-2.000000000897E-2,1.02E0),.UNSPECIFIED.);
#438=ORIENTED_EDGE('',*,*,#437,.F.);
#440=ORIENTED_EDGE('',*,*,#439,.T.);
#441=ORIENTED_EDGE('',*,*,#392,.T.);
#443=ORIENTED_EDGE('',*,*,#442,.F.);
#445=ORIENTED_EDGE('',*,*,#444,.F.);
#446=EDGE_LOOP('',(#438,#440,#441,#443,#445));
#447=FACE_OUTER_BOUND('',#446,.F.);
#448=ADVANCED_FACE('',(#447),#436,.T.);
#449=CARTESIAN_POINT('',(0.E0,6.95E0,-4.455E1));
#450=DIRECTION('',(0.E0,0.E0,1.E0));
#451=DIRECTION('',(0.E0,1.E0,0.E0));
#452=AXIS2_PLACEMENT_3D('',#449,#450,#451);
#453=CYLINDRICAL_SURFACE('',#452,6.25E0);
#454=ORIENTED_EDGE('',*,*,#437,.T.);
#455=ORIENTED_EDGE('',*,*,#444,.T.);
#457=ORIENTED_EDGE('',*,*,#456,.T.);
#459=ORIENTED_EDGE('',*,*,#458,.F.);
#461=ORIENTED_EDGE('',*,*,#460,.T.);
#463=ORIENTED_EDGE('',*,*,#462,.T.);
#465=ORIENTED_EDGE('',*,*,#464,.T.);
#466=EDGE_LOOP('',(#454,#455,#457,#459,#461,#463,#465));
#467=FACE_OUTER_BOUND('',#466,.F.);
#468=ADVANCED_FACE('',(#467),#453,.T.);
#469=CARTESIAN_POINT('',(4.459974999811E0,1.138298780030E1,-2.268E1));
#470=CARTESIAN_POINT('',(6.125342973732E0,8.703802404117E0,-1.956E1));
#471=CARTESIAN_POINT('',(7.790710947652E0,6.024617007938E0,-1.644E1));
#472=CARTESIAN_POINT('',(9.456078921572E0,3.345431611759E0,-1.332E1));
#473=CARTESIAN_POINT('',(4.416675426432E0,1.143165290309E1,-2.268E1));
#474=CARTESIAN_POINT('',(6.055975281501E0,8.735927733414E0,-1.956E1));
#475=CARTESIAN_POINT('',(7.695275136570E0,6.040202563736E0,-1.644E1));
#476=CARTESIAN_POINT('',(9.334574991639E0,3.344477394057E0,-1.332E1));
#477=CARTESIAN_POINT('',(3.821865152127E0,1.207900569369E1,-2.268E1));
#478=CARTESIAN_POINT('',(5.112734512189E0,9.163265196491E0,-1.956E1));
#479=CARTESIAN_POINT('',(6.403603872250E0,6.247524699287E0,-1.644E1));
#480=CARTESIAN_POINT('',(7.694473232311E0,3.331784202084E0,-1.332E1));
#481=CARTESIAN_POINT('',(2.413175462511E0,1.306205637194E1,-2.268E1));
#482=CARTESIAN_POINT('',(3.122423017736E0,9.812207147488E0,-1.956E1));
#483=CARTESIAN_POINT('',(3.831670572961E0,6.562357923039E0,-1.644E1));
#484=CARTESIAN_POINT('',(4.540918128186E0,3.312508698589E0,-1.332E1));
#485=CARTESIAN_POINT('',(0.E0,1.355997181403E1,-2.268E1));
#486=CARTESIAN_POINT('',(0.E0,1.014089642626E1,-1.956E1));
#487=CARTESIAN_POINT('',(0.E0,6.721821038481E0,-1.644E1));
#488=CARTESIAN_POINT('',(0.E0,3.302745650705E0,-1.332E1));
#489=CARTESIAN_POINT('',(-2.413175462511E0,1.306205637194E1,-2.268E1));
#490=CARTESIAN_POINT('',(-3.122423017736E0,9.812207147488E0,-1.956E1));
#491=CARTESIAN_POINT('',(-3.831670572961E0,6.562357923039E0,-1.644E1));
#492=CARTESIAN_POINT('',(-4.540918128186E0,3.312508698589E0,-1.332E1));
#493=CARTESIAN_POINT('',(-3.821865152127E0,1.207900569369E1,-2.268E1));
#494=CARTESIAN_POINT('',(-5.112734512189E0,9.163265196491E0,-1.956E1));
#495=CARTESIAN_POINT('',(-6.403603872250E0,6.247524699287E0,-1.644E1));
#496=CARTESIAN_POINT('',(-7.694473232311E0,3.331784202084E0,-1.332E1));
#497=CARTESIAN_POINT('',(-4.416675426432E0,1.143165290309E1,-2.268E1));
#498=CARTESIAN_POINT('',(-6.055975281501E0,8.735927733414E0,-1.956E1));
#499=CARTESIAN_POINT('',(-7.695275136570E0,6.040202563736E0,-1.644E1));
#500=CARTESIAN_POINT('',(-9.334574991639E0,3.344477394057E0,-1.332E1));
#501=CARTESIAN_POINT('',(-4.459974999811E0,1.138298780030E1,-2.268E1));
#502=CARTESIAN_POINT('',(-6.125342973732E0,8.703802404117E0,-1.956E1));
#503=CARTESIAN_POINT('',(-7.790710947652E0,6.024617007938E0,-1.644E1));
#504=CARTESIAN_POINT('',(-9.456078921572E0,3.345431611759E0,-1.332E1));
#505=B_SPLINE_SURFACE_WITH_KNOTS('',3,3,((#469,#470,#471,#472),(#473,#474,#475,
#476),(#477,#478,#479,#480),(#481,#482,#483,#484),(#485,#486,#487,#488),(#489,
#490,#491,#492),(#493,#494,#495,#496),(#497,#498,#499,#500),(#501,#502,#503,
#504)),.UNSPECIFIED.,.F.,.F.,.F.,(4,1,1,1,1,1,4),(4,4),(-2.E-2,0.E0,2.5E-1,
5.E-1,7.5E-1,1.E0,1.02E0),(-2.E-2,1.02E0),.UNSPECIFIED.);
#506=ORIENTED_EDGE('',*,*,#456,.F.);
#507=ORIENTED_EDGE('',*,*,#442,.T.);
#508=ORIENTED_EDGE('',*,*,#377,.F.);
#510=ORIENTED_EDGE('',*,*,#509,.F.);
#512=ORIENTED_EDGE('',*,*,#511,.F.);
#513=EDGE_LOOP('',(#506,#507,#508,#510,#512));
#514=FACE_OUTER_BOUND('',#513,.F.);
#515=ADVANCED_FACE('',(#514),#505,.T.);
#516=CARTESIAN_POINT('',(-4.183987800295E0,1.166477499981E1,-2.268E1));
#517=CARTESIAN_POINT('',(-5.820802404117E0,8.913609640398E0,-1.956E1));
#518=CARTESIAN_POINT('',(-7.457617007938E0,6.162444280985E0,-1.644E1));
#519=CARTESIAN_POINT('',(-9.094431611759E0,3.411278921572E0,-1.332E1));
#520=CARTESIAN_POINT('',(-4.232652903093E0,1.161954209310E1,-2.268E1));
#521=CARTESIAN_POINT('',(-5.852927733414E0,8.875819725945E0,-1.956E1));
#522=CARTESIAN_POINT('',(-7.473202563736E0,6.132097358792E0,-1.644E1));
#523=CARTESIAN_POINT('',(-9.093477394057E0,3.388374991639E0,-1.332E1));
#524=CARTESIAN_POINT('',(-4.880005693694E0,1.099863181879E1,-2.268E1));
#525=CARTESIAN_POINT('',(-6.280265196491E0,8.358878956633E0,-1.956E1));
#526=CARTESIAN_POINT('',(-7.680524699287E0,5.719126094472E0,-1.644E1));
#527=CARTESIAN_POINT('',(-9.080784202084E0,3.079373232311E0,-1.332E1));
#528=CARTESIAN_POINT('',(-5.863056371937E0,9.539675462511E0,-2.268E1));
#529=CARTESIAN_POINT('',(-6.929207147488E0,7.189589684403E0,-1.956E1));
#530=CARTESIAN_POINT('',(-7.995357923039E0,4.839503906295E0,-1.644E1));
#531=CARTESIAN_POINT('',(-9.061508698589E0,2.489418128186E0,-1.332E1));
#532=CARTESIAN_POINT('',(-6.360971814032E0,7.054E0,-2.268E1));
#533=CARTESIAN_POINT('',(-7.257896426256E0,5.251333333333E0,-1.956E1));
#534=CARTESIAN_POINT('',(-8.154821038481E0,3.448666666667E0,-1.644E1));
#535=CARTESIAN_POINT('',(-9.051745650705E0,1.646E0,-1.332E1));
#536=CARTESIAN_POINT('',(-5.863056371937E0,4.568324537489E0,-2.268E1));
#537=CARTESIAN_POINT('',(-6.929207147488E0,3.313076982264E0,-1.956E1));
#538=CARTESIAN_POINT('',(-7.995357923039E0,2.057829427039E0,-1.644E1));
#539=CARTESIAN_POINT('',(-9.061508698589E0,8.025818718139E-1,-1.332E1));
#540=CARTESIAN_POINT('',(-4.880005693694E0,3.109368181206E0,-2.268E1));
#541=CARTESIAN_POINT('',(-6.280265196491E0,2.143787710034E0,-1.956E1));
#542=CARTESIAN_POINT('',(-7.680524699287E0,1.178207238861E0,-1.644E1));
#543=CARTESIAN_POINT('',(-9.080784202084E0,2.126267676888E-1,-1.332E1));
#544=CARTESIAN_POINT('',(-4.232652903093E0,2.488457906901E0,-2.268E1));
#545=CARTESIAN_POINT('',(-5.852927733414E0,1.626846940721E0,-1.956E1));
#546=CARTESIAN_POINT('',(-7.473202563736E0,7.652359745413E-1,-1.644E1));
#547=CARTESIAN_POINT('',(-9.093477394057E0,-9.637499163858E-2,-1.332E1));
#548=CARTESIAN_POINT('',(-4.183987800295E0,2.443225000189E0,-2.268E1));
#549=CARTESIAN_POINT('',(-5.820802404117E0,1.589057026268E0,-1.956E1));
#550=CARTESIAN_POINT('',(-7.457617007938E0,7.348890523480E-1,-1.644E1));
#551=CARTESIAN_POINT('',(-9.094431611759E0,-1.192789215723E-1,-1.332E1));
#552=B_SPLINE_SURFACE_WITH_KNOTS('',3,3,((#516,#517,#518,#519),(#520,#521,#522,
#523),(#524,#525,#526,#527),(#528,#529,#530,#531),(#532,#533,#534,#535),(#536,
#537,#538,#539),(#540,#541,#542,#543),(#544,#545,#546,#547),(#548,#549,#550,
#551)),.UNSPECIFIED.,.F.,.F.,.F.,(4,1,1,1,1,1,4),(4,4),(-2.E-2,0.E0,2.5E-1,
5.E-1,7.5E-1,1.E0,1.02E0),(-2.E-2,1.02E0),.UNSPECIFIED.);
#554=ORIENTED_EDGE('',*,*,#553,.F.);
#555=ORIENTED_EDGE('',*,*,#509,.T.);
#557=ORIENTED_EDGE('',*,*,#556,.F.);
#559=ORIENTED_EDGE('',*,*,#558,.F.);
#561=ORIENTED_EDGE('',*,*,#560,.F.);
#562=EDGE_LOOP('',(#554,#555,#557,#559,#561));
#563=FACE_OUTER_BOUND('',#562,.F.);
#564=ADVANCED_FACE('',(#563),#552,.T.);
#565=CARTESIAN_POINT('',(0.E0,6.95E0,-4.455E1));
#566=DIRECTION('',(0.E0,0.E0,1.E0));
#567=DIRECTION('',(0.E0,1.E0,0.E0));
#568=AXIS2_PLACEMENT_3D('',#565,#566,#567);
#569=CYLINDRICAL_SURFACE('',#568,6.25E0);
#570=ORIENTED_EDGE('',*,*,#553,.T.);
#571=ORIENTED_EDGE('',*,*,#560,.T.);
#573=ORIENTED_EDGE('',*,*,#572,.T.);
#574=ORIENTED_EDGE('',*,*,#462,.F.);
#576=ORIENTED_EDGE('',*,*,#575,.F.);
#577=ORIENTED_EDGE('',*,*,#458,.T.);
#578=ORIENTED_EDGE('',*,*,#511,.T.);
#579=EDGE_LOOP('',(#570,#571,#573,#574,#576,#577,#578));
#580=FACE_OUTER_BOUND('',#579,.F.);
#581=ADVANCED_FACE('',(#580),#569,.T.);
#582=CARTESIAN_POINT('',(-4.394455148240E0,2.652555921724E0,-2.268E1));
#583=CARTESIAN_POINT('',(-6.020914836420E0,1.751033647674E0,-1.956E1));
#584=CARTESIAN_POINT('',(-7.647374524600E0,8.495113736240E-1,-1.644E1));
#585=CARTESIAN_POINT('',(-9.273834212780E0,-5.201090042596E-2,-1.332E1));
#586=CARTESIAN_POINT('',(-4.372425981366E0,2.628585281022E0,-2.268E1));
#587=CARTESIAN_POINT('',(-5.985980549791E0,1.735209891393E0,-1.956E1));
#588=CARTESIAN_POINT('',(-7.599535118215E0,8.418345017651E-1,-1.644E1));
#589=CARTESIAN_POINT('',(-9.213089686640E0,-5.154088786317E-2,-1.332E1));
#590=CARTESIAN_POINT('',(-3.794800433941E0,2.010059586277E0,-2.268E1));
#591=CARTESIAN_POINT('',(-5.074476103451E0,1.326902079830E0,-1.956E1));
#592=CARTESIAN_POINT('',(-6.354151772962E0,6.437445733828E-1,-1.644E1));
#593=CARTESIAN_POINT('',(-7.633827442472E0,-3.941293306425E-2,-1.332E1));
#594=CARTESIAN_POINT('',(-2.413118317064E0,1.045937810719E0,-2.268E1));
#595=CARTESIAN_POINT('',(-3.122385294271E0,6.904556789712E-1,-1.956E1));
#596=CARTESIAN_POINT('',(-3.831652271478E0,3.349735472237E-1,-1.644E1));
#597=CARTESIAN_POINT('',(-4.540919248685E0,-2.050858452390E-2,-1.332E1));
#598=CARTESIAN_POINT('',(-7.723095423812E-1,7.074031268093E-1,-2.268E1));
#599=CARTESIAN_POINT('',(-9.992370181732E-1,4.669785346911E-1,-1.956E1));
#600=CARTESIAN_POINT('',(-1.226164493965E0,2.265539425729E-1,-1.644E1));
#601=CARTESIAN_POINT('',(-1.453091969757E0,-1.387064954528E-2,-1.332E1));
#602=CARTESIAN_POINT('',(6.435884385492E-2,7.142621667572E-1,-2.268E1));
#603=CARTESIAN_POINT('',(8.326956359050E-2,4.715063976633E-1,-1.956E1));
#604=CARTESIAN_POINT('',(1.021802833261E-1,2.287506285693E-1,-1.644E1));
#605=CARTESIAN_POINT('',(1.210910030617E-1,-1.400514052465E-2,-1.332E1));
#606=CARTESIAN_POINT('',(9.653414786286E-2,7.147864679294E-1,-2.268E1));
#607=CARTESIAN_POINT('',(1.249016270206E-1,4.718525049730E-1,-1.956E1));
#608=CARTESIAN_POINT('',(1.532691061783E-1,2.289185420166E-1,-1.644E1));
#609=CARTESIAN_POINT('',(1.816365853360E-1,-1.401542093979E-2,-1.332E1));
#610=B_SPLINE_SURFACE_WITH_KNOTS('',3,3,((#582,#583,#584,#585),(#586,#587,#588,
#589),(#590,#591,#592,#593),(#594,#595,#596,#597),(#598,#599,#600,#601),(#602,
#603,#604,#605),(#606,#607,#608,#609)),.UNSPECIFIED.,.F.,.F.,.F.,(4,1,1,1,4),(4,
4),(-2.E-2,0.E0,5.E-1,1.E0,1.02E0),(-2.E-2,1.02E0),.UNSPECIFIED.);
#611=ORIENTED_EDGE('',*,*,#572,.F.);
#612=ORIENTED_EDGE('',*,*,#558,.T.);
#613=ORIENTED_EDGE('',*,*,#327,.T.);
#615=ORIENTED_EDGE('',*,*,#614,.F.);
#616=EDGE_LOOP('',(#611,#612,#613,#615));
#617=FACE_OUTER_BOUND('',#616,.F.);
#618=ADVANCED_FACE('',(#617),#610,.T.);
#619=CARTESIAN_POINT('',(-9.653414786286E-2,7.147864679294E-1,-2.268E1));
#620=CARTESIAN_POINT('',(-1.249016270206E-1,4.718525049730E-1,-1.956E1));
#621=CARTESIAN_POINT('',(-1.532691061783E-1,2.289185420166E-1,-1.644E1));
#622=CARTESIAN_POINT('',(-1.816365853360E-1,-1.401542093979E-2,-1.332E1));
#623=CARTESIAN_POINT('',(-6.435884385491E-2,7.142621667572E-1,-2.268E1));
#624=CARTESIAN_POINT('',(-8.326956359050E-2,4.715063976633E-1,-1.956E1));
#625=CARTESIAN_POINT('',(-1.021802833261E-1,2.287506285693E-1,-1.644E1));
#626=CARTESIAN_POINT('',(-1.210910030617E-1,-1.400514052465E-2,-1.332E1));
#627=CARTESIAN_POINT('',(7.723095423812E-1,7.074031268093E-1,-2.268E1));
#628=CARTESIAN_POINT('',(9.992370181732E-1,4.669785346911E-1,-1.956E1));
#629=CARTESIAN_POINT('',(1.226164493965E0,2.265539425729E-1,-1.644E1));
#630=CARTESIAN_POINT('',(1.453091969757E0,-1.387064954528E-2,-1.332E1));
#631=CARTESIAN_POINT('',(2.413118317064E0,1.045937810719E0,-2.268E1));
#632=CARTESIAN_POINT('',(3.122385294271E0,6.904556789712E-1,-1.956E1));
#633=CARTESIAN_POINT('',(3.831652271478E0,3.349735472237E-1,-1.644E1));
#634=CARTESIAN_POINT('',(4.540919248685E0,-2.050858452390E-2,-1.332E1));
#635=CARTESIAN_POINT('',(3.794800433941E0,2.010059586277E0,-2.268E1));
#636=CARTESIAN_POINT('',(5.074476103451E0,1.326902079830E0,-1.956E1));
#637=CARTESIAN_POINT('',(6.354151772962E0,6.437445733828E-1,-1.644E1));
#638=CARTESIAN_POINT('',(7.633827442472E0,-3.941293306426E-2,-1.332E1));
#639=CARTESIAN_POINT('',(4.372425981366E0,2.628585281022E0,-2.268E1));
#640=CARTESIAN_POINT('',(5.985980549791E0,1.735209891393E0,-1.956E1));
#641=CARTESIAN_POINT('',(7.599535118215E0,8.418345017651E-1,-1.644E1));
#642=CARTESIAN_POINT('',(9.213089686640E0,-5.154088786317E-2,-1.332E1));
#643=CARTESIAN_POINT('',(4.394455148240E0,2.652555921724E0,-2.268E1));
#644=CARTESIAN_POINT('',(6.020914836420E0,1.751033647674E0,-1.956E1));
#645=CARTESIAN_POINT('',(7.647374524600E0,8.495113736240E-1,-1.644E1));
#646=CARTESIAN_POINT('',(9.273834212780E0,-5.201090042596E-2,-1.332E1));
#647=B_SPLINE_SURFACE_WITH_KNOTS('',3,3,((#619,#620,#621,#622),(#623,#624,#625,
#626),(#627,#628,#629,#630),(#631,#632,#633,#634),(#635,#636,#637,#638),(#639,
#640,#641,#642),(#643,#644,#645,#646)),.UNSPECIFIED.,.F.,.F.,.F.,(4,1,1,1,4),(4,
4),(-2.E-2,0.E0,5.E-1,1.E0,1.02E0),(-2.E-2,1.02E0),.UNSPECIFIED.);
#648=ORIENTED_EDGE('',*,*,#464,.F.);
#649=ORIENTED_EDGE('',*,*,#614,.T.);
#650=ORIENTED_EDGE('',*,*,#325,.T.);
#651=ORIENTED_EDGE('',*,*,#439,.F.);
#652=EDGE_LOOP('',(#648,#649,#650,#651));
#653=FACE_OUTER_BOUND('',#652,.F.);
#654=ADVANCED_FACE('',(#653),#647,.T.);
#655=CARTESIAN_POINT('',(0.E0,6.95E0,-4.35E1));
#656=DIRECTION('',(0.E0,0.E0,1.E0));
#657=DIRECTION('',(0.E0,1.E0,0.E0));
#658=AXIS2_PLACEMENT_3D('',#655,#656,#657);
#659=PLANE('',#658);
#660=ORIENTED_EDGE('',*,*,#460,.F.);
#661=ORIENTED_EDGE('',*,*,#575,.T.);
#662=EDGE_LOOP('',(#660,#661));
#663=FACE_OUTER_BOUND('',#662,.F.);
#665=ORIENTED_EDGE('',*,*,#664,.F.);
#667=ORIENTED_EDGE('',*,*,#666,.T.);
#668=EDGE_LOOP('',(#665,#667));
#669=FACE_BOUND('',#668,.F.);
#670=ADVANCED_FACE('',(#663,#669),#659,.F.);
#671=CARTESIAN_POINT('',(0.E0,6.95E0,-4.455E1));
#672=DIRECTION('',(0.E0,0.E0,1.E0));
#673=DIRECTION('',(0.E0,1.E0,0.E0));
#674=AXIS2_PLACEMENT_3D('',#671,#672,#673);
#675=CYLINDRICAL_SURFACE('',#674,4.6E0);
#677=ORIENTED_EDGE('',*,*,#676,.T.);
#678=ORIENTED_EDGE('',*,*,#664,.T.);
#680=ORIENTED_EDGE('',*,*,#679,.F.);
#682=ORIENTED_EDGE('',*,*,#681,.F.);
#683=EDGE_LOOP('',(#677,#678,#680,#682));
#684=FACE_OUTER_BOUND('',#683,.F.);
#685=ADVANCED_FACE('',(#684),#675,.F.);
#686=CARTESIAN_POINT('',(0.E0,6.95E0,-4.455E1));
#687=DIRECTION('',(0.E0,0.E0,1.E0));
#688=DIRECTION('',(0.E0,1.E0,0.E0));
#689=AXIS2_PLACEMENT_3D('',#686,#687,#688);
#690=CYLINDRICAL_SURFACE('',#689,4.6E0);
#691=ORIENTED_EDGE('',*,*,#676,.F.);
#693=ORIENTED_EDGE('',*,*,#692,.T.);
#694=ORIENTED_EDGE('',*,*,#679,.T.);
#695=ORIENTED_EDGE('',*,*,#666,.F.);
#696=EDGE_LOOP('',(#691,#693,#694,#695));
#697=FACE_OUTER_BOUND('',#696,.F.);
#698=ADVANCED_FACE('',(#697),#690,.F.);
#699=CARTESIAN_POINT('',(0.E0,6.95E0,-4.25E1));
#700=DIRECTION('',(0.E0,0.E0,1.E0));
#701=DIRECTION('',(0.E0,1.E0,0.E0));
#702=AXIS2_PLACEMENT_3D('',#699,#700,#701);
#703=PLANE('',#702);
#704=ORIENTED_EDGE('',*,*,#692,.F.);
#705=ORIENTED_EDGE('',*,*,#681,.T.);
#706=EDGE_LOOP('',(#704,#705));
#707=FACE_OUTER_BOUND('',#706,.F.);
#708=ADVANCED_FACE('',(#707),#703,.F.);
#709=CARTESIAN_POINT('',(-9.E0,0.E0,-1.006230589875E1));
#710=DIRECTION('',(-1.E0,0.E0,0.E0));
#711=DIRECTION('',(0.E0,0.E0,1.E0));
#712=AXIS2_PLACEMENT_3D('',#709,#710,#711);
#713=PLANE('',#712);
#714=ORIENTED_EDGE('',*,*,#319,.T.);
#715=ORIENTED_EDGE('',*,*,#556,.T.);
#716=ORIENTED_EDGE('',*,*,#375,.T.);
#718=ORIENTED_EDGE('',*,*,#717,.F.);
#719=EDGE_LOOP('',(#714,#715,#716,#718));
#720=FACE_OUTER_BOUND('',#719,.F.);
#721=ADVANCED_FACE('',(#720),#713,.T.);
#722=CARTESIAN_POINT('',(0.E0,0.E0,-4.E0));
#723=DIRECTION('',(0.E0,1.E0,0.E0));
#724=DIRECTION('',(1.E0,0.E0,0.E0));
#725=AXIS2_PLACEMENT_3D('',#722,#723,#724);
#726=CYLINDRICAL_SURFACE('',#725,1.35E1);
#727=ORIENTED_EDGE('',*,*,#321,.F.);
#728=ORIENTED_EDGE('',*,*,#717,.T.);
#729=ORIENTED_EDGE('',*,*,#373,.T.);
#730=ORIENTED_EDGE('',*,*,#395,.F.);
#731=EDGE_LOOP('',(#727,#728,#729,#730));
#732=FACE_OUTER_BOUND('',#731,.F.);
#733=ADVANCED_FACE('',(#732),#726,.T.);
#734=CLOSED_SHELL('',(#337,#352,#365,#385,#399,#448,#468,#515,#564,#581,#618,
#654,#670,#685,#698,#708,#721,#733));
#735=MANIFOLD_SOLID_BREP('',#734);
#736=(LENGTH_UNIT()NAMED_UNIT(*)SI_UNIT(.MILLI.,.METRE.));
#737=DIMENSIONAL_EXPONENTS(0.E0,0.E0,0.E0,0.E0,0.E0,0.E0,0.E0);
#738=(NAMED_UNIT(*)PLANE_ANGLE_UNIT()SI_UNIT($,.RADIAN.));
#739=PLANE_ANGLE_MEASURE_WITH_UNIT(PLANE_ANGLE_MEASURE(1.745329251994E-2),#738);
#740=(CONVERSION_BASED_UNIT('DEGREE',#739)NAMED_UNIT(#737)PLANE_ANGLE_UNIT());
#741=(NAMED_UNIT(*)SI_UNIT($,.STERADIAN.)SOLID_ANGLE_UNIT());
#742=UNCERTAINTY_MEASURE_WITH_UNIT(LENGTH_MEASURE(5.757699124539E-3),#736,
'distance_accuracy_value',
'Maximum model space distance between geometric entities at asserted connectivities');
#743=(GEOMETRIC_REPRESENTATION_CONTEXT(3)GLOBAL_UNCERTAINTY_ASSIGNED_CONTEXT((
#742))GLOBAL_UNIT_ASSIGNED_CONTEXT((#736,#740,#741))REPRESENTATION_CONTEXT
('ID1','3'));
#745=APPLICATION_CONTEXT('automotive_design');
#746=APPLICATION_PROTOCOL_DEFINITION('international standard',
'automotive_design',2001,#745);
#747=PRODUCT_DEFINITION_CONTEXT('part definition',#745,'design');
#748=PRODUCT_CONTEXT('',#745,'mechanical');
#749=PRODUCT('C-710025-5','C-710025-5','NOT SPECIFIED',(#748));
#750=PRODUCT_DEFINITION_FORMATION('1','LAST_VERSION',#749);
#757=(LENGTH_UNIT()NAMED_UNIT(*)SI_UNIT(.MILLI.,.METRE.));
#758=DERIVED_UNIT_ELEMENT(#757,2.E0);
#759=MEASURE_REPRESENTATION_ITEM('surface area measure',AREA_MEASURE(
2.339223980856E3),#947);
#763=(LENGTH_UNIT()NAMED_UNIT(*)SI_UNIT(.MILLI.,.METRE.));
#764=DERIVED_UNIT_ELEMENT(#763,3.E0);
#765=MEASURE_REPRESENTATION_ITEM('volume measure',VOLUME_MEASURE(
4.520014571905E3),#948);
#769=CARTESIAN_POINT('centre point',(1.077817409317E-8,5.219088118535E0,
-2.270490284735E1));
#773=(LENGTH_UNIT()NAMED_UNIT(*)SI_UNIT(.MILLI.,.METRE.));
#774=DERIVED_UNIT_ELEMENT(#773,2.E0);
#775=MEASURE_REPRESENTATION_ITEM('surface area measure',AREA_MEASURE(
2.339223980856E3),#949);
#779=(LENGTH_UNIT()NAMED_UNIT(*)SI_UNIT(.MILLI.,.METRE.));
#780=DERIVED_UNIT_ELEMENT(#779,3.E0);
#781=MEASURE_REPRESENTATION_ITEM('volume measure',VOLUME_MEASURE(
4.520014571905E3),#950);
#785=CARTESIAN_POINT('centre point',(1.077817409317E-8,5.219088118535E0,
-2.270490284735E1));
#790=PRODUCT_RELATED_PRODUCT_CATEGORY('part','',(#749));
#792=GENERAL_PROPERTY('user defined attribute','','');
#793=GENERAL_PROPERTY_ASSOCIATION('user defined attribute','',#792,#791);
#794=DESCRIPTIVE_REPRESENTATION_ITEM('PART_NO','710025');
#798=GENERAL_PROPERTY('user defined attribute','','');
#799=GENERAL_PROPERTY_ASSOCIATION('user defined attribute','',#798,#797);
#800=DESCRIPTIVE_REPRESENTATION_ITEM('DWG_TITLE','XCT');
#804=GENERAL_PROPERTY('user defined attribute','','');
#805=GENERAL_PROPERTY_ASSOCIATION('user defined attribute','',#804,#803);
#806=DESCRIPTIVE_REPRESENTATION_ITEM('DWG_TITLE_2','50-');
#810=GENERAL_PROPERTY('user defined attribute','','');
#811=GENERAL_PROPERTY_ASSOCIATION('user defined attribute','',#810,#809);
#812=DESCRIPTIVE_REPRESENTATION_ITEM('DESC','XCT 50-');
#816=GENERAL_PROPERTY('user defined attribute','','');
#817=GENERAL_PROPERTY_ASSOCIATION('user defined attribute','',#816,#815);
#818=VALUE_REPRESENTATION_ITEM('SORT',NUMERIC_MEASURE(0.E0));
#822=GENERAL_PROPERTY('user defined attribute','','');
#823=GENERAL_PROPERTY_ASSOCIATION('user defined attribute','',#822,#821);
#824=DESCRIPTIVE_REPRESENTATION_ITEM('TIR','1');
#828=GENERAL_PROPERTY('user defined attribute','','');
#829=GENERAL_PROPERTY_ASSOCIATION('user defined attribute','',#828,#827);
#830=DESCRIPTIVE_REPRESENTATION_ITEM('DOC_STATUS','Active');
#834=GENERAL_PROPERTY('user defined attribute','','');
#835=GENERAL_PROPERTY_ASSOCIATION('user defined attribute','',#834,#833);
#836=DESCRIPTIVE_REPRESENTATION_ITEM('PROI_CREATED_BY','US011758');
#840=GENERAL_PROPERTY('user defined attribute','','');
#841=GENERAL_PROPERTY_ASSOCIATION('user defined attribute','',#840,#839);
#842=DESCRIPTIVE_REPRESENTATION_ITEM('PROI_CREATED_ON',
'10/29/2010 11:37:41 AM');
#846=GENERAL_PROPERTY('user defined attribute','','');
#847=GENERAL_PROPERTY_ASSOCIATION('user defined attribute','',#846,#845);
#848=DESCRIPTIVE_REPRESENTATION_ITEM('PROI_LOCATION',
'Root Folder/EMCS MOD SVCS/GPL-824');
#852=GENERAL_PROPERTY('user defined attribute','','');
#853=GENERAL_PROPERTY_ASSOCIATION('user defined attribute','',#852,#851);
#854=DESCRIPTIVE_REPRESENTATION_ITEM('PTC_COMMON_NAME','');
#858=GENERAL_PROPERTY('user defined attribute','','');
#859=GENERAL_PROPERTY_ASSOCIATION('user defined attribute','',#858,#857);
#860=DESCRIPTIVE_REPRESENTATION_ITEM('DWG_SIZE_P','');
#864=GENERAL_PROPERTY('user defined attribute','','');
#865=GENERAL_PROPERTY_ASSOCIATION('user defined attribute','',#864,#863);
#866=DESCRIPTIVE_REPRESENTATION_ITEM('AMPTYPE','F');
#870=GENERAL_PROPERTY('user defined attribute','','');
#871=GENERAL_PROPERTY_ASSOCIATION('user defined attribute','',#870,#869);
#873=GENERAL_PROPERTY('user defined attribute','','');
#874=GENERAL_PROPERTY_ASSOCIATION('user defined attribute','',#873,#872);
#875=DESCRIPTIVE_REPRESENTATION_ITEM('MOD_NUM','MOD37149');
#879=GENERAL_PROPERTY('user defined attribute','','');
#880=GENERAL_PROPERTY_ASSOCIATION('user defined attribute','',#879,#878);
#881=DESCRIPTIVE_REPRESENTATION_ITEM('PART_REV','G');
#885=GENERAL_PROPERTY('user defined attribute','','');
#886=GENERAL_PROPERTY_ASSOCIATION('user defined attribute','',#885,#884);
#888=GENERAL_PROPERTY('user defined attribute','','');
#889=GENERAL_PROPERTY_ASSOCIATION('user defined attribute','',#888,#887);
#890=DESCRIPTIVE_REPRESENTATION_ITEM('PDMREV','1.1+');
#894=GENERAL_PROPERTY('user defined attribute','','');
#895=GENERAL_PROPERTY_ASSOCIATION('user defined attribute','',#894,#893);
#896=DESCRIPTIVE_REPRESENTATION_ITEM('PDMDB','');
#900=GENERAL_PROPERTY('user defined attribute','','');
#901=GENERAL_PROPERTY_ASSOCIATION('user defined attribute','',#900,#899);
#902=DESCRIPTIVE_REPRESENTATION_ITEM('PDMRL','Complete');
#906=GENERAL_PROPERTY('user defined attribute','','');
#907=GENERAL_PROPERTY_ASSOCIATION('user defined attribute','',#906,#905);
#908=DESCRIPTIVE_REPRESENTATION_ITEM('PROI_REVISION','1');
#912=GENERAL_PROPERTY('user defined attribute','','');
#913=GENERAL_PROPERTY_ASSOCIATION('user defined attribute','',#912,#911);
#914=DESCRIPTIVE_REPRESENTATION_ITEM('PROI_VERSION','1+');
#918=GENERAL_PROPERTY('user defined attribute','','');
#919=GENERAL_PROPERTY_ASSOCIATION('user defined attribute','',#918,#917);
#920=DESCRIPTIVE_REPRESENTATION_ITEM('PROI_BRANCH','main');
#924=GENERAL_PROPERTY('user defined attribute','','');
#925=GENERAL_PROPERTY_ASSOCIATION('user defined attribute','',#924,#923);
#926=DESCRIPTIVE_REPRESENTATION_ITEM('PROI_RELEASE','Complete');
#930=GENERAL_PROPERTY('user defined attribute','','');
#931=GENERAL_PROPERTY_ASSOCIATION('user defined attribute','',#930,#929);
#932=DESCRIPTIVE_REPRESENTATION_ITEM('DOC_LANGUAGE','English');
#936=GENERAL_PROPERTY('user defined attribute','','');
#937=GENERAL_PROPERTY_ASSOCIATION('user defined attribute','',#936,#935);
#938=DESCRIPTIVE_REPRESENTATION_ITEM('REASON_DOC_CHANGE','Not Specified');
#942=GENERAL_PROPERTY('user defined attribute','','');
#943=GENERAL_PROPERTY_ASSOCIATION('user defined attribute','',#942,#941);
#944=DESCRIPTIVE_REPRESENTATION_ITEM('SEND_WEIGHT','NO');
#76=CIRCLE('',#75,5.15E0);
#81=CIRCLE('',#80,5.15E0);
#86=CIRCLE('',#85,1.35E1);
#107=CIRCLE('',#106,5.15E0);
#112=CIRCLE('',#111,5.15E0);
#117=CIRCLE('',#116,1.35E1);
#146=CIRCLE('',#145,6.25E0);
#151=CIRCLE('',#150,6.25E0);
#156=CIRCLE('',#155,6.25E0);
#165=CIRCLE('',#164,6.25E0);
#174=CIRCLE('',#173,6.25E0);
#187=CIRCLE('',#186,6.25E0);
#192=CIRCLE('',#191,6.25E0);
#197=CIRCLE('',#196,6.25E0);
#202=CIRCLE('',#201,6.25E0);
#207=CIRCLE('',#206,6.25E0);
#220=CIRCLE('',#219,4.6E0);
#225=CIRCLE('',#224,4.6E0);
#230=CIRCLE('',#229,4.6E0);
#239=CIRCLE('',#238,4.6E0);
#319=EDGE_CURVE('',#266,#299,#247,.T.);
#321=EDGE_CURVE('',#266,#267,#86,.T.);
#323=EDGE_CURVE('',#305,#267,#133,.T.);
#325=EDGE_CURVE('',#303,#305,#90,.T.);
#327=EDGE_CURVE('',#299,#303,#94,.T.);
#331=EDGE_CURVE('',#262,#263,#76,.T.);
#333=EDGE_CURVE('',#263,#262,#81,.T.);
#344=EDGE_CURVE('',#262,#270,#98,.T.);
#346=EDGE_CURVE('',#270,#271,#107,.T.);
#348=EDGE_CURVE('',#263,#271,#102,.T.);
#360=EDGE_CURVE('',#271,#270,#112,.T.);
#371=EDGE_CURVE('',#275,#301,#125,.T.);
#373=EDGE_CURVE('',#274,#275,#117,.T.);
#375=EDGE_CURVE('',#297,#274,#255,.T.);
#377=EDGE_CURVE('',#297,#301,#121,.T.);
#392=EDGE_CURVE('',#305,#301,#129,.T.);
#395=EDGE_CURVE('',#267,#275,#137,.T.);
#437=EDGE_CURVE('',#286,#287,#146,.T.);
#439=EDGE_CURVE('',#286,#305,#141,.T.);
#442=EDGE_CURVE('',#289,#301,#178,.T.);
#444=EDGE_CURVE('',#287,#289,#151,.T.);
#456=EDGE_CURVE('',#289,#291,#156,.T.);
#458=EDGE_CURVE('',#293,#291,#160,.T.);
#460=EDGE_CURVE('',#293,#295,#165,.T.);
#462=EDGE_CURVE('',#295,#283,#169,.T.);
#464=EDGE_CURVE('',#283,#286,#174,.T.);
#509=EDGE_CURVE('',#278,#297,#182,.T.);
#511=EDGE_CURVE('',#291,#278,#207,.T.);
#553=EDGE_CURVE('',#278,#279,#187,.T.);
#556=EDGE_CURVE('',#299,#297,#251,.T.);
#558=EDGE_CURVE('',#281,#299,#211,.T.);
#560=EDGE_CURVE('',#279,#281,#192,.T.);
#572=EDGE_CURVE('',#281,#283,#197,.T.);
#575=EDGE_CURVE('',#293,#295,#202,.T.);
#614=EDGE_CURVE('',#283,#303,#215,.T.);
#664=EDGE_CURVE('',#309,#313,#220,.T.);
#666=EDGE_CURVE('',#309,#313,#225,.T.);
#676=EDGE_CURVE('',#308,#309,#234,.T.);
#679=EDGE_CURVE('',#312,#313,#243,.T.);
#681=EDGE_CURVE('',#308,#312,#230,.T.);
#692=EDGE_CURVE('',#308,#312,#239,.T.);
#717=EDGE_CURVE('',#266,#274,#259,.T.);
#744=ADVANCED_BREP_SHAPE_REPRESENTATION('',(#735),#743);
#751=PRODUCT_DEFINITION('part definition','',#750,#747);
#752=PRODUCT_DEFINITION_SHAPE('','SHAPE FOR C-710025-5.',#751);
#753=SHAPE_ASPECT('','solid data associated with C-710025-5',#752,.F.);
#754=PROPERTY_DEFINITION('',
'shape for solid data with which properties are associated',#753);
#755=SHAPE_REPRESENTATION('',(#735),#743);
#756=SHAPE_DEFINITION_REPRESENTATION(#754,#755);
#760=PROPERTY_DEFINITION('geometric_validation_property','area of C-710025-5',
#753);
#761=REPRESENTATION('surface area',(#759),#743);
#762=PROPERTY_DEFINITION_REPRESENTATION(#760,#761);
#766=PROPERTY_DEFINITION('geometric_validation_property','volume of C-710025-5',
#753);
#767=REPRESENTATION('volume',(#765),#743);
#768=PROPERTY_DEFINITION_REPRESENTATION(#766,#767);
#770=PROPERTY_DEFINITION('geometric_validation_property',
'centroid of C-710025-5',#753);
#771=REPRESENTATION('centroid',(#769),#743);
#772=PROPERTY_DEFINITION_REPRESENTATION(#770,#771);
#776=PROPERTY_DEFINITION('geometric_validation_property','area of C-710025-5',
#752);
#777=REPRESENTATION('surface area',(#775),#743);
#778=PROPERTY_DEFINITION_REPRESENTATION(#776,#777);
#782=PROPERTY_DEFINITION('geometric_validation_property','volume of C-710025-5',
#752);
#783=REPRESENTATION('volume',(#781),#743);
#784=PROPERTY_DEFINITION_REPRESENTATION(#782,#783);
#786=PROPERTY_DEFINITION('geometric_validation_property',
'centroid of C-710025-5',#752);
#787=REPRESENTATION('centroid',(#785),#743);
#788=PROPERTY_DEFINITION_REPRESENTATION(#786,#787);
#789=SHAPE_DEFINITION_REPRESENTATION(#752,#744);
#791=PROPERTY_DEFINITION('user defined attribute','',#751);
#795=REPRESENTATION('',(#794),#743);
#796=PROPERTY_DEFINITION_REPRESENTATION(#791,#795);
#797=PROPERTY_DEFINITION('user defined attribute','',#751);
#801=REPRESENTATION('',(#800),#743);
#802=PROPERTY_DEFINITION_REPRESENTATION(#797,#801);
#803=PROPERTY_DEFINITION('user defined attribute','',#751);
#807=REPRESENTATION('',(#806),#743);
#808=PROPERTY_DEFINITION_REPRESENTATION(#803,#807);
#809=PROPERTY_DEFINITION('user defined attribute','',#751);
#813=REPRESENTATION('',(#812),#743);
#814=PROPERTY_DEFINITION_REPRESENTATION(#809,#813);
#815=PROPERTY_DEFINITION('user defined attribute','',#751);
#819=REPRESENTATION('',(#818),#743);
#820=PROPERTY_DEFINITION_REPRESENTATION(#815,#819);
#821=PROPERTY_DEFINITION('user defined attribute','',#751);
#825=REPRESENTATION('',(#824),#743);
#826=PROPERTY_DEFINITION_REPRESENTATION(#821,#825);
#827=PROPERTY_DEFINITION('user defined attribute','',#751);
#831=REPRESENTATION('',(#830),#743);
#832=PROPERTY_DEFINITION_REPRESENTATION(#827,#831);
#833=PROPERTY_DEFINITION('user defined attribute','',#751);
#837=REPRESENTATION('',(#836),#743);
#838=PROPERTY_DEFINITION_REPRESENTATION(#833,#837);
#839=PROPERTY_DEFINITION('user defined attribute','',#751);
#843=REPRESENTATION('',(#842),#743);
#844=PROPERTY_DEFINITION_REPRESENTATION(#839,#843);
#845=PROPERTY_DEFINITION('user defined attribute','',#751);
#849=REPRESENTATION('',(#848),#743);
#850=PROPERTY_DEFINITION_REPRESENTATION(#845,#849);
#851=PROPERTY_DEFINITION('user defined attribute','',#751);
#855=REPRESENTATION('',(#854),#743);
#856=PROPERTY_DEFINITION_REPRESENTATION(#851,#855);
#857=PROPERTY_DEFINITION('user defined attribute','',#751);
#861=REPRESENTATION('',(#860),#743);
#862=PROPERTY_DEFINITION_REPRESENTATION(#857,#861);
#863=PROPERTY_DEFINITION('user defined attribute','',#751);
#867=REPRESENTATION('',(#866),#743);
#868=PROPERTY_DEFINITION_REPRESENTATION(#863,#867);
#869=PROPERTY_DEFINITION('user defined attribute','',#751);
#872=PROPERTY_DEFINITION('user defined attribute','',#751);
#876=REPRESENTATION('',(#875),#743);
#877=PROPERTY_DEFINITION_REPRESENTATION(#872,#876);
#878=PROPERTY_DEFINITION('user defined attribute','',#751);
#882=REPRESENTATION('',(#881),#743);
#883=PROPERTY_DEFINITION_REPRESENTATION(#878,#882);
#884=PROPERTY_DEFINITION('user defined attribute','',#751);
#887=PROPERTY_DEFINITION('user defined attribute','',#751);
#891=REPRESENTATION('',(#890),#743);
#892=PROPERTY_DEFINITION_REPRESENTATION(#887,#891);
#893=PROPERTY_DEFINITION('user defined attribute','',#751);
#897=REPRESENTATION('',(#896),#743);
#898=PROPERTY_DEFINITION_REPRESENTATION(#893,#897);
#899=PROPERTY_DEFINITION('user defined attribute','',#751);
#903=REPRESENTATION('',(#902),#743);
#904=PROPERTY_DEFINITION_REPRESENTATION(#899,#903);
#905=PROPERTY_DEFINITION('user defined attribute','',#751);
#909=REPRESENTATION('',(#908),#743);
#910=PROPERTY_DEFINITION_REPRESENTATION(#905,#909);
#911=PROPERTY_DEFINITION('user defined attribute','',#751);
#915=REPRESENTATION('',(#914),#743);
#916=PROPERTY_DEFINITION_REPRESENTATION(#911,#915);
#917=PROPERTY_DEFINITION('user defined attribute','',#751);
#921=REPRESENTATION('',(#920),#743);
#922=PROPERTY_DEFINITION_REPRESENTATION(#917,#921);
#923=PROPERTY_DEFINITION('user defined attribute','',#751);
#927=REPRESENTATION('',(#926),#743);
#928=PROPERTY_DEFINITION_REPRESENTATION(#923,#927);
#929=PROPERTY_DEFINITION('user defined attribute','',#751);
#933=REPRESENTATION('',(#932),#743);
#934=PROPERTY_DEFINITION_REPRESENTATION(#929,#933);
#935=PROPERTY_DEFINITION('user defined attribute','',#751);
#939=REPRESENTATION('',(#938),#743);
#940=PROPERTY_DEFINITION_REPRESENTATION(#935,#939);
#941=PROPERTY_DEFINITION('user defined attribute','',#751);
#945=REPRESENTATION('',(#944),#743);
#946=PROPERTY_DEFINITION_REPRESENTATION(#941,#945);
#947=DERIVED_UNIT((#758));
#948=DERIVED_UNIT((#764));
#949=DERIVED_UNIT((#774));
#950=DERIVED_UNIT((#780));
ENDSEC;
END-ISO-10303-21;
