ISO-10303-21;
HEADER;
FILE_DESCRIPTION (( 'STEP AP214' ),
    '1' );
FILE_NAME ('EPL2014.STEP',
    '2017-12-14T20:15:03',
    ( '' ),
    ( '' ),
    'SwSTEP 2.0',
    'SolidWorks 2017',
    '' );
FILE_SCHEMA (( 'AUTOMOTIVE_DESIGN' ));
ENDSEC;

DATA;
#1 = PRESENTATION_STYLE_ASSIGNMENT (( #696 ) ) ;
#2 = PRESENTATION_LAYER_ASSIGNMENT (  '', '', ( #962 ) ) ;
#3 = FACE_OUTER_BOUND ( 'NONE', #1005, .T. ) ;
#4 = AXIS2_PLACEMENT_3D ( 'NONE', #697, #202, #768 ) ;
#5 = ORIENTED_EDGE ( 'NONE', *, *, #79, .F. ) ;
#6 = EDGE_CURVE ( 'NONE', #247, #441, #659, .T. ) ;
#7 = ORIENTED_EDGE ( 'NONE', *, *, #301, .T. ) ;
#8 = EDGE_LOOP ( 'NONE', ( #554, #493 ) ) ;
#9 = LINE ( 'NONE', #347, #657 ) ;
#10 = ORIENTED_EDGE ( 'NONE', *, *, #997, .F. ) ;
#11 =( NAMED_UNIT ( * ) SI_UNIT ( $, .STERADIAN. ) SOLID_ANGLE_UNIT ( ) );
#12 = LINE ( 'NONE', #460, #192 ) ;
#13 = CIRCLE ( 'NONE', #110, 0.1499999999999998300 ) ;
#14 =( GEOMETRIC_REPRESENTATION_CONTEXT ( 3 ) GLOBAL_UNCERTAINTY_ASSIGNED_CONTEXT ( ( #880 ) ) GLOBAL_UNIT_ASSIGNED_CONTEXT ( ( #274, #604, #756 ) ) REPRESENTATION_CONTEXT ( 'NONE', 'WORKASPACE' ) );
#15 = PRODUCT ( 'EPL2014', 'EPL2014', '', ( #502 ) ) ;
#16 = LINE ( 'NONE', #900, #426 ) ;
#17 = APPLICATION_PROTOCOL_DEFINITION ( 'draft international standard', 'automotive_design', 1998, #88 ) ;
#18 = MECHANICAL_DESIGN_GEOMETRIC_PRESENTATION_REPRESENTATION (  '', ( #942 ), #72 ) ;
#19 =( NAMED_UNIT ( * ) PLANE_ANGLE_UNIT ( ) SI_UNIT ( $, .RADIAN. ) );
#20 = APPLICATION_CONTEXT ( 'automotive_design' ) ;
#21 = CARTESIAN_POINT ( 'NONE',  ( 0.6493648842369652600, 1.450000000000000000, -0.6493648842369654800 ) ) ;
#22 = CARTESIAN_POINT ( 'NONE',  ( -0.8999999999999998000, 0.0000000000000000000, 0.8249999999999999600 ) ) ;
#23 = PRESENTATION_LAYER_ASSIGNMENT (  '', '', ( #74 ) ) ;
#24 = VECTOR ( 'NONE', #573, 1000.000000000000000 ) ;
#25 = COLOUR_RGB ( '',1.000000000000000000, 1.000000000000000000, 1.000000000000000000 ) ;
#26 = PLANE ( 'NONE',  #236 ) ;
#27 = CARTESIAN_POINT ( 'NONE',  ( 1.100000000000001400, 0.05000000000000000300, 1.100000000000001200 ) ) ;
#28 =( GEOMETRIC_REPRESENTATION_CONTEXT ( 3 ) GLOBAL_UNCERTAINTY_ASSIGNED_CONTEXT ( ( #427 ) ) GLOBAL_UNIT_ASSIGNED_CONTEXT ( ( #383, #291, #550 ) ) REPRESENTATION_CONTEXT ( 'NONE', 'WORKASPACE' ) );
#29 = EDGE_CURVE ( 'NONE', #570, #704, #13, .T. ) ;
#30 = EDGE_LOOP ( 'NONE', ( #10, #292, #447, #820 ) ) ;
#31 = FACE_BOUND ( 'NONE', #584, .T. ) ;
#32 = SURFACE_SIDE_STYLE ('',( #540 ) ) ;
#33 = CARTESIAN_POINT ( 'NONE',  ( 0.6493648842369652600, 1.449000000000000100, 0.6493648842369654800 ) ) ;
#34 = EDGE_CURVE ( 'NONE', #86, #247, #229, .T. ) ;
#35 = PRODUCT_DEFINITION ( 'UNKNOWN', '', #81, #901 ) ;
#36 = CARTESIAN_POINT ( 'NONE',  ( -0.6493648842369649200, 1.450000000000000000, 0.1499999999999998300 ) ) ;
#37 = CARTESIAN_POINT ( 'NONE',  ( 0.4499999999999999600, 0.0000000000000000000, -0.8250000000000000700 ) ) ;
#38 = VERTEX_POINT ( 'NONE', #307 ) ;
#39 = FILL_AREA_STYLE ('',( #443 ) ) ;
#40 = CARTESIAN_POINT ( 'NONE',  ( 0.6493648842369652600, 1.449000000000000100, 0.4993648842369655100 ) ) ;
#41 = ORIENTED_EDGE ( 'NONE', *, *, #243, .T. ) ;
#42 = CARTESIAN_POINT ( 'NONE',  ( -0.6493648842369649200, 1.449000000000000100, 0.1499999999999998300 ) ) ;
#43 = ORIENTED_EDGE ( 'NONE', *, *, #730, .T. ) ;
#44 = UNCERTAINTY_MEASURE_WITH_UNIT (LENGTH_MEASURE( 1.000000000000000100E-005 ), #543, 'distance_accuracy_value', 'NONE');
#45 = CARTESIAN_POINT ( 'NONE',  ( -0.4499999999999998400, 0.05000000000000000300, -0.8249999999999999600 ) ) ;
#46 = PRESENTATION_STYLE_ASSIGNMENT (( #555 ) ) ;
#47 =( NAMED_UNIT ( * ) PLANE_ANGLE_UNIT ( ) SI_UNIT ( $, .RADIAN. ) );
#48 = SURFACE_SIDE_STYLE ('',( #828 ) ) ;
#49 = CARTESIAN_POINT ( 'NONE',  ( -0.4499999999999998400, -0.0000000000000000000, -0.8249999999999999600 ) ) ;
#50 =( NAMED_UNIT ( * ) PLANE_ANGLE_UNIT ( ) SI_UNIT ( $, .RADIAN. ) );
#51 = MECHANICAL_DESIGN_GEOMETRIC_PRESENTATION_REPRESENTATION (  '', ( #962 ), #91 ) ;
#52 = ADVANCED_FACE ( 'NONE', ( #424, #830, #193, #861 ), #234, .T. ) ;
#53 = DIRECTION ( 'NONE',  ( -0.0000000000000000000, 1.000000000000000000, -0.0000000000000000000 ) ) ;
#54 = ORIENTED_EDGE ( 'NONE', *, *, #64, .T. ) ;
#55 = DIRECTION ( 'NONE',  ( 0.0000000000000000000, 0.03489949670250105200, 0.9993908270190957600 ) ) ;
#56 = SURFACE_STYLE_USAGE ( .BOTH. , #208 ) ;
#57 =( LENGTH_UNIT ( ) NAMED_UNIT ( * ) SI_UNIT ( .MILLI., .METRE. ) );
#58 = CARTESIAN_POINT ( 'NONE',  ( -1.049364884236964500, 1.450000000000000000, 1.049364884236966700 ) ) ;
#59 = PRESENTATION_LAYER_ASSIGNMENT (  '', '', ( #972 ) ) ;
#60 = ORIENTED_EDGE ( 'NONE', *, *, #303, .F. ) ;
#61 = CARTESIAN_POINT ( 'NONE',  ( -0.6493648842369649200, 1.449000000000000100, -8.027589719052687700E-020 ) ) ;
#62 = CARTESIAN_POINT ( 'NONE',  ( -0.8999999999999998000, 0.05000000000000000300, 0.8249999999999999600 ) ) ;
#63 = VECTOR ( 'NONE', #682, 1000.000000000000000 ) ;
#64 = EDGE_CURVE ( 'NONE', #888, #518, #92, .T. ) ;
#65 = ORIENTED_EDGE ( 'NONE', *, *, #873, .F. ) ;
#66 = PRESENTATION_STYLE_ASSIGNMENT (( #739 ) ) ;
#67 = ORIENTED_EDGE ( 'NONE', *, *, #475, .T. ) ;
#68 = ORIENTED_EDGE ( 'NONE', *, *, #353, .T. ) ;
#69 = EDGE_CURVE ( 'NONE', #576, #954, #719, .T. ) ;
#70 =( LENGTH_UNIT ( ) NAMED_UNIT ( * ) SI_UNIT ( .MILLI., .METRE. ) );
#71 = SURFACE_STYLE_USAGE ( .BOTH. , #644 ) ;
#72 =( GEOMETRIC_REPRESENTATION_CONTEXT ( 3 ) GLOBAL_UNCERTAINTY_ASSIGNED_CONTEXT ( ( #647 ) ) GLOBAL_UNIT_ASSIGNED_CONTEXT ( ( #102, #673, #175 ) ) REPRESENTATION_CONTEXT ( 'NONE', 'WORKASPACE' ) );
#73 = VECTOR ( 'NONE', #775, 1000.000000000000000 ) ;
#74 = STYLED_ITEM ( 'NONE', ( #558 ), #886 ) ;
#75 = DIRECTION ( 'NONE',  ( 0.03487826274237469000, -0.9987827659587182900, -0.03487826274237469700 ) ) ;
#76 = ORIENTED_EDGE ( 'NONE', *, *, #300, .F. ) ;
#77 = ORIENTED_EDGE ( 'NONE', *, *, #144, .T. ) ;
#78 = EDGE_CURVE ( 'NONE', #660, #729, #503, .T. ) ;
#79 = EDGE_CURVE ( 'NONE', #651, #295, #289, .T. ) ;
#80 = EDGE_LOOP ( 'NONE', ( #271, #856, #85, #491 ) ) ;
#81 = PRODUCT_DEFINITION_FORMATION_WITH_SPECIFIED_SOURCE ( 'ANY', '', #15, .NOT_KNOWN. ) ;
#82 = CYLINDRICAL_SURFACE ( 'NONE', #457, 0.1499999999999999700 ) ;
#83 = VECTOR ( 'NONE', #125, 1000.000000000000000 ) ;
#84 = ORIENTED_EDGE ( 'NONE', *, *, #141, .T. ) ;
#85 = ORIENTED_EDGE ( 'NONE', *, *, #931, .T. ) ;
#86 = VERTEX_POINT ( 'NONE', #708 ) ;
#87 = STYLED_ITEM ( 'NONE', ( #215 ), #616 ) ;
#88 = APPLICATION_CONTEXT ( 'automotive_design' ) ;
#89 = PRESENTATION_STYLE_ASSIGNMENT (( #567 ) ) ;
#90 = SURFACE_STYLE_USAGE ( .BOTH. , #664 ) ;
#91 =( GEOMETRIC_REPRESENTATION_CONTEXT ( 3 ) GLOBAL_UNCERTAINTY_ASSIGNED_CONTEXT ( ( #959 ) ) GLOBAL_UNIT_ASSIGNED_CONTEXT ( ( #455, #829, #370 ) ) REPRESENTATION_CONTEXT ( 'NONE', 'WORKASPACE' ) );
#92 = LINE ( 'NONE', #62, #319 ) ;
#93 = ORIENTED_EDGE ( 'NONE', *, *, #29, .T. ) ;
#94 = FILL_AREA_STYLE ('',( #257 ) ) ;
#95 = PLANE ( 'NONE',  #882 ) ;
#96 = VECTOR ( 'NONE', #121, 1000.000000000000000 ) ;
#97 = DIRECTION ( 'NONE',  ( 0.03487826274237470400, -0.9987827659587182900, 0.03487826274237469700 ) ) ;
#98 = VERTEX_POINT ( 'NONE', #855 ) ;
#99 =( NAMED_UNIT ( * ) PLANE_ANGLE_UNIT ( ) SI_UNIT ( $, .RADIAN. ) );
#100 = ORIENTED_EDGE ( 'NONE', *, *, #947, .T. ) ;
#101 = ORIENTED_EDGE ( 'NONE', *, *, #873, .T. ) ;
#102 =( LENGTH_UNIT ( ) NAMED_UNIT ( * ) SI_UNIT ( .MILLI., .METRE. ) );
#103 = DIRECTION ( 'NONE',  ( 0.0000000000000000000, -0.0000000000000000000, 1.000000000000000000 ) ) ;
#104 = MECHANICAL_DESIGN_GEOMETRIC_PRESENTATION_REPRESENTATION (  '', ( #972 ), #159 ) ;
#105 = VECTOR ( 'NONE', #476, 1000.000000000000000 ) ;
#106 = DIRECTION ( 'NONE',  ( -2.409338161078899700E-016, 0.0000000000000000000, -1.000000000000000000 ) ) ;
#107 = FACE_OUTER_BOUND ( 'NONE', #587, .T. ) ;
#108 = DIRECTION ( 'NONE',  ( -0.0000000000000000000, 0.0000000000000000000, 1.000000000000000000 ) ) ;
#109 = FILL_AREA_STYLE ('',( #288 ) ) ;
#110 = AXIS2_PLACEMENT_3D ( 'NONE', #980, #318, #382 ) ;
#111 = ORIENTED_EDGE ( 'NONE', *, *, #517, .T. ) ;
#112 = ORIENTED_EDGE ( 'NONE', *, *, #577, .T. ) ;
#113 = VECTOR ( 'NONE', #668, 1000.000000000000000 ) ;
#114 = VECTOR ( 'NONE', #450, 1000.000000000000000 ) ;
#115 = SURFACE_STYLE_USAGE ( .BOTH. , #602 ) ;
#116 = CARTESIAN_POINT ( 'NONE',  ( -0.8999999999999998000, 0.05000000000000000300, 0.8249999999999999600 ) ) ;
#117 = FILL_AREA_STYLE ('',( #362 ) ) ;
#118 = CARTESIAN_POINT ( 'NONE',  ( -0.8999999999999998000, 0.05000000000000000300, 0.8249999999999999600 ) ) ;
#119 = CARTESIAN_POINT ( 'NONE',  ( -0.8999999999999998000, 0.05000000000000000300, -0.8249999999999999600 ) ) ;
#120 = UNCERTAINTY_MEASURE_WITH_UNIT (LENGTH_MEASURE( 1.000000000000000100E-005 ), #874, 'distance_accuracy_value', 'NONE');
#121 = DIRECTION ( 'NONE',  ( -0.0000000000000000000, -1.000000000000000000, -0.0000000000000000000 ) ) ;
#122 = AXIS2_PLACEMENT_3D ( 'NONE', #21, #505, #966 ) ;
#123 = CARTESIAN_POINT ( 'NONE',  ( 0.8999999999999998000, 0.05000000000000000300, -0.8250000000000001800 ) ) ;
#124 = VECTOR ( 'NONE', #967, 1000.000000000000100 ) ;
#125 = DIRECTION ( 'NONE',  ( -2.956915015869557300E-016, -0.0000000000000000000, -1.000000000000000000 ) ) ;
#126 = ADVANCED_FACE ( 'NONE', ( #487 ), #769, .T. ) ;
#127 = DIRECTION ( 'NONE',  ( -1.000000000000000000, 0.0000000000000000000, -0.0000000000000000000 ) ) ;
#128 = ORIENTED_EDGE ( 'NONE', *, *, #359, .F. ) ;
#129 = CARTESIAN_POINT ( 'NONE',  ( 1.100000000000000800, 0.0000000000000000000, -1.099999999999999400 ) ) ;
#130 = LINE ( 'NONE', #285, #571 ) ;
#131 = CARTESIAN_POINT ( 'NONE',  ( 0.6493648842369652600, 1.449000000000000100, 0.4993648842369655100 ) ) ;
#132 = DIRECTION ( 'NONE',  ( -0.0000000000000000000, 1.000000000000000000, -0.0000000000000000000 ) ) ;
#133 = CARTESIAN_POINT ( 'NONE',  ( -0.6493648842369649200, 1.449000000000000100, -0.1499999999999998300 ) ) ;
#134 = AXIS2_PLACEMENT_3D ( 'NONE', #282, #609, #834 ) ;
#135 = VERTEX_POINT ( 'NONE', #58 ) ;
#136 = STYLED_ITEM ( 'NONE', ( #720 ), #590 ) ;
#137 =( NAMED_UNIT ( * ) SI_UNIT ( $, .STERADIAN. ) SOLID_ANGLE_UNIT ( ) );
#138 = EDGE_CURVE ( 'NONE', #791, #488, #624, .T. ) ;
#139 = FACE_OUTER_BOUND ( 'NONE', #680, .T. ) ;
#140 = LINE ( 'NONE', #606, #748 ) ;
#141 = EDGE_CURVE ( 'NONE', #570, #38, #410, .T. ) ;
#142 =( NAMED_UNIT ( * ) SI_UNIT ( $, .STERADIAN. ) SOLID_ANGLE_UNIT ( ) );
#143 = DIRECTION ( 'NONE',  ( -0.0000000000000000000, 1.000000000000000000, -0.0000000000000000000 ) ) ;
#144 = EDGE_CURVE ( 'NONE', #888, #98, #173, .T. ) ;
#145 = ORIENTED_EDGE ( 'NONE', *, *, #177, .T. ) ;
#146 = PRODUCT_RELATED_PRODUCT_CATEGORY ( 'part', '', ( #15 ) ) ;
#147 = ORIENTED_EDGE ( 'NONE', *, *, #141, .F. ) ;
#148 = DIRECTION ( 'NONE',  ( 1.000000000000000000, 0.0000000000000000000, -0.0000000000000000000 ) ) ;
#149 = COLOUR_RGB ( '',0.8274509803921568100, 0.8392156862745098200, 0.8274509803921568100 ) ;
#150 = FACE_OUTER_BOUND ( 'NONE', #712, .T. ) ;
#151 = AXIS2_PLACEMENT_3D ( 'NONE', #252, #799, #957 ) ;
#152 =( NAMED_UNIT ( * ) SI_UNIT ( $, .STERADIAN. ) SOLID_ANGLE_UNIT ( ) );
#153 = LINE ( 'NONE', #508, #124 ) ;
#154 = UNCERTAINTY_MEASURE_WITH_UNIT (LENGTH_MEASURE( 1.000000000000000100E-005 ), #256, 'distance_accuracy_value', 'NONE');
#155 = UNCERTAINTY_MEASURE_WITH_UNIT (LENGTH_MEASURE( 1.000000000000000100E-005 ), #588, 'distance_accuracy_value', 'NONE');
#157 = VERTEX_POINT ( 'NONE', #479 ) ;
#156 = PRESENTATION_STYLE_ASSIGNMENT (( #171 ) ) ;
#158 = ORIENTED_EDGE ( 'NONE', *, *, #178, .T. ) ;
#159 =( GEOMETRIC_REPRESENTATION_CONTEXT ( 3 ) GLOBAL_UNCERTAINTY_ASSIGNED_CONTEXT ( ( #879 ) ) GLOBAL_UNIT_ASSIGNED_CONTEXT ( ( #384, #918, #466 ) ) REPRESENTATION_CONTEXT ( 'NONE', 'WORKASPACE' ) );
#160 = STYLED_ITEM ( 'NONE', ( #614 ), #52 ) ;
#161 = EDGE_LOOP ( 'NONE', ( #437, #101, #933, #323 ) ) ;
#162 = AXIS2_PLACEMENT_3D ( 'NONE', #223, #711, #148 ) ;
#163 = SURFACE_SIDE_STYLE ('',( #272 ) ) ;
#165 = VERTEX_POINT ( 'NONE', #199 ) ;
#164 = COLOUR_RGB ( '',0.1921568627450980200, 0.2039215686274509800, 0.2039215686274509800 ) ;
#166 = STYLED_ITEM ( 'NONE', ( #211 ), #767 ) ;
#167 = CARTESIAN_POINT ( 'NONE',  ( 0.4499999999999999600, 0.05000000000000000300, 0.8250000000000000700 ) ) ;
#168 = ADVANCED_FACE ( 'NONE', ( #539 ), #399, .T. ) ;
#169 = CARTESIAN_POINT ( 'NONE',  ( 1.049364884236966300, 1.450000000000000000, -1.049364884236964900 ) ) ;
#170 = MECHANICAL_DESIGN_GEOMETRIC_PRESENTATION_REPRESENTATION (  '', ( #74 ), #239 ) ;
#171 = SURFACE_STYLE_USAGE ( .BOTH. , #601 ) ;
#172 = AXIS2_PLACEMENT_3D ( 'NONE', #129, #916, #462 ) ;
#173 = LINE ( 'NONE', #772, #393 ) ;
#174 = EDGE_CURVE ( 'NONE', #928, #660, #237, .T. ) ;
#175 =( NAMED_UNIT ( * ) SI_UNIT ( $, .STERADIAN. ) SOLID_ANGLE_UNIT ( ) );
#176 = DIRECTION ( 'NONE',  ( 0.0000000000000000000, 0.03489949670250105200, -0.9993908270190957600 ) ) ;
#177 = EDGE_CURVE ( 'NONE', #441, #507, #666, .T. ) ;
#178 = EDGE_CURVE ( 'NONE', #751, #847, #843, .T. ) ;
#179 = EDGE_LOOP ( 'NONE', ( #416, #275, #893, #100 ) ) ;
#180 = UNCERTAINTY_MEASURE_WITH_UNIT (LENGTH_MEASURE( 1.000000000000000100E-005 ), #681, 'distance_accuracy_value', 'NONE');
#181 = ORIENTED_EDGE ( 'NONE', *, *, #353, .F. ) ;
#182 =( NAMED_UNIT ( * ) PLANE_ANGLE_UNIT ( ) SI_UNIT ( $, .RADIAN. ) );
#183 = PLANE ( 'NONE',  #723 ) ;
#184 = SURFACE_STYLE_USAGE ( .BOTH. , #608 ) ;
#185 = ORIENTED_EDGE ( 'NONE', *, *, #6, .F. ) ;
#186 = VECTOR ( 'NONE', #683, 1000.000000000000000 ) ;
#187 = EDGE_LOOP ( 'NONE', ( #355, #480 ) ) ;
#188 = PRESENTATION_LAYER_ASSIGNMENT (  '', '', ( #87 ) ) ;
#189 = CARTESIAN_POINT ( 'NONE',  ( 0.8999999999999998000, 0.05000000000000000300, 0.8250000000000001800 ) ) ;
#190 = DIRECTION ( 'NONE',  ( -0.0000000000000000000, 0.0000000000000000000, 1.000000000000000000 ) ) ;
#191 = DIRECTION ( 'NONE',  ( -0.0000000000000000000, -1.000000000000000000, -0.0000000000000000000 ) ) ;
#192 = VECTOR ( 'NONE', #374, 1000.000000000000000 ) ;
#193 = FACE_BOUND ( 'NONE', #1004, .T. ) ;
#194 =( NAMED_UNIT ( * ) PLANE_ANGLE_UNIT ( ) SI_UNIT ( $, .RADIAN. ) );
#195 = FILL_AREA_STYLE ('',( #985 ) ) ;
#196 = LINE ( 'NONE', #381, #643 ) ;
#197 = DIRECTION ( 'NONE',  ( 0.0000000000000000000, 1.000000000000000000, 0.0000000000000000000 ) ) ;
#198 = DIRECTION ( 'NONE',  ( 0.0000000000000000000, 1.000000000000000000, 0.0000000000000000000 ) ) ;
#199 = CARTESIAN_POINT ( 'NONE',  ( 0.4499999999999999000, 0.05000000000000000300, -0.8250000000000001800 ) ) ;
#200 = SURFACE_STYLE_FILL_AREA ( #109 ) ;
#201 = ADVANCED_FACE ( 'NONE', ( #3 ), #312, .T. ) ;
#202 = DIRECTION ( 'NONE',  ( -0.9993908270190957600, 0.03489949670250105200, 1.970075828756706100E-016 ) ) ;
#203 = AXIS2_PLACEMENT_3D ( 'NONE', #279, #975, #367 ) ;
#204 = CARTESIAN_POINT ( 'NONE',  ( -1.098253961525412100, 0.05000000000000001000, -1.098253961525412100 ) ) ;
#205 = ORIENTED_EDGE ( 'NONE', *, *, #520, .F. ) ;
#206 = ADVANCED_FACE ( 'NONE', ( #351 ), #324, .F. ) ;
#207 = FILL_AREA_STYLE_COLOUR ( '', #783 ) ;
#208 = SURFACE_SIDE_STYLE ('',( #943 ) ) ;
#209 = CARTESIAN_POINT ( 'NONE',  ( 0.8999999999999998000, 0.0000000000000000000, 0.8250000000000001800 ) ) ;
#210 = VECTOR ( 'NONE', #895, 1000.000000000000000 ) ;
#211 = PRESENTATION_STYLE_ASSIGNMENT (( #115 ) ) ;
#212 = PLANE ( 'NONE',  #553 ) ;
#213 =( NAMED_UNIT ( * ) SI_UNIT ( $, .STERADIAN. ) SOLID_ANGLE_UNIT ( ) );
#214 = EDGE_LOOP ( 'NONE', ( #481, #676, #54, #971 ) ) ;
#215 = PRESENTATION_STYLE_ASSIGNMENT (( #334 ) ) ;
#216 = EDGE_LOOP ( 'NONE', ( #309, #145, #684, #859 ) ) ;
#217 = CARTESIAN_POINT ( 'NONE',  ( 1.100000000000001600, 0.0000000000000000000, 1.100000000000001200 ) ) ;
#218 = COLOUR_RGB ( '',0.1921568627450980200, 0.2039215686274509800, 0.2039215686274509800 ) ;
#219 = CARTESIAN_POINT ( 'NONE',  ( 0.6493648842369652600, 1.450000000000000000, 0.4993648842369655100 ) ) ;
#220 = DIRECTION ( 'NONE',  ( -1.000000000000000000, -0.0000000000000000000, -2.409338161078899700E-016 ) ) ;
#221 = VERTEX_POINT ( 'NONE', #929 ) ;
#222 = ORIENTED_EDGE ( 'NONE', *, *, #632, .T. ) ;
#223 = CARTESIAN_POINT ( 'NONE',  ( -0.4499999999999998400, 0.05000000000000000300, 0.8249999999999999600 ) ) ;
#224 = PRESENTATION_LAYER_ASSIGNMENT (  '', '', ( #160 ) ) ;
#225 = LINE ( 'NONE', #970, #186 ) ;
#226 = ORIENTED_EDGE ( 'NONE', *, *, #474, .T. ) ;
#227 = DIRECTION ( 'NONE',  ( 0.0000000000000000000, 0.0000000000000000000, 1.000000000000000000 ) ) ;
#228 = UNCERTAINTY_MEASURE_WITH_UNIT (LENGTH_MEASURE( 1.000000000000000100E-005 ), #535, 'distance_accuracy_value', 'NONE');
#229 = LINE ( 'NONE', #530, #641 ) ;
#230 = ORIENTED_EDGE ( 'NONE', *, *, #821, .F. ) ;
#231 = FACE_OUTER_BOUND ( 'NONE', #30, .T. ) ;
#232 = AXIS2_PLACEMENT_3D ( 'NONE', #741, #809, #261 ) ;
#233 = UNCERTAINTY_MEASURE_WITH_UNIT (LENGTH_MEASURE( 1.000000000000000100E-005 ), #617, 'distance_accuracy_value', 'NONE');
#234 = PLANE ( 'NONE',  #494 ) ;
#235 = EDGE_LOOP ( 'NONE', ( #60, #523, #594, #948 ) ) ;
#236 = AXIS2_PLACEMENT_3D ( 'NONE', #815, #356, #891 ) ;
#237 = LINE ( 'NONE', #123, #24 ) ;
#238 = VECTOR ( 'NONE', #108, 1000.000000000000000 ) ;
#239 =( GEOMETRIC_REPRESENTATION_CONTEXT ( 3 ) GLOBAL_UNCERTAINTY_ASSIGNED_CONTEXT ( ( #420 ) ) GLOBAL_UNIT_ASSIGNED_CONTEXT ( ( #449, #979, #528 ) ) REPRESENTATION_CONTEXT ( 'NONE', 'WORKASPACE' ) );
#240 = ORIENTED_EDGE ( 'NONE', *, *, #34, .F. ) ;
#241 = PRESENTATION_LAYER_ASSIGNMENT (  '', '', ( #136 ) ) ;
#242 = COLOUR_RGB ( '',0.1921568627450980200, 0.2039215686274509800, 0.2039215686274509800 ) ;
#243 = EDGE_CURVE ( 'NONE', #478, #488, #557, .T. ) ;
#244 = EDGE_CURVE ( 'NONE', #928, #651, #949, .T. ) ;
#245 = EDGE_CURVE ( 'NONE', #488, #478, #747, .T. ) ;
#246 = ORIENTED_EDGE ( 'NONE', *, *, #138, .F. ) ;
#247 = VERTEX_POINT ( 'NONE', #169 ) ;
#248 = STYLED_ITEM ( 'NONE', ( #260 ), #126 ) ;
#249 = SURFACE_SIDE_STYLE ('',( #436 ) ) ;
#250 = ORIENTED_EDGE ( 'NONE', *, *, #358, .F. ) ;
#251 = ORIENTED_EDGE ( 'NONE', *, *, #412, .T. ) ;
#252 = CARTESIAN_POINT ( 'NONE',  ( -0.4499999999999998400, 0.05000000000000000300, 0.8249999999999999600 ) ) ;
#253 = MECHANICAL_DESIGN_GEOMETRIC_PRESENTATION_REPRESENTATION (  '', ( #87 ), #314 ) ;
#254 = CARTESIAN_POINT ( 'NONE',  ( 0.6493648842369652600, 1.449000000000000100, -0.6493648842369654800 ) ) ;
#255 = SURFACE_STYLE_FILL_AREA ( #471 ) ;
#256 =( LENGTH_UNIT ( ) NAMED_UNIT ( * ) SI_UNIT ( .MILLI., .METRE. ) );
#257 = FILL_AREA_STYLE_COLOUR ( '', #304 ) ;
#258 = AXIS2_PLACEMENT_3D ( 'NONE', #599, #176, #674 ) ;
#259 = ADVANCED_FACE ( 'NONE', ( #725 ), #82, .F. ) ;
#260 = PRESENTATION_STYLE_ASSIGNMENT (( #850 ) ) ;
#261 = DIRECTION ( 'NONE',  ( 0.0000000000000000000, 0.0000000000000000000, 1.000000000000000000 ) ) ;
#262 = ORIENTED_EDGE ( 'NONE', *, *, #64, .F. ) ;
#263 = FILL_AREA_STYLE_COLOUR ( '', #740 ) ;
#264 = PLANE ( 'NONE',  #909 ) ;
#265 = CARTESIAN_POINT ( 'NONE',  ( -0.6493648842369649200, 1.449000000000000100, 0.1499999999999998300 ) ) ;
#266 = CARTESIAN_POINT ( 'NONE',  ( -0.4499999999999998400, 0.0000000000000000000, 0.8249999999999999600 ) ) ;
#267 = AXIS2_PLACEMENT_3D ( 'NONE', #848, #390, #922 ) ;
#268 = DIRECTION ( 'NONE',  ( -0.0000000000000000000, -1.000000000000000000, -0.0000000000000000000 ) ) ;
#269 = COLOUR_RGB ( '',0.8274509803921568100, 0.8392156862745098200, 0.8274509803921568100 ) ;
#270 = PLANE ( 'NONE',  #172 ) ;
#271 = ORIENTED_EDGE ( 'NONE', *, *, #178, .F. ) ;
#272 = SURFACE_STYLE_FILL_AREA ( #662 ) ;
#273 = MECHANICAL_DESIGN_GEOMETRIC_PRESENTATION_REPRESENTATION (  '', ( #160 ), #332 ) ;
#274 =( LENGTH_UNIT ( ) NAMED_UNIT ( * ) SI_UNIT ( .MILLI., .METRE. ) );
#275 = ORIENTED_EDGE ( 'NONE', *, *, #784, .F. ) ;
#276 = ORIENTED_EDGE ( 'NONE', *, *, #474, .F. ) ;
#277 = DIRECTION ( 'NONE',  ( -0.0000000000000000000, -1.000000000000000000, -0.0000000000000000000 ) ) ;
#278 = FILL_AREA_STYLE_COLOUR ( '', #919 ) ;
#279 = CARTESIAN_POINT ( 'NONE',  ( -0.6493648842369649200, 1.450000000000000000, -8.027589719052687700E-020 ) ) ;
#280 = DIRECTION ( 'NONE',  ( -1.000000000000000000, 0.0000000000000000000, 0.0000000000000000000 ) ) ;
#281 = AXIS2_PLACEMENT_3D ( 'NONE', #61, #560, #633 ) ;
#282 = CARTESIAN_POINT ( 'NONE',  ( -0.6493648842369649200, 1.449000000000000100, -8.027589719052687700E-020 ) ) ;
#283 = FILL_AREA_STYLE_COLOUR ( '', #218 ) ;
#284 = DIRECTION ( 'NONE',  ( 0.0000000000000000000, 1.000000000000000000, 0.0000000000000000000 ) ) ;
#285 = CARTESIAN_POINT ( 'NONE',  ( -0.4499999999999998400, 0.0000000000000000000, 0.8249999999999999600 ) ) ;
#286 = PRESENTATION_LAYER_ASSIGNMENT (  '', '', ( #166 ) ) ;
#287 = CARTESIAN_POINT ( 'NONE',  ( -0.4499999999999998400, 0.05000000000000000300, -0.8249999999999999600 ) ) ;
#288 = FILL_AREA_STYLE_COLOUR ( '', #164 ) ;
#289 = LINE ( 'NONE', #695, #700 ) ;
#290 = ADVANCED_FACE ( 'NONE', ( #139 ), #345, .F. ) ;
#291 =( NAMED_UNIT ( * ) PLANE_ANGLE_UNIT ( ) SI_UNIT ( $, .RADIAN. ) );
#292 = ORIENTED_EDGE ( 'NONE', *, *, #138, .T. ) ;
#293 = SURFACE_SIDE_STYLE ('',( #565 ) ) ;
#294 = DIRECTION ( 'NONE',  ( 0.0000000000000000000, -0.0000000000000000000, 1.000000000000000000 ) ) ;
#295 = VERTEX_POINT ( 'NONE', #167 ) ;
#296 = SURFACE_STYLE_FILL_AREA ( #903 ) ;
#297 = MECHANICAL_DESIGN_GEOMETRIC_PRESENTATION_REPRESENTATION (  '', ( #136 ), #1006 ) ;
#298 = FILL_AREA_STYLE ('',( #627 ) ) ;
#299 =( LENGTH_UNIT ( ) NAMED_UNIT ( * ) SI_UNIT ( .MILLI., .METRE. ) );
#300 = EDGE_CURVE ( 'NONE', #923, #660, #445, .T. ) ;
#301 = EDGE_CURVE ( 'NONE', #562, #507, #9, .T. ) ;
#302 = DIRECTION ( 'NONE',  ( 0.0000000000000000000, 0.0000000000000000000, -1.000000000000000000 ) ) ;
#303 = EDGE_CURVE ( 'NONE', #872, #221, #225, .T. ) ;
#304 = COLOUR_RGB ( '',1.000000000000000000, 1.000000000000000000, 1.000000000000000000 ) ;
#305 = LINE ( 'NONE', #40, #63 ) ;
#306 = EDGE_LOOP ( 'NONE', ( #998, #656, #67, #226 ) ) ;
#307 = CARTESIAN_POINT ( 'NONE',  ( -0.6493648842369649200, 1.450000000000000000, -0.1499999999999998300 ) ) ;
#308 = VERTEX_POINT ( 'NONE', #219 ) ;
#309 = ORIENTED_EDGE ( 'NONE', *, *, #6, .T. ) ;
#310 = PRESENTATION_LAYER_ASSIGNMENT (  '', '', ( #248 ) ) ;
#311 = PRESENTATION_STYLE_ASSIGNMENT (( #56 ) ) ;
#312 = PLANE ( 'NONE',  #162 ) ;
#313 = CARTESIAN_POINT ( 'NONE',  ( 0.4499999999999999600, 0.0000000000000000000, 0.8250000000000000700 ) ) ;
#314 =( GEOMETRIC_REPRESENTATION_CONTEXT ( 3 ) GLOBAL_UNCERTAINTY_ASSIGNED_CONTEXT ( ( #120 ) ) GLOBAL_UNIT_ASSIGNED_CONTEXT ( ( #874, #796, #11 ) ) REPRESENTATION_CONTEXT ( 'NONE', 'WORKASPACE' ) );
#315 =( NAMED_UNIT ( * ) PLANE_ANGLE_UNIT ( ) SI_UNIT ( $, .RADIAN. ) );
#316 = SURFACE_STYLE_FILL_AREA ( #714 ) ;
#317 = PRESENTATION_STYLE_ASSIGNMENT (( #596 ) ) ;
#318 = DIRECTION ( 'NONE',  ( 0.0000000000000000000, 1.000000000000000000, 0.0000000000000000000 ) ) ;
#319 = VECTOR ( 'NONE', #561, 1000.000000000000000 ) ;
#320 = STYLED_ITEM ( 'NONE', ( #311 ), #461 ) ;
#321 = CLOSED_SHELL ( 'NONE', ( #620, #506, #837, #542, #378, #915, #965, #52, #616, #201, #590, #342, #886, #699, #126, #665, #168, #992, #907, #206, #461, #259, #767, #808, #290 ) ) ;
#322 = LINE ( 'NONE', #45, #96 ) ;
#323 = ORIENTED_EDGE ( 'NONE', *, *, #477, .F. ) ;
#324 = CYLINDRICAL_SURFACE ( 'NONE', #281, 0.1499999999999998300 ) ;
#325 = VECTOR ( 'NONE', #277, 1000.000000000000000 ) ;
#326 = CARTESIAN_POINT ( 'NONE',  ( 0.6493648842369652600, 1.449000000000000100, 0.6493648842369654800 ) ) ;
#327 = AXIS2_PLACEMENT_3D ( 'NONE', #551, #55, #622 ) ;
#328 = EDGE_LOOP ( 'NONE', ( #732, #354, #512, #788 ) ) ;
#329 = ORIENTED_EDGE ( 'NONE', *, *, #29, .F. ) ;
#330 = FACE_OUTER_BOUND ( 'NONE', #495, .T. ) ;
#331 = LINE ( 'NONE', #357, #114 ) ;
#332 =( GEOMETRIC_REPRESENTATION_CONTEXT ( 3 ) GLOBAL_UNCERTAINTY_ASSIGNED_CONTEXT ( ( #716 ) ) GLOBAL_UNIT_ASSIGNED_CONTEXT ( ( #786, #315, #401 ) ) REPRESENTATION_CONTEXT ( 'NONE', 'WORKASPACE' ) );
#333 = PRESENTATION_STYLE_ASSIGNMENT (( #845 ) ) ;
#334 = SURFACE_STYLE_USAGE ( .BOTH. , #249 ) ;
#335 =( NAMED_UNIT ( * ) SI_UNIT ( $, .STERADIAN. ) SOLID_ANGLE_UNIT ( ) );
#336 = DIRECTION ( 'NONE',  ( 0.0000000000000000000, 0.0000000000000000000, 1.000000000000000000 ) ) ;
#337 = ADVANCED_BREP_SHAPE_REPRESENTATION ( 'EPL2014', ( #534, #1003 ), #595 ) ;
#338 = UNCERTAINTY_MEASURE_WITH_UNIT (LENGTH_MEASURE( 1.000000000000000100E-005 ), #70, 'distance_accuracy_value', 'NONE');
#339 = PRESENTATION_LAYER_ASSIGNMENT (  '', '', ( #404 ) ) ;
#340 = LINE ( 'NONE', #600, #465 ) ;
#341 =( NAMED_UNIT ( * ) SI_UNIT ( $, .STERADIAN. ) SOLID_ANGLE_UNIT ( ) );
#342 = ADVANCED_FACE ( 'NONE', ( #1007 ), #264, .T. ) ;
#343 = MECHANICAL_DESIGN_GEOMETRIC_PRESENTATION_REPRESENTATION (  '', ( #166 ), #407 ) ;
#344 = EDGE_LOOP ( 'NONE', ( #703, #230 ) ) ;
#345 = PLANE ( 'NONE',  #718 ) ;
#346 = LINE ( 'NONE', #377, #549 ) ;
#347 = CARTESIAN_POINT ( 'NONE',  ( -1.099999999999999400, 0.0000000000000000000, -1.099999999999999400 ) ) ;
#348 = STYLED_ITEM ( 'NONE', ( #721 ), #907 ) ;
#349 = FILL_AREA_STYLE ('',( #263 ) ) ;
#350 =( NAMED_UNIT ( * ) SI_UNIT ( $, .STERADIAN. ) SOLID_ANGLE_UNIT ( ) );
#351 = FACE_OUTER_BOUND ( 'NONE', #713, .T. ) ;
#352 = LINE ( 'NONE', #448, #777 ) ;
#353 = EDGE_CURVE ( 'NONE', #38, #724, #640, .T. ) ;
#354 = ORIENTED_EDGE ( 'NONE', *, *, #414, .T. ) ;
#355 = ORIENTED_EDGE ( 'NONE', *, *, #243, .F. ) ;
#356 = DIRECTION ( 'NONE',  ( -2.409338161078899700E-016, 0.0000000000000000000, 1.000000000000000000 ) ) ;
#357 = CARTESIAN_POINT ( 'NONE',  ( -1.099999999999999400, 1.450000000000000000, -1.049364884236964900 ) ) ;
#358 = EDGE_CURVE ( 'NONE', #165, #928, #12, .T. ) ;
#359 = EDGE_CURVE ( 'NONE', #847, #406, #423, .T. ) ;
#360 = VECTOR ( 'NONE', #938, 1000.000000000000000 ) ;
#361 = PLANE ( 'NONE',  #572 ) ;
#362 = FILL_AREA_STYLE_COLOUR ( '', #432 ) ;
#363 = LINE ( 'NONE', #287, #753 ) ;
#364 = MECHANICAL_DESIGN_GEOMETRIC_PRESENTATION_REPRESENTATION (  '', ( #248 ), #417 ) ;
#365 = DIRECTION ( 'NONE',  ( 0.0000000000000000000, 1.000000000000000000, 0.0000000000000000000 ) ) ;
#366 = SURFACE_SIDE_STYLE ('',( #490 ) ) ;
#367 = DIRECTION ( 'NONE',  ( 0.0000000000000000000, 0.0000000000000000000, 1.000000000000000000 ) ) ;
#368 = ORIENTED_EDGE ( 'NONE', *, *, #477, .T. ) ;
#369 = CARTESIAN_POINT ( 'NONE',  ( 1.098253961525413200, 0.05000000000000000300, -1.099999999999999400 ) ) ;
#370 =( NAMED_UNIT ( * ) SI_UNIT ( $, .STERADIAN. ) SOLID_ANGLE_UNIT ( ) );
#371 = FILL_AREA_STYLE_COLOUR ( '', #917 ) ;
#372 = CARTESIAN_POINT ( 'NONE',  ( 0.6493648842369652600, 1.450000000000000000, 0.6493648842369654800 ) ) ;
#373 = PLANE ( 'NONE',  #4 ) ;
#374 = DIRECTION ( 'NONE',  ( 1.000000000000000000, 0.0000000000000000000, -2.409338161078899700E-016 ) ) ;
#376 = ORIENTED_EDGE ( 'NONE', *, *, #577, .F. ) ;
#375 = FACE_OUTER_BOUND ( 'NONE', #825, .T. ) ;
#377 = CARTESIAN_POINT ( 'NONE',  ( -0.4499999999999998400, 0.05000000000000000300, 0.8249999999999999600 ) ) ;
#378 = ADVANCED_FACE ( 'NONE', ( #1009 ), #613, .T. ) ;
#379 = CARTESIAN_POINT ( 'NONE',  ( 0.4499999999999999600, 0.05000000000000000300, 0.8250000000000000700 ) ) ;
#380 = PRESENTATION_LAYER_ASSIGNMENT (  '', '', ( #320 ) ) ;
#381 = CARTESIAN_POINT ( 'NONE',  ( -1.098253961525412100, 0.05000000000000000300, -1.099999999999999400 ) ) ;
#382 = DIRECTION ( 'NONE',  ( 0.0000000000000000000, 0.0000000000000000000, 1.000000000000000000 ) ) ;
#383 =( LENGTH_UNIT ( ) NAMED_UNIT ( * ) SI_UNIT ( .MILLI., .METRE. ) );
#384 =( LENGTH_UNIT ( ) NAMED_UNIT ( * ) SI_UNIT ( .MILLI., .METRE. ) );
#385 = CARTESIAN_POINT ( 'NONE',  ( 0.4499999999999999600, 0.05000000000000000300, 0.8250000000000000700 ) ) ;
#386 = CARTESIAN_POINT ( 'NONE',  ( 0.8999999999999998000, 0.05000000000000000300, 0.8250000000000001800 ) ) ;
#387 = UNCERTAINTY_MEASURE_WITH_UNIT (LENGTH_MEASURE( 1.000000000000000100E-005 ), #655, 'distance_accuracy_value', 'NONE');
#388 =( GEOMETRIC_REPRESENTATION_CONTEXT ( 3 ) GLOBAL_UNCERTAINTY_ASSIGNED_CONTEXT ( ( #715 ) ) GLOBAL_UNIT_ASSIGNED_CONTEXT ( ( #57, #625, #142 ) ) REPRESENTATION_CONTEXT ( 'NONE', 'WORKASPACE' ) );
#389 = ORIENTED_EDGE ( 'NONE', *, *, #678, .F. ) ;
#390 = DIRECTION ( 'NONE',  ( 0.0000000000000000000, 1.000000000000000000, 0.0000000000000000000 ) ) ;
#391 = SURFACE_STYLE_USAGE ( .BOTH. , #849 ) ;
#392 = VERTEX_POINT ( 'NONE', #983 ) ;
#393 = VECTOR ( 'NONE', #482, 1000.000000000000000 ) ;
#394 = CARTESIAN_POINT ( 'NONE',  ( 0.6493648842369652600, 1.449000000000000100, 0.6493648842369654800 ) ) ;
#395 = STYLED_ITEM ( 'NONE', ( #46 ), #992 ) ;
#396 = FILL_AREA_STYLE_COLOUR ( '', #987 ) ;
#397 = CARTESIAN_POINT ( 'NONE',  ( 0.4499999999999999600, 0.05000000000000000300, 0.8250000000000000700 ) ) ;
#398 = EDGE_LOOP ( 'NONE', ( #246, #795, #470, #41 ) ) ;
#399 = PLANE ( 'NONE',  #877 ) ;
#400 = DIRECTION ( 'NONE',  ( 0.0000000000000000000, 0.0000000000000000000, 1.000000000000000000 ) ) ;
#401 =( NAMED_UNIT ( * ) SI_UNIT ( $, .STERADIAN. ) SOLID_ANGLE_UNIT ( ) );
#402 = CARTESIAN_POINT ( 'NONE',  ( 0.8999999999999998000, 0.0000000000000000000, -0.8250000000000001800 ) ) ;
#403 = PRESENTATION_STYLE_ASSIGNMENT (( #904 ) ) ;
#404 = STYLED_ITEM ( 'NONE', ( #926 ), #290 ) ;
#406 = VERTEX_POINT ( 'NONE', #266 ) ;
#405 = VECTOR ( 'NONE', #53, 1000.000000000000000 ) ;
#407 =( GEOMETRIC_REPRESENTATION_CONTEXT ( 3 ) GLOBAL_UNCERTAINTY_ASSIGNED_CONTEXT ( ( #180 ) ) GLOBAL_UNIT_ASSIGNED_CONTEXT ( ( #681, #182, #754 ) ) REPRESENTATION_CONTEXT ( 'NONE', 'WORKASPACE' ) );
#408 = CARTESIAN_POINT ( 'NONE',  ( 0.8999999999999998000, 0.05000000000000000300, 0.8250000000000001800 ) ) ;
#409 = AXIS2_PLACEMENT_3D ( 'NONE', #118, #688, #190 ) ;
#410 = LINE ( 'NONE', #133, #812 ) ;
#411 = SURFACE_SIDE_STYLE ('',( #734 ) ) ;
#412 = EDGE_CURVE ( 'NONE', #724, #38, #742, .T. ) ;
#413 = ORIENTED_EDGE ( 'NONE', *, *, #870, .T. ) ;
#414 = EDGE_CURVE ( 'NONE', #247, #562, #331, .T. ) ;
#415 = EDGE_CURVE ( 'NONE', #518, #751, #545, .T. ) ;
#416 = ORIENTED_EDGE ( 'NONE', *, *, #731, .F. ) ;
#417 =( GEOMETRIC_REPRESENTATION_CONTEXT ( 3 ) GLOBAL_UNCERTAINTY_ASSIGNED_CONTEXT ( ( #645 ) ) GLOBAL_UNIT_ASSIGNED_CONTEXT ( ( #299, #706, #213 ) ) REPRESENTATION_CONTEXT ( 'NONE', 'WORKASPACE' ) );
#418 = SURFACE_STYLE_FILL_AREA ( #298 ) ;
#419 = FILL_AREA_STYLE ('',( #499 ) ) ;
#420 = UNCERTAINTY_MEASURE_WITH_UNIT (LENGTH_MEASURE( 1.000000000000000100E-005 ), #449, 'distance_accuracy_value', 'NONE');
#421 = STYLED_ITEM ( 'NONE', ( #525 ), #665 ) ;
#422 =( NAMED_UNIT ( * ) PLANE_ANGLE_UNIT ( ) SI_UNIT ( $, .RADIAN. ) );
#423 = LINE ( 'NONE', #763, #801 ) ;
#424 = FACE_BOUND ( 'NONE', #344, .T. ) ;
#425 = ORIENTED_EDGE ( 'NONE', *, *, #513, .F. ) ;
#426 = VECTOR ( 'NONE', #993, 1000.000000000000000 ) ;
#427 = UNCERTAINTY_MEASURE_WITH_UNIT (LENGTH_MEASURE( 1.000000000000000100E-005 ), #383, 'distance_accuracy_value', 'NONE');
#428 = CARTESIAN_POINT ( 'NONE',  ( 0.6493648842369652600, 1.449000000000000100, 0.6493648842369654800 ) ) ;
#429 = DIRECTION ( 'NONE',  ( 0.0000000000000000000, 0.0000000000000000000, 1.000000000000000000 ) ) ;
#430 = DIRECTION ( 'NONE',  ( 0.0000000000000000000, 0.0000000000000000000, 1.000000000000000000 ) ) ;
#431 = MECHANICAL_DESIGN_GEOMETRIC_PRESENTATION_REPRESENTATION (  '', ( #320 ), #486 ) ;
#432 = COLOUR_RGB ( '',0.8274509803921568100, 0.8392156862745098200, 0.8274509803921568100 ) ;
#433 = DIRECTION ( 'NONE',  ( -1.000000000000000000, 0.0000000000000000000, 2.409338161078899700E-016 ) ) ;
#434 = SURFACE_STYLE_FILL_AREA ( #39 ) ;
#435 = DIRECTION ( 'NONE',  ( 0.0000000000000000000, 1.000000000000000000, -0.0000000000000000000 ) ) ;
#436 = SURFACE_STYLE_FILL_AREA ( #419 ) ;
#437 = ORIENTED_EDGE ( 'NONE', *, *, #632, .F. ) ;
#438 = SURFACE_STYLE_FILL_AREA ( #758 ) ;
#439 = CARTESIAN_POINT ( 'NONE',  ( 0.6493648842369652600, 1.450000000000000000, -0.7993648842369653900 ) ) ;
#440 = PRESENTATION_LAYER_ASSIGNMENT (  '', '', ( #395 ) ) ;
#441 = VERTEX_POINT ( 'NONE', #444 ) ;
#442 = ORIENTED_EDGE ( 'NONE', *, *, #817, .T. ) ;
#443 = FILL_AREA_STYLE_COLOUR ( '', #25 ) ;
#444 = CARTESIAN_POINT ( 'NONE',  ( 1.098253961525412800, 0.05000000000000001000, -1.098253961525412100 ) ) ;
#445 = LINE ( 'NONE', #37, #822 ) ;
#446 = AXIS2_PLACEMENT_3D ( 'NONE', #394, #930, #302 ) ;
#447 = ORIENTED_EDGE ( 'NONE', *, *, #245, .T. ) ;
#448 = CARTESIAN_POINT ( 'NONE',  ( 0.6493648842369652600, 1.449000000000000100, -0.4993648842369655100 ) ) ;
#449 =( LENGTH_UNIT ( ) NAMED_UNIT ( * ) SI_UNIT ( .MILLI., .METRE. ) );
#450 = DIRECTION ( 'NONE',  ( -1.000000000000000000, 0.0000000000000000000, -0.0000000000000000000 ) ) ;
#451 = CARTESIAN_POINT ( 'NONE',  ( 1.097323714933763100, 0.07663877701406059100, -1.097323714933762000 ) ) ;
#452 = VECTOR ( 'NONE', #75, 1000.000000000000100 ) ;
#453 = LINE ( 'NONE', #771, #863 ) ;
#454 = SURFACE_SIDE_STYLE ('',( #296 ) ) ;
#455 =( LENGTH_UNIT ( ) NAMED_UNIT ( * ) SI_UNIT ( .MILLI., .METRE. ) );
#456 = FILL_AREA_STYLE ('',( #371 ) ) ;
#457 = AXIS2_PLACEMENT_3D ( 'NONE', #935, #591, #430 ) ;
#458 = DIRECTION ( 'NONE',  ( 0.0000000000000000000, 0.0000000000000000000, -1.000000000000000000 ) ) ;
#459 = SURFACE_SIDE_STYLE ('',( #438 ) ) ;
#460 = CARTESIAN_POINT ( 'NONE',  ( 0.4499999999999999600, 0.05000000000000000300, -0.8250000000000000700 ) ) ;
#461 = ADVANCED_FACE ( 'NONE', ( #937 ), #689, .T. ) ;
#462 = DIRECTION ( 'NONE',  ( -0.03489949670250104600, 0.9993908270190956500, 0.0000000000000000000 ) ) ;
#463 = DIRECTION ( 'NONE',  ( 0.0000000000000000000, 1.000000000000000000, 0.0000000000000000000 ) ) ;
#464 = SURFACE_STYLE_FILL_AREA ( #117 ) ;
#465 = VECTOR ( 'NONE', #894, 1000.000000000000000 ) ;
#466 =( NAMED_UNIT ( * ) SI_UNIT ( $, .STERADIAN. ) SOLID_ANGLE_UNIT ( ) );
#467 = DIRECTION ( 'NONE',  ( 0.0000000000000000000, 0.0000000000000000000, 1.000000000000000000 ) ) ;
#468 = DIRECTION ( 'NONE',  ( -0.0000000000000000000, 1.000000000000000000, -0.0000000000000000000 ) ) ;
#469 = PRESENTATION_LAYER_ASSIGNMENT (  '', '', ( #348 ) ) ;
#470 = ORIENTED_EDGE ( 'NONE', *, *, #780, .T. ) ;
#471 = FILL_AREA_STYLE ('',( #773 ) ) ;
#472 = CARTESIAN_POINT ( 'NONE',  ( -0.4499999999999998400, -0.0000000000000000000, -0.8249999999999999600 ) ) ;
#473 = FILL_AREA_STYLE ('',( #628 ) ) ;
#474 = EDGE_CURVE ( 'NONE', #165, #923, #453, .T. ) ;
#475 = EDGE_CURVE ( 'NONE', #295, #165, #661, .T. ) ;
#476 = DIRECTION ( 'NONE',  ( -0.0000000000000000000, -0.0000000000000000000, 1.000000000000000000 ) ) ;
#477 = EDGE_CURVE ( 'NONE', #576, #685, #16, .T. ) ;
#478 = VERTEX_POINT ( 'NONE', #548 ) ;
#479 = CARTESIAN_POINT ( 'NONE',  ( -0.4499999999999998400, 0.05000000000000000300, -0.8249999999999999600 ) ) ;
#480 = ORIENTED_EDGE ( 'NONE', *, *, #245, .F. ) ;
#481 = ORIENTED_EDGE ( 'NONE', *, *, #634, .F. ) ;
#482 = DIRECTION ( 'NONE',  ( -0.0000000000000000000, -1.000000000000000000, -0.0000000000000000000 ) ) ;
#483 = PRODUCT_DEFINITION_SHAPE ( 'NONE', 'NONE',  #35 ) ;
#484 = FACE_OUTER_BOUND ( 'NONE', #932, .T. ) ;
#485 = AXIS2_PLACEMENT_3D ( 'NONE', #27, #598, #103 ) ;
#486 =( GEOMETRIC_REPRESENTATION_CONTEXT ( 3 ) GLOBAL_UNCERTAINTY_ASSIGNED_CONTEXT ( ( #787 ) ) GLOBAL_UNIT_ASSIGNED_CONTEXT ( ( #623, #705, #137 ) ) REPRESENTATION_CONTEXT ( 'NONE', 'WORKASPACE' ) );
#487 = FACE_OUTER_BOUND ( 'NONE', #653, .T. ) ;
#488 = VERTEX_POINT ( 'NONE', #439 ) ;
#489 = AXIS2_PLACEMENT_3D ( 'NONE', #254, #800, #336 ) ;
#490 = SURFACE_STYLE_FILL_AREA ( #824 ) ;
#491 = ORIENTED_EDGE ( 'NONE', *, *, #580, .T. ) ;
#492 = COLOUR_RGB ( '',0.7960784313725489700, 0.8235294117647058400, 0.9372549019607843100 ) ;
#493 = ORIENTED_EDGE ( 'NONE', *, *, #997, .T. ) ;
#494 = AXIS2_PLACEMENT_3D ( 'NONE', #537, #984, #866 ) ;
#495 = EDGE_LOOP ( 'NONE', ( #76, #276, #958, #743 ) ) ;
#496 = ORIENTED_EDGE ( 'NONE', *, *, #359, .T. ) ;
#497 = DIRECTION ( 'NONE',  ( 0.0000000000000000000, -0.0000000000000000000, 1.000000000000000000 ) ) ;
#498 = UNCERTAINTY_MEASURE_WITH_UNIT (LENGTH_MEASURE( 1.000000000000000100E-005 ), #556, 'distance_accuracy_value', 'NONE');
#499 = FILL_AREA_STYLE_COLOUR ( '', #242 ) ;
#500 = MECHANICAL_DESIGN_GEOMETRIC_PRESENTATION_REPRESENTATION (  '', ( #404 ), #569 ) ;
#501 =( NAMED_UNIT ( * ) SI_UNIT ( $, .STERADIAN. ) SOLID_ANGLE_UNIT ( ) );
#502 = PRODUCT_CONTEXT ( 'NONE', #88, 'mechanical' ) ;
#503 = LINE ( 'NONE', #209, #73 ) ;
#504 = MECHANICAL_DESIGN_GEOMETRIC_PRESENTATION_REPRESENTATION (  '', ( #395 ), #388 ) ;
#505 = DIRECTION ( 'NONE',  ( 0.0000000000000000000, 1.000000000000000000, 0.0000000000000000000 ) ) ;
#506 = ADVANCED_FACE ( 'NONE', ( #231 ), #615, .F. ) ;
#507 = VERTEX_POINT ( 'NONE', #204 ) ;
#508 = CARTESIAN_POINT ( 'NONE',  ( -1.099999999999999000, 0.0000000000000000000, 1.100000000000001200 ) ) ;
#509 = CARTESIAN_POINT ( 'NONE',  ( 0.8999999999999998000, 0.05000000000000000300, 0.8250000000000001800 ) ) ;
#510 = FACE_OUTER_BOUND ( 'NONE', #896, .T. ) ;
#511 = MECHANICAL_DESIGN_GEOMETRIC_PRESENTATION_REPRESENTATION (  '', ( #348 ), #574 ) ;
#512 = ORIENTED_EDGE ( 'NONE', *, *, #782, .T. ) ;
#513 = EDGE_CURVE ( 'NONE', #704, #724, #1011, .T. ) ;
#514 = SURFACE_STYLE_FILL_AREA ( #94 ) ;
#515 = CYLINDRICAL_SURFACE ( 'NONE', #944, 0.1499999999999999700 ) ;
#516 = DIRECTION ( 'NONE',  ( -0.03487826274237470400, -0.9987827659587182900, -0.03487826274237469700 ) ) ;
#517 = EDGE_CURVE ( 'NONE', #507, #872, #196, .T. ) ;
#518 = VERTEX_POINT ( 'NONE', #841 ) ;
#519 = ORIENTED_EDGE ( 'NONE', *, *, #817, .F. ) ;
#520 = EDGE_CURVE ( 'NONE', #135, #86, #804, .T. ) ;
#521 = DIRECTION ( 'NONE',  ( -0.0000000000000000000, 1.000000000000000000, -0.0000000000000000000 ) ) ;
#522 = CARTESIAN_POINT ( 'NONE',  ( 0.6493648842369652600, 1.449000000000000100, -0.6493648842369654800 ) ) ;
#523 = ORIENTED_EDGE ( 'NONE', *, *, #517, .F. ) ;
#524 = EDGE_LOOP ( 'NONE', ( #5, #779, #250, #658 ) ) ;
#525 = PRESENTATION_STYLE_ASSIGNMENT (( #727 ) ) ;
#526 = COLOUR_RGB ( '',1.000000000000000000, 1.000000000000000000, 1.000000000000000000 ) ;
#527 = STYLED_ITEM ( 'NONE', ( #89 ), #168 ) ;
#528 =( NAMED_UNIT ( * ) SI_UNIT ( $, .STERADIAN. ) SOLID_ANGLE_UNIT ( ) );
#529 = DIRECTION ( 'NONE',  ( 1.971276677246371500E-016, -0.0000000000000000000, 1.000000000000000000 ) ) ;
#530 = CARTESIAN_POINT ( 'NONE',  ( 1.049364884236966300, 1.450000000000000000, -1.099999999999999400 ) ) ;
#531 = SURFACE_STYLE_USAGE ( .BOTH. , #538 ) ;
#532 = AXIS2_PLACEMENT_3D ( 'NONE', #326, #722, #940 ) ;
#533 = UNCERTAINTY_MEASURE_WITH_UNIT (LENGTH_MEASURE( 1.000000000000000100E-005 ), #881, 'distance_accuracy_value', 'NONE');
#534 = MANIFOLD_SOLID_BREP ( 'Extrude3', #321 ) ;
#535 =( LENGTH_UNIT ( ) NAMED_UNIT ( * ) SI_UNIT ( .MILLI., .METRE. ) );
#536 = FILL_AREA_STYLE ('',( #544 ) ) ;
#537 = CARTESIAN_POINT ( 'NONE',  ( 1.100000000000001600, 1.450000000000000000, 1.100000000000001200 ) ) ;
#538 = SURFACE_SIDE_STYLE ('',( #945 ) ) ;
#539 = FACE_OUTER_BOUND ( 'NONE', #306, .T. ) ;
#540 = SURFACE_STYLE_FILL_AREA ( #349 ) ;
#541 = CARTESIAN_POINT ( 'NONE',  ( -1.098253961525411700, 0.05000000000000001000, 1.098253961525413700 ) ) ;
#542 = ADVANCED_FACE ( 'NONE', ( #375 ), #270, .T. ) ;
#543 =( LENGTH_UNIT ( ) NAMED_UNIT ( * ) SI_UNIT ( .MILLI., .METRE. ) );
#544 = FILL_AREA_STYLE_COLOUR ( '', #612 ) ;
#545 = LINE ( 'NONE', #119, #735 ) ;
#546 = ORIENTED_EDGE ( 'NONE', *, *, #679, .T. ) ;
#547 = DIRECTION ( 'NONE',  ( -0.0000000000000000000, -1.000000000000000000, -0.0000000000000000000 ) ) ;
#548 = CARTESIAN_POINT ( 'NONE',  ( 0.6493648842369652600, 1.450000000000000000, -0.4993648842369655100 ) ) ;
#549 = VECTOR ( 'NONE', #280, 1000.000000000000000 ) ;
#550 =( NAMED_UNIT ( * ) SI_UNIT ( $, .STERADIAN. ) SOLID_ANGLE_UNIT ( ) );
#551 = CARTESIAN_POINT ( 'NONE',  ( -1.099999999999999000, 0.0000000000000000000, 1.100000000000001200 ) ) ;
#552 = DIRECTION ( 'NONE',  ( 0.0000000000000000000, 0.0000000000000000000, -1.000000000000000000 ) ) ;
#553 = AXIS2_PLACEMENT_3D ( 'NONE', #217, #989, #497 ) ;
#554 = ORIENTED_EDGE ( 'NONE', *, *, #976, .T. ) ;
#555 = SURFACE_STYLE_USAGE ( .BOTH. , #1000 ) ;
#556 =( LENGTH_UNIT ( ) NAMED_UNIT ( * ) SI_UNIT ( .MILLI., .METRE. ) );
#557 = CIRCLE ( 'NONE', #232, 0.1499999999999999700 ) ;
#558 = PRESENTATION_STYLE_ASSIGNMENT (( #899 ) ) ;
#559 = VERTEX_POINT ( 'NONE', #842 ) ;
#560 = DIRECTION ( 'NONE',  ( -0.0000000000000000000, 1.000000000000000000, -0.0000000000000000000 ) ) ;
#561 = DIRECTION ( 'NONE',  ( 0.0000000000000000000, -0.0000000000000000000, -1.000000000000000000 ) ) ;
#562 = VERTEX_POINT ( 'NONE', #911 ) ;
#563 = ORIENTED_EDGE ( 'NONE', *, *, #244, .T. ) ;
#564 = LINE ( 'NONE', #22, #113 ) ;
#565 = SURFACE_STYLE_FILL_AREA ( #770 ) ;
#566 = DIRECTION ( 'NONE',  ( -1.000000000000000000, -0.0000000000000000000, -0.0000000000000000000 ) ) ;
#567 = SURFACE_STYLE_USAGE ( .BOTH. , #936 ) ;
#568 = VECTOR ( 'NONE', #97, 1000.000000000000100 ) ;
#569 =( GEOMETRIC_REPRESENTATION_CONTEXT ( 3 ) GLOBAL_UNCERTAINTY_ASSIGNED_CONTEXT ( ( #155 ) ) GLOBAL_UNIT_ASSIGNED_CONTEXT ( ( #588, #19, #501 ) ) REPRESENTATION_CONTEXT ( 'NONE', 'WORKASPACE' ) );
#570 = VERTEX_POINT ( 'NONE', #764 ) ;
#571 = VECTOR ( 'NONE', #838, 1000.000000000000000 ) ;
#572 = AXIS2_PLACEMENT_3D ( 'NONE', #823, #365, #898 ) ;
#573 = DIRECTION ( 'NONE',  ( -0.0000000000000000000, -1.000000000000000000, -0.0000000000000000000 ) ) ;
#574 =( GEOMETRIC_REPRESENTATION_CONTEXT ( 3 ) GLOBAL_UNCERTAINTY_ASSIGNED_CONTEXT ( ( #228 ) ) GLOBAL_UNIT_ASSIGNED_CONTEXT ( ( #535, #47, #610 ) ) REPRESENTATION_CONTEXT ( 'NONE', 'WORKASPACE' ) );
#575 = FACE_OUTER_BOUND ( 'NONE', #670, .T. ) ;
#576 = VERTEX_POINT ( 'NONE', #991 ) ;
#577 = EDGE_CURVE ( 'NONE', #559, #888, #346, .T. ) ;
#578 = EDGE_CURVE ( 'NONE', #406, #98, #130, .T. ) ;
#579 = LINE ( 'NONE', #313, #360 ) ;
#580 = EDGE_CURVE ( 'NONE', #157, #847, #322, .T. ) ;
#581 = LINE ( 'NONE', #379, #956 ) ;
#582 = AXIS2_PLACEMENT_3D ( 'NONE', #386, #996, #552 ) ;
#583 = FILL_AREA_STYLE_COLOUR ( '', #492 ) ;
#584 = EDGE_LOOP ( 'NONE', ( #376, #816, #839, #262 ) ) ;
#585 = AXIS2_PLACEMENT_3D ( 'NONE', #33, #1008, #400 ) ;
#587 = EDGE_LOOP ( 'NONE', ( #65, #934, #368, #546 ) ) ;
#586 = VECTOR ( 'NONE', #857, 1000.000000000000000 ) ;
#588 =( LENGTH_UNIT ( ) NAMED_UNIT ( * ) SI_UNIT ( .MILLI., .METRE. ) );
#589 = APPLICATION_PROTOCOL_DEFINITION ( 'draft international standard', 'automotive_design', 1998, #20 ) ;
#590 = ADVANCED_FACE ( 'NONE', ( #744 ), #905, .T. ) ;
#591 = DIRECTION ( 'NONE',  ( -0.0000000000000000000, 1.000000000000000000, -0.0000000000000000000 ) ) ;
#592 = PRESENTATION_LAYER_ASSIGNMENT (  '', '', ( #701 ) ) ;
#593 = CARTESIAN_POINT ( 'NONE',  ( 1.097323714933764000, 0.07663877701406063300, 1.097323714933763600 ) ) ;
#594 = ORIENTED_EDGE ( 'NONE', *, *, #177, .F. ) ;
#595 =( GEOMETRIC_REPRESENTATION_CONTEXT ( 3 ) GLOBAL_UNCERTAINTY_ASSIGNED_CONTEXT ( ( #533 ) ) GLOBAL_UNIT_ASSIGNED_CONTEXT ( ( #881, #422, #960 ) ) REPRESENTATION_CONTEXT ( 'NONE', 'WORKASPACE' ) );
#596 = SURFACE_STYLE_USAGE ( .BOTH. , #32 ) ;
#597 = COLOUR_RGB ( '',0.8274509803921568100, 0.8392156862745098200, 0.8274509803921568100 ) ;
#598 = DIRECTION ( 'NONE',  ( -0.0000000000000000000, 1.000000000000000000, 0.0000000000000000000 ) ) ;
#599 = CARTESIAN_POINT ( 'NONE',  ( -1.099999999999999400, 0.0000000000000000000, -1.099999999999999400 ) ) ;
#600 = CARTESIAN_POINT ( 'NONE',  ( 0.4499999999999999600, 0.0000000000000000000, 0.8250000000000000700 ) ) ;
#601 = SURFACE_SIDE_STYLE ('',( #789 ) ) ;
#602 = SURFACE_SIDE_STYLE ('',( #434 ) ) ;
#603 = CARTESIAN_POINT ( 'NONE',  ( 0.6493648842369652600, 1.449000000000000100, -0.4993648842369655100 ) ) ;
#604 =( NAMED_UNIT ( * ) PLANE_ANGLE_UNIT ( ) SI_UNIT ( $, .RADIAN. ) );
#605 = ORIENTED_EDGE ( 'NONE', *, *, #784, .T. ) ;
#606 = CARTESIAN_POINT ( 'NONE',  ( -1.049364884236964900, 1.450000000000000000, -1.099999999999999400 ) ) ;
#607 = PLANE ( 'NONE',  #409 ) ;
#608 = SURFACE_SIDE_STYLE ('',( #464 ) ) ;
#609 = DIRECTION ( 'NONE',  ( -0.0000000000000000000, 1.000000000000000000, -0.0000000000000000000 ) ) ;
#610 =( NAMED_UNIT ( * ) SI_UNIT ( $, .STERADIAN. ) SOLID_ANGLE_UNIT ( ) );
#611 = UNCERTAINTY_MEASURE_WITH_UNIT (LENGTH_MEASURE( 1.000000000000000100E-005 ), #813, 'distance_accuracy_value', 'NONE');
#612 = COLOUR_RGB ( '',0.1921568627450980200, 0.2039215686274509800, 0.2039215686274509800 ) ;
#613 = PLANE ( 'NONE',  #258 ) ;
#614 = PRESENTATION_STYLE_ASSIGNMENT (( #71 ) ) ;
#615 = CYLINDRICAL_SURFACE ( 'NONE', #745, 0.1499999999999999700 ) ;
#616 = ADVANCED_FACE ( 'NONE', ( #31, #652, #851 ), #832, .F. ) ;
#617 =( LENGTH_UNIT ( ) NAMED_UNIT ( * ) SI_UNIT ( .MILLI., .METRE. ) );
#618 =( NAMED_UNIT ( * ) SI_UNIT ( $, .STERADIAN. ) SOLID_ANGLE_UNIT ( ) );
#619 = DIRECTION ( 'NONE',  ( 0.0000000000000000000, 0.0000000000000000000, -1.000000000000000000 ) ) ;
#620 = ADVANCED_FACE ( 'NONE', ( #781 ), #752, .F. ) ;
#621 = PLANE ( 'NONE',  #327 ) ;
#622 = DIRECTION ( 'NONE',  ( 0.0000000000000000000, -0.9993908270190956500, 0.03489949670250104600 ) ) ;
#623 =( LENGTH_UNIT ( ) NAMED_UNIT ( * ) SI_UNIT ( .MILLI., .METRE. ) );
#624 = LINE ( 'NONE', #921, #999 ) ;
#625 =( NAMED_UNIT ( * ) PLANE_ANGLE_UNIT ( ) SI_UNIT ( $, .RADIAN. ) );
#626 = ORIENTED_EDGE ( 'NONE', *, *, #731, .T. ) ;
#627 = FILL_AREA_STYLE_COLOUR ( '', #636 ) ;
#628 = FILL_AREA_STYLE_COLOUR ( '', #887 ) ;
#629 = ORIENTED_EDGE ( 'NONE', *, *, #782, .F. ) ;
#630 =( NAMED_UNIT ( * ) PLANE_ANGLE_UNIT ( ) SI_UNIT ( $, .RADIAN. ) );
#631 = EDGE_CURVE ( 'NONE', #392, #923, #579, .T. ) ;
#632 = EDGE_CURVE ( 'NONE', #954, #576, #955, .T. ) ;
#633 = DIRECTION ( 'NONE',  ( 0.0000000000000000000, 0.0000000000000000000, 1.000000000000000000 ) ) ;
#634 = EDGE_CURVE ( 'NONE', #98, #751, #564, .T. ) ;
#635 = ORIENTED_EDGE ( 'NONE', *, *, #578, .T. ) ;
#636 = COLOUR_RGB ( '',0.8274509803921568100, 0.8392156862745098200, 0.8274509803921568100 ) ;
#637 = SHAPE_DEFINITION_REPRESENTATION ( #483, #337 ) ;
#638 = PRESENTATION_LAYER_ASSIGNMENT (  '', '', ( #527 ) ) ;
#639 =( NAMED_UNIT ( * ) PLANE_ANGLE_UNIT ( ) SI_UNIT ( $, .RADIAN. ) );
#640 = CIRCLE ( 'NONE', #865, 0.1499999999999998300 ) ;
#641 = VECTOR ( 'NONE', #698, 1000.000000000000000 ) ;
#642 = PRESENTATION_LAYER_ASSIGNMENT (  '', '', ( #421 ) ) ;
#643 = VECTOR ( 'NONE', #529, 1000.000000000000000 ) ;
#644 = SURFACE_SIDE_STYLE ('',( #802 ) ) ;
#645 = UNCERTAINTY_MEASURE_WITH_UNIT (LENGTH_MEASURE( 1.000000000000000100E-005 ), #299, 'distance_accuracy_value', 'NONE');
#646 = CARTESIAN_POINT ( 'NONE',  ( 0.4499999999999999600, 0.05000000000000000300, -0.8250000000000000700 ) ) ;
#647 = UNCERTAINTY_MEASURE_WITH_UNIT (LENGTH_MEASURE( 1.000000000000000100E-005 ), #102, 'distance_accuracy_value', 'NONE');
#648 = AXIS2_PLACEMENT_3D ( 'NONE', #774, #463, #294 ) ;
#649 = VECTOR ( 'NONE', #566, 1000.000000000000000 ) ;
#650 = FACE_OUTER_BOUND ( 'NONE', #8, .T. ) ;
#651 = VERTEX_POINT ( 'NONE', #408 ) ;
#652 = FACE_BOUND ( 'NONE', #524, .T. ) ;
#653 = EDGE_LOOP ( 'NONE', ( #953, #710, #563, #605 ) ) ;
#654 = PRESENTATION_STYLE_ASSIGNMENT (( #990 ) ) ;
#655 =( LENGTH_UNIT ( ) NAMED_UNIT ( * ) SI_UNIT ( .MILLI., .METRE. ) );
#656 = ORIENTED_EDGE ( 'NONE', *, *, #947, .F. ) ;
#657 = VECTOR ( 'NONE', #516, 1000.000000000000100 ) ;
#658 = ORIENTED_EDGE ( 'NONE', *, *, #475, .F. ) ;
#659 = LINE ( 'NONE', #451, #452 ) ;
#660 = VERTEX_POINT ( 'NONE', #402 ) ;
#661 = LINE ( 'NONE', #385, #831 ) ;
#662 = FILL_AREA_STYLE ('',( #583 ) ) ;
#663 = STYLED_ITEM ( 'NONE', ( #798 ), #342 ) ;
#664 = SURFACE_SIDE_STYLE ('',( #514 ) ) ;
#665 = ADVANCED_FACE ( 'NONE', ( #330 ), #95, .T. ) ;
#666 = LINE ( 'NONE', #860, #649 ) ;
#667 = LINE ( 'NONE', #677, #844 ) ;
#668 = DIRECTION ( 'NONE',  ( 0.0000000000000000000, -0.0000000000000000000, -1.000000000000000000 ) ) ;
#669 = CARTESIAN_POINT ( 'NONE',  ( 0.8999999999999998000, 0.0000000000000000000, 0.8250000000000001800 ) ) ;
#670 = EDGE_LOOP ( 'NONE', ( #329, #84, #68, #425 ) ) ;
#671 = SURFACE_SIDE_STYLE ('',( #200 ) ) ;
#672 = STYLED_ITEM ( 'NONE', ( #654 ), #915 ) ;
#673 =( NAMED_UNIT ( * ) PLANE_ANGLE_UNIT ( ) SI_UNIT ( $, .RADIAN. ) );
#674 = DIRECTION ( 'NONE',  ( 0.0000000000000000000, 0.9993908270190956500, 0.03489949670250104600 ) ) ;
#675 = EDGE_CURVE ( 'NONE', #86, #221, #759, .T. ) ;
#676 = ORIENTED_EDGE ( 'NONE', *, *, #144, .F. ) ;
#677 = CARTESIAN_POINT ( 'NONE',  ( -0.4499999999999998400, 0.05000000000000000300, 0.8249999999999999600 ) ) ;
#678 = EDGE_CURVE ( 'NONE', #135, #872, #153, .T. ) ;
#679 = EDGE_CURVE ( 'NONE', #685, #308, #961, .T. ) ;
#680 = EDGE_LOOP ( 'NONE', ( #897, #222 ) ) ;
#681 =( LENGTH_UNIT ( ) NAMED_UNIT ( * ) SI_UNIT ( .MILLI., .METRE. ) );
#682 = DIRECTION ( 'NONE',  ( -0.0000000000000000000, 1.000000000000000000, -0.0000000000000000000 ) ) ;
#683 = DIRECTION ( 'NONE',  ( 1.000000000000000000, 0.0000000000000000000, -0.0000000000000000000 ) ) ;
#684 = ORIENTED_EDGE ( 'NONE', *, *, #301, .F. ) ;
#685 = VERTEX_POINT ( 'NONE', #811 ) ;
#686 = MECHANICAL_DESIGN_GEOMETRIC_PRESENTATION_REPRESENTATION (  '', ( #527 ), #736 ) ;
#687 = DIRECTION ( 'NONE',  ( 1.971276677246371500E-016, -0.0000000000000000000, 1.000000000000000000 ) ) ;
#688 = DIRECTION ( 'NONE',  ( -1.000000000000000000, 0.0000000000000000000, -0.0000000000000000000 ) ) ;
#689 = PLANE ( 'NONE',  #648 ) ;
#690 = CIRCLE ( 'NONE', #267, 0.1499999999999999700 ) ;
#691 = MECHANICAL_DESIGN_GEOMETRIC_PRESENTATION_REPRESENTATION (  '', ( #421 ), #738 ) ;
#692 = CARTESIAN_POINT ( 'NONE',  ( -0.6493648842369649200, 1.449000000000000100, -8.027589719052687700E-020 ) ) ;
#693 = CARTESIAN_POINT ( 'NONE',  ( 1.100000000000001600, 0.0000000000000000000, 1.100000000000001200 ) ) ;
#694 = DIRECTION ( 'NONE',  ( -0.0000000000000000000, 0.0000000000000000000, 1.000000000000000000 ) ) ;
#695 = CARTESIAN_POINT ( 'NONE',  ( 0.4499999999999999600, 0.05000000000000000300, 0.8250000000000000700 ) ) ;
#696 = SURFACE_STYLE_USAGE ( .BOTH. , #671 ) ;
#697 = CARTESIAN_POINT ( 'NONE',  ( -1.099999999999999400, 0.0000000000000000000, -1.099999999999999400 ) ) ;
#698 = DIRECTION ( 'NONE',  ( -2.956915015869557300E-016, 0.0000000000000000000, -1.000000000000000000 ) ) ;
#699 = ADVANCED_FACE ( 'NONE', ( #941 ), #26, .T. ) ;
#700 = VECTOR ( 'NONE', #220, 1000.000000000000000 ) ;
#701 = STYLED_ITEM ( 'NONE', ( #156 ), #534 ) ;
#702 = FILL_AREA_STYLE ('',( #913 ) ) ;
#703 = ORIENTED_EDGE ( 'NONE', *, *, #679, .F. ) ;
#704 = VERTEX_POINT ( 'NONE', #265 ) ;
#705 =( NAMED_UNIT ( * ) PLANE_ANGLE_UNIT ( ) SI_UNIT ( $, .RADIAN. ) );
#706 =( NAMED_UNIT ( * ) PLANE_ANGLE_UNIT ( ) SI_UNIT ( $, .RADIAN. ) );
#707 = STYLED_ITEM ( 'NONE', ( #66 ), #337 ) ;
#708 = CARTESIAN_POINT ( 'NONE',  ( 1.049364884236966900, 1.450000000000000000, 1.049364884236966700 ) ) ;
#709 = CYLINDRICAL_SURFACE ( 'NONE', #134, 0.1499999999999998300 ) ;
#710 = ORIENTED_EDGE ( 'NONE', *, *, #174, .F. ) ;
#711 = DIRECTION ( 'NONE',  ( 0.0000000000000000000, -0.0000000000000000000, 1.000000000000000000 ) ) ;
#712 = EDGE_LOOP ( 'NONE', ( #803, #988, #876, #205 ) ) ;
#713 = EDGE_LOOP ( 'NONE', ( #147, #519, #766, #251 ) ) ;
#714 = FILL_AREA_STYLE ('',( #858 ) ) ;
#715 = UNCERTAINTY_MEASURE_WITH_UNIT (LENGTH_MEASURE( 1.000000000000000100E-005 ), #57, 'distance_accuracy_value', 'NONE');
#716 = UNCERTAINTY_MEASURE_WITH_UNIT (LENGTH_MEASURE( 1.000000000000000100E-005 ), #786, 'distance_accuracy_value', 'NONE');
#717 = FILL_AREA_STYLE ('',( #864 ) ) ;
#718 = AXIS2_PLACEMENT_3D ( 'NONE', #428, #883, #968 ) ;
#719 = CIRCLE ( 'NONE', #446, 0.1499999999999999700 ) ;
#720 = PRESENTATION_STYLE_ASSIGNMENT (( #531 ) ) ;
#721 = PRESENTATION_STYLE_ASSIGNMENT (( #982 ) ) ;
#722 = DIRECTION ( 'NONE',  ( 0.0000000000000000000, 1.000000000000000000, -0.0000000000000000000 ) ) ;
#723 = AXIS2_PLACEMENT_3D ( 'NONE', #693, #198, #761 ) ;
#724 = VERTEX_POINT ( 'NONE', #36 ) ;
#725 = FACE_OUTER_BOUND ( 'NONE', #398, .T. ) ;
#726 = CIRCLE ( 'NONE', #885, 0.1499999999999998300 ) ;
#727 = SURFACE_STYLE_USAGE ( .BOTH. , #411 ) ;
#728 = EDGE_CURVE ( 'NONE', #157, #559, #867, .T. ) ;
#729 = VERTEX_POINT ( 'NONE', #669 ) ;
#730 = EDGE_CURVE ( 'NONE', #559, #406, #667, .T. ) ;
#731 = EDGE_CURVE ( 'NONE', #729, #392, #340, .T. ) ;
#732 = ORIENTED_EDGE ( 'NONE', *, *, #34, .T. ) ;
#733 = ORIENTED_EDGE ( 'NONE', *, *, #580, .F. ) ;
#734 = SURFACE_STYLE_FILL_AREA ( #195 ) ;
#735 = VECTOR ( 'NONE', #191, 1000.000000000000000 ) ;
#736 =( GEOMETRIC_REPRESENTATION_CONTEXT ( 3 ) GLOBAL_UNCERTAINTY_ASSIGNED_CONTEXT ( ( #338 ) ) GLOBAL_UNIT_ASSIGNED_CONTEXT ( ( #70, #639, #152 ) ) REPRESENTATION_CONTEXT ( 'NONE', 'WORKASPACE' ) );
#737 = CARTESIAN_POINT ( 'NONE',  ( 0.0000000000000000000, 0.0000000000000000000, 0.0000000000000000000 ) ) ;
#738 =( GEOMETRIC_REPRESENTATION_CONTEXT ( 3 ) GLOBAL_UNCERTAINTY_ASSIGNED_CONTEXT ( ( #387 ) ) GLOBAL_UNIT_ASSIGNED_CONTEXT ( ( #655, #630, #925 ) ) REPRESENTATION_CONTEXT ( 'NONE', 'WORKASPACE' ) );
#739 = SURFACE_STYLE_USAGE ( .BOTH. , #163 ) ;
#740 = COLOUR_RGB ( '',0.8274509803921568100, 0.8392156862745098200, 0.8274509803921568100 ) ;
#741 = CARTESIAN_POINT ( 'NONE',  ( 0.6493648842369652600, 1.450000000000000000, -0.6493648842369654800 ) ) ;
#742 = CIRCLE ( 'NONE', #203, 0.1499999999999998300 ) ;
#743 = ORIENTED_EDGE ( 'NONE', *, *, #174, .T. ) ;
#744 = FACE_OUTER_BOUND ( 'NONE', #790, .T. ) ;
#745 = AXIS2_PLACEMENT_3D ( 'NONE', #522, #132, #467 ) ;
#746 = PRESENTATION_LAYER_ASSIGNMENT (  '', '', ( #707 ) ) ;
#747 = CIRCLE ( 'NONE', #122, 0.1499999999999999700 ) ;
#748 = VECTOR ( 'NONE', #687, 1000.000000000000000 ) ;
#749 = CARTESIAN_POINT ( 'NONE',  ( -1.099999999999999000, 1.450000000000000000, 1.049364884236966700 ) ) ;
#750 = ORIENTED_EDGE ( 'NONE', *, *, #634, .T. ) ;
#751 = VERTEX_POINT ( 'NONE', #818 ) ;
#752 = CYLINDRICAL_SURFACE ( 'NONE', #585, 0.1499999999999999700 ) ;
#753 = VECTOR ( 'NONE', #908, 1000.000000000000000 ) ;
#754 =( NAMED_UNIT ( * ) SI_UNIT ( $, .STERADIAN. ) SOLID_ANGLE_UNIT ( ) );
#755 = FILL_AREA_STYLE_COLOUR ( '', #269 ) ;
#756 =( NAMED_UNIT ( * ) SI_UNIT ( $, .STERADIAN. ) SOLID_ANGLE_UNIT ( ) );
#757 = CARTESIAN_POINT ( 'NONE',  ( 0.6493648842369652600, 1.449000000000000100, -0.7993648842369653900 ) ) ;
#758 = FILL_AREA_STYLE ('',( #283 ) ) ;
#759 = LINE ( 'NONE', #593, #568 ) ;
#760 = DIRECTION ( 'NONE',  ( 0.0000000000000000000, 0.0000000000000000000, 1.000000000000000000 ) ) ;
#761 = DIRECTION ( 'NONE',  ( 0.0000000000000000000, -0.0000000000000000000, 1.000000000000000000 ) ) ;
#762 =( GEOMETRIC_REPRESENTATION_CONTEXT ( 3 ) GLOBAL_UNCERTAINTY_ASSIGNED_CONTEXT ( ( #498 ) ) GLOBAL_UNIT_ASSIGNED_CONTEXT ( ( #556, #924, #1001 ) ) REPRESENTATION_CONTEXT ( 'NONE', 'WORKASPACE' ) );
#763 = CARTESIAN_POINT ( 'NONE',  ( -0.4499999999999998400, 0.0000000000000000000, 0.8249999999999999600 ) ) ;
#764 = CARTESIAN_POINT ( 'NONE',  ( -0.6493648842369649200, 1.449000000000000100, -0.1499999999999998300 ) ) ;
#765 = PRESENTATION_LAYER_ASSIGNMENT (  '', '', ( #663 ) ) ;
#766 = ORIENTED_EDGE ( 'NONE', *, *, #513, .T. ) ;
#767 = ADVANCED_FACE ( 'NONE', ( #650 ), #361, .T. ) ;
#768 = DIRECTION ( 'NONE',  ( -0.03489949670250104600, -0.9993908270190956500, 0.0000000000000000000 ) ) ;
#769 = PLANE ( 'NONE',  #582 ) ;
#770 = FILL_AREA_STYLE ('',( #207 ) ) ;
#771 = CARTESIAN_POINT ( 'NONE',  ( 0.4499999999999999600, 0.05000000000000000300, -0.8250000000000000700 ) ) ;
#772 = CARTESIAN_POINT ( 'NONE',  ( -0.8999999999999998000, 0.05000000000000000300, 0.8249999999999999600 ) ) ;
#773 = FILL_AREA_STYLE_COLOUR ( '', #878 ) ;
#774 = CARTESIAN_POINT ( 'NONE',  ( -0.6493648842369649200, 1.449000000000000100, -8.027589719052687700E-020 ) ) ;
#775 = DIRECTION ( 'NONE',  ( -0.0000000000000000000, -0.0000000000000000000, 1.000000000000000000 ) ) ;
#776 = PRESENTATION_LAYER_ASSIGNMENT (  '', '', ( #672 ) ) ;
#777 = VECTOR ( 'NONE', #977, 1000.000000000000000 ) ;
#778 = EDGE_LOOP ( 'NONE', ( #442, #93 ) ) ;
#779 = ORIENTED_EDGE ( 'NONE', *, *, #244, .F. ) ;
#780 = EDGE_CURVE ( 'NONE', #875, #478, #352, .T. ) ;
#781 = FACE_OUTER_BOUND ( 'NONE', #161, .T. ) ;
#782 = EDGE_CURVE ( 'NONE', #562, #135, #140, .T. ) ;
#783 = COLOUR_RGB ( '',0.1921568627450980200, 0.2039215686274509800, 0.2039215686274509800 ) ;
#784 = EDGE_CURVE ( 'NONE', #651, #729, #950, .T. ) ;
#785 = DIRECTION ( 'NONE',  ( -1.000000000000000000, 0.0000000000000000000, 0.0000000000000000000 ) ) ;
#786 =( LENGTH_UNIT ( ) NAMED_UNIT ( * ) SI_UNIT ( .MILLI., .METRE. ) );
#787 = UNCERTAINTY_MEASURE_WITH_UNIT (LENGTH_MEASURE( 1.000000000000000100E-005 ), #623, 'distance_accuracy_value', 'NONE');
#788 = ORIENTED_EDGE ( 'NONE', *, *, #520, .T. ) ;
#790 = EDGE_LOOP ( 'NONE', ( #128, #733, #973, #43 ) ) ;
#789 = SURFACE_STYLE_FILL_AREA ( #819 ) ;
#791 = VERTEX_POINT ( 'NONE', #757 ) ;
#792 = MECHANICAL_DESIGN_GEOMETRIC_PRESENTATION_REPRESENTATION (  '', ( #701 ), #846 ) ;
#793 = EDGE_LOOP ( 'NONE', ( #7, #111, #389, #629 ) ) ;
#794 = MECHANICAL_DESIGN_GEOMETRIC_PRESENTATION_REPRESENTATION (  '', ( #707 ), #852 ) ;
#795 = ORIENTED_EDGE ( 'NONE', *, *, #976, .F. ) ;
#796 =( NAMED_UNIT ( * ) PLANE_ANGLE_UNIT ( ) SI_UNIT ( $, .RADIAN. ) );
#797 = ORIENTED_EDGE ( 'NONE', *, *, #78, .T. ) ;
#798 = PRESENTATION_STYLE_ASSIGNMENT (( #391 ) ) ;
#799 = DIRECTION ( 'NONE',  ( 1.000000000000000000, -0.0000000000000000000, 0.0000000000000000000 ) ) ;
#800 = DIRECTION ( 'NONE',  ( 0.0000000000000000000, 1.000000000000000000, 0.0000000000000000000 ) ) ;
#801 = VECTOR ( 'NONE', #694, 1000.000000000000000 ) ;
#802 = SURFACE_STYLE_FILL_AREA ( #717 ) ;
#803 = ORIENTED_EDGE ( 'NONE', *, *, #678, .T. ) ;
#804 = LINE ( 'NONE', #749, #586 ) ;
#805 =( NAMED_UNIT ( * ) PLANE_ANGLE_UNIT ( ) SI_UNIT ( $, .RADIAN. ) );
#806 = MECHANICAL_DESIGN_GEOMETRIC_PRESENTATION_REPRESENTATION (  '', ( #663 ), #762 ) ;
#807 = DIRECTION ( 'NONE',  ( 1.000000000000000000, 0.0000000000000000000, -2.409338161078899700E-016 ) ) ;
#808 = ADVANCED_FACE ( 'NONE', ( #107 ), #515, .F. ) ;
#809 = DIRECTION ( 'NONE',  ( 0.0000000000000000000, 1.000000000000000000, 0.0000000000000000000 ) ) ;
#810 = PRESENTATION_STYLE_ASSIGNMENT (( #184 ) ) ;
#811 = CARTESIAN_POINT ( 'NONE',  ( 0.6493648842369652600, 1.450000000000000000, 0.7993648842369653900 ) ) ;
#812 = VECTOR ( 'NONE', #468, 1000.000000000000000 ) ;
#813 =( LENGTH_UNIT ( ) NAMED_UNIT ( * ) SI_UNIT ( .MILLI., .METRE. ) );
#814 = MECHANICAL_DESIGN_GEOMETRIC_PRESENTATION_REPRESENTATION (  '', ( #672 ), #869 ) ;
#815 = CARTESIAN_POINT ( 'NONE',  ( 0.4499999999999999600, 0.05000000000000000300, 0.8250000000000000700 ) ) ;
#816 = ORIENTED_EDGE ( 'NONE', *, *, #728, .F. ) ;
#817 = EDGE_CURVE ( 'NONE', #704, #570, #726, .T. ) ;
#818 = CARTESIAN_POINT ( 'NONE',  ( -0.8999999999999998000, 0.0000000000000000000, -0.8249999999999999600 ) ) ;
#819 = FILL_AREA_STYLE ('',( #396 ) ) ;
#820 = ORIENTED_EDGE ( 'NONE', *, *, #780, .F. ) ;
#821 = EDGE_CURVE ( 'NONE', #308, #685, #927, .T. ) ;
#822 = VECTOR ( 'NONE', #807, 1000.000000000000000 ) ;
#823 = CARTESIAN_POINT ( 'NONE',  ( 0.6493648842369652600, 1.449000000000000100, -0.6493648842369654800 ) ) ;
#824 = FILL_AREA_STYLE ('',( #755 ) ) ;
#825 = EDGE_LOOP ( 'NONE', ( #914, #413, #185, #240 ) ) ;
#826 = STYLED_ITEM ( 'NONE', ( #810 ), #201 ) ;
#827 = CARTESIAN_POINT ( 'NONE',  ( 0.6493648842369652600, 1.449000000000000100, 0.6493648842369654800 ) ) ;
#828 = SURFACE_STYLE_FILL_AREA ( #536 ) ;
#829 =( NAMED_UNIT ( * ) PLANE_ANGLE_UNIT ( ) SI_UNIT ( $, .RADIAN. ) );
#830 = FACE_BOUND ( 'NONE', #187, .T. ) ;
#831 = VECTOR ( 'NONE', #920, 1000.000000000000000 ) ;
#832 = PLANE ( 'NONE',  #485 ) ;
#833 = AXIS2_PLACEMENT_3D ( 'NONE', #890, #435, #969 ) ;
#834 = DIRECTION ( 'NONE',  ( 0.0000000000000000000, 0.0000000000000000000, 1.000000000000000000 ) ) ;
#835 = CARTESIAN_POINT ( 'NONE',  ( 0.4499999999999999000, 0.0000000000000000000, -0.8250000000000001800 ) ) ;
#836 = DIRECTION ( 'NONE',  ( 0.0000000000000000000, 0.0000000000000000000, 1.000000000000000000 ) ) ;
#837 = ADVANCED_FACE ( 'NONE', ( #575 ), #709, .F. ) ;
#838 = DIRECTION ( 'NONE',  ( -1.000000000000000000, 0.0000000000000000000, 0.0000000000000000000 ) ) ;
#839 = ORIENTED_EDGE ( 'NONE', *, *, #931, .F. ) ;
#840 = CARTESIAN_POINT ( 'NONE',  ( 0.8999999999999998000, 0.05000000000000000300, -0.8250000000000001800 ) ) ;
#841 = CARTESIAN_POINT ( 'NONE',  ( -0.8999999999999995800, 0.05000000000000000300, -0.8249999999999999600 ) ) ;
#842 = CARTESIAN_POINT ( 'NONE',  ( -0.4499999999999998400, 0.05000000000000000300, 0.8249999999999999600 ) ) ;
#843 = LINE ( 'NONE', #472, #210 ) ;
#844 = VECTOR ( 'NONE', #268, 1000.000000000000000 ) ;
#845 = SURFACE_STYLE_USAGE ( .BOTH. , #293 ) ;
#846 =( GEOMETRIC_REPRESENTATION_CONTEXT ( 3 ) GLOBAL_UNCERTAINTY_ASSIGNED_CONTEXT ( ( #611 ) ) GLOBAL_UNIT_ASSIGNED_CONTEXT ( ( #813, #99, #350 ) ) REPRESENTATION_CONTEXT ( 'NONE', 'WORKASPACE' ) );
#847 = VERTEX_POINT ( 'NONE', #49 ) ;
#848 = CARTESIAN_POINT ( 'NONE',  ( 0.6493648842369652600, 1.449000000000000100, -0.6493648842369654800 ) ) ;
#849 = SURFACE_SIDE_STYLE ('',( #418 ) ) ;
#850 = SURFACE_STYLE_USAGE ( .BOTH. , #1002 ) ;
#851 = FACE_OUTER_BOUND ( 'NONE', #235, .T. ) ;
#852 =( GEOMETRIC_REPRESENTATION_CONTEXT ( 3 ) GLOBAL_UNCERTAINTY_ASSIGNED_CONTEXT ( ( #154 ) ) GLOBAL_UNIT_ASSIGNED_CONTEXT ( ( #256, #805, #341 ) ) REPRESENTATION_CONTEXT ( 'NONE', 'WORKASPACE' ) );
#853 = FACE_OUTER_BOUND ( 'NONE', #793, .T. ) ;
#854 = CARTESIAN_POINT ( 'NONE',  ( -0.4499999999999998400, 0.05000000000000000300, -0.8249999999999999600 ) ) ;
#855 = CARTESIAN_POINT ( 'NONE',  ( -0.8999999999999995800, 0.0000000000000000000, 0.8249999999999999600 ) ) ;
#856 = ORIENTED_EDGE ( 'NONE', *, *, #415, .F. ) ;
#857 = DIRECTION ( 'NONE',  ( 1.000000000000000000, -0.0000000000000000000, -0.0000000000000000000 ) ) ;
#858 = FILL_AREA_STYLE_COLOUR ( '', #597 ) ;
#859 = ORIENTED_EDGE ( 'NONE', *, *, #414, .F. ) ;
#860 = CARTESIAN_POINT ( 'NONE',  ( -1.099999999999999400, 0.05000000000000000300, -1.098253961525412100 ) ) ;
#861 = FACE_OUTER_BOUND ( 'NONE', #328, .T. ) ;
#862 = ORIENTED_EDGE ( 'NONE', *, *, #300, .T. ) ;
#863 = VECTOR ( 'NONE', #978, 1000.000000000000000 ) ;
#864 = FILL_AREA_STYLE_COLOUR ( '', #1010 ) ;
#865 = AXIS2_PLACEMENT_3D ( 'NONE', #910, #284, #836 ) ;
#866 = DIRECTION ( 'NONE',  ( 0.0000000000000000000, -0.0000000000000000000, 1.000000000000000000 ) ) ;
#867 = LINE ( 'NONE', #974, #238 ) ;
#868 = ORIENTED_EDGE ( 'NONE', *, *, #730, .F. ) ;
#869 =( GEOMETRIC_REPRESENTATION_CONTEXT ( 3 ) GLOBAL_UNCERTAINTY_ASSIGNED_CONTEXT ( ( #44 ) ) GLOBAL_UNIT_ASSIGNED_CONTEXT ( ( #543, #50, #618 ) ) REPRESENTATION_CONTEXT ( 'NONE', 'WORKASPACE' ) );
#870 = EDGE_CURVE ( 'NONE', #221, #441, #892, .T. ) ;
#871 = FACE_OUTER_BOUND ( 'NONE', #214, .T. ) ;
#872 = VERTEX_POINT ( 'NONE', #541 ) ;
#873 = EDGE_CURVE ( 'NONE', #954, #308, #305, .T. ) ;
#874 =( LENGTH_UNIT ( ) NAMED_UNIT ( * ) SI_UNIT ( .MILLI., .METRE. ) );
#875 = VERTEX_POINT ( 'NONE', #603 ) ;
#876 = ORIENTED_EDGE ( 'NONE', *, *, #675, .F. ) ;
#877 = AXIS2_PLACEMENT_3D ( 'NONE', #397, #785, #227 ) ;
#878 = COLOUR_RGB ( '',0.8274509803921568100, 0.8392156862745098200, 0.8274509803921568100 ) ;
#879 = UNCERTAINTY_MEASURE_WITH_UNIT (LENGTH_MEASURE( 1.000000000000000100E-005 ), #384, 'distance_accuracy_value', 'NONE');
#880 = UNCERTAINTY_MEASURE_WITH_UNIT (LENGTH_MEASURE( 1.000000000000000100E-005 ), #274, 'distance_accuracy_value', 'NONE');
#881 =( LENGTH_UNIT ( ) NAMED_UNIT ( * ) SI_UNIT ( .MILLI., .METRE. ) );
#882 = AXIS2_PLACEMENT_3D ( 'NONE', #646, #106, #433 ) ;
#883 = DIRECTION ( 'NONE',  ( 0.0000000000000000000, -1.000000000000000000, 0.0000000000000000000 ) ) ;
#884 = ORIENTED_EDGE ( 'NONE', *, *, #578, .F. ) ;
#885 = AXIS2_PLACEMENT_3D ( 'NONE', #692, #197, #760 ) ;
#886 = ADVANCED_FACE ( 'NONE', ( #871 ), #607, .T. ) ;
#887 = COLOUR_RGB ( '',0.8274509803921568100, 0.8392156862745098200, 0.8274509803921568100 ) ;
#888 = VERTEX_POINT ( 'NONE', #116 ) ;
#889 = STYLED_ITEM ( 'NONE', ( #1 ), #542 ) ;
#890 = CARTESIAN_POINT ( 'NONE',  ( 0.6493648842369652600, 1.450000000000000000, 0.6493648842369654800 ) ) ;
#891 = DIRECTION ( 'NONE',  ( 1.000000000000000000, 0.0000000000000000000, 2.409338161078899700E-016 ) ) ;
#892 = LINE ( 'NONE', #369, #83 ) ;
#893 = ORIENTED_EDGE ( 'NONE', *, *, #79, .T. ) ;
#894 = DIRECTION ( 'NONE',  ( -1.000000000000000000, -0.0000000000000000000, -2.409338161078899700E-016 ) ) ;
#895 = DIRECTION ( 'NONE',  ( 1.000000000000000000, -0.0000000000000000000, -0.0000000000000000000 ) ) ;
#896 = EDGE_LOOP ( 'NONE', ( #626, #964, #862, #797 ) ) ;
#897 = ORIENTED_EDGE ( 'NONE', *, *, #69, .T. ) ;
#898 = DIRECTION ( 'NONE',  ( 0.0000000000000000000, -0.0000000000000000000, 1.000000000000000000 ) ) ;
#899 = SURFACE_STYLE_USAGE ( .BOTH. , #366 ) ;
#900 = CARTESIAN_POINT ( 'NONE',  ( 0.6493648842369652600, 1.449000000000000100, 0.7993648842369653900 ) ) ;
#901 = PRODUCT_DEFINITION_CONTEXT ( 'detailed design', #20, 'design' ) ;
#902 = DIRECTION ( 'NONE',  ( 0.0000000000000000000, 0.0000000000000000000, 1.000000000000000000 ) ) ;
#903 = FILL_AREA_STYLE ('',( #278 ) ) ;
#904 = SURFACE_STYLE_USAGE ( .BOTH. , #48 ) ;
#905 = PLANE ( 'NONE',  #151 ) ;
#906 = DIRECTION ( 'NONE',  ( 0.0000000000000000000, 1.000000000000000000, -0.0000000000000000000 ) ) ;
#907 = ADVANCED_FACE ( 'NONE', ( #510 ), #183, .F. ) ;
#908 = DIRECTION ( 'NONE',  ( 1.000000000000000000, -0.0000000000000000000, -0.0000000000000000000 ) ) ;
#909 = AXIS2_PLACEMENT_3D ( 'NONE', #854, #619, #127 ) ;
#910 = CARTESIAN_POINT ( 'NONE',  ( -0.6493648842369649200, 1.450000000000000000, -8.027589719052687700E-020 ) ) ;
#911 = CARTESIAN_POINT ( 'NONE',  ( -1.049364884236964900, 1.450000000000000000, -1.049364884236964900 ) ) ;
#912 = SURFACE_STYLE_FILL_AREA ( #473 ) ;
#913 = FILL_AREA_STYLE_COLOUR ( '', #526 ) ;
#914 = ORIENTED_EDGE ( 'NONE', *, *, #675, .T. ) ;
#915 = ADVANCED_FACE ( 'NONE', ( #853 ), #373, .T. ) ;
#916 = DIRECTION ( 'NONE',  ( 0.9993908270190957600, 0.03489949670250105200, -2.955113743135060200E-016 ) ) ;
#917 = COLOUR_RGB ( '',0.8274509803921568100, 0.8392156862745098200, 0.8274509803921568100 ) ;
#918 =( NAMED_UNIT ( * ) PLANE_ANGLE_UNIT ( ) SI_UNIT ( $, .RADIAN. ) );
#919 = COLOUR_RGB ( '',0.8274509803921568100, 0.8392156862745098200, 0.8274509803921568100 ) ;
#920 = DIRECTION ( 'NONE',  ( 0.0000000000000000000, 0.0000000000000000000, -1.000000000000000000 ) ) ;
#921 = CARTESIAN_POINT ( 'NONE',  ( 0.6493648842369652600, 1.449000000000000100, -0.7993648842369653900 ) ) ;
#922 = DIRECTION ( 'NONE',  ( 0.0000000000000000000, 0.0000000000000000000, 1.000000000000000000 ) ) ;
#923 = VERTEX_POINT ( 'NONE', #835 ) ;
#924 =( NAMED_UNIT ( * ) PLANE_ANGLE_UNIT ( ) SI_UNIT ( $, .RADIAN. ) );
#925 =( NAMED_UNIT ( * ) SI_UNIT ( $, .STERADIAN. ) SOLID_ANGLE_UNIT ( ) );
#926 = PRESENTATION_STYLE_ASSIGNMENT (( #90 ) ) ;
#927 = CIRCLE ( 'NONE', #994, 0.1499999999999999700 ) ;
#928 = VERTEX_POINT ( 'NONE', #840 ) ;
#929 = CARTESIAN_POINT ( 'NONE',  ( 1.098253961525413400, 0.05000000000000001000, 1.098253961525413400 ) ) ;
#930 = DIRECTION ( 'NONE',  ( 0.0000000000000000000, 1.000000000000000000, -0.0000000000000000000 ) ) ;
#931 = EDGE_CURVE ( 'NONE', #518, #157, #363, .T. ) ;
#932 = EDGE_LOOP ( 'NONE', ( #635, #750, #158, #496 ) ) ;
#933 = ORIENTED_EDGE ( 'NONE', *, *, #821, .T. ) ;
#934 = ORIENTED_EDGE ( 'NONE', *, *, #69, .F. ) ;
#935 = CARTESIAN_POINT ( 'NONE',  ( 0.6493648842369652600, 1.449000000000000100, -0.6493648842369654800 ) ) ;
#936 = SURFACE_SIDE_STYLE ('',( #316 ) ) ;
#937 = FACE_OUTER_BOUND ( 'NONE', #778, .T. ) ;
#938 = DIRECTION ( 'NONE',  ( 0.0000000000000000000, 0.0000000000000000000, -1.000000000000000000 ) ) ;
#939 = PRESENTATION_LAYER_ASSIGNMENT (  '', '', ( #826 ) ) ;
#940 = DIRECTION ( 'NONE',  ( 0.0000000000000000000, 0.0000000000000000000, -1.000000000000000000 ) ) ;
#941 = FACE_OUTER_BOUND ( 'NONE', #179, .T. ) ;
#942 = STYLED_ITEM ( 'NONE', ( #317 ), #699 ) ;
#943 = SURFACE_STYLE_FILL_AREA ( #702 ) ;
#944 = AXIS2_PLACEMENT_3D ( 'NONE', #827, #521, #902 ) ;
#945 = SURFACE_STYLE_FILL_AREA ( #456 ) ;
#946 = PRESENTATION_LAYER_ASSIGNMENT (  '', '', ( #889 ) ) ;
#947 = EDGE_CURVE ( 'NONE', #295, #392, #581, .T. ) ;
#948 = ORIENTED_EDGE ( 'NONE', *, *, #870, .F. ) ;
#949 = LINE ( 'NONE', #509, #105 ) ;
#950 = LINE ( 'NONE', #189, #325 ) ;
#951 = ORIENTED_EDGE ( 'NONE', *, *, #412, .F. ) ;
#952 = CIRCLE ( 'NONE', #489, 0.1499999999999999700 ) ;
#953 = ORIENTED_EDGE ( 'NONE', *, *, #78, .F. ) ;
#954 = VERTEX_POINT ( 'NONE', #131 ) ;
#955 = CIRCLE ( 'NONE', #532, 0.1499999999999999700 ) ;
#956 = VECTOR ( 'NONE', #547, 1000.000000000000000 ) ;
#957 = DIRECTION ( 'NONE',  ( 0.0000000000000000000, 0.0000000000000000000, -1.000000000000000000 ) ) ;
#958 = ORIENTED_EDGE ( 'NONE', *, *, #358, .T. ) ;
#959 = UNCERTAINTY_MEASURE_WITH_UNIT (LENGTH_MEASURE( 1.000000000000000100E-005 ), #455, 'distance_accuracy_value', 'NONE');
#960 =( NAMED_UNIT ( * ) SI_UNIT ( $, .STERADIAN. ) SOLID_ANGLE_UNIT ( ) );
#961 = CIRCLE ( 'NONE', #833, 0.1499999999999999700 ) ;
#962 = STYLED_ITEM ( 'NONE', ( #403 ), #378 ) ;
#963 = DIRECTION ( 'NONE',  ( 1.000000000000000000, 0.0000000000000000000, 0.0000000000000000000 ) ) ;
#964 = ORIENTED_EDGE ( 'NONE', *, *, #631, .T. ) ;
#965 = ADVANCED_FACE ( 'NONE', ( #150 ), #621, .T. ) ;
#966 = DIRECTION ( 'NONE',  ( 0.0000000000000000000, 0.0000000000000000000, 1.000000000000000000 ) ) ;
#967 = DIRECTION ( 'NONE',  ( -0.03487826274237469000, -0.9987827659587182900, 0.03487826274237469700 ) ) ;
#968 = DIRECTION ( 'NONE',  ( 0.0000000000000000000, -0.0000000000000000000, -1.000000000000000000 ) ) ;
#969 = DIRECTION ( 'NONE',  ( 0.0000000000000000000, 0.0000000000000000000, -1.000000000000000000 ) ) ;
#970 = CARTESIAN_POINT ( 'NONE',  ( -1.099999999999999000, 0.05000000000000000300, 1.098253961525413700 ) ) ;
#971 = ORIENTED_EDGE ( 'NONE', *, *, #415, .T. ) ;
#972 = STYLED_ITEM ( 'NONE', ( #333 ), #965 ) ;
#973 = ORIENTED_EDGE ( 'NONE', *, *, #728, .T. ) ;
#974 = CARTESIAN_POINT ( 'NONE',  ( -0.4499999999999998400, 0.05000000000000000300, 0.8249999999999999600 ) ) ;
#975 = DIRECTION ( 'NONE',  ( 0.0000000000000000000, 1.000000000000000000, 0.0000000000000000000 ) ) ;
#976 = EDGE_CURVE ( 'NONE', #875, #791, #690, .T. ) ;
#977 = DIRECTION ( 'NONE',  ( -0.0000000000000000000, 1.000000000000000000, -0.0000000000000000000 ) ) ;
#978 = DIRECTION ( 'NONE',  ( -0.0000000000000000000, -1.000000000000000000, -0.0000000000000000000 ) ) ;
#979 =( NAMED_UNIT ( * ) PLANE_ANGLE_UNIT ( ) SI_UNIT ( $, .RADIAN. ) );
#980 = CARTESIAN_POINT ( 'NONE',  ( -0.6493648842369649200, 1.449000000000000100, -8.027589719052687700E-020 ) ) ;
#981 = MECHANICAL_DESIGN_GEOMETRIC_PRESENTATION_REPRESENTATION (  '', ( #826 ), #14 ) ;
#982 = SURFACE_STYLE_USAGE ( .BOTH. , #454 ) ;
#983 = CARTESIAN_POINT ( 'NONE',  ( 0.4499999999999999000, 0.0000000000000000000, 0.8250000000000001800 ) ) ;
#984 = DIRECTION ( 'NONE',  ( 0.0000000000000000000, 1.000000000000000000, 0.0000000000000000000 ) ) ;
#985 = FILL_AREA_STYLE_COLOUR ( '', #149 ) ;
#986 = PRESENTATION_LAYER_ASSIGNMENT (  '', '', ( #942 ) ) ;
#988 = ORIENTED_EDGE ( 'NONE', *, *, #303, .T. ) ;
#987 = COLOUR_RGB ( '',0.7960784313725489700, 0.8235294117647058400, 0.9372549019607843100 ) ;
#989 = DIRECTION ( 'NONE',  ( 0.0000000000000000000, 1.000000000000000000, 0.0000000000000000000 ) ) ;
#990 = SURFACE_STYLE_USAGE ( .BOTH. , #459 ) ;
#991 = CARTESIAN_POINT ( 'NONE',  ( 0.6493648842369652600, 1.449000000000000100, 0.7993648842369653900 ) ) ;
#992 = ADVANCED_FACE ( 'NONE', ( #484 ), #212, .F. ) ;
#993 = DIRECTION ( 'NONE',  ( -0.0000000000000000000, 1.000000000000000000, -0.0000000000000000000 ) ) ;
#994 = AXIS2_PLACEMENT_3D ( 'NONE', #372, #906, #458 ) ;
#995 = MECHANICAL_DESIGN_GEOMETRIC_PRESENTATION_REPRESENTATION (  '', ( #889 ), #28 ) ;
#996 = DIRECTION ( 'NONE',  ( 1.000000000000000000, -0.0000000000000000000, 0.0000000000000000000 ) ) ;
#997 = EDGE_CURVE ( 'NONE', #791, #875, #952, .T. ) ;
#998 = ORIENTED_EDGE ( 'NONE', *, *, #631, .F. ) ;
#999 = VECTOR ( 'NONE', #143, 1000.000000000000000 ) ;
#1000 = SURFACE_SIDE_STYLE ('',( #255 ) ) ;
#1001 =( NAMED_UNIT ( * ) SI_UNIT ( $, .STERADIAN. ) SOLID_ANGLE_UNIT ( ) );
#1002 = SURFACE_SIDE_STYLE ('',( #912 ) ) ;
#1003 = AXIS2_PLACEMENT_3D ( 'NONE', #737, #429, #963 ) ;
#1004 = EDGE_LOOP ( 'NONE', ( #951, #181 ) ) ;
#1005 = EDGE_LOOP ( 'NONE', ( #884, #868, #112, #77 ) ) ;
#1006 =( GEOMETRIC_REPRESENTATION_CONTEXT ( 3 ) GLOBAL_UNCERTAINTY_ASSIGNED_CONTEXT ( ( #233 ) ) GLOBAL_UNIT_ASSIGNED_CONTEXT ( ( #617, #194, #335 ) ) REPRESENTATION_CONTEXT ( 'NONE', 'WORKASPACE' ) );
#1007 = FACE_OUTER_BOUND ( 'NONE', #80, .T. ) ;
#1008 = DIRECTION ( 'NONE',  ( -0.0000000000000000000, 1.000000000000000000, -0.0000000000000000000 ) ) ;
#1009 = FACE_OUTER_BOUND ( 'NONE', #216, .T. ) ;
#1010 = COLOUR_RGB ( '',0.1921568627450980200, 0.2039215686274509800, 0.2039215686274509800 ) ;
#1011 = LINE ( 'NONE', #42, #405 ) ;
ENDSEC;
END-ISO-10303-21;
