ISO-10303-21;
HEADER;
FILE_DESCRIPTION((''),'2;1');
FILE_NAME('C-2-1625958-7','2025-06-17T03:39:58',('workeradm'),(''),
'CREO PARAMETRIC BY PTC INC, 2024374','CREO PARAMETRIC BY PTC INC, 2024374','');
FILE_SCHEMA(('AUTOMOTIVE_DESIGN { 1 0 10303 214 1 1 1 1 }'));
ENDSEC;
DATA;
#15=DIRECTION('',(1.E0,0.E0,0.E0));
#16=VECTOR('',#15,2.16E0);
#17=CARTESIAN_POINT('',(-1.253E1,-6.196152422707E-1,0.E0));
#18=LINE('',#17,#16);
#19=DIRECTION('',(0.E0,1.E0,0.E0));
#20=VECTOR('',#19,3.E0);
#21=CARTESIAN_POINT('',(-1.325E1,-1.5E0,0.E0));
#22=LINE('',#21,#20);
#23=DIRECTION('',(-1.E0,0.E0,0.E0));
#24=VECTOR('',#23,2.65E1);
#25=CARTESIAN_POINT('',(1.325E1,1.5E0,0.E0));
#26=LINE('',#25,#24);
#27=DIRECTION('',(0.E0,-1.E0,0.E0));
#28=VECTOR('',#27,3.E0);
#29=CARTESIAN_POINT('',(1.325E1,1.5E0,0.E0));
#30=LINE('',#29,#28);
#31=DIRECTION('',(0.E0,1.E0,0.E0));
#32=VECTOR('',#31,8.803847577293E-1);
#33=CARTESIAN_POINT('',(1.253E1,-1.5E0,0.E0));
#34=LINE('',#33,#32);
#35=DIRECTION('',(1.E0,0.E0,0.E0));
#36=VECTOR('',#35,2.16E0);
#37=CARTESIAN_POINT('',(1.037E1,-6.196152422707E-1,0.E0));
#38=LINE('',#37,#36);
#39=DIRECTION('',(0.E0,1.E0,0.E0));
#40=VECTOR('',#39,8.803847577293E-1);
#41=CARTESIAN_POINT('',(-1.037E1,-1.5E0,0.E0));
#42=LINE('',#41,#40);
#43=CARTESIAN_POINT('',(1.253E1,-6.196152422707E-1,0.E0));
#44=CARTESIAN_POINT('',(1.237584782233E1,-6.550757729852E-1,1.323405022898E-1));
#45=CARTESIAN_POINT('',(1.203957122396E1,-7.069532731584E-1,3.259499687061E-1));
#46=CARTESIAN_POINT('',(1.165623857948E1,-7.267949192431E-1,4.E-1));
#47=CARTESIAN_POINT('',(1.145E1,-7.267949192431E-1,4.E-1));
#49=CARTESIAN_POINT('',(1.145E1,-7.267949192431E-1,4.E-1));
#50=CARTESIAN_POINT('',(1.124376142052E1,-7.267949192431E-1,4.E-1));
#51=CARTESIAN_POINT('',(1.086042877604E1,-7.069532731584E-1,3.259499687061E-1));
#52=CARTESIAN_POINT('',(1.052415217767E1,-6.550757729852E-1,1.323405022898E-1));
#53=CARTESIAN_POINT('',(1.037E1,-6.196152422707E-1,0.E0));
#55=CARTESIAN_POINT('',(-1.037E1,-6.196152422707E-1,0.E0));
#56=CARTESIAN_POINT('',(-1.052415217767E1,-6.550757729852E-1,
1.323405022898E-1));
#57=CARTESIAN_POINT('',(-1.086042877604E1,-7.069532731584E-1,
3.259499687061E-1));
#58=CARTESIAN_POINT('',(-1.124376142052E1,-7.267949192431E-1,4.E-1));
#59=CARTESIAN_POINT('',(-1.145E1,-7.267949192431E-1,4.E-1));
#61=CARTESIAN_POINT('',(-1.145E1,-7.267949192431E-1,4.E-1));
#62=CARTESIAN_POINT('',(-1.165623857948E1,-7.267949192431E-1,4.E-1));
#63=CARTESIAN_POINT('',(-1.203957122396E1,-7.069532731584E-1,
3.259499687061E-1));
#64=CARTESIAN_POINT('',(-1.237584782233E1,-6.550757729852E-1,
1.323405022898E-1));
#65=CARTESIAN_POINT('',(-1.253E1,-6.196152422707E-1,0.E0));
#67=CARTESIAN_POINT('',(1.115E1,-1.026794919243E0,3.726330059213E-1));
#68=CARTESIAN_POINT('',(1.115E1,-1.044207709574E0,3.726330059213E-1));
#69=CARTESIAN_POINT('',(1.115296248561E1,-1.078544853680E0,3.731826670176E-1));
#70=CARTESIAN_POINT('',(1.116653855054E1,-1.129618859801E0,3.756212912214E-1));
#71=CARTESIAN_POINT('',(1.118862837315E1,-1.177160358088E0,3.793407481794E-1));
#72=CARTESIAN_POINT('',(1.121902855675E1,-1.220646999545E0,3.839511084750E-1));
#73=CARTESIAN_POINT('',(1.125615100766E1,-1.257768996437E0,3.887972436035E-1));
#74=CARTESIAN_POINT('',(1.129964185589E1,-1.288171610218E0,3.933806516891E-1));
#75=CARTESIAN_POINT('',(1.134713712437E1,-1.310229638996E0,3.970531898041E-1));
#76=CARTESIAN_POINT('',(1.139797960094E1,-1.323782382472E0,3.994506858349E-1));
#77=CARTESIAN_POINT('',(1.143247599166E1,-1.326794919243E0,4.E-1));
#78=CARTESIAN_POINT('',(1.145E1,-1.326794919243E0,4.E-1));
#80=DIRECTION('',(0.E0,1.E0,0.E0));
#81=VECTOR('',#80,8.803847577293E-1);
#82=CARTESIAN_POINT('',(1.037E1,-1.5E0,0.E0));
#83=LINE('',#82,#81);
#84=CARTESIAN_POINT('',(1.145E1,-7.267949192431E-1,4.E-1));
#85=CARTESIAN_POINT('',(1.143251238705E1,-7.267949192431E-1,4.E-1));
#86=CARTESIAN_POINT('',(1.139806808804E1,-7.297871937561E-1,3.994542465552E-1));
#87=CARTESIAN_POINT('',(1.134709843061E1,-7.433739903643E-1,3.970509133674E-1));
#88=CARTESIAN_POINT('',(1.129970113231E1,-7.653858705537E-1,3.933857632499E-1));
#89=CARTESIAN_POINT('',(1.125612004460E1,-7.958400828294E-1,3.887942523060E-1));
#90=CARTESIAN_POINT('',(1.121901013617E1,-8.329678500687E-1,3.839482452548E-1));
#91=CARTESIAN_POINT('',(1.118861704689E1,-8.764484737300E-1,3.793389575828E-1));
#92=CARTESIAN_POINT('',(1.116653639750E1,-9.239844244186E-1,3.756208569543E-1));
#93=CARTESIAN_POINT('',(1.115297107865E1,-9.750035085993E-1,3.731842361699E-1));
#94=CARTESIAN_POINT('',(1.115E1,-1.009363522609E0,3.726330059213E-1));
#95=CARTESIAN_POINT('',(1.115E1,-1.026794919243E0,3.726330059213E-1));
#97=CARTESIAN_POINT('',(1.145E1,-1.326794919243E0,4.E-1));
#98=CARTESIAN_POINT('',(1.146748761295E1,-1.326794919243E0,4.E-1));
#99=CARTESIAN_POINT('',(1.150193191196E1,-1.323802644730E0,3.994542465552E-1));
#100=CARTESIAN_POINT('',(1.155290156939E1,-1.310215848122E0,3.970509133674E-1));
#101=CARTESIAN_POINT('',(1.160029886769E1,-1.288203967933E0,3.933857632499E-1));
#102=CARTESIAN_POINT('',(1.164387995540E1,-1.257749755657E0,3.887942523060E-1));
#103=CARTESIAN_POINT('',(1.168098986383E1,-1.220621988418E0,3.839482452548E-1));
#104=CARTESIAN_POINT('',(1.171138295311E1,-1.177141364756E0,3.793389575828E-1));
#105=CARTESIAN_POINT('',(1.173346360250E1,-1.129605414068E0,3.756208569543E-1));
#106=CARTESIAN_POINT('',(1.174702892135E1,-1.078586329887E0,3.731842361699E-1));
#107=CARTESIAN_POINT('',(1.175E1,-1.044226315877E0,3.726330059213E-1));
#108=CARTESIAN_POINT('',(1.175E1,-1.026794919243E0,3.726330059213E-1));
#110=CARTESIAN_POINT('',(1.175E1,-1.026794919243E0,3.726330059213E-1));
#111=CARTESIAN_POINT('',(1.175E1,-1.009382128912E0,3.726330059213E-1));
#112=CARTESIAN_POINT('',(1.174703751439E1,-9.750449848065E-1,
3.731826670176E-1));
#113=CARTESIAN_POINT('',(1.173346144946E1,-9.239709786849E-1,
3.756212912214E-1));
#114=CARTESIAN_POINT('',(1.171137162685E1,-8.764294803985E-1,
3.793407481794E-1));
#115=CARTESIAN_POINT('',(1.168097144325E1,-8.329428389417E-1,
3.839511084750E-1));
#116=CARTESIAN_POINT('',(1.164384899234E1,-7.958208420492E-1,
3.887972436035E-1));
#117=CARTESIAN_POINT('',(1.160035814411E1,-7.654182282683E-1,
3.933806516891E-1));
#118=CARTESIAN_POINT('',(1.155286287563E1,-7.433601994904E-1,
3.970531898041E-1));
#119=CARTESIAN_POINT('',(1.150202039906E1,-7.298074560144E-1,
3.994506858349E-1));
#120=CARTESIAN_POINT('',(1.146752400834E1,-7.267949192431E-1,4.E-1));
#121=CARTESIAN_POINT('',(1.145E1,-7.267949192431E-1,4.E-1));
#123=DIRECTION('',(0.E0,0.E0,1.E0));
#124=VECTOR('',#123,2.502736699408E1);
#125=CARTESIAN_POINT('',(1.115E1,-1.026794919243E0,3.726330059213E-1));
#126=LINE('',#125,#124);
#127=DIRECTION('',(0.E0,0.E0,1.E0));
#128=VECTOR('',#127,2.502736699408E1);
#129=CARTESIAN_POINT('',(1.175E1,-1.026794919243E0,3.726330059213E-1));
#130=LINE('',#129,#128);
#131=CARTESIAN_POINT('',(1.145E1,-1.026794919243E0,2.54E1));
#132=DIRECTION('',(0.E0,0.E0,1.E0));
#133=DIRECTION('',(-1.E0,0.E0,0.E0));
#134=AXIS2_PLACEMENT_3D('',#131,#132,#133);
#136=CARTESIAN_POINT('',(1.145E1,-1.026794919243E0,2.54E1));
#137=DIRECTION('',(0.E0,0.E0,1.E0));
#138=DIRECTION('',(1.E0,0.E0,0.E0));
#139=AXIS2_PLACEMENT_3D('',#136,#137,#138);
#141=CARTESIAN_POINT('',(-1.145E1,-1.026794919243E0,2.54E1));
#142=DIRECTION('',(0.E0,0.E0,1.E0));
#143=DIRECTION('',(-1.E0,0.E0,0.E0));
#144=AXIS2_PLACEMENT_3D('',#141,#142,#143);
#146=CARTESIAN_POINT('',(-1.145E1,-1.026794919243E0,2.54E1));
#147=DIRECTION('',(0.E0,0.E0,1.E0));
#148=DIRECTION('',(1.E0,0.E0,0.E0));
#149=AXIS2_PLACEMENT_3D('',#146,#147,#148);
#151=DIRECTION('',(0.E0,0.E0,1.E0));
#152=VECTOR('',#151,2.502736699408E1);
#153=CARTESIAN_POINT('',(-1.175E1,-1.026794919243E0,3.726330059213E-1));
#154=LINE('',#153,#152);
#155=CARTESIAN_POINT('',(-1.175E1,-1.026794919243E0,3.726330059213E-1));
#156=CARTESIAN_POINT('',(-1.175E1,-1.044207709574E0,3.726330059213E-1));
#157=CARTESIAN_POINT('',(-1.174703751439E1,-1.078544853680E0,
3.731826670176E-1));
#158=CARTESIAN_POINT('',(-1.173346144946E1,-1.129618859801E0,
3.756212912214E-1));
#159=CARTESIAN_POINT('',(-1.171137162685E1,-1.177160358088E0,
3.793407481794E-1));
#160=CARTESIAN_POINT('',(-1.168097144325E1,-1.220646999545E0,
3.839511084750E-1));
#161=CARTESIAN_POINT('',(-1.164384899234E1,-1.257768996437E0,
3.887972436035E-1));
#162=CARTESIAN_POINT('',(-1.160035814411E1,-1.288171610218E0,
3.933806516891E-1));
#163=CARTESIAN_POINT('',(-1.155286287563E1,-1.310229638996E0,
3.970531898041E-1));
#164=CARTESIAN_POINT('',(-1.150202039906E1,-1.323782382472E0,
3.994506858349E-1));
#165=CARTESIAN_POINT('',(-1.146752400834E1,-1.326794919243E0,4.E-1));
#166=CARTESIAN_POINT('',(-1.145E1,-1.326794919243E0,4.E-1));
#168=DIRECTION('',(0.E0,1.E0,0.E0));
#169=VECTOR('',#168,8.803847577293E-1);
#170=CARTESIAN_POINT('',(-1.253E1,-1.5E0,0.E0));
#171=LINE('',#170,#169);
#172=CARTESIAN_POINT('',(-1.145E1,-7.267949192431E-1,4.E-1));
#173=CARTESIAN_POINT('',(-1.146748761295E1,-7.267949192431E-1,4.E-1));
#174=CARTESIAN_POINT('',(-1.150193191196E1,-7.297871937561E-1,
3.994542465552E-1));
#175=CARTESIAN_POINT('',(-1.155290156939E1,-7.433739903643E-1,
3.970509133674E-1));
#176=CARTESIAN_POINT('',(-1.160029886769E1,-7.653858705537E-1,
3.933857632499E-1));
#177=CARTESIAN_POINT('',(-1.164387995540E1,-7.958400828294E-1,
3.887942523060E-1));
#178=CARTESIAN_POINT('',(-1.168098986383E1,-8.329678500687E-1,
3.839482452548E-1));
#179=CARTESIAN_POINT('',(-1.171138295311E1,-8.764484737300E-1,
3.793389575828E-1));
#180=CARTESIAN_POINT('',(-1.173346360250E1,-9.239844244186E-1,
3.756208569543E-1));
#181=CARTESIAN_POINT('',(-1.174702892135E1,-9.750035085993E-1,
3.731842361699E-1));
#182=CARTESIAN_POINT('',(-1.175E1,-1.009363522609E0,3.726330059213E-1));
#183=CARTESIAN_POINT('',(-1.175E1,-1.026794919243E0,3.726330059213E-1));
#185=CARTESIAN_POINT('',(-1.145E1,-1.326794919243E0,4.E-1));
#186=CARTESIAN_POINT('',(-1.143251238705E1,-1.326794919243E0,4.E-1));
#187=CARTESIAN_POINT('',(-1.139806808804E1,-1.323802644730E0,
3.994542465552E-1));
#188=CARTESIAN_POINT('',(-1.134709843061E1,-1.310215848122E0,
3.970509133674E-1));
#189=CARTESIAN_POINT('',(-1.129970113231E1,-1.288203967933E0,
3.933857632499E-1));
#190=CARTESIAN_POINT('',(-1.125612004460E1,-1.257749755657E0,
3.887942523060E-1));
#191=CARTESIAN_POINT('',(-1.121901013617E1,-1.220621988418E0,
3.839482452548E-1));
#192=CARTESIAN_POINT('',(-1.118861704689E1,-1.177141364756E0,
3.793389575828E-1));
#193=CARTESIAN_POINT('',(-1.116653639750E1,-1.129605414068E0,
3.756208569543E-1));
#194=CARTESIAN_POINT('',(-1.115297107865E1,-1.078586329887E0,
3.731842361699E-1));
#195=CARTESIAN_POINT('',(-1.115E1,-1.044226315877E0,3.726330059213E-1));
#196=CARTESIAN_POINT('',(-1.115E1,-1.026794919243E0,3.726330059213E-1));
#198=CARTESIAN_POINT('',(-1.115E1,-1.026794919243E0,3.726330059213E-1));
#199=CARTESIAN_POINT('',(-1.115E1,-1.009382128912E0,3.726330059213E-1));
#200=CARTESIAN_POINT('',(-1.115296248561E1,-9.750449848065E-1,
3.731826670176E-1));
#201=CARTESIAN_POINT('',(-1.116653855054E1,-9.239709786849E-1,
3.756212912214E-1));
#202=CARTESIAN_POINT('',(-1.118862837315E1,-8.764294803985E-1,
3.793407481794E-1));
#203=CARTESIAN_POINT('',(-1.121902855675E1,-8.329428389417E-1,
3.839511084750E-1));
#204=CARTESIAN_POINT('',(-1.125615100766E1,-7.958208420492E-1,
3.887972436035E-1));
#205=CARTESIAN_POINT('',(-1.129964185589E1,-7.654182282683E-1,
3.933806516891E-1));
#206=CARTESIAN_POINT('',(-1.134713712437E1,-7.433601994904E-1,
3.970531898041E-1));
#207=CARTESIAN_POINT('',(-1.139797960094E1,-7.298074560144E-1,
3.994506858349E-1));
#208=CARTESIAN_POINT('',(-1.143247599166E1,-7.267949192431E-1,4.E-1));
#209=CARTESIAN_POINT('',(-1.145E1,-7.267949192431E-1,4.E-1));
#211=CARTESIAN_POINT('',(1.145E1,-1.326794919243E0,-1.258E0));
#212=DIRECTION('',(0.E0,1.E0,0.E0));
#213=DIRECTION('',(-3.420373191498E-1,0.E0,9.396863691194E-1));
#214=AXIS2_PLACEMENT_3D('',#211,#212,#213);
#216=CARTESIAN_POINT('',(1.145E1,-1.326794919243E0,-1.258E0));
#217=DIRECTION('',(0.E0,1.E0,0.E0));
#218=DIRECTION('',(0.E0,0.E0,1.E0));
#219=AXIS2_PLACEMENT_3D('',#216,#217,#218);
#221=DIRECTION('',(1.E0,0.E0,0.E0));
#222=VECTOR('',#221,1.134195750301E0);
#223=CARTESIAN_POINT('',(1.088290212485E1,-1.326794919243E0,3.E-1));
#224=LINE('',#223,#222);
#225=CARTESIAN_POINT('',(-1.145E1,-1.326794919243E0,-1.258E0));
#226=DIRECTION('',(0.E0,1.E0,0.E0));
#227=DIRECTION('',(-3.420373191498E-1,0.E0,9.396863691194E-1));
#228=AXIS2_PLACEMENT_3D('',#225,#226,#227);
#230=CARTESIAN_POINT('',(-1.145E1,-1.326794919243E0,-1.258E0));
#231=DIRECTION('',(0.E0,1.E0,0.E0));
#232=DIRECTION('',(0.E0,0.E0,1.E0));
#233=AXIS2_PLACEMENT_3D('',#230,#231,#232);
#235=DIRECTION('',(1.E0,0.E0,0.E0));
#236=VECTOR('',#235,1.134195750301E0);
#237=CARTESIAN_POINT('',(-1.201709787515E1,-1.326794919243E0,3.E-1));
#238=LINE('',#237,#236);
#239=CARTESIAN_POINT('',(1.201709787515E1,-1.326794919243E0,3.E-1));
#240=CARTESIAN_POINT('',(1.221083253003E1,-1.367508308057E0,2.294823420255E-1));
#241=CARTESIAN_POINT('',(1.238075426345E1,-1.426025094225E0,1.281282952878E-1));
#242=CARTESIAN_POINT('',(1.253E1,-1.5E0,0.E0));
#244=CARTESIAN_POINT('',(1.037E1,-1.5E0,0.E0));
#245=CARTESIAN_POINT('',(1.051924573655E1,-1.426025094225E0,1.281282952878E-1));
#246=CARTESIAN_POINT('',(1.068916746997E1,-1.367508308057E0,2.294823420255E-1));
#247=CARTESIAN_POINT('',(1.088290212485E1,-1.326794919243E0,3.E-1));
#249=CARTESIAN_POINT('',(-1.088290212485E1,-1.326794919243E0,3.E-1));
#250=CARTESIAN_POINT('',(-1.068916746997E1,-1.367508308057E0,
2.294823420255E-1));
#251=CARTESIAN_POINT('',(-1.051924573655E1,-1.426025094225E0,
1.281282952878E-1));
#252=CARTESIAN_POINT('',(-1.037E1,-1.5E0,0.E0));
#254=CARTESIAN_POINT('',(-1.253E1,-1.5E0,0.E0));
#255=CARTESIAN_POINT('',(-1.238075426345E1,-1.426025094225E0,
1.281282952878E-1));
#256=CARTESIAN_POINT('',(-1.221083253003E1,-1.367508308057E0,
2.294823420255E-1));
#257=CARTESIAN_POINT('',(-1.201709787515E1,-1.326794919243E0,3.E-1));
#259=DIRECTION('',(1.E0,0.E0,0.E0));
#260=VECTOR('',#259,2.16E0);
#261=CARTESIAN_POINT('',(-1.253E1,-1.5E0,0.E0));
#262=LINE('',#261,#260);
#263=DIRECTION('',(1.E0,0.E0,0.E0));
#264=VECTOR('',#263,2.074E1);
#265=CARTESIAN_POINT('',(-1.037E1,-1.5E0,0.E0));
#266=LINE('',#265,#264);
#267=DIRECTION('',(1.E0,0.E0,0.E0));
#268=VECTOR('',#267,2.16E0);
#269=CARTESIAN_POINT('',(1.037E1,-1.5E0,0.E0));
#270=LINE('',#269,#268);
#271=DIRECTION('',(-1.E0,0.E0,0.E0));
#272=VECTOR('',#271,7.2E-1);
#273=CARTESIAN_POINT('',(1.325E1,-1.5E0,0.E0));
#274=LINE('',#273,#272);
#275=DIRECTION('',(1.E0,0.E0,0.E0));
#276=VECTOR('',#275,2.65E1);
#277=CARTESIAN_POINT('',(-1.325E1,-1.5E0,-5.5E0));
#278=LINE('',#277,#276);
#279=DIRECTION('',(0.E0,0.E0,-1.E0));
#280=VECTOR('',#279,5.5E0);
#281=CARTESIAN_POINT('',(-1.325E1,-1.5E0,0.E0));
#282=LINE('',#281,#280);
#283=DIRECTION('',(1.E0,0.E0,0.E0));
#284=VECTOR('',#283,7.2E-1);
#285=CARTESIAN_POINT('',(-1.325E1,-1.5E0,0.E0));
#286=LINE('',#285,#284);
#287=DIRECTION('',(0.E0,0.E0,1.E0));
#288=VECTOR('',#287,3.9E0);
#289=CARTESIAN_POINT('',(1.325E1,-5.E-1,-1.04E1));
#290=LINE('',#289,#288);
#291=DIRECTION('',(0.E0,7.071067811865E-1,-7.071067811865E-1));
#292=VECTOR('',#291,1.414213562373E0);
#293=CARTESIAN_POINT('',(1.325E1,-1.5E0,-5.5E0));
#294=LINE('',#293,#292);
#295=DIRECTION('',(0.E0,0.E0,-1.E0));
#296=VECTOR('',#295,5.5E0);
#297=CARTESIAN_POINT('',(1.325E1,-1.5E0,0.E0));
#298=LINE('',#297,#296);
#299=DIRECTION('',(0.E0,0.E0,-1.E0));
#300=VECTOR('',#299,1.04E1);
#301=CARTESIAN_POINT('',(1.325E1,1.5E0,0.E0));
#302=LINE('',#301,#300);
#303=DIRECTION('',(0.E0,7.071067811865E-1,-7.071067811865E-1));
#304=VECTOR('',#303,1.414213562373E0);
#305=CARTESIAN_POINT('',(-1.325E1,-1.5E0,-5.5E0));
#306=LINE('',#305,#304);
#307=DIRECTION('',(0.E0,0.E0,1.E0));
#308=VECTOR('',#307,3.9E0);
#309=CARTESIAN_POINT('',(-1.325E1,-5.E-1,-1.04E1));
#310=LINE('',#309,#308);
#311=DIRECTION('',(0.E0,0.E0,-1.E0));
#312=VECTOR('',#311,1.04E1);
#313=CARTESIAN_POINT('',(-1.325E1,1.5E0,0.E0));
#314=LINE('',#313,#312);
#315=DIRECTION('',(1.E0,0.E0,0.E0));
#316=VECTOR('',#315,2.65E1);
#317=CARTESIAN_POINT('',(-1.325E1,-5.E-1,-6.5E0));
#318=LINE('',#317,#316);
#319=DIRECTION('',(1.E0,0.E0,0.E0));
#320=VECTOR('',#319,2.65E1);
#321=CARTESIAN_POINT('',(-1.325E1,-5.E-1,-1.04E1));
#322=LINE('',#321,#320);
#323=DIRECTION('',(0.E0,1.E0,0.E0));
#324=VECTOR('',#323,2.E0);
#325=CARTESIAN_POINT('',(1.325E1,-5.E-1,-1.04E1));
#326=LINE('',#325,#324);
#327=DIRECTION('',(-1.E0,0.E0,0.E0));
#328=VECTOR('',#327,2.65E1);
#329=CARTESIAN_POINT('',(1.325E1,1.5E0,-1.04E1));
#330=LINE('',#329,#328);
#331=DIRECTION('',(0.E0,-1.E0,0.E0));
#332=VECTOR('',#331,2.E0);
#333=CARTESIAN_POINT('',(-1.325E1,1.5E0,-1.04E1));
#334=LINE('',#333,#332);
#335=DIRECTION('',(0.E0,0.E0,1.E0));
#336=VECTOR('',#335,2.502736699408E1);
#337=CARTESIAN_POINT('',(-1.115E1,-1.026794919243E0,3.726330059213E-1));
#338=LINE('',#337,#336);
#339=CARTESIAN_POINT('',(1.325E1,1.5E0,0.E0));
#340=CARTESIAN_POINT('',(-1.325E1,1.5E0,0.E0));
#341=VERTEX_POINT('',#339);
#342=VERTEX_POINT('',#340);
#343=CARTESIAN_POINT('',(1.325E1,1.5E0,-1.04E1));
#344=CARTESIAN_POINT('',(-1.325E1,1.5E0,-1.04E1));
#345=VERTEX_POINT('',#343);
#346=VERTEX_POINT('',#344);
#347=CARTESIAN_POINT('',(-1.325E1,-5.E-1,-1.04E1));
#348=CARTESIAN_POINT('',(1.325E1,-5.E-1,-1.04E1));
#349=VERTEX_POINT('',#347);
#350=VERTEX_POINT('',#348);
#351=CARTESIAN_POINT('',(-1.325E1,-1.5E0,-5.5E0));
#352=CARTESIAN_POINT('',(-1.325E1,-5.E-1,-6.5E0));
#353=VERTEX_POINT('',#351);
#354=VERTEX_POINT('',#352);
#355=CARTESIAN_POINT('',(1.325E1,-1.5E0,-5.5E0));
#356=VERTEX_POINT('',#355);
#357=CARTESIAN_POINT('',(1.325E1,-5.E-1,-6.5E0));
#358=VERTEX_POINT('',#357);
#359=VERTEX_POINT('',#239);
#360=VERTEX_POINT('',#242);
#361=VERTEX_POINT('',#244);
#362=VERTEX_POINT('',#247);
#363=VERTEX_POINT('',#249);
#364=VERTEX_POINT('',#252);
#365=VERTEX_POINT('',#254);
#366=VERTEX_POINT('',#257);
#367=CARTESIAN_POINT('',(1.325E1,-1.5E0,0.E0));
#368=VERTEX_POINT('',#367);
#369=CARTESIAN_POINT('',(-1.325E1,-1.5E0,0.E0));
#370=VERTEX_POINT('',#369);
#371=CARTESIAN_POINT('',(-1.253E1,-6.196152422707E-1,0.E0));
#372=CARTESIAN_POINT('',(-1.037E1,-6.196152422707E-1,0.E0));
#373=VERTEX_POINT('',#371);
#374=VERTEX_POINT('',#372);
#375=CARTESIAN_POINT('',(1.037E1,-6.196152422707E-1,0.E0));
#376=CARTESIAN_POINT('',(1.253E1,-6.196152422707E-1,0.E0));
#377=VERTEX_POINT('',#375);
#378=VERTEX_POINT('',#376);
#379=CARTESIAN_POINT('',(1.115E1,-1.026794919243E0,2.54E1));
#380=CARTESIAN_POINT('',(1.175E1,-1.026794919243E0,2.54E1));
#381=VERTEX_POINT('',#379);
#382=VERTEX_POINT('',#380);
#383=CARTESIAN_POINT('',(-1.175E1,-1.026794919243E0,2.54E1));
#384=CARTESIAN_POINT('',(-1.115E1,-1.026794919243E0,2.54E1));
#385=VERTEX_POINT('',#383);
#386=VERTEX_POINT('',#384);
#387=VERTEX_POINT('',#67);
#388=VERTEX_POINT('',#78);
#389=VERTEX_POINT('',#108);
#390=VERTEX_POINT('',#121);
#391=VERTEX_POINT('',#155);
#392=VERTEX_POINT('',#166);
#393=VERTEX_POINT('',#196);
#394=VERTEX_POINT('',#209);
#395=CARTESIAN_POINT('',(0.E0,0.E0,0.E0));
#396=DIRECTION('',(0.E0,0.E0,1.E0));
#397=DIRECTION('',(1.E0,0.E0,0.E0));
#398=AXIS2_PLACEMENT_3D('',#395,#396,#397);
#399=PLANE('',#398);
#401=ORIENTED_EDGE('',*,*,#400,.F.);
#403=ORIENTED_EDGE('',*,*,#402,.F.);
#405=ORIENTED_EDGE('',*,*,#404,.F.);
#407=ORIENTED_EDGE('',*,*,#406,.T.);
#409=ORIENTED_EDGE('',*,*,#408,.F.);
#411=ORIENTED_EDGE('',*,*,#410,.T.);
#413=ORIENTED_EDGE('',*,*,#412,.T.);
#415=ORIENTED_EDGE('',*,*,#414,.T.);
#417=ORIENTED_EDGE('',*,*,#416,.F.);
#419=ORIENTED_EDGE('',*,*,#418,.F.);
#421=ORIENTED_EDGE('',*,*,#420,.F.);
#423=ORIENTED_EDGE('',*,*,#422,.T.);
#424=EDGE_LOOP('',(#401,#403,#405,#407,#409,#411,#413,#415,#417,#419,#421,
#423));
#425=FACE_OUTER_BOUND('',#424,.F.);
#427=CARTESIAN_POINT('',(-1.325E1,-7.267949192431E-1,4.E-1));
#428=DIRECTION('',(0.E0,9.659258262891E-1,2.588190451025E-1));
#429=DIRECTION('',(0.E0,2.588190451025E-1,-9.659258262891E-1));
#430=AXIS2_PLACEMENT_3D('',#427,#428,#429);
#431=PLANE('',#430);
#433=ORIENTED_EDGE('',*,*,#432,.T.);
#435=ORIENTED_EDGE('',*,*,#434,.T.);
#436=ORIENTED_EDGE('',*,*,#416,.T.);
#437=EDGE_LOOP('',(#433,#435,#436));
#438=FACE_OUTER_BOUND('',#437,.F.);
#440=CARTESIAN_POINT('',(-1.325E1,-7.267949192431E-1,4.E-1));
#441=DIRECTION('',(0.E0,9.659258262891E-1,2.588190451025E-1));
#442=DIRECTION('',(0.E0,2.588190451025E-1,-9.659258262891E-1));
#443=AXIS2_PLACEMENT_3D('',#440,#441,#442);
#444=PLANE('',#443);
#446=ORIENTED_EDGE('',*,*,#445,.T.);
#448=ORIENTED_EDGE('',*,*,#447,.T.);
#449=ORIENTED_EDGE('',*,*,#400,.T.);
#450=EDGE_LOOP('',(#446,#448,#449));
#451=FACE_OUTER_BOUND('',#450,.F.);
#453=CARTESIAN_POINT('',(1.145E1,-1.5E0,-1.258E0));
#454=DIRECTION('',(0.E0,-1.E0,0.E0));
#455=DIRECTION('',(-1.E0,0.E0,0.E0));
#456=AXIS2_PLACEMENT_3D('',#453,#454,#455);
#457=CYLINDRICAL_SURFACE('',#456,1.658E0);
#459=ORIENTED_EDGE('',*,*,#458,.T.);
#461=ORIENTED_EDGE('',*,*,#460,.F.);
#463=ORIENTED_EDGE('',*,*,#462,.F.);
#464=ORIENTED_EDGE('',*,*,#418,.T.);
#465=ORIENTED_EDGE('',*,*,#434,.F.);
#467=ORIENTED_EDGE('',*,*,#466,.T.);
#468=EDGE_LOOP('',(#459,#461,#463,#464,#465,#467));
#469=FACE_OUTER_BOUND('',#468,.F.);
#471=CARTESIAN_POINT('',(1.145E1,-1.5E0,-1.258E0));
#472=DIRECTION('',(0.E0,-1.E0,0.E0));
#473=DIRECTION('',(-1.E0,0.E0,0.E0));
#474=AXIS2_PLACEMENT_3D('',#471,#472,#473);
#475=CYLINDRICAL_SURFACE('',#474,1.658E0);
#477=ORIENTED_EDGE('',*,*,#476,.T.);
#479=ORIENTED_EDGE('',*,*,#478,.T.);
#480=ORIENTED_EDGE('',*,*,#432,.F.);
#481=ORIENTED_EDGE('',*,*,#414,.F.);
#483=ORIENTED_EDGE('',*,*,#482,.F.);
#485=ORIENTED_EDGE('',*,*,#484,.F.);
#486=EDGE_LOOP('',(#477,#479,#480,#481,#483,#485));
#487=FACE_OUTER_BOUND('',#486,.F.);
#489=CARTESIAN_POINT('',(1.145E1,-1.026794919243E0,0.E0));
#490=DIRECTION('',(0.E0,0.E0,1.E0));
#491=DIRECTION('',(-1.E0,0.E0,0.E0));
#492=AXIS2_PLACEMENT_3D('',#489,#490,#491);
#493=CYLINDRICAL_SURFACE('',#492,3.E-1);
#494=ORIENTED_EDGE('',*,*,#458,.F.);
#496=ORIENTED_EDGE('',*,*,#495,.T.);
#498=ORIENTED_EDGE('',*,*,#497,.T.);
#500=ORIENTED_EDGE('',*,*,#499,.F.);
#501=ORIENTED_EDGE('',*,*,#476,.F.);
#502=EDGE_LOOP('',(#494,#496,#498,#500,#501));
#503=FACE_OUTER_BOUND('',#502,.F.);
#505=CARTESIAN_POINT('',(1.145E1,-1.026794919243E0,0.E0));
#506=DIRECTION('',(0.E0,0.E0,1.E0));
#507=DIRECTION('',(-1.E0,0.E0,0.E0));
#508=AXIS2_PLACEMENT_3D('',#505,#506,#507);
#509=CYLINDRICAL_SURFACE('',#508,3.E-1);
#510=ORIENTED_EDGE('',*,*,#478,.F.);
#511=ORIENTED_EDGE('',*,*,#499,.T.);
#513=ORIENTED_EDGE('',*,*,#512,.T.);
#514=ORIENTED_EDGE('',*,*,#495,.F.);
#515=ORIENTED_EDGE('',*,*,#466,.F.);
#516=EDGE_LOOP('',(#510,#511,#513,#514,#515));
#517=FACE_OUTER_BOUND('',#516,.F.);
#519=CARTESIAN_POINT('',(0.E0,0.E0,2.54E1));
#520=DIRECTION('',(0.E0,0.E0,1.E0));
#521=DIRECTION('',(-1.E0,0.E0,0.E0));
#522=AXIS2_PLACEMENT_3D('',#519,#520,#521);
#523=PLANE('',#522);
#524=ORIENTED_EDGE('',*,*,#497,.F.);
#525=ORIENTED_EDGE('',*,*,#512,.F.);
#526=EDGE_LOOP('',(#524,#525));
#527=FACE_OUTER_BOUND('',#526,.F.);
#529=CARTESIAN_POINT('',(0.E0,0.E0,2.54E1));
#530=DIRECTION('',(0.E0,0.E0,1.E0));
#531=DIRECTION('',(-1.E0,0.E0,0.E0));
#532=AXIS2_PLACEMENT_3D('',#529,#530,#531);
#533=PLANE('',#532);
#535=ORIENTED_EDGE('',*,*,#534,.F.);
#537=ORIENTED_EDGE('',*,*,#536,.F.);
#538=EDGE_LOOP('',(#535,#537));
#539=FACE_OUTER_BOUND('',#538,.F.);
#541=CARTESIAN_POINT('',(-1.145E1,-1.026794919243E0,0.E0));
#542=DIRECTION('',(0.E0,0.E0,1.E0));
#543=DIRECTION('',(-1.E0,0.E0,0.E0));
#544=AXIS2_PLACEMENT_3D('',#541,#542,#543);
#545=CYLINDRICAL_SURFACE('',#544,3.E-1);
#547=ORIENTED_EDGE('',*,*,#546,.F.);
#549=ORIENTED_EDGE('',*,*,#548,.T.);
#550=ORIENTED_EDGE('',*,*,#534,.T.);
#552=ORIENTED_EDGE('',*,*,#551,.F.);
#554=ORIENTED_EDGE('',*,*,#553,.F.);
#555=EDGE_LOOP('',(#547,#549,#550,#552,#554));
#556=FACE_OUTER_BOUND('',#555,.F.);
#558=CARTESIAN_POINT('',(-1.145E1,-1.5E0,-1.258E0));
#559=DIRECTION('',(0.E0,-1.E0,0.E0));
#560=DIRECTION('',(-1.E0,0.E0,0.E0));
#561=AXIS2_PLACEMENT_3D('',#558,#559,#560);
#562=CYLINDRICAL_SURFACE('',#561,1.658E0);
#563=ORIENTED_EDGE('',*,*,#546,.T.);
#565=ORIENTED_EDGE('',*,*,#564,.F.);
#567=ORIENTED_EDGE('',*,*,#566,.F.);
#568=ORIENTED_EDGE('',*,*,#402,.T.);
#569=ORIENTED_EDGE('',*,*,#447,.F.);
#571=ORIENTED_EDGE('',*,*,#570,.T.);
#572=EDGE_LOOP('',(#563,#565,#567,#568,#569,#571));
#573=FACE_OUTER_BOUND('',#572,.F.);
#575=CARTESIAN_POINT('',(-1.145E1,-1.5E0,-1.258E0));
#576=DIRECTION('',(0.E0,-1.E0,0.E0));
#577=DIRECTION('',(-1.E0,0.E0,0.E0));
#578=AXIS2_PLACEMENT_3D('',#575,#576,#577);
#579=CYLINDRICAL_SURFACE('',#578,1.658E0);
#580=ORIENTED_EDGE('',*,*,#553,.T.);
#582=ORIENTED_EDGE('',*,*,#581,.T.);
#583=ORIENTED_EDGE('',*,*,#445,.F.);
#584=ORIENTED_EDGE('',*,*,#422,.F.);
#586=ORIENTED_EDGE('',*,*,#585,.F.);
#588=ORIENTED_EDGE('',*,*,#587,.F.);
#589=EDGE_LOOP('',(#580,#582,#583,#584,#586,#588));
#590=FACE_OUTER_BOUND('',#589,.F.);
#592=CARTESIAN_POINT('',(-1.325E1,-1.326794919243E0,3.E-1));
#593=DIRECTION('',(0.E0,-1.E0,0.E0));
#594=DIRECTION('',(0.E0,0.E0,1.E0));
#595=AXIS2_PLACEMENT_3D('',#592,#593,#594);
#596=PLANE('',#595);
#597=ORIENTED_EDGE('',*,*,#460,.T.);
#598=ORIENTED_EDGE('',*,*,#484,.T.);
#600=ORIENTED_EDGE('',*,*,#599,.F.);
#601=EDGE_LOOP('',(#597,#598,#600));
#602=FACE_OUTER_BOUND('',#601,.F.);
#604=CARTESIAN_POINT('',(-1.325E1,-1.326794919243E0,3.E-1));
#605=DIRECTION('',(0.E0,-1.E0,0.E0));
#606=DIRECTION('',(0.E0,0.E0,1.E0));
#607=AXIS2_PLACEMENT_3D('',#604,#605,#606);
#608=PLANE('',#607);
#609=ORIENTED_EDGE('',*,*,#564,.T.);
#610=ORIENTED_EDGE('',*,*,#587,.T.);
#612=ORIENTED_EDGE('',*,*,#611,.F.);
#613=EDGE_LOOP('',(#609,#610,#612));
#614=FACE_OUTER_BOUND('',#613,.F.);
#616=CARTESIAN_POINT('',(-1.325E1,-1.5E0,0.E0));
#617=DIRECTION('',(0.E0,-8.660254037844E-1,5.E-1));
#618=DIRECTION('',(0.E0,5.E-1,8.660254037844E-1));
#619=AXIS2_PLACEMENT_3D('',#616,#617,#618);
#620=PLANE('',#619);
#621=ORIENTED_EDGE('',*,*,#482,.T.);
#623=ORIENTED_EDGE('',*,*,#622,.F.);
#624=ORIENTED_EDGE('',*,*,#462,.T.);
#625=ORIENTED_EDGE('',*,*,#599,.T.);
#626=EDGE_LOOP('',(#621,#623,#624,#625));
#627=FACE_OUTER_BOUND('',#626,.F.);
#629=CARTESIAN_POINT('',(-1.325E1,-1.5E0,0.E0));
#630=DIRECTION('',(0.E0,-8.660254037844E-1,5.E-1));
#631=DIRECTION('',(0.E0,5.E-1,8.660254037844E-1));
#632=AXIS2_PLACEMENT_3D('',#629,#630,#631);
#633=PLANE('',#632);
#634=ORIENTED_EDGE('',*,*,#585,.T.);
#636=ORIENTED_EDGE('',*,*,#635,.F.);
#637=ORIENTED_EDGE('',*,*,#566,.T.);
#638=ORIENTED_EDGE('',*,*,#611,.T.);
#639=EDGE_LOOP('',(#634,#636,#637,#638));
#640=FACE_OUTER_BOUND('',#639,.F.);
#642=CARTESIAN_POINT('',(-1.325E1,-1.5E0,0.E0));
#643=DIRECTION('',(0.E0,-1.E0,0.E0));
#644=DIRECTION('',(1.E0,0.E0,0.E0));
#645=AXIS2_PLACEMENT_3D('',#642,#643,#644);
#646=PLANE('',#645);
#647=ORIENTED_EDGE('',*,*,#635,.T.);
#648=ORIENTED_EDGE('',*,*,#420,.T.);
#649=ORIENTED_EDGE('',*,*,#622,.T.);
#650=ORIENTED_EDGE('',*,*,#412,.F.);
#652=ORIENTED_EDGE('',*,*,#651,.T.);
#654=ORIENTED_EDGE('',*,*,#653,.F.);
#656=ORIENTED_EDGE('',*,*,#655,.F.);
#657=ORIENTED_EDGE('',*,*,#404,.T.);
#658=EDGE_LOOP('',(#647,#648,#649,#650,#652,#654,#656,#657));
#659=FACE_OUTER_BOUND('',#658,.F.);
#661=CARTESIAN_POINT('',(1.325E1,-1.5E0,0.E0));
#662=DIRECTION('',(1.E0,0.E0,0.E0));
#663=DIRECTION('',(0.E0,1.E0,0.E0));
#664=AXIS2_PLACEMENT_3D('',#661,#662,#663);
#665=PLANE('',#664);
#666=ORIENTED_EDGE('',*,*,#410,.F.);
#668=ORIENTED_EDGE('',*,*,#667,.T.);
#670=ORIENTED_EDGE('',*,*,#669,.F.);
#672=ORIENTED_EDGE('',*,*,#671,.T.);
#674=ORIENTED_EDGE('',*,*,#673,.F.);
#675=ORIENTED_EDGE('',*,*,#651,.F.);
#676=EDGE_LOOP('',(#666,#668,#670,#672,#674,#675));
#677=FACE_OUTER_BOUND('',#676,.F.);
#679=CARTESIAN_POINT('',(1.325E1,1.5E0,0.E0));
#680=DIRECTION('',(0.E0,1.E0,0.E0));
#681=DIRECTION('',(-1.E0,0.E0,0.E0));
#682=AXIS2_PLACEMENT_3D('',#679,#680,#681);
#683=PLANE('',#682);
#684=ORIENTED_EDGE('',*,*,#408,.T.);
#686=ORIENTED_EDGE('',*,*,#685,.T.);
#688=ORIENTED_EDGE('',*,*,#687,.F.);
#689=ORIENTED_EDGE('',*,*,#667,.F.);
#690=EDGE_LOOP('',(#684,#686,#688,#689));
#691=FACE_OUTER_BOUND('',#690,.F.);
#693=CARTESIAN_POINT('',(-1.325E1,1.5E0,0.E0));
#694=DIRECTION('',(-1.E0,0.E0,0.E0));
#695=DIRECTION('',(0.E0,-1.E0,0.E0));
#696=AXIS2_PLACEMENT_3D('',#693,#694,#695);
#697=PLANE('',#696);
#698=ORIENTED_EDGE('',*,*,#406,.F.);
#699=ORIENTED_EDGE('',*,*,#655,.T.);
#701=ORIENTED_EDGE('',*,*,#700,.T.);
#703=ORIENTED_EDGE('',*,*,#702,.F.);
#705=ORIENTED_EDGE('',*,*,#704,.F.);
#706=ORIENTED_EDGE('',*,*,#685,.F.);
#707=EDGE_LOOP('',(#698,#699,#701,#703,#705,#706));
#708=FACE_OUTER_BOUND('',#707,.F.);
#710=CARTESIAN_POINT('',(-1.325E1,-1.5E0,-5.5E0));
#711=DIRECTION('',(0.E0,7.071067811865E-1,7.071067811865E-1));
#712=DIRECTION('',(0.E0,7.071067811865E-1,-7.071067811865E-1));
#713=AXIS2_PLACEMENT_3D('',#710,#711,#712);
#714=PLANE('',#713);
#715=ORIENTED_EDGE('',*,*,#700,.F.);
#716=ORIENTED_EDGE('',*,*,#653,.T.);
#717=ORIENTED_EDGE('',*,*,#673,.T.);
#719=ORIENTED_EDGE('',*,*,#718,.F.);
#720=EDGE_LOOP('',(#715,#716,#717,#719));
#721=FACE_OUTER_BOUND('',#720,.F.);
#723=CARTESIAN_POINT('',(-1.325E1,-5.E-1,-6.5E0));
#724=DIRECTION('',(0.E0,1.E0,0.E0));
#725=DIRECTION('',(0.E0,0.E0,-1.E0));
#726=AXIS2_PLACEMENT_3D('',#723,#724,#725);
#727=PLANE('',#726);
#729=ORIENTED_EDGE('',*,*,#728,.F.);
#730=ORIENTED_EDGE('',*,*,#702,.T.);
#731=ORIENTED_EDGE('',*,*,#718,.T.);
#732=ORIENTED_EDGE('',*,*,#671,.F.);
#733=EDGE_LOOP('',(#729,#730,#731,#732));
#734=FACE_OUTER_BOUND('',#733,.F.);
#736=CARTESIAN_POINT('',(0.E0,0.E0,-1.04E1));
#737=DIRECTION('',(0.E0,0.E0,1.E0));
#738=DIRECTION('',(1.E0,0.E0,0.E0));
#739=AXIS2_PLACEMENT_3D('',#736,#737,#738);
#740=PLANE('',#739);
#741=ORIENTED_EDGE('',*,*,#728,.T.);
#742=ORIENTED_EDGE('',*,*,#669,.T.);
#743=ORIENTED_EDGE('',*,*,#687,.T.);
#744=ORIENTED_EDGE('',*,*,#704,.T.);
#745=EDGE_LOOP('',(#741,#742,#743,#744));
#746=FACE_OUTER_BOUND('',#745,.F.);
#748=CARTESIAN_POINT('',(-1.145E1,-1.026794919243E0,0.E0));
#749=DIRECTION('',(0.E0,0.E0,1.E0));
#750=DIRECTION('',(-1.E0,0.E0,0.E0));
#751=AXIS2_PLACEMENT_3D('',#748,#749,#750);
#752=CYLINDRICAL_SURFACE('',#751,3.E-1);
#753=ORIENTED_EDGE('',*,*,#581,.F.);
#754=ORIENTED_EDGE('',*,*,#551,.T.);
#755=ORIENTED_EDGE('',*,*,#536,.T.);
#756=ORIENTED_EDGE('',*,*,#548,.F.);
#757=ORIENTED_EDGE('',*,*,#570,.F.);
#758=EDGE_LOOP('',(#753,#754,#755,#756,#757));
#759=FACE_OUTER_BOUND('',#758,.F.);
#763=DIRECTION('',(0.E0,0.E0,1.E0));
#764=VECTOR('',#763,2.502736699408E1);
#765=CARTESIAN_POINT('',(1.145E1,-1.026794919243E0,3.726330059213E-1));
#766=LINE('',#765,#764);
#768=DRAUGHTING_PRE_DEFINED_CURVE_FONT('continuous');
#769=CURVE_STYLE('',#768,POSITIVE_LENGTH_MEASURE(2.E-2),#1);
#770=PRESENTATION_STYLE_ASSIGNMENT((#769));
#771=STYLED_ITEM('',(#770),#767);
#773=DIRECTION('',(0.E0,0.E0,1.E0));
#774=VECTOR('',#773,2.502736699408E1);
#775=CARTESIAN_POINT('',(-1.145E1,-1.026794919243E0,3.726330059213E-1));
#776=LINE('',#775,#774);
#778=CURVE_STYLE('',#768,POSITIVE_LENGTH_MEASURE(2.E-2),#1);
#779=PRESENTATION_STYLE_ASSIGNMENT((#778));
#780=STYLED_ITEM('',(#779),#777);
#781=PRESENTATION_LAYER_ASSIGNMENT('.BLACK_HOLE','',(#767,#777));
#782=INVISIBILITY((#781));
#785=PLANE_ANGLE_MEASURE_WITH_UNIT(PLANE_ANGLE_MEASURE(1.745329251994E-2),#784);
#786=(CONVERSION_BASED_UNIT('DEGREE',#785)NAMED_UNIT(*)PLANE_ANGLE_UNIT());
#788=UNCERTAINTY_MEASURE_WITH_UNIT(LENGTH_MEASURE(1.E-3),#783,
'distance_accuracy_value',
'Maximum model space distance between geometric entities at asserted connectivities');
#772=GEOMETRIC_SET('',(#767,#777));
#792=CARTESIAN_POINT('',(0.E0,0.E0,0.E0));
#793=DIRECTION('',(0.E0,0.E0,1.E0));
#794=DIRECTION('',(1.E0,0.E0,0.E0));
#797=SHAPE_REPRESENTATION_RELATIONSHIP('','',#796,#790);
#798=SHAPE_REPRESENTATION_RELATIONSHIP('','',#796,#791);
#799=MECHANICAL_DESIGN_GEOMETRIC_PRESENTATION_REPRESENTATION('',(#771,#780),
#789);
#800=APPLICATION_CONTEXT('automotive_design');
#801=APPLICATION_PROTOCOL_DEFINITION('international standard',
'automotive_design',2001,#800);
#802=PRODUCT_DEFINITION_CONTEXT('part definition',#800,'design');
#803=PRODUCT_CONTEXT('',#800,'mechanical');
#804=PRODUCT('C-2-1625958-7','C-2-1625958-7','NOT SPECIFIED',(#803));
#805=PRODUCT_DEFINITION_FORMATION('1','LAST_VERSION',#804);
#813=DERIVED_UNIT_ELEMENT(#812,2.E0);
#814=DERIVED_UNIT((#813));
#815=MEASURE_REPRESENTATION_ITEM('surface area measure',AREA_MEASURE(
8.445170054841E2),#814);
#820=DERIVED_UNIT_ELEMENT(#819,3.E0);
#821=DERIVED_UNIT((#820));
#822=MEASURE_REPRESENTATION_ITEM('volume measure',VOLUME_MEASURE(
7.252242963518E2),#821);
#826=CARTESIAN_POINT('centre point',(-7.061397385112E-8,1.425375970772E-1,
-4.359810649318E0));
#831=DERIVED_UNIT_ELEMENT(#830,2.E0);
#832=DERIVED_UNIT((#831));
#833=MEASURE_REPRESENTATION_ITEM('surface area measure',AREA_MEASURE(
8.445170054841E2),#832);
#838=DERIVED_UNIT_ELEMENT(#837,3.E0);
#839=DERIVED_UNIT((#838));
#840=MEASURE_REPRESENTATION_ITEM('volume measure',VOLUME_MEASURE(
7.252242963518E2),#839);
#844=CARTESIAN_POINT('centre point',(-7.061397385112E-8,1.425375970772E-1,
-4.359810649318E0));
#849=PRODUCT_RELATED_PRODUCT_CATEGORY('part','',(#804));
#1=COLOUR_RGB('',0.E0,0.E0,9.411764705882E-1);
#2=DRAUGHTING_PRE_DEFINED_COLOUR('green');
#3=COLOUR_RGB('',1.1E-2,1.2E-2,1.E0);
#4=COLOUR_RGB('',4.1E-1,2.61589E-1,1.12848E-1);
#5=COLOUR_RGB('',5.04854E-1,1.5455E-2,1.5455E-2);
#6=COLOUR_RGB('',6.35294E-1,6.86275E-1,7.4902E-1);
#7=COLOUR_RGB('',6.40777E-1,6.40777E-1,6.40777E-1);
#8=COLOUR_RGB('',6.69062E-1,6.69903E-1,6.55217E-1);
#9=COLOUR_RGB('',9.21569E-1,7.05882E-1,4.70588E-1);
#10=DRAUGHTING_PRE_DEFINED_COLOUR('red');
#11=DRAUGHTING_PRE_DEFINED_COLOUR('yellow');
#12=COLOUR_RGB('',1.E0,1.E0,5.3E-1);
#13=COLOUR_RGB('',1.E0,1.E0,9.49E-1);
#14=DRAUGHTING_PRE_DEFINED_COLOUR('white');
#48=B_SPLINE_CURVE_WITH_KNOTS('',3,(#43,#44,#45,#46,#47),.UNSPECIFIED.,.F.,.F.,(
4,1,4),(0.E0,5.E-1,1.E0),.UNSPECIFIED.);
#54=B_SPLINE_CURVE_WITH_KNOTS('',3,(#49,#50,#51,#52,#53),.UNSPECIFIED.,.F.,.F.,(
4,1,4),(0.E0,5.E-1,1.E0),.UNSPECIFIED.);
#60=B_SPLINE_CURVE_WITH_KNOTS('',3,(#55,#56,#57,#58,#59),.UNSPECIFIED.,.F.,.F.,(
4,1,4),(0.E0,5.E-1,1.E0),.UNSPECIFIED.);
#66=B_SPLINE_CURVE_WITH_KNOTS('',3,(#61,#62,#63,#64,#65),.UNSPECIFIED.,.F.,.F.,(
4,1,4),(0.E0,5.E-1,1.E0),.UNSPECIFIED.);
#79=B_SPLINE_CURVE_WITH_KNOTS('',3,(#67,#68,#69,#70,#71,#72,#73,#74,#75,#76,#77,
#78),.UNSPECIFIED.,.F.,.F.,(4,1,1,1,1,1,1,1,1,4),(0.E0,1.111111111111E-1,
2.222222222222E-1,3.333333333333E-1,4.444444444444E-1,5.555555555556E-1,
6.666666666667E-1,7.777777777778E-1,8.888888888889E-1,1.E0),.UNSPECIFIED.);
#96=B_SPLINE_CURVE_WITH_KNOTS('',3,(#84,#85,#86,#87,#88,#89,#90,#91,#92,#93,#94,
#95),.UNSPECIFIED.,.F.,.F.,(4,1,1,1,1,1,1,1,1,4),(0.E0,1.111111111111E-1,
2.222222222222E-1,3.333333333333E-1,4.444444444444E-1,5.555555555556E-1,
6.666666666667E-1,7.777777777778E-1,8.888888888889E-1,1.E0),.UNSPECIFIED.);
#109=B_SPLINE_CURVE_WITH_KNOTS('',3,(#97,#98,#99,#100,#101,#102,#103,#104,#105,
#106,#107,#108),.UNSPECIFIED.,.F.,.F.,(4,1,1,1,1,1,1,1,1,4),(0.E0,
1.111111111111E-1,2.222222222222E-1,3.333333333333E-1,4.444444444444E-1,
5.555555555556E-1,6.666666666667E-1,7.777777777778E-1,8.888888888889E-1,1.E0),
.UNSPECIFIED.);
#122=B_SPLINE_CURVE_WITH_KNOTS('',3,(#110,#111,#112,#113,#114,#115,#116,#117,
#118,#119,#120,#121),.UNSPECIFIED.,.F.,.F.,(4,1,1,1,1,1,1,1,1,4),(0.E0,
1.111111111111E-1,2.222222222222E-1,3.333333333333E-1,4.444444444444E-1,
5.555555555556E-1,6.666666666667E-1,7.777777777778E-1,8.888888888889E-1,1.E0),
.UNSPECIFIED.);
#135=CIRCLE('',#134,3.E-1);
#140=CIRCLE('',#139,3.E-1);
#145=CIRCLE('',#144,3.E-1);
#150=CIRCLE('',#149,3.E-1);
#167=B_SPLINE_CURVE_WITH_KNOTS('',3,(#155,#156,#157,#158,#159,#160,#161,#162,
#163,#164,#165,#166),.UNSPECIFIED.,.F.,.F.,(4,1,1,1,1,1,1,1,1,4),(0.E0,
1.111111111111E-1,2.222222222222E-1,3.333333333333E-1,4.444444444444E-1,
5.555555555556E-1,6.666666666667E-1,7.777777777778E-1,8.888888888889E-1,1.E0),
.UNSPECIFIED.);
#184=B_SPLINE_CURVE_WITH_KNOTS('',3,(#172,#173,#174,#175,#176,#177,#178,#179,
#180,#181,#182,#183),.UNSPECIFIED.,.F.,.F.,(4,1,1,1,1,1,1,1,1,4),(0.E0,
1.111111111111E-1,2.222222222222E-1,3.333333333333E-1,4.444444444444E-1,
5.555555555556E-1,6.666666666667E-1,7.777777777778E-1,8.888888888889E-1,1.E0),
.UNSPECIFIED.);
#197=B_SPLINE_CURVE_WITH_KNOTS('',3,(#185,#186,#187,#188,#189,#190,#191,#192,
#193,#194,#195,#196),.UNSPECIFIED.,.F.,.F.,(4,1,1,1,1,1,1,1,1,4),(0.E0,
1.111111111111E-1,2.222222222222E-1,3.333333333333E-1,4.444444444444E-1,
5.555555555556E-1,6.666666666667E-1,7.777777777778E-1,8.888888888889E-1,1.E0),
.UNSPECIFIED.);
#210=B_SPLINE_CURVE_WITH_KNOTS('',3,(#198,#199,#200,#201,#202,#203,#204,#205,
#206,#207,#208,#209),.UNSPECIFIED.,.F.,.F.,(4,1,1,1,1,1,1,1,1,4),(0.E0,
1.111111111111E-1,2.222222222222E-1,3.333333333333E-1,4.444444444444E-1,
5.555555555556E-1,6.666666666667E-1,7.777777777778E-1,8.888888888889E-1,1.E0),
.UNSPECIFIED.);
#215=CIRCLE('',#214,1.658E0);
#220=CIRCLE('',#219,1.658E0);
#229=CIRCLE('',#228,1.658E0);
#234=CIRCLE('',#233,1.658E0);
#243=B_SPLINE_CURVE_WITH_KNOTS('',3,(#239,#240,#241,#242),.UNSPECIFIED.,.F.,.F.,
(4,4),(0.E0,1.E0),.UNSPECIFIED.);
#248=B_SPLINE_CURVE_WITH_KNOTS('',3,(#244,#245,#246,#247),.UNSPECIFIED.,.F.,.F.,
(4,4),(0.E0,1.E0),.UNSPECIFIED.);
#253=B_SPLINE_CURVE_WITH_KNOTS('',3,(#249,#250,#251,#252),.UNSPECIFIED.,.F.,.F.,
(4,4),(0.E0,1.E0),.UNSPECIFIED.);
#258=B_SPLINE_CURVE_WITH_KNOTS('',3,(#254,#255,#256,#257),.UNSPECIFIED.,.F.,.F.,
(4,4),(0.E0,1.E0),.UNSPECIFIED.);
#400=EDGE_CURVE('',#373,#374,#18,.T.);
#402=EDGE_CURVE('',#365,#373,#171,.T.);
#404=EDGE_CURVE('',#370,#365,#286,.T.);
#406=EDGE_CURVE('',#370,#342,#22,.T.);
#408=EDGE_CURVE('',#341,#342,#26,.T.);
#410=EDGE_CURVE('',#341,#368,#30,.T.);
#412=EDGE_CURVE('',#368,#360,#274,.T.);
#414=EDGE_CURVE('',#360,#378,#34,.T.);
#416=EDGE_CURVE('',#377,#378,#38,.T.);
#418=EDGE_CURVE('',#361,#377,#83,.T.);
#420=EDGE_CURVE('',#364,#361,#266,.T.);
#422=EDGE_CURVE('',#364,#374,#42,.T.);
#426=ADVANCED_FACE('',(#425),#399,.T.);
#432=EDGE_CURVE('',#378,#390,#48,.T.);
#434=EDGE_CURVE('',#390,#377,#54,.T.);
#439=ADVANCED_FACE('',(#438),#431,.T.);
#445=EDGE_CURVE('',#374,#394,#60,.T.);
#447=EDGE_CURVE('',#394,#373,#66,.T.);
#452=ADVANCED_FACE('',(#451),#444,.T.);
#458=EDGE_CURVE('',#387,#388,#79,.T.);
#460=EDGE_CURVE('',#362,#388,#215,.T.);
#462=EDGE_CURVE('',#361,#362,#248,.T.);
#466=EDGE_CURVE('',#390,#387,#96,.T.);
#470=ADVANCED_FACE('',(#469),#457,.T.);
#476=EDGE_CURVE('',#388,#389,#109,.T.);
#478=EDGE_CURVE('',#389,#390,#122,.T.);
#482=EDGE_CURVE('',#359,#360,#243,.T.);
#484=EDGE_CURVE('',#388,#359,#220,.T.);
#488=ADVANCED_FACE('',(#487),#475,.T.);
#495=EDGE_CURVE('',#387,#381,#126,.T.);
#497=EDGE_CURVE('',#381,#382,#135,.T.);
#499=EDGE_CURVE('',#389,#382,#130,.T.);
#504=ADVANCED_FACE('',(#503),#493,.T.);
#512=EDGE_CURVE('',#382,#381,#140,.T.);
#518=ADVANCED_FACE('',(#517),#509,.T.);
#528=ADVANCED_FACE('',(#527),#523,.T.);
#534=EDGE_CURVE('',#385,#386,#145,.T.);
#536=EDGE_CURVE('',#386,#385,#150,.T.);
#540=ADVANCED_FACE('',(#539),#533,.T.);
#546=EDGE_CURVE('',#391,#392,#167,.T.);
#548=EDGE_CURVE('',#391,#385,#154,.T.);
#551=EDGE_CURVE('',#393,#386,#338,.T.);
#553=EDGE_CURVE('',#392,#393,#197,.T.);
#557=ADVANCED_FACE('',(#556),#545,.T.);
#564=EDGE_CURVE('',#366,#392,#229,.T.);
#566=EDGE_CURVE('',#365,#366,#258,.T.);
#570=EDGE_CURVE('',#394,#391,#184,.T.);
#574=ADVANCED_FACE('',(#573),#562,.T.);
#581=EDGE_CURVE('',#393,#394,#210,.T.);
#585=EDGE_CURVE('',#363,#364,#253,.T.);
#587=EDGE_CURVE('',#392,#363,#234,.T.);
#591=ADVANCED_FACE('',(#590),#579,.T.);
#599=EDGE_CURVE('',#362,#359,#224,.T.);
#603=ADVANCED_FACE('',(#602),#596,.T.);
#611=EDGE_CURVE('',#366,#363,#238,.T.);
#615=ADVANCED_FACE('',(#614),#608,.T.);
#622=EDGE_CURVE('',#361,#360,#270,.T.);
#628=ADVANCED_FACE('',(#627),#620,.T.);
#635=EDGE_CURVE('',#365,#364,#262,.T.);
#641=ADVANCED_FACE('',(#640),#633,.T.);
#651=EDGE_CURVE('',#368,#356,#298,.T.);
#653=EDGE_CURVE('',#353,#356,#278,.T.);
#655=EDGE_CURVE('',#370,#353,#282,.T.);
#660=ADVANCED_FACE('',(#659),#646,.T.);
#667=EDGE_CURVE('',#341,#345,#302,.T.);
#669=EDGE_CURVE('',#350,#345,#326,.T.);
#671=EDGE_CURVE('',#350,#358,#290,.T.);
#673=EDGE_CURVE('',#356,#358,#294,.T.);
#678=ADVANCED_FACE('',(#677),#665,.T.);
#685=EDGE_CURVE('',#342,#346,#314,.T.);
#687=EDGE_CURVE('',#345,#346,#330,.T.);
#692=ADVANCED_FACE('',(#691),#683,.T.);
#700=EDGE_CURVE('',#353,#354,#306,.T.);
#702=EDGE_CURVE('',#349,#354,#310,.T.);
#704=EDGE_CURVE('',#346,#349,#334,.T.);
#709=ADVANCED_FACE('',(#708),#697,.T.);
#718=EDGE_CURVE('',#354,#358,#318,.T.);
#722=ADVANCED_FACE('',(#721),#714,.F.);
#728=EDGE_CURVE('',#349,#350,#322,.T.);
#735=ADVANCED_FACE('',(#734),#727,.F.);
#747=ADVANCED_FACE('',(#746),#740,.F.);
#760=ADVANCED_FACE('',(#759),#752,.T.);
#761=CLOSED_SHELL('',(#426,#439,#452,#470,#488,#504,#518,#528,#540,#557,#574,
#591,#603,#615,#628,#641,#660,#678,#692,#709,#722,#735,#747,#760));
#762=MANIFOLD_SOLID_BREP('',#761);
#767=TRIMMED_CURVE('A_1',#766,(PARAMETER_VALUE(0.E0)),(PARAMETER_VALUE(1.E0)),
.T.,.UNSPECIFIED.);
#777=TRIMMED_CURVE('A_2',#776,(PARAMETER_VALUE(0.E0)),(PARAMETER_VALUE(1.E0)),
.T.,.UNSPECIFIED.);
#783=(LENGTH_UNIT()NAMED_UNIT(*)SI_UNIT(.MILLI.,.METRE.));
#784=(NAMED_UNIT(*)PLANE_ANGLE_UNIT()SI_UNIT($,.RADIAN.));
#787=(NAMED_UNIT(*)SI_UNIT($,.STERADIAN.)SOLID_ANGLE_UNIT());
#789=(GEOMETRIC_REPRESENTATION_CONTEXT(3)GLOBAL_UNCERTAINTY_ASSIGNED_CONTEXT((
#788))GLOBAL_UNIT_ASSIGNED_CONTEXT((#783,#786,#787))REPRESENTATION_CONTEXT
('ID1','3'));
#790=ADVANCED_BREP_SHAPE_REPRESENTATION('',(#762),#789);
#791=GEOMETRICALLY_BOUNDED_SURFACE_SHAPE_REPRESENTATION('',(#772),#789);
#795=AXIS2_PLACEMENT_3D('',#792,#793,#794);
#796=SHAPE_REPRESENTATION('',(#795),#789);
#806=PRODUCT_DEFINITION('part definition','',#805,#802);
#807=PRODUCT_DEFINITION_SHAPE('','SHAPE FOR C-2-1625958-7.',#806);
#808=SHAPE_ASPECT('','solid data associated with C-2-1625958-7',#807,.F.);
#809=PROPERTY_DEFINITION('',
'shape for solid data with which properties are associated',#808);
#810=SHAPE_REPRESENTATION('',(#762),#789);
#811=SHAPE_DEFINITION_REPRESENTATION(#809,#810);
#812=(LENGTH_UNIT()NAMED_UNIT(*)SI_UNIT(.MILLI.,.METRE.));
#816=PROPERTY_DEFINITION('geometric validation property',
'area of C-2-1625958-7',#808);
#817=REPRESENTATION('surface area',(#815),#789);
#818=PROPERTY_DEFINITION_REPRESENTATION(#816,#817);
#819=(LENGTH_UNIT()NAMED_UNIT(*)SI_UNIT(.MILLI.,.METRE.));
#823=PROPERTY_DEFINITION('geometric validation property',
'volume of C-2-1625958-7',#808);
#824=REPRESENTATION('volume',(#822),#789);
#825=PROPERTY_DEFINITION_REPRESENTATION(#823,#824);
#827=PROPERTY_DEFINITION('geometric validation property',
'centroid of C-2-1625958-7',#808);
#828=REPRESENTATION('centroid',(#826),#789);
#829=PROPERTY_DEFINITION_REPRESENTATION(#827,#828);
#830=(LENGTH_UNIT()NAMED_UNIT(*)SI_UNIT(.MILLI.,.METRE.));
#834=PROPERTY_DEFINITION('geometric validation property',
'area of C-2-1625958-7',#807);
#835=REPRESENTATION('surface area',(#833),#789);
#836=PROPERTY_DEFINITION_REPRESENTATION(#834,#835);
#837=(LENGTH_UNIT()NAMED_UNIT(*)SI_UNIT(.MILLI.,.METRE.));
#841=PROPERTY_DEFINITION('geometric validation property',
'volume of C-2-1625958-7',#807);
#842=REPRESENTATION('volume',(#840),#789);
#843=PROPERTY_DEFINITION_REPRESENTATION(#841,#842);
#845=PROPERTY_DEFINITION('geometric validation property',
'centroid of C-2-1625958-7',#807);
#846=REPRESENTATION('centroid',(#844),#789);
#847=PROPERTY_DEFINITION_REPRESENTATION(#845,#846);
#848=SHAPE_DEFINITION_REPRESENTATION(#807,#796);
ENDSEC;
END-ISO-10303-21;
