M48
; DRILL file {KiCad 9.0.3} date 2026-07-09T16:23:35+0200
; FORMAT={-:-/ absolute / metric / decimal}
; #@! TF.CreationDate,2026-07-09T16:23:35+02:00
; #@! TF.GenerationSoftware,Kicad,Pcbnew,9.0.3
; #@! TF.FileFunction,Plated,1,2,PTH
FMAT,2
METRIC
; #@! TA.AperFunction,Plated,PTH,ComponentDrill
T1C0.500
; #@! TA.AperFunction,Plated,PTH,ComponentDrill
T2C0.800
; #@! TA.AperFunction,Plated,PTH,ComponentDrill
T3C0.900
; #@! TA.AperFunction,Plated,PTH,ComponentDrill
T4C1.000
; #@! TA.AperFunction,Plated,PTH,ComponentDrill
T5C1.200
; #@! TA.AperFunction,Plated,PTH,ComponentDrill
T6C1.321
; #@! TA.AperFunction,Plated,PTH,ComponentDrill
T7C1.400
; #@! TA.AperFunction,Plated,PTH,ComponentDrill
T8C3.200
%
G90
G05
T1
X40.85Y-29.5
X41.553Y-27.803
X41.553Y-31.197
X43.25Y-27.1
X43.25Y-31.9
X44.947Y-27.803
X44.947Y-31.197
X45.65Y-29.5
X135.85Y-29.5
X136.553Y-27.803
X136.553Y-31.197
X138.25Y-27.1
X138.25Y-31.9
X139.947Y-27.803
X139.947Y-31.197
X140.65Y-29.5
T2
X136.4Y-35.5
X136.4Y-72.12
X136.75Y-56.0
X136.75Y-68.7
X149.1Y-35.5
X149.1Y-72.12
T3
X136.4Y-40.5
X144.02Y-40.5
T4
X103.75Y-87.725
X103.75Y-90.265
X148.29Y-25.5
X150.83Y-25.5
T5
X49.63Y-29.5
X54.75Y-52.88
X54.75Y-68.12
X64.87Y-29.5
X72.13Y-58.0
X87.37Y-58.0
X103.75Y-48.88
X103.75Y-64.12
X103.75Y-67.88
X103.75Y-83.12
T6
X147.25Y-30.12
X147.25Y-40.5
X147.25Y-50.5
X147.25Y-60.5
X152.33Y-30.12
X152.33Y-40.5
X152.33Y-50.5
X152.33Y-60.5
T7
X44.75Y-36.75
X44.75Y-74.25
X60.5Y-48.5
X60.5Y-67.5
X92.75Y-29.5
X98.0Y-48.5
X98.0Y-67.5
X108.8Y-90.0
X113.75Y-46.87
X113.75Y-84.37
X125.3Y-95.0
X130.25Y-29.5
X131.7Y-90.0
X148.2Y-95.0
X153.25Y-71.67
X153.25Y-94.57
T8
X43.25Y-29.5
X138.25Y-29.5
M30
