ISO-10303-21;
HEADER;
FILE_DESCRIPTION((''),'2;1');
FILE_NAME('C-216926-1','2019-09-24T02:59:58',('workeradm'),(
'TE Connectivity Ltd.'),'CREO PARAMETRIC BY PTC INC, 2019030',
'CREO PARAMETRIC BY PTC INC, 2019030','');
FILE_SCHEMA(('AUTOMOTIVE_DESIGN { 1 0 10303 214 1 1 1 1 }'));
ENDSEC;
DATA;
#135=CARTESIAN_POINT('',(0.E0,-4.E-1,-4.E0));
#136=DIRECTION('',(0.E0,-1.E0,0.E0));
#137=DIRECTION('',(1.E0,0.E0,0.E0));
#138=AXIS2_PLACEMENT_3D('',#135,#136,#137);
#140=CARTESIAN_POINT('',(0.E0,-4.E-1,-4.E0));
#141=DIRECTION('',(0.E0,-1.E0,0.E0));
#142=DIRECTION('',(-1.E0,0.E0,0.E0));
#143=AXIS2_PLACEMENT_3D('',#140,#141,#142);
#145=CARTESIAN_POINT('',(-9.5E-1,-4.E-1,-1.33E1));
#146=DIRECTION('',(0.E0,-1.E0,0.E0));
#147=DIRECTION('',(0.E0,0.E0,-1.E0));
#148=AXIS2_PLACEMENT_3D('',#145,#146,#147);
#150=DIRECTION('',(-1.E0,0.E0,0.E0));
#151=VECTOR('',#150,1.19E0);
#152=CARTESIAN_POINT('',(-9.5E-1,-4.E-1,-1.35E1));
#153=LINE('',#152,#151);
#154=DIRECTION('',(0.E0,0.E0,-1.E0));
#155=VECTOR('',#154,4.886966892485E0);
#156=CARTESIAN_POINT('',(-2.14E0,-4.E-1,-1.35E1));
#157=LINE('',#156,#155);
#158=DIRECTION('',(-7.986355100473E-1,0.E0,-6.018150231521E-1));
#159=VECTOR('',#158,1.878203487234E-1);
#160=CARTESIAN_POINT('',(-2.14E0,-4.E-1,-1.838696689248E1));
#161=LINE('',#160,#159);
#162=DIRECTION('',(-1.E0,0.E0,0.E0));
#163=VECTOR('',#162,5.E-1);
#164=CARTESIAN_POINT('',(-2.29E0,-4.E-1,-1.85E1));
#165=LINE('',#164,#163);
#166=DIRECTION('',(-7.986355100473E-1,0.E0,6.018150231521E-1));
#167=VECTOR('',#166,1.878203487234E-1);
#168=CARTESIAN_POINT('',(-2.79E0,-4.E-1,-1.85E1));
#169=LINE('',#168,#167);
#170=DIRECTION('',(0.E0,0.E0,1.E0));
#171=VECTOR('',#170,5.386966892485E0);
#172=CARTESIAN_POINT('',(-2.94E0,-4.E-1,-1.838696689248E1));
#173=LINE('',#172,#171);
#174=DIRECTION('',(-1.E0,0.E0,0.E0));
#175=VECTOR('',#174,1.46E0);
#176=CARTESIAN_POINT('',(-2.94E0,-4.E-1,-1.3E1));
#177=LINE('',#176,#175);
#178=DIRECTION('',(0.E0,0.E0,1.E0));
#179=VECTOR('',#178,2.25E0);
#180=CARTESIAN_POINT('',(-4.4E0,-4.E-1,-1.3E1));
#181=LINE('',#180,#179);
#182=DIRECTION('',(1.E0,0.E0,0.E0));
#183=VECTOR('',#182,1.259130147329E0);
#184=CARTESIAN_POINT('',(-4.4E0,-4.E-1,-1.075E1));
#185=LINE('',#184,#183);
#186=CARTESIAN_POINT('',(-3.140869852671E0,-4.E-1,-1.05E1));
#187=DIRECTION('',(0.E0,-1.E0,0.E0));
#188=DIRECTION('',(0.E0,0.E0,-1.E0));
#189=AXIS2_PLACEMENT_3D('',#186,#187,#188);
#191=DIRECTION('',(-2.588190451025E-1,0.E0,9.659258262891E-1));
#192=VECTOR('',#191,9.682888823023E-1);
#193=CARTESIAN_POINT('',(-2.899388396099E0,-4.E-1,-1.043529523872E1));
#194=LINE('',#193,#192);
#195=DIRECTION('',(0.E0,0.E0,1.E0));
#196=VECTOR('',#195,8.5E0);
#197=CARTESIAN_POINT('',(-3.15E0,-4.E-1,-9.5E0));
#198=LINE('',#197,#196);
#199=DIRECTION('',(-1.E0,0.E0,0.E0));
#200=VECTOR('',#199,6.3E0);
#201=CARTESIAN_POINT('',(3.15E0,-4.E-1,-1.E0));
#202=LINE('',#201,#200);
#203=DIRECTION('',(0.E0,0.E0,-1.E0));
#204=VECTOR('',#203,8.5E0);
#205=CARTESIAN_POINT('',(3.15E0,-4.E-1,-1.E0));
#206=LINE('',#205,#204);
#207=DIRECTION('',(-2.588190451025E-1,0.E0,-9.659258262891E-1));
#208=VECTOR('',#207,9.682888823023E-1);
#209=CARTESIAN_POINT('',(3.15E0,-4.E-1,-9.5E0));
#210=LINE('',#209,#208);
#211=CARTESIAN_POINT('',(3.140869852671E0,-4.E-1,-1.05E1));
#212=DIRECTION('',(0.E0,-1.E0,0.E0));
#213=DIRECTION('',(-9.659258262891E-1,0.E0,2.588190451025E-1));
#214=AXIS2_PLACEMENT_3D('',#211,#212,#213);
#216=DIRECTION('',(1.E0,0.E0,0.E0));
#217=VECTOR('',#216,1.259130147329E0);
#218=CARTESIAN_POINT('',(3.140869852671E0,-4.E-1,-1.075E1));
#219=LINE('',#218,#217);
#220=DIRECTION('',(0.E0,0.E0,-1.E0));
#221=VECTOR('',#220,2.25E0);
#222=CARTESIAN_POINT('',(4.4E0,-4.E-1,-1.075E1));
#223=LINE('',#222,#221);
#224=DIRECTION('',(-1.E0,0.E0,0.E0));
#225=VECTOR('',#224,1.46E0);
#226=CARTESIAN_POINT('',(4.4E0,-4.E-1,-1.3E1));
#227=LINE('',#226,#225);
#228=DIRECTION('',(0.E0,0.E0,-1.E0));
#229=VECTOR('',#228,5.386966892485E0);
#230=CARTESIAN_POINT('',(2.94E0,-4.E-1,-1.3E1));
#231=LINE('',#230,#229);
#232=DIRECTION('',(-7.986355100473E-1,0.E0,-6.018150231521E-1));
#233=VECTOR('',#232,1.878203487234E-1);
#234=CARTESIAN_POINT('',(2.94E0,-4.E-1,-1.838696689248E1));
#235=LINE('',#234,#233);
#236=DIRECTION('',(-1.E0,0.E0,0.E0));
#237=VECTOR('',#236,5.E-1);
#238=CARTESIAN_POINT('',(2.79E0,-4.E-1,-1.85E1));
#239=LINE('',#238,#237);
#240=DIRECTION('',(-7.986355100473E-1,0.E0,6.018150231521E-1));
#241=VECTOR('',#240,1.878203487234E-1);
#242=CARTESIAN_POINT('',(2.29E0,-4.E-1,-1.85E1));
#243=LINE('',#242,#241);
#244=DIRECTION('',(0.E0,0.E0,1.E0));
#245=VECTOR('',#244,4.886966892485E0);
#246=CARTESIAN_POINT('',(2.14E0,-4.E-1,-1.838696689248E1));
#247=LINE('',#246,#245);
#248=DIRECTION('',(-1.E0,0.E0,0.E0));
#249=VECTOR('',#248,1.19E0);
#250=CARTESIAN_POINT('',(2.14E0,-4.E-1,-1.35E1));
#251=LINE('',#250,#249);
#252=CARTESIAN_POINT('',(9.5E-1,-4.E-1,-1.33E1));
#253=DIRECTION('',(0.E0,-1.E0,0.E0));
#254=DIRECTION('',(-1.E0,0.E0,0.E0));
#255=AXIS2_PLACEMENT_3D('',#252,#253,#254);
#257=DIRECTION('',(0.E0,0.E0,1.E0));
#258=VECTOR('',#257,7.E-1);
#259=CARTESIAN_POINT('',(7.5E-1,-4.E-1,-1.33E1));
#260=LINE('',#259,#258);
#261=DIRECTION('',(-1.E0,0.E0,0.E0));
#262=VECTOR('',#261,1.1E0);
#263=CARTESIAN_POINT('',(5.5E-1,-4.E-1,-1.24E1));
#264=LINE('',#263,#262);
#265=DIRECTION('',(0.E0,0.E0,-1.E0));
#266=VECTOR('',#265,7.E-1);
#267=CARTESIAN_POINT('',(-7.5E-1,-4.E-1,-1.26E1));
#268=LINE('',#267,#266);
#269=DIRECTION('',(0.E0,1.E0,0.E0));
#270=VECTOR('',#269,8.E-1);
#271=CARTESIAN_POINT('',(8.E-1,-4.E-1,-4.E0));
#272=LINE('',#271,#270);
#273=DIRECTION('',(0.E0,1.E0,0.E0));
#274=VECTOR('',#273,8.E-1);
#275=CARTESIAN_POINT('',(-8.E-1,-4.E-1,-4.E0));
#276=LINE('',#275,#274);
#277=CARTESIAN_POINT('',(0.E0,4.E-1,-4.E0));
#278=DIRECTION('',(0.E0,-1.E0,0.E0));
#279=DIRECTION('',(1.E0,0.E0,0.E0));
#280=AXIS2_PLACEMENT_3D('',#277,#278,#279);
#282=CARTESIAN_POINT('',(0.E0,4.E-1,-4.E0));
#283=DIRECTION('',(0.E0,-1.E0,0.E0));
#284=DIRECTION('',(-1.E0,0.E0,0.E0));
#285=AXIS2_PLACEMENT_3D('',#282,#283,#284);
#287=CARTESIAN_POINT('',(-9.5E-1,4.E-1,-1.33E1));
#288=DIRECTION('',(0.E0,1.E0,0.E0));
#289=DIRECTION('',(1.E0,0.E0,0.E0));
#290=AXIS2_PLACEMENT_3D('',#287,#288,#289);
#292=DIRECTION('',(0.E0,0.E0,-1.E0));
#293=VECTOR('',#292,7.E-1);
#294=CARTESIAN_POINT('',(-7.5E-1,4.E-1,-1.26E1));
#295=LINE('',#294,#293);
#296=DIRECTION('',(-1.E0,0.E0,0.E0));
#297=VECTOR('',#296,1.1E0);
#298=CARTESIAN_POINT('',(5.5E-1,4.E-1,-1.24E1));
#299=LINE('',#298,#297);
#300=DIRECTION('',(0.E0,0.E0,1.E0));
#301=VECTOR('',#300,7.E-1);
#302=CARTESIAN_POINT('',(7.5E-1,4.E-1,-1.33E1));
#303=LINE('',#302,#301);
#304=CARTESIAN_POINT('',(9.5E-1,4.E-1,-1.33E1));
#305=DIRECTION('',(0.E0,1.E0,0.E0));
#306=DIRECTION('',(0.E0,0.E0,-1.E0));
#307=AXIS2_PLACEMENT_3D('',#304,#305,#306);
#309=DIRECTION('',(-1.E0,0.E0,0.E0));
#310=VECTOR('',#309,1.19E0);
#311=CARTESIAN_POINT('',(2.14E0,4.E-1,-1.35E1));
#312=LINE('',#311,#310);
#313=DIRECTION('',(0.E0,0.E0,1.E0));
#314=VECTOR('',#313,4.886966892485E0);
#315=CARTESIAN_POINT('',(2.14E0,4.E-1,-1.838696689248E1));
#316=LINE('',#315,#314);
#317=DIRECTION('',(-7.986355100473E-1,0.E0,6.018150231521E-1));
#318=VECTOR('',#317,1.878203487234E-1);
#319=CARTESIAN_POINT('',(2.29E0,4.E-1,-1.85E1));
#320=LINE('',#319,#318);
#321=DIRECTION('',(-1.E0,0.E0,0.E0));
#322=VECTOR('',#321,5.E-1);
#323=CARTESIAN_POINT('',(2.79E0,4.E-1,-1.85E1));
#324=LINE('',#323,#322);
#325=DIRECTION('',(-7.986355100473E-1,0.E0,-6.018150231521E-1));
#326=VECTOR('',#325,1.878203487234E-1);
#327=CARTESIAN_POINT('',(2.94E0,4.E-1,-1.838696689248E1));
#328=LINE('',#327,#326);
#329=DIRECTION('',(0.E0,0.E0,-1.E0));
#330=VECTOR('',#329,5.386966892485E0);
#331=CARTESIAN_POINT('',(2.94E0,4.E-1,-1.3E1));
#332=LINE('',#331,#330);
#333=DIRECTION('',(-1.E0,0.E0,0.E0));
#334=VECTOR('',#333,1.46E0);
#335=CARTESIAN_POINT('',(4.4E0,4.E-1,-1.3E1));
#336=LINE('',#335,#334);
#337=DIRECTION('',(0.E0,0.E0,-1.E0));
#338=VECTOR('',#337,2.25E0);
#339=CARTESIAN_POINT('',(4.4E0,4.E-1,-1.075E1));
#340=LINE('',#339,#338);
#341=DIRECTION('',(1.E0,0.E0,0.E0));
#342=VECTOR('',#341,1.259130147329E0);
#343=CARTESIAN_POINT('',(3.140869852671E0,4.E-1,-1.075E1));
#344=LINE('',#343,#342);
#345=CARTESIAN_POINT('',(3.140869852671E0,4.E-1,-1.05E1));
#346=DIRECTION('',(0.E0,-1.E0,0.E0));
#347=DIRECTION('',(-9.659258262891E-1,0.E0,2.588190451025E-1));
#348=AXIS2_PLACEMENT_3D('',#345,#346,#347);
#350=DIRECTION('',(-2.588190451025E-1,0.E0,-9.659258262891E-1));
#351=VECTOR('',#350,9.682888823023E-1);
#352=CARTESIAN_POINT('',(3.15E0,4.E-1,-9.5E0));
#353=LINE('',#352,#351);
#354=DIRECTION('',(0.E0,0.E0,-1.E0));
#355=VECTOR('',#354,8.5E0);
#356=CARTESIAN_POINT('',(3.15E0,4.E-1,-1.E0));
#357=LINE('',#356,#355);
#358=DIRECTION('',(1.E0,0.E0,0.E0));
#359=VECTOR('',#358,6.3E0);
#360=CARTESIAN_POINT('',(-3.15E0,4.E-1,-1.E0));
#361=LINE('',#360,#359);
#362=DIRECTION('',(0.E0,0.E0,1.E0));
#363=VECTOR('',#362,8.5E0);
#364=CARTESIAN_POINT('',(-3.15E0,4.E-1,-9.5E0));
#365=LINE('',#364,#363);
#366=DIRECTION('',(-2.588190451025E-1,0.E0,9.659258262891E-1));
#367=VECTOR('',#366,9.682888823023E-1);
#368=CARTESIAN_POINT('',(-2.899388396099E0,4.E-1,-1.043529523872E1));
#369=LINE('',#368,#367);
#370=CARTESIAN_POINT('',(-3.140869852671E0,4.E-1,-1.05E1));
#371=DIRECTION('',(0.E0,-1.E0,0.E0));
#372=DIRECTION('',(0.E0,0.E0,-1.E0));
#373=AXIS2_PLACEMENT_3D('',#370,#371,#372);
#375=DIRECTION('',(1.E0,0.E0,0.E0));
#376=VECTOR('',#375,1.259130147329E0);
#377=CARTESIAN_POINT('',(-4.4E0,4.E-1,-1.075E1));
#378=LINE('',#377,#376);
#379=DIRECTION('',(0.E0,0.E0,1.E0));
#380=VECTOR('',#379,2.25E0);
#381=CARTESIAN_POINT('',(-4.4E0,4.E-1,-1.3E1));
#382=LINE('',#381,#380);
#383=DIRECTION('',(-1.E0,0.E0,0.E0));
#384=VECTOR('',#383,1.46E0);
#385=CARTESIAN_POINT('',(-2.94E0,4.E-1,-1.3E1));
#386=LINE('',#385,#384);
#387=DIRECTION('',(0.E0,0.E0,1.E0));
#388=VECTOR('',#387,5.386966892485E0);
#389=CARTESIAN_POINT('',(-2.94E0,4.E-1,-1.838696689248E1));
#390=LINE('',#389,#388);
#391=DIRECTION('',(-7.986355100473E-1,0.E0,6.018150231521E-1));
#392=VECTOR('',#391,1.878203487234E-1);
#393=CARTESIAN_POINT('',(-2.79E0,4.E-1,-1.85E1));
#394=LINE('',#393,#392);
#395=DIRECTION('',(-1.E0,0.E0,0.E0));
#396=VECTOR('',#395,5.E-1);
#397=CARTESIAN_POINT('',(-2.29E0,4.E-1,-1.85E1));
#398=LINE('',#397,#396);
#399=DIRECTION('',(-7.986355100473E-1,0.E0,-6.018150231521E-1));
#400=VECTOR('',#399,1.878203487234E-1);
#401=CARTESIAN_POINT('',(-2.14E0,4.E-1,-1.838696689248E1));
#402=LINE('',#401,#400);
#403=DIRECTION('',(0.E0,0.E0,-1.E0));
#404=VECTOR('',#403,4.886966892485E0);
#405=CARTESIAN_POINT('',(-2.14E0,4.E-1,-1.35E1));
#406=LINE('',#405,#404);
#407=DIRECTION('',(-1.E0,0.E0,0.E0));
#408=VECTOR('',#407,1.19E0);
#409=CARTESIAN_POINT('',(-9.5E-1,4.E-1,-1.35E1));
#410=LINE('',#409,#408);
#411=DIRECTION('',(0.E0,-1.E0,0.E0));
#412=VECTOR('',#411,8.E-1);
#413=CARTESIAN_POINT('',(-7.5E-1,4.E-1,-1.33E1));
#414=LINE('',#413,#412);
#415=DIRECTION('',(0.E0,1.E0,0.E0));
#416=VECTOR('',#415,8.E-1);
#417=CARTESIAN_POINT('',(-7.5E-1,-4.E-1,-1.26E1));
#418=LINE('',#417,#416);
#419=CARTESIAN_POINT('',(-5.5E-1,-4.E-1,-1.26E1));
#420=DIRECTION('',(0.E0,1.E0,0.E0));
#421=DIRECTION('',(-1.E0,0.E0,0.E0));
#422=AXIS2_PLACEMENT_3D('',#419,#420,#421);
#424=CARTESIAN_POINT('',(-5.5E-1,4.E-1,-1.26E1));
#425=DIRECTION('',(0.E0,-1.E0,0.E0));
#426=DIRECTION('',(0.E0,0.E0,1.E0));
#427=AXIS2_PLACEMENT_3D('',#424,#425,#426);
#429=DIRECTION('',(0.E0,1.E0,0.E0));
#430=VECTOR('',#429,8.E-1);
#431=CARTESIAN_POINT('',(-5.5E-1,-4.E-1,-1.24E1));
#432=LINE('',#431,#430);
#433=DIRECTION('',(0.E0,1.E0,0.E0));
#434=VECTOR('',#433,8.E-1);
#435=CARTESIAN_POINT('',(5.5E-1,-4.E-1,-1.24E1));
#436=LINE('',#435,#434);
#437=CARTESIAN_POINT('',(5.5E-1,-4.E-1,-1.26E1));
#438=DIRECTION('',(0.E0,1.E0,0.E0));
#439=DIRECTION('',(0.E0,0.E0,1.E0));
#440=AXIS2_PLACEMENT_3D('',#437,#438,#439);
#442=CARTESIAN_POINT('',(5.5E-1,4.E-1,-1.26E1));
#443=DIRECTION('',(0.E0,-1.E0,0.E0));
#444=DIRECTION('',(1.E0,0.E0,0.E0));
#445=AXIS2_PLACEMENT_3D('',#442,#443,#444);
#447=DIRECTION('',(0.E0,-1.E0,0.E0));
#448=VECTOR('',#447,8.E-1);
#449=CARTESIAN_POINT('',(7.5E-1,4.E-1,-1.33E1));
#450=LINE('',#449,#448);
#451=DIRECTION('',(0.E0,1.E0,0.E0));
#452=VECTOR('',#451,8.E-1);
#453=CARTESIAN_POINT('',(7.5E-1,-4.E-1,-1.26E1));
#454=LINE('',#453,#452);
#455=DIRECTION('',(0.E0,-1.E0,0.E0));
#456=VECTOR('',#455,8.E-1);
#457=CARTESIAN_POINT('',(9.5E-1,4.E-1,-1.35E1));
#458=LINE('',#457,#456);
#459=DIRECTION('',(0.E0,1.E0,0.E0));
#460=VECTOR('',#459,8.E-1);
#461=CARTESIAN_POINT('',(2.14E0,-4.E-1,-1.35E1));
#462=LINE('',#461,#460);
#463=DIRECTION('',(0.E0,1.E0,0.E0));
#464=VECTOR('',#463,8.E-1);
#465=CARTESIAN_POINT('',(2.14E0,-4.E-1,-1.838696689248E1));
#466=LINE('',#465,#464);
#467=DIRECTION('',(0.E0,1.E0,0.E0));
#468=VECTOR('',#467,8.E-1);
#469=CARTESIAN_POINT('',(2.29E0,-4.E-1,-1.85E1));
#470=LINE('',#469,#468);
#471=DIRECTION('',(0.E0,1.E0,0.E0));
#472=VECTOR('',#471,8.E-1);
#473=CARTESIAN_POINT('',(2.79E0,-4.E-1,-1.85E1));
#474=LINE('',#473,#472);
#475=DIRECTION('',(0.E0,1.E0,0.E0));
#476=VECTOR('',#475,8.E-1);
#477=CARTESIAN_POINT('',(2.94E0,-4.E-1,-1.838696689248E1));
#478=LINE('',#477,#476);
#479=DIRECTION('',(0.E0,1.E0,0.E0));
#480=VECTOR('',#479,8.E-1);
#481=CARTESIAN_POINT('',(2.94E0,-4.E-1,-1.3E1));
#482=LINE('',#481,#480);
#483=DIRECTION('',(0.E0,1.E0,0.E0));
#484=VECTOR('',#483,8.E-1);
#485=CARTESIAN_POINT('',(4.4E0,-4.E-1,-1.3E1));
#486=LINE('',#485,#484);
#487=DIRECTION('',(0.E0,1.E0,0.E0));
#488=VECTOR('',#487,8.E-1);
#489=CARTESIAN_POINT('',(4.4E0,-4.E-1,-1.075E1));
#490=LINE('',#489,#488);
#491=DIRECTION('',(0.E0,1.E0,0.E0));
#492=VECTOR('',#491,8.E-1);
#493=CARTESIAN_POINT('',(3.140869852671E0,-4.E-1,-1.075E1));
#494=LINE('',#493,#492);
#495=DIRECTION('',(0.E0,1.E0,0.E0));
#496=VECTOR('',#495,8.E-1);
#497=CARTESIAN_POINT('',(2.899388396099E0,-4.E-1,-1.043529523872E1));
#498=LINE('',#497,#496);
#499=DIRECTION('',(0.E0,1.E0,0.E0));
#500=VECTOR('',#499,8.E-1);
#501=CARTESIAN_POINT('',(3.15E0,-4.E-1,-9.5E0));
#502=LINE('',#501,#500);
#503=DIRECTION('',(0.E0,1.E0,0.E0));
#504=VECTOR('',#503,8.E-1);
#505=CARTESIAN_POINT('',(3.15E0,-4.E-1,-1.E0));
#506=LINE('',#505,#504);
#507=DIRECTION('',(-7.016738431599E-1,-1.237240302065E-1,7.016738431599E-1));
#508=VECTOR('',#507,1.425163571007E0);
#509=CARTESIAN_POINT('',(3.15E0,4.E-1,-1.E0));
#510=LINE('',#509,#508);
#511=DIRECTION('',(7.016738431599E-1,-1.237240302065E-1,-7.016738431599E-1));
#512=VECTOR('',#511,1.425163571007E0);
#513=CARTESIAN_POINT('',(2.15E0,-2.236730192915E-1,0.E0));
#514=LINE('',#513,#512);
#515=DIRECTION('',(0.E0,1.E0,0.E0));
#516=VECTOR('',#515,4.473460385831E-1);
#517=CARTESIAN_POINT('',(2.15E0,-2.236730192915E-1,0.E0));
#518=LINE('',#517,#516);
#519=DIRECTION('',(1.E0,0.E0,0.E0));
#520=VECTOR('',#519,4.3E0);
#521=CARTESIAN_POINT('',(-2.15E0,2.236730192915E-1,0.E0));
#522=LINE('',#521,#520);
#523=DIRECTION('',(-1.E0,0.E0,0.E0));
#524=VECTOR('',#523,4.3E0);
#525=CARTESIAN_POINT('',(2.15E0,-2.236730192915E-1,0.E0));
#526=LINE('',#525,#524);
#527=DIRECTION('',(0.E0,1.E0,0.E0));
#528=VECTOR('',#527,4.473460385831E-1);
#529=CARTESIAN_POINT('',(-2.15E0,-2.236730192915E-1,0.E0));
#530=LINE('',#529,#528);
#531=DIRECTION('',(-7.016738431599E-1,1.237240302065E-1,-7.016738431599E-1));
#532=VECTOR('',#531,1.425163571007E0);
#533=CARTESIAN_POINT('',(-2.15E0,2.236730192915E-1,0.E0));
#534=LINE('',#533,#532);
#535=DIRECTION('',(7.016738431599E-1,1.237240302065E-1,7.016738431599E-1));
#536=VECTOR('',#535,1.425163571007E0);
#537=CARTESIAN_POINT('',(-3.15E0,-4.E-1,-1.E0));
#538=LINE('',#537,#536);
#539=DIRECTION('',(0.E0,1.E0,0.E0));
#540=VECTOR('',#539,8.E-1);
#541=CARTESIAN_POINT('',(-3.15E0,-4.E-1,-1.E0));
#542=LINE('',#541,#540);
#543=DIRECTION('',(0.E0,1.E0,0.E0));
#544=VECTOR('',#543,8.E-1);
#545=CARTESIAN_POINT('',(-3.15E0,-4.E-1,-9.5E0));
#546=LINE('',#545,#544);
#547=DIRECTION('',(0.E0,1.E0,0.E0));
#548=VECTOR('',#547,8.E-1);
#549=CARTESIAN_POINT('',(-2.899388396099E0,-4.E-1,-1.043529523872E1));
#550=LINE('',#549,#548);
#551=DIRECTION('',(0.E0,1.E0,0.E0));
#552=VECTOR('',#551,8.E-1);
#553=CARTESIAN_POINT('',(-3.140869852671E0,-4.E-1,-1.075E1));
#554=LINE('',#553,#552);
#555=DIRECTION('',(0.E0,1.E0,0.E0));
#556=VECTOR('',#555,8.E-1);
#557=CARTESIAN_POINT('',(-4.4E0,-4.E-1,-1.075E1));
#558=LINE('',#557,#556);
#559=DIRECTION('',(0.E0,1.E0,0.E0));
#560=VECTOR('',#559,8.E-1);
#561=CARTESIAN_POINT('',(-4.4E0,-4.E-1,-1.3E1));
#562=LINE('',#561,#560);
#563=DIRECTION('',(0.E0,1.E0,0.E0));
#564=VECTOR('',#563,8.E-1);
#565=CARTESIAN_POINT('',(-2.94E0,-4.E-1,-1.3E1));
#566=LINE('',#565,#564);
#567=DIRECTION('',(0.E0,1.E0,0.E0));
#568=VECTOR('',#567,8.E-1);
#569=CARTESIAN_POINT('',(-2.94E0,-4.E-1,-1.838696689248E1));
#570=LINE('',#569,#568);
#571=DIRECTION('',(0.E0,1.E0,0.E0));
#572=VECTOR('',#571,8.E-1);
#573=CARTESIAN_POINT('',(-2.79E0,-4.E-1,-1.85E1));
#574=LINE('',#573,#572);
#575=DIRECTION('',(0.E0,1.E0,0.E0));
#576=VECTOR('',#575,8.E-1);
#577=CARTESIAN_POINT('',(-2.29E0,-4.E-1,-1.85E1));
#578=LINE('',#577,#576);
#579=DIRECTION('',(0.E0,1.E0,0.E0));
#580=VECTOR('',#579,8.E-1);
#581=CARTESIAN_POINT('',(-2.14E0,-4.E-1,-1.838696689248E1));
#582=LINE('',#581,#580);
#583=DIRECTION('',(0.E0,1.E0,0.E0));
#584=VECTOR('',#583,8.E-1);
#585=CARTESIAN_POINT('',(-2.14E0,-4.E-1,-1.35E1));
#586=LINE('',#585,#584);
#587=DIRECTION('',(0.E0,-1.E0,0.E0));
#588=VECTOR('',#587,8.E-1);
#589=CARTESIAN_POINT('',(-9.5E-1,4.E-1,-1.35E1));
#590=LINE('',#589,#588);
#591=CARTESIAN_POINT('',(3.15E0,-4.E-1,-9.5E0));
#592=CARTESIAN_POINT('',(2.899388396099E0,-4.E-1,-1.043529523872E1));
#593=VERTEX_POINT('',#591);
#594=VERTEX_POINT('',#592);
#595=CARTESIAN_POINT('',(3.140869852671E0,-4.E-1,-1.075E1));
#596=VERTEX_POINT('',#595);
#597=CARTESIAN_POINT('',(4.4E0,-4.E-1,-1.075E1));
#598=VERTEX_POINT('',#597);
#599=CARTESIAN_POINT('',(4.4E0,-4.E-1,-1.3E1));
#600=VERTEX_POINT('',#599);
#601=CARTESIAN_POINT('',(2.94E0,-4.E-1,-1.3E1));
#602=VERTEX_POINT('',#601);
#603=CARTESIAN_POINT('',(2.94E0,-4.E-1,-1.838696689248E1));
#604=VERTEX_POINT('',#603);
#605=CARTESIAN_POINT('',(2.79E0,-4.E-1,-1.85E1));
#606=VERTEX_POINT('',#605);
#607=CARTESIAN_POINT('',(2.29E0,-4.E-1,-1.85E1));
#608=VERTEX_POINT('',#607);
#609=CARTESIAN_POINT('',(2.14E0,-4.E-1,-1.838696689248E1));
#610=VERTEX_POINT('',#609);
#611=CARTESIAN_POINT('',(2.14E0,-4.E-1,-1.35E1));
#612=VERTEX_POINT('',#611);
#613=CARTESIAN_POINT('',(-2.14E0,-4.E-1,-1.35E1));
#614=CARTESIAN_POINT('',(-2.14E0,-4.E-1,-1.838696689248E1));
#615=VERTEX_POINT('',#613);
#616=VERTEX_POINT('',#614);
#617=CARTESIAN_POINT('',(-2.29E0,-4.E-1,-1.85E1));
#618=VERTEX_POINT('',#617);
#619=CARTESIAN_POINT('',(-2.79E0,-4.E-1,-1.85E1));
#620=VERTEX_POINT('',#619);
#621=CARTESIAN_POINT('',(-2.94E0,-4.E-1,-1.838696689248E1));
#622=VERTEX_POINT('',#621);
#623=CARTESIAN_POINT('',(-2.94E0,-4.E-1,-1.3E1));
#624=VERTEX_POINT('',#623);
#625=CARTESIAN_POINT('',(-4.4E0,-4.E-1,-1.3E1));
#626=VERTEX_POINT('',#625);
#627=CARTESIAN_POINT('',(-4.4E0,-4.E-1,-1.075E1));
#628=VERTEX_POINT('',#627);
#629=CARTESIAN_POINT('',(-3.140869852671E0,-4.E-1,-1.075E1));
#630=VERTEX_POINT('',#629);
#631=CARTESIAN_POINT('',(-2.899388396099E0,-4.E-1,-1.043529523872E1));
#632=VERTEX_POINT('',#631);
#633=CARTESIAN_POINT('',(-3.15E0,-4.E-1,-9.5E0));
#634=VERTEX_POINT('',#633);
#635=CARTESIAN_POINT('',(3.15E0,4.E-1,-9.5E0));
#636=CARTESIAN_POINT('',(2.899388396099E0,4.E-1,-1.043529523872E1));
#637=VERTEX_POINT('',#635);
#638=VERTEX_POINT('',#636);
#639=CARTESIAN_POINT('',(3.140869852671E0,4.E-1,-1.075E1));
#640=VERTEX_POINT('',#639);
#641=CARTESIAN_POINT('',(4.4E0,4.E-1,-1.075E1));
#642=VERTEX_POINT('',#641);
#643=CARTESIAN_POINT('',(4.4E0,4.E-1,-1.3E1));
#644=VERTEX_POINT('',#643);
#645=CARTESIAN_POINT('',(2.94E0,4.E-1,-1.3E1));
#646=VERTEX_POINT('',#645);
#647=CARTESIAN_POINT('',(2.94E0,4.E-1,-1.838696689248E1));
#648=VERTEX_POINT('',#647);
#649=CARTESIAN_POINT('',(2.79E0,4.E-1,-1.85E1));
#650=VERTEX_POINT('',#649);
#651=CARTESIAN_POINT('',(2.29E0,4.E-1,-1.85E1));
#652=VERTEX_POINT('',#651);
#653=CARTESIAN_POINT('',(2.14E0,4.E-1,-1.838696689248E1));
#654=VERTEX_POINT('',#653);
#655=CARTESIAN_POINT('',(2.14E0,4.E-1,-1.35E1));
#656=VERTEX_POINT('',#655);
#657=CARTESIAN_POINT('',(-2.14E0,4.E-1,-1.35E1));
#658=CARTESIAN_POINT('',(-2.14E0,4.E-1,-1.838696689248E1));
#659=VERTEX_POINT('',#657);
#660=VERTEX_POINT('',#658);
#661=CARTESIAN_POINT('',(-2.29E0,4.E-1,-1.85E1));
#662=VERTEX_POINT('',#661);
#663=CARTESIAN_POINT('',(-2.79E0,4.E-1,-1.85E1));
#664=VERTEX_POINT('',#663);
#665=CARTESIAN_POINT('',(-2.94E0,4.E-1,-1.838696689248E1));
#666=VERTEX_POINT('',#665);
#667=CARTESIAN_POINT('',(-2.94E0,4.E-1,-1.3E1));
#668=VERTEX_POINT('',#667);
#669=CARTESIAN_POINT('',(-4.4E0,4.E-1,-1.3E1));
#670=VERTEX_POINT('',#669);
#671=CARTESIAN_POINT('',(-4.4E0,4.E-1,-1.075E1));
#672=VERTEX_POINT('',#671);
#673=CARTESIAN_POINT('',(-3.140869852671E0,4.E-1,-1.075E1));
#674=VERTEX_POINT('',#673);
#675=CARTESIAN_POINT('',(-2.899388396099E0,4.E-1,-1.043529523872E1));
#676=VERTEX_POINT('',#675);
#677=CARTESIAN_POINT('',(-3.15E0,4.E-1,-9.5E0));
#678=VERTEX_POINT('',#677);
#679=CARTESIAN_POINT('',(8.E-1,-4.E-1,-4.E0));
#680=CARTESIAN_POINT('',(-8.E-1,-4.E-1,-4.E0));
#681=VERTEX_POINT('',#679);
#682=VERTEX_POINT('',#680);
#683=CARTESIAN_POINT('',(8.E-1,4.E-1,-4.E0));
#684=CARTESIAN_POINT('',(-8.E-1,4.E-1,-4.E0));
#685=VERTEX_POINT('',#683);
#686=VERTEX_POINT('',#684);
#687=CARTESIAN_POINT('',(3.15E0,4.E-1,-1.E0));
#688=CARTESIAN_POINT('',(2.15E0,2.236730192915E-1,0.E0));
#689=VERTEX_POINT('',#687);
#690=VERTEX_POINT('',#688);
#691=CARTESIAN_POINT('',(-2.15E0,2.236730192915E-1,0.E0));
#692=VERTEX_POINT('',#691);
#693=CARTESIAN_POINT('',(-3.15E0,4.E-1,-1.E0));
#694=VERTEX_POINT('',#693);
#695=CARTESIAN_POINT('',(-3.15E0,-4.E-1,-1.E0));
#696=CARTESIAN_POINT('',(-2.15E0,-2.236730192915E-1,0.E0));
#697=VERTEX_POINT('',#695);
#698=VERTEX_POINT('',#696);
#699=CARTESIAN_POINT('',(2.15E0,-2.236730192915E-1,0.E0));
#700=VERTEX_POINT('',#699);
#701=CARTESIAN_POINT('',(3.15E0,-4.E-1,-1.E0));
#702=VERTEX_POINT('',#701);
#703=CARTESIAN_POINT('',(-7.5E-1,-4.E-1,-1.26E1));
#704=CARTESIAN_POINT('',(-7.5E-1,4.E-1,-1.26E1));
#705=VERTEX_POINT('',#703);
#706=VERTEX_POINT('',#704);
#707=CARTESIAN_POINT('',(-5.5E-1,-4.E-1,-1.24E1));
#708=CARTESIAN_POINT('',(-5.5E-1,4.E-1,-1.24E1));
#709=VERTEX_POINT('',#707);
#710=VERTEX_POINT('',#708);
#711=CARTESIAN_POINT('',(5.5E-1,-4.E-1,-1.24E1));
#712=CARTESIAN_POINT('',(5.5E-1,4.E-1,-1.24E1));
#713=VERTEX_POINT('',#711);
#714=VERTEX_POINT('',#712);
#715=CARTESIAN_POINT('',(7.5E-1,-4.E-1,-1.26E1));
#716=CARTESIAN_POINT('',(7.5E-1,4.E-1,-1.26E1));
#717=VERTEX_POINT('',#715);
#718=VERTEX_POINT('',#716);
#719=CARTESIAN_POINT('',(-9.5E-1,-4.E-1,-1.35E1));
#720=CARTESIAN_POINT('',(-7.5E-1,-4.E-1,-1.33E1));
#721=VERTEX_POINT('',#719);
#722=VERTEX_POINT('',#720);
#723=CARTESIAN_POINT('',(-7.5E-1,4.E-1,-1.33E1));
#724=VERTEX_POINT('',#723);
#725=CARTESIAN_POINT('',(-9.5E-1,4.E-1,-1.35E1));
#726=VERTEX_POINT('',#725);
#727=CARTESIAN_POINT('',(7.5E-1,-4.E-1,-1.33E1));
#728=CARTESIAN_POINT('',(9.5E-1,-4.E-1,-1.35E1));
#729=VERTEX_POINT('',#727);
#730=VERTEX_POINT('',#728);
#731=CARTESIAN_POINT('',(9.5E-1,4.E-1,-1.35E1));
#732=VERTEX_POINT('',#731);
#733=CARTESIAN_POINT('',(7.5E-1,4.E-1,-1.33E1));
#734=VERTEX_POINT('',#733);
#735=CARTESIAN_POINT('',(0.E0,-4.E-1,0.E0));
#736=DIRECTION('',(0.E0,1.E0,0.E0));
#737=DIRECTION('',(1.E0,0.E0,0.E0));
#738=AXIS2_PLACEMENT_3D('',#735,#736,#737);
#739=PLANE('',#738);
#741=ORIENTED_EDGE('',*,*,#740,.F.);
#743=ORIENTED_EDGE('',*,*,#742,.T.);
#745=ORIENTED_EDGE('',*,*,#744,.T.);
#747=ORIENTED_EDGE('',*,*,#746,.T.);
#749=ORIENTED_EDGE('',*,*,#748,.T.);
#751=ORIENTED_EDGE('',*,*,#750,.T.);
#753=ORIENTED_EDGE('',*,*,#752,.T.);
#755=ORIENTED_EDGE('',*,*,#754,.T.);
#757=ORIENTED_EDGE('',*,*,#756,.T.);
#759=ORIENTED_EDGE('',*,*,#758,.T.);
#761=ORIENTED_EDGE('',*,*,#760,.T.);
#763=ORIENTED_EDGE('',*,*,#762,.T.);
#765=ORIENTED_EDGE('',*,*,#764,.T.);
#767=ORIENTED_EDGE('',*,*,#766,.F.);
#769=ORIENTED_EDGE('',*,*,#768,.T.);
#771=ORIENTED_EDGE('',*,*,#770,.T.);
#773=ORIENTED_EDGE('',*,*,#772,.T.);
#775=ORIENTED_EDGE('',*,*,#774,.T.);
#777=ORIENTED_EDGE('',*,*,#776,.T.);
#779=ORIENTED_EDGE('',*,*,#778,.T.);
#781=ORIENTED_EDGE('',*,*,#780,.T.);
#783=ORIENTED_EDGE('',*,*,#782,.T.);
#785=ORIENTED_EDGE('',*,*,#784,.T.);
#787=ORIENTED_EDGE('',*,*,#786,.T.);
#789=ORIENTED_EDGE('',*,*,#788,.T.);
#791=ORIENTED_EDGE('',*,*,#790,.T.);
#793=ORIENTED_EDGE('',*,*,#792,.F.);
#795=ORIENTED_EDGE('',*,*,#794,.T.);
#797=ORIENTED_EDGE('',*,*,#796,.F.);
#799=ORIENTED_EDGE('',*,*,#798,.T.);
#801=ORIENTED_EDGE('',*,*,#800,.F.);
#803=ORIENTED_EDGE('',*,*,#802,.T.);
#804=EDGE_LOOP('',(#741,#743,#745,#747,#749,#751,#753,#755,#757,#759,#761,#763,
#765,#767,#769,#771,#773,#775,#777,#779,#781,#783,#785,#787,#789,#791,#793,#795,
#797,#799,#801,#803));
#805=FACE_OUTER_BOUND('',#804,.F.);
#807=ORIENTED_EDGE('',*,*,#806,.T.);
#809=ORIENTED_EDGE('',*,*,#808,.T.);
#810=EDGE_LOOP('',(#807,#809));
#811=FACE_BOUND('',#810,.F.);
#813=CARTESIAN_POINT('',(0.E0,-4.E-1,-4.E0));
#814=DIRECTION('',(0.E0,1.E0,0.E0));
#815=DIRECTION('',(1.E0,0.E0,0.E0));
#816=AXIS2_PLACEMENT_3D('',#813,#814,#815);
#817=CYLINDRICAL_SURFACE('',#816,8.E-1);
#818=ORIENTED_EDGE('',*,*,#806,.F.);
#820=ORIENTED_EDGE('',*,*,#819,.T.);
#822=ORIENTED_EDGE('',*,*,#821,.T.);
#824=ORIENTED_EDGE('',*,*,#823,.F.);
#825=EDGE_LOOP('',(#818,#820,#822,#824));
#826=FACE_OUTER_BOUND('',#825,.F.);
#828=CARTESIAN_POINT('',(0.E0,-4.E-1,-4.E0));
#829=DIRECTION('',(0.E0,1.E0,0.E0));
#830=DIRECTION('',(1.E0,0.E0,0.E0));
#831=AXIS2_PLACEMENT_3D('',#828,#829,#830);
#832=CYLINDRICAL_SURFACE('',#831,8.E-1);
#833=ORIENTED_EDGE('',*,*,#808,.F.);
#834=ORIENTED_EDGE('',*,*,#823,.T.);
#836=ORIENTED_EDGE('',*,*,#835,.T.);
#837=ORIENTED_EDGE('',*,*,#819,.F.);
#838=EDGE_LOOP('',(#833,#834,#836,#837));
#839=FACE_OUTER_BOUND('',#838,.F.);
#841=CARTESIAN_POINT('',(0.E0,4.E-1,0.E0));
#842=DIRECTION('',(0.E0,1.E0,0.E0));
#843=DIRECTION('',(1.E0,0.E0,0.E0));
#844=AXIS2_PLACEMENT_3D('',#841,#842,#843);
#845=PLANE('',#844);
#847=ORIENTED_EDGE('',*,*,#846,.F.);
#849=ORIENTED_EDGE('',*,*,#848,.F.);
#851=ORIENTED_EDGE('',*,*,#850,.F.);
#853=ORIENTED_EDGE('',*,*,#852,.F.);
#855=ORIENTED_EDGE('',*,*,#854,.F.);
#857=ORIENTED_EDGE('',*,*,#856,.F.);
#859=ORIENTED_EDGE('',*,*,#858,.F.);
#861=ORIENTED_EDGE('',*,*,#860,.F.);
#863=ORIENTED_EDGE('',*,*,#862,.F.);
#865=ORIENTED_EDGE('',*,*,#864,.F.);
#867=ORIENTED_EDGE('',*,*,#866,.F.);
#869=ORIENTED_EDGE('',*,*,#868,.F.);
#871=ORIENTED_EDGE('',*,*,#870,.F.);
#873=ORIENTED_EDGE('',*,*,#872,.F.);
#875=ORIENTED_EDGE('',*,*,#874,.F.);
#877=ORIENTED_EDGE('',*,*,#876,.F.);
#879=ORIENTED_EDGE('',*,*,#878,.F.);
#881=ORIENTED_EDGE('',*,*,#880,.F.);
#883=ORIENTED_EDGE('',*,*,#882,.F.);
#885=ORIENTED_EDGE('',*,*,#884,.F.);
#887=ORIENTED_EDGE('',*,*,#886,.F.);
#889=ORIENTED_EDGE('',*,*,#888,.F.);
#891=ORIENTED_EDGE('',*,*,#890,.F.);
#893=ORIENTED_EDGE('',*,*,#892,.F.);
#895=ORIENTED_EDGE('',*,*,#894,.F.);
#897=ORIENTED_EDGE('',*,*,#896,.F.);
#899=ORIENTED_EDGE('',*,*,#898,.F.);
#901=ORIENTED_EDGE('',*,*,#900,.F.);
#903=ORIENTED_EDGE('',*,*,#902,.F.);
#905=ORIENTED_EDGE('',*,*,#904,.F.);
#907=ORIENTED_EDGE('',*,*,#906,.F.);
#909=ORIENTED_EDGE('',*,*,#908,.F.);
#910=EDGE_LOOP('',(#847,#849,#851,#853,#855,#857,#859,#861,#863,#865,#867,#869,
#871,#873,#875,#877,#879,#881,#883,#885,#887,#889,#891,#893,#895,#897,#899,#901,
#903,#905,#907,#909));
#911=FACE_OUTER_BOUND('',#910,.F.);
#912=ORIENTED_EDGE('',*,*,#821,.F.);
#913=ORIENTED_EDGE('',*,*,#835,.F.);
#914=EDGE_LOOP('',(#912,#913));
#915=FACE_BOUND('',#914,.F.);
#917=CARTESIAN_POINT('',(-9.5E-1,1.44288E0,-1.33E1));
#918=DIRECTION('',(0.E0,-1.E0,0.E0));
#919=DIRECTION('',(0.E0,0.E0,-1.E0));
#920=AXIS2_PLACEMENT_3D('',#917,#918,#919);
#921=CYLINDRICAL_SURFACE('',#920,2.E-1);
#922=ORIENTED_EDGE('',*,*,#740,.T.);
#924=ORIENTED_EDGE('',*,*,#923,.F.);
#925=ORIENTED_EDGE('',*,*,#846,.T.);
#927=ORIENTED_EDGE('',*,*,#926,.T.);
#928=EDGE_LOOP('',(#922,#924,#925,#927));
#929=FACE_OUTER_BOUND('',#928,.F.);
#931=CARTESIAN_POINT('',(-7.5E-1,-4.E-1,-1.24E1));
#932=DIRECTION('',(1.E0,0.E0,0.E0));
#933=DIRECTION('',(0.E0,0.E0,-1.E0));
#934=AXIS2_PLACEMENT_3D('',#931,#932,#933);
#935=PLANE('',#934);
#936=ORIENTED_EDGE('',*,*,#923,.T.);
#937=ORIENTED_EDGE('',*,*,#802,.F.);
#939=ORIENTED_EDGE('',*,*,#938,.T.);
#940=ORIENTED_EDGE('',*,*,#848,.T.);
#941=EDGE_LOOP('',(#936,#937,#939,#940));
#942=FACE_OUTER_BOUND('',#941,.F.);
#944=CARTESIAN_POINT('',(-5.5E-1,-1.44288E0,-1.26E1));
#945=DIRECTION('',(0.E0,1.E0,0.E0));
#946=DIRECTION('',(-1.E0,0.E0,0.E0));
#947=AXIS2_PLACEMENT_3D('',#944,#945,#946);
#948=CYLINDRICAL_SURFACE('',#947,2.E-1);
#949=ORIENTED_EDGE('',*,*,#938,.F.);
#950=ORIENTED_EDGE('',*,*,#800,.T.);
#952=ORIENTED_EDGE('',*,*,#951,.T.);
#953=ORIENTED_EDGE('',*,*,#850,.T.);
#954=EDGE_LOOP('',(#949,#950,#952,#953));
#955=FACE_OUTER_BOUND('',#954,.F.);
#957=CARTESIAN_POINT('',(7.5E-1,-4.E-1,-1.24E1));
#958=DIRECTION('',(0.E0,0.E0,-1.E0));
#959=DIRECTION('',(-1.E0,0.E0,0.E0));
#960=AXIS2_PLACEMENT_3D('',#957,#958,#959);
#961=PLANE('',#960);
#962=ORIENTED_EDGE('',*,*,#951,.F.);
#963=ORIENTED_EDGE('',*,*,#798,.F.);
#965=ORIENTED_EDGE('',*,*,#964,.T.);
#966=ORIENTED_EDGE('',*,*,#852,.T.);
#967=EDGE_LOOP('',(#962,#963,#965,#966));
#968=FACE_OUTER_BOUND('',#967,.F.);
#970=CARTESIAN_POINT('',(5.5E-1,-1.44288E0,-1.26E1));
#971=DIRECTION('',(0.E0,1.E0,0.E0));
#972=DIRECTION('',(0.E0,0.E0,1.E0));
#973=AXIS2_PLACEMENT_3D('',#970,#971,#972);
#974=CYLINDRICAL_SURFACE('',#973,2.E-1);
#975=ORIENTED_EDGE('',*,*,#964,.F.);
#976=ORIENTED_EDGE('',*,*,#796,.T.);
#978=ORIENTED_EDGE('',*,*,#977,.T.);
#979=ORIENTED_EDGE('',*,*,#854,.T.);
#980=EDGE_LOOP('',(#975,#976,#978,#979));
#981=FACE_OUTER_BOUND('',#980,.F.);
#983=CARTESIAN_POINT('',(7.5E-1,-4.E-1,-1.35E1));
#984=DIRECTION('',(-1.E0,0.E0,0.E0));
#985=DIRECTION('',(0.E0,0.E0,1.E0));
#986=AXIS2_PLACEMENT_3D('',#983,#984,#985);
#987=PLANE('',#986);
#989=ORIENTED_EDGE('',*,*,#988,.F.);
#990=ORIENTED_EDGE('',*,*,#856,.T.);
#991=ORIENTED_EDGE('',*,*,#977,.F.);
#992=ORIENTED_EDGE('',*,*,#794,.F.);
#993=EDGE_LOOP('',(#989,#990,#991,#992));
#994=FACE_OUTER_BOUND('',#993,.F.);
#996=CARTESIAN_POINT('',(9.5E-1,1.44288E0,-1.33E1));
#997=DIRECTION('',(0.E0,-1.E0,0.E0));
#998=DIRECTION('',(-1.E0,0.E0,0.E0));
#999=AXIS2_PLACEMENT_3D('',#996,#997,#998);
#1000=CYLINDRICAL_SURFACE('',#999,2.E-1);
#1001=ORIENTED_EDGE('',*,*,#792,.T.);
#1003=ORIENTED_EDGE('',*,*,#1002,.F.);
#1004=ORIENTED_EDGE('',*,*,#858,.T.);
#1005=ORIENTED_EDGE('',*,*,#988,.T.);
#1006=EDGE_LOOP('',(#1001,#1003,#1004,#1005));
#1007=FACE_OUTER_BOUND('',#1006,.F.);
#1009=CARTESIAN_POINT('',(2.14E0,-4.E-1,-1.35E1));
#1010=DIRECTION('',(0.E0,0.E0,-1.E0));
#1011=DIRECTION('',(-1.E0,0.E0,0.E0));
#1012=AXIS2_PLACEMENT_3D('',#1009,#1010,#1011);
#1013=PLANE('',#1012);
#1014=ORIENTED_EDGE('',*,*,#1002,.T.);
#1015=ORIENTED_EDGE('',*,*,#790,.F.);
#1017=ORIENTED_EDGE('',*,*,#1016,.T.);
#1018=ORIENTED_EDGE('',*,*,#860,.T.);
#1019=EDGE_LOOP('',(#1014,#1015,#1017,#1018));
#1020=FACE_OUTER_BOUND('',#1019,.F.);
#1022=CARTESIAN_POINT('',(2.14E0,-4.E-1,-1.838696689248E1));
#1023=DIRECTION('',(-1.E0,0.E0,0.E0));
#1024=DIRECTION('',(0.E0,0.E0,1.E0));
#1025=AXIS2_PLACEMENT_3D('',#1022,#1023,#1024);
#1026=PLANE('',#1025);
#1027=ORIENTED_EDGE('',*,*,#788,.F.);
#1029=ORIENTED_EDGE('',*,*,#1028,.T.);
#1030=ORIENTED_EDGE('',*,*,#862,.T.);
#1031=ORIENTED_EDGE('',*,*,#1016,.F.);
#1032=EDGE_LOOP('',(#1027,#1029,#1030,#1031));
#1033=FACE_OUTER_BOUND('',#1032,.F.);
#1035=CARTESIAN_POINT('',(2.29E0,-4.E-1,-1.85E1));
#1036=DIRECTION('',(-6.018150231521E-1,0.E0,-7.986355100473E-1));
#1037=DIRECTION('',(-7.986355100473E-1,0.E0,6.018150231521E-1));
#1038=AXIS2_PLACEMENT_3D('',#1035,#1036,#1037);
#1039=PLANE('',#1038);
#1040=ORIENTED_EDGE('',*,*,#786,.F.);
#1042=ORIENTED_EDGE('',*,*,#1041,.T.);
#1043=ORIENTED_EDGE('',*,*,#864,.T.);
#1044=ORIENTED_EDGE('',*,*,#1028,.F.);
#1045=EDGE_LOOP('',(#1040,#1042,#1043,#1044));
#1046=FACE_OUTER_BOUND('',#1045,.F.);
#1048=CARTESIAN_POINT('',(2.79E0,-4.E-1,-1.85E1));
#1049=DIRECTION('',(0.E0,0.E0,-1.E0));
#1050=DIRECTION('',(-1.E0,0.E0,0.E0));
#1051=AXIS2_PLACEMENT_3D('',#1048,#1049,#1050);
#1052=PLANE('',#1051);
#1053=ORIENTED_EDGE('',*,*,#784,.F.);
#1055=ORIENTED_EDGE('',*,*,#1054,.T.);
#1056=ORIENTED_EDGE('',*,*,#866,.T.);
#1057=ORIENTED_EDGE('',*,*,#1041,.F.);
#1058=EDGE_LOOP('',(#1053,#1055,#1056,#1057));
#1059=FACE_OUTER_BOUND('',#1058,.F.);
#1061=CARTESIAN_POINT('',(2.94E0,-4.E-1,-1.838696689248E1));
#1062=DIRECTION('',(6.018150231521E-1,0.E0,-7.986355100473E-1));
#1063=DIRECTION('',(-7.986355100473E-1,0.E0,-6.018150231521E-1));
#1064=AXIS2_PLACEMENT_3D('',#1061,#1062,#1063);
#1065=PLANE('',#1064);
#1066=ORIENTED_EDGE('',*,*,#782,.F.);
#1068=ORIENTED_EDGE('',*,*,#1067,.T.);
#1069=ORIENTED_EDGE('',*,*,#868,.T.);
#1070=ORIENTED_EDGE('',*,*,#1054,.F.);
#1071=EDGE_LOOP('',(#1066,#1068,#1069,#1070));
#1072=FACE_OUTER_BOUND('',#1071,.F.);
#1074=CARTESIAN_POINT('',(2.94E0,-4.E-1,-1.3E1));
#1075=DIRECTION('',(1.E0,0.E0,0.E0));
#1076=DIRECTION('',(0.E0,0.E0,-1.E0));
#1077=AXIS2_PLACEMENT_3D('',#1074,#1075,#1076);
#1078=PLANE('',#1077);
#1079=ORIENTED_EDGE('',*,*,#780,.F.);
#1081=ORIENTED_EDGE('',*,*,#1080,.T.);
#1082=ORIENTED_EDGE('',*,*,#870,.T.);
#1083=ORIENTED_EDGE('',*,*,#1067,.F.);
#1084=EDGE_LOOP('',(#1079,#1081,#1082,#1083));
#1085=FACE_OUTER_BOUND('',#1084,.F.);
#1087=CARTESIAN_POINT('',(4.4E0,-4.E-1,-1.3E1));
#1088=DIRECTION('',(0.E0,0.E0,-1.E0));
#1089=DIRECTION('',(-1.E0,0.E0,0.E0));
#1090=AXIS2_PLACEMENT_3D('',#1087,#1088,#1089);
#1091=PLANE('',#1090);
#1092=ORIENTED_EDGE('',*,*,#778,.F.);
#1094=ORIENTED_EDGE('',*,*,#1093,.T.);
#1095=ORIENTED_EDGE('',*,*,#872,.T.);
#1096=ORIENTED_EDGE('',*,*,#1080,.F.);
#1097=EDGE_LOOP('',(#1092,#1094,#1095,#1096));
#1098=FACE_OUTER_BOUND('',#1097,.F.);
#1100=CARTESIAN_POINT('',(4.4E0,-4.E-1,-1.075E1));
#1101=DIRECTION('',(1.E0,0.E0,0.E0));
#1102=DIRECTION('',(0.E0,0.E0,-1.E0));
#1103=AXIS2_PLACEMENT_3D('',#1100,#1101,#1102);
#1104=PLANE('',#1103);
#1105=ORIENTED_EDGE('',*,*,#776,.F.);
#1107=ORIENTED_EDGE('',*,*,#1106,.T.);
#1108=ORIENTED_EDGE('',*,*,#874,.T.);
#1109=ORIENTED_EDGE('',*,*,#1093,.F.);
#1110=EDGE_LOOP('',(#1105,#1107,#1108,#1109));
#1111=FACE_OUTER_BOUND('',#1110,.F.);
#1113=CARTESIAN_POINT('',(3.140869852671E0,-4.E-1,-1.075E1));
#1114=DIRECTION('',(0.E0,0.E0,1.E0));
#1115=DIRECTION('',(1.E0,0.E0,0.E0));
#1116=AXIS2_PLACEMENT_3D('',#1113,#1114,#1115);
#1117=PLANE('',#1116);
#1118=ORIENTED_EDGE('',*,*,#774,.F.);
#1120=ORIENTED_EDGE('',*,*,#1119,.T.);
#1121=ORIENTED_EDGE('',*,*,#876,.T.);
#1122=ORIENTED_EDGE('',*,*,#1106,.F.);
#1123=EDGE_LOOP('',(#1118,#1120,#1121,#1122));
#1124=FACE_OUTER_BOUND('',#1123,.F.);
#1126=CARTESIAN_POINT('',(3.140869852671E0,-4.E-1,-1.05E1));
#1127=DIRECTION('',(0.E0,1.E0,0.E0));
#1128=DIRECTION('',(1.E0,0.E0,0.E0));
#1129=AXIS2_PLACEMENT_3D('',#1126,#1127,#1128);
#1130=CYLINDRICAL_SURFACE('',#1129,2.5E-1);
#1131=ORIENTED_EDGE('',*,*,#772,.F.);
#1133=ORIENTED_EDGE('',*,*,#1132,.T.);
#1134=ORIENTED_EDGE('',*,*,#878,.T.);
#1135=ORIENTED_EDGE('',*,*,#1119,.F.);
#1136=EDGE_LOOP('',(#1131,#1133,#1134,#1135));
#1137=FACE_OUTER_BOUND('',#1136,.F.);
#1139=CARTESIAN_POINT('',(3.15E0,-4.E-1,-9.5E0));
#1140=DIRECTION('',(9.659258262891E-1,0.E0,-2.588190451025E-1));
#1141=DIRECTION('',(-2.588190451025E-1,0.E0,-9.659258262891E-1));
#1142=AXIS2_PLACEMENT_3D('',#1139,#1140,#1141);
#1143=PLANE('',#1142);
#1144=ORIENTED_EDGE('',*,*,#770,.F.);
#1146=ORIENTED_EDGE('',*,*,#1145,.T.);
#1147=ORIENTED_EDGE('',*,*,#880,.T.);
#1148=ORIENTED_EDGE('',*,*,#1132,.F.);
#1149=EDGE_LOOP('',(#1144,#1146,#1147,#1148));
#1150=FACE_OUTER_BOUND('',#1149,.F.);
#1152=CARTESIAN_POINT('',(3.15E0,-4.E-1,-1.E0));
#1153=DIRECTION('',(1.E0,0.E0,0.E0));
#1154=DIRECTION('',(0.E0,0.E0,-1.E0));
#1155=AXIS2_PLACEMENT_3D('',#1152,#1153,#1154);
#1156=PLANE('',#1155);
#1157=ORIENTED_EDGE('',*,*,#768,.F.);
#1159=ORIENTED_EDGE('',*,*,#1158,.T.);
#1160=ORIENTED_EDGE('',*,*,#882,.T.);
#1161=ORIENTED_EDGE('',*,*,#1145,.F.);
#1162=EDGE_LOOP('',(#1157,#1159,#1160,#1161));
#1163=FACE_OUTER_BOUND('',#1162,.F.);
#1165=CARTESIAN_POINT('',(2.15E0,-4.E-1,0.E0));
#1166=DIRECTION('',(7.071067811865E-1,0.E0,7.071067811865E-1));
#1167=DIRECTION('',(7.071067811865E-1,0.E0,-7.071067811865E-1));
#1168=AXIS2_PLACEMENT_3D('',#1165,#1166,#1167);
#1169=PLANE('',#1168);
#1171=ORIENTED_EDGE('',*,*,#1170,.F.);
#1172=ORIENTED_EDGE('',*,*,#1158,.F.);
#1174=ORIENTED_EDGE('',*,*,#1173,.F.);
#1176=ORIENTED_EDGE('',*,*,#1175,.T.);
#1177=EDGE_LOOP('',(#1171,#1172,#1174,#1176));
#1178=FACE_OUTER_BOUND('',#1177,.F.);
#1180=CARTESIAN_POINT('',(0.E0,3.118365096458E-1,-5.E-1));
#1181=DIRECTION('',(0.E0,9.848077530122E-1,1.736481776669E-1));
#1182=DIRECTION('',(-1.E0,0.E0,0.E0));
#1183=AXIS2_PLACEMENT_3D('',#1180,#1181,#1182);
#1184=PLANE('',#1183);
#1185=ORIENTED_EDGE('',*,*,#1170,.T.);
#1187=ORIENTED_EDGE('',*,*,#1186,.F.);
#1189=ORIENTED_EDGE('',*,*,#1188,.T.);
#1190=ORIENTED_EDGE('',*,*,#884,.T.);
#1191=EDGE_LOOP('',(#1185,#1187,#1189,#1190));
#1192=FACE_OUTER_BOUND('',#1191,.F.);
#1194=CARTESIAN_POINT('',(-2.15E0,-4.E-1,0.E0));
#1195=DIRECTION('',(0.E0,0.E0,1.E0));
#1196=DIRECTION('',(1.E0,0.E0,0.E0));
#1197=AXIS2_PLACEMENT_3D('',#1194,#1195,#1196);
#1198=PLANE('',#1197);
#1199=ORIENTED_EDGE('',*,*,#1186,.T.);
#1200=ORIENTED_EDGE('',*,*,#1175,.F.);
#1202=ORIENTED_EDGE('',*,*,#1201,.T.);
#1204=ORIENTED_EDGE('',*,*,#1203,.T.);
#1205=EDGE_LOOP('',(#1199,#1200,#1202,#1204));
#1206=FACE_OUTER_BOUND('',#1205,.F.);
#1208=CARTESIAN_POINT('',(0.E0,-3.118365096458E-1,-5.E-1));
#1209=DIRECTION('',(0.E0,-9.848077530122E-1,1.736481776669E-1));
#1210=DIRECTION('',(-1.E0,0.E0,0.E0));
#1211=AXIS2_PLACEMENT_3D('',#1208,#1209,#1210);
#1212=PLANE('',#1211);
#1214=ORIENTED_EDGE('',*,*,#1213,.T.);
#1215=ORIENTED_EDGE('',*,*,#1201,.F.);
#1216=ORIENTED_EDGE('',*,*,#1173,.T.);
#1217=ORIENTED_EDGE('',*,*,#766,.T.);
#1218=EDGE_LOOP('',(#1214,#1215,#1216,#1217));
#1219=FACE_OUTER_BOUND('',#1218,.F.);
#1221=CARTESIAN_POINT('',(-3.15E0,-4.E-1,-1.E0));
#1222=DIRECTION('',(-7.071067811865E-1,0.E0,7.071067811865E-1));
#1223=DIRECTION('',(7.071067811865E-1,0.E0,7.071067811865E-1));
#1224=AXIS2_PLACEMENT_3D('',#1221,#1222,#1223);
#1225=PLANE('',#1224);
#1226=ORIENTED_EDGE('',*,*,#1188,.F.);
#1227=ORIENTED_EDGE('',*,*,#1203,.F.);
#1228=ORIENTED_EDGE('',*,*,#1213,.F.);
#1230=ORIENTED_EDGE('',*,*,#1229,.T.);
#1231=EDGE_LOOP('',(#1226,#1227,#1228,#1230));
#1232=FACE_OUTER_BOUND('',#1231,.F.);
#1234=CARTESIAN_POINT('',(-3.15E0,-4.E-1,-9.5E0));
#1235=DIRECTION('',(-1.E0,0.E0,0.E0));
#1236=DIRECTION('',(0.E0,0.E0,1.E0));
#1237=AXIS2_PLACEMENT_3D('',#1234,#1235,#1236);
#1238=PLANE('',#1237);
#1239=ORIENTED_EDGE('',*,*,#764,.F.);
#1241=ORIENTED_EDGE('',*,*,#1240,.T.);
#1242=ORIENTED_EDGE('',*,*,#886,.T.);
#1243=ORIENTED_EDGE('',*,*,#1229,.F.);
#1244=EDGE_LOOP('',(#1239,#1241,#1242,#1243));
#1245=FACE_OUTER_BOUND('',#1244,.F.);
#1247=CARTESIAN_POINT('',(-2.899388396099E0,-4.E-1,-1.043529523872E1));
#1248=DIRECTION('',(-9.659258262891E-1,0.E0,-2.588190451025E-1));
#1249=DIRECTION('',(-2.588190451025E-1,0.E0,9.659258262891E-1));
#1250=AXIS2_PLACEMENT_3D('',#1247,#1248,#1249);
#1251=PLANE('',#1250);
#1252=ORIENTED_EDGE('',*,*,#762,.F.);
#1254=ORIENTED_EDGE('',*,*,#1253,.T.);
#1255=ORIENTED_EDGE('',*,*,#888,.T.);
#1256=ORIENTED_EDGE('',*,*,#1240,.F.);
#1257=EDGE_LOOP('',(#1252,#1254,#1255,#1256));
#1258=FACE_OUTER_BOUND('',#1257,.F.);
#1260=CARTESIAN_POINT('',(-3.140869852671E0,-4.E-1,-1.05E1));
#1261=DIRECTION('',(0.E0,1.E0,0.E0));
#1262=DIRECTION('',(1.E0,0.E0,0.E0));
#1263=AXIS2_PLACEMENT_3D('',#1260,#1261,#1262);
#1264=CYLINDRICAL_SURFACE('',#1263,2.5E-1);
#1265=ORIENTED_EDGE('',*,*,#760,.F.);
#1267=ORIENTED_EDGE('',*,*,#1266,.T.);
#1268=ORIENTED_EDGE('',*,*,#890,.T.);
#1269=ORIENTED_EDGE('',*,*,#1253,.F.);
#1270=EDGE_LOOP('',(#1265,#1267,#1268,#1269));
#1271=FACE_OUTER_BOUND('',#1270,.F.);
#1273=CARTESIAN_POINT('',(-4.4E0,-4.E-1,-1.075E1));
#1274=DIRECTION('',(0.E0,0.E0,1.E0));
#1275=DIRECTION('',(1.E0,0.E0,0.E0));
#1276=AXIS2_PLACEMENT_3D('',#1273,#1274,#1275);
#1277=PLANE('',#1276);
#1278=ORIENTED_EDGE('',*,*,#758,.F.);
#1280=ORIENTED_EDGE('',*,*,#1279,.T.);
#1281=ORIENTED_EDGE('',*,*,#892,.T.);
#1282=ORIENTED_EDGE('',*,*,#1266,.F.);
#1283=EDGE_LOOP('',(#1278,#1280,#1281,#1282));
#1284=FACE_OUTER_BOUND('',#1283,.F.);
#1286=CARTESIAN_POINT('',(-4.4E0,-4.E-1,-1.3E1));
#1287=DIRECTION('',(-1.E0,0.E0,0.E0));
#1288=DIRECTION('',(0.E0,0.E0,1.E0));
#1289=AXIS2_PLACEMENT_3D('',#1286,#1287,#1288);
#1290=PLANE('',#1289);
#1291=ORIENTED_EDGE('',*,*,#756,.F.);
#1293=ORIENTED_EDGE('',*,*,#1292,.T.);
#1294=ORIENTED_EDGE('',*,*,#894,.T.);
#1295=ORIENTED_EDGE('',*,*,#1279,.F.);
#1296=EDGE_LOOP('',(#1291,#1293,#1294,#1295));
#1297=FACE_OUTER_BOUND('',#1296,.F.);
#1299=CARTESIAN_POINT('',(-2.94E0,-4.E-1,-1.3E1));
#1300=DIRECTION('',(0.E0,0.E0,-1.E0));
#1301=DIRECTION('',(-1.E0,0.E0,0.E0));
#1302=AXIS2_PLACEMENT_3D('',#1299,#1300,#1301);
#1303=PLANE('',#1302);
#1304=ORIENTED_EDGE('',*,*,#754,.F.);
#1306=ORIENTED_EDGE('',*,*,#1305,.T.);
#1307=ORIENTED_EDGE('',*,*,#896,.T.);
#1308=ORIENTED_EDGE('',*,*,#1292,.F.);
#1309=EDGE_LOOP('',(#1304,#1306,#1307,#1308));
#1310=FACE_OUTER_BOUND('',#1309,.F.);
#1312=CARTESIAN_POINT('',(-2.94E0,-4.E-1,-1.838696689248E1));
#1313=DIRECTION('',(-1.E0,0.E0,0.E0));
#1314=DIRECTION('',(0.E0,0.E0,1.E0));
#1315=AXIS2_PLACEMENT_3D('',#1312,#1313,#1314);
#1316=PLANE('',#1315);
#1317=ORIENTED_EDGE('',*,*,#752,.F.);
#1319=ORIENTED_EDGE('',*,*,#1318,.T.);
#1320=ORIENTED_EDGE('',*,*,#898,.T.);
#1321=ORIENTED_EDGE('',*,*,#1305,.F.);
#1322=EDGE_LOOP('',(#1317,#1319,#1320,#1321));
#1323=FACE_OUTER_BOUND('',#1322,.F.);
#1325=CARTESIAN_POINT('',(-2.79E0,-4.E-1,-1.85E1));
#1326=DIRECTION('',(-6.018150231521E-1,0.E0,-7.986355100473E-1));
#1327=DIRECTION('',(-7.986355100473E-1,0.E0,6.018150231521E-1));
#1328=AXIS2_PLACEMENT_3D('',#1325,#1326,#1327);
#1329=PLANE('',#1328);
#1330=ORIENTED_EDGE('',*,*,#750,.F.);
#1332=ORIENTED_EDGE('',*,*,#1331,.T.);
#1333=ORIENTED_EDGE('',*,*,#900,.T.);
#1334=ORIENTED_EDGE('',*,*,#1318,.F.);
#1335=EDGE_LOOP('',(#1330,#1332,#1333,#1334));
#1336=FACE_OUTER_BOUND('',#1335,.F.);
#1338=CARTESIAN_POINT('',(-2.29E0,-4.E-1,-1.85E1));
#1339=DIRECTION('',(0.E0,0.E0,-1.E0));
#1340=DIRECTION('',(-1.E0,0.E0,0.E0));
#1341=AXIS2_PLACEMENT_3D('',#1338,#1339,#1340);
#1342=PLANE('',#1341);
#1343=ORIENTED_EDGE('',*,*,#748,.F.);
#1345=ORIENTED_EDGE('',*,*,#1344,.T.);
#1346=ORIENTED_EDGE('',*,*,#902,.T.);
#1347=ORIENTED_EDGE('',*,*,#1331,.F.);
#1348=EDGE_LOOP('',(#1343,#1345,#1346,#1347));
#1349=FACE_OUTER_BOUND('',#1348,.F.);
#1351=CARTESIAN_POINT('',(-2.14E0,-4.E-1,-1.838696689248E1));
#1352=DIRECTION('',(6.018150231521E-1,0.E0,-7.986355100473E-1));
#1353=DIRECTION('',(-7.986355100473E-1,0.E0,-6.018150231521E-1));
#1354=AXIS2_PLACEMENT_3D('',#1351,#1352,#1353);
#1355=PLANE('',#1354);
#1356=ORIENTED_EDGE('',*,*,#746,.F.);
#1358=ORIENTED_EDGE('',*,*,#1357,.T.);
#1359=ORIENTED_EDGE('',*,*,#904,.T.);
#1360=ORIENTED_EDGE('',*,*,#1344,.F.);
#1361=EDGE_LOOP('',(#1356,#1358,#1359,#1360));
#1362=FACE_OUTER_BOUND('',#1361,.F.);
#1364=CARTESIAN_POINT('',(-2.14E0,-4.E-1,-1.35E1));
#1365=DIRECTION('',(1.E0,0.E0,0.E0));
#1366=DIRECTION('',(0.E0,0.E0,-1.E0));
#1367=AXIS2_PLACEMENT_3D('',#1364,#1365,#1366);
#1368=PLANE('',#1367);
#1369=ORIENTED_EDGE('',*,*,#744,.F.);
#1371=ORIENTED_EDGE('',*,*,#1370,.T.);
#1372=ORIENTED_EDGE('',*,*,#906,.T.);
#1373=ORIENTED_EDGE('',*,*,#1357,.F.);
#1374=EDGE_LOOP('',(#1369,#1371,#1372,#1373));
#1375=FACE_OUTER_BOUND('',#1374,.F.);
#1377=CARTESIAN_POINT('',(-7.5E-1,-4.E-1,-1.35E1));
#1378=DIRECTION('',(0.E0,0.E0,-1.E0));
#1379=DIRECTION('',(-1.E0,0.E0,0.E0));
#1380=AXIS2_PLACEMENT_3D('',#1377,#1378,#1379);
#1381=PLANE('',#1380);
#1382=ORIENTED_EDGE('',*,*,#926,.F.);
#1383=ORIENTED_EDGE('',*,*,#908,.T.);
#1384=ORIENTED_EDGE('',*,*,#1370,.F.);
#1385=ORIENTED_EDGE('',*,*,#742,.F.);
#1386=EDGE_LOOP('',(#1382,#1383,#1384,#1385));
#1387=FACE_OUTER_BOUND('',#1386,.F.);
#1389=CLOSED_SHELL('',(#812,#827,#840,#916,#930,#943,#956,#969,#982,#995,#1008,
#1021,#1034,#1047,#1060,#1073,#1086,#1099,#1112,#1125,#1138,#1151,#1164,#1179,
#1193,#1207,#1220,#1233,#1246,#1259,#1272,#1285,#1298,#1311,#1324,#1337,#1350,
#1363,#1376,#1388));
#1390=MANIFOLD_SOLID_BREP('',#1389);
#1391=DIRECTION('',(0.E0,1.E0,0.E0));
#1392=VECTOR('',#1391,8.E-1);
#1393=CARTESIAN_POINT('',(0.E0,-4.E-1,-4.E0));
#1394=LINE('',#1393,#1392);
#1396=DRAUGHTING_PRE_DEFINED_CURVE_FONT('continuous');
#1397=CURVE_STYLE('',#1396,POSITIVE_LENGTH_MEASURE(2.E-2),#4);
#1398=PRESENTATION_STYLE_ASSIGNMENT((#1397));
#1399=STYLED_ITEM('',(#1398),#1395);
#1401=PRESENTATION_LAYER_ASSIGNMENT('DTM_AXIS','',(#1395));
#1402=INVISIBILITY((#1401));
#1405=PLANE_ANGLE_MEASURE_WITH_UNIT(PLANE_ANGLE_MEASURE(1.745329251994E-2),
#1404);
#1406=(CONVERSION_BASED_UNIT('DEGREE',#1405)NAMED_UNIT(*)PLANE_ANGLE_UNIT());
#1408=UNCERTAINTY_MEASURE_WITH_UNIT(LENGTH_MEASURE(2.217032195947E-3),#1403,
'distance_accuracy_value',
'Maximum model space distance between geometric entities at asserted connectivities');
#1400=GEOMETRIC_SET('',(#1395));
#1412=CARTESIAN_POINT('',(0.E0,0.E0,0.E0));
#1413=DIRECTION('',(0.E0,0.E0,1.E0));
#1414=DIRECTION('',(1.E0,0.E0,0.E0));
#1417=SHAPE_REPRESENTATION_RELATIONSHIP('','',#1416,#1410);
#1418=SHAPE_REPRESENTATION_RELATIONSHIP('','',#1416,#1411);
#1419=MECHANICAL_DESIGN_GEOMETRIC_PRESENTATION_REPRESENTATION('',(#1399),#1409);
#1420=APPLICATION_CONTEXT('automotive_design');
#1421=APPLICATION_PROTOCOL_DEFINITION('international standard',
'automotive_design',2001,#1420);
#1422=PRODUCT_DEFINITION_CONTEXT('part definition',#1420,'design');
#1423=PRODUCT_CONTEXT('',#1420,'mechanical');
#1424=PRODUCT('C-216926-1','C-216926-1','NOT SPECIFIED',(#1423));
#1425=PRODUCT_DEFINITION_FORMATION('1','LAST_VERSION',#1424);
#1433=DERIVED_UNIT_ELEMENT(#1432,2.E0);
#1434=DERIVED_UNIT((#1433));
#1435=MEASURE_REPRESENTATION_ITEM('surface area measure',AREA_MEASURE(
2.412542320771E2),#1434);
#1440=DERIVED_UNIT_ELEMENT(#1439,3.E0);
#1441=DERIVED_UNIT((#1440));
#1442=MEASURE_REPRESENTATION_ITEM('volume measure',VOLUME_MEASURE(
7.384437516207E1),#1441);
#1446=CARTESIAN_POINT('centre point',(9.707085964897E-8,0.E0,
-7.924946339275E0));
#1451=DERIVED_UNIT_ELEMENT(#1450,2.E0);
#1452=DERIVED_UNIT((#1451));
#1453=MEASURE_REPRESENTATION_ITEM('surface area measure',AREA_MEASURE(
2.412542320771E2),#1452);
#1458=DERIVED_UNIT_ELEMENT(#1457,3.E0);
#1459=DERIVED_UNIT((#1458));
#1460=MEASURE_REPRESENTATION_ITEM('volume measure',VOLUME_MEASURE(
7.384437516207E1),#1459);
#1464=CARTESIAN_POINT('centre point',(9.707085964897E-8,0.E0,
-7.924946339275E0));
#1469=PRODUCT_RELATED_PRODUCT_CATEGORY('part','',(#1424));
#1=DRAUGHTING_PRE_DEFINED_COLOUR('black');
#2=COLOUR_RGB('',0.E0,0.E0,3.6E-1);
#3=COLOUR_RGB('',0.E0,0.E0,4.8E-1);
#4=COLOUR_RGB('',0.E0,0.E0,9.411764705882E-1);
#5=DRAUGHTING_PRE_DEFINED_COLOUR('blue');
#6=COLOUR_RGB('',0.E0,5.8824E-2,4.58824E-1);
#7=COLOUR_RGB('',0.E0,1.80392E-1,4.78431E-1);
#8=COLOUR_RGB('',0.E0,3.6E-1,9.E-2);
#9=COLOUR_RGB('',0.E0,3.6E-1,2.7E-1);
#10=COLOUR_RGB('',0.E0,5.6E-1,6.4E-1);
#11=COLOUR_RGB('',0.E0,5.8E-1,8.E-1);
#12=COLOUR_RGB('',0.E0,7.1E-1,6.6E-1);
#13=COLOUR_RGB('',0.E0,7.13E-1,0.E0);
#14=COLOUR_RGB('',0.E0,9.5E-1,8.4E-1);
#15=DRAUGHTING_PRE_DEFINED_COLOUR('green');
#16=DRAUGHTING_PRE_DEFINED_COLOUR('cyan');
#17=COLOUR_RGB('',1.1765E-2,1.9608E-2,3.9216E-2);
#18=COLOUR_RGB('',4.E-2,0.E0,1.6E-1);
#19=COLOUR_RGB('',3.9216E-2,2.19608E-1,1.21569E-1);
#20=COLOUR_RGB('',3.9216E-2,3.60784E-1,2.E-1);
#21=COLOUR_RGB('',5.098E-2,7.0588E-2,1.01961E-1);
#22=COLOUR_RGB('',9.E-2,0.E0,1.2E-1);
#23=COLOUR_RGB('',9.0196E-2,1.60784E-1,1.09804E-1);
#24=COLOUR_RGB('',9.0196E-2,3.80392E-1,6.70588E-1);
#25=COLOUR_RGB('',1.E-1,0.E0,2.5E-1);
#26=COLOUR_RGB('',1.01961E-1,4.78431E-1,3.88235E-1);
#27=COLOUR_RGB('',1.09804E-1,1.4902E-1,9.0196E-2);
#28=COLOUR_RGB('',1.4902E-1,3.09804E-1,5.29412E-1);
#29=COLOUR_RGB('',1.4902E-1,4.E-1,1.60784E-1);
#30=COLOUR_RGB('',1.6E-1,3.2E-2,0.E0);
#31=COLOUR_RGB('',1.60784E-1,4.5098E-1,7.21569E-1);
#32=COLOUR_RGB('',1.6E-1,4.6E-1,6.5E-1);
#33=COLOUR_RGB('',1.6E-1,1.E0,1.6E-1);
#34=COLOUR_RGB('',2.E-1,3.2E-2,0.E0);
#35=COLOUR_RGB('',2.11765E-1,4.11765E-1,1.4902E-1);
#36=COLOUR_RGB('',2.39216E-1,2.39216E-1,2.31373E-1);
#37=COLOUR_RGB('',2.39216E-1,2.70588E-1,1.80392E-1);
#38=COLOUR_RGB('',2.5098E-1,2.90196E-1,3.29412E-1);
#39=COLOUR_RGB('',2.90196E-1,4.31373E-1,2.E-1);
#40=COLOUR_RGB('',3.1E-1,3.1E-1,5.6E-1);
#41=COLOUR_RGB('',3.09804E-1,6.58824E-1,2.E-1);
#42=COLOUR_RGB('',3.2E-1,1.5E-1,0.E0);
#43=COLOUR_RGB('',3.60784E-1,3.1373E-2,1.68627E-1);
#44=COLOUR_RGB('',3.68627E-1,2.E-1,1.21569E-1);
#45=COLOUR_RGB('',3.88235E-1,2.39216E-1,6.11765E-1);
#46=COLOUR_RGB('',4.E-1,4.E-1,4.E-1);
#47=COLOUR_RGB('',4.11765E-1,5.8824E-2,7.8431E-2);
#48=COLOUR_RGB('',4.11765E-1,3.29412E-1,2.19608E-1);
#49=COLOUR_RGB('',4.2E-1,4.2E-1,1.E0);
#50=COLOUR_RGB('',4.4E-1,8.5E-1,1.E0);
#51=COLOUR_RGB('',4.58824E-1,4.5098E-1,3.09804E-1);
#52=COLOUR_RGB('',4.70588E-1,5.09804E-1,5.4902E-1);
#53=COLOUR_RGB('',4.78431E-1,4.90196E-1,4.58824E-1);
#54=COLOUR_RGB('',4.90196E-1,3.60784E-1,2.19608E-1);
#55=COLOUR_RGB('',4.9E-1,4.9E-1,0.E0);
#56=COLOUR_RGB('',4.9E-1,1.E0,0.E0);
#57=COLOUR_RGB('',5.E-1,0.E0,0.E0);
#58=COLOUR_RGB('',5.E-1,0.E0,2.3E-1);
#59=COLOUR_RGB('',5.E-1,5.E-1,5.E-1);
#60=COLOUR_RGB('',5.21569E-1,2.19608E-1,1.68627E-1);
#61=COLOUR_RGB('',5.3E-1,0.E0,0.E0);
#62=COLOUR_RGB('',5.29412E-1,5.80392E-1,6.5098E-1);
#63=COLOUR_RGB('',5.4E-1,0.E0,4.4E-1);
#64=COLOUR_RGB('',5.5E-1,3.E-1,0.E0);
#65=COLOUR_RGB('',5.6E-1,1.E-1,5.E-2);
#66=COLOUR_RGB('',5.60784E-1,5.80392E-1,6.19608E-1);
#67=COLOUR_RGB('',5.68627E-1,5.8824E-2,4.E-1);
#68=COLOUR_RGB('',5.8E-1,2.2E-1,1.E-2);
#69=COLOUR_RGB('',5.88235E-1,1.21569E-1,1.09804E-1);
#70=COLOUR_RGB('',6.E-1,6.E-1,6.E-1);
#71=COLOUR_RGB('',6.11765E-1,5.60784E-1,3.80392E-1);
#72=COLOUR_RGB('',6.11765E-1,6.11765E-1,6.5098E-1);
#73=COLOUR_RGB('',6.2E-1,0.E0,5.5E-1);
#74=COLOUR_RGB('',6.19608E-1,6.39216E-1,6.90196E-1);
#75=COLOUR_RGB('',6.35294E-1,6.86275E-1,7.4902E-1);
#76=COLOUR_RGB('',6.4E-1,0.E0,2.5E-1);
#77=COLOUR_RGB('',6.4E-1,1.E-2,0.E0);
#78=COLOUR_RGB('',6.39216E-1,5.4902E-1,4.78431E-1);
#79=COLOUR_RGB('',6.5098E-1,6.70588E-1,7.09804E-1);
#80=COLOUR_RGB('',6.70588E-1,1.21569E-1,1.09804E-1);
#81=COLOUR_RGB('',6.78431E-1,4.78431E-1,3.09804E-1);
#82=COLOUR_RGB('',6.8E-1,7.5E-1,1.E0);
#83=COLOUR_RGB('',7.09804E-1,7.0588E-2,2.E-1);
#84=COLOUR_RGB('',7.1E-1,3.1E-1,0.E0);
#85=COLOUR_RGB('',7.2E-1,7.2E-1,7.2E-1);
#86=COLOUR_RGB('',7.29412E-1,7.41176E-1,7.29412E-1);
#87=COLOUR_RGB('',7.41176E-1,7.29412E-1,6.70588E-1);
#88=COLOUR_RGB('',7.4E-1,1.E0,2.6E-1);
#89=COLOUR_RGB('',7.5E-1,3.E-2,0.E0);
#90=COLOUR_RGB('',7.4902E-1,8.90196E-1,7.29412E-1);
#91=COLOUR_RGB('',7.6E-1,0.E0,4.7E-1);
#92=COLOUR_RGB('',7.80392E-1,9.0196E-2,7.0588E-2);
#93=COLOUR_RGB('',7.88235E-1,2.19608E-1,5.4902E-1);
#94=COLOUR_RGB('',8.1E-1,4.E-2,0.E0);
#95=COLOUR_RGB('',8.1E-1,6.1E-1,0.E0);
#96=COLOUR_RGB('',8.2E-1,4.E-2,6.6E-1);
#97=COLOUR_RGB('',8.31373E-1,8.5098E-1,8.58824E-1);
#98=COLOUR_RGB('',8.5098E-1,7.29412E-1,5.4902E-1);
#99=COLOUR_RGB('',8.5E-1,8.5E-1,8.5E-1);
#100=COLOUR_RGB('',8.78431E-1,3.68627E-1,1.21569E-1);
#101=COLOUR_RGB('',8.784E-1,9.49E-1,1.E0);
#102=COLOUR_RGB('',8.90196E-1,5.88235E-1,1.41176E-1);
#103=COLOUR_RGB('',9.E-1,1.E0,0.E0);
#104=COLOUR_RGB('',9.09804E-1,6.11765E-1,7.09804E-1);
#105=COLOUR_RGB('',9.37E-1,7.85E-1,0.E0);
#106=COLOUR_RGB('',9.41176E-1,9.29412E-1,9.01961E-1);
#107=COLOUR_RGB('',9.5E-1,2.2E-1,8.1E-1);
#108=COLOUR_RGB('',9.6E-1,3.7E-1,3.E-1);
#109=COLOUR_RGB('',9.6E-1,7.1E-1,3.75E-1);
#110=COLOUR_RGB('',9.80392E-1,1.E0,1.E0);
#111=COLOUR_RGB('',9.88235E-1,1.09804E-1,7.8431E-2);
#112=COLOUR_RGB('',9.88235E-1,7.21569E-1,1.29412E-1);
#113=COLOUR_RGB('',9.88235E-1,9.21569E-1,8.E-1);
#114=DRAUGHTING_PRE_DEFINED_COLOUR('red');
#115=COLOUR_RGB('',1.E0,0.E0,6.1E-1);
#116=COLOUR_RGB('',1.E0,4.E-2,0.E0);
#117=COLOUR_RGB('',1.E0,2.3E-1,0.E0);
#118=COLOUR_RGB('',1.E0,3.5E-1,5.2E-1);
#119=COLOUR_RGB('',1.E0,3.6E-1,0.E0);
#120=COLOUR_RGB('',1.E0,3.88235E-1,2.11765E-1);
#121=COLOUR_RGB('',1.E0,4.9E-1,3.7E-1);
#122=COLOUR_RGB('',1.E0,5.E-1,0.E0);
#123=COLOUR_RGB('',1.E0,5.6E-1,7.8E-1);
#124=COLOUR_RGB('',1.E0,6.4E-1,4.9E-1);
#125=COLOUR_RGB('',1.E0,6.7E-1,0.E0);
#126=COLOUR_RGB('',1.E0,7.6E-1,6.5E-1);
#127=COLOUR_RGB('',1.E0,8.39216E-1,3.01961E-1);
#128=COLOUR_RGB('',1.E0,8.6E-1,4.E-2);
#129=COLOUR_RGB('',1.E0,9.60784E-1,2.58824E-1);
#130=COLOUR_RGB('',1.E0,9.60784E-1,8.90196E-1);
#131=COLOUR_RGB('',1.E0,9.8E-1,7.2E-1);
#132=DRAUGHTING_PRE_DEFINED_COLOUR('yellow');
#133=COLOUR_RGB('',1.E0,1.E0,3.9216E-2);
#134=DRAUGHTING_PRE_DEFINED_COLOUR('white');
#139=CIRCLE('',#138,8.E-1);
#144=CIRCLE('',#143,8.E-1);
#149=CIRCLE('',#148,2.E-1);
#190=CIRCLE('',#189,2.5E-1);
#215=CIRCLE('',#214,2.5E-1);
#256=CIRCLE('',#255,2.E-1);
#281=CIRCLE('',#280,8.E-1);
#286=CIRCLE('',#285,8.E-1);
#291=CIRCLE('',#290,2.E-1);
#308=CIRCLE('',#307,2.E-1);
#349=CIRCLE('',#348,2.5E-1);
#374=CIRCLE('',#373,2.5E-1);
#423=CIRCLE('',#422,2.E-1);
#428=CIRCLE('',#427,2.E-1);
#441=CIRCLE('',#440,2.E-1);
#446=CIRCLE('',#445,2.E-1);
#740=EDGE_CURVE('',#721,#722,#149,.T.);
#742=EDGE_CURVE('',#721,#615,#153,.T.);
#744=EDGE_CURVE('',#615,#616,#157,.T.);
#746=EDGE_CURVE('',#616,#618,#161,.T.);
#748=EDGE_CURVE('',#618,#620,#165,.T.);
#750=EDGE_CURVE('',#620,#622,#169,.T.);
#752=EDGE_CURVE('',#622,#624,#173,.T.);
#754=EDGE_CURVE('',#624,#626,#177,.T.);
#756=EDGE_CURVE('',#626,#628,#181,.T.);
#758=EDGE_CURVE('',#628,#630,#185,.T.);
#760=EDGE_CURVE('',#630,#632,#190,.T.);
#762=EDGE_CURVE('',#632,#634,#194,.T.);
#764=EDGE_CURVE('',#634,#697,#198,.T.);
#766=EDGE_CURVE('',#702,#697,#202,.T.);
#768=EDGE_CURVE('',#702,#593,#206,.T.);
#770=EDGE_CURVE('',#593,#594,#210,.T.);
#772=EDGE_CURVE('',#594,#596,#215,.T.);
#774=EDGE_CURVE('',#596,#598,#219,.T.);
#776=EDGE_CURVE('',#598,#600,#223,.T.);
#778=EDGE_CURVE('',#600,#602,#227,.T.);
#780=EDGE_CURVE('',#602,#604,#231,.T.);
#782=EDGE_CURVE('',#604,#606,#235,.T.);
#784=EDGE_CURVE('',#606,#608,#239,.T.);
#786=EDGE_CURVE('',#608,#610,#243,.T.);
#788=EDGE_CURVE('',#610,#612,#247,.T.);
#790=EDGE_CURVE('',#612,#730,#251,.T.);
#792=EDGE_CURVE('',#729,#730,#256,.T.);
#794=EDGE_CURVE('',#729,#717,#260,.T.);
#796=EDGE_CURVE('',#713,#717,#441,.T.);
#798=EDGE_CURVE('',#713,#709,#264,.T.);
#800=EDGE_CURVE('',#705,#709,#423,.T.);
#802=EDGE_CURVE('',#705,#722,#268,.T.);
#806=EDGE_CURVE('',#681,#682,#139,.T.);
#808=EDGE_CURVE('',#682,#681,#144,.T.);
#812=ADVANCED_FACE('',(#805,#811),#739,.F.);
#819=EDGE_CURVE('',#681,#685,#272,.T.);
#821=EDGE_CURVE('',#685,#686,#281,.T.);
#823=EDGE_CURVE('',#682,#686,#276,.T.);
#827=ADVANCED_FACE('',(#826),#817,.F.);
#835=EDGE_CURVE('',#686,#685,#286,.T.);
#840=ADVANCED_FACE('',(#839),#832,.F.);
#846=EDGE_CURVE('',#724,#726,#291,.T.);
#848=EDGE_CURVE('',#706,#724,#295,.T.);
#850=EDGE_CURVE('',#710,#706,#428,.T.);
#852=EDGE_CURVE('',#714,#710,#299,.T.);
#854=EDGE_CURVE('',#718,#714,#446,.T.);
#856=EDGE_CURVE('',#734,#718,#303,.T.);
#858=EDGE_CURVE('',#732,#734,#308,.T.);
#860=EDGE_CURVE('',#656,#732,#312,.T.);
#862=EDGE_CURVE('',#654,#656,#316,.T.);
#864=EDGE_CURVE('',#652,#654,#320,.T.);
#866=EDGE_CURVE('',#650,#652,#324,.T.);
#868=EDGE_CURVE('',#648,#650,#328,.T.);
#870=EDGE_CURVE('',#646,#648,#332,.T.);
#872=EDGE_CURVE('',#644,#646,#336,.T.);
#874=EDGE_CURVE('',#642,#644,#340,.T.);
#876=EDGE_CURVE('',#640,#642,#344,.T.);
#878=EDGE_CURVE('',#638,#640,#349,.T.);
#880=EDGE_CURVE('',#637,#638,#353,.T.);
#882=EDGE_CURVE('',#689,#637,#357,.T.);
#884=EDGE_CURVE('',#694,#689,#361,.T.);
#886=EDGE_CURVE('',#678,#694,#365,.T.);
#888=EDGE_CURVE('',#676,#678,#369,.T.);
#890=EDGE_CURVE('',#674,#676,#374,.T.);
#892=EDGE_CURVE('',#672,#674,#378,.T.);
#894=EDGE_CURVE('',#670,#672,#382,.T.);
#896=EDGE_CURVE('',#668,#670,#386,.T.);
#898=EDGE_CURVE('',#666,#668,#390,.T.);
#900=EDGE_CURVE('',#664,#666,#394,.T.);
#902=EDGE_CURVE('',#662,#664,#398,.T.);
#904=EDGE_CURVE('',#660,#662,#402,.T.);
#906=EDGE_CURVE('',#659,#660,#406,.T.);
#908=EDGE_CURVE('',#726,#659,#410,.T.);
#916=ADVANCED_FACE('',(#911,#915),#845,.T.);
#923=EDGE_CURVE('',#724,#722,#414,.T.);
#926=EDGE_CURVE('',#726,#721,#590,.T.);
#930=ADVANCED_FACE('',(#929),#921,.T.);
#938=EDGE_CURVE('',#705,#706,#418,.T.);
#943=ADVANCED_FACE('',(#942),#935,.T.);
#951=EDGE_CURVE('',#709,#710,#432,.T.);
#956=ADVANCED_FACE('',(#955),#948,.F.);
#964=EDGE_CURVE('',#713,#714,#436,.T.);
#969=ADVANCED_FACE('',(#968),#961,.T.);
#977=EDGE_CURVE('',#717,#718,#454,.T.);
#982=ADVANCED_FACE('',(#981),#974,.F.);
#988=EDGE_CURVE('',#734,#729,#450,.T.);
#995=ADVANCED_FACE('',(#994),#987,.T.);
#1002=EDGE_CURVE('',#732,#730,#458,.T.);
#1008=ADVANCED_FACE('',(#1007),#1000,.T.);
#1016=EDGE_CURVE('',#612,#656,#462,.T.);
#1021=ADVANCED_FACE('',(#1020),#1013,.T.);
#1028=EDGE_CURVE('',#610,#654,#466,.T.);
#1034=ADVANCED_FACE('',(#1033),#1026,.T.);
#1041=EDGE_CURVE('',#608,#652,#470,.T.);
#1047=ADVANCED_FACE('',(#1046),#1039,.T.);
#1054=EDGE_CURVE('',#606,#650,#474,.T.);
#1060=ADVANCED_FACE('',(#1059),#1052,.T.);
#1067=EDGE_CURVE('',#604,#648,#478,.T.);
#1073=ADVANCED_FACE('',(#1072),#1065,.T.);
#1080=EDGE_CURVE('',#602,#646,#482,.T.);
#1086=ADVANCED_FACE('',(#1085),#1078,.T.);
#1093=EDGE_CURVE('',#600,#644,#486,.T.);
#1099=ADVANCED_FACE('',(#1098),#1091,.T.);
#1106=EDGE_CURVE('',#598,#642,#490,.T.);
#1112=ADVANCED_FACE('',(#1111),#1104,.T.);
#1119=EDGE_CURVE('',#596,#640,#494,.T.);
#1125=ADVANCED_FACE('',(#1124),#1117,.T.);
#1132=EDGE_CURVE('',#594,#638,#498,.T.);
#1138=ADVANCED_FACE('',(#1137),#1130,.F.);
#1145=EDGE_CURVE('',#593,#637,#502,.T.);
#1151=ADVANCED_FACE('',(#1150),#1143,.T.);
#1158=EDGE_CURVE('',#702,#689,#506,.T.);
#1164=ADVANCED_FACE('',(#1163),#1156,.T.);
#1170=EDGE_CURVE('',#689,#690,#510,.T.);
#1173=EDGE_CURVE('',#700,#702,#514,.T.);
#1175=EDGE_CURVE('',#700,#690,#518,.T.);
#1179=ADVANCED_FACE('',(#1178),#1169,.T.);
#1186=EDGE_CURVE('',#692,#690,#522,.T.);
#1188=EDGE_CURVE('',#692,#694,#534,.T.);
#1193=ADVANCED_FACE('',(#1192),#1184,.T.);
#1201=EDGE_CURVE('',#700,#698,#526,.T.);
#1203=EDGE_CURVE('',#698,#692,#530,.T.);
#1207=ADVANCED_FACE('',(#1206),#1198,.T.);
#1213=EDGE_CURVE('',#697,#698,#538,.T.);
#1220=ADVANCED_FACE('',(#1219),#1212,.T.);
#1229=EDGE_CURVE('',#697,#694,#542,.T.);
#1233=ADVANCED_FACE('',(#1232),#1225,.T.);
#1240=EDGE_CURVE('',#634,#678,#546,.T.);
#1246=ADVANCED_FACE('',(#1245),#1238,.T.);
#1253=EDGE_CURVE('',#632,#676,#550,.T.);
#1259=ADVANCED_FACE('',(#1258),#1251,.T.);
#1266=EDGE_CURVE('',#630,#674,#554,.T.);
#1272=ADVANCED_FACE('',(#1271),#1264,.F.);
#1279=EDGE_CURVE('',#628,#672,#558,.T.);
#1285=ADVANCED_FACE('',(#1284),#1277,.T.);
#1292=EDGE_CURVE('',#626,#670,#562,.T.);
#1298=ADVANCED_FACE('',(#1297),#1290,.T.);
#1305=EDGE_CURVE('',#624,#668,#566,.T.);
#1311=ADVANCED_FACE('',(#1310),#1303,.T.);
#1318=EDGE_CURVE('',#622,#666,#570,.T.);
#1324=ADVANCED_FACE('',(#1323),#1316,.T.);
#1331=EDGE_CURVE('',#620,#664,#574,.T.);
#1337=ADVANCED_FACE('',(#1336),#1329,.T.);
#1344=EDGE_CURVE('',#618,#662,#578,.T.);
#1350=ADVANCED_FACE('',(#1349),#1342,.T.);
#1357=EDGE_CURVE('',#616,#660,#582,.T.);
#1363=ADVANCED_FACE('',(#1362),#1355,.T.);
#1370=EDGE_CURVE('',#615,#659,#586,.T.);
#1376=ADVANCED_FACE('',(#1375),#1368,.T.);
#1388=ADVANCED_FACE('',(#1387),#1381,.T.);
#1395=TRIMMED_CURVE('A_6',#1394,(PARAMETER_VALUE(0.E0)),(PARAMETER_VALUE(1.E0)),
.T.,.UNSPECIFIED.);
#1403=(LENGTH_UNIT()NAMED_UNIT(*)SI_UNIT(.MILLI.,.METRE.));
#1404=(NAMED_UNIT(*)PLANE_ANGLE_UNIT()SI_UNIT($,.RADIAN.));
#1407=(NAMED_UNIT(*)SI_UNIT($,.STERADIAN.)SOLID_ANGLE_UNIT());
#1409=(GEOMETRIC_REPRESENTATION_CONTEXT(3)GLOBAL_UNCERTAINTY_ASSIGNED_CONTEXT((
#1408))GLOBAL_UNIT_ASSIGNED_CONTEXT((#1403,#1406,#1407))REPRESENTATION_CONTEXT(
'ID1','3'));
#1410=ADVANCED_BREP_SHAPE_REPRESENTATION('',(#1390),#1409);
#1411=GEOMETRICALLY_BOUNDED_SURFACE_SHAPE_REPRESENTATION('',(#1400),#1409);
#1415=AXIS2_PLACEMENT_3D('',#1412,#1413,#1414);
#1416=SHAPE_REPRESENTATION('',(#1415),#1409);
#1426=PRODUCT_DEFINITION('part definition','',#1425,#1422);
#1427=PRODUCT_DEFINITION_SHAPE('','SHAPE FOR C-216926-1.',#1426);
#1428=SHAPE_ASPECT('','solid data associated with C-216926-1',#1427,.F.);
#1429=PROPERTY_DEFINITION('',
'shape for solid data with which properties are associated',#1428);
#1430=SHAPE_REPRESENTATION('',(#1390),#1409);
#1431=SHAPE_DEFINITION_REPRESENTATION(#1429,#1430);
#1432=(LENGTH_UNIT()NAMED_UNIT(*)SI_UNIT(.MILLI.,.METRE.));
#1436=PROPERTY_DEFINITION('geometric validation property','area of C-216926-1',
#1428);
#1437=REPRESENTATION('surface area',(#1435),#1409);
#1438=PROPERTY_DEFINITION_REPRESENTATION(#1436,#1437);
#1439=(LENGTH_UNIT()NAMED_UNIT(*)SI_UNIT(.MILLI.,.METRE.));
#1443=PROPERTY_DEFINITION('geometric validation property',
'volume of C-216926-1',#1428);
#1444=REPRESENTATION('volume',(#1442),#1409);
#1445=PROPERTY_DEFINITION_REPRESENTATION(#1443,#1444);
#1447=PROPERTY_DEFINITION('geometric validation property',
'centroid of C-216926-1',#1428);
#1448=REPRESENTATION('centroid',(#1446),#1409);
#1449=PROPERTY_DEFINITION_REPRESENTATION(#1447,#1448);
#1450=(LENGTH_UNIT()NAMED_UNIT(*)SI_UNIT(.MILLI.,.METRE.));
#1454=PROPERTY_DEFINITION('geometric validation property','area of C-216926-1',
#1427);
#1455=REPRESENTATION('surface area',(#1453),#1409);
#1456=PROPERTY_DEFINITION_REPRESENTATION(#1454,#1455);
#1457=(LENGTH_UNIT()NAMED_UNIT(*)SI_UNIT(.MILLI.,.METRE.));
#1461=PROPERTY_DEFINITION('geometric validation property',
'volume of C-216926-1',#1427);
#1462=REPRESENTATION('volume',(#1460),#1409);
#1463=PROPERTY_DEFINITION_REPRESENTATION(#1461,#1462);
#1465=PROPERTY_DEFINITION('geometric validation property',
'centroid of C-216926-1',#1427);
#1466=REPRESENTATION('centroid',(#1464),#1409);
#1467=PROPERTY_DEFINITION_REPRESENTATION(#1465,#1466);
#1468=SHAPE_DEFINITION_REPRESENTATION(#1427,#1416);
ENDSEC;
END-ISO-10303-21;
