%TF.GenerationSoftware,KiCad,Pcbnew,7.0.1-3b83917a11~172~ubuntu22.10.1*%
%TF.CreationDate,2023-09-25T18:41:39+02:00*%
%TF.ProjectId,led_boost_MIC3230,6c65645f-626f-46f7-9374-5f4d49433332,rev?*%
%TF.SameCoordinates,Original*%
%TF.FileFunction,Copper,L2,Bot*%
%TF.FilePolarity,Positive*%
%FSLAX46Y46*%
G04 Gerber Fmt 4.6, Leading zero omitted, Abs format (unit mm)*
G04 Created by KiCad (PCBNEW 7.0.1-3b83917a11~172~ubuntu22.10.1) date 2023-09-25 18:41:39*
%MOMM*%
%LPD*%
G01*
G04 APERTURE LIST*
G04 Aperture macros list*
%AMRoundRect*
0 Rectangle with rounded corners*
0 $1 Rounding radius*
0 $2 $3 $4 $5 $6 $7 $8 $9 X,Y pos of 4 corners*
0 Add a 4 corners polygon primitive as box body*
4,1,4,$2,$3,$4,$5,$6,$7,$8,$9,$2,$3,0*
0 Add four circle primitives for the rounded corners*
1,1,$1+$1,$2,$3*
1,1,$1+$1,$4,$5*
1,1,$1+$1,$6,$7*
1,1,$1+$1,$8,$9*
0 Add four rect primitives between the rounded corners*
20,1,$1+$1,$2,$3,$4,$5,0*
20,1,$1+$1,$4,$5,$6,$7,0*
20,1,$1+$1,$6,$7,$8,$9,0*
20,1,$1+$1,$8,$9,$2,$3,0*%
%AMFreePoly0*
4,1,19,0.550000,-0.750000,0.000000,-0.750000,0.000000,-0.744911,-0.071157,-0.744911,-0.207708,-0.704816,-0.327430,-0.627875,-0.420627,-0.520320,-0.479746,-0.390866,-0.500000,-0.250000,-0.500000,0.250000,-0.479746,0.390866,-0.420627,0.520320,-0.327430,0.627875,-0.207708,0.704816,-0.071157,0.744911,0.000000,0.744911,0.000000,0.750000,0.550000,0.750000,0.550000,-0.750000,0.550000,-0.750000,
$1*%
%AMFreePoly1*
4,1,19,0.000000,0.744911,0.071157,0.744911,0.207708,0.704816,0.327430,0.627875,0.420627,0.520320,0.479746,0.390866,0.500000,0.250000,0.500000,-0.250000,0.479746,-0.390866,0.420627,-0.520320,0.327430,-0.627875,0.207708,-0.704816,0.071157,-0.744911,0.000000,-0.744911,0.000000,-0.750000,-0.550000,-0.750000,-0.550000,0.750000,0.000000,0.750000,0.000000,0.744911,0.000000,0.744911,
$1*%
G04 Aperture macros list end*
%TA.AperFunction,ComponentPad*%
%ADD10R,1.600000X1.600000*%
%TD*%
%TA.AperFunction,ComponentPad*%
%ADD11C,1.600000*%
%TD*%
%TA.AperFunction,ComponentPad*%
%ADD12C,2.000000*%
%TD*%
%TA.AperFunction,ComponentPad*%
%ADD13R,1.905000X2.000000*%
%TD*%
%TA.AperFunction,ComponentPad*%
%ADD14O,1.905000X2.000000*%
%TD*%
%TA.AperFunction,ComponentPad*%
%ADD15R,2.000000X2.000000*%
%TD*%
%TA.AperFunction,ComponentPad*%
%ADD16C,2.800000*%
%TD*%
%TA.AperFunction,ComponentPad*%
%ADD17C,1.800000*%
%TD*%
%TA.AperFunction,ComponentPad*%
%ADD18RoundRect,0.875000X0.875000X-2.125000X0.875000X2.125000X-0.875000X2.125000X-0.875000X-2.125000X0*%
%TD*%
%TA.AperFunction,ComponentPad*%
%ADD19R,1.700000X1.700000*%
%TD*%
%TA.AperFunction,ComponentPad*%
%ADD20O,1.700000X1.700000*%
%TD*%
%TA.AperFunction,ComponentPad*%
%ADD21R,1.100000X1.800000*%
%TD*%
%TA.AperFunction,ComponentPad*%
%ADD22RoundRect,0.275000X0.275000X0.625000X-0.275000X0.625000X-0.275000X-0.625000X0.275000X-0.625000X0*%
%TD*%
%TA.AperFunction,SMDPad,CuDef*%
%ADD23RoundRect,0.250000X-1.425000X0.362500X-1.425000X-0.362500X1.425000X-0.362500X1.425000X0.362500X0*%
%TD*%
%TA.AperFunction,SMDPad,CuDef*%
%ADD24C,0.500000*%
%TD*%
%TA.AperFunction,SMDPad,CuDef*%
%ADD25RoundRect,0.237500X0.250000X0.237500X-0.250000X0.237500X-0.250000X-0.237500X0.250000X-0.237500X0*%
%TD*%
%TA.AperFunction,SMDPad,CuDef*%
%ADD26R,0.650000X1.560000*%
%TD*%
%TA.AperFunction,SMDPad,CuDef*%
%ADD27RoundRect,0.250000X-1.075000X0.312500X-1.075000X-0.312500X1.075000X-0.312500X1.075000X0.312500X0*%
%TD*%
%TA.AperFunction,SMDPad,CuDef*%
%ADD28RoundRect,0.237500X-0.237500X0.250000X-0.237500X-0.250000X0.237500X-0.250000X0.237500X0.250000X0*%
%TD*%
%TA.AperFunction,SMDPad,CuDef*%
%ADD29RoundRect,0.250000X1.000000X0.650000X-1.000000X0.650000X-1.000000X-0.650000X1.000000X-0.650000X0*%
%TD*%
%TA.AperFunction,SMDPad,CuDef*%
%ADD30RoundRect,0.237500X0.237500X-0.250000X0.237500X0.250000X-0.237500X0.250000X-0.237500X-0.250000X0*%
%TD*%
%TA.AperFunction,SMDPad,CuDef*%
%ADD31FreePoly0,0.000000*%
%TD*%
%TA.AperFunction,SMDPad,CuDef*%
%ADD32R,1.000000X1.500000*%
%TD*%
%TA.AperFunction,SMDPad,CuDef*%
%ADD33FreePoly1,0.000000*%
%TD*%
%TA.AperFunction,SMDPad,CuDef*%
%ADD34R,0.700000X0.450000*%
%TD*%
%TA.AperFunction,SMDPad,CuDef*%
%ADD35FreePoly0,180.000000*%
%TD*%
%TA.AperFunction,SMDPad,CuDef*%
%ADD36FreePoly1,180.000000*%
%TD*%
%TA.AperFunction,SMDPad,CuDef*%
%ADD37RoundRect,0.250000X0.475000X-0.337500X0.475000X0.337500X-0.475000X0.337500X-0.475000X-0.337500X0*%
%TD*%
%TA.AperFunction,SMDPad,CuDef*%
%ADD38RoundRect,0.250000X-0.475000X0.337500X-0.475000X-0.337500X0.475000X-0.337500X0.475000X0.337500X0*%
%TD*%
%TA.AperFunction,SMDPad,CuDef*%
%ADD39RoundRect,0.250000X0.337500X0.475000X-0.337500X0.475000X-0.337500X-0.475000X0.337500X-0.475000X0*%
%TD*%
%TA.AperFunction,SMDPad,CuDef*%
%ADD40RoundRect,0.150000X-0.150000X0.825000X-0.150000X-0.825000X0.150000X-0.825000X0.150000X0.825000X0*%
%TD*%
%TA.AperFunction,SMDPad,CuDef*%
%ADD41RoundRect,0.150000X0.587500X0.150000X-0.587500X0.150000X-0.587500X-0.150000X0.587500X-0.150000X0*%
%TD*%
%TA.AperFunction,SMDPad,CuDef*%
%ADD42RoundRect,0.250000X-0.337500X-0.475000X0.337500X-0.475000X0.337500X0.475000X-0.337500X0.475000X0*%
%TD*%
%TA.AperFunction,SMDPad,CuDef*%
%ADD43R,1.050000X0.450000*%
%TD*%
%TA.AperFunction,SMDPad,CuDef*%
%ADD44R,1.470000X0.895000*%
%TD*%
%TA.AperFunction,SMDPad,CuDef*%
%ADD45RoundRect,0.250000X0.262500X0.450000X-0.262500X0.450000X-0.262500X-0.450000X0.262500X-0.450000X0*%
%TD*%
%TA.AperFunction,SMDPad,CuDef*%
%ADD46RoundRect,0.237500X-0.250000X-0.237500X0.250000X-0.237500X0.250000X0.237500X-0.250000X0.237500X0*%
%TD*%
%TA.AperFunction,ViaPad*%
%ADD47C,0.800000*%
%TD*%
%TA.AperFunction,Conductor*%
%ADD48C,0.400000*%
%TD*%
%TA.AperFunction,Conductor*%
%ADD49C,1.000000*%
%TD*%
%TA.AperFunction,Conductor*%
%ADD50C,0.500000*%
%TD*%
%TA.AperFunction,Conductor*%
%ADD51C,0.800000*%
%TD*%
%TA.AperFunction,Conductor*%
%ADD52C,2.000000*%
%TD*%
%TA.AperFunction,Conductor*%
%ADD53C,1.500000*%
%TD*%
G04 APERTURE END LIST*
%TA.AperFunction,EtchedComponent*%
%TO.C,NT1*%
G36*
X89825000Y-79875000D02*
G01*
X88825000Y-79875000D01*
X88825000Y-79375000D01*
X89825000Y-79375000D01*
X89825000Y-79875000D01*
G37*
%TD.AperFunction*%
%TA.AperFunction,EtchedComponent*%
%TO.C,JP1*%
G36*
X63000000Y-67900000D02*
G01*
X62500000Y-67900000D01*
X62500000Y-67300000D01*
X63000000Y-67300000D01*
X63000000Y-67900000D01*
G37*
%TD.AperFunction*%
%TA.AperFunction,EtchedComponent*%
%TO.C,JP2*%
G36*
X84867500Y-68800000D02*
G01*
X84367500Y-68800000D01*
X84367500Y-68200000D01*
X84867500Y-68200000D01*
X84867500Y-68800000D01*
G37*
%TD.AperFunction*%
%TD*%
D10*
%TO.P,C8,1*%
%TO.N,/LED+*%
X74000000Y-85000000D03*
D11*
%TO.P,C8,2*%
%TO.N,/LED-*%
X74000000Y-82500000D03*
%TD*%
D12*
%TO.P,J1,1,Pin_1*%
%TO.N,VCC*%
X52973000Y-67840000D03*
X57973000Y-70340000D03*
%TO.P,J1,2,Pin_2*%
%TO.N,GND*%
X52973000Y-72920000D03*
X57973000Y-75420000D03*
%TO.P,J1,3,Pin_3*%
%TO.N,/LED-*%
X52973000Y-78000000D03*
X57973000Y-80500000D03*
%TO.P,J1,4,Pin_4*%
%TO.N,/LED+*%
X52973000Y-83080000D03*
X57973000Y-85580000D03*
%TD*%
D13*
%TO.P,Q1,1,G*%
%TO.N,/Gate*%
X105000000Y-88000000D03*
D14*
%TO.P,Q1,2,D*%
%TO.N,/Vsw*%
X102460000Y-88000000D03*
%TO.P,Q1,3,S*%
%TO.N,/Isns_MOS*%
X99920000Y-88000000D03*
%TD*%
D10*
%TO.P,C7,1*%
%TO.N,/LED+*%
X65950000Y-85000000D03*
D11*
%TO.P,C7,2*%
%TO.N,/LED-*%
X65950000Y-82500000D03*
%TD*%
D15*
%TO.P,C3,1*%
%TO.N,VCC*%
X78000000Y-67632323D03*
D12*
%TO.P,C3,2*%
%TO.N,GND*%
X78000000Y-72632323D03*
%TD*%
D16*
%TO.P,L1,1,1*%
%TO.N,VCC*%
X104783021Y-73466979D03*
%TO.P,L1,2,2*%
%TO.N,/Vsw*%
X97216979Y-81033021D03*
%TD*%
D17*
%TO.P,RV1,1,1*%
%TO.N,Net-(D3-K)*%
X64642024Y-60077500D03*
%TO.P,RV1,2,2*%
%TO.N,Net-(R15-Pad1)*%
X62142024Y-60077500D03*
%TO.P,RV1,3,3*%
%TO.N,Net-(D4-A)*%
X59642024Y-60077500D03*
D18*
%TO.P,RV1,MP*%
%TO.N,N/C*%
X69742024Y-56377500D03*
X54742024Y-56377500D03*
%TD*%
D19*
%TO.P,J2,1,Pin_1*%
%TO.N,VCC*%
X91945000Y-54637500D03*
D20*
%TO.P,J2,2,Pin_2*%
%TO.N,/FAN*%
X89405000Y-54637500D03*
%TO.P,J2,3,Pin_3*%
%TO.N,+5V*%
X86865000Y-54637500D03*
%TO.P,J2,4,Pin_4*%
%TO.N,/NTC*%
X84325000Y-54637500D03*
%TD*%
D15*
%TO.P,C4,1*%
%TO.N,VCC*%
X67500000Y-67500000D03*
D12*
%TO.P,C4,2*%
%TO.N,GND*%
X67500000Y-72500000D03*
%TD*%
D13*
%TO.P,D1,1,K*%
%TO.N,/Vsw*%
X92830000Y-88000000D03*
D14*
%TO.P,D1,2,A*%
%TO.N,/LED+*%
X90290000Y-88000000D03*
%TO.P,D1,3,K*%
%TO.N,/Vsw*%
X87750000Y-88000000D03*
%TD*%
D15*
%TO.P,C1,1*%
%TO.N,VCC*%
X88500000Y-67632323D03*
D12*
%TO.P,C1,2*%
%TO.N,GND*%
X88500000Y-72632323D03*
%TD*%
D10*
%TO.P,C9,1*%
%TO.N,/LED+*%
X82000000Y-85000000D03*
D11*
%TO.P,C9,2*%
%TO.N,/LED-*%
X82000000Y-82500000D03*
%TD*%
D21*
%TO.P,Q2,1,S*%
%TO.N,GND*%
X91732500Y-61330000D03*
D22*
%TO.P,Q2,2,G*%
%TO.N,Net-(Q2-G)*%
X90462500Y-63400000D03*
%TO.P,Q2,3,D*%
%TO.N,/FAN*%
X89192500Y-61330000D03*
%TD*%
D23*
%TO.P,R6,1*%
%TO.N,GND*%
X104750000Y-77037500D03*
%TO.P,R6,2*%
%TO.N,/Isns_MOS*%
X104750000Y-82962500D03*
%TD*%
D24*
%TO.P,NT1,1,1*%
%TO.N,GNDA*%
X88825000Y-79625000D03*
%TO.P,NT1,2,2*%
%TO.N,GND*%
X89825000Y-79625000D03*
%TD*%
D25*
%TO.P,R11,1*%
%TO.N,+5V*%
X86057500Y-56637500D03*
%TO.P,R11,2*%
%TO.N,/NTC*%
X84232500Y-56637500D03*
%TD*%
D26*
%TO.P,U3,1,Vs*%
%TO.N,+5V*%
X65642024Y-65177500D03*
%TO.P,U3,2,GND*%
%TO.N,GND*%
X64692024Y-65177500D03*
%TO.P,U3,3,OUT*%
%TO.N,Net-(JP1-A)*%
X63742024Y-65177500D03*
%TO.P,U3,4,TRG*%
%TO.N,Net-(D3-A)*%
X63742024Y-62477500D03*
%TO.P,U3,5,THR*%
X65642024Y-62477500D03*
%TD*%
D27*
%TO.P,R8,1*%
%TO.N,GND*%
X72800000Y-77337500D03*
%TO.P,R8,2*%
%TO.N,/LED-*%
X72800000Y-80262500D03*
%TD*%
D28*
%TO.P,R15,1*%
%TO.N,Net-(R15-Pad1)*%
X62000000Y-63587500D03*
%TO.P,R15,2*%
%TO.N,Net-(JP1-A)*%
X62000000Y-65412500D03*
%TD*%
D27*
%TO.P,R10,1*%
%TO.N,GND*%
X76400000Y-74600000D03*
%TO.P,R10,2*%
%TO.N,Net-(R10-Pad2)*%
X76400000Y-77525000D03*
%TD*%
D23*
%TO.P,R7,1*%
%TO.N,GND*%
X108750000Y-77037500D03*
%TO.P,R7,2*%
%TO.N,/Isns_MOS*%
X108750000Y-82962500D03*
%TD*%
D29*
%TO.P,D2,1,K*%
%TO.N,VCC*%
X93232500Y-57830000D03*
%TO.P,D2,2,A*%
%TO.N,/FAN*%
X89232500Y-57830000D03*
%TD*%
D30*
%TO.P,R13,1*%
%TO.N,+5V*%
X81062500Y-66312500D03*
%TO.P,R13,2*%
%TO.N,/Vas*%
X81062500Y-64487500D03*
%TD*%
D25*
%TO.P,R12,1*%
%TO.N,/NTC*%
X82587500Y-56600000D03*
%TO.P,R12,2*%
%TO.N,GND*%
X80762500Y-56600000D03*
%TD*%
D31*
%TO.P,JP1,1,A*%
%TO.N,Net-(JP1-A)*%
X62100000Y-67600000D03*
D32*
%TO.P,JP1,2,C*%
%TO.N,/DIM*%
X63400000Y-67600000D03*
D33*
%TO.P,JP1,3,B*%
%TO.N,GND*%
X64700000Y-67600000D03*
%TD*%
D34*
%TO.P,D3,1,A*%
%TO.N,Net-(D3-A)*%
X63142024Y-57927500D03*
%TO.P,D3,2,NC*%
%TO.N,unconnected-(D3-NC-Pad2)*%
X63142024Y-56627500D03*
%TO.P,D3,3,K*%
%TO.N,Net-(D3-K)*%
X65142024Y-57277500D03*
%TD*%
D35*
%TO.P,JP2,1,A*%
%TO.N,/~{Fan_fault}*%
X85267500Y-68500000D03*
D32*
%TO.P,JP2,2,C*%
%TO.N,/EN*%
X83967500Y-68500000D03*
D36*
%TO.P,JP2,3,B*%
%TO.N,+5V*%
X82667500Y-68500000D03*
%TD*%
D34*
%TO.P,D4,1,A*%
%TO.N,Net-(D4-A)*%
X59442024Y-57927500D03*
%TO.P,D4,2,NC*%
%TO.N,unconnected-(D4-NC-Pad2)*%
X59442024Y-56627500D03*
%TO.P,D4,3,K*%
%TO.N,Net-(D3-A)*%
X61442024Y-57277500D03*
%TD*%
D28*
%TO.P,R3,1*%
%TO.N,/OVP*%
X94084285Y-81632440D03*
%TO.P,R3,2*%
%TO.N,/LED+*%
X94084285Y-83457440D03*
%TD*%
D37*
%TO.P,C14,1*%
%TO.N,+5V*%
X78700000Y-65737500D03*
%TO.P,C14,2*%
%TO.N,GND*%
X78700000Y-63662500D03*
%TD*%
D30*
%TO.P,R14,1*%
%TO.N,/Vas*%
X78900000Y-61912500D03*
%TO.P,R14,2*%
%TO.N,GND*%
X78900000Y-60087500D03*
%TD*%
D28*
%TO.P,R4,1*%
%TO.N,GND*%
X94800000Y-78132440D03*
%TO.P,R4,2*%
%TO.N,/OVP*%
X94800000Y-79957440D03*
%TD*%
D38*
%TO.P,C12,1*%
%TO.N,Net-(D3-A)*%
X67700000Y-62320000D03*
%TO.P,C12,2*%
%TO.N,GND*%
X67700000Y-64395000D03*
%TD*%
D39*
%TO.P,C10,1*%
%TO.N,/NTC*%
X82587500Y-58600000D03*
%TO.P,C10,2*%
%TO.N,GND*%
X80512500Y-58600000D03*
%TD*%
D40*
%TO.P,U2,1,Vin*%
%TO.N,/NTC*%
X82762500Y-60950000D03*
%TO.P,U2,2,Cf*%
%TO.N,Net-(U2-Cf)*%
X84032500Y-60950000D03*
%TO.P,U2,3,Vas*%
%TO.N,/Vas*%
X85302500Y-60950000D03*
%TO.P,U2,4,GND*%
%TO.N,GND*%
X86572500Y-60950000D03*
%TO.P,U2,5,NC*%
%TO.N,unconnected-(U2-NC-Pad5)*%
X86572500Y-65900000D03*
%TO.P,U2,6,OTF*%
%TO.N,/~{Fan_fault}*%
X85302500Y-65900000D03*
%TO.P,U2,7,Vout*%
%TO.N,Net-(Q2-G)*%
X84032500Y-65900000D03*
%TO.P,U2,8,VDD*%
%TO.N,+5V*%
X82762500Y-65900000D03*
%TD*%
D41*
%TO.P,U4,1,GND*%
%TO.N,GND*%
X76537500Y-63650000D03*
%TO.P,U4,2,VO*%
%TO.N,+5V*%
X76537500Y-65550000D03*
%TO.P,U4,3,VI*%
%TO.N,/VCC_filt*%
X74662500Y-64600000D03*
%TD*%
D42*
%TO.P,C15,1*%
%TO.N,/VCC_filt*%
X74662500Y-61800000D03*
%TO.P,C15,2*%
%TO.N,GND*%
X76737500Y-61800000D03*
%TD*%
D43*
%TO.P,U1,1,NC*%
%TO.N,unconnected-(U1-NC-Pad1)*%
X84990595Y-81564940D03*
%TO.P,U1,2,VIN*%
%TO.N,VCC*%
X84990595Y-80914940D03*
%TO.P,U1,3,EN*%
%TO.N,/EN*%
X84990595Y-80264940D03*
%TO.P,U1,4,PWMD*%
%TO.N,/DIM*%
X84990595Y-79614940D03*
%TO.P,U1,5,COMP*%
%TO.N,/COMP*%
X84990595Y-78964940D03*
%TO.P,U1,6,IADJ*%
%TO.N,/LED-*%
X84990595Y-78314940D03*
%TO.P,U1,7,FS*%
%TO.N,/FS*%
X84990595Y-77664940D03*
%TO.P,U1,8,AGND*%
%TO.N,GNDA*%
X84990595Y-77014940D03*
%TO.P,U1,9,NC*%
%TO.N,unconnected-(U1-NC-Pad9)*%
X90540595Y-77014940D03*
%TO.P,U1,10,SYNC/NC*%
%TO.N,unconnected-(U1-SYNC{slash}NC-Pad10)*%
X90540595Y-77664940D03*
%TO.P,U1,11,IS*%
%TO.N,Net-(U1-IS)*%
X90540595Y-78314940D03*
%TO.P,U1,12,OVP*%
%TO.N,/OVP*%
X90540595Y-78964940D03*
%TO.P,U1,13,PGND*%
%TO.N,GND*%
X90540595Y-79614940D03*
%TO.P,U1,14,DRV*%
%TO.N,/Gate*%
X90540595Y-80264940D03*
%TO.P,U1,15,VDD*%
%TO.N,/VDD*%
X90540595Y-80914940D03*
%TO.P,U1,16,NC*%
%TO.N,unconnected-(U1-NC-Pad16)*%
X90540595Y-81564940D03*
D44*
%TO.P,U1,17,EPAD*%
%TO.N,GNDA*%
X87030595Y-77947440D03*
X87030595Y-78842440D03*
X87030595Y-79737440D03*
X87030595Y-80632440D03*
X88500595Y-77947440D03*
X88500595Y-78842440D03*
X88500595Y-79737440D03*
X88500595Y-80632440D03*
%TD*%
D45*
%TO.P,R16,1*%
%TO.N,VCC*%
X75912500Y-67600000D03*
%TO.P,R16,2*%
%TO.N,/VCC_filt*%
X74087500Y-67600000D03*
%TD*%
D46*
%TO.P,R2,1*%
%TO.N,Net-(U1-IS)*%
X92421785Y-76544940D03*
%TO.P,R2,2*%
%TO.N,/Isns_MOS*%
X94246785Y-76544940D03*
%TD*%
D23*
%TO.P,R5,1*%
%TO.N,GND*%
X100750000Y-77037500D03*
%TO.P,R5,2*%
%TO.N,/Isns_MOS*%
X100750000Y-82962500D03*
%TD*%
D46*
%TO.P,R1,1*%
%TO.N,/FS*%
X83453095Y-75589940D03*
%TO.P,R1,2*%
%TO.N,GNDA*%
X85278095Y-75589940D03*
%TD*%
D27*
%TO.P,R9,1*%
%TO.N,Net-(R10-Pad2)*%
X76400000Y-79600000D03*
%TO.P,R9,2*%
%TO.N,/LED-*%
X76400000Y-82525000D03*
%TD*%
D42*
%TO.P,C11,1*%
%TO.N,Net-(U2-Cf)*%
X84462500Y-58600000D03*
%TO.P,C11,2*%
%TO.N,GND*%
X86537500Y-58600000D03*
%TD*%
D37*
%TO.P,C13,1*%
%TO.N,/Vas*%
X80762500Y-62737500D03*
%TO.P,C13,2*%
%TO.N,GND*%
X80762500Y-60662500D03*
%TD*%
D38*
%TO.P,C5,1*%
%TO.N,/VDD*%
X92334285Y-81362500D03*
%TO.P,C5,2*%
%TO.N,GNDA*%
X92334285Y-83437500D03*
%TD*%
D37*
%TO.P,C2,1*%
%TO.N,/COMP*%
X81565595Y-76827440D03*
%TO.P,C2,2*%
%TO.N,GNDA*%
X81565595Y-74752440D03*
%TD*%
D47*
%TO.N,GND*%
X93600000Y-77800000D03*
X92800000Y-79400000D03*
X69100000Y-64400000D03*
X77500000Y-62900000D03*
X86532500Y-62430000D03*
X79762500Y-57400000D03*
%TO.N,/LED-*%
X83165595Y-77989940D03*
%TO.N,/Gate*%
X93600000Y-80200000D03*
%TO.N,/DIM*%
X63400000Y-69400000D03*
X80000000Y-76000000D03*
%TO.N,+5V*%
X82817500Y-64085000D03*
X67000000Y-65800000D03*
X77600000Y-65500000D03*
%TD*%
D48*
%TO.N,VCC*%
X79900000Y-73200000D02*
X79900000Y-69532323D01*
X78500000Y-74600000D02*
X79900000Y-73200000D01*
D49*
X75912500Y-67600000D02*
X77967677Y-67600000D01*
D48*
X79900000Y-69532323D02*
X78000000Y-67632323D01*
D49*
X93232500Y-57830000D02*
X93232500Y-55925000D01*
D48*
X84990595Y-80914940D02*
X81714940Y-80914940D01*
X78500000Y-77700000D02*
X78500000Y-74600000D01*
X81714940Y-80914940D02*
X78500000Y-77700000D01*
D49*
X77967677Y-67600000D02*
X78000000Y-67632323D01*
X93232500Y-55925000D02*
X91945000Y-54637500D01*
%TO.N,GND*%
X73400000Y-77352588D02*
X73400000Y-72647411D01*
D50*
X80512500Y-58600000D02*
X80387500Y-58600000D01*
D49*
X75800000Y-74000000D02*
X75800000Y-72632323D01*
D50*
X80387500Y-58600000D02*
X78900000Y-60087500D01*
D51*
X94467560Y-77800000D02*
X94800000Y-78132440D01*
D48*
X64692024Y-67592024D02*
X64700000Y-67600000D01*
X64700000Y-67600000D02*
X64700000Y-69700000D01*
D52*
X60760677Y-72632323D02*
X57973000Y-75420000D01*
D50*
X76537500Y-63650000D02*
X78687500Y-63650000D01*
D52*
X52973000Y-72920000D02*
X55473000Y-72920000D01*
D50*
X86572500Y-58635000D02*
X86537500Y-58600000D01*
X86572500Y-60950000D02*
X86572500Y-58635000D01*
D48*
X92585060Y-79614940D02*
X92800000Y-79400000D01*
D52*
X73400000Y-72647411D02*
X73415088Y-72632323D01*
X100750000Y-77037500D02*
X99837500Y-77037500D01*
D48*
X64692024Y-65177500D02*
X64692024Y-67592024D01*
D49*
X76400000Y-74600000D02*
X77000000Y-74000000D01*
D50*
X79762500Y-57400000D02*
X80762500Y-57400000D01*
D48*
X66637500Y-64395000D02*
X67700000Y-64395000D01*
X69100000Y-64400000D02*
X67705000Y-64400000D01*
X89835060Y-79614940D02*
X89825000Y-79625000D01*
D52*
X99837500Y-77037500D02*
X95432323Y-72632323D01*
D50*
X78687500Y-63650000D02*
X78700000Y-63662500D01*
D48*
X67705000Y-64400000D02*
X67700000Y-64395000D01*
D49*
X77000000Y-74000000D02*
X77000000Y-72632323D01*
D50*
X80762500Y-57400000D02*
X80762500Y-56600000D01*
X76737500Y-61800000D02*
X76737500Y-63450000D01*
D51*
X93600000Y-77800000D02*
X94467560Y-77800000D01*
D48*
X90540595Y-79614940D02*
X92585060Y-79614940D01*
D50*
X77287500Y-62900000D02*
X76537500Y-63650000D01*
D52*
X73415088Y-72632323D02*
X78000000Y-72632323D01*
X55473000Y-72920000D02*
X57973000Y-75420000D01*
X108750000Y-77037500D02*
X100750000Y-77037500D01*
D50*
X78900000Y-60087500D02*
X78212500Y-60087500D01*
D48*
X64692024Y-64265476D02*
X65200000Y-63757500D01*
D52*
X72800000Y-72632323D02*
X60760677Y-72632323D01*
D50*
X76737500Y-63450000D02*
X76537500Y-63650000D01*
D52*
X95432323Y-72632323D02*
X88500000Y-72632323D01*
D50*
X76737500Y-61562500D02*
X76737500Y-61800000D01*
D49*
X76400000Y-74600000D02*
X75800000Y-74000000D01*
D48*
X64700000Y-69700000D02*
X67500000Y-72500000D01*
D49*
X72200000Y-77352588D02*
X72200000Y-72647411D01*
D50*
X77500000Y-62900000D02*
X77287500Y-62900000D01*
X80762500Y-60662500D02*
X80762500Y-57400000D01*
D48*
X65200000Y-63757500D02*
X66000000Y-63757500D01*
X90540595Y-79614940D02*
X89835060Y-79614940D01*
X66000000Y-63757500D02*
X66637500Y-64395000D01*
X64692024Y-65177500D02*
X64692024Y-64265476D01*
D50*
X78212500Y-60087500D02*
X76737500Y-61562500D01*
D48*
%TO.N,/COMP*%
X82940595Y-78964940D02*
X81565595Y-77589940D01*
X81565595Y-77589940D02*
X81565595Y-76827440D01*
X84990595Y-78964940D02*
X82940595Y-78964940D01*
%TO.N,GNDA*%
X87005595Y-77014940D02*
X87030595Y-76989940D01*
D49*
X87030595Y-76454940D02*
X87030595Y-76989940D01*
D50*
X92334285Y-83437500D02*
X90437500Y-83437500D01*
D48*
X84990595Y-77014940D02*
X87005595Y-77014940D01*
D50*
X90437500Y-83437500D02*
X88500595Y-81500595D01*
D49*
X85278095Y-75589940D02*
X86165595Y-75589940D01*
D50*
X84565595Y-74189940D02*
X85278095Y-74902440D01*
X82165595Y-74189940D02*
X84565595Y-74189940D01*
X88500595Y-81500595D02*
X88500595Y-80632440D01*
D49*
X86165595Y-75589940D02*
X87030595Y-76454940D01*
D50*
X85278095Y-74902440D02*
X85278095Y-75589940D01*
D49*
X87030595Y-76989940D02*
X87030595Y-77947440D01*
D50*
X81603095Y-74752440D02*
X82165595Y-74189940D01*
D48*
%TO.N,/VDD*%
X90540595Y-80914940D02*
X91741785Y-80914940D01*
X91741785Y-80914940D02*
X92334285Y-81507440D01*
D52*
%TO.N,/LED+*%
X88750000Y-85000000D02*
X90290000Y-86540000D01*
D51*
X92750000Y-85750000D02*
X91080000Y-85750000D01*
D52*
X82000000Y-85000000D02*
X57393000Y-85000000D01*
X55473000Y-83080000D02*
X57196500Y-84803500D01*
X57393000Y-85000000D02*
X57196500Y-84803500D01*
D51*
X91080000Y-85750000D02*
X90290000Y-86540000D01*
D52*
X82000000Y-85000000D02*
X88750000Y-85000000D01*
D51*
X94084285Y-84415715D02*
X92750000Y-85750000D01*
X94084285Y-83457440D02*
X94084285Y-84415715D01*
D52*
X90290000Y-86540000D02*
X90290000Y-88000000D01*
X52973000Y-83080000D02*
X55473000Y-83080000D01*
X57196500Y-84803500D02*
X57973000Y-85580000D01*
%TO.N,/LED-*%
X82000000Y-82500000D02*
X59973000Y-82500000D01*
D49*
X73400000Y-82437500D02*
X73400000Y-80362500D01*
D52*
X52973000Y-78000000D02*
X55473000Y-78000000D01*
D49*
X72200000Y-82437500D02*
X72200000Y-80362500D01*
D48*
X83490595Y-78314940D02*
X84990595Y-78314940D01*
D52*
X59973000Y-82500000D02*
X57973000Y-80500000D01*
X55473000Y-78000000D02*
X57973000Y-80500000D01*
D48*
X83165595Y-77989940D02*
X83490595Y-78314940D01*
D52*
%TO.N,/Vsw*%
X97016979Y-88000000D02*
X97216979Y-88200000D01*
X89333021Y-90583021D02*
X87750000Y-89000000D01*
X97216979Y-81033021D02*
X97216979Y-88200000D01*
X102460000Y-89140000D02*
X102460000Y-88000000D01*
X97216979Y-88200000D02*
X97216979Y-90583021D01*
X87750000Y-89000000D02*
X87750000Y-88000000D01*
X101016979Y-90583021D02*
X102460000Y-89140000D01*
X97216979Y-90583021D02*
X89333021Y-90583021D01*
X97016979Y-88000000D02*
X92830000Y-88000000D01*
X97216979Y-90583021D02*
X101016979Y-90583021D01*
D48*
%TO.N,/Gate*%
X90540595Y-80264940D02*
X93535060Y-80264940D01*
X93535060Y-80264940D02*
X93600000Y-80200000D01*
D51*
%TO.N,/Isns_MOS*%
X96344940Y-76544940D02*
X94246785Y-76544940D01*
X100750000Y-82962500D02*
X100750000Y-80950000D01*
D53*
X108750000Y-82962500D02*
X100750000Y-82962500D01*
X99920000Y-83792500D02*
X100750000Y-82962500D01*
X99920000Y-88000000D02*
X99920000Y-83792500D01*
D51*
X100750000Y-80950000D02*
X96344940Y-76544940D01*
D48*
%TO.N,/FS*%
X84990595Y-77664940D02*
X84040595Y-77664940D01*
X83453095Y-77077440D02*
X83453095Y-75589940D01*
X84040595Y-77664940D02*
X83453095Y-77077440D01*
%TO.N,Net-(U1-IS)*%
X91465595Y-78314940D02*
X92421785Y-77358750D01*
X92421785Y-77358750D02*
X92421785Y-76544940D01*
X90540595Y-78314940D02*
X91465595Y-78314940D01*
%TO.N,/OVP*%
X91835060Y-78964940D02*
X90540595Y-78964940D01*
X93400000Y-78600000D02*
X92200000Y-78600000D01*
X94757440Y-79957440D02*
X93400000Y-78600000D01*
D51*
X94800000Y-80916725D02*
X94084285Y-81632440D01*
D48*
X94800000Y-79957440D02*
X94757440Y-79957440D01*
D51*
X94800000Y-79957440D02*
X94800000Y-80916725D01*
D48*
X92200000Y-78600000D02*
X91835060Y-78964940D01*
D49*
%TO.N,Net-(R10-Pad2)*%
X75800000Y-79600000D02*
X75800000Y-77525000D01*
X77000000Y-79600000D02*
X77000000Y-77525000D01*
D48*
%TO.N,/EN*%
X82064940Y-80264940D02*
X79200000Y-77400000D01*
X79200000Y-75100000D02*
X83967500Y-70332500D01*
X83967500Y-70332500D02*
X83967500Y-68500000D01*
X84990595Y-80264940D02*
X82064940Y-80264940D01*
X79200000Y-77400000D02*
X79200000Y-75100000D01*
%TO.N,/DIM*%
X80000000Y-77250000D02*
X80000000Y-76000000D01*
X84990595Y-79614940D02*
X82364940Y-79614940D01*
X82364940Y-79614940D02*
X80000000Y-77250000D01*
X63400000Y-67600000D02*
X63400000Y-69400000D01*
D49*
%TO.N,/FAN*%
X89192500Y-61730000D02*
X89192500Y-54850000D01*
X89192500Y-54850000D02*
X89405000Y-54637500D01*
D50*
%TO.N,/NTC*%
X84232500Y-54730000D02*
X84325000Y-54637500D01*
X82625000Y-56637500D02*
X82587500Y-56600000D01*
X82762500Y-60950000D02*
X82762500Y-56775000D01*
X82762500Y-56775000D02*
X82587500Y-56600000D01*
X84232500Y-56637500D02*
X82625000Y-56637500D01*
X84232500Y-56637500D02*
X84232500Y-54730000D01*
%TO.N,Net-(U2-Cf)*%
X84032500Y-59830000D02*
X84462500Y-59400000D01*
X84032500Y-60950000D02*
X84032500Y-59830000D01*
X84462500Y-59400000D02*
X84462500Y-58600000D01*
D51*
%TO.N,Net-(D3-A)*%
X65542024Y-55277500D02*
X62142024Y-55277500D01*
D48*
X67542500Y-62477500D02*
X67700000Y-62320000D01*
D51*
X61442024Y-55977500D02*
X62142024Y-55277500D01*
D48*
X63742024Y-62477500D02*
X67542500Y-62477500D01*
D51*
X67700000Y-61035476D02*
X66742024Y-60077500D01*
X67700000Y-62320000D02*
X67700000Y-61035476D01*
X63142024Y-57927500D02*
X62092024Y-57927500D01*
X62092024Y-57927500D02*
X61442024Y-57277500D01*
X61442024Y-57277500D02*
X61442024Y-55977500D01*
X66742024Y-56477500D02*
X65542024Y-55277500D01*
X66742024Y-60077500D02*
X66742024Y-56477500D01*
D50*
%TO.N,/Vas*%
X79112500Y-61912500D02*
X79937500Y-62737500D01*
X84725000Y-62737500D02*
X80762500Y-62737500D01*
X78900000Y-61912500D02*
X79112500Y-61912500D01*
X85302500Y-62160000D02*
X84725000Y-62737500D01*
X85302500Y-60950000D02*
X85302500Y-62160000D01*
X79937500Y-62737500D02*
X80762500Y-62737500D01*
X81062500Y-64487500D02*
X81062500Y-63037500D01*
%TO.N,+5V*%
X77650000Y-65550000D02*
X78512500Y-65550000D01*
X82762500Y-68405000D02*
X82667500Y-68500000D01*
X80412500Y-66312500D02*
X79837500Y-65737500D01*
X86865000Y-54637500D02*
X86865000Y-55830000D01*
X76537500Y-65550000D02*
X77550000Y-65550000D01*
X81062500Y-66312500D02*
X80412500Y-66312500D01*
X82762500Y-65900000D02*
X82762500Y-68405000D01*
D48*
X67000000Y-65800000D02*
X66264524Y-65800000D01*
D50*
X78512500Y-65550000D02*
X78700000Y-65737500D01*
D48*
X66264524Y-65800000D02*
X65642024Y-65177500D01*
D50*
X82762500Y-65900000D02*
X82762500Y-64140000D01*
X81062500Y-66312500D02*
X82350000Y-66312500D01*
X79837500Y-65737500D02*
X78700000Y-65737500D01*
X77600000Y-65500000D02*
X77650000Y-65550000D01*
X77550000Y-65550000D02*
X77600000Y-65500000D01*
X86865000Y-55830000D02*
X86057500Y-56637500D01*
X82350000Y-66312500D02*
X82762500Y-65900000D01*
D49*
%TO.N,/VCC_filt*%
X74087500Y-67600000D02*
X74087500Y-62375000D01*
X74087500Y-62375000D02*
X74662500Y-61800000D01*
D51*
%TO.N,Net-(D3-K)*%
X65142024Y-57277500D02*
X65142024Y-59577500D01*
X65142024Y-59577500D02*
X64642024Y-60077500D01*
%TO.N,Net-(D4-A)*%
X59442024Y-57927500D02*
X59442024Y-59877500D01*
X59442024Y-59877500D02*
X59642024Y-60077500D01*
D50*
%TO.N,Net-(JP1-A)*%
X62000000Y-65412500D02*
X63507024Y-65412500D01*
D48*
X62012500Y-67512500D02*
X62100000Y-67600000D01*
D50*
X62000000Y-67500000D02*
X62100000Y-67600000D01*
X62000000Y-65412500D02*
X62000000Y-67500000D01*
X63507024Y-65412500D02*
X63742024Y-65177500D01*
%TO.N,/~{Fan_fault}*%
X85302500Y-68465000D02*
X85267500Y-68500000D01*
X85302500Y-65900000D02*
X85302500Y-68465000D01*
%TO.N,Net-(Q2-G)*%
X84562500Y-63900000D02*
X89562500Y-63900000D01*
X89562500Y-63900000D02*
X90462500Y-63000000D01*
X84032500Y-64430000D02*
X84562500Y-63900000D01*
X84032500Y-65900000D02*
X84032500Y-64430000D01*
D51*
%TO.N,Net-(R15-Pad1)*%
X62000000Y-63587500D02*
X62000000Y-60219524D01*
X62000000Y-60219524D02*
X62142024Y-60077500D01*
%TD*%
%TA.AperFunction,Conductor*%
%TO.N,GND*%
G36*
X52936789Y-53014987D02*
G01*
X52981361Y-53055063D01*
X53001928Y-53111364D01*
X52993684Y-53170734D01*
X52958555Y-53219301D01*
X52890884Y-53276355D01*
X52739954Y-53455368D01*
X52621451Y-53657307D01*
X52538778Y-53876377D01*
X52494318Y-54106261D01*
X52491524Y-54158869D01*
X52491524Y-58596131D01*
X52494318Y-58648738D01*
X52538778Y-58878622D01*
X52538779Y-58878626D01*
X52621450Y-59097690D01*
X52621451Y-59097692D01*
X52637481Y-59125008D01*
X52739954Y-59299632D01*
X52890882Y-59478642D01*
X53069892Y-59629570D01*
X53271834Y-59748074D01*
X53490898Y-59830745D01*
X53720783Y-59875205D01*
X53730350Y-59875713D01*
X53773393Y-59878000D01*
X53773402Y-59878000D01*
X55710646Y-59878000D01*
X55710655Y-59878000D01*
X55750110Y-59875903D01*
X55763265Y-59875205D01*
X55993150Y-59830745D01*
X56212214Y-59748074D01*
X56414156Y-59629570D01*
X56593166Y-59478642D01*
X56744094Y-59299632D01*
X56862598Y-59097690D01*
X56945269Y-58878626D01*
X56989729Y-58648741D01*
X56991764Y-58610428D01*
X56992524Y-58596131D01*
X56992524Y-54158869D01*
X56989729Y-54106261D01*
X56989729Y-54106259D01*
X56945269Y-53876374D01*
X56862598Y-53657310D01*
X56744094Y-53455368D01*
X56593166Y-53276358D01*
X56593164Y-53276356D01*
X56593163Y-53276355D01*
X56525493Y-53219301D01*
X56490364Y-53170734D01*
X56482120Y-53111364D01*
X56502687Y-53055063D01*
X56547259Y-53014987D01*
X56605422Y-53000500D01*
X67878626Y-53000500D01*
X67936789Y-53014987D01*
X67981361Y-53055063D01*
X68001928Y-53111364D01*
X67993684Y-53170734D01*
X67958555Y-53219301D01*
X67890884Y-53276355D01*
X67739954Y-53455368D01*
X67621451Y-53657307D01*
X67538778Y-53876377D01*
X67494318Y-54106261D01*
X67491524Y-54158869D01*
X67491524Y-55654139D01*
X67478009Y-55710434D01*
X67440409Y-55754457D01*
X67386922Y-55776612D01*
X67329206Y-55772070D01*
X67279843Y-55741820D01*
X66235788Y-54697765D01*
X66223149Y-54682967D01*
X66214912Y-54671629D01*
X66164506Y-54626243D01*
X66159797Y-54621774D01*
X66145406Y-54607383D01*
X66129580Y-54594566D01*
X66124650Y-54590355D01*
X66074239Y-54544966D01*
X66062100Y-54537958D01*
X66046067Y-54526939D01*
X66035173Y-54518117D01*
X66035171Y-54518116D01*
X66035170Y-54518115D01*
X65974737Y-54487323D01*
X65969032Y-54484225D01*
X65910307Y-54450320D01*
X65896977Y-54445989D01*
X65878998Y-54438542D01*
X65866511Y-54432179D01*
X65801000Y-54414625D01*
X65794778Y-54412782D01*
X65730278Y-54391825D01*
X65716339Y-54390360D01*
X65697211Y-54386815D01*
X65683669Y-54383186D01*
X65615933Y-54379636D01*
X65609469Y-54379127D01*
X65589222Y-54377000D01*
X65589216Y-54377000D01*
X65568850Y-54377000D01*
X65562361Y-54376830D01*
X65557399Y-54376569D01*
X65494636Y-54373281D01*
X65494635Y-54373281D01*
X65487100Y-54374474D01*
X65480795Y-54375473D01*
X65461398Y-54377000D01*
X62222650Y-54377000D01*
X62203252Y-54375473D01*
X62189412Y-54373281D01*
X62121694Y-54376830D01*
X62115204Y-54377000D01*
X62094827Y-54377000D01*
X62074570Y-54379128D01*
X62068107Y-54379637D01*
X62000375Y-54383187D01*
X61986833Y-54386816D01*
X61967709Y-54390360D01*
X61953768Y-54391825D01*
X61889269Y-54412782D01*
X61883047Y-54414626D01*
X61817534Y-54432180D01*
X61805045Y-54438544D01*
X61787076Y-54445987D01*
X61773741Y-54450320D01*
X61715020Y-54484222D01*
X61709319Y-54487318D01*
X61648869Y-54518119D01*
X61637974Y-54526942D01*
X61621946Y-54537958D01*
X61609808Y-54544966D01*
X61559400Y-54590352D01*
X61554475Y-54594558D01*
X61538650Y-54607374D01*
X61524236Y-54621788D01*
X61519532Y-54626251D01*
X61469134Y-54671630D01*
X61460893Y-54682972D01*
X61448259Y-54697764D01*
X60862288Y-55283735D01*
X60847496Y-55296369D01*
X60836154Y-55304610D01*
X60790775Y-55355008D01*
X60786312Y-55359712D01*
X60771898Y-55374126D01*
X60759082Y-55389951D01*
X60754876Y-55394876D01*
X60709490Y-55445284D01*
X60702482Y-55457422D01*
X60691466Y-55473450D01*
X60682643Y-55484345D01*
X60651842Y-55544795D01*
X60648746Y-55550496D01*
X60614846Y-55609213D01*
X60610512Y-55622552D01*
X60603068Y-55640519D01*
X60600035Y-55646474D01*
X60596704Y-55653012D01*
X60579150Y-55718517D01*
X60577308Y-55724734D01*
X60556349Y-55789243D01*
X60554884Y-55803186D01*
X60551339Y-55822314D01*
X60547710Y-55835855D01*
X60544160Y-55903591D01*
X60543651Y-55910054D01*
X60541524Y-55930302D01*
X60541524Y-55950674D01*
X60541354Y-55957163D01*
X60537805Y-56024888D01*
X60539997Y-56038727D01*
X60541524Y-56058126D01*
X60541524Y-57196874D01*
X60539997Y-57216273D01*
X60537805Y-57230111D01*
X60541354Y-57297837D01*
X60541524Y-57304326D01*
X60541524Y-57324698D01*
X60543651Y-57344945D01*
X60544160Y-57351409D01*
X60547710Y-57419145D01*
X60551339Y-57432687D01*
X60554884Y-57451815D01*
X60556349Y-57465754D01*
X60577306Y-57530254D01*
X60579143Y-57536453D01*
X60594834Y-57595009D01*
X60597322Y-57608345D01*
X60597933Y-57609983D01*
X60648228Y-57744831D01*
X60734478Y-57860046D01*
X60787134Y-57899464D01*
X60804969Y-57915756D01*
X60836153Y-57950388D01*
X60847500Y-57958632D01*
X60862288Y-57971263D01*
X61398260Y-58507236D01*
X61410893Y-58522026D01*
X61419136Y-58533371D01*
X61436394Y-58548910D01*
X61469531Y-58578747D01*
X61474239Y-58583215D01*
X61488644Y-58597620D01*
X61504461Y-58610428D01*
X61509398Y-58614644D01*
X61526423Y-58629973D01*
X61559519Y-58678484D01*
X61566583Y-58736782D01*
X61546030Y-58791793D01*
X61502471Y-58831178D01*
X61373399Y-58901029D01*
X61190239Y-59043587D01*
X61033044Y-59214347D01*
X60995831Y-59271306D01*
X60951039Y-59312538D01*
X60892022Y-59327483D01*
X60833004Y-59312537D01*
X60788216Y-59271305D01*
X60751003Y-59214347D01*
X60593808Y-59043587D01*
X60410650Y-58901030D01*
X60407502Y-58899326D01*
X60403387Y-58895378D01*
X60402542Y-58894720D01*
X60402610Y-58894632D01*
X60360000Y-58853746D01*
X60342524Y-58790274D01*
X60342524Y-57880311D01*
X60340394Y-57860045D01*
X60327698Y-57739244D01*
X60292703Y-57631542D01*
X60287348Y-57606491D01*
X60286115Y-57595017D01*
X60235820Y-57460169D01*
X60154702Y-57351810D01*
X60132804Y-57303858D01*
X60132804Y-57251142D01*
X60154703Y-57203189D01*
X60235820Y-57094831D01*
X60286115Y-56959983D01*
X60292524Y-56900373D01*
X60292523Y-56354628D01*
X60286115Y-56295017D01*
X60235820Y-56160169D01*
X60149570Y-56044954D01*
X60034355Y-55958704D01*
X59899507Y-55908409D01*
X59839897Y-55902000D01*
X59839893Y-55902000D01*
X59044154Y-55902000D01*
X58984539Y-55908409D01*
X58849693Y-55958704D01*
X58734478Y-56044954D01*
X58648228Y-56160168D01*
X58597933Y-56295015D01*
X58597933Y-56295017D01*
X58592022Y-56350000D01*
X58591524Y-56354630D01*
X58591524Y-56900369D01*
X58597933Y-56959984D01*
X58622277Y-57025253D01*
X58648228Y-57094831D01*
X58729345Y-57203189D01*
X58751244Y-57251142D01*
X58751244Y-57303858D01*
X58729345Y-57351811D01*
X58648228Y-57460169D01*
X58597932Y-57595018D01*
X58596699Y-57606492D01*
X58591341Y-57631550D01*
X58556350Y-57739240D01*
X58549369Y-57805666D01*
X58546512Y-57832854D01*
X58541524Y-57880311D01*
X58541524Y-59164454D01*
X58536369Y-59199836D01*
X58521336Y-59232267D01*
X58415454Y-59394334D01*
X58406099Y-59408653D01*
X58312868Y-59621196D01*
X58255889Y-59846200D01*
X58236723Y-60077499D01*
X58255889Y-60308799D01*
X58255889Y-60308801D01*
X58255890Y-60308805D01*
X58305133Y-60503260D01*
X58312868Y-60533803D01*
X58406099Y-60746347D01*
X58406100Y-60746349D01*
X58533045Y-60940653D01*
X58690240Y-61111413D01*
X58873398Y-61253970D01*
X59077521Y-61364436D01*
X59151369Y-61389788D01*
X59297039Y-61439797D01*
X59297041Y-61439797D01*
X59297043Y-61439798D01*
X59525975Y-61478000D01*
X59758072Y-61478000D01*
X59758073Y-61478000D01*
X59987005Y-61439798D01*
X60206527Y-61364436D01*
X60410650Y-61253970D01*
X60593808Y-61111413D01*
X60751003Y-60940653D01*
X60788216Y-60883693D01*
X60833006Y-60842461D01*
X60892024Y-60827516D01*
X60951042Y-60842461D01*
X60995831Y-60883693D01*
X61033045Y-60940653D01*
X61066731Y-60977246D01*
X61091018Y-61016154D01*
X61099500Y-61061228D01*
X61099500Y-62972065D01*
X61093206Y-63011069D01*
X61034825Y-63187246D01*
X61024500Y-63288323D01*
X61024500Y-63886676D01*
X61034825Y-63987752D01*
X61089091Y-64151515D01*
X61118168Y-64198656D01*
X61179660Y-64298350D01*
X61293629Y-64412319D01*
X61325722Y-64467905D01*
X61325722Y-64532092D01*
X61293629Y-64587680D01*
X61179660Y-64701649D01*
X61089091Y-64848484D01*
X61034825Y-65012246D01*
X61024500Y-65113323D01*
X61024500Y-65711676D01*
X61034825Y-65812752D01*
X61089091Y-65976515D01*
X61179661Y-66123352D01*
X61213180Y-66156870D01*
X61240061Y-66197099D01*
X61249500Y-66244552D01*
X61249500Y-66776901D01*
X61229816Y-66843939D01*
X61215096Y-66866842D01*
X61155368Y-66997628D01*
X61130156Y-67065226D01*
X61114819Y-67135724D01*
X61094357Y-67278039D01*
X61089210Y-67349999D01*
X61094037Y-67417473D01*
X61094353Y-67426320D01*
X61094353Y-67773680D01*
X61094037Y-67782527D01*
X61089210Y-67850000D01*
X61094357Y-67921960D01*
X61114819Y-68064275D01*
X61130156Y-68134773D01*
X61155368Y-68202371D01*
X61215095Y-68333153D01*
X61215096Y-68333155D01*
X61292903Y-68454226D01*
X61292905Y-68454229D01*
X61374047Y-68547873D01*
X61387057Y-68562887D01*
X61438073Y-68613903D01*
X61495830Y-68657139D01*
X61616784Y-68734871D01*
X61747700Y-68794658D01*
X61885655Y-68835165D01*
X62028111Y-68855647D01*
X62028112Y-68855647D01*
X62459700Y-68855647D01*
X62521702Y-68872261D01*
X62567089Y-68917650D01*
X62583700Y-68979653D01*
X62573371Y-69018191D01*
X62576848Y-69019321D01*
X62514326Y-69211742D01*
X62494540Y-69399999D01*
X62514326Y-69588257D01*
X62572820Y-69768284D01*
X62667466Y-69932216D01*
X62794129Y-70072889D01*
X62947269Y-70184151D01*
X63120197Y-70261144D01*
X63305352Y-70300500D01*
X63305354Y-70300500D01*
X63494646Y-70300500D01*
X63494648Y-70300500D01*
X63618084Y-70274262D01*
X63679803Y-70261144D01*
X63852730Y-70184151D01*
X64005871Y-70072888D01*
X64132533Y-69932216D01*
X64227179Y-69768284D01*
X64285674Y-69588256D01*
X64305460Y-69400000D01*
X64285674Y-69211744D01*
X64249519Y-69100470D01*
X64227179Y-69031715D01*
X64160692Y-68916556D01*
X64144177Y-68859473D01*
X64156116Y-68801261D01*
X64193767Y-68755290D01*
X64257546Y-68707546D01*
X64343796Y-68592331D01*
X64394091Y-68457483D01*
X64400500Y-68397873D01*
X64400499Y-66802128D01*
X64394091Y-66742517D01*
X64350196Y-66624829D01*
X64343346Y-66566047D01*
X64364523Y-66510780D01*
X64408904Y-66471624D01*
X64434089Y-66465434D01*
X64442024Y-66457500D01*
X64442024Y-66333001D01*
X64448370Y-66293841D01*
X64466758Y-66258690D01*
X64497158Y-66218081D01*
X64510820Y-66199831D01*
X64561115Y-66064983D01*
X64567524Y-66005373D01*
X64567523Y-64349628D01*
X64561115Y-64290017D01*
X64510820Y-64155169D01*
X64508085Y-64151516D01*
X64466758Y-64096310D01*
X64448370Y-64061159D01*
X64442024Y-64021999D01*
X64442024Y-63897500D01*
X64419817Y-63897500D01*
X64360390Y-63882332D01*
X64315502Y-63840540D01*
X64296133Y-63782346D01*
X64307022Y-63721989D01*
X64345506Y-63674233D01*
X64354217Y-63667712D01*
X64424570Y-63615046D01*
X64510820Y-63499831D01*
X64561115Y-63364983D01*
X64567524Y-63305373D01*
X64567524Y-63302000D01*
X64568128Y-63299742D01*
X64568234Y-63298765D01*
X64568386Y-63298781D01*
X64584137Y-63240000D01*
X64629524Y-63194613D01*
X64691524Y-63178000D01*
X64692525Y-63178000D01*
X64754525Y-63194613D01*
X64799912Y-63240000D01*
X64815662Y-63298781D01*
X64815815Y-63298765D01*
X64815920Y-63299742D01*
X64816525Y-63302000D01*
X64816525Y-63305370D01*
X64822933Y-63364984D01*
X64835993Y-63400000D01*
X64873228Y-63499831D01*
X64922659Y-63565862D01*
X64959478Y-63615046D01*
X65038542Y-63674233D01*
X65077026Y-63721989D01*
X65087915Y-63782346D01*
X65068546Y-63840540D01*
X65023658Y-63882332D01*
X64964231Y-63897500D01*
X64942024Y-63897500D01*
X64942024Y-64021999D01*
X64935678Y-64061159D01*
X64917290Y-64096310D01*
X64873229Y-64155166D01*
X64822933Y-64290016D01*
X64816524Y-64349630D01*
X64816524Y-66005369D01*
X64822933Y-66064984D01*
X64873228Y-66199832D01*
X64917290Y-66258690D01*
X64935678Y-66293841D01*
X64942024Y-66333001D01*
X64942024Y-66457500D01*
X65064848Y-66457500D01*
X65128176Y-66450691D01*
X65166306Y-66443811D01*
X65209259Y-66451560D01*
X65209538Y-66451590D01*
X65209541Y-66451591D01*
X65269151Y-66458000D01*
X65875500Y-66457999D01*
X65937500Y-66474612D01*
X65982887Y-66519999D01*
X65999500Y-66581999D01*
X65999500Y-68547869D01*
X66005909Y-68607484D01*
X66019049Y-68642713D01*
X66056204Y-68742331D01*
X66142454Y-68857546D01*
X66257669Y-68943796D01*
X66392517Y-68994091D01*
X66452127Y-69000500D01*
X68547872Y-69000499D01*
X68607483Y-68994091D01*
X68742331Y-68943796D01*
X68857546Y-68857546D01*
X68943796Y-68742331D01*
X68994091Y-68607483D01*
X69000500Y-68547873D01*
X69000499Y-66452128D01*
X68994091Y-66392517D01*
X68943796Y-66257669D01*
X68857546Y-66142454D01*
X68742331Y-66056204D01*
X68607483Y-66005909D01*
X68547873Y-65999500D01*
X68547869Y-65999500D01*
X68022208Y-65999500D01*
X67956498Y-65980658D01*
X67910758Y-65929858D01*
X67898887Y-65862539D01*
X67901804Y-65834785D01*
X67905460Y-65800000D01*
X67886484Y-65619457D01*
X67898354Y-65552141D01*
X67944095Y-65501341D01*
X68009805Y-65482499D01*
X68224979Y-65482499D01*
X68327695Y-65472006D01*
X68494122Y-65416857D01*
X68643345Y-65324816D01*
X68767316Y-65200845D01*
X68859357Y-65051622D01*
X68914506Y-64885196D01*
X68925000Y-64782479D01*
X68925000Y-64645000D01*
X67574000Y-64645000D01*
X67512000Y-64628387D01*
X67466613Y-64583000D01*
X67450000Y-64521000D01*
X67450000Y-64269000D01*
X67466613Y-64207000D01*
X67512000Y-64161613D01*
X67574000Y-64145000D01*
X68924999Y-64145000D01*
X68924999Y-64007521D01*
X68914506Y-63904804D01*
X68859357Y-63738377D01*
X68767316Y-63589154D01*
X68643344Y-63465182D01*
X68640343Y-63463331D01*
X68597161Y-63418223D01*
X68581440Y-63357789D01*
X68597166Y-63297356D01*
X68640347Y-63252252D01*
X68643656Y-63250212D01*
X68767712Y-63126156D01*
X68859814Y-62976834D01*
X68914999Y-62810297D01*
X68925500Y-62707509D01*
X68925499Y-61932492D01*
X68914999Y-61829703D01*
X68859814Y-61663166D01*
X68793874Y-61556259D01*
X68767711Y-61513842D01*
X68636819Y-61382950D01*
X68609939Y-61342722D01*
X68600500Y-61295269D01*
X68600500Y-61116102D01*
X68602027Y-61096703D01*
X68602229Y-61095429D01*
X68604219Y-61082864D01*
X68600670Y-61015140D01*
X68600500Y-61008651D01*
X68600500Y-60988280D01*
X68598371Y-60968028D01*
X68597862Y-60961574D01*
X68594313Y-60893831D01*
X68590681Y-60880279D01*
X68587139Y-60861166D01*
X68585674Y-60847220D01*
X68564714Y-60782713D01*
X68562871Y-60776491D01*
X68545320Y-60710988D01*
X68538955Y-60698496D01*
X68531512Y-60680529D01*
X68527179Y-60667192D01*
X68523860Y-60661444D01*
X68493264Y-60608450D01*
X68490166Y-60602744D01*
X68459383Y-60542327D01*
X68453695Y-60535303D01*
X68450559Y-60531430D01*
X68439541Y-60515398D01*
X68432533Y-60503260D01*
X68432532Y-60503259D01*
X68432531Y-60503257D01*
X68387145Y-60452851D01*
X68382928Y-60447913D01*
X68370120Y-60432096D01*
X68355715Y-60417691D01*
X68351247Y-60412983D01*
X68347702Y-60409046D01*
X68305871Y-60362588D01*
X68294526Y-60354345D01*
X68279736Y-60341712D01*
X67678843Y-59740820D01*
X67651963Y-59700592D01*
X67642524Y-59653139D01*
X67642524Y-59523515D01*
X67657011Y-59465352D01*
X67697087Y-59420780D01*
X67753388Y-59400213D01*
X67812758Y-59408457D01*
X67861323Y-59443584D01*
X67890882Y-59478642D01*
X68069892Y-59629570D01*
X68271834Y-59748074D01*
X68490898Y-59830745D01*
X68720783Y-59875205D01*
X68730350Y-59875713D01*
X68773393Y-59878000D01*
X68773402Y-59878000D01*
X70710646Y-59878000D01*
X70710655Y-59878000D01*
X70750110Y-59875903D01*
X70763265Y-59875205D01*
X70958223Y-59837500D01*
X77925000Y-59837500D01*
X78650000Y-59837500D01*
X78650000Y-59100001D01*
X78613353Y-59100001D01*
X78512349Y-59110318D01*
X78348698Y-59164546D01*
X78201959Y-59255056D01*
X78080056Y-59376959D01*
X77989546Y-59523698D01*
X77935318Y-59687348D01*
X77925000Y-59788353D01*
X77925000Y-59837500D01*
X70958223Y-59837500D01*
X70993150Y-59830745D01*
X71212214Y-59748074D01*
X71414156Y-59629570D01*
X71593166Y-59478642D01*
X71744094Y-59299632D01*
X71862598Y-59097690D01*
X71945269Y-58878626D01*
X71989729Y-58648741D01*
X71991764Y-58610428D01*
X71992524Y-58596131D01*
X71992524Y-56350000D01*
X79775000Y-56350000D01*
X80512500Y-56350000D01*
X80512500Y-55625001D01*
X80463353Y-55625001D01*
X80362349Y-55635318D01*
X80198698Y-55689546D01*
X80051959Y-55780056D01*
X79930056Y-55901959D01*
X79839546Y-56048698D01*
X79785318Y-56212348D01*
X79775000Y-56313353D01*
X79775000Y-56350000D01*
X71992524Y-56350000D01*
X71992524Y-54158869D01*
X71989729Y-54106261D01*
X71989729Y-54106259D01*
X71945269Y-53876374D01*
X71862598Y-53657310D01*
X71744094Y-53455368D01*
X71593166Y-53276358D01*
X71593164Y-53276356D01*
X71593163Y-53276355D01*
X71525493Y-53219301D01*
X71490364Y-53170734D01*
X71482120Y-53111364D01*
X71502687Y-53055063D01*
X71547259Y-53014987D01*
X71605422Y-53000500D01*
X107996755Y-53000500D01*
X108003243Y-53000669D01*
X108133379Y-53007490D01*
X108313908Y-53017628D01*
X108326309Y-53018955D01*
X108474990Y-53042504D01*
X108476245Y-53042709D01*
X108635324Y-53069738D01*
X108646606Y-53072202D01*
X108795635Y-53112134D01*
X108797761Y-53112725D01*
X108949174Y-53156347D01*
X108959260Y-53159729D01*
X109104710Y-53215562D01*
X109107599Y-53216714D01*
X109251768Y-53276430D01*
X109260589Y-53280497D01*
X109285929Y-53293409D01*
X109400064Y-53351565D01*
X109403748Y-53353521D01*
X109493848Y-53403316D01*
X109539548Y-53428574D01*
X109547061Y-53433081D01*
X109678754Y-53518604D01*
X109682947Y-53521452D01*
X109809147Y-53610996D01*
X109815426Y-53615757D01*
X109890539Y-53676583D01*
X109937567Y-53714665D01*
X109942154Y-53718567D01*
X109965723Y-53739630D01*
X110057424Y-53821579D01*
X110062478Y-53826358D01*
X110173640Y-53937520D01*
X110178419Y-53942574D01*
X110281427Y-54057840D01*
X110285333Y-54062431D01*
X110384239Y-54184570D01*
X110389002Y-54190851D01*
X110478546Y-54317051D01*
X110481409Y-54321266D01*
X110566907Y-54452921D01*
X110571430Y-54460460D01*
X110646477Y-54596250D01*
X110648433Y-54599934D01*
X110719498Y-54739404D01*
X110723575Y-54748247D01*
X110783259Y-54892337D01*
X110784462Y-54895353D01*
X110840265Y-55040727D01*
X110843655Y-55050836D01*
X110887258Y-55202185D01*
X110887879Y-55204419D01*
X110927791Y-55353370D01*
X110930264Y-55364694D01*
X110957282Y-55523715D01*
X110957507Y-55525087D01*
X110981040Y-55673666D01*
X110982372Y-55686111D01*
X110992498Y-55866421D01*
X110992523Y-55866884D01*
X110999330Y-55996757D01*
X110999500Y-56003247D01*
X110999500Y-76145846D01*
X110983246Y-76207220D01*
X110938745Y-76252505D01*
X110877663Y-76269827D01*
X110816015Y-76254646D01*
X110769961Y-76210942D01*
X110767316Y-76206654D01*
X110643345Y-76082683D01*
X110494122Y-75990642D01*
X110327696Y-75935493D01*
X110224979Y-75925000D01*
X109000000Y-75925000D01*
X109000000Y-78149999D01*
X110224979Y-78149999D01*
X110327695Y-78139506D01*
X110494122Y-78084357D01*
X110643345Y-77992316D01*
X110767316Y-77868345D01*
X110769961Y-77864058D01*
X110816015Y-77820354D01*
X110877663Y-77805173D01*
X110938745Y-77822495D01*
X110983246Y-77867780D01*
X110999500Y-77929154D01*
X110999500Y-81564303D01*
X110980801Y-81629784D01*
X110930343Y-81675515D01*
X110863345Y-81687706D01*
X110800013Y-81662678D01*
X110690749Y-81578836D01*
X110568838Y-81528339D01*
X110506830Y-81511724D01*
X110376001Y-81494500D01*
X110376000Y-81494500D01*
X101774500Y-81494500D01*
X101712500Y-81477887D01*
X101667113Y-81432500D01*
X101650500Y-81370500D01*
X101650500Y-81030626D01*
X101652027Y-81011227D01*
X101653884Y-80999500D01*
X101654219Y-80997388D01*
X101650670Y-80929664D01*
X101650500Y-80923175D01*
X101650500Y-80902804D01*
X101648371Y-80882552D01*
X101647862Y-80876098D01*
X101644313Y-80808355D01*
X101640681Y-80794803D01*
X101637139Y-80775690D01*
X101635674Y-80761744D01*
X101614704Y-80697207D01*
X101612871Y-80691016D01*
X101605364Y-80663000D01*
X101595320Y-80625513D01*
X101595320Y-80625512D01*
X101588958Y-80613026D01*
X101581511Y-80595049D01*
X101581016Y-80593528D01*
X101577179Y-80581716D01*
X101543272Y-80522987D01*
X101540174Y-80517282D01*
X101509381Y-80456847D01*
X101500559Y-80445953D01*
X101489539Y-80429919D01*
X101482533Y-80417784D01*
X101449553Y-80381156D01*
X101437145Y-80367375D01*
X101432928Y-80362437D01*
X101420120Y-80346620D01*
X101405715Y-80332215D01*
X101401247Y-80327507D01*
X101397702Y-80323570D01*
X101355871Y-80277112D01*
X101344526Y-80268869D01*
X101329736Y-80256236D01*
X100383439Y-79309939D01*
X99435179Y-78361679D01*
X99404930Y-78312318D01*
X99400388Y-78254602D01*
X99422543Y-78201115D01*
X99466566Y-78163515D01*
X99522861Y-78150000D01*
X100500000Y-78150000D01*
X100500000Y-77287500D01*
X101000000Y-77287500D01*
X101000000Y-78149999D01*
X102224979Y-78149999D01*
X102327695Y-78139506D01*
X102494122Y-78084357D01*
X102643341Y-77992318D01*
X102662317Y-77973343D01*
X102717906Y-77941248D01*
X102782094Y-77941248D01*
X102837683Y-77973343D01*
X102856658Y-77992318D01*
X103005877Y-78084357D01*
X103172303Y-78139506D01*
X103275021Y-78150000D01*
X104500000Y-78150000D01*
X104500000Y-77287500D01*
X105000000Y-77287500D01*
X105000000Y-78149999D01*
X106224979Y-78149999D01*
X106327695Y-78139506D01*
X106494122Y-78084357D01*
X106643341Y-77992318D01*
X106662317Y-77973343D01*
X106717906Y-77941248D01*
X106782094Y-77941248D01*
X106837683Y-77973343D01*
X106856658Y-77992318D01*
X107005877Y-78084357D01*
X107172303Y-78139506D01*
X107275021Y-78150000D01*
X108500000Y-78150000D01*
X108500000Y-77287500D01*
X105000000Y-77287500D01*
X104500000Y-77287500D01*
X101000000Y-77287500D01*
X100500000Y-77287500D01*
X98575000Y-77287500D01*
X98555680Y-77306820D01*
X98500093Y-77338913D01*
X98435906Y-77338913D01*
X98380319Y-77306819D01*
X97861000Y-76787500D01*
X98575000Y-76787500D01*
X100500000Y-76787500D01*
X100500000Y-75925001D01*
X99275021Y-75925001D01*
X99172304Y-75935493D01*
X99005877Y-75990642D01*
X98856654Y-76082683D01*
X98732683Y-76206654D01*
X98640642Y-76355877D01*
X98585493Y-76522303D01*
X98575000Y-76625021D01*
X98575000Y-76787500D01*
X97861000Y-76787500D01*
X97038704Y-75965205D01*
X97026065Y-75950407D01*
X97017828Y-75939069D01*
X97013856Y-75935493D01*
X97002203Y-75925000D01*
X101000000Y-75925000D01*
X101000000Y-76787500D01*
X104500000Y-76787500D01*
X104500000Y-75925001D01*
X103275021Y-75925001D01*
X103172304Y-75935493D01*
X103005877Y-75990642D01*
X102856654Y-76082683D01*
X102837681Y-76101657D01*
X102782094Y-76133751D01*
X102717906Y-76133751D01*
X102662319Y-76101657D01*
X102643345Y-76082683D01*
X102494122Y-75990642D01*
X102327696Y-75935493D01*
X102224979Y-75925000D01*
X105000000Y-75925000D01*
X105000000Y-76787500D01*
X108500000Y-76787500D01*
X108500000Y-75925001D01*
X107275021Y-75925001D01*
X107172304Y-75935493D01*
X107005877Y-75990642D01*
X106856654Y-76082683D01*
X106837681Y-76101657D01*
X106782094Y-76133751D01*
X106717906Y-76133751D01*
X106662319Y-76101657D01*
X106643345Y-76082683D01*
X106494122Y-75990642D01*
X106327696Y-75935493D01*
X106224979Y-75925000D01*
X105000000Y-75925000D01*
X102224979Y-75925000D01*
X101000000Y-75925000D01*
X97002203Y-75925000D01*
X96967422Y-75893683D01*
X96962713Y-75889214D01*
X96948322Y-75874823D01*
X96932496Y-75862006D01*
X96927566Y-75857795D01*
X96877155Y-75812406D01*
X96865016Y-75805398D01*
X96848983Y-75794379D01*
X96838089Y-75785557D01*
X96838087Y-75785556D01*
X96838086Y-75785555D01*
X96777653Y-75754763D01*
X96771948Y-75751665D01*
X96713223Y-75717760D01*
X96699893Y-75713429D01*
X96681914Y-75705982D01*
X96669427Y-75699619D01*
X96603916Y-75682065D01*
X96597694Y-75680222D01*
X96533194Y-75659265D01*
X96519255Y-75657800D01*
X96500127Y-75654255D01*
X96486585Y-75650626D01*
X96418849Y-75647076D01*
X96412385Y-75646567D01*
X96392138Y-75644440D01*
X96392132Y-75644440D01*
X96371766Y-75644440D01*
X96365277Y-75644270D01*
X96360315Y-75644009D01*
X96297552Y-75640721D01*
X96297551Y-75640721D01*
X96290016Y-75641914D01*
X96283711Y-75642913D01*
X96264314Y-75644440D01*
X94862220Y-75644440D01*
X94823216Y-75638146D01*
X94647038Y-75579765D01*
X94555329Y-75570397D01*
X94545961Y-75569440D01*
X93947608Y-75569440D01*
X93846532Y-75579765D01*
X93682769Y-75634031D01*
X93535932Y-75724601D01*
X93421966Y-75838568D01*
X93366379Y-75870662D01*
X93302191Y-75870662D01*
X93246604Y-75838568D01*
X93132637Y-75724601D01*
X92985800Y-75634031D01*
X92822038Y-75579765D01*
X92730329Y-75570397D01*
X92720961Y-75569440D01*
X92122608Y-75569440D01*
X92021532Y-75579765D01*
X91857769Y-75634031D01*
X91710932Y-75724601D01*
X91588946Y-75846587D01*
X91498376Y-75993424D01*
X91444110Y-76157186D01*
X91436828Y-76228470D01*
X91418641Y-76281556D01*
X91378916Y-76321190D01*
X91325788Y-76339254D01*
X91270137Y-76332049D01*
X91173080Y-76295849D01*
X91153207Y-76293712D01*
X91113468Y-76289440D01*
X91113464Y-76289440D01*
X89967725Y-76289440D01*
X89908109Y-76295849D01*
X89904239Y-76297293D01*
X89853902Y-76304911D01*
X89804746Y-76291660D01*
X89765058Y-76259774D01*
X89721123Y-76206239D01*
X89721120Y-76206235D01*
X87691195Y-74176310D01*
X87657730Y-74115078D01*
X87662629Y-74045470D01*
X87704342Y-73989530D01*
X87769658Y-73964972D01*
X87837894Y-73979574D01*
X87895396Y-74010692D01*
X88130506Y-74091406D01*
X88375707Y-74132323D01*
X88624293Y-74132323D01*
X88869493Y-74091406D01*
X89104606Y-74010691D01*
X89323233Y-73892376D01*
X89370056Y-73855932D01*
X88500000Y-72985876D01*
X88146448Y-72632324D01*
X88853553Y-72632324D01*
X89723434Y-73502205D01*
X89746449Y-73466978D01*
X102877665Y-73466978D01*
X102897060Y-73738140D01*
X102954844Y-74003775D01*
X102954846Y-74003780D01*
X103049849Y-74258492D01*
X103049851Y-74258496D01*
X103049852Y-74258498D01*
X103180130Y-74497087D01*
X103225276Y-74557394D01*
X103343050Y-74714721D01*
X103535279Y-74906950D01*
X103609457Y-74962479D01*
X103752912Y-75069869D01*
X103940442Y-75172267D01*
X103991508Y-75200151D01*
X104246220Y-75295154D01*
X104246223Y-75295154D01*
X104246224Y-75295155D01*
X104295873Y-75305955D01*
X104511861Y-75352940D01*
X104783021Y-75372334D01*
X105054181Y-75352940D01*
X105319822Y-75295154D01*
X105574534Y-75200151D01*
X105813134Y-75069866D01*
X106030763Y-74906950D01*
X106222992Y-74714721D01*
X106385908Y-74497092D01*
X106516193Y-74258492D01*
X106611196Y-74003780D01*
X106668982Y-73738139D01*
X106688376Y-73466979D01*
X106668982Y-73195819D01*
X106611196Y-72930178D01*
X106516193Y-72675466D01*
X106475111Y-72600229D01*
X106385911Y-72436870D01*
X106267558Y-72278770D01*
X106222992Y-72219237D01*
X106030763Y-72027008D01*
X105813134Y-71864092D01*
X105813135Y-71864092D01*
X105813129Y-71864088D01*
X105574540Y-71733810D01*
X105574538Y-71733809D01*
X105574534Y-71733807D01*
X105319822Y-71638804D01*
X105319817Y-71638802D01*
X105054182Y-71581018D01*
X104783021Y-71561623D01*
X104511859Y-71581018D01*
X104246224Y-71638802D01*
X104101977Y-71692603D01*
X103991508Y-71733807D01*
X103991505Y-71733808D01*
X103991501Y-71733810D01*
X103752912Y-71864088D01*
X103535276Y-72027010D01*
X103343052Y-72219234D01*
X103180130Y-72436870D01*
X103049852Y-72675459D01*
X102954844Y-72930182D01*
X102897060Y-73195817D01*
X102877665Y-73466978D01*
X89746449Y-73466978D01*
X89823730Y-73348692D01*
X89923586Y-73121044D01*
X89984613Y-72880055D01*
X90005141Y-72632322D01*
X89984613Y-72384590D01*
X89923586Y-72143601D01*
X89823730Y-71915953D01*
X89723434Y-71762439D01*
X88853553Y-72632323D01*
X88853553Y-72632324D01*
X88146448Y-72632324D01*
X87276564Y-71762439D01*
X87176266Y-71915957D01*
X87076413Y-72143601D01*
X87015386Y-72384590D01*
X86994858Y-72632322D01*
X87015386Y-72880055D01*
X87076413Y-73121044D01*
X87160196Y-73312051D01*
X87169735Y-73376817D01*
X87144964Y-73437415D01*
X87092788Y-73476954D01*
X87027749Y-73484414D01*
X86967976Y-73457715D01*
X86917164Y-73416015D01*
X86915925Y-73415187D01*
X86876935Y-73389134D01*
X86840918Y-73369882D01*
X86789537Y-73342417D01*
X86694710Y-73313651D01*
X86647259Y-73304213D01*
X86548638Y-73294500D01*
X82764666Y-73294500D01*
X82691907Y-73304213D01*
X82632060Y-73312202D01*
X82569285Y-73329267D01*
X82538017Y-73342419D01*
X82456237Y-73376817D01*
X82445959Y-73381140D01*
X82405050Y-73413126D01*
X82369064Y-73432677D01*
X82328673Y-73439440D01*
X82229301Y-73439440D01*
X82211331Y-73438131D01*
X82187569Y-73434650D01*
X82163602Y-73436747D01*
X82104345Y-73427361D01*
X82056431Y-73391253D01*
X82031076Y-73336878D01*
X82034216Y-73276964D01*
X82065115Y-73225540D01*
X83881942Y-71408713D01*
X87629942Y-71408713D01*
X88500000Y-72278770D01*
X88500001Y-72278770D01*
X89370057Y-71408713D01*
X89370056Y-71408711D01*
X89323235Y-71372270D01*
X89104606Y-71253954D01*
X88869493Y-71173239D01*
X88624293Y-71132323D01*
X88375707Y-71132323D01*
X88130506Y-71173239D01*
X87895393Y-71253954D01*
X87676764Y-71372269D01*
X87629942Y-71408711D01*
X87629942Y-71408713D01*
X83881942Y-71408713D01*
X84445231Y-70845424D01*
X84450650Y-70840323D01*
X84495683Y-70800429D01*
X84529851Y-70750926D01*
X84534263Y-70744928D01*
X84571378Y-70697557D01*
X84575534Y-70688320D01*
X84586562Y-70668767D01*
X84592318Y-70660430D01*
X84613653Y-70604171D01*
X84616497Y-70597303D01*
X84641194Y-70542432D01*
X84643019Y-70532470D01*
X84649045Y-70510848D01*
X84652640Y-70501372D01*
X84659889Y-70441665D01*
X84661016Y-70434262D01*
X84671857Y-70375106D01*
X84668226Y-70315077D01*
X84668000Y-70307590D01*
X84668000Y-69879647D01*
X84684613Y-69817647D01*
X84730000Y-69772260D01*
X84792000Y-69755647D01*
X85339388Y-69755647D01*
X85339389Y-69755647D01*
X85481845Y-69735165D01*
X85619800Y-69694658D01*
X85750716Y-69634871D01*
X85871670Y-69557139D01*
X85929427Y-69513903D01*
X85980443Y-69462887D01*
X86074597Y-69354226D01*
X86152404Y-69233155D01*
X86212132Y-69102370D01*
X86237344Y-69034773D01*
X86252680Y-68964277D01*
X86273142Y-68821962D01*
X86278289Y-68750000D01*
X86273462Y-68682525D01*
X86273147Y-68673680D01*
X86273147Y-68326320D01*
X86273463Y-68317473D01*
X86278289Y-68249999D01*
X86273142Y-68178039D01*
X86260170Y-68087821D01*
X86252680Y-68035723D01*
X86237344Y-67965227D01*
X86212132Y-67897630D01*
X86152404Y-67766845D01*
X86074597Y-67645774D01*
X86074594Y-67645770D01*
X86072684Y-67642798D01*
X86053000Y-67575759D01*
X86053000Y-67460200D01*
X86066076Y-67404775D01*
X86102548Y-67361039D01*
X86154722Y-67338218D01*
X86211595Y-67341124D01*
X86319927Y-67372597D01*
X86319931Y-67372598D01*
X86356806Y-67375500D01*
X86788192Y-67375500D01*
X86788194Y-67375500D01*
X86825069Y-67372598D01*
X86840906Y-67367996D01*
X86897776Y-67365090D01*
X86949951Y-67387911D01*
X86986423Y-67431647D01*
X86999500Y-67487073D01*
X86999500Y-68680192D01*
X87005909Y-68739807D01*
X87015493Y-68765502D01*
X87056204Y-68874654D01*
X87142454Y-68989869D01*
X87257669Y-69076119D01*
X87392517Y-69126414D01*
X87452127Y-69132823D01*
X89547872Y-69132822D01*
X89607483Y-69126414D01*
X89742331Y-69076119D01*
X89857546Y-68989869D01*
X89943796Y-68874654D01*
X89994091Y-68739806D01*
X90000500Y-68680196D01*
X90000499Y-66584451D01*
X89994091Y-66524840D01*
X89943796Y-66389992D01*
X89857546Y-66274777D01*
X89742331Y-66188527D01*
X89607483Y-66138232D01*
X89547873Y-66131823D01*
X89547869Y-66131823D01*
X89547686Y-66131823D01*
X87496999Y-66131823D01*
X87435000Y-66115211D01*
X87389613Y-66069824D01*
X87373000Y-66007824D01*
X87373000Y-65009308D01*
X87371538Y-64990730D01*
X87370098Y-64972431D01*
X87324244Y-64814602D01*
X87324243Y-64814600D01*
X87322644Y-64809096D01*
X87319738Y-64752223D01*
X87342559Y-64700048D01*
X87386294Y-64663577D01*
X87441720Y-64650500D01*
X89498794Y-64650500D01*
X89516764Y-64651809D01*
X89520820Y-64652402D01*
X89540523Y-64655289D01*
X89589868Y-64650972D01*
X89600676Y-64650500D01*
X89606206Y-64650500D01*
X89606209Y-64650500D01*
X89637063Y-64646893D01*
X89640525Y-64646539D01*
X89664206Y-64644468D01*
X89667957Y-64644140D01*
X89707860Y-64647131D01*
X89744732Y-64662674D01*
X89848893Y-64728122D01*
X90013843Y-64785841D01*
X90143944Y-64800500D01*
X90143948Y-64800500D01*
X90781052Y-64800500D01*
X90781056Y-64800500D01*
X90885135Y-64788772D01*
X90911157Y-64785841D01*
X91076106Y-64728122D01*
X91224076Y-64635147D01*
X91347647Y-64511576D01*
X91440622Y-64363606D01*
X91498341Y-64198657D01*
X91504387Y-64145000D01*
X91513000Y-64068556D01*
X91513000Y-62731444D01*
X91501870Y-62632662D01*
X91498341Y-62601343D01*
X91489458Y-62575959D01*
X91482500Y-62535005D01*
X91482500Y-61580000D01*
X91982500Y-61580000D01*
X91982500Y-62730000D01*
X92330324Y-62730000D01*
X92389875Y-62723597D01*
X92524589Y-62673352D01*
X92639688Y-62587188D01*
X92725852Y-62472089D01*
X92776097Y-62337375D01*
X92782500Y-62277824D01*
X92782500Y-61580000D01*
X91982500Y-61580000D01*
X91482500Y-61580000D01*
X90682500Y-61580000D01*
X90682500Y-61875500D01*
X90665887Y-61937500D01*
X90620500Y-61982887D01*
X90558500Y-61999500D01*
X90367000Y-61999500D01*
X90305000Y-61982887D01*
X90259613Y-61937500D01*
X90243000Y-61875500D01*
X90243000Y-61080000D01*
X90682500Y-61080000D01*
X91482500Y-61080000D01*
X91482500Y-59930000D01*
X91982500Y-59930000D01*
X91982500Y-61080000D01*
X92782500Y-61080000D01*
X92782500Y-60382176D01*
X92776097Y-60322624D01*
X92725852Y-60187910D01*
X92639688Y-60072811D01*
X92632946Y-60067764D01*
X103145787Y-60067764D01*
X103175413Y-60337016D01*
X103205697Y-60452851D01*
X103243928Y-60599088D01*
X103349372Y-60847218D01*
X103349871Y-60848392D01*
X103490982Y-61079611D01*
X103653579Y-61274992D01*
X103664255Y-61287820D01*
X103865998Y-61468582D01*
X104091910Y-61618044D01*
X104188162Y-61663165D01*
X104337177Y-61733021D01*
X104577244Y-61805246D01*
X104596569Y-61811060D01*
X104864561Y-61850500D01*
X105067631Y-61850500D01*
X105067634Y-61850500D01*
X105270156Y-61835677D01*
X105296974Y-61829703D01*
X105534553Y-61776780D01*
X105787558Y-61680014D01*
X106023777Y-61547441D01*
X106238177Y-61381888D01*
X106426186Y-61186881D01*
X106583799Y-60966579D01*
X106707656Y-60725675D01*
X106795118Y-60469305D01*
X106844319Y-60202933D01*
X106854212Y-59932235D01*
X106824586Y-59662982D01*
X106756072Y-59400912D01*
X106650130Y-59151610D01*
X106509018Y-58920390D01*
X106509017Y-58920388D01*
X106335746Y-58712181D01*
X106230758Y-58618112D01*
X106134002Y-58531418D01*
X105908090Y-58381956D01*
X105908086Y-58381954D01*
X105662822Y-58266978D01*
X105403437Y-58188941D01*
X105403431Y-58188940D01*
X105135439Y-58149500D01*
X104932369Y-58149500D01*
X104932366Y-58149500D01*
X104729843Y-58164322D01*
X104465449Y-58223219D01*
X104212441Y-58319986D01*
X103976223Y-58452559D01*
X103761825Y-58618109D01*
X103573813Y-58813120D01*
X103416201Y-59033420D01*
X103292342Y-59274329D01*
X103204881Y-59530695D01*
X103155680Y-59797066D01*
X103145787Y-60067764D01*
X92632946Y-60067764D01*
X92524589Y-59986647D01*
X92389875Y-59936402D01*
X92330324Y-59930000D01*
X91982500Y-59930000D01*
X91482500Y-59930000D01*
X91134676Y-59930000D01*
X91075124Y-59936402D01*
X90940410Y-59986647D01*
X90825311Y-60072811D01*
X90739147Y-60187910D01*
X90688902Y-60322624D01*
X90682500Y-60382176D01*
X90682500Y-61080000D01*
X90243000Y-61080000D01*
X90243000Y-60661444D01*
X90228341Y-60531343D01*
X90199959Y-60450233D01*
X90193000Y-60409278D01*
X90193000Y-59351621D01*
X90207571Y-59293300D01*
X90247860Y-59248685D01*
X90304399Y-59228263D01*
X90360001Y-59222583D01*
X90385297Y-59219999D01*
X90551834Y-59164814D01*
X90701156Y-59072712D01*
X90825212Y-58948656D01*
X90917314Y-58799334D01*
X90972499Y-58632797D01*
X90983000Y-58530009D01*
X90982999Y-57129992D01*
X90972499Y-57027203D01*
X90917314Y-56860666D01*
X90825212Y-56711344D01*
X90825211Y-56711342D01*
X90701157Y-56587288D01*
X90551834Y-56495186D01*
X90385296Y-56440000D01*
X90304398Y-56431736D01*
X90247860Y-56411313D01*
X90207571Y-56366699D01*
X90193000Y-56308378D01*
X90193000Y-55798943D01*
X90207011Y-55741686D01*
X90245874Y-55697370D01*
X90276401Y-55675995D01*
X90398329Y-55554066D01*
X90451072Y-55522773D01*
X90512365Y-55520584D01*
X90567209Y-55548037D01*
X90602189Y-55598416D01*
X90612105Y-55625001D01*
X90651204Y-55729831D01*
X90737454Y-55845046D01*
X90852669Y-55931296D01*
X90987517Y-55981591D01*
X91047127Y-55988000D01*
X91829217Y-55987999D01*
X91876670Y-55997438D01*
X91916898Y-56024318D01*
X92127489Y-56234909D01*
X92159103Y-56288758D01*
X92160466Y-56351186D01*
X92131231Y-56406363D01*
X92078812Y-56440296D01*
X91913165Y-56495186D01*
X91763842Y-56587288D01*
X91639788Y-56711342D01*
X91547686Y-56860665D01*
X91492500Y-57027202D01*
X91482000Y-57129990D01*
X91482000Y-58530008D01*
X91492500Y-58632796D01*
X91547686Y-58799334D01*
X91639788Y-58948657D01*
X91763842Y-59072711D01*
X91763844Y-59072712D01*
X91913166Y-59164814D01*
X92018855Y-59199836D01*
X92079702Y-59219999D01*
X92090202Y-59221071D01*
X92182491Y-59230500D01*
X94282508Y-59230499D01*
X94385297Y-59219999D01*
X94551834Y-59164814D01*
X94701156Y-59072712D01*
X94825212Y-58948656D01*
X94917314Y-58799334D01*
X94972499Y-58632797D01*
X94983000Y-58530009D01*
X94982999Y-57129992D01*
X94972499Y-57027203D01*
X94917314Y-56860666D01*
X94825212Y-56711344D01*
X94825211Y-56711342D01*
X94701157Y-56587288D01*
X94551834Y-56495186D01*
X94385297Y-56440000D01*
X94351510Y-56436549D01*
X94344398Y-56435822D01*
X94287861Y-56415401D01*
X94247571Y-56370786D01*
X94233000Y-56312465D01*
X94233000Y-55939279D01*
X94233040Y-55936137D01*
X94235257Y-55848638D01*
X94227110Y-55803186D01*
X94224849Y-55790573D01*
X94223541Y-55781242D01*
X94219532Y-55741820D01*
X94217574Y-55722562D01*
X94208462Y-55693520D01*
X94204726Y-55678297D01*
X94199358Y-55648347D01*
X94177476Y-55593566D01*
X94174316Y-55584689D01*
X94156659Y-55528412D01*
X94141895Y-55501812D01*
X94135160Y-55487631D01*
X94133850Y-55484351D01*
X94123877Y-55459383D01*
X94091417Y-55410131D01*
X94086536Y-55402074D01*
X94073562Y-55378700D01*
X94057909Y-55350498D01*
X94038082Y-55327403D01*
X94028646Y-55314888D01*
X94011902Y-55289481D01*
X94011900Y-55289479D01*
X94011899Y-55289477D01*
X93970193Y-55247772D01*
X93963787Y-55240860D01*
X93925364Y-55196102D01*
X93901304Y-55177478D01*
X93889526Y-55167105D01*
X93331818Y-54609397D01*
X93304938Y-54569169D01*
X93295499Y-54521716D01*
X93295499Y-53739630D01*
X93293231Y-53718532D01*
X93289091Y-53680017D01*
X93238796Y-53545169D01*
X93152546Y-53429954D01*
X93037331Y-53343704D01*
X92902483Y-53293409D01*
X92842873Y-53287000D01*
X92842869Y-53287000D01*
X91047130Y-53287000D01*
X90987515Y-53293409D01*
X90852669Y-53343704D01*
X90737454Y-53429954D01*
X90651204Y-53545169D01*
X90602189Y-53676583D01*
X90567209Y-53726962D01*
X90512365Y-53754415D01*
X90451072Y-53752226D01*
X90398326Y-53720930D01*
X90276404Y-53599008D01*
X90276404Y-53599007D01*
X90276401Y-53599005D01*
X90082830Y-53463465D01*
X89868663Y-53363597D01*
X89807501Y-53347209D01*
X89640407Y-53302436D01*
X89405000Y-53281840D01*
X89169592Y-53302436D01*
X88941336Y-53363597D01*
X88727170Y-53463465D01*
X88533598Y-53599005D01*
X88366505Y-53766098D01*
X88236575Y-53951659D01*
X88192257Y-53990525D01*
X88135000Y-54004536D01*
X88077743Y-53990525D01*
X88033425Y-53951659D01*
X87980038Y-53875414D01*
X87903495Y-53766099D01*
X87736401Y-53599005D01*
X87542830Y-53463465D01*
X87328663Y-53363597D01*
X87267501Y-53347209D01*
X87100407Y-53302436D01*
X86865000Y-53281840D01*
X86629592Y-53302436D01*
X86401336Y-53363597D01*
X86187170Y-53463465D01*
X85993598Y-53599005D01*
X85826505Y-53766098D01*
X85696575Y-53951659D01*
X85652257Y-53990525D01*
X85595000Y-54004536D01*
X85537743Y-53990525D01*
X85493425Y-53951659D01*
X85440038Y-53875414D01*
X85363495Y-53766099D01*
X85196401Y-53599005D01*
X85002830Y-53463465D01*
X84788663Y-53363597D01*
X84727501Y-53347209D01*
X84560407Y-53302436D01*
X84325000Y-53281840D01*
X84089592Y-53302436D01*
X83861336Y-53363597D01*
X83647170Y-53463465D01*
X83453598Y-53599005D01*
X83286505Y-53766098D01*
X83150965Y-53959670D01*
X83051097Y-54173836D01*
X82989936Y-54402092D01*
X82969340Y-54637500D01*
X82989936Y-54872907D01*
X83034709Y-55040001D01*
X83051097Y-55101163D01*
X83119462Y-55247772D01*
X83150965Y-55315330D01*
X83276940Y-55495241D01*
X83298608Y-55552685D01*
X83290063Y-55613484D01*
X83253400Y-55662730D01*
X83197607Y-55688353D01*
X83136361Y-55684070D01*
X82987753Y-55634825D01*
X82891571Y-55625000D01*
X82886676Y-55624500D01*
X82288323Y-55624500D01*
X82187247Y-55634825D01*
X82023484Y-55689091D01*
X81876649Y-55779660D01*
X81762327Y-55893982D01*
X81706739Y-55926075D01*
X81642552Y-55926075D01*
X81586965Y-55893981D01*
X81473040Y-55780056D01*
X81326301Y-55689546D01*
X81162651Y-55635318D01*
X81061647Y-55625000D01*
X81012500Y-55625000D01*
X81012500Y-56726000D01*
X80995887Y-56788000D01*
X80950500Y-56833387D01*
X80888500Y-56850000D01*
X79775001Y-56850000D01*
X79775001Y-56886647D01*
X79785318Y-56987650D01*
X79839546Y-57151301D01*
X79908232Y-57262658D01*
X79926641Y-57324149D01*
X79911838Y-57386606D01*
X79867790Y-57433293D01*
X79706655Y-57532682D01*
X79582683Y-57656654D01*
X79490642Y-57805877D01*
X79435493Y-57972303D01*
X79425000Y-58075021D01*
X79425000Y-58350000D01*
X80638500Y-58350000D01*
X80700500Y-58366613D01*
X80745887Y-58412000D01*
X80762500Y-58474000D01*
X80762500Y-58726000D01*
X80745887Y-58788000D01*
X80700500Y-58833387D01*
X80638500Y-58850000D01*
X79425001Y-58850000D01*
X79425001Y-58987037D01*
X79406223Y-59052645D01*
X79355575Y-59098382D01*
X79288399Y-59110395D01*
X79186647Y-59100000D01*
X79150000Y-59100000D01*
X79150000Y-60213500D01*
X79133387Y-60275500D01*
X79088000Y-60320887D01*
X79026000Y-60337500D01*
X77925001Y-60337500D01*
X77925001Y-60386647D01*
X77935318Y-60487650D01*
X77989546Y-60651301D01*
X78080056Y-60798040D01*
X78193981Y-60911965D01*
X78226075Y-60967552D01*
X78226075Y-61031739D01*
X78193982Y-61087327D01*
X78079658Y-61201651D01*
X78046524Y-61255370D01*
X78002672Y-61297840D01*
X77943869Y-61314238D01*
X77884368Y-61300591D01*
X77838589Y-61260206D01*
X77817628Y-61202871D01*
X77814506Y-61172304D01*
X77759357Y-61005877D01*
X77667316Y-60856654D01*
X77543345Y-60732683D01*
X77394122Y-60640642D01*
X77227696Y-60585493D01*
X77124979Y-60575000D01*
X76987500Y-60575000D01*
X76987500Y-62941000D01*
X76970887Y-63003000D01*
X76925500Y-63048387D01*
X76863500Y-63065000D01*
X76787500Y-63065000D01*
X76787500Y-63400000D01*
X77751138Y-63400000D01*
X77798591Y-63409439D01*
X77803172Y-63412500D01*
X78826000Y-63412500D01*
X78888000Y-63429113D01*
X78933387Y-63474500D01*
X78950000Y-63536500D01*
X78950000Y-63788500D01*
X78933387Y-63850500D01*
X78888000Y-63895887D01*
X78826000Y-63912500D01*
X77498862Y-63912500D01*
X77451409Y-63903061D01*
X77446828Y-63900000D01*
X76787500Y-63900000D01*
X76787500Y-64450000D01*
X77161001Y-64450000D01*
X77225236Y-64467935D01*
X77270890Y-64516551D01*
X77284756Y-64581786D01*
X77262824Y-64644768D01*
X77211436Y-64687280D01*
X77147269Y-64715848D01*
X77133550Y-64725817D01*
X77098982Y-64743431D01*
X77060663Y-64749500D01*
X76024500Y-64749500D01*
X75962500Y-64732887D01*
X75917113Y-64687500D01*
X75900500Y-64625500D01*
X75900500Y-64574000D01*
X75917113Y-64512000D01*
X75962500Y-64466613D01*
X76024500Y-64450000D01*
X76287500Y-64450000D01*
X76287500Y-62934000D01*
X76304113Y-62872000D01*
X76349500Y-62826613D01*
X76411500Y-62810000D01*
X76487500Y-62810000D01*
X76487500Y-60575001D01*
X76350021Y-60575001D01*
X76247304Y-60585493D01*
X76080877Y-60640642D01*
X75931654Y-60732683D01*
X75807683Y-60856654D01*
X75805830Y-60859659D01*
X75760721Y-60902838D01*
X75700289Y-60918559D01*
X75639857Y-60902834D01*
X75594752Y-60859652D01*
X75592903Y-60856654D01*
X75592712Y-60856344D01*
X75592710Y-60856342D01*
X75592709Y-60856340D01*
X75468657Y-60732288D01*
X75319334Y-60640186D01*
X75152797Y-60585000D01*
X75050009Y-60574500D01*
X74274991Y-60574500D01*
X74172203Y-60585000D01*
X74005665Y-60640186D01*
X73856342Y-60732288D01*
X73732288Y-60856342D01*
X73640186Y-61005665D01*
X73585000Y-61172202D01*
X73574500Y-61274991D01*
X73574500Y-61421717D01*
X73565061Y-61469170D01*
X73538183Y-61509395D01*
X73457562Y-61590017D01*
X73390146Y-61657433D01*
X73387899Y-61659623D01*
X73324448Y-61719939D01*
X73290744Y-61768362D01*
X73285073Y-61775882D01*
X73247801Y-61821593D01*
X73233710Y-61848566D01*
X73225582Y-61861983D01*
X73208205Y-61886950D01*
X73184939Y-61941165D01*
X73180899Y-61949671D01*
X73153590Y-62001952D01*
X73145220Y-62031201D01*
X73139959Y-62045978D01*
X73127960Y-62073942D01*
X73116087Y-62131713D01*
X73113842Y-62140860D01*
X73097613Y-62197580D01*
X73096164Y-62216597D01*
X73095460Y-62225856D01*
X73095302Y-62227925D01*
X73093122Y-62243466D01*
X73087000Y-62273259D01*
X73087000Y-62332242D01*
X73086641Y-62341656D01*
X73082377Y-62397673D01*
X73082163Y-62400477D01*
X73086006Y-62430651D01*
X73087000Y-62446317D01*
X73087000Y-66971317D01*
X73086358Y-66983919D01*
X73074500Y-67099990D01*
X73074500Y-68100008D01*
X73085000Y-68202796D01*
X73140186Y-68369334D01*
X73232288Y-68518657D01*
X73356342Y-68642711D01*
X73379726Y-68657134D01*
X73505666Y-68734814D01*
X73598276Y-68765502D01*
X73672202Y-68789999D01*
X73681729Y-68790972D01*
X73774991Y-68800500D01*
X74400008Y-68800499D01*
X74502797Y-68789999D01*
X74669334Y-68734814D01*
X74818656Y-68642712D01*
X74912320Y-68549047D01*
X74967906Y-68516955D01*
X75032094Y-68516955D01*
X75087679Y-68549047D01*
X75146115Y-68607483D01*
X75181345Y-68642713D01*
X75245895Y-68682527D01*
X75330666Y-68734814D01*
X75423276Y-68765502D01*
X75497202Y-68789999D01*
X75506729Y-68790972D01*
X75599991Y-68800500D01*
X76225008Y-68800499D01*
X76327797Y-68789999D01*
X76389553Y-68769534D01*
X76452129Y-68765502D01*
X76508679Y-68792604D01*
X76544735Y-68843906D01*
X76556204Y-68874654D01*
X76642454Y-68989869D01*
X76757669Y-69076119D01*
X76892517Y-69126414D01*
X76952127Y-69132823D01*
X78458480Y-69132822D01*
X78505933Y-69142261D01*
X78546161Y-69169141D01*
X79163181Y-69786161D01*
X79190061Y-69826389D01*
X79199500Y-69873842D01*
X79199500Y-71411483D01*
X79180688Y-71477145D01*
X79129960Y-71522883D01*
X79062708Y-71534821D01*
X78999338Y-71509336D01*
X78823237Y-71372271D01*
X78604606Y-71253954D01*
X78369493Y-71173239D01*
X78124293Y-71132323D01*
X77875707Y-71132323D01*
X77630506Y-71173239D01*
X77395393Y-71253954D01*
X77176764Y-71372269D01*
X77129942Y-71408711D01*
X77129942Y-71408713D01*
X78265871Y-72544642D01*
X78297965Y-72600229D01*
X78297965Y-72664417D01*
X78265871Y-72720004D01*
X78087681Y-72898194D01*
X78032094Y-72930288D01*
X77967906Y-72930288D01*
X77912319Y-72898194D01*
X76776564Y-71762439D01*
X76676266Y-71915957D01*
X76576413Y-72143601D01*
X76515386Y-72384590D01*
X76494858Y-72632322D01*
X76515386Y-72880055D01*
X76576413Y-73121044D01*
X76676267Y-73348689D01*
X76685423Y-73362704D01*
X76704661Y-73415187D01*
X76698894Y-73470787D01*
X76669295Y-73518204D01*
X76650000Y-73537499D01*
X76650000Y-75662499D01*
X77524979Y-75662499D01*
X77627695Y-75652006D01*
X77636496Y-75649090D01*
X77694363Y-75644239D01*
X77748093Y-75666266D01*
X77785903Y-75710340D01*
X77799500Y-75766796D01*
X77799500Y-76357677D01*
X77785903Y-76414132D01*
X77748094Y-76458206D01*
X77694364Y-76480234D01*
X77636497Y-76475383D01*
X77627799Y-76472500D01*
X77525009Y-76462000D01*
X75274991Y-76462000D01*
X75172203Y-76472500D01*
X75005665Y-76527686D01*
X74856344Y-76619787D01*
X74750704Y-76725427D01*
X74703734Y-76754872D01*
X74648627Y-76760906D01*
X74596397Y-76742325D01*
X74557484Y-76702841D01*
X74467316Y-76556654D01*
X74343345Y-76432683D01*
X74194122Y-76340642D01*
X74027696Y-76285493D01*
X73924979Y-76275000D01*
X73050000Y-76275000D01*
X73050000Y-78399999D01*
X73924979Y-78399999D01*
X74027695Y-78389506D01*
X74194122Y-78334357D01*
X74343342Y-78242318D01*
X74448661Y-78136999D01*
X74495631Y-78107554D01*
X74550739Y-78101518D01*
X74602969Y-78120100D01*
X74641882Y-78159584D01*
X74732288Y-78306156D01*
X74763180Y-78337048D01*
X74790061Y-78377277D01*
X74799500Y-78424730D01*
X74799500Y-78700270D01*
X74790061Y-78747723D01*
X74763180Y-78787952D01*
X74732288Y-78818843D01*
X74640186Y-78968165D01*
X74585000Y-79134702D01*
X74574500Y-79237491D01*
X74574500Y-79288769D01*
X74560985Y-79345064D01*
X74523385Y-79389087D01*
X74469898Y-79411242D01*
X74412182Y-79406700D01*
X74362819Y-79376450D01*
X74343657Y-79357288D01*
X74194334Y-79265186D01*
X74027797Y-79210000D01*
X73925009Y-79199500D01*
X71674991Y-79199500D01*
X71572203Y-79210000D01*
X71405665Y-79265186D01*
X71256342Y-79357288D01*
X71132288Y-79481342D01*
X71040186Y-79630665D01*
X70985000Y-79797202D01*
X70974500Y-79899990D01*
X70974500Y-80625008D01*
X70985000Y-80727794D01*
X70985001Y-80727797D01*
X71021021Y-80836498D01*
X71025872Y-80894363D01*
X71003845Y-80948093D01*
X70959771Y-80985903D01*
X70903315Y-80999500D01*
X60645890Y-80999500D01*
X60598437Y-80990061D01*
X60558209Y-80963181D01*
X59057771Y-79462743D01*
X59054222Y-79459045D01*
X58992743Y-79392261D01*
X58974211Y-79377837D01*
X58962693Y-79367665D01*
X57182528Y-77587500D01*
X70975001Y-77587500D01*
X70975001Y-77699979D01*
X70985493Y-77802695D01*
X71040642Y-77969122D01*
X71132683Y-78118345D01*
X71256654Y-78242316D01*
X71405877Y-78334357D01*
X71572303Y-78389506D01*
X71675021Y-78400000D01*
X72550000Y-78400000D01*
X72550000Y-77587500D01*
X70975001Y-77587500D01*
X57182528Y-77587500D01*
X56682528Y-77087500D01*
X70975000Y-77087500D01*
X72550000Y-77087500D01*
X72550000Y-76275001D01*
X71675021Y-76275001D01*
X71572304Y-76285493D01*
X71405877Y-76340642D01*
X71256654Y-76432683D01*
X71132683Y-76556654D01*
X71040642Y-76705877D01*
X70985493Y-76872303D01*
X70975000Y-76975021D01*
X70975000Y-77087500D01*
X56682528Y-77087500D01*
X56605335Y-77010307D01*
X56595162Y-76998787D01*
X56580740Y-76980258D01*
X56513953Y-76918776D01*
X56510255Y-76915227D01*
X56490123Y-76895095D01*
X56468388Y-76876686D01*
X56464547Y-76873294D01*
X56397787Y-76811837D01*
X56378125Y-76798991D01*
X56365811Y-76789808D01*
X56347894Y-76774634D01*
X56269890Y-76728153D01*
X56265609Y-76725481D01*
X56196079Y-76680055D01*
X56189603Y-76675824D01*
X56168107Y-76666395D01*
X56154448Y-76659364D01*
X56134275Y-76647344D01*
X56124706Y-76643610D01*
X57102942Y-76643610D01*
X57149766Y-76680055D01*
X57368393Y-76798368D01*
X57603506Y-76879083D01*
X57848707Y-76920000D01*
X58097293Y-76920000D01*
X58342493Y-76879083D01*
X58577606Y-76798368D01*
X58796233Y-76680053D01*
X58843056Y-76643609D01*
X57973000Y-75773553D01*
X57102942Y-76643609D01*
X57102942Y-76643610D01*
X56124706Y-76643610D01*
X56081953Y-76626928D01*
X56049717Y-76614349D01*
X56045004Y-76612397D01*
X56014209Y-76598890D01*
X55961880Y-76575936D01*
X55939114Y-76570171D01*
X55924485Y-76565484D01*
X55902614Y-76556950D01*
X55813793Y-76538325D01*
X55808803Y-76537171D01*
X55720819Y-76514891D01*
X55697421Y-76512952D01*
X55682223Y-76510738D01*
X55659237Y-76505919D01*
X55637488Y-76505019D01*
X55568559Y-76502168D01*
X55563448Y-76501851D01*
X55540008Y-76499909D01*
X55535067Y-76499500D01*
X55535066Y-76499500D01*
X55506596Y-76499500D01*
X55501473Y-76499394D01*
X55497701Y-76499238D01*
X55410780Y-76495642D01*
X55387473Y-76498548D01*
X55372135Y-76499500D01*
X52848663Y-76499500D01*
X52792293Y-76508905D01*
X52782127Y-76510172D01*
X52725180Y-76514891D01*
X52669787Y-76528918D01*
X52659762Y-76531020D01*
X52603388Y-76540428D01*
X52549318Y-76558989D01*
X52539502Y-76561911D01*
X52484119Y-76575937D01*
X52431791Y-76598890D01*
X52422244Y-76602615D01*
X52368190Y-76621171D01*
X52317928Y-76648372D01*
X52308722Y-76652872D01*
X52256393Y-76675825D01*
X52208561Y-76707075D01*
X52199763Y-76712318D01*
X52149489Y-76739526D01*
X52104395Y-76774624D01*
X52096059Y-76780576D01*
X52048217Y-76811834D01*
X52006176Y-76850535D01*
X51998358Y-76857156D01*
X51953258Y-76892259D01*
X51930436Y-76917050D01*
X51914544Y-76934312D01*
X51907312Y-76941544D01*
X51890364Y-76957146D01*
X51865259Y-76980258D01*
X51830156Y-77025358D01*
X51823535Y-77033176D01*
X51784834Y-77075217D01*
X51753576Y-77123059D01*
X51747624Y-77131395D01*
X51712526Y-77176489D01*
X51685318Y-77226763D01*
X51680075Y-77235561D01*
X51648825Y-77283393D01*
X51625872Y-77335722D01*
X51621372Y-77344928D01*
X51594171Y-77395190D01*
X51575615Y-77449244D01*
X51571890Y-77458791D01*
X51548937Y-77511119D01*
X51534911Y-77566502D01*
X51531989Y-77576318D01*
X51513428Y-77630388D01*
X51504020Y-77686762D01*
X51501918Y-77696787D01*
X51487891Y-77752180D01*
X51483172Y-77809127D01*
X51481905Y-77819293D01*
X51472500Y-77875663D01*
X51472500Y-77932810D01*
X51472076Y-77943051D01*
X51467356Y-78000000D01*
X51472076Y-78056949D01*
X51472500Y-78067190D01*
X51472500Y-78124337D01*
X51481905Y-78180704D01*
X51483172Y-78190871D01*
X51487891Y-78247819D01*
X51501918Y-78303213D01*
X51504020Y-78313238D01*
X51513428Y-78369611D01*
X51531983Y-78423661D01*
X51534906Y-78433479D01*
X51548936Y-78488878D01*
X51571893Y-78541216D01*
X51575617Y-78550762D01*
X51594171Y-78604808D01*
X51621376Y-78655079D01*
X51625877Y-78664286D01*
X51648826Y-78716606D01*
X51680075Y-78764436D01*
X51685320Y-78773238D01*
X51712527Y-78823511D01*
X51747624Y-78868604D01*
X51753578Y-78876943D01*
X51784833Y-78924782D01*
X51823537Y-78966826D01*
X51830160Y-78974646D01*
X51865262Y-79019744D01*
X51907313Y-79058455D01*
X51914543Y-79065685D01*
X51924664Y-79076679D01*
X51953257Y-79107739D01*
X51998358Y-79142843D01*
X52006169Y-79149458D01*
X52044246Y-79184510D01*
X52048216Y-79188165D01*
X52096050Y-79219416D01*
X52104388Y-79225369D01*
X52149491Y-79260474D01*
X52199757Y-79287676D01*
X52208544Y-79292911D01*
X52256393Y-79324173D01*
X52308723Y-79347126D01*
X52317920Y-79351623D01*
X52329811Y-79358058D01*
X52368190Y-79378828D01*
X52422261Y-79397389D01*
X52431782Y-79401105D01*
X52484119Y-79424063D01*
X52539516Y-79438091D01*
X52549315Y-79441008D01*
X52603386Y-79459571D01*
X52659752Y-79468976D01*
X52669773Y-79471077D01*
X52725179Y-79485108D01*
X52782139Y-79489827D01*
X52792299Y-79491093D01*
X52848665Y-79500500D01*
X52910933Y-79500500D01*
X53097335Y-79500500D01*
X54800110Y-79500500D01*
X54847563Y-79509939D01*
X54887791Y-79536819D01*
X56433791Y-81082819D01*
X56464041Y-81132182D01*
X56468583Y-81189898D01*
X56446428Y-81243385D01*
X56402405Y-81280985D01*
X56346110Y-81294500D01*
X53950809Y-81294500D01*
X53852187Y-81304213D01*
X53804736Y-81313651D01*
X53709909Y-81342417D01*
X53622513Y-81389133D01*
X53622512Y-81389134D01*
X53582289Y-81416011D01*
X53582283Y-81416015D01*
X53505688Y-81478874D01*
X53473535Y-81511027D01*
X53441379Y-81543183D01*
X53401154Y-81570061D01*
X53353701Y-81579500D01*
X52848663Y-81579500D01*
X52792293Y-81588905D01*
X52782127Y-81590172D01*
X52725180Y-81594891D01*
X52669787Y-81608918D01*
X52659762Y-81611020D01*
X52603388Y-81620428D01*
X52549318Y-81638989D01*
X52539502Y-81641911D01*
X52484119Y-81655937D01*
X52431791Y-81678890D01*
X52422244Y-81682615D01*
X52368190Y-81701171D01*
X52317928Y-81728372D01*
X52308722Y-81732872D01*
X52256393Y-81755825D01*
X52208561Y-81787075D01*
X52199763Y-81792318D01*
X52149489Y-81819526D01*
X52104395Y-81854624D01*
X52096059Y-81860576D01*
X52048217Y-81891834D01*
X52006176Y-81930535D01*
X51998358Y-81937156D01*
X51953258Y-81972259D01*
X51934012Y-81993166D01*
X51914544Y-82014312D01*
X51907312Y-82021544D01*
X51890364Y-82037146D01*
X51865259Y-82060258D01*
X51830156Y-82105358D01*
X51823535Y-82113176D01*
X51784834Y-82155217D01*
X51753576Y-82203059D01*
X51747624Y-82211395D01*
X51712526Y-82256489D01*
X51685318Y-82306763D01*
X51680075Y-82315561D01*
X51648825Y-82363393D01*
X51625872Y-82415722D01*
X51621372Y-82424928D01*
X51594171Y-82475190D01*
X51575615Y-82529244D01*
X51571890Y-82538791D01*
X51548937Y-82591119D01*
X51534911Y-82646502D01*
X51531989Y-82656318D01*
X51513428Y-82710388D01*
X51504020Y-82766762D01*
X51501918Y-82776787D01*
X51487891Y-82832180D01*
X51483172Y-82889127D01*
X51481905Y-82899293D01*
X51472500Y-82955663D01*
X51472500Y-83012810D01*
X51472076Y-83023051D01*
X51467356Y-83080000D01*
X51472076Y-83136949D01*
X51472500Y-83147190D01*
X51472500Y-83204337D01*
X51481905Y-83260704D01*
X51483172Y-83270871D01*
X51487891Y-83327819D01*
X51501918Y-83383213D01*
X51504020Y-83393238D01*
X51513428Y-83449611D01*
X51531983Y-83503661D01*
X51534906Y-83513479D01*
X51548936Y-83568878D01*
X51571893Y-83621216D01*
X51575618Y-83630763D01*
X51593196Y-83681967D01*
X51599230Y-83735232D01*
X51582219Y-83786067D01*
X51545340Y-83824971D01*
X51531038Y-83834634D01*
X51480307Y-83880375D01*
X51390002Y-83988124D01*
X51332860Y-84116584D01*
X51314050Y-84182239D01*
X51294500Y-84321464D01*
X51294500Y-91476001D01*
X51311724Y-91606830D01*
X51328339Y-91668838D01*
X51378836Y-91790749D01*
X51459170Y-91895442D01*
X51504557Y-91940829D01*
X51590867Y-92007057D01*
X51609250Y-92021163D01*
X51731166Y-92071662D01*
X51793166Y-92088275D01*
X51891291Y-92101193D01*
X51923999Y-92105500D01*
X51924000Y-92105500D01*
X87558959Y-92105500D01*
X87616516Y-92119667D01*
X87660920Y-92158932D01*
X87682025Y-92214317D01*
X87684058Y-92230796D01*
X87696082Y-92281427D01*
X87709807Y-92339221D01*
X87758690Y-92439373D01*
X87787755Y-92485271D01*
X87857387Y-92572272D01*
X88072935Y-92787819D01*
X88103185Y-92837182D01*
X88107727Y-92894898D01*
X88085572Y-92948385D01*
X88041549Y-92985985D01*
X87985254Y-92999500D01*
X50003247Y-92999500D01*
X49996757Y-92999330D01*
X49866884Y-92992523D01*
X49866421Y-92992498D01*
X49686111Y-92982372D01*
X49673666Y-92981040D01*
X49525087Y-92957507D01*
X49523715Y-92957282D01*
X49364694Y-92930264D01*
X49353370Y-92927791D01*
X49204419Y-92887879D01*
X49202185Y-92887258D01*
X49050836Y-92843655D01*
X49040727Y-92840265D01*
X48895353Y-92784462D01*
X48892337Y-92783259D01*
X48748247Y-92723575D01*
X48739404Y-92719498D01*
X48599934Y-92648433D01*
X48596250Y-92646477D01*
X48460460Y-92571430D01*
X48452921Y-92566907D01*
X48321266Y-92481409D01*
X48317051Y-92478546D01*
X48190851Y-92389002D01*
X48184570Y-92384239D01*
X48062431Y-92285333D01*
X48057840Y-92281427D01*
X47942574Y-92178419D01*
X47937520Y-92173640D01*
X47826358Y-92062478D01*
X47821579Y-92057424D01*
X47718571Y-91942158D01*
X47714665Y-91937567D01*
X47615759Y-91815428D01*
X47610996Y-91809147D01*
X47521452Y-91682947D01*
X47518604Y-91678754D01*
X47433081Y-91547061D01*
X47428568Y-91539538D01*
X47353521Y-91403748D01*
X47351565Y-91400064D01*
X47280500Y-91260594D01*
X47276430Y-91251768D01*
X47216714Y-91107599D01*
X47215562Y-91104710D01*
X47159729Y-90959260D01*
X47156347Y-90949174D01*
X47112725Y-90797761D01*
X47112134Y-90795635D01*
X47072202Y-90646606D01*
X47069738Y-90635324D01*
X47042709Y-90476245D01*
X47042491Y-90474911D01*
X47018955Y-90326309D01*
X47017628Y-90313908D01*
X47007485Y-90133285D01*
X47007476Y-90133114D01*
X47000669Y-90003243D01*
X47000500Y-89996755D01*
X47000500Y-75420000D01*
X56467858Y-75420000D01*
X56488386Y-75667732D01*
X56549413Y-75908721D01*
X56649268Y-76136370D01*
X56749563Y-76289882D01*
X56749564Y-76289882D01*
X57619447Y-75420001D01*
X58326553Y-75420001D01*
X59196434Y-76289882D01*
X59296730Y-76136369D01*
X59396586Y-75908721D01*
X59457613Y-75667732D01*
X59478141Y-75420000D01*
X59457613Y-75172267D01*
X59396586Y-74931278D01*
X59360934Y-74850000D01*
X74575001Y-74850000D01*
X74575001Y-74962479D01*
X74585493Y-75065195D01*
X74640642Y-75231622D01*
X74732683Y-75380845D01*
X74856654Y-75504816D01*
X75005877Y-75596857D01*
X75172303Y-75652006D01*
X75275021Y-75662500D01*
X76150000Y-75662500D01*
X76150000Y-74850000D01*
X74575001Y-74850000D01*
X59360934Y-74850000D01*
X59296730Y-74703630D01*
X59196434Y-74550116D01*
X58326553Y-75420000D01*
X58326553Y-75420001D01*
X57619447Y-75420001D01*
X57619447Y-75420000D01*
X56749564Y-74550116D01*
X56649266Y-74703634D01*
X56549413Y-74931278D01*
X56488386Y-75172267D01*
X56467858Y-75420000D01*
X47000500Y-75420000D01*
X47000500Y-74143610D01*
X52102942Y-74143610D01*
X52149766Y-74180055D01*
X52368393Y-74298368D01*
X52603506Y-74379083D01*
X52848707Y-74420000D01*
X53097293Y-74420000D01*
X53342493Y-74379083D01*
X53577606Y-74298368D01*
X53766045Y-74196390D01*
X57102942Y-74196390D01*
X57973000Y-75066447D01*
X57973001Y-75066447D01*
X58689447Y-74350000D01*
X74575000Y-74350000D01*
X76150000Y-74350000D01*
X76150000Y-73537501D01*
X76149999Y-73537500D01*
X75275021Y-73537500D01*
X75172304Y-73547993D01*
X75005877Y-73603142D01*
X74856654Y-73695183D01*
X74732683Y-73819154D01*
X74640642Y-73968377D01*
X74585493Y-74134803D01*
X74575000Y-74237521D01*
X74575000Y-74350000D01*
X58689447Y-74350000D01*
X58843057Y-74196390D01*
X58843056Y-74196388D01*
X58796235Y-74159947D01*
X58577606Y-74041631D01*
X58342493Y-73960916D01*
X58097293Y-73920000D01*
X57848707Y-73920000D01*
X57603506Y-73960916D01*
X57368393Y-74041631D01*
X57149764Y-74159946D01*
X57102942Y-74196388D01*
X57102942Y-74196390D01*
X53766045Y-74196390D01*
X53796233Y-74180053D01*
X53843056Y-74143609D01*
X52973000Y-73273553D01*
X52102942Y-74143609D01*
X52102942Y-74143610D01*
X47000500Y-74143610D01*
X47000500Y-72920000D01*
X51467858Y-72920000D01*
X51488386Y-73167732D01*
X51549413Y-73408721D01*
X51649268Y-73636370D01*
X51749563Y-73789882D01*
X51749564Y-73789882D01*
X52619447Y-72920001D01*
X53326553Y-72920001D01*
X54196434Y-73789882D01*
X54239732Y-73723610D01*
X66629942Y-73723610D01*
X66676766Y-73760055D01*
X66895393Y-73878368D01*
X67130506Y-73959083D01*
X67375707Y-74000000D01*
X67624293Y-74000000D01*
X67869493Y-73959083D01*
X68104606Y-73878368D01*
X68323233Y-73760053D01*
X68370056Y-73723609D01*
X67500000Y-72853553D01*
X66629942Y-73723609D01*
X66629942Y-73723610D01*
X54239732Y-73723610D01*
X54296730Y-73636369D01*
X54396586Y-73408721D01*
X54457613Y-73167732D01*
X54478141Y-72920000D01*
X54457613Y-72672267D01*
X54413989Y-72499999D01*
X65994858Y-72499999D01*
X66015386Y-72747732D01*
X66076413Y-72988721D01*
X66176268Y-73216370D01*
X66276563Y-73369882D01*
X66276564Y-73369882D01*
X67146447Y-72500001D01*
X67853553Y-72500001D01*
X68723434Y-73369882D01*
X68823730Y-73216369D01*
X68923586Y-72988721D01*
X68984613Y-72747732D01*
X69005141Y-72500000D01*
X68984613Y-72252267D01*
X68923586Y-72011278D01*
X68823730Y-71783630D01*
X68723434Y-71630116D01*
X67853553Y-72500000D01*
X67853553Y-72500001D01*
X67146447Y-72500001D01*
X67146447Y-72500000D01*
X66276564Y-71630116D01*
X66176266Y-71783634D01*
X66076413Y-72011278D01*
X66015386Y-72252267D01*
X65994858Y-72499999D01*
X54413989Y-72499999D01*
X54396586Y-72431278D01*
X54296730Y-72203630D01*
X54196434Y-72050116D01*
X53326553Y-72920000D01*
X53326553Y-72920001D01*
X52619447Y-72920001D01*
X52619447Y-72920000D01*
X51749564Y-72050116D01*
X51649266Y-72203634D01*
X51549413Y-72431278D01*
X51488386Y-72672267D01*
X51467858Y-72920000D01*
X47000500Y-72920000D01*
X47000500Y-71696390D01*
X52102942Y-71696390D01*
X52973000Y-72566447D01*
X52973001Y-72566447D01*
X53843057Y-71696390D01*
X53843056Y-71696388D01*
X53796235Y-71659947D01*
X53577606Y-71541631D01*
X53342493Y-71460916D01*
X53097293Y-71420000D01*
X52848707Y-71420000D01*
X52603506Y-71460916D01*
X52368393Y-71541631D01*
X52149764Y-71659946D01*
X52102942Y-71696388D01*
X52102942Y-71696390D01*
X47000500Y-71696390D01*
X47000500Y-70340000D01*
X56467356Y-70340000D01*
X56487891Y-70587816D01*
X56487891Y-70587819D01*
X56487892Y-70587821D01*
X56548937Y-70828881D01*
X56556201Y-70845441D01*
X56648825Y-71056604D01*
X56648827Y-71056607D01*
X56784836Y-71264785D01*
X56953256Y-71447738D01*
X56953259Y-71447740D01*
X57149485Y-71600470D01*
X57149487Y-71600471D01*
X57149491Y-71600474D01*
X57368190Y-71718828D01*
X57603386Y-71799571D01*
X57848665Y-71840500D01*
X58097335Y-71840500D01*
X58342614Y-71799571D01*
X58577810Y-71718828D01*
X58796509Y-71600474D01*
X58992744Y-71447738D01*
X59150481Y-71276390D01*
X66629942Y-71276390D01*
X67500000Y-72146447D01*
X67500001Y-72146447D01*
X68370057Y-71276390D01*
X68370056Y-71276388D01*
X68323235Y-71239947D01*
X68104606Y-71121631D01*
X67869493Y-71040916D01*
X67624293Y-71000000D01*
X67375707Y-71000000D01*
X67130506Y-71040916D01*
X66895393Y-71121631D01*
X66676764Y-71239946D01*
X66629942Y-71276388D01*
X66629942Y-71276390D01*
X59150481Y-71276390D01*
X59161164Y-71264785D01*
X59297173Y-71056607D01*
X59397063Y-70828881D01*
X59458108Y-70587821D01*
X59478643Y-70340000D01*
X59458108Y-70092179D01*
X59397063Y-69851119D01*
X59297173Y-69623393D01*
X59161164Y-69415215D01*
X58992744Y-69232262D01*
X58921101Y-69176500D01*
X58796514Y-69079529D01*
X58796510Y-69079526D01*
X58796509Y-69079526D01*
X58577810Y-68961172D01*
X58577806Y-68961170D01*
X58577805Y-68961170D01*
X58342615Y-68880429D01*
X58097335Y-68839500D01*
X57848665Y-68839500D01*
X57603384Y-68880429D01*
X57368194Y-68961170D01*
X57368190Y-68961171D01*
X57368190Y-68961172D01*
X57315163Y-68989869D01*
X57149485Y-69079529D01*
X56953259Y-69232259D01*
X56953256Y-69232261D01*
X56953256Y-69232262D01*
X56784836Y-69415215D01*
X56739499Y-69484607D01*
X56648825Y-69623395D01*
X56577430Y-69786161D01*
X56548937Y-69851119D01*
X56513519Y-69990981D01*
X56487891Y-70092183D01*
X56467356Y-70340000D01*
X47000500Y-70340000D01*
X47000500Y-67839999D01*
X51467356Y-67839999D01*
X51487891Y-68087816D01*
X51487891Y-68087819D01*
X51487892Y-68087821D01*
X51548937Y-68328881D01*
X51579198Y-68397869D01*
X51648825Y-68556604D01*
X51648827Y-68556607D01*
X51784836Y-68764785D01*
X51953256Y-68947738D01*
X52007385Y-68989868D01*
X52149485Y-69100470D01*
X52149487Y-69100471D01*
X52149491Y-69100474D01*
X52368190Y-69218828D01*
X52603386Y-69299571D01*
X52848665Y-69340500D01*
X53097335Y-69340500D01*
X53342614Y-69299571D01*
X53577810Y-69218828D01*
X53796509Y-69100474D01*
X53992744Y-68947738D01*
X54161164Y-68764785D01*
X54297173Y-68556607D01*
X54397063Y-68328881D01*
X54458108Y-68087821D01*
X54478643Y-67840000D01*
X54458108Y-67592179D01*
X54397063Y-67351119D01*
X54302582Y-67135724D01*
X54297174Y-67123395D01*
X54285726Y-67105872D01*
X54161164Y-66915215D01*
X53992744Y-66732262D01*
X53945214Y-66695268D01*
X53796514Y-66579529D01*
X53796510Y-66579526D01*
X53796509Y-66579526D01*
X53577810Y-66461172D01*
X53577806Y-66461170D01*
X53577805Y-66461170D01*
X53342615Y-66380429D01*
X53097335Y-66339500D01*
X52848665Y-66339500D01*
X52603384Y-66380429D01*
X52368194Y-66461170D01*
X52368190Y-66461171D01*
X52368190Y-66461172D01*
X52343355Y-66474612D01*
X52149485Y-66579529D01*
X51953259Y-66732259D01*
X51953256Y-66732261D01*
X51953256Y-66732262D01*
X51784836Y-66915215D01*
X51762920Y-66948760D01*
X51648825Y-67123395D01*
X51563936Y-67316925D01*
X51548937Y-67351119D01*
X51492050Y-67575759D01*
X51487891Y-67592183D01*
X51467356Y-67839999D01*
X47000500Y-67839999D01*
X47000500Y-60067764D01*
X48145787Y-60067764D01*
X48175413Y-60337016D01*
X48205697Y-60452851D01*
X48243928Y-60599088D01*
X48349372Y-60847218D01*
X48349871Y-60848392D01*
X48490982Y-61079611D01*
X48653579Y-61274992D01*
X48664255Y-61287820D01*
X48865998Y-61468582D01*
X49091910Y-61618044D01*
X49188162Y-61663165D01*
X49337177Y-61733021D01*
X49577244Y-61805246D01*
X49596569Y-61811060D01*
X49864561Y-61850500D01*
X50067631Y-61850500D01*
X50067634Y-61850500D01*
X50270156Y-61835677D01*
X50296974Y-61829703D01*
X50534553Y-61776780D01*
X50787558Y-61680014D01*
X51023777Y-61547441D01*
X51238177Y-61381888D01*
X51426186Y-61186881D01*
X51583799Y-60966579D01*
X51707656Y-60725675D01*
X51795118Y-60469305D01*
X51844319Y-60202933D01*
X51854212Y-59932235D01*
X51824586Y-59662982D01*
X51756072Y-59400912D01*
X51650130Y-59151610D01*
X51509018Y-58920390D01*
X51509017Y-58920388D01*
X51335746Y-58712181D01*
X51230758Y-58618112D01*
X51134002Y-58531418D01*
X50908090Y-58381956D01*
X50908086Y-58381954D01*
X50662822Y-58266978D01*
X50403437Y-58188941D01*
X50403431Y-58188940D01*
X50135439Y-58149500D01*
X49932369Y-58149500D01*
X49932366Y-58149500D01*
X49729843Y-58164322D01*
X49465449Y-58223219D01*
X49212441Y-58319986D01*
X48976223Y-58452559D01*
X48761825Y-58618109D01*
X48573813Y-58813120D01*
X48416201Y-59033420D01*
X48292342Y-59274329D01*
X48204881Y-59530695D01*
X48155680Y-59797066D01*
X48145787Y-60067764D01*
X47000500Y-60067764D01*
X47000500Y-56003245D01*
X47000670Y-55996756D01*
X47000895Y-55992467D01*
X47007501Y-55866421D01*
X47017628Y-55686087D01*
X47018954Y-55673694D01*
X47042513Y-55524947D01*
X47042700Y-55523809D01*
X47069739Y-55364666D01*
X47072199Y-55353402D01*
X47112150Y-55204305D01*
X47112709Y-55202293D01*
X47156351Y-55050811D01*
X47159724Y-55040753D01*
X47215583Y-54895233D01*
X47216692Y-54892452D01*
X47276439Y-54748212D01*
X47280488Y-54739429D01*
X47351569Y-54599925D01*
X47353521Y-54596250D01*
X47368488Y-54569169D01*
X47428588Y-54460426D01*
X47433065Y-54452962D01*
X47518633Y-54321199D01*
X47521434Y-54317077D01*
X47611010Y-54190832D01*
X47615733Y-54184603D01*
X47714702Y-54062386D01*
X47718532Y-54057885D01*
X47821613Y-53942537D01*
X47826323Y-53937556D01*
X47937556Y-53826323D01*
X47942537Y-53821613D01*
X48057885Y-53718532D01*
X48062386Y-53714702D01*
X48184603Y-53615733D01*
X48190832Y-53611010D01*
X48317077Y-53521434D01*
X48321199Y-53518633D01*
X48452962Y-53433065D01*
X48460426Y-53428588D01*
X48596255Y-53353517D01*
X48599934Y-53351565D01*
X48615362Y-53343704D01*
X48739429Y-53280488D01*
X48748212Y-53276439D01*
X48892452Y-53216692D01*
X48895233Y-53215583D01*
X49040753Y-53159724D01*
X49050811Y-53156351D01*
X49202293Y-53112709D01*
X49204305Y-53112150D01*
X49353402Y-53072199D01*
X49364666Y-53069739D01*
X49523809Y-53042700D01*
X49524947Y-53042513D01*
X49673694Y-53018954D01*
X49686087Y-53017628D01*
X49866554Y-53007493D01*
X49996756Y-53000669D01*
X50003245Y-53000500D01*
X52878626Y-53000500D01*
X52936789Y-53014987D01*
G37*
%TD.AperFunction*%
%TA.AperFunction,Conductor*%
G36*
X92984140Y-79315838D02*
G01*
X93029099Y-79358058D01*
X93048157Y-79416714D01*
X93036600Y-79477297D01*
X92997287Y-79524816D01*
X92994129Y-79527112D01*
X92994127Y-79527113D01*
X92983585Y-79534773D01*
X92982976Y-79533935D01*
X92955746Y-79553720D01*
X92905311Y-79564440D01*
X92525580Y-79564440D01*
X92469285Y-79550925D01*
X92425262Y-79513325D01*
X92403107Y-79459838D01*
X92407649Y-79402122D01*
X92437899Y-79352759D01*
X92453839Y-79336819D01*
X92494067Y-79309939D01*
X92541520Y-79300500D01*
X92924402Y-79300500D01*
X92984140Y-79315838D01*
G37*
%TD.AperFunction*%
%TA.AperFunction,Conductor*%
G36*
X95968032Y-77454879D02*
G01*
X96008260Y-77481759D01*
X97059320Y-78532819D01*
X97089570Y-78582182D01*
X97094112Y-78639898D01*
X97071957Y-78693385D01*
X97027934Y-78730985D01*
X96971639Y-78744500D01*
X96551362Y-78744500D01*
X96452740Y-78754213D01*
X96405289Y-78763651D01*
X96310462Y-78792417D01*
X96223062Y-78839135D01*
X96182837Y-78866013D01*
X96106235Y-78928878D01*
X95792113Y-79243000D01*
X95736525Y-79275094D01*
X95672338Y-79275094D01*
X95616751Y-79243000D01*
X95506018Y-79132267D01*
X95473924Y-79076679D01*
X95473924Y-79012492D01*
X95506018Y-78956904D01*
X95619944Y-78842977D01*
X95710453Y-78696241D01*
X95764681Y-78532591D01*
X95775000Y-78431587D01*
X95775000Y-78382440D01*
X94674000Y-78382440D01*
X94612000Y-78365827D01*
X94566613Y-78320440D01*
X94550000Y-78258440D01*
X94550000Y-78006440D01*
X94566613Y-77944440D01*
X94612000Y-77899053D01*
X94674000Y-77882440D01*
X95774999Y-77882440D01*
X95774999Y-77833293D01*
X95764681Y-77732289D01*
X95723643Y-77608444D01*
X95718792Y-77550577D01*
X95740819Y-77496847D01*
X95784893Y-77459037D01*
X95841349Y-77445440D01*
X95920579Y-77445440D01*
X95968032Y-77454879D01*
G37*
%TD.AperFunction*%
%TA.AperFunction,Conductor*%
G36*
X93421965Y-77251311D02*
G01*
X93535932Y-77365278D01*
X93535934Y-77365279D01*
X93535935Y-77365280D01*
X93682769Y-77455848D01*
X93708007Y-77464211D01*
X93785059Y-77489744D01*
X93838686Y-77525016D01*
X93867493Y-77582375D01*
X93863761Y-77646453D01*
X93835318Y-77732287D01*
X93824358Y-77839577D01*
X93822933Y-77839431D01*
X93809914Y-77890588D01*
X93768326Y-77935442D01*
X93710356Y-77954958D01*
X93650109Y-77944387D01*
X93609929Y-77926303D01*
X93599952Y-77924475D01*
X93578339Y-77918450D01*
X93568873Y-77914860D01*
X93509172Y-77907610D01*
X93501771Y-77906483D01*
X93442607Y-77895641D01*
X93382566Y-77899274D01*
X93375079Y-77899500D01*
X93138378Y-77899500D01*
X93079104Y-77884415D01*
X93034251Y-77842832D01*
X93014732Y-77784867D01*
X93025296Y-77724622D01*
X93025663Y-77723807D01*
X93029820Y-77714567D01*
X93040845Y-77695020D01*
X93046603Y-77686680D01*
X93067935Y-77630428D01*
X93070784Y-77623550D01*
X93095480Y-77568681D01*
X93097307Y-77558706D01*
X93103334Y-77537089D01*
X93106925Y-77527622D01*
X93114172Y-77467929D01*
X93115299Y-77460529D01*
X93118064Y-77445440D01*
X93125816Y-77403137D01*
X93137987Y-77367867D01*
X93160100Y-77337814D01*
X93246605Y-77251309D01*
X93302190Y-77219217D01*
X93366378Y-77219217D01*
X93421965Y-77251311D01*
G37*
%TD.AperFunction*%
%TA.AperFunction,Conductor*%
G36*
X66680223Y-63187439D02*
G01*
X66720452Y-63214320D01*
X66756341Y-63250210D01*
X66756343Y-63250211D01*
X66756344Y-63250212D01*
X66759652Y-63252252D01*
X66802834Y-63297357D01*
X66818559Y-63357789D01*
X66802838Y-63418221D01*
X66759659Y-63463330D01*
X66756657Y-63465181D01*
X66628774Y-63593064D01*
X66570900Y-63625746D01*
X66542663Y-63624939D01*
X66555391Y-63684552D01*
X66543270Y-63723981D01*
X66545201Y-63724621D01*
X66485493Y-63904803D01*
X66483502Y-63924295D01*
X66460359Y-63984715D01*
X66409933Y-64025254D01*
X66345951Y-64034874D01*
X66285834Y-64010956D01*
X66209355Y-63953704D01*
X66205230Y-63952165D01*
X66182481Y-63943680D01*
X66133271Y-63910030D01*
X66105451Y-63857304D01*
X66105453Y-63797689D01*
X66133274Y-63744964D01*
X66182481Y-63711319D01*
X66209355Y-63701296D01*
X66324570Y-63615046D01*
X66332243Y-63604796D01*
X66380990Y-63565862D01*
X66433406Y-63557116D01*
X66419223Y-63528269D01*
X66424910Y-63462051D01*
X66461115Y-63364983D01*
X66467524Y-63305373D01*
X66467524Y-63302000D01*
X66468128Y-63299742D01*
X66468234Y-63298765D01*
X66468386Y-63298781D01*
X66484137Y-63240000D01*
X66529524Y-63194613D01*
X66591524Y-63178000D01*
X66632770Y-63178000D01*
X66680223Y-63187439D01*
G37*
%TD.AperFunction*%
%TA.AperFunction,Conductor*%
G36*
X86725500Y-58366613D02*
G01*
X86770887Y-58412000D01*
X86787500Y-58474000D01*
X86787500Y-59435655D01*
X86813061Y-59473909D01*
X86822500Y-59521362D01*
X86822500Y-60700000D01*
X87372500Y-60700000D01*
X87372500Y-60059361D01*
X87369599Y-60022506D01*
X87323782Y-59864802D01*
X87305391Y-59833704D01*
X87288140Y-59772646D01*
X87303350Y-59711049D01*
X87334145Y-59678615D01*
X87333095Y-59677565D01*
X87467318Y-59543342D01*
X87559357Y-59394122D01*
X87614506Y-59227696D01*
X87618150Y-59192025D01*
X87639674Y-59133874D01*
X87686663Y-59093414D01*
X87747366Y-59080764D01*
X87806604Y-59099087D01*
X87848631Y-59125009D01*
X87913166Y-59164814D01*
X88018855Y-59199836D01*
X88079702Y-59219999D01*
X88080601Y-59220091D01*
X88087502Y-59222583D01*
X88092594Y-59224271D01*
X88092549Y-59224406D01*
X88137140Y-59240513D01*
X88177429Y-59285128D01*
X88192000Y-59343449D01*
X88192000Y-60409278D01*
X88185041Y-60450233D01*
X88156658Y-60531343D01*
X88142000Y-60661444D01*
X88142000Y-61998556D01*
X88156658Y-62128656D01*
X88214377Y-62293606D01*
X88307352Y-62441576D01*
X88430923Y-62565147D01*
X88578893Y-62658122D01*
X88743843Y-62715841D01*
X88873944Y-62730500D01*
X88873948Y-62730500D01*
X89163999Y-62730500D01*
X89170278Y-62730658D01*
X89195342Y-62731930D01*
X89243435Y-62734369D01*
X89243435Y-62734368D01*
X89243436Y-62734369D01*
X89259357Y-62731929D01*
X89278135Y-62730500D01*
X89288000Y-62730500D01*
X89350000Y-62747113D01*
X89395387Y-62792500D01*
X89412000Y-62854500D01*
X89412000Y-62937770D01*
X89402561Y-62985223D01*
X89375681Y-63025451D01*
X89287951Y-63113181D01*
X89247723Y-63140061D01*
X89200270Y-63149500D01*
X85673729Y-63149500D01*
X85617434Y-63135985D01*
X85573411Y-63098386D01*
X85551256Y-63044898D01*
X85555798Y-62987182D01*
X85586045Y-62937821D01*
X85788147Y-62735718D01*
X85801760Y-62723954D01*
X85821030Y-62709610D01*
X85852882Y-62671649D01*
X85860168Y-62663697D01*
X85864090Y-62659777D01*
X85883363Y-62635399D01*
X85885530Y-62632739D01*
X85933802Y-62575214D01*
X85933803Y-62575210D01*
X85934619Y-62574239D01*
X85945075Y-62557825D01*
X85945609Y-62556679D01*
X85945611Y-62556677D01*
X85977316Y-62488682D01*
X85978868Y-62485477D01*
X86003772Y-62435889D01*
X86040262Y-62392282D01*
X86092385Y-62369547D01*
X86149175Y-62372468D01*
X86320007Y-62422099D01*
X86322499Y-62422295D01*
X86322500Y-62422295D01*
X86322500Y-61200000D01*
X86822500Y-61200000D01*
X86822500Y-62422295D01*
X86824988Y-62422099D01*
X86982700Y-62376280D01*
X87124057Y-62292682D01*
X87240182Y-62176557D01*
X87323782Y-62035197D01*
X87369599Y-61877493D01*
X87372500Y-61840639D01*
X87372500Y-61200000D01*
X86822500Y-61200000D01*
X86322500Y-61200000D01*
X86322500Y-59864345D01*
X86296939Y-59826091D01*
X86287500Y-59778638D01*
X86287500Y-58474000D01*
X86304113Y-58412000D01*
X86349500Y-58366613D01*
X86411500Y-58350000D01*
X86663500Y-58350000D01*
X86725500Y-58366613D01*
G37*
%TD.AperFunction*%
%TD*%
%TA.AperFunction,Conductor*%
%TO.N,/Vsw*%
G36*
X97772591Y-79259439D02*
G01*
X97812819Y-79286319D01*
X98963681Y-80437181D01*
X98990561Y-80477409D01*
X99000000Y-80524862D01*
X99000000Y-81393049D01*
X98987211Y-81447895D01*
X98951483Y-81491427D01*
X98910542Y-81509975D01*
X98911121Y-81511883D01*
X98810462Y-81542417D01*
X98723066Y-81589133D01*
X98682836Y-81616015D01*
X98606235Y-81678879D01*
X98396358Y-81888756D01*
X98333494Y-81965357D01*
X98306612Y-82005587D01*
X98259896Y-82092983D01*
X98231130Y-82187810D01*
X98221692Y-82235261D01*
X98211979Y-82333883D01*
X98211979Y-88166445D01*
X98212086Y-88176844D01*
X98212192Y-88181967D01*
X98212517Y-88192413D01*
X98214368Y-88237182D01*
X98213978Y-88252291D01*
X98214021Y-88252294D01*
X98213948Y-88253456D01*
X98213940Y-88253800D01*
X98213902Y-88254201D01*
X98212948Y-88269567D01*
X98211979Y-88300851D01*
X98211979Y-88666117D01*
X98221692Y-88764738D01*
X98231130Y-88812189D01*
X98259896Y-88907016D01*
X98280615Y-88945777D01*
X98306613Y-88994414D01*
X98333493Y-89034642D01*
X98353611Y-89059155D01*
X98396358Y-89111243D01*
X98688756Y-89403641D01*
X98688760Y-89403644D01*
X98765358Y-89466507D01*
X98805586Y-89493387D01*
X98872612Y-89529214D01*
X98892983Y-89540103D01*
X98987810Y-89568869D01*
X99019158Y-89575104D01*
X99035265Y-89578308D01*
X99133883Y-89588021D01*
X100344089Y-89588021D01*
X100442707Y-89578308D01*
X100474486Y-89571986D01*
X100490161Y-89568869D01*
X100537575Y-89554485D01*
X100584991Y-89540102D01*
X100632620Y-89514642D01*
X100691075Y-89500000D01*
X100750000Y-89500000D01*
X101500000Y-88750000D01*
X101500000Y-87753218D01*
X101503794Y-87722779D01*
X101513165Y-87685772D01*
X101519815Y-87666401D01*
X101527720Y-87648381D01*
X101577796Y-87534216D01*
X101587543Y-87516207D01*
X101649699Y-87421072D01*
X101666494Y-87395363D01*
X101679062Y-87379215D01*
X101776853Y-87272984D01*
X101791892Y-87259140D01*
X101905814Y-87170471D01*
X101922948Y-87159276D01*
X102095781Y-87065746D01*
X102095780Y-87065745D01*
X102118967Y-87053198D01*
X102124664Y-87050302D01*
X102131742Y-87046933D01*
X102179156Y-87017334D01*
X102268910Y-86945973D01*
X102428566Y-86786316D01*
X102468792Y-86759439D01*
X102516245Y-86750000D01*
X102948638Y-86750000D01*
X102996091Y-86759439D01*
X103036319Y-86786319D01*
X103463681Y-87213681D01*
X103490561Y-87253909D01*
X103500000Y-87301362D01*
X103500000Y-90698638D01*
X103490561Y-90746091D01*
X103463681Y-90786319D01*
X101286819Y-92963181D01*
X101246591Y-92990061D01*
X101199138Y-92999500D01*
X89050862Y-92999500D01*
X89003409Y-92990061D01*
X88963181Y-92963181D01*
X88214828Y-92214828D01*
X88185757Y-92168921D01*
X88179106Y-92114993D01*
X88196151Y-92063398D01*
X88233615Y-92024047D01*
X88313205Y-91970867D01*
X88357228Y-91933267D01*
X88437888Y-91846008D01*
X88495949Y-91742331D01*
X88518104Y-91688844D01*
X88550359Y-91574477D01*
X88555025Y-91455740D01*
X88550483Y-91398024D01*
X88527300Y-91281474D01*
X88477549Y-91173557D01*
X88447299Y-91124194D01*
X88373733Y-91030877D01*
X88373731Y-91030874D01*
X87117753Y-89774896D01*
X87094925Y-89753441D01*
X87094923Y-89753439D01*
X87094910Y-89753427D01*
X87083390Y-89743254D01*
X87083084Y-89743000D01*
X87082848Y-89742776D01*
X87081950Y-89741983D01*
X87081978Y-89741950D01*
X87071036Y-89731557D01*
X87040684Y-89698586D01*
X87040661Y-89698561D01*
X87033477Y-89690920D01*
X87029954Y-89687249D01*
X87022653Y-89679796D01*
X87020951Y-89678094D01*
X87014019Y-89670565D01*
X87012400Y-89668654D01*
X87005614Y-89660808D01*
X87002197Y-89656938D01*
X86995228Y-89649210D01*
X86995202Y-89649181D01*
X86964875Y-89616237D01*
X86955403Y-89604450D01*
X86955370Y-89604475D01*
X86954680Y-89603550D01*
X86954456Y-89603271D01*
X86954216Y-89602928D01*
X86945049Y-89590635D01*
X86945043Y-89590628D01*
X86945036Y-89590618D01*
X86944806Y-89590329D01*
X86944621Y-89590062D01*
X86943888Y-89589078D01*
X86943923Y-89589051D01*
X86935354Y-89576645D01*
X86913579Y-89540103D01*
X86912403Y-89538129D01*
X86912383Y-89538096D01*
X86906966Y-89529214D01*
X86904338Y-89525004D01*
X86898685Y-89516153D01*
X86898670Y-89516129D01*
X86874150Y-89478599D01*
X86866765Y-89465442D01*
X86866726Y-89465463D01*
X86866162Y-89464368D01*
X86866004Y-89464086D01*
X86865842Y-89463746D01*
X86863692Y-89459570D01*
X86858814Y-89450093D01*
X86858640Y-89449779D01*
X86858511Y-89449506D01*
X86857935Y-89448386D01*
X86857975Y-89448365D01*
X86851558Y-89434711D01*
X86835274Y-89392976D01*
X86831386Y-89383307D01*
X86829425Y-89378572D01*
X86825316Y-89368935D01*
X86825303Y-89368904D01*
X86807326Y-89327922D01*
X86802197Y-89313699D01*
X86802155Y-89313713D01*
X86801778Y-89312538D01*
X86801666Y-89312226D01*
X86801567Y-89311879D01*
X86796880Y-89297250D01*
X86796766Y-89296930D01*
X86796685Y-89296642D01*
X86796293Y-89295417D01*
X86796337Y-89295402D01*
X86792255Y-89280879D01*
X86783065Y-89237050D01*
X86780826Y-89226896D01*
X86779672Y-89221906D01*
X86777204Y-89211713D01*
X86766205Y-89168279D01*
X86763497Y-89153457D01*
X86763450Y-89153464D01*
X86763258Y-89152148D01*
X86763211Y-89151889D01*
X86763176Y-89151585D01*
X86763174Y-89151564D01*
X86760960Y-89136363D01*
X86760890Y-89135972D01*
X86760855Y-89135649D01*
X86760682Y-89134458D01*
X86760725Y-89134451D01*
X86759087Y-89119418D01*
X86757237Y-89074684D01*
X86757193Y-89073849D01*
X86756699Y-89064266D01*
X86756382Y-89059155D01*
X86755626Y-89048718D01*
X86755422Y-89046266D01*
X86755000Y-89036030D01*
X86755000Y-89033555D01*
X86754892Y-89023157D01*
X86754786Y-89018024D01*
X86754786Y-89018018D01*
X86754462Y-89007576D01*
X86752609Y-88962808D01*
X86753003Y-88947711D01*
X86752957Y-88947709D01*
X86753037Y-88946417D01*
X86753044Y-88946135D01*
X86753077Y-88945788D01*
X86754029Y-88930450D01*
X86755000Y-88899135D01*
X86755000Y-87963963D01*
X86755422Y-87953745D01*
X86764358Y-87845900D01*
X86767727Y-87825713D01*
X86786085Y-87753218D01*
X86803166Y-87685767D01*
X86809815Y-87666401D01*
X86817720Y-87648381D01*
X86867796Y-87534214D01*
X86877541Y-87516209D01*
X86956493Y-87395365D01*
X86969063Y-87379214D01*
X87066841Y-87272998D01*
X87081903Y-87259133D01*
X87195813Y-87170471D01*
X87212950Y-87159275D01*
X87339917Y-87090565D01*
X87358645Y-87082350D01*
X87495199Y-87035471D01*
X87515029Y-87030450D01*
X87657416Y-87006690D01*
X87677825Y-87005000D01*
X87822173Y-87005000D01*
X87842582Y-87006691D01*
X87984961Y-87030449D01*
X88004815Y-87035477D01*
X88141338Y-87082345D01*
X88160083Y-87090568D01*
X88267256Y-87148566D01*
X88287047Y-87159276D01*
X88304192Y-87170478D01*
X88418091Y-87259129D01*
X88433157Y-87272997D01*
X88537888Y-87386766D01*
X88569469Y-87421072D01*
X88656205Y-87496088D01*
X88685652Y-87516207D01*
X88702356Y-87527620D01*
X88723390Y-87538724D01*
X88771694Y-87584358D01*
X88789500Y-87648381D01*
X88789500Y-88062073D01*
X88804891Y-88247816D01*
X88804891Y-88247819D01*
X88804892Y-88247821D01*
X88865937Y-88488881D01*
X88899645Y-88565728D01*
X88965825Y-88716604D01*
X88965827Y-88716607D01*
X89101836Y-88924785D01*
X89270256Y-89107738D01*
X89326564Y-89151564D01*
X89466485Y-89260470D01*
X89466487Y-89260471D01*
X89466491Y-89260474D01*
X89685190Y-89378828D01*
X89920386Y-89459571D01*
X90165665Y-89500500D01*
X90169601Y-89500500D01*
X90414335Y-89500500D01*
X90659614Y-89459571D01*
X90894810Y-89378828D01*
X91113509Y-89260474D01*
X91309744Y-89107738D01*
X91478164Y-88924785D01*
X91614173Y-88716607D01*
X91714063Y-88488881D01*
X91775108Y-88247821D01*
X91790500Y-88062067D01*
X91790500Y-87184700D01*
X91795882Y-87148566D01*
X91811560Y-87115568D01*
X91845793Y-87064594D01*
X91847193Y-87065534D01*
X91886529Y-87023175D01*
X91951159Y-87005000D01*
X93476001Y-87005000D01*
X93502166Y-87001554D01*
X93606834Y-86987775D01*
X93668834Y-86971162D01*
X93790750Y-86920663D01*
X93895442Y-86840329D01*
X93940829Y-86794942D01*
X94021163Y-86690250D01*
X94071662Y-86568334D01*
X94088275Y-86506334D01*
X94105500Y-86375500D01*
X94105500Y-85719361D01*
X94114939Y-85671908D01*
X94141819Y-85631680D01*
X94172979Y-85600519D01*
X94664022Y-85109475D01*
X94678811Y-85096844D01*
X94690156Y-85088603D01*
X94735549Y-85038187D01*
X94739981Y-85033516D01*
X94754404Y-85019095D01*
X94767246Y-85003236D01*
X94771420Y-84998350D01*
X94816818Y-84947931D01*
X94823827Y-84935789D01*
X94834845Y-84919757D01*
X94843668Y-84908864D01*
X94874478Y-84848392D01*
X94877533Y-84842766D01*
X94911464Y-84783999D01*
X94915794Y-84770668D01*
X94923241Y-84752689D01*
X94929605Y-84740203D01*
X94947160Y-84674685D01*
X94948992Y-84668497D01*
X94969959Y-84603971D01*
X94971425Y-84590020D01*
X94974968Y-84570905D01*
X94978598Y-84557360D01*
X94982147Y-84489618D01*
X94982656Y-84483163D01*
X94984785Y-84462911D01*
X94984785Y-84442540D01*
X94984955Y-84436051D01*
X94985735Y-84421163D01*
X94988504Y-84368327D01*
X94986311Y-84354486D01*
X94984785Y-84335089D01*
X94984785Y-84316577D01*
X94994224Y-84269124D01*
X95021104Y-84228896D01*
X95021104Y-84228895D01*
X95750000Y-83500000D01*
X95750000Y-80423495D01*
X95756294Y-80384490D01*
X95765174Y-80357693D01*
X95775500Y-80256617D01*
X95775499Y-80025858D01*
X95784938Y-79978408D01*
X95811813Y-79938186D01*
X96463681Y-79286319D01*
X96503909Y-79259439D01*
X96551362Y-79250000D01*
X97725138Y-79250000D01*
X97772591Y-79259439D01*
G37*
%TD.AperFunction*%
%TD*%
%TA.AperFunction,Conductor*%
%TO.N,/Isns_MOS*%
G36*
X110438000Y-82016613D02*
G01*
X110483387Y-82062000D01*
X110500000Y-82124000D01*
X110500000Y-83876000D01*
X110483387Y-83938000D01*
X110438000Y-83983387D01*
X110376000Y-84000000D01*
X104499999Y-84000000D01*
X101911468Y-86588530D01*
X101864054Y-86618129D01*
X101855190Y-86621172D01*
X101636487Y-86739528D01*
X101440259Y-86892259D01*
X101440256Y-86892261D01*
X101440256Y-86892262D01*
X101359252Y-86980256D01*
X101271837Y-87075214D01*
X101135825Y-87283395D01*
X101086788Y-87395190D01*
X101035937Y-87511119D01*
X100974892Y-87752179D01*
X100974891Y-87752183D01*
X100959500Y-87937927D01*
X100959500Y-88467110D01*
X100950061Y-88514563D01*
X100923181Y-88554791D01*
X100431770Y-89046202D01*
X100391542Y-89073082D01*
X100344089Y-89082521D01*
X99133883Y-89082521D01*
X99086430Y-89073082D01*
X99046202Y-89046202D01*
X98753798Y-88753798D01*
X98726918Y-88713570D01*
X98717479Y-88666117D01*
X98717479Y-88300865D01*
X98718431Y-88285527D01*
X98721336Y-88262219D01*
X98717585Y-88171529D01*
X98717479Y-88166404D01*
X98717479Y-82333883D01*
X98726918Y-82286430D01*
X98753798Y-82246202D01*
X98963681Y-82036319D01*
X99003909Y-82009439D01*
X99051362Y-82000000D01*
X110376000Y-82000000D01*
X110438000Y-82016613D01*
G37*
%TD.AperFunction*%
%TD*%
%TA.AperFunction,Conductor*%
%TO.N,GNDA*%
G36*
X86596091Y-73809439D02*
G01*
X86636319Y-73836319D01*
X89363681Y-76563681D01*
X89390561Y-76603909D01*
X89400000Y-76651362D01*
X89400000Y-76875940D01*
X89383387Y-76937940D01*
X89338000Y-76983327D01*
X89276000Y-76999940D01*
X88750595Y-76999940D01*
X88750595Y-79345852D01*
X88756254Y-79348195D01*
X88792906Y-79327034D01*
X88857093Y-79327034D01*
X88912681Y-79359128D01*
X89038543Y-79484990D01*
X89067904Y-79531716D01*
X89074082Y-79586554D01*
X89069750Y-79624999D01*
X89074082Y-79663444D01*
X89067904Y-79718282D01*
X89038543Y-79765009D01*
X88750595Y-80052957D01*
X88750595Y-81579940D01*
X89283419Y-81579940D01*
X89342966Y-81573538D01*
X89347755Y-81571752D01*
X89406544Y-81564898D01*
X89461812Y-81586074D01*
X89500970Y-81630455D01*
X89515095Y-81687931D01*
X89515095Y-81837809D01*
X89521264Y-81895190D01*
X89521504Y-81897423D01*
X89571799Y-82032271D01*
X89658049Y-82147486D01*
X89773264Y-82233736D01*
X89908112Y-82284031D01*
X89967722Y-82290440D01*
X91113467Y-82290439D01*
X91173078Y-82284031D01*
X91250546Y-82255137D01*
X91296827Y-82247355D01*
X91342689Y-82257332D01*
X91381555Y-82283638D01*
X91390629Y-82292712D01*
X91393937Y-82294752D01*
X91437119Y-82339857D01*
X91452844Y-82400289D01*
X91437123Y-82460721D01*
X91393944Y-82505830D01*
X91390939Y-82507683D01*
X91266968Y-82631654D01*
X91174927Y-82780877D01*
X91119778Y-82947303D01*
X91109285Y-83050021D01*
X91109285Y-83187500D01*
X92460285Y-83187500D01*
X92522285Y-83204113D01*
X92567672Y-83249500D01*
X92584285Y-83311500D01*
X92584285Y-83563500D01*
X92567672Y-83625500D01*
X92522285Y-83670887D01*
X92460285Y-83687500D01*
X91109286Y-83687500D01*
X91109286Y-83824977D01*
X91113211Y-83863398D01*
X91101198Y-83930574D01*
X91055461Y-83981222D01*
X90989853Y-84000000D01*
X89927571Y-84000000D01*
X89882496Y-83991517D01*
X89843588Y-83967230D01*
X89790953Y-83918776D01*
X89787255Y-83915227D01*
X89767123Y-83895095D01*
X89745388Y-83876686D01*
X89741547Y-83873294D01*
X89674787Y-83811837D01*
X89655125Y-83798991D01*
X89642811Y-83789808D01*
X89624894Y-83774634D01*
X89546890Y-83728153D01*
X89542609Y-83725481D01*
X89484474Y-83687500D01*
X89466603Y-83675824D01*
X89445107Y-83666395D01*
X89431448Y-83659364D01*
X89411275Y-83647344D01*
X89355293Y-83625500D01*
X89326717Y-83614349D01*
X89322004Y-83612397D01*
X89294332Y-83600260D01*
X89238880Y-83575936D01*
X89216114Y-83570171D01*
X89201485Y-83565484D01*
X89179614Y-83556950D01*
X89090793Y-83538325D01*
X89085803Y-83537171D01*
X88997819Y-83514891D01*
X88974421Y-83512952D01*
X88959223Y-83510738D01*
X88936237Y-83505919D01*
X88914488Y-83505019D01*
X88845559Y-83502168D01*
X88840448Y-83501851D01*
X88817008Y-83499909D01*
X88812067Y-83499500D01*
X88812066Y-83499500D01*
X88783596Y-83499500D01*
X88778473Y-83499394D01*
X88774701Y-83499238D01*
X88687780Y-83495642D01*
X88664473Y-83498548D01*
X88649135Y-83499500D01*
X86550862Y-83499500D01*
X86503409Y-83490061D01*
X86463181Y-83463181D01*
X85500209Y-82500209D01*
X85466964Y-82439966D01*
X85470954Y-82371274D01*
X85510950Y-82315285D01*
X85574636Y-82289238D01*
X85623078Y-82284031D01*
X85757926Y-82233736D01*
X85873141Y-82147486D01*
X85959391Y-82032271D01*
X86009686Y-81897423D01*
X86016095Y-81837813D01*
X86016094Y-81687931D01*
X86030218Y-81630459D01*
X86069373Y-81586077D01*
X86124639Y-81564900D01*
X86183426Y-81571751D01*
X86188215Y-81573537D01*
X86247771Y-81579940D01*
X86780595Y-81579940D01*
X86780595Y-80882440D01*
X87280595Y-80882440D01*
X87280595Y-81579940D01*
X88250595Y-81579940D01*
X88250595Y-80882440D01*
X87280595Y-80882440D01*
X86780595Y-80882440D01*
X86780595Y-79987440D01*
X87280595Y-79987440D01*
X87280595Y-80382440D01*
X88250595Y-80382440D01*
X88250595Y-80167822D01*
X88153880Y-80071107D01*
X88127000Y-80030879D01*
X88109007Y-79987440D01*
X87280595Y-79987440D01*
X86780595Y-79987440D01*
X86780595Y-79092440D01*
X87280595Y-79092440D01*
X87280595Y-79487440D01*
X88250595Y-79487440D01*
X88250595Y-79092440D01*
X87280595Y-79092440D01*
X86780595Y-79092440D01*
X86780595Y-78197440D01*
X87280595Y-78197440D01*
X87280595Y-78592440D01*
X88250595Y-78592440D01*
X88250595Y-78197440D01*
X87280595Y-78197440D01*
X86780595Y-78197440D01*
X86780595Y-76999940D01*
X87280595Y-76999940D01*
X87280595Y-77697440D01*
X88250595Y-77697440D01*
X88250595Y-76999940D01*
X87280595Y-76999940D01*
X86780595Y-76999940D01*
X86247771Y-76999940D01*
X86188215Y-77006342D01*
X86182927Y-77008315D01*
X86124140Y-77015166D01*
X86068874Y-76993989D01*
X86029719Y-76949607D01*
X86015595Y-76892133D01*
X86015595Y-76742116D01*
X86009192Y-76682564D01*
X85957380Y-76543651D01*
X85949597Y-76497366D01*
X85959574Y-76451504D01*
X85985881Y-76412635D01*
X86110540Y-76287977D01*
X86201048Y-76141241D01*
X86255276Y-75977591D01*
X86265595Y-75876587D01*
X86265595Y-75839940D01*
X85152095Y-75839940D01*
X85090095Y-75823327D01*
X85044708Y-75777940D01*
X85028095Y-75715940D01*
X85028095Y-74614941D01*
X84978948Y-74614941D01*
X84877944Y-74625258D01*
X84714293Y-74679486D01*
X84567556Y-74769995D01*
X84453629Y-74883922D01*
X84398041Y-74916015D01*
X84333854Y-74916015D01*
X84278267Y-74883921D01*
X84163947Y-74769601D01*
X84017110Y-74679031D01*
X83853348Y-74624765D01*
X83757166Y-74614940D01*
X85528095Y-74614940D01*
X85528095Y-75339940D01*
X86265594Y-75339940D01*
X86265594Y-75303293D01*
X86255276Y-75202289D01*
X86201048Y-75038638D01*
X86110538Y-74891899D01*
X85988635Y-74769996D01*
X85841896Y-74679486D01*
X85678246Y-74625258D01*
X85577242Y-74614940D01*
X85528095Y-74614940D01*
X83757166Y-74614940D01*
X83752271Y-74614440D01*
X83153918Y-74614440D01*
X83052844Y-74624765D01*
X83026538Y-74633482D01*
X82953595Y-74657653D01*
X82895732Y-74662504D01*
X82842001Y-74640477D01*
X82804191Y-74596403D01*
X82790594Y-74539947D01*
X82790594Y-74364961D01*
X82780101Y-74262244D01*
X82724952Y-74095817D01*
X82659127Y-73989096D01*
X82640695Y-73926704D01*
X82656389Y-73863568D01*
X82701887Y-73817066D01*
X82764666Y-73800000D01*
X86548638Y-73800000D01*
X86596091Y-73809439D01*
G37*
%TD.AperFunction*%
%TD*%
%TA.AperFunction,Conductor*%
%TO.N,/LED+*%
G36*
X56396091Y-81809439D02*
G01*
X56436318Y-81836318D01*
X58000000Y-83400000D01*
X58699610Y-83400000D01*
X58747063Y-83409439D01*
X58787291Y-83436319D01*
X58840665Y-83489693D01*
X58850837Y-83501211D01*
X58865261Y-83519743D01*
X58932045Y-83581222D01*
X58935743Y-83584771D01*
X58955874Y-83604902D01*
X58977620Y-83623319D01*
X58981441Y-83626694D01*
X59048215Y-83688164D01*
X59067873Y-83701006D01*
X59080184Y-83710187D01*
X59098106Y-83725366D01*
X59176108Y-83771845D01*
X59180389Y-83774517D01*
X59256393Y-83824173D01*
X59265478Y-83828158D01*
X59277891Y-83833603D01*
X59291556Y-83840637D01*
X59311726Y-83852656D01*
X59396288Y-83885652D01*
X59401004Y-83887606D01*
X59439205Y-83904362D01*
X59484119Y-83924063D01*
X59506889Y-83929829D01*
X59521508Y-83934512D01*
X59543386Y-83943049D01*
X59632203Y-83961672D01*
X59637170Y-83962821D01*
X59725179Y-83985108D01*
X59748587Y-83987046D01*
X59763790Y-83989262D01*
X59786763Y-83994080D01*
X59877451Y-83997830D01*
X59882537Y-83998146D01*
X59906090Y-84000098D01*
X59910932Y-84000500D01*
X59910933Y-84000500D01*
X59939411Y-84000500D01*
X59944536Y-84000606D01*
X60035219Y-84004357D01*
X60035219Y-84004356D01*
X60035221Y-84004357D01*
X60058525Y-84001452D01*
X60073864Y-84000500D01*
X64528260Y-84000500D01*
X64594053Y-84019394D01*
X64639796Y-84070317D01*
X64651550Y-84137752D01*
X64650000Y-84152172D01*
X64650000Y-84750000D01*
X67250000Y-84750000D01*
X67250000Y-84152172D01*
X67248450Y-84137752D01*
X67260204Y-84070317D01*
X67305947Y-84019394D01*
X67371740Y-84000500D01*
X72578260Y-84000500D01*
X72644053Y-84019394D01*
X72689796Y-84070317D01*
X72701550Y-84137752D01*
X72700000Y-84152172D01*
X72700000Y-84750000D01*
X75300000Y-84750000D01*
X75300000Y-84152172D01*
X75298450Y-84137752D01*
X75310204Y-84070317D01*
X75355947Y-84019394D01*
X75421740Y-84000500D01*
X80578260Y-84000500D01*
X80644053Y-84019394D01*
X80689796Y-84070317D01*
X80701550Y-84137752D01*
X80700000Y-84152172D01*
X80700000Y-84750000D01*
X83300000Y-84750000D01*
X83300000Y-84152176D01*
X83293597Y-84092624D01*
X83243352Y-83957910D01*
X83157188Y-83842810D01*
X83055826Y-83766931D01*
X83020696Y-83725962D01*
X83006296Y-83673951D01*
X83015355Y-83620749D01*
X83046150Y-83576438D01*
X83107738Y-83519744D01*
X83163706Y-83447837D01*
X83207099Y-83412599D01*
X83261559Y-83400000D01*
X85633754Y-83400000D01*
X85681207Y-83409439D01*
X85721435Y-83436319D01*
X86105735Y-83820620D01*
X86110066Y-83824174D01*
X86182337Y-83883486D01*
X86222565Y-83910366D01*
X86283707Y-83943048D01*
X86309962Y-83957082D01*
X86404789Y-83985848D01*
X86436137Y-83992083D01*
X86452244Y-83995287D01*
X86550862Y-84005000D01*
X88649135Y-84005000D01*
X88649149Y-84005000D01*
X88680422Y-84004030D01*
X88680426Y-84004029D01*
X88680450Y-84004029D01*
X88695788Y-84003077D01*
X88696135Y-84003044D01*
X88696417Y-84003037D01*
X88697709Y-84002957D01*
X88697711Y-84003003D01*
X88712809Y-84002609D01*
X88757578Y-84004462D01*
X88768016Y-84004786D01*
X88773139Y-84004892D01*
X88775939Y-84004920D01*
X88783555Y-84005000D01*
X88783596Y-84005000D01*
X88786030Y-84005000D01*
X88796266Y-84005422D01*
X88798718Y-84005626D01*
X88809155Y-84006382D01*
X88814266Y-84006699D01*
X88823849Y-84007193D01*
X88824684Y-84007237D01*
X88850984Y-84008324D01*
X88869420Y-84009087D01*
X88884440Y-84010724D01*
X88884447Y-84010681D01*
X88885639Y-84010854D01*
X88885977Y-84010891D01*
X88886352Y-84010958D01*
X88901550Y-84013172D01*
X88901887Y-84013210D01*
X88902172Y-84013262D01*
X88903452Y-84013449D01*
X88903445Y-84013495D01*
X88918286Y-84016207D01*
X88961656Y-84027190D01*
X88961695Y-84027199D01*
X88961713Y-84027204D01*
X88971906Y-84029672D01*
X88976896Y-84030826D01*
X88987050Y-84033065D01*
X89030879Y-84042255D01*
X89045398Y-84046336D01*
X89045413Y-84046292D01*
X89046636Y-84046684D01*
X89046930Y-84046766D01*
X89047250Y-84046880D01*
X89061879Y-84051567D01*
X89062233Y-84051668D01*
X89062533Y-84051776D01*
X89063711Y-84052154D01*
X89063697Y-84052196D01*
X89077923Y-84057325D01*
X89118950Y-84075322D01*
X89126649Y-84078604D01*
X89128603Y-84079438D01*
X89133153Y-84081322D01*
X89133286Y-84081377D01*
X89142962Y-84085268D01*
X89143063Y-84085307D01*
X89143062Y-84085307D01*
X89184696Y-84101553D01*
X89198356Y-84107971D01*
X89198377Y-84107931D01*
X89199488Y-84108502D01*
X89199776Y-84108638D01*
X89200093Y-84108814D01*
X89213752Y-84115845D01*
X89214068Y-84115995D01*
X89214327Y-84116141D01*
X89215460Y-84116724D01*
X89215438Y-84116764D01*
X89228599Y-84124151D01*
X89249417Y-84137752D01*
X89266127Y-84148669D01*
X89274956Y-84154307D01*
X89278029Y-84156225D01*
X89279262Y-84156995D01*
X89288096Y-84162383D01*
X89288129Y-84162403D01*
X89305273Y-84172618D01*
X89326645Y-84185354D01*
X89339051Y-84193923D01*
X89339078Y-84193888D01*
X89340062Y-84194621D01*
X89340329Y-84194806D01*
X89340618Y-84195036D01*
X89340628Y-84195043D01*
X89340635Y-84195049D01*
X89352928Y-84204216D01*
X89353271Y-84204456D01*
X89353550Y-84204680D01*
X89354475Y-84205370D01*
X89354450Y-84205403D01*
X89366237Y-84214875D01*
X89399181Y-84245202D01*
X89406937Y-84252196D01*
X89410778Y-84255588D01*
X89410804Y-84255611D01*
X89410808Y-84255614D01*
X89418654Y-84262400D01*
X89420565Y-84264019D01*
X89428094Y-84270951D01*
X89429796Y-84272653D01*
X89435602Y-84278340D01*
X89437236Y-84279941D01*
X89440934Y-84283490D01*
X89445707Y-84287976D01*
X89448612Y-84290708D01*
X89478630Y-84318341D01*
X89501222Y-84339138D01*
X89575915Y-84396044D01*
X89614823Y-84420331D01*
X89698744Y-84462437D01*
X89758532Y-84479566D01*
X89788999Y-84488295D01*
X89789000Y-84488295D01*
X89789003Y-84488296D01*
X89834078Y-84496779D01*
X89927571Y-84505500D01*
X90989853Y-84505500D01*
X90989857Y-84505500D01*
X91128946Y-84485987D01*
X91128949Y-84485986D01*
X91128950Y-84485986D01*
X91194558Y-84467208D01*
X91300052Y-84420331D01*
X91338817Y-84403106D01*
X91339486Y-84404611D01*
X91357530Y-84395013D01*
X91408684Y-84391311D01*
X91456961Y-84408626D01*
X91475937Y-84420330D01*
X91539951Y-84459814D01*
X91618933Y-84485986D01*
X91706487Y-84514999D01*
X91716987Y-84516071D01*
X91809276Y-84525500D01*
X92859293Y-84525499D01*
X92962082Y-84514999D01*
X93128619Y-84459814D01*
X93277941Y-84367712D01*
X93298066Y-84347586D01*
X93344467Y-84318341D01*
X93398946Y-84311973D01*
X93450843Y-84329729D01*
X93541096Y-84385397D01*
X93584277Y-84430504D01*
X93600000Y-84490936D01*
X93600000Y-86375500D01*
X93583387Y-86437500D01*
X93538000Y-86482887D01*
X93476000Y-86499500D01*
X91829630Y-86499500D01*
X91770015Y-86505909D01*
X91635168Y-86556204D01*
X91635169Y-86556204D01*
X91519954Y-86642454D01*
X91452660Y-86732348D01*
X91433703Y-86757671D01*
X91422090Y-86788806D01*
X91389977Y-86836623D01*
X91339724Y-86864771D01*
X91282175Y-86867178D01*
X91229747Y-86843324D01*
X91087168Y-86732350D01*
X90875460Y-86617780D01*
X90647792Y-86539619D01*
X90540000Y-86521633D01*
X90540000Y-88126000D01*
X90523387Y-88188000D01*
X90478000Y-88233387D01*
X90416000Y-88250000D01*
X90164000Y-88250000D01*
X90102000Y-88233387D01*
X90056613Y-88188000D01*
X90040000Y-88126000D01*
X90040000Y-86521634D01*
X90039999Y-86521633D01*
X89932207Y-86539619D01*
X89704539Y-86617780D01*
X89492835Y-86732348D01*
X89302873Y-86880201D01*
X89139843Y-87057297D01*
X89136412Y-87062550D01*
X89096077Y-87101248D01*
X89042844Y-87118300D01*
X88987530Y-87110240D01*
X88941377Y-87078706D01*
X88938165Y-87075217D01*
X88938164Y-87075215D01*
X88769744Y-86892262D01*
X88666413Y-86811836D01*
X88573514Y-86739529D01*
X88573510Y-86739526D01*
X88573509Y-86739526D01*
X88354810Y-86621172D01*
X88354806Y-86621170D01*
X88354805Y-86621170D01*
X88119615Y-86540429D01*
X87874335Y-86499500D01*
X87625665Y-86499500D01*
X87380384Y-86540429D01*
X87145194Y-86621170D01*
X86926485Y-86739529D01*
X86730259Y-86892259D01*
X86730256Y-86892261D01*
X86730256Y-86892262D01*
X86561836Y-87075215D01*
X86558710Y-87080000D01*
X86425825Y-87283395D01*
X86376788Y-87395190D01*
X86325937Y-87511119D01*
X86264892Y-87752179D01*
X86264891Y-87752183D01*
X86249500Y-87937927D01*
X86249500Y-88899135D01*
X86248548Y-88914473D01*
X86245642Y-88937780D01*
X86249394Y-89028471D01*
X86249500Y-89033596D01*
X86249500Y-89062066D01*
X86251851Y-89090448D01*
X86252168Y-89095559D01*
X86255919Y-89186235D01*
X86260738Y-89209220D01*
X86262952Y-89224421D01*
X86264891Y-89247819D01*
X86287171Y-89335803D01*
X86288325Y-89340793D01*
X86306950Y-89429614D01*
X86315484Y-89451485D01*
X86320171Y-89466114D01*
X86325936Y-89488880D01*
X86362393Y-89571993D01*
X86364354Y-89576728D01*
X86397344Y-89661275D01*
X86409364Y-89681448D01*
X86416395Y-89695107D01*
X86425824Y-89716603D01*
X86425827Y-89716607D01*
X86475481Y-89792609D01*
X86478153Y-89796890D01*
X86524634Y-89874894D01*
X86539808Y-89892811D01*
X86548991Y-89905125D01*
X86561837Y-89924787D01*
X86623294Y-89991547D01*
X86626686Y-89995388D01*
X86645095Y-90017123D01*
X86665227Y-90037255D01*
X86668776Y-90040953D01*
X86730258Y-90107740D01*
X86748787Y-90122162D01*
X86760307Y-90132335D01*
X88016291Y-91388319D01*
X88046541Y-91437682D01*
X88051083Y-91495398D01*
X88028928Y-91548885D01*
X87984905Y-91586485D01*
X87928610Y-91600000D01*
X51924000Y-91600000D01*
X51862000Y-91583387D01*
X51816613Y-91538000D01*
X51800000Y-91476000D01*
X51800000Y-86803610D01*
X57102942Y-86803610D01*
X57149766Y-86840055D01*
X57368393Y-86958368D01*
X57603506Y-87039083D01*
X57848707Y-87080000D01*
X58097293Y-87080000D01*
X58342493Y-87039083D01*
X58577606Y-86958368D01*
X58796233Y-86840053D01*
X58843056Y-86803609D01*
X57973000Y-85933553D01*
X57102942Y-86803609D01*
X57102942Y-86803610D01*
X51800000Y-86803610D01*
X51800000Y-85580000D01*
X56467858Y-85580000D01*
X56488386Y-85827732D01*
X56549413Y-86068721D01*
X56649268Y-86296370D01*
X56749563Y-86449882D01*
X56749564Y-86449882D01*
X57619447Y-85580001D01*
X58326553Y-85580001D01*
X59196434Y-86449882D01*
X59296730Y-86296369D01*
X59396586Y-86068721D01*
X59457613Y-85827732D01*
X59478141Y-85580000D01*
X59457613Y-85332267D01*
X59436780Y-85250000D01*
X64650000Y-85250000D01*
X64650000Y-85847824D01*
X64656402Y-85907375D01*
X64706647Y-86042089D01*
X64792811Y-86157188D01*
X64907910Y-86243352D01*
X65042624Y-86293597D01*
X65102176Y-86300000D01*
X65700000Y-86300000D01*
X65700000Y-85250000D01*
X66200000Y-85250000D01*
X66200000Y-86300000D01*
X66797824Y-86300000D01*
X66857375Y-86293597D01*
X66992089Y-86243352D01*
X67107188Y-86157188D01*
X67193352Y-86042089D01*
X67243597Y-85907375D01*
X67250000Y-85847824D01*
X67250000Y-85250000D01*
X72700000Y-85250000D01*
X72700000Y-85847824D01*
X72706402Y-85907375D01*
X72756647Y-86042089D01*
X72842811Y-86157188D01*
X72957910Y-86243352D01*
X73092624Y-86293597D01*
X73152176Y-86300000D01*
X73750000Y-86300000D01*
X73750000Y-85250000D01*
X74250000Y-85250000D01*
X74250000Y-86300000D01*
X74847824Y-86300000D01*
X74907375Y-86293597D01*
X75042089Y-86243352D01*
X75157188Y-86157188D01*
X75243352Y-86042089D01*
X75293597Y-85907375D01*
X75300000Y-85847824D01*
X75300000Y-85250000D01*
X80700000Y-85250000D01*
X80700000Y-85847824D01*
X80706402Y-85907375D01*
X80756647Y-86042089D01*
X80842811Y-86157188D01*
X80957910Y-86243352D01*
X81092624Y-86293597D01*
X81152176Y-86300000D01*
X81750000Y-86300000D01*
X81750000Y-85250000D01*
X82250000Y-85250000D01*
X82250000Y-86300000D01*
X82847824Y-86300000D01*
X82907375Y-86293597D01*
X83042089Y-86243352D01*
X83157188Y-86157188D01*
X83243352Y-86042089D01*
X83293597Y-85907375D01*
X83300000Y-85847824D01*
X83300000Y-85250000D01*
X82250000Y-85250000D01*
X81750000Y-85250000D01*
X80700000Y-85250000D01*
X75300000Y-85250000D01*
X74250000Y-85250000D01*
X73750000Y-85250000D01*
X72700000Y-85250000D01*
X67250000Y-85250000D01*
X66200000Y-85250000D01*
X65700000Y-85250000D01*
X64650000Y-85250000D01*
X59436780Y-85250000D01*
X59396586Y-85091278D01*
X59296730Y-84863630D01*
X59196434Y-84710116D01*
X58326553Y-85580000D01*
X58326553Y-85580001D01*
X57619447Y-85580001D01*
X57619447Y-85580000D01*
X56749564Y-84710116D01*
X56649266Y-84863634D01*
X56549413Y-85091278D01*
X56488386Y-85332267D01*
X56467858Y-85580000D01*
X51800000Y-85580000D01*
X51800000Y-84321465D01*
X51818812Y-84255803D01*
X51869540Y-84210064D01*
X51936792Y-84198127D01*
X52000163Y-84223612D01*
X52149766Y-84340053D01*
X52368393Y-84458368D01*
X52603506Y-84539083D01*
X52848707Y-84580000D01*
X53097293Y-84580000D01*
X53342493Y-84539083D01*
X53577606Y-84458368D01*
X53766045Y-84356390D01*
X57102942Y-84356390D01*
X57973000Y-85226447D01*
X57973001Y-85226447D01*
X58843057Y-84356390D01*
X58843056Y-84356388D01*
X58796235Y-84319947D01*
X58577606Y-84201631D01*
X58342493Y-84120916D01*
X58097293Y-84080000D01*
X57848707Y-84080000D01*
X57603506Y-84120916D01*
X57368393Y-84201631D01*
X57149764Y-84319946D01*
X57102942Y-84356388D01*
X57102942Y-84356390D01*
X53766045Y-84356390D01*
X53796233Y-84340053D01*
X53843056Y-84303609D01*
X52707128Y-83167681D01*
X52675034Y-83112094D01*
X52675034Y-83080001D01*
X53326553Y-83080001D01*
X54196434Y-83949882D01*
X54296730Y-83796369D01*
X54396586Y-83568721D01*
X54457613Y-83327732D01*
X54478141Y-83080000D01*
X54457613Y-82832267D01*
X54396586Y-82591278D01*
X54296730Y-82363630D01*
X54196434Y-82210116D01*
X53326553Y-83080000D01*
X53326553Y-83080001D01*
X52675034Y-83080001D01*
X52675034Y-83047906D01*
X52707128Y-82992319D01*
X53863128Y-81836319D01*
X53903356Y-81809439D01*
X53950809Y-81800000D01*
X56348638Y-81800000D01*
X56396091Y-81809439D01*
G37*
%TD.AperFunction*%
%TD*%
M02*
