%TF.GenerationSoftware,KiCad,Pcbnew,7.0.1-3b83917a11~172~ubuntu22.10.1*%
%TF.CreationDate,2023-09-25T18:41:39+02:00*%
%TF.ProjectId,led_boost_MIC3230,6c65645f-626f-46f7-9374-5f4d49433332,rev?*%
%TF.SameCoordinates,Original*%
%TF.FileFunction,Soldermask,Top*%
%TF.FilePolarity,Negative*%
%FSLAX46Y46*%
G04 Gerber Fmt 4.6, Leading zero omitted, Abs format (unit mm)*
G04 Created by KiCad (PCBNEW 7.0.1-3b83917a11~172~ubuntu22.10.1) date 2023-09-25 18:41:39*
%MOMM*%
%LPD*%
G01*
G04 APERTURE LIST*
G04 Aperture macros list*
%AMRoundRect*
0 Rectangle with rounded corners*
0 $1 Rounding radius*
0 $2 $3 $4 $5 $6 $7 $8 $9 X,Y pos of 4 corners*
0 Add a 4 corners polygon primitive as box body*
4,1,4,$2,$3,$4,$5,$6,$7,$8,$9,$2,$3,0*
0 Add four circle primitives for the rounded corners*
1,1,$1+$1,$2,$3*
1,1,$1+$1,$4,$5*
1,1,$1+$1,$6,$7*
1,1,$1+$1,$8,$9*
0 Add four rect primitives between the rounded corners*
20,1,$1+$1,$2,$3,$4,$5,0*
20,1,$1+$1,$4,$5,$6,$7,0*
20,1,$1+$1,$6,$7,$8,$9,0*
20,1,$1+$1,$8,$9,$2,$3,0*%
G04 Aperture macros list end*
%ADD10R,1.600000X1.600000*%
%ADD11C,1.600000*%
%ADD12C,2.000000*%
%ADD13C,3.200000*%
%ADD14R,1.905000X2.000000*%
%ADD15O,1.905000X2.000000*%
%ADD16R,2.000000X2.000000*%
%ADD17C,2.800000*%
%ADD18C,1.800000*%
%ADD19RoundRect,0.875000X0.875000X-2.125000X0.875000X2.125000X-0.875000X2.125000X-0.875000X-2.125000X0*%
%ADD20R,1.700000X1.700000*%
%ADD21O,1.700000X1.700000*%
%ADD22R,1.100000X1.800000*%
%ADD23RoundRect,0.275000X0.275000X0.625000X-0.275000X0.625000X-0.275000X-0.625000X0.275000X-0.625000X0*%
G04 APERTURE END LIST*
D10*
%TO.C,C8*%
X74000000Y-85000000D03*
D11*
X74000000Y-82500000D03*
%TD*%
D12*
%TO.C,J1*%
X52973000Y-67840000D03*
X57973000Y-70340000D03*
X52973000Y-72920000D03*
X57973000Y-75420000D03*
X52973000Y-78000000D03*
X57973000Y-80500000D03*
X52973000Y-83080000D03*
X57973000Y-85580000D03*
%TD*%
D13*
%TO.C,H2*%
X105000000Y-60000000D03*
%TD*%
D14*
%TO.C,Q1*%
X105000000Y-88000000D03*
D15*
X102460000Y-88000000D03*
X99920000Y-88000000D03*
%TD*%
D10*
%TO.C,C7*%
X65950000Y-85000000D03*
D11*
X65950000Y-82500000D03*
%TD*%
D16*
%TO.C,C3*%
X78000000Y-67632323D03*
D12*
X78000000Y-72632323D03*
%TD*%
D13*
%TO.C,H1*%
X50000000Y-60000000D03*
%TD*%
D17*
%TO.C,L1*%
X104783021Y-73466979D03*
X97216979Y-81033021D03*
%TD*%
D18*
%TO.C,RV1*%
X64642024Y-60077500D03*
X62142024Y-60077500D03*
X59642024Y-60077500D03*
D19*
X69742024Y-56377500D03*
X54742024Y-56377500D03*
%TD*%
D20*
%TO.C,J2*%
X91945000Y-54637500D03*
D21*
X89405000Y-54637500D03*
X86865000Y-54637500D03*
X84325000Y-54637500D03*
%TD*%
D16*
%TO.C,C4*%
X67500000Y-67500000D03*
D12*
X67500000Y-72500000D03*
%TD*%
D14*
%TO.C,D1*%
X92830000Y-88000000D03*
D15*
X90290000Y-88000000D03*
X87750000Y-88000000D03*
%TD*%
D16*
%TO.C,C1*%
X88500000Y-67632323D03*
D12*
X88500000Y-72632323D03*
%TD*%
D10*
%TO.C,C9*%
X82000000Y-85000000D03*
D11*
X82000000Y-82500000D03*
%TD*%
D22*
%TO.C,Q2*%
X91732500Y-61330000D03*
D23*
X90462500Y-63400000D03*
X89192500Y-61330000D03*
%TD*%
M02*
