%TF.GenerationSoftware,KiCad,Pcbnew,9.0.3*%
%TF.CreationDate,2026-07-09T10:13:34+02:00*%
%TF.ProjectId,Pwr_breakout,5077725f-6272-4656-916b-6f75742e6b69,rev?*%
%TF.SameCoordinates,Original*%
%TF.FileFunction,Copper,L2,Bot*%
%TF.FilePolarity,Positive*%
%FSLAX46Y46*%
G04 Gerber Fmt 4.6, Leading zero omitted, Abs format (unit mm)*
G04 Created by KiCad (PCBNEW 9.0.3) date 2026-07-09 10:13:34*
%MOMM*%
%LPD*%
G01*
G04 APERTURE LIST*
%TA.AperFunction,ComponentPad*%
%ADD10C,0.900000*%
%TD*%
%TA.AperFunction,ComponentPad*%
%ADD11C,12.800000*%
%TD*%
%TA.AperFunction,ComponentPad*%
%ADD12C,4.000000*%
%TD*%
%TA.AperFunction,ComponentPad*%
%ADD13R,3.000000X3.000000*%
%TD*%
%TA.AperFunction,ComponentPad*%
%ADD14C,3.000000*%
%TD*%
G04 APERTURE END LIST*
D10*
%TO.P,H2,1,1*%
%TO.N,GND*%
X187200000Y-96000000D03*
X188605887Y-92605887D03*
X188605887Y-99394113D03*
X192000000Y-91200000D03*
D11*
X192000000Y-96000000D03*
D10*
X192000000Y-100800000D03*
X195394113Y-92605887D03*
X195394113Y-99394113D03*
X196800000Y-96000000D03*
%TD*%
%TO.P,H1,1,1*%
%TO.N,GND*%
X87200000Y-96000000D03*
X88605887Y-92605887D03*
X88605887Y-99394113D03*
X92000000Y-91200000D03*
D11*
X92000000Y-96000000D03*
D10*
X92000000Y-100800000D03*
X95394113Y-92605887D03*
X95394113Y-99394113D03*
X96800000Y-96000000D03*
%TD*%
D12*
%TO.P,J1,1,1*%
%TO.N,VD*%
X60626667Y-87000000D03*
%TO.P,J1,2,2*%
X75926667Y-87000000D03*
%TD*%
D13*
%TO.P,J31,1,Pin_1*%
%TO.N,VD*%
X95126667Y-116500000D03*
D14*
%TO.P,J31,2,Pin_2*%
%TO.N,GND*%
X100206667Y-116500000D03*
%TD*%
D13*
%TO.P,J9,1,Pin_1*%
%TO.N,VD*%
X134166667Y-76500000D03*
D14*
%TO.P,J9,2,Pin_2*%
%TO.N,GND*%
X129086667Y-76500000D03*
%TD*%
D13*
%TO.P,J21,1,Pin_1*%
%TO.N,VD*%
X208460000Y-116500000D03*
D14*
%TO.P,J21,2,Pin_2*%
%TO.N,GND*%
X213540000Y-116500000D03*
%TD*%
D13*
%TO.P,J24,1,Pin_1*%
%TO.N,VD*%
X174460000Y-116500000D03*
D14*
%TO.P,J24,2,Pin_2*%
%TO.N,GND*%
X179540000Y-116500000D03*
%TD*%
D13*
%TO.P,J30,1,Pin_1*%
%TO.N,VD*%
X106460000Y-116500000D03*
D14*
%TO.P,J30,2,Pin_2*%
%TO.N,GND*%
X111540000Y-116500000D03*
%TD*%
D13*
%TO.P,J29,1,Pin_1*%
%TO.N,VD*%
X117793334Y-116500000D03*
D14*
%TO.P,J29,2,Pin_2*%
%TO.N,GND*%
X122873334Y-116500000D03*
%TD*%
D13*
%TO.P,J32,1,Pin_1*%
%TO.N,VD*%
X83793334Y-116500000D03*
D14*
%TO.P,J32,2,Pin_2*%
%TO.N,GND*%
X88873334Y-116500000D03*
%TD*%
D13*
%TO.P,J11,1,Pin_1*%
%TO.N,VD*%
X156833334Y-76500000D03*
D14*
%TO.P,J11,2,Pin_2*%
%TO.N,GND*%
X151753334Y-76500000D03*
%TD*%
D13*
%TO.P,J7,1,Pin_1*%
%TO.N,VD*%
X111500000Y-76500000D03*
D14*
%TO.P,J7,2,Pin_2*%
%TO.N,GND*%
X106420000Y-76500000D03*
%TD*%
D13*
%TO.P,J33,1,Pin_1*%
%TO.N,VD*%
X72460000Y-116500000D03*
D14*
%TO.P,J33,2,Pin_2*%
%TO.N,GND*%
X77540000Y-116500000D03*
%TD*%
D13*
%TO.P,J18,1,Pin_1*%
%TO.N,VD*%
X221500000Y-88140000D03*
D14*
%TO.P,J18,2,Pin_2*%
%TO.N,GND*%
X221500000Y-93220000D03*
%TD*%
D13*
%TO.P,J26,1,Pin_1*%
%TO.N,VD*%
X151793334Y-116500000D03*
D14*
%TO.P,J26,2,Pin_2*%
%TO.N,GND*%
X156873334Y-116500000D03*
%TD*%
D13*
%TO.P,J10,1,Pin_1*%
%TO.N,VD*%
X145500000Y-76500000D03*
D14*
%TO.P,J10,2,Pin_2*%
%TO.N,GND*%
X140420000Y-76500000D03*
%TD*%
D13*
%TO.P,J5,1,Pin_1*%
%TO.N,VD*%
X88833334Y-76500000D03*
D14*
%TO.P,J5,2,Pin_2*%
%TO.N,GND*%
X83753334Y-76500000D03*
%TD*%
D13*
%TO.P,J4,1,Pin_1*%
%TO.N,VD*%
X77500000Y-76500000D03*
D14*
%TO.P,J4,2,Pin_2*%
%TO.N,GND*%
X72420000Y-76500000D03*
%TD*%
D13*
%TO.P,J6,1,Pin_1*%
%TO.N,VD*%
X100166667Y-76500000D03*
D14*
%TO.P,J6,2,Pin_2*%
%TO.N,GND*%
X95086667Y-76500000D03*
%TD*%
D13*
%TO.P,J8,1,Pin_1*%
%TO.N,VD*%
X122833334Y-76500000D03*
D14*
%TO.P,J8,2,Pin_2*%
%TO.N,GND*%
X117753334Y-76500000D03*
%TD*%
D13*
%TO.P,J13,1,Pin_1*%
%TO.N,VD*%
X179500000Y-76500000D03*
D14*
%TO.P,J13,2,Pin_2*%
%TO.N,GND*%
X174420000Y-76500000D03*
%TD*%
D13*
%TO.P,J16,1,Pin_1*%
%TO.N,VD*%
X213500000Y-76500000D03*
D14*
%TO.P,J16,2,Pin_2*%
%TO.N,GND*%
X208420000Y-76500000D03*
%TD*%
D13*
%TO.P,J27,1,Pin_1*%
%TO.N,VD*%
X140460000Y-116500000D03*
D14*
%TO.P,J27,2,Pin_2*%
%TO.N,GND*%
X145540000Y-116500000D03*
%TD*%
D13*
%TO.P,J15,1,Pin_1*%
%TO.N,VD*%
X202166667Y-76500000D03*
D14*
%TO.P,J15,2,Pin_2*%
%TO.N,GND*%
X197086667Y-76500000D03*
%TD*%
D13*
%TO.P,J17,1,Pin_1*%
%TO.N,VD*%
X221500000Y-75960000D03*
D14*
%TO.P,J17,2,Pin_2*%
%TO.N,GND*%
X221500000Y-81040000D03*
%TD*%
D13*
%TO.P,J3,1,Pin_1*%
%TO.N,VD*%
X66166667Y-76500000D03*
D14*
%TO.P,J3,2,Pin_2*%
%TO.N,GND*%
X61086667Y-76500000D03*
%TD*%
D13*
%TO.P,J28,1,Pin_1*%
%TO.N,VD*%
X129126667Y-116500000D03*
D14*
%TO.P,J28,2,Pin_2*%
%TO.N,GND*%
X134206667Y-116500000D03*
%TD*%
D13*
%TO.P,J23,1,Pin_1*%
%TO.N,VD*%
X185793334Y-116500000D03*
D14*
%TO.P,J23,2,Pin_2*%
%TO.N,GND*%
X190873334Y-116500000D03*
%TD*%
D13*
%TO.P,J22,1,Pin_1*%
%TO.N,VD*%
X197126667Y-116500000D03*
D14*
%TO.P,J22,2,Pin_2*%
%TO.N,GND*%
X202206667Y-116500000D03*
%TD*%
D13*
%TO.P,J34,1,Pin_1*%
%TO.N,VD*%
X61126667Y-116500000D03*
D14*
%TO.P,J34,2,Pin_2*%
%TO.N,GND*%
X66206667Y-116500000D03*
%TD*%
D13*
%TO.P,J19,1,Pin_1*%
%TO.N,VD*%
X221500000Y-100320000D03*
D14*
%TO.P,J19,2,Pin_2*%
%TO.N,GND*%
X221500000Y-105400000D03*
%TD*%
D13*
%TO.P,J25,1,Pin_1*%
%TO.N,VD*%
X163126667Y-116500000D03*
D14*
%TO.P,J25,2,Pin_2*%
%TO.N,GND*%
X168206667Y-116500000D03*
%TD*%
D13*
%TO.P,J14,1,Pin_1*%
%TO.N,VD*%
X190833334Y-76500000D03*
D14*
%TO.P,J14,2,Pin_2*%
%TO.N,GND*%
X185753334Y-76500000D03*
%TD*%
D12*
%TO.P,J2,1,1*%
%TO.N,GND*%
X60626667Y-106000000D03*
%TO.P,J2,2,2*%
X75926667Y-106000000D03*
%TD*%
D13*
%TO.P,J20,1,Pin_1*%
%TO.N,VD*%
X221500000Y-112500000D03*
D14*
%TO.P,J20,2,Pin_2*%
%TO.N,GND*%
X221500000Y-117580000D03*
%TD*%
D13*
%TO.P,J12,1,Pin_1*%
%TO.N,VD*%
X168166667Y-76500000D03*
D14*
%TO.P,J12,2,Pin_2*%
%TO.N,GND*%
X163086667Y-76500000D03*
%TD*%
%TA.AperFunction,Conductor*%
%TO.N,GND*%
G36*
X225442539Y-73020185D02*
G01*
X225488294Y-73072989D01*
X225499500Y-73124500D01*
X225499500Y-119875500D01*
X225479815Y-119942539D01*
X225427011Y-119988294D01*
X225375500Y-119999500D01*
X59124500Y-119999500D01*
X59057461Y-119979815D01*
X59011706Y-119927011D01*
X59000500Y-119875500D01*
X59000500Y-118371271D01*
X59020185Y-118304232D01*
X59072989Y-118258477D01*
X59142147Y-118248533D01*
X59205703Y-118277558D01*
X59223763Y-118296956D01*
X59269121Y-118357546D01*
X59315310Y-118392123D01*
X59384331Y-118443793D01*
X59384338Y-118443797D01*
X59519184Y-118494091D01*
X59519183Y-118494091D01*
X59526111Y-118494835D01*
X59578794Y-118500500D01*
X62674539Y-118500499D01*
X62734150Y-118494091D01*
X62868998Y-118443796D01*
X62984213Y-118357546D01*
X63070463Y-118242331D01*
X63120758Y-118107483D01*
X63127167Y-118047873D01*
X63127166Y-116368905D01*
X64206667Y-116368905D01*
X64206667Y-116631094D01*
X64240887Y-116891009D01*
X64240889Y-116891020D01*
X64308742Y-117144255D01*
X64409071Y-117386471D01*
X64409076Y-117386482D01*
X64540155Y-117613516D01*
X64540161Y-117613524D01*
X64626747Y-117726365D01*
X65521434Y-116831677D01*
X65533164Y-116859995D01*
X65616337Y-116984472D01*
X65722195Y-117090330D01*
X65846672Y-117173503D01*
X65874987Y-117185231D01*
X64980300Y-118079917D01*
X64980300Y-118079918D01*
X65093142Y-118166505D01*
X65093150Y-118166511D01*
X65320184Y-118297590D01*
X65320195Y-118297595D01*
X65562411Y-118397924D01*
X65815646Y-118465777D01*
X65815657Y-118465779D01*
X66075572Y-118499999D01*
X66075587Y-118500000D01*
X66337747Y-118500000D01*
X66337761Y-118499999D01*
X66597676Y-118465779D01*
X66597687Y-118465777D01*
X66850922Y-118397924D01*
X67093138Y-118297595D01*
X67093149Y-118297590D01*
X67320183Y-118166511D01*
X67320201Y-118166499D01*
X67433032Y-118079919D01*
X67433032Y-118079917D01*
X66538346Y-117185231D01*
X66566662Y-117173503D01*
X66691139Y-117090330D01*
X66796997Y-116984472D01*
X66880170Y-116859995D01*
X66891898Y-116831679D01*
X67786584Y-117726365D01*
X67786586Y-117726365D01*
X67873166Y-117613534D01*
X67873178Y-117613516D01*
X68004257Y-117386482D01*
X68004262Y-117386471D01*
X68104591Y-117144255D01*
X68172444Y-116891020D01*
X68172446Y-116891009D01*
X68206666Y-116631094D01*
X68206667Y-116631080D01*
X68206667Y-116368919D01*
X68206666Y-116368905D01*
X68172446Y-116108990D01*
X68172444Y-116108979D01*
X68104591Y-115855744D01*
X68004262Y-115613528D01*
X68004257Y-115613517D01*
X67873178Y-115386483D01*
X67873172Y-115386475D01*
X67786585Y-115273633D01*
X67786584Y-115273633D01*
X66891898Y-116168320D01*
X66880170Y-116140005D01*
X66796997Y-116015528D01*
X66691139Y-115909670D01*
X66566662Y-115826497D01*
X66538344Y-115814767D01*
X67400977Y-114952135D01*
X70459500Y-114952135D01*
X70459500Y-118047870D01*
X70459501Y-118047876D01*
X70465908Y-118107483D01*
X70516202Y-118242328D01*
X70516206Y-118242335D01*
X70602452Y-118357544D01*
X70602455Y-118357547D01*
X70717664Y-118443793D01*
X70717671Y-118443797D01*
X70852517Y-118494091D01*
X70852516Y-118494091D01*
X70859444Y-118494835D01*
X70912127Y-118500500D01*
X74007872Y-118500499D01*
X74067483Y-118494091D01*
X74202331Y-118443796D01*
X74317546Y-118357546D01*
X74403796Y-118242331D01*
X74454091Y-118107483D01*
X74460500Y-118047873D01*
X74460499Y-116368905D01*
X75540000Y-116368905D01*
X75540000Y-116631094D01*
X75574220Y-116891009D01*
X75574222Y-116891020D01*
X75642075Y-117144255D01*
X75742404Y-117386471D01*
X75742409Y-117386482D01*
X75873488Y-117613516D01*
X75873494Y-117613524D01*
X75960080Y-117726365D01*
X76854767Y-116831677D01*
X76866497Y-116859995D01*
X76949670Y-116984472D01*
X77055528Y-117090330D01*
X77180005Y-117173503D01*
X77208320Y-117185231D01*
X76313633Y-118079917D01*
X76313633Y-118079918D01*
X76426475Y-118166505D01*
X76426483Y-118166511D01*
X76653517Y-118297590D01*
X76653528Y-118297595D01*
X76895744Y-118397924D01*
X77148979Y-118465777D01*
X77148990Y-118465779D01*
X77408905Y-118499999D01*
X77408920Y-118500000D01*
X77671080Y-118500000D01*
X77671094Y-118499999D01*
X77931009Y-118465779D01*
X77931020Y-118465777D01*
X78184255Y-118397924D01*
X78426471Y-118297595D01*
X78426482Y-118297590D01*
X78653516Y-118166511D01*
X78653534Y-118166499D01*
X78766365Y-118079919D01*
X78766365Y-118079917D01*
X77871679Y-117185231D01*
X77899995Y-117173503D01*
X78024472Y-117090330D01*
X78130330Y-116984472D01*
X78213503Y-116859995D01*
X78225231Y-116831679D01*
X79119917Y-117726365D01*
X79119919Y-117726365D01*
X79206499Y-117613534D01*
X79206511Y-117613516D01*
X79337590Y-117386482D01*
X79337595Y-117386471D01*
X79437924Y-117144255D01*
X79505777Y-116891020D01*
X79505779Y-116891009D01*
X79539999Y-116631094D01*
X79540000Y-116631080D01*
X79540000Y-116368919D01*
X79539999Y-116368905D01*
X79505779Y-116108990D01*
X79505777Y-116108979D01*
X79437924Y-115855744D01*
X79337595Y-115613528D01*
X79337590Y-115613517D01*
X79206511Y-115386483D01*
X79206505Y-115386475D01*
X79119918Y-115273633D01*
X79119917Y-115273633D01*
X78225231Y-116168320D01*
X78213503Y-116140005D01*
X78130330Y-116015528D01*
X78024472Y-115909670D01*
X77899995Y-115826497D01*
X77871677Y-115814767D01*
X78734310Y-114952135D01*
X81792834Y-114952135D01*
X81792834Y-118047870D01*
X81792835Y-118047876D01*
X81799242Y-118107483D01*
X81849536Y-118242328D01*
X81849540Y-118242335D01*
X81935786Y-118357544D01*
X81935789Y-118357547D01*
X82050998Y-118443793D01*
X82051005Y-118443797D01*
X82185851Y-118494091D01*
X82185850Y-118494091D01*
X82192778Y-118494835D01*
X82245461Y-118500500D01*
X85341206Y-118500499D01*
X85400817Y-118494091D01*
X85535665Y-118443796D01*
X85650880Y-118357546D01*
X85737130Y-118242331D01*
X85787425Y-118107483D01*
X85793834Y-118047873D01*
X85793833Y-116368905D01*
X86873334Y-116368905D01*
X86873334Y-116631094D01*
X86907554Y-116891009D01*
X86907556Y-116891020D01*
X86975409Y-117144255D01*
X87075738Y-117386471D01*
X87075743Y-117386482D01*
X87206822Y-117613516D01*
X87206828Y-117613524D01*
X87293414Y-117726365D01*
X88188101Y-116831677D01*
X88199831Y-116859995D01*
X88283004Y-116984472D01*
X88388862Y-117090330D01*
X88513339Y-117173503D01*
X88541654Y-117185231D01*
X87646967Y-118079917D01*
X87646967Y-118079918D01*
X87759809Y-118166505D01*
X87759817Y-118166511D01*
X87986851Y-118297590D01*
X87986862Y-118297595D01*
X88229078Y-118397924D01*
X88482313Y-118465777D01*
X88482324Y-118465779D01*
X88742239Y-118499999D01*
X88742254Y-118500000D01*
X89004414Y-118500000D01*
X89004428Y-118499999D01*
X89264343Y-118465779D01*
X89264354Y-118465777D01*
X89517589Y-118397924D01*
X89759805Y-118297595D01*
X89759816Y-118297590D01*
X89986850Y-118166511D01*
X89986868Y-118166499D01*
X90099699Y-118079919D01*
X90099699Y-118079917D01*
X89205013Y-117185231D01*
X89233329Y-117173503D01*
X89357806Y-117090330D01*
X89463664Y-116984472D01*
X89546837Y-116859995D01*
X89558565Y-116831679D01*
X90453251Y-117726365D01*
X90453253Y-117726365D01*
X90539833Y-117613534D01*
X90539845Y-117613516D01*
X90670924Y-117386482D01*
X90670929Y-117386471D01*
X90771258Y-117144255D01*
X90839111Y-116891020D01*
X90839113Y-116891009D01*
X90873333Y-116631094D01*
X90873334Y-116631080D01*
X90873334Y-116368919D01*
X90873333Y-116368905D01*
X90839113Y-116108990D01*
X90839111Y-116108979D01*
X90771258Y-115855744D01*
X90670929Y-115613528D01*
X90670924Y-115613517D01*
X90539845Y-115386483D01*
X90539839Y-115386475D01*
X90453252Y-115273633D01*
X90453251Y-115273633D01*
X89558565Y-116168320D01*
X89546837Y-116140005D01*
X89463664Y-116015528D01*
X89357806Y-115909670D01*
X89233329Y-115826497D01*
X89205011Y-115814767D01*
X90067644Y-114952135D01*
X93126167Y-114952135D01*
X93126167Y-118047870D01*
X93126168Y-118047876D01*
X93132575Y-118107483D01*
X93182869Y-118242328D01*
X93182873Y-118242335D01*
X93269119Y-118357544D01*
X93269122Y-118357547D01*
X93384331Y-118443793D01*
X93384338Y-118443797D01*
X93519184Y-118494091D01*
X93519183Y-118494091D01*
X93526111Y-118494835D01*
X93578794Y-118500500D01*
X96674539Y-118500499D01*
X96734150Y-118494091D01*
X96868998Y-118443796D01*
X96984213Y-118357546D01*
X97070463Y-118242331D01*
X97120758Y-118107483D01*
X97127167Y-118047873D01*
X97127166Y-116368905D01*
X98206667Y-116368905D01*
X98206667Y-116631094D01*
X98240887Y-116891009D01*
X98240889Y-116891020D01*
X98308742Y-117144255D01*
X98409071Y-117386471D01*
X98409076Y-117386482D01*
X98540155Y-117613516D01*
X98540161Y-117613524D01*
X98626747Y-117726365D01*
X99521434Y-116831677D01*
X99533164Y-116859995D01*
X99616337Y-116984472D01*
X99722195Y-117090330D01*
X99846672Y-117173503D01*
X99874987Y-117185231D01*
X98980300Y-118079917D01*
X98980300Y-118079918D01*
X99093142Y-118166505D01*
X99093150Y-118166511D01*
X99320184Y-118297590D01*
X99320195Y-118297595D01*
X99562411Y-118397924D01*
X99815646Y-118465777D01*
X99815657Y-118465779D01*
X100075572Y-118499999D01*
X100075587Y-118500000D01*
X100337747Y-118500000D01*
X100337761Y-118499999D01*
X100597676Y-118465779D01*
X100597687Y-118465777D01*
X100850922Y-118397924D01*
X101093138Y-118297595D01*
X101093149Y-118297590D01*
X101320183Y-118166511D01*
X101320201Y-118166499D01*
X101433032Y-118079919D01*
X101433032Y-118079917D01*
X100538346Y-117185231D01*
X100566662Y-117173503D01*
X100691139Y-117090330D01*
X100796997Y-116984472D01*
X100880170Y-116859995D01*
X100891898Y-116831679D01*
X101786584Y-117726365D01*
X101786586Y-117726365D01*
X101873166Y-117613534D01*
X101873178Y-117613516D01*
X102004257Y-117386482D01*
X102004262Y-117386471D01*
X102104591Y-117144255D01*
X102172444Y-116891020D01*
X102172446Y-116891009D01*
X102206666Y-116631094D01*
X102206667Y-116631080D01*
X102206667Y-116368919D01*
X102206666Y-116368905D01*
X102172446Y-116108990D01*
X102172444Y-116108979D01*
X102104591Y-115855744D01*
X102004262Y-115613528D01*
X102004257Y-115613517D01*
X101873178Y-115386483D01*
X101873172Y-115386475D01*
X101786585Y-115273633D01*
X101786584Y-115273633D01*
X100891898Y-116168320D01*
X100880170Y-116140005D01*
X100796997Y-116015528D01*
X100691139Y-115909670D01*
X100566662Y-115826497D01*
X100538344Y-115814767D01*
X101400977Y-114952135D01*
X104459500Y-114952135D01*
X104459500Y-118047870D01*
X104459501Y-118047876D01*
X104465908Y-118107483D01*
X104516202Y-118242328D01*
X104516206Y-118242335D01*
X104602452Y-118357544D01*
X104602455Y-118357547D01*
X104717664Y-118443793D01*
X104717671Y-118443797D01*
X104852517Y-118494091D01*
X104852516Y-118494091D01*
X104859444Y-118494835D01*
X104912127Y-118500500D01*
X108007872Y-118500499D01*
X108067483Y-118494091D01*
X108202331Y-118443796D01*
X108317546Y-118357546D01*
X108403796Y-118242331D01*
X108454091Y-118107483D01*
X108460500Y-118047873D01*
X108460499Y-116368905D01*
X109540000Y-116368905D01*
X109540000Y-116631094D01*
X109574220Y-116891009D01*
X109574222Y-116891020D01*
X109642075Y-117144255D01*
X109742404Y-117386471D01*
X109742409Y-117386482D01*
X109873488Y-117613516D01*
X109873494Y-117613524D01*
X109960080Y-117726365D01*
X110854767Y-116831677D01*
X110866497Y-116859995D01*
X110949670Y-116984472D01*
X111055528Y-117090330D01*
X111180005Y-117173503D01*
X111208320Y-117185231D01*
X110313633Y-118079917D01*
X110313633Y-118079918D01*
X110426475Y-118166505D01*
X110426483Y-118166511D01*
X110653517Y-118297590D01*
X110653528Y-118297595D01*
X110895744Y-118397924D01*
X111148979Y-118465777D01*
X111148990Y-118465779D01*
X111408905Y-118499999D01*
X111408920Y-118500000D01*
X111671080Y-118500000D01*
X111671094Y-118499999D01*
X111931009Y-118465779D01*
X111931020Y-118465777D01*
X112184255Y-118397924D01*
X112426471Y-118297595D01*
X112426482Y-118297590D01*
X112653516Y-118166511D01*
X112653534Y-118166499D01*
X112766365Y-118079919D01*
X112766365Y-118079917D01*
X111871679Y-117185231D01*
X111899995Y-117173503D01*
X112024472Y-117090330D01*
X112130330Y-116984472D01*
X112213503Y-116859995D01*
X112225231Y-116831679D01*
X113119917Y-117726365D01*
X113119919Y-117726365D01*
X113206499Y-117613534D01*
X113206511Y-117613516D01*
X113337590Y-117386482D01*
X113337595Y-117386471D01*
X113437924Y-117144255D01*
X113505777Y-116891020D01*
X113505779Y-116891009D01*
X113539999Y-116631094D01*
X113540000Y-116631080D01*
X113540000Y-116368919D01*
X113539999Y-116368905D01*
X113505779Y-116108990D01*
X113505777Y-116108979D01*
X113437924Y-115855744D01*
X113337595Y-115613528D01*
X113337590Y-115613517D01*
X113206511Y-115386483D01*
X113206505Y-115386475D01*
X113119918Y-115273633D01*
X113119917Y-115273633D01*
X112225231Y-116168320D01*
X112213503Y-116140005D01*
X112130330Y-116015528D01*
X112024472Y-115909670D01*
X111899995Y-115826497D01*
X111871677Y-115814767D01*
X112734310Y-114952135D01*
X115792834Y-114952135D01*
X115792834Y-118047870D01*
X115792835Y-118047876D01*
X115799242Y-118107483D01*
X115849536Y-118242328D01*
X115849540Y-118242335D01*
X115935786Y-118357544D01*
X115935789Y-118357547D01*
X116050998Y-118443793D01*
X116051005Y-118443797D01*
X116185851Y-118494091D01*
X116185850Y-118494091D01*
X116192778Y-118494835D01*
X116245461Y-118500500D01*
X119341206Y-118500499D01*
X119400817Y-118494091D01*
X119535665Y-118443796D01*
X119650880Y-118357546D01*
X119737130Y-118242331D01*
X119787425Y-118107483D01*
X119793834Y-118047873D01*
X119793833Y-116368905D01*
X120873334Y-116368905D01*
X120873334Y-116631094D01*
X120907554Y-116891009D01*
X120907556Y-116891020D01*
X120975409Y-117144255D01*
X121075738Y-117386471D01*
X121075743Y-117386482D01*
X121206822Y-117613516D01*
X121206828Y-117613524D01*
X121293414Y-117726365D01*
X122188101Y-116831677D01*
X122199831Y-116859995D01*
X122283004Y-116984472D01*
X122388862Y-117090330D01*
X122513339Y-117173503D01*
X122541654Y-117185231D01*
X121646967Y-118079917D01*
X121646967Y-118079918D01*
X121759809Y-118166505D01*
X121759817Y-118166511D01*
X121986851Y-118297590D01*
X121986862Y-118297595D01*
X122229078Y-118397924D01*
X122482313Y-118465777D01*
X122482324Y-118465779D01*
X122742239Y-118499999D01*
X122742254Y-118500000D01*
X123004414Y-118500000D01*
X123004428Y-118499999D01*
X123264343Y-118465779D01*
X123264354Y-118465777D01*
X123517589Y-118397924D01*
X123759805Y-118297595D01*
X123759816Y-118297590D01*
X123986850Y-118166511D01*
X123986868Y-118166499D01*
X124099699Y-118079919D01*
X124099699Y-118079917D01*
X123205013Y-117185231D01*
X123233329Y-117173503D01*
X123357806Y-117090330D01*
X123463664Y-116984472D01*
X123546837Y-116859995D01*
X123558565Y-116831679D01*
X124453251Y-117726365D01*
X124453253Y-117726365D01*
X124539833Y-117613534D01*
X124539845Y-117613516D01*
X124670924Y-117386482D01*
X124670929Y-117386471D01*
X124771258Y-117144255D01*
X124839111Y-116891020D01*
X124839113Y-116891009D01*
X124873333Y-116631094D01*
X124873334Y-116631080D01*
X124873334Y-116368919D01*
X124873333Y-116368905D01*
X124839113Y-116108990D01*
X124839111Y-116108979D01*
X124771258Y-115855744D01*
X124670929Y-115613528D01*
X124670924Y-115613517D01*
X124539845Y-115386483D01*
X124539839Y-115386475D01*
X124453252Y-115273633D01*
X124453251Y-115273633D01*
X123558565Y-116168320D01*
X123546837Y-116140005D01*
X123463664Y-116015528D01*
X123357806Y-115909670D01*
X123233329Y-115826497D01*
X123205011Y-115814767D01*
X124067644Y-114952135D01*
X127126167Y-114952135D01*
X127126167Y-118047870D01*
X127126168Y-118047876D01*
X127132575Y-118107483D01*
X127182869Y-118242328D01*
X127182873Y-118242335D01*
X127269119Y-118357544D01*
X127269122Y-118357547D01*
X127384331Y-118443793D01*
X127384338Y-118443797D01*
X127519184Y-118494091D01*
X127519183Y-118494091D01*
X127526111Y-118494835D01*
X127578794Y-118500500D01*
X130674539Y-118500499D01*
X130734150Y-118494091D01*
X130868998Y-118443796D01*
X130984213Y-118357546D01*
X131070463Y-118242331D01*
X131120758Y-118107483D01*
X131127167Y-118047873D01*
X131127166Y-116368905D01*
X132206667Y-116368905D01*
X132206667Y-116631094D01*
X132240887Y-116891009D01*
X132240889Y-116891020D01*
X132308742Y-117144255D01*
X132409071Y-117386471D01*
X132409076Y-117386482D01*
X132540155Y-117613516D01*
X132540161Y-117613524D01*
X132626747Y-117726365D01*
X133521434Y-116831677D01*
X133533164Y-116859995D01*
X133616337Y-116984472D01*
X133722195Y-117090330D01*
X133846672Y-117173503D01*
X133874987Y-117185231D01*
X132980300Y-118079917D01*
X132980300Y-118079918D01*
X133093142Y-118166505D01*
X133093150Y-118166511D01*
X133320184Y-118297590D01*
X133320195Y-118297595D01*
X133562411Y-118397924D01*
X133815646Y-118465777D01*
X133815657Y-118465779D01*
X134075572Y-118499999D01*
X134075587Y-118500000D01*
X134337747Y-118500000D01*
X134337761Y-118499999D01*
X134597676Y-118465779D01*
X134597687Y-118465777D01*
X134850922Y-118397924D01*
X135093138Y-118297595D01*
X135093149Y-118297590D01*
X135320183Y-118166511D01*
X135320201Y-118166499D01*
X135433032Y-118079919D01*
X135433032Y-118079917D01*
X134538346Y-117185231D01*
X134566662Y-117173503D01*
X134691139Y-117090330D01*
X134796997Y-116984472D01*
X134880170Y-116859995D01*
X134891898Y-116831679D01*
X135786584Y-117726365D01*
X135786586Y-117726365D01*
X135873166Y-117613534D01*
X135873178Y-117613516D01*
X136004257Y-117386482D01*
X136004262Y-117386471D01*
X136104591Y-117144255D01*
X136172444Y-116891020D01*
X136172446Y-116891009D01*
X136206666Y-116631094D01*
X136206667Y-116631080D01*
X136206667Y-116368919D01*
X136206666Y-116368905D01*
X136172446Y-116108990D01*
X136172444Y-116108979D01*
X136104591Y-115855744D01*
X136004262Y-115613528D01*
X136004257Y-115613517D01*
X135873178Y-115386483D01*
X135873172Y-115386475D01*
X135786585Y-115273633D01*
X135786584Y-115273633D01*
X134891898Y-116168320D01*
X134880170Y-116140005D01*
X134796997Y-116015528D01*
X134691139Y-115909670D01*
X134566662Y-115826497D01*
X134538344Y-115814767D01*
X135400977Y-114952135D01*
X138459500Y-114952135D01*
X138459500Y-118047870D01*
X138459501Y-118047876D01*
X138465908Y-118107483D01*
X138516202Y-118242328D01*
X138516206Y-118242335D01*
X138602452Y-118357544D01*
X138602455Y-118357547D01*
X138717664Y-118443793D01*
X138717671Y-118443797D01*
X138852517Y-118494091D01*
X138852516Y-118494091D01*
X138859444Y-118494835D01*
X138912127Y-118500500D01*
X142007872Y-118500499D01*
X142067483Y-118494091D01*
X142202331Y-118443796D01*
X142317546Y-118357546D01*
X142403796Y-118242331D01*
X142454091Y-118107483D01*
X142460500Y-118047873D01*
X142460499Y-116368905D01*
X143540000Y-116368905D01*
X143540000Y-116631094D01*
X143574220Y-116891009D01*
X143574222Y-116891020D01*
X143642075Y-117144255D01*
X143742404Y-117386471D01*
X143742409Y-117386482D01*
X143873488Y-117613516D01*
X143873494Y-117613524D01*
X143960080Y-117726365D01*
X144854767Y-116831677D01*
X144866497Y-116859995D01*
X144949670Y-116984472D01*
X145055528Y-117090330D01*
X145180005Y-117173503D01*
X145208320Y-117185231D01*
X144313633Y-118079917D01*
X144313633Y-118079918D01*
X144426475Y-118166505D01*
X144426483Y-118166511D01*
X144653517Y-118297590D01*
X144653528Y-118297595D01*
X144895744Y-118397924D01*
X145148979Y-118465777D01*
X145148990Y-118465779D01*
X145408905Y-118499999D01*
X145408920Y-118500000D01*
X145671080Y-118500000D01*
X145671094Y-118499999D01*
X145931009Y-118465779D01*
X145931020Y-118465777D01*
X146184255Y-118397924D01*
X146426471Y-118297595D01*
X146426482Y-118297590D01*
X146653516Y-118166511D01*
X146653534Y-118166499D01*
X146766365Y-118079919D01*
X146766365Y-118079917D01*
X145871679Y-117185231D01*
X145899995Y-117173503D01*
X146024472Y-117090330D01*
X146130330Y-116984472D01*
X146213503Y-116859995D01*
X146225231Y-116831679D01*
X147119917Y-117726365D01*
X147119919Y-117726365D01*
X147206499Y-117613534D01*
X147206511Y-117613516D01*
X147337590Y-117386482D01*
X147337595Y-117386471D01*
X147437924Y-117144255D01*
X147505777Y-116891020D01*
X147505779Y-116891009D01*
X147539999Y-116631094D01*
X147540000Y-116631080D01*
X147540000Y-116368919D01*
X147539999Y-116368905D01*
X147505779Y-116108990D01*
X147505777Y-116108979D01*
X147437924Y-115855744D01*
X147337595Y-115613528D01*
X147337590Y-115613517D01*
X147206511Y-115386483D01*
X147206505Y-115386475D01*
X147119918Y-115273633D01*
X147119917Y-115273633D01*
X146225231Y-116168320D01*
X146213503Y-116140005D01*
X146130330Y-116015528D01*
X146024472Y-115909670D01*
X145899995Y-115826497D01*
X145871677Y-115814767D01*
X146734310Y-114952135D01*
X149792834Y-114952135D01*
X149792834Y-118047870D01*
X149792835Y-118047876D01*
X149799242Y-118107483D01*
X149849536Y-118242328D01*
X149849540Y-118242335D01*
X149935786Y-118357544D01*
X149935789Y-118357547D01*
X150050998Y-118443793D01*
X150051005Y-118443797D01*
X150185851Y-118494091D01*
X150185850Y-118494091D01*
X150192778Y-118494835D01*
X150245461Y-118500500D01*
X153341206Y-118500499D01*
X153400817Y-118494091D01*
X153535665Y-118443796D01*
X153650880Y-118357546D01*
X153737130Y-118242331D01*
X153787425Y-118107483D01*
X153793834Y-118047873D01*
X153793833Y-116368905D01*
X154873334Y-116368905D01*
X154873334Y-116631094D01*
X154907554Y-116891009D01*
X154907556Y-116891020D01*
X154975409Y-117144255D01*
X155075738Y-117386471D01*
X155075743Y-117386482D01*
X155206822Y-117613516D01*
X155206828Y-117613524D01*
X155293414Y-117726365D01*
X156188101Y-116831677D01*
X156199831Y-116859995D01*
X156283004Y-116984472D01*
X156388862Y-117090330D01*
X156513339Y-117173503D01*
X156541654Y-117185231D01*
X155646967Y-118079917D01*
X155646967Y-118079918D01*
X155759809Y-118166505D01*
X155759817Y-118166511D01*
X155986851Y-118297590D01*
X155986862Y-118297595D01*
X156229078Y-118397924D01*
X156482313Y-118465777D01*
X156482324Y-118465779D01*
X156742239Y-118499999D01*
X156742254Y-118500000D01*
X157004414Y-118500000D01*
X157004428Y-118499999D01*
X157264343Y-118465779D01*
X157264354Y-118465777D01*
X157517589Y-118397924D01*
X157759805Y-118297595D01*
X157759816Y-118297590D01*
X157986850Y-118166511D01*
X157986868Y-118166499D01*
X158099699Y-118079919D01*
X158099699Y-118079917D01*
X157205013Y-117185231D01*
X157233329Y-117173503D01*
X157357806Y-117090330D01*
X157463664Y-116984472D01*
X157546837Y-116859995D01*
X157558565Y-116831679D01*
X158453251Y-117726365D01*
X158453253Y-117726365D01*
X158539833Y-117613534D01*
X158539845Y-117613516D01*
X158670924Y-117386482D01*
X158670929Y-117386471D01*
X158771258Y-117144255D01*
X158839111Y-116891020D01*
X158839113Y-116891009D01*
X158873333Y-116631094D01*
X158873334Y-116631080D01*
X158873334Y-116368919D01*
X158873333Y-116368905D01*
X158839113Y-116108990D01*
X158839111Y-116108979D01*
X158771258Y-115855744D01*
X158670929Y-115613528D01*
X158670924Y-115613517D01*
X158539845Y-115386483D01*
X158539839Y-115386475D01*
X158453252Y-115273633D01*
X158453251Y-115273633D01*
X157558565Y-116168320D01*
X157546837Y-116140005D01*
X157463664Y-116015528D01*
X157357806Y-115909670D01*
X157233329Y-115826497D01*
X157205011Y-115814767D01*
X158067644Y-114952135D01*
X161126167Y-114952135D01*
X161126167Y-118047870D01*
X161126168Y-118047876D01*
X161132575Y-118107483D01*
X161182869Y-118242328D01*
X161182873Y-118242335D01*
X161269119Y-118357544D01*
X161269122Y-118357547D01*
X161384331Y-118443793D01*
X161384338Y-118443797D01*
X161519184Y-118494091D01*
X161519183Y-118494091D01*
X161526111Y-118494835D01*
X161578794Y-118500500D01*
X164674539Y-118500499D01*
X164734150Y-118494091D01*
X164868998Y-118443796D01*
X164984213Y-118357546D01*
X165070463Y-118242331D01*
X165120758Y-118107483D01*
X165127167Y-118047873D01*
X165127166Y-116368905D01*
X166206667Y-116368905D01*
X166206667Y-116631094D01*
X166240887Y-116891009D01*
X166240889Y-116891020D01*
X166308742Y-117144255D01*
X166409071Y-117386471D01*
X166409076Y-117386482D01*
X166540155Y-117613516D01*
X166540161Y-117613524D01*
X166626747Y-117726365D01*
X167521434Y-116831677D01*
X167533164Y-116859995D01*
X167616337Y-116984472D01*
X167722195Y-117090330D01*
X167846672Y-117173503D01*
X167874987Y-117185231D01*
X166980300Y-118079917D01*
X166980300Y-118079918D01*
X167093142Y-118166505D01*
X167093150Y-118166511D01*
X167320184Y-118297590D01*
X167320195Y-118297595D01*
X167562411Y-118397924D01*
X167815646Y-118465777D01*
X167815657Y-118465779D01*
X168075572Y-118499999D01*
X168075587Y-118500000D01*
X168337747Y-118500000D01*
X168337761Y-118499999D01*
X168597676Y-118465779D01*
X168597687Y-118465777D01*
X168850922Y-118397924D01*
X169093138Y-118297595D01*
X169093149Y-118297590D01*
X169320183Y-118166511D01*
X169320201Y-118166499D01*
X169433032Y-118079919D01*
X169433032Y-118079917D01*
X168538346Y-117185231D01*
X168566662Y-117173503D01*
X168691139Y-117090330D01*
X168796997Y-116984472D01*
X168880170Y-116859995D01*
X168891898Y-116831679D01*
X169786584Y-117726365D01*
X169786586Y-117726365D01*
X169873166Y-117613534D01*
X169873178Y-117613516D01*
X170004257Y-117386482D01*
X170004262Y-117386471D01*
X170104591Y-117144255D01*
X170172444Y-116891020D01*
X170172446Y-116891009D01*
X170206666Y-116631094D01*
X170206667Y-116631080D01*
X170206667Y-116368919D01*
X170206666Y-116368905D01*
X170172446Y-116108990D01*
X170172444Y-116108979D01*
X170104591Y-115855744D01*
X170004262Y-115613528D01*
X170004257Y-115613517D01*
X169873178Y-115386483D01*
X169873172Y-115386475D01*
X169786585Y-115273633D01*
X169786584Y-115273633D01*
X168891898Y-116168319D01*
X168880170Y-116140005D01*
X168796997Y-116015528D01*
X168691139Y-115909670D01*
X168566662Y-115826497D01*
X168538344Y-115814767D01*
X169400977Y-114952135D01*
X172459500Y-114952135D01*
X172459500Y-118047870D01*
X172459501Y-118047876D01*
X172465908Y-118107483D01*
X172516202Y-118242328D01*
X172516206Y-118242335D01*
X172602452Y-118357544D01*
X172602455Y-118357547D01*
X172717664Y-118443793D01*
X172717671Y-118443797D01*
X172852517Y-118494091D01*
X172852516Y-118494091D01*
X172859444Y-118494835D01*
X172912127Y-118500500D01*
X176007872Y-118500499D01*
X176067483Y-118494091D01*
X176202331Y-118443796D01*
X176317546Y-118357546D01*
X176403796Y-118242331D01*
X176454091Y-118107483D01*
X176460500Y-118047873D01*
X176460499Y-116368905D01*
X177540000Y-116368905D01*
X177540000Y-116631094D01*
X177574220Y-116891009D01*
X177574222Y-116891020D01*
X177642075Y-117144255D01*
X177742404Y-117386471D01*
X177742409Y-117386482D01*
X177873488Y-117613516D01*
X177873494Y-117613524D01*
X177960080Y-117726365D01*
X178854767Y-116831677D01*
X178866497Y-116859995D01*
X178949670Y-116984472D01*
X179055528Y-117090330D01*
X179180005Y-117173503D01*
X179208320Y-117185231D01*
X178313633Y-118079917D01*
X178313633Y-118079918D01*
X178426475Y-118166505D01*
X178426483Y-118166511D01*
X178653517Y-118297590D01*
X178653528Y-118297595D01*
X178895744Y-118397924D01*
X179148979Y-118465777D01*
X179148990Y-118465779D01*
X179408905Y-118499999D01*
X179408920Y-118500000D01*
X179671080Y-118500000D01*
X179671094Y-118499999D01*
X179931009Y-118465779D01*
X179931020Y-118465777D01*
X180184255Y-118397924D01*
X180426471Y-118297595D01*
X180426482Y-118297590D01*
X180653516Y-118166511D01*
X180653534Y-118166499D01*
X180766365Y-118079919D01*
X180766365Y-118079917D01*
X179871679Y-117185231D01*
X179899995Y-117173503D01*
X180024472Y-117090330D01*
X180130330Y-116984472D01*
X180213503Y-116859995D01*
X180225231Y-116831679D01*
X181119917Y-117726365D01*
X181119919Y-117726365D01*
X181206499Y-117613534D01*
X181206511Y-117613516D01*
X181337590Y-117386482D01*
X181337595Y-117386471D01*
X181437924Y-117144255D01*
X181505777Y-116891020D01*
X181505779Y-116891009D01*
X181539999Y-116631094D01*
X181540000Y-116631080D01*
X181540000Y-116368919D01*
X181539999Y-116368905D01*
X181505779Y-116108990D01*
X181505777Y-116108979D01*
X181437924Y-115855744D01*
X181337595Y-115613528D01*
X181337590Y-115613517D01*
X181206511Y-115386483D01*
X181206505Y-115386475D01*
X181119918Y-115273633D01*
X181119917Y-115273633D01*
X180225231Y-116168320D01*
X180213503Y-116140005D01*
X180130330Y-116015528D01*
X180024472Y-115909670D01*
X179899995Y-115826497D01*
X179871677Y-115814767D01*
X180734310Y-114952135D01*
X183792834Y-114952135D01*
X183792834Y-118047870D01*
X183792835Y-118047876D01*
X183799242Y-118107483D01*
X183849536Y-118242328D01*
X183849540Y-118242335D01*
X183935786Y-118357544D01*
X183935789Y-118357547D01*
X184050998Y-118443793D01*
X184051005Y-118443797D01*
X184185851Y-118494091D01*
X184185850Y-118494091D01*
X184192778Y-118494835D01*
X184245461Y-118500500D01*
X187341206Y-118500499D01*
X187400817Y-118494091D01*
X187535665Y-118443796D01*
X187650880Y-118357546D01*
X187737130Y-118242331D01*
X187787425Y-118107483D01*
X187793834Y-118047873D01*
X187793833Y-116368905D01*
X188873334Y-116368905D01*
X188873334Y-116631094D01*
X188907554Y-116891009D01*
X188907556Y-116891020D01*
X188975409Y-117144255D01*
X189075738Y-117386471D01*
X189075743Y-117386482D01*
X189206822Y-117613516D01*
X189206828Y-117613524D01*
X189293414Y-117726365D01*
X190188101Y-116831677D01*
X190199831Y-116859995D01*
X190283004Y-116984472D01*
X190388862Y-117090330D01*
X190513339Y-117173503D01*
X190541654Y-117185231D01*
X189646967Y-118079917D01*
X189646967Y-118079918D01*
X189759809Y-118166505D01*
X189759817Y-118166511D01*
X189986851Y-118297590D01*
X189986862Y-118297595D01*
X190229078Y-118397924D01*
X190482313Y-118465777D01*
X190482324Y-118465779D01*
X190742239Y-118499999D01*
X190742254Y-118500000D01*
X191004414Y-118500000D01*
X191004428Y-118499999D01*
X191264343Y-118465779D01*
X191264354Y-118465777D01*
X191517589Y-118397924D01*
X191759805Y-118297595D01*
X191759816Y-118297590D01*
X191986850Y-118166511D01*
X191986868Y-118166499D01*
X192099699Y-118079919D01*
X192099699Y-118079917D01*
X191205013Y-117185231D01*
X191233329Y-117173503D01*
X191357806Y-117090330D01*
X191463664Y-116984472D01*
X191546837Y-116859995D01*
X191558565Y-116831679D01*
X192453251Y-117726365D01*
X192453253Y-117726365D01*
X192539833Y-117613534D01*
X192539845Y-117613516D01*
X192670924Y-117386482D01*
X192670929Y-117386471D01*
X192771258Y-117144255D01*
X192839111Y-116891020D01*
X192839113Y-116891009D01*
X192873333Y-116631094D01*
X192873334Y-116631080D01*
X192873334Y-116368919D01*
X192873333Y-116368905D01*
X192839113Y-116108990D01*
X192839111Y-116108979D01*
X192771258Y-115855744D01*
X192670929Y-115613528D01*
X192670924Y-115613517D01*
X192539845Y-115386483D01*
X192539839Y-115386475D01*
X192453252Y-115273633D01*
X192453251Y-115273633D01*
X191558565Y-116168319D01*
X191546837Y-116140005D01*
X191463664Y-116015528D01*
X191357806Y-115909670D01*
X191233329Y-115826497D01*
X191205011Y-115814767D01*
X192067644Y-114952135D01*
X195126167Y-114952135D01*
X195126167Y-118047870D01*
X195126168Y-118047876D01*
X195132575Y-118107483D01*
X195182869Y-118242328D01*
X195182873Y-118242335D01*
X195269119Y-118357544D01*
X195269122Y-118357547D01*
X195384331Y-118443793D01*
X195384338Y-118443797D01*
X195519184Y-118494091D01*
X195519183Y-118494091D01*
X195526111Y-118494835D01*
X195578794Y-118500500D01*
X198674539Y-118500499D01*
X198734150Y-118494091D01*
X198868998Y-118443796D01*
X198984213Y-118357546D01*
X199070463Y-118242331D01*
X199120758Y-118107483D01*
X199127167Y-118047873D01*
X199127166Y-116368905D01*
X200206667Y-116368905D01*
X200206667Y-116631094D01*
X200240887Y-116891009D01*
X200240889Y-116891020D01*
X200308742Y-117144255D01*
X200409071Y-117386471D01*
X200409076Y-117386482D01*
X200540155Y-117613516D01*
X200540161Y-117613524D01*
X200626747Y-117726365D01*
X201521434Y-116831677D01*
X201533164Y-116859995D01*
X201616337Y-116984472D01*
X201722195Y-117090330D01*
X201846672Y-117173503D01*
X201874987Y-117185231D01*
X200980300Y-118079917D01*
X200980300Y-118079918D01*
X201093142Y-118166505D01*
X201093150Y-118166511D01*
X201320184Y-118297590D01*
X201320195Y-118297595D01*
X201562411Y-118397924D01*
X201815646Y-118465777D01*
X201815657Y-118465779D01*
X202075572Y-118499999D01*
X202075587Y-118500000D01*
X202337747Y-118500000D01*
X202337761Y-118499999D01*
X202597676Y-118465779D01*
X202597687Y-118465777D01*
X202850922Y-118397924D01*
X203093138Y-118297595D01*
X203093149Y-118297590D01*
X203320183Y-118166511D01*
X203320201Y-118166499D01*
X203433032Y-118079919D01*
X203433032Y-118079917D01*
X202538346Y-117185231D01*
X202566662Y-117173503D01*
X202691139Y-117090330D01*
X202796997Y-116984472D01*
X202880170Y-116859995D01*
X202891898Y-116831679D01*
X203786584Y-117726365D01*
X203786586Y-117726365D01*
X203873166Y-117613534D01*
X203873178Y-117613516D01*
X204004257Y-117386482D01*
X204004262Y-117386471D01*
X204104591Y-117144255D01*
X204172444Y-116891020D01*
X204172446Y-116891009D01*
X204206666Y-116631094D01*
X204206667Y-116631080D01*
X204206667Y-116368919D01*
X204206666Y-116368905D01*
X204172446Y-116108990D01*
X204172444Y-116108979D01*
X204104591Y-115855744D01*
X204004262Y-115613528D01*
X204004257Y-115613517D01*
X203873178Y-115386483D01*
X203873172Y-115386475D01*
X203786585Y-115273633D01*
X203786584Y-115273633D01*
X202891898Y-116168320D01*
X202880170Y-116140005D01*
X202796997Y-116015528D01*
X202691139Y-115909670D01*
X202566662Y-115826497D01*
X202538344Y-115814767D01*
X203400977Y-114952135D01*
X206459500Y-114952135D01*
X206459500Y-118047870D01*
X206459501Y-118047876D01*
X206465908Y-118107483D01*
X206516202Y-118242328D01*
X206516206Y-118242335D01*
X206602452Y-118357544D01*
X206602455Y-118357547D01*
X206717664Y-118443793D01*
X206717671Y-118443797D01*
X206852517Y-118494091D01*
X206852516Y-118494091D01*
X206859444Y-118494835D01*
X206912127Y-118500500D01*
X210007872Y-118500499D01*
X210067483Y-118494091D01*
X210202331Y-118443796D01*
X210317546Y-118357546D01*
X210403796Y-118242331D01*
X210454091Y-118107483D01*
X210460500Y-118047873D01*
X210460499Y-116368905D01*
X211540000Y-116368905D01*
X211540000Y-116631094D01*
X211574220Y-116891009D01*
X211574222Y-116891020D01*
X211642075Y-117144255D01*
X211742404Y-117386471D01*
X211742409Y-117386482D01*
X211873488Y-117613516D01*
X211873494Y-117613524D01*
X211960080Y-117726365D01*
X212854767Y-116831677D01*
X212866497Y-116859995D01*
X212949670Y-116984472D01*
X213055528Y-117090330D01*
X213180005Y-117173503D01*
X213208320Y-117185231D01*
X212313633Y-118079917D01*
X212313633Y-118079918D01*
X212426475Y-118166505D01*
X212426483Y-118166511D01*
X212653517Y-118297590D01*
X212653528Y-118297595D01*
X212895744Y-118397924D01*
X213148979Y-118465777D01*
X213148990Y-118465779D01*
X213408905Y-118499999D01*
X213408920Y-118500000D01*
X213671080Y-118500000D01*
X213671094Y-118499999D01*
X213931009Y-118465779D01*
X213931020Y-118465777D01*
X214184255Y-118397924D01*
X214426471Y-118297595D01*
X214426482Y-118297590D01*
X214653516Y-118166511D01*
X214653534Y-118166499D01*
X214766365Y-118079919D01*
X214766365Y-118079917D01*
X213871679Y-117185231D01*
X213899995Y-117173503D01*
X214024472Y-117090330D01*
X214130330Y-116984472D01*
X214213503Y-116859995D01*
X214225231Y-116831679D01*
X215119917Y-117726365D01*
X215119919Y-117726365D01*
X215206499Y-117613534D01*
X215206511Y-117613516D01*
X215301550Y-117448905D01*
X219500000Y-117448905D01*
X219500000Y-117711094D01*
X219534220Y-117971009D01*
X219534222Y-117971020D01*
X219602075Y-118224255D01*
X219702404Y-118466471D01*
X219702409Y-118466482D01*
X219833488Y-118693516D01*
X219833494Y-118693524D01*
X219920080Y-118806365D01*
X220814767Y-117911677D01*
X220826497Y-117939995D01*
X220909670Y-118064472D01*
X221015528Y-118170330D01*
X221140005Y-118253503D01*
X221168320Y-118265231D01*
X220273633Y-119159917D01*
X220273633Y-119159918D01*
X220386475Y-119246505D01*
X220386483Y-119246511D01*
X220613517Y-119377590D01*
X220613528Y-119377595D01*
X220855744Y-119477924D01*
X221108979Y-119545777D01*
X221108990Y-119545779D01*
X221368905Y-119579999D01*
X221368920Y-119580000D01*
X221631080Y-119580000D01*
X221631094Y-119579999D01*
X221891009Y-119545779D01*
X221891020Y-119545777D01*
X222144255Y-119477924D01*
X222386471Y-119377595D01*
X222386482Y-119377590D01*
X222613516Y-119246511D01*
X222613534Y-119246499D01*
X222726365Y-119159919D01*
X222726365Y-119159917D01*
X221831679Y-118265231D01*
X221859995Y-118253503D01*
X221984472Y-118170330D01*
X222090330Y-118064472D01*
X222173503Y-117939995D01*
X222185231Y-117911679D01*
X223079917Y-118806365D01*
X223079919Y-118806365D01*
X223166499Y-118693534D01*
X223166511Y-118693516D01*
X223297590Y-118466482D01*
X223297595Y-118466471D01*
X223397924Y-118224255D01*
X223465777Y-117971020D01*
X223465779Y-117971009D01*
X223499999Y-117711094D01*
X223500000Y-117711080D01*
X223500000Y-117448919D01*
X223499999Y-117448905D01*
X223465779Y-117188990D01*
X223465777Y-117188979D01*
X223397924Y-116935744D01*
X223297595Y-116693528D01*
X223297590Y-116693517D01*
X223166511Y-116466483D01*
X223166505Y-116466475D01*
X223079918Y-116353633D01*
X223079917Y-116353633D01*
X222185231Y-117248320D01*
X222173503Y-117220005D01*
X222090330Y-117095528D01*
X221984472Y-116989670D01*
X221859995Y-116906497D01*
X221831677Y-116894767D01*
X222726365Y-116000080D01*
X222613524Y-115913494D01*
X222613516Y-115913488D01*
X222386482Y-115782409D01*
X222386471Y-115782404D01*
X222144255Y-115682075D01*
X221891020Y-115614222D01*
X221891009Y-115614220D01*
X221631094Y-115580000D01*
X221368905Y-115580000D01*
X221108990Y-115614220D01*
X221108979Y-115614222D01*
X220855744Y-115682075D01*
X220613528Y-115782404D01*
X220613517Y-115782409D01*
X220386471Y-115913496D01*
X220273633Y-116000079D01*
X220273633Y-116000080D01*
X221168321Y-116894768D01*
X221140005Y-116906497D01*
X221015528Y-116989670D01*
X220909670Y-117095528D01*
X220826497Y-117220005D01*
X220814768Y-117248321D01*
X219920080Y-116353633D01*
X219920079Y-116353633D01*
X219833496Y-116466471D01*
X219702409Y-116693517D01*
X219702404Y-116693528D01*
X219602075Y-116935744D01*
X219534222Y-117188979D01*
X219534220Y-117188990D01*
X219500000Y-117448905D01*
X215301550Y-117448905D01*
X215337593Y-117386477D01*
X215337593Y-117386476D01*
X215437924Y-117144255D01*
X215505777Y-116891020D01*
X215505779Y-116891009D01*
X215539999Y-116631094D01*
X215540000Y-116631080D01*
X215540000Y-116368919D01*
X215539999Y-116368905D01*
X215505779Y-116108990D01*
X215505776Y-116108974D01*
X215498047Y-116080125D01*
X215437924Y-115855744D01*
X215337595Y-115613528D01*
X215337590Y-115613517D01*
X215206511Y-115386483D01*
X215206505Y-115386475D01*
X215119918Y-115273633D01*
X215119917Y-115273633D01*
X214225231Y-116168320D01*
X214213503Y-116140005D01*
X214130330Y-116015528D01*
X214024472Y-115909670D01*
X213899995Y-115826497D01*
X213871677Y-115814767D01*
X214766365Y-114920080D01*
X214653524Y-114833494D01*
X214653516Y-114833488D01*
X214426482Y-114702409D01*
X214426471Y-114702404D01*
X214184255Y-114602075D01*
X213931020Y-114534222D01*
X213931009Y-114534220D01*
X213671094Y-114500000D01*
X213408905Y-114500000D01*
X213148990Y-114534220D01*
X213148979Y-114534222D01*
X212895744Y-114602075D01*
X212653528Y-114702404D01*
X212653517Y-114702409D01*
X212426471Y-114833496D01*
X212313633Y-114920079D01*
X212313633Y-114920080D01*
X213208321Y-115814768D01*
X213180005Y-115826497D01*
X213055528Y-115909670D01*
X212949670Y-116015528D01*
X212866497Y-116140005D01*
X212854768Y-116168321D01*
X211960080Y-115273633D01*
X211960079Y-115273633D01*
X211873496Y-115386471D01*
X211742409Y-115613517D01*
X211742404Y-115613528D01*
X211642075Y-115855744D01*
X211574222Y-116108979D01*
X211574220Y-116108990D01*
X211540000Y-116368905D01*
X210460499Y-116368905D01*
X210460499Y-114952128D01*
X210454091Y-114892517D01*
X210403796Y-114757669D01*
X210403795Y-114757668D01*
X210403793Y-114757664D01*
X210317547Y-114642455D01*
X210317544Y-114642452D01*
X210202335Y-114556206D01*
X210202328Y-114556202D01*
X210067482Y-114505908D01*
X210067483Y-114505908D01*
X210007883Y-114499501D01*
X210007881Y-114499500D01*
X210007873Y-114499500D01*
X210007864Y-114499500D01*
X206912129Y-114499500D01*
X206912123Y-114499501D01*
X206852516Y-114505908D01*
X206717671Y-114556202D01*
X206717664Y-114556206D01*
X206602455Y-114642452D01*
X206602452Y-114642455D01*
X206516206Y-114757664D01*
X206516202Y-114757671D01*
X206465908Y-114892517D01*
X206459501Y-114952116D01*
X206459501Y-114952123D01*
X206459500Y-114952135D01*
X203400977Y-114952135D01*
X203433032Y-114920080D01*
X203320191Y-114833494D01*
X203320183Y-114833488D01*
X203093149Y-114702409D01*
X203093138Y-114702404D01*
X202850922Y-114602075D01*
X202597687Y-114534222D01*
X202597676Y-114534220D01*
X202337761Y-114500000D01*
X202075572Y-114500000D01*
X201815657Y-114534220D01*
X201815646Y-114534222D01*
X201562411Y-114602075D01*
X201320195Y-114702404D01*
X201320184Y-114702409D01*
X201093138Y-114833496D01*
X200980300Y-114920079D01*
X200980300Y-114920080D01*
X201874988Y-115814768D01*
X201846672Y-115826497D01*
X201722195Y-115909670D01*
X201616337Y-116015528D01*
X201533164Y-116140005D01*
X201521435Y-116168321D01*
X200626747Y-115273633D01*
X200626746Y-115273633D01*
X200540163Y-115386471D01*
X200409076Y-115613517D01*
X200409071Y-115613528D01*
X200308742Y-115855744D01*
X200240889Y-116108979D01*
X200240887Y-116108990D01*
X200206667Y-116368905D01*
X199127166Y-116368905D01*
X199127166Y-114952128D01*
X199120758Y-114892517D01*
X199070463Y-114757669D01*
X199070462Y-114757668D01*
X199070460Y-114757664D01*
X198984214Y-114642455D01*
X198984211Y-114642452D01*
X198869002Y-114556206D01*
X198868995Y-114556202D01*
X198734149Y-114505908D01*
X198734150Y-114505908D01*
X198674550Y-114499501D01*
X198674548Y-114499500D01*
X198674540Y-114499500D01*
X198674531Y-114499500D01*
X195578796Y-114499500D01*
X195578790Y-114499501D01*
X195519183Y-114505908D01*
X195384338Y-114556202D01*
X195384331Y-114556206D01*
X195269122Y-114642452D01*
X195269119Y-114642455D01*
X195182873Y-114757664D01*
X195182869Y-114757671D01*
X195132575Y-114892517D01*
X195126168Y-114952116D01*
X195126168Y-114952123D01*
X195126167Y-114952135D01*
X192067644Y-114952135D01*
X192099699Y-114920080D01*
X191986858Y-114833494D01*
X191986850Y-114833488D01*
X191759816Y-114702409D01*
X191759805Y-114702404D01*
X191517589Y-114602075D01*
X191264354Y-114534222D01*
X191264343Y-114534220D01*
X191004428Y-114500000D01*
X190742239Y-114500000D01*
X190482324Y-114534220D01*
X190482313Y-114534222D01*
X190229078Y-114602075D01*
X189986862Y-114702404D01*
X189986851Y-114702409D01*
X189759805Y-114833496D01*
X189646967Y-114920079D01*
X189646967Y-114920080D01*
X190541655Y-115814768D01*
X190513339Y-115826497D01*
X190388862Y-115909670D01*
X190283004Y-116015528D01*
X190199831Y-116140005D01*
X190188102Y-116168321D01*
X189293414Y-115273633D01*
X189293413Y-115273633D01*
X189206830Y-115386471D01*
X189075743Y-115613517D01*
X189075738Y-115613528D01*
X188975409Y-115855744D01*
X188907556Y-116108979D01*
X188907554Y-116108990D01*
X188873334Y-116368905D01*
X187793833Y-116368905D01*
X187793833Y-114952128D01*
X187787425Y-114892517D01*
X187737130Y-114757669D01*
X187737129Y-114757668D01*
X187737127Y-114757664D01*
X187650881Y-114642455D01*
X187650878Y-114642452D01*
X187535669Y-114556206D01*
X187535662Y-114556202D01*
X187400816Y-114505908D01*
X187400817Y-114505908D01*
X187341217Y-114499501D01*
X187341215Y-114499500D01*
X187341207Y-114499500D01*
X187341198Y-114499500D01*
X184245463Y-114499500D01*
X184245457Y-114499501D01*
X184185850Y-114505908D01*
X184051005Y-114556202D01*
X184050998Y-114556206D01*
X183935789Y-114642452D01*
X183935786Y-114642455D01*
X183849540Y-114757664D01*
X183849536Y-114757671D01*
X183799242Y-114892517D01*
X183792835Y-114952116D01*
X183792835Y-114952123D01*
X183792834Y-114952135D01*
X180734310Y-114952135D01*
X180766365Y-114920080D01*
X180653524Y-114833494D01*
X180653516Y-114833488D01*
X180426482Y-114702409D01*
X180426471Y-114702404D01*
X180184255Y-114602075D01*
X179931020Y-114534222D01*
X179931009Y-114534220D01*
X179671094Y-114500000D01*
X179408905Y-114500000D01*
X179148990Y-114534220D01*
X179148979Y-114534222D01*
X178895744Y-114602075D01*
X178653528Y-114702404D01*
X178653517Y-114702409D01*
X178426471Y-114833496D01*
X178313633Y-114920079D01*
X178313633Y-114920080D01*
X179208321Y-115814768D01*
X179180005Y-115826497D01*
X179055528Y-115909670D01*
X178949670Y-116015528D01*
X178866497Y-116140005D01*
X178854768Y-116168321D01*
X177960080Y-115273633D01*
X177960079Y-115273633D01*
X177873496Y-115386471D01*
X177742409Y-115613517D01*
X177742404Y-115613528D01*
X177642075Y-115855744D01*
X177574222Y-116108979D01*
X177574220Y-116108990D01*
X177540000Y-116368905D01*
X176460499Y-116368905D01*
X176460499Y-114952128D01*
X176454091Y-114892517D01*
X176403796Y-114757669D01*
X176403795Y-114757668D01*
X176403793Y-114757664D01*
X176317547Y-114642455D01*
X176317544Y-114642452D01*
X176202335Y-114556206D01*
X176202328Y-114556202D01*
X176067482Y-114505908D01*
X176067483Y-114505908D01*
X176007883Y-114499501D01*
X176007881Y-114499500D01*
X176007873Y-114499500D01*
X176007864Y-114499500D01*
X172912129Y-114499500D01*
X172912123Y-114499501D01*
X172852516Y-114505908D01*
X172717671Y-114556202D01*
X172717664Y-114556206D01*
X172602455Y-114642452D01*
X172602452Y-114642455D01*
X172516206Y-114757664D01*
X172516202Y-114757671D01*
X172465908Y-114892517D01*
X172459501Y-114952116D01*
X172459501Y-114952123D01*
X172459500Y-114952135D01*
X169400977Y-114952135D01*
X169433032Y-114920080D01*
X169320191Y-114833494D01*
X169320183Y-114833488D01*
X169093149Y-114702409D01*
X169093138Y-114702404D01*
X168850922Y-114602075D01*
X168597687Y-114534222D01*
X168597676Y-114534220D01*
X168337761Y-114500000D01*
X168075572Y-114500000D01*
X167815657Y-114534220D01*
X167815646Y-114534222D01*
X167562411Y-114602075D01*
X167320195Y-114702404D01*
X167320184Y-114702409D01*
X167093138Y-114833496D01*
X166980300Y-114920079D01*
X166980300Y-114920080D01*
X167874988Y-115814768D01*
X167846672Y-115826497D01*
X167722195Y-115909670D01*
X167616337Y-116015528D01*
X167533164Y-116140005D01*
X167521435Y-116168321D01*
X166626747Y-115273633D01*
X166626746Y-115273633D01*
X166540163Y-115386471D01*
X166409076Y-115613517D01*
X166409071Y-115613528D01*
X166308742Y-115855744D01*
X166240889Y-116108979D01*
X166240887Y-116108990D01*
X166206667Y-116368905D01*
X165127166Y-116368905D01*
X165127166Y-114952128D01*
X165120758Y-114892517D01*
X165070463Y-114757669D01*
X165070462Y-114757668D01*
X165070460Y-114757664D01*
X164984214Y-114642455D01*
X164984211Y-114642452D01*
X164869002Y-114556206D01*
X164868995Y-114556202D01*
X164734149Y-114505908D01*
X164734150Y-114505908D01*
X164674550Y-114499501D01*
X164674548Y-114499500D01*
X164674540Y-114499500D01*
X164674531Y-114499500D01*
X161578796Y-114499500D01*
X161578790Y-114499501D01*
X161519183Y-114505908D01*
X161384338Y-114556202D01*
X161384331Y-114556206D01*
X161269122Y-114642452D01*
X161269119Y-114642455D01*
X161182873Y-114757664D01*
X161182869Y-114757671D01*
X161132575Y-114892517D01*
X161126168Y-114952116D01*
X161126168Y-114952123D01*
X161126167Y-114952135D01*
X158067644Y-114952135D01*
X158099699Y-114920080D01*
X157986858Y-114833494D01*
X157986850Y-114833488D01*
X157759816Y-114702409D01*
X157759805Y-114702404D01*
X157517589Y-114602075D01*
X157264354Y-114534222D01*
X157264343Y-114534220D01*
X157004428Y-114500000D01*
X156742239Y-114500000D01*
X156482324Y-114534220D01*
X156482313Y-114534222D01*
X156229078Y-114602075D01*
X155986862Y-114702404D01*
X155986851Y-114702409D01*
X155759805Y-114833496D01*
X155646967Y-114920079D01*
X155646967Y-114920080D01*
X156541655Y-115814768D01*
X156513339Y-115826497D01*
X156388862Y-115909670D01*
X156283004Y-116015528D01*
X156199831Y-116140005D01*
X156188102Y-116168321D01*
X155293414Y-115273633D01*
X155293413Y-115273633D01*
X155206830Y-115386471D01*
X155075743Y-115613517D01*
X155075738Y-115613528D01*
X154975409Y-115855744D01*
X154907556Y-116108979D01*
X154907554Y-116108990D01*
X154873334Y-116368905D01*
X153793833Y-116368905D01*
X153793833Y-114952128D01*
X153787425Y-114892517D01*
X153737130Y-114757669D01*
X153737129Y-114757668D01*
X153737127Y-114757664D01*
X153650881Y-114642455D01*
X153650878Y-114642452D01*
X153535669Y-114556206D01*
X153535662Y-114556202D01*
X153400816Y-114505908D01*
X153400817Y-114505908D01*
X153341217Y-114499501D01*
X153341215Y-114499500D01*
X153341207Y-114499500D01*
X153341198Y-114499500D01*
X150245463Y-114499500D01*
X150245457Y-114499501D01*
X150185850Y-114505908D01*
X150051005Y-114556202D01*
X150050998Y-114556206D01*
X149935789Y-114642452D01*
X149935786Y-114642455D01*
X149849540Y-114757664D01*
X149849536Y-114757671D01*
X149799242Y-114892517D01*
X149792835Y-114952116D01*
X149792835Y-114952123D01*
X149792834Y-114952135D01*
X146734310Y-114952135D01*
X146766365Y-114920080D01*
X146653524Y-114833494D01*
X146653516Y-114833488D01*
X146426482Y-114702409D01*
X146426471Y-114702404D01*
X146184255Y-114602075D01*
X145931020Y-114534222D01*
X145931009Y-114534220D01*
X145671094Y-114500000D01*
X145408905Y-114500000D01*
X145148990Y-114534220D01*
X145148979Y-114534222D01*
X144895744Y-114602075D01*
X144653528Y-114702404D01*
X144653517Y-114702409D01*
X144426471Y-114833496D01*
X144313633Y-114920079D01*
X144313633Y-114920080D01*
X145208321Y-115814768D01*
X145180005Y-115826497D01*
X145055528Y-115909670D01*
X144949670Y-116015528D01*
X144866497Y-116140005D01*
X144854768Y-116168321D01*
X143960080Y-115273633D01*
X143960079Y-115273633D01*
X143873496Y-115386471D01*
X143742409Y-115613517D01*
X143742404Y-115613528D01*
X143642075Y-115855744D01*
X143574222Y-116108979D01*
X143574220Y-116108990D01*
X143540000Y-116368905D01*
X142460499Y-116368905D01*
X142460499Y-114952128D01*
X142454091Y-114892517D01*
X142403796Y-114757669D01*
X142403795Y-114757668D01*
X142403793Y-114757664D01*
X142317547Y-114642455D01*
X142317544Y-114642452D01*
X142202335Y-114556206D01*
X142202328Y-114556202D01*
X142067482Y-114505908D01*
X142067483Y-114505908D01*
X142007883Y-114499501D01*
X142007881Y-114499500D01*
X142007873Y-114499500D01*
X142007864Y-114499500D01*
X138912129Y-114499500D01*
X138912123Y-114499501D01*
X138852516Y-114505908D01*
X138717671Y-114556202D01*
X138717664Y-114556206D01*
X138602455Y-114642452D01*
X138602452Y-114642455D01*
X138516206Y-114757664D01*
X138516202Y-114757671D01*
X138465908Y-114892517D01*
X138459501Y-114952116D01*
X138459501Y-114952123D01*
X138459500Y-114952135D01*
X135400977Y-114952135D01*
X135433032Y-114920080D01*
X135320191Y-114833494D01*
X135320183Y-114833488D01*
X135093149Y-114702409D01*
X135093138Y-114702404D01*
X134850922Y-114602075D01*
X134597687Y-114534222D01*
X134597676Y-114534220D01*
X134337761Y-114500000D01*
X134075572Y-114500000D01*
X133815657Y-114534220D01*
X133815646Y-114534222D01*
X133562411Y-114602075D01*
X133320195Y-114702404D01*
X133320184Y-114702409D01*
X133093138Y-114833496D01*
X132980300Y-114920079D01*
X132980300Y-114920080D01*
X133874988Y-115814768D01*
X133846672Y-115826497D01*
X133722195Y-115909670D01*
X133616337Y-116015528D01*
X133533164Y-116140005D01*
X133521435Y-116168321D01*
X132626747Y-115273633D01*
X132626746Y-115273633D01*
X132540163Y-115386471D01*
X132409076Y-115613517D01*
X132409071Y-115613528D01*
X132308742Y-115855744D01*
X132240889Y-116108979D01*
X132240887Y-116108990D01*
X132206667Y-116368905D01*
X131127166Y-116368905D01*
X131127166Y-114952128D01*
X131120758Y-114892517D01*
X131070463Y-114757669D01*
X131070462Y-114757668D01*
X131070460Y-114757664D01*
X130984214Y-114642455D01*
X130984211Y-114642452D01*
X130869002Y-114556206D01*
X130868995Y-114556202D01*
X130734149Y-114505908D01*
X130734150Y-114505908D01*
X130674550Y-114499501D01*
X130674548Y-114499500D01*
X130674540Y-114499500D01*
X130674531Y-114499500D01*
X127578796Y-114499500D01*
X127578790Y-114499501D01*
X127519183Y-114505908D01*
X127384338Y-114556202D01*
X127384331Y-114556206D01*
X127269122Y-114642452D01*
X127269119Y-114642455D01*
X127182873Y-114757664D01*
X127182869Y-114757671D01*
X127132575Y-114892517D01*
X127126168Y-114952116D01*
X127126168Y-114952123D01*
X127126167Y-114952135D01*
X124067644Y-114952135D01*
X124099699Y-114920080D01*
X123986858Y-114833494D01*
X123986850Y-114833488D01*
X123759816Y-114702409D01*
X123759805Y-114702404D01*
X123517589Y-114602075D01*
X123264354Y-114534222D01*
X123264343Y-114534220D01*
X123004428Y-114500000D01*
X122742239Y-114500000D01*
X122482324Y-114534220D01*
X122482313Y-114534222D01*
X122229078Y-114602075D01*
X121986862Y-114702404D01*
X121986851Y-114702409D01*
X121759805Y-114833496D01*
X121646967Y-114920079D01*
X121646967Y-114920080D01*
X122541655Y-115814768D01*
X122513339Y-115826497D01*
X122388862Y-115909670D01*
X122283004Y-116015528D01*
X122199831Y-116140005D01*
X122188102Y-116168321D01*
X121293414Y-115273633D01*
X121293413Y-115273633D01*
X121206830Y-115386471D01*
X121075743Y-115613517D01*
X121075738Y-115613528D01*
X120975409Y-115855744D01*
X120907556Y-116108979D01*
X120907554Y-116108990D01*
X120873334Y-116368905D01*
X119793833Y-116368905D01*
X119793833Y-114952128D01*
X119787425Y-114892517D01*
X119737130Y-114757669D01*
X119737129Y-114757668D01*
X119737127Y-114757664D01*
X119650881Y-114642455D01*
X119650878Y-114642452D01*
X119535669Y-114556206D01*
X119535662Y-114556202D01*
X119400816Y-114505908D01*
X119400817Y-114505908D01*
X119341217Y-114499501D01*
X119341215Y-114499500D01*
X119341207Y-114499500D01*
X119341198Y-114499500D01*
X116245463Y-114499500D01*
X116245457Y-114499501D01*
X116185850Y-114505908D01*
X116051005Y-114556202D01*
X116050998Y-114556206D01*
X115935789Y-114642452D01*
X115935786Y-114642455D01*
X115849540Y-114757664D01*
X115849536Y-114757671D01*
X115799242Y-114892517D01*
X115792835Y-114952116D01*
X115792835Y-114952123D01*
X115792834Y-114952135D01*
X112734310Y-114952135D01*
X112766365Y-114920080D01*
X112653524Y-114833494D01*
X112653516Y-114833488D01*
X112426482Y-114702409D01*
X112426471Y-114702404D01*
X112184255Y-114602075D01*
X111931020Y-114534222D01*
X111931009Y-114534220D01*
X111671094Y-114500000D01*
X111408905Y-114500000D01*
X111148990Y-114534220D01*
X111148979Y-114534222D01*
X110895744Y-114602075D01*
X110653528Y-114702404D01*
X110653517Y-114702409D01*
X110426471Y-114833496D01*
X110313633Y-114920079D01*
X110313633Y-114920080D01*
X111208321Y-115814768D01*
X111180005Y-115826497D01*
X111055528Y-115909670D01*
X110949670Y-116015528D01*
X110866497Y-116140005D01*
X110854768Y-116168321D01*
X109960080Y-115273633D01*
X109960079Y-115273633D01*
X109873496Y-115386471D01*
X109742409Y-115613517D01*
X109742404Y-115613528D01*
X109642075Y-115855744D01*
X109574222Y-116108979D01*
X109574220Y-116108990D01*
X109540000Y-116368905D01*
X108460499Y-116368905D01*
X108460499Y-114952128D01*
X108454091Y-114892517D01*
X108403796Y-114757669D01*
X108403795Y-114757668D01*
X108403793Y-114757664D01*
X108317547Y-114642455D01*
X108317544Y-114642452D01*
X108202335Y-114556206D01*
X108202328Y-114556202D01*
X108067482Y-114505908D01*
X108067483Y-114505908D01*
X108007883Y-114499501D01*
X108007881Y-114499500D01*
X108007873Y-114499500D01*
X108007864Y-114499500D01*
X104912129Y-114499500D01*
X104912123Y-114499501D01*
X104852516Y-114505908D01*
X104717671Y-114556202D01*
X104717664Y-114556206D01*
X104602455Y-114642452D01*
X104602452Y-114642455D01*
X104516206Y-114757664D01*
X104516202Y-114757671D01*
X104465908Y-114892517D01*
X104459501Y-114952116D01*
X104459501Y-114952123D01*
X104459500Y-114952135D01*
X101400977Y-114952135D01*
X101433032Y-114920080D01*
X101320191Y-114833494D01*
X101320183Y-114833488D01*
X101093149Y-114702409D01*
X101093138Y-114702404D01*
X100850922Y-114602075D01*
X100597687Y-114534222D01*
X100597676Y-114534220D01*
X100337761Y-114500000D01*
X100075572Y-114500000D01*
X99815657Y-114534220D01*
X99815646Y-114534222D01*
X99562411Y-114602075D01*
X99320195Y-114702404D01*
X99320184Y-114702409D01*
X99093138Y-114833496D01*
X98980300Y-114920079D01*
X98980300Y-114920080D01*
X99874988Y-115814768D01*
X99846672Y-115826497D01*
X99722195Y-115909670D01*
X99616337Y-116015528D01*
X99533164Y-116140005D01*
X99521435Y-116168321D01*
X98626747Y-115273633D01*
X98626746Y-115273633D01*
X98540163Y-115386471D01*
X98409076Y-115613517D01*
X98409071Y-115613528D01*
X98308742Y-115855744D01*
X98240889Y-116108979D01*
X98240887Y-116108990D01*
X98206667Y-116368905D01*
X97127166Y-116368905D01*
X97127166Y-114952128D01*
X97120758Y-114892517D01*
X97070463Y-114757669D01*
X97070462Y-114757668D01*
X97070460Y-114757664D01*
X96984214Y-114642455D01*
X96984211Y-114642452D01*
X96869002Y-114556206D01*
X96868995Y-114556202D01*
X96734149Y-114505908D01*
X96734150Y-114505908D01*
X96674550Y-114499501D01*
X96674548Y-114499500D01*
X96674540Y-114499500D01*
X96674531Y-114499500D01*
X93578796Y-114499500D01*
X93578790Y-114499501D01*
X93519183Y-114505908D01*
X93384338Y-114556202D01*
X93384331Y-114556206D01*
X93269122Y-114642452D01*
X93269119Y-114642455D01*
X93182873Y-114757664D01*
X93182869Y-114757671D01*
X93132575Y-114892517D01*
X93126168Y-114952116D01*
X93126168Y-114952123D01*
X93126167Y-114952135D01*
X90067644Y-114952135D01*
X90099699Y-114920080D01*
X89986858Y-114833494D01*
X89986850Y-114833488D01*
X89759816Y-114702409D01*
X89759805Y-114702404D01*
X89517589Y-114602075D01*
X89264354Y-114534222D01*
X89264343Y-114534220D01*
X89004428Y-114500000D01*
X88742239Y-114500000D01*
X88482324Y-114534220D01*
X88482313Y-114534222D01*
X88229078Y-114602075D01*
X87986862Y-114702404D01*
X87986851Y-114702409D01*
X87759805Y-114833496D01*
X87646967Y-114920079D01*
X87646967Y-114920080D01*
X88541655Y-115814768D01*
X88513339Y-115826497D01*
X88388862Y-115909670D01*
X88283004Y-116015528D01*
X88199831Y-116140005D01*
X88188102Y-116168321D01*
X87293414Y-115273633D01*
X87293413Y-115273633D01*
X87206830Y-115386471D01*
X87075743Y-115613517D01*
X87075738Y-115613528D01*
X86975409Y-115855744D01*
X86907556Y-116108979D01*
X86907554Y-116108990D01*
X86873334Y-116368905D01*
X85793833Y-116368905D01*
X85793833Y-114952128D01*
X85787425Y-114892517D01*
X85737130Y-114757669D01*
X85737129Y-114757668D01*
X85737127Y-114757664D01*
X85650881Y-114642455D01*
X85650878Y-114642452D01*
X85535669Y-114556206D01*
X85535662Y-114556202D01*
X85400816Y-114505908D01*
X85400817Y-114505908D01*
X85341217Y-114499501D01*
X85341215Y-114499500D01*
X85341207Y-114499500D01*
X85341198Y-114499500D01*
X82245463Y-114499500D01*
X82245457Y-114499501D01*
X82185850Y-114505908D01*
X82051005Y-114556202D01*
X82050998Y-114556206D01*
X81935789Y-114642452D01*
X81935786Y-114642455D01*
X81849540Y-114757664D01*
X81849536Y-114757671D01*
X81799242Y-114892517D01*
X81792835Y-114952116D01*
X81792835Y-114952123D01*
X81792834Y-114952135D01*
X78734310Y-114952135D01*
X78766365Y-114920080D01*
X78653524Y-114833494D01*
X78653516Y-114833488D01*
X78426482Y-114702409D01*
X78426471Y-114702404D01*
X78184255Y-114602075D01*
X77931020Y-114534222D01*
X77931009Y-114534220D01*
X77671094Y-114500000D01*
X77408905Y-114500000D01*
X77148990Y-114534220D01*
X77148979Y-114534222D01*
X76895744Y-114602075D01*
X76653528Y-114702404D01*
X76653517Y-114702409D01*
X76426471Y-114833496D01*
X76313633Y-114920079D01*
X76313633Y-114920080D01*
X77208321Y-115814768D01*
X77180005Y-115826497D01*
X77055528Y-115909670D01*
X76949670Y-116015528D01*
X76866497Y-116140005D01*
X76854768Y-116168321D01*
X75960080Y-115273633D01*
X75960079Y-115273633D01*
X75873496Y-115386471D01*
X75742409Y-115613517D01*
X75742404Y-115613528D01*
X75642075Y-115855744D01*
X75574222Y-116108979D01*
X75574220Y-116108990D01*
X75540000Y-116368905D01*
X74460499Y-116368905D01*
X74460499Y-114952128D01*
X74454091Y-114892517D01*
X74403796Y-114757669D01*
X74403795Y-114757668D01*
X74403793Y-114757664D01*
X74317547Y-114642455D01*
X74317544Y-114642452D01*
X74202335Y-114556206D01*
X74202328Y-114556202D01*
X74067482Y-114505908D01*
X74067483Y-114505908D01*
X74007883Y-114499501D01*
X74007881Y-114499500D01*
X74007873Y-114499500D01*
X74007864Y-114499500D01*
X70912129Y-114499500D01*
X70912123Y-114499501D01*
X70852516Y-114505908D01*
X70717671Y-114556202D01*
X70717664Y-114556206D01*
X70602455Y-114642452D01*
X70602452Y-114642455D01*
X70516206Y-114757664D01*
X70516202Y-114757671D01*
X70465908Y-114892517D01*
X70459501Y-114952116D01*
X70459501Y-114952123D01*
X70459500Y-114952135D01*
X67400977Y-114952135D01*
X67433032Y-114920080D01*
X67320191Y-114833494D01*
X67320183Y-114833488D01*
X67093149Y-114702409D01*
X67093138Y-114702404D01*
X66850922Y-114602075D01*
X66597687Y-114534222D01*
X66597676Y-114534220D01*
X66337761Y-114500000D01*
X66075572Y-114500000D01*
X65815657Y-114534220D01*
X65815646Y-114534222D01*
X65562411Y-114602075D01*
X65320195Y-114702404D01*
X65320184Y-114702409D01*
X65093138Y-114833496D01*
X64980300Y-114920079D01*
X64980300Y-114920080D01*
X65874988Y-115814768D01*
X65846672Y-115826497D01*
X65722195Y-115909670D01*
X65616337Y-116015528D01*
X65533164Y-116140005D01*
X65521435Y-116168321D01*
X64626747Y-115273633D01*
X64626746Y-115273633D01*
X64540163Y-115386471D01*
X64409076Y-115613517D01*
X64409071Y-115613528D01*
X64308742Y-115855744D01*
X64240889Y-116108979D01*
X64240887Y-116108990D01*
X64206667Y-116368905D01*
X63127166Y-116368905D01*
X63127166Y-114952128D01*
X63120758Y-114892517D01*
X63070463Y-114757669D01*
X63070462Y-114757668D01*
X63070460Y-114757664D01*
X62984214Y-114642455D01*
X62984211Y-114642452D01*
X62869002Y-114556206D01*
X62868995Y-114556202D01*
X62734149Y-114505908D01*
X62734150Y-114505908D01*
X62674550Y-114499501D01*
X62674548Y-114499500D01*
X62674540Y-114499500D01*
X62674531Y-114499500D01*
X59578796Y-114499500D01*
X59578790Y-114499501D01*
X59519183Y-114505908D01*
X59384338Y-114556202D01*
X59384331Y-114556206D01*
X59269122Y-114642452D01*
X59223766Y-114703040D01*
X59167832Y-114744910D01*
X59098140Y-114749894D01*
X59036818Y-114716408D01*
X59003333Y-114655084D01*
X59000500Y-114628728D01*
X59000500Y-110952135D01*
X219499500Y-110952135D01*
X219499500Y-114047870D01*
X219499501Y-114047876D01*
X219505908Y-114107483D01*
X219556202Y-114242328D01*
X219556206Y-114242335D01*
X219642452Y-114357544D01*
X219642455Y-114357547D01*
X219757664Y-114443793D01*
X219757671Y-114443797D01*
X219892517Y-114494091D01*
X219892516Y-114494091D01*
X219899444Y-114494835D01*
X219952127Y-114500500D01*
X223047872Y-114500499D01*
X223107483Y-114494091D01*
X223242331Y-114443796D01*
X223357546Y-114357546D01*
X223443796Y-114242331D01*
X223494091Y-114107483D01*
X223500500Y-114047873D01*
X223500499Y-110952128D01*
X223494091Y-110892517D01*
X223443796Y-110757669D01*
X223443795Y-110757668D01*
X223443793Y-110757664D01*
X223357547Y-110642455D01*
X223357544Y-110642452D01*
X223242335Y-110556206D01*
X223242328Y-110556202D01*
X223107482Y-110505908D01*
X223107483Y-110505908D01*
X223047883Y-110499501D01*
X223047881Y-110499500D01*
X223047873Y-110499500D01*
X223047864Y-110499500D01*
X219952129Y-110499500D01*
X219952123Y-110499501D01*
X219892516Y-110505908D01*
X219757671Y-110556202D01*
X219757664Y-110556206D01*
X219642455Y-110642452D01*
X219642452Y-110642455D01*
X219556206Y-110757664D01*
X219556202Y-110757671D01*
X219505908Y-110892517D01*
X219499501Y-110952116D01*
X219499501Y-110952123D01*
X219499500Y-110952135D01*
X59000500Y-110952135D01*
X59000500Y-108155128D01*
X59020185Y-108088089D01*
X59072989Y-108042334D01*
X59142147Y-108032390D01*
X59190472Y-108050134D01*
X59415466Y-108191507D01*
X59668449Y-108313337D01*
X59933486Y-108406077D01*
X59933488Y-108406078D01*
X60207242Y-108468560D01*
X60207254Y-108468562D01*
X60486265Y-108499999D01*
X60486267Y-108500000D01*
X60767067Y-108500000D01*
X60767068Y-108499999D01*
X61046079Y-108468562D01*
X61046091Y-108468560D01*
X61319845Y-108406078D01*
X61319847Y-108406077D01*
X61584884Y-108313337D01*
X61837867Y-108191507D01*
X62075623Y-108042116D01*
X62208924Y-107935810D01*
X61110597Y-106837483D01*
X61241946Y-106749720D01*
X61376387Y-106615279D01*
X61464150Y-106483930D01*
X62562477Y-107582257D01*
X62668783Y-107448956D01*
X62818174Y-107211200D01*
X62940004Y-106958217D01*
X63032744Y-106693180D01*
X63032745Y-106693178D01*
X63095227Y-106419424D01*
X63095229Y-106419412D01*
X63126666Y-106140401D01*
X63126667Y-106140399D01*
X63126667Y-105859600D01*
X63126666Y-105859598D01*
X73426667Y-105859598D01*
X73426667Y-106140401D01*
X73458104Y-106419412D01*
X73458106Y-106419424D01*
X73520588Y-106693178D01*
X73520589Y-106693180D01*
X73613329Y-106958217D01*
X73735159Y-107211200D01*
X73884551Y-107448956D01*
X73990854Y-107582257D01*
X75089182Y-106483929D01*
X75176947Y-106615279D01*
X75311388Y-106749720D01*
X75442736Y-106837483D01*
X74344408Y-107935810D01*
X74344408Y-107935811D01*
X74477710Y-108042115D01*
X74715466Y-108191507D01*
X74968449Y-108313337D01*
X75233486Y-108406077D01*
X75233488Y-108406078D01*
X75507242Y-108468560D01*
X75507254Y-108468562D01*
X75786265Y-108499999D01*
X75786267Y-108500000D01*
X76067067Y-108500000D01*
X76067068Y-108499999D01*
X76346079Y-108468562D01*
X76346091Y-108468560D01*
X76619845Y-108406078D01*
X76619847Y-108406077D01*
X76884884Y-108313337D01*
X77137867Y-108191507D01*
X77375623Y-108042116D01*
X77508924Y-107935810D01*
X76410597Y-106837484D01*
X76541946Y-106749720D01*
X76676387Y-106615279D01*
X76764150Y-106483930D01*
X77862477Y-107582257D01*
X77968783Y-107448956D01*
X78118174Y-107211200D01*
X78240004Y-106958217D01*
X78263521Y-106891011D01*
X78263521Y-106891010D01*
X78332745Y-106693176D01*
X78395227Y-106419424D01*
X78395229Y-106419412D01*
X78426666Y-106140401D01*
X78426667Y-106140399D01*
X78426667Y-105859600D01*
X78426666Y-105859598D01*
X78395229Y-105580587D01*
X78395227Y-105580575D01*
X78332745Y-105306821D01*
X78332745Y-105306820D01*
X78332389Y-105305803D01*
X78319478Y-105268905D01*
X219500000Y-105268905D01*
X219500000Y-105531094D01*
X219534220Y-105791009D01*
X219534222Y-105791020D01*
X219602075Y-106044255D01*
X219702404Y-106286471D01*
X219702409Y-106286482D01*
X219833488Y-106513516D01*
X219833494Y-106513524D01*
X219920080Y-106626365D01*
X220814767Y-105731677D01*
X220826497Y-105759995D01*
X220909670Y-105884472D01*
X221015528Y-105990330D01*
X221140005Y-106073503D01*
X221168320Y-106085231D01*
X220273633Y-106979917D01*
X220273633Y-106979918D01*
X220386475Y-107066505D01*
X220386483Y-107066511D01*
X220613517Y-107197590D01*
X220613528Y-107197595D01*
X220855744Y-107297924D01*
X221108979Y-107365777D01*
X221108990Y-107365779D01*
X221368905Y-107399999D01*
X221368920Y-107400000D01*
X221631080Y-107400000D01*
X221631094Y-107399999D01*
X221891009Y-107365779D01*
X221891020Y-107365777D01*
X222144255Y-107297924D01*
X222386471Y-107197595D01*
X222386482Y-107197590D01*
X222613516Y-107066511D01*
X222613534Y-107066499D01*
X222726365Y-106979919D01*
X222726365Y-106979917D01*
X221831679Y-106085231D01*
X221859995Y-106073503D01*
X221984472Y-105990330D01*
X222090330Y-105884472D01*
X222173503Y-105759995D01*
X222185231Y-105731679D01*
X223079917Y-106626365D01*
X223079919Y-106626365D01*
X223166499Y-106513534D01*
X223166511Y-106513516D01*
X223297590Y-106286482D01*
X223297595Y-106286471D01*
X223397924Y-106044255D01*
X223465777Y-105791020D01*
X223465779Y-105791009D01*
X223499999Y-105531094D01*
X223500000Y-105531080D01*
X223500000Y-105268919D01*
X223499999Y-105268905D01*
X223465779Y-105008990D01*
X223465777Y-105008979D01*
X223397924Y-104755744D01*
X223297595Y-104513528D01*
X223297590Y-104513517D01*
X223166511Y-104286483D01*
X223166505Y-104286475D01*
X223079918Y-104173633D01*
X223079917Y-104173633D01*
X222185231Y-105068320D01*
X222173503Y-105040005D01*
X222090330Y-104915528D01*
X221984472Y-104809670D01*
X221859995Y-104726497D01*
X221831677Y-104714767D01*
X222726365Y-103820080D01*
X222613524Y-103733494D01*
X222613516Y-103733488D01*
X222386482Y-103602409D01*
X222386471Y-103602404D01*
X222144255Y-103502075D01*
X221891020Y-103434222D01*
X221891009Y-103434220D01*
X221631094Y-103400000D01*
X221368905Y-103400000D01*
X221108990Y-103434220D01*
X221108979Y-103434222D01*
X220855744Y-103502075D01*
X220613528Y-103602404D01*
X220613517Y-103602409D01*
X220386471Y-103733496D01*
X220273633Y-103820079D01*
X220273633Y-103820080D01*
X221168321Y-104714768D01*
X221140005Y-104726497D01*
X221015528Y-104809670D01*
X220909670Y-104915528D01*
X220826497Y-105040005D01*
X220814768Y-105068321D01*
X219920080Y-104173633D01*
X219920079Y-104173633D01*
X219833496Y-104286471D01*
X219702409Y-104513517D01*
X219702404Y-104513528D01*
X219602075Y-104755744D01*
X219534222Y-105008979D01*
X219534220Y-105008990D01*
X219500000Y-105268905D01*
X78319478Y-105268905D01*
X78240003Y-105041780D01*
X78118174Y-104788799D01*
X77968782Y-104551043D01*
X77862477Y-104417741D01*
X76764150Y-105516068D01*
X76676387Y-105384721D01*
X76541946Y-105250280D01*
X76410597Y-105162515D01*
X77508924Y-104064187D01*
X77384522Y-103964980D01*
X77384521Y-103964978D01*
X77375627Y-103957886D01*
X77137867Y-103808492D01*
X76884884Y-103686662D01*
X76619847Y-103593922D01*
X76619845Y-103593921D01*
X76346091Y-103531439D01*
X76346079Y-103531437D01*
X76067068Y-103500000D01*
X75786265Y-103500000D01*
X75507254Y-103531437D01*
X75507242Y-103531439D01*
X75233488Y-103593921D01*
X75233486Y-103593922D01*
X74968449Y-103686662D01*
X74715466Y-103808492D01*
X74477710Y-103957884D01*
X74344408Y-104064187D01*
X75442736Y-105162515D01*
X75311388Y-105250280D01*
X75176947Y-105384721D01*
X75089182Y-105516069D01*
X73990854Y-104417741D01*
X73884551Y-104551043D01*
X73735159Y-104788799D01*
X73613329Y-105041782D01*
X73520589Y-105306819D01*
X73520588Y-105306821D01*
X73458106Y-105580575D01*
X73458104Y-105580587D01*
X73426667Y-105859598D01*
X63126666Y-105859598D01*
X63095229Y-105580587D01*
X63095227Y-105580575D01*
X63032745Y-105306821D01*
X63032744Y-105306819D01*
X62940004Y-105041782D01*
X62818174Y-104788799D01*
X62668782Y-104551043D01*
X62562477Y-104417741D01*
X61464150Y-105516068D01*
X61376387Y-105384721D01*
X61241946Y-105250280D01*
X61110596Y-105162514D01*
X62208924Y-104064187D01*
X62075623Y-103957884D01*
X61837867Y-103808492D01*
X61584884Y-103686662D01*
X61319847Y-103593922D01*
X61319845Y-103593921D01*
X61046091Y-103531439D01*
X61046079Y-103531437D01*
X60767068Y-103500000D01*
X60486265Y-103500000D01*
X60207254Y-103531437D01*
X60207242Y-103531439D01*
X59933488Y-103593921D01*
X59933486Y-103593922D01*
X59668449Y-103686662D01*
X59415466Y-103808492D01*
X59190472Y-103949865D01*
X59123235Y-103968865D01*
X59056400Y-103948497D01*
X59011186Y-103895229D01*
X59000500Y-103844871D01*
X59000500Y-98772135D01*
X219499500Y-98772135D01*
X219499500Y-101867870D01*
X219499501Y-101867876D01*
X219505908Y-101927483D01*
X219556202Y-102062328D01*
X219556206Y-102062335D01*
X219642452Y-102177544D01*
X219642455Y-102177547D01*
X219757664Y-102263793D01*
X219757671Y-102263797D01*
X219892517Y-102314091D01*
X219892516Y-102314091D01*
X219899444Y-102314835D01*
X219952127Y-102320500D01*
X223047872Y-102320499D01*
X223107483Y-102314091D01*
X223242331Y-102263796D01*
X223357546Y-102177546D01*
X223443796Y-102062331D01*
X223494091Y-101927483D01*
X223500500Y-101867873D01*
X223500499Y-98772128D01*
X223494091Y-98712517D01*
X223443796Y-98577669D01*
X223443795Y-98577668D01*
X223443793Y-98577664D01*
X223357547Y-98462455D01*
X223357544Y-98462452D01*
X223242335Y-98376206D01*
X223242328Y-98376202D01*
X223107482Y-98325908D01*
X223107483Y-98325908D01*
X223047883Y-98319501D01*
X223047881Y-98319500D01*
X223047873Y-98319500D01*
X223047864Y-98319500D01*
X219952129Y-98319500D01*
X219952123Y-98319501D01*
X219892516Y-98325908D01*
X219757671Y-98376202D01*
X219757664Y-98376206D01*
X219642455Y-98462452D01*
X219642452Y-98462455D01*
X219556206Y-98577664D01*
X219556202Y-98577671D01*
X219505908Y-98712517D01*
X219499501Y-98772116D01*
X219499501Y-98772123D01*
X219499500Y-98772135D01*
X59000500Y-98772135D01*
X59000500Y-93088905D01*
X219500000Y-93088905D01*
X219500000Y-93351094D01*
X219534220Y-93611009D01*
X219534222Y-93611020D01*
X219602075Y-93864255D01*
X219702404Y-94106471D01*
X219702409Y-94106482D01*
X219833488Y-94333516D01*
X219833494Y-94333524D01*
X219920080Y-94446365D01*
X220814767Y-93551677D01*
X220826497Y-93579995D01*
X220909670Y-93704472D01*
X221015528Y-93810330D01*
X221140005Y-93893503D01*
X221168320Y-93905231D01*
X220273633Y-94799917D01*
X220273633Y-94799918D01*
X220386475Y-94886505D01*
X220386483Y-94886511D01*
X220613517Y-95017590D01*
X220613528Y-95017595D01*
X220855744Y-95117924D01*
X221108979Y-95185777D01*
X221108990Y-95185779D01*
X221368905Y-95219999D01*
X221368920Y-95220000D01*
X221631080Y-95220000D01*
X221631094Y-95219999D01*
X221891009Y-95185779D01*
X221891020Y-95185777D01*
X222144255Y-95117924D01*
X222386471Y-95017595D01*
X222386482Y-95017590D01*
X222613516Y-94886511D01*
X222613534Y-94886499D01*
X222726365Y-94799919D01*
X222726365Y-94799917D01*
X221831679Y-93905231D01*
X221859995Y-93893503D01*
X221984472Y-93810330D01*
X222090330Y-93704472D01*
X222173503Y-93579995D01*
X222185231Y-93551679D01*
X223079917Y-94446365D01*
X223079919Y-94446365D01*
X223166499Y-94333534D01*
X223166511Y-94333516D01*
X223297590Y-94106482D01*
X223297595Y-94106471D01*
X223397924Y-93864255D01*
X223465777Y-93611020D01*
X223465779Y-93611009D01*
X223499999Y-93351094D01*
X223500000Y-93351080D01*
X223500000Y-93088919D01*
X223499999Y-93088905D01*
X223465779Y-92828990D01*
X223465777Y-92828979D01*
X223397924Y-92575744D01*
X223297595Y-92333528D01*
X223297590Y-92333517D01*
X223166511Y-92106483D01*
X223166505Y-92106475D01*
X223079918Y-91993633D01*
X223079917Y-91993633D01*
X222185231Y-92888320D01*
X222173503Y-92860005D01*
X222090330Y-92735528D01*
X221984472Y-92629670D01*
X221859995Y-92546497D01*
X221831677Y-92534767D01*
X222726365Y-91640080D01*
X222613524Y-91553494D01*
X222613516Y-91553488D01*
X222386482Y-91422409D01*
X222386471Y-91422404D01*
X222144255Y-91322075D01*
X221891020Y-91254222D01*
X221891009Y-91254220D01*
X221631094Y-91220000D01*
X221368905Y-91220000D01*
X221108990Y-91254220D01*
X221108979Y-91254222D01*
X220855744Y-91322075D01*
X220613528Y-91422404D01*
X220613517Y-91422409D01*
X220386471Y-91553496D01*
X220273633Y-91640079D01*
X220273633Y-91640080D01*
X221168321Y-92534768D01*
X221140005Y-92546497D01*
X221015528Y-92629670D01*
X220909670Y-92735528D01*
X220826497Y-92860005D01*
X220814768Y-92888321D01*
X219920080Y-91993633D01*
X219920079Y-91993633D01*
X219833496Y-92106471D01*
X219702409Y-92333517D01*
X219702404Y-92333528D01*
X219602075Y-92575744D01*
X219534222Y-92828979D01*
X219534220Y-92828990D01*
X219500000Y-93088905D01*
X59000500Y-93088905D01*
X59000500Y-89155718D01*
X59020185Y-89088679D01*
X59072989Y-89042924D01*
X59142147Y-89032980D01*
X59190469Y-89050722D01*
X59415222Y-89191945D01*
X59668259Y-89313801D01*
X59867347Y-89383465D01*
X59933337Y-89406556D01*
X59933349Y-89406560D01*
X60207158Y-89469055D01*
X60207164Y-89469055D01*
X60207172Y-89469057D01*
X60393214Y-89490018D01*
X60486236Y-89500499D01*
X60486239Y-89500500D01*
X60486242Y-89500500D01*
X60767095Y-89500500D01*
X60767096Y-89500499D01*
X60909722Y-89484429D01*
X61046161Y-89469057D01*
X61046166Y-89469056D01*
X61046176Y-89469055D01*
X61319985Y-89406560D01*
X61585075Y-89313801D01*
X61838112Y-89191945D01*
X62075915Y-89042523D01*
X62295492Y-88867416D01*
X62494083Y-88668825D01*
X62669190Y-88449248D01*
X62818612Y-88211445D01*
X62940468Y-87958408D01*
X63033227Y-87693318D01*
X63095722Y-87419509D01*
X63127167Y-87140425D01*
X63127167Y-86859575D01*
X63127166Y-86859568D01*
X73426167Y-86859568D01*
X73426167Y-87140431D01*
X73457609Y-87419494D01*
X73457612Y-87419512D01*
X73520106Y-87693317D01*
X73520110Y-87693329D01*
X73612867Y-87958411D01*
X73734720Y-88211442D01*
X73734722Y-88211445D01*
X73884144Y-88449248D01*
X74059251Y-88668825D01*
X74257842Y-88867416D01*
X74477419Y-89042523D01*
X74715222Y-89191945D01*
X74968259Y-89313801D01*
X75167347Y-89383465D01*
X75233337Y-89406556D01*
X75233349Y-89406560D01*
X75507158Y-89469055D01*
X75507164Y-89469055D01*
X75507172Y-89469057D01*
X75693214Y-89490018D01*
X75786236Y-89500499D01*
X75786239Y-89500500D01*
X75786242Y-89500500D01*
X76067095Y-89500500D01*
X76067096Y-89500499D01*
X76209722Y-89484429D01*
X76346161Y-89469057D01*
X76346166Y-89469056D01*
X76346176Y-89469055D01*
X76619985Y-89406560D01*
X76885075Y-89313801D01*
X77138112Y-89191945D01*
X77375915Y-89042523D01*
X77595492Y-88867416D01*
X77794083Y-88668825D01*
X77969190Y-88449248D01*
X78118612Y-88211445D01*
X78240468Y-87958408D01*
X78333227Y-87693318D01*
X78395722Y-87419509D01*
X78427167Y-87140425D01*
X78427167Y-86859575D01*
X78421678Y-86810865D01*
X78398224Y-86602689D01*
X78397034Y-86592135D01*
X219499500Y-86592135D01*
X219499500Y-89687870D01*
X219499501Y-89687876D01*
X219505908Y-89747483D01*
X219556202Y-89882328D01*
X219556206Y-89882335D01*
X219642452Y-89997544D01*
X219642455Y-89997547D01*
X219757664Y-90083793D01*
X219757671Y-90083797D01*
X219892517Y-90134091D01*
X219892516Y-90134091D01*
X219899444Y-90134835D01*
X219952127Y-90140500D01*
X223047872Y-90140499D01*
X223107483Y-90134091D01*
X223242331Y-90083796D01*
X223357546Y-89997546D01*
X223443796Y-89882331D01*
X223494091Y-89747483D01*
X223500500Y-89687873D01*
X223500499Y-86592128D01*
X223494091Y-86532517D01*
X223443796Y-86397669D01*
X223443795Y-86397668D01*
X223443793Y-86397664D01*
X223357547Y-86282455D01*
X223357544Y-86282452D01*
X223242335Y-86196206D01*
X223242328Y-86196202D01*
X223107482Y-86145908D01*
X223107483Y-86145908D01*
X223047883Y-86139501D01*
X223047881Y-86139500D01*
X223047873Y-86139500D01*
X223047864Y-86139500D01*
X219952129Y-86139500D01*
X219952123Y-86139501D01*
X219892516Y-86145908D01*
X219757671Y-86196202D01*
X219757664Y-86196206D01*
X219642455Y-86282452D01*
X219642452Y-86282455D01*
X219556206Y-86397664D01*
X219556202Y-86397671D01*
X219505908Y-86532517D01*
X219499501Y-86592116D01*
X219499501Y-86592123D01*
X219499500Y-86592135D01*
X78397034Y-86592135D01*
X78396030Y-86583231D01*
X78395722Y-86580491D01*
X78333227Y-86306682D01*
X78240468Y-86041592D01*
X78118612Y-85788555D01*
X77969190Y-85550752D01*
X77794083Y-85331175D01*
X77595492Y-85132584D01*
X77375915Y-84957477D01*
X77138112Y-84808055D01*
X77138109Y-84808053D01*
X76885078Y-84686200D01*
X76619996Y-84593443D01*
X76619984Y-84593439D01*
X76346179Y-84530945D01*
X76346161Y-84530942D01*
X76067098Y-84499500D01*
X76067092Y-84499500D01*
X75786242Y-84499500D01*
X75786235Y-84499500D01*
X75507172Y-84530942D01*
X75507154Y-84530945D01*
X75233349Y-84593439D01*
X75233337Y-84593443D01*
X74968255Y-84686200D01*
X74715224Y-84808053D01*
X74477420Y-84957476D01*
X74257842Y-85132583D01*
X74059250Y-85331175D01*
X73884143Y-85550753D01*
X73734720Y-85788557D01*
X73612867Y-86041588D01*
X73520110Y-86306670D01*
X73520106Y-86306682D01*
X73457612Y-86580487D01*
X73457609Y-86580505D01*
X73426167Y-86859568D01*
X63127166Y-86859568D01*
X63097034Y-86592135D01*
X63095724Y-86580505D01*
X63095721Y-86580487D01*
X63033227Y-86306682D01*
X63033223Y-86306670D01*
X62976970Y-86145909D01*
X62940468Y-86041592D01*
X62818612Y-85788555D01*
X62669190Y-85550752D01*
X62494083Y-85331175D01*
X62295492Y-85132584D01*
X62075915Y-84957477D01*
X61838112Y-84808055D01*
X61838109Y-84808053D01*
X61585078Y-84686200D01*
X61319996Y-84593443D01*
X61319984Y-84593439D01*
X61046179Y-84530945D01*
X61046161Y-84530942D01*
X60767098Y-84499500D01*
X60767092Y-84499500D01*
X60486242Y-84499500D01*
X60486235Y-84499500D01*
X60207172Y-84530942D01*
X60207154Y-84530945D01*
X59933349Y-84593439D01*
X59933337Y-84593443D01*
X59668255Y-84686200D01*
X59415224Y-84808053D01*
X59190472Y-84949275D01*
X59123235Y-84968275D01*
X59056400Y-84947907D01*
X59011186Y-84894639D01*
X59000500Y-84844281D01*
X59000500Y-80908905D01*
X219500000Y-80908905D01*
X219500000Y-81171094D01*
X219534220Y-81431009D01*
X219534222Y-81431020D01*
X219602075Y-81684255D01*
X219702404Y-81926471D01*
X219702409Y-81926482D01*
X219833488Y-82153516D01*
X219833494Y-82153524D01*
X219920080Y-82266365D01*
X220814767Y-81371677D01*
X220826497Y-81399995D01*
X220909670Y-81524472D01*
X221015528Y-81630330D01*
X221140005Y-81713503D01*
X221168320Y-81725231D01*
X220273633Y-82619917D01*
X220273633Y-82619918D01*
X220386475Y-82706505D01*
X220386483Y-82706511D01*
X220613517Y-82837590D01*
X220613528Y-82837595D01*
X220855744Y-82937924D01*
X221108979Y-83005777D01*
X221108990Y-83005779D01*
X221368905Y-83039999D01*
X221368920Y-83040000D01*
X221631080Y-83040000D01*
X221631094Y-83039999D01*
X221891009Y-83005779D01*
X221891020Y-83005777D01*
X222144255Y-82937924D01*
X222386471Y-82837595D01*
X222386482Y-82837590D01*
X222613516Y-82706511D01*
X222613534Y-82706499D01*
X222726365Y-82619919D01*
X222726365Y-82619917D01*
X221831679Y-81725231D01*
X221859995Y-81713503D01*
X221984472Y-81630330D01*
X222090330Y-81524472D01*
X222173503Y-81399995D01*
X222185231Y-81371679D01*
X223079917Y-82266365D01*
X223079919Y-82266365D01*
X223166499Y-82153534D01*
X223166511Y-82153516D01*
X223297590Y-81926482D01*
X223297595Y-81926471D01*
X223397924Y-81684255D01*
X223465777Y-81431020D01*
X223465779Y-81431009D01*
X223499999Y-81171094D01*
X223500000Y-81171080D01*
X223500000Y-80908919D01*
X223499999Y-80908905D01*
X223465779Y-80648990D01*
X223465777Y-80648979D01*
X223397924Y-80395744D01*
X223297595Y-80153528D01*
X223297590Y-80153517D01*
X223166511Y-79926483D01*
X223166505Y-79926475D01*
X223079918Y-79813633D01*
X223079917Y-79813633D01*
X222185231Y-80708320D01*
X222173503Y-80680005D01*
X222090330Y-80555528D01*
X221984472Y-80449670D01*
X221859995Y-80366497D01*
X221831677Y-80354767D01*
X222726365Y-79460080D01*
X222613524Y-79373494D01*
X222613516Y-79373488D01*
X222386482Y-79242409D01*
X222386471Y-79242404D01*
X222144255Y-79142075D01*
X221891020Y-79074222D01*
X221891009Y-79074220D01*
X221631094Y-79040000D01*
X221368905Y-79040000D01*
X221108990Y-79074220D01*
X221108979Y-79074222D01*
X220855744Y-79142075D01*
X220613528Y-79242404D01*
X220613517Y-79242409D01*
X220386471Y-79373496D01*
X220273633Y-79460079D01*
X220273633Y-79460080D01*
X221168321Y-80354768D01*
X221140005Y-80366497D01*
X221015528Y-80449670D01*
X220909670Y-80555528D01*
X220826497Y-80680005D01*
X220814768Y-80708321D01*
X219920080Y-79813633D01*
X219920079Y-79813633D01*
X219833496Y-79926471D01*
X219702409Y-80153517D01*
X219702404Y-80153528D01*
X219602075Y-80395744D01*
X219534222Y-80648979D01*
X219534220Y-80648990D01*
X219500000Y-80908905D01*
X59000500Y-80908905D01*
X59000500Y-77313188D01*
X59020185Y-77246149D01*
X59072989Y-77200394D01*
X59142147Y-77190450D01*
X59205703Y-77219475D01*
X59239061Y-77265736D01*
X59289068Y-77386466D01*
X59289076Y-77386482D01*
X59420155Y-77613516D01*
X59420161Y-77613524D01*
X59506747Y-77726365D01*
X60401434Y-76831677D01*
X60413164Y-76859995D01*
X60496337Y-76984472D01*
X60602195Y-77090330D01*
X60726672Y-77173503D01*
X60754987Y-77185231D01*
X59860300Y-78079917D01*
X59860300Y-78079918D01*
X59973142Y-78166505D01*
X59973150Y-78166511D01*
X60200184Y-78297590D01*
X60200195Y-78297595D01*
X60442411Y-78397924D01*
X60695646Y-78465777D01*
X60695657Y-78465779D01*
X60955572Y-78499999D01*
X60955587Y-78500000D01*
X61217747Y-78500000D01*
X61217761Y-78499999D01*
X61477676Y-78465779D01*
X61477687Y-78465777D01*
X61730922Y-78397924D01*
X61973138Y-78297595D01*
X61973149Y-78297590D01*
X62200183Y-78166511D01*
X62200201Y-78166499D01*
X62313032Y-78079919D01*
X62313032Y-78079917D01*
X61418346Y-77185231D01*
X61446662Y-77173503D01*
X61571139Y-77090330D01*
X61676997Y-76984472D01*
X61760170Y-76859995D01*
X61771898Y-76831679D01*
X62666584Y-77726365D01*
X62666586Y-77726365D01*
X62753166Y-77613534D01*
X62753178Y-77613516D01*
X62884257Y-77386482D01*
X62884262Y-77386471D01*
X62984591Y-77144255D01*
X63052444Y-76891020D01*
X63052446Y-76891009D01*
X63086666Y-76631094D01*
X63086667Y-76631080D01*
X63086667Y-76368919D01*
X63086666Y-76368905D01*
X63052446Y-76108990D01*
X63052444Y-76108979D01*
X62984591Y-75855744D01*
X62884262Y-75613528D01*
X62884257Y-75613517D01*
X62753178Y-75386483D01*
X62753172Y-75386475D01*
X62666585Y-75273633D01*
X62666584Y-75273633D01*
X61771898Y-76168320D01*
X61760170Y-76140005D01*
X61676997Y-76015528D01*
X61571139Y-75909670D01*
X61446662Y-75826497D01*
X61418344Y-75814767D01*
X62280977Y-74952135D01*
X64166167Y-74952135D01*
X64166167Y-78047870D01*
X64166168Y-78047876D01*
X64172575Y-78107483D01*
X64222869Y-78242328D01*
X64222873Y-78242335D01*
X64309119Y-78357544D01*
X64309122Y-78357547D01*
X64424331Y-78443793D01*
X64424338Y-78443797D01*
X64559184Y-78494091D01*
X64559183Y-78494091D01*
X64566111Y-78494835D01*
X64618794Y-78500500D01*
X67714539Y-78500499D01*
X67774150Y-78494091D01*
X67908998Y-78443796D01*
X68024213Y-78357546D01*
X68110463Y-78242331D01*
X68160758Y-78107483D01*
X68167167Y-78047873D01*
X68167166Y-76368905D01*
X70420000Y-76368905D01*
X70420000Y-76631094D01*
X70454220Y-76891009D01*
X70454222Y-76891020D01*
X70522075Y-77144255D01*
X70622404Y-77386471D01*
X70622409Y-77386482D01*
X70753488Y-77613516D01*
X70753494Y-77613524D01*
X70840080Y-77726365D01*
X71734767Y-76831677D01*
X71746497Y-76859995D01*
X71829670Y-76984472D01*
X71935528Y-77090330D01*
X72060005Y-77173503D01*
X72088320Y-77185231D01*
X71193633Y-78079917D01*
X71193633Y-78079918D01*
X71306475Y-78166505D01*
X71306483Y-78166511D01*
X71533517Y-78297590D01*
X71533528Y-78297595D01*
X71775744Y-78397924D01*
X72028979Y-78465777D01*
X72028990Y-78465779D01*
X72288905Y-78499999D01*
X72288920Y-78500000D01*
X72551080Y-78500000D01*
X72551094Y-78499999D01*
X72811009Y-78465779D01*
X72811020Y-78465777D01*
X73064255Y-78397924D01*
X73306471Y-78297595D01*
X73306482Y-78297590D01*
X73533516Y-78166511D01*
X73533534Y-78166499D01*
X73646365Y-78079919D01*
X73646365Y-78079917D01*
X72751679Y-77185231D01*
X72779995Y-77173503D01*
X72904472Y-77090330D01*
X73010330Y-76984472D01*
X73093503Y-76859995D01*
X73105231Y-76831679D01*
X73999917Y-77726365D01*
X73999919Y-77726365D01*
X74086499Y-77613534D01*
X74086511Y-77613516D01*
X74217590Y-77386482D01*
X74217595Y-77386471D01*
X74317924Y-77144255D01*
X74385777Y-76891020D01*
X74385779Y-76891009D01*
X74419999Y-76631094D01*
X74420000Y-76631080D01*
X74420000Y-76368919D01*
X74419999Y-76368905D01*
X74385779Y-76108990D01*
X74385777Y-76108979D01*
X74317924Y-75855744D01*
X74217595Y-75613528D01*
X74217590Y-75613517D01*
X74086511Y-75386483D01*
X74086505Y-75386475D01*
X73999918Y-75273633D01*
X73999917Y-75273633D01*
X73105231Y-76168320D01*
X73093503Y-76140005D01*
X73010330Y-76015528D01*
X72904472Y-75909670D01*
X72779995Y-75826497D01*
X72751677Y-75814767D01*
X73614310Y-74952135D01*
X75499500Y-74952135D01*
X75499500Y-78047870D01*
X75499501Y-78047876D01*
X75505908Y-78107483D01*
X75556202Y-78242328D01*
X75556206Y-78242335D01*
X75642452Y-78357544D01*
X75642455Y-78357547D01*
X75757664Y-78443793D01*
X75757671Y-78443797D01*
X75892517Y-78494091D01*
X75892516Y-78494091D01*
X75899444Y-78494835D01*
X75952127Y-78500500D01*
X79047872Y-78500499D01*
X79107483Y-78494091D01*
X79242331Y-78443796D01*
X79357546Y-78357546D01*
X79443796Y-78242331D01*
X79494091Y-78107483D01*
X79500500Y-78047873D01*
X79500499Y-76368905D01*
X81753334Y-76368905D01*
X81753334Y-76631094D01*
X81787554Y-76891009D01*
X81787556Y-76891020D01*
X81855409Y-77144255D01*
X81955738Y-77386471D01*
X81955743Y-77386482D01*
X82086822Y-77613516D01*
X82086828Y-77613524D01*
X82173414Y-77726365D01*
X83068101Y-76831677D01*
X83079831Y-76859995D01*
X83163004Y-76984472D01*
X83268862Y-77090330D01*
X83393339Y-77173503D01*
X83421654Y-77185231D01*
X82526967Y-78079917D01*
X82526967Y-78079918D01*
X82639809Y-78166505D01*
X82639817Y-78166511D01*
X82866851Y-78297590D01*
X82866862Y-78297595D01*
X83109078Y-78397924D01*
X83362313Y-78465777D01*
X83362324Y-78465779D01*
X83622239Y-78499999D01*
X83622254Y-78500000D01*
X83884414Y-78500000D01*
X83884428Y-78499999D01*
X84144343Y-78465779D01*
X84144354Y-78465777D01*
X84397589Y-78397924D01*
X84639805Y-78297595D01*
X84639816Y-78297590D01*
X84866850Y-78166511D01*
X84866868Y-78166499D01*
X84979699Y-78079919D01*
X84979699Y-78079917D01*
X84085013Y-77185231D01*
X84113329Y-77173503D01*
X84237806Y-77090330D01*
X84343664Y-76984472D01*
X84426837Y-76859995D01*
X84438565Y-76831679D01*
X85333251Y-77726365D01*
X85333253Y-77726365D01*
X85419833Y-77613534D01*
X85419845Y-77613516D01*
X85550924Y-77386482D01*
X85550929Y-77386471D01*
X85651258Y-77144255D01*
X85719111Y-76891020D01*
X85719113Y-76891009D01*
X85753333Y-76631094D01*
X85753334Y-76631080D01*
X85753334Y-76368919D01*
X85753333Y-76368905D01*
X85719113Y-76108990D01*
X85719111Y-76108979D01*
X85651258Y-75855744D01*
X85550929Y-75613528D01*
X85550924Y-75613517D01*
X85419845Y-75386483D01*
X85419839Y-75386475D01*
X85333252Y-75273633D01*
X85333251Y-75273633D01*
X84438565Y-76168320D01*
X84426837Y-76140005D01*
X84343664Y-76015528D01*
X84237806Y-75909670D01*
X84113329Y-75826497D01*
X84085011Y-75814767D01*
X84947644Y-74952135D01*
X86832834Y-74952135D01*
X86832834Y-78047870D01*
X86832835Y-78047876D01*
X86839242Y-78107483D01*
X86889536Y-78242328D01*
X86889540Y-78242335D01*
X86975786Y-78357544D01*
X86975789Y-78357547D01*
X87090998Y-78443793D01*
X87091005Y-78443797D01*
X87225851Y-78494091D01*
X87225850Y-78494091D01*
X87232778Y-78494835D01*
X87285461Y-78500500D01*
X90381206Y-78500499D01*
X90440817Y-78494091D01*
X90575665Y-78443796D01*
X90690880Y-78357546D01*
X90777130Y-78242331D01*
X90827425Y-78107483D01*
X90833834Y-78047873D01*
X90833833Y-76368905D01*
X93086667Y-76368905D01*
X93086667Y-76631094D01*
X93120887Y-76891009D01*
X93120889Y-76891020D01*
X93188742Y-77144255D01*
X93289071Y-77386471D01*
X93289076Y-77386482D01*
X93420155Y-77613516D01*
X93420161Y-77613524D01*
X93506747Y-77726365D01*
X94401434Y-76831677D01*
X94413164Y-76859995D01*
X94496337Y-76984472D01*
X94602195Y-77090330D01*
X94726672Y-77173503D01*
X94754987Y-77185231D01*
X93860300Y-78079917D01*
X93860300Y-78079918D01*
X93973142Y-78166505D01*
X93973150Y-78166511D01*
X94200184Y-78297590D01*
X94200195Y-78297595D01*
X94442411Y-78397924D01*
X94695646Y-78465777D01*
X94695657Y-78465779D01*
X94955572Y-78499999D01*
X94955587Y-78500000D01*
X95217747Y-78500000D01*
X95217761Y-78499999D01*
X95477676Y-78465779D01*
X95477687Y-78465777D01*
X95730922Y-78397924D01*
X95973138Y-78297595D01*
X95973149Y-78297590D01*
X96200183Y-78166511D01*
X96200201Y-78166499D01*
X96313032Y-78079919D01*
X96313032Y-78079917D01*
X95418346Y-77185231D01*
X95446662Y-77173503D01*
X95571139Y-77090330D01*
X95676997Y-76984472D01*
X95760170Y-76859995D01*
X95771898Y-76831679D01*
X96666584Y-77726365D01*
X96666586Y-77726365D01*
X96753166Y-77613534D01*
X96753178Y-77613516D01*
X96884257Y-77386482D01*
X96884262Y-77386471D01*
X96984591Y-77144255D01*
X97052444Y-76891020D01*
X97052446Y-76891009D01*
X97086666Y-76631094D01*
X97086667Y-76631080D01*
X97086667Y-76368919D01*
X97086666Y-76368905D01*
X97052446Y-76108990D01*
X97052444Y-76108979D01*
X96984591Y-75855744D01*
X96884262Y-75613528D01*
X96884257Y-75613517D01*
X96753178Y-75386483D01*
X96753172Y-75386475D01*
X96666585Y-75273633D01*
X96666584Y-75273633D01*
X95771898Y-76168320D01*
X95760170Y-76140005D01*
X95676997Y-76015528D01*
X95571139Y-75909670D01*
X95446662Y-75826497D01*
X95418344Y-75814767D01*
X96280977Y-74952135D01*
X98166167Y-74952135D01*
X98166167Y-78047870D01*
X98166168Y-78047876D01*
X98172575Y-78107483D01*
X98222869Y-78242328D01*
X98222873Y-78242335D01*
X98309119Y-78357544D01*
X98309122Y-78357547D01*
X98424331Y-78443793D01*
X98424338Y-78443797D01*
X98559184Y-78494091D01*
X98559183Y-78494091D01*
X98566111Y-78494835D01*
X98618794Y-78500500D01*
X101714539Y-78500499D01*
X101774150Y-78494091D01*
X101908998Y-78443796D01*
X102024213Y-78357546D01*
X102110463Y-78242331D01*
X102160758Y-78107483D01*
X102167167Y-78047873D01*
X102167166Y-76368905D01*
X104420000Y-76368905D01*
X104420000Y-76631094D01*
X104454220Y-76891009D01*
X104454222Y-76891020D01*
X104522075Y-77144255D01*
X104622404Y-77386471D01*
X104622409Y-77386482D01*
X104753488Y-77613516D01*
X104753494Y-77613524D01*
X104840080Y-77726365D01*
X105734767Y-76831677D01*
X105746497Y-76859995D01*
X105829670Y-76984472D01*
X105935528Y-77090330D01*
X106060005Y-77173503D01*
X106088320Y-77185231D01*
X105193633Y-78079917D01*
X105193633Y-78079918D01*
X105306475Y-78166505D01*
X105306483Y-78166511D01*
X105533517Y-78297590D01*
X105533528Y-78297595D01*
X105775744Y-78397924D01*
X106028979Y-78465777D01*
X106028990Y-78465779D01*
X106288905Y-78499999D01*
X106288920Y-78500000D01*
X106551080Y-78500000D01*
X106551094Y-78499999D01*
X106811009Y-78465779D01*
X106811020Y-78465777D01*
X107064255Y-78397924D01*
X107306471Y-78297595D01*
X107306482Y-78297590D01*
X107533516Y-78166511D01*
X107533534Y-78166499D01*
X107646365Y-78079919D01*
X107646365Y-78079917D01*
X106751679Y-77185231D01*
X106779995Y-77173503D01*
X106904472Y-77090330D01*
X107010330Y-76984472D01*
X107093503Y-76859995D01*
X107105231Y-76831679D01*
X107999917Y-77726365D01*
X107999919Y-77726365D01*
X108086499Y-77613534D01*
X108086511Y-77613516D01*
X108217590Y-77386482D01*
X108217595Y-77386471D01*
X108317924Y-77144255D01*
X108385777Y-76891020D01*
X108385779Y-76891009D01*
X108419999Y-76631094D01*
X108420000Y-76631080D01*
X108420000Y-76368919D01*
X108419999Y-76368905D01*
X108385779Y-76108990D01*
X108385777Y-76108979D01*
X108317924Y-75855744D01*
X108217595Y-75613528D01*
X108217590Y-75613517D01*
X108086511Y-75386483D01*
X108086505Y-75386475D01*
X107999918Y-75273633D01*
X107999917Y-75273633D01*
X107105231Y-76168320D01*
X107093503Y-76140005D01*
X107010330Y-76015528D01*
X106904472Y-75909670D01*
X106779995Y-75826497D01*
X106751677Y-75814767D01*
X107614310Y-74952135D01*
X109499500Y-74952135D01*
X109499500Y-78047870D01*
X109499501Y-78047876D01*
X109505908Y-78107483D01*
X109556202Y-78242328D01*
X109556206Y-78242335D01*
X109642452Y-78357544D01*
X109642455Y-78357547D01*
X109757664Y-78443793D01*
X109757671Y-78443797D01*
X109892517Y-78494091D01*
X109892516Y-78494091D01*
X109899444Y-78494835D01*
X109952127Y-78500500D01*
X113047872Y-78500499D01*
X113107483Y-78494091D01*
X113242331Y-78443796D01*
X113357546Y-78357546D01*
X113443796Y-78242331D01*
X113494091Y-78107483D01*
X113500500Y-78047873D01*
X113500499Y-76368905D01*
X115753334Y-76368905D01*
X115753334Y-76631094D01*
X115787554Y-76891009D01*
X115787556Y-76891020D01*
X115855409Y-77144255D01*
X115955738Y-77386471D01*
X115955743Y-77386482D01*
X116086822Y-77613516D01*
X116086828Y-77613524D01*
X116173414Y-77726365D01*
X117068101Y-76831677D01*
X117079831Y-76859995D01*
X117163004Y-76984472D01*
X117268862Y-77090330D01*
X117393339Y-77173503D01*
X117421654Y-77185231D01*
X116526967Y-78079917D01*
X116526967Y-78079918D01*
X116639809Y-78166505D01*
X116639817Y-78166511D01*
X116866851Y-78297590D01*
X116866862Y-78297595D01*
X117109078Y-78397924D01*
X117362313Y-78465777D01*
X117362324Y-78465779D01*
X117622239Y-78499999D01*
X117622254Y-78500000D01*
X117884414Y-78500000D01*
X117884428Y-78499999D01*
X118144343Y-78465779D01*
X118144354Y-78465777D01*
X118397589Y-78397924D01*
X118639805Y-78297595D01*
X118639816Y-78297590D01*
X118866850Y-78166511D01*
X118866868Y-78166499D01*
X118979699Y-78079919D01*
X118979699Y-78079917D01*
X118085013Y-77185231D01*
X118113329Y-77173503D01*
X118237806Y-77090330D01*
X118343664Y-76984472D01*
X118426837Y-76859995D01*
X118438565Y-76831679D01*
X119333251Y-77726365D01*
X119333253Y-77726365D01*
X119419833Y-77613534D01*
X119419845Y-77613516D01*
X119550924Y-77386482D01*
X119550929Y-77386471D01*
X119651258Y-77144255D01*
X119719111Y-76891020D01*
X119719113Y-76891009D01*
X119753333Y-76631094D01*
X119753334Y-76631080D01*
X119753334Y-76368919D01*
X119753333Y-76368905D01*
X119719113Y-76108990D01*
X119719111Y-76108979D01*
X119651258Y-75855744D01*
X119550929Y-75613528D01*
X119550924Y-75613517D01*
X119419845Y-75386483D01*
X119419839Y-75386475D01*
X119333252Y-75273633D01*
X119333251Y-75273633D01*
X118438565Y-76168320D01*
X118426837Y-76140005D01*
X118343664Y-76015528D01*
X118237806Y-75909670D01*
X118113329Y-75826497D01*
X118085011Y-75814767D01*
X118947644Y-74952135D01*
X120832834Y-74952135D01*
X120832834Y-78047870D01*
X120832835Y-78047876D01*
X120839242Y-78107483D01*
X120889536Y-78242328D01*
X120889540Y-78242335D01*
X120975786Y-78357544D01*
X120975789Y-78357547D01*
X121090998Y-78443793D01*
X121091005Y-78443797D01*
X121225851Y-78494091D01*
X121225850Y-78494091D01*
X121232778Y-78494835D01*
X121285461Y-78500500D01*
X124381206Y-78500499D01*
X124440817Y-78494091D01*
X124575665Y-78443796D01*
X124690880Y-78357546D01*
X124777130Y-78242331D01*
X124827425Y-78107483D01*
X124833834Y-78047873D01*
X124833833Y-76368905D01*
X127086667Y-76368905D01*
X127086667Y-76631094D01*
X127120887Y-76891009D01*
X127120889Y-76891020D01*
X127188742Y-77144255D01*
X127289071Y-77386471D01*
X127289076Y-77386482D01*
X127420155Y-77613516D01*
X127420161Y-77613524D01*
X127506747Y-77726365D01*
X128401434Y-76831677D01*
X128413164Y-76859995D01*
X128496337Y-76984472D01*
X128602195Y-77090330D01*
X128726672Y-77173503D01*
X128754987Y-77185231D01*
X127860300Y-78079917D01*
X127860300Y-78079918D01*
X127973142Y-78166505D01*
X127973150Y-78166511D01*
X128200184Y-78297590D01*
X128200195Y-78297595D01*
X128442411Y-78397924D01*
X128695646Y-78465777D01*
X128695657Y-78465779D01*
X128955572Y-78499999D01*
X128955587Y-78500000D01*
X129217747Y-78500000D01*
X129217761Y-78499999D01*
X129477676Y-78465779D01*
X129477687Y-78465777D01*
X129730922Y-78397924D01*
X129973138Y-78297595D01*
X129973149Y-78297590D01*
X130200183Y-78166511D01*
X130200201Y-78166499D01*
X130313032Y-78079919D01*
X130313032Y-78079917D01*
X129418346Y-77185231D01*
X129446662Y-77173503D01*
X129571139Y-77090330D01*
X129676997Y-76984472D01*
X129760170Y-76859995D01*
X129771898Y-76831679D01*
X130666584Y-77726365D01*
X130666586Y-77726365D01*
X130753166Y-77613534D01*
X130753178Y-77613516D01*
X130884257Y-77386482D01*
X130884262Y-77386471D01*
X130984591Y-77144255D01*
X131052444Y-76891020D01*
X131052446Y-76891009D01*
X131086666Y-76631094D01*
X131086667Y-76631080D01*
X131086667Y-76368919D01*
X131086666Y-76368905D01*
X131052446Y-76108990D01*
X131052444Y-76108979D01*
X130984591Y-75855744D01*
X130884262Y-75613528D01*
X130884257Y-75613517D01*
X130753178Y-75386483D01*
X130753172Y-75386475D01*
X130666585Y-75273633D01*
X130666584Y-75273633D01*
X129771898Y-76168320D01*
X129760170Y-76140005D01*
X129676997Y-76015528D01*
X129571139Y-75909670D01*
X129446662Y-75826497D01*
X129418344Y-75814767D01*
X130280977Y-74952135D01*
X132166167Y-74952135D01*
X132166167Y-78047870D01*
X132166168Y-78047876D01*
X132172575Y-78107483D01*
X132222869Y-78242328D01*
X132222873Y-78242335D01*
X132309119Y-78357544D01*
X132309122Y-78357547D01*
X132424331Y-78443793D01*
X132424338Y-78443797D01*
X132559184Y-78494091D01*
X132559183Y-78494091D01*
X132566111Y-78494835D01*
X132618794Y-78500500D01*
X135714539Y-78500499D01*
X135774150Y-78494091D01*
X135908998Y-78443796D01*
X136024213Y-78357546D01*
X136110463Y-78242331D01*
X136160758Y-78107483D01*
X136167167Y-78047873D01*
X136167166Y-76368905D01*
X138420000Y-76368905D01*
X138420000Y-76631094D01*
X138454220Y-76891009D01*
X138454222Y-76891020D01*
X138522075Y-77144255D01*
X138622404Y-77386471D01*
X138622409Y-77386482D01*
X138753488Y-77613516D01*
X138753494Y-77613524D01*
X138840080Y-77726365D01*
X139734767Y-76831677D01*
X139746497Y-76859995D01*
X139829670Y-76984472D01*
X139935528Y-77090330D01*
X140060005Y-77173503D01*
X140088320Y-77185231D01*
X139193633Y-78079917D01*
X139193633Y-78079918D01*
X139306475Y-78166505D01*
X139306483Y-78166511D01*
X139533517Y-78297590D01*
X139533528Y-78297595D01*
X139775744Y-78397924D01*
X140028979Y-78465777D01*
X140028990Y-78465779D01*
X140288905Y-78499999D01*
X140288920Y-78500000D01*
X140551080Y-78500000D01*
X140551094Y-78499999D01*
X140811009Y-78465779D01*
X140811020Y-78465777D01*
X141064255Y-78397924D01*
X141306471Y-78297595D01*
X141306482Y-78297590D01*
X141533516Y-78166511D01*
X141533534Y-78166499D01*
X141646365Y-78079919D01*
X141646365Y-78079917D01*
X140751679Y-77185231D01*
X140779995Y-77173503D01*
X140904472Y-77090330D01*
X141010330Y-76984472D01*
X141093503Y-76859995D01*
X141105231Y-76831679D01*
X141999917Y-77726365D01*
X141999919Y-77726365D01*
X142086499Y-77613534D01*
X142086511Y-77613516D01*
X142217590Y-77386482D01*
X142217595Y-77386471D01*
X142317924Y-77144255D01*
X142385777Y-76891020D01*
X142385779Y-76891009D01*
X142419999Y-76631094D01*
X142420000Y-76631080D01*
X142420000Y-76368919D01*
X142419999Y-76368905D01*
X142385779Y-76108990D01*
X142385777Y-76108979D01*
X142317924Y-75855744D01*
X142217595Y-75613528D01*
X142217590Y-75613517D01*
X142086511Y-75386483D01*
X142086505Y-75386475D01*
X141999918Y-75273633D01*
X141999917Y-75273633D01*
X141105231Y-76168320D01*
X141093503Y-76140005D01*
X141010330Y-76015528D01*
X140904472Y-75909670D01*
X140779995Y-75826497D01*
X140751677Y-75814767D01*
X141614310Y-74952135D01*
X143499500Y-74952135D01*
X143499500Y-78047870D01*
X143499501Y-78047876D01*
X143505908Y-78107483D01*
X143556202Y-78242328D01*
X143556206Y-78242335D01*
X143642452Y-78357544D01*
X143642455Y-78357547D01*
X143757664Y-78443793D01*
X143757671Y-78443797D01*
X143892517Y-78494091D01*
X143892516Y-78494091D01*
X143899444Y-78494835D01*
X143952127Y-78500500D01*
X147047872Y-78500499D01*
X147107483Y-78494091D01*
X147242331Y-78443796D01*
X147357546Y-78357546D01*
X147443796Y-78242331D01*
X147494091Y-78107483D01*
X147500500Y-78047873D01*
X147500499Y-76368905D01*
X149753334Y-76368905D01*
X149753334Y-76631094D01*
X149787554Y-76891009D01*
X149787556Y-76891020D01*
X149855409Y-77144255D01*
X149955738Y-77386471D01*
X149955743Y-77386482D01*
X150086822Y-77613516D01*
X150086828Y-77613524D01*
X150173414Y-77726365D01*
X151068101Y-76831677D01*
X151079831Y-76859995D01*
X151163004Y-76984472D01*
X151268862Y-77090330D01*
X151393339Y-77173503D01*
X151421654Y-77185231D01*
X150526967Y-78079917D01*
X150526967Y-78079918D01*
X150639809Y-78166505D01*
X150639817Y-78166511D01*
X150866851Y-78297590D01*
X150866862Y-78297595D01*
X151109078Y-78397924D01*
X151362313Y-78465777D01*
X151362324Y-78465779D01*
X151622239Y-78499999D01*
X151622254Y-78500000D01*
X151884414Y-78500000D01*
X151884428Y-78499999D01*
X152144343Y-78465779D01*
X152144354Y-78465777D01*
X152397589Y-78397924D01*
X152639805Y-78297595D01*
X152639816Y-78297590D01*
X152866850Y-78166511D01*
X152866868Y-78166499D01*
X152979699Y-78079919D01*
X152979699Y-78079917D01*
X152085013Y-77185231D01*
X152113329Y-77173503D01*
X152237806Y-77090330D01*
X152343664Y-76984472D01*
X152426837Y-76859995D01*
X152438565Y-76831679D01*
X153333251Y-77726365D01*
X153333253Y-77726365D01*
X153419833Y-77613534D01*
X153419845Y-77613516D01*
X153550924Y-77386482D01*
X153550929Y-77386471D01*
X153651258Y-77144255D01*
X153719111Y-76891020D01*
X153719113Y-76891009D01*
X153753333Y-76631094D01*
X153753334Y-76631080D01*
X153753334Y-76368919D01*
X153753333Y-76368905D01*
X153719113Y-76108990D01*
X153719111Y-76108979D01*
X153651258Y-75855744D01*
X153550929Y-75613528D01*
X153550924Y-75613517D01*
X153419845Y-75386483D01*
X153419839Y-75386475D01*
X153333252Y-75273633D01*
X153333251Y-75273633D01*
X152438565Y-76168320D01*
X152426837Y-76140005D01*
X152343664Y-76015528D01*
X152237806Y-75909670D01*
X152113329Y-75826497D01*
X152085011Y-75814767D01*
X152947644Y-74952135D01*
X154832834Y-74952135D01*
X154832834Y-78047870D01*
X154832835Y-78047876D01*
X154839242Y-78107483D01*
X154889536Y-78242328D01*
X154889540Y-78242335D01*
X154975786Y-78357544D01*
X154975789Y-78357547D01*
X155090998Y-78443793D01*
X155091005Y-78443797D01*
X155225851Y-78494091D01*
X155225850Y-78494091D01*
X155232778Y-78494835D01*
X155285461Y-78500500D01*
X158381206Y-78500499D01*
X158440817Y-78494091D01*
X158575665Y-78443796D01*
X158690880Y-78357546D01*
X158777130Y-78242331D01*
X158827425Y-78107483D01*
X158833834Y-78047873D01*
X158833833Y-76368905D01*
X161086667Y-76368905D01*
X161086667Y-76631094D01*
X161120887Y-76891009D01*
X161120889Y-76891020D01*
X161188742Y-77144255D01*
X161289071Y-77386471D01*
X161289076Y-77386482D01*
X161420155Y-77613516D01*
X161420161Y-77613524D01*
X161506747Y-77726365D01*
X162401434Y-76831677D01*
X162413164Y-76859995D01*
X162496337Y-76984472D01*
X162602195Y-77090330D01*
X162726672Y-77173503D01*
X162754987Y-77185231D01*
X161860300Y-78079917D01*
X161860300Y-78079918D01*
X161973142Y-78166505D01*
X161973150Y-78166511D01*
X162200184Y-78297590D01*
X162200195Y-78297595D01*
X162442411Y-78397924D01*
X162695646Y-78465777D01*
X162695657Y-78465779D01*
X162955572Y-78499999D01*
X162955587Y-78500000D01*
X163217747Y-78500000D01*
X163217761Y-78499999D01*
X163477676Y-78465779D01*
X163477687Y-78465777D01*
X163730922Y-78397924D01*
X163973138Y-78297595D01*
X163973149Y-78297590D01*
X164200183Y-78166511D01*
X164200201Y-78166499D01*
X164313032Y-78079919D01*
X164313032Y-78079917D01*
X163418346Y-77185231D01*
X163446662Y-77173503D01*
X163571139Y-77090330D01*
X163676997Y-76984472D01*
X163760170Y-76859995D01*
X163771898Y-76831679D01*
X164666584Y-77726365D01*
X164666586Y-77726365D01*
X164753166Y-77613534D01*
X164753178Y-77613516D01*
X164884257Y-77386482D01*
X164884262Y-77386471D01*
X164984591Y-77144255D01*
X165052444Y-76891020D01*
X165052446Y-76891009D01*
X165086666Y-76631094D01*
X165086667Y-76631080D01*
X165086667Y-76368919D01*
X165086666Y-76368905D01*
X165052446Y-76108990D01*
X165052444Y-76108979D01*
X164984591Y-75855744D01*
X164884262Y-75613528D01*
X164884257Y-75613517D01*
X164753178Y-75386483D01*
X164753172Y-75386475D01*
X164666585Y-75273633D01*
X164666584Y-75273633D01*
X163771898Y-76168320D01*
X163760170Y-76140005D01*
X163676997Y-76015528D01*
X163571139Y-75909670D01*
X163446662Y-75826497D01*
X163418344Y-75814767D01*
X164280977Y-74952135D01*
X166166167Y-74952135D01*
X166166167Y-78047870D01*
X166166168Y-78047876D01*
X166172575Y-78107483D01*
X166222869Y-78242328D01*
X166222873Y-78242335D01*
X166309119Y-78357544D01*
X166309122Y-78357547D01*
X166424331Y-78443793D01*
X166424338Y-78443797D01*
X166559184Y-78494091D01*
X166559183Y-78494091D01*
X166566111Y-78494835D01*
X166618794Y-78500500D01*
X169714539Y-78500499D01*
X169774150Y-78494091D01*
X169908998Y-78443796D01*
X170024213Y-78357546D01*
X170110463Y-78242331D01*
X170160758Y-78107483D01*
X170167167Y-78047873D01*
X170167166Y-76368905D01*
X172420000Y-76368905D01*
X172420000Y-76631094D01*
X172454220Y-76891009D01*
X172454222Y-76891020D01*
X172522075Y-77144255D01*
X172622404Y-77386471D01*
X172622409Y-77386482D01*
X172753488Y-77613516D01*
X172753494Y-77613524D01*
X172840080Y-77726365D01*
X173734767Y-76831677D01*
X173746497Y-76859995D01*
X173829670Y-76984472D01*
X173935528Y-77090330D01*
X174060005Y-77173503D01*
X174088320Y-77185231D01*
X173193633Y-78079917D01*
X173193633Y-78079918D01*
X173306475Y-78166505D01*
X173306483Y-78166511D01*
X173533517Y-78297590D01*
X173533528Y-78297595D01*
X173775744Y-78397924D01*
X174028979Y-78465777D01*
X174028990Y-78465779D01*
X174288905Y-78499999D01*
X174288920Y-78500000D01*
X174551080Y-78500000D01*
X174551094Y-78499999D01*
X174811009Y-78465779D01*
X174811020Y-78465777D01*
X175064255Y-78397924D01*
X175306471Y-78297595D01*
X175306482Y-78297590D01*
X175533516Y-78166511D01*
X175533534Y-78166499D01*
X175646365Y-78079919D01*
X175646365Y-78079917D01*
X174751679Y-77185231D01*
X174779995Y-77173503D01*
X174904472Y-77090330D01*
X175010330Y-76984472D01*
X175093503Y-76859995D01*
X175105231Y-76831679D01*
X175999917Y-77726365D01*
X175999919Y-77726365D01*
X176086499Y-77613534D01*
X176086511Y-77613516D01*
X176217590Y-77386482D01*
X176217595Y-77386471D01*
X176317924Y-77144255D01*
X176385777Y-76891020D01*
X176385779Y-76891009D01*
X176419999Y-76631094D01*
X176420000Y-76631080D01*
X176420000Y-76368919D01*
X176419999Y-76368905D01*
X176385779Y-76108990D01*
X176385777Y-76108979D01*
X176317924Y-75855744D01*
X176217595Y-75613528D01*
X176217590Y-75613517D01*
X176086511Y-75386483D01*
X176086505Y-75386475D01*
X175999918Y-75273633D01*
X175999917Y-75273633D01*
X175105231Y-76168320D01*
X175093503Y-76140005D01*
X175010330Y-76015528D01*
X174904472Y-75909670D01*
X174779995Y-75826497D01*
X174751677Y-75814767D01*
X175614310Y-74952135D01*
X177499500Y-74952135D01*
X177499500Y-78047870D01*
X177499501Y-78047876D01*
X177505908Y-78107483D01*
X177556202Y-78242328D01*
X177556206Y-78242335D01*
X177642452Y-78357544D01*
X177642455Y-78357547D01*
X177757664Y-78443793D01*
X177757671Y-78443797D01*
X177892517Y-78494091D01*
X177892516Y-78494091D01*
X177899444Y-78494835D01*
X177952127Y-78500500D01*
X181047872Y-78500499D01*
X181107483Y-78494091D01*
X181242331Y-78443796D01*
X181357546Y-78357546D01*
X181443796Y-78242331D01*
X181494091Y-78107483D01*
X181500500Y-78047873D01*
X181500499Y-76368905D01*
X183753334Y-76368905D01*
X183753334Y-76631094D01*
X183787554Y-76891009D01*
X183787556Y-76891020D01*
X183855409Y-77144255D01*
X183955738Y-77386471D01*
X183955743Y-77386482D01*
X184086822Y-77613516D01*
X184086828Y-77613524D01*
X184173414Y-77726365D01*
X185068101Y-76831677D01*
X185079831Y-76859995D01*
X185163004Y-76984472D01*
X185268862Y-77090330D01*
X185393339Y-77173503D01*
X185421654Y-77185231D01*
X184526967Y-78079917D01*
X184526967Y-78079918D01*
X184639809Y-78166505D01*
X184639817Y-78166511D01*
X184866851Y-78297590D01*
X184866862Y-78297595D01*
X185109078Y-78397924D01*
X185362313Y-78465777D01*
X185362324Y-78465779D01*
X185622239Y-78499999D01*
X185622254Y-78500000D01*
X185884414Y-78500000D01*
X185884428Y-78499999D01*
X186144343Y-78465779D01*
X186144354Y-78465777D01*
X186397589Y-78397924D01*
X186639805Y-78297595D01*
X186639816Y-78297590D01*
X186866850Y-78166511D01*
X186866868Y-78166499D01*
X186979699Y-78079919D01*
X186979699Y-78079917D01*
X186085013Y-77185231D01*
X186113329Y-77173503D01*
X186237806Y-77090330D01*
X186343664Y-76984472D01*
X186426837Y-76859995D01*
X186438565Y-76831679D01*
X187333251Y-77726365D01*
X187333253Y-77726365D01*
X187419833Y-77613534D01*
X187419845Y-77613516D01*
X187550924Y-77386482D01*
X187550929Y-77386471D01*
X187651258Y-77144255D01*
X187719111Y-76891020D01*
X187719113Y-76891009D01*
X187753333Y-76631094D01*
X187753334Y-76631080D01*
X187753334Y-76368919D01*
X187753333Y-76368905D01*
X187719113Y-76108990D01*
X187719111Y-76108979D01*
X187651258Y-75855744D01*
X187550929Y-75613528D01*
X187550924Y-75613517D01*
X187419845Y-75386483D01*
X187419839Y-75386475D01*
X187333252Y-75273633D01*
X187333251Y-75273633D01*
X186438565Y-76168320D01*
X186426837Y-76140005D01*
X186343664Y-76015528D01*
X186237806Y-75909670D01*
X186113329Y-75826497D01*
X186085011Y-75814767D01*
X186947644Y-74952135D01*
X188832834Y-74952135D01*
X188832834Y-78047870D01*
X188832835Y-78047876D01*
X188839242Y-78107483D01*
X188889536Y-78242328D01*
X188889540Y-78242335D01*
X188975786Y-78357544D01*
X188975789Y-78357547D01*
X189090998Y-78443793D01*
X189091005Y-78443797D01*
X189225851Y-78494091D01*
X189225850Y-78494091D01*
X189232778Y-78494835D01*
X189285461Y-78500500D01*
X192381206Y-78500499D01*
X192440817Y-78494091D01*
X192575665Y-78443796D01*
X192690880Y-78357546D01*
X192777130Y-78242331D01*
X192827425Y-78107483D01*
X192833834Y-78047873D01*
X192833833Y-76368905D01*
X195086667Y-76368905D01*
X195086667Y-76631094D01*
X195120887Y-76891009D01*
X195120889Y-76891020D01*
X195188742Y-77144255D01*
X195289071Y-77386471D01*
X195289076Y-77386482D01*
X195420155Y-77613516D01*
X195420161Y-77613524D01*
X195506747Y-77726365D01*
X196401434Y-76831677D01*
X196413164Y-76859995D01*
X196496337Y-76984472D01*
X196602195Y-77090330D01*
X196726672Y-77173503D01*
X196754987Y-77185231D01*
X195860300Y-78079917D01*
X195860300Y-78079918D01*
X195973142Y-78166505D01*
X195973150Y-78166511D01*
X196200184Y-78297590D01*
X196200195Y-78297595D01*
X196442411Y-78397924D01*
X196695646Y-78465777D01*
X196695657Y-78465779D01*
X196955572Y-78499999D01*
X196955587Y-78500000D01*
X197217747Y-78500000D01*
X197217761Y-78499999D01*
X197477676Y-78465779D01*
X197477687Y-78465777D01*
X197730922Y-78397924D01*
X197973138Y-78297595D01*
X197973149Y-78297590D01*
X198200183Y-78166511D01*
X198200201Y-78166499D01*
X198313032Y-78079919D01*
X198313032Y-78079917D01*
X197418346Y-77185231D01*
X197446662Y-77173503D01*
X197571139Y-77090330D01*
X197676997Y-76984472D01*
X197760170Y-76859995D01*
X197771898Y-76831679D01*
X198666584Y-77726365D01*
X198666586Y-77726365D01*
X198753166Y-77613534D01*
X198753178Y-77613516D01*
X198884257Y-77386482D01*
X198884262Y-77386471D01*
X198984591Y-77144255D01*
X199052444Y-76891020D01*
X199052446Y-76891009D01*
X199086666Y-76631094D01*
X199086667Y-76631080D01*
X199086667Y-76368919D01*
X199086666Y-76368905D01*
X199052446Y-76108990D01*
X199052444Y-76108979D01*
X198984591Y-75855744D01*
X198884262Y-75613528D01*
X198884257Y-75613517D01*
X198753178Y-75386483D01*
X198753172Y-75386475D01*
X198666585Y-75273633D01*
X198666584Y-75273633D01*
X197771898Y-76168320D01*
X197760170Y-76140005D01*
X197676997Y-76015528D01*
X197571139Y-75909670D01*
X197446662Y-75826497D01*
X197418344Y-75814767D01*
X198280977Y-74952135D01*
X200166167Y-74952135D01*
X200166167Y-78047870D01*
X200166168Y-78047876D01*
X200172575Y-78107483D01*
X200222869Y-78242328D01*
X200222873Y-78242335D01*
X200309119Y-78357544D01*
X200309122Y-78357547D01*
X200424331Y-78443793D01*
X200424338Y-78443797D01*
X200559184Y-78494091D01*
X200559183Y-78494091D01*
X200566111Y-78494835D01*
X200618794Y-78500500D01*
X203714539Y-78500499D01*
X203774150Y-78494091D01*
X203908998Y-78443796D01*
X204024213Y-78357546D01*
X204110463Y-78242331D01*
X204160758Y-78107483D01*
X204167167Y-78047873D01*
X204167166Y-76368905D01*
X206420000Y-76368905D01*
X206420000Y-76631094D01*
X206454220Y-76891009D01*
X206454222Y-76891020D01*
X206522075Y-77144255D01*
X206622404Y-77386471D01*
X206622409Y-77386482D01*
X206753488Y-77613516D01*
X206753494Y-77613524D01*
X206840080Y-77726365D01*
X207734767Y-76831677D01*
X207746497Y-76859995D01*
X207829670Y-76984472D01*
X207935528Y-77090330D01*
X208060005Y-77173503D01*
X208088320Y-77185231D01*
X207193633Y-78079917D01*
X207193633Y-78079918D01*
X207306475Y-78166505D01*
X207306483Y-78166511D01*
X207533517Y-78297590D01*
X207533528Y-78297595D01*
X207775744Y-78397924D01*
X208028979Y-78465777D01*
X208028990Y-78465779D01*
X208288905Y-78499999D01*
X208288920Y-78500000D01*
X208551080Y-78500000D01*
X208551094Y-78499999D01*
X208811009Y-78465779D01*
X208811020Y-78465777D01*
X209064255Y-78397924D01*
X209306471Y-78297595D01*
X209306482Y-78297590D01*
X209533516Y-78166511D01*
X209533534Y-78166499D01*
X209646365Y-78079919D01*
X209646365Y-78079917D01*
X208751679Y-77185231D01*
X208779995Y-77173503D01*
X208904472Y-77090330D01*
X209010330Y-76984472D01*
X209093503Y-76859995D01*
X209105231Y-76831679D01*
X209999917Y-77726365D01*
X209999919Y-77726365D01*
X210086499Y-77613534D01*
X210086511Y-77613516D01*
X210217590Y-77386482D01*
X210217595Y-77386471D01*
X210317924Y-77144255D01*
X210385777Y-76891020D01*
X210385779Y-76891009D01*
X210419999Y-76631094D01*
X210420000Y-76631080D01*
X210420000Y-76368919D01*
X210419999Y-76368905D01*
X210385779Y-76108990D01*
X210385777Y-76108979D01*
X210317924Y-75855744D01*
X210217595Y-75613528D01*
X210217590Y-75613517D01*
X210086511Y-75386483D01*
X210086505Y-75386475D01*
X209999918Y-75273633D01*
X209999917Y-75273633D01*
X209105231Y-76168319D01*
X209093503Y-76140005D01*
X209010330Y-76015528D01*
X208904472Y-75909670D01*
X208779995Y-75826497D01*
X208751677Y-75814767D01*
X209614310Y-74952135D01*
X211499500Y-74952135D01*
X211499500Y-78047870D01*
X211499501Y-78047876D01*
X211505908Y-78107483D01*
X211556202Y-78242328D01*
X211556206Y-78242335D01*
X211642452Y-78357544D01*
X211642455Y-78357547D01*
X211757664Y-78443793D01*
X211757671Y-78443797D01*
X211892517Y-78494091D01*
X211892516Y-78494091D01*
X211899444Y-78494835D01*
X211952127Y-78500500D01*
X215047872Y-78500499D01*
X215107483Y-78494091D01*
X215242331Y-78443796D01*
X215357546Y-78357546D01*
X215443796Y-78242331D01*
X215494091Y-78107483D01*
X215500500Y-78047873D01*
X215500499Y-74952128D01*
X215494091Y-74892517D01*
X215443796Y-74757669D01*
X215443795Y-74757668D01*
X215443793Y-74757664D01*
X215357547Y-74642455D01*
X215357544Y-74642452D01*
X215242335Y-74556206D01*
X215242328Y-74556202D01*
X215158637Y-74524988D01*
X215107482Y-74505908D01*
X215107483Y-74505908D01*
X215047883Y-74499501D01*
X215047881Y-74499500D01*
X215047873Y-74499500D01*
X215047864Y-74499500D01*
X211952129Y-74499500D01*
X211952123Y-74499501D01*
X211892516Y-74505908D01*
X211757671Y-74556202D01*
X211757664Y-74556206D01*
X211642455Y-74642452D01*
X211642452Y-74642455D01*
X211556206Y-74757664D01*
X211556202Y-74757671D01*
X211505908Y-74892517D01*
X211499501Y-74952116D01*
X211499501Y-74952123D01*
X211499500Y-74952135D01*
X209614310Y-74952135D01*
X209646365Y-74920080D01*
X209533524Y-74833494D01*
X209533516Y-74833488D01*
X209306482Y-74702409D01*
X209306471Y-74702404D01*
X209064255Y-74602075D01*
X208811020Y-74534222D01*
X208811009Y-74534220D01*
X208551094Y-74500000D01*
X208288905Y-74500000D01*
X208028990Y-74534220D01*
X208028979Y-74534222D01*
X207775744Y-74602075D01*
X207533528Y-74702404D01*
X207533517Y-74702409D01*
X207306471Y-74833496D01*
X207193633Y-74920079D01*
X207193633Y-74920080D01*
X208088321Y-75814768D01*
X208060005Y-75826497D01*
X207935528Y-75909670D01*
X207829670Y-76015528D01*
X207746497Y-76140005D01*
X207734768Y-76168321D01*
X206840080Y-75273633D01*
X206840079Y-75273633D01*
X206753496Y-75386471D01*
X206622409Y-75613517D01*
X206622404Y-75613528D01*
X206522075Y-75855744D01*
X206454222Y-76108979D01*
X206454220Y-76108990D01*
X206420000Y-76368905D01*
X204167166Y-76368905D01*
X204167166Y-74952128D01*
X204160758Y-74892517D01*
X204110463Y-74757669D01*
X204110462Y-74757668D01*
X204110460Y-74757664D01*
X204024214Y-74642455D01*
X204024211Y-74642452D01*
X203909002Y-74556206D01*
X203908995Y-74556202D01*
X203774149Y-74505908D01*
X203774150Y-74505908D01*
X203714550Y-74499501D01*
X203714548Y-74499500D01*
X203714540Y-74499500D01*
X203714531Y-74499500D01*
X200618796Y-74499500D01*
X200618790Y-74499501D01*
X200559183Y-74505908D01*
X200424338Y-74556202D01*
X200424331Y-74556206D01*
X200309122Y-74642452D01*
X200309119Y-74642455D01*
X200222873Y-74757664D01*
X200222869Y-74757671D01*
X200172575Y-74892517D01*
X200166168Y-74952116D01*
X200166168Y-74952123D01*
X200166167Y-74952135D01*
X198280977Y-74952135D01*
X198313032Y-74920080D01*
X198200191Y-74833494D01*
X198200183Y-74833488D01*
X197973149Y-74702409D01*
X197973138Y-74702404D01*
X197730922Y-74602075D01*
X197477687Y-74534222D01*
X197477676Y-74534220D01*
X197217761Y-74500000D01*
X196955572Y-74500000D01*
X196695657Y-74534220D01*
X196695646Y-74534222D01*
X196442411Y-74602075D01*
X196200195Y-74702404D01*
X196200184Y-74702409D01*
X195973138Y-74833496D01*
X195860300Y-74920079D01*
X195860300Y-74920080D01*
X196754988Y-75814768D01*
X196726672Y-75826497D01*
X196602195Y-75909670D01*
X196496337Y-76015528D01*
X196413164Y-76140005D01*
X196401435Y-76168321D01*
X195506747Y-75273633D01*
X195506746Y-75273633D01*
X195420163Y-75386471D01*
X195289076Y-75613517D01*
X195289071Y-75613528D01*
X195188742Y-75855744D01*
X195120889Y-76108979D01*
X195120887Y-76108990D01*
X195086667Y-76368905D01*
X192833833Y-76368905D01*
X192833833Y-74952128D01*
X192827425Y-74892517D01*
X192777130Y-74757669D01*
X192777129Y-74757668D01*
X192777127Y-74757664D01*
X192690881Y-74642455D01*
X192690878Y-74642452D01*
X192575669Y-74556206D01*
X192575662Y-74556202D01*
X192440816Y-74505908D01*
X192440817Y-74505908D01*
X192381217Y-74499501D01*
X192381215Y-74499500D01*
X192381207Y-74499500D01*
X192381198Y-74499500D01*
X189285463Y-74499500D01*
X189285457Y-74499501D01*
X189225850Y-74505908D01*
X189091005Y-74556202D01*
X189090998Y-74556206D01*
X188975789Y-74642452D01*
X188975786Y-74642455D01*
X188889540Y-74757664D01*
X188889536Y-74757671D01*
X188839242Y-74892517D01*
X188832835Y-74952116D01*
X188832835Y-74952123D01*
X188832834Y-74952135D01*
X186947644Y-74952135D01*
X186979699Y-74920080D01*
X186866858Y-74833494D01*
X186866850Y-74833488D01*
X186639816Y-74702409D01*
X186639805Y-74702404D01*
X186397589Y-74602075D01*
X186144354Y-74534222D01*
X186144343Y-74534220D01*
X185884428Y-74500000D01*
X185622239Y-74500000D01*
X185362324Y-74534220D01*
X185362313Y-74534222D01*
X185109078Y-74602075D01*
X184866862Y-74702404D01*
X184866851Y-74702409D01*
X184639805Y-74833496D01*
X184526967Y-74920079D01*
X184526967Y-74920080D01*
X185421655Y-75814768D01*
X185393339Y-75826497D01*
X185268862Y-75909670D01*
X185163004Y-76015528D01*
X185079831Y-76140005D01*
X185068102Y-76168321D01*
X184173414Y-75273633D01*
X184173413Y-75273633D01*
X184086830Y-75386471D01*
X183955743Y-75613517D01*
X183955738Y-75613528D01*
X183855409Y-75855744D01*
X183787556Y-76108979D01*
X183787554Y-76108990D01*
X183753334Y-76368905D01*
X181500499Y-76368905D01*
X181500499Y-74952128D01*
X181494091Y-74892517D01*
X181443796Y-74757669D01*
X181443795Y-74757668D01*
X181443793Y-74757664D01*
X181357547Y-74642455D01*
X181357544Y-74642452D01*
X181242335Y-74556206D01*
X181242328Y-74556202D01*
X181107482Y-74505908D01*
X181107483Y-74505908D01*
X181047883Y-74499501D01*
X181047881Y-74499500D01*
X181047873Y-74499500D01*
X181047864Y-74499500D01*
X177952129Y-74499500D01*
X177952123Y-74499501D01*
X177892516Y-74505908D01*
X177757671Y-74556202D01*
X177757664Y-74556206D01*
X177642455Y-74642452D01*
X177642452Y-74642455D01*
X177556206Y-74757664D01*
X177556202Y-74757671D01*
X177505908Y-74892517D01*
X177499501Y-74952116D01*
X177499501Y-74952123D01*
X177499500Y-74952135D01*
X175614310Y-74952135D01*
X175646365Y-74920080D01*
X175533524Y-74833494D01*
X175533516Y-74833488D01*
X175306482Y-74702409D01*
X175306471Y-74702404D01*
X175064255Y-74602075D01*
X174811020Y-74534222D01*
X174811009Y-74534220D01*
X174551094Y-74500000D01*
X174288905Y-74500000D01*
X174028990Y-74534220D01*
X174028979Y-74534222D01*
X173775744Y-74602075D01*
X173533528Y-74702404D01*
X173533517Y-74702409D01*
X173306471Y-74833496D01*
X173193633Y-74920079D01*
X173193633Y-74920080D01*
X174088321Y-75814768D01*
X174060005Y-75826497D01*
X173935528Y-75909670D01*
X173829670Y-76015528D01*
X173746497Y-76140005D01*
X173734768Y-76168321D01*
X172840080Y-75273633D01*
X172840079Y-75273633D01*
X172753496Y-75386471D01*
X172622409Y-75613517D01*
X172622404Y-75613528D01*
X172522075Y-75855744D01*
X172454222Y-76108979D01*
X172454220Y-76108990D01*
X172420000Y-76368905D01*
X170167166Y-76368905D01*
X170167166Y-74952128D01*
X170160758Y-74892517D01*
X170110463Y-74757669D01*
X170110462Y-74757668D01*
X170110460Y-74757664D01*
X170024214Y-74642455D01*
X170024211Y-74642452D01*
X169909002Y-74556206D01*
X169908995Y-74556202D01*
X169774149Y-74505908D01*
X169774150Y-74505908D01*
X169714550Y-74499501D01*
X169714548Y-74499500D01*
X169714540Y-74499500D01*
X169714531Y-74499500D01*
X166618796Y-74499500D01*
X166618790Y-74499501D01*
X166559183Y-74505908D01*
X166424338Y-74556202D01*
X166424331Y-74556206D01*
X166309122Y-74642452D01*
X166309119Y-74642455D01*
X166222873Y-74757664D01*
X166222869Y-74757671D01*
X166172575Y-74892517D01*
X166166168Y-74952116D01*
X166166168Y-74952123D01*
X166166167Y-74952135D01*
X164280977Y-74952135D01*
X164313032Y-74920080D01*
X164200191Y-74833494D01*
X164200183Y-74833488D01*
X163973149Y-74702409D01*
X163973138Y-74702404D01*
X163730922Y-74602075D01*
X163477687Y-74534222D01*
X163477676Y-74534220D01*
X163217761Y-74500000D01*
X162955572Y-74500000D01*
X162695657Y-74534220D01*
X162695646Y-74534222D01*
X162442411Y-74602075D01*
X162200195Y-74702404D01*
X162200184Y-74702409D01*
X161973138Y-74833496D01*
X161860300Y-74920079D01*
X161860300Y-74920080D01*
X162754988Y-75814768D01*
X162726672Y-75826497D01*
X162602195Y-75909670D01*
X162496337Y-76015528D01*
X162413164Y-76140005D01*
X162401435Y-76168321D01*
X161506747Y-75273633D01*
X161506746Y-75273633D01*
X161420163Y-75386471D01*
X161289076Y-75613517D01*
X161289071Y-75613528D01*
X161188742Y-75855744D01*
X161120889Y-76108979D01*
X161120887Y-76108990D01*
X161086667Y-76368905D01*
X158833833Y-76368905D01*
X158833833Y-74952128D01*
X158827425Y-74892517D01*
X158777130Y-74757669D01*
X158777129Y-74757668D01*
X158777127Y-74757664D01*
X158690881Y-74642455D01*
X158690878Y-74642452D01*
X158575669Y-74556206D01*
X158575662Y-74556202D01*
X158440816Y-74505908D01*
X158440817Y-74505908D01*
X158381217Y-74499501D01*
X158381215Y-74499500D01*
X158381207Y-74499500D01*
X158381198Y-74499500D01*
X155285463Y-74499500D01*
X155285457Y-74499501D01*
X155225850Y-74505908D01*
X155091005Y-74556202D01*
X155090998Y-74556206D01*
X154975789Y-74642452D01*
X154975786Y-74642455D01*
X154889540Y-74757664D01*
X154889536Y-74757671D01*
X154839242Y-74892517D01*
X154832835Y-74952116D01*
X154832835Y-74952123D01*
X154832834Y-74952135D01*
X152947644Y-74952135D01*
X152979699Y-74920080D01*
X152866858Y-74833494D01*
X152866850Y-74833488D01*
X152639816Y-74702409D01*
X152639805Y-74702404D01*
X152397589Y-74602075D01*
X152144354Y-74534222D01*
X152144343Y-74534220D01*
X151884428Y-74500000D01*
X151622239Y-74500000D01*
X151362324Y-74534220D01*
X151362313Y-74534222D01*
X151109078Y-74602075D01*
X150866862Y-74702404D01*
X150866851Y-74702409D01*
X150639805Y-74833496D01*
X150526967Y-74920079D01*
X150526967Y-74920080D01*
X151421655Y-75814768D01*
X151393339Y-75826497D01*
X151268862Y-75909670D01*
X151163004Y-76015528D01*
X151079831Y-76140005D01*
X151068102Y-76168321D01*
X150173414Y-75273633D01*
X150173413Y-75273633D01*
X150086830Y-75386471D01*
X149955743Y-75613517D01*
X149955738Y-75613528D01*
X149855409Y-75855744D01*
X149787556Y-76108979D01*
X149787554Y-76108990D01*
X149753334Y-76368905D01*
X147500499Y-76368905D01*
X147500499Y-74952128D01*
X147494091Y-74892517D01*
X147443796Y-74757669D01*
X147443795Y-74757668D01*
X147443793Y-74757664D01*
X147357547Y-74642455D01*
X147357544Y-74642452D01*
X147242335Y-74556206D01*
X147242328Y-74556202D01*
X147107482Y-74505908D01*
X147107483Y-74505908D01*
X147047883Y-74499501D01*
X147047881Y-74499500D01*
X147047873Y-74499500D01*
X147047864Y-74499500D01*
X143952129Y-74499500D01*
X143952123Y-74499501D01*
X143892516Y-74505908D01*
X143757671Y-74556202D01*
X143757664Y-74556206D01*
X143642455Y-74642452D01*
X143642452Y-74642455D01*
X143556206Y-74757664D01*
X143556202Y-74757671D01*
X143505908Y-74892517D01*
X143499501Y-74952116D01*
X143499501Y-74952123D01*
X143499500Y-74952135D01*
X141614310Y-74952135D01*
X141646365Y-74920080D01*
X141533524Y-74833494D01*
X141533516Y-74833488D01*
X141306482Y-74702409D01*
X141306471Y-74702404D01*
X141064255Y-74602075D01*
X140811020Y-74534222D01*
X140811009Y-74534220D01*
X140551094Y-74500000D01*
X140288905Y-74500000D01*
X140028990Y-74534220D01*
X140028979Y-74534222D01*
X139775744Y-74602075D01*
X139533528Y-74702404D01*
X139533517Y-74702409D01*
X139306471Y-74833496D01*
X139193633Y-74920079D01*
X139193633Y-74920080D01*
X140088321Y-75814768D01*
X140060005Y-75826497D01*
X139935528Y-75909670D01*
X139829670Y-76015528D01*
X139746497Y-76140005D01*
X139734768Y-76168321D01*
X138840080Y-75273633D01*
X138840079Y-75273633D01*
X138753496Y-75386471D01*
X138622409Y-75613517D01*
X138622404Y-75613528D01*
X138522075Y-75855744D01*
X138454222Y-76108979D01*
X138454220Y-76108990D01*
X138420000Y-76368905D01*
X136167166Y-76368905D01*
X136167166Y-74952128D01*
X136160758Y-74892517D01*
X136110463Y-74757669D01*
X136110462Y-74757668D01*
X136110460Y-74757664D01*
X136024214Y-74642455D01*
X136024211Y-74642452D01*
X135909002Y-74556206D01*
X135908995Y-74556202D01*
X135774149Y-74505908D01*
X135774150Y-74505908D01*
X135714550Y-74499501D01*
X135714548Y-74499500D01*
X135714540Y-74499500D01*
X135714531Y-74499500D01*
X132618796Y-74499500D01*
X132618790Y-74499501D01*
X132559183Y-74505908D01*
X132424338Y-74556202D01*
X132424331Y-74556206D01*
X132309122Y-74642452D01*
X132309119Y-74642455D01*
X132222873Y-74757664D01*
X132222869Y-74757671D01*
X132172575Y-74892517D01*
X132166168Y-74952116D01*
X132166168Y-74952123D01*
X132166167Y-74952135D01*
X130280977Y-74952135D01*
X130313032Y-74920080D01*
X130200191Y-74833494D01*
X130200183Y-74833488D01*
X129973149Y-74702409D01*
X129973138Y-74702404D01*
X129730922Y-74602075D01*
X129477687Y-74534222D01*
X129477676Y-74534220D01*
X129217761Y-74500000D01*
X128955572Y-74500000D01*
X128695657Y-74534220D01*
X128695646Y-74534222D01*
X128442411Y-74602075D01*
X128200195Y-74702404D01*
X128200184Y-74702409D01*
X127973138Y-74833496D01*
X127860300Y-74920079D01*
X127860300Y-74920080D01*
X128754988Y-75814768D01*
X128726672Y-75826497D01*
X128602195Y-75909670D01*
X128496337Y-76015528D01*
X128413164Y-76140005D01*
X128401435Y-76168321D01*
X127506747Y-75273633D01*
X127506746Y-75273633D01*
X127420163Y-75386471D01*
X127289076Y-75613517D01*
X127289071Y-75613528D01*
X127188742Y-75855744D01*
X127120889Y-76108979D01*
X127120887Y-76108990D01*
X127086667Y-76368905D01*
X124833833Y-76368905D01*
X124833833Y-74952128D01*
X124827425Y-74892517D01*
X124777130Y-74757669D01*
X124777129Y-74757668D01*
X124777127Y-74757664D01*
X124690881Y-74642455D01*
X124690878Y-74642452D01*
X124575669Y-74556206D01*
X124575662Y-74556202D01*
X124440816Y-74505908D01*
X124440817Y-74505908D01*
X124381217Y-74499501D01*
X124381215Y-74499500D01*
X124381207Y-74499500D01*
X124381198Y-74499500D01*
X121285463Y-74499500D01*
X121285457Y-74499501D01*
X121225850Y-74505908D01*
X121091005Y-74556202D01*
X121090998Y-74556206D01*
X120975789Y-74642452D01*
X120975786Y-74642455D01*
X120889540Y-74757664D01*
X120889536Y-74757671D01*
X120839242Y-74892517D01*
X120832835Y-74952116D01*
X120832835Y-74952123D01*
X120832834Y-74952135D01*
X118947644Y-74952135D01*
X118979699Y-74920080D01*
X118866858Y-74833494D01*
X118866850Y-74833488D01*
X118639816Y-74702409D01*
X118639805Y-74702404D01*
X118397589Y-74602075D01*
X118144354Y-74534222D01*
X118144343Y-74534220D01*
X117884428Y-74500000D01*
X117622239Y-74500000D01*
X117362324Y-74534220D01*
X117362313Y-74534222D01*
X117109078Y-74602075D01*
X116866862Y-74702404D01*
X116866851Y-74702409D01*
X116639805Y-74833496D01*
X116526967Y-74920079D01*
X116526967Y-74920080D01*
X117421655Y-75814768D01*
X117393339Y-75826497D01*
X117268862Y-75909670D01*
X117163004Y-76015528D01*
X117079831Y-76140005D01*
X117068102Y-76168321D01*
X116173414Y-75273633D01*
X116173413Y-75273633D01*
X116086830Y-75386471D01*
X115955743Y-75613517D01*
X115955738Y-75613528D01*
X115855409Y-75855744D01*
X115787556Y-76108979D01*
X115787554Y-76108990D01*
X115753334Y-76368905D01*
X113500499Y-76368905D01*
X113500499Y-74952128D01*
X113494091Y-74892517D01*
X113443796Y-74757669D01*
X113443795Y-74757668D01*
X113443793Y-74757664D01*
X113357547Y-74642455D01*
X113357544Y-74642452D01*
X113242335Y-74556206D01*
X113242328Y-74556202D01*
X113107482Y-74505908D01*
X113107483Y-74505908D01*
X113047883Y-74499501D01*
X113047881Y-74499500D01*
X113047873Y-74499500D01*
X113047864Y-74499500D01*
X109952129Y-74499500D01*
X109952123Y-74499501D01*
X109892516Y-74505908D01*
X109757671Y-74556202D01*
X109757664Y-74556206D01*
X109642455Y-74642452D01*
X109642452Y-74642455D01*
X109556206Y-74757664D01*
X109556202Y-74757671D01*
X109505908Y-74892517D01*
X109499501Y-74952116D01*
X109499501Y-74952123D01*
X109499500Y-74952135D01*
X107614310Y-74952135D01*
X107646365Y-74920080D01*
X107533524Y-74833494D01*
X107533516Y-74833488D01*
X107306482Y-74702409D01*
X107306471Y-74702404D01*
X107064255Y-74602075D01*
X106811020Y-74534222D01*
X106811009Y-74534220D01*
X106551094Y-74500000D01*
X106288905Y-74500000D01*
X106028990Y-74534220D01*
X106028979Y-74534222D01*
X105775744Y-74602075D01*
X105533528Y-74702404D01*
X105533517Y-74702409D01*
X105306471Y-74833496D01*
X105193633Y-74920079D01*
X105193633Y-74920080D01*
X106088321Y-75814768D01*
X106060005Y-75826497D01*
X105935528Y-75909670D01*
X105829670Y-76015528D01*
X105746497Y-76140005D01*
X105734768Y-76168321D01*
X104840080Y-75273633D01*
X104840079Y-75273633D01*
X104753496Y-75386471D01*
X104622409Y-75613517D01*
X104622404Y-75613528D01*
X104522075Y-75855744D01*
X104454222Y-76108979D01*
X104454220Y-76108990D01*
X104420000Y-76368905D01*
X102167166Y-76368905D01*
X102167166Y-74952128D01*
X102160758Y-74892517D01*
X102110463Y-74757669D01*
X102110462Y-74757668D01*
X102110460Y-74757664D01*
X102024214Y-74642455D01*
X102024211Y-74642452D01*
X101909002Y-74556206D01*
X101908995Y-74556202D01*
X101774149Y-74505908D01*
X101774150Y-74505908D01*
X101714550Y-74499501D01*
X101714548Y-74499500D01*
X101714540Y-74499500D01*
X101714531Y-74499500D01*
X98618796Y-74499500D01*
X98618790Y-74499501D01*
X98559183Y-74505908D01*
X98424338Y-74556202D01*
X98424331Y-74556206D01*
X98309122Y-74642452D01*
X98309119Y-74642455D01*
X98222873Y-74757664D01*
X98222869Y-74757671D01*
X98172575Y-74892517D01*
X98166168Y-74952116D01*
X98166168Y-74952123D01*
X98166167Y-74952135D01*
X96280977Y-74952135D01*
X96313032Y-74920080D01*
X96200191Y-74833494D01*
X96200183Y-74833488D01*
X95973149Y-74702409D01*
X95973138Y-74702404D01*
X95730922Y-74602075D01*
X95477687Y-74534222D01*
X95477676Y-74534220D01*
X95217761Y-74500000D01*
X94955572Y-74500000D01*
X94695657Y-74534220D01*
X94695646Y-74534222D01*
X94442411Y-74602075D01*
X94200195Y-74702404D01*
X94200184Y-74702409D01*
X93973138Y-74833496D01*
X93860300Y-74920079D01*
X93860300Y-74920080D01*
X94754988Y-75814768D01*
X94726672Y-75826497D01*
X94602195Y-75909670D01*
X94496337Y-76015528D01*
X94413164Y-76140005D01*
X94401435Y-76168321D01*
X93506747Y-75273633D01*
X93506746Y-75273633D01*
X93420163Y-75386471D01*
X93289076Y-75613517D01*
X93289071Y-75613528D01*
X93188742Y-75855744D01*
X93120889Y-76108979D01*
X93120887Y-76108990D01*
X93086667Y-76368905D01*
X90833833Y-76368905D01*
X90833833Y-74952128D01*
X90827425Y-74892517D01*
X90777130Y-74757669D01*
X90777129Y-74757668D01*
X90777127Y-74757664D01*
X90690881Y-74642455D01*
X90690878Y-74642452D01*
X90575669Y-74556206D01*
X90575662Y-74556202D01*
X90440816Y-74505908D01*
X90440817Y-74505908D01*
X90381217Y-74499501D01*
X90381215Y-74499500D01*
X90381207Y-74499500D01*
X90381198Y-74499500D01*
X87285463Y-74499500D01*
X87285457Y-74499501D01*
X87225850Y-74505908D01*
X87091005Y-74556202D01*
X87090998Y-74556206D01*
X86975789Y-74642452D01*
X86975786Y-74642455D01*
X86889540Y-74757664D01*
X86889536Y-74757671D01*
X86839242Y-74892517D01*
X86832835Y-74952116D01*
X86832835Y-74952123D01*
X86832834Y-74952135D01*
X84947644Y-74952135D01*
X84979699Y-74920080D01*
X84866858Y-74833494D01*
X84866850Y-74833488D01*
X84639816Y-74702409D01*
X84639805Y-74702404D01*
X84397589Y-74602075D01*
X84144354Y-74534222D01*
X84144343Y-74534220D01*
X83884428Y-74500000D01*
X83622239Y-74500000D01*
X83362324Y-74534220D01*
X83362313Y-74534222D01*
X83109078Y-74602075D01*
X82866862Y-74702404D01*
X82866851Y-74702409D01*
X82639805Y-74833496D01*
X82526967Y-74920079D01*
X82526967Y-74920080D01*
X83421655Y-75814768D01*
X83393339Y-75826497D01*
X83268862Y-75909670D01*
X83163004Y-76015528D01*
X83079831Y-76140005D01*
X83068102Y-76168321D01*
X82173414Y-75273633D01*
X82173413Y-75273633D01*
X82086830Y-75386471D01*
X81955743Y-75613517D01*
X81955738Y-75613528D01*
X81855409Y-75855744D01*
X81787556Y-76108979D01*
X81787554Y-76108990D01*
X81753334Y-76368905D01*
X79500499Y-76368905D01*
X79500499Y-74952128D01*
X79494091Y-74892517D01*
X79443796Y-74757669D01*
X79443795Y-74757668D01*
X79443793Y-74757664D01*
X79357547Y-74642455D01*
X79357544Y-74642452D01*
X79242335Y-74556206D01*
X79242328Y-74556202D01*
X79107482Y-74505908D01*
X79107483Y-74505908D01*
X79047883Y-74499501D01*
X79047881Y-74499500D01*
X79047873Y-74499500D01*
X79047864Y-74499500D01*
X75952129Y-74499500D01*
X75952123Y-74499501D01*
X75892516Y-74505908D01*
X75757671Y-74556202D01*
X75757664Y-74556206D01*
X75642455Y-74642452D01*
X75642452Y-74642455D01*
X75556206Y-74757664D01*
X75556202Y-74757671D01*
X75505908Y-74892517D01*
X75499501Y-74952116D01*
X75499501Y-74952123D01*
X75499500Y-74952135D01*
X73614310Y-74952135D01*
X73646365Y-74920080D01*
X73533524Y-74833494D01*
X73533516Y-74833488D01*
X73306482Y-74702409D01*
X73306471Y-74702404D01*
X73064255Y-74602075D01*
X72811020Y-74534222D01*
X72811009Y-74534220D01*
X72551094Y-74500000D01*
X72288905Y-74500000D01*
X72028990Y-74534220D01*
X72028979Y-74534222D01*
X71775744Y-74602075D01*
X71533528Y-74702404D01*
X71533517Y-74702409D01*
X71306471Y-74833496D01*
X71193633Y-74920079D01*
X71193633Y-74920080D01*
X72088321Y-75814768D01*
X72060005Y-75826497D01*
X71935528Y-75909670D01*
X71829670Y-76015528D01*
X71746497Y-76140005D01*
X71734768Y-76168321D01*
X70840080Y-75273633D01*
X70840079Y-75273633D01*
X70753496Y-75386471D01*
X70622409Y-75613517D01*
X70622404Y-75613528D01*
X70522075Y-75855744D01*
X70454222Y-76108979D01*
X70454220Y-76108990D01*
X70420000Y-76368905D01*
X68167166Y-76368905D01*
X68167166Y-74952128D01*
X68160758Y-74892517D01*
X68110463Y-74757669D01*
X68110462Y-74757668D01*
X68110460Y-74757664D01*
X68024214Y-74642455D01*
X68024211Y-74642452D01*
X67909002Y-74556206D01*
X67908995Y-74556202D01*
X67774149Y-74505908D01*
X67774150Y-74505908D01*
X67714550Y-74499501D01*
X67714548Y-74499500D01*
X67714540Y-74499500D01*
X67714531Y-74499500D01*
X64618796Y-74499500D01*
X64618790Y-74499501D01*
X64559183Y-74505908D01*
X64424338Y-74556202D01*
X64424331Y-74556206D01*
X64309122Y-74642452D01*
X64309119Y-74642455D01*
X64222873Y-74757664D01*
X64222869Y-74757671D01*
X64172575Y-74892517D01*
X64166168Y-74952116D01*
X64166168Y-74952123D01*
X64166167Y-74952135D01*
X62280977Y-74952135D01*
X62313032Y-74920080D01*
X62200191Y-74833494D01*
X62200183Y-74833488D01*
X61973149Y-74702409D01*
X61973138Y-74702404D01*
X61730922Y-74602075D01*
X61477687Y-74534222D01*
X61477676Y-74534220D01*
X61217761Y-74500000D01*
X60955572Y-74500000D01*
X60695657Y-74534220D01*
X60695646Y-74534222D01*
X60442411Y-74602075D01*
X60200195Y-74702404D01*
X60200184Y-74702409D01*
X59973138Y-74833496D01*
X59860300Y-74920079D01*
X59860300Y-74920080D01*
X60754988Y-75814768D01*
X60726672Y-75826497D01*
X60602195Y-75909670D01*
X60496337Y-76015528D01*
X60413164Y-76140005D01*
X60401435Y-76168321D01*
X59506747Y-75273633D01*
X59506746Y-75273633D01*
X59420163Y-75386471D01*
X59289076Y-75613517D01*
X59289071Y-75613528D01*
X59239061Y-75734264D01*
X59195220Y-75788667D01*
X59128926Y-75810732D01*
X59061227Y-75793453D01*
X59013616Y-75742316D01*
X59000500Y-75686811D01*
X59000500Y-74412135D01*
X219499500Y-74412135D01*
X219499500Y-77507870D01*
X219499501Y-77507876D01*
X219505908Y-77567483D01*
X219556202Y-77702328D01*
X219556206Y-77702335D01*
X219642452Y-77817544D01*
X219642455Y-77817547D01*
X219757664Y-77903793D01*
X219757671Y-77903797D01*
X219892517Y-77954091D01*
X219892516Y-77954091D01*
X219899444Y-77954835D01*
X219952127Y-77960500D01*
X223047872Y-77960499D01*
X223107483Y-77954091D01*
X223242331Y-77903796D01*
X223357546Y-77817546D01*
X223443796Y-77702331D01*
X223494091Y-77567483D01*
X223500500Y-77507873D01*
X223500499Y-74412128D01*
X223494091Y-74352517D01*
X223443796Y-74217669D01*
X223443795Y-74217668D01*
X223443793Y-74217664D01*
X223357547Y-74102455D01*
X223357544Y-74102452D01*
X223242335Y-74016206D01*
X223242328Y-74016202D01*
X223107482Y-73965908D01*
X223107483Y-73965908D01*
X223047883Y-73959501D01*
X223047881Y-73959500D01*
X223047873Y-73959500D01*
X223047864Y-73959500D01*
X219952129Y-73959500D01*
X219952123Y-73959501D01*
X219892516Y-73965908D01*
X219757671Y-74016202D01*
X219757664Y-74016206D01*
X219642455Y-74102452D01*
X219642452Y-74102455D01*
X219556206Y-74217664D01*
X219556202Y-74217671D01*
X219505908Y-74352517D01*
X219499501Y-74412116D01*
X219499501Y-74412123D01*
X219499500Y-74412135D01*
X59000500Y-74412135D01*
X59000500Y-73124500D01*
X59020185Y-73057461D01*
X59072989Y-73011706D01*
X59124500Y-73000500D01*
X225375500Y-73000500D01*
X225442539Y-73020185D01*
G37*
%TD.AperFunction*%
%TD*%
M02*
