M48
; DRILL file {KiCad 9.0.3} date 2026-07-09T10:13:32+0200
; FORMAT={-:-/ absolute / metric / decimal}
; #@! TF.CreationDate,2026-07-09T10:13:32+02:00
; #@! TF.GenerationSoftware,Kicad,Pcbnew,9.0.3
; #@! TF.FileFunction,Plated,1,2,PTH
FMAT,2
METRIC
; #@! TA.AperFunction,Plated,PTH,ComponentDrill
T1C0.600
; #@! TA.AperFunction,Plated,PTH,ComponentDrill
T2C1.520
; #@! TA.AperFunction,Plated,PTH,ComponentDrill
T3C1.930
; #@! TA.AperFunction,Plated,PTH,ComponentDrill
T4C6.400
%
G90
G05
T1
X87.2Y-96.0
X88.606Y-92.606
X88.606Y-99.394
X92.0Y-91.2
X92.0Y-100.8
X95.394Y-92.606
X95.394Y-99.394
X96.8Y-96.0
X187.2Y-96.0
X188.606Y-92.606
X188.606Y-99.394
X192.0Y-91.2
X192.0Y-100.8
X195.394Y-92.606
X195.394Y-99.394
X196.8Y-96.0
T2
X61.087Y-76.5
X61.127Y-116.5
X66.167Y-76.5
X66.207Y-116.5
X72.42Y-76.5
X72.46Y-116.5
X77.5Y-76.5
X77.54Y-116.5
X83.753Y-76.5
X83.793Y-116.5
X88.833Y-76.5
X88.873Y-116.5
X95.087Y-76.5
X95.127Y-116.5
X100.167Y-76.5
X100.207Y-116.5
X106.42Y-76.5
X106.46Y-116.5
X111.5Y-76.5
X111.54Y-116.5
X117.753Y-76.5
X117.793Y-116.5
X122.833Y-76.5
X122.873Y-116.5
X129.087Y-76.5
X129.127Y-116.5
X134.167Y-76.5
X134.207Y-116.5
X140.42Y-76.5
X140.46Y-116.5
X145.5Y-76.5
X145.54Y-116.5
X151.753Y-76.5
X151.793Y-116.5
X156.833Y-76.5
X156.873Y-116.5
X163.087Y-76.5
X163.127Y-116.5
X168.167Y-76.5
X168.207Y-116.5
X174.42Y-76.5
X174.46Y-116.5
X179.5Y-76.5
X179.54Y-116.5
X185.753Y-76.5
X185.793Y-116.5
X190.833Y-76.5
X190.873Y-116.5
X197.087Y-76.5
X197.127Y-116.5
X202.167Y-76.5
X202.207Y-116.5
X208.42Y-76.5
X208.46Y-116.5
X213.5Y-76.5
X213.54Y-116.5
X221.5Y-75.96
X221.5Y-81.04
X221.5Y-88.14
X221.5Y-93.22
X221.5Y-100.32
X221.5Y-105.4
X221.5Y-112.5
X221.5Y-117.58
T3
X60.627Y-87.0
X60.627Y-106.0
X75.927Y-87.0
X75.927Y-106.0
T4
X92.0Y-96.0
X192.0Y-96.0
M30
