%TF.GenerationSoftware,KiCad,Pcbnew,9.0.3*%
%TF.CreationDate,2026-07-09T10:13:34+02:00*%
%TF.ProjectId,Pwr_breakout,5077725f-6272-4656-916b-6f75742e6b69,rev?*%
%TF.SameCoordinates,Original*%
%TF.FileFunction,Legend,Top*%
%TF.FilePolarity,Positive*%
%FSLAX46Y46*%
G04 Gerber Fmt 4.6, Leading zero omitted, Abs format (unit mm)*
G04 Created by KiCad (PCBNEW 9.0.3) date 2026-07-09 10:13:34*
%MOMM*%
%LPD*%
G01*
G04 APERTURE LIST*
%ADD10C,0.400000*%
%ADD11C,0.600000*%
%ADD12C,0.150000*%
%ADD13C,0.120000*%
G04 APERTURE END LIST*
D10*
X127239347Y-110472533D02*
X128763157Y-110472533D01*
X128001252Y-111234438D02*
X128001252Y-109710628D01*
X134286967Y-110472533D02*
X135810777Y-110472533D01*
X90760652Y-82527466D02*
X89236843Y-82527466D01*
X89998747Y-81765561D02*
X89998747Y-83289371D01*
X83713032Y-82527466D02*
X82189223Y-82527466D01*
X161739347Y-110472533D02*
X163263157Y-110472533D01*
X162501252Y-111234438D02*
X162501252Y-109710628D01*
X168786967Y-110472533D02*
X170310777Y-110472533D01*
X125260652Y-82527466D02*
X123736843Y-82527466D01*
X124498747Y-81765561D02*
X124498747Y-83289371D01*
X118213032Y-82527466D02*
X116689223Y-82527466D01*
X195739347Y-110472533D02*
X197263157Y-110472533D01*
X196501252Y-111234438D02*
X196501252Y-109710628D01*
X202786967Y-110472533D02*
X204310777Y-110472533D01*
X184239347Y-110472533D02*
X185763157Y-110472533D01*
X185001252Y-111234438D02*
X185001252Y-109710628D01*
X191286967Y-110472533D02*
X192810777Y-110472533D01*
X116239347Y-110472533D02*
X117763157Y-110472533D01*
X117001252Y-111234438D02*
X117001252Y-109710628D01*
X123286967Y-110472533D02*
X124810777Y-110472533D01*
D11*
G36*
X126179434Y-97660986D02*
G01*
X126253444Y-97734995D01*
X126359800Y-97947708D01*
X126485714Y-98451362D01*
X126485714Y-99091783D01*
X126359800Y-99595437D01*
X126253444Y-99808150D01*
X126179434Y-99882160D01*
X126000608Y-99971573D01*
X125856534Y-99971573D01*
X125677708Y-99882160D01*
X125603698Y-99808150D01*
X125497341Y-99595436D01*
X125371428Y-99091783D01*
X125371428Y-98451362D01*
X125497341Y-97947707D01*
X125603697Y-97734995D01*
X125677707Y-97660986D01*
X125856534Y-97571573D01*
X126000608Y-97571573D01*
X126179434Y-97660986D01*
G37*
G36*
X138036578Y-98803843D02*
G01*
X138110587Y-98877852D01*
X138200000Y-99056678D01*
X138200000Y-99629324D01*
X138110586Y-99808150D01*
X138036577Y-99882160D01*
X137857751Y-99971573D01*
X137427963Y-99971573D01*
X137249136Y-99882160D01*
X137175127Y-99808150D01*
X137085714Y-99629324D01*
X137085714Y-99056678D01*
X137175127Y-98877852D01*
X137249135Y-98803843D01*
X137427963Y-98714430D01*
X137857751Y-98714430D01*
X138036578Y-98803843D01*
G37*
G36*
X146195089Y-99105211D02*
G01*
X146253443Y-99163565D01*
X146342857Y-99342392D01*
X146342857Y-99629324D01*
X146253443Y-99808150D01*
X146179434Y-99882160D01*
X146000608Y-99971573D01*
X145228571Y-99971573D01*
X145228571Y-99000144D01*
X145879888Y-99000144D01*
X146195089Y-99105211D01*
G37*
G36*
X146036578Y-97660986D02*
G01*
X146110587Y-97734995D01*
X146200000Y-97913821D01*
X146200000Y-98057896D01*
X146110587Y-98236722D01*
X146036578Y-98310730D01*
X145857751Y-98400144D01*
X145228571Y-98400144D01*
X145228571Y-97571573D01*
X145857751Y-97571573D01*
X146036578Y-97660986D01*
G37*
G36*
X150821813Y-99009411D02*
G01*
X150831539Y-99022114D01*
X150840962Y-99035056D01*
X151440959Y-99755054D01*
X151415648Y-99788802D01*
X151322291Y-99882160D01*
X151143465Y-99971573D01*
X150856534Y-99971573D01*
X150677708Y-99882160D01*
X150603698Y-99808150D01*
X150514285Y-99629324D01*
X150514285Y-99342392D01*
X150603697Y-99163566D01*
X150691126Y-99076138D01*
X150812399Y-98995290D01*
X150821813Y-99009411D01*
G37*
G36*
X151276393Y-97638036D02*
G01*
X151342857Y-97770964D01*
X151342857Y-97772181D01*
X151253444Y-97951007D01*
X151166015Y-98038435D01*
X151011047Y-98141747D01*
X150942857Y-97937175D01*
X150942857Y-97770964D01*
X151009320Y-97638036D01*
X151142248Y-97571573D01*
X151143465Y-97571573D01*
X151276393Y-97638036D01*
G37*
G36*
X134695088Y-94275379D02*
G01*
X134753442Y-94333733D01*
X134842856Y-94512560D01*
X134842856Y-94799492D01*
X134753442Y-94978318D01*
X134679433Y-95052328D01*
X134500607Y-95141741D01*
X133728570Y-95141741D01*
X133728570Y-94170312D01*
X134379887Y-94170312D01*
X134695088Y-94275379D01*
G37*
G36*
X134536577Y-92831154D02*
G01*
X134610586Y-92905163D01*
X134699999Y-93083989D01*
X134699999Y-93228064D01*
X134610586Y-93406890D01*
X134536577Y-93480898D01*
X134357750Y-93570312D01*
X133728570Y-93570312D01*
X133728570Y-92741741D01*
X134357750Y-92741741D01*
X134536577Y-92831154D01*
G37*
G36*
X139204963Y-93808204D02*
G01*
X139257315Y-93912907D01*
X138442856Y-94075799D01*
X138442856Y-93941132D01*
X138509319Y-93808204D01*
X138642248Y-93741741D01*
X139072036Y-93741741D01*
X139204963Y-93808204D01*
G37*
G36*
X141842857Y-95113473D02*
G01*
X141786322Y-95141741D01*
X141213677Y-95141741D01*
X141080748Y-95075277D01*
X141014285Y-94942349D01*
X141014285Y-94798275D01*
X141080748Y-94665347D01*
X141213677Y-94598884D01*
X141842857Y-94598884D01*
X141842857Y-95113473D01*
G37*
G36*
X146965148Y-93831154D02*
G01*
X147039158Y-93905163D01*
X147128571Y-94083989D01*
X147128571Y-94799492D01*
X147039158Y-94978318D01*
X146965148Y-95052328D01*
X146786322Y-95141741D01*
X146499391Y-95141741D01*
X146320564Y-95052328D01*
X146246555Y-94978318D01*
X146157142Y-94799492D01*
X146157142Y-94083989D01*
X146246555Y-93905163D01*
X146320563Y-93831154D01*
X146499391Y-93741741D01*
X146786322Y-93741741D01*
X146965148Y-93831154D01*
G37*
G36*
X158204964Y-93808204D02*
G01*
X158257316Y-93912907D01*
X157442857Y-94075799D01*
X157442857Y-93941132D01*
X157509320Y-93808204D01*
X157642249Y-93741741D01*
X158072037Y-93741741D01*
X158204964Y-93808204D01*
G37*
G36*
X129393720Y-92831154D02*
G01*
X129467729Y-92905163D01*
X129557142Y-93083989D01*
X129557142Y-93370921D01*
X129467729Y-93549747D01*
X129393720Y-93623755D01*
X129214893Y-93713169D01*
X128442856Y-93713169D01*
X128442856Y-92741741D01*
X129214893Y-92741741D01*
X129393720Y-92831154D01*
G37*
G36*
X163012344Y-94284598D02*
G01*
X162416228Y-94284598D01*
X162714285Y-93390424D01*
X163012344Y-94284598D01*
G37*
G36*
X122965149Y-92831154D02*
G01*
X123039158Y-92905163D01*
X123128571Y-93083989D01*
X123128571Y-93370921D01*
X123039158Y-93549747D01*
X122965149Y-93623755D01*
X122786322Y-93713169D01*
X122014285Y-93713169D01*
X122014285Y-92741741D01*
X122786322Y-92741741D01*
X122965149Y-92831154D01*
G37*
G36*
X164346864Y-101618528D02*
G01*
X121080952Y-101618528D01*
X121080952Y-101005792D01*
X130200663Y-101005792D01*
X130216022Y-101082587D01*
X130250734Y-101152790D01*
X130302432Y-101211616D01*
X130367595Y-101255058D01*
X130441781Y-101280155D01*
X130519934Y-101285195D01*
X130596729Y-101269836D01*
X130666932Y-101235124D01*
X130725758Y-101183426D01*
X130749615Y-101152268D01*
X131362850Y-100232415D01*
X133488281Y-100232415D01*
X133488281Y-100310731D01*
X133508550Y-100386378D01*
X133547708Y-100454201D01*
X133603086Y-100509579D01*
X133670909Y-100548737D01*
X133746556Y-100569006D01*
X133785714Y-100571573D01*
X135642857Y-100571573D01*
X135682015Y-100569006D01*
X135757662Y-100548737D01*
X135825485Y-100509579D01*
X135880863Y-100454201D01*
X135920021Y-100386378D01*
X135940290Y-100310731D01*
X135940290Y-100232415D01*
X135920021Y-100156768D01*
X135880863Y-100088945D01*
X135825485Y-100033567D01*
X135757662Y-99994409D01*
X135682015Y-99974140D01*
X135642857Y-99971573D01*
X134509978Y-99971573D01*
X135712132Y-98769419D01*
X135722819Y-98757232D01*
X135726636Y-98753848D01*
X135729221Y-98749931D01*
X135738006Y-98739915D01*
X135753126Y-98713725D01*
X135769787Y-98688492D01*
X135774817Y-98676156D01*
X135777164Y-98672092D01*
X135778484Y-98667164D01*
X135784605Y-98652155D01*
X135816228Y-98557287D01*
X136485714Y-98557287D01*
X136485714Y-99700144D01*
X136486774Y-99716321D01*
X136486469Y-99721411D01*
X136487409Y-99726006D01*
X136488281Y-99739302D01*
X136496108Y-99768514D01*
X136502170Y-99798136D01*
X136507334Y-99810414D01*
X136508550Y-99814949D01*
X136511101Y-99819368D01*
X136517386Y-99834308D01*
X136660243Y-100120022D01*
X136680051Y-100153898D01*
X136686047Y-100160660D01*
X136690565Y-100168485D01*
X136716438Y-100197989D01*
X136859295Y-100340847D01*
X136888799Y-100366721D01*
X136896626Y-100371240D01*
X136903388Y-100377236D01*
X136937264Y-100397044D01*
X137222979Y-100539901D01*
X137237918Y-100546185D01*
X137242338Y-100548737D01*
X137246872Y-100549952D01*
X137259151Y-100555117D01*
X137288771Y-100561178D01*
X137317985Y-100569006D01*
X137331281Y-100569877D01*
X137335877Y-100570818D01*
X137340966Y-100570512D01*
X137357143Y-100571573D01*
X137928571Y-100571573D01*
X137944747Y-100570512D01*
X137949837Y-100570818D01*
X137954432Y-100569877D01*
X137967729Y-100569006D01*
X137996942Y-100561178D01*
X138026563Y-100555117D01*
X138038841Y-100549952D01*
X138043376Y-100548737D01*
X138047795Y-100546185D01*
X138062735Y-100539901D01*
X138348450Y-100397044D01*
X138382326Y-100377236D01*
X138389087Y-100371240D01*
X138396915Y-100366721D01*
X138426419Y-100340847D01*
X138569276Y-100197989D01*
X138595149Y-100168485D01*
X138599666Y-100160660D01*
X138605663Y-100153898D01*
X138625471Y-100120022D01*
X138768328Y-99834308D01*
X138774612Y-99819368D01*
X138777164Y-99814949D01*
X138778379Y-99810414D01*
X138783544Y-99798136D01*
X138789605Y-99768514D01*
X138797433Y-99739302D01*
X138798304Y-99726006D01*
X138799245Y-99721411D01*
X138798939Y-99716321D01*
X138800000Y-99700144D01*
X138800000Y-98985858D01*
X138798939Y-98969680D01*
X138799245Y-98964591D01*
X138798304Y-98959995D01*
X138797433Y-98946700D01*
X138789605Y-98917487D01*
X138783544Y-98887866D01*
X138778379Y-98875587D01*
X138777164Y-98871053D01*
X138774612Y-98866633D01*
X138768328Y-98851694D01*
X138625471Y-98565980D01*
X138605663Y-98532104D01*
X138599668Y-98525343D01*
X138595149Y-98517516D01*
X138569275Y-98488012D01*
X138426418Y-98345155D01*
X138396914Y-98319281D01*
X138389086Y-98314761D01*
X138382326Y-98308767D01*
X138348450Y-98288959D01*
X138062735Y-98146102D01*
X138047795Y-98139817D01*
X138043376Y-98137266D01*
X138038841Y-98136050D01*
X138026563Y-98130886D01*
X137996942Y-98124824D01*
X137967729Y-98116997D01*
X137954432Y-98116125D01*
X137949837Y-98115185D01*
X137944747Y-98115490D01*
X137928571Y-98114430D01*
X137357143Y-98114430D01*
X137340966Y-98115490D01*
X137335877Y-98115185D01*
X137331281Y-98116125D01*
X137317985Y-98116997D01*
X137288771Y-98124824D01*
X137259151Y-98130886D01*
X137246872Y-98136050D01*
X137242338Y-98137266D01*
X137237918Y-98139817D01*
X137222979Y-98146102D01*
X137194138Y-98160522D01*
X137207011Y-98109030D01*
X137447422Y-97748414D01*
X137534851Y-97660986D01*
X137713677Y-97571573D01*
X138214286Y-97571573D01*
X138253444Y-97569006D01*
X138329091Y-97548737D01*
X138396914Y-97509579D01*
X138452292Y-97454201D01*
X138491450Y-97386378D01*
X138511719Y-97310731D01*
X138511719Y-97251639D01*
X141486377Y-97251639D01*
X141491417Y-97329792D01*
X141516514Y-97403978D01*
X141536099Y-97437983D01*
X142425159Y-98771573D01*
X141536099Y-100105163D01*
X141516514Y-100139168D01*
X141491417Y-100213354D01*
X141486377Y-100291507D01*
X141501736Y-100368302D01*
X141536448Y-100438505D01*
X141588146Y-100497331D01*
X141653309Y-100540773D01*
X141727495Y-100565870D01*
X141805648Y-100570910D01*
X141882443Y-100555551D01*
X141952646Y-100520839D01*
X142011472Y-100469141D01*
X142035329Y-100437983D01*
X142785714Y-99312405D01*
X143536099Y-100437983D01*
X143559956Y-100469140D01*
X143618782Y-100520839D01*
X143688985Y-100555550D01*
X143765780Y-100570910D01*
X143843933Y-100565870D01*
X143918119Y-100540773D01*
X143983281Y-100497331D01*
X144034980Y-100438505D01*
X144069692Y-100368302D01*
X144085051Y-100291506D01*
X144080011Y-100213353D01*
X144054914Y-100139168D01*
X144035329Y-100105163D01*
X143146269Y-98771573D01*
X144035329Y-97437983D01*
X144054914Y-97403978D01*
X144080011Y-97329793D01*
X144083766Y-97271573D01*
X144628571Y-97271573D01*
X144628571Y-100271573D01*
X144631138Y-100310731D01*
X144651407Y-100386378D01*
X144690565Y-100454201D01*
X144745943Y-100509579D01*
X144813766Y-100548737D01*
X144889413Y-100569006D01*
X144928571Y-100571573D01*
X146071428Y-100571573D01*
X146087604Y-100570512D01*
X146092694Y-100570818D01*
X146097289Y-100569877D01*
X146110586Y-100569006D01*
X146139799Y-100561178D01*
X146169420Y-100555117D01*
X146181698Y-100549952D01*
X146186233Y-100548737D01*
X146190652Y-100546185D01*
X146205592Y-100539901D01*
X146491307Y-100397044D01*
X146525183Y-100377236D01*
X146531944Y-100371240D01*
X146539772Y-100366721D01*
X146569276Y-100340847D01*
X146712133Y-100197989D01*
X146738006Y-100168485D01*
X146742523Y-100160660D01*
X146748520Y-100153898D01*
X146768328Y-100120022D01*
X146911185Y-99834308D01*
X146917469Y-99819368D01*
X146920021Y-99814949D01*
X146921236Y-99810414D01*
X146926401Y-99798136D01*
X146932462Y-99768514D01*
X146940290Y-99739302D01*
X146941161Y-99726006D01*
X146942102Y-99721411D01*
X146941796Y-99716321D01*
X146942857Y-99700144D01*
X146942857Y-99271573D01*
X149914285Y-99271573D01*
X149914285Y-99700144D01*
X149915345Y-99716321D01*
X149915040Y-99721411D01*
X149915980Y-99726006D01*
X149916852Y-99739302D01*
X149924679Y-99768514D01*
X149930741Y-99798136D01*
X149935905Y-99810414D01*
X149937121Y-99814949D01*
X149939672Y-99819368D01*
X149945957Y-99834308D01*
X150088814Y-100120022D01*
X150108622Y-100153898D01*
X150114616Y-100160658D01*
X150119136Y-100168486D01*
X150145010Y-100197990D01*
X150287868Y-100340848D01*
X150317372Y-100366722D01*
X150325199Y-100371241D01*
X150331960Y-100377236D01*
X150365836Y-100397044D01*
X150651550Y-100539901D01*
X150666489Y-100546185D01*
X150670909Y-100548737D01*
X150675443Y-100549952D01*
X150687722Y-100555117D01*
X150717343Y-100561178D01*
X150746556Y-100569006D01*
X150759851Y-100569877D01*
X150764447Y-100570818D01*
X150769536Y-100570512D01*
X150785714Y-100571573D01*
X151214285Y-100571573D01*
X151230461Y-100570512D01*
X151235551Y-100570818D01*
X151240146Y-100569877D01*
X151253443Y-100569006D01*
X151282656Y-100561178D01*
X151312277Y-100555117D01*
X151324555Y-100549952D01*
X151329090Y-100548737D01*
X151333509Y-100546185D01*
X151348449Y-100539901D01*
X151634164Y-100397044D01*
X151668040Y-100377236D01*
X151674801Y-100371240D01*
X151682629Y-100366721D01*
X151712133Y-100340847D01*
X151854990Y-100197989D01*
X151856466Y-100196305D01*
X151857107Y-100195802D01*
X152002153Y-100340848D01*
X152031657Y-100366722D01*
X152039484Y-100371241D01*
X152046245Y-100377236D01*
X152080121Y-100397044D01*
X152365836Y-100539901D01*
X152380775Y-100546185D01*
X152385195Y-100548737D01*
X152389729Y-100549952D01*
X152402008Y-100555117D01*
X152431628Y-100561178D01*
X152460842Y-100569006D01*
X152474138Y-100569877D01*
X152478734Y-100570818D01*
X152483823Y-100570512D01*
X152500000Y-100571573D01*
X152642857Y-100571573D01*
X152682015Y-100569006D01*
X152757662Y-100548737D01*
X152825485Y-100509579D01*
X152880863Y-100454201D01*
X152920021Y-100386378D01*
X152940290Y-100310731D01*
X152940290Y-100232415D01*
X152920021Y-100156768D01*
X152880863Y-100088945D01*
X152825485Y-100033567D01*
X152757662Y-99994409D01*
X152682015Y-99974140D01*
X152642857Y-99971573D01*
X152570820Y-99971573D01*
X152391994Y-99882160D01*
X152222643Y-99712809D01*
X152311428Y-99594430D01*
X152332869Y-99561563D01*
X152336234Y-99553177D01*
X152341215Y-99545635D01*
X152356033Y-99509298D01*
X152498890Y-99080727D01*
X152508837Y-99042766D01*
X152509378Y-99033747D01*
X152511718Y-99025016D01*
X152514285Y-98985858D01*
X152514285Y-98700144D01*
X152511718Y-98660986D01*
X152491449Y-98585339D01*
X152452291Y-98517516D01*
X152396913Y-98462138D01*
X152329090Y-98422980D01*
X152253443Y-98402711D01*
X152175127Y-98402711D01*
X152099480Y-98422980D01*
X152031657Y-98462138D01*
X151976279Y-98517516D01*
X151937121Y-98585339D01*
X151916852Y-98660986D01*
X151914285Y-98700144D01*
X151914285Y-98937175D01*
X151807466Y-99257631D01*
X151312155Y-98663259D01*
X151311629Y-98662470D01*
X151523552Y-98521188D01*
X151535478Y-98512055D01*
X151539769Y-98509579D01*
X151547030Y-98503211D01*
X151554709Y-98497332D01*
X151557983Y-98493606D01*
X151569273Y-98483706D01*
X151712131Y-98340849D01*
X151738005Y-98311345D01*
X151742524Y-98303517D01*
X151748520Y-98296756D01*
X151768328Y-98262880D01*
X151911185Y-97977165D01*
X151917469Y-97962225D01*
X151920021Y-97957806D01*
X151921236Y-97953271D01*
X151926401Y-97940993D01*
X151932462Y-97911372D01*
X151940290Y-97882159D01*
X151941161Y-97868862D01*
X151942102Y-97864267D01*
X151941796Y-97859177D01*
X151942857Y-97843001D01*
X151942857Y-97700144D01*
X151941796Y-97683966D01*
X151942102Y-97678877D01*
X151941161Y-97674281D01*
X151940290Y-97660986D01*
X151932462Y-97631773D01*
X151926401Y-97602152D01*
X151921236Y-97589873D01*
X151920021Y-97585339D01*
X151917469Y-97580919D01*
X151911185Y-97565980D01*
X151768328Y-97280266D01*
X151763245Y-97271573D01*
X155914285Y-97271573D01*
X155914285Y-100271573D01*
X155916852Y-100310731D01*
X155937121Y-100386378D01*
X155976279Y-100454201D01*
X156031657Y-100509579D01*
X156099480Y-100548737D01*
X156175127Y-100569006D01*
X156253443Y-100569006D01*
X156329090Y-100548737D01*
X156396913Y-100509579D01*
X156452291Y-100454201D01*
X156491449Y-100386378D01*
X156511718Y-100310731D01*
X156514285Y-100271573D01*
X156514285Y-99000144D01*
X157214285Y-99000144D01*
X157253443Y-98997577D01*
X157329090Y-98977308D01*
X157396913Y-98938150D01*
X157452291Y-98882772D01*
X157491449Y-98814949D01*
X157511718Y-98739302D01*
X157511718Y-98660986D01*
X157491449Y-98585339D01*
X157452291Y-98517516D01*
X157396913Y-98462138D01*
X157329090Y-98422980D01*
X157253443Y-98402711D01*
X157214285Y-98400144D01*
X156514285Y-98400144D01*
X156514285Y-97571573D01*
X157642857Y-97571573D01*
X157682015Y-97569006D01*
X157757662Y-97548737D01*
X157825485Y-97509579D01*
X157880863Y-97454201D01*
X157920021Y-97386378D01*
X157940290Y-97310731D01*
X157940290Y-97271573D01*
X158485714Y-97271573D01*
X158485714Y-100271573D01*
X158488281Y-100310731D01*
X158508550Y-100386378D01*
X158547708Y-100454201D01*
X158603086Y-100509579D01*
X158670909Y-100548737D01*
X158746556Y-100569006D01*
X158785714Y-100571573D01*
X160214286Y-100571573D01*
X160253444Y-100569006D01*
X160329091Y-100548737D01*
X160396914Y-100509579D01*
X160452292Y-100454201D01*
X160491450Y-100386378D01*
X160511719Y-100310731D01*
X160511719Y-100232415D01*
X160491450Y-100156768D01*
X160452292Y-100088945D01*
X160396914Y-100033567D01*
X160329091Y-99994409D01*
X160253444Y-99974140D01*
X160214286Y-99971573D01*
X159085714Y-99971573D01*
X159085714Y-97271573D01*
X159083147Y-97232415D01*
X159062878Y-97156768D01*
X159023720Y-97088945D01*
X158968342Y-97033567D01*
X158900519Y-96994409D01*
X158824872Y-96974140D01*
X158746556Y-96974140D01*
X158670909Y-96994409D01*
X158603086Y-97033567D01*
X158547708Y-97088945D01*
X158508550Y-97156768D01*
X158488281Y-97232415D01*
X158485714Y-97271573D01*
X157940290Y-97271573D01*
X157940290Y-97232415D01*
X157920021Y-97156768D01*
X157880863Y-97088945D01*
X157825485Y-97033567D01*
X157757662Y-96994409D01*
X157682015Y-96974140D01*
X157642857Y-96971573D01*
X156214285Y-96971573D01*
X156175127Y-96974140D01*
X156099480Y-96994409D01*
X156031657Y-97033567D01*
X155976279Y-97088945D01*
X155937121Y-97156768D01*
X155916852Y-97232415D01*
X155914285Y-97271573D01*
X151763245Y-97271573D01*
X151748520Y-97246390D01*
X151736567Y-97232910D01*
X151726636Y-97217869D01*
X151710695Y-97203734D01*
X151696561Y-97187794D01*
X151681520Y-97177863D01*
X151668040Y-97165910D01*
X151634164Y-97146102D01*
X151348449Y-97003245D01*
X151333509Y-96996960D01*
X151329090Y-96994409D01*
X151324555Y-96993193D01*
X151312277Y-96988029D01*
X151282656Y-96981967D01*
X151253443Y-96974140D01*
X151240146Y-96973268D01*
X151235551Y-96972328D01*
X151230461Y-96972633D01*
X151214285Y-96971573D01*
X151071428Y-96971573D01*
X151055250Y-96972633D01*
X151050161Y-96972328D01*
X151045565Y-96973268D01*
X151032270Y-96974140D01*
X151003057Y-96981967D01*
X150973436Y-96988029D01*
X150961157Y-96993193D01*
X150956623Y-96994409D01*
X150952203Y-96996960D01*
X150937264Y-97003245D01*
X150651550Y-97146102D01*
X150617674Y-97165910D01*
X150604193Y-97177863D01*
X150589153Y-97187794D01*
X150575018Y-97203734D01*
X150559078Y-97217869D01*
X150549147Y-97232909D01*
X150537194Y-97246390D01*
X150517386Y-97280266D01*
X150374529Y-97565980D01*
X150368244Y-97580919D01*
X150365693Y-97585339D01*
X150364477Y-97589873D01*
X150359313Y-97602152D01*
X150353251Y-97631773D01*
X150345424Y-97660986D01*
X150344552Y-97674281D01*
X150343612Y-97678877D01*
X150343917Y-97683966D01*
X150342857Y-97700144D01*
X150342857Y-97985858D01*
X150345424Y-98025016D01*
X150347762Y-98033743D01*
X150348304Y-98042766D01*
X150358252Y-98080726D01*
X150493584Y-98486723D01*
X150333590Y-98593386D01*
X150321663Y-98602517D01*
X150317373Y-98604995D01*
X150310110Y-98611363D01*
X150302432Y-98617243D01*
X150299158Y-98620967D01*
X150287869Y-98630868D01*
X150145011Y-98773725D01*
X150119137Y-98803229D01*
X150114617Y-98811056D01*
X150108622Y-98817818D01*
X150088814Y-98851694D01*
X149945957Y-99137409D01*
X149939672Y-99152348D01*
X149937121Y-99156768D01*
X149935905Y-99161302D01*
X149930741Y-99173581D01*
X149924679Y-99203201D01*
X149916852Y-99232415D01*
X149915980Y-99245711D01*
X149915040Y-99250307D01*
X149915345Y-99255396D01*
X149914285Y-99271573D01*
X146942857Y-99271573D01*
X146941796Y-99255396D01*
X146942102Y-99250307D01*
X146941161Y-99245711D01*
X146940290Y-99232415D01*
X146932462Y-99203201D01*
X146926401Y-99173581D01*
X146921236Y-99161302D01*
X146920021Y-99156768D01*
X146917469Y-99152348D01*
X146911185Y-99137409D01*
X146768328Y-98851694D01*
X146748520Y-98817818D01*
X146742525Y-98811057D01*
X146738006Y-98803230D01*
X146712132Y-98773726D01*
X146569275Y-98630869D01*
X146566980Y-98628856D01*
X146569275Y-98626562D01*
X146595149Y-98597058D01*
X146599668Y-98589230D01*
X146605663Y-98582470D01*
X146625471Y-98548594D01*
X146768328Y-98262880D01*
X146774612Y-98247940D01*
X146777164Y-98243521D01*
X146778379Y-98238986D01*
X146783544Y-98226708D01*
X146789605Y-98197086D01*
X146797433Y-98167874D01*
X146798304Y-98154578D01*
X146799245Y-98149983D01*
X146798939Y-98144893D01*
X146800000Y-98128716D01*
X146800000Y-97843001D01*
X146798939Y-97826823D01*
X146799245Y-97821734D01*
X146798304Y-97817138D01*
X146797433Y-97803843D01*
X146789605Y-97774630D01*
X146783544Y-97745009D01*
X146778379Y-97732730D01*
X146777164Y-97728196D01*
X146774612Y-97723776D01*
X146768328Y-97708837D01*
X146625471Y-97423123D01*
X146605663Y-97389247D01*
X146599668Y-97382486D01*
X146595149Y-97374659D01*
X146569275Y-97345155D01*
X146426418Y-97202298D01*
X146396914Y-97176424D01*
X146389086Y-97171904D01*
X146382326Y-97165910D01*
X146348450Y-97146102D01*
X146062735Y-97003245D01*
X146047795Y-96996960D01*
X146043376Y-96994409D01*
X146038841Y-96993193D01*
X146026563Y-96988029D01*
X145996942Y-96981967D01*
X145967729Y-96974140D01*
X145954432Y-96973268D01*
X145949837Y-96972328D01*
X145944747Y-96972633D01*
X145928571Y-96971573D01*
X144928571Y-96971573D01*
X144889413Y-96974140D01*
X144813766Y-96994409D01*
X144745943Y-97033567D01*
X144690565Y-97088945D01*
X144651407Y-97156768D01*
X144631138Y-97232415D01*
X144628571Y-97271573D01*
X144083766Y-97271573D01*
X144085051Y-97251640D01*
X144069692Y-97174844D01*
X144034980Y-97104641D01*
X143983281Y-97045815D01*
X143918119Y-97002373D01*
X143843933Y-96977276D01*
X143765780Y-96972236D01*
X143688985Y-96987596D01*
X143618782Y-97022307D01*
X143559956Y-97074006D01*
X143536099Y-97105163D01*
X142785714Y-98230740D01*
X142035329Y-97105163D01*
X142011472Y-97074005D01*
X141952646Y-97022307D01*
X141882443Y-96987595D01*
X141805648Y-96972236D01*
X141727495Y-96977276D01*
X141653309Y-97002373D01*
X141588146Y-97045815D01*
X141536448Y-97104641D01*
X141501736Y-97174844D01*
X141486377Y-97251639D01*
X138511719Y-97251639D01*
X138511719Y-97232415D01*
X138491450Y-97156768D01*
X138452292Y-97088945D01*
X138396914Y-97033567D01*
X138329091Y-96994409D01*
X138253444Y-96974140D01*
X138214286Y-96971573D01*
X137642857Y-96971573D01*
X137626679Y-96972633D01*
X137621590Y-96972328D01*
X137616994Y-96973268D01*
X137603699Y-96974140D01*
X137574486Y-96981967D01*
X137544865Y-96988029D01*
X137532586Y-96993193D01*
X137528052Y-96994409D01*
X137523632Y-96996960D01*
X137508693Y-97003245D01*
X137222979Y-97146102D01*
X137189103Y-97165910D01*
X137182342Y-97171904D01*
X137174515Y-97176424D01*
X137145011Y-97202298D01*
X137002154Y-97345155D01*
X136992252Y-97356446D01*
X136988528Y-97359719D01*
X136982651Y-97367393D01*
X136976280Y-97374659D01*
X136973801Y-97378951D01*
X136964671Y-97390876D01*
X136678956Y-97819448D01*
X136659371Y-97853453D01*
X136655450Y-97865041D01*
X136649516Y-97875732D01*
X136637528Y-97913098D01*
X136494671Y-98484526D01*
X136489185Y-98514752D01*
X136488281Y-98518129D01*
X136488115Y-98520647D01*
X136487664Y-98523138D01*
X136487722Y-98526641D01*
X136485714Y-98557287D01*
X135816228Y-98557287D01*
X135927462Y-98223585D01*
X135937409Y-98185625D01*
X135937950Y-98176605D01*
X135940290Y-98167874D01*
X135942857Y-98128716D01*
X135942857Y-97843001D01*
X135941796Y-97826823D01*
X135942102Y-97821734D01*
X135941161Y-97817138D01*
X135940290Y-97803843D01*
X135932462Y-97774630D01*
X135926401Y-97745009D01*
X135921236Y-97732730D01*
X135920021Y-97728196D01*
X135917469Y-97723776D01*
X135911185Y-97708837D01*
X135768328Y-97423123D01*
X135748520Y-97389247D01*
X135742525Y-97382486D01*
X135738006Y-97374659D01*
X135712132Y-97345155D01*
X135569275Y-97202298D01*
X135539771Y-97176424D01*
X135531943Y-97171904D01*
X135525183Y-97165910D01*
X135491307Y-97146102D01*
X135205592Y-97003245D01*
X135190652Y-96996960D01*
X135186233Y-96994409D01*
X135181698Y-96993193D01*
X135169420Y-96988029D01*
X135139799Y-96981967D01*
X135110586Y-96974140D01*
X135097289Y-96973268D01*
X135092694Y-96972328D01*
X135087604Y-96972633D01*
X135071428Y-96971573D01*
X134357143Y-96971573D01*
X134340966Y-96972633D01*
X134335877Y-96972328D01*
X134331281Y-96973268D01*
X134317985Y-96974140D01*
X134288771Y-96981967D01*
X134259151Y-96988029D01*
X134246872Y-96993193D01*
X134242338Y-96994409D01*
X134237918Y-96996960D01*
X134222979Y-97003245D01*
X133937264Y-97146102D01*
X133903388Y-97165910D01*
X133896627Y-97171904D01*
X133888800Y-97176424D01*
X133859296Y-97202298D01*
X133716439Y-97345155D01*
X133690565Y-97374659D01*
X133651407Y-97442482D01*
X133631138Y-97518129D01*
X133631138Y-97596445D01*
X133651407Y-97672092D01*
X133690565Y-97739915D01*
X133745943Y-97795293D01*
X133813766Y-97834451D01*
X133889413Y-97854720D01*
X133967729Y-97854720D01*
X134043376Y-97834451D01*
X134111199Y-97795293D01*
X134140703Y-97769419D01*
X134249135Y-97660986D01*
X134427963Y-97571573D01*
X135000608Y-97571573D01*
X135179435Y-97660986D01*
X135253444Y-97734995D01*
X135342857Y-97913821D01*
X135342857Y-98080033D01*
X135237790Y-98395232D01*
X133573582Y-100059441D01*
X133547708Y-100088945D01*
X133508550Y-100156768D01*
X133488281Y-100232415D01*
X131362850Y-100232415D01*
X133321043Y-97295126D01*
X133340628Y-97261121D01*
X133365725Y-97186935D01*
X133370765Y-97108782D01*
X133355406Y-97031987D01*
X133320695Y-96961784D01*
X133268996Y-96902958D01*
X133203833Y-96859516D01*
X133129648Y-96834419D01*
X133051494Y-96829379D01*
X132974699Y-96844738D01*
X132904496Y-96879449D01*
X132845670Y-96931148D01*
X132821813Y-96962306D01*
X130250385Y-100819448D01*
X130230800Y-100853453D01*
X130205703Y-100927639D01*
X130200663Y-101005792D01*
X121080952Y-101005792D01*
X121080952Y-98414430D01*
X124771428Y-98414430D01*
X124771428Y-99128716D01*
X124773436Y-99159361D01*
X124773378Y-99162865D01*
X124773829Y-99165355D01*
X124773995Y-99167874D01*
X124774899Y-99171250D01*
X124780385Y-99201477D01*
X124923242Y-99772905D01*
X124929691Y-99793008D01*
X124930741Y-99798136D01*
X124933251Y-99804103D01*
X124935230Y-99810271D01*
X124937771Y-99814849D01*
X124945957Y-99834308D01*
X125088814Y-100120022D01*
X125108622Y-100153898D01*
X125114616Y-100160658D01*
X125119136Y-100168486D01*
X125145010Y-100197990D01*
X125287868Y-100340848D01*
X125317372Y-100366722D01*
X125325199Y-100371241D01*
X125331960Y-100377236D01*
X125365836Y-100397044D01*
X125651550Y-100539901D01*
X125666489Y-100546185D01*
X125670909Y-100548737D01*
X125675443Y-100549952D01*
X125687722Y-100555117D01*
X125717343Y-100561178D01*
X125746556Y-100569006D01*
X125759851Y-100569877D01*
X125764447Y-100570818D01*
X125769536Y-100570512D01*
X125785714Y-100571573D01*
X126071428Y-100571573D01*
X126087605Y-100570512D01*
X126092695Y-100570818D01*
X126097290Y-100569877D01*
X126110586Y-100569006D01*
X126139798Y-100561178D01*
X126169420Y-100555117D01*
X126181698Y-100549952D01*
X126186233Y-100548737D01*
X126190652Y-100546185D01*
X126205592Y-100539901D01*
X126491306Y-100397044D01*
X126525182Y-100377236D01*
X126531942Y-100371241D01*
X126539770Y-100366722D01*
X126569274Y-100340848D01*
X126712132Y-100197990D01*
X126738006Y-100168486D01*
X126742525Y-100160658D01*
X126748520Y-100153898D01*
X126768328Y-100120022D01*
X126911185Y-99834308D01*
X126919370Y-99814849D01*
X126921912Y-99810271D01*
X126923890Y-99804103D01*
X126926401Y-99798136D01*
X126927450Y-99793008D01*
X126933900Y-99772905D01*
X127076757Y-99201476D01*
X127082242Y-99171251D01*
X127083147Y-99167874D01*
X127083312Y-99165354D01*
X127083764Y-99162865D01*
X127083705Y-99159361D01*
X127085714Y-99128716D01*
X127085714Y-98709512D01*
X127628718Y-98709512D01*
X127631138Y-98724308D01*
X127631138Y-98739302D01*
X127637432Y-98762795D01*
X127641359Y-98786800D01*
X127647526Y-98800465D01*
X127651407Y-98814949D01*
X127663569Y-98836015D01*
X127673574Y-98858183D01*
X127683067Y-98869786D01*
X127690565Y-98882772D01*
X127707763Y-98899970D01*
X127723167Y-98918797D01*
X127735342Y-98927549D01*
X127745943Y-98938150D01*
X127767005Y-98950310D01*
X127786757Y-98964509D01*
X127800781Y-98969811D01*
X127813766Y-98977308D01*
X127837260Y-98983603D01*
X127860012Y-98992205D01*
X127874931Y-98993696D01*
X127889413Y-98997577D01*
X127913737Y-98997577D01*
X127937939Y-98999997D01*
X127952735Y-98997577D01*
X127967729Y-98997577D01*
X127991222Y-98991282D01*
X128015227Y-98987356D01*
X128028892Y-98981188D01*
X128043376Y-98977308D01*
X128064442Y-98965145D01*
X128086610Y-98955141D01*
X128098213Y-98945647D01*
X128111199Y-98938150D01*
X128140703Y-98912276D01*
X128249135Y-98803843D01*
X128427963Y-98714430D01*
X129000608Y-98714430D01*
X129179435Y-98803843D01*
X129253444Y-98877852D01*
X129342857Y-99056678D01*
X129342857Y-99629324D01*
X129253443Y-99808150D01*
X129179434Y-99882160D01*
X129000608Y-99971573D01*
X128427963Y-99971573D01*
X128249136Y-99882160D01*
X128140704Y-99773727D01*
X128111200Y-99747853D01*
X128043377Y-99708694D01*
X127967730Y-99688425D01*
X127889414Y-99688425D01*
X127813767Y-99708694D01*
X127745944Y-99747852D01*
X127690566Y-99803229D01*
X127651407Y-99871052D01*
X127631138Y-99946699D01*
X127631138Y-100025015D01*
X127651407Y-100100662D01*
X127690565Y-100168485D01*
X127716438Y-100197989D01*
X127859295Y-100340847D01*
X127888799Y-100366721D01*
X127896626Y-100371240D01*
X127903388Y-100377236D01*
X127937264Y-100397044D01*
X128222979Y-100539901D01*
X128237918Y-100546185D01*
X128242338Y-100548737D01*
X128246872Y-100549952D01*
X128259151Y-100555117D01*
X128288771Y-100561178D01*
X128317985Y-100569006D01*
X128331281Y-100569877D01*
X128335877Y-100570818D01*
X128340966Y-100570512D01*
X128357143Y-100571573D01*
X129071428Y-100571573D01*
X129087604Y-100570512D01*
X129092694Y-100570818D01*
X129097289Y-100569877D01*
X129110586Y-100569006D01*
X129139799Y-100561178D01*
X129169420Y-100555117D01*
X129181698Y-100549952D01*
X129186233Y-100548737D01*
X129190652Y-100546185D01*
X129205592Y-100539901D01*
X129491307Y-100397044D01*
X129525183Y-100377236D01*
X129531944Y-100371240D01*
X129539772Y-100366721D01*
X129569276Y-100340847D01*
X129712133Y-100197989D01*
X129738006Y-100168485D01*
X129742523Y-100160660D01*
X129748520Y-100153898D01*
X129768328Y-100120022D01*
X129911185Y-99834308D01*
X129917469Y-99819368D01*
X129920021Y-99814949D01*
X129921236Y-99810414D01*
X129926401Y-99798136D01*
X129932462Y-99768514D01*
X129940290Y-99739302D01*
X129941161Y-99726006D01*
X129942102Y-99721411D01*
X129941796Y-99716321D01*
X129942857Y-99700144D01*
X129942857Y-98985858D01*
X129941796Y-98969680D01*
X129942102Y-98964591D01*
X129941161Y-98959995D01*
X129940290Y-98946700D01*
X129932462Y-98917487D01*
X129926401Y-98887866D01*
X129921236Y-98875587D01*
X129920021Y-98871053D01*
X129917469Y-98866633D01*
X129911185Y-98851694D01*
X129768328Y-98565980D01*
X129748520Y-98532104D01*
X129742525Y-98525343D01*
X129738006Y-98517516D01*
X129712132Y-98488012D01*
X129569275Y-98345155D01*
X129539771Y-98319281D01*
X129531943Y-98314761D01*
X129525183Y-98308767D01*
X129491307Y-98288959D01*
X129205592Y-98146102D01*
X129190652Y-98139817D01*
X129186233Y-98137266D01*
X129181698Y-98136050D01*
X129169420Y-98130886D01*
X129139799Y-98124824D01*
X129110586Y-98116997D01*
X129097289Y-98116125D01*
X129092694Y-98115185D01*
X129087604Y-98115490D01*
X129071428Y-98114430D01*
X128357143Y-98114430D01*
X128340966Y-98115490D01*
X128335877Y-98115185D01*
X128331281Y-98116125D01*
X128317985Y-98116997D01*
X128288771Y-98124824D01*
X128287574Y-98125069D01*
X128342924Y-97571573D01*
X129500000Y-97571573D01*
X129539158Y-97569006D01*
X129614805Y-97548737D01*
X129682628Y-97509579D01*
X129738006Y-97454201D01*
X129777164Y-97386378D01*
X129797433Y-97310731D01*
X129797433Y-97232415D01*
X129777164Y-97156768D01*
X129738006Y-97088945D01*
X129682628Y-97033567D01*
X129614805Y-96994409D01*
X129539158Y-96974140D01*
X129500000Y-96971573D01*
X128071428Y-96971573D01*
X128064881Y-96972002D01*
X128062060Y-96971720D01*
X128057293Y-96972499D01*
X128032270Y-96974140D01*
X128008776Y-96980434D01*
X127984772Y-96984361D01*
X127971106Y-96990528D01*
X127956623Y-96994409D01*
X127935556Y-97006571D01*
X127913389Y-97016576D01*
X127901785Y-97026069D01*
X127888800Y-97033567D01*
X127871601Y-97050765D01*
X127852775Y-97066169D01*
X127844022Y-97078344D01*
X127833422Y-97088945D01*
X127821261Y-97110007D01*
X127807063Y-97129759D01*
X127801760Y-97143783D01*
X127794264Y-97156768D01*
X127787968Y-97180262D01*
X127779367Y-97203014D01*
X127775245Y-97227747D01*
X127773995Y-97232415D01*
X127773995Y-97235252D01*
X127772917Y-97241722D01*
X127630060Y-98670293D01*
X127628718Y-98709512D01*
X127085714Y-98709512D01*
X127085714Y-98414430D01*
X127083705Y-98383784D01*
X127083764Y-98380280D01*
X127083312Y-98377789D01*
X127083147Y-98375272D01*
X127082242Y-98371896D01*
X127076757Y-98341669D01*
X126933900Y-97770240D01*
X126927450Y-97750136D01*
X126926401Y-97745009D01*
X126923890Y-97739041D01*
X126921912Y-97732874D01*
X126919370Y-97728295D01*
X126911185Y-97708837D01*
X126768328Y-97423123D01*
X126748520Y-97389247D01*
X126742524Y-97382485D01*
X126738005Y-97374658D01*
X126712131Y-97345154D01*
X126569273Y-97202297D01*
X126539769Y-97176424D01*
X126531944Y-97171906D01*
X126525182Y-97165910D01*
X126491306Y-97146102D01*
X126205592Y-97003245D01*
X126190652Y-96996960D01*
X126186233Y-96994409D01*
X126181698Y-96993193D01*
X126169420Y-96988029D01*
X126139798Y-96981967D01*
X126110586Y-96974140D01*
X126097290Y-96973268D01*
X126092695Y-96972328D01*
X126087605Y-96972633D01*
X126071428Y-96971573D01*
X125785714Y-96971573D01*
X125769536Y-96972633D01*
X125764447Y-96972328D01*
X125759851Y-96973268D01*
X125746556Y-96974140D01*
X125717343Y-96981967D01*
X125687722Y-96988029D01*
X125675443Y-96993193D01*
X125670909Y-96994409D01*
X125666489Y-96996960D01*
X125651550Y-97003245D01*
X125365836Y-97146102D01*
X125331960Y-97165910D01*
X125325197Y-97171906D01*
X125317373Y-97176424D01*
X125287869Y-97202297D01*
X125145011Y-97345154D01*
X125119137Y-97374658D01*
X125114617Y-97382485D01*
X125108622Y-97389247D01*
X125088814Y-97423123D01*
X124945957Y-97708837D01*
X124937769Y-97728299D01*
X124935230Y-97732875D01*
X124933252Y-97739037D01*
X124930741Y-97745009D01*
X124929691Y-97750139D01*
X124923242Y-97770241D01*
X124780385Y-98341669D01*
X124774899Y-98371895D01*
X124773995Y-98375272D01*
X124773829Y-98377790D01*
X124773378Y-98380281D01*
X124773436Y-98383784D01*
X124771428Y-98414430D01*
X121080952Y-98414430D01*
X121080952Y-92441741D01*
X121414285Y-92441741D01*
X121414285Y-95441741D01*
X121416852Y-95480899D01*
X121437121Y-95556546D01*
X121476279Y-95624369D01*
X121531657Y-95679747D01*
X121599480Y-95718905D01*
X121675127Y-95739174D01*
X121753443Y-95739174D01*
X121829090Y-95718905D01*
X121896913Y-95679747D01*
X121952291Y-95624369D01*
X121991449Y-95556546D01*
X122011718Y-95480899D01*
X122014285Y-95441741D01*
X122014285Y-94313169D01*
X122857142Y-94313169D01*
X122873318Y-94312108D01*
X122878408Y-94312414D01*
X122883003Y-94311473D01*
X122896300Y-94310602D01*
X122925513Y-94302774D01*
X122955134Y-94296713D01*
X122967412Y-94291548D01*
X122971947Y-94290333D01*
X122976366Y-94287781D01*
X122991306Y-94281497D01*
X123277021Y-94138640D01*
X123310897Y-94118832D01*
X123317657Y-94112837D01*
X123325485Y-94108318D01*
X123354989Y-94082444D01*
X123497846Y-93939587D01*
X123523720Y-93910083D01*
X123528239Y-93902255D01*
X123534234Y-93895495D01*
X123554042Y-93861619D01*
X123696899Y-93575905D01*
X123703183Y-93560965D01*
X123705735Y-93556546D01*
X123706950Y-93552011D01*
X123712115Y-93539733D01*
X123718176Y-93510111D01*
X123726004Y-93480899D01*
X123726875Y-93467603D01*
X123727816Y-93463008D01*
X123727510Y-93457918D01*
X123728571Y-93441741D01*
X123728571Y-93013169D01*
X123727510Y-92996991D01*
X123727816Y-92991902D01*
X123726875Y-92987306D01*
X123726004Y-92974011D01*
X123718176Y-92944798D01*
X123712115Y-92915177D01*
X123706950Y-92902898D01*
X123705735Y-92898364D01*
X123703183Y-92893944D01*
X123696899Y-92879005D01*
X123554042Y-92593291D01*
X123534234Y-92559415D01*
X123528239Y-92552654D01*
X123523720Y-92544827D01*
X123497846Y-92515323D01*
X123455062Y-92472539D01*
X124130157Y-92472539D01*
X124136729Y-92511227D01*
X124851015Y-95511227D01*
X124862582Y-95548726D01*
X124864682Y-95552612D01*
X124865831Y-95556877D01*
X124883259Y-95586981D01*
X124899821Y-95617621D01*
X124902858Y-95620833D01*
X124905070Y-95624654D01*
X124929707Y-95649233D01*
X124953624Y-95674530D01*
X124957385Y-95676844D01*
X124960514Y-95679966D01*
X124990686Y-95697337D01*
X125020322Y-95715575D01*
X125024555Y-95716837D01*
X125028384Y-95719042D01*
X125062011Y-95728009D01*
X125095371Y-95737959D01*
X125099788Y-95738082D01*
X125104056Y-95739221D01*
X125138850Y-95739179D01*
X125173655Y-95740156D01*
X125177954Y-95739132D01*
X125182371Y-95739127D01*
X125215974Y-95730079D01*
X125249842Y-95722016D01*
X125253728Y-95719915D01*
X125257993Y-95718767D01*
X125288097Y-95701338D01*
X125318737Y-95684777D01*
X125321949Y-95681739D01*
X125325770Y-95679528D01*
X125350349Y-95654890D01*
X125375646Y-95630974D01*
X125377960Y-95627212D01*
X125381082Y-95624084D01*
X125398453Y-95593911D01*
X125416691Y-95564276D01*
X125417953Y-95560042D01*
X125420158Y-95556214D01*
X125432727Y-95519040D01*
X125714285Y-94463197D01*
X125995843Y-95519040D01*
X126008413Y-95556214D01*
X126010617Y-95560042D01*
X126011880Y-95564276D01*
X126030117Y-95593911D01*
X126047489Y-95624084D01*
X126050610Y-95627212D01*
X126052925Y-95630974D01*
X126078221Y-95654890D01*
X126102801Y-95679528D01*
X126106621Y-95681739D01*
X126109834Y-95684777D01*
X126140473Y-95701338D01*
X126170578Y-95718767D01*
X126174842Y-95719915D01*
X126178729Y-95722016D01*
X126212582Y-95730075D01*
X126246200Y-95739127D01*
X126250620Y-95739132D01*
X126254916Y-95740155D01*
X126289720Y-95739178D01*
X126324516Y-95739220D01*
X126328779Y-95738082D01*
X126333200Y-95737959D01*
X126366587Y-95728000D01*
X126400187Y-95719041D01*
X126404012Y-95716838D01*
X126408249Y-95715575D01*
X126437909Y-95697322D01*
X126468057Y-95679965D01*
X126471183Y-95676846D01*
X126474947Y-95674530D01*
X126498870Y-95649225D01*
X126523501Y-95624654D01*
X126525712Y-95620833D01*
X126528750Y-95617621D01*
X126545311Y-95586981D01*
X126562740Y-95556877D01*
X126563888Y-95552612D01*
X126565989Y-95548726D01*
X126577556Y-95511227D01*
X127291842Y-92511227D01*
X127298414Y-92472539D01*
X127297550Y-92441741D01*
X127842856Y-92441741D01*
X127842856Y-95441741D01*
X127845423Y-95480899D01*
X127865692Y-95556546D01*
X127904850Y-95624369D01*
X127960228Y-95679747D01*
X128028051Y-95718905D01*
X128103698Y-95739174D01*
X128182014Y-95739174D01*
X128257661Y-95718905D01*
X128325484Y-95679747D01*
X128380862Y-95624369D01*
X128420020Y-95556546D01*
X128440289Y-95480899D01*
X128442856Y-95441741D01*
X128442856Y-94313169D01*
X128700945Y-94313169D01*
X129611372Y-95613780D01*
X129635931Y-95644387D01*
X129695917Y-95694736D01*
X129766890Y-95727843D01*
X129844015Y-95741453D01*
X129922033Y-95734639D01*
X129995629Y-95707863D01*
X130059788Y-95662952D01*
X130110137Y-95602966D01*
X130143244Y-95531993D01*
X130156854Y-95454868D01*
X130150040Y-95376850D01*
X130123264Y-95303254D01*
X130102912Y-95269702D01*
X129413149Y-94284326D01*
X129419877Y-94281497D01*
X129705592Y-94138640D01*
X129739468Y-94118832D01*
X129746228Y-94112837D01*
X129754056Y-94108318D01*
X129783560Y-94082444D01*
X129926417Y-93939587D01*
X129952291Y-93910083D01*
X129956810Y-93902255D01*
X129962805Y-93895495D01*
X129982613Y-93861619D01*
X130125470Y-93575905D01*
X130131754Y-93560965D01*
X130134306Y-93556546D01*
X130135521Y-93552011D01*
X130140686Y-93539733D01*
X130146747Y-93510111D01*
X130154575Y-93480899D01*
X130155446Y-93467603D01*
X130156387Y-93463008D01*
X130156081Y-93457918D01*
X130157142Y-93441741D01*
X130157142Y-93013169D01*
X130156081Y-92996991D01*
X130156387Y-92991902D01*
X130155446Y-92987306D01*
X130154575Y-92974011D01*
X130146747Y-92944798D01*
X130140686Y-92915177D01*
X130135521Y-92902898D01*
X130134306Y-92898364D01*
X130131754Y-92893944D01*
X130125470Y-92879005D01*
X129982613Y-92593291D01*
X129962805Y-92559415D01*
X129956810Y-92552654D01*
X129952291Y-92544827D01*
X129926417Y-92515323D01*
X129852835Y-92441741D01*
X133128570Y-92441741D01*
X133128570Y-95441741D01*
X133131137Y-95480899D01*
X133151406Y-95556546D01*
X133190564Y-95624369D01*
X133245942Y-95679747D01*
X133313765Y-95718905D01*
X133389412Y-95739174D01*
X133428570Y-95741741D01*
X134571427Y-95741741D01*
X134587603Y-95740680D01*
X134592693Y-95740986D01*
X134597288Y-95740045D01*
X134610585Y-95739174D01*
X134639798Y-95731346D01*
X134669419Y-95725285D01*
X134681697Y-95720120D01*
X134686232Y-95718905D01*
X134690651Y-95716353D01*
X134705591Y-95710069D01*
X134991306Y-95567212D01*
X135025182Y-95547404D01*
X135031943Y-95541408D01*
X135039771Y-95536889D01*
X135069275Y-95511015D01*
X135212132Y-95368157D01*
X135238005Y-95338653D01*
X135242522Y-95330828D01*
X135248519Y-95324066D01*
X135268327Y-95290190D01*
X135411184Y-95004476D01*
X135417468Y-94989536D01*
X135420020Y-94985117D01*
X135421235Y-94980582D01*
X135426400Y-94968304D01*
X135432461Y-94938682D01*
X135440289Y-94909470D01*
X135441160Y-94896174D01*
X135442101Y-94891579D01*
X135441795Y-94886489D01*
X135442856Y-94870312D01*
X135442856Y-94441741D01*
X135441795Y-94425564D01*
X135442101Y-94420475D01*
X135441160Y-94415879D01*
X135440289Y-94402583D01*
X135432461Y-94373369D01*
X135426400Y-94343749D01*
X135421235Y-94331470D01*
X135420020Y-94326936D01*
X135417468Y-94322516D01*
X135411184Y-94307577D01*
X135268327Y-94021862D01*
X135248519Y-93987986D01*
X135242524Y-93981225D01*
X135238005Y-93973398D01*
X135212131Y-93943894D01*
X135069274Y-93801037D01*
X135066979Y-93799024D01*
X135069274Y-93796730D01*
X135095148Y-93767226D01*
X135099667Y-93759398D01*
X135105662Y-93752638D01*
X135125470Y-93718762D01*
X135263981Y-93441741D01*
X136128570Y-93441741D01*
X136128570Y-95441741D01*
X136131137Y-95480899D01*
X136151406Y-95556546D01*
X136190564Y-95624369D01*
X136245942Y-95679747D01*
X136313765Y-95718905D01*
X136389412Y-95739174D01*
X136467728Y-95739174D01*
X136543375Y-95718905D01*
X136611198Y-95679747D01*
X136666576Y-95624369D01*
X136705734Y-95556546D01*
X136726003Y-95480899D01*
X136728570Y-95441741D01*
X136728570Y-94083989D01*
X136817982Y-93905163D01*
X136852833Y-93870312D01*
X137842856Y-93870312D01*
X137842856Y-95013169D01*
X137843916Y-95029345D01*
X137843611Y-95034435D01*
X137844551Y-95039030D01*
X137845423Y-95052327D01*
X137853250Y-95081540D01*
X137859312Y-95111161D01*
X137864476Y-95123439D01*
X137865692Y-95127974D01*
X137868243Y-95132393D01*
X137874528Y-95147333D01*
X138017385Y-95433048D01*
X138037193Y-95466924D01*
X138049145Y-95480403D01*
X138059077Y-95495445D01*
X138075017Y-95509579D01*
X138089152Y-95525520D01*
X138104193Y-95535451D01*
X138117673Y-95547404D01*
X138151549Y-95567212D01*
X138437264Y-95710069D01*
X138452203Y-95716353D01*
X138456623Y-95718905D01*
X138461157Y-95720120D01*
X138473436Y-95725285D01*
X138503056Y-95731346D01*
X138532270Y-95739174D01*
X138545566Y-95740045D01*
X138550162Y-95740986D01*
X138555251Y-95740680D01*
X138571428Y-95741741D01*
X139142856Y-95741741D01*
X139159033Y-95740680D01*
X139164123Y-95740986D01*
X139168718Y-95740045D01*
X139182014Y-95739174D01*
X139211226Y-95731346D01*
X139240848Y-95725285D01*
X139253126Y-95720120D01*
X139257661Y-95718905D01*
X139262080Y-95716353D01*
X139277020Y-95710069D01*
X139562734Y-95567212D01*
X139596610Y-95547404D01*
X139655206Y-95495445D01*
X139698357Y-95430089D01*
X139723123Y-95355792D01*
X139727815Y-95277617D01*
X139712114Y-95200892D01*
X139677090Y-95130844D01*
X139625131Y-95072248D01*
X139559775Y-95029097D01*
X139485478Y-95004331D01*
X139407303Y-94999639D01*
X139330578Y-95015340D01*
X139294406Y-95030556D01*
X139072036Y-95141741D01*
X138642248Y-95141741D01*
X138509319Y-95075277D01*
X138442856Y-94942349D01*
X138442856Y-94727455D01*
X140414285Y-94727455D01*
X140414285Y-95013169D01*
X140415345Y-95029345D01*
X140415040Y-95034435D01*
X140415980Y-95039030D01*
X140416852Y-95052327D01*
X140424679Y-95081540D01*
X140430741Y-95111161D01*
X140435905Y-95123439D01*
X140437121Y-95127974D01*
X140439672Y-95132393D01*
X140445957Y-95147333D01*
X140588814Y-95433048D01*
X140608622Y-95466924D01*
X140620574Y-95480403D01*
X140630506Y-95495445D01*
X140646446Y-95509579D01*
X140660581Y-95525520D01*
X140675622Y-95535451D01*
X140689102Y-95547404D01*
X140722978Y-95567212D01*
X141008693Y-95710069D01*
X141023632Y-95716353D01*
X141028052Y-95718905D01*
X141032586Y-95720120D01*
X141044865Y-95725285D01*
X141074485Y-95731346D01*
X141103699Y-95739174D01*
X141116995Y-95740045D01*
X141121591Y-95740986D01*
X141126680Y-95740680D01*
X141142857Y-95741741D01*
X141857142Y-95741741D01*
X141873318Y-95740680D01*
X141878408Y-95740986D01*
X141883003Y-95740045D01*
X141896300Y-95739174D01*
X141925513Y-95731346D01*
X141955134Y-95725285D01*
X141967412Y-95720120D01*
X141971947Y-95718905D01*
X141976366Y-95716353D01*
X141991306Y-95710069D01*
X142002796Y-95704323D01*
X142028052Y-95718905D01*
X142103699Y-95739174D01*
X142182015Y-95739174D01*
X142257662Y-95718905D01*
X142325485Y-95679747D01*
X142380863Y-95624369D01*
X142420021Y-95556546D01*
X142440290Y-95480899D01*
X142442857Y-95441741D01*
X142442857Y-93870312D01*
X142441796Y-93854134D01*
X142442102Y-93849044D01*
X142441161Y-93844448D01*
X142440290Y-93831154D01*
X142432463Y-93801944D01*
X142426401Y-93772319D01*
X142421235Y-93760038D01*
X142420021Y-93755507D01*
X142417471Y-93751090D01*
X142411185Y-93736147D01*
X142268327Y-93450433D01*
X142248519Y-93416557D01*
X142236563Y-93403074D01*
X142226635Y-93388037D01*
X142210695Y-93373902D01*
X142196559Y-93357961D01*
X142181518Y-93348030D01*
X142168039Y-93336078D01*
X142134163Y-93316270D01*
X141848449Y-93173413D01*
X141833509Y-93167128D01*
X141829090Y-93164577D01*
X141824555Y-93163361D01*
X141812277Y-93158197D01*
X141782655Y-93152135D01*
X141753443Y-93144308D01*
X141740147Y-93143436D01*
X141735552Y-93142496D01*
X141730462Y-93142801D01*
X141714285Y-93141741D01*
X141142857Y-93141741D01*
X141126680Y-93142801D01*
X141121591Y-93142496D01*
X141116995Y-93143436D01*
X141103699Y-93144308D01*
X141074485Y-93152135D01*
X141044865Y-93158197D01*
X141032586Y-93163361D01*
X141028052Y-93164577D01*
X141023632Y-93167128D01*
X141008693Y-93173413D01*
X140722978Y-93316270D01*
X140689102Y-93336078D01*
X140630506Y-93388037D01*
X140587355Y-93453392D01*
X140562589Y-93527690D01*
X140557897Y-93605864D01*
X140573598Y-93682590D01*
X140608622Y-93752638D01*
X140660581Y-93811234D01*
X140725936Y-93854385D01*
X140800234Y-93879151D01*
X140878408Y-93883843D01*
X140955134Y-93868142D01*
X140991306Y-93852926D01*
X141213677Y-93741741D01*
X141643465Y-93741741D01*
X141776392Y-93808204D01*
X141842857Y-93941132D01*
X141842857Y-93970616D01*
X141786322Y-93998884D01*
X141142857Y-93998884D01*
X141126680Y-93999944D01*
X141121591Y-93999639D01*
X141116995Y-94000579D01*
X141103699Y-94001451D01*
X141074485Y-94009278D01*
X141044865Y-94015340D01*
X141032586Y-94020504D01*
X141028052Y-94021720D01*
X141023632Y-94024271D01*
X141008693Y-94030556D01*
X140722978Y-94173413D01*
X140689102Y-94193221D01*
X140675621Y-94205174D01*
X140660581Y-94215105D01*
X140646446Y-94231045D01*
X140630506Y-94245180D01*
X140620574Y-94260221D01*
X140608622Y-94273701D01*
X140588814Y-94307577D01*
X140445957Y-94593291D01*
X140439672Y-94608230D01*
X140437121Y-94612650D01*
X140435905Y-94617184D01*
X140430741Y-94629463D01*
X140424679Y-94659084D01*
X140416852Y-94688297D01*
X140415980Y-94701592D01*
X140415040Y-94706188D01*
X140415345Y-94711277D01*
X140414285Y-94727455D01*
X138442856Y-94727455D01*
X138442856Y-94687681D01*
X139630263Y-94450200D01*
X139668157Y-94440004D01*
X139676857Y-94435702D01*
X139686233Y-94433190D01*
X139711842Y-94418404D01*
X139738360Y-94405293D01*
X139745653Y-94398883D01*
X139754056Y-94394032D01*
X139774966Y-94373121D01*
X139797186Y-94353594D01*
X139802570Y-94345518D01*
X139809434Y-94338654D01*
X139824224Y-94313035D01*
X139840628Y-94288431D01*
X139843737Y-94279239D01*
X139848592Y-94270831D01*
X139856248Y-94242254D01*
X139865724Y-94214245D01*
X139866348Y-94204560D01*
X139868861Y-94195184D01*
X139871428Y-94156026D01*
X139871428Y-93870312D01*
X139870367Y-93854134D01*
X139870673Y-93849044D01*
X139869732Y-93844448D01*
X139868861Y-93831154D01*
X139861034Y-93801944D01*
X139854972Y-93772319D01*
X139849806Y-93760038D01*
X139848592Y-93755507D01*
X139846042Y-93751090D01*
X139839756Y-93736147D01*
X139696898Y-93450433D01*
X139677090Y-93416557D01*
X139665134Y-93403074D01*
X139655206Y-93388037D01*
X139639266Y-93373902D01*
X139625130Y-93357961D01*
X139610089Y-93348030D01*
X139596610Y-93336078D01*
X139562734Y-93316270D01*
X139277020Y-93173413D01*
X139262080Y-93167128D01*
X139257661Y-93164577D01*
X139253126Y-93163361D01*
X139240848Y-93158197D01*
X139211226Y-93152135D01*
X139182014Y-93144308D01*
X139168718Y-93143436D01*
X139164123Y-93142496D01*
X139159033Y-93142801D01*
X139142856Y-93141741D01*
X138571428Y-93141741D01*
X138555251Y-93142801D01*
X138550162Y-93142496D01*
X138545566Y-93143436D01*
X138532270Y-93144308D01*
X138503056Y-93152135D01*
X138473436Y-93158197D01*
X138461157Y-93163361D01*
X138456623Y-93164577D01*
X138452203Y-93167128D01*
X138437264Y-93173413D01*
X138151549Y-93316270D01*
X138117673Y-93336078D01*
X138104192Y-93348031D01*
X138089152Y-93357962D01*
X138075017Y-93373902D01*
X138059077Y-93388037D01*
X138049145Y-93403078D01*
X138037193Y-93416558D01*
X138017385Y-93450434D01*
X137874528Y-93736148D01*
X137868243Y-93751087D01*
X137865692Y-93755507D01*
X137864476Y-93760041D01*
X137859312Y-93772320D01*
X137853250Y-93801941D01*
X137845423Y-93831154D01*
X137844551Y-93844449D01*
X137843611Y-93849045D01*
X137843916Y-93854134D01*
X137842856Y-93870312D01*
X136852833Y-93870312D01*
X136891992Y-93831154D01*
X137070819Y-93741741D01*
X137285713Y-93741741D01*
X137324871Y-93739174D01*
X137400518Y-93718905D01*
X137468341Y-93679747D01*
X137523719Y-93624369D01*
X137562877Y-93556546D01*
X137583146Y-93480899D01*
X137583146Y-93402583D01*
X137562877Y-93326936D01*
X137523719Y-93259113D01*
X137468341Y-93203735D01*
X137400518Y-93164577D01*
X137324871Y-93144308D01*
X137285713Y-93141741D01*
X136999999Y-93141741D01*
X136983821Y-93142801D01*
X136978732Y-93142496D01*
X136974136Y-93143436D01*
X136960841Y-93144308D01*
X136931628Y-93152135D01*
X136902007Y-93158197D01*
X136889728Y-93163361D01*
X136885194Y-93164577D01*
X136880774Y-93167128D01*
X136865835Y-93173413D01*
X136672816Y-93269922D01*
X136666576Y-93259113D01*
X136611198Y-93203735D01*
X136543375Y-93164577D01*
X136467728Y-93144308D01*
X136389412Y-93144308D01*
X136313765Y-93164577D01*
X136245942Y-93203735D01*
X136190564Y-93259113D01*
X136151406Y-93326936D01*
X136131137Y-93402583D01*
X136128570Y-93441741D01*
X135263981Y-93441741D01*
X135268327Y-93433048D01*
X135274611Y-93418108D01*
X135277163Y-93413689D01*
X135278378Y-93409154D01*
X135283543Y-93396876D01*
X135289604Y-93367254D01*
X135297432Y-93338042D01*
X135298303Y-93324746D01*
X135299244Y-93320151D01*
X135298938Y-93315061D01*
X135299999Y-93298884D01*
X135299999Y-93013169D01*
X135298938Y-92996991D01*
X135299244Y-92991902D01*
X135298303Y-92987306D01*
X135297432Y-92974011D01*
X135289604Y-92944798D01*
X135283543Y-92915177D01*
X135278378Y-92902898D01*
X135277163Y-92898364D01*
X135274611Y-92893944D01*
X135268327Y-92879005D01*
X135125470Y-92593291D01*
X135105662Y-92559415D01*
X135099667Y-92552654D01*
X135095148Y-92544827D01*
X135069274Y-92515323D01*
X134995692Y-92441741D01*
X143271428Y-92441741D01*
X143271428Y-95441741D01*
X143273995Y-95480899D01*
X143294264Y-95556546D01*
X143333422Y-95624369D01*
X143388800Y-95679747D01*
X143456623Y-95718905D01*
X143532270Y-95739174D01*
X143610586Y-95739174D01*
X143686233Y-95718905D01*
X143754056Y-95679747D01*
X143809434Y-95624369D01*
X143848592Y-95556546D01*
X143868861Y-95480899D01*
X143871428Y-95441741D01*
X143871428Y-94817930D01*
X144474285Y-95621741D01*
X144499833Y-95651527D01*
X144561437Y-95699883D01*
X144633457Y-95730647D01*
X144710986Y-95741723D01*
X144788739Y-95732355D01*
X144861418Y-95703182D01*
X144924071Y-95656193D01*
X144972427Y-95594589D01*
X145003191Y-95522569D01*
X145014267Y-95445040D01*
X145004899Y-95367287D01*
X144975726Y-95294608D01*
X144954285Y-95261741D01*
X144253255Y-94327034D01*
X144567120Y-94013169D01*
X145557142Y-94013169D01*
X145557142Y-94870312D01*
X145558202Y-94886489D01*
X145557897Y-94891579D01*
X145558837Y-94896174D01*
X145559709Y-94909470D01*
X145567536Y-94938682D01*
X145573598Y-94968304D01*
X145578762Y-94980582D01*
X145579978Y-94985117D01*
X145582529Y-94989536D01*
X145588814Y-95004476D01*
X145731671Y-95290190D01*
X145751479Y-95324066D01*
X145757475Y-95330828D01*
X145761993Y-95338653D01*
X145787866Y-95368157D01*
X145930723Y-95511015D01*
X145960227Y-95536889D01*
X145968054Y-95541408D01*
X145974816Y-95547404D01*
X146008692Y-95567212D01*
X146294407Y-95710069D01*
X146309346Y-95716353D01*
X146313766Y-95718905D01*
X146318300Y-95720120D01*
X146330579Y-95725285D01*
X146360199Y-95731346D01*
X146389413Y-95739174D01*
X146402709Y-95740045D01*
X146407305Y-95740986D01*
X146412394Y-95740680D01*
X146428571Y-95741741D01*
X146857142Y-95741741D01*
X146873319Y-95740680D01*
X146878409Y-95740986D01*
X146883004Y-95740045D01*
X146896300Y-95739174D01*
X146925512Y-95731346D01*
X146955134Y-95725285D01*
X146967412Y-95720120D01*
X146971947Y-95718905D01*
X146976366Y-95716353D01*
X146991306Y-95710069D01*
X147277020Y-95567212D01*
X147310896Y-95547404D01*
X147317656Y-95541409D01*
X147325484Y-95536890D01*
X147354988Y-95511016D01*
X147497846Y-95368158D01*
X147523720Y-95338654D01*
X147528239Y-95330826D01*
X147534234Y-95324066D01*
X147554042Y-95290190D01*
X147696899Y-95004476D01*
X147703183Y-94989536D01*
X147705735Y-94985117D01*
X147706950Y-94980582D01*
X147712115Y-94968304D01*
X147718176Y-94938682D01*
X147726004Y-94909470D01*
X147726875Y-94896174D01*
X147727816Y-94891579D01*
X147727510Y-94886489D01*
X147728571Y-94870312D01*
X147728571Y-94013169D01*
X147727510Y-93996991D01*
X147727816Y-93991902D01*
X147726875Y-93987306D01*
X147726004Y-93974011D01*
X147718176Y-93944798D01*
X147712115Y-93915177D01*
X147706950Y-93902898D01*
X147705735Y-93898364D01*
X147703183Y-93893944D01*
X147696899Y-93879005D01*
X147554042Y-93593291D01*
X147534234Y-93559415D01*
X147528238Y-93552653D01*
X147523719Y-93544826D01*
X147497845Y-93515322D01*
X147424263Y-93441741D01*
X148414285Y-93441741D01*
X148414285Y-95013169D01*
X148415345Y-95029345D01*
X148415040Y-95034435D01*
X148415980Y-95039030D01*
X148416852Y-95052327D01*
X148424679Y-95081540D01*
X148430741Y-95111161D01*
X148435905Y-95123439D01*
X148437121Y-95127974D01*
X148439672Y-95132393D01*
X148445957Y-95147333D01*
X148588814Y-95433048D01*
X148608622Y-95466924D01*
X148620574Y-95480403D01*
X148630506Y-95495445D01*
X148646446Y-95509579D01*
X148660581Y-95525520D01*
X148675622Y-95535451D01*
X148689102Y-95547404D01*
X148722978Y-95567212D01*
X149008693Y-95710069D01*
X149023632Y-95716353D01*
X149028052Y-95718905D01*
X149032586Y-95720120D01*
X149044865Y-95725285D01*
X149074485Y-95731346D01*
X149103699Y-95739174D01*
X149116995Y-95740045D01*
X149121591Y-95740986D01*
X149126680Y-95740680D01*
X149142857Y-95741741D01*
X149571428Y-95741741D01*
X149587605Y-95740680D01*
X149592695Y-95740986D01*
X149597290Y-95740045D01*
X149610586Y-95739174D01*
X149639798Y-95731346D01*
X149669420Y-95725285D01*
X149681698Y-95720120D01*
X149686233Y-95718905D01*
X149690652Y-95716353D01*
X149705592Y-95710069D01*
X149800326Y-95662701D01*
X149817372Y-95679747D01*
X149885195Y-95718905D01*
X149960842Y-95739174D01*
X150039158Y-95739174D01*
X150114805Y-95718905D01*
X150182628Y-95679747D01*
X150238006Y-95624369D01*
X150277164Y-95556546D01*
X150297433Y-95480899D01*
X150300000Y-95441741D01*
X150300000Y-93441741D01*
X150297433Y-93402583D01*
X150702567Y-93402583D01*
X150702567Y-93480899D01*
X150722836Y-93556546D01*
X150761994Y-93624369D01*
X150817372Y-93679747D01*
X150885195Y-93718905D01*
X150960842Y-93739174D01*
X151000000Y-93741741D01*
X151128571Y-93741741D01*
X151128571Y-95013169D01*
X151129631Y-95029345D01*
X151129326Y-95034435D01*
X151130266Y-95039030D01*
X151131138Y-95052327D01*
X151138965Y-95081540D01*
X151145027Y-95111161D01*
X151150191Y-95123439D01*
X151151407Y-95127974D01*
X151153958Y-95132393D01*
X151160243Y-95147333D01*
X151303100Y-95433048D01*
X151322908Y-95466924D01*
X151334860Y-95480403D01*
X151344792Y-95495445D01*
X151360732Y-95509579D01*
X151374867Y-95525520D01*
X151389908Y-95535451D01*
X151403388Y-95547404D01*
X151437264Y-95567212D01*
X151722979Y-95710069D01*
X151737918Y-95716353D01*
X151742338Y-95718905D01*
X151746872Y-95720120D01*
X151759151Y-95725285D01*
X151788771Y-95731346D01*
X151817985Y-95739174D01*
X151831281Y-95740045D01*
X151835877Y-95740986D01*
X151840966Y-95740680D01*
X151857143Y-95741741D01*
X152142857Y-95741741D01*
X152182015Y-95739174D01*
X152257662Y-95718905D01*
X152325485Y-95679747D01*
X152380863Y-95624369D01*
X152420021Y-95556546D01*
X152440290Y-95480899D01*
X152440290Y-95402583D01*
X152420021Y-95326936D01*
X152380863Y-95259113D01*
X152325485Y-95203735D01*
X152257662Y-95164577D01*
X152182015Y-95144308D01*
X152142857Y-95141741D01*
X151927963Y-95141741D01*
X151795034Y-95075277D01*
X151728571Y-94942349D01*
X151728571Y-93741741D01*
X152142857Y-93741741D01*
X152182015Y-93739174D01*
X152257662Y-93718905D01*
X152325485Y-93679747D01*
X152380863Y-93624369D01*
X152420021Y-93556546D01*
X152440290Y-93480899D01*
X152440290Y-93441741D01*
X155128571Y-93441741D01*
X155128571Y-95441741D01*
X155131138Y-95480899D01*
X155151407Y-95556546D01*
X155190565Y-95624369D01*
X155245943Y-95679747D01*
X155313766Y-95718905D01*
X155389413Y-95739174D01*
X155467729Y-95739174D01*
X155543376Y-95718905D01*
X155611199Y-95679747D01*
X155666577Y-95624369D01*
X155705735Y-95556546D01*
X155726004Y-95480899D01*
X155728571Y-95441741D01*
X155728571Y-94083989D01*
X155817983Y-93905163D01*
X155852834Y-93870312D01*
X156842857Y-93870312D01*
X156842857Y-95013169D01*
X156843917Y-95029345D01*
X156843612Y-95034435D01*
X156844552Y-95039030D01*
X156845424Y-95052327D01*
X156853251Y-95081540D01*
X156859313Y-95111161D01*
X156864477Y-95123439D01*
X156865693Y-95127974D01*
X156868244Y-95132393D01*
X156874529Y-95147333D01*
X157017386Y-95433048D01*
X157037194Y-95466924D01*
X157049146Y-95480403D01*
X157059078Y-95495445D01*
X157075018Y-95509579D01*
X157089153Y-95525520D01*
X157104194Y-95535451D01*
X157117674Y-95547404D01*
X157151550Y-95567212D01*
X157437265Y-95710069D01*
X157452204Y-95716353D01*
X157456624Y-95718905D01*
X157461158Y-95720120D01*
X157473437Y-95725285D01*
X157503057Y-95731346D01*
X157532271Y-95739174D01*
X157545567Y-95740045D01*
X157550163Y-95740986D01*
X157555252Y-95740680D01*
X157571429Y-95741741D01*
X158142857Y-95741741D01*
X158159034Y-95740680D01*
X158164124Y-95740986D01*
X158168719Y-95740045D01*
X158182015Y-95739174D01*
X158211227Y-95731346D01*
X158240849Y-95725285D01*
X158253127Y-95720120D01*
X158257662Y-95718905D01*
X158262081Y-95716353D01*
X158277021Y-95710069D01*
X158562735Y-95567212D01*
X158596611Y-95547404D01*
X158655207Y-95495445D01*
X158698358Y-95430089D01*
X158723124Y-95355792D01*
X158727816Y-95277617D01*
X158712115Y-95200892D01*
X158677091Y-95130844D01*
X158625132Y-95072248D01*
X158559776Y-95029097D01*
X158485479Y-95004331D01*
X158407304Y-94999639D01*
X158330579Y-95015340D01*
X158294407Y-95030556D01*
X158072037Y-95141741D01*
X157642249Y-95141741D01*
X157509320Y-95075277D01*
X157442857Y-94942349D01*
X157442857Y-94687681D01*
X158630264Y-94450200D01*
X158668158Y-94440004D01*
X158676858Y-94435702D01*
X158686234Y-94433190D01*
X158711843Y-94418404D01*
X158738361Y-94405293D01*
X158745654Y-94398883D01*
X158754057Y-94394032D01*
X158774967Y-94373121D01*
X158797187Y-94353594D01*
X158802571Y-94345518D01*
X158809435Y-94338654D01*
X158824225Y-94313035D01*
X158840629Y-94288431D01*
X158843738Y-94279239D01*
X158848593Y-94270831D01*
X158856249Y-94242254D01*
X158865725Y-94214245D01*
X158866349Y-94204560D01*
X158868862Y-94195184D01*
X158871429Y-94156026D01*
X158871429Y-93870312D01*
X158870368Y-93854134D01*
X158870674Y-93849044D01*
X158869733Y-93844448D01*
X158868862Y-93831154D01*
X158861035Y-93801944D01*
X158854973Y-93772319D01*
X158849807Y-93760038D01*
X158848593Y-93755507D01*
X158846043Y-93751090D01*
X158839757Y-93736147D01*
X158696899Y-93450433D01*
X158683107Y-93426845D01*
X159271799Y-93426845D01*
X159278154Y-93504902D01*
X159288906Y-93542642D01*
X160003192Y-95542642D01*
X160018780Y-95578655D01*
X160027279Y-95590950D01*
X160033677Y-95604457D01*
X160049452Y-95623028D01*
X160063311Y-95643078D01*
X160074702Y-95652753D01*
X160084378Y-95664145D01*
X160104427Y-95678003D01*
X160122999Y-95693779D01*
X160136504Y-95700176D01*
X160148801Y-95708676D01*
X160171755Y-95716874D01*
X160193777Y-95727305D01*
X160208478Y-95729989D01*
X160222554Y-95735016D01*
X160246842Y-95736993D01*
X160270819Y-95741371D01*
X160285715Y-95740158D01*
X160300611Y-95741371D01*
X160324590Y-95736993D01*
X160348876Y-95735016D01*
X160362946Y-95729990D01*
X160377653Y-95727306D01*
X160399680Y-95716871D01*
X160422629Y-95708676D01*
X160434924Y-95700176D01*
X160448431Y-95693779D01*
X160467002Y-95678003D01*
X160487052Y-95664145D01*
X160496727Y-95652753D01*
X160508119Y-95643078D01*
X160521977Y-95623028D01*
X160537753Y-95604457D01*
X160544150Y-95590950D01*
X160552650Y-95578655D01*
X160568238Y-95542642D01*
X160596679Y-95463008D01*
X161415041Y-95463008D01*
X161430742Y-95539733D01*
X161465766Y-95609781D01*
X161517725Y-95668377D01*
X161583081Y-95711528D01*
X161657378Y-95736294D01*
X161735553Y-95740986D01*
X161812278Y-95725285D01*
X161882326Y-95690261D01*
X161940922Y-95638302D01*
X161984073Y-95572946D01*
X161998891Y-95536609D01*
X162216228Y-94884598D01*
X163212344Y-94884598D01*
X163429681Y-95536610D01*
X163444499Y-95572946D01*
X163487650Y-95638302D01*
X163546246Y-95690262D01*
X163616294Y-95725286D01*
X163693019Y-95740987D01*
X163771194Y-95736294D01*
X163845491Y-95711528D01*
X163910847Y-95668378D01*
X163962806Y-95609782D01*
X163997830Y-95539733D01*
X164013531Y-95463008D01*
X164008839Y-95384833D01*
X163998891Y-95346873D01*
X162998891Y-92346873D01*
X162998044Y-92344797D01*
X162997830Y-92343749D01*
X162996675Y-92341439D01*
X162984073Y-92310536D01*
X162972333Y-92292756D01*
X162962806Y-92273700D01*
X162950849Y-92260216D01*
X162940922Y-92245180D01*
X162924985Y-92231048D01*
X162910847Y-92215104D01*
X162895802Y-92205171D01*
X162882326Y-92193221D01*
X162863274Y-92183695D01*
X162845491Y-92171954D01*
X162828393Y-92166254D01*
X162812278Y-92158197D01*
X162791408Y-92153926D01*
X162771194Y-92147188D01*
X162753203Y-92146107D01*
X162735553Y-92142496D01*
X162714292Y-92143772D01*
X162693019Y-92142495D01*
X162675360Y-92146108D01*
X162657378Y-92147188D01*
X162637171Y-92153923D01*
X162616294Y-92158196D01*
X162600172Y-92166256D01*
X162583081Y-92171954D01*
X162565305Y-92183690D01*
X162546246Y-92193220D01*
X162532762Y-92205176D01*
X162517725Y-92215105D01*
X162503591Y-92231043D01*
X162487650Y-92245180D01*
X162477719Y-92260220D01*
X162465766Y-92273701D01*
X162456239Y-92292753D01*
X162444499Y-92310536D01*
X162431894Y-92341443D01*
X162430742Y-92343749D01*
X162430527Y-92344795D01*
X162429681Y-92346872D01*
X161429681Y-95346873D01*
X161419733Y-95384833D01*
X161415041Y-95463008D01*
X160596679Y-95463008D01*
X161282523Y-93542642D01*
X161293275Y-93504902D01*
X161299630Y-93426844D01*
X161285565Y-93349802D01*
X161252039Y-93279025D01*
X161201337Y-93219337D01*
X161136914Y-93174806D01*
X161063161Y-93148465D01*
X160985104Y-93142111D01*
X160908062Y-93156176D01*
X160837284Y-93189702D01*
X160777596Y-93240404D01*
X160733065Y-93304827D01*
X160717477Y-93340840D01*
X160285714Y-94549776D01*
X159853952Y-93340840D01*
X159838364Y-93304827D01*
X159793833Y-93240404D01*
X159734145Y-93189702D01*
X159663367Y-93156176D01*
X159586325Y-93142111D01*
X159508268Y-93148466D01*
X159434515Y-93174806D01*
X159370092Y-93219337D01*
X159319390Y-93279025D01*
X159285864Y-93349803D01*
X159271799Y-93426845D01*
X158683107Y-93426845D01*
X158677091Y-93416557D01*
X158665135Y-93403074D01*
X158655207Y-93388037D01*
X158639267Y-93373902D01*
X158625131Y-93357961D01*
X158610090Y-93348030D01*
X158596611Y-93336078D01*
X158562735Y-93316270D01*
X158277021Y-93173413D01*
X158262081Y-93167128D01*
X158257662Y-93164577D01*
X158253127Y-93163361D01*
X158240849Y-93158197D01*
X158211227Y-93152135D01*
X158182015Y-93144308D01*
X158168719Y-93143436D01*
X158164124Y-93142496D01*
X158159034Y-93142801D01*
X158142857Y-93141741D01*
X157571429Y-93141741D01*
X157555252Y-93142801D01*
X157550163Y-93142496D01*
X157545567Y-93143436D01*
X157532271Y-93144308D01*
X157503057Y-93152135D01*
X157473437Y-93158197D01*
X157461158Y-93163361D01*
X157456624Y-93164577D01*
X157452204Y-93167128D01*
X157437265Y-93173413D01*
X157151550Y-93316270D01*
X157117674Y-93336078D01*
X157104193Y-93348031D01*
X157089153Y-93357962D01*
X157075018Y-93373902D01*
X157059078Y-93388037D01*
X157049146Y-93403078D01*
X157037194Y-93416558D01*
X157017386Y-93450434D01*
X156874529Y-93736148D01*
X156868244Y-93751087D01*
X156865693Y-93755507D01*
X156864477Y-93760041D01*
X156859313Y-93772320D01*
X156853251Y-93801941D01*
X156845424Y-93831154D01*
X156844552Y-93844449D01*
X156843612Y-93849045D01*
X156843917Y-93854134D01*
X156842857Y-93870312D01*
X155852834Y-93870312D01*
X155891993Y-93831154D01*
X156070820Y-93741741D01*
X156285714Y-93741741D01*
X156324872Y-93739174D01*
X156400519Y-93718905D01*
X156468342Y-93679747D01*
X156523720Y-93624369D01*
X156562878Y-93556546D01*
X156583147Y-93480899D01*
X156583147Y-93402583D01*
X156562878Y-93326936D01*
X156523720Y-93259113D01*
X156468342Y-93203735D01*
X156400519Y-93164577D01*
X156324872Y-93144308D01*
X156285714Y-93141741D01*
X156000000Y-93141741D01*
X155983822Y-93142801D01*
X155978733Y-93142496D01*
X155974137Y-93143436D01*
X155960842Y-93144308D01*
X155931629Y-93152135D01*
X155902008Y-93158197D01*
X155889729Y-93163361D01*
X155885195Y-93164577D01*
X155880775Y-93167128D01*
X155865836Y-93173413D01*
X155672817Y-93269922D01*
X155666577Y-93259113D01*
X155611199Y-93203735D01*
X155543376Y-93164577D01*
X155467729Y-93144308D01*
X155389413Y-93144308D01*
X155313766Y-93164577D01*
X155245943Y-93203735D01*
X155190565Y-93259113D01*
X155151407Y-93326936D01*
X155131138Y-93402583D01*
X155128571Y-93441741D01*
X152440290Y-93441741D01*
X152440290Y-93402583D01*
X152420021Y-93326936D01*
X152380863Y-93259113D01*
X152325485Y-93203735D01*
X152257662Y-93164577D01*
X152182015Y-93144308D01*
X152142857Y-93141741D01*
X151728571Y-93141741D01*
X151728571Y-92441741D01*
X151726004Y-92402583D01*
X151705735Y-92326936D01*
X151666577Y-92259113D01*
X151611199Y-92203735D01*
X151543376Y-92164577D01*
X151467729Y-92144308D01*
X151389413Y-92144308D01*
X151313766Y-92164577D01*
X151245943Y-92203735D01*
X151190565Y-92259113D01*
X151151407Y-92326936D01*
X151131138Y-92402583D01*
X151128571Y-92441741D01*
X151128571Y-93141741D01*
X151000000Y-93141741D01*
X150960842Y-93144308D01*
X150885195Y-93164577D01*
X150817372Y-93203735D01*
X150761994Y-93259113D01*
X150722836Y-93326936D01*
X150702567Y-93402583D01*
X150297433Y-93402583D01*
X150277164Y-93326936D01*
X150238006Y-93259113D01*
X150182628Y-93203735D01*
X150114805Y-93164577D01*
X150039158Y-93144308D01*
X149960842Y-93144308D01*
X149885195Y-93164577D01*
X149817372Y-93203735D01*
X149761994Y-93259113D01*
X149722836Y-93326936D01*
X149702567Y-93402583D01*
X149700000Y-93441741D01*
X149700000Y-95031762D01*
X149679434Y-95052328D01*
X149500608Y-95141741D01*
X149213677Y-95141741D01*
X149080748Y-95075277D01*
X149014285Y-94942349D01*
X149014285Y-93441741D01*
X149011718Y-93402583D01*
X148991449Y-93326936D01*
X148952291Y-93259113D01*
X148896913Y-93203735D01*
X148829090Y-93164577D01*
X148753443Y-93144308D01*
X148675127Y-93144308D01*
X148599480Y-93164577D01*
X148531657Y-93203735D01*
X148476279Y-93259113D01*
X148437121Y-93326936D01*
X148416852Y-93402583D01*
X148414285Y-93441741D01*
X147424263Y-93441741D01*
X147354987Y-93372465D01*
X147325483Y-93346592D01*
X147317658Y-93342074D01*
X147310896Y-93336078D01*
X147277020Y-93316270D01*
X146991306Y-93173413D01*
X146976366Y-93167128D01*
X146971947Y-93164577D01*
X146967412Y-93163361D01*
X146955134Y-93158197D01*
X146925512Y-93152135D01*
X146896300Y-93144308D01*
X146883004Y-93143436D01*
X146878409Y-93142496D01*
X146873319Y-93142801D01*
X146857142Y-93141741D01*
X146428571Y-93141741D01*
X146412394Y-93142801D01*
X146407305Y-93142496D01*
X146402709Y-93143436D01*
X146389413Y-93144308D01*
X146360199Y-93152135D01*
X146330579Y-93158197D01*
X146318300Y-93163361D01*
X146313766Y-93164577D01*
X146309346Y-93167128D01*
X146294407Y-93173413D01*
X146008692Y-93316270D01*
X145974816Y-93336078D01*
X145968055Y-93342072D01*
X145960228Y-93346592D01*
X145930724Y-93372466D01*
X145787867Y-93515323D01*
X145761993Y-93544827D01*
X145757473Y-93552654D01*
X145751479Y-93559415D01*
X145731671Y-93593291D01*
X145588814Y-93879005D01*
X145582529Y-93893944D01*
X145579978Y-93898364D01*
X145578762Y-93902898D01*
X145573598Y-93915177D01*
X145567536Y-93944798D01*
X145559709Y-93974011D01*
X145558837Y-93987306D01*
X145557897Y-93991902D01*
X145558202Y-93996991D01*
X145557142Y-94013169D01*
X144567120Y-94013169D01*
X144926417Y-93653873D01*
X144952291Y-93624369D01*
X144991449Y-93556546D01*
X145011718Y-93480899D01*
X145011718Y-93402583D01*
X144991449Y-93326936D01*
X144952291Y-93259113D01*
X144896913Y-93203735D01*
X144829090Y-93164577D01*
X144753443Y-93144308D01*
X144675127Y-93144308D01*
X144599480Y-93164577D01*
X144531657Y-93203735D01*
X144502153Y-93229609D01*
X143871428Y-93860334D01*
X143871428Y-92441741D01*
X143868861Y-92402583D01*
X143848592Y-92326936D01*
X143809434Y-92259113D01*
X143754056Y-92203735D01*
X143686233Y-92164577D01*
X143610586Y-92144308D01*
X143532270Y-92144308D01*
X143456623Y-92164577D01*
X143388800Y-92203735D01*
X143333422Y-92259113D01*
X143294264Y-92326936D01*
X143273995Y-92402583D01*
X143271428Y-92441741D01*
X134995692Y-92441741D01*
X134926417Y-92372466D01*
X134896913Y-92346592D01*
X134889085Y-92342072D01*
X134882325Y-92336078D01*
X134848449Y-92316270D01*
X134562734Y-92173413D01*
X134547794Y-92167128D01*
X134543375Y-92164577D01*
X134538840Y-92163361D01*
X134526562Y-92158197D01*
X134496941Y-92152135D01*
X134467728Y-92144308D01*
X134454431Y-92143436D01*
X134449836Y-92142496D01*
X134444746Y-92142801D01*
X134428570Y-92141741D01*
X133428570Y-92141741D01*
X133389412Y-92144308D01*
X133313765Y-92164577D01*
X133245942Y-92203735D01*
X133190564Y-92259113D01*
X133151406Y-92326936D01*
X133131137Y-92402583D01*
X133128570Y-92441741D01*
X129852835Y-92441741D01*
X129783560Y-92372466D01*
X129754056Y-92346592D01*
X129746228Y-92342072D01*
X129739468Y-92336078D01*
X129705592Y-92316270D01*
X129419877Y-92173413D01*
X129404937Y-92167128D01*
X129400518Y-92164577D01*
X129395983Y-92163361D01*
X129383705Y-92158197D01*
X129354084Y-92152135D01*
X129324871Y-92144308D01*
X129311574Y-92143436D01*
X129306979Y-92142496D01*
X129301889Y-92142801D01*
X129285713Y-92141741D01*
X128142856Y-92141741D01*
X128103698Y-92144308D01*
X128028051Y-92164577D01*
X127960228Y-92203735D01*
X127904850Y-92259113D01*
X127865692Y-92326936D01*
X127845423Y-92402583D01*
X127842856Y-92441741D01*
X127297550Y-92441741D01*
X127296218Y-92394255D01*
X127273834Y-92319206D01*
X127232789Y-92252508D01*
X127175880Y-92198705D01*
X127106985Y-92161466D01*
X127030798Y-92143326D01*
X126952514Y-92145523D01*
X126877465Y-92167907D01*
X126810767Y-92208952D01*
X126756964Y-92265861D01*
X126719725Y-92334756D01*
X126708158Y-92372255D01*
X126269247Y-94215679D01*
X126004155Y-93221585D01*
X125991586Y-93184411D01*
X125991404Y-93184096D01*
X125991311Y-93183748D01*
X125971972Y-93150345D01*
X125952510Y-93116541D01*
X125952252Y-93116283D01*
X125952072Y-93115971D01*
X125924602Y-93088566D01*
X125897198Y-93061097D01*
X125896885Y-93060916D01*
X125896628Y-93060659D01*
X125862823Y-93041196D01*
X125829421Y-93021858D01*
X125829072Y-93021764D01*
X125828758Y-93021583D01*
X125791402Y-93011621D01*
X125753799Y-93001497D01*
X125753433Y-93001496D01*
X125753086Y-93001404D01*
X125714284Y-93001450D01*
X125675483Y-93001404D01*
X125675135Y-93001496D01*
X125674771Y-93001497D01*
X125637218Y-93011607D01*
X125599812Y-93021583D01*
X125599497Y-93021764D01*
X125599149Y-93021858D01*
X125565746Y-93041196D01*
X125531942Y-93060659D01*
X125531684Y-93060916D01*
X125531372Y-93061097D01*
X125503967Y-93088566D01*
X125476498Y-93115971D01*
X125476317Y-93116283D01*
X125476060Y-93116541D01*
X125456597Y-93150345D01*
X125437259Y-93183748D01*
X125437165Y-93184096D01*
X125436984Y-93184411D01*
X125424415Y-93221585D01*
X125159323Y-94215678D01*
X124720413Y-92372255D01*
X124708846Y-92334756D01*
X124671607Y-92265861D01*
X124617804Y-92208952D01*
X124551106Y-92167907D01*
X124476057Y-92145523D01*
X124397773Y-92143327D01*
X124321586Y-92161466D01*
X124252691Y-92198705D01*
X124195782Y-92252508D01*
X124154737Y-92319206D01*
X124132353Y-92394255D01*
X124130157Y-92472539D01*
X123455062Y-92472539D01*
X123354989Y-92372466D01*
X123325485Y-92346592D01*
X123317657Y-92342072D01*
X123310897Y-92336078D01*
X123277021Y-92316270D01*
X122991306Y-92173413D01*
X122976366Y-92167128D01*
X122971947Y-92164577D01*
X122967412Y-92163361D01*
X122955134Y-92158197D01*
X122925513Y-92152135D01*
X122896300Y-92144308D01*
X122883003Y-92143436D01*
X122878408Y-92142496D01*
X122873318Y-92142801D01*
X122857142Y-92141741D01*
X121714285Y-92141741D01*
X121675127Y-92144308D01*
X121599480Y-92164577D01*
X121531657Y-92203735D01*
X121476279Y-92259113D01*
X121437121Y-92326936D01*
X121416852Y-92402583D01*
X121414285Y-92441741D01*
X121080952Y-92441741D01*
X121080952Y-91808408D01*
X164346864Y-91808408D01*
X164346864Y-101618528D01*
G37*
D10*
X204760652Y-82527466D02*
X203236843Y-82527466D01*
X203998747Y-81765561D02*
X203998747Y-83289371D01*
X197713032Y-82527466D02*
X196189223Y-82527466D01*
X159260652Y-82527466D02*
X157736843Y-82527466D01*
X158498747Y-81765561D02*
X158498747Y-83289371D01*
X152213032Y-82527466D02*
X150689223Y-82527466D01*
X113760652Y-82527466D02*
X112236843Y-82527466D01*
X112998747Y-81765561D02*
X112998747Y-83289371D01*
X106713032Y-82527466D02*
X105189223Y-82527466D01*
X147760652Y-82527466D02*
X146236843Y-82527466D01*
X146998747Y-81765561D02*
X146998747Y-83289371D01*
X140713032Y-82527466D02*
X139189223Y-82527466D01*
X181760652Y-82527466D02*
X180236843Y-82527466D01*
X180998747Y-81765561D02*
X180998747Y-83289371D01*
X174713032Y-82527466D02*
X173189223Y-82527466D01*
X150239347Y-110472533D02*
X151763157Y-110472533D01*
X151001252Y-111234438D02*
X151001252Y-109710628D01*
X157286967Y-110472533D02*
X158810777Y-110472533D01*
X206239347Y-110472533D02*
X207763157Y-110472533D01*
X207001252Y-111234438D02*
X207001252Y-109710628D01*
X213286967Y-110472533D02*
X214810777Y-110472533D01*
X215972533Y-106760652D02*
X215972533Y-105236843D01*
X216734438Y-105998747D02*
X215210628Y-105998747D01*
X215972533Y-99713032D02*
X215972533Y-98189223D01*
X193260652Y-82527466D02*
X191736843Y-82527466D01*
X192498747Y-81765561D02*
X192498747Y-83289371D01*
X186213032Y-82527466D02*
X184689223Y-82527466D01*
X138739347Y-110472533D02*
X140263157Y-110472533D01*
X139501252Y-111234438D02*
X139501252Y-109710628D01*
X145786967Y-110472533D02*
X147310777Y-110472533D01*
X215972533Y-94760652D02*
X215972533Y-93236843D01*
X216734438Y-93998747D02*
X215210628Y-93998747D01*
X215972533Y-87713032D02*
X215972533Y-86189223D01*
X102260652Y-82527466D02*
X100736843Y-82527466D01*
X101498747Y-81765561D02*
X101498747Y-83289371D01*
X95213032Y-82527466D02*
X93689223Y-82527466D01*
X81739347Y-110472533D02*
X83263157Y-110472533D01*
X82501252Y-111234438D02*
X82501252Y-109710628D01*
X88786967Y-110472533D02*
X90310777Y-110472533D01*
X136260652Y-82527466D02*
X134736843Y-82527466D01*
X135498747Y-81765561D02*
X135498747Y-83289371D01*
X129213032Y-82527466D02*
X127689223Y-82527466D01*
X93239347Y-110472533D02*
X94763157Y-110472533D01*
X94001252Y-111234438D02*
X94001252Y-109710628D01*
X100286967Y-110472533D02*
X101810777Y-110472533D01*
X172739347Y-110472533D02*
X174263157Y-110472533D01*
X173501252Y-111234438D02*
X173501252Y-109710628D01*
X179786967Y-110472533D02*
X181310777Y-110472533D01*
X214760652Y-82527466D02*
X213236843Y-82527466D01*
X213998747Y-81765561D02*
X213998747Y-83289371D01*
X207713032Y-82527466D02*
X206189223Y-82527466D01*
X104739347Y-110472533D02*
X106263157Y-110472533D01*
X105501252Y-111234438D02*
X105501252Y-109710628D01*
X111786967Y-110472533D02*
X113310777Y-110472533D01*
X170760652Y-82527466D02*
X169236843Y-82527466D01*
X169998747Y-81765561D02*
X169998747Y-83289371D01*
X163713032Y-82527466D02*
X162189223Y-82527466D01*
D12*
X67666666Y-92954819D02*
X67666666Y-93669104D01*
X67666666Y-93669104D02*
X67619047Y-93811961D01*
X67619047Y-93811961D02*
X67523809Y-93907200D01*
X67523809Y-93907200D02*
X67380952Y-93954819D01*
X67380952Y-93954819D02*
X67285714Y-93954819D01*
X68666666Y-93954819D02*
X68095238Y-93954819D01*
X68380952Y-93954819D02*
X68380952Y-92954819D01*
X68380952Y-92954819D02*
X68285714Y-93097676D01*
X68285714Y-93097676D02*
X68190476Y-93192914D01*
X68190476Y-93192914D02*
X68095238Y-93240533D01*
X96857143Y-109954819D02*
X96857143Y-110669104D01*
X96857143Y-110669104D02*
X96809524Y-110811961D01*
X96809524Y-110811961D02*
X96714286Y-110907200D01*
X96714286Y-110907200D02*
X96571429Y-110954819D01*
X96571429Y-110954819D02*
X96476191Y-110954819D01*
X97238096Y-109954819D02*
X97857143Y-109954819D01*
X97857143Y-109954819D02*
X97523810Y-110335771D01*
X97523810Y-110335771D02*
X97666667Y-110335771D01*
X97666667Y-110335771D02*
X97761905Y-110383390D01*
X97761905Y-110383390D02*
X97809524Y-110431009D01*
X97809524Y-110431009D02*
X97857143Y-110526247D01*
X97857143Y-110526247D02*
X97857143Y-110764342D01*
X97857143Y-110764342D02*
X97809524Y-110859580D01*
X97809524Y-110859580D02*
X97761905Y-110907200D01*
X97761905Y-110907200D02*
X97666667Y-110954819D01*
X97666667Y-110954819D02*
X97380953Y-110954819D01*
X97380953Y-110954819D02*
X97285715Y-110907200D01*
X97285715Y-110907200D02*
X97238096Y-110859580D01*
X98809524Y-110954819D02*
X98238096Y-110954819D01*
X98523810Y-110954819D02*
X98523810Y-109954819D01*
X98523810Y-109954819D02*
X98428572Y-110097676D01*
X98428572Y-110097676D02*
X98333334Y-110192914D01*
X98333334Y-110192914D02*
X98238096Y-110240533D01*
X131293333Y-81954819D02*
X131293333Y-82669104D01*
X131293333Y-82669104D02*
X131245714Y-82811961D01*
X131245714Y-82811961D02*
X131150476Y-82907200D01*
X131150476Y-82907200D02*
X131007619Y-82954819D01*
X131007619Y-82954819D02*
X130912381Y-82954819D01*
X131817143Y-82954819D02*
X132007619Y-82954819D01*
X132007619Y-82954819D02*
X132102857Y-82907200D01*
X132102857Y-82907200D02*
X132150476Y-82859580D01*
X132150476Y-82859580D02*
X132245714Y-82716723D01*
X132245714Y-82716723D02*
X132293333Y-82526247D01*
X132293333Y-82526247D02*
X132293333Y-82145295D01*
X132293333Y-82145295D02*
X132245714Y-82050057D01*
X132245714Y-82050057D02*
X132198095Y-82002438D01*
X132198095Y-82002438D02*
X132102857Y-81954819D01*
X132102857Y-81954819D02*
X131912381Y-81954819D01*
X131912381Y-81954819D02*
X131817143Y-82002438D01*
X131817143Y-82002438D02*
X131769524Y-82050057D01*
X131769524Y-82050057D02*
X131721905Y-82145295D01*
X131721905Y-82145295D02*
X131721905Y-82383390D01*
X131721905Y-82383390D02*
X131769524Y-82478628D01*
X131769524Y-82478628D02*
X131817143Y-82526247D01*
X131817143Y-82526247D02*
X131912381Y-82573866D01*
X131912381Y-82573866D02*
X132102857Y-82573866D01*
X132102857Y-82573866D02*
X132198095Y-82526247D01*
X132198095Y-82526247D02*
X132245714Y-82478628D01*
X132245714Y-82478628D02*
X132293333Y-82383390D01*
X210190476Y-109954819D02*
X210190476Y-110669104D01*
X210190476Y-110669104D02*
X210142857Y-110811961D01*
X210142857Y-110811961D02*
X210047619Y-110907200D01*
X210047619Y-110907200D02*
X209904762Y-110954819D01*
X209904762Y-110954819D02*
X209809524Y-110954819D01*
X210619048Y-110050057D02*
X210666667Y-110002438D01*
X210666667Y-110002438D02*
X210761905Y-109954819D01*
X210761905Y-109954819D02*
X211000000Y-109954819D01*
X211000000Y-109954819D02*
X211095238Y-110002438D01*
X211095238Y-110002438D02*
X211142857Y-110050057D01*
X211142857Y-110050057D02*
X211190476Y-110145295D01*
X211190476Y-110145295D02*
X211190476Y-110240533D01*
X211190476Y-110240533D02*
X211142857Y-110383390D01*
X211142857Y-110383390D02*
X210571429Y-110954819D01*
X210571429Y-110954819D02*
X211190476Y-110954819D01*
X212142857Y-110954819D02*
X211571429Y-110954819D01*
X211857143Y-110954819D02*
X211857143Y-109954819D01*
X211857143Y-109954819D02*
X211761905Y-110097676D01*
X211761905Y-110097676D02*
X211666667Y-110192914D01*
X211666667Y-110192914D02*
X211571429Y-110240533D01*
X176190476Y-109954819D02*
X176190476Y-110669104D01*
X176190476Y-110669104D02*
X176142857Y-110811961D01*
X176142857Y-110811961D02*
X176047619Y-110907200D01*
X176047619Y-110907200D02*
X175904762Y-110954819D01*
X175904762Y-110954819D02*
X175809524Y-110954819D01*
X176619048Y-110050057D02*
X176666667Y-110002438D01*
X176666667Y-110002438D02*
X176761905Y-109954819D01*
X176761905Y-109954819D02*
X177000000Y-109954819D01*
X177000000Y-109954819D02*
X177095238Y-110002438D01*
X177095238Y-110002438D02*
X177142857Y-110050057D01*
X177142857Y-110050057D02*
X177190476Y-110145295D01*
X177190476Y-110145295D02*
X177190476Y-110240533D01*
X177190476Y-110240533D02*
X177142857Y-110383390D01*
X177142857Y-110383390D02*
X176571429Y-110954819D01*
X176571429Y-110954819D02*
X177190476Y-110954819D01*
X178047619Y-110288152D02*
X178047619Y-110954819D01*
X177809524Y-109907200D02*
X177571429Y-110621485D01*
X177571429Y-110621485D02*
X178190476Y-110621485D01*
X108190476Y-109954819D02*
X108190476Y-110669104D01*
X108190476Y-110669104D02*
X108142857Y-110811961D01*
X108142857Y-110811961D02*
X108047619Y-110907200D01*
X108047619Y-110907200D02*
X107904762Y-110954819D01*
X107904762Y-110954819D02*
X107809524Y-110954819D01*
X108571429Y-109954819D02*
X109190476Y-109954819D01*
X109190476Y-109954819D02*
X108857143Y-110335771D01*
X108857143Y-110335771D02*
X109000000Y-110335771D01*
X109000000Y-110335771D02*
X109095238Y-110383390D01*
X109095238Y-110383390D02*
X109142857Y-110431009D01*
X109142857Y-110431009D02*
X109190476Y-110526247D01*
X109190476Y-110526247D02*
X109190476Y-110764342D01*
X109190476Y-110764342D02*
X109142857Y-110859580D01*
X109142857Y-110859580D02*
X109095238Y-110907200D01*
X109095238Y-110907200D02*
X109000000Y-110954819D01*
X109000000Y-110954819D02*
X108714286Y-110954819D01*
X108714286Y-110954819D02*
X108619048Y-110907200D01*
X108619048Y-110907200D02*
X108571429Y-110859580D01*
X109809524Y-109954819D02*
X109904762Y-109954819D01*
X109904762Y-109954819D02*
X110000000Y-110002438D01*
X110000000Y-110002438D02*
X110047619Y-110050057D01*
X110047619Y-110050057D02*
X110095238Y-110145295D01*
X110095238Y-110145295D02*
X110142857Y-110335771D01*
X110142857Y-110335771D02*
X110142857Y-110573866D01*
X110142857Y-110573866D02*
X110095238Y-110764342D01*
X110095238Y-110764342D02*
X110047619Y-110859580D01*
X110047619Y-110859580D02*
X110000000Y-110907200D01*
X110000000Y-110907200D02*
X109904762Y-110954819D01*
X109904762Y-110954819D02*
X109809524Y-110954819D01*
X109809524Y-110954819D02*
X109714286Y-110907200D01*
X109714286Y-110907200D02*
X109666667Y-110859580D01*
X109666667Y-110859580D02*
X109619048Y-110764342D01*
X109619048Y-110764342D02*
X109571429Y-110573866D01*
X109571429Y-110573866D02*
X109571429Y-110335771D01*
X109571429Y-110335771D02*
X109619048Y-110145295D01*
X109619048Y-110145295D02*
X109666667Y-110050057D01*
X109666667Y-110050057D02*
X109714286Y-110002438D01*
X109714286Y-110002438D02*
X109809524Y-109954819D01*
X119523810Y-109954819D02*
X119523810Y-110669104D01*
X119523810Y-110669104D02*
X119476191Y-110811961D01*
X119476191Y-110811961D02*
X119380953Y-110907200D01*
X119380953Y-110907200D02*
X119238096Y-110954819D01*
X119238096Y-110954819D02*
X119142858Y-110954819D01*
X119952382Y-110050057D02*
X120000001Y-110002438D01*
X120000001Y-110002438D02*
X120095239Y-109954819D01*
X120095239Y-109954819D02*
X120333334Y-109954819D01*
X120333334Y-109954819D02*
X120428572Y-110002438D01*
X120428572Y-110002438D02*
X120476191Y-110050057D01*
X120476191Y-110050057D02*
X120523810Y-110145295D01*
X120523810Y-110145295D02*
X120523810Y-110240533D01*
X120523810Y-110240533D02*
X120476191Y-110383390D01*
X120476191Y-110383390D02*
X119904763Y-110954819D01*
X119904763Y-110954819D02*
X120523810Y-110954819D01*
X121000001Y-110954819D02*
X121190477Y-110954819D01*
X121190477Y-110954819D02*
X121285715Y-110907200D01*
X121285715Y-110907200D02*
X121333334Y-110859580D01*
X121333334Y-110859580D02*
X121428572Y-110716723D01*
X121428572Y-110716723D02*
X121476191Y-110526247D01*
X121476191Y-110526247D02*
X121476191Y-110145295D01*
X121476191Y-110145295D02*
X121428572Y-110050057D01*
X121428572Y-110050057D02*
X121380953Y-110002438D01*
X121380953Y-110002438D02*
X121285715Y-109954819D01*
X121285715Y-109954819D02*
X121095239Y-109954819D01*
X121095239Y-109954819D02*
X121000001Y-110002438D01*
X121000001Y-110002438D02*
X120952382Y-110050057D01*
X120952382Y-110050057D02*
X120904763Y-110145295D01*
X120904763Y-110145295D02*
X120904763Y-110383390D01*
X120904763Y-110383390D02*
X120952382Y-110478628D01*
X120952382Y-110478628D02*
X121000001Y-110526247D01*
X121000001Y-110526247D02*
X121095239Y-110573866D01*
X121095239Y-110573866D02*
X121285715Y-110573866D01*
X121285715Y-110573866D02*
X121380953Y-110526247D01*
X121380953Y-110526247D02*
X121428572Y-110478628D01*
X121428572Y-110478628D02*
X121476191Y-110383390D01*
X85523810Y-109954819D02*
X85523810Y-110669104D01*
X85523810Y-110669104D02*
X85476191Y-110811961D01*
X85476191Y-110811961D02*
X85380953Y-110907200D01*
X85380953Y-110907200D02*
X85238096Y-110954819D01*
X85238096Y-110954819D02*
X85142858Y-110954819D01*
X85904763Y-109954819D02*
X86523810Y-109954819D01*
X86523810Y-109954819D02*
X86190477Y-110335771D01*
X86190477Y-110335771D02*
X86333334Y-110335771D01*
X86333334Y-110335771D02*
X86428572Y-110383390D01*
X86428572Y-110383390D02*
X86476191Y-110431009D01*
X86476191Y-110431009D02*
X86523810Y-110526247D01*
X86523810Y-110526247D02*
X86523810Y-110764342D01*
X86523810Y-110764342D02*
X86476191Y-110859580D01*
X86476191Y-110859580D02*
X86428572Y-110907200D01*
X86428572Y-110907200D02*
X86333334Y-110954819D01*
X86333334Y-110954819D02*
X86047620Y-110954819D01*
X86047620Y-110954819D02*
X85952382Y-110907200D01*
X85952382Y-110907200D02*
X85904763Y-110859580D01*
X86904763Y-110050057D02*
X86952382Y-110002438D01*
X86952382Y-110002438D02*
X87047620Y-109954819D01*
X87047620Y-109954819D02*
X87285715Y-109954819D01*
X87285715Y-109954819D02*
X87380953Y-110002438D01*
X87380953Y-110002438D02*
X87428572Y-110050057D01*
X87428572Y-110050057D02*
X87476191Y-110145295D01*
X87476191Y-110145295D02*
X87476191Y-110240533D01*
X87476191Y-110240533D02*
X87428572Y-110383390D01*
X87428572Y-110383390D02*
X86857144Y-110954819D01*
X86857144Y-110954819D02*
X87476191Y-110954819D01*
X153483810Y-81954819D02*
X153483810Y-82669104D01*
X153483810Y-82669104D02*
X153436191Y-82811961D01*
X153436191Y-82811961D02*
X153340953Y-82907200D01*
X153340953Y-82907200D02*
X153198096Y-82954819D01*
X153198096Y-82954819D02*
X153102858Y-82954819D01*
X154483810Y-82954819D02*
X153912382Y-82954819D01*
X154198096Y-82954819D02*
X154198096Y-81954819D01*
X154198096Y-81954819D02*
X154102858Y-82097676D01*
X154102858Y-82097676D02*
X154007620Y-82192914D01*
X154007620Y-82192914D02*
X153912382Y-82240533D01*
X155436191Y-82954819D02*
X154864763Y-82954819D01*
X155150477Y-82954819D02*
X155150477Y-81954819D01*
X155150477Y-81954819D02*
X155055239Y-82097676D01*
X155055239Y-82097676D02*
X154960001Y-82192914D01*
X154960001Y-82192914D02*
X154864763Y-82240533D01*
X108626666Y-81954819D02*
X108626666Y-82669104D01*
X108626666Y-82669104D02*
X108579047Y-82811961D01*
X108579047Y-82811961D02*
X108483809Y-82907200D01*
X108483809Y-82907200D02*
X108340952Y-82954819D01*
X108340952Y-82954819D02*
X108245714Y-82954819D01*
X109007619Y-81954819D02*
X109674285Y-81954819D01*
X109674285Y-81954819D02*
X109245714Y-82954819D01*
X215454819Y-91489523D02*
X216169104Y-91489523D01*
X216169104Y-91489523D02*
X216311961Y-91537142D01*
X216311961Y-91537142D02*
X216407200Y-91632380D01*
X216407200Y-91632380D02*
X216454819Y-91775237D01*
X216454819Y-91775237D02*
X216454819Y-91870475D01*
X216454819Y-90489523D02*
X216454819Y-91060951D01*
X216454819Y-90775237D02*
X215454819Y-90775237D01*
X215454819Y-90775237D02*
X215597676Y-90870475D01*
X215597676Y-90870475D02*
X215692914Y-90965713D01*
X215692914Y-90965713D02*
X215740533Y-91060951D01*
X215883390Y-89918094D02*
X215835771Y-90013332D01*
X215835771Y-90013332D02*
X215788152Y-90060951D01*
X215788152Y-90060951D02*
X215692914Y-90108570D01*
X215692914Y-90108570D02*
X215645295Y-90108570D01*
X215645295Y-90108570D02*
X215550057Y-90060951D01*
X215550057Y-90060951D02*
X215502438Y-90013332D01*
X215502438Y-90013332D02*
X215454819Y-89918094D01*
X215454819Y-89918094D02*
X215454819Y-89727618D01*
X215454819Y-89727618D02*
X215502438Y-89632380D01*
X215502438Y-89632380D02*
X215550057Y-89584761D01*
X215550057Y-89584761D02*
X215645295Y-89537142D01*
X215645295Y-89537142D02*
X215692914Y-89537142D01*
X215692914Y-89537142D02*
X215788152Y-89584761D01*
X215788152Y-89584761D02*
X215835771Y-89632380D01*
X215835771Y-89632380D02*
X215883390Y-89727618D01*
X215883390Y-89727618D02*
X215883390Y-89918094D01*
X215883390Y-89918094D02*
X215931009Y-90013332D01*
X215931009Y-90013332D02*
X215978628Y-90060951D01*
X215978628Y-90060951D02*
X216073866Y-90108570D01*
X216073866Y-90108570D02*
X216264342Y-90108570D01*
X216264342Y-90108570D02*
X216359580Y-90060951D01*
X216359580Y-90060951D02*
X216407200Y-90013332D01*
X216407200Y-90013332D02*
X216454819Y-89918094D01*
X216454819Y-89918094D02*
X216454819Y-89727618D01*
X216454819Y-89727618D02*
X216407200Y-89632380D01*
X216407200Y-89632380D02*
X216359580Y-89584761D01*
X216359580Y-89584761D02*
X216264342Y-89537142D01*
X216264342Y-89537142D02*
X216073866Y-89537142D01*
X216073866Y-89537142D02*
X215978628Y-89584761D01*
X215978628Y-89584761D02*
X215931009Y-89632380D01*
X215931009Y-89632380D02*
X215883390Y-89727618D01*
X153523810Y-109954819D02*
X153523810Y-110669104D01*
X153523810Y-110669104D02*
X153476191Y-110811961D01*
X153476191Y-110811961D02*
X153380953Y-110907200D01*
X153380953Y-110907200D02*
X153238096Y-110954819D01*
X153238096Y-110954819D02*
X153142858Y-110954819D01*
X153952382Y-110050057D02*
X154000001Y-110002438D01*
X154000001Y-110002438D02*
X154095239Y-109954819D01*
X154095239Y-109954819D02*
X154333334Y-109954819D01*
X154333334Y-109954819D02*
X154428572Y-110002438D01*
X154428572Y-110002438D02*
X154476191Y-110050057D01*
X154476191Y-110050057D02*
X154523810Y-110145295D01*
X154523810Y-110145295D02*
X154523810Y-110240533D01*
X154523810Y-110240533D02*
X154476191Y-110383390D01*
X154476191Y-110383390D02*
X153904763Y-110954819D01*
X153904763Y-110954819D02*
X154523810Y-110954819D01*
X155380953Y-109954819D02*
X155190477Y-109954819D01*
X155190477Y-109954819D02*
X155095239Y-110002438D01*
X155095239Y-110002438D02*
X155047620Y-110050057D01*
X155047620Y-110050057D02*
X154952382Y-110192914D01*
X154952382Y-110192914D02*
X154904763Y-110383390D01*
X154904763Y-110383390D02*
X154904763Y-110764342D01*
X154904763Y-110764342D02*
X154952382Y-110859580D01*
X154952382Y-110859580D02*
X155000001Y-110907200D01*
X155000001Y-110907200D02*
X155095239Y-110954819D01*
X155095239Y-110954819D02*
X155285715Y-110954819D01*
X155285715Y-110954819D02*
X155380953Y-110907200D01*
X155380953Y-110907200D02*
X155428572Y-110859580D01*
X155428572Y-110859580D02*
X155476191Y-110764342D01*
X155476191Y-110764342D02*
X155476191Y-110526247D01*
X155476191Y-110526247D02*
X155428572Y-110431009D01*
X155428572Y-110431009D02*
X155380953Y-110383390D01*
X155380953Y-110383390D02*
X155285715Y-110335771D01*
X155285715Y-110335771D02*
X155095239Y-110335771D01*
X155095239Y-110335771D02*
X155000001Y-110383390D01*
X155000001Y-110383390D02*
X154952382Y-110431009D01*
X154952382Y-110431009D02*
X154904763Y-110526247D01*
X142150476Y-81954819D02*
X142150476Y-82669104D01*
X142150476Y-82669104D02*
X142102857Y-82811961D01*
X142102857Y-82811961D02*
X142007619Y-82907200D01*
X142007619Y-82907200D02*
X141864762Y-82954819D01*
X141864762Y-82954819D02*
X141769524Y-82954819D01*
X143150476Y-82954819D02*
X142579048Y-82954819D01*
X142864762Y-82954819D02*
X142864762Y-81954819D01*
X142864762Y-81954819D02*
X142769524Y-82097676D01*
X142769524Y-82097676D02*
X142674286Y-82192914D01*
X142674286Y-82192914D02*
X142579048Y-82240533D01*
X143769524Y-81954819D02*
X143864762Y-81954819D01*
X143864762Y-81954819D02*
X143960000Y-82002438D01*
X143960000Y-82002438D02*
X144007619Y-82050057D01*
X144007619Y-82050057D02*
X144055238Y-82145295D01*
X144055238Y-82145295D02*
X144102857Y-82335771D01*
X144102857Y-82335771D02*
X144102857Y-82573866D01*
X144102857Y-82573866D02*
X144055238Y-82764342D01*
X144055238Y-82764342D02*
X144007619Y-82859580D01*
X144007619Y-82859580D02*
X143960000Y-82907200D01*
X143960000Y-82907200D02*
X143864762Y-82954819D01*
X143864762Y-82954819D02*
X143769524Y-82954819D01*
X143769524Y-82954819D02*
X143674286Y-82907200D01*
X143674286Y-82907200D02*
X143626667Y-82859580D01*
X143626667Y-82859580D02*
X143579048Y-82764342D01*
X143579048Y-82764342D02*
X143531429Y-82573866D01*
X143531429Y-82573866D02*
X143531429Y-82335771D01*
X143531429Y-82335771D02*
X143579048Y-82145295D01*
X143579048Y-82145295D02*
X143626667Y-82050057D01*
X143626667Y-82050057D02*
X143674286Y-82002438D01*
X143674286Y-82002438D02*
X143769524Y-81954819D01*
X85960000Y-81954819D02*
X85960000Y-82669104D01*
X85960000Y-82669104D02*
X85912381Y-82811961D01*
X85912381Y-82811961D02*
X85817143Y-82907200D01*
X85817143Y-82907200D02*
X85674286Y-82954819D01*
X85674286Y-82954819D02*
X85579048Y-82954819D01*
X86912381Y-81954819D02*
X86436191Y-81954819D01*
X86436191Y-81954819D02*
X86388572Y-82431009D01*
X86388572Y-82431009D02*
X86436191Y-82383390D01*
X86436191Y-82383390D02*
X86531429Y-82335771D01*
X86531429Y-82335771D02*
X86769524Y-82335771D01*
X86769524Y-82335771D02*
X86864762Y-82383390D01*
X86864762Y-82383390D02*
X86912381Y-82431009D01*
X86912381Y-82431009D02*
X86960000Y-82526247D01*
X86960000Y-82526247D02*
X86960000Y-82764342D01*
X86960000Y-82764342D02*
X86912381Y-82859580D01*
X86912381Y-82859580D02*
X86864762Y-82907200D01*
X86864762Y-82907200D02*
X86769524Y-82954819D01*
X86769524Y-82954819D02*
X86531429Y-82954819D01*
X86531429Y-82954819D02*
X86436191Y-82907200D01*
X86436191Y-82907200D02*
X86388572Y-82859580D01*
X97293333Y-81954819D02*
X97293333Y-82669104D01*
X97293333Y-82669104D02*
X97245714Y-82811961D01*
X97245714Y-82811961D02*
X97150476Y-82907200D01*
X97150476Y-82907200D02*
X97007619Y-82954819D01*
X97007619Y-82954819D02*
X96912381Y-82954819D01*
X98198095Y-81954819D02*
X98007619Y-81954819D01*
X98007619Y-81954819D02*
X97912381Y-82002438D01*
X97912381Y-82002438D02*
X97864762Y-82050057D01*
X97864762Y-82050057D02*
X97769524Y-82192914D01*
X97769524Y-82192914D02*
X97721905Y-82383390D01*
X97721905Y-82383390D02*
X97721905Y-82764342D01*
X97721905Y-82764342D02*
X97769524Y-82859580D01*
X97769524Y-82859580D02*
X97817143Y-82907200D01*
X97817143Y-82907200D02*
X97912381Y-82954819D01*
X97912381Y-82954819D02*
X98102857Y-82954819D01*
X98102857Y-82954819D02*
X98198095Y-82907200D01*
X98198095Y-82907200D02*
X98245714Y-82859580D01*
X98245714Y-82859580D02*
X98293333Y-82764342D01*
X98293333Y-82764342D02*
X98293333Y-82526247D01*
X98293333Y-82526247D02*
X98245714Y-82431009D01*
X98245714Y-82431009D02*
X98198095Y-82383390D01*
X98198095Y-82383390D02*
X98102857Y-82335771D01*
X98102857Y-82335771D02*
X97912381Y-82335771D01*
X97912381Y-82335771D02*
X97817143Y-82383390D01*
X97817143Y-82383390D02*
X97769524Y-82431009D01*
X97769524Y-82431009D02*
X97721905Y-82526247D01*
X119960000Y-81954819D02*
X119960000Y-82669104D01*
X119960000Y-82669104D02*
X119912381Y-82811961D01*
X119912381Y-82811961D02*
X119817143Y-82907200D01*
X119817143Y-82907200D02*
X119674286Y-82954819D01*
X119674286Y-82954819D02*
X119579048Y-82954819D01*
X120579048Y-82383390D02*
X120483810Y-82335771D01*
X120483810Y-82335771D02*
X120436191Y-82288152D01*
X120436191Y-82288152D02*
X120388572Y-82192914D01*
X120388572Y-82192914D02*
X120388572Y-82145295D01*
X120388572Y-82145295D02*
X120436191Y-82050057D01*
X120436191Y-82050057D02*
X120483810Y-82002438D01*
X120483810Y-82002438D02*
X120579048Y-81954819D01*
X120579048Y-81954819D02*
X120769524Y-81954819D01*
X120769524Y-81954819D02*
X120864762Y-82002438D01*
X120864762Y-82002438D02*
X120912381Y-82050057D01*
X120912381Y-82050057D02*
X120960000Y-82145295D01*
X120960000Y-82145295D02*
X120960000Y-82192914D01*
X120960000Y-82192914D02*
X120912381Y-82288152D01*
X120912381Y-82288152D02*
X120864762Y-82335771D01*
X120864762Y-82335771D02*
X120769524Y-82383390D01*
X120769524Y-82383390D02*
X120579048Y-82383390D01*
X120579048Y-82383390D02*
X120483810Y-82431009D01*
X120483810Y-82431009D02*
X120436191Y-82478628D01*
X120436191Y-82478628D02*
X120388572Y-82573866D01*
X120388572Y-82573866D02*
X120388572Y-82764342D01*
X120388572Y-82764342D02*
X120436191Y-82859580D01*
X120436191Y-82859580D02*
X120483810Y-82907200D01*
X120483810Y-82907200D02*
X120579048Y-82954819D01*
X120579048Y-82954819D02*
X120769524Y-82954819D01*
X120769524Y-82954819D02*
X120864762Y-82907200D01*
X120864762Y-82907200D02*
X120912381Y-82859580D01*
X120912381Y-82859580D02*
X120960000Y-82764342D01*
X120960000Y-82764342D02*
X120960000Y-82573866D01*
X120960000Y-82573866D02*
X120912381Y-82478628D01*
X120912381Y-82478628D02*
X120864762Y-82431009D01*
X120864762Y-82431009D02*
X120769524Y-82383390D01*
X176150476Y-81954819D02*
X176150476Y-82669104D01*
X176150476Y-82669104D02*
X176102857Y-82811961D01*
X176102857Y-82811961D02*
X176007619Y-82907200D01*
X176007619Y-82907200D02*
X175864762Y-82954819D01*
X175864762Y-82954819D02*
X175769524Y-82954819D01*
X177150476Y-82954819D02*
X176579048Y-82954819D01*
X176864762Y-82954819D02*
X176864762Y-81954819D01*
X176864762Y-81954819D02*
X176769524Y-82097676D01*
X176769524Y-82097676D02*
X176674286Y-82192914D01*
X176674286Y-82192914D02*
X176579048Y-82240533D01*
X177483810Y-81954819D02*
X178102857Y-81954819D01*
X178102857Y-81954819D02*
X177769524Y-82335771D01*
X177769524Y-82335771D02*
X177912381Y-82335771D01*
X177912381Y-82335771D02*
X178007619Y-82383390D01*
X178007619Y-82383390D02*
X178055238Y-82431009D01*
X178055238Y-82431009D02*
X178102857Y-82526247D01*
X178102857Y-82526247D02*
X178102857Y-82764342D01*
X178102857Y-82764342D02*
X178055238Y-82859580D01*
X178055238Y-82859580D02*
X178007619Y-82907200D01*
X178007619Y-82907200D02*
X177912381Y-82954819D01*
X177912381Y-82954819D02*
X177626667Y-82954819D01*
X177626667Y-82954819D02*
X177531429Y-82907200D01*
X177531429Y-82907200D02*
X177483810Y-82859580D01*
X210150476Y-81954819D02*
X210150476Y-82669104D01*
X210150476Y-82669104D02*
X210102857Y-82811961D01*
X210102857Y-82811961D02*
X210007619Y-82907200D01*
X210007619Y-82907200D02*
X209864762Y-82954819D01*
X209864762Y-82954819D02*
X209769524Y-82954819D01*
X211150476Y-82954819D02*
X210579048Y-82954819D01*
X210864762Y-82954819D02*
X210864762Y-81954819D01*
X210864762Y-81954819D02*
X210769524Y-82097676D01*
X210769524Y-82097676D02*
X210674286Y-82192914D01*
X210674286Y-82192914D02*
X210579048Y-82240533D01*
X212007619Y-81954819D02*
X211817143Y-81954819D01*
X211817143Y-81954819D02*
X211721905Y-82002438D01*
X211721905Y-82002438D02*
X211674286Y-82050057D01*
X211674286Y-82050057D02*
X211579048Y-82192914D01*
X211579048Y-82192914D02*
X211531429Y-82383390D01*
X211531429Y-82383390D02*
X211531429Y-82764342D01*
X211531429Y-82764342D02*
X211579048Y-82859580D01*
X211579048Y-82859580D02*
X211626667Y-82907200D01*
X211626667Y-82907200D02*
X211721905Y-82954819D01*
X211721905Y-82954819D02*
X211912381Y-82954819D01*
X211912381Y-82954819D02*
X212007619Y-82907200D01*
X212007619Y-82907200D02*
X212055238Y-82859580D01*
X212055238Y-82859580D02*
X212102857Y-82764342D01*
X212102857Y-82764342D02*
X212102857Y-82526247D01*
X212102857Y-82526247D02*
X212055238Y-82431009D01*
X212055238Y-82431009D02*
X212007619Y-82383390D01*
X212007619Y-82383390D02*
X211912381Y-82335771D01*
X211912381Y-82335771D02*
X211721905Y-82335771D01*
X211721905Y-82335771D02*
X211626667Y-82383390D01*
X211626667Y-82383390D02*
X211579048Y-82431009D01*
X211579048Y-82431009D02*
X211531429Y-82526247D01*
X142190476Y-109954819D02*
X142190476Y-110669104D01*
X142190476Y-110669104D02*
X142142857Y-110811961D01*
X142142857Y-110811961D02*
X142047619Y-110907200D01*
X142047619Y-110907200D02*
X141904762Y-110954819D01*
X141904762Y-110954819D02*
X141809524Y-110954819D01*
X142619048Y-110050057D02*
X142666667Y-110002438D01*
X142666667Y-110002438D02*
X142761905Y-109954819D01*
X142761905Y-109954819D02*
X143000000Y-109954819D01*
X143000000Y-109954819D02*
X143095238Y-110002438D01*
X143095238Y-110002438D02*
X143142857Y-110050057D01*
X143142857Y-110050057D02*
X143190476Y-110145295D01*
X143190476Y-110145295D02*
X143190476Y-110240533D01*
X143190476Y-110240533D02*
X143142857Y-110383390D01*
X143142857Y-110383390D02*
X142571429Y-110954819D01*
X142571429Y-110954819D02*
X143190476Y-110954819D01*
X143523810Y-109954819D02*
X144190476Y-109954819D01*
X144190476Y-109954819D02*
X143761905Y-110954819D01*
X198817143Y-81954819D02*
X198817143Y-82669104D01*
X198817143Y-82669104D02*
X198769524Y-82811961D01*
X198769524Y-82811961D02*
X198674286Y-82907200D01*
X198674286Y-82907200D02*
X198531429Y-82954819D01*
X198531429Y-82954819D02*
X198436191Y-82954819D01*
X199817143Y-82954819D02*
X199245715Y-82954819D01*
X199531429Y-82954819D02*
X199531429Y-81954819D01*
X199531429Y-81954819D02*
X199436191Y-82097676D01*
X199436191Y-82097676D02*
X199340953Y-82192914D01*
X199340953Y-82192914D02*
X199245715Y-82240533D01*
X200721905Y-81954819D02*
X200245715Y-81954819D01*
X200245715Y-81954819D02*
X200198096Y-82431009D01*
X200198096Y-82431009D02*
X200245715Y-82383390D01*
X200245715Y-82383390D02*
X200340953Y-82335771D01*
X200340953Y-82335771D02*
X200579048Y-82335771D01*
X200579048Y-82335771D02*
X200674286Y-82383390D01*
X200674286Y-82383390D02*
X200721905Y-82431009D01*
X200721905Y-82431009D02*
X200769524Y-82526247D01*
X200769524Y-82526247D02*
X200769524Y-82764342D01*
X200769524Y-82764342D02*
X200721905Y-82859580D01*
X200721905Y-82859580D02*
X200674286Y-82907200D01*
X200674286Y-82907200D02*
X200579048Y-82954819D01*
X200579048Y-82954819D02*
X200340953Y-82954819D01*
X200340953Y-82954819D02*
X200245715Y-82907200D01*
X200245715Y-82907200D02*
X200198096Y-82859580D01*
X215454819Y-83309523D02*
X216169104Y-83309523D01*
X216169104Y-83309523D02*
X216311961Y-83357142D01*
X216311961Y-83357142D02*
X216407200Y-83452380D01*
X216407200Y-83452380D02*
X216454819Y-83595237D01*
X216454819Y-83595237D02*
X216454819Y-83690475D01*
X216454819Y-82309523D02*
X216454819Y-82880951D01*
X216454819Y-82595237D02*
X215454819Y-82595237D01*
X215454819Y-82595237D02*
X215597676Y-82690475D01*
X215597676Y-82690475D02*
X215692914Y-82785713D01*
X215692914Y-82785713D02*
X215740533Y-82880951D01*
X215454819Y-81976189D02*
X215454819Y-81309523D01*
X215454819Y-81309523D02*
X216454819Y-81738094D01*
X130857143Y-109954819D02*
X130857143Y-110669104D01*
X130857143Y-110669104D02*
X130809524Y-110811961D01*
X130809524Y-110811961D02*
X130714286Y-110907200D01*
X130714286Y-110907200D02*
X130571429Y-110954819D01*
X130571429Y-110954819D02*
X130476191Y-110954819D01*
X131285715Y-110050057D02*
X131333334Y-110002438D01*
X131333334Y-110002438D02*
X131428572Y-109954819D01*
X131428572Y-109954819D02*
X131666667Y-109954819D01*
X131666667Y-109954819D02*
X131761905Y-110002438D01*
X131761905Y-110002438D02*
X131809524Y-110050057D01*
X131809524Y-110050057D02*
X131857143Y-110145295D01*
X131857143Y-110145295D02*
X131857143Y-110240533D01*
X131857143Y-110240533D02*
X131809524Y-110383390D01*
X131809524Y-110383390D02*
X131238096Y-110954819D01*
X131238096Y-110954819D02*
X131857143Y-110954819D01*
X132428572Y-110383390D02*
X132333334Y-110335771D01*
X132333334Y-110335771D02*
X132285715Y-110288152D01*
X132285715Y-110288152D02*
X132238096Y-110192914D01*
X132238096Y-110192914D02*
X132238096Y-110145295D01*
X132238096Y-110145295D02*
X132285715Y-110050057D01*
X132285715Y-110050057D02*
X132333334Y-110002438D01*
X132333334Y-110002438D02*
X132428572Y-109954819D01*
X132428572Y-109954819D02*
X132619048Y-109954819D01*
X132619048Y-109954819D02*
X132714286Y-110002438D01*
X132714286Y-110002438D02*
X132761905Y-110050057D01*
X132761905Y-110050057D02*
X132809524Y-110145295D01*
X132809524Y-110145295D02*
X132809524Y-110192914D01*
X132809524Y-110192914D02*
X132761905Y-110288152D01*
X132761905Y-110288152D02*
X132714286Y-110335771D01*
X132714286Y-110335771D02*
X132619048Y-110383390D01*
X132619048Y-110383390D02*
X132428572Y-110383390D01*
X132428572Y-110383390D02*
X132333334Y-110431009D01*
X132333334Y-110431009D02*
X132285715Y-110478628D01*
X132285715Y-110478628D02*
X132238096Y-110573866D01*
X132238096Y-110573866D02*
X132238096Y-110764342D01*
X132238096Y-110764342D02*
X132285715Y-110859580D01*
X132285715Y-110859580D02*
X132333334Y-110907200D01*
X132333334Y-110907200D02*
X132428572Y-110954819D01*
X132428572Y-110954819D02*
X132619048Y-110954819D01*
X132619048Y-110954819D02*
X132714286Y-110907200D01*
X132714286Y-110907200D02*
X132761905Y-110859580D01*
X132761905Y-110859580D02*
X132809524Y-110764342D01*
X132809524Y-110764342D02*
X132809524Y-110573866D01*
X132809524Y-110573866D02*
X132761905Y-110478628D01*
X132761905Y-110478628D02*
X132714286Y-110431009D01*
X132714286Y-110431009D02*
X132619048Y-110383390D01*
X187523810Y-109954819D02*
X187523810Y-110669104D01*
X187523810Y-110669104D02*
X187476191Y-110811961D01*
X187476191Y-110811961D02*
X187380953Y-110907200D01*
X187380953Y-110907200D02*
X187238096Y-110954819D01*
X187238096Y-110954819D02*
X187142858Y-110954819D01*
X187952382Y-110050057D02*
X188000001Y-110002438D01*
X188000001Y-110002438D02*
X188095239Y-109954819D01*
X188095239Y-109954819D02*
X188333334Y-109954819D01*
X188333334Y-109954819D02*
X188428572Y-110002438D01*
X188428572Y-110002438D02*
X188476191Y-110050057D01*
X188476191Y-110050057D02*
X188523810Y-110145295D01*
X188523810Y-110145295D02*
X188523810Y-110240533D01*
X188523810Y-110240533D02*
X188476191Y-110383390D01*
X188476191Y-110383390D02*
X187904763Y-110954819D01*
X187904763Y-110954819D02*
X188523810Y-110954819D01*
X188857144Y-109954819D02*
X189476191Y-109954819D01*
X189476191Y-109954819D02*
X189142858Y-110335771D01*
X189142858Y-110335771D02*
X189285715Y-110335771D01*
X189285715Y-110335771D02*
X189380953Y-110383390D01*
X189380953Y-110383390D02*
X189428572Y-110431009D01*
X189428572Y-110431009D02*
X189476191Y-110526247D01*
X189476191Y-110526247D02*
X189476191Y-110764342D01*
X189476191Y-110764342D02*
X189428572Y-110859580D01*
X189428572Y-110859580D02*
X189380953Y-110907200D01*
X189380953Y-110907200D02*
X189285715Y-110954819D01*
X189285715Y-110954819D02*
X189000001Y-110954819D01*
X189000001Y-110954819D02*
X188904763Y-110907200D01*
X188904763Y-110907200D02*
X188857144Y-110859580D01*
X198857143Y-109954819D02*
X198857143Y-110669104D01*
X198857143Y-110669104D02*
X198809524Y-110811961D01*
X198809524Y-110811961D02*
X198714286Y-110907200D01*
X198714286Y-110907200D02*
X198571429Y-110954819D01*
X198571429Y-110954819D02*
X198476191Y-110954819D01*
X199285715Y-110050057D02*
X199333334Y-110002438D01*
X199333334Y-110002438D02*
X199428572Y-109954819D01*
X199428572Y-109954819D02*
X199666667Y-109954819D01*
X199666667Y-109954819D02*
X199761905Y-110002438D01*
X199761905Y-110002438D02*
X199809524Y-110050057D01*
X199809524Y-110050057D02*
X199857143Y-110145295D01*
X199857143Y-110145295D02*
X199857143Y-110240533D01*
X199857143Y-110240533D02*
X199809524Y-110383390D01*
X199809524Y-110383390D02*
X199238096Y-110954819D01*
X199238096Y-110954819D02*
X199857143Y-110954819D01*
X200238096Y-110050057D02*
X200285715Y-110002438D01*
X200285715Y-110002438D02*
X200380953Y-109954819D01*
X200380953Y-109954819D02*
X200619048Y-109954819D01*
X200619048Y-109954819D02*
X200714286Y-110002438D01*
X200714286Y-110002438D02*
X200761905Y-110050057D01*
X200761905Y-110050057D02*
X200809524Y-110145295D01*
X200809524Y-110145295D02*
X200809524Y-110240533D01*
X200809524Y-110240533D02*
X200761905Y-110383390D01*
X200761905Y-110383390D02*
X200190477Y-110954819D01*
X200190477Y-110954819D02*
X200809524Y-110954819D01*
X215454819Y-103669523D02*
X216169104Y-103669523D01*
X216169104Y-103669523D02*
X216311961Y-103717142D01*
X216311961Y-103717142D02*
X216407200Y-103812380D01*
X216407200Y-103812380D02*
X216454819Y-103955237D01*
X216454819Y-103955237D02*
X216454819Y-104050475D01*
X216454819Y-102669523D02*
X216454819Y-103240951D01*
X216454819Y-102955237D02*
X215454819Y-102955237D01*
X215454819Y-102955237D02*
X215597676Y-103050475D01*
X215597676Y-103050475D02*
X215692914Y-103145713D01*
X215692914Y-103145713D02*
X215740533Y-103240951D01*
X216454819Y-102193332D02*
X216454819Y-102002856D01*
X216454819Y-102002856D02*
X216407200Y-101907618D01*
X216407200Y-101907618D02*
X216359580Y-101859999D01*
X216359580Y-101859999D02*
X216216723Y-101764761D01*
X216216723Y-101764761D02*
X216026247Y-101717142D01*
X216026247Y-101717142D02*
X215645295Y-101717142D01*
X215645295Y-101717142D02*
X215550057Y-101764761D01*
X215550057Y-101764761D02*
X215502438Y-101812380D01*
X215502438Y-101812380D02*
X215454819Y-101907618D01*
X215454819Y-101907618D02*
X215454819Y-102098094D01*
X215454819Y-102098094D02*
X215502438Y-102193332D01*
X215502438Y-102193332D02*
X215550057Y-102240951D01*
X215550057Y-102240951D02*
X215645295Y-102288570D01*
X215645295Y-102288570D02*
X215883390Y-102288570D01*
X215883390Y-102288570D02*
X215978628Y-102240951D01*
X215978628Y-102240951D02*
X216026247Y-102193332D01*
X216026247Y-102193332D02*
X216073866Y-102098094D01*
X216073866Y-102098094D02*
X216073866Y-101907618D01*
X216073866Y-101907618D02*
X216026247Y-101812380D01*
X216026247Y-101812380D02*
X215978628Y-101764761D01*
X215978628Y-101764761D02*
X215883390Y-101717142D01*
X164857143Y-109954819D02*
X164857143Y-110669104D01*
X164857143Y-110669104D02*
X164809524Y-110811961D01*
X164809524Y-110811961D02*
X164714286Y-110907200D01*
X164714286Y-110907200D02*
X164571429Y-110954819D01*
X164571429Y-110954819D02*
X164476191Y-110954819D01*
X165285715Y-110050057D02*
X165333334Y-110002438D01*
X165333334Y-110002438D02*
X165428572Y-109954819D01*
X165428572Y-109954819D02*
X165666667Y-109954819D01*
X165666667Y-109954819D02*
X165761905Y-110002438D01*
X165761905Y-110002438D02*
X165809524Y-110050057D01*
X165809524Y-110050057D02*
X165857143Y-110145295D01*
X165857143Y-110145295D02*
X165857143Y-110240533D01*
X165857143Y-110240533D02*
X165809524Y-110383390D01*
X165809524Y-110383390D02*
X165238096Y-110954819D01*
X165238096Y-110954819D02*
X165857143Y-110954819D01*
X166761905Y-109954819D02*
X166285715Y-109954819D01*
X166285715Y-109954819D02*
X166238096Y-110431009D01*
X166238096Y-110431009D02*
X166285715Y-110383390D01*
X166285715Y-110383390D02*
X166380953Y-110335771D01*
X166380953Y-110335771D02*
X166619048Y-110335771D01*
X166619048Y-110335771D02*
X166714286Y-110383390D01*
X166714286Y-110383390D02*
X166761905Y-110431009D01*
X166761905Y-110431009D02*
X166809524Y-110526247D01*
X166809524Y-110526247D02*
X166809524Y-110764342D01*
X166809524Y-110764342D02*
X166761905Y-110859580D01*
X166761905Y-110859580D02*
X166714286Y-110907200D01*
X166714286Y-110907200D02*
X166619048Y-110954819D01*
X166619048Y-110954819D02*
X166380953Y-110954819D01*
X166380953Y-110954819D02*
X166285715Y-110907200D01*
X166285715Y-110907200D02*
X166238096Y-110859580D01*
X187483810Y-81954819D02*
X187483810Y-82669104D01*
X187483810Y-82669104D02*
X187436191Y-82811961D01*
X187436191Y-82811961D02*
X187340953Y-82907200D01*
X187340953Y-82907200D02*
X187198096Y-82954819D01*
X187198096Y-82954819D02*
X187102858Y-82954819D01*
X188483810Y-82954819D02*
X187912382Y-82954819D01*
X188198096Y-82954819D02*
X188198096Y-81954819D01*
X188198096Y-81954819D02*
X188102858Y-82097676D01*
X188102858Y-82097676D02*
X188007620Y-82192914D01*
X188007620Y-82192914D02*
X187912382Y-82240533D01*
X189340953Y-82288152D02*
X189340953Y-82954819D01*
X189102858Y-81907200D02*
X188864763Y-82621485D01*
X188864763Y-82621485D02*
X189483810Y-82621485D01*
X67401633Y-98954819D02*
X67401633Y-99669104D01*
X67401633Y-99669104D02*
X67354014Y-99811961D01*
X67354014Y-99811961D02*
X67258776Y-99907200D01*
X67258776Y-99907200D02*
X67115919Y-99954819D01*
X67115919Y-99954819D02*
X67020681Y-99954819D01*
X67830205Y-99050057D02*
X67877824Y-99002438D01*
X67877824Y-99002438D02*
X67973062Y-98954819D01*
X67973062Y-98954819D02*
X68211157Y-98954819D01*
X68211157Y-98954819D02*
X68306395Y-99002438D01*
X68306395Y-99002438D02*
X68354014Y-99050057D01*
X68354014Y-99050057D02*
X68401633Y-99145295D01*
X68401633Y-99145295D02*
X68401633Y-99240533D01*
X68401633Y-99240533D02*
X68354014Y-99383390D01*
X68354014Y-99383390D02*
X67782586Y-99954819D01*
X67782586Y-99954819D02*
X68401633Y-99954819D01*
X215954819Y-111309523D02*
X216669104Y-111309523D01*
X216669104Y-111309523D02*
X216811961Y-111357142D01*
X216811961Y-111357142D02*
X216907200Y-111452380D01*
X216907200Y-111452380D02*
X216954819Y-111595237D01*
X216954819Y-111595237D02*
X216954819Y-111690475D01*
X216050057Y-110880951D02*
X216002438Y-110833332D01*
X216002438Y-110833332D02*
X215954819Y-110738094D01*
X215954819Y-110738094D02*
X215954819Y-110499999D01*
X215954819Y-110499999D02*
X216002438Y-110404761D01*
X216002438Y-110404761D02*
X216050057Y-110357142D01*
X216050057Y-110357142D02*
X216145295Y-110309523D01*
X216145295Y-110309523D02*
X216240533Y-110309523D01*
X216240533Y-110309523D02*
X216383390Y-110357142D01*
X216383390Y-110357142D02*
X216954819Y-110928570D01*
X216954819Y-110928570D02*
X216954819Y-110309523D01*
X215954819Y-109690475D02*
X215954819Y-109595237D01*
X215954819Y-109595237D02*
X216002438Y-109499999D01*
X216002438Y-109499999D02*
X216050057Y-109452380D01*
X216050057Y-109452380D02*
X216145295Y-109404761D01*
X216145295Y-109404761D02*
X216335771Y-109357142D01*
X216335771Y-109357142D02*
X216573866Y-109357142D01*
X216573866Y-109357142D02*
X216764342Y-109404761D01*
X216764342Y-109404761D02*
X216859580Y-109452380D01*
X216859580Y-109452380D02*
X216907200Y-109499999D01*
X216907200Y-109499999D02*
X216954819Y-109595237D01*
X216954819Y-109595237D02*
X216954819Y-109690475D01*
X216954819Y-109690475D02*
X216907200Y-109785713D01*
X216907200Y-109785713D02*
X216859580Y-109833332D01*
X216859580Y-109833332D02*
X216764342Y-109880951D01*
X216764342Y-109880951D02*
X216573866Y-109928570D01*
X216573866Y-109928570D02*
X216335771Y-109928570D01*
X216335771Y-109928570D02*
X216145295Y-109880951D01*
X216145295Y-109880951D02*
X216050057Y-109833332D01*
X216050057Y-109833332D02*
X216002438Y-109785713D01*
X216002438Y-109785713D02*
X215954819Y-109690475D01*
X164817143Y-81954819D02*
X164817143Y-82669104D01*
X164817143Y-82669104D02*
X164769524Y-82811961D01*
X164769524Y-82811961D02*
X164674286Y-82907200D01*
X164674286Y-82907200D02*
X164531429Y-82954819D01*
X164531429Y-82954819D02*
X164436191Y-82954819D01*
X165817143Y-82954819D02*
X165245715Y-82954819D01*
X165531429Y-82954819D02*
X165531429Y-81954819D01*
X165531429Y-81954819D02*
X165436191Y-82097676D01*
X165436191Y-82097676D02*
X165340953Y-82192914D01*
X165340953Y-82192914D02*
X165245715Y-82240533D01*
X166198096Y-82050057D02*
X166245715Y-82002438D01*
X166245715Y-82002438D02*
X166340953Y-81954819D01*
X166340953Y-81954819D02*
X166579048Y-81954819D01*
X166579048Y-81954819D02*
X166674286Y-82002438D01*
X166674286Y-82002438D02*
X166721905Y-82050057D01*
X166721905Y-82050057D02*
X166769524Y-82145295D01*
X166769524Y-82145295D02*
X166769524Y-82240533D01*
X166769524Y-82240533D02*
X166721905Y-82383390D01*
X166721905Y-82383390D02*
X166150477Y-82954819D01*
X166150477Y-82954819D02*
X166769524Y-82954819D01*
D13*
%TO.C,J1*%
X55962067Y-82123200D02*
X55962067Y-91876800D01*
X55962067Y-91876800D02*
X58349667Y-91876800D01*
X58349667Y-81627900D02*
X58349667Y-92372100D01*
X58349667Y-82123200D02*
X55962067Y-82123200D01*
X58349667Y-92372100D02*
X79507867Y-92372100D01*
X79507867Y-81627900D02*
X58349667Y-81627900D01*
X79507867Y-92372100D02*
X79507867Y-81627900D01*
%TO.C,J31*%
X92586667Y-112690000D02*
X92586667Y-120310000D01*
X92586667Y-120310000D02*
X102746667Y-120310000D01*
X102746667Y-112690000D02*
X92586667Y-112690000D01*
X102746667Y-119040000D02*
X92586667Y-119040000D01*
X102746667Y-120310000D02*
X102746667Y-112690000D01*
%TO.C,J9*%
X126546667Y-72690000D02*
X126546667Y-80310000D01*
X126546667Y-73960000D02*
X136706667Y-73960000D01*
X126546667Y-80310000D02*
X136706667Y-80310000D01*
X136706667Y-72690000D02*
X126546667Y-72690000D01*
X136706667Y-80310000D02*
X136706667Y-72690000D01*
%TO.C,J21*%
X205920000Y-112690000D02*
X205920000Y-120310000D01*
X205920000Y-120310000D02*
X216080000Y-120310000D01*
X216080000Y-112690000D02*
X205920000Y-112690000D01*
X216080000Y-119040000D02*
X205920000Y-119040000D01*
X216080000Y-120310000D02*
X216080000Y-112690000D01*
%TO.C,J24*%
X171920000Y-112690000D02*
X171920000Y-120310000D01*
X171920000Y-120310000D02*
X182080000Y-120310000D01*
X182080000Y-112690000D02*
X171920000Y-112690000D01*
X182080000Y-119040000D02*
X171920000Y-119040000D01*
X182080000Y-120310000D02*
X182080000Y-112690000D01*
%TO.C,J30*%
X103920000Y-112690000D02*
X103920000Y-120310000D01*
X103920000Y-120310000D02*
X114080000Y-120310000D01*
X114080000Y-112690000D02*
X103920000Y-112690000D01*
X114080000Y-119040000D02*
X103920000Y-119040000D01*
X114080000Y-120310000D02*
X114080000Y-112690000D01*
%TO.C,J29*%
X115253334Y-112690000D02*
X115253334Y-120310000D01*
X115253334Y-120310000D02*
X125413334Y-120310000D01*
X125413334Y-112690000D02*
X115253334Y-112690000D01*
X125413334Y-119040000D02*
X115253334Y-119040000D01*
X125413334Y-120310000D02*
X125413334Y-112690000D01*
%TO.C,J32*%
X81253334Y-112690000D02*
X81253334Y-120310000D01*
X81253334Y-120310000D02*
X91413334Y-120310000D01*
X91413334Y-112690000D02*
X81253334Y-112690000D01*
X91413334Y-119040000D02*
X81253334Y-119040000D01*
X91413334Y-120310000D02*
X91413334Y-112690000D01*
%TO.C,J11*%
X149213334Y-72690000D02*
X149213334Y-80310000D01*
X149213334Y-73960000D02*
X159373334Y-73960000D01*
X149213334Y-80310000D02*
X159373334Y-80310000D01*
X159373334Y-72690000D02*
X149213334Y-72690000D01*
X159373334Y-80310000D02*
X159373334Y-72690000D01*
%TO.C,J7*%
X103880000Y-72690000D02*
X103880000Y-80310000D01*
X103880000Y-73960000D02*
X114040000Y-73960000D01*
X103880000Y-80310000D02*
X114040000Y-80310000D01*
X114040000Y-72690000D02*
X103880000Y-72690000D01*
X114040000Y-80310000D02*
X114040000Y-72690000D01*
%TO.C,J33*%
X69920000Y-112690000D02*
X69920000Y-120310000D01*
X69920000Y-120310000D02*
X80080000Y-120310000D01*
X80080000Y-112690000D02*
X69920000Y-112690000D01*
X80080000Y-119040000D02*
X69920000Y-119040000D01*
X80080000Y-120310000D02*
X80080000Y-112690000D01*
%TO.C,J18*%
X217690000Y-85600000D02*
X217690000Y-95760000D01*
X217690000Y-95760000D02*
X225310000Y-95760000D01*
X218960000Y-95760000D02*
X218960000Y-85600000D01*
X225310000Y-85600000D02*
X217690000Y-85600000D01*
X225310000Y-95760000D02*
X225310000Y-85600000D01*
%TO.C,J26*%
X149253334Y-112690000D02*
X149253334Y-120310000D01*
X149253334Y-120310000D02*
X159413334Y-120310000D01*
X159413334Y-112690000D02*
X149253334Y-112690000D01*
X159413334Y-119040000D02*
X149253334Y-119040000D01*
X159413334Y-120310000D02*
X159413334Y-112690000D01*
%TO.C,J10*%
X137880000Y-72690000D02*
X137880000Y-80310000D01*
X137880000Y-73960000D02*
X148040000Y-73960000D01*
X137880000Y-80310000D02*
X148040000Y-80310000D01*
X148040000Y-72690000D02*
X137880000Y-72690000D01*
X148040000Y-80310000D02*
X148040000Y-72690000D01*
%TO.C,J5*%
X81213334Y-72690000D02*
X81213334Y-80310000D01*
X81213334Y-73960000D02*
X91373334Y-73960000D01*
X81213334Y-80310000D02*
X91373334Y-80310000D01*
X91373334Y-72690000D02*
X81213334Y-72690000D01*
X91373334Y-80310000D02*
X91373334Y-72690000D01*
%TO.C,J4*%
X69880000Y-72690000D02*
X69880000Y-80310000D01*
X69880000Y-73960000D02*
X80040000Y-73960000D01*
X69880000Y-80310000D02*
X80040000Y-80310000D01*
X80040000Y-72690000D02*
X69880000Y-72690000D01*
X80040000Y-80310000D02*
X80040000Y-72690000D01*
%TO.C,J6*%
X92546667Y-72690000D02*
X92546667Y-80310000D01*
X92546667Y-73960000D02*
X102706667Y-73960000D01*
X92546667Y-80310000D02*
X102706667Y-80310000D01*
X102706667Y-72690000D02*
X92546667Y-72690000D01*
X102706667Y-80310000D02*
X102706667Y-72690000D01*
%TO.C,J8*%
X115213334Y-72690000D02*
X115213334Y-80310000D01*
X115213334Y-73960000D02*
X125373334Y-73960000D01*
X115213334Y-80310000D02*
X125373334Y-80310000D01*
X125373334Y-72690000D02*
X115213334Y-72690000D01*
X125373334Y-80310000D02*
X125373334Y-72690000D01*
%TO.C,J13*%
X171880000Y-72690000D02*
X171880000Y-80310000D01*
X171880000Y-73960000D02*
X182040000Y-73960000D01*
X171880000Y-80310000D02*
X182040000Y-80310000D01*
X182040000Y-72690000D02*
X171880000Y-72690000D01*
X182040000Y-80310000D02*
X182040000Y-72690000D01*
%TO.C,J16*%
X205880000Y-72690000D02*
X205880000Y-80310000D01*
X205880000Y-73960000D02*
X216040000Y-73960000D01*
X205880000Y-80310000D02*
X216040000Y-80310000D01*
X216040000Y-72690000D02*
X205880000Y-72690000D01*
X216040000Y-80310000D02*
X216040000Y-72690000D01*
%TO.C,J27*%
X137920000Y-112690000D02*
X137920000Y-120310000D01*
X137920000Y-120310000D02*
X148080000Y-120310000D01*
X148080000Y-112690000D02*
X137920000Y-112690000D01*
X148080000Y-119040000D02*
X137920000Y-119040000D01*
X148080000Y-120310000D02*
X148080000Y-112690000D01*
%TO.C,J15*%
X194546667Y-72690000D02*
X194546667Y-80310000D01*
X194546667Y-73960000D02*
X204706667Y-73960000D01*
X194546667Y-80310000D02*
X204706667Y-80310000D01*
X204706667Y-72690000D02*
X194546667Y-72690000D01*
X204706667Y-80310000D02*
X204706667Y-72690000D01*
%TO.C,J17*%
X217690000Y-73420000D02*
X217690000Y-83580000D01*
X217690000Y-83580000D02*
X225310000Y-83580000D01*
X218960000Y-83580000D02*
X218960000Y-73420000D01*
X225310000Y-73420000D02*
X217690000Y-73420000D01*
X225310000Y-83580000D02*
X225310000Y-73420000D01*
%TO.C,J3*%
X58546667Y-72690000D02*
X58546667Y-80310000D01*
X58546667Y-73960000D02*
X68706667Y-73960000D01*
X58546667Y-80310000D02*
X68706667Y-80310000D01*
X68706667Y-72690000D02*
X58546667Y-72690000D01*
X68706667Y-80310000D02*
X68706667Y-72690000D01*
%TO.C,J28*%
X126586667Y-112690000D02*
X126586667Y-120310000D01*
X126586667Y-120310000D02*
X136746667Y-120310000D01*
X136746667Y-112690000D02*
X126586667Y-112690000D01*
X136746667Y-119040000D02*
X126586667Y-119040000D01*
X136746667Y-120310000D02*
X136746667Y-112690000D01*
%TO.C,J23*%
X183253334Y-112690000D02*
X183253334Y-120310000D01*
X183253334Y-120310000D02*
X193413334Y-120310000D01*
X193413334Y-112690000D02*
X183253334Y-112690000D01*
X193413334Y-119040000D02*
X183253334Y-119040000D01*
X193413334Y-120310000D02*
X193413334Y-112690000D01*
%TO.C,J22*%
X194586667Y-112690000D02*
X194586667Y-120310000D01*
X194586667Y-120310000D02*
X204746667Y-120310000D01*
X204746667Y-112690000D02*
X194586667Y-112690000D01*
X204746667Y-119040000D02*
X194586667Y-119040000D01*
X204746667Y-120310000D02*
X204746667Y-112690000D01*
%TO.C,J34*%
X58586667Y-112690000D02*
X58586667Y-120310000D01*
X58586667Y-120310000D02*
X68746667Y-120310000D01*
X68746667Y-112690000D02*
X58586667Y-112690000D01*
X68746667Y-119040000D02*
X58586667Y-119040000D01*
X68746667Y-120310000D02*
X68746667Y-112690000D01*
%TO.C,J19*%
X217690000Y-97780000D02*
X217690000Y-107940000D01*
X217690000Y-107940000D02*
X225310000Y-107940000D01*
X218960000Y-107940000D02*
X218960000Y-97780000D01*
X225310000Y-97780000D02*
X217690000Y-97780000D01*
X225310000Y-107940000D02*
X225310000Y-97780000D01*
%TO.C,J25*%
X160586667Y-112690000D02*
X160586667Y-120310000D01*
X160586667Y-120310000D02*
X170746667Y-120310000D01*
X170746667Y-112690000D02*
X160586667Y-112690000D01*
X170746667Y-119040000D02*
X160586667Y-119040000D01*
X170746667Y-120310000D02*
X170746667Y-112690000D01*
%TO.C,J14*%
X183213334Y-72690000D02*
X183213334Y-80310000D01*
X183213334Y-73960000D02*
X193373334Y-73960000D01*
X183213334Y-80310000D02*
X193373334Y-80310000D01*
X193373334Y-72690000D02*
X183213334Y-72690000D01*
X193373334Y-80310000D02*
X193373334Y-72690000D01*
%TO.C,J2*%
X55962067Y-101123200D02*
X55962067Y-110876800D01*
X55962067Y-110876800D02*
X58349667Y-110876800D01*
X58349667Y-100627900D02*
X58349667Y-111372100D01*
X58349667Y-101123200D02*
X55962067Y-101123200D01*
X58349667Y-111372100D02*
X79507867Y-111372100D01*
X79507867Y-100627900D02*
X58349667Y-100627900D01*
X79507867Y-111372100D02*
X79507867Y-100627900D01*
%TO.C,J20*%
X217690000Y-109960000D02*
X217690000Y-120120000D01*
X217690000Y-120120000D02*
X225310000Y-120120000D01*
X218960000Y-120120000D02*
X218960000Y-109960000D01*
X225310000Y-109960000D02*
X217690000Y-109960000D01*
X225310000Y-120120000D02*
X225310000Y-109960000D01*
%TO.C,J12*%
X160546667Y-72690000D02*
X160546667Y-80310000D01*
X160546667Y-73960000D02*
X170706667Y-73960000D01*
X160546667Y-80310000D02*
X170706667Y-80310000D01*
X170706667Y-72690000D02*
X160546667Y-72690000D01*
X170706667Y-80310000D02*
X170706667Y-72690000D01*
%TD*%
M02*
