M48
; DRILL file {KiCad 7.0.1-3b83917a11~172~ubuntu22.10.1} date mar. 26 sept. 2023 16:25:14
; FORMAT={-:-/ absolute / metric / decimal}
; #@! TF.CreationDate,2023-09-26T16:25:14+02:00
; #@! TF.GenerationSoftware,Kicad,Pcbnew,7.0.1-3b83917a11~172~ubuntu22.10.1
; #@! TF.FileFunction,MixedPlating,1,4
FMAT,2
METRIC
; #@! TA.AperFunction,Plated,PTH,ViaDrill
T1C0.350
; #@! TA.AperFunction,Plated,PTH,ViaDrill
T2C0.400
; #@! TA.AperFunction,Plated,PTH,ComponentDrill
T3C0.600
; #@! TA.AperFunction,Plated,PTH,ComponentDrill
T4C1.000
; #@! TA.AperFunction,Plated,PTH,ComponentDrill
T5C1.520
; #@! TA.AperFunction,Plated,PTH,ComponentDrill
T6C4.300
; #@! TA.AperFunction,NonPlated,NPTH,ComponentDrill
T7C4.300
%
G90
G05
T1
X173.125Y-80.775
X173.125Y-83.025
X174.1Y-88.2
X174.875Y-80.425
X175.625Y-87.975
X176.325Y-90.05
X178.15Y-84.7
X179.125Y-85.175
X181.025Y-88.2
X181.275Y-89.525
X182.2Y-88.0
X182.55Y-83.275
X183.025Y-87.55
X183.575Y-83.901
T2
X151.8Y-67.0
X151.8Y-68.1
X151.8Y-69.1
X151.8Y-70.1
X151.8Y-71.25
X152.4Y-76.4
X152.9Y-67.0
X152.9Y-71.25
X153.2Y-78.4
X153.2Y-83.8
X153.2Y-85.0
X153.4Y-76.4
X154.0Y-67.0
X154.0Y-71.25
X154.4Y-76.4
X154.4Y-78.4
X154.4Y-83.8
X154.4Y-85.0
X155.1Y-67.0
X155.1Y-71.25
X155.4Y-72.4
X155.4Y-76.4
X155.6Y-78.4
X155.6Y-83.8
X155.6Y-85.0
X156.2Y-67.0
X156.2Y-68.2
X156.2Y-69.2
X156.2Y-70.2
X156.2Y-71.25
X156.4Y-72.4
X156.4Y-73.4
X156.4Y-74.4
X156.4Y-75.4
X156.4Y-76.4
X156.8Y-78.4
X156.8Y-83.8
X156.8Y-85.0
X159.2Y-78.4
X159.2Y-83.8
X159.2Y-85.0
X160.4Y-78.4
X160.4Y-83.8
X160.4Y-85.0
X161.6Y-78.4
X161.6Y-83.8
X161.6Y-85.0
X162.2Y-72.5
X162.2Y-73.7
X162.2Y-74.7
X162.2Y-75.9
X162.8Y-78.4
X162.8Y-83.8
X162.8Y-85.0
X163.4Y-72.5
X163.4Y-73.7
X163.4Y-74.7
X163.4Y-75.9
X164.6Y-72.5
X164.6Y-73.7
X164.6Y-74.7
X164.6Y-75.9
X165.6Y-78.4
X165.6Y-83.8
X165.6Y-85.0
X165.8Y-72.5
X165.8Y-73.7
X165.8Y-74.7
X165.8Y-75.9
X166.8Y-78.4
X166.8Y-83.8
X166.8Y-85.0
X168.0Y-78.4
X168.0Y-83.8
X168.0Y-85.0
X169.2Y-78.4
X169.2Y-83.8
X169.2Y-85.0
X170.1Y-86.5
X171.0Y-89.0
X174.0Y-77.2
X174.8Y-77.2
X175.55Y-72.5
X175.55Y-73.7
X175.55Y-74.7
X175.55Y-75.9
X175.6Y-77.2
X176.75Y-72.5
X176.75Y-73.7
X176.75Y-74.7
X176.75Y-75.9
X176.9Y-77.725
X176.9Y-78.975
X177.425Y-80.675
X177.425Y-81.475
X177.825Y-82.175
X177.925Y-77.925
X177.925Y-78.725
X177.925Y-79.525
X177.95Y-72.5
X177.95Y-73.7
X177.95Y-74.7
X177.95Y-75.9
X178.225Y-80.675
X178.225Y-81.475
X178.625Y-82.175
X178.725Y-77.925
X178.725Y-78.725
X178.725Y-79.525
X179.025Y-80.675
X179.025Y-81.475
X179.15Y-72.5
X179.15Y-73.7
X179.15Y-74.7
X179.15Y-75.9
X179.425Y-82.175
X179.525Y-77.925
X179.525Y-78.725
X179.525Y-79.525
X179.825Y-80.675
X179.825Y-81.475
X180.225Y-82.175
X180.625Y-80.675
X180.625Y-81.475
X180.825Y-78.675
X180.825Y-79.475
X181.025Y-82.175
X181.425Y-80.675
X181.425Y-81.475
X181.625Y-77.875
X181.625Y-78.675
X181.625Y-79.475
X184.9Y-88.5
X187.2Y-67.2
X187.2Y-68.4
X187.2Y-75.2
X187.6Y-77.6
X187.6Y-83.0
X187.6Y-84.2
X188.4Y-67.2
X188.4Y-68.4
X188.4Y-75.2
X188.8Y-77.6
X188.8Y-83.0
X188.8Y-84.2
X189.6Y-67.2
X189.6Y-68.4
X189.6Y-75.2
X190.0Y-77.6
X190.0Y-83.0
X190.0Y-84.2
X190.8Y-67.2
X190.8Y-68.4
X190.8Y-75.2
X191.2Y-77.6
X191.2Y-83.0
X191.2Y-84.2
X193.6Y-77.6
X193.9Y-66.4
X193.9Y-67.5
X193.9Y-68.5
X193.9Y-69.5
X193.9Y-70.65
X194.0Y-72.4
X194.0Y-73.4
X194.0Y-74.4
X194.0Y-75.4
X194.0Y-83.0
X194.0Y-84.2
X194.8Y-77.6
X195.0Y-66.4
X195.0Y-70.65
X195.0Y-75.8
X195.2Y-83.0
X195.2Y-84.2
X196.0Y-75.8
X196.0Y-77.6
X196.1Y-66.4
X196.1Y-70.65
X196.4Y-83.0
X196.4Y-84.2
X197.0Y-75.8
X197.2Y-66.4
X197.2Y-70.65
X197.2Y-77.6
X197.6Y-83.0
X197.6Y-84.2
X198.0Y-75.8
X198.3Y-66.4
X198.3Y-67.6
X198.3Y-68.6
X198.3Y-69.6
X198.3Y-70.65
T3
X151.775Y-55.0
X152.72Y-52.72
X152.72Y-57.28
X155.0Y-51.775
X155.0Y-58.225
X157.28Y-52.72
X157.28Y-57.28
X158.225Y-55.0
X191.775Y-95.0
X192.72Y-92.72
X192.72Y-97.28
X195.0Y-91.775
X195.0Y-98.225
X197.28Y-92.72
X197.28Y-97.28
X198.225Y-95.0
T4
X169.9Y-98.1
X172.44Y-98.1
X174.98Y-98.1
X177.52Y-98.1
X180.06Y-98.1
T5
X154.025Y-69.11
X154.025Y-74.19
X196.1Y-68.56
X196.1Y-73.64
T6
X155.0Y-55.0
X195.0Y-95.0
T7
X155.0Y-95.0
X195.0Y-55.0
T0
M30
