M48
; DRILL file {KiCad 9.0.8+dfsg-1} date 2026-08-23T20:09:15+0200
; FORMAT={-:-/ absolute / metric / decimal}
; #@! TF.CreationDate,2026-08-23T20:09:15+02:00
; #@! TF.GenerationSoftware,Kicad,Pcbnew,9.0.8+dfsg-1
; #@! TF.FileFunction,Plated,1,2,PTH
FMAT,2
METRIC
; #@! TA.AperFunction,Plated,PTH,ViaDrill
T1C0.400
; #@! TA.AperFunction,Plated,PTH,ComponentDrill
T2C0.600
; #@! TA.AperFunction,Plated,PTH,ComponentDrill
T3C1.000
; #@! TA.AperFunction,Plated,PTH,ComponentDrill
T4C1.100
; #@! TA.AperFunction,Plated,PTH,ComponentDrill
T5C1.150
%
G90
G05
T1
X87.525Y-57.1
X87.525Y-60.9
X88.55Y-63.35
X89.255Y-54.855
X91.4Y-54.375
X92.575Y-54.825
X98.755Y-61.342
X98.875Y-57.047
X99.25Y-63.497
X99.5Y-58.197
X100.355Y-61.197
X100.4Y-58.398
X101.2Y-58.398
X101.953Y-61.448
X104.3Y-62.272
X105.8Y-59.225
X110.5Y-53.5
X111.5Y-52.8
X112.4Y-52.8
X113.4Y-52.8
X115.675Y-53.125
T3
X100.0Y-66.05
T4
X113.66Y-56.66
X113.66Y-61.74
X116.2Y-56.66
X116.2Y-61.74
X118.74Y-56.66
X118.74Y-61.74
T5
X108.3Y-66.0
T2
G00X99.88Y-52.0
M15
G01X99.88Y-51.4
M16
G05
G00X99.88Y-55.8
M15
G01X99.88Y-55.2
M16
G05
G00X108.52Y-52.0
M15
G01X108.52Y-51.4
M16
G05
G00X108.52Y-55.8
M15
G01X108.52Y-55.2
M16
G05
T3
G00X97.875Y-66.05
M15
G01X97.525Y-66.05
M16
G05
M30
