<?xml version="1.0" encoding="UTF-8" standalone="no"?>
<svg
   width="306mm"
   height="203mm"
   viewBox="0 0 306 203"
   version="1.1"
   preserveAspectRatio="xMidYMid meet"
   id="svg9"
   sodipodi:docname="box.svg"
   inkscape:version="1.1.1 (1:1.1+202109281949+c3084ef5ed)"
   xmlns:inkscape="http://www.inkscape.org/namespaces/inkscape"
   xmlns:sodipodi="http://sodipodi.sourceforge.net/DTD/sodipodi-0.dtd"
   xmlns="http://www.w3.org/2000/svg"
   xmlns:svg="http://www.w3.org/2000/svg">
  <defs
     id="defs13" />
  <sodipodi:namedview
     id="namedview11"
     pagecolor="#ffffff"
     bordercolor="#666666"
     borderopacity="1.0"
     inkscape:pageshadow="2"
     inkscape:pageopacity="0.0"
     inkscape:pagecheckerboard="0"
     inkscape:document-units="mm"
     showgrid="false"
     inkscape:zoom="0.74682882"
     inkscape:cx="380.94406"
     inkscape:cy="527.564"
     inkscape:window-width="1366"
     inkscape:window-height="715"
     inkscape:window-x="0"
     inkscape:window-y="0"
     inkscape:window-maximized="1"
     inkscape:current-layer="svg9" />
  <path
     d="m 0,134 v 10.5 h 3 v 15 H 0 v 15 h 3 v 15 H 0 V 200 h 12.5 v -3 h 15 v 3 h 15 v -3 h 15 v 3 h 15 v -3 h 15 v 3 H 100 v -10.5 h -3 v -15 h 3 v -15 h -3 v -15 h 3 V 134 H 87.5 v 3 h -15 v -3 h -15 v 3 h -15 v -3 h -15 v 3 h -15 v -3 z"
     id="front_outsideCutPath"
     stroke="#FF0000"
     stroke-width="0.1"
     style="font-size:12px;fill:none;fill-rule:evenodd;stroke:#ff0000;stroke-width:0.1;stroke-linecap:round;stroke-miterlimit:4;stroke-dasharray:none"
     vector-effect="non-scaling-stroke" />
  <path
     d="m 106,137 v 10.5 h -3 v 15 h 3 v 15 h -3 v 15 h 3 V 203 h 9.5 v -3 h 15 v 3 h 15 v -3 h 15 v 3 h 15 v -3 h 15 v 3 h 9.5 v -10.5 h 3 v -15 h -3 v -15 h 3 v -15 h -3 V 137 h -9.5 v 3 h -15 v -3 h -15 v 3 h -15 v -3 h -15 v 3 h -15 v -3 z"
     id="left_outsideCutPath"
     stroke="#FF0000"
     stroke-width="0.1"
     style="font-size:12px;fill:none;fill-rule:evenodd;stroke:#ff0000;stroke-width:0.1;stroke-linecap:round;stroke-miterlimit:4;stroke-dasharray:none"
     vector-effect="non-scaling-stroke" />
  <path
     d="m 209,106 v 9.5 h -3 v 15 h 3 v 15 h -3 v 15 h 3 v 15 h -3 v 15 h 3 v 9.5 h 9.5 v 3 h 15 v -3 h 15 v 3 h 15 v -3 h 15 v 3 h 15 v -3 h 9.5 v -9.5 h 3 v -15 h -3 v -15 h 3 v -15 h -3 v -15 h 3 v -15 h -3 V 106 h -9.5 v -3 h -15 v 3 h -15 v -3 h -15 v 3 h -15 v -3 h -15 v 3 z"
     id="top_outsideCutPath"
     stroke="#FF0000"
     stroke-width="0.1"
     style="font-size:12px;fill:none;fill-rule:evenodd;stroke:#ff0000;stroke-width:0.1;stroke-linecap:round;stroke-miterlimit:4;stroke-dasharray:none"
     vector-effect="non-scaling-stroke" />
  <path
     d="m 0,68 v 10.5 h 3 v 15 H 0 v 15 h 3 v 15 H 0 V 134 h 12.5 v -3 h 15 v 3 h 15 v -3 h 15 v 3 h 15 v -3 h 15 v 3 H 100 v -10.5 h -3 v -15 h 3 v -15 h -3 v -15 h 3 V 68 H 87.5 v 3 h -15 v -3 h -15 v 3 h -15 v -3 h -15 v 3 h -15 v -3 z"
     id="back_outsideCutPath"
     stroke="#FF0000"
     stroke-width="0.1"
     style="font-size:12px;fill:none;fill-rule:evenodd;stroke:#ff0000;stroke-width:0.1;stroke-linecap:round;stroke-miterlimit:4;stroke-dasharray:none"
     vector-effect="non-scaling-stroke" />
  <path
     d="m 106,68 v 10.5 h -3 v 15 h 3 v 15 h -3 v 15 h 3 V 134 h 9.5 v -3 h 15 v 3 h 15 v -3 h 15 v 3 h 15 v -3 h 15 v 3 h 9.5 v -10.5 h 3 v -15 h -3 v -15 h 3 v -15 h -3 V 68 h -9.5 v 3 h -15 v -3 h -15 v 3 h -15 v -3 h -15 v 3 h -15 v -3 z"
     id="right_outsideCutPath"
     stroke="#FF0000"
     stroke-width="0.1"
     style="font-size:12px;fill:none;fill-rule:evenodd;stroke:#ff0000;stroke-width:0.1;stroke-linecap:round;stroke-miterlimit:4;stroke-dasharray:none"
     vector-effect="non-scaling-stroke" />
  <path
     d="m 209,3 v 9.5 h -3 v 15 h 3 v 15 h -3 v 15 h 3 v 15 h -3 v 15 h 3 V 97 h 9.5 v 3 h 15 v -3 h 15 v 3 h 15 v -3 h 15 v 3 h 15 v -3 h 9.5 v -9.5 h 3 v -15 h -3 v -15 h 3 v -15 h -3 v -15 h 3 v -15 h -3 V 3 h -9.5 V 0 h -15 v 3 h -15 V 0 h -15 v 3 h -15 V 0 h -15 v 3 z"
     id="bottom_outsideCutPath"
     stroke="#FF0000"
     stroke-width="0.1"
     style="font-size:12px;fill:none;fill-rule:evenodd;stroke:#ff0000;stroke-width:0.1;stroke-linecap:round;stroke-miterlimit:4;stroke-dasharray:none"
     vector-effect="non-scaling-stroke" />
  <circle
     style="fill:none;stroke:#ff0000;stroke-width:0.1;stroke-miterlimit:4;stroke-dasharray:none;stroke-opacity:1"
     id="path1621"
     cx="256"
     cy="71.988991"
     r="4" />
  <g
     id="g2079"
     transform="translate(193.5,46.744694)"
     style="stroke-width:0.1;stroke-miterlimit:4;stroke-dasharray:none">
    <ellipse
       style="fill:none;stroke:#ff0000;stroke-width:0.1;stroke-miterlimit:4;stroke-dasharray:none;stroke-opacity:1"
       id="path1621-9"
       cx="43.5"
       cy="-25.75"
       rx="3.25"
       ry="4" />
    <ellipse
       style="fill:none;stroke:#ff0000;stroke-width:0.1;stroke-miterlimit:4;stroke-dasharray:none;stroke-opacity:1"
       id="path1621-9-2"
       cx="62.5"
       cy="-25.75"
       rx="3.25"
       ry="4" />
    <ellipse
       style="fill:none;stroke:#ff0000;stroke-width:0.1;stroke-miterlimit:4;stroke-dasharray:none;stroke-opacity:1"
       id="path1621-9-28"
       cx="81.5"
       cy="-25.75"
       rx="3.25"
       ry="4" />
  </g>
  <text
     xml:space="preserve"
     style="font-style:normal;font-variant:normal;font-weight:normal;font-stretch:normal;font-size:5px;line-height:1.25;font-family:'DejaVu Sans Mono';-inkscape-font-specification:'DejaVu Sans Mono';letter-spacing:0px;word-spacing:0px;fill:#000000;fill-opacity:1;stroke:none;stroke-width:1;stroke-miterlimit:4;stroke-dasharray:none"
     x="235.63086"
     y="13.745819"
     id="text4173"><tspan
       sodipodi:role="line"
       id="tspan4171"
       style="font-style:normal;font-variant:normal;font-weight:bold;font-stretch:normal;font-size:5px;font-family:'DejaVu Sans Mono';-inkscape-font-specification:'DejaVu Sans Mono';stroke-width:1;stroke-miterlimit:4;stroke-dasharray:none"
       x="235.63086"
       y="13.745819"><tspan
   style="font-size:7px;stroke-width:1;stroke-miterlimit:4;stroke-dasharray:none"
   id="tspan24599">+</tspan>    GND    <tspan
   style="font-size:7px;stroke-width:1;stroke-miterlimit:4;stroke-dasharray:none"
   id="tspan26177">-</tspan></tspan></text>
</svg>
