M48
; DRILL file {KiCad 5.1.5+dfsg1-2build2} date jeu. 06 janv. 2022 20:42:23
; FORMAT={-:-/ absolute / metric / decimal}
; #@! TF.CreationDate,2022-01-06T20:42:23+01:00
; #@! TF.GenerationSoftware,Kicad,Pcbnew,5.1.5+dfsg1-2build2
FMAT,2
METRIC
T1C0.750
T2C0.800
T3C0.900
T4C1.000
T5C1.100
T6C1.501
T7C2.500
%
G90
G05
T1
X216.215Y-78.895
X216.215Y-81.435
X215.58Y-93.5
X215.58Y-94.77
X215.58Y-96.04
X200.975Y-103.66
X200.975Y-104.93
X200.975Y-106.2
X216.215Y-85.88
X216.215Y-87.15
X216.215Y-88.42
X215.58Y-100.485
X215.58Y-101.755
X215.58Y-103.025
X201.61Y-75.72
X201.61Y-76.99
X201.61Y-78.26
X216.215Y-80.165
T2
X217.142Y-90.96
X230.505Y-106.807
X223.2Y-93.5
X223.2Y-103.66
X242.57Y-132.08
X242.57Y-139.7
X249.315Y-100.485
X254.315Y-100.485
X211.77Y-92.865
X211.77Y-103.025
X194.31Y-111.125
X201.93Y-111.125
X208.595Y-78.895
X208.595Y-89.055
X202.245Y-81.435
X202.245Y-89.055
X235.585Y-109.22
X245.745Y-109.22
X237.49Y-129.54
X245.11Y-129.54
X202.245Y-92.865
X202.245Y-100.485
X247.65Y-130.175
X257.81Y-130.175
X247.65Y-127.0
X257.81Y-127.0
X223.2Y-78.26
X223.2Y-88.42
X194.31Y-118.745
X201.93Y-118.745
X229.55Y-78.26
X229.55Y-88.42
X219.075Y-123.825
X219.075Y-133.985
X250.19Y-133.985
X260.35Y-133.985
X250.19Y-123.825
X260.35Y-123.825
X196.53Y-76.99
X196.53Y-89.69
X242.824Y-96.139
X245.324Y-96.139
X237.49Y-127.0
X245.11Y-127.0
X242.864Y-85.344
X245.364Y-85.344
X228.045Y-109.855
X233.045Y-109.855
X211.455Y-123.825
X211.455Y-133.985
X249.235Y-80.8
X254.235Y-80.8
X226.625Y-113.665
X226.625Y-116.205
X226.625Y-118.745
X226.625Y-121.285
X226.625Y-123.825
X226.625Y-126.365
X226.625Y-128.905
X234.245Y-113.665
X234.245Y-116.205
X234.245Y-118.745
X234.245Y-121.285
X234.245Y-123.825
X234.245Y-126.365
X234.245Y-128.905
X220.025Y-93.5
X220.025Y-103.66
X203.835Y-123.825
X203.835Y-133.985
X196.53Y-92.23
X196.53Y-104.93
X192.72Y-92.23
X192.72Y-102.39
X208.28Y-114.935
X218.44Y-114.935
X194.31Y-113.665
X201.93Y-113.665
X240.03Y-132.08
X240.03Y-139.7
X205.42Y-92.865
X205.42Y-103.025
X237.49Y-123.825
X247.65Y-123.825
X214.63Y-140.335
X222.25Y-140.335
X242.925Y-78.26
X245.425Y-78.26
X242.885Y-103.025
X245.385Y-103.025
X211.77Y-78.895
X211.77Y-89.055
X226.375Y-93.5
X226.375Y-103.66
X220.025Y-78.26
X220.025Y-88.42
X237.49Y-112.395
X237.49Y-120.015
X214.63Y-137.795
X222.25Y-137.795
X243.205Y-111.84
X243.205Y-116.84
X226.375Y-78.26
X226.375Y-88.42
X200.66Y-123.825
X200.66Y-133.985
X229.55Y-93.5
X229.55Y-103.66
X240.03Y-112.395
X240.03Y-120.015
X205.42Y-78.895
X205.42Y-89.055
X194.31Y-116.205
X201.93Y-116.205
X208.595Y-92.865
X208.595Y-103.025
X222.25Y-123.825
X222.25Y-133.985
X250.19Y-138.43
X260.35Y-138.43
T3
X245.11Y-133.985
X247.65Y-133.985
X245.11Y-138.557
X247.65Y-138.557
T4
X205.105Y-119.38
X207.645Y-119.38
X210.185Y-119.38
X211.455Y-137.16
X211.455Y-139.7
X243.205Y-120.015
X245.745Y-120.015
X251.14Y-88.42
X251.14Y-93.42
X215.265Y-119.38
X217.805Y-119.38
X220.345Y-119.38
T5
X233.045Y-97.31
X233.045Y-99.85
X233.045Y-102.39
X248.92Y-109.855
X248.92Y-112.395
X248.92Y-114.935
X233.045Y-79.53
X233.045Y-82.07
X233.045Y-84.61
X249.235Y-76.99
X259.395Y-76.99
X259.08Y-109.855
X259.08Y-112.395
X259.08Y-114.935
X249.235Y-104.295
X259.395Y-104.295
T6
X234.63Y-90.96
X239.71Y-90.96
X259.395Y-86.515
X259.395Y-90.96
X259.395Y-95.405
X196.5Y-125.92
X196.5Y-131.0
T7
X210.9Y-111.125
X215.9Y-111.125
X222.25Y-109.855
X222.25Y-114.855
X254.635Y-108.585
X254.635Y-118.745
X215.265Y-123.825
X215.265Y-133.985
X226.06Y-133.35
X236.22Y-133.35
X201.93Y-139.065
X206.93Y-139.065
X207.645Y-123.825
X207.645Y-133.985
T0
M30
