  0
SECTION
  2
HEADER
  9
$ANGBASE
  50
0.0
  9
$ANGDIR
  70
1
  9
$MEASUREMENT
  70
1
  0
ENDSEC
  0
SECTION
  2
TABLES
  0
TABLE
  2
LTYPE
  70
4
  0
LTYPE
  5
40F
  2
CONTINUOUS
  70
0
  3
Solid line
  72
65
  73
0
  40
0.0
  0
LTYPE
  5
410
  2
DASHDOT
 70
0
  3
Dash Dot ____ _ ____ _
 72
65
 73
4
 40
2.0
 49
1.25
 49
-0.25
 49
0.25
 49
-0.25
  0
LTYPE
  5
411
  2
DASHED
 70
0
  3
Dashed __ __ __ __ __
 72
65
 73
2
 40
0.75
 49
0.5
 49
-0.25
  0
LTYPE
  5
43B
  2
DOTTED
 70
0
  3
Dotted .  .  .  .
 72
65
 73
2
 40
0.2
 49
0.0
 49
-0.2
  0
ENDTAB
  0
TABLE
  2
STYLE
  70
4
  0
STYLE
  2
KICAD
  70
0
  40
0
  41
1
  42
1
  50
0
  71
0
  3
isocp.shx
  0
STYLE
  2
KICADB
  70
0
  40
0
  41
1
  42
1
  50
0
  71
0
  3
isocp.shx
  0
STYLE
  2
KICADI
  70
0
  40
0
  41
1
  42
1
  50
15
  71
0
  3
isocp.shx
  0
STYLE
  2
KICADBI
  70
0
  40
0
  41
1
  42
1
  50
15
  71
0
  3
isocp.shx
  0
ENDTAB
  0
TABLE
  2
LAYER
  70
1
  0
LAYER
  2
BLACK
  70
0
  62
7
  6
CONTINUOUS
  0
ENDTAB
  0
ENDSEC
  0
SECTION
  2
ENTITIES
0
CIRCLE
8
BLACK
10
238.74
20
-85.455
40
1.5
0
CIRCLE
8
BLACK
10
195.24
20
-137.455
40
1.5
0
ARC
8
BLACK
10
195.24
20
-78
40
5
50
90
51
180
0
ARC
8
BLACK
10
260
20
-78
40
5
50
-0
51
90
0
ARC
8
BLACK
10
260
20
-137.5
40
5
50
-90
51
-0
0
ARC
8
BLACK
10
195.24
20
-137.455
40
5
50
180
51
270
0
LINE
8
BLACK
6
CONTINUOUS
10
190.24
20
-78
11
190.24
21
-137.455
0
LINE
8
BLACK
6
CONTINUOUS
10
260
20
-73
11
195.24
21
-73
0
LINE
8
BLACK
6
CONTINUOUS
10
265
20
-137.5
11
265
21
-78
0
LINE
8
BLACK
6
CONTINUOUS
10
195.24
20
-142.455
11
260
21
-142.5
0
LINE
8
BLACK
6
CONTINUOUS
10
215.84
20
-78.52
11
216.59
21
-79.27
0
LINE
8
BLACK
6
CONTINUOUS
10
216.59
20
-78.52
11
215.84
21
-79.27
0
LINE
8
BLACK
6
CONTINUOUS
10
215.84
20
-81.06
11
216.59
21
-81.81
0
LINE
8
BLACK
6
CONTINUOUS
10
216.59
20
-81.06
11
215.84
21
-81.81
0
LINE
8
BLACK
6
CONTINUOUS
10
215.205
20
-93.125
11
215.955
21
-93.875
0
LINE
8
BLACK
6
CONTINUOUS
10
215.955
20
-93.125
11
215.205
21
-93.875
0
LINE
8
BLACK
6
CONTINUOUS
10
215.205
20
-94.395
11
215.955
21
-95.145
0
LINE
8
BLACK
6
CONTINUOUS
10
215.955
20
-94.395
11
215.205
21
-95.145
0
LINE
8
BLACK
6
CONTINUOUS
10
215.205
20
-95.665
11
215.955
21
-96.415
0
LINE
8
BLACK
6
CONTINUOUS
10
215.955
20
-95.665
11
215.205
21
-96.415
0
LINE
8
BLACK
6
CONTINUOUS
10
200.6
20
-103.285
11
201.35
21
-104.035
0
LINE
8
BLACK
6
CONTINUOUS
10
201.35
20
-103.285
11
200.6
21
-104.035
0
LINE
8
BLACK
6
CONTINUOUS
10
200.6
20
-104.555
11
201.35
21
-105.305
0
LINE
8
BLACK
6
CONTINUOUS
10
201.35
20
-104.555
11
200.6
21
-105.305
0
LINE
8
BLACK
6
CONTINUOUS
10
200.6
20
-105.825
11
201.35
21
-106.575
0
LINE
8
BLACK
6
CONTINUOUS
10
201.35
20
-105.825
11
200.6
21
-106.575
0
LINE
8
BLACK
6
CONTINUOUS
10
215.84
20
-85.505
11
216.59
21
-86.255
0
LINE
8
BLACK
6
CONTINUOUS
10
216.59
20
-85.505
11
215.84
21
-86.255
0
LINE
8
BLACK
6
CONTINUOUS
10
215.84
20
-86.775
11
216.59
21
-87.525
0
LINE
8
BLACK
6
CONTINUOUS
10
216.59
20
-86.775
11
215.84
21
-87.525
0
LINE
8
BLACK
6
CONTINUOUS
10
215.84
20
-88.045
11
216.59
21
-88.795
0
LINE
8
BLACK
6
CONTINUOUS
10
216.59
20
-88.045
11
215.84
21
-88.795
0
LINE
8
BLACK
6
CONTINUOUS
10
215.205
20
-100.11
11
215.955
21
-100.86
0
LINE
8
BLACK
6
CONTINUOUS
10
215.955
20
-100.11
11
215.205
21
-100.86
0
LINE
8
BLACK
6
CONTINUOUS
10
215.205
20
-101.38
11
215.955
21
-102.13
0
LINE
8
BLACK
6
CONTINUOUS
10
215.955
20
-101.38
11
215.205
21
-102.13
0
LINE
8
BLACK
6
CONTINUOUS
10
215.205
20
-102.65
11
215.955
21
-103.4
0
LINE
8
BLACK
6
CONTINUOUS
10
215.955
20
-102.65
11
215.205
21
-103.4
0
LINE
8
BLACK
6
CONTINUOUS
10
201.235
20
-75.345
11
201.985
21
-76.095
0
LINE
8
BLACK
6
CONTINUOUS
10
201.985
20
-75.345
11
201.235
21
-76.095
0
LINE
8
BLACK
6
CONTINUOUS
10
201.235
20
-76.615
11
201.985
21
-77.365
0
LINE
8
BLACK
6
CONTINUOUS
10
201.985
20
-76.615
11
201.235
21
-77.365
0
LINE
8
BLACK
6
CONTINUOUS
10
201.235
20
-77.885
11
201.985
21
-78.635
0
LINE
8
BLACK
6
CONTINUOUS
10
201.985
20
-77.885
11
201.235
21
-78.635
0
LINE
8
BLACK
6
CONTINUOUS
10
215.84
20
-79.79
11
216.59
21
-80.54
0
LINE
8
BLACK
6
CONTINUOUS
10
216.59
20
-79.79
11
215.84
21
-80.54
0
CIRCLE
8
BLACK
10
217.142
20
-90.96
40
0.4
0
CIRCLE
8
BLACK
10
230.505
20
-106.807
40
0.4
0
CIRCLE
8
BLACK
10
223.2
20
-93.5
40
0.4
0
CIRCLE
8
BLACK
10
223.2
20
-103.66
40
0.4
0
CIRCLE
8
BLACK
10
242.57
20
-132.08
40
0.4
0
CIRCLE
8
BLACK
10
242.57
20
-139.7
40
0.4
0
CIRCLE
8
BLACK
10
249.315
20
-100.485
40
0.4
0
CIRCLE
8
BLACK
10
254.315
20
-100.485
40
0.4
0
CIRCLE
8
BLACK
10
211.77
20
-92.865
40
0.4
0
CIRCLE
8
BLACK
10
211.77
20
-103.025
40
0.4
0
CIRCLE
8
BLACK
10
194.31
20
-111.125
40
0.4
0
CIRCLE
8
BLACK
10
201.93
20
-111.125
40
0.4
0
CIRCLE
8
BLACK
10
208.595
20
-78.895
40
0.4
0
CIRCLE
8
BLACK
10
208.595
20
-89.055
40
0.4
0
CIRCLE
8
BLACK
10
202.245
20
-81.435
40
0.4
0
CIRCLE
8
BLACK
10
202.245
20
-89.055
40
0.4
0
CIRCLE
8
BLACK
10
235.585
20
-109.22
40
0.4
0
CIRCLE
8
BLACK
10
245.745
20
-109.22
40
0.4
0
CIRCLE
8
BLACK
10
237.49
20
-129.54
40
0.4
0
CIRCLE
8
BLACK
10
245.11
20
-129.54
40
0.4
0
CIRCLE
8
BLACK
10
202.245
20
-92.865
40
0.4
0
CIRCLE
8
BLACK
10
202.245
20
-100.485
40
0.4
0
CIRCLE
8
BLACK
10
247.65
20
-130.175
40
0.4
0
CIRCLE
8
BLACK
10
257.81
20
-130.175
40
0.4
0
CIRCLE
8
BLACK
10
247.65
20
-127
40
0.4
0
CIRCLE
8
BLACK
10
257.81
20
-127
40
0.4
0
CIRCLE
8
BLACK
10
223.2
20
-78.26
40
0.4
0
CIRCLE
8
BLACK
10
223.2
20
-88.42
40
0.4
0
CIRCLE
8
BLACK
10
194.31
20
-118.745
40
0.4
0
CIRCLE
8
BLACK
10
201.93
20
-118.745
40
0.4
0
CIRCLE
8
BLACK
10
229.55
20
-78.26
40
0.4
0
CIRCLE
8
BLACK
10
229.55
20
-88.42
40
0.4
0
CIRCLE
8
BLACK
10
219.075
20
-123.825
40
0.4
0
CIRCLE
8
BLACK
10
219.075
20
-133.985
40
0.4
0
CIRCLE
8
BLACK
10
250.19
20
-133.985
40
0.4
0
CIRCLE
8
BLACK
10
260.35
20
-133.985
40
0.4
0
CIRCLE
8
BLACK
10
250.19
20
-123.825
40
0.4
0
CIRCLE
8
BLACK
10
260.35
20
-123.825
40
0.4
0
CIRCLE
8
BLACK
10
196.53
20
-76.99
40
0.4
0
CIRCLE
8
BLACK
10
196.53
20
-89.69
40
0.4
0
CIRCLE
8
BLACK
10
242.824
20
-96.139
40
0.4
0
CIRCLE
8
BLACK
10
245.324
20
-96.139
40
0.4
0
CIRCLE
8
BLACK
10
237.49
20
-127
40
0.4
0
CIRCLE
8
BLACK
10
245.11
20
-127
40
0.4
0
CIRCLE
8
BLACK
10
242.864
20
-85.344
40
0.4
0
CIRCLE
8
BLACK
10
245.364
20
-85.344
40
0.4
0
CIRCLE
8
BLACK
10
228.045
20
-109.855
40
0.4
0
CIRCLE
8
BLACK
10
233.045
20
-109.855
40
0.4
0
CIRCLE
8
BLACK
10
211.455
20
-123.825
40
0.4
0
CIRCLE
8
BLACK
10
211.455
20
-133.985
40
0.4
0
CIRCLE
8
BLACK
10
249.235
20
-80.8
40
0.4
0
CIRCLE
8
BLACK
10
254.235
20
-80.8
40
0.4
0
CIRCLE
8
BLACK
10
226.625
20
-113.665
40
0.4
0
CIRCLE
8
BLACK
10
226.625
20
-116.205
40
0.4
0
CIRCLE
8
BLACK
10
226.625
20
-118.745
40
0.4
0
CIRCLE
8
BLACK
10
226.625
20
-121.285
40
0.4
0
CIRCLE
8
BLACK
10
226.625
20
-123.825
40
0.4
0
CIRCLE
8
BLACK
10
226.625
20
-126.365
40
0.4
0
CIRCLE
8
BLACK
10
226.625
20
-128.905
40
0.4
0
CIRCLE
8
BLACK
10
234.245
20
-113.665
40
0.4
0
CIRCLE
8
BLACK
10
234.245
20
-116.205
40
0.4
0
CIRCLE
8
BLACK
10
234.245
20
-118.745
40
0.4
0
CIRCLE
8
BLACK
10
234.245
20
-121.285
40
0.4
0
CIRCLE
8
BLACK
10
234.245
20
-123.825
40
0.4
0
CIRCLE
8
BLACK
10
234.245
20
-126.365
40
0.4
0
CIRCLE
8
BLACK
10
234.245
20
-128.905
40
0.4
0
CIRCLE
8
BLACK
10
220.025
20
-93.5
40
0.4
0
CIRCLE
8
BLACK
10
220.025
20
-103.66
40
0.4
0
CIRCLE
8
BLACK
10
203.835
20
-123.825
40
0.4
0
CIRCLE
8
BLACK
10
203.835
20
-133.985
40
0.4
0
CIRCLE
8
BLACK
10
196.53
20
-92.23
40
0.4
0
CIRCLE
8
BLACK
10
196.53
20
-104.93
40
0.4
0
CIRCLE
8
BLACK
10
192.72
20
-92.23
40
0.4
0
CIRCLE
8
BLACK
10
192.72
20
-102.39
40
0.4
0
CIRCLE
8
BLACK
10
208.28
20
-114.935
40
0.4
0
CIRCLE
8
BLACK
10
218.44
20
-114.935
40
0.4
0
CIRCLE
8
BLACK
10
194.31
20
-113.665
40
0.4
0
CIRCLE
8
BLACK
10
201.93
20
-113.665
40
0.4
0
CIRCLE
8
BLACK
10
240.03
20
-132.08
40
0.4
0
CIRCLE
8
BLACK
10
240.03
20
-139.7
40
0.4
0
CIRCLE
8
BLACK
10
205.42
20
-92.865
40
0.4
0
CIRCLE
8
BLACK
10
205.42
20
-103.025
40
0.4
0
CIRCLE
8
BLACK
10
237.49
20
-123.825
40
0.4
0
CIRCLE
8
BLACK
10
247.65
20
-123.825
40
0.4
0
CIRCLE
8
BLACK
10
214.63
20
-140.335
40
0.4
0
CIRCLE
8
BLACK
10
222.25
20
-140.335
40
0.4
0
CIRCLE
8
BLACK
10
242.925
20
-78.26
40
0.4
0
CIRCLE
8
BLACK
10
245.425
20
-78.26
40
0.4
0
CIRCLE
8
BLACK
10
242.885
20
-103.025
40
0.4
0
CIRCLE
8
BLACK
10
245.385
20
-103.025
40
0.4
0
CIRCLE
8
BLACK
10
211.77
20
-78.895
40
0.4
0
CIRCLE
8
BLACK
10
211.77
20
-89.055
40
0.4
0
CIRCLE
8
BLACK
10
226.375
20
-93.5
40
0.4
0
CIRCLE
8
BLACK
10
226.375
20
-103.66
40
0.4
0
CIRCLE
8
BLACK
10
220.025
20
-78.26
40
0.4
0
CIRCLE
8
BLACK
10
220.025
20
-88.42
40
0.4
0
CIRCLE
8
BLACK
10
237.49
20
-112.395
40
0.4
0
CIRCLE
8
BLACK
10
237.49
20
-120.015
40
0.4
0
CIRCLE
8
BLACK
10
214.63
20
-137.795
40
0.4
0
CIRCLE
8
BLACK
10
222.25
20
-137.795
40
0.4
0
CIRCLE
8
BLACK
10
243.205
20
-111.84
40
0.4
0
CIRCLE
8
BLACK
10
243.205
20
-116.84
40
0.4
0
CIRCLE
8
BLACK
10
226.375
20
-78.26
40
0.4
0
CIRCLE
8
BLACK
10
226.375
20
-88.42
40
0.4
0
CIRCLE
8
BLACK
10
200.66
20
-123.825
40
0.4
0
CIRCLE
8
BLACK
10
200.66
20
-133.985
40
0.4
0
CIRCLE
8
BLACK
10
229.55
20
-93.5
40
0.4
0
CIRCLE
8
BLACK
10
229.55
20
-103.66
40
0.4
0
CIRCLE
8
BLACK
10
240.03
20
-112.395
40
0.4
0
CIRCLE
8
BLACK
10
240.03
20
-120.015
40
0.4
0
CIRCLE
8
BLACK
10
205.42
20
-78.895
40
0.4
0
CIRCLE
8
BLACK
10
205.42
20
-89.055
40
0.4
0
CIRCLE
8
BLACK
10
194.31
20
-116.205
40
0.4
0
CIRCLE
8
BLACK
10
201.93
20
-116.205
40
0.4
0
CIRCLE
8
BLACK
10
208.595
20
-92.865
40
0.4
0
CIRCLE
8
BLACK
10
208.595
20
-103.025
40
0.4
0
CIRCLE
8
BLACK
10
222.25
20
-123.825
40
0.4
0
CIRCLE
8
BLACK
10
222.25
20
-133.985
40
0.4
0
CIRCLE
8
BLACK
10
250.19
20
-138.43
40
0.4
0
CIRCLE
8
BLACK
10
260.35
20
-138.43
40
0.4
0
LINE
8
BLACK
6
CONTINUOUS
10
245.11
20
-133.535
11
245.11
21
-134.435
0
LINE
8
BLACK
6
CONTINUOUS
10
244.66
20
-133.985
11
245.56
21
-133.985
0
LINE
8
BLACK
6
CONTINUOUS
10
247.65
20
-133.535
11
247.65
21
-134.435
0
LINE
8
BLACK
6
CONTINUOUS
10
247.2
20
-133.985
11
248.1
21
-133.985
0
LINE
8
BLACK
6
CONTINUOUS
10
245.11
20
-138.107
11
245.11
21
-139.007
0
LINE
8
BLACK
6
CONTINUOUS
10
244.66
20
-138.557
11
245.56
21
-138.557
0
LINE
8
BLACK
6
CONTINUOUS
10
247.65
20
-138.107
11
247.65
21
-139.007
0
LINE
8
BLACK
6
CONTINUOUS
10
247.2
20
-138.557
11
248.1
21
-138.557
0
LINE
8
BLACK
6
CONTINUOUS
10
205.459
20
-119.734
11
205.459
21
-119.026
0
LINE
8
BLACK
6
CONTINUOUS
10
205.459
20
-119.026
11
204.751
21
-119.026
0
LINE
8
BLACK
6
CONTINUOUS
10
204.751
20
-119.026
11
204.751
21
-119.734
0
LINE
8
BLACK
6
CONTINUOUS
10
204.751
20
-119.734
11
205.459
21
-119.734
0
LINE
8
BLACK
6
CONTINUOUS
10
207.999
20
-119.734
11
207.999
21
-119.026
0
LINE
8
BLACK
6
CONTINUOUS
10
207.999
20
-119.026
11
207.291
21
-119.026
0
LINE
8
BLACK
6
CONTINUOUS
10
207.291
20
-119.026
11
207.291
21
-119.734
0
LINE
8
BLACK
6
CONTINUOUS
10
207.291
20
-119.734
11
207.999
21
-119.734
0
LINE
8
BLACK
6
CONTINUOUS
10
210.539
20
-119.734
11
210.539
21
-119.026
0
LINE
8
BLACK
6
CONTINUOUS
10
210.539
20
-119.026
11
209.831
21
-119.026
0
LINE
8
BLACK
6
CONTINUOUS
10
209.831
20
-119.026
11
209.831
21
-119.734
0
LINE
8
BLACK
6
CONTINUOUS
10
209.831
20
-119.734
11
210.539
21
-119.734
0
LINE
8
BLACK
6
CONTINUOUS
10
211.809
20
-137.514
11
211.809
21
-136.806
0
LINE
8
BLACK
6
CONTINUOUS
10
211.809
20
-136.806
11
211.101
21
-136.806
0
LINE
8
BLACK
6
CONTINUOUS
10
211.101
20
-136.806
11
211.101
21
-137.514
0
LINE
8
BLACK
6
CONTINUOUS
10
211.101
20
-137.514
11
211.809
21
-137.514
0
LINE
8
BLACK
6
CONTINUOUS
10
211.809
20
-140.054
11
211.809
21
-139.346
0
LINE
8
BLACK
6
CONTINUOUS
10
211.809
20
-139.346
11
211.101
21
-139.346
0
LINE
8
BLACK
6
CONTINUOUS
10
211.101
20
-139.346
11
211.101
21
-140.054
0
LINE
8
BLACK
6
CONTINUOUS
10
211.101
20
-140.054
11
211.809
21
-140.054
0
LINE
8
BLACK
6
CONTINUOUS
10
243.559
20
-120.369
11
243.559
21
-119.661
0
LINE
8
BLACK
6
CONTINUOUS
10
243.559
20
-119.661
11
242.851
21
-119.661
0
LINE
8
BLACK
6
CONTINUOUS
10
242.851
20
-119.661
11
242.851
21
-120.369
0
LINE
8
BLACK
6
CONTINUOUS
10
242.851
20
-120.369
11
243.559
21
-120.369
0
LINE
8
BLACK
6
CONTINUOUS
10
246.099
20
-120.369
11
246.099
21
-119.661
0
LINE
8
BLACK
6
CONTINUOUS
10
246.099
20
-119.661
11
245.391
21
-119.661
0
LINE
8
BLACK
6
CONTINUOUS
10
245.391
20
-119.661
11
245.391
21
-120.369
0
LINE
8
BLACK
6
CONTINUOUS
10
245.391
20
-120.369
11
246.099
21
-120.369
0
LINE
8
BLACK
6
CONTINUOUS
10
251.494
20
-88.7736
11
251.494
21
-88.0664
0
LINE
8
BLACK
6
CONTINUOUS
10
251.494
20
-88.0664
11
250.786
21
-88.0664
0
LINE
8
BLACK
6
CONTINUOUS
10
250.786
20
-88.0664
11
250.786
21
-88.7736
0
LINE
8
BLACK
6
CONTINUOUS
10
250.786
20
-88.7736
11
251.494
21
-88.7736
0
LINE
8
BLACK
6
CONTINUOUS
10
251.494
20
-93.7736
11
251.494
21
-93.0664
0
LINE
8
BLACK
6
CONTINUOUS
10
251.494
20
-93.0664
11
250.786
21
-93.0664
0
LINE
8
BLACK
6
CONTINUOUS
10
250.786
20
-93.0664
11
250.786
21
-93.7736
0
LINE
8
BLACK
6
CONTINUOUS
10
250.786
20
-93.7736
11
251.494
21
-93.7736
0
LINE
8
BLACK
6
CONTINUOUS
10
215.619
20
-119.734
11
215.619
21
-119.026
0
LINE
8
BLACK
6
CONTINUOUS
10
215.619
20
-119.026
11
214.911
21
-119.026
0
LINE
8
BLACK
6
CONTINUOUS
10
214.911
20
-119.026
11
214.911
21
-119.734
0
LINE
8
BLACK
6
CONTINUOUS
10
214.911
20
-119.734
11
215.619
21
-119.734
0
LINE
8
BLACK
6
CONTINUOUS
10
218.159
20
-119.734
11
218.159
21
-119.026
0
LINE
8
BLACK
6
CONTINUOUS
10
218.159
20
-119.026
11
217.451
21
-119.026
0
LINE
8
BLACK
6
CONTINUOUS
10
217.451
20
-119.026
11
217.451
21
-119.734
0
LINE
8
BLACK
6
CONTINUOUS
10
217.451
20
-119.734
11
218.159
21
-119.734
0
LINE
8
BLACK
6
CONTINUOUS
10
220.699
20
-119.734
11
220.699
21
-119.026
0
LINE
8
BLACK
6
CONTINUOUS
10
220.699
20
-119.026
11
219.991
21
-119.026
0
LINE
8
BLACK
6
CONTINUOUS
10
219.991
20
-119.026
11
219.991
21
-119.734
0
LINE
8
BLACK
6
CONTINUOUS
10
219.991
20
-119.734
11
220.699
21
-119.734
0
LINE
8
BLACK
6
CONTINUOUS
10
233.045
20
-97.86
11
233.595
21
-97.31
0
LINE
8
BLACK
6
CONTINUOUS
10
233.595
20
-97.31
11
233.045
21
-96.76
0
LINE
8
BLACK
6
CONTINUOUS
10
233.045
20
-96.76
11
232.495
21
-97.31
0
LINE
8
BLACK
6
CONTINUOUS
10
232.495
20
-97.31
11
233.045
21
-97.86
0
LINE
8
BLACK
6
CONTINUOUS
10
233.045
20
-100.4
11
233.595
21
-99.85
0
LINE
8
BLACK
6
CONTINUOUS
10
233.595
20
-99.85
11
233.045
21
-99.3
0
LINE
8
BLACK
6
CONTINUOUS
10
233.045
20
-99.3
11
232.495
21
-99.85
0
LINE
8
BLACK
6
CONTINUOUS
10
232.495
20
-99.85
11
233.045
21
-100.4
0
LINE
8
BLACK
6
CONTINUOUS
10
233.045
20
-102.94
11
233.595
21
-102.39
0
LINE
8
BLACK
6
CONTINUOUS
10
233.595
20
-102.39
11
233.045
21
-101.84
0
LINE
8
BLACK
6
CONTINUOUS
10
233.045
20
-101.84
11
232.495
21
-102.39
0
LINE
8
BLACK
6
CONTINUOUS
10
232.495
20
-102.39
11
233.045
21
-102.94
0
LINE
8
BLACK
6
CONTINUOUS
10
248.92
20
-110.405
11
249.47
21
-109.855
0
LINE
8
BLACK
6
CONTINUOUS
10
249.47
20
-109.855
11
248.92
21
-109.305
0
LINE
8
BLACK
6
CONTINUOUS
10
248.92
20
-109.305
11
248.37
21
-109.855
0
LINE
8
BLACK
6
CONTINUOUS
10
248.37
20
-109.855
11
248.92
21
-110.405
0
LINE
8
BLACK
6
CONTINUOUS
10
248.92
20
-112.945
11
249.47
21
-112.395
0
LINE
8
BLACK
6
CONTINUOUS
10
249.47
20
-112.395
11
248.92
21
-111.845
0
LINE
8
BLACK
6
CONTINUOUS
10
248.92
20
-111.845
11
248.37
21
-112.395
0
LINE
8
BLACK
6
CONTINUOUS
10
248.37
20
-112.395
11
248.92
21
-112.945
0
LINE
8
BLACK
6
CONTINUOUS
10
248.92
20
-115.485
11
249.47
21
-114.935
0
LINE
8
BLACK
6
CONTINUOUS
10
249.47
20
-114.935
11
248.92
21
-114.385
0
LINE
8
BLACK
6
CONTINUOUS
10
248.92
20
-114.385
11
248.37
21
-114.935
0
LINE
8
BLACK
6
CONTINUOUS
10
248.37
20
-114.935
11
248.92
21
-115.485
0
LINE
8
BLACK
6
CONTINUOUS
10
233.045
20
-80.08
11
233.595
21
-79.53
0
LINE
8
BLACK
6
CONTINUOUS
10
233.595
20
-79.53
11
233.045
21
-78.98
0
LINE
8
BLACK
6
CONTINUOUS
10
233.045
20
-78.98
11
232.495
21
-79.53
0
LINE
8
BLACK
6
CONTINUOUS
10
232.495
20
-79.53
11
233.045
21
-80.08
0
LINE
8
BLACK
6
CONTINUOUS
10
233.045
20
-82.62
11
233.595
21
-82.07
0
LINE
8
BLACK
6
CONTINUOUS
10
233.595
20
-82.07
11
233.045
21
-81.52
0
LINE
8
BLACK
6
CONTINUOUS
10
233.045
20
-81.52
11
232.495
21
-82.07
0
LINE
8
BLACK
6
CONTINUOUS
10
232.495
20
-82.07
11
233.045
21
-82.62
0
LINE
8
BLACK
6
CONTINUOUS
10
233.045
20
-85.16
11
233.595
21
-84.61
0
LINE
8
BLACK
6
CONTINUOUS
10
233.595
20
-84.61
11
233.045
21
-84.06
0
LINE
8
BLACK
6
CONTINUOUS
10
233.045
20
-84.06
11
232.495
21
-84.61
0
LINE
8
BLACK
6
CONTINUOUS
10
232.495
20
-84.61
11
233.045
21
-85.16
0
LINE
8
BLACK
6
CONTINUOUS
10
249.235
20
-77.54
11
249.785
21
-76.99
0
LINE
8
BLACK
6
CONTINUOUS
10
249.785
20
-76.99
11
249.235
21
-76.44
0
LINE
8
BLACK
6
CONTINUOUS
10
249.235
20
-76.44
11
248.685
21
-76.99
0
LINE
8
BLACK
6
CONTINUOUS
10
248.685
20
-76.99
11
249.235
21
-77.54
0
LINE
8
BLACK
6
CONTINUOUS
10
259.395
20
-77.54
11
259.945
21
-76.99
0
LINE
8
BLACK
6
CONTINUOUS
10
259.945
20
-76.99
11
259.395
21
-76.44
0
LINE
8
BLACK
6
CONTINUOUS
10
259.395
20
-76.44
11
258.845
21
-76.99
0
LINE
8
BLACK
6
CONTINUOUS
10
258.845
20
-76.99
11
259.395
21
-77.54
0
LINE
8
BLACK
6
CONTINUOUS
10
259.08
20
-110.405
11
259.63
21
-109.855
0
LINE
8
BLACK
6
CONTINUOUS
10
259.63
20
-109.855
11
259.08
21
-109.305
0
LINE
8
BLACK
6
CONTINUOUS
10
259.08
20
-109.305
11
258.53
21
-109.855
0
LINE
8
BLACK
6
CONTINUOUS
10
258.53
20
-109.855
11
259.08
21
-110.405
0
LINE
8
BLACK
6
CONTINUOUS
10
259.08
20
-112.945
11
259.63
21
-112.395
0
LINE
8
BLACK
6
CONTINUOUS
10
259.63
20
-112.395
11
259.08
21
-111.845
0
LINE
8
BLACK
6
CONTINUOUS
10
259.08
20
-111.845
11
258.53
21
-112.395
0
LINE
8
BLACK
6
CONTINUOUS
10
258.53
20
-112.395
11
259.08
21
-112.945
0
LINE
8
BLACK
6
CONTINUOUS
10
259.08
20
-115.485
11
259.63
21
-114.935
0
LINE
8
BLACK
6
CONTINUOUS
10
259.63
20
-114.935
11
259.08
21
-114.385
0
LINE
8
BLACK
6
CONTINUOUS
10
259.08
20
-114.385
11
258.53
21
-114.935
0
LINE
8
BLACK
6
CONTINUOUS
10
258.53
20
-114.935
11
259.08
21
-115.485
0
LINE
8
BLACK
6
CONTINUOUS
10
249.235
20
-104.845
11
249.785
21
-104.295
0
LINE
8
BLACK
6
CONTINUOUS
10
249.785
20
-104.295
11
249.235
21
-103.745
0
LINE
8
BLACK
6
CONTINUOUS
10
249.235
20
-103.745
11
248.685
21
-104.295
0
LINE
8
BLACK
6
CONTINUOUS
10
248.685
20
-104.295
11
249.235
21
-104.845
0
LINE
8
BLACK
6
CONTINUOUS
10
259.395
20
-104.845
11
259.945
21
-104.295
0
LINE
8
BLACK
6
CONTINUOUS
10
259.945
20
-104.295
11
259.395
21
-103.745
0
LINE
8
BLACK
6
CONTINUOUS
10
259.395
20
-103.745
11
258.845
21
-104.295
0
LINE
8
BLACK
6
CONTINUOUS
10
258.845
20
-104.295
11
259.395
21
-104.845
0
LINE
8
BLACK
6
CONTINUOUS
10
233.879
20
-90.2094
11
235.381
21
-91.7106
0
LINE
8
BLACK
6
CONTINUOUS
10
235.381
20
-90.2094
11
233.879
21
-91.7106
0
CIRCLE
8
BLACK
10
234.63
20
-90.96
40
0.75057
0
LINE
8
BLACK
6
CONTINUOUS
10
238.959
20
-90.2094
11
240.461
21
-91.7106
0
LINE
8
BLACK
6
CONTINUOUS
10
240.461
20
-90.2094
11
238.959
21
-91.7106
0
CIRCLE
8
BLACK
10
239.71
20
-90.96
40
0.75057
0
LINE
8
BLACK
6
CONTINUOUS
10
258.644
20
-85.7644
11
260.146
21
-87.2656
0
LINE
8
BLACK
6
CONTINUOUS
10
260.146
20
-85.7644
11
258.644
21
-87.2656
0
CIRCLE
8
BLACK
10
259.395
20
-86.515
40
0.75057
0
LINE
8
BLACK
6
CONTINUOUS
10
258.644
20
-90.2094
11
260.146
21
-91.7106
0
LINE
8
BLACK
6
CONTINUOUS
10
260.146
20
-90.2094
11
258.644
21
-91.7106
0
CIRCLE
8
BLACK
10
259.395
20
-90.96
40
0.75057
0
LINE
8
BLACK
6
CONTINUOUS
10
258.644
20
-94.6544
11
260.146
21
-96.1556
0
LINE
8
BLACK
6
CONTINUOUS
10
260.146
20
-94.6544
11
258.644
21
-96.1556
0
CIRCLE
8
BLACK
10
259.395
20
-95.405
40
0.75057
0
LINE
8
BLACK
6
CONTINUOUS
10
195.749
20
-125.169
11
197.251
21
-126.671
0
LINE
8
BLACK
6
CONTINUOUS
10
197.251
20
-125.169
11
195.749
21
-126.671
0
CIRCLE
8
BLACK
10
196.5
20
-125.92
40
0.75057
0
LINE
8
BLACK
6
CONTINUOUS
10
195.749
20
-130.249
11
197.251
21
-131.751
0
LINE
8
BLACK
6
CONTINUOUS
10
197.251
20
-130.249
11
195.749
21
-131.751
0
CIRCLE
8
BLACK
10
196.5
20
-131
40
0.75057
0
LINE
8
BLACK
6
CONTINUOUS
10
209.65
20
-109.875
11
212.15
21
-112.375
0
LINE
8
BLACK
6
CONTINUOUS
10
212.15
20
-109.875
11
209.65
21
-112.375
0
LINE
8
BLACK
6
CONTINUOUS
10
210.9
20
-109.875
11
210.9
21
-112.375
0
LINE
8
BLACK
6
CONTINUOUS
10
209.65
20
-111.125
11
212.15
21
-111.125
0
LINE
8
BLACK
6
CONTINUOUS
10
214.65
20
-109.875
11
217.15
21
-112.375
0
LINE
8
BLACK
6
CONTINUOUS
10
217.15
20
-109.875
11
214.65
21
-112.375
0
LINE
8
BLACK
6
CONTINUOUS
10
215.9
20
-109.875
11
215.9
21
-112.375
0
LINE
8
BLACK
6
CONTINUOUS
10
214.65
20
-111.125
11
217.15
21
-111.125
0
LINE
8
BLACK
6
CONTINUOUS
10
221
20
-108.605
11
223.5
21
-111.105
0
LINE
8
BLACK
6
CONTINUOUS
10
223.5
20
-108.605
11
221
21
-111.105
0
LINE
8
BLACK
6
CONTINUOUS
10
222.25
20
-108.605
11
222.25
21
-111.105
0
LINE
8
BLACK
6
CONTINUOUS
10
221
20
-109.855
11
223.5
21
-109.855
0
LINE
8
BLACK
6
CONTINUOUS
10
221
20
-113.605
11
223.5
21
-116.105
0
LINE
8
BLACK
6
CONTINUOUS
10
223.5
20
-113.605
11
221
21
-116.105
0
LINE
8
BLACK
6
CONTINUOUS
10
222.25
20
-113.605
11
222.25
21
-116.105
0
LINE
8
BLACK
6
CONTINUOUS
10
221
20
-114.855
11
223.5
21
-114.855
0
LINE
8
BLACK
6
CONTINUOUS
10
253.385
20
-107.335
11
255.885
21
-109.835
0
LINE
8
BLACK
6
CONTINUOUS
10
255.885
20
-107.335
11
253.385
21
-109.835
0
LINE
8
BLACK
6
CONTINUOUS
10
254.635
20
-107.335
11
254.635
21
-109.835
0
LINE
8
BLACK
6
CONTINUOUS
10
253.385
20
-108.585
11
255.885
21
-108.585
0
LINE
8
BLACK
6
CONTINUOUS
10
253.385
20
-117.495
11
255.885
21
-119.995
0
LINE
8
BLACK
6
CONTINUOUS
10
255.885
20
-117.495
11
253.385
21
-119.995
0
LINE
8
BLACK
6
CONTINUOUS
10
254.635
20
-117.495
11
254.635
21
-119.995
0
LINE
8
BLACK
6
CONTINUOUS
10
253.385
20
-118.745
11
255.885
21
-118.745
0
LINE
8
BLACK
6
CONTINUOUS
10
214.015
20
-122.575
11
216.515
21
-125.075
0
LINE
8
BLACK
6
CONTINUOUS
10
216.515
20
-122.575
11
214.015
21
-125.075
0
LINE
8
BLACK
6
CONTINUOUS
10
215.265
20
-122.575
11
215.265
21
-125.075
0
LINE
8
BLACK
6
CONTINUOUS
10
214.015
20
-123.825
11
216.515
21
-123.825
0
LINE
8
BLACK
6
CONTINUOUS
10
214.015
20
-132.735
11
216.515
21
-135.235
0
LINE
8
BLACK
6
CONTINUOUS
10
216.515
20
-132.735
11
214.015
21
-135.235
0
LINE
8
BLACK
6
CONTINUOUS
10
215.265
20
-132.735
11
215.265
21
-135.235
0
LINE
8
BLACK
6
CONTINUOUS
10
214.015
20
-133.985
11
216.515
21
-133.985
0
LINE
8
BLACK
6
CONTINUOUS
10
224.81
20
-132.1
11
227.31
21
-134.6
0
LINE
8
BLACK
6
CONTINUOUS
10
227.31
20
-132.1
11
224.81
21
-134.6
0
LINE
8
BLACK
6
CONTINUOUS
10
226.06
20
-132.1
11
226.06
21
-134.6
0
LINE
8
BLACK
6
CONTINUOUS
10
224.81
20
-133.35
11
227.31
21
-133.35
0
LINE
8
BLACK
6
CONTINUOUS
10
234.97
20
-132.1
11
237.47
21
-134.6
0
LINE
8
BLACK
6
CONTINUOUS
10
237.47
20
-132.1
11
234.97
21
-134.6
0
LINE
8
BLACK
6
CONTINUOUS
10
236.22
20
-132.1
11
236.22
21
-134.6
0
LINE
8
BLACK
6
CONTINUOUS
10
234.97
20
-133.35
11
237.47
21
-133.35
0
LINE
8
BLACK
6
CONTINUOUS
10
200.68
20
-137.815
11
203.18
21
-140.315
0
LINE
8
BLACK
6
CONTINUOUS
10
203.18
20
-137.815
11
200.68
21
-140.315
0
LINE
8
BLACK
6
CONTINUOUS
10
201.93
20
-137.815
11
201.93
21
-140.315
0
LINE
8
BLACK
6
CONTINUOUS
10
200.68
20
-139.065
11
203.18
21
-139.065
0
LINE
8
BLACK
6
CONTINUOUS
10
205.68
20
-137.815
11
208.18
21
-140.315
0
LINE
8
BLACK
6
CONTINUOUS
10
208.18
20
-137.815
11
205.68
21
-140.315
0
LINE
8
BLACK
6
CONTINUOUS
10
206.93
20
-137.815
11
206.93
21
-140.315
0
LINE
8
BLACK
6
CONTINUOUS
10
205.68
20
-139.065
11
208.18
21
-139.065
0
LINE
8
BLACK
6
CONTINUOUS
10
206.395
20
-122.575
11
208.895
21
-125.075
0
LINE
8
BLACK
6
CONTINUOUS
10
208.895
20
-122.575
11
206.395
21
-125.075
0
LINE
8
BLACK
6
CONTINUOUS
10
207.645
20
-122.575
11
207.645
21
-125.075
0
LINE
8
BLACK
6
CONTINUOUS
10
206.395
20
-123.825
11
208.895
21
-123.825
0
LINE
8
BLACK
6
CONTINUOUS
10
206.395
20
-132.735
11
208.895
21
-135.235
0
LINE
8
BLACK
6
CONTINUOUS
10
208.895
20
-132.735
11
206.395
21
-135.235
0
LINE
8
BLACK
6
CONTINUOUS
10
207.645
20
-132.735
11
207.645
21
-135.235
0
LINE
8
BLACK
6
CONTINUOUS
10
206.395
20
-133.985
11
208.895
21
-133.985
0
LINE
8
BLACK
6
CONTINUOUS
10
193.079
20
-147.182
11
193.079
21
-144.182
0
LINE
8
BLACK
6
CONTINUOUS
10
193.079
20
-144.182
11
193.794
21
-144.182
0
LINE
8
BLACK
6
CONTINUOUS
10
193.794
20
-144.182
11
194.222
21
-144.325
0
LINE
8
BLACK
6
CONTINUOUS
10
194.222
20
-144.325
11
194.508
21
-144.611
0
LINE
8
BLACK
6
CONTINUOUS
10
194.508
20
-144.611
11
194.651
21
-144.896
0
LINE
8
BLACK
6
CONTINUOUS
10
194.651
20
-144.896
11
194.794
21
-145.468
0
LINE
8
BLACK
6
CONTINUOUS
10
194.794
20
-145.468
11
194.794
21
-145.896
0
LINE
8
BLACK
6
CONTINUOUS
10
194.794
20
-145.896
11
194.651
21
-146.468
0
LINE
8
BLACK
6
CONTINUOUS
10
194.651
20
-146.468
11
194.508
21
-146.754
0
LINE
8
BLACK
6
CONTINUOUS
10
194.508
20
-146.754
11
194.222
21
-147.039
0
LINE
8
BLACK
6
CONTINUOUS
10
194.222
20
-147.039
11
193.794
21
-147.182
0
LINE
8
BLACK
6
CONTINUOUS
10
193.794
20
-147.182
11
193.079
21
-147.182
0
LINE
8
BLACK
6
CONTINUOUS
10
196.079
20
-147.182
11
196.079
21
-145.182
0
LINE
8
BLACK
6
CONTINUOUS
10
196.079
20
-145.754
11
196.222
21
-145.468
0
LINE
8
BLACK
6
CONTINUOUS
10
196.222
20
-145.468
11
196.365
21
-145.325
0
LINE
8
BLACK
6
CONTINUOUS
10
196.365
20
-145.325
11
196.651
21
-145.182
0
LINE
8
BLACK
6
CONTINUOUS
10
196.651
20
-145.182
11
196.936
21
-145.182
0
LINE
8
BLACK
6
CONTINUOUS
10
197.936
20
-147.182
11
197.936
21
-145.182
0
LINE
8
BLACK
6
CONTINUOUS
10
197.936
20
-144.182
11
197.794
21
-144.325
0
LINE
8
BLACK
6
CONTINUOUS
10
197.794
20
-144.325
11
197.936
21
-144.468
0
LINE
8
BLACK
6
CONTINUOUS
10
197.936
20
-144.468
11
198.079
21
-144.325
0
LINE
8
BLACK
6
CONTINUOUS
10
198.079
20
-144.325
11
197.936
21
-144.182
0
LINE
8
BLACK
6
CONTINUOUS
10
197.936
20
-144.182
11
197.936
21
-144.468
0
LINE
8
BLACK
6
CONTINUOUS
10
199.794
20
-147.182
11
199.508
21
-147.039
0
LINE
8
BLACK
6
CONTINUOUS
10
199.508
20
-147.039
11
199.365
21
-146.754
0
LINE
8
BLACK
6
CONTINUOUS
10
199.365
20
-146.754
11
199.365
21
-144.182
0
LINE
8
BLACK
6
CONTINUOUS
10
201.365
20
-147.182
11
201.079
21
-147.039
0
LINE
8
BLACK
6
CONTINUOUS
10
201.079
20
-147.039
11
200.936
21
-146.754
0
LINE
8
BLACK
6
CONTINUOUS
10
200.936
20
-146.754
11
200.936
21
-144.182
0
LINE
8
BLACK
6
CONTINUOUS
10
204.794
20
-147.182
11
204.794
21
-144.182
0
LINE
8
BLACK
6
CONTINUOUS
10
204.794
20
-144.182
11
205.794
21
-146.325
0
LINE
8
BLACK
6
CONTINUOUS
10
205.794
20
-146.325
11
206.794
21
-144.182
0
LINE
8
BLACK
6
CONTINUOUS
10
206.794
20
-144.182
11
206.794
21
-147.182
0
LINE
8
BLACK
6
CONTINUOUS
10
209.508
20
-147.182
11
209.508
21
-145.611
0
LINE
8
BLACK
6
CONTINUOUS
10
209.508
20
-145.611
11
209.365
21
-145.325
0
LINE
8
BLACK
6
CONTINUOUS
10
209.365
20
-145.325
11
209.079
21
-145.182
0
LINE
8
BLACK
6
CONTINUOUS
10
209.079
20
-145.182
11
208.508
21
-145.182
0
LINE
8
BLACK
6
CONTINUOUS
10
208.508
20
-145.182
11
208.222
21
-145.325
0
LINE
8
BLACK
6
CONTINUOUS
10
209.508
20
-147.039
11
209.222
21
-147.182
0
LINE
8
BLACK
6
CONTINUOUS
10
209.222
20
-147.182
11
208.508
21
-147.182
0
LINE
8
BLACK
6
CONTINUOUS
10
208.508
20
-147.182
11
208.222
21
-147.039
0
LINE
8
BLACK
6
CONTINUOUS
10
208.222
20
-147.039
11
208.079
21
-146.754
0
LINE
8
BLACK
6
CONTINUOUS
10
208.079
20
-146.754
11
208.079
21
-146.468
0
LINE
8
BLACK
6
CONTINUOUS
10
208.079
20
-146.468
11
208.222
21
-146.182
0
LINE
8
BLACK
6
CONTINUOUS
10
208.222
20
-146.182
11
208.508
21
-146.039
0
LINE
8
BLACK
6
CONTINUOUS
10
208.508
20
-146.039
11
209.222
21
-146.039
0
LINE
8
BLACK
6
CONTINUOUS
10
209.222
20
-146.039
11
209.508
21
-145.896
0
LINE
8
BLACK
6
CONTINUOUS
10
210.936
20
-145.182
11
210.936
21
-148.182
0
LINE
8
BLACK
6
CONTINUOUS
10
210.936
20
-145.325
11
211.222
21
-145.182
0
LINE
8
BLACK
6
CONTINUOUS
10
211.222
20
-145.182
11
211.794
21
-145.182
0
LINE
8
BLACK
6
CONTINUOUS
10
211.794
20
-145.182
11
212.079
21
-145.325
0
LINE
8
BLACK
6
CONTINUOUS
10
212.079
20
-145.325
11
212.222
21
-145.468
0
LINE
8
BLACK
6
CONTINUOUS
10
212.222
20
-145.468
11
212.365
21
-145.754
0
LINE
8
BLACK
6
CONTINUOUS
10
212.365
20
-145.754
11
212.365
21
-146.611
0
LINE
8
BLACK
6
CONTINUOUS
10
212.365
20
-146.611
11
212.222
21
-146.896
0
LINE
8
BLACK
6
CONTINUOUS
10
212.222
20
-146.896
11
212.079
21
-147.039
0
LINE
8
BLACK
6
CONTINUOUS
10
212.079
20
-147.039
11
211.794
21
-147.182
0
LINE
8
BLACK
6
CONTINUOUS
10
211.794
20
-147.182
11
211.222
21
-147.182
0
LINE
8
BLACK
6
CONTINUOUS
10
211.222
20
-147.182
11
210.936
21
-147.039
0
LINE
8
BLACK
6
CONTINUOUS
10
213.651
20
-146.896
11
213.794
21
-147.039
0
LINE
8
BLACK
6
CONTINUOUS
10
213.794
20
-147.039
11
213.651
21
-147.182
0
LINE
8
BLACK
6
CONTINUOUS
10
213.651
20
-147.182
11
213.508
21
-147.039
0
LINE
8
BLACK
6
CONTINUOUS
10
213.508
20
-147.039
11
213.651
21
-146.896
0
LINE
8
BLACK
6
CONTINUOUS
10
213.651
20
-146.896
11
213.651
21
-147.182
0
LINE
8
BLACK
6
CONTINUOUS
10
213.651
20
-145.325
11
213.794
21
-145.468
0
LINE
8
BLACK
6
CONTINUOUS
10
213.794
20
-145.468
11
213.651
21
-145.611
0
LINE
8
BLACK
6
CONTINUOUS
10
213.651
20
-145.611
11
213.508
21
-145.468
0
LINE
8
BLACK
6
CONTINUOUS
10
213.508
20
-145.468
11
213.651
21
-145.325
0
LINE
8
BLACK
6
CONTINUOUS
10
213.651
20
-145.325
11
213.651
21
-145.611
0
LINE
8
BLACK
6
CONTINUOUS
10
189.465
20
-151.75
11
190.215
21
-152.5
0
LINE
8
BLACK
6
CONTINUOUS
10
190.215
20
-151.75
11
189.465
21
-152.5
0
LINE
8
BLACK
6
CONTINUOUS
10
193.651
20
-150.482
11
193.936
21
-150.482
0
LINE
8
BLACK
6
CONTINUOUS
10
193.936
20
-150.482
11
194.222
21
-150.625
0
LINE
8
BLACK
6
CONTINUOUS
10
194.222
20
-150.625
11
194.365
21
-150.768
0
LINE
8
BLACK
6
CONTINUOUS
10
194.365
20
-150.768
11
194.508
21
-151.054
0
LINE
8
BLACK
6
CONTINUOUS
10
194.508
20
-151.054
11
194.651
21
-151.625
0
LINE
8
BLACK
6
CONTINUOUS
10
194.651
20
-151.625
11
194.651
21
-152.339
0
LINE
8
BLACK
6
CONTINUOUS
10
194.651
20
-152.339
11
194.508
21
-152.911
0
LINE
8
BLACK
6
CONTINUOUS
10
194.508
20
-152.911
11
194.365
21
-153.196
0
LINE
8
BLACK
6
CONTINUOUS
10
194.365
20
-153.196
11
194.222
21
-153.339
0
LINE
8
BLACK
6
CONTINUOUS
10
194.222
20
-153.339
11
193.936
21
-153.482
0
LINE
8
BLACK
6
CONTINUOUS
10
193.936
20
-153.482
11
193.651
21
-153.482
0
LINE
8
BLACK
6
CONTINUOUS
10
193.651
20
-153.482
11
193.365
21
-153.339
0
LINE
8
BLACK
6
CONTINUOUS
10
193.365
20
-153.339
11
193.222
21
-153.196
0
LINE
8
BLACK
6
CONTINUOUS
10
193.222
20
-153.196
11
193.079
21
-152.911
0
LINE
8
BLACK
6
CONTINUOUS
10
193.079
20
-152.911
11
192.936
21
-152.339
0
LINE
8
BLACK
6
CONTINUOUS
10
192.936
20
-152.339
11
192.936
21
-151.625
0
LINE
8
BLACK
6
CONTINUOUS
10
192.936
20
-151.625
11
193.079
21
-151.054
0
LINE
8
BLACK
6
CONTINUOUS
10
193.079
20
-151.054
11
193.222
21
-150.768
0
LINE
8
BLACK
6
CONTINUOUS
10
193.222
20
-150.768
11
193.365
21
-150.625
0
LINE
8
BLACK
6
CONTINUOUS
10
193.365
20
-150.625
11
193.651
21
-150.482
0
LINE
8
BLACK
6
CONTINUOUS
10
195.936
20
-153.196
11
196.079
21
-153.339
0
LINE
8
BLACK
6
CONTINUOUS
10
196.079
20
-153.339
11
195.936
21
-153.482
0
LINE
8
BLACK
6
CONTINUOUS
10
195.936
20
-153.482
11
195.794
21
-153.339
0
LINE
8
BLACK
6
CONTINUOUS
10
195.794
20
-153.339
11
195.936
21
-153.196
0
LINE
8
BLACK
6
CONTINUOUS
10
195.936
20
-153.196
11
195.936
21
-153.482
0
LINE
8
BLACK
6
CONTINUOUS
10
197.079
20
-150.482
11
199.079
21
-150.482
0
LINE
8
BLACK
6
CONTINUOUS
10
199.079
20
-150.482
11
197.794
21
-153.482
0
LINE
8
BLACK
6
CONTINUOUS
10
201.651
20
-150.482
11
200.222
21
-150.482
0
LINE
8
BLACK
6
CONTINUOUS
10
200.222
20
-150.482
11
200.079
21
-151.911
0
LINE
8
BLACK
6
CONTINUOUS
10
200.079
20
-151.911
11
200.222
21
-151.768
0
LINE
8
BLACK
6
CONTINUOUS
10
200.222
20
-151.768
11
200.508
21
-151.625
0
LINE
8
BLACK
6
CONTINUOUS
10
200.508
20
-151.625
11
201.222
21
-151.625
0
LINE
8
BLACK
6
CONTINUOUS
10
201.222
20
-151.625
11
201.508
21
-151.768
0
LINE
8
BLACK
6
CONTINUOUS
10
201.508
20
-151.768
11
201.651
21
-151.911
0
LINE
8
BLACK
6
CONTINUOUS
10
201.651
20
-151.911
11
201.794
21
-152.196
0
LINE
8
BLACK
6
CONTINUOUS
10
201.794
20
-152.196
11
201.794
21
-152.911
0
LINE
8
BLACK
6
CONTINUOUS
10
201.794
20
-152.911
11
201.651
21
-153.196
0
LINE
8
BLACK
6
CONTINUOUS
10
201.651
20
-153.196
11
201.508
21
-153.339
0
LINE
8
BLACK
6
CONTINUOUS
10
201.508
20
-153.339
11
201.222
21
-153.482
0
LINE
8
BLACK
6
CONTINUOUS
10
201.222
20
-153.482
11
200.508
21
-153.482
0
LINE
8
BLACK
6
CONTINUOUS
10
200.508
20
-153.482
11
200.222
21
-153.339
0
LINE
8
BLACK
6
CONTINUOUS
10
200.222
20
-153.339
11
200.079
21
-153.196
0
LINE
8
BLACK
6
CONTINUOUS
10
203.079
20
-153.482
11
203.079
21
-151.482
0
LINE
8
BLACK
6
CONTINUOUS
10
203.079
20
-151.768
11
203.222
21
-151.625
0
LINE
8
BLACK
6
CONTINUOUS
10
203.222
20
-151.625
11
203.508
21
-151.482
0
LINE
8
BLACK
6
CONTINUOUS
10
203.508
20
-151.482
11
203.936
21
-151.482
0
LINE
8
BLACK
6
CONTINUOUS
10
203.936
20
-151.482
11
204.222
21
-151.625
0
LINE
8
BLACK
6
CONTINUOUS
10
204.222
20
-151.625
11
204.365
21
-151.911
0
LINE
8
BLACK
6
CONTINUOUS
10
204.365
20
-151.911
11
204.365
21
-153.482
0
LINE
8
BLACK
6
CONTINUOUS
10
204.365
20
-151.911
11
204.508
21
-151.625
0
LINE
8
BLACK
6
CONTINUOUS
10
204.508
20
-151.625
11
204.794
21
-151.482
0
LINE
8
BLACK
6
CONTINUOUS
10
204.794
20
-151.482
11
205.222
21
-151.482
0
LINE
8
BLACK
6
CONTINUOUS
10
205.222
20
-151.482
11
205.508
21
-151.625
0
LINE
8
BLACK
6
CONTINUOUS
10
205.508
20
-151.625
11
205.651
21
-151.911
0
LINE
8
BLACK
6
CONTINUOUS
10
205.651
20
-151.911
11
205.651
21
-153.482
0
LINE
8
BLACK
6
CONTINUOUS
10
207.079
20
-153.482
11
207.079
21
-151.482
0
LINE
8
BLACK
6
CONTINUOUS
10
207.079
20
-151.768
11
207.222
21
-151.625
0
LINE
8
BLACK
6
CONTINUOUS
10
207.222
20
-151.625
11
207.508
21
-151.482
0
LINE
8
BLACK
6
CONTINUOUS
10
207.508
20
-151.482
11
207.936
21
-151.482
0
LINE
8
BLACK
6
CONTINUOUS
10
207.936
20
-151.482
11
208.222
21
-151.625
0
LINE
8
BLACK
6
CONTINUOUS
10
208.222
20
-151.625
11
208.365
21
-151.911
0
LINE
8
BLACK
6
CONTINUOUS
10
208.365
20
-151.911
11
208.365
21
-153.482
0
LINE
8
BLACK
6
CONTINUOUS
10
208.365
20
-151.911
11
208.508
21
-151.625
0
LINE
8
BLACK
6
CONTINUOUS
10
208.508
20
-151.625
11
208.794
21
-151.482
0
LINE
8
BLACK
6
CONTINUOUS
10
208.794
20
-151.482
11
209.222
21
-151.482
0
LINE
8
BLACK
6
CONTINUOUS
10
209.222
20
-151.482
11
209.508
21
-151.625
0
LINE
8
BLACK
6
CONTINUOUS
10
209.508
20
-151.625
11
209.651
21
-151.911
0
LINE
8
BLACK
6
CONTINUOUS
10
209.651
20
-151.911
11
209.651
21
-153.482
0
LINE
8
BLACK
6
CONTINUOUS
10
215.508
20
-150.339
11
212.936
21
-154.196
0
LINE
8
BLACK
6
CONTINUOUS
10
219.365
20
-150.482
11
219.651
21
-150.482
0
LINE
8
BLACK
6
CONTINUOUS
10
219.651
20
-150.482
11
219.936
21
-150.625
0
LINE
8
BLACK
6
CONTINUOUS
10
219.936
20
-150.625
11
220.079
21
-150.768
0
LINE
8
BLACK
6
CONTINUOUS
10
220.079
20
-150.768
11
220.222
21
-151.054
0
LINE
8
BLACK
6
CONTINUOUS
10
220.222
20
-151.054
11
220.365
21
-151.625
0
LINE
8
BLACK
6
CONTINUOUS
10
220.365
20
-151.625
11
220.365
21
-152.339
0
LINE
8
BLACK
6
CONTINUOUS
10
220.365
20
-152.339
11
220.222
21
-152.911
0
LINE
8
BLACK
6
CONTINUOUS
10
220.222
20
-152.911
11
220.079
21
-153.196
0
LINE
8
BLACK
6
CONTINUOUS
10
220.079
20
-153.196
11
219.936
21
-153.339
0
LINE
8
BLACK
6
CONTINUOUS
10
219.936
20
-153.339
11
219.651
21
-153.482
0
LINE
8
BLACK
6
CONTINUOUS
10
219.651
20
-153.482
11
219.365
21
-153.482
0
LINE
8
BLACK
6
CONTINUOUS
10
219.365
20
-153.482
11
219.079
21
-153.339
0
LINE
8
BLACK
6
CONTINUOUS
10
219.079
20
-153.339
11
218.936
21
-153.196
0
LINE
8
BLACK
6
CONTINUOUS
10
218.936
20
-153.196
11
218.794
21
-152.911
0
LINE
8
BLACK
6
CONTINUOUS
10
218.794
20
-152.911
11
218.651
21
-152.339
0
LINE
8
BLACK
6
CONTINUOUS
10
218.651
20
-152.339
11
218.651
21
-151.625
0
LINE
8
BLACK
6
CONTINUOUS
10
218.651
20
-151.625
11
218.794
21
-151.054
0
LINE
8
BLACK
6
CONTINUOUS
10
218.794
20
-151.054
11
218.936
21
-150.768
0
LINE
8
BLACK
6
CONTINUOUS
10
218.936
20
-150.768
11
219.079
21
-150.625
0
LINE
8
BLACK
6
CONTINUOUS
10
219.079
20
-150.625
11
219.365
21
-150.482
0
LINE
8
BLACK
6
CONTINUOUS
10
221.651
20
-153.196
11
221.794
21
-153.339
0
LINE
8
BLACK
6
CONTINUOUS
10
221.794
20
-153.339
11
221.651
21
-153.482
0
LINE
8
BLACK
6
CONTINUOUS
10
221.651
20
-153.482
11
221.508
21
-153.339
0
LINE
8
BLACK
6
CONTINUOUS
10
221.508
20
-153.339
11
221.651
21
-153.196
0
LINE
8
BLACK
6
CONTINUOUS
10
221.651
20
-153.196
11
221.651
21
-153.482
0
LINE
8
BLACK
6
CONTINUOUS
10
223.651
20
-150.482
11
223.936
21
-150.482
0
LINE
8
BLACK
6
CONTINUOUS
10
223.936
20
-150.482
11
224.222
21
-150.625
0
LINE
8
BLACK
6
CONTINUOUS
10
224.222
20
-150.625
11
224.365
21
-150.768
0
LINE
8
BLACK
6
CONTINUOUS
10
224.365
20
-150.768
11
224.508
21
-151.054
0
LINE
8
BLACK
6
CONTINUOUS
10
224.508
20
-151.054
11
224.651
21
-151.625
0
LINE
8
BLACK
6
CONTINUOUS
10
224.651
20
-151.625
11
224.651
21
-152.339
0
LINE
8
BLACK
6
CONTINUOUS
10
224.651
20
-152.339
11
224.508
21
-152.911
0
LINE
8
BLACK
6
CONTINUOUS
10
224.508
20
-152.911
11
224.365
21
-153.196
0
LINE
8
BLACK
6
CONTINUOUS
10
224.365
20
-153.196
11
224.222
21
-153.339
0
LINE
8
BLACK
6
CONTINUOUS
10
224.222
20
-153.339
11
223.936
21
-153.482
0
LINE
8
BLACK
6
CONTINUOUS
10
223.936
20
-153.482
11
223.651
21
-153.482
0
LINE
8
BLACK
6
CONTINUOUS
10
223.651
20
-153.482
11
223.365
21
-153.339
0
LINE
8
BLACK
6
CONTINUOUS
10
223.365
20
-153.339
11
223.222
21
-153.196
0
LINE
8
BLACK
6
CONTINUOUS
10
223.222
20
-153.196
11
223.079
21
-152.911
0
LINE
8
BLACK
6
CONTINUOUS
10
223.079
20
-152.911
11
222.936
21
-152.339
0
LINE
8
BLACK
6
CONTINUOUS
10
222.936
20
-152.339
11
222.936
21
-151.625
0
LINE
8
BLACK
6
CONTINUOUS
10
222.936
20
-151.625
11
223.079
21
-151.054
0
LINE
8
BLACK
6
CONTINUOUS
10
223.079
20
-151.054
11
223.222
21
-150.768
0
LINE
8
BLACK
6
CONTINUOUS
10
223.222
20
-150.768
11
223.365
21
-150.625
0
LINE
8
BLACK
6
CONTINUOUS
10
223.365
20
-150.625
11
223.651
21
-150.482
0
LINE
8
BLACK
6
CONTINUOUS
10
225.651
20
-150.482
11
227.508
21
-150.482
0
LINE
8
BLACK
6
CONTINUOUS
10
227.508
20
-150.482
11
226.508
21
-151.625
0
LINE
8
BLACK
6
CONTINUOUS
10
226.508
20
-151.625
11
226.936
21
-151.625
0
LINE
8
BLACK
6
CONTINUOUS
10
226.936
20
-151.625
11
227.222
21
-151.768
0
LINE
8
BLACK
6
CONTINUOUS
10
227.222
20
-151.768
11
227.365
21
-151.911
0
LINE
8
BLACK
6
CONTINUOUS
10
227.365
20
-151.911
11
227.508
21
-152.196
0
LINE
8
BLACK
6
CONTINUOUS
10
227.508
20
-152.196
11
227.508
21
-152.911
0
LINE
8
BLACK
6
CONTINUOUS
10
227.508
20
-152.911
11
227.365
21
-153.196
0
LINE
8
BLACK
6
CONTINUOUS
10
227.365
20
-153.196
11
227.222
21
-153.339
0
LINE
8
BLACK
6
CONTINUOUS
10
227.222
20
-153.339
11
226.936
21
-153.482
0
LINE
8
BLACK
6
CONTINUOUS
10
226.936
20
-153.482
11
226.079
21
-153.482
0
LINE
8
BLACK
6
CONTINUOUS
10
226.079
20
-153.482
11
225.794
21
-153.339
0
LINE
8
BLACK
6
CONTINUOUS
10
225.794
20
-153.339
11
225.651
21
-153.196
0
LINE
8
BLACK
6
CONTINUOUS
10
229.365
20
-150.482
11
229.651
21
-150.482
0
LINE
8
BLACK
6
CONTINUOUS
10
229.651
20
-150.482
11
229.936
21
-150.625
0
LINE
8
BLACK
6
CONTINUOUS
10
229.936
20
-150.625
11
230.079
21
-150.768
0
LINE
8
BLACK
6
CONTINUOUS
10
230.079
20
-150.768
11
230.222
21
-151.054
0
LINE
8
BLACK
6
CONTINUOUS
10
230.222
20
-151.054
11
230.365
21
-151.625
0
LINE
8
BLACK
6
CONTINUOUS
10
230.365
20
-151.625
11
230.365
21
-152.339
0
LINE
8
BLACK
6
CONTINUOUS
10
230.365
20
-152.339
11
230.222
21
-152.911
0
LINE
8
BLACK
6
CONTINUOUS
10
230.222
20
-152.911
11
230.079
21
-153.196
0
LINE
8
BLACK
6
CONTINUOUS
10
230.079
20
-153.196
11
229.936
21
-153.339
0
LINE
8
BLACK
6
CONTINUOUS
10
229.936
20
-153.339
11
229.651
21
-153.482
0
LINE
8
BLACK
6
CONTINUOUS
10
229.651
20
-153.482
11
229.365
21
-153.482
0
LINE
8
BLACK
6
CONTINUOUS
10
229.365
20
-153.482
11
229.079
21
-153.339
0
LINE
8
BLACK
6
CONTINUOUS
10
229.079
20
-153.339
11
228.936
21
-153.196
0
LINE
8
BLACK
6
CONTINUOUS
10
228.936
20
-153.196
11
228.794
21
-152.911
0
LINE
8
BLACK
6
CONTINUOUS
10
228.794
20
-152.911
11
228.651
21
-152.339
0
LINE
8
BLACK
6
CONTINUOUS
10
228.651
20
-152.339
11
228.651
21
-151.625
0
LINE
8
BLACK
6
CONTINUOUS
10
228.651
20
-151.625
11
228.794
21
-151.054
0
LINE
8
BLACK
6
CONTINUOUS
10
228.794
20
-151.054
11
228.936
21
-150.768
0
LINE
8
BLACK
6
CONTINUOUS
10
228.936
20
-150.768
11
229.079
21
-150.625
0
LINE
8
BLACK
6
CONTINUOUS
10
229.079
20
-150.625
11
229.365
21
-150.482
0
LINE
8
BLACK
6
CONTINUOUS
10
231.508
20
-150.482
11
231.508
21
-151.054
0
LINE
8
BLACK
6
CONTINUOUS
10
232.651
20
-150.482
11
232.651
21
-151.054
0
LINE
8
BLACK
6
CONTINUOUS
10
237.079
20
-154.625
11
236.936
21
-154.482
0
LINE
8
BLACK
6
CONTINUOUS
10
236.936
20
-154.482
11
236.651
21
-154.054
0
LINE
8
BLACK
6
CONTINUOUS
10
236.651
20
-154.054
11
236.508
21
-153.768
0
LINE
8
BLACK
6
CONTINUOUS
10
236.508
20
-153.768
11
236.365
21
-153.339
0
LINE
8
BLACK
6
CONTINUOUS
10
236.365
20
-153.339
11
236.222
21
-152.625
0
LINE
8
BLACK
6
CONTINUOUS
10
236.222
20
-152.625
11
236.222
21
-152.054
0
LINE
8
BLACK
6
CONTINUOUS
10
236.222
20
-152.054
11
236.365
21
-151.339
0
LINE
8
BLACK
6
CONTINUOUS
10
236.365
20
-151.339
11
236.508
21
-150.911
0
LINE
8
BLACK
6
CONTINUOUS
10
236.508
20
-150.911
11
236.651
21
-150.625
0
LINE
8
BLACK
6
CONTINUOUS
10
236.651
20
-150.625
11
236.936
21
-150.196
0
LINE
8
BLACK
6
CONTINUOUS
10
236.936
20
-150.196
11
237.079
21
-150.054
0
LINE
8
BLACK
6
CONTINUOUS
10
239.794
20
-153.482
11
238.079
21
-153.482
0
LINE
8
BLACK
6
CONTINUOUS
10
238.936
20
-153.482
11
238.936
21
-150.482
0
LINE
8
BLACK
6
CONTINUOUS
10
238.936
20
-150.482
11
238.651
21
-150.911
0
LINE
8
BLACK
6
CONTINUOUS
10
238.651
20
-150.911
11
238.365
21
-151.196
0
LINE
8
BLACK
6
CONTINUOUS
10
238.365
20
-151.196
11
238.079
21
-151.339
0
LINE
8
BLACK
6
CONTINUOUS
10
241.508
20
-151.768
11
241.222
21
-151.625
0
LINE
8
BLACK
6
CONTINUOUS
10
241.222
20
-151.625
11
241.079
21
-151.482
0
LINE
8
BLACK
6
CONTINUOUS
10
241.079
20
-151.482
11
240.936
21
-151.196
0
LINE
8
BLACK
6
CONTINUOUS
10
240.936
20
-151.196
11
240.936
21
-151.054
0
LINE
8
BLACK
6
CONTINUOUS
10
240.936
20
-151.054
11
241.079
21
-150.768
0
LINE
8
BLACK
6
CONTINUOUS
10
241.079
20
-150.768
11
241.222
21
-150.625
0
LINE
8
BLACK
6
CONTINUOUS
10
241.222
20
-150.625
11
241.508
21
-150.482
0
LINE
8
BLACK
6
CONTINUOUS
10
241.508
20
-150.482
11
242.079
21
-150.482
0
LINE
8
BLACK
6
CONTINUOUS
10
242.079
20
-150.482
11
242.365
21
-150.625
0
LINE
8
BLACK
6
CONTINUOUS
10
242.365
20
-150.625
11
242.508
21
-150.768
0
LINE
8
BLACK
6
CONTINUOUS
10
242.508
20
-150.768
11
242.651
21
-151.054
0
LINE
8
BLACK
6
CONTINUOUS
10
242.651
20
-151.054
11
242.651
21
-151.196
0
LINE
8
BLACK
6
CONTINUOUS
10
242.651
20
-151.196
11
242.508
21
-151.482
0
LINE
8
BLACK
6
CONTINUOUS
10
242.508
20
-151.482
11
242.365
21
-151.625
0
LINE
8
BLACK
6
CONTINUOUS
10
242.365
20
-151.625
11
242.079
21
-151.768
0
LINE
8
BLACK
6
CONTINUOUS
10
242.079
20
-151.768
11
241.508
21
-151.768
0
LINE
8
BLACK
6
CONTINUOUS
10
241.508
20
-151.768
11
241.222
21
-151.911
0
LINE
8
BLACK
6
CONTINUOUS
10
241.222
20
-151.911
11
241.079
21
-152.054
0
LINE
8
BLACK
6
CONTINUOUS
10
241.079
20
-152.054
11
240.936
21
-152.339
0
LINE
8
BLACK
6
CONTINUOUS
10
240.936
20
-152.339
11
240.936
21
-152.911
0
LINE
8
BLACK
6
CONTINUOUS
10
240.936
20
-152.911
11
241.079
21
-153.196
0
LINE
8
BLACK
6
CONTINUOUS
10
241.079
20
-153.196
11
241.222
21
-153.339
0
LINE
8
BLACK
6
CONTINUOUS
10
241.222
20
-153.339
11
241.508
21
-153.482
0
LINE
8
BLACK
6
CONTINUOUS
10
241.508
20
-153.482
11
242.079
21
-153.482
0
LINE
8
BLACK
6
CONTINUOUS
10
242.079
20
-153.482
11
242.365
21
-153.339
0
LINE
8
BLACK
6
CONTINUOUS
10
242.365
20
-153.339
11
242.508
21
-153.196
0
LINE
8
BLACK
6
CONTINUOUS
10
242.508
20
-153.196
11
242.651
21
-152.911
0
LINE
8
BLACK
6
CONTINUOUS
10
242.651
20
-152.911
11
242.651
21
-152.339
0
LINE
8
BLACK
6
CONTINUOUS
10
242.651
20
-152.339
11
242.508
21
-152.054
0
LINE
8
BLACK
6
CONTINUOUS
10
242.508
20
-152.054
11
242.365
21
-151.911
0
LINE
8
BLACK
6
CONTINUOUS
10
242.365
20
-151.911
11
242.079
21
-151.768
0
LINE
8
BLACK
6
CONTINUOUS
10
246.222
20
-153.482
11
246.222
21
-150.482
0
LINE
8
BLACK
6
CONTINUOUS
10
247.508
20
-153.482
11
247.508
21
-151.911
0
LINE
8
BLACK
6
CONTINUOUS
10
247.508
20
-151.911
11
247.365
21
-151.625
0
LINE
8
BLACK
6
CONTINUOUS
10
247.365
20
-151.625
11
247.079
21
-151.482
0
LINE
8
BLACK
6
CONTINUOUS
10
247.079
20
-151.482
11
246.651
21
-151.482
0
LINE
8
BLACK
6
CONTINUOUS
10
246.651
20
-151.482
11
246.365
21
-151.625
0
LINE
8
BLACK
6
CONTINUOUS
10
246.365
20
-151.625
11
246.222
21
-151.768
0
LINE
8
BLACK
6
CONTINUOUS
10
249.365
20
-153.482
11
249.079
21
-153.339
0
LINE
8
BLACK
6
CONTINUOUS
10
249.079
20
-153.339
11
248.936
21
-153.196
0
LINE
8
BLACK
6
CONTINUOUS
10
248.936
20
-153.196
11
248.794
21
-152.911
0
LINE
8
BLACK
6
CONTINUOUS
10
248.794
20
-152.911
11
248.794
21
-152.054
0
LINE
8
BLACK
6
CONTINUOUS
10
248.794
20
-152.054
11
248.936
21
-151.768
0
LINE
8
BLACK
6
CONTINUOUS
10
248.936
20
-151.768
11
249.079
21
-151.625
0
LINE
8
BLACK
6
CONTINUOUS
10
249.079
20
-151.625
11
249.365
21
-151.482
0
LINE
8
BLACK
6
CONTINUOUS
10
249.365
20
-151.482
11
249.794
21
-151.482
0
LINE
8
BLACK
6
CONTINUOUS
10
249.794
20
-151.482
11
250.079
21
-151.625
0
LINE
8
BLACK
6
CONTINUOUS
10
250.079
20
-151.625
11
250.222
21
-151.768
0
LINE
8
BLACK
6
CONTINUOUS
10
250.222
20
-151.768
11
250.365
21
-152.054
0
LINE
8
BLACK
6
CONTINUOUS
10
250.365
20
-152.054
11
250.365
21
-152.911
0
LINE
8
BLACK
6
CONTINUOUS
10
250.365
20
-152.911
11
250.222
21
-153.196
0
LINE
8
BLACK
6
CONTINUOUS
10
250.222
20
-153.196
11
250.079
21
-153.339
0
LINE
8
BLACK
6
CONTINUOUS
10
250.079
20
-153.339
11
249.794
21
-153.482
0
LINE
8
BLACK
6
CONTINUOUS
10
249.794
20
-153.482
11
249.365
21
-153.482
0
LINE
8
BLACK
6
CONTINUOUS
10
252.079
20
-153.482
11
251.794
21
-153.339
0
LINE
8
BLACK
6
CONTINUOUS
10
251.794
20
-153.339
11
251.651
21
-153.054
0
LINE
8
BLACK
6
CONTINUOUS
10
251.651
20
-153.054
11
251.651
21
-150.482
0
LINE
8
BLACK
6
CONTINUOUS
10
254.365
20
-153.339
11
254.079
21
-153.482
0
LINE
8
BLACK
6
CONTINUOUS
10
254.079
20
-153.482
11
253.508
21
-153.482
0
LINE
8
BLACK
6
CONTINUOUS
10
253.508
20
-153.482
11
253.222
21
-153.339
0
LINE
8
BLACK
6
CONTINUOUS
10
253.222
20
-153.339
11
253.079
21
-153.054
0
LINE
8
BLACK
6
CONTINUOUS
10
253.079
20
-153.054
11
253.079
21
-151.911
0
LINE
8
BLACK
6
CONTINUOUS
10
253.079
20
-151.911
11
253.222
21
-151.625
0
LINE
8
BLACK
6
CONTINUOUS
10
253.222
20
-151.625
11
253.508
21
-151.482
0
LINE
8
BLACK
6
CONTINUOUS
10
253.508
20
-151.482
11
254.079
21
-151.482
0
LINE
8
BLACK
6
CONTINUOUS
10
254.079
20
-151.482
11
254.365
21
-151.625
0
LINE
8
BLACK
6
CONTINUOUS
10
254.365
20
-151.625
11
254.508
21
-151.911
0
LINE
8
BLACK
6
CONTINUOUS
10
254.508
20
-151.911
11
254.508
21
-152.196
0
LINE
8
BLACK
6
CONTINUOUS
10
254.508
20
-152.196
11
253.079
21
-152.482
0
LINE
8
BLACK
6
CONTINUOUS
10
255.651
20
-153.339
11
255.936
21
-153.482
0
LINE
8
BLACK
6
CONTINUOUS
10
255.936
20
-153.482
11
256.508
21
-153.482
0
LINE
8
BLACK
6
CONTINUOUS
10
256.508
20
-153.482
11
256.794
21
-153.339
0
LINE
8
BLACK
6
CONTINUOUS
10
256.794
20
-153.339
11
256.936
21
-153.054
0
LINE
8
BLACK
6
CONTINUOUS
10
256.936
20
-153.054
11
256.936
21
-152.911
0
LINE
8
BLACK
6
CONTINUOUS
10
256.936
20
-152.911
11
256.794
21
-152.625
0
LINE
8
BLACK
6
CONTINUOUS
10
256.794
20
-152.625
11
256.508
21
-152.482
0
LINE
8
BLACK
6
CONTINUOUS
10
256.508
20
-152.482
11
256.079
21
-152.482
0
LINE
8
BLACK
6
CONTINUOUS
10
256.079
20
-152.482
11
255.794
21
-152.339
0
LINE
8
BLACK
6
CONTINUOUS
10
255.794
20
-152.339
11
255.651
21
-152.054
0
LINE
8
BLACK
6
CONTINUOUS
10
255.651
20
-152.054
11
255.651
21
-151.911
0
LINE
8
BLACK
6
CONTINUOUS
10
255.651
20
-151.911
11
255.794
21
-151.625
0
LINE
8
BLACK
6
CONTINUOUS
10
255.794
20
-151.625
11
256.079
21
-151.482
0
LINE
8
BLACK
6
CONTINUOUS
10
256.079
20
-151.482
11
256.508
21
-151.482
0
LINE
8
BLACK
6
CONTINUOUS
10
256.508
20
-151.482
11
256.794
21
-151.625
0
LINE
8
BLACK
6
CONTINUOUS
10
257.936
20
-154.625
11
258.079
21
-154.482
0
LINE
8
BLACK
6
CONTINUOUS
10
258.079
20
-154.482
11
258.365
21
-154.054
0
LINE
8
BLACK
6
CONTINUOUS
10
258.365
20
-154.054
11
258.508
21
-153.768
0
LINE
8
BLACK
6
CONTINUOUS
10
258.508
20
-153.768
11
258.651
21
-153.339
0
LINE
8
BLACK
6
CONTINUOUS
10
258.651
20
-153.339
11
258.794
21
-152.625
0
LINE
8
BLACK
6
CONTINUOUS
10
258.794
20
-152.625
11
258.794
21
-152.054
0
LINE
8
BLACK
6
CONTINUOUS
10
258.794
20
-152.054
11
258.651
21
-151.339
0
LINE
8
BLACK
6
CONTINUOUS
10
258.651
20
-151.339
11
258.508
21
-150.911
0
LINE
8
BLACK
6
CONTINUOUS
10
258.508
20
-150.911
11
258.365
21
-150.625
0
LINE
8
BLACK
6
CONTINUOUS
10
258.365
20
-150.625
11
258.079
21
-150.196
0
LINE
8
BLACK
6
CONTINUOUS
10
258.079
20
-150.196
11
257.936
21
-150.054
0
CIRCLE
8
BLACK
10
189.815
20
-156.085
40
0.4
0
LINE
8
BLACK
6
CONTINUOUS
10
193.651
20
-154.442
11
193.936
21
-154.442
0
LINE
8
BLACK
6
CONTINUOUS
10
193.936
20
-154.442
11
194.222
21
-154.585
0
LINE
8
BLACK
6
CONTINUOUS
10
194.222
20
-154.585
11
194.365
21
-154.728
0
LINE
8
BLACK
6
CONTINUOUS
10
194.365
20
-154.728
11
194.508
21
-155.014
0
LINE
8
BLACK
6
CONTINUOUS
10
194.508
20
-155.014
11
194.651
21
-155.585
0
LINE
8
BLACK
6
CONTINUOUS
10
194.651
20
-155.585
11
194.651
21
-156.299
0
LINE
8
BLACK
6
CONTINUOUS
10
194.651
20
-156.299
11
194.508
21
-156.871
0
LINE
8
BLACK
6
CONTINUOUS
10
194.508
20
-156.871
11
194.365
21
-157.156
0
LINE
8
BLACK
6
CONTINUOUS
10
194.365
20
-157.156
11
194.222
21
-157.299
0
LINE
8
BLACK
6
CONTINUOUS
10
194.222
20
-157.299
11
193.936
21
-157.442
0
LINE
8
BLACK
6
CONTINUOUS
10
193.936
20
-157.442
11
193.651
21
-157.442
0
LINE
8
BLACK
6
CONTINUOUS
10
193.651
20
-157.442
11
193.365
21
-157.299
0
LINE
8
BLACK
6
CONTINUOUS
10
193.365
20
-157.299
11
193.222
21
-157.156
0
LINE
8
BLACK
6
CONTINUOUS
10
193.222
20
-157.156
11
193.079
21
-156.871
0
LINE
8
BLACK
6
CONTINUOUS
10
193.079
20
-156.871
11
192.936
21
-156.299
0
LINE
8
BLACK
6
CONTINUOUS
10
192.936
20
-156.299
11
192.936
21
-155.585
0
LINE
8
BLACK
6
CONTINUOUS
10
192.936
20
-155.585
11
193.079
21
-155.014
0
LINE
8
BLACK
6
CONTINUOUS
10
193.079
20
-155.014
11
193.222
21
-154.728
0
LINE
8
BLACK
6
CONTINUOUS
10
193.222
20
-154.728
11
193.365
21
-154.585
0
LINE
8
BLACK
6
CONTINUOUS
10
193.365
20
-154.585
11
193.651
21
-154.442
0
LINE
8
BLACK
6
CONTINUOUS
10
195.936
20
-157.156
11
196.079
21
-157.299
0
LINE
8
BLACK
6
CONTINUOUS
10
196.079
20
-157.299
11
195.936
21
-157.442
0
LINE
8
BLACK
6
CONTINUOUS
10
195.936
20
-157.442
11
195.794
21
-157.299
0
LINE
8
BLACK
6
CONTINUOUS
10
195.794
20
-157.299
11
195.936
21
-157.156
0
LINE
8
BLACK
6
CONTINUOUS
10
195.936
20
-157.156
11
195.936
21
-157.442
0
LINE
8
BLACK
6
CONTINUOUS
10
197.794
20
-155.728
11
197.508
21
-155.585
0
LINE
8
BLACK
6
CONTINUOUS
10
197.508
20
-155.585
11
197.365
21
-155.442
0
LINE
8
BLACK
6
CONTINUOUS
10
197.365
20
-155.442
11
197.222
21
-155.156
0
LINE
8
BLACK
6
CONTINUOUS
10
197.222
20
-155.156
11
197.222
21
-155.014
0
LINE
8
BLACK
6
CONTINUOUS
10
197.222
20
-155.014
11
197.365
21
-154.728
0
LINE
8
BLACK
6
CONTINUOUS
10
197.365
20
-154.728
11
197.508
21
-154.585
0
LINE
8
BLACK
6
CONTINUOUS
10
197.508
20
-154.585
11
197.794
21
-154.442
0
LINE
8
BLACK
6
CONTINUOUS
10
197.794
20
-154.442
11
198.365
21
-154.442
0
LINE
8
BLACK
6
CONTINUOUS
10
198.365
20
-154.442
11
198.651
21
-154.585
0
LINE
8
BLACK
6
CONTINUOUS
10
198.651
20
-154.585
11
198.794
21
-154.728
0
LINE
8
BLACK
6
CONTINUOUS
10
198.794
20
-154.728
11
198.936
21
-155.014
0
LINE
8
BLACK
6
CONTINUOUS
10
198.936
20
-155.014
11
198.936
21
-155.156
0
LINE
8
BLACK
6
CONTINUOUS
10
198.936
20
-155.156
11
198.794
21
-155.442
0
LINE
8
BLACK
6
CONTINUOUS
10
198.794
20
-155.442
11
198.651
21
-155.585
0
LINE
8
BLACK
6
CONTINUOUS
10
198.651
20
-155.585
11
198.365
21
-155.728
0
LINE
8
BLACK
6
CONTINUOUS
10
198.365
20
-155.728
11
197.794
21
-155.728
0
LINE
8
BLACK
6
CONTINUOUS
10
197.794
20
-155.728
11
197.508
21
-155.871
0
LINE
8
BLACK
6
CONTINUOUS
10
197.508
20
-155.871
11
197.365
21
-156.014
0
LINE
8
BLACK
6
CONTINUOUS
10
197.365
20
-156.014
11
197.222
21
-156.299
0
LINE
8
BLACK
6
CONTINUOUS
10
197.222
20
-156.299
11
197.222
21
-156.871
0
LINE
8
BLACK
6
CONTINUOUS
10
197.222
20
-156.871
11
197.365
21
-157.156
0
LINE
8
BLACK
6
CONTINUOUS
10
197.365
20
-157.156
11
197.508
21
-157.299
0
LINE
8
BLACK
6
CONTINUOUS
10
197.508
20
-157.299
11
197.794
21
-157.442
0
LINE
8
BLACK
6
CONTINUOUS
10
197.794
20
-157.442
11
198.365
21
-157.442
0
LINE
8
BLACK
6
CONTINUOUS
10
198.365
20
-157.442
11
198.651
21
-157.299
0
LINE
8
BLACK
6
CONTINUOUS
10
198.651
20
-157.299
11
198.794
21
-157.156
0
LINE
8
BLACK
6
CONTINUOUS
10
198.794
20
-157.156
11
198.936
21
-156.871
0
LINE
8
BLACK
6
CONTINUOUS
10
198.936
20
-156.871
11
198.936
21
-156.299
0
LINE
8
BLACK
6
CONTINUOUS
10
198.936
20
-156.299
11
198.794
21
-156.014
0
LINE
8
BLACK
6
CONTINUOUS
10
198.794
20
-156.014
11
198.651
21
-155.871
0
LINE
8
BLACK
6
CONTINUOUS
10
198.651
20
-155.871
11
198.365
21
-155.728
0
LINE
8
BLACK
6
CONTINUOUS
10
200.794
20
-154.442
11
201.079
21
-154.442
0
LINE
8
BLACK
6
CONTINUOUS
10
201.079
20
-154.442
11
201.365
21
-154.585
0
LINE
8
BLACK
6
CONTINUOUS
10
201.365
20
-154.585
11
201.508
21
-154.728
0
LINE
8
BLACK
6
CONTINUOUS
10
201.508
20
-154.728
11
201.651
21
-155.014
0
LINE
8
BLACK
6
CONTINUOUS
10
201.651
20
-155.014
11
201.794
21
-155.585
0
LINE
8
BLACK
6
CONTINUOUS
10
201.794
20
-155.585
11
201.794
21
-156.299
0
LINE
8
BLACK
6
CONTINUOUS
10
201.794
20
-156.299
11
201.651
21
-156.871
0
LINE
8
BLACK
6
CONTINUOUS
10
201.651
20
-156.871
11
201.508
21
-157.156
0
LINE
8
BLACK
6
CONTINUOUS
10
201.508
20
-157.156
11
201.365
21
-157.299
0
LINE
8
BLACK
6
CONTINUOUS
10
201.365
20
-157.299
11
201.079
21
-157.442
0
LINE
8
BLACK
6
CONTINUOUS
10
201.079
20
-157.442
11
200.794
21
-157.442
0
LINE
8
BLACK
6
CONTINUOUS
10
200.794
20
-157.442
11
200.508
21
-157.299
0
LINE
8
BLACK
6
CONTINUOUS
10
200.508
20
-157.299
11
200.365
21
-157.156
0
LINE
8
BLACK
6
CONTINUOUS
10
200.365
20
-157.156
11
200.222
21
-156.871
0
LINE
8
BLACK
6
CONTINUOUS
10
200.222
20
-156.871
11
200.079
21
-156.299
0
LINE
8
BLACK
6
CONTINUOUS
10
200.079
20
-156.299
11
200.079
21
-155.585
0
LINE
8
BLACK
6
CONTINUOUS
10
200.079
20
-155.585
11
200.222
21
-155.014
0
LINE
8
BLACK
6
CONTINUOUS
10
200.222
20
-155.014
11
200.365
21
-154.728
0
LINE
8
BLACK
6
CONTINUOUS
10
200.365
20
-154.728
11
200.508
21
-154.585
0
LINE
8
BLACK
6
CONTINUOUS
10
200.508
20
-154.585
11
200.794
21
-154.442
0
LINE
8
BLACK
6
CONTINUOUS
10
203.079
20
-157.442
11
203.079
21
-155.442
0
LINE
8
BLACK
6
CONTINUOUS
10
203.079
20
-155.728
11
203.222
21
-155.585
0
LINE
8
BLACK
6
CONTINUOUS
10
203.222
20
-155.585
11
203.508
21
-155.442
0
LINE
8
BLACK
6
CONTINUOUS
10
203.508
20
-155.442
11
203.936
21
-155.442
0
LINE
8
BLACK
6
CONTINUOUS
10
203.936
20
-155.442
11
204.222
21
-155.585
0
LINE
8
BLACK
6
CONTINUOUS
10
204.222
20
-155.585
11
204.365
21
-155.871
0
LINE
8
BLACK
6
CONTINUOUS
10
204.365
20
-155.871
11
204.365
21
-157.442
0
LINE
8
BLACK
6
CONTINUOUS
10
204.365
20
-155.871
11
204.508
21
-155.585
0
LINE
8
BLACK
6
CONTINUOUS
10
204.508
20
-155.585
11
204.794
21
-155.442
0
LINE
8
BLACK
6
CONTINUOUS
10
204.794
20
-155.442
11
205.222
21
-155.442
0
LINE
8
BLACK
6
CONTINUOUS
10
205.222
20
-155.442
11
205.508
21
-155.585
0
LINE
8
BLACK
6
CONTINUOUS
10
205.508
20
-155.585
11
205.651
21
-155.871
0
LINE
8
BLACK
6
CONTINUOUS
10
205.651
20
-155.871
11
205.651
21
-157.442
0
LINE
8
BLACK
6
CONTINUOUS
10
207.079
20
-157.442
11
207.079
21
-155.442
0
LINE
8
BLACK
6
CONTINUOUS
10
207.079
20
-155.728
11
207.222
21
-155.585
0
LINE
8
BLACK
6
CONTINUOUS
10
207.222
20
-155.585
11
207.508
21
-155.442
0
LINE
8
BLACK
6
CONTINUOUS
10
207.508
20
-155.442
11
207.936
21
-155.442
0
LINE
8
BLACK
6
CONTINUOUS
10
207.936
20
-155.442
11
208.222
21
-155.585
0
LINE
8
BLACK
6
CONTINUOUS
10
208.222
20
-155.585
11
208.365
21
-155.871
0
LINE
8
BLACK
6
CONTINUOUS
10
208.365
20
-155.871
11
208.365
21
-157.442
0
LINE
8
BLACK
6
CONTINUOUS
10
208.365
20
-155.871
11
208.508
21
-155.585
0
LINE
8
BLACK
6
CONTINUOUS
10
208.508
20
-155.585
11
208.794
21
-155.442
0
LINE
8
BLACK
6
CONTINUOUS
10
208.794
20
-155.442
11
209.222
21
-155.442
0
LINE
8
BLACK
6
CONTINUOUS
10
209.222
20
-155.442
11
209.508
21
-155.585
0
LINE
8
BLACK
6
CONTINUOUS
10
209.508
20
-155.585
11
209.651
21
-155.871
0
LINE
8
BLACK
6
CONTINUOUS
10
209.651
20
-155.871
11
209.651
21
-157.442
0
LINE
8
BLACK
6
CONTINUOUS
10
215.508
20
-154.299
11
212.936
21
-158.156
0
LINE
8
BLACK
6
CONTINUOUS
10
219.365
20
-154.442
11
219.651
21
-154.442
0
LINE
8
BLACK
6
CONTINUOUS
10
219.651
20
-154.442
11
219.936
21
-154.585
0
LINE
8
BLACK
6
CONTINUOUS
10
219.936
20
-154.585
11
220.079
21
-154.728
0
LINE
8
BLACK
6
CONTINUOUS
10
220.079
20
-154.728
11
220.222
21
-155.014
0
LINE
8
BLACK
6
CONTINUOUS
10
220.222
20
-155.014
11
220.365
21
-155.585
0
LINE
8
BLACK
6
CONTINUOUS
10
220.365
20
-155.585
11
220.365
21
-156.299
0
LINE
8
BLACK
6
CONTINUOUS
10
220.365
20
-156.299
11
220.222
21
-156.871
0
LINE
8
BLACK
6
CONTINUOUS
10
220.222
20
-156.871
11
220.079
21
-157.156
0
LINE
8
BLACK
6
CONTINUOUS
10
220.079
20
-157.156
11
219.936
21
-157.299
0
LINE
8
BLACK
6
CONTINUOUS
10
219.936
20
-157.299
11
219.651
21
-157.442
0
LINE
8
BLACK
6
CONTINUOUS
10
219.651
20
-157.442
11
219.365
21
-157.442
0
LINE
8
BLACK
6
CONTINUOUS
10
219.365
20
-157.442
11
219.079
21
-157.299
0
LINE
8
BLACK
6
CONTINUOUS
10
219.079
20
-157.299
11
218.936
21
-157.156
0
LINE
8
BLACK
6
CONTINUOUS
10
218.936
20
-157.156
11
218.794
21
-156.871
0
LINE
8
BLACK
6
CONTINUOUS
10
218.794
20
-156.871
11
218.651
21
-156.299
0
LINE
8
BLACK
6
CONTINUOUS
10
218.651
20
-156.299
11
218.651
21
-155.585
0
LINE
8
BLACK
6
CONTINUOUS
10
218.651
20
-155.585
11
218.794
21
-155.014
0
LINE
8
BLACK
6
CONTINUOUS
10
218.794
20
-155.014
11
218.936
21
-154.728
0
LINE
8
BLACK
6
CONTINUOUS
10
218.936
20
-154.728
11
219.079
21
-154.585
0
LINE
8
BLACK
6
CONTINUOUS
10
219.079
20
-154.585
11
219.365
21
-154.442
0
LINE
8
BLACK
6
CONTINUOUS
10
221.651
20
-157.156
11
221.794
21
-157.299
0
LINE
8
BLACK
6
CONTINUOUS
10
221.794
20
-157.299
11
221.651
21
-157.442
0
LINE
8
BLACK
6
CONTINUOUS
10
221.651
20
-157.442
11
221.508
21
-157.299
0
LINE
8
BLACK
6
CONTINUOUS
10
221.508
20
-157.299
11
221.651
21
-157.156
0
LINE
8
BLACK
6
CONTINUOUS
10
221.651
20
-157.156
11
221.651
21
-157.442
0
LINE
8
BLACK
6
CONTINUOUS
10
223.651
20
-154.442
11
223.936
21
-154.442
0
LINE
8
BLACK
6
CONTINUOUS
10
223.936
20
-154.442
11
224.222
21
-154.585
0
LINE
8
BLACK
6
CONTINUOUS
10
224.222
20
-154.585
11
224.365
21
-154.728
0
LINE
8
BLACK
6
CONTINUOUS
10
224.365
20
-154.728
11
224.508
21
-155.014
0
LINE
8
BLACK
6
CONTINUOUS
10
224.508
20
-155.014
11
224.651
21
-155.585
0
LINE
8
BLACK
6
CONTINUOUS
10
224.651
20
-155.585
11
224.651
21
-156.299
0
LINE
8
BLACK
6
CONTINUOUS
10
224.651
20
-156.299
11
224.508
21
-156.871
0
LINE
8
BLACK
6
CONTINUOUS
10
224.508
20
-156.871
11
224.365
21
-157.156
0
LINE
8
BLACK
6
CONTINUOUS
10
224.365
20
-157.156
11
224.222
21
-157.299
0
LINE
8
BLACK
6
CONTINUOUS
10
224.222
20
-157.299
11
223.936
21
-157.442
0
LINE
8
BLACK
6
CONTINUOUS
10
223.936
20
-157.442
11
223.651
21
-157.442
0
LINE
8
BLACK
6
CONTINUOUS
10
223.651
20
-157.442
11
223.365
21
-157.299
0
LINE
8
BLACK
6
CONTINUOUS
10
223.365
20
-157.299
11
223.222
21
-157.156
0
LINE
8
BLACK
6
CONTINUOUS
10
223.222
20
-157.156
11
223.079
21
-156.871
0
LINE
8
BLACK
6
CONTINUOUS
10
223.079
20
-156.871
11
222.936
21
-156.299
0
LINE
8
BLACK
6
CONTINUOUS
10
222.936
20
-156.299
11
222.936
21
-155.585
0
LINE
8
BLACK
6
CONTINUOUS
10
222.936
20
-155.585
11
223.079
21
-155.014
0
LINE
8
BLACK
6
CONTINUOUS
10
223.079
20
-155.014
11
223.222
21
-154.728
0
LINE
8
BLACK
6
CONTINUOUS
10
223.222
20
-154.728
11
223.365
21
-154.585
0
LINE
8
BLACK
6
CONTINUOUS
10
223.365
20
-154.585
11
223.651
21
-154.442
0
LINE
8
BLACK
6
CONTINUOUS
10
225.651
20
-154.442
11
227.508
21
-154.442
0
LINE
8
BLACK
6
CONTINUOUS
10
227.508
20
-154.442
11
226.508
21
-155.585
0
LINE
8
BLACK
6
CONTINUOUS
10
226.508
20
-155.585
11
226.936
21
-155.585
0
LINE
8
BLACK
6
CONTINUOUS
10
226.936
20
-155.585
11
227.222
21
-155.728
0
LINE
8
BLACK
6
CONTINUOUS
10
227.222
20
-155.728
11
227.365
21
-155.871
0
LINE
8
BLACK
6
CONTINUOUS
10
227.365
20
-155.871
11
227.508
21
-156.156
0
LINE
8
BLACK
6
CONTINUOUS
10
227.508
20
-156.156
11
227.508
21
-156.871
0
LINE
8
BLACK
6
CONTINUOUS
10
227.508
20
-156.871
11
227.365
21
-157.156
0
LINE
8
BLACK
6
CONTINUOUS
10
227.365
20
-157.156
11
227.222
21
-157.299
0
LINE
8
BLACK
6
CONTINUOUS
10
227.222
20
-157.299
11
226.936
21
-157.442
0
LINE
8
BLACK
6
CONTINUOUS
10
226.936
20
-157.442
11
226.079
21
-157.442
0
LINE
8
BLACK
6
CONTINUOUS
10
226.079
20
-157.442
11
225.794
21
-157.299
0
LINE
8
BLACK
6
CONTINUOUS
10
225.794
20
-157.299
11
225.651
21
-157.156
0
LINE
8
BLACK
6
CONTINUOUS
10
230.365
20
-157.442
11
228.651
21
-157.442
0
LINE
8
BLACK
6
CONTINUOUS
10
229.508
20
-157.442
11
229.508
21
-154.442
0
LINE
8
BLACK
6
CONTINUOUS
10
229.508
20
-154.442
11
229.222
21
-154.871
0
LINE
8
BLACK
6
CONTINUOUS
10
229.222
20
-154.871
11
228.936
21
-155.156
0
LINE
8
BLACK
6
CONTINUOUS
10
228.936
20
-155.156
11
228.651
21
-155.299
0
LINE
8
BLACK
6
CONTINUOUS
10
231.508
20
-154.442
11
231.508
21
-155.014
0
LINE
8
BLACK
6
CONTINUOUS
10
232.651
20
-154.442
11
232.651
21
-155.014
0
LINE
8
BLACK
6
CONTINUOUS
10
237.079
20
-158.585
11
236.936
21
-158.442
0
LINE
8
BLACK
6
CONTINUOUS
10
236.936
20
-158.442
11
236.651
21
-158.014
0
LINE
8
BLACK
6
CONTINUOUS
10
236.651
20
-158.014
11
236.508
21
-157.728
0
LINE
8
BLACK
6
CONTINUOUS
10
236.508
20
-157.728
11
236.365
21
-157.299
0
LINE
8
BLACK
6
CONTINUOUS
10
236.365
20
-157.299
11
236.222
21
-156.585
0
LINE
8
BLACK
6
CONTINUOUS
10
236.222
20
-156.585
11
236.222
21
-156.014
0
LINE
8
BLACK
6
CONTINUOUS
10
236.222
20
-156.014
11
236.365
21
-155.299
0
LINE
8
BLACK
6
CONTINUOUS
10
236.365
20
-155.299
11
236.508
21
-154.871
0
LINE
8
BLACK
6
CONTINUOUS
10
236.508
20
-154.871
11
236.651
21
-154.585
0
LINE
8
BLACK
6
CONTINUOUS
10
236.651
20
-154.585
11
236.936
21
-154.156
0
LINE
8
BLACK
6
CONTINUOUS
10
236.936
20
-154.156
11
237.079
21
-154.014
0
LINE
8
BLACK
6
CONTINUOUS
10
239.794
20
-157.442
11
238.079
21
-157.442
0
LINE
8
BLACK
6
CONTINUOUS
10
238.936
20
-157.442
11
238.936
21
-154.442
0
LINE
8
BLACK
6
CONTINUOUS
10
238.936
20
-154.442
11
238.651
21
-154.871
0
LINE
8
BLACK
6
CONTINUOUS
10
238.651
20
-154.871
11
238.365
21
-155.156
0
LINE
8
BLACK
6
CONTINUOUS
10
238.365
20
-155.156
11
238.079
21
-155.299
0
LINE
8
BLACK
6
CONTINUOUS
10
240.936
20
-154.728
11
241.079
21
-154.585
0
LINE
8
BLACK
6
CONTINUOUS
10
241.079
20
-154.585
11
241.365
21
-154.442
0
LINE
8
BLACK
6
CONTINUOUS
10
241.365
20
-154.442
11
242.079
21
-154.442
0
LINE
8
BLACK
6
CONTINUOUS
10
242.079
20
-154.442
11
242.365
21
-154.585
0
LINE
8
BLACK
6
CONTINUOUS
10
242.365
20
-154.585
11
242.508
21
-154.728
0
LINE
8
BLACK
6
CONTINUOUS
10
242.508
20
-154.728
11
242.651
21
-155.014
0
LINE
8
BLACK
6
CONTINUOUS
10
242.651
20
-155.014
11
242.651
21
-155.299
0
LINE
8
BLACK
6
CONTINUOUS
10
242.651
20
-155.299
11
242.508
21
-155.728
0
LINE
8
BLACK
6
CONTINUOUS
10
242.508
20
-155.728
11
240.794
21
-157.442
0
LINE
8
BLACK
6
CONTINUOUS
10
240.794
20
-157.442
11
242.651
21
-157.442
0
LINE
8
BLACK
6
CONTINUOUS
10
244.508
20
-154.442
11
244.794
21
-154.442
0
LINE
8
BLACK
6
CONTINUOUS
10
244.794
20
-154.442
11
245.079
21
-154.585
0
LINE
8
BLACK
6
CONTINUOUS
10
245.079
20
-154.585
11
245.222
21
-154.728
0
LINE
8
BLACK
6
CONTINUOUS
10
245.222
20
-154.728
11
245.365
21
-155.014
0
LINE
8
BLACK
6
CONTINUOUS
10
245.365
20
-155.014
11
245.508
21
-155.585
0
LINE
8
BLACK
6
CONTINUOUS
10
245.508
20
-155.585
11
245.508
21
-156.299
0
LINE
8
BLACK
6
CONTINUOUS
10
245.508
20
-156.299
11
245.365
21
-156.871
0
LINE
8
BLACK
6
CONTINUOUS
10
245.365
20
-156.871
11
245.222
21
-157.156
0
LINE
8
BLACK
6
CONTINUOUS
10
245.222
20
-157.156
11
245.079
21
-157.299
0
LINE
8
BLACK
6
CONTINUOUS
10
245.079
20
-157.299
11
244.794
21
-157.442
0
LINE
8
BLACK
6
CONTINUOUS
10
244.794
20
-157.442
11
244.508
21
-157.442
0
LINE
8
BLACK
6
CONTINUOUS
10
244.508
20
-157.442
11
244.222
21
-157.299
0
LINE
8
BLACK
6
CONTINUOUS
10
244.222
20
-157.299
11
244.079
21
-157.156
0
LINE
8
BLACK
6
CONTINUOUS
10
244.079
20
-157.156
11
243.936
21
-156.871
0
LINE
8
BLACK
6
CONTINUOUS
10
243.936
20
-156.871
11
243.794
21
-156.299
0
LINE
8
BLACK
6
CONTINUOUS
10
243.794
20
-156.299
11
243.794
21
-155.585
0
LINE
8
BLACK
6
CONTINUOUS
10
243.794
20
-155.585
11
243.936
21
-155.014
0
LINE
8
BLACK
6
CONTINUOUS
10
243.936
20
-155.014
11
244.079
21
-154.728
0
LINE
8
BLACK
6
CONTINUOUS
10
244.079
20
-154.728
11
244.222
21
-154.585
0
LINE
8
BLACK
6
CONTINUOUS
10
244.222
20
-154.585
11
244.508
21
-154.442
0
LINE
8
BLACK
6
CONTINUOUS
10
249.079
20
-157.442
11
249.079
21
-154.442
0
LINE
8
BLACK
6
CONTINUOUS
10
250.365
20
-157.442
11
250.365
21
-155.871
0
LINE
8
BLACK
6
CONTINUOUS
10
250.365
20
-155.871
11
250.222
21
-155.585
0
LINE
8
BLACK
6
CONTINUOUS
10
250.222
20
-155.585
11
249.936
21
-155.442
0
LINE
8
BLACK
6
CONTINUOUS
10
249.936
20
-155.442
11
249.508
21
-155.442
0
LINE
8
BLACK
6
CONTINUOUS
10
249.508
20
-155.442
11
249.222
21
-155.585
0
LINE
8
BLACK
6
CONTINUOUS
10
249.222
20
-155.585
11
249.079
21
-155.728
0
LINE
8
BLACK
6
CONTINUOUS
10
252.222
20
-157.442
11
251.936
21
-157.299
0
LINE
8
BLACK
6
CONTINUOUS
10
251.936
20
-157.299
11
251.794
21
-157.156
0
LINE
8
BLACK
6
CONTINUOUS
10
251.794
20
-157.156
11
251.651
21
-156.871
0
LINE
8
BLACK
6
CONTINUOUS
10
251.651
20
-156.871
11
251.651
21
-156.014
0
LINE
8
BLACK
6
CONTINUOUS
10
251.651
20
-156.014
11
251.794
21
-155.728
0
LINE
8
BLACK
6
CONTINUOUS
10
251.794
20
-155.728
11
251.936
21
-155.585
0
LINE
8
BLACK
6
CONTINUOUS
10
251.936
20
-155.585
11
252.222
21
-155.442
0
LINE
8
BLACK
6
CONTINUOUS
10
252.222
20
-155.442
11
252.651
21
-155.442
0
LINE
8
BLACK
6
CONTINUOUS
10
252.651
20
-155.442
11
252.936
21
-155.585
0
LINE
8
BLACK
6
CONTINUOUS
10
252.936
20
-155.585
11
253.079
21
-155.728
0
LINE
8
BLACK
6
CONTINUOUS
10
253.079
20
-155.728
11
253.222
21
-156.014
0
LINE
8
BLACK
6
CONTINUOUS
10
253.222
20
-156.014
11
253.222
21
-156.871
0
LINE
8
BLACK
6
CONTINUOUS
10
253.222
20
-156.871
11
253.079
21
-157.156
0
LINE
8
BLACK
6
CONTINUOUS
10
253.079
20
-157.156
11
252.936
21
-157.299
0
LINE
8
BLACK
6
CONTINUOUS
10
252.936
20
-157.299
11
252.651
21
-157.442
0
LINE
8
BLACK
6
CONTINUOUS
10
252.651
20
-157.442
11
252.222
21
-157.442
0
LINE
8
BLACK
6
CONTINUOUS
10
254.936
20
-157.442
11
254.651
21
-157.299
0
LINE
8
BLACK
6
CONTINUOUS
10
254.651
20
-157.299
11
254.508
21
-157.014
0
LINE
8
BLACK
6
CONTINUOUS
10
254.508
20
-157.014
11
254.508
21
-154.442
0
LINE
8
BLACK
6
CONTINUOUS
10
257.222
20
-157.299
11
256.936
21
-157.442
0
LINE
8
BLACK
6
CONTINUOUS
10
256.936
20
-157.442
11
256.365
21
-157.442
0
LINE
8
BLACK
6
CONTINUOUS
10
256.365
20
-157.442
11
256.079
21
-157.299
0
LINE
8
BLACK
6
CONTINUOUS
10
256.079
20
-157.299
11
255.936
21
-157.014
0
LINE
8
BLACK
6
CONTINUOUS
10
255.936
20
-157.014
11
255.936
21
-155.871
0
LINE
8
BLACK
6
CONTINUOUS
10
255.936
20
-155.871
11
256.079
21
-155.585
0
LINE
8
BLACK
6
CONTINUOUS
10
256.079
20
-155.585
11
256.365
21
-155.442
0
LINE
8
BLACK
6
CONTINUOUS
10
256.365
20
-155.442
11
256.936
21
-155.442
0
LINE
8
BLACK
6
CONTINUOUS
10
256.936
20
-155.442
11
257.222
21
-155.585
0
LINE
8
BLACK
6
CONTINUOUS
10
257.222
20
-155.585
11
257.365
21
-155.871
0
LINE
8
BLACK
6
CONTINUOUS
10
257.365
20
-155.871
11
257.365
21
-156.156
0
LINE
8
BLACK
6
CONTINUOUS
10
257.365
20
-156.156
11
255.936
21
-156.442
0
LINE
8
BLACK
6
CONTINUOUS
10
258.508
20
-157.299
11
258.794
21
-157.442
0
LINE
8
BLACK
6
CONTINUOUS
10
258.794
20
-157.442
11
259.365
21
-157.442
0
LINE
8
BLACK
6
CONTINUOUS
10
259.365
20
-157.442
11
259.651
21
-157.299
0
LINE
8
BLACK
6
CONTINUOUS
10
259.651
20
-157.299
11
259.794
21
-157.014
0
LINE
8
BLACK
6
CONTINUOUS
10
259.794
20
-157.014
11
259.794
21
-156.871
0
LINE
8
BLACK
6
CONTINUOUS
10
259.794
20
-156.871
11
259.651
21
-156.585
0
LINE
8
BLACK
6
CONTINUOUS
10
259.651
20
-156.585
11
259.365
21
-156.442
0
LINE
8
BLACK
6
CONTINUOUS
10
259.365
20
-156.442
11
258.936
21
-156.442
0
LINE
8
BLACK
6
CONTINUOUS
10
258.936
20
-156.442
11
258.651
21
-156.299
0
LINE
8
BLACK
6
CONTINUOUS
10
258.651
20
-156.299
11
258.508
21
-156.014
0
LINE
8
BLACK
6
CONTINUOUS
10
258.508
20
-156.014
11
258.508
21
-155.871
0
LINE
8
BLACK
6
CONTINUOUS
10
258.508
20
-155.871
11
258.651
21
-155.585
0
LINE
8
BLACK
6
CONTINUOUS
10
258.651
20
-155.585
11
258.936
21
-155.442
0
LINE
8
BLACK
6
CONTINUOUS
10
258.936
20
-155.442
11
259.365
21
-155.442
0
LINE
8
BLACK
6
CONTINUOUS
10
259.365
20
-155.442
11
259.651
21
-155.585
0
LINE
8
BLACK
6
CONTINUOUS
10
260.794
20
-158.585
11
260.936
21
-158.442
0
LINE
8
BLACK
6
CONTINUOUS
10
260.936
20
-158.442
11
261.222
21
-158.014
0
LINE
8
BLACK
6
CONTINUOUS
10
261.222
20
-158.014
11
261.365
21
-157.728
0
LINE
8
BLACK
6
CONTINUOUS
10
261.365
20
-157.728
11
261.508
21
-157.299
0
LINE
8
BLACK
6
CONTINUOUS
10
261.508
20
-157.299
11
261.651
21
-156.585
0
LINE
8
BLACK
6
CONTINUOUS
10
261.651
20
-156.585
11
261.651
21
-156.014
0
LINE
8
BLACK
6
CONTINUOUS
10
261.651
20
-156.014
11
261.508
21
-155.299
0
LINE
8
BLACK
6
CONTINUOUS
10
261.508
20
-155.299
11
261.365
21
-154.871
0
LINE
8
BLACK
6
CONTINUOUS
10
261.365
20
-154.871
11
261.222
21
-154.585
0
LINE
8
BLACK
6
CONTINUOUS
10
261.222
20
-154.585
11
260.936
21
-154.156
0
LINE
8
BLACK
6
CONTINUOUS
10
260.936
20
-154.156
11
260.794
21
-154.014
0
LINE
8
BLACK
6
CONTINUOUS
10
189.765
20
-159.595
11
189.765
21
-160.495
0
LINE
8
BLACK
6
CONTINUOUS
10
189.315
20
-160.045
11
190.215
21
-160.045
0
LINE
8
BLACK
6
CONTINUOUS
10
193.651
20
-158.402
11
193.936
21
-158.402
0
LINE
8
BLACK
6
CONTINUOUS
10
193.936
20
-158.402
11
194.222
21
-158.545
0
LINE
8
BLACK
6
CONTINUOUS
10
194.222
20
-158.545
11
194.365
21
-158.688
0
LINE
8
BLACK
6
CONTINUOUS
10
194.365
20
-158.688
11
194.508
21
-158.974
0
LINE
8
BLACK
6
CONTINUOUS
10
194.508
20
-158.974
11
194.651
21
-159.545
0
LINE
8
BLACK
6
CONTINUOUS
10
194.651
20
-159.545
11
194.651
21
-160.259
0
LINE
8
BLACK
6
CONTINUOUS
10
194.651
20
-160.259
11
194.508
21
-160.831
0
LINE
8
BLACK
6
CONTINUOUS
10
194.508
20
-160.831
11
194.365
21
-161.116
0
LINE
8
BLACK
6
CONTINUOUS
10
194.365
20
-161.116
11
194.222
21
-161.259
0
LINE
8
BLACK
6
CONTINUOUS
10
194.222
20
-161.259
11
193.936
21
-161.402
0
LINE
8
BLACK
6
CONTINUOUS
10
193.936
20
-161.402
11
193.651
21
-161.402
0
LINE
8
BLACK
6
CONTINUOUS
10
193.651
20
-161.402
11
193.365
21
-161.259
0
LINE
8
BLACK
6
CONTINUOUS
10
193.365
20
-161.259
11
193.222
21
-161.116
0
LINE
8
BLACK
6
CONTINUOUS
10
193.222
20
-161.116
11
193.079
21
-160.831
0
LINE
8
BLACK
6
CONTINUOUS
10
193.079
20
-160.831
11
192.936
21
-160.259
0
LINE
8
BLACK
6
CONTINUOUS
10
192.936
20
-160.259
11
192.936
21
-159.545
0
LINE
8
BLACK
6
CONTINUOUS
10
192.936
20
-159.545
11
193.079
21
-158.974
0
LINE
8
BLACK
6
CONTINUOUS
10
193.079
20
-158.974
11
193.222
21
-158.688
0
LINE
8
BLACK
6
CONTINUOUS
10
193.222
20
-158.688
11
193.365
21
-158.545
0
LINE
8
BLACK
6
CONTINUOUS
10
193.365
20
-158.545
11
193.651
21
-158.402
0
LINE
8
BLACK
6
CONTINUOUS
10
195.936
20
-161.116
11
196.079
21
-161.259
0
LINE
8
BLACK
6
CONTINUOUS
10
196.079
20
-161.259
11
195.936
21
-161.402
0
LINE
8
BLACK
6
CONTINUOUS
10
195.936
20
-161.402
11
195.794
21
-161.259
0
LINE
8
BLACK
6
CONTINUOUS
10
195.794
20
-161.259
11
195.936
21
-161.116
0
LINE
8
BLACK
6
CONTINUOUS
10
195.936
20
-161.116
11
195.936
21
-161.402
0
LINE
8
BLACK
6
CONTINUOUS
10
197.508
20
-161.402
11
198.079
21
-161.402
0
LINE
8
BLACK
6
CONTINUOUS
10
198.079
20
-161.402
11
198.365
21
-161.259
0
LINE
8
BLACK
6
CONTINUOUS
10
198.365
20
-161.259
11
198.508
21
-161.116
0
LINE
8
BLACK
6
CONTINUOUS
10
198.508
20
-161.116
11
198.794
21
-160.688
0
LINE
8
BLACK
6
CONTINUOUS
10
198.794
20
-160.688
11
198.936
21
-160.116
0
LINE
8
BLACK
6
CONTINUOUS
10
198.936
20
-160.116
11
198.936
21
-158.974
0
LINE
8
BLACK
6
CONTINUOUS
10
198.936
20
-158.974
11
198.794
21
-158.688
0
LINE
8
BLACK
6
CONTINUOUS
10
198.794
20
-158.688
11
198.651
21
-158.545
0
LINE
8
BLACK
6
CONTINUOUS
10
198.651
20
-158.545
11
198.365
21
-158.402
0
LINE
8
BLACK
6
CONTINUOUS
10
198.365
20
-158.402
11
197.794
21
-158.402
0
LINE
8
BLACK
6
CONTINUOUS
10
197.794
20
-158.402
11
197.508
21
-158.545
0
LINE
8
BLACK
6
CONTINUOUS
10
197.508
20
-158.545
11
197.365
21
-158.688
0
LINE
8
BLACK
6
CONTINUOUS
10
197.365
20
-158.688
11
197.222
21
-158.974
0
LINE
8
BLACK
6
CONTINUOUS
10
197.222
20
-158.974
11
197.222
21
-159.688
0
LINE
8
BLACK
6
CONTINUOUS
10
197.222
20
-159.688
11
197.365
21
-159.974
0
LINE
8
BLACK
6
CONTINUOUS
10
197.365
20
-159.974
11
197.508
21
-160.116
0
LINE
8
BLACK
6
CONTINUOUS
10
197.508
20
-160.116
11
197.794
21
-160.259
0
LINE
8
BLACK
6
CONTINUOUS
10
197.794
20
-160.259
11
198.365
21
-160.259
0
LINE
8
BLACK
6
CONTINUOUS
10
198.365
20
-160.259
11
198.651
21
-160.116
0
LINE
8
BLACK
6
CONTINUOUS
10
198.651
20
-160.116
11
198.794
21
-159.974
0
LINE
8
BLACK
6
CONTINUOUS
10
198.794
20
-159.974
11
198.936
21
-159.688
0
LINE
8
BLACK
6
CONTINUOUS
10
200.794
20
-158.402
11
201.079
21
-158.402
0
LINE
8
BLACK
6
CONTINUOUS
10
201.079
20
-158.402
11
201.365
21
-158.545
0
LINE
8
BLACK
6
CONTINUOUS
10
201.365
20
-158.545
11
201.508
21
-158.688
0
LINE
8
BLACK
6
CONTINUOUS
10
201.508
20
-158.688
11
201.651
21
-158.974
0
LINE
8
BLACK
6
CONTINUOUS
10
201.651
20
-158.974
11
201.794
21
-159.545
0
LINE
8
BLACK
6
CONTINUOUS
10
201.794
20
-159.545
11
201.794
21
-160.259
0
LINE
8
BLACK
6
CONTINUOUS
10
201.794
20
-160.259
11
201.651
21
-160.831
0
LINE
8
BLACK
6
CONTINUOUS
10
201.651
20
-160.831
11
201.508
21
-161.116
0
LINE
8
BLACK
6
CONTINUOUS
10
201.508
20
-161.116
11
201.365
21
-161.259
0
LINE
8
BLACK
6
CONTINUOUS
10
201.365
20
-161.259
11
201.079
21
-161.402
0
LINE
8
BLACK
6
CONTINUOUS
10
201.079
20
-161.402
11
200.794
21
-161.402
0
LINE
8
BLACK
6
CONTINUOUS
10
200.794
20
-161.402
11
200.508
21
-161.259
0
LINE
8
BLACK
6
CONTINUOUS
10
200.508
20
-161.259
11
200.365
21
-161.116
0
LINE
8
BLACK
6
CONTINUOUS
10
200.365
20
-161.116
11
200.222
21
-160.831
0
LINE
8
BLACK
6
CONTINUOUS
10
200.222
20
-160.831
11
200.079
21
-160.259
0
LINE
8
BLACK
6
CONTINUOUS
10
200.079
20
-160.259
11
200.079
21
-159.545
0
LINE
8
BLACK
6
CONTINUOUS
10
200.079
20
-159.545
11
200.222
21
-158.974
0
LINE
8
BLACK
6
CONTINUOUS
10
200.222
20
-158.974
11
200.365
21
-158.688
0
LINE
8
BLACK
6
CONTINUOUS
10
200.365
20
-158.688
11
200.508
21
-158.545
0
LINE
8
BLACK
6
CONTINUOUS
10
200.508
20
-158.545
11
200.794
21
-158.402
0
LINE
8
BLACK
6
CONTINUOUS
10
203.079
20
-161.402
11
203.079
21
-159.402
0
LINE
8
BLACK
6
CONTINUOUS
10
203.079
20
-159.688
11
203.222
21
-159.545
0
LINE
8
BLACK
6
CONTINUOUS
10
203.222
20
-159.545
11
203.508
21
-159.402
0
LINE
8
BLACK
6
CONTINUOUS
10
203.508
20
-159.402
11
203.936
21
-159.402
0
LINE
8
BLACK
6
CONTINUOUS
10
203.936
20
-159.402
11
204.222
21
-159.545
0
LINE
8
BLACK
6
CONTINUOUS
10
204.222
20
-159.545
11
204.365
21
-159.831
0
LINE
8
BLACK
6
CONTINUOUS
10
204.365
20
-159.831
11
204.365
21
-161.402
0
LINE
8
BLACK
6
CONTINUOUS
10
204.365
20
-159.831
11
204.508
21
-159.545
0
LINE
8
BLACK
6
CONTINUOUS
10
204.508
20
-159.545
11
204.794
21
-159.402
0
LINE
8
BLACK
6
CONTINUOUS
10
204.794
20
-159.402
11
205.222
21
-159.402
0
LINE
8
BLACK
6
CONTINUOUS
10
205.222
20
-159.402
11
205.508
21
-159.545
0
LINE
8
BLACK
6
CONTINUOUS
10
205.508
20
-159.545
11
205.651
21
-159.831
0
LINE
8
BLACK
6
CONTINUOUS
10
205.651
20
-159.831
11
205.651
21
-161.402
0
LINE
8
BLACK
6
CONTINUOUS
10
207.079
20
-161.402
11
207.079
21
-159.402
0
LINE
8
BLACK
6
CONTINUOUS
10
207.079
20
-159.688
11
207.222
21
-159.545
0
LINE
8
BLACK
6
CONTINUOUS
10
207.222
20
-159.545
11
207.508
21
-159.402
0
LINE
8
BLACK
6
CONTINUOUS
10
207.508
20
-159.402
11
207.936
21
-159.402
0
LINE
8
BLACK
6
CONTINUOUS
10
207.936
20
-159.402
11
208.222
21
-159.545
0
LINE
8
BLACK
6
CONTINUOUS
10
208.222
20
-159.545
11
208.365
21
-159.831
0
LINE
8
BLACK
6
CONTINUOUS
10
208.365
20
-159.831
11
208.365
21
-161.402
0
LINE
8
BLACK
6
CONTINUOUS
10
208.365
20
-159.831
11
208.508
21
-159.545
0
LINE
8
BLACK
6
CONTINUOUS
10
208.508
20
-159.545
11
208.794
21
-159.402
0
LINE
8
BLACK
6
CONTINUOUS
10
208.794
20
-159.402
11
209.222
21
-159.402
0
LINE
8
BLACK
6
CONTINUOUS
10
209.222
20
-159.402
11
209.508
21
-159.545
0
LINE
8
BLACK
6
CONTINUOUS
10
209.508
20
-159.545
11
209.651
21
-159.831
0
LINE
8
BLACK
6
CONTINUOUS
10
209.651
20
-159.831
11
209.651
21
-161.402
0
LINE
8
BLACK
6
CONTINUOUS
10
215.508
20
-158.259
11
212.936
21
-162.116
0
LINE
8
BLACK
6
CONTINUOUS
10
219.365
20
-158.402
11
219.651
21
-158.402
0
LINE
8
BLACK
6
CONTINUOUS
10
219.651
20
-158.402
11
219.936
21
-158.545
0
LINE
8
BLACK
6
CONTINUOUS
10
219.936
20
-158.545
11
220.079
21
-158.688
0
LINE
8
BLACK
6
CONTINUOUS
10
220.079
20
-158.688
11
220.222
21
-158.974
0
LINE
8
BLACK
6
CONTINUOUS
10
220.222
20
-158.974
11
220.365
21
-159.545
0
LINE
8
BLACK
6
CONTINUOUS
10
220.365
20
-159.545
11
220.365
21
-160.259
0
LINE
8
BLACK
6
CONTINUOUS
10
220.365
20
-160.259
11
220.222
21
-160.831
0
LINE
8
BLACK
6
CONTINUOUS
10
220.222
20
-160.831
11
220.079
21
-161.116
0
LINE
8
BLACK
6
CONTINUOUS
10
220.079
20
-161.116
11
219.936
21
-161.259
0
LINE
8
BLACK
6
CONTINUOUS
10
219.936
20
-161.259
11
219.651
21
-161.402
0
LINE
8
BLACK
6
CONTINUOUS
10
219.651
20
-161.402
11
219.365
21
-161.402
0
LINE
8
BLACK
6
CONTINUOUS
10
219.365
20
-161.402
11
219.079
21
-161.259
0
LINE
8
BLACK
6
CONTINUOUS
10
219.079
20
-161.259
11
218.936
21
-161.116
0
LINE
8
BLACK
6
CONTINUOUS
10
218.936
20
-161.116
11
218.794
21
-160.831
0
LINE
8
BLACK
6
CONTINUOUS
10
218.794
20
-160.831
11
218.651
21
-160.259
0
LINE
8
BLACK
6
CONTINUOUS
10
218.651
20
-160.259
11
218.651
21
-159.545
0
LINE
8
BLACK
6
CONTINUOUS
10
218.651
20
-159.545
11
218.794
21
-158.974
0
LINE
8
BLACK
6
CONTINUOUS
10
218.794
20
-158.974
11
218.936
21
-158.688
0
LINE
8
BLACK
6
CONTINUOUS
10
218.936
20
-158.688
11
219.079
21
-158.545
0
LINE
8
BLACK
6
CONTINUOUS
10
219.079
20
-158.545
11
219.365
21
-158.402
0
LINE
8
BLACK
6
CONTINUOUS
10
221.651
20
-161.116
11
221.794
21
-161.259
0
LINE
8
BLACK
6
CONTINUOUS
10
221.794
20
-161.259
11
221.651
21
-161.402
0
LINE
8
BLACK
6
CONTINUOUS
10
221.651
20
-161.402
11
221.508
21
-161.259
0
LINE
8
BLACK
6
CONTINUOUS
10
221.508
20
-161.259
11
221.651
21
-161.116
0
LINE
8
BLACK
6
CONTINUOUS
10
221.651
20
-161.116
11
221.651
21
-161.402
0
LINE
8
BLACK
6
CONTINUOUS
10
223.651
20
-158.402
11
223.936
21
-158.402
0
LINE
8
BLACK
6
CONTINUOUS
10
223.936
20
-158.402
11
224.222
21
-158.545
0
LINE
8
BLACK
6
CONTINUOUS
10
224.222
20
-158.545
11
224.365
21
-158.688
0
LINE
8
BLACK
6
CONTINUOUS
10
224.365
20
-158.688
11
224.508
21
-158.974
0
LINE
8
BLACK
6
CONTINUOUS
10
224.508
20
-158.974
11
224.651
21
-159.545
0
LINE
8
BLACK
6
CONTINUOUS
10
224.651
20
-159.545
11
224.651
21
-160.259
0
LINE
8
BLACK
6
CONTINUOUS
10
224.651
20
-160.259
11
224.508
21
-160.831
0
LINE
8
BLACK
6
CONTINUOUS
10
224.508
20
-160.831
11
224.365
21
-161.116
0
LINE
8
BLACK
6
CONTINUOUS
10
224.365
20
-161.116
11
224.222
21
-161.259
0
LINE
8
BLACK
6
CONTINUOUS
10
224.222
20
-161.259
11
223.936
21
-161.402
0
LINE
8
BLACK
6
CONTINUOUS
10
223.936
20
-161.402
11
223.651
21
-161.402
0
LINE
8
BLACK
6
CONTINUOUS
10
223.651
20
-161.402
11
223.365
21
-161.259
0
LINE
8
BLACK
6
CONTINUOUS
10
223.365
20
-161.259
11
223.222
21
-161.116
0
LINE
8
BLACK
6
CONTINUOUS
10
223.222
20
-161.116
11
223.079
21
-160.831
0
LINE
8
BLACK
6
CONTINUOUS
10
223.079
20
-160.831
11
222.936
21
-160.259
0
LINE
8
BLACK
6
CONTINUOUS
10
222.936
20
-160.259
11
222.936
21
-159.545
0
LINE
8
BLACK
6
CONTINUOUS
10
222.936
20
-159.545
11
223.079
21
-158.974
0
LINE
8
BLACK
6
CONTINUOUS
10
223.079
20
-158.974
11
223.222
21
-158.688
0
LINE
8
BLACK
6
CONTINUOUS
10
223.222
20
-158.688
11
223.365
21
-158.545
0
LINE
8
BLACK
6
CONTINUOUS
10
223.365
20
-158.545
11
223.651
21
-158.402
0
LINE
8
BLACK
6
CONTINUOUS
10
225.651
20
-158.402
11
227.508
21
-158.402
0
LINE
8
BLACK
6
CONTINUOUS
10
227.508
20
-158.402
11
226.508
21
-159.545
0
LINE
8
BLACK
6
CONTINUOUS
10
226.508
20
-159.545
11
226.936
21
-159.545
0
LINE
8
BLACK
6
CONTINUOUS
10
226.936
20
-159.545
11
227.222
21
-159.688
0
LINE
8
BLACK
6
CONTINUOUS
10
227.222
20
-159.688
11
227.365
21
-159.831
0
LINE
8
BLACK
6
CONTINUOUS
10
227.365
20
-159.831
11
227.508
21
-160.116
0
LINE
8
BLACK
6
CONTINUOUS
10
227.508
20
-160.116
11
227.508
21
-160.831
0
LINE
8
BLACK
6
CONTINUOUS
10
227.508
20
-160.831
11
227.365
21
-161.116
0
LINE
8
BLACK
6
CONTINUOUS
10
227.365
20
-161.116
11
227.222
21
-161.259
0
LINE
8
BLACK
6
CONTINUOUS
10
227.222
20
-161.259
11
226.936
21
-161.402
0
LINE
8
BLACK
6
CONTINUOUS
10
226.936
20
-161.402
11
226.079
21
-161.402
0
LINE
8
BLACK
6
CONTINUOUS
10
226.079
20
-161.402
11
225.794
21
-161.259
0
LINE
8
BLACK
6
CONTINUOUS
10
225.794
20
-161.259
11
225.651
21
-161.116
0
LINE
8
BLACK
6
CONTINUOUS
10
230.222
20
-158.402
11
228.794
21
-158.402
0
LINE
8
BLACK
6
CONTINUOUS
10
228.794
20
-158.402
11
228.651
21
-159.831
0
LINE
8
BLACK
6
CONTINUOUS
10
228.651
20
-159.831
11
228.794
21
-159.688
0
LINE
8
BLACK
6
CONTINUOUS
10
228.794
20
-159.688
11
229.079
21
-159.545
0
LINE
8
BLACK
6
CONTINUOUS
10
229.079
20
-159.545
11
229.794
21
-159.545
0
LINE
8
BLACK
6
CONTINUOUS
10
229.794
20
-159.545
11
230.079
21
-159.688
0
LINE
8
BLACK
6
CONTINUOUS
10
230.079
20
-159.688
11
230.222
21
-159.831
0
LINE
8
BLACK
6
CONTINUOUS
10
230.222
20
-159.831
11
230.365
21
-160.116
0
LINE
8
BLACK
6
CONTINUOUS
10
230.365
20
-160.116
11
230.365
21
-160.831
0
LINE
8
BLACK
6
CONTINUOUS
10
230.365
20
-160.831
11
230.222
21
-161.116
0
LINE
8
BLACK
6
CONTINUOUS
10
230.222
20
-161.116
11
230.079
21
-161.259
0
LINE
8
BLACK
6
CONTINUOUS
10
230.079
20
-161.259
11
229.794
21
-161.402
0
LINE
8
BLACK
6
CONTINUOUS
10
229.794
20
-161.402
11
229.079
21
-161.402
0
LINE
8
BLACK
6
CONTINUOUS
10
229.079
20
-161.402
11
228.794
21
-161.259
0
LINE
8
BLACK
6
CONTINUOUS
10
228.794
20
-161.259
11
228.651
21
-161.116
0
LINE
8
BLACK
6
CONTINUOUS
10
231.508
20
-158.402
11
231.508
21
-158.974
0
LINE
8
BLACK
6
CONTINUOUS
10
232.651
20
-158.402
11
232.651
21
-158.974
0
LINE
8
BLACK
6
CONTINUOUS
10
237.079
20
-162.545
11
236.936
21
-162.402
0
LINE
8
BLACK
6
CONTINUOUS
10
236.936
20
-162.402
11
236.651
21
-161.974
0
LINE
8
BLACK
6
CONTINUOUS
10
236.651
20
-161.974
11
236.508
21
-161.688
0
LINE
8
BLACK
6
CONTINUOUS
10
236.508
20
-161.688
11
236.365
21
-161.259
0
LINE
8
BLACK
6
CONTINUOUS
10
236.365
20
-161.259
11
236.222
21
-160.545
0
LINE
8
BLACK
6
CONTINUOUS
10
236.222
20
-160.545
11
236.222
21
-159.974
0
LINE
8
BLACK
6
CONTINUOUS
10
236.222
20
-159.974
11
236.365
21
-159.259
0
LINE
8
BLACK
6
CONTINUOUS
10
236.365
20
-159.259
11
236.508
21
-158.831
0
LINE
8
BLACK
6
CONTINUOUS
10
236.508
20
-158.831
11
236.651
21
-158.545
0
LINE
8
BLACK
6
CONTINUOUS
10
236.651
20
-158.545
11
236.936
21
-158.116
0
LINE
8
BLACK
6
CONTINUOUS
10
236.936
20
-158.116
11
237.079
21
-157.974
0
LINE
8
BLACK
6
CONTINUOUS
10
239.508
20
-159.402
11
239.508
21
-161.402
0
LINE
8
BLACK
6
CONTINUOUS
10
238.794
20
-158.259
11
238.079
21
-160.402
0
LINE
8
BLACK
6
CONTINUOUS
10
238.079
20
-160.402
11
239.936
21
-160.402
0
LINE
8
BLACK
6
CONTINUOUS
10
243.365
20
-161.402
11
243.365
21
-158.402
0
LINE
8
BLACK
6
CONTINUOUS
10
244.651
20
-161.402
11
244.651
21
-159.831
0
LINE
8
BLACK
6
CONTINUOUS
10
244.651
20
-159.831
11
244.508
21
-159.545
0
LINE
8
BLACK
6
CONTINUOUS
10
244.508
20
-159.545
11
244.222
21
-159.402
0
LINE
8
BLACK
6
CONTINUOUS
10
244.222
20
-159.402
11
243.794
21
-159.402
0
LINE
8
BLACK
6
CONTINUOUS
10
243.794
20
-159.402
11
243.508
21
-159.545
0
LINE
8
BLACK
6
CONTINUOUS
10
243.508
20
-159.545
11
243.365
21
-159.688
0
LINE
8
BLACK
6
CONTINUOUS
10
246.508
20
-161.402
11
246.222
21
-161.259
0
LINE
8
BLACK
6
CONTINUOUS
10
246.222
20
-161.259
11
246.079
21
-161.116
0
LINE
8
BLACK
6
CONTINUOUS
10
246.079
20
-161.116
11
245.936
21
-160.831
0
LINE
8
BLACK
6
CONTINUOUS
10
245.936
20
-160.831
11
245.936
21
-159.974
0
LINE
8
BLACK
6
CONTINUOUS
10
245.936
20
-159.974
11
246.079
21
-159.688
0
LINE
8
BLACK
6
CONTINUOUS
10
246.079
20
-159.688
11
246.222
21
-159.545
0
LINE
8
BLACK
6
CONTINUOUS
10
246.222
20
-159.545
11
246.508
21
-159.402
0
LINE
8
BLACK
6
CONTINUOUS
10
246.508
20
-159.402
11
246.936
21
-159.402
0
LINE
8
BLACK
6
CONTINUOUS
10
246.936
20
-159.402
11
247.222
21
-159.545
0
LINE
8
BLACK
6
CONTINUOUS
10
247.222
20
-159.545
11
247.365
21
-159.688
0
LINE
8
BLACK
6
CONTINUOUS
10
247.365
20
-159.688
11
247.508
21
-159.974
0
LINE
8
BLACK
6
CONTINUOUS
10
247.508
20
-159.974
11
247.508
21
-160.831
0
LINE
8
BLACK
6
CONTINUOUS
10
247.508
20
-160.831
11
247.365
21
-161.116
0
LINE
8
BLACK
6
CONTINUOUS
10
247.365
20
-161.116
11
247.222
21
-161.259
0
LINE
8
BLACK
6
CONTINUOUS
10
247.222
20
-161.259
11
246.936
21
-161.402
0
LINE
8
BLACK
6
CONTINUOUS
10
246.936
20
-161.402
11
246.508
21
-161.402
0
LINE
8
BLACK
6
CONTINUOUS
10
249.222
20
-161.402
11
248.936
21
-161.259
0
LINE
8
BLACK
6
CONTINUOUS
10
248.936
20
-161.259
11
248.794
21
-160.974
0
LINE
8
BLACK
6
CONTINUOUS
10
248.794
20
-160.974
11
248.794
21
-158.402
0
LINE
8
BLACK
6
CONTINUOUS
10
251.508
20
-161.259
11
251.222
21
-161.402
0
LINE
8
BLACK
6
CONTINUOUS
10
251.222
20
-161.402
11
250.651
21
-161.402
0
LINE
8
BLACK
6
CONTINUOUS
10
250.651
20
-161.402
11
250.365
21
-161.259
0
LINE
8
BLACK
6
CONTINUOUS
10
250.365
20
-161.259
11
250.222
21
-160.974
0
LINE
8
BLACK
6
CONTINUOUS
10
250.222
20
-160.974
11
250.222
21
-159.831
0
LINE
8
BLACK
6
CONTINUOUS
10
250.222
20
-159.831
11
250.365
21
-159.545
0
LINE
8
BLACK
6
CONTINUOUS
10
250.365
20
-159.545
11
250.651
21
-159.402
0
LINE
8
BLACK
6
CONTINUOUS
10
250.651
20
-159.402
11
251.222
21
-159.402
0
LINE
8
BLACK
6
CONTINUOUS
10
251.222
20
-159.402
11
251.508
21
-159.545
0
LINE
8
BLACK
6
CONTINUOUS
10
251.508
20
-159.545
11
251.651
21
-159.831
0
LINE
8
BLACK
6
CONTINUOUS
10
251.651
20
-159.831
11
251.651
21
-160.116
0
LINE
8
BLACK
6
CONTINUOUS
10
251.651
20
-160.116
11
250.222
21
-160.402
0
LINE
8
BLACK
6
CONTINUOUS
10
252.794
20
-161.259
11
253.079
21
-161.402
0
LINE
8
BLACK
6
CONTINUOUS
10
253.079
20
-161.402
11
253.651
21
-161.402
0
LINE
8
BLACK
6
CONTINUOUS
10
253.651
20
-161.402
11
253.936
21
-161.259
0
LINE
8
BLACK
6
CONTINUOUS
10
253.936
20
-161.259
11
254.079
21
-160.974
0
LINE
8
BLACK
6
CONTINUOUS
10
254.079
20
-160.974
11
254.079
21
-160.831
0
LINE
8
BLACK
6
CONTINUOUS
10
254.079
20
-160.831
11
253.936
21
-160.545
0
LINE
8
BLACK
6
CONTINUOUS
10
253.936
20
-160.545
11
253.651
21
-160.402
0
LINE
8
BLACK
6
CONTINUOUS
10
253.651
20
-160.402
11
253.222
21
-160.402
0
LINE
8
BLACK
6
CONTINUOUS
10
253.222
20
-160.402
11
252.936
21
-160.259
0
LINE
8
BLACK
6
CONTINUOUS
10
252.936
20
-160.259
11
252.794
21
-159.974
0
LINE
8
BLACK
6
CONTINUOUS
10
252.794
20
-159.974
11
252.794
21
-159.831
0
LINE
8
BLACK
6
CONTINUOUS
10
252.794
20
-159.831
11
252.936
21
-159.545
0
LINE
8
BLACK
6
CONTINUOUS
10
252.936
20
-159.545
11
253.222
21
-159.402
0
LINE
8
BLACK
6
CONTINUOUS
10
253.222
20
-159.402
11
253.651
21
-159.402
0
LINE
8
BLACK
6
CONTINUOUS
10
253.651
20
-159.402
11
253.936
21
-159.545
0
LINE
8
BLACK
6
CONTINUOUS
10
255.079
20
-162.545
11
255.222
21
-162.402
0
LINE
8
BLACK
6
CONTINUOUS
10
255.222
20
-162.402
11
255.508
21
-161.974
0
LINE
8
BLACK
6
CONTINUOUS
10
255.508
20
-161.974
11
255.651
21
-161.688
0
LINE
8
BLACK
6
CONTINUOUS
10
255.651
20
-161.688
11
255.794
21
-161.259
0
LINE
8
BLACK
6
CONTINUOUS
10
255.794
20
-161.259
11
255.936
21
-160.545
0
LINE
8
BLACK
6
CONTINUOUS
10
255.936
20
-160.545
11
255.936
21
-159.974
0
LINE
8
BLACK
6
CONTINUOUS
10
255.936
20
-159.974
11
255.794
21
-159.259
0
LINE
8
BLACK
6
CONTINUOUS
10
255.794
20
-159.259
11
255.651
21
-158.831
0
LINE
8
BLACK
6
CONTINUOUS
10
255.651
20
-158.831
11
255.508
21
-158.545
0
LINE
8
BLACK
6
CONTINUOUS
10
255.508
20
-158.545
11
255.222
21
-158.116
0
LINE
8
BLACK
6
CONTINUOUS
10
255.222
20
-158.116
11
255.079
21
-157.974
0
LINE
8
BLACK
6
CONTINUOUS
10
190.069
20
-164.359
11
190.069
21
-163.651
0
LINE
8
BLACK
6
CONTINUOUS
10
190.069
20
-163.651
11
189.361
21
-163.651
0
LINE
8
BLACK
6
CONTINUOUS
10
189.361
20
-163.651
11
189.361
21
-164.359
0
LINE
8
BLACK
6
CONTINUOUS
10
189.361
20
-164.359
11
190.069
21
-164.359
0
LINE
8
BLACK
6
CONTINUOUS
10
194.651
20
-165.362
11
192.936
21
-165.362
0
LINE
8
BLACK
6
CONTINUOUS
10
193.794
20
-165.362
11
193.794
21
-162.362
0
LINE
8
BLACK
6
CONTINUOUS
10
193.794
20
-162.362
11
193.508
21
-162.791
0
LINE
8
BLACK
6
CONTINUOUS
10
193.508
20
-162.791
11
193.222
21
-163.076
0
LINE
8
BLACK
6
CONTINUOUS
10
193.222
20
-163.076
11
192.936
21
-163.219
0
LINE
8
BLACK
6
CONTINUOUS
10
195.936
20
-165.076
11
196.079
21
-165.219
0
LINE
8
BLACK
6
CONTINUOUS
10
196.079
20
-165.219
11
195.936
21
-165.362
0
LINE
8
BLACK
6
CONTINUOUS
10
195.936
20
-165.362
11
195.794
21
-165.219
0
LINE
8
BLACK
6
CONTINUOUS
10
195.794
20
-165.219
11
195.936
21
-165.076
0
LINE
8
BLACK
6
CONTINUOUS
10
195.936
20
-165.076
11
195.936
21
-165.362
0
LINE
8
BLACK
6
CONTINUOUS
10
197.936
20
-162.362
11
198.222
21
-162.362
0
LINE
8
BLACK
6
CONTINUOUS
10
198.222
20
-162.362
11
198.508
21
-162.505
0
LINE
8
BLACK
6
CONTINUOUS
10
198.508
20
-162.505
11
198.651
21
-162.648
0
LINE
8
BLACK
6
CONTINUOUS
10
198.651
20
-162.648
11
198.794
21
-162.934
0
LINE
8
BLACK
6
CONTINUOUS
10
198.794
20
-162.934
11
198.936
21
-163.505
0
LINE
8
BLACK
6
CONTINUOUS
10
198.936
20
-163.505
11
198.936
21
-164.219
0
LINE
8
BLACK
6
CONTINUOUS
10
198.936
20
-164.219
11
198.794
21
-164.791
0
LINE
8
BLACK
6
CONTINUOUS
10
198.794
20
-164.791
11
198.651
21
-165.076
0
LINE
8
BLACK
6
CONTINUOUS
10
198.651
20
-165.076
11
198.508
21
-165.219
0
LINE
8
BLACK
6
CONTINUOUS
10
198.508
20
-165.219
11
198.222
21
-165.362
0
LINE
8
BLACK
6
CONTINUOUS
10
198.222
20
-165.362
11
197.936
21
-165.362
0
LINE
8
BLACK
6
CONTINUOUS
10
197.936
20
-165.362
11
197.651
21
-165.219
0
LINE
8
BLACK
6
CONTINUOUS
10
197.651
20
-165.219
11
197.508
21
-165.076
0
LINE
8
BLACK
6
CONTINUOUS
10
197.508
20
-165.076
11
197.365
21
-164.791
0
LINE
8
BLACK
6
CONTINUOUS
10
197.365
20
-164.791
11
197.222
21
-164.219
0
LINE
8
BLACK
6
CONTINUOUS
10
197.222
20
-164.219
11
197.222
21
-163.505
0
LINE
8
BLACK
6
CONTINUOUS
10
197.222
20
-163.505
11
197.365
21
-162.934
0
LINE
8
BLACK
6
CONTINUOUS
10
197.365
20
-162.934
11
197.508
21
-162.648
0
LINE
8
BLACK
6
CONTINUOUS
10
197.508
20
-162.648
11
197.651
21
-162.505
0
LINE
8
BLACK
6
CONTINUOUS
10
197.651
20
-162.505
11
197.936
21
-162.362
0
LINE
8
BLACK
6
CONTINUOUS
10
200.794
20
-162.362
11
201.079
21
-162.362
0
LINE
8
BLACK
6
CONTINUOUS
10
201.079
20
-162.362
11
201.365
21
-162.505
0
LINE
8
BLACK
6
CONTINUOUS
10
201.365
20
-162.505
11
201.508
21
-162.648
0
LINE
8
BLACK
6
CONTINUOUS
10
201.508
20
-162.648
11
201.651
21
-162.934
0
LINE
8
BLACK
6
CONTINUOUS
10
201.651
20
-162.934
11
201.794
21
-163.505
0
LINE
8
BLACK
6
CONTINUOUS
10
201.794
20
-163.505
11
201.794
21
-164.219
0
LINE
8
BLACK
6
CONTINUOUS
10
201.794
20
-164.219
11
201.651
21
-164.791
0
LINE
8
BLACK
6
CONTINUOUS
10
201.651
20
-164.791
11
201.508
21
-165.076
0
LINE
8
BLACK
6
CONTINUOUS
10
201.508
20
-165.076
11
201.365
21
-165.219
0
LINE
8
BLACK
6
CONTINUOUS
10
201.365
20
-165.219
11
201.079
21
-165.362
0
LINE
8
BLACK
6
CONTINUOUS
10
201.079
20
-165.362
11
200.794
21
-165.362
0
LINE
8
BLACK
6
CONTINUOUS
10
200.794
20
-165.362
11
200.508
21
-165.219
0
LINE
8
BLACK
6
CONTINUOUS
10
200.508
20
-165.219
11
200.365
21
-165.076
0
LINE
8
BLACK
6
CONTINUOUS
10
200.365
20
-165.076
11
200.222
21
-164.791
0
LINE
8
BLACK
6
CONTINUOUS
10
200.222
20
-164.791
11
200.079
21
-164.219
0
LINE
8
BLACK
6
CONTINUOUS
10
200.079
20
-164.219
11
200.079
21
-163.505
0
LINE
8
BLACK
6
CONTINUOUS
10
200.079
20
-163.505
11
200.222
21
-162.934
0
LINE
8
BLACK
6
CONTINUOUS
10
200.222
20
-162.934
11
200.365
21
-162.648
0
LINE
8
BLACK
6
CONTINUOUS
10
200.365
20
-162.648
11
200.508
21
-162.505
0
LINE
8
BLACK
6
CONTINUOUS
10
200.508
20
-162.505
11
200.794
21
-162.362
0
LINE
8
BLACK
6
CONTINUOUS
10
203.079
20
-165.362
11
203.079
21
-163.362
0
LINE
8
BLACK
6
CONTINUOUS
10
203.079
20
-163.648
11
203.222
21
-163.505
0
LINE
8
BLACK
6
CONTINUOUS
10
203.222
20
-163.505
11
203.508
21
-163.362
0
LINE
8
BLACK
6
CONTINUOUS
10
203.508
20
-163.362
11
203.936
21
-163.362
0
LINE
8
BLACK
6
CONTINUOUS
10
203.936
20
-163.362
11
204.222
21
-163.505
0
LINE
8
BLACK
6
CONTINUOUS
10
204.222
20
-163.505
11
204.365
21
-163.791
0
LINE
8
BLACK
6
CONTINUOUS
10
204.365
20
-163.791
11
204.365
21
-165.362
0
LINE
8
BLACK
6
CONTINUOUS
10
204.365
20
-163.791
11
204.508
21
-163.505
0
LINE
8
BLACK
6
CONTINUOUS
10
204.508
20
-163.505
11
204.794
21
-163.362
0
LINE
8
BLACK
6
CONTINUOUS
10
204.794
20
-163.362
11
205.222
21
-163.362
0
LINE
8
BLACK
6
CONTINUOUS
10
205.222
20
-163.362
11
205.508
21
-163.505
0
LINE
8
BLACK
6
CONTINUOUS
10
205.508
20
-163.505
11
205.651
21
-163.791
0
LINE
8
BLACK
6
CONTINUOUS
10
205.651
20
-163.791
11
205.651
21
-165.362
0
LINE
8
BLACK
6
CONTINUOUS
10
207.079
20
-165.362
11
207.079
21
-163.362
0
LINE
8
BLACK
6
CONTINUOUS
10
207.079
20
-163.648
11
207.222
21
-163.505
0
LINE
8
BLACK
6
CONTINUOUS
10
207.222
20
-163.505
11
207.508
21
-163.362
0
LINE
8
BLACK
6
CONTINUOUS
10
207.508
20
-163.362
11
207.936
21
-163.362
0
LINE
8
BLACK
6
CONTINUOUS
10
207.936
20
-163.362
11
208.222
21
-163.505
0
LINE
8
BLACK
6
CONTINUOUS
10
208.222
20
-163.505
11
208.365
21
-163.791
0
LINE
8
BLACK
6
CONTINUOUS
10
208.365
20
-163.791
11
208.365
21
-165.362
0
LINE
8
BLACK
6
CONTINUOUS
10
208.365
20
-163.791
11
208.508
21
-163.505
0
LINE
8
BLACK
6
CONTINUOUS
10
208.508
20
-163.505
11
208.794
21
-163.362
0
LINE
8
BLACK
6
CONTINUOUS
10
208.794
20
-163.362
11
209.222
21
-163.362
0
LINE
8
BLACK
6
CONTINUOUS
10
209.222
20
-163.362
11
209.508
21
-163.505
0
LINE
8
BLACK
6
CONTINUOUS
10
209.508
20
-163.505
11
209.651
21
-163.791
0
LINE
8
BLACK
6
CONTINUOUS
10
209.651
20
-163.791
11
209.651
21
-165.362
0
LINE
8
BLACK
6
CONTINUOUS
10
215.508
20
-162.219
11
212.936
21
-166.076
0
LINE
8
BLACK
6
CONTINUOUS
10
219.365
20
-162.362
11
219.651
21
-162.362
0
LINE
8
BLACK
6
CONTINUOUS
10
219.651
20
-162.362
11
219.936
21
-162.505
0
LINE
8
BLACK
6
CONTINUOUS
10
219.936
20
-162.505
11
220.079
21
-162.648
0
LINE
8
BLACK
6
CONTINUOUS
10
220.079
20
-162.648
11
220.222
21
-162.934
0
LINE
8
BLACK
6
CONTINUOUS
10
220.222
20
-162.934
11
220.365
21
-163.505
0
LINE
8
BLACK
6
CONTINUOUS
10
220.365
20
-163.505
11
220.365
21
-164.219
0
LINE
8
BLACK
6
CONTINUOUS
10
220.365
20
-164.219
11
220.222
21
-164.791
0
LINE
8
BLACK
6
CONTINUOUS
10
220.222
20
-164.791
11
220.079
21
-165.076
0
LINE
8
BLACK
6
CONTINUOUS
10
220.079
20
-165.076
11
219.936
21
-165.219
0
LINE
8
BLACK
6
CONTINUOUS
10
219.936
20
-165.219
11
219.651
21
-165.362
0
LINE
8
BLACK
6
CONTINUOUS
10
219.651
20
-165.362
11
219.365
21
-165.362
0
LINE
8
BLACK
6
CONTINUOUS
10
219.365
20
-165.362
11
219.079
21
-165.219
0
LINE
8
BLACK
6
CONTINUOUS
10
219.079
20
-165.219
11
218.936
21
-165.076
0
LINE
8
BLACK
6
CONTINUOUS
10
218.936
20
-165.076
11
218.794
21
-164.791
0
LINE
8
BLACK
6
CONTINUOUS
10
218.794
20
-164.791
11
218.651
21
-164.219
0
LINE
8
BLACK
6
CONTINUOUS
10
218.651
20
-164.219
11
218.651
21
-163.505
0
LINE
8
BLACK
6
CONTINUOUS
10
218.651
20
-163.505
11
218.794
21
-162.934
0
LINE
8
BLACK
6
CONTINUOUS
10
218.794
20
-162.934
11
218.936
21
-162.648
0
LINE
8
BLACK
6
CONTINUOUS
10
218.936
20
-162.648
11
219.079
21
-162.505
0
LINE
8
BLACK
6
CONTINUOUS
10
219.079
20
-162.505
11
219.365
21
-162.362
0
LINE
8
BLACK
6
CONTINUOUS
10
221.651
20
-165.076
11
221.794
21
-165.219
0
LINE
8
BLACK
6
CONTINUOUS
10
221.794
20
-165.219
11
221.651
21
-165.362
0
LINE
8
BLACK
6
CONTINUOUS
10
221.651
20
-165.362
11
221.508
21
-165.219
0
LINE
8
BLACK
6
CONTINUOUS
10
221.508
20
-165.219
11
221.651
21
-165.076
0
LINE
8
BLACK
6
CONTINUOUS
10
221.651
20
-165.076
11
221.651
21
-165.362
0
LINE
8
BLACK
6
CONTINUOUS
10
223.651
20
-162.362
11
223.936
21
-162.362
0
LINE
8
BLACK
6
CONTINUOUS
10
223.936
20
-162.362
11
224.222
21
-162.505
0
LINE
8
BLACK
6
CONTINUOUS
10
224.222
20
-162.505
11
224.365
21
-162.648
0
LINE
8
BLACK
6
CONTINUOUS
10
224.365
20
-162.648
11
224.508
21
-162.934
0
LINE
8
BLACK
6
CONTINUOUS
10
224.508
20
-162.934
11
224.651
21
-163.505
0
LINE
8
BLACK
6
CONTINUOUS
10
224.651
20
-163.505
11
224.651
21
-164.219
0
LINE
8
BLACK
6
CONTINUOUS
10
224.651
20
-164.219
11
224.508
21
-164.791
0
LINE
8
BLACK
6
CONTINUOUS
10
224.508
20
-164.791
11
224.365
21
-165.076
0
LINE
8
BLACK
6
CONTINUOUS
10
224.365
20
-165.076
11
224.222
21
-165.219
0
LINE
8
BLACK
6
CONTINUOUS
10
224.222
20
-165.219
11
223.936
21
-165.362
0
LINE
8
BLACK
6
CONTINUOUS
10
223.936
20
-165.362
11
223.651
21
-165.362
0
LINE
8
BLACK
6
CONTINUOUS
10
223.651
20
-165.362
11
223.365
21
-165.219
0
LINE
8
BLACK
6
CONTINUOUS
10
223.365
20
-165.219
11
223.222
21
-165.076
0
LINE
8
BLACK
6
CONTINUOUS
10
223.222
20
-165.076
11
223.079
21
-164.791
0
LINE
8
BLACK
6
CONTINUOUS
10
223.079
20
-164.791
11
222.936
21
-164.219
0
LINE
8
BLACK
6
CONTINUOUS
10
222.936
20
-164.219
11
222.936
21
-163.505
0
LINE
8
BLACK
6
CONTINUOUS
10
222.936
20
-163.505
11
223.079
21
-162.934
0
LINE
8
BLACK
6
CONTINUOUS
10
223.079
20
-162.934
11
223.222
21
-162.648
0
LINE
8
BLACK
6
CONTINUOUS
10
223.222
20
-162.648
11
223.365
21
-162.505
0
LINE
8
BLACK
6
CONTINUOUS
10
223.365
20
-162.505
11
223.651
21
-162.362
0
LINE
8
BLACK
6
CONTINUOUS
10
225.651
20
-162.362
11
227.508
21
-162.362
0
LINE
8
BLACK
6
CONTINUOUS
10
227.508
20
-162.362
11
226.508
21
-163.505
0
LINE
8
BLACK
6
CONTINUOUS
10
226.508
20
-163.505
11
226.936
21
-163.505
0
LINE
8
BLACK
6
CONTINUOUS
10
226.936
20
-163.505
11
227.222
21
-163.648
0
LINE
8
BLACK
6
CONTINUOUS
10
227.222
20
-163.648
11
227.365
21
-163.791
0
LINE
8
BLACK
6
CONTINUOUS
10
227.365
20
-163.791
11
227.508
21
-164.076
0
LINE
8
BLACK
6
CONTINUOUS
10
227.508
20
-164.076
11
227.508
21
-164.791
0
LINE
8
BLACK
6
CONTINUOUS
10
227.508
20
-164.791
11
227.365
21
-165.076
0
LINE
8
BLACK
6
CONTINUOUS
10
227.365
20
-165.076
11
227.222
21
-165.219
0
LINE
8
BLACK
6
CONTINUOUS
10
227.222
20
-165.219
11
226.936
21
-165.362
0
LINE
8
BLACK
6
CONTINUOUS
10
226.936
20
-165.362
11
226.079
21
-165.362
0
LINE
8
BLACK
6
CONTINUOUS
10
226.079
20
-165.362
11
225.794
21
-165.219
0
LINE
8
BLACK
6
CONTINUOUS
10
225.794
20
-165.219
11
225.651
21
-165.076
0
LINE
8
BLACK
6
CONTINUOUS
10
228.936
20
-165.362
11
229.508
21
-165.362
0
LINE
8
BLACK
6
CONTINUOUS
10
229.508
20
-165.362
11
229.794
21
-165.219
0
LINE
8
BLACK
6
CONTINUOUS
10
229.794
20
-165.219
11
229.936
21
-165.076
0
LINE
8
BLACK
6
CONTINUOUS
10
229.936
20
-165.076
11
230.222
21
-164.648
0
LINE
8
BLACK
6
CONTINUOUS
10
230.222
20
-164.648
11
230.365
21
-164.076
0
LINE
8
BLACK
6
CONTINUOUS
10
230.365
20
-164.076
11
230.365
21
-162.934
0
LINE
8
BLACK
6
CONTINUOUS
10
230.365
20
-162.934
11
230.222
21
-162.648
0
LINE
8
BLACK
6
CONTINUOUS
10
230.222
20
-162.648
11
230.079
21
-162.505
0
LINE
8
BLACK
6
CONTINUOUS
10
230.079
20
-162.505
11
229.794
21
-162.362
0
LINE
8
BLACK
6
CONTINUOUS
10
229.794
20
-162.362
11
229.222
21
-162.362
0
LINE
8
BLACK
6
CONTINUOUS
10
229.222
20
-162.362
11
228.936
21
-162.505
0
LINE
8
BLACK
6
CONTINUOUS
10
228.936
20
-162.505
11
228.794
21
-162.648
0
LINE
8
BLACK
6
CONTINUOUS
10
228.794
20
-162.648
11
228.651
21
-162.934
0
LINE
8
BLACK
6
CONTINUOUS
10
228.651
20
-162.934
11
228.651
21
-163.648
0
LINE
8
BLACK
6
CONTINUOUS
10
228.651
20
-163.648
11
228.794
21
-163.934
0
LINE
8
BLACK
6
CONTINUOUS
10
228.794
20
-163.934
11
228.936
21
-164.076
0
LINE
8
BLACK
6
CONTINUOUS
10
228.936
20
-164.076
11
229.222
21
-164.219
0
LINE
8
BLACK
6
CONTINUOUS
10
229.222
20
-164.219
11
229.794
21
-164.219
0
LINE
8
BLACK
6
CONTINUOUS
10
229.794
20
-164.219
11
230.079
21
-164.076
0
LINE
8
BLACK
6
CONTINUOUS
10
230.079
20
-164.076
11
230.222
21
-163.934
0
LINE
8
BLACK
6
CONTINUOUS
10
230.222
20
-163.934
11
230.365
21
-163.648
0
LINE
8
BLACK
6
CONTINUOUS
10
231.508
20
-162.362
11
231.508
21
-162.934
0
LINE
8
BLACK
6
CONTINUOUS
10
232.651
20
-162.362
11
232.651
21
-162.934
0
LINE
8
BLACK
6
CONTINUOUS
10
237.079
20
-166.505
11
236.936
21
-166.362
0
LINE
8
BLACK
6
CONTINUOUS
10
236.936
20
-166.362
11
236.651
21
-165.934
0
LINE
8
BLACK
6
CONTINUOUS
10
236.651
20
-165.934
11
236.508
21
-165.648
0
LINE
8
BLACK
6
CONTINUOUS
10
236.508
20
-165.648
11
236.365
21
-165.219
0
LINE
8
BLACK
6
CONTINUOUS
10
236.365
20
-165.219
11
236.222
21
-164.505
0
LINE
8
BLACK
6
CONTINUOUS
10
236.222
20
-164.505
11
236.222
21
-163.934
0
LINE
8
BLACK
6
CONTINUOUS
10
236.222
20
-163.934
11
236.365
21
-163.219
0
LINE
8
BLACK
6
CONTINUOUS
10
236.365
20
-163.219
11
236.508
21
-162.791
0
LINE
8
BLACK
6
CONTINUOUS
10
236.508
20
-162.791
11
236.651
21
-162.505
0
LINE
8
BLACK
6
CONTINUOUS
10
236.651
20
-162.505
11
236.936
21
-162.076
0
LINE
8
BLACK
6
CONTINUOUS
10
236.936
20
-162.076
11
237.079
21
-161.934
0
LINE
8
BLACK
6
CONTINUOUS
10
239.794
20
-165.362
11
238.079
21
-165.362
0
LINE
8
BLACK
6
CONTINUOUS
10
238.936
20
-165.362
11
238.936
21
-162.362
0
LINE
8
BLACK
6
CONTINUOUS
10
238.936
20
-162.362
11
238.651
21
-162.791
0
LINE
8
BLACK
6
CONTINUOUS
10
238.651
20
-162.791
11
238.365
21
-163.076
0
LINE
8
BLACK
6
CONTINUOUS
10
238.365
20
-163.076
11
238.079
21
-163.219
0
LINE
8
BLACK
6
CONTINUOUS
10
240.936
20
-162.648
11
241.079
21
-162.505
0
LINE
8
BLACK
6
CONTINUOUS
10
241.079
20
-162.505
11
241.365
21
-162.362
0
LINE
8
BLACK
6
CONTINUOUS
10
241.365
20
-162.362
11
242.079
21
-162.362
0
LINE
8
BLACK
6
CONTINUOUS
10
242.079
20
-162.362
11
242.365
21
-162.505
0
LINE
8
BLACK
6
CONTINUOUS
10
242.365
20
-162.505
11
242.508
21
-162.648
0
LINE
8
BLACK
6
CONTINUOUS
10
242.508
20
-162.648
11
242.651
21
-162.934
0
LINE
8
BLACK
6
CONTINUOUS
10
242.651
20
-162.934
11
242.651
21
-163.219
0
LINE
8
BLACK
6
CONTINUOUS
10
242.651
20
-163.219
11
242.508
21
-163.648
0
LINE
8
BLACK
6
CONTINUOUS
10
242.508
20
-163.648
11
240.794
21
-165.362
0
LINE
8
BLACK
6
CONTINUOUS
10
240.794
20
-165.362
11
242.651
21
-165.362
0
LINE
8
BLACK
6
CONTINUOUS
10
246.222
20
-165.362
11
246.222
21
-162.362
0
LINE
8
BLACK
6
CONTINUOUS
10
247.508
20
-165.362
11
247.508
21
-163.791
0
LINE
8
BLACK
6
CONTINUOUS
10
247.508
20
-163.791
11
247.365
21
-163.505
0
LINE
8
BLACK
6
CONTINUOUS
10
247.365
20
-163.505
11
247.079
21
-163.362
0
LINE
8
BLACK
6
CONTINUOUS
10
247.079
20
-163.362
11
246.651
21
-163.362
0
LINE
8
BLACK
6
CONTINUOUS
10
246.651
20
-163.362
11
246.365
21
-163.505
0
LINE
8
BLACK
6
CONTINUOUS
10
246.365
20
-163.505
11
246.222
21
-163.648
0
LINE
8
BLACK
6
CONTINUOUS
10
249.365
20
-165.362
11
249.079
21
-165.219
0
LINE
8
BLACK
6
CONTINUOUS
10
249.079
20
-165.219
11
248.936
21
-165.076
0
LINE
8
BLACK
6
CONTINUOUS
10
248.936
20
-165.076
11
248.794
21
-164.791
0
LINE
8
BLACK
6
CONTINUOUS
10
248.794
20
-164.791
11
248.794
21
-163.934
0
LINE
8
BLACK
6
CONTINUOUS
10
248.794
20
-163.934
11
248.936
21
-163.648
0
LINE
8
BLACK
6
CONTINUOUS
10
248.936
20
-163.648
11
249.079
21
-163.505
0
LINE
8
BLACK
6
CONTINUOUS
10
249.079
20
-163.505
11
249.365
21
-163.362
0
LINE
8
BLACK
6
CONTINUOUS
10
249.365
20
-163.362
11
249.794
21
-163.362
0
LINE
8
BLACK
6
CONTINUOUS
10
249.794
20
-163.362
11
250.079
21
-163.505
0
LINE
8
BLACK
6
CONTINUOUS
10
250.079
20
-163.505
11
250.222
21
-163.648
0
LINE
8
BLACK
6
CONTINUOUS
10
250.222
20
-163.648
11
250.365
21
-163.934
0
LINE
8
BLACK
6
CONTINUOUS
10
250.365
20
-163.934
11
250.365
21
-164.791
0
LINE
8
BLACK
6
CONTINUOUS
10
250.365
20
-164.791
11
250.222
21
-165.076
0
LINE
8
BLACK
6
CONTINUOUS
10
250.222
20
-165.076
11
250.079
21
-165.219
0
LINE
8
BLACK
6
CONTINUOUS
10
250.079
20
-165.219
11
249.794
21
-165.362
0
LINE
8
BLACK
6
CONTINUOUS
10
249.794
20
-165.362
11
249.365
21
-165.362
0
LINE
8
BLACK
6
CONTINUOUS
10
252.079
20
-165.362
11
251.794
21
-165.219
0
LINE
8
BLACK
6
CONTINUOUS
10
251.794
20
-165.219
11
251.651
21
-164.934
0
LINE
8
BLACK
6
CONTINUOUS
10
251.651
20
-164.934
11
251.651
21
-162.362
0
LINE
8
BLACK
6
CONTINUOUS
10
254.365
20
-165.219
11
254.079
21
-165.362
0
LINE
8
BLACK
6
CONTINUOUS
10
254.079
20
-165.362
11
253.508
21
-165.362
0
LINE
8
BLACK
6
CONTINUOUS
10
253.508
20
-165.362
11
253.222
21
-165.219
0
LINE
8
BLACK
6
CONTINUOUS
10
253.222
20
-165.219
11
253.079
21
-164.934
0
LINE
8
BLACK
6
CONTINUOUS
10
253.079
20
-164.934
11
253.079
21
-163.791
0
LINE
8
BLACK
6
CONTINUOUS
10
253.079
20
-163.791
11
253.222
21
-163.505
0
LINE
8
BLACK
6
CONTINUOUS
10
253.222
20
-163.505
11
253.508
21
-163.362
0
LINE
8
BLACK
6
CONTINUOUS
10
253.508
20
-163.362
11
254.079
21
-163.362
0
LINE
8
BLACK
6
CONTINUOUS
10
254.079
20
-163.362
11
254.365
21
-163.505
0
LINE
8
BLACK
6
CONTINUOUS
10
254.365
20
-163.505
11
254.508
21
-163.791
0
LINE
8
BLACK
6
CONTINUOUS
10
254.508
20
-163.791
11
254.508
21
-164.076
0
LINE
8
BLACK
6
CONTINUOUS
10
254.508
20
-164.076
11
253.079
21
-164.362
0
LINE
8
BLACK
6
CONTINUOUS
10
255.651
20
-165.219
11
255.936
21
-165.362
0
LINE
8
BLACK
6
CONTINUOUS
10
255.936
20
-165.362
11
256.508
21
-165.362
0
LINE
8
BLACK
6
CONTINUOUS
10
256.508
20
-165.362
11
256.794
21
-165.219
0
LINE
8
BLACK
6
CONTINUOUS
10
256.794
20
-165.219
11
256.936
21
-164.934
0
LINE
8
BLACK
6
CONTINUOUS
10
256.936
20
-164.934
11
256.936
21
-164.791
0
LINE
8
BLACK
6
CONTINUOUS
10
256.936
20
-164.791
11
256.794
21
-164.505
0
LINE
8
BLACK
6
CONTINUOUS
10
256.794
20
-164.505
11
256.508
21
-164.362
0
LINE
8
BLACK
6
CONTINUOUS
10
256.508
20
-164.362
11
256.079
21
-164.362
0
LINE
8
BLACK
6
CONTINUOUS
10
256.079
20
-164.362
11
255.794
21
-164.219
0
LINE
8
BLACK
6
CONTINUOUS
10
255.794
20
-164.219
11
255.651
21
-163.934
0
LINE
8
BLACK
6
CONTINUOUS
10
255.651
20
-163.934
11
255.651
21
-163.791
0
LINE
8
BLACK
6
CONTINUOUS
10
255.651
20
-163.791
11
255.794
21
-163.505
0
LINE
8
BLACK
6
CONTINUOUS
10
255.794
20
-163.505
11
256.079
21
-163.362
0
LINE
8
BLACK
6
CONTINUOUS
10
256.079
20
-163.362
11
256.508
21
-163.362
0
LINE
8
BLACK
6
CONTINUOUS
10
256.508
20
-163.362
11
256.794
21
-163.505
0
LINE
8
BLACK
6
CONTINUOUS
10
257.936
20
-166.505
11
258.079
21
-166.362
0
LINE
8
BLACK
6
CONTINUOUS
10
258.079
20
-166.362
11
258.365
21
-165.934
0
LINE
8
BLACK
6
CONTINUOUS
10
258.365
20
-165.934
11
258.508
21
-165.648
0
LINE
8
BLACK
6
CONTINUOUS
10
258.508
20
-165.648
11
258.651
21
-165.219
0
LINE
8
BLACK
6
CONTINUOUS
10
258.651
20
-165.219
11
258.794
21
-164.505
0
LINE
8
BLACK
6
CONTINUOUS
10
258.794
20
-164.505
11
258.794
21
-163.934
0
LINE
8
BLACK
6
CONTINUOUS
10
258.794
20
-163.934
11
258.651
21
-163.219
0
LINE
8
BLACK
6
CONTINUOUS
10
258.651
20
-163.219
11
258.508
21
-162.791
0
LINE
8
BLACK
6
CONTINUOUS
10
258.508
20
-162.791
11
258.365
21
-162.505
0
LINE
8
BLACK
6
CONTINUOUS
10
258.365
20
-162.505
11
258.079
21
-162.076
0
LINE
8
BLACK
6
CONTINUOUS
10
258.079
20
-162.076
11
257.936
21
-161.934
0
LINE
8
BLACK
6
CONTINUOUS
10
189.665
20
-168.515
11
190.215
21
-167.965
0
LINE
8
BLACK
6
CONTINUOUS
10
190.215
20
-167.965
11
189.665
21
-167.415
0
LINE
8
BLACK
6
CONTINUOUS
10
189.665
20
-167.415
11
189.115
21
-167.965
0
LINE
8
BLACK
6
CONTINUOUS
10
189.115
20
-167.965
11
189.665
21
-168.515
0
LINE
8
BLACK
6
CONTINUOUS
10
194.651
20
-169.322
11
192.936
21
-169.322
0
LINE
8
BLACK
6
CONTINUOUS
10
193.794
20
-169.322
11
193.794
21
-166.322
0
LINE
8
BLACK
6
CONTINUOUS
10
193.794
20
-166.322
11
193.508
21
-166.751
0
LINE
8
BLACK
6
CONTINUOUS
10
193.508
20
-166.751
11
193.222
21
-167.036
0
LINE
8
BLACK
6
CONTINUOUS
10
193.222
20
-167.036
11
192.936
21
-167.179
0
LINE
8
BLACK
6
CONTINUOUS
10
195.936
20
-169.036
11
196.079
21
-169.179
0
LINE
8
BLACK
6
CONTINUOUS
10
196.079
20
-169.179
11
195.936
21
-169.322
0
LINE
8
BLACK
6
CONTINUOUS
10
195.936
20
-169.322
11
195.794
21
-169.179
0
LINE
8
BLACK
6
CONTINUOUS
10
195.794
20
-169.179
11
195.936
21
-169.036
0
LINE
8
BLACK
6
CONTINUOUS
10
195.936
20
-169.036
11
195.936
21
-169.322
0
LINE
8
BLACK
6
CONTINUOUS
10
198.936
20
-169.322
11
197.222
21
-169.322
0
LINE
8
BLACK
6
CONTINUOUS
10
198.079
20
-169.322
11
198.079
21
-166.322
0
LINE
8
BLACK
6
CONTINUOUS
10
198.079
20
-166.322
11
197.794
21
-166.751
0
LINE
8
BLACK
6
CONTINUOUS
10
197.794
20
-166.751
11
197.508
21
-167.036
0
LINE
8
BLACK
6
CONTINUOUS
10
197.508
20
-167.036
11
197.222
21
-167.179
0
LINE
8
BLACK
6
CONTINUOUS
10
200.794
20
-166.322
11
201.079
21
-166.322
0
LINE
8
BLACK
6
CONTINUOUS
10
201.079
20
-166.322
11
201.365
21
-166.465
0
LINE
8
BLACK
6
CONTINUOUS
10
201.365
20
-166.465
11
201.508
21
-166.608
0
LINE
8
BLACK
6
CONTINUOUS
10
201.508
20
-166.608
11
201.651
21
-166.894
0
LINE
8
BLACK
6
CONTINUOUS
10
201.651
20
-166.894
11
201.794
21
-167.465
0
LINE
8
BLACK
6
CONTINUOUS
10
201.794
20
-167.465
11
201.794
21
-168.179
0
LINE
8
BLACK
6
CONTINUOUS
10
201.794
20
-168.179
11
201.651
21
-168.751
0
LINE
8
BLACK
6
CONTINUOUS
10
201.651
20
-168.751
11
201.508
21
-169.036
0
LINE
8
BLACK
6
CONTINUOUS
10
201.508
20
-169.036
11
201.365
21
-169.179
0
LINE
8
BLACK
6
CONTINUOUS
10
201.365
20
-169.179
11
201.079
21
-169.322
0
LINE
8
BLACK
6
CONTINUOUS
10
201.079
20
-169.322
11
200.794
21
-169.322
0
LINE
8
BLACK
6
CONTINUOUS
10
200.794
20
-169.322
11
200.508
21
-169.179
0
LINE
8
BLACK
6
CONTINUOUS
10
200.508
20
-169.179
11
200.365
21
-169.036
0
LINE
8
BLACK
6
CONTINUOUS
10
200.365
20
-169.036
11
200.222
21
-168.751
0
LINE
8
BLACK
6
CONTINUOUS
10
200.222
20
-168.751
11
200.079
21
-168.179
0
LINE
8
BLACK
6
CONTINUOUS
10
200.079
20
-168.179
11
200.079
21
-167.465
0
LINE
8
BLACK
6
CONTINUOUS
10
200.079
20
-167.465
11
200.222
21
-166.894
0
LINE
8
BLACK
6
CONTINUOUS
10
200.222
20
-166.894
11
200.365
21
-166.608
0
LINE
8
BLACK
6
CONTINUOUS
10
200.365
20
-166.608
11
200.508
21
-166.465
0
LINE
8
BLACK
6
CONTINUOUS
10
200.508
20
-166.465
11
200.794
21
-166.322
0
LINE
8
BLACK
6
CONTINUOUS
10
203.079
20
-169.322
11
203.079
21
-167.322
0
LINE
8
BLACK
6
CONTINUOUS
10
203.079
20
-167.608
11
203.222
21
-167.465
0
LINE
8
BLACK
6
CONTINUOUS
10
203.222
20
-167.465
11
203.508
21
-167.322
0
LINE
8
BLACK
6
CONTINUOUS
10
203.508
20
-167.322
11
203.936
21
-167.322
0
LINE
8
BLACK
6
CONTINUOUS
10
203.936
20
-167.322
11
204.222
21
-167.465
0
LINE
8
BLACK
6
CONTINUOUS
10
204.222
20
-167.465
11
204.365
21
-167.751
0
LINE
8
BLACK
6
CONTINUOUS
10
204.365
20
-167.751
11
204.365
21
-169.322
0
LINE
8
BLACK
6
CONTINUOUS
10
204.365
20
-167.751
11
204.508
21
-167.465
0
LINE
8
BLACK
6
CONTINUOUS
10
204.508
20
-167.465
11
204.794
21
-167.322
0
LINE
8
BLACK
6
CONTINUOUS
10
204.794
20
-167.322
11
205.222
21
-167.322
0
LINE
8
BLACK
6
CONTINUOUS
10
205.222
20
-167.322
11
205.508
21
-167.465
0
LINE
8
BLACK
6
CONTINUOUS
10
205.508
20
-167.465
11
205.651
21
-167.751
0
LINE
8
BLACK
6
CONTINUOUS
10
205.651
20
-167.751
11
205.651
21
-169.322
0
LINE
8
BLACK
6
CONTINUOUS
10
207.079
20
-169.322
11
207.079
21
-167.322
0
LINE
8
BLACK
6
CONTINUOUS
10
207.079
20
-167.608
11
207.222
21
-167.465
0
LINE
8
BLACK
6
CONTINUOUS
10
207.222
20
-167.465
11
207.508
21
-167.322
0
LINE
8
BLACK
6
CONTINUOUS
10
207.508
20
-167.322
11
207.936
21
-167.322
0
LINE
8
BLACK
6
CONTINUOUS
10
207.936
20
-167.322
11
208.222
21
-167.465
0
LINE
8
BLACK
6
CONTINUOUS
10
208.222
20
-167.465
11
208.365
21
-167.751
0
LINE
8
BLACK
6
CONTINUOUS
10
208.365
20
-167.751
11
208.365
21
-169.322
0
LINE
8
BLACK
6
CONTINUOUS
10
208.365
20
-167.751
11
208.508
21
-167.465
0
LINE
8
BLACK
6
CONTINUOUS
10
208.508
20
-167.465
11
208.794
21
-167.322
0
LINE
8
BLACK
6
CONTINUOUS
10
208.794
20
-167.322
11
209.222
21
-167.322
0
LINE
8
BLACK
6
CONTINUOUS
10
209.222
20
-167.322
11
209.508
21
-167.465
0
LINE
8
BLACK
6
CONTINUOUS
10
209.508
20
-167.465
11
209.651
21
-167.751
0
LINE
8
BLACK
6
CONTINUOUS
10
209.651
20
-167.751
11
209.651
21
-169.322
0
LINE
8
BLACK
6
CONTINUOUS
10
215.508
20
-166.179
11
212.936
21
-170.036
0
LINE
8
BLACK
6
CONTINUOUS
10
219.365
20
-166.322
11
219.651
21
-166.322
0
LINE
8
BLACK
6
CONTINUOUS
10
219.651
20
-166.322
11
219.936
21
-166.465
0
LINE
8
BLACK
6
CONTINUOUS
10
219.936
20
-166.465
11
220.079
21
-166.608
0
LINE
8
BLACK
6
CONTINUOUS
10
220.079
20
-166.608
11
220.222
21
-166.894
0
LINE
8
BLACK
6
CONTINUOUS
10
220.222
20
-166.894
11
220.365
21
-167.465
0
LINE
8
BLACK
6
CONTINUOUS
10
220.365
20
-167.465
11
220.365
21
-168.179
0
LINE
8
BLACK
6
CONTINUOUS
10
220.365
20
-168.179
11
220.222
21
-168.751
0
LINE
8
BLACK
6
CONTINUOUS
10
220.222
20
-168.751
11
220.079
21
-169.036
0
LINE
8
BLACK
6
CONTINUOUS
10
220.079
20
-169.036
11
219.936
21
-169.179
0
LINE
8
BLACK
6
CONTINUOUS
10
219.936
20
-169.179
11
219.651
21
-169.322
0
LINE
8
BLACK
6
CONTINUOUS
10
219.651
20
-169.322
11
219.365
21
-169.322
0
LINE
8
BLACK
6
CONTINUOUS
10
219.365
20
-169.322
11
219.079
21
-169.179
0
LINE
8
BLACK
6
CONTINUOUS
10
219.079
20
-169.179
11
218.936
21
-169.036
0
LINE
8
BLACK
6
CONTINUOUS
10
218.936
20
-169.036
11
218.794
21
-168.751
0
LINE
8
BLACK
6
CONTINUOUS
10
218.794
20
-168.751
11
218.651
21
-168.179
0
LINE
8
BLACK
6
CONTINUOUS
10
218.651
20
-168.179
11
218.651
21
-167.465
0
LINE
8
BLACK
6
CONTINUOUS
10
218.651
20
-167.465
11
218.794
21
-166.894
0
LINE
8
BLACK
6
CONTINUOUS
10
218.794
20
-166.894
11
218.936
21
-166.608
0
LINE
8
BLACK
6
CONTINUOUS
10
218.936
20
-166.608
11
219.079
21
-166.465
0
LINE
8
BLACK
6
CONTINUOUS
10
219.079
20
-166.465
11
219.365
21
-166.322
0
LINE
8
BLACK
6
CONTINUOUS
10
221.651
20
-169.036
11
221.794
21
-169.179
0
LINE
8
BLACK
6
CONTINUOUS
10
221.794
20
-169.179
11
221.651
21
-169.322
0
LINE
8
BLACK
6
CONTINUOUS
10
221.651
20
-169.322
11
221.508
21
-169.179
0
LINE
8
BLACK
6
CONTINUOUS
10
221.508
20
-169.179
11
221.651
21
-169.036
0
LINE
8
BLACK
6
CONTINUOUS
10
221.651
20
-169.036
11
221.651
21
-169.322
0
LINE
8
BLACK
6
CONTINUOUS
10
223.651
20
-166.322
11
223.936
21
-166.322
0
LINE
8
BLACK
6
CONTINUOUS
10
223.936
20
-166.322
11
224.222
21
-166.465
0
LINE
8
BLACK
6
CONTINUOUS
10
224.222
20
-166.465
11
224.365
21
-166.608
0
LINE
8
BLACK
6
CONTINUOUS
10
224.365
20
-166.608
11
224.508
21
-166.894
0
LINE
8
BLACK
6
CONTINUOUS
10
224.508
20
-166.894
11
224.651
21
-167.465
0
LINE
8
BLACK
6
CONTINUOUS
10
224.651
20
-167.465
11
224.651
21
-168.179
0
LINE
8
BLACK
6
CONTINUOUS
10
224.651
20
-168.179
11
224.508
21
-168.751
0
LINE
8
BLACK
6
CONTINUOUS
10
224.508
20
-168.751
11
224.365
21
-169.036
0
LINE
8
BLACK
6
CONTINUOUS
10
224.365
20
-169.036
11
224.222
21
-169.179
0
LINE
8
BLACK
6
CONTINUOUS
10
224.222
20
-169.179
11
223.936
21
-169.322
0
LINE
8
BLACK
6
CONTINUOUS
10
223.936
20
-169.322
11
223.651
21
-169.322
0
LINE
8
BLACK
6
CONTINUOUS
10
223.651
20
-169.322
11
223.365
21
-169.179
0
LINE
8
BLACK
6
CONTINUOUS
10
223.365
20
-169.179
11
223.222
21
-169.036
0
LINE
8
BLACK
6
CONTINUOUS
10
223.222
20
-169.036
11
223.079
21
-168.751
0
LINE
8
BLACK
6
CONTINUOUS
10
223.079
20
-168.751
11
222.936
21
-168.179
0
LINE
8
BLACK
6
CONTINUOUS
10
222.936
20
-168.179
11
222.936
21
-167.465
0
LINE
8
BLACK
6
CONTINUOUS
10
222.936
20
-167.465
11
223.079
21
-166.894
0
LINE
8
BLACK
6
CONTINUOUS
10
223.079
20
-166.894
11
223.222
21
-166.608
0
LINE
8
BLACK
6
CONTINUOUS
10
223.222
20
-166.608
11
223.365
21
-166.465
0
LINE
8
BLACK
6
CONTINUOUS
10
223.365
20
-166.465
11
223.651
21
-166.322
0
LINE
8
BLACK
6
CONTINUOUS
10
227.222
20
-167.322
11
227.222
21
-169.322
0
LINE
8
BLACK
6
CONTINUOUS
10
226.508
20
-166.179
11
225.794
21
-168.322
0
LINE
8
BLACK
6
CONTINUOUS
10
225.794
20
-168.322
11
227.651
21
-168.322
0
LINE
8
BLACK
6
CONTINUOUS
10
228.508
20
-166.322
11
230.365
21
-166.322
0
LINE
8
BLACK
6
CONTINUOUS
10
230.365
20
-166.322
11
229.365
21
-167.465
0
LINE
8
BLACK
6
CONTINUOUS
10
229.365
20
-167.465
11
229.794
21
-167.465
0
LINE
8
BLACK
6
CONTINUOUS
10
229.794
20
-167.465
11
230.079
21
-167.608
0
LINE
8
BLACK
6
CONTINUOUS
10
230.079
20
-167.608
11
230.222
21
-167.751
0
LINE
8
BLACK
6
CONTINUOUS
10
230.222
20
-167.751
11
230.365
21
-168.036
0
LINE
8
BLACK
6
CONTINUOUS
10
230.365
20
-168.036
11
230.365
21
-168.751
0
LINE
8
BLACK
6
CONTINUOUS
10
230.365
20
-168.751
11
230.222
21
-169.036
0
LINE
8
BLACK
6
CONTINUOUS
10
230.222
20
-169.036
11
230.079
21
-169.179
0
LINE
8
BLACK
6
CONTINUOUS
10
230.079
20
-169.179
11
229.794
21
-169.322
0
LINE
8
BLACK
6
CONTINUOUS
10
229.794
20
-169.322
11
228.936
21
-169.322
0
LINE
8
BLACK
6
CONTINUOUS
10
228.936
20
-169.322
11
228.651
21
-169.179
0
LINE
8
BLACK
6
CONTINUOUS
10
228.651
20
-169.179
11
228.508
21
-169.036
0
LINE
8
BLACK
6
CONTINUOUS
10
231.508
20
-166.322
11
231.508
21
-166.894
0
LINE
8
BLACK
6
CONTINUOUS
10
232.651
20
-166.322
11
232.651
21
-166.894
0
LINE
8
BLACK
6
CONTINUOUS
10
237.079
20
-170.465
11
236.936
21
-170.322
0
LINE
8
BLACK
6
CONTINUOUS
10
236.936
20
-170.322
11
236.651
21
-169.894
0
LINE
8
BLACK
6
CONTINUOUS
10
236.651
20
-169.894
11
236.508
21
-169.608
0
LINE
8
BLACK
6
CONTINUOUS
10
236.508
20
-169.608
11
236.365
21
-169.179
0
LINE
8
BLACK
6
CONTINUOUS
10
236.365
20
-169.179
11
236.222
21
-168.465
0
LINE
8
BLACK
6
CONTINUOUS
10
236.222
20
-168.465
11
236.222
21
-167.894
0
LINE
8
BLACK
6
CONTINUOUS
10
236.222
20
-167.894
11
236.365
21
-167.179
0
LINE
8
BLACK
6
CONTINUOUS
10
236.365
20
-167.179
11
236.508
21
-166.751
0
LINE
8
BLACK
6
CONTINUOUS
10
236.508
20
-166.751
11
236.651
21
-166.465
0
LINE
8
BLACK
6
CONTINUOUS
10
236.651
20
-166.465
11
236.936
21
-166.036
0
LINE
8
BLACK
6
CONTINUOUS
10
236.936
20
-166.036
11
237.079
21
-165.894
0
LINE
8
BLACK
6
CONTINUOUS
10
239.794
20
-169.322
11
238.079
21
-169.322
0
LINE
8
BLACK
6
CONTINUOUS
10
238.936
20
-169.322
11
238.936
21
-166.322
0
LINE
8
BLACK
6
CONTINUOUS
10
238.936
20
-166.322
11
238.651
21
-166.751
0
LINE
8
BLACK
6
CONTINUOUS
10
238.651
20
-166.751
11
238.365
21
-167.036
0
LINE
8
BLACK
6
CONTINUOUS
10
238.365
20
-167.036
11
238.079
21
-167.179
0
LINE
8
BLACK
6
CONTINUOUS
10
242.365
20
-166.322
11
241.794
21
-166.322
0
LINE
8
BLACK
6
CONTINUOUS
10
241.794
20
-166.322
11
241.508
21
-166.465
0
LINE
8
BLACK
6
CONTINUOUS
10
241.508
20
-166.465
11
241.365
21
-166.608
0
LINE
8
BLACK
6
CONTINUOUS
10
241.365
20
-166.608
11
241.079
21
-167.036
0
LINE
8
BLACK
6
CONTINUOUS
10
241.079
20
-167.036
11
240.936
21
-167.608
0
LINE
8
BLACK
6
CONTINUOUS
10
240.936
20
-167.608
11
240.936
21
-168.751
0
LINE
8
BLACK
6
CONTINUOUS
10
240.936
20
-168.751
11
241.079
21
-169.036
0
LINE
8
BLACK
6
CONTINUOUS
10
241.079
20
-169.036
11
241.222
21
-169.179
0
LINE
8
BLACK
6
CONTINUOUS
10
241.222
20
-169.179
11
241.508
21
-169.322
0
LINE
8
BLACK
6
CONTINUOUS
10
241.508
20
-169.322
11
242.079
21
-169.322
0
LINE
8
BLACK
6
CONTINUOUS
10
242.079
20
-169.322
11
242.365
21
-169.179
0
LINE
8
BLACK
6
CONTINUOUS
10
242.365
20
-169.179
11
242.508
21
-169.036
0
LINE
8
BLACK
6
CONTINUOUS
10
242.508
20
-169.036
11
242.651
21
-168.751
0
LINE
8
BLACK
6
CONTINUOUS
10
242.651
20
-168.751
11
242.651
21
-168.036
0
LINE
8
BLACK
6
CONTINUOUS
10
242.651
20
-168.036
11
242.508
21
-167.751
0
LINE
8
BLACK
6
CONTINUOUS
10
242.508
20
-167.751
11
242.365
21
-167.608
0
LINE
8
BLACK
6
CONTINUOUS
10
242.365
20
-167.608
11
242.079
21
-167.465
0
LINE
8
BLACK
6
CONTINUOUS
10
242.079
20
-167.465
11
241.508
21
-167.465
0
LINE
8
BLACK
6
CONTINUOUS
10
241.508
20
-167.465
11
241.222
21
-167.608
0
LINE
8
BLACK
6
CONTINUOUS
10
241.222
20
-167.608
11
241.079
21
-167.751
0
LINE
8
BLACK
6
CONTINUOUS
10
241.079
20
-167.751
11
240.936
21
-168.036
0
LINE
8
BLACK
6
CONTINUOUS
10
246.222
20
-169.322
11
246.222
21
-166.322
0
LINE
8
BLACK
6
CONTINUOUS
10
247.508
20
-169.322
11
247.508
21
-167.751
0
LINE
8
BLACK
6
CONTINUOUS
10
247.508
20
-167.751
11
247.365
21
-167.465
0
LINE
8
BLACK
6
CONTINUOUS
10
247.365
20
-167.465
11
247.079
21
-167.322
0
LINE
8
BLACK
6
CONTINUOUS
10
247.079
20
-167.322
11
246.651
21
-167.322
0
LINE
8
BLACK
6
CONTINUOUS
10
246.651
20
-167.322
11
246.365
21
-167.465
0
LINE
8
BLACK
6
CONTINUOUS
10
246.365
20
-167.465
11
246.222
21
-167.608
0
LINE
8
BLACK
6
CONTINUOUS
10
249.365
20
-169.322
11
249.079
21
-169.179
0
LINE
8
BLACK
6
CONTINUOUS
10
249.079
20
-169.179
11
248.936
21
-169.036
0
LINE
8
BLACK
6
CONTINUOUS
10
248.936
20
-169.036
11
248.794
21
-168.751
0
LINE
8
BLACK
6
CONTINUOUS
10
248.794
20
-168.751
11
248.794
21
-167.894
0
LINE
8
BLACK
6
CONTINUOUS
10
248.794
20
-167.894
11
248.936
21
-167.608
0
LINE
8
BLACK
6
CONTINUOUS
10
248.936
20
-167.608
11
249.079
21
-167.465
0
LINE
8
BLACK
6
CONTINUOUS
10
249.079
20
-167.465
11
249.365
21
-167.322
0
LINE
8
BLACK
6
CONTINUOUS
10
249.365
20
-167.322
11
249.794
21
-167.322
0
LINE
8
BLACK
6
CONTINUOUS
10
249.794
20
-167.322
11
250.079
21
-167.465
0
LINE
8
BLACK
6
CONTINUOUS
10
250.079
20
-167.465
11
250.222
21
-167.608
0
LINE
8
BLACK
6
CONTINUOUS
10
250.222
20
-167.608
11
250.365
21
-167.894
0
LINE
8
BLACK
6
CONTINUOUS
10
250.365
20
-167.894
11
250.365
21
-168.751
0
LINE
8
BLACK
6
CONTINUOUS
10
250.365
20
-168.751
11
250.222
21
-169.036
0
LINE
8
BLACK
6
CONTINUOUS
10
250.222
20
-169.036
11
250.079
21
-169.179
0
LINE
8
BLACK
6
CONTINUOUS
10
250.079
20
-169.179
11
249.794
21
-169.322
0
LINE
8
BLACK
6
CONTINUOUS
10
249.794
20
-169.322
11
249.365
21
-169.322
0
LINE
8
BLACK
6
CONTINUOUS
10
252.079
20
-169.322
11
251.794
21
-169.179
0
LINE
8
BLACK
6
CONTINUOUS
10
251.794
20
-169.179
11
251.651
21
-168.894
0
LINE
8
BLACK
6
CONTINUOUS
10
251.651
20
-168.894
11
251.651
21
-166.322
0
LINE
8
BLACK
6
CONTINUOUS
10
254.365
20
-169.179
11
254.079
21
-169.322
0
LINE
8
BLACK
6
CONTINUOUS
10
254.079
20
-169.322
11
253.508
21
-169.322
0
LINE
8
BLACK
6
CONTINUOUS
10
253.508
20
-169.322
11
253.222
21
-169.179
0
LINE
8
BLACK
6
CONTINUOUS
10
253.222
20
-169.179
11
253.079
21
-168.894
0
LINE
8
BLACK
6
CONTINUOUS
10
253.079
20
-168.894
11
253.079
21
-167.751
0
LINE
8
BLACK
6
CONTINUOUS
10
253.079
20
-167.751
11
253.222
21
-167.465
0
LINE
8
BLACK
6
CONTINUOUS
10
253.222
20
-167.465
11
253.508
21
-167.322
0
LINE
8
BLACK
6
CONTINUOUS
10
253.508
20
-167.322
11
254.079
21
-167.322
0
LINE
8
BLACK
6
CONTINUOUS
10
254.079
20
-167.322
11
254.365
21
-167.465
0
LINE
8
BLACK
6
CONTINUOUS
10
254.365
20
-167.465
11
254.508
21
-167.751
0
LINE
8
BLACK
6
CONTINUOUS
10
254.508
20
-167.751
11
254.508
21
-168.036
0
LINE
8
BLACK
6
CONTINUOUS
10
254.508
20
-168.036
11
253.079
21
-168.322
0
LINE
8
BLACK
6
CONTINUOUS
10
255.651
20
-169.179
11
255.936
21
-169.322
0
LINE
8
BLACK
6
CONTINUOUS
10
255.936
20
-169.322
11
256.508
21
-169.322
0
LINE
8
BLACK
6
CONTINUOUS
10
256.508
20
-169.322
11
256.794
21
-169.179
0
LINE
8
BLACK
6
CONTINUOUS
10
256.794
20
-169.179
11
256.936
21
-168.894
0
LINE
8
BLACK
6
CONTINUOUS
10
256.936
20
-168.894
11
256.936
21
-168.751
0
LINE
8
BLACK
6
CONTINUOUS
10
256.936
20
-168.751
11
256.794
21
-168.465
0
LINE
8
BLACK
6
CONTINUOUS
10
256.794
20
-168.465
11
256.508
21
-168.322
0
LINE
8
BLACK
6
CONTINUOUS
10
256.508
20
-168.322
11
256.079
21
-168.322
0
LINE
8
BLACK
6
CONTINUOUS
10
256.079
20
-168.322
11
255.794
21
-168.179
0
LINE
8
BLACK
6
CONTINUOUS
10
255.794
20
-168.179
11
255.651
21
-167.894
0
LINE
8
BLACK
6
CONTINUOUS
10
255.651
20
-167.894
11
255.651
21
-167.751
0
LINE
8
BLACK
6
CONTINUOUS
10
255.651
20
-167.751
11
255.794
21
-167.465
0
LINE
8
BLACK
6
CONTINUOUS
10
255.794
20
-167.465
11
256.079
21
-167.322
0
LINE
8
BLACK
6
CONTINUOUS
10
256.079
20
-167.322
11
256.508
21
-167.322
0
LINE
8
BLACK
6
CONTINUOUS
10
256.508
20
-167.322
11
256.794
21
-167.465
0
LINE
8
BLACK
6
CONTINUOUS
10
257.936
20
-170.465
11
258.079
21
-170.322
0
LINE
8
BLACK
6
CONTINUOUS
10
258.079
20
-170.322
11
258.365
21
-169.894
0
LINE
8
BLACK
6
CONTINUOUS
10
258.365
20
-169.894
11
258.508
21
-169.608
0
LINE
8
BLACK
6
CONTINUOUS
10
258.508
20
-169.608
11
258.651
21
-169.179
0
LINE
8
BLACK
6
CONTINUOUS
10
258.651
20
-169.179
11
258.794
21
-168.465
0
LINE
8
BLACK
6
CONTINUOUS
10
258.794
20
-168.465
11
258.794
21
-167.894
0
LINE
8
BLACK
6
CONTINUOUS
10
258.794
20
-167.894
11
258.651
21
-167.179
0
LINE
8
BLACK
6
CONTINUOUS
10
258.651
20
-167.179
11
258.508
21
-166.751
0
LINE
8
BLACK
6
CONTINUOUS
10
258.508
20
-166.751
11
258.365
21
-166.465
0
LINE
8
BLACK
6
CONTINUOUS
10
258.365
20
-166.465
11
258.079
21
-166.036
0
LINE
8
BLACK
6
CONTINUOUS
10
258.079
20
-166.036
11
257.936
21
-165.894
0
LINE
8
BLACK
6
CONTINUOUS
10
188.714
20
-171.174
11
190.215
21
-172.676
0
LINE
8
BLACK
6
CONTINUOUS
10
190.215
20
-171.174
11
188.714
21
-172.676
0
CIRCLE
8
BLACK
10
189.464
20
-171.925
40
0.75057
0
LINE
8
BLACK
6
CONTINUOUS
10
194.651
20
-173.282
11
192.936
21
-173.282
0
LINE
8
BLACK
6
CONTINUOUS
10
193.794
20
-173.282
11
193.794
21
-170.282
0
LINE
8
BLACK
6
CONTINUOUS
10
193.794
20
-170.282
11
193.508
21
-170.711
0
LINE
8
BLACK
6
CONTINUOUS
10
193.508
20
-170.711
11
193.222
21
-170.996
0
LINE
8
BLACK
6
CONTINUOUS
10
193.222
20
-170.996
11
192.936
21
-171.139
0
LINE
8
BLACK
6
CONTINUOUS
10
195.936
20
-172.996
11
196.079
21
-173.139
0
LINE
8
BLACK
6
CONTINUOUS
10
196.079
20
-173.139
11
195.936
21
-173.282
0
LINE
8
BLACK
6
CONTINUOUS
10
195.936
20
-173.282
11
195.794
21
-173.139
0
LINE
8
BLACK
6
CONTINUOUS
10
195.794
20
-173.139
11
195.936
21
-172.996
0
LINE
8
BLACK
6
CONTINUOUS
10
195.936
20
-172.996
11
195.936
21
-173.282
0
LINE
8
BLACK
6
CONTINUOUS
10
198.794
20
-170.282
11
197.365
21
-170.282
0
LINE
8
BLACK
6
CONTINUOUS
10
197.365
20
-170.282
11
197.222
21
-171.711
0
LINE
8
BLACK
6
CONTINUOUS
10
197.222
20
-171.711
11
197.365
21
-171.568
0
LINE
8
BLACK
6
CONTINUOUS
10
197.365
20
-171.568
11
197.651
21
-171.425
0
LINE
8
BLACK
6
CONTINUOUS
10
197.651
20
-171.425
11
198.365
21
-171.425
0
LINE
8
BLACK
6
CONTINUOUS
10
198.365
20
-171.425
11
198.651
21
-171.568
0
LINE
8
BLACK
6
CONTINUOUS
10
198.651
20
-171.568
11
198.794
21
-171.711
0
LINE
8
BLACK
6
CONTINUOUS
10
198.794
20
-171.711
11
198.936
21
-171.996
0
LINE
8
BLACK
6
CONTINUOUS
10
198.936
20
-171.996
11
198.936
21
-172.711
0
LINE
8
BLACK
6
CONTINUOUS
10
198.936
20
-172.711
11
198.794
21
-172.996
0
LINE
8
BLACK
6
CONTINUOUS
10
198.794
20
-172.996
11
198.651
21
-173.139
0
LINE
8
BLACK
6
CONTINUOUS
10
198.651
20
-173.139
11
198.365
21
-173.282
0
LINE
8
BLACK
6
CONTINUOUS
10
198.365
20
-173.282
11
197.651
21
-173.282
0
LINE
8
BLACK
6
CONTINUOUS
10
197.651
20
-173.282
11
197.365
21
-173.139
0
LINE
8
BLACK
6
CONTINUOUS
10
197.365
20
-173.139
11
197.222
21
-172.996
0
LINE
8
BLACK
6
CONTINUOUS
10
200.794
20
-170.282
11
201.079
21
-170.282
0
LINE
8
BLACK
6
CONTINUOUS
10
201.079
20
-170.282
11
201.365
21
-170.425
0
LINE
8
BLACK
6
CONTINUOUS
10
201.365
20
-170.425
11
201.508
21
-170.568
0
LINE
8
BLACK
6
CONTINUOUS
10
201.508
20
-170.568
11
201.651
21
-170.854
0
LINE
8
BLACK
6
CONTINUOUS
10
201.651
20
-170.854
11
201.794
21
-171.425
0
LINE
8
BLACK
6
CONTINUOUS
10
201.794
20
-171.425
11
201.794
21
-172.139
0
LINE
8
BLACK
6
CONTINUOUS
10
201.794
20
-172.139
11
201.651
21
-172.711
0
LINE
8
BLACK
6
CONTINUOUS
10
201.651
20
-172.711
11
201.508
21
-172.996
0
LINE
8
BLACK
6
CONTINUOUS
10
201.508
20
-172.996
11
201.365
21
-173.139
0
LINE
8
BLACK
6
CONTINUOUS
10
201.365
20
-173.139
11
201.079
21
-173.282
0
LINE
8
BLACK
6
CONTINUOUS
10
201.079
20
-173.282
11
200.794
21
-173.282
0
LINE
8
BLACK
6
CONTINUOUS
10
200.794
20
-173.282
11
200.508
21
-173.139
0
LINE
8
BLACK
6
CONTINUOUS
10
200.508
20
-173.139
11
200.365
21
-172.996
0
LINE
8
BLACK
6
CONTINUOUS
10
200.365
20
-172.996
11
200.222
21
-172.711
0
LINE
8
BLACK
6
CONTINUOUS
10
200.222
20
-172.711
11
200.079
21
-172.139
0
LINE
8
BLACK
6
CONTINUOUS
10
200.079
20
-172.139
11
200.079
21
-171.425
0
LINE
8
BLACK
6
CONTINUOUS
10
200.079
20
-171.425
11
200.222
21
-170.854
0
LINE
8
BLACK
6
CONTINUOUS
10
200.222
20
-170.854
11
200.365
21
-170.568
0
LINE
8
BLACK
6
CONTINUOUS
10
200.365
20
-170.568
11
200.508
21
-170.425
0
LINE
8
BLACK
6
CONTINUOUS
10
200.508
20
-170.425
11
200.794
21
-170.282
0
LINE
8
BLACK
6
CONTINUOUS
10
203.079
20
-173.282
11
203.079
21
-171.282
0
LINE
8
BLACK
6
CONTINUOUS
10
203.079
20
-171.568
11
203.222
21
-171.425
0
LINE
8
BLACK
6
CONTINUOUS
10
203.222
20
-171.425
11
203.508
21
-171.282
0
LINE
8
BLACK
6
CONTINUOUS
10
203.508
20
-171.282
11
203.936
21
-171.282
0
LINE
8
BLACK
6
CONTINUOUS
10
203.936
20
-171.282
11
204.222
21
-171.425
0
LINE
8
BLACK
6
CONTINUOUS
10
204.222
20
-171.425
11
204.365
21
-171.711
0
LINE
8
BLACK
6
CONTINUOUS
10
204.365
20
-171.711
11
204.365
21
-173.282
0
LINE
8
BLACK
6
CONTINUOUS
10
204.365
20
-171.711
11
204.508
21
-171.425
0
LINE
8
BLACK
6
CONTINUOUS
10
204.508
20
-171.425
11
204.794
21
-171.282
0
LINE
8
BLACK
6
CONTINUOUS
10
204.794
20
-171.282
11
205.222
21
-171.282
0
LINE
8
BLACK
6
CONTINUOUS
10
205.222
20
-171.282
11
205.508
21
-171.425
0
LINE
8
BLACK
6
CONTINUOUS
10
205.508
20
-171.425
11
205.651
21
-171.711
0
LINE
8
BLACK
6
CONTINUOUS
10
205.651
20
-171.711
11
205.651
21
-173.282
0
LINE
8
BLACK
6
CONTINUOUS
10
207.079
20
-173.282
11
207.079
21
-171.282
0
LINE
8
BLACK
6
CONTINUOUS
10
207.079
20
-171.568
11
207.222
21
-171.425
0
LINE
8
BLACK
6
CONTINUOUS
10
207.222
20
-171.425
11
207.508
21
-171.282
0
LINE
8
BLACK
6
CONTINUOUS
10
207.508
20
-171.282
11
207.936
21
-171.282
0
LINE
8
BLACK
6
CONTINUOUS
10
207.936
20
-171.282
11
208.222
21
-171.425
0
LINE
8
BLACK
6
CONTINUOUS
10
208.222
20
-171.425
11
208.365
21
-171.711
0
LINE
8
BLACK
6
CONTINUOUS
10
208.365
20
-171.711
11
208.365
21
-173.282
0
LINE
8
BLACK
6
CONTINUOUS
10
208.365
20
-171.711
11
208.508
21
-171.425
0
LINE
8
BLACK
6
CONTINUOUS
10
208.508
20
-171.425
11
208.794
21
-171.282
0
LINE
8
BLACK
6
CONTINUOUS
10
208.794
20
-171.282
11
209.222
21
-171.282
0
LINE
8
BLACK
6
CONTINUOUS
10
209.222
20
-171.282
11
209.508
21
-171.425
0
LINE
8
BLACK
6
CONTINUOUS
10
209.508
20
-171.425
11
209.651
21
-171.711
0
LINE
8
BLACK
6
CONTINUOUS
10
209.651
20
-171.711
11
209.651
21
-173.282
0
LINE
8
BLACK
6
CONTINUOUS
10
215.508
20
-170.139
11
212.936
21
-173.996
0
LINE
8
BLACK
6
CONTINUOUS
10
219.365
20
-170.282
11
219.651
21
-170.282
0
LINE
8
BLACK
6
CONTINUOUS
10
219.651
20
-170.282
11
219.936
21
-170.425
0
LINE
8
BLACK
6
CONTINUOUS
10
219.936
20
-170.425
11
220.079
21
-170.568
0
LINE
8
BLACK
6
CONTINUOUS
10
220.079
20
-170.568
11
220.222
21
-170.854
0
LINE
8
BLACK
6
CONTINUOUS
10
220.222
20
-170.854
11
220.365
21
-171.425
0
LINE
8
BLACK
6
CONTINUOUS
10
220.365
20
-171.425
11
220.365
21
-172.139
0
LINE
8
BLACK
6
CONTINUOUS
10
220.365
20
-172.139
11
220.222
21
-172.711
0
LINE
8
BLACK
6
CONTINUOUS
10
220.222
20
-172.711
11
220.079
21
-172.996
0
LINE
8
BLACK
6
CONTINUOUS
10
220.079
20
-172.996
11
219.936
21
-173.139
0
LINE
8
BLACK
6
CONTINUOUS
10
219.936
20
-173.139
11
219.651
21
-173.282
0
LINE
8
BLACK
6
CONTINUOUS
10
219.651
20
-173.282
11
219.365
21
-173.282
0
LINE
8
BLACK
6
CONTINUOUS
10
219.365
20
-173.282
11
219.079
21
-173.139
0
LINE
8
BLACK
6
CONTINUOUS
10
219.079
20
-173.139
11
218.936
21
-172.996
0
LINE
8
BLACK
6
CONTINUOUS
10
218.936
20
-172.996
11
218.794
21
-172.711
0
LINE
8
BLACK
6
CONTINUOUS
10
218.794
20
-172.711
11
218.651
21
-172.139
0
LINE
8
BLACK
6
CONTINUOUS
10
218.651
20
-172.139
11
218.651
21
-171.425
0
LINE
8
BLACK
6
CONTINUOUS
10
218.651
20
-171.425
11
218.794
21
-170.854
0
LINE
8
BLACK
6
CONTINUOUS
10
218.794
20
-170.854
11
218.936
21
-170.568
0
LINE
8
BLACK
6
CONTINUOUS
10
218.936
20
-170.568
11
219.079
21
-170.425
0
LINE
8
BLACK
6
CONTINUOUS
10
219.079
20
-170.425
11
219.365
21
-170.282
0
LINE
8
BLACK
6
CONTINUOUS
10
221.651
20
-172.996
11
221.794
21
-173.139
0
LINE
8
BLACK
6
CONTINUOUS
10
221.794
20
-173.139
11
221.651
21
-173.282
0
LINE
8
BLACK
6
CONTINUOUS
10
221.651
20
-173.282
11
221.508
21
-173.139
0
LINE
8
BLACK
6
CONTINUOUS
10
221.508
20
-173.139
11
221.651
21
-172.996
0
LINE
8
BLACK
6
CONTINUOUS
10
221.651
20
-172.996
11
221.651
21
-173.282
0
LINE
8
BLACK
6
CONTINUOUS
10
223.651
20
-170.282
11
223.936
21
-170.282
0
LINE
8
BLACK
6
CONTINUOUS
10
223.936
20
-170.282
11
224.222
21
-170.425
0
LINE
8
BLACK
6
CONTINUOUS
10
224.222
20
-170.425
11
224.365
21
-170.568
0
LINE
8
BLACK
6
CONTINUOUS
10
224.365
20
-170.568
11
224.508
21
-170.854
0
LINE
8
BLACK
6
CONTINUOUS
10
224.508
20
-170.854
11
224.651
21
-171.425
0
LINE
8
BLACK
6
CONTINUOUS
10
224.651
20
-171.425
11
224.651
21
-172.139
0
LINE
8
BLACK
6
CONTINUOUS
10
224.651
20
-172.139
11
224.508
21
-172.711
0
LINE
8
BLACK
6
CONTINUOUS
10
224.508
20
-172.711
11
224.365
21
-172.996
0
LINE
8
BLACK
6
CONTINUOUS
10
224.365
20
-172.996
11
224.222
21
-173.139
0
LINE
8
BLACK
6
CONTINUOUS
10
224.222
20
-173.139
11
223.936
21
-173.282
0
LINE
8
BLACK
6
CONTINUOUS
10
223.936
20
-173.282
11
223.651
21
-173.282
0
LINE
8
BLACK
6
CONTINUOUS
10
223.651
20
-173.282
11
223.365
21
-173.139
0
LINE
8
BLACK
6
CONTINUOUS
10
223.365
20
-173.139
11
223.222
21
-172.996
0
LINE
8
BLACK
6
CONTINUOUS
10
223.222
20
-172.996
11
223.079
21
-172.711
0
LINE
8
BLACK
6
CONTINUOUS
10
223.079
20
-172.711
11
222.936
21
-172.139
0
LINE
8
BLACK
6
CONTINUOUS
10
222.936
20
-172.139
11
222.936
21
-171.425
0
LINE
8
BLACK
6
CONTINUOUS
10
222.936
20
-171.425
11
223.079
21
-170.854
0
LINE
8
BLACK
6
CONTINUOUS
10
223.079
20
-170.854
11
223.222
21
-170.568
0
LINE
8
BLACK
6
CONTINUOUS
10
223.222
20
-170.568
11
223.365
21
-170.425
0
LINE
8
BLACK
6
CONTINUOUS
10
223.365
20
-170.425
11
223.651
21
-170.282
0
LINE
8
BLACK
6
CONTINUOUS
10
227.365
20
-170.282
11
225.936
21
-170.282
0
LINE
8
BLACK
6
CONTINUOUS
10
225.936
20
-170.282
11
225.794
21
-171.711
0
LINE
8
BLACK
6
CONTINUOUS
10
225.794
20
-171.711
11
225.936
21
-171.568
0
LINE
8
BLACK
6
CONTINUOUS
10
225.936
20
-171.568
11
226.222
21
-171.425
0
LINE
8
BLACK
6
CONTINUOUS
10
226.222
20
-171.425
11
226.936
21
-171.425
0
LINE
8
BLACK
6
CONTINUOUS
10
226.936
20
-171.425
11
227.222
21
-171.568
0
LINE
8
BLACK
6
CONTINUOUS
10
227.222
20
-171.568
11
227.365
21
-171.711
0
LINE
8
BLACK
6
CONTINUOUS
10
227.365
20
-171.711
11
227.508
21
-171.996
0
LINE
8
BLACK
6
CONTINUOUS
10
227.508
20
-171.996
11
227.508
21
-172.711
0
LINE
8
BLACK
6
CONTINUOUS
10
227.508
20
-172.711
11
227.365
21
-172.996
0
LINE
8
BLACK
6
CONTINUOUS
10
227.365
20
-172.996
11
227.222
21
-173.139
0
LINE
8
BLACK
6
CONTINUOUS
10
227.222
20
-173.139
11
226.936
21
-173.282
0
LINE
8
BLACK
6
CONTINUOUS
10
226.936
20
-173.282
11
226.222
21
-173.282
0
LINE
8
BLACK
6
CONTINUOUS
10
226.222
20
-173.282
11
225.936
21
-173.139
0
LINE
8
BLACK
6
CONTINUOUS
10
225.936
20
-173.139
11
225.794
21
-172.996
0
LINE
8
BLACK
6
CONTINUOUS
10
228.936
20
-173.282
11
229.508
21
-173.282
0
LINE
8
BLACK
6
CONTINUOUS
10
229.508
20
-173.282
11
229.794
21
-173.139
0
LINE
8
BLACK
6
CONTINUOUS
10
229.794
20
-173.139
11
229.936
21
-172.996
0
LINE
8
BLACK
6
CONTINUOUS
10
229.936
20
-172.996
11
230.222
21
-172.568
0
LINE
8
BLACK
6
CONTINUOUS
10
230.222
20
-172.568
11
230.365
21
-171.996
0
LINE
8
BLACK
6
CONTINUOUS
10
230.365
20
-171.996
11
230.365
21
-170.854
0
LINE
8
BLACK
6
CONTINUOUS
10
230.365
20
-170.854
11
230.222
21
-170.568
0
LINE
8
BLACK
6
CONTINUOUS
10
230.222
20
-170.568
11
230.079
21
-170.425
0
LINE
8
BLACK
6
CONTINUOUS
10
230.079
20
-170.425
11
229.794
21
-170.282
0
LINE
8
BLACK
6
CONTINUOUS
10
229.794
20
-170.282
11
229.222
21
-170.282
0
LINE
8
BLACK
6
CONTINUOUS
10
229.222
20
-170.282
11
228.936
21
-170.425
0
LINE
8
BLACK
6
CONTINUOUS
10
228.936
20
-170.425
11
228.794
21
-170.568
0
LINE
8
BLACK
6
CONTINUOUS
10
228.794
20
-170.568
11
228.651
21
-170.854
0
LINE
8
BLACK
6
CONTINUOUS
10
228.651
20
-170.854
11
228.651
21
-171.568
0
LINE
8
BLACK
6
CONTINUOUS
10
228.651
20
-171.568
11
228.794
21
-171.854
0
LINE
8
BLACK
6
CONTINUOUS
10
228.794
20
-171.854
11
228.936
21
-171.996
0
LINE
8
BLACK
6
CONTINUOUS
10
228.936
20
-171.996
11
229.222
21
-172.139
0
LINE
8
BLACK
6
CONTINUOUS
10
229.222
20
-172.139
11
229.794
21
-172.139
0
LINE
8
BLACK
6
CONTINUOUS
10
229.794
20
-172.139
11
230.079
21
-171.996
0
LINE
8
BLACK
6
CONTINUOUS
10
230.079
20
-171.996
11
230.222
21
-171.854
0
LINE
8
BLACK
6
CONTINUOUS
10
230.222
20
-171.854
11
230.365
21
-171.568
0
LINE
8
BLACK
6
CONTINUOUS
10
231.508
20
-170.282
11
231.508
21
-170.854
0
LINE
8
BLACK
6
CONTINUOUS
10
232.651
20
-170.282
11
232.651
21
-170.854
0
LINE
8
BLACK
6
CONTINUOUS
10
237.079
20
-174.425
11
236.936
21
-174.282
0
LINE
8
BLACK
6
CONTINUOUS
10
236.936
20
-174.282
11
236.651
21
-173.854
0
LINE
8
BLACK
6
CONTINUOUS
10
236.651
20
-173.854
11
236.508
21
-173.568
0
LINE
8
BLACK
6
CONTINUOUS
10
236.508
20
-173.568
11
236.365
21
-173.139
0
LINE
8
BLACK
6
CONTINUOUS
10
236.365
20
-173.139
11
236.222
21
-172.425
0
LINE
8
BLACK
6
CONTINUOUS
10
236.222
20
-172.425
11
236.222
21
-171.854
0
LINE
8
BLACK
6
CONTINUOUS
10
236.222
20
-171.854
11
236.365
21
-171.139
0
LINE
8
BLACK
6
CONTINUOUS
10
236.365
20
-171.139
11
236.508
21
-170.711
0
LINE
8
BLACK
6
CONTINUOUS
10
236.508
20
-170.711
11
236.651
21
-170.425
0
LINE
8
BLACK
6
CONTINUOUS
10
236.651
20
-170.425
11
236.936
21
-169.996
0
LINE
8
BLACK
6
CONTINUOUS
10
236.936
20
-169.996
11
237.079
21
-169.854
0
LINE
8
BLACK
6
CONTINUOUS
10
237.936
20
-170.282
11
239.936
21
-170.282
0
LINE
8
BLACK
6
CONTINUOUS
10
239.936
20
-170.282
11
238.651
21
-173.282
0
LINE
8
BLACK
6
CONTINUOUS
10
243.365
20
-173.282
11
243.365
21
-170.282
0
LINE
8
BLACK
6
CONTINUOUS
10
244.651
20
-173.282
11
244.651
21
-171.711
0
LINE
8
BLACK
6
CONTINUOUS
10
244.651
20
-171.711
11
244.508
21
-171.425
0
LINE
8
BLACK
6
CONTINUOUS
10
244.508
20
-171.425
11
244.222
21
-171.282
0
LINE
8
BLACK
6
CONTINUOUS
10
244.222
20
-171.282
11
243.794
21
-171.282
0
LINE
8
BLACK
6
CONTINUOUS
10
243.794
20
-171.282
11
243.508
21
-171.425
0
LINE
8
BLACK
6
CONTINUOUS
10
243.508
20
-171.425
11
243.365
21
-171.568
0
LINE
8
BLACK
6
CONTINUOUS
10
246.508
20
-173.282
11
246.222
21
-173.139
0
LINE
8
BLACK
6
CONTINUOUS
10
246.222
20
-173.139
11
246.079
21
-172.996
0
LINE
8
BLACK
6
CONTINUOUS
10
246.079
20
-172.996
11
245.936
21
-172.711
0
LINE
8
BLACK
6
CONTINUOUS
10
245.936
20
-172.711
11
245.936
21
-171.854
0
LINE
8
BLACK
6
CONTINUOUS
10
245.936
20
-171.854
11
246.079
21
-171.568
0
LINE
8
BLACK
6
CONTINUOUS
10
246.079
20
-171.568
11
246.222
21
-171.425
0
LINE
8
BLACK
6
CONTINUOUS
10
246.222
20
-171.425
11
246.508
21
-171.282
0
LINE
8
BLACK
6
CONTINUOUS
10
246.508
20
-171.282
11
246.936
21
-171.282
0
LINE
8
BLACK
6
CONTINUOUS
10
246.936
20
-171.282
11
247.222
21
-171.425
0
LINE
8
BLACK
6
CONTINUOUS
10
247.222
20
-171.425
11
247.365
21
-171.568
0
LINE
8
BLACK
6
CONTINUOUS
10
247.365
20
-171.568
11
247.508
21
-171.854
0
LINE
8
BLACK
6
CONTINUOUS
10
247.508
20
-171.854
11
247.508
21
-172.711
0
LINE
8
BLACK
6
CONTINUOUS
10
247.508
20
-172.711
11
247.365
21
-172.996
0
LINE
8
BLACK
6
CONTINUOUS
10
247.365
20
-172.996
11
247.222
21
-173.139
0
LINE
8
BLACK
6
CONTINUOUS
10
247.222
20
-173.139
11
246.936
21
-173.282
0
LINE
8
BLACK
6
CONTINUOUS
10
246.936
20
-173.282
11
246.508
21
-173.282
0
LINE
8
BLACK
6
CONTINUOUS
10
249.222
20
-173.282
11
248.936
21
-173.139
0
LINE
8
BLACK
6
CONTINUOUS
10
248.936
20
-173.139
11
248.794
21
-172.854
0
LINE
8
BLACK
6
CONTINUOUS
10
248.794
20
-172.854
11
248.794
21
-170.282
0
LINE
8
BLACK
6
CONTINUOUS
10
251.508
20
-173.139
11
251.222
21
-173.282
0
LINE
8
BLACK
6
CONTINUOUS
10
251.222
20
-173.282
11
250.651
21
-173.282
0
LINE
8
BLACK
6
CONTINUOUS
10
250.651
20
-173.282
11
250.365
21
-173.139
0
LINE
8
BLACK
6
CONTINUOUS
10
250.365
20
-173.139
11
250.222
21
-172.854
0
LINE
8
BLACK
6
CONTINUOUS
10
250.222
20
-172.854
11
250.222
21
-171.711
0
LINE
8
BLACK
6
CONTINUOUS
10
250.222
20
-171.711
11
250.365
21
-171.425
0
LINE
8
BLACK
6
CONTINUOUS
10
250.365
20
-171.425
11
250.651
21
-171.282
0
LINE
8
BLACK
6
CONTINUOUS
10
250.651
20
-171.282
11
251.222
21
-171.282
0
LINE
8
BLACK
6
CONTINUOUS
10
251.222
20
-171.282
11
251.508
21
-171.425
0
LINE
8
BLACK
6
CONTINUOUS
10
251.508
20
-171.425
11
251.651
21
-171.711
0
LINE
8
BLACK
6
CONTINUOUS
10
251.651
20
-171.711
11
251.651
21
-171.996
0
LINE
8
BLACK
6
CONTINUOUS
10
251.651
20
-171.996
11
250.222
21
-172.282
0
LINE
8
BLACK
6
CONTINUOUS
10
252.794
20
-173.139
11
253.079
21
-173.282
0
LINE
8
BLACK
6
CONTINUOUS
10
253.079
20
-173.282
11
253.651
21
-173.282
0
LINE
8
BLACK
6
CONTINUOUS
10
253.651
20
-173.282
11
253.936
21
-173.139
0
LINE
8
BLACK
6
CONTINUOUS
10
253.936
20
-173.139
11
254.079
21
-172.854
0
LINE
8
BLACK
6
CONTINUOUS
10
254.079
20
-172.854
11
254.079
21
-172.711
0
LINE
8
BLACK
6
CONTINUOUS
10
254.079
20
-172.711
11
253.936
21
-172.425
0
LINE
8
BLACK
6
CONTINUOUS
10
253.936
20
-172.425
11
253.651
21
-172.282
0
LINE
8
BLACK
6
CONTINUOUS
10
253.651
20
-172.282
11
253.222
21
-172.282
0
LINE
8
BLACK
6
CONTINUOUS
10
253.222
20
-172.282
11
252.936
21
-172.139
0
LINE
8
BLACK
6
CONTINUOUS
10
252.936
20
-172.139
11
252.794
21
-171.854
0
LINE
8
BLACK
6
CONTINUOUS
10
252.794
20
-171.854
11
252.794
21
-171.711
0
LINE
8
BLACK
6
CONTINUOUS
10
252.794
20
-171.711
11
252.936
21
-171.425
0
LINE
8
BLACK
6
CONTINUOUS
10
252.936
20
-171.425
11
253.222
21
-171.282
0
LINE
8
BLACK
6
CONTINUOUS
10
253.222
20
-171.282
11
253.651
21
-171.282
0
LINE
8
BLACK
6
CONTINUOUS
10
253.651
20
-171.282
11
253.936
21
-171.425
0
LINE
8
BLACK
6
CONTINUOUS
10
255.079
20
-174.425
11
255.222
21
-174.282
0
LINE
8
BLACK
6
CONTINUOUS
10
255.222
20
-174.282
11
255.508
21
-173.854
0
LINE
8
BLACK
6
CONTINUOUS
10
255.508
20
-173.854
11
255.651
21
-173.568
0
LINE
8
BLACK
6
CONTINUOUS
10
255.651
20
-173.568
11
255.794
21
-173.139
0
LINE
8
BLACK
6
CONTINUOUS
10
255.794
20
-173.139
11
255.936
21
-172.425
0
LINE
8
BLACK
6
CONTINUOUS
10
255.936
20
-172.425
11
255.936
21
-171.854
0
LINE
8
BLACK
6
CONTINUOUS
10
255.936
20
-171.854
11
255.794
21
-171.139
0
LINE
8
BLACK
6
CONTINUOUS
10
255.794
20
-171.139
11
255.651
21
-170.711
0
LINE
8
BLACK
6
CONTINUOUS
10
255.651
20
-170.711
11
255.508
21
-170.425
0
LINE
8
BLACK
6
CONTINUOUS
10
255.508
20
-170.425
11
255.222
21
-169.996
0
LINE
8
BLACK
6
CONTINUOUS
10
255.222
20
-169.996
11
255.079
21
-169.854
0
LINE
8
BLACK
6
CONTINUOUS
10
187.715
20
-174.635
11
190.215
21
-177.135
0
LINE
8
BLACK
6
CONTINUOUS
10
190.215
20
-174.635
11
187.715
21
-177.135
0
LINE
8
BLACK
6
CONTINUOUS
10
188.965
20
-174.635
11
188.965
21
-177.135
0
LINE
8
BLACK
6
CONTINUOUS
10
187.715
20
-175.885
11
190.215
21
-175.885
0
LINE
8
BLACK
6
CONTINUOUS
10
192.936
20
-174.528
11
193.079
21
-174.385
0
LINE
8
BLACK
6
CONTINUOUS
10
193.079
20
-174.385
11
193.365
21
-174.242
0
LINE
8
BLACK
6
CONTINUOUS
10
193.365
20
-174.242
11
194.079
21
-174.242
0
LINE
8
BLACK
6
CONTINUOUS
10
194.079
20
-174.242
11
194.365
21
-174.385
0
LINE
8
BLACK
6
CONTINUOUS
10
194.365
20
-174.385
11
194.508
21
-174.528
0
LINE
8
BLACK
6
CONTINUOUS
10
194.508
20
-174.528
11
194.651
21
-174.814
0
LINE
8
BLACK
6
CONTINUOUS
10
194.651
20
-174.814
11
194.651
21
-175.099
0
LINE
8
BLACK
6
CONTINUOUS
10
194.651
20
-175.099
11
194.508
21
-175.528
0
LINE
8
BLACK
6
CONTINUOUS
10
194.508
20
-175.528
11
192.794
21
-177.242
0
LINE
8
BLACK
6
CONTINUOUS
10
192.794
20
-177.242
11
194.651
21
-177.242
0
LINE
8
BLACK
6
CONTINUOUS
10
195.936
20
-176.956
11
196.079
21
-177.099
0
LINE
8
BLACK
6
CONTINUOUS
10
196.079
20
-177.099
11
195.936
21
-177.242
0
LINE
8
BLACK
6
CONTINUOUS
10
195.936
20
-177.242
11
195.794
21
-177.099
0
LINE
8
BLACK
6
CONTINUOUS
10
195.794
20
-177.099
11
195.936
21
-176.956
0
LINE
8
BLACK
6
CONTINUOUS
10
195.936
20
-176.956
11
195.936
21
-177.242
0
LINE
8
BLACK
6
CONTINUOUS
10
198.794
20
-174.242
11
197.365
21
-174.242
0
LINE
8
BLACK
6
CONTINUOUS
10
197.365
20
-174.242
11
197.222
21
-175.671
0
LINE
8
BLACK
6
CONTINUOUS
10
197.222
20
-175.671
11
197.365
21
-175.528
0
LINE
8
BLACK
6
CONTINUOUS
10
197.365
20
-175.528
11
197.651
21
-175.385
0
LINE
8
BLACK
6
CONTINUOUS
10
197.651
20
-175.385
11
198.365
21
-175.385
0
LINE
8
BLACK
6
CONTINUOUS
10
198.365
20
-175.385
11
198.651
21
-175.528
0
LINE
8
BLACK
6
CONTINUOUS
10
198.651
20
-175.528
11
198.794
21
-175.671
0
LINE
8
BLACK
6
CONTINUOUS
10
198.794
20
-175.671
11
198.936
21
-175.956
0
LINE
8
BLACK
6
CONTINUOUS
10
198.936
20
-175.956
11
198.936
21
-176.671
0
LINE
8
BLACK
6
CONTINUOUS
10
198.936
20
-176.671
11
198.794
21
-176.956
0
LINE
8
BLACK
6
CONTINUOUS
10
198.794
20
-176.956
11
198.651
21
-177.099
0
LINE
8
BLACK
6
CONTINUOUS
10
198.651
20
-177.099
11
198.365
21
-177.242
0
LINE
8
BLACK
6
CONTINUOUS
10
198.365
20
-177.242
11
197.651
21
-177.242
0
LINE
8
BLACK
6
CONTINUOUS
10
197.651
20
-177.242
11
197.365
21
-177.099
0
LINE
8
BLACK
6
CONTINUOUS
10
197.365
20
-177.099
11
197.222
21
-176.956
0
LINE
8
BLACK
6
CONTINUOUS
10
200.794
20
-174.242
11
201.079
21
-174.242
0
LINE
8
BLACK
6
CONTINUOUS
10
201.079
20
-174.242
11
201.365
21
-174.385
0
LINE
8
BLACK
6
CONTINUOUS
10
201.365
20
-174.385
11
201.508
21
-174.528
0
LINE
8
BLACK
6
CONTINUOUS
10
201.508
20
-174.528
11
201.651
21
-174.814
0
LINE
8
BLACK
6
CONTINUOUS
10
201.651
20
-174.814
11
201.794
21
-175.385
0
LINE
8
BLACK
6
CONTINUOUS
10
201.794
20
-175.385
11
201.794
21
-176.099
0
LINE
8
BLACK
6
CONTINUOUS
10
201.794
20
-176.099
11
201.651
21
-176.671
0
LINE
8
BLACK
6
CONTINUOUS
10
201.651
20
-176.671
11
201.508
21
-176.956
0
LINE
8
BLACK
6
CONTINUOUS
10
201.508
20
-176.956
11
201.365
21
-177.099
0
LINE
8
BLACK
6
CONTINUOUS
10
201.365
20
-177.099
11
201.079
21
-177.242
0
LINE
8
BLACK
6
CONTINUOUS
10
201.079
20
-177.242
11
200.794
21
-177.242
0
LINE
8
BLACK
6
CONTINUOUS
10
200.794
20
-177.242
11
200.508
21
-177.099
0
LINE
8
BLACK
6
CONTINUOUS
10
200.508
20
-177.099
11
200.365
21
-176.956
0
LINE
8
BLACK
6
CONTINUOUS
10
200.365
20
-176.956
11
200.222
21
-176.671
0
LINE
8
BLACK
6
CONTINUOUS
10
200.222
20
-176.671
11
200.079
21
-176.099
0
LINE
8
BLACK
6
CONTINUOUS
10
200.079
20
-176.099
11
200.079
21
-175.385
0
LINE
8
BLACK
6
CONTINUOUS
10
200.079
20
-175.385
11
200.222
21
-174.814
0
LINE
8
BLACK
6
CONTINUOUS
10
200.222
20
-174.814
11
200.365
21
-174.528
0
LINE
8
BLACK
6
CONTINUOUS
10
200.365
20
-174.528
11
200.508
21
-174.385
0
LINE
8
BLACK
6
CONTINUOUS
10
200.508
20
-174.385
11
200.794
21
-174.242
0
LINE
8
BLACK
6
CONTINUOUS
10
203.079
20
-177.242
11
203.079
21
-175.242
0
LINE
8
BLACK
6
CONTINUOUS
10
203.079
20
-175.528
11
203.222
21
-175.385
0
LINE
8
BLACK
6
CONTINUOUS
10
203.222
20
-175.385
11
203.508
21
-175.242
0
LINE
8
BLACK
6
CONTINUOUS
10
203.508
20
-175.242
11
203.936
21
-175.242
0
LINE
8
BLACK
6
CONTINUOUS
10
203.936
20
-175.242
11
204.222
21
-175.385
0
LINE
8
BLACK
6
CONTINUOUS
10
204.222
20
-175.385
11
204.365
21
-175.671
0
LINE
8
BLACK
6
CONTINUOUS
10
204.365
20
-175.671
11
204.365
21
-177.242
0
LINE
8
BLACK
6
CONTINUOUS
10
204.365
20
-175.671
11
204.508
21
-175.385
0
LINE
8
BLACK
6
CONTINUOUS
10
204.508
20
-175.385
11
204.794
21
-175.242
0
LINE
8
BLACK
6
CONTINUOUS
10
204.794
20
-175.242
11
205.222
21
-175.242
0
LINE
8
BLACK
6
CONTINUOUS
10
205.222
20
-175.242
11
205.508
21
-175.385
0
LINE
8
BLACK
6
CONTINUOUS
10
205.508
20
-175.385
11
205.651
21
-175.671
0
LINE
8
BLACK
6
CONTINUOUS
10
205.651
20
-175.671
11
205.651
21
-177.242
0
LINE
8
BLACK
6
CONTINUOUS
10
207.079
20
-177.242
11
207.079
21
-175.242
0
LINE
8
BLACK
6
CONTINUOUS
10
207.079
20
-175.528
11
207.222
21
-175.385
0
LINE
8
BLACK
6
CONTINUOUS
10
207.222
20
-175.385
11
207.508
21
-175.242
0
LINE
8
BLACK
6
CONTINUOUS
10
207.508
20
-175.242
11
207.936
21
-175.242
0
LINE
8
BLACK
6
CONTINUOUS
10
207.936
20
-175.242
11
208.222
21
-175.385
0
LINE
8
BLACK
6
CONTINUOUS
10
208.222
20
-175.385
11
208.365
21
-175.671
0
LINE
8
BLACK
6
CONTINUOUS
10
208.365
20
-175.671
11
208.365
21
-177.242
0
LINE
8
BLACK
6
CONTINUOUS
10
208.365
20
-175.671
11
208.508
21
-175.385
0
LINE
8
BLACK
6
CONTINUOUS
10
208.508
20
-175.385
11
208.794
21
-175.242
0
LINE
8
BLACK
6
CONTINUOUS
10
208.794
20
-175.242
11
209.222
21
-175.242
0
LINE
8
BLACK
6
CONTINUOUS
10
209.222
20
-175.242
11
209.508
21
-175.385
0
LINE
8
BLACK
6
CONTINUOUS
10
209.508
20
-175.385
11
209.651
21
-175.671
0
LINE
8
BLACK
6
CONTINUOUS
10
209.651
20
-175.671
11
209.651
21
-177.242
0
LINE
8
BLACK
6
CONTINUOUS
10
215.508
20
-174.099
11
212.936
21
-177.956
0
LINE
8
BLACK
6
CONTINUOUS
10
219.365
20
-174.242
11
219.651
21
-174.242
0
LINE
8
BLACK
6
CONTINUOUS
10
219.651
20
-174.242
11
219.936
21
-174.385
0
LINE
8
BLACK
6
CONTINUOUS
10
219.936
20
-174.385
11
220.079
21
-174.528
0
LINE
8
BLACK
6
CONTINUOUS
10
220.079
20
-174.528
11
220.222
21
-174.814
0
LINE
8
BLACK
6
CONTINUOUS
10
220.222
20
-174.814
11
220.365
21
-175.385
0
LINE
8
BLACK
6
CONTINUOUS
10
220.365
20
-175.385
11
220.365
21
-176.099
0
LINE
8
BLACK
6
CONTINUOUS
10
220.365
20
-176.099
11
220.222
21
-176.671
0
LINE
8
BLACK
6
CONTINUOUS
10
220.222
20
-176.671
11
220.079
21
-176.956
0
LINE
8
BLACK
6
CONTINUOUS
10
220.079
20
-176.956
11
219.936
21
-177.099
0
LINE
8
BLACK
6
CONTINUOUS
10
219.936
20
-177.099
11
219.651
21
-177.242
0
LINE
8
BLACK
6
CONTINUOUS
10
219.651
20
-177.242
11
219.365
21
-177.242
0
LINE
8
BLACK
6
CONTINUOUS
10
219.365
20
-177.242
11
219.079
21
-177.099
0
LINE
8
BLACK
6
CONTINUOUS
10
219.079
20
-177.099
11
218.936
21
-176.956
0
LINE
8
BLACK
6
CONTINUOUS
10
218.936
20
-176.956
11
218.794
21
-176.671
0
LINE
8
BLACK
6
CONTINUOUS
10
218.794
20
-176.671
11
218.651
21
-176.099
0
LINE
8
BLACK
6
CONTINUOUS
10
218.651
20
-176.099
11
218.651
21
-175.385
0
LINE
8
BLACK
6
CONTINUOUS
10
218.651
20
-175.385
11
218.794
21
-174.814
0
LINE
8
BLACK
6
CONTINUOUS
10
218.794
20
-174.814
11
218.936
21
-174.528
0
LINE
8
BLACK
6
CONTINUOUS
10
218.936
20
-174.528
11
219.079
21
-174.385
0
LINE
8
BLACK
6
CONTINUOUS
10
219.079
20
-174.385
11
219.365
21
-174.242
0
LINE
8
BLACK
6
CONTINUOUS
10
221.651
20
-176.956
11
221.794
21
-177.099
0
LINE
8
BLACK
6
CONTINUOUS
10
221.794
20
-177.099
11
221.651
21
-177.242
0
LINE
8
BLACK
6
CONTINUOUS
10
221.651
20
-177.242
11
221.508
21
-177.099
0
LINE
8
BLACK
6
CONTINUOUS
10
221.508
20
-177.099
11
221.651
21
-176.956
0
LINE
8
BLACK
6
CONTINUOUS
10
221.651
20
-176.956
11
221.651
21
-177.242
0
LINE
8
BLACK
6
CONTINUOUS
10
223.651
20
-174.242
11
223.936
21
-174.242
0
LINE
8
BLACK
6
CONTINUOUS
10
223.936
20
-174.242
11
224.222
21
-174.385
0
LINE
8
BLACK
6
CONTINUOUS
10
224.222
20
-174.385
11
224.365
21
-174.528
0
LINE
8
BLACK
6
CONTINUOUS
10
224.365
20
-174.528
11
224.508
21
-174.814
0
LINE
8
BLACK
6
CONTINUOUS
10
224.508
20
-174.814
11
224.651
21
-175.385
0
LINE
8
BLACK
6
CONTINUOUS
10
224.651
20
-175.385
11
224.651
21
-176.099
0
LINE
8
BLACK
6
CONTINUOUS
10
224.651
20
-176.099
11
224.508
21
-176.671
0
LINE
8
BLACK
6
CONTINUOUS
10
224.508
20
-176.671
11
224.365
21
-176.956
0
LINE
8
BLACK
6
CONTINUOUS
10
224.365
20
-176.956
11
224.222
21
-177.099
0
LINE
8
BLACK
6
CONTINUOUS
10
224.222
20
-177.099
11
223.936
21
-177.242
0
LINE
8
BLACK
6
CONTINUOUS
10
223.936
20
-177.242
11
223.651
21
-177.242
0
LINE
8
BLACK
6
CONTINUOUS
10
223.651
20
-177.242
11
223.365
21
-177.099
0
LINE
8
BLACK
6
CONTINUOUS
10
223.365
20
-177.099
11
223.222
21
-176.956
0
LINE
8
BLACK
6
CONTINUOUS
10
223.222
20
-176.956
11
223.079
21
-176.671
0
LINE
8
BLACK
6
CONTINUOUS
10
223.079
20
-176.671
11
222.936
21
-176.099
0
LINE
8
BLACK
6
CONTINUOUS
10
222.936
20
-176.099
11
222.936
21
-175.385
0
LINE
8
BLACK
6
CONTINUOUS
10
222.936
20
-175.385
11
223.079
21
-174.814
0
LINE
8
BLACK
6
CONTINUOUS
10
223.079
20
-174.814
11
223.222
21
-174.528
0
LINE
8
BLACK
6
CONTINUOUS
10
223.222
20
-174.528
11
223.365
21
-174.385
0
LINE
8
BLACK
6
CONTINUOUS
10
223.365
20
-174.385
11
223.651
21
-174.242
0
LINE
8
BLACK
6
CONTINUOUS
10
226.079
20
-177.242
11
226.651
21
-177.242
0
LINE
8
BLACK
6
CONTINUOUS
10
226.651
20
-177.242
11
226.936
21
-177.099
0
LINE
8
BLACK
6
CONTINUOUS
10
226.936
20
-177.099
11
227.079
21
-176.956
0
LINE
8
BLACK
6
CONTINUOUS
10
227.079
20
-176.956
11
227.365
21
-176.528
0
LINE
8
BLACK
6
CONTINUOUS
10
227.365
20
-176.528
11
227.508
21
-175.956
0
LINE
8
BLACK
6
CONTINUOUS
10
227.508
20
-175.956
11
227.508
21
-174.814
0
LINE
8
BLACK
6
CONTINUOUS
10
227.508
20
-174.814
11
227.365
21
-174.528
0
LINE
8
BLACK
6
CONTINUOUS
10
227.365
20
-174.528
11
227.222
21
-174.385
0
LINE
8
BLACK
6
CONTINUOUS
10
227.222
20
-174.385
11
226.936
21
-174.242
0
LINE
8
BLACK
6
CONTINUOUS
10
226.936
20
-174.242
11
226.365
21
-174.242
0
LINE
8
BLACK
6
CONTINUOUS
10
226.365
20
-174.242
11
226.079
21
-174.385
0
LINE
8
BLACK
6
CONTINUOUS
10
226.079
20
-174.385
11
225.936
21
-174.528
0
LINE
8
BLACK
6
CONTINUOUS
10
225.936
20
-174.528
11
225.794
21
-174.814
0
LINE
8
BLACK
6
CONTINUOUS
10
225.794
20
-174.814
11
225.794
21
-175.528
0
LINE
8
BLACK
6
CONTINUOUS
10
225.794
20
-175.528
11
225.936
21
-175.814
0
LINE
8
BLACK
6
CONTINUOUS
10
225.936
20
-175.814
11
226.079
21
-175.956
0
LINE
8
BLACK
6
CONTINUOUS
10
226.079
20
-175.956
11
226.365
21
-176.099
0
LINE
8
BLACK
6
CONTINUOUS
10
226.365
20
-176.099
11
226.936
21
-176.099
0
LINE
8
BLACK
6
CONTINUOUS
10
226.936
20
-176.099
11
227.222
21
-175.956
0
LINE
8
BLACK
6
CONTINUOUS
10
227.222
20
-175.956
11
227.365
21
-175.814
0
LINE
8
BLACK
6
CONTINUOUS
10
227.365
20
-175.814
11
227.508
21
-175.528
0
LINE
8
BLACK
6
CONTINUOUS
10
229.222
20
-175.528
11
228.936
21
-175.385
0
LINE
8
BLACK
6
CONTINUOUS
10
228.936
20
-175.385
11
228.794
21
-175.242
0
LINE
8
BLACK
6
CONTINUOUS
10
228.794
20
-175.242
11
228.651
21
-174.956
0
LINE
8
BLACK
6
CONTINUOUS
10
228.651
20
-174.956
11
228.651
21
-174.814
0
LINE
8
BLACK
6
CONTINUOUS
10
228.651
20
-174.814
11
228.794
21
-174.528
0
LINE
8
BLACK
6
CONTINUOUS
10
228.794
20
-174.528
11
228.936
21
-174.385
0
LINE
8
BLACK
6
CONTINUOUS
10
228.936
20
-174.385
11
229.222
21
-174.242
0
LINE
8
BLACK
6
CONTINUOUS
10
229.222
20
-174.242
11
229.794
21
-174.242
0
LINE
8
BLACK
6
CONTINUOUS
10
229.794
20
-174.242
11
230.079
21
-174.385
0
LINE
8
BLACK
6
CONTINUOUS
10
230.079
20
-174.385
11
230.222
21
-174.528
0
LINE
8
BLACK
6
CONTINUOUS
10
230.222
20
-174.528
11
230.365
21
-174.814
0
LINE
8
BLACK
6
CONTINUOUS
10
230.365
20
-174.814
11
230.365
21
-174.956
0
LINE
8
BLACK
6
CONTINUOUS
10
230.365
20
-174.956
11
230.222
21
-175.242
0
LINE
8
BLACK
6
CONTINUOUS
10
230.222
20
-175.242
11
230.079
21
-175.385
0
LINE
8
BLACK
6
CONTINUOUS
10
230.079
20
-175.385
11
229.794
21
-175.528
0
LINE
8
BLACK
6
CONTINUOUS
10
229.794
20
-175.528
11
229.222
21
-175.528
0
LINE
8
BLACK
6
CONTINUOUS
10
229.222
20
-175.528
11
228.936
21
-175.671
0
LINE
8
BLACK
6
CONTINUOUS
10
228.936
20
-175.671
11
228.794
21
-175.814
0
LINE
8
BLACK
6
CONTINUOUS
10
228.794
20
-175.814
11
228.651
21
-176.099
0
LINE
8
BLACK
6
CONTINUOUS
10
228.651
20
-176.099
11
228.651
21
-176.671
0
LINE
8
BLACK
6
CONTINUOUS
10
228.651
20
-176.671
11
228.794
21
-176.956
0
LINE
8
BLACK
6
CONTINUOUS
10
228.794
20
-176.956
11
228.936
21
-177.099
0
LINE
8
BLACK
6
CONTINUOUS
10
228.936
20
-177.099
11
229.222
21
-177.242
0
LINE
8
BLACK
6
CONTINUOUS
10
229.222
20
-177.242
11
229.794
21
-177.242
0
LINE
8
BLACK
6
CONTINUOUS
10
229.794
20
-177.242
11
230.079
21
-177.099
0
LINE
8
BLACK
6
CONTINUOUS
10
230.079
20
-177.099
11
230.222
21
-176.956
0
LINE
8
BLACK
6
CONTINUOUS
10
230.222
20
-176.956
11
230.365
21
-176.671
0
LINE
8
BLACK
6
CONTINUOUS
10
230.365
20
-176.671
11
230.365
21
-176.099
0
LINE
8
BLACK
6
CONTINUOUS
10
230.365
20
-176.099
11
230.222
21
-175.814
0
LINE
8
BLACK
6
CONTINUOUS
10
230.222
20
-175.814
11
230.079
21
-175.671
0
LINE
8
BLACK
6
CONTINUOUS
10
230.079
20
-175.671
11
229.794
21
-175.528
0
LINE
8
BLACK
6
CONTINUOUS
10
231.508
20
-174.242
11
231.508
21
-174.814
0
LINE
8
BLACK
6
CONTINUOUS
10
232.651
20
-174.242
11
232.651
21
-174.814
0
LINE
8
BLACK
6
CONTINUOUS
10
237.079
20
-178.385
11
236.936
21
-178.242
0
LINE
8
BLACK
6
CONTINUOUS
10
236.936
20
-178.242
11
236.651
21
-177.814
0
LINE
8
BLACK
6
CONTINUOUS
10
236.651
20
-177.814
11
236.508
21
-177.528
0
LINE
8
BLACK
6
CONTINUOUS
10
236.508
20
-177.528
11
236.365
21
-177.099
0
LINE
8
BLACK
6
CONTINUOUS
10
236.365
20
-177.099
11
236.222
21
-176.385
0
LINE
8
BLACK
6
CONTINUOUS
10
236.222
20
-176.385
11
236.222
21
-175.814
0
LINE
8
BLACK
6
CONTINUOUS
10
236.222
20
-175.814
11
236.365
21
-175.099
0
LINE
8
BLACK
6
CONTINUOUS
10
236.365
20
-175.099
11
236.508
21
-174.671
0
LINE
8
BLACK
6
CONTINUOUS
10
236.508
20
-174.671
11
236.651
21
-174.385
0
LINE
8
BLACK
6
CONTINUOUS
10
236.651
20
-174.385
11
236.936
21
-173.956
0
LINE
8
BLACK
6
CONTINUOUS
10
236.936
20
-173.956
11
237.079
21
-173.814
0
LINE
8
BLACK
6
CONTINUOUS
10
239.794
20
-177.242
11
238.079
21
-177.242
0
LINE
8
BLACK
6
CONTINUOUS
10
238.936
20
-177.242
11
238.936
21
-174.242
0
LINE
8
BLACK
6
CONTINUOUS
10
238.936
20
-174.242
11
238.651
21
-174.671
0
LINE
8
BLACK
6
CONTINUOUS
10
238.651
20
-174.671
11
238.365
21
-174.956
0
LINE
8
BLACK
6
CONTINUOUS
10
238.365
20
-174.956
11
238.079
21
-175.099
0
LINE
8
BLACK
6
CONTINUOUS
10
242.365
20
-175.242
11
242.365
21
-177.242
0
LINE
8
BLACK
6
CONTINUOUS
10
241.651
20
-174.099
11
240.936
21
-176.242
0
LINE
8
BLACK
6
CONTINUOUS
10
240.936
20
-176.242
11
242.794
21
-176.242
0
LINE
8
BLACK
6
CONTINUOUS
10
246.222
20
-177.242
11
246.222
21
-174.242
0
LINE
8
BLACK
6
CONTINUOUS
10
247.508
20
-177.242
11
247.508
21
-175.671
0
LINE
8
BLACK
6
CONTINUOUS
10
247.508
20
-175.671
11
247.365
21
-175.385
0
LINE
8
BLACK
6
CONTINUOUS
10
247.365
20
-175.385
11
247.079
21
-175.242
0
LINE
8
BLACK
6
CONTINUOUS
10
247.079
20
-175.242
11
246.651
21
-175.242
0
LINE
8
BLACK
6
CONTINUOUS
10
246.651
20
-175.242
11
246.365
21
-175.385
0
LINE
8
BLACK
6
CONTINUOUS
10
246.365
20
-175.385
11
246.222
21
-175.528
0
LINE
8
BLACK
6
CONTINUOUS
10
249.365
20
-177.242
11
249.079
21
-177.099
0
LINE
8
BLACK
6
CONTINUOUS
10
249.079
20
-177.099
11
248.936
21
-176.956
0
LINE
8
BLACK
6
CONTINUOUS
10
248.936
20
-176.956
11
248.794
21
-176.671
0
LINE
8
BLACK
6
CONTINUOUS
10
248.794
20
-176.671
11
248.794
21
-175.814
0
LINE
8
BLACK
6
CONTINUOUS
10
248.794
20
-175.814
11
248.936
21
-175.528
0
LINE
8
BLACK
6
CONTINUOUS
10
248.936
20
-175.528
11
249.079
21
-175.385
0
LINE
8
BLACK
6
CONTINUOUS
10
249.079
20
-175.385
11
249.365
21
-175.242
0
LINE
8
BLACK
6
CONTINUOUS
10
249.365
20
-175.242
11
249.794
21
-175.242
0
LINE
8
BLACK
6
CONTINUOUS
10
249.794
20
-175.242
11
250.079
21
-175.385
0
LINE
8
BLACK
6
CONTINUOUS
10
250.079
20
-175.385
11
250.222
21
-175.528
0
LINE
8
BLACK
6
CONTINUOUS
10
250.222
20
-175.528
11
250.365
21
-175.814
0
LINE
8
BLACK
6
CONTINUOUS
10
250.365
20
-175.814
11
250.365
21
-176.671
0
LINE
8
BLACK
6
CONTINUOUS
10
250.365
20
-176.671
11
250.222
21
-176.956
0
LINE
8
BLACK
6
CONTINUOUS
10
250.222
20
-176.956
11
250.079
21
-177.099
0
LINE
8
BLACK
6
CONTINUOUS
10
250.079
20
-177.099
11
249.794
21
-177.242
0
LINE
8
BLACK
6
CONTINUOUS
10
249.794
20
-177.242
11
249.365
21
-177.242
0
LINE
8
BLACK
6
CONTINUOUS
10
252.079
20
-177.242
11
251.794
21
-177.099
0
LINE
8
BLACK
6
CONTINUOUS
10
251.794
20
-177.099
11
251.651
21
-176.814
0
LINE
8
BLACK
6
CONTINUOUS
10
251.651
20
-176.814
11
251.651
21
-174.242
0
LINE
8
BLACK
6
CONTINUOUS
10
254.365
20
-177.099
11
254.079
21
-177.242
0
LINE
8
BLACK
6
CONTINUOUS
10
254.079
20
-177.242
11
253.508
21
-177.242
0
LINE
8
BLACK
6
CONTINUOUS
10
253.508
20
-177.242
11
253.222
21
-177.099
0
LINE
8
BLACK
6
CONTINUOUS
10
253.222
20
-177.099
11
253.079
21
-176.814
0
LINE
8
BLACK
6
CONTINUOUS
10
253.079
20
-176.814
11
253.079
21
-175.671
0
LINE
8
BLACK
6
CONTINUOUS
10
253.079
20
-175.671
11
253.222
21
-175.385
0
LINE
8
BLACK
6
CONTINUOUS
10
253.222
20
-175.385
11
253.508
21
-175.242
0
LINE
8
BLACK
6
CONTINUOUS
10
253.508
20
-175.242
11
254.079
21
-175.242
0
LINE
8
BLACK
6
CONTINUOUS
10
254.079
20
-175.242
11
254.365
21
-175.385
0
LINE
8
BLACK
6
CONTINUOUS
10
254.365
20
-175.385
11
254.508
21
-175.671
0
LINE
8
BLACK
6
CONTINUOUS
10
254.508
20
-175.671
11
254.508
21
-175.956
0
LINE
8
BLACK
6
CONTINUOUS
10
254.508
20
-175.956
11
253.079
21
-176.242
0
LINE
8
BLACK
6
CONTINUOUS
10
255.651
20
-177.099
11
255.936
21
-177.242
0
LINE
8
BLACK
6
CONTINUOUS
10
255.936
20
-177.242
11
256.508
21
-177.242
0
LINE
8
BLACK
6
CONTINUOUS
10
256.508
20
-177.242
11
256.794
21
-177.099
0
LINE
8
BLACK
6
CONTINUOUS
10
256.794
20
-177.099
11
256.936
21
-176.814
0
LINE
8
BLACK
6
CONTINUOUS
10
256.936
20
-176.814
11
256.936
21
-176.671
0
LINE
8
BLACK
6
CONTINUOUS
10
256.936
20
-176.671
11
256.794
21
-176.385
0
LINE
8
BLACK
6
CONTINUOUS
10
256.794
20
-176.385
11
256.508
21
-176.242
0
LINE
8
BLACK
6
CONTINUOUS
10
256.508
20
-176.242
11
256.079
21
-176.242
0
LINE
8
BLACK
6
CONTINUOUS
10
256.079
20
-176.242
11
255.794
21
-176.099
0
LINE
8
BLACK
6
CONTINUOUS
10
255.794
20
-176.099
11
255.651
21
-175.814
0
LINE
8
BLACK
6
CONTINUOUS
10
255.651
20
-175.814
11
255.651
21
-175.671
0
LINE
8
BLACK
6
CONTINUOUS
10
255.651
20
-175.671
11
255.794
21
-175.385
0
LINE
8
BLACK
6
CONTINUOUS
10
255.794
20
-175.385
11
256.079
21
-175.242
0
LINE
8
BLACK
6
CONTINUOUS
10
256.079
20
-175.242
11
256.508
21
-175.242
0
LINE
8
BLACK
6
CONTINUOUS
10
256.508
20
-175.242
11
256.794
21
-175.385
0
LINE
8
BLACK
6
CONTINUOUS
10
257.936
20
-178.385
11
258.079
21
-178.242
0
LINE
8
BLACK
6
CONTINUOUS
10
258.079
20
-178.242
11
258.365
21
-177.814
0
LINE
8
BLACK
6
CONTINUOUS
10
258.365
20
-177.814
11
258.508
21
-177.528
0
LINE
8
BLACK
6
CONTINUOUS
10
258.508
20
-177.528
11
258.651
21
-177.099
0
LINE
8
BLACK
6
CONTINUOUS
10
258.651
20
-177.099
11
258.794
21
-176.385
0
LINE
8
BLACK
6
CONTINUOUS
10
258.794
20
-176.385
11
258.794
21
-175.814
0
LINE
8
BLACK
6
CONTINUOUS
10
258.794
20
-175.814
11
258.651
21
-175.099
0
LINE
8
BLACK
6
CONTINUOUS
10
258.651
20
-175.099
11
258.508
21
-174.671
0
LINE
8
BLACK
6
CONTINUOUS
10
258.508
20
-174.671
11
258.365
21
-174.385
0
LINE
8
BLACK
6
CONTINUOUS
10
258.365
20
-174.385
11
258.079
21
-173.956
0
LINE
8
BLACK
6
CONTINUOUS
10
258.079
20
-173.956
11
257.936
21
-173.814
  0
ENDSEC
  0
EOF
