M48
; DRILL file {KiCad 5.1.5+dfsg1-2build2} date ven. 08 oct. 2021 23:54:05
; FORMAT={-:-/ absolute / metric / decimal}
; #@! TF.CreationDate,2021-10-08T23:54:05+02:00
; #@! TF.GenerationSoftware,Kicad,Pcbnew,5.1.5+dfsg1-2build2
FMAT,2
METRIC
T1C0.800
T2C1.000
T3C1.067
T4C1.199
T5C1.200
T6C1.500
T7C3.200
%
G90
G05
T1
X87.63Y-84.328
X87.63Y-108.204
X116.84Y-82.296
X129.54Y-82.296
X69.65Y-91.44
X69.65Y-101.6
X107.95Y-58.42
X107.95Y-68.58
X103.0Y-135.945
X105.5Y-135.945
X142.24Y-88.9
X142.24Y-91.4
X63.3Y-91.44
X63.3Y-101.6
X72.825Y-91.44
X72.825Y-101.6
X127.605Y-73.455
X127.605Y-78.455
X66.475Y-91.44
X66.475Y-101.6
X113.03Y-77.51
X113.03Y-80.01
X83.82Y-89.33
X83.82Y-91.87
X83.82Y-94.41
X83.82Y-96.95
X83.82Y-99.49
X83.82Y-102.03
X83.82Y-104.57
X91.44Y-89.33
X91.44Y-91.87
X91.44Y-94.41
X91.44Y-96.95
X91.44Y-99.49
X91.44Y-102.03
X91.44Y-104.57
X76.0Y-91.44
X76.0Y-101.6
X142.24Y-82.59
X142.24Y-85.09
X73.09Y-142.08
X75.59Y-142.08
X79.38Y-121.445
X79.38Y-123.985
X79.38Y-126.525
X79.38Y-129.065
X79.38Y-131.605
X79.38Y-134.145
X79.38Y-136.685
X87.0Y-121.445
X87.0Y-123.985
X87.0Y-126.525
X87.0Y-129.065
X87.0Y-131.605
X87.0Y-134.145
X87.0Y-136.685
X79.175Y-91.44
X79.175Y-101.6
X135.255Y-85.09
X135.255Y-88.89
X107.95Y-118.11
X110.45Y-118.11
X104.295Y-74.93
X107.795Y-74.93
T2
X112.485Y-67.225
X115.025Y-67.225
X117.565Y-67.225
X120.105Y-67.225
X122.645Y-67.225
X125.185Y-67.225
X127.725Y-67.225
X130.265Y-67.225
X69.08Y-87.39
X71.62Y-87.39
X74.16Y-87.39
X76.7Y-87.39
X79.24Y-87.39
X79.4Y-142.08
X85.725Y-73.66
X85.725Y-76.2
X85.725Y-78.74
X112.485Y-55.16
X115.025Y-55.16
X117.565Y-55.16
X120.105Y-55.16
X122.645Y-55.16
X125.185Y-55.16
X127.725Y-55.16
X130.265Y-55.16
X96.52Y-88.315
X96.52Y-90.855
X96.52Y-93.395
X96.52Y-95.935
X96.52Y-98.475
X96.52Y-101.015
X96.52Y-103.555
X96.52Y-106.095
X96.52Y-108.635
X96.52Y-111.175
X96.52Y-113.715
X96.52Y-116.255
X96.52Y-118.795
X96.52Y-121.335
X96.52Y-123.875
X96.52Y-126.415
X96.52Y-128.955
X96.52Y-131.495
X96.52Y-134.035
X96.52Y-136.575
X114.3Y-88.315
X114.3Y-90.855
X114.3Y-93.395
X114.3Y-95.935
X114.3Y-98.475
X114.3Y-101.015
X114.3Y-103.555
X114.3Y-106.095
X114.3Y-108.635
X114.3Y-111.175
X114.3Y-113.715
X114.3Y-116.255
X114.3Y-118.795
X114.3Y-121.335
X114.3Y-123.875
X114.3Y-126.415
X114.3Y-128.955
X114.3Y-131.495
X114.3Y-134.035
X114.3Y-136.575
X112.485Y-58.97
X115.025Y-58.97
X117.565Y-58.97
X120.105Y-58.97
X122.645Y-58.97
X125.185Y-58.97
X127.725Y-58.97
X130.265Y-58.97
X118.5Y-101.092
X118.5Y-103.632
X118.5Y-106.172
X118.5Y-108.712
X118.5Y-111.252
X71.0Y-122.785
X71.0Y-125.325
X71.0Y-127.865
X71.0Y-130.405
X71.0Y-132.945
X71.0Y-135.485
X73.54Y-122.785
X73.54Y-125.325
X73.54Y-127.865
X73.54Y-130.405
X73.54Y-132.945
X73.54Y-135.485
X83.82Y-142.24
X138.43Y-125.095
X140.97Y-125.095
X90.625Y-73.66
X90.625Y-76.2
X90.625Y-78.74
X68.961Y-78.74
X71.501Y-78.74
X74.041Y-78.74
X76.581Y-78.74
X79.121Y-78.74
X61.395Y-110.49
X63.935Y-110.49
X66.475Y-110.49
X69.015Y-110.49
X71.555Y-110.49
X74.095Y-110.49
X76.635Y-110.49
X79.175Y-110.49
T3
X126.0Y-118.5
X131.0Y-98.5
X141.0Y-98.5
X146.0Y-118.5
T4
X61.214Y-87.63
X65.024Y-87.63
T5
X149.225Y-85.09
X149.225Y-87.63
X149.225Y-90.17
X155.575Y-85.09
X155.575Y-97.79
T6
X155.5Y-118.5
X155.5Y-125.0
X155.5Y-131.5
X126.0Y-131.5
X148.6Y-131.5
T7
X153.0Y-59.0
X64.0Y-142.0
X154.0Y-142.0
X65.0Y-59.0
T0
M30
