  0
SECTION
  2
HEADER
  9
$ANGBASE
  50
0.0
  9
$ANGDIR
  70
1
  9
$MEASUREMENT
  70
1
  0
ENDSEC
  0
SECTION
  2
TABLES
  0
TABLE
  2
LTYPE
  70
4
  0
LTYPE
  5
40F
  2
CONTINUOUS
  70
0
  3
Solid line
  72
65
  73
0
  40
0.0
  0
LTYPE
  5
410
  2
DASHDOT
 70
0
  3
Dash Dot ____ _ ____ _
 72
65
 73
4
 40
2.0
 49
1.25
 49
-0.25
 49
0.25
 49
-0.25
  0
LTYPE
  5
411
  2
DASHED
 70
0
  3
Dashed __ __ __ __ __
 72
65
 73
2
 40
0.75
 49
0.5
 49
-0.25
  0
LTYPE
  5
43B
  2
DOTTED
 70
0
  3
Dotted .  .  .  .
 72
65
 73
2
 40
0.2
 49
0.0
 49
-0.2
  0
ENDTAB
  0
TABLE
  2
STYLE
  70
4
  0
STYLE
  2
KICAD
  70
0
  40
0
  41
1
  42
1
  50
0
  71
0
  3
isocp.shx
  0
STYLE
  2
KICADB
  70
0
  40
0
  41
1
  42
1
  50
0
  71
0
  3
isocp.shx
  0
STYLE
  2
KICADI
  70
0
  40
0
  41
1
  42
1
  50
15
  71
0
  3
isocp.shx
  0
STYLE
  2
KICADBI
  70
0
  40
0
  41
1
  42
1
  50
15
  71
0
  3
isocp.shx
  0
ENDTAB
  0
TABLE
  2
LAYER
  70
1
  0
LAYER
  2
BLACK
  70
0
  62
7
  6
CONTINUOUS
  0
ENDTAB
  0
ENDSEC
  0
SECTION
  2
ENTITIES
0
ARC
8
BLACK
10
154
20
-142
40
5
50
-90
51
-0
0
ARC
8
BLACK
10
64
20
-142
40
5
50
180
51
270
0
ARC
8
BLACK
10
64
20
-58.5
40
5
50
90
51
180
0
ARC
8
BLACK
10
154
20
-58.5
40
5
50
-0
51
90
0
LINE
8
BLACK
6
CONTINUOUS
10
59
20
-142
11
59
21
-58.5
0
LINE
8
BLACK
6
CONTINUOUS
10
154
20
-147
11
64
21
-147
0
LINE
8
BLACK
6
CONTINUOUS
10
159
20
-58.5
11
159
21
-142
0
LINE
8
BLACK
6
CONTINUOUS
10
64
20
-53.5
11
154
21
-53.5
0
LINE
8
BLACK
6
CONTINUOUS
10
87.23
20
-83.928
11
88.03
21
-84.728
0
LINE
8
BLACK
6
CONTINUOUS
10
88.03
20
-83.928
11
87.23
21
-84.728
0
LINE
8
BLACK
6
CONTINUOUS
10
87.23
20
-107.804
11
88.03
21
-108.604
0
LINE
8
BLACK
6
CONTINUOUS
10
88.03
20
-107.804
11
87.23
21
-108.604
0
LINE
8
BLACK
6
CONTINUOUS
10
116.44
20
-81.896
11
117.24
21
-82.696
0
LINE
8
BLACK
6
CONTINUOUS
10
117.24
20
-81.896
11
116.44
21
-82.696
0
LINE
8
BLACK
6
CONTINUOUS
10
129.14
20
-81.896
11
129.94
21
-82.696
0
LINE
8
BLACK
6
CONTINUOUS
10
129.94
20
-81.896
11
129.14
21
-82.696
0
LINE
8
BLACK
6
CONTINUOUS
10
69.25
20
-91.04
11
70.05
21
-91.84
0
LINE
8
BLACK
6
CONTINUOUS
10
70.05
20
-91.04
11
69.25
21
-91.84
0
LINE
8
BLACK
6
CONTINUOUS
10
69.25
20
-101.2
11
70.05
21
-102
0
LINE
8
BLACK
6
CONTINUOUS
10
70.05
20
-101.2
11
69.25
21
-102
0
LINE
8
BLACK
6
CONTINUOUS
10
107.55
20
-58.02
11
108.35
21
-58.82
0
LINE
8
BLACK
6
CONTINUOUS
10
108.35
20
-58.02
11
107.55
21
-58.82
0
LINE
8
BLACK
6
CONTINUOUS
10
107.55
20
-68.18
11
108.35
21
-68.98
0
LINE
8
BLACK
6
CONTINUOUS
10
108.35
20
-68.18
11
107.55
21
-68.98
0
LINE
8
BLACK
6
CONTINUOUS
10
102.6
20
-135.545
11
103.4
21
-136.345
0
LINE
8
BLACK
6
CONTINUOUS
10
103.4
20
-135.545
11
102.6
21
-136.345
0
LINE
8
BLACK
6
CONTINUOUS
10
105.1
20
-135.545
11
105.9
21
-136.345
0
LINE
8
BLACK
6
CONTINUOUS
10
105.9
20
-135.545
11
105.1
21
-136.345
0
LINE
8
BLACK
6
CONTINUOUS
10
141.84
20
-88.5
11
142.64
21
-89.3
0
LINE
8
BLACK
6
CONTINUOUS
10
142.64
20
-88.5
11
141.84
21
-89.3
0
LINE
8
BLACK
6
CONTINUOUS
10
141.84
20
-91
11
142.64
21
-91.8
0
LINE
8
BLACK
6
CONTINUOUS
10
142.64
20
-91
11
141.84
21
-91.8
0
LINE
8
BLACK
6
CONTINUOUS
10
62.9
20
-91.04
11
63.7
21
-91.84
0
LINE
8
BLACK
6
CONTINUOUS
10
63.7
20
-91.04
11
62.9
21
-91.84
0
LINE
8
BLACK
6
CONTINUOUS
10
62.9
20
-101.2
11
63.7
21
-102
0
LINE
8
BLACK
6
CONTINUOUS
10
63.7
20
-101.2
11
62.9
21
-102
0
LINE
8
BLACK
6
CONTINUOUS
10
72.425
20
-91.04
11
73.225
21
-91.84
0
LINE
8
BLACK
6
CONTINUOUS
10
73.225
20
-91.04
11
72.425
21
-91.84
0
LINE
8
BLACK
6
CONTINUOUS
10
72.425
20
-101.2
11
73.225
21
-102
0
LINE
8
BLACK
6
CONTINUOUS
10
73.225
20
-101.2
11
72.425
21
-102
0
LINE
8
BLACK
6
CONTINUOUS
10
127.205
20
-73.055
11
128.005
21
-73.855
0
LINE
8
BLACK
6
CONTINUOUS
10
128.005
20
-73.055
11
127.205
21
-73.855
0
LINE
8
BLACK
6
CONTINUOUS
10
127.205
20
-78.055
11
128.005
21
-78.855
0
LINE
8
BLACK
6
CONTINUOUS
10
128.005
20
-78.055
11
127.205
21
-78.855
0
LINE
8
BLACK
6
CONTINUOUS
10
66.075
20
-91.04
11
66.875
21
-91.84
0
LINE
8
BLACK
6
CONTINUOUS
10
66.875
20
-91.04
11
66.075
21
-91.84
0
LINE
8
BLACK
6
CONTINUOUS
10
66.075
20
-101.2
11
66.875
21
-102
0
LINE
8
BLACK
6
CONTINUOUS
10
66.875
20
-101.2
11
66.075
21
-102
0
LINE
8
BLACK
6
CONTINUOUS
10
112.63
20
-77.11
11
113.43
21
-77.91
0
LINE
8
BLACK
6
CONTINUOUS
10
113.43
20
-77.11
11
112.63
21
-77.91
0
LINE
8
BLACK
6
CONTINUOUS
10
112.63
20
-79.61
11
113.43
21
-80.41
0
LINE
8
BLACK
6
CONTINUOUS
10
113.43
20
-79.61
11
112.63
21
-80.41
0
LINE
8
BLACK
6
CONTINUOUS
10
83.42
20
-88.93
11
84.22
21
-89.73
0
LINE
8
BLACK
6
CONTINUOUS
10
84.22
20
-88.93
11
83.42
21
-89.73
0
LINE
8
BLACK
6
CONTINUOUS
10
83.42
20
-91.47
11
84.22
21
-92.27
0
LINE
8
BLACK
6
CONTINUOUS
10
84.22
20
-91.47
11
83.42
21
-92.27
0
LINE
8
BLACK
6
CONTINUOUS
10
83.42
20
-94.01
11
84.22
21
-94.81
0
LINE
8
BLACK
6
CONTINUOUS
10
84.22
20
-94.01
11
83.42
21
-94.81
0
LINE
8
BLACK
6
CONTINUOUS
10
83.42
20
-96.55
11
84.22
21
-97.35
0
LINE
8
BLACK
6
CONTINUOUS
10
84.22
20
-96.55
11
83.42
21
-97.35
0
LINE
8
BLACK
6
CONTINUOUS
10
83.42
20
-99.09
11
84.22
21
-99.89
0
LINE
8
BLACK
6
CONTINUOUS
10
84.22
20
-99.09
11
83.42
21
-99.89
0
LINE
8
BLACK
6
CONTINUOUS
10
83.42
20
-101.63
11
84.22
21
-102.43
0
LINE
8
BLACK
6
CONTINUOUS
10
84.22
20
-101.63
11
83.42
21
-102.43
0
LINE
8
BLACK
6
CONTINUOUS
10
83.42
20
-104.17
11
84.22
21
-104.97
0
LINE
8
BLACK
6
CONTINUOUS
10
84.22
20
-104.17
11
83.42
21
-104.97
0
LINE
8
BLACK
6
CONTINUOUS
10
91.04
20
-88.93
11
91.84
21
-89.73
0
LINE
8
BLACK
6
CONTINUOUS
10
91.84
20
-88.93
11
91.04
21
-89.73
0
LINE
8
BLACK
6
CONTINUOUS
10
91.04
20
-91.47
11
91.84
21
-92.27
0
LINE
8
BLACK
6
CONTINUOUS
10
91.84
20
-91.47
11
91.04
21
-92.27
0
LINE
8
BLACK
6
CONTINUOUS
10
91.04
20
-94.01
11
91.84
21
-94.81
0
LINE
8
BLACK
6
CONTINUOUS
10
91.84
20
-94.01
11
91.04
21
-94.81
0
LINE
8
BLACK
6
CONTINUOUS
10
91.04
20
-96.55
11
91.84
21
-97.35
0
LINE
8
BLACK
6
CONTINUOUS
10
91.84
20
-96.55
11
91.04
21
-97.35
0
LINE
8
BLACK
6
CONTINUOUS
10
91.04
20
-99.09
11
91.84
21
-99.89
0
LINE
8
BLACK
6
CONTINUOUS
10
91.84
20
-99.09
11
91.04
21
-99.89
0
LINE
8
BLACK
6
CONTINUOUS
10
91.04
20
-101.63
11
91.84
21
-102.43
0
LINE
8
BLACK
6
CONTINUOUS
10
91.84
20
-101.63
11
91.04
21
-102.43
0
LINE
8
BLACK
6
CONTINUOUS
10
91.04
20
-104.17
11
91.84
21
-104.97
0
LINE
8
BLACK
6
CONTINUOUS
10
91.84
20
-104.17
11
91.04
21
-104.97
0
LINE
8
BLACK
6
CONTINUOUS
10
75.6
20
-91.04
11
76.4
21
-91.84
0
LINE
8
BLACK
6
CONTINUOUS
10
76.4
20
-91.04
11
75.6
21
-91.84
0
LINE
8
BLACK
6
CONTINUOUS
10
75.6
20
-101.2
11
76.4
21
-102
0
LINE
8
BLACK
6
CONTINUOUS
10
76.4
20
-101.2
11
75.6
21
-102
0
LINE
8
BLACK
6
CONTINUOUS
10
141.84
20
-82.19
11
142.64
21
-82.99
0
LINE
8
BLACK
6
CONTINUOUS
10
142.64
20
-82.19
11
141.84
21
-82.99
0
LINE
8
BLACK
6
CONTINUOUS
10
141.84
20
-84.69
11
142.64
21
-85.49
0
LINE
8
BLACK
6
CONTINUOUS
10
142.64
20
-84.69
11
141.84
21
-85.49
0
LINE
8
BLACK
6
CONTINUOUS
10
72.69
20
-141.68
11
73.49
21
-142.48
0
LINE
8
BLACK
6
CONTINUOUS
10
73.49
20
-141.68
11
72.69
21
-142.48
0
LINE
8
BLACK
6
CONTINUOUS
10
75.19
20
-141.68
11
75.99
21
-142.48
0
LINE
8
BLACK
6
CONTINUOUS
10
75.99
20
-141.68
11
75.19
21
-142.48
0
LINE
8
BLACK
6
CONTINUOUS
10
78.98
20
-121.045
11
79.78
21
-121.845
0
LINE
8
BLACK
6
CONTINUOUS
10
79.78
20
-121.045
11
78.98
21
-121.845
0
LINE
8
BLACK
6
CONTINUOUS
10
78.98
20
-123.585
11
79.78
21
-124.385
0
LINE
8
BLACK
6
CONTINUOUS
10
79.78
20
-123.585
11
78.98
21
-124.385
0
LINE
8
BLACK
6
CONTINUOUS
10
78.98
20
-126.125
11
79.78
21
-126.925
0
LINE
8
BLACK
6
CONTINUOUS
10
79.78
20
-126.125
11
78.98
21
-126.925
0
LINE
8
BLACK
6
CONTINUOUS
10
78.98
20
-128.665
11
79.78
21
-129.465
0
LINE
8
BLACK
6
CONTINUOUS
10
79.78
20
-128.665
11
78.98
21
-129.465
0
LINE
8
BLACK
6
CONTINUOUS
10
78.98
20
-131.205
11
79.78
21
-132.005
0
LINE
8
BLACK
6
CONTINUOUS
10
79.78
20
-131.205
11
78.98
21
-132.005
0
LINE
8
BLACK
6
CONTINUOUS
10
78.98
20
-133.745
11
79.78
21
-134.545
0
LINE
8
BLACK
6
CONTINUOUS
10
79.78
20
-133.745
11
78.98
21
-134.545
0
LINE
8
BLACK
6
CONTINUOUS
10
78.98
20
-136.285
11
79.78
21
-137.085
0
LINE
8
BLACK
6
CONTINUOUS
10
79.78
20
-136.285
11
78.98
21
-137.085
0
LINE
8
BLACK
6
CONTINUOUS
10
86.6
20
-121.045
11
87.4
21
-121.845
0
LINE
8
BLACK
6
CONTINUOUS
10
87.4
20
-121.045
11
86.6
21
-121.845
0
LINE
8
BLACK
6
CONTINUOUS
10
86.6
20
-123.585
11
87.4
21
-124.385
0
LINE
8
BLACK
6
CONTINUOUS
10
87.4
20
-123.585
11
86.6
21
-124.385
0
LINE
8
BLACK
6
CONTINUOUS
10
86.6
20
-126.125
11
87.4
21
-126.925
0
LINE
8
BLACK
6
CONTINUOUS
10
87.4
20
-126.125
11
86.6
21
-126.925
0
LINE
8
BLACK
6
CONTINUOUS
10
86.6
20
-128.665
11
87.4
21
-129.465
0
LINE
8
BLACK
6
CONTINUOUS
10
87.4
20
-128.665
11
86.6
21
-129.465
0
LINE
8
BLACK
6
CONTINUOUS
10
86.6
20
-131.205
11
87.4
21
-132.005
0
LINE
8
BLACK
6
CONTINUOUS
10
87.4
20
-131.205
11
86.6
21
-132.005
0
LINE
8
BLACK
6
CONTINUOUS
10
86.6
20
-133.745
11
87.4
21
-134.545
0
LINE
8
BLACK
6
CONTINUOUS
10
87.4
20
-133.745
11
86.6
21
-134.545
0
LINE
8
BLACK
6
CONTINUOUS
10
86.6
20
-136.285
11
87.4
21
-137.085
0
LINE
8
BLACK
6
CONTINUOUS
10
87.4
20
-136.285
11
86.6
21
-137.085
0
LINE
8
BLACK
6
CONTINUOUS
10
78.775
20
-91.04
11
79.575
21
-91.84
0
LINE
8
BLACK
6
CONTINUOUS
10
79.575
20
-91.04
11
78.775
21
-91.84
0
LINE
8
BLACK
6
CONTINUOUS
10
78.775
20
-101.2
11
79.575
21
-102
0
LINE
8
BLACK
6
CONTINUOUS
10
79.575
20
-101.2
11
78.775
21
-102
0
LINE
8
BLACK
6
CONTINUOUS
10
134.855
20
-84.69
11
135.655
21
-85.49
0
LINE
8
BLACK
6
CONTINUOUS
10
135.655
20
-84.69
11
134.855
21
-85.49
0
LINE
8
BLACK
6
CONTINUOUS
10
134.855
20
-88.49
11
135.655
21
-89.29
0
LINE
8
BLACK
6
CONTINUOUS
10
135.655
20
-88.49
11
134.855
21
-89.29
0
LINE
8
BLACK
6
CONTINUOUS
10
107.55
20
-117.71
11
108.35
21
-118.51
0
LINE
8
BLACK
6
CONTINUOUS
10
108.35
20
-117.71
11
107.55
21
-118.51
0
LINE
8
BLACK
6
CONTINUOUS
10
110.05
20
-117.71
11
110.85
21
-118.51
0
LINE
8
BLACK
6
CONTINUOUS
10
110.85
20
-117.71
11
110.05
21
-118.51
0
LINE
8
BLACK
6
CONTINUOUS
10
103.895
20
-74.53
11
104.695
21
-75.33
0
LINE
8
BLACK
6
CONTINUOUS
10
104.695
20
-74.53
11
103.895
21
-75.33
0
LINE
8
BLACK
6
CONTINUOUS
10
107.395
20
-74.53
11
108.195
21
-75.33
0
LINE
8
BLACK
6
CONTINUOUS
10
108.195
20
-74.53
11
107.395
21
-75.33
0
CIRCLE
8
BLACK
10
112.485
20
-67.225
40
0.5
0
CIRCLE
8
BLACK
10
115.025
20
-67.225
40
0.5
0
CIRCLE
8
BLACK
10
117.565
20
-67.225
40
0.5
0
CIRCLE
8
BLACK
10
120.105
20
-67.225
40
0.5
0
CIRCLE
8
BLACK
10
122.645
20
-67.225
40
0.5
0
CIRCLE
8
BLACK
10
125.185
20
-67.225
40
0.5
0
CIRCLE
8
BLACK
10
127.725
20
-67.225
40
0.5
0
CIRCLE
8
BLACK
10
130.265
20
-67.225
40
0.5
0
CIRCLE
8
BLACK
10
69.08
20
-87.39
40
0.5
0
CIRCLE
8
BLACK
10
71.62
20
-87.39
40
0.5
0
CIRCLE
8
BLACK
10
74.16
20
-87.39
40
0.5
0
CIRCLE
8
BLACK
10
76.7
20
-87.39
40
0.5
0
CIRCLE
8
BLACK
10
79.24
20
-87.39
40
0.5
0
CIRCLE
8
BLACK
10
79.4
20
-142.08
40
0.5
0
CIRCLE
8
BLACK
10
85.725
20
-73.66
40
0.5
0
CIRCLE
8
BLACK
10
85.725
20
-76.2
40
0.5
0
CIRCLE
8
BLACK
10
85.725
20
-78.74
40
0.5
0
CIRCLE
8
BLACK
10
112.485
20
-55.16
40
0.5
0
CIRCLE
8
BLACK
10
115.025
20
-55.16
40
0.5
0
CIRCLE
8
BLACK
10
117.565
20
-55.16
40
0.5
0
CIRCLE
8
BLACK
10
120.105
20
-55.16
40
0.5
0
CIRCLE
8
BLACK
10
122.645
20
-55.16
40
0.5
0
CIRCLE
8
BLACK
10
125.185
20
-55.16
40
0.5
0
CIRCLE
8
BLACK
10
127.725
20
-55.16
40
0.5
0
CIRCLE
8
BLACK
10
130.265
20
-55.16
40
0.5
0
CIRCLE
8
BLACK
10
96.52
20
-88.315
40
0.5
0
CIRCLE
8
BLACK
10
96.52
20
-90.855
40
0.5
0
CIRCLE
8
BLACK
10
96.52
20
-93.395
40
0.5
0
CIRCLE
8
BLACK
10
96.52
20
-95.935
40
0.5
0
CIRCLE
8
BLACK
10
96.52
20
-98.475
40
0.5
0
CIRCLE
8
BLACK
10
96.52
20
-101.015
40
0.5
0
CIRCLE
8
BLACK
10
96.52
20
-103.555
40
0.5
0
CIRCLE
8
BLACK
10
96.52
20
-106.095
40
0.5
0
CIRCLE
8
BLACK
10
96.52
20
-108.635
40
0.5
0
CIRCLE
8
BLACK
10
96.52
20
-111.175
40
0.5
0
CIRCLE
8
BLACK
10
96.52
20
-113.715
40
0.5
0
CIRCLE
8
BLACK
10
96.52
20
-116.255
40
0.5
0
CIRCLE
8
BLACK
10
96.52
20
-118.795
40
0.5
0
CIRCLE
8
BLACK
10
96.52
20
-121.335
40
0.5
0
CIRCLE
8
BLACK
10
96.52
20
-123.875
40
0.5
0
CIRCLE
8
BLACK
10
96.52
20
-126.415
40
0.5
0
CIRCLE
8
BLACK
10
96.52
20
-128.955
40
0.5
0
CIRCLE
8
BLACK
10
96.52
20
-131.495
40
0.5
0
CIRCLE
8
BLACK
10
96.52
20
-134.035
40
0.5
0
CIRCLE
8
BLACK
10
96.52
20
-136.575
40
0.5
0
CIRCLE
8
BLACK
10
114.3
20
-88.315
40
0.5
0
CIRCLE
8
BLACK
10
114.3
20
-90.855
40
0.5
0
CIRCLE
8
BLACK
10
114.3
20
-93.395
40
0.5
0
CIRCLE
8
BLACK
10
114.3
20
-95.935
40
0.5
0
CIRCLE
8
BLACK
10
114.3
20
-98.475
40
0.5
0
CIRCLE
8
BLACK
10
114.3
20
-101.015
40
0.5
0
CIRCLE
8
BLACK
10
114.3
20
-103.555
40
0.5
0
CIRCLE
8
BLACK
10
114.3
20
-106.095
40
0.5
0
CIRCLE
8
BLACK
10
114.3
20
-108.635
40
0.5
0
CIRCLE
8
BLACK
10
114.3
20
-111.175
40
0.5
0
CIRCLE
8
BLACK
10
114.3
20
-113.715
40
0.5
0
CIRCLE
8
BLACK
10
114.3
20
-116.255
40
0.5
0
CIRCLE
8
BLACK
10
114.3
20
-118.795
40
0.5
0
CIRCLE
8
BLACK
10
114.3
20
-121.335
40
0.5
0
CIRCLE
8
BLACK
10
114.3
20
-123.875
40
0.5
0
CIRCLE
8
BLACK
10
114.3
20
-126.415
40
0.5
0
CIRCLE
8
BLACK
10
114.3
20
-128.955
40
0.5
0
CIRCLE
8
BLACK
10
114.3
20
-131.495
40
0.5
0
CIRCLE
8
BLACK
10
114.3
20
-134.035
40
0.5
0
CIRCLE
8
BLACK
10
114.3
20
-136.575
40
0.5
0
CIRCLE
8
BLACK
10
112.485
20
-58.97
40
0.5
0
CIRCLE
8
BLACK
10
115.025
20
-58.97
40
0.5
0
CIRCLE
8
BLACK
10
117.565
20
-58.97
40
0.5
0
CIRCLE
8
BLACK
10
120.105
20
-58.97
40
0.5
0
CIRCLE
8
BLACK
10
122.645
20
-58.97
40
0.5
0
CIRCLE
8
BLACK
10
125.185
20
-58.97
40
0.5
0
CIRCLE
8
BLACK
10
127.725
20
-58.97
40
0.5
0
CIRCLE
8
BLACK
10
130.265
20
-58.97
40
0.5
0
CIRCLE
8
BLACK
10
118.5
20
-101.092
40
0.5
0
CIRCLE
8
BLACK
10
118.5
20
-103.632
40
0.5
0
CIRCLE
8
BLACK
10
118.5
20
-106.172
40
0.5
0
CIRCLE
8
BLACK
10
118.5
20
-108.712
40
0.5
0
CIRCLE
8
BLACK
10
118.5
20
-111.252
40
0.5
0
CIRCLE
8
BLACK
10
71
20
-122.785
40
0.5
0
CIRCLE
8
BLACK
10
71
20
-125.325
40
0.5
0
CIRCLE
8
BLACK
10
71
20
-127.865
40
0.5
0
CIRCLE
8
BLACK
10
71
20
-130.405
40
0.5
0
CIRCLE
8
BLACK
10
71
20
-132.945
40
0.5
0
CIRCLE
8
BLACK
10
71
20
-135.485
40
0.5
0
CIRCLE
8
BLACK
10
73.54
20
-122.785
40
0.5
0
CIRCLE
8
BLACK
10
73.54
20
-125.325
40
0.5
0
CIRCLE
8
BLACK
10
73.54
20
-127.865
40
0.5
0
CIRCLE
8
BLACK
10
73.54
20
-130.405
40
0.5
0
CIRCLE
8
BLACK
10
73.54
20
-132.945
40
0.5
0
CIRCLE
8
BLACK
10
73.54
20
-135.485
40
0.5
0
CIRCLE
8
BLACK
10
83.82
20
-142.24
40
0.5
0
CIRCLE
8
BLACK
10
138.43
20
-125.095
40
0.5
0
CIRCLE
8
BLACK
10
140.97
20
-125.095
40
0.5
0
CIRCLE
8
BLACK
10
90.625
20
-73.66
40
0.5
0
CIRCLE
8
BLACK
10
90.625
20
-76.2
40
0.5
0
CIRCLE
8
BLACK
10
90.625
20
-78.74
40
0.5
0
CIRCLE
8
BLACK
10
68.961
20
-78.74
40
0.5
0
CIRCLE
8
BLACK
10
71.501
20
-78.74
40
0.5
0
CIRCLE
8
BLACK
10
74.041
20
-78.74
40
0.5
0
CIRCLE
8
BLACK
10
76.581
20
-78.74
40
0.5
0
CIRCLE
8
BLACK
10
79.121
20
-78.74
40
0.5
0
CIRCLE
8
BLACK
10
61.395
20
-110.49
40
0.5
0
CIRCLE
8
BLACK
10
63.935
20
-110.49
40
0.5
0
CIRCLE
8
BLACK
10
66.475
20
-110.49
40
0.5
0
CIRCLE
8
BLACK
10
69.015
20
-110.49
40
0.5
0
CIRCLE
8
BLACK
10
71.555
20
-110.49
40
0.5
0
CIRCLE
8
BLACK
10
74.095
20
-110.49
40
0.5
0
CIRCLE
8
BLACK
10
76.635
20
-110.49
40
0.5
0
CIRCLE
8
BLACK
10
79.175
20
-110.49
40
0.5
0
LINE
8
BLACK
6
CONTINUOUS
10
126
20
-117.967
11
126
21
-119.033
0
LINE
8
BLACK
6
CONTINUOUS
10
125.467
20
-118.5
11
126.533
21
-118.5
0
LINE
8
BLACK
6
CONTINUOUS
10
131
20
-97.9666
11
131
21
-99.0334
0
LINE
8
BLACK
6
CONTINUOUS
10
130.467
20
-98.5
11
131.533
21
-98.5
0
LINE
8
BLACK
6
CONTINUOUS
10
141
20
-97.9666
11
141
21
-99.0334
0
LINE
8
BLACK
6
CONTINUOUS
10
140.467
20
-98.5
11
141.533
21
-98.5
0
LINE
8
BLACK
6
CONTINUOUS
10
146
20
-117.967
11
146
21
-119.033
0
LINE
8
BLACK
6
CONTINUOUS
10
145.467
20
-118.5
11
146.533
21
-118.5
0
LINE
8
BLACK
6
CONTINUOUS
10
61.6379
20
-88.0539
11
61.6379
21
-87.2061
0
LINE
8
BLACK
6
CONTINUOUS
10
61.6379
20
-87.2061
11
60.7901
21
-87.2061
0
LINE
8
BLACK
6
CONTINUOUS
10
60.7901
20
-87.2061
11
60.7901
21
-88.0539
0
LINE
8
BLACK
6
CONTINUOUS
10
60.7901
20
-88.0539
11
61.6379
21
-88.0539
0
LINE
8
BLACK
6
CONTINUOUS
10
65.4479
20
-88.0539
11
65.4479
21
-87.2061
0
LINE
8
BLACK
6
CONTINUOUS
10
65.4479
20
-87.2061
11
64.6001
21
-87.2061
0
LINE
8
BLACK
6
CONTINUOUS
10
64.6001
20
-87.2061
11
64.6001
21
-88.0539
0
LINE
8
BLACK
6
CONTINUOUS
10
64.6001
20
-88.0539
11
65.4479
21
-88.0539
0
LINE
8
BLACK
6
CONTINUOUS
10
149.225
20
-85.69
11
149.825
21
-85.09
0
LINE
8
BLACK
6
CONTINUOUS
10
149.825
20
-85.09
11
149.225
21
-84.49
0
LINE
8
BLACK
6
CONTINUOUS
10
149.225
20
-84.49
11
148.625
21
-85.09
0
LINE
8
BLACK
6
CONTINUOUS
10
148.625
20
-85.09
11
149.225
21
-85.69
0
LINE
8
BLACK
6
CONTINUOUS
10
149.225
20
-88.23
11
149.825
21
-87.63
0
LINE
8
BLACK
6
CONTINUOUS
10
149.825
20
-87.63
11
149.225
21
-87.03
0
LINE
8
BLACK
6
CONTINUOUS
10
149.225
20
-87.03
11
148.625
21
-87.63
0
LINE
8
BLACK
6
CONTINUOUS
10
148.625
20
-87.63
11
149.225
21
-88.23
0
LINE
8
BLACK
6
CONTINUOUS
10
149.225
20
-90.77
11
149.825
21
-90.17
0
LINE
8
BLACK
6
CONTINUOUS
10
149.825
20
-90.17
11
149.225
21
-89.57
0
LINE
8
BLACK
6
CONTINUOUS
10
149.225
20
-89.57
11
148.625
21
-90.17
0
LINE
8
BLACK
6
CONTINUOUS
10
148.625
20
-90.17
11
149.225
21
-90.77
0
LINE
8
BLACK
6
CONTINUOUS
10
155.575
20
-85.69
11
156.175
21
-85.09
0
LINE
8
BLACK
6
CONTINUOUS
10
156.175
20
-85.09
11
155.575
21
-84.49
0
LINE
8
BLACK
6
CONTINUOUS
10
155.575
20
-84.49
11
154.975
21
-85.09
0
LINE
8
BLACK
6
CONTINUOUS
10
154.975
20
-85.09
11
155.575
21
-85.69
0
LINE
8
BLACK
6
CONTINUOUS
10
155.575
20
-98.39
11
156.175
21
-97.79
0
LINE
8
BLACK
6
CONTINUOUS
10
156.175
20
-97.79
11
155.575
21
-97.19
0
LINE
8
BLACK
6
CONTINUOUS
10
155.575
20
-97.19
11
154.975
21
-97.79
0
LINE
8
BLACK
6
CONTINUOUS
10
154.975
20
-97.79
11
155.575
21
-98.39
0
LINE
8
BLACK
6
CONTINUOUS
10
154.75
20
-117.75
11
156.25
21
-119.25
0
LINE
8
BLACK
6
CONTINUOUS
10
156.25
20
-117.75
11
154.75
21
-119.25
0
CIRCLE
8
BLACK
10
155.5
20
-118.5
40
0.75
0
LINE
8
BLACK
6
CONTINUOUS
10
154.75
20
-124.25
11
156.25
21
-125.75
0
LINE
8
BLACK
6
CONTINUOUS
10
156.25
20
-124.25
11
154.75
21
-125.75
0
CIRCLE
8
BLACK
10
155.5
20
-125
40
0.75
0
LINE
8
BLACK
6
CONTINUOUS
10
154.75
20
-130.75
11
156.25
21
-132.25
0
LINE
8
BLACK
6
CONTINUOUS
10
156.25
20
-130.75
11
154.75
21
-132.25
0
CIRCLE
8
BLACK
10
155.5
20
-131.5
40
0.75
0
LINE
8
BLACK
6
CONTINUOUS
10
125.25
20
-130.75
11
126.75
21
-132.25
0
LINE
8
BLACK
6
CONTINUOUS
10
126.75
20
-130.75
11
125.25
21
-132.25
0
CIRCLE
8
BLACK
10
126
20
-131.5
40
0.75
0
LINE
8
BLACK
6
CONTINUOUS
10
147.85
20
-130.75
11
149.35
21
-132.25
0
LINE
8
BLACK
6
CONTINUOUS
10
149.35
20
-130.75
11
147.85
21
-132.25
0
CIRCLE
8
BLACK
10
148.6
20
-131.5
40
0.75
0
LINE
8
BLACK
6
CONTINUOUS
10
151.4
20
-57.4
11
154.6
21
-60.6
0
LINE
8
BLACK
6
CONTINUOUS
10
154.6
20
-57.4
11
151.4
21
-60.6
0
LINE
8
BLACK
6
CONTINUOUS
10
153
20
-57.4
11
153
21
-60.6
0
LINE
8
BLACK
6
CONTINUOUS
10
151.4
20
-59
11
154.6
21
-59
0
LINE
8
BLACK
6
CONTINUOUS
10
62.4
20
-140.4
11
65.6
21
-143.6
0
LINE
8
BLACK
6
CONTINUOUS
10
65.6
20
-140.4
11
62.4
21
-143.6
0
LINE
8
BLACK
6
CONTINUOUS
10
64
20
-140.4
11
64
21
-143.6
0
LINE
8
BLACK
6
CONTINUOUS
10
62.4
20
-142
11
65.6
21
-142
0
LINE
8
BLACK
6
CONTINUOUS
10
152.4
20
-140.4
11
155.6
21
-143.6
0
LINE
8
BLACK
6
CONTINUOUS
10
155.6
20
-140.4
11
152.4
21
-143.6
0
LINE
8
BLACK
6
CONTINUOUS
10
154
20
-140.4
11
154
21
-143.6
0
LINE
8
BLACK
6
CONTINUOUS
10
152.4
20
-142
11
155.6
21
-142
0
LINE
8
BLACK
6
CONTINUOUS
10
63.4
20
-57.4
11
66.6
21
-60.6
0
LINE
8
BLACK
6
CONTINUOUS
10
66.6
20
-57.4
11
63.4
21
-60.6
0
LINE
8
BLACK
6
CONTINUOUS
10
65
20
-57.4
11
65
21
-60.6
0
LINE
8
BLACK
6
CONTINUOUS
10
63.4
20
-59
11
66.6
21
-59
0
LINE
8
BLACK
6
CONTINUOUS
10
61.8393
20
-151.682
11
61.8393
21
-148.682
0
LINE
8
BLACK
6
CONTINUOUS
10
61.8393
20
-148.682
11
62.5536
21
-148.682
0
LINE
8
BLACK
6
CONTINUOUS
10
62.5536
20
-148.682
11
62.9821
21
-148.825
0
LINE
8
BLACK
6
CONTINUOUS
10
62.9821
20
-148.825
11
63.2679
21
-149.111
0
LINE
8
BLACK
6
CONTINUOUS
10
63.2679
20
-149.111
11
63.4107
21
-149.396
0
LINE
8
BLACK
6
CONTINUOUS
10
63.4107
20
-149.396
11
63.5536
21
-149.968
0
LINE
8
BLACK
6
CONTINUOUS
10
63.5536
20
-149.968
11
63.5536
21
-150.396
0
LINE
8
BLACK
6
CONTINUOUS
10
63.5536
20
-150.396
11
63.4107
21
-150.968
0
LINE
8
BLACK
6
CONTINUOUS
10
63.4107
20
-150.968
11
63.2679
21
-151.254
0
LINE
8
BLACK
6
CONTINUOUS
10
63.2679
20
-151.254
11
62.9821
21
-151.539
0
LINE
8
BLACK
6
CONTINUOUS
10
62.9821
20
-151.539
11
62.5536
21
-151.682
0
LINE
8
BLACK
6
CONTINUOUS
10
62.5536
20
-151.682
11
61.8393
21
-151.682
0
LINE
8
BLACK
6
CONTINUOUS
10
64.8393
20
-151.682
11
64.8393
21
-149.682
0
LINE
8
BLACK
6
CONTINUOUS
10
64.8393
20
-150.254
11
64.9821
21
-149.968
0
LINE
8
BLACK
6
CONTINUOUS
10
64.9821
20
-149.968
11
65.125
21
-149.825
0
LINE
8
BLACK
6
CONTINUOUS
10
65.125
20
-149.825
11
65.4107
21
-149.682
0
LINE
8
BLACK
6
CONTINUOUS
10
65.4107
20
-149.682
11
65.6964
21
-149.682
0
LINE
8
BLACK
6
CONTINUOUS
10
66.6964
20
-151.682
11
66.6964
21
-149.682
0
LINE
8
BLACK
6
CONTINUOUS
10
66.6964
20
-148.682
11
66.5536
21
-148.825
0
LINE
8
BLACK
6
CONTINUOUS
10
66.5536
20
-148.825
11
66.6964
21
-148.968
0
LINE
8
BLACK
6
CONTINUOUS
10
66.6964
20
-148.968
11
66.8393
21
-148.825
0
LINE
8
BLACK
6
CONTINUOUS
10
66.8393
20
-148.825
11
66.6964
21
-148.682
0
LINE
8
BLACK
6
CONTINUOUS
10
66.6964
20
-148.682
11
66.6964
21
-148.968
0
LINE
8
BLACK
6
CONTINUOUS
10
68.5536
20
-151.682
11
68.2679
21
-151.539
0
LINE
8
BLACK
6
CONTINUOUS
10
68.2679
20
-151.539
11
68.125
21
-151.254
0
LINE
8
BLACK
6
CONTINUOUS
10
68.125
20
-151.254
11
68.125
21
-148.682
0
LINE
8
BLACK
6
CONTINUOUS
10
70.125
20
-151.682
11
69.8393
21
-151.539
0
LINE
8
BLACK
6
CONTINUOUS
10
69.8393
20
-151.539
11
69.6964
21
-151.254
0
LINE
8
BLACK
6
CONTINUOUS
10
69.6964
20
-151.254
11
69.6964
21
-148.682
0
LINE
8
BLACK
6
CONTINUOUS
10
73.5536
20
-151.682
11
73.5536
21
-148.682
0
LINE
8
BLACK
6
CONTINUOUS
10
73.5536
20
-148.682
11
74.5536
21
-150.825
0
LINE
8
BLACK
6
CONTINUOUS
10
74.5536
20
-150.825
11
75.5536
21
-148.682
0
LINE
8
BLACK
6
CONTINUOUS
10
75.5536
20
-148.682
11
75.5536
21
-151.682
0
LINE
8
BLACK
6
CONTINUOUS
10
78.2679
20
-151.682
11
78.2679
21
-150.111
0
LINE
8
BLACK
6
CONTINUOUS
10
78.2679
20
-150.111
11
78.125
21
-149.825
0
LINE
8
BLACK
6
CONTINUOUS
10
78.125
20
-149.825
11
77.8393
21
-149.682
0
LINE
8
BLACK
6
CONTINUOUS
10
77.8393
20
-149.682
11
77.2679
21
-149.682
0
LINE
8
BLACK
6
CONTINUOUS
10
77.2679
20
-149.682
11
76.9821
21
-149.825
0
LINE
8
BLACK
6
CONTINUOUS
10
78.2679
20
-151.539
11
77.9821
21
-151.682
0
LINE
8
BLACK
6
CONTINUOUS
10
77.9821
20
-151.682
11
77.2679
21
-151.682
0
LINE
8
BLACK
6
CONTINUOUS
10
77.2679
20
-151.682
11
76.9821
21
-151.539
0
LINE
8
BLACK
6
CONTINUOUS
10
76.9821
20
-151.539
11
76.8393
21
-151.254
0
LINE
8
BLACK
6
CONTINUOUS
10
76.8393
20
-151.254
11
76.8393
21
-150.968
0
LINE
8
BLACK
6
CONTINUOUS
10
76.8393
20
-150.968
11
76.9821
21
-150.682
0
LINE
8
BLACK
6
CONTINUOUS
10
76.9821
20
-150.682
11
77.2679
21
-150.539
0
LINE
8
BLACK
6
CONTINUOUS
10
77.2679
20
-150.539
11
77.9821
21
-150.539
0
LINE
8
BLACK
6
CONTINUOUS
10
77.9821
20
-150.539
11
78.2679
21
-150.396
0
LINE
8
BLACK
6
CONTINUOUS
10
79.6964
20
-149.682
11
79.6964
21
-152.682
0
LINE
8
BLACK
6
CONTINUOUS
10
79.6964
20
-149.825
11
79.9821
21
-149.682
0
LINE
8
BLACK
6
CONTINUOUS
10
79.9821
20
-149.682
11
80.5536
21
-149.682
0
LINE
8
BLACK
6
CONTINUOUS
10
80.5536
20
-149.682
11
80.8393
21
-149.825
0
LINE
8
BLACK
6
CONTINUOUS
10
80.8393
20
-149.825
11
80.9821
21
-149.968
0
LINE
8
BLACK
6
CONTINUOUS
10
80.9821
20
-149.968
11
81.125
21
-150.254
0
LINE
8
BLACK
6
CONTINUOUS
10
81.125
20
-150.254
11
81.125
21
-151.111
0
LINE
8
BLACK
6
CONTINUOUS
10
81.125
20
-151.111
11
80.9821
21
-151.396
0
LINE
8
BLACK
6
CONTINUOUS
10
80.9821
20
-151.396
11
80.8393
21
-151.539
0
LINE
8
BLACK
6
CONTINUOUS
10
80.8393
20
-151.539
11
80.5536
21
-151.682
0
LINE
8
BLACK
6
CONTINUOUS
10
80.5536
20
-151.682
11
79.9821
21
-151.682
0
LINE
8
BLACK
6
CONTINUOUS
10
79.9821
20
-151.682
11
79.6964
21
-151.539
0
LINE
8
BLACK
6
CONTINUOUS
10
82.4107
20
-151.396
11
82.5536
21
-151.539
0
LINE
8
BLACK
6
CONTINUOUS
10
82.5536
20
-151.539
11
82.4107
21
-151.682
0
LINE
8
BLACK
6
CONTINUOUS
10
82.4107
20
-151.682
11
82.2679
21
-151.539
0
LINE
8
BLACK
6
CONTINUOUS
10
82.2679
20
-151.539
11
82.4107
21
-151.396
0
LINE
8
BLACK
6
CONTINUOUS
10
82.4107
20
-151.396
11
82.4107
21
-151.682
0
LINE
8
BLACK
6
CONTINUOUS
10
82.4107
20
-149.825
11
82.5536
21
-149.968
0
LINE
8
BLACK
6
CONTINUOUS
10
82.5536
20
-149.968
11
82.4107
21
-150.111
0
LINE
8
BLACK
6
CONTINUOUS
10
82.4107
20
-150.111
11
82.2679
21
-149.968
0
LINE
8
BLACK
6
CONTINUOUS
10
82.2679
20
-149.968
11
82.4107
21
-149.825
0
LINE
8
BLACK
6
CONTINUOUS
10
82.4107
20
-149.825
11
82.4107
21
-150.111
0
LINE
8
BLACK
6
CONTINUOUS
10
58.175
20
-156.225
11
58.975
21
-157.025
0
LINE
8
BLACK
6
CONTINUOUS
10
58.975
20
-156.225
11
58.175
21
-157.025
0
LINE
8
BLACK
6
CONTINUOUS
10
62.4107
20
-154.982
11
62.6964
21
-154.982
0
LINE
8
BLACK
6
CONTINUOUS
10
62.6964
20
-154.982
11
62.9821
21
-155.125
0
LINE
8
BLACK
6
CONTINUOUS
10
62.9821
20
-155.125
11
63.125
21
-155.268
0
LINE
8
BLACK
6
CONTINUOUS
10
63.125
20
-155.268
11
63.2679
21
-155.554
0
LINE
8
BLACK
6
CONTINUOUS
10
63.2679
20
-155.554
11
63.4107
21
-156.125
0
LINE
8
BLACK
6
CONTINUOUS
10
63.4107
20
-156.125
11
63.4107
21
-156.839
0
LINE
8
BLACK
6
CONTINUOUS
10
63.4107
20
-156.839
11
63.2679
21
-157.411
0
LINE
8
BLACK
6
CONTINUOUS
10
63.2679
20
-157.411
11
63.125
21
-157.696
0
LINE
8
BLACK
6
CONTINUOUS
10
63.125
20
-157.696
11
62.9821
21
-157.839
0
LINE
8
BLACK
6
CONTINUOUS
10
62.9821
20
-157.839
11
62.6964
21
-157.982
0
LINE
8
BLACK
6
CONTINUOUS
10
62.6964
20
-157.982
11
62.4107
21
-157.982
0
LINE
8
BLACK
6
CONTINUOUS
10
62.4107
20
-157.982
11
62.125
21
-157.839
0
LINE
8
BLACK
6
CONTINUOUS
10
62.125
20
-157.839
11
61.9821
21
-157.696
0
LINE
8
BLACK
6
CONTINUOUS
10
61.9821
20
-157.696
11
61.8393
21
-157.411
0
LINE
8
BLACK
6
CONTINUOUS
10
61.8393
20
-157.411
11
61.6964
21
-156.839
0
LINE
8
BLACK
6
CONTINUOUS
10
61.6964
20
-156.839
11
61.6964
21
-156.125
0
LINE
8
BLACK
6
CONTINUOUS
10
61.6964
20
-156.125
11
61.8393
21
-155.554
0
LINE
8
BLACK
6
CONTINUOUS
10
61.8393
20
-155.554
11
61.9821
21
-155.268
0
LINE
8
BLACK
6
CONTINUOUS
10
61.9821
20
-155.268
11
62.125
21
-155.125
0
LINE
8
BLACK
6
CONTINUOUS
10
62.125
20
-155.125
11
62.4107
21
-154.982
0
LINE
8
BLACK
6
CONTINUOUS
10
64.6964
20
-157.696
11
64.8393
21
-157.839
0
LINE
8
BLACK
6
CONTINUOUS
10
64.8393
20
-157.839
11
64.6964
21
-157.982
0
LINE
8
BLACK
6
CONTINUOUS
10
64.6964
20
-157.982
11
64.5536
21
-157.839
0
LINE
8
BLACK
6
CONTINUOUS
10
64.5536
20
-157.839
11
64.6964
21
-157.696
0
LINE
8
BLACK
6
CONTINUOUS
10
64.6964
20
-157.696
11
64.6964
21
-157.982
0
LINE
8
BLACK
6
CONTINUOUS
10
66.5536
20
-156.268
11
66.2679
21
-156.125
0
LINE
8
BLACK
6
CONTINUOUS
10
66.2679
20
-156.125
11
66.125
21
-155.982
0
LINE
8
BLACK
6
CONTINUOUS
10
66.125
20
-155.982
11
65.9821
21
-155.696
0
LINE
8
BLACK
6
CONTINUOUS
10
65.9821
20
-155.696
11
65.9821
21
-155.554
0
LINE
8
BLACK
6
CONTINUOUS
10
65.9821
20
-155.554
11
66.125
21
-155.268
0
LINE
8
BLACK
6
CONTINUOUS
10
66.125
20
-155.268
11
66.2679
21
-155.125
0
LINE
8
BLACK
6
CONTINUOUS
10
66.2679
20
-155.125
11
66.5536
21
-154.982
0
LINE
8
BLACK
6
CONTINUOUS
10
66.5536
20
-154.982
11
67.125
21
-154.982
0
LINE
8
BLACK
6
CONTINUOUS
10
67.125
20
-154.982
11
67.4107
21
-155.125
0
LINE
8
BLACK
6
CONTINUOUS
10
67.4107
20
-155.125
11
67.5536
21
-155.268
0
LINE
8
BLACK
6
CONTINUOUS
10
67.5536
20
-155.268
11
67.6964
21
-155.554
0
LINE
8
BLACK
6
CONTINUOUS
10
67.6964
20
-155.554
11
67.6964
21
-155.696
0
LINE
8
BLACK
6
CONTINUOUS
10
67.6964
20
-155.696
11
67.5536
21
-155.982
0
LINE
8
BLACK
6
CONTINUOUS
10
67.5536
20
-155.982
11
67.4107
21
-156.125
0
LINE
8
BLACK
6
CONTINUOUS
10
67.4107
20
-156.125
11
67.125
21
-156.268
0
LINE
8
BLACK
6
CONTINUOUS
10
67.125
20
-156.268
11
66.5536
21
-156.268
0
LINE
8
BLACK
6
CONTINUOUS
10
66.5536
20
-156.268
11
66.2679
21
-156.411
0
LINE
8
BLACK
6
CONTINUOUS
10
66.2679
20
-156.411
11
66.125
21
-156.554
0
LINE
8
BLACK
6
CONTINUOUS
10
66.125
20
-156.554
11
65.9821
21
-156.839
0
LINE
8
BLACK
6
CONTINUOUS
10
65.9821
20
-156.839
11
65.9821
21
-157.411
0
LINE
8
BLACK
6
CONTINUOUS
10
65.9821
20
-157.411
11
66.125
21
-157.696
0
LINE
8
BLACK
6
CONTINUOUS
10
66.125
20
-157.696
11
66.2679
21
-157.839
0
LINE
8
BLACK
6
CONTINUOUS
10
66.2679
20
-157.839
11
66.5536
21
-157.982
0
LINE
8
BLACK
6
CONTINUOUS
10
66.5536
20
-157.982
11
67.125
21
-157.982
0
LINE
8
BLACK
6
CONTINUOUS
10
67.125
20
-157.982
11
67.4107
21
-157.839
0
LINE
8
BLACK
6
CONTINUOUS
10
67.4107
20
-157.839
11
67.5536
21
-157.696
0
LINE
8
BLACK
6
CONTINUOUS
10
67.5536
20
-157.696
11
67.6964
21
-157.411
0
LINE
8
BLACK
6
CONTINUOUS
10
67.6964
20
-157.411
11
67.6964
21
-156.839
0
LINE
8
BLACK
6
CONTINUOUS
10
67.6964
20
-156.839
11
67.5536
21
-156.554
0
LINE
8
BLACK
6
CONTINUOUS
10
67.5536
20
-156.554
11
67.4107
21
-156.411
0
LINE
8
BLACK
6
CONTINUOUS
10
67.4107
20
-156.411
11
67.125
21
-156.268
0
LINE
8
BLACK
6
CONTINUOUS
10
69.5536
20
-154.982
11
69.8393
21
-154.982
0
LINE
8
BLACK
6
CONTINUOUS
10
69.8393
20
-154.982
11
70.125
21
-155.125
0
LINE
8
BLACK
6
CONTINUOUS
10
70.125
20
-155.125
11
70.2679
21
-155.268
0
LINE
8
BLACK
6
CONTINUOUS
10
70.2679
20
-155.268
11
70.4107
21
-155.554
0
LINE
8
BLACK
6
CONTINUOUS
10
70.4107
20
-155.554
11
70.5536
21
-156.125
0
LINE
8
BLACK
6
CONTINUOUS
10
70.5536
20
-156.125
11
70.5536
21
-156.839
0
LINE
8
BLACK
6
CONTINUOUS
10
70.5536
20
-156.839
11
70.4107
21
-157.411
0
LINE
8
BLACK
6
CONTINUOUS
10
70.4107
20
-157.411
11
70.2679
21
-157.696
0
LINE
8
BLACK
6
CONTINUOUS
10
70.2679
20
-157.696
11
70.125
21
-157.839
0
LINE
8
BLACK
6
CONTINUOUS
10
70.125
20
-157.839
11
69.8393
21
-157.982
0
LINE
8
BLACK
6
CONTINUOUS
10
69.8393
20
-157.982
11
69.5536
21
-157.982
0
LINE
8
BLACK
6
CONTINUOUS
10
69.5536
20
-157.982
11
69.2679
21
-157.839
0
LINE
8
BLACK
6
CONTINUOUS
10
69.2679
20
-157.839
11
69.125
21
-157.696
0
LINE
8
BLACK
6
CONTINUOUS
10
69.125
20
-157.696
11
68.9821
21
-157.411
0
LINE
8
BLACK
6
CONTINUOUS
10
68.9821
20
-157.411
11
68.8393
21
-156.839
0
LINE
8
BLACK
6
CONTINUOUS
10
68.8393
20
-156.839
11
68.8393
21
-156.125
0
LINE
8
BLACK
6
CONTINUOUS
10
68.8393
20
-156.125
11
68.9821
21
-155.554
0
LINE
8
BLACK
6
CONTINUOUS
10
68.9821
20
-155.554
11
69.125
21
-155.268
0
LINE
8
BLACK
6
CONTINUOUS
10
69.125
20
-155.268
11
69.2679
21
-155.125
0
LINE
8
BLACK
6
CONTINUOUS
10
69.2679
20
-155.125
11
69.5536
21
-154.982
0
LINE
8
BLACK
6
CONTINUOUS
10
71.8393
20
-157.982
11
71.8393
21
-155.982
0
LINE
8
BLACK
6
CONTINUOUS
10
71.8393
20
-156.268
11
71.9821
21
-156.125
0
LINE
8
BLACK
6
CONTINUOUS
10
71.9821
20
-156.125
11
72.2679
21
-155.982
0
LINE
8
BLACK
6
CONTINUOUS
10
72.2679
20
-155.982
11
72.6964
21
-155.982
0
LINE
8
BLACK
6
CONTINUOUS
10
72.6964
20
-155.982
11
72.9821
21
-156.125
0
LINE
8
BLACK
6
CONTINUOUS
10
72.9821
20
-156.125
11
73.125
21
-156.411
0
LINE
8
BLACK
6
CONTINUOUS
10
73.125
20
-156.411
11
73.125
21
-157.982
0
LINE
8
BLACK
6
CONTINUOUS
10
73.125
20
-156.411
11
73.2679
21
-156.125
0
LINE
8
BLACK
6
CONTINUOUS
10
73.2679
20
-156.125
11
73.5536
21
-155.982
0
LINE
8
BLACK
6
CONTINUOUS
10
73.5536
20
-155.982
11
73.9821
21
-155.982
0
LINE
8
BLACK
6
CONTINUOUS
10
73.9821
20
-155.982
11
74.2679
21
-156.125
0
LINE
8
BLACK
6
CONTINUOUS
10
74.2679
20
-156.125
11
74.4107
21
-156.411
0
LINE
8
BLACK
6
CONTINUOUS
10
74.4107
20
-156.411
11
74.4107
21
-157.982
0
LINE
8
BLACK
6
CONTINUOUS
10
75.8393
20
-157.982
11
75.8393
21
-155.982
0
LINE
8
BLACK
6
CONTINUOUS
10
75.8393
20
-156.268
11
75.9821
21
-156.125
0
LINE
8
BLACK
6
CONTINUOUS
10
75.9821
20
-156.125
11
76.2679
21
-155.982
0
LINE
8
BLACK
6
CONTINUOUS
10
76.2679
20
-155.982
11
76.6964
21
-155.982
0
LINE
8
BLACK
6
CONTINUOUS
10
76.6964
20
-155.982
11
76.9821
21
-156.125
0
LINE
8
BLACK
6
CONTINUOUS
10
76.9821
20
-156.125
11
77.125
21
-156.411
0
LINE
8
BLACK
6
CONTINUOUS
10
77.125
20
-156.411
11
77.125
21
-157.982
0
LINE
8
BLACK
6
CONTINUOUS
10
77.125
20
-156.411
11
77.2679
21
-156.125
0
LINE
8
BLACK
6
CONTINUOUS
10
77.2679
20
-156.125
11
77.5536
21
-155.982
0
LINE
8
BLACK
6
CONTINUOUS
10
77.5536
20
-155.982
11
77.9821
21
-155.982
0
LINE
8
BLACK
6
CONTINUOUS
10
77.9821
20
-155.982
11
78.2679
21
-156.125
0
LINE
8
BLACK
6
CONTINUOUS
10
78.2679
20
-156.125
11
78.4107
21
-156.411
0
LINE
8
BLACK
6
CONTINUOUS
10
78.4107
20
-156.411
11
78.4107
21
-157.982
0
LINE
8
BLACK
6
CONTINUOUS
10
84.2679
20
-154.839
11
81.6964
21
-158.696
0
LINE
8
BLACK
6
CONTINUOUS
10
88.125
20
-154.982
11
88.4107
21
-154.982
0
LINE
8
BLACK
6
CONTINUOUS
10
88.4107
20
-154.982
11
88.6964
21
-155.125
0
LINE
8
BLACK
6
CONTINUOUS
10
88.6964
20
-155.125
11
88.8393
21
-155.268
0
LINE
8
BLACK
6
CONTINUOUS
10
88.8393
20
-155.268
11
88.9821
21
-155.554
0
LINE
8
BLACK
6
CONTINUOUS
10
88.9821
20
-155.554
11
89.125
21
-156.125
0
LINE
8
BLACK
6
CONTINUOUS
10
89.125
20
-156.125
11
89.125
21
-156.839
0
LINE
8
BLACK
6
CONTINUOUS
10
89.125
20
-156.839
11
88.9821
21
-157.411
0
LINE
8
BLACK
6
CONTINUOUS
10
88.9821
20
-157.411
11
88.8393
21
-157.696
0
LINE
8
BLACK
6
CONTINUOUS
10
88.8393
20
-157.696
11
88.6964
21
-157.839
0
LINE
8
BLACK
6
CONTINUOUS
10
88.6964
20
-157.839
11
88.4107
21
-157.982
0
LINE
8
BLACK
6
CONTINUOUS
10
88.4107
20
-157.982
11
88.125
21
-157.982
0
LINE
8
BLACK
6
CONTINUOUS
10
88.125
20
-157.982
11
87.8393
21
-157.839
0
LINE
8
BLACK
6
CONTINUOUS
10
87.8393
20
-157.839
11
87.6964
21
-157.696
0
LINE
8
BLACK
6
CONTINUOUS
10
87.6964
20
-157.696
11
87.5536
21
-157.411
0
LINE
8
BLACK
6
CONTINUOUS
10
87.5536
20
-157.411
11
87.4107
21
-156.839
0
LINE
8
BLACK
6
CONTINUOUS
10
87.4107
20
-156.839
11
87.4107
21
-156.125
0
LINE
8
BLACK
6
CONTINUOUS
10
87.4107
20
-156.125
11
87.5536
21
-155.554
0
LINE
8
BLACK
6
CONTINUOUS
10
87.5536
20
-155.554
11
87.6964
21
-155.268
0
LINE
8
BLACK
6
CONTINUOUS
10
87.6964
20
-155.268
11
87.8393
21
-155.125
0
LINE
8
BLACK
6
CONTINUOUS
10
87.8393
20
-155.125
11
88.125
21
-154.982
0
LINE
8
BLACK
6
CONTINUOUS
10
90.4107
20
-157.696
11
90.5536
21
-157.839
0
LINE
8
BLACK
6
CONTINUOUS
10
90.5536
20
-157.839
11
90.4107
21
-157.982
0
LINE
8
BLACK
6
CONTINUOUS
10
90.4107
20
-157.982
11
90.2679
21
-157.839
0
LINE
8
BLACK
6
CONTINUOUS
10
90.2679
20
-157.839
11
90.4107
21
-157.696
0
LINE
8
BLACK
6
CONTINUOUS
10
90.4107
20
-157.696
11
90.4107
21
-157.982
0
LINE
8
BLACK
6
CONTINUOUS
10
92.4107
20
-154.982
11
92.6964
21
-154.982
0
LINE
8
BLACK
6
CONTINUOUS
10
92.6964
20
-154.982
11
92.9821
21
-155.125
0
LINE
8
BLACK
6
CONTINUOUS
10
92.9821
20
-155.125
11
93.125
21
-155.268
0
LINE
8
BLACK
6
CONTINUOUS
10
93.125
20
-155.268
11
93.2679
21
-155.554
0
LINE
8
BLACK
6
CONTINUOUS
10
93.2679
20
-155.554
11
93.4107
21
-156.125
0
LINE
8
BLACK
6
CONTINUOUS
10
93.4107
20
-156.125
11
93.4107
21
-156.839
0
LINE
8
BLACK
6
CONTINUOUS
10
93.4107
20
-156.839
11
93.2679
21
-157.411
0
LINE
8
BLACK
6
CONTINUOUS
10
93.2679
20
-157.411
11
93.125
21
-157.696
0
LINE
8
BLACK
6
CONTINUOUS
10
93.125
20
-157.696
11
92.9821
21
-157.839
0
LINE
8
BLACK
6
CONTINUOUS
10
92.9821
20
-157.839
11
92.6964
21
-157.982
0
LINE
8
BLACK
6
CONTINUOUS
10
92.6964
20
-157.982
11
92.4107
21
-157.982
0
LINE
8
BLACK
6
CONTINUOUS
10
92.4107
20
-157.982
11
92.125
21
-157.839
0
LINE
8
BLACK
6
CONTINUOUS
10
92.125
20
-157.839
11
91.9821
21
-157.696
0
LINE
8
BLACK
6
CONTINUOUS
10
91.9821
20
-157.696
11
91.8393
21
-157.411
0
LINE
8
BLACK
6
CONTINUOUS
10
91.8393
20
-157.411
11
91.6964
21
-156.839
0
LINE
8
BLACK
6
CONTINUOUS
10
91.6964
20
-156.839
11
91.6964
21
-156.125
0
LINE
8
BLACK
6
CONTINUOUS
10
91.6964
20
-156.125
11
91.8393
21
-155.554
0
LINE
8
BLACK
6
CONTINUOUS
10
91.8393
20
-155.554
11
91.9821
21
-155.268
0
LINE
8
BLACK
6
CONTINUOUS
10
91.9821
20
-155.268
11
92.125
21
-155.125
0
LINE
8
BLACK
6
CONTINUOUS
10
92.125
20
-155.125
11
92.4107
21
-154.982
0
LINE
8
BLACK
6
CONTINUOUS
10
94.4107
20
-154.982
11
96.2679
21
-154.982
0
LINE
8
BLACK
6
CONTINUOUS
10
96.2679
20
-154.982
11
95.2679
21
-156.125
0
LINE
8
BLACK
6
CONTINUOUS
10
95.2679
20
-156.125
11
95.6964
21
-156.125
0
LINE
8
BLACK
6
CONTINUOUS
10
95.6964
20
-156.125
11
95.9821
21
-156.268
0
LINE
8
BLACK
6
CONTINUOUS
10
95.9821
20
-156.268
11
96.125
21
-156.411
0
LINE
8
BLACK
6
CONTINUOUS
10
96.125
20
-156.411
11
96.2679
21
-156.696
0
LINE
8
BLACK
6
CONTINUOUS
10
96.2679
20
-156.696
11
96.2679
21
-157.411
0
LINE
8
BLACK
6
CONTINUOUS
10
96.2679
20
-157.411
11
96.125
21
-157.696
0
LINE
8
BLACK
6
CONTINUOUS
10
96.125
20
-157.696
11
95.9821
21
-157.839
0
LINE
8
BLACK
6
CONTINUOUS
10
95.9821
20
-157.839
11
95.6964
21
-157.982
0
LINE
8
BLACK
6
CONTINUOUS
10
95.6964
20
-157.982
11
94.8393
21
-157.982
0
LINE
8
BLACK
6
CONTINUOUS
10
94.8393
20
-157.982
11
94.5536
21
-157.839
0
LINE
8
BLACK
6
CONTINUOUS
10
94.5536
20
-157.839
11
94.4107
21
-157.696
0
LINE
8
BLACK
6
CONTINUOUS
10
99.125
20
-157.982
11
97.4107
21
-157.982
0
LINE
8
BLACK
6
CONTINUOUS
10
98.2679
20
-157.982
11
98.2679
21
-154.982
0
LINE
8
BLACK
6
CONTINUOUS
10
98.2679
20
-154.982
11
97.9821
21
-155.411
0
LINE
8
BLACK
6
CONTINUOUS
10
97.9821
20
-155.411
11
97.6964
21
-155.696
0
LINE
8
BLACK
6
CONTINUOUS
10
97.6964
20
-155.696
11
97.4107
21
-155.839
0
LINE
8
BLACK
6
CONTINUOUS
10
100.268
20
-154.982
11
100.268
21
-155.554
0
LINE
8
BLACK
6
CONTINUOUS
10
101.411
20
-154.982
11
101.411
21
-155.554
0
LINE
8
BLACK
6
CONTINUOUS
10
105.839
20
-159.125
11
105.696
21
-158.982
0
LINE
8
BLACK
6
CONTINUOUS
10
105.696
20
-158.982
11
105.411
21
-158.554
0
LINE
8
BLACK
6
CONTINUOUS
10
105.411
20
-158.554
11
105.268
21
-158.268
0
LINE
8
BLACK
6
CONTINUOUS
10
105.268
20
-158.268
11
105.125
21
-157.839
0
LINE
8
BLACK
6
CONTINUOUS
10
105.125
20
-157.839
11
104.982
21
-157.125
0
LINE
8
BLACK
6
CONTINUOUS
10
104.982
20
-157.125
11
104.982
21
-156.554
0
LINE
8
BLACK
6
CONTINUOUS
10
104.982
20
-156.554
11
105.125
21
-155.839
0
LINE
8
BLACK
6
CONTINUOUS
10
105.125
20
-155.839
11
105.268
21
-155.411
0
LINE
8
BLACK
6
CONTINUOUS
10
105.268
20
-155.411
11
105.411
21
-155.125
0
LINE
8
BLACK
6
CONTINUOUS
10
105.411
20
-155.125
11
105.696
21
-154.696
0
LINE
8
BLACK
6
CONTINUOUS
10
105.696
20
-154.696
11
105.839
21
-154.554
0
LINE
8
BLACK
6
CONTINUOUS
10
108.268
20
-154.982
11
107.696
21
-154.982
0
LINE
8
BLACK
6
CONTINUOUS
10
107.696
20
-154.982
11
107.411
21
-155.125
0
LINE
8
BLACK
6
CONTINUOUS
10
107.411
20
-155.125
11
107.268
21
-155.268
0
LINE
8
BLACK
6
CONTINUOUS
10
107.268
20
-155.268
11
106.982
21
-155.696
0
LINE
8
BLACK
6
CONTINUOUS
10
106.982
20
-155.696
11
106.839
21
-156.268
0
LINE
8
BLACK
6
CONTINUOUS
10
106.839
20
-156.268
11
106.839
21
-157.411
0
LINE
8
BLACK
6
CONTINUOUS
10
106.839
20
-157.411
11
106.982
21
-157.696
0
LINE
8
BLACK
6
CONTINUOUS
10
106.982
20
-157.696
11
107.125
21
-157.839
0
LINE
8
BLACK
6
CONTINUOUS
10
107.125
20
-157.839
11
107.411
21
-157.982
0
LINE
8
BLACK
6
CONTINUOUS
10
107.411
20
-157.982
11
107.982
21
-157.982
0
LINE
8
BLACK
6
CONTINUOUS
10
107.982
20
-157.982
11
108.268
21
-157.839
0
LINE
8
BLACK
6
CONTINUOUS
10
108.268
20
-157.839
11
108.411
21
-157.696
0
LINE
8
BLACK
6
CONTINUOUS
10
108.411
20
-157.696
11
108.554
21
-157.411
0
LINE
8
BLACK
6
CONTINUOUS
10
108.554
20
-157.411
11
108.554
21
-156.696
0
LINE
8
BLACK
6
CONTINUOUS
10
108.554
20
-156.696
11
108.411
21
-156.411
0
LINE
8
BLACK
6
CONTINUOUS
10
108.411
20
-156.411
11
108.268
21
-156.268
0
LINE
8
BLACK
6
CONTINUOUS
10
108.268
20
-156.268
11
107.982
21
-156.125
0
LINE
8
BLACK
6
CONTINUOUS
10
107.982
20
-156.125
11
107.411
21
-156.125
0
LINE
8
BLACK
6
CONTINUOUS
10
107.411
20
-156.125
11
107.125
21
-156.268
0
LINE
8
BLACK
6
CONTINUOUS
10
107.125
20
-156.268
11
106.982
21
-156.411
0
LINE
8
BLACK
6
CONTINUOUS
10
106.982
20
-156.411
11
106.839
21
-156.696
0
LINE
8
BLACK
6
CONTINUOUS
10
111.125
20
-155.982
11
111.125
21
-157.982
0
LINE
8
BLACK
6
CONTINUOUS
10
110.411
20
-154.839
11
109.696
21
-156.982
0
LINE
8
BLACK
6
CONTINUOUS
10
109.696
20
-156.982
11
111.554
21
-156.982
0
LINE
8
BLACK
6
CONTINUOUS
10
114.982
20
-157.982
11
114.982
21
-154.982
0
LINE
8
BLACK
6
CONTINUOUS
10
116.268
20
-157.982
11
116.268
21
-156.411
0
LINE
8
BLACK
6
CONTINUOUS
10
116.268
20
-156.411
11
116.125
21
-156.125
0
LINE
8
BLACK
6
CONTINUOUS
10
116.125
20
-156.125
11
115.839
21
-155.982
0
LINE
8
BLACK
6
CONTINUOUS
10
115.839
20
-155.982
11
115.411
21
-155.982
0
LINE
8
BLACK
6
CONTINUOUS
10
115.411
20
-155.982
11
115.125
21
-156.125
0
LINE
8
BLACK
6
CONTINUOUS
10
115.125
20
-156.125
11
114.982
21
-156.268
0
LINE
8
BLACK
6
CONTINUOUS
10
118.125
20
-157.982
11
117.839
21
-157.839
0
LINE
8
BLACK
6
CONTINUOUS
10
117.839
20
-157.839
11
117.696
21
-157.696
0
LINE
8
BLACK
6
CONTINUOUS
10
117.696
20
-157.696
11
117.554
21
-157.411
0
LINE
8
BLACK
6
CONTINUOUS
10
117.554
20
-157.411
11
117.554
21
-156.554
0
LINE
8
BLACK
6
CONTINUOUS
10
117.554
20
-156.554
11
117.696
21
-156.268
0
LINE
8
BLACK
6
CONTINUOUS
10
117.696
20
-156.268
11
117.839
21
-156.125
0
LINE
8
BLACK
6
CONTINUOUS
10
117.839
20
-156.125
11
118.125
21
-155.982
0
LINE
8
BLACK
6
CONTINUOUS
10
118.125
20
-155.982
11
118.554
21
-155.982
0
LINE
8
BLACK
6
CONTINUOUS
10
118.554
20
-155.982
11
118.839
21
-156.125
0
LINE
8
BLACK
6
CONTINUOUS
10
118.839
20
-156.125
11
118.982
21
-156.268
0
LINE
8
BLACK
6
CONTINUOUS
10
118.982
20
-156.268
11
119.125
21
-156.554
0
LINE
8
BLACK
6
CONTINUOUS
10
119.125
20
-156.554
11
119.125
21
-157.411
0
LINE
8
BLACK
6
CONTINUOUS
10
119.125
20
-157.411
11
118.982
21
-157.696
0
LINE
8
BLACK
6
CONTINUOUS
10
118.982
20
-157.696
11
118.839
21
-157.839
0
LINE
8
BLACK
6
CONTINUOUS
10
118.839
20
-157.839
11
118.554
21
-157.982
0
LINE
8
BLACK
6
CONTINUOUS
10
118.554
20
-157.982
11
118.125
21
-157.982
0
LINE
8
BLACK
6
CONTINUOUS
10
120.839
20
-157.982
11
120.554
21
-157.839
0
LINE
8
BLACK
6
CONTINUOUS
10
120.554
20
-157.839
11
120.411
21
-157.554
0
LINE
8
BLACK
6
CONTINUOUS
10
120.411
20
-157.554
11
120.411
21
-154.982
0
LINE
8
BLACK
6
CONTINUOUS
10
123.125
20
-157.839
11
122.839
21
-157.982
0
LINE
8
BLACK
6
CONTINUOUS
10
122.839
20
-157.982
11
122.268
21
-157.982
0
LINE
8
BLACK
6
CONTINUOUS
10
122.268
20
-157.982
11
121.982
21
-157.839
0
LINE
8
BLACK
6
CONTINUOUS
10
121.982
20
-157.839
11
121.839
21
-157.554
0
LINE
8
BLACK
6
CONTINUOUS
10
121.839
20
-157.554
11
121.839
21
-156.411
0
LINE
8
BLACK
6
CONTINUOUS
10
121.839
20
-156.411
11
121.982
21
-156.125
0
LINE
8
BLACK
6
CONTINUOUS
10
121.982
20
-156.125
11
122.268
21
-155.982
0
LINE
8
BLACK
6
CONTINUOUS
10
122.268
20
-155.982
11
122.839
21
-155.982
0
LINE
8
BLACK
6
CONTINUOUS
10
122.839
20
-155.982
11
123.125
21
-156.125
0
LINE
8
BLACK
6
CONTINUOUS
10
123.125
20
-156.125
11
123.268
21
-156.411
0
LINE
8
BLACK
6
CONTINUOUS
10
123.268
20
-156.411
11
123.268
21
-156.696
0
LINE
8
BLACK
6
CONTINUOUS
10
123.268
20
-156.696
11
121.839
21
-156.982
0
LINE
8
BLACK
6
CONTINUOUS
10
124.411
20
-157.839
11
124.696
21
-157.982
0
LINE
8
BLACK
6
CONTINUOUS
10
124.696
20
-157.982
11
125.268
21
-157.982
0
LINE
8
BLACK
6
CONTINUOUS
10
125.268
20
-157.982
11
125.554
21
-157.839
0
LINE
8
BLACK
6
CONTINUOUS
10
125.554
20
-157.839
11
125.696
21
-157.554
0
LINE
8
BLACK
6
CONTINUOUS
10
125.696
20
-157.554
11
125.696
21
-157.411
0
LINE
8
BLACK
6
CONTINUOUS
10
125.696
20
-157.411
11
125.554
21
-157.125
0
LINE
8
BLACK
6
CONTINUOUS
10
125.554
20
-157.125
11
125.268
21
-156.982
0
LINE
8
BLACK
6
CONTINUOUS
10
125.268
20
-156.982
11
124.839
21
-156.982
0
LINE
8
BLACK
6
CONTINUOUS
10
124.839
20
-156.982
11
124.554
21
-156.839
0
LINE
8
BLACK
6
CONTINUOUS
10
124.554
20
-156.839
11
124.411
21
-156.554
0
LINE
8
BLACK
6
CONTINUOUS
10
124.411
20
-156.554
11
124.411
21
-156.411
0
LINE
8
BLACK
6
CONTINUOUS
10
124.411
20
-156.411
11
124.554
21
-156.125
0
LINE
8
BLACK
6
CONTINUOUS
10
124.554
20
-156.125
11
124.839
21
-155.982
0
LINE
8
BLACK
6
CONTINUOUS
10
124.839
20
-155.982
11
125.268
21
-155.982
0
LINE
8
BLACK
6
CONTINUOUS
10
125.268
20
-155.982
11
125.554
21
-156.125
0
LINE
8
BLACK
6
CONTINUOUS
10
126.696
20
-159.125
11
126.839
21
-158.982
0
LINE
8
BLACK
6
CONTINUOUS
10
126.839
20
-158.982
11
127.125
21
-158.554
0
LINE
8
BLACK
6
CONTINUOUS
10
127.125
20
-158.554
11
127.268
21
-158.268
0
LINE
8
BLACK
6
CONTINUOUS
10
127.268
20
-158.268
11
127.411
21
-157.839
0
LINE
8
BLACK
6
CONTINUOUS
10
127.411
20
-157.839
11
127.554
21
-157.125
0
LINE
8
BLACK
6
CONTINUOUS
10
127.554
20
-157.125
11
127.554
21
-156.554
0
LINE
8
BLACK
6
CONTINUOUS
10
127.554
20
-156.554
11
127.411
21
-155.839
0
LINE
8
BLACK
6
CONTINUOUS
10
127.411
20
-155.839
11
127.268
21
-155.411
0
LINE
8
BLACK
6
CONTINUOUS
10
127.268
20
-155.411
11
127.125
21
-155.125
0
LINE
8
BLACK
6
CONTINUOUS
10
127.125
20
-155.125
11
126.839
21
-154.696
0
LINE
8
BLACK
6
CONTINUOUS
10
126.839
20
-154.696
11
126.696
21
-154.554
0
CIRCLE
8
BLACK
10
58.475
20
-160.585
40
0.5
0
LINE
8
BLACK
6
CONTINUOUS
10
63.4107
20
-161.942
11
61.6964
21
-161.942
0
LINE
8
BLACK
6
CONTINUOUS
10
62.5536
20
-161.942
11
62.5536
21
-158.942
0
LINE
8
BLACK
6
CONTINUOUS
10
62.5536
20
-158.942
11
62.2679
21
-159.371
0
LINE
8
BLACK
6
CONTINUOUS
10
62.2679
20
-159.371
11
61.9821
21
-159.656
0
LINE
8
BLACK
6
CONTINUOUS
10
61.9821
20
-159.656
11
61.6964
21
-159.799
0
LINE
8
BLACK
6
CONTINUOUS
10
64.6964
20
-161.656
11
64.8393
21
-161.799
0
LINE
8
BLACK
6
CONTINUOUS
10
64.8393
20
-161.799
11
64.6964
21
-161.942
0
LINE
8
BLACK
6
CONTINUOUS
10
64.6964
20
-161.942
11
64.5536
21
-161.799
0
LINE
8
BLACK
6
CONTINUOUS
10
64.5536
20
-161.799
11
64.6964
21
-161.656
0
LINE
8
BLACK
6
CONTINUOUS
10
64.6964
20
-161.656
11
64.6964
21
-161.942
0
LINE
8
BLACK
6
CONTINUOUS
10
66.6964
20
-158.942
11
66.9821
21
-158.942
0
LINE
8
BLACK
6
CONTINUOUS
10
66.9821
20
-158.942
11
67.2679
21
-159.085
0
LINE
8
BLACK
6
CONTINUOUS
10
67.2679
20
-159.085
11
67.4107
21
-159.228
0
LINE
8
BLACK
6
CONTINUOUS
10
67.4107
20
-159.228
11
67.5536
21
-159.514
0
LINE
8
BLACK
6
CONTINUOUS
10
67.5536
20
-159.514
11
67.6964
21
-160.085
0
LINE
8
BLACK
6
CONTINUOUS
10
67.6964
20
-160.085
11
67.6964
21
-160.799
0
LINE
8
BLACK
6
CONTINUOUS
10
67.6964
20
-160.799
11
67.5536
21
-161.371
0
LINE
8
BLACK
6
CONTINUOUS
10
67.5536
20
-161.371
11
67.4107
21
-161.656
0
LINE
8
BLACK
6
CONTINUOUS
10
67.4107
20
-161.656
11
67.2679
21
-161.799
0
LINE
8
BLACK
6
CONTINUOUS
10
67.2679
20
-161.799
11
66.9821
21
-161.942
0
LINE
8
BLACK
6
CONTINUOUS
10
66.9821
20
-161.942
11
66.6964
21
-161.942
0
LINE
8
BLACK
6
CONTINUOUS
10
66.6964
20
-161.942
11
66.4107
21
-161.799
0
LINE
8
BLACK
6
CONTINUOUS
10
66.4107
20
-161.799
11
66.2679
21
-161.656
0
LINE
8
BLACK
6
CONTINUOUS
10
66.2679
20
-161.656
11
66.125
21
-161.371
0
LINE
8
BLACK
6
CONTINUOUS
10
66.125
20
-161.371
11
65.9821
21
-160.799
0
LINE
8
BLACK
6
CONTINUOUS
10
65.9821
20
-160.799
11
65.9821
21
-160.085
0
LINE
8
BLACK
6
CONTINUOUS
10
65.9821
20
-160.085
11
66.125
21
-159.514
0
LINE
8
BLACK
6
CONTINUOUS
10
66.125
20
-159.514
11
66.2679
21
-159.228
0
LINE
8
BLACK
6
CONTINUOUS
10
66.2679
20
-159.228
11
66.4107
21
-159.085
0
LINE
8
BLACK
6
CONTINUOUS
10
66.4107
20
-159.085
11
66.6964
21
-158.942
0
LINE
8
BLACK
6
CONTINUOUS
10
69.5536
20
-158.942
11
69.8393
21
-158.942
0
LINE
8
BLACK
6
CONTINUOUS
10
69.8393
20
-158.942
11
70.125
21
-159.085
0
LINE
8
BLACK
6
CONTINUOUS
10
70.125
20
-159.085
11
70.2679
21
-159.228
0
LINE
8
BLACK
6
CONTINUOUS
10
70.2679
20
-159.228
11
70.4107
21
-159.514
0
LINE
8
BLACK
6
CONTINUOUS
10
70.4107
20
-159.514
11
70.5536
21
-160.085
0
LINE
8
BLACK
6
CONTINUOUS
10
70.5536
20
-160.085
11
70.5536
21
-160.799
0
LINE
8
BLACK
6
CONTINUOUS
10
70.5536
20
-160.799
11
70.4107
21
-161.371
0
LINE
8
BLACK
6
CONTINUOUS
10
70.4107
20
-161.371
11
70.2679
21
-161.656
0
LINE
8
BLACK
6
CONTINUOUS
10
70.2679
20
-161.656
11
70.125
21
-161.799
0
LINE
8
BLACK
6
CONTINUOUS
10
70.125
20
-161.799
11
69.8393
21
-161.942
0
LINE
8
BLACK
6
CONTINUOUS
10
69.8393
20
-161.942
11
69.5536
21
-161.942
0
LINE
8
BLACK
6
CONTINUOUS
10
69.5536
20
-161.942
11
69.2679
21
-161.799
0
LINE
8
BLACK
6
CONTINUOUS
10
69.2679
20
-161.799
11
69.125
21
-161.656
0
LINE
8
BLACK
6
CONTINUOUS
10
69.125
20
-161.656
11
68.9821
21
-161.371
0
LINE
8
BLACK
6
CONTINUOUS
10
68.9821
20
-161.371
11
68.8393
21
-160.799
0
LINE
8
BLACK
6
CONTINUOUS
10
68.8393
20
-160.799
11
68.8393
21
-160.085
0
LINE
8
BLACK
6
CONTINUOUS
10
68.8393
20
-160.085
11
68.9821
21
-159.514
0
LINE
8
BLACK
6
CONTINUOUS
10
68.9821
20
-159.514
11
69.125
21
-159.228
0
LINE
8
BLACK
6
CONTINUOUS
10
69.125
20
-159.228
11
69.2679
21
-159.085
0
LINE
8
BLACK
6
CONTINUOUS
10
69.2679
20
-159.085
11
69.5536
21
-158.942
0
LINE
8
BLACK
6
CONTINUOUS
10
71.8393
20
-161.942
11
71.8393
21
-159.942
0
LINE
8
BLACK
6
CONTINUOUS
10
71.8393
20
-160.228
11
71.9821
21
-160.085
0
LINE
8
BLACK
6
CONTINUOUS
10
71.9821
20
-160.085
11
72.2679
21
-159.942
0
LINE
8
BLACK
6
CONTINUOUS
10
72.2679
20
-159.942
11
72.6964
21
-159.942
0
LINE
8
BLACK
6
CONTINUOUS
10
72.6964
20
-159.942
11
72.9821
21
-160.085
0
LINE
8
BLACK
6
CONTINUOUS
10
72.9821
20
-160.085
11
73.125
21
-160.371
0
LINE
8
BLACK
6
CONTINUOUS
10
73.125
20
-160.371
11
73.125
21
-161.942
0
LINE
8
BLACK
6
CONTINUOUS
10
73.125
20
-160.371
11
73.2679
21
-160.085
0
LINE
8
BLACK
6
CONTINUOUS
10
73.2679
20
-160.085
11
73.5536
21
-159.942
0
LINE
8
BLACK
6
CONTINUOUS
10
73.5536
20
-159.942
11
73.9821
21
-159.942
0
LINE
8
BLACK
6
CONTINUOUS
10
73.9821
20
-159.942
11
74.2679
21
-160.085
0
LINE
8
BLACK
6
CONTINUOUS
10
74.2679
20
-160.085
11
74.4107
21
-160.371
0
LINE
8
BLACK
6
CONTINUOUS
10
74.4107
20
-160.371
11
74.4107
21
-161.942
0
LINE
8
BLACK
6
CONTINUOUS
10
75.8393
20
-161.942
11
75.8393
21
-159.942
0
LINE
8
BLACK
6
CONTINUOUS
10
75.8393
20
-160.228
11
75.9821
21
-160.085
0
LINE
8
BLACK
6
CONTINUOUS
10
75.9821
20
-160.085
11
76.2679
21
-159.942
0
LINE
8
BLACK
6
CONTINUOUS
10
76.2679
20
-159.942
11
76.6964
21
-159.942
0
LINE
8
BLACK
6
CONTINUOUS
10
76.6964
20
-159.942
11
76.9821
21
-160.085
0
LINE
8
BLACK
6
CONTINUOUS
10
76.9821
20
-160.085
11
77.125
21
-160.371
0
LINE
8
BLACK
6
CONTINUOUS
10
77.125
20
-160.371
11
77.125
21
-161.942
0
LINE
8
BLACK
6
CONTINUOUS
10
77.125
20
-160.371
11
77.2679
21
-160.085
0
LINE
8
BLACK
6
CONTINUOUS
10
77.2679
20
-160.085
11
77.5536
21
-159.942
0
LINE
8
BLACK
6
CONTINUOUS
10
77.5536
20
-159.942
11
77.9821
21
-159.942
0
LINE
8
BLACK
6
CONTINUOUS
10
77.9821
20
-159.942
11
78.2679
21
-160.085
0
LINE
8
BLACK
6
CONTINUOUS
10
78.2679
20
-160.085
11
78.4107
21
-160.371
0
LINE
8
BLACK
6
CONTINUOUS
10
78.4107
20
-160.371
11
78.4107
21
-161.942
0
LINE
8
BLACK
6
CONTINUOUS
10
84.2679
20
-158.799
11
81.6964
21
-162.656
0
LINE
8
BLACK
6
CONTINUOUS
10
88.125
20
-158.942
11
88.4107
21
-158.942
0
LINE
8
BLACK
6
CONTINUOUS
10
88.4107
20
-158.942
11
88.6964
21
-159.085
0
LINE
8
BLACK
6
CONTINUOUS
10
88.6964
20
-159.085
11
88.8393
21
-159.228
0
LINE
8
BLACK
6
CONTINUOUS
10
88.8393
20
-159.228
11
88.9821
21
-159.514
0
LINE
8
BLACK
6
CONTINUOUS
10
88.9821
20
-159.514
11
89.125
21
-160.085
0
LINE
8
BLACK
6
CONTINUOUS
10
89.125
20
-160.085
11
89.125
21
-160.799
0
LINE
8
BLACK
6
CONTINUOUS
10
89.125
20
-160.799
11
88.9821
21
-161.371
0
LINE
8
BLACK
6
CONTINUOUS
10
88.9821
20
-161.371
11
88.8393
21
-161.656
0
LINE
8
BLACK
6
CONTINUOUS
10
88.8393
20
-161.656
11
88.6964
21
-161.799
0
LINE
8
BLACK
6
CONTINUOUS
10
88.6964
20
-161.799
11
88.4107
21
-161.942
0
LINE
8
BLACK
6
CONTINUOUS
10
88.4107
20
-161.942
11
88.125
21
-161.942
0
LINE
8
BLACK
6
CONTINUOUS
10
88.125
20
-161.942
11
87.8393
21
-161.799
0
LINE
8
BLACK
6
CONTINUOUS
10
87.8393
20
-161.799
11
87.6964
21
-161.656
0
LINE
8
BLACK
6
CONTINUOUS
10
87.6964
20
-161.656
11
87.5536
21
-161.371
0
LINE
8
BLACK
6
CONTINUOUS
10
87.5536
20
-161.371
11
87.4107
21
-160.799
0
LINE
8
BLACK
6
CONTINUOUS
10
87.4107
20
-160.799
11
87.4107
21
-160.085
0
LINE
8
BLACK
6
CONTINUOUS
10
87.4107
20
-160.085
11
87.5536
21
-159.514
0
LINE
8
BLACK
6
CONTINUOUS
10
87.5536
20
-159.514
11
87.6964
21
-159.228
0
LINE
8
BLACK
6
CONTINUOUS
10
87.6964
20
-159.228
11
87.8393
21
-159.085
0
LINE
8
BLACK
6
CONTINUOUS
10
87.8393
20
-159.085
11
88.125
21
-158.942
0
LINE
8
BLACK
6
CONTINUOUS
10
90.4107
20
-161.656
11
90.5536
21
-161.799
0
LINE
8
BLACK
6
CONTINUOUS
10
90.5536
20
-161.799
11
90.4107
21
-161.942
0
LINE
8
BLACK
6
CONTINUOUS
10
90.4107
20
-161.942
11
90.2679
21
-161.799
0
LINE
8
BLACK
6
CONTINUOUS
10
90.2679
20
-161.799
11
90.4107
21
-161.656
0
LINE
8
BLACK
6
CONTINUOUS
10
90.4107
20
-161.656
11
90.4107
21
-161.942
0
LINE
8
BLACK
6
CONTINUOUS
10
92.4107
20
-158.942
11
92.6964
21
-158.942
0
LINE
8
BLACK
6
CONTINUOUS
10
92.6964
20
-158.942
11
92.9821
21
-159.085
0
LINE
8
BLACK
6
CONTINUOUS
10
92.9821
20
-159.085
11
93.125
21
-159.228
0
LINE
8
BLACK
6
CONTINUOUS
10
93.125
20
-159.228
11
93.2679
21
-159.514
0
LINE
8
BLACK
6
CONTINUOUS
10
93.2679
20
-159.514
11
93.4107
21
-160.085
0
LINE
8
BLACK
6
CONTINUOUS
10
93.4107
20
-160.085
11
93.4107
21
-160.799
0
LINE
8
BLACK
6
CONTINUOUS
10
93.4107
20
-160.799
11
93.2679
21
-161.371
0
LINE
8
BLACK
6
CONTINUOUS
10
93.2679
20
-161.371
11
93.125
21
-161.656
0
LINE
8
BLACK
6
CONTINUOUS
10
93.125
20
-161.656
11
92.9821
21
-161.799
0
LINE
8
BLACK
6
CONTINUOUS
10
92.9821
20
-161.799
11
92.6964
21
-161.942
0
LINE
8
BLACK
6
CONTINUOUS
10
92.6964
20
-161.942
11
92.4107
21
-161.942
0
LINE
8
BLACK
6
CONTINUOUS
10
92.4107
20
-161.942
11
92.125
21
-161.799
0
LINE
8
BLACK
6
CONTINUOUS
10
92.125
20
-161.799
11
91.9821
21
-161.656
0
LINE
8
BLACK
6
CONTINUOUS
10
91.9821
20
-161.656
11
91.8393
21
-161.371
0
LINE
8
BLACK
6
CONTINUOUS
10
91.8393
20
-161.371
11
91.6964
21
-160.799
0
LINE
8
BLACK
6
CONTINUOUS
10
91.6964
20
-160.799
11
91.6964
21
-160.085
0
LINE
8
BLACK
6
CONTINUOUS
10
91.6964
20
-160.085
11
91.8393
21
-159.514
0
LINE
8
BLACK
6
CONTINUOUS
10
91.8393
20
-159.514
11
91.9821
21
-159.228
0
LINE
8
BLACK
6
CONTINUOUS
10
91.9821
20
-159.228
11
92.125
21
-159.085
0
LINE
8
BLACK
6
CONTINUOUS
10
92.125
20
-159.085
11
92.4107
21
-158.942
0
LINE
8
BLACK
6
CONTINUOUS
10
94.4107
20
-158.942
11
96.2679
21
-158.942
0
LINE
8
BLACK
6
CONTINUOUS
10
96.2679
20
-158.942
11
95.2679
21
-160.085
0
LINE
8
BLACK
6
CONTINUOUS
10
95.2679
20
-160.085
11
95.6964
21
-160.085
0
LINE
8
BLACK
6
CONTINUOUS
10
95.6964
20
-160.085
11
95.9821
21
-160.228
0
LINE
8
BLACK
6
CONTINUOUS
10
95.9821
20
-160.228
11
96.125
21
-160.371
0
LINE
8
BLACK
6
CONTINUOUS
10
96.125
20
-160.371
11
96.2679
21
-160.656
0
LINE
8
BLACK
6
CONTINUOUS
10
96.2679
20
-160.656
11
96.2679
21
-161.371
0
LINE
8
BLACK
6
CONTINUOUS
10
96.2679
20
-161.371
11
96.125
21
-161.656
0
LINE
8
BLACK
6
CONTINUOUS
10
96.125
20
-161.656
11
95.9821
21
-161.799
0
LINE
8
BLACK
6
CONTINUOUS
10
95.9821
20
-161.799
11
95.6964
21
-161.942
0
LINE
8
BLACK
6
CONTINUOUS
10
95.6964
20
-161.942
11
94.8393
21
-161.942
0
LINE
8
BLACK
6
CONTINUOUS
10
94.8393
20
-161.942
11
94.5536
21
-161.799
0
LINE
8
BLACK
6
CONTINUOUS
10
94.5536
20
-161.799
11
94.4107
21
-161.656
0
LINE
8
BLACK
6
CONTINUOUS
10
97.6964
20
-161.942
11
98.2679
21
-161.942
0
LINE
8
BLACK
6
CONTINUOUS
10
98.2679
20
-161.942
11
98.5536
21
-161.799
0
LINE
8
BLACK
6
CONTINUOUS
10
98.5536
20
-161.799
11
98.6964
21
-161.656
0
LINE
8
BLACK
6
CONTINUOUS
10
98.6964
20
-161.656
11
98.9821
21
-161.228
0
LINE
8
BLACK
6
CONTINUOUS
10
98.9821
20
-161.228
11
99.125
21
-160.656
0
LINE
8
BLACK
6
CONTINUOUS
10
99.125
20
-160.656
11
99.125
21
-159.514
0
LINE
8
BLACK
6
CONTINUOUS
10
99.125
20
-159.514
11
98.9821
21
-159.228
0
LINE
8
BLACK
6
CONTINUOUS
10
98.9821
20
-159.228
11
98.8393
21
-159.085
0
LINE
8
BLACK
6
CONTINUOUS
10
98.8393
20
-159.085
11
98.5536
21
-158.942
0
LINE
8
BLACK
6
CONTINUOUS
10
98.5536
20
-158.942
11
97.9821
21
-158.942
0
LINE
8
BLACK
6
CONTINUOUS
10
97.9821
20
-158.942
11
97.6964
21
-159.085
0
LINE
8
BLACK
6
CONTINUOUS
10
97.6964
20
-159.085
11
97.5536
21
-159.228
0
LINE
8
BLACK
6
CONTINUOUS
10
97.5536
20
-159.228
11
97.4107
21
-159.514
0
LINE
8
BLACK
6
CONTINUOUS
10
97.4107
20
-159.514
11
97.4107
21
-160.228
0
LINE
8
BLACK
6
CONTINUOUS
10
97.4107
20
-160.228
11
97.5536
21
-160.514
0
LINE
8
BLACK
6
CONTINUOUS
10
97.5536
20
-160.514
11
97.6964
21
-160.656
0
LINE
8
BLACK
6
CONTINUOUS
10
97.6964
20
-160.656
11
97.9821
21
-160.799
0
LINE
8
BLACK
6
CONTINUOUS
10
97.9821
20
-160.799
11
98.5536
21
-160.799
0
LINE
8
BLACK
6
CONTINUOUS
10
98.5536
20
-160.799
11
98.8393
21
-160.656
0
LINE
8
BLACK
6
CONTINUOUS
10
98.8393
20
-160.656
11
98.9821
21
-160.514
0
LINE
8
BLACK
6
CONTINUOUS
10
98.9821
20
-160.514
11
99.125
21
-160.228
0
LINE
8
BLACK
6
CONTINUOUS
10
100.268
20
-158.942
11
100.268
21
-159.514
0
LINE
8
BLACK
6
CONTINUOUS
10
101.411
20
-158.942
11
101.411
21
-159.514
0
LINE
8
BLACK
6
CONTINUOUS
10
105.839
20
-163.085
11
105.696
21
-162.942
0
LINE
8
BLACK
6
CONTINUOUS
10
105.696
20
-162.942
11
105.411
21
-162.514
0
LINE
8
BLACK
6
CONTINUOUS
10
105.411
20
-162.514
11
105.268
21
-162.228
0
LINE
8
BLACK
6
CONTINUOUS
10
105.268
20
-162.228
11
105.125
21
-161.799
0
LINE
8
BLACK
6
CONTINUOUS
10
105.125
20
-161.799
11
104.982
21
-161.085
0
LINE
8
BLACK
6
CONTINUOUS
10
104.982
20
-161.085
11
104.982
21
-160.514
0
LINE
8
BLACK
6
CONTINUOUS
10
104.982
20
-160.514
11
105.125
21
-159.799
0
LINE
8
BLACK
6
CONTINUOUS
10
105.125
20
-159.799
11
105.268
21
-159.371
0
LINE
8
BLACK
6
CONTINUOUS
10
105.268
20
-159.371
11
105.411
21
-159.085
0
LINE
8
BLACK
6
CONTINUOUS
10
105.411
20
-159.085
11
105.696
21
-158.656
0
LINE
8
BLACK
6
CONTINUOUS
10
105.696
20
-158.656
11
105.839
21
-158.514
0
LINE
8
BLACK
6
CONTINUOUS
10
108.554
20
-161.942
11
106.839
21
-161.942
0
LINE
8
BLACK
6
CONTINUOUS
10
107.696
20
-161.942
11
107.696
21
-158.942
0
LINE
8
BLACK
6
CONTINUOUS
10
107.696
20
-158.942
11
107.411
21
-159.371
0
LINE
8
BLACK
6
CONTINUOUS
10
107.411
20
-159.371
11
107.125
21
-159.656
0
LINE
8
BLACK
6
CONTINUOUS
10
107.125
20
-159.656
11
106.839
21
-159.799
0
LINE
8
BLACK
6
CONTINUOUS
10
110.411
20
-158.942
11
110.696
21
-158.942
0
LINE
8
BLACK
6
CONTINUOUS
10
110.696
20
-158.942
11
110.982
21
-159.085
0
LINE
8
BLACK
6
CONTINUOUS
10
110.982
20
-159.085
11
111.125
21
-159.228
0
LINE
8
BLACK
6
CONTINUOUS
10
111.125
20
-159.228
11
111.268
21
-159.514
0
LINE
8
BLACK
6
CONTINUOUS
10
111.268
20
-159.514
11
111.411
21
-160.085
0
LINE
8
BLACK
6
CONTINUOUS
10
111.411
20
-160.085
11
111.411
21
-160.799
0
LINE
8
BLACK
6
CONTINUOUS
10
111.411
20
-160.799
11
111.268
21
-161.371
0
LINE
8
BLACK
6
CONTINUOUS
10
111.268
20
-161.371
11
111.125
21
-161.656
0
LINE
8
BLACK
6
CONTINUOUS
10
111.125
20
-161.656
11
110.982
21
-161.799
0
LINE
8
BLACK
6
CONTINUOUS
10
110.982
20
-161.799
11
110.696
21
-161.942
0
LINE
8
BLACK
6
CONTINUOUS
10
110.696
20
-161.942
11
110.411
21
-161.942
0
LINE
8
BLACK
6
CONTINUOUS
10
110.411
20
-161.942
11
110.125
21
-161.799
0
LINE
8
BLACK
6
CONTINUOUS
10
110.125
20
-161.799
11
109.982
21
-161.656
0
LINE
8
BLACK
6
CONTINUOUS
10
109.982
20
-161.656
11
109.839
21
-161.371
0
LINE
8
BLACK
6
CONTINUOUS
10
109.839
20
-161.371
11
109.696
21
-160.799
0
LINE
8
BLACK
6
CONTINUOUS
10
109.696
20
-160.799
11
109.696
21
-160.085
0
LINE
8
BLACK
6
CONTINUOUS
10
109.696
20
-160.085
11
109.839
21
-159.514
0
LINE
8
BLACK
6
CONTINUOUS
10
109.839
20
-159.514
11
109.982
21
-159.228
0
LINE
8
BLACK
6
CONTINUOUS
10
109.982
20
-159.228
11
110.125
21
-159.085
0
LINE
8
BLACK
6
CONTINUOUS
10
110.125
20
-159.085
11
110.411
21
-158.942
0
LINE
8
BLACK
6
CONTINUOUS
10
112.839
20
-161.942
11
113.411
21
-161.942
0
LINE
8
BLACK
6
CONTINUOUS
10
113.411
20
-161.942
11
113.696
21
-161.799
0
LINE
8
BLACK
6
CONTINUOUS
10
113.696
20
-161.799
11
113.839
21
-161.656
0
LINE
8
BLACK
6
CONTINUOUS
10
113.839
20
-161.656
11
114.125
21
-161.228
0
LINE
8
BLACK
6
CONTINUOUS
10
114.125
20
-161.228
11
114.268
21
-160.656
0
LINE
8
BLACK
6
CONTINUOUS
10
114.268
20
-160.656
11
114.268
21
-159.514
0
LINE
8
BLACK
6
CONTINUOUS
10
114.268
20
-159.514
11
114.125
21
-159.228
0
LINE
8
BLACK
6
CONTINUOUS
10
114.125
20
-159.228
11
113.982
21
-159.085
0
LINE
8
BLACK
6
CONTINUOUS
10
113.982
20
-159.085
11
113.696
21
-158.942
0
LINE
8
BLACK
6
CONTINUOUS
10
113.696
20
-158.942
11
113.125
21
-158.942
0
LINE
8
BLACK
6
CONTINUOUS
10
113.125
20
-158.942
11
112.839
21
-159.085
0
LINE
8
BLACK
6
CONTINUOUS
10
112.839
20
-159.085
11
112.696
21
-159.228
0
LINE
8
BLACK
6
CONTINUOUS
10
112.696
20
-159.228
11
112.554
21
-159.514
0
LINE
8
BLACK
6
CONTINUOUS
10
112.554
20
-159.514
11
112.554
21
-160.228
0
LINE
8
BLACK
6
CONTINUOUS
10
112.554
20
-160.228
11
112.696
21
-160.514
0
LINE
8
BLACK
6
CONTINUOUS
10
112.696
20
-160.514
11
112.839
21
-160.656
0
LINE
8
BLACK
6
CONTINUOUS
10
112.839
20
-160.656
11
113.125
21
-160.799
0
LINE
8
BLACK
6
CONTINUOUS
10
113.125
20
-160.799
11
113.696
21
-160.799
0
LINE
8
BLACK
6
CONTINUOUS
10
113.696
20
-160.799
11
113.982
21
-160.656
0
LINE
8
BLACK
6
CONTINUOUS
10
113.982
20
-160.656
11
114.125
21
-160.514
0
LINE
8
BLACK
6
CONTINUOUS
10
114.125
20
-160.514
11
114.268
21
-160.228
0
LINE
8
BLACK
6
CONTINUOUS
10
117.839
20
-161.942
11
117.839
21
-158.942
0
LINE
8
BLACK
6
CONTINUOUS
10
119.125
20
-161.942
11
119.125
21
-160.371
0
LINE
8
BLACK
6
CONTINUOUS
10
119.125
20
-160.371
11
118.982
21
-160.085
0
LINE
8
BLACK
6
CONTINUOUS
10
118.982
20
-160.085
11
118.696
21
-159.942
0
LINE
8
BLACK
6
CONTINUOUS
10
118.696
20
-159.942
11
118.268
21
-159.942
0
LINE
8
BLACK
6
CONTINUOUS
10
118.268
20
-159.942
11
117.982
21
-160.085
0
LINE
8
BLACK
6
CONTINUOUS
10
117.982
20
-160.085
11
117.839
21
-160.228
0
LINE
8
BLACK
6
CONTINUOUS
10
120.982
20
-161.942
11
120.696
21
-161.799
0
LINE
8
BLACK
6
CONTINUOUS
10
120.696
20
-161.799
11
120.554
21
-161.656
0
LINE
8
BLACK
6
CONTINUOUS
10
120.554
20
-161.656
11
120.411
21
-161.371
0
LINE
8
BLACK
6
CONTINUOUS
10
120.411
20
-161.371
11
120.411
21
-160.514
0
LINE
8
BLACK
6
CONTINUOUS
10
120.411
20
-160.514
11
120.554
21
-160.228
0
LINE
8
BLACK
6
CONTINUOUS
10
120.554
20
-160.228
11
120.696
21
-160.085
0
LINE
8
BLACK
6
CONTINUOUS
10
120.696
20
-160.085
11
120.982
21
-159.942
0
LINE
8
BLACK
6
CONTINUOUS
10
120.982
20
-159.942
11
121.411
21
-159.942
0
LINE
8
BLACK
6
CONTINUOUS
10
121.411
20
-159.942
11
121.696
21
-160.085
0
LINE
8
BLACK
6
CONTINUOUS
10
121.696
20
-160.085
11
121.839
21
-160.228
0
LINE
8
BLACK
6
CONTINUOUS
10
121.839
20
-160.228
11
121.982
21
-160.514
0
LINE
8
BLACK
6
CONTINUOUS
10
121.982
20
-160.514
11
121.982
21
-161.371
0
LINE
8
BLACK
6
CONTINUOUS
10
121.982
20
-161.371
11
121.839
21
-161.656
0
LINE
8
BLACK
6
CONTINUOUS
10
121.839
20
-161.656
11
121.696
21
-161.799
0
LINE
8
BLACK
6
CONTINUOUS
10
121.696
20
-161.799
11
121.411
21
-161.942
0
LINE
8
BLACK
6
CONTINUOUS
10
121.411
20
-161.942
11
120.982
21
-161.942
0
LINE
8
BLACK
6
CONTINUOUS
10
123.696
20
-161.942
11
123.411
21
-161.799
0
LINE
8
BLACK
6
CONTINUOUS
10
123.411
20
-161.799
11
123.268
21
-161.514
0
LINE
8
BLACK
6
CONTINUOUS
10
123.268
20
-161.514
11
123.268
21
-158.942
0
LINE
8
BLACK
6
CONTINUOUS
10
125.982
20
-161.799
11
125.696
21
-161.942
0
LINE
8
BLACK
6
CONTINUOUS
10
125.696
20
-161.942
11
125.125
21
-161.942
0
LINE
8
BLACK
6
CONTINUOUS
10
125.125
20
-161.942
11
124.839
21
-161.799
0
LINE
8
BLACK
6
CONTINUOUS
10
124.839
20
-161.799
11
124.696
21
-161.514
0
LINE
8
BLACK
6
CONTINUOUS
10
124.696
20
-161.514
11
124.696
21
-160.371
0
LINE
8
BLACK
6
CONTINUOUS
10
124.696
20
-160.371
11
124.839
21
-160.085
0
LINE
8
BLACK
6
CONTINUOUS
10
124.839
20
-160.085
11
125.125
21
-159.942
0
LINE
8
BLACK
6
CONTINUOUS
10
125.125
20
-159.942
11
125.696
21
-159.942
0
LINE
8
BLACK
6
CONTINUOUS
10
125.696
20
-159.942
11
125.982
21
-160.085
0
LINE
8
BLACK
6
CONTINUOUS
10
125.982
20
-160.085
11
126.125
21
-160.371
0
LINE
8
BLACK
6
CONTINUOUS
10
126.125
20
-160.371
11
126.125
21
-160.656
0
LINE
8
BLACK
6
CONTINUOUS
10
126.125
20
-160.656
11
124.696
21
-160.942
0
LINE
8
BLACK
6
CONTINUOUS
10
127.268
20
-161.799
11
127.554
21
-161.942
0
LINE
8
BLACK
6
CONTINUOUS
10
127.554
20
-161.942
11
128.125
21
-161.942
0
LINE
8
BLACK
6
CONTINUOUS
10
128.125
20
-161.942
11
128.411
21
-161.799
0
LINE
8
BLACK
6
CONTINUOUS
10
128.411
20
-161.799
11
128.554
21
-161.514
0
LINE
8
BLACK
6
CONTINUOUS
10
128.554
20
-161.514
11
128.554
21
-161.371
0
LINE
8
BLACK
6
CONTINUOUS
10
128.554
20
-161.371
11
128.411
21
-161.085
0
LINE
8
BLACK
6
CONTINUOUS
10
128.411
20
-161.085
11
128.125
21
-160.942
0
LINE
8
BLACK
6
CONTINUOUS
10
128.125
20
-160.942
11
127.696
21
-160.942
0
LINE
8
BLACK
6
CONTINUOUS
10
127.696
20
-160.942
11
127.411
21
-160.799
0
LINE
8
BLACK
6
CONTINUOUS
10
127.411
20
-160.799
11
127.268
21
-160.514
0
LINE
8
BLACK
6
CONTINUOUS
10
127.268
20
-160.514
11
127.268
21
-160.371
0
LINE
8
BLACK
6
CONTINUOUS
10
127.268
20
-160.371
11
127.411
21
-160.085
0
LINE
8
BLACK
6
CONTINUOUS
10
127.411
20
-160.085
11
127.696
21
-159.942
0
LINE
8
BLACK
6
CONTINUOUS
10
127.696
20
-159.942
11
128.125
21
-159.942
0
LINE
8
BLACK
6
CONTINUOUS
10
128.125
20
-159.942
11
128.411
21
-160.085
0
LINE
8
BLACK
6
CONTINUOUS
10
129.554
20
-163.085
11
129.696
21
-162.942
0
LINE
8
BLACK
6
CONTINUOUS
10
129.696
20
-162.942
11
129.982
21
-162.514
0
LINE
8
BLACK
6
CONTINUOUS
10
129.982
20
-162.514
11
130.125
21
-162.228
0
LINE
8
BLACK
6
CONTINUOUS
10
130.125
20
-162.228
11
130.268
21
-161.799
0
LINE
8
BLACK
6
CONTINUOUS
10
130.268
20
-161.799
11
130.411
21
-161.085
0
LINE
8
BLACK
6
CONTINUOUS
10
130.411
20
-161.085
11
130.411
21
-160.514
0
LINE
8
BLACK
6
CONTINUOUS
10
130.411
20
-160.514
11
130.268
21
-159.799
0
LINE
8
BLACK
6
CONTINUOUS
10
130.268
20
-159.799
11
130.125
21
-159.371
0
LINE
8
BLACK
6
CONTINUOUS
10
130.125
20
-159.371
11
129.982
21
-159.085
0
LINE
8
BLACK
6
CONTINUOUS
10
129.982
20
-159.085
11
129.696
21
-158.656
0
LINE
8
BLACK
6
CONTINUOUS
10
129.696
20
-158.656
11
129.554
21
-158.514
0
LINE
8
BLACK
6
CONTINUOUS
10
58.4416
20
-164.012
11
58.4416
21
-165.078
0
LINE
8
BLACK
6
CONTINUOUS
10
57.9082
20
-164.545
11
58.975
21
-164.545
0
LINE
8
BLACK
6
CONTINUOUS
10
63.4107
20
-165.902
11
61.6964
21
-165.902
0
LINE
8
BLACK
6
CONTINUOUS
10
62.5536
20
-165.902
11
62.5536
21
-162.902
0
LINE
8
BLACK
6
CONTINUOUS
10
62.5536
20
-162.902
11
62.2679
21
-163.331
0
LINE
8
BLACK
6
CONTINUOUS
10
62.2679
20
-163.331
11
61.9821
21
-163.616
0
LINE
8
BLACK
6
CONTINUOUS
10
61.9821
20
-163.616
11
61.6964
21
-163.759
0
LINE
8
BLACK
6
CONTINUOUS
10
64.6964
20
-165.616
11
64.8393
21
-165.759
0
LINE
8
BLACK
6
CONTINUOUS
10
64.8393
20
-165.759
11
64.6964
21
-165.902
0
LINE
8
BLACK
6
CONTINUOUS
10
64.6964
20
-165.902
11
64.5536
21
-165.759
0
LINE
8
BLACK
6
CONTINUOUS
10
64.5536
20
-165.759
11
64.6964
21
-165.616
0
LINE
8
BLACK
6
CONTINUOUS
10
64.6964
20
-165.616
11
64.6964
21
-165.902
0
LINE
8
BLACK
6
CONTINUOUS
10
66.6964
20
-162.902
11
66.9821
21
-162.902
0
LINE
8
BLACK
6
CONTINUOUS
10
66.9821
20
-162.902
11
67.2679
21
-163.045
0
LINE
8
BLACK
6
CONTINUOUS
10
67.2679
20
-163.045
11
67.4107
21
-163.188
0
LINE
8
BLACK
6
CONTINUOUS
10
67.4107
20
-163.188
11
67.5536
21
-163.474
0
LINE
8
BLACK
6
CONTINUOUS
10
67.5536
20
-163.474
11
67.6964
21
-164.045
0
LINE
8
BLACK
6
CONTINUOUS
10
67.6964
20
-164.045
11
67.6964
21
-164.759
0
LINE
8
BLACK
6
CONTINUOUS
10
67.6964
20
-164.759
11
67.5536
21
-165.331
0
LINE
8
BLACK
6
CONTINUOUS
10
67.5536
20
-165.331
11
67.4107
21
-165.616
0
LINE
8
BLACK
6
CONTINUOUS
10
67.4107
20
-165.616
11
67.2679
21
-165.759
0
LINE
8
BLACK
6
CONTINUOUS
10
67.2679
20
-165.759
11
66.9821
21
-165.902
0
LINE
8
BLACK
6
CONTINUOUS
10
66.9821
20
-165.902
11
66.6964
21
-165.902
0
LINE
8
BLACK
6
CONTINUOUS
10
66.6964
20
-165.902
11
66.4107
21
-165.759
0
LINE
8
BLACK
6
CONTINUOUS
10
66.4107
20
-165.759
11
66.2679
21
-165.616
0
LINE
8
BLACK
6
CONTINUOUS
10
66.2679
20
-165.616
11
66.125
21
-165.331
0
LINE
8
BLACK
6
CONTINUOUS
10
66.125
20
-165.331
11
65.9821
21
-164.759
0
LINE
8
BLACK
6
CONTINUOUS
10
65.9821
20
-164.759
11
65.9821
21
-164.045
0
LINE
8
BLACK
6
CONTINUOUS
10
65.9821
20
-164.045
11
66.125
21
-163.474
0
LINE
8
BLACK
6
CONTINUOUS
10
66.125
20
-163.474
11
66.2679
21
-163.188
0
LINE
8
BLACK
6
CONTINUOUS
10
66.2679
20
-163.188
11
66.4107
21
-163.045
0
LINE
8
BLACK
6
CONTINUOUS
10
66.4107
20
-163.045
11
66.6964
21
-162.902
0
LINE
8
BLACK
6
CONTINUOUS
10
68.6964
20
-162.902
11
70.6964
21
-162.902
0
LINE
8
BLACK
6
CONTINUOUS
10
70.6964
20
-162.902
11
69.4107
21
-165.902
0
LINE
8
BLACK
6
CONTINUOUS
10
71.8393
20
-165.902
11
71.8393
21
-163.902
0
LINE
8
BLACK
6
CONTINUOUS
10
71.8393
20
-164.188
11
71.9821
21
-164.045
0
LINE
8
BLACK
6
CONTINUOUS
10
71.9821
20
-164.045
11
72.2679
21
-163.902
0
LINE
8
BLACK
6
CONTINUOUS
10
72.2679
20
-163.902
11
72.6964
21
-163.902
0
LINE
8
BLACK
6
CONTINUOUS
10
72.6964
20
-163.902
11
72.9821
21
-164.045
0
LINE
8
BLACK
6
CONTINUOUS
10
72.9821
20
-164.045
11
73.125
21
-164.331
0
LINE
8
BLACK
6
CONTINUOUS
10
73.125
20
-164.331
11
73.125
21
-165.902
0
LINE
8
BLACK
6
CONTINUOUS
10
73.125
20
-164.331
11
73.2679
21
-164.045
0
LINE
8
BLACK
6
CONTINUOUS
10
73.2679
20
-164.045
11
73.5536
21
-163.902
0
LINE
8
BLACK
6
CONTINUOUS
10
73.5536
20
-163.902
11
73.9821
21
-163.902
0
LINE
8
BLACK
6
CONTINUOUS
10
73.9821
20
-163.902
11
74.2679
21
-164.045
0
LINE
8
BLACK
6
CONTINUOUS
10
74.2679
20
-164.045
11
74.4107
21
-164.331
0
LINE
8
BLACK
6
CONTINUOUS
10
74.4107
20
-164.331
11
74.4107
21
-165.902
0
LINE
8
BLACK
6
CONTINUOUS
10
75.8393
20
-165.902
11
75.8393
21
-163.902
0
LINE
8
BLACK
6
CONTINUOUS
10
75.8393
20
-164.188
11
75.9821
21
-164.045
0
LINE
8
BLACK
6
CONTINUOUS
10
75.9821
20
-164.045
11
76.2679
21
-163.902
0
LINE
8
BLACK
6
CONTINUOUS
10
76.2679
20
-163.902
11
76.6964
21
-163.902
0
LINE
8
BLACK
6
CONTINUOUS
10
76.6964
20
-163.902
11
76.9821
21
-164.045
0
LINE
8
BLACK
6
CONTINUOUS
10
76.9821
20
-164.045
11
77.125
21
-164.331
0
LINE
8
BLACK
6
CONTINUOUS
10
77.125
20
-164.331
11
77.125
21
-165.902
0
LINE
8
BLACK
6
CONTINUOUS
10
77.125
20
-164.331
11
77.2679
21
-164.045
0
LINE
8
BLACK
6
CONTINUOUS
10
77.2679
20
-164.045
11
77.5536
21
-163.902
0
LINE
8
BLACK
6
CONTINUOUS
10
77.5536
20
-163.902
11
77.9821
21
-163.902
0
LINE
8
BLACK
6
CONTINUOUS
10
77.9821
20
-163.902
11
78.2679
21
-164.045
0
LINE
8
BLACK
6
CONTINUOUS
10
78.2679
20
-164.045
11
78.4107
21
-164.331
0
LINE
8
BLACK
6
CONTINUOUS
10
78.4107
20
-164.331
11
78.4107
21
-165.902
0
LINE
8
BLACK
6
CONTINUOUS
10
84.2679
20
-162.759
11
81.6964
21
-166.616
0
LINE
8
BLACK
6
CONTINUOUS
10
88.125
20
-162.902
11
88.4107
21
-162.902
0
LINE
8
BLACK
6
CONTINUOUS
10
88.4107
20
-162.902
11
88.6964
21
-163.045
0
LINE
8
BLACK
6
CONTINUOUS
10
88.6964
20
-163.045
11
88.8393
21
-163.188
0
LINE
8
BLACK
6
CONTINUOUS
10
88.8393
20
-163.188
11
88.9821
21
-163.474
0
LINE
8
BLACK
6
CONTINUOUS
10
88.9821
20
-163.474
11
89.125
21
-164.045
0
LINE
8
BLACK
6
CONTINUOUS
10
89.125
20
-164.045
11
89.125
21
-164.759
0
LINE
8
BLACK
6
CONTINUOUS
10
89.125
20
-164.759
11
88.9821
21
-165.331
0
LINE
8
BLACK
6
CONTINUOUS
10
88.9821
20
-165.331
11
88.8393
21
-165.616
0
LINE
8
BLACK
6
CONTINUOUS
10
88.8393
20
-165.616
11
88.6964
21
-165.759
0
LINE
8
BLACK
6
CONTINUOUS
10
88.6964
20
-165.759
11
88.4107
21
-165.902
0
LINE
8
BLACK
6
CONTINUOUS
10
88.4107
20
-165.902
11
88.125
21
-165.902
0
LINE
8
BLACK
6
CONTINUOUS
10
88.125
20
-165.902
11
87.8393
21
-165.759
0
LINE
8
BLACK
6
CONTINUOUS
10
87.8393
20
-165.759
11
87.6964
21
-165.616
0
LINE
8
BLACK
6
CONTINUOUS
10
87.6964
20
-165.616
11
87.5536
21
-165.331
0
LINE
8
BLACK
6
CONTINUOUS
10
87.5536
20
-165.331
11
87.4107
21
-164.759
0
LINE
8
BLACK
6
CONTINUOUS
10
87.4107
20
-164.759
11
87.4107
21
-164.045
0
LINE
8
BLACK
6
CONTINUOUS
10
87.4107
20
-164.045
11
87.5536
21
-163.474
0
LINE
8
BLACK
6
CONTINUOUS
10
87.5536
20
-163.474
11
87.6964
21
-163.188
0
LINE
8
BLACK
6
CONTINUOUS
10
87.6964
20
-163.188
11
87.8393
21
-163.045
0
LINE
8
BLACK
6
CONTINUOUS
10
87.8393
20
-163.045
11
88.125
21
-162.902
0
LINE
8
BLACK
6
CONTINUOUS
10
90.4107
20
-165.616
11
90.5536
21
-165.759
0
LINE
8
BLACK
6
CONTINUOUS
10
90.5536
20
-165.759
11
90.4107
21
-165.902
0
LINE
8
BLACK
6
CONTINUOUS
10
90.4107
20
-165.902
11
90.2679
21
-165.759
0
LINE
8
BLACK
6
CONTINUOUS
10
90.2679
20
-165.759
11
90.4107
21
-165.616
0
LINE
8
BLACK
6
CONTINUOUS
10
90.4107
20
-165.616
11
90.4107
21
-165.902
0
LINE
8
BLACK
6
CONTINUOUS
10
92.4107
20
-162.902
11
92.6964
21
-162.902
0
LINE
8
BLACK
6
CONTINUOUS
10
92.6964
20
-162.902
11
92.9821
21
-163.045
0
LINE
8
BLACK
6
CONTINUOUS
10
92.9821
20
-163.045
11
93.125
21
-163.188
0
LINE
8
BLACK
6
CONTINUOUS
10
93.125
20
-163.188
11
93.2679
21
-163.474
0
LINE
8
BLACK
6
CONTINUOUS
10
93.2679
20
-163.474
11
93.4107
21
-164.045
0
LINE
8
BLACK
6
CONTINUOUS
10
93.4107
20
-164.045
11
93.4107
21
-164.759
0
LINE
8
BLACK
6
CONTINUOUS
10
93.4107
20
-164.759
11
93.2679
21
-165.331
0
LINE
8
BLACK
6
CONTINUOUS
10
93.2679
20
-165.331
11
93.125
21
-165.616
0
LINE
8
BLACK
6
CONTINUOUS
10
93.125
20
-165.616
11
92.9821
21
-165.759
0
LINE
8
BLACK
6
CONTINUOUS
10
92.9821
20
-165.759
11
92.6964
21
-165.902
0
LINE
8
BLACK
6
CONTINUOUS
10
92.6964
20
-165.902
11
92.4107
21
-165.902
0
LINE
8
BLACK
6
CONTINUOUS
10
92.4107
20
-165.902
11
92.125
21
-165.759
0
LINE
8
BLACK
6
CONTINUOUS
10
92.125
20
-165.759
11
91.9821
21
-165.616
0
LINE
8
BLACK
6
CONTINUOUS
10
91.9821
20
-165.616
11
91.8393
21
-165.331
0
LINE
8
BLACK
6
CONTINUOUS
10
91.8393
20
-165.331
11
91.6964
21
-164.759
0
LINE
8
BLACK
6
CONTINUOUS
10
91.6964
20
-164.759
11
91.6964
21
-164.045
0
LINE
8
BLACK
6
CONTINUOUS
10
91.6964
20
-164.045
11
91.8393
21
-163.474
0
LINE
8
BLACK
6
CONTINUOUS
10
91.8393
20
-163.474
11
91.9821
21
-163.188
0
LINE
8
BLACK
6
CONTINUOUS
10
91.9821
20
-163.188
11
92.125
21
-163.045
0
LINE
8
BLACK
6
CONTINUOUS
10
92.125
20
-163.045
11
92.4107
21
-162.902
0
LINE
8
BLACK
6
CONTINUOUS
10
95.9821
20
-163.902
11
95.9821
21
-165.902
0
LINE
8
BLACK
6
CONTINUOUS
10
95.2679
20
-162.759
11
94.5536
21
-164.902
0
LINE
8
BLACK
6
CONTINUOUS
10
94.5536
20
-164.902
11
96.4107
21
-164.902
0
LINE
8
BLACK
6
CONTINUOUS
10
97.4107
20
-163.188
11
97.5536
21
-163.045
0
LINE
8
BLACK
6
CONTINUOUS
10
97.5536
20
-163.045
11
97.8393
21
-162.902
0
LINE
8
BLACK
6
CONTINUOUS
10
97.8393
20
-162.902
11
98.5536
21
-162.902
0
LINE
8
BLACK
6
CONTINUOUS
10
98.5536
20
-162.902
11
98.8393
21
-163.045
0
LINE
8
BLACK
6
CONTINUOUS
10
98.8393
20
-163.045
11
98.9821
21
-163.188
0
LINE
8
BLACK
6
CONTINUOUS
10
98.9821
20
-163.188
11
99.125
21
-163.474
0
LINE
8
BLACK
6
CONTINUOUS
10
99.125
20
-163.474
11
99.125
21
-163.759
0
LINE
8
BLACK
6
CONTINUOUS
10
99.125
20
-163.759
11
98.9821
21
-164.188
0
LINE
8
BLACK
6
CONTINUOUS
10
98.9821
20
-164.188
11
97.2679
21
-165.902
0
LINE
8
BLACK
6
CONTINUOUS
10
97.2679
20
-165.902
11
99.125
21
-165.902
0
LINE
8
BLACK
6
CONTINUOUS
10
100.268
20
-162.902
11
100.268
21
-163.474
0
LINE
8
BLACK
6
CONTINUOUS
10
101.411
20
-162.902
11
101.411
21
-163.474
0
LINE
8
BLACK
6
CONTINUOUS
10
105.839
20
-167.045
11
105.696
21
-166.902
0
LINE
8
BLACK
6
CONTINUOUS
10
105.696
20
-166.902
11
105.411
21
-166.474
0
LINE
8
BLACK
6
CONTINUOUS
10
105.411
20
-166.474
11
105.268
21
-166.188
0
LINE
8
BLACK
6
CONTINUOUS
10
105.268
20
-166.188
11
105.125
21
-165.759
0
LINE
8
BLACK
6
CONTINUOUS
10
105.125
20
-165.759
11
104.982
21
-165.045
0
LINE
8
BLACK
6
CONTINUOUS
10
104.982
20
-165.045
11
104.982
21
-164.474
0
LINE
8
BLACK
6
CONTINUOUS
10
104.982
20
-164.474
11
105.125
21
-163.759
0
LINE
8
BLACK
6
CONTINUOUS
10
105.125
20
-163.759
11
105.268
21
-163.331
0
LINE
8
BLACK
6
CONTINUOUS
10
105.268
20
-163.331
11
105.411
21
-163.045
0
LINE
8
BLACK
6
CONTINUOUS
10
105.411
20
-163.045
11
105.696
21
-162.616
0
LINE
8
BLACK
6
CONTINUOUS
10
105.696
20
-162.616
11
105.839
21
-162.474
0
LINE
8
BLACK
6
CONTINUOUS
10
108.268
20
-163.902
11
108.268
21
-165.902
0
LINE
8
BLACK
6
CONTINUOUS
10
107.554
20
-162.759
11
106.839
21
-164.902
0
LINE
8
BLACK
6
CONTINUOUS
10
106.839
20
-164.902
11
108.696
21
-164.902
0
LINE
8
BLACK
6
CONTINUOUS
10
112.125
20
-165.902
11
112.125
21
-162.902
0
LINE
8
BLACK
6
CONTINUOUS
10
113.411
20
-165.902
11
113.411
21
-164.331
0
LINE
8
BLACK
6
CONTINUOUS
10
113.411
20
-164.331
11
113.268
21
-164.045
0
LINE
8
BLACK
6
CONTINUOUS
10
113.268
20
-164.045
11
112.982
21
-163.902
0
LINE
8
BLACK
6
CONTINUOUS
10
112.982
20
-163.902
11
112.554
21
-163.902
0
LINE
8
BLACK
6
CONTINUOUS
10
112.554
20
-163.902
11
112.268
21
-164.045
0
LINE
8
BLACK
6
CONTINUOUS
10
112.268
20
-164.045
11
112.125
21
-164.188
0
LINE
8
BLACK
6
CONTINUOUS
10
115.268
20
-165.902
11
114.982
21
-165.759
0
LINE
8
BLACK
6
CONTINUOUS
10
114.982
20
-165.759
11
114.839
21
-165.616
0
LINE
8
BLACK
6
CONTINUOUS
10
114.839
20
-165.616
11
114.696
21
-165.331
0
LINE
8
BLACK
6
CONTINUOUS
10
114.696
20
-165.331
11
114.696
21
-164.474
0
LINE
8
BLACK
6
CONTINUOUS
10
114.696
20
-164.474
11
114.839
21
-164.188
0
LINE
8
BLACK
6
CONTINUOUS
10
114.839
20
-164.188
11
114.982
21
-164.045
0
LINE
8
BLACK
6
CONTINUOUS
10
114.982
20
-164.045
11
115.268
21
-163.902
0
LINE
8
BLACK
6
CONTINUOUS
10
115.268
20
-163.902
11
115.696
21
-163.902
0
LINE
8
BLACK
6
CONTINUOUS
10
115.696
20
-163.902
11
115.982
21
-164.045
0
LINE
8
BLACK
6
CONTINUOUS
10
115.982
20
-164.045
11
116.125
21
-164.188
0
LINE
8
BLACK
6
CONTINUOUS
10
116.125
20
-164.188
11
116.268
21
-164.474
0
LINE
8
BLACK
6
CONTINUOUS
10
116.268
20
-164.474
11
116.268
21
-165.331
0
LINE
8
BLACK
6
CONTINUOUS
10
116.268
20
-165.331
11
116.125
21
-165.616
0
LINE
8
BLACK
6
CONTINUOUS
10
116.125
20
-165.616
11
115.982
21
-165.759
0
LINE
8
BLACK
6
CONTINUOUS
10
115.982
20
-165.759
11
115.696
21
-165.902
0
LINE
8
BLACK
6
CONTINUOUS
10
115.696
20
-165.902
11
115.268
21
-165.902
0
LINE
8
BLACK
6
CONTINUOUS
10
117.982
20
-165.902
11
117.696
21
-165.759
0
LINE
8
BLACK
6
CONTINUOUS
10
117.696
20
-165.759
11
117.554
21
-165.474
0
LINE
8
BLACK
6
CONTINUOUS
10
117.554
20
-165.474
11
117.554
21
-162.902
0
LINE
8
BLACK
6
CONTINUOUS
10
120.268
20
-165.759
11
119.982
21
-165.902
0
LINE
8
BLACK
6
CONTINUOUS
10
119.982
20
-165.902
11
119.411
21
-165.902
0
LINE
8
BLACK
6
CONTINUOUS
10
119.411
20
-165.902
11
119.125
21
-165.759
0
LINE
8
BLACK
6
CONTINUOUS
10
119.125
20
-165.759
11
118.982
21
-165.474
0
LINE
8
BLACK
6
CONTINUOUS
10
118.982
20
-165.474
11
118.982
21
-164.331
0
LINE
8
BLACK
6
CONTINUOUS
10
118.982
20
-164.331
11
119.125
21
-164.045
0
LINE
8
BLACK
6
CONTINUOUS
10
119.125
20
-164.045
11
119.411
21
-163.902
0
LINE
8
BLACK
6
CONTINUOUS
10
119.411
20
-163.902
11
119.982
21
-163.902
0
LINE
8
BLACK
6
CONTINUOUS
10
119.982
20
-163.902
11
120.268
21
-164.045
0
LINE
8
BLACK
6
CONTINUOUS
10
120.268
20
-164.045
11
120.411
21
-164.331
0
LINE
8
BLACK
6
CONTINUOUS
10
120.411
20
-164.331
11
120.411
21
-164.616
0
LINE
8
BLACK
6
CONTINUOUS
10
120.411
20
-164.616
11
118.982
21
-164.902
0
LINE
8
BLACK
6
CONTINUOUS
10
121.554
20
-165.759
11
121.839
21
-165.902
0
LINE
8
BLACK
6
CONTINUOUS
10
121.839
20
-165.902
11
122.411
21
-165.902
0
LINE
8
BLACK
6
CONTINUOUS
10
122.411
20
-165.902
11
122.696
21
-165.759
0
LINE
8
BLACK
6
CONTINUOUS
10
122.696
20
-165.759
11
122.839
21
-165.474
0
LINE
8
BLACK
6
CONTINUOUS
10
122.839
20
-165.474
11
122.839
21
-165.331
0
LINE
8
BLACK
6
CONTINUOUS
10
122.839
20
-165.331
11
122.696
21
-165.045
0
LINE
8
BLACK
6
CONTINUOUS
10
122.696
20
-165.045
11
122.411
21
-164.902
0
LINE
8
BLACK
6
CONTINUOUS
10
122.411
20
-164.902
11
121.982
21
-164.902
0
LINE
8
BLACK
6
CONTINUOUS
10
121.982
20
-164.902
11
121.696
21
-164.759
0
LINE
8
BLACK
6
CONTINUOUS
10
121.696
20
-164.759
11
121.554
21
-164.474
0
LINE
8
BLACK
6
CONTINUOUS
10
121.554
20
-164.474
11
121.554
21
-164.331
0
LINE
8
BLACK
6
CONTINUOUS
10
121.554
20
-164.331
11
121.696
21
-164.045
0
LINE
8
BLACK
6
CONTINUOUS
10
121.696
20
-164.045
11
121.982
21
-163.902
0
LINE
8
BLACK
6
CONTINUOUS
10
121.982
20
-163.902
11
122.411
21
-163.902
0
LINE
8
BLACK
6
CONTINUOUS
10
122.411
20
-163.902
11
122.696
21
-164.045
0
LINE
8
BLACK
6
CONTINUOUS
10
123.839
20
-167.045
11
123.982
21
-166.902
0
LINE
8
BLACK
6
CONTINUOUS
10
123.982
20
-166.902
11
124.268
21
-166.474
0
LINE
8
BLACK
6
CONTINUOUS
10
124.268
20
-166.474
11
124.411
21
-166.188
0
LINE
8
BLACK
6
CONTINUOUS
10
124.411
20
-166.188
11
124.554
21
-165.759
0
LINE
8
BLACK
6
CONTINUOUS
10
124.554
20
-165.759
11
124.696
21
-165.045
0
LINE
8
BLACK
6
CONTINUOUS
10
124.696
20
-165.045
11
124.696
21
-164.474
0
LINE
8
BLACK
6
CONTINUOUS
10
124.696
20
-164.474
11
124.554
21
-163.759
0
LINE
8
BLACK
6
CONTINUOUS
10
124.554
20
-163.759
11
124.411
21
-163.331
0
LINE
8
BLACK
6
CONTINUOUS
10
124.411
20
-163.331
11
124.268
21
-163.045
0
LINE
8
BLACK
6
CONTINUOUS
10
124.268
20
-163.045
11
123.982
21
-162.616
0
LINE
8
BLACK
6
CONTINUOUS
10
123.982
20
-162.616
11
123.839
21
-162.474
0
LINE
8
BLACK
6
CONTINUOUS
10
58.7994
20
-168.929
11
58.7994
21
-168.081
0
LINE
8
BLACK
6
CONTINUOUS
10
58.7994
20
-168.081
11
57.9517
21
-168.081
0
LINE
8
BLACK
6
CONTINUOUS
10
57.9517
20
-168.081
11
57.9517
21
-168.929
0
LINE
8
BLACK
6
CONTINUOUS
10
57.9517
20
-168.929
11
58.7994
21
-168.929
0
LINE
8
BLACK
6
CONTINUOUS
10
63.4107
20
-169.862
11
61.6964
21
-169.862
0
LINE
8
BLACK
6
CONTINUOUS
10
62.5536
20
-169.862
11
62.5536
21
-166.862
0
LINE
8
BLACK
6
CONTINUOUS
10
62.5536
20
-166.862
11
62.2679
21
-167.291
0
LINE
8
BLACK
6
CONTINUOUS
10
62.2679
20
-167.291
11
61.9821
21
-167.576
0
LINE
8
BLACK
6
CONTINUOUS
10
61.9821
20
-167.576
11
61.6964
21
-167.719
0
LINE
8
BLACK
6
CONTINUOUS
10
64.6964
20
-169.576
11
64.8393
21
-169.719
0
LINE
8
BLACK
6
CONTINUOUS
10
64.8393
20
-169.719
11
64.6964
21
-169.862
0
LINE
8
BLACK
6
CONTINUOUS
10
64.6964
20
-169.862
11
64.5536
21
-169.719
0
LINE
8
BLACK
6
CONTINUOUS
10
64.5536
20
-169.719
11
64.6964
21
-169.576
0
LINE
8
BLACK
6
CONTINUOUS
10
64.6964
20
-169.576
11
64.6964
21
-169.862
0
LINE
8
BLACK
6
CONTINUOUS
10
65.9821
20
-167.148
11
66.125
21
-167.005
0
LINE
8
BLACK
6
CONTINUOUS
10
66.125
20
-167.005
11
66.4107
21
-166.862
0
LINE
8
BLACK
6
CONTINUOUS
10
66.4107
20
-166.862
11
67.125
21
-166.862
0
LINE
8
BLACK
6
CONTINUOUS
10
67.125
20
-166.862
11
67.4107
21
-167.005
0
LINE
8
BLACK
6
CONTINUOUS
10
67.4107
20
-167.005
11
67.5536
21
-167.148
0
LINE
8
BLACK
6
CONTINUOUS
10
67.5536
20
-167.148
11
67.6964
21
-167.434
0
LINE
8
BLACK
6
CONTINUOUS
10
67.6964
20
-167.434
11
67.6964
21
-167.719
0
LINE
8
BLACK
6
CONTINUOUS
10
67.6964
20
-167.719
11
67.5536
21
-168.148
0
LINE
8
BLACK
6
CONTINUOUS
10
67.5536
20
-168.148
11
65.8393
21
-169.862
0
LINE
8
BLACK
6
CONTINUOUS
10
65.8393
20
-169.862
11
67.6964
21
-169.862
0
LINE
8
BLACK
6
CONTINUOUS
10
69.5536
20
-166.862
11
69.8393
21
-166.862
0
LINE
8
BLACK
6
CONTINUOUS
10
69.8393
20
-166.862
11
70.125
21
-167.005
0
LINE
8
BLACK
6
CONTINUOUS
10
70.125
20
-167.005
11
70.2679
21
-167.148
0
LINE
8
BLACK
6
CONTINUOUS
10
70.2679
20
-167.148
11
70.4107
21
-167.434
0
LINE
8
BLACK
6
CONTINUOUS
10
70.4107
20
-167.434
11
70.5536
21
-168.005
0
LINE
8
BLACK
6
CONTINUOUS
10
70.5536
20
-168.005
11
70.5536
21
-168.719
0
LINE
8
BLACK
6
CONTINUOUS
10
70.5536
20
-168.719
11
70.4107
21
-169.291
0
LINE
8
BLACK
6
CONTINUOUS
10
70.4107
20
-169.291
11
70.2679
21
-169.576
0
LINE
8
BLACK
6
CONTINUOUS
10
70.2679
20
-169.576
11
70.125
21
-169.719
0
LINE
8
BLACK
6
CONTINUOUS
10
70.125
20
-169.719
11
69.8393
21
-169.862
0
LINE
8
BLACK
6
CONTINUOUS
10
69.8393
20
-169.862
11
69.5536
21
-169.862
0
LINE
8
BLACK
6
CONTINUOUS
10
69.5536
20
-169.862
11
69.2679
21
-169.719
0
LINE
8
BLACK
6
CONTINUOUS
10
69.2679
20
-169.719
11
69.125
21
-169.576
0
LINE
8
BLACK
6
CONTINUOUS
10
69.125
20
-169.576
11
68.9821
21
-169.291
0
LINE
8
BLACK
6
CONTINUOUS
10
68.9821
20
-169.291
11
68.8393
21
-168.719
0
LINE
8
BLACK
6
CONTINUOUS
10
68.8393
20
-168.719
11
68.8393
21
-168.005
0
LINE
8
BLACK
6
CONTINUOUS
10
68.8393
20
-168.005
11
68.9821
21
-167.434
0
LINE
8
BLACK
6
CONTINUOUS
10
68.9821
20
-167.434
11
69.125
21
-167.148
0
LINE
8
BLACK
6
CONTINUOUS
10
69.125
20
-167.148
11
69.2679
21
-167.005
0
LINE
8
BLACK
6
CONTINUOUS
10
69.2679
20
-167.005
11
69.5536
21
-166.862
0
LINE
8
BLACK
6
CONTINUOUS
10
71.8393
20
-169.862
11
71.8393
21
-167.862
0
LINE
8
BLACK
6
CONTINUOUS
10
71.8393
20
-168.148
11
71.9821
21
-168.005
0
LINE
8
BLACK
6
CONTINUOUS
10
71.9821
20
-168.005
11
72.2679
21
-167.862
0
LINE
8
BLACK
6
CONTINUOUS
10
72.2679
20
-167.862
11
72.6964
21
-167.862
0
LINE
8
BLACK
6
CONTINUOUS
10
72.6964
20
-167.862
11
72.9821
21
-168.005
0
LINE
8
BLACK
6
CONTINUOUS
10
72.9821
20
-168.005
11
73.125
21
-168.291
0
LINE
8
BLACK
6
CONTINUOUS
10
73.125
20
-168.291
11
73.125
21
-169.862
0
LINE
8
BLACK
6
CONTINUOUS
10
73.125
20
-168.291
11
73.2679
21
-168.005
0
LINE
8
BLACK
6
CONTINUOUS
10
73.2679
20
-168.005
11
73.5536
21
-167.862
0
LINE
8
BLACK
6
CONTINUOUS
10
73.5536
20
-167.862
11
73.9821
21
-167.862
0
LINE
8
BLACK
6
CONTINUOUS
10
73.9821
20
-167.862
11
74.2679
21
-168.005
0
LINE
8
BLACK
6
CONTINUOUS
10
74.2679
20
-168.005
11
74.4107
21
-168.291
0
LINE
8
BLACK
6
CONTINUOUS
10
74.4107
20
-168.291
11
74.4107
21
-169.862
0
LINE
8
BLACK
6
CONTINUOUS
10
75.8393
20
-169.862
11
75.8393
21
-167.862
0
LINE
8
BLACK
6
CONTINUOUS
10
75.8393
20
-168.148
11
75.9821
21
-168.005
0
LINE
8
BLACK
6
CONTINUOUS
10
75.9821
20
-168.005
11
76.2679
21
-167.862
0
LINE
8
BLACK
6
CONTINUOUS
10
76.2679
20
-167.862
11
76.6964
21
-167.862
0
LINE
8
BLACK
6
CONTINUOUS
10
76.6964
20
-167.862
11
76.9821
21
-168.005
0
LINE
8
BLACK
6
CONTINUOUS
10
76.9821
20
-168.005
11
77.125
21
-168.291
0
LINE
8
BLACK
6
CONTINUOUS
10
77.125
20
-168.291
11
77.125
21
-169.862
0
LINE
8
BLACK
6
CONTINUOUS
10
77.125
20
-168.291
11
77.2679
21
-168.005
0
LINE
8
BLACK
6
CONTINUOUS
10
77.2679
20
-168.005
11
77.5536
21
-167.862
0
LINE
8
BLACK
6
CONTINUOUS
10
77.5536
20
-167.862
11
77.9821
21
-167.862
0
LINE
8
BLACK
6
CONTINUOUS
10
77.9821
20
-167.862
11
78.2679
21
-168.005
0
LINE
8
BLACK
6
CONTINUOUS
10
78.2679
20
-168.005
11
78.4107
21
-168.291
0
LINE
8
BLACK
6
CONTINUOUS
10
78.4107
20
-168.291
11
78.4107
21
-169.862
0
LINE
8
BLACK
6
CONTINUOUS
10
84.2679
20
-166.719
11
81.6964
21
-170.576
0
LINE
8
BLACK
6
CONTINUOUS
10
88.125
20
-166.862
11
88.4107
21
-166.862
0
LINE
8
BLACK
6
CONTINUOUS
10
88.4107
20
-166.862
11
88.6964
21
-167.005
0
LINE
8
BLACK
6
CONTINUOUS
10
88.6964
20
-167.005
11
88.8393
21
-167.148
0
LINE
8
BLACK
6
CONTINUOUS
10
88.8393
20
-167.148
11
88.9821
21
-167.434
0
LINE
8
BLACK
6
CONTINUOUS
10
88.9821
20
-167.434
11
89.125
21
-168.005
0
LINE
8
BLACK
6
CONTINUOUS
10
89.125
20
-168.005
11
89.125
21
-168.719
0
LINE
8
BLACK
6
CONTINUOUS
10
89.125
20
-168.719
11
88.9821
21
-169.291
0
LINE
8
BLACK
6
CONTINUOUS
10
88.9821
20
-169.291
11
88.8393
21
-169.576
0
LINE
8
BLACK
6
CONTINUOUS
10
88.8393
20
-169.576
11
88.6964
21
-169.719
0
LINE
8
BLACK
6
CONTINUOUS
10
88.6964
20
-169.719
11
88.4107
21
-169.862
0
LINE
8
BLACK
6
CONTINUOUS
10
88.4107
20
-169.862
11
88.125
21
-169.862
0
LINE
8
BLACK
6
CONTINUOUS
10
88.125
20
-169.862
11
87.8393
21
-169.719
0
LINE
8
BLACK
6
CONTINUOUS
10
87.8393
20
-169.719
11
87.6964
21
-169.576
0
LINE
8
BLACK
6
CONTINUOUS
10
87.6964
20
-169.576
11
87.5536
21
-169.291
0
LINE
8
BLACK
6
CONTINUOUS
10
87.5536
20
-169.291
11
87.4107
21
-168.719
0
LINE
8
BLACK
6
CONTINUOUS
10
87.4107
20
-168.719
11
87.4107
21
-168.005
0
LINE
8
BLACK
6
CONTINUOUS
10
87.4107
20
-168.005
11
87.5536
21
-167.434
0
LINE
8
BLACK
6
CONTINUOUS
10
87.5536
20
-167.434
11
87.6964
21
-167.148
0
LINE
8
BLACK
6
CONTINUOUS
10
87.6964
20
-167.148
11
87.8393
21
-167.005
0
LINE
8
BLACK
6
CONTINUOUS
10
87.8393
20
-167.005
11
88.125
21
-166.862
0
LINE
8
BLACK
6
CONTINUOUS
10
90.4107
20
-169.576
11
90.5536
21
-169.719
0
LINE
8
BLACK
6
CONTINUOUS
10
90.5536
20
-169.719
11
90.4107
21
-169.862
0
LINE
8
BLACK
6
CONTINUOUS
10
90.4107
20
-169.862
11
90.2679
21
-169.719
0
LINE
8
BLACK
6
CONTINUOUS
10
90.2679
20
-169.719
11
90.4107
21
-169.576
0
LINE
8
BLACK
6
CONTINUOUS
10
90.4107
20
-169.576
11
90.4107
21
-169.862
0
LINE
8
BLACK
6
CONTINUOUS
10
92.4107
20
-166.862
11
92.6964
21
-166.862
0
LINE
8
BLACK
6
CONTINUOUS
10
92.6964
20
-166.862
11
92.9821
21
-167.005
0
LINE
8
BLACK
6
CONTINUOUS
10
92.9821
20
-167.005
11
93.125
21
-167.148
0
LINE
8
BLACK
6
CONTINUOUS
10
93.125
20
-167.148
11
93.2679
21
-167.434
0
LINE
8
BLACK
6
CONTINUOUS
10
93.2679
20
-167.434
11
93.4107
21
-168.005
0
LINE
8
BLACK
6
CONTINUOUS
10
93.4107
20
-168.005
11
93.4107
21
-168.719
0
LINE
8
BLACK
6
CONTINUOUS
10
93.4107
20
-168.719
11
93.2679
21
-169.291
0
LINE
8
BLACK
6
CONTINUOUS
10
93.2679
20
-169.291
11
93.125
21
-169.576
0
LINE
8
BLACK
6
CONTINUOUS
10
93.125
20
-169.576
11
92.9821
21
-169.719
0
LINE
8
BLACK
6
CONTINUOUS
10
92.9821
20
-169.719
11
92.6964
21
-169.862
0
LINE
8
BLACK
6
CONTINUOUS
10
92.6964
20
-169.862
11
92.4107
21
-169.862
0
LINE
8
BLACK
6
CONTINUOUS
10
92.4107
20
-169.862
11
92.125
21
-169.719
0
LINE
8
BLACK
6
CONTINUOUS
10
92.125
20
-169.719
11
91.9821
21
-169.576
0
LINE
8
BLACK
6
CONTINUOUS
10
91.9821
20
-169.576
11
91.8393
21
-169.291
0
LINE
8
BLACK
6
CONTINUOUS
10
91.8393
20
-169.291
11
91.6964
21
-168.719
0
LINE
8
BLACK
6
CONTINUOUS
10
91.6964
20
-168.719
11
91.6964
21
-168.005
0
LINE
8
BLACK
6
CONTINUOUS
10
91.6964
20
-168.005
11
91.8393
21
-167.434
0
LINE
8
BLACK
6
CONTINUOUS
10
91.8393
20
-167.434
11
91.9821
21
-167.148
0
LINE
8
BLACK
6
CONTINUOUS
10
91.9821
20
-167.148
11
92.125
21
-167.005
0
LINE
8
BLACK
6
CONTINUOUS
10
92.125
20
-167.005
11
92.4107
21
-166.862
0
LINE
8
BLACK
6
CONTINUOUS
10
95.9821
20
-167.862
11
95.9821
21
-169.862
0
LINE
8
BLACK
6
CONTINUOUS
10
95.2679
20
-166.719
11
94.5536
21
-168.862
0
LINE
8
BLACK
6
CONTINUOUS
10
94.5536
20
-168.862
11
96.4107
21
-168.862
0
LINE
8
BLACK
6
CONTINUOUS
10
97.2679
20
-166.862
11
99.2679
21
-166.862
0
LINE
8
BLACK
6
CONTINUOUS
10
99.2679
20
-166.862
11
97.9821
21
-169.862
0
LINE
8
BLACK
6
CONTINUOUS
10
100.268
20
-166.862
11
100.268
21
-167.434
0
LINE
8
BLACK
6
CONTINUOUS
10
101.411
20
-166.862
11
101.411
21
-167.434
0
LINE
8
BLACK
6
CONTINUOUS
10
105.839
20
-171.005
11
105.696
21
-170.862
0
LINE
8
BLACK
6
CONTINUOUS
10
105.696
20
-170.862
11
105.411
21
-170.434
0
LINE
8
BLACK
6
CONTINUOUS
10
105.411
20
-170.434
11
105.268
21
-170.148
0
LINE
8
BLACK
6
CONTINUOUS
10
105.268
20
-170.148
11
105.125
21
-169.719
0
LINE
8
BLACK
6
CONTINUOUS
10
105.125
20
-169.719
11
104.982
21
-169.005
0
LINE
8
BLACK
6
CONTINUOUS
10
104.982
20
-169.005
11
104.982
21
-168.434
0
LINE
8
BLACK
6
CONTINUOUS
10
104.982
20
-168.434
11
105.125
21
-167.719
0
LINE
8
BLACK
6
CONTINUOUS
10
105.125
20
-167.719
11
105.268
21
-167.291
0
LINE
8
BLACK
6
CONTINUOUS
10
105.268
20
-167.291
11
105.411
21
-167.005
0
LINE
8
BLACK
6
CONTINUOUS
10
105.411
20
-167.005
11
105.696
21
-166.576
0
LINE
8
BLACK
6
CONTINUOUS
10
105.696
20
-166.576
11
105.839
21
-166.434
0
LINE
8
BLACK
6
CONTINUOUS
10
106.839
20
-167.148
11
106.982
21
-167.005
0
LINE
8
BLACK
6
CONTINUOUS
10
106.982
20
-167.005
11
107.268
21
-166.862
0
LINE
8
BLACK
6
CONTINUOUS
10
107.268
20
-166.862
11
107.982
21
-166.862
0
LINE
8
BLACK
6
CONTINUOUS
10
107.982
20
-166.862
11
108.268
21
-167.005
0
LINE
8
BLACK
6
CONTINUOUS
10
108.268
20
-167.005
11
108.411
21
-167.148
0
LINE
8
BLACK
6
CONTINUOUS
10
108.411
20
-167.148
11
108.554
21
-167.434
0
LINE
8
BLACK
6
CONTINUOUS
10
108.554
20
-167.434
11
108.554
21
-167.719
0
LINE
8
BLACK
6
CONTINUOUS
10
108.554
20
-167.719
11
108.411
21
-168.148
0
LINE
8
BLACK
6
CONTINUOUS
10
108.411
20
-168.148
11
106.696
21
-169.862
0
LINE
8
BLACK
6
CONTINUOUS
10
106.696
20
-169.862
11
108.554
21
-169.862
0
LINE
8
BLACK
6
CONTINUOUS
10
112.125
20
-169.862
11
112.125
21
-166.862
0
LINE
8
BLACK
6
CONTINUOUS
10
113.411
20
-169.862
11
113.411
21
-168.291
0
LINE
8
BLACK
6
CONTINUOUS
10
113.411
20
-168.291
11
113.268
21
-168.005
0
LINE
8
BLACK
6
CONTINUOUS
10
113.268
20
-168.005
11
112.982
21
-167.862
0
LINE
8
BLACK
6
CONTINUOUS
10
112.982
20
-167.862
11
112.554
21
-167.862
0
LINE
8
BLACK
6
CONTINUOUS
10
112.554
20
-167.862
11
112.268
21
-168.005
0
LINE
8
BLACK
6
CONTINUOUS
10
112.268
20
-168.005
11
112.125
21
-168.148
0
LINE
8
BLACK
6
CONTINUOUS
10
115.268
20
-169.862
11
114.982
21
-169.719
0
LINE
8
BLACK
6
CONTINUOUS
10
114.982
20
-169.719
11
114.839
21
-169.576
0
LINE
8
BLACK
6
CONTINUOUS
10
114.839
20
-169.576
11
114.696
21
-169.291
0
LINE
8
BLACK
6
CONTINUOUS
10
114.696
20
-169.291
11
114.696
21
-168.434
0
LINE
8
BLACK
6
CONTINUOUS
10
114.696
20
-168.434
11
114.839
21
-168.148
0
LINE
8
BLACK
6
CONTINUOUS
10
114.839
20
-168.148
11
114.982
21
-168.005
0
LINE
8
BLACK
6
CONTINUOUS
10
114.982
20
-168.005
11
115.268
21
-167.862
0
LINE
8
BLACK
6
CONTINUOUS
10
115.268
20
-167.862
11
115.696
21
-167.862
0
LINE
8
BLACK
6
CONTINUOUS
10
115.696
20
-167.862
11
115.982
21
-168.005
0
LINE
8
BLACK
6
CONTINUOUS
10
115.982
20
-168.005
11
116.125
21
-168.148
0
LINE
8
BLACK
6
CONTINUOUS
10
116.125
20
-168.148
11
116.268
21
-168.434
0
LINE
8
BLACK
6
CONTINUOUS
10
116.268
20
-168.434
11
116.268
21
-169.291
0
LINE
8
BLACK
6
CONTINUOUS
10
116.268
20
-169.291
11
116.125
21
-169.576
0
LINE
8
BLACK
6
CONTINUOUS
10
116.125
20
-169.576
11
115.982
21
-169.719
0
LINE
8
BLACK
6
CONTINUOUS
10
115.982
20
-169.719
11
115.696
21
-169.862
0
LINE
8
BLACK
6
CONTINUOUS
10
115.696
20
-169.862
11
115.268
21
-169.862
0
LINE
8
BLACK
6
CONTINUOUS
10
117.982
20
-169.862
11
117.696
21
-169.719
0
LINE
8
BLACK
6
CONTINUOUS
10
117.696
20
-169.719
11
117.554
21
-169.434
0
LINE
8
BLACK
6
CONTINUOUS
10
117.554
20
-169.434
11
117.554
21
-166.862
0
LINE
8
BLACK
6
CONTINUOUS
10
120.268
20
-169.719
11
119.982
21
-169.862
0
LINE
8
BLACK
6
CONTINUOUS
10
119.982
20
-169.862
11
119.411
21
-169.862
0
LINE
8
BLACK
6
CONTINUOUS
10
119.411
20
-169.862
11
119.125
21
-169.719
0
LINE
8
BLACK
6
CONTINUOUS
10
119.125
20
-169.719
11
118.982
21
-169.434
0
LINE
8
BLACK
6
CONTINUOUS
10
118.982
20
-169.434
11
118.982
21
-168.291
0
LINE
8
BLACK
6
CONTINUOUS
10
118.982
20
-168.291
11
119.125
21
-168.005
0
LINE
8
BLACK
6
CONTINUOUS
10
119.125
20
-168.005
11
119.411
21
-167.862
0
LINE
8
BLACK
6
CONTINUOUS
10
119.411
20
-167.862
11
119.982
21
-167.862
0
LINE
8
BLACK
6
CONTINUOUS
10
119.982
20
-167.862
11
120.268
21
-168.005
0
LINE
8
BLACK
6
CONTINUOUS
10
120.268
20
-168.005
11
120.411
21
-168.291
0
LINE
8
BLACK
6
CONTINUOUS
10
120.411
20
-168.291
11
120.411
21
-168.576
0
LINE
8
BLACK
6
CONTINUOUS
10
120.411
20
-168.576
11
118.982
21
-168.862
0
LINE
8
BLACK
6
CONTINUOUS
10
121.554
20
-169.719
11
121.839
21
-169.862
0
LINE
8
BLACK
6
CONTINUOUS
10
121.839
20
-169.862
11
122.411
21
-169.862
0
LINE
8
BLACK
6
CONTINUOUS
10
122.411
20
-169.862
11
122.696
21
-169.719
0
LINE
8
BLACK
6
CONTINUOUS
10
122.696
20
-169.719
11
122.839
21
-169.434
0
LINE
8
BLACK
6
CONTINUOUS
10
122.839
20
-169.434
11
122.839
21
-169.291
0
LINE
8
BLACK
6
CONTINUOUS
10
122.839
20
-169.291
11
122.696
21
-169.005
0
LINE
8
BLACK
6
CONTINUOUS
10
122.696
20
-169.005
11
122.411
21
-168.862
0
LINE
8
BLACK
6
CONTINUOUS
10
122.411
20
-168.862
11
121.982
21
-168.862
0
LINE
8
BLACK
6
CONTINUOUS
10
121.982
20
-168.862
11
121.696
21
-168.719
0
LINE
8
BLACK
6
CONTINUOUS
10
121.696
20
-168.719
11
121.554
21
-168.434
0
LINE
8
BLACK
6
CONTINUOUS
10
121.554
20
-168.434
11
121.554
21
-168.291
0
LINE
8
BLACK
6
CONTINUOUS
10
121.554
20
-168.291
11
121.696
21
-168.005
0
LINE
8
BLACK
6
CONTINUOUS
10
121.696
20
-168.005
11
121.982
21
-167.862
0
LINE
8
BLACK
6
CONTINUOUS
10
121.982
20
-167.862
11
122.411
21
-167.862
0
LINE
8
BLACK
6
CONTINUOUS
10
122.411
20
-167.862
11
122.696
21
-168.005
0
LINE
8
BLACK
6
CONTINUOUS
10
123.839
20
-171.005
11
123.982
21
-170.862
0
LINE
8
BLACK
6
CONTINUOUS
10
123.982
20
-170.862
11
124.268
21
-170.434
0
LINE
8
BLACK
6
CONTINUOUS
10
124.268
20
-170.434
11
124.411
21
-170.148
0
LINE
8
BLACK
6
CONTINUOUS
10
124.411
20
-170.148
11
124.554
21
-169.719
0
LINE
8
BLACK
6
CONTINUOUS
10
124.554
20
-169.719
11
124.696
21
-169.005
0
LINE
8
BLACK
6
CONTINUOUS
10
124.696
20
-169.005
11
124.696
21
-168.434
0
LINE
8
BLACK
6
CONTINUOUS
10
124.696
20
-168.434
11
124.554
21
-167.719
0
LINE
8
BLACK
6
CONTINUOUS
10
124.554
20
-167.719
11
124.411
21
-167.291
0
LINE
8
BLACK
6
CONTINUOUS
10
124.411
20
-167.291
11
124.268
21
-167.005
0
LINE
8
BLACK
6
CONTINUOUS
10
124.268
20
-167.005
11
123.982
21
-166.576
0
LINE
8
BLACK
6
CONTINUOUS
10
123.982
20
-166.576
11
123.839
21
-166.434
0
LINE
8
BLACK
6
CONTINUOUS
10
58.375
20
-173.065
11
58.975
21
-172.465
0
LINE
8
BLACK
6
CONTINUOUS
10
58.975
20
-172.465
11
58.375
21
-171.865
0
LINE
8
BLACK
6
CONTINUOUS
10
58.375
20
-171.865
11
57.775
21
-172.465
0
LINE
8
BLACK
6
CONTINUOUS
10
57.775
20
-172.465
11
58.375
21
-173.065
0
LINE
8
BLACK
6
CONTINUOUS
10
63.4107
20
-173.822
11
61.6964
21
-173.822
0
LINE
8
BLACK
6
CONTINUOUS
10
62.5536
20
-173.822
11
62.5536
21
-170.822
0
LINE
8
BLACK
6
CONTINUOUS
10
62.5536
20
-170.822
11
62.2679
21
-171.251
0
LINE
8
BLACK
6
CONTINUOUS
10
62.2679
20
-171.251
11
61.9821
21
-171.536
0
LINE
8
BLACK
6
CONTINUOUS
10
61.9821
20
-171.536
11
61.6964
21
-171.679
0
LINE
8
BLACK
6
CONTINUOUS
10
64.6964
20
-173.536
11
64.8393
21
-173.679
0
LINE
8
BLACK
6
CONTINUOUS
10
64.8393
20
-173.679
11
64.6964
21
-173.822
0
LINE
8
BLACK
6
CONTINUOUS
10
64.6964
20
-173.822
11
64.5536
21
-173.679
0
LINE
8
BLACK
6
CONTINUOUS
10
64.5536
20
-173.679
11
64.6964
21
-173.536
0
LINE
8
BLACK
6
CONTINUOUS
10
64.6964
20
-173.536
11
64.6964
21
-173.822
0
LINE
8
BLACK
6
CONTINUOUS
10
65.9821
20
-171.108
11
66.125
21
-170.965
0
LINE
8
BLACK
6
CONTINUOUS
10
66.125
20
-170.965
11
66.4107
21
-170.822
0
LINE
8
BLACK
6
CONTINUOUS
10
66.4107
20
-170.822
11
67.125
21
-170.822
0
LINE
8
BLACK
6
CONTINUOUS
10
67.125
20
-170.822
11
67.4107
21
-170.965
0
LINE
8
BLACK
6
CONTINUOUS
10
67.4107
20
-170.965
11
67.5536
21
-171.108
0
LINE
8
BLACK
6
CONTINUOUS
10
67.5536
20
-171.108
11
67.6964
21
-171.394
0
LINE
8
BLACK
6
CONTINUOUS
10
67.6964
20
-171.394
11
67.6964
21
-171.679
0
LINE
8
BLACK
6
CONTINUOUS
10
67.6964
20
-171.679
11
67.5536
21
-172.108
0
LINE
8
BLACK
6
CONTINUOUS
10
67.5536
20
-172.108
11
65.8393
21
-173.822
0
LINE
8
BLACK
6
CONTINUOUS
10
65.8393
20
-173.822
11
67.6964
21
-173.822
0
LINE
8
BLACK
6
CONTINUOUS
10
69.5536
20
-170.822
11
69.8393
21
-170.822
0
LINE
8
BLACK
6
CONTINUOUS
10
69.8393
20
-170.822
11
70.125
21
-170.965
0
LINE
8
BLACK
6
CONTINUOUS
10
70.125
20
-170.965
11
70.2679
21
-171.108
0
LINE
8
BLACK
6
CONTINUOUS
10
70.2679
20
-171.108
11
70.4107
21
-171.394
0
LINE
8
BLACK
6
CONTINUOUS
10
70.4107
20
-171.394
11
70.5536
21
-171.965
0
LINE
8
BLACK
6
CONTINUOUS
10
70.5536
20
-171.965
11
70.5536
21
-172.679
0
LINE
8
BLACK
6
CONTINUOUS
10
70.5536
20
-172.679
11
70.4107
21
-173.251
0
LINE
8
BLACK
6
CONTINUOUS
10
70.4107
20
-173.251
11
70.2679
21
-173.536
0
LINE
8
BLACK
6
CONTINUOUS
10
70.2679
20
-173.536
11
70.125
21
-173.679
0
LINE
8
BLACK
6
CONTINUOUS
10
70.125
20
-173.679
11
69.8393
21
-173.822
0
LINE
8
BLACK
6
CONTINUOUS
10
69.8393
20
-173.822
11
69.5536
21
-173.822
0
LINE
8
BLACK
6
CONTINUOUS
10
69.5536
20
-173.822
11
69.2679
21
-173.679
0
LINE
8
BLACK
6
CONTINUOUS
10
69.2679
20
-173.679
11
69.125
21
-173.536
0
LINE
8
BLACK
6
CONTINUOUS
10
69.125
20
-173.536
11
68.9821
21
-173.251
0
LINE
8
BLACK
6
CONTINUOUS
10
68.9821
20
-173.251
11
68.8393
21
-172.679
0
LINE
8
BLACK
6
CONTINUOUS
10
68.8393
20
-172.679
11
68.8393
21
-171.965
0
LINE
8
BLACK
6
CONTINUOUS
10
68.8393
20
-171.965
11
68.9821
21
-171.394
0
LINE
8
BLACK
6
CONTINUOUS
10
68.9821
20
-171.394
11
69.125
21
-171.108
0
LINE
8
BLACK
6
CONTINUOUS
10
69.125
20
-171.108
11
69.2679
21
-170.965
0
LINE
8
BLACK
6
CONTINUOUS
10
69.2679
20
-170.965
11
69.5536
21
-170.822
0
LINE
8
BLACK
6
CONTINUOUS
10
71.8393
20
-173.822
11
71.8393
21
-171.822
0
LINE
8
BLACK
6
CONTINUOUS
10
71.8393
20
-172.108
11
71.9821
21
-171.965
0
LINE
8
BLACK
6
CONTINUOUS
10
71.9821
20
-171.965
11
72.2679
21
-171.822
0
LINE
8
BLACK
6
CONTINUOUS
10
72.2679
20
-171.822
11
72.6964
21
-171.822
0
LINE
8
BLACK
6
CONTINUOUS
10
72.6964
20
-171.822
11
72.9821
21
-171.965
0
LINE
8
BLACK
6
CONTINUOUS
10
72.9821
20
-171.965
11
73.125
21
-172.251
0
LINE
8
BLACK
6
CONTINUOUS
10
73.125
20
-172.251
11
73.125
21
-173.822
0
LINE
8
BLACK
6
CONTINUOUS
10
73.125
20
-172.251
11
73.2679
21
-171.965
0
LINE
8
BLACK
6
CONTINUOUS
10
73.2679
20
-171.965
11
73.5536
21
-171.822
0
LINE
8
BLACK
6
CONTINUOUS
10
73.5536
20
-171.822
11
73.9821
21
-171.822
0
LINE
8
BLACK
6
CONTINUOUS
10
73.9821
20
-171.822
11
74.2679
21
-171.965
0
LINE
8
BLACK
6
CONTINUOUS
10
74.2679
20
-171.965
11
74.4107
21
-172.251
0
LINE
8
BLACK
6
CONTINUOUS
10
74.4107
20
-172.251
11
74.4107
21
-173.822
0
LINE
8
BLACK
6
CONTINUOUS
10
75.8393
20
-173.822
11
75.8393
21
-171.822
0
LINE
8
BLACK
6
CONTINUOUS
10
75.8393
20
-172.108
11
75.9821
21
-171.965
0
LINE
8
BLACK
6
CONTINUOUS
10
75.9821
20
-171.965
11
76.2679
21
-171.822
0
LINE
8
BLACK
6
CONTINUOUS
10
76.2679
20
-171.822
11
76.6964
21
-171.822
0
LINE
8
BLACK
6
CONTINUOUS
10
76.6964
20
-171.822
11
76.9821
21
-171.965
0
LINE
8
BLACK
6
CONTINUOUS
10
76.9821
20
-171.965
11
77.125
21
-172.251
0
LINE
8
BLACK
6
CONTINUOUS
10
77.125
20
-172.251
11
77.125
21
-173.822
0
LINE
8
BLACK
6
CONTINUOUS
10
77.125
20
-172.251
11
77.2679
21
-171.965
0
LINE
8
BLACK
6
CONTINUOUS
10
77.2679
20
-171.965
11
77.5536
21
-171.822
0
LINE
8
BLACK
6
CONTINUOUS
10
77.5536
20
-171.822
11
77.9821
21
-171.822
0
LINE
8
BLACK
6
CONTINUOUS
10
77.9821
20
-171.822
11
78.2679
21
-171.965
0
LINE
8
BLACK
6
CONTINUOUS
10
78.2679
20
-171.965
11
78.4107
21
-172.251
0
LINE
8
BLACK
6
CONTINUOUS
10
78.4107
20
-172.251
11
78.4107
21
-173.822
0
LINE
8
BLACK
6
CONTINUOUS
10
84.2679
20
-170.679
11
81.6964
21
-174.536
0
LINE
8
BLACK
6
CONTINUOUS
10
88.125
20
-170.822
11
88.4107
21
-170.822
0
LINE
8
BLACK
6
CONTINUOUS
10
88.4107
20
-170.822
11
88.6964
21
-170.965
0
LINE
8
BLACK
6
CONTINUOUS
10
88.6964
20
-170.965
11
88.8393
21
-171.108
0
LINE
8
BLACK
6
CONTINUOUS
10
88.8393
20
-171.108
11
88.9821
21
-171.394
0
LINE
8
BLACK
6
CONTINUOUS
10
88.9821
20
-171.394
11
89.125
21
-171.965
0
LINE
8
BLACK
6
CONTINUOUS
10
89.125
20
-171.965
11
89.125
21
-172.679
0
LINE
8
BLACK
6
CONTINUOUS
10
89.125
20
-172.679
11
88.9821
21
-173.251
0
LINE
8
BLACK
6
CONTINUOUS
10
88.9821
20
-173.251
11
88.8393
21
-173.536
0
LINE
8
BLACK
6
CONTINUOUS
10
88.8393
20
-173.536
11
88.6964
21
-173.679
0
LINE
8
BLACK
6
CONTINUOUS
10
88.6964
20
-173.679
11
88.4107
21
-173.822
0
LINE
8
BLACK
6
CONTINUOUS
10
88.4107
20
-173.822
11
88.125
21
-173.822
0
LINE
8
BLACK
6
CONTINUOUS
10
88.125
20
-173.822
11
87.8393
21
-173.679
0
LINE
8
BLACK
6
CONTINUOUS
10
87.8393
20
-173.679
11
87.6964
21
-173.536
0
LINE
8
BLACK
6
CONTINUOUS
10
87.6964
20
-173.536
11
87.5536
21
-173.251
0
LINE
8
BLACK
6
CONTINUOUS
10
87.5536
20
-173.251
11
87.4107
21
-172.679
0
LINE
8
BLACK
6
CONTINUOUS
10
87.4107
20
-172.679
11
87.4107
21
-171.965
0
LINE
8
BLACK
6
CONTINUOUS
10
87.4107
20
-171.965
11
87.5536
21
-171.394
0
LINE
8
BLACK
6
CONTINUOUS
10
87.5536
20
-171.394
11
87.6964
21
-171.108
0
LINE
8
BLACK
6
CONTINUOUS
10
87.6964
20
-171.108
11
87.8393
21
-170.965
0
LINE
8
BLACK
6
CONTINUOUS
10
87.8393
20
-170.965
11
88.125
21
-170.822
0
LINE
8
BLACK
6
CONTINUOUS
10
90.4107
20
-173.536
11
90.5536
21
-173.679
0
LINE
8
BLACK
6
CONTINUOUS
10
90.5536
20
-173.679
11
90.4107
21
-173.822
0
LINE
8
BLACK
6
CONTINUOUS
10
90.4107
20
-173.822
11
90.2679
21
-173.679
0
LINE
8
BLACK
6
CONTINUOUS
10
90.2679
20
-173.679
11
90.4107
21
-173.536
0
LINE
8
BLACK
6
CONTINUOUS
10
90.4107
20
-173.536
11
90.4107
21
-173.822
0
LINE
8
BLACK
6
CONTINUOUS
10
92.4107
20
-170.822
11
92.6964
21
-170.822
0
LINE
8
BLACK
6
CONTINUOUS
10
92.6964
20
-170.822
11
92.9821
21
-170.965
0
LINE
8
BLACK
6
CONTINUOUS
10
92.9821
20
-170.965
11
93.125
21
-171.108
0
LINE
8
BLACK
6
CONTINUOUS
10
93.125
20
-171.108
11
93.2679
21
-171.394
0
LINE
8
BLACK
6
CONTINUOUS
10
93.2679
20
-171.394
11
93.4107
21
-171.965
0
LINE
8
BLACK
6
CONTINUOUS
10
93.4107
20
-171.965
11
93.4107
21
-172.679
0
LINE
8
BLACK
6
CONTINUOUS
10
93.4107
20
-172.679
11
93.2679
21
-173.251
0
LINE
8
BLACK
6
CONTINUOUS
10
93.2679
20
-173.251
11
93.125
21
-173.536
0
LINE
8
BLACK
6
CONTINUOUS
10
93.125
20
-173.536
11
92.9821
21
-173.679
0
LINE
8
BLACK
6
CONTINUOUS
10
92.9821
20
-173.679
11
92.6964
21
-173.822
0
LINE
8
BLACK
6
CONTINUOUS
10
92.6964
20
-173.822
11
92.4107
21
-173.822
0
LINE
8
BLACK
6
CONTINUOUS
10
92.4107
20
-173.822
11
92.125
21
-173.679
0
LINE
8
BLACK
6
CONTINUOUS
10
92.125
20
-173.679
11
91.9821
21
-173.536
0
LINE
8
BLACK
6
CONTINUOUS
10
91.9821
20
-173.536
11
91.8393
21
-173.251
0
LINE
8
BLACK
6
CONTINUOUS
10
91.8393
20
-173.251
11
91.6964
21
-172.679
0
LINE
8
BLACK
6
CONTINUOUS
10
91.6964
20
-172.679
11
91.6964
21
-171.965
0
LINE
8
BLACK
6
CONTINUOUS
10
91.6964
20
-171.965
11
91.8393
21
-171.394
0
LINE
8
BLACK
6
CONTINUOUS
10
91.8393
20
-171.394
11
91.9821
21
-171.108
0
LINE
8
BLACK
6
CONTINUOUS
10
91.9821
20
-171.108
11
92.125
21
-170.965
0
LINE
8
BLACK
6
CONTINUOUS
10
92.125
20
-170.965
11
92.4107
21
-170.822
0
LINE
8
BLACK
6
CONTINUOUS
10
95.9821
20
-171.822
11
95.9821
21
-173.822
0
LINE
8
BLACK
6
CONTINUOUS
10
95.2679
20
-170.679
11
94.5536
21
-172.822
0
LINE
8
BLACK
6
CONTINUOUS
10
94.5536
20
-172.822
11
96.4107
21
-172.822
0
LINE
8
BLACK
6
CONTINUOUS
10
97.2679
20
-170.822
11
99.2679
21
-170.822
0
LINE
8
BLACK
6
CONTINUOUS
10
99.2679
20
-170.822
11
97.9821
21
-173.822
0
LINE
8
BLACK
6
CONTINUOUS
10
100.268
20
-170.822
11
100.268
21
-171.394
0
LINE
8
BLACK
6
CONTINUOUS
10
101.411
20
-170.822
11
101.411
21
-171.394
0
LINE
8
BLACK
6
CONTINUOUS
10
105.839
20
-174.965
11
105.696
21
-174.822
0
LINE
8
BLACK
6
CONTINUOUS
10
105.696
20
-174.822
11
105.411
21
-174.394
0
LINE
8
BLACK
6
CONTINUOUS
10
105.411
20
-174.394
11
105.268
21
-174.108
0
LINE
8
BLACK
6
CONTINUOUS
10
105.268
20
-174.108
11
105.125
21
-173.679
0
LINE
8
BLACK
6
CONTINUOUS
10
105.125
20
-173.679
11
104.982
21
-172.965
0
LINE
8
BLACK
6
CONTINUOUS
10
104.982
20
-172.965
11
104.982
21
-172.394
0
LINE
8
BLACK
6
CONTINUOUS
10
104.982
20
-172.394
11
105.125
21
-171.679
0
LINE
8
BLACK
6
CONTINUOUS
10
105.125
20
-171.679
11
105.268
21
-171.251
0
LINE
8
BLACK
6
CONTINUOUS
10
105.268
20
-171.251
11
105.411
21
-170.965
0
LINE
8
BLACK
6
CONTINUOUS
10
105.411
20
-170.965
11
105.696
21
-170.536
0
LINE
8
BLACK
6
CONTINUOUS
10
105.696
20
-170.536
11
105.839
21
-170.394
0
LINE
8
BLACK
6
CONTINUOUS
10
108.411
20
-170.822
11
106.982
21
-170.822
0
LINE
8
BLACK
6
CONTINUOUS
10
106.982
20
-170.822
11
106.839
21
-172.251
0
LINE
8
BLACK
6
CONTINUOUS
10
106.839
20
-172.251
11
106.982
21
-172.108
0
LINE
8
BLACK
6
CONTINUOUS
10
106.982
20
-172.108
11
107.268
21
-171.965
0
LINE
8
BLACK
6
CONTINUOUS
10
107.268
20
-171.965
11
107.982
21
-171.965
0
LINE
8
BLACK
6
CONTINUOUS
10
107.982
20
-171.965
11
108.268
21
-172.108
0
LINE
8
BLACK
6
CONTINUOUS
10
108.268
20
-172.108
11
108.411
21
-172.251
0
LINE
8
BLACK
6
CONTINUOUS
10
108.411
20
-172.251
11
108.554
21
-172.536
0
LINE
8
BLACK
6
CONTINUOUS
10
108.554
20
-172.536
11
108.554
21
-173.251
0
LINE
8
BLACK
6
CONTINUOUS
10
108.554
20
-173.251
11
108.411
21
-173.536
0
LINE
8
BLACK
6
CONTINUOUS
10
108.411
20
-173.536
11
108.268
21
-173.679
0
LINE
8
BLACK
6
CONTINUOUS
10
108.268
20
-173.679
11
107.982
21
-173.822
0
LINE
8
BLACK
6
CONTINUOUS
10
107.982
20
-173.822
11
107.268
21
-173.822
0
LINE
8
BLACK
6
CONTINUOUS
10
107.268
20
-173.822
11
106.982
21
-173.679
0
LINE
8
BLACK
6
CONTINUOUS
10
106.982
20
-173.679
11
106.839
21
-173.536
0
LINE
8
BLACK
6
CONTINUOUS
10
112.125
20
-173.822
11
112.125
21
-170.822
0
LINE
8
BLACK
6
CONTINUOUS
10
113.411
20
-173.822
11
113.411
21
-172.251
0
LINE
8
BLACK
6
CONTINUOUS
10
113.411
20
-172.251
11
113.268
21
-171.965
0
LINE
8
BLACK
6
CONTINUOUS
10
113.268
20
-171.965
11
112.982
21
-171.822
0
LINE
8
BLACK
6
CONTINUOUS
10
112.982
20
-171.822
11
112.554
21
-171.822
0
LINE
8
BLACK
6
CONTINUOUS
10
112.554
20
-171.822
11
112.268
21
-171.965
0
LINE
8
BLACK
6
CONTINUOUS
10
112.268
20
-171.965
11
112.125
21
-172.108
0
LINE
8
BLACK
6
CONTINUOUS
10
115.268
20
-173.822
11
114.982
21
-173.679
0
LINE
8
BLACK
6
CONTINUOUS
10
114.982
20
-173.679
11
114.839
21
-173.536
0
LINE
8
BLACK
6
CONTINUOUS
10
114.839
20
-173.536
11
114.696
21
-173.251
0
LINE
8
BLACK
6
CONTINUOUS
10
114.696
20
-173.251
11
114.696
21
-172.394
0
LINE
8
BLACK
6
CONTINUOUS
10
114.696
20
-172.394
11
114.839
21
-172.108
0
LINE
8
BLACK
6
CONTINUOUS
10
114.839
20
-172.108
11
114.982
21
-171.965
0
LINE
8
BLACK
6
CONTINUOUS
10
114.982
20
-171.965
11
115.268
21
-171.822
0
LINE
8
BLACK
6
CONTINUOUS
10
115.268
20
-171.822
11
115.696
21
-171.822
0
LINE
8
BLACK
6
CONTINUOUS
10
115.696
20
-171.822
11
115.982
21
-171.965
0
LINE
8
BLACK
6
CONTINUOUS
10
115.982
20
-171.965
11
116.125
21
-172.108
0
LINE
8
BLACK
6
CONTINUOUS
10
116.125
20
-172.108
11
116.268
21
-172.394
0
LINE
8
BLACK
6
CONTINUOUS
10
116.268
20
-172.394
11
116.268
21
-173.251
0
LINE
8
BLACK
6
CONTINUOUS
10
116.268
20
-173.251
11
116.125
21
-173.536
0
LINE
8
BLACK
6
CONTINUOUS
10
116.125
20
-173.536
11
115.982
21
-173.679
0
LINE
8
BLACK
6
CONTINUOUS
10
115.982
20
-173.679
11
115.696
21
-173.822
0
LINE
8
BLACK
6
CONTINUOUS
10
115.696
20
-173.822
11
115.268
21
-173.822
0
LINE
8
BLACK
6
CONTINUOUS
10
117.982
20
-173.822
11
117.696
21
-173.679
0
LINE
8
BLACK
6
CONTINUOUS
10
117.696
20
-173.679
11
117.554
21
-173.394
0
LINE
8
BLACK
6
CONTINUOUS
10
117.554
20
-173.394
11
117.554
21
-170.822
0
LINE
8
BLACK
6
CONTINUOUS
10
120.268
20
-173.679
11
119.982
21
-173.822
0
LINE
8
BLACK
6
CONTINUOUS
10
119.982
20
-173.822
11
119.411
21
-173.822
0
LINE
8
BLACK
6
CONTINUOUS
10
119.411
20
-173.822
11
119.125
21
-173.679
0
LINE
8
BLACK
6
CONTINUOUS
10
119.125
20
-173.679
11
118.982
21
-173.394
0
LINE
8
BLACK
6
CONTINUOUS
10
118.982
20
-173.394
11
118.982
21
-172.251
0
LINE
8
BLACK
6
CONTINUOUS
10
118.982
20
-172.251
11
119.125
21
-171.965
0
LINE
8
BLACK
6
CONTINUOUS
10
119.125
20
-171.965
11
119.411
21
-171.822
0
LINE
8
BLACK
6
CONTINUOUS
10
119.411
20
-171.822
11
119.982
21
-171.822
0
LINE
8
BLACK
6
CONTINUOUS
10
119.982
20
-171.822
11
120.268
21
-171.965
0
LINE
8
BLACK
6
CONTINUOUS
10
120.268
20
-171.965
11
120.411
21
-172.251
0
LINE
8
BLACK
6
CONTINUOUS
10
120.411
20
-172.251
11
120.411
21
-172.536
0
LINE
8
BLACK
6
CONTINUOUS
10
120.411
20
-172.536
11
118.982
21
-172.822
0
LINE
8
BLACK
6
CONTINUOUS
10
121.554
20
-173.679
11
121.839
21
-173.822
0
LINE
8
BLACK
6
CONTINUOUS
10
121.839
20
-173.822
11
122.411
21
-173.822
0
LINE
8
BLACK
6
CONTINUOUS
10
122.411
20
-173.822
11
122.696
21
-173.679
0
LINE
8
BLACK
6
CONTINUOUS
10
122.696
20
-173.679
11
122.839
21
-173.394
0
LINE
8
BLACK
6
CONTINUOUS
10
122.839
20
-173.394
11
122.839
21
-173.251
0
LINE
8
BLACK
6
CONTINUOUS
10
122.839
20
-173.251
11
122.696
21
-172.965
0
LINE
8
BLACK
6
CONTINUOUS
10
122.696
20
-172.965
11
122.411
21
-172.822
0
LINE
8
BLACK
6
CONTINUOUS
10
122.411
20
-172.822
11
121.982
21
-172.822
0
LINE
8
BLACK
6
CONTINUOUS
10
121.982
20
-172.822
11
121.696
21
-172.679
0
LINE
8
BLACK
6
CONTINUOUS
10
121.696
20
-172.679
11
121.554
21
-172.394
0
LINE
8
BLACK
6
CONTINUOUS
10
121.554
20
-172.394
11
121.554
21
-172.251
0
LINE
8
BLACK
6
CONTINUOUS
10
121.554
20
-172.251
11
121.696
21
-171.965
0
LINE
8
BLACK
6
CONTINUOUS
10
121.696
20
-171.965
11
121.982
21
-171.822
0
LINE
8
BLACK
6
CONTINUOUS
10
121.982
20
-171.822
11
122.411
21
-171.822
0
LINE
8
BLACK
6
CONTINUOUS
10
122.411
20
-171.822
11
122.696
21
-171.965
0
LINE
8
BLACK
6
CONTINUOUS
10
123.839
20
-174.965
11
123.982
21
-174.822
0
LINE
8
BLACK
6
CONTINUOUS
10
123.982
20
-174.822
11
124.268
21
-174.394
0
LINE
8
BLACK
6
CONTINUOUS
10
124.268
20
-174.394
11
124.411
21
-174.108
0
LINE
8
BLACK
6
CONTINUOUS
10
124.411
20
-174.108
11
124.554
21
-173.679
0
LINE
8
BLACK
6
CONTINUOUS
10
124.554
20
-173.679
11
124.696
21
-172.965
0
LINE
8
BLACK
6
CONTINUOUS
10
124.696
20
-172.965
11
124.696
21
-172.394
0
LINE
8
BLACK
6
CONTINUOUS
10
124.696
20
-172.394
11
124.554
21
-171.679
0
LINE
8
BLACK
6
CONTINUOUS
10
124.554
20
-171.679
11
124.411
21
-171.251
0
LINE
8
BLACK
6
CONTINUOUS
10
124.411
20
-171.251
11
124.268
21
-170.965
0
LINE
8
BLACK
6
CONTINUOUS
10
124.268
20
-170.965
11
123.982
21
-170.536
0
LINE
8
BLACK
6
CONTINUOUS
10
123.982
20
-170.536
11
123.839
21
-170.394
0
LINE
8
BLACK
6
CONTINUOUS
10
57.475
20
-175.675
11
58.975
21
-177.175
0
LINE
8
BLACK
6
CONTINUOUS
10
58.975
20
-175.675
11
57.475
21
-177.175
0
CIRCLE
8
BLACK
10
58.225
20
-176.425
40
0.75
0
LINE
8
BLACK
6
CONTINUOUS
10
63.4107
20
-177.782
11
61.6964
21
-177.782
0
LINE
8
BLACK
6
CONTINUOUS
10
62.5536
20
-177.782
11
62.5536
21
-174.782
0
LINE
8
BLACK
6
CONTINUOUS
10
62.5536
20
-174.782
11
62.2679
21
-175.211
0
LINE
8
BLACK
6
CONTINUOUS
10
62.2679
20
-175.211
11
61.9821
21
-175.496
0
LINE
8
BLACK
6
CONTINUOUS
10
61.9821
20
-175.496
11
61.6964
21
-175.639
0
LINE
8
BLACK
6
CONTINUOUS
10
64.6964
20
-177.496
11
64.8393
21
-177.639
0
LINE
8
BLACK
6
CONTINUOUS
10
64.8393
20
-177.639
11
64.6964
21
-177.782
0
LINE
8
BLACK
6
CONTINUOUS
10
64.6964
20
-177.782
11
64.5536
21
-177.639
0
LINE
8
BLACK
6
CONTINUOUS
10
64.5536
20
-177.639
11
64.6964
21
-177.496
0
LINE
8
BLACK
6
CONTINUOUS
10
64.6964
20
-177.496
11
64.6964
21
-177.782
0
LINE
8
BLACK
6
CONTINUOUS
10
67.5536
20
-174.782
11
66.125
21
-174.782
0
LINE
8
BLACK
6
CONTINUOUS
10
66.125
20
-174.782
11
65.9821
21
-176.211
0
LINE
8
BLACK
6
CONTINUOUS
10
65.9821
20
-176.211
11
66.125
21
-176.068
0
LINE
8
BLACK
6
CONTINUOUS
10
66.125
20
-176.068
11
66.4107
21
-175.925
0
LINE
8
BLACK
6
CONTINUOUS
10
66.4107
20
-175.925
11
67.125
21
-175.925
0
LINE
8
BLACK
6
CONTINUOUS
10
67.125
20
-175.925
11
67.4107
21
-176.068
0
LINE
8
BLACK
6
CONTINUOUS
10
67.4107
20
-176.068
11
67.5536
21
-176.211
0
LINE
8
BLACK
6
CONTINUOUS
10
67.5536
20
-176.211
11
67.6964
21
-176.496
0
LINE
8
BLACK
6
CONTINUOUS
10
67.6964
20
-176.496
11
67.6964
21
-177.211
0
LINE
8
BLACK
6
CONTINUOUS
10
67.6964
20
-177.211
11
67.5536
21
-177.496
0
LINE
8
BLACK
6
CONTINUOUS
10
67.5536
20
-177.496
11
67.4107
21
-177.639
0
LINE
8
BLACK
6
CONTINUOUS
10
67.4107
20
-177.639
11
67.125
21
-177.782
0
LINE
8
BLACK
6
CONTINUOUS
10
67.125
20
-177.782
11
66.4107
21
-177.782
0
LINE
8
BLACK
6
CONTINUOUS
10
66.4107
20
-177.782
11
66.125
21
-177.639
0
LINE
8
BLACK
6
CONTINUOUS
10
66.125
20
-177.639
11
65.9821
21
-177.496
0
LINE
8
BLACK
6
CONTINUOUS
10
69.5536
20
-174.782
11
69.8393
21
-174.782
0
LINE
8
BLACK
6
CONTINUOUS
10
69.8393
20
-174.782
11
70.125
21
-174.925
0
LINE
8
BLACK
6
CONTINUOUS
10
70.125
20
-174.925
11
70.2679
21
-175.068
0
LINE
8
BLACK
6
CONTINUOUS
10
70.2679
20
-175.068
11
70.4107
21
-175.354
0
LINE
8
BLACK
6
CONTINUOUS
10
70.4107
20
-175.354
11
70.5536
21
-175.925
0
LINE
8
BLACK
6
CONTINUOUS
10
70.5536
20
-175.925
11
70.5536
21
-176.639
0
LINE
8
BLACK
6
CONTINUOUS
10
70.5536
20
-176.639
11
70.4107
21
-177.211
0
LINE
8
BLACK
6
CONTINUOUS
10
70.4107
20
-177.211
11
70.2679
21
-177.496
0
LINE
8
BLACK
6
CONTINUOUS
10
70.2679
20
-177.496
11
70.125
21
-177.639
0
LINE
8
BLACK
6
CONTINUOUS
10
70.125
20
-177.639
11
69.8393
21
-177.782
0
LINE
8
BLACK
6
CONTINUOUS
10
69.8393
20
-177.782
11
69.5536
21
-177.782
0
LINE
8
BLACK
6
CONTINUOUS
10
69.5536
20
-177.782
11
69.2679
21
-177.639
0
LINE
8
BLACK
6
CONTINUOUS
10
69.2679
20
-177.639
11
69.125
21
-177.496
0
LINE
8
BLACK
6
CONTINUOUS
10
69.125
20
-177.496
11
68.9821
21
-177.211
0
LINE
8
BLACK
6
CONTINUOUS
10
68.9821
20
-177.211
11
68.8393
21
-176.639
0
LINE
8
BLACK
6
CONTINUOUS
10
68.8393
20
-176.639
11
68.8393
21
-175.925
0
LINE
8
BLACK
6
CONTINUOUS
10
68.8393
20
-175.925
11
68.9821
21
-175.354
0
LINE
8
BLACK
6
CONTINUOUS
10
68.9821
20
-175.354
11
69.125
21
-175.068
0
LINE
8
BLACK
6
CONTINUOUS
10
69.125
20
-175.068
11
69.2679
21
-174.925
0
LINE
8
BLACK
6
CONTINUOUS
10
69.2679
20
-174.925
11
69.5536
21
-174.782
0
LINE
8
BLACK
6
CONTINUOUS
10
71.8393
20
-177.782
11
71.8393
21
-175.782
0
LINE
8
BLACK
6
CONTINUOUS
10
71.8393
20
-176.068
11
71.9821
21
-175.925
0
LINE
8
BLACK
6
CONTINUOUS
10
71.9821
20
-175.925
11
72.2679
21
-175.782
0
LINE
8
BLACK
6
CONTINUOUS
10
72.2679
20
-175.782
11
72.6964
21
-175.782
0
LINE
8
BLACK
6
CONTINUOUS
10
72.6964
20
-175.782
11
72.9821
21
-175.925
0
LINE
8
BLACK
6
CONTINUOUS
10
72.9821
20
-175.925
11
73.125
21
-176.211
0
LINE
8
BLACK
6
CONTINUOUS
10
73.125
20
-176.211
11
73.125
21
-177.782
0
LINE
8
BLACK
6
CONTINUOUS
10
73.125
20
-176.211
11
73.2679
21
-175.925
0
LINE
8
BLACK
6
CONTINUOUS
10
73.2679
20
-175.925
11
73.5536
21
-175.782
0
LINE
8
BLACK
6
CONTINUOUS
10
73.5536
20
-175.782
11
73.9821
21
-175.782
0
LINE
8
BLACK
6
CONTINUOUS
10
73.9821
20
-175.782
11
74.2679
21
-175.925
0
LINE
8
BLACK
6
CONTINUOUS
10
74.2679
20
-175.925
11
74.4107
21
-176.211
0
LINE
8
BLACK
6
CONTINUOUS
10
74.4107
20
-176.211
11
74.4107
21
-177.782
0
LINE
8
BLACK
6
CONTINUOUS
10
75.8393
20
-177.782
11
75.8393
21
-175.782
0
LINE
8
BLACK
6
CONTINUOUS
10
75.8393
20
-176.068
11
75.9821
21
-175.925
0
LINE
8
BLACK
6
CONTINUOUS
10
75.9821
20
-175.925
11
76.2679
21
-175.782
0
LINE
8
BLACK
6
CONTINUOUS
10
76.2679
20
-175.782
11
76.6964
21
-175.782
0
LINE
8
BLACK
6
CONTINUOUS
10
76.6964
20
-175.782
11
76.9821
21
-175.925
0
LINE
8
BLACK
6
CONTINUOUS
10
76.9821
20
-175.925
11
77.125
21
-176.211
0
LINE
8
BLACK
6
CONTINUOUS
10
77.125
20
-176.211
11
77.125
21
-177.782
0
LINE
8
BLACK
6
CONTINUOUS
10
77.125
20
-176.211
11
77.2679
21
-175.925
0
LINE
8
BLACK
6
CONTINUOUS
10
77.2679
20
-175.925
11
77.5536
21
-175.782
0
LINE
8
BLACK
6
CONTINUOUS
10
77.5536
20
-175.782
11
77.9821
21
-175.782
0
LINE
8
BLACK
6
CONTINUOUS
10
77.9821
20
-175.782
11
78.2679
21
-175.925
0
LINE
8
BLACK
6
CONTINUOUS
10
78.2679
20
-175.925
11
78.4107
21
-176.211
0
LINE
8
BLACK
6
CONTINUOUS
10
78.4107
20
-176.211
11
78.4107
21
-177.782
0
LINE
8
BLACK
6
CONTINUOUS
10
84.2679
20
-174.639
11
81.6964
21
-178.496
0
LINE
8
BLACK
6
CONTINUOUS
10
88.125
20
-174.782
11
88.4107
21
-174.782
0
LINE
8
BLACK
6
CONTINUOUS
10
88.4107
20
-174.782
11
88.6964
21
-174.925
0
LINE
8
BLACK
6
CONTINUOUS
10
88.6964
20
-174.925
11
88.8393
21
-175.068
0
LINE
8
BLACK
6
CONTINUOUS
10
88.8393
20
-175.068
11
88.9821
21
-175.354
0
LINE
8
BLACK
6
CONTINUOUS
10
88.9821
20
-175.354
11
89.125
21
-175.925
0
LINE
8
BLACK
6
CONTINUOUS
10
89.125
20
-175.925
11
89.125
21
-176.639
0
LINE
8
BLACK
6
CONTINUOUS
10
89.125
20
-176.639
11
88.9821
21
-177.211
0
LINE
8
BLACK
6
CONTINUOUS
10
88.9821
20
-177.211
11
88.8393
21
-177.496
0
LINE
8
BLACK
6
CONTINUOUS
10
88.8393
20
-177.496
11
88.6964
21
-177.639
0
LINE
8
BLACK
6
CONTINUOUS
10
88.6964
20
-177.639
11
88.4107
21
-177.782
0
LINE
8
BLACK
6
CONTINUOUS
10
88.4107
20
-177.782
11
88.125
21
-177.782
0
LINE
8
BLACK
6
CONTINUOUS
10
88.125
20
-177.782
11
87.8393
21
-177.639
0
LINE
8
BLACK
6
CONTINUOUS
10
87.8393
20
-177.639
11
87.6964
21
-177.496
0
LINE
8
BLACK
6
CONTINUOUS
10
87.6964
20
-177.496
11
87.5536
21
-177.211
0
LINE
8
BLACK
6
CONTINUOUS
10
87.5536
20
-177.211
11
87.4107
21
-176.639
0
LINE
8
BLACK
6
CONTINUOUS
10
87.4107
20
-176.639
11
87.4107
21
-175.925
0
LINE
8
BLACK
6
CONTINUOUS
10
87.4107
20
-175.925
11
87.5536
21
-175.354
0
LINE
8
BLACK
6
CONTINUOUS
10
87.5536
20
-175.354
11
87.6964
21
-175.068
0
LINE
8
BLACK
6
CONTINUOUS
10
87.6964
20
-175.068
11
87.8393
21
-174.925
0
LINE
8
BLACK
6
CONTINUOUS
10
87.8393
20
-174.925
11
88.125
21
-174.782
0
LINE
8
BLACK
6
CONTINUOUS
10
90.4107
20
-177.496
11
90.5536
21
-177.639
0
LINE
8
BLACK
6
CONTINUOUS
10
90.5536
20
-177.639
11
90.4107
21
-177.782
0
LINE
8
BLACK
6
CONTINUOUS
10
90.4107
20
-177.782
11
90.2679
21
-177.639
0
LINE
8
BLACK
6
CONTINUOUS
10
90.2679
20
-177.639
11
90.4107
21
-177.496
0
LINE
8
BLACK
6
CONTINUOUS
10
90.4107
20
-177.496
11
90.4107
21
-177.782
0
LINE
8
BLACK
6
CONTINUOUS
10
92.4107
20
-174.782
11
92.6964
21
-174.782
0
LINE
8
BLACK
6
CONTINUOUS
10
92.6964
20
-174.782
11
92.9821
21
-174.925
0
LINE
8
BLACK
6
CONTINUOUS
10
92.9821
20
-174.925
11
93.125
21
-175.068
0
LINE
8
BLACK
6
CONTINUOUS
10
93.125
20
-175.068
11
93.2679
21
-175.354
0
LINE
8
BLACK
6
CONTINUOUS
10
93.2679
20
-175.354
11
93.4107
21
-175.925
0
LINE
8
BLACK
6
CONTINUOUS
10
93.4107
20
-175.925
11
93.4107
21
-176.639
0
LINE
8
BLACK
6
CONTINUOUS
10
93.4107
20
-176.639
11
93.2679
21
-177.211
0
LINE
8
BLACK
6
CONTINUOUS
10
93.2679
20
-177.211
11
93.125
21
-177.496
0
LINE
8
BLACK
6
CONTINUOUS
10
93.125
20
-177.496
11
92.9821
21
-177.639
0
LINE
8
BLACK
6
CONTINUOUS
10
92.9821
20
-177.639
11
92.6964
21
-177.782
0
LINE
8
BLACK
6
CONTINUOUS
10
92.6964
20
-177.782
11
92.4107
21
-177.782
0
LINE
8
BLACK
6
CONTINUOUS
10
92.4107
20
-177.782
11
92.125
21
-177.639
0
LINE
8
BLACK
6
CONTINUOUS
10
92.125
20
-177.639
11
91.9821
21
-177.496
0
LINE
8
BLACK
6
CONTINUOUS
10
91.9821
20
-177.496
11
91.8393
21
-177.211
0
LINE
8
BLACK
6
CONTINUOUS
10
91.8393
20
-177.211
11
91.6964
21
-176.639
0
LINE
8
BLACK
6
CONTINUOUS
10
91.6964
20
-176.639
11
91.6964
21
-175.925
0
LINE
8
BLACK
6
CONTINUOUS
10
91.6964
20
-175.925
11
91.8393
21
-175.354
0
LINE
8
BLACK
6
CONTINUOUS
10
91.8393
20
-175.354
11
91.9821
21
-175.068
0
LINE
8
BLACK
6
CONTINUOUS
10
91.9821
20
-175.068
11
92.125
21
-174.925
0
LINE
8
BLACK
6
CONTINUOUS
10
92.125
20
-174.925
11
92.4107
21
-174.782
0
LINE
8
BLACK
6
CONTINUOUS
10
96.125
20
-174.782
11
94.6964
21
-174.782
0
LINE
8
BLACK
6
CONTINUOUS
10
94.6964
20
-174.782
11
94.5536
21
-176.211
0
LINE
8
BLACK
6
CONTINUOUS
10
94.5536
20
-176.211
11
94.6964
21
-176.068
0
LINE
8
BLACK
6
CONTINUOUS
10
94.6964
20
-176.068
11
94.9821
21
-175.925
0
LINE
8
BLACK
6
CONTINUOUS
10
94.9821
20
-175.925
11
95.6964
21
-175.925
0
LINE
8
BLACK
6
CONTINUOUS
10
95.6964
20
-175.925
11
95.9821
21
-176.068
0
LINE
8
BLACK
6
CONTINUOUS
10
95.9821
20
-176.068
11
96.125
21
-176.211
0
LINE
8
BLACK
6
CONTINUOUS
10
96.125
20
-176.211
11
96.2679
21
-176.496
0
LINE
8
BLACK
6
CONTINUOUS
10
96.2679
20
-176.496
11
96.2679
21
-177.211
0
LINE
8
BLACK
6
CONTINUOUS
10
96.2679
20
-177.211
11
96.125
21
-177.496
0
LINE
8
BLACK
6
CONTINUOUS
10
96.125
20
-177.496
11
95.9821
21
-177.639
0
LINE
8
BLACK
6
CONTINUOUS
10
95.9821
20
-177.639
11
95.6964
21
-177.782
0
LINE
8
BLACK
6
CONTINUOUS
10
95.6964
20
-177.782
11
94.9821
21
-177.782
0
LINE
8
BLACK
6
CONTINUOUS
10
94.9821
20
-177.782
11
94.6964
21
-177.639
0
LINE
8
BLACK
6
CONTINUOUS
10
94.6964
20
-177.639
11
94.5536
21
-177.496
0
LINE
8
BLACK
6
CONTINUOUS
10
97.6964
20
-177.782
11
98.2679
21
-177.782
0
LINE
8
BLACK
6
CONTINUOUS
10
98.2679
20
-177.782
11
98.5536
21
-177.639
0
LINE
8
BLACK
6
CONTINUOUS
10
98.5536
20
-177.639
11
98.6964
21
-177.496
0
LINE
8
BLACK
6
CONTINUOUS
10
98.6964
20
-177.496
11
98.9821
21
-177.068
0
LINE
8
BLACK
6
CONTINUOUS
10
98.9821
20
-177.068
11
99.125
21
-176.496
0
LINE
8
BLACK
6
CONTINUOUS
10
99.125
20
-176.496
11
99.125
21
-175.354
0
LINE
8
BLACK
6
CONTINUOUS
10
99.125
20
-175.354
11
98.9821
21
-175.068
0
LINE
8
BLACK
6
CONTINUOUS
10
98.9821
20
-175.068
11
98.8393
21
-174.925
0
LINE
8
BLACK
6
CONTINUOUS
10
98.8393
20
-174.925
11
98.5536
21
-174.782
0
LINE
8
BLACK
6
CONTINUOUS
10
98.5536
20
-174.782
11
97.9821
21
-174.782
0
LINE
8
BLACK
6
CONTINUOUS
10
97.9821
20
-174.782
11
97.6964
21
-174.925
0
LINE
8
BLACK
6
CONTINUOUS
10
97.6964
20
-174.925
11
97.5536
21
-175.068
0
LINE
8
BLACK
6
CONTINUOUS
10
97.5536
20
-175.068
11
97.4107
21
-175.354
0
LINE
8
BLACK
6
CONTINUOUS
10
97.4107
20
-175.354
11
97.4107
21
-176.068
0
LINE
8
BLACK
6
CONTINUOUS
10
97.4107
20
-176.068
11
97.5536
21
-176.354
0
LINE
8
BLACK
6
CONTINUOUS
10
97.5536
20
-176.354
11
97.6964
21
-176.496
0
LINE
8
BLACK
6
CONTINUOUS
10
97.6964
20
-176.496
11
97.9821
21
-176.639
0
LINE
8
BLACK
6
CONTINUOUS
10
97.9821
20
-176.639
11
98.5536
21
-176.639
0
LINE
8
BLACK
6
CONTINUOUS
10
98.5536
20
-176.639
11
98.8393
21
-176.496
0
LINE
8
BLACK
6
CONTINUOUS
10
98.8393
20
-176.496
11
98.9821
21
-176.354
0
LINE
8
BLACK
6
CONTINUOUS
10
98.9821
20
-176.354
11
99.125
21
-176.068
0
LINE
8
BLACK
6
CONTINUOUS
10
100.268
20
-174.782
11
100.268
21
-175.354
0
LINE
8
BLACK
6
CONTINUOUS
10
101.411
20
-174.782
11
101.411
21
-175.354
0
LINE
8
BLACK
6
CONTINUOUS
10
105.839
20
-178.925
11
105.696
21
-178.782
0
LINE
8
BLACK
6
CONTINUOUS
10
105.696
20
-178.782
11
105.411
21
-178.354
0
LINE
8
BLACK
6
CONTINUOUS
10
105.411
20
-178.354
11
105.268
21
-178.068
0
LINE
8
BLACK
6
CONTINUOUS
10
105.268
20
-178.068
11
105.125
21
-177.639
0
LINE
8
BLACK
6
CONTINUOUS
10
105.125
20
-177.639
11
104.982
21
-176.925
0
LINE
8
BLACK
6
CONTINUOUS
10
104.982
20
-176.925
11
104.982
21
-176.354
0
LINE
8
BLACK
6
CONTINUOUS
10
104.982
20
-176.354
11
105.125
21
-175.639
0
LINE
8
BLACK
6
CONTINUOUS
10
105.125
20
-175.639
11
105.268
21
-175.211
0
LINE
8
BLACK
6
CONTINUOUS
10
105.268
20
-175.211
11
105.411
21
-174.925
0
LINE
8
BLACK
6
CONTINUOUS
10
105.411
20
-174.925
11
105.696
21
-174.496
0
LINE
8
BLACK
6
CONTINUOUS
10
105.696
20
-174.496
11
105.839
21
-174.354
0
LINE
8
BLACK
6
CONTINUOUS
10
108.411
20
-174.782
11
106.982
21
-174.782
0
LINE
8
BLACK
6
CONTINUOUS
10
106.982
20
-174.782
11
106.839
21
-176.211
0
LINE
8
BLACK
6
CONTINUOUS
10
106.839
20
-176.211
11
106.982
21
-176.068
0
LINE
8
BLACK
6
CONTINUOUS
10
106.982
20
-176.068
11
107.268
21
-175.925
0
LINE
8
BLACK
6
CONTINUOUS
10
107.268
20
-175.925
11
107.982
21
-175.925
0
LINE
8
BLACK
6
CONTINUOUS
10
107.982
20
-175.925
11
108.268
21
-176.068
0
LINE
8
BLACK
6
CONTINUOUS
10
108.268
20
-176.068
11
108.411
21
-176.211
0
LINE
8
BLACK
6
CONTINUOUS
10
108.411
20
-176.211
11
108.554
21
-176.496
0
LINE
8
BLACK
6
CONTINUOUS
10
108.554
20
-176.496
11
108.554
21
-177.211
0
LINE
8
BLACK
6
CONTINUOUS
10
108.554
20
-177.211
11
108.411
21
-177.496
0
LINE
8
BLACK
6
CONTINUOUS
10
108.411
20
-177.496
11
108.268
21
-177.639
0
LINE
8
BLACK
6
CONTINUOUS
10
108.268
20
-177.639
11
107.982
21
-177.782
0
LINE
8
BLACK
6
CONTINUOUS
10
107.982
20
-177.782
11
107.268
21
-177.782
0
LINE
8
BLACK
6
CONTINUOUS
10
107.268
20
-177.782
11
106.982
21
-177.639
0
LINE
8
BLACK
6
CONTINUOUS
10
106.982
20
-177.639
11
106.839
21
-177.496
0
LINE
8
BLACK
6
CONTINUOUS
10
112.125
20
-177.782
11
112.125
21
-174.782
0
LINE
8
BLACK
6
CONTINUOUS
10
113.411
20
-177.782
11
113.411
21
-176.211
0
LINE
8
BLACK
6
CONTINUOUS
10
113.411
20
-176.211
11
113.268
21
-175.925
0
LINE
8
BLACK
6
CONTINUOUS
10
113.268
20
-175.925
11
112.982
21
-175.782
0
LINE
8
BLACK
6
CONTINUOUS
10
112.982
20
-175.782
11
112.554
21
-175.782
0
LINE
8
BLACK
6
CONTINUOUS
10
112.554
20
-175.782
11
112.268
21
-175.925
0
LINE
8
BLACK
6
CONTINUOUS
10
112.268
20
-175.925
11
112.125
21
-176.068
0
LINE
8
BLACK
6
CONTINUOUS
10
115.268
20
-177.782
11
114.982
21
-177.639
0
LINE
8
BLACK
6
CONTINUOUS
10
114.982
20
-177.639
11
114.839
21
-177.496
0
LINE
8
BLACK
6
CONTINUOUS
10
114.839
20
-177.496
11
114.696
21
-177.211
0
LINE
8
BLACK
6
CONTINUOUS
10
114.696
20
-177.211
11
114.696
21
-176.354
0
LINE
8
BLACK
6
CONTINUOUS
10
114.696
20
-176.354
11
114.839
21
-176.068
0
LINE
8
BLACK
6
CONTINUOUS
10
114.839
20
-176.068
11
114.982
21
-175.925
0
LINE
8
BLACK
6
CONTINUOUS
10
114.982
20
-175.925
11
115.268
21
-175.782
0
LINE
8
BLACK
6
CONTINUOUS
10
115.268
20
-175.782
11
115.696
21
-175.782
0
LINE
8
BLACK
6
CONTINUOUS
10
115.696
20
-175.782
11
115.982
21
-175.925
0
LINE
8
BLACK
6
CONTINUOUS
10
115.982
20
-175.925
11
116.125
21
-176.068
0
LINE
8
BLACK
6
CONTINUOUS
10
116.125
20
-176.068
11
116.268
21
-176.354
0
LINE
8
BLACK
6
CONTINUOUS
10
116.268
20
-176.354
11
116.268
21
-177.211
0
LINE
8
BLACK
6
CONTINUOUS
10
116.268
20
-177.211
11
116.125
21
-177.496
0
LINE
8
BLACK
6
CONTINUOUS
10
116.125
20
-177.496
11
115.982
21
-177.639
0
LINE
8
BLACK
6
CONTINUOUS
10
115.982
20
-177.639
11
115.696
21
-177.782
0
LINE
8
BLACK
6
CONTINUOUS
10
115.696
20
-177.782
11
115.268
21
-177.782
0
LINE
8
BLACK
6
CONTINUOUS
10
117.982
20
-177.782
11
117.696
21
-177.639
0
LINE
8
BLACK
6
CONTINUOUS
10
117.696
20
-177.639
11
117.554
21
-177.354
0
LINE
8
BLACK
6
CONTINUOUS
10
117.554
20
-177.354
11
117.554
21
-174.782
0
LINE
8
BLACK
6
CONTINUOUS
10
120.268
20
-177.639
11
119.982
21
-177.782
0
LINE
8
BLACK
6
CONTINUOUS
10
119.982
20
-177.782
11
119.411
21
-177.782
0
LINE
8
BLACK
6
CONTINUOUS
10
119.411
20
-177.782
11
119.125
21
-177.639
0
LINE
8
BLACK
6
CONTINUOUS
10
119.125
20
-177.639
11
118.982
21
-177.354
0
LINE
8
BLACK
6
CONTINUOUS
10
118.982
20
-177.354
11
118.982
21
-176.211
0
LINE
8
BLACK
6
CONTINUOUS
10
118.982
20
-176.211
11
119.125
21
-175.925
0
LINE
8
BLACK
6
CONTINUOUS
10
119.125
20
-175.925
11
119.411
21
-175.782
0
LINE
8
BLACK
6
CONTINUOUS
10
119.411
20
-175.782
11
119.982
21
-175.782
0
LINE
8
BLACK
6
CONTINUOUS
10
119.982
20
-175.782
11
120.268
21
-175.925
0
LINE
8
BLACK
6
CONTINUOUS
10
120.268
20
-175.925
11
120.411
21
-176.211
0
LINE
8
BLACK
6
CONTINUOUS
10
120.411
20
-176.211
11
120.411
21
-176.496
0
LINE
8
BLACK
6
CONTINUOUS
10
120.411
20
-176.496
11
118.982
21
-176.782
0
LINE
8
BLACK
6
CONTINUOUS
10
121.554
20
-177.639
11
121.839
21
-177.782
0
LINE
8
BLACK
6
CONTINUOUS
10
121.839
20
-177.782
11
122.411
21
-177.782
0
LINE
8
BLACK
6
CONTINUOUS
10
122.411
20
-177.782
11
122.696
21
-177.639
0
LINE
8
BLACK
6
CONTINUOUS
10
122.696
20
-177.639
11
122.839
21
-177.354
0
LINE
8
BLACK
6
CONTINUOUS
10
122.839
20
-177.354
11
122.839
21
-177.211
0
LINE
8
BLACK
6
CONTINUOUS
10
122.839
20
-177.211
11
122.696
21
-176.925
0
LINE
8
BLACK
6
CONTINUOUS
10
122.696
20
-176.925
11
122.411
21
-176.782
0
LINE
8
BLACK
6
CONTINUOUS
10
122.411
20
-176.782
11
121.982
21
-176.782
0
LINE
8
BLACK
6
CONTINUOUS
10
121.982
20
-176.782
11
121.696
21
-176.639
0
LINE
8
BLACK
6
CONTINUOUS
10
121.696
20
-176.639
11
121.554
21
-176.354
0
LINE
8
BLACK
6
CONTINUOUS
10
121.554
20
-176.354
11
121.554
21
-176.211
0
LINE
8
BLACK
6
CONTINUOUS
10
121.554
20
-176.211
11
121.696
21
-175.925
0
LINE
8
BLACK
6
CONTINUOUS
10
121.696
20
-175.925
11
121.982
21
-175.782
0
LINE
8
BLACK
6
CONTINUOUS
10
121.982
20
-175.782
11
122.411
21
-175.782
0
LINE
8
BLACK
6
CONTINUOUS
10
122.411
20
-175.782
11
122.696
21
-175.925
0
LINE
8
BLACK
6
CONTINUOUS
10
123.839
20
-178.925
11
123.982
21
-178.782
0
LINE
8
BLACK
6
CONTINUOUS
10
123.982
20
-178.782
11
124.268
21
-178.354
0
LINE
8
BLACK
6
CONTINUOUS
10
124.268
20
-178.354
11
124.411
21
-178.068
0
LINE
8
BLACK
6
CONTINUOUS
10
124.411
20
-178.068
11
124.554
21
-177.639
0
LINE
8
BLACK
6
CONTINUOUS
10
124.554
20
-177.639
11
124.696
21
-176.925
0
LINE
8
BLACK
6
CONTINUOUS
10
124.696
20
-176.925
11
124.696
21
-176.354
0
LINE
8
BLACK
6
CONTINUOUS
10
124.696
20
-176.354
11
124.554
21
-175.639
0
LINE
8
BLACK
6
CONTINUOUS
10
124.554
20
-175.639
11
124.411
21
-175.211
0
LINE
8
BLACK
6
CONTINUOUS
10
124.411
20
-175.211
11
124.268
21
-174.925
0
LINE
8
BLACK
6
CONTINUOUS
10
124.268
20
-174.925
11
123.982
21
-174.496
0
LINE
8
BLACK
6
CONTINUOUS
10
123.982
20
-174.496
11
123.839
21
-174.354
0
LINE
8
BLACK
6
CONTINUOUS
10
55.775
20
-178.785
11
58.975
21
-181.985
0
LINE
8
BLACK
6
CONTINUOUS
10
58.975
20
-178.785
11
55.775
21
-181.985
0
LINE
8
BLACK
6
CONTINUOUS
10
57.375
20
-178.785
11
57.375
21
-181.985
0
LINE
8
BLACK
6
CONTINUOUS
10
55.775
20
-180.385
11
58.975
21
-180.385
0
LINE
8
BLACK
6
CONTINUOUS
10
61.5536
20
-178.742
11
63.4107
21
-178.742
0
LINE
8
BLACK
6
CONTINUOUS
10
63.4107
20
-178.742
11
62.4107
21
-179.885
0
LINE
8
BLACK
6
CONTINUOUS
10
62.4107
20
-179.885
11
62.8393
21
-179.885
0
LINE
8
BLACK
6
CONTINUOUS
10
62.8393
20
-179.885
11
63.125
21
-180.028
0
LINE
8
BLACK
6
CONTINUOUS
10
63.125
20
-180.028
11
63.2679
21
-180.171
0
LINE
8
BLACK
6
CONTINUOUS
10
63.2679
20
-180.171
11
63.4107
21
-180.456
0
LINE
8
BLACK
6
CONTINUOUS
10
63.4107
20
-180.456
11
63.4107
21
-181.171
0
LINE
8
BLACK
6
CONTINUOUS
10
63.4107
20
-181.171
11
63.2679
21
-181.456
0
LINE
8
BLACK
6
CONTINUOUS
10
63.2679
20
-181.456
11
63.125
21
-181.599
0
LINE
8
BLACK
6
CONTINUOUS
10
63.125
20
-181.599
11
62.8393
21
-181.742
0
LINE
8
BLACK
6
CONTINUOUS
10
62.8393
20
-181.742
11
61.9821
21
-181.742
0
LINE
8
BLACK
6
CONTINUOUS
10
61.9821
20
-181.742
11
61.6964
21
-181.599
0
LINE
8
BLACK
6
CONTINUOUS
10
61.6964
20
-181.599
11
61.5536
21
-181.456
0
LINE
8
BLACK
6
CONTINUOUS
10
64.6964
20
-181.456
11
64.8393
21
-181.599
0
LINE
8
BLACK
6
CONTINUOUS
10
64.8393
20
-181.599
11
64.6964
21
-181.742
0
LINE
8
BLACK
6
CONTINUOUS
10
64.6964
20
-181.742
11
64.5536
21
-181.599
0
LINE
8
BLACK
6
CONTINUOUS
10
64.5536
20
-181.599
11
64.6964
21
-181.456
0
LINE
8
BLACK
6
CONTINUOUS
10
64.6964
20
-181.456
11
64.6964
21
-181.742
0
LINE
8
BLACK
6
CONTINUOUS
10
65.9821
20
-179.028
11
66.125
21
-178.885
0
LINE
8
BLACK
6
CONTINUOUS
10
66.125
20
-178.885
11
66.4107
21
-178.742
0
LINE
8
BLACK
6
CONTINUOUS
10
66.4107
20
-178.742
11
67.125
21
-178.742
0
LINE
8
BLACK
6
CONTINUOUS
10
67.125
20
-178.742
11
67.4107
21
-178.885
0
LINE
8
BLACK
6
CONTINUOUS
10
67.4107
20
-178.885
11
67.5536
21
-179.028
0
LINE
8
BLACK
6
CONTINUOUS
10
67.5536
20
-179.028
11
67.6964
21
-179.314
0
LINE
8
BLACK
6
CONTINUOUS
10
67.6964
20
-179.314
11
67.6964
21
-179.599
0
LINE
8
BLACK
6
CONTINUOUS
10
67.6964
20
-179.599
11
67.5536
21
-180.028
0
LINE
8
BLACK
6
CONTINUOUS
10
67.5536
20
-180.028
11
65.8393
21
-181.742
0
LINE
8
BLACK
6
CONTINUOUS
10
65.8393
20
-181.742
11
67.6964
21
-181.742
0
LINE
8
BLACK
6
CONTINUOUS
10
69.5536
20
-178.742
11
69.8393
21
-178.742
0
LINE
8
BLACK
6
CONTINUOUS
10
69.8393
20
-178.742
11
70.125
21
-178.885
0
LINE
8
BLACK
6
CONTINUOUS
10
70.125
20
-178.885
11
70.2679
21
-179.028
0
LINE
8
BLACK
6
CONTINUOUS
10
70.2679
20
-179.028
11
70.4107
21
-179.314
0
LINE
8
BLACK
6
CONTINUOUS
10
70.4107
20
-179.314
11
70.5536
21
-179.885
0
LINE
8
BLACK
6
CONTINUOUS
10
70.5536
20
-179.885
11
70.5536
21
-180.599
0
LINE
8
BLACK
6
CONTINUOUS
10
70.5536
20
-180.599
11
70.4107
21
-181.171
0
LINE
8
BLACK
6
CONTINUOUS
10
70.4107
20
-181.171
11
70.2679
21
-181.456
0
LINE
8
BLACK
6
CONTINUOUS
10
70.2679
20
-181.456
11
70.125
21
-181.599
0
LINE
8
BLACK
6
CONTINUOUS
10
70.125
20
-181.599
11
69.8393
21
-181.742
0
LINE
8
BLACK
6
CONTINUOUS
10
69.8393
20
-181.742
11
69.5536
21
-181.742
0
LINE
8
BLACK
6
CONTINUOUS
10
69.5536
20
-181.742
11
69.2679
21
-181.599
0
LINE
8
BLACK
6
CONTINUOUS
10
69.2679
20
-181.599
11
69.125
21
-181.456
0
LINE
8
BLACK
6
CONTINUOUS
10
69.125
20
-181.456
11
68.9821
21
-181.171
0
LINE
8
BLACK
6
CONTINUOUS
10
68.9821
20
-181.171
11
68.8393
21
-180.599
0
LINE
8
BLACK
6
CONTINUOUS
10
68.8393
20
-180.599
11
68.8393
21
-179.885
0
LINE
8
BLACK
6
CONTINUOUS
10
68.8393
20
-179.885
11
68.9821
21
-179.314
0
LINE
8
BLACK
6
CONTINUOUS
10
68.9821
20
-179.314
11
69.125
21
-179.028
0
LINE
8
BLACK
6
CONTINUOUS
10
69.125
20
-179.028
11
69.2679
21
-178.885
0
LINE
8
BLACK
6
CONTINUOUS
10
69.2679
20
-178.885
11
69.5536
21
-178.742
0
LINE
8
BLACK
6
CONTINUOUS
10
71.8393
20
-181.742
11
71.8393
21
-179.742
0
LINE
8
BLACK
6
CONTINUOUS
10
71.8393
20
-180.028
11
71.9821
21
-179.885
0
LINE
8
BLACK
6
CONTINUOUS
10
71.9821
20
-179.885
11
72.2679
21
-179.742
0
LINE
8
BLACK
6
CONTINUOUS
10
72.2679
20
-179.742
11
72.6964
21
-179.742
0
LINE
8
BLACK
6
CONTINUOUS
10
72.6964
20
-179.742
11
72.9821
21
-179.885
0
LINE
8
BLACK
6
CONTINUOUS
10
72.9821
20
-179.885
11
73.125
21
-180.171
0
LINE
8
BLACK
6
CONTINUOUS
10
73.125
20
-180.171
11
73.125
21
-181.742
0
LINE
8
BLACK
6
CONTINUOUS
10
73.125
20
-180.171
11
73.2679
21
-179.885
0
LINE
8
BLACK
6
CONTINUOUS
10
73.2679
20
-179.885
11
73.5536
21
-179.742
0
LINE
8
BLACK
6
CONTINUOUS
10
73.5536
20
-179.742
11
73.9821
21
-179.742
0
LINE
8
BLACK
6
CONTINUOUS
10
73.9821
20
-179.742
11
74.2679
21
-179.885
0
LINE
8
BLACK
6
CONTINUOUS
10
74.2679
20
-179.885
11
74.4107
21
-180.171
0
LINE
8
BLACK
6
CONTINUOUS
10
74.4107
20
-180.171
11
74.4107
21
-181.742
0
LINE
8
BLACK
6
CONTINUOUS
10
75.8393
20
-181.742
11
75.8393
21
-179.742
0
LINE
8
BLACK
6
CONTINUOUS
10
75.8393
20
-180.028
11
75.9821
21
-179.885
0
LINE
8
BLACK
6
CONTINUOUS
10
75.9821
20
-179.885
11
76.2679
21
-179.742
0
LINE
8
BLACK
6
CONTINUOUS
10
76.2679
20
-179.742
11
76.6964
21
-179.742
0
LINE
8
BLACK
6
CONTINUOUS
10
76.6964
20
-179.742
11
76.9821
21
-179.885
0
LINE
8
BLACK
6
CONTINUOUS
10
76.9821
20
-179.885
11
77.125
21
-180.171
0
LINE
8
BLACK
6
CONTINUOUS
10
77.125
20
-180.171
11
77.125
21
-181.742
0
LINE
8
BLACK
6
CONTINUOUS
10
77.125
20
-180.171
11
77.2679
21
-179.885
0
LINE
8
BLACK
6
CONTINUOUS
10
77.2679
20
-179.885
11
77.5536
21
-179.742
0
LINE
8
BLACK
6
CONTINUOUS
10
77.5536
20
-179.742
11
77.9821
21
-179.742
0
LINE
8
BLACK
6
CONTINUOUS
10
77.9821
20
-179.742
11
78.2679
21
-179.885
0
LINE
8
BLACK
6
CONTINUOUS
10
78.2679
20
-179.885
11
78.4107
21
-180.171
0
LINE
8
BLACK
6
CONTINUOUS
10
78.4107
20
-180.171
11
78.4107
21
-181.742
0
LINE
8
BLACK
6
CONTINUOUS
10
84.2679
20
-178.599
11
81.6964
21
-182.456
0
LINE
8
BLACK
6
CONTINUOUS
10
88.125
20
-178.742
11
88.4107
21
-178.742
0
LINE
8
BLACK
6
CONTINUOUS
10
88.4107
20
-178.742
11
88.6964
21
-178.885
0
LINE
8
BLACK
6
CONTINUOUS
10
88.6964
20
-178.885
11
88.8393
21
-179.028
0
LINE
8
BLACK
6
CONTINUOUS
10
88.8393
20
-179.028
11
88.9821
21
-179.314
0
LINE
8
BLACK
6
CONTINUOUS
10
88.9821
20
-179.314
11
89.125
21
-179.885
0
LINE
8
BLACK
6
CONTINUOUS
10
89.125
20
-179.885
11
89.125
21
-180.599
0
LINE
8
BLACK
6
CONTINUOUS
10
89.125
20
-180.599
11
88.9821
21
-181.171
0
LINE
8
BLACK
6
CONTINUOUS
10
88.9821
20
-181.171
11
88.8393
21
-181.456
0
LINE
8
BLACK
6
CONTINUOUS
10
88.8393
20
-181.456
11
88.6964
21
-181.599
0
LINE
8
BLACK
6
CONTINUOUS
10
88.6964
20
-181.599
11
88.4107
21
-181.742
0
LINE
8
BLACK
6
CONTINUOUS
10
88.4107
20
-181.742
11
88.125
21
-181.742
0
LINE
8
BLACK
6
CONTINUOUS
10
88.125
20
-181.742
11
87.8393
21
-181.599
0
LINE
8
BLACK
6
CONTINUOUS
10
87.8393
20
-181.599
11
87.6964
21
-181.456
0
LINE
8
BLACK
6
CONTINUOUS
10
87.6964
20
-181.456
11
87.5536
21
-181.171
0
LINE
8
BLACK
6
CONTINUOUS
10
87.5536
20
-181.171
11
87.4107
21
-180.599
0
LINE
8
BLACK
6
CONTINUOUS
10
87.4107
20
-180.599
11
87.4107
21
-179.885
0
LINE
8
BLACK
6
CONTINUOUS
10
87.4107
20
-179.885
11
87.5536
21
-179.314
0
LINE
8
BLACK
6
CONTINUOUS
10
87.5536
20
-179.314
11
87.6964
21
-179.028
0
LINE
8
BLACK
6
CONTINUOUS
10
87.6964
20
-179.028
11
87.8393
21
-178.885
0
LINE
8
BLACK
6
CONTINUOUS
10
87.8393
20
-178.885
11
88.125
21
-178.742
0
LINE
8
BLACK
6
CONTINUOUS
10
90.4107
20
-181.456
11
90.5536
21
-181.599
0
LINE
8
BLACK
6
CONTINUOUS
10
90.5536
20
-181.599
11
90.4107
21
-181.742
0
LINE
8
BLACK
6
CONTINUOUS
10
90.4107
20
-181.742
11
90.2679
21
-181.599
0
LINE
8
BLACK
6
CONTINUOUS
10
90.2679
20
-181.599
11
90.4107
21
-181.456
0
LINE
8
BLACK
6
CONTINUOUS
10
90.4107
20
-181.456
11
90.4107
21
-181.742
0
LINE
8
BLACK
6
CONTINUOUS
10
93.4107
20
-181.742
11
91.6964
21
-181.742
0
LINE
8
BLACK
6
CONTINUOUS
10
92.5536
20
-181.742
11
92.5536
21
-178.742
0
LINE
8
BLACK
6
CONTINUOUS
10
92.5536
20
-178.742
11
92.2679
21
-179.171
0
LINE
8
BLACK
6
CONTINUOUS
10
92.2679
20
-179.171
11
91.9821
21
-179.456
0
LINE
8
BLACK
6
CONTINUOUS
10
91.9821
20
-179.456
11
91.6964
21
-179.599
0
LINE
8
BLACK
6
CONTINUOUS
10
94.5536
20
-179.028
11
94.6964
21
-178.885
0
LINE
8
BLACK
6
CONTINUOUS
10
94.6964
20
-178.885
11
94.9821
21
-178.742
0
LINE
8
BLACK
6
CONTINUOUS
10
94.9821
20
-178.742
11
95.6964
21
-178.742
0
LINE
8
BLACK
6
CONTINUOUS
10
95.6964
20
-178.742
11
95.9821
21
-178.885
0
LINE
8
BLACK
6
CONTINUOUS
10
95.9821
20
-178.885
11
96.125
21
-179.028
0
LINE
8
BLACK
6
CONTINUOUS
10
96.125
20
-179.028
11
96.2679
21
-179.314
0
LINE
8
BLACK
6
CONTINUOUS
10
96.2679
20
-179.314
11
96.2679
21
-179.599
0
LINE
8
BLACK
6
CONTINUOUS
10
96.2679
20
-179.599
11
96.125
21
-180.028
0
LINE
8
BLACK
6
CONTINUOUS
10
96.125
20
-180.028
11
94.4107
21
-181.742
0
LINE
8
BLACK
6
CONTINUOUS
10
94.4107
20
-181.742
11
96.2679
21
-181.742
0
LINE
8
BLACK
6
CONTINUOUS
10
98.8393
20
-178.742
11
98.2679
21
-178.742
0
LINE
8
BLACK
6
CONTINUOUS
10
98.2679
20
-178.742
11
97.9821
21
-178.885
0
LINE
8
BLACK
6
CONTINUOUS
10
97.9821
20
-178.885
11
97.8393
21
-179.028
0
LINE
8
BLACK
6
CONTINUOUS
10
97.8393
20
-179.028
11
97.5536
21
-179.456
0
LINE
8
BLACK
6
CONTINUOUS
10
97.5536
20
-179.456
11
97.4107
21
-180.028
0
LINE
8
BLACK
6
CONTINUOUS
10
97.4107
20
-180.028
11
97.4107
21
-181.171
0
LINE
8
BLACK
6
CONTINUOUS
10
97.4107
20
-181.171
11
97.5536
21
-181.456
0
LINE
8
BLACK
6
CONTINUOUS
10
97.5536
20
-181.456
11
97.6964
21
-181.599
0
LINE
8
BLACK
6
CONTINUOUS
10
97.6964
20
-181.599
11
97.9821
21
-181.742
0
LINE
8
BLACK
6
CONTINUOUS
10
97.9821
20
-181.742
11
98.5536
21
-181.742
0
LINE
8
BLACK
6
CONTINUOUS
10
98.5536
20
-181.742
11
98.8393
21
-181.599
0
LINE
8
BLACK
6
CONTINUOUS
10
98.8393
20
-181.599
11
98.9821
21
-181.456
0
LINE
8
BLACK
6
CONTINUOUS
10
98.9821
20
-181.456
11
99.125
21
-181.171
0
LINE
8
BLACK
6
CONTINUOUS
10
99.125
20
-181.171
11
99.125
21
-180.456
0
LINE
8
BLACK
6
CONTINUOUS
10
99.125
20
-180.456
11
98.9821
21
-180.171
0
LINE
8
BLACK
6
CONTINUOUS
10
98.9821
20
-180.171
11
98.8393
21
-180.028
0
LINE
8
BLACK
6
CONTINUOUS
10
98.8393
20
-180.028
11
98.5536
21
-179.885
0
LINE
8
BLACK
6
CONTINUOUS
10
98.5536
20
-179.885
11
97.9821
21
-179.885
0
LINE
8
BLACK
6
CONTINUOUS
10
97.9821
20
-179.885
11
97.6964
21
-180.028
0
LINE
8
BLACK
6
CONTINUOUS
10
97.6964
20
-180.028
11
97.5536
21
-180.171
0
LINE
8
BLACK
6
CONTINUOUS
10
97.5536
20
-180.171
11
97.4107
21
-180.456
0
LINE
8
BLACK
6
CONTINUOUS
10
100.268
20
-178.742
11
100.268
21
-179.314
0
LINE
8
BLACK
6
CONTINUOUS
10
101.411
20
-178.742
11
101.411
21
-179.314
0
LINE
8
BLACK
6
CONTINUOUS
10
105.839
20
-182.885
11
105.696
21
-182.742
0
LINE
8
BLACK
6
CONTINUOUS
10
105.696
20
-182.742
11
105.411
21
-182.314
0
LINE
8
BLACK
6
CONTINUOUS
10
105.411
20
-182.314
11
105.268
21
-182.028
0
LINE
8
BLACK
6
CONTINUOUS
10
105.268
20
-182.028
11
105.125
21
-181.599
0
LINE
8
BLACK
6
CONTINUOUS
10
105.125
20
-181.599
11
104.982
21
-180.885
0
LINE
8
BLACK
6
CONTINUOUS
10
104.982
20
-180.885
11
104.982
21
-180.314
0
LINE
8
BLACK
6
CONTINUOUS
10
104.982
20
-180.314
11
105.125
21
-179.599
0
LINE
8
BLACK
6
CONTINUOUS
10
105.125
20
-179.599
11
105.268
21
-179.171
0
LINE
8
BLACK
6
CONTINUOUS
10
105.268
20
-179.171
11
105.411
21
-178.885
0
LINE
8
BLACK
6
CONTINUOUS
10
105.411
20
-178.885
11
105.696
21
-178.456
0
LINE
8
BLACK
6
CONTINUOUS
10
105.696
20
-178.456
11
105.839
21
-178.314
0
LINE
8
BLACK
6
CONTINUOUS
10
108.268
20
-179.742
11
108.268
21
-181.742
0
LINE
8
BLACK
6
CONTINUOUS
10
107.554
20
-178.599
11
106.839
21
-180.742
0
LINE
8
BLACK
6
CONTINUOUS
10
106.839
20
-180.742
11
108.696
21
-180.742
0
LINE
8
BLACK
6
CONTINUOUS
10
112.125
20
-181.742
11
112.125
21
-178.742
0
LINE
8
BLACK
6
CONTINUOUS
10
113.411
20
-181.742
11
113.411
21
-180.171
0
LINE
8
BLACK
6
CONTINUOUS
10
113.411
20
-180.171
11
113.268
21
-179.885
0
LINE
8
BLACK
6
CONTINUOUS
10
113.268
20
-179.885
11
112.982
21
-179.742
0
LINE
8
BLACK
6
CONTINUOUS
10
112.982
20
-179.742
11
112.554
21
-179.742
0
LINE
8
BLACK
6
CONTINUOUS
10
112.554
20
-179.742
11
112.268
21
-179.885
0
LINE
8
BLACK
6
CONTINUOUS
10
112.268
20
-179.885
11
112.125
21
-180.028
0
LINE
8
BLACK
6
CONTINUOUS
10
115.268
20
-181.742
11
114.982
21
-181.599
0
LINE
8
BLACK
6
CONTINUOUS
10
114.982
20
-181.599
11
114.839
21
-181.456
0
LINE
8
BLACK
6
CONTINUOUS
10
114.839
20
-181.456
11
114.696
21
-181.171
0
LINE
8
BLACK
6
CONTINUOUS
10
114.696
20
-181.171
11
114.696
21
-180.314
0
LINE
8
BLACK
6
CONTINUOUS
10
114.696
20
-180.314
11
114.839
21
-180.028
0
LINE
8
BLACK
6
CONTINUOUS
10
114.839
20
-180.028
11
114.982
21
-179.885
0
LINE
8
BLACK
6
CONTINUOUS
10
114.982
20
-179.885
11
115.268
21
-179.742
0
LINE
8
BLACK
6
CONTINUOUS
10
115.268
20
-179.742
11
115.696
21
-179.742
0
LINE
8
BLACK
6
CONTINUOUS
10
115.696
20
-179.742
11
115.982
21
-179.885
0
LINE
8
BLACK
6
CONTINUOUS
10
115.982
20
-179.885
11
116.125
21
-180.028
0
LINE
8
BLACK
6
CONTINUOUS
10
116.125
20
-180.028
11
116.268
21
-180.314
0
LINE
8
BLACK
6
CONTINUOUS
10
116.268
20
-180.314
11
116.268
21
-181.171
0
LINE
8
BLACK
6
CONTINUOUS
10
116.268
20
-181.171
11
116.125
21
-181.456
0
LINE
8
BLACK
6
CONTINUOUS
10
116.125
20
-181.456
11
115.982
21
-181.599
0
LINE
8
BLACK
6
CONTINUOUS
10
115.982
20
-181.599
11
115.696
21
-181.742
0
LINE
8
BLACK
6
CONTINUOUS
10
115.696
20
-181.742
11
115.268
21
-181.742
0
LINE
8
BLACK
6
CONTINUOUS
10
117.982
20
-181.742
11
117.696
21
-181.599
0
LINE
8
BLACK
6
CONTINUOUS
10
117.696
20
-181.599
11
117.554
21
-181.314
0
LINE
8
BLACK
6
CONTINUOUS
10
117.554
20
-181.314
11
117.554
21
-178.742
0
LINE
8
BLACK
6
CONTINUOUS
10
120.268
20
-181.599
11
119.982
21
-181.742
0
LINE
8
BLACK
6
CONTINUOUS
10
119.982
20
-181.742
11
119.411
21
-181.742
0
LINE
8
BLACK
6
CONTINUOUS
10
119.411
20
-181.742
11
119.125
21
-181.599
0
LINE
8
BLACK
6
CONTINUOUS
10
119.125
20
-181.599
11
118.982
21
-181.314
0
LINE
8
BLACK
6
CONTINUOUS
10
118.982
20
-181.314
11
118.982
21
-180.171
0
LINE
8
BLACK
6
CONTINUOUS
10
118.982
20
-180.171
11
119.125
21
-179.885
0
LINE
8
BLACK
6
CONTINUOUS
10
119.125
20
-179.885
11
119.411
21
-179.742
0
LINE
8
BLACK
6
CONTINUOUS
10
119.411
20
-179.742
11
119.982
21
-179.742
0
LINE
8
BLACK
6
CONTINUOUS
10
119.982
20
-179.742
11
120.268
21
-179.885
0
LINE
8
BLACK
6
CONTINUOUS
10
120.268
20
-179.885
11
120.411
21
-180.171
0
LINE
8
BLACK
6
CONTINUOUS
10
120.411
20
-180.171
11
120.411
21
-180.456
0
LINE
8
BLACK
6
CONTINUOUS
10
120.411
20
-180.456
11
118.982
21
-180.742
0
LINE
8
BLACK
6
CONTINUOUS
10
121.554
20
-181.599
11
121.839
21
-181.742
0
LINE
8
BLACK
6
CONTINUOUS
10
121.839
20
-181.742
11
122.411
21
-181.742
0
LINE
8
BLACK
6
CONTINUOUS
10
122.411
20
-181.742
11
122.696
21
-181.599
0
LINE
8
BLACK
6
CONTINUOUS
10
122.696
20
-181.599
11
122.839
21
-181.314
0
LINE
8
BLACK
6
CONTINUOUS
10
122.839
20
-181.314
11
122.839
21
-181.171
0
LINE
8
BLACK
6
CONTINUOUS
10
122.839
20
-181.171
11
122.696
21
-180.885
0
LINE
8
BLACK
6
CONTINUOUS
10
122.696
20
-180.885
11
122.411
21
-180.742
0
LINE
8
BLACK
6
CONTINUOUS
10
122.411
20
-180.742
11
121.982
21
-180.742
0
LINE
8
BLACK
6
CONTINUOUS
10
121.982
20
-180.742
11
121.696
21
-180.599
0
LINE
8
BLACK
6
CONTINUOUS
10
121.696
20
-180.599
11
121.554
21
-180.314
0
LINE
8
BLACK
6
CONTINUOUS
10
121.554
20
-180.314
11
121.554
21
-180.171
0
LINE
8
BLACK
6
CONTINUOUS
10
121.554
20
-180.171
11
121.696
21
-179.885
0
LINE
8
BLACK
6
CONTINUOUS
10
121.696
20
-179.885
11
121.982
21
-179.742
0
LINE
8
BLACK
6
CONTINUOUS
10
121.982
20
-179.742
11
122.411
21
-179.742
0
LINE
8
BLACK
6
CONTINUOUS
10
122.411
20
-179.742
11
122.696
21
-179.885
0
LINE
8
BLACK
6
CONTINUOUS
10
123.839
20
-182.885
11
123.982
21
-182.742
0
LINE
8
BLACK
6
CONTINUOUS
10
123.982
20
-182.742
11
124.268
21
-182.314
0
LINE
8
BLACK
6
CONTINUOUS
10
124.268
20
-182.314
11
124.411
21
-182.028
0
LINE
8
BLACK
6
CONTINUOUS
10
124.411
20
-182.028
11
124.554
21
-181.599
0
LINE
8
BLACK
6
CONTINUOUS
10
124.554
20
-181.599
11
124.696
21
-180.885
0
LINE
8
BLACK
6
CONTINUOUS
10
124.696
20
-180.885
11
124.696
21
-180.314
0
LINE
8
BLACK
6
CONTINUOUS
10
124.696
20
-180.314
11
124.554
21
-179.599
0
LINE
8
BLACK
6
CONTINUOUS
10
124.554
20
-179.599
11
124.411
21
-179.171
0
LINE
8
BLACK
6
CONTINUOUS
10
124.411
20
-179.171
11
124.268
21
-178.885
0
LINE
8
BLACK
6
CONTINUOUS
10
124.268
20
-178.885
11
123.982
21
-178.456
0
LINE
8
BLACK
6
CONTINUOUS
10
123.982
20
-178.456
11
123.839
21
-178.314
  0
ENDSEC
  0
EOF
