M48
; DRILL file {KiCad 9.0.3+dfsg-1} date 2026-03-25T22:32:08+0100
; FORMAT={-:-/ absolute / metric / decimal}
; #@! TF.CreationDate,2026-03-25T22:32:08+01:00
; #@! TF.GenerationSoftware,Kicad,Pcbnew,9.0.3+dfsg-1
; #@! TF.FileFunction,Plated,1,2,PTH
FMAT,2
METRIC
; #@! TA.AperFunction,Plated,PTH,ViaDrill
T1C0.500
; #@! TA.AperFunction,Plated,PTH,ComponentDrill
T2C0.800
; #@! TA.AperFunction,Plated,PTH,ComponentDrill
T3C0.900
; #@! TA.AperFunction,Plated,PTH,ViaDrill
T4C1.000
; #@! TA.AperFunction,Plated,PTH,ComponentDrill
T5C1.000
; #@! TA.AperFunction,Plated,PTH,ComponentDrill
T6C1.020
; #@! TA.AperFunction,Plated,PTH,ComponentDrill
T7C1.100
; #@! TA.AperFunction,Plated,PTH,ComponentDrill
T8C1.110
; #@! TA.AperFunction,Plated,PTH,ComponentDrill
T9C1.300
; #@! TA.AperFunction,Plated,PTH,ComponentDrill
T10C1.400
%
G90
G05
T1
X47.0Y-61.7
X66.5Y-112.25
T2
X41.25Y-105.75
X43.79Y-105.75
X44.4Y-30.039
X44.5Y-88.9
X44.5Y-101.6
X45.65Y-64.7
X46.0Y-26.868
X46.0Y-29.368
X47.6Y-26.197
X47.83Y-91.5
X49.0Y-95.15
X49.0Y-107.85
X50.37Y-91.5
X54.88Y-108.75
X55.5Y-87.65
X55.5Y-100.35
X57.42Y-108.75
X58.35Y-64.7
X64.75Y-90.63
X64.75Y-93.17
X71.08Y-51.75
X73.62Y-51.75
X76.33Y-93.0
X76.46Y-97.0
X76.46Y-101.0
X76.94Y-64.57
X76.94Y-67.11
X76.94Y-69.65
X76.94Y-72.19
X76.94Y-74.73
X76.94Y-77.27
X76.94Y-79.81
X76.94Y-82.35
X76.94Y-84.89
X76.94Y-87.43
X77.13Y-105.0
X78.697Y-53.9
X78.87Y-93.0
X79.0Y-97.0
X79.0Y-101.0
X79.368Y-55.5
X79.67Y-105.0
X81.868Y-55.5
X82.539Y-57.1
X83.75Y-90.4
X83.75Y-103.1
X84.56Y-64.57
X84.56Y-67.11
X84.56Y-69.65
X84.56Y-72.19
X84.56Y-74.73
X84.56Y-77.27
X84.56Y-79.81
X84.56Y-82.35
X84.56Y-84.89
X84.56Y-87.43
X88.0Y-66.08
X88.0Y-68.62
X88.0Y-73.75
X88.0Y-79.25
X88.0Y-104.16
X88.0Y-106.7
X90.25Y-82.33
X90.25Y-84.87
X90.54Y-73.75
X90.54Y-79.25
X105.21Y-117.75
X106.0Y-75.7
X106.0Y-94.7
X107.75Y-117.75
X108.54Y-75.7
X108.54Y-94.7
T3
X63.975Y-52.5
X66.515Y-52.5
X104.985Y-112.25
X107.525Y-112.25
X112.46Y-75.7
X112.46Y-94.7
X115.0Y-75.7
X115.0Y-94.7
T4
X58.75Y-101.5
X58.75Y-103.25
X59.0Y-87.75
X59.0Y-89.5
X60.75Y-101.5
X60.75Y-103.25
X61.0Y-87.75
X61.0Y-89.5
X90.5Y-43.2
X93.0Y-35.7
X93.0Y-43.2
X95.5Y-35.7
X95.5Y-43.2
X98.0Y-35.7
X98.0Y-43.2
X100.5Y-35.7
X100.5Y-43.2
T5
X69.46Y-62.6
X69.46Y-65.14
X69.46Y-67.68
X69.46Y-70.22
X69.46Y-72.76
X69.46Y-75.3
X69.46Y-77.84
X69.46Y-80.38
X69.46Y-82.92
X69.46Y-85.46
X69.46Y-88.0
X69.46Y-90.54
X69.46Y-93.08
X69.46Y-95.62
X69.46Y-98.16
X69.46Y-100.7
X69.46Y-103.24
X69.46Y-105.78
X69.46Y-108.32
X69.46Y-110.86
X72.0Y-62.6
X72.0Y-65.14
X72.0Y-67.68
X72.0Y-70.22
X72.0Y-72.76
X72.0Y-75.3
X72.0Y-77.84
X72.0Y-80.38
X72.0Y-82.92
X72.0Y-85.46
X72.0Y-88.0
X72.0Y-90.54
X72.0Y-93.08
X72.0Y-95.62
X72.0Y-98.16
X72.0Y-100.7
X72.0Y-103.24
X72.0Y-105.78
X72.0Y-108.32
X72.0Y-110.86
T6
X38.0Y-111.0
X38.0Y-113.54
X38.0Y-116.08
X38.0Y-118.62
X38.3Y-92.2
X38.3Y-94.74
X38.3Y-97.28
X38.3Y-99.82
X38.5Y-75.88
X38.5Y-78.42
X38.5Y-80.96
X38.5Y-83.5
X38.7Y-57.88
X38.7Y-60.42
X38.7Y-62.96
X38.7Y-65.5
T7
X96.05Y-66.12
X96.05Y-68.66
X96.05Y-71.2
X96.05Y-85.6
X96.05Y-88.14
X96.05Y-90.68
X96.05Y-104.2
X96.05Y-106.74
X96.05Y-109.28
X104.92Y-63.7
X105.0Y-82.7
X105.0Y-101.7
X115.08Y-63.7
X115.16Y-82.7
X115.16Y-101.7
T8
X34.4Y-41.0
X36.94Y-41.0
X39.48Y-41.0
X42.02Y-41.0
X44.56Y-41.0
X47.1Y-41.0
X49.64Y-41.0
X69.95Y-41.0
X72.5Y-41.0
X75.05Y-41.0
X77.6Y-41.0
X80.15Y-41.0
X82.7Y-41.0
T9
X53.5Y-115.75
X58.5Y-115.75
X63.5Y-115.75
X78.25Y-115.667
X83.25Y-115.667
X88.25Y-115.667
X90.38Y-35.7
X105.62Y-35.7
T10
X83.0Y-24.12
X83.0Y-29.2
X93.0Y-24.12
X93.0Y-29.2
X103.0Y-24.12
X103.0Y-29.2
X110.5Y-36.7
X110.5Y-46.7
X110.5Y-57.7
X110.5Y-69.02
X110.5Y-88.1
X110.5Y-107.1
X113.0Y-24.12
X113.0Y-29.2
X115.58Y-36.7
X115.58Y-46.7
X115.58Y-57.7
X115.58Y-69.02
X115.58Y-88.1
X115.58Y-107.1
M30
