%TF.GenerationSoftware,KiCad,Pcbnew,9.0.3+dfsg-1*%
%TF.CreationDate,2026-03-25T22:32:11+01:00*%
%TF.ProjectId,PCB_Ventil,5043425f-5665-46e7-9469-6c2e6b696361,A*%
%TF.SameCoordinates,Original*%
%TF.FileFunction,Soldermask,Bot*%
%TF.FilePolarity,Negative*%
%FSLAX46Y46*%
G04 Gerber Fmt 4.6, Leading zero omitted, Abs format (unit mm)*
G04 Created by KiCad (PCBNEW 9.0.3+dfsg-1) date 2026-03-25 22:32:11*
%MOMM*%
%LPD*%
G01*
G04 APERTURE LIST*
G04 Aperture macros list*
%AMRoundRect*
0 Rectangle with rounded corners*
0 $1 Rounding radius*
0 $2 $3 $4 $5 $6 $7 $8 $9 X,Y pos of 4 corners*
0 Add a 4 corners polygon primitive as box body*
4,1,4,$2,$3,$4,$5,$6,$7,$8,$9,$2,$3,0*
0 Add four circle primitives for the rounded corners*
1,1,$1+$1,$2,$3*
1,1,$1+$1,$4,$5*
1,1,$1+$1,$6,$7*
1,1,$1+$1,$8,$9*
0 Add four rect primitives between the rounded corners*
20,1,$1+$1,$2,$3,$4,$5,0*
20,1,$1+$1,$4,$5,$6,$7,0*
20,1,$1+$1,$6,$7,$8,$9,0*
20,1,$1+$1,$8,$9,$2,$3,0*%
G04 Aperture macros list end*
%ADD10C,1.600000*%
%ADD11C,3.200000*%
%ADD12RoundRect,0.250000X-0.950000X-0.550000X0.950000X-0.550000X0.950000X0.550000X-0.950000X0.550000X0*%
%ADD13O,2.400000X1.600000*%
%ADD14RoundRect,0.250001X-1.149999X-1.149999X1.149999X-1.149999X1.149999X1.149999X-1.149999X1.149999X0*%
%ADD15C,2.800000*%
%ADD16RoundRect,0.250000X0.550000X0.550000X-0.550000X0.550000X-0.550000X-0.550000X0.550000X-0.550000X0*%
%ADD17R,2.000000X1.905000*%
%ADD18O,2.000000X1.905000*%
%ADD19R,1.665000X1.665000*%
%ADD20C,1.665000*%
%ADD21R,3.000000X3.000000*%
%ADD22C,3.000000*%
%ADD23RoundRect,0.249999X-0.850001X-0.850001X0.850001X-0.850001X0.850001X0.850001X-0.850001X0.850001X0*%
%ADD24C,2.200000*%
%ADD25C,1.100000*%
%ADD26R,2.030000X1.730000*%
%ADD27O,2.030000X1.730000*%
%ADD28RoundRect,0.250000X1.050000X1.050000X-1.050000X1.050000X-1.050000X-1.050000X1.050000X-1.050000X0*%
%ADD29C,2.600000*%
%ADD30R,1.800000X1.800000*%
%ADD31C,1.800000*%
%ADD32RoundRect,0.250000X0.550000X-0.550000X0.550000X0.550000X-0.550000X0.550000X-0.550000X-0.550000X0*%
%ADD33R,1.700000X1.700000*%
%ADD34C,1.700000*%
G04 APERTURE END LIST*
D10*
%TO.C,R3*%
X83750000Y-90400000D03*
X83750000Y-103100000D03*
%TD*%
%TO.C,R2*%
X88000000Y-79250000D03*
X90540000Y-79250000D03*
%TD*%
%TO.C,R1*%
X88000000Y-73750000D03*
X90540000Y-73750000D03*
%TD*%
%TO.C,R16*%
X50370000Y-91500000D03*
X47830000Y-91500000D03*
%TD*%
%TO.C,R9*%
X43790000Y-105750000D03*
X41250000Y-105750000D03*
%TD*%
D11*
%TO.C,J21*%
X113000000Y-115750000D03*
%TD*%
%TO.C,J20*%
X35500000Y-25750000D03*
%TD*%
D12*
%TO.C,U1*%
X76940000Y-64570000D03*
D13*
X76940000Y-67110000D03*
X76940000Y-69650000D03*
X76940000Y-72190000D03*
X76940000Y-74730000D03*
X76940000Y-77270000D03*
X76940000Y-79810000D03*
X76940000Y-82350000D03*
X76940000Y-84890000D03*
X76940000Y-87430000D03*
X84560000Y-87430000D03*
X84560000Y-84890000D03*
X84560000Y-82350000D03*
X84560000Y-79810000D03*
X84560000Y-77270000D03*
X84560000Y-74730000D03*
X84560000Y-72190000D03*
X84560000Y-69650000D03*
X84560000Y-67110000D03*
X84560000Y-64570000D03*
%TD*%
D10*
%TO.C,R22*%
X54880000Y-108750000D03*
X57420000Y-108750000D03*
%TD*%
D14*
%TO.C,J19*%
X53500000Y-115750000D03*
D15*
X58500000Y-115750000D03*
X63500000Y-115750000D03*
%TD*%
D16*
%TO.C,C2*%
X82538614Y-57100000D03*
X81867677Y-55500000D03*
D10*
X79367677Y-55500000D03*
X78696740Y-53900000D03*
%TD*%
D17*
%TO.C,Q1*%
X96050000Y-66120000D03*
D18*
X96050000Y-68660000D03*
X96050000Y-71200000D03*
%TD*%
D10*
%TO.C,R21*%
X73620000Y-51750000D03*
X71080000Y-51750000D03*
%TD*%
D19*
%TO.C,PS1*%
X82700000Y-41000000D03*
D20*
X80150000Y-41000000D03*
X77600000Y-41000000D03*
X75050000Y-41000000D03*
X72500000Y-41000000D03*
X69950000Y-41000000D03*
X49640000Y-41000000D03*
X47100000Y-41000000D03*
X44560000Y-41000000D03*
X42020000Y-41000000D03*
X39480000Y-41000000D03*
X36940000Y-41000000D03*
X34400000Y-41000000D03*
%TD*%
D10*
%TO.C,R17*%
X49000000Y-95150000D03*
X49000000Y-107850000D03*
%TD*%
%TO.C,R5*%
X90250000Y-84870000D03*
X90250000Y-82330000D03*
%TD*%
D21*
%TO.C,J1*%
X113000000Y-29200000D03*
D22*
X113000000Y-24120000D03*
%TD*%
D11*
%TO.C,J17*%
X70750000Y-57750000D03*
%TD*%
D10*
%TO.C,R18*%
X106000000Y-75700000D03*
X108540000Y-75700000D03*
%TD*%
%TO.C,R7*%
X77130000Y-105000000D03*
X79670000Y-105000000D03*
%TD*%
%TO.C,R15*%
X55500000Y-100350000D03*
X55500000Y-87650000D03*
%TD*%
%TO.C,R20*%
X105210000Y-117750000D03*
X107750000Y-117750000D03*
%TD*%
%TO.C,R4*%
X88000000Y-68620000D03*
X88000000Y-66080000D03*
%TD*%
D23*
%TO.C,D3*%
X105000000Y-82700000D03*
D24*
X115160000Y-82700000D03*
%TD*%
D10*
%TO.C,R14*%
X44500000Y-101600000D03*
X44500000Y-88900000D03*
%TD*%
D11*
%TO.C,J18*%
X70750000Y-116000000D03*
%TD*%
D10*
%TO.C,R11*%
X79000000Y-101000000D03*
X76460000Y-101000000D03*
%TD*%
D21*
%TO.C,J9*%
X110500000Y-57700000D03*
D22*
X115580000Y-57700000D03*
%TD*%
D25*
%TO.C,J11*%
X36340000Y-78420000D03*
D26*
X38500000Y-83500000D03*
D27*
X38500000Y-80960000D03*
X38500000Y-78420000D03*
X38500000Y-75880000D03*
%TD*%
D28*
%TO.C,D1*%
X105620000Y-35700000D03*
D29*
X90380000Y-35700000D03*
%TD*%
D25*
%TO.C,J12*%
X36540000Y-60420000D03*
D26*
X38700000Y-65500000D03*
D27*
X38700000Y-62960000D03*
X38700000Y-60420000D03*
X38700000Y-57880000D03*
%TD*%
D21*
%TO.C,J5*%
X110500000Y-36700000D03*
D22*
X115580000Y-36700000D03*
%TD*%
D30*
%TO.C,D7*%
X107525000Y-112250000D03*
D31*
X104985000Y-112250000D03*
%TD*%
D10*
%TO.C,R6*%
X88000000Y-106700000D03*
X88000000Y-104160000D03*
%TD*%
D21*
%TO.C,J7*%
X110500000Y-46700000D03*
D22*
X115580000Y-46700000D03*
%TD*%
D21*
%TO.C,J10*%
X110500000Y-107100000D03*
D22*
X115580000Y-107100000D03*
%TD*%
D23*
%TO.C,D2*%
X104920000Y-63700000D03*
D24*
X115080000Y-63700000D03*
%TD*%
D21*
%TO.C,J2*%
X93000000Y-29200000D03*
D22*
X93000000Y-24120000D03*
%TD*%
D32*
%TO.C,C1*%
X44400000Y-30038614D03*
X46000000Y-29367677D03*
D10*
X46000000Y-26867677D03*
X47600000Y-26196740D03*
%TD*%
D21*
%TO.C,J6*%
X110500000Y-69020000D03*
D22*
X115580000Y-69020000D03*
%TD*%
D10*
%TO.C,R10*%
X79000000Y-97000000D03*
X76460000Y-97000000D03*
%TD*%
D17*
%TO.C,Q3*%
X96050000Y-104200000D03*
D18*
X96050000Y-106740000D03*
X96050000Y-109280000D03*
%TD*%
D21*
%TO.C,J16*%
X83000000Y-29200000D03*
D22*
X83000000Y-24120000D03*
%TD*%
D10*
%TO.C,R12*%
X64750000Y-90630000D03*
X64750000Y-93170000D03*
%TD*%
D21*
%TO.C,J8*%
X110500000Y-88100000D03*
D22*
X115580000Y-88100000D03*
%TD*%
D10*
%TO.C,R8*%
X58350000Y-64700000D03*
X45650000Y-64700000D03*
%TD*%
%TO.C,R19*%
X106000000Y-94700000D03*
X108540000Y-94700000D03*
%TD*%
D30*
%TO.C,D8*%
X63975000Y-52500000D03*
D31*
X66515000Y-52500000D03*
%TD*%
D14*
%TO.C,J4*%
X78250000Y-115667500D03*
D15*
X83250000Y-115667500D03*
X88250000Y-115667500D03*
%TD*%
D10*
%TO.C,R13*%
X78870000Y-93000000D03*
X76330000Y-93000000D03*
%TD*%
D27*
%TO.C,J14*%
X38000000Y-111000000D03*
X38000000Y-113540000D03*
X38000000Y-116080000D03*
D26*
X38000000Y-118620000D03*
D25*
X35840000Y-113540000D03*
%TD*%
D30*
%TO.C,D6*%
X115000000Y-94700000D03*
D31*
X112460000Y-94700000D03*
%TD*%
D17*
%TO.C,Q2*%
X96050000Y-85600000D03*
D18*
X96050000Y-88140000D03*
X96050000Y-90680000D03*
%TD*%
D23*
%TO.C,D4*%
X105000000Y-101700000D03*
D24*
X115160000Y-101700000D03*
%TD*%
D21*
%TO.C,J15*%
X103000000Y-29200000D03*
D22*
X103000000Y-24120000D03*
%TD*%
D27*
%TO.C,J13*%
X38300000Y-92200000D03*
X38300000Y-94740000D03*
X38300000Y-97280000D03*
D26*
X38300000Y-99820000D03*
D25*
X36140000Y-94740000D03*
%TD*%
D30*
%TO.C,D5*%
X115000000Y-75700000D03*
D31*
X112460000Y-75700000D03*
%TD*%
D33*
%TO.C,J3*%
X72000000Y-110860000D03*
D34*
X69460000Y-110860000D03*
X72000000Y-108320000D03*
X69460000Y-108320000D03*
X72000000Y-105780000D03*
X69460000Y-105780000D03*
X72000000Y-103240000D03*
X69460000Y-103240000D03*
X72000000Y-100700000D03*
X69460000Y-100700000D03*
X72000000Y-98160000D03*
X69460000Y-98160000D03*
X72000000Y-95620000D03*
X69460000Y-95620000D03*
X72000000Y-93080000D03*
X69460000Y-93080000D03*
X72000000Y-90540000D03*
X69460000Y-90540000D03*
X72000000Y-88000000D03*
X69460000Y-88000000D03*
X72000000Y-85460000D03*
X69460000Y-85460000D03*
X72000000Y-82920000D03*
X69460000Y-82920000D03*
X72000000Y-80380000D03*
X69460000Y-80380000D03*
X72000000Y-77840000D03*
X69460000Y-77840000D03*
X72000000Y-75300000D03*
X69460000Y-75300000D03*
X72000000Y-72760000D03*
X69460000Y-72760000D03*
X72000000Y-70220000D03*
X69460000Y-70220000D03*
X72000000Y-67680000D03*
X69460000Y-67680000D03*
X72000000Y-65140000D03*
X69460000Y-65140000D03*
X72000000Y-62600000D03*
X69460000Y-62600000D03*
%TD*%
G36*
X94008059Y-22201061D02*
G01*
X94113223Y-22214906D01*
X94144491Y-22223284D01*
X94234918Y-22260740D01*
X94262951Y-22276925D01*
X94340601Y-22336508D01*
X94363491Y-22359398D01*
X94423074Y-22437048D01*
X94439259Y-22465081D01*
X94476715Y-22555508D01*
X94485093Y-22586775D01*
X94498939Y-22691939D01*
X94500000Y-22708125D01*
X94500000Y-111191874D01*
X94498939Y-111208060D01*
X94485093Y-111313224D01*
X94476715Y-111344491D01*
X94439259Y-111434918D01*
X94423074Y-111462951D01*
X94363491Y-111540601D01*
X94340601Y-111563491D01*
X94262951Y-111623074D01*
X94234918Y-111639259D01*
X94144491Y-111676715D01*
X94113224Y-111685093D01*
X94008060Y-111698939D01*
X93991874Y-111700000D01*
X90008126Y-111700000D01*
X89991940Y-111698939D01*
X89886775Y-111685093D01*
X89855508Y-111676715D01*
X89765081Y-111639259D01*
X89737048Y-111623074D01*
X89659398Y-111563491D01*
X89636508Y-111540601D01*
X89576925Y-111462951D01*
X89560740Y-111434918D01*
X89523284Y-111344491D01*
X89514906Y-111313223D01*
X89501061Y-111208059D01*
X89500000Y-111191874D01*
X89500000Y-36700000D01*
X84152198Y-31352198D01*
X84141503Y-31340003D01*
X84076924Y-31255842D01*
X84060739Y-31227808D01*
X84023284Y-31137383D01*
X84014906Y-31106116D01*
X84001061Y-31000952D01*
X84000000Y-30984767D01*
X84000000Y-22708125D01*
X84001061Y-22691940D01*
X84014906Y-22586776D01*
X84023284Y-22555508D01*
X84060740Y-22465081D01*
X84076925Y-22437048D01*
X84136508Y-22359398D01*
X84159398Y-22336508D01*
X84237048Y-22276925D01*
X84265081Y-22260740D01*
X84355508Y-22223284D01*
X84386776Y-22214906D01*
X84491941Y-22201061D01*
X84508126Y-22200000D01*
X93991874Y-22200000D01*
X94008059Y-22201061D01*
G37*
G36*
X112508059Y-22701061D02*
G01*
X112613223Y-22714906D01*
X112644491Y-22723284D01*
X112734918Y-22760740D01*
X112762951Y-22776925D01*
X112840601Y-22836508D01*
X112863491Y-22859398D01*
X112923074Y-22937048D01*
X112939259Y-22965081D01*
X112976715Y-23055508D01*
X112985093Y-23086775D01*
X112998939Y-23191939D01*
X113000000Y-23208125D01*
X113000000Y-30700000D01*
X114347801Y-32047801D01*
X114358496Y-32059996D01*
X114423075Y-32144157D01*
X114439260Y-32172191D01*
X114476715Y-32262616D01*
X114485093Y-32293882D01*
X114498939Y-32399046D01*
X114500000Y-32415232D01*
X114500000Y-59191874D01*
X114498939Y-59208060D01*
X114485093Y-59313224D01*
X114476715Y-59344491D01*
X114439259Y-59434918D01*
X114423074Y-59462951D01*
X114363491Y-59540601D01*
X114340601Y-59563491D01*
X114262951Y-59623074D01*
X114234918Y-59639259D01*
X114144491Y-59676715D01*
X114113224Y-59685093D01*
X114008060Y-59698939D01*
X113991874Y-59700000D01*
X112008126Y-59700000D01*
X111991940Y-59698939D01*
X111886775Y-59685093D01*
X111855508Y-59676715D01*
X111765081Y-59639259D01*
X111737048Y-59623074D01*
X111659398Y-59563491D01*
X111636508Y-59540601D01*
X111576925Y-59462951D01*
X111560740Y-59434918D01*
X111523284Y-59344491D01*
X111514906Y-59313223D01*
X111501061Y-59208059D01*
X111500000Y-59191874D01*
X111500000Y-34700000D01*
X107215233Y-34700000D01*
X107199047Y-34698939D01*
X107093882Y-34685093D01*
X107062616Y-34676715D01*
X106972191Y-34639260D01*
X106944157Y-34623075D01*
X106859996Y-34558496D01*
X106847801Y-34547801D01*
X103152198Y-30852198D01*
X103141503Y-30840003D01*
X103076924Y-30755842D01*
X103060739Y-30727808D01*
X103023284Y-30637383D01*
X103014906Y-30606116D01*
X103001061Y-30500952D01*
X103000000Y-30484767D01*
X103000000Y-23208125D01*
X103001061Y-23191940D01*
X103014906Y-23086776D01*
X103023284Y-23055508D01*
X103060740Y-22965081D01*
X103076925Y-22937048D01*
X103136508Y-22859398D01*
X103159398Y-22836508D01*
X103237048Y-22776925D01*
X103265081Y-22760740D01*
X103355508Y-22723284D01*
X103386776Y-22714906D01*
X103491941Y-22701061D01*
X103508126Y-22700000D01*
X112491874Y-22700000D01*
X112508059Y-22701061D01*
G37*
M02*
