M48
; DRILL file {KiCad 9.0.3+dfsg-1} date 2026-03-25T02:43:14+0100
; FORMAT={-:-/ absolute / metric / decimal}
; #@! TF.CreationDate,2026-03-25T02:43:14+01:00
; #@! TF.GenerationSoftware,Kicad,Pcbnew,9.0.3+dfsg-1
; #@! TF.FileFunction,Plated,1,2,PTH
FMAT,2
METRIC
; #@! TA.AperFunction,Plated,PTH,ViaDrill
T1C0.500
; #@! TA.AperFunction,Plated,PTH,ComponentDrill
T2C0.800
; #@! TA.AperFunction,Plated,PTH,ComponentDrill
T3C0.900
; #@! TA.AperFunction,Plated,PTH,ViaDrill
T4C1.000
; #@! TA.AperFunction,Plated,PTH,ComponentDrill
T5C1.000
; #@! TA.AperFunction,Plated,PTH,ComponentDrill
T6C1.020
; #@! TA.AperFunction,Plated,PTH,ComponentDrill
T7C1.100
; #@! TA.AperFunction,Plated,PTH,ComponentDrill
T8C1.110
; #@! TA.AperFunction,Plated,PTH,ComponentDrill
T9C1.300
; #@! TA.AperFunction,Plated,PTH,ComponentDrill
T10C1.400
%
G90
G05
T1
X50.0Y-61.7
T2
X38.0Y-96.35
X38.0Y-109.05
X44.329Y-25.1
X45.0Y-26.7
X45.0Y-84.35
X45.0Y-97.05
X45.65Y-64.7
X47.5Y-26.7
X48.171Y-28.3
X50.0Y-100.35
X50.0Y-113.05
X55.0Y-25.7
X55.0Y-28.24
X56.0Y-97.35
X56.0Y-110.05
X58.35Y-64.7
X60.0Y-87.65
X60.0Y-100.35
X64.5Y-88.63
X64.5Y-91.17
X73.4Y-28.371
X75.0Y-25.2
X75.0Y-27.7
X75.65Y-62.7
X75.65Y-79.0
X75.65Y-89.2
X76.33Y-93.0
X76.46Y-97.0
X76.46Y-101.0
X76.6Y-24.529
X78.0Y-105.0
X78.87Y-93.0
X79.0Y-97.0
X79.0Y-101.0
X80.54Y-105.0
X88.0Y-66.08
X88.0Y-68.62
X88.0Y-82.2
X88.0Y-84.74
X88.0Y-104.16
X88.0Y-106.7
X88.35Y-62.7
X88.35Y-79.0
X88.35Y-89.2
X106.0Y-75.7
X106.0Y-94.7
X106.0Y-113.7
X108.54Y-75.7
X108.54Y-94.7
X108.54Y-113.7
T3
X61.0Y-25.7
X61.0Y-28.24
X112.46Y-75.7
X112.46Y-94.7
X112.46Y-113.7
X115.0Y-75.7
X115.0Y-94.7
X115.0Y-113.7
T4
X48.0Y-49.7
X48.0Y-51.7
X48.0Y-57.7
X48.0Y-59.7
X90.5Y-43.2
X93.0Y-35.7
X93.0Y-43.2
X95.5Y-35.7
X95.5Y-43.2
X98.0Y-35.7
X98.0Y-43.2
X100.5Y-35.7
X100.5Y-43.2
T5
X69.46Y-62.6
X69.46Y-65.14
X69.46Y-67.68
X69.46Y-70.22
X69.46Y-72.76
X69.46Y-75.3
X69.46Y-77.84
X69.46Y-80.38
X69.46Y-82.92
X69.46Y-85.46
X69.46Y-88.0
X69.46Y-90.54
X69.46Y-93.08
X69.46Y-95.62
X69.46Y-98.16
X69.46Y-100.7
X69.46Y-103.24
X69.46Y-105.78
X69.46Y-108.32
X69.46Y-110.86
X72.0Y-62.6
X72.0Y-65.14
X72.0Y-67.68
X72.0Y-70.22
X72.0Y-72.76
X72.0Y-75.3
X72.0Y-77.84
X72.0Y-80.38
X72.0Y-82.92
X72.0Y-85.46
X72.0Y-88.0
X72.0Y-90.54
X72.0Y-93.08
X72.0Y-95.62
X72.0Y-98.16
X72.0Y-100.7
X72.0Y-103.24
X72.0Y-105.78
X72.0Y-108.32
X72.0Y-110.86
T6
X35.38Y-115.7
X37.92Y-115.7
X38.5Y-75.88
X38.5Y-78.42
X38.5Y-80.96
X38.5Y-83.5
X38.7Y-57.88
X38.7Y-60.42
X38.7Y-62.96
X38.7Y-65.5
X40.46Y-115.7
X43.0Y-115.7
X54.18Y-116.0
X56.72Y-116.0
X59.26Y-116.0
X61.8Y-116.0
T7
X96.05Y-66.12
X96.05Y-68.66
X96.05Y-71.2
X96.05Y-85.6
X96.05Y-88.14
X96.05Y-90.68
X96.05Y-104.2
X96.05Y-106.74
X96.05Y-109.28
X104.92Y-63.7
X105.0Y-82.7
X105.0Y-101.7
X115.08Y-63.7
X115.16Y-82.7
X115.16Y-101.7
T8
X37.0Y-40.7
X39.55Y-40.7
X42.1Y-40.7
X44.65Y-40.7
X47.2Y-40.7
X49.75Y-40.7
X70.06Y-40.7
X72.6Y-40.7
X75.14Y-40.7
X77.68Y-40.7
X80.22Y-40.7
X82.76Y-40.7
X85.3Y-40.7
T9
X78.25Y-115.667
X83.25Y-115.667
X88.25Y-115.667
X90.38Y-35.7
X105.62Y-35.7
T10
X83.0Y-24.12
X83.0Y-29.2
X93.0Y-24.12
X93.0Y-29.2
X103.0Y-24.12
X103.0Y-29.2
X110.5Y-36.7
X110.5Y-46.7
X110.5Y-57.7
X110.5Y-69.02
X110.5Y-88.1
X110.5Y-107.1
X113.0Y-24.12
X113.0Y-29.2
X115.58Y-36.7
X115.58Y-46.7
X115.58Y-57.7
X115.58Y-69.02
X115.58Y-88.1
X115.58Y-107.1
M30
