%TF.GenerationSoftware,KiCad,Pcbnew,9.0.3+dfsg-1*%
%TF.CreationDate,2026-03-25T02:42:58+01:00*%
%TF.ProjectId,PCB_Ventil,5043425f-5665-46e7-9469-6c2e6b696361,A*%
%TF.SameCoordinates,Original*%
%TF.FileFunction,Soldermask,Top*%
%TF.FilePolarity,Negative*%
%FSLAX46Y46*%
G04 Gerber Fmt 4.6, Leading zero omitted, Abs format (unit mm)*
G04 Created by KiCad (PCBNEW 9.0.3+dfsg-1) date 2026-03-25 02:42:58*
%MOMM*%
%LPD*%
G01*
G04 APERTURE LIST*
G04 Aperture macros list*
%AMRoundRect*
0 Rectangle with rounded corners*
0 $1 Rounding radius*
0 $2 $3 $4 $5 $6 $7 $8 $9 X,Y pos of 4 corners*
0 Add a 4 corners polygon primitive as box body*
4,1,4,$2,$3,$4,$5,$6,$7,$8,$9,$2,$3,0*
0 Add four circle primitives for the rounded corners*
1,1,$1+$1,$2,$3*
1,1,$1+$1,$4,$5*
1,1,$1+$1,$6,$7*
1,1,$1+$1,$8,$9*
0 Add four rect primitives between the rounded corners*
20,1,$1+$1,$2,$3,$4,$5,0*
20,1,$1+$1,$4,$5,$6,$7,0*
20,1,$1+$1,$6,$7,$8,$9,0*
20,1,$1+$1,$8,$9,$2,$3,0*%
G04 Aperture macros list end*
%ADD10C,3.200000*%
%ADD11C,1.600000*%
%ADD12RoundRect,0.250000X-0.550000X-0.550000X0.550000X-0.550000X0.550000X0.550000X-0.550000X0.550000X0*%
%ADD13R,2.000000X1.905000*%
%ADD14O,2.000000X1.905000*%
%ADD15R,1.665000X1.665000*%
%ADD16C,1.665000*%
%ADD17R,3.000000X3.000000*%
%ADD18C,3.000000*%
%ADD19RoundRect,0.249999X-0.850001X-0.850001X0.850001X-0.850001X0.850001X0.850001X-0.850001X0.850001X0*%
%ADD20C,2.200000*%
%ADD21C,1.100000*%
%ADD22R,2.030000X1.730000*%
%ADD23O,2.030000X1.730000*%
%ADD24RoundRect,0.250000X1.050000X1.050000X-1.050000X1.050000X-1.050000X-1.050000X1.050000X-1.050000X0*%
%ADD25C,2.600000*%
%ADD26R,1.800000X1.800000*%
%ADD27C,1.800000*%
%ADD28RoundRect,0.250000X0.550000X-0.550000X0.550000X0.550000X-0.550000X0.550000X-0.550000X-0.550000X0*%
%ADD29RoundRect,0.250001X-1.149999X-1.149999X1.149999X-1.149999X1.149999X1.149999X-1.149999X1.149999X0*%
%ADD30C,2.800000*%
%ADD31R,1.730000X2.030000*%
%ADD32O,1.730000X2.030000*%
%ADD33R,1.700000X1.700000*%
%ADD34C,1.700000*%
G04 APERTURE END LIST*
D10*
%TO.C,J18*%
X70750000Y-116000000D03*
%TD*%
D11*
%TO.C,R3*%
X75650000Y-89200000D03*
X88350000Y-89200000D03*
%TD*%
D12*
%TO.C,C2*%
X44329063Y-25100000D03*
X45000000Y-26700000D03*
D11*
X47500000Y-26700000D03*
X48170937Y-28300000D03*
%TD*%
D13*
%TO.C,Q1*%
X96050000Y-66120000D03*
D14*
X96050000Y-68660000D03*
X96050000Y-71200000D03*
%TD*%
D11*
%TO.C,R21*%
X55000000Y-25700000D03*
X55000000Y-28240000D03*
%TD*%
D15*
%TO.C,PS1*%
X37000000Y-40700000D03*
D16*
X39550000Y-40700000D03*
X42100000Y-40700000D03*
X44650000Y-40700000D03*
X47200000Y-40700000D03*
X49750000Y-40700000D03*
X70060000Y-40700000D03*
X72600000Y-40700000D03*
X75140000Y-40700000D03*
X77680000Y-40700000D03*
X80220000Y-40700000D03*
X82760000Y-40700000D03*
X85300000Y-40700000D03*
%TD*%
D11*
%TO.C,R17*%
X56000000Y-97350000D03*
X56000000Y-110050000D03*
%TD*%
%TO.C,R5*%
X88000000Y-84740000D03*
X88000000Y-82200000D03*
%TD*%
D17*
%TO.C,J1*%
X113000000Y-29200000D03*
D18*
X113000000Y-24120000D03*
%TD*%
D11*
%TO.C,R16*%
X38000000Y-96350000D03*
X38000000Y-109050000D03*
%TD*%
%TO.C,R9*%
X50000000Y-100350000D03*
X50000000Y-113050000D03*
%TD*%
%TO.C,R18*%
X106000000Y-75700000D03*
X108540000Y-75700000D03*
%TD*%
%TO.C,R7*%
X78000000Y-105000000D03*
X80540000Y-105000000D03*
%TD*%
%TO.C,R15*%
X60000000Y-100350000D03*
X60000000Y-87650000D03*
%TD*%
%TO.C,R20*%
X106000000Y-113700000D03*
X108540000Y-113700000D03*
%TD*%
%TO.C,R4*%
X88000000Y-68620000D03*
X88000000Y-66080000D03*
%TD*%
D19*
%TO.C,D3*%
X105000000Y-82700000D03*
D20*
X115160000Y-82700000D03*
%TD*%
D11*
%TO.C,R14*%
X45000000Y-97050000D03*
X45000000Y-84350000D03*
%TD*%
%TO.C,R11*%
X79000000Y-101000000D03*
X76460000Y-101000000D03*
%TD*%
D17*
%TO.C,J9*%
X110500000Y-57700000D03*
D18*
X115580000Y-57700000D03*
%TD*%
D21*
%TO.C,J11*%
X36340000Y-78420000D03*
D22*
X38500000Y-83500000D03*
D23*
X38500000Y-80960000D03*
X38500000Y-78420000D03*
X38500000Y-75880000D03*
%TD*%
D24*
%TO.C,D1*%
X105620000Y-35700000D03*
D25*
X90380000Y-35700000D03*
%TD*%
D21*
%TO.C,J12*%
X36540000Y-60420000D03*
D22*
X38700000Y-65500000D03*
D23*
X38700000Y-62960000D03*
X38700000Y-60420000D03*
X38700000Y-57880000D03*
%TD*%
D17*
%TO.C,J5*%
X110500000Y-36700000D03*
D18*
X115580000Y-36700000D03*
%TD*%
D26*
%TO.C,D7*%
X115000000Y-113700000D03*
D27*
X112460000Y-113700000D03*
%TD*%
D11*
%TO.C,R6*%
X88000000Y-106700000D03*
X88000000Y-104160000D03*
%TD*%
D17*
%TO.C,J7*%
X110500000Y-46700000D03*
D18*
X115580000Y-46700000D03*
%TD*%
D11*
%TO.C,R2*%
X75650000Y-79000000D03*
X88350000Y-79000000D03*
%TD*%
D17*
%TO.C,J10*%
X110500000Y-107100000D03*
D18*
X115580000Y-107100000D03*
%TD*%
D19*
%TO.C,D2*%
X104920000Y-63700000D03*
D20*
X115080000Y-63700000D03*
%TD*%
D17*
%TO.C,J2*%
X93000000Y-29200000D03*
D18*
X93000000Y-24120000D03*
%TD*%
D28*
%TO.C,C1*%
X73400000Y-28370937D03*
X75000000Y-27700000D03*
D11*
X75000000Y-25200000D03*
X76600000Y-24529063D03*
%TD*%
D17*
%TO.C,J6*%
X110500000Y-69020000D03*
D18*
X115580000Y-69020000D03*
%TD*%
D11*
%TO.C,R10*%
X79000000Y-97000000D03*
X76460000Y-97000000D03*
%TD*%
D13*
%TO.C,Q3*%
X96050000Y-104200000D03*
D14*
X96050000Y-106740000D03*
X96050000Y-109280000D03*
%TD*%
D17*
%TO.C,J16*%
X83000000Y-29200000D03*
D18*
X83000000Y-24120000D03*
%TD*%
D11*
%TO.C,R12*%
X64500000Y-88630000D03*
X64500000Y-91170000D03*
%TD*%
D17*
%TO.C,J8*%
X110500000Y-88100000D03*
D18*
X115580000Y-88100000D03*
%TD*%
D11*
%TO.C,R8*%
X58350000Y-64700000D03*
X45650000Y-64700000D03*
%TD*%
%TO.C,R19*%
X106000000Y-94700000D03*
X108540000Y-94700000D03*
%TD*%
D26*
%TO.C,D8*%
X61000000Y-25700000D03*
D27*
X61000000Y-28240000D03*
%TD*%
D11*
%TO.C,R1*%
X75650000Y-62700000D03*
X88350000Y-62700000D03*
%TD*%
D29*
%TO.C,J4*%
X78250000Y-115667500D03*
D30*
X83250000Y-115667500D03*
X88250000Y-115667500D03*
%TD*%
D11*
%TO.C,R13*%
X78870000Y-93000000D03*
X76330000Y-93000000D03*
%TD*%
D21*
%TO.C,J14*%
X56720000Y-118160000D03*
D31*
X61800000Y-116000000D03*
D32*
X59260000Y-116000000D03*
X56720000Y-116000000D03*
X54180000Y-116000000D03*
%TD*%
D26*
%TO.C,D6*%
X115000000Y-94700000D03*
D27*
X112460000Y-94700000D03*
%TD*%
D13*
%TO.C,Q2*%
X96050000Y-85600000D03*
D14*
X96050000Y-88140000D03*
X96050000Y-90680000D03*
%TD*%
D19*
%TO.C,D4*%
X105000000Y-101700000D03*
D20*
X115160000Y-101700000D03*
%TD*%
D17*
%TO.C,J15*%
X103000000Y-29200000D03*
D18*
X103000000Y-24120000D03*
%TD*%
D21*
%TO.C,J13*%
X37920000Y-117860000D03*
D31*
X43000000Y-115700000D03*
D32*
X40460000Y-115700000D03*
X37920000Y-115700000D03*
X35380000Y-115700000D03*
%TD*%
D26*
%TO.C,D5*%
X115000000Y-75700000D03*
D27*
X112460000Y-75700000D03*
%TD*%
D33*
%TO.C,J3*%
X72000000Y-110860000D03*
D34*
X69460000Y-110860000D03*
X72000000Y-108320000D03*
X69460000Y-108320000D03*
X72000000Y-105780000D03*
X69460000Y-105780000D03*
X72000000Y-103240000D03*
X69460000Y-103240000D03*
X72000000Y-100700000D03*
X69460000Y-100700000D03*
X72000000Y-98160000D03*
X69460000Y-98160000D03*
X72000000Y-95620000D03*
X69460000Y-95620000D03*
X72000000Y-93080000D03*
X69460000Y-93080000D03*
X72000000Y-90540000D03*
X69460000Y-90540000D03*
X72000000Y-88000000D03*
X69460000Y-88000000D03*
X72000000Y-85460000D03*
X69460000Y-85460000D03*
X72000000Y-82920000D03*
X69460000Y-82920000D03*
X72000000Y-80380000D03*
X69460000Y-80380000D03*
X72000000Y-77840000D03*
X69460000Y-77840000D03*
X72000000Y-75300000D03*
X69460000Y-75300000D03*
X72000000Y-72760000D03*
X69460000Y-72760000D03*
X72000000Y-70220000D03*
X69460000Y-70220000D03*
X72000000Y-67680000D03*
X69460000Y-67680000D03*
X72000000Y-65140000D03*
X69460000Y-65140000D03*
X72000000Y-62600000D03*
X69460000Y-62600000D03*
%TD*%
D10*
%TO.C,J17*%
X70750000Y-57750000D03*
%TD*%
M02*
