G04 #@! TF.GenerationSoftware,KiCad,Pcbnew,5.1.5+dfsg1-2build2*
G04 #@! TF.CreationDate,2021-06-26T08:25:30+02:00*
G04 #@! TF.ProjectId,usb_switch,7573625f-7377-4697-9463-682e6b696361,rev?*
G04 #@! TF.SameCoordinates,Original*
G04 #@! TF.FileFunction,Copper,L3,Inr*
G04 #@! TF.FilePolarity,Positive*
%FSLAX46Y46*%
G04 Gerber Fmt 4.6, Leading zero omitted, Abs format (unit mm)*
G04 Created by KiCad (PCBNEW 5.1.5+dfsg1-2build2) date 2021-06-26 08:25:30*
%MOMM*%
%LPD*%
G04 APERTURE LIST*
%ADD10C,1.600000*%
%ADD11R,1.600000X1.600000*%
%ADD12C,3.000000*%
%ADD13O,1.700000X1.700000*%
%ADD14R,1.700000X1.700000*%
%ADD15O,1.800000X4.000000*%
%ADD16O,4.000000X1.800000*%
%ADD17R,4.400000X1.800000*%
%ADD18C,0.800000*%
%ADD19C,0.254000*%
G04 APERTURE END LIST*
D10*
X120000000Y-112000000D03*
X120000000Y-109500000D03*
X120000000Y-107500000D03*
D11*
X120000000Y-105000000D03*
D12*
X117290000Y-101930000D03*
X117290000Y-115070000D03*
D10*
X120000000Y-132000000D03*
X120000000Y-129500000D03*
X120000000Y-127500000D03*
D11*
X120000000Y-125000000D03*
D12*
X117290000Y-121930000D03*
X117290000Y-135070000D03*
D10*
X122500000Y-95000000D03*
X125000000Y-95000000D03*
X127000000Y-95000000D03*
D11*
X129500000Y-95000000D03*
D12*
X132570000Y-92290000D03*
X119430000Y-92290000D03*
D10*
X137000000Y-135000000D03*
X134500000Y-135000000D03*
X132500000Y-135000000D03*
D11*
X130000000Y-135000000D03*
D12*
X126930000Y-137710000D03*
X140070000Y-137710000D03*
D13*
X163400000Y-111520000D03*
X160860000Y-111520000D03*
X163400000Y-114060000D03*
X160860000Y-114060000D03*
X163400000Y-116600000D03*
X160860000Y-116600000D03*
X163400000Y-119140000D03*
X160860000Y-119140000D03*
X163400000Y-121680000D03*
D14*
X160860000Y-121680000D03*
D15*
X153600000Y-95100000D03*
D16*
X158400000Y-92300000D03*
D17*
X158400000Y-98100000D03*
D14*
X147880000Y-101400000D03*
D13*
X145340000Y-101400000D03*
X142800000Y-101400000D03*
X140260000Y-101400000D03*
D18*
X121650000Y-121750000D03*
X157500000Y-127000000D03*
X143900000Y-115075000D03*
X143900000Y-116550000D03*
X143900000Y-120975000D03*
X143900000Y-122450000D03*
X143900000Y-123925000D03*
X156500000Y-127000000D03*
X156500000Y-133900000D03*
X157500000Y-133900000D03*
X130100000Y-128050000D03*
X131600000Y-128050000D03*
X133100000Y-128050000D03*
X134600000Y-128050000D03*
X121700000Y-122800000D03*
X121700000Y-103000000D03*
X123000000Y-101700000D03*
X122800000Y-118600000D03*
X122800000Y-117100000D03*
X141700000Y-106100000D03*
X141700000Y-104300000D03*
X151000000Y-108800000D03*
X151000000Y-110000000D03*
X149500000Y-95500000D03*
X150700000Y-97000000D03*
X140600000Y-96200000D03*
X140500000Y-99200000D03*
X126900000Y-133400000D03*
X128100000Y-133400000D03*
X132700000Y-98000000D03*
X131400000Y-99300000D03*
X126700000Y-111050000D03*
X126700000Y-109550000D03*
X126700000Y-112550000D03*
X141450000Y-134600000D03*
X141200000Y-128100000D03*
X141300000Y-130700000D03*
X162800000Y-100200000D03*
X162800000Y-99000000D03*
X156400000Y-105800000D03*
X156400000Y-107000000D03*
X157600000Y-108600000D03*
X131200000Y-117600000D03*
X132200000Y-117600000D03*
X133200000Y-117600000D03*
X131200000Y-118600000D03*
X132200000Y-118600000D03*
X131200000Y-119600000D03*
X126500000Y-115550000D03*
X135700000Y-112200000D03*
X137300000Y-112250000D03*
X136500000Y-112850000D03*
X149200000Y-112400000D03*
X149200000Y-111200000D03*
X150500000Y-117500000D03*
X156500000Y-128250000D03*
X156500000Y-135200000D03*
X150800000Y-133900000D03*
X150600000Y-127100000D03*
X157500000Y-128300000D03*
X157500000Y-135200000D03*
X158300000Y-100100000D03*
X159600000Y-100100000D03*
X156900000Y-100100000D03*
X162400000Y-104900000D03*
X143900000Y-119500000D03*
X143900000Y-118025000D03*
X143900000Y-113600000D03*
X145600000Y-125000000D03*
X152000000Y-101300000D03*
X126800000Y-119800000D03*
X129300000Y-122550000D03*
X135900000Y-124850000D03*
X154100000Y-111600000D03*
X153900000Y-104000000D03*
X156400000Y-104000000D03*
X150100000Y-104100000D03*
X152000000Y-106700000D03*
X155200000Y-104000000D03*
X154125000Y-105675000D03*
X154125000Y-106875000D03*
X129800000Y-114050000D03*
X139150000Y-119800000D03*
X134600000Y-112750000D03*
X149600000Y-128800000D03*
X149000000Y-129800000D03*
X150300000Y-129800000D03*
X147900000Y-126500000D03*
X148700000Y-125700000D03*
X149500000Y-124900000D03*
X148100000Y-134700000D03*
X148900000Y-135500000D03*
X149700000Y-136300000D03*
X149700000Y-132500000D03*
X149150000Y-131550000D03*
X150350000Y-131550000D03*
X159650000Y-124200000D03*
X130500000Y-122850000D03*
X163550000Y-127016666D03*
X131400000Y-123650000D03*
X133550000Y-123650000D03*
X163150000Y-129550000D03*
X135200000Y-123600000D03*
X161400000Y-128250000D03*
X161850000Y-132600000D03*
X136350000Y-123200000D03*
X161850000Y-133850000D03*
X136950000Y-121950000D03*
X137100000Y-120950000D03*
X161850000Y-136450000D03*
X136850000Y-119900000D03*
X161850000Y-135200000D03*
X132950000Y-112200000D03*
X133450000Y-113300000D03*
X150400000Y-115800000D03*
X127800000Y-115550000D03*
X151600000Y-115800000D03*
X129150000Y-115550000D03*
X127100000Y-118400000D03*
X127100000Y-117150000D03*
D19*
G36*
X130911637Y-90929017D02*
G01*
X130677988Y-91278698D01*
X130517047Y-91667244D01*
X130435000Y-92079721D01*
X130435000Y-92500279D01*
X130517047Y-92912756D01*
X130677988Y-93301302D01*
X130911637Y-93650983D01*
X131209017Y-93948363D01*
X131558698Y-94182012D01*
X131947244Y-94342953D01*
X132359721Y-94425000D01*
X132780279Y-94425000D01*
X133192756Y-94342953D01*
X133581302Y-94182012D01*
X133930983Y-93948363D01*
X134228363Y-93650983D01*
X134462012Y-93301302D01*
X134622953Y-92912756D01*
X134705000Y-92500279D01*
X134705000Y-92079721D01*
X134676265Y-91935260D01*
X155808964Y-91935260D01*
X155929622Y-92173000D01*
X158273000Y-92173000D01*
X158273000Y-90765000D01*
X158527000Y-90765000D01*
X158527000Y-92173000D01*
X160870378Y-92173000D01*
X160991036Y-91935260D01*
X160966755Y-91829913D01*
X160846862Y-91552796D01*
X160675210Y-91304394D01*
X160458396Y-91094252D01*
X160204751Y-90930446D01*
X159924023Y-90819271D01*
X159627000Y-90765000D01*
X158527000Y-90765000D01*
X158273000Y-90765000D01*
X157173000Y-90765000D01*
X156875977Y-90819271D01*
X156595249Y-90930446D01*
X156341604Y-91094252D01*
X156124790Y-91304394D01*
X155953138Y-91552796D01*
X155833245Y-91829913D01*
X155808964Y-91935260D01*
X134676265Y-91935260D01*
X134622953Y-91667244D01*
X134462012Y-91278698D01*
X134228363Y-90929017D01*
X133959346Y-90660000D01*
X159970608Y-90660000D01*
X160768083Y-90731173D01*
X161511891Y-90934656D01*
X162207905Y-91266638D01*
X162834130Y-91716626D01*
X163370777Y-92270403D01*
X163800871Y-92910451D01*
X164110829Y-93616553D01*
X164292065Y-94371457D01*
X164340001Y-95024220D01*
X164340001Y-110362094D01*
X164103411Y-110204010D01*
X163833158Y-110092068D01*
X163546260Y-110035000D01*
X163253740Y-110035000D01*
X162966842Y-110092068D01*
X162696589Y-110204010D01*
X162453368Y-110366525D01*
X162246525Y-110573368D01*
X162130000Y-110747760D01*
X162013475Y-110573368D01*
X161806632Y-110366525D01*
X161563411Y-110204010D01*
X161293158Y-110092068D01*
X161006260Y-110035000D01*
X160713740Y-110035000D01*
X160426842Y-110092068D01*
X160156589Y-110204010D01*
X159913368Y-110366525D01*
X159706525Y-110573368D01*
X159544010Y-110816589D01*
X159432068Y-111086842D01*
X159375000Y-111373740D01*
X159375000Y-111666260D01*
X159432068Y-111953158D01*
X159544010Y-112223411D01*
X159706525Y-112466632D01*
X159913368Y-112673475D01*
X160087760Y-112790000D01*
X159913368Y-112906525D01*
X159706525Y-113113368D01*
X159544010Y-113356589D01*
X159432068Y-113626842D01*
X159375000Y-113913740D01*
X159375000Y-114206260D01*
X159432068Y-114493158D01*
X159544010Y-114763411D01*
X159706525Y-115006632D01*
X159913368Y-115213475D01*
X160095534Y-115335195D01*
X159978645Y-115404822D01*
X159762412Y-115599731D01*
X159588359Y-115833080D01*
X159463175Y-116095901D01*
X159418524Y-116243110D01*
X159539845Y-116473000D01*
X160733000Y-116473000D01*
X160733000Y-116453000D01*
X160987000Y-116453000D01*
X160987000Y-116473000D01*
X161007000Y-116473000D01*
X161007000Y-116727000D01*
X160987000Y-116727000D01*
X160987000Y-116747000D01*
X160733000Y-116747000D01*
X160733000Y-116727000D01*
X159539845Y-116727000D01*
X159418524Y-116956890D01*
X159463175Y-117104099D01*
X159588359Y-117366920D01*
X159762412Y-117600269D01*
X159978645Y-117795178D01*
X160095534Y-117864805D01*
X159913368Y-117986525D01*
X159706525Y-118193368D01*
X159544010Y-118436589D01*
X159432068Y-118706842D01*
X159375000Y-118993740D01*
X159375000Y-119286260D01*
X159432068Y-119573158D01*
X159544010Y-119843411D01*
X159706525Y-120086632D01*
X159838380Y-120218487D01*
X159765820Y-120240498D01*
X159655506Y-120299463D01*
X159558815Y-120378815D01*
X159479463Y-120475506D01*
X159420498Y-120585820D01*
X159384188Y-120705518D01*
X159371928Y-120830000D01*
X159371928Y-122530000D01*
X159384188Y-122654482D01*
X159420498Y-122774180D01*
X159479463Y-122884494D01*
X159558815Y-122981185D01*
X159655506Y-123060537D01*
X159765820Y-123119502D01*
X159885518Y-123155812D01*
X160010000Y-123168072D01*
X161710000Y-123168072D01*
X161834482Y-123155812D01*
X161954180Y-123119502D01*
X162064494Y-123060537D01*
X162161185Y-122981185D01*
X162240537Y-122884494D01*
X162299502Y-122774180D01*
X162321513Y-122701620D01*
X162453368Y-122833475D01*
X162696589Y-122995990D01*
X162966842Y-123107932D01*
X163253740Y-123165000D01*
X163546260Y-123165000D01*
X163833158Y-123107932D01*
X164103411Y-122995990D01*
X164340000Y-122837906D01*
X164340000Y-126342955D01*
X164209774Y-126212729D01*
X164040256Y-126099461D01*
X163851898Y-126021440D01*
X163651939Y-125981666D01*
X163448061Y-125981666D01*
X163248102Y-126021440D01*
X163059744Y-126099461D01*
X162890226Y-126212729D01*
X162746063Y-126356892D01*
X162632795Y-126526410D01*
X162554774Y-126714768D01*
X162515000Y-126914727D01*
X162515000Y-127118605D01*
X162554774Y-127318564D01*
X162632795Y-127506922D01*
X162746063Y-127676440D01*
X162890226Y-127820603D01*
X163059744Y-127933871D01*
X163248102Y-128011892D01*
X163448061Y-128051666D01*
X163651939Y-128051666D01*
X163851898Y-128011892D01*
X164040256Y-127933871D01*
X164209774Y-127820603D01*
X164340000Y-127690377D01*
X164340000Y-134970608D01*
X164268827Y-135768083D01*
X164065344Y-136511890D01*
X163733363Y-137207904D01*
X163283374Y-137834130D01*
X162729597Y-138370777D01*
X162089549Y-138800871D01*
X161383447Y-139110829D01*
X160628543Y-139292065D01*
X159975793Y-139340000D01*
X141459346Y-139340000D01*
X141728363Y-139070983D01*
X141962012Y-138721302D01*
X142122953Y-138332756D01*
X142205000Y-137920279D01*
X142205000Y-137499721D01*
X142122953Y-137087244D01*
X142016034Y-136829117D01*
X143065000Y-136829117D01*
X143065000Y-137170883D01*
X143131675Y-137506081D01*
X143262463Y-137821831D01*
X143452337Y-138105998D01*
X143694002Y-138347663D01*
X143978169Y-138537537D01*
X144293919Y-138668325D01*
X144629117Y-138735000D01*
X144970883Y-138735000D01*
X145306081Y-138668325D01*
X145621831Y-138537537D01*
X145905998Y-138347663D01*
X146147663Y-138105998D01*
X146337537Y-137821831D01*
X146468325Y-137506081D01*
X146535000Y-137170883D01*
X146535000Y-136829117D01*
X146468325Y-136493919D01*
X146337537Y-136178169D01*
X146147663Y-135894002D01*
X145905998Y-135652337D01*
X145621831Y-135462463D01*
X145306081Y-135331675D01*
X144970883Y-135265000D01*
X144629117Y-135265000D01*
X144293919Y-135331675D01*
X143978169Y-135462463D01*
X143694002Y-135652337D01*
X143452337Y-135894002D01*
X143262463Y-136178169D01*
X143131675Y-136493919D01*
X143065000Y-136829117D01*
X142016034Y-136829117D01*
X141962012Y-136698698D01*
X141728363Y-136349017D01*
X141430983Y-136051637D01*
X141081302Y-135817988D01*
X140692756Y-135657047D01*
X140280279Y-135575000D01*
X139859721Y-135575000D01*
X139447244Y-135657047D01*
X139058698Y-135817988D01*
X138709017Y-136051637D01*
X138411637Y-136349017D01*
X138177988Y-136698698D01*
X138017047Y-137087244D01*
X137935000Y-137499721D01*
X137935000Y-137920279D01*
X138017047Y-138332756D01*
X138177988Y-138721302D01*
X138411637Y-139070983D01*
X138680654Y-139340000D01*
X128319346Y-139340000D01*
X128588363Y-139070983D01*
X128822012Y-138721302D01*
X128982953Y-138332756D01*
X129065000Y-137920279D01*
X129065000Y-137499721D01*
X128982953Y-137087244D01*
X128822012Y-136698698D01*
X128588363Y-136349017D01*
X128290983Y-136051637D01*
X127941302Y-135817988D01*
X127552756Y-135657047D01*
X127140279Y-135575000D01*
X126719721Y-135575000D01*
X126307244Y-135657047D01*
X125918698Y-135817988D01*
X125569017Y-136051637D01*
X125271637Y-136349017D01*
X125037988Y-136698698D01*
X124877047Y-137087244D01*
X124795000Y-137499721D01*
X124795000Y-137920279D01*
X124877047Y-138332756D01*
X125037988Y-138721302D01*
X125271637Y-139070983D01*
X125540654Y-139340000D01*
X120029392Y-139340000D01*
X119231917Y-139268827D01*
X118488110Y-139065344D01*
X117792096Y-138733363D01*
X117165870Y-138283374D01*
X116629223Y-137729597D01*
X116199129Y-137089549D01*
X116086883Y-136833845D01*
X116278698Y-136962012D01*
X116667244Y-137122953D01*
X117079721Y-137205000D01*
X117500279Y-137205000D01*
X117912756Y-137122953D01*
X118301302Y-136962012D01*
X118650983Y-136728363D01*
X118948363Y-136430983D01*
X119182012Y-136081302D01*
X119342953Y-135692756D01*
X119425000Y-135280279D01*
X119425000Y-134859721D01*
X119342953Y-134447244D01*
X119240542Y-134200000D01*
X128561928Y-134200000D01*
X128561928Y-135800000D01*
X128574188Y-135924482D01*
X128610498Y-136044180D01*
X128669463Y-136154494D01*
X128748815Y-136251185D01*
X128845506Y-136330537D01*
X128955820Y-136389502D01*
X129075518Y-136425812D01*
X129200000Y-136438072D01*
X130800000Y-136438072D01*
X130924482Y-136425812D01*
X131044180Y-136389502D01*
X131154494Y-136330537D01*
X131251185Y-136251185D01*
X131330537Y-136154494D01*
X131389502Y-136044180D01*
X131418661Y-135948057D01*
X131585241Y-136114637D01*
X131820273Y-136271680D01*
X132081426Y-136379853D01*
X132358665Y-136435000D01*
X132641335Y-136435000D01*
X132918574Y-136379853D01*
X133179727Y-136271680D01*
X133414759Y-136114637D01*
X133500000Y-136029396D01*
X133585241Y-136114637D01*
X133820273Y-136271680D01*
X134081426Y-136379853D01*
X134358665Y-136435000D01*
X134641335Y-136435000D01*
X134918574Y-136379853D01*
X135179727Y-136271680D01*
X135414759Y-136114637D01*
X135536694Y-135992702D01*
X136186903Y-135992702D01*
X136258486Y-136236671D01*
X136513996Y-136357571D01*
X136788184Y-136426300D01*
X137070512Y-136440217D01*
X137350130Y-136398787D01*
X137616292Y-136303603D01*
X137741514Y-136236671D01*
X137813097Y-135992702D01*
X137000000Y-135179605D01*
X136186903Y-135992702D01*
X135536694Y-135992702D01*
X135614637Y-135914759D01*
X135748692Y-135714131D01*
X135763329Y-135741514D01*
X136007298Y-135813097D01*
X136820395Y-135000000D01*
X137179605Y-135000000D01*
X137992702Y-135813097D01*
X138236671Y-135741514D01*
X138357571Y-135486004D01*
X138426300Y-135211816D01*
X138440217Y-134929488D01*
X138398787Y-134649870D01*
X138380260Y-134598061D01*
X147065000Y-134598061D01*
X147065000Y-134801939D01*
X147104774Y-135001898D01*
X147182795Y-135190256D01*
X147296063Y-135359774D01*
X147440226Y-135503937D01*
X147609744Y-135617205D01*
X147798102Y-135695226D01*
X147887076Y-135712924D01*
X147904774Y-135801898D01*
X147982795Y-135990256D01*
X148096063Y-136159774D01*
X148240226Y-136303937D01*
X148409744Y-136417205D01*
X148598102Y-136495226D01*
X148687076Y-136512924D01*
X148704774Y-136601898D01*
X148782795Y-136790256D01*
X148896063Y-136959774D01*
X149040226Y-137103937D01*
X149209744Y-137217205D01*
X149398102Y-137295226D01*
X149598061Y-137335000D01*
X149801939Y-137335000D01*
X150001898Y-137295226D01*
X150190256Y-137217205D01*
X150359774Y-137103937D01*
X150503937Y-136959774D01*
X150617205Y-136790256D01*
X150695226Y-136601898D01*
X150735000Y-136401939D01*
X150735000Y-136198061D01*
X150695226Y-135998102D01*
X150617205Y-135809744D01*
X150503937Y-135640226D01*
X150359774Y-135496063D01*
X150190256Y-135382795D01*
X150001898Y-135304774D01*
X149912924Y-135287076D01*
X149895226Y-135198102D01*
X149853788Y-135098061D01*
X155465000Y-135098061D01*
X155465000Y-135301939D01*
X155504774Y-135501898D01*
X155582795Y-135690256D01*
X155696063Y-135859774D01*
X155840226Y-136003937D01*
X156009744Y-136117205D01*
X156198102Y-136195226D01*
X156398061Y-136235000D01*
X156601939Y-136235000D01*
X156801898Y-136195226D01*
X156990256Y-136117205D01*
X157000000Y-136110694D01*
X157009744Y-136117205D01*
X157198102Y-136195226D01*
X157398061Y-136235000D01*
X157601939Y-136235000D01*
X157801898Y-136195226D01*
X157990256Y-136117205D01*
X158159774Y-136003937D01*
X158303937Y-135859774D01*
X158417205Y-135690256D01*
X158495226Y-135501898D01*
X158535000Y-135301939D01*
X158535000Y-135098061D01*
X158495226Y-134898102D01*
X158417205Y-134709744D01*
X158303937Y-134540226D01*
X158159774Y-134396063D01*
X157990256Y-134282795D01*
X157801898Y-134204774D01*
X157601939Y-134165000D01*
X157398061Y-134165000D01*
X157198102Y-134204774D01*
X157009744Y-134282795D01*
X157000000Y-134289306D01*
X156990256Y-134282795D01*
X156801898Y-134204774D01*
X156601939Y-134165000D01*
X156398061Y-134165000D01*
X156198102Y-134204774D01*
X156009744Y-134282795D01*
X155840226Y-134396063D01*
X155696063Y-134540226D01*
X155582795Y-134709744D01*
X155504774Y-134898102D01*
X155465000Y-135098061D01*
X149853788Y-135098061D01*
X149817205Y-135009744D01*
X149703937Y-134840226D01*
X149559774Y-134696063D01*
X149390256Y-134582795D01*
X149201898Y-134504774D01*
X149112924Y-134487076D01*
X149095226Y-134398102D01*
X149017205Y-134209744D01*
X148903937Y-134040226D01*
X148759774Y-133896063D01*
X148590256Y-133782795D01*
X148401898Y-133704774D01*
X148201939Y-133665000D01*
X147998061Y-133665000D01*
X147798102Y-133704774D01*
X147609744Y-133782795D01*
X147440226Y-133896063D01*
X147296063Y-134040226D01*
X147182795Y-134209744D01*
X147104774Y-134398102D01*
X147065000Y-134598061D01*
X138380260Y-134598061D01*
X138303603Y-134383708D01*
X138236671Y-134258486D01*
X137992702Y-134186903D01*
X137179605Y-135000000D01*
X136820395Y-135000000D01*
X136007298Y-134186903D01*
X135763329Y-134258486D01*
X135749676Y-134287341D01*
X135614637Y-134085241D01*
X135536694Y-134007298D01*
X136186903Y-134007298D01*
X137000000Y-134820395D01*
X137813097Y-134007298D01*
X137741514Y-133763329D01*
X137486004Y-133642429D01*
X137211816Y-133573700D01*
X136929488Y-133559783D01*
X136649870Y-133601213D01*
X136383708Y-133696397D01*
X136258486Y-133763329D01*
X136186903Y-134007298D01*
X135536694Y-134007298D01*
X135414759Y-133885363D01*
X135179727Y-133728320D01*
X134918574Y-133620147D01*
X134641335Y-133565000D01*
X134358665Y-133565000D01*
X134081426Y-133620147D01*
X133820273Y-133728320D01*
X133585241Y-133885363D01*
X133500000Y-133970604D01*
X133414759Y-133885363D01*
X133179727Y-133728320D01*
X132918574Y-133620147D01*
X132641335Y-133565000D01*
X132358665Y-133565000D01*
X132081426Y-133620147D01*
X131820273Y-133728320D01*
X131585241Y-133885363D01*
X131418661Y-134051943D01*
X131389502Y-133955820D01*
X131330537Y-133845506D01*
X131251185Y-133748815D01*
X131154494Y-133669463D01*
X131044180Y-133610498D01*
X130924482Y-133574188D01*
X130800000Y-133561928D01*
X129200000Y-133561928D01*
X129075518Y-133574188D01*
X128955820Y-133610498D01*
X128845506Y-133669463D01*
X128748815Y-133748815D01*
X128669463Y-133845506D01*
X128610498Y-133955820D01*
X128574188Y-134075518D01*
X128561928Y-134200000D01*
X119240542Y-134200000D01*
X119182012Y-134058698D01*
X118948363Y-133709017D01*
X118650983Y-133411637D01*
X118301302Y-133177988D01*
X117912756Y-133017047D01*
X117790366Y-132992702D01*
X119186903Y-132992702D01*
X119258486Y-133236671D01*
X119513996Y-133357571D01*
X119788184Y-133426300D01*
X120070512Y-133440217D01*
X120350130Y-133398787D01*
X120616292Y-133303603D01*
X120741514Y-133236671D01*
X120813097Y-132992702D01*
X120000000Y-132179605D01*
X119186903Y-132992702D01*
X117790366Y-132992702D01*
X117500279Y-132935000D01*
X117079721Y-132935000D01*
X116667244Y-133017047D01*
X116278698Y-133177988D01*
X115929017Y-133411637D01*
X115660000Y-133680654D01*
X115660000Y-132070512D01*
X118559783Y-132070512D01*
X118601213Y-132350130D01*
X118696397Y-132616292D01*
X118763329Y-132741514D01*
X119007298Y-132813097D01*
X119820395Y-132000000D01*
X120179605Y-132000000D01*
X120992702Y-132813097D01*
X121236671Y-132741514D01*
X121357571Y-132486004D01*
X121426300Y-132211816D01*
X121440217Y-131929488D01*
X121398787Y-131649870D01*
X121303603Y-131383708D01*
X121236671Y-131258486D01*
X120992702Y-131186903D01*
X120179605Y-132000000D01*
X119820395Y-132000000D01*
X119007298Y-131186903D01*
X118763329Y-131258486D01*
X118642429Y-131513996D01*
X118573700Y-131788184D01*
X118559783Y-132070512D01*
X115660000Y-132070512D01*
X115660000Y-124200000D01*
X118561928Y-124200000D01*
X118561928Y-125800000D01*
X118574188Y-125924482D01*
X118610498Y-126044180D01*
X118669463Y-126154494D01*
X118748815Y-126251185D01*
X118845506Y-126330537D01*
X118955820Y-126389502D01*
X119051943Y-126418661D01*
X118885363Y-126585241D01*
X118728320Y-126820273D01*
X118620147Y-127081426D01*
X118565000Y-127358665D01*
X118565000Y-127641335D01*
X118620147Y-127918574D01*
X118728320Y-128179727D01*
X118885363Y-128414759D01*
X118970604Y-128500000D01*
X118885363Y-128585241D01*
X118728320Y-128820273D01*
X118620147Y-129081426D01*
X118565000Y-129358665D01*
X118565000Y-129641335D01*
X118620147Y-129918574D01*
X118728320Y-130179727D01*
X118885363Y-130414759D01*
X119085241Y-130614637D01*
X119285869Y-130748692D01*
X119258486Y-130763329D01*
X119186903Y-131007298D01*
X120000000Y-131820395D01*
X120813097Y-131007298D01*
X120741514Y-130763329D01*
X120712659Y-130749676D01*
X120914759Y-130614637D01*
X121114637Y-130414759D01*
X121271680Y-130179727D01*
X121379853Y-129918574D01*
X121423716Y-129698061D01*
X147965000Y-129698061D01*
X147965000Y-129901939D01*
X148004774Y-130101898D01*
X148082795Y-130290256D01*
X148196063Y-130459774D01*
X148340226Y-130603937D01*
X148509744Y-130717205D01*
X148524357Y-130723258D01*
X148490226Y-130746063D01*
X148346063Y-130890226D01*
X148232795Y-131059744D01*
X148154774Y-131248102D01*
X148115000Y-131448061D01*
X148115000Y-131651939D01*
X148154774Y-131851898D01*
X148232795Y-132040256D01*
X148346063Y-132209774D01*
X148490226Y-132353937D01*
X148659744Y-132467205D01*
X148665000Y-132469382D01*
X148665000Y-132601939D01*
X148704774Y-132801898D01*
X148782795Y-132990256D01*
X148896063Y-133159774D01*
X149040226Y-133303937D01*
X149209744Y-133417205D01*
X149398102Y-133495226D01*
X149598061Y-133535000D01*
X149801939Y-133535000D01*
X149833513Y-133528720D01*
X149804774Y-133598102D01*
X149765000Y-133798061D01*
X149765000Y-134001939D01*
X149804774Y-134201898D01*
X149882795Y-134390256D01*
X149996063Y-134559774D01*
X150140226Y-134703937D01*
X150309744Y-134817205D01*
X150498102Y-134895226D01*
X150698061Y-134935000D01*
X150901939Y-134935000D01*
X151101898Y-134895226D01*
X151290256Y-134817205D01*
X151459774Y-134703937D01*
X151603937Y-134559774D01*
X151717205Y-134390256D01*
X151795226Y-134201898D01*
X151835000Y-134001939D01*
X151835000Y-133798061D01*
X151795226Y-133598102D01*
X151717205Y-133409744D01*
X151603937Y-133240226D01*
X151459774Y-133096063D01*
X151290256Y-132982795D01*
X151101898Y-132904774D01*
X150901939Y-132865000D01*
X150698061Y-132865000D01*
X150666487Y-132871280D01*
X150695226Y-132801898D01*
X150735000Y-132601939D01*
X150735000Y-132510804D01*
X150765763Y-132498061D01*
X160815000Y-132498061D01*
X160815000Y-132701939D01*
X160854774Y-132901898D01*
X160932795Y-133090256D01*
X161022828Y-133225000D01*
X160932795Y-133359744D01*
X160854774Y-133548102D01*
X160815000Y-133748061D01*
X160815000Y-133951939D01*
X160854774Y-134151898D01*
X160932795Y-134340256D01*
X161046063Y-134509774D01*
X161061289Y-134525000D01*
X161046063Y-134540226D01*
X160932795Y-134709744D01*
X160854774Y-134898102D01*
X160815000Y-135098061D01*
X160815000Y-135301939D01*
X160854774Y-135501898D01*
X160932795Y-135690256D01*
X161022828Y-135825000D01*
X160932795Y-135959744D01*
X160854774Y-136148102D01*
X160815000Y-136348061D01*
X160815000Y-136551939D01*
X160854774Y-136751898D01*
X160932795Y-136940256D01*
X161046063Y-137109774D01*
X161190226Y-137253937D01*
X161359744Y-137367205D01*
X161548102Y-137445226D01*
X161748061Y-137485000D01*
X161951939Y-137485000D01*
X162151898Y-137445226D01*
X162340256Y-137367205D01*
X162509774Y-137253937D01*
X162653937Y-137109774D01*
X162767205Y-136940256D01*
X162845226Y-136751898D01*
X162885000Y-136551939D01*
X162885000Y-136348061D01*
X162845226Y-136148102D01*
X162767205Y-135959744D01*
X162677172Y-135825000D01*
X162767205Y-135690256D01*
X162845226Y-135501898D01*
X162885000Y-135301939D01*
X162885000Y-135098061D01*
X162845226Y-134898102D01*
X162767205Y-134709744D01*
X162653937Y-134540226D01*
X162638711Y-134525000D01*
X162653937Y-134509774D01*
X162767205Y-134340256D01*
X162845226Y-134151898D01*
X162885000Y-133951939D01*
X162885000Y-133748061D01*
X162845226Y-133548102D01*
X162767205Y-133359744D01*
X162677172Y-133225000D01*
X162767205Y-133090256D01*
X162845226Y-132901898D01*
X162885000Y-132701939D01*
X162885000Y-132498061D01*
X162845226Y-132298102D01*
X162767205Y-132109744D01*
X162653937Y-131940226D01*
X162509774Y-131796063D01*
X162340256Y-131682795D01*
X162151898Y-131604774D01*
X161951939Y-131565000D01*
X161748061Y-131565000D01*
X161548102Y-131604774D01*
X161359744Y-131682795D01*
X161190226Y-131796063D01*
X161046063Y-131940226D01*
X160932795Y-132109744D01*
X160854774Y-132298102D01*
X160815000Y-132498061D01*
X150765763Y-132498061D01*
X150840256Y-132467205D01*
X151009774Y-132353937D01*
X151153937Y-132209774D01*
X151267205Y-132040256D01*
X151345226Y-131851898D01*
X151385000Y-131651939D01*
X151385000Y-131448061D01*
X151345226Y-131248102D01*
X151267205Y-131059744D01*
X151153937Y-130890226D01*
X151009774Y-130746063D01*
X150878420Y-130658296D01*
X150959774Y-130603937D01*
X151103937Y-130459774D01*
X151217205Y-130290256D01*
X151295226Y-130101898D01*
X151335000Y-129901939D01*
X151335000Y-129698061D01*
X151295226Y-129498102D01*
X151274499Y-129448061D01*
X162115000Y-129448061D01*
X162115000Y-129651939D01*
X162154774Y-129851898D01*
X162232795Y-130040256D01*
X162346063Y-130209774D01*
X162490226Y-130353937D01*
X162659744Y-130467205D01*
X162848102Y-130545226D01*
X163048061Y-130585000D01*
X163251939Y-130585000D01*
X163451898Y-130545226D01*
X163640256Y-130467205D01*
X163809774Y-130353937D01*
X163953937Y-130209774D01*
X164067205Y-130040256D01*
X164145226Y-129851898D01*
X164185000Y-129651939D01*
X164185000Y-129448061D01*
X164145226Y-129248102D01*
X164067205Y-129059744D01*
X163953937Y-128890226D01*
X163809774Y-128746063D01*
X163640256Y-128632795D01*
X163451898Y-128554774D01*
X163251939Y-128515000D01*
X163048061Y-128515000D01*
X162848102Y-128554774D01*
X162659744Y-128632795D01*
X162490226Y-128746063D01*
X162346063Y-128890226D01*
X162232795Y-129059744D01*
X162154774Y-129248102D01*
X162115000Y-129448061D01*
X151274499Y-129448061D01*
X151217205Y-129309744D01*
X151103937Y-129140226D01*
X150959774Y-128996063D01*
X150790256Y-128882795D01*
X150635000Y-128818485D01*
X150635000Y-128698061D01*
X150595226Y-128498102D01*
X150517205Y-128309744D01*
X150409173Y-128148061D01*
X155465000Y-128148061D01*
X155465000Y-128351939D01*
X155504774Y-128551898D01*
X155582795Y-128740256D01*
X155696063Y-128909774D01*
X155840226Y-129053937D01*
X156009744Y-129167205D01*
X156198102Y-129245226D01*
X156398061Y-129285000D01*
X156601939Y-129285000D01*
X156801898Y-129245226D01*
X156956092Y-129181356D01*
X157009744Y-129217205D01*
X157198102Y-129295226D01*
X157398061Y-129335000D01*
X157601939Y-129335000D01*
X157801898Y-129295226D01*
X157990256Y-129217205D01*
X158159774Y-129103937D01*
X158303937Y-128959774D01*
X158417205Y-128790256D01*
X158495226Y-128601898D01*
X158535000Y-128401939D01*
X158535000Y-128198061D01*
X158525055Y-128148061D01*
X160365000Y-128148061D01*
X160365000Y-128351939D01*
X160404774Y-128551898D01*
X160482795Y-128740256D01*
X160596063Y-128909774D01*
X160740226Y-129053937D01*
X160909744Y-129167205D01*
X161098102Y-129245226D01*
X161298061Y-129285000D01*
X161501939Y-129285000D01*
X161701898Y-129245226D01*
X161890256Y-129167205D01*
X162059774Y-129053937D01*
X162203937Y-128909774D01*
X162317205Y-128740256D01*
X162395226Y-128551898D01*
X162435000Y-128351939D01*
X162435000Y-128148061D01*
X162395226Y-127948102D01*
X162317205Y-127759744D01*
X162203937Y-127590226D01*
X162059774Y-127446063D01*
X161890256Y-127332795D01*
X161701898Y-127254774D01*
X161501939Y-127215000D01*
X161298061Y-127215000D01*
X161098102Y-127254774D01*
X160909744Y-127332795D01*
X160740226Y-127446063D01*
X160596063Y-127590226D01*
X160482795Y-127759744D01*
X160404774Y-127948102D01*
X160365000Y-128148061D01*
X158525055Y-128148061D01*
X158495226Y-127998102D01*
X158417205Y-127809744D01*
X158303937Y-127640226D01*
X158159774Y-127496063D01*
X157990256Y-127382795D01*
X157801898Y-127304774D01*
X157601939Y-127265000D01*
X157398061Y-127265000D01*
X157198102Y-127304774D01*
X157043908Y-127368644D01*
X156990256Y-127332795D01*
X156801898Y-127254774D01*
X156601939Y-127215000D01*
X156398061Y-127215000D01*
X156198102Y-127254774D01*
X156009744Y-127332795D01*
X155840226Y-127446063D01*
X155696063Y-127590226D01*
X155582795Y-127759744D01*
X155504774Y-127948102D01*
X155465000Y-128148061D01*
X150409173Y-128148061D01*
X150403937Y-128140226D01*
X150374042Y-128110331D01*
X150498061Y-128135000D01*
X150701939Y-128135000D01*
X150901898Y-128095226D01*
X151090256Y-128017205D01*
X151259774Y-127903937D01*
X151403937Y-127759774D01*
X151517205Y-127590256D01*
X151595226Y-127401898D01*
X151635000Y-127201939D01*
X151635000Y-126998061D01*
X151595226Y-126798102D01*
X151517205Y-126609744D01*
X151403937Y-126440226D01*
X151259774Y-126296063D01*
X151090256Y-126182795D01*
X150901898Y-126104774D01*
X150701939Y-126065000D01*
X150498061Y-126065000D01*
X150298102Y-126104774D01*
X150109744Y-126182795D01*
X149940226Y-126296063D01*
X149796063Y-126440226D01*
X149682795Y-126609744D01*
X149604774Y-126798102D01*
X149565000Y-126998061D01*
X149565000Y-127201939D01*
X149604774Y-127401898D01*
X149682795Y-127590256D01*
X149796063Y-127759774D01*
X149825958Y-127789669D01*
X149701939Y-127765000D01*
X149498061Y-127765000D01*
X149298102Y-127804774D01*
X149109744Y-127882795D01*
X148940226Y-127996063D01*
X148796063Y-128140226D01*
X148682795Y-128309744D01*
X148604774Y-128498102D01*
X148565000Y-128698061D01*
X148565000Y-128859907D01*
X148509744Y-128882795D01*
X148340226Y-128996063D01*
X148196063Y-129140226D01*
X148082795Y-129309744D01*
X148004774Y-129498102D01*
X147965000Y-129698061D01*
X121423716Y-129698061D01*
X121435000Y-129641335D01*
X121435000Y-129358665D01*
X121379853Y-129081426D01*
X121271680Y-128820273D01*
X121114637Y-128585241D01*
X121029396Y-128500000D01*
X121114637Y-128414759D01*
X121271680Y-128179727D01*
X121379853Y-127918574D01*
X121435000Y-127641335D01*
X121435000Y-127358665D01*
X121379853Y-127081426D01*
X121271680Y-126820273D01*
X121114637Y-126585241D01*
X120948057Y-126418661D01*
X121015965Y-126398061D01*
X146865000Y-126398061D01*
X146865000Y-126601939D01*
X146904774Y-126801898D01*
X146982795Y-126990256D01*
X147096063Y-127159774D01*
X147240226Y-127303937D01*
X147409744Y-127417205D01*
X147598102Y-127495226D01*
X147798061Y-127535000D01*
X148001939Y-127535000D01*
X148201898Y-127495226D01*
X148390256Y-127417205D01*
X148559774Y-127303937D01*
X148703937Y-127159774D01*
X148817205Y-126990256D01*
X148895226Y-126801898D01*
X148912924Y-126712924D01*
X149001898Y-126695226D01*
X149190256Y-126617205D01*
X149359774Y-126503937D01*
X149503937Y-126359774D01*
X149617205Y-126190256D01*
X149695226Y-126001898D01*
X149712924Y-125912924D01*
X149801898Y-125895226D01*
X149990256Y-125817205D01*
X150159774Y-125703937D01*
X150303937Y-125559774D01*
X150417205Y-125390256D01*
X150495226Y-125201898D01*
X150535000Y-125001939D01*
X150535000Y-124798061D01*
X150495226Y-124598102D01*
X150417205Y-124409744D01*
X150303937Y-124240226D01*
X150161772Y-124098061D01*
X158615000Y-124098061D01*
X158615000Y-124301939D01*
X158654774Y-124501898D01*
X158732795Y-124690256D01*
X158846063Y-124859774D01*
X158990226Y-125003937D01*
X159159744Y-125117205D01*
X159348102Y-125195226D01*
X159548061Y-125235000D01*
X159751939Y-125235000D01*
X159951898Y-125195226D01*
X160140256Y-125117205D01*
X160309774Y-125003937D01*
X160453937Y-124859774D01*
X160567205Y-124690256D01*
X160645226Y-124501898D01*
X160685000Y-124301939D01*
X160685000Y-124098061D01*
X160645226Y-123898102D01*
X160567205Y-123709744D01*
X160453937Y-123540226D01*
X160309774Y-123396063D01*
X160140256Y-123282795D01*
X159951898Y-123204774D01*
X159751939Y-123165000D01*
X159548061Y-123165000D01*
X159348102Y-123204774D01*
X159159744Y-123282795D01*
X158990226Y-123396063D01*
X158846063Y-123540226D01*
X158732795Y-123709744D01*
X158654774Y-123898102D01*
X158615000Y-124098061D01*
X150161772Y-124098061D01*
X150159774Y-124096063D01*
X149990256Y-123982795D01*
X149801898Y-123904774D01*
X149601939Y-123865000D01*
X149398061Y-123865000D01*
X149198102Y-123904774D01*
X149009744Y-123982795D01*
X148840226Y-124096063D01*
X148696063Y-124240226D01*
X148582795Y-124409744D01*
X148504774Y-124598102D01*
X148487076Y-124687076D01*
X148398102Y-124704774D01*
X148209744Y-124782795D01*
X148040226Y-124896063D01*
X147896063Y-125040226D01*
X147782795Y-125209744D01*
X147704774Y-125398102D01*
X147687076Y-125487076D01*
X147598102Y-125504774D01*
X147409744Y-125582795D01*
X147240226Y-125696063D01*
X147096063Y-125840226D01*
X146982795Y-126009744D01*
X146904774Y-126198102D01*
X146865000Y-126398061D01*
X121015965Y-126398061D01*
X121044180Y-126389502D01*
X121154494Y-126330537D01*
X121251185Y-126251185D01*
X121330537Y-126154494D01*
X121389502Y-126044180D01*
X121425812Y-125924482D01*
X121438072Y-125800000D01*
X121438072Y-124200000D01*
X121425812Y-124075518D01*
X121389502Y-123955820D01*
X121330537Y-123845506D01*
X121251185Y-123748815D01*
X121154494Y-123669463D01*
X121044180Y-123610498D01*
X120924482Y-123574188D01*
X120800000Y-123561928D01*
X119200000Y-123561928D01*
X119075518Y-123574188D01*
X118955820Y-123610498D01*
X118845506Y-123669463D01*
X118748815Y-123748815D01*
X118669463Y-123845506D01*
X118610498Y-123955820D01*
X118574188Y-124075518D01*
X118561928Y-124200000D01*
X115660000Y-124200000D01*
X115660000Y-123319346D01*
X115929017Y-123588363D01*
X116278698Y-123822012D01*
X116667244Y-123982953D01*
X117079721Y-124065000D01*
X117500279Y-124065000D01*
X117912756Y-123982953D01*
X118301302Y-123822012D01*
X118650983Y-123588363D01*
X118948363Y-123290983D01*
X119182012Y-122941302D01*
X119342953Y-122552756D01*
X119363778Y-122448061D01*
X128265000Y-122448061D01*
X128265000Y-122651939D01*
X128304774Y-122851898D01*
X128382795Y-123040256D01*
X128496063Y-123209774D01*
X128640226Y-123353937D01*
X128809744Y-123467205D01*
X128998102Y-123545226D01*
X129198061Y-123585000D01*
X129401939Y-123585000D01*
X129601898Y-123545226D01*
X129694204Y-123506991D01*
X129696063Y-123509774D01*
X129840226Y-123653937D01*
X130009744Y-123767205D01*
X130198102Y-123845226D01*
X130391196Y-123883634D01*
X130404774Y-123951898D01*
X130482795Y-124140256D01*
X130596063Y-124309774D01*
X130740226Y-124453937D01*
X130909744Y-124567205D01*
X131098102Y-124645226D01*
X131298061Y-124685000D01*
X131501939Y-124685000D01*
X131701898Y-124645226D01*
X131890256Y-124567205D01*
X132059774Y-124453937D01*
X132203937Y-124309774D01*
X132317205Y-124140256D01*
X132395226Y-123951898D01*
X132435000Y-123751939D01*
X132435000Y-123548061D01*
X132515000Y-123548061D01*
X132515000Y-123751939D01*
X132554774Y-123951898D01*
X132632795Y-124140256D01*
X132746063Y-124309774D01*
X132890226Y-124453937D01*
X133059744Y-124567205D01*
X133248102Y-124645226D01*
X133448061Y-124685000D01*
X133651939Y-124685000D01*
X133851898Y-124645226D01*
X134040256Y-124567205D01*
X134209774Y-124453937D01*
X134353937Y-124309774D01*
X134391704Y-124253251D01*
X134396063Y-124259774D01*
X134540226Y-124403937D01*
X134709744Y-124517205D01*
X134895606Y-124594192D01*
X134865000Y-124748061D01*
X134865000Y-124951939D01*
X134904774Y-125151898D01*
X134982795Y-125340256D01*
X135096063Y-125509774D01*
X135240226Y-125653937D01*
X135409744Y-125767205D01*
X135598102Y-125845226D01*
X135798061Y-125885000D01*
X136001939Y-125885000D01*
X136201898Y-125845226D01*
X136390256Y-125767205D01*
X136559774Y-125653937D01*
X136703937Y-125509774D01*
X136817205Y-125340256D01*
X136895226Y-125151898D01*
X136935000Y-124951939D01*
X136935000Y-124898061D01*
X144565000Y-124898061D01*
X144565000Y-125101939D01*
X144604774Y-125301898D01*
X144682795Y-125490256D01*
X144796063Y-125659774D01*
X144940226Y-125803937D01*
X145109744Y-125917205D01*
X145298102Y-125995226D01*
X145498061Y-126035000D01*
X145701939Y-126035000D01*
X145901898Y-125995226D01*
X146090256Y-125917205D01*
X146259774Y-125803937D01*
X146403937Y-125659774D01*
X146517205Y-125490256D01*
X146595226Y-125301898D01*
X146635000Y-125101939D01*
X146635000Y-124898061D01*
X146595226Y-124698102D01*
X146517205Y-124509744D01*
X146403937Y-124340226D01*
X146259774Y-124196063D01*
X146090256Y-124082795D01*
X145901898Y-124004774D01*
X145701939Y-123965000D01*
X145498061Y-123965000D01*
X145298102Y-124004774D01*
X145109744Y-124082795D01*
X144940226Y-124196063D01*
X144796063Y-124340226D01*
X144682795Y-124509744D01*
X144604774Y-124698102D01*
X144565000Y-124898061D01*
X136935000Y-124898061D01*
X136935000Y-124748061D01*
X136895226Y-124548102D01*
X136817205Y-124359744D01*
X136703937Y-124190226D01*
X136692231Y-124178520D01*
X136840256Y-124117205D01*
X137009774Y-124003937D01*
X137153937Y-123859774D01*
X137267205Y-123690256D01*
X137345226Y-123501898D01*
X137385000Y-123301939D01*
X137385000Y-123098061D01*
X137346782Y-122905924D01*
X137440256Y-122867205D01*
X137609774Y-122753937D01*
X137753937Y-122609774D01*
X137867205Y-122440256D01*
X137945226Y-122251898D01*
X137985000Y-122051939D01*
X137985000Y-121848061D01*
X137945226Y-121648102D01*
X137919625Y-121586296D01*
X138017205Y-121440256D01*
X138095226Y-121251898D01*
X138135000Y-121051939D01*
X138135000Y-120848061D01*
X138095226Y-120648102D01*
X138017205Y-120459744D01*
X137903937Y-120290226D01*
X137836551Y-120222840D01*
X137845226Y-120201898D01*
X137885000Y-120001939D01*
X137885000Y-119798061D01*
X137865109Y-119698061D01*
X138115000Y-119698061D01*
X138115000Y-119901939D01*
X138154774Y-120101898D01*
X138232795Y-120290256D01*
X138346063Y-120459774D01*
X138490226Y-120603937D01*
X138659744Y-120717205D01*
X138848102Y-120795226D01*
X139048061Y-120835000D01*
X139251939Y-120835000D01*
X139451898Y-120795226D01*
X139640256Y-120717205D01*
X139809774Y-120603937D01*
X139953937Y-120459774D01*
X140067205Y-120290256D01*
X140145226Y-120101898D01*
X140185000Y-119901939D01*
X140185000Y-119698061D01*
X140145226Y-119498102D01*
X140067205Y-119309744D01*
X139953937Y-119140226D01*
X139809774Y-118996063D01*
X139640256Y-118882795D01*
X139451898Y-118804774D01*
X139251939Y-118765000D01*
X139048061Y-118765000D01*
X138848102Y-118804774D01*
X138659744Y-118882795D01*
X138490226Y-118996063D01*
X138346063Y-119140226D01*
X138232795Y-119309744D01*
X138154774Y-119498102D01*
X138115000Y-119698061D01*
X137865109Y-119698061D01*
X137845226Y-119598102D01*
X137767205Y-119409744D01*
X137653937Y-119240226D01*
X137509774Y-119096063D01*
X137340256Y-118982795D01*
X137151898Y-118904774D01*
X136951939Y-118865000D01*
X136748061Y-118865000D01*
X136548102Y-118904774D01*
X136359744Y-118982795D01*
X136190226Y-119096063D01*
X136046063Y-119240226D01*
X135932795Y-119409744D01*
X135854774Y-119598102D01*
X135815000Y-119798061D01*
X135815000Y-120001939D01*
X135854774Y-120201898D01*
X135932795Y-120390256D01*
X136046063Y-120559774D01*
X136113449Y-120627160D01*
X136104774Y-120648102D01*
X136065000Y-120848061D01*
X136065000Y-121051939D01*
X136104774Y-121251898D01*
X136130375Y-121313704D01*
X136032795Y-121459744D01*
X135954774Y-121648102D01*
X135915000Y-121848061D01*
X135915000Y-122051939D01*
X135953218Y-122244076D01*
X135859744Y-122282795D01*
X135690226Y-122396063D01*
X135546063Y-122540226D01*
X135502709Y-122605110D01*
X135501898Y-122604774D01*
X135301939Y-122565000D01*
X135098061Y-122565000D01*
X134898102Y-122604774D01*
X134709744Y-122682795D01*
X134540226Y-122796063D01*
X134396063Y-122940226D01*
X134358296Y-122996749D01*
X134353937Y-122990226D01*
X134209774Y-122846063D01*
X134040256Y-122732795D01*
X133851898Y-122654774D01*
X133651939Y-122615000D01*
X133448061Y-122615000D01*
X133248102Y-122654774D01*
X133059744Y-122732795D01*
X132890226Y-122846063D01*
X132746063Y-122990226D01*
X132632795Y-123159744D01*
X132554774Y-123348102D01*
X132515000Y-123548061D01*
X132435000Y-123548061D01*
X132395226Y-123348102D01*
X132317205Y-123159744D01*
X132203937Y-122990226D01*
X132059774Y-122846063D01*
X131890256Y-122732795D01*
X131701898Y-122654774D01*
X131508804Y-122616366D01*
X131495226Y-122548102D01*
X131417205Y-122359744D01*
X131303937Y-122190226D01*
X131159774Y-122046063D01*
X130990256Y-121932795D01*
X130801898Y-121854774D01*
X130601939Y-121815000D01*
X130398061Y-121815000D01*
X130198102Y-121854774D01*
X130105796Y-121893009D01*
X130103937Y-121890226D01*
X129959774Y-121746063D01*
X129790256Y-121632795D01*
X129601898Y-121554774D01*
X129401939Y-121515000D01*
X129198061Y-121515000D01*
X128998102Y-121554774D01*
X128809744Y-121632795D01*
X128640226Y-121746063D01*
X128496063Y-121890226D01*
X128382795Y-122059744D01*
X128304774Y-122248102D01*
X128265000Y-122448061D01*
X119363778Y-122448061D01*
X119425000Y-122140279D01*
X119425000Y-121719721D01*
X119342953Y-121307244D01*
X119182012Y-120918698D01*
X118948363Y-120569017D01*
X118650983Y-120271637D01*
X118301302Y-120037988D01*
X117912756Y-119877047D01*
X117500279Y-119795000D01*
X117079721Y-119795000D01*
X116667244Y-119877047D01*
X116278698Y-120037988D01*
X115929017Y-120271637D01*
X115660000Y-120540654D01*
X115660000Y-119698061D01*
X125765000Y-119698061D01*
X125765000Y-119901939D01*
X125804774Y-120101898D01*
X125882795Y-120290256D01*
X125996063Y-120459774D01*
X126140226Y-120603937D01*
X126309744Y-120717205D01*
X126498102Y-120795226D01*
X126698061Y-120835000D01*
X126901939Y-120835000D01*
X127101898Y-120795226D01*
X127290256Y-120717205D01*
X127459774Y-120603937D01*
X127603937Y-120459774D01*
X127717205Y-120290256D01*
X127795226Y-120101898D01*
X127835000Y-119901939D01*
X127835000Y-119698061D01*
X127795226Y-119498102D01*
X127717205Y-119309744D01*
X127681468Y-119256259D01*
X127759774Y-119203937D01*
X127903937Y-119059774D01*
X128017205Y-118890256D01*
X128095226Y-118701898D01*
X128135000Y-118501939D01*
X128135000Y-118298061D01*
X128095226Y-118098102D01*
X128022722Y-117923061D01*
X142865000Y-117923061D01*
X142865000Y-118126939D01*
X142904774Y-118326898D01*
X142982795Y-118515256D01*
X143096063Y-118684774D01*
X143173789Y-118762500D01*
X143096063Y-118840226D01*
X142982795Y-119009744D01*
X142904774Y-119198102D01*
X142865000Y-119398061D01*
X142865000Y-119601939D01*
X142904774Y-119801898D01*
X142982795Y-119990256D01*
X143096063Y-120159774D01*
X143240226Y-120303937D01*
X143409744Y-120417205D01*
X143598102Y-120495226D01*
X143798061Y-120535000D01*
X144001939Y-120535000D01*
X144201898Y-120495226D01*
X144390256Y-120417205D01*
X144559774Y-120303937D01*
X144703937Y-120159774D01*
X144817205Y-119990256D01*
X144895226Y-119801898D01*
X144935000Y-119601939D01*
X144935000Y-119398061D01*
X144895226Y-119198102D01*
X144817205Y-119009744D01*
X144703937Y-118840226D01*
X144626211Y-118762500D01*
X144703937Y-118684774D01*
X144817205Y-118515256D01*
X144895226Y-118326898D01*
X144935000Y-118126939D01*
X144935000Y-117923061D01*
X144895226Y-117723102D01*
X144817205Y-117534744D01*
X144703937Y-117365226D01*
X144559774Y-117221063D01*
X144390256Y-117107795D01*
X144201898Y-117029774D01*
X144001939Y-116990000D01*
X143798061Y-116990000D01*
X143598102Y-117029774D01*
X143409744Y-117107795D01*
X143240226Y-117221063D01*
X143096063Y-117365226D01*
X142982795Y-117534744D01*
X142904774Y-117723102D01*
X142865000Y-117923061D01*
X128022722Y-117923061D01*
X128017205Y-117909744D01*
X127927172Y-117775000D01*
X128017205Y-117640256D01*
X128095226Y-117451898D01*
X128135000Y-117251939D01*
X128135000Y-117048061D01*
X128095226Y-116848102D01*
X128017205Y-116659744D01*
X127959599Y-116573531D01*
X128101898Y-116545226D01*
X128290256Y-116467205D01*
X128459774Y-116353937D01*
X128475000Y-116338711D01*
X128490226Y-116353937D01*
X128659744Y-116467205D01*
X128848102Y-116545226D01*
X129048061Y-116585000D01*
X129251939Y-116585000D01*
X129451898Y-116545226D01*
X129640256Y-116467205D01*
X129809774Y-116353937D01*
X129953937Y-116209774D01*
X130067205Y-116040256D01*
X130145226Y-115851898D01*
X130175825Y-115698061D01*
X149365000Y-115698061D01*
X149365000Y-115901939D01*
X149404774Y-116101898D01*
X149482795Y-116290256D01*
X149596063Y-116459774D01*
X149740226Y-116603937D01*
X149909744Y-116717205D01*
X150098102Y-116795226D01*
X150298061Y-116835000D01*
X150501939Y-116835000D01*
X150701898Y-116795226D01*
X150890256Y-116717205D01*
X151000000Y-116643877D01*
X151109744Y-116717205D01*
X151298102Y-116795226D01*
X151498061Y-116835000D01*
X151701939Y-116835000D01*
X151901898Y-116795226D01*
X152090256Y-116717205D01*
X152259774Y-116603937D01*
X152403937Y-116459774D01*
X152517205Y-116290256D01*
X152595226Y-116101898D01*
X152635000Y-115901939D01*
X152635000Y-115698061D01*
X152595226Y-115498102D01*
X152517205Y-115309744D01*
X152403937Y-115140226D01*
X152259774Y-114996063D01*
X152090256Y-114882795D01*
X151901898Y-114804774D01*
X151701939Y-114765000D01*
X151498061Y-114765000D01*
X151298102Y-114804774D01*
X151109744Y-114882795D01*
X151000000Y-114956123D01*
X150890256Y-114882795D01*
X150701898Y-114804774D01*
X150501939Y-114765000D01*
X150298061Y-114765000D01*
X150098102Y-114804774D01*
X149909744Y-114882795D01*
X149740226Y-114996063D01*
X149596063Y-115140226D01*
X149482795Y-115309744D01*
X149404774Y-115498102D01*
X149365000Y-115698061D01*
X130175825Y-115698061D01*
X130185000Y-115651939D01*
X130185000Y-115448061D01*
X130145226Y-115248102D01*
X130067205Y-115059744D01*
X130062712Y-115053020D01*
X130101898Y-115045226D01*
X130290256Y-114967205D01*
X130459774Y-114853937D01*
X130603937Y-114709774D01*
X130717205Y-114540256D01*
X130795226Y-114351898D01*
X130835000Y-114151939D01*
X130835000Y-113948061D01*
X130795226Y-113748102D01*
X130717205Y-113559744D01*
X130603937Y-113390226D01*
X130459774Y-113246063D01*
X130290256Y-113132795D01*
X130101898Y-113054774D01*
X129901939Y-113015000D01*
X129698061Y-113015000D01*
X129498102Y-113054774D01*
X129309744Y-113132795D01*
X129140226Y-113246063D01*
X128996063Y-113390226D01*
X128882795Y-113559744D01*
X128804774Y-113748102D01*
X128765000Y-113948061D01*
X128765000Y-114151939D01*
X128804774Y-114351898D01*
X128882795Y-114540256D01*
X128887288Y-114546980D01*
X128848102Y-114554774D01*
X128659744Y-114632795D01*
X128490226Y-114746063D01*
X128475000Y-114761289D01*
X128459774Y-114746063D01*
X128290256Y-114632795D01*
X128101898Y-114554774D01*
X127901939Y-114515000D01*
X127698061Y-114515000D01*
X127498102Y-114554774D01*
X127309744Y-114632795D01*
X127140226Y-114746063D01*
X126996063Y-114890226D01*
X126882795Y-115059744D01*
X126804774Y-115248102D01*
X126765000Y-115448061D01*
X126765000Y-115651939D01*
X126804774Y-115851898D01*
X126882795Y-116040256D01*
X126940401Y-116126469D01*
X126798102Y-116154774D01*
X126609744Y-116232795D01*
X126440226Y-116346063D01*
X126296063Y-116490226D01*
X126182795Y-116659744D01*
X126104774Y-116848102D01*
X126065000Y-117048061D01*
X126065000Y-117251939D01*
X126104774Y-117451898D01*
X126182795Y-117640256D01*
X126272828Y-117775000D01*
X126182795Y-117909744D01*
X126104774Y-118098102D01*
X126065000Y-118298061D01*
X126065000Y-118501939D01*
X126104774Y-118701898D01*
X126182795Y-118890256D01*
X126218532Y-118943741D01*
X126140226Y-118996063D01*
X125996063Y-119140226D01*
X125882795Y-119309744D01*
X125804774Y-119498102D01*
X125765000Y-119698061D01*
X115660000Y-119698061D01*
X115660000Y-116459346D01*
X115929017Y-116728363D01*
X116278698Y-116962012D01*
X116667244Y-117122953D01*
X117079721Y-117205000D01*
X117500279Y-117205000D01*
X117912756Y-117122953D01*
X118301302Y-116962012D01*
X118650983Y-116728363D01*
X118948363Y-116430983D01*
X119182012Y-116081302D01*
X119342953Y-115692756D01*
X119425000Y-115280279D01*
X119425000Y-114859721D01*
X119342953Y-114447244D01*
X119182012Y-114058698D01*
X118948363Y-113709017D01*
X118650983Y-113411637D01*
X118301302Y-113177988D01*
X117912756Y-113017047D01*
X117790366Y-112992702D01*
X119186903Y-112992702D01*
X119258486Y-113236671D01*
X119513996Y-113357571D01*
X119788184Y-113426300D01*
X120070512Y-113440217D01*
X120350130Y-113398787D01*
X120616292Y-113303603D01*
X120741514Y-113236671D01*
X120813097Y-112992702D01*
X120000000Y-112179605D01*
X119186903Y-112992702D01*
X117790366Y-112992702D01*
X117500279Y-112935000D01*
X117079721Y-112935000D01*
X116667244Y-113017047D01*
X116278698Y-113177988D01*
X115929017Y-113411637D01*
X115660000Y-113680654D01*
X115660000Y-112070512D01*
X118559783Y-112070512D01*
X118601213Y-112350130D01*
X118696397Y-112616292D01*
X118763329Y-112741514D01*
X119007298Y-112813097D01*
X119820395Y-112000000D01*
X120179605Y-112000000D01*
X120992702Y-112813097D01*
X121236671Y-112741514D01*
X121357571Y-112486004D01*
X121426300Y-112211816D01*
X121431907Y-112098061D01*
X131915000Y-112098061D01*
X131915000Y-112301939D01*
X131954774Y-112501898D01*
X132032795Y-112690256D01*
X132146063Y-112859774D01*
X132290226Y-113003937D01*
X132434445Y-113100301D01*
X132415000Y-113198061D01*
X132415000Y-113401939D01*
X132454774Y-113601898D01*
X132532795Y-113790256D01*
X132646063Y-113959774D01*
X132790226Y-114103937D01*
X132959744Y-114217205D01*
X133148102Y-114295226D01*
X133348061Y-114335000D01*
X133551939Y-114335000D01*
X133751898Y-114295226D01*
X133940256Y-114217205D01*
X134109774Y-114103937D01*
X134253937Y-113959774D01*
X134367205Y-113790256D01*
X134379177Y-113761353D01*
X134498061Y-113785000D01*
X134701939Y-113785000D01*
X134901898Y-113745226D01*
X135090256Y-113667205D01*
X135259774Y-113553937D01*
X135315650Y-113498061D01*
X142865000Y-113498061D01*
X142865000Y-113701939D01*
X142904774Y-113901898D01*
X142982795Y-114090256D01*
X143096063Y-114259774D01*
X143240226Y-114403937D01*
X143409744Y-114517205D01*
X143598102Y-114595226D01*
X143798061Y-114635000D01*
X144001939Y-114635000D01*
X144201898Y-114595226D01*
X144390256Y-114517205D01*
X144559774Y-114403937D01*
X144703937Y-114259774D01*
X144817205Y-114090256D01*
X144895226Y-113901898D01*
X144935000Y-113701939D01*
X144935000Y-113498061D01*
X144895226Y-113298102D01*
X144817205Y-113109744D01*
X144703937Y-112940226D01*
X144559774Y-112796063D01*
X144390256Y-112682795D01*
X144201898Y-112604774D01*
X144001939Y-112565000D01*
X143798061Y-112565000D01*
X143598102Y-112604774D01*
X143409744Y-112682795D01*
X143240226Y-112796063D01*
X143096063Y-112940226D01*
X142982795Y-113109744D01*
X142904774Y-113298102D01*
X142865000Y-113498061D01*
X135315650Y-113498061D01*
X135403937Y-113409774D01*
X135517205Y-113240256D01*
X135595226Y-113051898D01*
X135635000Y-112851939D01*
X135635000Y-112648061D01*
X135595226Y-112448102D01*
X135517205Y-112259744D01*
X135403937Y-112090226D01*
X135259774Y-111946063D01*
X135090256Y-111832795D01*
X134901898Y-111754774D01*
X134701939Y-111715000D01*
X134498061Y-111715000D01*
X134298102Y-111754774D01*
X134109744Y-111832795D01*
X133953060Y-111937487D01*
X133945226Y-111898102D01*
X133867205Y-111709744D01*
X133753937Y-111540226D01*
X133711772Y-111498061D01*
X153065000Y-111498061D01*
X153065000Y-111701939D01*
X153104774Y-111901898D01*
X153182795Y-112090256D01*
X153296063Y-112259774D01*
X153440226Y-112403937D01*
X153609744Y-112517205D01*
X153798102Y-112595226D01*
X153998061Y-112635000D01*
X154201939Y-112635000D01*
X154401898Y-112595226D01*
X154590256Y-112517205D01*
X154759774Y-112403937D01*
X154903937Y-112259774D01*
X155017205Y-112090256D01*
X155095226Y-111901898D01*
X155135000Y-111701939D01*
X155135000Y-111498061D01*
X155095226Y-111298102D01*
X155017205Y-111109744D01*
X154903937Y-110940226D01*
X154759774Y-110796063D01*
X154590256Y-110682795D01*
X154401898Y-110604774D01*
X154201939Y-110565000D01*
X153998061Y-110565000D01*
X153798102Y-110604774D01*
X153609744Y-110682795D01*
X153440226Y-110796063D01*
X153296063Y-110940226D01*
X153182795Y-111109744D01*
X153104774Y-111298102D01*
X153065000Y-111498061D01*
X133711772Y-111498061D01*
X133609774Y-111396063D01*
X133440256Y-111282795D01*
X133251898Y-111204774D01*
X133051939Y-111165000D01*
X132848061Y-111165000D01*
X132648102Y-111204774D01*
X132459744Y-111282795D01*
X132290226Y-111396063D01*
X132146063Y-111540226D01*
X132032795Y-111709744D01*
X131954774Y-111898102D01*
X131915000Y-112098061D01*
X121431907Y-112098061D01*
X121440217Y-111929488D01*
X121398787Y-111649870D01*
X121303603Y-111383708D01*
X121236671Y-111258486D01*
X120992702Y-111186903D01*
X120179605Y-112000000D01*
X119820395Y-112000000D01*
X119007298Y-111186903D01*
X118763329Y-111258486D01*
X118642429Y-111513996D01*
X118573700Y-111788184D01*
X118559783Y-112070512D01*
X115660000Y-112070512D01*
X115660000Y-104200000D01*
X118561928Y-104200000D01*
X118561928Y-105800000D01*
X118574188Y-105924482D01*
X118610498Y-106044180D01*
X118669463Y-106154494D01*
X118748815Y-106251185D01*
X118845506Y-106330537D01*
X118955820Y-106389502D01*
X119051943Y-106418661D01*
X118885363Y-106585241D01*
X118728320Y-106820273D01*
X118620147Y-107081426D01*
X118565000Y-107358665D01*
X118565000Y-107641335D01*
X118620147Y-107918574D01*
X118728320Y-108179727D01*
X118885363Y-108414759D01*
X118970604Y-108500000D01*
X118885363Y-108585241D01*
X118728320Y-108820273D01*
X118620147Y-109081426D01*
X118565000Y-109358665D01*
X118565000Y-109641335D01*
X118620147Y-109918574D01*
X118728320Y-110179727D01*
X118885363Y-110414759D01*
X119085241Y-110614637D01*
X119285869Y-110748692D01*
X119258486Y-110763329D01*
X119186903Y-111007298D01*
X120000000Y-111820395D01*
X120813097Y-111007298D01*
X120741514Y-110763329D01*
X120712659Y-110749676D01*
X120914759Y-110614637D01*
X121114637Y-110414759D01*
X121271680Y-110179727D01*
X121379853Y-109918574D01*
X121435000Y-109641335D01*
X121435000Y-109358665D01*
X121379853Y-109081426D01*
X121271680Y-108820273D01*
X121114637Y-108585241D01*
X121029396Y-108500000D01*
X121114637Y-108414759D01*
X121271680Y-108179727D01*
X121379853Y-107918574D01*
X121435000Y-107641335D01*
X121435000Y-107358665D01*
X121379853Y-107081426D01*
X121271680Y-106820273D01*
X121123204Y-106598061D01*
X150965000Y-106598061D01*
X150965000Y-106801939D01*
X151004774Y-107001898D01*
X151082795Y-107190256D01*
X151196063Y-107359774D01*
X151340226Y-107503937D01*
X151509744Y-107617205D01*
X151698102Y-107695226D01*
X151898061Y-107735000D01*
X152101939Y-107735000D01*
X152301898Y-107695226D01*
X152490256Y-107617205D01*
X152659774Y-107503937D01*
X152803937Y-107359774D01*
X152917205Y-107190256D01*
X152995226Y-107001898D01*
X153035000Y-106801939D01*
X153035000Y-106598061D01*
X152995226Y-106398102D01*
X152917205Y-106209744D01*
X152803937Y-106040226D01*
X152659774Y-105896063D01*
X152490256Y-105782795D01*
X152301898Y-105704774D01*
X152101939Y-105665000D01*
X151898061Y-105665000D01*
X151698102Y-105704774D01*
X151509744Y-105782795D01*
X151340226Y-105896063D01*
X151196063Y-106040226D01*
X151082795Y-106209744D01*
X151004774Y-106398102D01*
X150965000Y-106598061D01*
X121123204Y-106598061D01*
X121114637Y-106585241D01*
X120948057Y-106418661D01*
X121044180Y-106389502D01*
X121154494Y-106330537D01*
X121251185Y-106251185D01*
X121330537Y-106154494D01*
X121389502Y-106044180D01*
X121425812Y-105924482D01*
X121438072Y-105800000D01*
X121438072Y-104200000D01*
X121425812Y-104075518D01*
X121402316Y-103998061D01*
X149065000Y-103998061D01*
X149065000Y-104201939D01*
X149104774Y-104401898D01*
X149182795Y-104590256D01*
X149296063Y-104759774D01*
X149440226Y-104903937D01*
X149609744Y-105017205D01*
X149798102Y-105095226D01*
X149998061Y-105135000D01*
X150201939Y-105135000D01*
X150401898Y-105095226D01*
X150590256Y-105017205D01*
X150759774Y-104903937D01*
X150903937Y-104759774D01*
X151017205Y-104590256D01*
X151095226Y-104401898D01*
X151135000Y-104201939D01*
X151135000Y-103998061D01*
X151115109Y-103898061D01*
X152865000Y-103898061D01*
X152865000Y-104101939D01*
X152904774Y-104301898D01*
X152982795Y-104490256D01*
X153096063Y-104659774D01*
X153240226Y-104803937D01*
X153409744Y-104917205D01*
X153416348Y-104919941D01*
X153321063Y-105015226D01*
X153207795Y-105184744D01*
X153129774Y-105373102D01*
X153090000Y-105573061D01*
X153090000Y-105776939D01*
X153129774Y-105976898D01*
X153207795Y-106165256D01*
X153281123Y-106275000D01*
X153207795Y-106384744D01*
X153129774Y-106573102D01*
X153090000Y-106773061D01*
X153090000Y-106976939D01*
X153129774Y-107176898D01*
X153207795Y-107365256D01*
X153321063Y-107534774D01*
X153465226Y-107678937D01*
X153634744Y-107792205D01*
X153823102Y-107870226D01*
X154023061Y-107910000D01*
X154226939Y-107910000D01*
X154426898Y-107870226D01*
X154615256Y-107792205D01*
X154784774Y-107678937D01*
X154928937Y-107534774D01*
X155042205Y-107365256D01*
X155120226Y-107176898D01*
X155160000Y-106976939D01*
X155160000Y-106773061D01*
X155120226Y-106573102D01*
X155042205Y-106384744D01*
X154968877Y-106275000D01*
X155042205Y-106165256D01*
X155120226Y-105976898D01*
X155160000Y-105776939D01*
X155160000Y-105573061D01*
X155120226Y-105373102D01*
X155042205Y-105184744D01*
X154928937Y-105015226D01*
X154911627Y-104997916D01*
X155098061Y-105035000D01*
X155301939Y-105035000D01*
X155501898Y-104995226D01*
X155690256Y-104917205D01*
X155800000Y-104843877D01*
X155909744Y-104917205D01*
X156098102Y-104995226D01*
X156298061Y-105035000D01*
X156501939Y-105035000D01*
X156701898Y-104995226D01*
X156890256Y-104917205D01*
X157059774Y-104803937D01*
X157065650Y-104798061D01*
X161365000Y-104798061D01*
X161365000Y-105001939D01*
X161404774Y-105201898D01*
X161482795Y-105390256D01*
X161596063Y-105559774D01*
X161740226Y-105703937D01*
X161909744Y-105817205D01*
X162098102Y-105895226D01*
X162298061Y-105935000D01*
X162501939Y-105935000D01*
X162701898Y-105895226D01*
X162890256Y-105817205D01*
X163059774Y-105703937D01*
X163203937Y-105559774D01*
X163317205Y-105390256D01*
X163395226Y-105201898D01*
X163435000Y-105001939D01*
X163435000Y-104798061D01*
X163395226Y-104598102D01*
X163317205Y-104409744D01*
X163203937Y-104240226D01*
X163059774Y-104096063D01*
X162890256Y-103982795D01*
X162701898Y-103904774D01*
X162501939Y-103865000D01*
X162298061Y-103865000D01*
X162098102Y-103904774D01*
X161909744Y-103982795D01*
X161740226Y-104096063D01*
X161596063Y-104240226D01*
X161482795Y-104409744D01*
X161404774Y-104598102D01*
X161365000Y-104798061D01*
X157065650Y-104798061D01*
X157203937Y-104659774D01*
X157317205Y-104490256D01*
X157395226Y-104301898D01*
X157435000Y-104101939D01*
X157435000Y-103898061D01*
X157395226Y-103698102D01*
X157317205Y-103509744D01*
X157203937Y-103340226D01*
X157059774Y-103196063D01*
X156890256Y-103082795D01*
X156701898Y-103004774D01*
X156501939Y-102965000D01*
X156298061Y-102965000D01*
X156098102Y-103004774D01*
X155909744Y-103082795D01*
X155800000Y-103156123D01*
X155690256Y-103082795D01*
X155501898Y-103004774D01*
X155301939Y-102965000D01*
X155098061Y-102965000D01*
X154898102Y-103004774D01*
X154709744Y-103082795D01*
X154550000Y-103189532D01*
X154390256Y-103082795D01*
X154201898Y-103004774D01*
X154001939Y-102965000D01*
X153798061Y-102965000D01*
X153598102Y-103004774D01*
X153409744Y-103082795D01*
X153240226Y-103196063D01*
X153096063Y-103340226D01*
X152982795Y-103509744D01*
X152904774Y-103698102D01*
X152865000Y-103898061D01*
X151115109Y-103898061D01*
X151095226Y-103798102D01*
X151017205Y-103609744D01*
X150903937Y-103440226D01*
X150759774Y-103296063D01*
X150590256Y-103182795D01*
X150401898Y-103104774D01*
X150201939Y-103065000D01*
X149998061Y-103065000D01*
X149798102Y-103104774D01*
X149609744Y-103182795D01*
X149440226Y-103296063D01*
X149296063Y-103440226D01*
X149182795Y-103609744D01*
X149104774Y-103798102D01*
X149065000Y-103998061D01*
X121402316Y-103998061D01*
X121389502Y-103955820D01*
X121330537Y-103845506D01*
X121251185Y-103748815D01*
X121154494Y-103669463D01*
X121044180Y-103610498D01*
X120924482Y-103574188D01*
X120800000Y-103561928D01*
X119200000Y-103561928D01*
X119075518Y-103574188D01*
X118955820Y-103610498D01*
X118845506Y-103669463D01*
X118748815Y-103748815D01*
X118669463Y-103845506D01*
X118610498Y-103955820D01*
X118574188Y-104075518D01*
X118561928Y-104200000D01*
X115660000Y-104200000D01*
X115660000Y-103319346D01*
X115929017Y-103588363D01*
X116278698Y-103822012D01*
X116667244Y-103982953D01*
X117079721Y-104065000D01*
X117500279Y-104065000D01*
X117912756Y-103982953D01*
X118301302Y-103822012D01*
X118650983Y-103588363D01*
X118948363Y-103290983D01*
X119182012Y-102941302D01*
X119342953Y-102552756D01*
X119425000Y-102140279D01*
X119425000Y-101756891D01*
X138818519Y-101756891D01*
X138915843Y-102031252D01*
X139064822Y-102281355D01*
X139259731Y-102497588D01*
X139493080Y-102671641D01*
X139755901Y-102796825D01*
X139903110Y-102841476D01*
X140133000Y-102720155D01*
X140133000Y-101527000D01*
X138939186Y-101527000D01*
X138818519Y-101756891D01*
X119425000Y-101756891D01*
X119425000Y-101719721D01*
X119342953Y-101307244D01*
X119233545Y-101043109D01*
X138818519Y-101043109D01*
X138939186Y-101273000D01*
X140133000Y-101273000D01*
X140133000Y-100079845D01*
X140387000Y-100079845D01*
X140387000Y-101273000D01*
X140407000Y-101273000D01*
X140407000Y-101527000D01*
X140387000Y-101527000D01*
X140387000Y-102720155D01*
X140616890Y-102841476D01*
X140764099Y-102796825D01*
X141026920Y-102671641D01*
X141260269Y-102497588D01*
X141455178Y-102281355D01*
X141524805Y-102164466D01*
X141646525Y-102346632D01*
X141853368Y-102553475D01*
X142096589Y-102715990D01*
X142366842Y-102827932D01*
X142653740Y-102885000D01*
X142946260Y-102885000D01*
X143233158Y-102827932D01*
X143503411Y-102715990D01*
X143746632Y-102553475D01*
X143953475Y-102346632D01*
X144070000Y-102172240D01*
X144186525Y-102346632D01*
X144393368Y-102553475D01*
X144636589Y-102715990D01*
X144906842Y-102827932D01*
X145193740Y-102885000D01*
X145486260Y-102885000D01*
X145773158Y-102827932D01*
X146043411Y-102715990D01*
X146286632Y-102553475D01*
X146418487Y-102421620D01*
X146440498Y-102494180D01*
X146499463Y-102604494D01*
X146578815Y-102701185D01*
X146675506Y-102780537D01*
X146785820Y-102839502D01*
X146905518Y-102875812D01*
X147030000Y-102888072D01*
X148730000Y-102888072D01*
X148854482Y-102875812D01*
X148974180Y-102839502D01*
X149084494Y-102780537D01*
X149181185Y-102701185D01*
X149260537Y-102604494D01*
X149319502Y-102494180D01*
X149355812Y-102374482D01*
X149368072Y-102250000D01*
X149368072Y-101198061D01*
X150965000Y-101198061D01*
X150965000Y-101401939D01*
X151004774Y-101601898D01*
X151082795Y-101790256D01*
X151196063Y-101959774D01*
X151340226Y-102103937D01*
X151509744Y-102217205D01*
X151698102Y-102295226D01*
X151898061Y-102335000D01*
X152101939Y-102335000D01*
X152301898Y-102295226D01*
X152490256Y-102217205D01*
X152659774Y-102103937D01*
X152803937Y-101959774D01*
X152917205Y-101790256D01*
X152995226Y-101601898D01*
X153035000Y-101401939D01*
X153035000Y-101198061D01*
X152995226Y-100998102D01*
X152917205Y-100809744D01*
X152803937Y-100640226D01*
X152659774Y-100496063D01*
X152490256Y-100382795D01*
X152301898Y-100304774D01*
X152101939Y-100265000D01*
X151898061Y-100265000D01*
X151698102Y-100304774D01*
X151509744Y-100382795D01*
X151340226Y-100496063D01*
X151196063Y-100640226D01*
X151082795Y-100809744D01*
X151004774Y-100998102D01*
X150965000Y-101198061D01*
X149368072Y-101198061D01*
X149368072Y-100550000D01*
X149355812Y-100425518D01*
X149319502Y-100305820D01*
X149260537Y-100195506D01*
X149181185Y-100098815D01*
X149084494Y-100019463D01*
X148974180Y-99960498D01*
X148854482Y-99924188D01*
X148730000Y-99911928D01*
X147030000Y-99911928D01*
X146905518Y-99924188D01*
X146785820Y-99960498D01*
X146675506Y-100019463D01*
X146578815Y-100098815D01*
X146499463Y-100195506D01*
X146440498Y-100305820D01*
X146418487Y-100378380D01*
X146286632Y-100246525D01*
X146043411Y-100084010D01*
X145773158Y-99972068D01*
X145486260Y-99915000D01*
X145193740Y-99915000D01*
X144906842Y-99972068D01*
X144636589Y-100084010D01*
X144393368Y-100246525D01*
X144186525Y-100453368D01*
X144070000Y-100627760D01*
X143953475Y-100453368D01*
X143746632Y-100246525D01*
X143503411Y-100084010D01*
X143233158Y-99972068D01*
X142946260Y-99915000D01*
X142653740Y-99915000D01*
X142366842Y-99972068D01*
X142096589Y-100084010D01*
X141853368Y-100246525D01*
X141646525Y-100453368D01*
X141524805Y-100635534D01*
X141455178Y-100518645D01*
X141260269Y-100302412D01*
X141026920Y-100128359D01*
X140764099Y-100003175D01*
X140616890Y-99958524D01*
X140387000Y-100079845D01*
X140133000Y-100079845D01*
X139903110Y-99958524D01*
X139755901Y-100003175D01*
X139493080Y-100128359D01*
X139259731Y-100302412D01*
X139064822Y-100518645D01*
X138915843Y-100768748D01*
X138818519Y-101043109D01*
X119233545Y-101043109D01*
X119182012Y-100918698D01*
X118948363Y-100569017D01*
X118650983Y-100271637D01*
X118301302Y-100037988D01*
X117912756Y-99877047D01*
X117500279Y-99795000D01*
X117079721Y-99795000D01*
X116667244Y-99877047D01*
X116278698Y-100037988D01*
X115929017Y-100271637D01*
X115660000Y-100540654D01*
X115660000Y-98829117D01*
X119265000Y-98829117D01*
X119265000Y-99170883D01*
X119331675Y-99506081D01*
X119462463Y-99821831D01*
X119652337Y-100105998D01*
X119894002Y-100347663D01*
X120178169Y-100537537D01*
X120493919Y-100668325D01*
X120829117Y-100735000D01*
X121170883Y-100735000D01*
X121506081Y-100668325D01*
X121821831Y-100537537D01*
X122105998Y-100347663D01*
X122347663Y-100105998D01*
X122537537Y-99821831D01*
X122668325Y-99506081D01*
X122735000Y-99170883D01*
X122735000Y-98829117D01*
X122668325Y-98493919D01*
X122537537Y-98178169D01*
X122347663Y-97894002D01*
X122105998Y-97652337D01*
X121821831Y-97462463D01*
X121506081Y-97331675D01*
X121170883Y-97265000D01*
X120829117Y-97265000D01*
X120493919Y-97331675D01*
X120178169Y-97462463D01*
X119894002Y-97652337D01*
X119652337Y-97894002D01*
X119462463Y-98178169D01*
X119331675Y-98493919D01*
X119265000Y-98829117D01*
X115660000Y-98829117D01*
X115660000Y-95992702D01*
X121686903Y-95992702D01*
X121758486Y-96236671D01*
X122013996Y-96357571D01*
X122288184Y-96426300D01*
X122570512Y-96440217D01*
X122850130Y-96398787D01*
X123116292Y-96303603D01*
X123241514Y-96236671D01*
X123313097Y-95992702D01*
X122500000Y-95179605D01*
X121686903Y-95992702D01*
X115660000Y-95992702D01*
X115660000Y-95070512D01*
X121059783Y-95070512D01*
X121101213Y-95350130D01*
X121196397Y-95616292D01*
X121263329Y-95741514D01*
X121507298Y-95813097D01*
X122320395Y-95000000D01*
X122679605Y-95000000D01*
X123492702Y-95813097D01*
X123736671Y-95741514D01*
X123750324Y-95712659D01*
X123885363Y-95914759D01*
X124085241Y-96114637D01*
X124320273Y-96271680D01*
X124581426Y-96379853D01*
X124858665Y-96435000D01*
X125141335Y-96435000D01*
X125418574Y-96379853D01*
X125679727Y-96271680D01*
X125914759Y-96114637D01*
X126000000Y-96029396D01*
X126085241Y-96114637D01*
X126320273Y-96271680D01*
X126581426Y-96379853D01*
X126858665Y-96435000D01*
X127141335Y-96435000D01*
X127418574Y-96379853D01*
X127679727Y-96271680D01*
X127914759Y-96114637D01*
X128081339Y-95948057D01*
X128110498Y-96044180D01*
X128169463Y-96154494D01*
X128248815Y-96251185D01*
X128345506Y-96330537D01*
X128455820Y-96389502D01*
X128575518Y-96425812D01*
X128700000Y-96438072D01*
X130300000Y-96438072D01*
X130424482Y-96425812D01*
X130544180Y-96389502D01*
X130654494Y-96330537D01*
X130721670Y-96275407D01*
X152065000Y-96275407D01*
X152087210Y-96500912D01*
X152174983Y-96790260D01*
X152317519Y-97056926D01*
X152509339Y-97290661D01*
X152743073Y-97482481D01*
X153009739Y-97625017D01*
X153299087Y-97712790D01*
X153600000Y-97742427D01*
X153900912Y-97712790D01*
X154190260Y-97625017D01*
X154456926Y-97482481D01*
X154690661Y-97290661D01*
X154765064Y-97200000D01*
X155561928Y-97200000D01*
X155561928Y-99000000D01*
X155574188Y-99124482D01*
X155610498Y-99244180D01*
X155669463Y-99354494D01*
X155748815Y-99451185D01*
X155845506Y-99530537D01*
X155955820Y-99589502D01*
X155989495Y-99599717D01*
X155982795Y-99609744D01*
X155904774Y-99798102D01*
X155865000Y-99998061D01*
X155865000Y-100201939D01*
X155904774Y-100401898D01*
X155982795Y-100590256D01*
X156096063Y-100759774D01*
X156240226Y-100903937D01*
X156409744Y-101017205D01*
X156598102Y-101095226D01*
X156798061Y-101135000D01*
X157001939Y-101135000D01*
X157201898Y-101095226D01*
X157390256Y-101017205D01*
X157559774Y-100903937D01*
X157600000Y-100863711D01*
X157640226Y-100903937D01*
X157809744Y-101017205D01*
X157998102Y-101095226D01*
X158198061Y-101135000D01*
X158401939Y-101135000D01*
X158601898Y-101095226D01*
X158790256Y-101017205D01*
X158950000Y-100910468D01*
X159109744Y-101017205D01*
X159298102Y-101095226D01*
X159498061Y-101135000D01*
X159701939Y-101135000D01*
X159901898Y-101095226D01*
X160090256Y-101017205D01*
X160259774Y-100903937D01*
X160403937Y-100759774D01*
X160517205Y-100590256D01*
X160595226Y-100401898D01*
X160635000Y-100201939D01*
X160635000Y-99998061D01*
X160595226Y-99798102D01*
X160528939Y-99638072D01*
X160600000Y-99638072D01*
X160724482Y-99625812D01*
X160844180Y-99589502D01*
X160954494Y-99530537D01*
X161051185Y-99451185D01*
X161130537Y-99354494D01*
X161189502Y-99244180D01*
X161225812Y-99124482D01*
X161238072Y-99000000D01*
X161238072Y-97200000D01*
X161225812Y-97075518D01*
X161189502Y-96955820D01*
X161130537Y-96845506D01*
X161051185Y-96748815D01*
X160954494Y-96669463D01*
X160844180Y-96610498D01*
X160724482Y-96574188D01*
X160600000Y-96561928D01*
X156200000Y-96561928D01*
X156075518Y-96574188D01*
X155955820Y-96610498D01*
X155845506Y-96669463D01*
X155748815Y-96748815D01*
X155669463Y-96845506D01*
X155610498Y-96955820D01*
X155574188Y-97075518D01*
X155561928Y-97200000D01*
X154765064Y-97200000D01*
X154882481Y-97056927D01*
X155025017Y-96790261D01*
X155112790Y-96500913D01*
X155135000Y-96275408D01*
X155135000Y-93924592D01*
X155112790Y-93699087D01*
X155025017Y-93409739D01*
X154882481Y-93143073D01*
X154690661Y-92909339D01*
X154456927Y-92717519D01*
X154358185Y-92664740D01*
X155808964Y-92664740D01*
X155833245Y-92770087D01*
X155953138Y-93047204D01*
X156124790Y-93295606D01*
X156341604Y-93505748D01*
X156595249Y-93669554D01*
X156875977Y-93780729D01*
X157173000Y-93835000D01*
X158273000Y-93835000D01*
X158273000Y-92427000D01*
X158527000Y-92427000D01*
X158527000Y-93835000D01*
X159627000Y-93835000D01*
X159924023Y-93780729D01*
X160204751Y-93669554D01*
X160458396Y-93505748D01*
X160675210Y-93295606D01*
X160846862Y-93047204D01*
X160966755Y-92770087D01*
X160991036Y-92664740D01*
X160870378Y-92427000D01*
X158527000Y-92427000D01*
X158273000Y-92427000D01*
X155929622Y-92427000D01*
X155808964Y-92664740D01*
X154358185Y-92664740D01*
X154190261Y-92574983D01*
X153900913Y-92487210D01*
X153600000Y-92457573D01*
X153299088Y-92487210D01*
X153009740Y-92574983D01*
X152743074Y-92717519D01*
X152509340Y-92909339D01*
X152317520Y-93143073D01*
X152174984Y-93409739D01*
X152087211Y-93699087D01*
X152065001Y-93924592D01*
X152065000Y-96275407D01*
X130721670Y-96275407D01*
X130751185Y-96251185D01*
X130830537Y-96154494D01*
X130889502Y-96044180D01*
X130925812Y-95924482D01*
X130938072Y-95800000D01*
X130938072Y-94200000D01*
X130925812Y-94075518D01*
X130889502Y-93955820D01*
X130830537Y-93845506D01*
X130751185Y-93748815D01*
X130654494Y-93669463D01*
X130544180Y-93610498D01*
X130424482Y-93574188D01*
X130300000Y-93561928D01*
X128700000Y-93561928D01*
X128575518Y-93574188D01*
X128455820Y-93610498D01*
X128345506Y-93669463D01*
X128248815Y-93748815D01*
X128169463Y-93845506D01*
X128110498Y-93955820D01*
X128081339Y-94051943D01*
X127914759Y-93885363D01*
X127679727Y-93728320D01*
X127418574Y-93620147D01*
X127141335Y-93565000D01*
X126858665Y-93565000D01*
X126581426Y-93620147D01*
X126320273Y-93728320D01*
X126085241Y-93885363D01*
X126000000Y-93970604D01*
X125914759Y-93885363D01*
X125679727Y-93728320D01*
X125418574Y-93620147D01*
X125141335Y-93565000D01*
X124858665Y-93565000D01*
X124581426Y-93620147D01*
X124320273Y-93728320D01*
X124085241Y-93885363D01*
X123885363Y-94085241D01*
X123751308Y-94285869D01*
X123736671Y-94258486D01*
X123492702Y-94186903D01*
X122679605Y-95000000D01*
X122320395Y-95000000D01*
X121507298Y-94186903D01*
X121263329Y-94258486D01*
X121142429Y-94513996D01*
X121073700Y-94788184D01*
X121059783Y-95070512D01*
X115660000Y-95070512D01*
X115660000Y-95029392D01*
X115731173Y-94231917D01*
X115934656Y-93488109D01*
X116266638Y-92792095D01*
X116716626Y-92165870D01*
X117270403Y-91629223D01*
X117440002Y-91515257D01*
X117377047Y-91667244D01*
X117295000Y-92079721D01*
X117295000Y-92500279D01*
X117377047Y-92912756D01*
X117537988Y-93301302D01*
X117771637Y-93650983D01*
X118069017Y-93948363D01*
X118418698Y-94182012D01*
X118807244Y-94342953D01*
X119219721Y-94425000D01*
X119640279Y-94425000D01*
X120052756Y-94342953D01*
X120441302Y-94182012D01*
X120702780Y-94007298D01*
X121686903Y-94007298D01*
X122500000Y-94820395D01*
X123313097Y-94007298D01*
X123241514Y-93763329D01*
X122986004Y-93642429D01*
X122711816Y-93573700D01*
X122429488Y-93559783D01*
X122149870Y-93601213D01*
X121883708Y-93696397D01*
X121758486Y-93763329D01*
X121686903Y-94007298D01*
X120702780Y-94007298D01*
X120790983Y-93948363D01*
X121088363Y-93650983D01*
X121322012Y-93301302D01*
X121482953Y-92912756D01*
X121565000Y-92500279D01*
X121565000Y-92079721D01*
X121482953Y-91667244D01*
X121322012Y-91278698D01*
X121088363Y-90929017D01*
X120819346Y-90660000D01*
X131180654Y-90660000D01*
X130911637Y-90929017D01*
G37*
X130911637Y-90929017D02*
X130677988Y-91278698D01*
X130517047Y-91667244D01*
X130435000Y-92079721D01*
X130435000Y-92500279D01*
X130517047Y-92912756D01*
X130677988Y-93301302D01*
X130911637Y-93650983D01*
X131209017Y-93948363D01*
X131558698Y-94182012D01*
X131947244Y-94342953D01*
X132359721Y-94425000D01*
X132780279Y-94425000D01*
X133192756Y-94342953D01*
X133581302Y-94182012D01*
X133930983Y-93948363D01*
X134228363Y-93650983D01*
X134462012Y-93301302D01*
X134622953Y-92912756D01*
X134705000Y-92500279D01*
X134705000Y-92079721D01*
X134676265Y-91935260D01*
X155808964Y-91935260D01*
X155929622Y-92173000D01*
X158273000Y-92173000D01*
X158273000Y-90765000D01*
X158527000Y-90765000D01*
X158527000Y-92173000D01*
X160870378Y-92173000D01*
X160991036Y-91935260D01*
X160966755Y-91829913D01*
X160846862Y-91552796D01*
X160675210Y-91304394D01*
X160458396Y-91094252D01*
X160204751Y-90930446D01*
X159924023Y-90819271D01*
X159627000Y-90765000D01*
X158527000Y-90765000D01*
X158273000Y-90765000D01*
X157173000Y-90765000D01*
X156875977Y-90819271D01*
X156595249Y-90930446D01*
X156341604Y-91094252D01*
X156124790Y-91304394D01*
X155953138Y-91552796D01*
X155833245Y-91829913D01*
X155808964Y-91935260D01*
X134676265Y-91935260D01*
X134622953Y-91667244D01*
X134462012Y-91278698D01*
X134228363Y-90929017D01*
X133959346Y-90660000D01*
X159970608Y-90660000D01*
X160768083Y-90731173D01*
X161511891Y-90934656D01*
X162207905Y-91266638D01*
X162834130Y-91716626D01*
X163370777Y-92270403D01*
X163800871Y-92910451D01*
X164110829Y-93616553D01*
X164292065Y-94371457D01*
X164340001Y-95024220D01*
X164340001Y-110362094D01*
X164103411Y-110204010D01*
X163833158Y-110092068D01*
X163546260Y-110035000D01*
X163253740Y-110035000D01*
X162966842Y-110092068D01*
X162696589Y-110204010D01*
X162453368Y-110366525D01*
X162246525Y-110573368D01*
X162130000Y-110747760D01*
X162013475Y-110573368D01*
X161806632Y-110366525D01*
X161563411Y-110204010D01*
X161293158Y-110092068D01*
X161006260Y-110035000D01*
X160713740Y-110035000D01*
X160426842Y-110092068D01*
X160156589Y-110204010D01*
X159913368Y-110366525D01*
X159706525Y-110573368D01*
X159544010Y-110816589D01*
X159432068Y-111086842D01*
X159375000Y-111373740D01*
X159375000Y-111666260D01*
X159432068Y-111953158D01*
X159544010Y-112223411D01*
X159706525Y-112466632D01*
X159913368Y-112673475D01*
X160087760Y-112790000D01*
X159913368Y-112906525D01*
X159706525Y-113113368D01*
X159544010Y-113356589D01*
X159432068Y-113626842D01*
X159375000Y-113913740D01*
X159375000Y-114206260D01*
X159432068Y-114493158D01*
X159544010Y-114763411D01*
X159706525Y-115006632D01*
X159913368Y-115213475D01*
X160095534Y-115335195D01*
X159978645Y-115404822D01*
X159762412Y-115599731D01*
X159588359Y-115833080D01*
X159463175Y-116095901D01*
X159418524Y-116243110D01*
X159539845Y-116473000D01*
X160733000Y-116473000D01*
X160733000Y-116453000D01*
X160987000Y-116453000D01*
X160987000Y-116473000D01*
X161007000Y-116473000D01*
X161007000Y-116727000D01*
X160987000Y-116727000D01*
X160987000Y-116747000D01*
X160733000Y-116747000D01*
X160733000Y-116727000D01*
X159539845Y-116727000D01*
X159418524Y-116956890D01*
X159463175Y-117104099D01*
X159588359Y-117366920D01*
X159762412Y-117600269D01*
X159978645Y-117795178D01*
X160095534Y-117864805D01*
X159913368Y-117986525D01*
X159706525Y-118193368D01*
X159544010Y-118436589D01*
X159432068Y-118706842D01*
X159375000Y-118993740D01*
X159375000Y-119286260D01*
X159432068Y-119573158D01*
X159544010Y-119843411D01*
X159706525Y-120086632D01*
X159838380Y-120218487D01*
X159765820Y-120240498D01*
X159655506Y-120299463D01*
X159558815Y-120378815D01*
X159479463Y-120475506D01*
X159420498Y-120585820D01*
X159384188Y-120705518D01*
X159371928Y-120830000D01*
X159371928Y-122530000D01*
X159384188Y-122654482D01*
X159420498Y-122774180D01*
X159479463Y-122884494D01*
X159558815Y-122981185D01*
X159655506Y-123060537D01*
X159765820Y-123119502D01*
X159885518Y-123155812D01*
X160010000Y-123168072D01*
X161710000Y-123168072D01*
X161834482Y-123155812D01*
X161954180Y-123119502D01*
X162064494Y-123060537D01*
X162161185Y-122981185D01*
X162240537Y-122884494D01*
X162299502Y-122774180D01*
X162321513Y-122701620D01*
X162453368Y-122833475D01*
X162696589Y-122995990D01*
X162966842Y-123107932D01*
X163253740Y-123165000D01*
X163546260Y-123165000D01*
X163833158Y-123107932D01*
X164103411Y-122995990D01*
X164340000Y-122837906D01*
X164340000Y-126342955D01*
X164209774Y-126212729D01*
X164040256Y-126099461D01*
X163851898Y-126021440D01*
X163651939Y-125981666D01*
X163448061Y-125981666D01*
X163248102Y-126021440D01*
X163059744Y-126099461D01*
X162890226Y-126212729D01*
X162746063Y-126356892D01*
X162632795Y-126526410D01*
X162554774Y-126714768D01*
X162515000Y-126914727D01*
X162515000Y-127118605D01*
X162554774Y-127318564D01*
X162632795Y-127506922D01*
X162746063Y-127676440D01*
X162890226Y-127820603D01*
X163059744Y-127933871D01*
X163248102Y-128011892D01*
X163448061Y-128051666D01*
X163651939Y-128051666D01*
X163851898Y-128011892D01*
X164040256Y-127933871D01*
X164209774Y-127820603D01*
X164340000Y-127690377D01*
X164340000Y-134970608D01*
X164268827Y-135768083D01*
X164065344Y-136511890D01*
X163733363Y-137207904D01*
X163283374Y-137834130D01*
X162729597Y-138370777D01*
X162089549Y-138800871D01*
X161383447Y-139110829D01*
X160628543Y-139292065D01*
X159975793Y-139340000D01*
X141459346Y-139340000D01*
X141728363Y-139070983D01*
X141962012Y-138721302D01*
X142122953Y-138332756D01*
X142205000Y-137920279D01*
X142205000Y-137499721D01*
X142122953Y-137087244D01*
X142016034Y-136829117D01*
X143065000Y-136829117D01*
X143065000Y-137170883D01*
X143131675Y-137506081D01*
X143262463Y-137821831D01*
X143452337Y-138105998D01*
X143694002Y-138347663D01*
X143978169Y-138537537D01*
X144293919Y-138668325D01*
X144629117Y-138735000D01*
X144970883Y-138735000D01*
X145306081Y-138668325D01*
X145621831Y-138537537D01*
X145905998Y-138347663D01*
X146147663Y-138105998D01*
X146337537Y-137821831D01*
X146468325Y-137506081D01*
X146535000Y-137170883D01*
X146535000Y-136829117D01*
X146468325Y-136493919D01*
X146337537Y-136178169D01*
X146147663Y-135894002D01*
X145905998Y-135652337D01*
X145621831Y-135462463D01*
X145306081Y-135331675D01*
X144970883Y-135265000D01*
X144629117Y-135265000D01*
X144293919Y-135331675D01*
X143978169Y-135462463D01*
X143694002Y-135652337D01*
X143452337Y-135894002D01*
X143262463Y-136178169D01*
X143131675Y-136493919D01*
X143065000Y-136829117D01*
X142016034Y-136829117D01*
X141962012Y-136698698D01*
X141728363Y-136349017D01*
X141430983Y-136051637D01*
X141081302Y-135817988D01*
X140692756Y-135657047D01*
X140280279Y-135575000D01*
X139859721Y-135575000D01*
X139447244Y-135657047D01*
X139058698Y-135817988D01*
X138709017Y-136051637D01*
X138411637Y-136349017D01*
X138177988Y-136698698D01*
X138017047Y-137087244D01*
X137935000Y-137499721D01*
X137935000Y-137920279D01*
X138017047Y-138332756D01*
X138177988Y-138721302D01*
X138411637Y-139070983D01*
X138680654Y-139340000D01*
X128319346Y-139340000D01*
X128588363Y-139070983D01*
X128822012Y-138721302D01*
X128982953Y-138332756D01*
X129065000Y-137920279D01*
X129065000Y-137499721D01*
X128982953Y-137087244D01*
X128822012Y-136698698D01*
X128588363Y-136349017D01*
X128290983Y-136051637D01*
X127941302Y-135817988D01*
X127552756Y-135657047D01*
X127140279Y-135575000D01*
X126719721Y-135575000D01*
X126307244Y-135657047D01*
X125918698Y-135817988D01*
X125569017Y-136051637D01*
X125271637Y-136349017D01*
X125037988Y-136698698D01*
X124877047Y-137087244D01*
X124795000Y-137499721D01*
X124795000Y-137920279D01*
X124877047Y-138332756D01*
X125037988Y-138721302D01*
X125271637Y-139070983D01*
X125540654Y-139340000D01*
X120029392Y-139340000D01*
X119231917Y-139268827D01*
X118488110Y-139065344D01*
X117792096Y-138733363D01*
X117165870Y-138283374D01*
X116629223Y-137729597D01*
X116199129Y-137089549D01*
X116086883Y-136833845D01*
X116278698Y-136962012D01*
X116667244Y-137122953D01*
X117079721Y-137205000D01*
X117500279Y-137205000D01*
X117912756Y-137122953D01*
X118301302Y-136962012D01*
X118650983Y-136728363D01*
X118948363Y-136430983D01*
X119182012Y-136081302D01*
X119342953Y-135692756D01*
X119425000Y-135280279D01*
X119425000Y-134859721D01*
X119342953Y-134447244D01*
X119240542Y-134200000D01*
X128561928Y-134200000D01*
X128561928Y-135800000D01*
X128574188Y-135924482D01*
X128610498Y-136044180D01*
X128669463Y-136154494D01*
X128748815Y-136251185D01*
X128845506Y-136330537D01*
X128955820Y-136389502D01*
X129075518Y-136425812D01*
X129200000Y-136438072D01*
X130800000Y-136438072D01*
X130924482Y-136425812D01*
X131044180Y-136389502D01*
X131154494Y-136330537D01*
X131251185Y-136251185D01*
X131330537Y-136154494D01*
X131389502Y-136044180D01*
X131418661Y-135948057D01*
X131585241Y-136114637D01*
X131820273Y-136271680D01*
X132081426Y-136379853D01*
X132358665Y-136435000D01*
X132641335Y-136435000D01*
X132918574Y-136379853D01*
X133179727Y-136271680D01*
X133414759Y-136114637D01*
X133500000Y-136029396D01*
X133585241Y-136114637D01*
X133820273Y-136271680D01*
X134081426Y-136379853D01*
X134358665Y-136435000D01*
X134641335Y-136435000D01*
X134918574Y-136379853D01*
X135179727Y-136271680D01*
X135414759Y-136114637D01*
X135536694Y-135992702D01*
X136186903Y-135992702D01*
X136258486Y-136236671D01*
X136513996Y-136357571D01*
X136788184Y-136426300D01*
X137070512Y-136440217D01*
X137350130Y-136398787D01*
X137616292Y-136303603D01*
X137741514Y-136236671D01*
X137813097Y-135992702D01*
X137000000Y-135179605D01*
X136186903Y-135992702D01*
X135536694Y-135992702D01*
X135614637Y-135914759D01*
X135748692Y-135714131D01*
X135763329Y-135741514D01*
X136007298Y-135813097D01*
X136820395Y-135000000D01*
X137179605Y-135000000D01*
X137992702Y-135813097D01*
X138236671Y-135741514D01*
X138357571Y-135486004D01*
X138426300Y-135211816D01*
X138440217Y-134929488D01*
X138398787Y-134649870D01*
X138380260Y-134598061D01*
X147065000Y-134598061D01*
X147065000Y-134801939D01*
X147104774Y-135001898D01*
X147182795Y-135190256D01*
X147296063Y-135359774D01*
X147440226Y-135503937D01*
X147609744Y-135617205D01*
X147798102Y-135695226D01*
X147887076Y-135712924D01*
X147904774Y-135801898D01*
X147982795Y-135990256D01*
X148096063Y-136159774D01*
X148240226Y-136303937D01*
X148409744Y-136417205D01*
X148598102Y-136495226D01*
X148687076Y-136512924D01*
X148704774Y-136601898D01*
X148782795Y-136790256D01*
X148896063Y-136959774D01*
X149040226Y-137103937D01*
X149209744Y-137217205D01*
X149398102Y-137295226D01*
X149598061Y-137335000D01*
X149801939Y-137335000D01*
X150001898Y-137295226D01*
X150190256Y-137217205D01*
X150359774Y-137103937D01*
X150503937Y-136959774D01*
X150617205Y-136790256D01*
X150695226Y-136601898D01*
X150735000Y-136401939D01*
X150735000Y-136198061D01*
X150695226Y-135998102D01*
X150617205Y-135809744D01*
X150503937Y-135640226D01*
X150359774Y-135496063D01*
X150190256Y-135382795D01*
X150001898Y-135304774D01*
X149912924Y-135287076D01*
X149895226Y-135198102D01*
X149853788Y-135098061D01*
X155465000Y-135098061D01*
X155465000Y-135301939D01*
X155504774Y-135501898D01*
X155582795Y-135690256D01*
X155696063Y-135859774D01*
X155840226Y-136003937D01*
X156009744Y-136117205D01*
X156198102Y-136195226D01*
X156398061Y-136235000D01*
X156601939Y-136235000D01*
X156801898Y-136195226D01*
X156990256Y-136117205D01*
X157000000Y-136110694D01*
X157009744Y-136117205D01*
X157198102Y-136195226D01*
X157398061Y-136235000D01*
X157601939Y-136235000D01*
X157801898Y-136195226D01*
X157990256Y-136117205D01*
X158159774Y-136003937D01*
X158303937Y-135859774D01*
X158417205Y-135690256D01*
X158495226Y-135501898D01*
X158535000Y-135301939D01*
X158535000Y-135098061D01*
X158495226Y-134898102D01*
X158417205Y-134709744D01*
X158303937Y-134540226D01*
X158159774Y-134396063D01*
X157990256Y-134282795D01*
X157801898Y-134204774D01*
X157601939Y-134165000D01*
X157398061Y-134165000D01*
X157198102Y-134204774D01*
X157009744Y-134282795D01*
X157000000Y-134289306D01*
X156990256Y-134282795D01*
X156801898Y-134204774D01*
X156601939Y-134165000D01*
X156398061Y-134165000D01*
X156198102Y-134204774D01*
X156009744Y-134282795D01*
X155840226Y-134396063D01*
X155696063Y-134540226D01*
X155582795Y-134709744D01*
X155504774Y-134898102D01*
X155465000Y-135098061D01*
X149853788Y-135098061D01*
X149817205Y-135009744D01*
X149703937Y-134840226D01*
X149559774Y-134696063D01*
X149390256Y-134582795D01*
X149201898Y-134504774D01*
X149112924Y-134487076D01*
X149095226Y-134398102D01*
X149017205Y-134209744D01*
X148903937Y-134040226D01*
X148759774Y-133896063D01*
X148590256Y-133782795D01*
X148401898Y-133704774D01*
X148201939Y-133665000D01*
X147998061Y-133665000D01*
X147798102Y-133704774D01*
X147609744Y-133782795D01*
X147440226Y-133896063D01*
X147296063Y-134040226D01*
X147182795Y-134209744D01*
X147104774Y-134398102D01*
X147065000Y-134598061D01*
X138380260Y-134598061D01*
X138303603Y-134383708D01*
X138236671Y-134258486D01*
X137992702Y-134186903D01*
X137179605Y-135000000D01*
X136820395Y-135000000D01*
X136007298Y-134186903D01*
X135763329Y-134258486D01*
X135749676Y-134287341D01*
X135614637Y-134085241D01*
X135536694Y-134007298D01*
X136186903Y-134007298D01*
X137000000Y-134820395D01*
X137813097Y-134007298D01*
X137741514Y-133763329D01*
X137486004Y-133642429D01*
X137211816Y-133573700D01*
X136929488Y-133559783D01*
X136649870Y-133601213D01*
X136383708Y-133696397D01*
X136258486Y-133763329D01*
X136186903Y-134007298D01*
X135536694Y-134007298D01*
X135414759Y-133885363D01*
X135179727Y-133728320D01*
X134918574Y-133620147D01*
X134641335Y-133565000D01*
X134358665Y-133565000D01*
X134081426Y-133620147D01*
X133820273Y-133728320D01*
X133585241Y-133885363D01*
X133500000Y-133970604D01*
X133414759Y-133885363D01*
X133179727Y-133728320D01*
X132918574Y-133620147D01*
X132641335Y-133565000D01*
X132358665Y-133565000D01*
X132081426Y-133620147D01*
X131820273Y-133728320D01*
X131585241Y-133885363D01*
X131418661Y-134051943D01*
X131389502Y-133955820D01*
X131330537Y-133845506D01*
X131251185Y-133748815D01*
X131154494Y-133669463D01*
X131044180Y-133610498D01*
X130924482Y-133574188D01*
X130800000Y-133561928D01*
X129200000Y-133561928D01*
X129075518Y-133574188D01*
X128955820Y-133610498D01*
X128845506Y-133669463D01*
X128748815Y-133748815D01*
X128669463Y-133845506D01*
X128610498Y-133955820D01*
X128574188Y-134075518D01*
X128561928Y-134200000D01*
X119240542Y-134200000D01*
X119182012Y-134058698D01*
X118948363Y-133709017D01*
X118650983Y-133411637D01*
X118301302Y-133177988D01*
X117912756Y-133017047D01*
X117790366Y-132992702D01*
X119186903Y-132992702D01*
X119258486Y-133236671D01*
X119513996Y-133357571D01*
X119788184Y-133426300D01*
X120070512Y-133440217D01*
X120350130Y-133398787D01*
X120616292Y-133303603D01*
X120741514Y-133236671D01*
X120813097Y-132992702D01*
X120000000Y-132179605D01*
X119186903Y-132992702D01*
X117790366Y-132992702D01*
X117500279Y-132935000D01*
X117079721Y-132935000D01*
X116667244Y-133017047D01*
X116278698Y-133177988D01*
X115929017Y-133411637D01*
X115660000Y-133680654D01*
X115660000Y-132070512D01*
X118559783Y-132070512D01*
X118601213Y-132350130D01*
X118696397Y-132616292D01*
X118763329Y-132741514D01*
X119007298Y-132813097D01*
X119820395Y-132000000D01*
X120179605Y-132000000D01*
X120992702Y-132813097D01*
X121236671Y-132741514D01*
X121357571Y-132486004D01*
X121426300Y-132211816D01*
X121440217Y-131929488D01*
X121398787Y-131649870D01*
X121303603Y-131383708D01*
X121236671Y-131258486D01*
X120992702Y-131186903D01*
X120179605Y-132000000D01*
X119820395Y-132000000D01*
X119007298Y-131186903D01*
X118763329Y-131258486D01*
X118642429Y-131513996D01*
X118573700Y-131788184D01*
X118559783Y-132070512D01*
X115660000Y-132070512D01*
X115660000Y-124200000D01*
X118561928Y-124200000D01*
X118561928Y-125800000D01*
X118574188Y-125924482D01*
X118610498Y-126044180D01*
X118669463Y-126154494D01*
X118748815Y-126251185D01*
X118845506Y-126330537D01*
X118955820Y-126389502D01*
X119051943Y-126418661D01*
X118885363Y-126585241D01*
X118728320Y-126820273D01*
X118620147Y-127081426D01*
X118565000Y-127358665D01*
X118565000Y-127641335D01*
X118620147Y-127918574D01*
X118728320Y-128179727D01*
X118885363Y-128414759D01*
X118970604Y-128500000D01*
X118885363Y-128585241D01*
X118728320Y-128820273D01*
X118620147Y-129081426D01*
X118565000Y-129358665D01*
X118565000Y-129641335D01*
X118620147Y-129918574D01*
X118728320Y-130179727D01*
X118885363Y-130414759D01*
X119085241Y-130614637D01*
X119285869Y-130748692D01*
X119258486Y-130763329D01*
X119186903Y-131007298D01*
X120000000Y-131820395D01*
X120813097Y-131007298D01*
X120741514Y-130763329D01*
X120712659Y-130749676D01*
X120914759Y-130614637D01*
X121114637Y-130414759D01*
X121271680Y-130179727D01*
X121379853Y-129918574D01*
X121423716Y-129698061D01*
X147965000Y-129698061D01*
X147965000Y-129901939D01*
X148004774Y-130101898D01*
X148082795Y-130290256D01*
X148196063Y-130459774D01*
X148340226Y-130603937D01*
X148509744Y-130717205D01*
X148524357Y-130723258D01*
X148490226Y-130746063D01*
X148346063Y-130890226D01*
X148232795Y-131059744D01*
X148154774Y-131248102D01*
X148115000Y-131448061D01*
X148115000Y-131651939D01*
X148154774Y-131851898D01*
X148232795Y-132040256D01*
X148346063Y-132209774D01*
X148490226Y-132353937D01*
X148659744Y-132467205D01*
X148665000Y-132469382D01*
X148665000Y-132601939D01*
X148704774Y-132801898D01*
X148782795Y-132990256D01*
X148896063Y-133159774D01*
X149040226Y-133303937D01*
X149209744Y-133417205D01*
X149398102Y-133495226D01*
X149598061Y-133535000D01*
X149801939Y-133535000D01*
X149833513Y-133528720D01*
X149804774Y-133598102D01*
X149765000Y-133798061D01*
X149765000Y-134001939D01*
X149804774Y-134201898D01*
X149882795Y-134390256D01*
X149996063Y-134559774D01*
X150140226Y-134703937D01*
X150309744Y-134817205D01*
X150498102Y-134895226D01*
X150698061Y-134935000D01*
X150901939Y-134935000D01*
X151101898Y-134895226D01*
X151290256Y-134817205D01*
X151459774Y-134703937D01*
X151603937Y-134559774D01*
X151717205Y-134390256D01*
X151795226Y-134201898D01*
X151835000Y-134001939D01*
X151835000Y-133798061D01*
X151795226Y-133598102D01*
X151717205Y-133409744D01*
X151603937Y-133240226D01*
X151459774Y-133096063D01*
X151290256Y-132982795D01*
X151101898Y-132904774D01*
X150901939Y-132865000D01*
X150698061Y-132865000D01*
X150666487Y-132871280D01*
X150695226Y-132801898D01*
X150735000Y-132601939D01*
X150735000Y-132510804D01*
X150765763Y-132498061D01*
X160815000Y-132498061D01*
X160815000Y-132701939D01*
X160854774Y-132901898D01*
X160932795Y-133090256D01*
X161022828Y-133225000D01*
X160932795Y-133359744D01*
X160854774Y-133548102D01*
X160815000Y-133748061D01*
X160815000Y-133951939D01*
X160854774Y-134151898D01*
X160932795Y-134340256D01*
X161046063Y-134509774D01*
X161061289Y-134525000D01*
X161046063Y-134540226D01*
X160932795Y-134709744D01*
X160854774Y-134898102D01*
X160815000Y-135098061D01*
X160815000Y-135301939D01*
X160854774Y-135501898D01*
X160932795Y-135690256D01*
X161022828Y-135825000D01*
X160932795Y-135959744D01*
X160854774Y-136148102D01*
X160815000Y-136348061D01*
X160815000Y-136551939D01*
X160854774Y-136751898D01*
X160932795Y-136940256D01*
X161046063Y-137109774D01*
X161190226Y-137253937D01*
X161359744Y-137367205D01*
X161548102Y-137445226D01*
X161748061Y-137485000D01*
X161951939Y-137485000D01*
X162151898Y-137445226D01*
X162340256Y-137367205D01*
X162509774Y-137253937D01*
X162653937Y-137109774D01*
X162767205Y-136940256D01*
X162845226Y-136751898D01*
X162885000Y-136551939D01*
X162885000Y-136348061D01*
X162845226Y-136148102D01*
X162767205Y-135959744D01*
X162677172Y-135825000D01*
X162767205Y-135690256D01*
X162845226Y-135501898D01*
X162885000Y-135301939D01*
X162885000Y-135098061D01*
X162845226Y-134898102D01*
X162767205Y-134709744D01*
X162653937Y-134540226D01*
X162638711Y-134525000D01*
X162653937Y-134509774D01*
X162767205Y-134340256D01*
X162845226Y-134151898D01*
X162885000Y-133951939D01*
X162885000Y-133748061D01*
X162845226Y-133548102D01*
X162767205Y-133359744D01*
X162677172Y-133225000D01*
X162767205Y-133090256D01*
X162845226Y-132901898D01*
X162885000Y-132701939D01*
X162885000Y-132498061D01*
X162845226Y-132298102D01*
X162767205Y-132109744D01*
X162653937Y-131940226D01*
X162509774Y-131796063D01*
X162340256Y-131682795D01*
X162151898Y-131604774D01*
X161951939Y-131565000D01*
X161748061Y-131565000D01*
X161548102Y-131604774D01*
X161359744Y-131682795D01*
X161190226Y-131796063D01*
X161046063Y-131940226D01*
X160932795Y-132109744D01*
X160854774Y-132298102D01*
X160815000Y-132498061D01*
X150765763Y-132498061D01*
X150840256Y-132467205D01*
X151009774Y-132353937D01*
X151153937Y-132209774D01*
X151267205Y-132040256D01*
X151345226Y-131851898D01*
X151385000Y-131651939D01*
X151385000Y-131448061D01*
X151345226Y-131248102D01*
X151267205Y-131059744D01*
X151153937Y-130890226D01*
X151009774Y-130746063D01*
X150878420Y-130658296D01*
X150959774Y-130603937D01*
X151103937Y-130459774D01*
X151217205Y-130290256D01*
X151295226Y-130101898D01*
X151335000Y-129901939D01*
X151335000Y-129698061D01*
X151295226Y-129498102D01*
X151274499Y-129448061D01*
X162115000Y-129448061D01*
X162115000Y-129651939D01*
X162154774Y-129851898D01*
X162232795Y-130040256D01*
X162346063Y-130209774D01*
X162490226Y-130353937D01*
X162659744Y-130467205D01*
X162848102Y-130545226D01*
X163048061Y-130585000D01*
X163251939Y-130585000D01*
X163451898Y-130545226D01*
X163640256Y-130467205D01*
X163809774Y-130353937D01*
X163953937Y-130209774D01*
X164067205Y-130040256D01*
X164145226Y-129851898D01*
X164185000Y-129651939D01*
X164185000Y-129448061D01*
X164145226Y-129248102D01*
X164067205Y-129059744D01*
X163953937Y-128890226D01*
X163809774Y-128746063D01*
X163640256Y-128632795D01*
X163451898Y-128554774D01*
X163251939Y-128515000D01*
X163048061Y-128515000D01*
X162848102Y-128554774D01*
X162659744Y-128632795D01*
X162490226Y-128746063D01*
X162346063Y-128890226D01*
X162232795Y-129059744D01*
X162154774Y-129248102D01*
X162115000Y-129448061D01*
X151274499Y-129448061D01*
X151217205Y-129309744D01*
X151103937Y-129140226D01*
X150959774Y-128996063D01*
X150790256Y-128882795D01*
X150635000Y-128818485D01*
X150635000Y-128698061D01*
X150595226Y-128498102D01*
X150517205Y-128309744D01*
X150409173Y-128148061D01*
X155465000Y-128148061D01*
X155465000Y-128351939D01*
X155504774Y-128551898D01*
X155582795Y-128740256D01*
X155696063Y-128909774D01*
X155840226Y-129053937D01*
X156009744Y-129167205D01*
X156198102Y-129245226D01*
X156398061Y-129285000D01*
X156601939Y-129285000D01*
X156801898Y-129245226D01*
X156956092Y-129181356D01*
X157009744Y-129217205D01*
X157198102Y-129295226D01*
X157398061Y-129335000D01*
X157601939Y-129335000D01*
X157801898Y-129295226D01*
X157990256Y-129217205D01*
X158159774Y-129103937D01*
X158303937Y-128959774D01*
X158417205Y-128790256D01*
X158495226Y-128601898D01*
X158535000Y-128401939D01*
X158535000Y-128198061D01*
X158525055Y-128148061D01*
X160365000Y-128148061D01*
X160365000Y-128351939D01*
X160404774Y-128551898D01*
X160482795Y-128740256D01*
X160596063Y-128909774D01*
X160740226Y-129053937D01*
X160909744Y-129167205D01*
X161098102Y-129245226D01*
X161298061Y-129285000D01*
X161501939Y-129285000D01*
X161701898Y-129245226D01*
X161890256Y-129167205D01*
X162059774Y-129053937D01*
X162203937Y-128909774D01*
X162317205Y-128740256D01*
X162395226Y-128551898D01*
X162435000Y-128351939D01*
X162435000Y-128148061D01*
X162395226Y-127948102D01*
X162317205Y-127759744D01*
X162203937Y-127590226D01*
X162059774Y-127446063D01*
X161890256Y-127332795D01*
X161701898Y-127254774D01*
X161501939Y-127215000D01*
X161298061Y-127215000D01*
X161098102Y-127254774D01*
X160909744Y-127332795D01*
X160740226Y-127446063D01*
X160596063Y-127590226D01*
X160482795Y-127759744D01*
X160404774Y-127948102D01*
X160365000Y-128148061D01*
X158525055Y-128148061D01*
X158495226Y-127998102D01*
X158417205Y-127809744D01*
X158303937Y-127640226D01*
X158159774Y-127496063D01*
X157990256Y-127382795D01*
X157801898Y-127304774D01*
X157601939Y-127265000D01*
X157398061Y-127265000D01*
X157198102Y-127304774D01*
X157043908Y-127368644D01*
X156990256Y-127332795D01*
X156801898Y-127254774D01*
X156601939Y-127215000D01*
X156398061Y-127215000D01*
X156198102Y-127254774D01*
X156009744Y-127332795D01*
X155840226Y-127446063D01*
X155696063Y-127590226D01*
X155582795Y-127759744D01*
X155504774Y-127948102D01*
X155465000Y-128148061D01*
X150409173Y-128148061D01*
X150403937Y-128140226D01*
X150374042Y-128110331D01*
X150498061Y-128135000D01*
X150701939Y-128135000D01*
X150901898Y-128095226D01*
X151090256Y-128017205D01*
X151259774Y-127903937D01*
X151403937Y-127759774D01*
X151517205Y-127590256D01*
X151595226Y-127401898D01*
X151635000Y-127201939D01*
X151635000Y-126998061D01*
X151595226Y-126798102D01*
X151517205Y-126609744D01*
X151403937Y-126440226D01*
X151259774Y-126296063D01*
X151090256Y-126182795D01*
X150901898Y-126104774D01*
X150701939Y-126065000D01*
X150498061Y-126065000D01*
X150298102Y-126104774D01*
X150109744Y-126182795D01*
X149940226Y-126296063D01*
X149796063Y-126440226D01*
X149682795Y-126609744D01*
X149604774Y-126798102D01*
X149565000Y-126998061D01*
X149565000Y-127201939D01*
X149604774Y-127401898D01*
X149682795Y-127590256D01*
X149796063Y-127759774D01*
X149825958Y-127789669D01*
X149701939Y-127765000D01*
X149498061Y-127765000D01*
X149298102Y-127804774D01*
X149109744Y-127882795D01*
X148940226Y-127996063D01*
X148796063Y-128140226D01*
X148682795Y-128309744D01*
X148604774Y-128498102D01*
X148565000Y-128698061D01*
X148565000Y-128859907D01*
X148509744Y-128882795D01*
X148340226Y-128996063D01*
X148196063Y-129140226D01*
X148082795Y-129309744D01*
X148004774Y-129498102D01*
X147965000Y-129698061D01*
X121423716Y-129698061D01*
X121435000Y-129641335D01*
X121435000Y-129358665D01*
X121379853Y-129081426D01*
X121271680Y-128820273D01*
X121114637Y-128585241D01*
X121029396Y-128500000D01*
X121114637Y-128414759D01*
X121271680Y-128179727D01*
X121379853Y-127918574D01*
X121435000Y-127641335D01*
X121435000Y-127358665D01*
X121379853Y-127081426D01*
X121271680Y-126820273D01*
X121114637Y-126585241D01*
X120948057Y-126418661D01*
X121015965Y-126398061D01*
X146865000Y-126398061D01*
X146865000Y-126601939D01*
X146904774Y-126801898D01*
X146982795Y-126990256D01*
X147096063Y-127159774D01*
X147240226Y-127303937D01*
X147409744Y-127417205D01*
X147598102Y-127495226D01*
X147798061Y-127535000D01*
X148001939Y-127535000D01*
X148201898Y-127495226D01*
X148390256Y-127417205D01*
X148559774Y-127303937D01*
X148703937Y-127159774D01*
X148817205Y-126990256D01*
X148895226Y-126801898D01*
X148912924Y-126712924D01*
X149001898Y-126695226D01*
X149190256Y-126617205D01*
X149359774Y-126503937D01*
X149503937Y-126359774D01*
X149617205Y-126190256D01*
X149695226Y-126001898D01*
X149712924Y-125912924D01*
X149801898Y-125895226D01*
X149990256Y-125817205D01*
X150159774Y-125703937D01*
X150303937Y-125559774D01*
X150417205Y-125390256D01*
X150495226Y-125201898D01*
X150535000Y-125001939D01*
X150535000Y-124798061D01*
X150495226Y-124598102D01*
X150417205Y-124409744D01*
X150303937Y-124240226D01*
X150161772Y-124098061D01*
X158615000Y-124098061D01*
X158615000Y-124301939D01*
X158654774Y-124501898D01*
X158732795Y-124690256D01*
X158846063Y-124859774D01*
X158990226Y-125003937D01*
X159159744Y-125117205D01*
X159348102Y-125195226D01*
X159548061Y-125235000D01*
X159751939Y-125235000D01*
X159951898Y-125195226D01*
X160140256Y-125117205D01*
X160309774Y-125003937D01*
X160453937Y-124859774D01*
X160567205Y-124690256D01*
X160645226Y-124501898D01*
X160685000Y-124301939D01*
X160685000Y-124098061D01*
X160645226Y-123898102D01*
X160567205Y-123709744D01*
X160453937Y-123540226D01*
X160309774Y-123396063D01*
X160140256Y-123282795D01*
X159951898Y-123204774D01*
X159751939Y-123165000D01*
X159548061Y-123165000D01*
X159348102Y-123204774D01*
X159159744Y-123282795D01*
X158990226Y-123396063D01*
X158846063Y-123540226D01*
X158732795Y-123709744D01*
X158654774Y-123898102D01*
X158615000Y-124098061D01*
X150161772Y-124098061D01*
X150159774Y-124096063D01*
X149990256Y-123982795D01*
X149801898Y-123904774D01*
X149601939Y-123865000D01*
X149398061Y-123865000D01*
X149198102Y-123904774D01*
X149009744Y-123982795D01*
X148840226Y-124096063D01*
X148696063Y-124240226D01*
X148582795Y-124409744D01*
X148504774Y-124598102D01*
X148487076Y-124687076D01*
X148398102Y-124704774D01*
X148209744Y-124782795D01*
X148040226Y-124896063D01*
X147896063Y-125040226D01*
X147782795Y-125209744D01*
X147704774Y-125398102D01*
X147687076Y-125487076D01*
X147598102Y-125504774D01*
X147409744Y-125582795D01*
X147240226Y-125696063D01*
X147096063Y-125840226D01*
X146982795Y-126009744D01*
X146904774Y-126198102D01*
X146865000Y-126398061D01*
X121015965Y-126398061D01*
X121044180Y-126389502D01*
X121154494Y-126330537D01*
X121251185Y-126251185D01*
X121330537Y-126154494D01*
X121389502Y-126044180D01*
X121425812Y-125924482D01*
X121438072Y-125800000D01*
X121438072Y-124200000D01*
X121425812Y-124075518D01*
X121389502Y-123955820D01*
X121330537Y-123845506D01*
X121251185Y-123748815D01*
X121154494Y-123669463D01*
X121044180Y-123610498D01*
X120924482Y-123574188D01*
X120800000Y-123561928D01*
X119200000Y-123561928D01*
X119075518Y-123574188D01*
X118955820Y-123610498D01*
X118845506Y-123669463D01*
X118748815Y-123748815D01*
X118669463Y-123845506D01*
X118610498Y-123955820D01*
X118574188Y-124075518D01*
X118561928Y-124200000D01*
X115660000Y-124200000D01*
X115660000Y-123319346D01*
X115929017Y-123588363D01*
X116278698Y-123822012D01*
X116667244Y-123982953D01*
X117079721Y-124065000D01*
X117500279Y-124065000D01*
X117912756Y-123982953D01*
X118301302Y-123822012D01*
X118650983Y-123588363D01*
X118948363Y-123290983D01*
X119182012Y-122941302D01*
X119342953Y-122552756D01*
X119363778Y-122448061D01*
X128265000Y-122448061D01*
X128265000Y-122651939D01*
X128304774Y-122851898D01*
X128382795Y-123040256D01*
X128496063Y-123209774D01*
X128640226Y-123353937D01*
X128809744Y-123467205D01*
X128998102Y-123545226D01*
X129198061Y-123585000D01*
X129401939Y-123585000D01*
X129601898Y-123545226D01*
X129694204Y-123506991D01*
X129696063Y-123509774D01*
X129840226Y-123653937D01*
X130009744Y-123767205D01*
X130198102Y-123845226D01*
X130391196Y-123883634D01*
X130404774Y-123951898D01*
X130482795Y-124140256D01*
X130596063Y-124309774D01*
X130740226Y-124453937D01*
X130909744Y-124567205D01*
X131098102Y-124645226D01*
X131298061Y-124685000D01*
X131501939Y-124685000D01*
X131701898Y-124645226D01*
X131890256Y-124567205D01*
X132059774Y-124453937D01*
X132203937Y-124309774D01*
X132317205Y-124140256D01*
X132395226Y-123951898D01*
X132435000Y-123751939D01*
X132435000Y-123548061D01*
X132515000Y-123548061D01*
X132515000Y-123751939D01*
X132554774Y-123951898D01*
X132632795Y-124140256D01*
X132746063Y-124309774D01*
X132890226Y-124453937D01*
X133059744Y-124567205D01*
X133248102Y-124645226D01*
X133448061Y-124685000D01*
X133651939Y-124685000D01*
X133851898Y-124645226D01*
X134040256Y-124567205D01*
X134209774Y-124453937D01*
X134353937Y-124309774D01*
X134391704Y-124253251D01*
X134396063Y-124259774D01*
X134540226Y-124403937D01*
X134709744Y-124517205D01*
X134895606Y-124594192D01*
X134865000Y-124748061D01*
X134865000Y-124951939D01*
X134904774Y-125151898D01*
X134982795Y-125340256D01*
X135096063Y-125509774D01*
X135240226Y-125653937D01*
X135409744Y-125767205D01*
X135598102Y-125845226D01*
X135798061Y-125885000D01*
X136001939Y-125885000D01*
X136201898Y-125845226D01*
X136390256Y-125767205D01*
X136559774Y-125653937D01*
X136703937Y-125509774D01*
X136817205Y-125340256D01*
X136895226Y-125151898D01*
X136935000Y-124951939D01*
X136935000Y-124898061D01*
X144565000Y-124898061D01*
X144565000Y-125101939D01*
X144604774Y-125301898D01*
X144682795Y-125490256D01*
X144796063Y-125659774D01*
X144940226Y-125803937D01*
X145109744Y-125917205D01*
X145298102Y-125995226D01*
X145498061Y-126035000D01*
X145701939Y-126035000D01*
X145901898Y-125995226D01*
X146090256Y-125917205D01*
X146259774Y-125803937D01*
X146403937Y-125659774D01*
X146517205Y-125490256D01*
X146595226Y-125301898D01*
X146635000Y-125101939D01*
X146635000Y-124898061D01*
X146595226Y-124698102D01*
X146517205Y-124509744D01*
X146403937Y-124340226D01*
X146259774Y-124196063D01*
X146090256Y-124082795D01*
X145901898Y-124004774D01*
X145701939Y-123965000D01*
X145498061Y-123965000D01*
X145298102Y-124004774D01*
X145109744Y-124082795D01*
X144940226Y-124196063D01*
X144796063Y-124340226D01*
X144682795Y-124509744D01*
X144604774Y-124698102D01*
X144565000Y-124898061D01*
X136935000Y-124898061D01*
X136935000Y-124748061D01*
X136895226Y-124548102D01*
X136817205Y-124359744D01*
X136703937Y-124190226D01*
X136692231Y-124178520D01*
X136840256Y-124117205D01*
X137009774Y-124003937D01*
X137153937Y-123859774D01*
X137267205Y-123690256D01*
X137345226Y-123501898D01*
X137385000Y-123301939D01*
X137385000Y-123098061D01*
X137346782Y-122905924D01*
X137440256Y-122867205D01*
X137609774Y-122753937D01*
X137753937Y-122609774D01*
X137867205Y-122440256D01*
X137945226Y-122251898D01*
X137985000Y-122051939D01*
X137985000Y-121848061D01*
X137945226Y-121648102D01*
X137919625Y-121586296D01*
X138017205Y-121440256D01*
X138095226Y-121251898D01*
X138135000Y-121051939D01*
X138135000Y-120848061D01*
X138095226Y-120648102D01*
X138017205Y-120459744D01*
X137903937Y-120290226D01*
X137836551Y-120222840D01*
X137845226Y-120201898D01*
X137885000Y-120001939D01*
X137885000Y-119798061D01*
X137865109Y-119698061D01*
X138115000Y-119698061D01*
X138115000Y-119901939D01*
X138154774Y-120101898D01*
X138232795Y-120290256D01*
X138346063Y-120459774D01*
X138490226Y-120603937D01*
X138659744Y-120717205D01*
X138848102Y-120795226D01*
X139048061Y-120835000D01*
X139251939Y-120835000D01*
X139451898Y-120795226D01*
X139640256Y-120717205D01*
X139809774Y-120603937D01*
X139953937Y-120459774D01*
X140067205Y-120290256D01*
X140145226Y-120101898D01*
X140185000Y-119901939D01*
X140185000Y-119698061D01*
X140145226Y-119498102D01*
X140067205Y-119309744D01*
X139953937Y-119140226D01*
X139809774Y-118996063D01*
X139640256Y-118882795D01*
X139451898Y-118804774D01*
X139251939Y-118765000D01*
X139048061Y-118765000D01*
X138848102Y-118804774D01*
X138659744Y-118882795D01*
X138490226Y-118996063D01*
X138346063Y-119140226D01*
X138232795Y-119309744D01*
X138154774Y-119498102D01*
X138115000Y-119698061D01*
X137865109Y-119698061D01*
X137845226Y-119598102D01*
X137767205Y-119409744D01*
X137653937Y-119240226D01*
X137509774Y-119096063D01*
X137340256Y-118982795D01*
X137151898Y-118904774D01*
X136951939Y-118865000D01*
X136748061Y-118865000D01*
X136548102Y-118904774D01*
X136359744Y-118982795D01*
X136190226Y-119096063D01*
X136046063Y-119240226D01*
X135932795Y-119409744D01*
X135854774Y-119598102D01*
X135815000Y-119798061D01*
X135815000Y-120001939D01*
X135854774Y-120201898D01*
X135932795Y-120390256D01*
X136046063Y-120559774D01*
X136113449Y-120627160D01*
X136104774Y-120648102D01*
X136065000Y-120848061D01*
X136065000Y-121051939D01*
X136104774Y-121251898D01*
X136130375Y-121313704D01*
X136032795Y-121459744D01*
X135954774Y-121648102D01*
X135915000Y-121848061D01*
X135915000Y-122051939D01*
X135953218Y-122244076D01*
X135859744Y-122282795D01*
X135690226Y-122396063D01*
X135546063Y-122540226D01*
X135502709Y-122605110D01*
X135501898Y-122604774D01*
X135301939Y-122565000D01*
X135098061Y-122565000D01*
X134898102Y-122604774D01*
X134709744Y-122682795D01*
X134540226Y-122796063D01*
X134396063Y-122940226D01*
X134358296Y-122996749D01*
X134353937Y-122990226D01*
X134209774Y-122846063D01*
X134040256Y-122732795D01*
X133851898Y-122654774D01*
X133651939Y-122615000D01*
X133448061Y-122615000D01*
X133248102Y-122654774D01*
X133059744Y-122732795D01*
X132890226Y-122846063D01*
X132746063Y-122990226D01*
X132632795Y-123159744D01*
X132554774Y-123348102D01*
X132515000Y-123548061D01*
X132435000Y-123548061D01*
X132395226Y-123348102D01*
X132317205Y-123159744D01*
X132203937Y-122990226D01*
X132059774Y-122846063D01*
X131890256Y-122732795D01*
X131701898Y-122654774D01*
X131508804Y-122616366D01*
X131495226Y-122548102D01*
X131417205Y-122359744D01*
X131303937Y-122190226D01*
X131159774Y-122046063D01*
X130990256Y-121932795D01*
X130801898Y-121854774D01*
X130601939Y-121815000D01*
X130398061Y-121815000D01*
X130198102Y-121854774D01*
X130105796Y-121893009D01*
X130103937Y-121890226D01*
X129959774Y-121746063D01*
X129790256Y-121632795D01*
X129601898Y-121554774D01*
X129401939Y-121515000D01*
X129198061Y-121515000D01*
X128998102Y-121554774D01*
X128809744Y-121632795D01*
X128640226Y-121746063D01*
X128496063Y-121890226D01*
X128382795Y-122059744D01*
X128304774Y-122248102D01*
X128265000Y-122448061D01*
X119363778Y-122448061D01*
X119425000Y-122140279D01*
X119425000Y-121719721D01*
X119342953Y-121307244D01*
X119182012Y-120918698D01*
X118948363Y-120569017D01*
X118650983Y-120271637D01*
X118301302Y-120037988D01*
X117912756Y-119877047D01*
X117500279Y-119795000D01*
X117079721Y-119795000D01*
X116667244Y-119877047D01*
X116278698Y-120037988D01*
X115929017Y-120271637D01*
X115660000Y-120540654D01*
X115660000Y-119698061D01*
X125765000Y-119698061D01*
X125765000Y-119901939D01*
X125804774Y-120101898D01*
X125882795Y-120290256D01*
X125996063Y-120459774D01*
X126140226Y-120603937D01*
X126309744Y-120717205D01*
X126498102Y-120795226D01*
X126698061Y-120835000D01*
X126901939Y-120835000D01*
X127101898Y-120795226D01*
X127290256Y-120717205D01*
X127459774Y-120603937D01*
X127603937Y-120459774D01*
X127717205Y-120290256D01*
X127795226Y-120101898D01*
X127835000Y-119901939D01*
X127835000Y-119698061D01*
X127795226Y-119498102D01*
X127717205Y-119309744D01*
X127681468Y-119256259D01*
X127759774Y-119203937D01*
X127903937Y-119059774D01*
X128017205Y-118890256D01*
X128095226Y-118701898D01*
X128135000Y-118501939D01*
X128135000Y-118298061D01*
X128095226Y-118098102D01*
X128022722Y-117923061D01*
X142865000Y-117923061D01*
X142865000Y-118126939D01*
X142904774Y-118326898D01*
X142982795Y-118515256D01*
X143096063Y-118684774D01*
X143173789Y-118762500D01*
X143096063Y-118840226D01*
X142982795Y-119009744D01*
X142904774Y-119198102D01*
X142865000Y-119398061D01*
X142865000Y-119601939D01*
X142904774Y-119801898D01*
X142982795Y-119990256D01*
X143096063Y-120159774D01*
X143240226Y-120303937D01*
X143409744Y-120417205D01*
X143598102Y-120495226D01*
X143798061Y-120535000D01*
X144001939Y-120535000D01*
X144201898Y-120495226D01*
X144390256Y-120417205D01*
X144559774Y-120303937D01*
X144703937Y-120159774D01*
X144817205Y-119990256D01*
X144895226Y-119801898D01*
X144935000Y-119601939D01*
X144935000Y-119398061D01*
X144895226Y-119198102D01*
X144817205Y-119009744D01*
X144703937Y-118840226D01*
X144626211Y-118762500D01*
X144703937Y-118684774D01*
X144817205Y-118515256D01*
X144895226Y-118326898D01*
X144935000Y-118126939D01*
X144935000Y-117923061D01*
X144895226Y-117723102D01*
X144817205Y-117534744D01*
X144703937Y-117365226D01*
X144559774Y-117221063D01*
X144390256Y-117107795D01*
X144201898Y-117029774D01*
X144001939Y-116990000D01*
X143798061Y-116990000D01*
X143598102Y-117029774D01*
X143409744Y-117107795D01*
X143240226Y-117221063D01*
X143096063Y-117365226D01*
X142982795Y-117534744D01*
X142904774Y-117723102D01*
X142865000Y-117923061D01*
X128022722Y-117923061D01*
X128017205Y-117909744D01*
X127927172Y-117775000D01*
X128017205Y-117640256D01*
X128095226Y-117451898D01*
X128135000Y-117251939D01*
X128135000Y-117048061D01*
X128095226Y-116848102D01*
X128017205Y-116659744D01*
X127959599Y-116573531D01*
X128101898Y-116545226D01*
X128290256Y-116467205D01*
X128459774Y-116353937D01*
X128475000Y-116338711D01*
X128490226Y-116353937D01*
X128659744Y-116467205D01*
X128848102Y-116545226D01*
X129048061Y-116585000D01*
X129251939Y-116585000D01*
X129451898Y-116545226D01*
X129640256Y-116467205D01*
X129809774Y-116353937D01*
X129953937Y-116209774D01*
X130067205Y-116040256D01*
X130145226Y-115851898D01*
X130175825Y-115698061D01*
X149365000Y-115698061D01*
X149365000Y-115901939D01*
X149404774Y-116101898D01*
X149482795Y-116290256D01*
X149596063Y-116459774D01*
X149740226Y-116603937D01*
X149909744Y-116717205D01*
X150098102Y-116795226D01*
X150298061Y-116835000D01*
X150501939Y-116835000D01*
X150701898Y-116795226D01*
X150890256Y-116717205D01*
X151000000Y-116643877D01*
X151109744Y-116717205D01*
X151298102Y-116795226D01*
X151498061Y-116835000D01*
X151701939Y-116835000D01*
X151901898Y-116795226D01*
X152090256Y-116717205D01*
X152259774Y-116603937D01*
X152403937Y-116459774D01*
X152517205Y-116290256D01*
X152595226Y-116101898D01*
X152635000Y-115901939D01*
X152635000Y-115698061D01*
X152595226Y-115498102D01*
X152517205Y-115309744D01*
X152403937Y-115140226D01*
X152259774Y-114996063D01*
X152090256Y-114882795D01*
X151901898Y-114804774D01*
X151701939Y-114765000D01*
X151498061Y-114765000D01*
X151298102Y-114804774D01*
X151109744Y-114882795D01*
X151000000Y-114956123D01*
X150890256Y-114882795D01*
X150701898Y-114804774D01*
X150501939Y-114765000D01*
X150298061Y-114765000D01*
X150098102Y-114804774D01*
X149909744Y-114882795D01*
X149740226Y-114996063D01*
X149596063Y-115140226D01*
X149482795Y-115309744D01*
X149404774Y-115498102D01*
X149365000Y-115698061D01*
X130175825Y-115698061D01*
X130185000Y-115651939D01*
X130185000Y-115448061D01*
X130145226Y-115248102D01*
X130067205Y-115059744D01*
X130062712Y-115053020D01*
X130101898Y-115045226D01*
X130290256Y-114967205D01*
X130459774Y-114853937D01*
X130603937Y-114709774D01*
X130717205Y-114540256D01*
X130795226Y-114351898D01*
X130835000Y-114151939D01*
X130835000Y-113948061D01*
X130795226Y-113748102D01*
X130717205Y-113559744D01*
X130603937Y-113390226D01*
X130459774Y-113246063D01*
X130290256Y-113132795D01*
X130101898Y-113054774D01*
X129901939Y-113015000D01*
X129698061Y-113015000D01*
X129498102Y-113054774D01*
X129309744Y-113132795D01*
X129140226Y-113246063D01*
X128996063Y-113390226D01*
X128882795Y-113559744D01*
X128804774Y-113748102D01*
X128765000Y-113948061D01*
X128765000Y-114151939D01*
X128804774Y-114351898D01*
X128882795Y-114540256D01*
X128887288Y-114546980D01*
X128848102Y-114554774D01*
X128659744Y-114632795D01*
X128490226Y-114746063D01*
X128475000Y-114761289D01*
X128459774Y-114746063D01*
X128290256Y-114632795D01*
X128101898Y-114554774D01*
X127901939Y-114515000D01*
X127698061Y-114515000D01*
X127498102Y-114554774D01*
X127309744Y-114632795D01*
X127140226Y-114746063D01*
X126996063Y-114890226D01*
X126882795Y-115059744D01*
X126804774Y-115248102D01*
X126765000Y-115448061D01*
X126765000Y-115651939D01*
X126804774Y-115851898D01*
X126882795Y-116040256D01*
X126940401Y-116126469D01*
X126798102Y-116154774D01*
X126609744Y-116232795D01*
X126440226Y-116346063D01*
X126296063Y-116490226D01*
X126182795Y-116659744D01*
X126104774Y-116848102D01*
X126065000Y-117048061D01*
X126065000Y-117251939D01*
X126104774Y-117451898D01*
X126182795Y-117640256D01*
X126272828Y-117775000D01*
X126182795Y-117909744D01*
X126104774Y-118098102D01*
X126065000Y-118298061D01*
X126065000Y-118501939D01*
X126104774Y-118701898D01*
X126182795Y-118890256D01*
X126218532Y-118943741D01*
X126140226Y-118996063D01*
X125996063Y-119140226D01*
X125882795Y-119309744D01*
X125804774Y-119498102D01*
X125765000Y-119698061D01*
X115660000Y-119698061D01*
X115660000Y-116459346D01*
X115929017Y-116728363D01*
X116278698Y-116962012D01*
X116667244Y-117122953D01*
X117079721Y-117205000D01*
X117500279Y-117205000D01*
X117912756Y-117122953D01*
X118301302Y-116962012D01*
X118650983Y-116728363D01*
X118948363Y-116430983D01*
X119182012Y-116081302D01*
X119342953Y-115692756D01*
X119425000Y-115280279D01*
X119425000Y-114859721D01*
X119342953Y-114447244D01*
X119182012Y-114058698D01*
X118948363Y-113709017D01*
X118650983Y-113411637D01*
X118301302Y-113177988D01*
X117912756Y-113017047D01*
X117790366Y-112992702D01*
X119186903Y-112992702D01*
X119258486Y-113236671D01*
X119513996Y-113357571D01*
X119788184Y-113426300D01*
X120070512Y-113440217D01*
X120350130Y-113398787D01*
X120616292Y-113303603D01*
X120741514Y-113236671D01*
X120813097Y-112992702D01*
X120000000Y-112179605D01*
X119186903Y-112992702D01*
X117790366Y-112992702D01*
X117500279Y-112935000D01*
X117079721Y-112935000D01*
X116667244Y-113017047D01*
X116278698Y-113177988D01*
X115929017Y-113411637D01*
X115660000Y-113680654D01*
X115660000Y-112070512D01*
X118559783Y-112070512D01*
X118601213Y-112350130D01*
X118696397Y-112616292D01*
X118763329Y-112741514D01*
X119007298Y-112813097D01*
X119820395Y-112000000D01*
X120179605Y-112000000D01*
X120992702Y-112813097D01*
X121236671Y-112741514D01*
X121357571Y-112486004D01*
X121426300Y-112211816D01*
X121431907Y-112098061D01*
X131915000Y-112098061D01*
X131915000Y-112301939D01*
X131954774Y-112501898D01*
X132032795Y-112690256D01*
X132146063Y-112859774D01*
X132290226Y-113003937D01*
X132434445Y-113100301D01*
X132415000Y-113198061D01*
X132415000Y-113401939D01*
X132454774Y-113601898D01*
X132532795Y-113790256D01*
X132646063Y-113959774D01*
X132790226Y-114103937D01*
X132959744Y-114217205D01*
X133148102Y-114295226D01*
X133348061Y-114335000D01*
X133551939Y-114335000D01*
X133751898Y-114295226D01*
X133940256Y-114217205D01*
X134109774Y-114103937D01*
X134253937Y-113959774D01*
X134367205Y-113790256D01*
X134379177Y-113761353D01*
X134498061Y-113785000D01*
X134701939Y-113785000D01*
X134901898Y-113745226D01*
X135090256Y-113667205D01*
X135259774Y-113553937D01*
X135315650Y-113498061D01*
X142865000Y-113498061D01*
X142865000Y-113701939D01*
X142904774Y-113901898D01*
X142982795Y-114090256D01*
X143096063Y-114259774D01*
X143240226Y-114403937D01*
X143409744Y-114517205D01*
X143598102Y-114595226D01*
X143798061Y-114635000D01*
X144001939Y-114635000D01*
X144201898Y-114595226D01*
X144390256Y-114517205D01*
X144559774Y-114403937D01*
X144703937Y-114259774D01*
X144817205Y-114090256D01*
X144895226Y-113901898D01*
X144935000Y-113701939D01*
X144935000Y-113498061D01*
X144895226Y-113298102D01*
X144817205Y-113109744D01*
X144703937Y-112940226D01*
X144559774Y-112796063D01*
X144390256Y-112682795D01*
X144201898Y-112604774D01*
X144001939Y-112565000D01*
X143798061Y-112565000D01*
X143598102Y-112604774D01*
X143409744Y-112682795D01*
X143240226Y-112796063D01*
X143096063Y-112940226D01*
X142982795Y-113109744D01*
X142904774Y-113298102D01*
X142865000Y-113498061D01*
X135315650Y-113498061D01*
X135403937Y-113409774D01*
X135517205Y-113240256D01*
X135595226Y-113051898D01*
X135635000Y-112851939D01*
X135635000Y-112648061D01*
X135595226Y-112448102D01*
X135517205Y-112259744D01*
X135403937Y-112090226D01*
X135259774Y-111946063D01*
X135090256Y-111832795D01*
X134901898Y-111754774D01*
X134701939Y-111715000D01*
X134498061Y-111715000D01*
X134298102Y-111754774D01*
X134109744Y-111832795D01*
X133953060Y-111937487D01*
X133945226Y-111898102D01*
X133867205Y-111709744D01*
X133753937Y-111540226D01*
X133711772Y-111498061D01*
X153065000Y-111498061D01*
X153065000Y-111701939D01*
X153104774Y-111901898D01*
X153182795Y-112090256D01*
X153296063Y-112259774D01*
X153440226Y-112403937D01*
X153609744Y-112517205D01*
X153798102Y-112595226D01*
X153998061Y-112635000D01*
X154201939Y-112635000D01*
X154401898Y-112595226D01*
X154590256Y-112517205D01*
X154759774Y-112403937D01*
X154903937Y-112259774D01*
X155017205Y-112090256D01*
X155095226Y-111901898D01*
X155135000Y-111701939D01*
X155135000Y-111498061D01*
X155095226Y-111298102D01*
X155017205Y-111109744D01*
X154903937Y-110940226D01*
X154759774Y-110796063D01*
X154590256Y-110682795D01*
X154401898Y-110604774D01*
X154201939Y-110565000D01*
X153998061Y-110565000D01*
X153798102Y-110604774D01*
X153609744Y-110682795D01*
X153440226Y-110796063D01*
X153296063Y-110940226D01*
X153182795Y-111109744D01*
X153104774Y-111298102D01*
X153065000Y-111498061D01*
X133711772Y-111498061D01*
X133609774Y-111396063D01*
X133440256Y-111282795D01*
X133251898Y-111204774D01*
X133051939Y-111165000D01*
X132848061Y-111165000D01*
X132648102Y-111204774D01*
X132459744Y-111282795D01*
X132290226Y-111396063D01*
X132146063Y-111540226D01*
X132032795Y-111709744D01*
X131954774Y-111898102D01*
X131915000Y-112098061D01*
X121431907Y-112098061D01*
X121440217Y-111929488D01*
X121398787Y-111649870D01*
X121303603Y-111383708D01*
X121236671Y-111258486D01*
X120992702Y-111186903D01*
X120179605Y-112000000D01*
X119820395Y-112000000D01*
X119007298Y-111186903D01*
X118763329Y-111258486D01*
X118642429Y-111513996D01*
X118573700Y-111788184D01*
X118559783Y-112070512D01*
X115660000Y-112070512D01*
X115660000Y-104200000D01*
X118561928Y-104200000D01*
X118561928Y-105800000D01*
X118574188Y-105924482D01*
X118610498Y-106044180D01*
X118669463Y-106154494D01*
X118748815Y-106251185D01*
X118845506Y-106330537D01*
X118955820Y-106389502D01*
X119051943Y-106418661D01*
X118885363Y-106585241D01*
X118728320Y-106820273D01*
X118620147Y-107081426D01*
X118565000Y-107358665D01*
X118565000Y-107641335D01*
X118620147Y-107918574D01*
X118728320Y-108179727D01*
X118885363Y-108414759D01*
X118970604Y-108500000D01*
X118885363Y-108585241D01*
X118728320Y-108820273D01*
X118620147Y-109081426D01*
X118565000Y-109358665D01*
X118565000Y-109641335D01*
X118620147Y-109918574D01*
X118728320Y-110179727D01*
X118885363Y-110414759D01*
X119085241Y-110614637D01*
X119285869Y-110748692D01*
X119258486Y-110763329D01*
X119186903Y-111007298D01*
X120000000Y-111820395D01*
X120813097Y-111007298D01*
X120741514Y-110763329D01*
X120712659Y-110749676D01*
X120914759Y-110614637D01*
X121114637Y-110414759D01*
X121271680Y-110179727D01*
X121379853Y-109918574D01*
X121435000Y-109641335D01*
X121435000Y-109358665D01*
X121379853Y-109081426D01*
X121271680Y-108820273D01*
X121114637Y-108585241D01*
X121029396Y-108500000D01*
X121114637Y-108414759D01*
X121271680Y-108179727D01*
X121379853Y-107918574D01*
X121435000Y-107641335D01*
X121435000Y-107358665D01*
X121379853Y-107081426D01*
X121271680Y-106820273D01*
X121123204Y-106598061D01*
X150965000Y-106598061D01*
X150965000Y-106801939D01*
X151004774Y-107001898D01*
X151082795Y-107190256D01*
X151196063Y-107359774D01*
X151340226Y-107503937D01*
X151509744Y-107617205D01*
X151698102Y-107695226D01*
X151898061Y-107735000D01*
X152101939Y-107735000D01*
X152301898Y-107695226D01*
X152490256Y-107617205D01*
X152659774Y-107503937D01*
X152803937Y-107359774D01*
X152917205Y-107190256D01*
X152995226Y-107001898D01*
X153035000Y-106801939D01*
X153035000Y-106598061D01*
X152995226Y-106398102D01*
X152917205Y-106209744D01*
X152803937Y-106040226D01*
X152659774Y-105896063D01*
X152490256Y-105782795D01*
X152301898Y-105704774D01*
X152101939Y-105665000D01*
X151898061Y-105665000D01*
X151698102Y-105704774D01*
X151509744Y-105782795D01*
X151340226Y-105896063D01*
X151196063Y-106040226D01*
X151082795Y-106209744D01*
X151004774Y-106398102D01*
X150965000Y-106598061D01*
X121123204Y-106598061D01*
X121114637Y-106585241D01*
X120948057Y-106418661D01*
X121044180Y-106389502D01*
X121154494Y-106330537D01*
X121251185Y-106251185D01*
X121330537Y-106154494D01*
X121389502Y-106044180D01*
X121425812Y-105924482D01*
X121438072Y-105800000D01*
X121438072Y-104200000D01*
X121425812Y-104075518D01*
X121402316Y-103998061D01*
X149065000Y-103998061D01*
X149065000Y-104201939D01*
X149104774Y-104401898D01*
X149182795Y-104590256D01*
X149296063Y-104759774D01*
X149440226Y-104903937D01*
X149609744Y-105017205D01*
X149798102Y-105095226D01*
X149998061Y-105135000D01*
X150201939Y-105135000D01*
X150401898Y-105095226D01*
X150590256Y-105017205D01*
X150759774Y-104903937D01*
X150903937Y-104759774D01*
X151017205Y-104590256D01*
X151095226Y-104401898D01*
X151135000Y-104201939D01*
X151135000Y-103998061D01*
X151115109Y-103898061D01*
X152865000Y-103898061D01*
X152865000Y-104101939D01*
X152904774Y-104301898D01*
X152982795Y-104490256D01*
X153096063Y-104659774D01*
X153240226Y-104803937D01*
X153409744Y-104917205D01*
X153416348Y-104919941D01*
X153321063Y-105015226D01*
X153207795Y-105184744D01*
X153129774Y-105373102D01*
X153090000Y-105573061D01*
X153090000Y-105776939D01*
X153129774Y-105976898D01*
X153207795Y-106165256D01*
X153281123Y-106275000D01*
X153207795Y-106384744D01*
X153129774Y-106573102D01*
X153090000Y-106773061D01*
X153090000Y-106976939D01*
X153129774Y-107176898D01*
X153207795Y-107365256D01*
X153321063Y-107534774D01*
X153465226Y-107678937D01*
X153634744Y-107792205D01*
X153823102Y-107870226D01*
X154023061Y-107910000D01*
X154226939Y-107910000D01*
X154426898Y-107870226D01*
X154615256Y-107792205D01*
X154784774Y-107678937D01*
X154928937Y-107534774D01*
X155042205Y-107365256D01*
X155120226Y-107176898D01*
X155160000Y-106976939D01*
X155160000Y-106773061D01*
X155120226Y-106573102D01*
X155042205Y-106384744D01*
X154968877Y-106275000D01*
X155042205Y-106165256D01*
X155120226Y-105976898D01*
X155160000Y-105776939D01*
X155160000Y-105573061D01*
X155120226Y-105373102D01*
X155042205Y-105184744D01*
X154928937Y-105015226D01*
X154911627Y-104997916D01*
X155098061Y-105035000D01*
X155301939Y-105035000D01*
X155501898Y-104995226D01*
X155690256Y-104917205D01*
X155800000Y-104843877D01*
X155909744Y-104917205D01*
X156098102Y-104995226D01*
X156298061Y-105035000D01*
X156501939Y-105035000D01*
X156701898Y-104995226D01*
X156890256Y-104917205D01*
X157059774Y-104803937D01*
X157065650Y-104798061D01*
X161365000Y-104798061D01*
X161365000Y-105001939D01*
X161404774Y-105201898D01*
X161482795Y-105390256D01*
X161596063Y-105559774D01*
X161740226Y-105703937D01*
X161909744Y-105817205D01*
X162098102Y-105895226D01*
X162298061Y-105935000D01*
X162501939Y-105935000D01*
X162701898Y-105895226D01*
X162890256Y-105817205D01*
X163059774Y-105703937D01*
X163203937Y-105559774D01*
X163317205Y-105390256D01*
X163395226Y-105201898D01*
X163435000Y-105001939D01*
X163435000Y-104798061D01*
X163395226Y-104598102D01*
X163317205Y-104409744D01*
X163203937Y-104240226D01*
X163059774Y-104096063D01*
X162890256Y-103982795D01*
X162701898Y-103904774D01*
X162501939Y-103865000D01*
X162298061Y-103865000D01*
X162098102Y-103904774D01*
X161909744Y-103982795D01*
X161740226Y-104096063D01*
X161596063Y-104240226D01*
X161482795Y-104409744D01*
X161404774Y-104598102D01*
X161365000Y-104798061D01*
X157065650Y-104798061D01*
X157203937Y-104659774D01*
X157317205Y-104490256D01*
X157395226Y-104301898D01*
X157435000Y-104101939D01*
X157435000Y-103898061D01*
X157395226Y-103698102D01*
X157317205Y-103509744D01*
X157203937Y-103340226D01*
X157059774Y-103196063D01*
X156890256Y-103082795D01*
X156701898Y-103004774D01*
X156501939Y-102965000D01*
X156298061Y-102965000D01*
X156098102Y-103004774D01*
X155909744Y-103082795D01*
X155800000Y-103156123D01*
X155690256Y-103082795D01*
X155501898Y-103004774D01*
X155301939Y-102965000D01*
X155098061Y-102965000D01*
X154898102Y-103004774D01*
X154709744Y-103082795D01*
X154550000Y-103189532D01*
X154390256Y-103082795D01*
X154201898Y-103004774D01*
X154001939Y-102965000D01*
X153798061Y-102965000D01*
X153598102Y-103004774D01*
X153409744Y-103082795D01*
X153240226Y-103196063D01*
X153096063Y-103340226D01*
X152982795Y-103509744D01*
X152904774Y-103698102D01*
X152865000Y-103898061D01*
X151115109Y-103898061D01*
X151095226Y-103798102D01*
X151017205Y-103609744D01*
X150903937Y-103440226D01*
X150759774Y-103296063D01*
X150590256Y-103182795D01*
X150401898Y-103104774D01*
X150201939Y-103065000D01*
X149998061Y-103065000D01*
X149798102Y-103104774D01*
X149609744Y-103182795D01*
X149440226Y-103296063D01*
X149296063Y-103440226D01*
X149182795Y-103609744D01*
X149104774Y-103798102D01*
X149065000Y-103998061D01*
X121402316Y-103998061D01*
X121389502Y-103955820D01*
X121330537Y-103845506D01*
X121251185Y-103748815D01*
X121154494Y-103669463D01*
X121044180Y-103610498D01*
X120924482Y-103574188D01*
X120800000Y-103561928D01*
X119200000Y-103561928D01*
X119075518Y-103574188D01*
X118955820Y-103610498D01*
X118845506Y-103669463D01*
X118748815Y-103748815D01*
X118669463Y-103845506D01*
X118610498Y-103955820D01*
X118574188Y-104075518D01*
X118561928Y-104200000D01*
X115660000Y-104200000D01*
X115660000Y-103319346D01*
X115929017Y-103588363D01*
X116278698Y-103822012D01*
X116667244Y-103982953D01*
X117079721Y-104065000D01*
X117500279Y-104065000D01*
X117912756Y-103982953D01*
X118301302Y-103822012D01*
X118650983Y-103588363D01*
X118948363Y-103290983D01*
X119182012Y-102941302D01*
X119342953Y-102552756D01*
X119425000Y-102140279D01*
X119425000Y-101756891D01*
X138818519Y-101756891D01*
X138915843Y-102031252D01*
X139064822Y-102281355D01*
X139259731Y-102497588D01*
X139493080Y-102671641D01*
X139755901Y-102796825D01*
X139903110Y-102841476D01*
X140133000Y-102720155D01*
X140133000Y-101527000D01*
X138939186Y-101527000D01*
X138818519Y-101756891D01*
X119425000Y-101756891D01*
X119425000Y-101719721D01*
X119342953Y-101307244D01*
X119233545Y-101043109D01*
X138818519Y-101043109D01*
X138939186Y-101273000D01*
X140133000Y-101273000D01*
X140133000Y-100079845D01*
X140387000Y-100079845D01*
X140387000Y-101273000D01*
X140407000Y-101273000D01*
X140407000Y-101527000D01*
X140387000Y-101527000D01*
X140387000Y-102720155D01*
X140616890Y-102841476D01*
X140764099Y-102796825D01*
X141026920Y-102671641D01*
X141260269Y-102497588D01*
X141455178Y-102281355D01*
X141524805Y-102164466D01*
X141646525Y-102346632D01*
X141853368Y-102553475D01*
X142096589Y-102715990D01*
X142366842Y-102827932D01*
X142653740Y-102885000D01*
X142946260Y-102885000D01*
X143233158Y-102827932D01*
X143503411Y-102715990D01*
X143746632Y-102553475D01*
X143953475Y-102346632D01*
X144070000Y-102172240D01*
X144186525Y-102346632D01*
X144393368Y-102553475D01*
X144636589Y-102715990D01*
X144906842Y-102827932D01*
X145193740Y-102885000D01*
X145486260Y-102885000D01*
X145773158Y-102827932D01*
X146043411Y-102715990D01*
X146286632Y-102553475D01*
X146418487Y-102421620D01*
X146440498Y-102494180D01*
X146499463Y-102604494D01*
X146578815Y-102701185D01*
X146675506Y-102780537D01*
X146785820Y-102839502D01*
X146905518Y-102875812D01*
X147030000Y-102888072D01*
X148730000Y-102888072D01*
X148854482Y-102875812D01*
X148974180Y-102839502D01*
X149084494Y-102780537D01*
X149181185Y-102701185D01*
X149260537Y-102604494D01*
X149319502Y-102494180D01*
X149355812Y-102374482D01*
X149368072Y-102250000D01*
X149368072Y-101198061D01*
X150965000Y-101198061D01*
X150965000Y-101401939D01*
X151004774Y-101601898D01*
X151082795Y-101790256D01*
X151196063Y-101959774D01*
X151340226Y-102103937D01*
X151509744Y-102217205D01*
X151698102Y-102295226D01*
X151898061Y-102335000D01*
X152101939Y-102335000D01*
X152301898Y-102295226D01*
X152490256Y-102217205D01*
X152659774Y-102103937D01*
X152803937Y-101959774D01*
X152917205Y-101790256D01*
X152995226Y-101601898D01*
X153035000Y-101401939D01*
X153035000Y-101198061D01*
X152995226Y-100998102D01*
X152917205Y-100809744D01*
X152803937Y-100640226D01*
X152659774Y-100496063D01*
X152490256Y-100382795D01*
X152301898Y-100304774D01*
X152101939Y-100265000D01*
X151898061Y-100265000D01*
X151698102Y-100304774D01*
X151509744Y-100382795D01*
X151340226Y-100496063D01*
X151196063Y-100640226D01*
X151082795Y-100809744D01*
X151004774Y-100998102D01*
X150965000Y-101198061D01*
X149368072Y-101198061D01*
X149368072Y-100550000D01*
X149355812Y-100425518D01*
X149319502Y-100305820D01*
X149260537Y-100195506D01*
X149181185Y-100098815D01*
X149084494Y-100019463D01*
X148974180Y-99960498D01*
X148854482Y-99924188D01*
X148730000Y-99911928D01*
X147030000Y-99911928D01*
X146905518Y-99924188D01*
X146785820Y-99960498D01*
X146675506Y-100019463D01*
X146578815Y-100098815D01*
X146499463Y-100195506D01*
X146440498Y-100305820D01*
X146418487Y-100378380D01*
X146286632Y-100246525D01*
X146043411Y-100084010D01*
X145773158Y-99972068D01*
X145486260Y-99915000D01*
X145193740Y-99915000D01*
X144906842Y-99972068D01*
X144636589Y-100084010D01*
X144393368Y-100246525D01*
X144186525Y-100453368D01*
X144070000Y-100627760D01*
X143953475Y-100453368D01*
X143746632Y-100246525D01*
X143503411Y-100084010D01*
X143233158Y-99972068D01*
X142946260Y-99915000D01*
X142653740Y-99915000D01*
X142366842Y-99972068D01*
X142096589Y-100084010D01*
X141853368Y-100246525D01*
X141646525Y-100453368D01*
X141524805Y-100635534D01*
X141455178Y-100518645D01*
X141260269Y-100302412D01*
X141026920Y-100128359D01*
X140764099Y-100003175D01*
X140616890Y-99958524D01*
X140387000Y-100079845D01*
X140133000Y-100079845D01*
X139903110Y-99958524D01*
X139755901Y-100003175D01*
X139493080Y-100128359D01*
X139259731Y-100302412D01*
X139064822Y-100518645D01*
X138915843Y-100768748D01*
X138818519Y-101043109D01*
X119233545Y-101043109D01*
X119182012Y-100918698D01*
X118948363Y-100569017D01*
X118650983Y-100271637D01*
X118301302Y-100037988D01*
X117912756Y-99877047D01*
X117500279Y-99795000D01*
X117079721Y-99795000D01*
X116667244Y-99877047D01*
X116278698Y-100037988D01*
X115929017Y-100271637D01*
X115660000Y-100540654D01*
X115660000Y-98829117D01*
X119265000Y-98829117D01*
X119265000Y-99170883D01*
X119331675Y-99506081D01*
X119462463Y-99821831D01*
X119652337Y-100105998D01*
X119894002Y-100347663D01*
X120178169Y-100537537D01*
X120493919Y-100668325D01*
X120829117Y-100735000D01*
X121170883Y-100735000D01*
X121506081Y-100668325D01*
X121821831Y-100537537D01*
X122105998Y-100347663D01*
X122347663Y-100105998D01*
X122537537Y-99821831D01*
X122668325Y-99506081D01*
X122735000Y-99170883D01*
X122735000Y-98829117D01*
X122668325Y-98493919D01*
X122537537Y-98178169D01*
X122347663Y-97894002D01*
X122105998Y-97652337D01*
X121821831Y-97462463D01*
X121506081Y-97331675D01*
X121170883Y-97265000D01*
X120829117Y-97265000D01*
X120493919Y-97331675D01*
X120178169Y-97462463D01*
X119894002Y-97652337D01*
X119652337Y-97894002D01*
X119462463Y-98178169D01*
X119331675Y-98493919D01*
X119265000Y-98829117D01*
X115660000Y-98829117D01*
X115660000Y-95992702D01*
X121686903Y-95992702D01*
X121758486Y-96236671D01*
X122013996Y-96357571D01*
X122288184Y-96426300D01*
X122570512Y-96440217D01*
X122850130Y-96398787D01*
X123116292Y-96303603D01*
X123241514Y-96236671D01*
X123313097Y-95992702D01*
X122500000Y-95179605D01*
X121686903Y-95992702D01*
X115660000Y-95992702D01*
X115660000Y-95070512D01*
X121059783Y-95070512D01*
X121101213Y-95350130D01*
X121196397Y-95616292D01*
X121263329Y-95741514D01*
X121507298Y-95813097D01*
X122320395Y-95000000D01*
X122679605Y-95000000D01*
X123492702Y-95813097D01*
X123736671Y-95741514D01*
X123750324Y-95712659D01*
X123885363Y-95914759D01*
X124085241Y-96114637D01*
X124320273Y-96271680D01*
X124581426Y-96379853D01*
X124858665Y-96435000D01*
X125141335Y-96435000D01*
X125418574Y-96379853D01*
X125679727Y-96271680D01*
X125914759Y-96114637D01*
X126000000Y-96029396D01*
X126085241Y-96114637D01*
X126320273Y-96271680D01*
X126581426Y-96379853D01*
X126858665Y-96435000D01*
X127141335Y-96435000D01*
X127418574Y-96379853D01*
X127679727Y-96271680D01*
X127914759Y-96114637D01*
X128081339Y-95948057D01*
X128110498Y-96044180D01*
X128169463Y-96154494D01*
X128248815Y-96251185D01*
X128345506Y-96330537D01*
X128455820Y-96389502D01*
X128575518Y-96425812D01*
X128700000Y-96438072D01*
X130300000Y-96438072D01*
X130424482Y-96425812D01*
X130544180Y-96389502D01*
X130654494Y-96330537D01*
X130721670Y-96275407D01*
X152065000Y-96275407D01*
X152087210Y-96500912D01*
X152174983Y-96790260D01*
X152317519Y-97056926D01*
X152509339Y-97290661D01*
X152743073Y-97482481D01*
X153009739Y-97625017D01*
X153299087Y-97712790D01*
X153600000Y-97742427D01*
X153900912Y-97712790D01*
X154190260Y-97625017D01*
X154456926Y-97482481D01*
X154690661Y-97290661D01*
X154765064Y-97200000D01*
X155561928Y-97200000D01*
X155561928Y-99000000D01*
X155574188Y-99124482D01*
X155610498Y-99244180D01*
X155669463Y-99354494D01*
X155748815Y-99451185D01*
X155845506Y-99530537D01*
X155955820Y-99589502D01*
X155989495Y-99599717D01*
X155982795Y-99609744D01*
X155904774Y-99798102D01*
X155865000Y-99998061D01*
X155865000Y-100201939D01*
X155904774Y-100401898D01*
X155982795Y-100590256D01*
X156096063Y-100759774D01*
X156240226Y-100903937D01*
X156409744Y-101017205D01*
X156598102Y-101095226D01*
X156798061Y-101135000D01*
X157001939Y-101135000D01*
X157201898Y-101095226D01*
X157390256Y-101017205D01*
X157559774Y-100903937D01*
X157600000Y-100863711D01*
X157640226Y-100903937D01*
X157809744Y-101017205D01*
X157998102Y-101095226D01*
X158198061Y-101135000D01*
X158401939Y-101135000D01*
X158601898Y-101095226D01*
X158790256Y-101017205D01*
X158950000Y-100910468D01*
X159109744Y-101017205D01*
X159298102Y-101095226D01*
X159498061Y-101135000D01*
X159701939Y-101135000D01*
X159901898Y-101095226D01*
X160090256Y-101017205D01*
X160259774Y-100903937D01*
X160403937Y-100759774D01*
X160517205Y-100590256D01*
X160595226Y-100401898D01*
X160635000Y-100201939D01*
X160635000Y-99998061D01*
X160595226Y-99798102D01*
X160528939Y-99638072D01*
X160600000Y-99638072D01*
X160724482Y-99625812D01*
X160844180Y-99589502D01*
X160954494Y-99530537D01*
X161051185Y-99451185D01*
X161130537Y-99354494D01*
X161189502Y-99244180D01*
X161225812Y-99124482D01*
X161238072Y-99000000D01*
X161238072Y-97200000D01*
X161225812Y-97075518D01*
X161189502Y-96955820D01*
X161130537Y-96845506D01*
X161051185Y-96748815D01*
X160954494Y-96669463D01*
X160844180Y-96610498D01*
X160724482Y-96574188D01*
X160600000Y-96561928D01*
X156200000Y-96561928D01*
X156075518Y-96574188D01*
X155955820Y-96610498D01*
X155845506Y-96669463D01*
X155748815Y-96748815D01*
X155669463Y-96845506D01*
X155610498Y-96955820D01*
X155574188Y-97075518D01*
X155561928Y-97200000D01*
X154765064Y-97200000D01*
X154882481Y-97056927D01*
X155025017Y-96790261D01*
X155112790Y-96500913D01*
X155135000Y-96275408D01*
X155135000Y-93924592D01*
X155112790Y-93699087D01*
X155025017Y-93409739D01*
X154882481Y-93143073D01*
X154690661Y-92909339D01*
X154456927Y-92717519D01*
X154358185Y-92664740D01*
X155808964Y-92664740D01*
X155833245Y-92770087D01*
X155953138Y-93047204D01*
X156124790Y-93295606D01*
X156341604Y-93505748D01*
X156595249Y-93669554D01*
X156875977Y-93780729D01*
X157173000Y-93835000D01*
X158273000Y-93835000D01*
X158273000Y-92427000D01*
X158527000Y-92427000D01*
X158527000Y-93835000D01*
X159627000Y-93835000D01*
X159924023Y-93780729D01*
X160204751Y-93669554D01*
X160458396Y-93505748D01*
X160675210Y-93295606D01*
X160846862Y-93047204D01*
X160966755Y-92770087D01*
X160991036Y-92664740D01*
X160870378Y-92427000D01*
X158527000Y-92427000D01*
X158273000Y-92427000D01*
X155929622Y-92427000D01*
X155808964Y-92664740D01*
X154358185Y-92664740D01*
X154190261Y-92574983D01*
X153900913Y-92487210D01*
X153600000Y-92457573D01*
X153299088Y-92487210D01*
X153009740Y-92574983D01*
X152743074Y-92717519D01*
X152509340Y-92909339D01*
X152317520Y-93143073D01*
X152174984Y-93409739D01*
X152087211Y-93699087D01*
X152065001Y-93924592D01*
X152065000Y-96275407D01*
X130721670Y-96275407D01*
X130751185Y-96251185D01*
X130830537Y-96154494D01*
X130889502Y-96044180D01*
X130925812Y-95924482D01*
X130938072Y-95800000D01*
X130938072Y-94200000D01*
X130925812Y-94075518D01*
X130889502Y-93955820D01*
X130830537Y-93845506D01*
X130751185Y-93748815D01*
X130654494Y-93669463D01*
X130544180Y-93610498D01*
X130424482Y-93574188D01*
X130300000Y-93561928D01*
X128700000Y-93561928D01*
X128575518Y-93574188D01*
X128455820Y-93610498D01*
X128345506Y-93669463D01*
X128248815Y-93748815D01*
X128169463Y-93845506D01*
X128110498Y-93955820D01*
X128081339Y-94051943D01*
X127914759Y-93885363D01*
X127679727Y-93728320D01*
X127418574Y-93620147D01*
X127141335Y-93565000D01*
X126858665Y-93565000D01*
X126581426Y-93620147D01*
X126320273Y-93728320D01*
X126085241Y-93885363D01*
X126000000Y-93970604D01*
X125914759Y-93885363D01*
X125679727Y-93728320D01*
X125418574Y-93620147D01*
X125141335Y-93565000D01*
X124858665Y-93565000D01*
X124581426Y-93620147D01*
X124320273Y-93728320D01*
X124085241Y-93885363D01*
X123885363Y-94085241D01*
X123751308Y-94285869D01*
X123736671Y-94258486D01*
X123492702Y-94186903D01*
X122679605Y-95000000D01*
X122320395Y-95000000D01*
X121507298Y-94186903D01*
X121263329Y-94258486D01*
X121142429Y-94513996D01*
X121073700Y-94788184D01*
X121059783Y-95070512D01*
X115660000Y-95070512D01*
X115660000Y-95029392D01*
X115731173Y-94231917D01*
X115934656Y-93488109D01*
X116266638Y-92792095D01*
X116716626Y-92165870D01*
X117270403Y-91629223D01*
X117440002Y-91515257D01*
X117377047Y-91667244D01*
X117295000Y-92079721D01*
X117295000Y-92500279D01*
X117377047Y-92912756D01*
X117537988Y-93301302D01*
X117771637Y-93650983D01*
X118069017Y-93948363D01*
X118418698Y-94182012D01*
X118807244Y-94342953D01*
X119219721Y-94425000D01*
X119640279Y-94425000D01*
X120052756Y-94342953D01*
X120441302Y-94182012D01*
X120702780Y-94007298D01*
X121686903Y-94007298D01*
X122500000Y-94820395D01*
X123313097Y-94007298D01*
X123241514Y-93763329D01*
X122986004Y-93642429D01*
X122711816Y-93573700D01*
X122429488Y-93559783D01*
X122149870Y-93601213D01*
X121883708Y-93696397D01*
X121758486Y-93763329D01*
X121686903Y-94007298D01*
X120702780Y-94007298D01*
X120790983Y-93948363D01*
X121088363Y-93650983D01*
X121322012Y-93301302D01*
X121482953Y-92912756D01*
X121565000Y-92500279D01*
X121565000Y-92079721D01*
X121482953Y-91667244D01*
X121322012Y-91278698D01*
X121088363Y-90929017D01*
X120819346Y-90660000D01*
X131180654Y-90660000D01*
X130911637Y-90929017D01*
M02*
