G04 #@! TF.GenerationSoftware,KiCad,Pcbnew,5.1.5+dfsg1-2build2*
G04 #@! TF.CreationDate,2021-06-26T08:25:30+02:00*
G04 #@! TF.ProjectId,usb_switch,7573625f-7377-4697-9463-682e6b696361,rev?*
G04 #@! TF.SameCoordinates,Original*
G04 #@! TF.FileFunction,Copper,L4,Bot*
G04 #@! TF.FilePolarity,Positive*
%FSLAX46Y46*%
G04 Gerber Fmt 4.6, Leading zero omitted, Abs format (unit mm)*
G04 Created by KiCad (PCBNEW 5.1.5+dfsg1-2build2) date 2021-06-26 08:25:30*
%MOMM*%
%LPD*%
G04 APERTURE LIST*
%ADD10C,0.100000*%
%ADD11C,1.600000*%
%ADD12R,1.600000X1.600000*%
%ADD13C,3.000000*%
%ADD14O,1.700000X1.700000*%
%ADD15R,1.700000X1.700000*%
%ADD16O,1.800000X4.000000*%
%ADD17O,4.000000X1.800000*%
%ADD18R,4.400000X1.800000*%
%ADD19C,0.800000*%
%ADD20C,1.000000*%
%ADD21C,0.254000*%
%ADD22C,0.600000*%
%ADD23C,0.450000*%
%ADD24C,0.200000*%
G04 APERTURE END LIST*
D10*
G36*
X116900000Y-131450000D02*
G01*
X117400000Y-131450000D01*
X117400000Y-132050000D01*
X116900000Y-132050000D01*
X116900000Y-131450000D01*
G37*
G36*
X123050000Y-91850000D02*
G01*
X123050000Y-92350000D01*
X122450000Y-92350000D01*
X122450000Y-91850000D01*
X123050000Y-91850000D01*
G37*
G36*
X116850000Y-111450000D02*
G01*
X117350000Y-111450000D01*
X117350000Y-112050000D01*
X116850000Y-112050000D01*
X116850000Y-111450000D01*
G37*
G36*
X136450000Y-138250000D02*
G01*
X136450000Y-137750000D01*
X137050000Y-137750000D01*
X137050000Y-138250000D01*
X136450000Y-138250000D01*
G37*
D11*
X120000000Y-112000000D03*
X120000000Y-109500000D03*
X120000000Y-107500000D03*
D12*
X120000000Y-105000000D03*
D13*
X117290000Y-101930000D03*
X117290000Y-115070000D03*
D11*
X120000000Y-132000000D03*
X120000000Y-129500000D03*
X120000000Y-127500000D03*
D12*
X120000000Y-125000000D03*
D13*
X117290000Y-121930000D03*
X117290000Y-135070000D03*
D11*
X122500000Y-95000000D03*
X125000000Y-95000000D03*
X127000000Y-95000000D03*
D12*
X129500000Y-95000000D03*
D13*
X132570000Y-92290000D03*
X119430000Y-92290000D03*
D11*
X137000000Y-135000000D03*
X134500000Y-135000000D03*
X132500000Y-135000000D03*
D12*
X130000000Y-135000000D03*
D13*
X126930000Y-137710000D03*
X140070000Y-137710000D03*
D14*
X163400000Y-111520000D03*
X160860000Y-111520000D03*
X163400000Y-114060000D03*
X160860000Y-114060000D03*
X163400000Y-116600000D03*
X160860000Y-116600000D03*
X163400000Y-119140000D03*
X160860000Y-119140000D03*
X163400000Y-121680000D03*
D15*
X160860000Y-121680000D03*
D16*
X153600000Y-95100000D03*
D17*
X158400000Y-92300000D03*
D18*
X158400000Y-98100000D03*
D15*
X147880000Y-101400000D03*
D14*
X145340000Y-101400000D03*
X142800000Y-101400000D03*
X140260000Y-101400000D03*
G04 #@! TA.AperFunction,SMDPad,CuDef*
D10*
G36*
X116500000Y-132499398D02*
G01*
X116475466Y-132499398D01*
X116426635Y-132494588D01*
X116378510Y-132485016D01*
X116331555Y-132470772D01*
X116286222Y-132451995D01*
X116242949Y-132428864D01*
X116202150Y-132401604D01*
X116164221Y-132370476D01*
X116129524Y-132335779D01*
X116098396Y-132297850D01*
X116071136Y-132257051D01*
X116048005Y-132213778D01*
X116029228Y-132168445D01*
X116014984Y-132121490D01*
X116005412Y-132073365D01*
X116000602Y-132024534D01*
X116000602Y-132000000D01*
X116000000Y-132000000D01*
X116000000Y-131500000D01*
X116000602Y-131500000D01*
X116000602Y-131475466D01*
X116005412Y-131426635D01*
X116014984Y-131378510D01*
X116029228Y-131331555D01*
X116048005Y-131286222D01*
X116071136Y-131242949D01*
X116098396Y-131202150D01*
X116129524Y-131164221D01*
X116164221Y-131129524D01*
X116202150Y-131098396D01*
X116242949Y-131071136D01*
X116286222Y-131048005D01*
X116331555Y-131029228D01*
X116378510Y-131014984D01*
X116426635Y-131005412D01*
X116475466Y-131000602D01*
X116500000Y-131000602D01*
X116500000Y-131000000D01*
X117000000Y-131000000D01*
X117000000Y-132500000D01*
X116500000Y-132500000D01*
X116500000Y-132499398D01*
G37*
G04 #@! TD.AperFunction*
G04 #@! TA.AperFunction,SMDPad,CuDef*
G36*
X117300000Y-131000000D02*
G01*
X117800000Y-131000000D01*
X117800000Y-131000602D01*
X117824534Y-131000602D01*
X117873365Y-131005412D01*
X117921490Y-131014984D01*
X117968445Y-131029228D01*
X118013778Y-131048005D01*
X118057051Y-131071136D01*
X118097850Y-131098396D01*
X118135779Y-131129524D01*
X118170476Y-131164221D01*
X118201604Y-131202150D01*
X118228864Y-131242949D01*
X118251995Y-131286222D01*
X118270772Y-131331555D01*
X118285016Y-131378510D01*
X118294588Y-131426635D01*
X118299398Y-131475466D01*
X118299398Y-131500000D01*
X118300000Y-131500000D01*
X118300000Y-132000000D01*
X118299398Y-132000000D01*
X118299398Y-132024534D01*
X118294588Y-132073365D01*
X118285016Y-132121490D01*
X118270772Y-132168445D01*
X118251995Y-132213778D01*
X118228864Y-132257051D01*
X118201604Y-132297850D01*
X118170476Y-132335779D01*
X118135779Y-132370476D01*
X118097850Y-132401604D01*
X118057051Y-132428864D01*
X118013778Y-132451995D01*
X117968445Y-132470772D01*
X117921490Y-132485016D01*
X117873365Y-132494588D01*
X117824534Y-132499398D01*
X117800000Y-132499398D01*
X117800000Y-132500000D01*
X117300000Y-132500000D01*
X117300000Y-131000000D01*
G37*
G04 #@! TD.AperFunction*
G04 #@! TA.AperFunction,SMDPad,CuDef*
G36*
X122000602Y-91450000D02*
G01*
X122000602Y-91425466D01*
X122005412Y-91376635D01*
X122014984Y-91328510D01*
X122029228Y-91281555D01*
X122048005Y-91236222D01*
X122071136Y-91192949D01*
X122098396Y-91152150D01*
X122129524Y-91114221D01*
X122164221Y-91079524D01*
X122202150Y-91048396D01*
X122242949Y-91021136D01*
X122286222Y-90998005D01*
X122331555Y-90979228D01*
X122378510Y-90964984D01*
X122426635Y-90955412D01*
X122475466Y-90950602D01*
X122500000Y-90950602D01*
X122500000Y-90950000D01*
X123000000Y-90950000D01*
X123000000Y-90950602D01*
X123024534Y-90950602D01*
X123073365Y-90955412D01*
X123121490Y-90964984D01*
X123168445Y-90979228D01*
X123213778Y-90998005D01*
X123257051Y-91021136D01*
X123297850Y-91048396D01*
X123335779Y-91079524D01*
X123370476Y-91114221D01*
X123401604Y-91152150D01*
X123428864Y-91192949D01*
X123451995Y-91236222D01*
X123470772Y-91281555D01*
X123485016Y-91328510D01*
X123494588Y-91376635D01*
X123499398Y-91425466D01*
X123499398Y-91450000D01*
X123500000Y-91450000D01*
X123500000Y-91950000D01*
X122000000Y-91950000D01*
X122000000Y-91450000D01*
X122000602Y-91450000D01*
G37*
G04 #@! TD.AperFunction*
G04 #@! TA.AperFunction,SMDPad,CuDef*
G36*
X123500000Y-92250000D02*
G01*
X123500000Y-92750000D01*
X123499398Y-92750000D01*
X123499398Y-92774534D01*
X123494588Y-92823365D01*
X123485016Y-92871490D01*
X123470772Y-92918445D01*
X123451995Y-92963778D01*
X123428864Y-93007051D01*
X123401604Y-93047850D01*
X123370476Y-93085779D01*
X123335779Y-93120476D01*
X123297850Y-93151604D01*
X123257051Y-93178864D01*
X123213778Y-93201995D01*
X123168445Y-93220772D01*
X123121490Y-93235016D01*
X123073365Y-93244588D01*
X123024534Y-93249398D01*
X123000000Y-93249398D01*
X123000000Y-93250000D01*
X122500000Y-93250000D01*
X122500000Y-93249398D01*
X122475466Y-93249398D01*
X122426635Y-93244588D01*
X122378510Y-93235016D01*
X122331555Y-93220772D01*
X122286222Y-93201995D01*
X122242949Y-93178864D01*
X122202150Y-93151604D01*
X122164221Y-93120476D01*
X122129524Y-93085779D01*
X122098396Y-93047850D01*
X122071136Y-93007051D01*
X122048005Y-92963778D01*
X122029228Y-92918445D01*
X122014984Y-92871490D01*
X122005412Y-92823365D01*
X122000602Y-92774534D01*
X122000602Y-92750000D01*
X122000000Y-92750000D01*
X122000000Y-92250000D01*
X123500000Y-92250000D01*
G37*
G04 #@! TD.AperFunction*
G04 #@! TA.AperFunction,SMDPad,CuDef*
G36*
X117250000Y-111000000D02*
G01*
X117750000Y-111000000D01*
X117750000Y-111000602D01*
X117774534Y-111000602D01*
X117823365Y-111005412D01*
X117871490Y-111014984D01*
X117918445Y-111029228D01*
X117963778Y-111048005D01*
X118007051Y-111071136D01*
X118047850Y-111098396D01*
X118085779Y-111129524D01*
X118120476Y-111164221D01*
X118151604Y-111202150D01*
X118178864Y-111242949D01*
X118201995Y-111286222D01*
X118220772Y-111331555D01*
X118235016Y-111378510D01*
X118244588Y-111426635D01*
X118249398Y-111475466D01*
X118249398Y-111500000D01*
X118250000Y-111500000D01*
X118250000Y-112000000D01*
X118249398Y-112000000D01*
X118249398Y-112024534D01*
X118244588Y-112073365D01*
X118235016Y-112121490D01*
X118220772Y-112168445D01*
X118201995Y-112213778D01*
X118178864Y-112257051D01*
X118151604Y-112297850D01*
X118120476Y-112335779D01*
X118085779Y-112370476D01*
X118047850Y-112401604D01*
X118007051Y-112428864D01*
X117963778Y-112451995D01*
X117918445Y-112470772D01*
X117871490Y-112485016D01*
X117823365Y-112494588D01*
X117774534Y-112499398D01*
X117750000Y-112499398D01*
X117750000Y-112500000D01*
X117250000Y-112500000D01*
X117250000Y-111000000D01*
G37*
G04 #@! TD.AperFunction*
G04 #@! TA.AperFunction,SMDPad,CuDef*
G36*
X116450000Y-112499398D02*
G01*
X116425466Y-112499398D01*
X116376635Y-112494588D01*
X116328510Y-112485016D01*
X116281555Y-112470772D01*
X116236222Y-112451995D01*
X116192949Y-112428864D01*
X116152150Y-112401604D01*
X116114221Y-112370476D01*
X116079524Y-112335779D01*
X116048396Y-112297850D01*
X116021136Y-112257051D01*
X115998005Y-112213778D01*
X115979228Y-112168445D01*
X115964984Y-112121490D01*
X115955412Y-112073365D01*
X115950602Y-112024534D01*
X115950602Y-112000000D01*
X115950000Y-112000000D01*
X115950000Y-111500000D01*
X115950602Y-111500000D01*
X115950602Y-111475466D01*
X115955412Y-111426635D01*
X115964984Y-111378510D01*
X115979228Y-111331555D01*
X115998005Y-111286222D01*
X116021136Y-111242949D01*
X116048396Y-111202150D01*
X116079524Y-111164221D01*
X116114221Y-111129524D01*
X116152150Y-111098396D01*
X116192949Y-111071136D01*
X116236222Y-111048005D01*
X116281555Y-111029228D01*
X116328510Y-111014984D01*
X116376635Y-111005412D01*
X116425466Y-111000602D01*
X116450000Y-111000602D01*
X116450000Y-111000000D01*
X116950000Y-111000000D01*
X116950000Y-112500000D01*
X116450000Y-112500000D01*
X116450000Y-112499398D01*
G37*
G04 #@! TD.AperFunction*
G04 #@! TA.AperFunction,SMDPad,CuDef*
G36*
X137499398Y-138650000D02*
G01*
X137499398Y-138674534D01*
X137494588Y-138723365D01*
X137485016Y-138771490D01*
X137470772Y-138818445D01*
X137451995Y-138863778D01*
X137428864Y-138907051D01*
X137401604Y-138947850D01*
X137370476Y-138985779D01*
X137335779Y-139020476D01*
X137297850Y-139051604D01*
X137257051Y-139078864D01*
X137213778Y-139101995D01*
X137168445Y-139120772D01*
X137121490Y-139135016D01*
X137073365Y-139144588D01*
X137024534Y-139149398D01*
X137000000Y-139149398D01*
X137000000Y-139150000D01*
X136500000Y-139150000D01*
X136500000Y-139149398D01*
X136475466Y-139149398D01*
X136426635Y-139144588D01*
X136378510Y-139135016D01*
X136331555Y-139120772D01*
X136286222Y-139101995D01*
X136242949Y-139078864D01*
X136202150Y-139051604D01*
X136164221Y-139020476D01*
X136129524Y-138985779D01*
X136098396Y-138947850D01*
X136071136Y-138907051D01*
X136048005Y-138863778D01*
X136029228Y-138818445D01*
X136014984Y-138771490D01*
X136005412Y-138723365D01*
X136000602Y-138674534D01*
X136000602Y-138650000D01*
X136000000Y-138650000D01*
X136000000Y-138150000D01*
X137500000Y-138150000D01*
X137500000Y-138650000D01*
X137499398Y-138650000D01*
G37*
G04 #@! TD.AperFunction*
G04 #@! TA.AperFunction,SMDPad,CuDef*
G36*
X136000000Y-137850000D02*
G01*
X136000000Y-137350000D01*
X136000602Y-137350000D01*
X136000602Y-137325466D01*
X136005412Y-137276635D01*
X136014984Y-137228510D01*
X136029228Y-137181555D01*
X136048005Y-137136222D01*
X136071136Y-137092949D01*
X136098396Y-137052150D01*
X136129524Y-137014221D01*
X136164221Y-136979524D01*
X136202150Y-136948396D01*
X136242949Y-136921136D01*
X136286222Y-136898005D01*
X136331555Y-136879228D01*
X136378510Y-136864984D01*
X136426635Y-136855412D01*
X136475466Y-136850602D01*
X136500000Y-136850602D01*
X136500000Y-136850000D01*
X137000000Y-136850000D01*
X137000000Y-136850602D01*
X137024534Y-136850602D01*
X137073365Y-136855412D01*
X137121490Y-136864984D01*
X137168445Y-136879228D01*
X137213778Y-136898005D01*
X137257051Y-136921136D01*
X137297850Y-136948396D01*
X137335779Y-136979524D01*
X137370476Y-137014221D01*
X137401604Y-137052150D01*
X137428864Y-137092949D01*
X137451995Y-137136222D01*
X137470772Y-137181555D01*
X137485016Y-137228510D01*
X137494588Y-137276635D01*
X137499398Y-137325466D01*
X137499398Y-137350000D01*
X137500000Y-137350000D01*
X137500000Y-137850000D01*
X136000000Y-137850000D01*
G37*
G04 #@! TD.AperFunction*
D19*
X121650000Y-121750000D03*
X157500000Y-127000000D03*
X143900000Y-115075000D03*
X143900000Y-116550000D03*
X143900000Y-120975000D03*
X143900000Y-122450000D03*
X143900000Y-123925000D03*
X156500000Y-127000000D03*
X156500000Y-133900000D03*
X157500000Y-133900000D03*
X130100000Y-128050000D03*
X131600000Y-128050000D03*
X133100000Y-128050000D03*
X134600000Y-128050000D03*
X121700000Y-122800000D03*
X121700000Y-103000000D03*
X123000000Y-101700000D03*
X122800000Y-118600000D03*
X122800000Y-117100000D03*
X141700000Y-106100000D03*
X141700000Y-104300000D03*
X151000000Y-108800000D03*
X151000000Y-110000000D03*
X149500000Y-95500000D03*
X150700000Y-97000000D03*
X140600000Y-96200000D03*
X140500000Y-99200000D03*
X126900000Y-133400000D03*
X128100000Y-133400000D03*
X132700000Y-98000000D03*
X131400000Y-99300000D03*
X126700000Y-111050000D03*
X126700000Y-109550000D03*
X126700000Y-112550000D03*
X141450000Y-134600000D03*
X141200000Y-128100000D03*
X141300000Y-130700000D03*
X162800000Y-100200000D03*
X162800000Y-99000000D03*
X156400000Y-105800000D03*
X156400000Y-107000000D03*
X157600000Y-108600000D03*
X131200000Y-117600000D03*
X132200000Y-117600000D03*
X133200000Y-117600000D03*
X131200000Y-118600000D03*
X132200000Y-118600000D03*
X131200000Y-119600000D03*
X126500000Y-115550000D03*
X135700000Y-112200000D03*
X137300000Y-112250000D03*
X136500000Y-112850000D03*
X149200000Y-112400000D03*
X149200000Y-111200000D03*
X150500000Y-117500000D03*
X156500000Y-128250000D03*
X156500000Y-135200000D03*
X150800000Y-133900000D03*
X150600000Y-127100000D03*
X157500000Y-128300000D03*
X157500000Y-135200000D03*
X158300000Y-100100000D03*
X159600000Y-100100000D03*
X156900000Y-100100000D03*
X162400000Y-104900000D03*
X143900000Y-119500000D03*
X143900000Y-118025000D03*
X143900000Y-113600000D03*
X145600000Y-125000000D03*
X152000000Y-101300000D03*
X126800000Y-119800000D03*
X129300000Y-122550000D03*
X135900000Y-124850000D03*
X154100000Y-111600000D03*
X153900000Y-104000000D03*
X156400000Y-104000000D03*
X150100000Y-104100000D03*
X152000000Y-106700000D03*
X155200000Y-104000000D03*
X154125000Y-105675000D03*
X154125000Y-106875000D03*
X129800000Y-114050000D03*
X139150000Y-119800000D03*
X134600000Y-112750000D03*
X149600000Y-128800000D03*
X149000000Y-129800000D03*
X150300000Y-129800000D03*
X147900000Y-126500000D03*
X148700000Y-125700000D03*
X149500000Y-124900000D03*
X148100000Y-134700000D03*
X148900000Y-135500000D03*
X149700000Y-136300000D03*
X149700000Y-132500000D03*
X149150000Y-131550000D03*
X150350000Y-131550000D03*
X159650000Y-124200000D03*
X130500000Y-122850000D03*
X163550000Y-127016666D03*
X131400000Y-123650000D03*
X133550000Y-123650000D03*
X163150000Y-129550000D03*
X135200000Y-123600000D03*
X161400000Y-128250000D03*
X161850000Y-132600000D03*
X136350000Y-123200000D03*
X161850000Y-133850000D03*
X136950000Y-121950000D03*
X137100000Y-120950000D03*
X161850000Y-136450000D03*
X136850000Y-119900000D03*
X161850000Y-135200000D03*
X132950000Y-112200000D03*
X133450000Y-113300000D03*
X150400000Y-115800000D03*
X127800000Y-115550000D03*
X151600000Y-115800000D03*
X129150000Y-115550000D03*
X127100000Y-118400000D03*
X127100000Y-117150000D03*
D20*
X136750000Y-135250000D02*
X137000000Y-135000000D01*
X136750000Y-137350000D02*
X136750000Y-135250000D01*
X119750000Y-131750000D02*
X120000000Y-132000000D01*
X117800000Y-131750000D02*
X119750000Y-131750000D01*
X119750000Y-111750000D02*
X120000000Y-112000000D01*
X117750000Y-111750000D02*
X119750000Y-111750000D01*
X122750000Y-94750000D02*
X122500000Y-95000000D01*
X122750000Y-92750000D02*
X122750000Y-94750000D01*
D21*
X163400000Y-121680000D02*
X162120000Y-120400000D01*
X162120000Y-120400000D02*
X159600000Y-120400000D01*
D22*
X147880000Y-104630000D02*
X147880000Y-101400000D01*
X151000000Y-107750000D02*
X147880000Y-104630000D01*
X151282002Y-107750000D02*
X151000000Y-107750000D01*
X152500001Y-108967999D02*
X151282002Y-107750000D01*
X152500001Y-113500001D02*
X152500001Y-108967999D01*
X159400000Y-120400000D02*
X152500001Y-113500001D01*
X159600000Y-120400000D02*
X159400000Y-120400000D01*
D21*
X162200000Y-115400000D02*
X157900000Y-115400000D01*
X157900000Y-115400000D02*
X154100000Y-111600000D01*
X163400000Y-116600000D02*
X162200000Y-115400000D01*
D20*
X116500000Y-134280000D02*
X116500000Y-131750000D01*
X117290000Y-135070000D02*
X116500000Y-134280000D01*
X116500000Y-122720000D02*
X117290000Y-121930000D01*
X116500000Y-131750000D02*
X116500000Y-122720000D01*
X120270000Y-91450000D02*
X122750000Y-91450000D01*
X119430000Y-92290000D02*
X120270000Y-91450000D01*
X131730000Y-91450000D02*
X132570000Y-92290000D01*
X122750000Y-91450000D02*
X131730000Y-91450000D01*
X116450000Y-114230000D02*
X116450000Y-111750000D01*
X117290000Y-115070000D02*
X116450000Y-114230000D01*
X116450000Y-102770000D02*
X117290000Y-101930000D01*
X116450000Y-111750000D02*
X116450000Y-102770000D01*
X126930000Y-137710000D02*
X133910000Y-137710000D01*
X134850000Y-138650000D02*
X136750000Y-138650000D01*
X133910000Y-137710000D02*
X134850000Y-138650000D01*
X139130000Y-138650000D02*
X140070000Y-137710000D01*
X136750000Y-138650000D02*
X139130000Y-138650000D01*
D21*
X149000000Y-113800000D02*
X149000000Y-117200000D01*
X149000000Y-117200000D02*
X155400000Y-124200000D01*
X155400000Y-124200000D02*
X159650000Y-124200000D01*
X146691980Y-111491980D02*
X149000000Y-113800000D01*
X142023886Y-111491980D02*
X146691980Y-111491980D01*
X130500000Y-123015866D02*
X142023886Y-111491980D01*
X130500000Y-122850000D02*
X130500000Y-123015866D01*
X148000000Y-114400000D02*
X148000000Y-118000000D01*
X148000000Y-118000000D02*
X155000000Y-125000000D01*
X161533334Y-125000000D02*
X163550000Y-127016666D01*
X155000000Y-125000000D02*
X161533334Y-125000000D01*
X131400000Y-123650000D02*
X131400000Y-122757934D01*
X145545990Y-111945990D02*
X148000000Y-114400000D01*
X142211943Y-111945990D02*
X145545990Y-111945990D01*
X131400000Y-122757934D02*
X142211943Y-111945990D01*
X133550000Y-123650000D02*
X133550000Y-121250000D01*
X133550000Y-121250000D02*
X142400000Y-112400000D01*
X160600000Y-126000000D02*
X163150000Y-128550000D01*
X147000000Y-118600000D02*
X154400000Y-126000000D01*
X154400000Y-126000000D02*
X160600000Y-126000000D01*
X163150000Y-128550000D02*
X163150000Y-129550000D01*
X147000000Y-114544236D02*
X147000000Y-118600000D01*
X144874753Y-112418989D02*
X147000000Y-114544236D01*
X142618989Y-112418989D02*
X144874753Y-112418989D01*
X142600000Y-112400000D02*
X142618989Y-112418989D01*
X142400000Y-112400000D02*
X142600000Y-112400000D01*
X156000000Y-130000000D02*
X159650000Y-130000000D01*
X146200000Y-114824038D02*
X146200000Y-120200000D01*
X159650000Y-130000000D02*
X161400000Y-128250000D01*
X144248961Y-112872999D02*
X146200000Y-114824038D01*
X146200000Y-120200000D02*
X156000000Y-130000000D01*
X142727001Y-112872999D02*
X144248961Y-112872999D01*
X135200000Y-120400000D02*
X142727001Y-112872999D01*
X135200000Y-123600000D02*
X135200000Y-120400000D01*
D23*
X145549990Y-131269242D02*
X145549990Y-134649990D01*
X137480748Y-123200000D02*
X145549990Y-131269242D01*
X145549990Y-134649990D02*
X149350000Y-138450000D01*
X149350000Y-138450000D02*
X162600000Y-138450000D01*
X163750010Y-137299990D02*
X163750010Y-133300010D01*
X162600000Y-138450000D02*
X163750010Y-137299990D01*
X163750010Y-133300010D02*
X163050000Y-132600000D01*
X163050000Y-132600000D02*
X161850000Y-132600000D01*
X137480748Y-123200000D02*
X136350000Y-123200000D01*
X162650000Y-133850000D02*
X161850000Y-133850000D01*
X163100000Y-136750000D02*
X163100000Y-134300000D01*
X163100000Y-134300000D02*
X162650000Y-133850000D01*
X162250000Y-137600000D02*
X163100000Y-136750000D01*
X152230748Y-137600000D02*
X162250000Y-137600000D01*
X146200000Y-131569252D02*
X152230748Y-137600000D01*
X146200000Y-131000000D02*
X146200000Y-131569252D01*
X137000000Y-121800000D02*
X146200000Y-131000000D01*
X137221002Y-120800000D02*
X147471002Y-131050000D01*
X137000000Y-120800000D02*
X137221002Y-120800000D01*
X147471002Y-131050000D02*
X147471002Y-131921002D01*
X147471002Y-131921002D02*
X152400000Y-136850000D01*
X152400000Y-136850000D02*
X161450000Y-136850000D01*
X161450000Y-136850000D02*
X161850000Y-136450000D01*
X137565685Y-119800000D02*
X148390686Y-130625001D01*
X137000000Y-119800000D02*
X137565685Y-119800000D01*
X148390686Y-130625001D02*
X150696001Y-130625001D01*
X150696001Y-130625001D02*
X156171000Y-136100000D01*
X156171000Y-136100000D02*
X160800000Y-136100000D01*
X160800000Y-136100000D02*
X161650000Y-135250000D01*
D24*
X132300000Y-112850000D02*
X132875000Y-112275000D01*
X144295000Y-102445000D02*
X145340000Y-101400000D01*
X140808243Y-108432521D02*
X140875000Y-108425000D01*
X140744834Y-108454709D02*
X140808243Y-108432521D01*
X140687953Y-108490450D02*
X140744834Y-108454709D01*
X140640450Y-108537953D02*
X140687953Y-108490450D01*
X140575000Y-108958242D02*
X140575000Y-108725000D01*
X140567478Y-109024998D02*
X140575000Y-108958242D01*
X140545290Y-109088407D02*
X140567478Y-109024998D01*
X140509549Y-109145288D02*
X140545290Y-109088407D01*
X140144834Y-109228532D02*
X140208243Y-109250720D01*
X144295000Y-105723200D02*
X144295000Y-102445000D01*
X140087953Y-109192791D02*
X140144834Y-109228532D01*
X139975000Y-108958242D02*
X139982521Y-109024998D01*
X139975000Y-108725000D02*
X139975000Y-108958242D01*
X141593200Y-108425000D02*
X144295000Y-105723200D01*
X139967478Y-108658243D02*
X139975000Y-108725000D01*
X140875000Y-108425000D02*
X141593200Y-108425000D01*
X139909549Y-108537953D02*
X139945290Y-108594834D01*
X140604709Y-108594834D02*
X140640450Y-108537953D01*
X140582521Y-108658243D02*
X140604709Y-108594834D01*
X139862046Y-108490450D02*
X139909549Y-108537953D01*
X139805165Y-108454709D02*
X139862046Y-108490450D01*
X139487953Y-108490450D02*
X139544834Y-108454709D01*
X139404709Y-108594834D02*
X139440450Y-108537953D01*
X139375000Y-108725000D02*
X139382521Y-108658243D01*
X138175000Y-108958242D02*
X138175000Y-108725000D01*
X139345290Y-109088407D02*
X139367478Y-109024998D01*
X139367478Y-109024998D02*
X139375000Y-108958242D01*
X138145290Y-109088407D02*
X138167478Y-109024998D01*
X137575000Y-108958242D02*
X137582521Y-109024998D01*
X137941756Y-109250720D02*
X138005165Y-109228532D01*
X139675000Y-108425000D02*
X139741756Y-108432521D01*
X138062046Y-109192791D02*
X138109549Y-109145288D01*
X140208243Y-109250720D02*
X140275000Y-109258242D01*
X137687953Y-109192791D02*
X137744834Y-109228532D01*
X137582521Y-109024998D02*
X137604709Y-109088407D01*
X137640450Y-109145288D02*
X137687953Y-109192791D01*
X139205165Y-109228532D02*
X139262046Y-109192791D01*
X137604709Y-109088407D02*
X137640450Y-109145288D01*
X138167478Y-109024998D02*
X138175000Y-108958242D01*
X138240450Y-108537953D02*
X138287953Y-108490450D01*
X138887953Y-109192791D02*
X138944834Y-109228532D01*
X138767478Y-108658243D02*
X138775000Y-108725000D01*
X138709549Y-108537953D02*
X138745290Y-108594834D01*
X139008243Y-109250720D02*
X139075000Y-109258242D01*
X131725000Y-112656800D02*
X131725000Y-110143200D01*
X137875000Y-109258242D02*
X137941756Y-109250720D01*
X140575000Y-108725000D02*
X140582521Y-108658243D01*
X139382521Y-108658243D02*
X139404709Y-108594834D01*
X138541756Y-108432521D02*
X138605165Y-108454709D01*
X137808243Y-109250720D02*
X137875000Y-109258242D01*
X137405165Y-108454709D02*
X137462046Y-108490450D01*
X139075000Y-109258242D02*
X139141756Y-109250720D01*
X138005165Y-109228532D02*
X138062046Y-109192791D01*
X137341756Y-108432521D02*
X137405165Y-108454709D01*
X137509549Y-108537953D02*
X137545290Y-108594834D01*
X137545290Y-108594834D02*
X137567478Y-108658243D01*
X138109549Y-109145288D02*
X138145290Y-109088407D01*
X139741756Y-108432521D02*
X139805165Y-108454709D01*
X137744834Y-109228532D02*
X137808243Y-109250720D01*
X140341756Y-109250720D02*
X140405165Y-109228532D01*
X137575000Y-108725000D02*
X137575000Y-108958242D01*
X139608243Y-108432521D02*
X139675000Y-108425000D01*
X137275000Y-108425000D02*
X137341756Y-108432521D01*
X137567478Y-108658243D02*
X137575000Y-108725000D01*
X138408243Y-108432521D02*
X138475000Y-108425000D01*
X138840450Y-109145288D02*
X138887953Y-109192791D01*
X138804709Y-109088407D02*
X138840450Y-109145288D01*
X140462046Y-109192791D02*
X140509549Y-109145288D01*
X140275000Y-109258242D02*
X140341756Y-109250720D01*
X138287953Y-108490450D02*
X138344834Y-108454709D01*
X133443200Y-108425000D02*
X137275000Y-108425000D01*
X131918200Y-112850000D02*
X131725000Y-112656800D01*
X140004709Y-109088407D02*
X140040450Y-109145288D01*
X138175000Y-108725000D02*
X138182521Y-108658243D01*
X138182521Y-108658243D02*
X138204709Y-108594834D01*
X132300000Y-112850000D02*
X131918200Y-112850000D01*
X138475000Y-108425000D02*
X138541756Y-108432521D01*
X139544834Y-108454709D02*
X139608243Y-108432521D01*
X138204709Y-108594834D02*
X138240450Y-108537953D01*
X137462046Y-108490450D02*
X137509549Y-108537953D01*
X138344834Y-108454709D02*
X138408243Y-108432521D01*
X140040450Y-109145288D02*
X140087953Y-109192791D01*
X138605165Y-108454709D02*
X138662046Y-108490450D01*
X138662046Y-108490450D02*
X138709549Y-108537953D01*
X138745290Y-108594834D02*
X138767478Y-108658243D01*
X138775000Y-108725000D02*
X138775000Y-108958242D01*
X139440450Y-108537953D02*
X139487953Y-108490450D01*
X138775000Y-108958242D02*
X138782521Y-109024998D01*
X131725000Y-110143200D02*
X133443200Y-108425000D01*
X138782521Y-109024998D02*
X138804709Y-109088407D01*
X139982521Y-109024998D02*
X140004709Y-109088407D01*
X138944834Y-109228532D02*
X139008243Y-109250720D01*
X139141756Y-109250720D02*
X139205165Y-109228532D01*
X140405165Y-109228532D02*
X140462046Y-109192791D01*
X139945290Y-108594834D02*
X139967478Y-108658243D01*
X139262046Y-109192791D02*
X139309549Y-109145288D01*
X139309549Y-109145288D02*
X139345290Y-109088407D01*
X139375000Y-108958242D02*
X139375000Y-108725000D01*
X142350000Y-101400000D02*
X142800000Y-101400000D01*
X142800000Y-101400000D02*
X143845000Y-102445000D01*
X143845000Y-102445000D02*
X143845000Y-105536800D01*
X143845000Y-105536800D02*
X141406800Y-107975000D01*
X141406800Y-107975000D02*
X133256800Y-107975000D01*
X133256800Y-107975000D02*
X131275000Y-109956800D01*
X131275000Y-109956800D02*
X131275000Y-112843200D01*
X131731800Y-113300000D02*
X133450000Y-113300000D01*
X131275000Y-112843200D02*
X131731800Y-113300000D01*
X125000000Y-95000000D02*
X125775000Y-95775000D01*
X125775000Y-95775000D02*
X125775000Y-96843200D01*
X125775000Y-96843200D02*
X128250000Y-99318200D01*
X128250000Y-99318200D02*
X128250000Y-115100000D01*
X128250000Y-115100000D02*
X127800000Y-115550000D01*
X127800000Y-115550000D02*
X129075000Y-116825000D01*
X135493200Y-116825000D02*
X142893200Y-109425000D01*
X129075000Y-116825000D02*
X135493200Y-116825000D01*
X142893200Y-109425000D02*
X148506800Y-109425000D01*
X148506800Y-109425000D02*
X150775000Y-111693200D01*
X150775000Y-111693200D02*
X150775000Y-115425000D01*
X150775000Y-115425000D02*
X150400000Y-115800000D01*
X129150000Y-116263603D02*
X129150000Y-115550000D01*
X129261397Y-116375000D02*
X129150000Y-116263603D01*
X142706800Y-108975000D02*
X135306800Y-116375000D01*
X135306800Y-116375000D02*
X129261397Y-116375000D01*
X145393594Y-108975000D02*
X142706800Y-108975000D01*
X146187935Y-108665706D02*
X146162237Y-108624808D01*
X145993594Y-108543594D02*
X145825000Y-108543594D01*
X146230658Y-108852887D02*
X146214705Y-108807295D01*
X146377001Y-108969591D02*
X146331409Y-108953638D01*
X145777001Y-108549002D02*
X145731409Y-108564955D01*
X145487184Y-108953638D02*
X145441592Y-108969591D01*
X146331409Y-108953638D02*
X146290511Y-108927940D01*
X145441592Y-108969591D02*
X145393594Y-108975000D01*
X148693200Y-108975000D02*
X146425000Y-108975000D01*
X146203888Y-108711298D02*
X146187935Y-108665706D01*
X146425000Y-108975000D02*
X146377001Y-108969591D01*
X146256356Y-108893785D02*
X146230658Y-108852887D01*
X151225000Y-111506800D02*
X148693200Y-108975000D01*
X145562237Y-108893785D02*
X145528082Y-108927940D01*
X145603888Y-108807295D02*
X145587935Y-108852887D01*
X146290511Y-108927940D02*
X146256356Y-108893785D01*
X151225000Y-115425000D02*
X151225000Y-111506800D01*
X151600000Y-115800000D02*
X151225000Y-115425000D01*
X146162237Y-108624808D02*
X146128082Y-108590653D01*
X146128082Y-108590653D02*
X146087184Y-108564955D01*
X146087184Y-108564955D02*
X146041592Y-108549002D01*
X146041592Y-108549002D02*
X145993594Y-108543594D01*
X145630658Y-108665706D02*
X145614705Y-108711298D01*
X145825000Y-108543594D02*
X145777001Y-108549002D01*
X145731409Y-108564955D02*
X145690511Y-108590653D01*
X145690511Y-108590653D02*
X145656356Y-108624808D01*
X145656356Y-108624808D02*
X145630658Y-108665706D01*
X145614705Y-108711298D02*
X145603888Y-108807295D01*
X146214705Y-108807295D02*
X146203888Y-108711298D01*
X145587935Y-108852887D02*
X145562237Y-108893785D01*
X145528082Y-108927940D02*
X145487184Y-108953638D01*
X126225000Y-95775000D02*
X127000000Y-95000000D01*
X126225000Y-96656800D02*
X126225000Y-95775000D01*
X128700000Y-99131800D02*
X126225000Y-96656800D01*
X128700000Y-115100000D02*
X128700000Y-99131800D01*
X129150000Y-115550000D02*
X128700000Y-115100000D01*
X123029306Y-111207718D02*
X123000158Y-111147191D01*
X123044254Y-111273211D02*
X123029306Y-111207718D01*
X121363603Y-109500000D02*
X120013603Y-109500000D01*
X123044255Y-111340391D02*
X123044254Y-111273211D01*
X123029305Y-111405884D02*
X123044255Y-111340391D01*
X123382538Y-111943200D02*
X123374345Y-111951390D01*
X123754280Y-111901314D02*
X123693753Y-111872166D01*
X122864100Y-111772848D02*
X122864099Y-111705668D01*
X123628260Y-111857218D02*
X123561080Y-111857217D01*
X123000158Y-111147191D02*
X122958273Y-111094670D01*
X122864099Y-111705668D02*
X122879049Y-111640175D01*
X123693753Y-111872166D02*
X123628260Y-111857218D01*
X123002603Y-111993276D02*
X122950081Y-111951390D01*
X123435060Y-111901313D02*
X123382538Y-111943200D01*
X123261296Y-112022423D02*
X123195803Y-112037373D01*
X123806802Y-111943199D02*
X123754280Y-111901314D01*
X122879048Y-111838341D02*
X122864100Y-111772848D01*
X122958272Y-111518933D02*
X123000159Y-111466411D01*
X123561080Y-111857217D02*
X123495587Y-111872167D01*
X122958273Y-111094670D02*
X121363603Y-109500000D01*
X122908196Y-111898868D02*
X122879048Y-111838341D01*
X126700000Y-118000000D02*
X126031800Y-118000000D01*
X127100000Y-118400000D02*
X126700000Y-118000000D01*
X123321823Y-111993277D02*
X123261296Y-112022423D01*
X123975000Y-115943200D02*
X123975000Y-112111397D01*
X123195803Y-112037373D02*
X123128623Y-112037372D01*
X123374345Y-111951390D02*
X123321823Y-111993277D01*
X123128623Y-112037372D02*
X123063130Y-112022424D01*
X123000159Y-111466411D02*
X123029305Y-111405884D01*
X123063130Y-112022424D02*
X123002603Y-111993276D01*
X123495587Y-111872167D02*
X123435060Y-111901313D01*
X122950081Y-111951390D02*
X122908196Y-111898868D01*
X120013603Y-109500000D02*
X120000000Y-109500000D01*
X122879049Y-111640175D02*
X122908195Y-111579648D01*
X123975000Y-112111397D02*
X123806802Y-111943199D01*
X126031800Y-118000000D02*
X123975000Y-115943200D01*
X122908195Y-111579648D02*
X122950082Y-111527126D01*
X122950082Y-111527126D02*
X122958272Y-111518933D01*
X127100000Y-117150000D02*
X126700000Y-117550000D01*
X126700000Y-117550000D02*
X126218200Y-117550000D01*
X126218200Y-117550000D02*
X124425000Y-115756800D01*
X124425000Y-115756800D02*
X124425000Y-111925000D01*
X124425000Y-111925000D02*
X120000000Y-107500000D01*
D21*
G36*
X160768083Y-90731173D02*
G01*
X161511891Y-90934656D01*
X162207905Y-91266638D01*
X162834130Y-91716626D01*
X163370777Y-92270403D01*
X163800871Y-92910451D01*
X164110829Y-93616553D01*
X164292065Y-94371457D01*
X164340001Y-95024220D01*
X164340001Y-110362094D01*
X164103411Y-110204010D01*
X163833158Y-110092068D01*
X163546260Y-110035000D01*
X163253740Y-110035000D01*
X162966842Y-110092068D01*
X162696589Y-110204010D01*
X162453368Y-110366525D01*
X162246525Y-110573368D01*
X162130000Y-110747760D01*
X162013475Y-110573368D01*
X161806632Y-110366525D01*
X161563411Y-110204010D01*
X161293158Y-110092068D01*
X161006260Y-110035000D01*
X160713740Y-110035000D01*
X160426842Y-110092068D01*
X160156589Y-110204010D01*
X159913368Y-110366525D01*
X159706525Y-110573368D01*
X159544010Y-110816589D01*
X159432068Y-111086842D01*
X159375000Y-111373740D01*
X159375000Y-111666260D01*
X159432068Y-111953158D01*
X159544010Y-112223411D01*
X159706525Y-112466632D01*
X159913368Y-112673475D01*
X160087760Y-112790000D01*
X159913368Y-112906525D01*
X159706525Y-113113368D01*
X159544010Y-113356589D01*
X159432068Y-113626842D01*
X159375000Y-113913740D01*
X159375000Y-114206260D01*
X159432068Y-114493158D01*
X159492063Y-114638000D01*
X158215630Y-114638000D01*
X155135000Y-111557370D01*
X155135000Y-111498061D01*
X155095226Y-111298102D01*
X155017205Y-111109744D01*
X154903937Y-110940226D01*
X154759774Y-110796063D01*
X154590256Y-110682795D01*
X154401898Y-110604774D01*
X154201939Y-110565000D01*
X153998061Y-110565000D01*
X153798102Y-110604774D01*
X153609744Y-110682795D01*
X153440226Y-110796063D01*
X153435001Y-110801288D01*
X153435001Y-109013934D01*
X153439525Y-108967999D01*
X153421473Y-108784707D01*
X153368008Y-108608458D01*
X153331459Y-108540080D01*
X153281187Y-108446027D01*
X153164345Y-108303655D01*
X153128660Y-108274369D01*
X152476991Y-107622700D01*
X152490256Y-107617205D01*
X152659774Y-107503937D01*
X152803937Y-107359774D01*
X152917205Y-107190256D01*
X152995226Y-107001898D01*
X153035000Y-106801939D01*
X153035000Y-106598061D01*
X152995226Y-106398102D01*
X152917205Y-106209744D01*
X152803937Y-106040226D01*
X152659774Y-105896063D01*
X152490256Y-105782795D01*
X152301898Y-105704774D01*
X152101939Y-105665000D01*
X151898061Y-105665000D01*
X151698102Y-105704774D01*
X151509744Y-105782795D01*
X151340226Y-105896063D01*
X151196063Y-106040226D01*
X151082795Y-106209744D01*
X151004774Y-106398102D01*
X150999070Y-106426780D01*
X149548719Y-104976429D01*
X149609744Y-105017205D01*
X149798102Y-105095226D01*
X149998061Y-105135000D01*
X150201939Y-105135000D01*
X150401898Y-105095226D01*
X150590256Y-105017205D01*
X150759774Y-104903937D01*
X150903937Y-104759774D01*
X151017205Y-104590256D01*
X151095226Y-104401898D01*
X151135000Y-104201939D01*
X151135000Y-103998061D01*
X151115109Y-103898061D01*
X152865000Y-103898061D01*
X152865000Y-104101939D01*
X152904774Y-104301898D01*
X152982795Y-104490256D01*
X153096063Y-104659774D01*
X153240226Y-104803937D01*
X153409744Y-104917205D01*
X153416348Y-104919941D01*
X153321063Y-105015226D01*
X153207795Y-105184744D01*
X153129774Y-105373102D01*
X153090000Y-105573061D01*
X153090000Y-105776939D01*
X153129774Y-105976898D01*
X153207795Y-106165256D01*
X153281123Y-106275000D01*
X153207795Y-106384744D01*
X153129774Y-106573102D01*
X153090000Y-106773061D01*
X153090000Y-106976939D01*
X153129774Y-107176898D01*
X153207795Y-107365256D01*
X153321063Y-107534774D01*
X153465226Y-107678937D01*
X153634744Y-107792205D01*
X153823102Y-107870226D01*
X154023061Y-107910000D01*
X154226939Y-107910000D01*
X154426898Y-107870226D01*
X154615256Y-107792205D01*
X154784774Y-107678937D01*
X154928937Y-107534774D01*
X155042205Y-107365256D01*
X155120226Y-107176898D01*
X155160000Y-106976939D01*
X155160000Y-106773061D01*
X155120226Y-106573102D01*
X155042205Y-106384744D01*
X154968877Y-106275000D01*
X155042205Y-106165256D01*
X155120226Y-105976898D01*
X155160000Y-105776939D01*
X155160000Y-105573061D01*
X155120226Y-105373102D01*
X155042205Y-105184744D01*
X154928937Y-105015226D01*
X154911627Y-104997916D01*
X155098061Y-105035000D01*
X155301939Y-105035000D01*
X155501898Y-104995226D01*
X155690256Y-104917205D01*
X155800000Y-104843877D01*
X155909744Y-104917205D01*
X156098102Y-104995226D01*
X156298061Y-105035000D01*
X156501939Y-105035000D01*
X156701898Y-104995226D01*
X156890256Y-104917205D01*
X157059774Y-104803937D01*
X157065650Y-104798061D01*
X161365000Y-104798061D01*
X161365000Y-105001939D01*
X161404774Y-105201898D01*
X161482795Y-105390256D01*
X161596063Y-105559774D01*
X161740226Y-105703937D01*
X161909744Y-105817205D01*
X162098102Y-105895226D01*
X162298061Y-105935000D01*
X162501939Y-105935000D01*
X162701898Y-105895226D01*
X162890256Y-105817205D01*
X163059774Y-105703937D01*
X163203937Y-105559774D01*
X163317205Y-105390256D01*
X163395226Y-105201898D01*
X163435000Y-105001939D01*
X163435000Y-104798061D01*
X163395226Y-104598102D01*
X163317205Y-104409744D01*
X163203937Y-104240226D01*
X163059774Y-104096063D01*
X162890256Y-103982795D01*
X162701898Y-103904774D01*
X162501939Y-103865000D01*
X162298061Y-103865000D01*
X162098102Y-103904774D01*
X161909744Y-103982795D01*
X161740226Y-104096063D01*
X161596063Y-104240226D01*
X161482795Y-104409744D01*
X161404774Y-104598102D01*
X161365000Y-104798061D01*
X157065650Y-104798061D01*
X157203937Y-104659774D01*
X157317205Y-104490256D01*
X157395226Y-104301898D01*
X157435000Y-104101939D01*
X157435000Y-103898061D01*
X157395226Y-103698102D01*
X157317205Y-103509744D01*
X157203937Y-103340226D01*
X157059774Y-103196063D01*
X156890256Y-103082795D01*
X156701898Y-103004774D01*
X156501939Y-102965000D01*
X156298061Y-102965000D01*
X156098102Y-103004774D01*
X155909744Y-103082795D01*
X155800000Y-103156123D01*
X155690256Y-103082795D01*
X155501898Y-103004774D01*
X155301939Y-102965000D01*
X155098061Y-102965000D01*
X154898102Y-103004774D01*
X154709744Y-103082795D01*
X154550000Y-103189532D01*
X154390256Y-103082795D01*
X154201898Y-103004774D01*
X154001939Y-102965000D01*
X153798061Y-102965000D01*
X153598102Y-103004774D01*
X153409744Y-103082795D01*
X153240226Y-103196063D01*
X153096063Y-103340226D01*
X152982795Y-103509744D01*
X152904774Y-103698102D01*
X152865000Y-103898061D01*
X151115109Y-103898061D01*
X151095226Y-103798102D01*
X151017205Y-103609744D01*
X150903937Y-103440226D01*
X150759774Y-103296063D01*
X150590256Y-103182795D01*
X150401898Y-103104774D01*
X150201939Y-103065000D01*
X149998061Y-103065000D01*
X149798102Y-103104774D01*
X149609744Y-103182795D01*
X149440226Y-103296063D01*
X149296063Y-103440226D01*
X149182795Y-103609744D01*
X149104774Y-103798102D01*
X149065000Y-103998061D01*
X149065000Y-104201939D01*
X149104774Y-104401898D01*
X149182795Y-104590256D01*
X149223571Y-104651282D01*
X148815000Y-104242711D01*
X148815000Y-102879701D01*
X148854482Y-102875812D01*
X148974180Y-102839502D01*
X149084494Y-102780537D01*
X149181185Y-102701185D01*
X149260537Y-102604494D01*
X149319502Y-102494180D01*
X149355812Y-102374482D01*
X149368072Y-102250000D01*
X149368072Y-101198061D01*
X150965000Y-101198061D01*
X150965000Y-101401939D01*
X151004774Y-101601898D01*
X151082795Y-101790256D01*
X151196063Y-101959774D01*
X151340226Y-102103937D01*
X151509744Y-102217205D01*
X151698102Y-102295226D01*
X151898061Y-102335000D01*
X152101939Y-102335000D01*
X152301898Y-102295226D01*
X152490256Y-102217205D01*
X152659774Y-102103937D01*
X152803937Y-101959774D01*
X152917205Y-101790256D01*
X152995226Y-101601898D01*
X153035000Y-101401939D01*
X153035000Y-101198061D01*
X152995226Y-100998102D01*
X152917205Y-100809744D01*
X152803937Y-100640226D01*
X152659774Y-100496063D01*
X152490256Y-100382795D01*
X152301898Y-100304774D01*
X152101939Y-100265000D01*
X151898061Y-100265000D01*
X151698102Y-100304774D01*
X151509744Y-100382795D01*
X151340226Y-100496063D01*
X151196063Y-100640226D01*
X151082795Y-100809744D01*
X151004774Y-100998102D01*
X150965000Y-101198061D01*
X149368072Y-101198061D01*
X149368072Y-100550000D01*
X149355812Y-100425518D01*
X149319502Y-100305820D01*
X149260537Y-100195506D01*
X149181185Y-100098815D01*
X149084494Y-100019463D01*
X148974180Y-99960498D01*
X148854482Y-99924188D01*
X148730000Y-99911928D01*
X147030000Y-99911928D01*
X146905518Y-99924188D01*
X146785820Y-99960498D01*
X146675506Y-100019463D01*
X146578815Y-100098815D01*
X146499463Y-100195506D01*
X146440498Y-100305820D01*
X146418487Y-100378380D01*
X146286632Y-100246525D01*
X146043411Y-100084010D01*
X145773158Y-99972068D01*
X145486260Y-99915000D01*
X145193740Y-99915000D01*
X144906842Y-99972068D01*
X144636589Y-100084010D01*
X144393368Y-100246525D01*
X144186525Y-100453368D01*
X144070000Y-100627760D01*
X143953475Y-100453368D01*
X143746632Y-100246525D01*
X143503411Y-100084010D01*
X143233158Y-99972068D01*
X142946260Y-99915000D01*
X142653740Y-99915000D01*
X142366842Y-99972068D01*
X142096589Y-100084010D01*
X141853368Y-100246525D01*
X141646525Y-100453368D01*
X141524805Y-100635534D01*
X141455178Y-100518645D01*
X141260269Y-100302412D01*
X141026920Y-100128359D01*
X140764099Y-100003175D01*
X140616890Y-99958524D01*
X140387000Y-100079845D01*
X140387000Y-101273000D01*
X140407000Y-101273000D01*
X140407000Y-101527000D01*
X140387000Y-101527000D01*
X140387000Y-102720155D01*
X140616890Y-102841476D01*
X140764099Y-102796825D01*
X141026920Y-102671641D01*
X141260269Y-102497588D01*
X141455178Y-102281355D01*
X141524805Y-102164466D01*
X141646525Y-102346632D01*
X141853368Y-102553475D01*
X142096589Y-102715990D01*
X142366842Y-102827932D01*
X142653740Y-102885000D01*
X142946260Y-102885000D01*
X143110000Y-102852430D01*
X143110001Y-105232352D01*
X141102354Y-107240000D01*
X133292894Y-107240000D01*
X133256799Y-107236445D01*
X133220704Y-107240000D01*
X133220695Y-107240000D01*
X133112715Y-107250635D01*
X132974167Y-107292663D01*
X132846480Y-107360913D01*
X132734562Y-107452762D01*
X132711546Y-107480807D01*
X130780808Y-109411546D01*
X130752762Y-109434563D01*
X130660913Y-109546481D01*
X130592663Y-109674168D01*
X130569907Y-109749184D01*
X130550635Y-109812715D01*
X130536444Y-109956800D01*
X130540000Y-109992905D01*
X130540001Y-112807085D01*
X130536444Y-112843200D01*
X130550635Y-112987285D01*
X130587073Y-113107402D01*
X130592664Y-113125833D01*
X130660914Y-113253520D01*
X130752763Y-113365438D01*
X130780808Y-113388454D01*
X131186541Y-113794187D01*
X131209562Y-113822238D01*
X131306628Y-113901898D01*
X131321480Y-113914087D01*
X131449166Y-113982337D01*
X131587715Y-114024365D01*
X131731800Y-114038556D01*
X131767905Y-114035000D01*
X132721289Y-114035000D01*
X132790226Y-114103937D01*
X132959744Y-114217205D01*
X133148102Y-114295226D01*
X133348061Y-114335000D01*
X133551939Y-114335000D01*
X133751898Y-114295226D01*
X133940256Y-114217205D01*
X134109774Y-114103937D01*
X134253937Y-113959774D01*
X134367205Y-113790256D01*
X134379177Y-113761353D01*
X134498061Y-113785000D01*
X134701939Y-113785000D01*
X134901898Y-113745226D01*
X135090256Y-113667205D01*
X135259774Y-113553937D01*
X135403937Y-113409774D01*
X135517205Y-113240256D01*
X135595226Y-113051898D01*
X135635000Y-112851939D01*
X135635000Y-112648061D01*
X135595226Y-112448102D01*
X135517205Y-112259744D01*
X135403937Y-112090226D01*
X135259774Y-111946063D01*
X135090256Y-111832795D01*
X134901898Y-111754774D01*
X134701939Y-111715000D01*
X134498061Y-111715000D01*
X134298102Y-111754774D01*
X134109744Y-111832795D01*
X133953060Y-111937487D01*
X133945226Y-111898102D01*
X133867205Y-111709744D01*
X133753937Y-111540226D01*
X133609774Y-111396063D01*
X133440256Y-111282795D01*
X133251898Y-111204774D01*
X133051939Y-111165000D01*
X132848061Y-111165000D01*
X132648102Y-111204774D01*
X132460000Y-111282689D01*
X132460000Y-110447646D01*
X133747647Y-109160000D01*
X136858936Y-109160000D01*
X136865878Y-109188560D01*
X136878842Y-109249273D01*
X136897278Y-109292074D01*
X136902442Y-109306832D01*
X136914715Y-109351794D01*
X136942432Y-109407342D01*
X136968583Y-109463651D01*
X136996088Y-109501285D01*
X137004396Y-109514508D01*
X137026364Y-109555607D01*
X137065750Y-109603600D01*
X137103773Y-109652675D01*
X137138956Y-109683240D01*
X137150003Y-109694287D01*
X137180566Y-109729468D01*
X137229634Y-109767485D01*
X137277633Y-109806877D01*
X137318735Y-109828847D01*
X137331960Y-109837156D01*
X137369590Y-109864658D01*
X137425891Y-109890805D01*
X137481447Y-109918526D01*
X137526409Y-109930799D01*
X137541157Y-109935960D01*
X137583958Y-109954396D01*
X137644671Y-109967361D01*
X137704998Y-109982023D01*
X137751559Y-109983984D01*
X137767088Y-109985733D01*
X137812929Y-109994185D01*
X137875015Y-109993313D01*
X137937072Y-109994184D01*
X137982905Y-109985734D01*
X137998441Y-109983984D01*
X138045001Y-109982023D01*
X138105328Y-109967361D01*
X138166041Y-109954396D01*
X138208838Y-109935961D01*
X138223590Y-109930799D01*
X138268552Y-109918526D01*
X138324100Y-109890809D01*
X138380409Y-109864658D01*
X138418043Y-109837153D01*
X138431266Y-109828845D01*
X138472365Y-109806877D01*
X138474999Y-109804715D01*
X138477633Y-109806877D01*
X138518735Y-109828847D01*
X138531960Y-109837156D01*
X138569590Y-109864658D01*
X138625891Y-109890805D01*
X138681447Y-109918526D01*
X138726409Y-109930799D01*
X138741157Y-109935960D01*
X138783958Y-109954396D01*
X138844671Y-109967361D01*
X138904998Y-109982023D01*
X138951559Y-109983984D01*
X138967088Y-109985733D01*
X139012929Y-109994185D01*
X139075015Y-109993313D01*
X139137072Y-109994184D01*
X139182905Y-109985734D01*
X139198441Y-109983984D01*
X139245001Y-109982023D01*
X139305328Y-109967361D01*
X139366041Y-109954396D01*
X139408838Y-109935961D01*
X139423590Y-109930799D01*
X139468552Y-109918526D01*
X139524100Y-109890809D01*
X139580409Y-109864658D01*
X139618043Y-109837153D01*
X139631266Y-109828845D01*
X139672365Y-109806877D01*
X139674999Y-109804715D01*
X139677633Y-109806877D01*
X139718735Y-109828847D01*
X139731960Y-109837156D01*
X139769590Y-109864658D01*
X139825891Y-109890805D01*
X139881447Y-109918526D01*
X139926409Y-109930799D01*
X139941157Y-109935960D01*
X139983958Y-109954396D01*
X140044671Y-109967361D01*
X140104998Y-109982023D01*
X140151559Y-109983984D01*
X140167088Y-109985733D01*
X140212929Y-109994185D01*
X140275015Y-109993313D01*
X140337072Y-109994184D01*
X140382905Y-109985734D01*
X140398441Y-109983984D01*
X140445001Y-109982023D01*
X140505328Y-109967361D01*
X140566041Y-109954396D01*
X140608838Y-109935961D01*
X140623590Y-109930799D01*
X140668552Y-109918526D01*
X140724100Y-109890809D01*
X140775342Y-109867011D01*
X135002354Y-115640000D01*
X130185000Y-115640000D01*
X130185000Y-115448061D01*
X130145226Y-115248102D01*
X130067205Y-115059744D01*
X130062712Y-115053020D01*
X130101898Y-115045226D01*
X130290256Y-114967205D01*
X130459774Y-114853937D01*
X130603937Y-114709774D01*
X130717205Y-114540256D01*
X130795226Y-114351898D01*
X130835000Y-114151939D01*
X130835000Y-113948061D01*
X130795226Y-113748102D01*
X130717205Y-113559744D01*
X130603937Y-113390226D01*
X130459774Y-113246063D01*
X130290256Y-113132795D01*
X130101898Y-113054774D01*
X129901939Y-113015000D01*
X129698061Y-113015000D01*
X129498102Y-113054774D01*
X129435000Y-113080912D01*
X129435000Y-101756891D01*
X138818519Y-101756891D01*
X138915843Y-102031252D01*
X139064822Y-102281355D01*
X139259731Y-102497588D01*
X139493080Y-102671641D01*
X139755901Y-102796825D01*
X139903110Y-102841476D01*
X140133000Y-102720155D01*
X140133000Y-101527000D01*
X138939186Y-101527000D01*
X138818519Y-101756891D01*
X129435000Y-101756891D01*
X129435000Y-101043109D01*
X138818519Y-101043109D01*
X138939186Y-101273000D01*
X140133000Y-101273000D01*
X140133000Y-100079845D01*
X139903110Y-99958524D01*
X139755901Y-100003175D01*
X139493080Y-100128359D01*
X139259731Y-100302412D01*
X139064822Y-100518645D01*
X138915843Y-100768748D01*
X138818519Y-101043109D01*
X129435000Y-101043109D01*
X129435000Y-99167905D01*
X129438556Y-99131800D01*
X129424365Y-98987715D01*
X129382337Y-98849166D01*
X129314087Y-98721480D01*
X129245253Y-98637606D01*
X129222238Y-98609562D01*
X129194193Y-98586546D01*
X127042646Y-96435000D01*
X127141335Y-96435000D01*
X127418574Y-96379853D01*
X127679727Y-96271680D01*
X127914759Y-96114637D01*
X128081339Y-95948057D01*
X128110498Y-96044180D01*
X128169463Y-96154494D01*
X128248815Y-96251185D01*
X128345506Y-96330537D01*
X128455820Y-96389502D01*
X128575518Y-96425812D01*
X128700000Y-96438072D01*
X130300000Y-96438072D01*
X130424482Y-96425812D01*
X130544180Y-96389502D01*
X130654494Y-96330537D01*
X130721670Y-96275407D01*
X152065000Y-96275407D01*
X152087210Y-96500912D01*
X152174983Y-96790260D01*
X152317519Y-97056926D01*
X152509339Y-97290661D01*
X152743073Y-97482481D01*
X153009739Y-97625017D01*
X153299087Y-97712790D01*
X153600000Y-97742427D01*
X153900912Y-97712790D01*
X154190260Y-97625017D01*
X154456926Y-97482481D01*
X154690661Y-97290661D01*
X154765064Y-97200000D01*
X155561928Y-97200000D01*
X155561928Y-99000000D01*
X155574188Y-99124482D01*
X155610498Y-99244180D01*
X155669463Y-99354494D01*
X155748815Y-99451185D01*
X155845506Y-99530537D01*
X155955820Y-99589502D01*
X155989495Y-99599717D01*
X155982795Y-99609744D01*
X155904774Y-99798102D01*
X155865000Y-99998061D01*
X155865000Y-100201939D01*
X155904774Y-100401898D01*
X155982795Y-100590256D01*
X156096063Y-100759774D01*
X156240226Y-100903937D01*
X156409744Y-101017205D01*
X156598102Y-101095226D01*
X156798061Y-101135000D01*
X157001939Y-101135000D01*
X157201898Y-101095226D01*
X157390256Y-101017205D01*
X157559774Y-100903937D01*
X157600000Y-100863711D01*
X157640226Y-100903937D01*
X157809744Y-101017205D01*
X157998102Y-101095226D01*
X158198061Y-101135000D01*
X158401939Y-101135000D01*
X158601898Y-101095226D01*
X158790256Y-101017205D01*
X158950000Y-100910468D01*
X159109744Y-101017205D01*
X159298102Y-101095226D01*
X159498061Y-101135000D01*
X159701939Y-101135000D01*
X159901898Y-101095226D01*
X160090256Y-101017205D01*
X160259774Y-100903937D01*
X160403937Y-100759774D01*
X160517205Y-100590256D01*
X160595226Y-100401898D01*
X160635000Y-100201939D01*
X160635000Y-99998061D01*
X160595226Y-99798102D01*
X160528939Y-99638072D01*
X160600000Y-99638072D01*
X160724482Y-99625812D01*
X160844180Y-99589502D01*
X160954494Y-99530537D01*
X161051185Y-99451185D01*
X161130537Y-99354494D01*
X161189502Y-99244180D01*
X161225812Y-99124482D01*
X161238072Y-99000000D01*
X161238072Y-97200000D01*
X161225812Y-97075518D01*
X161189502Y-96955820D01*
X161130537Y-96845506D01*
X161051185Y-96748815D01*
X160954494Y-96669463D01*
X160844180Y-96610498D01*
X160724482Y-96574188D01*
X160600000Y-96561928D01*
X156200000Y-96561928D01*
X156075518Y-96574188D01*
X155955820Y-96610498D01*
X155845506Y-96669463D01*
X155748815Y-96748815D01*
X155669463Y-96845506D01*
X155610498Y-96955820D01*
X155574188Y-97075518D01*
X155561928Y-97200000D01*
X154765064Y-97200000D01*
X154882481Y-97056927D01*
X155025017Y-96790261D01*
X155112790Y-96500913D01*
X155135000Y-96275408D01*
X155135000Y-93924592D01*
X155112790Y-93699087D01*
X155025017Y-93409739D01*
X154882481Y-93143073D01*
X154690661Y-92909339D01*
X154456927Y-92717519D01*
X154358185Y-92664740D01*
X155808964Y-92664740D01*
X155833245Y-92770087D01*
X155953138Y-93047204D01*
X156124790Y-93295606D01*
X156341604Y-93505748D01*
X156595249Y-93669554D01*
X156875977Y-93780729D01*
X157173000Y-93835000D01*
X158273000Y-93835000D01*
X158273000Y-92427000D01*
X158527000Y-92427000D01*
X158527000Y-93835000D01*
X159627000Y-93835000D01*
X159924023Y-93780729D01*
X160204751Y-93669554D01*
X160458396Y-93505748D01*
X160675210Y-93295606D01*
X160846862Y-93047204D01*
X160966755Y-92770087D01*
X160991036Y-92664740D01*
X160870378Y-92427000D01*
X158527000Y-92427000D01*
X158273000Y-92427000D01*
X155929622Y-92427000D01*
X155808964Y-92664740D01*
X154358185Y-92664740D01*
X154190261Y-92574983D01*
X153900913Y-92487210D01*
X153600000Y-92457573D01*
X153299088Y-92487210D01*
X153009740Y-92574983D01*
X152743074Y-92717519D01*
X152509340Y-92909339D01*
X152317520Y-93143073D01*
X152174984Y-93409739D01*
X152087211Y-93699087D01*
X152065001Y-93924592D01*
X152065000Y-96275407D01*
X130721670Y-96275407D01*
X130751185Y-96251185D01*
X130830537Y-96154494D01*
X130889502Y-96044180D01*
X130925812Y-95924482D01*
X130938072Y-95800000D01*
X130938072Y-94200000D01*
X130925812Y-94075518D01*
X130889502Y-93955820D01*
X130830537Y-93845506D01*
X130751185Y-93748815D01*
X130654494Y-93669463D01*
X130544180Y-93610498D01*
X130424482Y-93574188D01*
X130300000Y-93561928D01*
X128700000Y-93561928D01*
X128575518Y-93574188D01*
X128455820Y-93610498D01*
X128345506Y-93669463D01*
X128248815Y-93748815D01*
X128169463Y-93845506D01*
X128110498Y-93955820D01*
X128081339Y-94051943D01*
X127914759Y-93885363D01*
X127679727Y-93728320D01*
X127418574Y-93620147D01*
X127141335Y-93565000D01*
X126858665Y-93565000D01*
X126581426Y-93620147D01*
X126320273Y-93728320D01*
X126085241Y-93885363D01*
X126000000Y-93970604D01*
X125914759Y-93885363D01*
X125679727Y-93728320D01*
X125418574Y-93620147D01*
X125141335Y-93565000D01*
X124858665Y-93565000D01*
X124581426Y-93620147D01*
X124320273Y-93728320D01*
X124085241Y-93885363D01*
X123885363Y-94085241D01*
X123751308Y-94285869D01*
X123736671Y-94258486D01*
X123492702Y-94186903D01*
X122679605Y-95000000D01*
X123492702Y-95813097D01*
X123736671Y-95741514D01*
X123750324Y-95712659D01*
X123885363Y-95914759D01*
X124085241Y-96114637D01*
X124320273Y-96271680D01*
X124581426Y-96379853D01*
X124858665Y-96435000D01*
X125040001Y-96435000D01*
X125040001Y-96807085D01*
X125036444Y-96843200D01*
X125050635Y-96987285D01*
X125077401Y-97075518D01*
X125092664Y-97125833D01*
X125160914Y-97253520D01*
X125252763Y-97365438D01*
X125280808Y-97388454D01*
X127515000Y-99622647D01*
X127515001Y-114551413D01*
X127498102Y-114554774D01*
X127309744Y-114632795D01*
X127140226Y-114746063D01*
X126996063Y-114890226D01*
X126882795Y-115059744D01*
X126804774Y-115248102D01*
X126765000Y-115448061D01*
X126765000Y-115651939D01*
X126804774Y-115851898D01*
X126882795Y-116040256D01*
X126940401Y-116126469D01*
X126798102Y-116154774D01*
X126609744Y-116232795D01*
X126440226Y-116346063D01*
X126296063Y-116490226D01*
X126256734Y-116549087D01*
X125160000Y-115452354D01*
X125160000Y-111961104D01*
X125163556Y-111924999D01*
X125149365Y-111780914D01*
X125131120Y-111720769D01*
X125107337Y-111642367D01*
X125039087Y-111514680D01*
X124947238Y-111402762D01*
X124919193Y-111379746D01*
X121392822Y-107853376D01*
X121435000Y-107641335D01*
X121435000Y-107358665D01*
X121379853Y-107081426D01*
X121271680Y-106820273D01*
X121114637Y-106585241D01*
X120948057Y-106418661D01*
X121044180Y-106389502D01*
X121154494Y-106330537D01*
X121251185Y-106251185D01*
X121330537Y-106154494D01*
X121389502Y-106044180D01*
X121425812Y-105924482D01*
X121438072Y-105800000D01*
X121438072Y-104200000D01*
X121425812Y-104075518D01*
X121389502Y-103955820D01*
X121330537Y-103845506D01*
X121251185Y-103748815D01*
X121154494Y-103669463D01*
X121044180Y-103610498D01*
X120924482Y-103574188D01*
X120800000Y-103561928D01*
X119200000Y-103561928D01*
X119075518Y-103574188D01*
X118955820Y-103610498D01*
X118845506Y-103669463D01*
X118748815Y-103748815D01*
X118669463Y-103845506D01*
X118610498Y-103955820D01*
X118574188Y-104075518D01*
X118561928Y-104200000D01*
X118561928Y-105800000D01*
X118574188Y-105924482D01*
X118610498Y-106044180D01*
X118669463Y-106154494D01*
X118748815Y-106251185D01*
X118845506Y-106330537D01*
X118955820Y-106389502D01*
X119051943Y-106418661D01*
X118885363Y-106585241D01*
X118728320Y-106820273D01*
X118620147Y-107081426D01*
X118565000Y-107358665D01*
X118565000Y-107641335D01*
X118620147Y-107918574D01*
X118728320Y-108179727D01*
X118885363Y-108414759D01*
X118970604Y-108500000D01*
X118885363Y-108585241D01*
X118728320Y-108820273D01*
X118620147Y-109081426D01*
X118565000Y-109358665D01*
X118565000Y-109641335D01*
X118620147Y-109918574D01*
X118728320Y-110179727D01*
X118885363Y-110414759D01*
X119085241Y-110614637D01*
X119285869Y-110748692D01*
X119258486Y-110763329D01*
X119186903Y-111007298D01*
X120000000Y-111820395D01*
X120813097Y-111007298D01*
X120741514Y-110763329D01*
X120712659Y-110749676D01*
X120914759Y-110614637D01*
X121114637Y-110414759D01*
X121164416Y-110340259D01*
X122194328Y-111370172D01*
X122185228Y-111397394D01*
X122163897Y-111455723D01*
X122156740Y-111501755D01*
X122153265Y-111516981D01*
X122139732Y-111561594D01*
X122133650Y-111623354D01*
X122125834Y-111684937D01*
X122129100Y-111731449D01*
X122129100Y-111747075D01*
X122125835Y-111793558D01*
X122133651Y-111855151D01*
X122139738Y-111916943D01*
X122153266Y-111961536D01*
X122156738Y-111976749D01*
X122163901Y-112022812D01*
X122185229Y-112081128D01*
X122204905Y-112139996D01*
X122228022Y-112180471D01*
X122234797Y-112194541D01*
X122252030Y-112237852D01*
X122285795Y-112289952D01*
X122318081Y-112342972D01*
X122349624Y-112377288D01*
X122359358Y-112389494D01*
X122385791Y-112427878D01*
X122430306Y-112471163D01*
X122473586Y-112515674D01*
X122511967Y-112542105D01*
X122524181Y-112551846D01*
X122558499Y-112583391D01*
X122611528Y-112615683D01*
X122663611Y-112649438D01*
X122706918Y-112666669D01*
X122721003Y-112673452D01*
X122761475Y-112696567D01*
X122820350Y-112716245D01*
X122878659Y-112737571D01*
X122924721Y-112744734D01*
X122939936Y-112748207D01*
X122984528Y-112761734D01*
X123046318Y-112767821D01*
X123107912Y-112775637D01*
X123154395Y-112772372D01*
X123170022Y-112772372D01*
X123216534Y-112775638D01*
X123240001Y-112772659D01*
X123240000Y-115907095D01*
X123236444Y-115943200D01*
X123250635Y-116087285D01*
X123260413Y-116119518D01*
X123292663Y-116225832D01*
X123360913Y-116353519D01*
X123452762Y-116465437D01*
X123480808Y-116488454D01*
X125486546Y-118494193D01*
X125509562Y-118522238D01*
X125621480Y-118614087D01*
X125749167Y-118682337D01*
X125887715Y-118724365D01*
X125995695Y-118735000D01*
X125995704Y-118735000D01*
X126031799Y-118738555D01*
X126067894Y-118735000D01*
X126118485Y-118735000D01*
X126182795Y-118890256D01*
X126218532Y-118943741D01*
X126140226Y-118996063D01*
X125996063Y-119140226D01*
X125882795Y-119309744D01*
X125804774Y-119498102D01*
X125765000Y-119698061D01*
X125765000Y-119901939D01*
X125804774Y-120101898D01*
X125882795Y-120290256D01*
X125996063Y-120459774D01*
X126140226Y-120603937D01*
X126309744Y-120717205D01*
X126498102Y-120795226D01*
X126698061Y-120835000D01*
X126901939Y-120835000D01*
X127101898Y-120795226D01*
X127290256Y-120717205D01*
X127459774Y-120603937D01*
X127603937Y-120459774D01*
X127717205Y-120290256D01*
X127795226Y-120101898D01*
X127835000Y-119901939D01*
X127835000Y-119698061D01*
X127795226Y-119498102D01*
X127717205Y-119309744D01*
X127681468Y-119256259D01*
X127759774Y-119203937D01*
X127903937Y-119059774D01*
X128017205Y-118890256D01*
X128095226Y-118701898D01*
X128135000Y-118501939D01*
X128135000Y-118298061D01*
X128095226Y-118098102D01*
X128017205Y-117909744D01*
X127927172Y-117775000D01*
X128017205Y-117640256D01*
X128095226Y-117451898D01*
X128135000Y-117251939D01*
X128135000Y-117048061D01*
X128104307Y-116893753D01*
X128529746Y-117319193D01*
X128552762Y-117347238D01*
X128664680Y-117439087D01*
X128792367Y-117507337D01*
X128930915Y-117549365D01*
X129038895Y-117560000D01*
X129038904Y-117560000D01*
X129074999Y-117563555D01*
X129111094Y-117560000D01*
X134878236Y-117560000D01*
X130619703Y-121818533D01*
X130601939Y-121815000D01*
X130398061Y-121815000D01*
X130198102Y-121854774D01*
X130105796Y-121893009D01*
X130103937Y-121890226D01*
X129959774Y-121746063D01*
X129790256Y-121632795D01*
X129601898Y-121554774D01*
X129401939Y-121515000D01*
X129198061Y-121515000D01*
X128998102Y-121554774D01*
X128809744Y-121632795D01*
X128640226Y-121746063D01*
X128496063Y-121890226D01*
X128382795Y-122059744D01*
X128304774Y-122248102D01*
X128265000Y-122448061D01*
X128265000Y-122651939D01*
X128304774Y-122851898D01*
X128382795Y-123040256D01*
X128496063Y-123209774D01*
X128640226Y-123353937D01*
X128809744Y-123467205D01*
X128998102Y-123545226D01*
X129198061Y-123585000D01*
X129401939Y-123585000D01*
X129601898Y-123545226D01*
X129694204Y-123506991D01*
X129696063Y-123509774D01*
X129840226Y-123653937D01*
X130009744Y-123767205D01*
X130198102Y-123845226D01*
X130391196Y-123883634D01*
X130404774Y-123951898D01*
X130482795Y-124140256D01*
X130596063Y-124309774D01*
X130740226Y-124453937D01*
X130909744Y-124567205D01*
X131098102Y-124645226D01*
X131298061Y-124685000D01*
X131501939Y-124685000D01*
X131701898Y-124645226D01*
X131890256Y-124567205D01*
X132059774Y-124453937D01*
X132203937Y-124309774D01*
X132317205Y-124140256D01*
X132395226Y-123951898D01*
X132435000Y-123751939D01*
X132435000Y-123548061D01*
X132395226Y-123348102D01*
X132317205Y-123159744D01*
X132220520Y-123015044D01*
X132788001Y-122447563D01*
X132788000Y-122948289D01*
X132746063Y-122990226D01*
X132632795Y-123159744D01*
X132554774Y-123348102D01*
X132515000Y-123548061D01*
X132515000Y-123751939D01*
X132554774Y-123951898D01*
X132632795Y-124140256D01*
X132746063Y-124309774D01*
X132890226Y-124453937D01*
X133059744Y-124567205D01*
X133248102Y-124645226D01*
X133448061Y-124685000D01*
X133651939Y-124685000D01*
X133851898Y-124645226D01*
X134040256Y-124567205D01*
X134209774Y-124453937D01*
X134353937Y-124309774D01*
X134391704Y-124253251D01*
X134396063Y-124259774D01*
X134540226Y-124403937D01*
X134709744Y-124517205D01*
X134895606Y-124594192D01*
X134865000Y-124748061D01*
X134865000Y-124951939D01*
X134904774Y-125151898D01*
X134982795Y-125340256D01*
X135096063Y-125509774D01*
X135240226Y-125653937D01*
X135409744Y-125767205D01*
X135598102Y-125845226D01*
X135798061Y-125885000D01*
X136001939Y-125885000D01*
X136201898Y-125845226D01*
X136390256Y-125767205D01*
X136559774Y-125653937D01*
X136703937Y-125509774D01*
X136817205Y-125340256D01*
X136895226Y-125151898D01*
X136935000Y-124951939D01*
X136935000Y-124748061D01*
X136895226Y-124548102D01*
X136817205Y-124359744D01*
X136703937Y-124190226D01*
X136692231Y-124178520D01*
X136840256Y-124117205D01*
X136925870Y-124060000D01*
X137124525Y-124060000D01*
X144689990Y-131625465D01*
X144689991Y-134607741D01*
X144685830Y-134649990D01*
X144702434Y-134818579D01*
X144751610Y-134980690D01*
X144831467Y-135130092D01*
X144887282Y-135198102D01*
X144938937Y-135261044D01*
X144943757Y-135265000D01*
X144629117Y-135265000D01*
X144293919Y-135331675D01*
X143978169Y-135462463D01*
X143694002Y-135652337D01*
X143452337Y-135894002D01*
X143262463Y-136178169D01*
X143131675Y-136493919D01*
X143065000Y-136829117D01*
X143065000Y-137170883D01*
X143131675Y-137506081D01*
X143262463Y-137821831D01*
X143452337Y-138105998D01*
X143694002Y-138347663D01*
X143978169Y-138537537D01*
X144293919Y-138668325D01*
X144629117Y-138735000D01*
X144970883Y-138735000D01*
X145306081Y-138668325D01*
X145621831Y-138537537D01*
X145905998Y-138347663D01*
X146147663Y-138105998D01*
X146337537Y-137821831D01*
X146468325Y-137506081D01*
X146535000Y-137170883D01*
X146535000Y-136851223D01*
X148712017Y-139028241D01*
X148738946Y-139061054D01*
X148869898Y-139168524D01*
X148942585Y-139207376D01*
X149019299Y-139248381D01*
X149181410Y-139297556D01*
X149350000Y-139314161D01*
X149392246Y-139310000D01*
X160384318Y-139310000D01*
X159975793Y-139340000D01*
X141459346Y-139340000D01*
X141728363Y-139070983D01*
X141962012Y-138721302D01*
X142122953Y-138332756D01*
X142205000Y-137920279D01*
X142205000Y-137499721D01*
X142122953Y-137087244D01*
X141962012Y-136698698D01*
X141728363Y-136349017D01*
X141430983Y-136051637D01*
X141081302Y-135817988D01*
X140692756Y-135657047D01*
X140280279Y-135575000D01*
X139859721Y-135575000D01*
X139447244Y-135657047D01*
X139058698Y-135817988D01*
X138709017Y-136051637D01*
X138411637Y-136349017D01*
X138177988Y-136698698D01*
X138017047Y-137087244D01*
X137935000Y-137499721D01*
X137935000Y-137515000D01*
X137639608Y-137515000D01*
X137638762Y-137512125D01*
X137637731Y-137510153D01*
X137637087Y-137508020D01*
X137609012Y-137455219D01*
X137581345Y-137402297D01*
X137579951Y-137400563D01*
X137578905Y-137398596D01*
X137541117Y-137352263D01*
X137503690Y-137305714D01*
X137501985Y-137304283D01*
X137500577Y-137302557D01*
X137454527Y-137264461D01*
X137408754Y-137226053D01*
X137406802Y-137224980D01*
X137405087Y-137223561D01*
X137352539Y-137195149D01*
X137300153Y-137166349D01*
X137298029Y-137165675D01*
X137296072Y-137164617D01*
X137239050Y-137146966D01*
X137182024Y-137128876D01*
X137179808Y-137128627D01*
X137177684Y-137127970D01*
X137118257Y-137121724D01*
X137058866Y-137115062D01*
X137054596Y-137115032D01*
X137054433Y-137115015D01*
X137054270Y-137115030D01*
X137050000Y-137115000D01*
X136450000Y-137115000D01*
X136390495Y-137120834D01*
X136331013Y-137126248D01*
X136328882Y-137126875D01*
X136326661Y-137127093D01*
X136269379Y-137144388D01*
X136212125Y-137161238D01*
X136210153Y-137162269D01*
X136208020Y-137162913D01*
X136155219Y-137190988D01*
X136102297Y-137218655D01*
X136100563Y-137220049D01*
X136098596Y-137221095D01*
X136052263Y-137258883D01*
X136005714Y-137296310D01*
X136004283Y-137298015D01*
X136002557Y-137299423D01*
X135964461Y-137345473D01*
X135926053Y-137391246D01*
X135924980Y-137393198D01*
X135923561Y-137394913D01*
X135895149Y-137447461D01*
X135866349Y-137499847D01*
X135865675Y-137501971D01*
X135864617Y-137503928D01*
X135861190Y-137515000D01*
X135320132Y-137515000D01*
X134751995Y-136946864D01*
X134716449Y-136903551D01*
X134543623Y-136761716D01*
X134346447Y-136656324D01*
X134132499Y-136591423D01*
X133965752Y-136575000D01*
X133965751Y-136575000D01*
X133910000Y-136569509D01*
X133854249Y-136575000D01*
X128739360Y-136575000D01*
X128588363Y-136349017D01*
X128290983Y-136051637D01*
X127941302Y-135817988D01*
X127552756Y-135657047D01*
X127140279Y-135575000D01*
X126719721Y-135575000D01*
X126307244Y-135657047D01*
X125918698Y-135817988D01*
X125569017Y-136051637D01*
X125271637Y-136349017D01*
X125037988Y-136698698D01*
X124877047Y-137087244D01*
X124795000Y-137499721D01*
X124795000Y-137920279D01*
X124877047Y-138332756D01*
X125037988Y-138721302D01*
X125271637Y-139070983D01*
X125540654Y-139340000D01*
X120029392Y-139340000D01*
X119231917Y-139268827D01*
X118488110Y-139065344D01*
X117792096Y-138733363D01*
X117165870Y-138283374D01*
X116629223Y-137729597D01*
X116199129Y-137089549D01*
X116086883Y-136833845D01*
X116278698Y-136962012D01*
X116667244Y-137122953D01*
X117079721Y-137205000D01*
X117500279Y-137205000D01*
X117912756Y-137122953D01*
X118301302Y-136962012D01*
X118650983Y-136728363D01*
X118948363Y-136430983D01*
X119182012Y-136081302D01*
X119342953Y-135692756D01*
X119425000Y-135280279D01*
X119425000Y-134859721D01*
X119342953Y-134447244D01*
X119240542Y-134200000D01*
X128561928Y-134200000D01*
X128561928Y-135800000D01*
X128574188Y-135924482D01*
X128610498Y-136044180D01*
X128669463Y-136154494D01*
X128748815Y-136251185D01*
X128845506Y-136330537D01*
X128955820Y-136389502D01*
X129075518Y-136425812D01*
X129200000Y-136438072D01*
X130800000Y-136438072D01*
X130924482Y-136425812D01*
X131044180Y-136389502D01*
X131154494Y-136330537D01*
X131251185Y-136251185D01*
X131330537Y-136154494D01*
X131389502Y-136044180D01*
X131418661Y-135948057D01*
X131585241Y-136114637D01*
X131820273Y-136271680D01*
X132081426Y-136379853D01*
X132358665Y-136435000D01*
X132641335Y-136435000D01*
X132918574Y-136379853D01*
X133179727Y-136271680D01*
X133414759Y-136114637D01*
X133500000Y-136029396D01*
X133585241Y-136114637D01*
X133820273Y-136271680D01*
X134081426Y-136379853D01*
X134358665Y-136435000D01*
X134641335Y-136435000D01*
X134918574Y-136379853D01*
X135179727Y-136271680D01*
X135414759Y-136114637D01*
X135536694Y-135992702D01*
X136186903Y-135992702D01*
X136258486Y-136236671D01*
X136513996Y-136357571D01*
X136788184Y-136426300D01*
X137070512Y-136440217D01*
X137350130Y-136398787D01*
X137616292Y-136303603D01*
X137741514Y-136236671D01*
X137813097Y-135992702D01*
X137000000Y-135179605D01*
X136186903Y-135992702D01*
X135536694Y-135992702D01*
X135614637Y-135914759D01*
X135748692Y-135714131D01*
X135763329Y-135741514D01*
X136007298Y-135813097D01*
X136820395Y-135000000D01*
X137179605Y-135000000D01*
X137992702Y-135813097D01*
X138236671Y-135741514D01*
X138357571Y-135486004D01*
X138426300Y-135211816D01*
X138440217Y-134929488D01*
X138398787Y-134649870D01*
X138303603Y-134383708D01*
X138236671Y-134258486D01*
X137992702Y-134186903D01*
X137179605Y-135000000D01*
X136820395Y-135000000D01*
X136007298Y-134186903D01*
X135763329Y-134258486D01*
X135749676Y-134287341D01*
X135614637Y-134085241D01*
X135536694Y-134007298D01*
X136186903Y-134007298D01*
X137000000Y-134820395D01*
X137813097Y-134007298D01*
X137741514Y-133763329D01*
X137486004Y-133642429D01*
X137211816Y-133573700D01*
X136929488Y-133559783D01*
X136649870Y-133601213D01*
X136383708Y-133696397D01*
X136258486Y-133763329D01*
X136186903Y-134007298D01*
X135536694Y-134007298D01*
X135414759Y-133885363D01*
X135179727Y-133728320D01*
X134918574Y-133620147D01*
X134641335Y-133565000D01*
X134358665Y-133565000D01*
X134081426Y-133620147D01*
X133820273Y-133728320D01*
X133585241Y-133885363D01*
X133500000Y-133970604D01*
X133414759Y-133885363D01*
X133179727Y-133728320D01*
X132918574Y-133620147D01*
X132641335Y-133565000D01*
X132358665Y-133565000D01*
X132081426Y-133620147D01*
X131820273Y-133728320D01*
X131585241Y-133885363D01*
X131418661Y-134051943D01*
X131389502Y-133955820D01*
X131330537Y-133845506D01*
X131251185Y-133748815D01*
X131154494Y-133669463D01*
X131044180Y-133610498D01*
X130924482Y-133574188D01*
X130800000Y-133561928D01*
X129200000Y-133561928D01*
X129075518Y-133574188D01*
X128955820Y-133610498D01*
X128845506Y-133669463D01*
X128748815Y-133748815D01*
X128669463Y-133845506D01*
X128610498Y-133955820D01*
X128574188Y-134075518D01*
X128561928Y-134200000D01*
X119240542Y-134200000D01*
X119182012Y-134058698D01*
X118948363Y-133709017D01*
X118650983Y-133411637D01*
X118301302Y-133177988D01*
X117912756Y-133017047D01*
X117790366Y-132992702D01*
X119186903Y-132992702D01*
X119258486Y-133236671D01*
X119513996Y-133357571D01*
X119788184Y-133426300D01*
X120070512Y-133440217D01*
X120350130Y-133398787D01*
X120616292Y-133303603D01*
X120741514Y-133236671D01*
X120813097Y-132992702D01*
X120000000Y-132179605D01*
X119186903Y-132992702D01*
X117790366Y-132992702D01*
X117635000Y-132961798D01*
X117635000Y-132639608D01*
X117637875Y-132638762D01*
X117639847Y-132637731D01*
X117641980Y-132637087D01*
X117694781Y-132609012D01*
X117747703Y-132581345D01*
X117749437Y-132579951D01*
X117751404Y-132578905D01*
X117797737Y-132541117D01*
X117844286Y-132503690D01*
X117845717Y-132501985D01*
X117847443Y-132500577D01*
X117885539Y-132454527D01*
X117923947Y-132408754D01*
X117925020Y-132406802D01*
X117926439Y-132405087D01*
X117954851Y-132352539D01*
X117983651Y-132300153D01*
X117984325Y-132298029D01*
X117985383Y-132296072D01*
X118003034Y-132239050D01*
X118021124Y-132182024D01*
X118021373Y-132179808D01*
X118022030Y-132177684D01*
X118028276Y-132118257D01*
X118033631Y-132070512D01*
X118559783Y-132070512D01*
X118601213Y-132350130D01*
X118696397Y-132616292D01*
X118763329Y-132741514D01*
X119007298Y-132813097D01*
X119820395Y-132000000D01*
X120179605Y-132000000D01*
X120992702Y-132813097D01*
X121236671Y-132741514D01*
X121357571Y-132486004D01*
X121426300Y-132211816D01*
X121440217Y-131929488D01*
X121398787Y-131649870D01*
X121303603Y-131383708D01*
X121236671Y-131258486D01*
X120992702Y-131186903D01*
X120179605Y-132000000D01*
X119820395Y-132000000D01*
X119007298Y-131186903D01*
X118763329Y-131258486D01*
X118642429Y-131513996D01*
X118573700Y-131788184D01*
X118559783Y-132070512D01*
X118033631Y-132070512D01*
X118034938Y-132058866D01*
X118034968Y-132054596D01*
X118034985Y-132054433D01*
X118034970Y-132054270D01*
X118035000Y-132050000D01*
X118035000Y-131450000D01*
X118029166Y-131390495D01*
X118023752Y-131331013D01*
X118023125Y-131328882D01*
X118022907Y-131326661D01*
X118005612Y-131269379D01*
X117988762Y-131212125D01*
X117987731Y-131210153D01*
X117987087Y-131208020D01*
X117959012Y-131155219D01*
X117931345Y-131102297D01*
X117929951Y-131100563D01*
X117928905Y-131098596D01*
X117891117Y-131052263D01*
X117853690Y-131005714D01*
X117851985Y-131004283D01*
X117850577Y-131002557D01*
X117804527Y-130964461D01*
X117758754Y-130926053D01*
X117756802Y-130924980D01*
X117755087Y-130923561D01*
X117702539Y-130895149D01*
X117650153Y-130866349D01*
X117648029Y-130865675D01*
X117646072Y-130864617D01*
X117635000Y-130861190D01*
X117635000Y-124200000D01*
X118561928Y-124200000D01*
X118561928Y-125800000D01*
X118574188Y-125924482D01*
X118610498Y-126044180D01*
X118669463Y-126154494D01*
X118748815Y-126251185D01*
X118845506Y-126330537D01*
X118955820Y-126389502D01*
X119051943Y-126418661D01*
X118885363Y-126585241D01*
X118728320Y-126820273D01*
X118620147Y-127081426D01*
X118565000Y-127358665D01*
X118565000Y-127641335D01*
X118620147Y-127918574D01*
X118728320Y-128179727D01*
X118885363Y-128414759D01*
X118970604Y-128500000D01*
X118885363Y-128585241D01*
X118728320Y-128820273D01*
X118620147Y-129081426D01*
X118565000Y-129358665D01*
X118565000Y-129641335D01*
X118620147Y-129918574D01*
X118728320Y-130179727D01*
X118885363Y-130414759D01*
X119085241Y-130614637D01*
X119285869Y-130748692D01*
X119258486Y-130763329D01*
X119186903Y-131007298D01*
X120000000Y-131820395D01*
X120813097Y-131007298D01*
X120741514Y-130763329D01*
X120712659Y-130749676D01*
X120914759Y-130614637D01*
X121114637Y-130414759D01*
X121271680Y-130179727D01*
X121379853Y-129918574D01*
X121435000Y-129641335D01*
X121435000Y-129358665D01*
X121379853Y-129081426D01*
X121271680Y-128820273D01*
X121114637Y-128585241D01*
X121029396Y-128500000D01*
X121114637Y-128414759D01*
X121271680Y-128179727D01*
X121379853Y-127918574D01*
X121435000Y-127641335D01*
X121435000Y-127358665D01*
X121379853Y-127081426D01*
X121271680Y-126820273D01*
X121114637Y-126585241D01*
X120948057Y-126418661D01*
X121044180Y-126389502D01*
X121154494Y-126330537D01*
X121251185Y-126251185D01*
X121330537Y-126154494D01*
X121389502Y-126044180D01*
X121425812Y-125924482D01*
X121438072Y-125800000D01*
X121438072Y-124200000D01*
X121425812Y-124075518D01*
X121389502Y-123955820D01*
X121330537Y-123845506D01*
X121251185Y-123748815D01*
X121154494Y-123669463D01*
X121044180Y-123610498D01*
X120924482Y-123574188D01*
X120800000Y-123561928D01*
X119200000Y-123561928D01*
X119075518Y-123574188D01*
X118955820Y-123610498D01*
X118845506Y-123669463D01*
X118748815Y-123748815D01*
X118669463Y-123845506D01*
X118610498Y-123955820D01*
X118574188Y-124075518D01*
X118561928Y-124200000D01*
X117635000Y-124200000D01*
X117635000Y-124038202D01*
X117912756Y-123982953D01*
X118301302Y-123822012D01*
X118650983Y-123588363D01*
X118948363Y-123290983D01*
X119182012Y-122941302D01*
X119342953Y-122552756D01*
X119425000Y-122140279D01*
X119425000Y-121719721D01*
X119342953Y-121307244D01*
X119182012Y-120918698D01*
X118948363Y-120569017D01*
X118650983Y-120271637D01*
X118301302Y-120037988D01*
X117912756Y-119877047D01*
X117500279Y-119795000D01*
X117079721Y-119795000D01*
X116667244Y-119877047D01*
X116278698Y-120037988D01*
X115929017Y-120271637D01*
X115660000Y-120540654D01*
X115660000Y-116459346D01*
X115929017Y-116728363D01*
X116278698Y-116962012D01*
X116667244Y-117122953D01*
X117079721Y-117205000D01*
X117500279Y-117205000D01*
X117912756Y-117122953D01*
X118301302Y-116962012D01*
X118650983Y-116728363D01*
X118948363Y-116430983D01*
X119182012Y-116081302D01*
X119342953Y-115692756D01*
X119425000Y-115280279D01*
X119425000Y-114859721D01*
X119342953Y-114447244D01*
X119182012Y-114058698D01*
X118948363Y-113709017D01*
X118650983Y-113411637D01*
X118301302Y-113177988D01*
X117912756Y-113017047D01*
X117790366Y-112992702D01*
X119186903Y-112992702D01*
X119258486Y-113236671D01*
X119513996Y-113357571D01*
X119788184Y-113426300D01*
X120070512Y-113440217D01*
X120350130Y-113398787D01*
X120616292Y-113303603D01*
X120741514Y-113236671D01*
X120813097Y-112992702D01*
X120000000Y-112179605D01*
X119186903Y-112992702D01*
X117790366Y-112992702D01*
X117585000Y-112951852D01*
X117585000Y-112639608D01*
X117587875Y-112638762D01*
X117589847Y-112637731D01*
X117591980Y-112637087D01*
X117644781Y-112609012D01*
X117697703Y-112581345D01*
X117699437Y-112579951D01*
X117701404Y-112578905D01*
X117747737Y-112541117D01*
X117794286Y-112503690D01*
X117795717Y-112501985D01*
X117797443Y-112500577D01*
X117835539Y-112454527D01*
X117873947Y-112408754D01*
X117875020Y-112406802D01*
X117876439Y-112405087D01*
X117904851Y-112352539D01*
X117933651Y-112300153D01*
X117934325Y-112298029D01*
X117935383Y-112296072D01*
X117953048Y-112239005D01*
X117971124Y-112182024D01*
X117971373Y-112179808D01*
X117972030Y-112177684D01*
X117978276Y-112118257D01*
X117983631Y-112070512D01*
X118559783Y-112070512D01*
X118601213Y-112350130D01*
X118696397Y-112616292D01*
X118763329Y-112741514D01*
X119007298Y-112813097D01*
X119820395Y-112000000D01*
X120179605Y-112000000D01*
X120992702Y-112813097D01*
X121236671Y-112741514D01*
X121357571Y-112486004D01*
X121426300Y-112211816D01*
X121440217Y-111929488D01*
X121398787Y-111649870D01*
X121303603Y-111383708D01*
X121236671Y-111258486D01*
X120992702Y-111186903D01*
X120179605Y-112000000D01*
X119820395Y-112000000D01*
X119007298Y-111186903D01*
X118763329Y-111258486D01*
X118642429Y-111513996D01*
X118573700Y-111788184D01*
X118559783Y-112070512D01*
X117983631Y-112070512D01*
X117984938Y-112058866D01*
X117984968Y-112054596D01*
X117984985Y-112054433D01*
X117984970Y-112054270D01*
X117985000Y-112050000D01*
X117985000Y-111450000D01*
X117979166Y-111390495D01*
X117973752Y-111331013D01*
X117973125Y-111328882D01*
X117972907Y-111326661D01*
X117955612Y-111269379D01*
X117938762Y-111212125D01*
X117937731Y-111210153D01*
X117937087Y-111208020D01*
X117909012Y-111155219D01*
X117881345Y-111102297D01*
X117879951Y-111100563D01*
X117878905Y-111098596D01*
X117841117Y-111052263D01*
X117803690Y-111005714D01*
X117801985Y-111004283D01*
X117800577Y-111002557D01*
X117754527Y-110964461D01*
X117708754Y-110926053D01*
X117706802Y-110924980D01*
X117705087Y-110923561D01*
X117652539Y-110895149D01*
X117600153Y-110866349D01*
X117598029Y-110865675D01*
X117596072Y-110864617D01*
X117585000Y-110861190D01*
X117585000Y-104048148D01*
X117912756Y-103982953D01*
X118301302Y-103822012D01*
X118650983Y-103588363D01*
X118948363Y-103290983D01*
X119182012Y-102941302D01*
X119342953Y-102552756D01*
X119425000Y-102140279D01*
X119425000Y-101719721D01*
X119342953Y-101307244D01*
X119182012Y-100918698D01*
X118948363Y-100569017D01*
X118650983Y-100271637D01*
X118301302Y-100037988D01*
X117912756Y-99877047D01*
X117500279Y-99795000D01*
X117079721Y-99795000D01*
X116667244Y-99877047D01*
X116278698Y-100037988D01*
X115929017Y-100271637D01*
X115660000Y-100540654D01*
X115660000Y-98829117D01*
X119265000Y-98829117D01*
X119265000Y-99170883D01*
X119331675Y-99506081D01*
X119462463Y-99821831D01*
X119652337Y-100105998D01*
X119894002Y-100347663D01*
X120178169Y-100537537D01*
X120493919Y-100668325D01*
X120829117Y-100735000D01*
X121170883Y-100735000D01*
X121506081Y-100668325D01*
X121821831Y-100537537D01*
X122105998Y-100347663D01*
X122347663Y-100105998D01*
X122537537Y-99821831D01*
X122668325Y-99506081D01*
X122735000Y-99170883D01*
X122735000Y-98829117D01*
X122668325Y-98493919D01*
X122537537Y-98178169D01*
X122347663Y-97894002D01*
X122105998Y-97652337D01*
X121821831Y-97462463D01*
X121506081Y-97331675D01*
X121170883Y-97265000D01*
X120829117Y-97265000D01*
X120493919Y-97331675D01*
X120178169Y-97462463D01*
X119894002Y-97652337D01*
X119652337Y-97894002D01*
X119462463Y-98178169D01*
X119331675Y-98493919D01*
X119265000Y-98829117D01*
X115660000Y-98829117D01*
X115660000Y-95992702D01*
X121686903Y-95992702D01*
X121758486Y-96236671D01*
X122013996Y-96357571D01*
X122288184Y-96426300D01*
X122570512Y-96440217D01*
X122850130Y-96398787D01*
X123116292Y-96303603D01*
X123241514Y-96236671D01*
X123313097Y-95992702D01*
X122500000Y-95179605D01*
X121686903Y-95992702D01*
X115660000Y-95992702D01*
X115660000Y-95070512D01*
X121059783Y-95070512D01*
X121101213Y-95350130D01*
X121196397Y-95616292D01*
X121263329Y-95741514D01*
X121507298Y-95813097D01*
X122320395Y-95000000D01*
X121507298Y-94186903D01*
X121263329Y-94258486D01*
X121142429Y-94513996D01*
X121073700Y-94788184D01*
X121059783Y-95070512D01*
X115660000Y-95070512D01*
X115660000Y-95029392D01*
X115731173Y-94231917D01*
X115934656Y-93488109D01*
X116266638Y-92792095D01*
X116716626Y-92165870D01*
X117270403Y-91629223D01*
X117440002Y-91515257D01*
X117377047Y-91667244D01*
X117295000Y-92079721D01*
X117295000Y-92500279D01*
X117377047Y-92912756D01*
X117537988Y-93301302D01*
X117771637Y-93650983D01*
X118069017Y-93948363D01*
X118418698Y-94182012D01*
X118807244Y-94342953D01*
X119219721Y-94425000D01*
X119640279Y-94425000D01*
X120052756Y-94342953D01*
X120441302Y-94182012D01*
X120702780Y-94007298D01*
X121686903Y-94007298D01*
X122500000Y-94820395D01*
X123313097Y-94007298D01*
X123241514Y-93763329D01*
X122986004Y-93642429D01*
X122711816Y-93573700D01*
X122429488Y-93559783D01*
X122149870Y-93601213D01*
X121883708Y-93696397D01*
X121758486Y-93763329D01*
X121686903Y-94007298D01*
X120702780Y-94007298D01*
X120790983Y-93948363D01*
X121088363Y-93650983D01*
X121322012Y-93301302D01*
X121482953Y-92912756D01*
X121548148Y-92585000D01*
X121860392Y-92585000D01*
X121861238Y-92587875D01*
X121862269Y-92589847D01*
X121862913Y-92591980D01*
X121890988Y-92644781D01*
X121918655Y-92697703D01*
X121920049Y-92699437D01*
X121921095Y-92701404D01*
X121958883Y-92747737D01*
X121996310Y-92794286D01*
X121998015Y-92795717D01*
X121999423Y-92797443D01*
X122045473Y-92835539D01*
X122091246Y-92873947D01*
X122093198Y-92875020D01*
X122094913Y-92876439D01*
X122147461Y-92904851D01*
X122199847Y-92933651D01*
X122201971Y-92934325D01*
X122203928Y-92935383D01*
X122260950Y-92953034D01*
X122317976Y-92971124D01*
X122320192Y-92971373D01*
X122322316Y-92972030D01*
X122381743Y-92978276D01*
X122441134Y-92984938D01*
X122445404Y-92984968D01*
X122445567Y-92984985D01*
X122445730Y-92984970D01*
X122450000Y-92985000D01*
X123050000Y-92985000D01*
X123109505Y-92979166D01*
X123168987Y-92973752D01*
X123171118Y-92973125D01*
X123173339Y-92972907D01*
X123230621Y-92955612D01*
X123287875Y-92938762D01*
X123289847Y-92937731D01*
X123291980Y-92937087D01*
X123344781Y-92909012D01*
X123397703Y-92881345D01*
X123399437Y-92879951D01*
X123401404Y-92878905D01*
X123447737Y-92841117D01*
X123494286Y-92803690D01*
X123495717Y-92801985D01*
X123497443Y-92800577D01*
X123535539Y-92754527D01*
X123573947Y-92708754D01*
X123575020Y-92706802D01*
X123576439Y-92705087D01*
X123604851Y-92652539D01*
X123633651Y-92600153D01*
X123634325Y-92598029D01*
X123635383Y-92596072D01*
X123638810Y-92585000D01*
X130451852Y-92585000D01*
X130517047Y-92912756D01*
X130677988Y-93301302D01*
X130911637Y-93650983D01*
X131209017Y-93948363D01*
X131558698Y-94182012D01*
X131947244Y-94342953D01*
X132359721Y-94425000D01*
X132780279Y-94425000D01*
X133192756Y-94342953D01*
X133581302Y-94182012D01*
X133930983Y-93948363D01*
X134228363Y-93650983D01*
X134462012Y-93301302D01*
X134622953Y-92912756D01*
X134705000Y-92500279D01*
X134705000Y-92079721D01*
X134676265Y-91935260D01*
X155808964Y-91935260D01*
X155929622Y-92173000D01*
X158273000Y-92173000D01*
X158273000Y-90765000D01*
X158527000Y-90765000D01*
X158527000Y-92173000D01*
X160870378Y-92173000D01*
X160991036Y-91935260D01*
X160966755Y-91829913D01*
X160846862Y-91552796D01*
X160675210Y-91304394D01*
X160458396Y-91094252D01*
X160204751Y-90930446D01*
X159924023Y-90819271D01*
X159627000Y-90765000D01*
X158527000Y-90765000D01*
X158273000Y-90765000D01*
X157173000Y-90765000D01*
X156875977Y-90819271D01*
X156595249Y-90930446D01*
X156341604Y-91094252D01*
X156124790Y-91304394D01*
X155953138Y-91552796D01*
X155833245Y-91829913D01*
X155808964Y-91935260D01*
X134676265Y-91935260D01*
X134622953Y-91667244D01*
X134462012Y-91278698D01*
X134228363Y-90929017D01*
X133959346Y-90660000D01*
X159970608Y-90660000D01*
X160768083Y-90731173D01*
G37*
X160768083Y-90731173D02*
X161511891Y-90934656D01*
X162207905Y-91266638D01*
X162834130Y-91716626D01*
X163370777Y-92270403D01*
X163800871Y-92910451D01*
X164110829Y-93616553D01*
X164292065Y-94371457D01*
X164340001Y-95024220D01*
X164340001Y-110362094D01*
X164103411Y-110204010D01*
X163833158Y-110092068D01*
X163546260Y-110035000D01*
X163253740Y-110035000D01*
X162966842Y-110092068D01*
X162696589Y-110204010D01*
X162453368Y-110366525D01*
X162246525Y-110573368D01*
X162130000Y-110747760D01*
X162013475Y-110573368D01*
X161806632Y-110366525D01*
X161563411Y-110204010D01*
X161293158Y-110092068D01*
X161006260Y-110035000D01*
X160713740Y-110035000D01*
X160426842Y-110092068D01*
X160156589Y-110204010D01*
X159913368Y-110366525D01*
X159706525Y-110573368D01*
X159544010Y-110816589D01*
X159432068Y-111086842D01*
X159375000Y-111373740D01*
X159375000Y-111666260D01*
X159432068Y-111953158D01*
X159544010Y-112223411D01*
X159706525Y-112466632D01*
X159913368Y-112673475D01*
X160087760Y-112790000D01*
X159913368Y-112906525D01*
X159706525Y-113113368D01*
X159544010Y-113356589D01*
X159432068Y-113626842D01*
X159375000Y-113913740D01*
X159375000Y-114206260D01*
X159432068Y-114493158D01*
X159492063Y-114638000D01*
X158215630Y-114638000D01*
X155135000Y-111557370D01*
X155135000Y-111498061D01*
X155095226Y-111298102D01*
X155017205Y-111109744D01*
X154903937Y-110940226D01*
X154759774Y-110796063D01*
X154590256Y-110682795D01*
X154401898Y-110604774D01*
X154201939Y-110565000D01*
X153998061Y-110565000D01*
X153798102Y-110604774D01*
X153609744Y-110682795D01*
X153440226Y-110796063D01*
X153435001Y-110801288D01*
X153435001Y-109013934D01*
X153439525Y-108967999D01*
X153421473Y-108784707D01*
X153368008Y-108608458D01*
X153331459Y-108540080D01*
X153281187Y-108446027D01*
X153164345Y-108303655D01*
X153128660Y-108274369D01*
X152476991Y-107622700D01*
X152490256Y-107617205D01*
X152659774Y-107503937D01*
X152803937Y-107359774D01*
X152917205Y-107190256D01*
X152995226Y-107001898D01*
X153035000Y-106801939D01*
X153035000Y-106598061D01*
X152995226Y-106398102D01*
X152917205Y-106209744D01*
X152803937Y-106040226D01*
X152659774Y-105896063D01*
X152490256Y-105782795D01*
X152301898Y-105704774D01*
X152101939Y-105665000D01*
X151898061Y-105665000D01*
X151698102Y-105704774D01*
X151509744Y-105782795D01*
X151340226Y-105896063D01*
X151196063Y-106040226D01*
X151082795Y-106209744D01*
X151004774Y-106398102D01*
X150999070Y-106426780D01*
X149548719Y-104976429D01*
X149609744Y-105017205D01*
X149798102Y-105095226D01*
X149998061Y-105135000D01*
X150201939Y-105135000D01*
X150401898Y-105095226D01*
X150590256Y-105017205D01*
X150759774Y-104903937D01*
X150903937Y-104759774D01*
X151017205Y-104590256D01*
X151095226Y-104401898D01*
X151135000Y-104201939D01*
X151135000Y-103998061D01*
X151115109Y-103898061D01*
X152865000Y-103898061D01*
X152865000Y-104101939D01*
X152904774Y-104301898D01*
X152982795Y-104490256D01*
X153096063Y-104659774D01*
X153240226Y-104803937D01*
X153409744Y-104917205D01*
X153416348Y-104919941D01*
X153321063Y-105015226D01*
X153207795Y-105184744D01*
X153129774Y-105373102D01*
X153090000Y-105573061D01*
X153090000Y-105776939D01*
X153129774Y-105976898D01*
X153207795Y-106165256D01*
X153281123Y-106275000D01*
X153207795Y-106384744D01*
X153129774Y-106573102D01*
X153090000Y-106773061D01*
X153090000Y-106976939D01*
X153129774Y-107176898D01*
X153207795Y-107365256D01*
X153321063Y-107534774D01*
X153465226Y-107678937D01*
X153634744Y-107792205D01*
X153823102Y-107870226D01*
X154023061Y-107910000D01*
X154226939Y-107910000D01*
X154426898Y-107870226D01*
X154615256Y-107792205D01*
X154784774Y-107678937D01*
X154928937Y-107534774D01*
X155042205Y-107365256D01*
X155120226Y-107176898D01*
X155160000Y-106976939D01*
X155160000Y-106773061D01*
X155120226Y-106573102D01*
X155042205Y-106384744D01*
X154968877Y-106275000D01*
X155042205Y-106165256D01*
X155120226Y-105976898D01*
X155160000Y-105776939D01*
X155160000Y-105573061D01*
X155120226Y-105373102D01*
X155042205Y-105184744D01*
X154928937Y-105015226D01*
X154911627Y-104997916D01*
X155098061Y-105035000D01*
X155301939Y-105035000D01*
X155501898Y-104995226D01*
X155690256Y-104917205D01*
X155800000Y-104843877D01*
X155909744Y-104917205D01*
X156098102Y-104995226D01*
X156298061Y-105035000D01*
X156501939Y-105035000D01*
X156701898Y-104995226D01*
X156890256Y-104917205D01*
X157059774Y-104803937D01*
X157065650Y-104798061D01*
X161365000Y-104798061D01*
X161365000Y-105001939D01*
X161404774Y-105201898D01*
X161482795Y-105390256D01*
X161596063Y-105559774D01*
X161740226Y-105703937D01*
X161909744Y-105817205D01*
X162098102Y-105895226D01*
X162298061Y-105935000D01*
X162501939Y-105935000D01*
X162701898Y-105895226D01*
X162890256Y-105817205D01*
X163059774Y-105703937D01*
X163203937Y-105559774D01*
X163317205Y-105390256D01*
X163395226Y-105201898D01*
X163435000Y-105001939D01*
X163435000Y-104798061D01*
X163395226Y-104598102D01*
X163317205Y-104409744D01*
X163203937Y-104240226D01*
X163059774Y-104096063D01*
X162890256Y-103982795D01*
X162701898Y-103904774D01*
X162501939Y-103865000D01*
X162298061Y-103865000D01*
X162098102Y-103904774D01*
X161909744Y-103982795D01*
X161740226Y-104096063D01*
X161596063Y-104240226D01*
X161482795Y-104409744D01*
X161404774Y-104598102D01*
X161365000Y-104798061D01*
X157065650Y-104798061D01*
X157203937Y-104659774D01*
X157317205Y-104490256D01*
X157395226Y-104301898D01*
X157435000Y-104101939D01*
X157435000Y-103898061D01*
X157395226Y-103698102D01*
X157317205Y-103509744D01*
X157203937Y-103340226D01*
X157059774Y-103196063D01*
X156890256Y-103082795D01*
X156701898Y-103004774D01*
X156501939Y-102965000D01*
X156298061Y-102965000D01*
X156098102Y-103004774D01*
X155909744Y-103082795D01*
X155800000Y-103156123D01*
X155690256Y-103082795D01*
X155501898Y-103004774D01*
X155301939Y-102965000D01*
X155098061Y-102965000D01*
X154898102Y-103004774D01*
X154709744Y-103082795D01*
X154550000Y-103189532D01*
X154390256Y-103082795D01*
X154201898Y-103004774D01*
X154001939Y-102965000D01*
X153798061Y-102965000D01*
X153598102Y-103004774D01*
X153409744Y-103082795D01*
X153240226Y-103196063D01*
X153096063Y-103340226D01*
X152982795Y-103509744D01*
X152904774Y-103698102D01*
X152865000Y-103898061D01*
X151115109Y-103898061D01*
X151095226Y-103798102D01*
X151017205Y-103609744D01*
X150903937Y-103440226D01*
X150759774Y-103296063D01*
X150590256Y-103182795D01*
X150401898Y-103104774D01*
X150201939Y-103065000D01*
X149998061Y-103065000D01*
X149798102Y-103104774D01*
X149609744Y-103182795D01*
X149440226Y-103296063D01*
X149296063Y-103440226D01*
X149182795Y-103609744D01*
X149104774Y-103798102D01*
X149065000Y-103998061D01*
X149065000Y-104201939D01*
X149104774Y-104401898D01*
X149182795Y-104590256D01*
X149223571Y-104651282D01*
X148815000Y-104242711D01*
X148815000Y-102879701D01*
X148854482Y-102875812D01*
X148974180Y-102839502D01*
X149084494Y-102780537D01*
X149181185Y-102701185D01*
X149260537Y-102604494D01*
X149319502Y-102494180D01*
X149355812Y-102374482D01*
X149368072Y-102250000D01*
X149368072Y-101198061D01*
X150965000Y-101198061D01*
X150965000Y-101401939D01*
X151004774Y-101601898D01*
X151082795Y-101790256D01*
X151196063Y-101959774D01*
X151340226Y-102103937D01*
X151509744Y-102217205D01*
X151698102Y-102295226D01*
X151898061Y-102335000D01*
X152101939Y-102335000D01*
X152301898Y-102295226D01*
X152490256Y-102217205D01*
X152659774Y-102103937D01*
X152803937Y-101959774D01*
X152917205Y-101790256D01*
X152995226Y-101601898D01*
X153035000Y-101401939D01*
X153035000Y-101198061D01*
X152995226Y-100998102D01*
X152917205Y-100809744D01*
X152803937Y-100640226D01*
X152659774Y-100496063D01*
X152490256Y-100382795D01*
X152301898Y-100304774D01*
X152101939Y-100265000D01*
X151898061Y-100265000D01*
X151698102Y-100304774D01*
X151509744Y-100382795D01*
X151340226Y-100496063D01*
X151196063Y-100640226D01*
X151082795Y-100809744D01*
X151004774Y-100998102D01*
X150965000Y-101198061D01*
X149368072Y-101198061D01*
X149368072Y-100550000D01*
X149355812Y-100425518D01*
X149319502Y-100305820D01*
X149260537Y-100195506D01*
X149181185Y-100098815D01*
X149084494Y-100019463D01*
X148974180Y-99960498D01*
X148854482Y-99924188D01*
X148730000Y-99911928D01*
X147030000Y-99911928D01*
X146905518Y-99924188D01*
X146785820Y-99960498D01*
X146675506Y-100019463D01*
X146578815Y-100098815D01*
X146499463Y-100195506D01*
X146440498Y-100305820D01*
X146418487Y-100378380D01*
X146286632Y-100246525D01*
X146043411Y-100084010D01*
X145773158Y-99972068D01*
X145486260Y-99915000D01*
X145193740Y-99915000D01*
X144906842Y-99972068D01*
X144636589Y-100084010D01*
X144393368Y-100246525D01*
X144186525Y-100453368D01*
X144070000Y-100627760D01*
X143953475Y-100453368D01*
X143746632Y-100246525D01*
X143503411Y-100084010D01*
X143233158Y-99972068D01*
X142946260Y-99915000D01*
X142653740Y-99915000D01*
X142366842Y-99972068D01*
X142096589Y-100084010D01*
X141853368Y-100246525D01*
X141646525Y-100453368D01*
X141524805Y-100635534D01*
X141455178Y-100518645D01*
X141260269Y-100302412D01*
X141026920Y-100128359D01*
X140764099Y-100003175D01*
X140616890Y-99958524D01*
X140387000Y-100079845D01*
X140387000Y-101273000D01*
X140407000Y-101273000D01*
X140407000Y-101527000D01*
X140387000Y-101527000D01*
X140387000Y-102720155D01*
X140616890Y-102841476D01*
X140764099Y-102796825D01*
X141026920Y-102671641D01*
X141260269Y-102497588D01*
X141455178Y-102281355D01*
X141524805Y-102164466D01*
X141646525Y-102346632D01*
X141853368Y-102553475D01*
X142096589Y-102715990D01*
X142366842Y-102827932D01*
X142653740Y-102885000D01*
X142946260Y-102885000D01*
X143110000Y-102852430D01*
X143110001Y-105232352D01*
X141102354Y-107240000D01*
X133292894Y-107240000D01*
X133256799Y-107236445D01*
X133220704Y-107240000D01*
X133220695Y-107240000D01*
X133112715Y-107250635D01*
X132974167Y-107292663D01*
X132846480Y-107360913D01*
X132734562Y-107452762D01*
X132711546Y-107480807D01*
X130780808Y-109411546D01*
X130752762Y-109434563D01*
X130660913Y-109546481D01*
X130592663Y-109674168D01*
X130569907Y-109749184D01*
X130550635Y-109812715D01*
X130536444Y-109956800D01*
X130540000Y-109992905D01*
X130540001Y-112807085D01*
X130536444Y-112843200D01*
X130550635Y-112987285D01*
X130587073Y-113107402D01*
X130592664Y-113125833D01*
X130660914Y-113253520D01*
X130752763Y-113365438D01*
X130780808Y-113388454D01*
X131186541Y-113794187D01*
X131209562Y-113822238D01*
X131306628Y-113901898D01*
X131321480Y-113914087D01*
X131449166Y-113982337D01*
X131587715Y-114024365D01*
X131731800Y-114038556D01*
X131767905Y-114035000D01*
X132721289Y-114035000D01*
X132790226Y-114103937D01*
X132959744Y-114217205D01*
X133148102Y-114295226D01*
X133348061Y-114335000D01*
X133551939Y-114335000D01*
X133751898Y-114295226D01*
X133940256Y-114217205D01*
X134109774Y-114103937D01*
X134253937Y-113959774D01*
X134367205Y-113790256D01*
X134379177Y-113761353D01*
X134498061Y-113785000D01*
X134701939Y-113785000D01*
X134901898Y-113745226D01*
X135090256Y-113667205D01*
X135259774Y-113553937D01*
X135403937Y-113409774D01*
X135517205Y-113240256D01*
X135595226Y-113051898D01*
X135635000Y-112851939D01*
X135635000Y-112648061D01*
X135595226Y-112448102D01*
X135517205Y-112259744D01*
X135403937Y-112090226D01*
X135259774Y-111946063D01*
X135090256Y-111832795D01*
X134901898Y-111754774D01*
X134701939Y-111715000D01*
X134498061Y-111715000D01*
X134298102Y-111754774D01*
X134109744Y-111832795D01*
X133953060Y-111937487D01*
X133945226Y-111898102D01*
X133867205Y-111709744D01*
X133753937Y-111540226D01*
X133609774Y-111396063D01*
X133440256Y-111282795D01*
X133251898Y-111204774D01*
X133051939Y-111165000D01*
X132848061Y-111165000D01*
X132648102Y-111204774D01*
X132460000Y-111282689D01*
X132460000Y-110447646D01*
X133747647Y-109160000D01*
X136858936Y-109160000D01*
X136865878Y-109188560D01*
X136878842Y-109249273D01*
X136897278Y-109292074D01*
X136902442Y-109306832D01*
X136914715Y-109351794D01*
X136942432Y-109407342D01*
X136968583Y-109463651D01*
X136996088Y-109501285D01*
X137004396Y-109514508D01*
X137026364Y-109555607D01*
X137065750Y-109603600D01*
X137103773Y-109652675D01*
X137138956Y-109683240D01*
X137150003Y-109694287D01*
X137180566Y-109729468D01*
X137229634Y-109767485D01*
X137277633Y-109806877D01*
X137318735Y-109828847D01*
X137331960Y-109837156D01*
X137369590Y-109864658D01*
X137425891Y-109890805D01*
X137481447Y-109918526D01*
X137526409Y-109930799D01*
X137541157Y-109935960D01*
X137583958Y-109954396D01*
X137644671Y-109967361D01*
X137704998Y-109982023D01*
X137751559Y-109983984D01*
X137767088Y-109985733D01*
X137812929Y-109994185D01*
X137875015Y-109993313D01*
X137937072Y-109994184D01*
X137982905Y-109985734D01*
X137998441Y-109983984D01*
X138045001Y-109982023D01*
X138105328Y-109967361D01*
X138166041Y-109954396D01*
X138208838Y-109935961D01*
X138223590Y-109930799D01*
X138268552Y-109918526D01*
X138324100Y-109890809D01*
X138380409Y-109864658D01*
X138418043Y-109837153D01*
X138431266Y-109828845D01*
X138472365Y-109806877D01*
X138474999Y-109804715D01*
X138477633Y-109806877D01*
X138518735Y-109828847D01*
X138531960Y-109837156D01*
X138569590Y-109864658D01*
X138625891Y-109890805D01*
X138681447Y-109918526D01*
X138726409Y-109930799D01*
X138741157Y-109935960D01*
X138783958Y-109954396D01*
X138844671Y-109967361D01*
X138904998Y-109982023D01*
X138951559Y-109983984D01*
X138967088Y-109985733D01*
X139012929Y-109994185D01*
X139075015Y-109993313D01*
X139137072Y-109994184D01*
X139182905Y-109985734D01*
X139198441Y-109983984D01*
X139245001Y-109982023D01*
X139305328Y-109967361D01*
X139366041Y-109954396D01*
X139408838Y-109935961D01*
X139423590Y-109930799D01*
X139468552Y-109918526D01*
X139524100Y-109890809D01*
X139580409Y-109864658D01*
X139618043Y-109837153D01*
X139631266Y-109828845D01*
X139672365Y-109806877D01*
X139674999Y-109804715D01*
X139677633Y-109806877D01*
X139718735Y-109828847D01*
X139731960Y-109837156D01*
X139769590Y-109864658D01*
X139825891Y-109890805D01*
X139881447Y-109918526D01*
X139926409Y-109930799D01*
X139941157Y-109935960D01*
X139983958Y-109954396D01*
X140044671Y-109967361D01*
X140104998Y-109982023D01*
X140151559Y-109983984D01*
X140167088Y-109985733D01*
X140212929Y-109994185D01*
X140275015Y-109993313D01*
X140337072Y-109994184D01*
X140382905Y-109985734D01*
X140398441Y-109983984D01*
X140445001Y-109982023D01*
X140505328Y-109967361D01*
X140566041Y-109954396D01*
X140608838Y-109935961D01*
X140623590Y-109930799D01*
X140668552Y-109918526D01*
X140724100Y-109890809D01*
X140775342Y-109867011D01*
X135002354Y-115640000D01*
X130185000Y-115640000D01*
X130185000Y-115448061D01*
X130145226Y-115248102D01*
X130067205Y-115059744D01*
X130062712Y-115053020D01*
X130101898Y-115045226D01*
X130290256Y-114967205D01*
X130459774Y-114853937D01*
X130603937Y-114709774D01*
X130717205Y-114540256D01*
X130795226Y-114351898D01*
X130835000Y-114151939D01*
X130835000Y-113948061D01*
X130795226Y-113748102D01*
X130717205Y-113559744D01*
X130603937Y-113390226D01*
X130459774Y-113246063D01*
X130290256Y-113132795D01*
X130101898Y-113054774D01*
X129901939Y-113015000D01*
X129698061Y-113015000D01*
X129498102Y-113054774D01*
X129435000Y-113080912D01*
X129435000Y-101756891D01*
X138818519Y-101756891D01*
X138915843Y-102031252D01*
X139064822Y-102281355D01*
X139259731Y-102497588D01*
X139493080Y-102671641D01*
X139755901Y-102796825D01*
X139903110Y-102841476D01*
X140133000Y-102720155D01*
X140133000Y-101527000D01*
X138939186Y-101527000D01*
X138818519Y-101756891D01*
X129435000Y-101756891D01*
X129435000Y-101043109D01*
X138818519Y-101043109D01*
X138939186Y-101273000D01*
X140133000Y-101273000D01*
X140133000Y-100079845D01*
X139903110Y-99958524D01*
X139755901Y-100003175D01*
X139493080Y-100128359D01*
X139259731Y-100302412D01*
X139064822Y-100518645D01*
X138915843Y-100768748D01*
X138818519Y-101043109D01*
X129435000Y-101043109D01*
X129435000Y-99167905D01*
X129438556Y-99131800D01*
X129424365Y-98987715D01*
X129382337Y-98849166D01*
X129314087Y-98721480D01*
X129245253Y-98637606D01*
X129222238Y-98609562D01*
X129194193Y-98586546D01*
X127042646Y-96435000D01*
X127141335Y-96435000D01*
X127418574Y-96379853D01*
X127679727Y-96271680D01*
X127914759Y-96114637D01*
X128081339Y-95948057D01*
X128110498Y-96044180D01*
X128169463Y-96154494D01*
X128248815Y-96251185D01*
X128345506Y-96330537D01*
X128455820Y-96389502D01*
X128575518Y-96425812D01*
X128700000Y-96438072D01*
X130300000Y-96438072D01*
X130424482Y-96425812D01*
X130544180Y-96389502D01*
X130654494Y-96330537D01*
X130721670Y-96275407D01*
X152065000Y-96275407D01*
X152087210Y-96500912D01*
X152174983Y-96790260D01*
X152317519Y-97056926D01*
X152509339Y-97290661D01*
X152743073Y-97482481D01*
X153009739Y-97625017D01*
X153299087Y-97712790D01*
X153600000Y-97742427D01*
X153900912Y-97712790D01*
X154190260Y-97625017D01*
X154456926Y-97482481D01*
X154690661Y-97290661D01*
X154765064Y-97200000D01*
X155561928Y-97200000D01*
X155561928Y-99000000D01*
X155574188Y-99124482D01*
X155610498Y-99244180D01*
X155669463Y-99354494D01*
X155748815Y-99451185D01*
X155845506Y-99530537D01*
X155955820Y-99589502D01*
X155989495Y-99599717D01*
X155982795Y-99609744D01*
X155904774Y-99798102D01*
X155865000Y-99998061D01*
X155865000Y-100201939D01*
X155904774Y-100401898D01*
X155982795Y-100590256D01*
X156096063Y-100759774D01*
X156240226Y-100903937D01*
X156409744Y-101017205D01*
X156598102Y-101095226D01*
X156798061Y-101135000D01*
X157001939Y-101135000D01*
X157201898Y-101095226D01*
X157390256Y-101017205D01*
X157559774Y-100903937D01*
X157600000Y-100863711D01*
X157640226Y-100903937D01*
X157809744Y-101017205D01*
X157998102Y-101095226D01*
X158198061Y-101135000D01*
X158401939Y-101135000D01*
X158601898Y-101095226D01*
X158790256Y-101017205D01*
X158950000Y-100910468D01*
X159109744Y-101017205D01*
X159298102Y-101095226D01*
X159498061Y-101135000D01*
X159701939Y-101135000D01*
X159901898Y-101095226D01*
X160090256Y-101017205D01*
X160259774Y-100903937D01*
X160403937Y-100759774D01*
X160517205Y-100590256D01*
X160595226Y-100401898D01*
X160635000Y-100201939D01*
X160635000Y-99998061D01*
X160595226Y-99798102D01*
X160528939Y-99638072D01*
X160600000Y-99638072D01*
X160724482Y-99625812D01*
X160844180Y-99589502D01*
X160954494Y-99530537D01*
X161051185Y-99451185D01*
X161130537Y-99354494D01*
X161189502Y-99244180D01*
X161225812Y-99124482D01*
X161238072Y-99000000D01*
X161238072Y-97200000D01*
X161225812Y-97075518D01*
X161189502Y-96955820D01*
X161130537Y-96845506D01*
X161051185Y-96748815D01*
X160954494Y-96669463D01*
X160844180Y-96610498D01*
X160724482Y-96574188D01*
X160600000Y-96561928D01*
X156200000Y-96561928D01*
X156075518Y-96574188D01*
X155955820Y-96610498D01*
X155845506Y-96669463D01*
X155748815Y-96748815D01*
X155669463Y-96845506D01*
X155610498Y-96955820D01*
X155574188Y-97075518D01*
X155561928Y-97200000D01*
X154765064Y-97200000D01*
X154882481Y-97056927D01*
X155025017Y-96790261D01*
X155112790Y-96500913D01*
X155135000Y-96275408D01*
X155135000Y-93924592D01*
X155112790Y-93699087D01*
X155025017Y-93409739D01*
X154882481Y-93143073D01*
X154690661Y-92909339D01*
X154456927Y-92717519D01*
X154358185Y-92664740D01*
X155808964Y-92664740D01*
X155833245Y-92770087D01*
X155953138Y-93047204D01*
X156124790Y-93295606D01*
X156341604Y-93505748D01*
X156595249Y-93669554D01*
X156875977Y-93780729D01*
X157173000Y-93835000D01*
X158273000Y-93835000D01*
X158273000Y-92427000D01*
X158527000Y-92427000D01*
X158527000Y-93835000D01*
X159627000Y-93835000D01*
X159924023Y-93780729D01*
X160204751Y-93669554D01*
X160458396Y-93505748D01*
X160675210Y-93295606D01*
X160846862Y-93047204D01*
X160966755Y-92770087D01*
X160991036Y-92664740D01*
X160870378Y-92427000D01*
X158527000Y-92427000D01*
X158273000Y-92427000D01*
X155929622Y-92427000D01*
X155808964Y-92664740D01*
X154358185Y-92664740D01*
X154190261Y-92574983D01*
X153900913Y-92487210D01*
X153600000Y-92457573D01*
X153299088Y-92487210D01*
X153009740Y-92574983D01*
X152743074Y-92717519D01*
X152509340Y-92909339D01*
X152317520Y-93143073D01*
X152174984Y-93409739D01*
X152087211Y-93699087D01*
X152065001Y-93924592D01*
X152065000Y-96275407D01*
X130721670Y-96275407D01*
X130751185Y-96251185D01*
X130830537Y-96154494D01*
X130889502Y-96044180D01*
X130925812Y-95924482D01*
X130938072Y-95800000D01*
X130938072Y-94200000D01*
X130925812Y-94075518D01*
X130889502Y-93955820D01*
X130830537Y-93845506D01*
X130751185Y-93748815D01*
X130654494Y-93669463D01*
X130544180Y-93610498D01*
X130424482Y-93574188D01*
X130300000Y-93561928D01*
X128700000Y-93561928D01*
X128575518Y-93574188D01*
X128455820Y-93610498D01*
X128345506Y-93669463D01*
X128248815Y-93748815D01*
X128169463Y-93845506D01*
X128110498Y-93955820D01*
X128081339Y-94051943D01*
X127914759Y-93885363D01*
X127679727Y-93728320D01*
X127418574Y-93620147D01*
X127141335Y-93565000D01*
X126858665Y-93565000D01*
X126581426Y-93620147D01*
X126320273Y-93728320D01*
X126085241Y-93885363D01*
X126000000Y-93970604D01*
X125914759Y-93885363D01*
X125679727Y-93728320D01*
X125418574Y-93620147D01*
X125141335Y-93565000D01*
X124858665Y-93565000D01*
X124581426Y-93620147D01*
X124320273Y-93728320D01*
X124085241Y-93885363D01*
X123885363Y-94085241D01*
X123751308Y-94285869D01*
X123736671Y-94258486D01*
X123492702Y-94186903D01*
X122679605Y-95000000D01*
X123492702Y-95813097D01*
X123736671Y-95741514D01*
X123750324Y-95712659D01*
X123885363Y-95914759D01*
X124085241Y-96114637D01*
X124320273Y-96271680D01*
X124581426Y-96379853D01*
X124858665Y-96435000D01*
X125040001Y-96435000D01*
X125040001Y-96807085D01*
X125036444Y-96843200D01*
X125050635Y-96987285D01*
X125077401Y-97075518D01*
X125092664Y-97125833D01*
X125160914Y-97253520D01*
X125252763Y-97365438D01*
X125280808Y-97388454D01*
X127515000Y-99622647D01*
X127515001Y-114551413D01*
X127498102Y-114554774D01*
X127309744Y-114632795D01*
X127140226Y-114746063D01*
X126996063Y-114890226D01*
X126882795Y-115059744D01*
X126804774Y-115248102D01*
X126765000Y-115448061D01*
X126765000Y-115651939D01*
X126804774Y-115851898D01*
X126882795Y-116040256D01*
X126940401Y-116126469D01*
X126798102Y-116154774D01*
X126609744Y-116232795D01*
X126440226Y-116346063D01*
X126296063Y-116490226D01*
X126256734Y-116549087D01*
X125160000Y-115452354D01*
X125160000Y-111961104D01*
X125163556Y-111924999D01*
X125149365Y-111780914D01*
X125131120Y-111720769D01*
X125107337Y-111642367D01*
X125039087Y-111514680D01*
X124947238Y-111402762D01*
X124919193Y-111379746D01*
X121392822Y-107853376D01*
X121435000Y-107641335D01*
X121435000Y-107358665D01*
X121379853Y-107081426D01*
X121271680Y-106820273D01*
X121114637Y-106585241D01*
X120948057Y-106418661D01*
X121044180Y-106389502D01*
X121154494Y-106330537D01*
X121251185Y-106251185D01*
X121330537Y-106154494D01*
X121389502Y-106044180D01*
X121425812Y-105924482D01*
X121438072Y-105800000D01*
X121438072Y-104200000D01*
X121425812Y-104075518D01*
X121389502Y-103955820D01*
X121330537Y-103845506D01*
X121251185Y-103748815D01*
X121154494Y-103669463D01*
X121044180Y-103610498D01*
X120924482Y-103574188D01*
X120800000Y-103561928D01*
X119200000Y-103561928D01*
X119075518Y-103574188D01*
X118955820Y-103610498D01*
X118845506Y-103669463D01*
X118748815Y-103748815D01*
X118669463Y-103845506D01*
X118610498Y-103955820D01*
X118574188Y-104075518D01*
X118561928Y-104200000D01*
X118561928Y-105800000D01*
X118574188Y-105924482D01*
X118610498Y-106044180D01*
X118669463Y-106154494D01*
X118748815Y-106251185D01*
X118845506Y-106330537D01*
X118955820Y-106389502D01*
X119051943Y-106418661D01*
X118885363Y-106585241D01*
X118728320Y-106820273D01*
X118620147Y-107081426D01*
X118565000Y-107358665D01*
X118565000Y-107641335D01*
X118620147Y-107918574D01*
X118728320Y-108179727D01*
X118885363Y-108414759D01*
X118970604Y-108500000D01*
X118885363Y-108585241D01*
X118728320Y-108820273D01*
X118620147Y-109081426D01*
X118565000Y-109358665D01*
X118565000Y-109641335D01*
X118620147Y-109918574D01*
X118728320Y-110179727D01*
X118885363Y-110414759D01*
X119085241Y-110614637D01*
X119285869Y-110748692D01*
X119258486Y-110763329D01*
X119186903Y-111007298D01*
X120000000Y-111820395D01*
X120813097Y-111007298D01*
X120741514Y-110763329D01*
X120712659Y-110749676D01*
X120914759Y-110614637D01*
X121114637Y-110414759D01*
X121164416Y-110340259D01*
X122194328Y-111370172D01*
X122185228Y-111397394D01*
X122163897Y-111455723D01*
X122156740Y-111501755D01*
X122153265Y-111516981D01*
X122139732Y-111561594D01*
X122133650Y-111623354D01*
X122125834Y-111684937D01*
X122129100Y-111731449D01*
X122129100Y-111747075D01*
X122125835Y-111793558D01*
X122133651Y-111855151D01*
X122139738Y-111916943D01*
X122153266Y-111961536D01*
X122156738Y-111976749D01*
X122163901Y-112022812D01*
X122185229Y-112081128D01*
X122204905Y-112139996D01*
X122228022Y-112180471D01*
X122234797Y-112194541D01*
X122252030Y-112237852D01*
X122285795Y-112289952D01*
X122318081Y-112342972D01*
X122349624Y-112377288D01*
X122359358Y-112389494D01*
X122385791Y-112427878D01*
X122430306Y-112471163D01*
X122473586Y-112515674D01*
X122511967Y-112542105D01*
X122524181Y-112551846D01*
X122558499Y-112583391D01*
X122611528Y-112615683D01*
X122663611Y-112649438D01*
X122706918Y-112666669D01*
X122721003Y-112673452D01*
X122761475Y-112696567D01*
X122820350Y-112716245D01*
X122878659Y-112737571D01*
X122924721Y-112744734D01*
X122939936Y-112748207D01*
X122984528Y-112761734D01*
X123046318Y-112767821D01*
X123107912Y-112775637D01*
X123154395Y-112772372D01*
X123170022Y-112772372D01*
X123216534Y-112775638D01*
X123240001Y-112772659D01*
X123240000Y-115907095D01*
X123236444Y-115943200D01*
X123250635Y-116087285D01*
X123260413Y-116119518D01*
X123292663Y-116225832D01*
X123360913Y-116353519D01*
X123452762Y-116465437D01*
X123480808Y-116488454D01*
X125486546Y-118494193D01*
X125509562Y-118522238D01*
X125621480Y-118614087D01*
X125749167Y-118682337D01*
X125887715Y-118724365D01*
X125995695Y-118735000D01*
X125995704Y-118735000D01*
X126031799Y-118738555D01*
X126067894Y-118735000D01*
X126118485Y-118735000D01*
X126182795Y-118890256D01*
X126218532Y-118943741D01*
X126140226Y-118996063D01*
X125996063Y-119140226D01*
X125882795Y-119309744D01*
X125804774Y-119498102D01*
X125765000Y-119698061D01*
X125765000Y-119901939D01*
X125804774Y-120101898D01*
X125882795Y-120290256D01*
X125996063Y-120459774D01*
X126140226Y-120603937D01*
X126309744Y-120717205D01*
X126498102Y-120795226D01*
X126698061Y-120835000D01*
X126901939Y-120835000D01*
X127101898Y-120795226D01*
X127290256Y-120717205D01*
X127459774Y-120603937D01*
X127603937Y-120459774D01*
X127717205Y-120290256D01*
X127795226Y-120101898D01*
X127835000Y-119901939D01*
X127835000Y-119698061D01*
X127795226Y-119498102D01*
X127717205Y-119309744D01*
X127681468Y-119256259D01*
X127759774Y-119203937D01*
X127903937Y-119059774D01*
X128017205Y-118890256D01*
X128095226Y-118701898D01*
X128135000Y-118501939D01*
X128135000Y-118298061D01*
X128095226Y-118098102D01*
X128017205Y-117909744D01*
X127927172Y-117775000D01*
X128017205Y-117640256D01*
X128095226Y-117451898D01*
X128135000Y-117251939D01*
X128135000Y-117048061D01*
X128104307Y-116893753D01*
X128529746Y-117319193D01*
X128552762Y-117347238D01*
X128664680Y-117439087D01*
X128792367Y-117507337D01*
X128930915Y-117549365D01*
X129038895Y-117560000D01*
X129038904Y-117560000D01*
X129074999Y-117563555D01*
X129111094Y-117560000D01*
X134878236Y-117560000D01*
X130619703Y-121818533D01*
X130601939Y-121815000D01*
X130398061Y-121815000D01*
X130198102Y-121854774D01*
X130105796Y-121893009D01*
X130103937Y-121890226D01*
X129959774Y-121746063D01*
X129790256Y-121632795D01*
X129601898Y-121554774D01*
X129401939Y-121515000D01*
X129198061Y-121515000D01*
X128998102Y-121554774D01*
X128809744Y-121632795D01*
X128640226Y-121746063D01*
X128496063Y-121890226D01*
X128382795Y-122059744D01*
X128304774Y-122248102D01*
X128265000Y-122448061D01*
X128265000Y-122651939D01*
X128304774Y-122851898D01*
X128382795Y-123040256D01*
X128496063Y-123209774D01*
X128640226Y-123353937D01*
X128809744Y-123467205D01*
X128998102Y-123545226D01*
X129198061Y-123585000D01*
X129401939Y-123585000D01*
X129601898Y-123545226D01*
X129694204Y-123506991D01*
X129696063Y-123509774D01*
X129840226Y-123653937D01*
X130009744Y-123767205D01*
X130198102Y-123845226D01*
X130391196Y-123883634D01*
X130404774Y-123951898D01*
X130482795Y-124140256D01*
X130596063Y-124309774D01*
X130740226Y-124453937D01*
X130909744Y-124567205D01*
X131098102Y-124645226D01*
X131298061Y-124685000D01*
X131501939Y-124685000D01*
X131701898Y-124645226D01*
X131890256Y-124567205D01*
X132059774Y-124453937D01*
X132203937Y-124309774D01*
X132317205Y-124140256D01*
X132395226Y-123951898D01*
X132435000Y-123751939D01*
X132435000Y-123548061D01*
X132395226Y-123348102D01*
X132317205Y-123159744D01*
X132220520Y-123015044D01*
X132788001Y-122447563D01*
X132788000Y-122948289D01*
X132746063Y-122990226D01*
X132632795Y-123159744D01*
X132554774Y-123348102D01*
X132515000Y-123548061D01*
X132515000Y-123751939D01*
X132554774Y-123951898D01*
X132632795Y-124140256D01*
X132746063Y-124309774D01*
X132890226Y-124453937D01*
X133059744Y-124567205D01*
X133248102Y-124645226D01*
X133448061Y-124685000D01*
X133651939Y-124685000D01*
X133851898Y-124645226D01*
X134040256Y-124567205D01*
X134209774Y-124453937D01*
X134353937Y-124309774D01*
X134391704Y-124253251D01*
X134396063Y-124259774D01*
X134540226Y-124403937D01*
X134709744Y-124517205D01*
X134895606Y-124594192D01*
X134865000Y-124748061D01*
X134865000Y-124951939D01*
X134904774Y-125151898D01*
X134982795Y-125340256D01*
X135096063Y-125509774D01*
X135240226Y-125653937D01*
X135409744Y-125767205D01*
X135598102Y-125845226D01*
X135798061Y-125885000D01*
X136001939Y-125885000D01*
X136201898Y-125845226D01*
X136390256Y-125767205D01*
X136559774Y-125653937D01*
X136703937Y-125509774D01*
X136817205Y-125340256D01*
X136895226Y-125151898D01*
X136935000Y-124951939D01*
X136935000Y-124748061D01*
X136895226Y-124548102D01*
X136817205Y-124359744D01*
X136703937Y-124190226D01*
X136692231Y-124178520D01*
X136840256Y-124117205D01*
X136925870Y-124060000D01*
X137124525Y-124060000D01*
X144689990Y-131625465D01*
X144689991Y-134607741D01*
X144685830Y-134649990D01*
X144702434Y-134818579D01*
X144751610Y-134980690D01*
X144831467Y-135130092D01*
X144887282Y-135198102D01*
X144938937Y-135261044D01*
X144943757Y-135265000D01*
X144629117Y-135265000D01*
X144293919Y-135331675D01*
X143978169Y-135462463D01*
X143694002Y-135652337D01*
X143452337Y-135894002D01*
X143262463Y-136178169D01*
X143131675Y-136493919D01*
X143065000Y-136829117D01*
X143065000Y-137170883D01*
X143131675Y-137506081D01*
X143262463Y-137821831D01*
X143452337Y-138105998D01*
X143694002Y-138347663D01*
X143978169Y-138537537D01*
X144293919Y-138668325D01*
X144629117Y-138735000D01*
X144970883Y-138735000D01*
X145306081Y-138668325D01*
X145621831Y-138537537D01*
X145905998Y-138347663D01*
X146147663Y-138105998D01*
X146337537Y-137821831D01*
X146468325Y-137506081D01*
X146535000Y-137170883D01*
X146535000Y-136851223D01*
X148712017Y-139028241D01*
X148738946Y-139061054D01*
X148869898Y-139168524D01*
X148942585Y-139207376D01*
X149019299Y-139248381D01*
X149181410Y-139297556D01*
X149350000Y-139314161D01*
X149392246Y-139310000D01*
X160384318Y-139310000D01*
X159975793Y-139340000D01*
X141459346Y-139340000D01*
X141728363Y-139070983D01*
X141962012Y-138721302D01*
X142122953Y-138332756D01*
X142205000Y-137920279D01*
X142205000Y-137499721D01*
X142122953Y-137087244D01*
X141962012Y-136698698D01*
X141728363Y-136349017D01*
X141430983Y-136051637D01*
X141081302Y-135817988D01*
X140692756Y-135657047D01*
X140280279Y-135575000D01*
X139859721Y-135575000D01*
X139447244Y-135657047D01*
X139058698Y-135817988D01*
X138709017Y-136051637D01*
X138411637Y-136349017D01*
X138177988Y-136698698D01*
X138017047Y-137087244D01*
X137935000Y-137499721D01*
X137935000Y-137515000D01*
X137639608Y-137515000D01*
X137638762Y-137512125D01*
X137637731Y-137510153D01*
X137637087Y-137508020D01*
X137609012Y-137455219D01*
X137581345Y-137402297D01*
X137579951Y-137400563D01*
X137578905Y-137398596D01*
X137541117Y-137352263D01*
X137503690Y-137305714D01*
X137501985Y-137304283D01*
X137500577Y-137302557D01*
X137454527Y-137264461D01*
X137408754Y-137226053D01*
X137406802Y-137224980D01*
X137405087Y-137223561D01*
X137352539Y-137195149D01*
X137300153Y-137166349D01*
X137298029Y-137165675D01*
X137296072Y-137164617D01*
X137239050Y-137146966D01*
X137182024Y-137128876D01*
X137179808Y-137128627D01*
X137177684Y-137127970D01*
X137118257Y-137121724D01*
X137058866Y-137115062D01*
X137054596Y-137115032D01*
X137054433Y-137115015D01*
X137054270Y-137115030D01*
X137050000Y-137115000D01*
X136450000Y-137115000D01*
X136390495Y-137120834D01*
X136331013Y-137126248D01*
X136328882Y-137126875D01*
X136326661Y-137127093D01*
X136269379Y-137144388D01*
X136212125Y-137161238D01*
X136210153Y-137162269D01*
X136208020Y-137162913D01*
X136155219Y-137190988D01*
X136102297Y-137218655D01*
X136100563Y-137220049D01*
X136098596Y-137221095D01*
X136052263Y-137258883D01*
X136005714Y-137296310D01*
X136004283Y-137298015D01*
X136002557Y-137299423D01*
X135964461Y-137345473D01*
X135926053Y-137391246D01*
X135924980Y-137393198D01*
X135923561Y-137394913D01*
X135895149Y-137447461D01*
X135866349Y-137499847D01*
X135865675Y-137501971D01*
X135864617Y-137503928D01*
X135861190Y-137515000D01*
X135320132Y-137515000D01*
X134751995Y-136946864D01*
X134716449Y-136903551D01*
X134543623Y-136761716D01*
X134346447Y-136656324D01*
X134132499Y-136591423D01*
X133965752Y-136575000D01*
X133965751Y-136575000D01*
X133910000Y-136569509D01*
X133854249Y-136575000D01*
X128739360Y-136575000D01*
X128588363Y-136349017D01*
X128290983Y-136051637D01*
X127941302Y-135817988D01*
X127552756Y-135657047D01*
X127140279Y-135575000D01*
X126719721Y-135575000D01*
X126307244Y-135657047D01*
X125918698Y-135817988D01*
X125569017Y-136051637D01*
X125271637Y-136349017D01*
X125037988Y-136698698D01*
X124877047Y-137087244D01*
X124795000Y-137499721D01*
X124795000Y-137920279D01*
X124877047Y-138332756D01*
X125037988Y-138721302D01*
X125271637Y-139070983D01*
X125540654Y-139340000D01*
X120029392Y-139340000D01*
X119231917Y-139268827D01*
X118488110Y-139065344D01*
X117792096Y-138733363D01*
X117165870Y-138283374D01*
X116629223Y-137729597D01*
X116199129Y-137089549D01*
X116086883Y-136833845D01*
X116278698Y-136962012D01*
X116667244Y-137122953D01*
X117079721Y-137205000D01*
X117500279Y-137205000D01*
X117912756Y-137122953D01*
X118301302Y-136962012D01*
X118650983Y-136728363D01*
X118948363Y-136430983D01*
X119182012Y-136081302D01*
X119342953Y-135692756D01*
X119425000Y-135280279D01*
X119425000Y-134859721D01*
X119342953Y-134447244D01*
X119240542Y-134200000D01*
X128561928Y-134200000D01*
X128561928Y-135800000D01*
X128574188Y-135924482D01*
X128610498Y-136044180D01*
X128669463Y-136154494D01*
X128748815Y-136251185D01*
X128845506Y-136330537D01*
X128955820Y-136389502D01*
X129075518Y-136425812D01*
X129200000Y-136438072D01*
X130800000Y-136438072D01*
X130924482Y-136425812D01*
X131044180Y-136389502D01*
X131154494Y-136330537D01*
X131251185Y-136251185D01*
X131330537Y-136154494D01*
X131389502Y-136044180D01*
X131418661Y-135948057D01*
X131585241Y-136114637D01*
X131820273Y-136271680D01*
X132081426Y-136379853D01*
X132358665Y-136435000D01*
X132641335Y-136435000D01*
X132918574Y-136379853D01*
X133179727Y-136271680D01*
X133414759Y-136114637D01*
X133500000Y-136029396D01*
X133585241Y-136114637D01*
X133820273Y-136271680D01*
X134081426Y-136379853D01*
X134358665Y-136435000D01*
X134641335Y-136435000D01*
X134918574Y-136379853D01*
X135179727Y-136271680D01*
X135414759Y-136114637D01*
X135536694Y-135992702D01*
X136186903Y-135992702D01*
X136258486Y-136236671D01*
X136513996Y-136357571D01*
X136788184Y-136426300D01*
X137070512Y-136440217D01*
X137350130Y-136398787D01*
X137616292Y-136303603D01*
X137741514Y-136236671D01*
X137813097Y-135992702D01*
X137000000Y-135179605D01*
X136186903Y-135992702D01*
X135536694Y-135992702D01*
X135614637Y-135914759D01*
X135748692Y-135714131D01*
X135763329Y-135741514D01*
X136007298Y-135813097D01*
X136820395Y-135000000D01*
X137179605Y-135000000D01*
X137992702Y-135813097D01*
X138236671Y-135741514D01*
X138357571Y-135486004D01*
X138426300Y-135211816D01*
X138440217Y-134929488D01*
X138398787Y-134649870D01*
X138303603Y-134383708D01*
X138236671Y-134258486D01*
X137992702Y-134186903D01*
X137179605Y-135000000D01*
X136820395Y-135000000D01*
X136007298Y-134186903D01*
X135763329Y-134258486D01*
X135749676Y-134287341D01*
X135614637Y-134085241D01*
X135536694Y-134007298D01*
X136186903Y-134007298D01*
X137000000Y-134820395D01*
X137813097Y-134007298D01*
X137741514Y-133763329D01*
X137486004Y-133642429D01*
X137211816Y-133573700D01*
X136929488Y-133559783D01*
X136649870Y-133601213D01*
X136383708Y-133696397D01*
X136258486Y-133763329D01*
X136186903Y-134007298D01*
X135536694Y-134007298D01*
X135414759Y-133885363D01*
X135179727Y-133728320D01*
X134918574Y-133620147D01*
X134641335Y-133565000D01*
X134358665Y-133565000D01*
X134081426Y-133620147D01*
X133820273Y-133728320D01*
X133585241Y-133885363D01*
X133500000Y-133970604D01*
X133414759Y-133885363D01*
X133179727Y-133728320D01*
X132918574Y-133620147D01*
X132641335Y-133565000D01*
X132358665Y-133565000D01*
X132081426Y-133620147D01*
X131820273Y-133728320D01*
X131585241Y-133885363D01*
X131418661Y-134051943D01*
X131389502Y-133955820D01*
X131330537Y-133845506D01*
X131251185Y-133748815D01*
X131154494Y-133669463D01*
X131044180Y-133610498D01*
X130924482Y-133574188D01*
X130800000Y-133561928D01*
X129200000Y-133561928D01*
X129075518Y-133574188D01*
X128955820Y-133610498D01*
X128845506Y-133669463D01*
X128748815Y-133748815D01*
X128669463Y-133845506D01*
X128610498Y-133955820D01*
X128574188Y-134075518D01*
X128561928Y-134200000D01*
X119240542Y-134200000D01*
X119182012Y-134058698D01*
X118948363Y-133709017D01*
X118650983Y-133411637D01*
X118301302Y-133177988D01*
X117912756Y-133017047D01*
X117790366Y-132992702D01*
X119186903Y-132992702D01*
X119258486Y-133236671D01*
X119513996Y-133357571D01*
X119788184Y-133426300D01*
X120070512Y-133440217D01*
X120350130Y-133398787D01*
X120616292Y-133303603D01*
X120741514Y-133236671D01*
X120813097Y-132992702D01*
X120000000Y-132179605D01*
X119186903Y-132992702D01*
X117790366Y-132992702D01*
X117635000Y-132961798D01*
X117635000Y-132639608D01*
X117637875Y-132638762D01*
X117639847Y-132637731D01*
X117641980Y-132637087D01*
X117694781Y-132609012D01*
X117747703Y-132581345D01*
X117749437Y-132579951D01*
X117751404Y-132578905D01*
X117797737Y-132541117D01*
X117844286Y-132503690D01*
X117845717Y-132501985D01*
X117847443Y-132500577D01*
X117885539Y-132454527D01*
X117923947Y-132408754D01*
X117925020Y-132406802D01*
X117926439Y-132405087D01*
X117954851Y-132352539D01*
X117983651Y-132300153D01*
X117984325Y-132298029D01*
X117985383Y-132296072D01*
X118003034Y-132239050D01*
X118021124Y-132182024D01*
X118021373Y-132179808D01*
X118022030Y-132177684D01*
X118028276Y-132118257D01*
X118033631Y-132070512D01*
X118559783Y-132070512D01*
X118601213Y-132350130D01*
X118696397Y-132616292D01*
X118763329Y-132741514D01*
X119007298Y-132813097D01*
X119820395Y-132000000D01*
X120179605Y-132000000D01*
X120992702Y-132813097D01*
X121236671Y-132741514D01*
X121357571Y-132486004D01*
X121426300Y-132211816D01*
X121440217Y-131929488D01*
X121398787Y-131649870D01*
X121303603Y-131383708D01*
X121236671Y-131258486D01*
X120992702Y-131186903D01*
X120179605Y-132000000D01*
X119820395Y-132000000D01*
X119007298Y-131186903D01*
X118763329Y-131258486D01*
X118642429Y-131513996D01*
X118573700Y-131788184D01*
X118559783Y-132070512D01*
X118033631Y-132070512D01*
X118034938Y-132058866D01*
X118034968Y-132054596D01*
X118034985Y-132054433D01*
X118034970Y-132054270D01*
X118035000Y-132050000D01*
X118035000Y-131450000D01*
X118029166Y-131390495D01*
X118023752Y-131331013D01*
X118023125Y-131328882D01*
X118022907Y-131326661D01*
X118005612Y-131269379D01*
X117988762Y-131212125D01*
X117987731Y-131210153D01*
X117987087Y-131208020D01*
X117959012Y-131155219D01*
X117931345Y-131102297D01*
X117929951Y-131100563D01*
X117928905Y-131098596D01*
X117891117Y-131052263D01*
X117853690Y-131005714D01*
X117851985Y-131004283D01*
X117850577Y-131002557D01*
X117804527Y-130964461D01*
X117758754Y-130926053D01*
X117756802Y-130924980D01*
X117755087Y-130923561D01*
X117702539Y-130895149D01*
X117650153Y-130866349D01*
X117648029Y-130865675D01*
X117646072Y-130864617D01*
X117635000Y-130861190D01*
X117635000Y-124200000D01*
X118561928Y-124200000D01*
X118561928Y-125800000D01*
X118574188Y-125924482D01*
X118610498Y-126044180D01*
X118669463Y-126154494D01*
X118748815Y-126251185D01*
X118845506Y-126330537D01*
X118955820Y-126389502D01*
X119051943Y-126418661D01*
X118885363Y-126585241D01*
X118728320Y-126820273D01*
X118620147Y-127081426D01*
X118565000Y-127358665D01*
X118565000Y-127641335D01*
X118620147Y-127918574D01*
X118728320Y-128179727D01*
X118885363Y-128414759D01*
X118970604Y-128500000D01*
X118885363Y-128585241D01*
X118728320Y-128820273D01*
X118620147Y-129081426D01*
X118565000Y-129358665D01*
X118565000Y-129641335D01*
X118620147Y-129918574D01*
X118728320Y-130179727D01*
X118885363Y-130414759D01*
X119085241Y-130614637D01*
X119285869Y-130748692D01*
X119258486Y-130763329D01*
X119186903Y-131007298D01*
X120000000Y-131820395D01*
X120813097Y-131007298D01*
X120741514Y-130763329D01*
X120712659Y-130749676D01*
X120914759Y-130614637D01*
X121114637Y-130414759D01*
X121271680Y-130179727D01*
X121379853Y-129918574D01*
X121435000Y-129641335D01*
X121435000Y-129358665D01*
X121379853Y-129081426D01*
X121271680Y-128820273D01*
X121114637Y-128585241D01*
X121029396Y-128500000D01*
X121114637Y-128414759D01*
X121271680Y-128179727D01*
X121379853Y-127918574D01*
X121435000Y-127641335D01*
X121435000Y-127358665D01*
X121379853Y-127081426D01*
X121271680Y-126820273D01*
X121114637Y-126585241D01*
X120948057Y-126418661D01*
X121044180Y-126389502D01*
X121154494Y-126330537D01*
X121251185Y-126251185D01*
X121330537Y-126154494D01*
X121389502Y-126044180D01*
X121425812Y-125924482D01*
X121438072Y-125800000D01*
X121438072Y-124200000D01*
X121425812Y-124075518D01*
X121389502Y-123955820D01*
X121330537Y-123845506D01*
X121251185Y-123748815D01*
X121154494Y-123669463D01*
X121044180Y-123610498D01*
X120924482Y-123574188D01*
X120800000Y-123561928D01*
X119200000Y-123561928D01*
X119075518Y-123574188D01*
X118955820Y-123610498D01*
X118845506Y-123669463D01*
X118748815Y-123748815D01*
X118669463Y-123845506D01*
X118610498Y-123955820D01*
X118574188Y-124075518D01*
X118561928Y-124200000D01*
X117635000Y-124200000D01*
X117635000Y-124038202D01*
X117912756Y-123982953D01*
X118301302Y-123822012D01*
X118650983Y-123588363D01*
X118948363Y-123290983D01*
X119182012Y-122941302D01*
X119342953Y-122552756D01*
X119425000Y-122140279D01*
X119425000Y-121719721D01*
X119342953Y-121307244D01*
X119182012Y-120918698D01*
X118948363Y-120569017D01*
X118650983Y-120271637D01*
X118301302Y-120037988D01*
X117912756Y-119877047D01*
X117500279Y-119795000D01*
X117079721Y-119795000D01*
X116667244Y-119877047D01*
X116278698Y-120037988D01*
X115929017Y-120271637D01*
X115660000Y-120540654D01*
X115660000Y-116459346D01*
X115929017Y-116728363D01*
X116278698Y-116962012D01*
X116667244Y-117122953D01*
X117079721Y-117205000D01*
X117500279Y-117205000D01*
X117912756Y-117122953D01*
X118301302Y-116962012D01*
X118650983Y-116728363D01*
X118948363Y-116430983D01*
X119182012Y-116081302D01*
X119342953Y-115692756D01*
X119425000Y-115280279D01*
X119425000Y-114859721D01*
X119342953Y-114447244D01*
X119182012Y-114058698D01*
X118948363Y-113709017D01*
X118650983Y-113411637D01*
X118301302Y-113177988D01*
X117912756Y-113017047D01*
X117790366Y-112992702D01*
X119186903Y-112992702D01*
X119258486Y-113236671D01*
X119513996Y-113357571D01*
X119788184Y-113426300D01*
X120070512Y-113440217D01*
X120350130Y-113398787D01*
X120616292Y-113303603D01*
X120741514Y-113236671D01*
X120813097Y-112992702D01*
X120000000Y-112179605D01*
X119186903Y-112992702D01*
X117790366Y-112992702D01*
X117585000Y-112951852D01*
X117585000Y-112639608D01*
X117587875Y-112638762D01*
X117589847Y-112637731D01*
X117591980Y-112637087D01*
X117644781Y-112609012D01*
X117697703Y-112581345D01*
X117699437Y-112579951D01*
X117701404Y-112578905D01*
X117747737Y-112541117D01*
X117794286Y-112503690D01*
X117795717Y-112501985D01*
X117797443Y-112500577D01*
X117835539Y-112454527D01*
X117873947Y-112408754D01*
X117875020Y-112406802D01*
X117876439Y-112405087D01*
X117904851Y-112352539D01*
X117933651Y-112300153D01*
X117934325Y-112298029D01*
X117935383Y-112296072D01*
X117953048Y-112239005D01*
X117971124Y-112182024D01*
X117971373Y-112179808D01*
X117972030Y-112177684D01*
X117978276Y-112118257D01*
X117983631Y-112070512D01*
X118559783Y-112070512D01*
X118601213Y-112350130D01*
X118696397Y-112616292D01*
X118763329Y-112741514D01*
X119007298Y-112813097D01*
X119820395Y-112000000D01*
X120179605Y-112000000D01*
X120992702Y-112813097D01*
X121236671Y-112741514D01*
X121357571Y-112486004D01*
X121426300Y-112211816D01*
X121440217Y-111929488D01*
X121398787Y-111649870D01*
X121303603Y-111383708D01*
X121236671Y-111258486D01*
X120992702Y-111186903D01*
X120179605Y-112000000D01*
X119820395Y-112000000D01*
X119007298Y-111186903D01*
X118763329Y-111258486D01*
X118642429Y-111513996D01*
X118573700Y-111788184D01*
X118559783Y-112070512D01*
X117983631Y-112070512D01*
X117984938Y-112058866D01*
X117984968Y-112054596D01*
X117984985Y-112054433D01*
X117984970Y-112054270D01*
X117985000Y-112050000D01*
X117985000Y-111450000D01*
X117979166Y-111390495D01*
X117973752Y-111331013D01*
X117973125Y-111328882D01*
X117972907Y-111326661D01*
X117955612Y-111269379D01*
X117938762Y-111212125D01*
X117937731Y-111210153D01*
X117937087Y-111208020D01*
X117909012Y-111155219D01*
X117881345Y-111102297D01*
X117879951Y-111100563D01*
X117878905Y-111098596D01*
X117841117Y-111052263D01*
X117803690Y-111005714D01*
X117801985Y-111004283D01*
X117800577Y-111002557D01*
X117754527Y-110964461D01*
X117708754Y-110926053D01*
X117706802Y-110924980D01*
X117705087Y-110923561D01*
X117652539Y-110895149D01*
X117600153Y-110866349D01*
X117598029Y-110865675D01*
X117596072Y-110864617D01*
X117585000Y-110861190D01*
X117585000Y-104048148D01*
X117912756Y-103982953D01*
X118301302Y-103822012D01*
X118650983Y-103588363D01*
X118948363Y-103290983D01*
X119182012Y-102941302D01*
X119342953Y-102552756D01*
X119425000Y-102140279D01*
X119425000Y-101719721D01*
X119342953Y-101307244D01*
X119182012Y-100918698D01*
X118948363Y-100569017D01*
X118650983Y-100271637D01*
X118301302Y-100037988D01*
X117912756Y-99877047D01*
X117500279Y-99795000D01*
X117079721Y-99795000D01*
X116667244Y-99877047D01*
X116278698Y-100037988D01*
X115929017Y-100271637D01*
X115660000Y-100540654D01*
X115660000Y-98829117D01*
X119265000Y-98829117D01*
X119265000Y-99170883D01*
X119331675Y-99506081D01*
X119462463Y-99821831D01*
X119652337Y-100105998D01*
X119894002Y-100347663D01*
X120178169Y-100537537D01*
X120493919Y-100668325D01*
X120829117Y-100735000D01*
X121170883Y-100735000D01*
X121506081Y-100668325D01*
X121821831Y-100537537D01*
X122105998Y-100347663D01*
X122347663Y-100105998D01*
X122537537Y-99821831D01*
X122668325Y-99506081D01*
X122735000Y-99170883D01*
X122735000Y-98829117D01*
X122668325Y-98493919D01*
X122537537Y-98178169D01*
X122347663Y-97894002D01*
X122105998Y-97652337D01*
X121821831Y-97462463D01*
X121506081Y-97331675D01*
X121170883Y-97265000D01*
X120829117Y-97265000D01*
X120493919Y-97331675D01*
X120178169Y-97462463D01*
X119894002Y-97652337D01*
X119652337Y-97894002D01*
X119462463Y-98178169D01*
X119331675Y-98493919D01*
X119265000Y-98829117D01*
X115660000Y-98829117D01*
X115660000Y-95992702D01*
X121686903Y-95992702D01*
X121758486Y-96236671D01*
X122013996Y-96357571D01*
X122288184Y-96426300D01*
X122570512Y-96440217D01*
X122850130Y-96398787D01*
X123116292Y-96303603D01*
X123241514Y-96236671D01*
X123313097Y-95992702D01*
X122500000Y-95179605D01*
X121686903Y-95992702D01*
X115660000Y-95992702D01*
X115660000Y-95070512D01*
X121059783Y-95070512D01*
X121101213Y-95350130D01*
X121196397Y-95616292D01*
X121263329Y-95741514D01*
X121507298Y-95813097D01*
X122320395Y-95000000D01*
X121507298Y-94186903D01*
X121263329Y-94258486D01*
X121142429Y-94513996D01*
X121073700Y-94788184D01*
X121059783Y-95070512D01*
X115660000Y-95070512D01*
X115660000Y-95029392D01*
X115731173Y-94231917D01*
X115934656Y-93488109D01*
X116266638Y-92792095D01*
X116716626Y-92165870D01*
X117270403Y-91629223D01*
X117440002Y-91515257D01*
X117377047Y-91667244D01*
X117295000Y-92079721D01*
X117295000Y-92500279D01*
X117377047Y-92912756D01*
X117537988Y-93301302D01*
X117771637Y-93650983D01*
X118069017Y-93948363D01*
X118418698Y-94182012D01*
X118807244Y-94342953D01*
X119219721Y-94425000D01*
X119640279Y-94425000D01*
X120052756Y-94342953D01*
X120441302Y-94182012D01*
X120702780Y-94007298D01*
X121686903Y-94007298D01*
X122500000Y-94820395D01*
X123313097Y-94007298D01*
X123241514Y-93763329D01*
X122986004Y-93642429D01*
X122711816Y-93573700D01*
X122429488Y-93559783D01*
X122149870Y-93601213D01*
X121883708Y-93696397D01*
X121758486Y-93763329D01*
X121686903Y-94007298D01*
X120702780Y-94007298D01*
X120790983Y-93948363D01*
X121088363Y-93650983D01*
X121322012Y-93301302D01*
X121482953Y-92912756D01*
X121548148Y-92585000D01*
X121860392Y-92585000D01*
X121861238Y-92587875D01*
X121862269Y-92589847D01*
X121862913Y-92591980D01*
X121890988Y-92644781D01*
X121918655Y-92697703D01*
X121920049Y-92699437D01*
X121921095Y-92701404D01*
X121958883Y-92747737D01*
X121996310Y-92794286D01*
X121998015Y-92795717D01*
X121999423Y-92797443D01*
X122045473Y-92835539D01*
X122091246Y-92873947D01*
X122093198Y-92875020D01*
X122094913Y-92876439D01*
X122147461Y-92904851D01*
X122199847Y-92933651D01*
X122201971Y-92934325D01*
X122203928Y-92935383D01*
X122260950Y-92953034D01*
X122317976Y-92971124D01*
X122320192Y-92971373D01*
X122322316Y-92972030D01*
X122381743Y-92978276D01*
X122441134Y-92984938D01*
X122445404Y-92984968D01*
X122445567Y-92984985D01*
X122445730Y-92984970D01*
X122450000Y-92985000D01*
X123050000Y-92985000D01*
X123109505Y-92979166D01*
X123168987Y-92973752D01*
X123171118Y-92973125D01*
X123173339Y-92972907D01*
X123230621Y-92955612D01*
X123287875Y-92938762D01*
X123289847Y-92937731D01*
X123291980Y-92937087D01*
X123344781Y-92909012D01*
X123397703Y-92881345D01*
X123399437Y-92879951D01*
X123401404Y-92878905D01*
X123447737Y-92841117D01*
X123494286Y-92803690D01*
X123495717Y-92801985D01*
X123497443Y-92800577D01*
X123535539Y-92754527D01*
X123573947Y-92708754D01*
X123575020Y-92706802D01*
X123576439Y-92705087D01*
X123604851Y-92652539D01*
X123633651Y-92600153D01*
X123634325Y-92598029D01*
X123635383Y-92596072D01*
X123638810Y-92585000D01*
X130451852Y-92585000D01*
X130517047Y-92912756D01*
X130677988Y-93301302D01*
X130911637Y-93650983D01*
X131209017Y-93948363D01*
X131558698Y-94182012D01*
X131947244Y-94342953D01*
X132359721Y-94425000D01*
X132780279Y-94425000D01*
X133192756Y-94342953D01*
X133581302Y-94182012D01*
X133930983Y-93948363D01*
X134228363Y-93650983D01*
X134462012Y-93301302D01*
X134622953Y-92912756D01*
X134705000Y-92500279D01*
X134705000Y-92079721D01*
X134676265Y-91935260D01*
X155808964Y-91935260D01*
X155929622Y-92173000D01*
X158273000Y-92173000D01*
X158273000Y-90765000D01*
X158527000Y-90765000D01*
X158527000Y-92173000D01*
X160870378Y-92173000D01*
X160991036Y-91935260D01*
X160966755Y-91829913D01*
X160846862Y-91552796D01*
X160675210Y-91304394D01*
X160458396Y-91094252D01*
X160204751Y-90930446D01*
X159924023Y-90819271D01*
X159627000Y-90765000D01*
X158527000Y-90765000D01*
X158273000Y-90765000D01*
X157173000Y-90765000D01*
X156875977Y-90819271D01*
X156595249Y-90930446D01*
X156341604Y-91094252D01*
X156124790Y-91304394D01*
X155953138Y-91552796D01*
X155833245Y-91829913D01*
X155808964Y-91935260D01*
X134676265Y-91935260D01*
X134622953Y-91667244D01*
X134462012Y-91278698D01*
X134228363Y-90929017D01*
X133959346Y-90660000D01*
X159970608Y-90660000D01*
X160768083Y-90731173D01*
G36*
X155434721Y-130512352D02*
G01*
X155458578Y-130541422D01*
X155487648Y-130565279D01*
X155574607Y-130636645D01*
X155614912Y-130658188D01*
X155706985Y-130707402D01*
X155850622Y-130750974D01*
X155962574Y-130762000D01*
X155962577Y-130762000D01*
X156000000Y-130765686D01*
X156037423Y-130762000D01*
X159612577Y-130762000D01*
X159650000Y-130765686D01*
X159687423Y-130762000D01*
X159687426Y-130762000D01*
X159799378Y-130750974D01*
X159943015Y-130707402D01*
X160075392Y-130636645D01*
X160191422Y-130541422D01*
X160215284Y-130512346D01*
X161442631Y-129285000D01*
X161501939Y-129285000D01*
X161701898Y-129245226D01*
X161890256Y-129167205D01*
X162059774Y-129053937D01*
X162203937Y-128909774D01*
X162295344Y-128772974D01*
X162379330Y-128856960D01*
X162346063Y-128890226D01*
X162232795Y-129059744D01*
X162154774Y-129248102D01*
X162115000Y-129448061D01*
X162115000Y-129651939D01*
X162154774Y-129851898D01*
X162232795Y-130040256D01*
X162346063Y-130209774D01*
X162490226Y-130353937D01*
X162659744Y-130467205D01*
X162848102Y-130545226D01*
X163048061Y-130585000D01*
X163251939Y-130585000D01*
X163451898Y-130545226D01*
X163640256Y-130467205D01*
X163809774Y-130353937D01*
X163953937Y-130209774D01*
X164067205Y-130040256D01*
X164145226Y-129851898D01*
X164185000Y-129651939D01*
X164185000Y-129448061D01*
X164145226Y-129248102D01*
X164067205Y-129059744D01*
X163953937Y-128890226D01*
X163912000Y-128848289D01*
X163912000Y-128587423D01*
X163915686Y-128550000D01*
X163912000Y-128512574D01*
X163900974Y-128400622D01*
X163857402Y-128256985D01*
X163786646Y-128124609D01*
X163786645Y-128124607D01*
X163726783Y-128051666D01*
X163716280Y-128038868D01*
X163851898Y-128011892D01*
X164040256Y-127933871D01*
X164209774Y-127820603D01*
X164340000Y-127690377D01*
X164340000Y-132671669D01*
X164328250Y-132662026D01*
X163687988Y-132021764D01*
X163661054Y-131988946D01*
X163530102Y-131881476D01*
X163380700Y-131801619D01*
X163218589Y-131752444D01*
X163092246Y-131740000D01*
X163092239Y-131740000D01*
X163050000Y-131735840D01*
X163007761Y-131740000D01*
X162425870Y-131740000D01*
X162340256Y-131682795D01*
X162151898Y-131604774D01*
X161951939Y-131565000D01*
X161748061Y-131565000D01*
X161548102Y-131604774D01*
X161359744Y-131682795D01*
X161190226Y-131796063D01*
X161046063Y-131940226D01*
X160932795Y-132109744D01*
X160854774Y-132298102D01*
X160815000Y-132498061D01*
X160815000Y-132701939D01*
X160854774Y-132901898D01*
X160932795Y-133090256D01*
X161022828Y-133225000D01*
X160932795Y-133359744D01*
X160854774Y-133548102D01*
X160815000Y-133748061D01*
X160815000Y-133951939D01*
X160854774Y-134151898D01*
X160932795Y-134340256D01*
X161046063Y-134509774D01*
X161061289Y-134525000D01*
X161046063Y-134540226D01*
X160932795Y-134709744D01*
X160903636Y-134780141D01*
X160443777Y-135240000D01*
X158535000Y-135240000D01*
X158535000Y-135098061D01*
X158495226Y-134898102D01*
X158417205Y-134709744D01*
X158303937Y-134540226D01*
X158159774Y-134396063D01*
X157990256Y-134282795D01*
X157801898Y-134204774D01*
X157601939Y-134165000D01*
X157398061Y-134165000D01*
X157198102Y-134204774D01*
X157009744Y-134282795D01*
X157000000Y-134289306D01*
X156990256Y-134282795D01*
X156801898Y-134204774D01*
X156601939Y-134165000D01*
X156398061Y-134165000D01*
X156198102Y-134204774D01*
X156009744Y-134282795D01*
X155840226Y-134396063D01*
X155761756Y-134474533D01*
X151333989Y-130046766D01*
X151311615Y-130019504D01*
X151335000Y-129901939D01*
X151335000Y-129698061D01*
X151295226Y-129498102D01*
X151217205Y-129309744D01*
X151103937Y-129140226D01*
X150959774Y-128996063D01*
X150790256Y-128882795D01*
X150635000Y-128818485D01*
X150635000Y-128698061D01*
X150595226Y-128498102D01*
X150517205Y-128309744D01*
X150403937Y-128140226D01*
X150374042Y-128110331D01*
X150498061Y-128135000D01*
X150701939Y-128135000D01*
X150901898Y-128095226D01*
X151090256Y-128017205D01*
X151259774Y-127903937D01*
X151403937Y-127759774D01*
X151517205Y-127590256D01*
X151595226Y-127401898D01*
X151635000Y-127201939D01*
X151635000Y-126998061D01*
X151595226Y-126798102D01*
X151517205Y-126609744D01*
X151487185Y-126564815D01*
X155434721Y-130512352D01*
G37*
X155434721Y-130512352D02*
X155458578Y-130541422D01*
X155487648Y-130565279D01*
X155574607Y-130636645D01*
X155614912Y-130658188D01*
X155706985Y-130707402D01*
X155850622Y-130750974D01*
X155962574Y-130762000D01*
X155962577Y-130762000D01*
X156000000Y-130765686D01*
X156037423Y-130762000D01*
X159612577Y-130762000D01*
X159650000Y-130765686D01*
X159687423Y-130762000D01*
X159687426Y-130762000D01*
X159799378Y-130750974D01*
X159943015Y-130707402D01*
X160075392Y-130636645D01*
X160191422Y-130541422D01*
X160215284Y-130512346D01*
X161442631Y-129285000D01*
X161501939Y-129285000D01*
X161701898Y-129245226D01*
X161890256Y-129167205D01*
X162059774Y-129053937D01*
X162203937Y-128909774D01*
X162295344Y-128772974D01*
X162379330Y-128856960D01*
X162346063Y-128890226D01*
X162232795Y-129059744D01*
X162154774Y-129248102D01*
X162115000Y-129448061D01*
X162115000Y-129651939D01*
X162154774Y-129851898D01*
X162232795Y-130040256D01*
X162346063Y-130209774D01*
X162490226Y-130353937D01*
X162659744Y-130467205D01*
X162848102Y-130545226D01*
X163048061Y-130585000D01*
X163251939Y-130585000D01*
X163451898Y-130545226D01*
X163640256Y-130467205D01*
X163809774Y-130353937D01*
X163953937Y-130209774D01*
X164067205Y-130040256D01*
X164145226Y-129851898D01*
X164185000Y-129651939D01*
X164185000Y-129448061D01*
X164145226Y-129248102D01*
X164067205Y-129059744D01*
X163953937Y-128890226D01*
X163912000Y-128848289D01*
X163912000Y-128587423D01*
X163915686Y-128550000D01*
X163912000Y-128512574D01*
X163900974Y-128400622D01*
X163857402Y-128256985D01*
X163786646Y-128124609D01*
X163786645Y-128124607D01*
X163726783Y-128051666D01*
X163716280Y-128038868D01*
X163851898Y-128011892D01*
X164040256Y-127933871D01*
X164209774Y-127820603D01*
X164340000Y-127690377D01*
X164340000Y-132671669D01*
X164328250Y-132662026D01*
X163687988Y-132021764D01*
X163661054Y-131988946D01*
X163530102Y-131881476D01*
X163380700Y-131801619D01*
X163218589Y-131752444D01*
X163092246Y-131740000D01*
X163092239Y-131740000D01*
X163050000Y-131735840D01*
X163007761Y-131740000D01*
X162425870Y-131740000D01*
X162340256Y-131682795D01*
X162151898Y-131604774D01*
X161951939Y-131565000D01*
X161748061Y-131565000D01*
X161548102Y-131604774D01*
X161359744Y-131682795D01*
X161190226Y-131796063D01*
X161046063Y-131940226D01*
X160932795Y-132109744D01*
X160854774Y-132298102D01*
X160815000Y-132498061D01*
X160815000Y-132701939D01*
X160854774Y-132901898D01*
X160932795Y-133090256D01*
X161022828Y-133225000D01*
X160932795Y-133359744D01*
X160854774Y-133548102D01*
X160815000Y-133748061D01*
X160815000Y-133951939D01*
X160854774Y-134151898D01*
X160932795Y-134340256D01*
X161046063Y-134509774D01*
X161061289Y-134525000D01*
X161046063Y-134540226D01*
X160932795Y-134709744D01*
X160903636Y-134780141D01*
X160443777Y-135240000D01*
X158535000Y-135240000D01*
X158535000Y-135098061D01*
X158495226Y-134898102D01*
X158417205Y-134709744D01*
X158303937Y-134540226D01*
X158159774Y-134396063D01*
X157990256Y-134282795D01*
X157801898Y-134204774D01*
X157601939Y-134165000D01*
X157398061Y-134165000D01*
X157198102Y-134204774D01*
X157009744Y-134282795D01*
X157000000Y-134289306D01*
X156990256Y-134282795D01*
X156801898Y-134204774D01*
X156601939Y-134165000D01*
X156398061Y-134165000D01*
X156198102Y-134204774D01*
X156009744Y-134282795D01*
X155840226Y-134396063D01*
X155761756Y-134474533D01*
X151333989Y-130046766D01*
X151311615Y-130019504D01*
X151335000Y-129901939D01*
X151335000Y-129698061D01*
X151295226Y-129498102D01*
X151217205Y-129309744D01*
X151103937Y-129140226D01*
X150959774Y-128996063D01*
X150790256Y-128882795D01*
X150635000Y-128818485D01*
X150635000Y-128698061D01*
X150595226Y-128498102D01*
X150517205Y-128309744D01*
X150403937Y-128140226D01*
X150374042Y-128110331D01*
X150498061Y-128135000D01*
X150701939Y-128135000D01*
X150901898Y-128095226D01*
X151090256Y-128017205D01*
X151259774Y-127903937D01*
X151403937Y-127759774D01*
X151517205Y-127590256D01*
X151595226Y-127401898D01*
X151635000Y-127201939D01*
X151635000Y-126998061D01*
X151595226Y-126798102D01*
X151517205Y-126609744D01*
X151487185Y-126564815D01*
X155434721Y-130512352D01*
G36*
X153834720Y-126512351D02*
G01*
X153858578Y-126541422D01*
X153974608Y-126636645D01*
X154106985Y-126707402D01*
X154250622Y-126750974D01*
X154362574Y-126762000D01*
X154362576Y-126762000D01*
X154399999Y-126765686D01*
X154437422Y-126762000D01*
X160284370Y-126762000D01*
X160877026Y-127354656D01*
X160740226Y-127446063D01*
X160596063Y-127590226D01*
X160482795Y-127759744D01*
X160404774Y-127948102D01*
X160365000Y-128148061D01*
X160365000Y-128207369D01*
X159334370Y-129238000D01*
X157940053Y-129238000D01*
X157990256Y-129217205D01*
X158159774Y-129103937D01*
X158303937Y-128959774D01*
X158417205Y-128790256D01*
X158495226Y-128601898D01*
X158535000Y-128401939D01*
X158535000Y-128198061D01*
X158495226Y-127998102D01*
X158417205Y-127809744D01*
X158303937Y-127640226D01*
X158159774Y-127496063D01*
X157990256Y-127382795D01*
X157801898Y-127304774D01*
X157601939Y-127265000D01*
X157398061Y-127265000D01*
X157198102Y-127304774D01*
X157043908Y-127368644D01*
X156990256Y-127332795D01*
X156801898Y-127254774D01*
X156601939Y-127215000D01*
X156398061Y-127215000D01*
X156198102Y-127254774D01*
X156009744Y-127332795D01*
X155840226Y-127446063D01*
X155696063Y-127590226D01*
X155582795Y-127759744D01*
X155504774Y-127948102D01*
X155465000Y-128148061D01*
X155465000Y-128351939D01*
X155473797Y-128396166D01*
X146962000Y-119884370D01*
X146962000Y-119639630D01*
X153834720Y-126512351D01*
G37*
X153834720Y-126512351D02*
X153858578Y-126541422D01*
X153974608Y-126636645D01*
X154106985Y-126707402D01*
X154250622Y-126750974D01*
X154362574Y-126762000D01*
X154362576Y-126762000D01*
X154399999Y-126765686D01*
X154437422Y-126762000D01*
X160284370Y-126762000D01*
X160877026Y-127354656D01*
X160740226Y-127446063D01*
X160596063Y-127590226D01*
X160482795Y-127759744D01*
X160404774Y-127948102D01*
X160365000Y-128148061D01*
X160365000Y-128207369D01*
X159334370Y-129238000D01*
X157940053Y-129238000D01*
X157990256Y-129217205D01*
X158159774Y-129103937D01*
X158303937Y-128959774D01*
X158417205Y-128790256D01*
X158495226Y-128601898D01*
X158535000Y-128401939D01*
X158535000Y-128198061D01*
X158495226Y-127998102D01*
X158417205Y-127809744D01*
X158303937Y-127640226D01*
X158159774Y-127496063D01*
X157990256Y-127382795D01*
X157801898Y-127304774D01*
X157601939Y-127265000D01*
X157398061Y-127265000D01*
X157198102Y-127304774D01*
X157043908Y-127368644D01*
X156990256Y-127332795D01*
X156801898Y-127254774D01*
X156601939Y-127215000D01*
X156398061Y-127215000D01*
X156198102Y-127254774D01*
X156009744Y-127332795D01*
X155840226Y-127446063D01*
X155696063Y-127590226D01*
X155582795Y-127759744D01*
X155504774Y-127948102D01*
X155465000Y-128148061D01*
X155465000Y-128351939D01*
X155473797Y-128396166D01*
X146962000Y-119884370D01*
X146962000Y-119639630D01*
X153834720Y-126512351D01*
G36*
X142904774Y-113901898D02*
G01*
X142982795Y-114090256D01*
X143096063Y-114259774D01*
X143240226Y-114403937D01*
X143409744Y-114517205D01*
X143598102Y-114595226D01*
X143798061Y-114635000D01*
X144001939Y-114635000D01*
X144201898Y-114595226D01*
X144390256Y-114517205D01*
X144559774Y-114403937D01*
X144631021Y-114332690D01*
X145438000Y-115139669D01*
X145438001Y-120162567D01*
X145434314Y-120200000D01*
X145449027Y-120349378D01*
X145492599Y-120493015D01*
X145563355Y-120625392D01*
X145627816Y-120703937D01*
X145658579Y-120741422D01*
X145687649Y-120765279D01*
X148947053Y-124024684D01*
X148840226Y-124096063D01*
X148696063Y-124240226D01*
X148582795Y-124409744D01*
X148504774Y-124598102D01*
X148487076Y-124687076D01*
X148398102Y-124704774D01*
X148209744Y-124782795D01*
X148040226Y-124896063D01*
X147896063Y-125040226D01*
X147782795Y-125209744D01*
X147704774Y-125398102D01*
X147687076Y-125487076D01*
X147598102Y-125504774D01*
X147409744Y-125582795D01*
X147240226Y-125696063D01*
X147096063Y-125840226D01*
X146982795Y-126009744D01*
X146904774Y-126198102D01*
X146865000Y-126398061D01*
X146865000Y-126601939D01*
X146904774Y-126801898D01*
X146982795Y-126990256D01*
X147096063Y-127159774D01*
X147240226Y-127303937D01*
X147409744Y-127417205D01*
X147598102Y-127495226D01*
X147798061Y-127535000D01*
X148001939Y-127535000D01*
X148201898Y-127495226D01*
X148390256Y-127417205D01*
X148559774Y-127303937D01*
X148703937Y-127159774D01*
X148817205Y-126990256D01*
X148895226Y-126801898D01*
X148912924Y-126712924D01*
X149001898Y-126695226D01*
X149190256Y-126617205D01*
X149359774Y-126503937D01*
X149503937Y-126359774D01*
X149617205Y-126190256D01*
X149695226Y-126001898D01*
X149712924Y-125912924D01*
X149801898Y-125895226D01*
X149990256Y-125817205D01*
X150159774Y-125703937D01*
X150303937Y-125559774D01*
X150375316Y-125452947D01*
X151135185Y-126212815D01*
X151090256Y-126182795D01*
X150901898Y-126104774D01*
X150701939Y-126065000D01*
X150498061Y-126065000D01*
X150298102Y-126104774D01*
X150109744Y-126182795D01*
X149940226Y-126296063D01*
X149796063Y-126440226D01*
X149682795Y-126609744D01*
X149604774Y-126798102D01*
X149565000Y-126998061D01*
X149565000Y-127201939D01*
X149604774Y-127401898D01*
X149682795Y-127590256D01*
X149796063Y-127759774D01*
X149825958Y-127789669D01*
X149701939Y-127765000D01*
X149498061Y-127765000D01*
X149298102Y-127804774D01*
X149109744Y-127882795D01*
X148940226Y-127996063D01*
X148796063Y-128140226D01*
X148682795Y-128309744D01*
X148604774Y-128498102D01*
X148565000Y-128698061D01*
X148565000Y-128859907D01*
X148509744Y-128882795D01*
X148340226Y-128996063D01*
X148196063Y-129140226D01*
X148166452Y-129184543D01*
X143879970Y-124898061D01*
X144565000Y-124898061D01*
X144565000Y-125101939D01*
X144604774Y-125301898D01*
X144682795Y-125490256D01*
X144796063Y-125659774D01*
X144940226Y-125803937D01*
X145109744Y-125917205D01*
X145298102Y-125995226D01*
X145498061Y-126035000D01*
X145701939Y-126035000D01*
X145901898Y-125995226D01*
X146090256Y-125917205D01*
X146259774Y-125803937D01*
X146403937Y-125659774D01*
X146517205Y-125490256D01*
X146595226Y-125301898D01*
X146635000Y-125101939D01*
X146635000Y-124898061D01*
X146595226Y-124698102D01*
X146517205Y-124509744D01*
X146403937Y-124340226D01*
X146259774Y-124196063D01*
X146090256Y-124082795D01*
X145901898Y-124004774D01*
X145701939Y-123965000D01*
X145498061Y-123965000D01*
X145298102Y-124004774D01*
X145109744Y-124082795D01*
X144940226Y-124196063D01*
X144796063Y-124340226D01*
X144682795Y-124509744D01*
X144604774Y-124698102D01*
X144565000Y-124898061D01*
X143879970Y-124898061D01*
X139675538Y-120693630D01*
X139809774Y-120603937D01*
X139953937Y-120459774D01*
X140067205Y-120290256D01*
X140145226Y-120101898D01*
X140185000Y-119901939D01*
X140185000Y-119698061D01*
X140145226Y-119498102D01*
X140067205Y-119309744D01*
X139953937Y-119140226D01*
X139809774Y-118996063D01*
X139640256Y-118882795D01*
X139451898Y-118804774D01*
X139251939Y-118765000D01*
X139048061Y-118765000D01*
X138848102Y-118804774D01*
X138659744Y-118882795D01*
X138490226Y-118996063D01*
X138346063Y-119140226D01*
X138256370Y-119274462D01*
X138203673Y-119221765D01*
X138176739Y-119188946D01*
X138045787Y-119081476D01*
X137896385Y-119001619D01*
X137734274Y-118952444D01*
X137726001Y-118951629D01*
X138754569Y-117923061D01*
X142865000Y-117923061D01*
X142865000Y-118126939D01*
X142904774Y-118326898D01*
X142982795Y-118515256D01*
X143096063Y-118684774D01*
X143173789Y-118762500D01*
X143096063Y-118840226D01*
X142982795Y-119009744D01*
X142904774Y-119198102D01*
X142865000Y-119398061D01*
X142865000Y-119601939D01*
X142904774Y-119801898D01*
X142982795Y-119990256D01*
X143096063Y-120159774D01*
X143240226Y-120303937D01*
X143409744Y-120417205D01*
X143598102Y-120495226D01*
X143798061Y-120535000D01*
X144001939Y-120535000D01*
X144201898Y-120495226D01*
X144390256Y-120417205D01*
X144559774Y-120303937D01*
X144703937Y-120159774D01*
X144817205Y-119990256D01*
X144895226Y-119801898D01*
X144935000Y-119601939D01*
X144935000Y-119398061D01*
X144895226Y-119198102D01*
X144817205Y-119009744D01*
X144703937Y-118840226D01*
X144626211Y-118762500D01*
X144703937Y-118684774D01*
X144817205Y-118515256D01*
X144895226Y-118326898D01*
X144935000Y-118126939D01*
X144935000Y-117923061D01*
X144895226Y-117723102D01*
X144817205Y-117534744D01*
X144703937Y-117365226D01*
X144559774Y-117221063D01*
X144390256Y-117107795D01*
X144201898Y-117029774D01*
X144001939Y-116990000D01*
X143798061Y-116990000D01*
X143598102Y-117029774D01*
X143409744Y-117107795D01*
X143240226Y-117221063D01*
X143096063Y-117365226D01*
X142982795Y-117534744D01*
X142904774Y-117723102D01*
X142865000Y-117923061D01*
X138754569Y-117923061D01*
X142883365Y-113794266D01*
X142904774Y-113901898D01*
G37*
X142904774Y-113901898D02*
X142982795Y-114090256D01*
X143096063Y-114259774D01*
X143240226Y-114403937D01*
X143409744Y-114517205D01*
X143598102Y-114595226D01*
X143798061Y-114635000D01*
X144001939Y-114635000D01*
X144201898Y-114595226D01*
X144390256Y-114517205D01*
X144559774Y-114403937D01*
X144631021Y-114332690D01*
X145438000Y-115139669D01*
X145438001Y-120162567D01*
X145434314Y-120200000D01*
X145449027Y-120349378D01*
X145492599Y-120493015D01*
X145563355Y-120625392D01*
X145627816Y-120703937D01*
X145658579Y-120741422D01*
X145687649Y-120765279D01*
X148947053Y-124024684D01*
X148840226Y-124096063D01*
X148696063Y-124240226D01*
X148582795Y-124409744D01*
X148504774Y-124598102D01*
X148487076Y-124687076D01*
X148398102Y-124704774D01*
X148209744Y-124782795D01*
X148040226Y-124896063D01*
X147896063Y-125040226D01*
X147782795Y-125209744D01*
X147704774Y-125398102D01*
X147687076Y-125487076D01*
X147598102Y-125504774D01*
X147409744Y-125582795D01*
X147240226Y-125696063D01*
X147096063Y-125840226D01*
X146982795Y-126009744D01*
X146904774Y-126198102D01*
X146865000Y-126398061D01*
X146865000Y-126601939D01*
X146904774Y-126801898D01*
X146982795Y-126990256D01*
X147096063Y-127159774D01*
X147240226Y-127303937D01*
X147409744Y-127417205D01*
X147598102Y-127495226D01*
X147798061Y-127535000D01*
X148001939Y-127535000D01*
X148201898Y-127495226D01*
X148390256Y-127417205D01*
X148559774Y-127303937D01*
X148703937Y-127159774D01*
X148817205Y-126990256D01*
X148895226Y-126801898D01*
X148912924Y-126712924D01*
X149001898Y-126695226D01*
X149190256Y-126617205D01*
X149359774Y-126503937D01*
X149503937Y-126359774D01*
X149617205Y-126190256D01*
X149695226Y-126001898D01*
X149712924Y-125912924D01*
X149801898Y-125895226D01*
X149990256Y-125817205D01*
X150159774Y-125703937D01*
X150303937Y-125559774D01*
X150375316Y-125452947D01*
X151135185Y-126212815D01*
X151090256Y-126182795D01*
X150901898Y-126104774D01*
X150701939Y-126065000D01*
X150498061Y-126065000D01*
X150298102Y-126104774D01*
X150109744Y-126182795D01*
X149940226Y-126296063D01*
X149796063Y-126440226D01*
X149682795Y-126609744D01*
X149604774Y-126798102D01*
X149565000Y-126998061D01*
X149565000Y-127201939D01*
X149604774Y-127401898D01*
X149682795Y-127590256D01*
X149796063Y-127759774D01*
X149825958Y-127789669D01*
X149701939Y-127765000D01*
X149498061Y-127765000D01*
X149298102Y-127804774D01*
X149109744Y-127882795D01*
X148940226Y-127996063D01*
X148796063Y-128140226D01*
X148682795Y-128309744D01*
X148604774Y-128498102D01*
X148565000Y-128698061D01*
X148565000Y-128859907D01*
X148509744Y-128882795D01*
X148340226Y-128996063D01*
X148196063Y-129140226D01*
X148166452Y-129184543D01*
X143879970Y-124898061D01*
X144565000Y-124898061D01*
X144565000Y-125101939D01*
X144604774Y-125301898D01*
X144682795Y-125490256D01*
X144796063Y-125659774D01*
X144940226Y-125803937D01*
X145109744Y-125917205D01*
X145298102Y-125995226D01*
X145498061Y-126035000D01*
X145701939Y-126035000D01*
X145901898Y-125995226D01*
X146090256Y-125917205D01*
X146259774Y-125803937D01*
X146403937Y-125659774D01*
X146517205Y-125490256D01*
X146595226Y-125301898D01*
X146635000Y-125101939D01*
X146635000Y-124898061D01*
X146595226Y-124698102D01*
X146517205Y-124509744D01*
X146403937Y-124340226D01*
X146259774Y-124196063D01*
X146090256Y-124082795D01*
X145901898Y-124004774D01*
X145701939Y-123965000D01*
X145498061Y-123965000D01*
X145298102Y-124004774D01*
X145109744Y-124082795D01*
X144940226Y-124196063D01*
X144796063Y-124340226D01*
X144682795Y-124509744D01*
X144604774Y-124698102D01*
X144565000Y-124898061D01*
X143879970Y-124898061D01*
X139675538Y-120693630D01*
X139809774Y-120603937D01*
X139953937Y-120459774D01*
X140067205Y-120290256D01*
X140145226Y-120101898D01*
X140185000Y-119901939D01*
X140185000Y-119698061D01*
X140145226Y-119498102D01*
X140067205Y-119309744D01*
X139953937Y-119140226D01*
X139809774Y-118996063D01*
X139640256Y-118882795D01*
X139451898Y-118804774D01*
X139251939Y-118765000D01*
X139048061Y-118765000D01*
X138848102Y-118804774D01*
X138659744Y-118882795D01*
X138490226Y-118996063D01*
X138346063Y-119140226D01*
X138256370Y-119274462D01*
X138203673Y-119221765D01*
X138176739Y-119188946D01*
X138045787Y-119081476D01*
X137896385Y-119001619D01*
X137734274Y-118952444D01*
X137726001Y-118951629D01*
X138754569Y-117923061D01*
X142865000Y-117923061D01*
X142865000Y-118126939D01*
X142904774Y-118326898D01*
X142982795Y-118515256D01*
X143096063Y-118684774D01*
X143173789Y-118762500D01*
X143096063Y-118840226D01*
X142982795Y-119009744D01*
X142904774Y-119198102D01*
X142865000Y-119398061D01*
X142865000Y-119601939D01*
X142904774Y-119801898D01*
X142982795Y-119990256D01*
X143096063Y-120159774D01*
X143240226Y-120303937D01*
X143409744Y-120417205D01*
X143598102Y-120495226D01*
X143798061Y-120535000D01*
X144001939Y-120535000D01*
X144201898Y-120495226D01*
X144390256Y-120417205D01*
X144559774Y-120303937D01*
X144703937Y-120159774D01*
X144817205Y-119990256D01*
X144895226Y-119801898D01*
X144935000Y-119601939D01*
X144935000Y-119398061D01*
X144895226Y-119198102D01*
X144817205Y-119009744D01*
X144703937Y-118840226D01*
X144626211Y-118762500D01*
X144703937Y-118684774D01*
X144817205Y-118515256D01*
X144895226Y-118326898D01*
X144935000Y-118126939D01*
X144935000Y-117923061D01*
X144895226Y-117723102D01*
X144817205Y-117534744D01*
X144703937Y-117365226D01*
X144559774Y-117221063D01*
X144390256Y-117107795D01*
X144201898Y-117029774D01*
X144001939Y-116990000D01*
X143798061Y-116990000D01*
X143598102Y-117029774D01*
X143409744Y-117107795D01*
X143240226Y-117221063D01*
X143096063Y-117365226D01*
X142982795Y-117534744D01*
X142904774Y-117723102D01*
X142865000Y-117923061D01*
X138754569Y-117923061D01*
X142883365Y-113794266D01*
X142904774Y-113901898D01*
G36*
X158706375Y-121028665D02*
G01*
X158735656Y-121064344D01*
X158878028Y-121181186D01*
X159040460Y-121268007D01*
X159113707Y-121290226D01*
X159216707Y-121321471D01*
X159371928Y-121336759D01*
X159371928Y-122530000D01*
X159384188Y-122654482D01*
X159420498Y-122774180D01*
X159479463Y-122884494D01*
X159558815Y-122981185D01*
X159655506Y-123060537D01*
X159765820Y-123119502D01*
X159885518Y-123155812D01*
X160010000Y-123168072D01*
X161710000Y-123168072D01*
X161834482Y-123155812D01*
X161954180Y-123119502D01*
X162064494Y-123060537D01*
X162161185Y-122981185D01*
X162240537Y-122884494D01*
X162299502Y-122774180D01*
X162321513Y-122701620D01*
X162453368Y-122833475D01*
X162696589Y-122995990D01*
X162966842Y-123107932D01*
X163253740Y-123165000D01*
X163546260Y-123165000D01*
X163833158Y-123107932D01*
X164103411Y-122995990D01*
X164340000Y-122837906D01*
X164340000Y-126342955D01*
X164209774Y-126212729D01*
X164040256Y-126099461D01*
X163851898Y-126021440D01*
X163651939Y-125981666D01*
X163592631Y-125981666D01*
X162098618Y-124487654D01*
X162074756Y-124458578D01*
X161958726Y-124363355D01*
X161826349Y-124292598D01*
X161682712Y-124249026D01*
X161570760Y-124238000D01*
X161570757Y-124238000D01*
X161533334Y-124234314D01*
X161495911Y-124238000D01*
X160685000Y-124238000D01*
X160685000Y-124098061D01*
X160645226Y-123898102D01*
X160567205Y-123709744D01*
X160453937Y-123540226D01*
X160309774Y-123396063D01*
X160140256Y-123282795D01*
X159951898Y-123204774D01*
X159751939Y-123165000D01*
X159548061Y-123165000D01*
X159348102Y-123204774D01*
X159159744Y-123282795D01*
X158990226Y-123396063D01*
X158948289Y-123438000D01*
X155735795Y-123438000D01*
X149762000Y-116904163D01*
X149762000Y-116618486D01*
X149909744Y-116717205D01*
X150098102Y-116795226D01*
X150298061Y-116835000D01*
X150501939Y-116835000D01*
X150701898Y-116795226D01*
X150890256Y-116717205D01*
X151000000Y-116643877D01*
X151109744Y-116717205D01*
X151298102Y-116795226D01*
X151498061Y-116835000D01*
X151701939Y-116835000D01*
X151901898Y-116795226D01*
X152090256Y-116717205D01*
X152259774Y-116603937D01*
X152403937Y-116459774D01*
X152517205Y-116290256D01*
X152595226Y-116101898D01*
X152635000Y-115901939D01*
X152635000Y-115698061D01*
X152595226Y-115498102D01*
X152517205Y-115309744D01*
X152403937Y-115140226D01*
X152259774Y-114996063D01*
X152090256Y-114882795D01*
X151960000Y-114828841D01*
X151960000Y-114282289D01*
X158706375Y-121028665D01*
G37*
X158706375Y-121028665D02*
X158735656Y-121064344D01*
X158878028Y-121181186D01*
X159040460Y-121268007D01*
X159113707Y-121290226D01*
X159216707Y-121321471D01*
X159371928Y-121336759D01*
X159371928Y-122530000D01*
X159384188Y-122654482D01*
X159420498Y-122774180D01*
X159479463Y-122884494D01*
X159558815Y-122981185D01*
X159655506Y-123060537D01*
X159765820Y-123119502D01*
X159885518Y-123155812D01*
X160010000Y-123168072D01*
X161710000Y-123168072D01*
X161834482Y-123155812D01*
X161954180Y-123119502D01*
X162064494Y-123060537D01*
X162161185Y-122981185D01*
X162240537Y-122884494D01*
X162299502Y-122774180D01*
X162321513Y-122701620D01*
X162453368Y-122833475D01*
X162696589Y-122995990D01*
X162966842Y-123107932D01*
X163253740Y-123165000D01*
X163546260Y-123165000D01*
X163833158Y-123107932D01*
X164103411Y-122995990D01*
X164340000Y-122837906D01*
X164340000Y-126342955D01*
X164209774Y-126212729D01*
X164040256Y-126099461D01*
X163851898Y-126021440D01*
X163651939Y-125981666D01*
X163592631Y-125981666D01*
X162098618Y-124487654D01*
X162074756Y-124458578D01*
X161958726Y-124363355D01*
X161826349Y-124292598D01*
X161682712Y-124249026D01*
X161570760Y-124238000D01*
X161570757Y-124238000D01*
X161533334Y-124234314D01*
X161495911Y-124238000D01*
X160685000Y-124238000D01*
X160685000Y-124098061D01*
X160645226Y-123898102D01*
X160567205Y-123709744D01*
X160453937Y-123540226D01*
X160309774Y-123396063D01*
X160140256Y-123282795D01*
X159951898Y-123204774D01*
X159751939Y-123165000D01*
X159548061Y-123165000D01*
X159348102Y-123204774D01*
X159159744Y-123282795D01*
X158990226Y-123396063D01*
X158948289Y-123438000D01*
X155735795Y-123438000D01*
X149762000Y-116904163D01*
X149762000Y-116618486D01*
X149909744Y-116717205D01*
X150098102Y-116795226D01*
X150298061Y-116835000D01*
X150501939Y-116835000D01*
X150701898Y-116795226D01*
X150890256Y-116717205D01*
X151000000Y-116643877D01*
X151109744Y-116717205D01*
X151298102Y-116795226D01*
X151498061Y-116835000D01*
X151701939Y-116835000D01*
X151901898Y-116795226D01*
X152090256Y-116717205D01*
X152259774Y-116603937D01*
X152403937Y-116459774D01*
X152517205Y-116290256D01*
X152595226Y-116101898D01*
X152635000Y-115901939D01*
X152635000Y-115698061D01*
X152595226Y-115498102D01*
X152517205Y-115309744D01*
X152403937Y-115140226D01*
X152259774Y-114996063D01*
X152090256Y-114882795D01*
X151960000Y-114828841D01*
X151960000Y-114282289D01*
X158706375Y-121028665D01*
G36*
X153440226Y-112403937D02*
G01*
X153609744Y-112517205D01*
X153798102Y-112595226D01*
X153998061Y-112635000D01*
X154057370Y-112635000D01*
X157334716Y-115912346D01*
X157358578Y-115941422D01*
X157404738Y-115979304D01*
X157474607Y-116036645D01*
X157488729Y-116044193D01*
X157606985Y-116107402D01*
X157750622Y-116150974D01*
X157862574Y-116162000D01*
X157862577Y-116162000D01*
X157900000Y-116165686D01*
X157937423Y-116162000D01*
X159443126Y-116162000D01*
X159418524Y-116243110D01*
X159539845Y-116473000D01*
X160733000Y-116473000D01*
X160733000Y-116453000D01*
X160987000Y-116453000D01*
X160987000Y-116473000D01*
X161007000Y-116473000D01*
X161007000Y-116727000D01*
X160987000Y-116727000D01*
X160987000Y-116747000D01*
X160733000Y-116747000D01*
X160733000Y-116727000D01*
X159539845Y-116727000D01*
X159418524Y-116956890D01*
X159463175Y-117104099D01*
X159588359Y-117366920D01*
X159762412Y-117600269D01*
X159978645Y-117795178D01*
X160095534Y-117864805D01*
X159913368Y-117986525D01*
X159706525Y-118193368D01*
X159544010Y-118436589D01*
X159432068Y-118706842D01*
X159375000Y-118993740D01*
X159375000Y-119052710D01*
X153435001Y-113112712D01*
X153435001Y-112398712D01*
X153440226Y-112403937D01*
G37*
X153440226Y-112403937D02*
X153609744Y-112517205D01*
X153798102Y-112595226D01*
X153998061Y-112635000D01*
X154057370Y-112635000D01*
X157334716Y-115912346D01*
X157358578Y-115941422D01*
X157404738Y-115979304D01*
X157474607Y-116036645D01*
X157488729Y-116044193D01*
X157606985Y-116107402D01*
X157750622Y-116150974D01*
X157862574Y-116162000D01*
X157862577Y-116162000D01*
X157900000Y-116165686D01*
X157937423Y-116162000D01*
X159443126Y-116162000D01*
X159418524Y-116243110D01*
X159539845Y-116473000D01*
X160733000Y-116473000D01*
X160733000Y-116453000D01*
X160987000Y-116453000D01*
X160987000Y-116473000D01*
X161007000Y-116473000D01*
X161007000Y-116727000D01*
X160987000Y-116727000D01*
X160987000Y-116747000D01*
X160733000Y-116747000D01*
X160733000Y-116727000D01*
X159539845Y-116727000D01*
X159418524Y-116956890D01*
X159463175Y-117104099D01*
X159588359Y-117366920D01*
X159762412Y-117600269D01*
X159978645Y-117795178D01*
X160095534Y-117864805D01*
X159913368Y-117986525D01*
X159706525Y-118193368D01*
X159544010Y-118436589D01*
X159432068Y-118706842D01*
X159375000Y-118993740D01*
X159375000Y-119052710D01*
X153435001Y-113112712D01*
X153435001Y-112398712D01*
X153440226Y-112403937D01*
G36*
X150040000Y-111997647D02*
G01*
X150040001Y-114828840D01*
X149909744Y-114882795D01*
X149762000Y-114981514D01*
X149762000Y-113837422D01*
X149765686Y-113799999D01*
X149762000Y-113762574D01*
X149750974Y-113650622D01*
X149707402Y-113506985D01*
X149636645Y-113374608D01*
X149541422Y-113258578D01*
X149512353Y-113234722D01*
X147257264Y-110979634D01*
X147233402Y-110950558D01*
X147117372Y-110855335D01*
X146984995Y-110784578D01*
X146841358Y-110741006D01*
X146729406Y-110729980D01*
X146729403Y-110729980D01*
X146691980Y-110726294D01*
X146654557Y-110729980D01*
X142627667Y-110729980D01*
X143197647Y-110160000D01*
X148202354Y-110160000D01*
X150040000Y-111997647D01*
G37*
X150040000Y-111997647D02*
X150040001Y-114828840D01*
X149909744Y-114882795D01*
X149762000Y-114981514D01*
X149762000Y-113837422D01*
X149765686Y-113799999D01*
X149762000Y-113762574D01*
X149750974Y-113650622D01*
X149707402Y-113506985D01*
X149636645Y-113374608D01*
X149541422Y-113258578D01*
X149512353Y-113234722D01*
X147257264Y-110979634D01*
X147233402Y-110950558D01*
X147117372Y-110855335D01*
X146984995Y-110784578D01*
X146841358Y-110741006D01*
X146729406Y-110729980D01*
X146729403Y-110729980D01*
X146691980Y-110726294D01*
X146654557Y-110729980D01*
X142627667Y-110729980D01*
X143197647Y-110160000D01*
X148202354Y-110160000D01*
X150040000Y-111997647D01*
G36*
X146440498Y-102494180D02*
G01*
X146499463Y-102604494D01*
X146578815Y-102701185D01*
X146675506Y-102780537D01*
X146785820Y-102839502D01*
X146905518Y-102875812D01*
X146945001Y-102879701D01*
X146945000Y-104584068D01*
X146940476Y-104630000D01*
X146953063Y-104757795D01*
X146958529Y-104813291D01*
X147011993Y-104989539D01*
X147098814Y-105151971D01*
X147215656Y-105294344D01*
X147251341Y-105323630D01*
X150306374Y-108378664D01*
X150335656Y-108414344D01*
X150478028Y-108531186D01*
X150640460Y-108618007D01*
X150752458Y-108651981D01*
X150816707Y-108671471D01*
X150888228Y-108678515D01*
X151565002Y-109355289D01*
X151565002Y-110807355D01*
X149238459Y-108480812D01*
X149215438Y-108452762D01*
X149103520Y-108360913D01*
X148975833Y-108292663D01*
X148837285Y-108250635D01*
X148729305Y-108240000D01*
X148693200Y-108236444D01*
X148657095Y-108240000D01*
X146789959Y-108240000D01*
X146776323Y-108214488D01*
X146736935Y-108166494D01*
X146698915Y-108117422D01*
X146664966Y-108087929D01*
X146635468Y-108053974D01*
X146586380Y-108015942D01*
X146538401Y-107976567D01*
X146498739Y-107955367D01*
X146462421Y-107928825D01*
X146406107Y-107902673D01*
X146350570Y-107874961D01*
X146307182Y-107863117D01*
X146265873Y-107845324D01*
X146205140Y-107832355D01*
X146144830Y-107817698D01*
X146105190Y-107816029D01*
X146070777Y-107812640D01*
X146040008Y-107809173D01*
X146034842Y-107809101D01*
X146029699Y-107808594D01*
X145998709Y-107808594D01*
X145931517Y-107807652D01*
X145926408Y-107808594D01*
X145892188Y-107808594D01*
X145887079Y-107807652D01*
X145819887Y-107808594D01*
X145788895Y-107808594D01*
X145783751Y-107809101D01*
X145778587Y-107809173D01*
X145747825Y-107812639D01*
X145713400Y-107816030D01*
X145673763Y-107817698D01*
X145613434Y-107832360D01*
X145552722Y-107845324D01*
X145511414Y-107863117D01*
X145468023Y-107874961D01*
X145412486Y-107902673D01*
X145356172Y-107928825D01*
X145319857Y-107955365D01*
X145280191Y-107976567D01*
X145232197Y-108015955D01*
X145183125Y-108053975D01*
X145153632Y-108087924D01*
X145119677Y-108117422D01*
X145081645Y-108166510D01*
X145042270Y-108214489D01*
X145028634Y-108240000D01*
X142817646Y-108240000D01*
X144789197Y-106268450D01*
X144817237Y-106245438D01*
X144840250Y-106217397D01*
X144840253Y-106217394D01*
X144909086Y-106133521D01*
X144909087Y-106133520D01*
X144977337Y-106005833D01*
X145019365Y-105867285D01*
X145030000Y-105759305D01*
X145030000Y-105759296D01*
X145033555Y-105723201D01*
X145030000Y-105687106D01*
X145030000Y-102852430D01*
X145193740Y-102885000D01*
X145486260Y-102885000D01*
X145773158Y-102827932D01*
X146043411Y-102715990D01*
X146286632Y-102553475D01*
X146418487Y-102421620D01*
X146440498Y-102494180D01*
G37*
X146440498Y-102494180D02*
X146499463Y-102604494D01*
X146578815Y-102701185D01*
X146675506Y-102780537D01*
X146785820Y-102839502D01*
X146905518Y-102875812D01*
X146945001Y-102879701D01*
X146945000Y-104584068D01*
X146940476Y-104630000D01*
X146953063Y-104757795D01*
X146958529Y-104813291D01*
X147011993Y-104989539D01*
X147098814Y-105151971D01*
X147215656Y-105294344D01*
X147251341Y-105323630D01*
X150306374Y-108378664D01*
X150335656Y-108414344D01*
X150478028Y-108531186D01*
X150640460Y-108618007D01*
X150752458Y-108651981D01*
X150816707Y-108671471D01*
X150888228Y-108678515D01*
X151565002Y-109355289D01*
X151565002Y-110807355D01*
X149238459Y-108480812D01*
X149215438Y-108452762D01*
X149103520Y-108360913D01*
X148975833Y-108292663D01*
X148837285Y-108250635D01*
X148729305Y-108240000D01*
X148693200Y-108236444D01*
X148657095Y-108240000D01*
X146789959Y-108240000D01*
X146776323Y-108214488D01*
X146736935Y-108166494D01*
X146698915Y-108117422D01*
X146664966Y-108087929D01*
X146635468Y-108053974D01*
X146586380Y-108015942D01*
X146538401Y-107976567D01*
X146498739Y-107955367D01*
X146462421Y-107928825D01*
X146406107Y-107902673D01*
X146350570Y-107874961D01*
X146307182Y-107863117D01*
X146265873Y-107845324D01*
X146205140Y-107832355D01*
X146144830Y-107817698D01*
X146105190Y-107816029D01*
X146070777Y-107812640D01*
X146040008Y-107809173D01*
X146034842Y-107809101D01*
X146029699Y-107808594D01*
X145998709Y-107808594D01*
X145931517Y-107807652D01*
X145926408Y-107808594D01*
X145892188Y-107808594D01*
X145887079Y-107807652D01*
X145819887Y-107808594D01*
X145788895Y-107808594D01*
X145783751Y-107809101D01*
X145778587Y-107809173D01*
X145747825Y-107812639D01*
X145713400Y-107816030D01*
X145673763Y-107817698D01*
X145613434Y-107832360D01*
X145552722Y-107845324D01*
X145511414Y-107863117D01*
X145468023Y-107874961D01*
X145412486Y-107902673D01*
X145356172Y-107928825D01*
X145319857Y-107955365D01*
X145280191Y-107976567D01*
X145232197Y-108015955D01*
X145183125Y-108053975D01*
X145153632Y-108087924D01*
X145119677Y-108117422D01*
X145081645Y-108166510D01*
X145042270Y-108214489D01*
X145028634Y-108240000D01*
X142817646Y-108240000D01*
X144789197Y-106268450D01*
X144817237Y-106245438D01*
X144840250Y-106217397D01*
X144840253Y-106217394D01*
X144909086Y-106133521D01*
X144909087Y-106133520D01*
X144977337Y-106005833D01*
X145019365Y-105867285D01*
X145030000Y-105759305D01*
X145030000Y-105759296D01*
X145033555Y-105723201D01*
X145030000Y-105687106D01*
X145030000Y-102852430D01*
X145193740Y-102885000D01*
X145486260Y-102885000D01*
X145773158Y-102827932D01*
X146043411Y-102715990D01*
X146286632Y-102553475D01*
X146418487Y-102421620D01*
X146440498Y-102494180D01*
M02*
