G04 #@! TF.GenerationSoftware,KiCad,Pcbnew,5.1.5+dfsg1-2build2*
G04 #@! TF.CreationDate,2021-06-26T08:25:30+02:00*
G04 #@! TF.ProjectId,usb_switch,7573625f-7377-4697-9463-682e6b696361,rev?*
G04 #@! TF.SameCoordinates,Original*
G04 #@! TF.FileFunction,Soldermask,Bot*
G04 #@! TF.FilePolarity,Negative*
%FSLAX46Y46*%
G04 Gerber Fmt 4.6, Leading zero omitted, Abs format (unit mm)*
G04 Created by KiCad (PCBNEW 5.1.5+dfsg1-2build2) date 2021-06-26 08:25:30*
%MOMM*%
%LPD*%
G04 APERTURE LIST*
%ADD10C,0.100000*%
G04 APERTURE END LIST*
D10*
G36*
X140372585Y-136188802D02*
G01*
X140522410Y-136218604D01*
X140804674Y-136335521D01*
X141058705Y-136505259D01*
X141274741Y-136721295D01*
X141444479Y-136975326D01*
X141561396Y-137257590D01*
X141576940Y-137335734D01*
X141621000Y-137557239D01*
X141621000Y-137862761D01*
X141609474Y-137920705D01*
X141561396Y-138162410D01*
X141444479Y-138444674D01*
X141274741Y-138698705D01*
X141058705Y-138914741D01*
X140804674Y-139084479D01*
X140522410Y-139201396D01*
X140372585Y-139231198D01*
X140222761Y-139261000D01*
X139917239Y-139261000D01*
X139767415Y-139231198D01*
X139617590Y-139201396D01*
X139335326Y-139084479D01*
X139081295Y-138914741D01*
X138865259Y-138698705D01*
X138695521Y-138444674D01*
X138578604Y-138162410D01*
X138530526Y-137920705D01*
X138519000Y-137862761D01*
X138519000Y-137557239D01*
X138563060Y-137335734D01*
X138578604Y-137257590D01*
X138695521Y-136975326D01*
X138865259Y-136721295D01*
X139081295Y-136505259D01*
X139335326Y-136335521D01*
X139617590Y-136218604D01*
X139767415Y-136188802D01*
X139917239Y-136159000D01*
X140222761Y-136159000D01*
X140372585Y-136188802D01*
G37*
G36*
X127232585Y-136188802D02*
G01*
X127382410Y-136218604D01*
X127664674Y-136335521D01*
X127918705Y-136505259D01*
X128134741Y-136721295D01*
X128304479Y-136975326D01*
X128421396Y-137257590D01*
X128436940Y-137335734D01*
X128481000Y-137557239D01*
X128481000Y-137862761D01*
X128469474Y-137920705D01*
X128421396Y-138162410D01*
X128304479Y-138444674D01*
X128134741Y-138698705D01*
X127918705Y-138914741D01*
X127664674Y-139084479D01*
X127382410Y-139201396D01*
X127232585Y-139231198D01*
X127082761Y-139261000D01*
X126777239Y-139261000D01*
X126627415Y-139231198D01*
X126477590Y-139201396D01*
X126195326Y-139084479D01*
X125941295Y-138914741D01*
X125725259Y-138698705D01*
X125555521Y-138444674D01*
X125438604Y-138162410D01*
X125390526Y-137920705D01*
X125379000Y-137862761D01*
X125379000Y-137557239D01*
X125423060Y-137335734D01*
X125438604Y-137257590D01*
X125555521Y-136975326D01*
X125725259Y-136721295D01*
X125941295Y-136505259D01*
X126195326Y-136335521D01*
X126477590Y-136218604D01*
X126627415Y-136188802D01*
X126777239Y-136159000D01*
X127082761Y-136159000D01*
X127232585Y-136188802D01*
G37*
G36*
X137012199Y-136799954D02*
G01*
X137024450Y-136800556D01*
X137042869Y-136800556D01*
X137065149Y-136802750D01*
X137149233Y-136819476D01*
X137170660Y-136825976D01*
X137249858Y-136858780D01*
X137255303Y-136861691D01*
X137255309Y-136861693D01*
X137264169Y-136866429D01*
X137264173Y-136866432D01*
X137269614Y-136869340D01*
X137340899Y-136916971D01*
X137358204Y-136931172D01*
X137418828Y-136991796D01*
X137433029Y-137009101D01*
X137480660Y-137080386D01*
X137483568Y-137085827D01*
X137483571Y-137085831D01*
X137488307Y-137094691D01*
X137488309Y-137094697D01*
X137491220Y-137100142D01*
X137524024Y-137179340D01*
X137530524Y-137200767D01*
X137547250Y-137284851D01*
X137549444Y-137307131D01*
X137549444Y-137325550D01*
X137550046Y-137337801D01*
X137551852Y-137356139D01*
X137551852Y-137843860D01*
X137550263Y-137859999D01*
X137547348Y-137869608D01*
X137542610Y-137878472D01*
X137536237Y-137886237D01*
X137523794Y-137896448D01*
X137513425Y-137903378D01*
X137496098Y-137920705D01*
X137482485Y-137941080D01*
X137473109Y-137963720D01*
X137468329Y-137987753D01*
X137468330Y-138012257D01*
X137473112Y-138036290D01*
X137482490Y-138058929D01*
X137496105Y-138079302D01*
X137513432Y-138096629D01*
X137523802Y-138103558D01*
X137536237Y-138113763D01*
X137542610Y-138121528D01*
X137547348Y-138130392D01*
X137550263Y-138140001D01*
X137551852Y-138156140D01*
X137551852Y-138643862D01*
X137550046Y-138662199D01*
X137549444Y-138674450D01*
X137549444Y-138692869D01*
X137547250Y-138715149D01*
X137530524Y-138799233D01*
X137524024Y-138820660D01*
X137491220Y-138899858D01*
X137488309Y-138905303D01*
X137488307Y-138905309D01*
X137483571Y-138914169D01*
X137483568Y-138914173D01*
X137480660Y-138919614D01*
X137433029Y-138990899D01*
X137418828Y-139008204D01*
X137358204Y-139068828D01*
X137340899Y-139083029D01*
X137269614Y-139130660D01*
X137264173Y-139133568D01*
X137264169Y-139133571D01*
X137255309Y-139138307D01*
X137255303Y-139138309D01*
X137249858Y-139141220D01*
X137170660Y-139174024D01*
X137149233Y-139180524D01*
X137065149Y-139197250D01*
X137042869Y-139199444D01*
X137024450Y-139199444D01*
X137012199Y-139200046D01*
X136993862Y-139201852D01*
X136506138Y-139201852D01*
X136487801Y-139200046D01*
X136475550Y-139199444D01*
X136457131Y-139199444D01*
X136434851Y-139197250D01*
X136350767Y-139180524D01*
X136329340Y-139174024D01*
X136250142Y-139141220D01*
X136244697Y-139138309D01*
X136244691Y-139138307D01*
X136235831Y-139133571D01*
X136235827Y-139133568D01*
X136230386Y-139130660D01*
X136159101Y-139083029D01*
X136141796Y-139068828D01*
X136081172Y-139008204D01*
X136066971Y-138990899D01*
X136019340Y-138919614D01*
X136016432Y-138914173D01*
X136016429Y-138914169D01*
X136011693Y-138905309D01*
X136011691Y-138905303D01*
X136008780Y-138899858D01*
X135975976Y-138820660D01*
X135969476Y-138799233D01*
X135952750Y-138715149D01*
X135950556Y-138692869D01*
X135950556Y-138674450D01*
X135949954Y-138662199D01*
X135948148Y-138643862D01*
X135948148Y-138156140D01*
X135949737Y-138140001D01*
X135952652Y-138130392D01*
X135957390Y-138121528D01*
X135963763Y-138113763D01*
X135976206Y-138103552D01*
X135986575Y-138096622D01*
X136003902Y-138079295D01*
X136017515Y-138058920D01*
X136026891Y-138036280D01*
X136031671Y-138012247D01*
X136031670Y-137987743D01*
X136026888Y-137963710D01*
X136017510Y-137941071D01*
X136003895Y-137920698D01*
X135986568Y-137903371D01*
X135976198Y-137896442D01*
X135963763Y-137886237D01*
X135957390Y-137878472D01*
X135952652Y-137869608D01*
X135949737Y-137859999D01*
X135948148Y-137843860D01*
X135948148Y-137356139D01*
X135949954Y-137337801D01*
X135950556Y-137325550D01*
X135950556Y-137307131D01*
X135952750Y-137284851D01*
X135969476Y-137200767D01*
X135975976Y-137179340D01*
X136008780Y-137100142D01*
X136011691Y-137094697D01*
X136011693Y-137094691D01*
X136016429Y-137085831D01*
X136016432Y-137085827D01*
X136019340Y-137080386D01*
X136066971Y-137009101D01*
X136081172Y-136991796D01*
X136141796Y-136931172D01*
X136159101Y-136916971D01*
X136230386Y-136869340D01*
X136235827Y-136866432D01*
X136235831Y-136866429D01*
X136244691Y-136861693D01*
X136244697Y-136861691D01*
X136250142Y-136858780D01*
X136329340Y-136825976D01*
X136350767Y-136819476D01*
X136434851Y-136802750D01*
X136457131Y-136800556D01*
X136475550Y-136800556D01*
X136487801Y-136799954D01*
X136506139Y-136798148D01*
X136993861Y-136798148D01*
X137012199Y-136799954D01*
G37*
G36*
X145024549Y-135871116D02*
G01*
X145135734Y-135893232D01*
X145345203Y-135979997D01*
X145533720Y-136105960D01*
X145694040Y-136266280D01*
X145820003Y-136454797D01*
X145820004Y-136454799D01*
X145845416Y-136516150D01*
X145888847Y-136621000D01*
X145906768Y-136664267D01*
X145951000Y-136886635D01*
X145951000Y-137113365D01*
X145933615Y-137200767D01*
X145906768Y-137335734D01*
X145820003Y-137545203D01*
X145694040Y-137733720D01*
X145533720Y-137894040D01*
X145345203Y-138020003D01*
X145135734Y-138106768D01*
X145061530Y-138121528D01*
X144913365Y-138151000D01*
X144686635Y-138151000D01*
X144538470Y-138121528D01*
X144464266Y-138106768D01*
X144254797Y-138020003D01*
X144066280Y-137894040D01*
X143905960Y-137733720D01*
X143779997Y-137545203D01*
X143693232Y-137335734D01*
X143666385Y-137200767D01*
X143649000Y-137113365D01*
X143649000Y-136886635D01*
X143693232Y-136664267D01*
X143711154Y-136621000D01*
X143754584Y-136516150D01*
X143779996Y-136454799D01*
X143779997Y-136454797D01*
X143905960Y-136266280D01*
X144066280Y-136105960D01*
X144254797Y-135979997D01*
X144464266Y-135893232D01*
X144575451Y-135871116D01*
X144686635Y-135849000D01*
X144913365Y-135849000D01*
X145024549Y-135871116D01*
G37*
G36*
X117592585Y-133548802D02*
G01*
X117742410Y-133578604D01*
X118024674Y-133695521D01*
X118278705Y-133865259D01*
X118494741Y-134081295D01*
X118664479Y-134335326D01*
X118781396Y-134617590D01*
X118841000Y-134917240D01*
X118841000Y-135222760D01*
X118781396Y-135522410D01*
X118664479Y-135804674D01*
X118494741Y-136058705D01*
X118278705Y-136274741D01*
X118024674Y-136444479D01*
X117742410Y-136561396D01*
X117592585Y-136591198D01*
X117442761Y-136621000D01*
X117137239Y-136621000D01*
X116987415Y-136591198D01*
X116837590Y-136561396D01*
X116555326Y-136444479D01*
X116301295Y-136274741D01*
X116085259Y-136058705D01*
X115915521Y-135804674D01*
X115798604Y-135522410D01*
X115739000Y-135222760D01*
X115739000Y-134917240D01*
X115798604Y-134617590D01*
X115915521Y-134335326D01*
X116085259Y-134081295D01*
X116301295Y-133865259D01*
X116555326Y-133695521D01*
X116837590Y-133578604D01*
X116987415Y-133548802D01*
X117137239Y-133519000D01*
X117442761Y-133519000D01*
X117592585Y-133548802D01*
G37*
G36*
X130851000Y-135851000D02*
G01*
X129149000Y-135851000D01*
X129149000Y-134149000D01*
X130851000Y-134149000D01*
X130851000Y-135851000D01*
G37*
G36*
X137248228Y-134181703D02*
G01*
X137403100Y-134245853D01*
X137542481Y-134338985D01*
X137661015Y-134457519D01*
X137754147Y-134596900D01*
X137818297Y-134751772D01*
X137851000Y-134916184D01*
X137851000Y-135083816D01*
X137818297Y-135248228D01*
X137754147Y-135403100D01*
X137661015Y-135542481D01*
X137542481Y-135661015D01*
X137403100Y-135754147D01*
X137248228Y-135818297D01*
X137083816Y-135851000D01*
X136916184Y-135851000D01*
X136751772Y-135818297D01*
X136596900Y-135754147D01*
X136457519Y-135661015D01*
X136338985Y-135542481D01*
X136245853Y-135403100D01*
X136181703Y-135248228D01*
X136149000Y-135083816D01*
X136149000Y-134916184D01*
X136181703Y-134751772D01*
X136245853Y-134596900D01*
X136338985Y-134457519D01*
X136457519Y-134338985D01*
X136596900Y-134245853D01*
X136751772Y-134181703D01*
X136916184Y-134149000D01*
X137083816Y-134149000D01*
X137248228Y-134181703D01*
G37*
G36*
X132748228Y-134181703D02*
G01*
X132903100Y-134245853D01*
X133042481Y-134338985D01*
X133161015Y-134457519D01*
X133254147Y-134596900D01*
X133318297Y-134751772D01*
X133351000Y-134916184D01*
X133351000Y-135083816D01*
X133318297Y-135248228D01*
X133254147Y-135403100D01*
X133161015Y-135542481D01*
X133042481Y-135661015D01*
X132903100Y-135754147D01*
X132748228Y-135818297D01*
X132583816Y-135851000D01*
X132416184Y-135851000D01*
X132251772Y-135818297D01*
X132096900Y-135754147D01*
X131957519Y-135661015D01*
X131838985Y-135542481D01*
X131745853Y-135403100D01*
X131681703Y-135248228D01*
X131649000Y-135083816D01*
X131649000Y-134916184D01*
X131681703Y-134751772D01*
X131745853Y-134596900D01*
X131838985Y-134457519D01*
X131957519Y-134338985D01*
X132096900Y-134245853D01*
X132251772Y-134181703D01*
X132416184Y-134149000D01*
X132583816Y-134149000D01*
X132748228Y-134181703D01*
G37*
G36*
X134748228Y-134181703D02*
G01*
X134903100Y-134245853D01*
X135042481Y-134338985D01*
X135161015Y-134457519D01*
X135254147Y-134596900D01*
X135318297Y-134751772D01*
X135351000Y-134916184D01*
X135351000Y-135083816D01*
X135318297Y-135248228D01*
X135254147Y-135403100D01*
X135161015Y-135542481D01*
X135042481Y-135661015D01*
X134903100Y-135754147D01*
X134748228Y-135818297D01*
X134583816Y-135851000D01*
X134416184Y-135851000D01*
X134251772Y-135818297D01*
X134096900Y-135754147D01*
X133957519Y-135661015D01*
X133838985Y-135542481D01*
X133745853Y-135403100D01*
X133681703Y-135248228D01*
X133649000Y-135083816D01*
X133649000Y-134916184D01*
X133681703Y-134751772D01*
X133745853Y-134596900D01*
X133838985Y-134457519D01*
X133957519Y-134338985D01*
X134096900Y-134245853D01*
X134251772Y-134181703D01*
X134416184Y-134149000D01*
X134583816Y-134149000D01*
X134748228Y-134181703D01*
G37*
G36*
X120248228Y-131181703D02*
G01*
X120403100Y-131245853D01*
X120542481Y-131338985D01*
X120661015Y-131457519D01*
X120754147Y-131596900D01*
X120818297Y-131751772D01*
X120851000Y-131916184D01*
X120851000Y-132083816D01*
X120818297Y-132248228D01*
X120754147Y-132403100D01*
X120661015Y-132542481D01*
X120542481Y-132661015D01*
X120403100Y-132754147D01*
X120248228Y-132818297D01*
X120083816Y-132851000D01*
X119916184Y-132851000D01*
X119751772Y-132818297D01*
X119596900Y-132754147D01*
X119457519Y-132661015D01*
X119338985Y-132542481D01*
X119245853Y-132403100D01*
X119181703Y-132248228D01*
X119149000Y-132083816D01*
X119149000Y-131916184D01*
X119181703Y-131751772D01*
X119245853Y-131596900D01*
X119338985Y-131457519D01*
X119457519Y-131338985D01*
X119596900Y-131245853D01*
X119751772Y-131181703D01*
X119916184Y-131149000D01*
X120083816Y-131149000D01*
X120248228Y-131181703D01*
G37*
G36*
X117009999Y-130949737D02*
G01*
X117019608Y-130952652D01*
X117028472Y-130957390D01*
X117036237Y-130963763D01*
X117046448Y-130976206D01*
X117053378Y-130986575D01*
X117070705Y-131003902D01*
X117091080Y-131017515D01*
X117113720Y-131026891D01*
X117137753Y-131031671D01*
X117162257Y-131031670D01*
X117186290Y-131026888D01*
X117208929Y-131017510D01*
X117229302Y-131003895D01*
X117246629Y-130986568D01*
X117253558Y-130976198D01*
X117263763Y-130963763D01*
X117271528Y-130957390D01*
X117280392Y-130952652D01*
X117290001Y-130949737D01*
X117306140Y-130948148D01*
X117793861Y-130948148D01*
X117812199Y-130949954D01*
X117824450Y-130950556D01*
X117842869Y-130950556D01*
X117865149Y-130952750D01*
X117949233Y-130969476D01*
X117970660Y-130975976D01*
X118049858Y-131008780D01*
X118055303Y-131011691D01*
X118055309Y-131011693D01*
X118064169Y-131016429D01*
X118064173Y-131016432D01*
X118069614Y-131019340D01*
X118140899Y-131066971D01*
X118158204Y-131081172D01*
X118218828Y-131141796D01*
X118233029Y-131159101D01*
X118280660Y-131230386D01*
X118283568Y-131235827D01*
X118283571Y-131235831D01*
X118288307Y-131244691D01*
X118288309Y-131244697D01*
X118291220Y-131250142D01*
X118324024Y-131329340D01*
X118330524Y-131350767D01*
X118347250Y-131434851D01*
X118349444Y-131457131D01*
X118349444Y-131475550D01*
X118350046Y-131487801D01*
X118351852Y-131506139D01*
X118351852Y-131993862D01*
X118350046Y-132012199D01*
X118349444Y-132024450D01*
X118349444Y-132042869D01*
X118347250Y-132065149D01*
X118330524Y-132149233D01*
X118324024Y-132170660D01*
X118291220Y-132249858D01*
X118288309Y-132255303D01*
X118288307Y-132255309D01*
X118283571Y-132264169D01*
X118283568Y-132264173D01*
X118280660Y-132269614D01*
X118233029Y-132340899D01*
X118218828Y-132358204D01*
X118158204Y-132418828D01*
X118140899Y-132433029D01*
X118069614Y-132480660D01*
X118064173Y-132483568D01*
X118064169Y-132483571D01*
X118055309Y-132488307D01*
X118055303Y-132488309D01*
X118049858Y-132491220D01*
X117970660Y-132524024D01*
X117949233Y-132530524D01*
X117865149Y-132547250D01*
X117842869Y-132549444D01*
X117824450Y-132549444D01*
X117812199Y-132550046D01*
X117793862Y-132551852D01*
X117306140Y-132551852D01*
X117290001Y-132550263D01*
X117280392Y-132547348D01*
X117271528Y-132542610D01*
X117263763Y-132536237D01*
X117253552Y-132523794D01*
X117246622Y-132513425D01*
X117229295Y-132496098D01*
X117208920Y-132482485D01*
X117186280Y-132473109D01*
X117162247Y-132468329D01*
X117137743Y-132468330D01*
X117113710Y-132473112D01*
X117091071Y-132482490D01*
X117070698Y-132496105D01*
X117053371Y-132513432D01*
X117046442Y-132523802D01*
X117036237Y-132536237D01*
X117028472Y-132542610D01*
X117019608Y-132547348D01*
X117009999Y-132550263D01*
X116993860Y-132551852D01*
X116506138Y-132551852D01*
X116487801Y-132550046D01*
X116475550Y-132549444D01*
X116457131Y-132549444D01*
X116434851Y-132547250D01*
X116350767Y-132530524D01*
X116329340Y-132524024D01*
X116250142Y-132491220D01*
X116244697Y-132488309D01*
X116244691Y-132488307D01*
X116235831Y-132483571D01*
X116235827Y-132483568D01*
X116230386Y-132480660D01*
X116159101Y-132433029D01*
X116141796Y-132418828D01*
X116081172Y-132358204D01*
X116066971Y-132340899D01*
X116019340Y-132269614D01*
X116016432Y-132264173D01*
X116016429Y-132264169D01*
X116011693Y-132255309D01*
X116011691Y-132255303D01*
X116008780Y-132249858D01*
X115975976Y-132170660D01*
X115969476Y-132149233D01*
X115952750Y-132065149D01*
X115950556Y-132042869D01*
X115950556Y-132024450D01*
X115949954Y-132012199D01*
X115948148Y-131993862D01*
X115948148Y-131506139D01*
X115949954Y-131487801D01*
X115950556Y-131475550D01*
X115950556Y-131457131D01*
X115952750Y-131434851D01*
X115969476Y-131350767D01*
X115975976Y-131329340D01*
X116008780Y-131250142D01*
X116011691Y-131244697D01*
X116011693Y-131244691D01*
X116016429Y-131235831D01*
X116016432Y-131235827D01*
X116019340Y-131230386D01*
X116066971Y-131159101D01*
X116081172Y-131141796D01*
X116141796Y-131081172D01*
X116159101Y-131066971D01*
X116230386Y-131019340D01*
X116235827Y-131016432D01*
X116235831Y-131016429D01*
X116244691Y-131011693D01*
X116244697Y-131011691D01*
X116250142Y-131008780D01*
X116329340Y-130975976D01*
X116350767Y-130969476D01*
X116434851Y-130952750D01*
X116457131Y-130950556D01*
X116475550Y-130950556D01*
X116487801Y-130949954D01*
X116506139Y-130948148D01*
X116993860Y-130948148D01*
X117009999Y-130949737D01*
G37*
G36*
X120248228Y-128681703D02*
G01*
X120403100Y-128745853D01*
X120542481Y-128838985D01*
X120661015Y-128957519D01*
X120754147Y-129096900D01*
X120818297Y-129251772D01*
X120851000Y-129416184D01*
X120851000Y-129583816D01*
X120818297Y-129748228D01*
X120754147Y-129903100D01*
X120661015Y-130042481D01*
X120542481Y-130161015D01*
X120403100Y-130254147D01*
X120248228Y-130318297D01*
X120083816Y-130351000D01*
X119916184Y-130351000D01*
X119751772Y-130318297D01*
X119596900Y-130254147D01*
X119457519Y-130161015D01*
X119338985Y-130042481D01*
X119245853Y-129903100D01*
X119181703Y-129748228D01*
X119149000Y-129583816D01*
X119149000Y-129416184D01*
X119181703Y-129251772D01*
X119245853Y-129096900D01*
X119338985Y-128957519D01*
X119457519Y-128838985D01*
X119596900Y-128745853D01*
X119751772Y-128681703D01*
X119916184Y-128649000D01*
X120083816Y-128649000D01*
X120248228Y-128681703D01*
G37*
G36*
X120248228Y-126681703D02*
G01*
X120403100Y-126745853D01*
X120542481Y-126838985D01*
X120661015Y-126957519D01*
X120754147Y-127096900D01*
X120818297Y-127251772D01*
X120851000Y-127416184D01*
X120851000Y-127583816D01*
X120818297Y-127748228D01*
X120754147Y-127903100D01*
X120661015Y-128042481D01*
X120542481Y-128161015D01*
X120403100Y-128254147D01*
X120248228Y-128318297D01*
X120083816Y-128351000D01*
X119916184Y-128351000D01*
X119751772Y-128318297D01*
X119596900Y-128254147D01*
X119457519Y-128161015D01*
X119338985Y-128042481D01*
X119245853Y-127903100D01*
X119181703Y-127748228D01*
X119149000Y-127583816D01*
X119149000Y-127416184D01*
X119181703Y-127251772D01*
X119245853Y-127096900D01*
X119338985Y-126957519D01*
X119457519Y-126838985D01*
X119596900Y-126745853D01*
X119751772Y-126681703D01*
X119916184Y-126649000D01*
X120083816Y-126649000D01*
X120248228Y-126681703D01*
G37*
G36*
X120851000Y-125851000D02*
G01*
X119149000Y-125851000D01*
X119149000Y-124149000D01*
X120851000Y-124149000D01*
X120851000Y-125851000D01*
G37*
G36*
X117592585Y-120408802D02*
G01*
X117742410Y-120438604D01*
X118024674Y-120555521D01*
X118278705Y-120725259D01*
X118494741Y-120941295D01*
X118664479Y-121195326D01*
X118756377Y-121417189D01*
X118781396Y-121477591D01*
X118841000Y-121777239D01*
X118841000Y-122082761D01*
X118811198Y-122232585D01*
X118781396Y-122382410D01*
X118664479Y-122664674D01*
X118494741Y-122918705D01*
X118278705Y-123134741D01*
X118024674Y-123304479D01*
X117742410Y-123421396D01*
X117592585Y-123451198D01*
X117442761Y-123481000D01*
X117137239Y-123481000D01*
X116987415Y-123451198D01*
X116837590Y-123421396D01*
X116555326Y-123304479D01*
X116301295Y-123134741D01*
X116085259Y-122918705D01*
X115915521Y-122664674D01*
X115798604Y-122382410D01*
X115768802Y-122232585D01*
X115739000Y-122082761D01*
X115739000Y-121777239D01*
X115798604Y-121477591D01*
X115823623Y-121417189D01*
X115915521Y-121195326D01*
X116085259Y-120941295D01*
X116301295Y-120725259D01*
X116555326Y-120555521D01*
X116837590Y-120438604D01*
X116987415Y-120408802D01*
X117137239Y-120379000D01*
X117442761Y-120379000D01*
X117592585Y-120408802D01*
G37*
G36*
X161761000Y-122581000D02*
G01*
X159959000Y-122581000D01*
X159959000Y-120779000D01*
X161761000Y-120779000D01*
X161761000Y-122581000D01*
G37*
G36*
X163513512Y-120783927D02*
G01*
X163662812Y-120813624D01*
X163826784Y-120881544D01*
X163974354Y-120980147D01*
X164099853Y-121105646D01*
X164198456Y-121253216D01*
X164266376Y-121417188D01*
X164296073Y-121566488D01*
X164301000Y-121591258D01*
X164301000Y-121768742D01*
X164296073Y-121793512D01*
X164266376Y-121942812D01*
X164198456Y-122106784D01*
X164099853Y-122254354D01*
X163974354Y-122379853D01*
X163826784Y-122478456D01*
X163662812Y-122546376D01*
X163513512Y-122576073D01*
X163488742Y-122581000D01*
X163311258Y-122581000D01*
X163286488Y-122576073D01*
X163137188Y-122546376D01*
X162973216Y-122478456D01*
X162825646Y-122379853D01*
X162700147Y-122254354D01*
X162601544Y-122106784D01*
X162533624Y-121942812D01*
X162503927Y-121793512D01*
X162499000Y-121768742D01*
X162499000Y-121591258D01*
X162503927Y-121566488D01*
X162533624Y-121417188D01*
X162601544Y-121253216D01*
X162700147Y-121105646D01*
X162825646Y-120980147D01*
X162973216Y-120881544D01*
X163137188Y-120813624D01*
X163286488Y-120783927D01*
X163311258Y-120779000D01*
X163488742Y-120779000D01*
X163513512Y-120783927D01*
G37*
G36*
X163513512Y-118243927D02*
G01*
X163662812Y-118273624D01*
X163826784Y-118341544D01*
X163974354Y-118440147D01*
X164099853Y-118565646D01*
X164198456Y-118713216D01*
X164266376Y-118877188D01*
X164301000Y-119051259D01*
X164301000Y-119228741D01*
X164266376Y-119402812D01*
X164198456Y-119566784D01*
X164099853Y-119714354D01*
X163974354Y-119839853D01*
X163826784Y-119938456D01*
X163662812Y-120006376D01*
X163513512Y-120036073D01*
X163488742Y-120041000D01*
X163311258Y-120041000D01*
X163286488Y-120036073D01*
X163137188Y-120006376D01*
X162973216Y-119938456D01*
X162825646Y-119839853D01*
X162700147Y-119714354D01*
X162601544Y-119566784D01*
X162533624Y-119402812D01*
X162499000Y-119228741D01*
X162499000Y-119051259D01*
X162533624Y-118877188D01*
X162601544Y-118713216D01*
X162700147Y-118565646D01*
X162825646Y-118440147D01*
X162973216Y-118341544D01*
X163137188Y-118273624D01*
X163286488Y-118243927D01*
X163311258Y-118239000D01*
X163488742Y-118239000D01*
X163513512Y-118243927D01*
G37*
G36*
X160973512Y-118243927D02*
G01*
X161122812Y-118273624D01*
X161286784Y-118341544D01*
X161434354Y-118440147D01*
X161559853Y-118565646D01*
X161658456Y-118713216D01*
X161726376Y-118877188D01*
X161761000Y-119051259D01*
X161761000Y-119228741D01*
X161726376Y-119402812D01*
X161658456Y-119566784D01*
X161559853Y-119714354D01*
X161434354Y-119839853D01*
X161286784Y-119938456D01*
X161122812Y-120006376D01*
X160973512Y-120036073D01*
X160948742Y-120041000D01*
X160771258Y-120041000D01*
X160746488Y-120036073D01*
X160597188Y-120006376D01*
X160433216Y-119938456D01*
X160285646Y-119839853D01*
X160160147Y-119714354D01*
X160061544Y-119566784D01*
X159993624Y-119402812D01*
X159959000Y-119228741D01*
X159959000Y-119051259D01*
X159993624Y-118877188D01*
X160061544Y-118713216D01*
X160160147Y-118565646D01*
X160285646Y-118440147D01*
X160433216Y-118341544D01*
X160597188Y-118273624D01*
X160746488Y-118243927D01*
X160771258Y-118239000D01*
X160948742Y-118239000D01*
X160973512Y-118243927D01*
G37*
G36*
X163513512Y-115703927D02*
G01*
X163662812Y-115733624D01*
X163826784Y-115801544D01*
X163974354Y-115900147D01*
X164099853Y-116025646D01*
X164198456Y-116173216D01*
X164266376Y-116337188D01*
X164301000Y-116511259D01*
X164301000Y-116688741D01*
X164266376Y-116862812D01*
X164198456Y-117026784D01*
X164099853Y-117174354D01*
X163974354Y-117299853D01*
X163826784Y-117398456D01*
X163662812Y-117466376D01*
X163513512Y-117496073D01*
X163488742Y-117501000D01*
X163311258Y-117501000D01*
X163286488Y-117496073D01*
X163137188Y-117466376D01*
X162973216Y-117398456D01*
X162825646Y-117299853D01*
X162700147Y-117174354D01*
X162601544Y-117026784D01*
X162533624Y-116862812D01*
X162499000Y-116688741D01*
X162499000Y-116511259D01*
X162533624Y-116337188D01*
X162601544Y-116173216D01*
X162700147Y-116025646D01*
X162825646Y-115900147D01*
X162973216Y-115801544D01*
X163137188Y-115733624D01*
X163286488Y-115703927D01*
X163311258Y-115699000D01*
X163488742Y-115699000D01*
X163513512Y-115703927D01*
G37*
G36*
X160973512Y-115703927D02*
G01*
X161122812Y-115733624D01*
X161286784Y-115801544D01*
X161434354Y-115900147D01*
X161559853Y-116025646D01*
X161658456Y-116173216D01*
X161726376Y-116337188D01*
X161761000Y-116511259D01*
X161761000Y-116688741D01*
X161726376Y-116862812D01*
X161658456Y-117026784D01*
X161559853Y-117174354D01*
X161434354Y-117299853D01*
X161286784Y-117398456D01*
X161122812Y-117466376D01*
X160973512Y-117496073D01*
X160948742Y-117501000D01*
X160771258Y-117501000D01*
X160746488Y-117496073D01*
X160597188Y-117466376D01*
X160433216Y-117398456D01*
X160285646Y-117299853D01*
X160160147Y-117174354D01*
X160061544Y-117026784D01*
X159993624Y-116862812D01*
X159959000Y-116688741D01*
X159959000Y-116511259D01*
X159993624Y-116337188D01*
X160061544Y-116173216D01*
X160160147Y-116025646D01*
X160285646Y-115900147D01*
X160433216Y-115801544D01*
X160597188Y-115733624D01*
X160746488Y-115703927D01*
X160771258Y-115699000D01*
X160948742Y-115699000D01*
X160973512Y-115703927D01*
G37*
G36*
X117592585Y-113548802D02*
G01*
X117742410Y-113578604D01*
X118024674Y-113695521D01*
X118278705Y-113865259D01*
X118494741Y-114081295D01*
X118664479Y-114335326D01*
X118781396Y-114617590D01*
X118841000Y-114917240D01*
X118841000Y-115222760D01*
X118781396Y-115522410D01*
X118664479Y-115804674D01*
X118494741Y-116058705D01*
X118278705Y-116274741D01*
X118024674Y-116444479D01*
X117742410Y-116561396D01*
X117592585Y-116591198D01*
X117442761Y-116621000D01*
X117137239Y-116621000D01*
X116987415Y-116591198D01*
X116837590Y-116561396D01*
X116555326Y-116444479D01*
X116301295Y-116274741D01*
X116085259Y-116058705D01*
X115915521Y-115804674D01*
X115798604Y-115522410D01*
X115739000Y-115222760D01*
X115739000Y-114917240D01*
X115798604Y-114617590D01*
X115915521Y-114335326D01*
X116085259Y-114081295D01*
X116301295Y-113865259D01*
X116555326Y-113695521D01*
X116837590Y-113578604D01*
X116987415Y-113548802D01*
X117137239Y-113519000D01*
X117442761Y-113519000D01*
X117592585Y-113548802D01*
G37*
G36*
X163513512Y-113163927D02*
G01*
X163662812Y-113193624D01*
X163826784Y-113261544D01*
X163974354Y-113360147D01*
X164099853Y-113485646D01*
X164198456Y-113633216D01*
X164266376Y-113797188D01*
X164301000Y-113971259D01*
X164301000Y-114148741D01*
X164266376Y-114322812D01*
X164198456Y-114486784D01*
X164099853Y-114634354D01*
X163974354Y-114759853D01*
X163826784Y-114858456D01*
X163662812Y-114926376D01*
X163513512Y-114956073D01*
X163488742Y-114961000D01*
X163311258Y-114961000D01*
X163286488Y-114956073D01*
X163137188Y-114926376D01*
X162973216Y-114858456D01*
X162825646Y-114759853D01*
X162700147Y-114634354D01*
X162601544Y-114486784D01*
X162533624Y-114322812D01*
X162499000Y-114148741D01*
X162499000Y-113971259D01*
X162533624Y-113797188D01*
X162601544Y-113633216D01*
X162700147Y-113485646D01*
X162825646Y-113360147D01*
X162973216Y-113261544D01*
X163137188Y-113193624D01*
X163286488Y-113163927D01*
X163311258Y-113159000D01*
X163488742Y-113159000D01*
X163513512Y-113163927D01*
G37*
G36*
X160973512Y-113163927D02*
G01*
X161122812Y-113193624D01*
X161286784Y-113261544D01*
X161434354Y-113360147D01*
X161559853Y-113485646D01*
X161658456Y-113633216D01*
X161726376Y-113797188D01*
X161761000Y-113971259D01*
X161761000Y-114148741D01*
X161726376Y-114322812D01*
X161658456Y-114486784D01*
X161559853Y-114634354D01*
X161434354Y-114759853D01*
X161286784Y-114858456D01*
X161122812Y-114926376D01*
X160973512Y-114956073D01*
X160948742Y-114961000D01*
X160771258Y-114961000D01*
X160746488Y-114956073D01*
X160597188Y-114926376D01*
X160433216Y-114858456D01*
X160285646Y-114759853D01*
X160160147Y-114634354D01*
X160061544Y-114486784D01*
X159993624Y-114322812D01*
X159959000Y-114148741D01*
X159959000Y-113971259D01*
X159993624Y-113797188D01*
X160061544Y-113633216D01*
X160160147Y-113485646D01*
X160285646Y-113360147D01*
X160433216Y-113261544D01*
X160597188Y-113193624D01*
X160746488Y-113163927D01*
X160771258Y-113159000D01*
X160948742Y-113159000D01*
X160973512Y-113163927D01*
G37*
G36*
X120248228Y-111181703D02*
G01*
X120403100Y-111245853D01*
X120542481Y-111338985D01*
X120661015Y-111457519D01*
X120754147Y-111596900D01*
X120818297Y-111751772D01*
X120851000Y-111916184D01*
X120851000Y-112083816D01*
X120818297Y-112248228D01*
X120754147Y-112403100D01*
X120661015Y-112542481D01*
X120542481Y-112661015D01*
X120403100Y-112754147D01*
X120248228Y-112818297D01*
X120083816Y-112851000D01*
X119916184Y-112851000D01*
X119751772Y-112818297D01*
X119596900Y-112754147D01*
X119457519Y-112661015D01*
X119338985Y-112542481D01*
X119245853Y-112403100D01*
X119181703Y-112248228D01*
X119149000Y-112083816D01*
X119149000Y-111916184D01*
X119181703Y-111751772D01*
X119245853Y-111596900D01*
X119338985Y-111457519D01*
X119457519Y-111338985D01*
X119596900Y-111245853D01*
X119751772Y-111181703D01*
X119916184Y-111149000D01*
X120083816Y-111149000D01*
X120248228Y-111181703D01*
G37*
G36*
X116959999Y-110949737D02*
G01*
X116969608Y-110952652D01*
X116978472Y-110957390D01*
X116986237Y-110963763D01*
X116996448Y-110976206D01*
X117003378Y-110986575D01*
X117020705Y-111003902D01*
X117041080Y-111017515D01*
X117063720Y-111026891D01*
X117087753Y-111031671D01*
X117112257Y-111031670D01*
X117136290Y-111026888D01*
X117158929Y-111017510D01*
X117179302Y-111003895D01*
X117196629Y-110986568D01*
X117203558Y-110976198D01*
X117213763Y-110963763D01*
X117221528Y-110957390D01*
X117230392Y-110952652D01*
X117240001Y-110949737D01*
X117256140Y-110948148D01*
X117743861Y-110948148D01*
X117762199Y-110949954D01*
X117774450Y-110950556D01*
X117792869Y-110950556D01*
X117815149Y-110952750D01*
X117899233Y-110969476D01*
X117920660Y-110975976D01*
X117999858Y-111008780D01*
X118005303Y-111011691D01*
X118005309Y-111011693D01*
X118014169Y-111016429D01*
X118014173Y-111016432D01*
X118019614Y-111019340D01*
X118090899Y-111066971D01*
X118108204Y-111081172D01*
X118168828Y-111141796D01*
X118183029Y-111159101D01*
X118230660Y-111230386D01*
X118233568Y-111235827D01*
X118233571Y-111235831D01*
X118238307Y-111244691D01*
X118238309Y-111244697D01*
X118241220Y-111250142D01*
X118274024Y-111329340D01*
X118280524Y-111350767D01*
X118297250Y-111434851D01*
X118299444Y-111457131D01*
X118299444Y-111475550D01*
X118300046Y-111487801D01*
X118301852Y-111506139D01*
X118301852Y-111993862D01*
X118300046Y-112012199D01*
X118299444Y-112024450D01*
X118299444Y-112042869D01*
X118297250Y-112065149D01*
X118280524Y-112149233D01*
X118274024Y-112170660D01*
X118241220Y-112249858D01*
X118238309Y-112255303D01*
X118238307Y-112255309D01*
X118233571Y-112264169D01*
X118233568Y-112264173D01*
X118230660Y-112269614D01*
X118183029Y-112340899D01*
X118168828Y-112358204D01*
X118108204Y-112418828D01*
X118090899Y-112433029D01*
X118019614Y-112480660D01*
X118014173Y-112483568D01*
X118014169Y-112483571D01*
X118005309Y-112488307D01*
X118005303Y-112488309D01*
X117999858Y-112491220D01*
X117920660Y-112524024D01*
X117899233Y-112530524D01*
X117815149Y-112547250D01*
X117792869Y-112549444D01*
X117774450Y-112549444D01*
X117762199Y-112550046D01*
X117743862Y-112551852D01*
X117256140Y-112551852D01*
X117240001Y-112550263D01*
X117230392Y-112547348D01*
X117221528Y-112542610D01*
X117213763Y-112536237D01*
X117203552Y-112523794D01*
X117196622Y-112513425D01*
X117179295Y-112496098D01*
X117158920Y-112482485D01*
X117136280Y-112473109D01*
X117112247Y-112468329D01*
X117087743Y-112468330D01*
X117063710Y-112473112D01*
X117041071Y-112482490D01*
X117020698Y-112496105D01*
X117003371Y-112513432D01*
X116996442Y-112523802D01*
X116986237Y-112536237D01*
X116978472Y-112542610D01*
X116969608Y-112547348D01*
X116959999Y-112550263D01*
X116943860Y-112551852D01*
X116456138Y-112551852D01*
X116437801Y-112550046D01*
X116425550Y-112549444D01*
X116407131Y-112549444D01*
X116384851Y-112547250D01*
X116300767Y-112530524D01*
X116279340Y-112524024D01*
X116200142Y-112491220D01*
X116194697Y-112488309D01*
X116194691Y-112488307D01*
X116185831Y-112483571D01*
X116185827Y-112483568D01*
X116180386Y-112480660D01*
X116109101Y-112433029D01*
X116091796Y-112418828D01*
X116031172Y-112358204D01*
X116016971Y-112340899D01*
X115969340Y-112269614D01*
X115966432Y-112264173D01*
X115966429Y-112264169D01*
X115961693Y-112255309D01*
X115961691Y-112255303D01*
X115958780Y-112249858D01*
X115925976Y-112170660D01*
X115919476Y-112149233D01*
X115902750Y-112065149D01*
X115900556Y-112042869D01*
X115900556Y-112024450D01*
X115899954Y-112012199D01*
X115898148Y-111993862D01*
X115898148Y-111506139D01*
X115899954Y-111487801D01*
X115900556Y-111475550D01*
X115900556Y-111457131D01*
X115902750Y-111434851D01*
X115919476Y-111350767D01*
X115925976Y-111329340D01*
X115958780Y-111250142D01*
X115961691Y-111244697D01*
X115961693Y-111244691D01*
X115966429Y-111235831D01*
X115966432Y-111235827D01*
X115969340Y-111230386D01*
X116016971Y-111159101D01*
X116031172Y-111141796D01*
X116091796Y-111081172D01*
X116109101Y-111066971D01*
X116180386Y-111019340D01*
X116185827Y-111016432D01*
X116185831Y-111016429D01*
X116194691Y-111011693D01*
X116194697Y-111011691D01*
X116200142Y-111008780D01*
X116279340Y-110975976D01*
X116300767Y-110969476D01*
X116384851Y-110952750D01*
X116407131Y-110950556D01*
X116425550Y-110950556D01*
X116437801Y-110949954D01*
X116456139Y-110948148D01*
X116943860Y-110948148D01*
X116959999Y-110949737D01*
G37*
G36*
X160973512Y-110623927D02*
G01*
X161122812Y-110653624D01*
X161286784Y-110721544D01*
X161434354Y-110820147D01*
X161559853Y-110945646D01*
X161658456Y-111093216D01*
X161726376Y-111257188D01*
X161761000Y-111431259D01*
X161761000Y-111608741D01*
X161726376Y-111782812D01*
X161658456Y-111946784D01*
X161559853Y-112094354D01*
X161434354Y-112219853D01*
X161286784Y-112318456D01*
X161122812Y-112386376D01*
X160973512Y-112416073D01*
X160948742Y-112421000D01*
X160771258Y-112421000D01*
X160746488Y-112416073D01*
X160597188Y-112386376D01*
X160433216Y-112318456D01*
X160285646Y-112219853D01*
X160160147Y-112094354D01*
X160061544Y-111946784D01*
X159993624Y-111782812D01*
X159959000Y-111608741D01*
X159959000Y-111431259D01*
X159993624Y-111257188D01*
X160061544Y-111093216D01*
X160160147Y-110945646D01*
X160285646Y-110820147D01*
X160433216Y-110721544D01*
X160597188Y-110653624D01*
X160746488Y-110623927D01*
X160771258Y-110619000D01*
X160948742Y-110619000D01*
X160973512Y-110623927D01*
G37*
G36*
X163513512Y-110623927D02*
G01*
X163662812Y-110653624D01*
X163826784Y-110721544D01*
X163974354Y-110820147D01*
X164099853Y-110945646D01*
X164198456Y-111093216D01*
X164266376Y-111257188D01*
X164301000Y-111431259D01*
X164301000Y-111608741D01*
X164266376Y-111782812D01*
X164198456Y-111946784D01*
X164099853Y-112094354D01*
X163974354Y-112219853D01*
X163826784Y-112318456D01*
X163662812Y-112386376D01*
X163513512Y-112416073D01*
X163488742Y-112421000D01*
X163311258Y-112421000D01*
X163286488Y-112416073D01*
X163137188Y-112386376D01*
X162973216Y-112318456D01*
X162825646Y-112219853D01*
X162700147Y-112094354D01*
X162601544Y-111946784D01*
X162533624Y-111782812D01*
X162499000Y-111608741D01*
X162499000Y-111431259D01*
X162533624Y-111257188D01*
X162601544Y-111093216D01*
X162700147Y-110945646D01*
X162825646Y-110820147D01*
X162973216Y-110721544D01*
X163137188Y-110653624D01*
X163286488Y-110623927D01*
X163311258Y-110619000D01*
X163488742Y-110619000D01*
X163513512Y-110623927D01*
G37*
G36*
X120248228Y-108681703D02*
G01*
X120403100Y-108745853D01*
X120542481Y-108838985D01*
X120661015Y-108957519D01*
X120754147Y-109096900D01*
X120818297Y-109251772D01*
X120851000Y-109416184D01*
X120851000Y-109583816D01*
X120818297Y-109748228D01*
X120754147Y-109903100D01*
X120661015Y-110042481D01*
X120542481Y-110161015D01*
X120403100Y-110254147D01*
X120248228Y-110318297D01*
X120083816Y-110351000D01*
X119916184Y-110351000D01*
X119751772Y-110318297D01*
X119596900Y-110254147D01*
X119457519Y-110161015D01*
X119338985Y-110042481D01*
X119245853Y-109903100D01*
X119181703Y-109748228D01*
X119149000Y-109583816D01*
X119149000Y-109416184D01*
X119181703Y-109251772D01*
X119245853Y-109096900D01*
X119338985Y-108957519D01*
X119457519Y-108838985D01*
X119596900Y-108745853D01*
X119751772Y-108681703D01*
X119916184Y-108649000D01*
X120083816Y-108649000D01*
X120248228Y-108681703D01*
G37*
G36*
X120248228Y-106681703D02*
G01*
X120403100Y-106745853D01*
X120542481Y-106838985D01*
X120661015Y-106957519D01*
X120754147Y-107096900D01*
X120818297Y-107251772D01*
X120851000Y-107416184D01*
X120851000Y-107583816D01*
X120818297Y-107748228D01*
X120754147Y-107903100D01*
X120661015Y-108042481D01*
X120542481Y-108161015D01*
X120403100Y-108254147D01*
X120248228Y-108318297D01*
X120083816Y-108351000D01*
X119916184Y-108351000D01*
X119751772Y-108318297D01*
X119596900Y-108254147D01*
X119457519Y-108161015D01*
X119338985Y-108042481D01*
X119245853Y-107903100D01*
X119181703Y-107748228D01*
X119149000Y-107583816D01*
X119149000Y-107416184D01*
X119181703Y-107251772D01*
X119245853Y-107096900D01*
X119338985Y-106957519D01*
X119457519Y-106838985D01*
X119596900Y-106745853D01*
X119751772Y-106681703D01*
X119916184Y-106649000D01*
X120083816Y-106649000D01*
X120248228Y-106681703D01*
G37*
G36*
X120851000Y-105851000D02*
G01*
X119149000Y-105851000D01*
X119149000Y-104149000D01*
X120851000Y-104149000D01*
X120851000Y-105851000D01*
G37*
G36*
X117592585Y-100408802D02*
G01*
X117742410Y-100438604D01*
X118024674Y-100555521D01*
X118278705Y-100725259D01*
X118494741Y-100941295D01*
X118664479Y-101195326D01*
X118781396Y-101477590D01*
X118841000Y-101777240D01*
X118841000Y-102082760D01*
X118781396Y-102382410D01*
X118664479Y-102664674D01*
X118494741Y-102918705D01*
X118278705Y-103134741D01*
X118024674Y-103304479D01*
X117742410Y-103421396D01*
X117592585Y-103451198D01*
X117442761Y-103481000D01*
X117137239Y-103481000D01*
X116987415Y-103451198D01*
X116837590Y-103421396D01*
X116555326Y-103304479D01*
X116301295Y-103134741D01*
X116085259Y-102918705D01*
X115915521Y-102664674D01*
X115798604Y-102382410D01*
X115739000Y-102082760D01*
X115739000Y-101777240D01*
X115798604Y-101477590D01*
X115915521Y-101195326D01*
X116085259Y-100941295D01*
X116301295Y-100725259D01*
X116555326Y-100555521D01*
X116837590Y-100438604D01*
X116987415Y-100408802D01*
X117137239Y-100379000D01*
X117442761Y-100379000D01*
X117592585Y-100408802D01*
G37*
G36*
X148781000Y-102301000D02*
G01*
X146979000Y-102301000D01*
X146979000Y-100499000D01*
X148781000Y-100499000D01*
X148781000Y-102301000D01*
G37*
G36*
X140373512Y-100503927D02*
G01*
X140522812Y-100533624D01*
X140686784Y-100601544D01*
X140834354Y-100700147D01*
X140959853Y-100825646D01*
X141058456Y-100973216D01*
X141126376Y-101137188D01*
X141161000Y-101311259D01*
X141161000Y-101488741D01*
X141126376Y-101662812D01*
X141058456Y-101826784D01*
X140959853Y-101974354D01*
X140834354Y-102099853D01*
X140686784Y-102198456D01*
X140522812Y-102266376D01*
X140373512Y-102296073D01*
X140348742Y-102301000D01*
X140171258Y-102301000D01*
X140146488Y-102296073D01*
X139997188Y-102266376D01*
X139833216Y-102198456D01*
X139685646Y-102099853D01*
X139560147Y-101974354D01*
X139461544Y-101826784D01*
X139393624Y-101662812D01*
X139359000Y-101488741D01*
X139359000Y-101311259D01*
X139393624Y-101137188D01*
X139461544Y-100973216D01*
X139560147Y-100825646D01*
X139685646Y-100700147D01*
X139833216Y-100601544D01*
X139997188Y-100533624D01*
X140146488Y-100503927D01*
X140171258Y-100499000D01*
X140348742Y-100499000D01*
X140373512Y-100503927D01*
G37*
G36*
X145453512Y-100503927D02*
G01*
X145602812Y-100533624D01*
X145766784Y-100601544D01*
X145914354Y-100700147D01*
X146039853Y-100825646D01*
X146138456Y-100973216D01*
X146206376Y-101137188D01*
X146241000Y-101311259D01*
X146241000Y-101488741D01*
X146206376Y-101662812D01*
X146138456Y-101826784D01*
X146039853Y-101974354D01*
X145914354Y-102099853D01*
X145766784Y-102198456D01*
X145602812Y-102266376D01*
X145453512Y-102296073D01*
X145428742Y-102301000D01*
X145251258Y-102301000D01*
X145226488Y-102296073D01*
X145077188Y-102266376D01*
X144913216Y-102198456D01*
X144765646Y-102099853D01*
X144640147Y-101974354D01*
X144541544Y-101826784D01*
X144473624Y-101662812D01*
X144439000Y-101488741D01*
X144439000Y-101311259D01*
X144473624Y-101137188D01*
X144541544Y-100973216D01*
X144640147Y-100825646D01*
X144765646Y-100700147D01*
X144913216Y-100601544D01*
X145077188Y-100533624D01*
X145226488Y-100503927D01*
X145251258Y-100499000D01*
X145428742Y-100499000D01*
X145453512Y-100503927D01*
G37*
G36*
X142913512Y-100503927D02*
G01*
X143062812Y-100533624D01*
X143226784Y-100601544D01*
X143374354Y-100700147D01*
X143499853Y-100825646D01*
X143598456Y-100973216D01*
X143666376Y-101137188D01*
X143701000Y-101311259D01*
X143701000Y-101488741D01*
X143666376Y-101662812D01*
X143598456Y-101826784D01*
X143499853Y-101974354D01*
X143374354Y-102099853D01*
X143226784Y-102198456D01*
X143062812Y-102266376D01*
X142913512Y-102296073D01*
X142888742Y-102301000D01*
X142711258Y-102301000D01*
X142686488Y-102296073D01*
X142537188Y-102266376D01*
X142373216Y-102198456D01*
X142225646Y-102099853D01*
X142100147Y-101974354D01*
X142001544Y-101826784D01*
X141933624Y-101662812D01*
X141899000Y-101488741D01*
X141899000Y-101311259D01*
X141933624Y-101137188D01*
X142001544Y-100973216D01*
X142100147Y-100825646D01*
X142225646Y-100700147D01*
X142373216Y-100601544D01*
X142537188Y-100533624D01*
X142686488Y-100503927D01*
X142711258Y-100499000D01*
X142888742Y-100499000D01*
X142913512Y-100503927D01*
G37*
G36*
X121224549Y-97871116D02*
G01*
X121335734Y-97893232D01*
X121545203Y-97979997D01*
X121733720Y-98105960D01*
X121894040Y-98266280D01*
X122020003Y-98454797D01*
X122106768Y-98664266D01*
X122151000Y-98886636D01*
X122151000Y-99113364D01*
X122106768Y-99335734D01*
X122020003Y-99545203D01*
X121894040Y-99733720D01*
X121733720Y-99894040D01*
X121545203Y-100020003D01*
X121335734Y-100106768D01*
X121224549Y-100128884D01*
X121113365Y-100151000D01*
X120886635Y-100151000D01*
X120775451Y-100128884D01*
X120664266Y-100106768D01*
X120454797Y-100020003D01*
X120266280Y-99894040D01*
X120105960Y-99733720D01*
X119979997Y-99545203D01*
X119893232Y-99335734D01*
X119849000Y-99113364D01*
X119849000Y-98886636D01*
X119893232Y-98664266D01*
X119979997Y-98454797D01*
X120105960Y-98266280D01*
X120266280Y-98105960D01*
X120454797Y-97979997D01*
X120664266Y-97893232D01*
X120775451Y-97871116D01*
X120886635Y-97849000D01*
X121113365Y-97849000D01*
X121224549Y-97871116D01*
G37*
G36*
X160651000Y-99051000D02*
G01*
X156149000Y-99051000D01*
X156149000Y-97149000D01*
X160651000Y-97149000D01*
X160651000Y-99051000D01*
G37*
G36*
X153786425Y-93062760D02*
G01*
X153786428Y-93062761D01*
X153786429Y-93062761D01*
X153965693Y-93117140D01*
X153965696Y-93117142D01*
X153965697Y-93117142D01*
X154130903Y-93205446D01*
X154275712Y-93324288D01*
X154394554Y-93469097D01*
X154482858Y-93634303D01*
X154482860Y-93634307D01*
X154527479Y-93781396D01*
X154537240Y-93813575D01*
X154551000Y-93953282D01*
X154551000Y-96246718D01*
X154537240Y-96386425D01*
X154537239Y-96386428D01*
X154537239Y-96386429D01*
X154482860Y-96565693D01*
X154482858Y-96565696D01*
X154482858Y-96565697D01*
X154394554Y-96730903D01*
X154275712Y-96875712D01*
X154130903Y-96994554D01*
X153965696Y-97082858D01*
X153965692Y-97082860D01*
X153786428Y-97137239D01*
X153786427Y-97137239D01*
X153786424Y-97137240D01*
X153600000Y-97155601D01*
X153413575Y-97137240D01*
X153413572Y-97137239D01*
X153413571Y-97137239D01*
X153234307Y-97082860D01*
X153234303Y-97082858D01*
X153069097Y-96994554D01*
X152924288Y-96875712D01*
X152805446Y-96730903D01*
X152717142Y-96565696D01*
X152717141Y-96565693D01*
X152717140Y-96565692D01*
X152662761Y-96386428D01*
X152662761Y-96386427D01*
X152662760Y-96386424D01*
X152649000Y-96246717D01*
X152649001Y-93953282D01*
X152662761Y-93813575D01*
X152672522Y-93781396D01*
X152717141Y-93634307D01*
X152717143Y-93634303D01*
X152805447Y-93469097D01*
X152924289Y-93324288D01*
X153069098Y-93205446D01*
X153234304Y-93117142D01*
X153234305Y-93117142D01*
X153234308Y-93117140D01*
X153413572Y-93062761D01*
X153413573Y-93062761D01*
X153413576Y-93062760D01*
X153600000Y-93044399D01*
X153786425Y-93062760D01*
G37*
G36*
X130351000Y-95851000D02*
G01*
X128649000Y-95851000D01*
X128649000Y-94149000D01*
X130351000Y-94149000D01*
X130351000Y-95851000D01*
G37*
G36*
X127248228Y-94181703D02*
G01*
X127403100Y-94245853D01*
X127542481Y-94338985D01*
X127661015Y-94457519D01*
X127754147Y-94596900D01*
X127818297Y-94751772D01*
X127851000Y-94916184D01*
X127851000Y-95083816D01*
X127818297Y-95248228D01*
X127754147Y-95403100D01*
X127661015Y-95542481D01*
X127542481Y-95661015D01*
X127403100Y-95754147D01*
X127248228Y-95818297D01*
X127083816Y-95851000D01*
X126916184Y-95851000D01*
X126751772Y-95818297D01*
X126596900Y-95754147D01*
X126457519Y-95661015D01*
X126338985Y-95542481D01*
X126245853Y-95403100D01*
X126181703Y-95248228D01*
X126149000Y-95083816D01*
X126149000Y-94916184D01*
X126181703Y-94751772D01*
X126245853Y-94596900D01*
X126338985Y-94457519D01*
X126457519Y-94338985D01*
X126596900Y-94245853D01*
X126751772Y-94181703D01*
X126916184Y-94149000D01*
X127083816Y-94149000D01*
X127248228Y-94181703D01*
G37*
G36*
X125248228Y-94181703D02*
G01*
X125403100Y-94245853D01*
X125542481Y-94338985D01*
X125661015Y-94457519D01*
X125754147Y-94596900D01*
X125818297Y-94751772D01*
X125851000Y-94916184D01*
X125851000Y-95083816D01*
X125818297Y-95248228D01*
X125754147Y-95403100D01*
X125661015Y-95542481D01*
X125542481Y-95661015D01*
X125403100Y-95754147D01*
X125248228Y-95818297D01*
X125083816Y-95851000D01*
X124916184Y-95851000D01*
X124751772Y-95818297D01*
X124596900Y-95754147D01*
X124457519Y-95661015D01*
X124338985Y-95542481D01*
X124245853Y-95403100D01*
X124181703Y-95248228D01*
X124149000Y-95083816D01*
X124149000Y-94916184D01*
X124181703Y-94751772D01*
X124245853Y-94596900D01*
X124338985Y-94457519D01*
X124457519Y-94338985D01*
X124596900Y-94245853D01*
X124751772Y-94181703D01*
X124916184Y-94149000D01*
X125083816Y-94149000D01*
X125248228Y-94181703D01*
G37*
G36*
X122748228Y-94181703D02*
G01*
X122903100Y-94245853D01*
X123042481Y-94338985D01*
X123161015Y-94457519D01*
X123254147Y-94596900D01*
X123318297Y-94751772D01*
X123351000Y-94916184D01*
X123351000Y-95083816D01*
X123318297Y-95248228D01*
X123254147Y-95403100D01*
X123161015Y-95542481D01*
X123042481Y-95661015D01*
X122903100Y-95754147D01*
X122748228Y-95818297D01*
X122583816Y-95851000D01*
X122416184Y-95851000D01*
X122251772Y-95818297D01*
X122096900Y-95754147D01*
X121957519Y-95661015D01*
X121838985Y-95542481D01*
X121745853Y-95403100D01*
X121681703Y-95248228D01*
X121649000Y-95083816D01*
X121649000Y-94916184D01*
X121681703Y-94751772D01*
X121745853Y-94596900D01*
X121838985Y-94457519D01*
X121957519Y-94338985D01*
X122096900Y-94245853D01*
X122251772Y-94181703D01*
X122416184Y-94149000D01*
X122583816Y-94149000D01*
X122748228Y-94181703D01*
G37*
G36*
X119732585Y-90768802D02*
G01*
X119882410Y-90798604D01*
X120164674Y-90915521D01*
X120418705Y-91085259D01*
X120634741Y-91301295D01*
X120804479Y-91555326D01*
X120893025Y-91769097D01*
X120921396Y-91837591D01*
X120971157Y-92087753D01*
X120981000Y-92137240D01*
X120981000Y-92442760D01*
X120921396Y-92742410D01*
X120804479Y-93024674D01*
X120634741Y-93278705D01*
X120418705Y-93494741D01*
X120164674Y-93664479D01*
X119882410Y-93781396D01*
X119732585Y-93811198D01*
X119582761Y-93841000D01*
X119277239Y-93841000D01*
X119127415Y-93811198D01*
X118977590Y-93781396D01*
X118695326Y-93664479D01*
X118441295Y-93494741D01*
X118225259Y-93278705D01*
X118055521Y-93024674D01*
X117938604Y-92742410D01*
X117879000Y-92442760D01*
X117879000Y-92137240D01*
X117888844Y-92087753D01*
X117938604Y-91837591D01*
X117966975Y-91769097D01*
X118055521Y-91555326D01*
X118225259Y-91301295D01*
X118441295Y-91085259D01*
X118695326Y-90915521D01*
X118977590Y-90798604D01*
X119127415Y-90768802D01*
X119277239Y-90739000D01*
X119582761Y-90739000D01*
X119732585Y-90768802D01*
G37*
G36*
X132872585Y-90768802D02*
G01*
X133022410Y-90798604D01*
X133304674Y-90915521D01*
X133558705Y-91085259D01*
X133774741Y-91301295D01*
X133944479Y-91555326D01*
X134033025Y-91769097D01*
X134061396Y-91837591D01*
X134111157Y-92087753D01*
X134121000Y-92137240D01*
X134121000Y-92442760D01*
X134061396Y-92742410D01*
X133944479Y-93024674D01*
X133774741Y-93278705D01*
X133558705Y-93494741D01*
X133304674Y-93664479D01*
X133022410Y-93781396D01*
X132872585Y-93811198D01*
X132722761Y-93841000D01*
X132417239Y-93841000D01*
X132267415Y-93811198D01*
X132117590Y-93781396D01*
X131835326Y-93664479D01*
X131581295Y-93494741D01*
X131365259Y-93278705D01*
X131195521Y-93024674D01*
X131078604Y-92742410D01*
X131019000Y-92442760D01*
X131019000Y-92137240D01*
X131028844Y-92087753D01*
X131078604Y-91837591D01*
X131106975Y-91769097D01*
X131195521Y-91555326D01*
X131365259Y-91301295D01*
X131581295Y-91085259D01*
X131835326Y-90915521D01*
X132117590Y-90798604D01*
X132267415Y-90768802D01*
X132417239Y-90739000D01*
X132722761Y-90739000D01*
X132872585Y-90768802D01*
G37*
G36*
X123012199Y-90899954D02*
G01*
X123024450Y-90900556D01*
X123042869Y-90900556D01*
X123065149Y-90902750D01*
X123149233Y-90919476D01*
X123170660Y-90925976D01*
X123249858Y-90958780D01*
X123255303Y-90961691D01*
X123255309Y-90961693D01*
X123264169Y-90966429D01*
X123264173Y-90966432D01*
X123269614Y-90969340D01*
X123340899Y-91016971D01*
X123358204Y-91031172D01*
X123418828Y-91091796D01*
X123433029Y-91109101D01*
X123480660Y-91180386D01*
X123483568Y-91185827D01*
X123483571Y-91185831D01*
X123488307Y-91194691D01*
X123488309Y-91194697D01*
X123491220Y-91200142D01*
X123524024Y-91279340D01*
X123530524Y-91300767D01*
X123547250Y-91384851D01*
X123549444Y-91407131D01*
X123549444Y-91425550D01*
X123550046Y-91437801D01*
X123551852Y-91456139D01*
X123551852Y-91943860D01*
X123550263Y-91959999D01*
X123547348Y-91969608D01*
X123542610Y-91978472D01*
X123536237Y-91986237D01*
X123523794Y-91996448D01*
X123513425Y-92003378D01*
X123496098Y-92020705D01*
X123482485Y-92041080D01*
X123473109Y-92063720D01*
X123468329Y-92087753D01*
X123468330Y-92112257D01*
X123473112Y-92136290D01*
X123482490Y-92158929D01*
X123496105Y-92179302D01*
X123513432Y-92196629D01*
X123523802Y-92203558D01*
X123536237Y-92213763D01*
X123542610Y-92221528D01*
X123547348Y-92230392D01*
X123550263Y-92240001D01*
X123551852Y-92256140D01*
X123551852Y-92743862D01*
X123550046Y-92762199D01*
X123549444Y-92774450D01*
X123549444Y-92792869D01*
X123547250Y-92815149D01*
X123530524Y-92899233D01*
X123524024Y-92920660D01*
X123491220Y-92999858D01*
X123488309Y-93005303D01*
X123488307Y-93005309D01*
X123483571Y-93014169D01*
X123483568Y-93014173D01*
X123480660Y-93019614D01*
X123433029Y-93090899D01*
X123418828Y-93108204D01*
X123358204Y-93168828D01*
X123340899Y-93183029D01*
X123269614Y-93230660D01*
X123264173Y-93233568D01*
X123264169Y-93233571D01*
X123255309Y-93238307D01*
X123255303Y-93238309D01*
X123249858Y-93241220D01*
X123170660Y-93274024D01*
X123149233Y-93280524D01*
X123065149Y-93297250D01*
X123042869Y-93299444D01*
X123024450Y-93299444D01*
X123012199Y-93300046D01*
X122993862Y-93301852D01*
X122506138Y-93301852D01*
X122487801Y-93300046D01*
X122475550Y-93299444D01*
X122457131Y-93299444D01*
X122434851Y-93297250D01*
X122350767Y-93280524D01*
X122329340Y-93274024D01*
X122250142Y-93241220D01*
X122244697Y-93238309D01*
X122244691Y-93238307D01*
X122235831Y-93233571D01*
X122235827Y-93233568D01*
X122230386Y-93230660D01*
X122159101Y-93183029D01*
X122141796Y-93168828D01*
X122081172Y-93108204D01*
X122066971Y-93090899D01*
X122019340Y-93019614D01*
X122016432Y-93014173D01*
X122016429Y-93014169D01*
X122011693Y-93005309D01*
X122011691Y-93005303D01*
X122008780Y-92999858D01*
X121975976Y-92920660D01*
X121969476Y-92899233D01*
X121952750Y-92815149D01*
X121950556Y-92792869D01*
X121950556Y-92774450D01*
X121949954Y-92762199D01*
X121948148Y-92743862D01*
X121948148Y-92256140D01*
X121949737Y-92240001D01*
X121952652Y-92230392D01*
X121957390Y-92221528D01*
X121963763Y-92213763D01*
X121976206Y-92203552D01*
X121986575Y-92196622D01*
X122003902Y-92179295D01*
X122017515Y-92158920D01*
X122026891Y-92136280D01*
X122031671Y-92112247D01*
X122031670Y-92087743D01*
X122026888Y-92063710D01*
X122017510Y-92041071D01*
X122003895Y-92020698D01*
X121986568Y-92003371D01*
X121976198Y-91996442D01*
X121963763Y-91986237D01*
X121957390Y-91978472D01*
X121952652Y-91969608D01*
X121949737Y-91959999D01*
X121948148Y-91943860D01*
X121948148Y-91456139D01*
X121949954Y-91437801D01*
X121950556Y-91425550D01*
X121950556Y-91407131D01*
X121952750Y-91384851D01*
X121969476Y-91300767D01*
X121975976Y-91279340D01*
X122008780Y-91200142D01*
X122011691Y-91194697D01*
X122011693Y-91194691D01*
X122016429Y-91185831D01*
X122016432Y-91185827D01*
X122019340Y-91180386D01*
X122066971Y-91109101D01*
X122081172Y-91091796D01*
X122141796Y-91031172D01*
X122159101Y-91016971D01*
X122230386Y-90969340D01*
X122235827Y-90966432D01*
X122235831Y-90966429D01*
X122244691Y-90961693D01*
X122244697Y-90961691D01*
X122250142Y-90958780D01*
X122329340Y-90925976D01*
X122350767Y-90919476D01*
X122434851Y-90902750D01*
X122457131Y-90900556D01*
X122475550Y-90900556D01*
X122487801Y-90899954D01*
X122506139Y-90898148D01*
X122993861Y-90898148D01*
X123012199Y-90899954D01*
G37*
G36*
X159686425Y-91362760D02*
G01*
X159686428Y-91362761D01*
X159686429Y-91362761D01*
X159865693Y-91417140D01*
X159865696Y-91417142D01*
X159865697Y-91417142D01*
X160030903Y-91505446D01*
X160175712Y-91624288D01*
X160294554Y-91769097D01*
X160382858Y-91934303D01*
X160382860Y-91934307D01*
X160422117Y-92063720D01*
X160437240Y-92113575D01*
X160455601Y-92300000D01*
X160437240Y-92486425D01*
X160437239Y-92486428D01*
X160437239Y-92486429D01*
X160382860Y-92665693D01*
X160382858Y-92665696D01*
X160382858Y-92665697D01*
X160294554Y-92830903D01*
X160175712Y-92975712D01*
X160030903Y-93094554D01*
X159865697Y-93182858D01*
X159865693Y-93182860D01*
X159686429Y-93237239D01*
X159686428Y-93237239D01*
X159686425Y-93237240D01*
X159546718Y-93251000D01*
X157253282Y-93251000D01*
X157113575Y-93237240D01*
X157113572Y-93237239D01*
X157113571Y-93237239D01*
X156934307Y-93182860D01*
X156934303Y-93182858D01*
X156769097Y-93094554D01*
X156624288Y-92975712D01*
X156505446Y-92830903D01*
X156417142Y-92665697D01*
X156417142Y-92665696D01*
X156417140Y-92665693D01*
X156362761Y-92486429D01*
X156362761Y-92486428D01*
X156362760Y-92486425D01*
X156344399Y-92300000D01*
X156362760Y-92113575D01*
X156377883Y-92063720D01*
X156417140Y-91934307D01*
X156417142Y-91934303D01*
X156505446Y-91769097D01*
X156624288Y-91624288D01*
X156769097Y-91505446D01*
X156934303Y-91417142D01*
X156934304Y-91417142D01*
X156934307Y-91417140D01*
X157113571Y-91362761D01*
X157113572Y-91362761D01*
X157113575Y-91362760D01*
X157253282Y-91349000D01*
X159546718Y-91349000D01*
X159686425Y-91362760D01*
G37*
M02*
