M48
; DRILL file {KiCad 5.1.5+dfsg1-2build2} date sam. 26 juin 2021 08:26:48
; FORMAT={-:-/ absolute / metric / decimal}
; #@! TF.CreationDate,2021-06-26T08:26:48+02:00
; #@! TF.GenerationSoftware,Kicad,Pcbnew,5.1.5+dfsg1-2build2
FMAT,2
METRIC
T1C0.400
T2C0.800
T3C0.920
T4C1.000
T5C2.300
T6C2.200
%
G90
G05
T1
X121.65Y-121.75
X121.7Y-103.0
X121.7Y-122.8
X122.8Y-117.1
X122.8Y-118.6
X123.0Y-101.7
X126.5Y-115.55
X126.7Y-109.55
X126.7Y-111.05
X126.7Y-112.55
X126.8Y-119.8
X126.9Y-133.4
X127.1Y-117.15
X127.1Y-118.4
X127.8Y-115.55
X128.1Y-133.4
X129.15Y-115.55
X129.3Y-122.55
X129.8Y-114.05
X130.1Y-128.05
X130.5Y-122.85
X131.2Y-117.6
X131.2Y-118.6
X131.2Y-119.6
X131.4Y-99.3
X131.4Y-123.65
X131.6Y-128.05
X132.2Y-117.6
X132.2Y-118.6
X132.7Y-98.0
X132.95Y-112.2
X133.1Y-128.05
X133.2Y-117.6
X133.45Y-113.3
X133.55Y-123.65
X134.6Y-112.75
X134.6Y-128.05
X135.2Y-123.6
X135.7Y-112.2
X135.9Y-124.85
X136.35Y-123.2
X136.5Y-112.85
X136.85Y-119.9
X136.95Y-121.95
X137.1Y-120.95
X137.3Y-112.25
X139.15Y-119.8
X140.5Y-99.2
X140.6Y-96.2
X141.2Y-128.1
X141.3Y-130.7
X141.45Y-134.6
X141.7Y-104.3
X141.7Y-106.1
X143.9Y-113.6
X143.9Y-115.075
X143.9Y-116.55
X143.9Y-118.025
X143.9Y-119.5
X143.9Y-120.975
X143.9Y-122.45
X143.9Y-123.925
X145.6Y-125.0
X147.9Y-126.5
X148.1Y-134.7
X148.7Y-125.7
X148.9Y-135.5
X149.0Y-129.8
X149.15Y-131.55
X149.2Y-111.2
X149.2Y-112.4
X149.5Y-95.5
X149.5Y-124.9
X149.6Y-128.8
X149.7Y-132.5
X149.7Y-136.3
X150.1Y-104.1
X150.3Y-129.8
X150.35Y-131.55
X150.4Y-115.8
X150.5Y-117.5
X150.6Y-127.1
X150.7Y-97.0
X150.8Y-133.9
X151.0Y-108.8
X151.0Y-110.0
X151.6Y-115.8
X152.0Y-101.3
X152.0Y-106.7
X153.9Y-104.0
X154.1Y-111.6
X154.125Y-105.675
X154.125Y-106.875
X155.2Y-104.0
X156.4Y-104.0
X156.4Y-105.8
X156.4Y-107.0
X156.5Y-127.0
X156.5Y-128.25
X156.5Y-133.9
X156.5Y-135.2
X156.9Y-100.1
X157.5Y-127.0
X157.5Y-128.3
X157.5Y-133.9
X157.5Y-135.2
X157.6Y-108.6
X158.3Y-100.1
X159.6Y-100.1
X159.65Y-124.2
X161.4Y-128.25
X161.85Y-132.6
X161.85Y-133.85
X161.85Y-135.2
X161.85Y-136.45
X162.4Y-104.9
X162.8Y-99.0
X162.8Y-100.2
X163.15Y-129.55
X163.55Y-127.017
T3
X130.0Y-135.0
X132.5Y-135.0
X134.5Y-135.0
X137.0Y-135.0
X122.5Y-95.0
X125.0Y-95.0
X127.0Y-95.0
X129.5Y-95.0
X120.0Y-125.0
X120.0Y-127.5
X120.0Y-129.5
X120.0Y-132.0
X120.0Y-105.0
X120.0Y-107.5
X120.0Y-109.5
X120.0Y-112.0
T4
X160.86Y-111.52
X160.86Y-114.06
X160.86Y-116.6
X160.86Y-119.14
X160.86Y-121.68
X163.4Y-111.52
X163.4Y-114.06
X163.4Y-116.6
X163.4Y-119.14
X163.4Y-121.68
X140.26Y-101.4
X142.8Y-101.4
X145.34Y-101.4
X147.88Y-101.4
T5
X126.93Y-137.71
X140.07Y-137.71
X119.43Y-92.29
X132.57Y-92.29
X117.29Y-121.93
X117.29Y-135.07
X117.29Y-101.93
X117.29Y-115.07
T6
X144.8Y-137.0
X121.0Y-99.0
T2
X153.6Y-94.0G85X153.6Y-96.2
G05
X159.5Y-92.3G85X157.3Y-92.3
G05
X159.7Y-98.1G85X157.1Y-98.1
G05
T0
M30
