%TF.GenerationSoftware,KiCad,Pcbnew,8.0.5-unknown-202409181836~355805756e~ubuntu24.04.1*%
%TF.CreationDate,2024-09-22T17:28:34+02:00*%
%TF.ProjectId,elevator_altimeter,656c6576-6174-46f7-925f-616c74696d65,rev?*%
%TF.SameCoordinates,Original*%
%TF.FileFunction,Legend,Top*%
%TF.FilePolarity,Positive*%
%FSLAX46Y46*%
G04 Gerber Fmt 4.6, Leading zero omitted, Abs format (unit mm)*
G04 Created by KiCad (PCBNEW 8.0.5-unknown-202409181836~355805756e~ubuntu24.04.1) date 2024-09-22 17:28:34*
%MOMM*%
%LPD*%
G01*
G04 APERTURE LIST*
%ADD10C,1.000000*%
%ADD11C,0.100000*%
%ADD12C,0.240000*%
%ADD13C,0.250000*%
%ADD14C,0.200000*%
%ADD15C,0.150000*%
%ADD16C,0.120000*%
G04 APERTURE END LIST*
D10*
X115595238Y-61106333D02*
X119404762Y-61106333D01*
X117500000Y-63011095D02*
X117500000Y-59201571D01*
X30345238Y-60856333D02*
X34154762Y-60856333D01*
D11*
X125857419Y-74095237D02*
X125857419Y-74571427D01*
X125857419Y-74571427D02*
X126333609Y-74619046D01*
X126333609Y-74619046D02*
X126285990Y-74571427D01*
X126285990Y-74571427D02*
X126238371Y-74476189D01*
X126238371Y-74476189D02*
X126238371Y-74238094D01*
X126238371Y-74238094D02*
X126285990Y-74142856D01*
X126285990Y-74142856D02*
X126333609Y-74095237D01*
X126333609Y-74095237D02*
X126428847Y-74047618D01*
X126428847Y-74047618D02*
X126666942Y-74047618D01*
X126666942Y-74047618D02*
X126762180Y-74095237D01*
X126762180Y-74095237D02*
X126809800Y-74142856D01*
X126809800Y-74142856D02*
X126857419Y-74238094D01*
X126857419Y-74238094D02*
X126857419Y-74476189D01*
X126857419Y-74476189D02*
X126809800Y-74571427D01*
X126809800Y-74571427D02*
X126762180Y-74619046D01*
X125857419Y-73142856D02*
X125857419Y-73619046D01*
X125857419Y-73619046D02*
X126333609Y-73666665D01*
X126333609Y-73666665D02*
X126285990Y-73619046D01*
X126285990Y-73619046D02*
X126238371Y-73523808D01*
X126238371Y-73523808D02*
X126238371Y-73285713D01*
X126238371Y-73285713D02*
X126285990Y-73190475D01*
X126285990Y-73190475D02*
X126333609Y-73142856D01*
X126333609Y-73142856D02*
X126428847Y-73095237D01*
X126428847Y-73095237D02*
X126666942Y-73095237D01*
X126666942Y-73095237D02*
X126762180Y-73142856D01*
X126762180Y-73142856D02*
X126809800Y-73190475D01*
X126809800Y-73190475D02*
X126857419Y-73285713D01*
X126857419Y-73285713D02*
X126857419Y-73523808D01*
X126857419Y-73523808D02*
X126809800Y-73619046D01*
X126809800Y-73619046D02*
X126762180Y-73666665D01*
X126809800Y-72619046D02*
X126857419Y-72619046D01*
X126857419Y-72619046D02*
X126952657Y-72666665D01*
X126952657Y-72666665D02*
X127000276Y-72714284D01*
X125857419Y-71999999D02*
X125857419Y-71904761D01*
X125857419Y-71904761D02*
X125905038Y-71809523D01*
X125905038Y-71809523D02*
X125952657Y-71761904D01*
X125952657Y-71761904D02*
X126047895Y-71714285D01*
X126047895Y-71714285D02*
X126238371Y-71666666D01*
X126238371Y-71666666D02*
X126476466Y-71666666D01*
X126476466Y-71666666D02*
X126666942Y-71714285D01*
X126666942Y-71714285D02*
X126762180Y-71761904D01*
X126762180Y-71761904D02*
X126809800Y-71809523D01*
X126809800Y-71809523D02*
X126857419Y-71904761D01*
X126857419Y-71904761D02*
X126857419Y-71999999D01*
X126857419Y-71999999D02*
X126809800Y-72095237D01*
X126809800Y-72095237D02*
X126762180Y-72142856D01*
X126762180Y-72142856D02*
X126666942Y-72190475D01*
X126666942Y-72190475D02*
X126476466Y-72238094D01*
X126476466Y-72238094D02*
X126238371Y-72238094D01*
X126238371Y-72238094D02*
X126047895Y-72190475D01*
X126047895Y-72190475D02*
X125952657Y-72142856D01*
X125952657Y-72142856D02*
X125905038Y-72095237D01*
X125905038Y-72095237D02*
X125857419Y-71999999D01*
X125857419Y-71047618D02*
X125857419Y-70952380D01*
X125857419Y-70952380D02*
X125905038Y-70857142D01*
X125905038Y-70857142D02*
X125952657Y-70809523D01*
X125952657Y-70809523D02*
X126047895Y-70761904D01*
X126047895Y-70761904D02*
X126238371Y-70714285D01*
X126238371Y-70714285D02*
X126476466Y-70714285D01*
X126476466Y-70714285D02*
X126666942Y-70761904D01*
X126666942Y-70761904D02*
X126762180Y-70809523D01*
X126762180Y-70809523D02*
X126809800Y-70857142D01*
X126809800Y-70857142D02*
X126857419Y-70952380D01*
X126857419Y-70952380D02*
X126857419Y-71047618D01*
X126857419Y-71047618D02*
X126809800Y-71142856D01*
X126809800Y-71142856D02*
X126762180Y-71190475D01*
X126762180Y-71190475D02*
X126666942Y-71238094D01*
X126666942Y-71238094D02*
X126476466Y-71285713D01*
X126476466Y-71285713D02*
X126238371Y-71285713D01*
X126238371Y-71285713D02*
X126047895Y-71238094D01*
X126047895Y-71238094D02*
X125952657Y-71190475D01*
X125952657Y-71190475D02*
X125905038Y-71142856D01*
X125905038Y-71142856D02*
X125857419Y-71047618D01*
X125857419Y-70095237D02*
X125857419Y-69999999D01*
X125857419Y-69999999D02*
X125905038Y-69904761D01*
X125905038Y-69904761D02*
X125952657Y-69857142D01*
X125952657Y-69857142D02*
X126047895Y-69809523D01*
X126047895Y-69809523D02*
X126238371Y-69761904D01*
X126238371Y-69761904D02*
X126476466Y-69761904D01*
X126476466Y-69761904D02*
X126666942Y-69809523D01*
X126666942Y-69809523D02*
X126762180Y-69857142D01*
X126762180Y-69857142D02*
X126809800Y-69904761D01*
X126809800Y-69904761D02*
X126857419Y-69999999D01*
X126857419Y-69999999D02*
X126857419Y-70095237D01*
X126857419Y-70095237D02*
X126809800Y-70190475D01*
X126809800Y-70190475D02*
X126762180Y-70238094D01*
X126762180Y-70238094D02*
X126666942Y-70285713D01*
X126666942Y-70285713D02*
X126476466Y-70333332D01*
X126476466Y-70333332D02*
X126238371Y-70333332D01*
X126238371Y-70333332D02*
X126047895Y-70285713D01*
X126047895Y-70285713D02*
X125952657Y-70238094D01*
X125952657Y-70238094D02*
X125905038Y-70190475D01*
X125905038Y-70190475D02*
X125857419Y-70095237D01*
X125857419Y-69142856D02*
X125857419Y-69047618D01*
X125857419Y-69047618D02*
X125905038Y-68952380D01*
X125905038Y-68952380D02*
X125952657Y-68904761D01*
X125952657Y-68904761D02*
X126047895Y-68857142D01*
X126047895Y-68857142D02*
X126238371Y-68809523D01*
X126238371Y-68809523D02*
X126476466Y-68809523D01*
X126476466Y-68809523D02*
X126666942Y-68857142D01*
X126666942Y-68857142D02*
X126762180Y-68904761D01*
X126762180Y-68904761D02*
X126809800Y-68952380D01*
X126809800Y-68952380D02*
X126857419Y-69047618D01*
X126857419Y-69047618D02*
X126857419Y-69142856D01*
X126857419Y-69142856D02*
X126809800Y-69238094D01*
X126809800Y-69238094D02*
X126762180Y-69285713D01*
X126762180Y-69285713D02*
X126666942Y-69333332D01*
X126666942Y-69333332D02*
X126476466Y-69380951D01*
X126476466Y-69380951D02*
X126238371Y-69380951D01*
X126238371Y-69380951D02*
X126047895Y-69333332D01*
X126047895Y-69333332D02*
X125952657Y-69285713D01*
X125952657Y-69285713D02*
X125905038Y-69238094D01*
X125905038Y-69238094D02*
X125857419Y-69142856D01*
X126857419Y-67619046D02*
X126190752Y-67619046D01*
X126285990Y-67619046D02*
X126238371Y-67571427D01*
X126238371Y-67571427D02*
X126190752Y-67476189D01*
X126190752Y-67476189D02*
X126190752Y-67333332D01*
X126190752Y-67333332D02*
X126238371Y-67238094D01*
X126238371Y-67238094D02*
X126333609Y-67190475D01*
X126333609Y-67190475D02*
X126857419Y-67190475D01*
X126333609Y-67190475D02*
X126238371Y-67142856D01*
X126238371Y-67142856D02*
X126190752Y-67047618D01*
X126190752Y-67047618D02*
X126190752Y-66904761D01*
X126190752Y-66904761D02*
X126238371Y-66809522D01*
X126238371Y-66809522D02*
X126333609Y-66761903D01*
X126333609Y-66761903D02*
X126857419Y-66761903D01*
X126857419Y-66285713D02*
X126190752Y-66285713D01*
X126285990Y-66285713D02*
X126238371Y-66238094D01*
X126238371Y-66238094D02*
X126190752Y-66142856D01*
X126190752Y-66142856D02*
X126190752Y-65999999D01*
X126190752Y-65999999D02*
X126238371Y-65904761D01*
X126238371Y-65904761D02*
X126333609Y-65857142D01*
X126333609Y-65857142D02*
X126857419Y-65857142D01*
X126333609Y-65857142D02*
X126238371Y-65809523D01*
X126238371Y-65809523D02*
X126190752Y-65714285D01*
X126190752Y-65714285D02*
X126190752Y-65571428D01*
X126190752Y-65571428D02*
X126238371Y-65476189D01*
X126238371Y-65476189D02*
X126333609Y-65428570D01*
X126333609Y-65428570D02*
X126857419Y-65428570D01*
X125500000Y-42500000D02*
X128086420Y-42500000D01*
X125500000Y-97500000D02*
X128086420Y-97500000D01*
X127500000Y-42500000D02*
X127500000Y-97500000D01*
X127500000Y-42500000D02*
X127500000Y-97500000D01*
X127500000Y-42500000D02*
X128086421Y-43626504D01*
X127500000Y-42500000D02*
X126913579Y-43626504D01*
X127500000Y-97500000D02*
X126913579Y-96373496D01*
X127500000Y-97500000D02*
X128086421Y-96373496D01*
X70476190Y-39357419D02*
X69904762Y-39357419D01*
X70190476Y-39357419D02*
X70190476Y-38357419D01*
X70190476Y-38357419D02*
X70095238Y-38500276D01*
X70095238Y-38500276D02*
X70000000Y-38595514D01*
X70000000Y-38595514D02*
X69904762Y-38643133D01*
X71095238Y-38357419D02*
X71190476Y-38357419D01*
X71190476Y-38357419D02*
X71285714Y-38405038D01*
X71285714Y-38405038D02*
X71333333Y-38452657D01*
X71333333Y-38452657D02*
X71380952Y-38547895D01*
X71380952Y-38547895D02*
X71428571Y-38738371D01*
X71428571Y-38738371D02*
X71428571Y-38976466D01*
X71428571Y-38976466D02*
X71380952Y-39166942D01*
X71380952Y-39166942D02*
X71333333Y-39262180D01*
X71333333Y-39262180D02*
X71285714Y-39309800D01*
X71285714Y-39309800D02*
X71190476Y-39357419D01*
X71190476Y-39357419D02*
X71095238Y-39357419D01*
X71095238Y-39357419D02*
X71000000Y-39309800D01*
X71000000Y-39309800D02*
X70952381Y-39262180D01*
X70952381Y-39262180D02*
X70904762Y-39166942D01*
X70904762Y-39166942D02*
X70857143Y-38976466D01*
X70857143Y-38976466D02*
X70857143Y-38738371D01*
X70857143Y-38738371D02*
X70904762Y-38547895D01*
X70904762Y-38547895D02*
X70952381Y-38452657D01*
X70952381Y-38452657D02*
X71000000Y-38405038D01*
X71000000Y-38405038D02*
X71095238Y-38357419D01*
X72047619Y-38357419D02*
X72142857Y-38357419D01*
X72142857Y-38357419D02*
X72238095Y-38405038D01*
X72238095Y-38405038D02*
X72285714Y-38452657D01*
X72285714Y-38452657D02*
X72333333Y-38547895D01*
X72333333Y-38547895D02*
X72380952Y-38738371D01*
X72380952Y-38738371D02*
X72380952Y-38976466D01*
X72380952Y-38976466D02*
X72333333Y-39166942D01*
X72333333Y-39166942D02*
X72285714Y-39262180D01*
X72285714Y-39262180D02*
X72238095Y-39309800D01*
X72238095Y-39309800D02*
X72142857Y-39357419D01*
X72142857Y-39357419D02*
X72047619Y-39357419D01*
X72047619Y-39357419D02*
X71952381Y-39309800D01*
X71952381Y-39309800D02*
X71904762Y-39262180D01*
X71904762Y-39262180D02*
X71857143Y-39166942D01*
X71857143Y-39166942D02*
X71809524Y-38976466D01*
X71809524Y-38976466D02*
X71809524Y-38738371D01*
X71809524Y-38738371D02*
X71857143Y-38547895D01*
X71857143Y-38547895D02*
X71904762Y-38452657D01*
X71904762Y-38452657D02*
X71952381Y-38405038D01*
X71952381Y-38405038D02*
X72047619Y-38357419D01*
X72857143Y-39309800D02*
X72857143Y-39357419D01*
X72857143Y-39357419D02*
X72809524Y-39452657D01*
X72809524Y-39452657D02*
X72761905Y-39500276D01*
X73476190Y-38357419D02*
X73571428Y-38357419D01*
X73571428Y-38357419D02*
X73666666Y-38405038D01*
X73666666Y-38405038D02*
X73714285Y-38452657D01*
X73714285Y-38452657D02*
X73761904Y-38547895D01*
X73761904Y-38547895D02*
X73809523Y-38738371D01*
X73809523Y-38738371D02*
X73809523Y-38976466D01*
X73809523Y-38976466D02*
X73761904Y-39166942D01*
X73761904Y-39166942D02*
X73714285Y-39262180D01*
X73714285Y-39262180D02*
X73666666Y-39309800D01*
X73666666Y-39309800D02*
X73571428Y-39357419D01*
X73571428Y-39357419D02*
X73476190Y-39357419D01*
X73476190Y-39357419D02*
X73380952Y-39309800D01*
X73380952Y-39309800D02*
X73333333Y-39262180D01*
X73333333Y-39262180D02*
X73285714Y-39166942D01*
X73285714Y-39166942D02*
X73238095Y-38976466D01*
X73238095Y-38976466D02*
X73238095Y-38738371D01*
X73238095Y-38738371D02*
X73285714Y-38547895D01*
X73285714Y-38547895D02*
X73333333Y-38452657D01*
X73333333Y-38452657D02*
X73380952Y-38405038D01*
X73380952Y-38405038D02*
X73476190Y-38357419D01*
X74428571Y-38357419D02*
X74523809Y-38357419D01*
X74523809Y-38357419D02*
X74619047Y-38405038D01*
X74619047Y-38405038D02*
X74666666Y-38452657D01*
X74666666Y-38452657D02*
X74714285Y-38547895D01*
X74714285Y-38547895D02*
X74761904Y-38738371D01*
X74761904Y-38738371D02*
X74761904Y-38976466D01*
X74761904Y-38976466D02*
X74714285Y-39166942D01*
X74714285Y-39166942D02*
X74666666Y-39262180D01*
X74666666Y-39262180D02*
X74619047Y-39309800D01*
X74619047Y-39309800D02*
X74523809Y-39357419D01*
X74523809Y-39357419D02*
X74428571Y-39357419D01*
X74428571Y-39357419D02*
X74333333Y-39309800D01*
X74333333Y-39309800D02*
X74285714Y-39262180D01*
X74285714Y-39262180D02*
X74238095Y-39166942D01*
X74238095Y-39166942D02*
X74190476Y-38976466D01*
X74190476Y-38976466D02*
X74190476Y-38738371D01*
X74190476Y-38738371D02*
X74238095Y-38547895D01*
X74238095Y-38547895D02*
X74285714Y-38452657D01*
X74285714Y-38452657D02*
X74333333Y-38405038D01*
X74333333Y-38405038D02*
X74428571Y-38357419D01*
X75380952Y-38357419D02*
X75476190Y-38357419D01*
X75476190Y-38357419D02*
X75571428Y-38405038D01*
X75571428Y-38405038D02*
X75619047Y-38452657D01*
X75619047Y-38452657D02*
X75666666Y-38547895D01*
X75666666Y-38547895D02*
X75714285Y-38738371D01*
X75714285Y-38738371D02*
X75714285Y-38976466D01*
X75714285Y-38976466D02*
X75666666Y-39166942D01*
X75666666Y-39166942D02*
X75619047Y-39262180D01*
X75619047Y-39262180D02*
X75571428Y-39309800D01*
X75571428Y-39309800D02*
X75476190Y-39357419D01*
X75476190Y-39357419D02*
X75380952Y-39357419D01*
X75380952Y-39357419D02*
X75285714Y-39309800D01*
X75285714Y-39309800D02*
X75238095Y-39262180D01*
X75238095Y-39262180D02*
X75190476Y-39166942D01*
X75190476Y-39166942D02*
X75142857Y-38976466D01*
X75142857Y-38976466D02*
X75142857Y-38738371D01*
X75142857Y-38738371D02*
X75190476Y-38547895D01*
X75190476Y-38547895D02*
X75238095Y-38452657D01*
X75238095Y-38452657D02*
X75285714Y-38405038D01*
X75285714Y-38405038D02*
X75380952Y-38357419D01*
X76333333Y-38357419D02*
X76428571Y-38357419D01*
X76428571Y-38357419D02*
X76523809Y-38405038D01*
X76523809Y-38405038D02*
X76571428Y-38452657D01*
X76571428Y-38452657D02*
X76619047Y-38547895D01*
X76619047Y-38547895D02*
X76666666Y-38738371D01*
X76666666Y-38738371D02*
X76666666Y-38976466D01*
X76666666Y-38976466D02*
X76619047Y-39166942D01*
X76619047Y-39166942D02*
X76571428Y-39262180D01*
X76571428Y-39262180D02*
X76523809Y-39309800D01*
X76523809Y-39309800D02*
X76428571Y-39357419D01*
X76428571Y-39357419D02*
X76333333Y-39357419D01*
X76333333Y-39357419D02*
X76238095Y-39309800D01*
X76238095Y-39309800D02*
X76190476Y-39262180D01*
X76190476Y-39262180D02*
X76142857Y-39166942D01*
X76142857Y-39166942D02*
X76095238Y-38976466D01*
X76095238Y-38976466D02*
X76095238Y-38738371D01*
X76095238Y-38738371D02*
X76142857Y-38547895D01*
X76142857Y-38547895D02*
X76190476Y-38452657D01*
X76190476Y-38452657D02*
X76238095Y-38405038D01*
X76238095Y-38405038D02*
X76333333Y-38357419D01*
X77857143Y-39357419D02*
X77857143Y-38690752D01*
X77857143Y-38785990D02*
X77904762Y-38738371D01*
X77904762Y-38738371D02*
X78000000Y-38690752D01*
X78000000Y-38690752D02*
X78142857Y-38690752D01*
X78142857Y-38690752D02*
X78238095Y-38738371D01*
X78238095Y-38738371D02*
X78285714Y-38833609D01*
X78285714Y-38833609D02*
X78285714Y-39357419D01*
X78285714Y-38833609D02*
X78333333Y-38738371D01*
X78333333Y-38738371D02*
X78428571Y-38690752D01*
X78428571Y-38690752D02*
X78571428Y-38690752D01*
X78571428Y-38690752D02*
X78666667Y-38738371D01*
X78666667Y-38738371D02*
X78714286Y-38833609D01*
X78714286Y-38833609D02*
X78714286Y-39357419D01*
X79190476Y-39357419D02*
X79190476Y-38690752D01*
X79190476Y-38785990D02*
X79238095Y-38738371D01*
X79238095Y-38738371D02*
X79333333Y-38690752D01*
X79333333Y-38690752D02*
X79476190Y-38690752D01*
X79476190Y-38690752D02*
X79571428Y-38738371D01*
X79571428Y-38738371D02*
X79619047Y-38833609D01*
X79619047Y-38833609D02*
X79619047Y-39357419D01*
X79619047Y-38833609D02*
X79666666Y-38738371D01*
X79666666Y-38738371D02*
X79761904Y-38690752D01*
X79761904Y-38690752D02*
X79904761Y-38690752D01*
X79904761Y-38690752D02*
X80000000Y-38738371D01*
X80000000Y-38738371D02*
X80047619Y-38833609D01*
X80047619Y-38833609D02*
X80047619Y-39357419D01*
X25000000Y-42000000D02*
X25000000Y-39413580D01*
X125000000Y-42000000D02*
X125000000Y-39413580D01*
X25000000Y-40000000D02*
X125000000Y-40000000D01*
X25000000Y-40000000D02*
X125000000Y-40000000D01*
X25000000Y-40000000D02*
X26126504Y-39413579D01*
X25000000Y-40000000D02*
X26126504Y-40586421D01*
X125000000Y-40000000D02*
X123873496Y-40586421D01*
X125000000Y-40000000D02*
X123873496Y-39413579D01*
D10*
X45845238Y-54856333D02*
X49654762Y-54856333D01*
X100345238Y-55106333D02*
X104154762Y-55106333D01*
X102250000Y-57011095D02*
X102250000Y-53201571D01*
D12*
X102475000Y-87967662D02*
X102475000Y-88824805D01*
X102475000Y-88824805D02*
X102417857Y-88996234D01*
X102417857Y-88996234D02*
X102303571Y-89110520D01*
X102303571Y-89110520D02*
X102132143Y-89167662D01*
X102132143Y-89167662D02*
X102017857Y-89167662D01*
X102932143Y-87967662D02*
X103675000Y-87967662D01*
X103675000Y-87967662D02*
X103275000Y-88424805D01*
X103275000Y-88424805D02*
X103446429Y-88424805D01*
X103446429Y-88424805D02*
X103560715Y-88481948D01*
X103560715Y-88481948D02*
X103617857Y-88539091D01*
X103617857Y-88539091D02*
X103675000Y-88653377D01*
X103675000Y-88653377D02*
X103675000Y-88939091D01*
X103675000Y-88939091D02*
X103617857Y-89053377D01*
X103617857Y-89053377D02*
X103560715Y-89110520D01*
X103560715Y-89110520D02*
X103446429Y-89167662D01*
X103446429Y-89167662D02*
X103103572Y-89167662D01*
X103103572Y-89167662D02*
X102989286Y-89110520D01*
X102989286Y-89110520D02*
X102932143Y-89053377D01*
D11*
X98000000Y-89875000D02*
X107750000Y-89875000D01*
X107750000Y-95125000D01*
X98000000Y-95125000D01*
X98000000Y-89875000D01*
X73500000Y-96750000D02*
X73500000Y-96250000D01*
X84125000Y-96000000D02*
X83625000Y-96000000D01*
X84125000Y-96000000D02*
X84125000Y-96500000D01*
X83375000Y-96750000D02*
X84125000Y-96000000D01*
X73500000Y-96750000D02*
X83375000Y-96750000D01*
X84250000Y-92250000D02*
X91750000Y-92250000D01*
X91750000Y-95750000D01*
X84250000Y-95750000D01*
X84250000Y-92250000D01*
D13*
X99987252Y-94424812D02*
X100058680Y-94210527D01*
X100058680Y-94210527D02*
X100058680Y-93853384D01*
X100058680Y-93853384D02*
X99987252Y-93710527D01*
X99987252Y-93710527D02*
X99915823Y-93639098D01*
X99915823Y-93639098D02*
X99772966Y-93567669D01*
X99772966Y-93567669D02*
X99630109Y-93567669D01*
X99630109Y-93567669D02*
X99487252Y-93639098D01*
X99487252Y-93639098D02*
X99415823Y-93710527D01*
X99415823Y-93710527D02*
X99344394Y-93853384D01*
X99344394Y-93853384D02*
X99272966Y-94139098D01*
X99272966Y-94139098D02*
X99201537Y-94281955D01*
X99201537Y-94281955D02*
X99130109Y-94353384D01*
X99130109Y-94353384D02*
X98987252Y-94424812D01*
X98987252Y-94424812D02*
X98844394Y-94424812D01*
X98844394Y-94424812D02*
X98701537Y-94353384D01*
X98701537Y-94353384D02*
X98630109Y-94281955D01*
X98630109Y-94281955D02*
X98558680Y-94139098D01*
X98558680Y-94139098D02*
X98558680Y-93781955D01*
X98558680Y-93781955D02*
X98630109Y-93567669D01*
X99915823Y-92067670D02*
X99987252Y-92139098D01*
X99987252Y-92139098D02*
X100058680Y-92353384D01*
X100058680Y-92353384D02*
X100058680Y-92496241D01*
X100058680Y-92496241D02*
X99987252Y-92710527D01*
X99987252Y-92710527D02*
X99844394Y-92853384D01*
X99844394Y-92853384D02*
X99701537Y-92924813D01*
X99701537Y-92924813D02*
X99415823Y-92996241D01*
X99415823Y-92996241D02*
X99201537Y-92996241D01*
X99201537Y-92996241D02*
X98915823Y-92924813D01*
X98915823Y-92924813D02*
X98772966Y-92853384D01*
X98772966Y-92853384D02*
X98630109Y-92710527D01*
X98630109Y-92710527D02*
X98558680Y-92496241D01*
X98558680Y-92496241D02*
X98558680Y-92353384D01*
X98558680Y-92353384D02*
X98630109Y-92139098D01*
X98630109Y-92139098D02*
X98701537Y-92067670D01*
X100058680Y-90710527D02*
X100058680Y-91424813D01*
X100058680Y-91424813D02*
X98558680Y-91424813D01*
X102402168Y-94424812D02*
X102473596Y-94210527D01*
X102473596Y-94210527D02*
X102473596Y-93853384D01*
X102473596Y-93853384D02*
X102402168Y-93710527D01*
X102402168Y-93710527D02*
X102330739Y-93639098D01*
X102330739Y-93639098D02*
X102187882Y-93567669D01*
X102187882Y-93567669D02*
X102045025Y-93567669D01*
X102045025Y-93567669D02*
X101902168Y-93639098D01*
X101902168Y-93639098D02*
X101830739Y-93710527D01*
X101830739Y-93710527D02*
X101759310Y-93853384D01*
X101759310Y-93853384D02*
X101687882Y-94139098D01*
X101687882Y-94139098D02*
X101616453Y-94281955D01*
X101616453Y-94281955D02*
X101545025Y-94353384D01*
X101545025Y-94353384D02*
X101402168Y-94424812D01*
X101402168Y-94424812D02*
X101259310Y-94424812D01*
X101259310Y-94424812D02*
X101116453Y-94353384D01*
X101116453Y-94353384D02*
X101045025Y-94281955D01*
X101045025Y-94281955D02*
X100973596Y-94139098D01*
X100973596Y-94139098D02*
X100973596Y-93781955D01*
X100973596Y-93781955D02*
X101045025Y-93567669D01*
X102473596Y-92924813D02*
X100973596Y-92924813D01*
X100973596Y-92924813D02*
X100973596Y-92567670D01*
X100973596Y-92567670D02*
X101045025Y-92353384D01*
X101045025Y-92353384D02*
X101187882Y-92210527D01*
X101187882Y-92210527D02*
X101330739Y-92139098D01*
X101330739Y-92139098D02*
X101616453Y-92067670D01*
X101616453Y-92067670D02*
X101830739Y-92067670D01*
X101830739Y-92067670D02*
X102116453Y-92139098D01*
X102116453Y-92139098D02*
X102259310Y-92210527D01*
X102259310Y-92210527D02*
X102402168Y-92353384D01*
X102402168Y-92353384D02*
X102473596Y-92567670D01*
X102473596Y-92567670D02*
X102473596Y-92924813D01*
X102045025Y-91496241D02*
X102045025Y-90781956D01*
X102473596Y-91639098D02*
X100973596Y-91139098D01*
X100973596Y-91139098D02*
X102473596Y-90639098D01*
X104888512Y-94353384D02*
X103388512Y-94353384D01*
X104888512Y-93639098D02*
X103388512Y-93639098D01*
X103388512Y-93639098D02*
X104888512Y-92781955D01*
X104888512Y-92781955D02*
X103388512Y-92781955D01*
X103388512Y-92281954D02*
X103388512Y-91424812D01*
X104888512Y-91853383D02*
X103388512Y-91853383D01*
X105874857Y-93567669D02*
X105803428Y-93710527D01*
X105803428Y-93710527D02*
X105803428Y-93924812D01*
X105803428Y-93924812D02*
X105874857Y-94139098D01*
X105874857Y-94139098D02*
X106017714Y-94281955D01*
X106017714Y-94281955D02*
X106160571Y-94353384D01*
X106160571Y-94353384D02*
X106446285Y-94424812D01*
X106446285Y-94424812D02*
X106660571Y-94424812D01*
X106660571Y-94424812D02*
X106946285Y-94353384D01*
X106946285Y-94353384D02*
X107089142Y-94281955D01*
X107089142Y-94281955D02*
X107232000Y-94139098D01*
X107232000Y-94139098D02*
X107303428Y-93924812D01*
X107303428Y-93924812D02*
X107303428Y-93781955D01*
X107303428Y-93781955D02*
X107232000Y-93567669D01*
X107232000Y-93567669D02*
X107160571Y-93496241D01*
X107160571Y-93496241D02*
X106660571Y-93496241D01*
X106660571Y-93496241D02*
X106660571Y-93781955D01*
X107303428Y-92853384D02*
X105803428Y-92853384D01*
X105803428Y-92853384D02*
X107303428Y-91996241D01*
X107303428Y-91996241D02*
X105803428Y-91996241D01*
X107303428Y-91281955D02*
X105803428Y-91281955D01*
X105803428Y-91281955D02*
X105803428Y-90924812D01*
X105803428Y-90924812D02*
X105874857Y-90710526D01*
X105874857Y-90710526D02*
X106017714Y-90567669D01*
X106017714Y-90567669D02*
X106160571Y-90496240D01*
X106160571Y-90496240D02*
X106446285Y-90424812D01*
X106446285Y-90424812D02*
X106660571Y-90424812D01*
X106660571Y-90424812D02*
X106946285Y-90496240D01*
X106946285Y-90496240D02*
X107089142Y-90567669D01*
X107089142Y-90567669D02*
X107232000Y-90710526D01*
X107232000Y-90710526D02*
X107303428Y-90924812D01*
X107303428Y-90924812D02*
X107303428Y-91281955D01*
D14*
X90773183Y-72422342D02*
X90725564Y-72465200D01*
X90725564Y-72465200D02*
X90582707Y-72508057D01*
X90582707Y-72508057D02*
X90487469Y-72508057D01*
X90487469Y-72508057D02*
X90344612Y-72465200D01*
X90344612Y-72465200D02*
X90249374Y-72379485D01*
X90249374Y-72379485D02*
X90201755Y-72293771D01*
X90201755Y-72293771D02*
X90154136Y-72122342D01*
X90154136Y-72122342D02*
X90154136Y-71993771D01*
X90154136Y-71993771D02*
X90201755Y-71822342D01*
X90201755Y-71822342D02*
X90249374Y-71736628D01*
X90249374Y-71736628D02*
X90344612Y-71650914D01*
X90344612Y-71650914D02*
X90487469Y-71608057D01*
X90487469Y-71608057D02*
X90582707Y-71608057D01*
X90582707Y-71608057D02*
X90725564Y-71650914D01*
X90725564Y-71650914D02*
X90773183Y-71693771D01*
X91201755Y-72036628D02*
X91535088Y-72036628D01*
X91677945Y-72508057D02*
X91201755Y-72508057D01*
X91201755Y-72508057D02*
X91201755Y-71608057D01*
X91201755Y-71608057D02*
X91677945Y-71608057D01*
X89106517Y-75363100D02*
X89249374Y-75405957D01*
X89249374Y-75405957D02*
X89487469Y-75405957D01*
X89487469Y-75405957D02*
X89582707Y-75363100D01*
X89582707Y-75363100D02*
X89630326Y-75320242D01*
X89630326Y-75320242D02*
X89677945Y-75234528D01*
X89677945Y-75234528D02*
X89677945Y-75148814D01*
X89677945Y-75148814D02*
X89630326Y-75063100D01*
X89630326Y-75063100D02*
X89582707Y-75020242D01*
X89582707Y-75020242D02*
X89487469Y-74977385D01*
X89487469Y-74977385D02*
X89296993Y-74934528D01*
X89296993Y-74934528D02*
X89201755Y-74891671D01*
X89201755Y-74891671D02*
X89154136Y-74848814D01*
X89154136Y-74848814D02*
X89106517Y-74763100D01*
X89106517Y-74763100D02*
X89106517Y-74677385D01*
X89106517Y-74677385D02*
X89154136Y-74591671D01*
X89154136Y-74591671D02*
X89201755Y-74548814D01*
X89201755Y-74548814D02*
X89296993Y-74505957D01*
X89296993Y-74505957D02*
X89535088Y-74505957D01*
X89535088Y-74505957D02*
X89677945Y-74548814D01*
X90677945Y-75320242D02*
X90630326Y-75363100D01*
X90630326Y-75363100D02*
X90487469Y-75405957D01*
X90487469Y-75405957D02*
X90392231Y-75405957D01*
X90392231Y-75405957D02*
X90249374Y-75363100D01*
X90249374Y-75363100D02*
X90154136Y-75277385D01*
X90154136Y-75277385D02*
X90106517Y-75191671D01*
X90106517Y-75191671D02*
X90058898Y-75020242D01*
X90058898Y-75020242D02*
X90058898Y-74891671D01*
X90058898Y-74891671D02*
X90106517Y-74720242D01*
X90106517Y-74720242D02*
X90154136Y-74634528D01*
X90154136Y-74634528D02*
X90249374Y-74548814D01*
X90249374Y-74548814D02*
X90392231Y-74505957D01*
X90392231Y-74505957D02*
X90487469Y-74505957D01*
X90487469Y-74505957D02*
X90630326Y-74548814D01*
X90630326Y-74548814D02*
X90677945Y-74591671D01*
X91106517Y-75405957D02*
X91106517Y-74505957D01*
X91677945Y-75405957D02*
X91249374Y-74891671D01*
X91677945Y-74505957D02*
X91106517Y-75020242D01*
X88487470Y-78303857D02*
X88487470Y-77403857D01*
X88487470Y-77403857D02*
X88820803Y-78046714D01*
X88820803Y-78046714D02*
X89154136Y-77403857D01*
X89154136Y-77403857D02*
X89154136Y-78303857D01*
X89630327Y-78303857D02*
X89630327Y-77403857D01*
X90058898Y-78261000D02*
X90201755Y-78303857D01*
X90201755Y-78303857D02*
X90439850Y-78303857D01*
X90439850Y-78303857D02*
X90535088Y-78261000D01*
X90535088Y-78261000D02*
X90582707Y-78218142D01*
X90582707Y-78218142D02*
X90630326Y-78132428D01*
X90630326Y-78132428D02*
X90630326Y-78046714D01*
X90630326Y-78046714D02*
X90582707Y-77961000D01*
X90582707Y-77961000D02*
X90535088Y-77918142D01*
X90535088Y-77918142D02*
X90439850Y-77875285D01*
X90439850Y-77875285D02*
X90249374Y-77832428D01*
X90249374Y-77832428D02*
X90154136Y-77789571D01*
X90154136Y-77789571D02*
X90106517Y-77746714D01*
X90106517Y-77746714D02*
X90058898Y-77661000D01*
X90058898Y-77661000D02*
X90058898Y-77575285D01*
X90058898Y-77575285D02*
X90106517Y-77489571D01*
X90106517Y-77489571D02*
X90154136Y-77446714D01*
X90154136Y-77446714D02*
X90249374Y-77403857D01*
X90249374Y-77403857D02*
X90487469Y-77403857D01*
X90487469Y-77403857D02*
X90630326Y-77446714D01*
X91249374Y-77403857D02*
X91439850Y-77403857D01*
X91439850Y-77403857D02*
X91535088Y-77446714D01*
X91535088Y-77446714D02*
X91630326Y-77532428D01*
X91630326Y-77532428D02*
X91677945Y-77703857D01*
X91677945Y-77703857D02*
X91677945Y-78003857D01*
X91677945Y-78003857D02*
X91630326Y-78175285D01*
X91630326Y-78175285D02*
X91535088Y-78261000D01*
X91535088Y-78261000D02*
X91439850Y-78303857D01*
X91439850Y-78303857D02*
X91249374Y-78303857D01*
X91249374Y-78303857D02*
X91154136Y-78261000D01*
X91154136Y-78261000D02*
X91058898Y-78175285D01*
X91058898Y-78175285D02*
X91011279Y-78003857D01*
X91011279Y-78003857D02*
X91011279Y-77703857D01*
X91011279Y-77703857D02*
X91058898Y-77532428D01*
X91058898Y-77532428D02*
X91154136Y-77446714D01*
X91154136Y-77446714D02*
X91249374Y-77403857D01*
X98226816Y-69159107D02*
X98560149Y-70059107D01*
X98560149Y-70059107D02*
X98893482Y-69159107D01*
X99226816Y-70059107D02*
X99226816Y-69159107D01*
X99226816Y-69159107D02*
X99464911Y-69159107D01*
X99464911Y-69159107D02*
X99607768Y-69201964D01*
X99607768Y-69201964D02*
X99703006Y-69287678D01*
X99703006Y-69287678D02*
X99750625Y-69373392D01*
X99750625Y-69373392D02*
X99798244Y-69544821D01*
X99798244Y-69544821D02*
X99798244Y-69673392D01*
X99798244Y-69673392D02*
X99750625Y-69844821D01*
X99750625Y-69844821D02*
X99703006Y-69930535D01*
X99703006Y-69930535D02*
X99607768Y-70016250D01*
X99607768Y-70016250D02*
X99464911Y-70059107D01*
X99464911Y-70059107D02*
X99226816Y-70059107D01*
X100226816Y-70059107D02*
X100226816Y-69159107D01*
X100226816Y-69159107D02*
X100464911Y-69159107D01*
X100464911Y-69159107D02*
X100607768Y-69201964D01*
X100607768Y-69201964D02*
X100703006Y-69287678D01*
X100703006Y-69287678D02*
X100750625Y-69373392D01*
X100750625Y-69373392D02*
X100798244Y-69544821D01*
X100798244Y-69544821D02*
X100798244Y-69673392D01*
X100798244Y-69673392D02*
X100750625Y-69844821D01*
X100750625Y-69844821D02*
X100703006Y-69930535D01*
X100703006Y-69930535D02*
X100607768Y-70016250D01*
X100607768Y-70016250D02*
X100464911Y-70059107D01*
X100464911Y-70059107D02*
X100226816Y-70059107D01*
X98941101Y-72871292D02*
X98893482Y-72914150D01*
X98893482Y-72914150D02*
X98750625Y-72957007D01*
X98750625Y-72957007D02*
X98655387Y-72957007D01*
X98655387Y-72957007D02*
X98512530Y-72914150D01*
X98512530Y-72914150D02*
X98417292Y-72828435D01*
X98417292Y-72828435D02*
X98369673Y-72742721D01*
X98369673Y-72742721D02*
X98322054Y-72571292D01*
X98322054Y-72571292D02*
X98322054Y-72442721D01*
X98322054Y-72442721D02*
X98369673Y-72271292D01*
X98369673Y-72271292D02*
X98417292Y-72185578D01*
X98417292Y-72185578D02*
X98512530Y-72099864D01*
X98512530Y-72099864D02*
X98655387Y-72057007D01*
X98655387Y-72057007D02*
X98750625Y-72057007D01*
X98750625Y-72057007D02*
X98893482Y-72099864D01*
X98893482Y-72099864D02*
X98941101Y-72142721D01*
X99322054Y-72914150D02*
X99464911Y-72957007D01*
X99464911Y-72957007D02*
X99703006Y-72957007D01*
X99703006Y-72957007D02*
X99798244Y-72914150D01*
X99798244Y-72914150D02*
X99845863Y-72871292D01*
X99845863Y-72871292D02*
X99893482Y-72785578D01*
X99893482Y-72785578D02*
X99893482Y-72699864D01*
X99893482Y-72699864D02*
X99845863Y-72614150D01*
X99845863Y-72614150D02*
X99798244Y-72571292D01*
X99798244Y-72571292D02*
X99703006Y-72528435D01*
X99703006Y-72528435D02*
X99512530Y-72485578D01*
X99512530Y-72485578D02*
X99417292Y-72442721D01*
X99417292Y-72442721D02*
X99369673Y-72399864D01*
X99369673Y-72399864D02*
X99322054Y-72314150D01*
X99322054Y-72314150D02*
X99322054Y-72228435D01*
X99322054Y-72228435D02*
X99369673Y-72142721D01*
X99369673Y-72142721D02*
X99417292Y-72099864D01*
X99417292Y-72099864D02*
X99512530Y-72057007D01*
X99512530Y-72057007D02*
X99750625Y-72057007D01*
X99750625Y-72057007D02*
X99893482Y-72099864D01*
X100322054Y-72957007D02*
X100322054Y-72057007D01*
X100322054Y-72057007D02*
X100893482Y-72957007D01*
X100893482Y-72957007D02*
X100893482Y-72057007D01*
X98369673Y-75854907D02*
X98369673Y-74954907D01*
X98369673Y-74954907D02*
X98703006Y-75597764D01*
X98703006Y-75597764D02*
X99036339Y-74954907D01*
X99036339Y-74954907D02*
X99036339Y-75854907D01*
X99703006Y-74954907D02*
X99893482Y-74954907D01*
X99893482Y-74954907D02*
X99988720Y-74997764D01*
X99988720Y-74997764D02*
X100083958Y-75083478D01*
X100083958Y-75083478D02*
X100131577Y-75254907D01*
X100131577Y-75254907D02*
X100131577Y-75554907D01*
X100131577Y-75554907D02*
X100083958Y-75726335D01*
X100083958Y-75726335D02*
X99988720Y-75812050D01*
X99988720Y-75812050D02*
X99893482Y-75854907D01*
X99893482Y-75854907D02*
X99703006Y-75854907D01*
X99703006Y-75854907D02*
X99607768Y-75812050D01*
X99607768Y-75812050D02*
X99512530Y-75726335D01*
X99512530Y-75726335D02*
X99464911Y-75554907D01*
X99464911Y-75554907D02*
X99464911Y-75254907D01*
X99464911Y-75254907D02*
X99512530Y-75083478D01*
X99512530Y-75083478D02*
X99607768Y-74997764D01*
X99607768Y-74997764D02*
X99703006Y-74954907D01*
X100512530Y-75812050D02*
X100655387Y-75854907D01*
X100655387Y-75854907D02*
X100893482Y-75854907D01*
X100893482Y-75854907D02*
X100988720Y-75812050D01*
X100988720Y-75812050D02*
X101036339Y-75769192D01*
X101036339Y-75769192D02*
X101083958Y-75683478D01*
X101083958Y-75683478D02*
X101083958Y-75597764D01*
X101083958Y-75597764D02*
X101036339Y-75512050D01*
X101036339Y-75512050D02*
X100988720Y-75469192D01*
X100988720Y-75469192D02*
X100893482Y-75426335D01*
X100893482Y-75426335D02*
X100703006Y-75383478D01*
X100703006Y-75383478D02*
X100607768Y-75340621D01*
X100607768Y-75340621D02*
X100560149Y-75297764D01*
X100560149Y-75297764D02*
X100512530Y-75212050D01*
X100512530Y-75212050D02*
X100512530Y-75126335D01*
X100512530Y-75126335D02*
X100560149Y-75040621D01*
X100560149Y-75040621D02*
X100607768Y-74997764D01*
X100607768Y-74997764D02*
X100703006Y-74954907D01*
X100703006Y-74954907D02*
X100941101Y-74954907D01*
X100941101Y-74954907D02*
X101083958Y-74997764D01*
X101512530Y-75854907D02*
X101512530Y-74954907D01*
X98369673Y-78752807D02*
X98369673Y-77852807D01*
X99417291Y-78752807D02*
X99083958Y-78324235D01*
X98845863Y-78752807D02*
X98845863Y-77852807D01*
X98845863Y-77852807D02*
X99226815Y-77852807D01*
X99226815Y-77852807D02*
X99322053Y-77895664D01*
X99322053Y-77895664D02*
X99369672Y-77938521D01*
X99369672Y-77938521D02*
X99417291Y-78024235D01*
X99417291Y-78024235D02*
X99417291Y-78152807D01*
X99417291Y-78152807D02*
X99369672Y-78238521D01*
X99369672Y-78238521D02*
X99322053Y-78281378D01*
X99322053Y-78281378D02*
X99226815Y-78324235D01*
X99226815Y-78324235D02*
X98845863Y-78324235D01*
X100512529Y-78838521D02*
X100417291Y-78795664D01*
X100417291Y-78795664D02*
X100322053Y-78709950D01*
X100322053Y-78709950D02*
X100179196Y-78581378D01*
X100179196Y-78581378D02*
X100083958Y-78538521D01*
X100083958Y-78538521D02*
X99988720Y-78538521D01*
X100036339Y-78752807D02*
X99941101Y-78709950D01*
X99941101Y-78709950D02*
X99845863Y-78624235D01*
X99845863Y-78624235D02*
X99798244Y-78452807D01*
X99798244Y-78452807D02*
X99798244Y-78152807D01*
X99798244Y-78152807D02*
X99845863Y-77981378D01*
X99845863Y-77981378D02*
X99941101Y-77895664D01*
X99941101Y-77895664D02*
X100036339Y-77852807D01*
X100036339Y-77852807D02*
X100226815Y-77852807D01*
X100226815Y-77852807D02*
X100322053Y-77895664D01*
X100322053Y-77895664D02*
X100417291Y-77981378D01*
X100417291Y-77981378D02*
X100464910Y-78152807D01*
X100464910Y-78152807D02*
X100464910Y-78452807D01*
X100464910Y-78452807D02*
X100417291Y-78624235D01*
X100417291Y-78624235D02*
X100322053Y-78709950D01*
X100322053Y-78709950D02*
X100226815Y-78752807D01*
X100226815Y-78752807D02*
X100036339Y-78752807D01*
D13*
X93378758Y-82973596D02*
X92878758Y-82259310D01*
X92521615Y-82973596D02*
X92521615Y-81473596D01*
X92521615Y-81473596D02*
X93093044Y-81473596D01*
X93093044Y-81473596D02*
X93235901Y-81545025D01*
X93235901Y-81545025D02*
X93307330Y-81616453D01*
X93307330Y-81616453D02*
X93378758Y-81759310D01*
X93378758Y-81759310D02*
X93378758Y-81973596D01*
X93378758Y-81973596D02*
X93307330Y-82116453D01*
X93307330Y-82116453D02*
X93235901Y-82187882D01*
X93235901Y-82187882D02*
X93093044Y-82259310D01*
X93093044Y-82259310D02*
X92521615Y-82259310D01*
X93878758Y-81473596D02*
X94878758Y-82973596D01*
X94878758Y-81473596D02*
X93878758Y-82973596D01*
X92307330Y-83888512D02*
X93164473Y-83888512D01*
X92735901Y-85388512D02*
X92735901Y-83888512D01*
X93521615Y-83888512D02*
X94521615Y-85388512D01*
X94521615Y-83888512D02*
X93521615Y-85388512D01*
X93307330Y-86374857D02*
X93164473Y-86303428D01*
X93164473Y-86303428D02*
X92950187Y-86303428D01*
X92950187Y-86303428D02*
X92735901Y-86374857D01*
X92735901Y-86374857D02*
X92593044Y-86517714D01*
X92593044Y-86517714D02*
X92521615Y-86660571D01*
X92521615Y-86660571D02*
X92450187Y-86946285D01*
X92450187Y-86946285D02*
X92450187Y-87160571D01*
X92450187Y-87160571D02*
X92521615Y-87446285D01*
X92521615Y-87446285D02*
X92593044Y-87589142D01*
X92593044Y-87589142D02*
X92735901Y-87732000D01*
X92735901Y-87732000D02*
X92950187Y-87803428D01*
X92950187Y-87803428D02*
X93093044Y-87803428D01*
X93093044Y-87803428D02*
X93307330Y-87732000D01*
X93307330Y-87732000D02*
X93378758Y-87660571D01*
X93378758Y-87660571D02*
X93378758Y-87160571D01*
X93378758Y-87160571D02*
X93093044Y-87160571D01*
X94021615Y-87803428D02*
X94021615Y-86303428D01*
X94021615Y-86303428D02*
X94878758Y-87803428D01*
X94878758Y-87803428D02*
X94878758Y-86303428D01*
X95593044Y-87803428D02*
X95593044Y-86303428D01*
X95593044Y-86303428D02*
X95950187Y-86303428D01*
X95950187Y-86303428D02*
X96164473Y-86374857D01*
X96164473Y-86374857D02*
X96307330Y-86517714D01*
X96307330Y-86517714D02*
X96378759Y-86660571D01*
X96378759Y-86660571D02*
X96450187Y-86946285D01*
X96450187Y-86946285D02*
X96450187Y-87160571D01*
X96450187Y-87160571D02*
X96378759Y-87446285D01*
X96378759Y-87446285D02*
X96307330Y-87589142D01*
X96307330Y-87589142D02*
X96164473Y-87732000D01*
X96164473Y-87732000D02*
X95950187Y-87803428D01*
X95950187Y-87803428D02*
X95593044Y-87803428D01*
D15*
X114714285Y-50431009D02*
X114857142Y-50478628D01*
X114857142Y-50478628D02*
X114904761Y-50526247D01*
X114904761Y-50526247D02*
X114952380Y-50621485D01*
X114952380Y-50621485D02*
X114952380Y-50764342D01*
X114952380Y-50764342D02*
X114904761Y-50859580D01*
X114904761Y-50859580D02*
X114857142Y-50907200D01*
X114857142Y-50907200D02*
X114761904Y-50954819D01*
X114761904Y-50954819D02*
X114380952Y-50954819D01*
X114380952Y-50954819D02*
X114380952Y-49954819D01*
X114380952Y-49954819D02*
X114714285Y-49954819D01*
X114714285Y-49954819D02*
X114809523Y-50002438D01*
X114809523Y-50002438D02*
X114857142Y-50050057D01*
X114857142Y-50050057D02*
X114904761Y-50145295D01*
X114904761Y-50145295D02*
X114904761Y-50240533D01*
X114904761Y-50240533D02*
X114857142Y-50335771D01*
X114857142Y-50335771D02*
X114809523Y-50383390D01*
X114809523Y-50383390D02*
X114714285Y-50431009D01*
X114714285Y-50431009D02*
X114380952Y-50431009D01*
X115238095Y-49954819D02*
X115809523Y-49954819D01*
X115523809Y-50954819D02*
X115523809Y-49954819D01*
X116666666Y-50954819D02*
X116095238Y-50954819D01*
X116380952Y-50954819D02*
X116380952Y-49954819D01*
X116380952Y-49954819D02*
X116285714Y-50097676D01*
X116285714Y-50097676D02*
X116190476Y-50192914D01*
X116190476Y-50192914D02*
X116095238Y-50240533D01*
X26238095Y-66454819D02*
X26238095Y-67264342D01*
X26238095Y-67264342D02*
X26285714Y-67359580D01*
X26285714Y-67359580D02*
X26333333Y-67407200D01*
X26333333Y-67407200D02*
X26428571Y-67454819D01*
X26428571Y-67454819D02*
X26619047Y-67454819D01*
X26619047Y-67454819D02*
X26714285Y-67407200D01*
X26714285Y-67407200D02*
X26761904Y-67359580D01*
X26761904Y-67359580D02*
X26809523Y-67264342D01*
X26809523Y-67264342D02*
X26809523Y-66454819D01*
X27761904Y-66454819D02*
X27285714Y-66454819D01*
X27285714Y-66454819D02*
X27238095Y-66931009D01*
X27238095Y-66931009D02*
X27285714Y-66883390D01*
X27285714Y-66883390D02*
X27380952Y-66835771D01*
X27380952Y-66835771D02*
X27619047Y-66835771D01*
X27619047Y-66835771D02*
X27714285Y-66883390D01*
X27714285Y-66883390D02*
X27761904Y-66931009D01*
X27761904Y-66931009D02*
X27809523Y-67026247D01*
X27809523Y-67026247D02*
X27809523Y-67264342D01*
X27809523Y-67264342D02*
X27761904Y-67359580D01*
X27761904Y-67359580D02*
X27714285Y-67407200D01*
X27714285Y-67407200D02*
X27619047Y-67454819D01*
X27619047Y-67454819D02*
X27380952Y-67454819D01*
X27380952Y-67454819D02*
X27285714Y-67407200D01*
X27285714Y-67407200D02*
X27238095Y-67359580D01*
X70666666Y-67454819D02*
X70666666Y-68169104D01*
X70666666Y-68169104D02*
X70619047Y-68311961D01*
X70619047Y-68311961D02*
X70523809Y-68407200D01*
X70523809Y-68407200D02*
X70380952Y-68454819D01*
X70380952Y-68454819D02*
X70285714Y-68454819D01*
X71142857Y-68454819D02*
X71142857Y-67454819D01*
X71142857Y-67454819D02*
X71523809Y-67454819D01*
X71523809Y-67454819D02*
X71619047Y-67502438D01*
X71619047Y-67502438D02*
X71666666Y-67550057D01*
X71666666Y-67550057D02*
X71714285Y-67645295D01*
X71714285Y-67645295D02*
X71714285Y-67788152D01*
X71714285Y-67788152D02*
X71666666Y-67883390D01*
X71666666Y-67883390D02*
X71619047Y-67931009D01*
X71619047Y-67931009D02*
X71523809Y-67978628D01*
X71523809Y-67978628D02*
X71142857Y-67978628D01*
X72619047Y-67454819D02*
X72142857Y-67454819D01*
X72142857Y-67454819D02*
X72095238Y-67931009D01*
X72095238Y-67931009D02*
X72142857Y-67883390D01*
X72142857Y-67883390D02*
X72238095Y-67835771D01*
X72238095Y-67835771D02*
X72476190Y-67835771D01*
X72476190Y-67835771D02*
X72571428Y-67883390D01*
X72571428Y-67883390D02*
X72619047Y-67931009D01*
X72619047Y-67931009D02*
X72666666Y-68026247D01*
X72666666Y-68026247D02*
X72666666Y-68264342D01*
X72666666Y-68264342D02*
X72619047Y-68359580D01*
X72619047Y-68359580D02*
X72571428Y-68407200D01*
X72571428Y-68407200D02*
X72476190Y-68454819D01*
X72476190Y-68454819D02*
X72238095Y-68454819D01*
X72238095Y-68454819D02*
X72142857Y-68407200D01*
X72142857Y-68407200D02*
X72095238Y-68359580D01*
X70976190Y-66954819D02*
X70976190Y-65954819D01*
X70976190Y-65954819D02*
X71309523Y-66669104D01*
X71309523Y-66669104D02*
X71642856Y-65954819D01*
X71642856Y-65954819D02*
X71642856Y-66954819D01*
X72690475Y-66859580D02*
X72642856Y-66907200D01*
X72642856Y-66907200D02*
X72499999Y-66954819D01*
X72499999Y-66954819D02*
X72404761Y-66954819D01*
X72404761Y-66954819D02*
X72261904Y-66907200D01*
X72261904Y-66907200D02*
X72166666Y-66811961D01*
X72166666Y-66811961D02*
X72119047Y-66716723D01*
X72119047Y-66716723D02*
X72071428Y-66526247D01*
X72071428Y-66526247D02*
X72071428Y-66383390D01*
X72071428Y-66383390D02*
X72119047Y-66192914D01*
X72119047Y-66192914D02*
X72166666Y-66097676D01*
X72166666Y-66097676D02*
X72261904Y-66002438D01*
X72261904Y-66002438D02*
X72404761Y-65954819D01*
X72404761Y-65954819D02*
X72499999Y-65954819D01*
X72499999Y-65954819D02*
X72642856Y-66002438D01*
X72642856Y-66002438D02*
X72690475Y-66050057D01*
X73119047Y-65954819D02*
X73119047Y-66764342D01*
X73119047Y-66764342D02*
X73166666Y-66859580D01*
X73166666Y-66859580D02*
X73214285Y-66907200D01*
X73214285Y-66907200D02*
X73309523Y-66954819D01*
X73309523Y-66954819D02*
X73499999Y-66954819D01*
X73499999Y-66954819D02*
X73595237Y-66907200D01*
X73595237Y-66907200D02*
X73642856Y-66859580D01*
X73642856Y-66859580D02*
X73690475Y-66764342D01*
X73690475Y-66764342D02*
X73690475Y-65954819D01*
X73928571Y-67050057D02*
X74690475Y-67050057D01*
X74928571Y-66288152D02*
X74928571Y-67288152D01*
X74928571Y-66335771D02*
X75023809Y-66288152D01*
X75023809Y-66288152D02*
X75214285Y-66288152D01*
X75214285Y-66288152D02*
X75309523Y-66335771D01*
X75309523Y-66335771D02*
X75357142Y-66383390D01*
X75357142Y-66383390D02*
X75404761Y-66478628D01*
X75404761Y-66478628D02*
X75404761Y-66764342D01*
X75404761Y-66764342D02*
X75357142Y-66859580D01*
X75357142Y-66859580D02*
X75309523Y-66907200D01*
X75309523Y-66907200D02*
X75214285Y-66954819D01*
X75214285Y-66954819D02*
X75023809Y-66954819D01*
X75023809Y-66954819D02*
X74928571Y-66907200D01*
X75738095Y-66288152D02*
X75928571Y-66954819D01*
X75928571Y-66954819D02*
X76119047Y-66478628D01*
X76119047Y-66478628D02*
X76309523Y-66954819D01*
X76309523Y-66954819D02*
X76499999Y-66288152D01*
X76880952Y-66954819D02*
X76880952Y-66288152D01*
X76880952Y-66478628D02*
X76928571Y-66383390D01*
X76928571Y-66383390D02*
X76976190Y-66335771D01*
X76976190Y-66335771D02*
X77071428Y-66288152D01*
X77071428Y-66288152D02*
X77166666Y-66288152D01*
X65666666Y-90454819D02*
X65666666Y-91169104D01*
X65666666Y-91169104D02*
X65619047Y-91311961D01*
X65619047Y-91311961D02*
X65523809Y-91407200D01*
X65523809Y-91407200D02*
X65380952Y-91454819D01*
X65380952Y-91454819D02*
X65285714Y-91454819D01*
X66142857Y-91454819D02*
X66142857Y-90454819D01*
X66142857Y-90454819D02*
X66523809Y-90454819D01*
X66523809Y-90454819D02*
X66619047Y-90502438D01*
X66619047Y-90502438D02*
X66666666Y-90550057D01*
X66666666Y-90550057D02*
X66714285Y-90645295D01*
X66714285Y-90645295D02*
X66714285Y-90788152D01*
X66714285Y-90788152D02*
X66666666Y-90883390D01*
X66666666Y-90883390D02*
X66619047Y-90931009D01*
X66619047Y-90931009D02*
X66523809Y-90978628D01*
X66523809Y-90978628D02*
X66142857Y-90978628D01*
X67571428Y-90788152D02*
X67571428Y-91454819D01*
X67333333Y-90407200D02*
X67095238Y-91121485D01*
X67095238Y-91121485D02*
X67714285Y-91121485D01*
X65595238Y-93454819D02*
X65595238Y-92454819D01*
X65595238Y-92454819D02*
X65928571Y-93169104D01*
X65928571Y-93169104D02*
X66261904Y-92454819D01*
X66261904Y-92454819D02*
X66261904Y-93454819D01*
X66738095Y-93454819D02*
X66738095Y-92454819D01*
X66738095Y-92454819D02*
X67119047Y-92454819D01*
X67119047Y-92454819D02*
X67214285Y-92502438D01*
X67214285Y-92502438D02*
X67261904Y-92550057D01*
X67261904Y-92550057D02*
X67309523Y-92645295D01*
X67309523Y-92645295D02*
X67309523Y-92788152D01*
X67309523Y-92788152D02*
X67261904Y-92883390D01*
X67261904Y-92883390D02*
X67214285Y-92931009D01*
X67214285Y-92931009D02*
X67119047Y-92978628D01*
X67119047Y-92978628D02*
X66738095Y-92978628D01*
X68214285Y-93454819D02*
X67738095Y-93454819D01*
X67738095Y-93454819D02*
X67738095Y-92454819D01*
X68309524Y-93550057D02*
X69071428Y-93550057D01*
X69309524Y-92788152D02*
X69309524Y-93788152D01*
X69309524Y-92835771D02*
X69404762Y-92788152D01*
X69404762Y-92788152D02*
X69595238Y-92788152D01*
X69595238Y-92788152D02*
X69690476Y-92835771D01*
X69690476Y-92835771D02*
X69738095Y-92883390D01*
X69738095Y-92883390D02*
X69785714Y-92978628D01*
X69785714Y-92978628D02*
X69785714Y-93264342D01*
X69785714Y-93264342D02*
X69738095Y-93359580D01*
X69738095Y-93359580D02*
X69690476Y-93407200D01*
X69690476Y-93407200D02*
X69595238Y-93454819D01*
X69595238Y-93454819D02*
X69404762Y-93454819D01*
X69404762Y-93454819D02*
X69309524Y-93407200D01*
X70119048Y-92788152D02*
X70309524Y-93454819D01*
X70309524Y-93454819D02*
X70500000Y-92978628D01*
X70500000Y-92978628D02*
X70690476Y-93454819D01*
X70690476Y-93454819D02*
X70880952Y-92788152D01*
X71261905Y-93454819D02*
X71261905Y-92788152D01*
X71261905Y-92978628D02*
X71309524Y-92883390D01*
X71309524Y-92883390D02*
X71357143Y-92835771D01*
X71357143Y-92835771D02*
X71452381Y-92788152D01*
X71452381Y-92788152D02*
X71547619Y-92788152D01*
X80954819Y-69833333D02*
X81669104Y-69833333D01*
X81669104Y-69833333D02*
X81811961Y-69880952D01*
X81811961Y-69880952D02*
X81907200Y-69976190D01*
X81907200Y-69976190D02*
X81954819Y-70119047D01*
X81954819Y-70119047D02*
X81954819Y-70214285D01*
X81954819Y-69357142D02*
X80954819Y-69357142D01*
X80954819Y-69357142D02*
X80954819Y-68976190D01*
X80954819Y-68976190D02*
X81002438Y-68880952D01*
X81002438Y-68880952D02*
X81050057Y-68833333D01*
X81050057Y-68833333D02*
X81145295Y-68785714D01*
X81145295Y-68785714D02*
X81288152Y-68785714D01*
X81288152Y-68785714D02*
X81383390Y-68833333D01*
X81383390Y-68833333D02*
X81431009Y-68880952D01*
X81431009Y-68880952D02*
X81478628Y-68976190D01*
X81478628Y-68976190D02*
X81478628Y-69357142D01*
X80954819Y-68452380D02*
X80954819Y-67833333D01*
X80954819Y-67833333D02*
X81335771Y-68166666D01*
X81335771Y-68166666D02*
X81335771Y-68023809D01*
X81335771Y-68023809D02*
X81383390Y-67928571D01*
X81383390Y-67928571D02*
X81431009Y-67880952D01*
X81431009Y-67880952D02*
X81526247Y-67833333D01*
X81526247Y-67833333D02*
X81764342Y-67833333D01*
X81764342Y-67833333D02*
X81859580Y-67880952D01*
X81859580Y-67880952D02*
X81907200Y-67928571D01*
X81907200Y-67928571D02*
X81954819Y-68023809D01*
X81954819Y-68023809D02*
X81954819Y-68309523D01*
X81954819Y-68309523D02*
X81907200Y-68404761D01*
X81907200Y-68404761D02*
X81859580Y-68452380D01*
X79619047Y-66954819D02*
X79619047Y-65954819D01*
X79619047Y-65954819D02*
X80190475Y-66954819D01*
X80190475Y-66954819D02*
X80190475Y-65954819D01*
X81238094Y-66954819D02*
X80904761Y-66478628D01*
X80666666Y-66954819D02*
X80666666Y-65954819D01*
X80666666Y-65954819D02*
X81047618Y-65954819D01*
X81047618Y-65954819D02*
X81142856Y-66002438D01*
X81142856Y-66002438D02*
X81190475Y-66050057D01*
X81190475Y-66050057D02*
X81238094Y-66145295D01*
X81238094Y-66145295D02*
X81238094Y-66288152D01*
X81238094Y-66288152D02*
X81190475Y-66383390D01*
X81190475Y-66383390D02*
X81142856Y-66431009D01*
X81142856Y-66431009D02*
X81047618Y-66478628D01*
X81047618Y-66478628D02*
X80666666Y-66478628D01*
X81999999Y-66431009D02*
X81666666Y-66431009D01*
X81666666Y-66954819D02*
X81666666Y-65954819D01*
X81666666Y-65954819D02*
X82142856Y-65954819D01*
X82285714Y-67050057D02*
X83047618Y-67050057D01*
X83285714Y-66288152D02*
X83285714Y-67288152D01*
X83285714Y-66335771D02*
X83380952Y-66288152D01*
X83380952Y-66288152D02*
X83571428Y-66288152D01*
X83571428Y-66288152D02*
X83666666Y-66335771D01*
X83666666Y-66335771D02*
X83714285Y-66383390D01*
X83714285Y-66383390D02*
X83761904Y-66478628D01*
X83761904Y-66478628D02*
X83761904Y-66764342D01*
X83761904Y-66764342D02*
X83714285Y-66859580D01*
X83714285Y-66859580D02*
X83666666Y-66907200D01*
X83666666Y-66907200D02*
X83571428Y-66954819D01*
X83571428Y-66954819D02*
X83380952Y-66954819D01*
X83380952Y-66954819D02*
X83285714Y-66907200D01*
X84095238Y-66288152D02*
X84285714Y-66954819D01*
X84285714Y-66954819D02*
X84476190Y-66478628D01*
X84476190Y-66478628D02*
X84666666Y-66954819D01*
X84666666Y-66954819D02*
X84857142Y-66288152D01*
X85238095Y-66954819D02*
X85238095Y-66288152D01*
X85238095Y-66478628D02*
X85285714Y-66383390D01*
X85285714Y-66383390D02*
X85333333Y-66335771D01*
X85333333Y-66335771D02*
X85428571Y-66288152D01*
X85428571Y-66288152D02*
X85523809Y-66288152D01*
X90857142Y-66859580D02*
X90809523Y-66907200D01*
X90809523Y-66907200D02*
X90666666Y-66954819D01*
X90666666Y-66954819D02*
X90571428Y-66954819D01*
X90571428Y-66954819D02*
X90428571Y-66907200D01*
X90428571Y-66907200D02*
X90333333Y-66811961D01*
X90333333Y-66811961D02*
X90285714Y-66716723D01*
X90285714Y-66716723D02*
X90238095Y-66526247D01*
X90238095Y-66526247D02*
X90238095Y-66383390D01*
X90238095Y-66383390D02*
X90285714Y-66192914D01*
X90285714Y-66192914D02*
X90333333Y-66097676D01*
X90333333Y-66097676D02*
X90428571Y-66002438D01*
X90428571Y-66002438D02*
X90571428Y-65954819D01*
X90571428Y-65954819D02*
X90666666Y-65954819D01*
X90666666Y-65954819D02*
X90809523Y-66002438D01*
X90809523Y-66002438D02*
X90857142Y-66050057D01*
X91809523Y-66954819D02*
X91238095Y-66954819D01*
X91523809Y-66954819D02*
X91523809Y-65954819D01*
X91523809Y-65954819D02*
X91428571Y-66097676D01*
X91428571Y-66097676D02*
X91333333Y-66192914D01*
X91333333Y-66192914D02*
X91238095Y-66240533D01*
X92190476Y-66050057D02*
X92238095Y-66002438D01*
X92238095Y-66002438D02*
X92333333Y-65954819D01*
X92333333Y-65954819D02*
X92571428Y-65954819D01*
X92571428Y-65954819D02*
X92666666Y-66002438D01*
X92666666Y-66002438D02*
X92714285Y-66050057D01*
X92714285Y-66050057D02*
X92761904Y-66145295D01*
X92761904Y-66145295D02*
X92761904Y-66240533D01*
X92761904Y-66240533D02*
X92714285Y-66383390D01*
X92714285Y-66383390D02*
X92142857Y-66954819D01*
X92142857Y-66954819D02*
X92761904Y-66954819D01*
X91359580Y-94666666D02*
X91407200Y-94714285D01*
X91407200Y-94714285D02*
X91454819Y-94857142D01*
X91454819Y-94857142D02*
X91454819Y-94952380D01*
X91454819Y-94952380D02*
X91407200Y-95095237D01*
X91407200Y-95095237D02*
X91311961Y-95190475D01*
X91311961Y-95190475D02*
X91216723Y-95238094D01*
X91216723Y-95238094D02*
X91026247Y-95285713D01*
X91026247Y-95285713D02*
X90883390Y-95285713D01*
X90883390Y-95285713D02*
X90692914Y-95238094D01*
X90692914Y-95238094D02*
X90597676Y-95190475D01*
X90597676Y-95190475D02*
X90502438Y-95095237D01*
X90502438Y-95095237D02*
X90454819Y-94952380D01*
X90454819Y-94952380D02*
X90454819Y-94857142D01*
X90454819Y-94857142D02*
X90502438Y-94714285D01*
X90502438Y-94714285D02*
X90550057Y-94666666D01*
X91454819Y-94190475D02*
X91454819Y-93999999D01*
X91454819Y-93999999D02*
X91407200Y-93904761D01*
X91407200Y-93904761D02*
X91359580Y-93857142D01*
X91359580Y-93857142D02*
X91216723Y-93761904D01*
X91216723Y-93761904D02*
X91026247Y-93714285D01*
X91026247Y-93714285D02*
X90645295Y-93714285D01*
X90645295Y-93714285D02*
X90550057Y-93761904D01*
X90550057Y-93761904D02*
X90502438Y-93809523D01*
X90502438Y-93809523D02*
X90454819Y-93904761D01*
X90454819Y-93904761D02*
X90454819Y-94095237D01*
X90454819Y-94095237D02*
X90502438Y-94190475D01*
X90502438Y-94190475D02*
X90550057Y-94238094D01*
X90550057Y-94238094D02*
X90645295Y-94285713D01*
X90645295Y-94285713D02*
X90883390Y-94285713D01*
X90883390Y-94285713D02*
X90978628Y-94238094D01*
X90978628Y-94238094D02*
X91026247Y-94190475D01*
X91026247Y-94190475D02*
X91073866Y-94095237D01*
X91073866Y-94095237D02*
X91073866Y-93904761D01*
X91073866Y-93904761D02*
X91026247Y-93809523D01*
X91026247Y-93809523D02*
X90978628Y-93761904D01*
X90978628Y-93761904D02*
X90883390Y-93714285D01*
X58738095Y-67554819D02*
X58738095Y-68364342D01*
X58738095Y-68364342D02*
X58785714Y-68459580D01*
X58785714Y-68459580D02*
X58833333Y-68507200D01*
X58833333Y-68507200D02*
X58928571Y-68554819D01*
X58928571Y-68554819D02*
X59119047Y-68554819D01*
X59119047Y-68554819D02*
X59214285Y-68507200D01*
X59214285Y-68507200D02*
X59261904Y-68459580D01*
X59261904Y-68459580D02*
X59309523Y-68364342D01*
X59309523Y-68364342D02*
X59309523Y-67554819D01*
X60214285Y-67888152D02*
X60214285Y-68554819D01*
X59976190Y-67507200D02*
X59738095Y-68221485D01*
X59738095Y-68221485D02*
X60357142Y-68221485D01*
X85954819Y-84261904D02*
X86764342Y-84261904D01*
X86764342Y-84261904D02*
X86859580Y-84214285D01*
X86859580Y-84214285D02*
X86907200Y-84166666D01*
X86907200Y-84166666D02*
X86954819Y-84071428D01*
X86954819Y-84071428D02*
X86954819Y-83880952D01*
X86954819Y-83880952D02*
X86907200Y-83785714D01*
X86907200Y-83785714D02*
X86859580Y-83738095D01*
X86859580Y-83738095D02*
X86764342Y-83690476D01*
X86764342Y-83690476D02*
X85954819Y-83690476D01*
X85954819Y-83309523D02*
X85954819Y-82690476D01*
X85954819Y-82690476D02*
X86335771Y-83023809D01*
X86335771Y-83023809D02*
X86335771Y-82880952D01*
X86335771Y-82880952D02*
X86383390Y-82785714D01*
X86383390Y-82785714D02*
X86431009Y-82738095D01*
X86431009Y-82738095D02*
X86526247Y-82690476D01*
X86526247Y-82690476D02*
X86764342Y-82690476D01*
X86764342Y-82690476D02*
X86859580Y-82738095D01*
X86859580Y-82738095D02*
X86907200Y-82785714D01*
X86907200Y-82785714D02*
X86954819Y-82880952D01*
X86954819Y-82880952D02*
X86954819Y-83166666D01*
X86954819Y-83166666D02*
X86907200Y-83261904D01*
X86907200Y-83261904D02*
X86859580Y-83309523D01*
X70833333Y-75954819D02*
X70500000Y-75478628D01*
X70261905Y-75954819D02*
X70261905Y-74954819D01*
X70261905Y-74954819D02*
X70642857Y-74954819D01*
X70642857Y-74954819D02*
X70738095Y-75002438D01*
X70738095Y-75002438D02*
X70785714Y-75050057D01*
X70785714Y-75050057D02*
X70833333Y-75145295D01*
X70833333Y-75145295D02*
X70833333Y-75288152D01*
X70833333Y-75288152D02*
X70785714Y-75383390D01*
X70785714Y-75383390D02*
X70738095Y-75431009D01*
X70738095Y-75431009D02*
X70642857Y-75478628D01*
X70642857Y-75478628D02*
X70261905Y-75478628D01*
X71404762Y-75383390D02*
X71309524Y-75335771D01*
X71309524Y-75335771D02*
X71261905Y-75288152D01*
X71261905Y-75288152D02*
X71214286Y-75192914D01*
X71214286Y-75192914D02*
X71214286Y-75145295D01*
X71214286Y-75145295D02*
X71261905Y-75050057D01*
X71261905Y-75050057D02*
X71309524Y-75002438D01*
X71309524Y-75002438D02*
X71404762Y-74954819D01*
X71404762Y-74954819D02*
X71595238Y-74954819D01*
X71595238Y-74954819D02*
X71690476Y-75002438D01*
X71690476Y-75002438D02*
X71738095Y-75050057D01*
X71738095Y-75050057D02*
X71785714Y-75145295D01*
X71785714Y-75145295D02*
X71785714Y-75192914D01*
X71785714Y-75192914D02*
X71738095Y-75288152D01*
X71738095Y-75288152D02*
X71690476Y-75335771D01*
X71690476Y-75335771D02*
X71595238Y-75383390D01*
X71595238Y-75383390D02*
X71404762Y-75383390D01*
X71404762Y-75383390D02*
X71309524Y-75431009D01*
X71309524Y-75431009D02*
X71261905Y-75478628D01*
X71261905Y-75478628D02*
X71214286Y-75573866D01*
X71214286Y-75573866D02*
X71214286Y-75764342D01*
X71214286Y-75764342D02*
X71261905Y-75859580D01*
X71261905Y-75859580D02*
X71309524Y-75907200D01*
X71309524Y-75907200D02*
X71404762Y-75954819D01*
X71404762Y-75954819D02*
X71595238Y-75954819D01*
X71595238Y-75954819D02*
X71690476Y-75907200D01*
X71690476Y-75907200D02*
X71738095Y-75859580D01*
X71738095Y-75859580D02*
X71785714Y-75764342D01*
X71785714Y-75764342D02*
X71785714Y-75573866D01*
X71785714Y-75573866D02*
X71738095Y-75478628D01*
X71738095Y-75478628D02*
X71690476Y-75431009D01*
X71690476Y-75431009D02*
X71595238Y-75383390D01*
X58454819Y-77166666D02*
X57978628Y-77499999D01*
X58454819Y-77738094D02*
X57454819Y-77738094D01*
X57454819Y-77738094D02*
X57454819Y-77357142D01*
X57454819Y-77357142D02*
X57502438Y-77261904D01*
X57502438Y-77261904D02*
X57550057Y-77214285D01*
X57550057Y-77214285D02*
X57645295Y-77166666D01*
X57645295Y-77166666D02*
X57788152Y-77166666D01*
X57788152Y-77166666D02*
X57883390Y-77214285D01*
X57883390Y-77214285D02*
X57931009Y-77261904D01*
X57931009Y-77261904D02*
X57978628Y-77357142D01*
X57978628Y-77357142D02*
X57978628Y-77738094D01*
X57788152Y-76309523D02*
X58454819Y-76309523D01*
X57407200Y-76547618D02*
X58121485Y-76785713D01*
X58121485Y-76785713D02*
X58121485Y-76166666D01*
X77857142Y-68859580D02*
X77809523Y-68907200D01*
X77809523Y-68907200D02*
X77666666Y-68954819D01*
X77666666Y-68954819D02*
X77571428Y-68954819D01*
X77571428Y-68954819D02*
X77428571Y-68907200D01*
X77428571Y-68907200D02*
X77333333Y-68811961D01*
X77333333Y-68811961D02*
X77285714Y-68716723D01*
X77285714Y-68716723D02*
X77238095Y-68526247D01*
X77238095Y-68526247D02*
X77238095Y-68383390D01*
X77238095Y-68383390D02*
X77285714Y-68192914D01*
X77285714Y-68192914D02*
X77333333Y-68097676D01*
X77333333Y-68097676D02*
X77428571Y-68002438D01*
X77428571Y-68002438D02*
X77571428Y-67954819D01*
X77571428Y-67954819D02*
X77666666Y-67954819D01*
X77666666Y-67954819D02*
X77809523Y-68002438D01*
X77809523Y-68002438D02*
X77857142Y-68050057D01*
X78809523Y-68954819D02*
X78238095Y-68954819D01*
X78523809Y-68954819D02*
X78523809Y-67954819D01*
X78523809Y-67954819D02*
X78428571Y-68097676D01*
X78428571Y-68097676D02*
X78333333Y-68192914D01*
X78333333Y-68192914D02*
X78238095Y-68240533D01*
X79142857Y-67954819D02*
X79761904Y-67954819D01*
X79761904Y-67954819D02*
X79428571Y-68335771D01*
X79428571Y-68335771D02*
X79571428Y-68335771D01*
X79571428Y-68335771D02*
X79666666Y-68383390D01*
X79666666Y-68383390D02*
X79714285Y-68431009D01*
X79714285Y-68431009D02*
X79761904Y-68526247D01*
X79761904Y-68526247D02*
X79761904Y-68764342D01*
X79761904Y-68764342D02*
X79714285Y-68859580D01*
X79714285Y-68859580D02*
X79666666Y-68907200D01*
X79666666Y-68907200D02*
X79571428Y-68954819D01*
X79571428Y-68954819D02*
X79285714Y-68954819D01*
X79285714Y-68954819D02*
X79190476Y-68907200D01*
X79190476Y-68907200D02*
X79142857Y-68859580D01*
X48954819Y-86666666D02*
X48478628Y-86999999D01*
X48954819Y-87238094D02*
X47954819Y-87238094D01*
X47954819Y-87238094D02*
X47954819Y-86857142D01*
X47954819Y-86857142D02*
X48002438Y-86761904D01*
X48002438Y-86761904D02*
X48050057Y-86714285D01*
X48050057Y-86714285D02*
X48145295Y-86666666D01*
X48145295Y-86666666D02*
X48288152Y-86666666D01*
X48288152Y-86666666D02*
X48383390Y-86714285D01*
X48383390Y-86714285D02*
X48431009Y-86761904D01*
X48431009Y-86761904D02*
X48478628Y-86857142D01*
X48478628Y-86857142D02*
X48478628Y-87238094D01*
X47954819Y-86333332D02*
X47954819Y-85666666D01*
X47954819Y-85666666D02*
X48954819Y-86095237D01*
X66053819Y-78027333D02*
X66768104Y-78027333D01*
X66768104Y-78027333D02*
X66910961Y-78074952D01*
X66910961Y-78074952D02*
X67006200Y-78170190D01*
X67006200Y-78170190D02*
X67053819Y-78313047D01*
X67053819Y-78313047D02*
X67053819Y-78408285D01*
X66149057Y-77598761D02*
X66101438Y-77551142D01*
X66101438Y-77551142D02*
X66053819Y-77455904D01*
X66053819Y-77455904D02*
X66053819Y-77217809D01*
X66053819Y-77217809D02*
X66101438Y-77122571D01*
X66101438Y-77122571D02*
X66149057Y-77074952D01*
X66149057Y-77074952D02*
X66244295Y-77027333D01*
X66244295Y-77027333D02*
X66339533Y-77027333D01*
X66339533Y-77027333D02*
X66482390Y-77074952D01*
X66482390Y-77074952D02*
X67053819Y-77646380D01*
X67053819Y-77646380D02*
X67053819Y-77027333D01*
X72583333Y-87454819D02*
X72250000Y-86978628D01*
X72011905Y-87454819D02*
X72011905Y-86454819D01*
X72011905Y-86454819D02*
X72392857Y-86454819D01*
X72392857Y-86454819D02*
X72488095Y-86502438D01*
X72488095Y-86502438D02*
X72535714Y-86550057D01*
X72535714Y-86550057D02*
X72583333Y-86645295D01*
X72583333Y-86645295D02*
X72583333Y-86788152D01*
X72583333Y-86788152D02*
X72535714Y-86883390D01*
X72535714Y-86883390D02*
X72488095Y-86931009D01*
X72488095Y-86931009D02*
X72392857Y-86978628D01*
X72392857Y-86978628D02*
X72011905Y-86978628D01*
X72964286Y-86550057D02*
X73011905Y-86502438D01*
X73011905Y-86502438D02*
X73107143Y-86454819D01*
X73107143Y-86454819D02*
X73345238Y-86454819D01*
X73345238Y-86454819D02*
X73440476Y-86502438D01*
X73440476Y-86502438D02*
X73488095Y-86550057D01*
X73488095Y-86550057D02*
X73535714Y-86645295D01*
X73535714Y-86645295D02*
X73535714Y-86740533D01*
X73535714Y-86740533D02*
X73488095Y-86883390D01*
X73488095Y-86883390D02*
X72916667Y-87454819D01*
X72916667Y-87454819D02*
X73535714Y-87454819D01*
X72431009Y-94333333D02*
X72431009Y-94666666D01*
X72954819Y-94666666D02*
X71954819Y-94666666D01*
X71954819Y-94666666D02*
X71954819Y-94190476D01*
X72431009Y-93476190D02*
X72478628Y-93333333D01*
X72478628Y-93333333D02*
X72526247Y-93285714D01*
X72526247Y-93285714D02*
X72621485Y-93238095D01*
X72621485Y-93238095D02*
X72764342Y-93238095D01*
X72764342Y-93238095D02*
X72859580Y-93285714D01*
X72859580Y-93285714D02*
X72907200Y-93333333D01*
X72907200Y-93333333D02*
X72954819Y-93428571D01*
X72954819Y-93428571D02*
X72954819Y-93809523D01*
X72954819Y-93809523D02*
X71954819Y-93809523D01*
X71954819Y-93809523D02*
X71954819Y-93476190D01*
X71954819Y-93476190D02*
X72002438Y-93380952D01*
X72002438Y-93380952D02*
X72050057Y-93333333D01*
X72050057Y-93333333D02*
X72145295Y-93285714D01*
X72145295Y-93285714D02*
X72240533Y-93285714D01*
X72240533Y-93285714D02*
X72335771Y-93333333D01*
X72335771Y-93333333D02*
X72383390Y-93380952D01*
X72383390Y-93380952D02*
X72431009Y-93476190D01*
X72431009Y-93476190D02*
X72431009Y-93809523D01*
X72954819Y-92285714D02*
X72954819Y-92857142D01*
X72954819Y-92571428D02*
X71954819Y-92571428D01*
X71954819Y-92571428D02*
X72097676Y-92666666D01*
X72097676Y-92666666D02*
X72192914Y-92761904D01*
X72192914Y-92761904D02*
X72240533Y-92857142D01*
X89559580Y-66616666D02*
X89607200Y-66664285D01*
X89607200Y-66664285D02*
X89654819Y-66807142D01*
X89654819Y-66807142D02*
X89654819Y-66902380D01*
X89654819Y-66902380D02*
X89607200Y-67045237D01*
X89607200Y-67045237D02*
X89511961Y-67140475D01*
X89511961Y-67140475D02*
X89416723Y-67188094D01*
X89416723Y-67188094D02*
X89226247Y-67235713D01*
X89226247Y-67235713D02*
X89083390Y-67235713D01*
X89083390Y-67235713D02*
X88892914Y-67188094D01*
X88892914Y-67188094D02*
X88797676Y-67140475D01*
X88797676Y-67140475D02*
X88702438Y-67045237D01*
X88702438Y-67045237D02*
X88654819Y-66902380D01*
X88654819Y-66902380D02*
X88654819Y-66807142D01*
X88654819Y-66807142D02*
X88702438Y-66664285D01*
X88702438Y-66664285D02*
X88750057Y-66616666D01*
X88654819Y-66283332D02*
X88654819Y-65616666D01*
X88654819Y-65616666D02*
X89654819Y-66045237D01*
X72583333Y-88954819D02*
X72250000Y-88478628D01*
X72011905Y-88954819D02*
X72011905Y-87954819D01*
X72011905Y-87954819D02*
X72392857Y-87954819D01*
X72392857Y-87954819D02*
X72488095Y-88002438D01*
X72488095Y-88002438D02*
X72535714Y-88050057D01*
X72535714Y-88050057D02*
X72583333Y-88145295D01*
X72583333Y-88145295D02*
X72583333Y-88288152D01*
X72583333Y-88288152D02*
X72535714Y-88383390D01*
X72535714Y-88383390D02*
X72488095Y-88431009D01*
X72488095Y-88431009D02*
X72392857Y-88478628D01*
X72392857Y-88478628D02*
X72011905Y-88478628D01*
X73535714Y-88954819D02*
X72964286Y-88954819D01*
X73250000Y-88954819D02*
X73250000Y-87954819D01*
X73250000Y-87954819D02*
X73154762Y-88097676D01*
X73154762Y-88097676D02*
X73059524Y-88192914D01*
X73059524Y-88192914D02*
X72964286Y-88240533D01*
X69666666Y-81954819D02*
X69666666Y-82669104D01*
X69666666Y-82669104D02*
X69619047Y-82811961D01*
X69619047Y-82811961D02*
X69523809Y-82907200D01*
X69523809Y-82907200D02*
X69380952Y-82954819D01*
X69380952Y-82954819D02*
X69285714Y-82954819D01*
X70142857Y-82954819D02*
X70142857Y-81954819D01*
X70142857Y-81954819D02*
X70523809Y-81954819D01*
X70523809Y-81954819D02*
X70619047Y-82002438D01*
X70619047Y-82002438D02*
X70666666Y-82050057D01*
X70666666Y-82050057D02*
X70714285Y-82145295D01*
X70714285Y-82145295D02*
X70714285Y-82288152D01*
X70714285Y-82288152D02*
X70666666Y-82383390D01*
X70666666Y-82383390D02*
X70619047Y-82431009D01*
X70619047Y-82431009D02*
X70523809Y-82478628D01*
X70523809Y-82478628D02*
X70142857Y-82478628D01*
X71666666Y-82954819D02*
X71095238Y-82954819D01*
X71380952Y-82954819D02*
X71380952Y-81954819D01*
X71380952Y-81954819D02*
X71285714Y-82097676D01*
X71285714Y-82097676D02*
X71190476Y-82192914D01*
X71190476Y-82192914D02*
X71095238Y-82240533D01*
X64289580Y-69867857D02*
X64337200Y-69915476D01*
X64337200Y-69915476D02*
X64384819Y-70058333D01*
X64384819Y-70058333D02*
X64384819Y-70153571D01*
X64384819Y-70153571D02*
X64337200Y-70296428D01*
X64337200Y-70296428D02*
X64241961Y-70391666D01*
X64241961Y-70391666D02*
X64146723Y-70439285D01*
X64146723Y-70439285D02*
X63956247Y-70486904D01*
X63956247Y-70486904D02*
X63813390Y-70486904D01*
X63813390Y-70486904D02*
X63622914Y-70439285D01*
X63622914Y-70439285D02*
X63527676Y-70391666D01*
X63527676Y-70391666D02*
X63432438Y-70296428D01*
X63432438Y-70296428D02*
X63384819Y-70153571D01*
X63384819Y-70153571D02*
X63384819Y-70058333D01*
X63384819Y-70058333D02*
X63432438Y-69915476D01*
X63432438Y-69915476D02*
X63480057Y-69867857D01*
X64384819Y-68915476D02*
X64384819Y-69486904D01*
X64384819Y-69201190D02*
X63384819Y-69201190D01*
X63384819Y-69201190D02*
X63527676Y-69296428D01*
X63527676Y-69296428D02*
X63622914Y-69391666D01*
X63622914Y-69391666D02*
X63670533Y-69486904D01*
X63384819Y-68296428D02*
X63384819Y-68201190D01*
X63384819Y-68201190D02*
X63432438Y-68105952D01*
X63432438Y-68105952D02*
X63480057Y-68058333D01*
X63480057Y-68058333D02*
X63575295Y-68010714D01*
X63575295Y-68010714D02*
X63765771Y-67963095D01*
X63765771Y-67963095D02*
X64003866Y-67963095D01*
X64003866Y-67963095D02*
X64194342Y-68010714D01*
X64194342Y-68010714D02*
X64289580Y-68058333D01*
X64289580Y-68058333D02*
X64337200Y-68105952D01*
X64337200Y-68105952D02*
X64384819Y-68201190D01*
X64384819Y-68201190D02*
X64384819Y-68296428D01*
X64384819Y-68296428D02*
X64337200Y-68391666D01*
X64337200Y-68391666D02*
X64289580Y-68439285D01*
X64289580Y-68439285D02*
X64194342Y-68486904D01*
X64194342Y-68486904D02*
X64003866Y-68534523D01*
X64003866Y-68534523D02*
X63765771Y-68534523D01*
X63765771Y-68534523D02*
X63575295Y-68486904D01*
X63575295Y-68486904D02*
X63480057Y-68439285D01*
X63480057Y-68439285D02*
X63432438Y-68391666D01*
X63432438Y-68391666D02*
X63384819Y-68296428D01*
X89859580Y-94642857D02*
X89907200Y-94690476D01*
X89907200Y-94690476D02*
X89954819Y-94833333D01*
X89954819Y-94833333D02*
X89954819Y-94928571D01*
X89954819Y-94928571D02*
X89907200Y-95071428D01*
X89907200Y-95071428D02*
X89811961Y-95166666D01*
X89811961Y-95166666D02*
X89716723Y-95214285D01*
X89716723Y-95214285D02*
X89526247Y-95261904D01*
X89526247Y-95261904D02*
X89383390Y-95261904D01*
X89383390Y-95261904D02*
X89192914Y-95214285D01*
X89192914Y-95214285D02*
X89097676Y-95166666D01*
X89097676Y-95166666D02*
X89002438Y-95071428D01*
X89002438Y-95071428D02*
X88954819Y-94928571D01*
X88954819Y-94928571D02*
X88954819Y-94833333D01*
X88954819Y-94833333D02*
X89002438Y-94690476D01*
X89002438Y-94690476D02*
X89050057Y-94642857D01*
X89954819Y-93690476D02*
X89954819Y-94261904D01*
X89954819Y-93976190D02*
X88954819Y-93976190D01*
X88954819Y-93976190D02*
X89097676Y-94071428D01*
X89097676Y-94071428D02*
X89192914Y-94166666D01*
X89192914Y-94166666D02*
X89240533Y-94261904D01*
X89954819Y-92738095D02*
X89954819Y-93309523D01*
X89954819Y-93023809D02*
X88954819Y-93023809D01*
X88954819Y-93023809D02*
X89097676Y-93119047D01*
X89097676Y-93119047D02*
X89192914Y-93214285D01*
X89192914Y-93214285D02*
X89240533Y-93309523D01*
X56395834Y-67309579D02*
X56348215Y-67357199D01*
X56348215Y-67357199D02*
X56205358Y-67404818D01*
X56205358Y-67404818D02*
X56110120Y-67404818D01*
X56110120Y-67404818D02*
X55967263Y-67357199D01*
X55967263Y-67357199D02*
X55872025Y-67261960D01*
X55872025Y-67261960D02*
X55824406Y-67166722D01*
X55824406Y-67166722D02*
X55776787Y-66976246D01*
X55776787Y-66976246D02*
X55776787Y-66833389D01*
X55776787Y-66833389D02*
X55824406Y-66642913D01*
X55824406Y-66642913D02*
X55872025Y-66547675D01*
X55872025Y-66547675D02*
X55967263Y-66452437D01*
X55967263Y-66452437D02*
X56110120Y-66404818D01*
X56110120Y-66404818D02*
X56205358Y-66404818D01*
X56205358Y-66404818D02*
X56348215Y-66452437D01*
X56348215Y-66452437D02*
X56395834Y-66500056D01*
X57300596Y-66404818D02*
X56824406Y-66404818D01*
X56824406Y-66404818D02*
X56776787Y-66881008D01*
X56776787Y-66881008D02*
X56824406Y-66833389D01*
X56824406Y-66833389D02*
X56919644Y-66785770D01*
X56919644Y-66785770D02*
X57157739Y-66785770D01*
X57157739Y-66785770D02*
X57252977Y-66833389D01*
X57252977Y-66833389D02*
X57300596Y-66881008D01*
X57300596Y-66881008D02*
X57348215Y-66976246D01*
X57348215Y-66976246D02*
X57348215Y-67214341D01*
X57348215Y-67214341D02*
X57300596Y-67309579D01*
X57300596Y-67309579D02*
X57252977Y-67357199D01*
X57252977Y-67357199D02*
X57157739Y-67404818D01*
X57157739Y-67404818D02*
X56919644Y-67404818D01*
X56919644Y-67404818D02*
X56824406Y-67357199D01*
X56824406Y-67357199D02*
X56776787Y-67309579D01*
X29833333Y-87454819D02*
X29500000Y-86978628D01*
X29261905Y-87454819D02*
X29261905Y-86454819D01*
X29261905Y-86454819D02*
X29642857Y-86454819D01*
X29642857Y-86454819D02*
X29738095Y-86502438D01*
X29738095Y-86502438D02*
X29785714Y-86550057D01*
X29785714Y-86550057D02*
X29833333Y-86645295D01*
X29833333Y-86645295D02*
X29833333Y-86788152D01*
X29833333Y-86788152D02*
X29785714Y-86883390D01*
X29785714Y-86883390D02*
X29738095Y-86931009D01*
X29738095Y-86931009D02*
X29642857Y-86978628D01*
X29642857Y-86978628D02*
X29261905Y-86978628D01*
X30166667Y-86454819D02*
X30785714Y-86454819D01*
X30785714Y-86454819D02*
X30452381Y-86835771D01*
X30452381Y-86835771D02*
X30595238Y-86835771D01*
X30595238Y-86835771D02*
X30690476Y-86883390D01*
X30690476Y-86883390D02*
X30738095Y-86931009D01*
X30738095Y-86931009D02*
X30785714Y-87026247D01*
X30785714Y-87026247D02*
X30785714Y-87264342D01*
X30785714Y-87264342D02*
X30738095Y-87359580D01*
X30738095Y-87359580D02*
X30690476Y-87407200D01*
X30690476Y-87407200D02*
X30595238Y-87454819D01*
X30595238Y-87454819D02*
X30309524Y-87454819D01*
X30309524Y-87454819D02*
X30214286Y-87407200D01*
X30214286Y-87407200D02*
X30166667Y-87359580D01*
X56954819Y-77166666D02*
X56478628Y-77499999D01*
X56954819Y-77738094D02*
X55954819Y-77738094D01*
X55954819Y-77738094D02*
X55954819Y-77357142D01*
X55954819Y-77357142D02*
X56002438Y-77261904D01*
X56002438Y-77261904D02*
X56050057Y-77214285D01*
X56050057Y-77214285D02*
X56145295Y-77166666D01*
X56145295Y-77166666D02*
X56288152Y-77166666D01*
X56288152Y-77166666D02*
X56383390Y-77214285D01*
X56383390Y-77214285D02*
X56431009Y-77261904D01*
X56431009Y-77261904D02*
X56478628Y-77357142D01*
X56478628Y-77357142D02*
X56478628Y-77738094D01*
X55954819Y-76309523D02*
X55954819Y-76499999D01*
X55954819Y-76499999D02*
X56002438Y-76595237D01*
X56002438Y-76595237D02*
X56050057Y-76642856D01*
X56050057Y-76642856D02*
X56192914Y-76738094D01*
X56192914Y-76738094D02*
X56383390Y-76785713D01*
X56383390Y-76785713D02*
X56764342Y-76785713D01*
X56764342Y-76785713D02*
X56859580Y-76738094D01*
X56859580Y-76738094D02*
X56907200Y-76690475D01*
X56907200Y-76690475D02*
X56954819Y-76595237D01*
X56954819Y-76595237D02*
X56954819Y-76404761D01*
X56954819Y-76404761D02*
X56907200Y-76309523D01*
X56907200Y-76309523D02*
X56859580Y-76261904D01*
X56859580Y-76261904D02*
X56764342Y-76214285D01*
X56764342Y-76214285D02*
X56526247Y-76214285D01*
X56526247Y-76214285D02*
X56431009Y-76261904D01*
X56431009Y-76261904D02*
X56383390Y-76309523D01*
X56383390Y-76309523D02*
X56335771Y-76404761D01*
X56335771Y-76404761D02*
X56335771Y-76595237D01*
X56335771Y-76595237D02*
X56383390Y-76690475D01*
X56383390Y-76690475D02*
X56431009Y-76738094D01*
X56431009Y-76738094D02*
X56526247Y-76785713D01*
X55322080Y-77166666D02*
X55369700Y-77214285D01*
X55369700Y-77214285D02*
X55417319Y-77357142D01*
X55417319Y-77357142D02*
X55417319Y-77452380D01*
X55417319Y-77452380D02*
X55369700Y-77595237D01*
X55369700Y-77595237D02*
X55274461Y-77690475D01*
X55274461Y-77690475D02*
X55179223Y-77738094D01*
X55179223Y-77738094D02*
X54988747Y-77785713D01*
X54988747Y-77785713D02*
X54845890Y-77785713D01*
X54845890Y-77785713D02*
X54655414Y-77738094D01*
X54655414Y-77738094D02*
X54560176Y-77690475D01*
X54560176Y-77690475D02*
X54464938Y-77595237D01*
X54464938Y-77595237D02*
X54417319Y-77452380D01*
X54417319Y-77452380D02*
X54417319Y-77357142D01*
X54417319Y-77357142D02*
X54464938Y-77214285D01*
X54464938Y-77214285D02*
X54512557Y-77166666D01*
X55417319Y-76214285D02*
X55417319Y-76785713D01*
X55417319Y-76499999D02*
X54417319Y-76499999D01*
X54417319Y-76499999D02*
X54560176Y-76595237D01*
X54560176Y-76595237D02*
X54655414Y-76690475D01*
X54655414Y-76690475D02*
X54703033Y-76785713D01*
X70833333Y-74454819D02*
X70500000Y-73978628D01*
X70261905Y-74454819D02*
X70261905Y-73454819D01*
X70261905Y-73454819D02*
X70642857Y-73454819D01*
X70642857Y-73454819D02*
X70738095Y-73502438D01*
X70738095Y-73502438D02*
X70785714Y-73550057D01*
X70785714Y-73550057D02*
X70833333Y-73645295D01*
X70833333Y-73645295D02*
X70833333Y-73788152D01*
X70833333Y-73788152D02*
X70785714Y-73883390D01*
X70785714Y-73883390D02*
X70738095Y-73931009D01*
X70738095Y-73931009D02*
X70642857Y-73978628D01*
X70642857Y-73978628D02*
X70261905Y-73978628D01*
X71738095Y-73454819D02*
X71261905Y-73454819D01*
X71261905Y-73454819D02*
X71214286Y-73931009D01*
X71214286Y-73931009D02*
X71261905Y-73883390D01*
X71261905Y-73883390D02*
X71357143Y-73835771D01*
X71357143Y-73835771D02*
X71595238Y-73835771D01*
X71595238Y-73835771D02*
X71690476Y-73883390D01*
X71690476Y-73883390D02*
X71738095Y-73931009D01*
X71738095Y-73931009D02*
X71785714Y-74026247D01*
X71785714Y-74026247D02*
X71785714Y-74264342D01*
X71785714Y-74264342D02*
X71738095Y-74359580D01*
X71738095Y-74359580D02*
X71690476Y-74407200D01*
X71690476Y-74407200D02*
X71595238Y-74454819D01*
X71595238Y-74454819D02*
X71357143Y-74454819D01*
X71357143Y-74454819D02*
X71261905Y-74407200D01*
X71261905Y-74407200D02*
X71214286Y-74359580D01*
X54195834Y-67309579D02*
X54148215Y-67357199D01*
X54148215Y-67357199D02*
X54005358Y-67404818D01*
X54005358Y-67404818D02*
X53910120Y-67404818D01*
X53910120Y-67404818D02*
X53767263Y-67357199D01*
X53767263Y-67357199D02*
X53672025Y-67261960D01*
X53672025Y-67261960D02*
X53624406Y-67166722D01*
X53624406Y-67166722D02*
X53576787Y-66976246D01*
X53576787Y-66976246D02*
X53576787Y-66833389D01*
X53576787Y-66833389D02*
X53624406Y-66642913D01*
X53624406Y-66642913D02*
X53672025Y-66547675D01*
X53672025Y-66547675D02*
X53767263Y-66452437D01*
X53767263Y-66452437D02*
X53910120Y-66404818D01*
X53910120Y-66404818D02*
X54005358Y-66404818D01*
X54005358Y-66404818D02*
X54148215Y-66452437D01*
X54148215Y-66452437D02*
X54195834Y-66500056D01*
X55052977Y-66738151D02*
X55052977Y-67404818D01*
X54814882Y-66357199D02*
X54576787Y-67071484D01*
X54576787Y-67071484D02*
X55195834Y-67071484D01*
X81954819Y-90261904D02*
X82764342Y-90261904D01*
X82764342Y-90261904D02*
X82859580Y-90214285D01*
X82859580Y-90214285D02*
X82907200Y-90166666D01*
X82907200Y-90166666D02*
X82954819Y-90071428D01*
X82954819Y-90071428D02*
X82954819Y-89880952D01*
X82954819Y-89880952D02*
X82907200Y-89785714D01*
X82907200Y-89785714D02*
X82859580Y-89738095D01*
X82859580Y-89738095D02*
X82764342Y-89690476D01*
X82764342Y-89690476D02*
X81954819Y-89690476D01*
X82954819Y-88690476D02*
X82954819Y-89261904D01*
X82954819Y-88976190D02*
X81954819Y-88976190D01*
X81954819Y-88976190D02*
X82097676Y-89071428D01*
X82097676Y-89071428D02*
X82192914Y-89166666D01*
X82192914Y-89166666D02*
X82240533Y-89261904D01*
X85666666Y-85954819D02*
X85666666Y-86669104D01*
X85666666Y-86669104D02*
X85619047Y-86811961D01*
X85619047Y-86811961D02*
X85523809Y-86907200D01*
X85523809Y-86907200D02*
X85380952Y-86954819D01*
X85380952Y-86954819D02*
X85285714Y-86954819D01*
X86047619Y-85954819D02*
X86666666Y-85954819D01*
X86666666Y-85954819D02*
X86333333Y-86335771D01*
X86333333Y-86335771D02*
X86476190Y-86335771D01*
X86476190Y-86335771D02*
X86571428Y-86383390D01*
X86571428Y-86383390D02*
X86619047Y-86431009D01*
X86619047Y-86431009D02*
X86666666Y-86526247D01*
X86666666Y-86526247D02*
X86666666Y-86764342D01*
X86666666Y-86764342D02*
X86619047Y-86859580D01*
X86619047Y-86859580D02*
X86571428Y-86907200D01*
X86571428Y-86907200D02*
X86476190Y-86954819D01*
X86476190Y-86954819D02*
X86190476Y-86954819D01*
X86190476Y-86954819D02*
X86095238Y-86907200D01*
X86095238Y-86907200D02*
X86047619Y-86859580D01*
X69666666Y-77454819D02*
X69666666Y-78169104D01*
X69666666Y-78169104D02*
X69619047Y-78311961D01*
X69619047Y-78311961D02*
X69523809Y-78407200D01*
X69523809Y-78407200D02*
X69380952Y-78454819D01*
X69380952Y-78454819D02*
X69285714Y-78454819D01*
X70142857Y-78454819D02*
X70142857Y-77454819D01*
X70142857Y-77454819D02*
X70523809Y-77454819D01*
X70523809Y-77454819D02*
X70619047Y-77502438D01*
X70619047Y-77502438D02*
X70666666Y-77550057D01*
X70666666Y-77550057D02*
X70714285Y-77645295D01*
X70714285Y-77645295D02*
X70714285Y-77788152D01*
X70714285Y-77788152D02*
X70666666Y-77883390D01*
X70666666Y-77883390D02*
X70619047Y-77931009D01*
X70619047Y-77931009D02*
X70523809Y-77978628D01*
X70523809Y-77978628D02*
X70142857Y-77978628D01*
X71095238Y-77550057D02*
X71142857Y-77502438D01*
X71142857Y-77502438D02*
X71238095Y-77454819D01*
X71238095Y-77454819D02*
X71476190Y-77454819D01*
X71476190Y-77454819D02*
X71571428Y-77502438D01*
X71571428Y-77502438D02*
X71619047Y-77550057D01*
X71619047Y-77550057D02*
X71666666Y-77645295D01*
X71666666Y-77645295D02*
X71666666Y-77740533D01*
X71666666Y-77740533D02*
X71619047Y-77883390D01*
X71619047Y-77883390D02*
X71047619Y-78454819D01*
X71047619Y-78454819D02*
X71666666Y-78454819D01*
X88359580Y-94666666D02*
X88407200Y-94714285D01*
X88407200Y-94714285D02*
X88454819Y-94857142D01*
X88454819Y-94857142D02*
X88454819Y-94952380D01*
X88454819Y-94952380D02*
X88407200Y-95095237D01*
X88407200Y-95095237D02*
X88311961Y-95190475D01*
X88311961Y-95190475D02*
X88216723Y-95238094D01*
X88216723Y-95238094D02*
X88026247Y-95285713D01*
X88026247Y-95285713D02*
X87883390Y-95285713D01*
X87883390Y-95285713D02*
X87692914Y-95238094D01*
X87692914Y-95238094D02*
X87597676Y-95190475D01*
X87597676Y-95190475D02*
X87502438Y-95095237D01*
X87502438Y-95095237D02*
X87454819Y-94952380D01*
X87454819Y-94952380D02*
X87454819Y-94857142D01*
X87454819Y-94857142D02*
X87502438Y-94714285D01*
X87502438Y-94714285D02*
X87550057Y-94666666D01*
X87550057Y-94285713D02*
X87502438Y-94238094D01*
X87502438Y-94238094D02*
X87454819Y-94142856D01*
X87454819Y-94142856D02*
X87454819Y-93904761D01*
X87454819Y-93904761D02*
X87502438Y-93809523D01*
X87502438Y-93809523D02*
X87550057Y-93761904D01*
X87550057Y-93761904D02*
X87645295Y-93714285D01*
X87645295Y-93714285D02*
X87740533Y-93714285D01*
X87740533Y-93714285D02*
X87883390Y-93761904D01*
X87883390Y-93761904D02*
X88454819Y-94333332D01*
X88454819Y-94333332D02*
X88454819Y-93714285D01*
X87559580Y-66616666D02*
X87607200Y-66664285D01*
X87607200Y-66664285D02*
X87654819Y-66807142D01*
X87654819Y-66807142D02*
X87654819Y-66902380D01*
X87654819Y-66902380D02*
X87607200Y-67045237D01*
X87607200Y-67045237D02*
X87511961Y-67140475D01*
X87511961Y-67140475D02*
X87416723Y-67188094D01*
X87416723Y-67188094D02*
X87226247Y-67235713D01*
X87226247Y-67235713D02*
X87083390Y-67235713D01*
X87083390Y-67235713D02*
X86892914Y-67188094D01*
X86892914Y-67188094D02*
X86797676Y-67140475D01*
X86797676Y-67140475D02*
X86702438Y-67045237D01*
X86702438Y-67045237D02*
X86654819Y-66902380D01*
X86654819Y-66902380D02*
X86654819Y-66807142D01*
X86654819Y-66807142D02*
X86702438Y-66664285D01*
X86702438Y-66664285D02*
X86750057Y-66616666D01*
X87083390Y-66045237D02*
X87035771Y-66140475D01*
X87035771Y-66140475D02*
X86988152Y-66188094D01*
X86988152Y-66188094D02*
X86892914Y-66235713D01*
X86892914Y-66235713D02*
X86845295Y-66235713D01*
X86845295Y-66235713D02*
X86750057Y-66188094D01*
X86750057Y-66188094D02*
X86702438Y-66140475D01*
X86702438Y-66140475D02*
X86654819Y-66045237D01*
X86654819Y-66045237D02*
X86654819Y-65854761D01*
X86654819Y-65854761D02*
X86702438Y-65759523D01*
X86702438Y-65759523D02*
X86750057Y-65711904D01*
X86750057Y-65711904D02*
X86845295Y-65664285D01*
X86845295Y-65664285D02*
X86892914Y-65664285D01*
X86892914Y-65664285D02*
X86988152Y-65711904D01*
X86988152Y-65711904D02*
X87035771Y-65759523D01*
X87035771Y-65759523D02*
X87083390Y-65854761D01*
X87083390Y-65854761D02*
X87083390Y-66045237D01*
X87083390Y-66045237D02*
X87131009Y-66140475D01*
X87131009Y-66140475D02*
X87178628Y-66188094D01*
X87178628Y-66188094D02*
X87273866Y-66235713D01*
X87273866Y-66235713D02*
X87464342Y-66235713D01*
X87464342Y-66235713D02*
X87559580Y-66188094D01*
X87559580Y-66188094D02*
X87607200Y-66140475D01*
X87607200Y-66140475D02*
X87654819Y-66045237D01*
X87654819Y-66045237D02*
X87654819Y-65854761D01*
X87654819Y-65854761D02*
X87607200Y-65759523D01*
X87607200Y-65759523D02*
X87559580Y-65711904D01*
X87559580Y-65711904D02*
X87464342Y-65664285D01*
X87464342Y-65664285D02*
X87273866Y-65664285D01*
X87273866Y-65664285D02*
X87178628Y-65711904D01*
X87178628Y-65711904D02*
X87131009Y-65759523D01*
X87131009Y-65759523D02*
X87083390Y-65854761D01*
X50326246Y-86666666D02*
X50373866Y-86714285D01*
X50373866Y-86714285D02*
X50421485Y-86857142D01*
X50421485Y-86857142D02*
X50421485Y-86952380D01*
X50421485Y-86952380D02*
X50373866Y-87095237D01*
X50373866Y-87095237D02*
X50278627Y-87190475D01*
X50278627Y-87190475D02*
X50183389Y-87238094D01*
X50183389Y-87238094D02*
X49992913Y-87285713D01*
X49992913Y-87285713D02*
X49850056Y-87285713D01*
X49850056Y-87285713D02*
X49659580Y-87238094D01*
X49659580Y-87238094D02*
X49564342Y-87190475D01*
X49564342Y-87190475D02*
X49469104Y-87095237D01*
X49469104Y-87095237D02*
X49421485Y-86952380D01*
X49421485Y-86952380D02*
X49421485Y-86857142D01*
X49421485Y-86857142D02*
X49469104Y-86714285D01*
X49469104Y-86714285D02*
X49516723Y-86666666D01*
X49421485Y-86333332D02*
X49421485Y-85714285D01*
X49421485Y-85714285D02*
X49802437Y-86047618D01*
X49802437Y-86047618D02*
X49802437Y-85904761D01*
X49802437Y-85904761D02*
X49850056Y-85809523D01*
X49850056Y-85809523D02*
X49897675Y-85761904D01*
X49897675Y-85761904D02*
X49992913Y-85714285D01*
X49992913Y-85714285D02*
X50231008Y-85714285D01*
X50231008Y-85714285D02*
X50326246Y-85761904D01*
X50326246Y-85761904D02*
X50373866Y-85809523D01*
X50373866Y-85809523D02*
X50421485Y-85904761D01*
X50421485Y-85904761D02*
X50421485Y-86190475D01*
X50421485Y-86190475D02*
X50373866Y-86285713D01*
X50373866Y-86285713D02*
X50326246Y-86333332D01*
X85359580Y-94642857D02*
X85407200Y-94690476D01*
X85407200Y-94690476D02*
X85454819Y-94833333D01*
X85454819Y-94833333D02*
X85454819Y-94928571D01*
X85454819Y-94928571D02*
X85407200Y-95071428D01*
X85407200Y-95071428D02*
X85311961Y-95166666D01*
X85311961Y-95166666D02*
X85216723Y-95214285D01*
X85216723Y-95214285D02*
X85026247Y-95261904D01*
X85026247Y-95261904D02*
X84883390Y-95261904D01*
X84883390Y-95261904D02*
X84692914Y-95214285D01*
X84692914Y-95214285D02*
X84597676Y-95166666D01*
X84597676Y-95166666D02*
X84502438Y-95071428D01*
X84502438Y-95071428D02*
X84454819Y-94928571D01*
X84454819Y-94928571D02*
X84454819Y-94833333D01*
X84454819Y-94833333D02*
X84502438Y-94690476D01*
X84502438Y-94690476D02*
X84550057Y-94642857D01*
X85454819Y-93690476D02*
X85454819Y-94261904D01*
X85454819Y-93976190D02*
X84454819Y-93976190D01*
X84454819Y-93976190D02*
X84597676Y-94071428D01*
X84597676Y-94071428D02*
X84692914Y-94166666D01*
X84692914Y-94166666D02*
X84740533Y-94261904D01*
X84788152Y-92833333D02*
X85454819Y-92833333D01*
X84407200Y-93071428D02*
X85121485Y-93309523D01*
X85121485Y-93309523D02*
X85121485Y-92690476D01*
X64220820Y-78178095D02*
X63220820Y-78178095D01*
X63220820Y-78178095D02*
X63220820Y-77940000D01*
X63220820Y-77940000D02*
X63268439Y-77797143D01*
X63268439Y-77797143D02*
X63363677Y-77701905D01*
X63363677Y-77701905D02*
X63458915Y-77654286D01*
X63458915Y-77654286D02*
X63649391Y-77606667D01*
X63649391Y-77606667D02*
X63792248Y-77606667D01*
X63792248Y-77606667D02*
X63982724Y-77654286D01*
X63982724Y-77654286D02*
X64077962Y-77701905D01*
X64077962Y-77701905D02*
X64173201Y-77797143D01*
X64173201Y-77797143D02*
X64220820Y-77940000D01*
X64220820Y-77940000D02*
X64220820Y-78178095D01*
X64220820Y-76654286D02*
X64220820Y-77225714D01*
X64220820Y-76940000D02*
X63220820Y-76940000D01*
X63220820Y-76940000D02*
X63363677Y-77035238D01*
X63363677Y-77035238D02*
X63458915Y-77130476D01*
X63458915Y-77130476D02*
X63506534Y-77225714D01*
X47666667Y-92907200D02*
X47809524Y-92954819D01*
X47809524Y-92954819D02*
X48047619Y-92954819D01*
X48047619Y-92954819D02*
X48142857Y-92907200D01*
X48142857Y-92907200D02*
X48190476Y-92859580D01*
X48190476Y-92859580D02*
X48238095Y-92764342D01*
X48238095Y-92764342D02*
X48238095Y-92669104D01*
X48238095Y-92669104D02*
X48190476Y-92573866D01*
X48190476Y-92573866D02*
X48142857Y-92526247D01*
X48142857Y-92526247D02*
X48047619Y-92478628D01*
X48047619Y-92478628D02*
X47857143Y-92431009D01*
X47857143Y-92431009D02*
X47761905Y-92383390D01*
X47761905Y-92383390D02*
X47714286Y-92335771D01*
X47714286Y-92335771D02*
X47666667Y-92240533D01*
X47666667Y-92240533D02*
X47666667Y-92145295D01*
X47666667Y-92145295D02*
X47714286Y-92050057D01*
X47714286Y-92050057D02*
X47761905Y-92002438D01*
X47761905Y-92002438D02*
X47857143Y-91954819D01*
X47857143Y-91954819D02*
X48095238Y-91954819D01*
X48095238Y-91954819D02*
X48238095Y-92002438D01*
X48571429Y-91954819D02*
X48809524Y-92954819D01*
X48809524Y-92954819D02*
X49000000Y-92240533D01*
X49000000Y-92240533D02*
X49190476Y-92954819D01*
X49190476Y-92954819D02*
X49428572Y-91954819D01*
X50333333Y-92954819D02*
X49761905Y-92954819D01*
X50047619Y-92954819D02*
X50047619Y-91954819D01*
X50047619Y-91954819D02*
X49952381Y-92097676D01*
X49952381Y-92097676D02*
X49857143Y-92192914D01*
X49857143Y-92192914D02*
X49761905Y-92240533D01*
X95738095Y-66454819D02*
X95738095Y-67264342D01*
X95738095Y-67264342D02*
X95785714Y-67359580D01*
X95785714Y-67359580D02*
X95833333Y-67407200D01*
X95833333Y-67407200D02*
X95928571Y-67454819D01*
X95928571Y-67454819D02*
X96119047Y-67454819D01*
X96119047Y-67454819D02*
X96214285Y-67407200D01*
X96214285Y-67407200D02*
X96261904Y-67359580D01*
X96261904Y-67359580D02*
X96309523Y-67264342D01*
X96309523Y-67264342D02*
X96309523Y-66454819D01*
X96738095Y-66550057D02*
X96785714Y-66502438D01*
X96785714Y-66502438D02*
X96880952Y-66454819D01*
X96880952Y-66454819D02*
X97119047Y-66454819D01*
X97119047Y-66454819D02*
X97214285Y-66502438D01*
X97214285Y-66502438D02*
X97261904Y-66550057D01*
X97261904Y-66550057D02*
X97309523Y-66645295D01*
X97309523Y-66645295D02*
X97309523Y-66740533D01*
X97309523Y-66740533D02*
X97261904Y-66883390D01*
X97261904Y-66883390D02*
X96690476Y-67454819D01*
X96690476Y-67454819D02*
X97309523Y-67454819D01*
X70833333Y-70359580D02*
X70785714Y-70407200D01*
X70785714Y-70407200D02*
X70642857Y-70454819D01*
X70642857Y-70454819D02*
X70547619Y-70454819D01*
X70547619Y-70454819D02*
X70404762Y-70407200D01*
X70404762Y-70407200D02*
X70309524Y-70311961D01*
X70309524Y-70311961D02*
X70261905Y-70216723D01*
X70261905Y-70216723D02*
X70214286Y-70026247D01*
X70214286Y-70026247D02*
X70214286Y-69883390D01*
X70214286Y-69883390D02*
X70261905Y-69692914D01*
X70261905Y-69692914D02*
X70309524Y-69597676D01*
X70309524Y-69597676D02*
X70404762Y-69502438D01*
X70404762Y-69502438D02*
X70547619Y-69454819D01*
X70547619Y-69454819D02*
X70642857Y-69454819D01*
X70642857Y-69454819D02*
X70785714Y-69502438D01*
X70785714Y-69502438D02*
X70833333Y-69550057D01*
X71690476Y-69454819D02*
X71500000Y-69454819D01*
X71500000Y-69454819D02*
X71404762Y-69502438D01*
X71404762Y-69502438D02*
X71357143Y-69550057D01*
X71357143Y-69550057D02*
X71261905Y-69692914D01*
X71261905Y-69692914D02*
X71214286Y-69883390D01*
X71214286Y-69883390D02*
X71214286Y-70264342D01*
X71214286Y-70264342D02*
X71261905Y-70359580D01*
X71261905Y-70359580D02*
X71309524Y-70407200D01*
X71309524Y-70407200D02*
X71404762Y-70454819D01*
X71404762Y-70454819D02*
X71595238Y-70454819D01*
X71595238Y-70454819D02*
X71690476Y-70407200D01*
X71690476Y-70407200D02*
X71738095Y-70359580D01*
X71738095Y-70359580D02*
X71785714Y-70264342D01*
X71785714Y-70264342D02*
X71785714Y-70026247D01*
X71785714Y-70026247D02*
X71738095Y-69931009D01*
X71738095Y-69931009D02*
X71690476Y-69883390D01*
X71690476Y-69883390D02*
X71595238Y-69835771D01*
X71595238Y-69835771D02*
X71404762Y-69835771D01*
X71404762Y-69835771D02*
X71309524Y-69883390D01*
X71309524Y-69883390D02*
X71261905Y-69931009D01*
X71261905Y-69931009D02*
X71214286Y-70026247D01*
X89166666Y-79454819D02*
X89166666Y-80169104D01*
X89166666Y-80169104D02*
X89119047Y-80311961D01*
X89119047Y-80311961D02*
X89023809Y-80407200D01*
X89023809Y-80407200D02*
X88880952Y-80454819D01*
X88880952Y-80454819D02*
X88785714Y-80454819D01*
X90166666Y-80454819D02*
X89595238Y-80454819D01*
X89880952Y-80454819D02*
X89880952Y-79454819D01*
X89880952Y-79454819D02*
X89785714Y-79597676D01*
X89785714Y-79597676D02*
X89690476Y-79692914D01*
X89690476Y-79692914D02*
X89595238Y-79740533D01*
X86859580Y-94642857D02*
X86907200Y-94690476D01*
X86907200Y-94690476D02*
X86954819Y-94833333D01*
X86954819Y-94833333D02*
X86954819Y-94928571D01*
X86954819Y-94928571D02*
X86907200Y-95071428D01*
X86907200Y-95071428D02*
X86811961Y-95166666D01*
X86811961Y-95166666D02*
X86716723Y-95214285D01*
X86716723Y-95214285D02*
X86526247Y-95261904D01*
X86526247Y-95261904D02*
X86383390Y-95261904D01*
X86383390Y-95261904D02*
X86192914Y-95214285D01*
X86192914Y-95214285D02*
X86097676Y-95166666D01*
X86097676Y-95166666D02*
X86002438Y-95071428D01*
X86002438Y-95071428D02*
X85954819Y-94928571D01*
X85954819Y-94928571D02*
X85954819Y-94833333D01*
X85954819Y-94833333D02*
X86002438Y-94690476D01*
X86002438Y-94690476D02*
X86050057Y-94642857D01*
X86954819Y-93690476D02*
X86954819Y-94261904D01*
X86954819Y-93976190D02*
X85954819Y-93976190D01*
X85954819Y-93976190D02*
X86097676Y-94071428D01*
X86097676Y-94071428D02*
X86192914Y-94166666D01*
X86192914Y-94166666D02*
X86240533Y-94261904D01*
X85954819Y-92785714D02*
X85954819Y-93261904D01*
X85954819Y-93261904D02*
X86431009Y-93309523D01*
X86431009Y-93309523D02*
X86383390Y-93261904D01*
X86383390Y-93261904D02*
X86335771Y-93166666D01*
X86335771Y-93166666D02*
X86335771Y-92928571D01*
X86335771Y-92928571D02*
X86383390Y-92833333D01*
X86383390Y-92833333D02*
X86431009Y-92785714D01*
X86431009Y-92785714D02*
X86526247Y-92738095D01*
X86526247Y-92738095D02*
X86764342Y-92738095D01*
X86764342Y-92738095D02*
X86859580Y-92785714D01*
X86859580Y-92785714D02*
X86907200Y-92833333D01*
X86907200Y-92833333D02*
X86954819Y-92928571D01*
X86954819Y-92928571D02*
X86954819Y-93166666D01*
X86954819Y-93166666D02*
X86907200Y-93261904D01*
X86907200Y-93261904D02*
X86859580Y-93309523D01*
D16*
%TO.C,BT1*%
X113640000Y-65440000D02*
X113640000Y-58440000D01*
X36360000Y-44560000D02*
X113640000Y-44560000D01*
X117500000Y-59750000D02*
X117500000Y-62250000D01*
X36360000Y-65440000D02*
X113640000Y-65440000D01*
X113640000Y-58440000D02*
X118000000Y-58440000D01*
X113640000Y-44560000D02*
X113640000Y-51560000D01*
X31250000Y-61000000D02*
X33750000Y-61000000D01*
X118750000Y-61000000D02*
X116250000Y-61000000D01*
X36360000Y-58440000D02*
X36360000Y-65420000D01*
X36360000Y-51560000D02*
X36360000Y-44560000D01*
D13*
%TO.C,U5*%
X53100000Y-83100000D02*
G75*
G02*
X51700000Y-81700000I0J1400000D01*
G01*
X51700000Y-71300000D02*
G75*
G02*
X53100000Y-69900000I1400000J0D01*
G01*
X53100000Y-85100000D02*
X53100000Y-83100000D01*
X53100000Y-67900000D02*
X53100000Y-69900000D01*
X53100000Y-67900000D02*
X25100000Y-67900000D01*
X51700000Y-81700000D02*
X51700000Y-71300000D01*
X25100000Y-85100000D02*
X53100000Y-85100000D01*
X25100000Y-81300000D02*
X25100000Y-85100000D01*
X25100000Y-71700000D02*
X23900000Y-71700000D01*
X25100000Y-67900000D02*
X25100000Y-71700000D01*
X23900000Y-81300000D02*
X25100000Y-81300000D01*
X23900000Y-71700000D02*
X23900000Y-81300000D01*
D16*
%TO.C,JP5*%
X74200000Y-67600000D02*
X74800000Y-67600000D01*
X75500000Y-68300000D02*
X75500000Y-69700000D01*
X73500000Y-69700000D02*
X73500000Y-68300000D01*
X74800000Y-70400000D02*
X74200000Y-70400000D01*
X74800000Y-67600000D02*
G75*
G02*
X75500000Y-68300000I1J-699999D01*
G01*
X73500000Y-68300000D02*
G75*
G02*
X74200000Y-67600000I699999J1D01*
G01*
X75500000Y-69700000D02*
G75*
G02*
X74800000Y-70400000I-700000J0D01*
G01*
X74200000Y-70400000D02*
G75*
G02*
X73500000Y-69700000I0J700000D01*
G01*
%TO.C,JP4*%
X68100000Y-91300000D02*
X68100000Y-90700000D01*
X68800000Y-90000000D02*
X70200000Y-90000000D01*
X70200000Y-92000000D02*
X68800000Y-92000000D01*
X70900000Y-90700000D02*
X70900000Y-91300000D01*
X68100000Y-90700000D02*
G75*
G02*
X68800000Y-90000000I699999J1D01*
G01*
X68800000Y-92000000D02*
G75*
G02*
X68100000Y-91300000I-1J699999D01*
G01*
X70200000Y-90000000D02*
G75*
G02*
X70900000Y-90700000I0J-700000D01*
G01*
X70900000Y-91300000D02*
G75*
G02*
X70200000Y-92000000I-700000J0D01*
G01*
%TO.C,JP3*%
X85400000Y-68450000D02*
X85400000Y-69050000D01*
X84700000Y-69750000D02*
X83300000Y-69750000D01*
X83300000Y-67750000D02*
X84700000Y-67750000D01*
X82600000Y-69050000D02*
X82600000Y-68450000D01*
X85400000Y-69050000D02*
G75*
G02*
X84700000Y-69750000I-699999J-1D01*
G01*
X84700000Y-67750000D02*
G75*
G02*
X85400000Y-68450000I1J-699999D01*
G01*
X83300000Y-69750000D02*
G75*
G02*
X82600000Y-69050000I0J700000D01*
G01*
X82600000Y-68450000D02*
G75*
G02*
X83300000Y-67750000I700000J0D01*
G01*
%TO.C,C12*%
X91510000Y-69353733D02*
X91510000Y-69646267D01*
X90490000Y-69353733D02*
X90490000Y-69646267D01*
%TO.C,C9*%
X81755000Y-93738748D02*
X81755000Y-94261252D01*
X83225000Y-93738748D02*
X83225000Y-94261252D01*
%TO.C,U4*%
X59500000Y-72060000D02*
X60300000Y-72060000D01*
X59500000Y-72060000D02*
X58700000Y-72060000D01*
X59500000Y-68940000D02*
X60300000Y-68940000D01*
X59500000Y-68940000D02*
X58700000Y-68940000D01*
X58200000Y-68990000D02*
X57960000Y-68660000D01*
X58440000Y-68660000D01*
X58200000Y-68990000D01*
G36*
X58200000Y-68990000D02*
G01*
X57960000Y-68660000D01*
X58440000Y-68660000D01*
X58200000Y-68990000D01*
G37*
%TO.C,U3*%
X79487500Y-71340000D02*
X75627500Y-71340000D01*
X75627500Y-71340000D02*
X75627500Y-71575000D01*
X79487500Y-71340000D02*
X83347500Y-71340000D01*
X83347500Y-71340000D02*
X83347500Y-71575000D01*
X79487500Y-84360000D02*
X75627500Y-84360000D01*
X75627500Y-84360000D02*
X75627500Y-84125000D01*
X79487500Y-84360000D02*
X83347500Y-84360000D01*
X83347500Y-84360000D02*
X83347500Y-84125000D01*
X84540000Y-84595000D02*
X83860000Y-84595000D01*
X84200000Y-84125000D01*
X84540000Y-84595000D01*
G36*
X84540000Y-84595000D02*
G01*
X83860000Y-84595000D01*
X84200000Y-84125000D01*
X84540000Y-84595000D01*
G37*
%TO.C,R8*%
X68254724Y-74977500D02*
X67745276Y-74977500D01*
X68254724Y-76022500D02*
X67745276Y-76022500D01*
%TO.C,R4*%
X58522500Y-73745276D02*
X58522500Y-74254724D01*
X57477500Y-73745276D02*
X57477500Y-74254724D01*
%TO.C,C13*%
X78353733Y-69490000D02*
X78646267Y-69490000D01*
X78353733Y-70510000D02*
X78646267Y-70510000D01*
%TO.C,R7*%
X49022500Y-89245276D02*
X49022500Y-89754724D01*
X47977500Y-89245276D02*
X47977500Y-89754724D01*
%TO.C,J2*%
X65214000Y-80055000D02*
X65849000Y-80055000D01*
X65214000Y-80690000D02*
X65214000Y-80055000D01*
%TO.C,R2*%
X69745276Y-86477500D02*
X70254724Y-86477500D01*
X69745276Y-87522500D02*
X70254724Y-87522500D01*
%TO.C,FB1*%
X73089758Y-91560000D02*
X73910242Y-91560000D01*
X73089758Y-90440000D02*
X73910242Y-90440000D01*
%TO.C,C7*%
X89985000Y-69238748D02*
X89985000Y-69761252D01*
X88515000Y-69238748D02*
X88515000Y-69761252D01*
%TO.C,R1*%
X69745276Y-87977500D02*
X70254724Y-87977500D01*
X69745276Y-89022500D02*
X70254724Y-89022500D01*
%TO.C,JP1*%
X69100000Y-84800000D02*
X69100000Y-84200000D01*
X69800000Y-83500000D02*
X71200000Y-83500000D01*
X71200000Y-85500000D02*
X69800000Y-85500000D01*
X71900000Y-84200000D02*
X71900000Y-84800000D01*
X69100000Y-84200000D02*
G75*
G02*
X69800000Y-83500000I699999J1D01*
G01*
X69800000Y-85500000D02*
G75*
G02*
X69100000Y-84800000I-1J699999D01*
G01*
X71200000Y-83500000D02*
G75*
G02*
X71900000Y-84200000I0J-700000D01*
G01*
X71900000Y-84800000D02*
G75*
G02*
X71200000Y-85500000I-700000J0D01*
G01*
%TO.C,C10*%
X63010000Y-69078733D02*
X63010000Y-69371267D01*
X61990000Y-69078733D02*
X61990000Y-69371267D01*
%TO.C,C11*%
X79980000Y-94353733D02*
X79980000Y-94646267D01*
X81000000Y-94353733D02*
X81000000Y-94646267D01*
%TO.C,C5*%
X57010000Y-69478733D02*
X57010000Y-69771267D01*
X55990000Y-69478733D02*
X55990000Y-69771267D01*
%TO.C,R3*%
X32745276Y-86477500D02*
X33254724Y-86477500D01*
X32745276Y-87522500D02*
X33254724Y-87522500D01*
%TO.C,R6*%
X55977500Y-74254724D02*
X55977500Y-73745276D01*
X57022500Y-74254724D02*
X57022500Y-73745276D01*
%TO.C,C1*%
X54490000Y-74146267D02*
X54490000Y-73853733D01*
X55510000Y-74146267D02*
X55510000Y-73853733D01*
%TO.C,R5*%
X68254724Y-74522500D02*
X67745276Y-74522500D01*
X68254724Y-73477500D02*
X67745276Y-73477500D01*
%TO.C,C4*%
X55235000Y-69363748D02*
X55235000Y-69886252D01*
X53765000Y-69363748D02*
X53765000Y-69886252D01*
%TO.C,U1*%
X76335000Y-92880000D02*
X75855000Y-92400000D01*
X76335000Y-92400000D01*
X76335000Y-92880000D01*
G36*
X76335000Y-92880000D02*
G01*
X75855000Y-92400000D01*
X76335000Y-92400000D01*
X76335000Y-92880000D01*
G37*
X81225000Y-92000000D02*
X81225000Y-89000000D01*
X76005000Y-92000000D02*
X76005000Y-89000000D01*
%TO.C,J3*%
X82030000Y-85170000D02*
X74350000Y-85170000D01*
X84630000Y-85170000D02*
X84630000Y-86500000D01*
X82030000Y-85170000D02*
X82030000Y-87830000D01*
X74350000Y-85170000D02*
X74350000Y-87830000D01*
X83300000Y-85170000D02*
X84630000Y-85170000D01*
X82030000Y-87830000D02*
X74350000Y-87830000D01*
%TO.C,JP2*%
X69100000Y-80250000D02*
X69100000Y-79650000D01*
X69800000Y-78950000D02*
X71200000Y-78950000D01*
X71200000Y-80950000D02*
X69800000Y-80950000D01*
X71900000Y-79650000D02*
X71900000Y-80250000D01*
X69100000Y-79650000D02*
G75*
G02*
X69800000Y-78950000I699999J1D01*
G01*
X69800000Y-80950000D02*
G75*
G02*
X69100000Y-80250000I-1J699999D01*
G01*
X71200000Y-78950000D02*
G75*
G02*
X71900000Y-79650000I0J-700000D01*
G01*
X71900000Y-80250000D02*
G75*
G02*
X71200000Y-80950000I-700000J0D01*
G01*
%TO.C,C2*%
X77480000Y-94353733D02*
X77480000Y-94646267D01*
X78500000Y-94353733D02*
X78500000Y-94646267D01*
%TO.C,C8*%
X87985000Y-69238748D02*
X87985000Y-69761252D01*
X86515000Y-69238748D02*
X86515000Y-69761252D01*
%TO.C,C3*%
X50510000Y-89353733D02*
X50510000Y-89646267D01*
X49490000Y-89353733D02*
X49490000Y-89646267D01*
%TO.C,C14*%
X73765000Y-93738748D02*
X73765000Y-94261252D01*
X75235000Y-93738748D02*
X75235000Y-94261252D01*
%TO.C,D1*%
X65666000Y-76190000D02*
X61766000Y-76190000D01*
X65666000Y-75390000D02*
X65666000Y-76190000D01*
X65666000Y-73190000D02*
X61766000Y-73190000D01*
D15*
%TO.C,SW1*%
X38160000Y-85603743D02*
X42940000Y-85603743D01*
X42940000Y-85603743D02*
G75*
G02*
X38153157Y-85606648I-2390000J-5640000D01*
G01*
D16*
%TO.C,U2*%
X92110500Y-67775000D02*
X92110500Y-67775000D01*
X92110500Y-67775000D02*
X121310500Y-67775000D01*
X92110500Y-83225000D02*
X92110500Y-67775000D01*
X92440500Y-68351000D02*
X92440500Y-68351000D01*
X92440500Y-68351000D02*
X97774500Y-68351000D01*
X92440500Y-79019000D02*
X92440500Y-68351000D01*
X92440500Y-79019000D02*
X92440500Y-79019000D01*
X97774500Y-68351000D02*
X97774500Y-79019000D01*
X97774500Y-79019000D02*
X92440500Y-79019000D01*
X121310500Y-67775000D02*
X121310500Y-83225000D01*
X121310500Y-83225000D02*
X92110500Y-83225000D01*
X91910500Y-69875000D02*
X91574500Y-70115000D01*
X91574500Y-69635000D01*
X91910500Y-69875000D01*
G36*
X91910500Y-69875000D02*
G01*
X91574500Y-70115000D01*
X91574500Y-69635000D01*
X91910500Y-69875000D01*
G37*
%TO.C,C6*%
X71261252Y-72735000D02*
X70738748Y-72735000D01*
X71261252Y-71265000D02*
X70738748Y-71265000D01*
%TO.C,J1*%
X90830000Y-81115000D02*
X88170000Y-81115000D01*
X90830000Y-86255000D02*
X90830000Y-81115000D01*
X90830000Y-87525000D02*
X90830000Y-88855000D01*
X88170000Y-86255000D02*
X88170000Y-81115000D01*
X90830000Y-88855000D02*
X89500000Y-88855000D01*
X90830000Y-86255000D02*
X88170000Y-86255000D01*
%TO.C,C15*%
X75990000Y-94353733D02*
X75990000Y-94646267D01*
X77010000Y-94353733D02*
X77010000Y-94646267D01*
%TD*%
M02*
