M48
; DRILL file {KiCad 8.0.5-unknown-202409181836~355805756e~ubuntu24.04.1} date 2024-09-22T17:28:26+0200
; FORMAT={-:-/ absolute / metric / decimal}
; #@! TF.CreationDate,2024-09-22T17:28:26+02:00
; #@! TF.GenerationSoftware,Kicad,Pcbnew,8.0.5-unknown-202409181836~355805756e~ubuntu24.04.1
; #@! TF.FileFunction,MixedPlating,1,2
FMAT,2
METRIC
; #@! TA.AperFunction,Plated,PTH,ViaDrill
T1C0.400
; #@! TA.AperFunction,Plated,PTH,ComponentDrill
T2C0.500
; #@! TA.AperFunction,Plated,PTH,ComponentDrill
T3C0.800
; #@! TA.AperFunction,Plated,PTH,ComponentDrill
T4C1.000
; #@! TA.AperFunction,Plated,PTH,ComponentDrill
T5C1.100
; #@! TA.AperFunction,Plated,PTH,ComponentDrill
T6C3.200
; #@! TA.AperFunction,NonPlated,NPTH,ComponentDrill
T7C0.991
; #@! TA.AperFunction,NonPlated,NPTH,ComponentDrill
T8C2.390
; #@! TA.AperFunction,NonPlated,NPTH,ComponentDrill
T9C3.450
%
G90
G05
T1
X56.5Y-72.0
X57.5Y-68.763
X58.362Y-72.5
X59.5Y-70.5
X60.5Y-78.5
X60.637Y-68.362
X62.466Y-71.5
X62.466Y-73.0
X64.0Y-80.0
X64.04Y-81.96
X66.862Y-88.638
X68.5Y-72.0
X70.5Y-77.0
X71.5Y-91.0
X73.0Y-95.037
X77.5Y-76.0
X77.5Y-82.5
X79.5Y-83.5
X80.5Y-72.0
X82.5Y-91.0
X83.75Y-94.75
X86.144Y-71.644
T2
X27.6Y-47.5
X27.6Y-92.5
X28.303Y-45.803
X28.303Y-49.197
X28.303Y-90.803
X28.303Y-94.197
X30.0Y-45.1
X30.0Y-49.9
X30.0Y-90.1
X30.0Y-94.9
X31.697Y-45.803
X31.697Y-49.197
X31.697Y-90.803
X31.697Y-94.197
X32.4Y-47.5
X32.4Y-92.5
X117.6Y-47.5
X117.6Y-92.5
X118.303Y-45.803
X118.303Y-49.197
X118.303Y-90.803
X118.303Y-94.197
X120.0Y-45.1
X120.0Y-49.9
X120.0Y-90.1
X120.0Y-94.9
X121.697Y-45.803
X121.697Y-49.197
X121.697Y-90.803
X121.697Y-94.197
X122.4Y-47.5
X122.4Y-92.5
T3
X26.9Y-69.3
X26.9Y-83.3
X49.9Y-69.3
X49.9Y-71.9
X49.9Y-80.7
X49.9Y-83.3
T4
X75.68Y-86.5
X78.22Y-86.5
X80.76Y-86.5
X83.3Y-86.5
X89.5Y-82.445
X89.5Y-84.985
X89.5Y-87.525
X93.71Y-69.875
X93.71Y-72.415
X93.71Y-74.955
X93.71Y-77.495
X96.251Y-69.875
X96.251Y-72.415
X96.251Y-74.955
X96.251Y-77.495
T5
X38.05Y-88.744
X38.05Y-93.744
X43.05Y-88.744
X43.05Y-93.744
T6
X30.0Y-47.5
X30.0Y-92.5
X120.0Y-47.5
X120.0Y-92.5
T7
X65.468Y-84.5
X66.484Y-79.42
X67.5Y-84.5
T8
X110.93Y-63.0
T9
X47.4Y-63.0
X102.6Y-47.0
M30
