%TF.GenerationSoftware,KiCad,Pcbnew,8.0.8-unknown-202501170223~559b1827ca~ubuntu24.04.1*%
%TF.CreationDate,2025-02-15T19:36:13+01:00*%
%TF.ProjectId,horse_feeder,686f7273-655f-4666-9565-6465722e6b69,rev?*%
%TF.SameCoordinates,Original*%
%TF.FileFunction,Legend,Top*%
%TF.FilePolarity,Positive*%
%FSLAX46Y46*%
G04 Gerber Fmt 4.6, Leading zero omitted, Abs format (unit mm)*
G04 Created by KiCad (PCBNEW 8.0.8-unknown-202501170223~559b1827ca~ubuntu24.04.1) date 2025-02-15 19:36:13*
%MOMM*%
%LPD*%
G01*
G04 APERTURE LIST*
%ADD10C,0.150000*%
%ADD11C,0.600000*%
%ADD12C,0.300000*%
%ADD13C,0.120000*%
%ADD14C,0.250000*%
%ADD15C,0.100000*%
G04 APERTURE END LIST*
D10*
X128039819Y-60857142D02*
X127039819Y-60857142D01*
X127039819Y-60857142D02*
X127754104Y-60523809D01*
X127754104Y-60523809D02*
X127039819Y-60190476D01*
X127039819Y-60190476D02*
X128039819Y-60190476D01*
X127944580Y-59142857D02*
X127992200Y-59190476D01*
X127992200Y-59190476D02*
X128039819Y-59333333D01*
X128039819Y-59333333D02*
X128039819Y-59428571D01*
X128039819Y-59428571D02*
X127992200Y-59571428D01*
X127992200Y-59571428D02*
X127896961Y-59666666D01*
X127896961Y-59666666D02*
X127801723Y-59714285D01*
X127801723Y-59714285D02*
X127611247Y-59761904D01*
X127611247Y-59761904D02*
X127468390Y-59761904D01*
X127468390Y-59761904D02*
X127277914Y-59714285D01*
X127277914Y-59714285D02*
X127182676Y-59666666D01*
X127182676Y-59666666D02*
X127087438Y-59571428D01*
X127087438Y-59571428D02*
X127039819Y-59428571D01*
X127039819Y-59428571D02*
X127039819Y-59333333D01*
X127039819Y-59333333D02*
X127087438Y-59190476D01*
X127087438Y-59190476D02*
X127135057Y-59142857D01*
X127039819Y-58714285D02*
X127849342Y-58714285D01*
X127849342Y-58714285D02*
X127944580Y-58666666D01*
X127944580Y-58666666D02*
X127992200Y-58619047D01*
X127992200Y-58619047D02*
X128039819Y-58523809D01*
X128039819Y-58523809D02*
X128039819Y-58333333D01*
X128039819Y-58333333D02*
X127992200Y-58238095D01*
X127992200Y-58238095D02*
X127944580Y-58190476D01*
X127944580Y-58190476D02*
X127849342Y-58142857D01*
X127849342Y-58142857D02*
X127039819Y-58142857D01*
X189602312Y-62170112D02*
X189649931Y-62027255D01*
X189649931Y-62027255D02*
X189649931Y-61789160D01*
X189649931Y-61789160D02*
X189602312Y-61693922D01*
X189602312Y-61693922D02*
X189554692Y-61646303D01*
X189554692Y-61646303D02*
X189459454Y-61598684D01*
X189459454Y-61598684D02*
X189364216Y-61598684D01*
X189364216Y-61598684D02*
X189268978Y-61646303D01*
X189268978Y-61646303D02*
X189221359Y-61693922D01*
X189221359Y-61693922D02*
X189173740Y-61789160D01*
X189173740Y-61789160D02*
X189126121Y-61979636D01*
X189126121Y-61979636D02*
X189078502Y-62074874D01*
X189078502Y-62074874D02*
X189030883Y-62122493D01*
X189030883Y-62122493D02*
X188935645Y-62170112D01*
X188935645Y-62170112D02*
X188840407Y-62170112D01*
X188840407Y-62170112D02*
X188745169Y-62122493D01*
X188745169Y-62122493D02*
X188697550Y-62074874D01*
X188697550Y-62074874D02*
X188649931Y-61979636D01*
X188649931Y-61979636D02*
X188649931Y-61741541D01*
X188649931Y-61741541D02*
X188697550Y-61598684D01*
X189554692Y-60598684D02*
X189602312Y-60646303D01*
X189602312Y-60646303D02*
X189649931Y-60789160D01*
X189649931Y-60789160D02*
X189649931Y-60884398D01*
X189649931Y-60884398D02*
X189602312Y-61027255D01*
X189602312Y-61027255D02*
X189507073Y-61122493D01*
X189507073Y-61122493D02*
X189411835Y-61170112D01*
X189411835Y-61170112D02*
X189221359Y-61217731D01*
X189221359Y-61217731D02*
X189078502Y-61217731D01*
X189078502Y-61217731D02*
X188888026Y-61170112D01*
X188888026Y-61170112D02*
X188792788Y-61122493D01*
X188792788Y-61122493D02*
X188697550Y-61027255D01*
X188697550Y-61027255D02*
X188649931Y-60884398D01*
X188649931Y-60884398D02*
X188649931Y-60789160D01*
X188649931Y-60789160D02*
X188697550Y-60646303D01*
X188697550Y-60646303D02*
X188745169Y-60598684D01*
X189649931Y-59693922D02*
X189649931Y-60170112D01*
X189649931Y-60170112D02*
X188649931Y-60170112D01*
X191212256Y-62217731D02*
X191259875Y-62074874D01*
X191259875Y-62074874D02*
X191259875Y-61836779D01*
X191259875Y-61836779D02*
X191212256Y-61741541D01*
X191212256Y-61741541D02*
X191164636Y-61693922D01*
X191164636Y-61693922D02*
X191069398Y-61646303D01*
X191069398Y-61646303D02*
X190974160Y-61646303D01*
X190974160Y-61646303D02*
X190878922Y-61693922D01*
X190878922Y-61693922D02*
X190831303Y-61741541D01*
X190831303Y-61741541D02*
X190783684Y-61836779D01*
X190783684Y-61836779D02*
X190736065Y-62027255D01*
X190736065Y-62027255D02*
X190688446Y-62122493D01*
X190688446Y-62122493D02*
X190640827Y-62170112D01*
X190640827Y-62170112D02*
X190545589Y-62217731D01*
X190545589Y-62217731D02*
X190450351Y-62217731D01*
X190450351Y-62217731D02*
X190355113Y-62170112D01*
X190355113Y-62170112D02*
X190307494Y-62122493D01*
X190307494Y-62122493D02*
X190259875Y-62027255D01*
X190259875Y-62027255D02*
X190259875Y-61789160D01*
X190259875Y-61789160D02*
X190307494Y-61646303D01*
X191259875Y-61217731D02*
X190259875Y-61217731D01*
X190259875Y-61217731D02*
X190259875Y-60979636D01*
X190259875Y-60979636D02*
X190307494Y-60836779D01*
X190307494Y-60836779D02*
X190402732Y-60741541D01*
X190402732Y-60741541D02*
X190497970Y-60693922D01*
X190497970Y-60693922D02*
X190688446Y-60646303D01*
X190688446Y-60646303D02*
X190831303Y-60646303D01*
X190831303Y-60646303D02*
X191021779Y-60693922D01*
X191021779Y-60693922D02*
X191117017Y-60741541D01*
X191117017Y-60741541D02*
X191212256Y-60836779D01*
X191212256Y-60836779D02*
X191259875Y-60979636D01*
X191259875Y-60979636D02*
X191259875Y-61217731D01*
X190974160Y-60265350D02*
X190974160Y-59789160D01*
X191259875Y-60360588D02*
X190259875Y-60027255D01*
X190259875Y-60027255D02*
X191259875Y-59693922D01*
X191917438Y-61884398D02*
X191869819Y-61979636D01*
X191869819Y-61979636D02*
X191869819Y-62122493D01*
X191869819Y-62122493D02*
X191917438Y-62265350D01*
X191917438Y-62265350D02*
X192012676Y-62360588D01*
X192012676Y-62360588D02*
X192107914Y-62408207D01*
X192107914Y-62408207D02*
X192298390Y-62455826D01*
X192298390Y-62455826D02*
X192441247Y-62455826D01*
X192441247Y-62455826D02*
X192631723Y-62408207D01*
X192631723Y-62408207D02*
X192726961Y-62360588D01*
X192726961Y-62360588D02*
X192822200Y-62265350D01*
X192822200Y-62265350D02*
X192869819Y-62122493D01*
X192869819Y-62122493D02*
X192869819Y-62027255D01*
X192869819Y-62027255D02*
X192822200Y-61884398D01*
X192822200Y-61884398D02*
X192774580Y-61836779D01*
X192774580Y-61836779D02*
X192441247Y-61836779D01*
X192441247Y-61836779D02*
X192441247Y-62027255D01*
X192869819Y-61408207D02*
X191869819Y-61408207D01*
X191869819Y-61408207D02*
X192869819Y-60836779D01*
X192869819Y-60836779D02*
X191869819Y-60836779D01*
X192869819Y-60360588D02*
X191869819Y-60360588D01*
X191869819Y-60360588D02*
X191869819Y-60122493D01*
X191869819Y-60122493D02*
X191917438Y-59979636D01*
X191917438Y-59979636D02*
X192012676Y-59884398D01*
X192012676Y-59884398D02*
X192107914Y-59836779D01*
X192107914Y-59836779D02*
X192298390Y-59789160D01*
X192298390Y-59789160D02*
X192441247Y-59789160D01*
X192441247Y-59789160D02*
X192631723Y-59836779D01*
X192631723Y-59836779D02*
X192726961Y-59884398D01*
X192726961Y-59884398D02*
X192822200Y-59979636D01*
X192822200Y-59979636D02*
X192869819Y-60122493D01*
X192869819Y-60122493D02*
X192869819Y-60360588D01*
D11*
X202958800Y-127390978D02*
X202958800Y-125105264D01*
X204101657Y-126248121D02*
X201815942Y-126248121D01*
D10*
X176204819Y-79964285D02*
X175204819Y-79964285D01*
X175204819Y-79964285D02*
X175919104Y-79630952D01*
X175919104Y-79630952D02*
X175204819Y-79297619D01*
X175204819Y-79297619D02*
X176204819Y-79297619D01*
X175204819Y-78630952D02*
X175204819Y-78440476D01*
X175204819Y-78440476D02*
X175252438Y-78345238D01*
X175252438Y-78345238D02*
X175347676Y-78250000D01*
X175347676Y-78250000D02*
X175538152Y-78202381D01*
X175538152Y-78202381D02*
X175871485Y-78202381D01*
X175871485Y-78202381D02*
X176061961Y-78250000D01*
X176061961Y-78250000D02*
X176157200Y-78345238D01*
X176157200Y-78345238D02*
X176204819Y-78440476D01*
X176204819Y-78440476D02*
X176204819Y-78630952D01*
X176204819Y-78630952D02*
X176157200Y-78726190D01*
X176157200Y-78726190D02*
X176061961Y-78821428D01*
X176061961Y-78821428D02*
X175871485Y-78869047D01*
X175871485Y-78869047D02*
X175538152Y-78869047D01*
X175538152Y-78869047D02*
X175347676Y-78821428D01*
X175347676Y-78821428D02*
X175252438Y-78726190D01*
X175252438Y-78726190D02*
X175204819Y-78630952D01*
X175204819Y-77916666D02*
X175204819Y-77345238D01*
X176204819Y-77630952D02*
X175204819Y-77630952D01*
X176204819Y-76488095D02*
X176204819Y-77059523D01*
X176204819Y-76773809D02*
X175204819Y-76773809D01*
X175204819Y-76773809D02*
X175347676Y-76869047D01*
X175347676Y-76869047D02*
X175442914Y-76964285D01*
X175442914Y-76964285D02*
X175490533Y-77059523D01*
X163447550Y-81389411D02*
X163399931Y-81484649D01*
X163399931Y-81484649D02*
X163399931Y-81627506D01*
X163399931Y-81627506D02*
X163447550Y-81770363D01*
X163447550Y-81770363D02*
X163542788Y-81865601D01*
X163542788Y-81865601D02*
X163638026Y-81913220D01*
X163638026Y-81913220D02*
X163828502Y-81960839D01*
X163828502Y-81960839D02*
X163971359Y-81960839D01*
X163971359Y-81960839D02*
X164161835Y-81913220D01*
X164161835Y-81913220D02*
X164257073Y-81865601D01*
X164257073Y-81865601D02*
X164352312Y-81770363D01*
X164352312Y-81770363D02*
X164399931Y-81627506D01*
X164399931Y-81627506D02*
X164399931Y-81532268D01*
X164399931Y-81532268D02*
X164352312Y-81389411D01*
X164352312Y-81389411D02*
X164304692Y-81341792D01*
X164304692Y-81341792D02*
X163971359Y-81341792D01*
X163971359Y-81341792D02*
X163971359Y-81532268D01*
X164399931Y-80913220D02*
X163399931Y-80913220D01*
X163399931Y-80913220D02*
X164399931Y-80341792D01*
X164399931Y-80341792D02*
X163399931Y-80341792D01*
X164399931Y-79865601D02*
X163399931Y-79865601D01*
X163399931Y-79865601D02*
X163399931Y-79627506D01*
X163399931Y-79627506D02*
X163447550Y-79484649D01*
X163447550Y-79484649D02*
X163542788Y-79389411D01*
X163542788Y-79389411D02*
X163638026Y-79341792D01*
X163638026Y-79341792D02*
X163828502Y-79294173D01*
X163828502Y-79294173D02*
X163971359Y-79294173D01*
X163971359Y-79294173D02*
X164161835Y-79341792D01*
X164161835Y-79341792D02*
X164257073Y-79389411D01*
X164257073Y-79389411D02*
X164352312Y-79484649D01*
X164352312Y-79484649D02*
X164399931Y-79627506D01*
X164399931Y-79627506D02*
X164399931Y-79865601D01*
X165009875Y-82056077D02*
X165009875Y-81484649D01*
X166009875Y-81770363D02*
X165009875Y-81770363D01*
X165009875Y-81246553D02*
X166009875Y-80579887D01*
X165009875Y-80579887D02*
X166009875Y-81246553D01*
X167619819Y-81341792D02*
X167143628Y-81675125D01*
X167619819Y-81913220D02*
X166619819Y-81913220D01*
X166619819Y-81913220D02*
X166619819Y-81532268D01*
X166619819Y-81532268D02*
X166667438Y-81437030D01*
X166667438Y-81437030D02*
X166715057Y-81389411D01*
X166715057Y-81389411D02*
X166810295Y-81341792D01*
X166810295Y-81341792D02*
X166953152Y-81341792D01*
X166953152Y-81341792D02*
X167048390Y-81389411D01*
X167048390Y-81389411D02*
X167096009Y-81437030D01*
X167096009Y-81437030D02*
X167143628Y-81532268D01*
X167143628Y-81532268D02*
X167143628Y-81913220D01*
X166619819Y-81008458D02*
X167619819Y-80341792D01*
X166619819Y-80341792D02*
X167619819Y-81008458D01*
D11*
X202958800Y-112890978D02*
X202958800Y-110605264D01*
D12*
X196050828Y-88195489D02*
X194550828Y-88195489D01*
X194550828Y-88195489D02*
X195622257Y-87695489D01*
X195622257Y-87695489D02*
X194550828Y-87195489D01*
X194550828Y-87195489D02*
X196050828Y-87195489D01*
X194550828Y-86195488D02*
X194550828Y-85909774D01*
X194550828Y-85909774D02*
X194622257Y-85766917D01*
X194622257Y-85766917D02*
X194765114Y-85624060D01*
X194765114Y-85624060D02*
X195050828Y-85552631D01*
X195050828Y-85552631D02*
X195550828Y-85552631D01*
X195550828Y-85552631D02*
X195836542Y-85624060D01*
X195836542Y-85624060D02*
X195979400Y-85766917D01*
X195979400Y-85766917D02*
X196050828Y-85909774D01*
X196050828Y-85909774D02*
X196050828Y-86195488D01*
X196050828Y-86195488D02*
X195979400Y-86338346D01*
X195979400Y-86338346D02*
X195836542Y-86481203D01*
X195836542Y-86481203D02*
X195550828Y-86552631D01*
X195550828Y-86552631D02*
X195050828Y-86552631D01*
X195050828Y-86552631D02*
X194765114Y-86481203D01*
X194765114Y-86481203D02*
X194622257Y-86338346D01*
X194622257Y-86338346D02*
X194550828Y-86195488D01*
X194550828Y-85124059D02*
X194550828Y-84266917D01*
X196050828Y-84695488D02*
X194550828Y-84695488D01*
X194693685Y-83838345D02*
X194622257Y-83766917D01*
X194622257Y-83766917D02*
X194550828Y-83624060D01*
X194550828Y-83624060D02*
X194550828Y-83266917D01*
X194550828Y-83266917D02*
X194622257Y-83124060D01*
X194622257Y-83124060D02*
X194693685Y-83052631D01*
X194693685Y-83052631D02*
X194836542Y-82981202D01*
X194836542Y-82981202D02*
X194979400Y-82981202D01*
X194979400Y-82981202D02*
X195193685Y-83052631D01*
X195193685Y-83052631D02*
X196050828Y-83909774D01*
X196050828Y-83909774D02*
X196050828Y-82981202D01*
X200800828Y-128945489D02*
X199300828Y-128945489D01*
X199300828Y-128945489D02*
X199300828Y-128374060D01*
X199300828Y-128374060D02*
X199372257Y-128231203D01*
X199372257Y-128231203D02*
X199443685Y-128159774D01*
X199443685Y-128159774D02*
X199586542Y-128088346D01*
X199586542Y-128088346D02*
X199800828Y-128088346D01*
X199800828Y-128088346D02*
X199943685Y-128159774D01*
X199943685Y-128159774D02*
X200015114Y-128231203D01*
X200015114Y-128231203D02*
X200086542Y-128374060D01*
X200086542Y-128374060D02*
X200086542Y-128945489D01*
X199300828Y-127588346D02*
X200800828Y-127231203D01*
X200800828Y-127231203D02*
X199729400Y-126945489D01*
X199729400Y-126945489D02*
X200800828Y-126659774D01*
X200800828Y-126659774D02*
X199300828Y-126302632D01*
X200800828Y-124874060D02*
X200086542Y-125374060D01*
X200800828Y-125731203D02*
X199300828Y-125731203D01*
X199300828Y-125731203D02*
X199300828Y-125159774D01*
X199300828Y-125159774D02*
X199372257Y-125016917D01*
X199372257Y-125016917D02*
X199443685Y-124945488D01*
X199443685Y-124945488D02*
X199586542Y-124874060D01*
X199586542Y-124874060D02*
X199800828Y-124874060D01*
X199800828Y-124874060D02*
X199943685Y-124945488D01*
X199943685Y-124945488D02*
X200015114Y-125016917D01*
X200015114Y-125016917D02*
X200086542Y-125159774D01*
X200086542Y-125159774D02*
X200086542Y-125731203D01*
D10*
X170704819Y-79964285D02*
X169704819Y-79964285D01*
X169704819Y-79964285D02*
X170419104Y-79630952D01*
X170419104Y-79630952D02*
X169704819Y-79297619D01*
X169704819Y-79297619D02*
X170704819Y-79297619D01*
X169704819Y-78630952D02*
X169704819Y-78440476D01*
X169704819Y-78440476D02*
X169752438Y-78345238D01*
X169752438Y-78345238D02*
X169847676Y-78250000D01*
X169847676Y-78250000D02*
X170038152Y-78202381D01*
X170038152Y-78202381D02*
X170371485Y-78202381D01*
X170371485Y-78202381D02*
X170561961Y-78250000D01*
X170561961Y-78250000D02*
X170657200Y-78345238D01*
X170657200Y-78345238D02*
X170704819Y-78440476D01*
X170704819Y-78440476D02*
X170704819Y-78630952D01*
X170704819Y-78630952D02*
X170657200Y-78726190D01*
X170657200Y-78726190D02*
X170561961Y-78821428D01*
X170561961Y-78821428D02*
X170371485Y-78869047D01*
X170371485Y-78869047D02*
X170038152Y-78869047D01*
X170038152Y-78869047D02*
X169847676Y-78821428D01*
X169847676Y-78821428D02*
X169752438Y-78726190D01*
X169752438Y-78726190D02*
X169704819Y-78630952D01*
X169704819Y-77916666D02*
X169704819Y-77345238D01*
X170704819Y-77630952D02*
X169704819Y-77630952D01*
X169800057Y-77059523D02*
X169752438Y-77011904D01*
X169752438Y-77011904D02*
X169704819Y-76916666D01*
X169704819Y-76916666D02*
X169704819Y-76678571D01*
X169704819Y-76678571D02*
X169752438Y-76583333D01*
X169752438Y-76583333D02*
X169800057Y-76535714D01*
X169800057Y-76535714D02*
X169895295Y-76488095D01*
X169895295Y-76488095D02*
X169990533Y-76488095D01*
X169990533Y-76488095D02*
X170133390Y-76535714D01*
X170133390Y-76535714D02*
X170704819Y-77107142D01*
X170704819Y-77107142D02*
X170704819Y-76488095D01*
D12*
X195800828Y-103945489D02*
X194300828Y-103945489D01*
X194300828Y-103945489D02*
X195372257Y-103445489D01*
X195372257Y-103445489D02*
X194300828Y-102945489D01*
X194300828Y-102945489D02*
X195800828Y-102945489D01*
X194300828Y-101945488D02*
X194300828Y-101659774D01*
X194300828Y-101659774D02*
X194372257Y-101516917D01*
X194372257Y-101516917D02*
X194515114Y-101374060D01*
X194515114Y-101374060D02*
X194800828Y-101302631D01*
X194800828Y-101302631D02*
X195300828Y-101302631D01*
X195300828Y-101302631D02*
X195586542Y-101374060D01*
X195586542Y-101374060D02*
X195729400Y-101516917D01*
X195729400Y-101516917D02*
X195800828Y-101659774D01*
X195800828Y-101659774D02*
X195800828Y-101945488D01*
X195800828Y-101945488D02*
X195729400Y-102088346D01*
X195729400Y-102088346D02*
X195586542Y-102231203D01*
X195586542Y-102231203D02*
X195300828Y-102302631D01*
X195300828Y-102302631D02*
X194800828Y-102302631D01*
X194800828Y-102302631D02*
X194515114Y-102231203D01*
X194515114Y-102231203D02*
X194372257Y-102088346D01*
X194372257Y-102088346D02*
X194300828Y-101945488D01*
X194300828Y-100874059D02*
X194300828Y-100016917D01*
X195800828Y-100445488D02*
X194300828Y-100445488D01*
X195800828Y-98731202D02*
X195800828Y-99588345D01*
X195800828Y-99159774D02*
X194300828Y-99159774D01*
X194300828Y-99159774D02*
X194515114Y-99302631D01*
X194515114Y-99302631D02*
X194657971Y-99445488D01*
X194657971Y-99445488D02*
X194729400Y-99588345D01*
D10*
X190044172Y-67844875D02*
X190044172Y-66844875D01*
X190044172Y-66844875D02*
X190377505Y-67559160D01*
X190377505Y-67559160D02*
X190710838Y-66844875D01*
X190710838Y-66844875D02*
X190710838Y-67844875D01*
X191615600Y-67844875D02*
X191615600Y-67321065D01*
X191615600Y-67321065D02*
X191567981Y-67225827D01*
X191567981Y-67225827D02*
X191472743Y-67178208D01*
X191472743Y-67178208D02*
X191282267Y-67178208D01*
X191282267Y-67178208D02*
X191187029Y-67225827D01*
X191615600Y-67797256D02*
X191520362Y-67844875D01*
X191520362Y-67844875D02*
X191282267Y-67844875D01*
X191282267Y-67844875D02*
X191187029Y-67797256D01*
X191187029Y-67797256D02*
X191139410Y-67702017D01*
X191139410Y-67702017D02*
X191139410Y-67606779D01*
X191139410Y-67606779D02*
X191187029Y-67511541D01*
X191187029Y-67511541D02*
X191282267Y-67463922D01*
X191282267Y-67463922D02*
X191520362Y-67463922D01*
X191520362Y-67463922D02*
X191615600Y-67416303D01*
X192091791Y-67844875D02*
X192091791Y-67178208D01*
X192091791Y-67368684D02*
X192139410Y-67273446D01*
X192139410Y-67273446D02*
X192187029Y-67225827D01*
X192187029Y-67225827D02*
X192282267Y-67178208D01*
X192282267Y-67178208D02*
X192377505Y-67178208D01*
X192710839Y-67844875D02*
X192710839Y-67178208D01*
X192710839Y-67368684D02*
X192758458Y-67273446D01*
X192758458Y-67273446D02*
X192806077Y-67225827D01*
X192806077Y-67225827D02*
X192901315Y-67178208D01*
X192901315Y-67178208D02*
X192996553Y-67178208D01*
X193472744Y-67844875D02*
X193377506Y-67797256D01*
X193377506Y-67797256D02*
X193329887Y-67749636D01*
X193329887Y-67749636D02*
X193282268Y-67654398D01*
X193282268Y-67654398D02*
X193282268Y-67368684D01*
X193282268Y-67368684D02*
X193329887Y-67273446D01*
X193329887Y-67273446D02*
X193377506Y-67225827D01*
X193377506Y-67225827D02*
X193472744Y-67178208D01*
X193472744Y-67178208D02*
X193615601Y-67178208D01*
X193615601Y-67178208D02*
X193710839Y-67225827D01*
X193710839Y-67225827D02*
X193758458Y-67273446D01*
X193758458Y-67273446D02*
X193806077Y-67368684D01*
X193806077Y-67368684D02*
X193806077Y-67654398D01*
X193806077Y-67654398D02*
X193758458Y-67749636D01*
X193758458Y-67749636D02*
X193710839Y-67797256D01*
X193710839Y-67797256D02*
X193615601Y-67844875D01*
X193615601Y-67844875D02*
X193472744Y-67844875D01*
X194234649Y-67178208D02*
X194234649Y-67844875D01*
X194234649Y-67273446D02*
X194282268Y-67225827D01*
X194282268Y-67225827D02*
X194377506Y-67178208D01*
X194377506Y-67178208D02*
X194520363Y-67178208D01*
X194520363Y-67178208D02*
X194615601Y-67225827D01*
X194615601Y-67225827D02*
X194663220Y-67321065D01*
X194663220Y-67321065D02*
X194663220Y-67844875D01*
X192091792Y-69454819D02*
X192091792Y-68454819D01*
X192091792Y-68454819D02*
X192663220Y-69454819D01*
X192663220Y-69454819D02*
X192663220Y-68454819D01*
X193282268Y-69454819D02*
X193187030Y-69407200D01*
X193187030Y-69407200D02*
X193139411Y-69359580D01*
X193139411Y-69359580D02*
X193091792Y-69264342D01*
X193091792Y-69264342D02*
X193091792Y-68978628D01*
X193091792Y-68978628D02*
X193139411Y-68883390D01*
X193139411Y-68883390D02*
X193187030Y-68835771D01*
X193187030Y-68835771D02*
X193282268Y-68788152D01*
X193282268Y-68788152D02*
X193425125Y-68788152D01*
X193425125Y-68788152D02*
X193520363Y-68835771D01*
X193520363Y-68835771D02*
X193567982Y-68883390D01*
X193567982Y-68883390D02*
X193615601Y-68978628D01*
X193615601Y-68978628D02*
X193615601Y-69264342D01*
X193615601Y-69264342D02*
X193567982Y-69359580D01*
X193567982Y-69359580D02*
X193520363Y-69407200D01*
X193520363Y-69407200D02*
X193425125Y-69454819D01*
X193425125Y-69454819D02*
X193282268Y-69454819D01*
X194044173Y-69454819D02*
X194044173Y-68788152D01*
X194044173Y-68454819D02*
X193996554Y-68502438D01*
X193996554Y-68502438D02*
X194044173Y-68550057D01*
X194044173Y-68550057D02*
X194091792Y-68502438D01*
X194091792Y-68502438D02*
X194044173Y-68454819D01*
X194044173Y-68454819D02*
X194044173Y-68550057D01*
X194520363Y-69454819D02*
X194520363Y-68788152D01*
X194520363Y-68978628D02*
X194567982Y-68883390D01*
X194567982Y-68883390D02*
X194615601Y-68835771D01*
X194615601Y-68835771D02*
X194710839Y-68788152D01*
X194710839Y-68788152D02*
X194806077Y-68788152D01*
X192187029Y-70540953D02*
X192329886Y-70588572D01*
X192329886Y-70588572D02*
X192377505Y-70636191D01*
X192377505Y-70636191D02*
X192425124Y-70731429D01*
X192425124Y-70731429D02*
X192425124Y-70874286D01*
X192425124Y-70874286D02*
X192377505Y-70969524D01*
X192377505Y-70969524D02*
X192329886Y-71017144D01*
X192329886Y-71017144D02*
X192234648Y-71064763D01*
X192234648Y-71064763D02*
X191853696Y-71064763D01*
X191853696Y-71064763D02*
X191853696Y-70064763D01*
X191853696Y-70064763D02*
X192187029Y-70064763D01*
X192187029Y-70064763D02*
X192282267Y-70112382D01*
X192282267Y-70112382D02*
X192329886Y-70160001D01*
X192329886Y-70160001D02*
X192377505Y-70255239D01*
X192377505Y-70255239D02*
X192377505Y-70350477D01*
X192377505Y-70350477D02*
X192329886Y-70445715D01*
X192329886Y-70445715D02*
X192282267Y-70493334D01*
X192282267Y-70493334D02*
X192187029Y-70540953D01*
X192187029Y-70540953D02*
X191853696Y-70540953D01*
X192996553Y-71064763D02*
X192901315Y-71017144D01*
X192901315Y-71017144D02*
X192853696Y-70921905D01*
X192853696Y-70921905D02*
X192853696Y-70064763D01*
X193758458Y-71017144D02*
X193663220Y-71064763D01*
X193663220Y-71064763D02*
X193472744Y-71064763D01*
X193472744Y-71064763D02*
X193377506Y-71017144D01*
X193377506Y-71017144D02*
X193329887Y-70921905D01*
X193329887Y-70921905D02*
X193329887Y-70540953D01*
X193329887Y-70540953D02*
X193377506Y-70445715D01*
X193377506Y-70445715D02*
X193472744Y-70398096D01*
X193472744Y-70398096D02*
X193663220Y-70398096D01*
X193663220Y-70398096D02*
X193758458Y-70445715D01*
X193758458Y-70445715D02*
X193806077Y-70540953D01*
X193806077Y-70540953D02*
X193806077Y-70636191D01*
X193806077Y-70636191D02*
X193329887Y-70731429D01*
X194663220Y-70398096D02*
X194663220Y-71064763D01*
X194234649Y-70398096D02*
X194234649Y-70921905D01*
X194234649Y-70921905D02*
X194282268Y-71017144D01*
X194282268Y-71017144D02*
X194377506Y-71064763D01*
X194377506Y-71064763D02*
X194520363Y-71064763D01*
X194520363Y-71064763D02*
X194615601Y-71017144D01*
X194615601Y-71017144D02*
X194663220Y-70969524D01*
X170860588Y-100917438D02*
X170765350Y-100869819D01*
X170765350Y-100869819D02*
X170622493Y-100869819D01*
X170622493Y-100869819D02*
X170479636Y-100917438D01*
X170479636Y-100917438D02*
X170384398Y-101012676D01*
X170384398Y-101012676D02*
X170336779Y-101107914D01*
X170336779Y-101107914D02*
X170289160Y-101298390D01*
X170289160Y-101298390D02*
X170289160Y-101441247D01*
X170289160Y-101441247D02*
X170336779Y-101631723D01*
X170336779Y-101631723D02*
X170384398Y-101726961D01*
X170384398Y-101726961D02*
X170479636Y-101822200D01*
X170479636Y-101822200D02*
X170622493Y-101869819D01*
X170622493Y-101869819D02*
X170717731Y-101869819D01*
X170717731Y-101869819D02*
X170860588Y-101822200D01*
X170860588Y-101822200D02*
X170908207Y-101774580D01*
X170908207Y-101774580D02*
X170908207Y-101441247D01*
X170908207Y-101441247D02*
X170717731Y-101441247D01*
X171765350Y-101869819D02*
X171765350Y-101346009D01*
X171765350Y-101346009D02*
X171717731Y-101250771D01*
X171717731Y-101250771D02*
X171622493Y-101203152D01*
X171622493Y-101203152D02*
X171432017Y-101203152D01*
X171432017Y-101203152D02*
X171336779Y-101250771D01*
X171765350Y-101822200D02*
X171670112Y-101869819D01*
X171670112Y-101869819D02*
X171432017Y-101869819D01*
X171432017Y-101869819D02*
X171336779Y-101822200D01*
X171336779Y-101822200D02*
X171289160Y-101726961D01*
X171289160Y-101726961D02*
X171289160Y-101631723D01*
X171289160Y-101631723D02*
X171336779Y-101536485D01*
X171336779Y-101536485D02*
X171432017Y-101488866D01*
X171432017Y-101488866D02*
X171670112Y-101488866D01*
X171670112Y-101488866D02*
X171765350Y-101441247D01*
X172098684Y-101203152D02*
X172479636Y-101203152D01*
X172241541Y-100869819D02*
X172241541Y-101726961D01*
X172241541Y-101726961D02*
X172289160Y-101822200D01*
X172289160Y-101822200D02*
X172384398Y-101869819D01*
X172384398Y-101869819D02*
X172479636Y-101869819D01*
X173193922Y-101822200D02*
X173098684Y-101869819D01*
X173098684Y-101869819D02*
X172908208Y-101869819D01*
X172908208Y-101869819D02*
X172812970Y-101822200D01*
X172812970Y-101822200D02*
X172765351Y-101726961D01*
X172765351Y-101726961D02*
X172765351Y-101346009D01*
X172765351Y-101346009D02*
X172812970Y-101250771D01*
X172812970Y-101250771D02*
X172908208Y-101203152D01*
X172908208Y-101203152D02*
X173098684Y-101203152D01*
X173098684Y-101203152D02*
X173193922Y-101250771D01*
X173193922Y-101250771D02*
X173241541Y-101346009D01*
X173241541Y-101346009D02*
X173241541Y-101441247D01*
X173241541Y-101441247D02*
X172765351Y-101536485D01*
X174432018Y-101869819D02*
X174432018Y-100869819D01*
X174432018Y-100869819D02*
X174670113Y-100869819D01*
X174670113Y-100869819D02*
X174812970Y-100917438D01*
X174812970Y-100917438D02*
X174908208Y-101012676D01*
X174908208Y-101012676D02*
X174955827Y-101107914D01*
X174955827Y-101107914D02*
X175003446Y-101298390D01*
X175003446Y-101298390D02*
X175003446Y-101441247D01*
X175003446Y-101441247D02*
X174955827Y-101631723D01*
X174955827Y-101631723D02*
X174908208Y-101726961D01*
X174908208Y-101726961D02*
X174812970Y-101822200D01*
X174812970Y-101822200D02*
X174670113Y-101869819D01*
X174670113Y-101869819D02*
X174432018Y-101869819D01*
X175432018Y-101869819D02*
X175432018Y-101203152D01*
X175432018Y-101393628D02*
X175479637Y-101298390D01*
X175479637Y-101298390D02*
X175527256Y-101250771D01*
X175527256Y-101250771D02*
X175622494Y-101203152D01*
X175622494Y-101203152D02*
X175717732Y-101203152D01*
X176051066Y-101869819D02*
X176051066Y-101203152D01*
X176051066Y-100869819D02*
X176003447Y-100917438D01*
X176003447Y-100917438D02*
X176051066Y-100965057D01*
X176051066Y-100965057D02*
X176098685Y-100917438D01*
X176098685Y-100917438D02*
X176051066Y-100869819D01*
X176051066Y-100869819D02*
X176051066Y-100965057D01*
X176432018Y-101203152D02*
X176670113Y-101869819D01*
X176670113Y-101869819D02*
X176908208Y-101203152D01*
X177670113Y-101822200D02*
X177574875Y-101869819D01*
X177574875Y-101869819D02*
X177384399Y-101869819D01*
X177384399Y-101869819D02*
X177289161Y-101822200D01*
X177289161Y-101822200D02*
X177241542Y-101726961D01*
X177241542Y-101726961D02*
X177241542Y-101346009D01*
X177241542Y-101346009D02*
X177289161Y-101250771D01*
X177289161Y-101250771D02*
X177384399Y-101203152D01*
X177384399Y-101203152D02*
X177574875Y-101203152D01*
X177574875Y-101203152D02*
X177670113Y-101250771D01*
X177670113Y-101250771D02*
X177717732Y-101346009D01*
X177717732Y-101346009D02*
X177717732Y-101441247D01*
X177717732Y-101441247D02*
X177241542Y-101536485D01*
X178146304Y-101869819D02*
X178146304Y-101203152D01*
X178146304Y-101393628D02*
X178193923Y-101298390D01*
X178193923Y-101298390D02*
X178241542Y-101250771D01*
X178241542Y-101250771D02*
X178336780Y-101203152D01*
X178336780Y-101203152D02*
X178432018Y-101203152D01*
X107289160Y-99822200D02*
X107432017Y-99869819D01*
X107432017Y-99869819D02*
X107670112Y-99869819D01*
X107670112Y-99869819D02*
X107765350Y-99822200D01*
X107765350Y-99822200D02*
X107812969Y-99774580D01*
X107812969Y-99774580D02*
X107860588Y-99679342D01*
X107860588Y-99679342D02*
X107860588Y-99584104D01*
X107860588Y-99584104D02*
X107812969Y-99488866D01*
X107812969Y-99488866D02*
X107765350Y-99441247D01*
X107765350Y-99441247D02*
X107670112Y-99393628D01*
X107670112Y-99393628D02*
X107479636Y-99346009D01*
X107479636Y-99346009D02*
X107384398Y-99298390D01*
X107384398Y-99298390D02*
X107336779Y-99250771D01*
X107336779Y-99250771D02*
X107289160Y-99155533D01*
X107289160Y-99155533D02*
X107289160Y-99060295D01*
X107289160Y-99060295D02*
X107336779Y-98965057D01*
X107336779Y-98965057D02*
X107384398Y-98917438D01*
X107384398Y-98917438D02*
X107479636Y-98869819D01*
X107479636Y-98869819D02*
X107717731Y-98869819D01*
X107717731Y-98869819D02*
X107860588Y-98917438D01*
X108289160Y-99869819D02*
X108289160Y-98869819D01*
X108765350Y-99869819D02*
X108765350Y-98869819D01*
X108765350Y-98869819D02*
X109098683Y-99584104D01*
X109098683Y-99584104D02*
X109432016Y-98869819D01*
X109432016Y-98869819D02*
X109432016Y-99869819D01*
X110670112Y-99869819D02*
X110670112Y-98869819D01*
X110670112Y-98869819D02*
X111003445Y-99584104D01*
X111003445Y-99584104D02*
X111336778Y-98869819D01*
X111336778Y-98869819D02*
X111336778Y-99869819D01*
X111955826Y-99869819D02*
X111860588Y-99822200D01*
X111860588Y-99822200D02*
X111812969Y-99774580D01*
X111812969Y-99774580D02*
X111765350Y-99679342D01*
X111765350Y-99679342D02*
X111765350Y-99393628D01*
X111765350Y-99393628D02*
X111812969Y-99298390D01*
X111812969Y-99298390D02*
X111860588Y-99250771D01*
X111860588Y-99250771D02*
X111955826Y-99203152D01*
X111955826Y-99203152D02*
X112098683Y-99203152D01*
X112098683Y-99203152D02*
X112193921Y-99250771D01*
X112193921Y-99250771D02*
X112241540Y-99298390D01*
X112241540Y-99298390D02*
X112289159Y-99393628D01*
X112289159Y-99393628D02*
X112289159Y-99679342D01*
X112289159Y-99679342D02*
X112241540Y-99774580D01*
X112241540Y-99774580D02*
X112193921Y-99822200D01*
X112193921Y-99822200D02*
X112098683Y-99869819D01*
X112098683Y-99869819D02*
X111955826Y-99869819D01*
X113146302Y-99869819D02*
X113146302Y-98869819D01*
X113146302Y-99822200D02*
X113051064Y-99869819D01*
X113051064Y-99869819D02*
X112860588Y-99869819D01*
X112860588Y-99869819D02*
X112765350Y-99822200D01*
X112765350Y-99822200D02*
X112717731Y-99774580D01*
X112717731Y-99774580D02*
X112670112Y-99679342D01*
X112670112Y-99679342D02*
X112670112Y-99393628D01*
X112670112Y-99393628D02*
X112717731Y-99298390D01*
X112717731Y-99298390D02*
X112765350Y-99250771D01*
X112765350Y-99250771D02*
X112860588Y-99203152D01*
X112860588Y-99203152D02*
X113051064Y-99203152D01*
X113051064Y-99203152D02*
X113146302Y-99250771D01*
X114051064Y-99203152D02*
X114051064Y-99869819D01*
X113622493Y-99203152D02*
X113622493Y-99726961D01*
X113622493Y-99726961D02*
X113670112Y-99822200D01*
X113670112Y-99822200D02*
X113765350Y-99869819D01*
X113765350Y-99869819D02*
X113908207Y-99869819D01*
X113908207Y-99869819D02*
X114003445Y-99822200D01*
X114003445Y-99822200D02*
X114051064Y-99774580D01*
X114670112Y-99869819D02*
X114574874Y-99822200D01*
X114574874Y-99822200D02*
X114527255Y-99726961D01*
X114527255Y-99726961D02*
X114527255Y-98869819D01*
X115432017Y-99822200D02*
X115336779Y-99869819D01*
X115336779Y-99869819D02*
X115146303Y-99869819D01*
X115146303Y-99869819D02*
X115051065Y-99822200D01*
X115051065Y-99822200D02*
X115003446Y-99726961D01*
X115003446Y-99726961D02*
X115003446Y-99346009D01*
X115003446Y-99346009D02*
X115051065Y-99250771D01*
X115051065Y-99250771D02*
X115146303Y-99203152D01*
X115146303Y-99203152D02*
X115336779Y-99203152D01*
X115336779Y-99203152D02*
X115432017Y-99250771D01*
X115432017Y-99250771D02*
X115479636Y-99346009D01*
X115479636Y-99346009D02*
X115479636Y-99441247D01*
X115479636Y-99441247D02*
X115003446Y-99536485D01*
X189657292Y-100859580D02*
X189609673Y-100907200D01*
X189609673Y-100907200D02*
X189466816Y-100954819D01*
X189466816Y-100954819D02*
X189371578Y-100954819D01*
X189371578Y-100954819D02*
X189228721Y-100907200D01*
X189228721Y-100907200D02*
X189133483Y-100811961D01*
X189133483Y-100811961D02*
X189085864Y-100716723D01*
X189085864Y-100716723D02*
X189038245Y-100526247D01*
X189038245Y-100526247D02*
X189038245Y-100383390D01*
X189038245Y-100383390D02*
X189085864Y-100192914D01*
X189085864Y-100192914D02*
X189133483Y-100097676D01*
X189133483Y-100097676D02*
X189228721Y-100002438D01*
X189228721Y-100002438D02*
X189371578Y-99954819D01*
X189371578Y-99954819D02*
X189466816Y-99954819D01*
X189466816Y-99954819D02*
X189609673Y-100002438D01*
X189609673Y-100002438D02*
X189657292Y-100050057D01*
X190038245Y-100050057D02*
X190085864Y-100002438D01*
X190085864Y-100002438D02*
X190181102Y-99954819D01*
X190181102Y-99954819D02*
X190419197Y-99954819D01*
X190419197Y-99954819D02*
X190514435Y-100002438D01*
X190514435Y-100002438D02*
X190562054Y-100050057D01*
X190562054Y-100050057D02*
X190609673Y-100145295D01*
X190609673Y-100145295D02*
X190609673Y-100240533D01*
X190609673Y-100240533D02*
X190562054Y-100383390D01*
X190562054Y-100383390D02*
X189990626Y-100954819D01*
X189990626Y-100954819D02*
X190609673Y-100954819D01*
X184916666Y-55954819D02*
X184916666Y-56669104D01*
X184916666Y-56669104D02*
X184869047Y-56811961D01*
X184869047Y-56811961D02*
X184773809Y-56907200D01*
X184773809Y-56907200D02*
X184630952Y-56954819D01*
X184630952Y-56954819D02*
X184535714Y-56954819D01*
X185297619Y-55954819D02*
X185964285Y-55954819D01*
X185964285Y-55954819D02*
X185535714Y-56954819D01*
X184023810Y-58704819D02*
X184023810Y-57704819D01*
X184452381Y-57800057D02*
X184500000Y-57752438D01*
X184500000Y-57752438D02*
X184595238Y-57704819D01*
X184595238Y-57704819D02*
X184833333Y-57704819D01*
X184833333Y-57704819D02*
X184928571Y-57752438D01*
X184928571Y-57752438D02*
X184976190Y-57800057D01*
X184976190Y-57800057D02*
X185023809Y-57895295D01*
X185023809Y-57895295D02*
X185023809Y-57990533D01*
X185023809Y-57990533D02*
X184976190Y-58133390D01*
X184976190Y-58133390D02*
X184404762Y-58704819D01*
X184404762Y-58704819D02*
X185023809Y-58704819D01*
X186023809Y-58609580D02*
X185976190Y-58657200D01*
X185976190Y-58657200D02*
X185833333Y-58704819D01*
X185833333Y-58704819D02*
X185738095Y-58704819D01*
X185738095Y-58704819D02*
X185595238Y-58657200D01*
X185595238Y-58657200D02*
X185500000Y-58561961D01*
X185500000Y-58561961D02*
X185452381Y-58466723D01*
X185452381Y-58466723D02*
X185404762Y-58276247D01*
X185404762Y-58276247D02*
X185404762Y-58133390D01*
X185404762Y-58133390D02*
X185452381Y-57942914D01*
X185452381Y-57942914D02*
X185500000Y-57847676D01*
X185500000Y-57847676D02*
X185595238Y-57752438D01*
X185595238Y-57752438D02*
X185738095Y-57704819D01*
X185738095Y-57704819D02*
X185833333Y-57704819D01*
X185833333Y-57704819D02*
X185976190Y-57752438D01*
X185976190Y-57752438D02*
X186023809Y-57800057D01*
X164204819Y-44083333D02*
X164919104Y-44083333D01*
X164919104Y-44083333D02*
X165061961Y-44130952D01*
X165061961Y-44130952D02*
X165157200Y-44226190D01*
X165157200Y-44226190D02*
X165204819Y-44369047D01*
X165204819Y-44369047D02*
X165204819Y-44464285D01*
X165204819Y-43559523D02*
X165204819Y-43369047D01*
X165204819Y-43369047D02*
X165157200Y-43273809D01*
X165157200Y-43273809D02*
X165109580Y-43226190D01*
X165109580Y-43226190D02*
X164966723Y-43130952D01*
X164966723Y-43130952D02*
X164776247Y-43083333D01*
X164776247Y-43083333D02*
X164395295Y-43083333D01*
X164395295Y-43083333D02*
X164300057Y-43130952D01*
X164300057Y-43130952D02*
X164252438Y-43178571D01*
X164252438Y-43178571D02*
X164204819Y-43273809D01*
X164204819Y-43273809D02*
X164204819Y-43464285D01*
X164204819Y-43464285D02*
X164252438Y-43559523D01*
X164252438Y-43559523D02*
X164300057Y-43607142D01*
X164300057Y-43607142D02*
X164395295Y-43654761D01*
X164395295Y-43654761D02*
X164633390Y-43654761D01*
X164633390Y-43654761D02*
X164728628Y-43607142D01*
X164728628Y-43607142D02*
X164776247Y-43559523D01*
X164776247Y-43559523D02*
X164823866Y-43464285D01*
X164823866Y-43464285D02*
X164823866Y-43273809D01*
X164823866Y-43273809D02*
X164776247Y-43178571D01*
X164776247Y-43178571D02*
X164728628Y-43130952D01*
X164728628Y-43130952D02*
X164633390Y-43083333D01*
X172726190Y-48181008D02*
X172869047Y-48228627D01*
X172869047Y-48228627D02*
X172916666Y-48276246D01*
X172916666Y-48276246D02*
X172964285Y-48371484D01*
X172964285Y-48371484D02*
X172964285Y-48514341D01*
X172964285Y-48514341D02*
X172916666Y-48609579D01*
X172916666Y-48609579D02*
X172869047Y-48657199D01*
X172869047Y-48657199D02*
X172773809Y-48704818D01*
X172773809Y-48704818D02*
X172392857Y-48704818D01*
X172392857Y-48704818D02*
X172392857Y-47704818D01*
X172392857Y-47704818D02*
X172726190Y-47704818D01*
X172726190Y-47704818D02*
X172821428Y-47752437D01*
X172821428Y-47752437D02*
X172869047Y-47800056D01*
X172869047Y-47800056D02*
X172916666Y-47895294D01*
X172916666Y-47895294D02*
X172916666Y-47990532D01*
X172916666Y-47990532D02*
X172869047Y-48085770D01*
X172869047Y-48085770D02*
X172821428Y-48133389D01*
X172821428Y-48133389D02*
X172726190Y-48181008D01*
X172726190Y-48181008D02*
X172392857Y-48181008D01*
X173250000Y-48038151D02*
X173630952Y-48038151D01*
X173392857Y-47704818D02*
X173392857Y-48561960D01*
X173392857Y-48561960D02*
X173440476Y-48657199D01*
X173440476Y-48657199D02*
X173535714Y-48704818D01*
X173535714Y-48704818D02*
X173630952Y-48704818D01*
X173964286Y-48038151D02*
X173964286Y-48704818D01*
X173964286Y-48133389D02*
X174011905Y-48085770D01*
X174011905Y-48085770D02*
X174107143Y-48038151D01*
X174107143Y-48038151D02*
X174250000Y-48038151D01*
X174250000Y-48038151D02*
X174345238Y-48085770D01*
X174345238Y-48085770D02*
X174392857Y-48181008D01*
X174392857Y-48181008D02*
X174392857Y-48704818D01*
X174630953Y-48800056D02*
X175392857Y-48800056D01*
X175630953Y-47704818D02*
X175630953Y-48514341D01*
X175630953Y-48514341D02*
X175678572Y-48609579D01*
X175678572Y-48609579D02*
X175726191Y-48657199D01*
X175726191Y-48657199D02*
X175821429Y-48704818D01*
X175821429Y-48704818D02*
X176011905Y-48704818D01*
X176011905Y-48704818D02*
X176107143Y-48657199D01*
X176107143Y-48657199D02*
X176154762Y-48609579D01*
X176154762Y-48609579D02*
X176202381Y-48514341D01*
X176202381Y-48514341D02*
X176202381Y-47704818D01*
X176630953Y-48657199D02*
X176773810Y-48704818D01*
X176773810Y-48704818D02*
X177011905Y-48704818D01*
X177011905Y-48704818D02*
X177107143Y-48657199D01*
X177107143Y-48657199D02*
X177154762Y-48609579D01*
X177154762Y-48609579D02*
X177202381Y-48514341D01*
X177202381Y-48514341D02*
X177202381Y-48419103D01*
X177202381Y-48419103D02*
X177154762Y-48323865D01*
X177154762Y-48323865D02*
X177107143Y-48276246D01*
X177107143Y-48276246D02*
X177011905Y-48228627D01*
X177011905Y-48228627D02*
X176821429Y-48181008D01*
X176821429Y-48181008D02*
X176726191Y-48133389D01*
X176726191Y-48133389D02*
X176678572Y-48085770D01*
X176678572Y-48085770D02*
X176630953Y-47990532D01*
X176630953Y-47990532D02*
X176630953Y-47895294D01*
X176630953Y-47895294D02*
X176678572Y-47800056D01*
X176678572Y-47800056D02*
X176726191Y-47752437D01*
X176726191Y-47752437D02*
X176821429Y-47704818D01*
X176821429Y-47704818D02*
X177059524Y-47704818D01*
X177059524Y-47704818D02*
X177202381Y-47752437D01*
X178202381Y-48704818D02*
X177869048Y-48228627D01*
X177630953Y-48704818D02*
X177630953Y-47704818D01*
X177630953Y-47704818D02*
X178011905Y-47704818D01*
X178011905Y-47704818D02*
X178107143Y-47752437D01*
X178107143Y-47752437D02*
X178154762Y-47800056D01*
X178154762Y-47800056D02*
X178202381Y-47895294D01*
X178202381Y-47895294D02*
X178202381Y-48038151D01*
X178202381Y-48038151D02*
X178154762Y-48133389D01*
X178154762Y-48133389D02*
X178107143Y-48181008D01*
X178107143Y-48181008D02*
X178011905Y-48228627D01*
X178011905Y-48228627D02*
X177630953Y-48228627D01*
X179154762Y-48704818D02*
X178583334Y-48704818D01*
X178869048Y-48704818D02*
X178869048Y-47704818D01*
X178869048Y-47704818D02*
X178773810Y-47847675D01*
X178773810Y-47847675D02*
X178678572Y-47942913D01*
X178678572Y-47942913D02*
X178583334Y-47990532D01*
X110690476Y-97954819D02*
X110690476Y-96954819D01*
X110690476Y-96954819D02*
X111023809Y-97669104D01*
X111023809Y-97669104D02*
X111357142Y-96954819D01*
X111357142Y-96954819D02*
X111357142Y-97954819D01*
X112357142Y-97954819D02*
X111785714Y-97954819D01*
X112071428Y-97954819D02*
X112071428Y-96954819D01*
X112071428Y-96954819D02*
X111976190Y-97097676D01*
X111976190Y-97097676D02*
X111880952Y-97192914D01*
X111880952Y-97192914D02*
X111785714Y-97240533D01*
X172261905Y-51204819D02*
X172261905Y-50204819D01*
X172261905Y-50204819D02*
X172500000Y-50204819D01*
X172500000Y-50204819D02*
X172642857Y-50252438D01*
X172642857Y-50252438D02*
X172738095Y-50347676D01*
X172738095Y-50347676D02*
X172785714Y-50442914D01*
X172785714Y-50442914D02*
X172833333Y-50633390D01*
X172833333Y-50633390D02*
X172833333Y-50776247D01*
X172833333Y-50776247D02*
X172785714Y-50966723D01*
X172785714Y-50966723D02*
X172738095Y-51061961D01*
X172738095Y-51061961D02*
X172642857Y-51157200D01*
X172642857Y-51157200D02*
X172500000Y-51204819D01*
X172500000Y-51204819D02*
X172261905Y-51204819D01*
X173404762Y-50633390D02*
X173309524Y-50585771D01*
X173309524Y-50585771D02*
X173261905Y-50538152D01*
X173261905Y-50538152D02*
X173214286Y-50442914D01*
X173214286Y-50442914D02*
X173214286Y-50395295D01*
X173214286Y-50395295D02*
X173261905Y-50300057D01*
X173261905Y-50300057D02*
X173309524Y-50252438D01*
X173309524Y-50252438D02*
X173404762Y-50204819D01*
X173404762Y-50204819D02*
X173595238Y-50204819D01*
X173595238Y-50204819D02*
X173690476Y-50252438D01*
X173690476Y-50252438D02*
X173738095Y-50300057D01*
X173738095Y-50300057D02*
X173785714Y-50395295D01*
X173785714Y-50395295D02*
X173785714Y-50442914D01*
X173785714Y-50442914D02*
X173738095Y-50538152D01*
X173738095Y-50538152D02*
X173690476Y-50585771D01*
X173690476Y-50585771D02*
X173595238Y-50633390D01*
X173595238Y-50633390D02*
X173404762Y-50633390D01*
X173404762Y-50633390D02*
X173309524Y-50681009D01*
X173309524Y-50681009D02*
X173261905Y-50728628D01*
X173261905Y-50728628D02*
X173214286Y-50823866D01*
X173214286Y-50823866D02*
X173214286Y-51014342D01*
X173214286Y-51014342D02*
X173261905Y-51109580D01*
X173261905Y-51109580D02*
X173309524Y-51157200D01*
X173309524Y-51157200D02*
X173404762Y-51204819D01*
X173404762Y-51204819D02*
X173595238Y-51204819D01*
X173595238Y-51204819D02*
X173690476Y-51157200D01*
X173690476Y-51157200D02*
X173738095Y-51109580D01*
X173738095Y-51109580D02*
X173785714Y-51014342D01*
X173785714Y-51014342D02*
X173785714Y-50823866D01*
X173785714Y-50823866D02*
X173738095Y-50728628D01*
X173738095Y-50728628D02*
X173690476Y-50681009D01*
X173690476Y-50681009D02*
X173595238Y-50633390D01*
X197166666Y-78954819D02*
X197166666Y-79669104D01*
X197166666Y-79669104D02*
X197119047Y-79811961D01*
X197119047Y-79811961D02*
X197023809Y-79907200D01*
X197023809Y-79907200D02*
X196880952Y-79954819D01*
X196880952Y-79954819D02*
X196785714Y-79954819D01*
X197547619Y-78954819D02*
X198166666Y-78954819D01*
X198166666Y-78954819D02*
X197833333Y-79335771D01*
X197833333Y-79335771D02*
X197976190Y-79335771D01*
X197976190Y-79335771D02*
X198071428Y-79383390D01*
X198071428Y-79383390D02*
X198119047Y-79431009D01*
X198119047Y-79431009D02*
X198166666Y-79526247D01*
X198166666Y-79526247D02*
X198166666Y-79764342D01*
X198166666Y-79764342D02*
X198119047Y-79859580D01*
X198119047Y-79859580D02*
X198071428Y-79907200D01*
X198071428Y-79907200D02*
X197976190Y-79954819D01*
X197976190Y-79954819D02*
X197690476Y-79954819D01*
X197690476Y-79954819D02*
X197595238Y-79907200D01*
X197595238Y-79907200D02*
X197547619Y-79859580D01*
X197166666Y-93954819D02*
X197166666Y-94669104D01*
X197166666Y-94669104D02*
X197119047Y-94811961D01*
X197119047Y-94811961D02*
X197023809Y-94907200D01*
X197023809Y-94907200D02*
X196880952Y-94954819D01*
X196880952Y-94954819D02*
X196785714Y-94954819D01*
X197595238Y-94050057D02*
X197642857Y-94002438D01*
X197642857Y-94002438D02*
X197738095Y-93954819D01*
X197738095Y-93954819D02*
X197976190Y-93954819D01*
X197976190Y-93954819D02*
X198071428Y-94002438D01*
X198071428Y-94002438D02*
X198119047Y-94050057D01*
X198119047Y-94050057D02*
X198166666Y-94145295D01*
X198166666Y-94145295D02*
X198166666Y-94240533D01*
X198166666Y-94240533D02*
X198119047Y-94383390D01*
X198119047Y-94383390D02*
X197547619Y-94954819D01*
X197547619Y-94954819D02*
X198166666Y-94954819D01*
X157181905Y-51204819D02*
X157181905Y-50204819D01*
X157181905Y-50204819D02*
X157420000Y-50204819D01*
X157420000Y-50204819D02*
X157562857Y-50252438D01*
X157562857Y-50252438D02*
X157658095Y-50347676D01*
X157658095Y-50347676D02*
X157705714Y-50442914D01*
X157705714Y-50442914D02*
X157753333Y-50633390D01*
X157753333Y-50633390D02*
X157753333Y-50776247D01*
X157753333Y-50776247D02*
X157705714Y-50966723D01*
X157705714Y-50966723D02*
X157658095Y-51061961D01*
X157658095Y-51061961D02*
X157562857Y-51157200D01*
X157562857Y-51157200D02*
X157420000Y-51204819D01*
X157420000Y-51204819D02*
X157181905Y-51204819D01*
X158229524Y-51204819D02*
X158420000Y-51204819D01*
X158420000Y-51204819D02*
X158515238Y-51157200D01*
X158515238Y-51157200D02*
X158562857Y-51109580D01*
X158562857Y-51109580D02*
X158658095Y-50966723D01*
X158658095Y-50966723D02*
X158705714Y-50776247D01*
X158705714Y-50776247D02*
X158705714Y-50395295D01*
X158705714Y-50395295D02*
X158658095Y-50300057D01*
X158658095Y-50300057D02*
X158610476Y-50252438D01*
X158610476Y-50252438D02*
X158515238Y-50204819D01*
X158515238Y-50204819D02*
X158324762Y-50204819D01*
X158324762Y-50204819D02*
X158229524Y-50252438D01*
X158229524Y-50252438D02*
X158181905Y-50300057D01*
X158181905Y-50300057D02*
X158134286Y-50395295D01*
X158134286Y-50395295D02*
X158134286Y-50633390D01*
X158134286Y-50633390D02*
X158181905Y-50728628D01*
X158181905Y-50728628D02*
X158229524Y-50776247D01*
X158229524Y-50776247D02*
X158324762Y-50823866D01*
X158324762Y-50823866D02*
X158515238Y-50823866D01*
X158515238Y-50823866D02*
X158610476Y-50776247D01*
X158610476Y-50776247D02*
X158658095Y-50728628D01*
X158658095Y-50728628D02*
X158705714Y-50633390D01*
X179836009Y-126413333D02*
X179836009Y-126746666D01*
X180359819Y-126746666D02*
X179359819Y-126746666D01*
X179359819Y-126746666D02*
X179359819Y-126270476D01*
X180359819Y-125365714D02*
X180359819Y-125937142D01*
X180359819Y-125651428D02*
X179359819Y-125651428D01*
X179359819Y-125651428D02*
X179502676Y-125746666D01*
X179502676Y-125746666D02*
X179597914Y-125841904D01*
X179597914Y-125841904D02*
X179645533Y-125937142D01*
X172204819Y-79964285D02*
X171204819Y-79964285D01*
X171204819Y-79964285D02*
X171204819Y-79726190D01*
X171204819Y-79726190D02*
X171252438Y-79583333D01*
X171252438Y-79583333D02*
X171347676Y-79488095D01*
X171347676Y-79488095D02*
X171442914Y-79440476D01*
X171442914Y-79440476D02*
X171633390Y-79392857D01*
X171633390Y-79392857D02*
X171776247Y-79392857D01*
X171776247Y-79392857D02*
X171966723Y-79440476D01*
X171966723Y-79440476D02*
X172061961Y-79488095D01*
X172061961Y-79488095D02*
X172157200Y-79583333D01*
X172157200Y-79583333D02*
X172204819Y-79726190D01*
X172204819Y-79726190D02*
X172204819Y-79964285D01*
X172204819Y-78440476D02*
X172204819Y-79011904D01*
X172204819Y-78726190D02*
X171204819Y-78726190D01*
X171204819Y-78726190D02*
X171347676Y-78821428D01*
X171347676Y-78821428D02*
X171442914Y-78916666D01*
X171442914Y-78916666D02*
X171490533Y-79011904D01*
X171300057Y-78059523D02*
X171252438Y-78011904D01*
X171252438Y-78011904D02*
X171204819Y-77916666D01*
X171204819Y-77916666D02*
X171204819Y-77678571D01*
X171204819Y-77678571D02*
X171252438Y-77583333D01*
X171252438Y-77583333D02*
X171300057Y-77535714D01*
X171300057Y-77535714D02*
X171395295Y-77488095D01*
X171395295Y-77488095D02*
X171490533Y-77488095D01*
X171490533Y-77488095D02*
X171633390Y-77535714D01*
X171633390Y-77535714D02*
X172204819Y-78107142D01*
X172204819Y-78107142D02*
X172204819Y-77488095D01*
X201166666Y-51954819D02*
X201166666Y-52669104D01*
X201166666Y-52669104D02*
X201119047Y-52811961D01*
X201119047Y-52811961D02*
X201023809Y-52907200D01*
X201023809Y-52907200D02*
X200880952Y-52954819D01*
X200880952Y-52954819D02*
X200785714Y-52954819D01*
X202071428Y-51954819D02*
X201880952Y-51954819D01*
X201880952Y-51954819D02*
X201785714Y-52002438D01*
X201785714Y-52002438D02*
X201738095Y-52050057D01*
X201738095Y-52050057D02*
X201642857Y-52192914D01*
X201642857Y-52192914D02*
X201595238Y-52383390D01*
X201595238Y-52383390D02*
X201595238Y-52764342D01*
X201595238Y-52764342D02*
X201642857Y-52859580D01*
X201642857Y-52859580D02*
X201690476Y-52907200D01*
X201690476Y-52907200D02*
X201785714Y-52954819D01*
X201785714Y-52954819D02*
X201976190Y-52954819D01*
X201976190Y-52954819D02*
X202071428Y-52907200D01*
X202071428Y-52907200D02*
X202119047Y-52859580D01*
X202119047Y-52859580D02*
X202166666Y-52764342D01*
X202166666Y-52764342D02*
X202166666Y-52526247D01*
X202166666Y-52526247D02*
X202119047Y-52431009D01*
X202119047Y-52431009D02*
X202071428Y-52383390D01*
X202071428Y-52383390D02*
X201976190Y-52335771D01*
X201976190Y-52335771D02*
X201785714Y-52335771D01*
X201785714Y-52335771D02*
X201690476Y-52383390D01*
X201690476Y-52383390D02*
X201642857Y-52431009D01*
X201642857Y-52431009D02*
X201595238Y-52526247D01*
D12*
X197178328Y-61785714D02*
X195678328Y-61785714D01*
X195678328Y-61785714D02*
X195678328Y-61214285D01*
X195678328Y-61214285D02*
X195749757Y-61071428D01*
X195749757Y-61071428D02*
X195821185Y-60999999D01*
X195821185Y-60999999D02*
X195964042Y-60928571D01*
X195964042Y-60928571D02*
X196178328Y-60928571D01*
X196178328Y-60928571D02*
X196321185Y-60999999D01*
X196321185Y-60999999D02*
X196392614Y-61071428D01*
X196392614Y-61071428D02*
X196464042Y-61214285D01*
X196464042Y-61214285D02*
X196464042Y-61785714D01*
X197178328Y-60285714D02*
X196178328Y-60285714D01*
X196464042Y-60285714D02*
X196321185Y-60214285D01*
X196321185Y-60214285D02*
X196249757Y-60142857D01*
X196249757Y-60142857D02*
X196178328Y-59999999D01*
X196178328Y-59999999D02*
X196178328Y-59857142D01*
X197178328Y-59142857D02*
X197106900Y-59285714D01*
X197106900Y-59285714D02*
X197035471Y-59357143D01*
X197035471Y-59357143D02*
X196892614Y-59428571D01*
X196892614Y-59428571D02*
X196464042Y-59428571D01*
X196464042Y-59428571D02*
X196321185Y-59357143D01*
X196321185Y-59357143D02*
X196249757Y-59285714D01*
X196249757Y-59285714D02*
X196178328Y-59142857D01*
X196178328Y-59142857D02*
X196178328Y-58928571D01*
X196178328Y-58928571D02*
X196249757Y-58785714D01*
X196249757Y-58785714D02*
X196321185Y-58714286D01*
X196321185Y-58714286D02*
X196464042Y-58642857D01*
X196464042Y-58642857D02*
X196892614Y-58642857D01*
X196892614Y-58642857D02*
X197035471Y-58714286D01*
X197035471Y-58714286D02*
X197106900Y-58785714D01*
X197106900Y-58785714D02*
X197178328Y-58928571D01*
X197178328Y-58928571D02*
X197178328Y-59142857D01*
X197178328Y-58142857D02*
X196178328Y-57357143D01*
X196178328Y-58142857D02*
X197178328Y-57357143D01*
X197178328Y-56785714D02*
X196178328Y-56785714D01*
X195678328Y-56785714D02*
X195749757Y-56857142D01*
X195749757Y-56857142D02*
X195821185Y-56785714D01*
X195821185Y-56785714D02*
X195749757Y-56714285D01*
X195749757Y-56714285D02*
X195678328Y-56785714D01*
X195678328Y-56785714D02*
X195821185Y-56785714D01*
X195821185Y-54999999D02*
X195749757Y-54928571D01*
X195749757Y-54928571D02*
X195678328Y-54785714D01*
X195678328Y-54785714D02*
X195678328Y-54428571D01*
X195678328Y-54428571D02*
X195749757Y-54285714D01*
X195749757Y-54285714D02*
X195821185Y-54214285D01*
X195821185Y-54214285D02*
X195964042Y-54142856D01*
X195964042Y-54142856D02*
X196106900Y-54142856D01*
X196106900Y-54142856D02*
X196321185Y-54214285D01*
X196321185Y-54214285D02*
X197178328Y-55071428D01*
X197178328Y-55071428D02*
X197178328Y-54142856D01*
D10*
X115511905Y-85204819D02*
X115511905Y-84204819D01*
X115511905Y-84204819D02*
X115750000Y-84204819D01*
X115750000Y-84204819D02*
X115892857Y-84252438D01*
X115892857Y-84252438D02*
X115988095Y-84347676D01*
X115988095Y-84347676D02*
X116035714Y-84442914D01*
X116035714Y-84442914D02*
X116083333Y-84633390D01*
X116083333Y-84633390D02*
X116083333Y-84776247D01*
X116083333Y-84776247D02*
X116035714Y-84966723D01*
X116035714Y-84966723D02*
X115988095Y-85061961D01*
X115988095Y-85061961D02*
X115892857Y-85157200D01*
X115892857Y-85157200D02*
X115750000Y-85204819D01*
X115750000Y-85204819D02*
X115511905Y-85204819D01*
X116464286Y-84300057D02*
X116511905Y-84252438D01*
X116511905Y-84252438D02*
X116607143Y-84204819D01*
X116607143Y-84204819D02*
X116845238Y-84204819D01*
X116845238Y-84204819D02*
X116940476Y-84252438D01*
X116940476Y-84252438D02*
X116988095Y-84300057D01*
X116988095Y-84300057D02*
X117035714Y-84395295D01*
X117035714Y-84395295D02*
X117035714Y-84490533D01*
X117035714Y-84490533D02*
X116988095Y-84633390D01*
X116988095Y-84633390D02*
X116416667Y-85204819D01*
X116416667Y-85204819D02*
X117035714Y-85204819D01*
X111354819Y-85881904D02*
X110354819Y-85881904D01*
X111354819Y-85310476D02*
X110783390Y-85739047D01*
X110354819Y-85310476D02*
X110926247Y-85881904D01*
X189833333Y-85859580D02*
X189785714Y-85907200D01*
X189785714Y-85907200D02*
X189642857Y-85954819D01*
X189642857Y-85954819D02*
X189547619Y-85954819D01*
X189547619Y-85954819D02*
X189404762Y-85907200D01*
X189404762Y-85907200D02*
X189309524Y-85811961D01*
X189309524Y-85811961D02*
X189261905Y-85716723D01*
X189261905Y-85716723D02*
X189214286Y-85526247D01*
X189214286Y-85526247D02*
X189214286Y-85383390D01*
X189214286Y-85383390D02*
X189261905Y-85192914D01*
X189261905Y-85192914D02*
X189309524Y-85097676D01*
X189309524Y-85097676D02*
X189404762Y-85002438D01*
X189404762Y-85002438D02*
X189547619Y-84954819D01*
X189547619Y-84954819D02*
X189642857Y-84954819D01*
X189642857Y-84954819D02*
X189785714Y-85002438D01*
X189785714Y-85002438D02*
X189833333Y-85050057D01*
X190166667Y-84954819D02*
X190785714Y-84954819D01*
X190785714Y-84954819D02*
X190452381Y-85335771D01*
X190452381Y-85335771D02*
X190595238Y-85335771D01*
X190595238Y-85335771D02*
X190690476Y-85383390D01*
X190690476Y-85383390D02*
X190738095Y-85431009D01*
X190738095Y-85431009D02*
X190785714Y-85526247D01*
X190785714Y-85526247D02*
X190785714Y-85764342D01*
X190785714Y-85764342D02*
X190738095Y-85859580D01*
X190738095Y-85859580D02*
X190690476Y-85907200D01*
X190690476Y-85907200D02*
X190595238Y-85954819D01*
X190595238Y-85954819D02*
X190309524Y-85954819D01*
X190309524Y-85954819D02*
X190214286Y-85907200D01*
X190214286Y-85907200D02*
X190166667Y-85859580D01*
X173248095Y-87824819D02*
X173248095Y-88634342D01*
X173248095Y-88634342D02*
X173295714Y-88729580D01*
X173295714Y-88729580D02*
X173343333Y-88777200D01*
X173343333Y-88777200D02*
X173438571Y-88824819D01*
X173438571Y-88824819D02*
X173629047Y-88824819D01*
X173629047Y-88824819D02*
X173724285Y-88777200D01*
X173724285Y-88777200D02*
X173771904Y-88729580D01*
X173771904Y-88729580D02*
X173819523Y-88634342D01*
X173819523Y-88634342D02*
X173819523Y-87824819D01*
X174248095Y-87920057D02*
X174295714Y-87872438D01*
X174295714Y-87872438D02*
X174390952Y-87824819D01*
X174390952Y-87824819D02*
X174629047Y-87824819D01*
X174629047Y-87824819D02*
X174724285Y-87872438D01*
X174724285Y-87872438D02*
X174771904Y-87920057D01*
X174771904Y-87920057D02*
X174819523Y-88015295D01*
X174819523Y-88015295D02*
X174819523Y-88110533D01*
X174819523Y-88110533D02*
X174771904Y-88253390D01*
X174771904Y-88253390D02*
X174200476Y-88824819D01*
X174200476Y-88824819D02*
X174819523Y-88824819D01*
X194454819Y-130238094D02*
X193454819Y-130238094D01*
X193454819Y-130238094D02*
X193454819Y-129999999D01*
X193454819Y-129999999D02*
X193502438Y-129857142D01*
X193502438Y-129857142D02*
X193597676Y-129761904D01*
X193597676Y-129761904D02*
X193692914Y-129714285D01*
X193692914Y-129714285D02*
X193883390Y-129666666D01*
X193883390Y-129666666D02*
X194026247Y-129666666D01*
X194026247Y-129666666D02*
X194216723Y-129714285D01*
X194216723Y-129714285D02*
X194311961Y-129761904D01*
X194311961Y-129761904D02*
X194407200Y-129857142D01*
X194407200Y-129857142D02*
X194454819Y-129999999D01*
X194454819Y-129999999D02*
X194454819Y-130238094D01*
X194454819Y-128714285D02*
X194454819Y-129285713D01*
X194454819Y-128999999D02*
X193454819Y-128999999D01*
X193454819Y-128999999D02*
X193597676Y-129095237D01*
X193597676Y-129095237D02*
X193692914Y-129190475D01*
X193692914Y-129190475D02*
X193740533Y-129285713D01*
X192154819Y-126881904D02*
X191154819Y-126881904D01*
X192154819Y-126310476D02*
X191583390Y-126739047D01*
X191154819Y-126310476D02*
X191726247Y-126881904D01*
X141166666Y-74454819D02*
X141166666Y-75169104D01*
X141166666Y-75169104D02*
X141119047Y-75311961D01*
X141119047Y-75311961D02*
X141023809Y-75407200D01*
X141023809Y-75407200D02*
X140880952Y-75454819D01*
X140880952Y-75454819D02*
X140785714Y-75454819D01*
X141785714Y-74883390D02*
X141690476Y-74835771D01*
X141690476Y-74835771D02*
X141642857Y-74788152D01*
X141642857Y-74788152D02*
X141595238Y-74692914D01*
X141595238Y-74692914D02*
X141595238Y-74645295D01*
X141595238Y-74645295D02*
X141642857Y-74550057D01*
X141642857Y-74550057D02*
X141690476Y-74502438D01*
X141690476Y-74502438D02*
X141785714Y-74454819D01*
X141785714Y-74454819D02*
X141976190Y-74454819D01*
X141976190Y-74454819D02*
X142071428Y-74502438D01*
X142071428Y-74502438D02*
X142119047Y-74550057D01*
X142119047Y-74550057D02*
X142166666Y-74645295D01*
X142166666Y-74645295D02*
X142166666Y-74692914D01*
X142166666Y-74692914D02*
X142119047Y-74788152D01*
X142119047Y-74788152D02*
X142071428Y-74835771D01*
X142071428Y-74835771D02*
X141976190Y-74883390D01*
X141976190Y-74883390D02*
X141785714Y-74883390D01*
X141785714Y-74883390D02*
X141690476Y-74931009D01*
X141690476Y-74931009D02*
X141642857Y-74978628D01*
X141642857Y-74978628D02*
X141595238Y-75073866D01*
X141595238Y-75073866D02*
X141595238Y-75264342D01*
X141595238Y-75264342D02*
X141642857Y-75359580D01*
X141642857Y-75359580D02*
X141690476Y-75407200D01*
X141690476Y-75407200D02*
X141785714Y-75454819D01*
X141785714Y-75454819D02*
X141976190Y-75454819D01*
X141976190Y-75454819D02*
X142071428Y-75407200D01*
X142071428Y-75407200D02*
X142119047Y-75359580D01*
X142119047Y-75359580D02*
X142166666Y-75264342D01*
X142166666Y-75264342D02*
X142166666Y-75073866D01*
X142166666Y-75073866D02*
X142119047Y-74978628D01*
X142119047Y-74978628D02*
X142071428Y-74931009D01*
X142071428Y-74931009D02*
X141976190Y-74883390D01*
X148214286Y-75704819D02*
X148214286Y-74704819D01*
X148214286Y-74704819D02*
X148595238Y-74704819D01*
X148595238Y-74704819D02*
X148690476Y-74752438D01*
X148690476Y-74752438D02*
X148738095Y-74800057D01*
X148738095Y-74800057D02*
X148785714Y-74895295D01*
X148785714Y-74895295D02*
X148785714Y-75038152D01*
X148785714Y-75038152D02*
X148738095Y-75133390D01*
X148738095Y-75133390D02*
X148690476Y-75181009D01*
X148690476Y-75181009D02*
X148595238Y-75228628D01*
X148595238Y-75228628D02*
X148214286Y-75228628D01*
X149785714Y-75704819D02*
X149452381Y-75228628D01*
X149214286Y-75704819D02*
X149214286Y-74704819D01*
X149214286Y-74704819D02*
X149595238Y-74704819D01*
X149595238Y-74704819D02*
X149690476Y-74752438D01*
X149690476Y-74752438D02*
X149738095Y-74800057D01*
X149738095Y-74800057D02*
X149785714Y-74895295D01*
X149785714Y-74895295D02*
X149785714Y-75038152D01*
X149785714Y-75038152D02*
X149738095Y-75133390D01*
X149738095Y-75133390D02*
X149690476Y-75181009D01*
X149690476Y-75181009D02*
X149595238Y-75228628D01*
X149595238Y-75228628D02*
X149214286Y-75228628D01*
X150404762Y-74704819D02*
X150595238Y-74704819D01*
X150595238Y-74704819D02*
X150690476Y-74752438D01*
X150690476Y-74752438D02*
X150785714Y-74847676D01*
X150785714Y-74847676D02*
X150833333Y-75038152D01*
X150833333Y-75038152D02*
X150833333Y-75371485D01*
X150833333Y-75371485D02*
X150785714Y-75561961D01*
X150785714Y-75561961D02*
X150690476Y-75657200D01*
X150690476Y-75657200D02*
X150595238Y-75704819D01*
X150595238Y-75704819D02*
X150404762Y-75704819D01*
X150404762Y-75704819D02*
X150309524Y-75657200D01*
X150309524Y-75657200D02*
X150214286Y-75561961D01*
X150214286Y-75561961D02*
X150166667Y-75371485D01*
X150166667Y-75371485D02*
X150166667Y-75038152D01*
X150166667Y-75038152D02*
X150214286Y-74847676D01*
X150214286Y-74847676D02*
X150309524Y-74752438D01*
X150309524Y-74752438D02*
X150404762Y-74704819D01*
X151785714Y-74752438D02*
X151690476Y-74704819D01*
X151690476Y-74704819D02*
X151547619Y-74704819D01*
X151547619Y-74704819D02*
X151404762Y-74752438D01*
X151404762Y-74752438D02*
X151309524Y-74847676D01*
X151309524Y-74847676D02*
X151261905Y-74942914D01*
X151261905Y-74942914D02*
X151214286Y-75133390D01*
X151214286Y-75133390D02*
X151214286Y-75276247D01*
X151214286Y-75276247D02*
X151261905Y-75466723D01*
X151261905Y-75466723D02*
X151309524Y-75561961D01*
X151309524Y-75561961D02*
X151404762Y-75657200D01*
X151404762Y-75657200D02*
X151547619Y-75704819D01*
X151547619Y-75704819D02*
X151642857Y-75704819D01*
X151642857Y-75704819D02*
X151785714Y-75657200D01*
X151785714Y-75657200D02*
X151833333Y-75609580D01*
X151833333Y-75609580D02*
X151833333Y-75276247D01*
X151833333Y-75276247D02*
X151642857Y-75276247D01*
X127285714Y-50954819D02*
X127285714Y-49954819D01*
X127285714Y-49954819D02*
X127523809Y-49954819D01*
X127523809Y-49954819D02*
X127666666Y-50002438D01*
X127666666Y-50002438D02*
X127761904Y-50097676D01*
X127761904Y-50097676D02*
X127809523Y-50192914D01*
X127809523Y-50192914D02*
X127857142Y-50383390D01*
X127857142Y-50383390D02*
X127857142Y-50526247D01*
X127857142Y-50526247D02*
X127809523Y-50716723D01*
X127809523Y-50716723D02*
X127761904Y-50811961D01*
X127761904Y-50811961D02*
X127666666Y-50907200D01*
X127666666Y-50907200D02*
X127523809Y-50954819D01*
X127523809Y-50954819D02*
X127285714Y-50954819D01*
X128809523Y-50954819D02*
X128238095Y-50954819D01*
X128523809Y-50954819D02*
X128523809Y-49954819D01*
X128523809Y-49954819D02*
X128428571Y-50097676D01*
X128428571Y-50097676D02*
X128333333Y-50192914D01*
X128333333Y-50192914D02*
X128238095Y-50240533D01*
X129428571Y-49954819D02*
X129523809Y-49954819D01*
X129523809Y-49954819D02*
X129619047Y-50002438D01*
X129619047Y-50002438D02*
X129666666Y-50050057D01*
X129666666Y-50050057D02*
X129714285Y-50145295D01*
X129714285Y-50145295D02*
X129761904Y-50335771D01*
X129761904Y-50335771D02*
X129761904Y-50573866D01*
X129761904Y-50573866D02*
X129714285Y-50764342D01*
X129714285Y-50764342D02*
X129666666Y-50859580D01*
X129666666Y-50859580D02*
X129619047Y-50907200D01*
X129619047Y-50907200D02*
X129523809Y-50954819D01*
X129523809Y-50954819D02*
X129428571Y-50954819D01*
X129428571Y-50954819D02*
X129333333Y-50907200D01*
X129333333Y-50907200D02*
X129285714Y-50859580D01*
X129285714Y-50859580D02*
X129238095Y-50764342D01*
X129238095Y-50764342D02*
X129190476Y-50573866D01*
X129190476Y-50573866D02*
X129190476Y-50335771D01*
X129190476Y-50335771D02*
X129238095Y-50145295D01*
X129238095Y-50145295D02*
X129285714Y-50050057D01*
X129285714Y-50050057D02*
X129333333Y-50002438D01*
X129333333Y-50002438D02*
X129428571Y-49954819D01*
X149204819Y-44559523D02*
X149919104Y-44559523D01*
X149919104Y-44559523D02*
X150061961Y-44607142D01*
X150061961Y-44607142D02*
X150157200Y-44702380D01*
X150157200Y-44702380D02*
X150204819Y-44845237D01*
X150204819Y-44845237D02*
X150204819Y-44940475D01*
X150204819Y-43559523D02*
X150204819Y-44130951D01*
X150204819Y-43845237D02*
X149204819Y-43845237D01*
X149204819Y-43845237D02*
X149347676Y-43940475D01*
X149347676Y-43940475D02*
X149442914Y-44035713D01*
X149442914Y-44035713D02*
X149490533Y-44130951D01*
X150204819Y-42607142D02*
X150204819Y-43178570D01*
X150204819Y-42892856D02*
X149204819Y-42892856D01*
X149204819Y-42892856D02*
X149347676Y-42988094D01*
X149347676Y-42988094D02*
X149442914Y-43083332D01*
X149442914Y-43083332D02*
X149490533Y-43178570D01*
X157726190Y-48181008D02*
X157869047Y-48228627D01*
X157869047Y-48228627D02*
X157916666Y-48276246D01*
X157916666Y-48276246D02*
X157964285Y-48371484D01*
X157964285Y-48371484D02*
X157964285Y-48514341D01*
X157964285Y-48514341D02*
X157916666Y-48609579D01*
X157916666Y-48609579D02*
X157869047Y-48657199D01*
X157869047Y-48657199D02*
X157773809Y-48704818D01*
X157773809Y-48704818D02*
X157392857Y-48704818D01*
X157392857Y-48704818D02*
X157392857Y-47704818D01*
X157392857Y-47704818D02*
X157726190Y-47704818D01*
X157726190Y-47704818D02*
X157821428Y-47752437D01*
X157821428Y-47752437D02*
X157869047Y-47800056D01*
X157869047Y-47800056D02*
X157916666Y-47895294D01*
X157916666Y-47895294D02*
X157916666Y-47990532D01*
X157916666Y-47990532D02*
X157869047Y-48085770D01*
X157869047Y-48085770D02*
X157821428Y-48133389D01*
X157821428Y-48133389D02*
X157726190Y-48181008D01*
X157726190Y-48181008D02*
X157392857Y-48181008D01*
X158250000Y-48038151D02*
X158630952Y-48038151D01*
X158392857Y-47704818D02*
X158392857Y-48561960D01*
X158392857Y-48561960D02*
X158440476Y-48657199D01*
X158440476Y-48657199D02*
X158535714Y-48704818D01*
X158535714Y-48704818D02*
X158630952Y-48704818D01*
X158964286Y-48038151D02*
X158964286Y-48704818D01*
X158964286Y-48133389D02*
X159011905Y-48085770D01*
X159011905Y-48085770D02*
X159107143Y-48038151D01*
X159107143Y-48038151D02*
X159250000Y-48038151D01*
X159250000Y-48038151D02*
X159345238Y-48085770D01*
X159345238Y-48085770D02*
X159392857Y-48181008D01*
X159392857Y-48181008D02*
X159392857Y-48704818D01*
X159630953Y-48800056D02*
X160392857Y-48800056D01*
X160630953Y-47704818D02*
X160630953Y-48514341D01*
X160630953Y-48514341D02*
X160678572Y-48609579D01*
X160678572Y-48609579D02*
X160726191Y-48657199D01*
X160726191Y-48657199D02*
X160821429Y-48704818D01*
X160821429Y-48704818D02*
X161011905Y-48704818D01*
X161011905Y-48704818D02*
X161107143Y-48657199D01*
X161107143Y-48657199D02*
X161154762Y-48609579D01*
X161154762Y-48609579D02*
X161202381Y-48514341D01*
X161202381Y-48514341D02*
X161202381Y-47704818D01*
X161630953Y-48657199D02*
X161773810Y-48704818D01*
X161773810Y-48704818D02*
X162011905Y-48704818D01*
X162011905Y-48704818D02*
X162107143Y-48657199D01*
X162107143Y-48657199D02*
X162154762Y-48609579D01*
X162154762Y-48609579D02*
X162202381Y-48514341D01*
X162202381Y-48514341D02*
X162202381Y-48419103D01*
X162202381Y-48419103D02*
X162154762Y-48323865D01*
X162154762Y-48323865D02*
X162107143Y-48276246D01*
X162107143Y-48276246D02*
X162011905Y-48228627D01*
X162011905Y-48228627D02*
X161821429Y-48181008D01*
X161821429Y-48181008D02*
X161726191Y-48133389D01*
X161726191Y-48133389D02*
X161678572Y-48085770D01*
X161678572Y-48085770D02*
X161630953Y-47990532D01*
X161630953Y-47990532D02*
X161630953Y-47895294D01*
X161630953Y-47895294D02*
X161678572Y-47800056D01*
X161678572Y-47800056D02*
X161726191Y-47752437D01*
X161726191Y-47752437D02*
X161821429Y-47704818D01*
X161821429Y-47704818D02*
X162059524Y-47704818D01*
X162059524Y-47704818D02*
X162202381Y-47752437D01*
X163202381Y-48704818D02*
X162869048Y-48228627D01*
X162630953Y-48704818D02*
X162630953Y-47704818D01*
X162630953Y-47704818D02*
X163011905Y-47704818D01*
X163011905Y-47704818D02*
X163107143Y-47752437D01*
X163107143Y-47752437D02*
X163154762Y-47800056D01*
X163154762Y-47800056D02*
X163202381Y-47895294D01*
X163202381Y-47895294D02*
X163202381Y-48038151D01*
X163202381Y-48038151D02*
X163154762Y-48133389D01*
X163154762Y-48133389D02*
X163107143Y-48181008D01*
X163107143Y-48181008D02*
X163011905Y-48228627D01*
X163011905Y-48228627D02*
X162630953Y-48228627D01*
X163583334Y-47800056D02*
X163630953Y-47752437D01*
X163630953Y-47752437D02*
X163726191Y-47704818D01*
X163726191Y-47704818D02*
X163964286Y-47704818D01*
X163964286Y-47704818D02*
X164059524Y-47752437D01*
X164059524Y-47752437D02*
X164107143Y-47800056D01*
X164107143Y-47800056D02*
X164154762Y-47895294D01*
X164154762Y-47895294D02*
X164154762Y-47990532D01*
X164154762Y-47990532D02*
X164107143Y-48133389D01*
X164107143Y-48133389D02*
X163535715Y-48704818D01*
X163535715Y-48704818D02*
X164154762Y-48704818D01*
X174654819Y-79964285D02*
X173654819Y-79964285D01*
X173654819Y-79964285D02*
X173654819Y-79726190D01*
X173654819Y-79726190D02*
X173702438Y-79583333D01*
X173702438Y-79583333D02*
X173797676Y-79488095D01*
X173797676Y-79488095D02*
X173892914Y-79440476D01*
X173892914Y-79440476D02*
X174083390Y-79392857D01*
X174083390Y-79392857D02*
X174226247Y-79392857D01*
X174226247Y-79392857D02*
X174416723Y-79440476D01*
X174416723Y-79440476D02*
X174511961Y-79488095D01*
X174511961Y-79488095D02*
X174607200Y-79583333D01*
X174607200Y-79583333D02*
X174654819Y-79726190D01*
X174654819Y-79726190D02*
X174654819Y-79964285D01*
X174654819Y-78440476D02*
X174654819Y-79011904D01*
X174654819Y-78726190D02*
X173654819Y-78726190D01*
X173654819Y-78726190D02*
X173797676Y-78821428D01*
X173797676Y-78821428D02*
X173892914Y-78916666D01*
X173892914Y-78916666D02*
X173940533Y-79011904D01*
X174654819Y-77488095D02*
X174654819Y-78059523D01*
X174654819Y-77773809D02*
X173654819Y-77773809D01*
X173654819Y-77773809D02*
X173797676Y-77869047D01*
X173797676Y-77869047D02*
X173892914Y-77964285D01*
X173892914Y-77964285D02*
X173940533Y-78059523D01*
X107488095Y-82454819D02*
X107488095Y-83264342D01*
X107488095Y-83264342D02*
X107535714Y-83359580D01*
X107535714Y-83359580D02*
X107583333Y-83407200D01*
X107583333Y-83407200D02*
X107678571Y-83454819D01*
X107678571Y-83454819D02*
X107869047Y-83454819D01*
X107869047Y-83454819D02*
X107964285Y-83407200D01*
X107964285Y-83407200D02*
X108011904Y-83359580D01*
X108011904Y-83359580D02*
X108059523Y-83264342D01*
X108059523Y-83264342D02*
X108059523Y-82454819D01*
X109011904Y-82454819D02*
X108535714Y-82454819D01*
X108535714Y-82454819D02*
X108488095Y-82931009D01*
X108488095Y-82931009D02*
X108535714Y-82883390D01*
X108535714Y-82883390D02*
X108630952Y-82835771D01*
X108630952Y-82835771D02*
X108869047Y-82835771D01*
X108869047Y-82835771D02*
X108964285Y-82883390D01*
X108964285Y-82883390D02*
X109011904Y-82931009D01*
X109011904Y-82931009D02*
X109059523Y-83026247D01*
X109059523Y-83026247D02*
X109059523Y-83264342D01*
X109059523Y-83264342D02*
X109011904Y-83359580D01*
X109011904Y-83359580D02*
X108964285Y-83407200D01*
X108964285Y-83407200D02*
X108869047Y-83454819D01*
X108869047Y-83454819D02*
X108630952Y-83454819D01*
X108630952Y-83454819D02*
X108535714Y-83407200D01*
X108535714Y-83407200D02*
X108488095Y-83359580D01*
X134204819Y-44559523D02*
X134919104Y-44559523D01*
X134919104Y-44559523D02*
X135061961Y-44607142D01*
X135061961Y-44607142D02*
X135157200Y-44702380D01*
X135157200Y-44702380D02*
X135204819Y-44845237D01*
X135204819Y-44845237D02*
X135204819Y-44940475D01*
X135204819Y-43559523D02*
X135204819Y-44130951D01*
X135204819Y-43845237D02*
X134204819Y-43845237D01*
X134204819Y-43845237D02*
X134347676Y-43940475D01*
X134347676Y-43940475D02*
X134442914Y-44035713D01*
X134442914Y-44035713D02*
X134490533Y-44130951D01*
X134204819Y-42940475D02*
X134204819Y-42845237D01*
X134204819Y-42845237D02*
X134252438Y-42749999D01*
X134252438Y-42749999D02*
X134300057Y-42702380D01*
X134300057Y-42702380D02*
X134395295Y-42654761D01*
X134395295Y-42654761D02*
X134585771Y-42607142D01*
X134585771Y-42607142D02*
X134823866Y-42607142D01*
X134823866Y-42607142D02*
X135014342Y-42654761D01*
X135014342Y-42654761D02*
X135109580Y-42702380D01*
X135109580Y-42702380D02*
X135157200Y-42749999D01*
X135157200Y-42749999D02*
X135204819Y-42845237D01*
X135204819Y-42845237D02*
X135204819Y-42940475D01*
X135204819Y-42940475D02*
X135157200Y-43035713D01*
X135157200Y-43035713D02*
X135109580Y-43083332D01*
X135109580Y-43083332D02*
X135014342Y-43130951D01*
X135014342Y-43130951D02*
X134823866Y-43178570D01*
X134823866Y-43178570D02*
X134585771Y-43178570D01*
X134585771Y-43178570D02*
X134395295Y-43130951D01*
X134395295Y-43130951D02*
X134300057Y-43083332D01*
X134300057Y-43083332D02*
X134252438Y-43035713D01*
X134252438Y-43035713D02*
X134204819Y-42940475D01*
X142595237Y-48181009D02*
X142738094Y-48228628D01*
X142738094Y-48228628D02*
X142785713Y-48276247D01*
X142785713Y-48276247D02*
X142833332Y-48371485D01*
X142833332Y-48371485D02*
X142833332Y-48514342D01*
X142833332Y-48514342D02*
X142785713Y-48609580D01*
X142785713Y-48609580D02*
X142738094Y-48657200D01*
X142738094Y-48657200D02*
X142642856Y-48704819D01*
X142642856Y-48704819D02*
X142261904Y-48704819D01*
X142261904Y-48704819D02*
X142261904Y-47704819D01*
X142261904Y-47704819D02*
X142595237Y-47704819D01*
X142595237Y-47704819D02*
X142690475Y-47752438D01*
X142690475Y-47752438D02*
X142738094Y-47800057D01*
X142738094Y-47800057D02*
X142785713Y-47895295D01*
X142785713Y-47895295D02*
X142785713Y-47990533D01*
X142785713Y-47990533D02*
X142738094Y-48085771D01*
X142738094Y-48085771D02*
X142690475Y-48133390D01*
X142690475Y-48133390D02*
X142595237Y-48181009D01*
X142595237Y-48181009D02*
X142261904Y-48181009D01*
X143119047Y-48038152D02*
X143499999Y-48038152D01*
X143261904Y-47704819D02*
X143261904Y-48561961D01*
X143261904Y-48561961D02*
X143309523Y-48657200D01*
X143309523Y-48657200D02*
X143404761Y-48704819D01*
X143404761Y-48704819D02*
X143499999Y-48704819D01*
X143833333Y-48038152D02*
X143833333Y-48704819D01*
X143833333Y-48133390D02*
X143880952Y-48085771D01*
X143880952Y-48085771D02*
X143976190Y-48038152D01*
X143976190Y-48038152D02*
X144119047Y-48038152D01*
X144119047Y-48038152D02*
X144214285Y-48085771D01*
X144214285Y-48085771D02*
X144261904Y-48181009D01*
X144261904Y-48181009D02*
X144261904Y-48704819D01*
X144500000Y-48800057D02*
X145261904Y-48800057D01*
X146071428Y-48704819D02*
X145738095Y-48228628D01*
X145500000Y-48704819D02*
X145500000Y-47704819D01*
X145500000Y-47704819D02*
X145880952Y-47704819D01*
X145880952Y-47704819D02*
X145976190Y-47752438D01*
X145976190Y-47752438D02*
X146023809Y-47800057D01*
X146023809Y-47800057D02*
X146071428Y-47895295D01*
X146071428Y-47895295D02*
X146071428Y-48038152D01*
X146071428Y-48038152D02*
X146023809Y-48133390D01*
X146023809Y-48133390D02*
X145976190Y-48181009D01*
X145976190Y-48181009D02*
X145880952Y-48228628D01*
X145880952Y-48228628D02*
X145500000Y-48228628D01*
X146452381Y-48657200D02*
X146595238Y-48704819D01*
X146595238Y-48704819D02*
X146833333Y-48704819D01*
X146833333Y-48704819D02*
X146928571Y-48657200D01*
X146928571Y-48657200D02*
X146976190Y-48609580D01*
X146976190Y-48609580D02*
X147023809Y-48514342D01*
X147023809Y-48514342D02*
X147023809Y-48419104D01*
X147023809Y-48419104D02*
X146976190Y-48323866D01*
X146976190Y-48323866D02*
X146928571Y-48276247D01*
X146928571Y-48276247D02*
X146833333Y-48228628D01*
X146833333Y-48228628D02*
X146642857Y-48181009D01*
X146642857Y-48181009D02*
X146547619Y-48133390D01*
X146547619Y-48133390D02*
X146500000Y-48085771D01*
X146500000Y-48085771D02*
X146452381Y-47990533D01*
X146452381Y-47990533D02*
X146452381Y-47895295D01*
X146452381Y-47895295D02*
X146500000Y-47800057D01*
X146500000Y-47800057D02*
X146547619Y-47752438D01*
X146547619Y-47752438D02*
X146642857Y-47704819D01*
X146642857Y-47704819D02*
X146880952Y-47704819D01*
X146880952Y-47704819D02*
X147023809Y-47752438D01*
X147309524Y-47704819D02*
X147880952Y-47704819D01*
X147595238Y-48704819D02*
X147595238Y-47704819D01*
X121833333Y-80704819D02*
X121357143Y-80704819D01*
X121357143Y-80704819D02*
X121357143Y-79704819D01*
X122690476Y-80704819D02*
X122119048Y-80704819D01*
X122404762Y-80704819D02*
X122404762Y-79704819D01*
X122404762Y-79704819D02*
X122309524Y-79847676D01*
X122309524Y-79847676D02*
X122214286Y-79942914D01*
X122214286Y-79942914D02*
X122119048Y-79990533D01*
X127249819Y-68761904D02*
X128059342Y-68761904D01*
X128059342Y-68761904D02*
X128154580Y-68714285D01*
X128154580Y-68714285D02*
X128202200Y-68666666D01*
X128202200Y-68666666D02*
X128249819Y-68571428D01*
X128249819Y-68571428D02*
X128249819Y-68380952D01*
X128249819Y-68380952D02*
X128202200Y-68285714D01*
X128202200Y-68285714D02*
X128154580Y-68238095D01*
X128154580Y-68238095D02*
X128059342Y-68190476D01*
X128059342Y-68190476D02*
X127249819Y-68190476D01*
X127249819Y-67809523D02*
X127249819Y-67190476D01*
X127249819Y-67190476D02*
X127630771Y-67523809D01*
X127630771Y-67523809D02*
X127630771Y-67380952D01*
X127630771Y-67380952D02*
X127678390Y-67285714D01*
X127678390Y-67285714D02*
X127726009Y-67238095D01*
X127726009Y-67238095D02*
X127821247Y-67190476D01*
X127821247Y-67190476D02*
X128059342Y-67190476D01*
X128059342Y-67190476D02*
X128154580Y-67238095D01*
X128154580Y-67238095D02*
X128202200Y-67285714D01*
X128202200Y-67285714D02*
X128249819Y-67380952D01*
X128249819Y-67380952D02*
X128249819Y-67666666D01*
X128249819Y-67666666D02*
X128202200Y-67761904D01*
X128202200Y-67761904D02*
X128154580Y-67809523D01*
X201166666Y-62954819D02*
X201166666Y-63669104D01*
X201166666Y-63669104D02*
X201119047Y-63811961D01*
X201119047Y-63811961D02*
X201023809Y-63907200D01*
X201023809Y-63907200D02*
X200880952Y-63954819D01*
X200880952Y-63954819D02*
X200785714Y-63954819D01*
X202071428Y-63288152D02*
X202071428Y-63954819D01*
X201833333Y-62907200D02*
X201595238Y-63621485D01*
X201595238Y-63621485D02*
X202214285Y-63621485D01*
D12*
X197178328Y-72785714D02*
X195678328Y-72785714D01*
X195678328Y-72785714D02*
X195678328Y-72214285D01*
X195678328Y-72214285D02*
X195749757Y-72071428D01*
X195749757Y-72071428D02*
X195821185Y-71999999D01*
X195821185Y-71999999D02*
X195964042Y-71928571D01*
X195964042Y-71928571D02*
X196178328Y-71928571D01*
X196178328Y-71928571D02*
X196321185Y-71999999D01*
X196321185Y-71999999D02*
X196392614Y-72071428D01*
X196392614Y-72071428D02*
X196464042Y-72214285D01*
X196464042Y-72214285D02*
X196464042Y-72785714D01*
X197178328Y-71285714D02*
X196178328Y-71285714D01*
X196464042Y-71285714D02*
X196321185Y-71214285D01*
X196321185Y-71214285D02*
X196249757Y-71142857D01*
X196249757Y-71142857D02*
X196178328Y-70999999D01*
X196178328Y-70999999D02*
X196178328Y-70857142D01*
X197178328Y-70142857D02*
X197106900Y-70285714D01*
X197106900Y-70285714D02*
X197035471Y-70357143D01*
X197035471Y-70357143D02*
X196892614Y-70428571D01*
X196892614Y-70428571D02*
X196464042Y-70428571D01*
X196464042Y-70428571D02*
X196321185Y-70357143D01*
X196321185Y-70357143D02*
X196249757Y-70285714D01*
X196249757Y-70285714D02*
X196178328Y-70142857D01*
X196178328Y-70142857D02*
X196178328Y-69928571D01*
X196178328Y-69928571D02*
X196249757Y-69785714D01*
X196249757Y-69785714D02*
X196321185Y-69714286D01*
X196321185Y-69714286D02*
X196464042Y-69642857D01*
X196464042Y-69642857D02*
X196892614Y-69642857D01*
X196892614Y-69642857D02*
X197035471Y-69714286D01*
X197035471Y-69714286D02*
X197106900Y-69785714D01*
X197106900Y-69785714D02*
X197178328Y-69928571D01*
X197178328Y-69928571D02*
X197178328Y-70142857D01*
X197178328Y-69142857D02*
X196178328Y-68357143D01*
X196178328Y-69142857D02*
X197178328Y-68357143D01*
X197178328Y-67785714D02*
X196178328Y-67785714D01*
X195678328Y-67785714D02*
X195749757Y-67857142D01*
X195749757Y-67857142D02*
X195821185Y-67785714D01*
X195821185Y-67785714D02*
X195749757Y-67714285D01*
X195749757Y-67714285D02*
X195678328Y-67785714D01*
X195678328Y-67785714D02*
X195821185Y-67785714D01*
X197178328Y-65142856D02*
X197178328Y-65999999D01*
X197178328Y-65571428D02*
X195678328Y-65571428D01*
X195678328Y-65571428D02*
X195892614Y-65714285D01*
X195892614Y-65714285D02*
X196035471Y-65857142D01*
X196035471Y-65857142D02*
X196106900Y-65999999D01*
D10*
X197666666Y-112454819D02*
X197666666Y-113169104D01*
X197666666Y-113169104D02*
X197619047Y-113311961D01*
X197619047Y-113311961D02*
X197523809Y-113407200D01*
X197523809Y-113407200D02*
X197380952Y-113454819D01*
X197380952Y-113454819D02*
X197285714Y-113454819D01*
X198666666Y-113454819D02*
X198095238Y-113454819D01*
X198380952Y-113454819D02*
X198380952Y-112454819D01*
X198380952Y-112454819D02*
X198285714Y-112597676D01*
X198285714Y-112597676D02*
X198190476Y-112692914D01*
X198190476Y-112692914D02*
X198095238Y-112740533D01*
X132357142Y-75359580D02*
X132309523Y-75407200D01*
X132309523Y-75407200D02*
X132166666Y-75454819D01*
X132166666Y-75454819D02*
X132071428Y-75454819D01*
X132071428Y-75454819D02*
X131928571Y-75407200D01*
X131928571Y-75407200D02*
X131833333Y-75311961D01*
X131833333Y-75311961D02*
X131785714Y-75216723D01*
X131785714Y-75216723D02*
X131738095Y-75026247D01*
X131738095Y-75026247D02*
X131738095Y-74883390D01*
X131738095Y-74883390D02*
X131785714Y-74692914D01*
X131785714Y-74692914D02*
X131833333Y-74597676D01*
X131833333Y-74597676D02*
X131928571Y-74502438D01*
X131928571Y-74502438D02*
X132071428Y-74454819D01*
X132071428Y-74454819D02*
X132166666Y-74454819D01*
X132166666Y-74454819D02*
X132309523Y-74502438D01*
X132309523Y-74502438D02*
X132357142Y-74550057D01*
X132738095Y-74550057D02*
X132785714Y-74502438D01*
X132785714Y-74502438D02*
X132880952Y-74454819D01*
X132880952Y-74454819D02*
X133119047Y-74454819D01*
X133119047Y-74454819D02*
X133214285Y-74502438D01*
X133214285Y-74502438D02*
X133261904Y-74550057D01*
X133261904Y-74550057D02*
X133309523Y-74645295D01*
X133309523Y-74645295D02*
X133309523Y-74740533D01*
X133309523Y-74740533D02*
X133261904Y-74883390D01*
X133261904Y-74883390D02*
X132690476Y-75454819D01*
X132690476Y-75454819D02*
X133309523Y-75454819D01*
X133880952Y-74883390D02*
X133785714Y-74835771D01*
X133785714Y-74835771D02*
X133738095Y-74788152D01*
X133738095Y-74788152D02*
X133690476Y-74692914D01*
X133690476Y-74692914D02*
X133690476Y-74645295D01*
X133690476Y-74645295D02*
X133738095Y-74550057D01*
X133738095Y-74550057D02*
X133785714Y-74502438D01*
X133785714Y-74502438D02*
X133880952Y-74454819D01*
X133880952Y-74454819D02*
X134071428Y-74454819D01*
X134071428Y-74454819D02*
X134166666Y-74502438D01*
X134166666Y-74502438D02*
X134214285Y-74550057D01*
X134214285Y-74550057D02*
X134261904Y-74645295D01*
X134261904Y-74645295D02*
X134261904Y-74692914D01*
X134261904Y-74692914D02*
X134214285Y-74788152D01*
X134214285Y-74788152D02*
X134166666Y-74835771D01*
X134166666Y-74835771D02*
X134071428Y-74883390D01*
X134071428Y-74883390D02*
X133880952Y-74883390D01*
X133880952Y-74883390D02*
X133785714Y-74931009D01*
X133785714Y-74931009D02*
X133738095Y-74978628D01*
X133738095Y-74978628D02*
X133690476Y-75073866D01*
X133690476Y-75073866D02*
X133690476Y-75264342D01*
X133690476Y-75264342D02*
X133738095Y-75359580D01*
X133738095Y-75359580D02*
X133785714Y-75407200D01*
X133785714Y-75407200D02*
X133880952Y-75454819D01*
X133880952Y-75454819D02*
X134071428Y-75454819D01*
X134071428Y-75454819D02*
X134166666Y-75407200D01*
X134166666Y-75407200D02*
X134214285Y-75359580D01*
X134214285Y-75359580D02*
X134261904Y-75264342D01*
X134261904Y-75264342D02*
X134261904Y-75073866D01*
X134261904Y-75073866D02*
X134214285Y-74978628D01*
X134214285Y-74978628D02*
X134166666Y-74931009D01*
X134166666Y-74931009D02*
X134071428Y-74883390D01*
X142261905Y-51204819D02*
X142261905Y-50204819D01*
X142261905Y-50204819D02*
X142500000Y-50204819D01*
X142500000Y-50204819D02*
X142642857Y-50252438D01*
X142642857Y-50252438D02*
X142738095Y-50347676D01*
X142738095Y-50347676D02*
X142785714Y-50442914D01*
X142785714Y-50442914D02*
X142833333Y-50633390D01*
X142833333Y-50633390D02*
X142833333Y-50776247D01*
X142833333Y-50776247D02*
X142785714Y-50966723D01*
X142785714Y-50966723D02*
X142738095Y-51061961D01*
X142738095Y-51061961D02*
X142642857Y-51157200D01*
X142642857Y-51157200D02*
X142500000Y-51204819D01*
X142500000Y-51204819D02*
X142261905Y-51204819D01*
X143166667Y-50204819D02*
X143833333Y-50204819D01*
X143833333Y-50204819D02*
X143404762Y-51204819D01*
X178238095Y-51954819D02*
X178238095Y-52764342D01*
X178238095Y-52764342D02*
X178285714Y-52859580D01*
X178285714Y-52859580D02*
X178333333Y-52907200D01*
X178333333Y-52907200D02*
X178428571Y-52954819D01*
X178428571Y-52954819D02*
X178619047Y-52954819D01*
X178619047Y-52954819D02*
X178714285Y-52907200D01*
X178714285Y-52907200D02*
X178761904Y-52859580D01*
X178761904Y-52859580D02*
X178809523Y-52764342D01*
X178809523Y-52764342D02*
X178809523Y-51954819D01*
X179714285Y-52288152D02*
X179714285Y-52954819D01*
X179476190Y-51907200D02*
X179238095Y-52621485D01*
X179238095Y-52621485D02*
X179857142Y-52621485D01*
X178428571Y-51454819D02*
X178095238Y-50978628D01*
X177857143Y-51454819D02*
X177857143Y-50454819D01*
X177857143Y-50454819D02*
X178238095Y-50454819D01*
X178238095Y-50454819D02*
X178333333Y-50502438D01*
X178333333Y-50502438D02*
X178380952Y-50550057D01*
X178380952Y-50550057D02*
X178428571Y-50645295D01*
X178428571Y-50645295D02*
X178428571Y-50788152D01*
X178428571Y-50788152D02*
X178380952Y-50883390D01*
X178380952Y-50883390D02*
X178333333Y-50931009D01*
X178333333Y-50931009D02*
X178238095Y-50978628D01*
X178238095Y-50978628D02*
X177857143Y-50978628D01*
X178714286Y-50454819D02*
X179285714Y-50454819D01*
X179000000Y-51454819D02*
X179000000Y-50454819D01*
X180190476Y-51359580D02*
X180142857Y-51407200D01*
X180142857Y-51407200D02*
X180000000Y-51454819D01*
X180000000Y-51454819D02*
X179904762Y-51454819D01*
X179904762Y-51454819D02*
X179761905Y-51407200D01*
X179761905Y-51407200D02*
X179666667Y-51311961D01*
X179666667Y-51311961D02*
X179619048Y-51216723D01*
X179619048Y-51216723D02*
X179571429Y-51026247D01*
X179571429Y-51026247D02*
X179571429Y-50883390D01*
X179571429Y-50883390D02*
X179619048Y-50692914D01*
X179619048Y-50692914D02*
X179666667Y-50597676D01*
X179666667Y-50597676D02*
X179761905Y-50502438D01*
X179761905Y-50502438D02*
X179904762Y-50454819D01*
X179904762Y-50454819D02*
X180000000Y-50454819D01*
X180000000Y-50454819D02*
X180142857Y-50502438D01*
X180142857Y-50502438D02*
X180190476Y-50550057D01*
X161916666Y-85954819D02*
X161916666Y-86669104D01*
X161916666Y-86669104D02*
X161869047Y-86811961D01*
X161869047Y-86811961D02*
X161773809Y-86907200D01*
X161773809Y-86907200D02*
X161630952Y-86954819D01*
X161630952Y-86954819D02*
X161535714Y-86954819D01*
X162869047Y-85954819D02*
X162392857Y-85954819D01*
X162392857Y-85954819D02*
X162345238Y-86431009D01*
X162345238Y-86431009D02*
X162392857Y-86383390D01*
X162392857Y-86383390D02*
X162488095Y-86335771D01*
X162488095Y-86335771D02*
X162726190Y-86335771D01*
X162726190Y-86335771D02*
X162821428Y-86383390D01*
X162821428Y-86383390D02*
X162869047Y-86431009D01*
X162869047Y-86431009D02*
X162916666Y-86526247D01*
X162916666Y-86526247D02*
X162916666Y-86764342D01*
X162916666Y-86764342D02*
X162869047Y-86859580D01*
X162869047Y-86859580D02*
X162821428Y-86907200D01*
X162821428Y-86907200D02*
X162726190Y-86954819D01*
X162726190Y-86954819D02*
X162488095Y-86954819D01*
X162488095Y-86954819D02*
X162392857Y-86907200D01*
X162392857Y-86907200D02*
X162345238Y-86859580D01*
X166404762Y-85954819D02*
X166404762Y-86764342D01*
X166404762Y-86764342D02*
X166452381Y-86859580D01*
X166452381Y-86859580D02*
X166500000Y-86907200D01*
X166500000Y-86907200D02*
X166595238Y-86954819D01*
X166595238Y-86954819D02*
X166785714Y-86954819D01*
X166785714Y-86954819D02*
X166880952Y-86907200D01*
X166880952Y-86907200D02*
X166928571Y-86859580D01*
X166928571Y-86859580D02*
X166976190Y-86764342D01*
X166976190Y-86764342D02*
X166976190Y-85954819D01*
X167404762Y-86669104D02*
X167880952Y-86669104D01*
X167309524Y-86954819D02*
X167642857Y-85954819D01*
X167642857Y-85954819D02*
X167976190Y-86954819D01*
X168880952Y-86954819D02*
X168547619Y-86478628D01*
X168309524Y-86954819D02*
X168309524Y-85954819D01*
X168309524Y-85954819D02*
X168690476Y-85954819D01*
X168690476Y-85954819D02*
X168785714Y-86002438D01*
X168785714Y-86002438D02*
X168833333Y-86050057D01*
X168833333Y-86050057D02*
X168880952Y-86145295D01*
X168880952Y-86145295D02*
X168880952Y-86288152D01*
X168880952Y-86288152D02*
X168833333Y-86383390D01*
X168833333Y-86383390D02*
X168785714Y-86431009D01*
X168785714Y-86431009D02*
X168690476Y-86478628D01*
X168690476Y-86478628D02*
X168309524Y-86478628D01*
X169166667Y-85954819D02*
X169738095Y-85954819D01*
X169452381Y-86954819D02*
X169452381Y-85954819D01*
X117907292Y-55109580D02*
X117859673Y-55157200D01*
X117859673Y-55157200D02*
X117716816Y-55204819D01*
X117716816Y-55204819D02*
X117621578Y-55204819D01*
X117621578Y-55204819D02*
X117478721Y-55157200D01*
X117478721Y-55157200D02*
X117383483Y-55061961D01*
X117383483Y-55061961D02*
X117335864Y-54966723D01*
X117335864Y-54966723D02*
X117288245Y-54776247D01*
X117288245Y-54776247D02*
X117288245Y-54633390D01*
X117288245Y-54633390D02*
X117335864Y-54442914D01*
X117335864Y-54442914D02*
X117383483Y-54347676D01*
X117383483Y-54347676D02*
X117478721Y-54252438D01*
X117478721Y-54252438D02*
X117621578Y-54204819D01*
X117621578Y-54204819D02*
X117716816Y-54204819D01*
X117716816Y-54204819D02*
X117859673Y-54252438D01*
X117859673Y-54252438D02*
X117907292Y-54300057D01*
X118764435Y-54538152D02*
X118764435Y-55204819D01*
X118526340Y-54157200D02*
X118288245Y-54871485D01*
X118288245Y-54871485D02*
X118907292Y-54871485D01*
D13*
%TO.C,C2*%
X183462959Y-93317000D02*
X183462959Y-92683000D01*
X183502959Y-93757000D02*
X183502959Y-92243000D01*
X183542959Y-94028000D02*
X183542959Y-91972000D01*
X183582959Y-94241000D02*
X183582959Y-91759000D01*
X183622959Y-94422000D02*
X183622959Y-91578000D01*
X183662959Y-94583000D02*
X183662959Y-91417000D01*
X183702959Y-94728000D02*
X183702959Y-91272000D01*
X183742959Y-94861000D02*
X183742959Y-91139000D01*
X183782959Y-94984000D02*
X183782959Y-91016000D01*
X183822959Y-95100000D02*
X183822959Y-90900000D01*
X183862959Y-95209000D02*
X183862959Y-90791000D01*
X183902959Y-95312000D02*
X183902959Y-90688000D01*
X183942959Y-95410000D02*
X183942959Y-90590000D01*
X183982959Y-95504000D02*
X183982959Y-90496000D01*
X184022959Y-95594000D02*
X184022959Y-90406000D01*
X184062959Y-95681000D02*
X184062959Y-90319000D01*
X184102959Y-95764000D02*
X184102959Y-90236000D01*
X184142959Y-95844000D02*
X184142959Y-90156000D01*
X184182959Y-95921000D02*
X184182959Y-90079000D01*
X184222959Y-95996000D02*
X184222959Y-90004000D01*
X184262959Y-96069000D02*
X184262959Y-89931000D01*
X184302959Y-96140000D02*
X184302959Y-89860000D01*
X184342959Y-96208000D02*
X184342959Y-89792000D01*
X184382959Y-96275000D02*
X184382959Y-89725000D01*
X184422959Y-96339000D02*
X184422959Y-89661000D01*
X184462959Y-96402000D02*
X184462959Y-89598000D01*
X184502959Y-96464000D02*
X184502959Y-89536000D01*
X184542959Y-96524000D02*
X184542959Y-89476000D01*
X184582959Y-96583000D02*
X184582959Y-89417000D01*
X184622959Y-96640000D02*
X184622959Y-89360000D01*
X184662959Y-96696000D02*
X184662959Y-89304000D01*
X184702959Y-96750000D02*
X184702959Y-89250000D01*
X184742959Y-96804000D02*
X184742959Y-89196000D01*
X184782959Y-96856000D02*
X184782959Y-89144000D01*
X184822959Y-96907000D02*
X184822959Y-89093000D01*
X184862959Y-96957000D02*
X184862959Y-89043000D01*
X184902959Y-97007000D02*
X184902959Y-88993000D01*
X184942959Y-97055000D02*
X184942959Y-88945000D01*
X184982959Y-97102000D02*
X184982959Y-88898000D01*
X185022959Y-97148000D02*
X185022959Y-88852000D01*
X185062959Y-97194000D02*
X185062959Y-88806000D01*
X185102959Y-97238000D02*
X185102959Y-88762000D01*
X185142959Y-97282000D02*
X185142959Y-88718000D01*
X185182959Y-97325000D02*
X185182959Y-88675000D01*
X185222959Y-97367000D02*
X185222959Y-88633000D01*
X185262959Y-97408000D02*
X185262959Y-88592000D01*
X185302959Y-97449000D02*
X185302959Y-88551000D01*
X185342959Y-97489000D02*
X185342959Y-88511000D01*
X185382959Y-97528000D02*
X185382959Y-88472000D01*
X185422959Y-97567000D02*
X185422959Y-88433000D01*
X185462959Y-97605000D02*
X185462959Y-88395000D01*
X185502959Y-97642000D02*
X185502959Y-88358000D01*
X185542959Y-97678000D02*
X185542959Y-88322000D01*
X185582959Y-97714000D02*
X185582959Y-88286000D01*
X185622959Y-97750000D02*
X185622959Y-88250000D01*
X185662959Y-97785000D02*
X185662959Y-88215000D01*
X185702959Y-97819000D02*
X185702959Y-88181000D01*
X185742959Y-97852000D02*
X185742959Y-88148000D01*
X185782959Y-97885000D02*
X185782959Y-88115000D01*
X185822959Y-97918000D02*
X185822959Y-88082000D01*
X185862959Y-97950000D02*
X185862959Y-88050000D01*
X185902959Y-91560000D02*
X185902959Y-88018000D01*
X185902959Y-97982000D02*
X185902959Y-94440000D01*
X185942959Y-91560000D02*
X185942959Y-87988000D01*
X185942959Y-98012000D02*
X185942959Y-94440000D01*
X185982959Y-91560000D02*
X185982959Y-87957000D01*
X185982959Y-98043000D02*
X185982959Y-94440000D01*
X186022959Y-91560000D02*
X186022959Y-87927000D01*
X186022959Y-98073000D02*
X186022959Y-94440000D01*
X186062959Y-91560000D02*
X186062959Y-87898000D01*
X186062959Y-98102000D02*
X186062959Y-94440000D01*
X186102959Y-91560000D02*
X186102959Y-87869000D01*
X186102959Y-98131000D02*
X186102959Y-94440000D01*
X186142959Y-91560000D02*
X186142959Y-87840000D01*
X186142959Y-98160000D02*
X186142959Y-94440000D01*
X186182959Y-91560000D02*
X186182959Y-87812000D01*
X186182959Y-98188000D02*
X186182959Y-94440000D01*
X186222959Y-91560000D02*
X186222959Y-87784000D01*
X186222959Y-98216000D02*
X186222959Y-94440000D01*
X186262959Y-91560000D02*
X186262959Y-87757000D01*
X186262959Y-98243000D02*
X186262959Y-94440000D01*
X186302959Y-91560000D02*
X186302959Y-87730000D01*
X186302959Y-98270000D02*
X186302959Y-94440000D01*
X186342959Y-91560000D02*
X186342959Y-87704000D01*
X186342959Y-98296000D02*
X186342959Y-94440000D01*
X186382959Y-91560000D02*
X186382959Y-87678000D01*
X186382959Y-98322000D02*
X186382959Y-94440000D01*
X186422959Y-91560000D02*
X186422959Y-87653000D01*
X186422959Y-98347000D02*
X186422959Y-94440000D01*
X186462959Y-91560000D02*
X186462959Y-87628000D01*
X186462959Y-98372000D02*
X186462959Y-94440000D01*
X186502959Y-91560000D02*
X186502959Y-87603000D01*
X186502959Y-98397000D02*
X186502959Y-94440000D01*
X186542959Y-91560000D02*
X186542959Y-87579000D01*
X186542959Y-98421000D02*
X186542959Y-94440000D01*
X186582959Y-91560000D02*
X186582959Y-87555000D01*
X186582959Y-98445000D02*
X186582959Y-94440000D01*
X186622959Y-91560000D02*
X186622959Y-87532000D01*
X186622959Y-98468000D02*
X186622959Y-94440000D01*
X186662959Y-91560000D02*
X186662959Y-87509000D01*
X186662959Y-98491000D02*
X186662959Y-94440000D01*
X186702959Y-91560000D02*
X186702959Y-87486000D01*
X186702959Y-98514000D02*
X186702959Y-94440000D01*
X186742959Y-91560000D02*
X186742959Y-87464000D01*
X186742959Y-98536000D02*
X186742959Y-94440000D01*
X186782959Y-91560000D02*
X186782959Y-87442000D01*
X186782959Y-98558000D02*
X186782959Y-94440000D01*
X186822959Y-91560000D02*
X186822959Y-87420000D01*
X186822959Y-98580000D02*
X186822959Y-94440000D01*
X186862959Y-91560000D02*
X186862959Y-87399000D01*
X186862959Y-98601000D02*
X186862959Y-94440000D01*
X186902959Y-91560000D02*
X186902959Y-87378000D01*
X186902959Y-98622000D02*
X186902959Y-94440000D01*
X186942959Y-91560000D02*
X186942959Y-87358000D01*
X186942959Y-98642000D02*
X186942959Y-94440000D01*
X186982959Y-91560000D02*
X186982959Y-87338000D01*
X186982959Y-98662000D02*
X186982959Y-94440000D01*
X187022959Y-91560000D02*
X187022959Y-87318000D01*
X187022959Y-98682000D02*
X187022959Y-94440000D01*
X187062959Y-91560000D02*
X187062959Y-87298000D01*
X187062959Y-98702000D02*
X187062959Y-94440000D01*
X187102959Y-91560000D02*
X187102959Y-87279000D01*
X187102959Y-98721000D02*
X187102959Y-94440000D01*
X187142959Y-91560000D02*
X187142959Y-87261000D01*
X187142959Y-98739000D02*
X187142959Y-94440000D01*
X187182959Y-91560000D02*
X187182959Y-87242000D01*
X187182959Y-98758000D02*
X187182959Y-94440000D01*
X187222959Y-91560000D02*
X187222959Y-87224000D01*
X187222959Y-98776000D02*
X187222959Y-94440000D01*
X187262959Y-91560000D02*
X187262959Y-87207000D01*
X187262959Y-98793000D02*
X187262959Y-94440000D01*
X187302959Y-91560000D02*
X187302959Y-87189000D01*
X187302959Y-98811000D02*
X187302959Y-94440000D01*
X187342959Y-91560000D02*
X187342959Y-87172000D01*
X187342959Y-98828000D02*
X187342959Y-94440000D01*
X187382959Y-91560000D02*
X187382959Y-87155000D01*
X187382959Y-98845000D02*
X187382959Y-94440000D01*
X187422959Y-91560000D02*
X187422959Y-87139000D01*
X187422959Y-98861000D02*
X187422959Y-94440000D01*
X187462959Y-91560000D02*
X187462959Y-87123000D01*
X187462959Y-98877000D02*
X187462959Y-94440000D01*
X187502959Y-91560000D02*
X187502959Y-87107000D01*
X187502959Y-98893000D02*
X187502959Y-94440000D01*
X187542959Y-91560000D02*
X187542959Y-87092000D01*
X187542959Y-98908000D02*
X187542959Y-94440000D01*
X187582959Y-91560000D02*
X187582959Y-87076000D01*
X187582959Y-98924000D02*
X187582959Y-94440000D01*
X187622959Y-91560000D02*
X187622959Y-87061000D01*
X187622959Y-98939000D02*
X187622959Y-94440000D01*
X187662959Y-91560000D02*
X187662959Y-87047000D01*
X187662959Y-98953000D02*
X187662959Y-94440000D01*
X187702959Y-91560000D02*
X187702959Y-87033000D01*
X187702959Y-98967000D02*
X187702959Y-94440000D01*
X187742959Y-91560000D02*
X187742959Y-87019000D01*
X187742959Y-98981000D02*
X187742959Y-94440000D01*
X187782959Y-91560000D02*
X187782959Y-87005000D01*
X187782959Y-98995000D02*
X187782959Y-94440000D01*
X187822959Y-91560000D02*
X187822959Y-86992000D01*
X187822959Y-99008000D02*
X187822959Y-94440000D01*
X187862959Y-91560000D02*
X187862959Y-86979000D01*
X187862959Y-99021000D02*
X187862959Y-94440000D01*
X187902959Y-91560000D02*
X187902959Y-86966000D01*
X187902959Y-99034000D02*
X187902959Y-94440000D01*
X187942959Y-91560000D02*
X187942959Y-86953000D01*
X187942959Y-99047000D02*
X187942959Y-94440000D01*
X187982959Y-91560000D02*
X187982959Y-86941000D01*
X187982959Y-99059000D02*
X187982959Y-94440000D01*
X188022959Y-91560000D02*
X188022959Y-86929000D01*
X188022959Y-99071000D02*
X188022959Y-94440000D01*
X188062959Y-91560000D02*
X188062959Y-86917000D01*
X188062959Y-99083000D02*
X188062959Y-94440000D01*
X188102959Y-91560000D02*
X188102959Y-86906000D01*
X188102959Y-99094000D02*
X188102959Y-94440000D01*
X188142959Y-91560000D02*
X188142959Y-86895000D01*
X188142959Y-99105000D02*
X188142959Y-94440000D01*
X188182959Y-91560000D02*
X188182959Y-86884000D01*
X188182959Y-99116000D02*
X188182959Y-94440000D01*
X188222959Y-91560000D02*
X188222959Y-86874000D01*
X188222959Y-99126000D02*
X188222959Y-94440000D01*
X188262959Y-91560000D02*
X188262959Y-86863000D01*
X188262959Y-99137000D02*
X188262959Y-94440000D01*
X188302959Y-91560000D02*
X188302959Y-86854000D01*
X188302959Y-99146000D02*
X188302959Y-94440000D01*
X188342959Y-91560000D02*
X188342959Y-86844000D01*
X188342959Y-99156000D02*
X188342959Y-94440000D01*
X188382959Y-91560000D02*
X188382959Y-86834000D01*
X188382959Y-99166000D02*
X188382959Y-94440000D01*
X188422959Y-91560000D02*
X188422959Y-86825000D01*
X188422959Y-99175000D02*
X188422959Y-94440000D01*
X188462959Y-91560000D02*
X188462959Y-86816000D01*
X188462959Y-99184000D02*
X188462959Y-94440000D01*
X188502959Y-91560000D02*
X188502959Y-86808000D01*
X188502959Y-99192000D02*
X188502959Y-94440000D01*
X188542959Y-91560000D02*
X188542959Y-86799000D01*
X188542959Y-99201000D02*
X188542959Y-94440000D01*
X188582959Y-91560000D02*
X188582959Y-86791000D01*
X188582959Y-99209000D02*
X188582959Y-94440000D01*
X188622959Y-91560000D02*
X188622959Y-86784000D01*
X188622959Y-99216000D02*
X188622959Y-94440000D01*
X188662959Y-91560000D02*
X188662959Y-86776000D01*
X188662959Y-99224000D02*
X188662959Y-94440000D01*
X188702959Y-91560000D02*
X188702959Y-86769000D01*
X188702959Y-99231000D02*
X188702959Y-94440000D01*
X188742959Y-91560000D02*
X188742959Y-86762000D01*
X188742959Y-99238000D02*
X188742959Y-94440000D01*
X188782959Y-99245000D02*
X188782959Y-86755000D01*
X188822959Y-99252000D02*
X188822959Y-86748000D01*
X188862959Y-99258000D02*
X188862959Y-86742000D01*
X188902959Y-99264000D02*
X188902959Y-86736000D01*
X188942959Y-99269000D02*
X188942959Y-86731000D01*
X188982959Y-99275000D02*
X188982959Y-86725000D01*
X189022959Y-99280000D02*
X189022959Y-86720000D01*
X189062959Y-99285000D02*
X189062959Y-86715000D01*
X189102959Y-99290000D02*
X189102959Y-86710000D01*
X189143959Y-99294000D02*
X189143959Y-86706000D01*
X189183959Y-99298000D02*
X189183959Y-86702000D01*
X189223959Y-99302000D02*
X189223959Y-86698000D01*
X189263959Y-99306000D02*
X189263959Y-86694000D01*
X189303959Y-99309000D02*
X189303959Y-86691000D01*
X189343959Y-99312000D02*
X189343959Y-86688000D01*
X189383959Y-99315000D02*
X189383959Y-86685000D01*
X189423959Y-99318000D02*
X189423959Y-86682000D01*
X189463959Y-99320000D02*
X189463959Y-86680000D01*
X189503959Y-99322000D02*
X189503959Y-86678000D01*
X189543959Y-99324000D02*
X189543959Y-86676000D01*
X189583959Y-99326000D02*
X189583959Y-86674000D01*
X189623959Y-99327000D02*
X189623959Y-86673000D01*
X189663959Y-99328000D02*
X189663959Y-86672000D01*
X189703959Y-99329000D02*
X189703959Y-86671000D01*
X189743959Y-99330000D02*
X189743959Y-86670000D01*
X189783959Y-99330000D02*
X189783959Y-86670000D01*
X189823959Y-99330000D02*
X189823959Y-86670000D01*
X196016041Y-97200000D02*
X196016041Y-95950000D01*
X196641041Y-96575000D02*
X195391041Y-96575000D01*
X196193959Y-93000000D02*
G75*
G02*
X183453959Y-93000000I-6370000J0D01*
G01*
X183453959Y-93000000D02*
G75*
G02*
X196193959Y-93000000I6370000J0D01*
G01*
%TO.C,J7*%
X186917500Y-58867500D02*
X186917500Y-57537500D01*
X188247500Y-58867500D02*
X186917500Y-58867500D01*
X189517500Y-56207500D02*
X194657500Y-56207500D01*
X189517500Y-58867500D02*
X189517500Y-56207500D01*
X189517500Y-58867500D02*
X194657500Y-58867500D01*
X194657500Y-58867500D02*
X194657500Y-56207500D01*
%TO.C,J9*%
X165813000Y-40373000D02*
X165813000Y-47127000D01*
X165813000Y-47127000D02*
X176687000Y-47127000D01*
X176687000Y-40373000D02*
X165813000Y-40373000D01*
X176687000Y-47127000D02*
X176687000Y-40373000D01*
%TO.C,M1*%
X123180000Y-98655000D02*
X123180000Y-97325000D01*
X124510000Y-98655000D02*
X123180000Y-98655000D01*
X125780000Y-95995000D02*
X141080000Y-95995000D01*
X125780000Y-98655000D02*
X125780000Y-95995000D01*
X125780000Y-98655000D02*
X141080000Y-98655000D01*
X141080000Y-98655000D02*
X141080000Y-95995000D01*
X116010000Y-138825000D02*
X166010000Y-138825000D01*
X166010000Y-88825000D01*
X116010000Y-88825000D01*
X116010000Y-138825000D01*
%TO.C,D8*%
X171375000Y-52294999D02*
X171375000Y-49204999D01*
X165825000Y-50750461D02*
G75*
G02*
X171375000Y-49205169I2990000J462D01*
G01*
X171375000Y-52294829D02*
G75*
G02*
X165825000Y-50749537I-2560000J1544830D01*
G01*
X171315000Y-50749999D02*
G75*
G02*
X166315000Y-50749999I-2500000J0D01*
G01*
X166315000Y-50749999D02*
G75*
G02*
X171315000Y-50749999I2500000J0D01*
G01*
%TO.C,J3*%
X196690000Y-80380000D02*
X196690000Y-90540000D01*
X196690000Y-90540000D02*
X204310000Y-90540000D01*
X203040000Y-80380000D02*
X203040000Y-90540000D01*
X204310000Y-80380000D02*
X196690000Y-80380000D01*
X204310000Y-90540000D02*
X204310000Y-80380000D01*
%TO.C,J2*%
X196690000Y-95380000D02*
X196690000Y-105540000D01*
X196690000Y-105540000D02*
X204310000Y-105540000D01*
X203040000Y-95380000D02*
X203040000Y-105540000D01*
X204310000Y-95380000D02*
X196690000Y-95380000D01*
X204310000Y-105540000D02*
X204310000Y-95380000D01*
%TO.C,D9*%
X156295000Y-52294999D02*
X156295000Y-49204999D01*
X150745000Y-50750461D02*
G75*
G02*
X156295000Y-49205169I2990000J462D01*
G01*
X156295000Y-52294829D02*
G75*
G02*
X150745000Y-50749537I-2560000J1544830D01*
G01*
X156235000Y-50749999D02*
G75*
G02*
X151235000Y-50749999I-2500000J0D01*
G01*
X151235000Y-50749999D02*
G75*
G02*
X156235000Y-50749999I2500000J0D01*
G01*
%TO.C,F1*%
X181105000Y-137330000D02*
X181105000Y-114730000D01*
X183905000Y-114730000D02*
X181105000Y-114730000D01*
X183905000Y-137330000D02*
X181105000Y-137330000D01*
X190705000Y-114730000D02*
X187905000Y-114730000D01*
X190705000Y-137330000D02*
X187905000Y-137330000D01*
X190705000Y-137330000D02*
X190705000Y-114730000D01*
%TO.C,D12*%
X170850000Y-81480476D02*
X170850000Y-84165476D01*
X170850000Y-84165476D02*
X172770000Y-84165476D01*
X172770000Y-84165476D02*
X172770000Y-81480476D01*
%TO.C,J6*%
X198121800Y-53934800D02*
X198121800Y-62266000D01*
X198121800Y-62266000D02*
X204878200Y-62266000D01*
X204878200Y-53934800D02*
X198121800Y-53934800D01*
X204878200Y-62266000D02*
X204878200Y-53934800D01*
%TO.C,D2*%
X110780000Y-73130000D02*
X110780000Y-82870000D01*
X110780000Y-81205000D02*
X116220000Y-81205000D01*
X110780000Y-81325000D02*
X116220000Y-81325000D01*
X110780000Y-81445000D02*
X116220000Y-81445000D01*
X110780000Y-82870000D02*
X116220000Y-82870000D01*
X113500000Y-72220000D02*
X113500000Y-73130000D01*
X113500000Y-83780000D02*
X113500000Y-82870000D01*
X116220000Y-73130000D02*
X110780000Y-73130000D01*
X116220000Y-82870000D02*
X116220000Y-73130000D01*
%TO.C,C3*%
X183639000Y-78317000D02*
X183639000Y-77683000D01*
X183679000Y-78757000D02*
X183679000Y-77243000D01*
X183719000Y-79028000D02*
X183719000Y-76972000D01*
X183759000Y-79241000D02*
X183759000Y-76759000D01*
X183799000Y-79422000D02*
X183799000Y-76578000D01*
X183839000Y-79583000D02*
X183839000Y-76417000D01*
X183879000Y-79728000D02*
X183879000Y-76272000D01*
X183919000Y-79861000D02*
X183919000Y-76139000D01*
X183959000Y-79984000D02*
X183959000Y-76016000D01*
X183999000Y-80100000D02*
X183999000Y-75900000D01*
X184039000Y-80209000D02*
X184039000Y-75791000D01*
X184079000Y-80312000D02*
X184079000Y-75688000D01*
X184119000Y-80410000D02*
X184119000Y-75590000D01*
X184159000Y-80504000D02*
X184159000Y-75496000D01*
X184199000Y-80594000D02*
X184199000Y-75406000D01*
X184239000Y-80681000D02*
X184239000Y-75319000D01*
X184279000Y-80764000D02*
X184279000Y-75236000D01*
X184319000Y-80844000D02*
X184319000Y-75156000D01*
X184359000Y-80921000D02*
X184359000Y-75079000D01*
X184399000Y-80996000D02*
X184399000Y-75004000D01*
X184439000Y-81069000D02*
X184439000Y-74931000D01*
X184479000Y-81140000D02*
X184479000Y-74860000D01*
X184519000Y-81208000D02*
X184519000Y-74792000D01*
X184559000Y-81275000D02*
X184559000Y-74725000D01*
X184599000Y-81339000D02*
X184599000Y-74661000D01*
X184639000Y-81402000D02*
X184639000Y-74598000D01*
X184679000Y-81464000D02*
X184679000Y-74536000D01*
X184719000Y-81524000D02*
X184719000Y-74476000D01*
X184759000Y-81583000D02*
X184759000Y-74417000D01*
X184799000Y-81640000D02*
X184799000Y-74360000D01*
X184839000Y-81696000D02*
X184839000Y-74304000D01*
X184879000Y-81750000D02*
X184879000Y-74250000D01*
X184919000Y-81804000D02*
X184919000Y-74196000D01*
X184959000Y-81856000D02*
X184959000Y-74144000D01*
X184999000Y-81907000D02*
X184999000Y-74093000D01*
X185039000Y-81957000D02*
X185039000Y-74043000D01*
X185079000Y-82007000D02*
X185079000Y-73993000D01*
X185119000Y-82055000D02*
X185119000Y-73945000D01*
X185159000Y-82102000D02*
X185159000Y-73898000D01*
X185199000Y-82148000D02*
X185199000Y-73852000D01*
X185239000Y-82194000D02*
X185239000Y-73806000D01*
X185279000Y-82238000D02*
X185279000Y-73762000D01*
X185319000Y-82282000D02*
X185319000Y-73718000D01*
X185359000Y-82325000D02*
X185359000Y-73675000D01*
X185399000Y-82367000D02*
X185399000Y-73633000D01*
X185439000Y-82408000D02*
X185439000Y-73592000D01*
X185479000Y-82449000D02*
X185479000Y-73551000D01*
X185519000Y-82489000D02*
X185519000Y-73511000D01*
X185559000Y-82528000D02*
X185559000Y-73472000D01*
X185599000Y-82567000D02*
X185599000Y-73433000D01*
X185639000Y-82605000D02*
X185639000Y-73395000D01*
X185679000Y-82642000D02*
X185679000Y-73358000D01*
X185719000Y-82678000D02*
X185719000Y-73322000D01*
X185759000Y-82714000D02*
X185759000Y-73286000D01*
X185799000Y-82750000D02*
X185799000Y-73250000D01*
X185839000Y-82785000D02*
X185839000Y-73215000D01*
X185879000Y-82819000D02*
X185879000Y-73181000D01*
X185919000Y-82852000D02*
X185919000Y-73148000D01*
X185959000Y-82885000D02*
X185959000Y-73115000D01*
X185999000Y-82918000D02*
X185999000Y-73082000D01*
X186039000Y-82950000D02*
X186039000Y-73050000D01*
X186079000Y-76560000D02*
X186079000Y-73018000D01*
X186079000Y-82982000D02*
X186079000Y-79440000D01*
X186119000Y-76560000D02*
X186119000Y-72988000D01*
X186119000Y-83012000D02*
X186119000Y-79440000D01*
X186159000Y-76560000D02*
X186159000Y-72957000D01*
X186159000Y-83043000D02*
X186159000Y-79440000D01*
X186199000Y-76560000D02*
X186199000Y-72927000D01*
X186199000Y-83073000D02*
X186199000Y-79440000D01*
X186239000Y-76560000D02*
X186239000Y-72898000D01*
X186239000Y-83102000D02*
X186239000Y-79440000D01*
X186279000Y-76560000D02*
X186279000Y-72869000D01*
X186279000Y-83131000D02*
X186279000Y-79440000D01*
X186319000Y-76560000D02*
X186319000Y-72840000D01*
X186319000Y-83160000D02*
X186319000Y-79440000D01*
X186359000Y-76560000D02*
X186359000Y-72812000D01*
X186359000Y-83188000D02*
X186359000Y-79440000D01*
X186399000Y-76560000D02*
X186399000Y-72784000D01*
X186399000Y-83216000D02*
X186399000Y-79440000D01*
X186439000Y-76560000D02*
X186439000Y-72757000D01*
X186439000Y-83243000D02*
X186439000Y-79440000D01*
X186479000Y-76560000D02*
X186479000Y-72730000D01*
X186479000Y-83270000D02*
X186479000Y-79440000D01*
X186519000Y-76560000D02*
X186519000Y-72704000D01*
X186519000Y-83296000D02*
X186519000Y-79440000D01*
X186559000Y-76560000D02*
X186559000Y-72678000D01*
X186559000Y-83322000D02*
X186559000Y-79440000D01*
X186599000Y-76560000D02*
X186599000Y-72653000D01*
X186599000Y-83347000D02*
X186599000Y-79440000D01*
X186639000Y-76560000D02*
X186639000Y-72628000D01*
X186639000Y-83372000D02*
X186639000Y-79440000D01*
X186679000Y-76560000D02*
X186679000Y-72603000D01*
X186679000Y-83397000D02*
X186679000Y-79440000D01*
X186719000Y-76560000D02*
X186719000Y-72579000D01*
X186719000Y-83421000D02*
X186719000Y-79440000D01*
X186759000Y-76560000D02*
X186759000Y-72555000D01*
X186759000Y-83445000D02*
X186759000Y-79440000D01*
X186799000Y-76560000D02*
X186799000Y-72532000D01*
X186799000Y-83468000D02*
X186799000Y-79440000D01*
X186839000Y-76560000D02*
X186839000Y-72509000D01*
X186839000Y-83491000D02*
X186839000Y-79440000D01*
X186879000Y-76560000D02*
X186879000Y-72486000D01*
X186879000Y-83514000D02*
X186879000Y-79440000D01*
X186919000Y-76560000D02*
X186919000Y-72464000D01*
X186919000Y-83536000D02*
X186919000Y-79440000D01*
X186959000Y-76560000D02*
X186959000Y-72442000D01*
X186959000Y-83558000D02*
X186959000Y-79440000D01*
X186999000Y-76560000D02*
X186999000Y-72420000D01*
X186999000Y-83580000D02*
X186999000Y-79440000D01*
X187039000Y-76560000D02*
X187039000Y-72399000D01*
X187039000Y-83601000D02*
X187039000Y-79440000D01*
X187079000Y-76560000D02*
X187079000Y-72378000D01*
X187079000Y-83622000D02*
X187079000Y-79440000D01*
X187119000Y-76560000D02*
X187119000Y-72358000D01*
X187119000Y-83642000D02*
X187119000Y-79440000D01*
X187159000Y-76560000D02*
X187159000Y-72338000D01*
X187159000Y-83662000D02*
X187159000Y-79440000D01*
X187199000Y-76560000D02*
X187199000Y-72318000D01*
X187199000Y-83682000D02*
X187199000Y-79440000D01*
X187239000Y-76560000D02*
X187239000Y-72298000D01*
X187239000Y-83702000D02*
X187239000Y-79440000D01*
X187279000Y-76560000D02*
X187279000Y-72279000D01*
X187279000Y-83721000D02*
X187279000Y-79440000D01*
X187319000Y-76560000D02*
X187319000Y-72261000D01*
X187319000Y-83739000D02*
X187319000Y-79440000D01*
X187359000Y-76560000D02*
X187359000Y-72242000D01*
X187359000Y-83758000D02*
X187359000Y-79440000D01*
X187399000Y-76560000D02*
X187399000Y-72224000D01*
X187399000Y-83776000D02*
X187399000Y-79440000D01*
X187439000Y-76560000D02*
X187439000Y-72207000D01*
X187439000Y-83793000D02*
X187439000Y-79440000D01*
X187479000Y-76560000D02*
X187479000Y-72189000D01*
X187479000Y-83811000D02*
X187479000Y-79440000D01*
X187519000Y-76560000D02*
X187519000Y-72172000D01*
X187519000Y-83828000D02*
X187519000Y-79440000D01*
X187559000Y-76560000D02*
X187559000Y-72155000D01*
X187559000Y-83845000D02*
X187559000Y-79440000D01*
X187599000Y-76560000D02*
X187599000Y-72139000D01*
X187599000Y-83861000D02*
X187599000Y-79440000D01*
X187639000Y-76560000D02*
X187639000Y-72123000D01*
X187639000Y-83877000D02*
X187639000Y-79440000D01*
X187679000Y-76560000D02*
X187679000Y-72107000D01*
X187679000Y-83893000D02*
X187679000Y-79440000D01*
X187719000Y-76560000D02*
X187719000Y-72092000D01*
X187719000Y-83908000D02*
X187719000Y-79440000D01*
X187759000Y-76560000D02*
X187759000Y-72076000D01*
X187759000Y-83924000D02*
X187759000Y-79440000D01*
X187799000Y-76560000D02*
X187799000Y-72061000D01*
X187799000Y-83939000D02*
X187799000Y-79440000D01*
X187839000Y-76560000D02*
X187839000Y-72047000D01*
X187839000Y-83953000D02*
X187839000Y-79440000D01*
X187879000Y-76560000D02*
X187879000Y-72033000D01*
X187879000Y-83967000D02*
X187879000Y-79440000D01*
X187919000Y-76560000D02*
X187919000Y-72019000D01*
X187919000Y-83981000D02*
X187919000Y-79440000D01*
X187959000Y-76560000D02*
X187959000Y-72005000D01*
X187959000Y-83995000D02*
X187959000Y-79440000D01*
X187999000Y-76560000D02*
X187999000Y-71992000D01*
X187999000Y-84008000D02*
X187999000Y-79440000D01*
X188039000Y-76560000D02*
X188039000Y-71979000D01*
X188039000Y-84021000D02*
X188039000Y-79440000D01*
X188079000Y-76560000D02*
X188079000Y-71966000D01*
X188079000Y-84034000D02*
X188079000Y-79440000D01*
X188119000Y-76560000D02*
X188119000Y-71953000D01*
X188119000Y-84047000D02*
X188119000Y-79440000D01*
X188159000Y-76560000D02*
X188159000Y-71941000D01*
X188159000Y-84059000D02*
X188159000Y-79440000D01*
X188199000Y-76560000D02*
X188199000Y-71929000D01*
X188199000Y-84071000D02*
X188199000Y-79440000D01*
X188239000Y-76560000D02*
X188239000Y-71917000D01*
X188239000Y-84083000D02*
X188239000Y-79440000D01*
X188279000Y-76560000D02*
X188279000Y-71906000D01*
X188279000Y-84094000D02*
X188279000Y-79440000D01*
X188319000Y-76560000D02*
X188319000Y-71895000D01*
X188319000Y-84105000D02*
X188319000Y-79440000D01*
X188359000Y-76560000D02*
X188359000Y-71884000D01*
X188359000Y-84116000D02*
X188359000Y-79440000D01*
X188399000Y-76560000D02*
X188399000Y-71874000D01*
X188399000Y-84126000D02*
X188399000Y-79440000D01*
X188439000Y-76560000D02*
X188439000Y-71863000D01*
X188439000Y-84137000D02*
X188439000Y-79440000D01*
X188479000Y-76560000D02*
X188479000Y-71854000D01*
X188479000Y-84146000D02*
X188479000Y-79440000D01*
X188519000Y-76560000D02*
X188519000Y-71844000D01*
X188519000Y-84156000D02*
X188519000Y-79440000D01*
X188559000Y-76560000D02*
X188559000Y-71834000D01*
X188559000Y-84166000D02*
X188559000Y-79440000D01*
X188599000Y-76560000D02*
X188599000Y-71825000D01*
X188599000Y-84175000D02*
X188599000Y-79440000D01*
X188639000Y-76560000D02*
X188639000Y-71816000D01*
X188639000Y-84184000D02*
X188639000Y-79440000D01*
X188679000Y-76560000D02*
X188679000Y-71808000D01*
X188679000Y-84192000D02*
X188679000Y-79440000D01*
X188719000Y-76560000D02*
X188719000Y-71799000D01*
X188719000Y-84201000D02*
X188719000Y-79440000D01*
X188759000Y-76560000D02*
X188759000Y-71791000D01*
X188759000Y-84209000D02*
X188759000Y-79440000D01*
X188799000Y-76560000D02*
X188799000Y-71784000D01*
X188799000Y-84216000D02*
X188799000Y-79440000D01*
X188839000Y-76560000D02*
X188839000Y-71776000D01*
X188839000Y-84224000D02*
X188839000Y-79440000D01*
X188879000Y-76560000D02*
X188879000Y-71769000D01*
X188879000Y-84231000D02*
X188879000Y-79440000D01*
X188919000Y-76560000D02*
X188919000Y-71762000D01*
X188919000Y-84238000D02*
X188919000Y-79440000D01*
X188959000Y-84245000D02*
X188959000Y-71755000D01*
X188999000Y-84252000D02*
X188999000Y-71748000D01*
X189039000Y-84258000D02*
X189039000Y-71742000D01*
X189079000Y-84264000D02*
X189079000Y-71736000D01*
X189119000Y-84269000D02*
X189119000Y-71731000D01*
X189159000Y-84275000D02*
X189159000Y-71725000D01*
X189199000Y-84280000D02*
X189199000Y-71720000D01*
X189239000Y-84285000D02*
X189239000Y-71715000D01*
X189279000Y-84290000D02*
X189279000Y-71710000D01*
X189320000Y-84294000D02*
X189320000Y-71706000D01*
X189360000Y-84298000D02*
X189360000Y-71702000D01*
X189400000Y-84302000D02*
X189400000Y-71698000D01*
X189440000Y-84306000D02*
X189440000Y-71694000D01*
X189480000Y-84309000D02*
X189480000Y-71691000D01*
X189520000Y-84312000D02*
X189520000Y-71688000D01*
X189560000Y-84315000D02*
X189560000Y-71685000D01*
X189600000Y-84318000D02*
X189600000Y-71682000D01*
X189640000Y-84320000D02*
X189640000Y-71680000D01*
X189680000Y-84322000D02*
X189680000Y-71678000D01*
X189720000Y-84324000D02*
X189720000Y-71676000D01*
X189760000Y-84326000D02*
X189760000Y-71674000D01*
X189800000Y-84327000D02*
X189800000Y-71673000D01*
X189840000Y-84328000D02*
X189840000Y-71672000D01*
X189880000Y-84329000D02*
X189880000Y-71671000D01*
X189920000Y-84330000D02*
X189920000Y-71670000D01*
X189960000Y-84330000D02*
X189960000Y-71670000D01*
X190000000Y-84330000D02*
X190000000Y-71670000D01*
X196192082Y-82200000D02*
X196192082Y-80950000D01*
X196817082Y-81575000D02*
X195567082Y-81575000D01*
X196370000Y-78000000D02*
G75*
G02*
X183630000Y-78000000I-6370000J0D01*
G01*
X183630000Y-78000000D02*
G75*
G02*
X196370000Y-78000000I6370000J0D01*
G01*
%TO.C,U2*%
X168760000Y-89310000D02*
X168760000Y-99710000D01*
X168760000Y-99710000D02*
X179260000Y-99710000D01*
X171760000Y-89370000D02*
X171760000Y-99650000D01*
X171760000Y-99650000D02*
X176260000Y-99650000D01*
X173010000Y-89370000D02*
X171760000Y-89370000D01*
X176260000Y-89370000D02*
X175010000Y-89370000D01*
X176260000Y-99650000D02*
X176260000Y-89370000D01*
X179260000Y-89310000D02*
X168760000Y-89310000D01*
X179260000Y-99710000D02*
X179260000Y-89310000D01*
X175010000Y-89370000D02*
G75*
G02*
X173010000Y-89370000I-1000000J0D01*
G01*
%TO.C,D1*%
X191230000Y-114380000D02*
X191230000Y-123620000D01*
X191230000Y-122030000D02*
X196770000Y-122030000D01*
X191230000Y-122150000D02*
X196770000Y-122150000D01*
X191230000Y-122270000D02*
X196770000Y-122270000D01*
X191230000Y-123620000D02*
X196770000Y-123620000D01*
X194000000Y-112920000D02*
X194000000Y-114380000D01*
X194000000Y-125080000D02*
X194000000Y-123620000D01*
X196770000Y-114380000D02*
X191230000Y-114380000D01*
X196770000Y-123620000D02*
X196770000Y-114380000D01*
%TO.C,J8*%
X139980000Y-76282500D02*
X160560000Y-76282500D01*
X139980000Y-85402500D02*
X139980000Y-76282500D01*
X141280000Y-77592500D02*
X148220000Y-77592500D01*
X141280000Y-84092500D02*
X141280000Y-77592500D01*
X148220000Y-77592500D02*
X148220000Y-76282500D01*
X148220000Y-77592500D02*
X148220000Y-77592500D01*
X152320000Y-76282500D02*
X152320000Y-77592500D01*
X152320000Y-77592500D02*
X159260000Y-77592500D01*
X154850000Y-74892500D02*
X155350000Y-75892500D01*
X155350000Y-75892500D02*
X155850000Y-74892500D01*
X155850000Y-74892500D02*
X154850000Y-74892500D01*
X159260000Y-77592500D02*
X159260000Y-84092500D01*
X159260000Y-84092500D02*
X141280000Y-84092500D01*
X160560000Y-76282500D02*
X160560000Y-85402500D01*
X160560000Y-85402500D02*
X139980000Y-85402500D01*
%TO.C,D10*%
X126315000Y-52295000D02*
X126315000Y-49205000D01*
X120765000Y-50750462D02*
G75*
G02*
X126315000Y-49205170I2990000J462D01*
G01*
X126315000Y-52294830D02*
G75*
G02*
X120765000Y-50749538I-2560000J1544830D01*
G01*
X126255000Y-50750000D02*
G75*
G02*
X121255000Y-50750000I-2500000J0D01*
G01*
X121255000Y-50750000D02*
G75*
G02*
X126255000Y-50750000I2500000J0D01*
G01*
%TO.C,J11*%
X150813000Y-40373000D02*
X150813000Y-47127000D01*
X150813000Y-47127000D02*
X161687000Y-47127000D01*
X161687000Y-40373000D02*
X150813000Y-40373000D01*
X161687000Y-47127000D02*
X161687000Y-40373000D01*
%TO.C,D11*%
X173300000Y-81480476D02*
X173300000Y-84165476D01*
X173300000Y-84165476D02*
X175220000Y-84165476D01*
X175220000Y-84165476D02*
X175220000Y-81480476D01*
%TO.C,U5*%
X105570000Y-71680000D02*
X110211000Y-71680000D01*
X105570000Y-74950000D02*
X107080000Y-74950000D01*
X105570000Y-78650000D02*
X107080000Y-78650000D01*
X105570000Y-81921000D02*
X105570000Y-71680000D01*
X105570000Y-81921000D02*
X110211000Y-81921000D01*
X107080000Y-81921000D02*
X107080000Y-71680000D01*
X110211000Y-81921000D02*
X110211000Y-71680000D01*
%TO.C,J10*%
X135813000Y-40373000D02*
X135813000Y-47127000D01*
X135813000Y-47127000D02*
X146687000Y-47127000D01*
X146687000Y-40373000D02*
X135813000Y-40373000D01*
X146687000Y-47127000D02*
X146687000Y-40373000D01*
D14*
%TO.C,L1*%
X127500000Y-73750000D02*
G75*
G02*
X116500000Y-73750000I-5500000J0D01*
G01*
X116500000Y-73750000D02*
G75*
G02*
X127500000Y-73750000I5500000J0D01*
G01*
D13*
%TO.C,U3*%
X128795000Y-56907500D02*
X128795000Y-62367500D01*
X128795000Y-64367500D02*
X128795000Y-69827500D01*
X128795000Y-69827500D02*
X179715000Y-69827500D01*
X179715000Y-56907500D02*
X128795000Y-56907500D01*
X179715000Y-69827500D02*
X179715000Y-56907500D01*
X128795000Y-62367500D02*
G75*
G02*
X128795000Y-64367500I0J-1000000D01*
G01*
%TO.C,J4*%
X198121800Y-64834400D02*
X198121800Y-73165600D01*
X198121800Y-73165600D02*
X204878200Y-73165600D01*
X204878200Y-64834400D02*
X198121800Y-64834400D01*
X204878200Y-73165600D02*
X204878200Y-64834400D01*
%TO.C,J1*%
X197190000Y-113880000D02*
X197190000Y-124040000D01*
X197190000Y-124040000D02*
X204810000Y-124040000D01*
X203540000Y-113880000D02*
X203540000Y-124040000D01*
X204810000Y-113880000D02*
X197190000Y-113880000D01*
X204810000Y-124040000D02*
X204810000Y-113880000D01*
%TO.C,C28*%
X126108959Y-78675000D02*
X127358959Y-78675000D01*
X126733959Y-78050000D02*
X126733959Y-79300000D01*
X132926041Y-75920000D02*
X132926041Y-88580000D01*
X132966041Y-75920000D02*
X132966041Y-88580000D01*
X133006041Y-75920000D02*
X133006041Y-88580000D01*
X133046041Y-75921000D02*
X133046041Y-88579000D01*
X133086041Y-75922000D02*
X133086041Y-88578000D01*
X133126041Y-75923000D02*
X133126041Y-88577000D01*
X133166041Y-75924000D02*
X133166041Y-88576000D01*
X133206041Y-75926000D02*
X133206041Y-88574000D01*
X133246041Y-75928000D02*
X133246041Y-88572000D01*
X133286041Y-75930000D02*
X133286041Y-88570000D01*
X133326041Y-75932000D02*
X133326041Y-88568000D01*
X133366041Y-75935000D02*
X133366041Y-88565000D01*
X133406041Y-75938000D02*
X133406041Y-88562000D01*
X133446041Y-75941000D02*
X133446041Y-88559000D01*
X133486041Y-75944000D02*
X133486041Y-88556000D01*
X133526041Y-75948000D02*
X133526041Y-88552000D01*
X133566041Y-75952000D02*
X133566041Y-88548000D01*
X133606041Y-75956000D02*
X133606041Y-88544000D01*
X133647041Y-75960000D02*
X133647041Y-88540000D01*
X133687041Y-75965000D02*
X133687041Y-88535000D01*
X133727041Y-75970000D02*
X133727041Y-88530000D01*
X133767041Y-75975000D02*
X133767041Y-88525000D01*
X133807041Y-75981000D02*
X133807041Y-88519000D01*
X133847041Y-75986000D02*
X133847041Y-88514000D01*
X133887041Y-75992000D02*
X133887041Y-88508000D01*
X133927041Y-75998000D02*
X133927041Y-88502000D01*
X133967041Y-76005000D02*
X133967041Y-88495000D01*
X134007041Y-76012000D02*
X134007041Y-80810000D01*
X134007041Y-83690000D02*
X134007041Y-88488000D01*
X134047041Y-76019000D02*
X134047041Y-80810000D01*
X134047041Y-83690000D02*
X134047041Y-88481000D01*
X134087041Y-76026000D02*
X134087041Y-80810000D01*
X134087041Y-83690000D02*
X134087041Y-88474000D01*
X134127041Y-76034000D02*
X134127041Y-80810000D01*
X134127041Y-83690000D02*
X134127041Y-88466000D01*
X134167041Y-76041000D02*
X134167041Y-80810000D01*
X134167041Y-83690000D02*
X134167041Y-88459000D01*
X134207041Y-76049000D02*
X134207041Y-80810000D01*
X134207041Y-83690000D02*
X134207041Y-88451000D01*
X134247041Y-76058000D02*
X134247041Y-80810000D01*
X134247041Y-83690000D02*
X134247041Y-88442000D01*
X134287041Y-76066000D02*
X134287041Y-80810000D01*
X134287041Y-83690000D02*
X134287041Y-88434000D01*
X134327041Y-76075000D02*
X134327041Y-80810000D01*
X134327041Y-83690000D02*
X134327041Y-88425000D01*
X134367041Y-76084000D02*
X134367041Y-80810000D01*
X134367041Y-83690000D02*
X134367041Y-88416000D01*
X134407041Y-76094000D02*
X134407041Y-80810000D01*
X134407041Y-83690000D02*
X134407041Y-88406000D01*
X134447041Y-76104000D02*
X134447041Y-80810000D01*
X134447041Y-83690000D02*
X134447041Y-88396000D01*
X134487041Y-76113000D02*
X134487041Y-80810000D01*
X134487041Y-83690000D02*
X134487041Y-88387000D01*
X134527041Y-76124000D02*
X134527041Y-80810000D01*
X134527041Y-83690000D02*
X134527041Y-88376000D01*
X134567041Y-76134000D02*
X134567041Y-80810000D01*
X134567041Y-83690000D02*
X134567041Y-88366000D01*
X134607041Y-76145000D02*
X134607041Y-80810000D01*
X134607041Y-83690000D02*
X134607041Y-88355000D01*
X134647041Y-76156000D02*
X134647041Y-80810000D01*
X134647041Y-83690000D02*
X134647041Y-88344000D01*
X134687041Y-76167000D02*
X134687041Y-80810000D01*
X134687041Y-83690000D02*
X134687041Y-88333000D01*
X134727041Y-76179000D02*
X134727041Y-80810000D01*
X134727041Y-83690000D02*
X134727041Y-88321000D01*
X134767041Y-76191000D02*
X134767041Y-80810000D01*
X134767041Y-83690000D02*
X134767041Y-88309000D01*
X134807041Y-76203000D02*
X134807041Y-80810000D01*
X134807041Y-83690000D02*
X134807041Y-88297000D01*
X134847041Y-76216000D02*
X134847041Y-80810000D01*
X134847041Y-83690000D02*
X134847041Y-88284000D01*
X134887041Y-76229000D02*
X134887041Y-80810000D01*
X134887041Y-83690000D02*
X134887041Y-88271000D01*
X134927041Y-76242000D02*
X134927041Y-80810000D01*
X134927041Y-83690000D02*
X134927041Y-88258000D01*
X134967041Y-76255000D02*
X134967041Y-80810000D01*
X134967041Y-83690000D02*
X134967041Y-88245000D01*
X135007041Y-76269000D02*
X135007041Y-80810000D01*
X135007041Y-83690000D02*
X135007041Y-88231000D01*
X135047041Y-76283000D02*
X135047041Y-80810000D01*
X135047041Y-83690000D02*
X135047041Y-88217000D01*
X135087041Y-76297000D02*
X135087041Y-80810000D01*
X135087041Y-83690000D02*
X135087041Y-88203000D01*
X135127041Y-76311000D02*
X135127041Y-80810000D01*
X135127041Y-83690000D02*
X135127041Y-88189000D01*
X135167041Y-76326000D02*
X135167041Y-80810000D01*
X135167041Y-83690000D02*
X135167041Y-88174000D01*
X135207041Y-76342000D02*
X135207041Y-80810000D01*
X135207041Y-83690000D02*
X135207041Y-88158000D01*
X135247041Y-76357000D02*
X135247041Y-80810000D01*
X135247041Y-83690000D02*
X135247041Y-88143000D01*
X135287041Y-76373000D02*
X135287041Y-80810000D01*
X135287041Y-83690000D02*
X135287041Y-88127000D01*
X135327041Y-76389000D02*
X135327041Y-80810000D01*
X135327041Y-83690000D02*
X135327041Y-88111000D01*
X135367041Y-76405000D02*
X135367041Y-80810000D01*
X135367041Y-83690000D02*
X135367041Y-88095000D01*
X135407041Y-76422000D02*
X135407041Y-80810000D01*
X135407041Y-83690000D02*
X135407041Y-88078000D01*
X135447041Y-76439000D02*
X135447041Y-80810000D01*
X135447041Y-83690000D02*
X135447041Y-88061000D01*
X135487041Y-76457000D02*
X135487041Y-80810000D01*
X135487041Y-83690000D02*
X135487041Y-88043000D01*
X135527041Y-76474000D02*
X135527041Y-80810000D01*
X135527041Y-83690000D02*
X135527041Y-88026000D01*
X135567041Y-76492000D02*
X135567041Y-80810000D01*
X135567041Y-83690000D02*
X135567041Y-88008000D01*
X135607041Y-76511000D02*
X135607041Y-80810000D01*
X135607041Y-83690000D02*
X135607041Y-87989000D01*
X135647041Y-76529000D02*
X135647041Y-80810000D01*
X135647041Y-83690000D02*
X135647041Y-87971000D01*
X135687041Y-76548000D02*
X135687041Y-80810000D01*
X135687041Y-83690000D02*
X135687041Y-87952000D01*
X135727041Y-76568000D02*
X135727041Y-80810000D01*
X135727041Y-83690000D02*
X135727041Y-87932000D01*
X135767041Y-76588000D02*
X135767041Y-80810000D01*
X135767041Y-83690000D02*
X135767041Y-87912000D01*
X135807041Y-76608000D02*
X135807041Y-80810000D01*
X135807041Y-83690000D02*
X135807041Y-87892000D01*
X135847041Y-76628000D02*
X135847041Y-80810000D01*
X135847041Y-83690000D02*
X135847041Y-87872000D01*
X135887041Y-76649000D02*
X135887041Y-80810000D01*
X135887041Y-83690000D02*
X135887041Y-87851000D01*
X135927041Y-76670000D02*
X135927041Y-80810000D01*
X135927041Y-83690000D02*
X135927041Y-87830000D01*
X135967041Y-76692000D02*
X135967041Y-80810000D01*
X135967041Y-83690000D02*
X135967041Y-87808000D01*
X136007041Y-76714000D02*
X136007041Y-80810000D01*
X136007041Y-83690000D02*
X136007041Y-87786000D01*
X136047041Y-76736000D02*
X136047041Y-80810000D01*
X136047041Y-83690000D02*
X136047041Y-87764000D01*
X136087041Y-76759000D02*
X136087041Y-80810000D01*
X136087041Y-83690000D02*
X136087041Y-87741000D01*
X136127041Y-76782000D02*
X136127041Y-80810000D01*
X136127041Y-83690000D02*
X136127041Y-87718000D01*
X136167041Y-76805000D02*
X136167041Y-80810000D01*
X136167041Y-83690000D02*
X136167041Y-87695000D01*
X136207041Y-76829000D02*
X136207041Y-80810000D01*
X136207041Y-83690000D02*
X136207041Y-87671000D01*
X136247041Y-76853000D02*
X136247041Y-80810000D01*
X136247041Y-83690000D02*
X136247041Y-87647000D01*
X136287041Y-76878000D02*
X136287041Y-80810000D01*
X136287041Y-83690000D02*
X136287041Y-87622000D01*
X136327041Y-76903000D02*
X136327041Y-80810000D01*
X136327041Y-83690000D02*
X136327041Y-87597000D01*
X136367041Y-76928000D02*
X136367041Y-80810000D01*
X136367041Y-83690000D02*
X136367041Y-87572000D01*
X136407041Y-76954000D02*
X136407041Y-80810000D01*
X136407041Y-83690000D02*
X136407041Y-87546000D01*
X136447041Y-76980000D02*
X136447041Y-80810000D01*
X136447041Y-83690000D02*
X136447041Y-87520000D01*
X136487041Y-77007000D02*
X136487041Y-80810000D01*
X136487041Y-83690000D02*
X136487041Y-87493000D01*
X136527041Y-77034000D02*
X136527041Y-80810000D01*
X136527041Y-83690000D02*
X136527041Y-87466000D01*
X136567041Y-77062000D02*
X136567041Y-80810000D01*
X136567041Y-83690000D02*
X136567041Y-87438000D01*
X136607041Y-77090000D02*
X136607041Y-80810000D01*
X136607041Y-83690000D02*
X136607041Y-87410000D01*
X136647041Y-77119000D02*
X136647041Y-80810000D01*
X136647041Y-83690000D02*
X136647041Y-87381000D01*
X136687041Y-77148000D02*
X136687041Y-80810000D01*
X136687041Y-83690000D02*
X136687041Y-87352000D01*
X136727041Y-77177000D02*
X136727041Y-80810000D01*
X136727041Y-83690000D02*
X136727041Y-87323000D01*
X136767041Y-77207000D02*
X136767041Y-80810000D01*
X136767041Y-83690000D02*
X136767041Y-87293000D01*
X136807041Y-77238000D02*
X136807041Y-80810000D01*
X136807041Y-83690000D02*
X136807041Y-87262000D01*
X136847041Y-77268000D02*
X136847041Y-80810000D01*
X136847041Y-83690000D02*
X136847041Y-87232000D01*
X136887041Y-77300000D02*
X136887041Y-87200000D01*
X136927041Y-77332000D02*
X136927041Y-87168000D01*
X136967041Y-77365000D02*
X136967041Y-87135000D01*
X137007041Y-77398000D02*
X137007041Y-87102000D01*
X137047041Y-77431000D02*
X137047041Y-87069000D01*
X137087041Y-77465000D02*
X137087041Y-87035000D01*
X137127041Y-77500000D02*
X137127041Y-87000000D01*
X137167041Y-77536000D02*
X137167041Y-86964000D01*
X137207041Y-77572000D02*
X137207041Y-86928000D01*
X137247041Y-77608000D02*
X137247041Y-86892000D01*
X137287041Y-77645000D02*
X137287041Y-86855000D01*
X137327041Y-77683000D02*
X137327041Y-86817000D01*
X137367041Y-77722000D02*
X137367041Y-86778000D01*
X137407041Y-77761000D02*
X137407041Y-86739000D01*
X137447041Y-77801000D02*
X137447041Y-86699000D01*
X137487041Y-77842000D02*
X137487041Y-86658000D01*
X137527041Y-77883000D02*
X137527041Y-86617000D01*
X137567041Y-77925000D02*
X137567041Y-86575000D01*
X137607041Y-77968000D02*
X137607041Y-86532000D01*
X137647041Y-78012000D02*
X137647041Y-86488000D01*
X137687041Y-78056000D02*
X137687041Y-86444000D01*
X137727041Y-78102000D02*
X137727041Y-86398000D01*
X137767041Y-78148000D02*
X137767041Y-86352000D01*
X137807041Y-78195000D02*
X137807041Y-86305000D01*
X137847041Y-78243000D02*
X137847041Y-86257000D01*
X137887041Y-78293000D02*
X137887041Y-86207000D01*
X137927041Y-78343000D02*
X137927041Y-86157000D01*
X137967041Y-78394000D02*
X137967041Y-86106000D01*
X138007041Y-78446000D02*
X138007041Y-86054000D01*
X138047041Y-78500000D02*
X138047041Y-86000000D01*
X138087041Y-78554000D02*
X138087041Y-85946000D01*
X138127041Y-78610000D02*
X138127041Y-85890000D01*
X138167041Y-78667000D02*
X138167041Y-85833000D01*
X138207041Y-78726000D02*
X138207041Y-85774000D01*
X138247041Y-78786000D02*
X138247041Y-85714000D01*
X138287041Y-78848000D02*
X138287041Y-85652000D01*
X138327041Y-78911000D02*
X138327041Y-85589000D01*
X138367041Y-78975000D02*
X138367041Y-85525000D01*
X138407041Y-79042000D02*
X138407041Y-85458000D01*
X138447041Y-79110000D02*
X138447041Y-85390000D01*
X138487041Y-79181000D02*
X138487041Y-85319000D01*
X138527041Y-79254000D02*
X138527041Y-85246000D01*
X138567041Y-79329000D02*
X138567041Y-85171000D01*
X138607041Y-79406000D02*
X138607041Y-85094000D01*
X138647041Y-79486000D02*
X138647041Y-85014000D01*
X138687041Y-79569000D02*
X138687041Y-84931000D01*
X138727041Y-79656000D02*
X138727041Y-84844000D01*
X138767041Y-79746000D02*
X138767041Y-84754000D01*
X138807041Y-79840000D02*
X138807041Y-84660000D01*
X138847041Y-79938000D02*
X138847041Y-84562000D01*
X138887041Y-80041000D02*
X138887041Y-84459000D01*
X138927041Y-80150000D02*
X138927041Y-84350000D01*
X138967041Y-80266000D02*
X138967041Y-84234000D01*
X139007041Y-80389000D02*
X139007041Y-84111000D01*
X139047041Y-80522000D02*
X139047041Y-83978000D01*
X139087041Y-80667000D02*
X139087041Y-83833000D01*
X139127041Y-80828000D02*
X139127041Y-83672000D01*
X139167041Y-81009000D02*
X139167041Y-83491000D01*
X139207041Y-81222000D02*
X139207041Y-83278000D01*
X139247041Y-81493000D02*
X139247041Y-83007000D01*
X139287041Y-81933000D02*
X139287041Y-82567000D01*
X139296041Y-82250000D02*
G75*
G02*
X126556041Y-82250000I-6370000J0D01*
G01*
X126556041Y-82250000D02*
G75*
G02*
X139296041Y-82250000I6370000J0D01*
G01*
%TO.C,D7*%
X141375000Y-52294999D02*
X141375000Y-49204999D01*
X135825000Y-50750461D02*
G75*
G02*
X141375000Y-49205169I2990000J462D01*
G01*
X141375000Y-52294829D02*
G75*
G02*
X135825000Y-50749537I-2560000J1544830D01*
G01*
X141315000Y-50749999D02*
G75*
G02*
X136315000Y-50749999I-2500000J0D01*
G01*
X136315000Y-50749999D02*
G75*
G02*
X141315000Y-50749999I2500000J0D01*
G01*
%TO.C,U4*%
X181572500Y-52457500D02*
X181572500Y-55117500D01*
D14*
X187562500Y-46787500D02*
X188562500Y-45287500D01*
X187562500Y-46787500D02*
X190562500Y-49287500D01*
D13*
X191792500Y-52457500D02*
X181572500Y-52457500D01*
X191792500Y-52457500D02*
X191792500Y-55117500D01*
X191792500Y-55117500D02*
X181572500Y-55117500D01*
X193062500Y-52457500D02*
X194392500Y-52457500D01*
X194392500Y-52457500D02*
X194392500Y-53787500D01*
D15*
X195062500Y-40937500D02*
X180562500Y-40937500D01*
X180562500Y-55437500D01*
X195062500Y-55437500D01*
X195062500Y-40937500D01*
D14*
X192562500Y-46787500D02*
G75*
G02*
X182562500Y-46787500I-5000000J0D01*
G01*
X182562500Y-46787500D02*
G75*
G02*
X192562500Y-46787500I5000000J0D01*
G01*
D13*
%TO.C,J5*%
X161615000Y-82670000D02*
X161615000Y-85330000D01*
X166755000Y-82670000D02*
X161615000Y-82670000D01*
X166755000Y-82670000D02*
X166755000Y-85330000D01*
X166755000Y-85330000D02*
X161615000Y-85330000D01*
X168025000Y-82670000D02*
X169355000Y-82670000D01*
X169355000Y-82670000D02*
X169355000Y-84000000D01*
%TO.C,C4*%
X111712959Y-62567000D02*
X111712959Y-61933000D01*
X111752959Y-63007000D02*
X111752959Y-61493000D01*
X111792959Y-63278000D02*
X111792959Y-61222000D01*
X111832959Y-63491000D02*
X111832959Y-61009000D01*
X111872959Y-63672000D02*
X111872959Y-60828000D01*
X111912959Y-63833000D02*
X111912959Y-60667000D01*
X111952959Y-63978000D02*
X111952959Y-60522000D01*
X111992959Y-64111000D02*
X111992959Y-60389000D01*
X112032959Y-64234000D02*
X112032959Y-60266000D01*
X112072959Y-64350000D02*
X112072959Y-60150000D01*
X112112959Y-64459000D02*
X112112959Y-60041000D01*
X112152959Y-64562000D02*
X112152959Y-59938000D01*
X112192959Y-64660000D02*
X112192959Y-59840000D01*
X112232959Y-64754000D02*
X112232959Y-59746000D01*
X112272959Y-64844000D02*
X112272959Y-59656000D01*
X112312959Y-64931000D02*
X112312959Y-59569000D01*
X112352959Y-65014000D02*
X112352959Y-59486000D01*
X112392959Y-65094000D02*
X112392959Y-59406000D01*
X112432959Y-65171000D02*
X112432959Y-59329000D01*
X112472959Y-65246000D02*
X112472959Y-59254000D01*
X112512959Y-65319000D02*
X112512959Y-59181000D01*
X112552959Y-65390000D02*
X112552959Y-59110000D01*
X112592959Y-65458000D02*
X112592959Y-59042000D01*
X112632959Y-65525000D02*
X112632959Y-58975000D01*
X112672959Y-65589000D02*
X112672959Y-58911000D01*
X112712959Y-65652000D02*
X112712959Y-58848000D01*
X112752959Y-65714000D02*
X112752959Y-58786000D01*
X112792959Y-65774000D02*
X112792959Y-58726000D01*
X112832959Y-65833000D02*
X112832959Y-58667000D01*
X112872959Y-65890000D02*
X112872959Y-58610000D01*
X112912959Y-65946000D02*
X112912959Y-58554000D01*
X112952959Y-66000000D02*
X112952959Y-58500000D01*
X112992959Y-66054000D02*
X112992959Y-58446000D01*
X113032959Y-66106000D02*
X113032959Y-58394000D01*
X113072959Y-66157000D02*
X113072959Y-58343000D01*
X113112959Y-66207000D02*
X113112959Y-58293000D01*
X113152959Y-66257000D02*
X113152959Y-58243000D01*
X113192959Y-66305000D02*
X113192959Y-58195000D01*
X113232959Y-66352000D02*
X113232959Y-58148000D01*
X113272959Y-66398000D02*
X113272959Y-58102000D01*
X113312959Y-66444000D02*
X113312959Y-58056000D01*
X113352959Y-66488000D02*
X113352959Y-58012000D01*
X113392959Y-66532000D02*
X113392959Y-57968000D01*
X113432959Y-66575000D02*
X113432959Y-57925000D01*
X113472959Y-66617000D02*
X113472959Y-57883000D01*
X113512959Y-66658000D02*
X113512959Y-57842000D01*
X113552959Y-66699000D02*
X113552959Y-57801000D01*
X113592959Y-66739000D02*
X113592959Y-57761000D01*
X113632959Y-66778000D02*
X113632959Y-57722000D01*
X113672959Y-66817000D02*
X113672959Y-57683000D01*
X113712959Y-66855000D02*
X113712959Y-57645000D01*
X113752959Y-66892000D02*
X113752959Y-57608000D01*
X113792959Y-66928000D02*
X113792959Y-57572000D01*
X113832959Y-66964000D02*
X113832959Y-57536000D01*
X113872959Y-67000000D02*
X113872959Y-57500000D01*
X113912959Y-67035000D02*
X113912959Y-57465000D01*
X113952959Y-67069000D02*
X113952959Y-57431000D01*
X113992959Y-67102000D02*
X113992959Y-57398000D01*
X114032959Y-67135000D02*
X114032959Y-57365000D01*
X114072959Y-67168000D02*
X114072959Y-57332000D01*
X114112959Y-67200000D02*
X114112959Y-57300000D01*
X114152959Y-60810000D02*
X114152959Y-57268000D01*
X114152959Y-67232000D02*
X114152959Y-63690000D01*
X114192959Y-60810000D02*
X114192959Y-57238000D01*
X114192959Y-67262000D02*
X114192959Y-63690000D01*
X114232959Y-60810000D02*
X114232959Y-57207000D01*
X114232959Y-67293000D02*
X114232959Y-63690000D01*
X114272959Y-60810000D02*
X114272959Y-57177000D01*
X114272959Y-67323000D02*
X114272959Y-63690000D01*
X114312959Y-60810000D02*
X114312959Y-57148000D01*
X114312959Y-67352000D02*
X114312959Y-63690000D01*
X114352959Y-60810000D02*
X114352959Y-57119000D01*
X114352959Y-67381000D02*
X114352959Y-63690000D01*
X114392959Y-60810000D02*
X114392959Y-57090000D01*
X114392959Y-67410000D02*
X114392959Y-63690000D01*
X114432959Y-60810000D02*
X114432959Y-57062000D01*
X114432959Y-67438000D02*
X114432959Y-63690000D01*
X114472959Y-60810000D02*
X114472959Y-57034000D01*
X114472959Y-67466000D02*
X114472959Y-63690000D01*
X114512959Y-60810000D02*
X114512959Y-57007000D01*
X114512959Y-67493000D02*
X114512959Y-63690000D01*
X114552959Y-60810000D02*
X114552959Y-56980000D01*
X114552959Y-67520000D02*
X114552959Y-63690000D01*
X114592959Y-60810000D02*
X114592959Y-56954000D01*
X114592959Y-67546000D02*
X114592959Y-63690000D01*
X114632959Y-60810000D02*
X114632959Y-56928000D01*
X114632959Y-67572000D02*
X114632959Y-63690000D01*
X114672959Y-60810000D02*
X114672959Y-56903000D01*
X114672959Y-67597000D02*
X114672959Y-63690000D01*
X114712959Y-60810000D02*
X114712959Y-56878000D01*
X114712959Y-67622000D02*
X114712959Y-63690000D01*
X114752959Y-60810000D02*
X114752959Y-56853000D01*
X114752959Y-67647000D02*
X114752959Y-63690000D01*
X114792959Y-60810000D02*
X114792959Y-56829000D01*
X114792959Y-67671000D02*
X114792959Y-63690000D01*
X114832959Y-60810000D02*
X114832959Y-56805000D01*
X114832959Y-67695000D02*
X114832959Y-63690000D01*
X114872959Y-60810000D02*
X114872959Y-56782000D01*
X114872959Y-67718000D02*
X114872959Y-63690000D01*
X114912959Y-60810000D02*
X114912959Y-56759000D01*
X114912959Y-67741000D02*
X114912959Y-63690000D01*
X114952959Y-60810000D02*
X114952959Y-56736000D01*
X114952959Y-67764000D02*
X114952959Y-63690000D01*
X114992959Y-60810000D02*
X114992959Y-56714000D01*
X114992959Y-67786000D02*
X114992959Y-63690000D01*
X115032959Y-60810000D02*
X115032959Y-56692000D01*
X115032959Y-67808000D02*
X115032959Y-63690000D01*
X115072959Y-60810000D02*
X115072959Y-56670000D01*
X115072959Y-67830000D02*
X115072959Y-63690000D01*
X115112959Y-60810000D02*
X115112959Y-56649000D01*
X115112959Y-67851000D02*
X115112959Y-63690000D01*
X115152959Y-60810000D02*
X115152959Y-56628000D01*
X115152959Y-67872000D02*
X115152959Y-63690000D01*
X115192959Y-60810000D02*
X115192959Y-56608000D01*
X115192959Y-67892000D02*
X115192959Y-63690000D01*
X115232959Y-60810000D02*
X115232959Y-56588000D01*
X115232959Y-67912000D02*
X115232959Y-63690000D01*
X115272959Y-60810000D02*
X115272959Y-56568000D01*
X115272959Y-67932000D02*
X115272959Y-63690000D01*
X115312959Y-60810000D02*
X115312959Y-56548000D01*
X115312959Y-67952000D02*
X115312959Y-63690000D01*
X115352959Y-60810000D02*
X115352959Y-56529000D01*
X115352959Y-67971000D02*
X115352959Y-63690000D01*
X115392959Y-60810000D02*
X115392959Y-56511000D01*
X115392959Y-67989000D02*
X115392959Y-63690000D01*
X115432959Y-60810000D02*
X115432959Y-56492000D01*
X115432959Y-68008000D02*
X115432959Y-63690000D01*
X115472959Y-60810000D02*
X115472959Y-56474000D01*
X115472959Y-68026000D02*
X115472959Y-63690000D01*
X115512959Y-60810000D02*
X115512959Y-56457000D01*
X115512959Y-68043000D02*
X115512959Y-63690000D01*
X115552959Y-60810000D02*
X115552959Y-56439000D01*
X115552959Y-68061000D02*
X115552959Y-63690000D01*
X115592959Y-60810000D02*
X115592959Y-56422000D01*
X115592959Y-68078000D02*
X115592959Y-63690000D01*
X115632959Y-60810000D02*
X115632959Y-56405000D01*
X115632959Y-68095000D02*
X115632959Y-63690000D01*
X115672959Y-60810000D02*
X115672959Y-56389000D01*
X115672959Y-68111000D02*
X115672959Y-63690000D01*
X115712959Y-60810000D02*
X115712959Y-56373000D01*
X115712959Y-68127000D02*
X115712959Y-63690000D01*
X115752959Y-60810000D02*
X115752959Y-56357000D01*
X115752959Y-68143000D02*
X115752959Y-63690000D01*
X115792959Y-60810000D02*
X115792959Y-56342000D01*
X115792959Y-68158000D02*
X115792959Y-63690000D01*
X115832959Y-60810000D02*
X115832959Y-56326000D01*
X115832959Y-68174000D02*
X115832959Y-63690000D01*
X115872959Y-60810000D02*
X115872959Y-56311000D01*
X115872959Y-68189000D02*
X115872959Y-63690000D01*
X115912959Y-60810000D02*
X115912959Y-56297000D01*
X115912959Y-68203000D02*
X115912959Y-63690000D01*
X115952959Y-60810000D02*
X115952959Y-56283000D01*
X115952959Y-68217000D02*
X115952959Y-63690000D01*
X115992959Y-60810000D02*
X115992959Y-56269000D01*
X115992959Y-68231000D02*
X115992959Y-63690000D01*
X116032959Y-60810000D02*
X116032959Y-56255000D01*
X116032959Y-68245000D02*
X116032959Y-63690000D01*
X116072959Y-60810000D02*
X116072959Y-56242000D01*
X116072959Y-68258000D02*
X116072959Y-63690000D01*
X116112959Y-60810000D02*
X116112959Y-56229000D01*
X116112959Y-68271000D02*
X116112959Y-63690000D01*
X116152959Y-60810000D02*
X116152959Y-56216000D01*
X116152959Y-68284000D02*
X116152959Y-63690000D01*
X116192959Y-60810000D02*
X116192959Y-56203000D01*
X116192959Y-68297000D02*
X116192959Y-63690000D01*
X116232959Y-60810000D02*
X116232959Y-56191000D01*
X116232959Y-68309000D02*
X116232959Y-63690000D01*
X116272959Y-60810000D02*
X116272959Y-56179000D01*
X116272959Y-68321000D02*
X116272959Y-63690000D01*
X116312959Y-60810000D02*
X116312959Y-56167000D01*
X116312959Y-68333000D02*
X116312959Y-63690000D01*
X116352959Y-60810000D02*
X116352959Y-56156000D01*
X116352959Y-68344000D02*
X116352959Y-63690000D01*
X116392959Y-60810000D02*
X116392959Y-56145000D01*
X116392959Y-68355000D02*
X116392959Y-63690000D01*
X116432959Y-60810000D02*
X116432959Y-56134000D01*
X116432959Y-68366000D02*
X116432959Y-63690000D01*
X116472959Y-60810000D02*
X116472959Y-56124000D01*
X116472959Y-68376000D02*
X116472959Y-63690000D01*
X116512959Y-60810000D02*
X116512959Y-56113000D01*
X116512959Y-68387000D02*
X116512959Y-63690000D01*
X116552959Y-60810000D02*
X116552959Y-56104000D01*
X116552959Y-68396000D02*
X116552959Y-63690000D01*
X116592959Y-60810000D02*
X116592959Y-56094000D01*
X116592959Y-68406000D02*
X116592959Y-63690000D01*
X116632959Y-60810000D02*
X116632959Y-56084000D01*
X116632959Y-68416000D02*
X116632959Y-63690000D01*
X116672959Y-60810000D02*
X116672959Y-56075000D01*
X116672959Y-68425000D02*
X116672959Y-63690000D01*
X116712959Y-60810000D02*
X116712959Y-56066000D01*
X116712959Y-68434000D02*
X116712959Y-63690000D01*
X116752959Y-60810000D02*
X116752959Y-56058000D01*
X116752959Y-68442000D02*
X116752959Y-63690000D01*
X116792959Y-60810000D02*
X116792959Y-56049000D01*
X116792959Y-68451000D02*
X116792959Y-63690000D01*
X116832959Y-60810000D02*
X116832959Y-56041000D01*
X116832959Y-68459000D02*
X116832959Y-63690000D01*
X116872959Y-60810000D02*
X116872959Y-56034000D01*
X116872959Y-68466000D02*
X116872959Y-63690000D01*
X116912959Y-60810000D02*
X116912959Y-56026000D01*
X116912959Y-68474000D02*
X116912959Y-63690000D01*
X116952959Y-60810000D02*
X116952959Y-56019000D01*
X116952959Y-68481000D02*
X116952959Y-63690000D01*
X116992959Y-60810000D02*
X116992959Y-56012000D01*
X116992959Y-68488000D02*
X116992959Y-63690000D01*
X117032959Y-68495000D02*
X117032959Y-56005000D01*
X117072959Y-68502000D02*
X117072959Y-55998000D01*
X117112959Y-68508000D02*
X117112959Y-55992000D01*
X117152959Y-68514000D02*
X117152959Y-55986000D01*
X117192959Y-68519000D02*
X117192959Y-55981000D01*
X117232959Y-68525000D02*
X117232959Y-55975000D01*
X117272959Y-68530000D02*
X117272959Y-55970000D01*
X117312959Y-68535000D02*
X117312959Y-55965000D01*
X117352959Y-68540000D02*
X117352959Y-55960000D01*
X117393959Y-68544000D02*
X117393959Y-55956000D01*
X117433959Y-68548000D02*
X117433959Y-55952000D01*
X117473959Y-68552000D02*
X117473959Y-55948000D01*
X117513959Y-68556000D02*
X117513959Y-55944000D01*
X117553959Y-68559000D02*
X117553959Y-55941000D01*
X117593959Y-68562000D02*
X117593959Y-55938000D01*
X117633959Y-68565000D02*
X117633959Y-55935000D01*
X117673959Y-68568000D02*
X117673959Y-55932000D01*
X117713959Y-68570000D02*
X117713959Y-55930000D01*
X117753959Y-68572000D02*
X117753959Y-55928000D01*
X117793959Y-68574000D02*
X117793959Y-55926000D01*
X117833959Y-68576000D02*
X117833959Y-55924000D01*
X117873959Y-68577000D02*
X117873959Y-55923000D01*
X117913959Y-68578000D02*
X117913959Y-55922000D01*
X117953959Y-68579000D02*
X117953959Y-55921000D01*
X117993959Y-68580000D02*
X117993959Y-55920000D01*
X118033959Y-68580000D02*
X118033959Y-55920000D01*
X118073959Y-68580000D02*
X118073959Y-55920000D01*
X124266041Y-66450000D02*
X124266041Y-65200000D01*
X124891041Y-65825000D02*
X123641041Y-65825000D01*
X124443959Y-62250000D02*
G75*
G02*
X111703959Y-62250000I-6370000J0D01*
G01*
X111703959Y-62250000D02*
G75*
G02*
X124443959Y-62250000I6370000J0D01*
G01*
%TD*%
M02*
