G04 #@! TF.GenerationSoftware,KiCad,Pcbnew,5.1.5+dfsg1-2build2*
G04 #@! TF.CreationDate,2021-07-02T23:51:08+02:00*
G04 #@! TF.ProjectId,flyback_DCM,666c7962-6163-46b5-9f44-434d2e6b6963,rev?*
G04 #@! TF.SameCoordinates,Original*
G04 #@! TF.FileFunction,Copper,L4,Bot*
G04 #@! TF.FilePolarity,Positive*
%FSLAX46Y46*%
G04 Gerber Fmt 4.6, Leading zero omitted, Abs format (unit mm)*
G04 Created by KiCad (PCBNEW 5.1.5+dfsg1-2build2) date 2021-07-02 23:51:08*
%MOMM*%
%LPD*%
G04 APERTURE LIST*
%ADD10C,0.100000*%
%ADD11O,1.000000X1.000000*%
%ADD12R,1.000000X1.000000*%
%ADD13O,1.700000X1.700000*%
%ADD14R,1.700000X1.700000*%
%ADD15C,0.499999*%
%ADD16C,0.700000*%
%ADD17C,4.400000*%
%ADD18R,1.000000X1.500000*%
%ADD19C,2.800000*%
%ADD20C,0.800000*%
%ADD21C,0.500000*%
%ADD22C,0.250000*%
%ADD23C,1.500000*%
%ADD24C,0.500000*%
%ADD25C,0.300000*%
%ADD26C,0.254000*%
G04 APERTURE END LIST*
D10*
G36*
X130058000Y-95548000D02*
G01*
X129558000Y-95548000D01*
X129558000Y-96148000D01*
X130058000Y-96148000D01*
X130058000Y-95548000D01*
G37*
D11*
X124000000Y-95480000D03*
D12*
X124000000Y-96750000D03*
D13*
X123000000Y-89500000D03*
D14*
X123000000Y-92040000D03*
D15*
X127000000Y-100000000D03*
X127000000Y-102500000D03*
X126259999Y-101250000D03*
X127740001Y-101250000D03*
G04 #@! TA.AperFunction,SMDPad,CuDef*
D10*
G36*
X129027691Y-102026053D02*
G01*
X129048926Y-102029203D01*
X129069750Y-102034419D01*
X129089962Y-102041651D01*
X129109368Y-102050830D01*
X129127781Y-102061866D01*
X129145024Y-102074654D01*
X129160930Y-102089070D01*
X129175346Y-102104976D01*
X129188134Y-102122219D01*
X129199170Y-102140632D01*
X129208349Y-102160038D01*
X129215581Y-102180250D01*
X129220797Y-102201074D01*
X129223947Y-102222309D01*
X129225000Y-102243750D01*
X129225000Y-102681250D01*
X129223947Y-102702691D01*
X129220797Y-102723926D01*
X129215581Y-102744750D01*
X129208349Y-102764962D01*
X129199170Y-102784368D01*
X129188134Y-102802781D01*
X129175346Y-102820024D01*
X129160930Y-102835930D01*
X129145024Y-102850346D01*
X129127781Y-102863134D01*
X129109368Y-102874170D01*
X129089962Y-102883349D01*
X129069750Y-102890581D01*
X129048926Y-102895797D01*
X129027691Y-102898947D01*
X129006250Y-102900000D01*
X128493750Y-102900000D01*
X128472309Y-102898947D01*
X128451074Y-102895797D01*
X128430250Y-102890581D01*
X128410038Y-102883349D01*
X128390632Y-102874170D01*
X128372219Y-102863134D01*
X128354976Y-102850346D01*
X128339070Y-102835930D01*
X128324654Y-102820024D01*
X128311866Y-102802781D01*
X128300830Y-102784368D01*
X128291651Y-102764962D01*
X128284419Y-102744750D01*
X128279203Y-102723926D01*
X128276053Y-102702691D01*
X128275000Y-102681250D01*
X128275000Y-102243750D01*
X128276053Y-102222309D01*
X128279203Y-102201074D01*
X128284419Y-102180250D01*
X128291651Y-102160038D01*
X128300830Y-102140632D01*
X128311866Y-102122219D01*
X128324654Y-102104976D01*
X128339070Y-102089070D01*
X128354976Y-102074654D01*
X128372219Y-102061866D01*
X128390632Y-102050830D01*
X128410038Y-102041651D01*
X128430250Y-102034419D01*
X128451074Y-102029203D01*
X128472309Y-102026053D01*
X128493750Y-102025000D01*
X129006250Y-102025000D01*
X129027691Y-102026053D01*
G37*
G04 #@! TD.AperFunction*
G04 #@! TA.AperFunction,SMDPad,CuDef*
G36*
X129027691Y-103601053D02*
G01*
X129048926Y-103604203D01*
X129069750Y-103609419D01*
X129089962Y-103616651D01*
X129109368Y-103625830D01*
X129127781Y-103636866D01*
X129145024Y-103649654D01*
X129160930Y-103664070D01*
X129175346Y-103679976D01*
X129188134Y-103697219D01*
X129199170Y-103715632D01*
X129208349Y-103735038D01*
X129215581Y-103755250D01*
X129220797Y-103776074D01*
X129223947Y-103797309D01*
X129225000Y-103818750D01*
X129225000Y-104256250D01*
X129223947Y-104277691D01*
X129220797Y-104298926D01*
X129215581Y-104319750D01*
X129208349Y-104339962D01*
X129199170Y-104359368D01*
X129188134Y-104377781D01*
X129175346Y-104395024D01*
X129160930Y-104410930D01*
X129145024Y-104425346D01*
X129127781Y-104438134D01*
X129109368Y-104449170D01*
X129089962Y-104458349D01*
X129069750Y-104465581D01*
X129048926Y-104470797D01*
X129027691Y-104473947D01*
X129006250Y-104475000D01*
X128493750Y-104475000D01*
X128472309Y-104473947D01*
X128451074Y-104470797D01*
X128430250Y-104465581D01*
X128410038Y-104458349D01*
X128390632Y-104449170D01*
X128372219Y-104438134D01*
X128354976Y-104425346D01*
X128339070Y-104410930D01*
X128324654Y-104395024D01*
X128311866Y-104377781D01*
X128300830Y-104359368D01*
X128291651Y-104339962D01*
X128284419Y-104319750D01*
X128279203Y-104298926D01*
X128276053Y-104277691D01*
X128275000Y-104256250D01*
X128275000Y-103818750D01*
X128276053Y-103797309D01*
X128279203Y-103776074D01*
X128284419Y-103755250D01*
X128291651Y-103735038D01*
X128300830Y-103715632D01*
X128311866Y-103697219D01*
X128324654Y-103679976D01*
X128339070Y-103664070D01*
X128354976Y-103649654D01*
X128372219Y-103636866D01*
X128390632Y-103625830D01*
X128410038Y-103616651D01*
X128430250Y-103609419D01*
X128451074Y-103604203D01*
X128472309Y-103601053D01*
X128493750Y-103600000D01*
X129006250Y-103600000D01*
X129027691Y-103601053D01*
G37*
G04 #@! TD.AperFunction*
G04 #@! TA.AperFunction,SMDPad,CuDef*
G36*
X127310691Y-97660053D02*
G01*
X127331926Y-97663203D01*
X127352750Y-97668419D01*
X127372962Y-97675651D01*
X127392368Y-97684830D01*
X127410781Y-97695866D01*
X127428024Y-97708654D01*
X127443930Y-97723070D01*
X127458346Y-97738976D01*
X127471134Y-97756219D01*
X127482170Y-97774632D01*
X127491349Y-97794038D01*
X127498581Y-97814250D01*
X127503797Y-97835074D01*
X127506947Y-97856309D01*
X127508000Y-97877750D01*
X127508000Y-98390250D01*
X127506947Y-98411691D01*
X127503797Y-98432926D01*
X127498581Y-98453750D01*
X127491349Y-98473962D01*
X127482170Y-98493368D01*
X127471134Y-98511781D01*
X127458346Y-98529024D01*
X127443930Y-98544930D01*
X127428024Y-98559346D01*
X127410781Y-98572134D01*
X127392368Y-98583170D01*
X127372962Y-98592349D01*
X127352750Y-98599581D01*
X127331926Y-98604797D01*
X127310691Y-98607947D01*
X127289250Y-98609000D01*
X126851750Y-98609000D01*
X126830309Y-98607947D01*
X126809074Y-98604797D01*
X126788250Y-98599581D01*
X126768038Y-98592349D01*
X126748632Y-98583170D01*
X126730219Y-98572134D01*
X126712976Y-98559346D01*
X126697070Y-98544930D01*
X126682654Y-98529024D01*
X126669866Y-98511781D01*
X126658830Y-98493368D01*
X126649651Y-98473962D01*
X126642419Y-98453750D01*
X126637203Y-98432926D01*
X126634053Y-98411691D01*
X126633000Y-98390250D01*
X126633000Y-97877750D01*
X126634053Y-97856309D01*
X126637203Y-97835074D01*
X126642419Y-97814250D01*
X126649651Y-97794038D01*
X126658830Y-97774632D01*
X126669866Y-97756219D01*
X126682654Y-97738976D01*
X126697070Y-97723070D01*
X126712976Y-97708654D01*
X126730219Y-97695866D01*
X126748632Y-97684830D01*
X126768038Y-97675651D01*
X126788250Y-97668419D01*
X126809074Y-97663203D01*
X126830309Y-97660053D01*
X126851750Y-97659000D01*
X127289250Y-97659000D01*
X127310691Y-97660053D01*
G37*
G04 #@! TD.AperFunction*
G04 #@! TA.AperFunction,SMDPad,CuDef*
G36*
X128885691Y-97660053D02*
G01*
X128906926Y-97663203D01*
X128927750Y-97668419D01*
X128947962Y-97675651D01*
X128967368Y-97684830D01*
X128985781Y-97695866D01*
X129003024Y-97708654D01*
X129018930Y-97723070D01*
X129033346Y-97738976D01*
X129046134Y-97756219D01*
X129057170Y-97774632D01*
X129066349Y-97794038D01*
X129073581Y-97814250D01*
X129078797Y-97835074D01*
X129081947Y-97856309D01*
X129083000Y-97877750D01*
X129083000Y-98390250D01*
X129081947Y-98411691D01*
X129078797Y-98432926D01*
X129073581Y-98453750D01*
X129066349Y-98473962D01*
X129057170Y-98493368D01*
X129046134Y-98511781D01*
X129033346Y-98529024D01*
X129018930Y-98544930D01*
X129003024Y-98559346D01*
X128985781Y-98572134D01*
X128967368Y-98583170D01*
X128947962Y-98592349D01*
X128927750Y-98599581D01*
X128906926Y-98604797D01*
X128885691Y-98607947D01*
X128864250Y-98609000D01*
X128426750Y-98609000D01*
X128405309Y-98607947D01*
X128384074Y-98604797D01*
X128363250Y-98599581D01*
X128343038Y-98592349D01*
X128323632Y-98583170D01*
X128305219Y-98572134D01*
X128287976Y-98559346D01*
X128272070Y-98544930D01*
X128257654Y-98529024D01*
X128244866Y-98511781D01*
X128233830Y-98493368D01*
X128224651Y-98473962D01*
X128217419Y-98453750D01*
X128212203Y-98432926D01*
X128209053Y-98411691D01*
X128208000Y-98390250D01*
X128208000Y-97877750D01*
X128209053Y-97856309D01*
X128212203Y-97835074D01*
X128217419Y-97814250D01*
X128224651Y-97794038D01*
X128233830Y-97774632D01*
X128244866Y-97756219D01*
X128257654Y-97738976D01*
X128272070Y-97723070D01*
X128287976Y-97708654D01*
X128305219Y-97695866D01*
X128323632Y-97684830D01*
X128343038Y-97675651D01*
X128363250Y-97668419D01*
X128384074Y-97663203D01*
X128405309Y-97660053D01*
X128426750Y-97659000D01*
X128864250Y-97659000D01*
X128885691Y-97660053D01*
G37*
G04 #@! TD.AperFunction*
G04 #@! TA.AperFunction,SMDPad,CuDef*
G36*
X130527691Y-97276053D02*
G01*
X130548926Y-97279203D01*
X130569750Y-97284419D01*
X130589962Y-97291651D01*
X130609368Y-97300830D01*
X130627781Y-97311866D01*
X130645024Y-97324654D01*
X130660930Y-97339070D01*
X130675346Y-97354976D01*
X130688134Y-97372219D01*
X130699170Y-97390632D01*
X130708349Y-97410038D01*
X130715581Y-97430250D01*
X130720797Y-97451074D01*
X130723947Y-97472309D01*
X130725000Y-97493750D01*
X130725000Y-97931250D01*
X130723947Y-97952691D01*
X130720797Y-97973926D01*
X130715581Y-97994750D01*
X130708349Y-98014962D01*
X130699170Y-98034368D01*
X130688134Y-98052781D01*
X130675346Y-98070024D01*
X130660930Y-98085930D01*
X130645024Y-98100346D01*
X130627781Y-98113134D01*
X130609368Y-98124170D01*
X130589962Y-98133349D01*
X130569750Y-98140581D01*
X130548926Y-98145797D01*
X130527691Y-98148947D01*
X130506250Y-98150000D01*
X129993750Y-98150000D01*
X129972309Y-98148947D01*
X129951074Y-98145797D01*
X129930250Y-98140581D01*
X129910038Y-98133349D01*
X129890632Y-98124170D01*
X129872219Y-98113134D01*
X129854976Y-98100346D01*
X129839070Y-98085930D01*
X129824654Y-98070024D01*
X129811866Y-98052781D01*
X129800830Y-98034368D01*
X129791651Y-98014962D01*
X129784419Y-97994750D01*
X129779203Y-97973926D01*
X129776053Y-97952691D01*
X129775000Y-97931250D01*
X129775000Y-97493750D01*
X129776053Y-97472309D01*
X129779203Y-97451074D01*
X129784419Y-97430250D01*
X129791651Y-97410038D01*
X129800830Y-97390632D01*
X129811866Y-97372219D01*
X129824654Y-97354976D01*
X129839070Y-97339070D01*
X129854976Y-97324654D01*
X129872219Y-97311866D01*
X129890632Y-97300830D01*
X129910038Y-97291651D01*
X129930250Y-97284419D01*
X129951074Y-97279203D01*
X129972309Y-97276053D01*
X129993750Y-97275000D01*
X130506250Y-97275000D01*
X130527691Y-97276053D01*
G37*
G04 #@! TD.AperFunction*
G04 #@! TA.AperFunction,SMDPad,CuDef*
G36*
X130527691Y-98851053D02*
G01*
X130548926Y-98854203D01*
X130569750Y-98859419D01*
X130589962Y-98866651D01*
X130609368Y-98875830D01*
X130627781Y-98886866D01*
X130645024Y-98899654D01*
X130660930Y-98914070D01*
X130675346Y-98929976D01*
X130688134Y-98947219D01*
X130699170Y-98965632D01*
X130708349Y-98985038D01*
X130715581Y-99005250D01*
X130720797Y-99026074D01*
X130723947Y-99047309D01*
X130725000Y-99068750D01*
X130725000Y-99506250D01*
X130723947Y-99527691D01*
X130720797Y-99548926D01*
X130715581Y-99569750D01*
X130708349Y-99589962D01*
X130699170Y-99609368D01*
X130688134Y-99627781D01*
X130675346Y-99645024D01*
X130660930Y-99660930D01*
X130645024Y-99675346D01*
X130627781Y-99688134D01*
X130609368Y-99699170D01*
X130589962Y-99708349D01*
X130569750Y-99715581D01*
X130548926Y-99720797D01*
X130527691Y-99723947D01*
X130506250Y-99725000D01*
X129993750Y-99725000D01*
X129972309Y-99723947D01*
X129951074Y-99720797D01*
X129930250Y-99715581D01*
X129910038Y-99708349D01*
X129890632Y-99699170D01*
X129872219Y-99688134D01*
X129854976Y-99675346D01*
X129839070Y-99660930D01*
X129824654Y-99645024D01*
X129811866Y-99627781D01*
X129800830Y-99609368D01*
X129791651Y-99589962D01*
X129784419Y-99569750D01*
X129779203Y-99548926D01*
X129776053Y-99527691D01*
X129775000Y-99506250D01*
X129775000Y-99068750D01*
X129776053Y-99047309D01*
X129779203Y-99026074D01*
X129784419Y-99005250D01*
X129791651Y-98985038D01*
X129800830Y-98965632D01*
X129811866Y-98947219D01*
X129824654Y-98929976D01*
X129839070Y-98914070D01*
X129854976Y-98899654D01*
X129872219Y-98886866D01*
X129890632Y-98875830D01*
X129910038Y-98866651D01*
X129930250Y-98859419D01*
X129951074Y-98854203D01*
X129972309Y-98851053D01*
X129993750Y-98850000D01*
X130506250Y-98850000D01*
X130527691Y-98851053D01*
G37*
G04 #@! TD.AperFunction*
D16*
X124166726Y-81833274D03*
X123000000Y-81350000D03*
X121833274Y-81833274D03*
X121350000Y-83000000D03*
X121833274Y-84166726D03*
X123000000Y-84650000D03*
X124166726Y-84166726D03*
X124650000Y-83000000D03*
D17*
X123000000Y-83000000D03*
D16*
X168166726Y-81833274D03*
X167000000Y-81350000D03*
X165833274Y-81833274D03*
X165350000Y-83000000D03*
X165833274Y-84166726D03*
X167000000Y-84650000D03*
X168166726Y-84166726D03*
X168650000Y-83000000D03*
D17*
X167000000Y-83000000D03*
D16*
X124166726Y-125833274D03*
X123000000Y-125350000D03*
X121833274Y-125833274D03*
X121350000Y-127000000D03*
X121833274Y-128166726D03*
X123000000Y-128650000D03*
X124166726Y-128166726D03*
X124650000Y-127000000D03*
D17*
X123000000Y-127000000D03*
D16*
X168166726Y-125833274D03*
X167000000Y-125350000D03*
X165833274Y-125833274D03*
X165350000Y-127000000D03*
X165833274Y-128166726D03*
X167000000Y-128650000D03*
X168166726Y-128166726D03*
X168650000Y-127000000D03*
D17*
X167000000Y-127000000D03*
D13*
X167500000Y-93940000D03*
X167500000Y-91400000D03*
D14*
X167500000Y-88860000D03*
X167250000Y-116760000D03*
D13*
X167250000Y-119300000D03*
X167250000Y-121840000D03*
G04 #@! TA.AperFunction,SMDPad,CuDef*
D10*
G36*
X127858000Y-96597398D02*
G01*
X127833466Y-96597398D01*
X127784635Y-96592588D01*
X127736510Y-96583016D01*
X127689555Y-96568772D01*
X127644222Y-96549995D01*
X127600949Y-96526864D01*
X127560150Y-96499604D01*
X127522221Y-96468476D01*
X127487524Y-96433779D01*
X127456396Y-96395850D01*
X127429136Y-96355051D01*
X127406005Y-96311778D01*
X127387228Y-96266445D01*
X127372984Y-96219490D01*
X127363412Y-96171365D01*
X127358602Y-96122534D01*
X127358602Y-96098000D01*
X127358000Y-96098000D01*
X127358000Y-95598000D01*
X127358602Y-95598000D01*
X127358602Y-95573466D01*
X127363412Y-95524635D01*
X127372984Y-95476510D01*
X127387228Y-95429555D01*
X127406005Y-95384222D01*
X127429136Y-95340949D01*
X127456396Y-95300150D01*
X127487524Y-95262221D01*
X127522221Y-95227524D01*
X127560150Y-95196396D01*
X127600949Y-95169136D01*
X127644222Y-95146005D01*
X127689555Y-95127228D01*
X127736510Y-95112984D01*
X127784635Y-95103412D01*
X127833466Y-95098602D01*
X127858000Y-95098602D01*
X127858000Y-95098000D01*
X128408000Y-95098000D01*
X128408000Y-96598000D01*
X127858000Y-96598000D01*
X127858000Y-96597398D01*
G37*
G04 #@! TD.AperFunction*
D18*
X129158000Y-95848000D03*
G04 #@! TA.AperFunction,SMDPad,CuDef*
D10*
G36*
X129908000Y-95098000D02*
G01*
X130458000Y-95098000D01*
X130458000Y-95098602D01*
X130482534Y-95098602D01*
X130531365Y-95103412D01*
X130579490Y-95112984D01*
X130626445Y-95127228D01*
X130671778Y-95146005D01*
X130715051Y-95169136D01*
X130755850Y-95196396D01*
X130793779Y-95227524D01*
X130828476Y-95262221D01*
X130859604Y-95300150D01*
X130886864Y-95340949D01*
X130909995Y-95384222D01*
X130928772Y-95429555D01*
X130943016Y-95476510D01*
X130952588Y-95524635D01*
X130957398Y-95573466D01*
X130957398Y-95598000D01*
X130958000Y-95598000D01*
X130958000Y-96098000D01*
X130957398Y-96098000D01*
X130957398Y-96122534D01*
X130952588Y-96171365D01*
X130943016Y-96219490D01*
X130928772Y-96266445D01*
X130909995Y-96311778D01*
X130886864Y-96355051D01*
X130859604Y-96395850D01*
X130828476Y-96433779D01*
X130793779Y-96468476D01*
X130755850Y-96499604D01*
X130715051Y-96526864D01*
X130671778Y-96549995D01*
X130626445Y-96568772D01*
X130579490Y-96583016D01*
X130531365Y-96592588D01*
X130482534Y-96597398D01*
X130458000Y-96597398D01*
X130458000Y-96598000D01*
X129908000Y-96598000D01*
X129908000Y-95098000D01*
G37*
G04 #@! TD.AperFunction*
D19*
X134208000Y-104484000D03*
D20*
X137250000Y-117750000D03*
D21*
X130250000Y-100500000D03*
D20*
X137250000Y-88750000D03*
X136250000Y-88750000D03*
X135250000Y-88750000D03*
X134250000Y-88750000D03*
X137250000Y-116750000D03*
X136000000Y-116750000D03*
X136000000Y-117750000D03*
X126000000Y-96500000D03*
X126000000Y-97750000D03*
X125000000Y-103500000D03*
X126250000Y-103500000D03*
X127500000Y-103500000D03*
X123250000Y-105250000D03*
X121250000Y-97250000D03*
X126000000Y-99000000D03*
X126000000Y-94500000D03*
X125500000Y-93250000D03*
X125000000Y-92000000D03*
X136250000Y-82750000D03*
X134500000Y-84250000D03*
X135750000Y-110750000D03*
X134750000Y-110750000D03*
X134750000Y-111750000D03*
X134750000Y-112750000D03*
X156750000Y-94000000D03*
X159000000Y-94000000D03*
X156750000Y-88000000D03*
X159250000Y-88000000D03*
X156750000Y-116250000D03*
X159000000Y-116250000D03*
X156750000Y-121500000D03*
X159000000Y-121500000D03*
X164750000Y-86000000D03*
X163750000Y-96000000D03*
X165000000Y-96000000D03*
X164500000Y-90000000D03*
X164500000Y-113750000D03*
X164500000Y-115250000D03*
X164750000Y-123250000D03*
D21*
X128620000Y-99404000D03*
X128000000Y-106250000D03*
X129800000Y-101650000D03*
D22*
X130250000Y-100500000D02*
X130250000Y-99287500D01*
D23*
X137250000Y-88750000D02*
X137250000Y-116750000D01*
X134250000Y-88750000D02*
X137250000Y-88750000D01*
X136000000Y-117750000D02*
X137250000Y-117750000D01*
X137250000Y-117750000D02*
X137250000Y-116750000D01*
X136000000Y-117750000D02*
X136000000Y-116750000D01*
X136000000Y-116750000D02*
X137250000Y-116750000D01*
X156810000Y-93940000D02*
X156750000Y-94000000D01*
X167500000Y-93940000D02*
X156810000Y-93940000D01*
X166640000Y-88000000D02*
X167500000Y-88860000D01*
X156750000Y-88000000D02*
X166640000Y-88000000D01*
X159510000Y-116760000D02*
X159000000Y-116250000D01*
X167250000Y-116760000D02*
X159510000Y-116760000D01*
X156750000Y-116250000D02*
X159000000Y-116250000D01*
X156750000Y-121500000D02*
X159000000Y-121500000D01*
X159340000Y-121840000D02*
X159000000Y-121500000D01*
X167250000Y-121840000D02*
X159340000Y-121840000D01*
D24*
X124750000Y-95480000D02*
X126230000Y-95480000D01*
X126598000Y-95848000D02*
X127858000Y-95848000D01*
X126230000Y-95480000D02*
X126598000Y-95848000D01*
X124750000Y-95480000D02*
X124000000Y-95480000D01*
D22*
X128620000Y-98159500D02*
X128645500Y-98134000D01*
X128620000Y-99404000D02*
X128620000Y-98159500D01*
X128645500Y-97360500D02*
X128645500Y-98134000D01*
X129158000Y-96848000D02*
X128645500Y-97360500D01*
X129158000Y-95848000D02*
X129158000Y-96848000D01*
X128750000Y-105500000D02*
X128000000Y-106250000D01*
X128750000Y-104037500D02*
X128750000Y-105500000D01*
D25*
X129800000Y-101650000D02*
X129000000Y-101650000D01*
X128750000Y-101900000D02*
X128750000Y-102462500D01*
X129000000Y-101650000D02*
X128750000Y-101900000D01*
D22*
X130250000Y-96056000D02*
X130458000Y-95848000D01*
X130250000Y-97712500D02*
X130250000Y-96056000D01*
D26*
G36*
X138373000Y-87935192D02*
G01*
X138234081Y-87765919D01*
X138023188Y-87592843D01*
X137782581Y-87464236D01*
X137521507Y-87385040D01*
X137318037Y-87365000D01*
X137318036Y-87365000D01*
X137250000Y-87358299D01*
X137181963Y-87365000D01*
X134181963Y-87365000D01*
X133978493Y-87385040D01*
X133717419Y-87464236D01*
X133476812Y-87592843D01*
X133265919Y-87765919D01*
X133092843Y-87976812D01*
X132964236Y-88217419D01*
X132885040Y-88478493D01*
X132858299Y-88750000D01*
X132885040Y-89021507D01*
X132964236Y-89282581D01*
X133092843Y-89523188D01*
X133265919Y-89734081D01*
X133476812Y-89907157D01*
X133717419Y-90035764D01*
X133978493Y-90114960D01*
X134181963Y-90135000D01*
X135865000Y-90135000D01*
X135865001Y-103300974D01*
X135788687Y-103186763D01*
X135505237Y-102903313D01*
X135171934Y-102680607D01*
X134801587Y-102527204D01*
X134408430Y-102449000D01*
X134007570Y-102449000D01*
X133614413Y-102527204D01*
X133244066Y-102680607D01*
X132910763Y-102903313D01*
X132627313Y-103186763D01*
X132404607Y-103520066D01*
X132251204Y-103890413D01*
X132173000Y-104283570D01*
X132173000Y-104684430D01*
X132251204Y-105077587D01*
X132404607Y-105447934D01*
X132627313Y-105781237D01*
X132910763Y-106064687D01*
X133244066Y-106287393D01*
X133614413Y-106440796D01*
X134007570Y-106519000D01*
X134408430Y-106519000D01*
X134801587Y-106440796D01*
X135171934Y-106287393D01*
X135505237Y-106064687D01*
X135788687Y-105781237D01*
X135865001Y-105667026D01*
X135865001Y-115371595D01*
X135728493Y-115385040D01*
X135467419Y-115464236D01*
X135226812Y-115592843D01*
X135015919Y-115765919D01*
X134842843Y-115976812D01*
X134714236Y-116217419D01*
X134635040Y-116478493D01*
X134608299Y-116750000D01*
X134615000Y-116818037D01*
X134615000Y-117681963D01*
X134608299Y-117750000D01*
X134635040Y-118021507D01*
X134714236Y-118282581D01*
X134842843Y-118523188D01*
X135015919Y-118734081D01*
X135226812Y-118907157D01*
X135467419Y-119035764D01*
X135728493Y-119114960D01*
X136000000Y-119141701D01*
X136068036Y-119135000D01*
X137181963Y-119135000D01*
X137250000Y-119141701D01*
X137318036Y-119135000D01*
X137318037Y-119135000D01*
X137521507Y-119114960D01*
X137782581Y-119035764D01*
X138023188Y-118907157D01*
X138234081Y-118734081D01*
X138373000Y-118564808D01*
X138373000Y-129340000D01*
X123032279Y-129340000D01*
X122546106Y-129292330D01*
X122109503Y-129160512D01*
X121706814Y-128946399D01*
X121353387Y-128658150D01*
X121062673Y-128306739D01*
X120845760Y-127905564D01*
X120710894Y-127469886D01*
X120660000Y-126985664D01*
X120660000Y-95368212D01*
X122865000Y-95368212D01*
X122865000Y-95591788D01*
X122908617Y-95811067D01*
X122994176Y-96017624D01*
X123118388Y-96203520D01*
X123276480Y-96361612D01*
X123462376Y-96485824D01*
X123668933Y-96571383D01*
X123888212Y-96615000D01*
X124111788Y-96615000D01*
X124331067Y-96571383D01*
X124537624Y-96485824D01*
X124718450Y-96365000D01*
X125863422Y-96365000D01*
X125941466Y-96443044D01*
X125969183Y-96476817D01*
X126103941Y-96587411D01*
X126180814Y-96628500D01*
X126257686Y-96669589D01*
X126424510Y-96720195D01*
X126554523Y-96733000D01*
X126554531Y-96733000D01*
X126598000Y-96737281D01*
X126641469Y-96733000D01*
X126916442Y-96733000D01*
X126940958Y-96769691D01*
X127020310Y-96866382D01*
X127089618Y-96935690D01*
X127186309Y-97015042D01*
X127267808Y-97069498D01*
X127378125Y-97128464D01*
X127468681Y-97165973D01*
X127588377Y-97202282D01*
X127684510Y-97221404D01*
X127808991Y-97233664D01*
X127833550Y-97233664D01*
X127858000Y-97236072D01*
X127864524Y-97236072D01*
X127820885Y-97271885D01*
X127714329Y-97401725D01*
X127635150Y-97549858D01*
X127586392Y-97710592D01*
X127569928Y-97877750D01*
X127569928Y-98390250D01*
X127586392Y-98557408D01*
X127635150Y-98718142D01*
X127714329Y-98866275D01*
X127820885Y-98996115D01*
X127828459Y-99002331D01*
X127769010Y-99145855D01*
X127735000Y-99316835D01*
X127735000Y-99491165D01*
X127769010Y-99662145D01*
X127835723Y-99823205D01*
X127932576Y-99968155D01*
X128055845Y-100091424D01*
X128200795Y-100188277D01*
X128361855Y-100254990D01*
X128532835Y-100289000D01*
X128707165Y-100289000D01*
X128878145Y-100254990D01*
X129039205Y-100188277D01*
X129184155Y-100091424D01*
X129286727Y-99988852D01*
X129387885Y-100112115D01*
X129436294Y-100151843D01*
X129399010Y-100241855D01*
X129365000Y-100412835D01*
X129365000Y-100587165D01*
X129399010Y-100758145D01*
X129434377Y-100843529D01*
X129382540Y-100865000D01*
X129038552Y-100865000D01*
X128999999Y-100861203D01*
X128961446Y-100865000D01*
X128961439Y-100865000D01*
X128860490Y-100874943D01*
X128846112Y-100876359D01*
X128818175Y-100884834D01*
X128698140Y-100921246D01*
X128561767Y-100994138D01*
X128442236Y-101092236D01*
X128417653Y-101122190D01*
X128222190Y-101317653D01*
X128192236Y-101342236D01*
X128094138Y-101461768D01*
X128072649Y-101501971D01*
X128017725Y-101531329D01*
X127887885Y-101637885D01*
X127781329Y-101767725D01*
X127702150Y-101915858D01*
X127653392Y-102076592D01*
X127636928Y-102243750D01*
X127636928Y-102681250D01*
X127653392Y-102848408D01*
X127702150Y-103009142D01*
X127781329Y-103157275D01*
X127857426Y-103250000D01*
X127781329Y-103342725D01*
X127702150Y-103490858D01*
X127653392Y-103651592D01*
X127636928Y-103818750D01*
X127636928Y-104256250D01*
X127653392Y-104423408D01*
X127702150Y-104584142D01*
X127781329Y-104732275D01*
X127887885Y-104862115D01*
X127990001Y-104945918D01*
X127990001Y-105185198D01*
X127784714Y-105390485D01*
X127741855Y-105399010D01*
X127580795Y-105465723D01*
X127435845Y-105562576D01*
X127312576Y-105685845D01*
X127215723Y-105830795D01*
X127149010Y-105991855D01*
X127115000Y-106162835D01*
X127115000Y-106337165D01*
X127149010Y-106508145D01*
X127215723Y-106669205D01*
X127312576Y-106814155D01*
X127435845Y-106937424D01*
X127580795Y-107034277D01*
X127741855Y-107100990D01*
X127912835Y-107135000D01*
X128087165Y-107135000D01*
X128258145Y-107100990D01*
X128419205Y-107034277D01*
X128564155Y-106937424D01*
X128687424Y-106814155D01*
X128784277Y-106669205D01*
X128850990Y-106508145D01*
X128859515Y-106465286D01*
X129261002Y-106063799D01*
X129290001Y-106040001D01*
X129384974Y-105924276D01*
X129455546Y-105792247D01*
X129499003Y-105648986D01*
X129510000Y-105537333D01*
X129510000Y-105537324D01*
X129513676Y-105500001D01*
X129510000Y-105462678D01*
X129510000Y-104945918D01*
X129612115Y-104862115D01*
X129718671Y-104732275D01*
X129797850Y-104584142D01*
X129846608Y-104423408D01*
X129863072Y-104256250D01*
X129863072Y-103818750D01*
X129846608Y-103651592D01*
X129797850Y-103490858D01*
X129718671Y-103342725D01*
X129642574Y-103250000D01*
X129718671Y-103157275D01*
X129797850Y-103009142D01*
X129846608Y-102848408D01*
X129863072Y-102681250D01*
X129863072Y-102535000D01*
X129887165Y-102535000D01*
X130058145Y-102500990D01*
X130219205Y-102434277D01*
X130364155Y-102337424D01*
X130487424Y-102214155D01*
X130584277Y-102069205D01*
X130650990Y-101908145D01*
X130685000Y-101737165D01*
X130685000Y-101562835D01*
X130650990Y-101391855D01*
X130615623Y-101306471D01*
X130669205Y-101284277D01*
X130814155Y-101187424D01*
X130937424Y-101064155D01*
X131034277Y-100919205D01*
X131100990Y-100758145D01*
X131135000Y-100587165D01*
X131135000Y-100412835D01*
X131100990Y-100241855D01*
X131063706Y-100151843D01*
X131112115Y-100112115D01*
X131218671Y-99982275D01*
X131297850Y-99834142D01*
X131346608Y-99673408D01*
X131363072Y-99506250D01*
X131363072Y-99068750D01*
X131346608Y-98901592D01*
X131297850Y-98740858D01*
X131218671Y-98592725D01*
X131142574Y-98500000D01*
X131218671Y-98407275D01*
X131297850Y-98259142D01*
X131346608Y-98098408D01*
X131363072Y-97931250D01*
X131363072Y-97493750D01*
X131346608Y-97326592D01*
X131297850Y-97165858D01*
X131218671Y-97017725D01*
X131181545Y-96972487D01*
X131226382Y-96935690D01*
X131295690Y-96866382D01*
X131375042Y-96769691D01*
X131429498Y-96688192D01*
X131488464Y-96577875D01*
X131525973Y-96487319D01*
X131562282Y-96367623D01*
X131581404Y-96271490D01*
X131593664Y-96147009D01*
X131593664Y-96122450D01*
X131596072Y-96098000D01*
X131596072Y-95598000D01*
X131593664Y-95573550D01*
X131593664Y-95548991D01*
X131581404Y-95424510D01*
X131562282Y-95328377D01*
X131525973Y-95208681D01*
X131488464Y-95118125D01*
X131429498Y-95007808D01*
X131375042Y-94926309D01*
X131295690Y-94829618D01*
X131226382Y-94760310D01*
X131129691Y-94680958D01*
X131048192Y-94626502D01*
X130937875Y-94567536D01*
X130847319Y-94530027D01*
X130727623Y-94493718D01*
X130631490Y-94474596D01*
X130507009Y-94462336D01*
X130482450Y-94462336D01*
X130458000Y-94459928D01*
X129908000Y-94459928D01*
X129783518Y-94472188D01*
X129783000Y-94472345D01*
X129782482Y-94472188D01*
X129658000Y-94459928D01*
X128658000Y-94459928D01*
X128533518Y-94472188D01*
X128533000Y-94472345D01*
X128532482Y-94472188D01*
X128408000Y-94459928D01*
X127858000Y-94459928D01*
X127833550Y-94462336D01*
X127808991Y-94462336D01*
X127684510Y-94474596D01*
X127588377Y-94493718D01*
X127468681Y-94530027D01*
X127378125Y-94567536D01*
X127267808Y-94626502D01*
X127186309Y-94680958D01*
X127089618Y-94760310D01*
X127020310Y-94829618D01*
X126940958Y-94926309D01*
X126935722Y-94934144D01*
X126886534Y-94884956D01*
X126858817Y-94851183D01*
X126724059Y-94740589D01*
X126570313Y-94658411D01*
X126403490Y-94607805D01*
X126273477Y-94595000D01*
X126273469Y-94595000D01*
X126230000Y-94590719D01*
X126186531Y-94595000D01*
X124718450Y-94595000D01*
X124537624Y-94474176D01*
X124331067Y-94388617D01*
X124111788Y-94345000D01*
X123888212Y-94345000D01*
X123668933Y-94388617D01*
X123462376Y-94474176D01*
X123276480Y-94598388D01*
X123118388Y-94756480D01*
X122994176Y-94942376D01*
X122908617Y-95148933D01*
X122865000Y-95368212D01*
X120660000Y-95368212D01*
X120660000Y-89353740D01*
X121515000Y-89353740D01*
X121515000Y-89646260D01*
X121572068Y-89933158D01*
X121684010Y-90203411D01*
X121846525Y-90446632D01*
X122053368Y-90653475D01*
X122296589Y-90815990D01*
X122566842Y-90927932D01*
X122853740Y-90985000D01*
X123146260Y-90985000D01*
X123433158Y-90927932D01*
X123703411Y-90815990D01*
X123946632Y-90653475D01*
X124153475Y-90446632D01*
X124315990Y-90203411D01*
X124427932Y-89933158D01*
X124485000Y-89646260D01*
X124485000Y-89353740D01*
X124427932Y-89066842D01*
X124315990Y-88796589D01*
X124153475Y-88553368D01*
X123946632Y-88346525D01*
X123703411Y-88184010D01*
X123433158Y-88072068D01*
X123146260Y-88015000D01*
X122853740Y-88015000D01*
X122566842Y-88072068D01*
X122296589Y-88184010D01*
X122053368Y-88346525D01*
X121846525Y-88553368D01*
X121684010Y-88796589D01*
X121572068Y-89066842D01*
X121515000Y-89353740D01*
X120660000Y-89353740D01*
X120660000Y-83032279D01*
X120707670Y-82546107D01*
X120839489Y-82109502D01*
X121053600Y-81706815D01*
X121341848Y-81353388D01*
X121693261Y-81062673D01*
X122094439Y-80845758D01*
X122530113Y-80710894D01*
X123014344Y-80660000D01*
X138373000Y-80660000D01*
X138373000Y-87935192D01*
G37*
X138373000Y-87935192D02*
X138234081Y-87765919D01*
X138023188Y-87592843D01*
X137782581Y-87464236D01*
X137521507Y-87385040D01*
X137318037Y-87365000D01*
X137318036Y-87365000D01*
X137250000Y-87358299D01*
X137181963Y-87365000D01*
X134181963Y-87365000D01*
X133978493Y-87385040D01*
X133717419Y-87464236D01*
X133476812Y-87592843D01*
X133265919Y-87765919D01*
X133092843Y-87976812D01*
X132964236Y-88217419D01*
X132885040Y-88478493D01*
X132858299Y-88750000D01*
X132885040Y-89021507D01*
X132964236Y-89282581D01*
X133092843Y-89523188D01*
X133265919Y-89734081D01*
X133476812Y-89907157D01*
X133717419Y-90035764D01*
X133978493Y-90114960D01*
X134181963Y-90135000D01*
X135865000Y-90135000D01*
X135865001Y-103300974D01*
X135788687Y-103186763D01*
X135505237Y-102903313D01*
X135171934Y-102680607D01*
X134801587Y-102527204D01*
X134408430Y-102449000D01*
X134007570Y-102449000D01*
X133614413Y-102527204D01*
X133244066Y-102680607D01*
X132910763Y-102903313D01*
X132627313Y-103186763D01*
X132404607Y-103520066D01*
X132251204Y-103890413D01*
X132173000Y-104283570D01*
X132173000Y-104684430D01*
X132251204Y-105077587D01*
X132404607Y-105447934D01*
X132627313Y-105781237D01*
X132910763Y-106064687D01*
X133244066Y-106287393D01*
X133614413Y-106440796D01*
X134007570Y-106519000D01*
X134408430Y-106519000D01*
X134801587Y-106440796D01*
X135171934Y-106287393D01*
X135505237Y-106064687D01*
X135788687Y-105781237D01*
X135865001Y-105667026D01*
X135865001Y-115371595D01*
X135728493Y-115385040D01*
X135467419Y-115464236D01*
X135226812Y-115592843D01*
X135015919Y-115765919D01*
X134842843Y-115976812D01*
X134714236Y-116217419D01*
X134635040Y-116478493D01*
X134608299Y-116750000D01*
X134615000Y-116818037D01*
X134615000Y-117681963D01*
X134608299Y-117750000D01*
X134635040Y-118021507D01*
X134714236Y-118282581D01*
X134842843Y-118523188D01*
X135015919Y-118734081D01*
X135226812Y-118907157D01*
X135467419Y-119035764D01*
X135728493Y-119114960D01*
X136000000Y-119141701D01*
X136068036Y-119135000D01*
X137181963Y-119135000D01*
X137250000Y-119141701D01*
X137318036Y-119135000D01*
X137318037Y-119135000D01*
X137521507Y-119114960D01*
X137782581Y-119035764D01*
X138023188Y-118907157D01*
X138234081Y-118734081D01*
X138373000Y-118564808D01*
X138373000Y-129340000D01*
X123032279Y-129340000D01*
X122546106Y-129292330D01*
X122109503Y-129160512D01*
X121706814Y-128946399D01*
X121353387Y-128658150D01*
X121062673Y-128306739D01*
X120845760Y-127905564D01*
X120710894Y-127469886D01*
X120660000Y-126985664D01*
X120660000Y-95368212D01*
X122865000Y-95368212D01*
X122865000Y-95591788D01*
X122908617Y-95811067D01*
X122994176Y-96017624D01*
X123118388Y-96203520D01*
X123276480Y-96361612D01*
X123462376Y-96485824D01*
X123668933Y-96571383D01*
X123888212Y-96615000D01*
X124111788Y-96615000D01*
X124331067Y-96571383D01*
X124537624Y-96485824D01*
X124718450Y-96365000D01*
X125863422Y-96365000D01*
X125941466Y-96443044D01*
X125969183Y-96476817D01*
X126103941Y-96587411D01*
X126180814Y-96628500D01*
X126257686Y-96669589D01*
X126424510Y-96720195D01*
X126554523Y-96733000D01*
X126554531Y-96733000D01*
X126598000Y-96737281D01*
X126641469Y-96733000D01*
X126916442Y-96733000D01*
X126940958Y-96769691D01*
X127020310Y-96866382D01*
X127089618Y-96935690D01*
X127186309Y-97015042D01*
X127267808Y-97069498D01*
X127378125Y-97128464D01*
X127468681Y-97165973D01*
X127588377Y-97202282D01*
X127684510Y-97221404D01*
X127808991Y-97233664D01*
X127833550Y-97233664D01*
X127858000Y-97236072D01*
X127864524Y-97236072D01*
X127820885Y-97271885D01*
X127714329Y-97401725D01*
X127635150Y-97549858D01*
X127586392Y-97710592D01*
X127569928Y-97877750D01*
X127569928Y-98390250D01*
X127586392Y-98557408D01*
X127635150Y-98718142D01*
X127714329Y-98866275D01*
X127820885Y-98996115D01*
X127828459Y-99002331D01*
X127769010Y-99145855D01*
X127735000Y-99316835D01*
X127735000Y-99491165D01*
X127769010Y-99662145D01*
X127835723Y-99823205D01*
X127932576Y-99968155D01*
X128055845Y-100091424D01*
X128200795Y-100188277D01*
X128361855Y-100254990D01*
X128532835Y-100289000D01*
X128707165Y-100289000D01*
X128878145Y-100254990D01*
X129039205Y-100188277D01*
X129184155Y-100091424D01*
X129286727Y-99988852D01*
X129387885Y-100112115D01*
X129436294Y-100151843D01*
X129399010Y-100241855D01*
X129365000Y-100412835D01*
X129365000Y-100587165D01*
X129399010Y-100758145D01*
X129434377Y-100843529D01*
X129382540Y-100865000D01*
X129038552Y-100865000D01*
X128999999Y-100861203D01*
X128961446Y-100865000D01*
X128961439Y-100865000D01*
X128860490Y-100874943D01*
X128846112Y-100876359D01*
X128818175Y-100884834D01*
X128698140Y-100921246D01*
X128561767Y-100994138D01*
X128442236Y-101092236D01*
X128417653Y-101122190D01*
X128222190Y-101317653D01*
X128192236Y-101342236D01*
X128094138Y-101461768D01*
X128072649Y-101501971D01*
X128017725Y-101531329D01*
X127887885Y-101637885D01*
X127781329Y-101767725D01*
X127702150Y-101915858D01*
X127653392Y-102076592D01*
X127636928Y-102243750D01*
X127636928Y-102681250D01*
X127653392Y-102848408D01*
X127702150Y-103009142D01*
X127781329Y-103157275D01*
X127857426Y-103250000D01*
X127781329Y-103342725D01*
X127702150Y-103490858D01*
X127653392Y-103651592D01*
X127636928Y-103818750D01*
X127636928Y-104256250D01*
X127653392Y-104423408D01*
X127702150Y-104584142D01*
X127781329Y-104732275D01*
X127887885Y-104862115D01*
X127990001Y-104945918D01*
X127990001Y-105185198D01*
X127784714Y-105390485D01*
X127741855Y-105399010D01*
X127580795Y-105465723D01*
X127435845Y-105562576D01*
X127312576Y-105685845D01*
X127215723Y-105830795D01*
X127149010Y-105991855D01*
X127115000Y-106162835D01*
X127115000Y-106337165D01*
X127149010Y-106508145D01*
X127215723Y-106669205D01*
X127312576Y-106814155D01*
X127435845Y-106937424D01*
X127580795Y-107034277D01*
X127741855Y-107100990D01*
X127912835Y-107135000D01*
X128087165Y-107135000D01*
X128258145Y-107100990D01*
X128419205Y-107034277D01*
X128564155Y-106937424D01*
X128687424Y-106814155D01*
X128784277Y-106669205D01*
X128850990Y-106508145D01*
X128859515Y-106465286D01*
X129261002Y-106063799D01*
X129290001Y-106040001D01*
X129384974Y-105924276D01*
X129455546Y-105792247D01*
X129499003Y-105648986D01*
X129510000Y-105537333D01*
X129510000Y-105537324D01*
X129513676Y-105500001D01*
X129510000Y-105462678D01*
X129510000Y-104945918D01*
X129612115Y-104862115D01*
X129718671Y-104732275D01*
X129797850Y-104584142D01*
X129846608Y-104423408D01*
X129863072Y-104256250D01*
X129863072Y-103818750D01*
X129846608Y-103651592D01*
X129797850Y-103490858D01*
X129718671Y-103342725D01*
X129642574Y-103250000D01*
X129718671Y-103157275D01*
X129797850Y-103009142D01*
X129846608Y-102848408D01*
X129863072Y-102681250D01*
X129863072Y-102535000D01*
X129887165Y-102535000D01*
X130058145Y-102500990D01*
X130219205Y-102434277D01*
X130364155Y-102337424D01*
X130487424Y-102214155D01*
X130584277Y-102069205D01*
X130650990Y-101908145D01*
X130685000Y-101737165D01*
X130685000Y-101562835D01*
X130650990Y-101391855D01*
X130615623Y-101306471D01*
X130669205Y-101284277D01*
X130814155Y-101187424D01*
X130937424Y-101064155D01*
X131034277Y-100919205D01*
X131100990Y-100758145D01*
X131135000Y-100587165D01*
X131135000Y-100412835D01*
X131100990Y-100241855D01*
X131063706Y-100151843D01*
X131112115Y-100112115D01*
X131218671Y-99982275D01*
X131297850Y-99834142D01*
X131346608Y-99673408D01*
X131363072Y-99506250D01*
X131363072Y-99068750D01*
X131346608Y-98901592D01*
X131297850Y-98740858D01*
X131218671Y-98592725D01*
X131142574Y-98500000D01*
X131218671Y-98407275D01*
X131297850Y-98259142D01*
X131346608Y-98098408D01*
X131363072Y-97931250D01*
X131363072Y-97493750D01*
X131346608Y-97326592D01*
X131297850Y-97165858D01*
X131218671Y-97017725D01*
X131181545Y-96972487D01*
X131226382Y-96935690D01*
X131295690Y-96866382D01*
X131375042Y-96769691D01*
X131429498Y-96688192D01*
X131488464Y-96577875D01*
X131525973Y-96487319D01*
X131562282Y-96367623D01*
X131581404Y-96271490D01*
X131593664Y-96147009D01*
X131593664Y-96122450D01*
X131596072Y-96098000D01*
X131596072Y-95598000D01*
X131593664Y-95573550D01*
X131593664Y-95548991D01*
X131581404Y-95424510D01*
X131562282Y-95328377D01*
X131525973Y-95208681D01*
X131488464Y-95118125D01*
X131429498Y-95007808D01*
X131375042Y-94926309D01*
X131295690Y-94829618D01*
X131226382Y-94760310D01*
X131129691Y-94680958D01*
X131048192Y-94626502D01*
X130937875Y-94567536D01*
X130847319Y-94530027D01*
X130727623Y-94493718D01*
X130631490Y-94474596D01*
X130507009Y-94462336D01*
X130482450Y-94462336D01*
X130458000Y-94459928D01*
X129908000Y-94459928D01*
X129783518Y-94472188D01*
X129783000Y-94472345D01*
X129782482Y-94472188D01*
X129658000Y-94459928D01*
X128658000Y-94459928D01*
X128533518Y-94472188D01*
X128533000Y-94472345D01*
X128532482Y-94472188D01*
X128408000Y-94459928D01*
X127858000Y-94459928D01*
X127833550Y-94462336D01*
X127808991Y-94462336D01*
X127684510Y-94474596D01*
X127588377Y-94493718D01*
X127468681Y-94530027D01*
X127378125Y-94567536D01*
X127267808Y-94626502D01*
X127186309Y-94680958D01*
X127089618Y-94760310D01*
X127020310Y-94829618D01*
X126940958Y-94926309D01*
X126935722Y-94934144D01*
X126886534Y-94884956D01*
X126858817Y-94851183D01*
X126724059Y-94740589D01*
X126570313Y-94658411D01*
X126403490Y-94607805D01*
X126273477Y-94595000D01*
X126273469Y-94595000D01*
X126230000Y-94590719D01*
X126186531Y-94595000D01*
X124718450Y-94595000D01*
X124537624Y-94474176D01*
X124331067Y-94388617D01*
X124111788Y-94345000D01*
X123888212Y-94345000D01*
X123668933Y-94388617D01*
X123462376Y-94474176D01*
X123276480Y-94598388D01*
X123118388Y-94756480D01*
X122994176Y-94942376D01*
X122908617Y-95148933D01*
X122865000Y-95368212D01*
X120660000Y-95368212D01*
X120660000Y-89353740D01*
X121515000Y-89353740D01*
X121515000Y-89646260D01*
X121572068Y-89933158D01*
X121684010Y-90203411D01*
X121846525Y-90446632D01*
X122053368Y-90653475D01*
X122296589Y-90815990D01*
X122566842Y-90927932D01*
X122853740Y-90985000D01*
X123146260Y-90985000D01*
X123433158Y-90927932D01*
X123703411Y-90815990D01*
X123946632Y-90653475D01*
X124153475Y-90446632D01*
X124315990Y-90203411D01*
X124427932Y-89933158D01*
X124485000Y-89646260D01*
X124485000Y-89353740D01*
X124427932Y-89066842D01*
X124315990Y-88796589D01*
X124153475Y-88553368D01*
X123946632Y-88346525D01*
X123703411Y-88184010D01*
X123433158Y-88072068D01*
X123146260Y-88015000D01*
X122853740Y-88015000D01*
X122566842Y-88072068D01*
X122296589Y-88184010D01*
X122053368Y-88346525D01*
X121846525Y-88553368D01*
X121684010Y-88796589D01*
X121572068Y-89066842D01*
X121515000Y-89353740D01*
X120660000Y-89353740D01*
X120660000Y-83032279D01*
X120707670Y-82546107D01*
X120839489Y-82109502D01*
X121053600Y-81706815D01*
X121341848Y-81353388D01*
X121693261Y-81062673D01*
X122094439Y-80845758D01*
X122530113Y-80710894D01*
X123014344Y-80660000D01*
X138373000Y-80660000D01*
X138373000Y-87935192D01*
G36*
X167453893Y-80707670D02*
G01*
X167890498Y-80839489D01*
X168293185Y-81053600D01*
X168646612Y-81341848D01*
X168937327Y-81693261D01*
X169154242Y-82094439D01*
X169289106Y-82530113D01*
X169340000Y-83014344D01*
X169340000Y-96873000D01*
X148127000Y-96873000D01*
X148127000Y-94000000D01*
X155358300Y-94000000D01*
X155385040Y-94271507D01*
X155464236Y-94532580D01*
X155592844Y-94773188D01*
X155765919Y-94984081D01*
X155976812Y-95157156D01*
X156217420Y-95285764D01*
X156478493Y-95364960D01*
X156750000Y-95391700D01*
X157021507Y-95364960D01*
X157153237Y-95325000D01*
X166963195Y-95325000D01*
X167066842Y-95367932D01*
X167353740Y-95425000D01*
X167646260Y-95425000D01*
X167933158Y-95367932D01*
X168203411Y-95255990D01*
X168446632Y-95093475D01*
X168653475Y-94886632D01*
X168815990Y-94643411D01*
X168927932Y-94373158D01*
X168985000Y-94086260D01*
X168985000Y-93793740D01*
X168927932Y-93506842D01*
X168815990Y-93236589D01*
X168653475Y-92993368D01*
X168446632Y-92786525D01*
X168203411Y-92624010D01*
X167933158Y-92512068D01*
X167646260Y-92455000D01*
X167353740Y-92455000D01*
X167066842Y-92512068D01*
X166963195Y-92555000D01*
X156878029Y-92555000D01*
X156810000Y-92548300D01*
X156741971Y-92555000D01*
X156741963Y-92555000D01*
X156538493Y-92575040D01*
X156277419Y-92654236D01*
X156036812Y-92782843D01*
X155825919Y-92955919D01*
X155782546Y-93008769D01*
X155722548Y-93068767D01*
X155592844Y-93226812D01*
X155464236Y-93467420D01*
X155385040Y-93728493D01*
X155358300Y-94000000D01*
X148127000Y-94000000D01*
X148127000Y-88000000D01*
X155358299Y-88000000D01*
X155385040Y-88271507D01*
X155464236Y-88532581D01*
X155592843Y-88773188D01*
X155765919Y-88984081D01*
X155976812Y-89157157D01*
X156217419Y-89285764D01*
X156478493Y-89364960D01*
X156681963Y-89385000D01*
X166011928Y-89385000D01*
X166011928Y-89710000D01*
X166024188Y-89834482D01*
X166060498Y-89954180D01*
X166119463Y-90064494D01*
X166198815Y-90161185D01*
X166295506Y-90240537D01*
X166405820Y-90299502D01*
X166525518Y-90335812D01*
X166650000Y-90348072D01*
X168350000Y-90348072D01*
X168474482Y-90335812D01*
X168594180Y-90299502D01*
X168704494Y-90240537D01*
X168801185Y-90161185D01*
X168880537Y-90064494D01*
X168939502Y-89954180D01*
X168975812Y-89834482D01*
X168988072Y-89710000D01*
X168988072Y-88010000D01*
X168975812Y-87885518D01*
X168939502Y-87765820D01*
X168880537Y-87655506D01*
X168801185Y-87558815D01*
X168704494Y-87479463D01*
X168594180Y-87420498D01*
X168474482Y-87384188D01*
X168350000Y-87371928D01*
X167970613Y-87371928D01*
X167667454Y-87068769D01*
X167624081Y-87015919D01*
X167413188Y-86842843D01*
X167172581Y-86714236D01*
X166911507Y-86635040D01*
X166708037Y-86615000D01*
X166708029Y-86615000D01*
X166640000Y-86608300D01*
X166571971Y-86615000D01*
X156681963Y-86615000D01*
X156478493Y-86635040D01*
X156217419Y-86714236D01*
X155976812Y-86842843D01*
X155765919Y-87015919D01*
X155592843Y-87226812D01*
X155464236Y-87467419D01*
X155385040Y-87728493D01*
X155358299Y-88000000D01*
X148127000Y-88000000D01*
X148127000Y-80660000D01*
X166967721Y-80660000D01*
X167453893Y-80707670D01*
G37*
X167453893Y-80707670D02*
X167890498Y-80839489D01*
X168293185Y-81053600D01*
X168646612Y-81341848D01*
X168937327Y-81693261D01*
X169154242Y-82094439D01*
X169289106Y-82530113D01*
X169340000Y-83014344D01*
X169340000Y-96873000D01*
X148127000Y-96873000D01*
X148127000Y-94000000D01*
X155358300Y-94000000D01*
X155385040Y-94271507D01*
X155464236Y-94532580D01*
X155592844Y-94773188D01*
X155765919Y-94984081D01*
X155976812Y-95157156D01*
X156217420Y-95285764D01*
X156478493Y-95364960D01*
X156750000Y-95391700D01*
X157021507Y-95364960D01*
X157153237Y-95325000D01*
X166963195Y-95325000D01*
X167066842Y-95367932D01*
X167353740Y-95425000D01*
X167646260Y-95425000D01*
X167933158Y-95367932D01*
X168203411Y-95255990D01*
X168446632Y-95093475D01*
X168653475Y-94886632D01*
X168815990Y-94643411D01*
X168927932Y-94373158D01*
X168985000Y-94086260D01*
X168985000Y-93793740D01*
X168927932Y-93506842D01*
X168815990Y-93236589D01*
X168653475Y-92993368D01*
X168446632Y-92786525D01*
X168203411Y-92624010D01*
X167933158Y-92512068D01*
X167646260Y-92455000D01*
X167353740Y-92455000D01*
X167066842Y-92512068D01*
X166963195Y-92555000D01*
X156878029Y-92555000D01*
X156810000Y-92548300D01*
X156741971Y-92555000D01*
X156741963Y-92555000D01*
X156538493Y-92575040D01*
X156277419Y-92654236D01*
X156036812Y-92782843D01*
X155825919Y-92955919D01*
X155782546Y-93008769D01*
X155722548Y-93068767D01*
X155592844Y-93226812D01*
X155464236Y-93467420D01*
X155385040Y-93728493D01*
X155358300Y-94000000D01*
X148127000Y-94000000D01*
X148127000Y-88000000D01*
X155358299Y-88000000D01*
X155385040Y-88271507D01*
X155464236Y-88532581D01*
X155592843Y-88773188D01*
X155765919Y-88984081D01*
X155976812Y-89157157D01*
X156217419Y-89285764D01*
X156478493Y-89364960D01*
X156681963Y-89385000D01*
X166011928Y-89385000D01*
X166011928Y-89710000D01*
X166024188Y-89834482D01*
X166060498Y-89954180D01*
X166119463Y-90064494D01*
X166198815Y-90161185D01*
X166295506Y-90240537D01*
X166405820Y-90299502D01*
X166525518Y-90335812D01*
X166650000Y-90348072D01*
X168350000Y-90348072D01*
X168474482Y-90335812D01*
X168594180Y-90299502D01*
X168704494Y-90240537D01*
X168801185Y-90161185D01*
X168880537Y-90064494D01*
X168939502Y-89954180D01*
X168975812Y-89834482D01*
X168988072Y-89710000D01*
X168988072Y-88010000D01*
X168975812Y-87885518D01*
X168939502Y-87765820D01*
X168880537Y-87655506D01*
X168801185Y-87558815D01*
X168704494Y-87479463D01*
X168594180Y-87420498D01*
X168474482Y-87384188D01*
X168350000Y-87371928D01*
X167970613Y-87371928D01*
X167667454Y-87068769D01*
X167624081Y-87015919D01*
X167413188Y-86842843D01*
X167172581Y-86714236D01*
X166911507Y-86635040D01*
X166708037Y-86615000D01*
X166708029Y-86615000D01*
X166640000Y-86608300D01*
X166571971Y-86615000D01*
X156681963Y-86615000D01*
X156478493Y-86635040D01*
X156217419Y-86714236D01*
X155976812Y-86842843D01*
X155765919Y-87015919D01*
X155592843Y-87226812D01*
X155464236Y-87467419D01*
X155385040Y-87728493D01*
X155358299Y-88000000D01*
X148127000Y-88000000D01*
X148127000Y-80660000D01*
X166967721Y-80660000D01*
X167453893Y-80707670D01*
G36*
X169340001Y-126967711D02*
G01*
X169292330Y-127453894D01*
X169160512Y-127890497D01*
X168946399Y-128293186D01*
X168658150Y-128646613D01*
X168306739Y-128937327D01*
X167905564Y-129154240D01*
X167469886Y-129289106D01*
X166985664Y-129340000D01*
X148127000Y-129340000D01*
X148127000Y-121500000D01*
X155358299Y-121500000D01*
X155385040Y-121771507D01*
X155464236Y-122032581D01*
X155592843Y-122273188D01*
X155765919Y-122484081D01*
X155976812Y-122657157D01*
X156217419Y-122785764D01*
X156478493Y-122864960D01*
X156681963Y-122885000D01*
X158430149Y-122885000D01*
X158566812Y-122997157D01*
X158807419Y-123125764D01*
X159068493Y-123204960D01*
X159271963Y-123225000D01*
X159271971Y-123225000D01*
X159340000Y-123231700D01*
X159408029Y-123225000D01*
X166713195Y-123225000D01*
X166816842Y-123267932D01*
X167103740Y-123325000D01*
X167396260Y-123325000D01*
X167683158Y-123267932D01*
X167953411Y-123155990D01*
X168196632Y-122993475D01*
X168403475Y-122786632D01*
X168565990Y-122543411D01*
X168677932Y-122273158D01*
X168735000Y-121986260D01*
X168735000Y-121693740D01*
X168677932Y-121406842D01*
X168565990Y-121136589D01*
X168403475Y-120893368D01*
X168196632Y-120686525D01*
X167953411Y-120524010D01*
X167683158Y-120412068D01*
X167396260Y-120355000D01*
X167103740Y-120355000D01*
X166816842Y-120412068D01*
X166713195Y-120455000D01*
X159909851Y-120455000D01*
X159773188Y-120342843D01*
X159532581Y-120214236D01*
X159271507Y-120135040D01*
X159068037Y-120115000D01*
X159068029Y-120115000D01*
X159000000Y-120108300D01*
X158931971Y-120115000D01*
X156681963Y-120115000D01*
X156478493Y-120135040D01*
X156217419Y-120214236D01*
X155976812Y-120342843D01*
X155765919Y-120515919D01*
X155592843Y-120726812D01*
X155464236Y-120967419D01*
X155385040Y-121228493D01*
X155358299Y-121500000D01*
X148127000Y-121500000D01*
X148127000Y-116250000D01*
X155358299Y-116250000D01*
X155385040Y-116521507D01*
X155464236Y-116782581D01*
X155592843Y-117023188D01*
X155765919Y-117234081D01*
X155976812Y-117407157D01*
X156217419Y-117535764D01*
X156478493Y-117614960D01*
X156681963Y-117635000D01*
X158426315Y-117635000D01*
X158482546Y-117691231D01*
X158525919Y-117744081D01*
X158736812Y-117917157D01*
X158977419Y-118045764D01*
X159107956Y-118085362D01*
X159238492Y-118124960D01*
X159261892Y-118127265D01*
X159441963Y-118145000D01*
X159441971Y-118145000D01*
X159510000Y-118151700D01*
X159578029Y-118145000D01*
X166053856Y-118145000D01*
X166155820Y-118199502D01*
X166275518Y-118235812D01*
X166400000Y-118248072D01*
X168100000Y-118248072D01*
X168224482Y-118235812D01*
X168344180Y-118199502D01*
X168454494Y-118140537D01*
X168551185Y-118061185D01*
X168630537Y-117964494D01*
X168689502Y-117854180D01*
X168725812Y-117734482D01*
X168738072Y-117610000D01*
X168738072Y-115910000D01*
X168725812Y-115785518D01*
X168689502Y-115665820D01*
X168630537Y-115555506D01*
X168551185Y-115458815D01*
X168454494Y-115379463D01*
X168344180Y-115320498D01*
X168224482Y-115284188D01*
X168100000Y-115271928D01*
X166400000Y-115271928D01*
X166275518Y-115284188D01*
X166155820Y-115320498D01*
X166053856Y-115375000D01*
X160083685Y-115375000D01*
X160027454Y-115318769D01*
X159984081Y-115265919D01*
X159773188Y-115092843D01*
X159532581Y-114964236D01*
X159271507Y-114885040D01*
X159068037Y-114865000D01*
X159068029Y-114865000D01*
X159000000Y-114858300D01*
X158931971Y-114865000D01*
X156681963Y-114865000D01*
X156478493Y-114885040D01*
X156217419Y-114964236D01*
X155976812Y-115092843D01*
X155765919Y-115265919D01*
X155592843Y-115476812D01*
X155464236Y-115717419D01*
X155385040Y-115978493D01*
X155358299Y-116250000D01*
X148127000Y-116250000D01*
X148127000Y-111127000D01*
X169340001Y-111127000D01*
X169340001Y-126967711D01*
G37*
X169340001Y-126967711D02*
X169292330Y-127453894D01*
X169160512Y-127890497D01*
X168946399Y-128293186D01*
X168658150Y-128646613D01*
X168306739Y-128937327D01*
X167905564Y-129154240D01*
X167469886Y-129289106D01*
X166985664Y-129340000D01*
X148127000Y-129340000D01*
X148127000Y-121500000D01*
X155358299Y-121500000D01*
X155385040Y-121771507D01*
X155464236Y-122032581D01*
X155592843Y-122273188D01*
X155765919Y-122484081D01*
X155976812Y-122657157D01*
X156217419Y-122785764D01*
X156478493Y-122864960D01*
X156681963Y-122885000D01*
X158430149Y-122885000D01*
X158566812Y-122997157D01*
X158807419Y-123125764D01*
X159068493Y-123204960D01*
X159271963Y-123225000D01*
X159271971Y-123225000D01*
X159340000Y-123231700D01*
X159408029Y-123225000D01*
X166713195Y-123225000D01*
X166816842Y-123267932D01*
X167103740Y-123325000D01*
X167396260Y-123325000D01*
X167683158Y-123267932D01*
X167953411Y-123155990D01*
X168196632Y-122993475D01*
X168403475Y-122786632D01*
X168565990Y-122543411D01*
X168677932Y-122273158D01*
X168735000Y-121986260D01*
X168735000Y-121693740D01*
X168677932Y-121406842D01*
X168565990Y-121136589D01*
X168403475Y-120893368D01*
X168196632Y-120686525D01*
X167953411Y-120524010D01*
X167683158Y-120412068D01*
X167396260Y-120355000D01*
X167103740Y-120355000D01*
X166816842Y-120412068D01*
X166713195Y-120455000D01*
X159909851Y-120455000D01*
X159773188Y-120342843D01*
X159532581Y-120214236D01*
X159271507Y-120135040D01*
X159068037Y-120115000D01*
X159068029Y-120115000D01*
X159000000Y-120108300D01*
X158931971Y-120115000D01*
X156681963Y-120115000D01*
X156478493Y-120135040D01*
X156217419Y-120214236D01*
X155976812Y-120342843D01*
X155765919Y-120515919D01*
X155592843Y-120726812D01*
X155464236Y-120967419D01*
X155385040Y-121228493D01*
X155358299Y-121500000D01*
X148127000Y-121500000D01*
X148127000Y-116250000D01*
X155358299Y-116250000D01*
X155385040Y-116521507D01*
X155464236Y-116782581D01*
X155592843Y-117023188D01*
X155765919Y-117234081D01*
X155976812Y-117407157D01*
X156217419Y-117535764D01*
X156478493Y-117614960D01*
X156681963Y-117635000D01*
X158426315Y-117635000D01*
X158482546Y-117691231D01*
X158525919Y-117744081D01*
X158736812Y-117917157D01*
X158977419Y-118045764D01*
X159107956Y-118085362D01*
X159238492Y-118124960D01*
X159261892Y-118127265D01*
X159441963Y-118145000D01*
X159441971Y-118145000D01*
X159510000Y-118151700D01*
X159578029Y-118145000D01*
X166053856Y-118145000D01*
X166155820Y-118199502D01*
X166275518Y-118235812D01*
X166400000Y-118248072D01*
X168100000Y-118248072D01*
X168224482Y-118235812D01*
X168344180Y-118199502D01*
X168454494Y-118140537D01*
X168551185Y-118061185D01*
X168630537Y-117964494D01*
X168689502Y-117854180D01*
X168725812Y-117734482D01*
X168738072Y-117610000D01*
X168738072Y-115910000D01*
X168725812Y-115785518D01*
X168689502Y-115665820D01*
X168630537Y-115555506D01*
X168551185Y-115458815D01*
X168454494Y-115379463D01*
X168344180Y-115320498D01*
X168224482Y-115284188D01*
X168100000Y-115271928D01*
X166400000Y-115271928D01*
X166275518Y-115284188D01*
X166155820Y-115320498D01*
X166053856Y-115375000D01*
X160083685Y-115375000D01*
X160027454Y-115318769D01*
X159984081Y-115265919D01*
X159773188Y-115092843D01*
X159532581Y-114964236D01*
X159271507Y-114885040D01*
X159068037Y-114865000D01*
X159068029Y-114865000D01*
X159000000Y-114858300D01*
X158931971Y-114865000D01*
X156681963Y-114865000D01*
X156478493Y-114885040D01*
X156217419Y-114964236D01*
X155976812Y-115092843D01*
X155765919Y-115265919D01*
X155592843Y-115476812D01*
X155464236Y-115717419D01*
X155385040Y-115978493D01*
X155358299Y-116250000D01*
X148127000Y-116250000D01*
X148127000Y-111127000D01*
X169340001Y-111127000D01*
X169340001Y-126967711D01*
M02*
