G04 #@! TF.GenerationSoftware,KiCad,Pcbnew,5.1.5+dfsg1-2build2*
G04 #@! TF.CreationDate,2021-07-02T23:51:08+02:00*
G04 #@! TF.ProjectId,flyback_DCM,666c7962-6163-46b5-9f44-434d2e6b6963,rev?*
G04 #@! TF.SameCoordinates,Original*
G04 #@! TF.FileFunction,Paste,Top*
G04 #@! TF.FilePolarity,Positive*
%FSLAX46Y46*%
G04 Gerber Fmt 4.6, Leading zero omitted, Abs format (unit mm)*
G04 Created by KiCad (PCBNEW 5.1.5+dfsg1-2build2) date 2021-07-02 23:51:08*
%MOMM*%
%LPD*%
G04 APERTURE LIST*
%ADD10C,0.100000*%
%ADD11R,1.300000X1.600000*%
%ADD12R,2.000000X1.600000*%
%ADD13R,1.900000X1.600000*%
%ADD14R,1.980001X2.999999*%
%ADD15R,0.599999X0.299999*%
%ADD16R,1.800000X2.500000*%
%ADD17R,0.900000X1.200000*%
%ADD18R,0.600000X0.450000*%
G04 APERTURE END LIST*
D10*
G36*
X127875000Y-99892400D02*
G01*
X127875000Y-101097600D01*
X127873994Y-101107824D01*
X127871012Y-101117653D01*
X127866168Y-101126711D01*
X127859653Y-101134654D01*
X127851710Y-101141169D01*
X127842653Y-101146012D01*
X127832823Y-101148994D01*
X127822599Y-101150000D01*
X126177401Y-101150000D01*
X126167177Y-101148994D01*
X126157347Y-101146012D01*
X126148290Y-101141169D01*
X126140347Y-101134654D01*
X126133832Y-101126711D01*
X126128988Y-101117653D01*
X126126006Y-101107824D01*
X126125000Y-101097600D01*
X126125000Y-99892400D01*
X126126006Y-99882177D01*
X126128988Y-99872347D01*
X126133832Y-99863290D01*
X126140347Y-99855347D01*
X126148290Y-99848832D01*
X126157347Y-99843988D01*
X126167177Y-99841006D01*
X126177401Y-99840000D01*
X127822599Y-99840000D01*
X127832823Y-99841006D01*
X127842653Y-99843988D01*
X127851710Y-99848832D01*
X127859653Y-99855347D01*
X127866168Y-99863290D01*
X127871012Y-99872347D01*
X127873994Y-99882177D01*
X127875000Y-99892400D01*
G37*
X127875000Y-99892400D02*
X127875000Y-101097600D01*
X127873994Y-101107824D01*
X127871012Y-101117653D01*
X127866168Y-101126711D01*
X127859653Y-101134654D01*
X127851710Y-101141169D01*
X127842653Y-101146012D01*
X127832823Y-101148994D01*
X127822599Y-101150000D01*
X126177401Y-101150000D01*
X126167177Y-101148994D01*
X126157347Y-101146012D01*
X126148290Y-101141169D01*
X126140347Y-101134654D01*
X126133832Y-101126711D01*
X126128988Y-101117653D01*
X126126006Y-101107824D01*
X126125000Y-101097600D01*
X126125000Y-99892400D01*
X126126006Y-99882177D01*
X126128988Y-99872347D01*
X126133832Y-99863290D01*
X126140347Y-99855347D01*
X126148290Y-99848832D01*
X126157347Y-99843988D01*
X126167177Y-99841006D01*
X126177401Y-99840000D01*
X127822599Y-99840000D01*
X127832823Y-99841006D01*
X127842653Y-99843988D01*
X127851710Y-99848832D01*
X127859653Y-99855347D01*
X127866168Y-99863290D01*
X127871012Y-99872347D01*
X127873994Y-99882177D01*
X127875000Y-99892400D01*
G36*
X127875000Y-101402400D02*
G01*
X127875000Y-102607600D01*
X127873994Y-102617823D01*
X127871012Y-102627653D01*
X127866168Y-102636710D01*
X127859653Y-102644653D01*
X127851710Y-102651168D01*
X127842653Y-102656012D01*
X127832823Y-102658994D01*
X127822599Y-102660000D01*
X126177401Y-102660000D01*
X126167177Y-102658994D01*
X126157347Y-102656012D01*
X126148290Y-102651168D01*
X126140347Y-102644653D01*
X126133832Y-102636710D01*
X126128988Y-102627653D01*
X126126006Y-102617823D01*
X126125000Y-102607600D01*
X126125000Y-101402400D01*
X126126006Y-101392176D01*
X126128988Y-101382347D01*
X126133832Y-101373289D01*
X126140347Y-101365346D01*
X126148290Y-101358831D01*
X126157347Y-101353988D01*
X126167177Y-101351006D01*
X126177401Y-101350000D01*
X127822599Y-101350000D01*
X127832823Y-101351006D01*
X127842653Y-101353988D01*
X127851710Y-101358831D01*
X127859653Y-101365346D01*
X127866168Y-101373289D01*
X127871012Y-101382347D01*
X127873994Y-101392176D01*
X127875000Y-101402400D01*
G37*
X127875000Y-101402400D02*
X127875000Y-102607600D01*
X127873994Y-102617823D01*
X127871012Y-102627653D01*
X127866168Y-102636710D01*
X127859653Y-102644653D01*
X127851710Y-102651168D01*
X127842653Y-102656012D01*
X127832823Y-102658994D01*
X127822599Y-102660000D01*
X126177401Y-102660000D01*
X126167177Y-102658994D01*
X126157347Y-102656012D01*
X126148290Y-102651168D01*
X126140347Y-102644653D01*
X126133832Y-102636710D01*
X126128988Y-102627653D01*
X126126006Y-102617823D01*
X126125000Y-102607600D01*
X126125000Y-101402400D01*
X126126006Y-101392176D01*
X126128988Y-101382347D01*
X126133832Y-101373289D01*
X126140347Y-101365346D01*
X126148290Y-101358831D01*
X126157347Y-101353988D01*
X126167177Y-101351006D01*
X126177401Y-101350000D01*
X127822599Y-101350000D01*
X127832823Y-101351006D01*
X127842653Y-101353988D01*
X127851710Y-101358831D01*
X127859653Y-101365346D01*
X127866168Y-101373289D01*
X127871012Y-101382347D01*
X127873994Y-101392176D01*
X127875000Y-101402400D01*
D11*
X130632000Y-107700000D03*
D12*
X129382000Y-104800000D03*
D11*
X128132000Y-107700000D03*
D13*
X139324000Y-94685000D03*
X147424000Y-94685000D03*
X139324000Y-92195000D03*
X147424000Y-92195000D03*
X139324000Y-89705000D03*
X147424000Y-89705000D03*
X139324000Y-87215000D03*
X147424000Y-87215000D03*
X139350000Y-122640000D03*
X147450000Y-122640000D03*
X139350000Y-120150000D03*
X147450000Y-120150000D03*
X139350000Y-117660000D03*
X147450000Y-117660000D03*
X139350000Y-115170000D03*
X147450000Y-115170000D03*
D14*
X127000000Y-101250000D03*
D15*
X125100001Y-102450003D03*
X125100001Y-101650002D03*
X125100001Y-100850003D03*
X125100001Y-100050002D03*
X128899999Y-100050002D03*
X128899999Y-100850003D03*
X128899999Y-101650002D03*
X128899999Y-102450003D03*
D10*
G36*
X123527691Y-103388553D02*
G01*
X123548926Y-103391703D01*
X123569750Y-103396919D01*
X123589962Y-103404151D01*
X123609368Y-103413330D01*
X123627781Y-103424366D01*
X123645024Y-103437154D01*
X123660930Y-103451570D01*
X123675346Y-103467476D01*
X123688134Y-103484719D01*
X123699170Y-103503132D01*
X123708349Y-103522538D01*
X123715581Y-103542750D01*
X123720797Y-103563574D01*
X123723947Y-103584809D01*
X123725000Y-103606250D01*
X123725000Y-104043750D01*
X123723947Y-104065191D01*
X123720797Y-104086426D01*
X123715581Y-104107250D01*
X123708349Y-104127462D01*
X123699170Y-104146868D01*
X123688134Y-104165281D01*
X123675346Y-104182524D01*
X123660930Y-104198430D01*
X123645024Y-104212846D01*
X123627781Y-104225634D01*
X123609368Y-104236670D01*
X123589962Y-104245849D01*
X123569750Y-104253081D01*
X123548926Y-104258297D01*
X123527691Y-104261447D01*
X123506250Y-104262500D01*
X122993750Y-104262500D01*
X122972309Y-104261447D01*
X122951074Y-104258297D01*
X122930250Y-104253081D01*
X122910038Y-104245849D01*
X122890632Y-104236670D01*
X122872219Y-104225634D01*
X122854976Y-104212846D01*
X122839070Y-104198430D01*
X122824654Y-104182524D01*
X122811866Y-104165281D01*
X122800830Y-104146868D01*
X122791651Y-104127462D01*
X122784419Y-104107250D01*
X122779203Y-104086426D01*
X122776053Y-104065191D01*
X122775000Y-104043750D01*
X122775000Y-103606250D01*
X122776053Y-103584809D01*
X122779203Y-103563574D01*
X122784419Y-103542750D01*
X122791651Y-103522538D01*
X122800830Y-103503132D01*
X122811866Y-103484719D01*
X122824654Y-103467476D01*
X122839070Y-103451570D01*
X122854976Y-103437154D01*
X122872219Y-103424366D01*
X122890632Y-103413330D01*
X122910038Y-103404151D01*
X122930250Y-103396919D01*
X122951074Y-103391703D01*
X122972309Y-103388553D01*
X122993750Y-103387500D01*
X123506250Y-103387500D01*
X123527691Y-103388553D01*
G37*
G36*
X123527691Y-101813553D02*
G01*
X123548926Y-101816703D01*
X123569750Y-101821919D01*
X123589962Y-101829151D01*
X123609368Y-101838330D01*
X123627781Y-101849366D01*
X123645024Y-101862154D01*
X123660930Y-101876570D01*
X123675346Y-101892476D01*
X123688134Y-101909719D01*
X123699170Y-101928132D01*
X123708349Y-101947538D01*
X123715581Y-101967750D01*
X123720797Y-101988574D01*
X123723947Y-102009809D01*
X123725000Y-102031250D01*
X123725000Y-102468750D01*
X123723947Y-102490191D01*
X123720797Y-102511426D01*
X123715581Y-102532250D01*
X123708349Y-102552462D01*
X123699170Y-102571868D01*
X123688134Y-102590281D01*
X123675346Y-102607524D01*
X123660930Y-102623430D01*
X123645024Y-102637846D01*
X123627781Y-102650634D01*
X123609368Y-102661670D01*
X123589962Y-102670849D01*
X123569750Y-102678081D01*
X123548926Y-102683297D01*
X123527691Y-102686447D01*
X123506250Y-102687500D01*
X122993750Y-102687500D01*
X122972309Y-102686447D01*
X122951074Y-102683297D01*
X122930250Y-102678081D01*
X122910038Y-102670849D01*
X122890632Y-102661670D01*
X122872219Y-102650634D01*
X122854976Y-102637846D01*
X122839070Y-102623430D01*
X122824654Y-102607524D01*
X122811866Y-102590281D01*
X122800830Y-102571868D01*
X122791651Y-102552462D01*
X122784419Y-102532250D01*
X122779203Y-102511426D01*
X122776053Y-102490191D01*
X122775000Y-102468750D01*
X122775000Y-102031250D01*
X122776053Y-102009809D01*
X122779203Y-101988574D01*
X122784419Y-101967750D01*
X122791651Y-101947538D01*
X122800830Y-101928132D01*
X122811866Y-101909719D01*
X122824654Y-101892476D01*
X122839070Y-101876570D01*
X122854976Y-101862154D01*
X122872219Y-101849366D01*
X122890632Y-101838330D01*
X122910038Y-101829151D01*
X122930250Y-101821919D01*
X122951074Y-101816703D01*
X122972309Y-101813553D01*
X122993750Y-101812500D01*
X123506250Y-101812500D01*
X123527691Y-101813553D01*
G37*
G36*
X122165191Y-100276053D02*
G01*
X122186426Y-100279203D01*
X122207250Y-100284419D01*
X122227462Y-100291651D01*
X122246868Y-100300830D01*
X122265281Y-100311866D01*
X122282524Y-100324654D01*
X122298430Y-100339070D01*
X122312846Y-100354976D01*
X122325634Y-100372219D01*
X122336670Y-100390632D01*
X122345849Y-100410038D01*
X122353081Y-100430250D01*
X122358297Y-100451074D01*
X122361447Y-100472309D01*
X122362500Y-100493750D01*
X122362500Y-101006250D01*
X122361447Y-101027691D01*
X122358297Y-101048926D01*
X122353081Y-101069750D01*
X122345849Y-101089962D01*
X122336670Y-101109368D01*
X122325634Y-101127781D01*
X122312846Y-101145024D01*
X122298430Y-101160930D01*
X122282524Y-101175346D01*
X122265281Y-101188134D01*
X122246868Y-101199170D01*
X122227462Y-101208349D01*
X122207250Y-101215581D01*
X122186426Y-101220797D01*
X122165191Y-101223947D01*
X122143750Y-101225000D01*
X121706250Y-101225000D01*
X121684809Y-101223947D01*
X121663574Y-101220797D01*
X121642750Y-101215581D01*
X121622538Y-101208349D01*
X121603132Y-101199170D01*
X121584719Y-101188134D01*
X121567476Y-101175346D01*
X121551570Y-101160930D01*
X121537154Y-101145024D01*
X121524366Y-101127781D01*
X121513330Y-101109368D01*
X121504151Y-101089962D01*
X121496919Y-101069750D01*
X121491703Y-101048926D01*
X121488553Y-101027691D01*
X121487500Y-101006250D01*
X121487500Y-100493750D01*
X121488553Y-100472309D01*
X121491703Y-100451074D01*
X121496919Y-100430250D01*
X121504151Y-100410038D01*
X121513330Y-100390632D01*
X121524366Y-100372219D01*
X121537154Y-100354976D01*
X121551570Y-100339070D01*
X121567476Y-100324654D01*
X121584719Y-100311866D01*
X121603132Y-100300830D01*
X121622538Y-100291651D01*
X121642750Y-100284419D01*
X121663574Y-100279203D01*
X121684809Y-100276053D01*
X121706250Y-100275000D01*
X122143750Y-100275000D01*
X122165191Y-100276053D01*
G37*
G36*
X123740191Y-100276053D02*
G01*
X123761426Y-100279203D01*
X123782250Y-100284419D01*
X123802462Y-100291651D01*
X123821868Y-100300830D01*
X123840281Y-100311866D01*
X123857524Y-100324654D01*
X123873430Y-100339070D01*
X123887846Y-100354976D01*
X123900634Y-100372219D01*
X123911670Y-100390632D01*
X123920849Y-100410038D01*
X123928081Y-100430250D01*
X123933297Y-100451074D01*
X123936447Y-100472309D01*
X123937500Y-100493750D01*
X123937500Y-101006250D01*
X123936447Y-101027691D01*
X123933297Y-101048926D01*
X123928081Y-101069750D01*
X123920849Y-101089962D01*
X123911670Y-101109368D01*
X123900634Y-101127781D01*
X123887846Y-101145024D01*
X123873430Y-101160930D01*
X123857524Y-101175346D01*
X123840281Y-101188134D01*
X123821868Y-101199170D01*
X123802462Y-101208349D01*
X123782250Y-101215581D01*
X123761426Y-101220797D01*
X123740191Y-101223947D01*
X123718750Y-101225000D01*
X123281250Y-101225000D01*
X123259809Y-101223947D01*
X123238574Y-101220797D01*
X123217750Y-101215581D01*
X123197538Y-101208349D01*
X123178132Y-101199170D01*
X123159719Y-101188134D01*
X123142476Y-101175346D01*
X123126570Y-101160930D01*
X123112154Y-101145024D01*
X123099366Y-101127781D01*
X123088330Y-101109368D01*
X123079151Y-101089962D01*
X123071919Y-101069750D01*
X123066703Y-101048926D01*
X123063553Y-101027691D01*
X123062500Y-101006250D01*
X123062500Y-100493750D01*
X123063553Y-100472309D01*
X123066703Y-100451074D01*
X123071919Y-100430250D01*
X123079151Y-100410038D01*
X123088330Y-100390632D01*
X123099366Y-100372219D01*
X123112154Y-100354976D01*
X123126570Y-100339070D01*
X123142476Y-100324654D01*
X123159719Y-100311866D01*
X123178132Y-100300830D01*
X123197538Y-100291651D01*
X123217750Y-100284419D01*
X123238574Y-100279203D01*
X123259809Y-100276053D01*
X123281250Y-100275000D01*
X123718750Y-100275000D01*
X123740191Y-100276053D01*
G37*
G36*
X128338142Y-91551674D02*
G01*
X128361803Y-91555184D01*
X128385007Y-91560996D01*
X128407529Y-91569054D01*
X128429153Y-91579282D01*
X128449670Y-91591579D01*
X128468883Y-91605829D01*
X128486607Y-91621893D01*
X128502671Y-91639617D01*
X128516921Y-91658830D01*
X128529218Y-91679347D01*
X128539446Y-91700971D01*
X128547504Y-91723493D01*
X128553316Y-91746697D01*
X128556826Y-91770358D01*
X128558000Y-91794250D01*
X128558000Y-92281750D01*
X128556826Y-92305642D01*
X128553316Y-92329303D01*
X128547504Y-92352507D01*
X128539446Y-92375029D01*
X128529218Y-92396653D01*
X128516921Y-92417170D01*
X128502671Y-92436383D01*
X128486607Y-92454107D01*
X128468883Y-92470171D01*
X128449670Y-92484421D01*
X128429153Y-92496718D01*
X128407529Y-92506946D01*
X128385007Y-92515004D01*
X128361803Y-92520816D01*
X128338142Y-92524326D01*
X128314250Y-92525500D01*
X127401750Y-92525500D01*
X127377858Y-92524326D01*
X127354197Y-92520816D01*
X127330993Y-92515004D01*
X127308471Y-92506946D01*
X127286847Y-92496718D01*
X127266330Y-92484421D01*
X127247117Y-92470171D01*
X127229393Y-92454107D01*
X127213329Y-92436383D01*
X127199079Y-92417170D01*
X127186782Y-92396653D01*
X127176554Y-92375029D01*
X127168496Y-92352507D01*
X127162684Y-92329303D01*
X127159174Y-92305642D01*
X127158000Y-92281750D01*
X127158000Y-91794250D01*
X127159174Y-91770358D01*
X127162684Y-91746697D01*
X127168496Y-91723493D01*
X127176554Y-91700971D01*
X127186782Y-91679347D01*
X127199079Y-91658830D01*
X127213329Y-91639617D01*
X127229393Y-91621893D01*
X127247117Y-91605829D01*
X127266330Y-91591579D01*
X127286847Y-91579282D01*
X127308471Y-91569054D01*
X127330993Y-91560996D01*
X127354197Y-91555184D01*
X127377858Y-91551674D01*
X127401750Y-91550500D01*
X128314250Y-91550500D01*
X128338142Y-91551674D01*
G37*
G36*
X128338142Y-89676674D02*
G01*
X128361803Y-89680184D01*
X128385007Y-89685996D01*
X128407529Y-89694054D01*
X128429153Y-89704282D01*
X128449670Y-89716579D01*
X128468883Y-89730829D01*
X128486607Y-89746893D01*
X128502671Y-89764617D01*
X128516921Y-89783830D01*
X128529218Y-89804347D01*
X128539446Y-89825971D01*
X128547504Y-89848493D01*
X128553316Y-89871697D01*
X128556826Y-89895358D01*
X128558000Y-89919250D01*
X128558000Y-90406750D01*
X128556826Y-90430642D01*
X128553316Y-90454303D01*
X128547504Y-90477507D01*
X128539446Y-90500029D01*
X128529218Y-90521653D01*
X128516921Y-90542170D01*
X128502671Y-90561383D01*
X128486607Y-90579107D01*
X128468883Y-90595171D01*
X128449670Y-90609421D01*
X128429153Y-90621718D01*
X128407529Y-90631946D01*
X128385007Y-90640004D01*
X128361803Y-90645816D01*
X128338142Y-90649326D01*
X128314250Y-90650500D01*
X127401750Y-90650500D01*
X127377858Y-90649326D01*
X127354197Y-90645816D01*
X127330993Y-90640004D01*
X127308471Y-90631946D01*
X127286847Y-90621718D01*
X127266330Y-90609421D01*
X127247117Y-90595171D01*
X127229393Y-90579107D01*
X127213329Y-90561383D01*
X127199079Y-90542170D01*
X127186782Y-90521653D01*
X127176554Y-90500029D01*
X127168496Y-90477507D01*
X127162684Y-90454303D01*
X127159174Y-90430642D01*
X127158000Y-90406750D01*
X127158000Y-89919250D01*
X127159174Y-89895358D01*
X127162684Y-89871697D01*
X127168496Y-89848493D01*
X127176554Y-89825971D01*
X127186782Y-89804347D01*
X127199079Y-89783830D01*
X127213329Y-89764617D01*
X127229393Y-89746893D01*
X127247117Y-89730829D01*
X127266330Y-89716579D01*
X127286847Y-89704282D01*
X127308471Y-89694054D01*
X127330993Y-89685996D01*
X127354197Y-89680184D01*
X127377858Y-89676674D01*
X127401750Y-89675500D01*
X128314250Y-89675500D01*
X128338142Y-89676674D01*
G37*
G36*
X136899504Y-83726204D02*
G01*
X136923773Y-83729804D01*
X136947571Y-83735765D01*
X136970671Y-83744030D01*
X136992849Y-83754520D01*
X137013893Y-83767133D01*
X137033598Y-83781747D01*
X137051777Y-83798223D01*
X137068253Y-83816402D01*
X137082867Y-83836107D01*
X137095480Y-83857151D01*
X137105970Y-83879329D01*
X137114235Y-83902429D01*
X137120196Y-83926227D01*
X137123796Y-83950496D01*
X137125000Y-83975000D01*
X137125000Y-84725000D01*
X137123796Y-84749504D01*
X137120196Y-84773773D01*
X137114235Y-84797571D01*
X137105970Y-84820671D01*
X137095480Y-84842849D01*
X137082867Y-84863893D01*
X137068253Y-84883598D01*
X137051777Y-84901777D01*
X137033598Y-84918253D01*
X137013893Y-84932867D01*
X136992849Y-84945480D01*
X136970671Y-84955970D01*
X136947571Y-84964235D01*
X136923773Y-84970196D01*
X136899504Y-84973796D01*
X136875000Y-84975000D01*
X135625000Y-84975000D01*
X135600496Y-84973796D01*
X135576227Y-84970196D01*
X135552429Y-84964235D01*
X135529329Y-84955970D01*
X135507151Y-84945480D01*
X135486107Y-84932867D01*
X135466402Y-84918253D01*
X135448223Y-84901777D01*
X135431747Y-84883598D01*
X135417133Y-84863893D01*
X135404520Y-84842849D01*
X135394030Y-84820671D01*
X135385765Y-84797571D01*
X135379804Y-84773773D01*
X135376204Y-84749504D01*
X135375000Y-84725000D01*
X135375000Y-83975000D01*
X135376204Y-83950496D01*
X135379804Y-83926227D01*
X135385765Y-83902429D01*
X135394030Y-83879329D01*
X135404520Y-83857151D01*
X135417133Y-83836107D01*
X135431747Y-83816402D01*
X135448223Y-83798223D01*
X135466402Y-83781747D01*
X135486107Y-83767133D01*
X135507151Y-83754520D01*
X135529329Y-83744030D01*
X135552429Y-83735765D01*
X135576227Y-83729804D01*
X135600496Y-83726204D01*
X135625000Y-83725000D01*
X136875000Y-83725000D01*
X136899504Y-83726204D01*
G37*
G36*
X136899504Y-86526204D02*
G01*
X136923773Y-86529804D01*
X136947571Y-86535765D01*
X136970671Y-86544030D01*
X136992849Y-86554520D01*
X137013893Y-86567133D01*
X137033598Y-86581747D01*
X137051777Y-86598223D01*
X137068253Y-86616402D01*
X137082867Y-86636107D01*
X137095480Y-86657151D01*
X137105970Y-86679329D01*
X137114235Y-86702429D01*
X137120196Y-86726227D01*
X137123796Y-86750496D01*
X137125000Y-86775000D01*
X137125000Y-87525000D01*
X137123796Y-87549504D01*
X137120196Y-87573773D01*
X137114235Y-87597571D01*
X137105970Y-87620671D01*
X137095480Y-87642849D01*
X137082867Y-87663893D01*
X137068253Y-87683598D01*
X137051777Y-87701777D01*
X137033598Y-87718253D01*
X137013893Y-87732867D01*
X136992849Y-87745480D01*
X136970671Y-87755970D01*
X136947571Y-87764235D01*
X136923773Y-87770196D01*
X136899504Y-87773796D01*
X136875000Y-87775000D01*
X135625000Y-87775000D01*
X135600496Y-87773796D01*
X135576227Y-87770196D01*
X135552429Y-87764235D01*
X135529329Y-87755970D01*
X135507151Y-87745480D01*
X135486107Y-87732867D01*
X135466402Y-87718253D01*
X135448223Y-87701777D01*
X135431747Y-87683598D01*
X135417133Y-87663893D01*
X135404520Y-87642849D01*
X135394030Y-87620671D01*
X135385765Y-87597571D01*
X135379804Y-87573773D01*
X135376204Y-87549504D01*
X135375000Y-87525000D01*
X135375000Y-86775000D01*
X135376204Y-86750496D01*
X135379804Y-86726227D01*
X135385765Y-86702429D01*
X135394030Y-86679329D01*
X135404520Y-86657151D01*
X135417133Y-86636107D01*
X135431747Y-86616402D01*
X135448223Y-86598223D01*
X135466402Y-86581747D01*
X135486107Y-86567133D01*
X135507151Y-86554520D01*
X135529329Y-86544030D01*
X135552429Y-86535765D01*
X135576227Y-86529804D01*
X135600496Y-86526204D01*
X135625000Y-86525000D01*
X136875000Y-86525000D01*
X136899504Y-86526204D01*
G37*
G36*
X137149504Y-114526204D02*
G01*
X137173773Y-114529804D01*
X137197571Y-114535765D01*
X137220671Y-114544030D01*
X137242849Y-114554520D01*
X137263893Y-114567133D01*
X137283598Y-114581747D01*
X137301777Y-114598223D01*
X137318253Y-114616402D01*
X137332867Y-114636107D01*
X137345480Y-114657151D01*
X137355970Y-114679329D01*
X137364235Y-114702429D01*
X137370196Y-114726227D01*
X137373796Y-114750496D01*
X137375000Y-114775000D01*
X137375000Y-115525000D01*
X137373796Y-115549504D01*
X137370196Y-115573773D01*
X137364235Y-115597571D01*
X137355970Y-115620671D01*
X137345480Y-115642849D01*
X137332867Y-115663893D01*
X137318253Y-115683598D01*
X137301777Y-115701777D01*
X137283598Y-115718253D01*
X137263893Y-115732867D01*
X137242849Y-115745480D01*
X137220671Y-115755970D01*
X137197571Y-115764235D01*
X137173773Y-115770196D01*
X137149504Y-115773796D01*
X137125000Y-115775000D01*
X135875000Y-115775000D01*
X135850496Y-115773796D01*
X135826227Y-115770196D01*
X135802429Y-115764235D01*
X135779329Y-115755970D01*
X135757151Y-115745480D01*
X135736107Y-115732867D01*
X135716402Y-115718253D01*
X135698223Y-115701777D01*
X135681747Y-115683598D01*
X135667133Y-115663893D01*
X135654520Y-115642849D01*
X135644030Y-115620671D01*
X135635765Y-115597571D01*
X135629804Y-115573773D01*
X135626204Y-115549504D01*
X135625000Y-115525000D01*
X135625000Y-114775000D01*
X135626204Y-114750496D01*
X135629804Y-114726227D01*
X135635765Y-114702429D01*
X135644030Y-114679329D01*
X135654520Y-114657151D01*
X135667133Y-114636107D01*
X135681747Y-114616402D01*
X135698223Y-114598223D01*
X135716402Y-114581747D01*
X135736107Y-114567133D01*
X135757151Y-114554520D01*
X135779329Y-114544030D01*
X135802429Y-114535765D01*
X135826227Y-114529804D01*
X135850496Y-114526204D01*
X135875000Y-114525000D01*
X137125000Y-114525000D01*
X137149504Y-114526204D01*
G37*
G36*
X137149504Y-111726204D02*
G01*
X137173773Y-111729804D01*
X137197571Y-111735765D01*
X137220671Y-111744030D01*
X137242849Y-111754520D01*
X137263893Y-111767133D01*
X137283598Y-111781747D01*
X137301777Y-111798223D01*
X137318253Y-111816402D01*
X137332867Y-111836107D01*
X137345480Y-111857151D01*
X137355970Y-111879329D01*
X137364235Y-111902429D01*
X137370196Y-111926227D01*
X137373796Y-111950496D01*
X137375000Y-111975000D01*
X137375000Y-112725000D01*
X137373796Y-112749504D01*
X137370196Y-112773773D01*
X137364235Y-112797571D01*
X137355970Y-112820671D01*
X137345480Y-112842849D01*
X137332867Y-112863893D01*
X137318253Y-112883598D01*
X137301777Y-112901777D01*
X137283598Y-112918253D01*
X137263893Y-112932867D01*
X137242849Y-112945480D01*
X137220671Y-112955970D01*
X137197571Y-112964235D01*
X137173773Y-112970196D01*
X137149504Y-112973796D01*
X137125000Y-112975000D01*
X135875000Y-112975000D01*
X135850496Y-112973796D01*
X135826227Y-112970196D01*
X135802429Y-112964235D01*
X135779329Y-112955970D01*
X135757151Y-112945480D01*
X135736107Y-112932867D01*
X135716402Y-112918253D01*
X135698223Y-112901777D01*
X135681747Y-112883598D01*
X135667133Y-112863893D01*
X135654520Y-112842849D01*
X135644030Y-112820671D01*
X135635765Y-112797571D01*
X135629804Y-112773773D01*
X135626204Y-112749504D01*
X135625000Y-112725000D01*
X135625000Y-111975000D01*
X135626204Y-111950496D01*
X135629804Y-111926227D01*
X135635765Y-111902429D01*
X135644030Y-111879329D01*
X135654520Y-111857151D01*
X135667133Y-111836107D01*
X135681747Y-111816402D01*
X135698223Y-111798223D01*
X135716402Y-111781747D01*
X135736107Y-111767133D01*
X135757151Y-111754520D01*
X135779329Y-111744030D01*
X135802429Y-111735765D01*
X135826227Y-111729804D01*
X135850496Y-111726204D01*
X135875000Y-111725000D01*
X137125000Y-111725000D01*
X137149504Y-111726204D01*
G37*
G36*
X129746642Y-95403174D02*
G01*
X129770303Y-95406684D01*
X129793507Y-95412496D01*
X129816029Y-95420554D01*
X129837653Y-95430782D01*
X129858170Y-95443079D01*
X129877383Y-95457329D01*
X129895107Y-95473393D01*
X129911171Y-95491117D01*
X129925421Y-95510330D01*
X129937718Y-95530847D01*
X129947946Y-95552471D01*
X129956004Y-95574993D01*
X129961816Y-95598197D01*
X129965326Y-95621858D01*
X129966500Y-95645750D01*
X129966500Y-96558250D01*
X129965326Y-96582142D01*
X129961816Y-96605803D01*
X129956004Y-96629007D01*
X129947946Y-96651529D01*
X129937718Y-96673153D01*
X129925421Y-96693670D01*
X129911171Y-96712883D01*
X129895107Y-96730607D01*
X129877383Y-96746671D01*
X129858170Y-96760921D01*
X129837653Y-96773218D01*
X129816029Y-96783446D01*
X129793507Y-96791504D01*
X129770303Y-96797316D01*
X129746642Y-96800826D01*
X129722750Y-96802000D01*
X129235250Y-96802000D01*
X129211358Y-96800826D01*
X129187697Y-96797316D01*
X129164493Y-96791504D01*
X129141971Y-96783446D01*
X129120347Y-96773218D01*
X129099830Y-96760921D01*
X129080617Y-96746671D01*
X129062893Y-96730607D01*
X129046829Y-96712883D01*
X129032579Y-96693670D01*
X129020282Y-96673153D01*
X129010054Y-96651529D01*
X129001996Y-96629007D01*
X128996184Y-96605803D01*
X128992674Y-96582142D01*
X128991500Y-96558250D01*
X128991500Y-95645750D01*
X128992674Y-95621858D01*
X128996184Y-95598197D01*
X129001996Y-95574993D01*
X129010054Y-95552471D01*
X129020282Y-95530847D01*
X129032579Y-95510330D01*
X129046829Y-95491117D01*
X129062893Y-95473393D01*
X129080617Y-95457329D01*
X129099830Y-95443079D01*
X129120347Y-95430782D01*
X129141971Y-95420554D01*
X129164493Y-95412496D01*
X129187697Y-95406684D01*
X129211358Y-95403174D01*
X129235250Y-95402000D01*
X129722750Y-95402000D01*
X129746642Y-95403174D01*
G37*
G36*
X127871642Y-95403174D02*
G01*
X127895303Y-95406684D01*
X127918507Y-95412496D01*
X127941029Y-95420554D01*
X127962653Y-95430782D01*
X127983170Y-95443079D01*
X128002383Y-95457329D01*
X128020107Y-95473393D01*
X128036171Y-95491117D01*
X128050421Y-95510330D01*
X128062718Y-95530847D01*
X128072946Y-95552471D01*
X128081004Y-95574993D01*
X128086816Y-95598197D01*
X128090326Y-95621858D01*
X128091500Y-95645750D01*
X128091500Y-96558250D01*
X128090326Y-96582142D01*
X128086816Y-96605803D01*
X128081004Y-96629007D01*
X128072946Y-96651529D01*
X128062718Y-96673153D01*
X128050421Y-96693670D01*
X128036171Y-96712883D01*
X128020107Y-96730607D01*
X128002383Y-96746671D01*
X127983170Y-96760921D01*
X127962653Y-96773218D01*
X127941029Y-96783446D01*
X127918507Y-96791504D01*
X127895303Y-96797316D01*
X127871642Y-96800826D01*
X127847750Y-96802000D01*
X127360250Y-96802000D01*
X127336358Y-96800826D01*
X127312697Y-96797316D01*
X127289493Y-96791504D01*
X127266971Y-96783446D01*
X127245347Y-96773218D01*
X127224830Y-96760921D01*
X127205617Y-96746671D01*
X127187893Y-96730607D01*
X127171829Y-96712883D01*
X127157579Y-96693670D01*
X127145282Y-96673153D01*
X127135054Y-96651529D01*
X127126996Y-96629007D01*
X127121184Y-96605803D01*
X127117674Y-96582142D01*
X127116500Y-96558250D01*
X127116500Y-95645750D01*
X127117674Y-95621858D01*
X127121184Y-95598197D01*
X127126996Y-95574993D01*
X127135054Y-95552471D01*
X127145282Y-95530847D01*
X127157579Y-95510330D01*
X127171829Y-95491117D01*
X127187893Y-95473393D01*
X127205617Y-95457329D01*
X127224830Y-95443079D01*
X127245347Y-95430782D01*
X127266971Y-95420554D01*
X127289493Y-95412496D01*
X127312697Y-95406684D01*
X127336358Y-95403174D01*
X127360250Y-95402000D01*
X127847750Y-95402000D01*
X127871642Y-95403174D01*
G37*
G36*
X129746642Y-93371174D02*
G01*
X129770303Y-93374684D01*
X129793507Y-93380496D01*
X129816029Y-93388554D01*
X129837653Y-93398782D01*
X129858170Y-93411079D01*
X129877383Y-93425329D01*
X129895107Y-93441393D01*
X129911171Y-93459117D01*
X129925421Y-93478330D01*
X129937718Y-93498847D01*
X129947946Y-93520471D01*
X129956004Y-93542993D01*
X129961816Y-93566197D01*
X129965326Y-93589858D01*
X129966500Y-93613750D01*
X129966500Y-94526250D01*
X129965326Y-94550142D01*
X129961816Y-94573803D01*
X129956004Y-94597007D01*
X129947946Y-94619529D01*
X129937718Y-94641153D01*
X129925421Y-94661670D01*
X129911171Y-94680883D01*
X129895107Y-94698607D01*
X129877383Y-94714671D01*
X129858170Y-94728921D01*
X129837653Y-94741218D01*
X129816029Y-94751446D01*
X129793507Y-94759504D01*
X129770303Y-94765316D01*
X129746642Y-94768826D01*
X129722750Y-94770000D01*
X129235250Y-94770000D01*
X129211358Y-94768826D01*
X129187697Y-94765316D01*
X129164493Y-94759504D01*
X129141971Y-94751446D01*
X129120347Y-94741218D01*
X129099830Y-94728921D01*
X129080617Y-94714671D01*
X129062893Y-94698607D01*
X129046829Y-94680883D01*
X129032579Y-94661670D01*
X129020282Y-94641153D01*
X129010054Y-94619529D01*
X129001996Y-94597007D01*
X128996184Y-94573803D01*
X128992674Y-94550142D01*
X128991500Y-94526250D01*
X128991500Y-93613750D01*
X128992674Y-93589858D01*
X128996184Y-93566197D01*
X129001996Y-93542993D01*
X129010054Y-93520471D01*
X129020282Y-93498847D01*
X129032579Y-93478330D01*
X129046829Y-93459117D01*
X129062893Y-93441393D01*
X129080617Y-93425329D01*
X129099830Y-93411079D01*
X129120347Y-93398782D01*
X129141971Y-93388554D01*
X129164493Y-93380496D01*
X129187697Y-93374684D01*
X129211358Y-93371174D01*
X129235250Y-93370000D01*
X129722750Y-93370000D01*
X129746642Y-93371174D01*
G37*
G36*
X127871642Y-93371174D02*
G01*
X127895303Y-93374684D01*
X127918507Y-93380496D01*
X127941029Y-93388554D01*
X127962653Y-93398782D01*
X127983170Y-93411079D01*
X128002383Y-93425329D01*
X128020107Y-93441393D01*
X128036171Y-93459117D01*
X128050421Y-93478330D01*
X128062718Y-93498847D01*
X128072946Y-93520471D01*
X128081004Y-93542993D01*
X128086816Y-93566197D01*
X128090326Y-93589858D01*
X128091500Y-93613750D01*
X128091500Y-94526250D01*
X128090326Y-94550142D01*
X128086816Y-94573803D01*
X128081004Y-94597007D01*
X128072946Y-94619529D01*
X128062718Y-94641153D01*
X128050421Y-94661670D01*
X128036171Y-94680883D01*
X128020107Y-94698607D01*
X128002383Y-94714671D01*
X127983170Y-94728921D01*
X127962653Y-94741218D01*
X127941029Y-94751446D01*
X127918507Y-94759504D01*
X127895303Y-94765316D01*
X127871642Y-94768826D01*
X127847750Y-94770000D01*
X127360250Y-94770000D01*
X127336358Y-94768826D01*
X127312697Y-94765316D01*
X127289493Y-94759504D01*
X127266971Y-94751446D01*
X127245347Y-94741218D01*
X127224830Y-94728921D01*
X127205617Y-94714671D01*
X127187893Y-94698607D01*
X127171829Y-94680883D01*
X127157579Y-94661670D01*
X127145282Y-94641153D01*
X127135054Y-94619529D01*
X127126996Y-94597007D01*
X127121184Y-94573803D01*
X127117674Y-94550142D01*
X127116500Y-94526250D01*
X127116500Y-93613750D01*
X127117674Y-93589858D01*
X127121184Y-93566197D01*
X127126996Y-93542993D01*
X127135054Y-93520471D01*
X127145282Y-93498847D01*
X127157579Y-93478330D01*
X127171829Y-93459117D01*
X127187893Y-93441393D01*
X127205617Y-93425329D01*
X127224830Y-93411079D01*
X127245347Y-93398782D01*
X127266971Y-93388554D01*
X127289493Y-93380496D01*
X127312697Y-93374684D01*
X127336358Y-93371174D01*
X127360250Y-93370000D01*
X127847750Y-93370000D01*
X127871642Y-93371174D01*
G37*
G36*
X135704142Y-94950674D02*
G01*
X135727803Y-94954184D01*
X135751007Y-94959996D01*
X135773529Y-94968054D01*
X135795153Y-94978282D01*
X135815670Y-94990579D01*
X135834883Y-95004829D01*
X135852607Y-95020893D01*
X135868671Y-95038617D01*
X135882921Y-95057830D01*
X135895218Y-95078347D01*
X135905446Y-95099971D01*
X135913504Y-95122493D01*
X135919316Y-95145697D01*
X135922826Y-95169358D01*
X135924000Y-95193250D01*
X135924000Y-95680750D01*
X135922826Y-95704642D01*
X135919316Y-95728303D01*
X135913504Y-95751507D01*
X135905446Y-95774029D01*
X135895218Y-95795653D01*
X135882921Y-95816170D01*
X135868671Y-95835383D01*
X135852607Y-95853107D01*
X135834883Y-95869171D01*
X135815670Y-95883421D01*
X135795153Y-95895718D01*
X135773529Y-95905946D01*
X135751007Y-95914004D01*
X135727803Y-95919816D01*
X135704142Y-95923326D01*
X135680250Y-95924500D01*
X134767750Y-95924500D01*
X134743858Y-95923326D01*
X134720197Y-95919816D01*
X134696993Y-95914004D01*
X134674471Y-95905946D01*
X134652847Y-95895718D01*
X134632330Y-95883421D01*
X134613117Y-95869171D01*
X134595393Y-95853107D01*
X134579329Y-95835383D01*
X134565079Y-95816170D01*
X134552782Y-95795653D01*
X134542554Y-95774029D01*
X134534496Y-95751507D01*
X134528684Y-95728303D01*
X134525174Y-95704642D01*
X134524000Y-95680750D01*
X134524000Y-95193250D01*
X134525174Y-95169358D01*
X134528684Y-95145697D01*
X134534496Y-95122493D01*
X134542554Y-95099971D01*
X134552782Y-95078347D01*
X134565079Y-95057830D01*
X134579329Y-95038617D01*
X134595393Y-95020893D01*
X134613117Y-95004829D01*
X134632330Y-94990579D01*
X134652847Y-94978282D01*
X134674471Y-94968054D01*
X134696993Y-94959996D01*
X134720197Y-94954184D01*
X134743858Y-94950674D01*
X134767750Y-94949500D01*
X135680250Y-94949500D01*
X135704142Y-94950674D01*
G37*
G36*
X135704142Y-93075674D02*
G01*
X135727803Y-93079184D01*
X135751007Y-93084996D01*
X135773529Y-93093054D01*
X135795153Y-93103282D01*
X135815670Y-93115579D01*
X135834883Y-93129829D01*
X135852607Y-93145893D01*
X135868671Y-93163617D01*
X135882921Y-93182830D01*
X135895218Y-93203347D01*
X135905446Y-93224971D01*
X135913504Y-93247493D01*
X135919316Y-93270697D01*
X135922826Y-93294358D01*
X135924000Y-93318250D01*
X135924000Y-93805750D01*
X135922826Y-93829642D01*
X135919316Y-93853303D01*
X135913504Y-93876507D01*
X135905446Y-93899029D01*
X135895218Y-93920653D01*
X135882921Y-93941170D01*
X135868671Y-93960383D01*
X135852607Y-93978107D01*
X135834883Y-93994171D01*
X135815670Y-94008421D01*
X135795153Y-94020718D01*
X135773529Y-94030946D01*
X135751007Y-94039004D01*
X135727803Y-94044816D01*
X135704142Y-94048326D01*
X135680250Y-94049500D01*
X134767750Y-94049500D01*
X134743858Y-94048326D01*
X134720197Y-94044816D01*
X134696993Y-94039004D01*
X134674471Y-94030946D01*
X134652847Y-94020718D01*
X134632330Y-94008421D01*
X134613117Y-93994171D01*
X134595393Y-93978107D01*
X134579329Y-93960383D01*
X134565079Y-93941170D01*
X134552782Y-93920653D01*
X134542554Y-93899029D01*
X134534496Y-93876507D01*
X134528684Y-93853303D01*
X134525174Y-93829642D01*
X134524000Y-93805750D01*
X134524000Y-93318250D01*
X134525174Y-93294358D01*
X134528684Y-93270697D01*
X134534496Y-93247493D01*
X134542554Y-93224971D01*
X134552782Y-93203347D01*
X134565079Y-93182830D01*
X134579329Y-93163617D01*
X134595393Y-93145893D01*
X134613117Y-93129829D01*
X134632330Y-93115579D01*
X134652847Y-93103282D01*
X134674471Y-93093054D01*
X134696993Y-93084996D01*
X134720197Y-93079184D01*
X134743858Y-93075674D01*
X134767750Y-93074500D01*
X135680250Y-93074500D01*
X135704142Y-93075674D01*
G37*
G36*
X123650642Y-98197174D02*
G01*
X123674303Y-98200684D01*
X123697507Y-98206496D01*
X123720029Y-98214554D01*
X123741653Y-98224782D01*
X123762170Y-98237079D01*
X123781383Y-98251329D01*
X123799107Y-98267393D01*
X123815171Y-98285117D01*
X123829421Y-98304330D01*
X123841718Y-98324847D01*
X123851946Y-98346471D01*
X123860004Y-98368993D01*
X123865816Y-98392197D01*
X123869326Y-98415858D01*
X123870500Y-98439750D01*
X123870500Y-99352250D01*
X123869326Y-99376142D01*
X123865816Y-99399803D01*
X123860004Y-99423007D01*
X123851946Y-99445529D01*
X123841718Y-99467153D01*
X123829421Y-99487670D01*
X123815171Y-99506883D01*
X123799107Y-99524607D01*
X123781383Y-99540671D01*
X123762170Y-99554921D01*
X123741653Y-99567218D01*
X123720029Y-99577446D01*
X123697507Y-99585504D01*
X123674303Y-99591316D01*
X123650642Y-99594826D01*
X123626750Y-99596000D01*
X123139250Y-99596000D01*
X123115358Y-99594826D01*
X123091697Y-99591316D01*
X123068493Y-99585504D01*
X123045971Y-99577446D01*
X123024347Y-99567218D01*
X123003830Y-99554921D01*
X122984617Y-99540671D01*
X122966893Y-99524607D01*
X122950829Y-99506883D01*
X122936579Y-99487670D01*
X122924282Y-99467153D01*
X122914054Y-99445529D01*
X122905996Y-99423007D01*
X122900184Y-99399803D01*
X122896674Y-99376142D01*
X122895500Y-99352250D01*
X122895500Y-98439750D01*
X122896674Y-98415858D01*
X122900184Y-98392197D01*
X122905996Y-98368993D01*
X122914054Y-98346471D01*
X122924282Y-98324847D01*
X122936579Y-98304330D01*
X122950829Y-98285117D01*
X122966893Y-98267393D01*
X122984617Y-98251329D01*
X123003830Y-98237079D01*
X123024347Y-98224782D01*
X123045971Y-98214554D01*
X123068493Y-98206496D01*
X123091697Y-98200684D01*
X123115358Y-98197174D01*
X123139250Y-98196000D01*
X123626750Y-98196000D01*
X123650642Y-98197174D01*
G37*
G36*
X121775642Y-98197174D02*
G01*
X121799303Y-98200684D01*
X121822507Y-98206496D01*
X121845029Y-98214554D01*
X121866653Y-98224782D01*
X121887170Y-98237079D01*
X121906383Y-98251329D01*
X121924107Y-98267393D01*
X121940171Y-98285117D01*
X121954421Y-98304330D01*
X121966718Y-98324847D01*
X121976946Y-98346471D01*
X121985004Y-98368993D01*
X121990816Y-98392197D01*
X121994326Y-98415858D01*
X121995500Y-98439750D01*
X121995500Y-99352250D01*
X121994326Y-99376142D01*
X121990816Y-99399803D01*
X121985004Y-99423007D01*
X121976946Y-99445529D01*
X121966718Y-99467153D01*
X121954421Y-99487670D01*
X121940171Y-99506883D01*
X121924107Y-99524607D01*
X121906383Y-99540671D01*
X121887170Y-99554921D01*
X121866653Y-99567218D01*
X121845029Y-99577446D01*
X121822507Y-99585504D01*
X121799303Y-99591316D01*
X121775642Y-99594826D01*
X121751750Y-99596000D01*
X121264250Y-99596000D01*
X121240358Y-99594826D01*
X121216697Y-99591316D01*
X121193493Y-99585504D01*
X121170971Y-99577446D01*
X121149347Y-99567218D01*
X121128830Y-99554921D01*
X121109617Y-99540671D01*
X121091893Y-99524607D01*
X121075829Y-99506883D01*
X121061579Y-99487670D01*
X121049282Y-99467153D01*
X121039054Y-99445529D01*
X121030996Y-99423007D01*
X121025184Y-99399803D01*
X121021674Y-99376142D01*
X121020500Y-99352250D01*
X121020500Y-98439750D01*
X121021674Y-98415858D01*
X121025184Y-98392197D01*
X121030996Y-98368993D01*
X121039054Y-98346471D01*
X121049282Y-98324847D01*
X121061579Y-98304330D01*
X121075829Y-98285117D01*
X121091893Y-98267393D01*
X121109617Y-98251329D01*
X121128830Y-98237079D01*
X121149347Y-98224782D01*
X121170971Y-98214554D01*
X121193493Y-98206496D01*
X121216697Y-98200684D01*
X121240358Y-98197174D01*
X121264250Y-98196000D01*
X121751750Y-98196000D01*
X121775642Y-98197174D01*
G37*
G36*
X127871642Y-97551174D02*
G01*
X127895303Y-97554684D01*
X127918507Y-97560496D01*
X127941029Y-97568554D01*
X127962653Y-97578782D01*
X127983170Y-97591079D01*
X128002383Y-97605329D01*
X128020107Y-97621393D01*
X128036171Y-97639117D01*
X128050421Y-97658330D01*
X128062718Y-97678847D01*
X128072946Y-97700471D01*
X128081004Y-97722993D01*
X128086816Y-97746197D01*
X128090326Y-97769858D01*
X128091500Y-97793750D01*
X128091500Y-98706250D01*
X128090326Y-98730142D01*
X128086816Y-98753803D01*
X128081004Y-98777007D01*
X128072946Y-98799529D01*
X128062718Y-98821153D01*
X128050421Y-98841670D01*
X128036171Y-98860883D01*
X128020107Y-98878607D01*
X128002383Y-98894671D01*
X127983170Y-98908921D01*
X127962653Y-98921218D01*
X127941029Y-98931446D01*
X127918507Y-98939504D01*
X127895303Y-98945316D01*
X127871642Y-98948826D01*
X127847750Y-98950000D01*
X127360250Y-98950000D01*
X127336358Y-98948826D01*
X127312697Y-98945316D01*
X127289493Y-98939504D01*
X127266971Y-98931446D01*
X127245347Y-98921218D01*
X127224830Y-98908921D01*
X127205617Y-98894671D01*
X127187893Y-98878607D01*
X127171829Y-98860883D01*
X127157579Y-98841670D01*
X127145282Y-98821153D01*
X127135054Y-98799529D01*
X127126996Y-98777007D01*
X127121184Y-98753803D01*
X127117674Y-98730142D01*
X127116500Y-98706250D01*
X127116500Y-97793750D01*
X127117674Y-97769858D01*
X127121184Y-97746197D01*
X127126996Y-97722993D01*
X127135054Y-97700471D01*
X127145282Y-97678847D01*
X127157579Y-97658330D01*
X127171829Y-97639117D01*
X127187893Y-97621393D01*
X127205617Y-97605329D01*
X127224830Y-97591079D01*
X127245347Y-97578782D01*
X127266971Y-97568554D01*
X127289493Y-97560496D01*
X127312697Y-97554684D01*
X127336358Y-97551174D01*
X127360250Y-97550000D01*
X127847750Y-97550000D01*
X127871642Y-97551174D01*
G37*
G36*
X129746642Y-97551174D02*
G01*
X129770303Y-97554684D01*
X129793507Y-97560496D01*
X129816029Y-97568554D01*
X129837653Y-97578782D01*
X129858170Y-97591079D01*
X129877383Y-97605329D01*
X129895107Y-97621393D01*
X129911171Y-97639117D01*
X129925421Y-97658330D01*
X129937718Y-97678847D01*
X129947946Y-97700471D01*
X129956004Y-97722993D01*
X129961816Y-97746197D01*
X129965326Y-97769858D01*
X129966500Y-97793750D01*
X129966500Y-98706250D01*
X129965326Y-98730142D01*
X129961816Y-98753803D01*
X129956004Y-98777007D01*
X129947946Y-98799529D01*
X129937718Y-98821153D01*
X129925421Y-98841670D01*
X129911171Y-98860883D01*
X129895107Y-98878607D01*
X129877383Y-98894671D01*
X129858170Y-98908921D01*
X129837653Y-98921218D01*
X129816029Y-98931446D01*
X129793507Y-98939504D01*
X129770303Y-98945316D01*
X129746642Y-98948826D01*
X129722750Y-98950000D01*
X129235250Y-98950000D01*
X129211358Y-98948826D01*
X129187697Y-98945316D01*
X129164493Y-98939504D01*
X129141971Y-98931446D01*
X129120347Y-98921218D01*
X129099830Y-98908921D01*
X129080617Y-98894671D01*
X129062893Y-98878607D01*
X129046829Y-98860883D01*
X129032579Y-98841670D01*
X129020282Y-98821153D01*
X129010054Y-98799529D01*
X129001996Y-98777007D01*
X128996184Y-98753803D01*
X128992674Y-98730142D01*
X128991500Y-98706250D01*
X128991500Y-97793750D01*
X128992674Y-97769858D01*
X128996184Y-97746197D01*
X129001996Y-97722993D01*
X129010054Y-97700471D01*
X129020282Y-97678847D01*
X129032579Y-97658330D01*
X129046829Y-97639117D01*
X129062893Y-97621393D01*
X129080617Y-97605329D01*
X129099830Y-97591079D01*
X129120347Y-97578782D01*
X129141971Y-97568554D01*
X129164493Y-97560496D01*
X129187697Y-97554684D01*
X129211358Y-97551174D01*
X129235250Y-97550000D01*
X129722750Y-97550000D01*
X129746642Y-97551174D01*
G37*
G36*
X153580142Y-84051174D02*
G01*
X153603803Y-84054684D01*
X153627007Y-84060496D01*
X153649529Y-84068554D01*
X153671153Y-84078782D01*
X153691670Y-84091079D01*
X153710883Y-84105329D01*
X153728607Y-84121393D01*
X153744671Y-84139117D01*
X153758921Y-84158330D01*
X153771218Y-84178847D01*
X153781446Y-84200471D01*
X153789504Y-84222993D01*
X153795316Y-84246197D01*
X153798826Y-84269858D01*
X153800000Y-84293750D01*
X153800000Y-85206250D01*
X153798826Y-85230142D01*
X153795316Y-85253803D01*
X153789504Y-85277007D01*
X153781446Y-85299529D01*
X153771218Y-85321153D01*
X153758921Y-85341670D01*
X153744671Y-85360883D01*
X153728607Y-85378607D01*
X153710883Y-85394671D01*
X153691670Y-85408921D01*
X153671153Y-85421218D01*
X153649529Y-85431446D01*
X153627007Y-85439504D01*
X153603803Y-85445316D01*
X153580142Y-85448826D01*
X153556250Y-85450000D01*
X153068750Y-85450000D01*
X153044858Y-85448826D01*
X153021197Y-85445316D01*
X152997993Y-85439504D01*
X152975471Y-85431446D01*
X152953847Y-85421218D01*
X152933330Y-85408921D01*
X152914117Y-85394671D01*
X152896393Y-85378607D01*
X152880329Y-85360883D01*
X152866079Y-85341670D01*
X152853782Y-85321153D01*
X152843554Y-85299529D01*
X152835496Y-85277007D01*
X152829684Y-85253803D01*
X152826174Y-85230142D01*
X152825000Y-85206250D01*
X152825000Y-84293750D01*
X152826174Y-84269858D01*
X152829684Y-84246197D01*
X152835496Y-84222993D01*
X152843554Y-84200471D01*
X152853782Y-84178847D01*
X152866079Y-84158330D01*
X152880329Y-84139117D01*
X152896393Y-84121393D01*
X152914117Y-84105329D01*
X152933330Y-84091079D01*
X152953847Y-84078782D01*
X152975471Y-84068554D01*
X152997993Y-84060496D01*
X153021197Y-84054684D01*
X153044858Y-84051174D01*
X153068750Y-84050000D01*
X153556250Y-84050000D01*
X153580142Y-84051174D01*
G37*
G36*
X155455142Y-84051174D02*
G01*
X155478803Y-84054684D01*
X155502007Y-84060496D01*
X155524529Y-84068554D01*
X155546153Y-84078782D01*
X155566670Y-84091079D01*
X155585883Y-84105329D01*
X155603607Y-84121393D01*
X155619671Y-84139117D01*
X155633921Y-84158330D01*
X155646218Y-84178847D01*
X155656446Y-84200471D01*
X155664504Y-84222993D01*
X155670316Y-84246197D01*
X155673826Y-84269858D01*
X155675000Y-84293750D01*
X155675000Y-85206250D01*
X155673826Y-85230142D01*
X155670316Y-85253803D01*
X155664504Y-85277007D01*
X155656446Y-85299529D01*
X155646218Y-85321153D01*
X155633921Y-85341670D01*
X155619671Y-85360883D01*
X155603607Y-85378607D01*
X155585883Y-85394671D01*
X155566670Y-85408921D01*
X155546153Y-85421218D01*
X155524529Y-85431446D01*
X155502007Y-85439504D01*
X155478803Y-85445316D01*
X155455142Y-85448826D01*
X155431250Y-85450000D01*
X154943750Y-85450000D01*
X154919858Y-85448826D01*
X154896197Y-85445316D01*
X154872993Y-85439504D01*
X154850471Y-85431446D01*
X154828847Y-85421218D01*
X154808330Y-85408921D01*
X154789117Y-85394671D01*
X154771393Y-85378607D01*
X154755329Y-85360883D01*
X154741079Y-85341670D01*
X154728782Y-85321153D01*
X154718554Y-85299529D01*
X154710496Y-85277007D01*
X154704684Y-85253803D01*
X154701174Y-85230142D01*
X154700000Y-85206250D01*
X154700000Y-84293750D01*
X154701174Y-84269858D01*
X154704684Y-84246197D01*
X154710496Y-84222993D01*
X154718554Y-84200471D01*
X154728782Y-84178847D01*
X154741079Y-84158330D01*
X154755329Y-84139117D01*
X154771393Y-84121393D01*
X154789117Y-84105329D01*
X154808330Y-84091079D01*
X154828847Y-84078782D01*
X154850471Y-84068554D01*
X154872993Y-84060496D01*
X154896197Y-84054684D01*
X154919858Y-84051174D01*
X154943750Y-84050000D01*
X155431250Y-84050000D01*
X155455142Y-84051174D01*
G37*
G36*
X155417642Y-112001174D02*
G01*
X155441303Y-112004684D01*
X155464507Y-112010496D01*
X155487029Y-112018554D01*
X155508653Y-112028782D01*
X155529170Y-112041079D01*
X155548383Y-112055329D01*
X155566107Y-112071393D01*
X155582171Y-112089117D01*
X155596421Y-112108330D01*
X155608718Y-112128847D01*
X155618946Y-112150471D01*
X155627004Y-112172993D01*
X155632816Y-112196197D01*
X155636326Y-112219858D01*
X155637500Y-112243750D01*
X155637500Y-113156250D01*
X155636326Y-113180142D01*
X155632816Y-113203803D01*
X155627004Y-113227007D01*
X155618946Y-113249529D01*
X155608718Y-113271153D01*
X155596421Y-113291670D01*
X155582171Y-113310883D01*
X155566107Y-113328607D01*
X155548383Y-113344671D01*
X155529170Y-113358921D01*
X155508653Y-113371218D01*
X155487029Y-113381446D01*
X155464507Y-113389504D01*
X155441303Y-113395316D01*
X155417642Y-113398826D01*
X155393750Y-113400000D01*
X154906250Y-113400000D01*
X154882358Y-113398826D01*
X154858697Y-113395316D01*
X154835493Y-113389504D01*
X154812971Y-113381446D01*
X154791347Y-113371218D01*
X154770830Y-113358921D01*
X154751617Y-113344671D01*
X154733893Y-113328607D01*
X154717829Y-113310883D01*
X154703579Y-113291670D01*
X154691282Y-113271153D01*
X154681054Y-113249529D01*
X154672996Y-113227007D01*
X154667184Y-113203803D01*
X154663674Y-113180142D01*
X154662500Y-113156250D01*
X154662500Y-112243750D01*
X154663674Y-112219858D01*
X154667184Y-112196197D01*
X154672996Y-112172993D01*
X154681054Y-112150471D01*
X154691282Y-112128847D01*
X154703579Y-112108330D01*
X154717829Y-112089117D01*
X154733893Y-112071393D01*
X154751617Y-112055329D01*
X154770830Y-112041079D01*
X154791347Y-112028782D01*
X154812971Y-112018554D01*
X154835493Y-112010496D01*
X154858697Y-112004684D01*
X154882358Y-112001174D01*
X154906250Y-112000000D01*
X155393750Y-112000000D01*
X155417642Y-112001174D01*
G37*
G36*
X153542642Y-112001174D02*
G01*
X153566303Y-112004684D01*
X153589507Y-112010496D01*
X153612029Y-112018554D01*
X153633653Y-112028782D01*
X153654170Y-112041079D01*
X153673383Y-112055329D01*
X153691107Y-112071393D01*
X153707171Y-112089117D01*
X153721421Y-112108330D01*
X153733718Y-112128847D01*
X153743946Y-112150471D01*
X153752004Y-112172993D01*
X153757816Y-112196197D01*
X153761326Y-112219858D01*
X153762500Y-112243750D01*
X153762500Y-113156250D01*
X153761326Y-113180142D01*
X153757816Y-113203803D01*
X153752004Y-113227007D01*
X153743946Y-113249529D01*
X153733718Y-113271153D01*
X153721421Y-113291670D01*
X153707171Y-113310883D01*
X153691107Y-113328607D01*
X153673383Y-113344671D01*
X153654170Y-113358921D01*
X153633653Y-113371218D01*
X153612029Y-113381446D01*
X153589507Y-113389504D01*
X153566303Y-113395316D01*
X153542642Y-113398826D01*
X153518750Y-113400000D01*
X153031250Y-113400000D01*
X153007358Y-113398826D01*
X152983697Y-113395316D01*
X152960493Y-113389504D01*
X152937971Y-113381446D01*
X152916347Y-113371218D01*
X152895830Y-113358921D01*
X152876617Y-113344671D01*
X152858893Y-113328607D01*
X152842829Y-113310883D01*
X152828579Y-113291670D01*
X152816282Y-113271153D01*
X152806054Y-113249529D01*
X152797996Y-113227007D01*
X152792184Y-113203803D01*
X152788674Y-113180142D01*
X152787500Y-113156250D01*
X152787500Y-112243750D01*
X152788674Y-112219858D01*
X152792184Y-112196197D01*
X152797996Y-112172993D01*
X152806054Y-112150471D01*
X152816282Y-112128847D01*
X152828579Y-112108330D01*
X152842829Y-112089117D01*
X152858893Y-112071393D01*
X152876617Y-112055329D01*
X152895830Y-112041079D01*
X152916347Y-112028782D01*
X152937971Y-112018554D01*
X152960493Y-112010496D01*
X152983697Y-112004684D01*
X153007358Y-112001174D01*
X153031250Y-112000000D01*
X153518750Y-112000000D01*
X153542642Y-112001174D01*
G37*
G36*
X151599504Y-91876204D02*
G01*
X151623773Y-91879804D01*
X151647571Y-91885765D01*
X151670671Y-91894030D01*
X151692849Y-91904520D01*
X151713893Y-91917133D01*
X151733598Y-91931747D01*
X151751777Y-91948223D01*
X151768253Y-91966402D01*
X151782867Y-91986107D01*
X151795480Y-92007151D01*
X151805970Y-92029329D01*
X151814235Y-92052429D01*
X151820196Y-92076227D01*
X151823796Y-92100496D01*
X151825000Y-92125000D01*
X151825000Y-92875000D01*
X151823796Y-92899504D01*
X151820196Y-92923773D01*
X151814235Y-92947571D01*
X151805970Y-92970671D01*
X151795480Y-92992849D01*
X151782867Y-93013893D01*
X151768253Y-93033598D01*
X151751777Y-93051777D01*
X151733598Y-93068253D01*
X151713893Y-93082867D01*
X151692849Y-93095480D01*
X151670671Y-93105970D01*
X151647571Y-93114235D01*
X151623773Y-93120196D01*
X151599504Y-93123796D01*
X151575000Y-93125000D01*
X149425000Y-93125000D01*
X149400496Y-93123796D01*
X149376227Y-93120196D01*
X149352429Y-93114235D01*
X149329329Y-93105970D01*
X149307151Y-93095480D01*
X149286107Y-93082867D01*
X149266402Y-93068253D01*
X149248223Y-93051777D01*
X149231747Y-93033598D01*
X149217133Y-93013893D01*
X149204520Y-92992849D01*
X149194030Y-92970671D01*
X149185765Y-92947571D01*
X149179804Y-92923773D01*
X149176204Y-92899504D01*
X149175000Y-92875000D01*
X149175000Y-92125000D01*
X149176204Y-92100496D01*
X149179804Y-92076227D01*
X149185765Y-92052429D01*
X149194030Y-92029329D01*
X149204520Y-92007151D01*
X149217133Y-91986107D01*
X149231747Y-91966402D01*
X149248223Y-91948223D01*
X149266402Y-91931747D01*
X149286107Y-91917133D01*
X149307151Y-91904520D01*
X149329329Y-91894030D01*
X149352429Y-91885765D01*
X149376227Y-91879804D01*
X149400496Y-91876204D01*
X149425000Y-91875000D01*
X151575000Y-91875000D01*
X151599504Y-91876204D01*
G37*
G36*
X151599504Y-89076204D02*
G01*
X151623773Y-89079804D01*
X151647571Y-89085765D01*
X151670671Y-89094030D01*
X151692849Y-89104520D01*
X151713893Y-89117133D01*
X151733598Y-89131747D01*
X151751777Y-89148223D01*
X151768253Y-89166402D01*
X151782867Y-89186107D01*
X151795480Y-89207151D01*
X151805970Y-89229329D01*
X151814235Y-89252429D01*
X151820196Y-89276227D01*
X151823796Y-89300496D01*
X151825000Y-89325000D01*
X151825000Y-90075000D01*
X151823796Y-90099504D01*
X151820196Y-90123773D01*
X151814235Y-90147571D01*
X151805970Y-90170671D01*
X151795480Y-90192849D01*
X151782867Y-90213893D01*
X151768253Y-90233598D01*
X151751777Y-90251777D01*
X151733598Y-90268253D01*
X151713893Y-90282867D01*
X151692849Y-90295480D01*
X151670671Y-90305970D01*
X151647571Y-90314235D01*
X151623773Y-90320196D01*
X151599504Y-90323796D01*
X151575000Y-90325000D01*
X149425000Y-90325000D01*
X149400496Y-90323796D01*
X149376227Y-90320196D01*
X149352429Y-90314235D01*
X149329329Y-90305970D01*
X149307151Y-90295480D01*
X149286107Y-90282867D01*
X149266402Y-90268253D01*
X149248223Y-90251777D01*
X149231747Y-90233598D01*
X149217133Y-90213893D01*
X149204520Y-90192849D01*
X149194030Y-90170671D01*
X149185765Y-90147571D01*
X149179804Y-90123773D01*
X149176204Y-90099504D01*
X149175000Y-90075000D01*
X149175000Y-89325000D01*
X149176204Y-89300496D01*
X149179804Y-89276227D01*
X149185765Y-89252429D01*
X149194030Y-89229329D01*
X149204520Y-89207151D01*
X149217133Y-89186107D01*
X149231747Y-89166402D01*
X149248223Y-89148223D01*
X149266402Y-89131747D01*
X149286107Y-89117133D01*
X149307151Y-89104520D01*
X149329329Y-89094030D01*
X149352429Y-89085765D01*
X149376227Y-89079804D01*
X149400496Y-89076204D01*
X149425000Y-89075000D01*
X151575000Y-89075000D01*
X151599504Y-89076204D01*
G37*
G36*
X151549504Y-116976204D02*
G01*
X151573773Y-116979804D01*
X151597571Y-116985765D01*
X151620671Y-116994030D01*
X151642849Y-117004520D01*
X151663893Y-117017133D01*
X151683598Y-117031747D01*
X151701777Y-117048223D01*
X151718253Y-117066402D01*
X151732867Y-117086107D01*
X151745480Y-117107151D01*
X151755970Y-117129329D01*
X151764235Y-117152429D01*
X151770196Y-117176227D01*
X151773796Y-117200496D01*
X151775000Y-117225000D01*
X151775000Y-117975000D01*
X151773796Y-117999504D01*
X151770196Y-118023773D01*
X151764235Y-118047571D01*
X151755970Y-118070671D01*
X151745480Y-118092849D01*
X151732867Y-118113893D01*
X151718253Y-118133598D01*
X151701777Y-118151777D01*
X151683598Y-118168253D01*
X151663893Y-118182867D01*
X151642849Y-118195480D01*
X151620671Y-118205970D01*
X151597571Y-118214235D01*
X151573773Y-118220196D01*
X151549504Y-118223796D01*
X151525000Y-118225000D01*
X149375000Y-118225000D01*
X149350496Y-118223796D01*
X149326227Y-118220196D01*
X149302429Y-118214235D01*
X149279329Y-118205970D01*
X149257151Y-118195480D01*
X149236107Y-118182867D01*
X149216402Y-118168253D01*
X149198223Y-118151777D01*
X149181747Y-118133598D01*
X149167133Y-118113893D01*
X149154520Y-118092849D01*
X149144030Y-118070671D01*
X149135765Y-118047571D01*
X149129804Y-118023773D01*
X149126204Y-117999504D01*
X149125000Y-117975000D01*
X149125000Y-117225000D01*
X149126204Y-117200496D01*
X149129804Y-117176227D01*
X149135765Y-117152429D01*
X149144030Y-117129329D01*
X149154520Y-117107151D01*
X149167133Y-117086107D01*
X149181747Y-117066402D01*
X149198223Y-117048223D01*
X149216402Y-117031747D01*
X149236107Y-117017133D01*
X149257151Y-117004520D01*
X149279329Y-116994030D01*
X149302429Y-116985765D01*
X149326227Y-116979804D01*
X149350496Y-116976204D01*
X149375000Y-116975000D01*
X151525000Y-116975000D01*
X151549504Y-116976204D01*
G37*
G36*
X151549504Y-119776204D02*
G01*
X151573773Y-119779804D01*
X151597571Y-119785765D01*
X151620671Y-119794030D01*
X151642849Y-119804520D01*
X151663893Y-119817133D01*
X151683598Y-119831747D01*
X151701777Y-119848223D01*
X151718253Y-119866402D01*
X151732867Y-119886107D01*
X151745480Y-119907151D01*
X151755970Y-119929329D01*
X151764235Y-119952429D01*
X151770196Y-119976227D01*
X151773796Y-120000496D01*
X151775000Y-120025000D01*
X151775000Y-120775000D01*
X151773796Y-120799504D01*
X151770196Y-120823773D01*
X151764235Y-120847571D01*
X151755970Y-120870671D01*
X151745480Y-120892849D01*
X151732867Y-120913893D01*
X151718253Y-120933598D01*
X151701777Y-120951777D01*
X151683598Y-120968253D01*
X151663893Y-120982867D01*
X151642849Y-120995480D01*
X151620671Y-121005970D01*
X151597571Y-121014235D01*
X151573773Y-121020196D01*
X151549504Y-121023796D01*
X151525000Y-121025000D01*
X149375000Y-121025000D01*
X149350496Y-121023796D01*
X149326227Y-121020196D01*
X149302429Y-121014235D01*
X149279329Y-121005970D01*
X149257151Y-120995480D01*
X149236107Y-120982867D01*
X149216402Y-120968253D01*
X149198223Y-120951777D01*
X149181747Y-120933598D01*
X149167133Y-120913893D01*
X149154520Y-120892849D01*
X149144030Y-120870671D01*
X149135765Y-120847571D01*
X149129804Y-120823773D01*
X149126204Y-120799504D01*
X149125000Y-120775000D01*
X149125000Y-120025000D01*
X149126204Y-120000496D01*
X149129804Y-119976227D01*
X149135765Y-119952429D01*
X149144030Y-119929329D01*
X149154520Y-119907151D01*
X149167133Y-119886107D01*
X149181747Y-119866402D01*
X149198223Y-119848223D01*
X149216402Y-119831747D01*
X149236107Y-119817133D01*
X149257151Y-119804520D01*
X149279329Y-119794030D01*
X149302429Y-119785765D01*
X149326227Y-119779804D01*
X149350496Y-119776204D01*
X149375000Y-119775000D01*
X151525000Y-119775000D01*
X151549504Y-119776204D01*
G37*
G36*
X157399504Y-91776204D02*
G01*
X157423773Y-91779804D01*
X157447571Y-91785765D01*
X157470671Y-91794030D01*
X157492849Y-91804520D01*
X157513893Y-91817133D01*
X157533598Y-91831747D01*
X157551777Y-91848223D01*
X157568253Y-91866402D01*
X157582867Y-91886107D01*
X157595480Y-91907151D01*
X157605970Y-91929329D01*
X157614235Y-91952429D01*
X157620196Y-91976227D01*
X157623796Y-92000496D01*
X157625000Y-92025000D01*
X157625000Y-92775000D01*
X157623796Y-92799504D01*
X157620196Y-92823773D01*
X157614235Y-92847571D01*
X157605970Y-92870671D01*
X157595480Y-92892849D01*
X157582867Y-92913893D01*
X157568253Y-92933598D01*
X157551777Y-92951777D01*
X157533598Y-92968253D01*
X157513893Y-92982867D01*
X157492849Y-92995480D01*
X157470671Y-93005970D01*
X157447571Y-93014235D01*
X157423773Y-93020196D01*
X157399504Y-93023796D01*
X157375000Y-93025000D01*
X156125000Y-93025000D01*
X156100496Y-93023796D01*
X156076227Y-93020196D01*
X156052429Y-93014235D01*
X156029329Y-93005970D01*
X156007151Y-92995480D01*
X155986107Y-92982867D01*
X155966402Y-92968253D01*
X155948223Y-92951777D01*
X155931747Y-92933598D01*
X155917133Y-92913893D01*
X155904520Y-92892849D01*
X155894030Y-92870671D01*
X155885765Y-92847571D01*
X155879804Y-92823773D01*
X155876204Y-92799504D01*
X155875000Y-92775000D01*
X155875000Y-92025000D01*
X155876204Y-92000496D01*
X155879804Y-91976227D01*
X155885765Y-91952429D01*
X155894030Y-91929329D01*
X155904520Y-91907151D01*
X155917133Y-91886107D01*
X155931747Y-91866402D01*
X155948223Y-91848223D01*
X155966402Y-91831747D01*
X155986107Y-91817133D01*
X156007151Y-91804520D01*
X156029329Y-91794030D01*
X156052429Y-91785765D01*
X156076227Y-91779804D01*
X156100496Y-91776204D01*
X156125000Y-91775000D01*
X157375000Y-91775000D01*
X157399504Y-91776204D01*
G37*
G36*
X157399504Y-88976204D02*
G01*
X157423773Y-88979804D01*
X157447571Y-88985765D01*
X157470671Y-88994030D01*
X157492849Y-89004520D01*
X157513893Y-89017133D01*
X157533598Y-89031747D01*
X157551777Y-89048223D01*
X157568253Y-89066402D01*
X157582867Y-89086107D01*
X157595480Y-89107151D01*
X157605970Y-89129329D01*
X157614235Y-89152429D01*
X157620196Y-89176227D01*
X157623796Y-89200496D01*
X157625000Y-89225000D01*
X157625000Y-89975000D01*
X157623796Y-89999504D01*
X157620196Y-90023773D01*
X157614235Y-90047571D01*
X157605970Y-90070671D01*
X157595480Y-90092849D01*
X157582867Y-90113893D01*
X157568253Y-90133598D01*
X157551777Y-90151777D01*
X157533598Y-90168253D01*
X157513893Y-90182867D01*
X157492849Y-90195480D01*
X157470671Y-90205970D01*
X157447571Y-90214235D01*
X157423773Y-90220196D01*
X157399504Y-90223796D01*
X157375000Y-90225000D01*
X156125000Y-90225000D01*
X156100496Y-90223796D01*
X156076227Y-90220196D01*
X156052429Y-90214235D01*
X156029329Y-90205970D01*
X156007151Y-90195480D01*
X155986107Y-90182867D01*
X155966402Y-90168253D01*
X155948223Y-90151777D01*
X155931747Y-90133598D01*
X155917133Y-90113893D01*
X155904520Y-90092849D01*
X155894030Y-90070671D01*
X155885765Y-90047571D01*
X155879804Y-90023773D01*
X155876204Y-89999504D01*
X155875000Y-89975000D01*
X155875000Y-89225000D01*
X155876204Y-89200496D01*
X155879804Y-89176227D01*
X155885765Y-89152429D01*
X155894030Y-89129329D01*
X155904520Y-89107151D01*
X155917133Y-89086107D01*
X155931747Y-89066402D01*
X155948223Y-89048223D01*
X155966402Y-89031747D01*
X155986107Y-89017133D01*
X156007151Y-89004520D01*
X156029329Y-88994030D01*
X156052429Y-88985765D01*
X156076227Y-88979804D01*
X156100496Y-88976204D01*
X156125000Y-88975000D01*
X157375000Y-88975000D01*
X157399504Y-88976204D01*
G37*
G36*
X159799504Y-116876204D02*
G01*
X159823773Y-116879804D01*
X159847571Y-116885765D01*
X159870671Y-116894030D01*
X159892849Y-116904520D01*
X159913893Y-116917133D01*
X159933598Y-116931747D01*
X159951777Y-116948223D01*
X159968253Y-116966402D01*
X159982867Y-116986107D01*
X159995480Y-117007151D01*
X160005970Y-117029329D01*
X160014235Y-117052429D01*
X160020196Y-117076227D01*
X160023796Y-117100496D01*
X160025000Y-117125000D01*
X160025000Y-117875000D01*
X160023796Y-117899504D01*
X160020196Y-117923773D01*
X160014235Y-117947571D01*
X160005970Y-117970671D01*
X159995480Y-117992849D01*
X159982867Y-118013893D01*
X159968253Y-118033598D01*
X159951777Y-118051777D01*
X159933598Y-118068253D01*
X159913893Y-118082867D01*
X159892849Y-118095480D01*
X159870671Y-118105970D01*
X159847571Y-118114235D01*
X159823773Y-118120196D01*
X159799504Y-118123796D01*
X159775000Y-118125000D01*
X158525000Y-118125000D01*
X158500496Y-118123796D01*
X158476227Y-118120196D01*
X158452429Y-118114235D01*
X158429329Y-118105970D01*
X158407151Y-118095480D01*
X158386107Y-118082867D01*
X158366402Y-118068253D01*
X158348223Y-118051777D01*
X158331747Y-118033598D01*
X158317133Y-118013893D01*
X158304520Y-117992849D01*
X158294030Y-117970671D01*
X158285765Y-117947571D01*
X158279804Y-117923773D01*
X158276204Y-117899504D01*
X158275000Y-117875000D01*
X158275000Y-117125000D01*
X158276204Y-117100496D01*
X158279804Y-117076227D01*
X158285765Y-117052429D01*
X158294030Y-117029329D01*
X158304520Y-117007151D01*
X158317133Y-116986107D01*
X158331747Y-116966402D01*
X158348223Y-116948223D01*
X158366402Y-116931747D01*
X158386107Y-116917133D01*
X158407151Y-116904520D01*
X158429329Y-116894030D01*
X158452429Y-116885765D01*
X158476227Y-116879804D01*
X158500496Y-116876204D01*
X158525000Y-116875000D01*
X159775000Y-116875000D01*
X159799504Y-116876204D01*
G37*
G36*
X159799504Y-119676204D02*
G01*
X159823773Y-119679804D01*
X159847571Y-119685765D01*
X159870671Y-119694030D01*
X159892849Y-119704520D01*
X159913893Y-119717133D01*
X159933598Y-119731747D01*
X159951777Y-119748223D01*
X159968253Y-119766402D01*
X159982867Y-119786107D01*
X159995480Y-119807151D01*
X160005970Y-119829329D01*
X160014235Y-119852429D01*
X160020196Y-119876227D01*
X160023796Y-119900496D01*
X160025000Y-119925000D01*
X160025000Y-120675000D01*
X160023796Y-120699504D01*
X160020196Y-120723773D01*
X160014235Y-120747571D01*
X160005970Y-120770671D01*
X159995480Y-120792849D01*
X159982867Y-120813893D01*
X159968253Y-120833598D01*
X159951777Y-120851777D01*
X159933598Y-120868253D01*
X159913893Y-120882867D01*
X159892849Y-120895480D01*
X159870671Y-120905970D01*
X159847571Y-120914235D01*
X159823773Y-120920196D01*
X159799504Y-120923796D01*
X159775000Y-120925000D01*
X158525000Y-120925000D01*
X158500496Y-120923796D01*
X158476227Y-120920196D01*
X158452429Y-120914235D01*
X158429329Y-120905970D01*
X158407151Y-120895480D01*
X158386107Y-120882867D01*
X158366402Y-120868253D01*
X158348223Y-120851777D01*
X158331747Y-120833598D01*
X158317133Y-120813893D01*
X158304520Y-120792849D01*
X158294030Y-120770671D01*
X158285765Y-120747571D01*
X158279804Y-120723773D01*
X158276204Y-120699504D01*
X158275000Y-120675000D01*
X158275000Y-119925000D01*
X158276204Y-119900496D01*
X158279804Y-119876227D01*
X158285765Y-119852429D01*
X158294030Y-119829329D01*
X158304520Y-119807151D01*
X158317133Y-119786107D01*
X158331747Y-119766402D01*
X158348223Y-119748223D01*
X158366402Y-119731747D01*
X158386107Y-119717133D01*
X158407151Y-119704520D01*
X158429329Y-119694030D01*
X158452429Y-119685765D01*
X158476227Y-119679804D01*
X158500496Y-119676204D01*
X158525000Y-119675000D01*
X159775000Y-119675000D01*
X159799504Y-119676204D01*
G37*
G36*
X159899504Y-88976204D02*
G01*
X159923773Y-88979804D01*
X159947571Y-88985765D01*
X159970671Y-88994030D01*
X159992849Y-89004520D01*
X160013893Y-89017133D01*
X160033598Y-89031747D01*
X160051777Y-89048223D01*
X160068253Y-89066402D01*
X160082867Y-89086107D01*
X160095480Y-89107151D01*
X160105970Y-89129329D01*
X160114235Y-89152429D01*
X160120196Y-89176227D01*
X160123796Y-89200496D01*
X160125000Y-89225000D01*
X160125000Y-89975000D01*
X160123796Y-89999504D01*
X160120196Y-90023773D01*
X160114235Y-90047571D01*
X160105970Y-90070671D01*
X160095480Y-90092849D01*
X160082867Y-90113893D01*
X160068253Y-90133598D01*
X160051777Y-90151777D01*
X160033598Y-90168253D01*
X160013893Y-90182867D01*
X159992849Y-90195480D01*
X159970671Y-90205970D01*
X159947571Y-90214235D01*
X159923773Y-90220196D01*
X159899504Y-90223796D01*
X159875000Y-90225000D01*
X158625000Y-90225000D01*
X158600496Y-90223796D01*
X158576227Y-90220196D01*
X158552429Y-90214235D01*
X158529329Y-90205970D01*
X158507151Y-90195480D01*
X158486107Y-90182867D01*
X158466402Y-90168253D01*
X158448223Y-90151777D01*
X158431747Y-90133598D01*
X158417133Y-90113893D01*
X158404520Y-90092849D01*
X158394030Y-90070671D01*
X158385765Y-90047571D01*
X158379804Y-90023773D01*
X158376204Y-89999504D01*
X158375000Y-89975000D01*
X158375000Y-89225000D01*
X158376204Y-89200496D01*
X158379804Y-89176227D01*
X158385765Y-89152429D01*
X158394030Y-89129329D01*
X158404520Y-89107151D01*
X158417133Y-89086107D01*
X158431747Y-89066402D01*
X158448223Y-89048223D01*
X158466402Y-89031747D01*
X158486107Y-89017133D01*
X158507151Y-89004520D01*
X158529329Y-88994030D01*
X158552429Y-88985765D01*
X158576227Y-88979804D01*
X158600496Y-88976204D01*
X158625000Y-88975000D01*
X159875000Y-88975000D01*
X159899504Y-88976204D01*
G37*
G36*
X159899504Y-91776204D02*
G01*
X159923773Y-91779804D01*
X159947571Y-91785765D01*
X159970671Y-91794030D01*
X159992849Y-91804520D01*
X160013893Y-91817133D01*
X160033598Y-91831747D01*
X160051777Y-91848223D01*
X160068253Y-91866402D01*
X160082867Y-91886107D01*
X160095480Y-91907151D01*
X160105970Y-91929329D01*
X160114235Y-91952429D01*
X160120196Y-91976227D01*
X160123796Y-92000496D01*
X160125000Y-92025000D01*
X160125000Y-92775000D01*
X160123796Y-92799504D01*
X160120196Y-92823773D01*
X160114235Y-92847571D01*
X160105970Y-92870671D01*
X160095480Y-92892849D01*
X160082867Y-92913893D01*
X160068253Y-92933598D01*
X160051777Y-92951777D01*
X160033598Y-92968253D01*
X160013893Y-92982867D01*
X159992849Y-92995480D01*
X159970671Y-93005970D01*
X159947571Y-93014235D01*
X159923773Y-93020196D01*
X159899504Y-93023796D01*
X159875000Y-93025000D01*
X158625000Y-93025000D01*
X158600496Y-93023796D01*
X158576227Y-93020196D01*
X158552429Y-93014235D01*
X158529329Y-93005970D01*
X158507151Y-92995480D01*
X158486107Y-92982867D01*
X158466402Y-92968253D01*
X158448223Y-92951777D01*
X158431747Y-92933598D01*
X158417133Y-92913893D01*
X158404520Y-92892849D01*
X158394030Y-92870671D01*
X158385765Y-92847571D01*
X158379804Y-92823773D01*
X158376204Y-92799504D01*
X158375000Y-92775000D01*
X158375000Y-92025000D01*
X158376204Y-92000496D01*
X158379804Y-91976227D01*
X158385765Y-91952429D01*
X158394030Y-91929329D01*
X158404520Y-91907151D01*
X158417133Y-91886107D01*
X158431747Y-91866402D01*
X158448223Y-91848223D01*
X158466402Y-91831747D01*
X158486107Y-91817133D01*
X158507151Y-91804520D01*
X158529329Y-91794030D01*
X158552429Y-91785765D01*
X158576227Y-91779804D01*
X158600496Y-91776204D01*
X158625000Y-91775000D01*
X159875000Y-91775000D01*
X159899504Y-91776204D01*
G37*
G36*
X157399504Y-116876204D02*
G01*
X157423773Y-116879804D01*
X157447571Y-116885765D01*
X157470671Y-116894030D01*
X157492849Y-116904520D01*
X157513893Y-116917133D01*
X157533598Y-116931747D01*
X157551777Y-116948223D01*
X157568253Y-116966402D01*
X157582867Y-116986107D01*
X157595480Y-117007151D01*
X157605970Y-117029329D01*
X157614235Y-117052429D01*
X157620196Y-117076227D01*
X157623796Y-117100496D01*
X157625000Y-117125000D01*
X157625000Y-117875000D01*
X157623796Y-117899504D01*
X157620196Y-117923773D01*
X157614235Y-117947571D01*
X157605970Y-117970671D01*
X157595480Y-117992849D01*
X157582867Y-118013893D01*
X157568253Y-118033598D01*
X157551777Y-118051777D01*
X157533598Y-118068253D01*
X157513893Y-118082867D01*
X157492849Y-118095480D01*
X157470671Y-118105970D01*
X157447571Y-118114235D01*
X157423773Y-118120196D01*
X157399504Y-118123796D01*
X157375000Y-118125000D01*
X156125000Y-118125000D01*
X156100496Y-118123796D01*
X156076227Y-118120196D01*
X156052429Y-118114235D01*
X156029329Y-118105970D01*
X156007151Y-118095480D01*
X155986107Y-118082867D01*
X155966402Y-118068253D01*
X155948223Y-118051777D01*
X155931747Y-118033598D01*
X155917133Y-118013893D01*
X155904520Y-117992849D01*
X155894030Y-117970671D01*
X155885765Y-117947571D01*
X155879804Y-117923773D01*
X155876204Y-117899504D01*
X155875000Y-117875000D01*
X155875000Y-117125000D01*
X155876204Y-117100496D01*
X155879804Y-117076227D01*
X155885765Y-117052429D01*
X155894030Y-117029329D01*
X155904520Y-117007151D01*
X155917133Y-116986107D01*
X155931747Y-116966402D01*
X155948223Y-116948223D01*
X155966402Y-116931747D01*
X155986107Y-116917133D01*
X156007151Y-116904520D01*
X156029329Y-116894030D01*
X156052429Y-116885765D01*
X156076227Y-116879804D01*
X156100496Y-116876204D01*
X156125000Y-116875000D01*
X157375000Y-116875000D01*
X157399504Y-116876204D01*
G37*
G36*
X157399504Y-119676204D02*
G01*
X157423773Y-119679804D01*
X157447571Y-119685765D01*
X157470671Y-119694030D01*
X157492849Y-119704520D01*
X157513893Y-119717133D01*
X157533598Y-119731747D01*
X157551777Y-119748223D01*
X157568253Y-119766402D01*
X157582867Y-119786107D01*
X157595480Y-119807151D01*
X157605970Y-119829329D01*
X157614235Y-119852429D01*
X157620196Y-119876227D01*
X157623796Y-119900496D01*
X157625000Y-119925000D01*
X157625000Y-120675000D01*
X157623796Y-120699504D01*
X157620196Y-120723773D01*
X157614235Y-120747571D01*
X157605970Y-120770671D01*
X157595480Y-120792849D01*
X157582867Y-120813893D01*
X157568253Y-120833598D01*
X157551777Y-120851777D01*
X157533598Y-120868253D01*
X157513893Y-120882867D01*
X157492849Y-120895480D01*
X157470671Y-120905970D01*
X157447571Y-120914235D01*
X157423773Y-120920196D01*
X157399504Y-120923796D01*
X157375000Y-120925000D01*
X156125000Y-120925000D01*
X156100496Y-120923796D01*
X156076227Y-120920196D01*
X156052429Y-120914235D01*
X156029329Y-120905970D01*
X156007151Y-120895480D01*
X155986107Y-120882867D01*
X155966402Y-120868253D01*
X155948223Y-120851777D01*
X155931747Y-120833598D01*
X155917133Y-120813893D01*
X155904520Y-120792849D01*
X155894030Y-120770671D01*
X155885765Y-120747571D01*
X155879804Y-120723773D01*
X155876204Y-120699504D01*
X155875000Y-120675000D01*
X155875000Y-119925000D01*
X155876204Y-119900496D01*
X155879804Y-119876227D01*
X155885765Y-119852429D01*
X155894030Y-119829329D01*
X155904520Y-119807151D01*
X155917133Y-119786107D01*
X155931747Y-119766402D01*
X155948223Y-119748223D01*
X155966402Y-119731747D01*
X155986107Y-119717133D01*
X156007151Y-119704520D01*
X156029329Y-119694030D01*
X156052429Y-119685765D01*
X156076227Y-119679804D01*
X156100496Y-119676204D01*
X156125000Y-119675000D01*
X157375000Y-119675000D01*
X157399504Y-119676204D01*
G37*
G36*
X163642642Y-87301174D02*
G01*
X163666303Y-87304684D01*
X163689507Y-87310496D01*
X163712029Y-87318554D01*
X163733653Y-87328782D01*
X163754170Y-87341079D01*
X163773383Y-87355329D01*
X163791107Y-87371393D01*
X163807171Y-87389117D01*
X163821421Y-87408330D01*
X163833718Y-87428847D01*
X163843946Y-87450471D01*
X163852004Y-87472993D01*
X163857816Y-87496197D01*
X163861326Y-87519858D01*
X163862500Y-87543750D01*
X163862500Y-88456250D01*
X163861326Y-88480142D01*
X163857816Y-88503803D01*
X163852004Y-88527007D01*
X163843946Y-88549529D01*
X163833718Y-88571153D01*
X163821421Y-88591670D01*
X163807171Y-88610883D01*
X163791107Y-88628607D01*
X163773383Y-88644671D01*
X163754170Y-88658921D01*
X163733653Y-88671218D01*
X163712029Y-88681446D01*
X163689507Y-88689504D01*
X163666303Y-88695316D01*
X163642642Y-88698826D01*
X163618750Y-88700000D01*
X163131250Y-88700000D01*
X163107358Y-88698826D01*
X163083697Y-88695316D01*
X163060493Y-88689504D01*
X163037971Y-88681446D01*
X163016347Y-88671218D01*
X162995830Y-88658921D01*
X162976617Y-88644671D01*
X162958893Y-88628607D01*
X162942829Y-88610883D01*
X162928579Y-88591670D01*
X162916282Y-88571153D01*
X162906054Y-88549529D01*
X162897996Y-88527007D01*
X162892184Y-88503803D01*
X162888674Y-88480142D01*
X162887500Y-88456250D01*
X162887500Y-87543750D01*
X162888674Y-87519858D01*
X162892184Y-87496197D01*
X162897996Y-87472993D01*
X162906054Y-87450471D01*
X162916282Y-87428847D01*
X162928579Y-87408330D01*
X162942829Y-87389117D01*
X162958893Y-87371393D01*
X162976617Y-87355329D01*
X162995830Y-87341079D01*
X163016347Y-87328782D01*
X163037971Y-87318554D01*
X163060493Y-87310496D01*
X163083697Y-87304684D01*
X163107358Y-87301174D01*
X163131250Y-87300000D01*
X163618750Y-87300000D01*
X163642642Y-87301174D01*
G37*
G36*
X161767642Y-87301174D02*
G01*
X161791303Y-87304684D01*
X161814507Y-87310496D01*
X161837029Y-87318554D01*
X161858653Y-87328782D01*
X161879170Y-87341079D01*
X161898383Y-87355329D01*
X161916107Y-87371393D01*
X161932171Y-87389117D01*
X161946421Y-87408330D01*
X161958718Y-87428847D01*
X161968946Y-87450471D01*
X161977004Y-87472993D01*
X161982816Y-87496197D01*
X161986326Y-87519858D01*
X161987500Y-87543750D01*
X161987500Y-88456250D01*
X161986326Y-88480142D01*
X161982816Y-88503803D01*
X161977004Y-88527007D01*
X161968946Y-88549529D01*
X161958718Y-88571153D01*
X161946421Y-88591670D01*
X161932171Y-88610883D01*
X161916107Y-88628607D01*
X161898383Y-88644671D01*
X161879170Y-88658921D01*
X161858653Y-88671218D01*
X161837029Y-88681446D01*
X161814507Y-88689504D01*
X161791303Y-88695316D01*
X161767642Y-88698826D01*
X161743750Y-88700000D01*
X161256250Y-88700000D01*
X161232358Y-88698826D01*
X161208697Y-88695316D01*
X161185493Y-88689504D01*
X161162971Y-88681446D01*
X161141347Y-88671218D01*
X161120830Y-88658921D01*
X161101617Y-88644671D01*
X161083893Y-88628607D01*
X161067829Y-88610883D01*
X161053579Y-88591670D01*
X161041282Y-88571153D01*
X161031054Y-88549529D01*
X161022996Y-88527007D01*
X161017184Y-88503803D01*
X161013674Y-88480142D01*
X161012500Y-88456250D01*
X161012500Y-87543750D01*
X161013674Y-87519858D01*
X161017184Y-87496197D01*
X161022996Y-87472993D01*
X161031054Y-87450471D01*
X161041282Y-87428847D01*
X161053579Y-87408330D01*
X161067829Y-87389117D01*
X161083893Y-87371393D01*
X161101617Y-87355329D01*
X161120830Y-87341079D01*
X161141347Y-87328782D01*
X161162971Y-87318554D01*
X161185493Y-87310496D01*
X161208697Y-87304684D01*
X161232358Y-87301174D01*
X161256250Y-87300000D01*
X161743750Y-87300000D01*
X161767642Y-87301174D01*
G37*
G36*
X162080142Y-93801174D02*
G01*
X162103803Y-93804684D01*
X162127007Y-93810496D01*
X162149529Y-93818554D01*
X162171153Y-93828782D01*
X162191670Y-93841079D01*
X162210883Y-93855329D01*
X162228607Y-93871393D01*
X162244671Y-93889117D01*
X162258921Y-93908330D01*
X162271218Y-93928847D01*
X162281446Y-93950471D01*
X162289504Y-93972993D01*
X162295316Y-93996197D01*
X162298826Y-94019858D01*
X162300000Y-94043750D01*
X162300000Y-94956250D01*
X162298826Y-94980142D01*
X162295316Y-95003803D01*
X162289504Y-95027007D01*
X162281446Y-95049529D01*
X162271218Y-95071153D01*
X162258921Y-95091670D01*
X162244671Y-95110883D01*
X162228607Y-95128607D01*
X162210883Y-95144671D01*
X162191670Y-95158921D01*
X162171153Y-95171218D01*
X162149529Y-95181446D01*
X162127007Y-95189504D01*
X162103803Y-95195316D01*
X162080142Y-95198826D01*
X162056250Y-95200000D01*
X161568750Y-95200000D01*
X161544858Y-95198826D01*
X161521197Y-95195316D01*
X161497993Y-95189504D01*
X161475471Y-95181446D01*
X161453847Y-95171218D01*
X161433330Y-95158921D01*
X161414117Y-95144671D01*
X161396393Y-95128607D01*
X161380329Y-95110883D01*
X161366079Y-95091670D01*
X161353782Y-95071153D01*
X161343554Y-95049529D01*
X161335496Y-95027007D01*
X161329684Y-95003803D01*
X161326174Y-94980142D01*
X161325000Y-94956250D01*
X161325000Y-94043750D01*
X161326174Y-94019858D01*
X161329684Y-93996197D01*
X161335496Y-93972993D01*
X161343554Y-93950471D01*
X161353782Y-93928847D01*
X161366079Y-93908330D01*
X161380329Y-93889117D01*
X161396393Y-93871393D01*
X161414117Y-93855329D01*
X161433330Y-93841079D01*
X161453847Y-93828782D01*
X161475471Y-93818554D01*
X161497993Y-93810496D01*
X161521197Y-93804684D01*
X161544858Y-93801174D01*
X161568750Y-93800000D01*
X162056250Y-93800000D01*
X162080142Y-93801174D01*
G37*
G36*
X163955142Y-93801174D02*
G01*
X163978803Y-93804684D01*
X164002007Y-93810496D01*
X164024529Y-93818554D01*
X164046153Y-93828782D01*
X164066670Y-93841079D01*
X164085883Y-93855329D01*
X164103607Y-93871393D01*
X164119671Y-93889117D01*
X164133921Y-93908330D01*
X164146218Y-93928847D01*
X164156446Y-93950471D01*
X164164504Y-93972993D01*
X164170316Y-93996197D01*
X164173826Y-94019858D01*
X164175000Y-94043750D01*
X164175000Y-94956250D01*
X164173826Y-94980142D01*
X164170316Y-95003803D01*
X164164504Y-95027007D01*
X164156446Y-95049529D01*
X164146218Y-95071153D01*
X164133921Y-95091670D01*
X164119671Y-95110883D01*
X164103607Y-95128607D01*
X164085883Y-95144671D01*
X164066670Y-95158921D01*
X164046153Y-95171218D01*
X164024529Y-95181446D01*
X164002007Y-95189504D01*
X163978803Y-95195316D01*
X163955142Y-95198826D01*
X163931250Y-95200000D01*
X163443750Y-95200000D01*
X163419858Y-95198826D01*
X163396197Y-95195316D01*
X163372993Y-95189504D01*
X163350471Y-95181446D01*
X163328847Y-95171218D01*
X163308330Y-95158921D01*
X163289117Y-95144671D01*
X163271393Y-95128607D01*
X163255329Y-95110883D01*
X163241079Y-95091670D01*
X163228782Y-95071153D01*
X163218554Y-95049529D01*
X163210496Y-95027007D01*
X163204684Y-95003803D01*
X163201174Y-94980142D01*
X163200000Y-94956250D01*
X163200000Y-94043750D01*
X163201174Y-94019858D01*
X163204684Y-93996197D01*
X163210496Y-93972993D01*
X163218554Y-93950471D01*
X163228782Y-93928847D01*
X163241079Y-93908330D01*
X163255329Y-93889117D01*
X163271393Y-93871393D01*
X163289117Y-93855329D01*
X163308330Y-93841079D01*
X163328847Y-93828782D01*
X163350471Y-93818554D01*
X163372993Y-93810496D01*
X163396197Y-93804684D01*
X163419858Y-93801174D01*
X163443750Y-93800000D01*
X163931250Y-93800000D01*
X163955142Y-93801174D01*
G37*
G36*
X163592642Y-113201174D02*
G01*
X163616303Y-113204684D01*
X163639507Y-113210496D01*
X163662029Y-113218554D01*
X163683653Y-113228782D01*
X163704170Y-113241079D01*
X163723383Y-113255329D01*
X163741107Y-113271393D01*
X163757171Y-113289117D01*
X163771421Y-113308330D01*
X163783718Y-113328847D01*
X163793946Y-113350471D01*
X163802004Y-113372993D01*
X163807816Y-113396197D01*
X163811326Y-113419858D01*
X163812500Y-113443750D01*
X163812500Y-114356250D01*
X163811326Y-114380142D01*
X163807816Y-114403803D01*
X163802004Y-114427007D01*
X163793946Y-114449529D01*
X163783718Y-114471153D01*
X163771421Y-114491670D01*
X163757171Y-114510883D01*
X163741107Y-114528607D01*
X163723383Y-114544671D01*
X163704170Y-114558921D01*
X163683653Y-114571218D01*
X163662029Y-114581446D01*
X163639507Y-114589504D01*
X163616303Y-114595316D01*
X163592642Y-114598826D01*
X163568750Y-114600000D01*
X163081250Y-114600000D01*
X163057358Y-114598826D01*
X163033697Y-114595316D01*
X163010493Y-114589504D01*
X162987971Y-114581446D01*
X162966347Y-114571218D01*
X162945830Y-114558921D01*
X162926617Y-114544671D01*
X162908893Y-114528607D01*
X162892829Y-114510883D01*
X162878579Y-114491670D01*
X162866282Y-114471153D01*
X162856054Y-114449529D01*
X162847996Y-114427007D01*
X162842184Y-114403803D01*
X162838674Y-114380142D01*
X162837500Y-114356250D01*
X162837500Y-113443750D01*
X162838674Y-113419858D01*
X162842184Y-113396197D01*
X162847996Y-113372993D01*
X162856054Y-113350471D01*
X162866282Y-113328847D01*
X162878579Y-113308330D01*
X162892829Y-113289117D01*
X162908893Y-113271393D01*
X162926617Y-113255329D01*
X162945830Y-113241079D01*
X162966347Y-113228782D01*
X162987971Y-113218554D01*
X163010493Y-113210496D01*
X163033697Y-113204684D01*
X163057358Y-113201174D01*
X163081250Y-113200000D01*
X163568750Y-113200000D01*
X163592642Y-113201174D01*
G37*
G36*
X161717642Y-113201174D02*
G01*
X161741303Y-113204684D01*
X161764507Y-113210496D01*
X161787029Y-113218554D01*
X161808653Y-113228782D01*
X161829170Y-113241079D01*
X161848383Y-113255329D01*
X161866107Y-113271393D01*
X161882171Y-113289117D01*
X161896421Y-113308330D01*
X161908718Y-113328847D01*
X161918946Y-113350471D01*
X161927004Y-113372993D01*
X161932816Y-113396197D01*
X161936326Y-113419858D01*
X161937500Y-113443750D01*
X161937500Y-114356250D01*
X161936326Y-114380142D01*
X161932816Y-114403803D01*
X161927004Y-114427007D01*
X161918946Y-114449529D01*
X161908718Y-114471153D01*
X161896421Y-114491670D01*
X161882171Y-114510883D01*
X161866107Y-114528607D01*
X161848383Y-114544671D01*
X161829170Y-114558921D01*
X161808653Y-114571218D01*
X161787029Y-114581446D01*
X161764507Y-114589504D01*
X161741303Y-114595316D01*
X161717642Y-114598826D01*
X161693750Y-114600000D01*
X161206250Y-114600000D01*
X161182358Y-114598826D01*
X161158697Y-114595316D01*
X161135493Y-114589504D01*
X161112971Y-114581446D01*
X161091347Y-114571218D01*
X161070830Y-114558921D01*
X161051617Y-114544671D01*
X161033893Y-114528607D01*
X161017829Y-114510883D01*
X161003579Y-114491670D01*
X160991282Y-114471153D01*
X160981054Y-114449529D01*
X160972996Y-114427007D01*
X160967184Y-114403803D01*
X160963674Y-114380142D01*
X160962500Y-114356250D01*
X160962500Y-113443750D01*
X160963674Y-113419858D01*
X160967184Y-113396197D01*
X160972996Y-113372993D01*
X160981054Y-113350471D01*
X160991282Y-113328847D01*
X161003579Y-113308330D01*
X161017829Y-113289117D01*
X161033893Y-113271393D01*
X161051617Y-113255329D01*
X161070830Y-113241079D01*
X161091347Y-113228782D01*
X161112971Y-113218554D01*
X161135493Y-113210496D01*
X161158697Y-113204684D01*
X161182358Y-113201174D01*
X161206250Y-113200000D01*
X161693750Y-113200000D01*
X161717642Y-113201174D01*
G37*
G36*
X163892642Y-121701174D02*
G01*
X163916303Y-121704684D01*
X163939507Y-121710496D01*
X163962029Y-121718554D01*
X163983653Y-121728782D01*
X164004170Y-121741079D01*
X164023383Y-121755329D01*
X164041107Y-121771393D01*
X164057171Y-121789117D01*
X164071421Y-121808330D01*
X164083718Y-121828847D01*
X164093946Y-121850471D01*
X164102004Y-121872993D01*
X164107816Y-121896197D01*
X164111326Y-121919858D01*
X164112500Y-121943750D01*
X164112500Y-122856250D01*
X164111326Y-122880142D01*
X164107816Y-122903803D01*
X164102004Y-122927007D01*
X164093946Y-122949529D01*
X164083718Y-122971153D01*
X164071421Y-122991670D01*
X164057171Y-123010883D01*
X164041107Y-123028607D01*
X164023383Y-123044671D01*
X164004170Y-123058921D01*
X163983653Y-123071218D01*
X163962029Y-123081446D01*
X163939507Y-123089504D01*
X163916303Y-123095316D01*
X163892642Y-123098826D01*
X163868750Y-123100000D01*
X163381250Y-123100000D01*
X163357358Y-123098826D01*
X163333697Y-123095316D01*
X163310493Y-123089504D01*
X163287971Y-123081446D01*
X163266347Y-123071218D01*
X163245830Y-123058921D01*
X163226617Y-123044671D01*
X163208893Y-123028607D01*
X163192829Y-123010883D01*
X163178579Y-122991670D01*
X163166282Y-122971153D01*
X163156054Y-122949529D01*
X163147996Y-122927007D01*
X163142184Y-122903803D01*
X163138674Y-122880142D01*
X163137500Y-122856250D01*
X163137500Y-121943750D01*
X163138674Y-121919858D01*
X163142184Y-121896197D01*
X163147996Y-121872993D01*
X163156054Y-121850471D01*
X163166282Y-121828847D01*
X163178579Y-121808330D01*
X163192829Y-121789117D01*
X163208893Y-121771393D01*
X163226617Y-121755329D01*
X163245830Y-121741079D01*
X163266347Y-121728782D01*
X163287971Y-121718554D01*
X163310493Y-121710496D01*
X163333697Y-121704684D01*
X163357358Y-121701174D01*
X163381250Y-121700000D01*
X163868750Y-121700000D01*
X163892642Y-121701174D01*
G37*
G36*
X162017642Y-121701174D02*
G01*
X162041303Y-121704684D01*
X162064507Y-121710496D01*
X162087029Y-121718554D01*
X162108653Y-121728782D01*
X162129170Y-121741079D01*
X162148383Y-121755329D01*
X162166107Y-121771393D01*
X162182171Y-121789117D01*
X162196421Y-121808330D01*
X162208718Y-121828847D01*
X162218946Y-121850471D01*
X162227004Y-121872993D01*
X162232816Y-121896197D01*
X162236326Y-121919858D01*
X162237500Y-121943750D01*
X162237500Y-122856250D01*
X162236326Y-122880142D01*
X162232816Y-122903803D01*
X162227004Y-122927007D01*
X162218946Y-122949529D01*
X162208718Y-122971153D01*
X162196421Y-122991670D01*
X162182171Y-123010883D01*
X162166107Y-123028607D01*
X162148383Y-123044671D01*
X162129170Y-123058921D01*
X162108653Y-123071218D01*
X162087029Y-123081446D01*
X162064507Y-123089504D01*
X162041303Y-123095316D01*
X162017642Y-123098826D01*
X161993750Y-123100000D01*
X161506250Y-123100000D01*
X161482358Y-123098826D01*
X161458697Y-123095316D01*
X161435493Y-123089504D01*
X161412971Y-123081446D01*
X161391347Y-123071218D01*
X161370830Y-123058921D01*
X161351617Y-123044671D01*
X161333893Y-123028607D01*
X161317829Y-123010883D01*
X161303579Y-122991670D01*
X161291282Y-122971153D01*
X161281054Y-122949529D01*
X161272996Y-122927007D01*
X161267184Y-122903803D01*
X161263674Y-122880142D01*
X161262500Y-122856250D01*
X161262500Y-121943750D01*
X161263674Y-121919858D01*
X161267184Y-121896197D01*
X161272996Y-121872993D01*
X161281054Y-121850471D01*
X161291282Y-121828847D01*
X161303579Y-121808330D01*
X161317829Y-121789117D01*
X161333893Y-121771393D01*
X161351617Y-121755329D01*
X161370830Y-121741079D01*
X161391347Y-121728782D01*
X161412971Y-121718554D01*
X161435493Y-121710496D01*
X161458697Y-121704684D01*
X161482358Y-121701174D01*
X161506250Y-121700000D01*
X161993750Y-121700000D01*
X162017642Y-121701174D01*
G37*
D16*
X132176000Y-98388000D03*
X132176000Y-94388000D03*
D17*
X132050000Y-101182000D03*
X135350000Y-101182000D03*
X149600000Y-87250000D03*
X152900000Y-87250000D03*
X152850000Y-115150000D03*
X149550000Y-115150000D03*
X164650000Y-92250000D03*
X161350000Y-92250000D03*
X161250000Y-120200000D03*
X164550000Y-120200000D03*
D18*
X161250000Y-90000000D03*
X163350000Y-90000000D03*
X163300000Y-117900000D03*
X161200000Y-117900000D03*
D10*
G36*
X133337504Y-90656204D02*
G01*
X133361773Y-90659804D01*
X133385571Y-90665765D01*
X133408671Y-90674030D01*
X133430849Y-90684520D01*
X133451893Y-90697133D01*
X133471598Y-90711747D01*
X133489777Y-90728223D01*
X133506253Y-90746402D01*
X133520867Y-90766107D01*
X133533480Y-90787151D01*
X133543970Y-90809329D01*
X133552235Y-90832429D01*
X133558196Y-90856227D01*
X133561796Y-90880496D01*
X133563000Y-90905000D01*
X133563000Y-92155000D01*
X133561796Y-92179504D01*
X133558196Y-92203773D01*
X133552235Y-92227571D01*
X133543970Y-92250671D01*
X133533480Y-92272849D01*
X133520867Y-92293893D01*
X133506253Y-92313598D01*
X133489777Y-92331777D01*
X133471598Y-92348253D01*
X133451893Y-92362867D01*
X133430849Y-92375480D01*
X133408671Y-92385970D01*
X133385571Y-92394235D01*
X133361773Y-92400196D01*
X133337504Y-92403796D01*
X133313000Y-92405000D01*
X132563000Y-92405000D01*
X132538496Y-92403796D01*
X132514227Y-92400196D01*
X132490429Y-92394235D01*
X132467329Y-92385970D01*
X132445151Y-92375480D01*
X132424107Y-92362867D01*
X132404402Y-92348253D01*
X132386223Y-92331777D01*
X132369747Y-92313598D01*
X132355133Y-92293893D01*
X132342520Y-92272849D01*
X132332030Y-92250671D01*
X132323765Y-92227571D01*
X132317804Y-92203773D01*
X132314204Y-92179504D01*
X132313000Y-92155000D01*
X132313000Y-90905000D01*
X132314204Y-90880496D01*
X132317804Y-90856227D01*
X132323765Y-90832429D01*
X132332030Y-90809329D01*
X132342520Y-90787151D01*
X132355133Y-90766107D01*
X132369747Y-90746402D01*
X132386223Y-90728223D01*
X132404402Y-90711747D01*
X132424107Y-90697133D01*
X132445151Y-90684520D01*
X132467329Y-90674030D01*
X132490429Y-90665765D01*
X132514227Y-90659804D01*
X132538496Y-90656204D01*
X132563000Y-90655000D01*
X133313000Y-90655000D01*
X133337504Y-90656204D01*
G37*
G36*
X130537504Y-90656204D02*
G01*
X130561773Y-90659804D01*
X130585571Y-90665765D01*
X130608671Y-90674030D01*
X130630849Y-90684520D01*
X130651893Y-90697133D01*
X130671598Y-90711747D01*
X130689777Y-90728223D01*
X130706253Y-90746402D01*
X130720867Y-90766107D01*
X130733480Y-90787151D01*
X130743970Y-90809329D01*
X130752235Y-90832429D01*
X130758196Y-90856227D01*
X130761796Y-90880496D01*
X130763000Y-90905000D01*
X130763000Y-92155000D01*
X130761796Y-92179504D01*
X130758196Y-92203773D01*
X130752235Y-92227571D01*
X130743970Y-92250671D01*
X130733480Y-92272849D01*
X130720867Y-92293893D01*
X130706253Y-92313598D01*
X130689777Y-92331777D01*
X130671598Y-92348253D01*
X130651893Y-92362867D01*
X130630849Y-92375480D01*
X130608671Y-92385970D01*
X130585571Y-92394235D01*
X130561773Y-92400196D01*
X130537504Y-92403796D01*
X130513000Y-92405000D01*
X129763000Y-92405000D01*
X129738496Y-92403796D01*
X129714227Y-92400196D01*
X129690429Y-92394235D01*
X129667329Y-92385970D01*
X129645151Y-92375480D01*
X129624107Y-92362867D01*
X129604402Y-92348253D01*
X129586223Y-92331777D01*
X129569747Y-92313598D01*
X129555133Y-92293893D01*
X129542520Y-92272849D01*
X129532030Y-92250671D01*
X129523765Y-92227571D01*
X129517804Y-92203773D01*
X129514204Y-92179504D01*
X129513000Y-92155000D01*
X129513000Y-90905000D01*
X129514204Y-90880496D01*
X129517804Y-90856227D01*
X129523765Y-90832429D01*
X129532030Y-90809329D01*
X129542520Y-90787151D01*
X129555133Y-90766107D01*
X129569747Y-90746402D01*
X129586223Y-90728223D01*
X129604402Y-90711747D01*
X129624107Y-90697133D01*
X129645151Y-90684520D01*
X129667329Y-90674030D01*
X129690429Y-90665765D01*
X129714227Y-90659804D01*
X129738496Y-90656204D01*
X129763000Y-90655000D01*
X130513000Y-90655000D01*
X130537504Y-90656204D01*
G37*
G36*
X153240191Y-89026053D02*
G01*
X153261426Y-89029203D01*
X153282250Y-89034419D01*
X153302462Y-89041651D01*
X153321868Y-89050830D01*
X153340281Y-89061866D01*
X153357524Y-89074654D01*
X153373430Y-89089070D01*
X153387846Y-89104976D01*
X153400634Y-89122219D01*
X153411670Y-89140632D01*
X153420849Y-89160038D01*
X153428081Y-89180250D01*
X153433297Y-89201074D01*
X153436447Y-89222309D01*
X153437500Y-89243750D01*
X153437500Y-89756250D01*
X153436447Y-89777691D01*
X153433297Y-89798926D01*
X153428081Y-89819750D01*
X153420849Y-89839962D01*
X153411670Y-89859368D01*
X153400634Y-89877781D01*
X153387846Y-89895024D01*
X153373430Y-89910930D01*
X153357524Y-89925346D01*
X153340281Y-89938134D01*
X153321868Y-89949170D01*
X153302462Y-89958349D01*
X153282250Y-89965581D01*
X153261426Y-89970797D01*
X153240191Y-89973947D01*
X153218750Y-89975000D01*
X152781250Y-89975000D01*
X152759809Y-89973947D01*
X152738574Y-89970797D01*
X152717750Y-89965581D01*
X152697538Y-89958349D01*
X152678132Y-89949170D01*
X152659719Y-89938134D01*
X152642476Y-89925346D01*
X152626570Y-89910930D01*
X152612154Y-89895024D01*
X152599366Y-89877781D01*
X152588330Y-89859368D01*
X152579151Y-89839962D01*
X152571919Y-89819750D01*
X152566703Y-89798926D01*
X152563553Y-89777691D01*
X152562500Y-89756250D01*
X152562500Y-89243750D01*
X152563553Y-89222309D01*
X152566703Y-89201074D01*
X152571919Y-89180250D01*
X152579151Y-89160038D01*
X152588330Y-89140632D01*
X152599366Y-89122219D01*
X152612154Y-89104976D01*
X152626570Y-89089070D01*
X152642476Y-89074654D01*
X152659719Y-89061866D01*
X152678132Y-89050830D01*
X152697538Y-89041651D01*
X152717750Y-89034419D01*
X152738574Y-89029203D01*
X152759809Y-89026053D01*
X152781250Y-89025000D01*
X153218750Y-89025000D01*
X153240191Y-89026053D01*
G37*
G36*
X154815191Y-89026053D02*
G01*
X154836426Y-89029203D01*
X154857250Y-89034419D01*
X154877462Y-89041651D01*
X154896868Y-89050830D01*
X154915281Y-89061866D01*
X154932524Y-89074654D01*
X154948430Y-89089070D01*
X154962846Y-89104976D01*
X154975634Y-89122219D01*
X154986670Y-89140632D01*
X154995849Y-89160038D01*
X155003081Y-89180250D01*
X155008297Y-89201074D01*
X155011447Y-89222309D01*
X155012500Y-89243750D01*
X155012500Y-89756250D01*
X155011447Y-89777691D01*
X155008297Y-89798926D01*
X155003081Y-89819750D01*
X154995849Y-89839962D01*
X154986670Y-89859368D01*
X154975634Y-89877781D01*
X154962846Y-89895024D01*
X154948430Y-89910930D01*
X154932524Y-89925346D01*
X154915281Y-89938134D01*
X154896868Y-89949170D01*
X154877462Y-89958349D01*
X154857250Y-89965581D01*
X154836426Y-89970797D01*
X154815191Y-89973947D01*
X154793750Y-89975000D01*
X154356250Y-89975000D01*
X154334809Y-89973947D01*
X154313574Y-89970797D01*
X154292750Y-89965581D01*
X154272538Y-89958349D01*
X154253132Y-89949170D01*
X154234719Y-89938134D01*
X154217476Y-89925346D01*
X154201570Y-89910930D01*
X154187154Y-89895024D01*
X154174366Y-89877781D01*
X154163330Y-89859368D01*
X154154151Y-89839962D01*
X154146919Y-89819750D01*
X154141703Y-89798926D01*
X154138553Y-89777691D01*
X154137500Y-89756250D01*
X154137500Y-89243750D01*
X154138553Y-89222309D01*
X154141703Y-89201074D01*
X154146919Y-89180250D01*
X154154151Y-89160038D01*
X154163330Y-89140632D01*
X154174366Y-89122219D01*
X154187154Y-89104976D01*
X154201570Y-89089070D01*
X154217476Y-89074654D01*
X154234719Y-89061866D01*
X154253132Y-89050830D01*
X154272538Y-89041651D01*
X154292750Y-89034419D01*
X154313574Y-89029203D01*
X154334809Y-89026053D01*
X154356250Y-89025000D01*
X154793750Y-89025000D01*
X154815191Y-89026053D01*
G37*
G36*
X154777691Y-92026053D02*
G01*
X154798926Y-92029203D01*
X154819750Y-92034419D01*
X154839962Y-92041651D01*
X154859368Y-92050830D01*
X154877781Y-92061866D01*
X154895024Y-92074654D01*
X154910930Y-92089070D01*
X154925346Y-92104976D01*
X154938134Y-92122219D01*
X154949170Y-92140632D01*
X154958349Y-92160038D01*
X154965581Y-92180250D01*
X154970797Y-92201074D01*
X154973947Y-92222309D01*
X154975000Y-92243750D01*
X154975000Y-92756250D01*
X154973947Y-92777691D01*
X154970797Y-92798926D01*
X154965581Y-92819750D01*
X154958349Y-92839962D01*
X154949170Y-92859368D01*
X154938134Y-92877781D01*
X154925346Y-92895024D01*
X154910930Y-92910930D01*
X154895024Y-92925346D01*
X154877781Y-92938134D01*
X154859368Y-92949170D01*
X154839962Y-92958349D01*
X154819750Y-92965581D01*
X154798926Y-92970797D01*
X154777691Y-92973947D01*
X154756250Y-92975000D01*
X154318750Y-92975000D01*
X154297309Y-92973947D01*
X154276074Y-92970797D01*
X154255250Y-92965581D01*
X154235038Y-92958349D01*
X154215632Y-92949170D01*
X154197219Y-92938134D01*
X154179976Y-92925346D01*
X154164070Y-92910930D01*
X154149654Y-92895024D01*
X154136866Y-92877781D01*
X154125830Y-92859368D01*
X154116651Y-92839962D01*
X154109419Y-92819750D01*
X154104203Y-92798926D01*
X154101053Y-92777691D01*
X154100000Y-92756250D01*
X154100000Y-92243750D01*
X154101053Y-92222309D01*
X154104203Y-92201074D01*
X154109419Y-92180250D01*
X154116651Y-92160038D01*
X154125830Y-92140632D01*
X154136866Y-92122219D01*
X154149654Y-92104976D01*
X154164070Y-92089070D01*
X154179976Y-92074654D01*
X154197219Y-92061866D01*
X154215632Y-92050830D01*
X154235038Y-92041651D01*
X154255250Y-92034419D01*
X154276074Y-92029203D01*
X154297309Y-92026053D01*
X154318750Y-92025000D01*
X154756250Y-92025000D01*
X154777691Y-92026053D01*
G37*
G36*
X153202691Y-92026053D02*
G01*
X153223926Y-92029203D01*
X153244750Y-92034419D01*
X153264962Y-92041651D01*
X153284368Y-92050830D01*
X153302781Y-92061866D01*
X153320024Y-92074654D01*
X153335930Y-92089070D01*
X153350346Y-92104976D01*
X153363134Y-92122219D01*
X153374170Y-92140632D01*
X153383349Y-92160038D01*
X153390581Y-92180250D01*
X153395797Y-92201074D01*
X153398947Y-92222309D01*
X153400000Y-92243750D01*
X153400000Y-92756250D01*
X153398947Y-92777691D01*
X153395797Y-92798926D01*
X153390581Y-92819750D01*
X153383349Y-92839962D01*
X153374170Y-92859368D01*
X153363134Y-92877781D01*
X153350346Y-92895024D01*
X153335930Y-92910930D01*
X153320024Y-92925346D01*
X153302781Y-92938134D01*
X153284368Y-92949170D01*
X153264962Y-92958349D01*
X153244750Y-92965581D01*
X153223926Y-92970797D01*
X153202691Y-92973947D01*
X153181250Y-92975000D01*
X152743750Y-92975000D01*
X152722309Y-92973947D01*
X152701074Y-92970797D01*
X152680250Y-92965581D01*
X152660038Y-92958349D01*
X152640632Y-92949170D01*
X152622219Y-92938134D01*
X152604976Y-92925346D01*
X152589070Y-92910930D01*
X152574654Y-92895024D01*
X152561866Y-92877781D01*
X152550830Y-92859368D01*
X152541651Y-92839962D01*
X152534419Y-92819750D01*
X152529203Y-92798926D01*
X152526053Y-92777691D01*
X152525000Y-92756250D01*
X152525000Y-92243750D01*
X152526053Y-92222309D01*
X152529203Y-92201074D01*
X152534419Y-92180250D01*
X152541651Y-92160038D01*
X152550830Y-92140632D01*
X152561866Y-92122219D01*
X152574654Y-92104976D01*
X152589070Y-92089070D01*
X152604976Y-92074654D01*
X152622219Y-92061866D01*
X152640632Y-92050830D01*
X152660038Y-92041651D01*
X152680250Y-92034419D01*
X152701074Y-92029203D01*
X152722309Y-92026053D01*
X152743750Y-92025000D01*
X153181250Y-92025000D01*
X153202691Y-92026053D01*
G37*
G36*
X154765191Y-116926053D02*
G01*
X154786426Y-116929203D01*
X154807250Y-116934419D01*
X154827462Y-116941651D01*
X154846868Y-116950830D01*
X154865281Y-116961866D01*
X154882524Y-116974654D01*
X154898430Y-116989070D01*
X154912846Y-117004976D01*
X154925634Y-117022219D01*
X154936670Y-117040632D01*
X154945849Y-117060038D01*
X154953081Y-117080250D01*
X154958297Y-117101074D01*
X154961447Y-117122309D01*
X154962500Y-117143750D01*
X154962500Y-117656250D01*
X154961447Y-117677691D01*
X154958297Y-117698926D01*
X154953081Y-117719750D01*
X154945849Y-117739962D01*
X154936670Y-117759368D01*
X154925634Y-117777781D01*
X154912846Y-117795024D01*
X154898430Y-117810930D01*
X154882524Y-117825346D01*
X154865281Y-117838134D01*
X154846868Y-117849170D01*
X154827462Y-117858349D01*
X154807250Y-117865581D01*
X154786426Y-117870797D01*
X154765191Y-117873947D01*
X154743750Y-117875000D01*
X154306250Y-117875000D01*
X154284809Y-117873947D01*
X154263574Y-117870797D01*
X154242750Y-117865581D01*
X154222538Y-117858349D01*
X154203132Y-117849170D01*
X154184719Y-117838134D01*
X154167476Y-117825346D01*
X154151570Y-117810930D01*
X154137154Y-117795024D01*
X154124366Y-117777781D01*
X154113330Y-117759368D01*
X154104151Y-117739962D01*
X154096919Y-117719750D01*
X154091703Y-117698926D01*
X154088553Y-117677691D01*
X154087500Y-117656250D01*
X154087500Y-117143750D01*
X154088553Y-117122309D01*
X154091703Y-117101074D01*
X154096919Y-117080250D01*
X154104151Y-117060038D01*
X154113330Y-117040632D01*
X154124366Y-117022219D01*
X154137154Y-117004976D01*
X154151570Y-116989070D01*
X154167476Y-116974654D01*
X154184719Y-116961866D01*
X154203132Y-116950830D01*
X154222538Y-116941651D01*
X154242750Y-116934419D01*
X154263574Y-116929203D01*
X154284809Y-116926053D01*
X154306250Y-116925000D01*
X154743750Y-116925000D01*
X154765191Y-116926053D01*
G37*
G36*
X153190191Y-116926053D02*
G01*
X153211426Y-116929203D01*
X153232250Y-116934419D01*
X153252462Y-116941651D01*
X153271868Y-116950830D01*
X153290281Y-116961866D01*
X153307524Y-116974654D01*
X153323430Y-116989070D01*
X153337846Y-117004976D01*
X153350634Y-117022219D01*
X153361670Y-117040632D01*
X153370849Y-117060038D01*
X153378081Y-117080250D01*
X153383297Y-117101074D01*
X153386447Y-117122309D01*
X153387500Y-117143750D01*
X153387500Y-117656250D01*
X153386447Y-117677691D01*
X153383297Y-117698926D01*
X153378081Y-117719750D01*
X153370849Y-117739962D01*
X153361670Y-117759368D01*
X153350634Y-117777781D01*
X153337846Y-117795024D01*
X153323430Y-117810930D01*
X153307524Y-117825346D01*
X153290281Y-117838134D01*
X153271868Y-117849170D01*
X153252462Y-117858349D01*
X153232250Y-117865581D01*
X153211426Y-117870797D01*
X153190191Y-117873947D01*
X153168750Y-117875000D01*
X152731250Y-117875000D01*
X152709809Y-117873947D01*
X152688574Y-117870797D01*
X152667750Y-117865581D01*
X152647538Y-117858349D01*
X152628132Y-117849170D01*
X152609719Y-117838134D01*
X152592476Y-117825346D01*
X152576570Y-117810930D01*
X152562154Y-117795024D01*
X152549366Y-117777781D01*
X152538330Y-117759368D01*
X152529151Y-117739962D01*
X152521919Y-117719750D01*
X152516703Y-117698926D01*
X152513553Y-117677691D01*
X152512500Y-117656250D01*
X152512500Y-117143750D01*
X152513553Y-117122309D01*
X152516703Y-117101074D01*
X152521919Y-117080250D01*
X152529151Y-117060038D01*
X152538330Y-117040632D01*
X152549366Y-117022219D01*
X152562154Y-117004976D01*
X152576570Y-116989070D01*
X152592476Y-116974654D01*
X152609719Y-116961866D01*
X152628132Y-116950830D01*
X152647538Y-116941651D01*
X152667750Y-116934419D01*
X152688574Y-116929203D01*
X152709809Y-116926053D01*
X152731250Y-116925000D01*
X153168750Y-116925000D01*
X153190191Y-116926053D01*
G37*
G36*
X153152691Y-119926053D02*
G01*
X153173926Y-119929203D01*
X153194750Y-119934419D01*
X153214962Y-119941651D01*
X153234368Y-119950830D01*
X153252781Y-119961866D01*
X153270024Y-119974654D01*
X153285930Y-119989070D01*
X153300346Y-120004976D01*
X153313134Y-120022219D01*
X153324170Y-120040632D01*
X153333349Y-120060038D01*
X153340581Y-120080250D01*
X153345797Y-120101074D01*
X153348947Y-120122309D01*
X153350000Y-120143750D01*
X153350000Y-120656250D01*
X153348947Y-120677691D01*
X153345797Y-120698926D01*
X153340581Y-120719750D01*
X153333349Y-120739962D01*
X153324170Y-120759368D01*
X153313134Y-120777781D01*
X153300346Y-120795024D01*
X153285930Y-120810930D01*
X153270024Y-120825346D01*
X153252781Y-120838134D01*
X153234368Y-120849170D01*
X153214962Y-120858349D01*
X153194750Y-120865581D01*
X153173926Y-120870797D01*
X153152691Y-120873947D01*
X153131250Y-120875000D01*
X152693750Y-120875000D01*
X152672309Y-120873947D01*
X152651074Y-120870797D01*
X152630250Y-120865581D01*
X152610038Y-120858349D01*
X152590632Y-120849170D01*
X152572219Y-120838134D01*
X152554976Y-120825346D01*
X152539070Y-120810930D01*
X152524654Y-120795024D01*
X152511866Y-120777781D01*
X152500830Y-120759368D01*
X152491651Y-120739962D01*
X152484419Y-120719750D01*
X152479203Y-120698926D01*
X152476053Y-120677691D01*
X152475000Y-120656250D01*
X152475000Y-120143750D01*
X152476053Y-120122309D01*
X152479203Y-120101074D01*
X152484419Y-120080250D01*
X152491651Y-120060038D01*
X152500830Y-120040632D01*
X152511866Y-120022219D01*
X152524654Y-120004976D01*
X152539070Y-119989070D01*
X152554976Y-119974654D01*
X152572219Y-119961866D01*
X152590632Y-119950830D01*
X152610038Y-119941651D01*
X152630250Y-119934419D01*
X152651074Y-119929203D01*
X152672309Y-119926053D01*
X152693750Y-119925000D01*
X153131250Y-119925000D01*
X153152691Y-119926053D01*
G37*
G36*
X154727691Y-119926053D02*
G01*
X154748926Y-119929203D01*
X154769750Y-119934419D01*
X154789962Y-119941651D01*
X154809368Y-119950830D01*
X154827781Y-119961866D01*
X154845024Y-119974654D01*
X154860930Y-119989070D01*
X154875346Y-120004976D01*
X154888134Y-120022219D01*
X154899170Y-120040632D01*
X154908349Y-120060038D01*
X154915581Y-120080250D01*
X154920797Y-120101074D01*
X154923947Y-120122309D01*
X154925000Y-120143750D01*
X154925000Y-120656250D01*
X154923947Y-120677691D01*
X154920797Y-120698926D01*
X154915581Y-120719750D01*
X154908349Y-120739962D01*
X154899170Y-120759368D01*
X154888134Y-120777781D01*
X154875346Y-120795024D01*
X154860930Y-120810930D01*
X154845024Y-120825346D01*
X154827781Y-120838134D01*
X154809368Y-120849170D01*
X154789962Y-120858349D01*
X154769750Y-120865581D01*
X154748926Y-120870797D01*
X154727691Y-120873947D01*
X154706250Y-120875000D01*
X154268750Y-120875000D01*
X154247309Y-120873947D01*
X154226074Y-120870797D01*
X154205250Y-120865581D01*
X154185038Y-120858349D01*
X154165632Y-120849170D01*
X154147219Y-120838134D01*
X154129976Y-120825346D01*
X154114070Y-120810930D01*
X154099654Y-120795024D01*
X154086866Y-120777781D01*
X154075830Y-120759368D01*
X154066651Y-120739962D01*
X154059419Y-120719750D01*
X154054203Y-120698926D01*
X154051053Y-120677691D01*
X154050000Y-120656250D01*
X154050000Y-120143750D01*
X154051053Y-120122309D01*
X154054203Y-120101074D01*
X154059419Y-120080250D01*
X154066651Y-120060038D01*
X154075830Y-120040632D01*
X154086866Y-120022219D01*
X154099654Y-120004976D01*
X154114070Y-119989070D01*
X154129976Y-119974654D01*
X154147219Y-119961866D01*
X154165632Y-119950830D01*
X154185038Y-119941651D01*
X154205250Y-119934419D01*
X154226074Y-119929203D01*
X154247309Y-119926053D01*
X154268750Y-119925000D01*
X154706250Y-119925000D01*
X154727691Y-119926053D01*
G37*
G36*
X135704142Y-96631674D02*
G01*
X135727803Y-96635184D01*
X135751007Y-96640996D01*
X135773529Y-96649054D01*
X135795153Y-96659282D01*
X135815670Y-96671579D01*
X135834883Y-96685829D01*
X135852607Y-96701893D01*
X135868671Y-96719617D01*
X135882921Y-96738830D01*
X135895218Y-96759347D01*
X135905446Y-96780971D01*
X135913504Y-96803493D01*
X135919316Y-96826697D01*
X135922826Y-96850358D01*
X135924000Y-96874250D01*
X135924000Y-97361750D01*
X135922826Y-97385642D01*
X135919316Y-97409303D01*
X135913504Y-97432507D01*
X135905446Y-97455029D01*
X135895218Y-97476653D01*
X135882921Y-97497170D01*
X135868671Y-97516383D01*
X135852607Y-97534107D01*
X135834883Y-97550171D01*
X135815670Y-97564421D01*
X135795153Y-97576718D01*
X135773529Y-97586946D01*
X135751007Y-97595004D01*
X135727803Y-97600816D01*
X135704142Y-97604326D01*
X135680250Y-97605500D01*
X134767750Y-97605500D01*
X134743858Y-97604326D01*
X134720197Y-97600816D01*
X134696993Y-97595004D01*
X134674471Y-97586946D01*
X134652847Y-97576718D01*
X134632330Y-97564421D01*
X134613117Y-97550171D01*
X134595393Y-97534107D01*
X134579329Y-97516383D01*
X134565079Y-97497170D01*
X134552782Y-97476653D01*
X134542554Y-97455029D01*
X134534496Y-97432507D01*
X134528684Y-97409303D01*
X134525174Y-97385642D01*
X134524000Y-97361750D01*
X134524000Y-96874250D01*
X134525174Y-96850358D01*
X134528684Y-96826697D01*
X134534496Y-96803493D01*
X134542554Y-96780971D01*
X134552782Y-96759347D01*
X134565079Y-96738830D01*
X134579329Y-96719617D01*
X134595393Y-96701893D01*
X134613117Y-96685829D01*
X134632330Y-96671579D01*
X134652847Y-96659282D01*
X134674471Y-96649054D01*
X134696993Y-96640996D01*
X134720197Y-96635184D01*
X134743858Y-96631674D01*
X134767750Y-96630500D01*
X135680250Y-96630500D01*
X135704142Y-96631674D01*
G37*
G36*
X135704142Y-98506674D02*
G01*
X135727803Y-98510184D01*
X135751007Y-98515996D01*
X135773529Y-98524054D01*
X135795153Y-98534282D01*
X135815670Y-98546579D01*
X135834883Y-98560829D01*
X135852607Y-98576893D01*
X135868671Y-98594617D01*
X135882921Y-98613830D01*
X135895218Y-98634347D01*
X135905446Y-98655971D01*
X135913504Y-98678493D01*
X135919316Y-98701697D01*
X135922826Y-98725358D01*
X135924000Y-98749250D01*
X135924000Y-99236750D01*
X135922826Y-99260642D01*
X135919316Y-99284303D01*
X135913504Y-99307507D01*
X135905446Y-99330029D01*
X135895218Y-99351653D01*
X135882921Y-99372170D01*
X135868671Y-99391383D01*
X135852607Y-99409107D01*
X135834883Y-99425171D01*
X135815670Y-99439421D01*
X135795153Y-99451718D01*
X135773529Y-99461946D01*
X135751007Y-99470004D01*
X135727803Y-99475816D01*
X135704142Y-99479326D01*
X135680250Y-99480500D01*
X134767750Y-99480500D01*
X134743858Y-99479326D01*
X134720197Y-99475816D01*
X134696993Y-99470004D01*
X134674471Y-99461946D01*
X134652847Y-99451718D01*
X134632330Y-99439421D01*
X134613117Y-99425171D01*
X134595393Y-99409107D01*
X134579329Y-99391383D01*
X134565079Y-99372170D01*
X134552782Y-99351653D01*
X134542554Y-99330029D01*
X134534496Y-99307507D01*
X134528684Y-99284303D01*
X134525174Y-99260642D01*
X134524000Y-99236750D01*
X134524000Y-98749250D01*
X134525174Y-98725358D01*
X134528684Y-98701697D01*
X134534496Y-98678493D01*
X134542554Y-98655971D01*
X134552782Y-98634347D01*
X134565079Y-98613830D01*
X134579329Y-98594617D01*
X134595393Y-98576893D01*
X134613117Y-98560829D01*
X134632330Y-98546579D01*
X134652847Y-98534282D01*
X134674471Y-98524054D01*
X134696993Y-98515996D01*
X134720197Y-98510184D01*
X134743858Y-98506674D01*
X134767750Y-98505500D01*
X135680250Y-98505500D01*
X135704142Y-98506674D01*
G37*
G36*
X149892642Y-84051174D02*
G01*
X149916303Y-84054684D01*
X149939507Y-84060496D01*
X149962029Y-84068554D01*
X149983653Y-84078782D01*
X150004170Y-84091079D01*
X150023383Y-84105329D01*
X150041107Y-84121393D01*
X150057171Y-84139117D01*
X150071421Y-84158330D01*
X150083718Y-84178847D01*
X150093946Y-84200471D01*
X150102004Y-84222993D01*
X150107816Y-84246197D01*
X150111326Y-84269858D01*
X150112500Y-84293750D01*
X150112500Y-85206250D01*
X150111326Y-85230142D01*
X150107816Y-85253803D01*
X150102004Y-85277007D01*
X150093946Y-85299529D01*
X150083718Y-85321153D01*
X150071421Y-85341670D01*
X150057171Y-85360883D01*
X150041107Y-85378607D01*
X150023383Y-85394671D01*
X150004170Y-85408921D01*
X149983653Y-85421218D01*
X149962029Y-85431446D01*
X149939507Y-85439504D01*
X149916303Y-85445316D01*
X149892642Y-85448826D01*
X149868750Y-85450000D01*
X149381250Y-85450000D01*
X149357358Y-85448826D01*
X149333697Y-85445316D01*
X149310493Y-85439504D01*
X149287971Y-85431446D01*
X149266347Y-85421218D01*
X149245830Y-85408921D01*
X149226617Y-85394671D01*
X149208893Y-85378607D01*
X149192829Y-85360883D01*
X149178579Y-85341670D01*
X149166282Y-85321153D01*
X149156054Y-85299529D01*
X149147996Y-85277007D01*
X149142184Y-85253803D01*
X149138674Y-85230142D01*
X149137500Y-85206250D01*
X149137500Y-84293750D01*
X149138674Y-84269858D01*
X149142184Y-84246197D01*
X149147996Y-84222993D01*
X149156054Y-84200471D01*
X149166282Y-84178847D01*
X149178579Y-84158330D01*
X149192829Y-84139117D01*
X149208893Y-84121393D01*
X149226617Y-84105329D01*
X149245830Y-84091079D01*
X149266347Y-84078782D01*
X149287971Y-84068554D01*
X149310493Y-84060496D01*
X149333697Y-84054684D01*
X149357358Y-84051174D01*
X149381250Y-84050000D01*
X149868750Y-84050000D01*
X149892642Y-84051174D01*
G37*
G36*
X151767642Y-84051174D02*
G01*
X151791303Y-84054684D01*
X151814507Y-84060496D01*
X151837029Y-84068554D01*
X151858653Y-84078782D01*
X151879170Y-84091079D01*
X151898383Y-84105329D01*
X151916107Y-84121393D01*
X151932171Y-84139117D01*
X151946421Y-84158330D01*
X151958718Y-84178847D01*
X151968946Y-84200471D01*
X151977004Y-84222993D01*
X151982816Y-84246197D01*
X151986326Y-84269858D01*
X151987500Y-84293750D01*
X151987500Y-85206250D01*
X151986326Y-85230142D01*
X151982816Y-85253803D01*
X151977004Y-85277007D01*
X151968946Y-85299529D01*
X151958718Y-85321153D01*
X151946421Y-85341670D01*
X151932171Y-85360883D01*
X151916107Y-85378607D01*
X151898383Y-85394671D01*
X151879170Y-85408921D01*
X151858653Y-85421218D01*
X151837029Y-85431446D01*
X151814507Y-85439504D01*
X151791303Y-85445316D01*
X151767642Y-85448826D01*
X151743750Y-85450000D01*
X151256250Y-85450000D01*
X151232358Y-85448826D01*
X151208697Y-85445316D01*
X151185493Y-85439504D01*
X151162971Y-85431446D01*
X151141347Y-85421218D01*
X151120830Y-85408921D01*
X151101617Y-85394671D01*
X151083893Y-85378607D01*
X151067829Y-85360883D01*
X151053579Y-85341670D01*
X151041282Y-85321153D01*
X151031054Y-85299529D01*
X151022996Y-85277007D01*
X151017184Y-85253803D01*
X151013674Y-85230142D01*
X151012500Y-85206250D01*
X151012500Y-84293750D01*
X151013674Y-84269858D01*
X151017184Y-84246197D01*
X151022996Y-84222993D01*
X151031054Y-84200471D01*
X151041282Y-84178847D01*
X151053579Y-84158330D01*
X151067829Y-84139117D01*
X151083893Y-84121393D01*
X151101617Y-84105329D01*
X151120830Y-84091079D01*
X151141347Y-84078782D01*
X151162971Y-84068554D01*
X151185493Y-84060496D01*
X151208697Y-84054684D01*
X151232358Y-84051174D01*
X151256250Y-84050000D01*
X151743750Y-84050000D01*
X151767642Y-84051174D01*
G37*
G36*
X149880142Y-112001174D02*
G01*
X149903803Y-112004684D01*
X149927007Y-112010496D01*
X149949529Y-112018554D01*
X149971153Y-112028782D01*
X149991670Y-112041079D01*
X150010883Y-112055329D01*
X150028607Y-112071393D01*
X150044671Y-112089117D01*
X150058921Y-112108330D01*
X150071218Y-112128847D01*
X150081446Y-112150471D01*
X150089504Y-112172993D01*
X150095316Y-112196197D01*
X150098826Y-112219858D01*
X150100000Y-112243750D01*
X150100000Y-113156250D01*
X150098826Y-113180142D01*
X150095316Y-113203803D01*
X150089504Y-113227007D01*
X150081446Y-113249529D01*
X150071218Y-113271153D01*
X150058921Y-113291670D01*
X150044671Y-113310883D01*
X150028607Y-113328607D01*
X150010883Y-113344671D01*
X149991670Y-113358921D01*
X149971153Y-113371218D01*
X149949529Y-113381446D01*
X149927007Y-113389504D01*
X149903803Y-113395316D01*
X149880142Y-113398826D01*
X149856250Y-113400000D01*
X149368750Y-113400000D01*
X149344858Y-113398826D01*
X149321197Y-113395316D01*
X149297993Y-113389504D01*
X149275471Y-113381446D01*
X149253847Y-113371218D01*
X149233330Y-113358921D01*
X149214117Y-113344671D01*
X149196393Y-113328607D01*
X149180329Y-113310883D01*
X149166079Y-113291670D01*
X149153782Y-113271153D01*
X149143554Y-113249529D01*
X149135496Y-113227007D01*
X149129684Y-113203803D01*
X149126174Y-113180142D01*
X149125000Y-113156250D01*
X149125000Y-112243750D01*
X149126174Y-112219858D01*
X149129684Y-112196197D01*
X149135496Y-112172993D01*
X149143554Y-112150471D01*
X149153782Y-112128847D01*
X149166079Y-112108330D01*
X149180329Y-112089117D01*
X149196393Y-112071393D01*
X149214117Y-112055329D01*
X149233330Y-112041079D01*
X149253847Y-112028782D01*
X149275471Y-112018554D01*
X149297993Y-112010496D01*
X149321197Y-112004684D01*
X149344858Y-112001174D01*
X149368750Y-112000000D01*
X149856250Y-112000000D01*
X149880142Y-112001174D01*
G37*
G36*
X151755142Y-112001174D02*
G01*
X151778803Y-112004684D01*
X151802007Y-112010496D01*
X151824529Y-112018554D01*
X151846153Y-112028782D01*
X151866670Y-112041079D01*
X151885883Y-112055329D01*
X151903607Y-112071393D01*
X151919671Y-112089117D01*
X151933921Y-112108330D01*
X151946218Y-112128847D01*
X151956446Y-112150471D01*
X151964504Y-112172993D01*
X151970316Y-112196197D01*
X151973826Y-112219858D01*
X151975000Y-112243750D01*
X151975000Y-113156250D01*
X151973826Y-113180142D01*
X151970316Y-113203803D01*
X151964504Y-113227007D01*
X151956446Y-113249529D01*
X151946218Y-113271153D01*
X151933921Y-113291670D01*
X151919671Y-113310883D01*
X151903607Y-113328607D01*
X151885883Y-113344671D01*
X151866670Y-113358921D01*
X151846153Y-113371218D01*
X151824529Y-113381446D01*
X151802007Y-113389504D01*
X151778803Y-113395316D01*
X151755142Y-113398826D01*
X151731250Y-113400000D01*
X151243750Y-113400000D01*
X151219858Y-113398826D01*
X151196197Y-113395316D01*
X151172993Y-113389504D01*
X151150471Y-113381446D01*
X151128847Y-113371218D01*
X151108330Y-113358921D01*
X151089117Y-113344671D01*
X151071393Y-113328607D01*
X151055329Y-113310883D01*
X151041079Y-113291670D01*
X151028782Y-113271153D01*
X151018554Y-113249529D01*
X151010496Y-113227007D01*
X151004684Y-113203803D01*
X151001174Y-113180142D01*
X151000000Y-113156250D01*
X151000000Y-112243750D01*
X151001174Y-112219858D01*
X151004684Y-112196197D01*
X151010496Y-112172993D01*
X151018554Y-112150471D01*
X151028782Y-112128847D01*
X151041079Y-112108330D01*
X151055329Y-112089117D01*
X151071393Y-112071393D01*
X151089117Y-112055329D01*
X151108330Y-112041079D01*
X151128847Y-112028782D01*
X151150471Y-112018554D01*
X151172993Y-112010496D01*
X151196197Y-112004684D01*
X151219858Y-112001174D01*
X151243750Y-112000000D01*
X151731250Y-112000000D01*
X151755142Y-112001174D01*
G37*
G36*
X161767642Y-85301174D02*
G01*
X161791303Y-85304684D01*
X161814507Y-85310496D01*
X161837029Y-85318554D01*
X161858653Y-85328782D01*
X161879170Y-85341079D01*
X161898383Y-85355329D01*
X161916107Y-85371393D01*
X161932171Y-85389117D01*
X161946421Y-85408330D01*
X161958718Y-85428847D01*
X161968946Y-85450471D01*
X161977004Y-85472993D01*
X161982816Y-85496197D01*
X161986326Y-85519858D01*
X161987500Y-85543750D01*
X161987500Y-86456250D01*
X161986326Y-86480142D01*
X161982816Y-86503803D01*
X161977004Y-86527007D01*
X161968946Y-86549529D01*
X161958718Y-86571153D01*
X161946421Y-86591670D01*
X161932171Y-86610883D01*
X161916107Y-86628607D01*
X161898383Y-86644671D01*
X161879170Y-86658921D01*
X161858653Y-86671218D01*
X161837029Y-86681446D01*
X161814507Y-86689504D01*
X161791303Y-86695316D01*
X161767642Y-86698826D01*
X161743750Y-86700000D01*
X161256250Y-86700000D01*
X161232358Y-86698826D01*
X161208697Y-86695316D01*
X161185493Y-86689504D01*
X161162971Y-86681446D01*
X161141347Y-86671218D01*
X161120830Y-86658921D01*
X161101617Y-86644671D01*
X161083893Y-86628607D01*
X161067829Y-86610883D01*
X161053579Y-86591670D01*
X161041282Y-86571153D01*
X161031054Y-86549529D01*
X161022996Y-86527007D01*
X161017184Y-86503803D01*
X161013674Y-86480142D01*
X161012500Y-86456250D01*
X161012500Y-85543750D01*
X161013674Y-85519858D01*
X161017184Y-85496197D01*
X161022996Y-85472993D01*
X161031054Y-85450471D01*
X161041282Y-85428847D01*
X161053579Y-85408330D01*
X161067829Y-85389117D01*
X161083893Y-85371393D01*
X161101617Y-85355329D01*
X161120830Y-85341079D01*
X161141347Y-85328782D01*
X161162971Y-85318554D01*
X161185493Y-85310496D01*
X161208697Y-85304684D01*
X161232358Y-85301174D01*
X161256250Y-85300000D01*
X161743750Y-85300000D01*
X161767642Y-85301174D01*
G37*
G36*
X163642642Y-85301174D02*
G01*
X163666303Y-85304684D01*
X163689507Y-85310496D01*
X163712029Y-85318554D01*
X163733653Y-85328782D01*
X163754170Y-85341079D01*
X163773383Y-85355329D01*
X163791107Y-85371393D01*
X163807171Y-85389117D01*
X163821421Y-85408330D01*
X163833718Y-85428847D01*
X163843946Y-85450471D01*
X163852004Y-85472993D01*
X163857816Y-85496197D01*
X163861326Y-85519858D01*
X163862500Y-85543750D01*
X163862500Y-86456250D01*
X163861326Y-86480142D01*
X163857816Y-86503803D01*
X163852004Y-86527007D01*
X163843946Y-86549529D01*
X163833718Y-86571153D01*
X163821421Y-86591670D01*
X163807171Y-86610883D01*
X163791107Y-86628607D01*
X163773383Y-86644671D01*
X163754170Y-86658921D01*
X163733653Y-86671218D01*
X163712029Y-86681446D01*
X163689507Y-86689504D01*
X163666303Y-86695316D01*
X163642642Y-86698826D01*
X163618750Y-86700000D01*
X163131250Y-86700000D01*
X163107358Y-86698826D01*
X163083697Y-86695316D01*
X163060493Y-86689504D01*
X163037971Y-86681446D01*
X163016347Y-86671218D01*
X162995830Y-86658921D01*
X162976617Y-86644671D01*
X162958893Y-86628607D01*
X162942829Y-86610883D01*
X162928579Y-86591670D01*
X162916282Y-86571153D01*
X162906054Y-86549529D01*
X162897996Y-86527007D01*
X162892184Y-86503803D01*
X162888674Y-86480142D01*
X162887500Y-86456250D01*
X162887500Y-85543750D01*
X162888674Y-85519858D01*
X162892184Y-85496197D01*
X162897996Y-85472993D01*
X162906054Y-85450471D01*
X162916282Y-85428847D01*
X162928579Y-85408330D01*
X162942829Y-85389117D01*
X162958893Y-85371393D01*
X162976617Y-85355329D01*
X162995830Y-85341079D01*
X163016347Y-85328782D01*
X163037971Y-85318554D01*
X163060493Y-85310496D01*
X163083697Y-85304684D01*
X163107358Y-85301174D01*
X163131250Y-85300000D01*
X163618750Y-85300000D01*
X163642642Y-85301174D01*
G37*
G36*
X161717642Y-115201174D02*
G01*
X161741303Y-115204684D01*
X161764507Y-115210496D01*
X161787029Y-115218554D01*
X161808653Y-115228782D01*
X161829170Y-115241079D01*
X161848383Y-115255329D01*
X161866107Y-115271393D01*
X161882171Y-115289117D01*
X161896421Y-115308330D01*
X161908718Y-115328847D01*
X161918946Y-115350471D01*
X161927004Y-115372993D01*
X161932816Y-115396197D01*
X161936326Y-115419858D01*
X161937500Y-115443750D01*
X161937500Y-116356250D01*
X161936326Y-116380142D01*
X161932816Y-116403803D01*
X161927004Y-116427007D01*
X161918946Y-116449529D01*
X161908718Y-116471153D01*
X161896421Y-116491670D01*
X161882171Y-116510883D01*
X161866107Y-116528607D01*
X161848383Y-116544671D01*
X161829170Y-116558921D01*
X161808653Y-116571218D01*
X161787029Y-116581446D01*
X161764507Y-116589504D01*
X161741303Y-116595316D01*
X161717642Y-116598826D01*
X161693750Y-116600000D01*
X161206250Y-116600000D01*
X161182358Y-116598826D01*
X161158697Y-116595316D01*
X161135493Y-116589504D01*
X161112971Y-116581446D01*
X161091347Y-116571218D01*
X161070830Y-116558921D01*
X161051617Y-116544671D01*
X161033893Y-116528607D01*
X161017829Y-116510883D01*
X161003579Y-116491670D01*
X160991282Y-116471153D01*
X160981054Y-116449529D01*
X160972996Y-116427007D01*
X160967184Y-116403803D01*
X160963674Y-116380142D01*
X160962500Y-116356250D01*
X160962500Y-115443750D01*
X160963674Y-115419858D01*
X160967184Y-115396197D01*
X160972996Y-115372993D01*
X160981054Y-115350471D01*
X160991282Y-115328847D01*
X161003579Y-115308330D01*
X161017829Y-115289117D01*
X161033893Y-115271393D01*
X161051617Y-115255329D01*
X161070830Y-115241079D01*
X161091347Y-115228782D01*
X161112971Y-115218554D01*
X161135493Y-115210496D01*
X161158697Y-115204684D01*
X161182358Y-115201174D01*
X161206250Y-115200000D01*
X161693750Y-115200000D01*
X161717642Y-115201174D01*
G37*
G36*
X163592642Y-115201174D02*
G01*
X163616303Y-115204684D01*
X163639507Y-115210496D01*
X163662029Y-115218554D01*
X163683653Y-115228782D01*
X163704170Y-115241079D01*
X163723383Y-115255329D01*
X163741107Y-115271393D01*
X163757171Y-115289117D01*
X163771421Y-115308330D01*
X163783718Y-115328847D01*
X163793946Y-115350471D01*
X163802004Y-115372993D01*
X163807816Y-115396197D01*
X163811326Y-115419858D01*
X163812500Y-115443750D01*
X163812500Y-116356250D01*
X163811326Y-116380142D01*
X163807816Y-116403803D01*
X163802004Y-116427007D01*
X163793946Y-116449529D01*
X163783718Y-116471153D01*
X163771421Y-116491670D01*
X163757171Y-116510883D01*
X163741107Y-116528607D01*
X163723383Y-116544671D01*
X163704170Y-116558921D01*
X163683653Y-116571218D01*
X163662029Y-116581446D01*
X163639507Y-116589504D01*
X163616303Y-116595316D01*
X163592642Y-116598826D01*
X163568750Y-116600000D01*
X163081250Y-116600000D01*
X163057358Y-116598826D01*
X163033697Y-116595316D01*
X163010493Y-116589504D01*
X162987971Y-116581446D01*
X162966347Y-116571218D01*
X162945830Y-116558921D01*
X162926617Y-116544671D01*
X162908893Y-116528607D01*
X162892829Y-116510883D01*
X162878579Y-116491670D01*
X162866282Y-116471153D01*
X162856054Y-116449529D01*
X162847996Y-116427007D01*
X162842184Y-116403803D01*
X162838674Y-116380142D01*
X162837500Y-116356250D01*
X162837500Y-115443750D01*
X162838674Y-115419858D01*
X162842184Y-115396197D01*
X162847996Y-115372993D01*
X162856054Y-115350471D01*
X162866282Y-115328847D01*
X162878579Y-115308330D01*
X162892829Y-115289117D01*
X162908893Y-115271393D01*
X162926617Y-115255329D01*
X162945830Y-115241079D01*
X162966347Y-115228782D01*
X162987971Y-115218554D01*
X163010493Y-115210496D01*
X163033697Y-115204684D01*
X163057358Y-115201174D01*
X163081250Y-115200000D01*
X163568750Y-115200000D01*
X163592642Y-115201174D01*
G37*
M02*
