G04 #@! TF.GenerationSoftware,KiCad,Pcbnew,5.1.5+dfsg1-2build2*
G04 #@! TF.CreationDate,2021-07-02T23:51:08+02:00*
G04 #@! TF.ProjectId,flyback_DCM,666c7962-6163-46b5-9f44-434d2e6b6963,rev?*
G04 #@! TF.SameCoordinates,Original*
G04 #@! TF.FileFunction,Legend,Top*
G04 #@! TF.FilePolarity,Positive*
%FSLAX46Y46*%
G04 Gerber Fmt 4.6, Leading zero omitted, Abs format (unit mm)*
G04 Created by KiCad (PCBNEW 5.1.5+dfsg1-2build2) date 2021-07-02 23:51:08*
%MOMM*%
%LPD*%
G04 APERTURE LIST*
%ADD10C,0.120000*%
%ADD11C,0.150000*%
G04 APERTURE END LIST*
D10*
X129000000Y-87000000D02*
X129000000Y-93000000D01*
X127500000Y-87000000D02*
X127500000Y-86750000D01*
X131250000Y-87000000D02*
X127500000Y-87000000D01*
X131250000Y-81000000D02*
X131250000Y-87000000D01*
X127500000Y-81000000D02*
X131250000Y-81000000D01*
X127500000Y-86750000D02*
X127500000Y-81000000D01*
X125110000Y-97510000D02*
X124000000Y-97510000D01*
X125110000Y-96750000D02*
X125110000Y-97510000D01*
X123436529Y-95990000D02*
X122890000Y-95990000D01*
X125110000Y-95990000D02*
X124563471Y-95990000D01*
X122890000Y-95990000D02*
X122890000Y-94785000D01*
X125110000Y-95990000D02*
X125110000Y-94785000D01*
X123692470Y-94785000D02*
X122890000Y-94785000D01*
X125110000Y-94785000D02*
X124307530Y-94785000D01*
X124330000Y-93370000D02*
X123000000Y-93370000D01*
X124330000Y-92040000D02*
X124330000Y-93370000D01*
X124330000Y-90770000D02*
X121670000Y-90770000D01*
X121670000Y-90770000D02*
X121670000Y-88170000D01*
X124330000Y-90770000D02*
X124330000Y-88170000D01*
X124330000Y-88170000D02*
X121670000Y-88170000D01*
X126862000Y-108120000D02*
X126862000Y-104380000D01*
X131902000Y-108120000D02*
X131902000Y-104380000D01*
X128142000Y-104380000D02*
X126862000Y-104380000D01*
X131902000Y-104380000D02*
X130622000Y-104380000D01*
X129742000Y-108120000D02*
X129022000Y-108120000D01*
X131902000Y-108120000D02*
X131522000Y-108120000D01*
X127242000Y-108120000D02*
X126862000Y-108120000D01*
X137874000Y-95985000D02*
X137874000Y-86715000D01*
X148874000Y-95985000D02*
X137874000Y-95985000D01*
X148874000Y-85915000D02*
X148874000Y-95985000D01*
X138674000Y-85915000D02*
X148874000Y-85915000D01*
X137874000Y-86715000D02*
X138674000Y-85915000D01*
X137900000Y-123940000D02*
X137900000Y-114670000D01*
X148900000Y-123940000D02*
X137900000Y-123940000D01*
X148900000Y-113870000D02*
X148900000Y-123940000D01*
X138700000Y-113870000D02*
X148900000Y-113870000D01*
X137900000Y-114670000D02*
X138700000Y-113870000D01*
X124849999Y-103200001D02*
X124849999Y-103400001D01*
X125049999Y-103400001D02*
X124849999Y-103400001D01*
X129150001Y-103400001D02*
X128150000Y-103400001D01*
X129150001Y-103000002D02*
X129150001Y-103400001D01*
X125049999Y-99099999D02*
X124849999Y-99099999D01*
X124849999Y-99099999D02*
X124849999Y-99299999D01*
X129150001Y-99099999D02*
X128950001Y-99099999D01*
X129150001Y-99099999D02*
X129150001Y-99299999D01*
X122740000Y-102874721D02*
X122740000Y-103200279D01*
X123760000Y-102874721D02*
X123760000Y-103200279D01*
X122875279Y-100240000D02*
X122549721Y-100240000D01*
X122875279Y-101260000D02*
X122549721Y-101260000D01*
X127148000Y-90841922D02*
X127148000Y-91359078D01*
X128568000Y-90841922D02*
X128568000Y-91359078D01*
X137160000Y-86352064D02*
X137160000Y-85147936D01*
X135340000Y-86352064D02*
X135340000Y-85147936D01*
X135590000Y-114352064D02*
X135590000Y-113147936D01*
X137410000Y-114352064D02*
X137410000Y-113147936D01*
X128800078Y-96812000D02*
X128282922Y-96812000D01*
X128800078Y-95392000D02*
X128282922Y-95392000D01*
X128800078Y-94780000D02*
X128282922Y-94780000D01*
X128800078Y-93360000D02*
X128282922Y-93360000D01*
X134514000Y-94758078D02*
X134514000Y-94240922D01*
X135934000Y-94758078D02*
X135934000Y-94240922D01*
X122704078Y-99606000D02*
X122186922Y-99606000D01*
X122704078Y-98186000D02*
X122186922Y-98186000D01*
X128800078Y-97540000D02*
X128282922Y-97540000D01*
X128800078Y-98960000D02*
X128282922Y-98960000D01*
X154508578Y-84040000D02*
X153991422Y-84040000D01*
X154508578Y-85460000D02*
X153991422Y-85460000D01*
X154471078Y-113410000D02*
X153953922Y-113410000D01*
X154471078Y-111990000D02*
X153953922Y-111990000D01*
X149140000Y-90497936D02*
X149140000Y-91702064D01*
X151860000Y-90497936D02*
X151860000Y-91702064D01*
X151810000Y-118397936D02*
X151810000Y-119602064D01*
X149090000Y-118397936D02*
X149090000Y-119602064D01*
X155840000Y-90397936D02*
X155840000Y-91602064D01*
X157660000Y-90397936D02*
X157660000Y-91602064D01*
X160060000Y-118297936D02*
X160060000Y-119502064D01*
X158240000Y-118297936D02*
X158240000Y-119502064D01*
X160160000Y-90397936D02*
X160160000Y-91602064D01*
X158340000Y-90397936D02*
X158340000Y-91602064D01*
X157660000Y-118297936D02*
X157660000Y-119502064D01*
X155840000Y-118297936D02*
X155840000Y-119502064D01*
X162178922Y-88710000D02*
X162696078Y-88710000D01*
X162178922Y-87290000D02*
X162696078Y-87290000D01*
X163008578Y-93790000D02*
X162491422Y-93790000D01*
X163008578Y-95210000D02*
X162491422Y-95210000D01*
X162128922Y-114610000D02*
X162646078Y-114610000D01*
X162128922Y-113190000D02*
X162646078Y-113190000D01*
X162946078Y-123110000D02*
X162428922Y-123110000D01*
X162946078Y-121690000D02*
X162428922Y-121690000D01*
X130526000Y-99788000D02*
X133826000Y-99788000D01*
X133826000Y-99788000D02*
X133826000Y-94388000D01*
X130526000Y-99788000D02*
X130526000Y-94388000D01*
X131450000Y-100182000D02*
X131450000Y-102182000D01*
X131450000Y-102182000D02*
X135350000Y-102182000D01*
X131450000Y-100182000D02*
X135350000Y-100182000D01*
X153500000Y-88250000D02*
X149600000Y-88250000D01*
X153500000Y-86250000D02*
X149600000Y-86250000D01*
X153500000Y-88250000D02*
X153500000Y-86250000D01*
X153450000Y-116150000D02*
X153450000Y-114150000D01*
X153450000Y-114150000D02*
X149550000Y-114150000D01*
X153450000Y-116150000D02*
X149550000Y-116150000D01*
X165250000Y-93250000D02*
X165250000Y-91250000D01*
X165250000Y-91250000D02*
X161350000Y-91250000D01*
X165250000Y-93250000D02*
X161350000Y-93250000D01*
X165150000Y-121200000D02*
X161250000Y-121200000D01*
X165150000Y-119200000D02*
X161250000Y-119200000D01*
X165150000Y-121200000D02*
X165150000Y-119200000D01*
X160800000Y-89150000D02*
X160800000Y-90850000D01*
X160800000Y-90850000D02*
X163350000Y-90850000D01*
X160800000Y-89150000D02*
X163350000Y-89150000D01*
X160750000Y-117050000D02*
X163300000Y-117050000D01*
X160750000Y-118750000D02*
X163300000Y-118750000D01*
X160750000Y-117050000D02*
X160750000Y-118750000D01*
X132140064Y-92440000D02*
X130935936Y-92440000D01*
X132140064Y-90620000D02*
X130935936Y-90620000D01*
X153950279Y-88990000D02*
X153624721Y-88990000D01*
X153950279Y-90010000D02*
X153624721Y-90010000D01*
X153912779Y-93010000D02*
X153587221Y-93010000D01*
X153912779Y-91990000D02*
X153587221Y-91990000D01*
X153900279Y-117910000D02*
X153574721Y-117910000D01*
X153900279Y-116890000D02*
X153574721Y-116890000D01*
X153862779Y-119890000D02*
X153537221Y-119890000D01*
X153862779Y-120910000D02*
X153537221Y-120910000D01*
X166170000Y-87530000D02*
X167500000Y-87530000D01*
X166170000Y-88860000D02*
X166170000Y-87530000D01*
X166170000Y-90130000D02*
X168830000Y-90130000D01*
X168830000Y-90130000D02*
X168830000Y-95270000D01*
X166170000Y-90130000D02*
X166170000Y-95270000D01*
X166170000Y-95270000D02*
X168830000Y-95270000D01*
X165920000Y-123170000D02*
X168580000Y-123170000D01*
X165920000Y-118030000D02*
X165920000Y-123170000D01*
X168580000Y-118030000D02*
X168580000Y-123170000D01*
X165920000Y-118030000D02*
X168580000Y-118030000D01*
X165920000Y-116760000D02*
X165920000Y-115430000D01*
X165920000Y-115430000D02*
X167250000Y-115430000D01*
X135934000Y-97796922D02*
X135934000Y-98314078D01*
X134514000Y-97796922D02*
X134514000Y-98314078D01*
X150303922Y-84040000D02*
X150821078Y-84040000D01*
X150303922Y-85460000D02*
X150821078Y-85460000D01*
X150291422Y-111990000D02*
X150808578Y-111990000D01*
X150291422Y-113410000D02*
X150808578Y-113410000D01*
X162696078Y-85290000D02*
X162178922Y-85290000D01*
X162696078Y-86710000D02*
X162178922Y-86710000D01*
X162646078Y-115190000D02*
X162128922Y-115190000D01*
X162646078Y-116610000D02*
X162128922Y-116610000D01*
D11*
X135958000Y-104484000D02*
G75*
G03X135958000Y-104484000I-1750000J0D01*
G01*
X124416666Y-93202380D02*
X124416666Y-93916666D01*
X124369047Y-94059523D01*
X124273809Y-94154761D01*
X124130952Y-94202380D01*
X124035714Y-94202380D01*
X124845238Y-93297619D02*
X124892857Y-93250000D01*
X124988095Y-93202380D01*
X125226190Y-93202380D01*
X125321428Y-93250000D01*
X125369047Y-93297619D01*
X125416666Y-93392857D01*
X125416666Y-93488095D01*
X125369047Y-93630952D01*
X124797619Y-94202380D01*
X125416666Y-94202380D01*
X122916666Y-85952380D02*
X122916666Y-86666666D01*
X122869047Y-86809523D01*
X122773809Y-86904761D01*
X122630952Y-86952380D01*
X122535714Y-86952380D01*
X123916666Y-86952380D02*
X123345238Y-86952380D01*
X123630952Y-86952380D02*
X123630952Y-85952380D01*
X123535714Y-86095238D01*
X123440476Y-86190476D01*
X123345238Y-86238095D01*
X128786761Y-110202380D02*
X128453428Y-109726190D01*
X128215333Y-110202380D02*
X128215333Y-109202380D01*
X128596285Y-109202380D01*
X128691523Y-109250000D01*
X128739142Y-109297619D01*
X128786761Y-109392857D01*
X128786761Y-109535714D01*
X128739142Y-109630952D01*
X128691523Y-109678571D01*
X128596285Y-109726190D01*
X128215333Y-109726190D01*
X129072476Y-109202380D02*
X129405809Y-110202380D01*
X129739142Y-109202380D01*
X130596285Y-110202380D02*
X130024857Y-110202380D01*
X130310571Y-110202380D02*
X130310571Y-109202380D01*
X130215333Y-109345238D01*
X130120095Y-109440476D01*
X130024857Y-109488095D01*
X142612095Y-82952380D02*
X143183523Y-82952380D01*
X142897809Y-83952380D02*
X142897809Y-82952380D01*
X144040666Y-83952380D02*
X143469238Y-83952380D01*
X143754952Y-83952380D02*
X143754952Y-82952380D01*
X143659714Y-83095238D01*
X143564476Y-83190476D01*
X143469238Y-83238095D01*
X142738095Y-110952380D02*
X143309523Y-110952380D01*
X143023809Y-111952380D02*
X143023809Y-110952380D01*
X143595238Y-111047619D02*
X143642857Y-111000000D01*
X143738095Y-110952380D01*
X143976190Y-110952380D01*
X144071428Y-111000000D01*
X144119047Y-111047619D01*
X144166666Y-111142857D01*
X144166666Y-111238095D01*
X144119047Y-111380952D01*
X143547619Y-111952380D01*
X144166666Y-111952380D01*
X126238095Y-103702380D02*
X126238095Y-104511904D01*
X126285714Y-104607142D01*
X126333333Y-104654761D01*
X126428571Y-104702380D01*
X126619047Y-104702380D01*
X126714285Y-104654761D01*
X126761904Y-104607142D01*
X126809523Y-104511904D01*
X126809523Y-103702380D01*
X127809523Y-104702380D02*
X127238095Y-104702380D01*
X127523809Y-104702380D02*
X127523809Y-103702380D01*
X127428571Y-103845238D01*
X127333333Y-103940476D01*
X127238095Y-103988095D01*
X130000000Y-102202380D02*
X130000000Y-102440476D01*
X129761904Y-102345238D02*
X130000000Y-102440476D01*
X130238095Y-102345238D01*
X129857142Y-102630952D02*
X130000000Y-102440476D01*
X130142857Y-102630952D01*
X121083333Y-105202380D02*
X120750000Y-104726190D01*
X120511904Y-105202380D02*
X120511904Y-104202380D01*
X120892857Y-104202380D01*
X120988095Y-104250000D01*
X121035714Y-104297619D01*
X121083333Y-104392857D01*
X121083333Y-104535714D01*
X121035714Y-104630952D01*
X120988095Y-104678571D01*
X120892857Y-104726190D01*
X120511904Y-104726190D01*
X121940476Y-104535714D02*
X121940476Y-105202380D01*
X121702380Y-104154761D02*
X121464285Y-104869047D01*
X122083333Y-104869047D01*
X121083333Y-103952380D02*
X120750000Y-103476190D01*
X120511904Y-103952380D02*
X120511904Y-102952380D01*
X120892857Y-102952380D01*
X120988095Y-103000000D01*
X121035714Y-103047619D01*
X121083333Y-103142857D01*
X121083333Y-103285714D01*
X121035714Y-103380952D01*
X120988095Y-103428571D01*
X120892857Y-103476190D01*
X120511904Y-103476190D01*
X121416666Y-102952380D02*
X122035714Y-102952380D01*
X121702380Y-103333333D01*
X121845238Y-103333333D01*
X121940476Y-103380952D01*
X121988095Y-103428571D01*
X122035714Y-103523809D01*
X122035714Y-103761904D01*
X121988095Y-103857142D01*
X121940476Y-103904761D01*
X121845238Y-103952380D01*
X121559523Y-103952380D01*
X121464285Y-103904761D01*
X121416666Y-103857142D01*
X127583333Y-88857142D02*
X127535714Y-88904761D01*
X127392857Y-88952380D01*
X127297619Y-88952380D01*
X127154761Y-88904761D01*
X127059523Y-88809523D01*
X127011904Y-88714285D01*
X126964285Y-88523809D01*
X126964285Y-88380952D01*
X127011904Y-88190476D01*
X127059523Y-88095238D01*
X127154761Y-88000000D01*
X127297619Y-87952380D01*
X127392857Y-87952380D01*
X127535714Y-88000000D01*
X127583333Y-88047619D01*
X128535714Y-88952380D02*
X127964285Y-88952380D01*
X128250000Y-88952380D02*
X128250000Y-87952380D01*
X128154761Y-88095238D01*
X128059523Y-88190476D01*
X127964285Y-88238095D01*
X134787142Y-85916666D02*
X134834761Y-85964285D01*
X134882380Y-86107142D01*
X134882380Y-86202380D01*
X134834761Y-86345238D01*
X134739523Y-86440476D01*
X134644285Y-86488095D01*
X134453809Y-86535714D01*
X134310952Y-86535714D01*
X134120476Y-86488095D01*
X134025238Y-86440476D01*
X133930000Y-86345238D01*
X133882380Y-86202380D01*
X133882380Y-86107142D01*
X133930000Y-85964285D01*
X133977619Y-85916666D01*
X133882380Y-85583333D02*
X133882380Y-84964285D01*
X134263333Y-85297619D01*
X134263333Y-85154761D01*
X134310952Y-85059523D01*
X134358571Y-85011904D01*
X134453809Y-84964285D01*
X134691904Y-84964285D01*
X134787142Y-85011904D01*
X134834761Y-85059523D01*
X134882380Y-85154761D01*
X134882380Y-85440476D01*
X134834761Y-85535714D01*
X134787142Y-85583333D01*
X135037142Y-114166666D02*
X135084761Y-114214285D01*
X135132380Y-114357142D01*
X135132380Y-114452380D01*
X135084761Y-114595238D01*
X134989523Y-114690476D01*
X134894285Y-114738095D01*
X134703809Y-114785714D01*
X134560952Y-114785714D01*
X134370476Y-114738095D01*
X134275238Y-114690476D01*
X134180000Y-114595238D01*
X134132380Y-114452380D01*
X134132380Y-114357142D01*
X134180000Y-114214285D01*
X134227619Y-114166666D01*
X134465714Y-113309523D02*
X135132380Y-113309523D01*
X134084761Y-113547619D02*
X134799047Y-113785714D01*
X134799047Y-113166666D01*
X128583333Y-83607142D02*
X128535714Y-83654761D01*
X128392857Y-83702380D01*
X128297619Y-83702380D01*
X128154761Y-83654761D01*
X128059523Y-83559523D01*
X128011904Y-83464285D01*
X127964285Y-83273809D01*
X127964285Y-83130952D01*
X128011904Y-82940476D01*
X128059523Y-82845238D01*
X128154761Y-82750000D01*
X128297619Y-82702380D01*
X128392857Y-82702380D01*
X128535714Y-82750000D01*
X128583333Y-82797619D01*
X129488095Y-82702380D02*
X129011904Y-82702380D01*
X128964285Y-83178571D01*
X129011904Y-83130952D01*
X129107142Y-83083333D01*
X129345238Y-83083333D01*
X129440476Y-83130952D01*
X129488095Y-83178571D01*
X129535714Y-83273809D01*
X129535714Y-83511904D01*
X129488095Y-83607142D01*
X129440476Y-83654761D01*
X129345238Y-83702380D01*
X129107142Y-83702380D01*
X129011904Y-83654761D01*
X128964285Y-83607142D01*
X128583333Y-82107142D02*
X128535714Y-82154761D01*
X128392857Y-82202380D01*
X128297619Y-82202380D01*
X128154761Y-82154761D01*
X128059523Y-82059523D01*
X128011904Y-81964285D01*
X127964285Y-81773809D01*
X127964285Y-81630952D01*
X128011904Y-81440476D01*
X128059523Y-81345238D01*
X128154761Y-81250000D01*
X128297619Y-81202380D01*
X128392857Y-81202380D01*
X128535714Y-81250000D01*
X128583333Y-81297619D01*
X129440476Y-81202380D02*
X129250000Y-81202380D01*
X129154761Y-81250000D01*
X129107142Y-81297619D01*
X129011904Y-81440476D01*
X128964285Y-81630952D01*
X128964285Y-82011904D01*
X129011904Y-82107142D01*
X129059523Y-82154761D01*
X129154761Y-82202380D01*
X129345238Y-82202380D01*
X129440476Y-82154761D01*
X129488095Y-82107142D01*
X129535714Y-82011904D01*
X129535714Y-81773809D01*
X129488095Y-81678571D01*
X129440476Y-81630952D01*
X129345238Y-81583333D01*
X129154761Y-81583333D01*
X129059523Y-81630952D01*
X129011904Y-81678571D01*
X128964285Y-81773809D01*
X137357142Y-94666666D02*
X137404761Y-94714285D01*
X137452380Y-94857142D01*
X137452380Y-94952380D01*
X137404761Y-95095238D01*
X137309523Y-95190476D01*
X137214285Y-95238095D01*
X137023809Y-95285714D01*
X136880952Y-95285714D01*
X136690476Y-95238095D01*
X136595238Y-95190476D01*
X136500000Y-95095238D01*
X136452380Y-94952380D01*
X136452380Y-94857142D01*
X136500000Y-94714285D01*
X136547619Y-94666666D01*
X136452380Y-94333333D02*
X136452380Y-93666666D01*
X137452380Y-94095238D01*
X121083333Y-102607142D02*
X121035714Y-102654761D01*
X120892857Y-102702380D01*
X120797619Y-102702380D01*
X120654761Y-102654761D01*
X120559523Y-102559523D01*
X120511904Y-102464285D01*
X120464285Y-102273809D01*
X120464285Y-102130952D01*
X120511904Y-101940476D01*
X120559523Y-101845238D01*
X120654761Y-101750000D01*
X120797619Y-101702380D01*
X120892857Y-101702380D01*
X121035714Y-101750000D01*
X121083333Y-101797619D01*
X121654761Y-102130952D02*
X121559523Y-102083333D01*
X121511904Y-102035714D01*
X121464285Y-101940476D01*
X121464285Y-101892857D01*
X121511904Y-101797619D01*
X121559523Y-101750000D01*
X121654761Y-101702380D01*
X121845238Y-101702380D01*
X121940476Y-101750000D01*
X121988095Y-101797619D01*
X122035714Y-101892857D01*
X122035714Y-101940476D01*
X121988095Y-102035714D01*
X121940476Y-102083333D01*
X121845238Y-102130952D01*
X121654761Y-102130952D01*
X121559523Y-102178571D01*
X121511904Y-102226190D01*
X121464285Y-102321428D01*
X121464285Y-102511904D01*
X121511904Y-102607142D01*
X121559523Y-102654761D01*
X121654761Y-102702380D01*
X121845238Y-102702380D01*
X121940476Y-102654761D01*
X121988095Y-102607142D01*
X122035714Y-102511904D01*
X122035714Y-102321428D01*
X121988095Y-102226190D01*
X121940476Y-102178571D01*
X121845238Y-102130952D01*
X128583333Y-85107142D02*
X128535714Y-85154761D01*
X128392857Y-85202380D01*
X128297619Y-85202380D01*
X128154761Y-85154761D01*
X128059523Y-85059523D01*
X128011904Y-84964285D01*
X127964285Y-84773809D01*
X127964285Y-84630952D01*
X128011904Y-84440476D01*
X128059523Y-84345238D01*
X128154761Y-84250000D01*
X128297619Y-84202380D01*
X128392857Y-84202380D01*
X128535714Y-84250000D01*
X128583333Y-84297619D01*
X129059523Y-85202380D02*
X129250000Y-85202380D01*
X129345238Y-85154761D01*
X129392857Y-85107142D01*
X129488095Y-84964285D01*
X129535714Y-84773809D01*
X129535714Y-84392857D01*
X129488095Y-84297619D01*
X129440476Y-84250000D01*
X129345238Y-84202380D01*
X129154761Y-84202380D01*
X129059523Y-84250000D01*
X129011904Y-84297619D01*
X128964285Y-84392857D01*
X128964285Y-84630952D01*
X129011904Y-84726190D01*
X129059523Y-84773809D01*
X129154761Y-84821428D01*
X129345238Y-84821428D01*
X129440476Y-84773809D01*
X129488095Y-84726190D01*
X129535714Y-84630952D01*
X153607142Y-83357142D02*
X153559523Y-83404761D01*
X153416666Y-83452380D01*
X153321428Y-83452380D01*
X153178571Y-83404761D01*
X153083333Y-83309523D01*
X153035714Y-83214285D01*
X152988095Y-83023809D01*
X152988095Y-82880952D01*
X153035714Y-82690476D01*
X153083333Y-82595238D01*
X153178571Y-82500000D01*
X153321428Y-82452380D01*
X153416666Y-82452380D01*
X153559523Y-82500000D01*
X153607142Y-82547619D01*
X154559523Y-83452380D02*
X153988095Y-83452380D01*
X154273809Y-83452380D02*
X154273809Y-82452380D01*
X154178571Y-82595238D01*
X154083333Y-82690476D01*
X153988095Y-82738095D01*
X155178571Y-82452380D02*
X155273809Y-82452380D01*
X155369047Y-82500000D01*
X155416666Y-82547619D01*
X155464285Y-82642857D01*
X155511904Y-82833333D01*
X155511904Y-83071428D01*
X155464285Y-83261904D01*
X155416666Y-83357142D01*
X155369047Y-83404761D01*
X155273809Y-83452380D01*
X155178571Y-83452380D01*
X155083333Y-83404761D01*
X155035714Y-83357142D01*
X154988095Y-83261904D01*
X154940476Y-83071428D01*
X154940476Y-82833333D01*
X154988095Y-82642857D01*
X155035714Y-82547619D01*
X155083333Y-82500000D01*
X155178571Y-82452380D01*
X153569642Y-111357142D02*
X153522023Y-111404761D01*
X153379166Y-111452380D01*
X153283928Y-111452380D01*
X153141071Y-111404761D01*
X153045833Y-111309523D01*
X152998214Y-111214285D01*
X152950595Y-111023809D01*
X152950595Y-110880952D01*
X152998214Y-110690476D01*
X153045833Y-110595238D01*
X153141071Y-110500000D01*
X153283928Y-110452380D01*
X153379166Y-110452380D01*
X153522023Y-110500000D01*
X153569642Y-110547619D01*
X154522023Y-111452380D02*
X153950595Y-111452380D01*
X154236309Y-111452380D02*
X154236309Y-110452380D01*
X154141071Y-110595238D01*
X154045833Y-110690476D01*
X153950595Y-110738095D01*
X155474404Y-111452380D02*
X154902976Y-111452380D01*
X155188690Y-111452380D02*
X155188690Y-110452380D01*
X155093452Y-110595238D01*
X154998214Y-110690476D01*
X154902976Y-110738095D01*
X149857142Y-94607142D02*
X149809523Y-94654761D01*
X149666666Y-94702380D01*
X149571428Y-94702380D01*
X149428571Y-94654761D01*
X149333333Y-94559523D01*
X149285714Y-94464285D01*
X149238095Y-94273809D01*
X149238095Y-94130952D01*
X149285714Y-93940476D01*
X149333333Y-93845238D01*
X149428571Y-93750000D01*
X149571428Y-93702380D01*
X149666666Y-93702380D01*
X149809523Y-93750000D01*
X149857142Y-93797619D01*
X150809523Y-94702380D02*
X150238095Y-94702380D01*
X150523809Y-94702380D02*
X150523809Y-93702380D01*
X150428571Y-93845238D01*
X150333333Y-93940476D01*
X150238095Y-93988095D01*
X151190476Y-93797619D02*
X151238095Y-93750000D01*
X151333333Y-93702380D01*
X151571428Y-93702380D01*
X151666666Y-93750000D01*
X151714285Y-93797619D01*
X151761904Y-93892857D01*
X151761904Y-93988095D01*
X151714285Y-94130952D01*
X151142857Y-94702380D01*
X151761904Y-94702380D01*
X149857142Y-122357142D02*
X149809523Y-122404761D01*
X149666666Y-122452380D01*
X149571428Y-122452380D01*
X149428571Y-122404761D01*
X149333333Y-122309523D01*
X149285714Y-122214285D01*
X149238095Y-122023809D01*
X149238095Y-121880952D01*
X149285714Y-121690476D01*
X149333333Y-121595238D01*
X149428571Y-121500000D01*
X149571428Y-121452380D01*
X149666666Y-121452380D01*
X149809523Y-121500000D01*
X149857142Y-121547619D01*
X150809523Y-122452380D02*
X150238095Y-122452380D01*
X150523809Y-122452380D02*
X150523809Y-121452380D01*
X150428571Y-121595238D01*
X150333333Y-121690476D01*
X150238095Y-121738095D01*
X151142857Y-121452380D02*
X151761904Y-121452380D01*
X151428571Y-121833333D01*
X151571428Y-121833333D01*
X151666666Y-121880952D01*
X151714285Y-121928571D01*
X151761904Y-122023809D01*
X151761904Y-122261904D01*
X151714285Y-122357142D01*
X151666666Y-122404761D01*
X151571428Y-122452380D01*
X151285714Y-122452380D01*
X151190476Y-122404761D01*
X151142857Y-122357142D01*
X157107142Y-96392857D02*
X157154761Y-96440476D01*
X157202380Y-96583333D01*
X157202380Y-96678571D01*
X157154761Y-96821428D01*
X157059523Y-96916666D01*
X156964285Y-96964285D01*
X156773809Y-97011904D01*
X156630952Y-97011904D01*
X156440476Y-96964285D01*
X156345238Y-96916666D01*
X156250000Y-96821428D01*
X156202380Y-96678571D01*
X156202380Y-96583333D01*
X156250000Y-96440476D01*
X156297619Y-96392857D01*
X157202380Y-95440476D02*
X157202380Y-96011904D01*
X157202380Y-95726190D02*
X156202380Y-95726190D01*
X156345238Y-95821428D01*
X156440476Y-95916666D01*
X156488095Y-96011904D01*
X156535714Y-94583333D02*
X157202380Y-94583333D01*
X156154761Y-94821428D02*
X156869047Y-95059523D01*
X156869047Y-94440476D01*
X159357142Y-123892857D02*
X159404761Y-123940476D01*
X159452380Y-124083333D01*
X159452380Y-124178571D01*
X159404761Y-124321428D01*
X159309523Y-124416666D01*
X159214285Y-124464285D01*
X159023809Y-124511904D01*
X158880952Y-124511904D01*
X158690476Y-124464285D01*
X158595238Y-124416666D01*
X158500000Y-124321428D01*
X158452380Y-124178571D01*
X158452380Y-124083333D01*
X158500000Y-123940476D01*
X158547619Y-123892857D01*
X159452380Y-122940476D02*
X159452380Y-123511904D01*
X159452380Y-123226190D02*
X158452380Y-123226190D01*
X158595238Y-123321428D01*
X158690476Y-123416666D01*
X158738095Y-123511904D01*
X158452380Y-122035714D02*
X158452380Y-122511904D01*
X158928571Y-122559523D01*
X158880952Y-122511904D01*
X158833333Y-122416666D01*
X158833333Y-122178571D01*
X158880952Y-122083333D01*
X158928571Y-122035714D01*
X159023809Y-121988095D01*
X159261904Y-121988095D01*
X159357142Y-122035714D01*
X159404761Y-122083333D01*
X159452380Y-122178571D01*
X159452380Y-122416666D01*
X159404761Y-122511904D01*
X159357142Y-122559523D01*
X159607142Y-96392857D02*
X159654761Y-96440476D01*
X159702380Y-96583333D01*
X159702380Y-96678571D01*
X159654761Y-96821428D01*
X159559523Y-96916666D01*
X159464285Y-96964285D01*
X159273809Y-97011904D01*
X159130952Y-97011904D01*
X158940476Y-96964285D01*
X158845238Y-96916666D01*
X158750000Y-96821428D01*
X158702380Y-96678571D01*
X158702380Y-96583333D01*
X158750000Y-96440476D01*
X158797619Y-96392857D01*
X159702380Y-95440476D02*
X159702380Y-96011904D01*
X159702380Y-95726190D02*
X158702380Y-95726190D01*
X158845238Y-95821428D01*
X158940476Y-95916666D01*
X158988095Y-96011904D01*
X158702380Y-94583333D02*
X158702380Y-94773809D01*
X158750000Y-94869047D01*
X158797619Y-94916666D01*
X158940476Y-95011904D01*
X159130952Y-95059523D01*
X159511904Y-95059523D01*
X159607142Y-95011904D01*
X159654761Y-94964285D01*
X159702380Y-94869047D01*
X159702380Y-94678571D01*
X159654761Y-94583333D01*
X159607142Y-94535714D01*
X159511904Y-94488095D01*
X159273809Y-94488095D01*
X159178571Y-94535714D01*
X159130952Y-94583333D01*
X159083333Y-94678571D01*
X159083333Y-94869047D01*
X159130952Y-94964285D01*
X159178571Y-95011904D01*
X159273809Y-95059523D01*
X157107142Y-123892857D02*
X157154761Y-123940476D01*
X157202380Y-124083333D01*
X157202380Y-124178571D01*
X157154761Y-124321428D01*
X157059523Y-124416666D01*
X156964285Y-124464285D01*
X156773809Y-124511904D01*
X156630952Y-124511904D01*
X156440476Y-124464285D01*
X156345238Y-124416666D01*
X156250000Y-124321428D01*
X156202380Y-124178571D01*
X156202380Y-124083333D01*
X156250000Y-123940476D01*
X156297619Y-123892857D01*
X157202380Y-122940476D02*
X157202380Y-123511904D01*
X157202380Y-123226190D02*
X156202380Y-123226190D01*
X156345238Y-123321428D01*
X156440476Y-123416666D01*
X156488095Y-123511904D01*
X156202380Y-122607142D02*
X156202380Y-121940476D01*
X157202380Y-122369047D01*
X161607142Y-84607142D02*
X161559523Y-84654761D01*
X161416666Y-84702380D01*
X161321428Y-84702380D01*
X161178571Y-84654761D01*
X161083333Y-84559523D01*
X161035714Y-84464285D01*
X160988095Y-84273809D01*
X160988095Y-84130952D01*
X161035714Y-83940476D01*
X161083333Y-83845238D01*
X161178571Y-83750000D01*
X161321428Y-83702380D01*
X161416666Y-83702380D01*
X161559523Y-83750000D01*
X161607142Y-83797619D01*
X162559523Y-84702380D02*
X161988095Y-84702380D01*
X162273809Y-84702380D02*
X162273809Y-83702380D01*
X162178571Y-83845238D01*
X162083333Y-83940476D01*
X161988095Y-83988095D01*
X163130952Y-84130952D02*
X163035714Y-84083333D01*
X162988095Y-84035714D01*
X162940476Y-83940476D01*
X162940476Y-83892857D01*
X162988095Y-83797619D01*
X163035714Y-83750000D01*
X163130952Y-83702380D01*
X163321428Y-83702380D01*
X163416666Y-83750000D01*
X163464285Y-83797619D01*
X163511904Y-83892857D01*
X163511904Y-83940476D01*
X163464285Y-84035714D01*
X163416666Y-84083333D01*
X163321428Y-84130952D01*
X163130952Y-84130952D01*
X163035714Y-84178571D01*
X162988095Y-84226190D01*
X162940476Y-84321428D01*
X162940476Y-84511904D01*
X162988095Y-84607142D01*
X163035714Y-84654761D01*
X163130952Y-84702380D01*
X163321428Y-84702380D01*
X163416666Y-84654761D01*
X163464285Y-84607142D01*
X163511904Y-84511904D01*
X163511904Y-84321428D01*
X163464285Y-84226190D01*
X163416666Y-84178571D01*
X163321428Y-84130952D01*
X162107142Y-96507142D02*
X162059523Y-96554761D01*
X161916666Y-96602380D01*
X161821428Y-96602380D01*
X161678571Y-96554761D01*
X161583333Y-96459523D01*
X161535714Y-96364285D01*
X161488095Y-96173809D01*
X161488095Y-96030952D01*
X161535714Y-95840476D01*
X161583333Y-95745238D01*
X161678571Y-95650000D01*
X161821428Y-95602380D01*
X161916666Y-95602380D01*
X162059523Y-95650000D01*
X162107142Y-95697619D01*
X163059523Y-96602380D02*
X162488095Y-96602380D01*
X162773809Y-96602380D02*
X162773809Y-95602380D01*
X162678571Y-95745238D01*
X162583333Y-95840476D01*
X162488095Y-95888095D01*
X163535714Y-96602380D02*
X163726190Y-96602380D01*
X163821428Y-96554761D01*
X163869047Y-96507142D01*
X163964285Y-96364285D01*
X164011904Y-96173809D01*
X164011904Y-95792857D01*
X163964285Y-95697619D01*
X163916666Y-95650000D01*
X163821428Y-95602380D01*
X163630952Y-95602380D01*
X163535714Y-95650000D01*
X163488095Y-95697619D01*
X163440476Y-95792857D01*
X163440476Y-96030952D01*
X163488095Y-96126190D01*
X163535714Y-96173809D01*
X163630952Y-96221428D01*
X163821428Y-96221428D01*
X163916666Y-96173809D01*
X163964285Y-96126190D01*
X164011904Y-96030952D01*
X158357142Y-115857142D02*
X158309523Y-115904761D01*
X158166666Y-115952380D01*
X158071428Y-115952380D01*
X157928571Y-115904761D01*
X157833333Y-115809523D01*
X157785714Y-115714285D01*
X157738095Y-115523809D01*
X157738095Y-115380952D01*
X157785714Y-115190476D01*
X157833333Y-115095238D01*
X157928571Y-115000000D01*
X158071428Y-114952380D01*
X158166666Y-114952380D01*
X158309523Y-115000000D01*
X158357142Y-115047619D01*
X158738095Y-115047619D02*
X158785714Y-115000000D01*
X158880952Y-114952380D01*
X159119047Y-114952380D01*
X159214285Y-115000000D01*
X159261904Y-115047619D01*
X159309523Y-115142857D01*
X159309523Y-115238095D01*
X159261904Y-115380952D01*
X158690476Y-115952380D01*
X159309523Y-115952380D01*
X159928571Y-114952380D02*
X160023809Y-114952380D01*
X160119047Y-115000000D01*
X160166666Y-115047619D01*
X160214285Y-115142857D01*
X160261904Y-115333333D01*
X160261904Y-115571428D01*
X160214285Y-115761904D01*
X160166666Y-115857142D01*
X160119047Y-115904761D01*
X160023809Y-115952380D01*
X159928571Y-115952380D01*
X159833333Y-115904761D01*
X159785714Y-115857142D01*
X159738095Y-115761904D01*
X159690476Y-115571428D01*
X159690476Y-115333333D01*
X159738095Y-115142857D01*
X159785714Y-115047619D01*
X159833333Y-115000000D01*
X159928571Y-114952380D01*
X162044642Y-124407142D02*
X161997023Y-124454761D01*
X161854166Y-124502380D01*
X161758928Y-124502380D01*
X161616071Y-124454761D01*
X161520833Y-124359523D01*
X161473214Y-124264285D01*
X161425595Y-124073809D01*
X161425595Y-123930952D01*
X161473214Y-123740476D01*
X161520833Y-123645238D01*
X161616071Y-123550000D01*
X161758928Y-123502380D01*
X161854166Y-123502380D01*
X161997023Y-123550000D01*
X162044642Y-123597619D01*
X162425595Y-123597619D02*
X162473214Y-123550000D01*
X162568452Y-123502380D01*
X162806547Y-123502380D01*
X162901785Y-123550000D01*
X162949404Y-123597619D01*
X162997023Y-123692857D01*
X162997023Y-123788095D01*
X162949404Y-123930952D01*
X162377976Y-124502380D01*
X162997023Y-124502380D01*
X163949404Y-124502380D02*
X163377976Y-124502380D01*
X163663690Y-124502380D02*
X163663690Y-123502380D01*
X163568452Y-123645238D01*
X163473214Y-123740476D01*
X163377976Y-123788095D01*
X130952380Y-83738095D02*
X129952380Y-83738095D01*
X129952380Y-83500000D01*
X130000000Y-83357142D01*
X130095238Y-83261904D01*
X130190476Y-83214285D01*
X130380952Y-83166666D01*
X130523809Y-83166666D01*
X130714285Y-83214285D01*
X130809523Y-83261904D01*
X130904761Y-83357142D01*
X130952380Y-83500000D01*
X130952380Y-83738095D01*
X130952380Y-82214285D02*
X130952380Y-82785714D01*
X130952380Y-82500000D02*
X129952380Y-82500000D01*
X130095238Y-82595238D01*
X130190476Y-82690476D01*
X130238095Y-82785714D01*
X137452380Y-101988095D02*
X136452380Y-101988095D01*
X136452380Y-101750000D01*
X136500000Y-101607142D01*
X136595238Y-101511904D01*
X136690476Y-101464285D01*
X136880952Y-101416666D01*
X137023809Y-101416666D01*
X137214285Y-101464285D01*
X137309523Y-101511904D01*
X137404761Y-101607142D01*
X137452380Y-101750000D01*
X137452380Y-101988095D01*
X136547619Y-101035714D02*
X136500000Y-100988095D01*
X136452380Y-100892857D01*
X136452380Y-100654761D01*
X136500000Y-100559523D01*
X136547619Y-100511904D01*
X136642857Y-100464285D01*
X136738095Y-100464285D01*
X136880952Y-100511904D01*
X137452380Y-101083333D01*
X137452380Y-100464285D01*
X154011904Y-87702380D02*
X154011904Y-86702380D01*
X154250000Y-86702380D01*
X154392857Y-86750000D01*
X154488095Y-86845238D01*
X154535714Y-86940476D01*
X154583333Y-87130952D01*
X154583333Y-87273809D01*
X154535714Y-87464285D01*
X154488095Y-87559523D01*
X154392857Y-87654761D01*
X154250000Y-87702380D01*
X154011904Y-87702380D01*
X154916666Y-86702380D02*
X155535714Y-86702380D01*
X155202380Y-87083333D01*
X155345238Y-87083333D01*
X155440476Y-87130952D01*
X155488095Y-87178571D01*
X155535714Y-87273809D01*
X155535714Y-87511904D01*
X155488095Y-87607142D01*
X155440476Y-87654761D01*
X155345238Y-87702380D01*
X155059523Y-87702380D01*
X154964285Y-87654761D01*
X154916666Y-87607142D01*
X153761904Y-115702380D02*
X153761904Y-114702380D01*
X154000000Y-114702380D01*
X154142857Y-114750000D01*
X154238095Y-114845238D01*
X154285714Y-114940476D01*
X154333333Y-115130952D01*
X154333333Y-115273809D01*
X154285714Y-115464285D01*
X154238095Y-115559523D01*
X154142857Y-115654761D01*
X154000000Y-115702380D01*
X153761904Y-115702380D01*
X155190476Y-115035714D02*
X155190476Y-115702380D01*
X154952380Y-114654761D02*
X154714285Y-115369047D01*
X155333333Y-115369047D01*
X162011904Y-92702380D02*
X162011904Y-91702380D01*
X162250000Y-91702380D01*
X162392857Y-91750000D01*
X162488095Y-91845238D01*
X162535714Y-91940476D01*
X162583333Y-92130952D01*
X162583333Y-92273809D01*
X162535714Y-92464285D01*
X162488095Y-92559523D01*
X162392857Y-92654761D01*
X162250000Y-92702380D01*
X162011904Y-92702380D01*
X163488095Y-91702380D02*
X163011904Y-91702380D01*
X162964285Y-92178571D01*
X163011904Y-92130952D01*
X163107142Y-92083333D01*
X163345238Y-92083333D01*
X163440476Y-92130952D01*
X163488095Y-92178571D01*
X163535714Y-92273809D01*
X163535714Y-92511904D01*
X163488095Y-92607142D01*
X163440476Y-92654761D01*
X163345238Y-92702380D01*
X163107142Y-92702380D01*
X163011904Y-92654761D01*
X162964285Y-92607142D01*
X162011904Y-120702380D02*
X162011904Y-119702380D01*
X162250000Y-119702380D01*
X162392857Y-119750000D01*
X162488095Y-119845238D01*
X162535714Y-119940476D01*
X162583333Y-120130952D01*
X162583333Y-120273809D01*
X162535714Y-120464285D01*
X162488095Y-120559523D01*
X162392857Y-120654761D01*
X162250000Y-120702380D01*
X162011904Y-120702380D01*
X163440476Y-119702380D02*
X163250000Y-119702380D01*
X163154761Y-119750000D01*
X163107142Y-119797619D01*
X163011904Y-119940476D01*
X162964285Y-120130952D01*
X162964285Y-120511904D01*
X163011904Y-120607142D01*
X163059523Y-120654761D01*
X163154761Y-120702380D01*
X163345238Y-120702380D01*
X163440476Y-120654761D01*
X163488095Y-120607142D01*
X163535714Y-120511904D01*
X163535714Y-120273809D01*
X163488095Y-120178571D01*
X163440476Y-120130952D01*
X163345238Y-120083333D01*
X163154761Y-120083333D01*
X163059523Y-120130952D01*
X163011904Y-120178571D01*
X162964285Y-120273809D01*
X164011904Y-90452380D02*
X164011904Y-89452380D01*
X164250000Y-89452380D01*
X164392857Y-89500000D01*
X164488095Y-89595238D01*
X164535714Y-89690476D01*
X164583333Y-89880952D01*
X164583333Y-90023809D01*
X164535714Y-90214285D01*
X164488095Y-90309523D01*
X164392857Y-90404761D01*
X164250000Y-90452380D01*
X164011904Y-90452380D01*
X164916666Y-89452380D02*
X165583333Y-89452380D01*
X165154761Y-90452380D01*
X163909523Y-118361904D02*
X163909523Y-117561904D01*
X164100000Y-117561904D01*
X164214285Y-117600000D01*
X164290476Y-117676190D01*
X164328571Y-117752380D01*
X164366666Y-117904761D01*
X164366666Y-118019047D01*
X164328571Y-118171428D01*
X164290476Y-118247619D01*
X164214285Y-118323809D01*
X164100000Y-118361904D01*
X163909523Y-118361904D01*
X164823809Y-117904761D02*
X164747619Y-117866666D01*
X164709523Y-117828571D01*
X164671428Y-117752380D01*
X164671428Y-117714285D01*
X164709523Y-117638095D01*
X164747619Y-117600000D01*
X164823809Y-117561904D01*
X164976190Y-117561904D01*
X165052380Y-117600000D01*
X165090476Y-117638095D01*
X165128571Y-117714285D01*
X165128571Y-117752380D01*
X165090476Y-117828571D01*
X165052380Y-117866666D01*
X164976190Y-117904761D01*
X164823809Y-117904761D01*
X164747619Y-117942857D01*
X164709523Y-117980952D01*
X164671428Y-118057142D01*
X164671428Y-118209523D01*
X164709523Y-118285714D01*
X164747619Y-118323809D01*
X164823809Y-118361904D01*
X164976190Y-118361904D01*
X165052380Y-118323809D01*
X165090476Y-118285714D01*
X165128571Y-118209523D01*
X165128571Y-118057142D01*
X165090476Y-117980952D01*
X165052380Y-117942857D01*
X164976190Y-117904761D01*
X130666666Y-89428571D02*
X130333333Y-89428571D01*
X130333333Y-89952380D02*
X130333333Y-88952380D01*
X130809523Y-88952380D01*
X131523809Y-89428571D02*
X131666666Y-89476190D01*
X131714285Y-89523809D01*
X131761904Y-89619047D01*
X131761904Y-89761904D01*
X131714285Y-89857142D01*
X131666666Y-89904761D01*
X131571428Y-89952380D01*
X131190476Y-89952380D01*
X131190476Y-88952380D01*
X131523809Y-88952380D01*
X131619047Y-89000000D01*
X131666666Y-89047619D01*
X131714285Y-89142857D01*
X131714285Y-89238095D01*
X131666666Y-89333333D01*
X131619047Y-89380952D01*
X131523809Y-89428571D01*
X131190476Y-89428571D01*
X132714285Y-89952380D02*
X132142857Y-89952380D01*
X132428571Y-89952380D02*
X132428571Y-88952380D01*
X132333333Y-89095238D01*
X132238095Y-89190476D01*
X132142857Y-89238095D01*
X152954166Y-90928571D02*
X152620833Y-90928571D01*
X152620833Y-91452380D02*
X152620833Y-90452380D01*
X153097023Y-90452380D01*
X153811309Y-90928571D02*
X153954166Y-90976190D01*
X154001785Y-91023809D01*
X154049404Y-91119047D01*
X154049404Y-91261904D01*
X154001785Y-91357142D01*
X153954166Y-91404761D01*
X153858928Y-91452380D01*
X153477976Y-91452380D01*
X153477976Y-90452380D01*
X153811309Y-90452380D01*
X153906547Y-90500000D01*
X153954166Y-90547619D01*
X154001785Y-90642857D01*
X154001785Y-90738095D01*
X153954166Y-90833333D01*
X153906547Y-90880952D01*
X153811309Y-90928571D01*
X153477976Y-90928571D01*
X154430357Y-90547619D02*
X154477976Y-90500000D01*
X154573214Y-90452380D01*
X154811309Y-90452380D01*
X154906547Y-90500000D01*
X154954166Y-90547619D01*
X155001785Y-90642857D01*
X155001785Y-90738095D01*
X154954166Y-90880952D01*
X154382738Y-91452380D01*
X155001785Y-91452380D01*
X152916666Y-93928571D02*
X152583333Y-93928571D01*
X152583333Y-94452380D02*
X152583333Y-93452380D01*
X153059523Y-93452380D01*
X153773809Y-93928571D02*
X153916666Y-93976190D01*
X153964285Y-94023809D01*
X154011904Y-94119047D01*
X154011904Y-94261904D01*
X153964285Y-94357142D01*
X153916666Y-94404761D01*
X153821428Y-94452380D01*
X153440476Y-94452380D01*
X153440476Y-93452380D01*
X153773809Y-93452380D01*
X153869047Y-93500000D01*
X153916666Y-93547619D01*
X153964285Y-93642857D01*
X153964285Y-93738095D01*
X153916666Y-93833333D01*
X153869047Y-93880952D01*
X153773809Y-93928571D01*
X153440476Y-93928571D01*
X154345238Y-93452380D02*
X154964285Y-93452380D01*
X154630952Y-93833333D01*
X154773809Y-93833333D01*
X154869047Y-93880952D01*
X154916666Y-93928571D01*
X154964285Y-94023809D01*
X154964285Y-94261904D01*
X154916666Y-94357142D01*
X154869047Y-94404761D01*
X154773809Y-94452380D01*
X154488095Y-94452380D01*
X154392857Y-94404761D01*
X154345238Y-94357142D01*
X152904166Y-118758571D02*
X152570833Y-118758571D01*
X152570833Y-119282380D02*
X152570833Y-118282380D01*
X153047023Y-118282380D01*
X153761309Y-118758571D02*
X153904166Y-118806190D01*
X153951785Y-118853809D01*
X153999404Y-118949047D01*
X153999404Y-119091904D01*
X153951785Y-119187142D01*
X153904166Y-119234761D01*
X153808928Y-119282380D01*
X153427976Y-119282380D01*
X153427976Y-118282380D01*
X153761309Y-118282380D01*
X153856547Y-118330000D01*
X153904166Y-118377619D01*
X153951785Y-118472857D01*
X153951785Y-118568095D01*
X153904166Y-118663333D01*
X153856547Y-118710952D01*
X153761309Y-118758571D01*
X153427976Y-118758571D01*
X154856547Y-118615714D02*
X154856547Y-119282380D01*
X154618452Y-118234761D02*
X154380357Y-118949047D01*
X154999404Y-118949047D01*
X152866666Y-121758571D02*
X152533333Y-121758571D01*
X152533333Y-122282380D02*
X152533333Y-121282380D01*
X153009523Y-121282380D01*
X153723809Y-121758571D02*
X153866666Y-121806190D01*
X153914285Y-121853809D01*
X153961904Y-121949047D01*
X153961904Y-122091904D01*
X153914285Y-122187142D01*
X153866666Y-122234761D01*
X153771428Y-122282380D01*
X153390476Y-122282380D01*
X153390476Y-121282380D01*
X153723809Y-121282380D01*
X153819047Y-121330000D01*
X153866666Y-121377619D01*
X153914285Y-121472857D01*
X153914285Y-121568095D01*
X153866666Y-121663333D01*
X153819047Y-121710952D01*
X153723809Y-121758571D01*
X153390476Y-121758571D01*
X154866666Y-121282380D02*
X154390476Y-121282380D01*
X154342857Y-121758571D01*
X154390476Y-121710952D01*
X154485714Y-121663333D01*
X154723809Y-121663333D01*
X154819047Y-121710952D01*
X154866666Y-121758571D01*
X154914285Y-121853809D01*
X154914285Y-122091904D01*
X154866666Y-122187142D01*
X154819047Y-122234761D01*
X154723809Y-122282380D01*
X154485714Y-122282380D01*
X154390476Y-122234761D01*
X154342857Y-122187142D01*
X167166666Y-95952380D02*
X167166666Y-96666666D01*
X167119047Y-96809523D01*
X167023809Y-96904761D01*
X166880952Y-96952380D01*
X166785714Y-96952380D01*
X167547619Y-95952380D02*
X168166666Y-95952380D01*
X167833333Y-96333333D01*
X167976190Y-96333333D01*
X168071428Y-96380952D01*
X168119047Y-96428571D01*
X168166666Y-96523809D01*
X168166666Y-96761904D01*
X168119047Y-96857142D01*
X168071428Y-96904761D01*
X167976190Y-96952380D01*
X167690476Y-96952380D01*
X167595238Y-96904761D01*
X167547619Y-96857142D01*
X166916666Y-113452380D02*
X166916666Y-114166666D01*
X166869047Y-114309523D01*
X166773809Y-114404761D01*
X166630952Y-114452380D01*
X166535714Y-114452380D01*
X167821428Y-113785714D02*
X167821428Y-114452380D01*
X167583333Y-113404761D02*
X167345238Y-114119047D01*
X167964285Y-114119047D01*
X137326380Y-98222166D02*
X136850190Y-98555500D01*
X137326380Y-98793595D02*
X136326380Y-98793595D01*
X136326380Y-98412642D01*
X136374000Y-98317404D01*
X136421619Y-98269785D01*
X136516857Y-98222166D01*
X136659714Y-98222166D01*
X136754952Y-98269785D01*
X136802571Y-98317404D01*
X136850190Y-98412642D01*
X136850190Y-98793595D01*
X136326380Y-97365023D02*
X136326380Y-97555500D01*
X136374000Y-97650738D01*
X136421619Y-97698357D01*
X136564476Y-97793595D01*
X136754952Y-97841214D01*
X137135904Y-97841214D01*
X137231142Y-97793595D01*
X137278761Y-97745976D01*
X137326380Y-97650738D01*
X137326380Y-97460261D01*
X137278761Y-97365023D01*
X137231142Y-97317404D01*
X137135904Y-97269785D01*
X136897809Y-97269785D01*
X136802571Y-97317404D01*
X136754952Y-97365023D01*
X136707333Y-97460261D01*
X136707333Y-97650738D01*
X136754952Y-97745976D01*
X136802571Y-97793595D01*
X136897809Y-97841214D01*
X150395833Y-83552380D02*
X150062500Y-83076190D01*
X149824404Y-83552380D02*
X149824404Y-82552380D01*
X150205357Y-82552380D01*
X150300595Y-82600000D01*
X150348214Y-82647619D01*
X150395833Y-82742857D01*
X150395833Y-82885714D01*
X150348214Y-82980952D01*
X150300595Y-83028571D01*
X150205357Y-83076190D01*
X149824404Y-83076190D01*
X150729166Y-82552380D02*
X151395833Y-82552380D01*
X150967261Y-83552380D01*
X150383333Y-111502380D02*
X150050000Y-111026190D01*
X149811904Y-111502380D02*
X149811904Y-110502380D01*
X150192857Y-110502380D01*
X150288095Y-110550000D01*
X150335714Y-110597619D01*
X150383333Y-110692857D01*
X150383333Y-110835714D01*
X150335714Y-110930952D01*
X150288095Y-110978571D01*
X150192857Y-111026190D01*
X149811904Y-111026190D01*
X150954761Y-110930952D02*
X150859523Y-110883333D01*
X150811904Y-110835714D01*
X150764285Y-110740476D01*
X150764285Y-110692857D01*
X150811904Y-110597619D01*
X150859523Y-110550000D01*
X150954761Y-110502380D01*
X151145238Y-110502380D01*
X151240476Y-110550000D01*
X151288095Y-110597619D01*
X151335714Y-110692857D01*
X151335714Y-110740476D01*
X151288095Y-110835714D01*
X151240476Y-110883333D01*
X151145238Y-110930952D01*
X150954761Y-110930952D01*
X150859523Y-110978571D01*
X150811904Y-111026190D01*
X150764285Y-111121428D01*
X150764285Y-111311904D01*
X150811904Y-111407142D01*
X150859523Y-111454761D01*
X150954761Y-111502380D01*
X151145238Y-111502380D01*
X151240476Y-111454761D01*
X151288095Y-111407142D01*
X151335714Y-111311904D01*
X151335714Y-111121428D01*
X151288095Y-111026190D01*
X151240476Y-110978571D01*
X151145238Y-110930952D01*
X162083333Y-83202380D02*
X161750000Y-82726190D01*
X161511904Y-83202380D02*
X161511904Y-82202380D01*
X161892857Y-82202380D01*
X161988095Y-82250000D01*
X162035714Y-82297619D01*
X162083333Y-82392857D01*
X162083333Y-82535714D01*
X162035714Y-82630952D01*
X161988095Y-82678571D01*
X161892857Y-82726190D01*
X161511904Y-82726190D01*
X162559523Y-83202380D02*
X162750000Y-83202380D01*
X162845238Y-83154761D01*
X162892857Y-83107142D01*
X162988095Y-82964285D01*
X163035714Y-82773809D01*
X163035714Y-82392857D01*
X162988095Y-82297619D01*
X162940476Y-82250000D01*
X162845238Y-82202380D01*
X162654761Y-82202380D01*
X162559523Y-82250000D01*
X162511904Y-82297619D01*
X162464285Y-82392857D01*
X162464285Y-82630952D01*
X162511904Y-82726190D01*
X162559523Y-82773809D01*
X162654761Y-82821428D01*
X162845238Y-82821428D01*
X162940476Y-82773809D01*
X162988095Y-82726190D01*
X163035714Y-82630952D01*
X158357142Y-114202380D02*
X158023809Y-113726190D01*
X157785714Y-114202380D02*
X157785714Y-113202380D01*
X158166666Y-113202380D01*
X158261904Y-113250000D01*
X158309523Y-113297619D01*
X158357142Y-113392857D01*
X158357142Y-113535714D01*
X158309523Y-113630952D01*
X158261904Y-113678571D01*
X158166666Y-113726190D01*
X157785714Y-113726190D01*
X159309523Y-114202380D02*
X158738095Y-114202380D01*
X159023809Y-114202380D02*
X159023809Y-113202380D01*
X158928571Y-113345238D01*
X158833333Y-113440476D01*
X158738095Y-113488095D01*
X159928571Y-113202380D02*
X160023809Y-113202380D01*
X160119047Y-113250000D01*
X160166666Y-113297619D01*
X160214285Y-113392857D01*
X160261904Y-113583333D01*
X160261904Y-113821428D01*
X160214285Y-114011904D01*
X160166666Y-114107142D01*
X160119047Y-114154761D01*
X160023809Y-114202380D01*
X159928571Y-114202380D01*
X159833333Y-114154761D01*
X159785714Y-114107142D01*
X159738095Y-114011904D01*
X159690476Y-113821428D01*
X159690476Y-113583333D01*
X159738095Y-113392857D01*
X159785714Y-113297619D01*
X159833333Y-113250000D01*
X159928571Y-113202380D01*
X133392857Y-107904761D02*
X133535714Y-107952380D01*
X133773809Y-107952380D01*
X133869047Y-107904761D01*
X133916666Y-107857142D01*
X133964285Y-107761904D01*
X133964285Y-107666666D01*
X133916666Y-107571428D01*
X133869047Y-107523809D01*
X133773809Y-107476190D01*
X133583333Y-107428571D01*
X133488095Y-107380952D01*
X133440476Y-107333333D01*
X133392857Y-107238095D01*
X133392857Y-107142857D01*
X133440476Y-107047619D01*
X133488095Y-107000000D01*
X133583333Y-106952380D01*
X133821428Y-106952380D01*
X133964285Y-107000000D01*
X134297619Y-106952380D02*
X134535714Y-107952380D01*
X134726190Y-107238095D01*
X134916666Y-107952380D01*
X135154761Y-106952380D01*
M02*
