%TF.GenerationSoftware,KiCad,Pcbnew,6.0.8-f2edbf62ab~116~ubuntu22.04.1*%
%TF.CreationDate,2022-10-03T01:52:07+02:00*%
%TF.ProjectId,relay_brd,72656c61-795f-4627-9264-2e6b69636164,rev?*%
%TF.SameCoordinates,Original*%
%TF.FileFunction,Soldermask,Top*%
%TF.FilePolarity,Negative*%
%FSLAX46Y46*%
G04 Gerber Fmt 4.6, Leading zero omitted, Abs format (unit mm)*
G04 Created by KiCad (PCBNEW 6.0.8-f2edbf62ab~116~ubuntu22.04.1) date 2022-10-03 01:52:07*
%MOMM*%
%LPD*%
G01*
G04 APERTURE LIST*
G04 Aperture macros list*
%AMRoundRect*
0 Rectangle with rounded corners*
0 $1 Rounding radius*
0 $2 $3 $4 $5 $6 $7 $8 $9 X,Y pos of 4 corners*
0 Add a 4 corners polygon primitive as box body*
4,1,4,$2,$3,$4,$5,$6,$7,$8,$9,$2,$3,0*
0 Add four circle primitives for the rounded corners*
1,1,$1+$1,$2,$3*
1,1,$1+$1,$4,$5*
1,1,$1+$1,$6,$7*
1,1,$1+$1,$8,$9*
0 Add four rect primitives between the rounded corners*
20,1,$1+$1,$2,$3,$4,$5,0*
20,1,$1+$1,$4,$5,$6,$7,0*
20,1,$1+$1,$6,$7,$8,$9,0*
20,1,$1+$1,$8,$9,$2,$3,0*%
%AMFreePoly0*
4,1,22,0.550000,-0.750000,0.000000,-0.750000,0.000000,-0.745033,-0.079941,-0.743568,-0.215256,-0.701293,-0.333266,-0.622738,-0.424486,-0.514219,-0.481581,-0.384460,-0.499164,-0.250000,-0.500000,-0.250000,-0.500000,0.250000,-0.499164,0.250000,-0.499963,0.256109,-0.478152,0.396186,-0.417904,0.524511,-0.324060,0.630769,-0.204165,0.706417,-0.067858,0.745374,0.000000,0.744959,0.000000,0.750000,
0.550000,0.750000,0.550000,-0.750000,0.550000,-0.750000,$1*%
%AMFreePoly1*
4,1,20,0.000000,0.744959,0.073905,0.744508,0.209726,0.703889,0.328688,0.626782,0.421226,0.519385,0.479903,0.390333,0.500000,0.250000,0.500000,-0.250000,0.499851,-0.262216,0.476331,-0.402017,0.414519,-0.529596,0.319384,-0.634700,0.198574,-0.708877,0.061801,-0.746166,0.000000,-0.745033,0.000000,-0.750000,-0.550000,-0.750000,-0.550000,0.750000,0.000000,0.750000,0.000000,0.744959,
0.000000,0.744959,$1*%
G04 Aperture macros list end*
%ADD10RoundRect,0.200000X0.200000X0.275000X-0.200000X0.275000X-0.200000X-0.275000X0.200000X-0.275000X0*%
%ADD11RoundRect,0.150000X-0.150000X0.587500X-0.150000X-0.587500X0.150000X-0.587500X0.150000X0.587500X0*%
%ADD12C,2.000000*%
%ADD13RoundRect,0.200000X-0.200000X-0.275000X0.200000X-0.275000X0.200000X0.275000X-0.200000X0.275000X0*%
%ADD14R,1.600000X1.600000*%
%ADD15C,1.600000*%
%ADD16R,1.400000X1.400000*%
%ADD17C,1.400000*%
%ADD18RoundRect,0.243750X0.456250X-0.243750X0.456250X0.243750X-0.456250X0.243750X-0.456250X-0.243750X0*%
%ADD19RoundRect,0.200000X-0.275000X0.200000X-0.275000X-0.200000X0.275000X-0.200000X0.275000X0.200000X0*%
%ADD20R,1.700000X1.700000*%
%ADD21O,1.700000X1.700000*%
%ADD22R,1.200000X0.900000*%
%ADD23RoundRect,0.150000X0.150000X-0.587500X0.150000X0.587500X-0.150000X0.587500X-0.150000X-0.587500X0*%
%ADD24C,4.300000*%
%ADD25R,2.200000X2.200000*%
%ADD26O,2.200000X2.200000*%
%ADD27RoundRect,0.225000X-0.250000X0.225000X-0.250000X-0.225000X0.250000X-0.225000X0.250000X0.225000X0*%
%ADD28R,1.905000X2.000000*%
%ADD29O,1.905000X2.000000*%
%ADD30RoundRect,0.243750X-0.456250X0.243750X-0.456250X-0.243750X0.456250X-0.243750X0.456250X0.243750X0*%
%ADD31O,1.600000X1.600000*%
%ADD32FreePoly0,180.000000*%
%ADD33R,1.000000X1.500000*%
%ADD34FreePoly1,180.000000*%
%ADD35R,1.600000X2.400000*%
%ADD36O,1.600000X2.400000*%
%ADD37RoundRect,0.200000X0.275000X-0.200000X0.275000X0.200000X-0.275000X0.200000X-0.275000X-0.200000X0*%
%ADD38RoundRect,0.225000X0.250000X-0.225000X0.250000X0.225000X-0.250000X0.225000X-0.250000X-0.225000X0*%
%ADD39C,2.800000*%
%ADD40FreePoly0,0.000000*%
%ADD41FreePoly1,0.000000*%
G04 APERTURE END LIST*
D10*
%TO.C,R2*%
X126325000Y-114500000D03*
X124675000Y-114500000D03*
%TD*%
D11*
%TO.C,Q7*%
X176450000Y-116562500D03*
X174550000Y-116562500D03*
X175500000Y-118437500D03*
%TD*%
D12*
%TO.C,SW2*%
X197500000Y-94250000D03*
X197500000Y-100750000D03*
X193000000Y-94250000D03*
X193000000Y-100750000D03*
%TD*%
D13*
%TO.C,R13*%
X144350000Y-85000000D03*
X146000000Y-85000000D03*
%TD*%
D10*
%TO.C,R20*%
X193350000Y-89000000D03*
X191700000Y-89000000D03*
%TD*%
D14*
%TO.C,C9*%
X124000000Y-91347349D03*
D15*
X124000000Y-94847349D03*
%TD*%
D13*
%TO.C,R9*%
X184175000Y-85000000D03*
X185825000Y-85000000D03*
%TD*%
D16*
%TO.C,K16*%
X118975000Y-76600000D03*
D17*
X118975000Y-74060000D03*
X118975000Y-63800000D03*
X118975000Y-61360000D03*
X111355000Y-61360000D03*
X111355000Y-63800000D03*
X111355000Y-74060000D03*
X111355000Y-76600000D03*
%TD*%
D16*
%TO.C,K3*%
X131700000Y-122900000D03*
D17*
X131700000Y-125440000D03*
X131700000Y-135700000D03*
X131700000Y-138140000D03*
X139320000Y-138140000D03*
X139320000Y-135700000D03*
X139320000Y-125440000D03*
X139320000Y-122900000D03*
%TD*%
D18*
%TO.C,LD15*%
X121175000Y-83937500D03*
X121175000Y-82062500D03*
%TD*%
D19*
%TO.C,R17*%
X119500000Y-107730000D03*
X119500000Y-109380000D03*
%TD*%
D13*
%TO.C,R21*%
X114850000Y-107555000D03*
X116500000Y-107555000D03*
%TD*%
D10*
%TO.C,R1*%
X116325000Y-114500000D03*
X114675000Y-114500000D03*
%TD*%
D20*
%TO.C,J3*%
X197525000Y-103700000D03*
D21*
X197525000Y-106240000D03*
X197525000Y-108780000D03*
X197525000Y-111320000D03*
%TD*%
D12*
%TO.C,SW1*%
X197525000Y-85750000D03*
X197525000Y-79250000D03*
X193025000Y-79250000D03*
X193025000Y-85750000D03*
%TD*%
D10*
%TO.C,R5*%
X156325000Y-114500000D03*
X154675000Y-114500000D03*
%TD*%
D22*
%TO.C,D10*%
X178175000Y-83650000D03*
X178175000Y-80350000D03*
%TD*%
D23*
%TO.C,Q10*%
X174225000Y-82937500D03*
X176125000Y-82937500D03*
X175175000Y-81062500D03*
%TD*%
D24*
%TO.C,H2*%
X105000000Y-55000000D03*
%TD*%
D25*
%TO.C,D17*%
X105000000Y-87080000D03*
D26*
X105000000Y-76920000D03*
%TD*%
D18*
%TO.C,LD11*%
X162175000Y-84937500D03*
X162175000Y-83062500D03*
%TD*%
D13*
%TO.C,R15*%
X123350000Y-85000000D03*
X125000000Y-85000000D03*
%TD*%
D20*
%TO.C,J2*%
X111960000Y-100055000D03*
D21*
X114500000Y-100055000D03*
%TD*%
D27*
%TO.C,C7*%
X114500000Y-94725000D03*
X114500000Y-96275000D03*
%TD*%
D16*
%TO.C,K12*%
X158975000Y-76600000D03*
D17*
X158975000Y-74060000D03*
X158975000Y-63800000D03*
X158975000Y-61360000D03*
X151355000Y-61360000D03*
X151355000Y-63800000D03*
X151355000Y-74060000D03*
X151355000Y-76600000D03*
%TD*%
D18*
%TO.C,LD13*%
X142175000Y-84937500D03*
X142175000Y-83062500D03*
%TD*%
D10*
%TO.C,R22*%
X198325000Y-91500000D03*
X196675000Y-91500000D03*
%TD*%
D14*
%TO.C,C2*%
X105000000Y-91500000D03*
D15*
X105000000Y-95000000D03*
%TD*%
D13*
%TO.C,R16*%
X113350000Y-85000000D03*
X115000000Y-85000000D03*
%TD*%
D11*
%TO.C,Q4*%
X146450000Y-116562500D03*
X144550000Y-116562500D03*
X145500000Y-118437500D03*
%TD*%
D23*
%TO.C,Q15*%
X123225000Y-82875000D03*
X125125000Y-82875000D03*
X124175000Y-81000000D03*
%TD*%
D22*
%TO.C,D1*%
X112500000Y-115850000D03*
X112500000Y-119150000D03*
%TD*%
D11*
%TO.C,Q5*%
X156450000Y-116562500D03*
X154550000Y-116562500D03*
X155500000Y-118437500D03*
%TD*%
D18*
%TO.C,LD10*%
X172175000Y-84937500D03*
X172175000Y-83062500D03*
%TD*%
D28*
%TO.C,U2*%
X117000000Y-91500000D03*
D29*
X114460000Y-91500000D03*
X111920000Y-91500000D03*
%TD*%
D23*
%TO.C,Q13*%
X144225000Y-82937500D03*
X146125000Y-82937500D03*
X145175000Y-81062500D03*
%TD*%
D10*
%TO.C,R7*%
X176325000Y-114500000D03*
X174675000Y-114500000D03*
%TD*%
D30*
%TO.C,LD6*%
X168500000Y-114625000D03*
X168500000Y-116500000D03*
%TD*%
%TO.C,LD2*%
X128500000Y-114625000D03*
X128500000Y-116500000D03*
%TD*%
D15*
%TO.C,L1*%
X121650000Y-100000000D03*
D31*
X134350000Y-100000000D03*
%TD*%
D22*
%TO.C,D3*%
X132500000Y-115850000D03*
X132500000Y-119150000D03*
%TD*%
D10*
%TO.C,R24*%
X118000000Y-95977500D03*
X116350000Y-95977500D03*
%TD*%
D32*
%TO.C,JP2*%
X194500000Y-91500000D03*
D33*
X193200000Y-91500000D03*
D34*
X191900000Y-91500000D03*
%TD*%
D24*
%TO.C,H1*%
X195000000Y-145000000D03*
%TD*%
D22*
%TO.C,D4*%
X142500000Y-115850000D03*
X142500000Y-119150000D03*
%TD*%
%TO.C,D5*%
X152500000Y-115850000D03*
X152500000Y-119150000D03*
%TD*%
%TO.C,D12*%
X158175000Y-83650000D03*
X158175000Y-80350000D03*
%TD*%
D35*
%TO.C,U3*%
X145500000Y-103800000D03*
D36*
X148040000Y-103800000D03*
X150580000Y-103800000D03*
X153120000Y-103800000D03*
X155660000Y-103800000D03*
X158200000Y-103800000D03*
X160740000Y-103800000D03*
X163280000Y-103800000D03*
X163280000Y-96180000D03*
X160740000Y-96180000D03*
X158200000Y-96180000D03*
X155660000Y-96180000D03*
X153120000Y-96180000D03*
X150580000Y-96180000D03*
X148040000Y-96180000D03*
X145500000Y-96180000D03*
%TD*%
D27*
%TO.C,C1*%
X112000000Y-107780000D03*
X112000000Y-109330000D03*
%TD*%
D30*
%TO.C,LD1*%
X118500000Y-114562500D03*
X118500000Y-116437500D03*
%TD*%
D19*
%TO.C,R25*%
X137000000Y-103000000D03*
X137000000Y-104650000D03*
%TD*%
D23*
%TO.C,Q16*%
X113287500Y-82987500D03*
X115187500Y-82987500D03*
X114237500Y-81112500D03*
%TD*%
D20*
%TO.C,J6*%
X102975000Y-63475000D03*
D21*
X105515000Y-63475000D03*
X108055000Y-63475000D03*
%TD*%
D11*
%TO.C,Q3*%
X136387500Y-116562500D03*
X134487500Y-116562500D03*
X135437500Y-118437500D03*
%TD*%
D23*
%TO.C,Q11*%
X164275000Y-83000000D03*
X166175000Y-83000000D03*
X165225000Y-81125000D03*
%TD*%
D11*
%TO.C,Q1*%
X116450000Y-116562500D03*
X114550000Y-116562500D03*
X115500000Y-118437500D03*
%TD*%
D24*
%TO.C,H4*%
X195000000Y-55000000D03*
%TD*%
D16*
%TO.C,K6*%
X161700000Y-122900000D03*
D17*
X161700000Y-125440000D03*
X161700000Y-135700000D03*
X161700000Y-138140000D03*
X169320000Y-138140000D03*
X169320000Y-135700000D03*
X169320000Y-125440000D03*
X169320000Y-122900000D03*
%TD*%
D22*
%TO.C,D6*%
X162500000Y-115850000D03*
X162500000Y-119150000D03*
%TD*%
%TO.C,D7*%
X172500000Y-115850000D03*
X172500000Y-119150000D03*
%TD*%
D37*
%TO.C,R18*%
X118000000Y-107880000D03*
X118000000Y-106230000D03*
%TD*%
D30*
%TO.C,LD7*%
X178500000Y-114562500D03*
X178500000Y-116437500D03*
%TD*%
D27*
%TO.C,C10*%
X142500000Y-96225000D03*
X142500000Y-97775000D03*
%TD*%
D16*
%TO.C,K8*%
X181700000Y-122900000D03*
D17*
X181700000Y-125440000D03*
X181700000Y-135700000D03*
X181700000Y-138140000D03*
X189320000Y-138140000D03*
X189320000Y-135700000D03*
X189320000Y-125440000D03*
X189320000Y-122900000D03*
%TD*%
D11*
%TO.C,Q8*%
X186450000Y-115562500D03*
X184550000Y-115562500D03*
X185500000Y-117437500D03*
%TD*%
D10*
%TO.C,R6*%
X166325000Y-114500000D03*
X164675000Y-114500000D03*
%TD*%
D22*
%TO.C,D14*%
X138175000Y-83650000D03*
X138175000Y-80350000D03*
%TD*%
D16*
%TO.C,K11*%
X168975000Y-76600000D03*
D17*
X168975000Y-74060000D03*
X168975000Y-63800000D03*
X168975000Y-61360000D03*
X161355000Y-61360000D03*
X161355000Y-63800000D03*
X161355000Y-74060000D03*
X161355000Y-76600000D03*
%TD*%
D16*
%TO.C,K13*%
X148975000Y-76600000D03*
D17*
X148975000Y-74060000D03*
X148975000Y-63800000D03*
X148975000Y-61360000D03*
X141355000Y-61360000D03*
X141355000Y-63800000D03*
X141355000Y-74060000D03*
X141355000Y-76600000D03*
%TD*%
D22*
%TO.C,D15*%
X127175000Y-83650000D03*
X127175000Y-80350000D03*
%TD*%
D10*
%TO.C,R4*%
X146150000Y-114500000D03*
X144500000Y-114500000D03*
%TD*%
D14*
%TO.C,C6*%
X132500000Y-104847349D03*
D15*
X132500000Y-108347349D03*
%TD*%
D22*
%TO.C,D9*%
X188175000Y-83650000D03*
X188175000Y-80350000D03*
%TD*%
D18*
%TO.C,LD12*%
X152175000Y-84937500D03*
X152175000Y-83062500D03*
%TD*%
%TO.C,LD14*%
X132175000Y-85000000D03*
X132175000Y-83125000D03*
%TD*%
D27*
%TO.C,C4*%
X113500000Y-107705000D03*
X113500000Y-109255000D03*
%TD*%
D16*
%TO.C,K9*%
X188975000Y-76600000D03*
D17*
X188975000Y-74060000D03*
X188975000Y-63800000D03*
X188975000Y-61360000D03*
X181355000Y-61360000D03*
X181355000Y-63800000D03*
X181355000Y-74060000D03*
X181355000Y-76600000D03*
%TD*%
D16*
%TO.C,K1*%
X111700000Y-122900000D03*
D17*
X111700000Y-125440000D03*
X111700000Y-135700000D03*
X111700000Y-138140000D03*
X119320000Y-138140000D03*
X119320000Y-135700000D03*
X119320000Y-125440000D03*
X119320000Y-122900000D03*
%TD*%
D30*
%TO.C,LD8*%
X188500000Y-113562500D03*
X188500000Y-115437500D03*
%TD*%
D16*
%TO.C,K5*%
X151700000Y-122900000D03*
D17*
X151700000Y-125440000D03*
X151700000Y-135700000D03*
X151700000Y-138140000D03*
X159320000Y-138140000D03*
X159320000Y-135700000D03*
X159320000Y-125440000D03*
X159320000Y-122900000D03*
%TD*%
D24*
%TO.C,H3*%
X105000000Y-145000000D03*
%TD*%
D16*
%TO.C,K7*%
X171700000Y-122900000D03*
D17*
X171700000Y-125440000D03*
X171700000Y-135700000D03*
X171700000Y-138140000D03*
X179320000Y-138140000D03*
X179320000Y-135700000D03*
X179320000Y-125440000D03*
X179320000Y-122900000D03*
%TD*%
D18*
%TO.C,LD16*%
X111175000Y-85000000D03*
X111175000Y-83125000D03*
%TD*%
D38*
%TO.C,C8*%
X188120000Y-103550000D03*
X188120000Y-102000000D03*
%TD*%
D10*
%TO.C,R8*%
X186325000Y-113500000D03*
X184675000Y-113500000D03*
%TD*%
D13*
%TO.C,R23*%
X116350000Y-94477500D03*
X118000000Y-94477500D03*
%TD*%
D22*
%TO.C,D11*%
X168175000Y-83650000D03*
X168175000Y-80350000D03*
%TD*%
D27*
%TO.C,C3*%
X112000000Y-94725000D03*
X112000000Y-96275000D03*
%TD*%
D22*
%TO.C,D16*%
X117175000Y-83650000D03*
X117175000Y-80350000D03*
%TD*%
D28*
%TO.C,U1*%
X117000000Y-103555000D03*
D29*
X114460000Y-103555000D03*
X111920000Y-103555000D03*
%TD*%
D20*
%TO.C,J4*%
X111960000Y-88000000D03*
D21*
X114500000Y-88000000D03*
%TD*%
D23*
%TO.C,Q9*%
X184287500Y-82875000D03*
X186187500Y-82875000D03*
X185237500Y-81000000D03*
%TD*%
D22*
%TO.C,D13*%
X148175000Y-83650000D03*
X148175000Y-80350000D03*
%TD*%
D20*
%TO.C,J7*%
X131100000Y-144460000D03*
D21*
X131100000Y-147000000D03*
X133640000Y-144460000D03*
X133640000Y-147000000D03*
X136180000Y-144460000D03*
X136180000Y-147000000D03*
X138720000Y-144460000D03*
X138720000Y-147000000D03*
X141260000Y-144460000D03*
X141260000Y-147000000D03*
X143800000Y-144460000D03*
X143800000Y-147000000D03*
X146340000Y-144460000D03*
X146340000Y-147000000D03*
X148880000Y-144460000D03*
X148880000Y-147000000D03*
X151420000Y-144460000D03*
X151420000Y-147000000D03*
X153960000Y-144460000D03*
X153960000Y-147000000D03*
X156500000Y-144460000D03*
X156500000Y-147000000D03*
X159040000Y-144460000D03*
X159040000Y-147000000D03*
X161580000Y-144460000D03*
X161580000Y-147000000D03*
X164120000Y-144460000D03*
X164120000Y-147000000D03*
X166660000Y-144460000D03*
X166660000Y-147000000D03*
X169200000Y-144460000D03*
X169200000Y-147000000D03*
%TD*%
D35*
%TO.C,U4*%
X185120000Y-96200000D03*
D36*
X182580000Y-96200000D03*
X180040000Y-96200000D03*
X177500000Y-96200000D03*
X174960000Y-96200000D03*
X172420000Y-96200000D03*
X169880000Y-96200000D03*
X167340000Y-96200000D03*
X167340000Y-103820000D03*
X169880000Y-103820000D03*
X172420000Y-103820000D03*
X174960000Y-103820000D03*
X177500000Y-103820000D03*
X180040000Y-103820000D03*
X182580000Y-103820000D03*
X185120000Y-103820000D03*
%TD*%
D22*
%TO.C,D8*%
X182500000Y-115500000D03*
X182500000Y-118800000D03*
%TD*%
D39*
%TO.C,TP1*%
X167500000Y-107500000D03*
%TD*%
D16*
%TO.C,K4*%
X141700000Y-122900000D03*
D17*
X141700000Y-125440000D03*
X141700000Y-135700000D03*
X141700000Y-138140000D03*
X149320000Y-138140000D03*
X149320000Y-135700000D03*
X149320000Y-125440000D03*
X149320000Y-122900000D03*
%TD*%
D16*
%TO.C,K10*%
X178975000Y-76600000D03*
D17*
X178975000Y-74060000D03*
X178975000Y-63800000D03*
X178975000Y-61360000D03*
X171355000Y-61360000D03*
X171355000Y-63800000D03*
X171355000Y-74060000D03*
X171355000Y-76600000D03*
%TD*%
D16*
%TO.C,K14*%
X138975000Y-76600000D03*
D17*
X138975000Y-74060000D03*
X138975000Y-63800000D03*
X138975000Y-61360000D03*
X131355000Y-61360000D03*
X131355000Y-63800000D03*
X131355000Y-74060000D03*
X131355000Y-76600000D03*
%TD*%
D11*
%TO.C,Q2*%
X126450000Y-116562500D03*
X124550000Y-116562500D03*
X125500000Y-118437500D03*
%TD*%
D14*
%TO.C,C5*%
X124000000Y-104847349D03*
D15*
X124000000Y-108347349D03*
%TD*%
D20*
%TO.C,J5*%
X103475000Y-135975000D03*
D21*
X106015000Y-135975000D03*
X108555000Y-135975000D03*
%TD*%
D13*
%TO.C,R10*%
X174350000Y-85000000D03*
X176000000Y-85000000D03*
%TD*%
D18*
%TO.C,LD17*%
X137000000Y-101437500D03*
X137000000Y-99562500D03*
%TD*%
D30*
%TO.C,LD3*%
X138500000Y-114562500D03*
X138500000Y-116437500D03*
%TD*%
D11*
%TO.C,Q6*%
X166450000Y-116562500D03*
X164550000Y-116562500D03*
X165500000Y-118437500D03*
%TD*%
D13*
%TO.C,R11*%
X164350000Y-85000000D03*
X166000000Y-85000000D03*
%TD*%
D40*
%TO.C,JP1*%
X195400000Y-89000000D03*
D33*
X196700000Y-89000000D03*
D41*
X198000000Y-89000000D03*
%TD*%
D10*
%TO.C,R3*%
X136325000Y-114500000D03*
X134675000Y-114500000D03*
%TD*%
D30*
%TO.C,LD4*%
X148500000Y-114562500D03*
X148500000Y-116437500D03*
%TD*%
D16*
%TO.C,K2*%
X121700000Y-122900000D03*
D17*
X121700000Y-125440000D03*
X121700000Y-135700000D03*
X121700000Y-138140000D03*
X129320000Y-138140000D03*
X129320000Y-135700000D03*
X129320000Y-125440000D03*
X129320000Y-122900000D03*
%TD*%
D13*
%TO.C,R14*%
X134175000Y-85000000D03*
X135825000Y-85000000D03*
%TD*%
D22*
%TO.C,D2*%
X122500000Y-115850000D03*
X122500000Y-119150000D03*
%TD*%
D18*
%TO.C,LD9*%
X182175000Y-84937500D03*
X182175000Y-83062500D03*
%TD*%
D13*
%TO.C,R12*%
X154350000Y-85000000D03*
X156000000Y-85000000D03*
%TD*%
D30*
%TO.C,LD5*%
X158500000Y-114625000D03*
X158500000Y-116500000D03*
%TD*%
D20*
%TO.C,J1*%
X105000000Y-74040000D03*
D21*
X105000000Y-71500000D03*
%TD*%
D13*
%TO.C,R19*%
X116500000Y-109055000D03*
X118150000Y-109055000D03*
%TD*%
D23*
%TO.C,Q14*%
X134225000Y-82875000D03*
X136125000Y-82875000D03*
X135175000Y-81000000D03*
%TD*%
%TO.C,Q12*%
X154225000Y-82937500D03*
X156125000Y-82937500D03*
X155175000Y-81062500D03*
%TD*%
D16*
%TO.C,K15*%
X128585000Y-76600000D03*
D17*
X128585000Y-74060000D03*
X128585000Y-63800000D03*
X128585000Y-61360000D03*
X120965000Y-61360000D03*
X120965000Y-63800000D03*
X120965000Y-74060000D03*
X120965000Y-76600000D03*
%TD*%
M02*
