%TF.GenerationSoftware,KiCad,Pcbnew,6.0.8-f2edbf62ab~116~ubuntu22.04.1*%
%TF.CreationDate,2022-10-03T01:52:07+02:00*%
%TF.ProjectId,relay_brd,72656c61-795f-4627-9264-2e6b69636164,rev?*%
%TF.SameCoordinates,Original*%
%TF.FileFunction,Legend,Top*%
%TF.FilePolarity,Positive*%
%FSLAX46Y46*%
G04 Gerber Fmt 4.6, Leading zero omitted, Abs format (unit mm)*
G04 Created by KiCad (PCBNEW 6.0.8-f2edbf62ab~116~ubuntu22.04.1) date 2022-10-03 01:52:07*
%MOMM*%
%LPD*%
G01*
G04 APERTURE LIST*
%ADD10C,0.150000*%
%ADD11C,0.120000*%
G04 APERTURE END LIST*
D10*
%TO.C,R2*%
X125333333Y-116382380D02*
X125000000Y-115906190D01*
X124761904Y-116382380D02*
X124761904Y-115382380D01*
X125142857Y-115382380D01*
X125238095Y-115430000D01*
X125285714Y-115477619D01*
X125333333Y-115572857D01*
X125333333Y-115715714D01*
X125285714Y-115810952D01*
X125238095Y-115858571D01*
X125142857Y-115906190D01*
X124761904Y-115906190D01*
X125714285Y-115477619D02*
X125761904Y-115430000D01*
X125857142Y-115382380D01*
X126095238Y-115382380D01*
X126190476Y-115430000D01*
X126238095Y-115477619D01*
X126285714Y-115572857D01*
X126285714Y-115668095D01*
X126238095Y-115810952D01*
X125666666Y-116382380D01*
X126285714Y-116382380D01*
%TO.C,Q7*%
X178447619Y-117595238D02*
X178400000Y-117690476D01*
X178304761Y-117785714D01*
X178161904Y-117928571D01*
X178114285Y-118023809D01*
X178114285Y-118119047D01*
X178352380Y-118071428D02*
X178304761Y-118166666D01*
X178209523Y-118261904D01*
X178019047Y-118309523D01*
X177685714Y-118309523D01*
X177495238Y-118261904D01*
X177400000Y-118166666D01*
X177352380Y-118071428D01*
X177352380Y-117880952D01*
X177400000Y-117785714D01*
X177495238Y-117690476D01*
X177685714Y-117642857D01*
X178019047Y-117642857D01*
X178209523Y-117690476D01*
X178304761Y-117785714D01*
X178352380Y-117880952D01*
X178352380Y-118071428D01*
X177352380Y-117309523D02*
X177352380Y-116642857D01*
X178352380Y-117071428D01*
%TO.C,SW2*%
X199904761Y-98833333D02*
X199952380Y-98690476D01*
X199952380Y-98452380D01*
X199904761Y-98357142D01*
X199857142Y-98309523D01*
X199761904Y-98261904D01*
X199666666Y-98261904D01*
X199571428Y-98309523D01*
X199523809Y-98357142D01*
X199476190Y-98452380D01*
X199428571Y-98642857D01*
X199380952Y-98738095D01*
X199333333Y-98785714D01*
X199238095Y-98833333D01*
X199142857Y-98833333D01*
X199047619Y-98785714D01*
X199000000Y-98738095D01*
X198952380Y-98642857D01*
X198952380Y-98404761D01*
X199000000Y-98261904D01*
X198952380Y-97928571D02*
X199952380Y-97690476D01*
X199238095Y-97500000D01*
X199952380Y-97309523D01*
X198952380Y-97071428D01*
X199047619Y-96738095D02*
X199000000Y-96690476D01*
X198952380Y-96595238D01*
X198952380Y-96357142D01*
X199000000Y-96261904D01*
X199047619Y-96214285D01*
X199142857Y-96166666D01*
X199238095Y-96166666D01*
X199380952Y-96214285D01*
X199952380Y-96785714D01*
X199952380Y-96166666D01*
%TO.C,R13*%
X144532142Y-84022380D02*
X144198809Y-83546190D01*
X143960714Y-84022380D02*
X143960714Y-83022380D01*
X144341666Y-83022380D01*
X144436904Y-83070000D01*
X144484523Y-83117619D01*
X144532142Y-83212857D01*
X144532142Y-83355714D01*
X144484523Y-83450952D01*
X144436904Y-83498571D01*
X144341666Y-83546190D01*
X143960714Y-83546190D01*
X145484523Y-84022380D02*
X144913095Y-84022380D01*
X145198809Y-84022380D02*
X145198809Y-83022380D01*
X145103571Y-83165238D01*
X145008333Y-83260476D01*
X144913095Y-83308095D01*
X145817857Y-83022380D02*
X146436904Y-83022380D01*
X146103571Y-83403333D01*
X146246428Y-83403333D01*
X146341666Y-83450952D01*
X146389285Y-83498571D01*
X146436904Y-83593809D01*
X146436904Y-83831904D01*
X146389285Y-83927142D01*
X146341666Y-83974761D01*
X146246428Y-84022380D01*
X145960714Y-84022380D01*
X145865476Y-83974761D01*
X145817857Y-83927142D01*
%TO.C,R20*%
X192119400Y-87452380D02*
X191786067Y-86976190D01*
X191547972Y-87452380D02*
X191547972Y-86452380D01*
X191928924Y-86452380D01*
X192024162Y-86500000D01*
X192071781Y-86547619D01*
X192119400Y-86642857D01*
X192119400Y-86785714D01*
X192071781Y-86880952D01*
X192024162Y-86928571D01*
X191928924Y-86976190D01*
X191547972Y-86976190D01*
X192500353Y-86547619D02*
X192547972Y-86500000D01*
X192643210Y-86452380D01*
X192881305Y-86452380D01*
X192976543Y-86500000D01*
X193024162Y-86547619D01*
X193071781Y-86642857D01*
X193071781Y-86738095D01*
X193024162Y-86880952D01*
X192452734Y-87452380D01*
X193071781Y-87452380D01*
X193690829Y-86452380D02*
X193786067Y-86452380D01*
X193881305Y-86500000D01*
X193928924Y-86547619D01*
X193976543Y-86642857D01*
X194024162Y-86833333D01*
X194024162Y-87071428D01*
X193976543Y-87261904D01*
X193928924Y-87357142D01*
X193881305Y-87404761D01*
X193786067Y-87452380D01*
X193690829Y-87452380D01*
X193595591Y-87404761D01*
X193547972Y-87357142D01*
X193500353Y-87261904D01*
X193452734Y-87071428D01*
X193452734Y-86833333D01*
X193500353Y-86642857D01*
X193547972Y-86547619D01*
X193595591Y-86500000D01*
X193690829Y-86452380D01*
%TO.C,C9*%
X123833333Y-98607142D02*
X123785714Y-98654761D01*
X123642857Y-98702380D01*
X123547619Y-98702380D01*
X123404761Y-98654761D01*
X123309523Y-98559523D01*
X123261904Y-98464285D01*
X123214285Y-98273809D01*
X123214285Y-98130952D01*
X123261904Y-97940476D01*
X123309523Y-97845238D01*
X123404761Y-97750000D01*
X123547619Y-97702380D01*
X123642857Y-97702380D01*
X123785714Y-97750000D01*
X123833333Y-97797619D01*
X124309523Y-98702380D02*
X124500000Y-98702380D01*
X124595238Y-98654761D01*
X124642857Y-98607142D01*
X124738095Y-98464285D01*
X124785714Y-98273809D01*
X124785714Y-97892857D01*
X124738095Y-97797619D01*
X124690476Y-97750000D01*
X124595238Y-97702380D01*
X124404761Y-97702380D01*
X124309523Y-97750000D01*
X124261904Y-97797619D01*
X124214285Y-97892857D01*
X124214285Y-98130952D01*
X124261904Y-98226190D01*
X124309523Y-98273809D01*
X124404761Y-98321428D01*
X124595238Y-98321428D01*
X124690476Y-98273809D01*
X124738095Y-98226190D01*
X124785714Y-98130952D01*
%TO.C,R9*%
X184833333Y-84022380D02*
X184500000Y-83546190D01*
X184261904Y-84022380D02*
X184261904Y-83022380D01*
X184642857Y-83022380D01*
X184738095Y-83070000D01*
X184785714Y-83117619D01*
X184833333Y-83212857D01*
X184833333Y-83355714D01*
X184785714Y-83450952D01*
X184738095Y-83498571D01*
X184642857Y-83546190D01*
X184261904Y-83546190D01*
X185309523Y-84022380D02*
X185500000Y-84022380D01*
X185595238Y-83974761D01*
X185642857Y-83927142D01*
X185738095Y-83784285D01*
X185785714Y-83593809D01*
X185785714Y-83212857D01*
X185738095Y-83117619D01*
X185690476Y-83070000D01*
X185595238Y-83022380D01*
X185404761Y-83022380D01*
X185309523Y-83070000D01*
X185261904Y-83117619D01*
X185214285Y-83212857D01*
X185214285Y-83450952D01*
X185261904Y-83546190D01*
X185309523Y-83593809D01*
X185404761Y-83641428D01*
X185595238Y-83641428D01*
X185690476Y-83593809D01*
X185738095Y-83546190D01*
X185785714Y-83450952D01*
%TO.C,K16*%
X113950714Y-80442380D02*
X113950714Y-79442380D01*
X114522142Y-80442380D02*
X114093571Y-79870952D01*
X114522142Y-79442380D02*
X113950714Y-80013809D01*
X115474523Y-80442380D02*
X114903095Y-80442380D01*
X115188809Y-80442380D02*
X115188809Y-79442380D01*
X115093571Y-79585238D01*
X114998333Y-79680476D01*
X114903095Y-79728095D01*
X116331666Y-79442380D02*
X116141190Y-79442380D01*
X116045952Y-79490000D01*
X115998333Y-79537619D01*
X115903095Y-79680476D01*
X115855476Y-79870952D01*
X115855476Y-80251904D01*
X115903095Y-80347142D01*
X115950714Y-80394761D01*
X116045952Y-80442380D01*
X116236428Y-80442380D01*
X116331666Y-80394761D01*
X116379285Y-80347142D01*
X116426904Y-80251904D01*
X116426904Y-80013809D01*
X116379285Y-79918571D01*
X116331666Y-79870952D01*
X116236428Y-79823333D01*
X116045952Y-79823333D01*
X115950714Y-79870952D01*
X115903095Y-79918571D01*
X115855476Y-80013809D01*
%TO.C,K3*%
X134771904Y-119962380D02*
X134771904Y-118962380D01*
X135343333Y-119962380D02*
X134914761Y-119390952D01*
X135343333Y-118962380D02*
X134771904Y-119533809D01*
X135676666Y-118962380D02*
X136295714Y-118962380D01*
X135962380Y-119343333D01*
X136105238Y-119343333D01*
X136200476Y-119390952D01*
X136248095Y-119438571D01*
X136295714Y-119533809D01*
X136295714Y-119771904D01*
X136248095Y-119867142D01*
X136200476Y-119914761D01*
X136105238Y-119962380D01*
X135819523Y-119962380D01*
X135724285Y-119914761D01*
X135676666Y-119867142D01*
%TO.C,LD15*%
X119977380Y-84142857D02*
X119977380Y-84619047D01*
X118977380Y-84619047D01*
X119977380Y-83809523D02*
X118977380Y-83809523D01*
X118977380Y-83571428D01*
X119025000Y-83428571D01*
X119120238Y-83333333D01*
X119215476Y-83285714D01*
X119405952Y-83238095D01*
X119548809Y-83238095D01*
X119739285Y-83285714D01*
X119834523Y-83333333D01*
X119929761Y-83428571D01*
X119977380Y-83571428D01*
X119977380Y-83809523D01*
X119977380Y-82285714D02*
X119977380Y-82857142D01*
X119977380Y-82571428D02*
X118977380Y-82571428D01*
X119120238Y-82666666D01*
X119215476Y-82761904D01*
X119263095Y-82857142D01*
X118977380Y-81380952D02*
X118977380Y-81857142D01*
X119453571Y-81904761D01*
X119405952Y-81857142D01*
X119358333Y-81761904D01*
X119358333Y-81523809D01*
X119405952Y-81428571D01*
X119453571Y-81380952D01*
X119548809Y-81333333D01*
X119786904Y-81333333D01*
X119882142Y-81380952D01*
X119929761Y-81428571D01*
X119977380Y-81523809D01*
X119977380Y-81761904D01*
X119929761Y-81857142D01*
X119882142Y-81904761D01*
%TO.C,R17*%
X119952380Y-112197857D02*
X119476190Y-112531190D01*
X119952380Y-112769285D02*
X118952380Y-112769285D01*
X118952380Y-112388333D01*
X119000000Y-112293095D01*
X119047619Y-112245476D01*
X119142857Y-112197857D01*
X119285714Y-112197857D01*
X119380952Y-112245476D01*
X119428571Y-112293095D01*
X119476190Y-112388333D01*
X119476190Y-112769285D01*
X119952380Y-111245476D02*
X119952380Y-111816904D01*
X119952380Y-111531190D02*
X118952380Y-111531190D01*
X119095238Y-111626428D01*
X119190476Y-111721666D01*
X119238095Y-111816904D01*
X118952380Y-110912142D02*
X118952380Y-110245476D01*
X119952380Y-110674047D01*
%TO.C,R21*%
X115452380Y-112197857D02*
X114976190Y-112531190D01*
X115452380Y-112769285D02*
X114452380Y-112769285D01*
X114452380Y-112388333D01*
X114500000Y-112293095D01*
X114547619Y-112245476D01*
X114642857Y-112197857D01*
X114785714Y-112197857D01*
X114880952Y-112245476D01*
X114928571Y-112293095D01*
X114976190Y-112388333D01*
X114976190Y-112769285D01*
X114547619Y-111816904D02*
X114500000Y-111769285D01*
X114452380Y-111674047D01*
X114452380Y-111435952D01*
X114500000Y-111340714D01*
X114547619Y-111293095D01*
X114642857Y-111245476D01*
X114738095Y-111245476D01*
X114880952Y-111293095D01*
X115452380Y-111864523D01*
X115452380Y-111245476D01*
X115452380Y-110293095D02*
X115452380Y-110864523D01*
X115452380Y-110578809D02*
X114452380Y-110578809D01*
X114595238Y-110674047D01*
X114690476Y-110769285D01*
X114738095Y-110864523D01*
%TO.C,R1*%
X115333333Y-116382380D02*
X115000000Y-115906190D01*
X114761904Y-116382380D02*
X114761904Y-115382380D01*
X115142857Y-115382380D01*
X115238095Y-115430000D01*
X115285714Y-115477619D01*
X115333333Y-115572857D01*
X115333333Y-115715714D01*
X115285714Y-115810952D01*
X115238095Y-115858571D01*
X115142857Y-115906190D01*
X114761904Y-115906190D01*
X116285714Y-116382380D02*
X115714285Y-116382380D01*
X116000000Y-116382380D02*
X116000000Y-115382380D01*
X115904761Y-115525238D01*
X115809523Y-115620476D01*
X115714285Y-115668095D01*
%TO.C,J3*%
X197191666Y-100382380D02*
X197191666Y-101096666D01*
X197144047Y-101239523D01*
X197048809Y-101334761D01*
X196905952Y-101382380D01*
X196810714Y-101382380D01*
X197572619Y-100382380D02*
X198191666Y-100382380D01*
X197858333Y-100763333D01*
X198001190Y-100763333D01*
X198096428Y-100810952D01*
X198144047Y-100858571D01*
X198191666Y-100953809D01*
X198191666Y-101191904D01*
X198144047Y-101287142D01*
X198096428Y-101334761D01*
X198001190Y-101382380D01*
X197715476Y-101382380D01*
X197620238Y-101334761D01*
X197572619Y-101287142D01*
%TO.C,SW1*%
X199929761Y-83833333D02*
X199977380Y-83690476D01*
X199977380Y-83452380D01*
X199929761Y-83357142D01*
X199882142Y-83309523D01*
X199786904Y-83261904D01*
X199691666Y-83261904D01*
X199596428Y-83309523D01*
X199548809Y-83357142D01*
X199501190Y-83452380D01*
X199453571Y-83642857D01*
X199405952Y-83738095D01*
X199358333Y-83785714D01*
X199263095Y-83833333D01*
X199167857Y-83833333D01*
X199072619Y-83785714D01*
X199025000Y-83738095D01*
X198977380Y-83642857D01*
X198977380Y-83404761D01*
X199025000Y-83261904D01*
X198977380Y-82928571D02*
X199977380Y-82690476D01*
X199263095Y-82500000D01*
X199977380Y-82309523D01*
X198977380Y-82071428D01*
X199977380Y-81166666D02*
X199977380Y-81738095D01*
X199977380Y-81452380D02*
X198977380Y-81452380D01*
X199120238Y-81547619D01*
X199215476Y-81642857D01*
X199263095Y-81738095D01*
%TO.C,R5*%
X155333333Y-116382380D02*
X155000000Y-115906190D01*
X154761904Y-116382380D02*
X154761904Y-115382380D01*
X155142857Y-115382380D01*
X155238095Y-115430000D01*
X155285714Y-115477619D01*
X155333333Y-115572857D01*
X155333333Y-115715714D01*
X155285714Y-115810952D01*
X155238095Y-115858571D01*
X155142857Y-115906190D01*
X154761904Y-115906190D01*
X156238095Y-115382380D02*
X155761904Y-115382380D01*
X155714285Y-115858571D01*
X155761904Y-115810952D01*
X155857142Y-115763333D01*
X156095238Y-115763333D01*
X156190476Y-115810952D01*
X156238095Y-115858571D01*
X156285714Y-115953809D01*
X156285714Y-116191904D01*
X156238095Y-116287142D01*
X156190476Y-116334761D01*
X156095238Y-116382380D01*
X155857142Y-116382380D01*
X155761904Y-116334761D01*
X155714285Y-116287142D01*
%TO.C,D10*%
X176627380Y-83214285D02*
X175627380Y-83214285D01*
X175627380Y-82976190D01*
X175675000Y-82833333D01*
X175770238Y-82738095D01*
X175865476Y-82690476D01*
X176055952Y-82642857D01*
X176198809Y-82642857D01*
X176389285Y-82690476D01*
X176484523Y-82738095D01*
X176579761Y-82833333D01*
X176627380Y-82976190D01*
X176627380Y-83214285D01*
X176627380Y-81690476D02*
X176627380Y-82261904D01*
X176627380Y-81976190D02*
X175627380Y-81976190D01*
X175770238Y-82071428D01*
X175865476Y-82166666D01*
X175913095Y-82261904D01*
X175627380Y-81071428D02*
X175627380Y-80976190D01*
X175675000Y-80880952D01*
X175722619Y-80833333D01*
X175817857Y-80785714D01*
X176008333Y-80738095D01*
X176246428Y-80738095D01*
X176436904Y-80785714D01*
X176532142Y-80833333D01*
X176579761Y-80880952D01*
X176627380Y-80976190D01*
X176627380Y-81071428D01*
X176579761Y-81166666D01*
X176532142Y-81214285D01*
X176436904Y-81261904D01*
X176246428Y-81309523D01*
X176008333Y-81309523D01*
X175817857Y-81261904D01*
X175722619Y-81214285D01*
X175675000Y-81166666D01*
X175627380Y-81071428D01*
%TO.C,Q10*%
X173322619Y-82571428D02*
X173275000Y-82666666D01*
X173179761Y-82761904D01*
X173036904Y-82904761D01*
X172989285Y-83000000D01*
X172989285Y-83095238D01*
X173227380Y-83047619D02*
X173179761Y-83142857D01*
X173084523Y-83238095D01*
X172894047Y-83285714D01*
X172560714Y-83285714D01*
X172370238Y-83238095D01*
X172275000Y-83142857D01*
X172227380Y-83047619D01*
X172227380Y-82857142D01*
X172275000Y-82761904D01*
X172370238Y-82666666D01*
X172560714Y-82619047D01*
X172894047Y-82619047D01*
X173084523Y-82666666D01*
X173179761Y-82761904D01*
X173227380Y-82857142D01*
X173227380Y-83047619D01*
X173227380Y-81666666D02*
X173227380Y-82238095D01*
X173227380Y-81952380D02*
X172227380Y-81952380D01*
X172370238Y-82047619D01*
X172465476Y-82142857D01*
X172513095Y-82238095D01*
X172227380Y-81047619D02*
X172227380Y-80952380D01*
X172275000Y-80857142D01*
X172322619Y-80809523D01*
X172417857Y-80761904D01*
X172608333Y-80714285D01*
X172846428Y-80714285D01*
X173036904Y-80761904D01*
X173132142Y-80809523D01*
X173179761Y-80857142D01*
X173227380Y-80952380D01*
X173227380Y-81047619D01*
X173179761Y-81142857D01*
X173132142Y-81190476D01*
X173036904Y-81238095D01*
X172846428Y-81285714D01*
X172608333Y-81285714D01*
X172417857Y-81238095D01*
X172322619Y-81190476D01*
X172275000Y-81142857D01*
X172227380Y-81047619D01*
%TO.C,H2*%
X104238095Y-50152380D02*
X104238095Y-49152380D01*
X104238095Y-49628571D02*
X104809523Y-49628571D01*
X104809523Y-50152380D02*
X104809523Y-49152380D01*
X105238095Y-49247619D02*
X105285714Y-49200000D01*
X105380952Y-49152380D01*
X105619047Y-49152380D01*
X105714285Y-49200000D01*
X105761904Y-49247619D01*
X105809523Y-49342857D01*
X105809523Y-49438095D01*
X105761904Y-49580952D01*
X105190476Y-50152380D01*
X105809523Y-50152380D01*
%TO.C,D17*%
X102982380Y-82214285D02*
X101982380Y-82214285D01*
X101982380Y-81976190D01*
X102030000Y-81833333D01*
X102125238Y-81738095D01*
X102220476Y-81690476D01*
X102410952Y-81642857D01*
X102553809Y-81642857D01*
X102744285Y-81690476D01*
X102839523Y-81738095D01*
X102934761Y-81833333D01*
X102982380Y-81976190D01*
X102982380Y-82214285D01*
X102982380Y-80690476D02*
X102982380Y-81261904D01*
X102982380Y-80976190D02*
X101982380Y-80976190D01*
X102125238Y-81071428D01*
X102220476Y-81166666D01*
X102268095Y-81261904D01*
X101982380Y-80357142D02*
X101982380Y-79690476D01*
X102982380Y-80119047D01*
X103352380Y-87341904D02*
X102352380Y-87341904D01*
X103352380Y-86770476D02*
X102780952Y-87199047D01*
X102352380Y-86770476D02*
X102923809Y-87341904D01*
%TO.C,LD11*%
X160977380Y-85142857D02*
X160977380Y-85619047D01*
X159977380Y-85619047D01*
X160977380Y-84809523D02*
X159977380Y-84809523D01*
X159977380Y-84571428D01*
X160025000Y-84428571D01*
X160120238Y-84333333D01*
X160215476Y-84285714D01*
X160405952Y-84238095D01*
X160548809Y-84238095D01*
X160739285Y-84285714D01*
X160834523Y-84333333D01*
X160929761Y-84428571D01*
X160977380Y-84571428D01*
X160977380Y-84809523D01*
X160977380Y-83285714D02*
X160977380Y-83857142D01*
X160977380Y-83571428D02*
X159977380Y-83571428D01*
X160120238Y-83666666D01*
X160215476Y-83761904D01*
X160263095Y-83857142D01*
X160977380Y-82333333D02*
X160977380Y-82904761D01*
X160977380Y-82619047D02*
X159977380Y-82619047D01*
X160120238Y-82714285D01*
X160215476Y-82809523D01*
X160263095Y-82904761D01*
%TO.C,R15*%
X123532142Y-84022380D02*
X123198809Y-83546190D01*
X122960714Y-84022380D02*
X122960714Y-83022380D01*
X123341666Y-83022380D01*
X123436904Y-83070000D01*
X123484523Y-83117619D01*
X123532142Y-83212857D01*
X123532142Y-83355714D01*
X123484523Y-83450952D01*
X123436904Y-83498571D01*
X123341666Y-83546190D01*
X122960714Y-83546190D01*
X124484523Y-84022380D02*
X123913095Y-84022380D01*
X124198809Y-84022380D02*
X124198809Y-83022380D01*
X124103571Y-83165238D01*
X124008333Y-83260476D01*
X123913095Y-83308095D01*
X125389285Y-83022380D02*
X124913095Y-83022380D01*
X124865476Y-83498571D01*
X124913095Y-83450952D01*
X125008333Y-83403333D01*
X125246428Y-83403333D01*
X125341666Y-83450952D01*
X125389285Y-83498571D01*
X125436904Y-83593809D01*
X125436904Y-83831904D01*
X125389285Y-83927142D01*
X125341666Y-83974761D01*
X125246428Y-84022380D01*
X125008333Y-84022380D01*
X124913095Y-83974761D01*
X124865476Y-83927142D01*
%TO.C,J2*%
X113166666Y-97007380D02*
X113166666Y-97721666D01*
X113119047Y-97864523D01*
X113023809Y-97959761D01*
X112880952Y-98007380D01*
X112785714Y-98007380D01*
X113595238Y-97102619D02*
X113642857Y-97055000D01*
X113738095Y-97007380D01*
X113976190Y-97007380D01*
X114071428Y-97055000D01*
X114119047Y-97102619D01*
X114166666Y-97197857D01*
X114166666Y-97293095D01*
X114119047Y-97435952D01*
X113547619Y-98007380D01*
X114166666Y-98007380D01*
%TO.C,C7*%
X114857142Y-97916666D02*
X114904761Y-97964285D01*
X114952380Y-98107142D01*
X114952380Y-98202380D01*
X114904761Y-98345238D01*
X114809523Y-98440476D01*
X114714285Y-98488095D01*
X114523809Y-98535714D01*
X114380952Y-98535714D01*
X114190476Y-98488095D01*
X114095238Y-98440476D01*
X114000000Y-98345238D01*
X113952380Y-98202380D01*
X113952380Y-98107142D01*
X114000000Y-97964285D01*
X114047619Y-97916666D01*
X113952380Y-97583333D02*
X113952380Y-96916666D01*
X114952380Y-97345238D01*
%TO.C,K12*%
X153950714Y-80442380D02*
X153950714Y-79442380D01*
X154522142Y-80442380D02*
X154093571Y-79870952D01*
X154522142Y-79442380D02*
X153950714Y-80013809D01*
X155474523Y-80442380D02*
X154903095Y-80442380D01*
X155188809Y-80442380D02*
X155188809Y-79442380D01*
X155093571Y-79585238D01*
X154998333Y-79680476D01*
X154903095Y-79728095D01*
X155855476Y-79537619D02*
X155903095Y-79490000D01*
X155998333Y-79442380D01*
X156236428Y-79442380D01*
X156331666Y-79490000D01*
X156379285Y-79537619D01*
X156426904Y-79632857D01*
X156426904Y-79728095D01*
X156379285Y-79870952D01*
X155807857Y-80442380D01*
X156426904Y-80442380D01*
%TO.C,LD13*%
X140977380Y-85142857D02*
X140977380Y-85619047D01*
X139977380Y-85619047D01*
X140977380Y-84809523D02*
X139977380Y-84809523D01*
X139977380Y-84571428D01*
X140025000Y-84428571D01*
X140120238Y-84333333D01*
X140215476Y-84285714D01*
X140405952Y-84238095D01*
X140548809Y-84238095D01*
X140739285Y-84285714D01*
X140834523Y-84333333D01*
X140929761Y-84428571D01*
X140977380Y-84571428D01*
X140977380Y-84809523D01*
X140977380Y-83285714D02*
X140977380Y-83857142D01*
X140977380Y-83571428D02*
X139977380Y-83571428D01*
X140120238Y-83666666D01*
X140215476Y-83761904D01*
X140263095Y-83857142D01*
X139977380Y-82952380D02*
X139977380Y-82333333D01*
X140358333Y-82666666D01*
X140358333Y-82523809D01*
X140405952Y-82428571D01*
X140453571Y-82380952D01*
X140548809Y-82333333D01*
X140786904Y-82333333D01*
X140882142Y-82380952D01*
X140929761Y-82428571D01*
X140977380Y-82523809D01*
X140977380Y-82809523D01*
X140929761Y-82904761D01*
X140882142Y-82952380D01*
%TO.C,R22*%
X196857142Y-89952380D02*
X196523809Y-89476190D01*
X196285714Y-89952380D02*
X196285714Y-88952380D01*
X196666666Y-88952380D01*
X196761904Y-89000000D01*
X196809523Y-89047619D01*
X196857142Y-89142857D01*
X196857142Y-89285714D01*
X196809523Y-89380952D01*
X196761904Y-89428571D01*
X196666666Y-89476190D01*
X196285714Y-89476190D01*
X197238095Y-89047619D02*
X197285714Y-89000000D01*
X197380952Y-88952380D01*
X197619047Y-88952380D01*
X197714285Y-89000000D01*
X197761904Y-89047619D01*
X197809523Y-89142857D01*
X197809523Y-89238095D01*
X197761904Y-89380952D01*
X197190476Y-89952380D01*
X197809523Y-89952380D01*
X198190476Y-89047619D02*
X198238095Y-89000000D01*
X198333333Y-88952380D01*
X198571428Y-88952380D01*
X198666666Y-89000000D01*
X198714285Y-89047619D01*
X198761904Y-89142857D01*
X198761904Y-89238095D01*
X198714285Y-89380952D01*
X198142857Y-89952380D01*
X198761904Y-89952380D01*
%TO.C,C2*%
X104833333Y-98607142D02*
X104785714Y-98654761D01*
X104642857Y-98702380D01*
X104547619Y-98702380D01*
X104404761Y-98654761D01*
X104309523Y-98559523D01*
X104261904Y-98464285D01*
X104214285Y-98273809D01*
X104214285Y-98130952D01*
X104261904Y-97940476D01*
X104309523Y-97845238D01*
X104404761Y-97750000D01*
X104547619Y-97702380D01*
X104642857Y-97702380D01*
X104785714Y-97750000D01*
X104833333Y-97797619D01*
X105214285Y-97797619D02*
X105261904Y-97750000D01*
X105357142Y-97702380D01*
X105595238Y-97702380D01*
X105690476Y-97750000D01*
X105738095Y-97797619D01*
X105785714Y-97892857D01*
X105785714Y-97988095D01*
X105738095Y-98130952D01*
X105166666Y-98702380D01*
X105785714Y-98702380D01*
%TO.C,R16*%
X113532142Y-84022380D02*
X113198809Y-83546190D01*
X112960714Y-84022380D02*
X112960714Y-83022380D01*
X113341666Y-83022380D01*
X113436904Y-83070000D01*
X113484523Y-83117619D01*
X113532142Y-83212857D01*
X113532142Y-83355714D01*
X113484523Y-83450952D01*
X113436904Y-83498571D01*
X113341666Y-83546190D01*
X112960714Y-83546190D01*
X114484523Y-84022380D02*
X113913095Y-84022380D01*
X114198809Y-84022380D02*
X114198809Y-83022380D01*
X114103571Y-83165238D01*
X114008333Y-83260476D01*
X113913095Y-83308095D01*
X115341666Y-83022380D02*
X115151190Y-83022380D01*
X115055952Y-83070000D01*
X115008333Y-83117619D01*
X114913095Y-83260476D01*
X114865476Y-83450952D01*
X114865476Y-83831904D01*
X114913095Y-83927142D01*
X114960714Y-83974761D01*
X115055952Y-84022380D01*
X115246428Y-84022380D01*
X115341666Y-83974761D01*
X115389285Y-83927142D01*
X115436904Y-83831904D01*
X115436904Y-83593809D01*
X115389285Y-83498571D01*
X115341666Y-83450952D01*
X115246428Y-83403333D01*
X115055952Y-83403333D01*
X114960714Y-83450952D01*
X114913095Y-83498571D01*
X114865476Y-83593809D01*
%TO.C,Q4*%
X148447619Y-117595238D02*
X148400000Y-117690476D01*
X148304761Y-117785714D01*
X148161904Y-117928571D01*
X148114285Y-118023809D01*
X148114285Y-118119047D01*
X148352380Y-118071428D02*
X148304761Y-118166666D01*
X148209523Y-118261904D01*
X148019047Y-118309523D01*
X147685714Y-118309523D01*
X147495238Y-118261904D01*
X147400000Y-118166666D01*
X147352380Y-118071428D01*
X147352380Y-117880952D01*
X147400000Y-117785714D01*
X147495238Y-117690476D01*
X147685714Y-117642857D01*
X148019047Y-117642857D01*
X148209523Y-117690476D01*
X148304761Y-117785714D01*
X148352380Y-117880952D01*
X148352380Y-118071428D01*
X147685714Y-116785714D02*
X148352380Y-116785714D01*
X147304761Y-117023809D02*
X148019047Y-117261904D01*
X148019047Y-116642857D01*
%TO.C,Q15*%
X122322619Y-82508928D02*
X122275000Y-82604166D01*
X122179761Y-82699404D01*
X122036904Y-82842261D01*
X121989285Y-82937500D01*
X121989285Y-83032738D01*
X122227380Y-82985119D02*
X122179761Y-83080357D01*
X122084523Y-83175595D01*
X121894047Y-83223214D01*
X121560714Y-83223214D01*
X121370238Y-83175595D01*
X121275000Y-83080357D01*
X121227380Y-82985119D01*
X121227380Y-82794642D01*
X121275000Y-82699404D01*
X121370238Y-82604166D01*
X121560714Y-82556547D01*
X121894047Y-82556547D01*
X122084523Y-82604166D01*
X122179761Y-82699404D01*
X122227380Y-82794642D01*
X122227380Y-82985119D01*
X122227380Y-81604166D02*
X122227380Y-82175595D01*
X122227380Y-81889880D02*
X121227380Y-81889880D01*
X121370238Y-81985119D01*
X121465476Y-82080357D01*
X121513095Y-82175595D01*
X121227380Y-80699404D02*
X121227380Y-81175595D01*
X121703571Y-81223214D01*
X121655952Y-81175595D01*
X121608333Y-81080357D01*
X121608333Y-80842261D01*
X121655952Y-80747023D01*
X121703571Y-80699404D01*
X121798809Y-80651785D01*
X122036904Y-80651785D01*
X122132142Y-80699404D01*
X122179761Y-80747023D01*
X122227380Y-80842261D01*
X122227380Y-81080357D01*
X122179761Y-81175595D01*
X122132142Y-81223214D01*
%TO.C,D1*%
X114952380Y-118238095D02*
X113952380Y-118238095D01*
X113952380Y-118000000D01*
X114000000Y-117857142D01*
X114095238Y-117761904D01*
X114190476Y-117714285D01*
X114380952Y-117666666D01*
X114523809Y-117666666D01*
X114714285Y-117714285D01*
X114809523Y-117761904D01*
X114904761Y-117857142D01*
X114952380Y-118000000D01*
X114952380Y-118238095D01*
X114952380Y-116714285D02*
X114952380Y-117285714D01*
X114952380Y-117000000D02*
X113952380Y-117000000D01*
X114095238Y-117095238D01*
X114190476Y-117190476D01*
X114238095Y-117285714D01*
%TO.C,Q5*%
X158447619Y-117595238D02*
X158400000Y-117690476D01*
X158304761Y-117785714D01*
X158161904Y-117928571D01*
X158114285Y-118023809D01*
X158114285Y-118119047D01*
X158352380Y-118071428D02*
X158304761Y-118166666D01*
X158209523Y-118261904D01*
X158019047Y-118309523D01*
X157685714Y-118309523D01*
X157495238Y-118261904D01*
X157400000Y-118166666D01*
X157352380Y-118071428D01*
X157352380Y-117880952D01*
X157400000Y-117785714D01*
X157495238Y-117690476D01*
X157685714Y-117642857D01*
X158019047Y-117642857D01*
X158209523Y-117690476D01*
X158304761Y-117785714D01*
X158352380Y-117880952D01*
X158352380Y-118071428D01*
X157352380Y-116738095D02*
X157352380Y-117214285D01*
X157828571Y-117261904D01*
X157780952Y-117214285D01*
X157733333Y-117119047D01*
X157733333Y-116880952D01*
X157780952Y-116785714D01*
X157828571Y-116738095D01*
X157923809Y-116690476D01*
X158161904Y-116690476D01*
X158257142Y-116738095D01*
X158304761Y-116785714D01*
X158352380Y-116880952D01*
X158352380Y-117119047D01*
X158304761Y-117214285D01*
X158257142Y-117261904D01*
%TO.C,LD10*%
X170977380Y-85142857D02*
X170977380Y-85619047D01*
X169977380Y-85619047D01*
X170977380Y-84809523D02*
X169977380Y-84809523D01*
X169977380Y-84571428D01*
X170025000Y-84428571D01*
X170120238Y-84333333D01*
X170215476Y-84285714D01*
X170405952Y-84238095D01*
X170548809Y-84238095D01*
X170739285Y-84285714D01*
X170834523Y-84333333D01*
X170929761Y-84428571D01*
X170977380Y-84571428D01*
X170977380Y-84809523D01*
X170977380Y-83285714D02*
X170977380Y-83857142D01*
X170977380Y-83571428D02*
X169977380Y-83571428D01*
X170120238Y-83666666D01*
X170215476Y-83761904D01*
X170263095Y-83857142D01*
X169977380Y-82666666D02*
X169977380Y-82571428D01*
X170025000Y-82476190D01*
X170072619Y-82428571D01*
X170167857Y-82380952D01*
X170358333Y-82333333D01*
X170596428Y-82333333D01*
X170786904Y-82380952D01*
X170882142Y-82428571D01*
X170929761Y-82476190D01*
X170977380Y-82571428D01*
X170977380Y-82666666D01*
X170929761Y-82761904D01*
X170882142Y-82809523D01*
X170786904Y-82857142D01*
X170596428Y-82904761D01*
X170358333Y-82904761D01*
X170167857Y-82857142D01*
X170072619Y-82809523D01*
X170025000Y-82761904D01*
X169977380Y-82666666D01*
%TO.C,U2*%
X117488095Y-88702380D02*
X117488095Y-89511904D01*
X117535714Y-89607142D01*
X117583333Y-89654761D01*
X117678571Y-89702380D01*
X117869047Y-89702380D01*
X117964285Y-89654761D01*
X118011904Y-89607142D01*
X118059523Y-89511904D01*
X118059523Y-88702380D01*
X118488095Y-88797619D02*
X118535714Y-88750000D01*
X118630952Y-88702380D01*
X118869047Y-88702380D01*
X118964285Y-88750000D01*
X119011904Y-88797619D01*
X119059523Y-88892857D01*
X119059523Y-88988095D01*
X119011904Y-89130952D01*
X118440476Y-89702380D01*
X119059523Y-89702380D01*
%TO.C,Q13*%
X143322619Y-82571428D02*
X143275000Y-82666666D01*
X143179761Y-82761904D01*
X143036904Y-82904761D01*
X142989285Y-83000000D01*
X142989285Y-83095238D01*
X143227380Y-83047619D02*
X143179761Y-83142857D01*
X143084523Y-83238095D01*
X142894047Y-83285714D01*
X142560714Y-83285714D01*
X142370238Y-83238095D01*
X142275000Y-83142857D01*
X142227380Y-83047619D01*
X142227380Y-82857142D01*
X142275000Y-82761904D01*
X142370238Y-82666666D01*
X142560714Y-82619047D01*
X142894047Y-82619047D01*
X143084523Y-82666666D01*
X143179761Y-82761904D01*
X143227380Y-82857142D01*
X143227380Y-83047619D01*
X143227380Y-81666666D02*
X143227380Y-82238095D01*
X143227380Y-81952380D02*
X142227380Y-81952380D01*
X142370238Y-82047619D01*
X142465476Y-82142857D01*
X142513095Y-82238095D01*
X142227380Y-81333333D02*
X142227380Y-80714285D01*
X142608333Y-81047619D01*
X142608333Y-80904761D01*
X142655952Y-80809523D01*
X142703571Y-80761904D01*
X142798809Y-80714285D01*
X143036904Y-80714285D01*
X143132142Y-80761904D01*
X143179761Y-80809523D01*
X143227380Y-80904761D01*
X143227380Y-81190476D01*
X143179761Y-81285714D01*
X143132142Y-81333333D01*
%TO.C,R7*%
X175333333Y-116382380D02*
X175000000Y-115906190D01*
X174761904Y-116382380D02*
X174761904Y-115382380D01*
X175142857Y-115382380D01*
X175238095Y-115430000D01*
X175285714Y-115477619D01*
X175333333Y-115572857D01*
X175333333Y-115715714D01*
X175285714Y-115810952D01*
X175238095Y-115858571D01*
X175142857Y-115906190D01*
X174761904Y-115906190D01*
X175666666Y-115382380D02*
X176333333Y-115382380D01*
X175904761Y-116382380D01*
%TO.C,LD6*%
X170602380Y-116229166D02*
X170602380Y-116705357D01*
X169602380Y-116705357D01*
X170602380Y-115895833D02*
X169602380Y-115895833D01*
X169602380Y-115657738D01*
X169650000Y-115514880D01*
X169745238Y-115419642D01*
X169840476Y-115372023D01*
X170030952Y-115324404D01*
X170173809Y-115324404D01*
X170364285Y-115372023D01*
X170459523Y-115419642D01*
X170554761Y-115514880D01*
X170602380Y-115657738D01*
X170602380Y-115895833D01*
X169602380Y-114467261D02*
X169602380Y-114657738D01*
X169650000Y-114752976D01*
X169697619Y-114800595D01*
X169840476Y-114895833D01*
X170030952Y-114943452D01*
X170411904Y-114943452D01*
X170507142Y-114895833D01*
X170554761Y-114848214D01*
X170602380Y-114752976D01*
X170602380Y-114562500D01*
X170554761Y-114467261D01*
X170507142Y-114419642D01*
X170411904Y-114372023D01*
X170173809Y-114372023D01*
X170078571Y-114419642D01*
X170030952Y-114467261D01*
X169983333Y-114562500D01*
X169983333Y-114752976D01*
X170030952Y-114848214D01*
X170078571Y-114895833D01*
X170173809Y-114943452D01*
%TO.C,LD2*%
X130602380Y-116229166D02*
X130602380Y-116705357D01*
X129602380Y-116705357D01*
X130602380Y-115895833D02*
X129602380Y-115895833D01*
X129602380Y-115657738D01*
X129650000Y-115514880D01*
X129745238Y-115419642D01*
X129840476Y-115372023D01*
X130030952Y-115324404D01*
X130173809Y-115324404D01*
X130364285Y-115372023D01*
X130459523Y-115419642D01*
X130554761Y-115514880D01*
X130602380Y-115657738D01*
X130602380Y-115895833D01*
X129697619Y-114943452D02*
X129650000Y-114895833D01*
X129602380Y-114800595D01*
X129602380Y-114562500D01*
X129650000Y-114467261D01*
X129697619Y-114419642D01*
X129792857Y-114372023D01*
X129888095Y-114372023D01*
X130030952Y-114419642D01*
X130602380Y-114991071D01*
X130602380Y-114372023D01*
%TO.C,L1*%
X127833333Y-97682380D02*
X127357142Y-97682380D01*
X127357142Y-96682380D01*
X128690476Y-97682380D02*
X128119047Y-97682380D01*
X128404761Y-97682380D02*
X128404761Y-96682380D01*
X128309523Y-96825238D01*
X128214285Y-96920476D01*
X128119047Y-96968095D01*
%TO.C,D3*%
X134952380Y-118238095D02*
X133952380Y-118238095D01*
X133952380Y-118000000D01*
X134000000Y-117857142D01*
X134095238Y-117761904D01*
X134190476Y-117714285D01*
X134380952Y-117666666D01*
X134523809Y-117666666D01*
X134714285Y-117714285D01*
X134809523Y-117761904D01*
X134904761Y-117857142D01*
X134952380Y-118000000D01*
X134952380Y-118238095D01*
X133952380Y-117333333D02*
X133952380Y-116714285D01*
X134333333Y-117047619D01*
X134333333Y-116904761D01*
X134380952Y-116809523D01*
X134428571Y-116761904D01*
X134523809Y-116714285D01*
X134761904Y-116714285D01*
X134857142Y-116761904D01*
X134904761Y-116809523D01*
X134952380Y-116904761D01*
X134952380Y-117190476D01*
X134904761Y-117285714D01*
X134857142Y-117333333D01*
%TO.C,R24*%
X116607142Y-98952380D02*
X116273809Y-98476190D01*
X116035714Y-98952380D02*
X116035714Y-97952380D01*
X116416666Y-97952380D01*
X116511904Y-98000000D01*
X116559523Y-98047619D01*
X116607142Y-98142857D01*
X116607142Y-98285714D01*
X116559523Y-98380952D01*
X116511904Y-98428571D01*
X116416666Y-98476190D01*
X116035714Y-98476190D01*
X116988095Y-98047619D02*
X117035714Y-98000000D01*
X117130952Y-97952380D01*
X117369047Y-97952380D01*
X117464285Y-98000000D01*
X117511904Y-98047619D01*
X117559523Y-98142857D01*
X117559523Y-98238095D01*
X117511904Y-98380952D01*
X116940476Y-98952380D01*
X117559523Y-98952380D01*
X118416666Y-98285714D02*
X118416666Y-98952380D01*
X118178571Y-97904761D02*
X117940476Y-98619047D01*
X118559523Y-98619047D01*
%TO.C,JP2*%
X192366666Y-88952380D02*
X192366666Y-89666666D01*
X192319047Y-89809523D01*
X192223809Y-89904761D01*
X192080952Y-89952380D01*
X191985714Y-89952380D01*
X192842857Y-89952380D02*
X192842857Y-88952380D01*
X193223809Y-88952380D01*
X193319047Y-89000000D01*
X193366666Y-89047619D01*
X193414285Y-89142857D01*
X193414285Y-89285714D01*
X193366666Y-89380952D01*
X193319047Y-89428571D01*
X193223809Y-89476190D01*
X192842857Y-89476190D01*
X193795238Y-89047619D02*
X193842857Y-89000000D01*
X193938095Y-88952380D01*
X194176190Y-88952380D01*
X194271428Y-89000000D01*
X194319047Y-89047619D01*
X194366666Y-89142857D01*
X194366666Y-89238095D01*
X194319047Y-89380952D01*
X193747619Y-89952380D01*
X194366666Y-89952380D01*
X196085714Y-91952380D02*
X195514285Y-91952380D01*
X195800000Y-91952380D02*
X195800000Y-90952380D01*
X195704761Y-91095238D01*
X195609523Y-91190476D01*
X195514285Y-91238095D01*
X190266666Y-90952380D02*
X190885714Y-90952380D01*
X190552380Y-91333333D01*
X190695238Y-91333333D01*
X190790476Y-91380952D01*
X190838095Y-91428571D01*
X190885714Y-91523809D01*
X190885714Y-91761904D01*
X190838095Y-91857142D01*
X190790476Y-91904761D01*
X190695238Y-91952380D01*
X190409523Y-91952380D01*
X190314285Y-91904761D01*
X190266666Y-91857142D01*
%TO.C,H1*%
X194238095Y-140152380D02*
X194238095Y-139152380D01*
X194238095Y-139628571D02*
X194809523Y-139628571D01*
X194809523Y-140152380D02*
X194809523Y-139152380D01*
X195809523Y-140152380D02*
X195238095Y-140152380D01*
X195523809Y-140152380D02*
X195523809Y-139152380D01*
X195428571Y-139295238D01*
X195333333Y-139390476D01*
X195238095Y-139438095D01*
%TO.C,D4*%
X144952380Y-118238095D02*
X143952380Y-118238095D01*
X143952380Y-118000000D01*
X144000000Y-117857142D01*
X144095238Y-117761904D01*
X144190476Y-117714285D01*
X144380952Y-117666666D01*
X144523809Y-117666666D01*
X144714285Y-117714285D01*
X144809523Y-117761904D01*
X144904761Y-117857142D01*
X144952380Y-118000000D01*
X144952380Y-118238095D01*
X144285714Y-116809523D02*
X144952380Y-116809523D01*
X143904761Y-117047619D02*
X144619047Y-117285714D01*
X144619047Y-116666666D01*
%TO.C,D5*%
X154952380Y-118238095D02*
X153952380Y-118238095D01*
X153952380Y-118000000D01*
X154000000Y-117857142D01*
X154095238Y-117761904D01*
X154190476Y-117714285D01*
X154380952Y-117666666D01*
X154523809Y-117666666D01*
X154714285Y-117714285D01*
X154809523Y-117761904D01*
X154904761Y-117857142D01*
X154952380Y-118000000D01*
X154952380Y-118238095D01*
X153952380Y-116761904D02*
X153952380Y-117238095D01*
X154428571Y-117285714D01*
X154380952Y-117238095D01*
X154333333Y-117142857D01*
X154333333Y-116904761D01*
X154380952Y-116809523D01*
X154428571Y-116761904D01*
X154523809Y-116714285D01*
X154761904Y-116714285D01*
X154857142Y-116761904D01*
X154904761Y-116809523D01*
X154952380Y-116904761D01*
X154952380Y-117142857D01*
X154904761Y-117238095D01*
X154857142Y-117285714D01*
%TO.C,D12*%
X156627380Y-83214285D02*
X155627380Y-83214285D01*
X155627380Y-82976190D01*
X155675000Y-82833333D01*
X155770238Y-82738095D01*
X155865476Y-82690476D01*
X156055952Y-82642857D01*
X156198809Y-82642857D01*
X156389285Y-82690476D01*
X156484523Y-82738095D01*
X156579761Y-82833333D01*
X156627380Y-82976190D01*
X156627380Y-83214285D01*
X156627380Y-81690476D02*
X156627380Y-82261904D01*
X156627380Y-81976190D02*
X155627380Y-81976190D01*
X155770238Y-82071428D01*
X155865476Y-82166666D01*
X155913095Y-82261904D01*
X155722619Y-81309523D02*
X155675000Y-81261904D01*
X155627380Y-81166666D01*
X155627380Y-80928571D01*
X155675000Y-80833333D01*
X155722619Y-80785714D01*
X155817857Y-80738095D01*
X155913095Y-80738095D01*
X156055952Y-80785714D01*
X156627380Y-81357142D01*
X156627380Y-80738095D01*
%TO.C,U3*%
X142622380Y-100751904D02*
X143431904Y-100751904D01*
X143527142Y-100704285D01*
X143574761Y-100656666D01*
X143622380Y-100561428D01*
X143622380Y-100370952D01*
X143574761Y-100275714D01*
X143527142Y-100228095D01*
X143431904Y-100180476D01*
X142622380Y-100180476D01*
X142622380Y-99799523D02*
X142622380Y-99180476D01*
X143003333Y-99513809D01*
X143003333Y-99370952D01*
X143050952Y-99275714D01*
X143098571Y-99228095D01*
X143193809Y-99180476D01*
X143431904Y-99180476D01*
X143527142Y-99228095D01*
X143574761Y-99275714D01*
X143622380Y-99370952D01*
X143622380Y-99656666D01*
X143574761Y-99751904D01*
X143527142Y-99799523D01*
%TO.C,C1*%
X112357142Y-111471666D02*
X112404761Y-111519285D01*
X112452380Y-111662142D01*
X112452380Y-111757380D01*
X112404761Y-111900238D01*
X112309523Y-111995476D01*
X112214285Y-112043095D01*
X112023809Y-112090714D01*
X111880952Y-112090714D01*
X111690476Y-112043095D01*
X111595238Y-111995476D01*
X111500000Y-111900238D01*
X111452380Y-111757380D01*
X111452380Y-111662142D01*
X111500000Y-111519285D01*
X111547619Y-111471666D01*
X112452380Y-110519285D02*
X112452380Y-111090714D01*
X112452380Y-110805000D02*
X111452380Y-110805000D01*
X111595238Y-110900238D01*
X111690476Y-110995476D01*
X111738095Y-111090714D01*
%TO.C,LD1*%
X120602380Y-116166666D02*
X120602380Y-116642857D01*
X119602380Y-116642857D01*
X120602380Y-115833333D02*
X119602380Y-115833333D01*
X119602380Y-115595238D01*
X119650000Y-115452380D01*
X119745238Y-115357142D01*
X119840476Y-115309523D01*
X120030952Y-115261904D01*
X120173809Y-115261904D01*
X120364285Y-115309523D01*
X120459523Y-115357142D01*
X120554761Y-115452380D01*
X120602380Y-115595238D01*
X120602380Y-115833333D01*
X120602380Y-114309523D02*
X120602380Y-114880952D01*
X120602380Y-114595238D02*
X119602380Y-114595238D01*
X119745238Y-114690476D01*
X119840476Y-114785714D01*
X119888095Y-114880952D01*
%TO.C,R25*%
X138882380Y-104467857D02*
X138406190Y-104801190D01*
X138882380Y-105039285D02*
X137882380Y-105039285D01*
X137882380Y-104658333D01*
X137930000Y-104563095D01*
X137977619Y-104515476D01*
X138072857Y-104467857D01*
X138215714Y-104467857D01*
X138310952Y-104515476D01*
X138358571Y-104563095D01*
X138406190Y-104658333D01*
X138406190Y-105039285D01*
X137977619Y-104086904D02*
X137930000Y-104039285D01*
X137882380Y-103944047D01*
X137882380Y-103705952D01*
X137930000Y-103610714D01*
X137977619Y-103563095D01*
X138072857Y-103515476D01*
X138168095Y-103515476D01*
X138310952Y-103563095D01*
X138882380Y-104134523D01*
X138882380Y-103515476D01*
X137882380Y-102610714D02*
X137882380Y-103086904D01*
X138358571Y-103134523D01*
X138310952Y-103086904D01*
X138263333Y-102991666D01*
X138263333Y-102753571D01*
X138310952Y-102658333D01*
X138358571Y-102610714D01*
X138453809Y-102563095D01*
X138691904Y-102563095D01*
X138787142Y-102610714D01*
X138834761Y-102658333D01*
X138882380Y-102753571D01*
X138882380Y-102991666D01*
X138834761Y-103086904D01*
X138787142Y-103134523D01*
%TO.C,Q16*%
X112385119Y-82621428D02*
X112337500Y-82716666D01*
X112242261Y-82811904D01*
X112099404Y-82954761D01*
X112051785Y-83050000D01*
X112051785Y-83145238D01*
X112289880Y-83097619D02*
X112242261Y-83192857D01*
X112147023Y-83288095D01*
X111956547Y-83335714D01*
X111623214Y-83335714D01*
X111432738Y-83288095D01*
X111337500Y-83192857D01*
X111289880Y-83097619D01*
X111289880Y-82907142D01*
X111337500Y-82811904D01*
X111432738Y-82716666D01*
X111623214Y-82669047D01*
X111956547Y-82669047D01*
X112147023Y-82716666D01*
X112242261Y-82811904D01*
X112289880Y-82907142D01*
X112289880Y-83097619D01*
X112289880Y-81716666D02*
X112289880Y-82288095D01*
X112289880Y-82002380D02*
X111289880Y-82002380D01*
X111432738Y-82097619D01*
X111527976Y-82192857D01*
X111575595Y-82288095D01*
X111289880Y-80859523D02*
X111289880Y-81050000D01*
X111337500Y-81145238D01*
X111385119Y-81192857D01*
X111527976Y-81288095D01*
X111718452Y-81335714D01*
X112099404Y-81335714D01*
X112194642Y-81288095D01*
X112242261Y-81240476D01*
X112289880Y-81145238D01*
X112289880Y-80954761D01*
X112242261Y-80859523D01*
X112194642Y-80811904D01*
X112099404Y-80764285D01*
X111861309Y-80764285D01*
X111766071Y-80811904D01*
X111718452Y-80859523D01*
X111670833Y-80954761D01*
X111670833Y-81145238D01*
X111718452Y-81240476D01*
X111766071Y-81288095D01*
X111861309Y-81335714D01*
%TO.C,J6*%
X99657380Y-63808333D02*
X100371666Y-63808333D01*
X100514523Y-63855952D01*
X100609761Y-63951190D01*
X100657380Y-64094047D01*
X100657380Y-64189285D01*
X99657380Y-62903571D02*
X99657380Y-63094047D01*
X99705000Y-63189285D01*
X99752619Y-63236904D01*
X99895476Y-63332142D01*
X100085952Y-63379761D01*
X100466904Y-63379761D01*
X100562142Y-63332142D01*
X100609761Y-63284523D01*
X100657380Y-63189285D01*
X100657380Y-62998809D01*
X100609761Y-62903571D01*
X100562142Y-62855952D01*
X100466904Y-62808333D01*
X100228809Y-62808333D01*
X100133571Y-62855952D01*
X100085952Y-62903571D01*
X100038333Y-62998809D01*
X100038333Y-63189285D01*
X100085952Y-63284523D01*
X100133571Y-63332142D01*
X100228809Y-63379761D01*
%TO.C,Q3*%
X138385119Y-117595238D02*
X138337500Y-117690476D01*
X138242261Y-117785714D01*
X138099404Y-117928571D01*
X138051785Y-118023809D01*
X138051785Y-118119047D01*
X138289880Y-118071428D02*
X138242261Y-118166666D01*
X138147023Y-118261904D01*
X137956547Y-118309523D01*
X137623214Y-118309523D01*
X137432738Y-118261904D01*
X137337500Y-118166666D01*
X137289880Y-118071428D01*
X137289880Y-117880952D01*
X137337500Y-117785714D01*
X137432738Y-117690476D01*
X137623214Y-117642857D01*
X137956547Y-117642857D01*
X138147023Y-117690476D01*
X138242261Y-117785714D01*
X138289880Y-117880952D01*
X138289880Y-118071428D01*
X137289880Y-117309523D02*
X137289880Y-116690476D01*
X137670833Y-117023809D01*
X137670833Y-116880952D01*
X137718452Y-116785714D01*
X137766071Y-116738095D01*
X137861309Y-116690476D01*
X138099404Y-116690476D01*
X138194642Y-116738095D01*
X138242261Y-116785714D01*
X138289880Y-116880952D01*
X138289880Y-117166666D01*
X138242261Y-117261904D01*
X138194642Y-117309523D01*
%TO.C,Q11*%
X163372619Y-82633928D02*
X163325000Y-82729166D01*
X163229761Y-82824404D01*
X163086904Y-82967261D01*
X163039285Y-83062500D01*
X163039285Y-83157738D01*
X163277380Y-83110119D02*
X163229761Y-83205357D01*
X163134523Y-83300595D01*
X162944047Y-83348214D01*
X162610714Y-83348214D01*
X162420238Y-83300595D01*
X162325000Y-83205357D01*
X162277380Y-83110119D01*
X162277380Y-82919642D01*
X162325000Y-82824404D01*
X162420238Y-82729166D01*
X162610714Y-82681547D01*
X162944047Y-82681547D01*
X163134523Y-82729166D01*
X163229761Y-82824404D01*
X163277380Y-82919642D01*
X163277380Y-83110119D01*
X163277380Y-81729166D02*
X163277380Y-82300595D01*
X163277380Y-82014880D02*
X162277380Y-82014880D01*
X162420238Y-82110119D01*
X162515476Y-82205357D01*
X162563095Y-82300595D01*
X163277380Y-80776785D02*
X163277380Y-81348214D01*
X163277380Y-81062500D02*
X162277380Y-81062500D01*
X162420238Y-81157738D01*
X162515476Y-81252976D01*
X162563095Y-81348214D01*
%TO.C,Q1*%
X118447619Y-117595238D02*
X118400000Y-117690476D01*
X118304761Y-117785714D01*
X118161904Y-117928571D01*
X118114285Y-118023809D01*
X118114285Y-118119047D01*
X118352380Y-118071428D02*
X118304761Y-118166666D01*
X118209523Y-118261904D01*
X118019047Y-118309523D01*
X117685714Y-118309523D01*
X117495238Y-118261904D01*
X117400000Y-118166666D01*
X117352380Y-118071428D01*
X117352380Y-117880952D01*
X117400000Y-117785714D01*
X117495238Y-117690476D01*
X117685714Y-117642857D01*
X118019047Y-117642857D01*
X118209523Y-117690476D01*
X118304761Y-117785714D01*
X118352380Y-117880952D01*
X118352380Y-118071428D01*
X118352380Y-116690476D02*
X118352380Y-117261904D01*
X118352380Y-116976190D02*
X117352380Y-116976190D01*
X117495238Y-117071428D01*
X117590476Y-117166666D01*
X117638095Y-117261904D01*
%TO.C,H4*%
X194238095Y-50152380D02*
X194238095Y-49152380D01*
X194238095Y-49628571D02*
X194809523Y-49628571D01*
X194809523Y-50152380D02*
X194809523Y-49152380D01*
X195714285Y-49485714D02*
X195714285Y-50152380D01*
X195476190Y-49104761D02*
X195238095Y-49819047D01*
X195857142Y-49819047D01*
%TO.C,K6*%
X164771904Y-119962380D02*
X164771904Y-118962380D01*
X165343333Y-119962380D02*
X164914761Y-119390952D01*
X165343333Y-118962380D02*
X164771904Y-119533809D01*
X166200476Y-118962380D02*
X166010000Y-118962380D01*
X165914761Y-119010000D01*
X165867142Y-119057619D01*
X165771904Y-119200476D01*
X165724285Y-119390952D01*
X165724285Y-119771904D01*
X165771904Y-119867142D01*
X165819523Y-119914761D01*
X165914761Y-119962380D01*
X166105238Y-119962380D01*
X166200476Y-119914761D01*
X166248095Y-119867142D01*
X166295714Y-119771904D01*
X166295714Y-119533809D01*
X166248095Y-119438571D01*
X166200476Y-119390952D01*
X166105238Y-119343333D01*
X165914761Y-119343333D01*
X165819523Y-119390952D01*
X165771904Y-119438571D01*
X165724285Y-119533809D01*
%TO.C,D6*%
X164952380Y-118238095D02*
X163952380Y-118238095D01*
X163952380Y-118000000D01*
X164000000Y-117857142D01*
X164095238Y-117761904D01*
X164190476Y-117714285D01*
X164380952Y-117666666D01*
X164523809Y-117666666D01*
X164714285Y-117714285D01*
X164809523Y-117761904D01*
X164904761Y-117857142D01*
X164952380Y-118000000D01*
X164952380Y-118238095D01*
X163952380Y-116809523D02*
X163952380Y-117000000D01*
X164000000Y-117095238D01*
X164047619Y-117142857D01*
X164190476Y-117238095D01*
X164380952Y-117285714D01*
X164761904Y-117285714D01*
X164857142Y-117238095D01*
X164904761Y-117190476D01*
X164952380Y-117095238D01*
X164952380Y-116904761D01*
X164904761Y-116809523D01*
X164857142Y-116761904D01*
X164761904Y-116714285D01*
X164523809Y-116714285D01*
X164428571Y-116761904D01*
X164380952Y-116809523D01*
X164333333Y-116904761D01*
X164333333Y-117095238D01*
X164380952Y-117190476D01*
X164428571Y-117238095D01*
X164523809Y-117285714D01*
%TO.C,D7*%
X174952380Y-118238095D02*
X173952380Y-118238095D01*
X173952380Y-118000000D01*
X174000000Y-117857142D01*
X174095238Y-117761904D01*
X174190476Y-117714285D01*
X174380952Y-117666666D01*
X174523809Y-117666666D01*
X174714285Y-117714285D01*
X174809523Y-117761904D01*
X174904761Y-117857142D01*
X174952380Y-118000000D01*
X174952380Y-118238095D01*
X173952380Y-117333333D02*
X173952380Y-116666666D01*
X174952380Y-117095238D01*
%TO.C,R18*%
X118452380Y-112197857D02*
X117976190Y-112531190D01*
X118452380Y-112769285D02*
X117452380Y-112769285D01*
X117452380Y-112388333D01*
X117500000Y-112293095D01*
X117547619Y-112245476D01*
X117642857Y-112197857D01*
X117785714Y-112197857D01*
X117880952Y-112245476D01*
X117928571Y-112293095D01*
X117976190Y-112388333D01*
X117976190Y-112769285D01*
X118452380Y-111245476D02*
X118452380Y-111816904D01*
X118452380Y-111531190D02*
X117452380Y-111531190D01*
X117595238Y-111626428D01*
X117690476Y-111721666D01*
X117738095Y-111816904D01*
X117880952Y-110674047D02*
X117833333Y-110769285D01*
X117785714Y-110816904D01*
X117690476Y-110864523D01*
X117642857Y-110864523D01*
X117547619Y-110816904D01*
X117500000Y-110769285D01*
X117452380Y-110674047D01*
X117452380Y-110483571D01*
X117500000Y-110388333D01*
X117547619Y-110340714D01*
X117642857Y-110293095D01*
X117690476Y-110293095D01*
X117785714Y-110340714D01*
X117833333Y-110388333D01*
X117880952Y-110483571D01*
X117880952Y-110674047D01*
X117928571Y-110769285D01*
X117976190Y-110816904D01*
X118071428Y-110864523D01*
X118261904Y-110864523D01*
X118357142Y-110816904D01*
X118404761Y-110769285D01*
X118452380Y-110674047D01*
X118452380Y-110483571D01*
X118404761Y-110388333D01*
X118357142Y-110340714D01*
X118261904Y-110293095D01*
X118071428Y-110293095D01*
X117976190Y-110340714D01*
X117928571Y-110388333D01*
X117880952Y-110483571D01*
%TO.C,LD7*%
X180602380Y-116166666D02*
X180602380Y-116642857D01*
X179602380Y-116642857D01*
X180602380Y-115833333D02*
X179602380Y-115833333D01*
X179602380Y-115595238D01*
X179650000Y-115452380D01*
X179745238Y-115357142D01*
X179840476Y-115309523D01*
X180030952Y-115261904D01*
X180173809Y-115261904D01*
X180364285Y-115309523D01*
X180459523Y-115357142D01*
X180554761Y-115452380D01*
X180602380Y-115595238D01*
X180602380Y-115833333D01*
X179602380Y-114928571D02*
X179602380Y-114261904D01*
X180602380Y-114690476D01*
%TO.C,C10*%
X144287142Y-97642857D02*
X144334761Y-97690476D01*
X144382380Y-97833333D01*
X144382380Y-97928571D01*
X144334761Y-98071428D01*
X144239523Y-98166666D01*
X144144285Y-98214285D01*
X143953809Y-98261904D01*
X143810952Y-98261904D01*
X143620476Y-98214285D01*
X143525238Y-98166666D01*
X143430000Y-98071428D01*
X143382380Y-97928571D01*
X143382380Y-97833333D01*
X143430000Y-97690476D01*
X143477619Y-97642857D01*
X144382380Y-96690476D02*
X144382380Y-97261904D01*
X144382380Y-96976190D02*
X143382380Y-96976190D01*
X143525238Y-97071428D01*
X143620476Y-97166666D01*
X143668095Y-97261904D01*
X143382380Y-96071428D02*
X143382380Y-95976190D01*
X143430000Y-95880952D01*
X143477619Y-95833333D01*
X143572857Y-95785714D01*
X143763333Y-95738095D01*
X144001428Y-95738095D01*
X144191904Y-95785714D01*
X144287142Y-95833333D01*
X144334761Y-95880952D01*
X144382380Y-95976190D01*
X144382380Y-96071428D01*
X144334761Y-96166666D01*
X144287142Y-96214285D01*
X144191904Y-96261904D01*
X144001428Y-96309523D01*
X143763333Y-96309523D01*
X143572857Y-96261904D01*
X143477619Y-96214285D01*
X143430000Y-96166666D01*
X143382380Y-96071428D01*
%TO.C,K8*%
X184771904Y-119962380D02*
X184771904Y-118962380D01*
X185343333Y-119962380D02*
X184914761Y-119390952D01*
X185343333Y-118962380D02*
X184771904Y-119533809D01*
X185914761Y-119390952D02*
X185819523Y-119343333D01*
X185771904Y-119295714D01*
X185724285Y-119200476D01*
X185724285Y-119152857D01*
X185771904Y-119057619D01*
X185819523Y-119010000D01*
X185914761Y-118962380D01*
X186105238Y-118962380D01*
X186200476Y-119010000D01*
X186248095Y-119057619D01*
X186295714Y-119152857D01*
X186295714Y-119200476D01*
X186248095Y-119295714D01*
X186200476Y-119343333D01*
X186105238Y-119390952D01*
X185914761Y-119390952D01*
X185819523Y-119438571D01*
X185771904Y-119486190D01*
X185724285Y-119581428D01*
X185724285Y-119771904D01*
X185771904Y-119867142D01*
X185819523Y-119914761D01*
X185914761Y-119962380D01*
X186105238Y-119962380D01*
X186200476Y-119914761D01*
X186248095Y-119867142D01*
X186295714Y-119771904D01*
X186295714Y-119581428D01*
X186248095Y-119486190D01*
X186200476Y-119438571D01*
X186105238Y-119390952D01*
%TO.C,Q8*%
X188447619Y-116595238D02*
X188400000Y-116690476D01*
X188304761Y-116785714D01*
X188161904Y-116928571D01*
X188114285Y-117023809D01*
X188114285Y-117119047D01*
X188352380Y-117071428D02*
X188304761Y-117166666D01*
X188209523Y-117261904D01*
X188019047Y-117309523D01*
X187685714Y-117309523D01*
X187495238Y-117261904D01*
X187400000Y-117166666D01*
X187352380Y-117071428D01*
X187352380Y-116880952D01*
X187400000Y-116785714D01*
X187495238Y-116690476D01*
X187685714Y-116642857D01*
X188019047Y-116642857D01*
X188209523Y-116690476D01*
X188304761Y-116785714D01*
X188352380Y-116880952D01*
X188352380Y-117071428D01*
X187780952Y-116071428D02*
X187733333Y-116166666D01*
X187685714Y-116214285D01*
X187590476Y-116261904D01*
X187542857Y-116261904D01*
X187447619Y-116214285D01*
X187400000Y-116166666D01*
X187352380Y-116071428D01*
X187352380Y-115880952D01*
X187400000Y-115785714D01*
X187447619Y-115738095D01*
X187542857Y-115690476D01*
X187590476Y-115690476D01*
X187685714Y-115738095D01*
X187733333Y-115785714D01*
X187780952Y-115880952D01*
X187780952Y-116071428D01*
X187828571Y-116166666D01*
X187876190Y-116214285D01*
X187971428Y-116261904D01*
X188161904Y-116261904D01*
X188257142Y-116214285D01*
X188304761Y-116166666D01*
X188352380Y-116071428D01*
X188352380Y-115880952D01*
X188304761Y-115785714D01*
X188257142Y-115738095D01*
X188161904Y-115690476D01*
X187971428Y-115690476D01*
X187876190Y-115738095D01*
X187828571Y-115785714D01*
X187780952Y-115880952D01*
%TO.C,R6*%
X165333333Y-116382380D02*
X165000000Y-115906190D01*
X164761904Y-116382380D02*
X164761904Y-115382380D01*
X165142857Y-115382380D01*
X165238095Y-115430000D01*
X165285714Y-115477619D01*
X165333333Y-115572857D01*
X165333333Y-115715714D01*
X165285714Y-115810952D01*
X165238095Y-115858571D01*
X165142857Y-115906190D01*
X164761904Y-115906190D01*
X166190476Y-115382380D02*
X166000000Y-115382380D01*
X165904761Y-115430000D01*
X165857142Y-115477619D01*
X165761904Y-115620476D01*
X165714285Y-115810952D01*
X165714285Y-116191904D01*
X165761904Y-116287142D01*
X165809523Y-116334761D01*
X165904761Y-116382380D01*
X166095238Y-116382380D01*
X166190476Y-116334761D01*
X166238095Y-116287142D01*
X166285714Y-116191904D01*
X166285714Y-115953809D01*
X166238095Y-115858571D01*
X166190476Y-115810952D01*
X166095238Y-115763333D01*
X165904761Y-115763333D01*
X165809523Y-115810952D01*
X165761904Y-115858571D01*
X165714285Y-115953809D01*
%TO.C,D14*%
X136627380Y-83214285D02*
X135627380Y-83214285D01*
X135627380Y-82976190D01*
X135675000Y-82833333D01*
X135770238Y-82738095D01*
X135865476Y-82690476D01*
X136055952Y-82642857D01*
X136198809Y-82642857D01*
X136389285Y-82690476D01*
X136484523Y-82738095D01*
X136579761Y-82833333D01*
X136627380Y-82976190D01*
X136627380Y-83214285D01*
X136627380Y-81690476D02*
X136627380Y-82261904D01*
X136627380Y-81976190D02*
X135627380Y-81976190D01*
X135770238Y-82071428D01*
X135865476Y-82166666D01*
X135913095Y-82261904D01*
X135960714Y-80833333D02*
X136627380Y-80833333D01*
X135579761Y-81071428D02*
X136294047Y-81309523D01*
X136294047Y-80690476D01*
%TO.C,K11*%
X163950714Y-80442380D02*
X163950714Y-79442380D01*
X164522142Y-80442380D02*
X164093571Y-79870952D01*
X164522142Y-79442380D02*
X163950714Y-80013809D01*
X165474523Y-80442380D02*
X164903095Y-80442380D01*
X165188809Y-80442380D02*
X165188809Y-79442380D01*
X165093571Y-79585238D01*
X164998333Y-79680476D01*
X164903095Y-79728095D01*
X166426904Y-80442380D02*
X165855476Y-80442380D01*
X166141190Y-80442380D02*
X166141190Y-79442380D01*
X166045952Y-79585238D01*
X165950714Y-79680476D01*
X165855476Y-79728095D01*
%TO.C,K13*%
X143950714Y-80442380D02*
X143950714Y-79442380D01*
X144522142Y-80442380D02*
X144093571Y-79870952D01*
X144522142Y-79442380D02*
X143950714Y-80013809D01*
X145474523Y-80442380D02*
X144903095Y-80442380D01*
X145188809Y-80442380D02*
X145188809Y-79442380D01*
X145093571Y-79585238D01*
X144998333Y-79680476D01*
X144903095Y-79728095D01*
X145807857Y-79442380D02*
X146426904Y-79442380D01*
X146093571Y-79823333D01*
X146236428Y-79823333D01*
X146331666Y-79870952D01*
X146379285Y-79918571D01*
X146426904Y-80013809D01*
X146426904Y-80251904D01*
X146379285Y-80347142D01*
X146331666Y-80394761D01*
X146236428Y-80442380D01*
X145950714Y-80442380D01*
X145855476Y-80394761D01*
X145807857Y-80347142D01*
%TO.C,D15*%
X125627380Y-83214285D02*
X124627380Y-83214285D01*
X124627380Y-82976190D01*
X124675000Y-82833333D01*
X124770238Y-82738095D01*
X124865476Y-82690476D01*
X125055952Y-82642857D01*
X125198809Y-82642857D01*
X125389285Y-82690476D01*
X125484523Y-82738095D01*
X125579761Y-82833333D01*
X125627380Y-82976190D01*
X125627380Y-83214285D01*
X125627380Y-81690476D02*
X125627380Y-82261904D01*
X125627380Y-81976190D02*
X124627380Y-81976190D01*
X124770238Y-82071428D01*
X124865476Y-82166666D01*
X124913095Y-82261904D01*
X124627380Y-80785714D02*
X124627380Y-81261904D01*
X125103571Y-81309523D01*
X125055952Y-81261904D01*
X125008333Y-81166666D01*
X125008333Y-80928571D01*
X125055952Y-80833333D01*
X125103571Y-80785714D01*
X125198809Y-80738095D01*
X125436904Y-80738095D01*
X125532142Y-80785714D01*
X125579761Y-80833333D01*
X125627380Y-80928571D01*
X125627380Y-81166666D01*
X125579761Y-81261904D01*
X125532142Y-81309523D01*
%TO.C,R4*%
X145158333Y-116382380D02*
X144825000Y-115906190D01*
X144586904Y-116382380D02*
X144586904Y-115382380D01*
X144967857Y-115382380D01*
X145063095Y-115430000D01*
X145110714Y-115477619D01*
X145158333Y-115572857D01*
X145158333Y-115715714D01*
X145110714Y-115810952D01*
X145063095Y-115858571D01*
X144967857Y-115906190D01*
X144586904Y-115906190D01*
X146015476Y-115715714D02*
X146015476Y-116382380D01*
X145777380Y-115334761D02*
X145539285Y-116049047D01*
X146158333Y-116049047D01*
%TO.C,C6*%
X132333333Y-112107142D02*
X132285714Y-112154761D01*
X132142857Y-112202380D01*
X132047619Y-112202380D01*
X131904761Y-112154761D01*
X131809523Y-112059523D01*
X131761904Y-111964285D01*
X131714285Y-111773809D01*
X131714285Y-111630952D01*
X131761904Y-111440476D01*
X131809523Y-111345238D01*
X131904761Y-111250000D01*
X132047619Y-111202380D01*
X132142857Y-111202380D01*
X132285714Y-111250000D01*
X132333333Y-111297619D01*
X133190476Y-111202380D02*
X133000000Y-111202380D01*
X132904761Y-111250000D01*
X132857142Y-111297619D01*
X132761904Y-111440476D01*
X132714285Y-111630952D01*
X132714285Y-112011904D01*
X132761904Y-112107142D01*
X132809523Y-112154761D01*
X132904761Y-112202380D01*
X133095238Y-112202380D01*
X133190476Y-112154761D01*
X133238095Y-112107142D01*
X133285714Y-112011904D01*
X133285714Y-111773809D01*
X133238095Y-111678571D01*
X133190476Y-111630952D01*
X133095238Y-111583333D01*
X132904761Y-111583333D01*
X132809523Y-111630952D01*
X132761904Y-111678571D01*
X132714285Y-111773809D01*
%TO.C,D9*%
X186627380Y-82738095D02*
X185627380Y-82738095D01*
X185627380Y-82500000D01*
X185675000Y-82357142D01*
X185770238Y-82261904D01*
X185865476Y-82214285D01*
X186055952Y-82166666D01*
X186198809Y-82166666D01*
X186389285Y-82214285D01*
X186484523Y-82261904D01*
X186579761Y-82357142D01*
X186627380Y-82500000D01*
X186627380Y-82738095D01*
X186627380Y-81690476D02*
X186627380Y-81500000D01*
X186579761Y-81404761D01*
X186532142Y-81357142D01*
X186389285Y-81261904D01*
X186198809Y-81214285D01*
X185817857Y-81214285D01*
X185722619Y-81261904D01*
X185675000Y-81309523D01*
X185627380Y-81404761D01*
X185627380Y-81595238D01*
X185675000Y-81690476D01*
X185722619Y-81738095D01*
X185817857Y-81785714D01*
X186055952Y-81785714D01*
X186151190Y-81738095D01*
X186198809Y-81690476D01*
X186246428Y-81595238D01*
X186246428Y-81404761D01*
X186198809Y-81309523D01*
X186151190Y-81261904D01*
X186055952Y-81214285D01*
%TO.C,LD12*%
X150977380Y-85142857D02*
X150977380Y-85619047D01*
X149977380Y-85619047D01*
X150977380Y-84809523D02*
X149977380Y-84809523D01*
X149977380Y-84571428D01*
X150025000Y-84428571D01*
X150120238Y-84333333D01*
X150215476Y-84285714D01*
X150405952Y-84238095D01*
X150548809Y-84238095D01*
X150739285Y-84285714D01*
X150834523Y-84333333D01*
X150929761Y-84428571D01*
X150977380Y-84571428D01*
X150977380Y-84809523D01*
X150977380Y-83285714D02*
X150977380Y-83857142D01*
X150977380Y-83571428D02*
X149977380Y-83571428D01*
X150120238Y-83666666D01*
X150215476Y-83761904D01*
X150263095Y-83857142D01*
X150072619Y-82904761D02*
X150025000Y-82857142D01*
X149977380Y-82761904D01*
X149977380Y-82523809D01*
X150025000Y-82428571D01*
X150072619Y-82380952D01*
X150167857Y-82333333D01*
X150263095Y-82333333D01*
X150405952Y-82380952D01*
X150977380Y-82952380D01*
X150977380Y-82333333D01*
%TO.C,LD14*%
X130977380Y-85205357D02*
X130977380Y-85681547D01*
X129977380Y-85681547D01*
X130977380Y-84872023D02*
X129977380Y-84872023D01*
X129977380Y-84633928D01*
X130025000Y-84491071D01*
X130120238Y-84395833D01*
X130215476Y-84348214D01*
X130405952Y-84300595D01*
X130548809Y-84300595D01*
X130739285Y-84348214D01*
X130834523Y-84395833D01*
X130929761Y-84491071D01*
X130977380Y-84633928D01*
X130977380Y-84872023D01*
X130977380Y-83348214D02*
X130977380Y-83919642D01*
X130977380Y-83633928D02*
X129977380Y-83633928D01*
X130120238Y-83729166D01*
X130215476Y-83824404D01*
X130263095Y-83919642D01*
X130310714Y-82491071D02*
X130977380Y-82491071D01*
X129929761Y-82729166D02*
X130644047Y-82967261D01*
X130644047Y-82348214D01*
%TO.C,C4*%
X113857142Y-111471666D02*
X113904761Y-111519285D01*
X113952380Y-111662142D01*
X113952380Y-111757380D01*
X113904761Y-111900238D01*
X113809523Y-111995476D01*
X113714285Y-112043095D01*
X113523809Y-112090714D01*
X113380952Y-112090714D01*
X113190476Y-112043095D01*
X113095238Y-111995476D01*
X113000000Y-111900238D01*
X112952380Y-111757380D01*
X112952380Y-111662142D01*
X113000000Y-111519285D01*
X113047619Y-111471666D01*
X113285714Y-110614523D02*
X113952380Y-110614523D01*
X112904761Y-110852619D02*
X113619047Y-111090714D01*
X113619047Y-110471666D01*
%TO.C,K9*%
X184426904Y-80442380D02*
X184426904Y-79442380D01*
X184998333Y-80442380D02*
X184569761Y-79870952D01*
X184998333Y-79442380D02*
X184426904Y-80013809D01*
X185474523Y-80442380D02*
X185665000Y-80442380D01*
X185760238Y-80394761D01*
X185807857Y-80347142D01*
X185903095Y-80204285D01*
X185950714Y-80013809D01*
X185950714Y-79632857D01*
X185903095Y-79537619D01*
X185855476Y-79490000D01*
X185760238Y-79442380D01*
X185569761Y-79442380D01*
X185474523Y-79490000D01*
X185426904Y-79537619D01*
X185379285Y-79632857D01*
X185379285Y-79870952D01*
X185426904Y-79966190D01*
X185474523Y-80013809D01*
X185569761Y-80061428D01*
X185760238Y-80061428D01*
X185855476Y-80013809D01*
X185903095Y-79966190D01*
X185950714Y-79870952D01*
%TO.C,K1*%
X114771904Y-119962380D02*
X114771904Y-118962380D01*
X115343333Y-119962380D02*
X114914761Y-119390952D01*
X115343333Y-118962380D02*
X114771904Y-119533809D01*
X116295714Y-119962380D02*
X115724285Y-119962380D01*
X116010000Y-119962380D02*
X116010000Y-118962380D01*
X115914761Y-119105238D01*
X115819523Y-119200476D01*
X115724285Y-119248095D01*
%TO.C,LD8*%
X190602380Y-115166666D02*
X190602380Y-115642857D01*
X189602380Y-115642857D01*
X190602380Y-114833333D02*
X189602380Y-114833333D01*
X189602380Y-114595238D01*
X189650000Y-114452380D01*
X189745238Y-114357142D01*
X189840476Y-114309523D01*
X190030952Y-114261904D01*
X190173809Y-114261904D01*
X190364285Y-114309523D01*
X190459523Y-114357142D01*
X190554761Y-114452380D01*
X190602380Y-114595238D01*
X190602380Y-114833333D01*
X190030952Y-113690476D02*
X189983333Y-113785714D01*
X189935714Y-113833333D01*
X189840476Y-113880952D01*
X189792857Y-113880952D01*
X189697619Y-113833333D01*
X189650000Y-113785714D01*
X189602380Y-113690476D01*
X189602380Y-113500000D01*
X189650000Y-113404761D01*
X189697619Y-113357142D01*
X189792857Y-113309523D01*
X189840476Y-113309523D01*
X189935714Y-113357142D01*
X189983333Y-113404761D01*
X190030952Y-113500000D01*
X190030952Y-113690476D01*
X190078571Y-113785714D01*
X190126190Y-113833333D01*
X190221428Y-113880952D01*
X190411904Y-113880952D01*
X190507142Y-113833333D01*
X190554761Y-113785714D01*
X190602380Y-113690476D01*
X190602380Y-113500000D01*
X190554761Y-113404761D01*
X190507142Y-113357142D01*
X190411904Y-113309523D01*
X190221428Y-113309523D01*
X190126190Y-113357142D01*
X190078571Y-113404761D01*
X190030952Y-113500000D01*
%TO.C,K5*%
X154771904Y-119962380D02*
X154771904Y-118962380D01*
X155343333Y-119962380D02*
X154914761Y-119390952D01*
X155343333Y-118962380D02*
X154771904Y-119533809D01*
X156248095Y-118962380D02*
X155771904Y-118962380D01*
X155724285Y-119438571D01*
X155771904Y-119390952D01*
X155867142Y-119343333D01*
X156105238Y-119343333D01*
X156200476Y-119390952D01*
X156248095Y-119438571D01*
X156295714Y-119533809D01*
X156295714Y-119771904D01*
X156248095Y-119867142D01*
X156200476Y-119914761D01*
X156105238Y-119962380D01*
X155867142Y-119962380D01*
X155771904Y-119914761D01*
X155724285Y-119867142D01*
%TO.C,H3*%
X104238095Y-140152380D02*
X104238095Y-139152380D01*
X104238095Y-139628571D02*
X104809523Y-139628571D01*
X104809523Y-140152380D02*
X104809523Y-139152380D01*
X105190476Y-139152380D02*
X105809523Y-139152380D01*
X105476190Y-139533333D01*
X105619047Y-139533333D01*
X105714285Y-139580952D01*
X105761904Y-139628571D01*
X105809523Y-139723809D01*
X105809523Y-139961904D01*
X105761904Y-140057142D01*
X105714285Y-140104761D01*
X105619047Y-140152380D01*
X105333333Y-140152380D01*
X105238095Y-140104761D01*
X105190476Y-140057142D01*
%TO.C,K7*%
X174771904Y-119962380D02*
X174771904Y-118962380D01*
X175343333Y-119962380D02*
X174914761Y-119390952D01*
X175343333Y-118962380D02*
X174771904Y-119533809D01*
X175676666Y-118962380D02*
X176343333Y-118962380D01*
X175914761Y-119962380D01*
%TO.C,LD16*%
X109977380Y-85205357D02*
X109977380Y-85681547D01*
X108977380Y-85681547D01*
X109977380Y-84872023D02*
X108977380Y-84872023D01*
X108977380Y-84633928D01*
X109025000Y-84491071D01*
X109120238Y-84395833D01*
X109215476Y-84348214D01*
X109405952Y-84300595D01*
X109548809Y-84300595D01*
X109739285Y-84348214D01*
X109834523Y-84395833D01*
X109929761Y-84491071D01*
X109977380Y-84633928D01*
X109977380Y-84872023D01*
X109977380Y-83348214D02*
X109977380Y-83919642D01*
X109977380Y-83633928D02*
X108977380Y-83633928D01*
X109120238Y-83729166D01*
X109215476Y-83824404D01*
X109263095Y-83919642D01*
X108977380Y-82491071D02*
X108977380Y-82681547D01*
X109025000Y-82776785D01*
X109072619Y-82824404D01*
X109215476Y-82919642D01*
X109405952Y-82967261D01*
X109786904Y-82967261D01*
X109882142Y-82919642D01*
X109929761Y-82872023D01*
X109977380Y-82776785D01*
X109977380Y-82586309D01*
X109929761Y-82491071D01*
X109882142Y-82443452D01*
X109786904Y-82395833D01*
X109548809Y-82395833D01*
X109453571Y-82443452D01*
X109405952Y-82491071D01*
X109358333Y-82586309D01*
X109358333Y-82776785D01*
X109405952Y-82872023D01*
X109453571Y-82919642D01*
X109548809Y-82967261D01*
%TO.C,C8*%
X187047142Y-102941666D02*
X187094761Y-102989285D01*
X187142380Y-103132142D01*
X187142380Y-103227380D01*
X187094761Y-103370238D01*
X186999523Y-103465476D01*
X186904285Y-103513095D01*
X186713809Y-103560714D01*
X186570952Y-103560714D01*
X186380476Y-103513095D01*
X186285238Y-103465476D01*
X186190000Y-103370238D01*
X186142380Y-103227380D01*
X186142380Y-103132142D01*
X186190000Y-102989285D01*
X186237619Y-102941666D01*
X186570952Y-102370238D02*
X186523333Y-102465476D01*
X186475714Y-102513095D01*
X186380476Y-102560714D01*
X186332857Y-102560714D01*
X186237619Y-102513095D01*
X186190000Y-102465476D01*
X186142380Y-102370238D01*
X186142380Y-102179761D01*
X186190000Y-102084523D01*
X186237619Y-102036904D01*
X186332857Y-101989285D01*
X186380476Y-101989285D01*
X186475714Y-102036904D01*
X186523333Y-102084523D01*
X186570952Y-102179761D01*
X186570952Y-102370238D01*
X186618571Y-102465476D01*
X186666190Y-102513095D01*
X186761428Y-102560714D01*
X186951904Y-102560714D01*
X187047142Y-102513095D01*
X187094761Y-102465476D01*
X187142380Y-102370238D01*
X187142380Y-102179761D01*
X187094761Y-102084523D01*
X187047142Y-102036904D01*
X186951904Y-101989285D01*
X186761428Y-101989285D01*
X186666190Y-102036904D01*
X186618571Y-102084523D01*
X186570952Y-102179761D01*
%TO.C,R8*%
X185333333Y-115382380D02*
X185000000Y-114906190D01*
X184761904Y-115382380D02*
X184761904Y-114382380D01*
X185142857Y-114382380D01*
X185238095Y-114430000D01*
X185285714Y-114477619D01*
X185333333Y-114572857D01*
X185333333Y-114715714D01*
X185285714Y-114810952D01*
X185238095Y-114858571D01*
X185142857Y-114906190D01*
X184761904Y-114906190D01*
X185904761Y-114810952D02*
X185809523Y-114763333D01*
X185761904Y-114715714D01*
X185714285Y-114620476D01*
X185714285Y-114572857D01*
X185761904Y-114477619D01*
X185809523Y-114430000D01*
X185904761Y-114382380D01*
X186095238Y-114382380D01*
X186190476Y-114430000D01*
X186238095Y-114477619D01*
X186285714Y-114572857D01*
X186285714Y-114620476D01*
X186238095Y-114715714D01*
X186190476Y-114763333D01*
X186095238Y-114810952D01*
X185904761Y-114810952D01*
X185809523Y-114858571D01*
X185761904Y-114906190D01*
X185714285Y-115001428D01*
X185714285Y-115191904D01*
X185761904Y-115287142D01*
X185809523Y-115334761D01*
X185904761Y-115382380D01*
X186095238Y-115382380D01*
X186190476Y-115334761D01*
X186238095Y-115287142D01*
X186285714Y-115191904D01*
X186285714Y-115001428D01*
X186238095Y-114906190D01*
X186190476Y-114858571D01*
X186095238Y-114810952D01*
%TO.C,R23*%
X116532142Y-97702380D02*
X116198809Y-97226190D01*
X115960714Y-97702380D02*
X115960714Y-96702380D01*
X116341666Y-96702380D01*
X116436904Y-96750000D01*
X116484523Y-96797619D01*
X116532142Y-96892857D01*
X116532142Y-97035714D01*
X116484523Y-97130952D01*
X116436904Y-97178571D01*
X116341666Y-97226190D01*
X115960714Y-97226190D01*
X116913095Y-96797619D02*
X116960714Y-96750000D01*
X117055952Y-96702380D01*
X117294047Y-96702380D01*
X117389285Y-96750000D01*
X117436904Y-96797619D01*
X117484523Y-96892857D01*
X117484523Y-96988095D01*
X117436904Y-97130952D01*
X116865476Y-97702380D01*
X117484523Y-97702380D01*
X117817857Y-96702380D02*
X118436904Y-96702380D01*
X118103571Y-97083333D01*
X118246428Y-97083333D01*
X118341666Y-97130952D01*
X118389285Y-97178571D01*
X118436904Y-97273809D01*
X118436904Y-97511904D01*
X118389285Y-97607142D01*
X118341666Y-97654761D01*
X118246428Y-97702380D01*
X117960714Y-97702380D01*
X117865476Y-97654761D01*
X117817857Y-97607142D01*
%TO.C,D11*%
X166627380Y-83214285D02*
X165627380Y-83214285D01*
X165627380Y-82976190D01*
X165675000Y-82833333D01*
X165770238Y-82738095D01*
X165865476Y-82690476D01*
X166055952Y-82642857D01*
X166198809Y-82642857D01*
X166389285Y-82690476D01*
X166484523Y-82738095D01*
X166579761Y-82833333D01*
X166627380Y-82976190D01*
X166627380Y-83214285D01*
X166627380Y-81690476D02*
X166627380Y-82261904D01*
X166627380Y-81976190D02*
X165627380Y-81976190D01*
X165770238Y-82071428D01*
X165865476Y-82166666D01*
X165913095Y-82261904D01*
X166627380Y-80738095D02*
X166627380Y-81309523D01*
X166627380Y-81023809D02*
X165627380Y-81023809D01*
X165770238Y-81119047D01*
X165865476Y-81214285D01*
X165913095Y-81309523D01*
%TO.C,C3*%
X112357142Y-98166666D02*
X112404761Y-98214285D01*
X112452380Y-98357142D01*
X112452380Y-98452380D01*
X112404761Y-98595238D01*
X112309523Y-98690476D01*
X112214285Y-98738095D01*
X112023809Y-98785714D01*
X111880952Y-98785714D01*
X111690476Y-98738095D01*
X111595238Y-98690476D01*
X111500000Y-98595238D01*
X111452380Y-98452380D01*
X111452380Y-98357142D01*
X111500000Y-98214285D01*
X111547619Y-98166666D01*
X111452380Y-97833333D02*
X111452380Y-97214285D01*
X111833333Y-97547619D01*
X111833333Y-97404761D01*
X111880952Y-97309523D01*
X111928571Y-97261904D01*
X112023809Y-97214285D01*
X112261904Y-97214285D01*
X112357142Y-97261904D01*
X112404761Y-97309523D01*
X112452380Y-97404761D01*
X112452380Y-97690476D01*
X112404761Y-97785714D01*
X112357142Y-97833333D01*
%TO.C,D16*%
X115627380Y-83214285D02*
X114627380Y-83214285D01*
X114627380Y-82976190D01*
X114675000Y-82833333D01*
X114770238Y-82738095D01*
X114865476Y-82690476D01*
X115055952Y-82642857D01*
X115198809Y-82642857D01*
X115389285Y-82690476D01*
X115484523Y-82738095D01*
X115579761Y-82833333D01*
X115627380Y-82976190D01*
X115627380Y-83214285D01*
X115627380Y-81690476D02*
X115627380Y-82261904D01*
X115627380Y-81976190D02*
X114627380Y-81976190D01*
X114770238Y-82071428D01*
X114865476Y-82166666D01*
X114913095Y-82261904D01*
X114627380Y-80833333D02*
X114627380Y-81023809D01*
X114675000Y-81119047D01*
X114722619Y-81166666D01*
X114865476Y-81261904D01*
X115055952Y-81309523D01*
X115436904Y-81309523D01*
X115532142Y-81261904D01*
X115579761Y-81214285D01*
X115627380Y-81119047D01*
X115627380Y-80928571D01*
X115579761Y-80833333D01*
X115532142Y-80785714D01*
X115436904Y-80738095D01*
X115198809Y-80738095D01*
X115103571Y-80785714D01*
X115055952Y-80833333D01*
X115008333Y-80928571D01*
X115008333Y-81119047D01*
X115055952Y-81214285D01*
X115103571Y-81261904D01*
X115198809Y-81309523D01*
%TO.C,U1*%
X107238095Y-103007380D02*
X107238095Y-103816904D01*
X107285714Y-103912142D01*
X107333333Y-103959761D01*
X107428571Y-104007380D01*
X107619047Y-104007380D01*
X107714285Y-103959761D01*
X107761904Y-103912142D01*
X107809523Y-103816904D01*
X107809523Y-103007380D01*
X108809523Y-104007380D02*
X108238095Y-104007380D01*
X108523809Y-104007380D02*
X108523809Y-103007380D01*
X108428571Y-103150238D01*
X108333333Y-103245476D01*
X108238095Y-103293095D01*
%TO.C,J4*%
X112666666Y-85202380D02*
X112666666Y-85916666D01*
X112619047Y-86059523D01*
X112523809Y-86154761D01*
X112380952Y-86202380D01*
X112285714Y-86202380D01*
X113571428Y-85535714D02*
X113571428Y-86202380D01*
X113333333Y-85154761D02*
X113095238Y-85869047D01*
X113714285Y-85869047D01*
%TO.C,Q9*%
X183385119Y-82032738D02*
X183337500Y-82127976D01*
X183242261Y-82223214D01*
X183099404Y-82366071D01*
X183051785Y-82461309D01*
X183051785Y-82556547D01*
X183289880Y-82508928D02*
X183242261Y-82604166D01*
X183147023Y-82699404D01*
X182956547Y-82747023D01*
X182623214Y-82747023D01*
X182432738Y-82699404D01*
X182337500Y-82604166D01*
X182289880Y-82508928D01*
X182289880Y-82318452D01*
X182337500Y-82223214D01*
X182432738Y-82127976D01*
X182623214Y-82080357D01*
X182956547Y-82080357D01*
X183147023Y-82127976D01*
X183242261Y-82223214D01*
X183289880Y-82318452D01*
X183289880Y-82508928D01*
X183289880Y-81604166D02*
X183289880Y-81413690D01*
X183242261Y-81318452D01*
X183194642Y-81270833D01*
X183051785Y-81175595D01*
X182861309Y-81127976D01*
X182480357Y-81127976D01*
X182385119Y-81175595D01*
X182337500Y-81223214D01*
X182289880Y-81318452D01*
X182289880Y-81508928D01*
X182337500Y-81604166D01*
X182385119Y-81651785D01*
X182480357Y-81699404D01*
X182718452Y-81699404D01*
X182813690Y-81651785D01*
X182861309Y-81604166D01*
X182908928Y-81508928D01*
X182908928Y-81318452D01*
X182861309Y-81223214D01*
X182813690Y-81175595D01*
X182718452Y-81127976D01*
%TO.C,D13*%
X146627380Y-83214285D02*
X145627380Y-83214285D01*
X145627380Y-82976190D01*
X145675000Y-82833333D01*
X145770238Y-82738095D01*
X145865476Y-82690476D01*
X146055952Y-82642857D01*
X146198809Y-82642857D01*
X146389285Y-82690476D01*
X146484523Y-82738095D01*
X146579761Y-82833333D01*
X146627380Y-82976190D01*
X146627380Y-83214285D01*
X146627380Y-81690476D02*
X146627380Y-82261904D01*
X146627380Y-81976190D02*
X145627380Y-81976190D01*
X145770238Y-82071428D01*
X145865476Y-82166666D01*
X145913095Y-82261904D01*
X145627380Y-81357142D02*
X145627380Y-80738095D01*
X146008333Y-81071428D01*
X146008333Y-80928571D01*
X146055952Y-80833333D01*
X146103571Y-80785714D01*
X146198809Y-80738095D01*
X146436904Y-80738095D01*
X146532142Y-80785714D01*
X146579761Y-80833333D01*
X146627380Y-80928571D01*
X146627380Y-81214285D01*
X146579761Y-81309523D01*
X146532142Y-81357142D01*
%TO.C,J7*%
X127782380Y-146063333D02*
X128496666Y-146063333D01*
X128639523Y-146110952D01*
X128734761Y-146206190D01*
X128782380Y-146349047D01*
X128782380Y-146444285D01*
X127782380Y-145682380D02*
X127782380Y-145015714D01*
X128782380Y-145444285D01*
%TO.C,U4*%
X186902380Y-100771904D02*
X187711904Y-100771904D01*
X187807142Y-100724285D01*
X187854761Y-100676666D01*
X187902380Y-100581428D01*
X187902380Y-100390952D01*
X187854761Y-100295714D01*
X187807142Y-100248095D01*
X187711904Y-100200476D01*
X186902380Y-100200476D01*
X187235714Y-99295714D02*
X187902380Y-99295714D01*
X186854761Y-99533809D02*
X187569047Y-99771904D01*
X187569047Y-99152857D01*
%TO.C,D8*%
X184952380Y-117888095D02*
X183952380Y-117888095D01*
X183952380Y-117650000D01*
X184000000Y-117507142D01*
X184095238Y-117411904D01*
X184190476Y-117364285D01*
X184380952Y-117316666D01*
X184523809Y-117316666D01*
X184714285Y-117364285D01*
X184809523Y-117411904D01*
X184904761Y-117507142D01*
X184952380Y-117650000D01*
X184952380Y-117888095D01*
X184380952Y-116745238D02*
X184333333Y-116840476D01*
X184285714Y-116888095D01*
X184190476Y-116935714D01*
X184142857Y-116935714D01*
X184047619Y-116888095D01*
X184000000Y-116840476D01*
X183952380Y-116745238D01*
X183952380Y-116554761D01*
X184000000Y-116459523D01*
X184047619Y-116411904D01*
X184142857Y-116364285D01*
X184190476Y-116364285D01*
X184285714Y-116411904D01*
X184333333Y-116459523D01*
X184380952Y-116554761D01*
X184380952Y-116745238D01*
X184428571Y-116840476D01*
X184476190Y-116888095D01*
X184571428Y-116935714D01*
X184761904Y-116935714D01*
X184857142Y-116888095D01*
X184904761Y-116840476D01*
X184952380Y-116745238D01*
X184952380Y-116554761D01*
X184904761Y-116459523D01*
X184857142Y-116411904D01*
X184761904Y-116364285D01*
X184571428Y-116364285D01*
X184476190Y-116411904D01*
X184428571Y-116459523D01*
X184380952Y-116554761D01*
%TO.C,TP1*%
X166238095Y-109702380D02*
X166809523Y-109702380D01*
X166523809Y-110702380D02*
X166523809Y-109702380D01*
X167142857Y-110702380D02*
X167142857Y-109702380D01*
X167523809Y-109702380D01*
X167619047Y-109750000D01*
X167666666Y-109797619D01*
X167714285Y-109892857D01*
X167714285Y-110035714D01*
X167666666Y-110130952D01*
X167619047Y-110178571D01*
X167523809Y-110226190D01*
X167142857Y-110226190D01*
X168666666Y-110702380D02*
X168095238Y-110702380D01*
X168380952Y-110702380D02*
X168380952Y-109702380D01*
X168285714Y-109845238D01*
X168190476Y-109940476D01*
X168095238Y-109988095D01*
%TO.C,K4*%
X144771904Y-119962380D02*
X144771904Y-118962380D01*
X145343333Y-119962380D02*
X144914761Y-119390952D01*
X145343333Y-118962380D02*
X144771904Y-119533809D01*
X146200476Y-119295714D02*
X146200476Y-119962380D01*
X145962380Y-118914761D02*
X145724285Y-119629047D01*
X146343333Y-119629047D01*
%TO.C,K10*%
X173950714Y-80442380D02*
X173950714Y-79442380D01*
X174522142Y-80442380D02*
X174093571Y-79870952D01*
X174522142Y-79442380D02*
X173950714Y-80013809D01*
X175474523Y-80442380D02*
X174903095Y-80442380D01*
X175188809Y-80442380D02*
X175188809Y-79442380D01*
X175093571Y-79585238D01*
X174998333Y-79680476D01*
X174903095Y-79728095D01*
X176093571Y-79442380D02*
X176188809Y-79442380D01*
X176284047Y-79490000D01*
X176331666Y-79537619D01*
X176379285Y-79632857D01*
X176426904Y-79823333D01*
X176426904Y-80061428D01*
X176379285Y-80251904D01*
X176331666Y-80347142D01*
X176284047Y-80394761D01*
X176188809Y-80442380D01*
X176093571Y-80442380D01*
X175998333Y-80394761D01*
X175950714Y-80347142D01*
X175903095Y-80251904D01*
X175855476Y-80061428D01*
X175855476Y-79823333D01*
X175903095Y-79632857D01*
X175950714Y-79537619D01*
X175998333Y-79490000D01*
X176093571Y-79442380D01*
%TO.C,K14*%
X133950714Y-80442380D02*
X133950714Y-79442380D01*
X134522142Y-80442380D02*
X134093571Y-79870952D01*
X134522142Y-79442380D02*
X133950714Y-80013809D01*
X135474523Y-80442380D02*
X134903095Y-80442380D01*
X135188809Y-80442380D02*
X135188809Y-79442380D01*
X135093571Y-79585238D01*
X134998333Y-79680476D01*
X134903095Y-79728095D01*
X136331666Y-79775714D02*
X136331666Y-80442380D01*
X136093571Y-79394761D02*
X135855476Y-80109047D01*
X136474523Y-80109047D01*
%TO.C,Q2*%
X128447619Y-117595238D02*
X128400000Y-117690476D01*
X128304761Y-117785714D01*
X128161904Y-117928571D01*
X128114285Y-118023809D01*
X128114285Y-118119047D01*
X128352380Y-118071428D02*
X128304761Y-118166666D01*
X128209523Y-118261904D01*
X128019047Y-118309523D01*
X127685714Y-118309523D01*
X127495238Y-118261904D01*
X127400000Y-118166666D01*
X127352380Y-118071428D01*
X127352380Y-117880952D01*
X127400000Y-117785714D01*
X127495238Y-117690476D01*
X127685714Y-117642857D01*
X128019047Y-117642857D01*
X128209523Y-117690476D01*
X128304761Y-117785714D01*
X128352380Y-117880952D01*
X128352380Y-118071428D01*
X127447619Y-117261904D02*
X127400000Y-117214285D01*
X127352380Y-117119047D01*
X127352380Y-116880952D01*
X127400000Y-116785714D01*
X127447619Y-116738095D01*
X127542857Y-116690476D01*
X127638095Y-116690476D01*
X127780952Y-116738095D01*
X128352380Y-117309523D01*
X128352380Y-116690476D01*
%TO.C,C5*%
X123833333Y-112107142D02*
X123785714Y-112154761D01*
X123642857Y-112202380D01*
X123547619Y-112202380D01*
X123404761Y-112154761D01*
X123309523Y-112059523D01*
X123261904Y-111964285D01*
X123214285Y-111773809D01*
X123214285Y-111630952D01*
X123261904Y-111440476D01*
X123309523Y-111345238D01*
X123404761Y-111250000D01*
X123547619Y-111202380D01*
X123642857Y-111202380D01*
X123785714Y-111250000D01*
X123833333Y-111297619D01*
X124738095Y-111202380D02*
X124261904Y-111202380D01*
X124214285Y-111678571D01*
X124261904Y-111630952D01*
X124357142Y-111583333D01*
X124595238Y-111583333D01*
X124690476Y-111630952D01*
X124738095Y-111678571D01*
X124785714Y-111773809D01*
X124785714Y-112011904D01*
X124738095Y-112107142D01*
X124690476Y-112154761D01*
X124595238Y-112202380D01*
X124357142Y-112202380D01*
X124261904Y-112154761D01*
X124214285Y-112107142D01*
%TO.C,J5*%
X100157380Y-136308333D02*
X100871666Y-136308333D01*
X101014523Y-136355952D01*
X101109761Y-136451190D01*
X101157380Y-136594047D01*
X101157380Y-136689285D01*
X100157380Y-135355952D02*
X100157380Y-135832142D01*
X100633571Y-135879761D01*
X100585952Y-135832142D01*
X100538333Y-135736904D01*
X100538333Y-135498809D01*
X100585952Y-135403571D01*
X100633571Y-135355952D01*
X100728809Y-135308333D01*
X100966904Y-135308333D01*
X101062142Y-135355952D01*
X101109761Y-135403571D01*
X101157380Y-135498809D01*
X101157380Y-135736904D01*
X101109761Y-135832142D01*
X101062142Y-135879761D01*
%TO.C,R10*%
X174532142Y-84022380D02*
X174198809Y-83546190D01*
X173960714Y-84022380D02*
X173960714Y-83022380D01*
X174341666Y-83022380D01*
X174436904Y-83070000D01*
X174484523Y-83117619D01*
X174532142Y-83212857D01*
X174532142Y-83355714D01*
X174484523Y-83450952D01*
X174436904Y-83498571D01*
X174341666Y-83546190D01*
X173960714Y-83546190D01*
X175484523Y-84022380D02*
X174913095Y-84022380D01*
X175198809Y-84022380D02*
X175198809Y-83022380D01*
X175103571Y-83165238D01*
X175008333Y-83260476D01*
X174913095Y-83308095D01*
X176103571Y-83022380D02*
X176198809Y-83022380D01*
X176294047Y-83070000D01*
X176341666Y-83117619D01*
X176389285Y-83212857D01*
X176436904Y-83403333D01*
X176436904Y-83641428D01*
X176389285Y-83831904D01*
X176341666Y-83927142D01*
X176294047Y-83974761D01*
X176198809Y-84022380D01*
X176103571Y-84022380D01*
X176008333Y-83974761D01*
X175960714Y-83927142D01*
X175913095Y-83831904D01*
X175865476Y-83641428D01*
X175865476Y-83403333D01*
X175913095Y-83212857D01*
X175960714Y-83117619D01*
X176008333Y-83070000D01*
X176103571Y-83022380D01*
%TO.C,LD17*%
X139202380Y-101642857D02*
X139202380Y-102119047D01*
X138202380Y-102119047D01*
X139202380Y-101309523D02*
X138202380Y-101309523D01*
X138202380Y-101071428D01*
X138250000Y-100928571D01*
X138345238Y-100833333D01*
X138440476Y-100785714D01*
X138630952Y-100738095D01*
X138773809Y-100738095D01*
X138964285Y-100785714D01*
X139059523Y-100833333D01*
X139154761Y-100928571D01*
X139202380Y-101071428D01*
X139202380Y-101309523D01*
X139202380Y-99785714D02*
X139202380Y-100357142D01*
X139202380Y-100071428D02*
X138202380Y-100071428D01*
X138345238Y-100166666D01*
X138440476Y-100261904D01*
X138488095Y-100357142D01*
X138202380Y-99452380D02*
X138202380Y-98785714D01*
X139202380Y-99214285D01*
%TO.C,LD3*%
X140602380Y-116166666D02*
X140602380Y-116642857D01*
X139602380Y-116642857D01*
X140602380Y-115833333D02*
X139602380Y-115833333D01*
X139602380Y-115595238D01*
X139650000Y-115452380D01*
X139745238Y-115357142D01*
X139840476Y-115309523D01*
X140030952Y-115261904D01*
X140173809Y-115261904D01*
X140364285Y-115309523D01*
X140459523Y-115357142D01*
X140554761Y-115452380D01*
X140602380Y-115595238D01*
X140602380Y-115833333D01*
X139602380Y-114928571D02*
X139602380Y-114309523D01*
X139983333Y-114642857D01*
X139983333Y-114500000D01*
X140030952Y-114404761D01*
X140078571Y-114357142D01*
X140173809Y-114309523D01*
X140411904Y-114309523D01*
X140507142Y-114357142D01*
X140554761Y-114404761D01*
X140602380Y-114500000D01*
X140602380Y-114785714D01*
X140554761Y-114880952D01*
X140507142Y-114928571D01*
%TO.C,Q6*%
X168447619Y-117595238D02*
X168400000Y-117690476D01*
X168304761Y-117785714D01*
X168161904Y-117928571D01*
X168114285Y-118023809D01*
X168114285Y-118119047D01*
X168352380Y-118071428D02*
X168304761Y-118166666D01*
X168209523Y-118261904D01*
X168019047Y-118309523D01*
X167685714Y-118309523D01*
X167495238Y-118261904D01*
X167400000Y-118166666D01*
X167352380Y-118071428D01*
X167352380Y-117880952D01*
X167400000Y-117785714D01*
X167495238Y-117690476D01*
X167685714Y-117642857D01*
X168019047Y-117642857D01*
X168209523Y-117690476D01*
X168304761Y-117785714D01*
X168352380Y-117880952D01*
X168352380Y-118071428D01*
X167352380Y-116785714D02*
X167352380Y-116976190D01*
X167400000Y-117071428D01*
X167447619Y-117119047D01*
X167590476Y-117214285D01*
X167780952Y-117261904D01*
X168161904Y-117261904D01*
X168257142Y-117214285D01*
X168304761Y-117166666D01*
X168352380Y-117071428D01*
X168352380Y-116880952D01*
X168304761Y-116785714D01*
X168257142Y-116738095D01*
X168161904Y-116690476D01*
X167923809Y-116690476D01*
X167828571Y-116738095D01*
X167780952Y-116785714D01*
X167733333Y-116880952D01*
X167733333Y-117071428D01*
X167780952Y-117166666D01*
X167828571Y-117214285D01*
X167923809Y-117261904D01*
%TO.C,R11*%
X164532142Y-84022380D02*
X164198809Y-83546190D01*
X163960714Y-84022380D02*
X163960714Y-83022380D01*
X164341666Y-83022380D01*
X164436904Y-83070000D01*
X164484523Y-83117619D01*
X164532142Y-83212857D01*
X164532142Y-83355714D01*
X164484523Y-83450952D01*
X164436904Y-83498571D01*
X164341666Y-83546190D01*
X163960714Y-83546190D01*
X165484523Y-84022380D02*
X164913095Y-84022380D01*
X165198809Y-84022380D02*
X165198809Y-83022380D01*
X165103571Y-83165238D01*
X165008333Y-83260476D01*
X164913095Y-83308095D01*
X166436904Y-84022380D02*
X165865476Y-84022380D01*
X166151190Y-84022380D02*
X166151190Y-83022380D01*
X166055952Y-83165238D01*
X165960714Y-83260476D01*
X165865476Y-83308095D01*
%TO.C,JP1*%
X195866666Y-86652380D02*
X195866666Y-87366666D01*
X195819047Y-87509523D01*
X195723809Y-87604761D01*
X195580952Y-87652380D01*
X195485714Y-87652380D01*
X196342857Y-87652380D02*
X196342857Y-86652380D01*
X196723809Y-86652380D01*
X196819047Y-86700000D01*
X196866666Y-86747619D01*
X196914285Y-86842857D01*
X196914285Y-86985714D01*
X196866666Y-87080952D01*
X196819047Y-87128571D01*
X196723809Y-87176190D01*
X196342857Y-87176190D01*
X197866666Y-87652380D02*
X197295238Y-87652380D01*
X197580952Y-87652380D02*
X197580952Y-86652380D01*
X197485714Y-86795238D01*
X197390476Y-86890476D01*
X197295238Y-86938095D01*
X194385714Y-89452380D02*
X193814285Y-89452380D01*
X194100000Y-89452380D02*
X194100000Y-88452380D01*
X194004761Y-88595238D01*
X193909523Y-88690476D01*
X193814285Y-88738095D01*
X198966666Y-88452380D02*
X199585714Y-88452380D01*
X199252380Y-88833333D01*
X199395238Y-88833333D01*
X199490476Y-88880952D01*
X199538095Y-88928571D01*
X199585714Y-89023809D01*
X199585714Y-89261904D01*
X199538095Y-89357142D01*
X199490476Y-89404761D01*
X199395238Y-89452380D01*
X199109523Y-89452380D01*
X199014285Y-89404761D01*
X198966666Y-89357142D01*
%TO.C,R3*%
X135333333Y-116382380D02*
X135000000Y-115906190D01*
X134761904Y-116382380D02*
X134761904Y-115382380D01*
X135142857Y-115382380D01*
X135238095Y-115430000D01*
X135285714Y-115477619D01*
X135333333Y-115572857D01*
X135333333Y-115715714D01*
X135285714Y-115810952D01*
X135238095Y-115858571D01*
X135142857Y-115906190D01*
X134761904Y-115906190D01*
X135666666Y-115382380D02*
X136285714Y-115382380D01*
X135952380Y-115763333D01*
X136095238Y-115763333D01*
X136190476Y-115810952D01*
X136238095Y-115858571D01*
X136285714Y-115953809D01*
X136285714Y-116191904D01*
X136238095Y-116287142D01*
X136190476Y-116334761D01*
X136095238Y-116382380D01*
X135809523Y-116382380D01*
X135714285Y-116334761D01*
X135666666Y-116287142D01*
%TO.C,LD4*%
X150602380Y-116166666D02*
X150602380Y-116642857D01*
X149602380Y-116642857D01*
X150602380Y-115833333D02*
X149602380Y-115833333D01*
X149602380Y-115595238D01*
X149650000Y-115452380D01*
X149745238Y-115357142D01*
X149840476Y-115309523D01*
X150030952Y-115261904D01*
X150173809Y-115261904D01*
X150364285Y-115309523D01*
X150459523Y-115357142D01*
X150554761Y-115452380D01*
X150602380Y-115595238D01*
X150602380Y-115833333D01*
X149935714Y-114404761D02*
X150602380Y-114404761D01*
X149554761Y-114642857D02*
X150269047Y-114880952D01*
X150269047Y-114261904D01*
%TO.C,K2*%
X124771904Y-119962380D02*
X124771904Y-118962380D01*
X125343333Y-119962380D02*
X124914761Y-119390952D01*
X125343333Y-118962380D02*
X124771904Y-119533809D01*
X125724285Y-119057619D02*
X125771904Y-119010000D01*
X125867142Y-118962380D01*
X126105238Y-118962380D01*
X126200476Y-119010000D01*
X126248095Y-119057619D01*
X126295714Y-119152857D01*
X126295714Y-119248095D01*
X126248095Y-119390952D01*
X125676666Y-119962380D01*
X126295714Y-119962380D01*
%TO.C,R14*%
X134357142Y-84022380D02*
X134023809Y-83546190D01*
X133785714Y-84022380D02*
X133785714Y-83022380D01*
X134166666Y-83022380D01*
X134261904Y-83070000D01*
X134309523Y-83117619D01*
X134357142Y-83212857D01*
X134357142Y-83355714D01*
X134309523Y-83450952D01*
X134261904Y-83498571D01*
X134166666Y-83546190D01*
X133785714Y-83546190D01*
X135309523Y-84022380D02*
X134738095Y-84022380D01*
X135023809Y-84022380D02*
X135023809Y-83022380D01*
X134928571Y-83165238D01*
X134833333Y-83260476D01*
X134738095Y-83308095D01*
X136166666Y-83355714D02*
X136166666Y-84022380D01*
X135928571Y-82974761D02*
X135690476Y-83689047D01*
X136309523Y-83689047D01*
%TO.C,D2*%
X124952380Y-118238095D02*
X123952380Y-118238095D01*
X123952380Y-118000000D01*
X124000000Y-117857142D01*
X124095238Y-117761904D01*
X124190476Y-117714285D01*
X124380952Y-117666666D01*
X124523809Y-117666666D01*
X124714285Y-117714285D01*
X124809523Y-117761904D01*
X124904761Y-117857142D01*
X124952380Y-118000000D01*
X124952380Y-118238095D01*
X124047619Y-117285714D02*
X124000000Y-117238095D01*
X123952380Y-117142857D01*
X123952380Y-116904761D01*
X124000000Y-116809523D01*
X124047619Y-116761904D01*
X124142857Y-116714285D01*
X124238095Y-116714285D01*
X124380952Y-116761904D01*
X124952380Y-117333333D01*
X124952380Y-116714285D01*
%TO.C,LD9*%
X180977380Y-84666666D02*
X180977380Y-85142857D01*
X179977380Y-85142857D01*
X180977380Y-84333333D02*
X179977380Y-84333333D01*
X179977380Y-84095238D01*
X180025000Y-83952380D01*
X180120238Y-83857142D01*
X180215476Y-83809523D01*
X180405952Y-83761904D01*
X180548809Y-83761904D01*
X180739285Y-83809523D01*
X180834523Y-83857142D01*
X180929761Y-83952380D01*
X180977380Y-84095238D01*
X180977380Y-84333333D01*
X180977380Y-83285714D02*
X180977380Y-83095238D01*
X180929761Y-83000000D01*
X180882142Y-82952380D01*
X180739285Y-82857142D01*
X180548809Y-82809523D01*
X180167857Y-82809523D01*
X180072619Y-82857142D01*
X180025000Y-82904761D01*
X179977380Y-83000000D01*
X179977380Y-83190476D01*
X180025000Y-83285714D01*
X180072619Y-83333333D01*
X180167857Y-83380952D01*
X180405952Y-83380952D01*
X180501190Y-83333333D01*
X180548809Y-83285714D01*
X180596428Y-83190476D01*
X180596428Y-83000000D01*
X180548809Y-82904761D01*
X180501190Y-82857142D01*
X180405952Y-82809523D01*
%TO.C,R12*%
X154532142Y-84022380D02*
X154198809Y-83546190D01*
X153960714Y-84022380D02*
X153960714Y-83022380D01*
X154341666Y-83022380D01*
X154436904Y-83070000D01*
X154484523Y-83117619D01*
X154532142Y-83212857D01*
X154532142Y-83355714D01*
X154484523Y-83450952D01*
X154436904Y-83498571D01*
X154341666Y-83546190D01*
X153960714Y-83546190D01*
X155484523Y-84022380D02*
X154913095Y-84022380D01*
X155198809Y-84022380D02*
X155198809Y-83022380D01*
X155103571Y-83165238D01*
X155008333Y-83260476D01*
X154913095Y-83308095D01*
X155865476Y-83117619D02*
X155913095Y-83070000D01*
X156008333Y-83022380D01*
X156246428Y-83022380D01*
X156341666Y-83070000D01*
X156389285Y-83117619D01*
X156436904Y-83212857D01*
X156436904Y-83308095D01*
X156389285Y-83450952D01*
X155817857Y-84022380D01*
X156436904Y-84022380D01*
%TO.C,LD5*%
X160602380Y-116229166D02*
X160602380Y-116705357D01*
X159602380Y-116705357D01*
X160602380Y-115895833D02*
X159602380Y-115895833D01*
X159602380Y-115657738D01*
X159650000Y-115514880D01*
X159745238Y-115419642D01*
X159840476Y-115372023D01*
X160030952Y-115324404D01*
X160173809Y-115324404D01*
X160364285Y-115372023D01*
X160459523Y-115419642D01*
X160554761Y-115514880D01*
X160602380Y-115657738D01*
X160602380Y-115895833D01*
X159602380Y-114419642D02*
X159602380Y-114895833D01*
X160078571Y-114943452D01*
X160030952Y-114895833D01*
X159983333Y-114800595D01*
X159983333Y-114562500D01*
X160030952Y-114467261D01*
X160078571Y-114419642D01*
X160173809Y-114372023D01*
X160411904Y-114372023D01*
X160507142Y-114419642D01*
X160554761Y-114467261D01*
X160602380Y-114562500D01*
X160602380Y-114800595D01*
X160554761Y-114895833D01*
X160507142Y-114943452D01*
%TO.C,J1*%
X102666666Y-73717380D02*
X102666666Y-74431666D01*
X102619047Y-74574523D01*
X102523809Y-74669761D01*
X102380952Y-74717380D01*
X102285714Y-74717380D01*
X103666666Y-74717380D02*
X103095238Y-74717380D01*
X103380952Y-74717380D02*
X103380952Y-73717380D01*
X103285714Y-73860238D01*
X103190476Y-73955476D01*
X103095238Y-74003095D01*
%TO.C,R19*%
X116952380Y-112197857D02*
X116476190Y-112531190D01*
X116952380Y-112769285D02*
X115952380Y-112769285D01*
X115952380Y-112388333D01*
X116000000Y-112293095D01*
X116047619Y-112245476D01*
X116142857Y-112197857D01*
X116285714Y-112197857D01*
X116380952Y-112245476D01*
X116428571Y-112293095D01*
X116476190Y-112388333D01*
X116476190Y-112769285D01*
X116952380Y-111245476D02*
X116952380Y-111816904D01*
X116952380Y-111531190D02*
X115952380Y-111531190D01*
X116095238Y-111626428D01*
X116190476Y-111721666D01*
X116238095Y-111816904D01*
X116952380Y-110769285D02*
X116952380Y-110578809D01*
X116904761Y-110483571D01*
X116857142Y-110435952D01*
X116714285Y-110340714D01*
X116523809Y-110293095D01*
X116142857Y-110293095D01*
X116047619Y-110340714D01*
X116000000Y-110388333D01*
X115952380Y-110483571D01*
X115952380Y-110674047D01*
X116000000Y-110769285D01*
X116047619Y-110816904D01*
X116142857Y-110864523D01*
X116380952Y-110864523D01*
X116476190Y-110816904D01*
X116523809Y-110769285D01*
X116571428Y-110674047D01*
X116571428Y-110483571D01*
X116523809Y-110388333D01*
X116476190Y-110340714D01*
X116380952Y-110293095D01*
%TO.C,Q14*%
X133322619Y-82508928D02*
X133275000Y-82604166D01*
X133179761Y-82699404D01*
X133036904Y-82842261D01*
X132989285Y-82937500D01*
X132989285Y-83032738D01*
X133227380Y-82985119D02*
X133179761Y-83080357D01*
X133084523Y-83175595D01*
X132894047Y-83223214D01*
X132560714Y-83223214D01*
X132370238Y-83175595D01*
X132275000Y-83080357D01*
X132227380Y-82985119D01*
X132227380Y-82794642D01*
X132275000Y-82699404D01*
X132370238Y-82604166D01*
X132560714Y-82556547D01*
X132894047Y-82556547D01*
X133084523Y-82604166D01*
X133179761Y-82699404D01*
X133227380Y-82794642D01*
X133227380Y-82985119D01*
X133227380Y-81604166D02*
X133227380Y-82175595D01*
X133227380Y-81889880D02*
X132227380Y-81889880D01*
X132370238Y-81985119D01*
X132465476Y-82080357D01*
X132513095Y-82175595D01*
X132560714Y-80747023D02*
X133227380Y-80747023D01*
X132179761Y-80985119D02*
X132894047Y-81223214D01*
X132894047Y-80604166D01*
%TO.C,Q12*%
X153322619Y-82571428D02*
X153275000Y-82666666D01*
X153179761Y-82761904D01*
X153036904Y-82904761D01*
X152989285Y-83000000D01*
X152989285Y-83095238D01*
X153227380Y-83047619D02*
X153179761Y-83142857D01*
X153084523Y-83238095D01*
X152894047Y-83285714D01*
X152560714Y-83285714D01*
X152370238Y-83238095D01*
X152275000Y-83142857D01*
X152227380Y-83047619D01*
X152227380Y-82857142D01*
X152275000Y-82761904D01*
X152370238Y-82666666D01*
X152560714Y-82619047D01*
X152894047Y-82619047D01*
X153084523Y-82666666D01*
X153179761Y-82761904D01*
X153227380Y-82857142D01*
X153227380Y-83047619D01*
X153227380Y-81666666D02*
X153227380Y-82238095D01*
X153227380Y-81952380D02*
X152227380Y-81952380D01*
X152370238Y-82047619D01*
X152465476Y-82142857D01*
X152513095Y-82238095D01*
X152322619Y-81285714D02*
X152275000Y-81238095D01*
X152227380Y-81142857D01*
X152227380Y-80904761D01*
X152275000Y-80809523D01*
X152322619Y-80761904D01*
X152417857Y-80714285D01*
X152513095Y-80714285D01*
X152655952Y-80761904D01*
X153227380Y-81333333D01*
X153227380Y-80714285D01*
%TO.C,K15*%
X123560714Y-80442380D02*
X123560714Y-79442380D01*
X124132142Y-80442380D02*
X123703571Y-79870952D01*
X124132142Y-79442380D02*
X123560714Y-80013809D01*
X125084523Y-80442380D02*
X124513095Y-80442380D01*
X124798809Y-80442380D02*
X124798809Y-79442380D01*
X124703571Y-79585238D01*
X124608333Y-79680476D01*
X124513095Y-79728095D01*
X125989285Y-79442380D02*
X125513095Y-79442380D01*
X125465476Y-79918571D01*
X125513095Y-79870952D01*
X125608333Y-79823333D01*
X125846428Y-79823333D01*
X125941666Y-79870952D01*
X125989285Y-79918571D01*
X126036904Y-80013809D01*
X126036904Y-80251904D01*
X125989285Y-80347142D01*
X125941666Y-80394761D01*
X125846428Y-80442380D01*
X125608333Y-80442380D01*
X125513095Y-80394761D01*
X125465476Y-80347142D01*
D11*
%TO.C,R2*%
X125737258Y-115022500D02*
X125262742Y-115022500D01*
X125737258Y-113977500D02*
X125262742Y-113977500D01*
%TO.C,Q7*%
X177060000Y-117500000D02*
X177060000Y-115825000D01*
X173940000Y-117500000D02*
X173940000Y-118150000D01*
X173940000Y-117500000D02*
X173940000Y-116850000D01*
X177060000Y-117500000D02*
X177060000Y-118150000D01*
%TO.C,SW2*%
X198500000Y-99750000D02*
X198500000Y-95250000D01*
X196000000Y-94000000D02*
X194500000Y-94000000D01*
X192000000Y-95250000D02*
X192000000Y-99750000D01*
X194500000Y-101000000D02*
X196000000Y-101000000D01*
%TO.C,R13*%
X144937742Y-85522500D02*
X145412258Y-85522500D01*
X144937742Y-84477500D02*
X145412258Y-84477500D01*
%TO.C,R20*%
X192762258Y-88477500D02*
X192287742Y-88477500D01*
X192762258Y-89522500D02*
X192287742Y-89522500D01*
%TO.C,C9*%
X127055000Y-95818349D02*
X125040000Y-95818349D01*
X127666000Y-94898349D02*
X125040000Y-94898349D01*
X128071000Y-93377349D02*
X119929000Y-93377349D01*
X126454000Y-96378349D02*
X121546000Y-96378349D01*
X128010000Y-93858349D02*
X125040000Y-93858349D01*
X128024000Y-93777349D02*
X119976000Y-93777349D01*
X122960000Y-95538349D02*
X120720000Y-95538349D01*
X125098000Y-97058349D02*
X122902000Y-97058349D01*
X126287000Y-96498349D02*
X121713000Y-96498349D01*
X127606000Y-95018349D02*
X125040000Y-95018349D01*
X127877000Y-94378349D02*
X125040000Y-94378349D01*
X122960000Y-95138349D02*
X120460000Y-95138349D01*
X127584000Y-95058349D02*
X125040000Y-95058349D01*
X122960000Y-93818349D02*
X119983000Y-93818349D01*
X122960000Y-94378349D02*
X120123000Y-94378349D01*
X127627000Y-94978349D02*
X125040000Y-94978349D01*
X128030000Y-93737349D02*
X119970000Y-93737349D01*
X127889000Y-94338349D02*
X125040000Y-94338349D01*
X128057000Y-93537349D02*
X119943000Y-93537349D01*
X122960000Y-94218349D02*
X120075000Y-94218349D01*
X127090000Y-95778349D02*
X125040000Y-95778349D01*
X122960000Y-94938349D02*
X120353000Y-94938349D01*
X126556000Y-96298349D02*
X121444000Y-96298349D01*
X127704000Y-94818349D02*
X125040000Y-94818349D01*
X128080000Y-93097349D02*
X119920000Y-93097349D01*
X122960000Y-94058349D02*
X120033000Y-94058349D01*
X127562000Y-95098349D02*
X125040000Y-95098349D01*
X127220000Y-95618349D02*
X125040000Y-95618349D01*
X128068000Y-93417349D02*
X119932000Y-93417349D01*
X125813000Y-96778349D02*
X122187000Y-96778349D01*
X128065000Y-93457349D02*
X119935000Y-93457349D01*
X122960000Y-95698349D02*
X120844000Y-95698349D01*
X125731000Y-96818349D02*
X122269000Y-96818349D01*
X122960000Y-94858349D02*
X120314000Y-94858349D01*
X122960000Y-94698349D02*
X120243000Y-94698349D01*
X122960000Y-94098349D02*
X120043000Y-94098349D01*
X125453000Y-96938349D02*
X122547000Y-96938349D01*
X127338000Y-95458349D02*
X125040000Y-95458349D01*
X122960000Y-95858349D02*
X120981000Y-95858349D01*
X122960000Y-95298349D02*
X120556000Y-95298349D01*
X127740000Y-94738349D02*
X125040000Y-94738349D01*
X127976000Y-94018349D02*
X125040000Y-94018349D01*
X126315000Y-88687651D02*
X126315000Y-89487651D01*
X127863000Y-94418349D02*
X125040000Y-94418349D01*
X122960000Y-94618349D02*
X120210000Y-94618349D01*
X127914000Y-94258349D02*
X125040000Y-94258349D01*
X125552000Y-96898349D02*
X122448000Y-96898349D01*
X126228000Y-96538349D02*
X121772000Y-96538349D01*
X127994000Y-93938349D02*
X125040000Y-93938349D01*
X127985000Y-93978349D02*
X125040000Y-93978349D01*
X127835000Y-94498349D02*
X125040000Y-94498349D01*
X125346000Y-96978349D02*
X122654000Y-96978349D01*
X122960000Y-94418349D02*
X120137000Y-94418349D01*
X128074000Y-93337349D02*
X119926000Y-93337349D01*
X127647000Y-94938349D02*
X125040000Y-94938349D01*
X122960000Y-93938349D02*
X120006000Y-93938349D01*
X125890000Y-96738349D02*
X122110000Y-96738349D01*
X127902000Y-94298349D02*
X125040000Y-94298349D01*
X122960000Y-95618349D02*
X120780000Y-95618349D01*
X127722000Y-94778349D02*
X125040000Y-94778349D01*
X126983000Y-95898349D02*
X121017000Y-95898349D01*
X122960000Y-94898349D02*
X120334000Y-94898349D01*
X122960000Y-95578349D02*
X120750000Y-95578349D01*
X127250000Y-95578349D02*
X125040000Y-95578349D01*
X127418000Y-95338349D02*
X125040000Y-95338349D01*
X124948000Y-97098349D02*
X123052000Y-97098349D01*
X127850000Y-94458349D02*
X125040000Y-94458349D01*
X122960000Y-95058349D02*
X120416000Y-95058349D01*
X126945000Y-95938349D02*
X121055000Y-95938349D01*
X125645000Y-96858349D02*
X122355000Y-96858349D01*
X125964000Y-96698349D02*
X122036000Y-96698349D01*
X126345000Y-96458349D02*
X121655000Y-96458349D01*
X122960000Y-95098349D02*
X120438000Y-95098349D01*
X122960000Y-95178349D02*
X120483000Y-95178349D01*
X127019000Y-95858349D02*
X125040000Y-95858349D01*
X122960000Y-94258349D02*
X120086000Y-94258349D01*
X128017000Y-93818349D02*
X125040000Y-93818349D01*
X128042000Y-93657349D02*
X119958000Y-93657349D01*
X128076000Y-93297349D02*
X119924000Y-93297349D01*
X122960000Y-93858349D02*
X119990000Y-93858349D01*
X122960000Y-93898349D02*
X119998000Y-93898349D01*
X122960000Y-94818349D02*
X120296000Y-94818349D01*
X127936000Y-94178349D02*
X125040000Y-94178349D01*
X122960000Y-93978349D02*
X120015000Y-93978349D01*
X126166000Y-96578349D02*
X121834000Y-96578349D01*
X124768000Y-97138349D02*
X123232000Y-97138349D01*
X127774000Y-94658349D02*
X125040000Y-94658349D01*
X122960000Y-94578349D02*
X120195000Y-94578349D01*
X122960000Y-94978349D02*
X120373000Y-94978349D01*
X126741000Y-96138349D02*
X121259000Y-96138349D01*
X127947000Y-94138349D02*
X125040000Y-94138349D01*
X122960000Y-95418349D02*
X120635000Y-95418349D01*
X126715000Y-89087651D02*
X125915000Y-89087651D01*
X127392000Y-95378349D02*
X125040000Y-95378349D01*
X122960000Y-94018349D02*
X120024000Y-94018349D01*
X128080000Y-93177349D02*
X119920000Y-93177349D01*
X126784000Y-96098349D02*
X121216000Y-96098349D01*
X128079000Y-93217349D02*
X119921000Y-93217349D01*
X122960000Y-94338349D02*
X120111000Y-94338349D01*
X127790000Y-94618349D02*
X125040000Y-94618349D01*
X127805000Y-94578349D02*
X125040000Y-94578349D01*
X127444000Y-95298349D02*
X125040000Y-95298349D01*
X122960000Y-94138349D02*
X120053000Y-94138349D01*
X127469000Y-95258349D02*
X125040000Y-95258349D01*
X126907000Y-95978349D02*
X121093000Y-95978349D01*
X126651000Y-96218349D02*
X121349000Y-96218349D01*
X122960000Y-94298349D02*
X120098000Y-94298349D01*
X122960000Y-94658349D02*
X120226000Y-94658349D01*
X128037000Y-93697349D02*
X119963000Y-93697349D01*
X127189000Y-95658349D02*
X125040000Y-95658349D01*
X122960000Y-95818349D02*
X120945000Y-95818349D01*
X127757000Y-94698349D02*
X125040000Y-94698349D01*
X126697000Y-96178349D02*
X121303000Y-96178349D01*
X127540000Y-95138349D02*
X125040000Y-95138349D01*
X126034000Y-96658349D02*
X121966000Y-96658349D01*
X124533000Y-97178349D02*
X123467000Y-97178349D01*
X128080000Y-93137349D02*
X119920000Y-93137349D01*
X127493000Y-95218349D02*
X125040000Y-95218349D01*
X128052000Y-93577349D02*
X119948000Y-93577349D01*
X127365000Y-95418349D02*
X125040000Y-95418349D01*
X127925000Y-94218349D02*
X125040000Y-94218349D01*
X126604000Y-96258349D02*
X121396000Y-96258349D01*
X128077000Y-93257349D02*
X119923000Y-93257349D01*
X125229000Y-97018349D02*
X122771000Y-97018349D01*
X127280000Y-95538349D02*
X125040000Y-95538349D01*
X122960000Y-95218349D02*
X120507000Y-95218349D01*
X122960000Y-94458349D02*
X120150000Y-94458349D01*
X126400000Y-96418349D02*
X121600000Y-96418349D01*
X127967000Y-94058349D02*
X125040000Y-94058349D01*
X128061000Y-93497349D02*
X119939000Y-93497349D01*
X127686000Y-94858349D02*
X125040000Y-94858349D01*
X127957000Y-94098349D02*
X125040000Y-94098349D01*
X122960000Y-95658349D02*
X120811000Y-95658349D01*
X122960000Y-94738349D02*
X120260000Y-94738349D01*
X122960000Y-95778349D02*
X120910000Y-95778349D01*
X122960000Y-94178349D02*
X120064000Y-94178349D01*
X127821000Y-94538349D02*
X125040000Y-94538349D01*
X122960000Y-95258349D02*
X120531000Y-95258349D01*
X126505000Y-96338349D02*
X121495000Y-96338349D01*
X122960000Y-95498349D02*
X120691000Y-95498349D01*
X122960000Y-94538349D02*
X120179000Y-94538349D01*
X127124000Y-95738349D02*
X125040000Y-95738349D01*
X122960000Y-94778349D02*
X120278000Y-94778349D01*
X127309000Y-95498349D02*
X125040000Y-95498349D01*
X127517000Y-95178349D02*
X125040000Y-95178349D01*
X122960000Y-95378349D02*
X120608000Y-95378349D01*
X126102000Y-96618349D02*
X121898000Y-96618349D01*
X126867000Y-96018349D02*
X121133000Y-96018349D01*
X122960000Y-95018349D02*
X120394000Y-95018349D01*
X122960000Y-95338349D02*
X120582000Y-95338349D01*
X127156000Y-95698349D02*
X125040000Y-95698349D01*
X122960000Y-95458349D02*
X120662000Y-95458349D01*
X122960000Y-95738349D02*
X120876000Y-95738349D01*
X128048000Y-93617349D02*
X119952000Y-93617349D01*
X126826000Y-96058349D02*
X121174000Y-96058349D01*
X128002000Y-93898349D02*
X125040000Y-93898349D01*
X122960000Y-94498349D02*
X120165000Y-94498349D01*
X128120000Y-93097349D02*
G75*
G03*
X128120000Y-93097349I-4120000J0D01*
G01*
%TO.C,R9*%
X184762742Y-85522500D02*
X185237258Y-85522500D01*
X184762742Y-84477500D02*
X185237258Y-84477500D01*
%TO.C,K16*%
X117935000Y-78990000D02*
X117935000Y-58970000D01*
X117935000Y-58970000D02*
X112395000Y-58970000D01*
X112395000Y-58970000D02*
X112395000Y-78990000D01*
X112395000Y-78990000D02*
X114165000Y-78990000D01*
X116165000Y-78990000D02*
X117935000Y-78990000D01*
X116165000Y-78990000D02*
G75*
G03*
X114165000Y-78990000I-1000000J0D01*
G01*
%TO.C,K3*%
X134510000Y-120510000D02*
X132740000Y-120510000D01*
X132740000Y-140530000D02*
X138280000Y-140530000D01*
X132740000Y-120510000D02*
X132740000Y-140530000D01*
X138280000Y-140530000D02*
X138280000Y-120510000D01*
X138280000Y-120510000D02*
X136510000Y-120510000D01*
X134510000Y-120510000D02*
G75*
G03*
X136510000Y-120510000I1000000J0D01*
G01*
%TO.C,LD15*%
X122135000Y-84685000D02*
X122135000Y-82000000D01*
X120215000Y-82000000D02*
X120215000Y-84685000D01*
X120215000Y-84685000D02*
X122135000Y-84685000D01*
%TO.C,R17*%
X118977500Y-108317742D02*
X118977500Y-108792258D01*
X120022500Y-108317742D02*
X120022500Y-108792258D01*
%TO.C,R21*%
X115437742Y-107032500D02*
X115912258Y-107032500D01*
X115437742Y-108077500D02*
X115912258Y-108077500D01*
%TO.C,R1*%
X115737258Y-113977500D02*
X115262742Y-113977500D01*
X115737258Y-115022500D02*
X115262742Y-115022500D01*
%TO.C,J3*%
X198855000Y-102370000D02*
X198855000Y-103700000D01*
X197525000Y-102370000D02*
X198855000Y-102370000D01*
X196195000Y-104970000D02*
X196195000Y-112650000D01*
X196195000Y-104970000D02*
X198855000Y-104970000D01*
X198855000Y-104970000D02*
X198855000Y-112650000D01*
X196195000Y-112650000D02*
X198855000Y-112650000D01*
%TO.C,SW1*%
X194525000Y-86000000D02*
X196025000Y-86000000D01*
X196025000Y-79000000D02*
X194525000Y-79000000D01*
X198525000Y-84750000D02*
X198525000Y-80250000D01*
X192025000Y-80250000D02*
X192025000Y-84750000D01*
%TO.C,R5*%
X155737258Y-115022500D02*
X155262742Y-115022500D01*
X155737258Y-113977500D02*
X155262742Y-113977500D01*
%TO.C,D10*%
X179175000Y-84250000D02*
X179175000Y-80350000D01*
X177175000Y-84250000D02*
X177175000Y-80350000D01*
X177175000Y-84250000D02*
X179175000Y-84250000D01*
%TO.C,Q10*%
X173615000Y-82000000D02*
X173615000Y-81350000D01*
X176735000Y-82000000D02*
X176735000Y-82650000D01*
X173615000Y-82000000D02*
X173615000Y-83675000D01*
X176735000Y-82000000D02*
X176735000Y-81350000D01*
%TO.C,D17*%
X103530000Y-83940000D02*
X106470000Y-83940000D01*
X103530000Y-83700000D02*
X106470000Y-83700000D01*
X105000000Y-78260000D02*
X105000000Y-79280000D01*
X106470000Y-84720000D02*
X106470000Y-79280000D01*
X106470000Y-79280000D02*
X103530000Y-79280000D01*
X103530000Y-84720000D02*
X106470000Y-84720000D01*
X105000000Y-85740000D02*
X105000000Y-84720000D01*
X103530000Y-83820000D02*
X106470000Y-83820000D01*
X103530000Y-79280000D02*
X103530000Y-84720000D01*
%TO.C,LD11*%
X161215000Y-83000000D02*
X161215000Y-85685000D01*
X163135000Y-85685000D02*
X163135000Y-83000000D01*
X161215000Y-85685000D02*
X163135000Y-85685000D01*
%TO.C,R15*%
X123937742Y-84477500D02*
X124412258Y-84477500D01*
X123937742Y-85522500D02*
X124412258Y-85522500D01*
%TO.C,J2*%
X113230000Y-101385000D02*
X115830000Y-101385000D01*
X115830000Y-101385000D02*
X115830000Y-98725000D01*
X113230000Y-101385000D02*
X113230000Y-98725000D01*
X111960000Y-101385000D02*
X110630000Y-101385000D01*
X110630000Y-101385000D02*
X110630000Y-100055000D01*
X113230000Y-98725000D02*
X115830000Y-98725000D01*
%TO.C,C7*%
X113990000Y-95359420D02*
X113990000Y-95640580D01*
X115010000Y-95359420D02*
X115010000Y-95640580D01*
%TO.C,K12*%
X156165000Y-78990000D02*
X157935000Y-78990000D01*
X157935000Y-58970000D02*
X152395000Y-58970000D01*
X152395000Y-58970000D02*
X152395000Y-78990000D01*
X152395000Y-78990000D02*
X154165000Y-78990000D01*
X157935000Y-78990000D02*
X157935000Y-58970000D01*
X156165000Y-78990000D02*
G75*
G03*
X154165000Y-78990000I-1000000J0D01*
G01*
%TO.C,LD13*%
X141215000Y-85685000D02*
X143135000Y-85685000D01*
X141215000Y-83000000D02*
X141215000Y-85685000D01*
X143135000Y-85685000D02*
X143135000Y-83000000D01*
%TO.C,R22*%
X197737258Y-90977500D02*
X197262742Y-90977500D01*
X197737258Y-92022500D02*
X197262742Y-92022500D01*
%TO.C,C2*%
X109077000Y-93410000D02*
X100923000Y-93410000D01*
X103960000Y-95091000D02*
X101353000Y-95091000D01*
X103960000Y-94891000D02*
X101260000Y-94891000D01*
X109030000Y-93890000D02*
X100970000Y-93890000D01*
X106098000Y-97211000D02*
X103902000Y-97211000D01*
X108647000Y-95091000D02*
X106040000Y-95091000D01*
X103960000Y-95131000D02*
X101373000Y-95131000D01*
X103960000Y-95731000D02*
X101750000Y-95731000D01*
X103960000Y-95531000D02*
X101608000Y-95531000D01*
X109042000Y-93810000D02*
X100958000Y-93810000D01*
X103960000Y-94091000D02*
X101006000Y-94091000D01*
X103960000Y-95451000D02*
X101556000Y-95451000D01*
X107907000Y-96131000D02*
X102093000Y-96131000D01*
X107228000Y-96691000D02*
X102772000Y-96691000D01*
X103960000Y-94811000D02*
X101226000Y-94811000D01*
X108124000Y-95891000D02*
X106040000Y-95891000D01*
X103960000Y-95171000D02*
X101394000Y-95171000D01*
X108584000Y-95211000D02*
X106040000Y-95211000D01*
X109071000Y-93530000D02*
X100929000Y-93530000D01*
X106813000Y-96931000D02*
X103187000Y-96931000D01*
X103960000Y-94931000D02*
X101278000Y-94931000D01*
X106731000Y-96971000D02*
X103269000Y-96971000D01*
X109002000Y-94051000D02*
X106040000Y-94051000D01*
X108220000Y-95771000D02*
X106040000Y-95771000D01*
X107166000Y-96731000D02*
X102834000Y-96731000D01*
X109037000Y-93850000D02*
X100963000Y-93850000D01*
X108957000Y-94251000D02*
X106040000Y-94251000D01*
X107983000Y-96051000D02*
X102017000Y-96051000D01*
X108805000Y-94731000D02*
X106040000Y-94731000D01*
X108666000Y-95051000D02*
X106040000Y-95051000D01*
X108189000Y-95811000D02*
X106040000Y-95811000D01*
X103960000Y-95371000D02*
X101507000Y-95371000D01*
X103960000Y-96011000D02*
X101981000Y-96011000D01*
X103960000Y-94371000D02*
X101075000Y-94371000D01*
X109052000Y-93730000D02*
X100948000Y-93730000D01*
X109057000Y-93690000D02*
X100943000Y-93690000D01*
X108722000Y-94931000D02*
X106040000Y-94931000D01*
X109017000Y-93971000D02*
X106040000Y-93971000D01*
X108627000Y-95131000D02*
X106040000Y-95131000D01*
X103960000Y-94251000D02*
X101043000Y-94251000D01*
X103960000Y-94491000D02*
X101111000Y-94491000D01*
X109080000Y-93250000D02*
X100920000Y-93250000D01*
X108914000Y-94411000D02*
X106040000Y-94411000D01*
X103960000Y-94611000D02*
X101150000Y-94611000D01*
X103960000Y-94731000D02*
X101195000Y-94731000D01*
X108889000Y-94491000D02*
X106040000Y-94491000D01*
X107867000Y-96171000D02*
X102133000Y-96171000D01*
X103960000Y-95491000D02*
X101582000Y-95491000D01*
X103960000Y-93971000D02*
X100983000Y-93971000D01*
X103960000Y-94291000D02*
X101053000Y-94291000D01*
X108250000Y-95731000D02*
X106040000Y-95731000D01*
X108863000Y-94571000D02*
X106040000Y-94571000D01*
X108877000Y-94531000D02*
X106040000Y-94531000D01*
X108392000Y-95531000D02*
X106040000Y-95531000D01*
X109048000Y-93770000D02*
X100952000Y-93770000D01*
X106453000Y-97091000D02*
X103547000Y-97091000D01*
X103960000Y-95811000D02*
X101811000Y-95811000D01*
X106346000Y-97131000D02*
X103654000Y-97131000D01*
X109074000Y-93490000D02*
X100926000Y-93490000D01*
X108469000Y-95411000D02*
X106040000Y-95411000D01*
X103960000Y-94651000D02*
X101165000Y-94651000D01*
X103960000Y-94131000D02*
X101015000Y-94131000D01*
X108936000Y-94331000D02*
X106040000Y-94331000D01*
X108019000Y-96011000D02*
X106040000Y-96011000D01*
X103960000Y-94411000D02*
X101086000Y-94411000D01*
X103960000Y-94171000D02*
X101024000Y-94171000D01*
X108686000Y-95011000D02*
X106040000Y-95011000D01*
X107556000Y-96451000D02*
X102444000Y-96451000D01*
X108365000Y-95571000D02*
X106040000Y-95571000D01*
X107741000Y-96291000D02*
X102259000Y-96291000D01*
X108835000Y-94651000D02*
X106040000Y-94651000D01*
X107034000Y-96811000D02*
X102966000Y-96811000D01*
X103960000Y-94571000D02*
X101137000Y-94571000D01*
X107454000Y-96531000D02*
X102546000Y-96531000D01*
X109080000Y-93330000D02*
X100920000Y-93330000D01*
X108757000Y-94851000D02*
X106040000Y-94851000D01*
X106964000Y-96851000D02*
X103036000Y-96851000D01*
X103960000Y-95611000D02*
X101662000Y-95611000D01*
X108309000Y-95651000D02*
X106040000Y-95651000D01*
X109010000Y-94011000D02*
X106040000Y-94011000D01*
X103960000Y-95051000D02*
X101334000Y-95051000D01*
X108338000Y-95611000D02*
X106040000Y-95611000D01*
X108850000Y-94611000D02*
X106040000Y-94611000D01*
X107315000Y-88840302D02*
X107315000Y-89640302D01*
X109065000Y-93610000D02*
X100935000Y-93610000D01*
X106229000Y-97171000D02*
X103771000Y-97171000D01*
X108947000Y-94291000D02*
X106040000Y-94291000D01*
X108994000Y-94091000D02*
X106040000Y-94091000D01*
X108790000Y-94771000D02*
X106040000Y-94771000D01*
X108740000Y-94891000D02*
X106040000Y-94891000D01*
X108985000Y-94131000D02*
X106040000Y-94131000D01*
X107604000Y-96411000D02*
X102396000Y-96411000D01*
X103960000Y-94851000D02*
X101243000Y-94851000D01*
X103960000Y-95851000D02*
X101844000Y-95851000D01*
X103960000Y-94211000D02*
X101033000Y-94211000D01*
X106645000Y-97011000D02*
X103355000Y-97011000D01*
X108562000Y-95251000D02*
X106040000Y-95251000D01*
X107345000Y-96611000D02*
X102655000Y-96611000D01*
X108418000Y-95491000D02*
X106040000Y-95491000D01*
X105948000Y-97251000D02*
X104052000Y-97251000D01*
X103960000Y-95891000D02*
X101876000Y-95891000D01*
X103960000Y-95571000D02*
X101635000Y-95571000D01*
X107945000Y-96091000D02*
X102055000Y-96091000D01*
X107505000Y-96491000D02*
X102495000Y-96491000D01*
X103960000Y-95771000D02*
X101780000Y-95771000D01*
X105533000Y-97331000D02*
X104467000Y-97331000D01*
X108280000Y-95691000D02*
X106040000Y-95691000D01*
X103960000Y-94531000D02*
X101123000Y-94531000D01*
X106552000Y-97051000D02*
X103448000Y-97051000D01*
X108517000Y-95331000D02*
X106040000Y-95331000D01*
X103960000Y-94011000D02*
X100990000Y-94011000D01*
X103960000Y-95411000D02*
X101531000Y-95411000D01*
X108704000Y-94971000D02*
X106040000Y-94971000D01*
X107400000Y-96571000D02*
X102600000Y-96571000D01*
X108925000Y-94371000D02*
X106040000Y-94371000D01*
X106890000Y-96891000D02*
X103110000Y-96891000D01*
X108493000Y-95371000D02*
X106040000Y-95371000D01*
X109024000Y-93930000D02*
X100976000Y-93930000D01*
X108606000Y-95171000D02*
X106040000Y-95171000D01*
X108156000Y-95851000D02*
X106040000Y-95851000D01*
X103960000Y-94451000D02*
X101098000Y-94451000D01*
X103960000Y-94331000D02*
X101064000Y-94331000D01*
X103960000Y-94771000D02*
X101210000Y-94771000D01*
X108902000Y-94451000D02*
X106040000Y-94451000D01*
X103960000Y-94051000D02*
X100998000Y-94051000D01*
X107287000Y-96651000D02*
X102713000Y-96651000D01*
X107826000Y-96211000D02*
X102174000Y-96211000D01*
X107715000Y-89240302D02*
X106915000Y-89240302D01*
X103960000Y-95931000D02*
X101910000Y-95931000D01*
X107651000Y-96371000D02*
X102349000Y-96371000D01*
X103960000Y-95291000D02*
X101460000Y-95291000D01*
X103960000Y-95651000D02*
X101691000Y-95651000D01*
X103960000Y-95331000D02*
X101483000Y-95331000D01*
X108967000Y-94211000D02*
X106040000Y-94211000D01*
X109068000Y-93570000D02*
X100932000Y-93570000D01*
X108774000Y-94811000D02*
X106040000Y-94811000D01*
X105768000Y-97291000D02*
X104232000Y-97291000D01*
X109080000Y-93290000D02*
X100920000Y-93290000D01*
X109076000Y-93450000D02*
X100924000Y-93450000D01*
X108055000Y-95971000D02*
X106040000Y-95971000D01*
X103960000Y-95251000D02*
X101438000Y-95251000D01*
X103960000Y-95691000D02*
X101720000Y-95691000D01*
X103960000Y-95211000D02*
X101416000Y-95211000D01*
X108821000Y-94691000D02*
X106040000Y-94691000D01*
X107102000Y-96771000D02*
X102898000Y-96771000D01*
X109061000Y-93650000D02*
X100939000Y-93650000D01*
X108444000Y-95451000D02*
X106040000Y-95451000D01*
X103960000Y-95971000D02*
X101945000Y-95971000D01*
X109079000Y-93370000D02*
X100921000Y-93370000D01*
X107697000Y-96331000D02*
X102303000Y-96331000D01*
X108976000Y-94171000D02*
X106040000Y-94171000D01*
X108090000Y-95931000D02*
X106040000Y-95931000D01*
X103960000Y-94971000D02*
X101296000Y-94971000D01*
X103960000Y-95011000D02*
X101314000Y-95011000D01*
X103960000Y-94691000D02*
X101179000Y-94691000D01*
X107784000Y-96251000D02*
X102216000Y-96251000D01*
X108540000Y-95291000D02*
X106040000Y-95291000D01*
X109120000Y-93250000D02*
G75*
G03*
X109120000Y-93250000I-4120000J0D01*
G01*
%TO.C,R16*%
X113937742Y-84477500D02*
X114412258Y-84477500D01*
X113937742Y-85522500D02*
X114412258Y-85522500D01*
%TO.C,Q4*%
X147060000Y-117500000D02*
X147060000Y-115825000D01*
X147060000Y-117500000D02*
X147060000Y-118150000D01*
X143940000Y-117500000D02*
X143940000Y-116850000D01*
X143940000Y-117500000D02*
X143940000Y-118150000D01*
%TO.C,Q15*%
X125735000Y-81937500D02*
X125735000Y-82587500D01*
X122615000Y-81937500D02*
X122615000Y-81287500D01*
X125735000Y-81937500D02*
X125735000Y-81287500D01*
X122615000Y-81937500D02*
X122615000Y-83612500D01*
%TO.C,D1*%
X111500000Y-115250000D02*
X111500000Y-119150000D01*
X113500000Y-115250000D02*
X111500000Y-115250000D01*
X113500000Y-115250000D02*
X113500000Y-119150000D01*
%TO.C,Q5*%
X153940000Y-117500000D02*
X153940000Y-118150000D01*
X157060000Y-117500000D02*
X157060000Y-115825000D01*
X153940000Y-117500000D02*
X153940000Y-116850000D01*
X157060000Y-117500000D02*
X157060000Y-118150000D01*
%TO.C,LD10*%
X171215000Y-83000000D02*
X171215000Y-85685000D01*
X173135000Y-85685000D02*
X173135000Y-83000000D01*
X171215000Y-85685000D02*
X173135000Y-85685000D01*
%TO.C,U2*%
X109340000Y-94770000D02*
X109340000Y-90129000D01*
X119580000Y-94770000D02*
X119580000Y-90129000D01*
X112609000Y-94770000D02*
X112609000Y-93260000D01*
X116310000Y-94770000D02*
X116310000Y-93260000D01*
X119580000Y-93260000D02*
X109340000Y-93260000D01*
X119580000Y-94770000D02*
X109340000Y-94770000D01*
X119580000Y-90129000D02*
X109340000Y-90129000D01*
%TO.C,Q13*%
X146735000Y-82000000D02*
X146735000Y-82650000D01*
X143615000Y-82000000D02*
X143615000Y-83675000D01*
X146735000Y-82000000D02*
X146735000Y-81350000D01*
X143615000Y-82000000D02*
X143615000Y-81350000D01*
%TO.C,R7*%
X175737258Y-113977500D02*
X175262742Y-113977500D01*
X175737258Y-115022500D02*
X175262742Y-115022500D01*
%TO.C,LD6*%
X169460000Y-113877500D02*
X167540000Y-113877500D01*
X167540000Y-113877500D02*
X167540000Y-116562500D01*
X169460000Y-116562500D02*
X169460000Y-113877500D01*
%TO.C,LD2*%
X129460000Y-116562500D02*
X129460000Y-113877500D01*
X127540000Y-113877500D02*
X127540000Y-116562500D01*
X129460000Y-113877500D02*
X127540000Y-113877500D01*
%TO.C,L1*%
X131620000Y-98230000D02*
X124380000Y-98230000D01*
X131620000Y-101770000D02*
X131620000Y-98230000D01*
X133310000Y-100000000D02*
X131620000Y-100000000D01*
X124380000Y-98230000D02*
X124380000Y-101770000D01*
X124380000Y-101770000D02*
X131620000Y-101770000D01*
X122690000Y-100000000D02*
X124380000Y-100000000D01*
%TO.C,D3*%
X133500000Y-115250000D02*
X131500000Y-115250000D01*
X131500000Y-115250000D02*
X131500000Y-119150000D01*
X133500000Y-115250000D02*
X133500000Y-119150000D01*
%TO.C,R24*%
X117412258Y-96500000D02*
X116937742Y-96500000D01*
X117412258Y-95455000D02*
X116937742Y-95455000D01*
%TO.C,JP2*%
X191150000Y-91800000D02*
X191150000Y-91200000D01*
X195250000Y-91200000D02*
X195250000Y-91800000D01*
X191800000Y-90500000D02*
X194600000Y-90500000D01*
X194600000Y-92500000D02*
X191800000Y-92500000D01*
X195250000Y-91200000D02*
G75*
G03*
X194550000Y-90500000I-699999J1D01*
G01*
X191850000Y-90500000D02*
G75*
G03*
X191150000Y-91200000I0J-700000D01*
G01*
X194550000Y-92500000D02*
G75*
G03*
X195250000Y-91800000I1J699999D01*
G01*
X191150000Y-91800000D02*
G75*
G03*
X191850000Y-92500000I700000J0D01*
G01*
%TO.C,D4*%
X143500000Y-115250000D02*
X143500000Y-119150000D01*
X141500000Y-115250000D02*
X141500000Y-119150000D01*
X143500000Y-115250000D02*
X141500000Y-115250000D01*
%TO.C,D5*%
X153500000Y-115250000D02*
X151500000Y-115250000D01*
X151500000Y-115250000D02*
X151500000Y-119150000D01*
X153500000Y-115250000D02*
X153500000Y-119150000D01*
%TO.C,D12*%
X159175000Y-84250000D02*
X159175000Y-80350000D01*
X157175000Y-84250000D02*
X159175000Y-84250000D01*
X157175000Y-84250000D02*
X157175000Y-80350000D01*
%TO.C,U3*%
X144170000Y-97740000D02*
X144170000Y-98990000D01*
X144110000Y-94740000D02*
X144110000Y-105240000D01*
X144170000Y-100990000D02*
X144170000Y-102240000D01*
X164670000Y-94740000D02*
X144110000Y-94740000D01*
X164610000Y-102240000D02*
X164610000Y-97740000D01*
X164670000Y-105240000D02*
X164670000Y-94740000D01*
X144170000Y-102240000D02*
X164610000Y-102240000D01*
X164610000Y-97740000D02*
X144170000Y-97740000D01*
X144110000Y-105240000D02*
X164670000Y-105240000D01*
X144170000Y-100990000D02*
G75*
G03*
X144170000Y-98990000I0J1000000D01*
G01*
%TO.C,C1*%
X111490000Y-108414420D02*
X111490000Y-108695580D01*
X112510000Y-108414420D02*
X112510000Y-108695580D01*
%TO.C,LD1*%
X119460000Y-116500000D02*
X119460000Y-113815000D01*
X119460000Y-113815000D02*
X117540000Y-113815000D01*
X117540000Y-113815000D02*
X117540000Y-116500000D01*
%TO.C,R25*%
X137522500Y-103587742D02*
X137522500Y-104062258D01*
X136477500Y-103587742D02*
X136477500Y-104062258D01*
%TO.C,Q16*%
X115797500Y-82050000D02*
X115797500Y-82700000D01*
X115797500Y-82050000D02*
X115797500Y-81400000D01*
X112677500Y-82050000D02*
X112677500Y-81400000D01*
X112677500Y-82050000D02*
X112677500Y-83725000D01*
%TO.C,J6*%
X104245000Y-64805000D02*
X109385000Y-64805000D01*
X104245000Y-64805000D02*
X104245000Y-62145000D01*
X101645000Y-62145000D02*
X102975000Y-62145000D01*
X109385000Y-64805000D02*
X109385000Y-62145000D01*
X101645000Y-63475000D02*
X101645000Y-62145000D01*
X104245000Y-62145000D02*
X109385000Y-62145000D01*
%TO.C,Q3*%
X133877500Y-117500000D02*
X133877500Y-118150000D01*
X133877500Y-117500000D02*
X133877500Y-116850000D01*
X136997500Y-117500000D02*
X136997500Y-118150000D01*
X136997500Y-117500000D02*
X136997500Y-115825000D01*
%TO.C,Q11*%
X166785000Y-82062500D02*
X166785000Y-81412500D01*
X163665000Y-82062500D02*
X163665000Y-81412500D01*
X163665000Y-82062500D02*
X163665000Y-83737500D01*
X166785000Y-82062500D02*
X166785000Y-82712500D01*
%TO.C,Q1*%
X117060000Y-117500000D02*
X117060000Y-118150000D01*
X113940000Y-117500000D02*
X113940000Y-116850000D01*
X113940000Y-117500000D02*
X113940000Y-118150000D01*
X117060000Y-117500000D02*
X117060000Y-115825000D01*
%TO.C,K6*%
X162740000Y-120510000D02*
X162740000Y-140530000D01*
X164510000Y-120510000D02*
X162740000Y-120510000D01*
X168280000Y-120510000D02*
X166510000Y-120510000D01*
X162740000Y-140530000D02*
X168280000Y-140530000D01*
X168280000Y-140530000D02*
X168280000Y-120510000D01*
X164510000Y-120510000D02*
G75*
G03*
X166510000Y-120510000I1000000J0D01*
G01*
%TO.C,D6*%
X163500000Y-115250000D02*
X163500000Y-119150000D01*
X161500000Y-115250000D02*
X161500000Y-119150000D01*
X163500000Y-115250000D02*
X161500000Y-115250000D01*
%TO.C,D7*%
X173500000Y-115250000D02*
X173500000Y-119150000D01*
X173500000Y-115250000D02*
X171500000Y-115250000D01*
X171500000Y-115250000D02*
X171500000Y-119150000D01*
%TO.C,R18*%
X117477500Y-107292258D02*
X117477500Y-106817742D01*
X118522500Y-107292258D02*
X118522500Y-106817742D01*
%TO.C,LD7*%
X179460000Y-113815000D02*
X177540000Y-113815000D01*
X177540000Y-113815000D02*
X177540000Y-116500000D01*
X179460000Y-116500000D02*
X179460000Y-113815000D01*
%TO.C,C10*%
X141990000Y-96859420D02*
X141990000Y-97140580D01*
X143010000Y-96859420D02*
X143010000Y-97140580D01*
%TO.C,K8*%
X182740000Y-140530000D02*
X188280000Y-140530000D01*
X188280000Y-120510000D02*
X186510000Y-120510000D01*
X184510000Y-120510000D02*
X182740000Y-120510000D01*
X188280000Y-140530000D02*
X188280000Y-120510000D01*
X182740000Y-120510000D02*
X182740000Y-140530000D01*
X184510000Y-120510000D02*
G75*
G03*
X186510000Y-120510000I1000000J0D01*
G01*
%TO.C,Q8*%
X187060000Y-116500000D02*
X187060000Y-117150000D01*
X183940000Y-116500000D02*
X183940000Y-117150000D01*
X183940000Y-116500000D02*
X183940000Y-115850000D01*
X187060000Y-116500000D02*
X187060000Y-114825000D01*
%TO.C,R6*%
X165737258Y-115022500D02*
X165262742Y-115022500D01*
X165737258Y-113977500D02*
X165262742Y-113977500D01*
%TO.C,D14*%
X137175000Y-84250000D02*
X137175000Y-80350000D01*
X137175000Y-84250000D02*
X139175000Y-84250000D01*
X139175000Y-84250000D02*
X139175000Y-80350000D01*
%TO.C,K11*%
X162395000Y-78990000D02*
X164165000Y-78990000D01*
X166165000Y-78990000D02*
X167935000Y-78990000D01*
X167935000Y-78990000D02*
X167935000Y-58970000D01*
X162395000Y-58970000D02*
X162395000Y-78990000D01*
X167935000Y-58970000D02*
X162395000Y-58970000D01*
X166165000Y-78990000D02*
G75*
G03*
X164165000Y-78990000I-1000000J0D01*
G01*
%TO.C,K13*%
X147935000Y-58970000D02*
X142395000Y-58970000D01*
X142395000Y-58970000D02*
X142395000Y-78990000D01*
X146165000Y-78990000D02*
X147935000Y-78990000D01*
X147935000Y-78990000D02*
X147935000Y-58970000D01*
X142395000Y-78990000D02*
X144165000Y-78990000D01*
X146165000Y-78990000D02*
G75*
G03*
X144165000Y-78990000I-1000000J0D01*
G01*
%TO.C,D15*%
X126175000Y-84250000D02*
X128175000Y-84250000D01*
X126175000Y-84250000D02*
X126175000Y-80350000D01*
X128175000Y-84250000D02*
X128175000Y-80350000D01*
%TO.C,R4*%
X145562258Y-115022500D02*
X145087742Y-115022500D01*
X145562258Y-113977500D02*
X145087742Y-113977500D01*
%TO.C,C6*%
X136557000Y-107037349D02*
X128443000Y-107037349D01*
X136537000Y-107197349D02*
X128463000Y-107197349D01*
X136222000Y-108278349D02*
X133540000Y-108278349D01*
X134464000Y-110198349D02*
X130536000Y-110198349D01*
X136017000Y-108678349D02*
X133540000Y-108678349D01*
X134815000Y-102187651D02*
X134815000Y-102987651D01*
X131460000Y-107918349D02*
X128637000Y-107918349D01*
X136290000Y-108118349D02*
X133540000Y-108118349D01*
X135445000Y-109438349D02*
X129555000Y-109438349D01*
X133033000Y-110678349D02*
X131967000Y-110678349D01*
X136425000Y-107718349D02*
X133540000Y-107718349D01*
X131460000Y-108958349D02*
X129162000Y-108958349D01*
X131460000Y-108638349D02*
X128960000Y-108638349D01*
X136565000Y-106957349D02*
X128435000Y-106957349D01*
X131460000Y-108518349D02*
X128894000Y-108518349D01*
X131460000Y-108398349D02*
X128834000Y-108398349D01*
X136321000Y-108038349D02*
X133540000Y-108038349D01*
X136127000Y-108478349D02*
X133540000Y-108478349D01*
X135367000Y-109518349D02*
X129633000Y-109518349D01*
X136084000Y-108558349D02*
X133540000Y-108558349D01*
X134954000Y-109878349D02*
X130046000Y-109878349D01*
X133846000Y-110478349D02*
X131154000Y-110478349D01*
X131460000Y-108878349D02*
X129108000Y-108878349D01*
X136476000Y-107518349D02*
X133540000Y-107518349D01*
X135624000Y-109238349D02*
X133540000Y-109238349D01*
X131460000Y-107638349D02*
X128553000Y-107638349D01*
X131460000Y-107838349D02*
X128611000Y-107838349D01*
X136062000Y-108598349D02*
X133540000Y-108598349D01*
X131460000Y-108278349D02*
X128778000Y-108278349D01*
X135720000Y-109118349D02*
X133540000Y-109118349D01*
X131460000Y-109078349D02*
X129250000Y-109078349D01*
X131460000Y-107598349D02*
X128543000Y-107598349D01*
X131460000Y-107518349D02*
X128524000Y-107518349D01*
X136040000Y-108638349D02*
X133540000Y-108638349D01*
X131460000Y-109238349D02*
X129376000Y-109238349D01*
X135215000Y-102587651D02*
X134415000Y-102587651D01*
X136274000Y-108158349D02*
X133540000Y-108158349D01*
X131460000Y-108118349D02*
X128710000Y-108118349D01*
X133448000Y-110598349D02*
X131552000Y-110598349D01*
X136568000Y-106917349D02*
X128432000Y-106917349D01*
X134900000Y-109918349D02*
X130100000Y-109918349D01*
X131460000Y-109118349D02*
X129280000Y-109118349D01*
X135590000Y-109278349D02*
X133540000Y-109278349D01*
X135005000Y-109838349D02*
X129995000Y-109838349D01*
X136436000Y-107678349D02*
X133540000Y-107678349D01*
X135407000Y-109478349D02*
X129593000Y-109478349D01*
X134845000Y-109958349D02*
X130155000Y-109958349D01*
X131460000Y-107558349D02*
X128533000Y-107558349D01*
X136240000Y-108238349D02*
X133540000Y-108238349D01*
X131460000Y-107758349D02*
X128586000Y-107758349D01*
X131460000Y-109358349D02*
X129481000Y-109358349D01*
X136510000Y-107358349D02*
X133540000Y-107358349D01*
X131460000Y-108718349D02*
X129007000Y-108718349D01*
X136457000Y-107598349D02*
X133540000Y-107598349D01*
X134390000Y-110238349D02*
X130610000Y-110238349D01*
X131460000Y-107998349D02*
X128665000Y-107998349D01*
X136447000Y-107638349D02*
X133540000Y-107638349D01*
X136204000Y-108318349D02*
X133540000Y-108318349D01*
X135892000Y-108878349D02*
X133540000Y-108878349D01*
X131460000Y-107438349D02*
X128506000Y-107438349D01*
X131460000Y-108598349D02*
X128938000Y-108598349D01*
X134534000Y-110158349D02*
X130466000Y-110158349D01*
X136580000Y-106597349D02*
X128420000Y-106597349D01*
X134052000Y-110398349D02*
X130948000Y-110398349D01*
X134145000Y-110358349D02*
X130855000Y-110358349D01*
X135689000Y-109158349D02*
X133540000Y-109158349D01*
X131460000Y-108918349D02*
X129135000Y-108918349D01*
X136389000Y-107838349D02*
X133540000Y-107838349D01*
X134728000Y-110038349D02*
X130272000Y-110038349D01*
X136542000Y-107157349D02*
X128458000Y-107157349D01*
X131460000Y-109198349D02*
X129344000Y-109198349D01*
X134666000Y-110078349D02*
X130334000Y-110078349D01*
X131460000Y-108158349D02*
X128726000Y-108158349D01*
X131460000Y-108758349D02*
X129031000Y-108758349D01*
X134231000Y-110318349D02*
X130769000Y-110318349D01*
X135284000Y-109598349D02*
X129716000Y-109598349D01*
X131460000Y-108358349D02*
X128814000Y-108358349D01*
X136524000Y-107277349D02*
X128476000Y-107277349D01*
X134787000Y-109998349D02*
X130213000Y-109998349D01*
X131460000Y-108558349D02*
X128916000Y-108558349D01*
X135809000Y-108998349D02*
X133540000Y-108998349D01*
X136502000Y-107398349D02*
X133540000Y-107398349D01*
X131460000Y-108078349D02*
X128695000Y-108078349D01*
X131460000Y-108998349D02*
X129191000Y-108998349D01*
X131460000Y-109318349D02*
X129445000Y-109318349D01*
X135969000Y-108758349D02*
X133540000Y-108758349D01*
X136363000Y-107918349D02*
X133540000Y-107918349D01*
X131460000Y-108478349D02*
X128873000Y-108478349D01*
X131460000Y-108238349D02*
X128760000Y-108238349D01*
X131460000Y-109158349D02*
X129311000Y-109158349D01*
X136335000Y-107998349D02*
X133540000Y-107998349D01*
X136305000Y-108078349D02*
X133540000Y-108078349D01*
X131460000Y-107798349D02*
X128598000Y-107798349D01*
X135838000Y-108958349D02*
X133540000Y-108958349D01*
X131460000Y-108318349D02*
X128796000Y-108318349D01*
X136561000Y-106997349D02*
X128439000Y-106997349D01*
X131460000Y-109278349D02*
X129410000Y-109278349D01*
X135555000Y-109318349D02*
X133540000Y-109318349D01*
X136517000Y-107318349D02*
X133540000Y-107318349D01*
X135993000Y-108718349D02*
X133540000Y-108718349D01*
X136580000Y-106637349D02*
X128420000Y-106637349D01*
X135944000Y-108798349D02*
X133540000Y-108798349D01*
X135519000Y-109358349D02*
X133540000Y-109358349D01*
X136414000Y-107758349D02*
X133540000Y-107758349D01*
X136494000Y-107438349D02*
X133540000Y-107438349D01*
X131460000Y-108798349D02*
X129056000Y-108798349D01*
X136377000Y-107878349D02*
X133540000Y-107878349D01*
X134313000Y-110278349D02*
X130687000Y-110278349D01*
X136257000Y-108198349D02*
X133540000Y-108198349D01*
X136485000Y-107478349D02*
X133540000Y-107478349D01*
X136576000Y-106797349D02*
X128424000Y-106797349D01*
X131460000Y-108438349D02*
X128853000Y-108438349D01*
X136580000Y-106677349D02*
X128420000Y-106677349D01*
X136166000Y-108398349D02*
X133540000Y-108398349D01*
X135151000Y-109718349D02*
X129849000Y-109718349D01*
X135241000Y-109638349D02*
X129759000Y-109638349D01*
X131460000Y-107678349D02*
X128564000Y-107678349D01*
X136467000Y-107558349D02*
X133540000Y-107558349D01*
X135780000Y-109038349D02*
X133540000Y-109038349D01*
X135104000Y-109758349D02*
X129896000Y-109758349D01*
X135750000Y-109078349D02*
X133540000Y-109078349D01*
X131460000Y-108198349D02*
X128743000Y-108198349D01*
X131460000Y-107398349D02*
X128498000Y-107398349D01*
X133268000Y-110638349D02*
X131732000Y-110638349D01*
X134602000Y-110118349D02*
X130398000Y-110118349D01*
X136147000Y-108438349D02*
X133540000Y-108438349D01*
X133729000Y-110518349D02*
X131271000Y-110518349D01*
X131460000Y-107718349D02*
X128575000Y-107718349D01*
X131460000Y-107478349D02*
X128515000Y-107478349D01*
X131460000Y-107358349D02*
X128490000Y-107358349D01*
X135918000Y-108838349D02*
X133540000Y-108838349D01*
X136579000Y-106717349D02*
X128421000Y-106717349D01*
X135326000Y-109558349D02*
X129674000Y-109558349D01*
X131460000Y-108838349D02*
X129082000Y-108838349D01*
X136571000Y-106877349D02*
X128429000Y-106877349D01*
X136186000Y-108358349D02*
X133540000Y-108358349D01*
X135483000Y-109398349D02*
X129517000Y-109398349D01*
X135197000Y-109678349D02*
X129803000Y-109678349D01*
X136548000Y-107117349D02*
X128452000Y-107117349D01*
X135865000Y-108918349D02*
X133540000Y-108918349D01*
X136552000Y-107077349D02*
X128448000Y-107077349D01*
X136577000Y-106757349D02*
X128423000Y-106757349D01*
X131460000Y-107878349D02*
X128623000Y-107878349D01*
X131460000Y-108678349D02*
X128983000Y-108678349D01*
X131460000Y-108038349D02*
X128679000Y-108038349D01*
X136402000Y-107798349D02*
X133540000Y-107798349D01*
X136530000Y-107237349D02*
X128470000Y-107237349D01*
X133598000Y-110558349D02*
X131402000Y-110558349D01*
X136106000Y-108518349D02*
X133540000Y-108518349D01*
X131460000Y-107318349D02*
X128483000Y-107318349D01*
X136574000Y-106837349D02*
X128426000Y-106837349D01*
X131460000Y-109038349D02*
X129220000Y-109038349D01*
X135656000Y-109198349D02*
X133540000Y-109198349D01*
X135056000Y-109798349D02*
X129944000Y-109798349D01*
X131460000Y-107958349D02*
X128650000Y-107958349D01*
X133953000Y-110438349D02*
X131047000Y-110438349D01*
X136350000Y-107958349D02*
X133540000Y-107958349D01*
X136620000Y-106597349D02*
G75*
G03*
X136620000Y-106597349I-4120000J0D01*
G01*
%TO.C,D9*%
X189175000Y-84250000D02*
X189175000Y-80350000D01*
X187175000Y-84250000D02*
X187175000Y-80350000D01*
X187175000Y-84250000D02*
X189175000Y-84250000D01*
%TO.C,LD12*%
X153135000Y-85685000D02*
X153135000Y-83000000D01*
X151215000Y-83000000D02*
X151215000Y-85685000D01*
X151215000Y-85685000D02*
X153135000Y-85685000D01*
%TO.C,LD14*%
X131215000Y-85747500D02*
X133135000Y-85747500D01*
X133135000Y-85747500D02*
X133135000Y-83062500D01*
X131215000Y-83062500D02*
X131215000Y-85747500D01*
%TO.C,C4*%
X114010000Y-108339420D02*
X114010000Y-108620580D01*
X112990000Y-108339420D02*
X112990000Y-108620580D01*
%TO.C,K9*%
X186165000Y-78990000D02*
X187935000Y-78990000D01*
X187935000Y-78990000D02*
X187935000Y-58970000D01*
X182395000Y-58970000D02*
X182395000Y-78990000D01*
X187935000Y-58970000D02*
X182395000Y-58970000D01*
X182395000Y-78990000D02*
X184165000Y-78990000D01*
X186165000Y-78990000D02*
G75*
G03*
X184165000Y-78990000I-1000000J0D01*
G01*
%TO.C,K1*%
X114510000Y-120510000D02*
X112740000Y-120510000D01*
X112740000Y-120510000D02*
X112740000Y-140530000D01*
X118280000Y-120510000D02*
X116510000Y-120510000D01*
X112740000Y-140530000D02*
X118280000Y-140530000D01*
X118280000Y-140530000D02*
X118280000Y-120510000D01*
X114510000Y-120510000D02*
G75*
G03*
X116510000Y-120510000I1000000J0D01*
G01*
%TO.C,LD8*%
X189460000Y-115500000D02*
X189460000Y-112815000D01*
X189460000Y-112815000D02*
X187540000Y-112815000D01*
X187540000Y-112815000D02*
X187540000Y-115500000D01*
%TO.C,K5*%
X154510000Y-120510000D02*
X152740000Y-120510000D01*
X152740000Y-140530000D02*
X158280000Y-140530000D01*
X152740000Y-120510000D02*
X152740000Y-140530000D01*
X158280000Y-120510000D02*
X156510000Y-120510000D01*
X158280000Y-140530000D02*
X158280000Y-120510000D01*
X154510000Y-120510000D02*
G75*
G03*
X156510000Y-120510000I1000000J0D01*
G01*
%TO.C,K7*%
X178280000Y-140530000D02*
X178280000Y-120510000D01*
X172740000Y-140530000D02*
X178280000Y-140530000D01*
X178280000Y-120510000D02*
X176510000Y-120510000D01*
X174510000Y-120510000D02*
X172740000Y-120510000D01*
X172740000Y-120510000D02*
X172740000Y-140530000D01*
X174510000Y-120510000D02*
G75*
G03*
X176510000Y-120510000I1000000J0D01*
G01*
%TO.C,LD16*%
X110215000Y-85747500D02*
X112135000Y-85747500D01*
X112135000Y-85747500D02*
X112135000Y-83062500D01*
X110215000Y-83062500D02*
X110215000Y-85747500D01*
%TO.C,C8*%
X188630000Y-102915580D02*
X188630000Y-102634420D01*
X187610000Y-102915580D02*
X187610000Y-102634420D01*
%TO.C,R8*%
X185737258Y-114022500D02*
X185262742Y-114022500D01*
X185737258Y-112977500D02*
X185262742Y-112977500D01*
%TO.C,R23*%
X116937742Y-95000000D02*
X117412258Y-95000000D01*
X116937742Y-93955000D02*
X117412258Y-93955000D01*
%TO.C,D11*%
X167175000Y-84250000D02*
X169175000Y-84250000D01*
X167175000Y-84250000D02*
X167175000Y-80350000D01*
X169175000Y-84250000D02*
X169175000Y-80350000D01*
%TO.C,C3*%
X111490000Y-95359420D02*
X111490000Y-95640580D01*
X112510000Y-95359420D02*
X112510000Y-95640580D01*
%TO.C,D16*%
X116175000Y-84250000D02*
X118175000Y-84250000D01*
X116175000Y-84250000D02*
X116175000Y-80350000D01*
X118175000Y-84250000D02*
X118175000Y-80350000D01*
%TO.C,U1*%
X112609000Y-106825000D02*
X112609000Y-105315000D01*
X109340000Y-106825000D02*
X109340000Y-102184000D01*
X116310000Y-106825000D02*
X116310000Y-105315000D01*
X119580000Y-106825000D02*
X109340000Y-106825000D01*
X119580000Y-105315000D02*
X109340000Y-105315000D01*
X119580000Y-106825000D02*
X119580000Y-102184000D01*
X119580000Y-102184000D02*
X109340000Y-102184000D01*
%TO.C,J4*%
X113230000Y-89330000D02*
X113230000Y-86670000D01*
X113230000Y-89330000D02*
X115830000Y-89330000D01*
X115830000Y-89330000D02*
X115830000Y-86670000D01*
X111960000Y-89330000D02*
X110630000Y-89330000D01*
X110630000Y-89330000D02*
X110630000Y-88000000D01*
X113230000Y-86670000D02*
X115830000Y-86670000D01*
%TO.C,Q9*%
X186797500Y-81937500D02*
X186797500Y-82587500D01*
X183677500Y-81937500D02*
X183677500Y-83612500D01*
X186797500Y-81937500D02*
X186797500Y-81287500D01*
X183677500Y-81937500D02*
X183677500Y-81287500D01*
%TO.C,D13*%
X147175000Y-84250000D02*
X147175000Y-80350000D01*
X147175000Y-84250000D02*
X149175000Y-84250000D01*
X149175000Y-84250000D02*
X149175000Y-80350000D01*
%TO.C,J7*%
X170530000Y-148330000D02*
X170530000Y-143130000D01*
X129770000Y-144460000D02*
X129770000Y-143130000D01*
X129770000Y-148330000D02*
X170530000Y-148330000D01*
X132370000Y-143130000D02*
X170530000Y-143130000D01*
X132370000Y-145730000D02*
X132370000Y-143130000D01*
X129770000Y-145730000D02*
X132370000Y-145730000D01*
X129770000Y-143130000D02*
X131100000Y-143130000D01*
X129770000Y-148330000D02*
X129770000Y-145730000D01*
%TO.C,U4*%
X166010000Y-102260000D02*
X186450000Y-102260000D01*
X165950000Y-94760000D02*
X165950000Y-105260000D01*
X186510000Y-94760000D02*
X165950000Y-94760000D01*
X186510000Y-105260000D02*
X186510000Y-94760000D01*
X186450000Y-102260000D02*
X186450000Y-101010000D01*
X186450000Y-97760000D02*
X166010000Y-97760000D01*
X165950000Y-105260000D02*
X186510000Y-105260000D01*
X166010000Y-97760000D02*
X166010000Y-102260000D01*
X186450000Y-99010000D02*
X186450000Y-97760000D01*
X186450000Y-99010000D02*
G75*
G03*
X186450000Y-101010000I0J-1000000D01*
G01*
%TO.C,D8*%
X183500000Y-114900000D02*
X181500000Y-114900000D01*
X181500000Y-114900000D02*
X181500000Y-118800000D01*
X183500000Y-114900000D02*
X183500000Y-118800000D01*
D10*
%TO.C,TP1*%
X169250000Y-107500000D02*
G75*
G03*
X169250000Y-107500000I-1750000J0D01*
G01*
D11*
%TO.C,K4*%
X142740000Y-120510000D02*
X142740000Y-140530000D01*
X142740000Y-140530000D02*
X148280000Y-140530000D01*
X148280000Y-140530000D02*
X148280000Y-120510000D01*
X148280000Y-120510000D02*
X146510000Y-120510000D01*
X144510000Y-120510000D02*
X142740000Y-120510000D01*
X144510000Y-120510000D02*
G75*
G03*
X146510000Y-120510000I1000000J0D01*
G01*
%TO.C,K10*%
X177935000Y-78990000D02*
X177935000Y-58970000D01*
X176165000Y-78990000D02*
X177935000Y-78990000D01*
X172395000Y-58970000D02*
X172395000Y-78990000D01*
X177935000Y-58970000D02*
X172395000Y-58970000D01*
X172395000Y-78990000D02*
X174165000Y-78990000D01*
X176165000Y-78990000D02*
G75*
G03*
X174165000Y-78990000I-1000000J0D01*
G01*
%TO.C,K14*%
X132395000Y-58970000D02*
X132395000Y-78990000D01*
X136165000Y-78990000D02*
X137935000Y-78990000D01*
X132395000Y-78990000D02*
X134165000Y-78990000D01*
X137935000Y-78990000D02*
X137935000Y-58970000D01*
X137935000Y-58970000D02*
X132395000Y-58970000D01*
X136165000Y-78990000D02*
G75*
G03*
X134165000Y-78990000I-1000000J0D01*
G01*
%TO.C,Q2*%
X127060000Y-117500000D02*
X127060000Y-115825000D01*
X123940000Y-117500000D02*
X123940000Y-116850000D01*
X127060000Y-117500000D02*
X127060000Y-118150000D01*
X123940000Y-117500000D02*
X123940000Y-118150000D01*
%TO.C,C5*%
X127757000Y-108198349D02*
X125040000Y-108198349D01*
X128048000Y-107117349D02*
X119952000Y-107117349D01*
X128057000Y-107037349D02*
X119943000Y-107037349D01*
X124533000Y-110678349D02*
X123467000Y-110678349D01*
X127562000Y-108598349D02*
X125040000Y-108598349D01*
X127517000Y-108678349D02*
X125040000Y-108678349D01*
X122960000Y-107918349D02*
X120137000Y-107918349D01*
X128010000Y-107358349D02*
X125040000Y-107358349D01*
X127124000Y-109238349D02*
X125040000Y-109238349D01*
X127540000Y-108638349D02*
X125040000Y-108638349D01*
X122960000Y-108718349D02*
X120507000Y-108718349D01*
X122960000Y-107838349D02*
X120111000Y-107838349D01*
X127309000Y-108998349D02*
X125040000Y-108998349D01*
X122960000Y-109318349D02*
X120945000Y-109318349D01*
X128080000Y-106597349D02*
X119920000Y-106597349D01*
X128002000Y-107398349D02*
X125040000Y-107398349D01*
X127947000Y-107638349D02*
X125040000Y-107638349D01*
X128077000Y-106757349D02*
X119923000Y-106757349D01*
X122960000Y-108518349D02*
X120394000Y-108518349D01*
X126697000Y-109678349D02*
X121303000Y-109678349D01*
X122960000Y-108558349D02*
X120416000Y-108558349D01*
X126102000Y-110118349D02*
X121898000Y-110118349D01*
X126315000Y-102187651D02*
X126315000Y-102987651D01*
X122960000Y-107878349D02*
X120123000Y-107878349D01*
X126741000Y-109638349D02*
X121259000Y-109638349D01*
X127627000Y-108478349D02*
X125040000Y-108478349D01*
X122960000Y-109198349D02*
X120844000Y-109198349D01*
X122960000Y-108758349D02*
X120531000Y-108758349D01*
X126826000Y-109558349D02*
X121174000Y-109558349D01*
X127338000Y-108958349D02*
X125040000Y-108958349D01*
X128042000Y-107157349D02*
X119958000Y-107157349D01*
X122960000Y-108238349D02*
X120260000Y-108238349D01*
X127877000Y-107878349D02*
X125040000Y-107878349D01*
X127902000Y-107798349D02*
X125040000Y-107798349D01*
X122960000Y-108838349D02*
X120582000Y-108838349D01*
X126454000Y-109878349D02*
X121546000Y-109878349D01*
X128079000Y-106717349D02*
X119921000Y-106717349D01*
X122960000Y-108118349D02*
X120210000Y-108118349D01*
X127790000Y-108118349D02*
X125040000Y-108118349D01*
X127889000Y-107838349D02*
X125040000Y-107838349D01*
X128068000Y-106917349D02*
X119932000Y-106917349D01*
X125346000Y-110478349D02*
X122654000Y-110478349D01*
X126345000Y-109958349D02*
X121655000Y-109958349D01*
X122960000Y-108398349D02*
X120334000Y-108398349D01*
X126505000Y-109838349D02*
X121495000Y-109838349D01*
X122960000Y-107438349D02*
X120006000Y-107438349D01*
X125229000Y-110518349D02*
X122771000Y-110518349D01*
X126651000Y-109718349D02*
X121349000Y-109718349D01*
X127055000Y-109318349D02*
X125040000Y-109318349D01*
X122960000Y-108678349D02*
X120483000Y-108678349D01*
X127967000Y-107558349D02*
X125040000Y-107558349D01*
X127280000Y-109038349D02*
X125040000Y-109038349D01*
X122960000Y-107358349D02*
X119990000Y-107358349D01*
X122960000Y-107998349D02*
X120165000Y-107998349D01*
X127365000Y-108918349D02*
X125040000Y-108918349D01*
X126907000Y-109478349D02*
X121093000Y-109478349D01*
X127392000Y-108878349D02*
X125040000Y-108878349D01*
X122960000Y-108998349D02*
X120691000Y-108998349D01*
X122960000Y-107758349D02*
X120086000Y-107758349D01*
X122960000Y-107718349D02*
X120075000Y-107718349D01*
X122960000Y-108318349D02*
X120296000Y-108318349D01*
X122960000Y-108878349D02*
X120608000Y-108878349D01*
X122960000Y-107318349D02*
X119983000Y-107318349D01*
X128071000Y-106877349D02*
X119929000Y-106877349D01*
X126034000Y-110158349D02*
X121966000Y-110158349D01*
X127444000Y-108798349D02*
X125040000Y-108798349D01*
X128080000Y-106637349D02*
X119920000Y-106637349D01*
X128076000Y-106797349D02*
X119924000Y-106797349D01*
X126400000Y-109918349D02*
X121600000Y-109918349D01*
X122960000Y-108918349D02*
X120635000Y-108918349D01*
X122960000Y-107398349D02*
X119998000Y-107398349D01*
X127850000Y-107958349D02*
X125040000Y-107958349D01*
X126983000Y-109398349D02*
X121017000Y-109398349D01*
X124768000Y-110638349D02*
X123232000Y-110638349D01*
X127704000Y-108318349D02*
X125040000Y-108318349D01*
X122960000Y-109038349D02*
X120720000Y-109038349D01*
X126784000Y-109598349D02*
X121216000Y-109598349D01*
X126166000Y-110078349D02*
X121834000Y-110078349D01*
X127722000Y-108278349D02*
X125040000Y-108278349D01*
X126556000Y-109798349D02*
X121444000Y-109798349D01*
X126715000Y-102587651D02*
X125915000Y-102587651D01*
X125813000Y-110278349D02*
X122187000Y-110278349D01*
X122960000Y-107558349D02*
X120033000Y-107558349D01*
X122960000Y-107478349D02*
X120015000Y-107478349D01*
X127666000Y-108398349D02*
X125040000Y-108398349D01*
X125964000Y-110198349D02*
X122036000Y-110198349D01*
X127835000Y-107998349D02*
X125040000Y-107998349D01*
X124948000Y-110598349D02*
X123052000Y-110598349D01*
X126945000Y-109438349D02*
X121055000Y-109438349D01*
X127493000Y-108718349D02*
X125040000Y-108718349D01*
X126604000Y-109758349D02*
X121396000Y-109758349D01*
X127976000Y-107518349D02*
X125040000Y-107518349D01*
X127469000Y-108758349D02*
X125040000Y-108758349D01*
X125890000Y-110238349D02*
X122110000Y-110238349D01*
X125645000Y-110358349D02*
X122355000Y-110358349D01*
X128080000Y-106677349D02*
X119920000Y-106677349D01*
X122960000Y-108158349D02*
X120226000Y-108158349D01*
X125098000Y-110558349D02*
X122902000Y-110558349D01*
X128030000Y-107237349D02*
X119970000Y-107237349D01*
X127936000Y-107678349D02*
X125040000Y-107678349D01*
X128061000Y-106997349D02*
X119939000Y-106997349D01*
X127994000Y-107438349D02*
X125040000Y-107438349D01*
X128017000Y-107318349D02*
X125040000Y-107318349D01*
X122960000Y-108038349D02*
X120179000Y-108038349D01*
X127863000Y-107918349D02*
X125040000Y-107918349D01*
X127418000Y-108838349D02*
X125040000Y-108838349D01*
X122960000Y-108478349D02*
X120373000Y-108478349D01*
X127647000Y-108438349D02*
X125040000Y-108438349D01*
X127740000Y-108238349D02*
X125040000Y-108238349D01*
X127019000Y-109358349D02*
X125040000Y-109358349D01*
X122960000Y-108638349D02*
X120460000Y-108638349D01*
X122960000Y-107678349D02*
X120064000Y-107678349D01*
X122960000Y-108078349D02*
X120195000Y-108078349D01*
X122960000Y-108198349D02*
X120243000Y-108198349D01*
X122960000Y-109158349D02*
X120811000Y-109158349D01*
X128052000Y-107077349D02*
X119948000Y-107077349D01*
X122960000Y-109078349D02*
X120750000Y-109078349D01*
X127250000Y-109078349D02*
X125040000Y-109078349D01*
X122960000Y-108598349D02*
X120438000Y-108598349D01*
X122960000Y-107518349D02*
X120024000Y-107518349D01*
X122960000Y-108278349D02*
X120278000Y-108278349D01*
X125552000Y-110398349D02*
X122448000Y-110398349D01*
X125453000Y-110438349D02*
X122547000Y-110438349D01*
X126228000Y-110038349D02*
X121772000Y-110038349D01*
X127686000Y-108358349D02*
X125040000Y-108358349D01*
X122960000Y-109278349D02*
X120910000Y-109278349D01*
X127220000Y-109118349D02*
X125040000Y-109118349D01*
X122960000Y-108798349D02*
X120556000Y-108798349D01*
X127774000Y-108158349D02*
X125040000Y-108158349D01*
X127925000Y-107718349D02*
X125040000Y-107718349D01*
X127957000Y-107598349D02*
X125040000Y-107598349D01*
X128074000Y-106837349D02*
X119926000Y-106837349D01*
X127914000Y-107758349D02*
X125040000Y-107758349D01*
X128024000Y-107277349D02*
X119976000Y-107277349D01*
X122960000Y-108438349D02*
X120353000Y-108438349D01*
X127584000Y-108558349D02*
X125040000Y-108558349D01*
X126287000Y-109998349D02*
X121713000Y-109998349D01*
X127156000Y-109198349D02*
X125040000Y-109198349D01*
X122960000Y-107798349D02*
X120098000Y-107798349D01*
X122960000Y-109118349D02*
X120780000Y-109118349D01*
X128037000Y-107197349D02*
X119963000Y-107197349D01*
X125731000Y-110318349D02*
X122269000Y-110318349D01*
X127985000Y-107478349D02*
X125040000Y-107478349D01*
X122960000Y-107958349D02*
X120150000Y-107958349D01*
X122960000Y-107598349D02*
X120043000Y-107598349D01*
X122960000Y-109358349D02*
X120981000Y-109358349D01*
X128065000Y-106957349D02*
X119935000Y-106957349D01*
X127805000Y-108078349D02*
X125040000Y-108078349D01*
X127189000Y-109158349D02*
X125040000Y-109158349D01*
X122960000Y-108358349D02*
X120314000Y-108358349D01*
X126867000Y-109518349D02*
X121133000Y-109518349D01*
X127090000Y-109278349D02*
X125040000Y-109278349D01*
X127606000Y-108518349D02*
X125040000Y-108518349D01*
X122960000Y-108958349D02*
X120662000Y-108958349D01*
X127821000Y-108038349D02*
X125040000Y-108038349D01*
X122960000Y-109238349D02*
X120876000Y-109238349D01*
X122960000Y-107638349D02*
X120053000Y-107638349D01*
X128120000Y-106597349D02*
G75*
G03*
X128120000Y-106597349I-4120000J0D01*
G01*
%TO.C,J5*%
X109885000Y-137305000D02*
X109885000Y-134645000D01*
X102145000Y-135975000D02*
X102145000Y-134645000D01*
X104745000Y-137305000D02*
X109885000Y-137305000D01*
X104745000Y-134645000D02*
X109885000Y-134645000D01*
X104745000Y-137305000D02*
X104745000Y-134645000D01*
X102145000Y-134645000D02*
X103475000Y-134645000D01*
%TO.C,R10*%
X174937742Y-84477500D02*
X175412258Y-84477500D01*
X174937742Y-85522500D02*
X175412258Y-85522500D01*
%TO.C,LD17*%
X136040000Y-102185000D02*
X137960000Y-102185000D01*
X137960000Y-102185000D02*
X137960000Y-99500000D01*
X136040000Y-99500000D02*
X136040000Y-102185000D01*
%TO.C,LD3*%
X137540000Y-113815000D02*
X137540000Y-116500000D01*
X139460000Y-113815000D02*
X137540000Y-113815000D01*
X139460000Y-116500000D02*
X139460000Y-113815000D01*
%TO.C,Q6*%
X163940000Y-117500000D02*
X163940000Y-118150000D01*
X167060000Y-117500000D02*
X167060000Y-115825000D01*
X163940000Y-117500000D02*
X163940000Y-116850000D01*
X167060000Y-117500000D02*
X167060000Y-118150000D01*
%TO.C,R11*%
X164937742Y-84477500D02*
X165412258Y-84477500D01*
X164937742Y-85522500D02*
X165412258Y-85522500D01*
%TO.C,JP1*%
X198750000Y-88700000D02*
X198750000Y-89300000D01*
X198100000Y-90000000D02*
X195300000Y-90000000D01*
X195300000Y-88000000D02*
X198100000Y-88000000D01*
X194650000Y-89300000D02*
X194650000Y-88700000D01*
X198050000Y-90000000D02*
G75*
G03*
X198750000Y-89300000I0J700000D01*
G01*
X194650000Y-89300000D02*
G75*
G03*
X195350000Y-90000000I699999J-1D01*
G01*
X198750000Y-88700000D02*
G75*
G03*
X198050000Y-88000000I-700000J0D01*
G01*
X195350000Y-88000000D02*
G75*
G03*
X194650000Y-88700000I-1J-699999D01*
G01*
%TO.C,R3*%
X135737258Y-115022500D02*
X135262742Y-115022500D01*
X135737258Y-113977500D02*
X135262742Y-113977500D01*
%TO.C,LD4*%
X149460000Y-116500000D02*
X149460000Y-113815000D01*
X149460000Y-113815000D02*
X147540000Y-113815000D01*
X147540000Y-113815000D02*
X147540000Y-116500000D01*
%TO.C,K2*%
X128280000Y-120510000D02*
X126510000Y-120510000D01*
X122740000Y-140530000D02*
X128280000Y-140530000D01*
X128280000Y-140530000D02*
X128280000Y-120510000D01*
X124510000Y-120510000D02*
X122740000Y-120510000D01*
X122740000Y-120510000D02*
X122740000Y-140530000D01*
X124510000Y-120510000D02*
G75*
G03*
X126510000Y-120510000I1000000J0D01*
G01*
%TO.C,R14*%
X134762742Y-84477500D02*
X135237258Y-84477500D01*
X134762742Y-85522500D02*
X135237258Y-85522500D01*
%TO.C,D2*%
X123500000Y-115250000D02*
X123500000Y-119150000D01*
X121500000Y-115250000D02*
X121500000Y-119150000D01*
X123500000Y-115250000D02*
X121500000Y-115250000D01*
%TO.C,LD9*%
X181215000Y-83000000D02*
X181215000Y-85685000D01*
X183135000Y-85685000D02*
X183135000Y-83000000D01*
X181215000Y-85685000D02*
X183135000Y-85685000D01*
%TO.C,R12*%
X154937742Y-85522500D02*
X155412258Y-85522500D01*
X154937742Y-84477500D02*
X155412258Y-84477500D01*
%TO.C,LD5*%
X159460000Y-113877500D02*
X157540000Y-113877500D01*
X159460000Y-116562500D02*
X159460000Y-113877500D01*
X157540000Y-113877500D02*
X157540000Y-116562500D01*
%TO.C,J1*%
X106330000Y-74040000D02*
X106330000Y-75370000D01*
X106330000Y-72770000D02*
X103670000Y-72770000D01*
X106330000Y-75370000D02*
X105000000Y-75370000D01*
X106330000Y-70170000D02*
X103670000Y-70170000D01*
X103670000Y-72770000D02*
X103670000Y-70170000D01*
X106330000Y-72770000D02*
X106330000Y-70170000D01*
%TO.C,R19*%
X117087742Y-109577500D02*
X117562258Y-109577500D01*
X117087742Y-108532500D02*
X117562258Y-108532500D01*
%TO.C,Q14*%
X133615000Y-81937500D02*
X133615000Y-83612500D01*
X133615000Y-81937500D02*
X133615000Y-81287500D01*
X136735000Y-81937500D02*
X136735000Y-82587500D01*
X136735000Y-81937500D02*
X136735000Y-81287500D01*
%TO.C,Q12*%
X153615000Y-82000000D02*
X153615000Y-81350000D01*
X153615000Y-82000000D02*
X153615000Y-83675000D01*
X156735000Y-82000000D02*
X156735000Y-82650000D01*
X156735000Y-82000000D02*
X156735000Y-81350000D01*
%TO.C,K15*%
X127545000Y-58970000D02*
X122005000Y-58970000D01*
X125775000Y-78990000D02*
X127545000Y-78990000D01*
X122005000Y-58970000D02*
X122005000Y-78990000D01*
X127545000Y-78990000D02*
X127545000Y-58970000D01*
X122005000Y-78990000D02*
X123775000Y-78990000D01*
X125775000Y-78990000D02*
G75*
G03*
X123775000Y-78990000I-1000000J0D01*
G01*
%TD*%
M02*
