<?xml version="1.0" standalone="no"?>
 <!DOCTYPE svg PUBLIC "-//W3C//DTD SVG 1.1//EN" 
 "http://www.w3.org/Graphics/SVG/1.1/DTD/svg11.dtd"> 
<svg
  xmlns:svg="http://www.w3.org/2000/svg"
  xmlns="http://www.w3.org/2000/svg"
  xmlns:xlink="http://www.w3.org/1999/xlink"
  version="1.1"
  width="29.700220cm" height="21.000720cm" viewBox="0 0 116930 82680">
<title>SVG Picture created as relay_brd-drl_map.svg date 2022/10/03 01:51:50 </title>
  <desc>Picture generated by PCBNEW </desc>
<g style="fill:#000000; fill-opacity:1.000000;stroke:#000000; stroke-opacity:1.000000;
stroke-linecap:round; stroke-linejoin:round;"
 transform="translate(0 0) scale(1 1)">
</g>
<g style="fill:#000000; fill-opacity:0.0; 
stroke:#000000; stroke-width:0.000000; stroke-opacity:1; 
stroke-linecap:round; stroke-linejoin:round;">
</g>
<g style="fill:#000000; fill-opacity:0.0; 
stroke:#000000; stroke-width:45.625367; stroke-opacity:1; 
stroke-linecap:round; stroke-linejoin:round;">
<path d="M78996.415187 47616.683154 A2281.268338 2281.268338 0.0 0 0 81277.683525 45335.414816" />
<path d="M37933 1991
L78996 1991
" />
<path d="M35652.316766 45335.414816 A2281.268338 2281.268338 0.0 0 0 37933.585104 47616.683154" />
<path d="M81277 4272
L81277 45335
" />
<path d="M78996 47616
L37933 47616
" />
<path d="M81277.683525 4272.584733 A2281.268338 2281.268338 0.0 0 0 78996.415187 1991.316395" />
<path d="M35652 45335
L35652 4272
" />
<path d="M37933.585104 1991.316395 A2281.268338 2281.268338 0.0 0 0 35652.316766 4272.584733" />
</g>
<g style="fill:#000000; fill-opacity:0.0; 
stroke:#000000; stroke-width:91.250734; stroke-opacity:1; 
stroke-linecap:round; stroke-linejoin:round;">
</g>
<g style="fill:#000000; fill-opacity:0.0; 
stroke:#000000; stroke-width:31.937757; stroke-opacity:1; 
stroke-linecap:round; stroke-linejoin:round;">
<path d="M40673 7014
L40992 7334
" />
<path d="M40992 7014
L40673 7334
" />
<path d="M40673 8127
L40992 8447
" />
<path d="M40992 8127
L40673 8447
" />
<path d="M40673 12809
L40992 13128
" />
<path d="M40992 12809
L40673 13128
" />
<path d="M40673 13967
L40992 14287
" />
<path d="M40992 13967
L40673 14287
" />
<path d="M40830 35092
L41150 35411
" />
<path d="M41150 35092
L40830 35411
" />
<path d="M40830 36251
L41150 36570
" />
<path d="M41150 36251
L40830 36570
" />
<path d="M40830 40932
L41150 41251
" />
<path d="M41150 40932
L40830 41251
" />
<path d="M40830 42045
L41150 42365
" />
<path d="M41150 42045
L40830 42365
" />
<path d="M44150 7014
L44469 7334
" />
<path d="M44469 7014
L44150 7334
" />
<path d="M44150 8127
L44469 8447
" />
<path d="M44469 8127
L44150 8447
" />
<path d="M44150 12809
L44469 13128
" />
<path d="M44469 12809
L44150 13128
" />
<path d="M44150 13967
L44469 14287
" />
<path d="M44469 13967
L44150 14287
" />
<path d="M44307 35092
L44626 35411
" />
<path d="M44626 35092
L44307 35411
" />
<path d="M44307 36251
L44626 36570
" />
<path d="M44626 36251
L44307 36570
" />
<path d="M44307 40932
L44626 41251
" />
<path d="M44626 40932
L44307 41251
" />
<path d="M44307 42045
L44626 42365
" />
<path d="M44626 42045
L44307 42365
" />
<path d="M45057 7014
L45377 7334
" />
<path d="M45377 7014
L45057 7334
" />
<path d="M45057 8127
L45377 8447
" />
<path d="M45377 8127
L45057 8447
" />
<path d="M45057 12809
L45377 13128
" />
<path d="M45377 12809
L45057 13128
" />
<path d="M45057 13967
L45377 14287
" />
<path d="M45377 13967
L45057 14287
" />
<path d="M45393 35092
L45712 35411
" />
<path d="M45712 35092
L45393 35411
" />
<path d="M45393 36251
L45712 36570
" />
<path d="M45712 36251
L45393 36570
" />
<path d="M45393 40932
L45712 41251
" />
<path d="M45712 40932
L45393 41251
" />
<path d="M45393 42045
L45712 42365
" />
<path d="M45712 42045
L45393 42365
" />
<path d="M48534 7014
L48854 7334
" />
<path d="M48854 7014
L48534 7334
" />
<path d="M48534 8127
L48854 8447
" />
<path d="M48854 8127
L48534 8447
" />
<path d="M48534 12809
L48854 13128
" />
<path d="M48854 12809
L48534 13128
" />
<path d="M48534 13967
L48854 14287
" />
<path d="M48854 13967
L48534 14287
" />
<path d="M48869 35092
L49189 35411
" />
<path d="M49189 35092
L48869 35411
" />
<path d="M48869 36251
L49189 36570
" />
<path d="M49189 36251
L48869 36570
" />
<path d="M48869 40932
L49189 41251
" />
<path d="M49189 40932
L48869 41251
" />
<path d="M48869 42045
L49189 42365
" />
<path d="M49189 42045
L48869 42365
" />
<path d="M49798 7014
L50117 7334
" />
<path d="M50117 7014
L49798 7334
" />
<path d="M49798 8127
L50117 8447
" />
<path d="M50117 8127
L49798 8447
" />
<path d="M49798 12809
L50117 13128
" />
<path d="M50117 12809
L49798 13128
" />
<path d="M49798 13967
L50117 14287
" />
<path d="M50117 13967
L49798 14287
" />
<path d="M49955 35092
L50275 35411
" />
<path d="M50275 35092
L49955 35411
" />
<path d="M49955 36251
L50275 36570
" />
<path d="M50275 36251
L49955 36570
" />
<path d="M49955 40932
L50275 41251
" />
<path d="M50275 40932
L49955 41251
" />
<path d="M49955 42045
L50275 42365
" />
<path d="M50275 42045
L49955 42365
" />
<path d="M53275 7014
L53594 7334
" />
<path d="M53594 7014
L53275 7334
" />
<path d="M53275 8127
L53594 8447
" />
<path d="M53594 8127
L53275 8447
" />
<path d="M53275 12809
L53594 13128
" />
<path d="M53594 12809
L53275 13128
" />
<path d="M53275 13967
L53594 14287
" />
<path d="M53594 13967
L53275 14287
" />
<path d="M53432 35092
L53751 35411
" />
<path d="M53751 35092
L53432 35411
" />
<path d="M53432 36251
L53751 36570
" />
<path d="M53751 36251
L53432 36570
" />
<path d="M53432 40932
L53751 41251
" />
<path d="M53751 40932
L53432 41251
" />
<path d="M53432 42045
L53751 42365
" />
<path d="M53751 42045
L53432 42365
" />
<path d="M54360 7014
L54680 7334
" />
<path d="M54680 7014
L54360 7334
" />
<path d="M54360 8127
L54680 8447
" />
<path d="M54680 8127
L54360 8447
" />
<path d="M54360 12809
L54680 13128
" />
<path d="M54680 12809
L54360 13128
" />
<path d="M54360 13967
L54680 14287
" />
<path d="M54680 13967
L54360 14287
" />
<path d="M54518 35092
L54837 35411
" />
<path d="M54837 35092
L54518 35411
" />
<path d="M54518 36251
L54837 36570
" />
<path d="M54837 36251
L54518 36570
" />
<path d="M54518 40932
L54837 41251
" />
<path d="M54837 40932
L54518 41251
" />
<path d="M54518 42045
L54837 42365
" />
<path d="M54837 42045
L54518 42365
" />
<path d="M57837 7014
L58157 7334
" />
<path d="M58157 7014
L57837 7334
" />
<path d="M57837 8127
L58157 8447
" />
<path d="M58157 8127
L57837 8447
" />
<path d="M57837 12809
L58157 13128
" />
<path d="M58157 12809
L57837 13128
" />
<path d="M57837 13967
L58157 14287
" />
<path d="M58157 13967
L57837 14287
" />
<path d="M57995 35092
L58314 35411
" />
<path d="M58314 35092
L57995 35411
" />
<path d="M57995 36251
L58314 36570
" />
<path d="M58314 36251
L57995 36570
" />
<path d="M57995 40932
L58314 41251
" />
<path d="M58314 40932
L57995 41251
" />
<path d="M57995 42045
L58314 42365
" />
<path d="M58314 42045
L57995 42365
" />
<path d="M58923 7014
L59242 7334
" />
<path d="M59242 7014
L58923 7334
" />
<path d="M58923 8127
L59242 8447
" />
<path d="M59242 8127
L58923 8447
" />
<path d="M58923 12809
L59242 13128
" />
<path d="M59242 12809
L58923 13128
" />
<path d="M58923 13967
L59242 14287
" />
<path d="M59242 13967
L58923 14287
" />
<path d="M59080 35092
L59400 35411
" />
<path d="M59400 35092
L59080 35411
" />
<path d="M59080 36251
L59400 36570
" />
<path d="M59400 36251
L59080 36570
" />
<path d="M59080 40932
L59400 41251
" />
<path d="M59400 40932
L59080 41251
" />
<path d="M59080 42045
L59400 42365
" />
<path d="M59400 42045
L59080 42365
" />
<path d="M62400 7014
L62719 7334
" />
<path d="M62719 7014
L62400 7334
" />
<path d="M62400 8127
L62719 8447
" />
<path d="M62719 8127
L62400 8447
" />
<path d="M62400 12809
L62719 13128
" />
<path d="M62719 12809
L62400 13128
" />
<path d="M62400 13967
L62719 14287
" />
<path d="M62719 13967
L62400 14287
" />
<path d="M62557 35092
L62876 35411
" />
<path d="M62876 35092
L62557 35411
" />
<path d="M62557 36251
L62876 36570
" />
<path d="M62876 36251
L62557 36570
" />
<path d="M62557 40932
L62876 41251
" />
<path d="M62876 40932
L62557 41251
" />
<path d="M62557 42045
L62876 42365
" />
<path d="M62876 42045
L62557 42365
" />
<path d="M63486 7014
L63805 7334
" />
<path d="M63805 7014
L63486 7334
" />
<path d="M63486 8127
L63805 8447
" />
<path d="M63805 8127
L63486 8447
" />
<path d="M63486 12809
L63805 13128
" />
<path d="M63805 12809
L63486 13128
" />
<path d="M63486 13967
L63805 14287
" />
<path d="M63805 13967
L63486 14287
" />
<path d="M63643 35092
L63962 35411
" />
<path d="M63962 35092
L63643 35411
" />
<path d="M63643 36251
L63962 36570
" />
<path d="M63962 36251
L63643 36570
" />
<path d="M63643 40932
L63962 41251
" />
<path d="M63962 40932
L63643 41251
" />
<path d="M63643 42045
L63962 42365
" />
<path d="M63962 42045
L63643 42365
" />
<path d="M66962 7014
L67282 7334
" />
<path d="M67282 7014
L66962 7334
" />
<path d="M66962 8127
L67282 8447
" />
<path d="M67282 8127
L66962 8447
" />
<path d="M66962 12809
L67282 13128
" />
<path d="M67282 12809
L66962 13128
" />
<path d="M66962 13967
L67282 14287
" />
<path d="M67282 13967
L66962 14287
" />
<path d="M67120 35092
L67439 35411
" />
<path d="M67439 35092
L67120 35411
" />
<path d="M67120 36251
L67439 36570
" />
<path d="M67439 36251
L67120 36570
" />
<path d="M67120 40932
L67439 41251
" />
<path d="M67439 40932
L67120 41251
" />
<path d="M67120 42045
L67439 42365
" />
<path d="M67439 42045
L67120 42365
" />
<path d="M68048 7014
L68367 7334
" />
<path d="M68367 7014
L68048 7334
" />
<path d="M68048 8127
L68367 8447
" />
<path d="M68367 8127
L68048 8447
" />
<path d="M68048 12809
L68367 13128
" />
<path d="M68367 12809
L68048 13128
" />
<path d="M68048 13967
L68367 14287
" />
<path d="M68367 13967
L68048 14287
" />
<path d="M68206 35092
L68525 35411
" />
<path d="M68525 35092
L68206 35411
" />
<path d="M68206 36251
L68525 36570
" />
<path d="M68525 36251
L68206 36570
" />
<path d="M68206 40932
L68525 41251
" />
<path d="M68525 40932
L68206 41251
" />
<path d="M68206 42045
L68525 42365
" />
<path d="M68525 42045
L68206 42365
" />
<path d="M71525 7014
L71844 7334
" />
<path d="M71844 7014
L71525 7334
" />
<path d="M71525 8127
L71844 8447
" />
<path d="M71844 8127
L71525 8447
" />
<path d="M71525 12809
L71844 13128
" />
<path d="M71844 12809
L71525 13128
" />
<path d="M71525 13967
L71844 14287
" />
<path d="M71844 13967
L71525 14287
" />
<path d="M71682 35092
L72002 35411
" />
<path d="M72002 35092
L71682 35411
" />
<path d="M71682 36251
L72002 36570
" />
<path d="M72002 36251
L71682 36570
" />
<path d="M71682 40932
L72002 41251
" />
<path d="M72002 40932
L71682 41251
" />
<path d="M71682 42045
L72002 42365
" />
<path d="M72002 42045
L71682 42365
" />
<path d="M72611 7014
L72930 7334
" />
<path d="M72930 7014
L72611 7334
" />
<path d="M72611 8127
L72930 8447
" />
<path d="M72930 8127
L72611 8447
" />
<path d="M72611 12809
L72930 13128
" />
<path d="M72930 12809
L72611 13128
" />
<path d="M72611 13967
L72930 14287
" />
<path d="M72930 13967
L72611 14287
" />
<path d="M72768 35092
L73087 35411
" />
<path d="M73087 35092
L72768 35411
" />
<path d="M72768 36251
L73087 36570
" />
<path d="M73087 36251
L72768 36570
" />
<path d="M72768 40932
L73087 41251
" />
<path d="M73087 40932
L72768 41251
" />
<path d="M72768 42045
L73087 42365
" />
<path d="M73087 42045
L72768 42365
" />
<path d="M76087 7014
L76407 7334
" />
<path d="M76407 7014
L76087 7334
" />
<path d="M76087 8127
L76407 8447
" />
<path d="M76407 8127
L76087 8447
" />
<path d="M76087 12809
L76407 13128
" />
<path d="M76407 12809
L76087 13128
" />
<path d="M76087 13967
L76407 14287
" />
<path d="M76407 13967
L76087 14287
" />
<path d="M76245 35092
L76564 35411
" />
<path d="M76564 35092
L76245 35411
" />
<path d="M76245 36251
L76564 36570
" />
<path d="M76564 36251
L76245 36570
" />
<path d="M76245 40932
L76564 41251
" />
<path d="M76564 40932
L76245 41251
" />
<path d="M76245 42045
L76564 42365
" />
<path d="M76564 42045
L76245 42365
" />
</g>
<g style="fill:#000000; fill-opacity:0.0; 
stroke:#000000; stroke-width:36.500293; stroke-opacity:1; 
stroke-linecap:round; stroke-linejoin:round;">
<circle cx="37933.585104" cy="20925.843600" r="182.501467" /> 
<circle cx="37933.585104" cy="22522.731436" r="182.501467" /> 
<circle cx="45530.208669" cy="24803.999774" r="182.501467" /> 
<circle cx="46602.404788" cy="20856.196021" r="182.501467" /> 
<circle cx="46602.404788" cy="22453.083858" r="182.501467" /> 
<circle cx="46602.404788" cy="27015.620534" r="182.501467" /> 
<circle cx="46602.404788" cy="28612.508370" r="182.501467" /> 
<circle cx="50480.560963" cy="27015.620534" r="182.501467" /> 
<circle cx="50480.560963" cy="28612.508370" r="182.501467" /> 
<circle cx="51324.630248" cy="24803.999774" r="182.501467" /> 
<circle cx="56411.858641" cy="23061.110764" r="182.501467" /> 
<circle cx="56411.858641" cy="26537.763711" r="182.501467" /> 
<circle cx="57570.742957" cy="23061.110764" r="182.501467" /> 
<circle cx="57570.742957" cy="26537.763711" r="182.501467" /> 
<circle cx="58729.627273" cy="23061.110764" r="182.501467" /> 
<circle cx="58729.627273" cy="26537.763711" r="182.501467" /> 
<circle cx="59888.511588" cy="23061.110764" r="182.501467" /> 
<circle cx="59888.511588" cy="26537.763711" r="182.501467" /> 
<circle cx="61047.395904" cy="23061.110764" r="182.501467" /> 
<circle cx="61047.395904" cy="26537.763711" r="182.501467" /> 
<circle cx="62206.280220" cy="23061.110764" r="182.501467" /> 
<circle cx="62206.280220" cy="26537.763711" r="182.501467" /> 
<circle cx="63365.164535" cy="23061.110764" r="182.501467" /> 
<circle cx="63365.164535" cy="26537.763711" r="182.501467" /> 
<circle cx="64524.048851" cy="23061.110764" r="182.501467" /> 
<circle cx="64524.048851" cy="26537.763711" r="182.501467" /> 
<circle cx="66376.438742" cy="23070.235837" r="182.501467" /> 
<circle cx="66376.438742" cy="26546.888784" r="182.501467" /> 
<circle cx="67535.323057" cy="23070.235837" r="182.501467" /> 
<circle cx="67535.323057" cy="26546.888784" r="182.501467" /> 
<circle cx="68694.207373" cy="23070.235837" r="182.501467" /> 
<circle cx="68694.207373" cy="26546.888784" r="182.501467" /> 
<circle cx="69853.091689" cy="23070.235837" r="182.501467" /> 
<circle cx="69853.091689" cy="26546.888784" r="182.501467" /> 
<circle cx="71011.976004" cy="23070.235837" r="182.501467" /> 
<circle cx="71011.976004" cy="26546.888784" r="182.501467" /> 
<circle cx="72170.860320" cy="23070.235837" r="182.501467" /> 
<circle cx="72170.860320" cy="26546.888784" r="182.501467" /> 
<circle cx="73329.744636" cy="23070.235837" r="182.501467" /> 
<circle cx="73329.744636" cy="26546.888784" r="182.501467" /> 
<circle cx="74488.628951" cy="23070.235837" r="182.501467" /> 
<circle cx="74488.628951" cy="26546.888784" r="182.501467" /> 
</g>
<g style="fill:#000000; fill-opacity:0.0; 
stroke:#000000; stroke-width:45.625367; stroke-opacity:1; 
stroke-linecap:round; stroke-linejoin:round;">
<path d="M37009 7911
L37009 8367
" />
<path d="M36781 8139
L37237 8139
" />
<path d="M37237 40989
L37237 41445
" />
<path d="M37009 41217
L37465 41217
" />
<path d="M37933 11572
L37933 12028
" />
<path d="M37705 11800
L38161 11800
" />
<path d="M37933 12731
L37933 13187
" />
<path d="M37705 12959
L38161 12959
" />
<path d="M38168 7911
L38168 8367
" />
<path d="M37940 8139
L38396 8139
" />
<path d="M38396 40989
L38396 41445
" />
<path d="M38168 41217
L38624 41217
" />
<path d="M39327 7911
L39327 8367
" />
<path d="M39099 8139
L39555 8139
" />
<path d="M39555 40989
L39555 41445
" />
<path d="M39327 41217
L39783 41217
" />
<path d="M41109 19100
L41109 19557
" />
<path d="M40880 19328
L41337 19328
" />
<path d="M41109 24600
L41109 25057
" />
<path d="M40880 24829
L41337 24829
" />
<path d="M42267 19100
L42267 19557
" />
<path d="M42039 19328
L42496 19328
" />
<path d="M42267 24600
L42267 25057
" />
<path d="M42039 24829
L42496 24829
" />
<path d="M49841 44860
L49841 45317
" />
<path d="M49613 45089
L50069 45089
" />
<path d="M49841 46019
L49841 46476
" />
<path d="M49613 46247
L50069 46247
" />
<path d="M51000 44860
L51000 45317
" />
<path d="M50772 45089
L51228 45089
" />
<path d="M51000 46019
L51000 46476
" />
<path d="M50772 46247
L51228 46247
" />
<path d="M52159 44860
L52159 45317
" />
<path d="M51931 45089
L52387 45089
" />
<path d="M52159 46019
L52159 46476
" />
<path d="M51931 46247
L52387 46247
" />
<path d="M53318 44860
L53318 45317
" />
<path d="M53090 45089
L53546 45089
" />
<path d="M53318 46019
L53318 46476
" />
<path d="M53090 46247
L53546 46247
" />
<path d="M54477 44860
L54477 45317
" />
<path d="M54249 45089
L54705 45089
" />
<path d="M54477 46019
L54477 46476
" />
<path d="M54249 46247
L54705 46247
" />
<path d="M55636 44860
L55636 45317
" />
<path d="M55408 45089
L55864 45089
" />
<path d="M55636 46019
L55636 46476
" />
<path d="M55408 46247
L55864 46247
" />
<path d="M56795 44860
L56795 45317
" />
<path d="M56566 45089
L57023 45089
" />
<path d="M56795 46019
L56795 46476
" />
<path d="M56566 46247
L57023 46247
" />
<path d="M57953 44860
L57953 45317
" />
<path d="M57725 45089
L58182 45089
" />
<path d="M57953 46019
L57953 46476
" />
<path d="M57725 46247
L58182 46247
" />
<path d="M59112 44860
L59112 45317
" />
<path d="M58884 45089
L59341 45089
" />
<path d="M59112 46019
L59112 46476
" />
<path d="M58884 46247
L59341 46247
" />
<path d="M60271 44860
L60271 45317
" />
<path d="M60043 45089
L60499 45089
" />
<path d="M60271 46019
L60271 46476
" />
<path d="M60043 46247
L60499 46247
" />
<path d="M61430 44860
L61430 45317
" />
<path d="M61202 45089
L61658 45089
" />
<path d="M61430 46019
L61430 46476
" />
<path d="M61202 46247
L61658 46247
" />
<path d="M62589 44860
L62589 45317
" />
<path d="M62361 45089
L62817 45089
" />
<path d="M62589 46019
L62589 46476
" />
<path d="M62361 46247
L62817 46247
" />
<path d="M63748 44860
L63748 45317
" />
<path d="M63520 45089
L63976 45089
" />
<path d="M63748 46019
L63748 46476
" />
<path d="M63520 46247
L63976 46247
" />
<path d="M64907 44860
L64907 45317
" />
<path d="M64679 45089
L65135 45089
" />
<path d="M64907 46019
L64907 46476
" />
<path d="M64679 46247
L65135 46247
" />
<path d="M66066 44860
L66066 45317
" />
<path d="M65838 45089
L66294 45089
" />
<path d="M66066 46019
L66066 46476
" />
<path d="M65838 46247
L66294 46247
" />
<path d="M67225 44860
L67225 45317
" />
<path d="M66996 45089
L67453 45089
" />
<path d="M67225 46019
L67225 46476
" />
<path d="M66996 46247
L67453 46247
" />
<path d="M80148 26264
L80148 26720
" />
<path d="M79920 26492
L80376 26492
" />
<path d="M80148 27422
L80148 27879
" />
<path d="M79920 27651
L80376 27651
" />
<path d="M80148 28581
L80148 29038
" />
<path d="M79920 28809
L80376 28809
" />
<path d="M80148 29740
L80148 30196
" />
<path d="M79920 29968
L80376 29968
" />
</g>
<g style="fill:#000000; fill-opacity:0.0; 
stroke:#000000; stroke-width:50.187903; stroke-opacity:1; 
stroke-linecap:round; stroke-linejoin:round;">
<path style="fill:#000000; fill-opacity:0.0; 
stroke:#000000; stroke-width:50.187903; stroke-opacity:1; 
stroke-linecap:round; stroke-linejoin:round;fill:none"
d="M 38111.027630,14451.107653
38111.027630,14096.222600
37756.142578,14096.222600
37756.142578,14451.107653
Z" /> 
<path style="fill:#000000; fill-opacity:0.0; 
stroke:#000000; stroke-width:50.187903; stroke-opacity:1; 
stroke-linecap:round; stroke-linejoin:round;fill:none"
d="M 38111.027630,19086.644915
38111.027630,18731.759863
37756.142578,18731.759863
37756.142578,19086.644915
Z" /> 
<path style="fill:#000000; fill-opacity:0.0; 
stroke:#000000; stroke-width:50.187903; stroke-opacity:1; 
stroke-linecap:round; stroke-linejoin:round;fill:none"
d="M 41268.303010,21103.286126
41268.303010,20748.401073
40913.417957,20748.401073
40913.417957,21103.286126
Z" /> 
<path style="fill:#000000; fill-opacity:0.0; 
stroke:#000000; stroke-width:50.187903; stroke-opacity:1; 
stroke-linecap:round; stroke-linejoin:round;fill:none"
d="M 41268.303010,26603.424089
41268.303010,26248.539036
40913.417957,26248.539036
40913.417957,26603.424089
Z" /> 
<path style="fill:#000000; fill-opacity:0.0; 
stroke:#000000; stroke-width:50.187903; stroke-opacity:1; 
stroke-linecap:round; stroke-linejoin:round;fill:none"
d="M 42427.187326,21103.286126
42427.187326,20748.401073
42072.302273,20748.401073
42072.302273,21103.286126
Z" /> 
<path style="fill:#000000; fill-opacity:0.0; 
stroke:#000000; stroke-width:50.187903; stroke-opacity:1; 
stroke-linecap:round; stroke-linejoin:round;fill:none"
d="M 42427.187326,26603.424089
42427.187326,26248.539036
42072.302273,26248.539036
42072.302273,26603.424089
Z" /> 
<path style="fill:#000000; fill-opacity:0.0; 
stroke:#000000; stroke-width:50.187903; stroke-opacity:1; 
stroke-linecap:round; stroke-linejoin:round;fill:none"
d="M 43586.071641,21103.286126
43586.071641,20748.401073
43231.186589,20748.401073
43231.186589,21103.286126
Z" /> 
<path style="fill:#000000; fill-opacity:0.0; 
stroke:#000000; stroke-width:50.187903; stroke-opacity:1; 
stroke-linecap:round; stroke-linejoin:round;fill:none"
d="M 43586.071641,26603.424089
43586.071641,26248.539036
43231.186589,26248.539036
43231.186589,26603.424089
Z" /> 
<path style="fill:#000000; fill-opacity:0.0; 
stroke:#000000; stroke-width:50.187903; stroke-opacity:1; 
stroke-linecap:round; stroke-linejoin:round;fill:none"
d="M 78261.350378,22357.983712
78261.350378,22003.098659
77906.465326,22003.098659
77906.465326,22357.983712
Z" /> 
<path style="fill:#000000; fill-opacity:0.0; 
stroke:#000000; stroke-width:50.187903; stroke-opacity:1; 
stroke-linecap:round; stroke-linejoin:round;fill:none"
d="M 78261.350378,25323.632551
78261.350378,24968.747499
77906.465326,24968.747499
77906.465326,25323.632551
Z" /> 
<path style="fill:#000000; fill-opacity:0.0; 
stroke:#000000; stroke-width:50.187903; stroke-opacity:1; 
stroke-linecap:round; stroke-linejoin:round;fill:none"
d="M 78272.756720,15514.178698
78272.756720,15159.293645
77917.871667,15159.293645
77917.871667,15514.178698
Z" /> 
<path style="fill:#000000; fill-opacity:0.0; 
stroke:#000000; stroke-width:50.187903; stroke-opacity:1; 
stroke-linecap:round; stroke-linejoin:round;fill:none"
d="M 78272.756720,18479.827537
78272.756720,18124.942485
77917.871667,18124.942485
77917.871667,18479.827537
Z" /> 
<path style="fill:#000000; fill-opacity:0.0; 
stroke:#000000; stroke-width:50.187903; stroke-opacity:1; 
stroke-linecap:round; stroke-linejoin:round;fill:none"
d="M 80314.491883,22357.983712
80314.491883,22003.098659
79959.606830,22003.098659
79959.606830,22357.983712
Z" /> 
<path style="fill:#000000; fill-opacity:0.0; 
stroke:#000000; stroke-width:50.187903; stroke-opacity:1; 
stroke-linecap:round; stroke-linejoin:round;fill:none"
d="M 80314.491883,25323.632551
80314.491883,24968.747499
79959.606830,24968.747499
79959.606830,25323.632551
Z" /> 
<path style="fill:#000000; fill-opacity:0.0; 
stroke:#000000; stroke-width:50.187903; stroke-opacity:1; 
stroke-linecap:round; stroke-linejoin:round;fill:none"
d="M 80325.898224,15514.178698
80325.898224,15159.293645
79971.013171,15159.293645
79971.013171,15514.178698
Z" /> 
<path style="fill:#000000; fill-opacity:0.0; 
stroke:#000000; stroke-width:50.187903; stroke-opacity:1; 
stroke-linecap:round; stroke-linejoin:round;fill:none"
d="M 80325.898224,18479.827537
80325.898224,18124.942485
79971.013171,18124.942485
79971.013171,18479.827537
Z" /> 
</g>
<g style="fill:#000000; fill-opacity:0.0; 
stroke:#000000; stroke-width:73.000587; stroke-opacity:1; 
stroke-linecap:round; stroke-linejoin:round;">
<path style="fill:#000000; fill-opacity:0.0; 
stroke:#000000; stroke-width:73.000587; stroke-opacity:1; 
stroke-linecap:round; stroke-linejoin:round;fill:none"
d="M 66449.439328,28590.905215
66814.442262,28225.902281
66449.439328,27860.899347
66084.436394,28225.902281
Z" /> 
</g>
<g style="fill:#000000; fill-opacity:0.0; 
stroke:#000000; stroke-width:196.189077; stroke-opacity:1; 
stroke-linecap:round; stroke-linejoin:round;">
<path d="M36952 3291
L38914 5253
" />
<path d="M38914 3291
L36952 5253
" />
<circle cx="37933.585104" cy="4272.584733" r="980.945385" /> 
<path d="M36952 44354
L38914 46316
" />
<path d="M38914 44354
L36952 46316
" />
<circle cx="37933.585104" cy="45335.414816" r="980.945385" /> 
<path d="M78015 3291
L79977 5253
" />
<path d="M79977 3291
L78015 5253
" />
<circle cx="78996.415187" cy="4272.584733" r="980.945385" /> 
<path d="M78015 44354
L79977 46316
" />
<path d="M79977 44354
L78015 46316
" />
<circle cx="78996.415187" cy="45335.414816" r="980.945385" /> 
</g>
<g style="fill:#000000; fill-opacity:0.0; 
stroke:#000000; stroke-width:91.250734; stroke-opacity:1; 
stroke-linecap:round; stroke-linejoin:round;">
</g>
<g style="fill:#000000; fill-opacity:0.0; 
stroke:#000000; stroke-width:78.740258; stroke-opacity:1; 
stroke-linecap:round; stroke-linejoin:round;">
<text x="36416.905750" y="48899.338596"
textLength="5842.716942" font-size="1049.868889" lengthAdjust="spacingAndGlyphs"
text-anchor="start" opacity="0">Drill Map:</text>
<g class="stroked-text"><desc>Drill Map:</desc>
<path d="M36643 48861
L36643 48074
L36831 48074
L36943 48111
L37018 48186
L37056 48261
L37093 48411
L37093 48524
L37056 48674
L37018 48749
L36943 48824
L36831 48861
L36643 48861
" />
<path d="M37431 48861
L37431 48336
" />
<path d="M37431 48486
L37468 48411
L37506 48374
L37581 48336
L37656 48336
" />
<path d="M37918 48861
L37918 48336
" />
<path d="M37918 48074
L37881 48111
L37918 48149
L37956 48111
L37918 48074
L37918 48149
" />
<path d="M38406 48861
L38331 48824
L38293 48749
L38293 48074
" />
<path d="M38818 48861
L38743 48824
L38705 48749
L38705 48074
" />
<path d="M39718 48861
L39718 48074
L39980 48636
L40243 48074
L40243 48861
" />
<path d="M40955 48861
L40955 48449
L40918 48374
L40843 48336
L40693 48336
L40618 48374
" />
<path d="M40955 48824
L40880 48861
L40693 48861
L40618 48824
L40580 48749
L40580 48674
L40618 48599
L40693 48561
L40880 48561
L40955 48524
" />
<path d="M41330 48336
L41330 49124
" />
<path d="M41330 48374
L41405 48336
L41555 48336
L41630 48374
L41668 48411
L41705 48486
L41705 48711
L41668 48786
L41630 48824
L41555 48861
L41405 48861
L41330 48824
" />
<path d="M42043 48786
L42080 48824
L42043 48861
L42005 48824
L42043 48786
L42043 48861
" />
<path d="M42043 48374
L42080 48411
L42043 48449
L42005 48411
L42043 48374
L42043 48449
" />
</g></g>
<g style="fill:#000000; fill-opacity:0.0; 
stroke:#000000; stroke-width:31.937757; stroke-opacity:1; 
stroke-linecap:round; stroke-linejoin:round;">
<path d="M35310 49999
L35629 50318
" />
<path d="M35629 49999
L35310 50318
" />
</g>
<g style="fill:#000000; fill-opacity:0.0; 
stroke:#000000; stroke-width:91.250734; stroke-opacity:1; 
stroke-linecap:round; stroke-linejoin:round;">
</g>
<g style="fill:#000000; fill-opacity:0.0; 
stroke:#000000; stroke-width:78.740258; stroke-opacity:1; 
stroke-linecap:round; stroke-linejoin:round;">
<text x="36416.905750" y="50552.882188"
textLength="19951.258391" font-size="1049.868889" lengthAdjust="spacingAndGlyphs"
text-anchor="start" opacity="0">0.700mm / 0.0276" (128 holes)</text>
<g class="stroked-text"><desc>0.700mm / 0.0276" (128 holes)</desc>
<path d="M36793 49727
L36868 49727
L36943 49765
L36981 49802
L37018 49877
L37056 50027
L37056 50215
L37018 50365
L36981 50440
L36943 50477
L36868 50515
L36793 50515
L36718 50477
L36681 50440
L36643 50365
L36606 50215
L36606 50027
L36643 49877
L36681 49802
L36718 49765
L36793 49727
" />
<path d="M37393 50440
L37431 50477
L37393 50515
L37356 50477
L37393 50440
L37393 50515
" />
<path d="M37693 49727
L38218 49727
L37881 50515
" />
<path d="M38668 49727
L38743 49727
L38818 49765
L38855 49802
L38893 49877
L38930 50027
L38930 50215
L38893 50365
L38855 50440
L38818 50477
L38743 50515
L38668 50515
L38593 50477
L38556 50440
L38518 50365
L38481 50215
L38481 50027
L38518 49877
L38556 49802
L38593 49765
L38668 49727
" />
<path d="M39418 49727
L39493 49727
L39568 49765
L39605 49802
L39643 49877
L39680 50027
L39680 50215
L39643 50365
L39605 50440
L39568 50477
L39493 50515
L39418 50515
L39343 50477
L39305 50440
L39268 50365
L39230 50215
L39230 50027
L39268 49877
L39305 49802
L39343 49765
L39418 49727
" />
<path d="M40018 50515
L40018 49990
" />
<path d="M40018 50065
L40055 50027
L40130 49990
L40243 49990
L40318 50027
L40355 50102
L40355 50515
" />
<path d="M40355 50102
L40393 50027
L40468 49990
L40580 49990
L40655 50027
L40693 50102
L40693 50515
" />
<path d="M41068 50515
L41068 49990
" />
<path d="M41068 50065
L41105 50027
L41180 49990
L41293 49990
L41368 50027
L41405 50102
L41405 50515
" />
<path d="M41405 50102
L41443 50027
L41518 49990
L41630 49990
L41705 50027
L41743 50102
L41743 50515
" />
<path d="M43280 49690
L42605 50702
" />
<path d="M44292 49727
L44367 49727
L44442 49765
L44480 49802
L44517 49877
L44555 50027
L44555 50215
L44517 50365
L44480 50440
L44442 50477
L44367 50515
L44292 50515
L44217 50477
L44180 50440
L44142 50365
L44105 50215
L44105 50027
L44142 49877
L44180 49802
L44217 49765
L44292 49727
" />
<path d="M44892 50440
L44930 50477
L44892 50515
L44855 50477
L44892 50440
L44892 50515
" />
<path d="M45417 49727
L45492 49727
L45567 49765
L45605 49802
L45642 49877
L45680 50027
L45680 50215
L45642 50365
L45605 50440
L45567 50477
L45492 50515
L45417 50515
L45342 50477
L45305 50440
L45267 50365
L45230 50215
L45230 50027
L45267 49877
L45305 49802
L45342 49765
L45417 49727
" />
<path d="M45980 49802
L46017 49765
L46092 49727
L46280 49727
L46355 49765
L46392 49802
L46430 49877
L46430 49952
L46392 50065
L45942 50515
L46430 50515
" />
<path d="M46692 49727
L47217 49727
L46879 50515
" />
<path d="M47854 49727
L47704 49727
L47629 49765
L47592 49802
L47517 49915
L47479 50065
L47479 50365
L47517 50440
L47554 50477
L47629 50515
L47779 50515
L47854 50477
L47892 50440
L47929 50365
L47929 50177
L47892 50102
L47854 50065
L47779 50027
L47629 50027
L47554 50065
L47517 50102
L47479 50177
" />
<path d="M48229 49727
L48229 49877
" />
<path d="M48529 49727
L48529 49877
" />
<path d="M49692 50815
L49654 50777
L49579 50665
L49542 50590
L49504 50477
L49467 50290
L49467 50140
L49504 49952
L49542 49840
L49579 49765
L49654 49652
L49692 49615
" />
<path d="M50404 50515
L49954 50515
" />
<path d="M50179 50515
L50179 49727
L50104 49840
L50029 49915
L49954 49952
" />
<path d="M50704 49802
L50741 49765
L50816 49727
L51004 49727
L51079 49765
L51116 49802
L51154 49877
L51154 49952
L51116 50065
L50667 50515
L51154 50515
" />
<path d="M51604 50065
L51529 50027
L51491 49990
L51454 49915
L51454 49877
L51491 49802
L51529 49765
L51604 49727
L51754 49727
L51829 49765
L51866 49802
L51904 49877
L51904 49915
L51866 49990
L51829 50027
L51754 50065
L51604 50065
L51529 50102
L51491 50140
L51454 50215
L51454 50365
L51491 50440
L51529 50477
L51604 50515
L51754 50515
L51829 50477
L51866 50440
L51904 50365
L51904 50215
L51866 50140
L51829 50102
L51754 50065
" />
<path d="M52841 50515
L52841 49727
" />
<path d="M53179 50515
L53179 50102
L53141 50027
L53066 49990
L52954 49990
L52879 50027
L52841 50065
" />
<path d="M53666 50515
L53591 50477
L53554 50440
L53516 50365
L53516 50140
L53554 50065
L53591 50027
L53666 49990
L53779 49990
L53854 50027
L53891 50065
L53929 50140
L53929 50365
L53891 50440
L53854 50477
L53779 50515
L53666 50515
" />
<path d="M54379 50515
L54304 50477
L54266 50402
L54266 49727
" />
<path d="M54978 50477
L54903 50515
L54753 50515
L54678 50477
L54641 50402
L54641 50102
L54678 50027
L54753 49990
L54903 49990
L54978 50027
L55016 50102
L55016 50177
L54641 50252
" />
<path d="M55316 50477
L55391 50515
L55541 50515
L55616 50477
L55653 50402
L55653 50365
L55616 50290
L55541 50252
L55428 50252
L55353 50215
L55316 50140
L55316 50102
L55353 50027
L55428 49990
L55541 49990
L55616 50027
" />
<path d="M55916 50815
L55953 50777
L56028 50665
L56066 50590
L56103 50477
L56141 50290
L56141 50140
L56103 49952
L56066 49840
L56028 49765
L55953 49652
L55916 49615
" />
</g></g>
<g style="fill:#000000; fill-opacity:0.0; 
stroke:#000000; stroke-width:36.500293; stroke-opacity:1; 
stroke-linecap:round; stroke-linejoin:round;">
<circle cx="35447.002616" cy="51198.551390" r="182.501467" /> 
</g>
<g style="fill:#000000; fill-opacity:0.0; 
stroke:#000000; stroke-width:91.250734; stroke-opacity:1; 
stroke-linecap:round; stroke-linejoin:round;">
</g>
<g style="fill:#000000; fill-opacity:0.0; 
stroke:#000000; stroke-width:78.740258; stroke-opacity:1; 
stroke-linecap:round; stroke-linejoin:round;">
<text x="36416.905750" y="51592.252224"
textLength="19201.352106" font-size="1049.868889" lengthAdjust="spacingAndGlyphs"
text-anchor="start" opacity="0">0.800mm / 0.0315" (42 holes)</text>
<g class="stroked-text"><desc>0.800mm / 0.0315" (42 holes)</desc>
<path d="M36793 50767
L36868 50767
L36943 50804
L36981 50842
L37018 50917
L37056 51067
L37056 51254
L37018 51404
L36981 51479
L36943 51517
L36868 51554
L36793 51554
L36718 51517
L36681 51479
L36643 51404
L36606 51254
L36606 51067
L36643 50917
L36681 50842
L36718 50804
L36793 50767
" />
<path d="M37393 51479
L37431 51517
L37393 51554
L37356 51517
L37393 51479
L37393 51554
" />
<path d="M37881 51104
L37806 51067
L37768 51029
L37731 50954
L37731 50917
L37768 50842
L37806 50804
L37881 50767
L38031 50767
L38106 50804
L38143 50842
L38181 50917
L38181 50954
L38143 51029
L38106 51067
L38031 51104
L37881 51104
L37806 51142
L37768 51179
L37731 51254
L37731 51404
L37768 51479
L37806 51517
L37881 51554
L38031 51554
L38106 51517
L38143 51479
L38181 51404
L38181 51254
L38143 51179
L38106 51142
L38031 51104
" />
<path d="M38668 50767
L38743 50767
L38818 50804
L38855 50842
L38893 50917
L38930 51067
L38930 51254
L38893 51404
L38855 51479
L38818 51517
L38743 51554
L38668 51554
L38593 51517
L38556 51479
L38518 51404
L38481 51254
L38481 51067
L38518 50917
L38556 50842
L38593 50804
L38668 50767
" />
<path d="M39418 50767
L39493 50767
L39568 50804
L39605 50842
L39643 50917
L39680 51067
L39680 51254
L39643 51404
L39605 51479
L39568 51517
L39493 51554
L39418 51554
L39343 51517
L39305 51479
L39268 51404
L39230 51254
L39230 51067
L39268 50917
L39305 50842
L39343 50804
L39418 50767
" />
<path d="M40018 51554
L40018 51029
" />
<path d="M40018 51104
L40055 51067
L40130 51029
L40243 51029
L40318 51067
L40355 51142
L40355 51554
" />
<path d="M40355 51142
L40393 51067
L40468 51029
L40580 51029
L40655 51067
L40693 51142
L40693 51554
" />
<path d="M41068 51554
L41068 51029
" />
<path d="M41068 51104
L41105 51067
L41180 51029
L41293 51029
L41368 51067
L41405 51142
L41405 51554
" />
<path d="M41405 51142
L41443 51067
L41518 51029
L41630 51029
L41705 51067
L41743 51142
L41743 51554
" />
<path d="M43280 50729
L42605 51742
" />
<path d="M44292 50767
L44367 50767
L44442 50804
L44480 50842
L44517 50917
L44555 51067
L44555 51254
L44517 51404
L44480 51479
L44442 51517
L44367 51554
L44292 51554
L44217 51517
L44180 51479
L44142 51404
L44105 51254
L44105 51067
L44142 50917
L44180 50842
L44217 50804
L44292 50767
" />
<path d="M44892 51479
L44930 51517
L44892 51554
L44855 51517
L44892 51479
L44892 51554
" />
<path d="M45417 50767
L45492 50767
L45567 50804
L45605 50842
L45642 50917
L45680 51067
L45680 51254
L45642 51404
L45605 51479
L45567 51517
L45492 51554
L45417 51554
L45342 51517
L45305 51479
L45267 51404
L45230 51254
L45230 51067
L45267 50917
L45305 50842
L45342 50804
L45417 50767
" />
<path d="M45942 50767
L46430 50767
L46167 51067
L46280 51067
L46355 51104
L46392 51142
L46430 51217
L46430 51404
L46392 51479
L46355 51517
L46280 51554
L46055 51554
L45980 51517
L45942 51479
" />
<path d="M47179 51554
L46729 51554
" />
<path d="M46954 51554
L46954 50767
L46879 50879
L46804 50954
L46729 50992
" />
<path d="M47892 50767
L47517 50767
L47479 51142
L47517 51104
L47592 51067
L47779 51067
L47854 51104
L47892 51142
L47929 51217
L47929 51404
L47892 51479
L47854 51517
L47779 51554
L47592 51554
L47517 51517
L47479 51479
" />
<path d="M48229 50767
L48229 50917
" />
<path d="M48529 50767
L48529 50917
" />
<path d="M49692 51854
L49654 51817
L49579 51704
L49542 51629
L49504 51517
L49467 51329
L49467 51179
L49504 50992
L49542 50879
L49579 50804
L49654 50692
L49692 50654
" />
<path d="M50329 51029
L50329 51554
" />
<path d="M50142 50729
L49954 51292
L50442 51292
" />
<path d="M50704 50842
L50741 50804
L50816 50767
L51004 50767
L51079 50804
L51116 50842
L51154 50917
L51154 50992
L51116 51104
L50667 51554
L51154 51554
" />
<path d="M52091 51554
L52091 50767
" />
<path d="M52429 51554
L52429 51142
L52391 51067
L52316 51029
L52204 51029
L52129 51067
L52091 51104
" />
<path d="M52916 51554
L52841 51517
L52804 51479
L52766 51404
L52766 51179
L52804 51104
L52841 51067
L52916 51029
L53029 51029
L53104 51067
L53141 51104
L53179 51179
L53179 51404
L53141 51479
L53104 51517
L53029 51554
L52916 51554
" />
<path d="M53629 51554
L53554 51517
L53516 51442
L53516 50767
" />
<path d="M54229 51517
L54154 51554
L54004 51554
L53929 51517
L53891 51442
L53891 51142
L53929 51067
L54004 51029
L54154 51029
L54229 51067
L54266 51142
L54266 51217
L53891 51292
" />
<path d="M54566 51517
L54641 51554
L54791 51554
L54866 51517
L54903 51442
L54903 51404
L54866 51329
L54791 51292
L54678 51292
L54604 51254
L54566 51179
L54566 51142
L54604 51067
L54678 51029
L54791 51029
L54866 51067
" />
<path d="M55166 51854
L55203 51817
L55278 51704
L55316 51629
L55353 51517
L55391 51329
L55391 51179
L55353 50992
L55316 50879
L55278 50804
L55203 50692
L55166 50654
" />
</g></g>
<g style="fill:#000000; fill-opacity:0.0; 
stroke:#000000; stroke-width:45.625367; stroke-opacity:1; 
stroke-linecap:round; stroke-linejoin:round;">
<path d="M35401 52009
L35401 52466
" />
<path d="M35173 52237
L35629 52237
" />
</g>
<g style="fill:#000000; fill-opacity:0.0; 
stroke:#000000; stroke-width:91.250734; stroke-opacity:1; 
stroke-linecap:round; stroke-linejoin:round;">
</g>
<g style="fill:#000000; fill-opacity:0.0; 
stroke:#000000; stroke-width:78.740258; stroke-opacity:1; 
stroke-linecap:round; stroke-linejoin:round;">
<text x="36416.905750" y="52631.622260"
textLength="19201.352106" font-size="1049.868889" lengthAdjust="spacingAndGlyphs"
text-anchor="start" opacity="0">1.000mm / 0.0394" (48 holes)</text>
<g class="stroked-text"><desc>1.000mm / 0.0394" (48 holes)</desc>
<path d="M37056 52594
L36606 52594
" />
<path d="M36831 52594
L36831 51806
L36756 51919
L36681 51994
L36606 52031
" />
<path d="M37393 52519
L37431 52556
L37393 52594
L37356 52556
L37393 52519
L37393 52594
" />
<path d="M37918 51806
L37993 51806
L38068 51844
L38106 51881
L38143 51956
L38181 52106
L38181 52294
L38143 52444
L38106 52519
L38068 52556
L37993 52594
L37918 52594
L37843 52556
L37806 52519
L37768 52444
L37731 52294
L37731 52106
L37768 51956
L37806 51881
L37843 51844
L37918 51806
" />
<path d="M38668 51806
L38743 51806
L38818 51844
L38855 51881
L38893 51956
L38930 52106
L38930 52294
L38893 52444
L38855 52519
L38818 52556
L38743 52594
L38668 52594
L38593 52556
L38556 52519
L38518 52444
L38481 52294
L38481 52106
L38518 51956
L38556 51881
L38593 51844
L38668 51806
" />
<path d="M39418 51806
L39493 51806
L39568 51844
L39605 51881
L39643 51956
L39680 52106
L39680 52294
L39643 52444
L39605 52519
L39568 52556
L39493 52594
L39418 52594
L39343 52556
L39305 52519
L39268 52444
L39230 52294
L39230 52106
L39268 51956
L39305 51881
L39343 51844
L39418 51806
" />
<path d="M40018 52594
L40018 52069
" />
<path d="M40018 52144
L40055 52106
L40130 52069
L40243 52069
L40318 52106
L40355 52181
L40355 52594
" />
<path d="M40355 52181
L40393 52106
L40468 52069
L40580 52069
L40655 52106
L40693 52181
L40693 52594
" />
<path d="M41068 52594
L41068 52069
" />
<path d="M41068 52144
L41105 52106
L41180 52069
L41293 52069
L41368 52106
L41405 52181
L41405 52594
" />
<path d="M41405 52181
L41443 52106
L41518 52069
L41630 52069
L41705 52106
L41743 52181
L41743 52594
" />
<path d="M43280 51769
L42605 52781
" />
<path d="M44292 51806
L44367 51806
L44442 51844
L44480 51881
L44517 51956
L44555 52106
L44555 52294
L44517 52444
L44480 52519
L44442 52556
L44367 52594
L44292 52594
L44217 52556
L44180 52519
L44142 52444
L44105 52294
L44105 52106
L44142 51956
L44180 51881
L44217 51844
L44292 51806
" />
<path d="M44892 52519
L44930 52556
L44892 52594
L44855 52556
L44892 52519
L44892 52594
" />
<path d="M45417 51806
L45492 51806
L45567 51844
L45605 51881
L45642 51956
L45680 52106
L45680 52294
L45642 52444
L45605 52519
L45567 52556
L45492 52594
L45417 52594
L45342 52556
L45305 52519
L45267 52444
L45230 52294
L45230 52106
L45267 51956
L45305 51881
L45342 51844
L45417 51806
" />
<path d="M45942 51806
L46430 51806
L46167 52106
L46280 52106
L46355 52144
L46392 52181
L46430 52256
L46430 52444
L46392 52519
L46355 52556
L46280 52594
L46055 52594
L45980 52556
L45942 52519
" />
<path d="M46804 52594
L46954 52594
L47029 52556
L47067 52519
L47142 52406
L47179 52256
L47179 51956
L47142 51881
L47104 51844
L47029 51806
L46879 51806
L46804 51844
L46767 51881
L46729 51956
L46729 52144
L46767 52219
L46804 52256
L46879 52294
L47029 52294
L47104 52256
L47142 52219
L47179 52144
" />
<path d="M47854 52069
L47854 52594
" />
<path d="M47667 51769
L47479 52331
L47967 52331
" />
<path d="M48229 51806
L48229 51956
" />
<path d="M48529 51806
L48529 51956
" />
<path d="M49692 52894
L49654 52856
L49579 52744
L49542 52669
L49504 52556
L49467 52369
L49467 52219
L49504 52031
L49542 51919
L49579 51844
L49654 51731
L49692 51694
" />
<path d="M50329 52069
L50329 52594
" />
<path d="M50142 51769
L49954 52331
L50442 52331
" />
<path d="M50854 52144
L50779 52106
L50741 52069
L50704 51994
L50704 51956
L50741 51881
L50779 51844
L50854 51806
L51004 51806
L51079 51844
L51116 51881
L51154 51956
L51154 51994
L51116 52069
L51079 52106
L51004 52144
L50854 52144
L50779 52181
L50741 52219
L50704 52294
L50704 52444
L50741 52519
L50779 52556
L50854 52594
L51004 52594
L51079 52556
L51116 52519
L51154 52444
L51154 52294
L51116 52219
L51079 52181
L51004 52144
" />
<path d="M52091 52594
L52091 51806
" />
<path d="M52429 52594
L52429 52181
L52391 52106
L52316 52069
L52204 52069
L52129 52106
L52091 52144
" />
<path d="M52916 52594
L52841 52556
L52804 52519
L52766 52444
L52766 52219
L52804 52144
L52841 52106
L52916 52069
L53029 52069
L53104 52106
L53141 52144
L53179 52219
L53179 52444
L53141 52519
L53104 52556
L53029 52594
L52916 52594
" />
<path d="M53629 52594
L53554 52556
L53516 52481
L53516 51806
" />
<path d="M54229 52556
L54154 52594
L54004 52594
L53929 52556
L53891 52481
L53891 52181
L53929 52106
L54004 52069
L54154 52069
L54229 52106
L54266 52181
L54266 52256
L53891 52331
" />
<path d="M54566 52556
L54641 52594
L54791 52594
L54866 52556
L54903 52481
L54903 52444
L54866 52369
L54791 52331
L54678 52331
L54604 52294
L54566 52219
L54566 52181
L54604 52106
L54678 52069
L54791 52069
L54866 52106
" />
<path d="M55166 52894
L55203 52856
L55278 52744
L55316 52669
L55353 52556
L55391 52369
L55391 52219
L55353 52031
L55316 51919
L55278 51844
L55203 51731
L55166 51694
" />
</g></g>
<g style="fill:#000000; fill-opacity:0.0; 
stroke:#000000; stroke-width:50.187903; stroke-opacity:1; 
stroke-linecap:round; stroke-linejoin:round;">
<path style="fill:#000000; fill-opacity:0.0; 
stroke:#000000; stroke-width:50.187903; stroke-opacity:1; 
stroke-linecap:round; stroke-linejoin:round;fill:none"
d="M 35556.007092,53454.733989
35556.007092,53099.848937
35201.122039,53099.848937
35201.122039,53454.733989
Z" /> 
</g>
<g style="fill:#000000; fill-opacity:0.0; 
stroke:#000000; stroke-width:91.250734; stroke-opacity:1; 
stroke-linecap:round; stroke-linejoin:round;">
</g>
<g style="fill:#000000; fill-opacity:0.0; 
stroke:#000000; stroke-width:78.740258; stroke-opacity:1; 
stroke-linecap:round; stroke-linejoin:round;">
<text x="36416.905750" y="53670.992296"
textLength="19201.352106" font-size="1049.868889" lengthAdjust="spacingAndGlyphs"
text-anchor="start" opacity="0">1.100mm / 0.0433" (16 holes)</text>
<g class="stroked-text"><desc>1.100mm / 0.0433" (16 holes)</desc>
<path d="M37056 53633
L36606 53633
" />
<path d="M36831 53633
L36831 52846
L36756 52958
L36681 53033
L36606 53071
" />
<path d="M37393 53558
L37431 53596
L37393 53633
L37356 53596
L37393 53558
L37393 53633
" />
<path d="M38181 53633
L37731 53633
" />
<path d="M37956 53633
L37956 52846
L37881 52958
L37806 53033
L37731 53071
" />
<path d="M38668 52846
L38743 52846
L38818 52883
L38855 52921
L38893 52996
L38930 53146
L38930 53333
L38893 53483
L38855 53558
L38818 53596
L38743 53633
L38668 53633
L38593 53596
L38556 53558
L38518 53483
L38481 53333
L38481 53146
L38518 52996
L38556 52921
L38593 52883
L38668 52846
" />
<path d="M39418 52846
L39493 52846
L39568 52883
L39605 52921
L39643 52996
L39680 53146
L39680 53333
L39643 53483
L39605 53558
L39568 53596
L39493 53633
L39418 53633
L39343 53596
L39305 53558
L39268 53483
L39230 53333
L39230 53146
L39268 52996
L39305 52921
L39343 52883
L39418 52846
" />
<path d="M40018 53633
L40018 53108
" />
<path d="M40018 53183
L40055 53146
L40130 53108
L40243 53108
L40318 53146
L40355 53221
L40355 53633
" />
<path d="M40355 53221
L40393 53146
L40468 53108
L40580 53108
L40655 53146
L40693 53221
L40693 53633
" />
<path d="M41068 53633
L41068 53108
" />
<path d="M41068 53183
L41105 53146
L41180 53108
L41293 53108
L41368 53146
L41405 53221
L41405 53633
" />
<path d="M41405 53221
L41443 53146
L41518 53108
L41630 53108
L41705 53146
L41743 53221
L41743 53633
" />
<path d="M43280 52808
L42605 53820
" />
<path d="M44292 52846
L44367 52846
L44442 52883
L44480 52921
L44517 52996
L44555 53146
L44555 53333
L44517 53483
L44480 53558
L44442 53596
L44367 53633
L44292 53633
L44217 53596
L44180 53558
L44142 53483
L44105 53333
L44105 53146
L44142 52996
L44180 52921
L44217 52883
L44292 52846
" />
<path d="M44892 53558
L44930 53596
L44892 53633
L44855 53596
L44892 53558
L44892 53633
" />
<path d="M45417 52846
L45492 52846
L45567 52883
L45605 52921
L45642 52996
L45680 53146
L45680 53333
L45642 53483
L45605 53558
L45567 53596
L45492 53633
L45417 53633
L45342 53596
L45305 53558
L45267 53483
L45230 53333
L45230 53146
L45267 52996
L45305 52921
L45342 52883
L45417 52846
" />
<path d="M46355 53108
L46355 53633
" />
<path d="M46167 52808
L45980 53371
L46467 53371
" />
<path d="M46692 52846
L47179 52846
L46917 53146
L47029 53146
L47104 53183
L47142 53221
L47179 53296
L47179 53483
L47142 53558
L47104 53596
L47029 53633
L46804 53633
L46729 53596
L46692 53558
" />
<path d="M47442 52846
L47929 52846
L47667 53146
L47779 53146
L47854 53183
L47892 53221
L47929 53296
L47929 53483
L47892 53558
L47854 53596
L47779 53633
L47554 53633
L47479 53596
L47442 53558
" />
<path d="M48229 52846
L48229 52996
" />
<path d="M48529 52846
L48529 52996
" />
<path d="M49692 53933
L49654 53895
L49579 53783
L49542 53708
L49504 53596
L49467 53408
L49467 53258
L49504 53071
L49542 52958
L49579 52883
L49654 52771
L49692 52733
" />
<path d="M50404 53633
L49954 53633
" />
<path d="M50179 53633
L50179 52846
L50104 52958
L50029 53033
L49954 53071
" />
<path d="M51079 52846
L50929 52846
L50854 52883
L50816 52921
L50741 53033
L50704 53183
L50704 53483
L50741 53558
L50779 53596
L50854 53633
L51004 53633
L51079 53596
L51116 53558
L51154 53483
L51154 53296
L51116 53221
L51079 53183
L51004 53146
L50854 53146
L50779 53183
L50741 53221
L50704 53296
" />
<path d="M52091 53633
L52091 52846
" />
<path d="M52429 53633
L52429 53221
L52391 53146
L52316 53108
L52204 53108
L52129 53146
L52091 53183
" />
<path d="M52916 53633
L52841 53596
L52804 53558
L52766 53483
L52766 53258
L52804 53183
L52841 53146
L52916 53108
L53029 53108
L53104 53146
L53141 53183
L53179 53258
L53179 53483
L53141 53558
L53104 53596
L53029 53633
L52916 53633
" />
<path d="M53629 53633
L53554 53596
L53516 53521
L53516 52846
" />
<path d="M54229 53596
L54154 53633
L54004 53633
L53929 53596
L53891 53521
L53891 53221
L53929 53146
L54004 53108
L54154 53108
L54229 53146
L54266 53221
L54266 53296
L53891 53371
" />
<path d="M54566 53596
L54641 53633
L54791 53633
L54866 53596
L54903 53521
L54903 53483
L54866 53408
L54791 53371
L54678 53371
L54604 53333
L54566 53258
L54566 53221
L54604 53146
L54678 53108
L54791 53108
L54866 53146
" />
<path d="M55166 53933
L55203 53895
L55278 53783
L55316 53708
L55353 53596
L55391 53408
L55391 53258
L55353 53071
L55316 52958
L55278 52883
L55203 52771
L55166 52733
" />
</g></g>
<g style="fill:#000000; fill-opacity:0.0; 
stroke:#000000; stroke-width:73.000587; stroke-opacity:1; 
stroke-linecap:round; stroke-linejoin:round;">
<path style="fill:#000000; fill-opacity:0.0; 
stroke:#000000; stroke-width:73.000587; stroke-opacity:1; 
stroke-linecap:round; stroke-linejoin:round;fill:none"
d="M 35264.501148,54681.664433
35629.504083,54316.661499
35264.501148,53951.658565
34899.498214,54316.661499
Z" /> 
</g>
<g style="fill:#000000; fill-opacity:0.0; 
stroke:#000000; stroke-width:91.250734; stroke-opacity:1; 
stroke-linecap:round; stroke-linejoin:round;">
</g>
<g style="fill:#000000; fill-opacity:0.0; 
stroke:#000000; stroke-width:78.740258; stroke-opacity:1; 
stroke-linecap:round; stroke-linejoin:round;">
<text x="36416.905750" y="54710.362333"
textLength="17814.025229" font-size="1049.868889" lengthAdjust="spacingAndGlyphs"
text-anchor="start" opacity="0">1.600mm / 0.0630" (1 hole)</text>
<g class="stroked-text"><desc>1.600mm / 0.0630" (1 hole)</desc>
<path d="M37056 54672
L36606 54672
" />
<path d="M36831 54672
L36831 53885
L36756 53997
L36681 54072
L36606 54110
" />
<path d="M37393 54597
L37431 54635
L37393 54672
L37356 54635
L37393 54597
L37393 54672
" />
<path d="M38106 53885
L37956 53885
L37881 53922
L37843 53960
L37768 54072
L37731 54222
L37731 54522
L37768 54597
L37806 54635
L37881 54672
L38031 54672
L38106 54635
L38143 54597
L38181 54522
L38181 54335
L38143 54260
L38106 54222
L38031 54185
L37881 54185
L37806 54222
L37768 54260
L37731 54335
" />
<path d="M38668 53885
L38743 53885
L38818 53922
L38855 53960
L38893 54035
L38930 54185
L38930 54372
L38893 54522
L38855 54597
L38818 54635
L38743 54672
L38668 54672
L38593 54635
L38556 54597
L38518 54522
L38481 54372
L38481 54185
L38518 54035
L38556 53960
L38593 53922
L38668 53885
" />
<path d="M39418 53885
L39493 53885
L39568 53922
L39605 53960
L39643 54035
L39680 54185
L39680 54372
L39643 54522
L39605 54597
L39568 54635
L39493 54672
L39418 54672
L39343 54635
L39305 54597
L39268 54522
L39230 54372
L39230 54185
L39268 54035
L39305 53960
L39343 53922
L39418 53885
" />
<path d="M40018 54672
L40018 54147
" />
<path d="M40018 54222
L40055 54185
L40130 54147
L40243 54147
L40318 54185
L40355 54260
L40355 54672
" />
<path d="M40355 54260
L40393 54185
L40468 54147
L40580 54147
L40655 54185
L40693 54260
L40693 54672
" />
<path d="M41068 54672
L41068 54147
" />
<path d="M41068 54222
L41105 54185
L41180 54147
L41293 54147
L41368 54185
L41405 54260
L41405 54672
" />
<path d="M41405 54260
L41443 54185
L41518 54147
L41630 54147
L41705 54185
L41743 54260
L41743 54672
" />
<path d="M43280 53847
L42605 54860
" />
<path d="M44292 53885
L44367 53885
L44442 53922
L44480 53960
L44517 54035
L44555 54185
L44555 54372
L44517 54522
L44480 54597
L44442 54635
L44367 54672
L44292 54672
L44217 54635
L44180 54597
L44142 54522
L44105 54372
L44105 54185
L44142 54035
L44180 53960
L44217 53922
L44292 53885
" />
<path d="M44892 54597
L44930 54635
L44892 54672
L44855 54635
L44892 54597
L44892 54672
" />
<path d="M45417 53885
L45492 53885
L45567 53922
L45605 53960
L45642 54035
L45680 54185
L45680 54372
L45642 54522
L45605 54597
L45567 54635
L45492 54672
L45417 54672
L45342 54635
L45305 54597
L45267 54522
L45230 54372
L45230 54185
L45267 54035
L45305 53960
L45342 53922
L45417 53885
" />
<path d="M46355 53885
L46205 53885
L46130 53922
L46092 53960
L46017 54072
L45980 54222
L45980 54522
L46017 54597
L46055 54635
L46130 54672
L46280 54672
L46355 54635
L46392 54597
L46430 54522
L46430 54335
L46392 54260
L46355 54222
L46280 54185
L46130 54185
L46055 54222
L46017 54260
L45980 54335
" />
<path d="M46692 53885
L47179 53885
L46917 54185
L47029 54185
L47104 54222
L47142 54260
L47179 54335
L47179 54522
L47142 54597
L47104 54635
L47029 54672
L46804 54672
L46729 54635
L46692 54597
" />
<path d="M47667 53885
L47742 53885
L47817 53922
L47854 53960
L47892 54035
L47929 54185
L47929 54372
L47892 54522
L47854 54597
L47817 54635
L47742 54672
L47667 54672
L47592 54635
L47554 54597
L47517 54522
L47479 54372
L47479 54185
L47517 54035
L47554 53960
L47592 53922
L47667 53885
" />
<path d="M48229 53885
L48229 54035
" />
<path d="M48529 53885
L48529 54035
" />
<path d="M49692 54972
L49654 54935
L49579 54822
L49542 54747
L49504 54635
L49467 54447
L49467 54297
L49504 54110
L49542 53997
L49579 53922
L49654 53810
L49692 53772
" />
<path d="M50404 54672
L49954 54672
" />
<path d="M50179 54672
L50179 53885
L50104 53997
L50029 54072
L49954 54110
" />
<path d="M51341 54672
L51341 53885
" />
<path d="M51679 54672
L51679 54260
L51641 54185
L51566 54147
L51454 54147
L51379 54185
L51341 54222
" />
<path d="M52166 54672
L52091 54635
L52054 54597
L52016 54522
L52016 54297
L52054 54222
L52091 54185
L52166 54147
L52279 54147
L52354 54185
L52391 54222
L52429 54297
L52429 54522
L52391 54597
L52354 54635
L52279 54672
L52166 54672
" />
<path d="M52879 54672
L52804 54635
L52766 54560
L52766 53885
" />
<path d="M53479 54635
L53404 54672
L53254 54672
L53179 54635
L53141 54560
L53141 54260
L53179 54185
L53254 54147
L53404 54147
L53479 54185
L53516 54260
L53516 54335
L53141 54410
" />
<path d="M53779 54972
L53816 54935
L53891 54822
L53929 54747
L53966 54635
L54004 54447
L54004 54297
L53966 54110
L53929 53997
L53891 53922
L53816 53810
L53779 53772
" />
</g></g>
<g style="fill:#000000; fill-opacity:0.0; 
stroke:#000000; stroke-width:78.739802; stroke-opacity:1; 
stroke-linecap:round; stroke-linejoin:round;">
<path d="M34842 55125
L35629 55912
" />
<path d="M35629 55125
L34842 55912
" />
<circle cx="35235.803249" cy="55519.108003" r="393.700834" /> 
</g>
<g style="fill:#000000; fill-opacity:0.0; 
stroke:#000000; stroke-width:91.250734; stroke-opacity:1; 
stroke-linecap:round; stroke-linejoin:round;">
</g>
<g style="fill:#000000; fill-opacity:0.0; 
stroke:#000000; stroke-width:78.740258; stroke-opacity:1; 
stroke-linecap:round; stroke-linejoin:round;">
<text x="36416.905750" y="55912.808836"
textLength="26250.471727" font-size="1049.868889" lengthAdjust="spacingAndGlyphs"
text-anchor="start" opacity="0">4.300mm / 0.1693" (4 holes) (not plated)</text>
<g class="stroked-text"><desc>4.300mm / 0.1693" (4 holes) (not plated)</desc>
<path d="M36981 55350
L36981 55875
" />
<path d="M36793 55050
L36606 55612
L37093 55612
" />
<path d="M37393 55800
L37431 55837
L37393 55875
L37356 55837
L37393 55800
L37393 55875
" />
<path d="M37693 55087
L38181 55087
L37918 55387
L38031 55387
L38106 55425
L38143 55462
L38181 55537
L38181 55725
L38143 55800
L38106 55837
L38031 55875
L37806 55875
L37731 55837
L37693 55800
" />
<path d="M38668 55087
L38743 55087
L38818 55125
L38855 55162
L38893 55237
L38930 55387
L38930 55575
L38893 55725
L38855 55800
L38818 55837
L38743 55875
L38668 55875
L38593 55837
L38556 55800
L38518 55725
L38481 55575
L38481 55387
L38518 55237
L38556 55162
L38593 55125
L38668 55087
" />
<path d="M39418 55087
L39493 55087
L39568 55125
L39605 55162
L39643 55237
L39680 55387
L39680 55575
L39643 55725
L39605 55800
L39568 55837
L39493 55875
L39418 55875
L39343 55837
L39305 55800
L39268 55725
L39230 55575
L39230 55387
L39268 55237
L39305 55162
L39343 55125
L39418 55087
" />
<path d="M40018 55875
L40018 55350
" />
<path d="M40018 55425
L40055 55387
L40130 55350
L40243 55350
L40318 55387
L40355 55462
L40355 55875
" />
<path d="M40355 55462
L40393 55387
L40468 55350
L40580 55350
L40655 55387
L40693 55462
L40693 55875
" />
<path d="M41068 55875
L41068 55350
" />
<path d="M41068 55425
L41105 55387
L41180 55350
L41293 55350
L41368 55387
L41405 55462
L41405 55875
" />
<path d="M41405 55462
L41443 55387
L41518 55350
L41630 55350
L41705 55387
L41743 55462
L41743 55875
" />
<path d="M43280 55050
L42605 56062
" />
<path d="M44292 55087
L44367 55087
L44442 55125
L44480 55162
L44517 55237
L44555 55387
L44555 55575
L44517 55725
L44480 55800
L44442 55837
L44367 55875
L44292 55875
L44217 55837
L44180 55800
L44142 55725
L44105 55575
L44105 55387
L44142 55237
L44180 55162
L44217 55125
L44292 55087
" />
<path d="M44892 55800
L44930 55837
L44892 55875
L44855 55837
L44892 55800
L44892 55875
" />
<path d="M45680 55875
L45230 55875
" />
<path d="M45455 55875
L45455 55087
L45380 55200
L45305 55275
L45230 55312
" />
<path d="M46355 55087
L46205 55087
L46130 55125
L46092 55162
L46017 55275
L45980 55425
L45980 55725
L46017 55800
L46055 55837
L46130 55875
L46280 55875
L46355 55837
L46392 55800
L46430 55725
L46430 55537
L46392 55462
L46355 55425
L46280 55387
L46130 55387
L46055 55425
L46017 55462
L45980 55537
" />
<path d="M46804 55875
L46954 55875
L47029 55837
L47067 55800
L47142 55687
L47179 55537
L47179 55237
L47142 55162
L47104 55125
L47029 55087
L46879 55087
L46804 55125
L46767 55162
L46729 55237
L46729 55425
L46767 55500
L46804 55537
L46879 55575
L47029 55575
L47104 55537
L47142 55500
L47179 55425
" />
<path d="M47442 55087
L47929 55087
L47667 55387
L47779 55387
L47854 55425
L47892 55462
L47929 55537
L47929 55725
L47892 55800
L47854 55837
L47779 55875
L47554 55875
L47479 55837
L47442 55800
" />
<path d="M48229 55087
L48229 55237
" />
<path d="M48529 55087
L48529 55237
" />
<path d="M49692 56175
L49654 56137
L49579 56025
L49542 55950
L49504 55837
L49467 55650
L49467 55500
L49504 55312
L49542 55200
L49579 55125
L49654 55012
L49692 54975
" />
<path d="M50329 55350
L50329 55875
" />
<path d="M50142 55050
L49954 55612
L50442 55612
" />
<path d="M51341 55875
L51341 55087
" />
<path d="M51679 55875
L51679 55462
L51641 55387
L51566 55350
L51454 55350
L51379 55387
L51341 55425
" />
<path d="M52166 55875
L52091 55837
L52054 55800
L52016 55725
L52016 55500
L52054 55425
L52091 55387
L52166 55350
L52279 55350
L52354 55387
L52391 55425
L52429 55500
L52429 55725
L52391 55800
L52354 55837
L52279 55875
L52166 55875
" />
<path d="M52879 55875
L52804 55837
L52766 55762
L52766 55087
" />
<path d="M53479 55837
L53404 55875
L53254 55875
L53179 55837
L53141 55762
L53141 55462
L53179 55387
L53254 55350
L53404 55350
L53479 55387
L53516 55462
L53516 55537
L53141 55612
" />
<path d="M53816 55837
L53891 55875
L54041 55875
L54116 55837
L54154 55762
L54154 55725
L54116 55650
L54041 55612
L53929 55612
L53854 55575
L53816 55500
L53816 55462
L53854 55387
L53929 55350
L54041 55350
L54116 55387
" />
<path d="M54416 56175
L54454 56137
L54529 56025
L54566 55950
L54604 55837
L54641 55650
L54641 55500
L54604 55312
L54566 55200
L54529 55125
L54454 55012
L54416 54975
" />
<path d="M55841 56175
L55803 56137
L55728 56025
L55691 55950
L55653 55837
L55616 55650
L55616 55500
L55653 55312
L55691 55200
L55728 55125
L55803 55012
L55841 54975
" />
<path d="M56141 55350
L56141 55875
" />
<path d="M56141 55425
L56178 55387
L56253 55350
L56366 55350
L56441 55387
L56478 55462
L56478 55875
" />
<path d="M56966 55875
L56891 55837
L56853 55800
L56816 55725
L56816 55500
L56853 55425
L56891 55387
L56966 55350
L57078 55350
L57153 55387
L57191 55425
L57228 55500
L57228 55725
L57191 55800
L57153 55837
L57078 55875
L56966 55875
" />
<path d="M57453 55350
L57753 55350
" />
<path d="M57566 55087
L57566 55762
L57603 55837
L57678 55875
L57753 55875
" />
<path d="M58616 55350
L58616 56137
" />
<path d="M58616 55387
L58690 55350
L58840 55350
L58915 55387
L58953 55425
L58990 55500
L58990 55725
L58953 55800
L58915 55837
L58840 55875
L58690 55875
L58616 55837
" />
<path d="M59440 55875
L59365 55837
L59328 55762
L59328 55087
" />
<path d="M60078 55875
L60078 55462
L60040 55387
L59965 55350
L59815 55350
L59740 55387
" />
<path d="M60078 55837
L60003 55875
L59815 55875
L59740 55837
L59703 55762
L59703 55687
L59740 55612
L59815 55575
L60003 55575
L60078 55537
" />
<path d="M60340 55350
L60640 55350
" />
<path d="M60453 55087
L60453 55762
L60490 55837
L60565 55875
L60640 55875
" />
<path d="M61203 55837
L61128 55875
L60978 55875
L60903 55837
L60865 55762
L60865 55462
L60903 55387
L60978 55350
L61128 55350
L61203 55387
L61240 55462
L61240 55537
L60865 55612
" />
<path d="M61915 55875
L61915 55087
" />
<path d="M61915 55837
L61840 55875
L61690 55875
L61615 55837
L61578 55800
L61540 55725
L61540 55500
L61578 55425
L61615 55387
L61690 55350
L61840 55350
L61915 55387
" />
<path d="M62215 56175
L62253 56137
L62328 56025
L62365 55950
L62403 55837
L62440 55650
L62440 55500
L62403 55312
L62365 55200
L62328 55125
L62253 55012
L62215 54975
" />
</g></g> 
</svg>
