%TF.GenerationSoftware,KiCad,Pcbnew,6.0.8-f2edbf62ab~116~ubuntu22.04.1*%
%TF.CreationDate,2022-10-03T01:52:06+02:00*%
%TF.ProjectId,relay_brd,72656c61-795f-4627-9264-2e6b69636164,rev?*%
%TF.SameCoordinates,Original*%
%TF.FileFunction,Copper,L1,Top*%
%TF.FilePolarity,Positive*%
%FSLAX46Y46*%
G04 Gerber Fmt 4.6, Leading zero omitted, Abs format (unit mm)*
G04 Created by KiCad (PCBNEW 6.0.8-f2edbf62ab~116~ubuntu22.04.1) date 2022-10-03 01:52:06*
%MOMM*%
%LPD*%
G01*
G04 APERTURE LIST*
G04 Aperture macros list*
%AMRoundRect*
0 Rectangle with rounded corners*
0 $1 Rounding radius*
0 $2 $3 $4 $5 $6 $7 $8 $9 X,Y pos of 4 corners*
0 Add a 4 corners polygon primitive as box body*
4,1,4,$2,$3,$4,$5,$6,$7,$8,$9,$2,$3,0*
0 Add four circle primitives for the rounded corners*
1,1,$1+$1,$2,$3*
1,1,$1+$1,$4,$5*
1,1,$1+$1,$6,$7*
1,1,$1+$1,$8,$9*
0 Add four rect primitives between the rounded corners*
20,1,$1+$1,$2,$3,$4,$5,0*
20,1,$1+$1,$4,$5,$6,$7,0*
20,1,$1+$1,$6,$7,$8,$9,0*
20,1,$1+$1,$8,$9,$2,$3,0*%
%AMFreePoly0*
4,1,22,0.550000,-0.750000,0.000000,-0.750000,0.000000,-0.745033,-0.079941,-0.743568,-0.215256,-0.701293,-0.333266,-0.622738,-0.424486,-0.514219,-0.481581,-0.384460,-0.499164,-0.250000,-0.500000,-0.250000,-0.500000,0.250000,-0.499164,0.250000,-0.499963,0.256109,-0.478152,0.396186,-0.417904,0.524511,-0.324060,0.630769,-0.204165,0.706417,-0.067858,0.745374,0.000000,0.744959,0.000000,0.750000,
0.550000,0.750000,0.550000,-0.750000,0.550000,-0.750000,$1*%
%AMFreePoly1*
4,1,20,0.000000,0.744959,0.073905,0.744508,0.209726,0.703889,0.328688,0.626782,0.421226,0.519385,0.479903,0.390333,0.500000,0.250000,0.500000,-0.250000,0.499851,-0.262216,0.476331,-0.402017,0.414519,-0.529596,0.319384,-0.634700,0.198574,-0.708877,0.061801,-0.746166,0.000000,-0.745033,0.000000,-0.750000,-0.550000,-0.750000,-0.550000,0.750000,0.000000,0.750000,0.000000,0.744959,
0.000000,0.744959,$1*%
G04 Aperture macros list end*
%TA.AperFunction,SMDPad,CuDef*%
%ADD10RoundRect,0.200000X0.200000X0.275000X-0.200000X0.275000X-0.200000X-0.275000X0.200000X-0.275000X0*%
%TD*%
%TA.AperFunction,SMDPad,CuDef*%
%ADD11RoundRect,0.150000X-0.150000X0.587500X-0.150000X-0.587500X0.150000X-0.587500X0.150000X0.587500X0*%
%TD*%
%TA.AperFunction,ComponentPad*%
%ADD12C,2.000000*%
%TD*%
%TA.AperFunction,SMDPad,CuDef*%
%ADD13RoundRect,0.200000X-0.200000X-0.275000X0.200000X-0.275000X0.200000X0.275000X-0.200000X0.275000X0*%
%TD*%
%TA.AperFunction,ComponentPad*%
%ADD14R,1.600000X1.600000*%
%TD*%
%TA.AperFunction,ComponentPad*%
%ADD15C,1.600000*%
%TD*%
%TA.AperFunction,ComponentPad*%
%ADD16R,1.400000X1.400000*%
%TD*%
%TA.AperFunction,ComponentPad*%
%ADD17C,1.400000*%
%TD*%
%TA.AperFunction,SMDPad,CuDef*%
%ADD18RoundRect,0.243750X0.456250X-0.243750X0.456250X0.243750X-0.456250X0.243750X-0.456250X-0.243750X0*%
%TD*%
%TA.AperFunction,SMDPad,CuDef*%
%ADD19RoundRect,0.200000X-0.275000X0.200000X-0.275000X-0.200000X0.275000X-0.200000X0.275000X0.200000X0*%
%TD*%
%TA.AperFunction,ComponentPad*%
%ADD20R,1.700000X1.700000*%
%TD*%
%TA.AperFunction,ComponentPad*%
%ADD21O,1.700000X1.700000*%
%TD*%
%TA.AperFunction,SMDPad,CuDef*%
%ADD22R,1.200000X0.900000*%
%TD*%
%TA.AperFunction,SMDPad,CuDef*%
%ADD23RoundRect,0.150000X0.150000X-0.587500X0.150000X0.587500X-0.150000X0.587500X-0.150000X-0.587500X0*%
%TD*%
%TA.AperFunction,ComponentPad*%
%ADD24R,2.200000X2.200000*%
%TD*%
%TA.AperFunction,ComponentPad*%
%ADD25O,2.200000X2.200000*%
%TD*%
%TA.AperFunction,SMDPad,CuDef*%
%ADD26RoundRect,0.225000X-0.250000X0.225000X-0.250000X-0.225000X0.250000X-0.225000X0.250000X0.225000X0*%
%TD*%
%TA.AperFunction,ComponentPad*%
%ADD27R,1.905000X2.000000*%
%TD*%
%TA.AperFunction,ComponentPad*%
%ADD28O,1.905000X2.000000*%
%TD*%
%TA.AperFunction,SMDPad,CuDef*%
%ADD29RoundRect,0.243750X-0.456250X0.243750X-0.456250X-0.243750X0.456250X-0.243750X0.456250X0.243750X0*%
%TD*%
%TA.AperFunction,ComponentPad*%
%ADD30O,1.600000X1.600000*%
%TD*%
%TA.AperFunction,SMDPad,CuDef*%
%ADD31FreePoly0,180.000000*%
%TD*%
%TA.AperFunction,SMDPad,CuDef*%
%ADD32R,1.000000X1.500000*%
%TD*%
%TA.AperFunction,SMDPad,CuDef*%
%ADD33FreePoly1,180.000000*%
%TD*%
%TA.AperFunction,ComponentPad*%
%ADD34R,1.600000X2.400000*%
%TD*%
%TA.AperFunction,ComponentPad*%
%ADD35O,1.600000X2.400000*%
%TD*%
%TA.AperFunction,SMDPad,CuDef*%
%ADD36RoundRect,0.200000X0.275000X-0.200000X0.275000X0.200000X-0.275000X0.200000X-0.275000X-0.200000X0*%
%TD*%
%TA.AperFunction,SMDPad,CuDef*%
%ADD37RoundRect,0.225000X0.250000X-0.225000X0.250000X0.225000X-0.250000X0.225000X-0.250000X-0.225000X0*%
%TD*%
%TA.AperFunction,ComponentPad*%
%ADD38C,2.800000*%
%TD*%
%TA.AperFunction,SMDPad,CuDef*%
%ADD39FreePoly0,0.000000*%
%TD*%
%TA.AperFunction,SMDPad,CuDef*%
%ADD40FreePoly1,0.000000*%
%TD*%
G04 APERTURE END LIST*
%TO.C,JP2*%
G36*
X194100000Y-91800000D02*
G01*
X193600000Y-91800000D01*
X193600000Y-91200000D01*
X194100000Y-91200000D01*
X194100000Y-91800000D01*
G37*
%TO.C,JP1*%
G36*
X196300000Y-89300000D02*
G01*
X195800000Y-89300000D01*
X195800000Y-88700000D01*
X196300000Y-88700000D01*
X196300000Y-89300000D01*
G37*
%TD*%
D10*
%TO.P,R2,1*%
%TO.N,Net-(LD2-Pad1)*%
X126325000Y-114500000D03*
%TO.P,R2,2*%
%TO.N,GND*%
X124675000Y-114500000D03*
%TD*%
D11*
%TO.P,Q7,1,G*%
%TO.N,/K7*%
X176450000Y-116562500D03*
%TO.P,Q7,2,S*%
%TO.N,GND*%
X174550000Y-116562500D03*
%TO.P,Q7,3,D*%
%TO.N,Net-(D7-Pad2)*%
X175500000Y-118437500D03*
%TD*%
D12*
%TO.P,SW2,1,1*%
%TO.N,/~{OE}*%
X197500000Y-94250000D03*
X197500000Y-100750000D03*
%TO.P,SW2,2,2*%
%TO.N,+5VD*%
X193000000Y-94250000D03*
X193000000Y-100750000D03*
%TD*%
D13*
%TO.P,R13,1*%
%TO.N,Net-(LD13-Pad1)*%
X144350000Y-85000000D03*
%TO.P,R13,2*%
%TO.N,GND*%
X146000000Y-85000000D03*
%TD*%
D10*
%TO.P,R20,1*%
%TO.N,Net-(JP1-Pad1)*%
X193350000Y-89000000D03*
%TO.P,R20,2*%
%TO.N,+5VD*%
X191700000Y-89000000D03*
%TD*%
D14*
%TO.P,C9,1*%
%TO.N,+12V*%
X124000000Y-91347349D03*
D15*
%TO.P,C9,2*%
%TO.N,GND*%
X124000000Y-94847349D03*
%TD*%
D13*
%TO.P,R9,1*%
%TO.N,Net-(LD9-Pad1)*%
X184175000Y-85000000D03*
%TO.P,R9,2*%
%TO.N,GND*%
X185825000Y-85000000D03*
%TD*%
D16*
%TO.P,K16,1*%
%TO.N,/K16B*%
X118975000Y-76600000D03*
D17*
%TO.P,K16,2*%
%TO.N,Net-(D16-Pad2)*%
X118975000Y-74060000D03*
%TO.P,K16,6*%
%TO.N,VDDA*%
X118975000Y-63800000D03*
%TO.P,K16,7*%
%TO.N,/K16A*%
X118975000Y-61360000D03*
%TO.P,K16,8*%
X111355000Y-61360000D03*
%TO.P,K16,9*%
%TO.N,N/C*%
X111355000Y-63800000D03*
%TO.P,K16,13*%
X111355000Y-74060000D03*
%TO.P,K16,14*%
%TO.N,/K16B*%
X111355000Y-76600000D03*
%TD*%
D16*
%TO.P,K3,1*%
%TO.N,/K3B*%
X131700000Y-122900000D03*
D17*
%TO.P,K3,2*%
%TO.N,Net-(D3-Pad2)*%
X131700000Y-125440000D03*
%TO.P,K3,6*%
%TO.N,VDD*%
X131700000Y-135700000D03*
%TO.P,K3,7*%
%TO.N,/K3A*%
X131700000Y-138140000D03*
%TO.P,K3,8*%
X139320000Y-138140000D03*
%TO.P,K3,9*%
%TO.N,N/C*%
X139320000Y-135700000D03*
%TO.P,K3,13*%
X139320000Y-125440000D03*
%TO.P,K3,14*%
%TO.N,/K3B*%
X139320000Y-122900000D03*
%TD*%
D18*
%TO.P,LD15,1,K*%
%TO.N,Net-(LD15-Pad1)*%
X121175000Y-83937500D03*
%TO.P,LD15,2,A*%
%TO.N,/K15*%
X121175000Y-82062500D03*
%TD*%
D19*
%TO.P,R17,1*%
%TO.N,Net-(R17-Pad1)*%
X119500000Y-107730000D03*
%TO.P,R17,2*%
%TO.N,GND*%
X119500000Y-109380000D03*
%TD*%
D13*
%TO.P,R21,1*%
%TO.N,+5V*%
X114850000Y-107555000D03*
%TO.P,R21,2*%
%TO.N,Net-(R19-Pad1)*%
X116500000Y-107555000D03*
%TD*%
D10*
%TO.P,R1,1*%
%TO.N,Net-(LD1-Pad1)*%
X116325000Y-114500000D03*
%TO.P,R1,2*%
%TO.N,GND*%
X114675000Y-114500000D03*
%TD*%
D20*
%TO.P,J3,1,Pin_1*%
%TO.N,/DATA*%
X197525000Y-103700000D03*
D21*
%TO.P,J3,2,Pin_2*%
%TO.N,/CLK*%
X197525000Y-106240000D03*
%TO.P,J3,3,Pin_3*%
%TO.N,/LATCH*%
X197525000Y-108780000D03*
%TO.P,J3,4,Pin_4*%
%TO.N,GND*%
X197525000Y-111320000D03*
%TD*%
D12*
%TO.P,SW1,1,1*%
%TO.N,GND*%
X197525000Y-85750000D03*
X197525000Y-79250000D03*
%TO.P,SW1,2,2*%
%TO.N,/~{RST}*%
X193025000Y-79250000D03*
X193025000Y-85750000D03*
%TD*%
D10*
%TO.P,R5,1*%
%TO.N,Net-(LD5-Pad1)*%
X156325000Y-114500000D03*
%TO.P,R5,2*%
%TO.N,GND*%
X154675000Y-114500000D03*
%TD*%
D22*
%TO.P,D10,1,K*%
%TO.N,VDD*%
X178175000Y-83650000D03*
%TO.P,D10,2,A*%
%TO.N,Net-(D10-Pad2)*%
X178175000Y-80350000D03*
%TD*%
D23*
%TO.P,Q10,1,G*%
%TO.N,/K10*%
X174225000Y-82937500D03*
%TO.P,Q10,2,S*%
%TO.N,GND*%
X176125000Y-82937500D03*
%TO.P,Q10,3,D*%
%TO.N,Net-(D10-Pad2)*%
X175175000Y-81062500D03*
%TD*%
D24*
%TO.P,D17,1,K*%
%TO.N,VCC*%
X105000000Y-87080000D03*
D25*
%TO.P,D17,2,A*%
%TO.N,/Vin*%
X105000000Y-76920000D03*
%TD*%
D18*
%TO.P,LD11,1,K*%
%TO.N,Net-(LD11-Pad1)*%
X162175000Y-84937500D03*
%TO.P,LD11,2,A*%
%TO.N,/K11*%
X162175000Y-83062500D03*
%TD*%
D13*
%TO.P,R15,1*%
%TO.N,Net-(LD15-Pad1)*%
X123350000Y-85000000D03*
%TO.P,R15,2*%
%TO.N,GND*%
X125000000Y-85000000D03*
%TD*%
D20*
%TO.P,J2,1,Pin_1*%
%TO.N,VCC*%
X111960000Y-100055000D03*
D21*
%TO.P,J2,2,Pin_2*%
%TO.N,+5V*%
X114500000Y-100055000D03*
%TD*%
D26*
%TO.P,C7,1*%
%TO.N,+12V*%
X114500000Y-94725000D03*
%TO.P,C7,2*%
%TO.N,GND*%
X114500000Y-96275000D03*
%TD*%
D16*
%TO.P,K12,1*%
%TO.N,/K12B*%
X158975000Y-76600000D03*
D17*
%TO.P,K12,2*%
%TO.N,Net-(D12-Pad2)*%
X158975000Y-74060000D03*
%TO.P,K12,6*%
%TO.N,VDD*%
X158975000Y-63800000D03*
%TO.P,K12,7*%
%TO.N,/K12A*%
X158975000Y-61360000D03*
%TO.P,K12,8*%
X151355000Y-61360000D03*
%TO.P,K12,9*%
%TO.N,N/C*%
X151355000Y-63800000D03*
%TO.P,K12,13*%
X151355000Y-74060000D03*
%TO.P,K12,14*%
%TO.N,/K12B*%
X151355000Y-76600000D03*
%TD*%
D18*
%TO.P,LD13,1,K*%
%TO.N,Net-(LD13-Pad1)*%
X142175000Y-84937500D03*
%TO.P,LD13,2,A*%
%TO.N,/K13*%
X142175000Y-83062500D03*
%TD*%
D10*
%TO.P,R22,1*%
%TO.N,GND*%
X198325000Y-91500000D03*
%TO.P,R22,2*%
%TO.N,Net-(JP2-Pad1)*%
X196675000Y-91500000D03*
%TD*%
D14*
%TO.P,C2,1*%
%TO.N,VCC*%
X105000000Y-91500000D03*
D15*
%TO.P,C2,2*%
%TO.N,GND*%
X105000000Y-95000000D03*
%TD*%
D13*
%TO.P,R16,1*%
%TO.N,Net-(LD16-Pad1)*%
X113350000Y-85000000D03*
%TO.P,R16,2*%
%TO.N,GND*%
X115000000Y-85000000D03*
%TD*%
D11*
%TO.P,Q4,1,G*%
%TO.N,/K4*%
X146450000Y-116562500D03*
%TO.P,Q4,2,S*%
%TO.N,GND*%
X144550000Y-116562500D03*
%TO.P,Q4,3,D*%
%TO.N,Net-(D4-Pad2)*%
X145500000Y-118437500D03*
%TD*%
D23*
%TO.P,Q15,1,G*%
%TO.N,/K15*%
X123225000Y-82875000D03*
%TO.P,Q15,2,S*%
%TO.N,GND*%
X125125000Y-82875000D03*
%TO.P,Q15,3,D*%
%TO.N,Net-(D15-Pad2)*%
X124175000Y-81000000D03*
%TD*%
D22*
%TO.P,D1,1,K*%
%TO.N,VDD*%
X112500000Y-115850000D03*
%TO.P,D1,2,A*%
%TO.N,Net-(D1-Pad2)*%
X112500000Y-119150000D03*
%TD*%
D11*
%TO.P,Q5,1,G*%
%TO.N,/K5*%
X156450000Y-116562500D03*
%TO.P,Q5,2,S*%
%TO.N,GND*%
X154550000Y-116562500D03*
%TO.P,Q5,3,D*%
%TO.N,Net-(D5-Pad2)*%
X155500000Y-118437500D03*
%TD*%
D18*
%TO.P,LD10,1,K*%
%TO.N,Net-(LD10-Pad1)*%
X172175000Y-84937500D03*
%TO.P,LD10,2,A*%
%TO.N,/K10*%
X172175000Y-83062500D03*
%TD*%
D27*
%TO.P,U2,1,ADJ*%
%TO.N,Net-(R23-Pad2)*%
X117000000Y-91500000D03*
D28*
%TO.P,U2,2,VO*%
%TO.N,+12V*%
X114460000Y-91500000D03*
%TO.P,U2,3,VI*%
%TO.N,VCC*%
X111920000Y-91500000D03*
%TD*%
D23*
%TO.P,Q13,1,G*%
%TO.N,/K13*%
X144225000Y-82937500D03*
%TO.P,Q13,2,S*%
%TO.N,GND*%
X146125000Y-82937500D03*
%TO.P,Q13,3,D*%
%TO.N,Net-(D13-Pad2)*%
X145175000Y-81062500D03*
%TD*%
D10*
%TO.P,R7,1*%
%TO.N,Net-(LD7-Pad1)*%
X176325000Y-114500000D03*
%TO.P,R7,2*%
%TO.N,GND*%
X174675000Y-114500000D03*
%TD*%
D29*
%TO.P,LD6,1,K*%
%TO.N,Net-(LD6-Pad1)*%
X168500000Y-114625000D03*
%TO.P,LD6,2,A*%
%TO.N,/K6*%
X168500000Y-116500000D03*
%TD*%
%TO.P,LD2,1,K*%
%TO.N,Net-(LD2-Pad1)*%
X128500000Y-114625000D03*
%TO.P,LD2,2,A*%
%TO.N,/K2*%
X128500000Y-116500000D03*
%TD*%
D15*
%TO.P,L1,1,1*%
%TO.N,+5V*%
X121650000Y-100000000D03*
D30*
%TO.P,L1,2,2*%
%TO.N,+5VD*%
X134350000Y-100000000D03*
%TD*%
D22*
%TO.P,D3,1,K*%
%TO.N,VDD*%
X132500000Y-115850000D03*
%TO.P,D3,2,A*%
%TO.N,Net-(D3-Pad2)*%
X132500000Y-119150000D03*
%TD*%
D10*
%TO.P,R24,1*%
%TO.N,Net-(R23-Pad2)*%
X118000000Y-95977500D03*
%TO.P,R24,2*%
%TO.N,GND*%
X116350000Y-95977500D03*
%TD*%
D31*
%TO.P,JP2,1,A*%
%TO.N,Net-(JP2-Pad1)*%
X194500000Y-91500000D03*
D32*
%TO.P,JP2,2,C*%
%TO.N,/~{OE}*%
X193200000Y-91500000D03*
D33*
%TO.P,JP2,3,B*%
%TO.N,+5VD*%
X191900000Y-91500000D03*
%TD*%
D22*
%TO.P,D4,1,K*%
%TO.N,VDD*%
X142500000Y-115850000D03*
%TO.P,D4,2,A*%
%TO.N,Net-(D4-Pad2)*%
X142500000Y-119150000D03*
%TD*%
%TO.P,D5,1,K*%
%TO.N,VDD*%
X152500000Y-115850000D03*
%TO.P,D5,2,A*%
%TO.N,Net-(D5-Pad2)*%
X152500000Y-119150000D03*
%TD*%
%TO.P,D12,1,K*%
%TO.N,VDD*%
X158175000Y-83650000D03*
%TO.P,D12,2,A*%
%TO.N,Net-(D12-Pad2)*%
X158175000Y-80350000D03*
%TD*%
D34*
%TO.P,U3,1,QB*%
%TO.N,/K2*%
X145500000Y-103800000D03*
D35*
%TO.P,U3,2,QC*%
%TO.N,/K3*%
X148040000Y-103800000D03*
%TO.P,U3,3,QD*%
%TO.N,/K4*%
X150580000Y-103800000D03*
%TO.P,U3,4,QE*%
%TO.N,/K5*%
X153120000Y-103800000D03*
%TO.P,U3,5,QF*%
%TO.N,/K6*%
X155660000Y-103800000D03*
%TO.P,U3,6,QG*%
%TO.N,/K7*%
X158200000Y-103800000D03*
%TO.P,U3,7,QH*%
%TO.N,/K8*%
X160740000Y-103800000D03*
%TO.P,U3,8,GND*%
%TO.N,GND*%
X163280000Y-103800000D03*
%TO.P,U3,9,QH'*%
%TO.N,/SER_OUT*%
X163280000Y-96180000D03*
%TO.P,U3,10,~{SRCLR}*%
%TO.N,/~{RST}*%
X160740000Y-96180000D03*
%TO.P,U3,11,SRCLK*%
%TO.N,/CLK*%
X158200000Y-96180000D03*
%TO.P,U3,12,RCLK*%
%TO.N,/LATCH*%
X155660000Y-96180000D03*
%TO.P,U3,13,~{OE}*%
%TO.N,/~{OE}*%
X153120000Y-96180000D03*
%TO.P,U3,14,SER*%
%TO.N,/DATA*%
X150580000Y-96180000D03*
%TO.P,U3,15,QA*%
%TO.N,/K1*%
X148040000Y-96180000D03*
%TO.P,U3,16,VCC*%
%TO.N,+5VD*%
X145500000Y-96180000D03*
%TD*%
D26*
%TO.P,C1,1*%
%TO.N,VCC*%
X112000000Y-107780000D03*
%TO.P,C1,2*%
%TO.N,GND*%
X112000000Y-109330000D03*
%TD*%
D29*
%TO.P,LD1,1,K*%
%TO.N,Net-(LD1-Pad1)*%
X118500000Y-114562500D03*
%TO.P,LD1,2,A*%
%TO.N,/K1*%
X118500000Y-116437500D03*
%TD*%
D19*
%TO.P,R25,1*%
%TO.N,Net-(LD17-Pad1)*%
X137000000Y-103000000D03*
%TO.P,R25,2*%
%TO.N,GND*%
X137000000Y-104650000D03*
%TD*%
D23*
%TO.P,Q16,1,G*%
%TO.N,/K16*%
X113287500Y-82987500D03*
%TO.P,Q16,2,S*%
%TO.N,GND*%
X115187500Y-82987500D03*
%TO.P,Q16,3,D*%
%TO.N,Net-(D16-Pad2)*%
X114237500Y-81112500D03*
%TD*%
D20*
%TO.P,J6,1,Pin_1*%
%TO.N,+5V*%
X102975000Y-63475000D03*
D21*
%TO.P,J6,2,Pin_2*%
%TO.N,VDDA*%
X105515000Y-63475000D03*
%TO.P,J6,3,Pin_3*%
%TO.N,+12V*%
X108055000Y-63475000D03*
%TD*%
D11*
%TO.P,Q3,1,G*%
%TO.N,/K3*%
X136387500Y-116562500D03*
%TO.P,Q3,2,S*%
%TO.N,GND*%
X134487500Y-116562500D03*
%TO.P,Q3,3,D*%
%TO.N,Net-(D3-Pad2)*%
X135437500Y-118437500D03*
%TD*%
D23*
%TO.P,Q11,1,G*%
%TO.N,/K11*%
X164275000Y-83000000D03*
%TO.P,Q11,2,S*%
%TO.N,GND*%
X166175000Y-83000000D03*
%TO.P,Q11,3,D*%
%TO.N,Net-(D11-Pad2)*%
X165225000Y-81125000D03*
%TD*%
D11*
%TO.P,Q1,1,G*%
%TO.N,/K1*%
X116450000Y-116562500D03*
%TO.P,Q1,2,S*%
%TO.N,GND*%
X114550000Y-116562500D03*
%TO.P,Q1,3,D*%
%TO.N,Net-(D1-Pad2)*%
X115500000Y-118437500D03*
%TD*%
D16*
%TO.P,K6,1*%
%TO.N,/K6B*%
X161700000Y-122900000D03*
D17*
%TO.P,K6,2*%
%TO.N,Net-(D6-Pad2)*%
X161700000Y-125440000D03*
%TO.P,K6,6*%
%TO.N,VDD*%
X161700000Y-135700000D03*
%TO.P,K6,7*%
%TO.N,/K6A*%
X161700000Y-138140000D03*
%TO.P,K6,8*%
X169320000Y-138140000D03*
%TO.P,K6,9*%
%TO.N,N/C*%
X169320000Y-135700000D03*
%TO.P,K6,13*%
X169320000Y-125440000D03*
%TO.P,K6,14*%
%TO.N,/K6B*%
X169320000Y-122900000D03*
%TD*%
D22*
%TO.P,D6,1,K*%
%TO.N,VDD*%
X162500000Y-115850000D03*
%TO.P,D6,2,A*%
%TO.N,Net-(D6-Pad2)*%
X162500000Y-119150000D03*
%TD*%
%TO.P,D7,1,K*%
%TO.N,VDD*%
X172500000Y-115850000D03*
%TO.P,D7,2,A*%
%TO.N,Net-(D7-Pad2)*%
X172500000Y-119150000D03*
%TD*%
D36*
%TO.P,R18,1*%
%TO.N,Net-(R18-Pad1)*%
X118000000Y-107880000D03*
%TO.P,R18,2*%
%TO.N,Net-(R17-Pad1)*%
X118000000Y-106230000D03*
%TD*%
D29*
%TO.P,LD7,1,K*%
%TO.N,Net-(LD7-Pad1)*%
X178500000Y-114562500D03*
%TO.P,LD7,2,A*%
%TO.N,/K7*%
X178500000Y-116437500D03*
%TD*%
D26*
%TO.P,C10,1*%
%TO.N,+5VD*%
X142500000Y-96225000D03*
%TO.P,C10,2*%
%TO.N,GND*%
X142500000Y-97775000D03*
%TD*%
D16*
%TO.P,K8,1*%
%TO.N,/K8B*%
X181700000Y-122900000D03*
D17*
%TO.P,K8,2*%
%TO.N,Net-(D8-Pad2)*%
X181700000Y-125440000D03*
%TO.P,K8,6*%
%TO.N,VDD*%
X181700000Y-135700000D03*
%TO.P,K8,7*%
%TO.N,/K8A*%
X181700000Y-138140000D03*
%TO.P,K8,8*%
X189320000Y-138140000D03*
%TO.P,K8,9*%
%TO.N,N/C*%
X189320000Y-135700000D03*
%TO.P,K8,13*%
X189320000Y-125440000D03*
%TO.P,K8,14*%
%TO.N,/K8B*%
X189320000Y-122900000D03*
%TD*%
D11*
%TO.P,Q8,1,G*%
%TO.N,/K8*%
X186450000Y-115562500D03*
%TO.P,Q8,2,S*%
%TO.N,GND*%
X184550000Y-115562500D03*
%TO.P,Q8,3,D*%
%TO.N,Net-(D8-Pad2)*%
X185500000Y-117437500D03*
%TD*%
D10*
%TO.P,R6,1*%
%TO.N,Net-(LD6-Pad1)*%
X166325000Y-114500000D03*
%TO.P,R6,2*%
%TO.N,GND*%
X164675000Y-114500000D03*
%TD*%
D22*
%TO.P,D14,1,K*%
%TO.N,VDDA*%
X138175000Y-83650000D03*
%TO.P,D14,2,A*%
%TO.N,Net-(D14-Pad2)*%
X138175000Y-80350000D03*
%TD*%
D16*
%TO.P,K11,1*%
%TO.N,/K11B*%
X168975000Y-76600000D03*
D17*
%TO.P,K11,2*%
%TO.N,Net-(D11-Pad2)*%
X168975000Y-74060000D03*
%TO.P,K11,6*%
%TO.N,VDD*%
X168975000Y-63800000D03*
%TO.P,K11,7*%
%TO.N,/K11A*%
X168975000Y-61360000D03*
%TO.P,K11,8*%
X161355000Y-61360000D03*
%TO.P,K11,9*%
%TO.N,N/C*%
X161355000Y-63800000D03*
%TO.P,K11,13*%
X161355000Y-74060000D03*
%TO.P,K11,14*%
%TO.N,/K11B*%
X161355000Y-76600000D03*
%TD*%
D16*
%TO.P,K13,1*%
%TO.N,/K13B*%
X148975000Y-76600000D03*
D17*
%TO.P,K13,2*%
%TO.N,Net-(D13-Pad2)*%
X148975000Y-74060000D03*
%TO.P,K13,6*%
%TO.N,VDDA*%
X148975000Y-63800000D03*
%TO.P,K13,7*%
%TO.N,/K13A*%
X148975000Y-61360000D03*
%TO.P,K13,8*%
X141355000Y-61360000D03*
%TO.P,K13,9*%
%TO.N,N/C*%
X141355000Y-63800000D03*
%TO.P,K13,13*%
X141355000Y-74060000D03*
%TO.P,K13,14*%
%TO.N,/K13B*%
X141355000Y-76600000D03*
%TD*%
D22*
%TO.P,D15,1,K*%
%TO.N,VDDA*%
X127175000Y-83650000D03*
%TO.P,D15,2,A*%
%TO.N,Net-(D15-Pad2)*%
X127175000Y-80350000D03*
%TD*%
D10*
%TO.P,R4,1*%
%TO.N,Net-(LD4-Pad1)*%
X146150000Y-114500000D03*
%TO.P,R4,2*%
%TO.N,GND*%
X144500000Y-114500000D03*
%TD*%
D14*
%TO.P,C6,1*%
%TO.N,+5VD*%
X132500000Y-104847349D03*
D15*
%TO.P,C6,2*%
%TO.N,GND*%
X132500000Y-108347349D03*
%TD*%
D22*
%TO.P,D9,1,K*%
%TO.N,VDD*%
X188175000Y-83650000D03*
%TO.P,D9,2,A*%
%TO.N,Net-(D9-Pad2)*%
X188175000Y-80350000D03*
%TD*%
D18*
%TO.P,LD12,1,K*%
%TO.N,Net-(LD12-Pad1)*%
X152175000Y-84937500D03*
%TO.P,LD12,2,A*%
%TO.N,/K12*%
X152175000Y-83062500D03*
%TD*%
%TO.P,LD14,1,K*%
%TO.N,Net-(LD14-Pad1)*%
X132175000Y-85000000D03*
%TO.P,LD14,2,A*%
%TO.N,/K14*%
X132175000Y-83125000D03*
%TD*%
D26*
%TO.P,C4,1*%
%TO.N,+5V*%
X113500000Y-107705000D03*
%TO.P,C4,2*%
%TO.N,GND*%
X113500000Y-109255000D03*
%TD*%
D16*
%TO.P,K9,1*%
%TO.N,/K9B*%
X188975000Y-76600000D03*
D17*
%TO.P,K9,2*%
%TO.N,Net-(D9-Pad2)*%
X188975000Y-74060000D03*
%TO.P,K9,6*%
%TO.N,VDD*%
X188975000Y-63800000D03*
%TO.P,K9,7*%
%TO.N,/K9A*%
X188975000Y-61360000D03*
%TO.P,K9,8*%
X181355000Y-61360000D03*
%TO.P,K9,9*%
%TO.N,N/C*%
X181355000Y-63800000D03*
%TO.P,K9,13*%
X181355000Y-74060000D03*
%TO.P,K9,14*%
%TO.N,/K9B*%
X181355000Y-76600000D03*
%TD*%
D16*
%TO.P,K1,1*%
%TO.N,/K1B*%
X111700000Y-122900000D03*
D17*
%TO.P,K1,2*%
%TO.N,Net-(D1-Pad2)*%
X111700000Y-125440000D03*
%TO.P,K1,6*%
%TO.N,VDD*%
X111700000Y-135700000D03*
%TO.P,K1,7*%
%TO.N,/K1A*%
X111700000Y-138140000D03*
%TO.P,K1,8*%
X119320000Y-138140000D03*
%TO.P,K1,9*%
%TO.N,N/C*%
X119320000Y-135700000D03*
%TO.P,K1,13*%
X119320000Y-125440000D03*
%TO.P,K1,14*%
%TO.N,/K1B*%
X119320000Y-122900000D03*
%TD*%
D29*
%TO.P,LD8,1,K*%
%TO.N,Net-(LD8-Pad1)*%
X188500000Y-113562500D03*
%TO.P,LD8,2,A*%
%TO.N,/K8*%
X188500000Y-115437500D03*
%TD*%
D16*
%TO.P,K5,1*%
%TO.N,/K5B*%
X151700000Y-122900000D03*
D17*
%TO.P,K5,2*%
%TO.N,Net-(D5-Pad2)*%
X151700000Y-125440000D03*
%TO.P,K5,6*%
%TO.N,VDD*%
X151700000Y-135700000D03*
%TO.P,K5,7*%
%TO.N,/K5A*%
X151700000Y-138140000D03*
%TO.P,K5,8*%
X159320000Y-138140000D03*
%TO.P,K5,9*%
%TO.N,N/C*%
X159320000Y-135700000D03*
%TO.P,K5,13*%
X159320000Y-125440000D03*
%TO.P,K5,14*%
%TO.N,/K5B*%
X159320000Y-122900000D03*
%TD*%
D16*
%TO.P,K7,1*%
%TO.N,/K7B*%
X171700000Y-122900000D03*
D17*
%TO.P,K7,2*%
%TO.N,Net-(D7-Pad2)*%
X171700000Y-125440000D03*
%TO.P,K7,6*%
%TO.N,VDD*%
X171700000Y-135700000D03*
%TO.P,K7,7*%
%TO.N,/K7A*%
X171700000Y-138140000D03*
%TO.P,K7,8*%
X179320000Y-138140000D03*
%TO.P,K7,9*%
%TO.N,N/C*%
X179320000Y-135700000D03*
%TO.P,K7,13*%
X179320000Y-125440000D03*
%TO.P,K7,14*%
%TO.N,/K7B*%
X179320000Y-122900000D03*
%TD*%
D18*
%TO.P,LD16,1,K*%
%TO.N,Net-(LD16-Pad1)*%
X111175000Y-85000000D03*
%TO.P,LD16,2,A*%
%TO.N,/K16*%
X111175000Y-83125000D03*
%TD*%
D37*
%TO.P,C8,1*%
%TO.N,+5VD*%
X188120000Y-103550000D03*
%TO.P,C8,2*%
%TO.N,GND*%
X188120000Y-102000000D03*
%TD*%
D10*
%TO.P,R8,1*%
%TO.N,Net-(LD8-Pad1)*%
X186325000Y-113500000D03*
%TO.P,R8,2*%
%TO.N,GND*%
X184675000Y-113500000D03*
%TD*%
D13*
%TO.P,R23,1*%
%TO.N,+12V*%
X116350000Y-94477500D03*
%TO.P,R23,2*%
%TO.N,Net-(R23-Pad2)*%
X118000000Y-94477500D03*
%TD*%
D22*
%TO.P,D11,1,K*%
%TO.N,VDD*%
X168175000Y-83650000D03*
%TO.P,D11,2,A*%
%TO.N,Net-(D11-Pad2)*%
X168175000Y-80350000D03*
%TD*%
D26*
%TO.P,C3,1*%
%TO.N,VCC*%
X112000000Y-94725000D03*
%TO.P,C3,2*%
%TO.N,GND*%
X112000000Y-96275000D03*
%TD*%
D22*
%TO.P,D16,1,K*%
%TO.N,VDDA*%
X117175000Y-83650000D03*
%TO.P,D16,2,A*%
%TO.N,Net-(D16-Pad2)*%
X117175000Y-80350000D03*
%TD*%
D27*
%TO.P,U1,1,ADJ*%
%TO.N,Net-(R17-Pad1)*%
X117000000Y-103555000D03*
D28*
%TO.P,U1,2,VO*%
%TO.N,+5V*%
X114460000Y-103555000D03*
%TO.P,U1,3,VI*%
%TO.N,VCC*%
X111920000Y-103555000D03*
%TD*%
D20*
%TO.P,J4,1,Pin_1*%
%TO.N,VCC*%
X111960000Y-88000000D03*
D21*
%TO.P,J4,2,Pin_2*%
%TO.N,+12V*%
X114500000Y-88000000D03*
%TD*%
D23*
%TO.P,Q9,1,G*%
%TO.N,/K9*%
X184287500Y-82875000D03*
%TO.P,Q9,2,S*%
%TO.N,GND*%
X186187500Y-82875000D03*
%TO.P,Q9,3,D*%
%TO.N,Net-(D9-Pad2)*%
X185237500Y-81000000D03*
%TD*%
D22*
%TO.P,D13,1,K*%
%TO.N,VDDA*%
X148175000Y-83650000D03*
%TO.P,D13,2,A*%
%TO.N,Net-(D13-Pad2)*%
X148175000Y-80350000D03*
%TD*%
D20*
%TO.P,J7,1,Pin_1*%
%TO.N,/K1A*%
X131100000Y-144460000D03*
D21*
%TO.P,J7,2,Pin_2*%
X131100000Y-147000000D03*
%TO.P,J7,3,Pin_3*%
%TO.N,/K1B*%
X133640000Y-144460000D03*
%TO.P,J7,4,Pin_4*%
X133640000Y-147000000D03*
%TO.P,J7,5,Pin_5*%
%TO.N,/K2A*%
X136180000Y-144460000D03*
%TO.P,J7,6,Pin_6*%
X136180000Y-147000000D03*
%TO.P,J7,7,Pin_7*%
%TO.N,/K2B*%
X138720000Y-144460000D03*
%TO.P,J7,8,Pin_8*%
X138720000Y-147000000D03*
%TO.P,J7,9,Pin_9*%
%TO.N,/K3A*%
X141260000Y-144460000D03*
%TO.P,J7,10,Pin_10*%
X141260000Y-147000000D03*
%TO.P,J7,11,Pin_11*%
%TO.N,/K3B*%
X143800000Y-144460000D03*
%TO.P,J7,12,Pin_12*%
X143800000Y-147000000D03*
%TO.P,J7,13,Pin_13*%
%TO.N,/K4A*%
X146340000Y-144460000D03*
%TO.P,J7,14,Pin_14*%
X146340000Y-147000000D03*
%TO.P,J7,15,Pin_15*%
%TO.N,/K4B*%
X148880000Y-144460000D03*
%TO.P,J7,16,Pin_16*%
X148880000Y-147000000D03*
%TO.P,J7,17,Pin_17*%
%TO.N,/K5A*%
X151420000Y-144460000D03*
%TO.P,J7,18,Pin_18*%
X151420000Y-147000000D03*
%TO.P,J7,19,Pin_19*%
%TO.N,/K5B*%
X153960000Y-144460000D03*
%TO.P,J7,20,Pin_20*%
X153960000Y-147000000D03*
%TO.P,J7,21,Pin_21*%
%TO.N,/K6A*%
X156500000Y-144460000D03*
%TO.P,J7,22,Pin_22*%
X156500000Y-147000000D03*
%TO.P,J7,23,Pin_23*%
%TO.N,/K6B*%
X159040000Y-144460000D03*
%TO.P,J7,24,Pin_24*%
X159040000Y-147000000D03*
%TO.P,J7,25,Pin_25*%
%TO.N,/K7A*%
X161580000Y-144460000D03*
%TO.P,J7,26,Pin_26*%
X161580000Y-147000000D03*
%TO.P,J7,27,Pin_27*%
%TO.N,/K7B*%
X164120000Y-144460000D03*
%TO.P,J7,28,Pin_28*%
X164120000Y-147000000D03*
%TO.P,J7,29,Pin_29*%
%TO.N,/K8A*%
X166660000Y-144460000D03*
%TO.P,J7,30,Pin_30*%
X166660000Y-147000000D03*
%TO.P,J7,31,Pin_31*%
%TO.N,/K8B*%
X169200000Y-144460000D03*
%TO.P,J7,32,Pin_32*%
X169200000Y-147000000D03*
%TD*%
D34*
%TO.P,U4,1,QB*%
%TO.N,/K10*%
X185120000Y-96200000D03*
D35*
%TO.P,U4,2,QC*%
%TO.N,/K11*%
X182580000Y-96200000D03*
%TO.P,U4,3,QD*%
%TO.N,/K12*%
X180040000Y-96200000D03*
%TO.P,U4,4,QE*%
%TO.N,/K13*%
X177500000Y-96200000D03*
%TO.P,U4,5,QF*%
%TO.N,/K14*%
X174960000Y-96200000D03*
%TO.P,U4,6,QG*%
%TO.N,/K15*%
X172420000Y-96200000D03*
%TO.P,U4,7,QH*%
%TO.N,/K16*%
X169880000Y-96200000D03*
%TO.P,U4,8,GND*%
%TO.N,GND*%
X167340000Y-96200000D03*
%TO.P,U4,9,QH'*%
%TO.N,Net-(TP1-Pad1)*%
X167340000Y-103820000D03*
%TO.P,U4,10,~{SRCLR}*%
%TO.N,/~{RST}*%
X169880000Y-103820000D03*
%TO.P,U4,11,SRCLK*%
%TO.N,/CLK*%
X172420000Y-103820000D03*
%TO.P,U4,12,RCLK*%
%TO.N,/LATCH*%
X174960000Y-103820000D03*
%TO.P,U4,13,~{OE}*%
%TO.N,/~{OE}*%
X177500000Y-103820000D03*
%TO.P,U4,14,SER*%
%TO.N,/SER_OUT*%
X180040000Y-103820000D03*
%TO.P,U4,15,QA*%
%TO.N,/K9*%
X182580000Y-103820000D03*
%TO.P,U4,16,VCC*%
%TO.N,+5VD*%
X185120000Y-103820000D03*
%TD*%
D22*
%TO.P,D8,1,K*%
%TO.N,VDD*%
X182500000Y-115500000D03*
%TO.P,D8,2,A*%
%TO.N,Net-(D8-Pad2)*%
X182500000Y-118800000D03*
%TD*%
D38*
%TO.P,TP1,1,1*%
%TO.N,Net-(TP1-Pad1)*%
X167500000Y-107500000D03*
%TD*%
D16*
%TO.P,K4,1*%
%TO.N,/K4B*%
X141700000Y-122900000D03*
D17*
%TO.P,K4,2*%
%TO.N,Net-(D4-Pad2)*%
X141700000Y-125440000D03*
%TO.P,K4,6*%
%TO.N,VDD*%
X141700000Y-135700000D03*
%TO.P,K4,7*%
%TO.N,/K4A*%
X141700000Y-138140000D03*
%TO.P,K4,8*%
X149320000Y-138140000D03*
%TO.P,K4,9*%
%TO.N,N/C*%
X149320000Y-135700000D03*
%TO.P,K4,13*%
X149320000Y-125440000D03*
%TO.P,K4,14*%
%TO.N,/K4B*%
X149320000Y-122900000D03*
%TD*%
D16*
%TO.P,K10,1*%
%TO.N,/K10B*%
X178975000Y-76600000D03*
D17*
%TO.P,K10,2*%
%TO.N,Net-(D10-Pad2)*%
X178975000Y-74060000D03*
%TO.P,K10,6*%
%TO.N,VDD*%
X178975000Y-63800000D03*
%TO.P,K10,7*%
%TO.N,/K10A*%
X178975000Y-61360000D03*
%TO.P,K10,8*%
X171355000Y-61360000D03*
%TO.P,K10,9*%
%TO.N,N/C*%
X171355000Y-63800000D03*
%TO.P,K10,13*%
X171355000Y-74060000D03*
%TO.P,K10,14*%
%TO.N,/K10B*%
X171355000Y-76600000D03*
%TD*%
D16*
%TO.P,K14,1*%
%TO.N,/K14B*%
X138975000Y-76600000D03*
D17*
%TO.P,K14,2*%
%TO.N,Net-(D14-Pad2)*%
X138975000Y-74060000D03*
%TO.P,K14,6*%
%TO.N,VDDA*%
X138975000Y-63800000D03*
%TO.P,K14,7*%
%TO.N,/K14A*%
X138975000Y-61360000D03*
%TO.P,K14,8*%
X131355000Y-61360000D03*
%TO.P,K14,9*%
%TO.N,N/C*%
X131355000Y-63800000D03*
%TO.P,K14,13*%
X131355000Y-74060000D03*
%TO.P,K14,14*%
%TO.N,/K14B*%
X131355000Y-76600000D03*
%TD*%
D11*
%TO.P,Q2,1,G*%
%TO.N,/K2*%
X126450000Y-116562500D03*
%TO.P,Q2,2,S*%
%TO.N,GND*%
X124550000Y-116562500D03*
%TO.P,Q2,3,D*%
%TO.N,Net-(D2-Pad2)*%
X125500000Y-118437500D03*
%TD*%
D14*
%TO.P,C5,1*%
%TO.N,+5V*%
X124000000Y-104847349D03*
D15*
%TO.P,C5,2*%
%TO.N,GND*%
X124000000Y-108347349D03*
%TD*%
D20*
%TO.P,J5,1,Pin_1*%
%TO.N,+5V*%
X103475000Y-135975000D03*
D21*
%TO.P,J5,2,Pin_2*%
%TO.N,VDD*%
X106015000Y-135975000D03*
%TO.P,J5,3,Pin_3*%
%TO.N,+12V*%
X108555000Y-135975000D03*
%TD*%
D13*
%TO.P,R10,1*%
%TO.N,Net-(LD10-Pad1)*%
X174350000Y-85000000D03*
%TO.P,R10,2*%
%TO.N,GND*%
X176000000Y-85000000D03*
%TD*%
D18*
%TO.P,LD17,1,K*%
%TO.N,Net-(LD17-Pad1)*%
X137000000Y-101437500D03*
%TO.P,LD17,2,A*%
%TO.N,+5VD*%
X137000000Y-99562500D03*
%TD*%
D29*
%TO.P,LD3,1,K*%
%TO.N,Net-(LD3-Pad1)*%
X138500000Y-114562500D03*
%TO.P,LD3,2,A*%
%TO.N,/K3*%
X138500000Y-116437500D03*
%TD*%
D11*
%TO.P,Q6,1,G*%
%TO.N,/K6*%
X166450000Y-116562500D03*
%TO.P,Q6,2,S*%
%TO.N,GND*%
X164550000Y-116562500D03*
%TO.P,Q6,3,D*%
%TO.N,Net-(D6-Pad2)*%
X165500000Y-118437500D03*
%TD*%
D13*
%TO.P,R11,1*%
%TO.N,Net-(LD11-Pad1)*%
X164350000Y-85000000D03*
%TO.P,R11,2*%
%TO.N,GND*%
X166000000Y-85000000D03*
%TD*%
D39*
%TO.P,JP1,1,A*%
%TO.N,Net-(JP1-Pad1)*%
X195400000Y-89000000D03*
D32*
%TO.P,JP1,2,C*%
%TO.N,/~{RST}*%
X196700000Y-89000000D03*
D40*
%TO.P,JP1,3,B*%
%TO.N,GND*%
X198000000Y-89000000D03*
%TD*%
D10*
%TO.P,R3,1*%
%TO.N,Net-(LD3-Pad1)*%
X136325000Y-114500000D03*
%TO.P,R3,2*%
%TO.N,GND*%
X134675000Y-114500000D03*
%TD*%
D29*
%TO.P,LD4,1,K*%
%TO.N,Net-(LD4-Pad1)*%
X148500000Y-114562500D03*
%TO.P,LD4,2,A*%
%TO.N,/K4*%
X148500000Y-116437500D03*
%TD*%
D16*
%TO.P,K2,1*%
%TO.N,/K2B*%
X121700000Y-122900000D03*
D17*
%TO.P,K2,2*%
%TO.N,Net-(D2-Pad2)*%
X121700000Y-125440000D03*
%TO.P,K2,6*%
%TO.N,VDD*%
X121700000Y-135700000D03*
%TO.P,K2,7*%
%TO.N,/K2A*%
X121700000Y-138140000D03*
%TO.P,K2,8*%
X129320000Y-138140000D03*
%TO.P,K2,9*%
%TO.N,N/C*%
X129320000Y-135700000D03*
%TO.P,K2,13*%
X129320000Y-125440000D03*
%TO.P,K2,14*%
%TO.N,/K2B*%
X129320000Y-122900000D03*
%TD*%
D13*
%TO.P,R14,1*%
%TO.N,Net-(LD14-Pad1)*%
X134175000Y-85000000D03*
%TO.P,R14,2*%
%TO.N,GND*%
X135825000Y-85000000D03*
%TD*%
D22*
%TO.P,D2,1,K*%
%TO.N,VDD*%
X122500000Y-115850000D03*
%TO.P,D2,2,A*%
%TO.N,Net-(D2-Pad2)*%
X122500000Y-119150000D03*
%TD*%
D18*
%TO.P,LD9,1,K*%
%TO.N,Net-(LD9-Pad1)*%
X182175000Y-84937500D03*
%TO.P,LD9,2,A*%
%TO.N,/K9*%
X182175000Y-83062500D03*
%TD*%
D13*
%TO.P,R12,1*%
%TO.N,Net-(LD12-Pad1)*%
X154350000Y-85000000D03*
%TO.P,R12,2*%
%TO.N,GND*%
X156000000Y-85000000D03*
%TD*%
D29*
%TO.P,LD5,1,K*%
%TO.N,Net-(LD5-Pad1)*%
X158500000Y-114625000D03*
%TO.P,LD5,2,A*%
%TO.N,/K5*%
X158500000Y-116500000D03*
%TD*%
D20*
%TO.P,J1,1,Pin_1*%
%TO.N,/Vin*%
X105000000Y-74040000D03*
D21*
%TO.P,J1,2,Pin_2*%
%TO.N,GND*%
X105000000Y-71500000D03*
%TD*%
D13*
%TO.P,R19,1*%
%TO.N,Net-(R19-Pad1)*%
X116500000Y-109055000D03*
%TO.P,R19,2*%
%TO.N,Net-(R18-Pad1)*%
X118150000Y-109055000D03*
%TD*%
D23*
%TO.P,Q14,1,G*%
%TO.N,/K14*%
X134225000Y-82875000D03*
%TO.P,Q14,2,S*%
%TO.N,GND*%
X136125000Y-82875000D03*
%TO.P,Q14,3,D*%
%TO.N,Net-(D14-Pad2)*%
X135175000Y-81000000D03*
%TD*%
%TO.P,Q12,1,G*%
%TO.N,/K12*%
X154225000Y-82937500D03*
%TO.P,Q12,2,S*%
%TO.N,GND*%
X156125000Y-82937500D03*
%TO.P,Q12,3,D*%
%TO.N,Net-(D12-Pad2)*%
X155175000Y-81062500D03*
%TD*%
D16*
%TO.P,K15,1*%
%TO.N,/K15B*%
X128585000Y-76600000D03*
D17*
%TO.P,K15,2*%
%TO.N,Net-(D15-Pad2)*%
X128585000Y-74060000D03*
%TO.P,K15,6*%
%TO.N,VDDA*%
X128585000Y-63800000D03*
%TO.P,K15,7*%
%TO.N,/K15A*%
X128585000Y-61360000D03*
%TO.P,K15,8*%
X120965000Y-61360000D03*
%TO.P,K15,9*%
%TO.N,N/C*%
X120965000Y-63800000D03*
%TO.P,K15,13*%
X120965000Y-74060000D03*
%TO.P,K15,14*%
%TO.N,/K15B*%
X120965000Y-76600000D03*
%TD*%
M02*
