M48
; DRILL file {KiCad 6.0.8-f2edbf62ab~116~ubuntu22.04.1} date lun. 03 oct. 2022 01:51:51
; FORMAT={-:-/ absolute / metric / decimal}
; #@! TF.CreationDate,2022-10-03T01:51:51+02:00
; #@! TF.GenerationSoftware,Kicad,Pcbnew,6.0.8-f2edbf62ab~116~ubuntu22.04.1
; #@! TF.FileFunction,MixedPlating,1,2
FMAT,2
METRIC
; #@! TA.AperFunction,Plated,PTH,ComponentDrill
T1C0.700
; #@! TA.AperFunction,Plated,PTH,ComponentDrill
T2C0.800
; #@! TA.AperFunction,Plated,PTH,ComponentDrill
T3C1.000
; #@! TA.AperFunction,Plated,PTH,ComponentDrill
T4C1.100
; #@! TA.AperFunction,Plated,PTH,ComponentDrill
T5C1.600
; #@! TA.AperFunction,NonPlated,NPTH,ComponentDrill
T6C4.300
%
G90
G05
T1
X111.355Y-61.36
X111.355Y-63.8
X111.355Y-74.06
X111.355Y-76.6
X111.7Y-122.9
X111.7Y-125.44
X111.7Y-135.7
X111.7Y-138.14
X118.975Y-61.36
X118.975Y-63.8
X118.975Y-74.06
X118.975Y-76.6
X119.32Y-122.9
X119.32Y-125.44
X119.32Y-135.7
X119.32Y-138.14
X120.965Y-61.36
X120.965Y-63.8
X120.965Y-74.06
X120.965Y-76.6
X121.7Y-122.9
X121.7Y-125.44
X121.7Y-135.7
X121.7Y-138.14
X128.585Y-61.36
X128.585Y-63.8
X128.585Y-74.06
X128.585Y-76.6
X129.32Y-122.9
X129.32Y-125.44
X129.32Y-135.7
X129.32Y-138.14
X131.355Y-61.36
X131.355Y-63.8
X131.355Y-74.06
X131.355Y-76.6
X131.7Y-122.9
X131.7Y-125.44
X131.7Y-135.7
X131.7Y-138.14
X138.975Y-61.36
X138.975Y-63.8
X138.975Y-74.06
X138.975Y-76.6
X139.32Y-122.9
X139.32Y-125.44
X139.32Y-135.7
X139.32Y-138.14
X141.355Y-61.36
X141.355Y-63.8
X141.355Y-74.06
X141.355Y-76.6
X141.7Y-122.9
X141.7Y-125.44
X141.7Y-135.7
X141.7Y-138.14
X148.975Y-61.36
X148.975Y-63.8
X148.975Y-74.06
X148.975Y-76.6
X149.32Y-122.9
X149.32Y-125.44
X149.32Y-135.7
X149.32Y-138.14
X151.355Y-61.36
X151.355Y-63.8
X151.355Y-74.06
X151.355Y-76.6
X151.7Y-122.9
X151.7Y-125.44
X151.7Y-135.7
X151.7Y-138.14
X158.975Y-61.36
X158.975Y-63.8
X158.975Y-74.06
X158.975Y-76.6
X159.32Y-122.9
X159.32Y-125.44
X159.32Y-135.7
X159.32Y-138.14
X161.355Y-61.36
X161.355Y-63.8
X161.355Y-74.06
X161.355Y-76.6
X161.7Y-122.9
X161.7Y-125.44
X161.7Y-135.7
X161.7Y-138.14
X168.975Y-61.36
X168.975Y-63.8
X168.975Y-74.06
X168.975Y-76.6
X169.32Y-122.9
X169.32Y-125.44
X169.32Y-135.7
X169.32Y-138.14
X171.355Y-61.36
X171.355Y-63.8
X171.355Y-74.06
X171.355Y-76.6
X171.7Y-122.9
X171.7Y-125.44
X171.7Y-135.7
X171.7Y-138.14
X178.975Y-61.36
X178.975Y-63.8
X178.975Y-74.06
X178.975Y-76.6
X179.32Y-122.9
X179.32Y-125.44
X179.32Y-135.7
X179.32Y-138.14
X181.355Y-61.36
X181.355Y-63.8
X181.355Y-74.06
X181.355Y-76.6
X181.7Y-122.9
X181.7Y-125.44
X181.7Y-135.7
X181.7Y-138.14
X188.975Y-61.36
X188.975Y-63.8
X188.975Y-74.06
X188.975Y-76.6
X189.32Y-122.9
X189.32Y-125.44
X189.32Y-135.7
X189.32Y-138.14
T2
X105.0Y-91.5
X105.0Y-95.0
X121.65Y-100.0
X124.0Y-91.347
X124.0Y-94.847
X124.0Y-104.847
X124.0Y-108.347
X132.5Y-104.847
X132.5Y-108.347
X134.35Y-100.0
X145.5Y-96.18
X145.5Y-103.8
X148.04Y-96.18
X148.04Y-103.8
X150.58Y-96.18
X150.58Y-103.8
X153.12Y-96.18
X153.12Y-103.8
X155.66Y-96.18
X155.66Y-103.8
X158.2Y-96.18
X158.2Y-103.8
X160.74Y-96.18
X160.74Y-103.8
X163.28Y-96.18
X163.28Y-103.8
X167.34Y-96.2
X167.34Y-103.82
X169.88Y-96.2
X169.88Y-103.82
X172.42Y-96.2
X172.42Y-103.82
X174.96Y-96.2
X174.96Y-103.82
X177.5Y-96.2
X177.5Y-103.82
X180.04Y-96.2
X180.04Y-103.82
X182.58Y-96.2
X182.58Y-103.82
X185.12Y-96.2
X185.12Y-103.82
T3
X102.975Y-63.475
X103.475Y-135.975
X105.0Y-71.5
X105.0Y-74.04
X105.515Y-63.475
X106.015Y-135.975
X108.055Y-63.475
X108.555Y-135.975
X111.96Y-88.0
X111.96Y-100.055
X114.5Y-88.0
X114.5Y-100.055
X131.1Y-144.46
X131.1Y-147.0
X133.64Y-144.46
X133.64Y-147.0
X136.18Y-144.46
X136.18Y-147.0
X138.72Y-144.46
X138.72Y-147.0
X141.26Y-144.46
X141.26Y-147.0
X143.8Y-144.46
X143.8Y-147.0
X146.34Y-144.46
X146.34Y-147.0
X148.88Y-144.46
X148.88Y-147.0
X151.42Y-144.46
X151.42Y-147.0
X153.96Y-144.46
X153.96Y-147.0
X156.5Y-144.46
X156.5Y-147.0
X159.04Y-144.46
X159.04Y-147.0
X161.58Y-144.46
X161.58Y-147.0
X164.12Y-144.46
X164.12Y-147.0
X166.66Y-144.46
X166.66Y-147.0
X169.2Y-144.46
X169.2Y-147.0
X197.525Y-103.7
X197.525Y-106.24
X197.525Y-108.78
X197.525Y-111.32
T4
X105.0Y-76.92
X105.0Y-87.08
X111.92Y-91.5
X111.92Y-103.555
X114.46Y-91.5
X114.46Y-103.555
X117.0Y-91.5
X117.0Y-103.555
X193.0Y-94.25
X193.0Y-100.75
X193.025Y-79.25
X193.025Y-85.75
X197.5Y-94.25
X197.5Y-100.75
X197.525Y-79.25
X197.525Y-85.75
T5
X167.5Y-107.5
T6
X105.0Y-55.0
X105.0Y-145.0
X195.0Y-55.0
X195.0Y-145.0
T0
M30
