%FSLAX45Y45*%
G04 Gerber Fmt 4.5, Leading zero omitted, Abs format (unit mm)*
G04 Created by KiCad (PCBNEW (6.0.2)) date 2022-08-02 15:31:20*
%MOMM*%
%LPD*%
G01*
G04 APERTURE LIST*
%TA.AperFunction,Profile*%
%ADD10C,0.100000*%
%TD*%
%ADD11C,0.200000*%
%ADD12C,0.040000*%
%ADD13C,0.080000*%
%ADD14C,0.090000*%
%ADD15C,0.110000*%
%ADD16C,0.120000*%
%ADD17C,0.150000*%
%ADD18C,0.350000*%
G04 APERTURE END LIST*
D10*
X14500000Y-10500000D02*
X14500000Y-16100000D01*
X12190000Y-16550000D02*
X13750000Y-16550000D01*
X10500000Y-10000000D02*
G75*
G03*
X10000000Y-10500000I0J-500000D01*
G01*
X10775000Y-16125000D02*
X10775000Y-15075000D01*
X10625000Y-16350000D02*
G75*
G03*
X10675000Y-16300000I0J50000D01*
G01*
X10000000Y-16100000D02*
X10000000Y-10500000D01*
X11650000Y-15500000D02*
G75*
G03*
X11650000Y-15400000I0J50000D01*
G01*
X10925000Y-17350000D02*
X10925000Y-16800000D01*
X11690000Y-16350000D02*
X11375000Y-16350000D01*
X11500000Y-15500000D02*
X11650000Y-15500000D01*
X11670000Y-17800000D02*
X13650000Y-17800000D01*
X10925000Y-17350000D02*
G75*
G03*
X11170000Y-17600000I250051J0D01*
G01*
X11690000Y-16550000D02*
X11175000Y-16550000D01*
X10725000Y-17800000D02*
G75*
G03*
X10725000Y-18500000I0J-350000D01*
G01*
X13650000Y-17600000D02*
X11670000Y-17600000D01*
X11325000Y-16300000D02*
G75*
G03*
X11375000Y-16350000I50000J0D01*
G01*
X11325000Y-16300000D02*
X11325000Y-15800000D01*
X13750000Y-16350000D02*
X12190000Y-16350000D01*
X11170000Y-17800000D02*
X10725000Y-17800000D01*
X14250000Y-16350000D02*
G75*
G03*
X14500000Y-16100000I0J250000D01*
G01*
X14500000Y-10500000D02*
G75*
G03*
X14000000Y-10000000I-476686J23314D01*
G01*
X11500000Y-15500000D02*
G75*
G03*
X11325000Y-15675000I0J-175000D01*
G01*
X11175000Y-16550000D02*
G75*
G03*
X10925000Y-16800000I0J-250000D01*
G01*
X14250000Y-17600000D02*
G75*
G03*
X14500000Y-17350000I0J250000D01*
G01*
X14500000Y-16800000D02*
G75*
G03*
X14250000Y-16550000I-250000J0D01*
G01*
X11225000Y-16125000D02*
X11225000Y-15675000D01*
X11650000Y-15400000D02*
X11500000Y-15400000D01*
X10500000Y-10000000D02*
X14000000Y-10000000D01*
X14500000Y-16800000D02*
X14500000Y-17350000D01*
X10000000Y-16100000D02*
G75*
G03*
X10250000Y-16350000I250000J0D01*
G01*
X11325000Y-15675000D02*
X11325000Y-15800000D01*
X10675000Y-15075000D02*
X10675000Y-16300000D01*
X10775000Y-15075000D02*
G75*
G03*
X10675000Y-15075000I-50000J0D01*
G01*
X10250000Y-16350000D02*
X10625000Y-16350000D01*
X10775000Y-16125000D02*
G75*
G03*
X11225000Y-16125000I225000J0D01*
G01*
X10725000Y-18500000D02*
X14148500Y-18500000D01*
X14148500Y-18500000D02*
G75*
G03*
X14150000Y-17800000I0J350002D01*
G01*
X11500000Y-15400000D02*
G75*
G03*
X11225000Y-15675000I0J-275000D01*
G01*
X14250000Y-17600000D02*
X14150000Y-17600000D01*
D11*
D12*
X12680000Y-17380000D02*
X12720000Y-17420000D01*
X12720000Y-17380000D02*
X12680000Y-17420000D01*
D13*
X13315000Y-16125000D02*
G75*
G03*
X13315000Y-16125000I-40000J0D01*
G01*
X12169500Y-18122500D02*
X12169500Y-18202500D01*
X12129500Y-18162500D02*
X12209500Y-18162500D01*
X12423500Y-18122500D02*
X12423500Y-18202500D01*
X12383500Y-18162500D02*
X12463500Y-18162500D01*
X12677500Y-18122500D02*
X12677500Y-18202500D01*
X12637500Y-18162500D02*
X12717500Y-18162500D01*
D14*
X11579320Y-17206820D02*
X11579320Y-17143180D01*
X11515680Y-17143180D01*
X11515680Y-17206820D01*
X11579320Y-17206820D01*
X11833320Y-17206820D02*
X11833320Y-17143180D01*
X11769680Y-17143180D01*
X11769680Y-17206820D01*
X11833320Y-17206820D01*
D15*
X10500000Y-10947000D02*
X10555000Y-10892000D01*
X10500000Y-10837000D01*
X10445000Y-10892000D01*
X10500000Y-10947000D01*
X10500000Y-11963000D02*
X10555000Y-11908000D01*
X10500000Y-11853000D01*
X10445000Y-11908000D01*
X10500000Y-11963000D01*
X10500000Y-13147000D02*
X10555000Y-13092000D01*
X10500000Y-13037000D01*
X10445000Y-13092000D01*
X10500000Y-13147000D01*
X10500000Y-14163000D02*
X10555000Y-14108000D01*
X10500000Y-14053000D01*
X10445000Y-14108000D01*
X10500000Y-14163000D01*
X13275000Y-15205000D02*
X13330000Y-15150000D01*
X13275000Y-15095000D01*
X13220000Y-15150000D01*
X13275000Y-15205000D01*
X14291000Y-15205000D02*
X14346000Y-15150000D01*
X14291000Y-15095000D01*
X14236000Y-15150000D01*
X14291000Y-15205000D01*
X14300000Y-13797000D02*
X14355000Y-13742000D01*
X14300000Y-13687000D01*
X14245000Y-13742000D01*
X14300000Y-13797000D01*
X14300000Y-14813000D02*
X14355000Y-14758000D01*
X14300000Y-14703000D01*
X14245000Y-14758000D01*
X14300000Y-14813000D01*
D16*
X10340000Y-15190000D02*
X10460000Y-15310000D01*
X10460000Y-15190000D02*
X10340000Y-15310000D01*
X10460000Y-15250000D02*
G75*
G03*
X10460000Y-15250000I-60000J0D01*
G01*
X10440000Y-10440000D02*
X10560000Y-10560000D01*
X10560000Y-10440000D02*
X10440000Y-10560000D01*
X10560000Y-10500000D02*
G75*
G03*
X10560000Y-10500000I-60000J0D01*
G01*
X10440000Y-12240000D02*
X10560000Y-12360000D01*
X10560000Y-12240000D02*
X10440000Y-12360000D01*
X10560000Y-12300000D02*
G75*
G03*
X10560000Y-12300000I-60000J0D01*
G01*
X10440000Y-12640000D02*
X10560000Y-12760000D01*
X10560000Y-12640000D02*
X10440000Y-12760000D01*
X10560000Y-12700000D02*
G75*
G03*
X10560000Y-12700000I-60000J0D01*
G01*
X10440000Y-14440000D02*
X10560000Y-14560000D01*
X10560000Y-14440000D02*
X10440000Y-14560000D01*
X10560000Y-14500000D02*
G75*
G03*
X10560000Y-14500000I-60000J0D01*
G01*
X10590000Y-18060000D02*
X10710000Y-18180000D01*
X10710000Y-18060000D02*
X10590000Y-18180000D01*
X10710000Y-18120000D02*
G75*
G03*
X10710000Y-18120000I-60000J0D01*
G01*
X10940000Y-18060000D02*
X11060000Y-18180000D01*
X11060000Y-18060000D02*
X10940000Y-18180000D01*
X11060000Y-18120000D02*
G75*
G03*
X11060000Y-18120000I-60000J0D01*
G01*
X11090000Y-17115000D02*
X11210000Y-17235000D01*
X11210000Y-17115000D02*
X11090000Y-17235000D01*
X11210000Y-17175000D02*
G75*
G03*
X11210000Y-17175000I-60000J0D01*
G01*
X11790000Y-18110000D02*
X11910000Y-18230000D01*
X11910000Y-18110000D02*
X11790000Y-18230000D01*
X11910000Y-18170000D02*
G75*
G03*
X11910000Y-18170000I-60000J0D01*
G01*
X13040000Y-14640000D02*
X13160000Y-14760000D01*
X13160000Y-14640000D02*
X13040000Y-14760000D01*
X13160000Y-14700000D02*
G75*
G03*
X13160000Y-14700000I-60000J0D01*
G01*
X14190000Y-17040000D02*
X14310000Y-17160000D01*
X14310000Y-17040000D02*
X14190000Y-17160000D01*
X14310000Y-17100000D02*
G75*
G03*
X14310000Y-17100000I-60000J0D01*
G01*
X14213500Y-18110000D02*
X14333500Y-18230000D01*
X14333500Y-18110000D02*
X14213500Y-18230000D01*
X14333500Y-18170000D02*
G75*
G03*
X14333500Y-18170000I-60000J0D01*
G01*
D17*
X10380000Y-15943000D02*
X10530000Y-16093000D01*
X10530000Y-15943000D02*
X10380000Y-16093000D01*
X10455000Y-15943000D02*
X10455000Y-16093000D01*
X10380000Y-16018000D02*
X10530000Y-16018000D01*
X10925000Y-15943000D02*
X11075000Y-16093000D01*
X11075000Y-15943000D02*
X10925000Y-16093000D01*
X11000000Y-15943000D02*
X11000000Y-16093000D01*
X10925000Y-16018000D02*
X11075000Y-16018000D01*
X11425000Y-15075000D02*
X11575000Y-15225000D01*
X11575000Y-15075000D02*
X11425000Y-15225000D01*
X11500000Y-15075000D02*
X11500000Y-15225000D01*
X11425000Y-15150000D02*
X11575000Y-15150000D01*
X11470000Y-15943000D02*
X11620000Y-16093000D01*
X11620000Y-15943000D02*
X11470000Y-16093000D01*
X11545000Y-15943000D02*
X11545000Y-16093000D01*
X11470000Y-16018000D02*
X11620000Y-16018000D01*
X12825000Y-15075000D02*
X12975000Y-15225000D01*
X12975000Y-15075000D02*
X12825000Y-15225000D01*
X12900000Y-15075000D02*
X12900000Y-15225000D01*
X12825000Y-15150000D02*
X12975000Y-15150000D01*
D18*
X12025000Y-10275000D02*
X12375000Y-10625000D01*
X12375000Y-10275000D02*
X12025000Y-10625000D01*
X12323745Y-10573745D02*
X12323745Y-10326255D01*
X12076255Y-10326255D01*
X12076255Y-10573745D01*
X12323745Y-10573745D01*
X12025000Y-10275000D02*
X12375000Y-10625000D01*
X12375000Y-10275000D02*
X12025000Y-10625000D01*
X12323745Y-10573745D02*
X12323745Y-10326255D01*
X12076255Y-10326255D01*
X12076255Y-10573745D01*
X12323745Y-10573745D01*
D11*
X10252619Y-18815476D02*
X10252619Y-18615476D01*
X10300238Y-18615476D01*
X10328810Y-18625000D01*
X10347857Y-18644048D01*
X10357381Y-18663095D01*
X10366905Y-18701190D01*
X10366905Y-18729762D01*
X10357381Y-18767857D01*
X10347857Y-18786905D01*
X10328810Y-18805952D01*
X10300238Y-18815476D01*
X10252619Y-18815476D01*
X10452619Y-18815476D02*
X10452619Y-18682143D01*
X10452619Y-18720238D02*
X10462143Y-18701190D01*
X10471667Y-18691667D01*
X10490714Y-18682143D01*
X10509762Y-18682143D01*
X10576429Y-18815476D02*
X10576429Y-18682143D01*
X10576429Y-18615476D02*
X10566905Y-18625000D01*
X10576429Y-18634524D01*
X10585952Y-18625000D01*
X10576429Y-18615476D01*
X10576429Y-18634524D01*
X10700238Y-18815476D02*
X10681190Y-18805952D01*
X10671667Y-18786905D01*
X10671667Y-18615476D01*
X10805000Y-18815476D02*
X10785952Y-18805952D01*
X10776429Y-18786905D01*
X10776429Y-18615476D01*
X11033571Y-18815476D02*
X11033571Y-18615476D01*
X11100238Y-18758333D01*
X11166905Y-18615476D01*
X11166905Y-18815476D01*
X11347857Y-18815476D02*
X11347857Y-18710714D01*
X11338333Y-18691667D01*
X11319286Y-18682143D01*
X11281190Y-18682143D01*
X11262143Y-18691667D01*
X11347857Y-18805952D02*
X11328809Y-18815476D01*
X11281190Y-18815476D01*
X11262143Y-18805952D01*
X11252619Y-18786905D01*
X11252619Y-18767857D01*
X11262143Y-18748810D01*
X11281190Y-18739286D01*
X11328809Y-18739286D01*
X11347857Y-18729762D01*
X11443095Y-18682143D02*
X11443095Y-18882143D01*
X11443095Y-18691667D02*
X11462143Y-18682143D01*
X11500238Y-18682143D01*
X11519286Y-18691667D01*
X11528809Y-18701190D01*
X11538333Y-18720238D01*
X11538333Y-18777381D01*
X11528809Y-18796429D01*
X11519286Y-18805952D01*
X11500238Y-18815476D01*
X11462143Y-18815476D01*
X11443095Y-18805952D01*
X11624048Y-18796429D02*
X11633571Y-18805952D01*
X11624048Y-18815476D01*
X11614524Y-18805952D01*
X11624048Y-18796429D01*
X11624048Y-18815476D01*
X11624048Y-18691667D02*
X11633571Y-18701190D01*
X11624048Y-18710714D01*
X11614524Y-18701190D01*
X11624048Y-18691667D01*
X11624048Y-18710714D01*
D12*
X9955000Y-19125000D02*
X9995000Y-19165000D01*
X9995000Y-19125000D02*
X9955000Y-19165000D01*
D11*
X10290714Y-19035476D02*
X10309762Y-19035476D01*
X10328810Y-19045000D01*
X10338333Y-19054524D01*
X10347857Y-19073571D01*
X10357381Y-19111667D01*
X10357381Y-19159286D01*
X10347857Y-19197381D01*
X10338333Y-19216429D01*
X10328810Y-19225952D01*
X10309762Y-19235476D01*
X10290714Y-19235476D01*
X10271667Y-19225952D01*
X10262143Y-19216429D01*
X10252619Y-19197381D01*
X10243095Y-19159286D01*
X10243095Y-19111667D01*
X10252619Y-19073571D01*
X10262143Y-19054524D01*
X10271667Y-19045000D01*
X10290714Y-19035476D01*
X10443095Y-19216429D02*
X10452619Y-19225952D01*
X10443095Y-19235476D01*
X10433571Y-19225952D01*
X10443095Y-19216429D01*
X10443095Y-19235476D01*
X10624048Y-19102143D02*
X10624048Y-19235476D01*
X10576429Y-19025952D02*
X10528810Y-19168810D01*
X10652619Y-19168810D01*
X10766905Y-19035476D02*
X10785952Y-19035476D01*
X10805000Y-19045000D01*
X10814524Y-19054524D01*
X10824048Y-19073571D01*
X10833571Y-19111667D01*
X10833571Y-19159286D01*
X10824048Y-19197381D01*
X10814524Y-19216429D01*
X10805000Y-19225952D01*
X10785952Y-19235476D01*
X10766905Y-19235476D01*
X10747857Y-19225952D01*
X10738333Y-19216429D01*
X10728810Y-19197381D01*
X10719286Y-19159286D01*
X10719286Y-19111667D01*
X10728810Y-19073571D01*
X10738333Y-19054524D01*
X10747857Y-19045000D01*
X10766905Y-19035476D01*
X10957381Y-19035476D02*
X10976429Y-19035476D01*
X10995476Y-19045000D01*
X11005000Y-19054524D01*
X11014524Y-19073571D01*
X11024048Y-19111667D01*
X11024048Y-19159286D01*
X11014524Y-19197381D01*
X11005000Y-19216429D01*
X10995476Y-19225952D01*
X10976429Y-19235476D01*
X10957381Y-19235476D01*
X10938333Y-19225952D01*
X10928810Y-19216429D01*
X10919286Y-19197381D01*
X10909762Y-19159286D01*
X10909762Y-19111667D01*
X10919286Y-19073571D01*
X10928810Y-19054524D01*
X10938333Y-19045000D01*
X10957381Y-19035476D01*
X11109762Y-19235476D02*
X11109762Y-19102143D01*
X11109762Y-19121190D02*
X11119286Y-19111667D01*
X11138333Y-19102143D01*
X11166905Y-19102143D01*
X11185952Y-19111667D01*
X11195476Y-19130714D01*
X11195476Y-19235476D01*
X11195476Y-19130714D02*
X11205000Y-19111667D01*
X11224048Y-19102143D01*
X11252619Y-19102143D01*
X11271667Y-19111667D01*
X11281190Y-19130714D01*
X11281190Y-19235476D01*
X11376428Y-19235476D02*
X11376428Y-19102143D01*
X11376428Y-19121190D02*
X11385952Y-19111667D01*
X11405000Y-19102143D01*
X11433571Y-19102143D01*
X11452619Y-19111667D01*
X11462143Y-19130714D01*
X11462143Y-19235476D01*
X11462143Y-19130714D02*
X11471667Y-19111667D01*
X11490714Y-19102143D01*
X11519286Y-19102143D01*
X11538333Y-19111667D01*
X11547857Y-19130714D01*
X11547857Y-19235476D01*
X11938333Y-19025952D02*
X11766905Y-19283095D01*
X12195476Y-19035476D02*
X12214524Y-19035476D01*
X12233571Y-19045000D01*
X12243095Y-19054524D01*
X12252619Y-19073571D01*
X12262143Y-19111667D01*
X12262143Y-19159286D01*
X12252619Y-19197381D01*
X12243095Y-19216429D01*
X12233571Y-19225952D01*
X12214524Y-19235476D01*
X12195476Y-19235476D01*
X12176428Y-19225952D01*
X12166905Y-19216429D01*
X12157381Y-19197381D01*
X12147857Y-19159286D01*
X12147857Y-19111667D01*
X12157381Y-19073571D01*
X12166905Y-19054524D01*
X12176428Y-19045000D01*
X12195476Y-19035476D01*
X12347857Y-19216429D02*
X12357381Y-19225952D01*
X12347857Y-19235476D01*
X12338333Y-19225952D01*
X12347857Y-19216429D01*
X12347857Y-19235476D01*
X12481190Y-19035476D02*
X12500238Y-19035476D01*
X12519286Y-19045000D01*
X12528809Y-19054524D01*
X12538333Y-19073571D01*
X12547857Y-19111667D01*
X12547857Y-19159286D01*
X12538333Y-19197381D01*
X12528809Y-19216429D01*
X12519286Y-19225952D01*
X12500238Y-19235476D01*
X12481190Y-19235476D01*
X12462143Y-19225952D01*
X12452619Y-19216429D01*
X12443095Y-19197381D01*
X12433571Y-19159286D01*
X12433571Y-19111667D01*
X12443095Y-19073571D01*
X12452619Y-19054524D01*
X12462143Y-19045000D01*
X12481190Y-19035476D01*
X12738333Y-19235476D02*
X12624048Y-19235476D01*
X12681190Y-19235476D02*
X12681190Y-19035476D01*
X12662143Y-19064048D01*
X12643095Y-19083095D01*
X12624048Y-19092619D01*
X12919286Y-19035476D02*
X12824048Y-19035476D01*
X12814524Y-19130714D01*
X12824048Y-19121190D01*
X12843095Y-19111667D01*
X12890714Y-19111667D01*
X12909762Y-19121190D01*
X12919286Y-19130714D01*
X12928809Y-19149762D01*
X12928809Y-19197381D01*
X12919286Y-19216429D01*
X12909762Y-19225952D01*
X12890714Y-19235476D01*
X12843095Y-19235476D01*
X12824048Y-19225952D01*
X12814524Y-19216429D01*
X12995476Y-19035476D02*
X13128809Y-19035476D01*
X13043095Y-19235476D01*
X13195476Y-19035476D02*
X13195476Y-19073571D01*
X13271667Y-19035476D02*
X13271667Y-19073571D01*
X13566905Y-19311667D02*
X13557381Y-19302143D01*
X13538333Y-19273571D01*
X13528809Y-19254524D01*
X13519286Y-19225952D01*
X13509762Y-19178333D01*
X13509762Y-19140238D01*
X13519286Y-19092619D01*
X13528809Y-19064048D01*
X13538333Y-19045000D01*
X13557381Y-19016429D01*
X13566905Y-19006905D01*
X13747857Y-19235476D02*
X13633571Y-19235476D01*
X13690714Y-19235476D02*
X13690714Y-19035476D01*
X13671667Y-19064048D01*
X13652619Y-19083095D01*
X13633571Y-19092619D01*
X13985952Y-19235476D02*
X13985952Y-19035476D01*
X14071667Y-19235476D02*
X14071667Y-19130714D01*
X14062143Y-19111667D01*
X14043095Y-19102143D01*
X14014524Y-19102143D01*
X13995476Y-19111667D01*
X13985952Y-19121190D01*
X14195476Y-19235476D02*
X14176428Y-19225952D01*
X14166905Y-19216429D01*
X14157381Y-19197381D01*
X14157381Y-19140238D01*
X14166905Y-19121190D01*
X14176428Y-19111667D01*
X14195476Y-19102143D01*
X14224048Y-19102143D01*
X14243095Y-19111667D01*
X14252619Y-19121190D01*
X14262143Y-19140238D01*
X14262143Y-19197381D01*
X14252619Y-19216429D01*
X14243095Y-19225952D01*
X14224048Y-19235476D01*
X14195476Y-19235476D01*
X14376428Y-19235476D02*
X14357381Y-19225952D01*
X14347857Y-19206905D01*
X14347857Y-19035476D01*
X14528809Y-19225952D02*
X14509762Y-19235476D01*
X14471667Y-19235476D01*
X14452619Y-19225952D01*
X14443095Y-19206905D01*
X14443095Y-19130714D01*
X14452619Y-19111667D01*
X14471667Y-19102143D01*
X14509762Y-19102143D01*
X14528809Y-19111667D01*
X14538333Y-19130714D01*
X14538333Y-19149762D01*
X14443095Y-19168810D01*
X14605000Y-19311667D02*
X14614524Y-19302143D01*
X14633571Y-19273571D01*
X14643095Y-19254524D01*
X14652619Y-19225952D01*
X14662143Y-19178333D01*
X14662143Y-19140238D01*
X14652619Y-19092619D01*
X14643095Y-19064048D01*
X14633571Y-19045000D01*
X14614524Y-19016429D01*
X14605000Y-19006905D01*
D13*
X9995000Y-19409000D02*
G75*
G03*
X9995000Y-19409000I-40000J0D01*
G01*
D11*
X10290714Y-19299476D02*
X10309762Y-19299476D01*
X10328810Y-19309000D01*
X10338333Y-19318524D01*
X10347857Y-19337571D01*
X10357381Y-19375667D01*
X10357381Y-19423286D01*
X10347857Y-19461381D01*
X10338333Y-19480429D01*
X10328810Y-19489952D01*
X10309762Y-19499476D01*
X10290714Y-19499476D01*
X10271667Y-19489952D01*
X10262143Y-19480429D01*
X10252619Y-19461381D01*
X10243095Y-19423286D01*
X10243095Y-19375667D01*
X10252619Y-19337571D01*
X10262143Y-19318524D01*
X10271667Y-19309000D01*
X10290714Y-19299476D01*
X10443095Y-19480429D02*
X10452619Y-19489952D01*
X10443095Y-19499476D01*
X10433571Y-19489952D01*
X10443095Y-19480429D01*
X10443095Y-19499476D01*
X10566905Y-19385190D02*
X10547857Y-19375667D01*
X10538333Y-19366143D01*
X10528810Y-19347095D01*
X10528810Y-19337571D01*
X10538333Y-19318524D01*
X10547857Y-19309000D01*
X10566905Y-19299476D01*
X10605000Y-19299476D01*
X10624048Y-19309000D01*
X10633571Y-19318524D01*
X10643095Y-19337571D01*
X10643095Y-19347095D01*
X10633571Y-19366143D01*
X10624048Y-19375667D01*
X10605000Y-19385190D01*
X10566905Y-19385190D01*
X10547857Y-19394714D01*
X10538333Y-19404238D01*
X10528810Y-19423286D01*
X10528810Y-19461381D01*
X10538333Y-19480429D01*
X10547857Y-19489952D01*
X10566905Y-19499476D01*
X10605000Y-19499476D01*
X10624048Y-19489952D01*
X10633571Y-19480429D01*
X10643095Y-19461381D01*
X10643095Y-19423286D01*
X10633571Y-19404238D01*
X10624048Y-19394714D01*
X10605000Y-19385190D01*
X10766905Y-19299476D02*
X10785952Y-19299476D01*
X10805000Y-19309000D01*
X10814524Y-19318524D01*
X10824048Y-19337571D01*
X10833571Y-19375667D01*
X10833571Y-19423286D01*
X10824048Y-19461381D01*
X10814524Y-19480429D01*
X10805000Y-19489952D01*
X10785952Y-19499476D01*
X10766905Y-19499476D01*
X10747857Y-19489952D01*
X10738333Y-19480429D01*
X10728810Y-19461381D01*
X10719286Y-19423286D01*
X10719286Y-19375667D01*
X10728810Y-19337571D01*
X10738333Y-19318524D01*
X10747857Y-19309000D01*
X10766905Y-19299476D01*
X10957381Y-19299476D02*
X10976429Y-19299476D01*
X10995476Y-19309000D01*
X11005000Y-19318524D01*
X11014524Y-19337571D01*
X11024048Y-19375667D01*
X11024048Y-19423286D01*
X11014524Y-19461381D01*
X11005000Y-19480429D01*
X10995476Y-19489952D01*
X10976429Y-19499476D01*
X10957381Y-19499476D01*
X10938333Y-19489952D01*
X10928810Y-19480429D01*
X10919286Y-19461381D01*
X10909762Y-19423286D01*
X10909762Y-19375667D01*
X10919286Y-19337571D01*
X10928810Y-19318524D01*
X10938333Y-19309000D01*
X10957381Y-19299476D01*
X11109762Y-19499476D02*
X11109762Y-19366143D01*
X11109762Y-19385190D02*
X11119286Y-19375667D01*
X11138333Y-19366143D01*
X11166905Y-19366143D01*
X11185952Y-19375667D01*
X11195476Y-19394714D01*
X11195476Y-19499476D01*
X11195476Y-19394714D02*
X11205000Y-19375667D01*
X11224048Y-19366143D01*
X11252619Y-19366143D01*
X11271667Y-19375667D01*
X11281190Y-19394714D01*
X11281190Y-19499476D01*
X11376428Y-19499476D02*
X11376428Y-19366143D01*
X11376428Y-19385190D02*
X11385952Y-19375667D01*
X11405000Y-19366143D01*
X11433571Y-19366143D01*
X11452619Y-19375667D01*
X11462143Y-19394714D01*
X11462143Y-19499476D01*
X11462143Y-19394714D02*
X11471667Y-19375667D01*
X11490714Y-19366143D01*
X11519286Y-19366143D01*
X11538333Y-19375667D01*
X11547857Y-19394714D01*
X11547857Y-19499476D01*
X11938333Y-19289952D02*
X11766905Y-19547095D01*
X12195476Y-19299476D02*
X12214524Y-19299476D01*
X12233571Y-19309000D01*
X12243095Y-19318524D01*
X12252619Y-19337571D01*
X12262143Y-19375667D01*
X12262143Y-19423286D01*
X12252619Y-19461381D01*
X12243095Y-19480429D01*
X12233571Y-19489952D01*
X12214524Y-19499476D01*
X12195476Y-19499476D01*
X12176428Y-19489952D01*
X12166905Y-19480429D01*
X12157381Y-19461381D01*
X12147857Y-19423286D01*
X12147857Y-19375667D01*
X12157381Y-19337571D01*
X12166905Y-19318524D01*
X12176428Y-19309000D01*
X12195476Y-19299476D01*
X12347857Y-19480429D02*
X12357381Y-19489952D01*
X12347857Y-19499476D01*
X12338333Y-19489952D01*
X12347857Y-19480429D01*
X12347857Y-19499476D01*
X12481190Y-19299476D02*
X12500238Y-19299476D01*
X12519286Y-19309000D01*
X12528809Y-19318524D01*
X12538333Y-19337571D01*
X12547857Y-19375667D01*
X12547857Y-19423286D01*
X12538333Y-19461381D01*
X12528809Y-19480429D01*
X12519286Y-19489952D01*
X12500238Y-19499476D01*
X12481190Y-19499476D01*
X12462143Y-19489952D01*
X12452619Y-19480429D01*
X12443095Y-19461381D01*
X12433571Y-19423286D01*
X12433571Y-19375667D01*
X12443095Y-19337571D01*
X12452619Y-19318524D01*
X12462143Y-19309000D01*
X12481190Y-19299476D01*
X12614524Y-19299476D02*
X12738333Y-19299476D01*
X12671667Y-19375667D01*
X12700238Y-19375667D01*
X12719286Y-19385190D01*
X12728809Y-19394714D01*
X12738333Y-19413762D01*
X12738333Y-19461381D01*
X12728809Y-19480429D01*
X12719286Y-19489952D01*
X12700238Y-19499476D01*
X12643095Y-19499476D01*
X12624048Y-19489952D01*
X12614524Y-19480429D01*
X12928809Y-19499476D02*
X12814524Y-19499476D01*
X12871667Y-19499476D02*
X12871667Y-19299476D01*
X12852619Y-19328048D01*
X12833571Y-19347095D01*
X12814524Y-19356619D01*
X13109762Y-19299476D02*
X13014524Y-19299476D01*
X13005000Y-19394714D01*
X13014524Y-19385190D01*
X13033571Y-19375667D01*
X13081190Y-19375667D01*
X13100238Y-19385190D01*
X13109762Y-19394714D01*
X13119286Y-19413762D01*
X13119286Y-19461381D01*
X13109762Y-19480429D01*
X13100238Y-19489952D01*
X13081190Y-19499476D01*
X13033571Y-19499476D01*
X13014524Y-19489952D01*
X13005000Y-19480429D01*
X13195476Y-19299476D02*
X13195476Y-19337571D01*
X13271667Y-19299476D02*
X13271667Y-19337571D01*
X13566905Y-19575667D02*
X13557381Y-19566143D01*
X13538333Y-19537571D01*
X13528809Y-19518524D01*
X13519286Y-19489952D01*
X13509762Y-19442333D01*
X13509762Y-19404238D01*
X13519286Y-19356619D01*
X13528809Y-19328048D01*
X13538333Y-19309000D01*
X13557381Y-19280429D01*
X13566905Y-19270905D01*
X13747857Y-19499476D02*
X13633571Y-19499476D01*
X13690714Y-19499476D02*
X13690714Y-19299476D01*
X13671667Y-19328048D01*
X13652619Y-19347095D01*
X13633571Y-19356619D01*
X13985952Y-19499476D02*
X13985952Y-19299476D01*
X14071667Y-19499476D02*
X14071667Y-19394714D01*
X14062143Y-19375667D01*
X14043095Y-19366143D01*
X14014524Y-19366143D01*
X13995476Y-19375667D01*
X13985952Y-19385190D01*
X14195476Y-19499476D02*
X14176428Y-19489952D01*
X14166905Y-19480429D01*
X14157381Y-19461381D01*
X14157381Y-19404238D01*
X14166905Y-19385190D01*
X14176428Y-19375667D01*
X14195476Y-19366143D01*
X14224048Y-19366143D01*
X14243095Y-19375667D01*
X14252619Y-19385190D01*
X14262143Y-19404238D01*
X14262143Y-19461381D01*
X14252619Y-19480429D01*
X14243095Y-19489952D01*
X14224048Y-19499476D01*
X14195476Y-19499476D01*
X14376428Y-19499476D02*
X14357381Y-19489952D01*
X14347857Y-19470905D01*
X14347857Y-19299476D01*
X14528809Y-19489952D02*
X14509762Y-19499476D01*
X14471667Y-19499476D01*
X14452619Y-19489952D01*
X14443095Y-19470905D01*
X14443095Y-19394714D01*
X14452619Y-19375667D01*
X14471667Y-19366143D01*
X14509762Y-19366143D01*
X14528809Y-19375667D01*
X14538333Y-19394714D01*
X14538333Y-19413762D01*
X14443095Y-19432810D01*
X14605000Y-19575667D02*
X14614524Y-19566143D01*
X14633571Y-19537571D01*
X14643095Y-19518524D01*
X14652619Y-19489952D01*
X14662143Y-19442333D01*
X14662143Y-19404238D01*
X14652619Y-19356619D01*
X14643095Y-19328048D01*
X14633571Y-19309000D01*
X14614524Y-19280429D01*
X14605000Y-19270905D01*
D13*
X9955000Y-19633000D02*
X9955000Y-19713000D01*
X9915000Y-19673000D02*
X9995000Y-19673000D01*
D11*
X10290714Y-19563476D02*
X10309762Y-19563476D01*
X10328810Y-19573000D01*
X10338333Y-19582524D01*
X10347857Y-19601571D01*
X10357381Y-19639667D01*
X10357381Y-19687286D01*
X10347857Y-19725381D01*
X10338333Y-19744429D01*
X10328810Y-19753952D01*
X10309762Y-19763476D01*
X10290714Y-19763476D01*
X10271667Y-19753952D01*
X10262143Y-19744429D01*
X10252619Y-19725381D01*
X10243095Y-19687286D01*
X10243095Y-19639667D01*
X10252619Y-19601571D01*
X10262143Y-19582524D01*
X10271667Y-19573000D01*
X10290714Y-19563476D01*
X10443095Y-19744429D02*
X10452619Y-19753952D01*
X10443095Y-19763476D01*
X10433571Y-19753952D01*
X10443095Y-19744429D01*
X10443095Y-19763476D01*
X10566905Y-19649190D02*
X10547857Y-19639667D01*
X10538333Y-19630143D01*
X10528810Y-19611095D01*
X10528810Y-19601571D01*
X10538333Y-19582524D01*
X10547857Y-19573000D01*
X10566905Y-19563476D01*
X10605000Y-19563476D01*
X10624048Y-19573000D01*
X10633571Y-19582524D01*
X10643095Y-19601571D01*
X10643095Y-19611095D01*
X10633571Y-19630143D01*
X10624048Y-19639667D01*
X10605000Y-19649190D01*
X10566905Y-19649190D01*
X10547857Y-19658714D01*
X10538333Y-19668238D01*
X10528810Y-19687286D01*
X10528810Y-19725381D01*
X10538333Y-19744429D01*
X10547857Y-19753952D01*
X10566905Y-19763476D01*
X10605000Y-19763476D01*
X10624048Y-19753952D01*
X10633571Y-19744429D01*
X10643095Y-19725381D01*
X10643095Y-19687286D01*
X10633571Y-19668238D01*
X10624048Y-19658714D01*
X10605000Y-19649190D01*
X10766905Y-19563476D02*
X10785952Y-19563476D01*
X10805000Y-19573000D01*
X10814524Y-19582524D01*
X10824048Y-19601571D01*
X10833571Y-19639667D01*
X10833571Y-19687286D01*
X10824048Y-19725381D01*
X10814524Y-19744429D01*
X10805000Y-19753952D01*
X10785952Y-19763476D01*
X10766905Y-19763476D01*
X10747857Y-19753952D01*
X10738333Y-19744429D01*
X10728810Y-19725381D01*
X10719286Y-19687286D01*
X10719286Y-19639667D01*
X10728810Y-19601571D01*
X10738333Y-19582524D01*
X10747857Y-19573000D01*
X10766905Y-19563476D01*
X10957381Y-19563476D02*
X10976429Y-19563476D01*
X10995476Y-19573000D01*
X11005000Y-19582524D01*
X11014524Y-19601571D01*
X11024048Y-19639667D01*
X11024048Y-19687286D01*
X11014524Y-19725381D01*
X11005000Y-19744429D01*
X10995476Y-19753952D01*
X10976429Y-19763476D01*
X10957381Y-19763476D01*
X10938333Y-19753952D01*
X10928810Y-19744429D01*
X10919286Y-19725381D01*
X10909762Y-19687286D01*
X10909762Y-19639667D01*
X10919286Y-19601571D01*
X10928810Y-19582524D01*
X10938333Y-19573000D01*
X10957381Y-19563476D01*
X11109762Y-19763476D02*
X11109762Y-19630143D01*
X11109762Y-19649190D02*
X11119286Y-19639667D01*
X11138333Y-19630143D01*
X11166905Y-19630143D01*
X11185952Y-19639667D01*
X11195476Y-19658714D01*
X11195476Y-19763476D01*
X11195476Y-19658714D02*
X11205000Y-19639667D01*
X11224048Y-19630143D01*
X11252619Y-19630143D01*
X11271667Y-19639667D01*
X11281190Y-19658714D01*
X11281190Y-19763476D01*
X11376428Y-19763476D02*
X11376428Y-19630143D01*
X11376428Y-19649190D02*
X11385952Y-19639667D01*
X11405000Y-19630143D01*
X11433571Y-19630143D01*
X11452619Y-19639667D01*
X11462143Y-19658714D01*
X11462143Y-19763476D01*
X11462143Y-19658714D02*
X11471667Y-19639667D01*
X11490714Y-19630143D01*
X11519286Y-19630143D01*
X11538333Y-19639667D01*
X11547857Y-19658714D01*
X11547857Y-19763476D01*
X11938333Y-19553952D02*
X11766905Y-19811095D01*
X12195476Y-19563476D02*
X12214524Y-19563476D01*
X12233571Y-19573000D01*
X12243095Y-19582524D01*
X12252619Y-19601571D01*
X12262143Y-19639667D01*
X12262143Y-19687286D01*
X12252619Y-19725381D01*
X12243095Y-19744429D01*
X12233571Y-19753952D01*
X12214524Y-19763476D01*
X12195476Y-19763476D01*
X12176428Y-19753952D01*
X12166905Y-19744429D01*
X12157381Y-19725381D01*
X12147857Y-19687286D01*
X12147857Y-19639667D01*
X12157381Y-19601571D01*
X12166905Y-19582524D01*
X12176428Y-19573000D01*
X12195476Y-19563476D01*
X12347857Y-19744429D02*
X12357381Y-19753952D01*
X12347857Y-19763476D01*
X12338333Y-19753952D01*
X12347857Y-19744429D01*
X12347857Y-19763476D01*
X12481190Y-19563476D02*
X12500238Y-19563476D01*
X12519286Y-19573000D01*
X12528809Y-19582524D01*
X12538333Y-19601571D01*
X12547857Y-19639667D01*
X12547857Y-19687286D01*
X12538333Y-19725381D01*
X12528809Y-19744429D01*
X12519286Y-19753952D01*
X12500238Y-19763476D01*
X12481190Y-19763476D01*
X12462143Y-19753952D01*
X12452619Y-19744429D01*
X12443095Y-19725381D01*
X12433571Y-19687286D01*
X12433571Y-19639667D01*
X12443095Y-19601571D01*
X12452619Y-19582524D01*
X12462143Y-19573000D01*
X12481190Y-19563476D01*
X12614524Y-19563476D02*
X12738333Y-19563476D01*
X12671667Y-19639667D01*
X12700238Y-19639667D01*
X12719286Y-19649190D01*
X12728809Y-19658714D01*
X12738333Y-19677762D01*
X12738333Y-19725381D01*
X12728809Y-19744429D01*
X12719286Y-19753952D01*
X12700238Y-19763476D01*
X12643095Y-19763476D01*
X12624048Y-19753952D01*
X12614524Y-19744429D01*
X12928809Y-19763476D02*
X12814524Y-19763476D01*
X12871667Y-19763476D02*
X12871667Y-19563476D01*
X12852619Y-19592048D01*
X12833571Y-19611095D01*
X12814524Y-19620619D01*
X13109762Y-19563476D02*
X13014524Y-19563476D01*
X13005000Y-19658714D01*
X13014524Y-19649190D01*
X13033571Y-19639667D01*
X13081190Y-19639667D01*
X13100238Y-19649190D01*
X13109762Y-19658714D01*
X13119286Y-19677762D01*
X13119286Y-19725381D01*
X13109762Y-19744429D01*
X13100238Y-19753952D01*
X13081190Y-19763476D01*
X13033571Y-19763476D01*
X13014524Y-19753952D01*
X13005000Y-19744429D01*
X13195476Y-19563476D02*
X13195476Y-19601571D01*
X13271667Y-19563476D02*
X13271667Y-19601571D01*
X13566905Y-19839667D02*
X13557381Y-19830143D01*
X13538333Y-19801571D01*
X13528809Y-19782524D01*
X13519286Y-19753952D01*
X13509762Y-19706333D01*
X13509762Y-19668238D01*
X13519286Y-19620619D01*
X13528809Y-19592048D01*
X13538333Y-19573000D01*
X13557381Y-19544429D01*
X13566905Y-19534905D01*
X13624048Y-19563476D02*
X13747857Y-19563476D01*
X13681190Y-19639667D01*
X13709762Y-19639667D01*
X13728809Y-19649190D01*
X13738333Y-19658714D01*
X13747857Y-19677762D01*
X13747857Y-19725381D01*
X13738333Y-19744429D01*
X13728809Y-19753952D01*
X13709762Y-19763476D01*
X13652619Y-19763476D01*
X13633571Y-19753952D01*
X13624048Y-19744429D01*
X13985952Y-19763476D02*
X13985952Y-19563476D01*
X14071667Y-19763476D02*
X14071667Y-19658714D01*
X14062143Y-19639667D01*
X14043095Y-19630143D01*
X14014524Y-19630143D01*
X13995476Y-19639667D01*
X13985952Y-19649190D01*
X14195476Y-19763476D02*
X14176428Y-19753952D01*
X14166905Y-19744429D01*
X14157381Y-19725381D01*
X14157381Y-19668238D01*
X14166905Y-19649190D01*
X14176428Y-19639667D01*
X14195476Y-19630143D01*
X14224048Y-19630143D01*
X14243095Y-19639667D01*
X14252619Y-19649190D01*
X14262143Y-19668238D01*
X14262143Y-19725381D01*
X14252619Y-19744429D01*
X14243095Y-19753952D01*
X14224048Y-19763476D01*
X14195476Y-19763476D01*
X14376428Y-19763476D02*
X14357381Y-19753952D01*
X14347857Y-19734905D01*
X14347857Y-19563476D01*
X14528809Y-19753952D02*
X14509762Y-19763476D01*
X14471667Y-19763476D01*
X14452619Y-19753952D01*
X14443095Y-19734905D01*
X14443095Y-19658714D01*
X14452619Y-19639667D01*
X14471667Y-19630143D01*
X14509762Y-19630143D01*
X14528809Y-19639667D01*
X14538333Y-19658714D01*
X14538333Y-19677762D01*
X14443095Y-19696810D01*
X14614524Y-19753952D02*
X14633571Y-19763476D01*
X14671667Y-19763476D01*
X14690714Y-19753952D01*
X14700238Y-19734905D01*
X14700238Y-19725381D01*
X14690714Y-19706333D01*
X14671667Y-19696810D01*
X14643095Y-19696810D01*
X14624048Y-19687286D01*
X14614524Y-19668238D01*
X14614524Y-19658714D01*
X14624048Y-19639667D01*
X14643095Y-19630143D01*
X14671667Y-19630143D01*
X14690714Y-19639667D01*
X14766905Y-19839667D02*
X14776428Y-19830143D01*
X14795476Y-19801571D01*
X14805000Y-19782524D01*
X14814524Y-19753952D01*
X14824048Y-19706333D01*
X14824048Y-19668238D01*
X14814524Y-19620619D01*
X14805000Y-19592048D01*
X14795476Y-19573000D01*
X14776428Y-19544429D01*
X14766905Y-19534905D01*
D14*
X9981820Y-19968820D02*
X9981820Y-19905180D01*
X9918180Y-19905180D01*
X9918180Y-19968820D01*
X9981820Y-19968820D01*
D11*
X10290714Y-19827476D02*
X10309762Y-19827476D01*
X10328810Y-19837000D01*
X10338333Y-19846524D01*
X10347857Y-19865571D01*
X10357381Y-19903667D01*
X10357381Y-19951286D01*
X10347857Y-19989381D01*
X10338333Y-20008429D01*
X10328810Y-20017952D01*
X10309762Y-20027476D01*
X10290714Y-20027476D01*
X10271667Y-20017952D01*
X10262143Y-20008429D01*
X10252619Y-19989381D01*
X10243095Y-19951286D01*
X10243095Y-19903667D01*
X10252619Y-19865571D01*
X10262143Y-19846524D01*
X10271667Y-19837000D01*
X10290714Y-19827476D01*
X10443095Y-20008429D02*
X10452619Y-20017952D01*
X10443095Y-20027476D01*
X10433571Y-20017952D01*
X10443095Y-20008429D01*
X10443095Y-20027476D01*
X10547857Y-20027476D02*
X10585952Y-20027476D01*
X10605000Y-20017952D01*
X10614524Y-20008429D01*
X10633571Y-19979857D01*
X10643095Y-19941762D01*
X10643095Y-19865571D01*
X10633571Y-19846524D01*
X10624048Y-19837000D01*
X10605000Y-19827476D01*
X10566905Y-19827476D01*
X10547857Y-19837000D01*
X10538333Y-19846524D01*
X10528810Y-19865571D01*
X10528810Y-19913190D01*
X10538333Y-19932238D01*
X10547857Y-19941762D01*
X10566905Y-19951286D01*
X10605000Y-19951286D01*
X10624048Y-19941762D01*
X10633571Y-19932238D01*
X10643095Y-19913190D01*
X10766905Y-19827476D02*
X10785952Y-19827476D01*
X10805000Y-19837000D01*
X10814524Y-19846524D01*
X10824048Y-19865571D01*
X10833571Y-19903667D01*
X10833571Y-19951286D01*
X10824048Y-19989381D01*
X10814524Y-20008429D01*
X10805000Y-20017952D01*
X10785952Y-20027476D01*
X10766905Y-20027476D01*
X10747857Y-20017952D01*
X10738333Y-20008429D01*
X10728810Y-19989381D01*
X10719286Y-19951286D01*
X10719286Y-19903667D01*
X10728810Y-19865571D01*
X10738333Y-19846524D01*
X10747857Y-19837000D01*
X10766905Y-19827476D01*
X10957381Y-19827476D02*
X10976429Y-19827476D01*
X10995476Y-19837000D01*
X11005000Y-19846524D01*
X11014524Y-19865571D01*
X11024048Y-19903667D01*
X11024048Y-19951286D01*
X11014524Y-19989381D01*
X11005000Y-20008429D01*
X10995476Y-20017952D01*
X10976429Y-20027476D01*
X10957381Y-20027476D01*
X10938333Y-20017952D01*
X10928810Y-20008429D01*
X10919286Y-19989381D01*
X10909762Y-19951286D01*
X10909762Y-19903667D01*
X10919286Y-19865571D01*
X10928810Y-19846524D01*
X10938333Y-19837000D01*
X10957381Y-19827476D01*
X11109762Y-20027476D02*
X11109762Y-19894143D01*
X11109762Y-19913190D02*
X11119286Y-19903667D01*
X11138333Y-19894143D01*
X11166905Y-19894143D01*
X11185952Y-19903667D01*
X11195476Y-19922714D01*
X11195476Y-20027476D01*
X11195476Y-19922714D02*
X11205000Y-19903667D01*
X11224048Y-19894143D01*
X11252619Y-19894143D01*
X11271667Y-19903667D01*
X11281190Y-19922714D01*
X11281190Y-20027476D01*
X11376428Y-20027476D02*
X11376428Y-19894143D01*
X11376428Y-19913190D02*
X11385952Y-19903667D01*
X11405000Y-19894143D01*
X11433571Y-19894143D01*
X11452619Y-19903667D01*
X11462143Y-19922714D01*
X11462143Y-20027476D01*
X11462143Y-19922714D02*
X11471667Y-19903667D01*
X11490714Y-19894143D01*
X11519286Y-19894143D01*
X11538333Y-19903667D01*
X11547857Y-19922714D01*
X11547857Y-20027476D01*
X11938333Y-19817952D02*
X11766905Y-20075095D01*
X12195476Y-19827476D02*
X12214524Y-19827476D01*
X12233571Y-19837000D01*
X12243095Y-19846524D01*
X12252619Y-19865571D01*
X12262143Y-19903667D01*
X12262143Y-19951286D01*
X12252619Y-19989381D01*
X12243095Y-20008429D01*
X12233571Y-20017952D01*
X12214524Y-20027476D01*
X12195476Y-20027476D01*
X12176428Y-20017952D01*
X12166905Y-20008429D01*
X12157381Y-19989381D01*
X12147857Y-19951286D01*
X12147857Y-19903667D01*
X12157381Y-19865571D01*
X12166905Y-19846524D01*
X12176428Y-19837000D01*
X12195476Y-19827476D01*
X12347857Y-20008429D02*
X12357381Y-20017952D01*
X12347857Y-20027476D01*
X12338333Y-20017952D01*
X12347857Y-20008429D01*
X12347857Y-20027476D01*
X12481190Y-19827476D02*
X12500238Y-19827476D01*
X12519286Y-19837000D01*
X12528809Y-19846524D01*
X12538333Y-19865571D01*
X12547857Y-19903667D01*
X12547857Y-19951286D01*
X12538333Y-19989381D01*
X12528809Y-20008429D01*
X12519286Y-20017952D01*
X12500238Y-20027476D01*
X12481190Y-20027476D01*
X12462143Y-20017952D01*
X12452619Y-20008429D01*
X12443095Y-19989381D01*
X12433571Y-19951286D01*
X12433571Y-19903667D01*
X12443095Y-19865571D01*
X12452619Y-19846524D01*
X12462143Y-19837000D01*
X12481190Y-19827476D01*
X12614524Y-19827476D02*
X12738333Y-19827476D01*
X12671667Y-19903667D01*
X12700238Y-19903667D01*
X12719286Y-19913190D01*
X12728809Y-19922714D01*
X12738333Y-19941762D01*
X12738333Y-19989381D01*
X12728809Y-20008429D01*
X12719286Y-20017952D01*
X12700238Y-20027476D01*
X12643095Y-20027476D01*
X12624048Y-20017952D01*
X12614524Y-20008429D01*
X12919286Y-19827476D02*
X12824048Y-19827476D01*
X12814524Y-19922714D01*
X12824048Y-19913190D01*
X12843095Y-19903667D01*
X12890714Y-19903667D01*
X12909762Y-19913190D01*
X12919286Y-19922714D01*
X12928809Y-19941762D01*
X12928809Y-19989381D01*
X12919286Y-20008429D01*
X12909762Y-20017952D01*
X12890714Y-20027476D01*
X12843095Y-20027476D01*
X12824048Y-20017952D01*
X12814524Y-20008429D01*
X13100238Y-19894143D02*
X13100238Y-20027476D01*
X13052619Y-19817952D02*
X13005000Y-19960810D01*
X13128809Y-19960810D01*
X13195476Y-19827476D02*
X13195476Y-19865571D01*
X13271667Y-19827476D02*
X13271667Y-19865571D01*
X13566905Y-20103667D02*
X13557381Y-20094143D01*
X13538333Y-20065571D01*
X13528809Y-20046524D01*
X13519286Y-20017952D01*
X13509762Y-19970333D01*
X13509762Y-19932238D01*
X13519286Y-19884619D01*
X13528809Y-19856048D01*
X13538333Y-19837000D01*
X13557381Y-19808429D01*
X13566905Y-19798905D01*
X13633571Y-19846524D02*
X13643095Y-19837000D01*
X13662143Y-19827476D01*
X13709762Y-19827476D01*
X13728809Y-19837000D01*
X13738333Y-19846524D01*
X13747857Y-19865571D01*
X13747857Y-19884619D01*
X13738333Y-19913190D01*
X13624048Y-20027476D01*
X13747857Y-20027476D01*
X13985952Y-20027476D02*
X13985952Y-19827476D01*
X14071667Y-20027476D02*
X14071667Y-19922714D01*
X14062143Y-19903667D01*
X14043095Y-19894143D01*
X14014524Y-19894143D01*
X13995476Y-19903667D01*
X13985952Y-19913190D01*
X14195476Y-20027476D02*
X14176428Y-20017952D01*
X14166905Y-20008429D01*
X14157381Y-19989381D01*
X14157381Y-19932238D01*
X14166905Y-19913190D01*
X14176428Y-19903667D01*
X14195476Y-19894143D01*
X14224048Y-19894143D01*
X14243095Y-19903667D01*
X14252619Y-19913190D01*
X14262143Y-19932238D01*
X14262143Y-19989381D01*
X14252619Y-20008429D01*
X14243095Y-20017952D01*
X14224048Y-20027476D01*
X14195476Y-20027476D01*
X14376428Y-20027476D02*
X14357381Y-20017952D01*
X14347857Y-19998905D01*
X14347857Y-19827476D01*
X14528809Y-20017952D02*
X14509762Y-20027476D01*
X14471667Y-20027476D01*
X14452619Y-20017952D01*
X14443095Y-19998905D01*
X14443095Y-19922714D01*
X14452619Y-19903667D01*
X14471667Y-19894143D01*
X14509762Y-19894143D01*
X14528809Y-19903667D01*
X14538333Y-19922714D01*
X14538333Y-19941762D01*
X14443095Y-19960810D01*
X14614524Y-20017952D02*
X14633571Y-20027476D01*
X14671667Y-20027476D01*
X14690714Y-20017952D01*
X14700238Y-19998905D01*
X14700238Y-19989381D01*
X14690714Y-19970333D01*
X14671667Y-19960810D01*
X14643095Y-19960810D01*
X14624048Y-19951286D01*
X14614524Y-19932238D01*
X14614524Y-19922714D01*
X14624048Y-19903667D01*
X14643095Y-19894143D01*
X14671667Y-19894143D01*
X14690714Y-19903667D01*
X14766905Y-20103667D02*
X14776428Y-20094143D01*
X14795476Y-20065571D01*
X14805000Y-20046524D01*
X14814524Y-20017952D01*
X14824048Y-19970333D01*
X14824048Y-19932238D01*
X14814524Y-19884619D01*
X14805000Y-19856048D01*
X14795476Y-19837000D01*
X14776428Y-19808429D01*
X14766905Y-19798905D01*
D15*
X9940000Y-20256000D02*
X9995000Y-20201000D01*
X9940000Y-20146000D01*
X9885000Y-20201000D01*
X9940000Y-20256000D01*
D11*
X10357381Y-20291476D02*
X10243095Y-20291476D01*
X10300238Y-20291476D02*
X10300238Y-20091476D01*
X10281190Y-20120048D01*
X10262143Y-20139095D01*
X10243095Y-20148619D01*
X10443095Y-20272429D02*
X10452619Y-20281952D01*
X10443095Y-20291476D01*
X10433571Y-20281952D01*
X10443095Y-20272429D01*
X10443095Y-20291476D01*
X10643095Y-20291476D02*
X10528810Y-20291476D01*
X10585952Y-20291476D02*
X10585952Y-20091476D01*
X10566905Y-20120048D01*
X10547857Y-20139095D01*
X10528810Y-20148619D01*
X10766905Y-20091476D02*
X10785952Y-20091476D01*
X10805000Y-20101000D01*
X10814524Y-20110524D01*
X10824048Y-20129571D01*
X10833571Y-20167667D01*
X10833571Y-20215286D01*
X10824048Y-20253381D01*
X10814524Y-20272429D01*
X10805000Y-20281952D01*
X10785952Y-20291476D01*
X10766905Y-20291476D01*
X10747857Y-20281952D01*
X10738333Y-20272429D01*
X10728810Y-20253381D01*
X10719286Y-20215286D01*
X10719286Y-20167667D01*
X10728810Y-20129571D01*
X10738333Y-20110524D01*
X10747857Y-20101000D01*
X10766905Y-20091476D01*
X10957381Y-20091476D02*
X10976429Y-20091476D01*
X10995476Y-20101000D01*
X11005000Y-20110524D01*
X11014524Y-20129571D01*
X11024048Y-20167667D01*
X11024048Y-20215286D01*
X11014524Y-20253381D01*
X11005000Y-20272429D01*
X10995476Y-20281952D01*
X10976429Y-20291476D01*
X10957381Y-20291476D01*
X10938333Y-20281952D01*
X10928810Y-20272429D01*
X10919286Y-20253381D01*
X10909762Y-20215286D01*
X10909762Y-20167667D01*
X10919286Y-20129571D01*
X10928810Y-20110524D01*
X10938333Y-20101000D01*
X10957381Y-20091476D01*
X11109762Y-20291476D02*
X11109762Y-20158143D01*
X11109762Y-20177190D02*
X11119286Y-20167667D01*
X11138333Y-20158143D01*
X11166905Y-20158143D01*
X11185952Y-20167667D01*
X11195476Y-20186714D01*
X11195476Y-20291476D01*
X11195476Y-20186714D02*
X11205000Y-20167667D01*
X11224048Y-20158143D01*
X11252619Y-20158143D01*
X11271667Y-20167667D01*
X11281190Y-20186714D01*
X11281190Y-20291476D01*
X11376428Y-20291476D02*
X11376428Y-20158143D01*
X11376428Y-20177190D02*
X11385952Y-20167667D01*
X11405000Y-20158143D01*
X11433571Y-20158143D01*
X11452619Y-20167667D01*
X11462143Y-20186714D01*
X11462143Y-20291476D01*
X11462143Y-20186714D02*
X11471667Y-20167667D01*
X11490714Y-20158143D01*
X11519286Y-20158143D01*
X11538333Y-20167667D01*
X11547857Y-20186714D01*
X11547857Y-20291476D01*
X11938333Y-20081952D02*
X11766905Y-20339095D01*
X12195476Y-20091476D02*
X12214524Y-20091476D01*
X12233571Y-20101000D01*
X12243095Y-20110524D01*
X12252619Y-20129571D01*
X12262143Y-20167667D01*
X12262143Y-20215286D01*
X12252619Y-20253381D01*
X12243095Y-20272429D01*
X12233571Y-20281952D01*
X12214524Y-20291476D01*
X12195476Y-20291476D01*
X12176428Y-20281952D01*
X12166905Y-20272429D01*
X12157381Y-20253381D01*
X12147857Y-20215286D01*
X12147857Y-20167667D01*
X12157381Y-20129571D01*
X12166905Y-20110524D01*
X12176428Y-20101000D01*
X12195476Y-20091476D01*
X12347857Y-20272429D02*
X12357381Y-20281952D01*
X12347857Y-20291476D01*
X12338333Y-20281952D01*
X12347857Y-20272429D01*
X12347857Y-20291476D01*
X12481190Y-20091476D02*
X12500238Y-20091476D01*
X12519286Y-20101000D01*
X12528809Y-20110524D01*
X12538333Y-20129571D01*
X12547857Y-20167667D01*
X12547857Y-20215286D01*
X12538333Y-20253381D01*
X12528809Y-20272429D01*
X12519286Y-20281952D01*
X12500238Y-20291476D01*
X12481190Y-20291476D01*
X12462143Y-20281952D01*
X12452619Y-20272429D01*
X12443095Y-20253381D01*
X12433571Y-20215286D01*
X12433571Y-20167667D01*
X12443095Y-20129571D01*
X12452619Y-20110524D01*
X12462143Y-20101000D01*
X12481190Y-20091476D01*
X12719286Y-20158143D02*
X12719286Y-20291476D01*
X12671667Y-20081952D02*
X12624048Y-20224810D01*
X12747857Y-20224810D01*
X12805000Y-20091476D02*
X12928809Y-20091476D01*
X12862143Y-20167667D01*
X12890714Y-20167667D01*
X12909762Y-20177190D01*
X12919286Y-20186714D01*
X12928809Y-20205762D01*
X12928809Y-20253381D01*
X12919286Y-20272429D01*
X12909762Y-20281952D01*
X12890714Y-20291476D01*
X12833571Y-20291476D01*
X12814524Y-20281952D01*
X12805000Y-20272429D01*
X12995476Y-20091476D02*
X13119286Y-20091476D01*
X13052619Y-20167667D01*
X13081190Y-20167667D01*
X13100238Y-20177190D01*
X13109762Y-20186714D01*
X13119286Y-20205762D01*
X13119286Y-20253381D01*
X13109762Y-20272429D01*
X13100238Y-20281952D01*
X13081190Y-20291476D01*
X13024048Y-20291476D01*
X13005000Y-20281952D01*
X12995476Y-20272429D01*
X13195476Y-20091476D02*
X13195476Y-20129571D01*
X13271667Y-20091476D02*
X13271667Y-20129571D01*
X13566905Y-20367667D02*
X13557381Y-20358143D01*
X13538333Y-20329571D01*
X13528809Y-20310524D01*
X13519286Y-20281952D01*
X13509762Y-20234333D01*
X13509762Y-20196238D01*
X13519286Y-20148619D01*
X13528809Y-20120048D01*
X13538333Y-20101000D01*
X13557381Y-20072429D01*
X13566905Y-20062905D01*
X13671667Y-20177190D02*
X13652619Y-20167667D01*
X13643095Y-20158143D01*
X13633571Y-20139095D01*
X13633571Y-20129571D01*
X13643095Y-20110524D01*
X13652619Y-20101000D01*
X13671667Y-20091476D01*
X13709762Y-20091476D01*
X13728809Y-20101000D01*
X13738333Y-20110524D01*
X13747857Y-20129571D01*
X13747857Y-20139095D01*
X13738333Y-20158143D01*
X13728809Y-20167667D01*
X13709762Y-20177190D01*
X13671667Y-20177190D01*
X13652619Y-20186714D01*
X13643095Y-20196238D01*
X13633571Y-20215286D01*
X13633571Y-20253381D01*
X13643095Y-20272429D01*
X13652619Y-20281952D01*
X13671667Y-20291476D01*
X13709762Y-20291476D01*
X13728809Y-20281952D01*
X13738333Y-20272429D01*
X13747857Y-20253381D01*
X13747857Y-20215286D01*
X13738333Y-20196238D01*
X13728809Y-20186714D01*
X13709762Y-20177190D01*
X13985952Y-20291476D02*
X13985952Y-20091476D01*
X14071667Y-20291476D02*
X14071667Y-20186714D01*
X14062143Y-20167667D01*
X14043095Y-20158143D01*
X14014524Y-20158143D01*
X13995476Y-20167667D01*
X13985952Y-20177190D01*
X14195476Y-20291476D02*
X14176428Y-20281952D01*
X14166905Y-20272429D01*
X14157381Y-20253381D01*
X14157381Y-20196238D01*
X14166905Y-20177190D01*
X14176428Y-20167667D01*
X14195476Y-20158143D01*
X14224048Y-20158143D01*
X14243095Y-20167667D01*
X14252619Y-20177190D01*
X14262143Y-20196238D01*
X14262143Y-20253381D01*
X14252619Y-20272429D01*
X14243095Y-20281952D01*
X14224048Y-20291476D01*
X14195476Y-20291476D01*
X14376428Y-20291476D02*
X14357381Y-20281952D01*
X14347857Y-20262905D01*
X14347857Y-20091476D01*
X14528809Y-20281952D02*
X14509762Y-20291476D01*
X14471667Y-20291476D01*
X14452619Y-20281952D01*
X14443095Y-20262905D01*
X14443095Y-20186714D01*
X14452619Y-20167667D01*
X14471667Y-20158143D01*
X14509762Y-20158143D01*
X14528809Y-20167667D01*
X14538333Y-20186714D01*
X14538333Y-20205762D01*
X14443095Y-20224810D01*
X14614524Y-20281952D02*
X14633571Y-20291476D01*
X14671667Y-20291476D01*
X14690714Y-20281952D01*
X14700238Y-20262905D01*
X14700238Y-20253381D01*
X14690714Y-20234333D01*
X14671667Y-20224810D01*
X14643095Y-20224810D01*
X14624048Y-20215286D01*
X14614524Y-20196238D01*
X14614524Y-20186714D01*
X14624048Y-20167667D01*
X14643095Y-20158143D01*
X14671667Y-20158143D01*
X14690714Y-20167667D01*
X14766905Y-20367667D02*
X14776428Y-20358143D01*
X14795476Y-20329571D01*
X14805000Y-20310524D01*
X14814524Y-20281952D01*
X14824048Y-20234333D01*
X14824048Y-20196238D01*
X14814524Y-20148619D01*
X14805000Y-20120048D01*
X14795476Y-20101000D01*
X14776428Y-20072429D01*
X14766905Y-20062905D01*
D16*
X9875000Y-20405000D02*
X9995000Y-20525000D01*
X9995000Y-20405000D02*
X9875000Y-20525000D01*
X9995000Y-20465000D02*
G75*
G03*
X9995000Y-20465000I-60000J0D01*
G01*
D11*
X10357381Y-20555476D02*
X10243095Y-20555476D01*
X10300238Y-20555476D02*
X10300238Y-20355476D01*
X10281190Y-20384048D01*
X10262143Y-20403095D01*
X10243095Y-20412619D01*
X10443095Y-20536429D02*
X10452619Y-20545952D01*
X10443095Y-20555476D01*
X10433571Y-20545952D01*
X10443095Y-20536429D01*
X10443095Y-20555476D01*
X10528810Y-20374524D02*
X10538333Y-20365000D01*
X10557381Y-20355476D01*
X10605000Y-20355476D01*
X10624048Y-20365000D01*
X10633571Y-20374524D01*
X10643095Y-20393571D01*
X10643095Y-20412619D01*
X10633571Y-20441190D01*
X10519286Y-20555476D01*
X10643095Y-20555476D01*
X10766905Y-20355476D02*
X10785952Y-20355476D01*
X10805000Y-20365000D01*
X10814524Y-20374524D01*
X10824048Y-20393571D01*
X10833571Y-20431667D01*
X10833571Y-20479286D01*
X10824048Y-20517381D01*
X10814524Y-20536429D01*
X10805000Y-20545952D01*
X10785952Y-20555476D01*
X10766905Y-20555476D01*
X10747857Y-20545952D01*
X10738333Y-20536429D01*
X10728810Y-20517381D01*
X10719286Y-20479286D01*
X10719286Y-20431667D01*
X10728810Y-20393571D01*
X10738333Y-20374524D01*
X10747857Y-20365000D01*
X10766905Y-20355476D01*
X10957381Y-20355476D02*
X10976429Y-20355476D01*
X10995476Y-20365000D01*
X11005000Y-20374524D01*
X11014524Y-20393571D01*
X11024048Y-20431667D01*
X11024048Y-20479286D01*
X11014524Y-20517381D01*
X11005000Y-20536429D01*
X10995476Y-20545952D01*
X10976429Y-20555476D01*
X10957381Y-20555476D01*
X10938333Y-20545952D01*
X10928810Y-20536429D01*
X10919286Y-20517381D01*
X10909762Y-20479286D01*
X10909762Y-20431667D01*
X10919286Y-20393571D01*
X10928810Y-20374524D01*
X10938333Y-20365000D01*
X10957381Y-20355476D01*
X11109762Y-20555476D02*
X11109762Y-20422143D01*
X11109762Y-20441190D02*
X11119286Y-20431667D01*
X11138333Y-20422143D01*
X11166905Y-20422143D01*
X11185952Y-20431667D01*
X11195476Y-20450714D01*
X11195476Y-20555476D01*
X11195476Y-20450714D02*
X11205000Y-20431667D01*
X11224048Y-20422143D01*
X11252619Y-20422143D01*
X11271667Y-20431667D01*
X11281190Y-20450714D01*
X11281190Y-20555476D01*
X11376428Y-20555476D02*
X11376428Y-20422143D01*
X11376428Y-20441190D02*
X11385952Y-20431667D01*
X11405000Y-20422143D01*
X11433571Y-20422143D01*
X11452619Y-20431667D01*
X11462143Y-20450714D01*
X11462143Y-20555476D01*
X11462143Y-20450714D02*
X11471667Y-20431667D01*
X11490714Y-20422143D01*
X11519286Y-20422143D01*
X11538333Y-20431667D01*
X11547857Y-20450714D01*
X11547857Y-20555476D01*
X11938333Y-20345952D02*
X11766905Y-20603095D01*
X12195476Y-20355476D02*
X12214524Y-20355476D01*
X12233571Y-20365000D01*
X12243095Y-20374524D01*
X12252619Y-20393571D01*
X12262143Y-20431667D01*
X12262143Y-20479286D01*
X12252619Y-20517381D01*
X12243095Y-20536429D01*
X12233571Y-20545952D01*
X12214524Y-20555476D01*
X12195476Y-20555476D01*
X12176428Y-20545952D01*
X12166905Y-20536429D01*
X12157381Y-20517381D01*
X12147857Y-20479286D01*
X12147857Y-20431667D01*
X12157381Y-20393571D01*
X12166905Y-20374524D01*
X12176428Y-20365000D01*
X12195476Y-20355476D01*
X12347857Y-20536429D02*
X12357381Y-20545952D01*
X12347857Y-20555476D01*
X12338333Y-20545952D01*
X12347857Y-20536429D01*
X12347857Y-20555476D01*
X12481190Y-20355476D02*
X12500238Y-20355476D01*
X12519286Y-20365000D01*
X12528809Y-20374524D01*
X12538333Y-20393571D01*
X12547857Y-20431667D01*
X12547857Y-20479286D01*
X12538333Y-20517381D01*
X12528809Y-20536429D01*
X12519286Y-20545952D01*
X12500238Y-20555476D01*
X12481190Y-20555476D01*
X12462143Y-20545952D01*
X12452619Y-20536429D01*
X12443095Y-20517381D01*
X12433571Y-20479286D01*
X12433571Y-20431667D01*
X12443095Y-20393571D01*
X12452619Y-20374524D01*
X12462143Y-20365000D01*
X12481190Y-20355476D01*
X12719286Y-20422143D02*
X12719286Y-20555476D01*
X12671667Y-20345952D02*
X12624048Y-20488810D01*
X12747857Y-20488810D01*
X12805000Y-20355476D02*
X12938333Y-20355476D01*
X12852619Y-20555476D01*
X13005000Y-20374524D02*
X13014524Y-20365000D01*
X13033571Y-20355476D01*
X13081190Y-20355476D01*
X13100238Y-20365000D01*
X13109762Y-20374524D01*
X13119286Y-20393571D01*
X13119286Y-20412619D01*
X13109762Y-20441190D01*
X12995476Y-20555476D01*
X13119286Y-20555476D01*
X13195476Y-20355476D02*
X13195476Y-20393571D01*
X13271667Y-20355476D02*
X13271667Y-20393571D01*
X13566905Y-20631667D02*
X13557381Y-20622143D01*
X13538333Y-20593571D01*
X13528809Y-20574524D01*
X13519286Y-20545952D01*
X13509762Y-20498333D01*
X13509762Y-20460238D01*
X13519286Y-20412619D01*
X13528809Y-20384048D01*
X13538333Y-20365000D01*
X13557381Y-20336429D01*
X13566905Y-20326905D01*
X13747857Y-20555476D02*
X13633571Y-20555476D01*
X13690714Y-20555476D02*
X13690714Y-20355476D01*
X13671667Y-20384048D01*
X13652619Y-20403095D01*
X13633571Y-20412619D01*
X13824048Y-20374524D02*
X13833571Y-20365000D01*
X13852619Y-20355476D01*
X13900238Y-20355476D01*
X13919286Y-20365000D01*
X13928809Y-20374524D01*
X13938333Y-20393571D01*
X13938333Y-20412619D01*
X13928809Y-20441190D01*
X13814524Y-20555476D01*
X13938333Y-20555476D01*
X14176428Y-20555476D02*
X14176428Y-20355476D01*
X14262143Y-20555476D02*
X14262143Y-20450714D01*
X14252619Y-20431667D01*
X14233571Y-20422143D01*
X14205000Y-20422143D01*
X14185952Y-20431667D01*
X14176428Y-20441190D01*
X14385952Y-20555476D02*
X14366905Y-20545952D01*
X14357381Y-20536429D01*
X14347857Y-20517381D01*
X14347857Y-20460238D01*
X14357381Y-20441190D01*
X14366905Y-20431667D01*
X14385952Y-20422143D01*
X14414524Y-20422143D01*
X14433571Y-20431667D01*
X14443095Y-20441190D01*
X14452619Y-20460238D01*
X14452619Y-20517381D01*
X14443095Y-20536429D01*
X14433571Y-20545952D01*
X14414524Y-20555476D01*
X14385952Y-20555476D01*
X14566905Y-20555476D02*
X14547857Y-20545952D01*
X14538333Y-20526905D01*
X14538333Y-20355476D01*
X14719286Y-20545952D02*
X14700238Y-20555476D01*
X14662143Y-20555476D01*
X14643095Y-20545952D01*
X14633571Y-20526905D01*
X14633571Y-20450714D01*
X14643095Y-20431667D01*
X14662143Y-20422143D01*
X14700238Y-20422143D01*
X14719286Y-20431667D01*
X14728809Y-20450714D01*
X14728809Y-20469762D01*
X14633571Y-20488810D01*
X14805000Y-20545952D02*
X14824048Y-20555476D01*
X14862143Y-20555476D01*
X14881190Y-20545952D01*
X14890714Y-20526905D01*
X14890714Y-20517381D01*
X14881190Y-20498333D01*
X14862143Y-20488810D01*
X14833571Y-20488810D01*
X14814524Y-20479286D01*
X14805000Y-20460238D01*
X14805000Y-20450714D01*
X14814524Y-20431667D01*
X14833571Y-20422143D01*
X14862143Y-20422143D01*
X14881190Y-20431667D01*
X14957381Y-20631667D02*
X14966905Y-20622143D01*
X14985952Y-20593571D01*
X14995476Y-20574524D01*
X15005000Y-20545952D01*
X15014524Y-20498333D01*
X15014524Y-20460238D01*
X15005000Y-20412619D01*
X14995476Y-20384048D01*
X14985952Y-20365000D01*
X14966905Y-20336429D01*
X14957381Y-20326905D01*
D17*
X9845000Y-20654000D02*
X9995000Y-20804000D01*
X9995000Y-20654000D02*
X9845000Y-20804000D01*
X9920000Y-20654000D02*
X9920000Y-20804000D01*
X9845000Y-20729000D02*
X9995000Y-20729000D01*
D11*
X10357381Y-20819476D02*
X10243095Y-20819476D01*
X10300238Y-20819476D02*
X10300238Y-20619476D01*
X10281190Y-20648048D01*
X10262143Y-20667095D01*
X10243095Y-20676619D01*
X10443095Y-20800429D02*
X10452619Y-20809952D01*
X10443095Y-20819476D01*
X10433571Y-20809952D01*
X10443095Y-20800429D01*
X10443095Y-20819476D01*
X10633571Y-20619476D02*
X10538333Y-20619476D01*
X10528810Y-20714714D01*
X10538333Y-20705190D01*
X10557381Y-20695667D01*
X10605000Y-20695667D01*
X10624048Y-20705190D01*
X10633571Y-20714714D01*
X10643095Y-20733762D01*
X10643095Y-20781381D01*
X10633571Y-20800429D01*
X10624048Y-20809952D01*
X10605000Y-20819476D01*
X10557381Y-20819476D01*
X10538333Y-20809952D01*
X10528810Y-20800429D01*
X10766905Y-20619476D02*
X10785952Y-20619476D01*
X10805000Y-20629000D01*
X10814524Y-20638524D01*
X10824048Y-20657571D01*
X10833571Y-20695667D01*
X10833571Y-20743286D01*
X10824048Y-20781381D01*
X10814524Y-20800429D01*
X10805000Y-20809952D01*
X10785952Y-20819476D01*
X10766905Y-20819476D01*
X10747857Y-20809952D01*
X10738333Y-20800429D01*
X10728810Y-20781381D01*
X10719286Y-20743286D01*
X10719286Y-20695667D01*
X10728810Y-20657571D01*
X10738333Y-20638524D01*
X10747857Y-20629000D01*
X10766905Y-20619476D01*
X10957381Y-20619476D02*
X10976429Y-20619476D01*
X10995476Y-20629000D01*
X11005000Y-20638524D01*
X11014524Y-20657571D01*
X11024048Y-20695667D01*
X11024048Y-20743286D01*
X11014524Y-20781381D01*
X11005000Y-20800429D01*
X10995476Y-20809952D01*
X10976429Y-20819476D01*
X10957381Y-20819476D01*
X10938333Y-20809952D01*
X10928810Y-20800429D01*
X10919286Y-20781381D01*
X10909762Y-20743286D01*
X10909762Y-20695667D01*
X10919286Y-20657571D01*
X10928810Y-20638524D01*
X10938333Y-20629000D01*
X10957381Y-20619476D01*
X11109762Y-20819476D02*
X11109762Y-20686143D01*
X11109762Y-20705190D02*
X11119286Y-20695667D01*
X11138333Y-20686143D01*
X11166905Y-20686143D01*
X11185952Y-20695667D01*
X11195476Y-20714714D01*
X11195476Y-20819476D01*
X11195476Y-20714714D02*
X11205000Y-20695667D01*
X11224048Y-20686143D01*
X11252619Y-20686143D01*
X11271667Y-20695667D01*
X11281190Y-20714714D01*
X11281190Y-20819476D01*
X11376428Y-20819476D02*
X11376428Y-20686143D01*
X11376428Y-20705190D02*
X11385952Y-20695667D01*
X11405000Y-20686143D01*
X11433571Y-20686143D01*
X11452619Y-20695667D01*
X11462143Y-20714714D01*
X11462143Y-20819476D01*
X11462143Y-20714714D02*
X11471667Y-20695667D01*
X11490714Y-20686143D01*
X11519286Y-20686143D01*
X11538333Y-20695667D01*
X11547857Y-20714714D01*
X11547857Y-20819476D01*
X11938333Y-20609952D02*
X11766905Y-20867095D01*
X12195476Y-20619476D02*
X12214524Y-20619476D01*
X12233571Y-20629000D01*
X12243095Y-20638524D01*
X12252619Y-20657571D01*
X12262143Y-20695667D01*
X12262143Y-20743286D01*
X12252619Y-20781381D01*
X12243095Y-20800429D01*
X12233571Y-20809952D01*
X12214524Y-20819476D01*
X12195476Y-20819476D01*
X12176428Y-20809952D01*
X12166905Y-20800429D01*
X12157381Y-20781381D01*
X12147857Y-20743286D01*
X12147857Y-20695667D01*
X12157381Y-20657571D01*
X12166905Y-20638524D01*
X12176428Y-20629000D01*
X12195476Y-20619476D01*
X12347857Y-20800429D02*
X12357381Y-20809952D01*
X12347857Y-20819476D01*
X12338333Y-20809952D01*
X12347857Y-20800429D01*
X12347857Y-20819476D01*
X12481190Y-20619476D02*
X12500238Y-20619476D01*
X12519286Y-20629000D01*
X12528809Y-20638524D01*
X12538333Y-20657571D01*
X12547857Y-20695667D01*
X12547857Y-20743286D01*
X12538333Y-20781381D01*
X12528809Y-20800429D01*
X12519286Y-20809952D01*
X12500238Y-20819476D01*
X12481190Y-20819476D01*
X12462143Y-20809952D01*
X12452619Y-20800429D01*
X12443095Y-20781381D01*
X12433571Y-20743286D01*
X12433571Y-20695667D01*
X12443095Y-20657571D01*
X12452619Y-20638524D01*
X12462143Y-20629000D01*
X12481190Y-20619476D01*
X12728809Y-20619476D02*
X12633571Y-20619476D01*
X12624048Y-20714714D01*
X12633571Y-20705190D01*
X12652619Y-20695667D01*
X12700238Y-20695667D01*
X12719286Y-20705190D01*
X12728809Y-20714714D01*
X12738333Y-20733762D01*
X12738333Y-20781381D01*
X12728809Y-20800429D01*
X12719286Y-20809952D01*
X12700238Y-20819476D01*
X12652619Y-20819476D01*
X12633571Y-20809952D01*
X12624048Y-20800429D01*
X12833571Y-20819476D02*
X12871667Y-20819476D01*
X12890714Y-20809952D01*
X12900238Y-20800429D01*
X12919286Y-20771857D01*
X12928809Y-20733762D01*
X12928809Y-20657571D01*
X12919286Y-20638524D01*
X12909762Y-20629000D01*
X12890714Y-20619476D01*
X12852619Y-20619476D01*
X12833571Y-20629000D01*
X12824048Y-20638524D01*
X12814524Y-20657571D01*
X12814524Y-20705190D01*
X12824048Y-20724238D01*
X12833571Y-20733762D01*
X12852619Y-20743286D01*
X12890714Y-20743286D01*
X12909762Y-20733762D01*
X12919286Y-20724238D01*
X12928809Y-20705190D01*
X13119286Y-20819476D02*
X13005000Y-20819476D01*
X13062143Y-20819476D02*
X13062143Y-20619476D01*
X13043095Y-20648048D01*
X13024048Y-20667095D01*
X13005000Y-20676619D01*
X13195476Y-20619476D02*
X13195476Y-20657571D01*
X13271667Y-20619476D02*
X13271667Y-20657571D01*
X13566905Y-20895667D02*
X13557381Y-20886143D01*
X13538333Y-20857571D01*
X13528809Y-20838524D01*
X13519286Y-20809952D01*
X13509762Y-20762333D01*
X13509762Y-20724238D01*
X13519286Y-20676619D01*
X13528809Y-20648048D01*
X13538333Y-20629000D01*
X13557381Y-20600429D01*
X13566905Y-20590905D01*
X13738333Y-20619476D02*
X13643095Y-20619476D01*
X13633571Y-20714714D01*
X13643095Y-20705190D01*
X13662143Y-20695667D01*
X13709762Y-20695667D01*
X13728809Y-20705190D01*
X13738333Y-20714714D01*
X13747857Y-20733762D01*
X13747857Y-20781381D01*
X13738333Y-20800429D01*
X13728809Y-20809952D01*
X13709762Y-20819476D01*
X13662143Y-20819476D01*
X13643095Y-20809952D01*
X13633571Y-20800429D01*
X13985952Y-20819476D02*
X13985952Y-20619476D01*
X14071667Y-20819476D02*
X14071667Y-20714714D01*
X14062143Y-20695667D01*
X14043095Y-20686143D01*
X14014524Y-20686143D01*
X13995476Y-20695667D01*
X13985952Y-20705190D01*
X14195476Y-20819476D02*
X14176428Y-20809952D01*
X14166905Y-20800429D01*
X14157381Y-20781381D01*
X14157381Y-20724238D01*
X14166905Y-20705190D01*
X14176428Y-20695667D01*
X14195476Y-20686143D01*
X14224048Y-20686143D01*
X14243095Y-20695667D01*
X14252619Y-20705190D01*
X14262143Y-20724238D01*
X14262143Y-20781381D01*
X14252619Y-20800429D01*
X14243095Y-20809952D01*
X14224048Y-20819476D01*
X14195476Y-20819476D01*
X14376428Y-20819476D02*
X14357381Y-20809952D01*
X14347857Y-20790905D01*
X14347857Y-20619476D01*
X14528809Y-20809952D02*
X14509762Y-20819476D01*
X14471667Y-20819476D01*
X14452619Y-20809952D01*
X14443095Y-20790905D01*
X14443095Y-20714714D01*
X14452619Y-20695667D01*
X14471667Y-20686143D01*
X14509762Y-20686143D01*
X14528809Y-20695667D01*
X14538333Y-20714714D01*
X14538333Y-20733762D01*
X14443095Y-20752810D01*
X14614524Y-20809952D02*
X14633571Y-20819476D01*
X14671667Y-20819476D01*
X14690714Y-20809952D01*
X14700238Y-20790905D01*
X14700238Y-20781381D01*
X14690714Y-20762333D01*
X14671667Y-20752810D01*
X14643095Y-20752810D01*
X14624048Y-20743286D01*
X14614524Y-20724238D01*
X14614524Y-20714714D01*
X14624048Y-20695667D01*
X14643095Y-20686143D01*
X14671667Y-20686143D01*
X14690714Y-20695667D01*
X14766905Y-20895667D02*
X14776428Y-20886143D01*
X14795476Y-20857571D01*
X14805000Y-20838524D01*
X14814524Y-20809952D01*
X14824048Y-20762333D01*
X14824048Y-20724238D01*
X14814524Y-20676619D01*
X14805000Y-20648048D01*
X14795476Y-20629000D01*
X14776428Y-20600429D01*
X14766905Y-20590905D01*
X9795000Y-20899000D02*
X9995000Y-21099000D01*
X9995000Y-20899000D02*
X9795000Y-21099000D01*
X9965711Y-21069711D02*
X9965711Y-20928289D01*
X9824289Y-20928289D01*
X9824289Y-21069711D01*
X9965711Y-21069711D01*
X10233571Y-20889476D02*
X10357381Y-20889476D01*
X10290714Y-20965667D01*
X10319286Y-20965667D01*
X10338333Y-20975190D01*
X10347857Y-20984714D01*
X10357381Y-21003762D01*
X10357381Y-21051381D01*
X10347857Y-21070429D01*
X10338333Y-21079952D01*
X10319286Y-21089476D01*
X10262143Y-21089476D01*
X10243095Y-21079952D01*
X10233571Y-21070429D01*
X10443095Y-21070429D02*
X10452619Y-21079952D01*
X10443095Y-21089476D01*
X10433571Y-21079952D01*
X10443095Y-21070429D01*
X10443095Y-21089476D01*
X10633571Y-20889476D02*
X10538333Y-20889476D01*
X10528810Y-20984714D01*
X10538333Y-20975190D01*
X10557381Y-20965667D01*
X10605000Y-20965667D01*
X10624048Y-20975190D01*
X10633571Y-20984714D01*
X10643095Y-21003762D01*
X10643095Y-21051381D01*
X10633571Y-21070429D01*
X10624048Y-21079952D01*
X10605000Y-21089476D01*
X10557381Y-21089476D01*
X10538333Y-21079952D01*
X10528810Y-21070429D01*
X10766905Y-20889476D02*
X10785952Y-20889476D01*
X10805000Y-20899000D01*
X10814524Y-20908524D01*
X10824048Y-20927571D01*
X10833571Y-20965667D01*
X10833571Y-21013286D01*
X10824048Y-21051381D01*
X10814524Y-21070429D01*
X10805000Y-21079952D01*
X10785952Y-21089476D01*
X10766905Y-21089476D01*
X10747857Y-21079952D01*
X10738333Y-21070429D01*
X10728810Y-21051381D01*
X10719286Y-21013286D01*
X10719286Y-20965667D01*
X10728810Y-20927571D01*
X10738333Y-20908524D01*
X10747857Y-20899000D01*
X10766905Y-20889476D01*
X10957381Y-20889476D02*
X10976429Y-20889476D01*
X10995476Y-20899000D01*
X11005000Y-20908524D01*
X11014524Y-20927571D01*
X11024048Y-20965667D01*
X11024048Y-21013286D01*
X11014524Y-21051381D01*
X11005000Y-21070429D01*
X10995476Y-21079952D01*
X10976429Y-21089476D01*
X10957381Y-21089476D01*
X10938333Y-21079952D01*
X10928810Y-21070429D01*
X10919286Y-21051381D01*
X10909762Y-21013286D01*
X10909762Y-20965667D01*
X10919286Y-20927571D01*
X10928810Y-20908524D01*
X10938333Y-20899000D01*
X10957381Y-20889476D01*
X11109762Y-21089476D02*
X11109762Y-20956143D01*
X11109762Y-20975190D02*
X11119286Y-20965667D01*
X11138333Y-20956143D01*
X11166905Y-20956143D01*
X11185952Y-20965667D01*
X11195476Y-20984714D01*
X11195476Y-21089476D01*
X11195476Y-20984714D02*
X11205000Y-20965667D01*
X11224048Y-20956143D01*
X11252619Y-20956143D01*
X11271667Y-20965667D01*
X11281190Y-20984714D01*
X11281190Y-21089476D01*
X11376428Y-21089476D02*
X11376428Y-20956143D01*
X11376428Y-20975190D02*
X11385952Y-20965667D01*
X11405000Y-20956143D01*
X11433571Y-20956143D01*
X11452619Y-20965667D01*
X11462143Y-20984714D01*
X11462143Y-21089476D01*
X11462143Y-20984714D02*
X11471667Y-20965667D01*
X11490714Y-20956143D01*
X11519286Y-20956143D01*
X11538333Y-20965667D01*
X11547857Y-20984714D01*
X11547857Y-21089476D01*
X11938333Y-20879952D02*
X11766905Y-21137095D01*
X12195476Y-20889476D02*
X12214524Y-20889476D01*
X12233571Y-20899000D01*
X12243095Y-20908524D01*
X12252619Y-20927571D01*
X12262143Y-20965667D01*
X12262143Y-21013286D01*
X12252619Y-21051381D01*
X12243095Y-21070429D01*
X12233571Y-21079952D01*
X12214524Y-21089476D01*
X12195476Y-21089476D01*
X12176428Y-21079952D01*
X12166905Y-21070429D01*
X12157381Y-21051381D01*
X12147857Y-21013286D01*
X12147857Y-20965667D01*
X12157381Y-20927571D01*
X12166905Y-20908524D01*
X12176428Y-20899000D01*
X12195476Y-20889476D01*
X12347857Y-21070429D02*
X12357381Y-21079952D01*
X12347857Y-21089476D01*
X12338333Y-21079952D01*
X12347857Y-21070429D01*
X12347857Y-21089476D01*
X12547857Y-21089476D02*
X12433571Y-21089476D01*
X12490714Y-21089476D02*
X12490714Y-20889476D01*
X12471667Y-20918048D01*
X12452619Y-20937095D01*
X12433571Y-20946619D01*
X12614524Y-20889476D02*
X12738333Y-20889476D01*
X12671667Y-20965667D01*
X12700238Y-20965667D01*
X12719286Y-20975190D01*
X12728809Y-20984714D01*
X12738333Y-21003762D01*
X12738333Y-21051381D01*
X12728809Y-21070429D01*
X12719286Y-21079952D01*
X12700238Y-21089476D01*
X12643095Y-21089476D01*
X12624048Y-21079952D01*
X12614524Y-21070429D01*
X12805000Y-20889476D02*
X12938333Y-20889476D01*
X12852619Y-21089476D01*
X13043095Y-20975190D02*
X13024048Y-20965667D01*
X13014524Y-20956143D01*
X13005000Y-20937095D01*
X13005000Y-20927571D01*
X13014524Y-20908524D01*
X13024048Y-20899000D01*
X13043095Y-20889476D01*
X13081190Y-20889476D01*
X13100238Y-20899000D01*
X13109762Y-20908524D01*
X13119286Y-20927571D01*
X13119286Y-20937095D01*
X13109762Y-20956143D01*
X13100238Y-20965667D01*
X13081190Y-20975190D01*
X13043095Y-20975190D01*
X13024048Y-20984714D01*
X13014524Y-20994238D01*
X13005000Y-21013286D01*
X13005000Y-21051381D01*
X13014524Y-21070429D01*
X13024048Y-21079952D01*
X13043095Y-21089476D01*
X13081190Y-21089476D01*
X13100238Y-21079952D01*
X13109762Y-21070429D01*
X13119286Y-21051381D01*
X13119286Y-21013286D01*
X13109762Y-20994238D01*
X13100238Y-20984714D01*
X13081190Y-20975190D01*
X13195476Y-20889476D02*
X13195476Y-20927571D01*
X13271667Y-20889476D02*
X13271667Y-20927571D01*
X13566905Y-21165667D02*
X13557381Y-21156143D01*
X13538333Y-21127571D01*
X13528809Y-21108524D01*
X13519286Y-21079952D01*
X13509762Y-21032333D01*
X13509762Y-20994238D01*
X13519286Y-20946619D01*
X13528809Y-20918048D01*
X13538333Y-20899000D01*
X13557381Y-20870429D01*
X13566905Y-20860905D01*
X13633571Y-20908524D02*
X13643095Y-20899000D01*
X13662143Y-20889476D01*
X13709762Y-20889476D01*
X13728809Y-20899000D01*
X13738333Y-20908524D01*
X13747857Y-20927571D01*
X13747857Y-20946619D01*
X13738333Y-20975190D01*
X13624048Y-21089476D01*
X13747857Y-21089476D01*
X13985952Y-21089476D02*
X13985952Y-20889476D01*
X14071667Y-21089476D02*
X14071667Y-20984714D01*
X14062143Y-20965667D01*
X14043095Y-20956143D01*
X14014524Y-20956143D01*
X13995476Y-20965667D01*
X13985952Y-20975190D01*
X14195476Y-21089476D02*
X14176428Y-21079952D01*
X14166905Y-21070429D01*
X14157381Y-21051381D01*
X14157381Y-20994238D01*
X14166905Y-20975190D01*
X14176428Y-20965667D01*
X14195476Y-20956143D01*
X14224048Y-20956143D01*
X14243095Y-20965667D01*
X14252619Y-20975190D01*
X14262143Y-20994238D01*
X14262143Y-21051381D01*
X14252619Y-21070429D01*
X14243095Y-21079952D01*
X14224048Y-21089476D01*
X14195476Y-21089476D01*
X14376428Y-21089476D02*
X14357381Y-21079952D01*
X14347857Y-21060905D01*
X14347857Y-20889476D01*
X14528809Y-21079952D02*
X14509762Y-21089476D01*
X14471667Y-21089476D01*
X14452619Y-21079952D01*
X14443095Y-21060905D01*
X14443095Y-20984714D01*
X14452619Y-20965667D01*
X14471667Y-20956143D01*
X14509762Y-20956143D01*
X14528809Y-20965667D01*
X14538333Y-20984714D01*
X14538333Y-21003762D01*
X14443095Y-21022810D01*
X14614524Y-21079952D02*
X14633571Y-21089476D01*
X14671667Y-21089476D01*
X14690714Y-21079952D01*
X14700238Y-21060905D01*
X14700238Y-21051381D01*
X14690714Y-21032333D01*
X14671667Y-21022810D01*
X14643095Y-21022810D01*
X14624048Y-21013286D01*
X14614524Y-20994238D01*
X14614524Y-20984714D01*
X14624048Y-20965667D01*
X14643095Y-20956143D01*
X14671667Y-20956143D01*
X14690714Y-20965667D01*
X14766905Y-21165667D02*
X14776428Y-21156143D01*
X14795476Y-21127571D01*
X14805000Y-21108524D01*
X14814524Y-21079952D01*
X14824048Y-21032333D01*
X14824048Y-20994238D01*
X14814524Y-20946619D01*
X14805000Y-20918048D01*
X14795476Y-20899000D01*
X14776428Y-20870429D01*
X14766905Y-20860905D01*
M02*
