%TF.GenerationSoftware,KiCad,Pcbnew,(6.0.2)*%
%TF.CreationDate,2022-08-02T15:31:11+02:00*%
%TF.ProjectId,hv_discharge_v2c,68765f64-6973-4636-9861-7267655f7632,rev?*%
%TF.SameCoordinates,Original*%
%TF.FileFunction,Legend,Bot*%
%TF.FilePolarity,Positive*%
%FSLAX46Y46*%
G04 Gerber Fmt 4.6, Leading zero omitted, Abs format (unit mm)*
G04 Created by KiCad (PCBNEW (6.0.2)) date 2022-08-02 15:31:11*
%MOMM*%
%LPD*%
G01*
G04 APERTURE LIST*
G04 Aperture macros list*
%AMRoundRect*
0 Rectangle with rounded corners*
0 $1 Rounding radius*
0 $2 $3 $4 $5 $6 $7 $8 $9 X,Y pos of 4 corners*
0 Add a 4 corners polygon primitive as box body*
4,1,4,$2,$3,$4,$5,$6,$7,$8,$9,$2,$3,0*
0 Add four circle primitives for the rounded corners*
1,1,$1+$1,$2,$3*
1,1,$1+$1,$4,$5*
1,1,$1+$1,$6,$7*
1,1,$1+$1,$8,$9*
0 Add four rect primitives between the rounded corners*
20,1,$1+$1,$2,$3,$4,$5,0*
20,1,$1+$1,$4,$5,$6,$7,0*
20,1,$1+$1,$6,$7,$8,$9,0*
20,1,$1+$1,$8,$9,$2,$3,0*%
G04 Aperture macros list end*
%ADD10C,0.150000*%
%ADD11C,0.300000*%
%ADD12C,0.120000*%
%ADD13C,3.200000*%
%ADD14C,2.500000*%
%ADD15C,0.500000*%
%ADD16R,2.200000X2.200000*%
%ADD17O,2.200000X2.200000*%
%ADD18R,1.800000X1.800000*%
%ADD19C,1.800000*%
%ADD20R,2.500000X4.500000*%
%ADD21O,2.500000X4.500000*%
%ADD22C,3.300000*%
%ADD23C,3.600000*%
%ADD24O,3.000000X3.000000*%
%ADD25C,1.440000*%
%ADD26RoundRect,0.250000X-0.450000X0.350000X-0.450000X-0.350000X0.450000X-0.350000X0.450000X0.350000X0*%
%ADD27RoundRect,0.250000X0.450000X-0.350000X0.450000X0.350000X-0.450000X0.350000X-0.450000X-0.350000X0*%
%ADD28R,1.300000X1.700000*%
%ADD29RoundRect,0.250000X0.350000X0.450000X-0.350000X0.450000X-0.350000X-0.450000X0.350000X-0.450000X0*%
%ADD30R,1.700000X1.300000*%
%ADD31RoundRect,0.250000X-0.475000X0.337500X-0.475000X-0.337500X0.475000X-0.337500X0.475000X0.337500X0*%
%ADD32RoundRect,0.150000X0.587500X0.150000X-0.587500X0.150000X-0.587500X-0.150000X0.587500X-0.150000X0*%
%ADD33R,0.558800X1.320800*%
%ADD34RoundRect,0.250000X-0.350000X-0.450000X0.350000X-0.450000X0.350000X0.450000X-0.350000X0.450000X0*%
%ADD35RoundRect,0.250000X-0.450000X0.325000X-0.450000X-0.325000X0.450000X-0.325000X0.450000X0.325000X0*%
%ADD36RoundRect,0.150000X-0.150000X0.587500X-0.150000X-0.587500X0.150000X-0.587500X0.150000X0.587500X0*%
G04 APERTURE END LIST*
D10*
X101552380Y-120180952D02*
X102266666Y-120180952D01*
X102409523Y-120133333D01*
X102504761Y-120038095D01*
X102552380Y-119895238D01*
X102552380Y-119800000D01*
X102552380Y-121133333D02*
X102552380Y-120657142D01*
X101552380Y-120657142D01*
X102457142Y-122038095D02*
X102504761Y-121990476D01*
X102552380Y-121847619D01*
X102552380Y-121752380D01*
X102504761Y-121609523D01*
X102409523Y-121514285D01*
X102314285Y-121466666D01*
X102123809Y-121419047D01*
X101980952Y-121419047D01*
X101790476Y-121466666D01*
X101695238Y-121514285D01*
X101600000Y-121609523D01*
X101552380Y-121752380D01*
X101552380Y-121847619D01*
X101600000Y-121990476D01*
X101647619Y-122038095D01*
X101552380Y-122752380D02*
X102266666Y-122752380D01*
X102409523Y-122704761D01*
X102504761Y-122609523D01*
X102552380Y-122466666D01*
X102552380Y-122371428D01*
X102552380Y-123704761D02*
X102552380Y-123228571D01*
X101552380Y-123228571D01*
X102457142Y-124609523D02*
X102504761Y-124561904D01*
X102552380Y-124419047D01*
X102552380Y-124323809D01*
X102504761Y-124180952D01*
X102409523Y-124085714D01*
X102314285Y-124038095D01*
X102123809Y-123990476D01*
X101980952Y-123990476D01*
X101790476Y-124038095D01*
X101695238Y-124085714D01*
X101600000Y-124180952D01*
X101552380Y-124323809D01*
X101552380Y-124419047D01*
X101600000Y-124561904D01*
X101647619Y-124609523D01*
X101552380Y-125323809D02*
X102266666Y-125323809D01*
X102409523Y-125276190D01*
X102504761Y-125180952D01*
X102552380Y-125038095D01*
X102552380Y-124942857D01*
X102552380Y-126276190D02*
X102552380Y-125800000D01*
X101552380Y-125800000D01*
X102457142Y-127180952D02*
X102504761Y-127133333D01*
X102552380Y-126990476D01*
X102552380Y-126895238D01*
X102504761Y-126752380D01*
X102409523Y-126657142D01*
X102314285Y-126609523D01*
X102123809Y-126561904D01*
X101980952Y-126561904D01*
X101790476Y-126609523D01*
X101695238Y-126657142D01*
X101600000Y-126752380D01*
X101552380Y-126895238D01*
X101552380Y-126990476D01*
X101600000Y-127133333D01*
X101647619Y-127180952D01*
X101552380Y-127895238D02*
X102266666Y-127895238D01*
X102409523Y-127847619D01*
X102504761Y-127752380D01*
X102552380Y-127609523D01*
X102552380Y-127514285D01*
X102552380Y-128847619D02*
X102552380Y-128371428D01*
X101552380Y-128371428D01*
X102457142Y-129752380D02*
X102504761Y-129704761D01*
X102552380Y-129561904D01*
X102552380Y-129466666D01*
X102504761Y-129323809D01*
X102409523Y-129228571D01*
X102314285Y-129180952D01*
X102123809Y-129133333D01*
X101980952Y-129133333D01*
X101790476Y-129180952D01*
X101695238Y-129228571D01*
X101600000Y-129323809D01*
X101552380Y-129466666D01*
X101552380Y-129561904D01*
X101600000Y-129704761D01*
X101647619Y-129752380D01*
X124750000Y-175000000D02*
X125000000Y-174750000D01*
X125000000Y-174750000D02*
X125250000Y-175000000D01*
D11*
X125650000Y-171250000D02*
G75*
G03*
X125650000Y-171250000I-150000J0D01*
G01*
D10*
X119500000Y-172750000D02*
X119000000Y-172750000D01*
X115000000Y-169500000D02*
X114750000Y-169750000D01*
X115000000Y-169500000D02*
X110500000Y-169500000D01*
X119000000Y-173250000D02*
X119500000Y-172750000D01*
X119000000Y-172750000D02*
X119500000Y-172750000D01*
X119500000Y-173250000D02*
X119500000Y-172750000D01*
X115000000Y-169500000D02*
X114750000Y-169250000D01*
X117500000Y-173250000D02*
X119000000Y-173250000D01*
X125000000Y-175500000D02*
X125000000Y-174750000D01*
X125250000Y-175000000D02*
X125000000Y-174750000D01*
X125500000Y-175500000D02*
X125000000Y-175500000D01*
%TO.C,R27*%
X112952380Y-167107142D02*
X112476190Y-166773809D01*
X112952380Y-166535714D02*
X111952380Y-166535714D01*
X111952380Y-166916666D01*
X112000000Y-167011904D01*
X112047619Y-167059523D01*
X112142857Y-167107142D01*
X112285714Y-167107142D01*
X112380952Y-167059523D01*
X112428571Y-167011904D01*
X112476190Y-166916666D01*
X112476190Y-166535714D01*
X112047619Y-167488095D02*
X112000000Y-167535714D01*
X111952380Y-167630952D01*
X111952380Y-167869047D01*
X112000000Y-167964285D01*
X112047619Y-168011904D01*
X112142857Y-168059523D01*
X112238095Y-168059523D01*
X112380952Y-168011904D01*
X112952380Y-167440476D01*
X112952380Y-168059523D01*
X111952380Y-168392857D02*
X111952380Y-169059523D01*
X112952380Y-168630952D01*
%TO.C,R24*%
X131892857Y-175202380D02*
X132226190Y-174726190D01*
X132464285Y-175202380D02*
X132464285Y-174202380D01*
X132083333Y-174202380D01*
X131988095Y-174250000D01*
X131940476Y-174297619D01*
X131892857Y-174392857D01*
X131892857Y-174535714D01*
X131940476Y-174630952D01*
X131988095Y-174678571D01*
X132083333Y-174726190D01*
X132464285Y-174726190D01*
X131511904Y-174297619D02*
X131464285Y-174250000D01*
X131369047Y-174202380D01*
X131130952Y-174202380D01*
X131035714Y-174250000D01*
X130988095Y-174297619D01*
X130940476Y-174392857D01*
X130940476Y-174488095D01*
X130988095Y-174630952D01*
X131559523Y-175202380D01*
X130940476Y-175202380D01*
X130083333Y-174535714D02*
X130083333Y-175202380D01*
X130321428Y-174154761D02*
X130559523Y-174869047D01*
X129940476Y-174869047D01*
%TO.C,D8*%
X118488095Y-184452380D02*
X118488095Y-183452380D01*
X118250000Y-183452380D01*
X118107142Y-183500000D01*
X118011904Y-183595238D01*
X117964285Y-183690476D01*
X117916666Y-183880952D01*
X117916666Y-184023809D01*
X117964285Y-184214285D01*
X118011904Y-184309523D01*
X118107142Y-184404761D01*
X118250000Y-184452380D01*
X118488095Y-184452380D01*
X117345238Y-183880952D02*
X117440476Y-183833333D01*
X117488095Y-183785714D01*
X117535714Y-183690476D01*
X117535714Y-183642857D01*
X117488095Y-183547619D01*
X117440476Y-183500000D01*
X117345238Y-183452380D01*
X117154761Y-183452380D01*
X117059523Y-183500000D01*
X117011904Y-183547619D01*
X116964285Y-183642857D01*
X116964285Y-183690476D01*
X117011904Y-183785714D01*
X117059523Y-183833333D01*
X117154761Y-183880952D01*
X117345238Y-183880952D01*
X117440476Y-183928571D01*
X117488095Y-183976190D01*
X117535714Y-184071428D01*
X117535714Y-184261904D01*
X117488095Y-184357142D01*
X117440476Y-184404761D01*
X117345238Y-184452380D01*
X117154761Y-184452380D01*
X117059523Y-184404761D01*
X117011904Y-184357142D01*
X116964285Y-184261904D01*
X116964285Y-184071428D01*
X117011904Y-183976190D01*
X117059523Y-183928571D01*
X117154761Y-183880952D01*
%TO.C,R26*%
X114452380Y-167107142D02*
X113976190Y-166773809D01*
X114452380Y-166535714D02*
X113452380Y-166535714D01*
X113452380Y-166916666D01*
X113500000Y-167011904D01*
X113547619Y-167059523D01*
X113642857Y-167107142D01*
X113785714Y-167107142D01*
X113880952Y-167059523D01*
X113928571Y-167011904D01*
X113976190Y-166916666D01*
X113976190Y-166535714D01*
X113547619Y-167488095D02*
X113500000Y-167535714D01*
X113452380Y-167630952D01*
X113452380Y-167869047D01*
X113500000Y-167964285D01*
X113547619Y-168011904D01*
X113642857Y-168059523D01*
X113738095Y-168059523D01*
X113880952Y-168011904D01*
X114452380Y-167440476D01*
X114452380Y-168059523D01*
X113452380Y-168916666D02*
X113452380Y-168726190D01*
X113500000Y-168630952D01*
X113547619Y-168583333D01*
X113690476Y-168488095D01*
X113880952Y-168440476D01*
X114261904Y-168440476D01*
X114357142Y-168488095D01*
X114404761Y-168535714D01*
X114452380Y-168630952D01*
X114452380Y-168821428D01*
X114404761Y-168916666D01*
X114357142Y-168964285D01*
X114261904Y-169011904D01*
X114023809Y-169011904D01*
X113928571Y-168964285D01*
X113880952Y-168916666D01*
X113833333Y-168821428D01*
X113833333Y-168630952D01*
X113880952Y-168535714D01*
X113928571Y-168488095D01*
X114023809Y-168440476D01*
%TO.C,R17*%
X135642857Y-179552380D02*
X135976190Y-179076190D01*
X136214285Y-179552380D02*
X136214285Y-178552380D01*
X135833333Y-178552380D01*
X135738095Y-178600000D01*
X135690476Y-178647619D01*
X135642857Y-178742857D01*
X135642857Y-178885714D01*
X135690476Y-178980952D01*
X135738095Y-179028571D01*
X135833333Y-179076190D01*
X136214285Y-179076190D01*
X134690476Y-179552380D02*
X135261904Y-179552380D01*
X134976190Y-179552380D02*
X134976190Y-178552380D01*
X135071428Y-178695238D01*
X135166666Y-178790476D01*
X135261904Y-178838095D01*
X134357142Y-178552380D02*
X133690476Y-178552380D01*
X134119047Y-179552380D01*
%TO.C,D3*%
X131202380Y-154761904D02*
X130202380Y-154761904D01*
X130202380Y-155000000D01*
X130250000Y-155142857D01*
X130345238Y-155238095D01*
X130440476Y-155285714D01*
X130630952Y-155333333D01*
X130773809Y-155333333D01*
X130964285Y-155285714D01*
X131059523Y-155238095D01*
X131154761Y-155142857D01*
X131202380Y-155000000D01*
X131202380Y-154761904D01*
X130202380Y-155666666D02*
X130202380Y-156285714D01*
X130583333Y-155952380D01*
X130583333Y-156095238D01*
X130630952Y-156190476D01*
X130678571Y-156238095D01*
X130773809Y-156285714D01*
X131011904Y-156285714D01*
X131107142Y-156238095D01*
X131154761Y-156190476D01*
X131202380Y-156095238D01*
X131202380Y-155809523D01*
X131154761Y-155714285D01*
X131107142Y-155666666D01*
%TO.C,R23*%
X135142857Y-175202380D02*
X135476190Y-174726190D01*
X135714285Y-175202380D02*
X135714285Y-174202380D01*
X135333333Y-174202380D01*
X135238095Y-174250000D01*
X135190476Y-174297619D01*
X135142857Y-174392857D01*
X135142857Y-174535714D01*
X135190476Y-174630952D01*
X135238095Y-174678571D01*
X135333333Y-174726190D01*
X135714285Y-174726190D01*
X134761904Y-174297619D02*
X134714285Y-174250000D01*
X134619047Y-174202380D01*
X134380952Y-174202380D01*
X134285714Y-174250000D01*
X134238095Y-174297619D01*
X134190476Y-174392857D01*
X134190476Y-174488095D01*
X134238095Y-174630952D01*
X134809523Y-175202380D01*
X134190476Y-175202380D01*
X133857142Y-174202380D02*
X133238095Y-174202380D01*
X133571428Y-174583333D01*
X133428571Y-174583333D01*
X133333333Y-174630952D01*
X133285714Y-174678571D01*
X133238095Y-174773809D01*
X133238095Y-175011904D01*
X133285714Y-175107142D01*
X133333333Y-175154761D01*
X133428571Y-175202380D01*
X133714285Y-175202380D01*
X133809523Y-175154761D01*
X133857142Y-175107142D01*
%TO.C,R4*%
X140602380Y-149333333D02*
X140126190Y-149000000D01*
X140602380Y-148761904D02*
X139602380Y-148761904D01*
X139602380Y-149142857D01*
X139650000Y-149238095D01*
X139697619Y-149285714D01*
X139792857Y-149333333D01*
X139935714Y-149333333D01*
X140030952Y-149285714D01*
X140078571Y-149238095D01*
X140126190Y-149142857D01*
X140126190Y-148761904D01*
X139935714Y-150190476D02*
X140602380Y-150190476D01*
X139554761Y-149952380D02*
X140269047Y-149714285D01*
X140269047Y-150333333D01*
%TO.C,C2*%
X128666666Y-166607142D02*
X128714285Y-166654761D01*
X128857142Y-166702380D01*
X128952380Y-166702380D01*
X129095238Y-166654761D01*
X129190476Y-166559523D01*
X129238095Y-166464285D01*
X129285714Y-166273809D01*
X129285714Y-166130952D01*
X129238095Y-165940476D01*
X129190476Y-165845238D01*
X129095238Y-165750000D01*
X128952380Y-165702380D01*
X128857142Y-165702380D01*
X128714285Y-165750000D01*
X128666666Y-165797619D01*
X128285714Y-165797619D02*
X128238095Y-165750000D01*
X128142857Y-165702380D01*
X127904761Y-165702380D01*
X127809523Y-165750000D01*
X127761904Y-165797619D01*
X127714285Y-165892857D01*
X127714285Y-165988095D01*
X127761904Y-166130952D01*
X128333333Y-166702380D01*
X127714285Y-166702380D01*
%TO.C,D5*%
X118196130Y-159161904D02*
X117196130Y-159161904D01*
X117196130Y-159400000D01*
X117243750Y-159542857D01*
X117338988Y-159638095D01*
X117434226Y-159685714D01*
X117624702Y-159733333D01*
X117767559Y-159733333D01*
X117958035Y-159685714D01*
X118053273Y-159638095D01*
X118148511Y-159542857D01*
X118196130Y-159400000D01*
X118196130Y-159161904D01*
X117196130Y-160638095D02*
X117196130Y-160161904D01*
X117672321Y-160114285D01*
X117624702Y-160161904D01*
X117577083Y-160257142D01*
X117577083Y-160495238D01*
X117624702Y-160590476D01*
X117672321Y-160638095D01*
X117767559Y-160685714D01*
X118005654Y-160685714D01*
X118100892Y-160638095D01*
X118148511Y-160590476D01*
X118196130Y-160495238D01*
X118196130Y-160257142D01*
X118148511Y-160161904D01*
X118100892Y-160114285D01*
%TO.C,R5*%
X140602380Y-153333333D02*
X140126190Y-153000000D01*
X140602380Y-152761904D02*
X139602380Y-152761904D01*
X139602380Y-153142857D01*
X139650000Y-153238095D01*
X139697619Y-153285714D01*
X139792857Y-153333333D01*
X139935714Y-153333333D01*
X140030952Y-153285714D01*
X140078571Y-153238095D01*
X140126190Y-153142857D01*
X140126190Y-152761904D01*
X139602380Y-154238095D02*
X139602380Y-153761904D01*
X140078571Y-153714285D01*
X140030952Y-153761904D01*
X139983333Y-153857142D01*
X139983333Y-154095238D01*
X140030952Y-154190476D01*
X140078571Y-154238095D01*
X140173809Y-154285714D01*
X140411904Y-154285714D01*
X140507142Y-154238095D01*
X140554761Y-154190476D01*
X140602380Y-154095238D01*
X140602380Y-153857142D01*
X140554761Y-153761904D01*
X140507142Y-153714285D01*
%TO.C,Q1*%
X126095238Y-158047619D02*
X126190476Y-158000000D01*
X126285714Y-157904761D01*
X126428571Y-157761904D01*
X126523809Y-157714285D01*
X126619047Y-157714285D01*
X126571428Y-157952380D02*
X126666666Y-157904761D01*
X126761904Y-157809523D01*
X126809523Y-157619047D01*
X126809523Y-157285714D01*
X126761904Y-157095238D01*
X126666666Y-157000000D01*
X126571428Y-156952380D01*
X126380952Y-156952380D01*
X126285714Y-157000000D01*
X126190476Y-157095238D01*
X126142857Y-157285714D01*
X126142857Y-157619047D01*
X126190476Y-157809523D01*
X126285714Y-157904761D01*
X126380952Y-157952380D01*
X126571428Y-157952380D01*
X125190476Y-157952380D02*
X125761904Y-157952380D01*
X125476190Y-157952380D02*
X125476190Y-156952380D01*
X125571428Y-157095238D01*
X125666666Y-157190476D01*
X125761904Y-157238095D01*
%TO.C,D7*%
X118488095Y-179952380D02*
X118488095Y-178952380D01*
X118250000Y-178952380D01*
X118107142Y-179000000D01*
X118011904Y-179095238D01*
X117964285Y-179190476D01*
X117916666Y-179380952D01*
X117916666Y-179523809D01*
X117964285Y-179714285D01*
X118011904Y-179809523D01*
X118107142Y-179904761D01*
X118250000Y-179952380D01*
X118488095Y-179952380D01*
X117583333Y-178952380D02*
X116916666Y-178952380D01*
X117345238Y-179952380D01*
%TO.C,R1*%
X128702380Y-156833333D02*
X128226190Y-156500000D01*
X128702380Y-156261904D02*
X127702380Y-156261904D01*
X127702380Y-156642857D01*
X127750000Y-156738095D01*
X127797619Y-156785714D01*
X127892857Y-156833333D01*
X128035714Y-156833333D01*
X128130952Y-156785714D01*
X128178571Y-156738095D01*
X128226190Y-156642857D01*
X128226190Y-156261904D01*
X128702380Y-157785714D02*
X128702380Y-157214285D01*
X128702380Y-157500000D02*
X127702380Y-157500000D01*
X127845238Y-157404761D01*
X127940476Y-157309523D01*
X127988095Y-157214285D01*
%TO.C,R22*%
X136392857Y-167802380D02*
X136726190Y-167326190D01*
X136964285Y-167802380D02*
X136964285Y-166802380D01*
X136583333Y-166802380D01*
X136488095Y-166850000D01*
X136440476Y-166897619D01*
X136392857Y-166992857D01*
X136392857Y-167135714D01*
X136440476Y-167230952D01*
X136488095Y-167278571D01*
X136583333Y-167326190D01*
X136964285Y-167326190D01*
X136011904Y-166897619D02*
X135964285Y-166850000D01*
X135869047Y-166802380D01*
X135630952Y-166802380D01*
X135535714Y-166850000D01*
X135488095Y-166897619D01*
X135440476Y-166992857D01*
X135440476Y-167088095D01*
X135488095Y-167230952D01*
X136059523Y-167802380D01*
X135440476Y-167802380D01*
X135059523Y-166897619D02*
X135011904Y-166850000D01*
X134916666Y-166802380D01*
X134678571Y-166802380D01*
X134583333Y-166850000D01*
X134535714Y-166897619D01*
X134488095Y-166992857D01*
X134488095Y-167088095D01*
X134535714Y-167230952D01*
X135107142Y-167802380D01*
X134488095Y-167802380D01*
%TO.C,U1*%
X124261904Y-165702380D02*
X124261904Y-166511904D01*
X124214285Y-166607142D01*
X124166666Y-166654761D01*
X124071428Y-166702380D01*
X123880952Y-166702380D01*
X123785714Y-166654761D01*
X123738095Y-166607142D01*
X123690476Y-166511904D01*
X123690476Y-165702380D01*
X122690476Y-166702380D02*
X123261904Y-166702380D01*
X122976190Y-166702380D02*
X122976190Y-165702380D01*
X123071428Y-165845238D01*
X123166666Y-165940476D01*
X123261904Y-165988095D01*
%TO.C,R13*%
X122352380Y-126957142D02*
X121876190Y-126623809D01*
X122352380Y-126385714D02*
X121352380Y-126385714D01*
X121352380Y-126766666D01*
X121400000Y-126861904D01*
X121447619Y-126909523D01*
X121542857Y-126957142D01*
X121685714Y-126957142D01*
X121780952Y-126909523D01*
X121828571Y-126861904D01*
X121876190Y-126766666D01*
X121876190Y-126385714D01*
X122352380Y-127909523D02*
X122352380Y-127338095D01*
X122352380Y-127623809D02*
X121352380Y-127623809D01*
X121495238Y-127528571D01*
X121590476Y-127433333D01*
X121638095Y-127338095D01*
X121352380Y-128242857D02*
X121352380Y-128861904D01*
X121733333Y-128528571D01*
X121733333Y-128671428D01*
X121780952Y-128766666D01*
X121828571Y-128814285D01*
X121923809Y-128861904D01*
X122161904Y-128861904D01*
X122257142Y-128814285D01*
X122304761Y-128766666D01*
X122352380Y-128671428D01*
X122352380Y-128385714D01*
X122304761Y-128290476D01*
X122257142Y-128242857D01*
%TO.C,R6*%
X137666666Y-159602380D02*
X138000000Y-159126190D01*
X138238095Y-159602380D02*
X138238095Y-158602380D01*
X137857142Y-158602380D01*
X137761904Y-158650000D01*
X137714285Y-158697619D01*
X137666666Y-158792857D01*
X137666666Y-158935714D01*
X137714285Y-159030952D01*
X137761904Y-159078571D01*
X137857142Y-159126190D01*
X138238095Y-159126190D01*
X136809523Y-158602380D02*
X137000000Y-158602380D01*
X137095238Y-158650000D01*
X137142857Y-158697619D01*
X137238095Y-158840476D01*
X137285714Y-159030952D01*
X137285714Y-159411904D01*
X137238095Y-159507142D01*
X137190476Y-159554761D01*
X137095238Y-159602380D01*
X136904761Y-159602380D01*
X136809523Y-159554761D01*
X136761904Y-159507142D01*
X136714285Y-159411904D01*
X136714285Y-159173809D01*
X136761904Y-159078571D01*
X136809523Y-159030952D01*
X136904761Y-158983333D01*
X137095238Y-158983333D01*
X137190476Y-159030952D01*
X137238095Y-159078571D01*
X137285714Y-159173809D01*
%TO.C,R15*%
X139642857Y-179552380D02*
X139976190Y-179076190D01*
X140214285Y-179552380D02*
X140214285Y-178552380D01*
X139833333Y-178552380D01*
X139738095Y-178600000D01*
X139690476Y-178647619D01*
X139642857Y-178742857D01*
X139642857Y-178885714D01*
X139690476Y-178980952D01*
X139738095Y-179028571D01*
X139833333Y-179076190D01*
X140214285Y-179076190D01*
X138690476Y-179552380D02*
X139261904Y-179552380D01*
X138976190Y-179552380D02*
X138976190Y-178552380D01*
X139071428Y-178695238D01*
X139166666Y-178790476D01*
X139261904Y-178838095D01*
X137785714Y-178552380D02*
X138261904Y-178552380D01*
X138309523Y-179028571D01*
X138261904Y-178980952D01*
X138166666Y-178933333D01*
X137928571Y-178933333D01*
X137833333Y-178980952D01*
X137785714Y-179028571D01*
X137738095Y-179123809D01*
X137738095Y-179361904D01*
X137785714Y-179457142D01*
X137833333Y-179504761D01*
X137928571Y-179552380D01*
X138166666Y-179552380D01*
X138261904Y-179504761D01*
X138309523Y-179457142D01*
%TO.C,R10*%
X124408630Y-151307142D02*
X123932440Y-150973809D01*
X124408630Y-150735714D02*
X123408630Y-150735714D01*
X123408630Y-151116666D01*
X123456250Y-151211904D01*
X123503869Y-151259523D01*
X123599107Y-151307142D01*
X123741964Y-151307142D01*
X123837202Y-151259523D01*
X123884821Y-151211904D01*
X123932440Y-151116666D01*
X123932440Y-150735714D01*
X124408630Y-152259523D02*
X124408630Y-151688095D01*
X124408630Y-151973809D02*
X123408630Y-151973809D01*
X123551488Y-151878571D01*
X123646726Y-151783333D01*
X123694345Y-151688095D01*
X123408630Y-152878571D02*
X123408630Y-152973809D01*
X123456250Y-153069047D01*
X123503869Y-153116666D01*
X123599107Y-153164285D01*
X123789583Y-153211904D01*
X124027678Y-153211904D01*
X124218154Y-153164285D01*
X124313392Y-153116666D01*
X124361011Y-153069047D01*
X124408630Y-152973809D01*
X124408630Y-152878571D01*
X124361011Y-152783333D01*
X124313392Y-152735714D01*
X124218154Y-152688095D01*
X124027678Y-152640476D01*
X123789583Y-152640476D01*
X123599107Y-152688095D01*
X123503869Y-152735714D01*
X123456250Y-152783333D01*
X123408630Y-152878571D01*
%TO.C,C1*%
X125916666Y-166607142D02*
X125964285Y-166654761D01*
X126107142Y-166702380D01*
X126202380Y-166702380D01*
X126345238Y-166654761D01*
X126440476Y-166559523D01*
X126488095Y-166464285D01*
X126535714Y-166273809D01*
X126535714Y-166130952D01*
X126488095Y-165940476D01*
X126440476Y-165845238D01*
X126345238Y-165750000D01*
X126202380Y-165702380D01*
X126107142Y-165702380D01*
X125964285Y-165750000D01*
X125916666Y-165797619D01*
X124964285Y-166702380D02*
X125535714Y-166702380D01*
X125250000Y-166702380D02*
X125250000Y-165702380D01*
X125345238Y-165845238D01*
X125440476Y-165940476D01*
X125535714Y-165988095D01*
%TO.C,R12*%
X125392857Y-162952380D02*
X125726190Y-162476190D01*
X125964285Y-162952380D02*
X125964285Y-161952380D01*
X125583333Y-161952380D01*
X125488095Y-162000000D01*
X125440476Y-162047619D01*
X125392857Y-162142857D01*
X125392857Y-162285714D01*
X125440476Y-162380952D01*
X125488095Y-162428571D01*
X125583333Y-162476190D01*
X125964285Y-162476190D01*
X124440476Y-162952380D02*
X125011904Y-162952380D01*
X124726190Y-162952380D02*
X124726190Y-161952380D01*
X124821428Y-162095238D01*
X124916666Y-162190476D01*
X125011904Y-162238095D01*
X124059523Y-162047619D02*
X124011904Y-162000000D01*
X123916666Y-161952380D01*
X123678571Y-161952380D01*
X123583333Y-162000000D01*
X123535714Y-162047619D01*
X123488095Y-162142857D01*
X123488095Y-162238095D01*
X123535714Y-162380952D01*
X124107142Y-162952380D01*
X123488095Y-162952380D01*
%TO.C,R29*%
X116642857Y-175452380D02*
X116976190Y-174976190D01*
X117214285Y-175452380D02*
X117214285Y-174452380D01*
X116833333Y-174452380D01*
X116738095Y-174500000D01*
X116690476Y-174547619D01*
X116642857Y-174642857D01*
X116642857Y-174785714D01*
X116690476Y-174880952D01*
X116738095Y-174928571D01*
X116833333Y-174976190D01*
X117214285Y-174976190D01*
X116261904Y-174547619D02*
X116214285Y-174500000D01*
X116119047Y-174452380D01*
X115880952Y-174452380D01*
X115785714Y-174500000D01*
X115738095Y-174547619D01*
X115690476Y-174642857D01*
X115690476Y-174738095D01*
X115738095Y-174880952D01*
X116309523Y-175452380D01*
X115690476Y-175452380D01*
X115214285Y-175452380D02*
X115023809Y-175452380D01*
X114928571Y-175404761D01*
X114880952Y-175357142D01*
X114785714Y-175214285D01*
X114738095Y-175023809D01*
X114738095Y-174642857D01*
X114785714Y-174547619D01*
X114833333Y-174500000D01*
X114928571Y-174452380D01*
X115119047Y-174452380D01*
X115214285Y-174500000D01*
X115261904Y-174547619D01*
X115309523Y-174642857D01*
X115309523Y-174880952D01*
X115261904Y-174976190D01*
X115214285Y-175023809D01*
X115119047Y-175071428D01*
X114928571Y-175071428D01*
X114833333Y-175023809D01*
X114785714Y-174976190D01*
X114738095Y-174880952D01*
%TO.C,R20*%
X140452380Y-168107142D02*
X139976190Y-167773809D01*
X140452380Y-167535714D02*
X139452380Y-167535714D01*
X139452380Y-167916666D01*
X139500000Y-168011904D01*
X139547619Y-168059523D01*
X139642857Y-168107142D01*
X139785714Y-168107142D01*
X139880952Y-168059523D01*
X139928571Y-168011904D01*
X139976190Y-167916666D01*
X139976190Y-167535714D01*
X139547619Y-168488095D02*
X139500000Y-168535714D01*
X139452380Y-168630952D01*
X139452380Y-168869047D01*
X139500000Y-168964285D01*
X139547619Y-169011904D01*
X139642857Y-169059523D01*
X139738095Y-169059523D01*
X139880952Y-169011904D01*
X140452380Y-168440476D01*
X140452380Y-169059523D01*
X139452380Y-169678571D02*
X139452380Y-169773809D01*
X139500000Y-169869047D01*
X139547619Y-169916666D01*
X139642857Y-169964285D01*
X139833333Y-170011904D01*
X140071428Y-170011904D01*
X140261904Y-169964285D01*
X140357142Y-169916666D01*
X140404761Y-169869047D01*
X140452380Y-169773809D01*
X140452380Y-169678571D01*
X140404761Y-169583333D01*
X140357142Y-169535714D01*
X140261904Y-169488095D01*
X140071428Y-169440476D01*
X139833333Y-169440476D01*
X139642857Y-169488095D01*
X139547619Y-169535714D01*
X139500000Y-169583333D01*
X139452380Y-169678571D01*
%TO.C,R16*%
X137642857Y-184702380D02*
X137976190Y-184226190D01*
X138214285Y-184702380D02*
X138214285Y-183702380D01*
X137833333Y-183702380D01*
X137738095Y-183750000D01*
X137690476Y-183797619D01*
X137642857Y-183892857D01*
X137642857Y-184035714D01*
X137690476Y-184130952D01*
X137738095Y-184178571D01*
X137833333Y-184226190D01*
X138214285Y-184226190D01*
X136690476Y-184702380D02*
X137261904Y-184702380D01*
X136976190Y-184702380D02*
X136976190Y-183702380D01*
X137071428Y-183845238D01*
X137166666Y-183940476D01*
X137261904Y-183988095D01*
X135833333Y-183702380D02*
X136023809Y-183702380D01*
X136119047Y-183750000D01*
X136166666Y-183797619D01*
X136261904Y-183940476D01*
X136309523Y-184130952D01*
X136309523Y-184511904D01*
X136261904Y-184607142D01*
X136214285Y-184654761D01*
X136119047Y-184702380D01*
X135928571Y-184702380D01*
X135833333Y-184654761D01*
X135785714Y-184607142D01*
X135738095Y-184511904D01*
X135738095Y-184273809D01*
X135785714Y-184178571D01*
X135833333Y-184130952D01*
X135928571Y-184083333D01*
X136119047Y-184083333D01*
X136214285Y-184130952D01*
X136261904Y-184178571D01*
X136309523Y-184273809D01*
%TO.C,R8*%
X123666666Y-143452380D02*
X124000000Y-142976190D01*
X124238095Y-143452380D02*
X124238095Y-142452380D01*
X123857142Y-142452380D01*
X123761904Y-142500000D01*
X123714285Y-142547619D01*
X123666666Y-142642857D01*
X123666666Y-142785714D01*
X123714285Y-142880952D01*
X123761904Y-142928571D01*
X123857142Y-142976190D01*
X124238095Y-142976190D01*
X123095238Y-142880952D02*
X123190476Y-142833333D01*
X123238095Y-142785714D01*
X123285714Y-142690476D01*
X123285714Y-142642857D01*
X123238095Y-142547619D01*
X123190476Y-142500000D01*
X123095238Y-142452380D01*
X122904761Y-142452380D01*
X122809523Y-142500000D01*
X122761904Y-142547619D01*
X122714285Y-142642857D01*
X122714285Y-142690476D01*
X122761904Y-142785714D01*
X122809523Y-142833333D01*
X122904761Y-142880952D01*
X123095238Y-142880952D01*
X123190476Y-142928571D01*
X123238095Y-142976190D01*
X123285714Y-143071428D01*
X123285714Y-143261904D01*
X123238095Y-143357142D01*
X123190476Y-143404761D01*
X123095238Y-143452380D01*
X122904761Y-143452380D01*
X122809523Y-143404761D01*
X122761904Y-143357142D01*
X122714285Y-143261904D01*
X122714285Y-143071428D01*
X122761904Y-142976190D01*
X122809523Y-142928571D01*
X122904761Y-142880952D01*
%TO.C,R19*%
X131642857Y-179552380D02*
X131976190Y-179076190D01*
X132214285Y-179552380D02*
X132214285Y-178552380D01*
X131833333Y-178552380D01*
X131738095Y-178600000D01*
X131690476Y-178647619D01*
X131642857Y-178742857D01*
X131642857Y-178885714D01*
X131690476Y-178980952D01*
X131738095Y-179028571D01*
X131833333Y-179076190D01*
X132214285Y-179076190D01*
X130690476Y-179552380D02*
X131261904Y-179552380D01*
X130976190Y-179552380D02*
X130976190Y-178552380D01*
X131071428Y-178695238D01*
X131166666Y-178790476D01*
X131261904Y-178838095D01*
X130214285Y-179552380D02*
X130023809Y-179552380D01*
X129928571Y-179504761D01*
X129880952Y-179457142D01*
X129785714Y-179314285D01*
X129738095Y-179123809D01*
X129738095Y-178742857D01*
X129785714Y-178647619D01*
X129833333Y-178600000D01*
X129928571Y-178552380D01*
X130119047Y-178552380D01*
X130214285Y-178600000D01*
X130261904Y-178647619D01*
X130309523Y-178742857D01*
X130309523Y-178980952D01*
X130261904Y-179076190D01*
X130214285Y-179123809D01*
X130119047Y-179171428D01*
X129928571Y-179171428D01*
X129833333Y-179123809D01*
X129785714Y-179076190D01*
X129738095Y-178980952D01*
%TO.C,D9*%
X129238095Y-174452380D02*
X129238095Y-173452380D01*
X129000000Y-173452380D01*
X128857142Y-173500000D01*
X128761904Y-173595238D01*
X128714285Y-173690476D01*
X128666666Y-173880952D01*
X128666666Y-174023809D01*
X128714285Y-174214285D01*
X128761904Y-174309523D01*
X128857142Y-174404761D01*
X129000000Y-174452380D01*
X129238095Y-174452380D01*
X128190476Y-174452380D02*
X128000000Y-174452380D01*
X127904761Y-174404761D01*
X127857142Y-174357142D01*
X127761904Y-174214285D01*
X127714285Y-174023809D01*
X127714285Y-173642857D01*
X127761904Y-173547619D01*
X127809523Y-173500000D01*
X127904761Y-173452380D01*
X128095238Y-173452380D01*
X128190476Y-173500000D01*
X128238095Y-173547619D01*
X128285714Y-173642857D01*
X128285714Y-173880952D01*
X128238095Y-173976190D01*
X128190476Y-174023809D01*
X128095238Y-174071428D01*
X127904761Y-174071428D01*
X127809523Y-174023809D01*
X127761904Y-173976190D01*
X127714285Y-173880952D01*
%TO.C,D11*%
X111452380Y-166535714D02*
X110452380Y-166535714D01*
X110452380Y-166773809D01*
X110500000Y-166916666D01*
X110595238Y-167011904D01*
X110690476Y-167059523D01*
X110880952Y-167107142D01*
X111023809Y-167107142D01*
X111214285Y-167059523D01*
X111309523Y-167011904D01*
X111404761Y-166916666D01*
X111452380Y-166773809D01*
X111452380Y-166535714D01*
X111452380Y-168059523D02*
X111452380Y-167488095D01*
X111452380Y-167773809D02*
X110452380Y-167773809D01*
X110595238Y-167678571D01*
X110690476Y-167583333D01*
X110738095Y-167488095D01*
X111452380Y-169011904D02*
X111452380Y-168440476D01*
X111452380Y-168726190D02*
X110452380Y-168726190D01*
X110595238Y-168630952D01*
X110690476Y-168535714D01*
X110738095Y-168440476D01*
%TO.C,R18*%
X133642857Y-184702380D02*
X133976190Y-184226190D01*
X134214285Y-184702380D02*
X134214285Y-183702380D01*
X133833333Y-183702380D01*
X133738095Y-183750000D01*
X133690476Y-183797619D01*
X133642857Y-183892857D01*
X133642857Y-184035714D01*
X133690476Y-184130952D01*
X133738095Y-184178571D01*
X133833333Y-184226190D01*
X134214285Y-184226190D01*
X132690476Y-184702380D02*
X133261904Y-184702380D01*
X132976190Y-184702380D02*
X132976190Y-183702380D01*
X133071428Y-183845238D01*
X133166666Y-183940476D01*
X133261904Y-183988095D01*
X132119047Y-184130952D02*
X132214285Y-184083333D01*
X132261904Y-184035714D01*
X132309523Y-183940476D01*
X132309523Y-183892857D01*
X132261904Y-183797619D01*
X132214285Y-183750000D01*
X132119047Y-183702380D01*
X131928571Y-183702380D01*
X131833333Y-183750000D01*
X131785714Y-183797619D01*
X131738095Y-183892857D01*
X131738095Y-183940476D01*
X131785714Y-184035714D01*
X131833333Y-184083333D01*
X131928571Y-184130952D01*
X132119047Y-184130952D01*
X132214285Y-184178571D01*
X132261904Y-184226190D01*
X132309523Y-184321428D01*
X132309523Y-184511904D01*
X132261904Y-184607142D01*
X132214285Y-184654761D01*
X132119047Y-184702380D01*
X131928571Y-184702380D01*
X131833333Y-184654761D01*
X131785714Y-184607142D01*
X131738095Y-184511904D01*
X131738095Y-184321428D01*
X131785714Y-184226190D01*
X131833333Y-184178571D01*
X131928571Y-184130952D01*
%TO.C,R7*%
X127245852Y-143452380D02*
X127579186Y-142976190D01*
X127817281Y-143452380D02*
X127817281Y-142452380D01*
X127436328Y-142452380D01*
X127341090Y-142500000D01*
X127293471Y-142547619D01*
X127245852Y-142642857D01*
X127245852Y-142785714D01*
X127293471Y-142880952D01*
X127341090Y-142928571D01*
X127436328Y-142976190D01*
X127817281Y-142976190D01*
X126912519Y-142452380D02*
X126245852Y-142452380D01*
X126674424Y-143452380D01*
%TO.C,R21*%
X138142857Y-175202380D02*
X138476190Y-174726190D01*
X138714285Y-175202380D02*
X138714285Y-174202380D01*
X138333333Y-174202380D01*
X138238095Y-174250000D01*
X138190476Y-174297619D01*
X138142857Y-174392857D01*
X138142857Y-174535714D01*
X138190476Y-174630952D01*
X138238095Y-174678571D01*
X138333333Y-174726190D01*
X138714285Y-174726190D01*
X137761904Y-174297619D02*
X137714285Y-174250000D01*
X137619047Y-174202380D01*
X137380952Y-174202380D01*
X137285714Y-174250000D01*
X137238095Y-174297619D01*
X137190476Y-174392857D01*
X137190476Y-174488095D01*
X137238095Y-174630952D01*
X137809523Y-175202380D01*
X137190476Y-175202380D01*
X136238095Y-175202380D02*
X136809523Y-175202380D01*
X136523809Y-175202380D02*
X136523809Y-174202380D01*
X136619047Y-174345238D01*
X136714285Y-174440476D01*
X136809523Y-174488095D01*
%TO.C,R25*%
X132142857Y-167752380D02*
X132476190Y-167276190D01*
X132714285Y-167752380D02*
X132714285Y-166752380D01*
X132333333Y-166752380D01*
X132238095Y-166800000D01*
X132190476Y-166847619D01*
X132142857Y-166942857D01*
X132142857Y-167085714D01*
X132190476Y-167180952D01*
X132238095Y-167228571D01*
X132333333Y-167276190D01*
X132714285Y-167276190D01*
X131761904Y-166847619D02*
X131714285Y-166800000D01*
X131619047Y-166752380D01*
X131380952Y-166752380D01*
X131285714Y-166800000D01*
X131238095Y-166847619D01*
X131190476Y-166942857D01*
X131190476Y-167038095D01*
X131238095Y-167180952D01*
X131809523Y-167752380D01*
X131190476Y-167752380D01*
X130285714Y-166752380D02*
X130761904Y-166752380D01*
X130809523Y-167228571D01*
X130761904Y-167180952D01*
X130666666Y-167133333D01*
X130428571Y-167133333D01*
X130333333Y-167180952D01*
X130285714Y-167228571D01*
X130238095Y-167323809D01*
X130238095Y-167561904D01*
X130285714Y-167657142D01*
X130333333Y-167704761D01*
X130428571Y-167752380D01*
X130666666Y-167752380D01*
X130761904Y-167704761D01*
X130809523Y-167657142D01*
%TO.C,R28*%
X116642857Y-174202380D02*
X116976190Y-173726190D01*
X117214285Y-174202380D02*
X117214285Y-173202380D01*
X116833333Y-173202380D01*
X116738095Y-173250000D01*
X116690476Y-173297619D01*
X116642857Y-173392857D01*
X116642857Y-173535714D01*
X116690476Y-173630952D01*
X116738095Y-173678571D01*
X116833333Y-173726190D01*
X117214285Y-173726190D01*
X116261904Y-173297619D02*
X116214285Y-173250000D01*
X116119047Y-173202380D01*
X115880952Y-173202380D01*
X115785714Y-173250000D01*
X115738095Y-173297619D01*
X115690476Y-173392857D01*
X115690476Y-173488095D01*
X115738095Y-173630952D01*
X116309523Y-174202380D01*
X115690476Y-174202380D01*
X115119047Y-173630952D02*
X115214285Y-173583333D01*
X115261904Y-173535714D01*
X115309523Y-173440476D01*
X115309523Y-173392857D01*
X115261904Y-173297619D01*
X115214285Y-173250000D01*
X115119047Y-173202380D01*
X114928571Y-173202380D01*
X114833333Y-173250000D01*
X114785714Y-173297619D01*
X114738095Y-173392857D01*
X114738095Y-173440476D01*
X114785714Y-173535714D01*
X114833333Y-173583333D01*
X114928571Y-173630952D01*
X115119047Y-173630952D01*
X115214285Y-173678571D01*
X115261904Y-173726190D01*
X115309523Y-173821428D01*
X115309523Y-174011904D01*
X115261904Y-174107142D01*
X115214285Y-174154761D01*
X115119047Y-174202380D01*
X114928571Y-174202380D01*
X114833333Y-174154761D01*
X114785714Y-174107142D01*
X114738095Y-174011904D01*
X114738095Y-173821428D01*
X114785714Y-173726190D01*
X114833333Y-173678571D01*
X114928571Y-173630952D01*
%TO.C,R2*%
X140602380Y-141333333D02*
X140126190Y-141000000D01*
X140602380Y-140761904D02*
X139602380Y-140761904D01*
X139602380Y-141142857D01*
X139650000Y-141238095D01*
X139697619Y-141285714D01*
X139792857Y-141333333D01*
X139935714Y-141333333D01*
X140030952Y-141285714D01*
X140078571Y-141238095D01*
X140126190Y-141142857D01*
X140126190Y-140761904D01*
X139697619Y-141714285D02*
X139650000Y-141761904D01*
X139602380Y-141857142D01*
X139602380Y-142095238D01*
X139650000Y-142190476D01*
X139697619Y-142238095D01*
X139792857Y-142285714D01*
X139888095Y-142285714D01*
X140030952Y-142238095D01*
X140602380Y-141666666D01*
X140602380Y-142285714D01*
%TO.C,R11*%
X124408630Y-155307142D02*
X123932440Y-154973809D01*
X124408630Y-154735714D02*
X123408630Y-154735714D01*
X123408630Y-155116666D01*
X123456250Y-155211904D01*
X123503869Y-155259523D01*
X123599107Y-155307142D01*
X123741964Y-155307142D01*
X123837202Y-155259523D01*
X123884821Y-155211904D01*
X123932440Y-155116666D01*
X123932440Y-154735714D01*
X124408630Y-156259523D02*
X124408630Y-155688095D01*
X124408630Y-155973809D02*
X123408630Y-155973809D01*
X123551488Y-155878571D01*
X123646726Y-155783333D01*
X123694345Y-155688095D01*
X124408630Y-157211904D02*
X124408630Y-156640476D01*
X124408630Y-156926190D02*
X123408630Y-156926190D01*
X123551488Y-156830952D01*
X123646726Y-156735714D01*
X123694345Y-156640476D01*
%TO.C,R9*%
X124408630Y-147783333D02*
X123932440Y-147450000D01*
X124408630Y-147211904D02*
X123408630Y-147211904D01*
X123408630Y-147592857D01*
X123456250Y-147688095D01*
X123503869Y-147735714D01*
X123599107Y-147783333D01*
X123741964Y-147783333D01*
X123837202Y-147735714D01*
X123884821Y-147688095D01*
X123932440Y-147592857D01*
X123932440Y-147211904D01*
X124408630Y-148259523D02*
X124408630Y-148450000D01*
X124361011Y-148545238D01*
X124313392Y-148592857D01*
X124170535Y-148688095D01*
X123980059Y-148735714D01*
X123599107Y-148735714D01*
X123503869Y-148688095D01*
X123456250Y-148640476D01*
X123408630Y-148545238D01*
X123408630Y-148354761D01*
X123456250Y-148259523D01*
X123503869Y-148211904D01*
X123599107Y-148164285D01*
X123837202Y-148164285D01*
X123932440Y-148211904D01*
X123980059Y-148259523D01*
X124027678Y-148354761D01*
X124027678Y-148545238D01*
X123980059Y-148640476D01*
X123932440Y-148688095D01*
X123837202Y-148735714D01*
%TO.C,R3*%
X140602380Y-145333333D02*
X140126190Y-145000000D01*
X140602380Y-144761904D02*
X139602380Y-144761904D01*
X139602380Y-145142857D01*
X139650000Y-145238095D01*
X139697619Y-145285714D01*
X139792857Y-145333333D01*
X139935714Y-145333333D01*
X140030952Y-145285714D01*
X140078571Y-145238095D01*
X140126190Y-145142857D01*
X140126190Y-144761904D01*
X139602380Y-145666666D02*
X139602380Y-146285714D01*
X139983333Y-145952380D01*
X139983333Y-146095238D01*
X140030952Y-146190476D01*
X140078571Y-146238095D01*
X140173809Y-146285714D01*
X140411904Y-146285714D01*
X140507142Y-146238095D01*
X140554761Y-146190476D01*
X140602380Y-146095238D01*
X140602380Y-145809523D01*
X140554761Y-145714285D01*
X140507142Y-145666666D01*
%TO.C,D10*%
X128214285Y-175702380D02*
X128214285Y-174702380D01*
X127976190Y-174702380D01*
X127833333Y-174750000D01*
X127738095Y-174845238D01*
X127690476Y-174940476D01*
X127642857Y-175130952D01*
X127642857Y-175273809D01*
X127690476Y-175464285D01*
X127738095Y-175559523D01*
X127833333Y-175654761D01*
X127976190Y-175702380D01*
X128214285Y-175702380D01*
X126690476Y-175702380D02*
X127261904Y-175702380D01*
X126976190Y-175702380D02*
X126976190Y-174702380D01*
X127071428Y-174845238D01*
X127166666Y-174940476D01*
X127261904Y-174988095D01*
X126071428Y-174702380D02*
X125976190Y-174702380D01*
X125880952Y-174750000D01*
X125833333Y-174797619D01*
X125785714Y-174892857D01*
X125738095Y-175083333D01*
X125738095Y-175321428D01*
X125785714Y-175511904D01*
X125833333Y-175607142D01*
X125880952Y-175654761D01*
X125976190Y-175702380D01*
X126071428Y-175702380D01*
X126166666Y-175654761D01*
X126214285Y-175607142D01*
X126261904Y-175511904D01*
X126309523Y-175321428D01*
X126309523Y-175083333D01*
X126261904Y-174892857D01*
X126214285Y-174797619D01*
X126166666Y-174750000D01*
X126071428Y-174702380D01*
D12*
%TO.C,R27*%
X118985000Y-167772936D02*
X118985000Y-168227064D01*
X117515000Y-167772936D02*
X117515000Y-168227064D01*
%TO.C,R24*%
X133235000Y-172227064D02*
X133235000Y-171772936D01*
X131765000Y-172227064D02*
X131765000Y-171772936D01*
%TO.C,D8*%
X112250000Y-182200000D02*
X116550000Y-182200000D01*
X116550000Y-182200000D02*
X116550000Y-184200000D01*
X116550000Y-184200000D02*
X112250000Y-184200000D01*
%TO.C,R26*%
X119765000Y-168227064D02*
X119765000Y-167772936D01*
X121235000Y-168227064D02*
X121235000Y-167772936D01*
%TO.C,R17*%
X135227064Y-180015000D02*
X134772936Y-180015000D01*
X135227064Y-181485000D02*
X134772936Y-181485000D01*
%TO.C,D3*%
X129806250Y-161200000D02*
X129806250Y-156900000D01*
X131806250Y-156900000D02*
X131806250Y-161200000D01*
X129806250Y-156900000D02*
X131806250Y-156900000D01*
%TO.C,R23*%
X135485000Y-171772936D02*
X135485000Y-172227064D01*
X134015000Y-171772936D02*
X134015000Y-172227064D01*
%TO.C,R4*%
X137765000Y-149727064D02*
X137765000Y-149272936D01*
X139235000Y-149727064D02*
X139235000Y-149272936D01*
%TO.C,C2*%
X129235000Y-168576248D02*
X129235000Y-169098752D01*
X127765000Y-168576248D02*
X127765000Y-169098752D01*
%TO.C,D5*%
X118743750Y-161650000D02*
X118743750Y-157350000D01*
X120743750Y-157350000D02*
X120743750Y-161650000D01*
X118743750Y-157350000D02*
X120743750Y-157350000D01*
%TO.C,R5*%
X139235000Y-153727064D02*
X139235000Y-153272936D01*
X137765000Y-153727064D02*
X137765000Y-153272936D01*
%TO.C,Q1*%
X125306250Y-161510000D02*
X124656250Y-161510000D01*
X125306250Y-158390000D02*
X124656250Y-158390000D01*
X125306250Y-161510000D02*
X125956250Y-161510000D01*
X125306250Y-158390000D02*
X126981250Y-158390000D01*
%TO.C,D7*%
X115750000Y-180700000D02*
X111450000Y-180700000D01*
X111450000Y-180700000D02*
X111450000Y-178700000D01*
X111450000Y-178700000D02*
X115750000Y-178700000D01*
%TO.C,R1*%
X129041250Y-160177064D02*
X129041250Y-159722936D01*
X127571250Y-160177064D02*
X127571250Y-159722936D01*
%TO.C,R22*%
X135977064Y-169735000D02*
X135522936Y-169735000D01*
X135977064Y-168265000D02*
X135522936Y-168265000D01*
%TO.C,U1*%
X125176400Y-168221300D02*
X125176400Y-170278700D01*
X121823600Y-170278700D02*
X121823600Y-168221300D01*
%TO.C,R13*%
X136000000Y-122500000D02*
X129000000Y-122500000D01*
X108000000Y-132500000D02*
X108000000Y-141500000D01*
X136000000Y-122500000D02*
X136000000Y-113500000D01*
X129000000Y-113500000D02*
X129000000Y-141500000D01*
X108000000Y-141500000D02*
X129000000Y-141500000D01*
X108000000Y-132500000D02*
X114500000Y-132500000D01*
X114500000Y-113500000D02*
X114500000Y-141500000D01*
X136000000Y-113500000D02*
X114500000Y-113500000D01*
%TO.C,R6*%
X137272936Y-156765000D02*
X137727064Y-156765000D01*
X137272936Y-158235000D02*
X137727064Y-158235000D01*
%TO.C,R15*%
X139227064Y-180015000D02*
X138772936Y-180015000D01*
X139227064Y-181485000D02*
X138772936Y-181485000D01*
%TO.C,R10*%
X123041250Y-152177064D02*
X123041250Y-151722936D01*
X121571250Y-152177064D02*
X121571250Y-151722936D01*
%TO.C,C1*%
X127235000Y-168576248D02*
X127235000Y-169098752D01*
X125765000Y-168576248D02*
X125765000Y-169098752D01*
%TO.C,R12*%
X121508750Y-160627064D02*
X121508750Y-160172936D01*
X122978750Y-160627064D02*
X122978750Y-160172936D01*
%TO.C,R29*%
X119727064Y-174015000D02*
X119272936Y-174015000D01*
X119727064Y-175485000D02*
X119272936Y-175485000D01*
%TO.C,R20*%
X138515000Y-171772936D02*
X138515000Y-172227064D01*
X139985000Y-171772936D02*
X139985000Y-172227064D01*
%TO.C,R16*%
X137227064Y-182015000D02*
X136772936Y-182015000D01*
X137227064Y-183485000D02*
X136772936Y-183485000D01*
%TO.C,R8*%
X123079186Y-144215000D02*
X123533314Y-144215000D01*
X123079186Y-145685000D02*
X123533314Y-145685000D01*
%TO.C,R19*%
X131227064Y-180015000D02*
X130772936Y-180015000D01*
X131227064Y-181485000D02*
X130772936Y-181485000D01*
%TO.C,D9*%
X131050000Y-173125000D02*
X126750000Y-173125000D01*
X131050000Y-171125000D02*
X131050000Y-173125000D01*
X126750000Y-171125000D02*
X131050000Y-171125000D01*
%TO.C,D11*%
X115290000Y-166140000D02*
X117210000Y-166140000D01*
X115290000Y-169000000D02*
X115290000Y-166140000D01*
X117210000Y-166140000D02*
X117210000Y-169000000D01*
%TO.C,R18*%
X133227064Y-183485000D02*
X132772936Y-183485000D01*
X133227064Y-182015000D02*
X132772936Y-182015000D01*
%TO.C,R7*%
X127079186Y-145685000D02*
X127533314Y-145685000D01*
X127079186Y-144215000D02*
X127533314Y-144215000D01*
%TO.C,R21*%
X136265000Y-172227064D02*
X136265000Y-171772936D01*
X137735000Y-172227064D02*
X137735000Y-171772936D01*
%TO.C,R25*%
X131727064Y-169685000D02*
X131272936Y-169685000D01*
X131727064Y-168215000D02*
X131272936Y-168215000D01*
%TO.C,R28*%
X119765000Y-171977064D02*
X119765000Y-171522936D01*
X121235000Y-171977064D02*
X121235000Y-171522936D01*
%TO.C,R2*%
X137765000Y-141727064D02*
X137765000Y-141272936D01*
X139235000Y-141727064D02*
X139235000Y-141272936D01*
%TO.C,R11*%
X121571250Y-156177064D02*
X121571250Y-155722936D01*
X123041250Y-156177064D02*
X123041250Y-155722936D01*
%TO.C,R9*%
X121571250Y-148177064D02*
X121571250Y-147722936D01*
X123041250Y-148177064D02*
X123041250Y-147722936D01*
%TO.C,R3*%
X137765000Y-145727064D02*
X137765000Y-145272936D01*
X139235000Y-145727064D02*
X139235000Y-145272936D01*
%TO.C,D10*%
X125560000Y-173750000D02*
X125560000Y-173100000D01*
X122440000Y-173750000D02*
X122440000Y-172075000D01*
X125560000Y-173750000D02*
X125560000Y-174400000D01*
X122440000Y-173750000D02*
X122440000Y-174400000D01*
%TD*%
%LPC*%
D13*
%TO.C,REF\u002A\u002A*%
X140800000Y-104500000D03*
%TD*%
%TO.C,REF\u002A\u002A*%
X110100000Y-104600000D03*
%TD*%
%TO.C,REF\u002A\u002A*%
X141300000Y-159900000D03*
%TD*%
D14*
%TO.C,J3*%
X105000000Y-105000000D03*
%TD*%
D15*
%TO.C,mouse-bite-2mm-slot*%
X112950000Y-177750000D03*
X112950000Y-176250000D03*
X115450000Y-177750000D03*
X114700000Y-176250000D03*
X115450000Y-176250000D03*
X114700000Y-177750000D03*
%TD*%
D14*
%TO.C,J6*%
X104000000Y-152500000D03*
%TD*%
D16*
%TO.C,D4*%
X143000000Y-147580000D03*
D17*
X143000000Y-137420000D03*
%TD*%
D14*
%TO.C,J1*%
X105000000Y-123000000D03*
%TD*%
D16*
%TO.C,D2*%
X105000000Y-130920000D03*
D17*
X105000000Y-141080000D03*
%TD*%
D18*
%TO.C,D12*%
X115475000Y-171750000D03*
D19*
X118015000Y-171750000D03*
%TD*%
D15*
%TO.C,mouse-bite-2mm-slot*%
X138500000Y-176250000D03*
X137750000Y-177750000D03*
X138500000Y-177750000D03*
X137750000Y-176250000D03*
X140250000Y-177750000D03*
X140250000Y-176250000D03*
%TD*%
D14*
%TO.C,J12*%
X142735000Y-181700000D03*
%TD*%
D20*
%TO.C,Q2*%
X115450000Y-160180000D03*
D21*
X110000000Y-160180000D03*
X104550000Y-160180000D03*
%TD*%
D22*
%TO.C,R14*%
X112100000Y-118350000D03*
D23*
X122000000Y-104500000D03*
D22*
X131900000Y-136650000D03*
D24*
X115000000Y-151500000D03*
%TD*%
D14*
%TO.C,J2*%
X105000000Y-127000000D03*
%TD*%
%TO.C,J5*%
X131000000Y-147000000D03*
%TD*%
D15*
%TO.C,mouse-bite-2mm-slot*%
X139500000Y-163750000D03*
X141250000Y-163750000D03*
X138750000Y-165250000D03*
X139500000Y-165250000D03*
X138750000Y-163750000D03*
X141250000Y-165250000D03*
%TD*%
D14*
%TO.C,J11*%
X106500000Y-181200000D03*
%TD*%
D16*
%TO.C,D6*%
X132750000Y-151500000D03*
D17*
X142910000Y-151500000D03*
%TD*%
D14*
%TO.C,J7*%
X110000000Y-181200000D03*
%TD*%
D16*
%TO.C,D1*%
X105000000Y-108920000D03*
D17*
X105000000Y-119080000D03*
%TD*%
D14*
%TO.C,J4*%
X105000000Y-145000000D03*
%TD*%
%TO.C,J8*%
X118500000Y-181700000D03*
%TD*%
D15*
%TO.C,mouse-bite-2mm-slot*%
X120650000Y-165250000D03*
X119900000Y-165250000D03*
X118150000Y-165250000D03*
X119900000Y-163750000D03*
X120650000Y-163750000D03*
X118150000Y-163750000D03*
%TD*%
D25*
%TO.C,RV1*%
X126775000Y-181625000D03*
X124235000Y-181625000D03*
X121695000Y-181625000D03*
%TD*%
D14*
%TO.C,J9*%
X142500000Y-171000000D03*
%TD*%
%TO.C,J10*%
X111500000Y-171750000D03*
%TD*%
D26*
%TO.C,R27*%
X118250000Y-167000000D03*
X118250000Y-169000000D03*
%TD*%
D27*
%TO.C,R24*%
X132500000Y-173000000D03*
X132500000Y-171000000D03*
%TD*%
D28*
%TO.C,D8*%
X115750000Y-183200000D03*
X112250000Y-183200000D03*
%TD*%
D27*
%TO.C,R26*%
X120500000Y-169000000D03*
X120500000Y-167000000D03*
%TD*%
D29*
%TO.C,R17*%
X136000000Y-180750000D03*
X134000000Y-180750000D03*
%TD*%
D30*
%TO.C,D3*%
X130806250Y-157700000D03*
X130806250Y-161200000D03*
%TD*%
D26*
%TO.C,R23*%
X134750000Y-171000000D03*
X134750000Y-173000000D03*
%TD*%
D27*
%TO.C,R4*%
X138500000Y-150500000D03*
X138500000Y-148500000D03*
%TD*%
D31*
%TO.C,C2*%
X128500000Y-167800000D03*
X128500000Y-169875000D03*
%TD*%
D30*
%TO.C,D5*%
X119743750Y-158150000D03*
X119743750Y-161650000D03*
%TD*%
D27*
%TO.C,R5*%
X138500000Y-154500000D03*
X138500000Y-152500000D03*
%TD*%
D32*
%TO.C,Q1*%
X126243750Y-159000000D03*
X126243750Y-160900000D03*
X124368750Y-159950000D03*
%TD*%
D28*
%TO.C,D7*%
X112250000Y-179700000D03*
X115750000Y-179700000D03*
%TD*%
D27*
%TO.C,R1*%
X128306250Y-160950000D03*
X128306250Y-158950000D03*
%TD*%
D29*
%TO.C,R22*%
X136750000Y-169000000D03*
X134750000Y-169000000D03*
%TD*%
D33*
%TO.C,U1*%
X124450001Y-170545400D03*
X123500000Y-170545400D03*
X122549999Y-170545400D03*
X122549999Y-167954600D03*
X123500000Y-167954600D03*
X124450001Y-167954600D03*
%TD*%
D22*
%TO.C,R13*%
X112100000Y-136650000D03*
D23*
X122000000Y-104500000D03*
D22*
X131900000Y-118350000D03*
D24*
X129000000Y-151500000D03*
%TD*%
D34*
%TO.C,R6*%
X136500000Y-157500000D03*
X138500000Y-157500000D03*
%TD*%
D29*
%TO.C,R15*%
X140000000Y-180750000D03*
X138000000Y-180750000D03*
%TD*%
D27*
%TO.C,R10*%
X122306250Y-152950000D03*
X122306250Y-150950000D03*
%TD*%
D31*
%TO.C,C1*%
X126500000Y-167800000D03*
X126500000Y-169875000D03*
%TD*%
D27*
%TO.C,R12*%
X122243750Y-161400000D03*
X122243750Y-159400000D03*
%TD*%
D29*
%TO.C,R29*%
X120500000Y-174750000D03*
X118500000Y-174750000D03*
%TD*%
D26*
%TO.C,R20*%
X139250000Y-171000000D03*
X139250000Y-173000000D03*
%TD*%
D29*
%TO.C,R16*%
X138000000Y-182750000D03*
X136000000Y-182750000D03*
%TD*%
D34*
%TO.C,R8*%
X122306250Y-144950000D03*
X124306250Y-144950000D03*
%TD*%
D29*
%TO.C,R19*%
X132000000Y-180750000D03*
X130000000Y-180750000D03*
%TD*%
D28*
%TO.C,D9*%
X130250000Y-172125000D03*
X126750000Y-172125000D03*
%TD*%
D35*
%TO.C,D11*%
X116250000Y-166975000D03*
X116250000Y-169025000D03*
%TD*%
D29*
%TO.C,R18*%
X134000000Y-182750000D03*
X132000000Y-182750000D03*
%TD*%
D34*
%TO.C,R7*%
X126306250Y-144950000D03*
X128306250Y-144950000D03*
%TD*%
D27*
%TO.C,R21*%
X137000000Y-173000000D03*
X137000000Y-171000000D03*
%TD*%
D29*
%TO.C,R25*%
X132500000Y-168950000D03*
X130500000Y-168950000D03*
%TD*%
D27*
%TO.C,R28*%
X120500000Y-172750000D03*
X120500000Y-170750000D03*
%TD*%
%TO.C,R2*%
X138500000Y-142500000D03*
X138500000Y-140500000D03*
%TD*%
%TO.C,R11*%
X122306250Y-156950000D03*
X122306250Y-154950000D03*
%TD*%
%TO.C,R9*%
X122306250Y-148950000D03*
X122306250Y-146950000D03*
%TD*%
%TO.C,R3*%
X138500000Y-146500000D03*
X138500000Y-144500000D03*
%TD*%
D36*
%TO.C,D10*%
X123050000Y-172812500D03*
X124950000Y-172812500D03*
X124000000Y-174687500D03*
%TD*%
M02*
