%FSLAX45Y45*%
G04 Gerber Fmt 4.5, Leading zero omitted, Abs format (unit mm)*
G04 Created by KiCad (PCBNEW (6.0.2)) date 2022-08-02 15:31:20*
%MOMM*%
%LPD*%
G01*
G04 APERTURE LIST*
%TA.AperFunction,Profile*%
%ADD10C,0.100000*%
%TD*%
%ADD11C,0.200000*%
%ADD12C,0.050000*%
%ADD13C,0.320000*%
%ADD14C,0.330000*%
G04 APERTURE END LIST*
D10*
X14500000Y-10500000D02*
X14500000Y-16100000D01*
X12190000Y-16550000D02*
X13750000Y-16550000D01*
X10500000Y-10000000D02*
G75*
G03*
X10000000Y-10500000I0J-500000D01*
G01*
X10775000Y-16125000D02*
X10775000Y-15075000D01*
X10625000Y-16350000D02*
G75*
G03*
X10675000Y-16300000I0J50000D01*
G01*
X10000000Y-16100000D02*
X10000000Y-10500000D01*
X11650000Y-15500000D02*
G75*
G03*
X11650000Y-15400000I0J50000D01*
G01*
X10925000Y-17350000D02*
X10925000Y-16800000D01*
X11690000Y-16350000D02*
X11375000Y-16350000D01*
X11500000Y-15500000D02*
X11650000Y-15500000D01*
X11670000Y-17800000D02*
X13650000Y-17800000D01*
X10925000Y-17350000D02*
G75*
G03*
X11170000Y-17600000I250051J0D01*
G01*
X11690000Y-16550000D02*
X11175000Y-16550000D01*
X10725000Y-17800000D02*
G75*
G03*
X10725000Y-18500000I0J-350000D01*
G01*
X13650000Y-17600000D02*
X11670000Y-17600000D01*
X11325000Y-16300000D02*
G75*
G03*
X11375000Y-16350000I50000J0D01*
G01*
X11325000Y-16300000D02*
X11325000Y-15800000D01*
X13750000Y-16350000D02*
X12190000Y-16350000D01*
X11170000Y-17800000D02*
X10725000Y-17800000D01*
X14250000Y-16350000D02*
G75*
G03*
X14500000Y-16100000I0J250000D01*
G01*
X14500000Y-10500000D02*
G75*
G03*
X14000000Y-10000000I-476686J23314D01*
G01*
X11500000Y-15500000D02*
G75*
G03*
X11325000Y-15675000I0J-175000D01*
G01*
X11175000Y-16550000D02*
G75*
G03*
X10925000Y-16800000I0J-250000D01*
G01*
X14250000Y-17600000D02*
G75*
G03*
X14500000Y-17350000I0J250000D01*
G01*
X14500000Y-16800000D02*
G75*
G03*
X14250000Y-16550000I-250000J0D01*
G01*
X11225000Y-16125000D02*
X11225000Y-15675000D01*
X11650000Y-15400000D02*
X11500000Y-15400000D01*
X10500000Y-10000000D02*
X14000000Y-10000000D01*
X14500000Y-16800000D02*
X14500000Y-17350000D01*
X10000000Y-16100000D02*
G75*
G03*
X10250000Y-16350000I250000J0D01*
G01*
X11325000Y-15675000D02*
X11325000Y-15800000D01*
X10675000Y-15075000D02*
X10675000Y-16300000D01*
X10775000Y-15075000D02*
G75*
G03*
X10675000Y-15075000I-50000J0D01*
G01*
X10250000Y-16350000D02*
X10625000Y-16350000D01*
X10775000Y-16125000D02*
G75*
G03*
X11225000Y-16125000I225000J0D01*
G01*
X10725000Y-18500000D02*
X14148500Y-18500000D01*
X14148500Y-18500000D02*
G75*
G03*
X14150000Y-17800000I0J350002D01*
G01*
X11500000Y-15400000D02*
G75*
G03*
X11225000Y-15675000I0J-275000D01*
G01*
X14250000Y-17600000D02*
X14150000Y-17600000D01*
D11*
D12*
X11270000Y-17600000D02*
X11320000Y-17650000D01*
X11320000Y-17600000D02*
X11270000Y-17650000D01*
X11270000Y-17750000D02*
X11320000Y-17800000D01*
X11320000Y-17750000D02*
X11270000Y-17800000D01*
X11445000Y-17600000D02*
X11495000Y-17650000D01*
X11495000Y-17600000D02*
X11445000Y-17650000D01*
X11445000Y-17750000D02*
X11495000Y-17800000D01*
X11495000Y-17750000D02*
X11445000Y-17800000D01*
X11520000Y-17600000D02*
X11570000Y-17650000D01*
X11570000Y-17600000D02*
X11520000Y-17650000D01*
X11520000Y-17750000D02*
X11570000Y-17800000D01*
X11570000Y-17750000D02*
X11520000Y-17800000D01*
X11790000Y-16350000D02*
X11840000Y-16400000D01*
X11840000Y-16350000D02*
X11790000Y-16400000D01*
X11790000Y-16500000D02*
X11840000Y-16550000D01*
X11840000Y-16500000D02*
X11790000Y-16550000D01*
X11965000Y-16350000D02*
X12015000Y-16400000D01*
X12015000Y-16350000D02*
X11965000Y-16400000D01*
X11965000Y-16500000D02*
X12015000Y-16550000D01*
X12015000Y-16500000D02*
X11965000Y-16550000D01*
X12040000Y-16350000D02*
X12090000Y-16400000D01*
X12090000Y-16350000D02*
X12040000Y-16400000D01*
X12040000Y-16500000D02*
X12090000Y-16550000D01*
X12090000Y-16500000D02*
X12040000Y-16550000D01*
X13750000Y-17600000D02*
X13800000Y-17650000D01*
X13800000Y-17600000D02*
X13750000Y-17650000D01*
X13750000Y-17750000D02*
X13800000Y-17800000D01*
X13800000Y-17750000D02*
X13750000Y-17800000D01*
X13825000Y-17600000D02*
X13875000Y-17650000D01*
X13875000Y-17600000D02*
X13825000Y-17650000D01*
X13825000Y-17750000D02*
X13875000Y-17800000D01*
X13875000Y-17750000D02*
X13825000Y-17800000D01*
X13850000Y-16350000D02*
X13900000Y-16400000D01*
X13900000Y-16350000D02*
X13850000Y-16400000D01*
X13850000Y-16500000D02*
X13900000Y-16550000D01*
X13900000Y-16500000D02*
X13850000Y-16550000D01*
X13925000Y-16350000D02*
X13975000Y-16400000D01*
X13975000Y-16350000D02*
X13925000Y-16400000D01*
X13925000Y-16500000D02*
X13975000Y-16550000D01*
X13975000Y-16500000D02*
X13925000Y-16550000D01*
X14000000Y-17600000D02*
X14050000Y-17650000D01*
X14050000Y-17600000D02*
X14000000Y-17650000D01*
X14000000Y-17750000D02*
X14050000Y-17800000D01*
X14050000Y-17750000D02*
X14000000Y-17800000D01*
X14100000Y-16350000D02*
X14150000Y-16400000D01*
X14150000Y-16350000D02*
X14100000Y-16400000D01*
X14100000Y-16500000D02*
X14150000Y-16550000D01*
X14150000Y-16500000D02*
X14100000Y-16550000D01*
D13*
X11170000Y-10460000D02*
G75*
G03*
X11170000Y-10460000I-160000J0D01*
G01*
X14240000Y-10450000D02*
G75*
G03*
X14240000Y-10450000I-160000J0D01*
G01*
X14290000Y-15990000D02*
G75*
G03*
X14290000Y-15990000I-160000J0D01*
G01*
D14*
X11210000Y-11670000D02*
X11210000Y-12000000D01*
X11045000Y-11835000D02*
X11375000Y-11835000D01*
X11210000Y-13500000D02*
X11210000Y-13830000D01*
X11045000Y-13665000D02*
X11375000Y-13665000D01*
X13190000Y-11670000D02*
X13190000Y-12000000D01*
X13025000Y-11835000D02*
X13355000Y-11835000D01*
X13190000Y-13500000D02*
X13190000Y-13830000D01*
X13025000Y-13665000D02*
X13355000Y-13665000D01*
D11*
X10252619Y-18815476D02*
X10252619Y-18615476D01*
X10300238Y-18615476D01*
X10328810Y-18625000D01*
X10347857Y-18644048D01*
X10357381Y-18663095D01*
X10366905Y-18701190D01*
X10366905Y-18729762D01*
X10357381Y-18767857D01*
X10347857Y-18786905D01*
X10328810Y-18805952D01*
X10300238Y-18815476D01*
X10252619Y-18815476D01*
X10452619Y-18815476D02*
X10452619Y-18682143D01*
X10452619Y-18720238D02*
X10462143Y-18701190D01*
X10471667Y-18691667D01*
X10490714Y-18682143D01*
X10509762Y-18682143D01*
X10576429Y-18815476D02*
X10576429Y-18682143D01*
X10576429Y-18615476D02*
X10566905Y-18625000D01*
X10576429Y-18634524D01*
X10585952Y-18625000D01*
X10576429Y-18615476D01*
X10576429Y-18634524D01*
X10700238Y-18815476D02*
X10681190Y-18805952D01*
X10671667Y-18786905D01*
X10671667Y-18615476D01*
X10805000Y-18815476D02*
X10785952Y-18805952D01*
X10776429Y-18786905D01*
X10776429Y-18615476D01*
X11033571Y-18815476D02*
X11033571Y-18615476D01*
X11100238Y-18758333D01*
X11166905Y-18615476D01*
X11166905Y-18815476D01*
X11347857Y-18815476D02*
X11347857Y-18710714D01*
X11338333Y-18691667D01*
X11319286Y-18682143D01*
X11281190Y-18682143D01*
X11262143Y-18691667D01*
X11347857Y-18805952D02*
X11328809Y-18815476D01*
X11281190Y-18815476D01*
X11262143Y-18805952D01*
X11252619Y-18786905D01*
X11252619Y-18767857D01*
X11262143Y-18748810D01*
X11281190Y-18739286D01*
X11328809Y-18739286D01*
X11347857Y-18729762D01*
X11443095Y-18682143D02*
X11443095Y-18882143D01*
X11443095Y-18691667D02*
X11462143Y-18682143D01*
X11500238Y-18682143D01*
X11519286Y-18691667D01*
X11528809Y-18701190D01*
X11538333Y-18720238D01*
X11538333Y-18777381D01*
X11528809Y-18796429D01*
X11519286Y-18805952D01*
X11500238Y-18815476D01*
X11462143Y-18815476D01*
X11443095Y-18805952D01*
X11624048Y-18796429D02*
X11633571Y-18805952D01*
X11624048Y-18815476D01*
X11614524Y-18805952D01*
X11624048Y-18796429D01*
X11624048Y-18815476D01*
X11624048Y-18691667D02*
X11633571Y-18701190D01*
X11624048Y-18710714D01*
X11614524Y-18701190D01*
X11624048Y-18691667D01*
X11624048Y-18710714D01*
D12*
X9945000Y-19120000D02*
X9995000Y-19170000D01*
X9995000Y-19120000D02*
X9945000Y-19170000D01*
D11*
X10290714Y-19035476D02*
X10309762Y-19035476D01*
X10328810Y-19045000D01*
X10338333Y-19054524D01*
X10347857Y-19073571D01*
X10357381Y-19111667D01*
X10357381Y-19159286D01*
X10347857Y-19197381D01*
X10338333Y-19216429D01*
X10328810Y-19225952D01*
X10309762Y-19235476D01*
X10290714Y-19235476D01*
X10271667Y-19225952D01*
X10262143Y-19216429D01*
X10252619Y-19197381D01*
X10243095Y-19159286D01*
X10243095Y-19111667D01*
X10252619Y-19073571D01*
X10262143Y-19054524D01*
X10271667Y-19045000D01*
X10290714Y-19035476D01*
X10443095Y-19216429D02*
X10452619Y-19225952D01*
X10443095Y-19235476D01*
X10433571Y-19225952D01*
X10443095Y-19216429D01*
X10443095Y-19235476D01*
X10633571Y-19035476D02*
X10538333Y-19035476D01*
X10528810Y-19130714D01*
X10538333Y-19121190D01*
X10557381Y-19111667D01*
X10605000Y-19111667D01*
X10624048Y-19121190D01*
X10633571Y-19130714D01*
X10643095Y-19149762D01*
X10643095Y-19197381D01*
X10633571Y-19216429D01*
X10624048Y-19225952D01*
X10605000Y-19235476D01*
X10557381Y-19235476D01*
X10538333Y-19225952D01*
X10528810Y-19216429D01*
X10766905Y-19035476D02*
X10785952Y-19035476D01*
X10805000Y-19045000D01*
X10814524Y-19054524D01*
X10824048Y-19073571D01*
X10833571Y-19111667D01*
X10833571Y-19159286D01*
X10824048Y-19197381D01*
X10814524Y-19216429D01*
X10805000Y-19225952D01*
X10785952Y-19235476D01*
X10766905Y-19235476D01*
X10747857Y-19225952D01*
X10738333Y-19216429D01*
X10728810Y-19197381D01*
X10719286Y-19159286D01*
X10719286Y-19111667D01*
X10728810Y-19073571D01*
X10738333Y-19054524D01*
X10747857Y-19045000D01*
X10766905Y-19035476D01*
X10957381Y-19035476D02*
X10976429Y-19035476D01*
X10995476Y-19045000D01*
X11005000Y-19054524D01*
X11014524Y-19073571D01*
X11024048Y-19111667D01*
X11024048Y-19159286D01*
X11014524Y-19197381D01*
X11005000Y-19216429D01*
X10995476Y-19225952D01*
X10976429Y-19235476D01*
X10957381Y-19235476D01*
X10938333Y-19225952D01*
X10928810Y-19216429D01*
X10919286Y-19197381D01*
X10909762Y-19159286D01*
X10909762Y-19111667D01*
X10919286Y-19073571D01*
X10928810Y-19054524D01*
X10938333Y-19045000D01*
X10957381Y-19035476D01*
X11109762Y-19235476D02*
X11109762Y-19102143D01*
X11109762Y-19121190D02*
X11119286Y-19111667D01*
X11138333Y-19102143D01*
X11166905Y-19102143D01*
X11185952Y-19111667D01*
X11195476Y-19130714D01*
X11195476Y-19235476D01*
X11195476Y-19130714D02*
X11205000Y-19111667D01*
X11224048Y-19102143D01*
X11252619Y-19102143D01*
X11271667Y-19111667D01*
X11281190Y-19130714D01*
X11281190Y-19235476D01*
X11376428Y-19235476D02*
X11376428Y-19102143D01*
X11376428Y-19121190D02*
X11385952Y-19111667D01*
X11405000Y-19102143D01*
X11433571Y-19102143D01*
X11452619Y-19111667D01*
X11462143Y-19130714D01*
X11462143Y-19235476D01*
X11462143Y-19130714D02*
X11471667Y-19111667D01*
X11490714Y-19102143D01*
X11519286Y-19102143D01*
X11538333Y-19111667D01*
X11547857Y-19130714D01*
X11547857Y-19235476D01*
X11938333Y-19025952D02*
X11766905Y-19283095D01*
X12195476Y-19035476D02*
X12214524Y-19035476D01*
X12233571Y-19045000D01*
X12243095Y-19054524D01*
X12252619Y-19073571D01*
X12262143Y-19111667D01*
X12262143Y-19159286D01*
X12252619Y-19197381D01*
X12243095Y-19216429D01*
X12233571Y-19225952D01*
X12214524Y-19235476D01*
X12195476Y-19235476D01*
X12176428Y-19225952D01*
X12166905Y-19216429D01*
X12157381Y-19197381D01*
X12147857Y-19159286D01*
X12147857Y-19111667D01*
X12157381Y-19073571D01*
X12166905Y-19054524D01*
X12176428Y-19045000D01*
X12195476Y-19035476D01*
X12347857Y-19216429D02*
X12357381Y-19225952D01*
X12347857Y-19235476D01*
X12338333Y-19225952D01*
X12347857Y-19216429D01*
X12347857Y-19235476D01*
X12481190Y-19035476D02*
X12500238Y-19035476D01*
X12519286Y-19045000D01*
X12528809Y-19054524D01*
X12538333Y-19073571D01*
X12547857Y-19111667D01*
X12547857Y-19159286D01*
X12538333Y-19197381D01*
X12528809Y-19216429D01*
X12519286Y-19225952D01*
X12500238Y-19235476D01*
X12481190Y-19235476D01*
X12462143Y-19225952D01*
X12452619Y-19216429D01*
X12443095Y-19197381D01*
X12433571Y-19159286D01*
X12433571Y-19111667D01*
X12443095Y-19073571D01*
X12452619Y-19054524D01*
X12462143Y-19045000D01*
X12481190Y-19035476D01*
X12738333Y-19235476D02*
X12624048Y-19235476D01*
X12681190Y-19235476D02*
X12681190Y-19035476D01*
X12662143Y-19064048D01*
X12643095Y-19083095D01*
X12624048Y-19092619D01*
X12833571Y-19235476D02*
X12871667Y-19235476D01*
X12890714Y-19225952D01*
X12900238Y-19216429D01*
X12919286Y-19187857D01*
X12928809Y-19149762D01*
X12928809Y-19073571D01*
X12919286Y-19054524D01*
X12909762Y-19045000D01*
X12890714Y-19035476D01*
X12852619Y-19035476D01*
X12833571Y-19045000D01*
X12824048Y-19054524D01*
X12814524Y-19073571D01*
X12814524Y-19121190D01*
X12824048Y-19140238D01*
X12833571Y-19149762D01*
X12852619Y-19159286D01*
X12890714Y-19159286D01*
X12909762Y-19149762D01*
X12919286Y-19140238D01*
X12928809Y-19121190D01*
X12995476Y-19035476D02*
X13128809Y-19035476D01*
X13043095Y-19235476D01*
X13195476Y-19035476D02*
X13195476Y-19073571D01*
X13271667Y-19035476D02*
X13271667Y-19073571D01*
X13566905Y-19311667D02*
X13557381Y-19302143D01*
X13538333Y-19273571D01*
X13528809Y-19254524D01*
X13519286Y-19225952D01*
X13509762Y-19178333D01*
X13509762Y-19140238D01*
X13519286Y-19092619D01*
X13528809Y-19064048D01*
X13538333Y-19045000D01*
X13557381Y-19016429D01*
X13566905Y-19006905D01*
X13633571Y-19054524D02*
X13643095Y-19045000D01*
X13662143Y-19035476D01*
X13709762Y-19035476D01*
X13728809Y-19045000D01*
X13738333Y-19054524D01*
X13747857Y-19073571D01*
X13747857Y-19092619D01*
X13738333Y-19121190D01*
X13624048Y-19235476D01*
X13747857Y-19235476D01*
X13919286Y-19102143D02*
X13919286Y-19235476D01*
X13871667Y-19025952D02*
X13824048Y-19168810D01*
X13947857Y-19168810D01*
X14176428Y-19235476D02*
X14176428Y-19035476D01*
X14262143Y-19235476D02*
X14262143Y-19130714D01*
X14252619Y-19111667D01*
X14233571Y-19102143D01*
X14205000Y-19102143D01*
X14185952Y-19111667D01*
X14176428Y-19121190D01*
X14385952Y-19235476D02*
X14366905Y-19225952D01*
X14357381Y-19216429D01*
X14347857Y-19197381D01*
X14347857Y-19140238D01*
X14357381Y-19121190D01*
X14366905Y-19111667D01*
X14385952Y-19102143D01*
X14414524Y-19102143D01*
X14433571Y-19111667D01*
X14443095Y-19121190D01*
X14452619Y-19140238D01*
X14452619Y-19197381D01*
X14443095Y-19216429D01*
X14433571Y-19225952D01*
X14414524Y-19235476D01*
X14385952Y-19235476D01*
X14566905Y-19235476D02*
X14547857Y-19225952D01*
X14538333Y-19206905D01*
X14538333Y-19035476D01*
X14719286Y-19225952D02*
X14700238Y-19235476D01*
X14662143Y-19235476D01*
X14643095Y-19225952D01*
X14633571Y-19206905D01*
X14633571Y-19130714D01*
X14643095Y-19111667D01*
X14662143Y-19102143D01*
X14700238Y-19102143D01*
X14719286Y-19111667D01*
X14728809Y-19130714D01*
X14728809Y-19149762D01*
X14633571Y-19168810D01*
X14805000Y-19225952D02*
X14824048Y-19235476D01*
X14862143Y-19235476D01*
X14881190Y-19225952D01*
X14890714Y-19206905D01*
X14890714Y-19197381D01*
X14881190Y-19178333D01*
X14862143Y-19168810D01*
X14833571Y-19168810D01*
X14814524Y-19159286D01*
X14805000Y-19140238D01*
X14805000Y-19130714D01*
X14814524Y-19111667D01*
X14833571Y-19102143D01*
X14862143Y-19102143D01*
X14881190Y-19111667D01*
X14957381Y-19311667D02*
X14966905Y-19302143D01*
X14985952Y-19273571D01*
X14995476Y-19254524D01*
X15005000Y-19225952D01*
X15014524Y-19178333D01*
X15014524Y-19140238D01*
X15005000Y-19092619D01*
X14995476Y-19064048D01*
X14985952Y-19045000D01*
X14966905Y-19016429D01*
X14957381Y-19006905D01*
X15319286Y-19311667D02*
X15309762Y-19302143D01*
X15290714Y-19273571D01*
X15281190Y-19254524D01*
X15271667Y-19225952D01*
X15262143Y-19178333D01*
X15262143Y-19140238D01*
X15271667Y-19092619D01*
X15281190Y-19064048D01*
X15290714Y-19045000D01*
X15309762Y-19016429D01*
X15319286Y-19006905D01*
X15395476Y-19102143D02*
X15395476Y-19235476D01*
X15395476Y-19121190D02*
X15405000Y-19111667D01*
X15424048Y-19102143D01*
X15452619Y-19102143D01*
X15471667Y-19111667D01*
X15481190Y-19130714D01*
X15481190Y-19235476D01*
X15605000Y-19235476D02*
X15585952Y-19225952D01*
X15576428Y-19216429D01*
X15566905Y-19197381D01*
X15566905Y-19140238D01*
X15576428Y-19121190D01*
X15585952Y-19111667D01*
X15605000Y-19102143D01*
X15633571Y-19102143D01*
X15652619Y-19111667D01*
X15662143Y-19121190D01*
X15671667Y-19140238D01*
X15671667Y-19197381D01*
X15662143Y-19216429D01*
X15652619Y-19225952D01*
X15633571Y-19235476D01*
X15605000Y-19235476D01*
X15728809Y-19102143D02*
X15805000Y-19102143D01*
X15757381Y-19035476D02*
X15757381Y-19206905D01*
X15766905Y-19225952D01*
X15785952Y-19235476D01*
X15805000Y-19235476D01*
X16024048Y-19102143D02*
X16024048Y-19302143D01*
X16024048Y-19111667D02*
X16043095Y-19102143D01*
X16081190Y-19102143D01*
X16100238Y-19111667D01*
X16109762Y-19121190D01*
X16119286Y-19140238D01*
X16119286Y-19197381D01*
X16109762Y-19216429D01*
X16100238Y-19225952D01*
X16081190Y-19235476D01*
X16043095Y-19235476D01*
X16024048Y-19225952D01*
X16233571Y-19235476D02*
X16214524Y-19225952D01*
X16205000Y-19206905D01*
X16205000Y-19035476D01*
X16395476Y-19235476D02*
X16395476Y-19130714D01*
X16385952Y-19111667D01*
X16366905Y-19102143D01*
X16328809Y-19102143D01*
X16309762Y-19111667D01*
X16395476Y-19225952D02*
X16376428Y-19235476D01*
X16328809Y-19235476D01*
X16309762Y-19225952D01*
X16300238Y-19206905D01*
X16300238Y-19187857D01*
X16309762Y-19168810D01*
X16328809Y-19159286D01*
X16376428Y-19159286D01*
X16395476Y-19149762D01*
X16462143Y-19102143D02*
X16538333Y-19102143D01*
X16490714Y-19035476D02*
X16490714Y-19206905D01*
X16500238Y-19225952D01*
X16519286Y-19235476D01*
X16538333Y-19235476D01*
X16681190Y-19225952D02*
X16662143Y-19235476D01*
X16624048Y-19235476D01*
X16605000Y-19225952D01*
X16595476Y-19206905D01*
X16595476Y-19130714D01*
X16605000Y-19111667D01*
X16624048Y-19102143D01*
X16662143Y-19102143D01*
X16681190Y-19111667D01*
X16690714Y-19130714D01*
X16690714Y-19149762D01*
X16595476Y-19168810D01*
X16862143Y-19235476D02*
X16862143Y-19035476D01*
X16862143Y-19225952D02*
X16843095Y-19235476D01*
X16805000Y-19235476D01*
X16785952Y-19225952D01*
X16776428Y-19216429D01*
X16766905Y-19197381D01*
X16766905Y-19140238D01*
X16776428Y-19121190D01*
X16785952Y-19111667D01*
X16805000Y-19102143D01*
X16843095Y-19102143D01*
X16862143Y-19111667D01*
X16938333Y-19311667D02*
X16947857Y-19302143D01*
X16966905Y-19273571D01*
X16976429Y-19254524D01*
X16985952Y-19225952D01*
X16995476Y-19178333D01*
X16995476Y-19140238D01*
X16985952Y-19092619D01*
X16976429Y-19064048D01*
X16966905Y-19045000D01*
X16947857Y-19016429D01*
X16938333Y-19006905D01*
X9995000Y-19409000D02*
G75*
G03*
X9995000Y-19409000I-100000J0D01*
G01*
X10233571Y-19299476D02*
X10357381Y-19299476D01*
X10290714Y-19375667D01*
X10319286Y-19375667D01*
X10338333Y-19385190D01*
X10347857Y-19394714D01*
X10357381Y-19413762D01*
X10357381Y-19461381D01*
X10347857Y-19480429D01*
X10338333Y-19489952D01*
X10319286Y-19499476D01*
X10262143Y-19499476D01*
X10243095Y-19489952D01*
X10233571Y-19480429D01*
X10443095Y-19480429D02*
X10452619Y-19489952D01*
X10443095Y-19499476D01*
X10433571Y-19489952D01*
X10443095Y-19480429D01*
X10443095Y-19499476D01*
X10528810Y-19318524D02*
X10538333Y-19309000D01*
X10557381Y-19299476D01*
X10605000Y-19299476D01*
X10624048Y-19309000D01*
X10633571Y-19318524D01*
X10643095Y-19337571D01*
X10643095Y-19356619D01*
X10633571Y-19385190D01*
X10519286Y-19499476D01*
X10643095Y-19499476D01*
X10766905Y-19299476D02*
X10785952Y-19299476D01*
X10805000Y-19309000D01*
X10814524Y-19318524D01*
X10824048Y-19337571D01*
X10833571Y-19375667D01*
X10833571Y-19423286D01*
X10824048Y-19461381D01*
X10814524Y-19480429D01*
X10805000Y-19489952D01*
X10785952Y-19499476D01*
X10766905Y-19499476D01*
X10747857Y-19489952D01*
X10738333Y-19480429D01*
X10728810Y-19461381D01*
X10719286Y-19423286D01*
X10719286Y-19375667D01*
X10728810Y-19337571D01*
X10738333Y-19318524D01*
X10747857Y-19309000D01*
X10766905Y-19299476D01*
X10957381Y-19299476D02*
X10976429Y-19299476D01*
X10995476Y-19309000D01*
X11005000Y-19318524D01*
X11014524Y-19337571D01*
X11024048Y-19375667D01*
X11024048Y-19423286D01*
X11014524Y-19461381D01*
X11005000Y-19480429D01*
X10995476Y-19489952D01*
X10976429Y-19499476D01*
X10957381Y-19499476D01*
X10938333Y-19489952D01*
X10928810Y-19480429D01*
X10919286Y-19461381D01*
X10909762Y-19423286D01*
X10909762Y-19375667D01*
X10919286Y-19337571D01*
X10928810Y-19318524D01*
X10938333Y-19309000D01*
X10957381Y-19299476D01*
X11109762Y-19499476D02*
X11109762Y-19366143D01*
X11109762Y-19385190D02*
X11119286Y-19375667D01*
X11138333Y-19366143D01*
X11166905Y-19366143D01*
X11185952Y-19375667D01*
X11195476Y-19394714D01*
X11195476Y-19499476D01*
X11195476Y-19394714D02*
X11205000Y-19375667D01*
X11224048Y-19366143D01*
X11252619Y-19366143D01*
X11271667Y-19375667D01*
X11281190Y-19394714D01*
X11281190Y-19499476D01*
X11376428Y-19499476D02*
X11376428Y-19366143D01*
X11376428Y-19385190D02*
X11385952Y-19375667D01*
X11405000Y-19366143D01*
X11433571Y-19366143D01*
X11452619Y-19375667D01*
X11462143Y-19394714D01*
X11462143Y-19499476D01*
X11462143Y-19394714D02*
X11471667Y-19375667D01*
X11490714Y-19366143D01*
X11519286Y-19366143D01*
X11538333Y-19375667D01*
X11547857Y-19394714D01*
X11547857Y-19499476D01*
X11938333Y-19289952D02*
X11766905Y-19547095D01*
X12195476Y-19299476D02*
X12214524Y-19299476D01*
X12233571Y-19309000D01*
X12243095Y-19318524D01*
X12252619Y-19337571D01*
X12262143Y-19375667D01*
X12262143Y-19423286D01*
X12252619Y-19461381D01*
X12243095Y-19480429D01*
X12233571Y-19489952D01*
X12214524Y-19499476D01*
X12195476Y-19499476D01*
X12176428Y-19489952D01*
X12166905Y-19480429D01*
X12157381Y-19461381D01*
X12147857Y-19423286D01*
X12147857Y-19375667D01*
X12157381Y-19337571D01*
X12166905Y-19318524D01*
X12176428Y-19309000D01*
X12195476Y-19299476D01*
X12347857Y-19480429D02*
X12357381Y-19489952D01*
X12347857Y-19499476D01*
X12338333Y-19489952D01*
X12347857Y-19480429D01*
X12347857Y-19499476D01*
X12547857Y-19499476D02*
X12433571Y-19499476D01*
X12490714Y-19499476D02*
X12490714Y-19299476D01*
X12471667Y-19328048D01*
X12452619Y-19347095D01*
X12433571Y-19356619D01*
X12624048Y-19318524D02*
X12633571Y-19309000D01*
X12652619Y-19299476D01*
X12700238Y-19299476D01*
X12719286Y-19309000D01*
X12728809Y-19318524D01*
X12738333Y-19337571D01*
X12738333Y-19356619D01*
X12728809Y-19385190D01*
X12614524Y-19499476D01*
X12738333Y-19499476D01*
X12909762Y-19299476D02*
X12871667Y-19299476D01*
X12852619Y-19309000D01*
X12843095Y-19318524D01*
X12824048Y-19347095D01*
X12814524Y-19385190D01*
X12814524Y-19461381D01*
X12824048Y-19480429D01*
X12833571Y-19489952D01*
X12852619Y-19499476D01*
X12890714Y-19499476D01*
X12909762Y-19489952D01*
X12919286Y-19480429D01*
X12928809Y-19461381D01*
X12928809Y-19413762D01*
X12919286Y-19394714D01*
X12909762Y-19385190D01*
X12890714Y-19375667D01*
X12852619Y-19375667D01*
X12833571Y-19385190D01*
X12824048Y-19394714D01*
X12814524Y-19413762D01*
X13052619Y-19299476D02*
X13071667Y-19299476D01*
X13090714Y-19309000D01*
X13100238Y-19318524D01*
X13109762Y-19337571D01*
X13119286Y-19375667D01*
X13119286Y-19423286D01*
X13109762Y-19461381D01*
X13100238Y-19480429D01*
X13090714Y-19489952D01*
X13071667Y-19499476D01*
X13052619Y-19499476D01*
X13033571Y-19489952D01*
X13024048Y-19480429D01*
X13014524Y-19461381D01*
X13005000Y-19423286D01*
X13005000Y-19375667D01*
X13014524Y-19337571D01*
X13024048Y-19318524D01*
X13033571Y-19309000D01*
X13052619Y-19299476D01*
X13195476Y-19299476D02*
X13195476Y-19337571D01*
X13271667Y-19299476D02*
X13271667Y-19337571D01*
X13566905Y-19575667D02*
X13557381Y-19566143D01*
X13538333Y-19537571D01*
X13528809Y-19518524D01*
X13519286Y-19489952D01*
X13509762Y-19442333D01*
X13509762Y-19404238D01*
X13519286Y-19356619D01*
X13528809Y-19328048D01*
X13538333Y-19309000D01*
X13557381Y-19280429D01*
X13566905Y-19270905D01*
X13624048Y-19299476D02*
X13747857Y-19299476D01*
X13681190Y-19375667D01*
X13709762Y-19375667D01*
X13728809Y-19385190D01*
X13738333Y-19394714D01*
X13747857Y-19413762D01*
X13747857Y-19461381D01*
X13738333Y-19480429D01*
X13728809Y-19489952D01*
X13709762Y-19499476D01*
X13652619Y-19499476D01*
X13633571Y-19489952D01*
X13624048Y-19480429D01*
X13985952Y-19499476D02*
X13985952Y-19299476D01*
X14071667Y-19499476D02*
X14071667Y-19394714D01*
X14062143Y-19375667D01*
X14043095Y-19366143D01*
X14014524Y-19366143D01*
X13995476Y-19375667D01*
X13985952Y-19385190D01*
X14195476Y-19499476D02*
X14176428Y-19489952D01*
X14166905Y-19480429D01*
X14157381Y-19461381D01*
X14157381Y-19404238D01*
X14166905Y-19385190D01*
X14176428Y-19375667D01*
X14195476Y-19366143D01*
X14224048Y-19366143D01*
X14243095Y-19375667D01*
X14252619Y-19385190D01*
X14262143Y-19404238D01*
X14262143Y-19461381D01*
X14252619Y-19480429D01*
X14243095Y-19489952D01*
X14224048Y-19499476D01*
X14195476Y-19499476D01*
X14376428Y-19499476D02*
X14357381Y-19489952D01*
X14347857Y-19470905D01*
X14347857Y-19299476D01*
X14528809Y-19489952D02*
X14509762Y-19499476D01*
X14471667Y-19499476D01*
X14452619Y-19489952D01*
X14443095Y-19470905D01*
X14443095Y-19394714D01*
X14452619Y-19375667D01*
X14471667Y-19366143D01*
X14509762Y-19366143D01*
X14528809Y-19375667D01*
X14538333Y-19394714D01*
X14538333Y-19413762D01*
X14443095Y-19432810D01*
X14614524Y-19489952D02*
X14633571Y-19499476D01*
X14671667Y-19499476D01*
X14690714Y-19489952D01*
X14700238Y-19470905D01*
X14700238Y-19461381D01*
X14690714Y-19442333D01*
X14671667Y-19432810D01*
X14643095Y-19432810D01*
X14624048Y-19423286D01*
X14614524Y-19404238D01*
X14614524Y-19394714D01*
X14624048Y-19375667D01*
X14643095Y-19366143D01*
X14671667Y-19366143D01*
X14690714Y-19375667D01*
X14766905Y-19575667D02*
X14776428Y-19566143D01*
X14795476Y-19537571D01*
X14805000Y-19518524D01*
X14814524Y-19489952D01*
X14824048Y-19442333D01*
X14824048Y-19404238D01*
X14814524Y-19356619D01*
X14805000Y-19328048D01*
X14795476Y-19309000D01*
X14776428Y-19280429D01*
X14766905Y-19270905D01*
X15128809Y-19575667D02*
X15119286Y-19566143D01*
X15100238Y-19537571D01*
X15090714Y-19518524D01*
X15081190Y-19489952D01*
X15071667Y-19442333D01*
X15071667Y-19404238D01*
X15081190Y-19356619D01*
X15090714Y-19328048D01*
X15100238Y-19309000D01*
X15119286Y-19280429D01*
X15128809Y-19270905D01*
X15205000Y-19366143D02*
X15205000Y-19499476D01*
X15205000Y-19385190D02*
X15214524Y-19375667D01*
X15233571Y-19366143D01*
X15262143Y-19366143D01*
X15281190Y-19375667D01*
X15290714Y-19394714D01*
X15290714Y-19499476D01*
X15414524Y-19499476D02*
X15395476Y-19489952D01*
X15385952Y-19480429D01*
X15376428Y-19461381D01*
X15376428Y-19404238D01*
X15385952Y-19385190D01*
X15395476Y-19375667D01*
X15414524Y-19366143D01*
X15443095Y-19366143D01*
X15462143Y-19375667D01*
X15471667Y-19385190D01*
X15481190Y-19404238D01*
X15481190Y-19461381D01*
X15471667Y-19480429D01*
X15462143Y-19489952D01*
X15443095Y-19499476D01*
X15414524Y-19499476D01*
X15538333Y-19366143D02*
X15614524Y-19366143D01*
X15566905Y-19299476D02*
X15566905Y-19470905D01*
X15576428Y-19489952D01*
X15595476Y-19499476D01*
X15614524Y-19499476D01*
X15833571Y-19366143D02*
X15833571Y-19566143D01*
X15833571Y-19375667D02*
X15852619Y-19366143D01*
X15890714Y-19366143D01*
X15909762Y-19375667D01*
X15919286Y-19385190D01*
X15928809Y-19404238D01*
X15928809Y-19461381D01*
X15919286Y-19480429D01*
X15909762Y-19489952D01*
X15890714Y-19499476D01*
X15852619Y-19499476D01*
X15833571Y-19489952D01*
X16043095Y-19499476D02*
X16024048Y-19489952D01*
X16014524Y-19470905D01*
X16014524Y-19299476D01*
X16205000Y-19499476D02*
X16205000Y-19394714D01*
X16195476Y-19375667D01*
X16176428Y-19366143D01*
X16138333Y-19366143D01*
X16119286Y-19375667D01*
X16205000Y-19489952D02*
X16185952Y-19499476D01*
X16138333Y-19499476D01*
X16119286Y-19489952D01*
X16109762Y-19470905D01*
X16109762Y-19451857D01*
X16119286Y-19432810D01*
X16138333Y-19423286D01*
X16185952Y-19423286D01*
X16205000Y-19413762D01*
X16271667Y-19366143D02*
X16347857Y-19366143D01*
X16300238Y-19299476D02*
X16300238Y-19470905D01*
X16309762Y-19489952D01*
X16328809Y-19499476D01*
X16347857Y-19499476D01*
X16490714Y-19489952D02*
X16471667Y-19499476D01*
X16433571Y-19499476D01*
X16414524Y-19489952D01*
X16405000Y-19470905D01*
X16405000Y-19394714D01*
X16414524Y-19375667D01*
X16433571Y-19366143D01*
X16471667Y-19366143D01*
X16490714Y-19375667D01*
X16500238Y-19394714D01*
X16500238Y-19413762D01*
X16405000Y-19432810D01*
X16671667Y-19499476D02*
X16671667Y-19299476D01*
X16671667Y-19489952D02*
X16652619Y-19499476D01*
X16614524Y-19499476D01*
X16595476Y-19489952D01*
X16585952Y-19480429D01*
X16576428Y-19461381D01*
X16576428Y-19404238D01*
X16585952Y-19385190D01*
X16595476Y-19375667D01*
X16614524Y-19366143D01*
X16652619Y-19366143D01*
X16671667Y-19375667D01*
X16747857Y-19575667D02*
X16757381Y-19566143D01*
X16776428Y-19537571D01*
X16785952Y-19518524D01*
X16795476Y-19489952D01*
X16805000Y-19442333D01*
X16805000Y-19404238D01*
X16795476Y-19356619D01*
X16785952Y-19328048D01*
X16776428Y-19309000D01*
X16757381Y-19280429D01*
X16747857Y-19270905D01*
X9895000Y-19629000D02*
X9895000Y-19829000D01*
X9795000Y-19729000D02*
X9995000Y-19729000D01*
X10233571Y-19619476D02*
X10357381Y-19619476D01*
X10290714Y-19695667D01*
X10319286Y-19695667D01*
X10338333Y-19705190D01*
X10347857Y-19714714D01*
X10357381Y-19733762D01*
X10357381Y-19781381D01*
X10347857Y-19800429D01*
X10338333Y-19809952D01*
X10319286Y-19819476D01*
X10262143Y-19819476D01*
X10243095Y-19809952D01*
X10233571Y-19800429D01*
X10443095Y-19800429D02*
X10452619Y-19809952D01*
X10443095Y-19819476D01*
X10433571Y-19809952D01*
X10443095Y-19800429D01*
X10443095Y-19819476D01*
X10519286Y-19619476D02*
X10643095Y-19619476D01*
X10576429Y-19695667D01*
X10605000Y-19695667D01*
X10624048Y-19705190D01*
X10633571Y-19714714D01*
X10643095Y-19733762D01*
X10643095Y-19781381D01*
X10633571Y-19800429D01*
X10624048Y-19809952D01*
X10605000Y-19819476D01*
X10547857Y-19819476D01*
X10528810Y-19809952D01*
X10519286Y-19800429D01*
X10766905Y-19619476D02*
X10785952Y-19619476D01*
X10805000Y-19629000D01*
X10814524Y-19638524D01*
X10824048Y-19657571D01*
X10833571Y-19695667D01*
X10833571Y-19743286D01*
X10824048Y-19781381D01*
X10814524Y-19800429D01*
X10805000Y-19809952D01*
X10785952Y-19819476D01*
X10766905Y-19819476D01*
X10747857Y-19809952D01*
X10738333Y-19800429D01*
X10728810Y-19781381D01*
X10719286Y-19743286D01*
X10719286Y-19695667D01*
X10728810Y-19657571D01*
X10738333Y-19638524D01*
X10747857Y-19629000D01*
X10766905Y-19619476D01*
X10957381Y-19619476D02*
X10976429Y-19619476D01*
X10995476Y-19629000D01*
X11005000Y-19638524D01*
X11014524Y-19657571D01*
X11024048Y-19695667D01*
X11024048Y-19743286D01*
X11014524Y-19781381D01*
X11005000Y-19800429D01*
X10995476Y-19809952D01*
X10976429Y-19819476D01*
X10957381Y-19819476D01*
X10938333Y-19809952D01*
X10928810Y-19800429D01*
X10919286Y-19781381D01*
X10909762Y-19743286D01*
X10909762Y-19695667D01*
X10919286Y-19657571D01*
X10928810Y-19638524D01*
X10938333Y-19629000D01*
X10957381Y-19619476D01*
X11109762Y-19819476D02*
X11109762Y-19686143D01*
X11109762Y-19705190D02*
X11119286Y-19695667D01*
X11138333Y-19686143D01*
X11166905Y-19686143D01*
X11185952Y-19695667D01*
X11195476Y-19714714D01*
X11195476Y-19819476D01*
X11195476Y-19714714D02*
X11205000Y-19695667D01*
X11224048Y-19686143D01*
X11252619Y-19686143D01*
X11271667Y-19695667D01*
X11281190Y-19714714D01*
X11281190Y-19819476D01*
X11376428Y-19819476D02*
X11376428Y-19686143D01*
X11376428Y-19705190D02*
X11385952Y-19695667D01*
X11405000Y-19686143D01*
X11433571Y-19686143D01*
X11452619Y-19695667D01*
X11462143Y-19714714D01*
X11462143Y-19819476D01*
X11462143Y-19714714D02*
X11471667Y-19695667D01*
X11490714Y-19686143D01*
X11519286Y-19686143D01*
X11538333Y-19695667D01*
X11547857Y-19714714D01*
X11547857Y-19819476D01*
X11938333Y-19609952D02*
X11766905Y-19867095D01*
X12195476Y-19619476D02*
X12214524Y-19619476D01*
X12233571Y-19629000D01*
X12243095Y-19638524D01*
X12252619Y-19657571D01*
X12262143Y-19695667D01*
X12262143Y-19743286D01*
X12252619Y-19781381D01*
X12243095Y-19800429D01*
X12233571Y-19809952D01*
X12214524Y-19819476D01*
X12195476Y-19819476D01*
X12176428Y-19809952D01*
X12166905Y-19800429D01*
X12157381Y-19781381D01*
X12147857Y-19743286D01*
X12147857Y-19695667D01*
X12157381Y-19657571D01*
X12166905Y-19638524D01*
X12176428Y-19629000D01*
X12195476Y-19619476D01*
X12347857Y-19800429D02*
X12357381Y-19809952D01*
X12347857Y-19819476D01*
X12338333Y-19809952D01*
X12347857Y-19800429D01*
X12347857Y-19819476D01*
X12547857Y-19819476D02*
X12433571Y-19819476D01*
X12490714Y-19819476D02*
X12490714Y-19619476D01*
X12471667Y-19648048D01*
X12452619Y-19667095D01*
X12433571Y-19676619D01*
X12624048Y-19638524D02*
X12633571Y-19629000D01*
X12652619Y-19619476D01*
X12700238Y-19619476D01*
X12719286Y-19629000D01*
X12728809Y-19638524D01*
X12738333Y-19657571D01*
X12738333Y-19676619D01*
X12728809Y-19705190D01*
X12614524Y-19819476D01*
X12738333Y-19819476D01*
X12833571Y-19819476D02*
X12871667Y-19819476D01*
X12890714Y-19809952D01*
X12900238Y-19800429D01*
X12919286Y-19771857D01*
X12928809Y-19733762D01*
X12928809Y-19657571D01*
X12919286Y-19638524D01*
X12909762Y-19629000D01*
X12890714Y-19619476D01*
X12852619Y-19619476D01*
X12833571Y-19629000D01*
X12824048Y-19638524D01*
X12814524Y-19657571D01*
X12814524Y-19705190D01*
X12824048Y-19724238D01*
X12833571Y-19733762D01*
X12852619Y-19743286D01*
X12890714Y-19743286D01*
X12909762Y-19733762D01*
X12919286Y-19724238D01*
X12928809Y-19705190D01*
X13024048Y-19819476D02*
X13062143Y-19819476D01*
X13081190Y-19809952D01*
X13090714Y-19800429D01*
X13109762Y-19771857D01*
X13119286Y-19733762D01*
X13119286Y-19657571D01*
X13109762Y-19638524D01*
X13100238Y-19629000D01*
X13081190Y-19619476D01*
X13043095Y-19619476D01*
X13024048Y-19629000D01*
X13014524Y-19638524D01*
X13005000Y-19657571D01*
X13005000Y-19705190D01*
X13014524Y-19724238D01*
X13024048Y-19733762D01*
X13043095Y-19743286D01*
X13081190Y-19743286D01*
X13100238Y-19733762D01*
X13109762Y-19724238D01*
X13119286Y-19705190D01*
X13195476Y-19619476D02*
X13195476Y-19657571D01*
X13271667Y-19619476D02*
X13271667Y-19657571D01*
X13566905Y-19895667D02*
X13557381Y-19886143D01*
X13538333Y-19857571D01*
X13528809Y-19838524D01*
X13519286Y-19809952D01*
X13509762Y-19762333D01*
X13509762Y-19724238D01*
X13519286Y-19676619D01*
X13528809Y-19648048D01*
X13538333Y-19629000D01*
X13557381Y-19600429D01*
X13566905Y-19590905D01*
X13728809Y-19686143D02*
X13728809Y-19819476D01*
X13681190Y-19609952D02*
X13633571Y-19752810D01*
X13757381Y-19752810D01*
X13985952Y-19819476D02*
X13985952Y-19619476D01*
X14071667Y-19819476D02*
X14071667Y-19714714D01*
X14062143Y-19695667D01*
X14043095Y-19686143D01*
X14014524Y-19686143D01*
X13995476Y-19695667D01*
X13985952Y-19705190D01*
X14195476Y-19819476D02*
X14176428Y-19809952D01*
X14166905Y-19800429D01*
X14157381Y-19781381D01*
X14157381Y-19724238D01*
X14166905Y-19705190D01*
X14176428Y-19695667D01*
X14195476Y-19686143D01*
X14224048Y-19686143D01*
X14243095Y-19695667D01*
X14252619Y-19705190D01*
X14262143Y-19724238D01*
X14262143Y-19781381D01*
X14252619Y-19800429D01*
X14243095Y-19809952D01*
X14224048Y-19819476D01*
X14195476Y-19819476D01*
X14376428Y-19819476D02*
X14357381Y-19809952D01*
X14347857Y-19790905D01*
X14347857Y-19619476D01*
X14528809Y-19809952D02*
X14509762Y-19819476D01*
X14471667Y-19819476D01*
X14452619Y-19809952D01*
X14443095Y-19790905D01*
X14443095Y-19714714D01*
X14452619Y-19695667D01*
X14471667Y-19686143D01*
X14509762Y-19686143D01*
X14528809Y-19695667D01*
X14538333Y-19714714D01*
X14538333Y-19733762D01*
X14443095Y-19752810D01*
X14614524Y-19809952D02*
X14633571Y-19819476D01*
X14671667Y-19819476D01*
X14690714Y-19809952D01*
X14700238Y-19790905D01*
X14700238Y-19781381D01*
X14690714Y-19762333D01*
X14671667Y-19752810D01*
X14643095Y-19752810D01*
X14624048Y-19743286D01*
X14614524Y-19724238D01*
X14614524Y-19714714D01*
X14624048Y-19695667D01*
X14643095Y-19686143D01*
X14671667Y-19686143D01*
X14690714Y-19695667D01*
X14766905Y-19895667D02*
X14776428Y-19886143D01*
X14795476Y-19857571D01*
X14805000Y-19838524D01*
X14814524Y-19809952D01*
X14824048Y-19762333D01*
X14824048Y-19724238D01*
X14814524Y-19676619D01*
X14805000Y-19648048D01*
X14795476Y-19629000D01*
X14776428Y-19600429D01*
X14766905Y-19590905D01*
X15128809Y-19895667D02*
X15119286Y-19886143D01*
X15100238Y-19857571D01*
X15090714Y-19838524D01*
X15081190Y-19809952D01*
X15071667Y-19762333D01*
X15071667Y-19724238D01*
X15081190Y-19676619D01*
X15090714Y-19648048D01*
X15100238Y-19629000D01*
X15119286Y-19600429D01*
X15128809Y-19590905D01*
X15205000Y-19686143D02*
X15205000Y-19819476D01*
X15205000Y-19705190D02*
X15214524Y-19695667D01*
X15233571Y-19686143D01*
X15262143Y-19686143D01*
X15281190Y-19695667D01*
X15290714Y-19714714D01*
X15290714Y-19819476D01*
X15414524Y-19819476D02*
X15395476Y-19809952D01*
X15385952Y-19800429D01*
X15376428Y-19781381D01*
X15376428Y-19724238D01*
X15385952Y-19705190D01*
X15395476Y-19695667D01*
X15414524Y-19686143D01*
X15443095Y-19686143D01*
X15462143Y-19695667D01*
X15471667Y-19705190D01*
X15481190Y-19724238D01*
X15481190Y-19781381D01*
X15471667Y-19800429D01*
X15462143Y-19809952D01*
X15443095Y-19819476D01*
X15414524Y-19819476D01*
X15538333Y-19686143D02*
X15614524Y-19686143D01*
X15566905Y-19619476D02*
X15566905Y-19790905D01*
X15576428Y-19809952D01*
X15595476Y-19819476D01*
X15614524Y-19819476D01*
X15833571Y-19686143D02*
X15833571Y-19886143D01*
X15833571Y-19695667D02*
X15852619Y-19686143D01*
X15890714Y-19686143D01*
X15909762Y-19695667D01*
X15919286Y-19705190D01*
X15928809Y-19724238D01*
X15928809Y-19781381D01*
X15919286Y-19800429D01*
X15909762Y-19809952D01*
X15890714Y-19819476D01*
X15852619Y-19819476D01*
X15833571Y-19809952D01*
X16043095Y-19819476D02*
X16024048Y-19809952D01*
X16014524Y-19790905D01*
X16014524Y-19619476D01*
X16205000Y-19819476D02*
X16205000Y-19714714D01*
X16195476Y-19695667D01*
X16176428Y-19686143D01*
X16138333Y-19686143D01*
X16119286Y-19695667D01*
X16205000Y-19809952D02*
X16185952Y-19819476D01*
X16138333Y-19819476D01*
X16119286Y-19809952D01*
X16109762Y-19790905D01*
X16109762Y-19771857D01*
X16119286Y-19752810D01*
X16138333Y-19743286D01*
X16185952Y-19743286D01*
X16205000Y-19733762D01*
X16271667Y-19686143D02*
X16347857Y-19686143D01*
X16300238Y-19619476D02*
X16300238Y-19790905D01*
X16309762Y-19809952D01*
X16328809Y-19819476D01*
X16347857Y-19819476D01*
X16490714Y-19809952D02*
X16471667Y-19819476D01*
X16433571Y-19819476D01*
X16414524Y-19809952D01*
X16405000Y-19790905D01*
X16405000Y-19714714D01*
X16414524Y-19695667D01*
X16433571Y-19686143D01*
X16471667Y-19686143D01*
X16490714Y-19695667D01*
X16500238Y-19714714D01*
X16500238Y-19733762D01*
X16405000Y-19752810D01*
X16671667Y-19819476D02*
X16671667Y-19619476D01*
X16671667Y-19809952D02*
X16652619Y-19819476D01*
X16614524Y-19819476D01*
X16595476Y-19809952D01*
X16585952Y-19800429D01*
X16576428Y-19781381D01*
X16576428Y-19724238D01*
X16585952Y-19705190D01*
X16595476Y-19695667D01*
X16614524Y-19686143D01*
X16652619Y-19686143D01*
X16671667Y-19695667D01*
X16747857Y-19895667D02*
X16757381Y-19886143D01*
X16776428Y-19857571D01*
X16785952Y-19838524D01*
X16795476Y-19809952D01*
X16805000Y-19762333D01*
X16805000Y-19724238D01*
X16795476Y-19676619D01*
X16785952Y-19648048D01*
X16776428Y-19629000D01*
X16757381Y-19600429D01*
X16747857Y-19590905D01*
M02*
