%TF.GenerationSoftware,KiCad,Pcbnew,(6.0.2)*%
%TF.CreationDate,2022-08-02T15:31:11+02:00*%
%TF.ProjectId,hv_discharge_v2c,68765f64-6973-4636-9861-7267655f7632,rev?*%
%TF.SameCoordinates,Original*%
%TF.FileFunction,Copper,L2,Bot*%
%TF.FilePolarity,Positive*%
%FSLAX46Y46*%
G04 Gerber Fmt 4.6, Leading zero omitted, Abs format (unit mm)*
G04 Created by KiCad (PCBNEW (6.0.2)) date 2022-08-02 15:31:11*
%MOMM*%
%LPD*%
G01*
G04 APERTURE LIST*
G04 Aperture macros list*
%AMRoundRect*
0 Rectangle with rounded corners*
0 $1 Rounding radius*
0 $2 $3 $4 $5 $6 $7 $8 $9 X,Y pos of 4 corners*
0 Add a 4 corners polygon primitive as box body*
4,1,4,$2,$3,$4,$5,$6,$7,$8,$9,$2,$3,0*
0 Add four circle primitives for the rounded corners*
1,1,$1+$1,$2,$3*
1,1,$1+$1,$4,$5*
1,1,$1+$1,$6,$7*
1,1,$1+$1,$8,$9*
0 Add four rect primitives between the rounded corners*
20,1,$1+$1,$2,$3,$4,$5,0*
20,1,$1+$1,$4,$5,$6,$7,0*
20,1,$1+$1,$6,$7,$8,$9,0*
20,1,$1+$1,$8,$9,$2,$3,0*%
G04 Aperture macros list end*
%TA.AperFunction,ComponentPad*%
%ADD10C,2.500000*%
%TD*%
%TA.AperFunction,ComponentPad*%
%ADD11R,2.200000X2.200000*%
%TD*%
%TA.AperFunction,ComponentPad*%
%ADD12O,2.200000X2.200000*%
%TD*%
%TA.AperFunction,ComponentPad*%
%ADD13R,1.800000X1.800000*%
%TD*%
%TA.AperFunction,ComponentPad*%
%ADD14C,1.800000*%
%TD*%
%TA.AperFunction,ComponentPad*%
%ADD15R,2.500000X4.500000*%
%TD*%
%TA.AperFunction,ComponentPad*%
%ADD16O,2.500000X4.500000*%
%TD*%
%TA.AperFunction,ComponentPad*%
%ADD17O,3.000000X3.000000*%
%TD*%
%TA.AperFunction,ComponentPad*%
%ADD18C,1.440000*%
%TD*%
%TA.AperFunction,SMDPad,CuDef*%
%ADD19RoundRect,0.250000X-0.450000X0.350000X-0.450000X-0.350000X0.450000X-0.350000X0.450000X0.350000X0*%
%TD*%
%TA.AperFunction,SMDPad,CuDef*%
%ADD20RoundRect,0.250000X0.450000X-0.350000X0.450000X0.350000X-0.450000X0.350000X-0.450000X-0.350000X0*%
%TD*%
%TA.AperFunction,SMDPad,CuDef*%
%ADD21R,1.300000X1.700000*%
%TD*%
%TA.AperFunction,SMDPad,CuDef*%
%ADD22RoundRect,0.250000X0.350000X0.450000X-0.350000X0.450000X-0.350000X-0.450000X0.350000X-0.450000X0*%
%TD*%
%TA.AperFunction,SMDPad,CuDef*%
%ADD23R,1.700000X1.300000*%
%TD*%
%TA.AperFunction,SMDPad,CuDef*%
%ADD24RoundRect,0.250000X-0.475000X0.337500X-0.475000X-0.337500X0.475000X-0.337500X0.475000X0.337500X0*%
%TD*%
%TA.AperFunction,SMDPad,CuDef*%
%ADD25RoundRect,0.150000X0.587500X0.150000X-0.587500X0.150000X-0.587500X-0.150000X0.587500X-0.150000X0*%
%TD*%
%TA.AperFunction,SMDPad,CuDef*%
%ADD26R,0.558800X1.320800*%
%TD*%
%TA.AperFunction,SMDPad,CuDef*%
%ADD27RoundRect,0.250000X-0.350000X-0.450000X0.350000X-0.450000X0.350000X0.450000X-0.350000X0.450000X0*%
%TD*%
%TA.AperFunction,SMDPad,CuDef*%
%ADD28RoundRect,0.250000X-0.450000X0.325000X-0.450000X-0.325000X0.450000X-0.325000X0.450000X0.325000X0*%
%TD*%
%TA.AperFunction,SMDPad,CuDef*%
%ADD29RoundRect,0.150000X-0.150000X0.587500X-0.150000X-0.587500X0.150000X-0.587500X0.150000X0.587500X0*%
%TD*%
%TA.AperFunction,ViaPad*%
%ADD30C,1.500000*%
%TD*%
%TA.AperFunction,ViaPad*%
%ADD31C,0.800000*%
%TD*%
%TA.AperFunction,Conductor*%
%ADD32C,2.500000*%
%TD*%
%TA.AperFunction,Conductor*%
%ADD33C,0.500000*%
%TD*%
%TA.AperFunction,Conductor*%
%ADD34C,1.000000*%
%TD*%
%TA.AperFunction,Conductor*%
%ADD35C,1.200000*%
%TD*%
%TA.AperFunction,Conductor*%
%ADD36C,2.000000*%
%TD*%
%TA.AperFunction,Conductor*%
%ADD37C,1.500000*%
%TD*%
G04 APERTURE END LIST*
D10*
%TO.P,J3,1,Pin_1*%
%TO.N,/Sup+*%
X105000000Y-105000000D03*
%TD*%
%TO.P,J6,1,Pin_1*%
%TO.N,/Sup-*%
X104000000Y-152500000D03*
%TD*%
D11*
%TO.P,D4,1,K*%
%TO.N,Net-(D4-Pad1)*%
X143000000Y-147580000D03*
D12*
%TO.P,D4,2,A*%
%TO.N,/Sup+*%
X143000000Y-137420000D03*
%TD*%
D10*
%TO.P,J1,1,Pin_1*%
%TO.N,/Sup_mid*%
X105000000Y-123000000D03*
%TD*%
D11*
%TO.P,D2,1,K*%
%TO.N,/Sup_mid*%
X105000000Y-130920000D03*
D12*
%TO.P,D2,2,A*%
%TO.N,/Sup-*%
X105000000Y-141080000D03*
%TD*%
D13*
%TO.P,D12,1,K*%
%TO.N,/Sup-*%
X115475000Y-171750000D03*
D14*
%TO.P,D12,2,A*%
%TO.N,Net-(D11-Pad2)*%
X118015000Y-171750000D03*
%TD*%
D10*
%TO.P,J12,1,Pin_1*%
%TO.N,/OUT+*%
X142735000Y-181700000D03*
%TD*%
D15*
%TO.P,Q2,1,G*%
%TO.N,/Gate_SiC*%
X115450000Y-160180000D03*
D16*
%TO.P,Q2,2,D*%
%TO.N,/SiC_drain*%
X110000000Y-160180000D03*
%TO.P,Q2,3,S*%
%TO.N,/Sup-*%
X104550000Y-160180000D03*
%TD*%
D17*
%TO.P,R14,2*%
%TO.N,/SiC_drain*%
X115000000Y-151500000D03*
%TD*%
D10*
%TO.P,J2,1,Pin_1*%
%TO.N,/Sup_mid*%
X105000000Y-127000000D03*
%TD*%
%TO.P,J5,1,Pin_1*%
%TO.N,/OUT+*%
X131000000Y-147000000D03*
%TD*%
%TO.P,J11,1,Pin_1*%
%TO.N,/Sup-*%
X106500000Y-181200000D03*
%TD*%
D11*
%TO.P,D6,1,K*%
%TO.N,/OUT+*%
X132750000Y-151500000D03*
D12*
%TO.P,D6,2,A*%
%TO.N,Net-(D4-Pad1)*%
X142910000Y-151500000D03*
%TD*%
D10*
%TO.P,J7,1,Pin_1*%
%TO.N,/Sup-*%
X110000000Y-181200000D03*
%TD*%
D11*
%TO.P,D1,1,K*%
%TO.N,/Sup+*%
X105000000Y-108920000D03*
D12*
%TO.P,D1,2,A*%
%TO.N,/Sup_mid*%
X105000000Y-119080000D03*
%TD*%
D10*
%TO.P,J4,1,Pin_1*%
%TO.N,/Sup-*%
X105000000Y-145000000D03*
%TD*%
%TO.P,J8,1,Pin_1*%
%TO.N,/M*%
X118500000Y-181700000D03*
%TD*%
D18*
%TO.P,RV1,1,1*%
%TO.N,Net-(R19-Pad2)*%
X126775000Y-181625000D03*
%TO.P,RV1,2,2*%
%TO.N,/M*%
X124235000Y-181625000D03*
%TO.P,RV1,3,3*%
X121695000Y-181625000D03*
%TD*%
D10*
%TO.P,J9,1,Pin_1*%
%TO.N,/OUT+*%
X142500000Y-171000000D03*
%TD*%
%TO.P,J10,1,Pin_1*%
%TO.N,/Sup-*%
X111500000Y-171750000D03*
%TD*%
D19*
%TO.P,R27,1*%
%TO.N,/Sup-*%
X118250000Y-167000000D03*
%TO.P,R27,2*%
%TO.N,/IN+*%
X118250000Y-169000000D03*
%TD*%
D20*
%TO.P,R24,1*%
%TO.N,Net-(R23-Pad2)*%
X132500000Y-173000000D03*
%TO.P,R24,2*%
%TO.N,Net-(R24-Pad2)*%
X132500000Y-171000000D03*
%TD*%
D21*
%TO.P,D8,1,K*%
%TO.N,/M*%
X115750000Y-183200000D03*
%TO.P,D8,2,A*%
%TO.N,/Sup-*%
X112250000Y-183200000D03*
%TD*%
D20*
%TO.P,R26,1*%
%TO.N,/IN+*%
X120500000Y-169000000D03*
%TO.P,R26,2*%
%TO.N,/Vdd*%
X120500000Y-167000000D03*
%TD*%
D22*
%TO.P,R17,1*%
%TO.N,Net-(R16-Pad2)*%
X136000000Y-180750000D03*
%TO.P,R17,2*%
%TO.N,Net-(R17-Pad2)*%
X134000000Y-180750000D03*
%TD*%
D23*
%TO.P,D3,1,K*%
%TO.N,/Gate_pre*%
X130806250Y-157700000D03*
%TO.P,D3,2,A*%
%TO.N,/Sup-*%
X130806250Y-161200000D03*
%TD*%
D19*
%TO.P,R23,1*%
%TO.N,Net-(R22-Pad2)*%
X134750000Y-171000000D03*
%TO.P,R23,2*%
%TO.N,Net-(R23-Pad2)*%
X134750000Y-173000000D03*
%TD*%
D20*
%TO.P,R4,1*%
%TO.N,Net-(R4-Pad1)*%
X138500000Y-150500000D03*
%TO.P,R4,2*%
%TO.N,Net-(R3-Pad1)*%
X138500000Y-148500000D03*
%TD*%
D24*
%TO.P,C2,1*%
%TO.N,/Vdd*%
X128500000Y-167800000D03*
%TO.P,C2,2*%
%TO.N,/Sup-*%
X128500000Y-169875000D03*
%TD*%
D23*
%TO.P,D5,1,K*%
%TO.N,/Gate_SiC*%
X119743750Y-158150000D03*
%TO.P,D5,2,A*%
%TO.N,/Sup-*%
X119743750Y-161650000D03*
%TD*%
D20*
%TO.P,R5,1*%
%TO.N,Net-(R5-Pad1)*%
X138500000Y-154500000D03*
%TO.P,R5,2*%
%TO.N,Net-(R4-Pad1)*%
X138500000Y-152500000D03*
%TD*%
D25*
%TO.P,Q1,1,G*%
%TO.N,/Gate_pre*%
X126243750Y-159000000D03*
%TO.P,Q1,2,S*%
%TO.N,/Sup-*%
X126243750Y-160900000D03*
%TO.P,Q1,3,D*%
%TO.N,/Gate_SiC*%
X124368750Y-159950000D03*
%TD*%
D21*
%TO.P,D7,1,K*%
%TO.N,/Sup-*%
X112250000Y-179700000D03*
%TO.P,D7,2,A*%
%TO.N,/M*%
X115750000Y-179700000D03*
%TD*%
D20*
%TO.P,R1,1*%
%TO.N,/Sup-*%
X128306250Y-160950000D03*
%TO.P,R1,2*%
%TO.N,/Gate_pre*%
X128306250Y-158950000D03*
%TD*%
D22*
%TO.P,R22,1*%
%TO.N,Net-(R21-Pad2)*%
X136750000Y-169000000D03*
%TO.P,R22,2*%
%TO.N,Net-(R22-Pad2)*%
X134750000Y-169000000D03*
%TD*%
D26*
%TO.P,U1,1,OUT*%
%TO.N,/OUT*%
X124450001Y-170545400D03*
%TO.P,U1,2,VSS*%
%TO.N,/Sup-*%
X123500000Y-170545400D03*
%TO.P,U1,3,IN+*%
%TO.N,/IN+*%
X122549999Y-170545400D03*
%TO.P,U1,4,IN-*%
%TO.N,/Vref*%
X122549999Y-167954600D03*
%TO.P,U1,5,VREF*%
X123500000Y-167954600D03*
%TO.P,U1,6,VDD*%
%TO.N,/Vdd*%
X124450001Y-167954600D03*
%TD*%
D17*
%TO.P,R13,2*%
%TO.N,/OUT+*%
X129000000Y-151500000D03*
%TD*%
D27*
%TO.P,R6,1*%
%TO.N,/Gate_pre*%
X136500000Y-157500000D03*
%TO.P,R6,2*%
%TO.N,Net-(R5-Pad1)*%
X138500000Y-157500000D03*
%TD*%
D22*
%TO.P,R15,1*%
%TO.N,/OUT+*%
X140000000Y-180750000D03*
%TO.P,R15,2*%
%TO.N,Net-(R15-Pad2)*%
X138000000Y-180750000D03*
%TD*%
D20*
%TO.P,R10,1*%
%TO.N,Net-(R10-Pad1)*%
X122306250Y-152950000D03*
%TO.P,R10,2*%
%TO.N,Net-(R10-Pad2)*%
X122306250Y-150950000D03*
%TD*%
D24*
%TO.P,C1,1*%
%TO.N,/Vdd*%
X126500000Y-167800000D03*
%TO.P,C1,2*%
%TO.N,/Sup-*%
X126500000Y-169875000D03*
%TD*%
D20*
%TO.P,R12,1*%
%TO.N,/Sup-*%
X122243750Y-161400000D03*
%TO.P,R12,2*%
%TO.N,/Gate_SiC*%
X122243750Y-159400000D03*
%TD*%
D22*
%TO.P,R29,1*%
%TO.N,/OUT*%
X120500000Y-174750000D03*
%TO.P,R29,2*%
%TO.N,Net-(D11-Pad2)*%
X118500000Y-174750000D03*
%TD*%
D19*
%TO.P,R20,1*%
%TO.N,/OUT+*%
X139250000Y-171000000D03*
%TO.P,R20,2*%
%TO.N,Net-(R20-Pad2)*%
X139250000Y-173000000D03*
%TD*%
D22*
%TO.P,R16,1*%
%TO.N,Net-(R15-Pad2)*%
X138000000Y-182750000D03*
%TO.P,R16,2*%
%TO.N,Net-(R16-Pad2)*%
X136000000Y-182750000D03*
%TD*%
D27*
%TO.P,R8,1*%
%TO.N,Net-(R8-Pad1)*%
X122306250Y-144950000D03*
%TO.P,R8,2*%
%TO.N,Net-(R7-Pad1)*%
X124306250Y-144950000D03*
%TD*%
D22*
%TO.P,R19,1*%
%TO.N,Net-(R18-Pad2)*%
X132000000Y-180750000D03*
%TO.P,R19,2*%
%TO.N,Net-(R19-Pad2)*%
X130000000Y-180750000D03*
%TD*%
D21*
%TO.P,D9,1,K*%
%TO.N,/Vdd*%
X130250000Y-172125000D03*
%TO.P,D9,2,A*%
%TO.N,/Sup-*%
X126750000Y-172125000D03*
%TD*%
D28*
%TO.P,D11,1,K*%
%TO.N,/Sup-*%
X116250000Y-166975000D03*
%TO.P,D11,2,A*%
%TO.N,Net-(D11-Pad2)*%
X116250000Y-169025000D03*
%TD*%
D22*
%TO.P,R18,1*%
%TO.N,Net-(R17-Pad2)*%
X134000000Y-182750000D03*
%TO.P,R18,2*%
%TO.N,Net-(R18-Pad2)*%
X132000000Y-182750000D03*
%TD*%
D27*
%TO.P,R7,1*%
%TO.N,Net-(R7-Pad1)*%
X126306250Y-144950000D03*
%TO.P,R7,2*%
%TO.N,/OUT+*%
X128306250Y-144950000D03*
%TD*%
D20*
%TO.P,R21,1*%
%TO.N,Net-(R20-Pad2)*%
X137000000Y-173000000D03*
%TO.P,R21,2*%
%TO.N,Net-(R21-Pad2)*%
X137000000Y-171000000D03*
%TD*%
D22*
%TO.P,R25,1*%
%TO.N,Net-(R24-Pad2)*%
X132500000Y-168950000D03*
%TO.P,R25,2*%
%TO.N,/Vdd*%
X130500000Y-168950000D03*
%TD*%
D20*
%TO.P,R28,1*%
%TO.N,Net-(R28-Pad1)*%
X120500000Y-172750000D03*
%TO.P,R28,2*%
%TO.N,/IN+*%
X120500000Y-170750000D03*
%TD*%
%TO.P,R2,1*%
%TO.N,Net-(R2-Pad1)*%
X138500000Y-142500000D03*
%TO.P,R2,2*%
%TO.N,/Sup+*%
X138500000Y-140500000D03*
%TD*%
%TO.P,R11,1*%
%TO.N,/Gate_SiC*%
X122306250Y-156950000D03*
%TO.P,R11,2*%
%TO.N,Net-(R10-Pad1)*%
X122306250Y-154950000D03*
%TD*%
%TO.P,R9,1*%
%TO.N,Net-(R10-Pad2)*%
X122306250Y-148950000D03*
%TO.P,R9,2*%
%TO.N,Net-(R8-Pad1)*%
X122306250Y-146950000D03*
%TD*%
%TO.P,R3,1*%
%TO.N,Net-(R3-Pad1)*%
X138500000Y-146500000D03*
%TO.P,R3,2*%
%TO.N,Net-(R2-Pad1)*%
X138500000Y-144500000D03*
%TD*%
D29*
%TO.P,D10,1,A*%
%TO.N,Net-(R28-Pad1)*%
X123050000Y-172812500D03*
%TO.P,D10,2,NC*%
%TO.N,unconnected-(D10-Pad2)*%
X124950000Y-172812500D03*
%TO.P,D10,3,K*%
%TO.N,/OUT*%
X124000000Y-174687500D03*
%TD*%
D30*
%TO.N,/Sup-*%
X132750000Y-161250000D03*
D31*
X127000000Y-174000000D03*
%TD*%
D32*
%TO.N,Net-(D4-Pad1)*%
X143000000Y-147580000D02*
X143000000Y-151410000D01*
X143000000Y-151410000D02*
X142910000Y-151500000D01*
D33*
%TO.N,/Vdd*%
X124450001Y-166450001D02*
X124000000Y-166000000D01*
D34*
X130250000Y-170500000D02*
X130500000Y-170250000D01*
D33*
X124604601Y-167800000D02*
X124450001Y-167954600D01*
X124000000Y-166000000D02*
X121500000Y-166000000D01*
D34*
X130250000Y-172125000D02*
X130250000Y-170500000D01*
D33*
X121500000Y-166000000D02*
X120500000Y-167000000D01*
X124450001Y-167954600D02*
X124450001Y-166450001D01*
D35*
X129550000Y-167800000D02*
X126500000Y-167800000D01*
D34*
X130500000Y-168950000D02*
X130500000Y-170250000D01*
D35*
X130500000Y-168950000D02*
X130500000Y-168750000D01*
X130500000Y-168750000D02*
X129550000Y-167800000D01*
D33*
X126500000Y-167800000D02*
X124604601Y-167800000D01*
%TO.N,Net-(D11-Pad2)*%
X118015000Y-171265000D02*
X118015000Y-171750000D01*
D35*
X118500000Y-172235000D02*
X118015000Y-171750000D01*
D33*
X116250000Y-169500000D02*
X118015000Y-171265000D01*
X116250000Y-169025000D02*
X116250000Y-169500000D01*
D35*
X118500000Y-174750000D02*
X118500000Y-172235000D01*
%TO.N,/IN+*%
X118250000Y-169000000D02*
X120500000Y-169000000D01*
D33*
X122549999Y-170545400D02*
X120704600Y-170545400D01*
X120704600Y-170545400D02*
X120500000Y-170750000D01*
D35*
X120500000Y-169000000D02*
X120500000Y-170750000D01*
D33*
%TO.N,/Vref*%
X122549999Y-167954600D02*
X122549999Y-167200001D01*
X123250000Y-167000000D02*
X123500000Y-167250000D01*
X122549999Y-167200001D02*
X122750000Y-167000000D01*
X123500000Y-167250000D02*
X123500000Y-167954600D01*
X122750000Y-167000000D02*
X123250000Y-167000000D01*
D36*
%TO.N,/Sup+*%
X136170000Y-108920000D02*
X143000000Y-115750000D01*
X105000000Y-105000000D02*
X105000000Y-108920000D01*
D35*
X141580000Y-137420000D02*
X143000000Y-137420000D01*
X138500000Y-140500000D02*
X141580000Y-137420000D01*
D36*
X105000000Y-108920000D02*
X136170000Y-108920000D01*
X143000000Y-115750000D02*
X143000000Y-137420000D01*
%TO.N,/Sup_mid*%
X105000000Y-119080000D02*
X105000000Y-130920000D01*
D35*
%TO.N,/Sup-*%
X130856250Y-161250000D02*
X130806250Y-161200000D01*
X118250000Y-167000000D02*
X116275000Y-167000000D01*
X132750000Y-161250000D02*
X130856250Y-161250000D01*
X114275000Y-166975000D02*
X116250000Y-166975000D01*
X110000000Y-181200000D02*
X111950000Y-181200000D01*
D33*
X119743750Y-161656250D02*
X119150479Y-162249521D01*
D35*
X111500000Y-171750000D02*
X111500000Y-169750000D01*
D32*
X104000000Y-152500000D02*
X104000000Y-146000000D01*
D34*
X126750000Y-172125000D02*
X126750000Y-170125000D01*
D35*
X130606250Y-161400000D02*
X130806250Y-161200000D01*
X119743750Y-161650000D02*
X121993750Y-161650000D01*
D36*
X115475000Y-171750000D02*
X111500000Y-171750000D01*
D33*
X126750000Y-173750000D02*
X127000000Y-174000000D01*
D32*
X104000000Y-146000000D02*
X105000000Y-145000000D01*
D33*
X125875000Y-169250000D02*
X126500000Y-169875000D01*
X123750000Y-169250000D02*
X125875000Y-169250000D01*
D32*
X104550000Y-153050000D02*
X104000000Y-152500000D01*
D33*
X119150479Y-166099521D02*
X118250000Y-167000000D01*
D34*
X126750000Y-170125000D02*
X126500000Y-169875000D01*
D35*
X122243750Y-161400000D02*
X130606250Y-161400000D01*
X112250000Y-179700000D02*
X112250000Y-181500000D01*
D33*
X119150479Y-162249521D02*
X119150479Y-166099521D01*
X119743750Y-161650000D02*
X119743750Y-161656250D01*
D32*
X104550000Y-160180000D02*
X104550000Y-153050000D01*
D35*
X111950000Y-181200000D02*
X112250000Y-181500000D01*
D36*
X105000000Y-141080000D02*
X105000000Y-145000000D01*
D33*
X126750000Y-172125000D02*
X126750000Y-173750000D01*
X123500000Y-169500000D02*
X123750000Y-169250000D01*
D35*
X116275000Y-167000000D02*
X116250000Y-166975000D01*
X121993750Y-161650000D02*
X122243750Y-161400000D01*
X111500000Y-169750000D02*
X114275000Y-166975000D01*
D33*
X123500000Y-170545400D02*
X123500000Y-169500000D01*
D35*
X106500000Y-181200000D02*
X110000000Y-181200000D01*
X112250000Y-181500000D02*
X112250000Y-183200000D01*
X128500000Y-169875000D02*
X126500000Y-169875000D01*
%TO.N,/Gate_pre*%
X129556250Y-157700000D02*
X128306250Y-158950000D01*
D33*
X128256250Y-159000000D02*
X128306250Y-158950000D01*
D35*
X131006250Y-157500000D02*
X130806250Y-157700000D01*
D33*
X126243750Y-159000000D02*
X128256250Y-159000000D01*
D35*
X136500000Y-157500000D02*
X131006250Y-157500000D01*
X130806250Y-157700000D02*
X129556250Y-157700000D01*
D33*
%TO.N,/Gate_SiC*%
X122243750Y-159400000D02*
X123818750Y-159400000D01*
D35*
X122231250Y-158150000D02*
X122243750Y-158137500D01*
X122243750Y-157012500D02*
X122306250Y-156950000D01*
X117480000Y-158150000D02*
X115450000Y-160180000D01*
D33*
X123818750Y-159400000D02*
X124368750Y-159950000D01*
D35*
X119743750Y-158150000D02*
X122231250Y-158150000D01*
X122243750Y-159400000D02*
X122243750Y-158137500D01*
X122243750Y-158137500D02*
X122243750Y-157012500D01*
X119743750Y-158150000D02*
X117480000Y-158150000D01*
%TO.N,/OUT+*%
X140950000Y-181700000D02*
X140000000Y-180750000D01*
D32*
X131000000Y-147000000D02*
X131000000Y-151250000D01*
X131000000Y-151250000D02*
X131250000Y-151500000D01*
D35*
X142735000Y-181700000D02*
X140950000Y-181700000D01*
X128306250Y-144950000D02*
X128950000Y-144950000D01*
D32*
X131250000Y-151500000D02*
X132750000Y-151500000D01*
D35*
X142500000Y-171000000D02*
X139250000Y-171000000D01*
D32*
X129000000Y-151500000D02*
X131250000Y-151500000D01*
D35*
X128950000Y-144950000D02*
X131000000Y-147000000D01*
%TO.N,/M*%
X116200000Y-181700000D02*
X118500000Y-181700000D01*
X115750000Y-181250000D02*
X115750000Y-179700000D01*
X115750000Y-181250000D02*
X116200000Y-181700000D01*
D37*
X118500000Y-181700000D02*
X124160000Y-181700000D01*
D35*
X115750000Y-183200000D02*
X115750000Y-181250000D01*
D37*
X124160000Y-181700000D02*
X124235000Y-181625000D01*
D32*
%TO.N,/SiC_drain*%
X112750000Y-151500000D02*
X115000000Y-151500000D01*
X110000000Y-160180000D02*
X110000000Y-154250000D01*
X110000000Y-154250000D02*
X112750000Y-151500000D01*
D35*
%TO.N,Net-(R2-Pad1)*%
X138500000Y-144500000D02*
X138500000Y-142500000D01*
%TO.N,Net-(R3-Pad1)*%
X138500000Y-146500000D02*
X138500000Y-148500000D01*
%TO.N,Net-(R19-Pad2)*%
X126775000Y-181625000D02*
X129125000Y-181625000D01*
X129125000Y-181625000D02*
X130000000Y-180750000D01*
%TO.N,Net-(R4-Pad1)*%
X138500000Y-150500000D02*
X138500000Y-152500000D01*
%TO.N,Net-(R5-Pad1)*%
X138500000Y-154500000D02*
X138500000Y-157500000D01*
%TO.N,Net-(R7-Pad1)*%
X124306250Y-144950000D02*
X126306250Y-144950000D01*
%TO.N,Net-(R8-Pad1)*%
X122306250Y-146950000D02*
X122306250Y-144950000D01*
%TO.N,Net-(R10-Pad2)*%
X122306250Y-150950000D02*
X122306250Y-148950000D01*
%TO.N,Net-(R10-Pad1)*%
X122306250Y-154950000D02*
X122306250Y-152950000D01*
%TO.N,Net-(R15-Pad2)*%
X138000000Y-182750000D02*
X138000000Y-180750000D01*
%TO.N,Net-(R16-Pad2)*%
X136000000Y-182750000D02*
X136000000Y-180750000D01*
%TO.N,Net-(R17-Pad2)*%
X134000000Y-182750000D02*
X134000000Y-180750000D01*
%TO.N,Net-(R18-Pad2)*%
X132000000Y-182750000D02*
X132000000Y-180750000D01*
%TO.N,Net-(R20-Pad2)*%
X139250000Y-173000000D02*
X137000000Y-173000000D01*
%TO.N,Net-(R21-Pad2)*%
X137000000Y-171000000D02*
X137000000Y-169250000D01*
X137000000Y-169250000D02*
X136750000Y-169000000D01*
%TO.N,Net-(R22-Pad2)*%
X134750000Y-169000000D02*
X134750000Y-171000000D01*
%TO.N,Net-(R23-Pad2)*%
X134750000Y-173000000D02*
X132500000Y-173000000D01*
%TO.N,Net-(R24-Pad2)*%
X132500000Y-171000000D02*
X132500000Y-168950000D01*
D33*
%TO.N,Net-(R28-Pad1)*%
X122987500Y-172750000D02*
X123050000Y-172812500D01*
X120500000Y-172750000D02*
X122987500Y-172750000D01*
%TO.N,/OUT*%
X124000000Y-171750000D02*
X124000000Y-174687500D01*
X124450001Y-170545400D02*
X124450001Y-171299999D01*
X124450001Y-171299999D02*
X124000000Y-171750000D01*
X120500000Y-174750000D02*
X123937500Y-174750000D01*
X123937500Y-174750000D02*
X124000000Y-174687500D01*
%TD*%
M02*
