%TF.GenerationSoftware,KiCad,Pcbnew,(6.0.2)*%
%TF.CreationDate,2022-08-02T15:31:11+02:00*%
%TF.ProjectId,hv_discharge_v2c,68765f64-6973-4636-9861-7267655f7632,rev?*%
%TF.SameCoordinates,Original*%
%TF.FileFunction,Paste,Bot*%
%TF.FilePolarity,Positive*%
%FSLAX46Y46*%
G04 Gerber Fmt 4.6, Leading zero omitted, Abs format (unit mm)*
G04 Created by KiCad (PCBNEW (6.0.2)) date 2022-08-02 15:31:11*
%MOMM*%
%LPD*%
G01*
G04 APERTURE LIST*
G04 Aperture macros list*
%AMRoundRect*
0 Rectangle with rounded corners*
0 $1 Rounding radius*
0 $2 $3 $4 $5 $6 $7 $8 $9 X,Y pos of 4 corners*
0 Add a 4 corners polygon primitive as box body*
4,1,4,$2,$3,$4,$5,$6,$7,$8,$9,$2,$3,0*
0 Add four circle primitives for the rounded corners*
1,1,$1+$1,$2,$3*
1,1,$1+$1,$4,$5*
1,1,$1+$1,$6,$7*
1,1,$1+$1,$8,$9*
0 Add four rect primitives between the rounded corners*
20,1,$1+$1,$2,$3,$4,$5,0*
20,1,$1+$1,$4,$5,$6,$7,0*
20,1,$1+$1,$6,$7,$8,$9,0*
20,1,$1+$1,$8,$9,$2,$3,0*%
G04 Aperture macros list end*
%ADD10RoundRect,0.250000X-0.450000X0.350000X-0.450000X-0.350000X0.450000X-0.350000X0.450000X0.350000X0*%
%ADD11RoundRect,0.250000X0.450000X-0.350000X0.450000X0.350000X-0.450000X0.350000X-0.450000X-0.350000X0*%
%ADD12R,1.300000X1.700000*%
%ADD13RoundRect,0.250000X0.350000X0.450000X-0.350000X0.450000X-0.350000X-0.450000X0.350000X-0.450000X0*%
%ADD14R,1.700000X1.300000*%
%ADD15RoundRect,0.250000X-0.475000X0.337500X-0.475000X-0.337500X0.475000X-0.337500X0.475000X0.337500X0*%
%ADD16RoundRect,0.150000X0.587500X0.150000X-0.587500X0.150000X-0.587500X-0.150000X0.587500X-0.150000X0*%
%ADD17R,0.558800X1.320800*%
%ADD18RoundRect,0.250000X-0.350000X-0.450000X0.350000X-0.450000X0.350000X0.450000X-0.350000X0.450000X0*%
%ADD19RoundRect,0.250000X-0.450000X0.325000X-0.450000X-0.325000X0.450000X-0.325000X0.450000X0.325000X0*%
%ADD20RoundRect,0.150000X-0.150000X0.587500X-0.150000X-0.587500X0.150000X-0.587500X0.150000X0.587500X0*%
G04 APERTURE END LIST*
D10*
%TO.C,R27*%
X118250000Y-167000000D03*
X118250000Y-169000000D03*
%TD*%
D11*
%TO.C,R24*%
X132500000Y-173000000D03*
X132500000Y-171000000D03*
%TD*%
D12*
%TO.C,D8*%
X115750000Y-183200000D03*
X112250000Y-183200000D03*
%TD*%
D11*
%TO.C,R26*%
X120500000Y-169000000D03*
X120500000Y-167000000D03*
%TD*%
D13*
%TO.C,R17*%
X136000000Y-180750000D03*
X134000000Y-180750000D03*
%TD*%
D14*
%TO.C,D3*%
X130806250Y-157700000D03*
X130806250Y-161200000D03*
%TD*%
D10*
%TO.C,R23*%
X134750000Y-171000000D03*
X134750000Y-173000000D03*
%TD*%
D11*
%TO.C,R4*%
X138500000Y-150500000D03*
X138500000Y-148500000D03*
%TD*%
D15*
%TO.C,C2*%
X128500000Y-167800000D03*
X128500000Y-169875000D03*
%TD*%
D14*
%TO.C,D5*%
X119743750Y-158150000D03*
X119743750Y-161650000D03*
%TD*%
D11*
%TO.C,R5*%
X138500000Y-154500000D03*
X138500000Y-152500000D03*
%TD*%
D16*
%TO.C,Q1*%
X126243750Y-159000000D03*
X126243750Y-160900000D03*
X124368750Y-159950000D03*
%TD*%
D12*
%TO.C,D7*%
X112250000Y-179700000D03*
X115750000Y-179700000D03*
%TD*%
D11*
%TO.C,R1*%
X128306250Y-160950000D03*
X128306250Y-158950000D03*
%TD*%
D13*
%TO.C,R22*%
X136750000Y-169000000D03*
X134750000Y-169000000D03*
%TD*%
D17*
%TO.C,U1*%
X124450001Y-170545400D03*
X123500000Y-170545400D03*
X122549999Y-170545400D03*
X122549999Y-167954600D03*
X123500000Y-167954600D03*
X124450001Y-167954600D03*
%TD*%
D18*
%TO.C,R6*%
X136500000Y-157500000D03*
X138500000Y-157500000D03*
%TD*%
D13*
%TO.C,R15*%
X140000000Y-180750000D03*
X138000000Y-180750000D03*
%TD*%
D11*
%TO.C,R10*%
X122306250Y-152950000D03*
X122306250Y-150950000D03*
%TD*%
D15*
%TO.C,C1*%
X126500000Y-167800000D03*
X126500000Y-169875000D03*
%TD*%
D11*
%TO.C,R12*%
X122243750Y-161400000D03*
X122243750Y-159400000D03*
%TD*%
D13*
%TO.C,R29*%
X120500000Y-174750000D03*
X118500000Y-174750000D03*
%TD*%
D10*
%TO.C,R20*%
X139250000Y-171000000D03*
X139250000Y-173000000D03*
%TD*%
D13*
%TO.C,R16*%
X138000000Y-182750000D03*
X136000000Y-182750000D03*
%TD*%
D18*
%TO.C,R8*%
X122306250Y-144950000D03*
X124306250Y-144950000D03*
%TD*%
D13*
%TO.C,R19*%
X132000000Y-180750000D03*
X130000000Y-180750000D03*
%TD*%
D12*
%TO.C,D9*%
X130250000Y-172125000D03*
X126750000Y-172125000D03*
%TD*%
D19*
%TO.C,D11*%
X116250000Y-166975000D03*
X116250000Y-169025000D03*
%TD*%
D13*
%TO.C,R18*%
X134000000Y-182750000D03*
X132000000Y-182750000D03*
%TD*%
D18*
%TO.C,R7*%
X126306250Y-144950000D03*
X128306250Y-144950000D03*
%TD*%
D11*
%TO.C,R21*%
X137000000Y-173000000D03*
X137000000Y-171000000D03*
%TD*%
D13*
%TO.C,R25*%
X132500000Y-168950000D03*
X130500000Y-168950000D03*
%TD*%
D11*
%TO.C,R28*%
X120500000Y-172750000D03*
X120500000Y-170750000D03*
%TD*%
%TO.C,R2*%
X138500000Y-142500000D03*
X138500000Y-140500000D03*
%TD*%
%TO.C,R11*%
X122306250Y-156950000D03*
X122306250Y-154950000D03*
%TD*%
%TO.C,R9*%
X122306250Y-148950000D03*
X122306250Y-146950000D03*
%TD*%
%TO.C,R3*%
X138500000Y-146500000D03*
X138500000Y-144500000D03*
%TD*%
D20*
%TO.C,D10*%
X123050000Y-172812500D03*
X124950000Y-172812500D03*
X124000000Y-174687500D03*
%TD*%
M02*
