M48
; DRILL file {KiCad (6.0.2)} date Tue Aug  2 15:31:18 2022
; FORMAT={-:-/ absolute / metric / decimal}
; #@! TF.CreationDate,2022-08-02T15:31:18+02:00
; #@! TF.GenerationSoftware,Kicad,Pcbnew,(6.0.2)
; #@! TF.FileFunction,NonPlated,1,2,NPTH
FMAT,2
METRIC
; #@! TA.AperFunction,NonPlated,NPTH,ComponentDrill
T1C0.500
; #@! TA.AperFunction,NonPlated,NPTH,ComponentDrill
T2C3.200
; #@! TA.AperFunction,NonPlated,NPTH,ComponentDrill
T3C3.300
%
G90
G05
T1
X112.95Y-176.25
X112.95Y-177.75
X114.7Y-176.25
X114.7Y-177.75
X115.45Y-176.25
X115.45Y-177.75
X118.15Y-163.75
X118.15Y-165.25
X119.9Y-163.75
X119.9Y-165.25
X120.65Y-163.75
X120.65Y-165.25
X137.75Y-176.25
X137.75Y-177.75
X138.5Y-176.25
X138.5Y-177.75
X138.75Y-163.75
X138.75Y-165.25
X139.5Y-163.75
X139.5Y-165.25
X140.25Y-176.25
X140.25Y-177.75
X141.25Y-163.75
X141.25Y-165.25
T2
X110.1Y-104.6
X140.8Y-104.5
X141.3Y-159.9
T3
X112.1Y-118.35
X112.1Y-136.65
X131.9Y-118.35
X131.9Y-136.65
T0
M30
