%TF.GenerationSoftware,KiCad,Pcbnew,(6.0.2)*%
%TF.CreationDate,2022-08-02T15:31:11+02:00*%
%TF.ProjectId,hv_discharge_v2c,68765f64-6973-4636-9861-7267655f7632,rev?*%
%TF.SameCoordinates,Original*%
%TF.FileFunction,Copper,L1,Top*%
%TF.FilePolarity,Positive*%
%FSLAX46Y46*%
G04 Gerber Fmt 4.6, Leading zero omitted, Abs format (unit mm)*
G04 Created by KiCad (PCBNEW (6.0.2)) date 2022-08-02 15:31:11*
%MOMM*%
%LPD*%
G01*
G04 APERTURE LIST*
%TA.AperFunction,ComponentPad*%
%ADD10C,2.500000*%
%TD*%
%TA.AperFunction,ComponentPad*%
%ADD11R,2.200000X2.200000*%
%TD*%
%TA.AperFunction,ComponentPad*%
%ADD12O,2.200000X2.200000*%
%TD*%
%TA.AperFunction,ComponentPad*%
%ADD13R,1.800000X1.800000*%
%TD*%
%TA.AperFunction,ComponentPad*%
%ADD14C,1.800000*%
%TD*%
%TA.AperFunction,ComponentPad*%
%ADD15R,2.500000X4.500000*%
%TD*%
%TA.AperFunction,ComponentPad*%
%ADD16O,2.500000X4.500000*%
%TD*%
%TA.AperFunction,ComponentPad*%
%ADD17O,3.000000X3.000000*%
%TD*%
%TA.AperFunction,ComponentPad*%
%ADD18C,1.440000*%
%TD*%
%TA.AperFunction,ViaPad*%
%ADD19C,1.500000*%
%TD*%
%TA.AperFunction,ViaPad*%
%ADD20C,0.800000*%
%TD*%
%TA.AperFunction,Conductor*%
%ADD21C,1.200000*%
%TD*%
%TA.AperFunction,Conductor*%
%ADD22C,0.500000*%
%TD*%
G04 APERTURE END LIST*
D10*
%TO.P,J3,1,Pin_1*%
%TO.N,/Sup+*%
X105000000Y-105000000D03*
%TD*%
%TO.P,J6,1,Pin_1*%
%TO.N,/Sup-*%
X104000000Y-152500000D03*
%TD*%
D11*
%TO.P,D4,1,K*%
%TO.N,Net-(D4-Pad1)*%
X143000000Y-147580000D03*
D12*
%TO.P,D4,2,A*%
%TO.N,/Sup+*%
X143000000Y-137420000D03*
%TD*%
D10*
%TO.P,J1,1,Pin_1*%
%TO.N,/Sup_mid*%
X105000000Y-123000000D03*
%TD*%
D11*
%TO.P,D2,1,K*%
%TO.N,/Sup_mid*%
X105000000Y-130920000D03*
D12*
%TO.P,D2,2,A*%
%TO.N,/Sup-*%
X105000000Y-141080000D03*
%TD*%
D13*
%TO.P,D12,1,K*%
%TO.N,/Sup-*%
X115475000Y-171750000D03*
D14*
%TO.P,D12,2,A*%
%TO.N,Net-(D11-Pad2)*%
X118015000Y-171750000D03*
%TD*%
D10*
%TO.P,J12,1,Pin_1*%
%TO.N,/OUT+*%
X142735000Y-181700000D03*
%TD*%
D15*
%TO.P,Q2,1,G*%
%TO.N,/Gate_SiC*%
X115450000Y-160180000D03*
D16*
%TO.P,Q2,2,D*%
%TO.N,/SiC_drain*%
X110000000Y-160180000D03*
%TO.P,Q2,3,S*%
%TO.N,/Sup-*%
X104550000Y-160180000D03*
%TD*%
D17*
%TO.P,R14,2*%
%TO.N,/SiC_drain*%
X115000000Y-151500000D03*
%TD*%
D10*
%TO.P,J2,1,Pin_1*%
%TO.N,/Sup_mid*%
X105000000Y-127000000D03*
%TD*%
%TO.P,J5,1,Pin_1*%
%TO.N,/OUT+*%
X131000000Y-147000000D03*
%TD*%
%TO.P,J11,1,Pin_1*%
%TO.N,/Sup-*%
X106500000Y-181200000D03*
%TD*%
D11*
%TO.P,D6,1,K*%
%TO.N,/OUT+*%
X132750000Y-151500000D03*
D12*
%TO.P,D6,2,A*%
%TO.N,Net-(D4-Pad1)*%
X142910000Y-151500000D03*
%TD*%
D10*
%TO.P,J7,1,Pin_1*%
%TO.N,/Sup-*%
X110000000Y-181200000D03*
%TD*%
D11*
%TO.P,D1,1,K*%
%TO.N,/Sup+*%
X105000000Y-108920000D03*
D12*
%TO.P,D1,2,A*%
%TO.N,/Sup_mid*%
X105000000Y-119080000D03*
%TD*%
D10*
%TO.P,J4,1,Pin_1*%
%TO.N,/Sup-*%
X105000000Y-145000000D03*
%TD*%
%TO.P,J8,1,Pin_1*%
%TO.N,/M*%
X118500000Y-181700000D03*
%TD*%
D18*
%TO.P,RV1,1,1*%
%TO.N,Net-(R19-Pad2)*%
X126775000Y-181625000D03*
%TO.P,RV1,2,2*%
%TO.N,/M*%
X124235000Y-181625000D03*
%TO.P,RV1,3,3*%
X121695000Y-181625000D03*
%TD*%
D10*
%TO.P,J9,1,Pin_1*%
%TO.N,/OUT+*%
X142500000Y-171000000D03*
%TD*%
%TO.P,J10,1,Pin_1*%
%TO.N,/Sup-*%
X111500000Y-171750000D03*
%TD*%
D17*
%TO.P,R13,2*%
%TO.N,/OUT+*%
X129000000Y-151500000D03*
%TD*%
D19*
%TO.N,/Sup-*%
X132750000Y-161250000D03*
D20*
X127000000Y-174000000D03*
%TD*%
D21*
%TO.N,/Sup-*%
X118250000Y-145000000D02*
X122250000Y-149000000D01*
X122250000Y-149000000D02*
X122250000Y-157250000D01*
D22*
X117000000Y-174000000D02*
X127000000Y-174000000D01*
D21*
X126250000Y-161250000D02*
X132750000Y-161250000D01*
X122250000Y-157250000D02*
X126250000Y-161250000D01*
D22*
X115475000Y-172475000D02*
X117000000Y-174000000D01*
X113800000Y-179167766D02*
X113800000Y-173425000D01*
D21*
X105000000Y-145000000D02*
X118250000Y-145000000D01*
D22*
X113800000Y-173425000D02*
X115475000Y-171750000D01*
X111767766Y-181200000D02*
X113800000Y-179167766D01*
X110000000Y-181200000D02*
X111767766Y-181200000D01*
X115475000Y-171750000D02*
X115475000Y-172475000D01*
%TO.N,/OUT+*%
X140300000Y-159000000D02*
X140300000Y-168800000D01*
X139249521Y-174250479D02*
X142500000Y-171000000D01*
X132750000Y-151500000D02*
X132800000Y-151500000D01*
X139249521Y-178214521D02*
X139249521Y-174250479D01*
X140300000Y-168800000D02*
X142500000Y-171000000D01*
X132800000Y-151500000D02*
X140300000Y-159000000D01*
X142735000Y-181700000D02*
X139249521Y-178214521D01*
%TD*%
M02*
