%TF.GenerationSoftware,KiCad,Pcbnew,(7.0.0)*%
%TF.CreationDate,2024-01-15T14:21:01+01:00*%
%TF.ProjectId,LED_poi,4c45445f-706f-4692-9e6b-696361645f70,A*%
%TF.SameCoordinates,Original*%
%TF.FileFunction,Drillmap*%
%TF.FilePolarity,Positive*%
%FSLAX45Y45*%
G04 Gerber Fmt 4.5, Leading zero omitted, Abs format (unit mm)*
G04 Created by KiCad (PCBNEW (7.0.0)) date 2024-01-15 14:21:01*
%MOMM*%
%LPD*%
G01*
G04 APERTURE LIST*
%ADD10C,0.100000*%
%ADD11C,0.200000*%
%ADD12C,0.076200*%
%ADD13C,0.099060*%
G04 APERTURE END LIST*
D10*
X8200000Y-8000000D02*
X8200000Y-4800000D01*
X8400000Y-4600000D02*
G75*
G03*
X8200000Y-4800000I0J-200000D01*
G01*
X10200000Y-4800000D02*
G75*
G03*
X10000000Y-4600000I-200000J0D01*
G01*
X10000000Y-8200000D02*
X8400000Y-8200000D01*
X10000000Y-8200000D02*
G75*
G03*
X10200000Y-8000000I0J200000D01*
G01*
X10200000Y-4800000D02*
X10200000Y-8000000D01*
X8400000Y-4600000D02*
X10000000Y-4600000D01*
X8200000Y-8000000D02*
G75*
G03*
X8400000Y-8200000I200000J0D01*
G01*
D11*
D12*
X8551600Y-4721900D02*
X8627800Y-4798100D01*
X8627800Y-4721900D02*
X8551600Y-4798100D01*
X8781600Y-4721900D02*
X8857800Y-4798100D01*
X8857800Y-4721900D02*
X8781600Y-4798100D01*
D13*
X8541530Y-5118400D02*
G75*
G03*
X8541530Y-5118400I-49530J0D01*
G01*
X8541530Y-5321600D02*
G75*
G03*
X8541530Y-5321600I-49530J0D01*
G01*
X9049530Y-5220000D02*
G75*
G03*
X9049530Y-5220000I-49530J0D01*
G01*
D11*
X8442619Y-8498476D02*
X8442619Y-8298476D01*
X8442619Y-8298476D02*
X8490238Y-8298476D01*
X8490238Y-8298476D02*
X8518810Y-8308000D01*
X8518810Y-8308000D02*
X8537857Y-8327048D01*
X8537857Y-8327048D02*
X8547381Y-8346095D01*
X8547381Y-8346095D02*
X8556905Y-8384190D01*
X8556905Y-8384190D02*
X8556905Y-8412762D01*
X8556905Y-8412762D02*
X8547381Y-8450857D01*
X8547381Y-8450857D02*
X8537857Y-8469905D01*
X8537857Y-8469905D02*
X8518810Y-8488952D01*
X8518810Y-8488952D02*
X8490238Y-8498476D01*
X8490238Y-8498476D02*
X8442619Y-8498476D01*
X8642619Y-8498476D02*
X8642619Y-8365143D01*
X8642619Y-8403238D02*
X8652143Y-8384190D01*
X8652143Y-8384190D02*
X8661667Y-8374667D01*
X8661667Y-8374667D02*
X8680714Y-8365143D01*
X8680714Y-8365143D02*
X8699762Y-8365143D01*
X8766429Y-8498476D02*
X8766429Y-8365143D01*
X8766429Y-8298476D02*
X8756905Y-8308000D01*
X8756905Y-8308000D02*
X8766429Y-8317524D01*
X8766429Y-8317524D02*
X8775952Y-8308000D01*
X8775952Y-8308000D02*
X8766429Y-8298476D01*
X8766429Y-8298476D02*
X8766429Y-8317524D01*
X8890238Y-8498476D02*
X8871190Y-8488952D01*
X8871190Y-8488952D02*
X8861667Y-8469905D01*
X8861667Y-8469905D02*
X8861667Y-8298476D01*
X8995000Y-8498476D02*
X8975952Y-8488952D01*
X8975952Y-8488952D02*
X8966429Y-8469905D01*
X8966429Y-8469905D02*
X8966429Y-8298476D01*
X9191190Y-8498476D02*
X9191190Y-8298476D01*
X9191190Y-8298476D02*
X9257857Y-8441333D01*
X9257857Y-8441333D02*
X9324524Y-8298476D01*
X9324524Y-8298476D02*
X9324524Y-8498476D01*
X9505476Y-8498476D02*
X9505476Y-8393714D01*
X9505476Y-8393714D02*
X9495952Y-8374667D01*
X9495952Y-8374667D02*
X9476905Y-8365143D01*
X9476905Y-8365143D02*
X9438809Y-8365143D01*
X9438809Y-8365143D02*
X9419762Y-8374667D01*
X9505476Y-8488952D02*
X9486429Y-8498476D01*
X9486429Y-8498476D02*
X9438809Y-8498476D01*
X9438809Y-8498476D02*
X9419762Y-8488952D01*
X9419762Y-8488952D02*
X9410238Y-8469905D01*
X9410238Y-8469905D02*
X9410238Y-8450857D01*
X9410238Y-8450857D02*
X9419762Y-8431810D01*
X9419762Y-8431810D02*
X9438809Y-8422286D01*
X9438809Y-8422286D02*
X9486429Y-8422286D01*
X9486429Y-8422286D02*
X9505476Y-8412762D01*
X9600714Y-8365143D02*
X9600714Y-8565143D01*
X9600714Y-8374667D02*
X9619762Y-8365143D01*
X9619762Y-8365143D02*
X9657857Y-8365143D01*
X9657857Y-8365143D02*
X9676905Y-8374667D01*
X9676905Y-8374667D02*
X9686429Y-8384190D01*
X9686429Y-8384190D02*
X9695952Y-8403238D01*
X9695952Y-8403238D02*
X9695952Y-8460381D01*
X9695952Y-8460381D02*
X9686429Y-8479429D01*
X9686429Y-8479429D02*
X9676905Y-8488952D01*
X9676905Y-8488952D02*
X9657857Y-8498476D01*
X9657857Y-8498476D02*
X9619762Y-8498476D01*
X9619762Y-8498476D02*
X9600714Y-8488952D01*
X9781667Y-8479429D02*
X9791190Y-8488952D01*
X9791190Y-8488952D02*
X9781667Y-8498476D01*
X9781667Y-8498476D02*
X9772143Y-8488952D01*
X9772143Y-8488952D02*
X9781667Y-8479429D01*
X9781667Y-8479429D02*
X9781667Y-8498476D01*
X9781667Y-8374667D02*
X9791190Y-8384190D01*
X9791190Y-8384190D02*
X9781667Y-8393714D01*
X9781667Y-8393714D02*
X9772143Y-8384190D01*
X9772143Y-8384190D02*
X9781667Y-8374667D01*
X9781667Y-8374667D02*
X9781667Y-8393714D01*
D12*
X8118800Y-8806900D02*
X8195000Y-8883100D01*
X8195000Y-8806900D02*
X8118800Y-8883100D01*
D11*
X8480714Y-8718476D02*
X8499762Y-8718476D01*
X8499762Y-8718476D02*
X8518810Y-8728000D01*
X8518810Y-8728000D02*
X8528333Y-8737524D01*
X8528333Y-8737524D02*
X8537857Y-8756571D01*
X8537857Y-8756571D02*
X8547381Y-8794667D01*
X8547381Y-8794667D02*
X8547381Y-8842286D01*
X8547381Y-8842286D02*
X8537857Y-8880381D01*
X8537857Y-8880381D02*
X8528333Y-8899429D01*
X8528333Y-8899429D02*
X8518810Y-8908952D01*
X8518810Y-8908952D02*
X8499762Y-8918476D01*
X8499762Y-8918476D02*
X8480714Y-8918476D01*
X8480714Y-8918476D02*
X8461667Y-8908952D01*
X8461667Y-8908952D02*
X8452143Y-8899429D01*
X8452143Y-8899429D02*
X8442619Y-8880381D01*
X8442619Y-8880381D02*
X8433095Y-8842286D01*
X8433095Y-8842286D02*
X8433095Y-8794667D01*
X8433095Y-8794667D02*
X8442619Y-8756571D01*
X8442619Y-8756571D02*
X8452143Y-8737524D01*
X8452143Y-8737524D02*
X8461667Y-8728000D01*
X8461667Y-8728000D02*
X8480714Y-8718476D01*
X8633095Y-8899429D02*
X8642619Y-8908952D01*
X8642619Y-8908952D02*
X8633095Y-8918476D01*
X8633095Y-8918476D02*
X8623571Y-8908952D01*
X8623571Y-8908952D02*
X8633095Y-8899429D01*
X8633095Y-8899429D02*
X8633095Y-8918476D01*
X8709286Y-8718476D02*
X8842619Y-8718476D01*
X8842619Y-8718476D02*
X8756905Y-8918476D01*
X9004524Y-8718476D02*
X8966429Y-8718476D01*
X8966429Y-8718476D02*
X8947381Y-8728000D01*
X8947381Y-8728000D02*
X8937857Y-8737524D01*
X8937857Y-8737524D02*
X8918810Y-8766095D01*
X8918810Y-8766095D02*
X8909286Y-8804190D01*
X8909286Y-8804190D02*
X8909286Y-8880381D01*
X8909286Y-8880381D02*
X8918810Y-8899429D01*
X8918810Y-8899429D02*
X8928333Y-8908952D01*
X8928333Y-8908952D02*
X8947381Y-8918476D01*
X8947381Y-8918476D02*
X8985476Y-8918476D01*
X8985476Y-8918476D02*
X9004524Y-8908952D01*
X9004524Y-8908952D02*
X9014048Y-8899429D01*
X9014048Y-8899429D02*
X9023571Y-8880381D01*
X9023571Y-8880381D02*
X9023571Y-8832762D01*
X9023571Y-8832762D02*
X9014048Y-8813714D01*
X9014048Y-8813714D02*
X9004524Y-8804190D01*
X9004524Y-8804190D02*
X8985476Y-8794667D01*
X8985476Y-8794667D02*
X8947381Y-8794667D01*
X8947381Y-8794667D02*
X8928333Y-8804190D01*
X8928333Y-8804190D02*
X8918810Y-8813714D01*
X8918810Y-8813714D02*
X8909286Y-8832762D01*
X9099762Y-8737524D02*
X9109286Y-8728000D01*
X9109286Y-8728000D02*
X9128333Y-8718476D01*
X9128333Y-8718476D02*
X9175952Y-8718476D01*
X9175952Y-8718476D02*
X9195000Y-8728000D01*
X9195000Y-8728000D02*
X9204524Y-8737524D01*
X9204524Y-8737524D02*
X9214048Y-8756571D01*
X9214048Y-8756571D02*
X9214048Y-8775619D01*
X9214048Y-8775619D02*
X9204524Y-8804190D01*
X9204524Y-8804190D02*
X9090238Y-8918476D01*
X9090238Y-8918476D02*
X9214048Y-8918476D01*
X9299762Y-8918476D02*
X9299762Y-8785143D01*
X9299762Y-8804190D02*
X9309286Y-8794667D01*
X9309286Y-8794667D02*
X9328333Y-8785143D01*
X9328333Y-8785143D02*
X9356905Y-8785143D01*
X9356905Y-8785143D02*
X9375952Y-8794667D01*
X9375952Y-8794667D02*
X9385476Y-8813714D01*
X9385476Y-8813714D02*
X9385476Y-8918476D01*
X9385476Y-8813714D02*
X9395000Y-8794667D01*
X9395000Y-8794667D02*
X9414048Y-8785143D01*
X9414048Y-8785143D02*
X9442619Y-8785143D01*
X9442619Y-8785143D02*
X9461667Y-8794667D01*
X9461667Y-8794667D02*
X9471191Y-8813714D01*
X9471191Y-8813714D02*
X9471191Y-8918476D01*
X9566429Y-8918476D02*
X9566429Y-8785143D01*
X9566429Y-8804190D02*
X9575952Y-8794667D01*
X9575952Y-8794667D02*
X9595000Y-8785143D01*
X9595000Y-8785143D02*
X9623572Y-8785143D01*
X9623572Y-8785143D02*
X9642619Y-8794667D01*
X9642619Y-8794667D02*
X9652143Y-8813714D01*
X9652143Y-8813714D02*
X9652143Y-8918476D01*
X9652143Y-8813714D02*
X9661667Y-8794667D01*
X9661667Y-8794667D02*
X9680714Y-8785143D01*
X9680714Y-8785143D02*
X9709286Y-8785143D01*
X9709286Y-8785143D02*
X9728333Y-8794667D01*
X9728333Y-8794667D02*
X9737857Y-8813714D01*
X9737857Y-8813714D02*
X9737857Y-8918476D01*
X10095952Y-8708952D02*
X9924524Y-8966095D01*
X10320714Y-8718476D02*
X10339762Y-8718476D01*
X10339762Y-8718476D02*
X10358810Y-8728000D01*
X10358810Y-8728000D02*
X10368333Y-8737524D01*
X10368333Y-8737524D02*
X10377857Y-8756571D01*
X10377857Y-8756571D02*
X10387381Y-8794667D01*
X10387381Y-8794667D02*
X10387381Y-8842286D01*
X10387381Y-8842286D02*
X10377857Y-8880381D01*
X10377857Y-8880381D02*
X10368333Y-8899429D01*
X10368333Y-8899429D02*
X10358810Y-8908952D01*
X10358810Y-8908952D02*
X10339762Y-8918476D01*
X10339762Y-8918476D02*
X10320714Y-8918476D01*
X10320714Y-8918476D02*
X10301667Y-8908952D01*
X10301667Y-8908952D02*
X10292143Y-8899429D01*
X10292143Y-8899429D02*
X10282619Y-8880381D01*
X10282619Y-8880381D02*
X10273095Y-8842286D01*
X10273095Y-8842286D02*
X10273095Y-8794667D01*
X10273095Y-8794667D02*
X10282619Y-8756571D01*
X10282619Y-8756571D02*
X10292143Y-8737524D01*
X10292143Y-8737524D02*
X10301667Y-8728000D01*
X10301667Y-8728000D02*
X10320714Y-8718476D01*
X10473095Y-8899429D02*
X10482619Y-8908952D01*
X10482619Y-8908952D02*
X10473095Y-8918476D01*
X10473095Y-8918476D02*
X10463572Y-8908952D01*
X10463572Y-8908952D02*
X10473095Y-8899429D01*
X10473095Y-8899429D02*
X10473095Y-8918476D01*
X10606429Y-8718476D02*
X10625476Y-8718476D01*
X10625476Y-8718476D02*
X10644524Y-8728000D01*
X10644524Y-8728000D02*
X10654048Y-8737524D01*
X10654048Y-8737524D02*
X10663572Y-8756571D01*
X10663572Y-8756571D02*
X10673095Y-8794667D01*
X10673095Y-8794667D02*
X10673095Y-8842286D01*
X10673095Y-8842286D02*
X10663572Y-8880381D01*
X10663572Y-8880381D02*
X10654048Y-8899429D01*
X10654048Y-8899429D02*
X10644524Y-8908952D01*
X10644524Y-8908952D02*
X10625476Y-8918476D01*
X10625476Y-8918476D02*
X10606429Y-8918476D01*
X10606429Y-8918476D02*
X10587381Y-8908952D01*
X10587381Y-8908952D02*
X10577857Y-8899429D01*
X10577857Y-8899429D02*
X10568333Y-8880381D01*
X10568333Y-8880381D02*
X10558810Y-8842286D01*
X10558810Y-8842286D02*
X10558810Y-8794667D01*
X10558810Y-8794667D02*
X10568333Y-8756571D01*
X10568333Y-8756571D02*
X10577857Y-8737524D01*
X10577857Y-8737524D02*
X10587381Y-8728000D01*
X10587381Y-8728000D02*
X10606429Y-8718476D01*
X10739762Y-8718476D02*
X10863572Y-8718476D01*
X10863572Y-8718476D02*
X10796905Y-8794667D01*
X10796905Y-8794667D02*
X10825476Y-8794667D01*
X10825476Y-8794667D02*
X10844524Y-8804190D01*
X10844524Y-8804190D02*
X10854048Y-8813714D01*
X10854048Y-8813714D02*
X10863572Y-8832762D01*
X10863572Y-8832762D02*
X10863572Y-8880381D01*
X10863572Y-8880381D02*
X10854048Y-8899429D01*
X10854048Y-8899429D02*
X10844524Y-8908952D01*
X10844524Y-8908952D02*
X10825476Y-8918476D01*
X10825476Y-8918476D02*
X10768333Y-8918476D01*
X10768333Y-8918476D02*
X10749286Y-8908952D01*
X10749286Y-8908952D02*
X10739762Y-8899429D01*
X10987381Y-8718476D02*
X11006429Y-8718476D01*
X11006429Y-8718476D02*
X11025476Y-8728000D01*
X11025476Y-8728000D02*
X11035000Y-8737524D01*
X11035000Y-8737524D02*
X11044524Y-8756571D01*
X11044524Y-8756571D02*
X11054048Y-8794667D01*
X11054048Y-8794667D02*
X11054048Y-8842286D01*
X11054048Y-8842286D02*
X11044524Y-8880381D01*
X11044524Y-8880381D02*
X11035000Y-8899429D01*
X11035000Y-8899429D02*
X11025476Y-8908952D01*
X11025476Y-8908952D02*
X11006429Y-8918476D01*
X11006429Y-8918476D02*
X10987381Y-8918476D01*
X10987381Y-8918476D02*
X10968333Y-8908952D01*
X10968333Y-8908952D02*
X10958810Y-8899429D01*
X10958810Y-8899429D02*
X10949286Y-8880381D01*
X10949286Y-8880381D02*
X10939762Y-8842286D01*
X10939762Y-8842286D02*
X10939762Y-8794667D01*
X10939762Y-8794667D02*
X10949286Y-8756571D01*
X10949286Y-8756571D02*
X10958810Y-8737524D01*
X10958810Y-8737524D02*
X10968333Y-8728000D01*
X10968333Y-8728000D02*
X10987381Y-8718476D01*
X11177857Y-8718476D02*
X11196905Y-8718476D01*
X11196905Y-8718476D02*
X11215952Y-8728000D01*
X11215952Y-8728000D02*
X11225476Y-8737524D01*
X11225476Y-8737524D02*
X11235000Y-8756571D01*
X11235000Y-8756571D02*
X11244524Y-8794667D01*
X11244524Y-8794667D02*
X11244524Y-8842286D01*
X11244524Y-8842286D02*
X11235000Y-8880381D01*
X11235000Y-8880381D02*
X11225476Y-8899429D01*
X11225476Y-8899429D02*
X11215952Y-8908952D01*
X11215952Y-8908952D02*
X11196905Y-8918476D01*
X11196905Y-8918476D02*
X11177857Y-8918476D01*
X11177857Y-8918476D02*
X11158810Y-8908952D01*
X11158810Y-8908952D02*
X11149286Y-8899429D01*
X11149286Y-8899429D02*
X11139762Y-8880381D01*
X11139762Y-8880381D02*
X11130238Y-8842286D01*
X11130238Y-8842286D02*
X11130238Y-8794667D01*
X11130238Y-8794667D02*
X11139762Y-8756571D01*
X11139762Y-8756571D02*
X11149286Y-8737524D01*
X11149286Y-8737524D02*
X11158810Y-8728000D01*
X11158810Y-8728000D02*
X11177857Y-8718476D01*
X11320714Y-8718476D02*
X11320714Y-8756571D01*
X11396905Y-8718476D02*
X11396905Y-8756571D01*
X11659762Y-8994667D02*
X11650238Y-8985143D01*
X11650238Y-8985143D02*
X11631191Y-8956571D01*
X11631191Y-8956571D02*
X11621667Y-8937524D01*
X11621667Y-8937524D02*
X11612143Y-8908952D01*
X11612143Y-8908952D02*
X11602619Y-8861333D01*
X11602619Y-8861333D02*
X11602619Y-8823238D01*
X11602619Y-8823238D02*
X11612143Y-8775619D01*
X11612143Y-8775619D02*
X11621667Y-8747048D01*
X11621667Y-8747048D02*
X11631191Y-8728000D01*
X11631191Y-8728000D02*
X11650238Y-8699429D01*
X11650238Y-8699429D02*
X11659762Y-8689905D01*
X11726429Y-8737524D02*
X11735952Y-8728000D01*
X11735952Y-8728000D02*
X11755000Y-8718476D01*
X11755000Y-8718476D02*
X11802619Y-8718476D01*
X11802619Y-8718476D02*
X11821667Y-8728000D01*
X11821667Y-8728000D02*
X11831191Y-8737524D01*
X11831191Y-8737524D02*
X11840714Y-8756571D01*
X11840714Y-8756571D02*
X11840714Y-8775619D01*
X11840714Y-8775619D02*
X11831191Y-8804190D01*
X11831191Y-8804190D02*
X11716905Y-8918476D01*
X11716905Y-8918476D02*
X11840714Y-8918476D01*
X12046429Y-8918476D02*
X12046429Y-8718476D01*
X12132143Y-8918476D02*
X12132143Y-8813714D01*
X12132143Y-8813714D02*
X12122619Y-8794667D01*
X12122619Y-8794667D02*
X12103572Y-8785143D01*
X12103572Y-8785143D02*
X12075000Y-8785143D01*
X12075000Y-8785143D02*
X12055952Y-8794667D01*
X12055952Y-8794667D02*
X12046429Y-8804190D01*
X12255952Y-8918476D02*
X12236905Y-8908952D01*
X12236905Y-8908952D02*
X12227381Y-8899429D01*
X12227381Y-8899429D02*
X12217857Y-8880381D01*
X12217857Y-8880381D02*
X12217857Y-8823238D01*
X12217857Y-8823238D02*
X12227381Y-8804190D01*
X12227381Y-8804190D02*
X12236905Y-8794667D01*
X12236905Y-8794667D02*
X12255952Y-8785143D01*
X12255952Y-8785143D02*
X12284524Y-8785143D01*
X12284524Y-8785143D02*
X12303572Y-8794667D01*
X12303572Y-8794667D02*
X12313095Y-8804190D01*
X12313095Y-8804190D02*
X12322619Y-8823238D01*
X12322619Y-8823238D02*
X12322619Y-8880381D01*
X12322619Y-8880381D02*
X12313095Y-8899429D01*
X12313095Y-8899429D02*
X12303572Y-8908952D01*
X12303572Y-8908952D02*
X12284524Y-8918476D01*
X12284524Y-8918476D02*
X12255952Y-8918476D01*
X12436905Y-8918476D02*
X12417857Y-8908952D01*
X12417857Y-8908952D02*
X12408333Y-8889905D01*
X12408333Y-8889905D02*
X12408333Y-8718476D01*
X12589286Y-8908952D02*
X12570238Y-8918476D01*
X12570238Y-8918476D02*
X12532143Y-8918476D01*
X12532143Y-8918476D02*
X12513095Y-8908952D01*
X12513095Y-8908952D02*
X12503572Y-8889905D01*
X12503572Y-8889905D02*
X12503572Y-8813714D01*
X12503572Y-8813714D02*
X12513095Y-8794667D01*
X12513095Y-8794667D02*
X12532143Y-8785143D01*
X12532143Y-8785143D02*
X12570238Y-8785143D01*
X12570238Y-8785143D02*
X12589286Y-8794667D01*
X12589286Y-8794667D02*
X12598810Y-8813714D01*
X12598810Y-8813714D02*
X12598810Y-8832762D01*
X12598810Y-8832762D02*
X12503572Y-8851810D01*
X12675000Y-8908952D02*
X12694048Y-8918476D01*
X12694048Y-8918476D02*
X12732143Y-8918476D01*
X12732143Y-8918476D02*
X12751191Y-8908952D01*
X12751191Y-8908952D02*
X12760714Y-8889905D01*
X12760714Y-8889905D02*
X12760714Y-8880381D01*
X12760714Y-8880381D02*
X12751191Y-8861333D01*
X12751191Y-8861333D02*
X12732143Y-8851810D01*
X12732143Y-8851810D02*
X12703572Y-8851810D01*
X12703572Y-8851810D02*
X12684524Y-8842286D01*
X12684524Y-8842286D02*
X12675000Y-8823238D01*
X12675000Y-8823238D02*
X12675000Y-8813714D01*
X12675000Y-8813714D02*
X12684524Y-8794667D01*
X12684524Y-8794667D02*
X12703572Y-8785143D01*
X12703572Y-8785143D02*
X12732143Y-8785143D01*
X12732143Y-8785143D02*
X12751191Y-8794667D01*
X12827381Y-8994667D02*
X12836905Y-8985143D01*
X12836905Y-8985143D02*
X12855953Y-8956571D01*
X12855953Y-8956571D02*
X12865476Y-8937524D01*
X12865476Y-8937524D02*
X12875000Y-8908952D01*
X12875000Y-8908952D02*
X12884524Y-8861333D01*
X12884524Y-8861333D02*
X12884524Y-8823238D01*
X12884524Y-8823238D02*
X12875000Y-8775619D01*
X12875000Y-8775619D02*
X12865476Y-8747048D01*
X12865476Y-8747048D02*
X12855953Y-8728000D01*
X12855953Y-8728000D02*
X12836905Y-8699429D01*
X12836905Y-8699429D02*
X12827381Y-8689905D01*
X13156905Y-8994667D02*
X13147381Y-8985143D01*
X13147381Y-8985143D02*
X13128333Y-8956571D01*
X13128333Y-8956571D02*
X13118810Y-8937524D01*
X13118810Y-8937524D02*
X13109286Y-8908952D01*
X13109286Y-8908952D02*
X13099762Y-8861333D01*
X13099762Y-8861333D02*
X13099762Y-8823238D01*
X13099762Y-8823238D02*
X13109286Y-8775619D01*
X13109286Y-8775619D02*
X13118810Y-8747048D01*
X13118810Y-8747048D02*
X13128333Y-8728000D01*
X13128333Y-8728000D02*
X13147381Y-8699429D01*
X13147381Y-8699429D02*
X13156905Y-8689905D01*
X13233095Y-8785143D02*
X13233095Y-8918476D01*
X13233095Y-8804190D02*
X13242619Y-8794667D01*
X13242619Y-8794667D02*
X13261667Y-8785143D01*
X13261667Y-8785143D02*
X13290238Y-8785143D01*
X13290238Y-8785143D02*
X13309286Y-8794667D01*
X13309286Y-8794667D02*
X13318810Y-8813714D01*
X13318810Y-8813714D02*
X13318810Y-8918476D01*
X13442619Y-8918476D02*
X13423572Y-8908952D01*
X13423572Y-8908952D02*
X13414048Y-8899429D01*
X13414048Y-8899429D02*
X13404524Y-8880381D01*
X13404524Y-8880381D02*
X13404524Y-8823238D01*
X13404524Y-8823238D02*
X13414048Y-8804190D01*
X13414048Y-8804190D02*
X13423572Y-8794667D01*
X13423572Y-8794667D02*
X13442619Y-8785143D01*
X13442619Y-8785143D02*
X13471191Y-8785143D01*
X13471191Y-8785143D02*
X13490238Y-8794667D01*
X13490238Y-8794667D02*
X13499762Y-8804190D01*
X13499762Y-8804190D02*
X13509286Y-8823238D01*
X13509286Y-8823238D02*
X13509286Y-8880381D01*
X13509286Y-8880381D02*
X13499762Y-8899429D01*
X13499762Y-8899429D02*
X13490238Y-8908952D01*
X13490238Y-8908952D02*
X13471191Y-8918476D01*
X13471191Y-8918476D02*
X13442619Y-8918476D01*
X13566429Y-8785143D02*
X13642619Y-8785143D01*
X13595000Y-8718476D02*
X13595000Y-8889905D01*
X13595000Y-8889905D02*
X13604524Y-8908952D01*
X13604524Y-8908952D02*
X13623572Y-8918476D01*
X13623572Y-8918476D02*
X13642619Y-8918476D01*
X13829286Y-8785143D02*
X13829286Y-8985143D01*
X13829286Y-8794667D02*
X13848333Y-8785143D01*
X13848333Y-8785143D02*
X13886429Y-8785143D01*
X13886429Y-8785143D02*
X13905476Y-8794667D01*
X13905476Y-8794667D02*
X13915000Y-8804190D01*
X13915000Y-8804190D02*
X13924524Y-8823238D01*
X13924524Y-8823238D02*
X13924524Y-8880381D01*
X13924524Y-8880381D02*
X13915000Y-8899429D01*
X13915000Y-8899429D02*
X13905476Y-8908952D01*
X13905476Y-8908952D02*
X13886429Y-8918476D01*
X13886429Y-8918476D02*
X13848333Y-8918476D01*
X13848333Y-8918476D02*
X13829286Y-8908952D01*
X14038810Y-8918476D02*
X14019762Y-8908952D01*
X14019762Y-8908952D02*
X14010238Y-8889905D01*
X14010238Y-8889905D02*
X14010238Y-8718476D01*
X14200714Y-8918476D02*
X14200714Y-8813714D01*
X14200714Y-8813714D02*
X14191191Y-8794667D01*
X14191191Y-8794667D02*
X14172143Y-8785143D01*
X14172143Y-8785143D02*
X14134048Y-8785143D01*
X14134048Y-8785143D02*
X14115000Y-8794667D01*
X14200714Y-8908952D02*
X14181667Y-8918476D01*
X14181667Y-8918476D02*
X14134048Y-8918476D01*
X14134048Y-8918476D02*
X14115000Y-8908952D01*
X14115000Y-8908952D02*
X14105476Y-8889905D01*
X14105476Y-8889905D02*
X14105476Y-8870857D01*
X14105476Y-8870857D02*
X14115000Y-8851810D01*
X14115000Y-8851810D02*
X14134048Y-8842286D01*
X14134048Y-8842286D02*
X14181667Y-8842286D01*
X14181667Y-8842286D02*
X14200714Y-8832762D01*
X14267381Y-8785143D02*
X14343572Y-8785143D01*
X14295953Y-8718476D02*
X14295953Y-8889905D01*
X14295953Y-8889905D02*
X14305476Y-8908952D01*
X14305476Y-8908952D02*
X14324524Y-8918476D01*
X14324524Y-8918476D02*
X14343572Y-8918476D01*
X14486429Y-8908952D02*
X14467381Y-8918476D01*
X14467381Y-8918476D02*
X14429286Y-8918476D01*
X14429286Y-8918476D02*
X14410238Y-8908952D01*
X14410238Y-8908952D02*
X14400714Y-8889905D01*
X14400714Y-8889905D02*
X14400714Y-8813714D01*
X14400714Y-8813714D02*
X14410238Y-8794667D01*
X14410238Y-8794667D02*
X14429286Y-8785143D01*
X14429286Y-8785143D02*
X14467381Y-8785143D01*
X14467381Y-8785143D02*
X14486429Y-8794667D01*
X14486429Y-8794667D02*
X14495953Y-8813714D01*
X14495953Y-8813714D02*
X14495953Y-8832762D01*
X14495953Y-8832762D02*
X14400714Y-8851810D01*
X14667381Y-8918476D02*
X14667381Y-8718476D01*
X14667381Y-8908952D02*
X14648334Y-8918476D01*
X14648334Y-8918476D02*
X14610238Y-8918476D01*
X14610238Y-8918476D02*
X14591191Y-8908952D01*
X14591191Y-8908952D02*
X14581667Y-8899429D01*
X14581667Y-8899429D02*
X14572143Y-8880381D01*
X14572143Y-8880381D02*
X14572143Y-8823238D01*
X14572143Y-8823238D02*
X14581667Y-8804190D01*
X14581667Y-8804190D02*
X14591191Y-8794667D01*
X14591191Y-8794667D02*
X14610238Y-8785143D01*
X14610238Y-8785143D02*
X14648334Y-8785143D01*
X14648334Y-8785143D02*
X14667381Y-8794667D01*
X14743572Y-8994667D02*
X14753095Y-8985143D01*
X14753095Y-8985143D02*
X14772143Y-8956571D01*
X14772143Y-8956571D02*
X14781667Y-8937524D01*
X14781667Y-8937524D02*
X14791191Y-8908952D01*
X14791191Y-8908952D02*
X14800714Y-8861333D01*
X14800714Y-8861333D02*
X14800714Y-8823238D01*
X14800714Y-8823238D02*
X14791191Y-8775619D01*
X14791191Y-8775619D02*
X14781667Y-8747048D01*
X14781667Y-8747048D02*
X14772143Y-8728000D01*
X14772143Y-8728000D02*
X14753095Y-8699429D01*
X14753095Y-8699429D02*
X14743572Y-8689905D01*
D13*
X8195000Y-9109000D02*
G75*
G03*
X8195000Y-9109000I-49530J0D01*
G01*
D11*
X8480714Y-8982476D02*
X8499762Y-8982476D01*
X8499762Y-8982476D02*
X8518810Y-8992000D01*
X8518810Y-8992000D02*
X8528333Y-9001524D01*
X8528333Y-9001524D02*
X8537857Y-9020571D01*
X8537857Y-9020571D02*
X8547381Y-9058667D01*
X8547381Y-9058667D02*
X8547381Y-9106286D01*
X8547381Y-9106286D02*
X8537857Y-9144381D01*
X8537857Y-9144381D02*
X8528333Y-9163429D01*
X8528333Y-9163429D02*
X8518810Y-9172952D01*
X8518810Y-9172952D02*
X8499762Y-9182476D01*
X8499762Y-9182476D02*
X8480714Y-9182476D01*
X8480714Y-9182476D02*
X8461667Y-9172952D01*
X8461667Y-9172952D02*
X8452143Y-9163429D01*
X8452143Y-9163429D02*
X8442619Y-9144381D01*
X8442619Y-9144381D02*
X8433095Y-9106286D01*
X8433095Y-9106286D02*
X8433095Y-9058667D01*
X8433095Y-9058667D02*
X8442619Y-9020571D01*
X8442619Y-9020571D02*
X8452143Y-9001524D01*
X8452143Y-9001524D02*
X8461667Y-8992000D01*
X8461667Y-8992000D02*
X8480714Y-8982476D01*
X8633095Y-9163429D02*
X8642619Y-9172952D01*
X8642619Y-9172952D02*
X8633095Y-9182476D01*
X8633095Y-9182476D02*
X8623571Y-9172952D01*
X8623571Y-9172952D02*
X8633095Y-9163429D01*
X8633095Y-9163429D02*
X8633095Y-9182476D01*
X8737857Y-9182476D02*
X8775952Y-9182476D01*
X8775952Y-9182476D02*
X8795000Y-9172952D01*
X8795000Y-9172952D02*
X8804524Y-9163429D01*
X8804524Y-9163429D02*
X8823571Y-9134857D01*
X8823571Y-9134857D02*
X8833095Y-9096762D01*
X8833095Y-9096762D02*
X8833095Y-9020571D01*
X8833095Y-9020571D02*
X8823571Y-9001524D01*
X8823571Y-9001524D02*
X8814048Y-8992000D01*
X8814048Y-8992000D02*
X8795000Y-8982476D01*
X8795000Y-8982476D02*
X8756905Y-8982476D01*
X8756905Y-8982476D02*
X8737857Y-8992000D01*
X8737857Y-8992000D02*
X8728333Y-9001524D01*
X8728333Y-9001524D02*
X8718810Y-9020571D01*
X8718810Y-9020571D02*
X8718810Y-9068190D01*
X8718810Y-9068190D02*
X8728333Y-9087238D01*
X8728333Y-9087238D02*
X8737857Y-9096762D01*
X8737857Y-9096762D02*
X8756905Y-9106286D01*
X8756905Y-9106286D02*
X8795000Y-9106286D01*
X8795000Y-9106286D02*
X8814048Y-9096762D01*
X8814048Y-9096762D02*
X8823571Y-9087238D01*
X8823571Y-9087238D02*
X8833095Y-9068190D01*
X8928333Y-9182476D02*
X8966429Y-9182476D01*
X8966429Y-9182476D02*
X8985476Y-9172952D01*
X8985476Y-9172952D02*
X8995000Y-9163429D01*
X8995000Y-9163429D02*
X9014048Y-9134857D01*
X9014048Y-9134857D02*
X9023571Y-9096762D01*
X9023571Y-9096762D02*
X9023571Y-9020571D01*
X9023571Y-9020571D02*
X9014048Y-9001524D01*
X9014048Y-9001524D02*
X9004524Y-8992000D01*
X9004524Y-8992000D02*
X8985476Y-8982476D01*
X8985476Y-8982476D02*
X8947381Y-8982476D01*
X8947381Y-8982476D02*
X8928333Y-8992000D01*
X8928333Y-8992000D02*
X8918810Y-9001524D01*
X8918810Y-9001524D02*
X8909286Y-9020571D01*
X8909286Y-9020571D02*
X8909286Y-9068190D01*
X8909286Y-9068190D02*
X8918810Y-9087238D01*
X8918810Y-9087238D02*
X8928333Y-9096762D01*
X8928333Y-9096762D02*
X8947381Y-9106286D01*
X8947381Y-9106286D02*
X8985476Y-9106286D01*
X8985476Y-9106286D02*
X9004524Y-9096762D01*
X9004524Y-9096762D02*
X9014048Y-9087238D01*
X9014048Y-9087238D02*
X9023571Y-9068190D01*
X9214048Y-9182476D02*
X9099762Y-9182476D01*
X9156905Y-9182476D02*
X9156905Y-8982476D01*
X9156905Y-8982476D02*
X9137857Y-9011048D01*
X9137857Y-9011048D02*
X9118810Y-9030095D01*
X9118810Y-9030095D02*
X9099762Y-9039619D01*
X9299762Y-9182476D02*
X9299762Y-9049143D01*
X9299762Y-9068190D02*
X9309286Y-9058667D01*
X9309286Y-9058667D02*
X9328333Y-9049143D01*
X9328333Y-9049143D02*
X9356905Y-9049143D01*
X9356905Y-9049143D02*
X9375952Y-9058667D01*
X9375952Y-9058667D02*
X9385476Y-9077714D01*
X9385476Y-9077714D02*
X9385476Y-9182476D01*
X9385476Y-9077714D02*
X9395000Y-9058667D01*
X9395000Y-9058667D02*
X9414048Y-9049143D01*
X9414048Y-9049143D02*
X9442619Y-9049143D01*
X9442619Y-9049143D02*
X9461667Y-9058667D01*
X9461667Y-9058667D02*
X9471191Y-9077714D01*
X9471191Y-9077714D02*
X9471191Y-9182476D01*
X9566429Y-9182476D02*
X9566429Y-9049143D01*
X9566429Y-9068190D02*
X9575952Y-9058667D01*
X9575952Y-9058667D02*
X9595000Y-9049143D01*
X9595000Y-9049143D02*
X9623572Y-9049143D01*
X9623572Y-9049143D02*
X9642619Y-9058667D01*
X9642619Y-9058667D02*
X9652143Y-9077714D01*
X9652143Y-9077714D02*
X9652143Y-9182476D01*
X9652143Y-9077714D02*
X9661667Y-9058667D01*
X9661667Y-9058667D02*
X9680714Y-9049143D01*
X9680714Y-9049143D02*
X9709286Y-9049143D01*
X9709286Y-9049143D02*
X9728333Y-9058667D01*
X9728333Y-9058667D02*
X9737857Y-9077714D01*
X9737857Y-9077714D02*
X9737857Y-9182476D01*
X10095952Y-8972952D02*
X9924524Y-9230095D01*
X10320714Y-8982476D02*
X10339762Y-8982476D01*
X10339762Y-8982476D02*
X10358810Y-8992000D01*
X10358810Y-8992000D02*
X10368333Y-9001524D01*
X10368333Y-9001524D02*
X10377857Y-9020571D01*
X10377857Y-9020571D02*
X10387381Y-9058667D01*
X10387381Y-9058667D02*
X10387381Y-9106286D01*
X10387381Y-9106286D02*
X10377857Y-9144381D01*
X10377857Y-9144381D02*
X10368333Y-9163429D01*
X10368333Y-9163429D02*
X10358810Y-9172952D01*
X10358810Y-9172952D02*
X10339762Y-9182476D01*
X10339762Y-9182476D02*
X10320714Y-9182476D01*
X10320714Y-9182476D02*
X10301667Y-9172952D01*
X10301667Y-9172952D02*
X10292143Y-9163429D01*
X10292143Y-9163429D02*
X10282619Y-9144381D01*
X10282619Y-9144381D02*
X10273095Y-9106286D01*
X10273095Y-9106286D02*
X10273095Y-9058667D01*
X10273095Y-9058667D02*
X10282619Y-9020571D01*
X10282619Y-9020571D02*
X10292143Y-9001524D01*
X10292143Y-9001524D02*
X10301667Y-8992000D01*
X10301667Y-8992000D02*
X10320714Y-8982476D01*
X10473095Y-9163429D02*
X10482619Y-9172952D01*
X10482619Y-9172952D02*
X10473095Y-9182476D01*
X10473095Y-9182476D02*
X10463572Y-9172952D01*
X10463572Y-9172952D02*
X10473095Y-9163429D01*
X10473095Y-9163429D02*
X10473095Y-9182476D01*
X10606429Y-8982476D02*
X10625476Y-8982476D01*
X10625476Y-8982476D02*
X10644524Y-8992000D01*
X10644524Y-8992000D02*
X10654048Y-9001524D01*
X10654048Y-9001524D02*
X10663572Y-9020571D01*
X10663572Y-9020571D02*
X10673095Y-9058667D01*
X10673095Y-9058667D02*
X10673095Y-9106286D01*
X10673095Y-9106286D02*
X10663572Y-9144381D01*
X10663572Y-9144381D02*
X10654048Y-9163429D01*
X10654048Y-9163429D02*
X10644524Y-9172952D01*
X10644524Y-9172952D02*
X10625476Y-9182476D01*
X10625476Y-9182476D02*
X10606429Y-9182476D01*
X10606429Y-9182476D02*
X10587381Y-9172952D01*
X10587381Y-9172952D02*
X10577857Y-9163429D01*
X10577857Y-9163429D02*
X10568333Y-9144381D01*
X10568333Y-9144381D02*
X10558810Y-9106286D01*
X10558810Y-9106286D02*
X10558810Y-9058667D01*
X10558810Y-9058667D02*
X10568333Y-9020571D01*
X10568333Y-9020571D02*
X10577857Y-9001524D01*
X10577857Y-9001524D02*
X10587381Y-8992000D01*
X10587381Y-8992000D02*
X10606429Y-8982476D01*
X10739762Y-8982476D02*
X10863572Y-8982476D01*
X10863572Y-8982476D02*
X10796905Y-9058667D01*
X10796905Y-9058667D02*
X10825476Y-9058667D01*
X10825476Y-9058667D02*
X10844524Y-9068190D01*
X10844524Y-9068190D02*
X10854048Y-9077714D01*
X10854048Y-9077714D02*
X10863572Y-9096762D01*
X10863572Y-9096762D02*
X10863572Y-9144381D01*
X10863572Y-9144381D02*
X10854048Y-9163429D01*
X10854048Y-9163429D02*
X10844524Y-9172952D01*
X10844524Y-9172952D02*
X10825476Y-9182476D01*
X10825476Y-9182476D02*
X10768333Y-9182476D01*
X10768333Y-9182476D02*
X10749286Y-9172952D01*
X10749286Y-9172952D02*
X10739762Y-9163429D01*
X10958810Y-9182476D02*
X10996905Y-9182476D01*
X10996905Y-9182476D02*
X11015953Y-9172952D01*
X11015953Y-9172952D02*
X11025476Y-9163429D01*
X11025476Y-9163429D02*
X11044524Y-9134857D01*
X11044524Y-9134857D02*
X11054048Y-9096762D01*
X11054048Y-9096762D02*
X11054048Y-9020571D01*
X11054048Y-9020571D02*
X11044524Y-9001524D01*
X11044524Y-9001524D02*
X11035000Y-8992000D01*
X11035000Y-8992000D02*
X11015953Y-8982476D01*
X11015953Y-8982476D02*
X10977857Y-8982476D01*
X10977857Y-8982476D02*
X10958810Y-8992000D01*
X10958810Y-8992000D02*
X10949286Y-9001524D01*
X10949286Y-9001524D02*
X10939762Y-9020571D01*
X10939762Y-9020571D02*
X10939762Y-9068190D01*
X10939762Y-9068190D02*
X10949286Y-9087238D01*
X10949286Y-9087238D02*
X10958810Y-9096762D01*
X10958810Y-9096762D02*
X10977857Y-9106286D01*
X10977857Y-9106286D02*
X11015953Y-9106286D01*
X11015953Y-9106286D02*
X11035000Y-9096762D01*
X11035000Y-9096762D02*
X11044524Y-9087238D01*
X11044524Y-9087238D02*
X11054048Y-9068190D01*
X11177857Y-8982476D02*
X11196905Y-8982476D01*
X11196905Y-8982476D02*
X11215952Y-8992000D01*
X11215952Y-8992000D02*
X11225476Y-9001524D01*
X11225476Y-9001524D02*
X11235000Y-9020571D01*
X11235000Y-9020571D02*
X11244524Y-9058667D01*
X11244524Y-9058667D02*
X11244524Y-9106286D01*
X11244524Y-9106286D02*
X11235000Y-9144381D01*
X11235000Y-9144381D02*
X11225476Y-9163429D01*
X11225476Y-9163429D02*
X11215952Y-9172952D01*
X11215952Y-9172952D02*
X11196905Y-9182476D01*
X11196905Y-9182476D02*
X11177857Y-9182476D01*
X11177857Y-9182476D02*
X11158810Y-9172952D01*
X11158810Y-9172952D02*
X11149286Y-9163429D01*
X11149286Y-9163429D02*
X11139762Y-9144381D01*
X11139762Y-9144381D02*
X11130238Y-9106286D01*
X11130238Y-9106286D02*
X11130238Y-9058667D01*
X11130238Y-9058667D02*
X11139762Y-9020571D01*
X11139762Y-9020571D02*
X11149286Y-9001524D01*
X11149286Y-9001524D02*
X11158810Y-8992000D01*
X11158810Y-8992000D02*
X11177857Y-8982476D01*
X11320714Y-8982476D02*
X11320714Y-9020571D01*
X11396905Y-8982476D02*
X11396905Y-9020571D01*
X11659762Y-9258667D02*
X11650238Y-9249143D01*
X11650238Y-9249143D02*
X11631191Y-9220571D01*
X11631191Y-9220571D02*
X11621667Y-9201524D01*
X11621667Y-9201524D02*
X11612143Y-9172952D01*
X11612143Y-9172952D02*
X11602619Y-9125333D01*
X11602619Y-9125333D02*
X11602619Y-9087238D01*
X11602619Y-9087238D02*
X11612143Y-9039619D01*
X11612143Y-9039619D02*
X11621667Y-9011048D01*
X11621667Y-9011048D02*
X11631191Y-8992000D01*
X11631191Y-8992000D02*
X11650238Y-8963429D01*
X11650238Y-8963429D02*
X11659762Y-8953905D01*
X11716905Y-8982476D02*
X11840714Y-8982476D01*
X11840714Y-8982476D02*
X11774048Y-9058667D01*
X11774048Y-9058667D02*
X11802619Y-9058667D01*
X11802619Y-9058667D02*
X11821667Y-9068190D01*
X11821667Y-9068190D02*
X11831191Y-9077714D01*
X11831191Y-9077714D02*
X11840714Y-9096762D01*
X11840714Y-9096762D02*
X11840714Y-9144381D01*
X11840714Y-9144381D02*
X11831191Y-9163429D01*
X11831191Y-9163429D02*
X11821667Y-9172952D01*
X11821667Y-9172952D02*
X11802619Y-9182476D01*
X11802619Y-9182476D02*
X11745476Y-9182476D01*
X11745476Y-9182476D02*
X11726429Y-9172952D01*
X11726429Y-9172952D02*
X11716905Y-9163429D01*
X12046429Y-9182476D02*
X12046429Y-8982476D01*
X12132143Y-9182476D02*
X12132143Y-9077714D01*
X12132143Y-9077714D02*
X12122619Y-9058667D01*
X12122619Y-9058667D02*
X12103572Y-9049143D01*
X12103572Y-9049143D02*
X12075000Y-9049143D01*
X12075000Y-9049143D02*
X12055952Y-9058667D01*
X12055952Y-9058667D02*
X12046429Y-9068190D01*
X12255952Y-9182476D02*
X12236905Y-9172952D01*
X12236905Y-9172952D02*
X12227381Y-9163429D01*
X12227381Y-9163429D02*
X12217857Y-9144381D01*
X12217857Y-9144381D02*
X12217857Y-9087238D01*
X12217857Y-9087238D02*
X12227381Y-9068190D01*
X12227381Y-9068190D02*
X12236905Y-9058667D01*
X12236905Y-9058667D02*
X12255952Y-9049143D01*
X12255952Y-9049143D02*
X12284524Y-9049143D01*
X12284524Y-9049143D02*
X12303572Y-9058667D01*
X12303572Y-9058667D02*
X12313095Y-9068190D01*
X12313095Y-9068190D02*
X12322619Y-9087238D01*
X12322619Y-9087238D02*
X12322619Y-9144381D01*
X12322619Y-9144381D02*
X12313095Y-9163429D01*
X12313095Y-9163429D02*
X12303572Y-9172952D01*
X12303572Y-9172952D02*
X12284524Y-9182476D01*
X12284524Y-9182476D02*
X12255952Y-9182476D01*
X12436905Y-9182476D02*
X12417857Y-9172952D01*
X12417857Y-9172952D02*
X12408333Y-9153905D01*
X12408333Y-9153905D02*
X12408333Y-8982476D01*
X12589286Y-9172952D02*
X12570238Y-9182476D01*
X12570238Y-9182476D02*
X12532143Y-9182476D01*
X12532143Y-9182476D02*
X12513095Y-9172952D01*
X12513095Y-9172952D02*
X12503572Y-9153905D01*
X12503572Y-9153905D02*
X12503572Y-9077714D01*
X12503572Y-9077714D02*
X12513095Y-9058667D01*
X12513095Y-9058667D02*
X12532143Y-9049143D01*
X12532143Y-9049143D02*
X12570238Y-9049143D01*
X12570238Y-9049143D02*
X12589286Y-9058667D01*
X12589286Y-9058667D02*
X12598810Y-9077714D01*
X12598810Y-9077714D02*
X12598810Y-9096762D01*
X12598810Y-9096762D02*
X12503572Y-9115810D01*
X12675000Y-9172952D02*
X12694048Y-9182476D01*
X12694048Y-9182476D02*
X12732143Y-9182476D01*
X12732143Y-9182476D02*
X12751191Y-9172952D01*
X12751191Y-9172952D02*
X12760714Y-9153905D01*
X12760714Y-9153905D02*
X12760714Y-9144381D01*
X12760714Y-9144381D02*
X12751191Y-9125333D01*
X12751191Y-9125333D02*
X12732143Y-9115810D01*
X12732143Y-9115810D02*
X12703572Y-9115810D01*
X12703572Y-9115810D02*
X12684524Y-9106286D01*
X12684524Y-9106286D02*
X12675000Y-9087238D01*
X12675000Y-9087238D02*
X12675000Y-9077714D01*
X12675000Y-9077714D02*
X12684524Y-9058667D01*
X12684524Y-9058667D02*
X12703572Y-9049143D01*
X12703572Y-9049143D02*
X12732143Y-9049143D01*
X12732143Y-9049143D02*
X12751191Y-9058667D01*
X12827381Y-9258667D02*
X12836905Y-9249143D01*
X12836905Y-9249143D02*
X12855953Y-9220571D01*
X12855953Y-9220571D02*
X12865476Y-9201524D01*
X12865476Y-9201524D02*
X12875000Y-9172952D01*
X12875000Y-9172952D02*
X12884524Y-9125333D01*
X12884524Y-9125333D02*
X12884524Y-9087238D01*
X12884524Y-9087238D02*
X12875000Y-9039619D01*
X12875000Y-9039619D02*
X12865476Y-9011048D01*
X12865476Y-9011048D02*
X12855953Y-8992000D01*
X12855953Y-8992000D02*
X12836905Y-8963429D01*
X12836905Y-8963429D02*
X12827381Y-8953905D01*
X13156905Y-9258667D02*
X13147381Y-9249143D01*
X13147381Y-9249143D02*
X13128333Y-9220571D01*
X13128333Y-9220571D02*
X13118810Y-9201524D01*
X13118810Y-9201524D02*
X13109286Y-9172952D01*
X13109286Y-9172952D02*
X13099762Y-9125333D01*
X13099762Y-9125333D02*
X13099762Y-9087238D01*
X13099762Y-9087238D02*
X13109286Y-9039619D01*
X13109286Y-9039619D02*
X13118810Y-9011048D01*
X13118810Y-9011048D02*
X13128333Y-8992000D01*
X13128333Y-8992000D02*
X13147381Y-8963429D01*
X13147381Y-8963429D02*
X13156905Y-8953905D01*
X13233095Y-9049143D02*
X13233095Y-9182476D01*
X13233095Y-9068190D02*
X13242619Y-9058667D01*
X13242619Y-9058667D02*
X13261667Y-9049143D01*
X13261667Y-9049143D02*
X13290238Y-9049143D01*
X13290238Y-9049143D02*
X13309286Y-9058667D01*
X13309286Y-9058667D02*
X13318810Y-9077714D01*
X13318810Y-9077714D02*
X13318810Y-9182476D01*
X13442619Y-9182476D02*
X13423572Y-9172952D01*
X13423572Y-9172952D02*
X13414048Y-9163429D01*
X13414048Y-9163429D02*
X13404524Y-9144381D01*
X13404524Y-9144381D02*
X13404524Y-9087238D01*
X13404524Y-9087238D02*
X13414048Y-9068190D01*
X13414048Y-9068190D02*
X13423572Y-9058667D01*
X13423572Y-9058667D02*
X13442619Y-9049143D01*
X13442619Y-9049143D02*
X13471191Y-9049143D01*
X13471191Y-9049143D02*
X13490238Y-9058667D01*
X13490238Y-9058667D02*
X13499762Y-9068190D01*
X13499762Y-9068190D02*
X13509286Y-9087238D01*
X13509286Y-9087238D02*
X13509286Y-9144381D01*
X13509286Y-9144381D02*
X13499762Y-9163429D01*
X13499762Y-9163429D02*
X13490238Y-9172952D01*
X13490238Y-9172952D02*
X13471191Y-9182476D01*
X13471191Y-9182476D02*
X13442619Y-9182476D01*
X13566429Y-9049143D02*
X13642619Y-9049143D01*
X13595000Y-8982476D02*
X13595000Y-9153905D01*
X13595000Y-9153905D02*
X13604524Y-9172952D01*
X13604524Y-9172952D02*
X13623572Y-9182476D01*
X13623572Y-9182476D02*
X13642619Y-9182476D01*
X13829286Y-9049143D02*
X13829286Y-9249143D01*
X13829286Y-9058667D02*
X13848333Y-9049143D01*
X13848333Y-9049143D02*
X13886429Y-9049143D01*
X13886429Y-9049143D02*
X13905476Y-9058667D01*
X13905476Y-9058667D02*
X13915000Y-9068190D01*
X13915000Y-9068190D02*
X13924524Y-9087238D01*
X13924524Y-9087238D02*
X13924524Y-9144381D01*
X13924524Y-9144381D02*
X13915000Y-9163429D01*
X13915000Y-9163429D02*
X13905476Y-9172952D01*
X13905476Y-9172952D02*
X13886429Y-9182476D01*
X13886429Y-9182476D02*
X13848333Y-9182476D01*
X13848333Y-9182476D02*
X13829286Y-9172952D01*
X14038810Y-9182476D02*
X14019762Y-9172952D01*
X14019762Y-9172952D02*
X14010238Y-9153905D01*
X14010238Y-9153905D02*
X14010238Y-8982476D01*
X14200714Y-9182476D02*
X14200714Y-9077714D01*
X14200714Y-9077714D02*
X14191191Y-9058667D01*
X14191191Y-9058667D02*
X14172143Y-9049143D01*
X14172143Y-9049143D02*
X14134048Y-9049143D01*
X14134048Y-9049143D02*
X14115000Y-9058667D01*
X14200714Y-9172952D02*
X14181667Y-9182476D01*
X14181667Y-9182476D02*
X14134048Y-9182476D01*
X14134048Y-9182476D02*
X14115000Y-9172952D01*
X14115000Y-9172952D02*
X14105476Y-9153905D01*
X14105476Y-9153905D02*
X14105476Y-9134857D01*
X14105476Y-9134857D02*
X14115000Y-9115810D01*
X14115000Y-9115810D02*
X14134048Y-9106286D01*
X14134048Y-9106286D02*
X14181667Y-9106286D01*
X14181667Y-9106286D02*
X14200714Y-9096762D01*
X14267381Y-9049143D02*
X14343572Y-9049143D01*
X14295953Y-8982476D02*
X14295953Y-9153905D01*
X14295953Y-9153905D02*
X14305476Y-9172952D01*
X14305476Y-9172952D02*
X14324524Y-9182476D01*
X14324524Y-9182476D02*
X14343572Y-9182476D01*
X14486429Y-9172952D02*
X14467381Y-9182476D01*
X14467381Y-9182476D02*
X14429286Y-9182476D01*
X14429286Y-9182476D02*
X14410238Y-9172952D01*
X14410238Y-9172952D02*
X14400714Y-9153905D01*
X14400714Y-9153905D02*
X14400714Y-9077714D01*
X14400714Y-9077714D02*
X14410238Y-9058667D01*
X14410238Y-9058667D02*
X14429286Y-9049143D01*
X14429286Y-9049143D02*
X14467381Y-9049143D01*
X14467381Y-9049143D02*
X14486429Y-9058667D01*
X14486429Y-9058667D02*
X14495953Y-9077714D01*
X14495953Y-9077714D02*
X14495953Y-9096762D01*
X14495953Y-9096762D02*
X14400714Y-9115810D01*
X14667381Y-9182476D02*
X14667381Y-8982476D01*
X14667381Y-9172952D02*
X14648334Y-9182476D01*
X14648334Y-9182476D02*
X14610238Y-9182476D01*
X14610238Y-9182476D02*
X14591191Y-9172952D01*
X14591191Y-9172952D02*
X14581667Y-9163429D01*
X14581667Y-9163429D02*
X14572143Y-9144381D01*
X14572143Y-9144381D02*
X14572143Y-9087238D01*
X14572143Y-9087238D02*
X14581667Y-9068190D01*
X14581667Y-9068190D02*
X14591191Y-9058667D01*
X14591191Y-9058667D02*
X14610238Y-9049143D01*
X14610238Y-9049143D02*
X14648334Y-9049143D01*
X14648334Y-9049143D02*
X14667381Y-9058667D01*
X14743572Y-9258667D02*
X14753095Y-9249143D01*
X14753095Y-9249143D02*
X14772143Y-9220571D01*
X14772143Y-9220571D02*
X14781667Y-9201524D01*
X14781667Y-9201524D02*
X14791191Y-9172952D01*
X14791191Y-9172952D02*
X14800714Y-9125333D01*
X14800714Y-9125333D02*
X14800714Y-9087238D01*
X14800714Y-9087238D02*
X14791191Y-9039619D01*
X14791191Y-9039619D02*
X14781667Y-9011048D01*
X14781667Y-9011048D02*
X14772143Y-8992000D01*
X14772143Y-8992000D02*
X14753095Y-8963429D01*
X14753095Y-8963429D02*
X14743572Y-8953905D01*
M02*
