%TF.GenerationSoftware,KiCad,Pcbnew,7.0.1-3b83917a11~172~ubuntu22.10.1*%
%TF.CreationDate,2023-10-02T08:25:51+02:00*%
%TF.ProjectId,hall_sensor_matrix_v2,68616c6c-5f73-4656-9e73-6f725f6d6174,revA*%
%TF.SameCoordinates,Original*%
%TF.FileFunction,Soldermask,Bot*%
%TF.FilePolarity,Negative*%
%FSLAX46Y46*%
G04 Gerber Fmt 4.6, Leading zero omitted, Abs format (unit mm)*
G04 Created by KiCad (PCBNEW 7.0.1-3b83917a11~172~ubuntu22.10.1) date 2023-10-02 08:25:51*
%MOMM*%
%LPD*%
G01*
G04 APERTURE LIST*
G04 Aperture macros list*
%AMRoundRect*
0 Rectangle with rounded corners*
0 $1 Rounding radius*
0 $2 $3 $4 $5 $6 $7 $8 $9 X,Y pos of 4 corners*
0 Add a 4 corners polygon primitive as box body*
4,1,4,$2,$3,$4,$5,$6,$7,$8,$9,$2,$3,0*
0 Add four circle primitives for the rounded corners*
1,1,$1+$1,$2,$3*
1,1,$1+$1,$4,$5*
1,1,$1+$1,$6,$7*
1,1,$1+$1,$8,$9*
0 Add four rect primitives between the rounded corners*
20,1,$1+$1,$2,$3,$4,$5,0*
20,1,$1+$1,$4,$5,$6,$7,0*
20,1,$1+$1,$6,$7,$8,$9,0*
20,1,$1+$1,$8,$9,$2,$3,0*%
%AMFreePoly0*
4,1,9,3.862500,-0.866500,0.737500,-0.866500,0.737500,-0.450000,-0.737500,-0.450000,-0.737500,0.450000,0.737500,0.450000,0.737500,0.866500,3.862500,0.866500,3.862500,-0.866500,3.862500,-0.866500,$1*%
G04 Aperture macros list end*
%ADD10C,0.150000*%
%ADD11C,3.200000*%
%ADD12R,1.600000X2.400000*%
%ADD13O,1.600000X2.400000*%
%ADD14R,1.700000X1.700000*%
%ADD15O,1.700000X1.700000*%
%ADD16RoundRect,0.237500X0.237500X-0.300000X0.237500X0.300000X-0.237500X0.300000X-0.237500X-0.300000X0*%
%ADD17RoundRect,0.250000X0.450000X-0.262500X0.450000X0.262500X-0.450000X0.262500X-0.450000X-0.262500X0*%
%ADD18RoundRect,0.250000X-0.450000X0.262500X-0.450000X-0.262500X0.450000X-0.262500X0.450000X0.262500X0*%
%ADD19RoundRect,0.250000X0.475000X-0.337500X0.475000X0.337500X-0.475000X0.337500X-0.475000X-0.337500X0*%
%ADD20R,0.900000X1.300000*%
%ADD21FreePoly0,90.000000*%
%ADD22RoundRect,0.237500X0.300000X0.237500X-0.300000X0.237500X-0.300000X-0.237500X0.300000X-0.237500X0*%
G04 APERTURE END LIST*
D10*
X102000000Y-82000000D02*
X106000000Y-82000000D01*
X106000000Y-84000000D01*
X102000000Y-84000000D01*
X102000000Y-82000000D01*
G36*
X102000000Y-82000000D02*
G01*
X106000000Y-82000000D01*
X106000000Y-84000000D01*
X102000000Y-84000000D01*
X102000000Y-82000000D01*
G37*
D11*
%TO.C,H2*%
X111500000Y-86500000D03*
%TD*%
%TO.C,H1*%
X41000000Y-63000000D03*
%TD*%
D12*
%TO.C,U1*%
X65305000Y-78947500D03*
D13*
X62765000Y-78947500D03*
X60225000Y-78947500D03*
X57685000Y-78947500D03*
X55145000Y-78947500D03*
X52605000Y-78947500D03*
X50065000Y-78947500D03*
X47525000Y-78947500D03*
X47525000Y-86567500D03*
X50065000Y-86567500D03*
X52605000Y-86567500D03*
X55145000Y-86567500D03*
X57685000Y-86567500D03*
X60225000Y-86567500D03*
X62765000Y-86567500D03*
X65305000Y-86567500D03*
%TD*%
D14*
%TO.C,J3*%
X111660000Y-65316000D03*
D15*
X109120000Y-65316000D03*
X106580000Y-65316000D03*
X104040000Y-65316000D03*
X101500000Y-65316000D03*
X98960000Y-65316000D03*
X96420000Y-65316000D03*
X93880000Y-65316000D03*
X91340000Y-65316000D03*
X88800000Y-65316000D03*
X86260000Y-65316000D03*
X83720000Y-65316000D03*
X81180000Y-65316000D03*
X78640000Y-65316000D03*
X76100000Y-65316000D03*
X73560000Y-65316000D03*
%TD*%
D12*
%TO.C,U3*%
X88150000Y-69380000D03*
D13*
X85610000Y-69380000D03*
X83070000Y-69380000D03*
X80530000Y-69380000D03*
X77990000Y-69380000D03*
X75450000Y-69380000D03*
X72910000Y-69380000D03*
X70370000Y-69380000D03*
X70370000Y-77000000D03*
X72910000Y-77000000D03*
X75450000Y-77000000D03*
X77990000Y-77000000D03*
X80530000Y-77000000D03*
X83070000Y-77000000D03*
X85610000Y-77000000D03*
X88150000Y-77000000D03*
%TD*%
D12*
%TO.C,U2*%
X109740000Y-69380000D03*
D13*
X107200000Y-69380000D03*
X104660000Y-69380000D03*
X102120000Y-69380000D03*
X99580000Y-69380000D03*
X97040000Y-69380000D03*
X94500000Y-69380000D03*
X91960000Y-69380000D03*
X91960000Y-77000000D03*
X94500000Y-77000000D03*
X97040000Y-77000000D03*
X99580000Y-77000000D03*
X102120000Y-77000000D03*
X104660000Y-77000000D03*
X107200000Y-77000000D03*
X109740000Y-77000000D03*
%TD*%
D14*
%TO.C,J1*%
X42191000Y-72936000D03*
D15*
X42191000Y-75476000D03*
X42191000Y-78016000D03*
X42191000Y-80556000D03*
X42191000Y-83096000D03*
X42191000Y-85636000D03*
%TD*%
D14*
%TO.C,J2*%
X68353000Y-65485500D03*
D15*
X65813000Y-65485500D03*
X63273000Y-65485500D03*
X60733000Y-65485500D03*
X58193000Y-65485500D03*
X55653000Y-65485500D03*
X53113000Y-65485500D03*
X50573000Y-65485500D03*
X48033000Y-65485500D03*
X45493000Y-65485500D03*
%TD*%
D16*
%TO.C,C1*%
X70385000Y-73798500D03*
X70385000Y-72073500D03*
%TD*%
D17*
%TO.C,R20*%
X104675000Y-73848500D03*
X104675000Y-72023500D03*
%TD*%
%TO.C,R43*%
X86260000Y-63053500D03*
X86260000Y-61228500D03*
%TD*%
D18*
%TO.C,R11*%
X53113000Y-60863500D03*
X53113000Y-62688500D03*
%TD*%
D17*
%TO.C,R39*%
X96420000Y-63053500D03*
X96420000Y-61228500D03*
%TD*%
%TO.C,R46*%
X78675000Y-63053500D03*
X78675000Y-61228500D03*
%TD*%
D19*
%TO.C,C2*%
X44985000Y-75243500D03*
X44985000Y-73168500D03*
%TD*%
D17*
%TO.C,R29*%
X80545000Y-73848500D03*
X80545000Y-72023500D03*
%TD*%
D18*
%TO.C,R3*%
X63273000Y-60863500D03*
X63273000Y-62688500D03*
%TD*%
D17*
%TO.C,R48*%
X73560000Y-63053500D03*
X73560000Y-61228500D03*
%TD*%
D18*
%TO.C,R7*%
X58193000Y-60863500D03*
X58193000Y-62688500D03*
%TD*%
D17*
%TO.C,R42*%
X88800000Y-63053500D03*
X88800000Y-61228500D03*
%TD*%
%TO.C,R33*%
X111660000Y-63053500D03*
X111660000Y-61228500D03*
%TD*%
%TO.C,R18*%
X109755000Y-73848500D03*
X109755000Y-72023500D03*
%TD*%
%TO.C,R24*%
X94515000Y-73848500D03*
X94515000Y-72023500D03*
%TD*%
%TO.C,R40*%
X93880000Y-63053500D03*
X93880000Y-61228500D03*
%TD*%
%TO.C,R37*%
X101500000Y-63053500D03*
X101500000Y-61228500D03*
%TD*%
%TO.C,R22*%
X99595000Y-73848500D03*
X99595000Y-72023500D03*
%TD*%
D16*
%TO.C,C5*%
X92610000Y-73798500D03*
X92610000Y-72073500D03*
%TD*%
D17*
%TO.C,R25*%
X90705000Y-73848500D03*
X90705000Y-72023500D03*
%TD*%
%TO.C,R32*%
X72925000Y-73848500D03*
X72925000Y-72023500D03*
%TD*%
%TO.C,R23*%
X97055000Y-73848500D03*
X97055000Y-72023500D03*
%TD*%
%TO.C,R45*%
X81215000Y-63053500D03*
X81215000Y-61228500D03*
%TD*%
%TO.C,R34*%
X109120000Y-63053500D03*
X109120000Y-61228500D03*
%TD*%
D20*
%TO.C,Q1*%
X67313000Y-71245500D03*
D21*
X65813000Y-71158000D03*
D20*
X64313000Y-71245500D03*
%TD*%
D17*
%TO.C,R19*%
X107215000Y-73848500D03*
X107215000Y-72023500D03*
%TD*%
D20*
%TO.C,Q3*%
X62233000Y-71245500D03*
D21*
X60733000Y-71158000D03*
D20*
X59233000Y-71245500D03*
%TD*%
D17*
%TO.C,R27*%
X85625000Y-73848500D03*
X85625000Y-72023500D03*
%TD*%
%TO.C,R31*%
X75465000Y-73848500D03*
X75465000Y-72023500D03*
%TD*%
D19*
%TO.C,C4*%
X66829000Y-76513500D03*
X66829000Y-74438500D03*
%TD*%
D17*
%TO.C,R47*%
X76135000Y-63053500D03*
X76135000Y-61228500D03*
%TD*%
%TO.C,R17*%
X112295000Y-73848500D03*
X112295000Y-72023500D03*
%TD*%
D18*
%TO.C,R13*%
X50573000Y-60863500D03*
X50573000Y-62688500D03*
%TD*%
D17*
%TO.C,R38*%
X98960000Y-63053500D03*
X98960000Y-61228500D03*
%TD*%
D18*
%TO.C,R1*%
X65813000Y-60863500D03*
X65813000Y-62688500D03*
%TD*%
D20*
%TO.C,Q7*%
X52073000Y-71245500D03*
D21*
X50573000Y-71158000D03*
D20*
X49073000Y-71245500D03*
%TD*%
D17*
%TO.C,R44*%
X83720000Y-63053500D03*
X83720000Y-61228500D03*
%TD*%
%TO.C,R30*%
X78005000Y-73848500D03*
X78005000Y-72023500D03*
%TD*%
%TO.C,R26*%
X88165000Y-73848500D03*
X88165000Y-72023500D03*
%TD*%
D18*
%TO.C,R5*%
X60733000Y-60863500D03*
X60733000Y-62688500D03*
%TD*%
D17*
%TO.C,R41*%
X91340000Y-63053500D03*
X91340000Y-61228500D03*
%TD*%
D19*
%TO.C,C6*%
X46255000Y-70417500D03*
X46255000Y-68342500D03*
%TD*%
D20*
%TO.C,Q5*%
X57153000Y-71245500D03*
D21*
X55653000Y-71158000D03*
D20*
X54153000Y-71245500D03*
%TD*%
D22*
%TO.C,C3*%
X63627500Y-83858000D03*
X61902500Y-83858000D03*
%TD*%
D17*
%TO.C,R35*%
X106580000Y-63053500D03*
X106580000Y-61228500D03*
%TD*%
%TO.C,R21*%
X102135000Y-73848500D03*
X102135000Y-72023500D03*
%TD*%
%TO.C,R36*%
X104040000Y-63053500D03*
X104040000Y-61228500D03*
%TD*%
D18*
%TO.C,R9*%
X55653000Y-60863500D03*
X55653000Y-62688500D03*
%TD*%
%TO.C,R15*%
X48033000Y-60863500D03*
X48033000Y-62688500D03*
%TD*%
D17*
%TO.C,R28*%
X83085000Y-73848500D03*
X83085000Y-72023500D03*
%TD*%
M02*
