M48
; DRILL file {KiCad 7.0.1-3b83917a11~172~ubuntu22.10.1} date lun. 02 oct. 2023 08:25:42
; FORMAT={-:-/ absolute / metric / decimal}
; #@! TF.CreationDate,2023-10-02T08:25:42+02:00
; #@! TF.GenerationSoftware,Kicad,Pcbnew,7.0.1-3b83917a11~172~ubuntu22.10.1
; #@! TF.FileFunction,MixedPlating,1,2
FMAT,2
METRIC
; #@! TA.AperFunction,Plated,PTH,ViaDrill
T1C0.400
; #@! TA.AperFunction,Plated,PTH,ComponentDrill
T2C0.800
; #@! TA.AperFunction,Plated,PTH,ComponentDrill
T3C1.000
; #@! TA.AperFunction,NonPlated,NPTH,ComponentDrill
T4C3.200
%
G90
G05
T1
X48.033Y-60.49
X49.557Y-72.597
X50.573Y-60.49
X50.573Y-74.629
X52.605Y-82.461
X53.113Y-60.49
X54.637Y-72.597
X55.145Y-82.461
X55.653Y-60.49
X55.653Y-74.629
X58.193Y-60.49
X59.717Y-72.597
X60.733Y-60.49
X60.733Y-74.629
X63.273Y-60.49
X64.797Y-72.597
X65.813Y-60.49
X67.337Y-72.343
X68.48Y-75.476
X73.56Y-60.236
X76.1Y-60.236
X78.64Y-60.236
X78.64Y-80.556
X81.18Y-60.236
X83.72Y-60.236
X86.26Y-60.236
X88.8Y-60.236
X90.705Y-71.666
X91.34Y-60.236
X93.88Y-60.236
X96.42Y-60.236
X98.96Y-60.236
X101.5Y-60.236
X104.04Y-60.236
X106.58Y-60.236
X109.12Y-60.236
X111.66Y-60.236
T2
X47.525Y-78.947
X47.525Y-86.567
X50.065Y-78.947
X50.065Y-86.567
X52.605Y-78.947
X52.605Y-86.567
X55.145Y-78.947
X55.145Y-86.567
X57.685Y-78.947
X57.685Y-86.567
X60.225Y-78.947
X60.225Y-86.567
X62.765Y-78.947
X62.765Y-86.567
X65.305Y-78.947
X65.305Y-86.567
X70.37Y-69.38
X70.37Y-77.0
X72.91Y-69.38
X72.91Y-77.0
X75.45Y-69.38
X75.45Y-77.0
X77.99Y-69.38
X77.99Y-77.0
X80.53Y-69.38
X80.53Y-77.0
X83.07Y-69.38
X83.07Y-77.0
X85.61Y-69.38
X85.61Y-77.0
X88.15Y-69.38
X88.15Y-77.0
X91.96Y-69.38
X91.96Y-77.0
X94.5Y-69.38
X94.5Y-77.0
X97.04Y-69.38
X97.04Y-77.0
X99.58Y-69.38
X99.58Y-77.0
X102.12Y-69.38
X102.12Y-77.0
X104.66Y-69.38
X104.66Y-77.0
X107.2Y-69.38
X107.2Y-77.0
X109.74Y-69.38
X109.74Y-77.0
T3
X42.191Y-72.936
X42.191Y-75.476
X42.191Y-78.016
X42.191Y-80.556
X42.191Y-83.096
X42.191Y-85.636
X45.493Y-65.486
X48.033Y-65.486
X50.573Y-65.486
X53.113Y-65.486
X55.653Y-65.486
X58.193Y-65.486
X60.733Y-65.486
X63.273Y-65.486
X65.813Y-65.486
X68.353Y-65.486
X73.56Y-65.316
X76.1Y-65.316
X78.64Y-65.316
X81.18Y-65.316
X83.72Y-65.316
X86.26Y-65.316
X88.8Y-65.316
X91.34Y-65.316
X93.88Y-65.316
X96.42Y-65.316
X98.96Y-65.316
X101.5Y-65.316
X104.04Y-65.316
X106.58Y-65.316
X109.12Y-65.316
X111.66Y-65.316
T4
X41.0Y-63.0
X111.5Y-86.5
T0
M30
