M48
; DRILL file {KiCad (7.0.0)} date Thu Sep 21 15:04:20 2023
; FORMAT={-:-/ absolute / metric / decimal}
; #@! TF.CreationDate,2023-09-21T15:04:20+02:00
; #@! TF.GenerationSoftware,Kicad,Pcbnew,(7.0.0)
; #@! TF.FileFunction,Plated,1,2,PTH
FMAT,2
METRIC
; #@! TA.AperFunction,Plated,PTH,ViaDrill
T1C0.400
; #@! TA.AperFunction,Plated,PTH,ComponentDrill
T2C0.800
; #@! TA.AperFunction,Plated,PTH,ComponentDrill
T3C1.000
%
G90
G05
T1
X80.928Y-87.474
X82.452Y-99.581
X83.468Y-87.474
X83.468Y-101.614
X85.5Y-109.445
X86.008Y-87.474
X87.532Y-99.581
X88.04Y-109.445
X88.548Y-87.474
X88.548Y-101.614
X91.088Y-87.474
X92.612Y-99.581
X93.628Y-87.474
X93.628Y-101.614
X96.168Y-87.474
X97.692Y-99.581
X98.708Y-87.474
X100.232Y-99.328
X101.375Y-102.46
X106.455Y-87.22
X108.995Y-87.22
X111.535Y-87.22
X111.535Y-107.54
X114.075Y-87.22
X116.615Y-87.22
X119.155Y-87.22
X121.695Y-87.22
X123.6Y-98.65
X124.235Y-87.22
X126.775Y-87.22
X129.315Y-87.22
X131.855Y-87.22
X134.395Y-87.22
X136.935Y-87.22
X139.475Y-87.22
X142.015Y-87.22
X144.555Y-87.22
T2
X80.42Y-105.931
X80.42Y-113.551
X82.96Y-105.931
X82.96Y-113.551
X85.5Y-105.931
X85.5Y-113.551
X88.04Y-105.931
X88.04Y-113.551
X90.58Y-105.931
X90.58Y-113.551
X93.12Y-105.931
X93.12Y-113.551
X95.66Y-105.931
X95.66Y-113.551
X98.2Y-105.931
X98.2Y-113.551
X103.265Y-96.364
X103.265Y-103.984
X105.805Y-96.364
X105.805Y-103.984
X108.345Y-96.364
X108.345Y-103.984
X110.885Y-96.364
X110.885Y-103.984
X113.425Y-96.364
X113.425Y-103.984
X115.965Y-96.364
X115.965Y-103.984
X118.505Y-96.364
X118.505Y-103.984
X121.045Y-96.364
X121.045Y-103.984
X124.855Y-96.364
X124.855Y-103.984
X127.395Y-96.364
X127.395Y-103.984
X129.935Y-96.364
X129.935Y-103.984
X132.475Y-96.364
X132.475Y-103.984
X135.015Y-96.364
X135.015Y-103.984
X137.555Y-96.364
X137.555Y-103.984
X140.095Y-96.364
X140.095Y-103.984
X142.635Y-96.364
X142.635Y-103.984
T3
X75.086Y-99.92
X75.086Y-102.46
X75.086Y-105.0
X75.086Y-107.54
X75.086Y-110.08
X75.086Y-112.62
X78.388Y-92.469
X80.928Y-92.469
X83.468Y-92.469
X86.008Y-92.469
X88.548Y-92.469
X91.088Y-92.469
X93.628Y-92.469
X96.168Y-92.469
X98.708Y-92.469
X101.248Y-92.469
X106.455Y-92.3
X108.995Y-92.3
X111.535Y-92.3
X114.075Y-92.3
X116.615Y-92.3
X119.155Y-92.3
X121.695Y-92.3
X124.235Y-92.3
X126.775Y-92.3
X129.315Y-92.3
X131.855Y-92.3
X134.395Y-92.3
X136.935Y-92.3
X139.475Y-92.3
X142.015Y-92.3
X144.555Y-92.3
T0
M30
