%TF.GenerationSoftware,KiCad,Pcbnew,(7.0.0)*%
%TF.CreationDate,2023-09-21T15:04:23+02:00*%
%TF.ProjectId,hall_sensor_matrix_v2,68616c6c-5f73-4656-9e73-6f725f6d6174,rev?*%
%TF.SameCoordinates,Original*%
%TF.FileFunction,Legend,Top*%
%TF.FilePolarity,Positive*%
%FSLAX46Y46*%
G04 Gerber Fmt 4.6, Leading zero omitted, Abs format (unit mm)*
G04 Created by KiCad (PCBNEW (7.0.0)) date 2023-09-21 15:04:23*
%MOMM*%
%LPD*%
G01*
G04 APERTURE LIST*
%ADD10C,0.150000*%
%ADD11C,0.360000*%
%ADD12C,0.120000*%
G04 APERTURE END LIST*
D10*
X76898428Y-99748500D02*
X76827000Y-99712785D01*
X76827000Y-99712785D02*
X76719857Y-99712785D01*
X76719857Y-99712785D02*
X76612714Y-99748500D01*
X76612714Y-99748500D02*
X76541285Y-99819928D01*
X76541285Y-99819928D02*
X76505571Y-99891357D01*
X76505571Y-99891357D02*
X76469857Y-100034214D01*
X76469857Y-100034214D02*
X76469857Y-100141357D01*
X76469857Y-100141357D02*
X76505571Y-100284214D01*
X76505571Y-100284214D02*
X76541285Y-100355642D01*
X76541285Y-100355642D02*
X76612714Y-100427071D01*
X76612714Y-100427071D02*
X76719857Y-100462785D01*
X76719857Y-100462785D02*
X76791285Y-100462785D01*
X76791285Y-100462785D02*
X76898428Y-100427071D01*
X76898428Y-100427071D02*
X76934142Y-100391357D01*
X76934142Y-100391357D02*
X76934142Y-100141357D01*
X76934142Y-100141357D02*
X76791285Y-100141357D01*
X77255571Y-100462785D02*
X77255571Y-99712785D01*
X77255571Y-99712785D02*
X77684142Y-100462785D01*
X77684142Y-100462785D02*
X77684142Y-99712785D01*
X78041285Y-100462785D02*
X78041285Y-99712785D01*
X78041285Y-99712785D02*
X78219856Y-99712785D01*
X78219856Y-99712785D02*
X78326999Y-99748500D01*
X78326999Y-99748500D02*
X78398428Y-99819928D01*
X78398428Y-99819928D02*
X78434142Y-99891357D01*
X78434142Y-99891357D02*
X78469856Y-100034214D01*
X78469856Y-100034214D02*
X78469856Y-100141357D01*
X78469856Y-100141357D02*
X78434142Y-100284214D01*
X78434142Y-100284214D02*
X78398428Y-100355642D01*
X78398428Y-100355642D02*
X78326999Y-100427071D01*
X78326999Y-100427071D02*
X78219856Y-100462785D01*
X78219856Y-100462785D02*
X78041285Y-100462785D01*
X76505571Y-102607071D02*
X77077000Y-102607071D01*
X76791285Y-102892785D02*
X76791285Y-102321357D01*
X77791285Y-102142785D02*
X77434142Y-102142785D01*
X77434142Y-102142785D02*
X77398428Y-102499928D01*
X77398428Y-102499928D02*
X77434142Y-102464214D01*
X77434142Y-102464214D02*
X77505571Y-102428500D01*
X77505571Y-102428500D02*
X77684142Y-102428500D01*
X77684142Y-102428500D02*
X77755571Y-102464214D01*
X77755571Y-102464214D02*
X77791285Y-102499928D01*
X77791285Y-102499928D02*
X77826999Y-102571357D01*
X77826999Y-102571357D02*
X77826999Y-102749928D01*
X77826999Y-102749928D02*
X77791285Y-102821357D01*
X77791285Y-102821357D02*
X77755571Y-102857071D01*
X77755571Y-102857071D02*
X77684142Y-102892785D01*
X77684142Y-102892785D02*
X77505571Y-102892785D01*
X77505571Y-102892785D02*
X77434142Y-102857071D01*
X77434142Y-102857071D02*
X77398428Y-102821357D01*
X78041285Y-102142785D02*
X78291285Y-102892785D01*
X78291285Y-102892785D02*
X78541285Y-102142785D01*
X76505571Y-105322785D02*
X76505571Y-104572785D01*
X76505571Y-104572785D02*
X76684142Y-104572785D01*
X76684142Y-104572785D02*
X76791285Y-104608500D01*
X76791285Y-104608500D02*
X76862714Y-104679928D01*
X76862714Y-104679928D02*
X76898428Y-104751357D01*
X76898428Y-104751357D02*
X76934142Y-104894214D01*
X76934142Y-104894214D02*
X76934142Y-105001357D01*
X76934142Y-105001357D02*
X76898428Y-105144214D01*
X76898428Y-105144214D02*
X76862714Y-105215642D01*
X76862714Y-105215642D02*
X76791285Y-105287071D01*
X76791285Y-105287071D02*
X76684142Y-105322785D01*
X76684142Y-105322785D02*
X76505571Y-105322785D01*
X77255571Y-105322785D02*
X77255571Y-104822785D01*
X77255571Y-104572785D02*
X77219857Y-104608500D01*
X77219857Y-104608500D02*
X77255571Y-104644214D01*
X77255571Y-104644214D02*
X77291285Y-104608500D01*
X77291285Y-104608500D02*
X77255571Y-104572785D01*
X77255571Y-104572785D02*
X77255571Y-104644214D01*
X77612714Y-104822785D02*
X77612714Y-105322785D01*
X77612714Y-104894214D02*
X77648428Y-104858500D01*
X77648428Y-104858500D02*
X77719857Y-104822785D01*
X77719857Y-104822785D02*
X77827000Y-104822785D01*
X77827000Y-104822785D02*
X77898428Y-104858500D01*
X77898428Y-104858500D02*
X77934143Y-104929928D01*
X77934143Y-104929928D02*
X77934143Y-105322785D01*
X76862714Y-107752785D02*
X76505571Y-107752785D01*
X76505571Y-107752785D02*
X76505571Y-107002785D01*
X77434143Y-107752785D02*
X77434143Y-107359928D01*
X77434143Y-107359928D02*
X77398428Y-107288500D01*
X77398428Y-107288500D02*
X77327000Y-107252785D01*
X77327000Y-107252785D02*
X77184143Y-107252785D01*
X77184143Y-107252785D02*
X77112714Y-107288500D01*
X77434143Y-107717071D02*
X77362714Y-107752785D01*
X77362714Y-107752785D02*
X77184143Y-107752785D01*
X77184143Y-107752785D02*
X77112714Y-107717071D01*
X77112714Y-107717071D02*
X77077000Y-107645642D01*
X77077000Y-107645642D02*
X77077000Y-107574214D01*
X77077000Y-107574214D02*
X77112714Y-107502785D01*
X77112714Y-107502785D02*
X77184143Y-107467071D01*
X77184143Y-107467071D02*
X77362714Y-107467071D01*
X77362714Y-107467071D02*
X77434143Y-107431357D01*
X77684142Y-107252785D02*
X77969856Y-107252785D01*
X77791285Y-107002785D02*
X77791285Y-107645642D01*
X77791285Y-107645642D02*
X77826999Y-107717071D01*
X77826999Y-107717071D02*
X77898428Y-107752785D01*
X77898428Y-107752785D02*
X77969856Y-107752785D01*
X78541285Y-107717071D02*
X78469856Y-107752785D01*
X78469856Y-107752785D02*
X78326999Y-107752785D01*
X78326999Y-107752785D02*
X78255570Y-107717071D01*
X78255570Y-107717071D02*
X78219856Y-107681357D01*
X78219856Y-107681357D02*
X78184142Y-107609928D01*
X78184142Y-107609928D02*
X78184142Y-107395642D01*
X78184142Y-107395642D02*
X78219856Y-107324214D01*
X78219856Y-107324214D02*
X78255570Y-107288500D01*
X78255570Y-107288500D02*
X78326999Y-107252785D01*
X78326999Y-107252785D02*
X78469856Y-107252785D01*
X78469856Y-107252785D02*
X78541285Y-107288500D01*
X78862713Y-107752785D02*
X78862713Y-107002785D01*
X79184142Y-107752785D02*
X79184142Y-107359928D01*
X79184142Y-107359928D02*
X79148427Y-107288500D01*
X79148427Y-107288500D02*
X79076999Y-107252785D01*
X79076999Y-107252785D02*
X78969856Y-107252785D01*
X78969856Y-107252785D02*
X78898427Y-107288500D01*
X78898427Y-107288500D02*
X78862713Y-107324214D01*
X76934142Y-110111357D02*
X76898428Y-110147071D01*
X76898428Y-110147071D02*
X76791285Y-110182785D01*
X76791285Y-110182785D02*
X76719857Y-110182785D01*
X76719857Y-110182785D02*
X76612714Y-110147071D01*
X76612714Y-110147071D02*
X76541285Y-110075642D01*
X76541285Y-110075642D02*
X76505571Y-110004214D01*
X76505571Y-110004214D02*
X76469857Y-109861357D01*
X76469857Y-109861357D02*
X76469857Y-109754214D01*
X76469857Y-109754214D02*
X76505571Y-109611357D01*
X76505571Y-109611357D02*
X76541285Y-109539928D01*
X76541285Y-109539928D02*
X76612714Y-109468500D01*
X76612714Y-109468500D02*
X76719857Y-109432785D01*
X76719857Y-109432785D02*
X76791285Y-109432785D01*
X76791285Y-109432785D02*
X76898428Y-109468500D01*
X76898428Y-109468500D02*
X76934142Y-109504214D01*
X77612714Y-110182785D02*
X77255571Y-110182785D01*
X77255571Y-110182785D02*
X77255571Y-109432785D01*
X77862714Y-110182785D02*
X77862714Y-109432785D01*
X78291285Y-110182785D02*
X77969857Y-109754214D01*
X78291285Y-109432785D02*
X77862714Y-109861357D01*
X76505571Y-112612785D02*
X76505571Y-111862785D01*
X76505571Y-111862785D02*
X76684142Y-111862785D01*
X76684142Y-111862785D02*
X76791285Y-111898500D01*
X76791285Y-111898500D02*
X76862714Y-111969928D01*
X76862714Y-111969928D02*
X76898428Y-112041357D01*
X76898428Y-112041357D02*
X76934142Y-112184214D01*
X76934142Y-112184214D02*
X76934142Y-112291357D01*
X76934142Y-112291357D02*
X76898428Y-112434214D01*
X76898428Y-112434214D02*
X76862714Y-112505642D01*
X76862714Y-112505642D02*
X76791285Y-112577071D01*
X76791285Y-112577071D02*
X76684142Y-112612785D01*
X76684142Y-112612785D02*
X76505571Y-112612785D01*
X77362714Y-112612785D02*
X77291285Y-112577071D01*
X77291285Y-112577071D02*
X77255571Y-112541357D01*
X77255571Y-112541357D02*
X77219857Y-112469928D01*
X77219857Y-112469928D02*
X77219857Y-112255642D01*
X77219857Y-112255642D02*
X77255571Y-112184214D01*
X77255571Y-112184214D02*
X77291285Y-112148500D01*
X77291285Y-112148500D02*
X77362714Y-112112785D01*
X77362714Y-112112785D02*
X77469857Y-112112785D01*
X77469857Y-112112785D02*
X77541285Y-112148500D01*
X77541285Y-112148500D02*
X77577000Y-112184214D01*
X77577000Y-112184214D02*
X77612714Y-112255642D01*
X77612714Y-112255642D02*
X77612714Y-112469928D01*
X77612714Y-112469928D02*
X77577000Y-112541357D01*
X77577000Y-112541357D02*
X77541285Y-112577071D01*
X77541285Y-112577071D02*
X77469857Y-112612785D01*
X77469857Y-112612785D02*
X77362714Y-112612785D01*
X78255571Y-112112785D02*
X78255571Y-112612785D01*
X77934142Y-112112785D02*
X77934142Y-112505642D01*
X77934142Y-112505642D02*
X77969856Y-112577071D01*
X77969856Y-112577071D02*
X78041285Y-112612785D01*
X78041285Y-112612785D02*
X78148428Y-112612785D01*
X78148428Y-112612785D02*
X78219856Y-112577071D01*
X78219856Y-112577071D02*
X78255571Y-112541357D01*
X78505570Y-112112785D02*
X78791284Y-112112785D01*
X78612713Y-111862785D02*
X78612713Y-112505642D01*
X78612713Y-112505642D02*
X78648427Y-112577071D01*
X78648427Y-112577071D02*
X78719856Y-112612785D01*
X78719856Y-112612785D02*
X78791284Y-112612785D01*
X134620000Y-110490000D02*
X145415000Y-110490000D01*
X145415000Y-110490000D02*
X145415000Y-115570000D01*
X145415000Y-115570000D02*
X134620000Y-115570000D01*
X134620000Y-115570000D02*
X134620000Y-110490000D01*
G36*
X134620000Y-110490000D02*
G01*
X145415000Y-110490000D01*
X145415000Y-115570000D01*
X134620000Y-115570000D01*
X134620000Y-110490000D01*
G37*
D11*
X113458571Y-109346285D02*
X113458571Y-107546285D01*
X113458571Y-108403428D02*
X114487142Y-108403428D01*
X114487142Y-109346285D02*
X114487142Y-107546285D01*
X116115714Y-109346285D02*
X116115714Y-108403428D01*
X116115714Y-108403428D02*
X116029999Y-108232000D01*
X116029999Y-108232000D02*
X115858571Y-108146285D01*
X115858571Y-108146285D02*
X115515714Y-108146285D01*
X115515714Y-108146285D02*
X115344285Y-108232000D01*
X116115714Y-109260571D02*
X115944285Y-109346285D01*
X115944285Y-109346285D02*
X115515714Y-109346285D01*
X115515714Y-109346285D02*
X115344285Y-109260571D01*
X115344285Y-109260571D02*
X115258571Y-109089142D01*
X115258571Y-109089142D02*
X115258571Y-108917714D01*
X115258571Y-108917714D02*
X115344285Y-108746285D01*
X115344285Y-108746285D02*
X115515714Y-108660571D01*
X115515714Y-108660571D02*
X115944285Y-108660571D01*
X115944285Y-108660571D02*
X116115714Y-108574857D01*
X117229999Y-109346285D02*
X117058570Y-109260571D01*
X117058570Y-109260571D02*
X116972856Y-109089142D01*
X116972856Y-109089142D02*
X116972856Y-107546285D01*
X118172856Y-109346285D02*
X118001427Y-109260571D01*
X118001427Y-109260571D02*
X117915713Y-109089142D01*
X117915713Y-109089142D02*
X117915713Y-107546285D01*
X119852856Y-109260571D02*
X120024284Y-109346285D01*
X120024284Y-109346285D02*
X120367141Y-109346285D01*
X120367141Y-109346285D02*
X120538570Y-109260571D01*
X120538570Y-109260571D02*
X120624284Y-109089142D01*
X120624284Y-109089142D02*
X120624284Y-109003428D01*
X120624284Y-109003428D02*
X120538570Y-108832000D01*
X120538570Y-108832000D02*
X120367141Y-108746285D01*
X120367141Y-108746285D02*
X120109999Y-108746285D01*
X120109999Y-108746285D02*
X119938570Y-108660571D01*
X119938570Y-108660571D02*
X119852856Y-108489142D01*
X119852856Y-108489142D02*
X119852856Y-108403428D01*
X119852856Y-108403428D02*
X119938570Y-108232000D01*
X119938570Y-108232000D02*
X120109999Y-108146285D01*
X120109999Y-108146285D02*
X120367141Y-108146285D01*
X120367141Y-108146285D02*
X120538570Y-108232000D01*
X122081427Y-109260571D02*
X121909999Y-109346285D01*
X121909999Y-109346285D02*
X121567142Y-109346285D01*
X121567142Y-109346285D02*
X121395713Y-109260571D01*
X121395713Y-109260571D02*
X121309999Y-109089142D01*
X121309999Y-109089142D02*
X121309999Y-108403428D01*
X121309999Y-108403428D02*
X121395713Y-108232000D01*
X121395713Y-108232000D02*
X121567142Y-108146285D01*
X121567142Y-108146285D02*
X121909999Y-108146285D01*
X121909999Y-108146285D02*
X122081427Y-108232000D01*
X122081427Y-108232000D02*
X122167142Y-108403428D01*
X122167142Y-108403428D02*
X122167142Y-108574857D01*
X122167142Y-108574857D02*
X121309999Y-108746285D01*
X122938570Y-108146285D02*
X122938570Y-109346285D01*
X122938570Y-108317714D02*
X123024284Y-108232000D01*
X123024284Y-108232000D02*
X123195713Y-108146285D01*
X123195713Y-108146285D02*
X123452856Y-108146285D01*
X123452856Y-108146285D02*
X123624284Y-108232000D01*
X123624284Y-108232000D02*
X123709999Y-108403428D01*
X123709999Y-108403428D02*
X123709999Y-109346285D01*
X124481427Y-109260571D02*
X124652855Y-109346285D01*
X124652855Y-109346285D02*
X124995712Y-109346285D01*
X124995712Y-109346285D02*
X125167141Y-109260571D01*
X125167141Y-109260571D02*
X125252855Y-109089142D01*
X125252855Y-109089142D02*
X125252855Y-109003428D01*
X125252855Y-109003428D02*
X125167141Y-108832000D01*
X125167141Y-108832000D02*
X124995712Y-108746285D01*
X124995712Y-108746285D02*
X124738570Y-108746285D01*
X124738570Y-108746285D02*
X124567141Y-108660571D01*
X124567141Y-108660571D02*
X124481427Y-108489142D01*
X124481427Y-108489142D02*
X124481427Y-108403428D01*
X124481427Y-108403428D02*
X124567141Y-108232000D01*
X124567141Y-108232000D02*
X124738570Y-108146285D01*
X124738570Y-108146285D02*
X124995712Y-108146285D01*
X124995712Y-108146285D02*
X125167141Y-108232000D01*
X126281427Y-109346285D02*
X126109998Y-109260571D01*
X126109998Y-109260571D02*
X126024284Y-109174857D01*
X126024284Y-109174857D02*
X125938570Y-109003428D01*
X125938570Y-109003428D02*
X125938570Y-108489142D01*
X125938570Y-108489142D02*
X126024284Y-108317714D01*
X126024284Y-108317714D02*
X126109998Y-108232000D01*
X126109998Y-108232000D02*
X126281427Y-108146285D01*
X126281427Y-108146285D02*
X126538570Y-108146285D01*
X126538570Y-108146285D02*
X126709998Y-108232000D01*
X126709998Y-108232000D02*
X126795713Y-108317714D01*
X126795713Y-108317714D02*
X126881427Y-108489142D01*
X126881427Y-108489142D02*
X126881427Y-109003428D01*
X126881427Y-109003428D02*
X126795713Y-109174857D01*
X126795713Y-109174857D02*
X126709998Y-109260571D01*
X126709998Y-109260571D02*
X126538570Y-109346285D01*
X126538570Y-109346285D02*
X126281427Y-109346285D01*
X127652855Y-109346285D02*
X127652855Y-108146285D01*
X127652855Y-108489142D02*
X127738569Y-108317714D01*
X127738569Y-108317714D02*
X127824284Y-108232000D01*
X127824284Y-108232000D02*
X127995712Y-108146285D01*
X127995712Y-108146285D02*
X128167141Y-108146285D01*
X129847141Y-109346285D02*
X129847141Y-108146285D01*
X129847141Y-108317714D02*
X129932855Y-108232000D01*
X129932855Y-108232000D02*
X130104284Y-108146285D01*
X130104284Y-108146285D02*
X130361427Y-108146285D01*
X130361427Y-108146285D02*
X130532855Y-108232000D01*
X130532855Y-108232000D02*
X130618570Y-108403428D01*
X130618570Y-108403428D02*
X130618570Y-109346285D01*
X130618570Y-108403428D02*
X130704284Y-108232000D01*
X130704284Y-108232000D02*
X130875712Y-108146285D01*
X130875712Y-108146285D02*
X131132855Y-108146285D01*
X131132855Y-108146285D02*
X131304284Y-108232000D01*
X131304284Y-108232000D02*
X131389998Y-108403428D01*
X131389998Y-108403428D02*
X131389998Y-109346285D01*
X133018570Y-109346285D02*
X133018570Y-108403428D01*
X133018570Y-108403428D02*
X132932855Y-108232000D01*
X132932855Y-108232000D02*
X132761427Y-108146285D01*
X132761427Y-108146285D02*
X132418570Y-108146285D01*
X132418570Y-108146285D02*
X132247141Y-108232000D01*
X133018570Y-109260571D02*
X132847141Y-109346285D01*
X132847141Y-109346285D02*
X132418570Y-109346285D01*
X132418570Y-109346285D02*
X132247141Y-109260571D01*
X132247141Y-109260571D02*
X132161427Y-109089142D01*
X132161427Y-109089142D02*
X132161427Y-108917714D01*
X132161427Y-108917714D02*
X132247141Y-108746285D01*
X132247141Y-108746285D02*
X132418570Y-108660571D01*
X132418570Y-108660571D02*
X132847141Y-108660571D01*
X132847141Y-108660571D02*
X133018570Y-108574857D01*
X133618569Y-108146285D02*
X134304283Y-108146285D01*
X133875712Y-107546285D02*
X133875712Y-109089142D01*
X133875712Y-109089142D02*
X133961426Y-109260571D01*
X133961426Y-109260571D02*
X134132855Y-109346285D01*
X134132855Y-109346285D02*
X134304283Y-109346285D01*
X134904283Y-109346285D02*
X134904283Y-108146285D01*
X134904283Y-108489142D02*
X134989997Y-108317714D01*
X134989997Y-108317714D02*
X135075712Y-108232000D01*
X135075712Y-108232000D02*
X135247140Y-108146285D01*
X135247140Y-108146285D02*
X135418569Y-108146285D01*
X136018569Y-109346285D02*
X136018569Y-108146285D01*
X136018569Y-107546285D02*
X135932855Y-107632000D01*
X135932855Y-107632000D02*
X136018569Y-107717714D01*
X136018569Y-107717714D02*
X136104283Y-107632000D01*
X136104283Y-107632000D02*
X136018569Y-107546285D01*
X136018569Y-107546285D02*
X136018569Y-107717714D01*
X136704283Y-109346285D02*
X137647141Y-108146285D01*
X136704283Y-108146285D02*
X137647141Y-109346285D01*
X113287142Y-110462285D02*
X114487142Y-112262285D01*
X114487142Y-110462285D02*
X113287142Y-112262285D01*
X115172857Y-112090857D02*
X115258571Y-112176571D01*
X115258571Y-112176571D02*
X115172857Y-112262285D01*
X115172857Y-112262285D02*
X115087143Y-112176571D01*
X115087143Y-112176571D02*
X115172857Y-112090857D01*
X115172857Y-112090857D02*
X115172857Y-112262285D01*
X116630000Y-111319428D02*
X116887143Y-111405142D01*
X116887143Y-111405142D02*
X116972857Y-111490857D01*
X116972857Y-111490857D02*
X117058571Y-111662285D01*
X117058571Y-111662285D02*
X117058571Y-111919428D01*
X117058571Y-111919428D02*
X116972857Y-112090857D01*
X116972857Y-112090857D02*
X116887143Y-112176571D01*
X116887143Y-112176571D02*
X116715714Y-112262285D01*
X116715714Y-112262285D02*
X116030000Y-112262285D01*
X116030000Y-112262285D02*
X116030000Y-110462285D01*
X116030000Y-110462285D02*
X116630000Y-110462285D01*
X116630000Y-110462285D02*
X116801429Y-110548000D01*
X116801429Y-110548000D02*
X116887143Y-110633714D01*
X116887143Y-110633714D02*
X116972857Y-110805142D01*
X116972857Y-110805142D02*
X116972857Y-110976571D01*
X116972857Y-110976571D02*
X116887143Y-111148000D01*
X116887143Y-111148000D02*
X116801429Y-111233714D01*
X116801429Y-111233714D02*
X116630000Y-111319428D01*
X116630000Y-111319428D02*
X116030000Y-111319428D01*
X117830000Y-112090857D02*
X117915714Y-112176571D01*
X117915714Y-112176571D02*
X117830000Y-112262285D01*
X117830000Y-112262285D02*
X117744286Y-112176571D01*
X117744286Y-112176571D02*
X117830000Y-112090857D01*
X117830000Y-112090857D02*
X117830000Y-112262285D01*
X119852857Y-112262285D02*
X120195714Y-112262285D01*
X120195714Y-112262285D02*
X120367143Y-112176571D01*
X120367143Y-112176571D02*
X120452857Y-112090857D01*
X120452857Y-112090857D02*
X120624286Y-111833714D01*
X120624286Y-111833714D02*
X120710000Y-111490857D01*
X120710000Y-111490857D02*
X120710000Y-110805142D01*
X120710000Y-110805142D02*
X120624286Y-110633714D01*
X120624286Y-110633714D02*
X120538572Y-110548000D01*
X120538572Y-110548000D02*
X120367143Y-110462285D01*
X120367143Y-110462285D02*
X120024286Y-110462285D01*
X120024286Y-110462285D02*
X119852857Y-110548000D01*
X119852857Y-110548000D02*
X119767143Y-110633714D01*
X119767143Y-110633714D02*
X119681429Y-110805142D01*
X119681429Y-110805142D02*
X119681429Y-111233714D01*
X119681429Y-111233714D02*
X119767143Y-111405142D01*
X119767143Y-111405142D02*
X119852857Y-111490857D01*
X119852857Y-111490857D02*
X120024286Y-111576571D01*
X120024286Y-111576571D02*
X120367143Y-111576571D01*
X120367143Y-111576571D02*
X120538572Y-111490857D01*
X120538572Y-111490857D02*
X120624286Y-111405142D01*
X120624286Y-111405142D02*
X120710000Y-111233714D01*
X122767143Y-110376571D02*
X121224286Y-112690857D01*
X123281429Y-110633714D02*
X123367143Y-110548000D01*
X123367143Y-110548000D02*
X123538572Y-110462285D01*
X123538572Y-110462285D02*
X123967143Y-110462285D01*
X123967143Y-110462285D02*
X124138572Y-110548000D01*
X124138572Y-110548000D02*
X124224286Y-110633714D01*
X124224286Y-110633714D02*
X124310000Y-110805142D01*
X124310000Y-110805142D02*
X124310000Y-110976571D01*
X124310000Y-110976571D02*
X124224286Y-111233714D01*
X124224286Y-111233714D02*
X123195714Y-112262285D01*
X123195714Y-112262285D02*
X124310000Y-112262285D01*
X124910000Y-110462285D02*
X126024286Y-110462285D01*
X126024286Y-110462285D02*
X125424286Y-111148000D01*
X125424286Y-111148000D02*
X125681429Y-111148000D01*
X125681429Y-111148000D02*
X125852858Y-111233714D01*
X125852858Y-111233714D02*
X125938572Y-111319428D01*
X125938572Y-111319428D02*
X126024286Y-111490857D01*
X126024286Y-111490857D02*
X126024286Y-111919428D01*
X126024286Y-111919428D02*
X125938572Y-112090857D01*
X125938572Y-112090857D02*
X125852858Y-112176571D01*
X125852858Y-112176571D02*
X125681429Y-112262285D01*
X125681429Y-112262285D02*
X125167143Y-112262285D01*
X125167143Y-112262285D02*
X124995715Y-112176571D01*
X124995715Y-112176571D02*
X124910000Y-112090857D01*
X127875715Y-112262285D02*
X127875715Y-111062285D01*
X127875715Y-111405142D02*
X127961429Y-111233714D01*
X127961429Y-111233714D02*
X128047144Y-111148000D01*
X128047144Y-111148000D02*
X128218572Y-111062285D01*
X128218572Y-111062285D02*
X128390001Y-111062285D01*
X129675715Y-112176571D02*
X129504287Y-112262285D01*
X129504287Y-112262285D02*
X129161430Y-112262285D01*
X129161430Y-112262285D02*
X128990001Y-112176571D01*
X128990001Y-112176571D02*
X128904287Y-112005142D01*
X128904287Y-112005142D02*
X128904287Y-111319428D01*
X128904287Y-111319428D02*
X128990001Y-111148000D01*
X128990001Y-111148000D02*
X129161430Y-111062285D01*
X129161430Y-111062285D02*
X129504287Y-111062285D01*
X129504287Y-111062285D02*
X129675715Y-111148000D01*
X129675715Y-111148000D02*
X129761430Y-111319428D01*
X129761430Y-111319428D02*
X129761430Y-111490857D01*
X129761430Y-111490857D02*
X128904287Y-111662285D01*
X130361429Y-111062285D02*
X130790001Y-112262285D01*
X130790001Y-112262285D02*
X131218572Y-111062285D01*
X131818573Y-111748000D02*
X132675716Y-111748000D01*
X131647144Y-112262285D02*
X132247144Y-110462285D01*
X132247144Y-110462285D02*
X132847144Y-112262285D01*
X113972857Y-113378285D02*
X113972857Y-114664000D01*
X113972857Y-114664000D02*
X113887142Y-114921142D01*
X113887142Y-114921142D02*
X113715714Y-115092571D01*
X113715714Y-115092571D02*
X113458571Y-115178285D01*
X113458571Y-115178285D02*
X113287142Y-115178285D01*
X115687143Y-115178285D02*
X114830000Y-115178285D01*
X114830000Y-115178285D02*
X114830000Y-113378285D01*
X117315714Y-115006857D02*
X117230000Y-115092571D01*
X117230000Y-115092571D02*
X116972857Y-115178285D01*
X116972857Y-115178285D02*
X116801429Y-115178285D01*
X116801429Y-115178285D02*
X116544286Y-115092571D01*
X116544286Y-115092571D02*
X116372857Y-114921142D01*
X116372857Y-114921142D02*
X116287143Y-114749714D01*
X116287143Y-114749714D02*
X116201429Y-114406857D01*
X116201429Y-114406857D02*
X116201429Y-114149714D01*
X116201429Y-114149714D02*
X116287143Y-113806857D01*
X116287143Y-113806857D02*
X116372857Y-113635428D01*
X116372857Y-113635428D02*
X116544286Y-113464000D01*
X116544286Y-113464000D02*
X116801429Y-113378285D01*
X116801429Y-113378285D02*
X116972857Y-113378285D01*
X116972857Y-113378285D02*
X117230000Y-113464000D01*
X117230000Y-113464000D02*
X117315714Y-113549714D01*
X118601429Y-113378285D02*
X118601429Y-114664000D01*
X118601429Y-114664000D02*
X118515714Y-114921142D01*
X118515714Y-114921142D02*
X118344286Y-115092571D01*
X118344286Y-115092571D02*
X118087143Y-115178285D01*
X118087143Y-115178285D02*
X117915714Y-115178285D01*
X120315715Y-115178285D02*
X119458572Y-115178285D01*
X119458572Y-115178285D02*
X119458572Y-113378285D01*
X121944286Y-115006857D02*
X121858572Y-115092571D01*
X121858572Y-115092571D02*
X121601429Y-115178285D01*
X121601429Y-115178285D02*
X121430001Y-115178285D01*
X121430001Y-115178285D02*
X121172858Y-115092571D01*
X121172858Y-115092571D02*
X121001429Y-114921142D01*
X121001429Y-114921142D02*
X120915715Y-114749714D01*
X120915715Y-114749714D02*
X120830001Y-114406857D01*
X120830001Y-114406857D02*
X120830001Y-114149714D01*
X120830001Y-114149714D02*
X120915715Y-113806857D01*
X120915715Y-113806857D02*
X121001429Y-113635428D01*
X121001429Y-113635428D02*
X121172858Y-113464000D01*
X121172858Y-113464000D02*
X121430001Y-113378285D01*
X121430001Y-113378285D02*
X121601429Y-113378285D01*
X121601429Y-113378285D02*
X121858572Y-113464000D01*
X121858572Y-113464000D02*
X121944286Y-113549714D01*
X123230001Y-113378285D02*
X123230001Y-114664000D01*
X123230001Y-114664000D02*
X123144286Y-114921142D01*
X123144286Y-114921142D02*
X122972858Y-115092571D01*
X122972858Y-115092571D02*
X122715715Y-115178285D01*
X122715715Y-115178285D02*
X122544286Y-115178285D01*
X124944287Y-115178285D02*
X124087144Y-115178285D01*
X124087144Y-115178285D02*
X124087144Y-113378285D01*
X126572858Y-115006857D02*
X126487144Y-115092571D01*
X126487144Y-115092571D02*
X126230001Y-115178285D01*
X126230001Y-115178285D02*
X126058573Y-115178285D01*
X126058573Y-115178285D02*
X125801430Y-115092571D01*
X125801430Y-115092571D02*
X125630001Y-114921142D01*
X125630001Y-114921142D02*
X125544287Y-114749714D01*
X125544287Y-114749714D02*
X125458573Y-114406857D01*
X125458573Y-114406857D02*
X125458573Y-114149714D01*
X125458573Y-114149714D02*
X125544287Y-113806857D01*
X125544287Y-113806857D02*
X125630001Y-113635428D01*
X125630001Y-113635428D02*
X125801430Y-113464000D01*
X125801430Y-113464000D02*
X126058573Y-113378285D01*
X126058573Y-113378285D02*
X126230001Y-113378285D01*
X126230001Y-113378285D02*
X126487144Y-113464000D01*
X126487144Y-113464000D02*
X126572858Y-113549714D01*
X127858573Y-113378285D02*
X127858573Y-114664000D01*
X127858573Y-114664000D02*
X127772858Y-114921142D01*
X127772858Y-114921142D02*
X127601430Y-115092571D01*
X127601430Y-115092571D02*
X127344287Y-115178285D01*
X127344287Y-115178285D02*
X127172858Y-115178285D01*
X129572859Y-115178285D02*
X128715716Y-115178285D01*
X128715716Y-115178285D02*
X128715716Y-113378285D01*
X131201430Y-115006857D02*
X131115716Y-115092571D01*
X131115716Y-115092571D02*
X130858573Y-115178285D01*
X130858573Y-115178285D02*
X130687145Y-115178285D01*
X130687145Y-115178285D02*
X130430002Y-115092571D01*
X130430002Y-115092571D02*
X130258573Y-114921142D01*
X130258573Y-114921142D02*
X130172859Y-114749714D01*
X130172859Y-114749714D02*
X130087145Y-114406857D01*
X130087145Y-114406857D02*
X130087145Y-114149714D01*
X130087145Y-114149714D02*
X130172859Y-113806857D01*
X130172859Y-113806857D02*
X130258573Y-113635428D01*
X130258573Y-113635428D02*
X130430002Y-113464000D01*
X130430002Y-113464000D02*
X130687145Y-113378285D01*
X130687145Y-113378285D02*
X130858573Y-113378285D01*
X130858573Y-113378285D02*
X131115716Y-113464000D01*
X131115716Y-113464000D02*
X131201430Y-113549714D01*
D10*
%TO.C,D4*%
X90410380Y-89511094D02*
X89410380Y-89511094D01*
X89410380Y-89511094D02*
X89410380Y-89272999D01*
X89410380Y-89272999D02*
X89458000Y-89130142D01*
X89458000Y-89130142D02*
X89553238Y-89034904D01*
X89553238Y-89034904D02*
X89648476Y-88987285D01*
X89648476Y-88987285D02*
X89838952Y-88939666D01*
X89838952Y-88939666D02*
X89981809Y-88939666D01*
X89981809Y-88939666D02*
X90172285Y-88987285D01*
X90172285Y-88987285D02*
X90267523Y-89034904D01*
X90267523Y-89034904D02*
X90362761Y-89130142D01*
X90362761Y-89130142D02*
X90410380Y-89272999D01*
X90410380Y-89272999D02*
X90410380Y-89511094D01*
X89743714Y-88082523D02*
X90410380Y-88082523D01*
X89362761Y-88320618D02*
X90077047Y-88558713D01*
X90077047Y-88558713D02*
X90077047Y-87939666D01*
%TO.C,D19*%
X118334580Y-89682485D02*
X117334580Y-89682485D01*
X117334580Y-89682485D02*
X117334580Y-89444390D01*
X117334580Y-89444390D02*
X117382200Y-89301533D01*
X117382200Y-89301533D02*
X117477438Y-89206295D01*
X117477438Y-89206295D02*
X117572676Y-89158676D01*
X117572676Y-89158676D02*
X117763152Y-89111057D01*
X117763152Y-89111057D02*
X117906009Y-89111057D01*
X117906009Y-89111057D02*
X118096485Y-89158676D01*
X118096485Y-89158676D02*
X118191723Y-89206295D01*
X118191723Y-89206295D02*
X118286961Y-89301533D01*
X118286961Y-89301533D02*
X118334580Y-89444390D01*
X118334580Y-89444390D02*
X118334580Y-89682485D01*
X118334580Y-88158676D02*
X118334580Y-88730104D01*
X118334580Y-88444390D02*
X117334580Y-88444390D01*
X117334580Y-88444390D02*
X117477438Y-88539628D01*
X117477438Y-88539628D02*
X117572676Y-88634866D01*
X117572676Y-88634866D02*
X117620295Y-88730104D01*
X118334580Y-87682485D02*
X118334580Y-87492009D01*
X118334580Y-87492009D02*
X118286961Y-87396771D01*
X118286961Y-87396771D02*
X118239342Y-87349152D01*
X118239342Y-87349152D02*
X118096485Y-87253914D01*
X118096485Y-87253914D02*
X117906009Y-87206295D01*
X117906009Y-87206295D02*
X117525057Y-87206295D01*
X117525057Y-87206295D02*
X117429819Y-87253914D01*
X117429819Y-87253914D02*
X117382200Y-87301533D01*
X117382200Y-87301533D02*
X117334580Y-87396771D01*
X117334580Y-87396771D02*
X117334580Y-87587247D01*
X117334580Y-87587247D02*
X117382200Y-87682485D01*
X117382200Y-87682485D02*
X117429819Y-87730104D01*
X117429819Y-87730104D02*
X117525057Y-87777723D01*
X117525057Y-87777723D02*
X117763152Y-87777723D01*
X117763152Y-87777723D02*
X117858390Y-87730104D01*
X117858390Y-87730104D02*
X117906009Y-87682485D01*
X117906009Y-87682485D02*
X117953628Y-87587247D01*
X117953628Y-87587247D02*
X117953628Y-87396771D01*
X117953628Y-87396771D02*
X117906009Y-87301533D01*
X117906009Y-87301533D02*
X117858390Y-87253914D01*
X117858390Y-87253914D02*
X117763152Y-87206295D01*
%TO.C,D2*%
X95490380Y-89511094D02*
X94490380Y-89511094D01*
X94490380Y-89511094D02*
X94490380Y-89272999D01*
X94490380Y-89272999D02*
X94538000Y-89130142D01*
X94538000Y-89130142D02*
X94633238Y-89034904D01*
X94633238Y-89034904D02*
X94728476Y-88987285D01*
X94728476Y-88987285D02*
X94918952Y-88939666D01*
X94918952Y-88939666D02*
X95061809Y-88939666D01*
X95061809Y-88939666D02*
X95252285Y-88987285D01*
X95252285Y-88987285D02*
X95347523Y-89034904D01*
X95347523Y-89034904D02*
X95442761Y-89130142D01*
X95442761Y-89130142D02*
X95490380Y-89272999D01*
X95490380Y-89272999D02*
X95490380Y-89511094D01*
X94585619Y-88558713D02*
X94538000Y-88511094D01*
X94538000Y-88511094D02*
X94490380Y-88415856D01*
X94490380Y-88415856D02*
X94490380Y-88177761D01*
X94490380Y-88177761D02*
X94538000Y-88082523D01*
X94538000Y-88082523D02*
X94585619Y-88034904D01*
X94585619Y-88034904D02*
X94680857Y-87987285D01*
X94680857Y-87987285D02*
X94776095Y-87987285D01*
X94776095Y-87987285D02*
X94918952Y-88034904D01*
X94918952Y-88034904D02*
X95490380Y-88606332D01*
X95490380Y-88606332D02*
X95490380Y-87987285D01*
%TO.C,D8*%
X80250380Y-89511094D02*
X79250380Y-89511094D01*
X79250380Y-89511094D02*
X79250380Y-89272999D01*
X79250380Y-89272999D02*
X79298000Y-89130142D01*
X79298000Y-89130142D02*
X79393238Y-89034904D01*
X79393238Y-89034904D02*
X79488476Y-88987285D01*
X79488476Y-88987285D02*
X79678952Y-88939666D01*
X79678952Y-88939666D02*
X79821809Y-88939666D01*
X79821809Y-88939666D02*
X80012285Y-88987285D01*
X80012285Y-88987285D02*
X80107523Y-89034904D01*
X80107523Y-89034904D02*
X80202761Y-89130142D01*
X80202761Y-89130142D02*
X80250380Y-89272999D01*
X80250380Y-89272999D02*
X80250380Y-89511094D01*
X79678952Y-88368237D02*
X79631333Y-88463475D01*
X79631333Y-88463475D02*
X79583714Y-88511094D01*
X79583714Y-88511094D02*
X79488476Y-88558713D01*
X79488476Y-88558713D02*
X79440857Y-88558713D01*
X79440857Y-88558713D02*
X79345619Y-88511094D01*
X79345619Y-88511094D02*
X79298000Y-88463475D01*
X79298000Y-88463475D02*
X79250380Y-88368237D01*
X79250380Y-88368237D02*
X79250380Y-88177761D01*
X79250380Y-88177761D02*
X79298000Y-88082523D01*
X79298000Y-88082523D02*
X79345619Y-88034904D01*
X79345619Y-88034904D02*
X79440857Y-87987285D01*
X79440857Y-87987285D02*
X79488476Y-87987285D01*
X79488476Y-87987285D02*
X79583714Y-88034904D01*
X79583714Y-88034904D02*
X79631333Y-88082523D01*
X79631333Y-88082523D02*
X79678952Y-88177761D01*
X79678952Y-88177761D02*
X79678952Y-88368237D01*
X79678952Y-88368237D02*
X79726571Y-88463475D01*
X79726571Y-88463475D02*
X79774190Y-88511094D01*
X79774190Y-88511094D02*
X79869428Y-88558713D01*
X79869428Y-88558713D02*
X80059904Y-88558713D01*
X80059904Y-88558713D02*
X80155142Y-88511094D01*
X80155142Y-88511094D02*
X80202761Y-88463475D01*
X80202761Y-88463475D02*
X80250380Y-88368237D01*
X80250380Y-88368237D02*
X80250380Y-88177761D01*
X80250380Y-88177761D02*
X80202761Y-88082523D01*
X80202761Y-88082523D02*
X80155142Y-88034904D01*
X80155142Y-88034904D02*
X80059904Y-87987285D01*
X80059904Y-87987285D02*
X79869428Y-87987285D01*
X79869428Y-87987285D02*
X79774190Y-88034904D01*
X79774190Y-88034904D02*
X79726571Y-88082523D01*
X79726571Y-88082523D02*
X79678952Y-88177761D01*
%TO.C,U1*%
X99951380Y-114045904D02*
X100760904Y-114045904D01*
X100760904Y-114045904D02*
X100856142Y-113998285D01*
X100856142Y-113998285D02*
X100903761Y-113950666D01*
X100903761Y-113950666D02*
X100951380Y-113855428D01*
X100951380Y-113855428D02*
X100951380Y-113664952D01*
X100951380Y-113664952D02*
X100903761Y-113569714D01*
X100903761Y-113569714D02*
X100856142Y-113522095D01*
X100856142Y-113522095D02*
X100760904Y-113474476D01*
X100760904Y-113474476D02*
X99951380Y-113474476D01*
X100951380Y-112474476D02*
X100951380Y-113045904D01*
X100951380Y-112760190D02*
X99951380Y-112760190D01*
X99951380Y-112760190D02*
X100094238Y-112855428D01*
X100094238Y-112855428D02*
X100189476Y-112950666D01*
X100189476Y-112950666D02*
X100237095Y-113045904D01*
%TO.C,D7*%
X82790380Y-89511094D02*
X81790380Y-89511094D01*
X81790380Y-89511094D02*
X81790380Y-89272999D01*
X81790380Y-89272999D02*
X81838000Y-89130142D01*
X81838000Y-89130142D02*
X81933238Y-89034904D01*
X81933238Y-89034904D02*
X82028476Y-88987285D01*
X82028476Y-88987285D02*
X82218952Y-88939666D01*
X82218952Y-88939666D02*
X82361809Y-88939666D01*
X82361809Y-88939666D02*
X82552285Y-88987285D01*
X82552285Y-88987285D02*
X82647523Y-89034904D01*
X82647523Y-89034904D02*
X82742761Y-89130142D01*
X82742761Y-89130142D02*
X82790380Y-89272999D01*
X82790380Y-89272999D02*
X82790380Y-89511094D01*
X81790380Y-88606332D02*
X81790380Y-87939666D01*
X81790380Y-87939666D02*
X82790380Y-88368237D01*
%TO.C,D15*%
X128494580Y-89682485D02*
X127494580Y-89682485D01*
X127494580Y-89682485D02*
X127494580Y-89444390D01*
X127494580Y-89444390D02*
X127542200Y-89301533D01*
X127542200Y-89301533D02*
X127637438Y-89206295D01*
X127637438Y-89206295D02*
X127732676Y-89158676D01*
X127732676Y-89158676D02*
X127923152Y-89111057D01*
X127923152Y-89111057D02*
X128066009Y-89111057D01*
X128066009Y-89111057D02*
X128256485Y-89158676D01*
X128256485Y-89158676D02*
X128351723Y-89206295D01*
X128351723Y-89206295D02*
X128446961Y-89301533D01*
X128446961Y-89301533D02*
X128494580Y-89444390D01*
X128494580Y-89444390D02*
X128494580Y-89682485D01*
X128494580Y-88158676D02*
X128494580Y-88730104D01*
X128494580Y-88444390D02*
X127494580Y-88444390D01*
X127494580Y-88444390D02*
X127637438Y-88539628D01*
X127637438Y-88539628D02*
X127732676Y-88634866D01*
X127732676Y-88634866D02*
X127780295Y-88730104D01*
X127494580Y-87253914D02*
X127494580Y-87730104D01*
X127494580Y-87730104D02*
X127970771Y-87777723D01*
X127970771Y-87777723D02*
X127923152Y-87730104D01*
X127923152Y-87730104D02*
X127875533Y-87634866D01*
X127875533Y-87634866D02*
X127875533Y-87396771D01*
X127875533Y-87396771D02*
X127923152Y-87301533D01*
X127923152Y-87301533D02*
X127970771Y-87253914D01*
X127970771Y-87253914D02*
X128066009Y-87206295D01*
X128066009Y-87206295D02*
X128304104Y-87206295D01*
X128304104Y-87206295D02*
X128399342Y-87253914D01*
X128399342Y-87253914D02*
X128446961Y-87301533D01*
X128446961Y-87301533D02*
X128494580Y-87396771D01*
X128494580Y-87396771D02*
X128494580Y-87634866D01*
X128494580Y-87634866D02*
X128446961Y-87730104D01*
X128446961Y-87730104D02*
X128399342Y-87777723D01*
%TO.C,R10*%
X89175142Y-111111380D02*
X88841809Y-110635190D01*
X88603714Y-111111380D02*
X88603714Y-110111380D01*
X88603714Y-110111380D02*
X88984666Y-110111380D01*
X88984666Y-110111380D02*
X89079904Y-110159000D01*
X89079904Y-110159000D02*
X89127523Y-110206619D01*
X89127523Y-110206619D02*
X89175142Y-110301857D01*
X89175142Y-110301857D02*
X89175142Y-110444714D01*
X89175142Y-110444714D02*
X89127523Y-110539952D01*
X89127523Y-110539952D02*
X89079904Y-110587571D01*
X89079904Y-110587571D02*
X88984666Y-110635190D01*
X88984666Y-110635190D02*
X88603714Y-110635190D01*
X90127523Y-111111380D02*
X89556095Y-111111380D01*
X89841809Y-111111380D02*
X89841809Y-110111380D01*
X89841809Y-110111380D02*
X89746571Y-110254238D01*
X89746571Y-110254238D02*
X89651333Y-110349476D01*
X89651333Y-110349476D02*
X89556095Y-110397095D01*
X90746571Y-110111380D02*
X90841809Y-110111380D01*
X90841809Y-110111380D02*
X90937047Y-110159000D01*
X90937047Y-110159000D02*
X90984666Y-110206619D01*
X90984666Y-110206619D02*
X91032285Y-110301857D01*
X91032285Y-110301857D02*
X91079904Y-110492333D01*
X91079904Y-110492333D02*
X91079904Y-110730428D01*
X91079904Y-110730428D02*
X91032285Y-110920904D01*
X91032285Y-110920904D02*
X90984666Y-111016142D01*
X90984666Y-111016142D02*
X90937047Y-111063761D01*
X90937047Y-111063761D02*
X90841809Y-111111380D01*
X90841809Y-111111380D02*
X90746571Y-111111380D01*
X90746571Y-111111380D02*
X90651333Y-111063761D01*
X90651333Y-111063761D02*
X90603714Y-111016142D01*
X90603714Y-111016142D02*
X90556095Y-110920904D01*
X90556095Y-110920904D02*
X90508476Y-110730428D01*
X90508476Y-110730428D02*
X90508476Y-110492333D01*
X90508476Y-110492333D02*
X90556095Y-110301857D01*
X90556095Y-110301857D02*
X90603714Y-110206619D01*
X90603714Y-110206619D02*
X90651333Y-110159000D01*
X90651333Y-110159000D02*
X90746571Y-110111380D01*
%TO.C,D23*%
X108174580Y-89682485D02*
X107174580Y-89682485D01*
X107174580Y-89682485D02*
X107174580Y-89444390D01*
X107174580Y-89444390D02*
X107222200Y-89301533D01*
X107222200Y-89301533D02*
X107317438Y-89206295D01*
X107317438Y-89206295D02*
X107412676Y-89158676D01*
X107412676Y-89158676D02*
X107603152Y-89111057D01*
X107603152Y-89111057D02*
X107746009Y-89111057D01*
X107746009Y-89111057D02*
X107936485Y-89158676D01*
X107936485Y-89158676D02*
X108031723Y-89206295D01*
X108031723Y-89206295D02*
X108126961Y-89301533D01*
X108126961Y-89301533D02*
X108174580Y-89444390D01*
X108174580Y-89444390D02*
X108174580Y-89682485D01*
X107269819Y-88730104D02*
X107222200Y-88682485D01*
X107222200Y-88682485D02*
X107174580Y-88587247D01*
X107174580Y-88587247D02*
X107174580Y-88349152D01*
X107174580Y-88349152D02*
X107222200Y-88253914D01*
X107222200Y-88253914D02*
X107269819Y-88206295D01*
X107269819Y-88206295D02*
X107365057Y-88158676D01*
X107365057Y-88158676D02*
X107460295Y-88158676D01*
X107460295Y-88158676D02*
X107603152Y-88206295D01*
X107603152Y-88206295D02*
X108174580Y-88777723D01*
X108174580Y-88777723D02*
X108174580Y-88158676D01*
X107174580Y-87825342D02*
X107174580Y-87206295D01*
X107174580Y-87206295D02*
X107555533Y-87539628D01*
X107555533Y-87539628D02*
X107555533Y-87396771D01*
X107555533Y-87396771D02*
X107603152Y-87301533D01*
X107603152Y-87301533D02*
X107650771Y-87253914D01*
X107650771Y-87253914D02*
X107746009Y-87206295D01*
X107746009Y-87206295D02*
X107984104Y-87206295D01*
X107984104Y-87206295D02*
X108079342Y-87253914D01*
X108079342Y-87253914D02*
X108126961Y-87301533D01*
X108126961Y-87301533D02*
X108174580Y-87396771D01*
X108174580Y-87396771D02*
X108174580Y-87682485D01*
X108174580Y-87682485D02*
X108126961Y-87777723D01*
X108126961Y-87777723D02*
X108079342Y-87825342D01*
%TO.C,D22*%
X110714580Y-89682485D02*
X109714580Y-89682485D01*
X109714580Y-89682485D02*
X109714580Y-89444390D01*
X109714580Y-89444390D02*
X109762200Y-89301533D01*
X109762200Y-89301533D02*
X109857438Y-89206295D01*
X109857438Y-89206295D02*
X109952676Y-89158676D01*
X109952676Y-89158676D02*
X110143152Y-89111057D01*
X110143152Y-89111057D02*
X110286009Y-89111057D01*
X110286009Y-89111057D02*
X110476485Y-89158676D01*
X110476485Y-89158676D02*
X110571723Y-89206295D01*
X110571723Y-89206295D02*
X110666961Y-89301533D01*
X110666961Y-89301533D02*
X110714580Y-89444390D01*
X110714580Y-89444390D02*
X110714580Y-89682485D01*
X109809819Y-88730104D02*
X109762200Y-88682485D01*
X109762200Y-88682485D02*
X109714580Y-88587247D01*
X109714580Y-88587247D02*
X109714580Y-88349152D01*
X109714580Y-88349152D02*
X109762200Y-88253914D01*
X109762200Y-88253914D02*
X109809819Y-88206295D01*
X109809819Y-88206295D02*
X109905057Y-88158676D01*
X109905057Y-88158676D02*
X110000295Y-88158676D01*
X110000295Y-88158676D02*
X110143152Y-88206295D01*
X110143152Y-88206295D02*
X110714580Y-88777723D01*
X110714580Y-88777723D02*
X110714580Y-88158676D01*
X109809819Y-87777723D02*
X109762200Y-87730104D01*
X109762200Y-87730104D02*
X109714580Y-87634866D01*
X109714580Y-87634866D02*
X109714580Y-87396771D01*
X109714580Y-87396771D02*
X109762200Y-87301533D01*
X109762200Y-87301533D02*
X109809819Y-87253914D01*
X109809819Y-87253914D02*
X109905057Y-87206295D01*
X109905057Y-87206295D02*
X110000295Y-87206295D01*
X110000295Y-87206295D02*
X110143152Y-87253914D01*
X110143152Y-87253914D02*
X110714580Y-87825342D01*
X110714580Y-87825342D02*
X110714580Y-87206295D01*
%TO.C,D20*%
X115794580Y-89682485D02*
X114794580Y-89682485D01*
X114794580Y-89682485D02*
X114794580Y-89444390D01*
X114794580Y-89444390D02*
X114842200Y-89301533D01*
X114842200Y-89301533D02*
X114937438Y-89206295D01*
X114937438Y-89206295D02*
X115032676Y-89158676D01*
X115032676Y-89158676D02*
X115223152Y-89111057D01*
X115223152Y-89111057D02*
X115366009Y-89111057D01*
X115366009Y-89111057D02*
X115556485Y-89158676D01*
X115556485Y-89158676D02*
X115651723Y-89206295D01*
X115651723Y-89206295D02*
X115746961Y-89301533D01*
X115746961Y-89301533D02*
X115794580Y-89444390D01*
X115794580Y-89444390D02*
X115794580Y-89682485D01*
X114889819Y-88730104D02*
X114842200Y-88682485D01*
X114842200Y-88682485D02*
X114794580Y-88587247D01*
X114794580Y-88587247D02*
X114794580Y-88349152D01*
X114794580Y-88349152D02*
X114842200Y-88253914D01*
X114842200Y-88253914D02*
X114889819Y-88206295D01*
X114889819Y-88206295D02*
X114985057Y-88158676D01*
X114985057Y-88158676D02*
X115080295Y-88158676D01*
X115080295Y-88158676D02*
X115223152Y-88206295D01*
X115223152Y-88206295D02*
X115794580Y-88777723D01*
X115794580Y-88777723D02*
X115794580Y-88158676D01*
X114794580Y-87539628D02*
X114794580Y-87444390D01*
X114794580Y-87444390D02*
X114842200Y-87349152D01*
X114842200Y-87349152D02*
X114889819Y-87301533D01*
X114889819Y-87301533D02*
X114985057Y-87253914D01*
X114985057Y-87253914D02*
X115175533Y-87206295D01*
X115175533Y-87206295D02*
X115413628Y-87206295D01*
X115413628Y-87206295D02*
X115604104Y-87253914D01*
X115604104Y-87253914D02*
X115699342Y-87301533D01*
X115699342Y-87301533D02*
X115746961Y-87349152D01*
X115746961Y-87349152D02*
X115794580Y-87444390D01*
X115794580Y-87444390D02*
X115794580Y-87539628D01*
X115794580Y-87539628D02*
X115746961Y-87634866D01*
X115746961Y-87634866D02*
X115699342Y-87682485D01*
X115699342Y-87682485D02*
X115604104Y-87730104D01*
X115604104Y-87730104D02*
X115413628Y-87777723D01*
X115413628Y-87777723D02*
X115175533Y-87777723D01*
X115175533Y-87777723D02*
X114985057Y-87730104D01*
X114985057Y-87730104D02*
X114889819Y-87682485D01*
X114889819Y-87682485D02*
X114842200Y-87634866D01*
X114842200Y-87634866D02*
X114794580Y-87539628D01*
%TO.C,D14*%
X131034580Y-89682485D02*
X130034580Y-89682485D01*
X130034580Y-89682485D02*
X130034580Y-89444390D01*
X130034580Y-89444390D02*
X130082200Y-89301533D01*
X130082200Y-89301533D02*
X130177438Y-89206295D01*
X130177438Y-89206295D02*
X130272676Y-89158676D01*
X130272676Y-89158676D02*
X130463152Y-89111057D01*
X130463152Y-89111057D02*
X130606009Y-89111057D01*
X130606009Y-89111057D02*
X130796485Y-89158676D01*
X130796485Y-89158676D02*
X130891723Y-89206295D01*
X130891723Y-89206295D02*
X130986961Y-89301533D01*
X130986961Y-89301533D02*
X131034580Y-89444390D01*
X131034580Y-89444390D02*
X131034580Y-89682485D01*
X131034580Y-88158676D02*
X131034580Y-88730104D01*
X131034580Y-88444390D02*
X130034580Y-88444390D01*
X130034580Y-88444390D02*
X130177438Y-88539628D01*
X130177438Y-88539628D02*
X130272676Y-88634866D01*
X130272676Y-88634866D02*
X130320295Y-88730104D01*
X130367914Y-87301533D02*
X131034580Y-87301533D01*
X129986961Y-87539628D02*
X130701247Y-87777723D01*
X130701247Y-87777723D02*
X130701247Y-87158676D01*
%TO.C,Q6*%
X86010761Y-95204619D02*
X85915523Y-95157000D01*
X85915523Y-95157000D02*
X85820285Y-95061761D01*
X85820285Y-95061761D02*
X85677428Y-94918904D01*
X85677428Y-94918904D02*
X85582190Y-94871285D01*
X85582190Y-94871285D02*
X85486952Y-94871285D01*
X85534571Y-95109380D02*
X85439333Y-95061761D01*
X85439333Y-95061761D02*
X85344095Y-94966523D01*
X85344095Y-94966523D02*
X85296476Y-94776047D01*
X85296476Y-94776047D02*
X85296476Y-94442714D01*
X85296476Y-94442714D02*
X85344095Y-94252238D01*
X85344095Y-94252238D02*
X85439333Y-94157000D01*
X85439333Y-94157000D02*
X85534571Y-94109380D01*
X85534571Y-94109380D02*
X85725047Y-94109380D01*
X85725047Y-94109380D02*
X85820285Y-94157000D01*
X85820285Y-94157000D02*
X85915523Y-94252238D01*
X85915523Y-94252238D02*
X85963142Y-94442714D01*
X85963142Y-94442714D02*
X85963142Y-94776047D01*
X85963142Y-94776047D02*
X85915523Y-94966523D01*
X85915523Y-94966523D02*
X85820285Y-95061761D01*
X85820285Y-95061761D02*
X85725047Y-95109380D01*
X85725047Y-95109380D02*
X85534571Y-95109380D01*
X86820285Y-94109380D02*
X86629809Y-94109380D01*
X86629809Y-94109380D02*
X86534571Y-94157000D01*
X86534571Y-94157000D02*
X86486952Y-94204619D01*
X86486952Y-94204619D02*
X86391714Y-94347476D01*
X86391714Y-94347476D02*
X86344095Y-94537952D01*
X86344095Y-94537952D02*
X86344095Y-94918904D01*
X86344095Y-94918904D02*
X86391714Y-95014142D01*
X86391714Y-95014142D02*
X86439333Y-95061761D01*
X86439333Y-95061761D02*
X86534571Y-95109380D01*
X86534571Y-95109380D02*
X86725047Y-95109380D01*
X86725047Y-95109380D02*
X86820285Y-95061761D01*
X86820285Y-95061761D02*
X86867904Y-95014142D01*
X86867904Y-95014142D02*
X86915523Y-94918904D01*
X86915523Y-94918904D02*
X86915523Y-94680809D01*
X86915523Y-94680809D02*
X86867904Y-94585571D01*
X86867904Y-94585571D02*
X86820285Y-94537952D01*
X86820285Y-94537952D02*
X86725047Y-94490333D01*
X86725047Y-94490333D02*
X86534571Y-94490333D01*
X86534571Y-94490333D02*
X86439333Y-94537952D01*
X86439333Y-94537952D02*
X86391714Y-94585571D01*
X86391714Y-94585571D02*
X86344095Y-94680809D01*
%TO.C,Q8*%
X80930761Y-95204619D02*
X80835523Y-95157000D01*
X80835523Y-95157000D02*
X80740285Y-95061761D01*
X80740285Y-95061761D02*
X80597428Y-94918904D01*
X80597428Y-94918904D02*
X80502190Y-94871285D01*
X80502190Y-94871285D02*
X80406952Y-94871285D01*
X80454571Y-95109380D02*
X80359333Y-95061761D01*
X80359333Y-95061761D02*
X80264095Y-94966523D01*
X80264095Y-94966523D02*
X80216476Y-94776047D01*
X80216476Y-94776047D02*
X80216476Y-94442714D01*
X80216476Y-94442714D02*
X80264095Y-94252238D01*
X80264095Y-94252238D02*
X80359333Y-94157000D01*
X80359333Y-94157000D02*
X80454571Y-94109380D01*
X80454571Y-94109380D02*
X80645047Y-94109380D01*
X80645047Y-94109380D02*
X80740285Y-94157000D01*
X80740285Y-94157000D02*
X80835523Y-94252238D01*
X80835523Y-94252238D02*
X80883142Y-94442714D01*
X80883142Y-94442714D02*
X80883142Y-94776047D01*
X80883142Y-94776047D02*
X80835523Y-94966523D01*
X80835523Y-94966523D02*
X80740285Y-95061761D01*
X80740285Y-95061761D02*
X80645047Y-95109380D01*
X80645047Y-95109380D02*
X80454571Y-95109380D01*
X81454571Y-94537952D02*
X81359333Y-94490333D01*
X81359333Y-94490333D02*
X81311714Y-94442714D01*
X81311714Y-94442714D02*
X81264095Y-94347476D01*
X81264095Y-94347476D02*
X81264095Y-94299857D01*
X81264095Y-94299857D02*
X81311714Y-94204619D01*
X81311714Y-94204619D02*
X81359333Y-94157000D01*
X81359333Y-94157000D02*
X81454571Y-94109380D01*
X81454571Y-94109380D02*
X81645047Y-94109380D01*
X81645047Y-94109380D02*
X81740285Y-94157000D01*
X81740285Y-94157000D02*
X81787904Y-94204619D01*
X81787904Y-94204619D02*
X81835523Y-94299857D01*
X81835523Y-94299857D02*
X81835523Y-94347476D01*
X81835523Y-94347476D02*
X81787904Y-94442714D01*
X81787904Y-94442714D02*
X81740285Y-94490333D01*
X81740285Y-94490333D02*
X81645047Y-94537952D01*
X81645047Y-94537952D02*
X81454571Y-94537952D01*
X81454571Y-94537952D02*
X81359333Y-94585571D01*
X81359333Y-94585571D02*
X81311714Y-94633190D01*
X81311714Y-94633190D02*
X81264095Y-94728428D01*
X81264095Y-94728428D02*
X81264095Y-94918904D01*
X81264095Y-94918904D02*
X81311714Y-95014142D01*
X81311714Y-95014142D02*
X81359333Y-95061761D01*
X81359333Y-95061761D02*
X81454571Y-95109380D01*
X81454571Y-95109380D02*
X81645047Y-95109380D01*
X81645047Y-95109380D02*
X81740285Y-95061761D01*
X81740285Y-95061761D02*
X81787904Y-95014142D01*
X81787904Y-95014142D02*
X81835523Y-94918904D01*
X81835523Y-94918904D02*
X81835523Y-94728428D01*
X81835523Y-94728428D02*
X81787904Y-94633190D01*
X81787904Y-94633190D02*
X81740285Y-94585571D01*
X81740285Y-94585571D02*
X81645047Y-94537952D01*
%TO.C,D11*%
X138654580Y-89682485D02*
X137654580Y-89682485D01*
X137654580Y-89682485D02*
X137654580Y-89444390D01*
X137654580Y-89444390D02*
X137702200Y-89301533D01*
X137702200Y-89301533D02*
X137797438Y-89206295D01*
X137797438Y-89206295D02*
X137892676Y-89158676D01*
X137892676Y-89158676D02*
X138083152Y-89111057D01*
X138083152Y-89111057D02*
X138226009Y-89111057D01*
X138226009Y-89111057D02*
X138416485Y-89158676D01*
X138416485Y-89158676D02*
X138511723Y-89206295D01*
X138511723Y-89206295D02*
X138606961Y-89301533D01*
X138606961Y-89301533D02*
X138654580Y-89444390D01*
X138654580Y-89444390D02*
X138654580Y-89682485D01*
X138654580Y-88158676D02*
X138654580Y-88730104D01*
X138654580Y-88444390D02*
X137654580Y-88444390D01*
X137654580Y-88444390D02*
X137797438Y-88539628D01*
X137797438Y-88539628D02*
X137892676Y-88634866D01*
X137892676Y-88634866D02*
X137940295Y-88730104D01*
X138654580Y-87206295D02*
X138654580Y-87777723D01*
X138654580Y-87492009D02*
X137654580Y-87492009D01*
X137654580Y-87492009D02*
X137797438Y-87587247D01*
X137797438Y-87587247D02*
X137892676Y-87682485D01*
X137892676Y-87682485D02*
X137940295Y-87777723D01*
%TO.C,R4*%
X96001333Y-109206380D02*
X95668000Y-108730190D01*
X95429905Y-109206380D02*
X95429905Y-108206380D01*
X95429905Y-108206380D02*
X95810857Y-108206380D01*
X95810857Y-108206380D02*
X95906095Y-108254000D01*
X95906095Y-108254000D02*
X95953714Y-108301619D01*
X95953714Y-108301619D02*
X96001333Y-108396857D01*
X96001333Y-108396857D02*
X96001333Y-108539714D01*
X96001333Y-108539714D02*
X95953714Y-108634952D01*
X95953714Y-108634952D02*
X95906095Y-108682571D01*
X95906095Y-108682571D02*
X95810857Y-108730190D01*
X95810857Y-108730190D02*
X95429905Y-108730190D01*
X96858476Y-108539714D02*
X96858476Y-109206380D01*
X96620381Y-108158761D02*
X96382286Y-108873047D01*
X96382286Y-108873047D02*
X97001333Y-108873047D01*
%TO.C,D21*%
X113254580Y-89682485D02*
X112254580Y-89682485D01*
X112254580Y-89682485D02*
X112254580Y-89444390D01*
X112254580Y-89444390D02*
X112302200Y-89301533D01*
X112302200Y-89301533D02*
X112397438Y-89206295D01*
X112397438Y-89206295D02*
X112492676Y-89158676D01*
X112492676Y-89158676D02*
X112683152Y-89111057D01*
X112683152Y-89111057D02*
X112826009Y-89111057D01*
X112826009Y-89111057D02*
X113016485Y-89158676D01*
X113016485Y-89158676D02*
X113111723Y-89206295D01*
X113111723Y-89206295D02*
X113206961Y-89301533D01*
X113206961Y-89301533D02*
X113254580Y-89444390D01*
X113254580Y-89444390D02*
X113254580Y-89682485D01*
X112349819Y-88730104D02*
X112302200Y-88682485D01*
X112302200Y-88682485D02*
X112254580Y-88587247D01*
X112254580Y-88587247D02*
X112254580Y-88349152D01*
X112254580Y-88349152D02*
X112302200Y-88253914D01*
X112302200Y-88253914D02*
X112349819Y-88206295D01*
X112349819Y-88206295D02*
X112445057Y-88158676D01*
X112445057Y-88158676D02*
X112540295Y-88158676D01*
X112540295Y-88158676D02*
X112683152Y-88206295D01*
X112683152Y-88206295D02*
X113254580Y-88777723D01*
X113254580Y-88777723D02*
X113254580Y-88158676D01*
X113254580Y-87206295D02*
X113254580Y-87777723D01*
X113254580Y-87492009D02*
X112254580Y-87492009D01*
X112254580Y-87492009D02*
X112397438Y-87587247D01*
X112397438Y-87587247D02*
X112492676Y-87682485D01*
X112492676Y-87682485D02*
X112540295Y-87777723D01*
%TO.C,R2*%
X100951380Y-105322666D02*
X100475190Y-105655999D01*
X100951380Y-105894094D02*
X99951380Y-105894094D01*
X99951380Y-105894094D02*
X99951380Y-105513142D01*
X99951380Y-105513142D02*
X99999000Y-105417904D01*
X99999000Y-105417904D02*
X100046619Y-105370285D01*
X100046619Y-105370285D02*
X100141857Y-105322666D01*
X100141857Y-105322666D02*
X100284714Y-105322666D01*
X100284714Y-105322666D02*
X100379952Y-105370285D01*
X100379952Y-105370285D02*
X100427571Y-105417904D01*
X100427571Y-105417904D02*
X100475190Y-105513142D01*
X100475190Y-105513142D02*
X100475190Y-105894094D01*
X100046619Y-104941713D02*
X99999000Y-104894094D01*
X99999000Y-104894094D02*
X99951380Y-104798856D01*
X99951380Y-104798856D02*
X99951380Y-104560761D01*
X99951380Y-104560761D02*
X99999000Y-104465523D01*
X99999000Y-104465523D02*
X100046619Y-104417904D01*
X100046619Y-104417904D02*
X100141857Y-104370285D01*
X100141857Y-104370285D02*
X100237095Y-104370285D01*
X100237095Y-104370285D02*
X100379952Y-104417904D01*
X100379952Y-104417904D02*
X100951380Y-104989332D01*
X100951380Y-104989332D02*
X100951380Y-104370285D01*
%TO.C,J3*%
X146252380Y-92633333D02*
X146966666Y-92633333D01*
X146966666Y-92633333D02*
X147109523Y-92680952D01*
X147109523Y-92680952D02*
X147204761Y-92776190D01*
X147204761Y-92776190D02*
X147252380Y-92919047D01*
X147252380Y-92919047D02*
X147252380Y-93014285D01*
X146252380Y-92252380D02*
X146252380Y-91633333D01*
X146252380Y-91633333D02*
X146633333Y-91966666D01*
X146633333Y-91966666D02*
X146633333Y-91823809D01*
X146633333Y-91823809D02*
X146680952Y-91728571D01*
X146680952Y-91728571D02*
X146728571Y-91680952D01*
X146728571Y-91680952D02*
X146823809Y-91633333D01*
X146823809Y-91633333D02*
X147061904Y-91633333D01*
X147061904Y-91633333D02*
X147157142Y-91680952D01*
X147157142Y-91680952D02*
X147204761Y-91728571D01*
X147204761Y-91728571D02*
X147252380Y-91823809D01*
X147252380Y-91823809D02*
X147252380Y-92109523D01*
X147252380Y-92109523D02*
X147204761Y-92204761D01*
X147204761Y-92204761D02*
X147157142Y-92252380D01*
%TO.C,D1*%
X98030380Y-89511094D02*
X97030380Y-89511094D01*
X97030380Y-89511094D02*
X97030380Y-89272999D01*
X97030380Y-89272999D02*
X97078000Y-89130142D01*
X97078000Y-89130142D02*
X97173238Y-89034904D01*
X97173238Y-89034904D02*
X97268476Y-88987285D01*
X97268476Y-88987285D02*
X97458952Y-88939666D01*
X97458952Y-88939666D02*
X97601809Y-88939666D01*
X97601809Y-88939666D02*
X97792285Y-88987285D01*
X97792285Y-88987285D02*
X97887523Y-89034904D01*
X97887523Y-89034904D02*
X97982761Y-89130142D01*
X97982761Y-89130142D02*
X98030380Y-89272999D01*
X98030380Y-89272999D02*
X98030380Y-89511094D01*
X98030380Y-87987285D02*
X98030380Y-88558713D01*
X98030380Y-88272999D02*
X97030380Y-88272999D01*
X97030380Y-88272999D02*
X97173238Y-88368237D01*
X97173238Y-88368237D02*
X97268476Y-88463475D01*
X97268476Y-88463475D02*
X97316095Y-88558713D01*
%TO.C,U3*%
X122430380Y-104901904D02*
X123239904Y-104901904D01*
X123239904Y-104901904D02*
X123335142Y-104854285D01*
X123335142Y-104854285D02*
X123382761Y-104806666D01*
X123382761Y-104806666D02*
X123430380Y-104711428D01*
X123430380Y-104711428D02*
X123430380Y-104520952D01*
X123430380Y-104520952D02*
X123382761Y-104425714D01*
X123382761Y-104425714D02*
X123335142Y-104378095D01*
X123335142Y-104378095D02*
X123239904Y-104330476D01*
X123239904Y-104330476D02*
X122430380Y-104330476D01*
X122430380Y-103949523D02*
X122430380Y-103330476D01*
X122430380Y-103330476D02*
X122811333Y-103663809D01*
X122811333Y-103663809D02*
X122811333Y-103520952D01*
X122811333Y-103520952D02*
X122858952Y-103425714D01*
X122858952Y-103425714D02*
X122906571Y-103378095D01*
X122906571Y-103378095D02*
X123001809Y-103330476D01*
X123001809Y-103330476D02*
X123239904Y-103330476D01*
X123239904Y-103330476D02*
X123335142Y-103378095D01*
X123335142Y-103378095D02*
X123382761Y-103425714D01*
X123382761Y-103425714D02*
X123430380Y-103520952D01*
X123430380Y-103520952D02*
X123430380Y-103806666D01*
X123430380Y-103806666D02*
X123382761Y-103901904D01*
X123382761Y-103901904D02*
X123335142Y-103949523D01*
%TO.C,R6*%
X94731333Y-111111380D02*
X94398000Y-110635190D01*
X94159905Y-111111380D02*
X94159905Y-110111380D01*
X94159905Y-110111380D02*
X94540857Y-110111380D01*
X94540857Y-110111380D02*
X94636095Y-110159000D01*
X94636095Y-110159000D02*
X94683714Y-110206619D01*
X94683714Y-110206619D02*
X94731333Y-110301857D01*
X94731333Y-110301857D02*
X94731333Y-110444714D01*
X94731333Y-110444714D02*
X94683714Y-110539952D01*
X94683714Y-110539952D02*
X94636095Y-110587571D01*
X94636095Y-110587571D02*
X94540857Y-110635190D01*
X94540857Y-110635190D02*
X94159905Y-110635190D01*
X95588476Y-110111380D02*
X95398000Y-110111380D01*
X95398000Y-110111380D02*
X95302762Y-110159000D01*
X95302762Y-110159000D02*
X95255143Y-110206619D01*
X95255143Y-110206619D02*
X95159905Y-110349476D01*
X95159905Y-110349476D02*
X95112286Y-110539952D01*
X95112286Y-110539952D02*
X95112286Y-110920904D01*
X95112286Y-110920904D02*
X95159905Y-111016142D01*
X95159905Y-111016142D02*
X95207524Y-111063761D01*
X95207524Y-111063761D02*
X95302762Y-111111380D01*
X95302762Y-111111380D02*
X95493238Y-111111380D01*
X95493238Y-111111380D02*
X95588476Y-111063761D01*
X95588476Y-111063761D02*
X95636095Y-111016142D01*
X95636095Y-111016142D02*
X95683714Y-110920904D01*
X95683714Y-110920904D02*
X95683714Y-110682809D01*
X95683714Y-110682809D02*
X95636095Y-110587571D01*
X95636095Y-110587571D02*
X95588476Y-110539952D01*
X95588476Y-110539952D02*
X95493238Y-110492333D01*
X95493238Y-110492333D02*
X95302762Y-110492333D01*
X95302762Y-110492333D02*
X95207524Y-110539952D01*
X95207524Y-110539952D02*
X95159905Y-110587571D01*
X95159905Y-110587571D02*
X95112286Y-110682809D01*
%TO.C,D6*%
X85330380Y-89511094D02*
X84330380Y-89511094D01*
X84330380Y-89511094D02*
X84330380Y-89272999D01*
X84330380Y-89272999D02*
X84378000Y-89130142D01*
X84378000Y-89130142D02*
X84473238Y-89034904D01*
X84473238Y-89034904D02*
X84568476Y-88987285D01*
X84568476Y-88987285D02*
X84758952Y-88939666D01*
X84758952Y-88939666D02*
X84901809Y-88939666D01*
X84901809Y-88939666D02*
X85092285Y-88987285D01*
X85092285Y-88987285D02*
X85187523Y-89034904D01*
X85187523Y-89034904D02*
X85282761Y-89130142D01*
X85282761Y-89130142D02*
X85330380Y-89272999D01*
X85330380Y-89272999D02*
X85330380Y-89511094D01*
X84330380Y-88082523D02*
X84330380Y-88272999D01*
X84330380Y-88272999D02*
X84378000Y-88368237D01*
X84378000Y-88368237D02*
X84425619Y-88415856D01*
X84425619Y-88415856D02*
X84568476Y-88511094D01*
X84568476Y-88511094D02*
X84758952Y-88558713D01*
X84758952Y-88558713D02*
X85139904Y-88558713D01*
X85139904Y-88558713D02*
X85235142Y-88511094D01*
X85235142Y-88511094D02*
X85282761Y-88463475D01*
X85282761Y-88463475D02*
X85330380Y-88368237D01*
X85330380Y-88368237D02*
X85330380Y-88177761D01*
X85330380Y-88177761D02*
X85282761Y-88082523D01*
X85282761Y-88082523D02*
X85235142Y-88034904D01*
X85235142Y-88034904D02*
X85139904Y-87987285D01*
X85139904Y-87987285D02*
X84901809Y-87987285D01*
X84901809Y-87987285D02*
X84806571Y-88034904D01*
X84806571Y-88034904D02*
X84758952Y-88082523D01*
X84758952Y-88082523D02*
X84711333Y-88177761D01*
X84711333Y-88177761D02*
X84711333Y-88368237D01*
X84711333Y-88368237D02*
X84758952Y-88463475D01*
X84758952Y-88463475D02*
X84806571Y-88511094D01*
X84806571Y-88511094D02*
X84901809Y-88558713D01*
%TO.C,Q2*%
X96170761Y-95204619D02*
X96075523Y-95157000D01*
X96075523Y-95157000D02*
X95980285Y-95061761D01*
X95980285Y-95061761D02*
X95837428Y-94918904D01*
X95837428Y-94918904D02*
X95742190Y-94871285D01*
X95742190Y-94871285D02*
X95646952Y-94871285D01*
X95694571Y-95109380D02*
X95599333Y-95061761D01*
X95599333Y-95061761D02*
X95504095Y-94966523D01*
X95504095Y-94966523D02*
X95456476Y-94776047D01*
X95456476Y-94776047D02*
X95456476Y-94442714D01*
X95456476Y-94442714D02*
X95504095Y-94252238D01*
X95504095Y-94252238D02*
X95599333Y-94157000D01*
X95599333Y-94157000D02*
X95694571Y-94109380D01*
X95694571Y-94109380D02*
X95885047Y-94109380D01*
X95885047Y-94109380D02*
X95980285Y-94157000D01*
X95980285Y-94157000D02*
X96075523Y-94252238D01*
X96075523Y-94252238D02*
X96123142Y-94442714D01*
X96123142Y-94442714D02*
X96123142Y-94776047D01*
X96123142Y-94776047D02*
X96075523Y-94966523D01*
X96075523Y-94966523D02*
X95980285Y-95061761D01*
X95980285Y-95061761D02*
X95885047Y-95109380D01*
X95885047Y-95109380D02*
X95694571Y-95109380D01*
X96504095Y-94204619D02*
X96551714Y-94157000D01*
X96551714Y-94157000D02*
X96646952Y-94109380D01*
X96646952Y-94109380D02*
X96885047Y-94109380D01*
X96885047Y-94109380D02*
X96980285Y-94157000D01*
X96980285Y-94157000D02*
X97027904Y-94204619D01*
X97027904Y-94204619D02*
X97075523Y-94299857D01*
X97075523Y-94299857D02*
X97075523Y-94395095D01*
X97075523Y-94395095D02*
X97027904Y-94537952D01*
X97027904Y-94537952D02*
X96456476Y-95109380D01*
X96456476Y-95109380D02*
X97075523Y-95109380D01*
%TO.C,U2*%
X144020380Y-104647904D02*
X144829904Y-104647904D01*
X144829904Y-104647904D02*
X144925142Y-104600285D01*
X144925142Y-104600285D02*
X144972761Y-104552666D01*
X144972761Y-104552666D02*
X145020380Y-104457428D01*
X145020380Y-104457428D02*
X145020380Y-104266952D01*
X145020380Y-104266952D02*
X144972761Y-104171714D01*
X144972761Y-104171714D02*
X144925142Y-104124095D01*
X144925142Y-104124095D02*
X144829904Y-104076476D01*
X144829904Y-104076476D02*
X144020380Y-104076476D01*
X144115619Y-103647904D02*
X144068000Y-103600285D01*
X144068000Y-103600285D02*
X144020380Y-103505047D01*
X144020380Y-103505047D02*
X144020380Y-103266952D01*
X144020380Y-103266952D02*
X144068000Y-103171714D01*
X144068000Y-103171714D02*
X144115619Y-103124095D01*
X144115619Y-103124095D02*
X144210857Y-103076476D01*
X144210857Y-103076476D02*
X144306095Y-103076476D01*
X144306095Y-103076476D02*
X144448952Y-103124095D01*
X144448952Y-103124095D02*
X145020380Y-103695523D01*
X145020380Y-103695523D02*
X145020380Y-103076476D01*
%TO.C,R8*%
X90921333Y-109206380D02*
X90588000Y-108730190D01*
X90349905Y-109206380D02*
X90349905Y-108206380D01*
X90349905Y-108206380D02*
X90730857Y-108206380D01*
X90730857Y-108206380D02*
X90826095Y-108254000D01*
X90826095Y-108254000D02*
X90873714Y-108301619D01*
X90873714Y-108301619D02*
X90921333Y-108396857D01*
X90921333Y-108396857D02*
X90921333Y-108539714D01*
X90921333Y-108539714D02*
X90873714Y-108634952D01*
X90873714Y-108634952D02*
X90826095Y-108682571D01*
X90826095Y-108682571D02*
X90730857Y-108730190D01*
X90730857Y-108730190D02*
X90349905Y-108730190D01*
X91492762Y-108634952D02*
X91397524Y-108587333D01*
X91397524Y-108587333D02*
X91349905Y-108539714D01*
X91349905Y-108539714D02*
X91302286Y-108444476D01*
X91302286Y-108444476D02*
X91302286Y-108396857D01*
X91302286Y-108396857D02*
X91349905Y-108301619D01*
X91349905Y-108301619D02*
X91397524Y-108254000D01*
X91397524Y-108254000D02*
X91492762Y-108206380D01*
X91492762Y-108206380D02*
X91683238Y-108206380D01*
X91683238Y-108206380D02*
X91778476Y-108254000D01*
X91778476Y-108254000D02*
X91826095Y-108301619D01*
X91826095Y-108301619D02*
X91873714Y-108396857D01*
X91873714Y-108396857D02*
X91873714Y-108444476D01*
X91873714Y-108444476D02*
X91826095Y-108539714D01*
X91826095Y-108539714D02*
X91778476Y-108587333D01*
X91778476Y-108587333D02*
X91683238Y-108634952D01*
X91683238Y-108634952D02*
X91492762Y-108634952D01*
X91492762Y-108634952D02*
X91397524Y-108682571D01*
X91397524Y-108682571D02*
X91349905Y-108730190D01*
X91349905Y-108730190D02*
X91302286Y-108825428D01*
X91302286Y-108825428D02*
X91302286Y-109015904D01*
X91302286Y-109015904D02*
X91349905Y-109111142D01*
X91349905Y-109111142D02*
X91397524Y-109158761D01*
X91397524Y-109158761D02*
X91492762Y-109206380D01*
X91492762Y-109206380D02*
X91683238Y-109206380D01*
X91683238Y-109206380D02*
X91778476Y-109158761D01*
X91778476Y-109158761D02*
X91826095Y-109111142D01*
X91826095Y-109111142D02*
X91873714Y-109015904D01*
X91873714Y-109015904D02*
X91873714Y-108825428D01*
X91873714Y-108825428D02*
X91826095Y-108730190D01*
X91826095Y-108730190D02*
X91778476Y-108682571D01*
X91778476Y-108682571D02*
X91683238Y-108634952D01*
%TO.C,D16*%
X125954580Y-89682485D02*
X124954580Y-89682485D01*
X124954580Y-89682485D02*
X124954580Y-89444390D01*
X124954580Y-89444390D02*
X125002200Y-89301533D01*
X125002200Y-89301533D02*
X125097438Y-89206295D01*
X125097438Y-89206295D02*
X125192676Y-89158676D01*
X125192676Y-89158676D02*
X125383152Y-89111057D01*
X125383152Y-89111057D02*
X125526009Y-89111057D01*
X125526009Y-89111057D02*
X125716485Y-89158676D01*
X125716485Y-89158676D02*
X125811723Y-89206295D01*
X125811723Y-89206295D02*
X125906961Y-89301533D01*
X125906961Y-89301533D02*
X125954580Y-89444390D01*
X125954580Y-89444390D02*
X125954580Y-89682485D01*
X125954580Y-88158676D02*
X125954580Y-88730104D01*
X125954580Y-88444390D02*
X124954580Y-88444390D01*
X124954580Y-88444390D02*
X125097438Y-88539628D01*
X125097438Y-88539628D02*
X125192676Y-88634866D01*
X125192676Y-88634866D02*
X125240295Y-88730104D01*
X124954580Y-87301533D02*
X124954580Y-87492009D01*
X124954580Y-87492009D02*
X125002200Y-87587247D01*
X125002200Y-87587247D02*
X125049819Y-87634866D01*
X125049819Y-87634866D02*
X125192676Y-87730104D01*
X125192676Y-87730104D02*
X125383152Y-87777723D01*
X125383152Y-87777723D02*
X125764104Y-87777723D01*
X125764104Y-87777723D02*
X125859342Y-87730104D01*
X125859342Y-87730104D02*
X125906961Y-87682485D01*
X125906961Y-87682485D02*
X125954580Y-87587247D01*
X125954580Y-87587247D02*
X125954580Y-87396771D01*
X125954580Y-87396771D02*
X125906961Y-87301533D01*
X125906961Y-87301533D02*
X125859342Y-87253914D01*
X125859342Y-87253914D02*
X125764104Y-87206295D01*
X125764104Y-87206295D02*
X125526009Y-87206295D01*
X125526009Y-87206295D02*
X125430771Y-87253914D01*
X125430771Y-87253914D02*
X125383152Y-87301533D01*
X125383152Y-87301533D02*
X125335533Y-87396771D01*
X125335533Y-87396771D02*
X125335533Y-87587247D01*
X125335533Y-87587247D02*
X125383152Y-87682485D01*
X125383152Y-87682485D02*
X125430771Y-87730104D01*
X125430771Y-87730104D02*
X125526009Y-87777723D01*
%TO.C,D18*%
X120874580Y-89682485D02*
X119874580Y-89682485D01*
X119874580Y-89682485D02*
X119874580Y-89444390D01*
X119874580Y-89444390D02*
X119922200Y-89301533D01*
X119922200Y-89301533D02*
X120017438Y-89206295D01*
X120017438Y-89206295D02*
X120112676Y-89158676D01*
X120112676Y-89158676D02*
X120303152Y-89111057D01*
X120303152Y-89111057D02*
X120446009Y-89111057D01*
X120446009Y-89111057D02*
X120636485Y-89158676D01*
X120636485Y-89158676D02*
X120731723Y-89206295D01*
X120731723Y-89206295D02*
X120826961Y-89301533D01*
X120826961Y-89301533D02*
X120874580Y-89444390D01*
X120874580Y-89444390D02*
X120874580Y-89682485D01*
X120874580Y-88158676D02*
X120874580Y-88730104D01*
X120874580Y-88444390D02*
X119874580Y-88444390D01*
X119874580Y-88444390D02*
X120017438Y-88539628D01*
X120017438Y-88539628D02*
X120112676Y-88634866D01*
X120112676Y-88634866D02*
X120160295Y-88730104D01*
X120303152Y-87587247D02*
X120255533Y-87682485D01*
X120255533Y-87682485D02*
X120207914Y-87730104D01*
X120207914Y-87730104D02*
X120112676Y-87777723D01*
X120112676Y-87777723D02*
X120065057Y-87777723D01*
X120065057Y-87777723D02*
X119969819Y-87730104D01*
X119969819Y-87730104D02*
X119922200Y-87682485D01*
X119922200Y-87682485D02*
X119874580Y-87587247D01*
X119874580Y-87587247D02*
X119874580Y-87396771D01*
X119874580Y-87396771D02*
X119922200Y-87301533D01*
X119922200Y-87301533D02*
X119969819Y-87253914D01*
X119969819Y-87253914D02*
X120065057Y-87206295D01*
X120065057Y-87206295D02*
X120112676Y-87206295D01*
X120112676Y-87206295D02*
X120207914Y-87253914D01*
X120207914Y-87253914D02*
X120255533Y-87301533D01*
X120255533Y-87301533D02*
X120303152Y-87396771D01*
X120303152Y-87396771D02*
X120303152Y-87587247D01*
X120303152Y-87587247D02*
X120350771Y-87682485D01*
X120350771Y-87682485D02*
X120398390Y-87730104D01*
X120398390Y-87730104D02*
X120493628Y-87777723D01*
X120493628Y-87777723D02*
X120684104Y-87777723D01*
X120684104Y-87777723D02*
X120779342Y-87730104D01*
X120779342Y-87730104D02*
X120826961Y-87682485D01*
X120826961Y-87682485D02*
X120874580Y-87587247D01*
X120874580Y-87587247D02*
X120874580Y-87396771D01*
X120874580Y-87396771D02*
X120826961Y-87301533D01*
X120826961Y-87301533D02*
X120779342Y-87253914D01*
X120779342Y-87253914D02*
X120684104Y-87206295D01*
X120684104Y-87206295D02*
X120493628Y-87206295D01*
X120493628Y-87206295D02*
X120398390Y-87253914D01*
X120398390Y-87253914D02*
X120350771Y-87301533D01*
X120350771Y-87301533D02*
X120303152Y-87396771D01*
%TO.C,J1*%
X74850666Y-114683380D02*
X74850666Y-115397666D01*
X74850666Y-115397666D02*
X74803047Y-115540523D01*
X74803047Y-115540523D02*
X74707809Y-115635761D01*
X74707809Y-115635761D02*
X74564952Y-115683380D01*
X74564952Y-115683380D02*
X74469714Y-115683380D01*
X75850666Y-115683380D02*
X75279238Y-115683380D01*
X75564952Y-115683380D02*
X75564952Y-114683380D01*
X75564952Y-114683380D02*
X75469714Y-114826238D01*
X75469714Y-114826238D02*
X75374476Y-114921476D01*
X75374476Y-114921476D02*
X75279238Y-114969095D01*
%TO.C,D24*%
X105599580Y-89682485D02*
X104599580Y-89682485D01*
X104599580Y-89682485D02*
X104599580Y-89444390D01*
X104599580Y-89444390D02*
X104647200Y-89301533D01*
X104647200Y-89301533D02*
X104742438Y-89206295D01*
X104742438Y-89206295D02*
X104837676Y-89158676D01*
X104837676Y-89158676D02*
X105028152Y-89111057D01*
X105028152Y-89111057D02*
X105171009Y-89111057D01*
X105171009Y-89111057D02*
X105361485Y-89158676D01*
X105361485Y-89158676D02*
X105456723Y-89206295D01*
X105456723Y-89206295D02*
X105551961Y-89301533D01*
X105551961Y-89301533D02*
X105599580Y-89444390D01*
X105599580Y-89444390D02*
X105599580Y-89682485D01*
X104694819Y-88730104D02*
X104647200Y-88682485D01*
X104647200Y-88682485D02*
X104599580Y-88587247D01*
X104599580Y-88587247D02*
X104599580Y-88349152D01*
X104599580Y-88349152D02*
X104647200Y-88253914D01*
X104647200Y-88253914D02*
X104694819Y-88206295D01*
X104694819Y-88206295D02*
X104790057Y-88158676D01*
X104790057Y-88158676D02*
X104885295Y-88158676D01*
X104885295Y-88158676D02*
X105028152Y-88206295D01*
X105028152Y-88206295D02*
X105599580Y-88777723D01*
X105599580Y-88777723D02*
X105599580Y-88158676D01*
X104932914Y-87301533D02*
X105599580Y-87301533D01*
X104551961Y-87539628D02*
X105266247Y-87777723D01*
X105266247Y-87777723D02*
X105266247Y-87158676D01*
%TO.C,D3*%
X92950380Y-89511094D02*
X91950380Y-89511094D01*
X91950380Y-89511094D02*
X91950380Y-89272999D01*
X91950380Y-89272999D02*
X91998000Y-89130142D01*
X91998000Y-89130142D02*
X92093238Y-89034904D01*
X92093238Y-89034904D02*
X92188476Y-88987285D01*
X92188476Y-88987285D02*
X92378952Y-88939666D01*
X92378952Y-88939666D02*
X92521809Y-88939666D01*
X92521809Y-88939666D02*
X92712285Y-88987285D01*
X92712285Y-88987285D02*
X92807523Y-89034904D01*
X92807523Y-89034904D02*
X92902761Y-89130142D01*
X92902761Y-89130142D02*
X92950380Y-89272999D01*
X92950380Y-89272999D02*
X92950380Y-89511094D01*
X91950380Y-88606332D02*
X91950380Y-87987285D01*
X91950380Y-87987285D02*
X92331333Y-88320618D01*
X92331333Y-88320618D02*
X92331333Y-88177761D01*
X92331333Y-88177761D02*
X92378952Y-88082523D01*
X92378952Y-88082523D02*
X92426571Y-88034904D01*
X92426571Y-88034904D02*
X92521809Y-87987285D01*
X92521809Y-87987285D02*
X92759904Y-87987285D01*
X92759904Y-87987285D02*
X92855142Y-88034904D01*
X92855142Y-88034904D02*
X92902761Y-88082523D01*
X92902761Y-88082523D02*
X92950380Y-88177761D01*
X92950380Y-88177761D02*
X92950380Y-88463475D01*
X92950380Y-88463475D02*
X92902761Y-88558713D01*
X92902761Y-88558713D02*
X92855142Y-88606332D01*
%TO.C,D13*%
X133624580Y-89682485D02*
X132624580Y-89682485D01*
X132624580Y-89682485D02*
X132624580Y-89444390D01*
X132624580Y-89444390D02*
X132672200Y-89301533D01*
X132672200Y-89301533D02*
X132767438Y-89206295D01*
X132767438Y-89206295D02*
X132862676Y-89158676D01*
X132862676Y-89158676D02*
X133053152Y-89111057D01*
X133053152Y-89111057D02*
X133196009Y-89111057D01*
X133196009Y-89111057D02*
X133386485Y-89158676D01*
X133386485Y-89158676D02*
X133481723Y-89206295D01*
X133481723Y-89206295D02*
X133576961Y-89301533D01*
X133576961Y-89301533D02*
X133624580Y-89444390D01*
X133624580Y-89444390D02*
X133624580Y-89682485D01*
X133624580Y-88158676D02*
X133624580Y-88730104D01*
X133624580Y-88444390D02*
X132624580Y-88444390D01*
X132624580Y-88444390D02*
X132767438Y-88539628D01*
X132767438Y-88539628D02*
X132862676Y-88634866D01*
X132862676Y-88634866D02*
X132910295Y-88730104D01*
X132624580Y-87825342D02*
X132624580Y-87206295D01*
X132624580Y-87206295D02*
X133005533Y-87539628D01*
X133005533Y-87539628D02*
X133005533Y-87396771D01*
X133005533Y-87396771D02*
X133053152Y-87301533D01*
X133053152Y-87301533D02*
X133100771Y-87253914D01*
X133100771Y-87253914D02*
X133196009Y-87206295D01*
X133196009Y-87206295D02*
X133434104Y-87206295D01*
X133434104Y-87206295D02*
X133529342Y-87253914D01*
X133529342Y-87253914D02*
X133576961Y-87301533D01*
X133576961Y-87301533D02*
X133624580Y-87396771D01*
X133624580Y-87396771D02*
X133624580Y-87682485D01*
X133624580Y-87682485D02*
X133576961Y-87777723D01*
X133576961Y-87777723D02*
X133529342Y-87825342D01*
%TO.C,R12*%
X85365142Y-109206380D02*
X85031809Y-108730190D01*
X84793714Y-109206380D02*
X84793714Y-108206380D01*
X84793714Y-108206380D02*
X85174666Y-108206380D01*
X85174666Y-108206380D02*
X85269904Y-108254000D01*
X85269904Y-108254000D02*
X85317523Y-108301619D01*
X85317523Y-108301619D02*
X85365142Y-108396857D01*
X85365142Y-108396857D02*
X85365142Y-108539714D01*
X85365142Y-108539714D02*
X85317523Y-108634952D01*
X85317523Y-108634952D02*
X85269904Y-108682571D01*
X85269904Y-108682571D02*
X85174666Y-108730190D01*
X85174666Y-108730190D02*
X84793714Y-108730190D01*
X86317523Y-109206380D02*
X85746095Y-109206380D01*
X86031809Y-109206380D02*
X86031809Y-108206380D01*
X86031809Y-108206380D02*
X85936571Y-108349238D01*
X85936571Y-108349238D02*
X85841333Y-108444476D01*
X85841333Y-108444476D02*
X85746095Y-108492095D01*
X86698476Y-108301619D02*
X86746095Y-108254000D01*
X86746095Y-108254000D02*
X86841333Y-108206380D01*
X86841333Y-108206380D02*
X87079428Y-108206380D01*
X87079428Y-108206380D02*
X87174666Y-108254000D01*
X87174666Y-108254000D02*
X87222285Y-108301619D01*
X87222285Y-108301619D02*
X87269904Y-108396857D01*
X87269904Y-108396857D02*
X87269904Y-108492095D01*
X87269904Y-108492095D02*
X87222285Y-108634952D01*
X87222285Y-108634952D02*
X86650857Y-109206380D01*
X86650857Y-109206380D02*
X87269904Y-109206380D01*
%TO.C,D5*%
X87870380Y-89511094D02*
X86870380Y-89511094D01*
X86870380Y-89511094D02*
X86870380Y-89272999D01*
X86870380Y-89272999D02*
X86918000Y-89130142D01*
X86918000Y-89130142D02*
X87013238Y-89034904D01*
X87013238Y-89034904D02*
X87108476Y-88987285D01*
X87108476Y-88987285D02*
X87298952Y-88939666D01*
X87298952Y-88939666D02*
X87441809Y-88939666D01*
X87441809Y-88939666D02*
X87632285Y-88987285D01*
X87632285Y-88987285D02*
X87727523Y-89034904D01*
X87727523Y-89034904D02*
X87822761Y-89130142D01*
X87822761Y-89130142D02*
X87870380Y-89272999D01*
X87870380Y-89272999D02*
X87870380Y-89511094D01*
X86870380Y-88034904D02*
X86870380Y-88511094D01*
X86870380Y-88511094D02*
X87346571Y-88558713D01*
X87346571Y-88558713D02*
X87298952Y-88511094D01*
X87298952Y-88511094D02*
X87251333Y-88415856D01*
X87251333Y-88415856D02*
X87251333Y-88177761D01*
X87251333Y-88177761D02*
X87298952Y-88082523D01*
X87298952Y-88082523D02*
X87346571Y-88034904D01*
X87346571Y-88034904D02*
X87441809Y-87987285D01*
X87441809Y-87987285D02*
X87679904Y-87987285D01*
X87679904Y-87987285D02*
X87775142Y-88034904D01*
X87775142Y-88034904D02*
X87822761Y-88082523D01*
X87822761Y-88082523D02*
X87870380Y-88177761D01*
X87870380Y-88177761D02*
X87870380Y-88415856D01*
X87870380Y-88415856D02*
X87822761Y-88511094D01*
X87822761Y-88511094D02*
X87775142Y-88558713D01*
%TO.C,J2*%
X102945380Y-92802833D02*
X103659666Y-92802833D01*
X103659666Y-92802833D02*
X103802523Y-92850452D01*
X103802523Y-92850452D02*
X103897761Y-92945690D01*
X103897761Y-92945690D02*
X103945380Y-93088547D01*
X103945380Y-93088547D02*
X103945380Y-93183785D01*
X103040619Y-92374261D02*
X102993000Y-92326642D01*
X102993000Y-92326642D02*
X102945380Y-92231404D01*
X102945380Y-92231404D02*
X102945380Y-91993309D01*
X102945380Y-91993309D02*
X102993000Y-91898071D01*
X102993000Y-91898071D02*
X103040619Y-91850452D01*
X103040619Y-91850452D02*
X103135857Y-91802833D01*
X103135857Y-91802833D02*
X103231095Y-91802833D01*
X103231095Y-91802833D02*
X103373952Y-91850452D01*
X103373952Y-91850452D02*
X103945380Y-92421880D01*
X103945380Y-92421880D02*
X103945380Y-91802833D01*
%TO.C,D9*%
X143734580Y-89206294D02*
X142734580Y-89206294D01*
X142734580Y-89206294D02*
X142734580Y-88968199D01*
X142734580Y-88968199D02*
X142782200Y-88825342D01*
X142782200Y-88825342D02*
X142877438Y-88730104D01*
X142877438Y-88730104D02*
X142972676Y-88682485D01*
X142972676Y-88682485D02*
X143163152Y-88634866D01*
X143163152Y-88634866D02*
X143306009Y-88634866D01*
X143306009Y-88634866D02*
X143496485Y-88682485D01*
X143496485Y-88682485D02*
X143591723Y-88730104D01*
X143591723Y-88730104D02*
X143686961Y-88825342D01*
X143686961Y-88825342D02*
X143734580Y-88968199D01*
X143734580Y-88968199D02*
X143734580Y-89206294D01*
X143734580Y-88158675D02*
X143734580Y-87968199D01*
X143734580Y-87968199D02*
X143686961Y-87872961D01*
X143686961Y-87872961D02*
X143639342Y-87825342D01*
X143639342Y-87825342D02*
X143496485Y-87730104D01*
X143496485Y-87730104D02*
X143306009Y-87682485D01*
X143306009Y-87682485D02*
X142925057Y-87682485D01*
X142925057Y-87682485D02*
X142829819Y-87730104D01*
X142829819Y-87730104D02*
X142782200Y-87777723D01*
X142782200Y-87777723D02*
X142734580Y-87872961D01*
X142734580Y-87872961D02*
X142734580Y-88063437D01*
X142734580Y-88063437D02*
X142782200Y-88158675D01*
X142782200Y-88158675D02*
X142829819Y-88206294D01*
X142829819Y-88206294D02*
X142925057Y-88253913D01*
X142925057Y-88253913D02*
X143163152Y-88253913D01*
X143163152Y-88253913D02*
X143258390Y-88206294D01*
X143258390Y-88206294D02*
X143306009Y-88158675D01*
X143306009Y-88158675D02*
X143353628Y-88063437D01*
X143353628Y-88063437D02*
X143353628Y-87872961D01*
X143353628Y-87872961D02*
X143306009Y-87777723D01*
X143306009Y-87777723D02*
X143258390Y-87730104D01*
X143258390Y-87730104D02*
X143163152Y-87682485D01*
%TO.C,R16*%
X80285142Y-109206380D02*
X79951809Y-108730190D01*
X79713714Y-109206380D02*
X79713714Y-108206380D01*
X79713714Y-108206380D02*
X80094666Y-108206380D01*
X80094666Y-108206380D02*
X80189904Y-108254000D01*
X80189904Y-108254000D02*
X80237523Y-108301619D01*
X80237523Y-108301619D02*
X80285142Y-108396857D01*
X80285142Y-108396857D02*
X80285142Y-108539714D01*
X80285142Y-108539714D02*
X80237523Y-108634952D01*
X80237523Y-108634952D02*
X80189904Y-108682571D01*
X80189904Y-108682571D02*
X80094666Y-108730190D01*
X80094666Y-108730190D02*
X79713714Y-108730190D01*
X81237523Y-109206380D02*
X80666095Y-109206380D01*
X80951809Y-109206380D02*
X80951809Y-108206380D01*
X80951809Y-108206380D02*
X80856571Y-108349238D01*
X80856571Y-108349238D02*
X80761333Y-108444476D01*
X80761333Y-108444476D02*
X80666095Y-108492095D01*
X82094666Y-108206380D02*
X81904190Y-108206380D01*
X81904190Y-108206380D02*
X81808952Y-108254000D01*
X81808952Y-108254000D02*
X81761333Y-108301619D01*
X81761333Y-108301619D02*
X81666095Y-108444476D01*
X81666095Y-108444476D02*
X81618476Y-108634952D01*
X81618476Y-108634952D02*
X81618476Y-109015904D01*
X81618476Y-109015904D02*
X81666095Y-109111142D01*
X81666095Y-109111142D02*
X81713714Y-109158761D01*
X81713714Y-109158761D02*
X81808952Y-109206380D01*
X81808952Y-109206380D02*
X81999428Y-109206380D01*
X81999428Y-109206380D02*
X82094666Y-109158761D01*
X82094666Y-109158761D02*
X82142285Y-109111142D01*
X82142285Y-109111142D02*
X82189904Y-109015904D01*
X82189904Y-109015904D02*
X82189904Y-108777809D01*
X82189904Y-108777809D02*
X82142285Y-108682571D01*
X82142285Y-108682571D02*
X82094666Y-108634952D01*
X82094666Y-108634952D02*
X81999428Y-108587333D01*
X81999428Y-108587333D02*
X81808952Y-108587333D01*
X81808952Y-108587333D02*
X81713714Y-108634952D01*
X81713714Y-108634952D02*
X81666095Y-108682571D01*
X81666095Y-108682571D02*
X81618476Y-108777809D01*
%TO.C,D10*%
X141194580Y-89682485D02*
X140194580Y-89682485D01*
X140194580Y-89682485D02*
X140194580Y-89444390D01*
X140194580Y-89444390D02*
X140242200Y-89301533D01*
X140242200Y-89301533D02*
X140337438Y-89206295D01*
X140337438Y-89206295D02*
X140432676Y-89158676D01*
X140432676Y-89158676D02*
X140623152Y-89111057D01*
X140623152Y-89111057D02*
X140766009Y-89111057D01*
X140766009Y-89111057D02*
X140956485Y-89158676D01*
X140956485Y-89158676D02*
X141051723Y-89206295D01*
X141051723Y-89206295D02*
X141146961Y-89301533D01*
X141146961Y-89301533D02*
X141194580Y-89444390D01*
X141194580Y-89444390D02*
X141194580Y-89682485D01*
X141194580Y-88158676D02*
X141194580Y-88730104D01*
X141194580Y-88444390D02*
X140194580Y-88444390D01*
X140194580Y-88444390D02*
X140337438Y-88539628D01*
X140337438Y-88539628D02*
X140432676Y-88634866D01*
X140432676Y-88634866D02*
X140480295Y-88730104D01*
X140194580Y-87539628D02*
X140194580Y-87444390D01*
X140194580Y-87444390D02*
X140242200Y-87349152D01*
X140242200Y-87349152D02*
X140289819Y-87301533D01*
X140289819Y-87301533D02*
X140385057Y-87253914D01*
X140385057Y-87253914D02*
X140575533Y-87206295D01*
X140575533Y-87206295D02*
X140813628Y-87206295D01*
X140813628Y-87206295D02*
X141004104Y-87253914D01*
X141004104Y-87253914D02*
X141099342Y-87301533D01*
X141099342Y-87301533D02*
X141146961Y-87349152D01*
X141146961Y-87349152D02*
X141194580Y-87444390D01*
X141194580Y-87444390D02*
X141194580Y-87539628D01*
X141194580Y-87539628D02*
X141146961Y-87634866D01*
X141146961Y-87634866D02*
X141099342Y-87682485D01*
X141099342Y-87682485D02*
X141004104Y-87730104D01*
X141004104Y-87730104D02*
X140813628Y-87777723D01*
X140813628Y-87777723D02*
X140575533Y-87777723D01*
X140575533Y-87777723D02*
X140385057Y-87730104D01*
X140385057Y-87730104D02*
X140289819Y-87682485D01*
X140289819Y-87682485D02*
X140242200Y-87634866D01*
X140242200Y-87634866D02*
X140194580Y-87539628D01*
%TO.C,D17*%
X123414580Y-89682485D02*
X122414580Y-89682485D01*
X122414580Y-89682485D02*
X122414580Y-89444390D01*
X122414580Y-89444390D02*
X122462200Y-89301533D01*
X122462200Y-89301533D02*
X122557438Y-89206295D01*
X122557438Y-89206295D02*
X122652676Y-89158676D01*
X122652676Y-89158676D02*
X122843152Y-89111057D01*
X122843152Y-89111057D02*
X122986009Y-89111057D01*
X122986009Y-89111057D02*
X123176485Y-89158676D01*
X123176485Y-89158676D02*
X123271723Y-89206295D01*
X123271723Y-89206295D02*
X123366961Y-89301533D01*
X123366961Y-89301533D02*
X123414580Y-89444390D01*
X123414580Y-89444390D02*
X123414580Y-89682485D01*
X123414580Y-88158676D02*
X123414580Y-88730104D01*
X123414580Y-88444390D02*
X122414580Y-88444390D01*
X122414580Y-88444390D02*
X122557438Y-88539628D01*
X122557438Y-88539628D02*
X122652676Y-88634866D01*
X122652676Y-88634866D02*
X122700295Y-88730104D01*
X122414580Y-87825342D02*
X122414580Y-87158676D01*
X122414580Y-87158676D02*
X123414580Y-87587247D01*
%TO.C,D12*%
X136114580Y-89682485D02*
X135114580Y-89682485D01*
X135114580Y-89682485D02*
X135114580Y-89444390D01*
X135114580Y-89444390D02*
X135162200Y-89301533D01*
X135162200Y-89301533D02*
X135257438Y-89206295D01*
X135257438Y-89206295D02*
X135352676Y-89158676D01*
X135352676Y-89158676D02*
X135543152Y-89111057D01*
X135543152Y-89111057D02*
X135686009Y-89111057D01*
X135686009Y-89111057D02*
X135876485Y-89158676D01*
X135876485Y-89158676D02*
X135971723Y-89206295D01*
X135971723Y-89206295D02*
X136066961Y-89301533D01*
X136066961Y-89301533D02*
X136114580Y-89444390D01*
X136114580Y-89444390D02*
X136114580Y-89682485D01*
X136114580Y-88158676D02*
X136114580Y-88730104D01*
X136114580Y-88444390D02*
X135114580Y-88444390D01*
X135114580Y-88444390D02*
X135257438Y-88539628D01*
X135257438Y-88539628D02*
X135352676Y-88634866D01*
X135352676Y-88634866D02*
X135400295Y-88730104D01*
X135209819Y-87777723D02*
X135162200Y-87730104D01*
X135162200Y-87730104D02*
X135114580Y-87634866D01*
X135114580Y-87634866D02*
X135114580Y-87396771D01*
X135114580Y-87396771D02*
X135162200Y-87301533D01*
X135162200Y-87301533D02*
X135209819Y-87253914D01*
X135209819Y-87253914D02*
X135305057Y-87206295D01*
X135305057Y-87206295D02*
X135400295Y-87206295D01*
X135400295Y-87206295D02*
X135543152Y-87253914D01*
X135543152Y-87253914D02*
X136114580Y-87825342D01*
X136114580Y-87825342D02*
X136114580Y-87206295D01*
%TO.C,Q4*%
X91090761Y-95204619D02*
X90995523Y-95157000D01*
X90995523Y-95157000D02*
X90900285Y-95061761D01*
X90900285Y-95061761D02*
X90757428Y-94918904D01*
X90757428Y-94918904D02*
X90662190Y-94871285D01*
X90662190Y-94871285D02*
X90566952Y-94871285D01*
X90614571Y-95109380D02*
X90519333Y-95061761D01*
X90519333Y-95061761D02*
X90424095Y-94966523D01*
X90424095Y-94966523D02*
X90376476Y-94776047D01*
X90376476Y-94776047D02*
X90376476Y-94442714D01*
X90376476Y-94442714D02*
X90424095Y-94252238D01*
X90424095Y-94252238D02*
X90519333Y-94157000D01*
X90519333Y-94157000D02*
X90614571Y-94109380D01*
X90614571Y-94109380D02*
X90805047Y-94109380D01*
X90805047Y-94109380D02*
X90900285Y-94157000D01*
X90900285Y-94157000D02*
X90995523Y-94252238D01*
X90995523Y-94252238D02*
X91043142Y-94442714D01*
X91043142Y-94442714D02*
X91043142Y-94776047D01*
X91043142Y-94776047D02*
X90995523Y-94966523D01*
X90995523Y-94966523D02*
X90900285Y-95061761D01*
X90900285Y-95061761D02*
X90805047Y-95109380D01*
X90805047Y-95109380D02*
X90614571Y-95109380D01*
X91900285Y-94442714D02*
X91900285Y-95109380D01*
X91662190Y-94061761D02*
X91424095Y-94776047D01*
X91424095Y-94776047D02*
X92043142Y-94776047D01*
%TO.C,R14*%
X84095142Y-111111380D02*
X83761809Y-110635190D01*
X83523714Y-111111380D02*
X83523714Y-110111380D01*
X83523714Y-110111380D02*
X83904666Y-110111380D01*
X83904666Y-110111380D02*
X83999904Y-110159000D01*
X83999904Y-110159000D02*
X84047523Y-110206619D01*
X84047523Y-110206619D02*
X84095142Y-110301857D01*
X84095142Y-110301857D02*
X84095142Y-110444714D01*
X84095142Y-110444714D02*
X84047523Y-110539952D01*
X84047523Y-110539952D02*
X83999904Y-110587571D01*
X83999904Y-110587571D02*
X83904666Y-110635190D01*
X83904666Y-110635190D02*
X83523714Y-110635190D01*
X85047523Y-111111380D02*
X84476095Y-111111380D01*
X84761809Y-111111380D02*
X84761809Y-110111380D01*
X84761809Y-110111380D02*
X84666571Y-110254238D01*
X84666571Y-110254238D02*
X84571333Y-110349476D01*
X84571333Y-110349476D02*
X84476095Y-110397095D01*
X85904666Y-110444714D02*
X85904666Y-111111380D01*
X85666571Y-110063761D02*
X85428476Y-110778047D01*
X85428476Y-110778047D02*
X86047523Y-110778047D01*
D12*
%TO.C,D4*%
X91823000Y-86999500D02*
X90353000Y-86999500D01*
X90353000Y-86999500D02*
X90353000Y-89459500D01*
X91823000Y-89459500D02*
X91823000Y-86999500D01*
%TO.C,D19*%
X118420000Y-90150000D02*
X119890000Y-90150000D01*
X119890000Y-90150000D02*
X119890000Y-87690000D01*
X118420000Y-87690000D02*
X118420000Y-90150000D01*
%TO.C,D2*%
X96903000Y-86999500D02*
X95433000Y-86999500D01*
X95433000Y-86999500D02*
X95433000Y-89459500D01*
X96903000Y-89459500D02*
X96903000Y-86999500D01*
%TO.C,D8*%
X81663000Y-86999500D02*
X80193000Y-86999500D01*
X80193000Y-86999500D02*
X80193000Y-89459500D01*
X81663000Y-89459500D02*
X81663000Y-86999500D01*
%TO.C,U1*%
X99530000Y-107491500D02*
X79090000Y-107491500D01*
X79090000Y-107491500D02*
X79090000Y-111991500D01*
X99530000Y-108741500D02*
X99530000Y-107491500D01*
X99530000Y-111991500D02*
X99530000Y-110741500D01*
X79090000Y-111991500D02*
X99530000Y-111991500D01*
X99530000Y-108741500D02*
G75*
G03*
X99530000Y-110741500I0J-1000000D01*
G01*
%TO.C,D7*%
X84203000Y-86999500D02*
X82733000Y-86999500D01*
X82733000Y-86999500D02*
X82733000Y-89459500D01*
X84203000Y-89459500D02*
X84203000Y-86999500D01*
%TO.C,D15*%
X128580000Y-90150000D02*
X130050000Y-90150000D01*
X130050000Y-90150000D02*
X130050000Y-87690000D01*
X128580000Y-87690000D02*
X128580000Y-90150000D01*
%TO.C,R10*%
X90045064Y-102529500D02*
X89590936Y-102529500D01*
X90045064Y-103999500D02*
X89590936Y-103999500D01*
%TO.C,D23*%
X108260000Y-90150000D02*
X109730000Y-90150000D01*
X109730000Y-90150000D02*
X109730000Y-87690000D01*
X108260000Y-87690000D02*
X108260000Y-90150000D01*
%TO.C,D22*%
X110800000Y-90150000D02*
X112270000Y-90150000D01*
X112270000Y-90150000D02*
X112270000Y-87690000D01*
X110800000Y-87690000D02*
X110800000Y-90150000D01*
%TO.C,D20*%
X115880000Y-90150000D02*
X117350000Y-90150000D01*
X117350000Y-90150000D02*
X117350000Y-87690000D01*
X115880000Y-87690000D02*
X115880000Y-90150000D01*
%TO.C,D14*%
X131120000Y-90150000D02*
X132590000Y-90150000D01*
X132590000Y-90150000D02*
X132590000Y-87690000D01*
X131120000Y-87690000D02*
X131120000Y-90150000D01*
%TO.C,Q6*%
X83878000Y-100049500D02*
X83878000Y-98909500D01*
X83648000Y-98909500D02*
X83878000Y-98909500D01*
X83648000Y-98909500D02*
X83648000Y-96189500D01*
X88368000Y-98909500D02*
X88138000Y-98909500D01*
X83648000Y-96189500D02*
X84958000Y-96189500D01*
X87058000Y-96189500D02*
X88368000Y-96189500D01*
X88368000Y-96189500D02*
X88368000Y-98909500D01*
%TO.C,Q8*%
X78798000Y-100049500D02*
X78798000Y-98909500D01*
X78568000Y-98909500D02*
X78798000Y-98909500D01*
X78568000Y-98909500D02*
X78568000Y-96189500D01*
X83288000Y-98909500D02*
X83058000Y-98909500D01*
X78568000Y-96189500D02*
X79878000Y-96189500D01*
X81978000Y-96189500D02*
X83288000Y-96189500D01*
X83288000Y-96189500D02*
X83288000Y-98909500D01*
%TO.C,D11*%
X138740000Y-90150000D02*
X140210000Y-90150000D01*
X140210000Y-90150000D02*
X140210000Y-87690000D01*
X138740000Y-87690000D02*
X138740000Y-90150000D01*
%TO.C,R4*%
X96395064Y-102094500D02*
X95940936Y-102094500D01*
X96395064Y-100624500D02*
X95940936Y-100624500D01*
%TO.C,D21*%
X113340000Y-90150000D02*
X114810000Y-90150000D01*
X114810000Y-90150000D02*
X114810000Y-87690000D01*
X113340000Y-87690000D02*
X113340000Y-90150000D01*
%TO.C,R2*%
X98989000Y-102687064D02*
X98989000Y-102232936D01*
X100459000Y-102687064D02*
X100459000Y-102232936D01*
%TO.C,J3*%
X145885000Y-90970000D02*
X145885000Y-92300000D01*
X144555000Y-90970000D02*
X145885000Y-90970000D01*
X143285000Y-90970000D02*
X105125000Y-90970000D01*
X143285000Y-90970000D02*
X143285000Y-93630000D01*
X105125000Y-90970000D02*
X105125000Y-93630000D01*
X143285000Y-93630000D02*
X105125000Y-93630000D01*
%TO.C,D1*%
X99443000Y-86999500D02*
X97973000Y-86999500D01*
X97973000Y-86999500D02*
X97973000Y-89459500D01*
X99443000Y-89459500D02*
X99443000Y-86999500D01*
%TO.C,U3*%
X122375000Y-97924000D02*
X101935000Y-97924000D01*
X101935000Y-97924000D02*
X101935000Y-102424000D01*
X122375000Y-99174000D02*
X122375000Y-97924000D01*
X122375000Y-102424000D02*
X122375000Y-101174000D01*
X101935000Y-102424000D02*
X122375000Y-102424000D01*
X122375000Y-99174000D02*
G75*
G03*
X122375000Y-101174000I0J-1000000D01*
G01*
%TO.C,R6*%
X95125064Y-102529500D02*
X94670936Y-102529500D01*
X95125064Y-103999500D02*
X94670936Y-103999500D01*
%TO.C,D6*%
X86743000Y-86999500D02*
X85273000Y-86999500D01*
X85273000Y-86999500D02*
X85273000Y-89459500D01*
X86743000Y-89459500D02*
X86743000Y-86999500D01*
%TO.C,Q2*%
X98528000Y-96189500D02*
X98528000Y-98909500D01*
X97218000Y-96189500D02*
X98528000Y-96189500D01*
X93808000Y-96189500D02*
X95118000Y-96189500D01*
X98528000Y-98909500D02*
X98298000Y-98909500D01*
X93808000Y-98909500D02*
X93808000Y-96189500D01*
X93808000Y-98909500D02*
X94038000Y-98909500D01*
X94038000Y-100049500D02*
X94038000Y-98909500D01*
%TO.C,U2*%
X143965000Y-97924000D02*
X123525000Y-97924000D01*
X123525000Y-97924000D02*
X123525000Y-102424000D01*
X143965000Y-99174000D02*
X143965000Y-97924000D01*
X143965000Y-102424000D02*
X143965000Y-101174000D01*
X123525000Y-102424000D02*
X143965000Y-102424000D01*
X143965000Y-99174000D02*
G75*
G03*
X143965000Y-101174000I0J-1000000D01*
G01*
%TO.C,R8*%
X91315064Y-102094500D02*
X90860936Y-102094500D01*
X91315064Y-100624500D02*
X90860936Y-100624500D01*
%TO.C,D16*%
X126040000Y-90150000D02*
X127510000Y-90150000D01*
X127510000Y-90150000D02*
X127510000Y-87690000D01*
X126040000Y-87690000D02*
X126040000Y-90150000D01*
%TO.C,D18*%
X120960000Y-90150000D02*
X122430000Y-90150000D01*
X122430000Y-90150000D02*
X122430000Y-87690000D01*
X120960000Y-87690000D02*
X120960000Y-90150000D01*
%TO.C,J1*%
X64996000Y-98590000D02*
X64996000Y-113950000D01*
X64996000Y-98590000D02*
X73626000Y-98590000D01*
X64996000Y-98710000D02*
X73626000Y-98710000D01*
X64996000Y-98828095D02*
X73626000Y-98828095D01*
X64996000Y-98946190D02*
X73626000Y-98946190D01*
X64996000Y-99064285D02*
X73626000Y-99064285D01*
X64996000Y-99182380D02*
X73626000Y-99182380D01*
X64996000Y-99300475D02*
X73626000Y-99300475D01*
X64996000Y-99418570D02*
X73626000Y-99418570D01*
X64996000Y-99536665D02*
X73626000Y-99536665D01*
X64996000Y-99654760D02*
X73626000Y-99654760D01*
X64996000Y-99772855D02*
X73626000Y-99772855D01*
X64996000Y-99890950D02*
X73626000Y-99890950D01*
X64996000Y-100009045D02*
X73626000Y-100009045D01*
X64996000Y-100127140D02*
X73626000Y-100127140D01*
X64996000Y-100245235D02*
X73626000Y-100245235D01*
X64996000Y-100363330D02*
X73626000Y-100363330D01*
X64996000Y-100481425D02*
X73626000Y-100481425D01*
X64996000Y-100599520D02*
X73626000Y-100599520D01*
X64996000Y-100717615D02*
X73626000Y-100717615D01*
X64996000Y-100835710D02*
X73626000Y-100835710D01*
X64996000Y-100953805D02*
X73626000Y-100953805D01*
X64996000Y-101071900D02*
X73626000Y-101071900D01*
X64996000Y-101190000D02*
X73626000Y-101190000D01*
X64996000Y-103730000D02*
X73626000Y-103730000D01*
X64996000Y-106270000D02*
X73626000Y-106270000D01*
X64996000Y-108810000D02*
X73626000Y-108810000D01*
X64996000Y-111350000D02*
X73626000Y-111350000D01*
X64996000Y-113950000D02*
X73626000Y-113950000D01*
X73626000Y-98590000D02*
X73626000Y-113950000D01*
X73626000Y-99560000D02*
X73976000Y-99560000D01*
X73626000Y-100280000D02*
X73976000Y-100280000D01*
X73626000Y-102100000D02*
X74036000Y-102100000D01*
X73626000Y-102820000D02*
X74036000Y-102820000D01*
X73626000Y-104640000D02*
X74036000Y-104640000D01*
X73626000Y-105360000D02*
X74036000Y-105360000D01*
X73626000Y-107180000D02*
X74036000Y-107180000D01*
X73626000Y-107900000D02*
X74036000Y-107900000D01*
X73626000Y-109720000D02*
X74036000Y-109720000D01*
X73626000Y-110440000D02*
X74036000Y-110440000D01*
X73626000Y-112260000D02*
X74036000Y-112260000D01*
X73626000Y-112980000D02*
X74036000Y-112980000D01*
X75086000Y-98590000D02*
X76196000Y-98590000D01*
X76196000Y-98590000D02*
X76196000Y-99920000D01*
%TO.C,D24*%
X105685000Y-90150000D02*
X107155000Y-90150000D01*
X107155000Y-90150000D02*
X107155000Y-87690000D01*
X105685000Y-87690000D02*
X105685000Y-90150000D01*
%TO.C,D3*%
X94363000Y-86999500D02*
X92893000Y-86999500D01*
X92893000Y-86999500D02*
X92893000Y-89459500D01*
X94363000Y-89459500D02*
X94363000Y-86999500D01*
%TO.C,D13*%
X133710000Y-90150000D02*
X135180000Y-90150000D01*
X135180000Y-90150000D02*
X135180000Y-87690000D01*
X133710000Y-87690000D02*
X133710000Y-90150000D01*
%TO.C,R12*%
X86235064Y-102094500D02*
X85780936Y-102094500D01*
X86235064Y-100624500D02*
X85780936Y-100624500D01*
%TO.C,D5*%
X89283000Y-86999500D02*
X87813000Y-86999500D01*
X87813000Y-86999500D02*
X87813000Y-89459500D01*
X89283000Y-89459500D02*
X89283000Y-86999500D01*
%TO.C,J2*%
X102578000Y-91139500D02*
X102578000Y-92469500D01*
X101248000Y-91139500D02*
X102578000Y-91139500D01*
X99978000Y-91139500D02*
X77058000Y-91139500D01*
X99978000Y-91139500D02*
X99978000Y-93799500D01*
X77058000Y-91139500D02*
X77058000Y-93799500D01*
X99978000Y-93799500D02*
X77058000Y-93799500D01*
%TO.C,D9*%
X143820000Y-90150000D02*
X145290000Y-90150000D01*
X145290000Y-90150000D02*
X145290000Y-87690000D01*
X143820000Y-87690000D02*
X143820000Y-90150000D01*
%TO.C,R16*%
X81155064Y-102094500D02*
X80700936Y-102094500D01*
X81155064Y-100624500D02*
X80700936Y-100624500D01*
%TO.C,D10*%
X141280000Y-90150000D02*
X142750000Y-90150000D01*
X142750000Y-90150000D02*
X142750000Y-87690000D01*
X141280000Y-87690000D02*
X141280000Y-90150000D01*
%TO.C,D17*%
X123500000Y-90150000D02*
X124970000Y-90150000D01*
X124970000Y-90150000D02*
X124970000Y-87690000D01*
X123500000Y-87690000D02*
X123500000Y-90150000D01*
%TO.C,D12*%
X136200000Y-90150000D02*
X137670000Y-90150000D01*
X137670000Y-90150000D02*
X137670000Y-87690000D01*
X136200000Y-87690000D02*
X136200000Y-90150000D01*
%TO.C,Q4*%
X88958000Y-100049500D02*
X88958000Y-98909500D01*
X88728000Y-98909500D02*
X88958000Y-98909500D01*
X88728000Y-98909500D02*
X88728000Y-96189500D01*
X93448000Y-98909500D02*
X93218000Y-98909500D01*
X88728000Y-96189500D02*
X90038000Y-96189500D01*
X92138000Y-96189500D02*
X93448000Y-96189500D01*
X93448000Y-96189500D02*
X93448000Y-98909500D01*
%TO.C,R14*%
X84965064Y-102529500D02*
X84510936Y-102529500D01*
X84965064Y-103999500D02*
X84510936Y-103999500D01*
%TD*%
M02*
