%TF.GenerationSoftware,KiCad,Pcbnew,(7.0.0)*%
%TF.CreationDate,2023-09-21T15:04:23+02:00*%
%TF.ProjectId,hall_sensor_matrix_v2,68616c6c-5f73-4656-9e73-6f725f6d6174,rev?*%
%TF.SameCoordinates,Original*%
%TF.FileFunction,Copper,L1,Top*%
%TF.FilePolarity,Positive*%
%FSLAX46Y46*%
G04 Gerber Fmt 4.6, Leading zero omitted, Abs format (unit mm)*
G04 Created by KiCad (PCBNEW (7.0.0)) date 2023-09-21 15:04:23*
%MOMM*%
%LPD*%
G01*
G04 APERTURE LIST*
G04 Aperture macros list*
%AMRoundRect*
0 Rectangle with rounded corners*
0 $1 Rounding radius*
0 $2 $3 $4 $5 $6 $7 $8 $9 X,Y pos of 4 corners*
0 Add a 4 corners polygon primitive as box body*
4,1,4,$2,$3,$4,$5,$6,$7,$8,$9,$2,$3,0*
0 Add four circle primitives for the rounded corners*
1,1,$1+$1,$2,$3*
1,1,$1+$1,$4,$5*
1,1,$1+$1,$6,$7*
1,1,$1+$1,$8,$9*
0 Add four rect primitives between the rounded corners*
20,1,$1+$1,$2,$3,$4,$5,0*
20,1,$1+$1,$4,$5,$6,$7,0*
20,1,$1+$1,$6,$7,$8,$9,0*
20,1,$1+$1,$8,$9,$2,$3,0*%
%AMFreePoly0*
4,1,9,3.862500,-0.866500,0.737500,-0.866500,0.737500,-0.450000,-0.737500,-0.450000,-0.737500,0.450000,0.737500,0.450000,0.737500,0.866500,3.862500,0.866500,3.862500,-0.866500,3.862500,-0.866500,$1*%
G04 Aperture macros list end*
%TA.AperFunction,SMDPad,CuDef*%
%ADD10RoundRect,0.237500X-0.237500X0.287500X-0.237500X-0.287500X0.237500X-0.287500X0.237500X0.287500X0*%
%TD*%
%TA.AperFunction,SMDPad,CuDef*%
%ADD11RoundRect,0.237500X0.237500X-0.287500X0.237500X0.287500X-0.237500X0.287500X-0.237500X-0.287500X0*%
%TD*%
%TA.AperFunction,ComponentPad*%
%ADD12R,1.600000X2.400000*%
%TD*%
%TA.AperFunction,ComponentPad*%
%ADD13O,1.600000X2.400000*%
%TD*%
%TA.AperFunction,SMDPad,CuDef*%
%ADD14RoundRect,0.250000X0.262500X0.450000X-0.262500X0.450000X-0.262500X-0.450000X0.262500X-0.450000X0*%
%TD*%
%TA.AperFunction,SMDPad,CuDef*%
%ADD15R,0.900000X1.300000*%
%TD*%
%TA.AperFunction,SMDPad,CuDef*%
%ADD16FreePoly0,90.000000*%
%TD*%
%TA.AperFunction,SMDPad,CuDef*%
%ADD17RoundRect,0.250000X0.450000X-0.262500X0.450000X0.262500X-0.450000X0.262500X-0.450000X-0.262500X0*%
%TD*%
%TA.AperFunction,ComponentPad*%
%ADD18R,1.700000X1.700000*%
%TD*%
%TA.AperFunction,ComponentPad*%
%ADD19O,1.700000X1.700000*%
%TD*%
%TA.AperFunction,ViaPad*%
%ADD20C,0.800000*%
%TD*%
%TA.AperFunction,Conductor*%
%ADD21C,0.500000*%
%TD*%
%TA.AperFunction,Conductor*%
%ADD22C,1.000000*%
%TD*%
%TA.AperFunction,Conductor*%
%ADD23C,1.500000*%
%TD*%
%TA.AperFunction,Conductor*%
%ADD24C,0.800000*%
%TD*%
G04 APERTURE END LIST*
D10*
%TO.P,D4,1,K*%
%TO.N,Net-(D4-K)*%
X91088000Y-87784500D03*
%TO.P,D4,2,A*%
%TO.N,/C3*%
X91088000Y-89534500D03*
%TD*%
D11*
%TO.P,D19,1,K*%
%TO.N,/R10*%
X119155000Y-89365000D03*
%TO.P,D19,2,A*%
%TO.N,Net-(D19-A)*%
X119155000Y-87615000D03*
%TD*%
D10*
%TO.P,D2,1,K*%
%TO.N,Net-(D2-K)*%
X96168000Y-87784500D03*
%TO.P,D2,2,A*%
%TO.N,/C1*%
X96168000Y-89534500D03*
%TD*%
%TO.P,D8,1,K*%
%TO.N,Net-(D8-K)*%
X80928000Y-87784500D03*
%TO.P,D8,2,A*%
%TO.N,/C7*%
X80928000Y-89534500D03*
%TD*%
D12*
%TO.P,U1,1,QB*%
%TO.N,/d_C1*%
X98199999Y-105931499D03*
D13*
%TO.P,U1,2,QC*%
%TO.N,/d_C2*%
X95659999Y-105931499D03*
%TO.P,U1,3,QD*%
%TO.N,/d_C3*%
X93119999Y-105931499D03*
%TO.P,U1,4,QE*%
%TO.N,/d_C4*%
X90579999Y-105931499D03*
%TO.P,U1,5,QF*%
%TO.N,/d_C5*%
X88039999Y-105931499D03*
%TO.P,U1,6,QG*%
%TO.N,/d_C6*%
X85499999Y-105931499D03*
%TO.P,U1,7,QH*%
%TO.N,/d_C7*%
X82959999Y-105931499D03*
%TO.P,U1,8,GND*%
%TO.N,GND*%
X80419999Y-105931499D03*
%TO.P,U1,9,QHser*%
%TO.N,/Din_o*%
X80419999Y-113551499D03*
%TO.P,U1,10,~{SCLR}*%
%TO.N,+5V*%
X82959999Y-113551499D03*
%TO.P,U1,11,SCLK*%
%TO.N,/CLK*%
X85499999Y-113551499D03*
%TO.P,U1,12,RCLK*%
%TO.N,/Latch*%
X88039999Y-113551499D03*
%TO.P,U1,13,~{G}*%
%TO.N,GND*%
X90579999Y-113551499D03*
%TO.P,U1,14,SER*%
%TO.N,/Din*%
X93119999Y-113551499D03*
%TO.P,U1,15,QA*%
%TO.N,/d_C0*%
X95659999Y-113551499D03*
%TO.P,U1,16,VCC*%
%TO.N,+5V*%
X98199999Y-113551499D03*
%TD*%
D10*
%TO.P,D7,1,K*%
%TO.N,Net-(D7-K)*%
X83468000Y-87784500D03*
%TO.P,D7,2,A*%
%TO.N,/C6*%
X83468000Y-89534500D03*
%TD*%
D11*
%TO.P,D15,1,K*%
%TO.N,/R6*%
X129315000Y-89365000D03*
%TO.P,D15,2,A*%
%TO.N,Net-(D15-A)*%
X129315000Y-87615000D03*
%TD*%
D14*
%TO.P,R10,2*%
%TO.N,Net-(Q5-G)*%
X88905500Y-103264500D03*
%TO.P,R10,1*%
%TO.N,/d_C4*%
X90730500Y-103264500D03*
%TD*%
D11*
%TO.P,D23,1,K*%
%TO.N,/R14*%
X108995000Y-89365000D03*
%TO.P,D23,2,A*%
%TO.N,Net-(D23-A)*%
X108995000Y-87615000D03*
%TD*%
%TO.P,D22,1,K*%
%TO.N,/R13*%
X111535000Y-89365000D03*
%TO.P,D22,2,A*%
%TO.N,Net-(D22-A)*%
X111535000Y-87615000D03*
%TD*%
%TO.P,D20,1,K*%
%TO.N,/R11*%
X116615000Y-89365000D03*
%TO.P,D20,2,A*%
%TO.N,Net-(D20-A)*%
X116615000Y-87615000D03*
%TD*%
%TO.P,D14,1,K*%
%TO.N,/R5*%
X131855000Y-89365000D03*
%TO.P,D14,2,A*%
%TO.N,Net-(D14-A)*%
X131855000Y-87615000D03*
%TD*%
D15*
%TO.P,Q6,1,G*%
%TO.N,Net-(Q6-G)*%
X84507999Y-99499499D03*
D16*
%TO.P,Q6,2,D*%
%TO.N,/C5*%
X86008000Y-99412000D03*
D15*
%TO.P,Q6,3,S*%
%TO.N,+5V*%
X87507999Y-99499499D03*
%TD*%
%TO.P,Q8,1,G*%
%TO.N,Net-(Q8-G)*%
X79427999Y-99499499D03*
D16*
%TO.P,Q8,2,D*%
%TO.N,/C7*%
X80928000Y-99412000D03*
D15*
%TO.P,Q8,3,S*%
%TO.N,+5V*%
X82427999Y-99499499D03*
%TD*%
D11*
%TO.P,D11,1,K*%
%TO.N,/R2*%
X139475000Y-89365000D03*
%TO.P,D11,2,A*%
%TO.N,Net-(D11-A)*%
X139475000Y-87615000D03*
%TD*%
D14*
%TO.P,R4,1*%
%TO.N,/d_C1*%
X97080500Y-101359500D03*
%TO.P,R4,2*%
%TO.N,Net-(Q2-G)*%
X95255500Y-101359500D03*
%TD*%
D11*
%TO.P,D21,1,K*%
%TO.N,/R12*%
X114075000Y-89365000D03*
%TO.P,D21,2,A*%
%TO.N,Net-(D21-A)*%
X114075000Y-87615000D03*
%TD*%
D17*
%TO.P,R2,1*%
%TO.N,/d_C0*%
X99724000Y-103372500D03*
%TO.P,R2,2*%
%TO.N,Net-(Q1-G)*%
X99724000Y-101547500D03*
%TD*%
D18*
%TO.P,J3,1,Pin_1*%
%TO.N,/R0*%
X144554999Y-92299999D03*
D19*
%TO.P,J3,2,Pin_2*%
%TO.N,/R1*%
X142014999Y-92299999D03*
%TO.P,J3,3,Pin_3*%
%TO.N,/R2*%
X139474999Y-92299999D03*
%TO.P,J3,4,Pin_4*%
%TO.N,/R3*%
X136934999Y-92299999D03*
%TO.P,J3,5,Pin_5*%
%TO.N,/R4*%
X134394999Y-92299999D03*
%TO.P,J3,6,Pin_6*%
%TO.N,/R5*%
X131854999Y-92299999D03*
%TO.P,J3,7,Pin_7*%
%TO.N,/R6*%
X129314999Y-92299999D03*
%TO.P,J3,8,Pin_8*%
%TO.N,/R7*%
X126774999Y-92299999D03*
%TO.P,J3,9,Pin_9*%
%TO.N,/R8*%
X124234999Y-92299999D03*
%TO.P,J3,10,Pin_10*%
%TO.N,/R9*%
X121694999Y-92299999D03*
%TO.P,J3,11,Pin_11*%
%TO.N,/R10*%
X119154999Y-92299999D03*
%TO.P,J3,12,Pin_12*%
%TO.N,/R11*%
X116614999Y-92299999D03*
%TO.P,J3,13,Pin_13*%
%TO.N,/R12*%
X114074999Y-92299999D03*
%TO.P,J3,14,Pin_14*%
%TO.N,/R13*%
X111534999Y-92299999D03*
%TO.P,J3,15,Pin_15*%
%TO.N,/R14*%
X108994999Y-92299999D03*
%TO.P,J3,16,Pin_16*%
%TO.N,/R15*%
X106454999Y-92299999D03*
%TD*%
D10*
%TO.P,D1,1,K*%
%TO.N,Net-(D1-K)*%
X98708000Y-87784500D03*
%TO.P,D1,2,A*%
%TO.N,/C0*%
X98708000Y-89534500D03*
%TD*%
D12*
%TO.P,U3,1,B*%
%TO.N,/R9*%
X121044999Y-96363999D03*
D13*
%TO.P,U3,2,C*%
%TO.N,/R10*%
X118504999Y-96363999D03*
%TO.P,U3,3,D*%
%TO.N,/R11*%
X115964999Y-96363999D03*
%TO.P,U3,4,E*%
%TO.N,/R12*%
X113424999Y-96363999D03*
%TO.P,U3,5,F*%
%TO.N,/R13*%
X110884999Y-96363999D03*
%TO.P,U3,6,G*%
%TO.N,/R14*%
X108344999Y-96363999D03*
%TO.P,U3,7,H*%
%TO.N,/R15*%
X105804999Y-96363999D03*
%TO.P,U3,8,GND*%
%TO.N,GND*%
X103264999Y-96363999D03*
%TO.P,U3,9,QH*%
%TO.N,/Dout*%
X103264999Y-103983999D03*
%TO.P,U3,10,~{R}*%
%TO.N,+5V*%
X105804999Y-103983999D03*
%TO.P,U3,11,SCK*%
%TO.N,/CLK*%
X108344999Y-103983999D03*
%TO.P,U3,12,CLK*%
X110884999Y-103983999D03*
%TO.P,U3,13,~{SLoad}*%
%TO.N,/Latch*%
X113424999Y-103983999D03*
%TO.P,U3,14,SER*%
%TO.N,/Dout_1*%
X115964999Y-103983999D03*
%TO.P,U3,15,A*%
%TO.N,/R8*%
X118504999Y-103983999D03*
%TO.P,U3,16,VCC*%
%TO.N,+5V*%
X121044999Y-103983999D03*
%TD*%
D14*
%TO.P,R6,2*%
%TO.N,Net-(Q3-G)*%
X93985500Y-103264500D03*
%TO.P,R6,1*%
%TO.N,/d_C2*%
X95810500Y-103264500D03*
%TD*%
D10*
%TO.P,D6,1,K*%
%TO.N,Net-(D6-K)*%
X86008000Y-87784500D03*
%TO.P,D6,2,A*%
%TO.N,/C5*%
X86008000Y-89534500D03*
%TD*%
D15*
%TO.P,Q2,3,S*%
%TO.N,+5V*%
X97667999Y-99499499D03*
D16*
%TO.P,Q2,2,D*%
%TO.N,/C1*%
X96168000Y-99412000D03*
D15*
%TO.P,Q2,1,G*%
%TO.N,Net-(Q2-G)*%
X94667999Y-99499499D03*
%TD*%
D12*
%TO.P,U2,1,B*%
%TO.N,/R1*%
X142634999Y-96363999D03*
D13*
%TO.P,U2,2,C*%
%TO.N,/R2*%
X140094999Y-96363999D03*
%TO.P,U2,3,D*%
%TO.N,/R3*%
X137554999Y-96363999D03*
%TO.P,U2,4,E*%
%TO.N,/R4*%
X135014999Y-96363999D03*
%TO.P,U2,5,F*%
%TO.N,/R5*%
X132474999Y-96363999D03*
%TO.P,U2,6,G*%
%TO.N,/R6*%
X129934999Y-96363999D03*
%TO.P,U2,7,H*%
%TO.N,/R7*%
X127394999Y-96363999D03*
%TO.P,U2,8,GND*%
%TO.N,GND*%
X124854999Y-96363999D03*
%TO.P,U2,9,QH*%
%TO.N,/Dout_1*%
X124854999Y-103983999D03*
%TO.P,U2,10,~{R}*%
%TO.N,+5V*%
X127394999Y-103983999D03*
%TO.P,U2,11,SCK*%
%TO.N,/CLK*%
X129934999Y-103983999D03*
%TO.P,U2,12,CLK*%
X132474999Y-103983999D03*
%TO.P,U2,13,~{SLoad}*%
%TO.N,/Latch*%
X135014999Y-103983999D03*
%TO.P,U2,14,SER*%
%TO.N,GND*%
X137554999Y-103983999D03*
%TO.P,U2,15,A*%
%TO.N,/R0*%
X140094999Y-103983999D03*
%TO.P,U2,16,VCC*%
%TO.N,+5V*%
X142634999Y-103983999D03*
%TD*%
D14*
%TO.P,R8,1*%
%TO.N,/d_C3*%
X92000500Y-101359500D03*
%TO.P,R8,2*%
%TO.N,Net-(Q4-G)*%
X90175500Y-101359500D03*
%TD*%
D11*
%TO.P,D16,1,K*%
%TO.N,/R7*%
X126775000Y-89365000D03*
%TO.P,D16,2,A*%
%TO.N,Net-(D16-A)*%
X126775000Y-87615000D03*
%TD*%
%TO.P,D18,1,K*%
%TO.N,/R9*%
X121695000Y-89365000D03*
%TO.P,D18,2,A*%
%TO.N,Net-(D18-A)*%
X121695000Y-87615000D03*
%TD*%
D18*
%TO.P,J1,1,Pin_1*%
%TO.N,GND*%
X75085999Y-99919999D03*
D19*
%TO.P,J1,2,Pin_2*%
%TO.N,+5V*%
X75085999Y-102459999D03*
%TO.P,J1,3,Pin_3*%
%TO.N,/Din*%
X75085999Y-104999999D03*
%TO.P,J1,4,Pin_4*%
%TO.N,/Latch*%
X75085999Y-107539999D03*
%TO.P,J1,5,Pin_5*%
%TO.N,/CLK*%
X75085999Y-110079999D03*
%TO.P,J1,6,Pin_6*%
%TO.N,/Dout*%
X75085999Y-112619999D03*
%TD*%
D11*
%TO.P,D24,1,K*%
%TO.N,/R15*%
X106420000Y-89365000D03*
%TO.P,D24,2,A*%
%TO.N,Net-(D24-A)*%
X106420000Y-87615000D03*
%TD*%
D10*
%TO.P,D3,1,K*%
%TO.N,Net-(D3-K)*%
X93628000Y-87784500D03*
%TO.P,D3,2,A*%
%TO.N,/C2*%
X93628000Y-89534500D03*
%TD*%
D11*
%TO.P,D13,1,K*%
%TO.N,/R4*%
X134445000Y-89365000D03*
%TO.P,D13,2,A*%
%TO.N,Net-(D13-A)*%
X134445000Y-87615000D03*
%TD*%
D14*
%TO.P,R12,1*%
%TO.N,/d_C5*%
X86920500Y-101359500D03*
%TO.P,R12,2*%
%TO.N,Net-(Q6-G)*%
X85095500Y-101359500D03*
%TD*%
D10*
%TO.P,D5,1,K*%
%TO.N,Net-(D5-K)*%
X88548000Y-87784500D03*
%TO.P,D5,2,A*%
%TO.N,/C4*%
X88548000Y-89534500D03*
%TD*%
D18*
%TO.P,J2,1,Pin_1*%
%TO.N,GND*%
X101247999Y-92469499D03*
D19*
%TO.P,J2,2,Pin_2*%
%TO.N,/C0*%
X98707999Y-92469499D03*
%TO.P,J2,3,Pin_3*%
%TO.N,/C1*%
X96167999Y-92469499D03*
%TO.P,J2,4,Pin_4*%
%TO.N,/C2*%
X93627999Y-92469499D03*
%TO.P,J2,5,Pin_5*%
%TO.N,/C3*%
X91087999Y-92469499D03*
%TO.P,J2,6,Pin_6*%
%TO.N,/C4*%
X88547999Y-92469499D03*
%TO.P,J2,7,Pin_7*%
%TO.N,/C5*%
X86007999Y-92469499D03*
%TO.P,J2,8,Pin_8*%
%TO.N,/C6*%
X83467999Y-92469499D03*
%TO.P,J2,9,Pin_9*%
%TO.N,/C7*%
X80927999Y-92469499D03*
%TO.P,J2,10,Pin_10*%
%TO.N,GND*%
X78387999Y-92469499D03*
%TD*%
D11*
%TO.P,D9,1,K*%
%TO.N,/R0*%
X144555000Y-89365000D03*
%TO.P,D9,2,A*%
%TO.N,Net-(D9-A)*%
X144555000Y-87615000D03*
%TD*%
D14*
%TO.P,R16,1*%
%TO.N,/d_C7*%
X81840500Y-101359500D03*
%TO.P,R16,2*%
%TO.N,Net-(Q8-G)*%
X80015500Y-101359500D03*
%TD*%
D11*
%TO.P,D10,1,K*%
%TO.N,/R1*%
X142015000Y-89365000D03*
%TO.P,D10,2,A*%
%TO.N,Net-(D10-A)*%
X142015000Y-87615000D03*
%TD*%
%TO.P,D17,1,K*%
%TO.N,/R8*%
X124235000Y-89365000D03*
%TO.P,D17,2,A*%
%TO.N,Net-(D17-A)*%
X124235000Y-87615000D03*
%TD*%
%TO.P,D12,1,K*%
%TO.N,/R3*%
X136935000Y-89365000D03*
%TO.P,D12,2,A*%
%TO.N,Net-(D12-A)*%
X136935000Y-87615000D03*
%TD*%
D15*
%TO.P,Q4,1,G*%
%TO.N,Net-(Q4-G)*%
X89587999Y-99499499D03*
D16*
%TO.P,Q4,2,D*%
%TO.N,/C3*%
X91088000Y-99412000D03*
D15*
%TO.P,Q4,3,S*%
%TO.N,+5V*%
X92587999Y-99499499D03*
%TD*%
D14*
%TO.P,R14,2*%
%TO.N,Net-(Q7-G)*%
X83825500Y-103264500D03*
%TO.P,R14,1*%
%TO.N,/d_C6*%
X85650500Y-103264500D03*
%TD*%
D20*
%TO.N,+5V*%
X92612000Y-99581500D03*
X97692000Y-99581500D03*
X87532000Y-99581500D03*
X82452000Y-99581500D03*
X101375000Y-102460000D03*
%TO.N,Net-(D1-K)*%
X98708000Y-87474000D03*
%TO.N,Net-(D2-K)*%
X96168000Y-87474000D03*
%TO.N,Net-(D3-K)*%
X93628000Y-87474000D03*
%TO.N,Net-(D4-K)*%
X91088000Y-87474000D03*
%TO.N,Net-(D5-K)*%
X88548000Y-87474000D03*
%TO.N,Net-(D6-K)*%
X86008000Y-87474000D03*
%TO.N,Net-(D7-K)*%
X83468000Y-87474000D03*
%TO.N,Net-(D8-K)*%
X80928000Y-87474000D03*
%TO.N,/Latch*%
X111535000Y-107540000D03*
X88040000Y-109445000D03*
%TO.N,/CLK*%
X85500000Y-109445000D03*
%TO.N,/R8*%
X123600000Y-98650000D03*
%TO.N,Net-(Q1-G)*%
X100232000Y-99327500D03*
%TO.N,Net-(Q3-G)*%
X93628000Y-101613500D03*
%TO.N,Net-(Q5-G)*%
X88548000Y-101613500D03*
%TO.N,Net-(Q7-G)*%
X83468000Y-101613500D03*
%TO.N,Net-(D9-A)*%
X144555000Y-87220000D03*
%TO.N,Net-(D10-A)*%
X142015000Y-87220000D03*
%TO.N,Net-(D11-A)*%
X139475000Y-87220000D03*
%TO.N,Net-(D12-A)*%
X136935000Y-87220000D03*
%TO.N,Net-(D13-A)*%
X134395000Y-87220000D03*
%TO.N,Net-(D14-A)*%
X131855000Y-87220000D03*
%TO.N,Net-(D15-A)*%
X129315000Y-87220000D03*
%TO.N,Net-(D16-A)*%
X126775000Y-87220000D03*
%TO.N,Net-(D17-A)*%
X124235000Y-87220000D03*
%TO.N,Net-(D18-A)*%
X121695000Y-87220000D03*
%TO.N,Net-(D19-A)*%
X119155000Y-87220000D03*
%TO.N,Net-(D20-A)*%
X116615000Y-87220000D03*
%TO.N,Net-(D21-A)*%
X114075000Y-87220000D03*
%TO.N,Net-(D22-A)*%
X111535000Y-87220000D03*
%TO.N,Net-(D23-A)*%
X108995000Y-87220000D03*
%TO.N,Net-(D24-A)*%
X106455000Y-87220000D03*
%TD*%
D21*
%TO.N,+5V*%
X101375000Y-102460000D02*
X101375000Y-110376500D01*
X101375000Y-110376500D02*
X98200000Y-113551500D01*
D22*
%TO.N,GND*%
X124855000Y-96730000D02*
X128680000Y-100555000D01*
X123981000Y-96364000D02*
X123981000Y-96613000D01*
X121309000Y-99285000D02*
X105185000Y-99285000D01*
X124855000Y-96364000D02*
X124855000Y-96730000D01*
D23*
X77880000Y-92977500D02*
X78388000Y-92469500D01*
X80420000Y-105931500D02*
X79446500Y-105931500D01*
X77880000Y-104365000D02*
X77880000Y-99920000D01*
D22*
X137555000Y-102445000D02*
X137555000Y-103984000D01*
X103265000Y-97365000D02*
X103265000Y-96364000D01*
X135665000Y-100555000D02*
X137555000Y-102445000D01*
D23*
X79446500Y-105931500D02*
X77880000Y-104365000D01*
D22*
X128680000Y-100555000D02*
X135665000Y-100555000D01*
X105185000Y-99285000D02*
X103265000Y-97365000D01*
X124855000Y-96364000D02*
X123981000Y-96364000D01*
D23*
X77880000Y-99920000D02*
X77880000Y-92977500D01*
X75086000Y-99920000D02*
X77880000Y-99920000D01*
D22*
X123981000Y-96613000D02*
X121309000Y-99285000D01*
D23*
%TO.N,/C0*%
X98713000Y-89689500D02*
X98708000Y-89684500D01*
X98713000Y-92469500D02*
X98713000Y-89689500D01*
D22*
%TO.N,/C1*%
X96168000Y-92464500D02*
X96173000Y-92469500D01*
D23*
X96173000Y-92469500D02*
X96173000Y-95512500D01*
D22*
X96168000Y-89684500D02*
X96168000Y-92464500D01*
D23*
%TO.N,/C2*%
X93633000Y-92469500D02*
X93633000Y-89689500D01*
X93633000Y-89689500D02*
X93628000Y-89684500D01*
D22*
%TO.N,/C3*%
X91088000Y-89684500D02*
X91088000Y-92464500D01*
X91088000Y-92464500D02*
X91093000Y-92469500D01*
D23*
X91093000Y-92469500D02*
X91093000Y-95512500D01*
%TO.N,/C4*%
X88553000Y-92469500D02*
X88553000Y-89689500D01*
X88553000Y-89689500D02*
X88548000Y-89684500D01*
%TO.N,/C5*%
X86013000Y-92469500D02*
X86013000Y-95512500D01*
D22*
X86008000Y-92464500D02*
X86013000Y-92469500D01*
X86008000Y-89684500D02*
X86008000Y-92464500D01*
D23*
%TO.N,/C6*%
X83473000Y-92469500D02*
X83473000Y-89689500D01*
X83473000Y-89689500D02*
X83468000Y-89684500D01*
D22*
%TO.N,/C7*%
X80928000Y-92464500D02*
X80933000Y-92469500D01*
X80928000Y-89684500D02*
X80928000Y-92464500D01*
D23*
X80933000Y-92469500D02*
X80933000Y-95512500D01*
D21*
%TO.N,/Dout*%
X103265000Y-103984000D02*
X103265000Y-112635000D01*
X103265000Y-112635000D02*
X100105000Y-115795000D01*
X75086000Y-112620000D02*
X78261000Y-115795000D01*
X78261000Y-115795000D02*
X100105000Y-115795000D01*
%TO.N,/Latch*%
X133760000Y-106270000D02*
X114710000Y-106270000D01*
X113425000Y-105650000D02*
X111535000Y-107540000D01*
X135015000Y-103984000D02*
X135015000Y-105015000D01*
X86770000Y-108175000D02*
X88040000Y-109445000D01*
X135015000Y-105015000D02*
X133760000Y-106270000D01*
X113425000Y-103984000D02*
X113425000Y-105650000D01*
X75721000Y-108175000D02*
X86770000Y-108175000D01*
X113425000Y-104985000D02*
X113425000Y-103984000D01*
X75086000Y-107540000D02*
X75721000Y-108175000D01*
X114710000Y-106270000D02*
X113425000Y-104985000D01*
X88040000Y-109445000D02*
X88040000Y-113551500D01*
%TO.N,/CLK*%
X84865000Y-110080000D02*
X85500000Y-109445000D01*
X75086000Y-110080000D02*
X84865000Y-110080000D01*
X85500000Y-109445000D02*
X85500000Y-113551500D01*
D22*
%TO.N,/R0*%
X145190000Y-97380000D02*
X145190000Y-92935000D01*
X140095000Y-102475000D02*
X145190000Y-97380000D01*
X144555000Y-92300000D02*
X144555000Y-89365000D01*
X140095000Y-103984000D02*
X140095000Y-102475000D01*
X145190000Y-92935000D02*
X144555000Y-92300000D01*
%TO.N,/R1*%
X142015000Y-89365000D02*
X142015000Y-92300000D01*
%TO.N,/R2*%
X139475000Y-89365000D02*
X139475000Y-91665000D01*
%TO.N,/R3*%
X136935000Y-92300000D02*
X136935000Y-89365000D01*
%TO.N,/R4*%
X134445000Y-92250000D02*
X134395000Y-92300000D01*
X134445000Y-89365000D02*
X134445000Y-92250000D01*
%TO.N,/R5*%
X131855000Y-89365000D02*
X131855000Y-92300000D01*
%TO.N,/R6*%
X129315000Y-92300000D02*
X129315000Y-89365000D01*
%TO.N,/R7*%
X126775000Y-89365000D02*
X126775000Y-92300000D01*
D24*
%TO.N,/R8*%
X118505000Y-103745000D02*
X123600000Y-98650000D01*
D22*
X124235000Y-92300000D02*
X124235000Y-89365000D01*
D24*
X118505000Y-103984000D02*
X118505000Y-103745000D01*
D22*
%TO.N,/R9*%
X121695000Y-89365000D02*
X121695000Y-92300000D01*
%TO.N,/R10*%
X119155000Y-92300000D02*
X119155000Y-89365000D01*
%TO.N,/R11*%
X116615000Y-89365000D02*
X116615000Y-92300000D01*
%TO.N,/R12*%
X114075000Y-89365000D02*
X114075000Y-92300000D01*
%TO.N,/R13*%
X111535000Y-89365000D02*
X111535000Y-92300000D01*
%TO.N,/R14*%
X108995000Y-89365000D02*
X108995000Y-92300000D01*
%TO.N,/R15*%
X106420000Y-92265000D02*
X106455000Y-92300000D01*
X106420000Y-89365000D02*
X106420000Y-92265000D01*
D24*
%TO.N,/d_C0*%
X95660000Y-112112000D02*
X99978000Y-107794000D01*
X95660000Y-113551500D02*
X95660000Y-112112000D01*
X99978000Y-103714000D02*
X99724000Y-103460000D01*
X99978000Y-107794000D02*
X99978000Y-103714000D01*
%TO.N,Net-(Q1-G)*%
X99724000Y-99835500D02*
X100232000Y-99327500D01*
X99724000Y-101460000D02*
X99724000Y-99835500D01*
%TO.N,/d_C1*%
X97168000Y-104899500D02*
X98200000Y-105931500D01*
X97168000Y-101359500D02*
X97168000Y-104899500D01*
%TO.N,Net-(Q2-G)*%
X94668000Y-100859500D02*
X95168000Y-101359500D01*
X94668000Y-99499500D02*
X94668000Y-100859500D01*
%TO.N,/d_C2*%
X95898000Y-103264500D02*
X95898000Y-105693500D01*
X95898000Y-105693500D02*
X95660000Y-105931500D01*
%TO.N,Net-(Q3-G)*%
X93628000Y-101613500D02*
X93628000Y-102994500D01*
X93628000Y-102994500D02*
X93898000Y-103264500D01*
%TO.N,/d_C3*%
X92088000Y-104899500D02*
X93120000Y-105931500D01*
X92088000Y-101359500D02*
X92088000Y-104899500D01*
%TO.N,Net-(Q4-G)*%
X89588000Y-99499500D02*
X89588000Y-100859500D01*
X89588000Y-100859500D02*
X90088000Y-101359500D01*
%TO.N,/d_C4*%
X90818000Y-103264500D02*
X90818000Y-105693500D01*
X90818000Y-105693500D02*
X90580000Y-105931500D01*
%TO.N,Net-(Q5-G)*%
X88548000Y-101613500D02*
X88548000Y-102994500D01*
X88548000Y-102994500D02*
X88818000Y-103264500D01*
%TO.N,/d_C5*%
X87008000Y-104899500D02*
X88040000Y-105931500D01*
X87008000Y-101359500D02*
X87008000Y-104899500D01*
%TO.N,Net-(Q6-G)*%
X84508000Y-100859500D02*
X85008000Y-101359500D01*
X84508000Y-99499500D02*
X84508000Y-100859500D01*
%TO.N,/d_C6*%
X85738000Y-103264500D02*
X85738000Y-105693500D01*
X85738000Y-105693500D02*
X85500000Y-105931500D01*
%TO.N,Net-(Q7-G)*%
X83738000Y-103153500D02*
X83468000Y-102883500D01*
X83468000Y-102883500D02*
X83468000Y-101613500D01*
X83738000Y-103264500D02*
X83738000Y-103153500D01*
%TO.N,/d_C7*%
X81928000Y-101359500D02*
X81928000Y-104899500D01*
X81928000Y-104899500D02*
X82960000Y-105931500D01*
%TO.N,Net-(Q8-G)*%
X79428000Y-100859500D02*
X79928000Y-101359500D01*
X79428000Y-99499500D02*
X79428000Y-100859500D01*
D22*
%TO.N,Net-(D9-A)*%
X144555000Y-87615000D02*
X144555000Y-87220000D01*
%TO.N,Net-(D10-A)*%
X142015000Y-87615000D02*
X142015000Y-87220000D01*
%TO.N,Net-(D12-A)*%
X136935000Y-87615000D02*
X136935000Y-87220000D01*
%TO.N,Net-(D13-A)*%
X134445000Y-87615000D02*
X134445000Y-87270000D01*
X134445000Y-87270000D02*
X134395000Y-87220000D01*
%TO.N,Net-(D14-A)*%
X131855000Y-87615000D02*
X131855000Y-87220000D01*
%TO.N,Net-(D15-A)*%
X129315000Y-87615000D02*
X129315000Y-87220000D01*
%TO.N,Net-(D16-A)*%
X126775000Y-87615000D02*
X126775000Y-87220000D01*
%TO.N,Net-(D17-A)*%
X124235000Y-87615000D02*
X124235000Y-87220000D01*
%TO.N,Net-(D18-A)*%
X121695000Y-87615000D02*
X121695000Y-87220000D01*
%TO.N,Net-(D20-A)*%
X116615000Y-87615000D02*
X116615000Y-87220000D01*
%TO.N,Net-(D21-A)*%
X114075000Y-87615000D02*
X114075000Y-87220000D01*
%TO.N,Net-(D22-A)*%
X111535000Y-87615000D02*
X111535000Y-87220000D01*
%TO.N,Net-(D23-A)*%
X108995000Y-87615000D02*
X108995000Y-87220000D01*
%TO.N,Net-(D24-A)*%
X106420000Y-87615000D02*
X106420000Y-87255000D01*
X106420000Y-87255000D02*
X106455000Y-87220000D01*
%TD*%
M02*
