%TF.GenerationSoftware,KiCad,Pcbnew,(7.0.0)*%
%TF.CreationDate,2023-09-21T15:04:23+02:00*%
%TF.ProjectId,hall_sensor_matrix_v2,68616c6c-5f73-4656-9e73-6f725f6d6174,rev?*%
%TF.SameCoordinates,Original*%
%TF.FileFunction,Copper,L2,Bot*%
%TF.FilePolarity,Positive*%
%FSLAX46Y46*%
G04 Gerber Fmt 4.6, Leading zero omitted, Abs format (unit mm)*
G04 Created by KiCad (PCBNEW (7.0.0)) date 2023-09-21 15:04:23*
%MOMM*%
%LPD*%
G01*
G04 APERTURE LIST*
G04 Aperture macros list*
%AMRoundRect*
0 Rectangle with rounded corners*
0 $1 Rounding radius*
0 $2 $3 $4 $5 $6 $7 $8 $9 X,Y pos of 4 corners*
0 Add a 4 corners polygon primitive as box body*
4,1,4,$2,$3,$4,$5,$6,$7,$8,$9,$2,$3,0*
0 Add four circle primitives for the rounded corners*
1,1,$1+$1,$2,$3*
1,1,$1+$1,$4,$5*
1,1,$1+$1,$6,$7*
1,1,$1+$1,$8,$9*
0 Add four rect primitives between the rounded corners*
20,1,$1+$1,$2,$3,$4,$5,0*
20,1,$1+$1,$4,$5,$6,$7,0*
20,1,$1+$1,$6,$7,$8,$9,0*
20,1,$1+$1,$8,$9,$2,$3,0*%
%AMFreePoly0*
4,1,9,3.862500,-0.866500,0.737500,-0.866500,0.737500,-0.450000,-0.737500,-0.450000,-0.737500,0.450000,0.737500,0.450000,0.737500,0.866500,3.862500,0.866500,3.862500,-0.866500,3.862500,-0.866500,$1*%
G04 Aperture macros list end*
%TA.AperFunction,ComponentPad*%
%ADD10R,1.600000X2.400000*%
%TD*%
%TA.AperFunction,ComponentPad*%
%ADD11O,1.600000X2.400000*%
%TD*%
%TA.AperFunction,ComponentPad*%
%ADD12R,1.700000X1.700000*%
%TD*%
%TA.AperFunction,ComponentPad*%
%ADD13O,1.700000X1.700000*%
%TD*%
%TA.AperFunction,SMDPad,CuDef*%
%ADD14RoundRect,0.237500X0.237500X-0.300000X0.237500X0.300000X-0.237500X0.300000X-0.237500X-0.300000X0*%
%TD*%
%TA.AperFunction,SMDPad,CuDef*%
%ADD15RoundRect,0.250000X0.450000X-0.262500X0.450000X0.262500X-0.450000X0.262500X-0.450000X-0.262500X0*%
%TD*%
%TA.AperFunction,SMDPad,CuDef*%
%ADD16RoundRect,0.250000X-0.450000X0.262500X-0.450000X-0.262500X0.450000X-0.262500X0.450000X0.262500X0*%
%TD*%
%TA.AperFunction,SMDPad,CuDef*%
%ADD17RoundRect,0.250000X0.475000X-0.337500X0.475000X0.337500X-0.475000X0.337500X-0.475000X-0.337500X0*%
%TD*%
%TA.AperFunction,SMDPad,CuDef*%
%ADD18R,0.900000X1.300000*%
%TD*%
%TA.AperFunction,SMDPad,CuDef*%
%ADD19FreePoly0,90.000000*%
%TD*%
%TA.AperFunction,SMDPad,CuDef*%
%ADD20RoundRect,0.237500X0.300000X0.237500X-0.300000X0.237500X-0.300000X-0.237500X0.300000X-0.237500X0*%
%TD*%
%TA.AperFunction,ViaPad*%
%ADD21C,0.800000*%
%TD*%
%TA.AperFunction,Conductor*%
%ADD22C,1.000000*%
%TD*%
%TA.AperFunction,Conductor*%
%ADD23C,0.500000*%
%TD*%
%TA.AperFunction,Conductor*%
%ADD24C,0.800000*%
%TD*%
%TA.AperFunction,Conductor*%
%ADD25C,1.500000*%
%TD*%
G04 APERTURE END LIST*
D10*
%TO.P,U1,1,QB*%
%TO.N,/d_C1*%
X98199999Y-105931499D03*
D11*
%TO.P,U1,2,QC*%
%TO.N,/d_C2*%
X95659999Y-105931499D03*
%TO.P,U1,3,QD*%
%TO.N,/d_C3*%
X93119999Y-105931499D03*
%TO.P,U1,4,QE*%
%TO.N,/d_C4*%
X90579999Y-105931499D03*
%TO.P,U1,5,QF*%
%TO.N,/d_C5*%
X88039999Y-105931499D03*
%TO.P,U1,6,QG*%
%TO.N,/d_C6*%
X85499999Y-105931499D03*
%TO.P,U1,7,QH*%
%TO.N,/d_C7*%
X82959999Y-105931499D03*
%TO.P,U1,8,GND*%
%TO.N,GND*%
X80419999Y-105931499D03*
%TO.P,U1,9,QHser*%
%TO.N,/Din_o*%
X80419999Y-113551499D03*
%TO.P,U1,10,~{SCLR}*%
%TO.N,+5V*%
X82959999Y-113551499D03*
%TO.P,U1,11,SCLK*%
%TO.N,/CLK*%
X85499999Y-113551499D03*
%TO.P,U1,12,RCLK*%
%TO.N,/Latch*%
X88039999Y-113551499D03*
%TO.P,U1,13,~{G}*%
%TO.N,GND*%
X90579999Y-113551499D03*
%TO.P,U1,14,SER*%
%TO.N,/Din*%
X93119999Y-113551499D03*
%TO.P,U1,15,QA*%
%TO.N,/d_C0*%
X95659999Y-113551499D03*
%TO.P,U1,16,VCC*%
%TO.N,+5V*%
X98199999Y-113551499D03*
%TD*%
D12*
%TO.P,J3,1,Pin_1*%
%TO.N,/R0*%
X144554999Y-92299999D03*
D13*
%TO.P,J3,2,Pin_2*%
%TO.N,/R1*%
X142014999Y-92299999D03*
%TO.P,J3,3,Pin_3*%
%TO.N,/R2*%
X139474999Y-92299999D03*
%TO.P,J3,4,Pin_4*%
%TO.N,/R3*%
X136934999Y-92299999D03*
%TO.P,J3,5,Pin_5*%
%TO.N,/R4*%
X134394999Y-92299999D03*
%TO.P,J3,6,Pin_6*%
%TO.N,/R5*%
X131854999Y-92299999D03*
%TO.P,J3,7,Pin_7*%
%TO.N,/R6*%
X129314999Y-92299999D03*
%TO.P,J3,8,Pin_8*%
%TO.N,/R7*%
X126774999Y-92299999D03*
%TO.P,J3,9,Pin_9*%
%TO.N,/R8*%
X124234999Y-92299999D03*
%TO.P,J3,10,Pin_10*%
%TO.N,/R9*%
X121694999Y-92299999D03*
%TO.P,J3,11,Pin_11*%
%TO.N,/R10*%
X119154999Y-92299999D03*
%TO.P,J3,12,Pin_12*%
%TO.N,/R11*%
X116614999Y-92299999D03*
%TO.P,J3,13,Pin_13*%
%TO.N,/R12*%
X114074999Y-92299999D03*
%TO.P,J3,14,Pin_14*%
%TO.N,/R13*%
X111534999Y-92299999D03*
%TO.P,J3,15,Pin_15*%
%TO.N,/R14*%
X108994999Y-92299999D03*
%TO.P,J3,16,Pin_16*%
%TO.N,/R15*%
X106454999Y-92299999D03*
%TD*%
D10*
%TO.P,U3,1,B*%
%TO.N,/R9*%
X121044999Y-96363999D03*
D11*
%TO.P,U3,2,C*%
%TO.N,/R10*%
X118504999Y-96363999D03*
%TO.P,U3,3,D*%
%TO.N,/R11*%
X115964999Y-96363999D03*
%TO.P,U3,4,E*%
%TO.N,/R12*%
X113424999Y-96363999D03*
%TO.P,U3,5,F*%
%TO.N,/R13*%
X110884999Y-96363999D03*
%TO.P,U3,6,G*%
%TO.N,/R14*%
X108344999Y-96363999D03*
%TO.P,U3,7,H*%
%TO.N,/R15*%
X105804999Y-96363999D03*
%TO.P,U3,8,GND*%
%TO.N,GND*%
X103264999Y-96363999D03*
%TO.P,U3,9,QH*%
%TO.N,/Dout*%
X103264999Y-103983999D03*
%TO.P,U3,10,~{R}*%
%TO.N,+5V*%
X105804999Y-103983999D03*
%TO.P,U3,11,SCK*%
%TO.N,/CLK*%
X108344999Y-103983999D03*
%TO.P,U3,12,CLK*%
X110884999Y-103983999D03*
%TO.P,U3,13,~{SLoad}*%
%TO.N,/Latch*%
X113424999Y-103983999D03*
%TO.P,U3,14,SER*%
%TO.N,/Dout_1*%
X115964999Y-103983999D03*
%TO.P,U3,15,A*%
%TO.N,/R8*%
X118504999Y-103983999D03*
%TO.P,U3,16,VCC*%
%TO.N,+5V*%
X121044999Y-103983999D03*
%TD*%
D10*
%TO.P,U2,1,B*%
%TO.N,/R1*%
X142634999Y-96363999D03*
D11*
%TO.P,U2,2,C*%
%TO.N,/R2*%
X140094999Y-96363999D03*
%TO.P,U2,3,D*%
%TO.N,/R3*%
X137554999Y-96363999D03*
%TO.P,U2,4,E*%
%TO.N,/R4*%
X135014999Y-96363999D03*
%TO.P,U2,5,F*%
%TO.N,/R5*%
X132474999Y-96363999D03*
%TO.P,U2,6,G*%
%TO.N,/R6*%
X129934999Y-96363999D03*
%TO.P,U2,7,H*%
%TO.N,/R7*%
X127394999Y-96363999D03*
%TO.P,U2,8,GND*%
%TO.N,GND*%
X124854999Y-96363999D03*
%TO.P,U2,9,QH*%
%TO.N,/Dout_1*%
X124854999Y-103983999D03*
%TO.P,U2,10,~{R}*%
%TO.N,+5V*%
X127394999Y-103983999D03*
%TO.P,U2,11,SCK*%
%TO.N,/CLK*%
X129934999Y-103983999D03*
%TO.P,U2,12,CLK*%
X132474999Y-103983999D03*
%TO.P,U2,13,~{SLoad}*%
%TO.N,/Latch*%
X135014999Y-103983999D03*
%TO.P,U2,14,SER*%
%TO.N,GND*%
X137554999Y-103983999D03*
%TO.P,U2,15,A*%
%TO.N,/R0*%
X140094999Y-103983999D03*
%TO.P,U2,16,VCC*%
%TO.N,+5V*%
X142634999Y-103983999D03*
%TD*%
D12*
%TO.P,J1,1,Pin_1*%
%TO.N,GND*%
X75085999Y-99919999D03*
D13*
%TO.P,J1,2,Pin_2*%
%TO.N,+5V*%
X75085999Y-102459999D03*
%TO.P,J1,3,Pin_3*%
%TO.N,/Din*%
X75085999Y-104999999D03*
%TO.P,J1,4,Pin_4*%
%TO.N,/Latch*%
X75085999Y-107539999D03*
%TO.P,J1,5,Pin_5*%
%TO.N,/CLK*%
X75085999Y-110079999D03*
%TO.P,J1,6,Pin_6*%
%TO.N,/Dout*%
X75085999Y-112619999D03*
%TD*%
D12*
%TO.P,J2,1,Pin_1*%
%TO.N,GND*%
X101247999Y-92469499D03*
D13*
%TO.P,J2,2,Pin_2*%
%TO.N,/C0*%
X98707999Y-92469499D03*
%TO.P,J2,3,Pin_3*%
%TO.N,/C1*%
X96167999Y-92469499D03*
%TO.P,J2,4,Pin_4*%
%TO.N,/C2*%
X93627999Y-92469499D03*
%TO.P,J2,5,Pin_5*%
%TO.N,/C3*%
X91087999Y-92469499D03*
%TO.P,J2,6,Pin_6*%
%TO.N,/C4*%
X88547999Y-92469499D03*
%TO.P,J2,7,Pin_7*%
%TO.N,/C5*%
X86007999Y-92469499D03*
%TO.P,J2,8,Pin_8*%
%TO.N,/C6*%
X83467999Y-92469499D03*
%TO.P,J2,9,Pin_9*%
%TO.N,/C7*%
X80927999Y-92469499D03*
%TO.P,J2,10,Pin_10*%
%TO.N,GND*%
X78387999Y-92469499D03*
%TD*%
D14*
%TO.P,C1,1*%
%TO.N,+5V*%
X103280000Y-100782500D03*
%TO.P,C1,2*%
%TO.N,GND*%
X103280000Y-99057500D03*
%TD*%
D15*
%TO.P,R20,1*%
%TO.N,+5V*%
X137570000Y-100832500D03*
%TO.P,R20,2*%
%TO.N,/R3*%
X137570000Y-99007500D03*
%TD*%
%TO.P,R43,1*%
%TO.N,+5V*%
X119155000Y-90037500D03*
%TO.P,R43,2*%
%TO.N,Net-(D19-A)*%
X119155000Y-88212500D03*
%TD*%
D16*
%TO.P,R11,1*%
%TO.N,Net-(D6-K)*%
X86008000Y-87847500D03*
%TO.P,R11,2*%
%TO.N,GND*%
X86008000Y-89672500D03*
%TD*%
D15*
%TO.P,R39,1*%
%TO.N,+5V*%
X129315000Y-90037500D03*
%TO.P,R39,2*%
%TO.N,Net-(D15-A)*%
X129315000Y-88212500D03*
%TD*%
%TO.P,R46,1*%
%TO.N,+5V*%
X111570000Y-90037500D03*
%TO.P,R46,2*%
%TO.N,Net-(D22-A)*%
X111570000Y-88212500D03*
%TD*%
D17*
%TO.P,C2,1*%
%TO.N,+5V*%
X77880000Y-102227500D03*
%TO.P,C2,2*%
%TO.N,GND*%
X77880000Y-100152500D03*
%TD*%
D15*
%TO.P,R29,1*%
%TO.N,+5V*%
X113440000Y-100832500D03*
%TO.P,R29,2*%
%TO.N,/R12*%
X113440000Y-99007500D03*
%TD*%
D16*
%TO.P,R3,1*%
%TO.N,Net-(D2-K)*%
X96168000Y-87847500D03*
%TO.P,R3,2*%
%TO.N,GND*%
X96168000Y-89672500D03*
%TD*%
D15*
%TO.P,R48,1*%
%TO.N,+5V*%
X106455000Y-90037500D03*
%TO.P,R48,2*%
%TO.N,Net-(D24-A)*%
X106455000Y-88212500D03*
%TD*%
D16*
%TO.P,R7,1*%
%TO.N,Net-(D4-K)*%
X91088000Y-87847500D03*
%TO.P,R7,2*%
%TO.N,GND*%
X91088000Y-89672500D03*
%TD*%
D15*
%TO.P,R42,1*%
%TO.N,+5V*%
X121695000Y-90037500D03*
%TO.P,R42,2*%
%TO.N,Net-(D18-A)*%
X121695000Y-88212500D03*
%TD*%
%TO.P,R33,1*%
%TO.N,+5V*%
X144555000Y-90037500D03*
%TO.P,R33,2*%
%TO.N,Net-(D9-A)*%
X144555000Y-88212500D03*
%TD*%
%TO.P,R18,1*%
%TO.N,+5V*%
X142650000Y-100832500D03*
%TO.P,R18,2*%
%TO.N,/R1*%
X142650000Y-99007500D03*
%TD*%
%TO.P,R24,1*%
%TO.N,+5V*%
X127410000Y-100832500D03*
%TO.P,R24,2*%
%TO.N,/R7*%
X127410000Y-99007500D03*
%TD*%
%TO.P,R40,1*%
%TO.N,+5V*%
X126775000Y-90037500D03*
%TO.P,R40,2*%
%TO.N,Net-(D16-A)*%
X126775000Y-88212500D03*
%TD*%
%TO.P,R37,1*%
%TO.N,+5V*%
X134395000Y-90037500D03*
%TO.P,R37,2*%
%TO.N,Net-(D13-A)*%
X134395000Y-88212500D03*
%TD*%
%TO.P,R22,1*%
%TO.N,+5V*%
X132490000Y-100832500D03*
%TO.P,R22,2*%
%TO.N,/R5*%
X132490000Y-99007500D03*
%TD*%
D14*
%TO.P,C5,1*%
%TO.N,+5V*%
X125505000Y-100782500D03*
%TO.P,C5,2*%
%TO.N,GND*%
X125505000Y-99057500D03*
%TD*%
D15*
%TO.P,R25,1*%
%TO.N,+5V*%
X123600000Y-100832500D03*
%TO.P,R25,2*%
%TO.N,/R8*%
X123600000Y-99007500D03*
%TD*%
%TO.P,R32,1*%
%TO.N,+5V*%
X105820000Y-100832500D03*
%TO.P,R32,2*%
%TO.N,/R15*%
X105820000Y-99007500D03*
%TD*%
%TO.P,R23,1*%
%TO.N,+5V*%
X129950000Y-100832500D03*
%TO.P,R23,2*%
%TO.N,/R6*%
X129950000Y-99007500D03*
%TD*%
%TO.P,R45,1*%
%TO.N,+5V*%
X114110000Y-90037500D03*
%TO.P,R45,2*%
%TO.N,Net-(D21-A)*%
X114110000Y-88212500D03*
%TD*%
%TO.P,R34,1*%
%TO.N,+5V*%
X142015000Y-90037500D03*
%TO.P,R34,2*%
%TO.N,Net-(D10-A)*%
X142015000Y-88212500D03*
%TD*%
D18*
%TO.P,Q1,1,G*%
%TO.N,Net-(Q1-G)*%
X100207999Y-98229499D03*
D19*
%TO.P,Q1,2,D*%
%TO.N,/C0*%
X98708000Y-98142000D03*
D18*
%TO.P,Q1,3,S*%
%TO.N,+5V*%
X97207999Y-98229499D03*
%TD*%
D15*
%TO.P,R19,1*%
%TO.N,+5V*%
X140110000Y-100832500D03*
%TO.P,R19,2*%
%TO.N,/R2*%
X140110000Y-99007500D03*
%TD*%
D18*
%TO.P,Q3,1,G*%
%TO.N,Net-(Q3-G)*%
X95127999Y-98229499D03*
D19*
%TO.P,Q3,2,D*%
%TO.N,/C2*%
X93628000Y-98142000D03*
D18*
%TO.P,Q3,3,S*%
%TO.N,+5V*%
X92127999Y-98229499D03*
%TD*%
D15*
%TO.P,R27,1*%
%TO.N,+5V*%
X118520000Y-100832500D03*
%TO.P,R27,2*%
%TO.N,/R10*%
X118520000Y-99007500D03*
%TD*%
%TO.P,R31,1*%
%TO.N,+5V*%
X108360000Y-100832500D03*
%TO.P,R31,2*%
%TO.N,/R14*%
X108360000Y-99007500D03*
%TD*%
D17*
%TO.P,C4,1*%
%TO.N,+5V*%
X99724000Y-103497500D03*
%TO.P,C4,2*%
%TO.N,GND*%
X99724000Y-101422500D03*
%TD*%
D15*
%TO.P,R47,1*%
%TO.N,+5V*%
X109030000Y-90037500D03*
%TO.P,R47,2*%
%TO.N,Net-(D23-A)*%
X109030000Y-88212500D03*
%TD*%
%TO.P,R17,1*%
%TO.N,+5V*%
X145190000Y-100832500D03*
%TO.P,R17,2*%
%TO.N,/R0*%
X145190000Y-99007500D03*
%TD*%
D16*
%TO.P,R13,1*%
%TO.N,Net-(D7-K)*%
X83468000Y-87847500D03*
%TO.P,R13,2*%
%TO.N,GND*%
X83468000Y-89672500D03*
%TD*%
D15*
%TO.P,R38,1*%
%TO.N,+5V*%
X131855000Y-90037500D03*
%TO.P,R38,2*%
%TO.N,Net-(D14-A)*%
X131855000Y-88212500D03*
%TD*%
D16*
%TO.P,R1,1*%
%TO.N,Net-(D1-K)*%
X98708000Y-87847500D03*
%TO.P,R1,2*%
%TO.N,GND*%
X98708000Y-89672500D03*
%TD*%
D18*
%TO.P,Q7,1,G*%
%TO.N,Net-(Q7-G)*%
X84967999Y-98229499D03*
D19*
%TO.P,Q7,2,D*%
%TO.N,/C6*%
X83468000Y-98142000D03*
D18*
%TO.P,Q7,3,S*%
%TO.N,+5V*%
X81967999Y-98229499D03*
%TD*%
D15*
%TO.P,R44,1*%
%TO.N,+5V*%
X116615000Y-90037500D03*
%TO.P,R44,2*%
%TO.N,Net-(D20-A)*%
X116615000Y-88212500D03*
%TD*%
%TO.P,R30,1*%
%TO.N,+5V*%
X110900000Y-100832500D03*
%TO.P,R30,2*%
%TO.N,/R13*%
X110900000Y-99007500D03*
%TD*%
%TO.P,R26,1*%
%TO.N,+5V*%
X121060000Y-100832500D03*
%TO.P,R26,2*%
%TO.N,/R9*%
X121060000Y-99007500D03*
%TD*%
D16*
%TO.P,R5,1*%
%TO.N,Net-(D3-K)*%
X93628000Y-87847500D03*
%TO.P,R5,2*%
%TO.N,GND*%
X93628000Y-89672500D03*
%TD*%
D15*
%TO.P,R41,1*%
%TO.N,+5V*%
X124235000Y-90037500D03*
%TO.P,R41,2*%
%TO.N,Net-(D17-A)*%
X124235000Y-88212500D03*
%TD*%
D17*
%TO.P,C6,1*%
%TO.N,+5V*%
X79150000Y-97401500D03*
%TO.P,C6,2*%
%TO.N,GND*%
X79150000Y-95326500D03*
%TD*%
D18*
%TO.P,Q5,1,G*%
%TO.N,Net-(Q5-G)*%
X90047999Y-98229499D03*
D19*
%TO.P,Q5,2,D*%
%TO.N,/C4*%
X88548000Y-98142000D03*
D18*
%TO.P,Q5,3,S*%
%TO.N,+5V*%
X87047999Y-98229499D03*
%TD*%
D20*
%TO.P,C3,1*%
%TO.N,+5V*%
X96522500Y-110842000D03*
%TO.P,C3,2*%
%TO.N,GND*%
X94797500Y-110842000D03*
%TD*%
D15*
%TO.P,R35,1*%
%TO.N,+5V*%
X139475000Y-90037500D03*
%TO.P,R35,2*%
%TO.N,Net-(D11-A)*%
X139475000Y-88212500D03*
%TD*%
%TO.P,R21,1*%
%TO.N,+5V*%
X135030000Y-100832500D03*
%TO.P,R21,2*%
%TO.N,/R4*%
X135030000Y-99007500D03*
%TD*%
%TO.P,R36,1*%
%TO.N,+5V*%
X136935000Y-90037500D03*
%TO.P,R36,2*%
%TO.N,Net-(D12-A)*%
X136935000Y-88212500D03*
%TD*%
D16*
%TO.P,R9,1*%
%TO.N,Net-(D5-K)*%
X88548000Y-87847500D03*
%TO.P,R9,2*%
%TO.N,GND*%
X88548000Y-89672500D03*
%TD*%
%TO.P,R15,1*%
%TO.N,Net-(D8-K)*%
X80928000Y-87847500D03*
%TO.P,R15,2*%
%TO.N,GND*%
X80928000Y-89672500D03*
%TD*%
D15*
%TO.P,R28,1*%
%TO.N,+5V*%
X115980000Y-100832500D03*
%TO.P,R28,2*%
%TO.N,/R11*%
X115980000Y-99007500D03*
%TD*%
D21*
%TO.N,+5V*%
X92612000Y-99581500D03*
X97692000Y-99581500D03*
X87532000Y-99581500D03*
X82452000Y-99581500D03*
X101375000Y-102460000D03*
%TO.N,Net-(D1-K)*%
X98708000Y-87474000D03*
%TO.N,Net-(D2-K)*%
X96168000Y-87474000D03*
%TO.N,Net-(D3-K)*%
X93628000Y-87474000D03*
%TO.N,Net-(D4-K)*%
X91088000Y-87474000D03*
%TO.N,Net-(D5-K)*%
X88548000Y-87474000D03*
%TO.N,Net-(D6-K)*%
X86008000Y-87474000D03*
%TO.N,Net-(D7-K)*%
X83468000Y-87474000D03*
%TO.N,Net-(D8-K)*%
X80928000Y-87474000D03*
%TO.N,/Latch*%
X111535000Y-107540000D03*
X88040000Y-109445000D03*
%TO.N,/CLK*%
X85500000Y-109445000D03*
%TO.N,/R8*%
X123600000Y-98650000D03*
%TO.N,Net-(Q1-G)*%
X100232000Y-99327500D03*
%TO.N,Net-(Q3-G)*%
X93628000Y-101613500D03*
%TO.N,Net-(Q5-G)*%
X88548000Y-101613500D03*
%TO.N,Net-(Q7-G)*%
X83468000Y-101613500D03*
%TO.N,Net-(D9-A)*%
X144555000Y-87220000D03*
%TO.N,Net-(D10-A)*%
X142015000Y-87220000D03*
%TO.N,Net-(D11-A)*%
X139475000Y-87220000D03*
%TO.N,Net-(D12-A)*%
X136935000Y-87220000D03*
%TO.N,Net-(D13-A)*%
X134395000Y-87220000D03*
%TO.N,Net-(D14-A)*%
X131855000Y-87220000D03*
%TO.N,Net-(D15-A)*%
X129315000Y-87220000D03*
%TO.N,Net-(D16-A)*%
X126775000Y-87220000D03*
%TO.N,Net-(D17-A)*%
X124235000Y-87220000D03*
%TO.N,Net-(D18-A)*%
X121695000Y-87220000D03*
%TO.N,Net-(D19-A)*%
X119155000Y-87220000D03*
%TO.N,Net-(D20-A)*%
X116615000Y-87220000D03*
%TO.N,Net-(D21-A)*%
X114075000Y-87220000D03*
%TO.N,Net-(D22-A)*%
X111535000Y-87220000D03*
%TO.N,Net-(D23-A)*%
X108995000Y-87220000D03*
%TO.N,Net-(D24-A)*%
X106455000Y-87220000D03*
%TD*%
D22*
%TO.N,+5V*%
X144555000Y-90037500D02*
X146102500Y-90037500D01*
X97290000Y-103497500D02*
X96930000Y-103137500D01*
X105820000Y-100832500D02*
X142650000Y-100832500D01*
X100337500Y-103497500D02*
X101375000Y-102460000D01*
X127395000Y-103984000D02*
X127395000Y-100847500D01*
X87048000Y-98229500D02*
X87048000Y-103113500D01*
D23*
X82960000Y-113551500D02*
X82960000Y-112620000D01*
D22*
X99724000Y-103497500D02*
X97290000Y-103497500D01*
X121045000Y-100847500D02*
X121060000Y-100832500D01*
X92128000Y-98229500D02*
X92128000Y-102907500D01*
D23*
X78515000Y-108175000D02*
X78515000Y-102460000D01*
D24*
X79150000Y-97401500D02*
X81140000Y-97401500D01*
D22*
X146590000Y-90525000D02*
X146590000Y-99663503D01*
X146102500Y-90037500D02*
X146590000Y-90525000D01*
D25*
X92358000Y-103137500D02*
X96930000Y-103137500D01*
D22*
X97208000Y-98229500D02*
X97208000Y-99097500D01*
X92128000Y-102907500D02*
X92358000Y-103137500D01*
X87048000Y-98229500D02*
X87048000Y-99097500D01*
D25*
X75086000Y-102460000D02*
X78515000Y-102460000D01*
D24*
X96930000Y-110842000D02*
X98200000Y-112112000D01*
D22*
X142635000Y-100847500D02*
X142650000Y-100832500D01*
X81968000Y-99097500D02*
X82452000Y-99581500D01*
D25*
X81944000Y-103137500D02*
X87024000Y-103137500D01*
D22*
X144555000Y-90037500D02*
X106455000Y-90037500D01*
X97208000Y-102859500D02*
X96930000Y-103137500D01*
D25*
X79065000Y-102460000D02*
X79742500Y-103137500D01*
X79742500Y-103137500D02*
X81944000Y-103137500D01*
D22*
X97208000Y-99097500D02*
X97692000Y-99581500D01*
X105805000Y-100847500D02*
X105820000Y-100832500D01*
X81968000Y-98229500D02*
X81968000Y-99097500D01*
D24*
X98200000Y-112112000D02*
X98200000Y-113551500D01*
D22*
X105805000Y-103984000D02*
X105805000Y-100847500D01*
X97208000Y-98229500D02*
X97208000Y-102859500D01*
X81968000Y-98229500D02*
X81968000Y-103113500D01*
D25*
X78515000Y-102460000D02*
X79065000Y-102460000D01*
D22*
X145421003Y-100832500D02*
X145190000Y-100832500D01*
X87048000Y-99097500D02*
X87532000Y-99581500D01*
X92128000Y-99097500D02*
X92612000Y-99581500D01*
X99724000Y-103497500D02*
X100337500Y-103497500D01*
X103052500Y-100782500D02*
X103280000Y-100782500D01*
D23*
X82960000Y-112620000D02*
X78515000Y-108175000D01*
D22*
X142650000Y-100832500D02*
X145190000Y-100832500D01*
X101375000Y-102460000D02*
X103052500Y-100782500D01*
X142635000Y-103984000D02*
X142635000Y-100847500D01*
X103330000Y-100832500D02*
X103280000Y-100782500D01*
D25*
X87024000Y-103137500D02*
X92358000Y-103137500D01*
D22*
X127395000Y-100847500D02*
X127410000Y-100832500D01*
X105820000Y-100832500D02*
X103330000Y-100832500D01*
X146590000Y-99663503D02*
X145421003Y-100832500D01*
D24*
X81140000Y-97401500D02*
X81968000Y-98229500D01*
D22*
X121045000Y-103984000D02*
X121045000Y-100847500D01*
X92128000Y-98229500D02*
X92128000Y-99097500D01*
D24*
X96697500Y-110842000D02*
X96930000Y-110842000D01*
D22*
X81968000Y-103113500D02*
X81944000Y-103137500D01*
X87048000Y-103113500D02*
X87024000Y-103137500D01*
%TO.N,GND*%
X103280000Y-96379000D02*
X103265000Y-96364000D01*
X101248000Y-92469500D02*
X101248000Y-94347000D01*
D24*
X90580000Y-113551500D02*
X90580000Y-112620000D01*
X75318500Y-100152500D02*
X75086000Y-99920000D01*
D22*
X78388000Y-91030000D02*
X78388000Y-92469500D01*
D25*
X75086000Y-95771500D02*
X78388000Y-92469500D01*
D24*
X78388000Y-92469500D02*
X78388000Y-94564500D01*
D22*
X79658000Y-89760000D02*
X78388000Y-91030000D01*
X125505000Y-99057500D02*
X125505000Y-97014000D01*
D24*
X78388000Y-94564500D02*
X79150000Y-95326500D01*
D22*
X98708000Y-89760000D02*
X80928000Y-89760000D01*
X99872500Y-101422500D02*
X102237500Y-99057500D01*
X103280000Y-99057500D02*
X103280000Y-96379000D01*
X80928000Y-89760000D02*
X79658000Y-89760000D01*
X99724000Y-89760000D02*
X101248000Y-91284000D01*
D24*
X91723000Y-110842000D02*
X90262500Y-112302500D01*
X83595000Y-111350000D02*
X80420000Y-108175000D01*
D22*
X101248000Y-91284000D02*
X101248000Y-92469500D01*
X101248000Y-94347000D02*
X103265000Y-96364000D01*
D24*
X90262500Y-112302500D02*
X89310000Y-111350000D01*
X80420000Y-108175000D02*
X80420000Y-105931500D01*
D22*
X102237500Y-99057500D02*
X103280000Y-99057500D01*
X98708000Y-89760000D02*
X99724000Y-89760000D01*
D24*
X94797500Y-110842000D02*
X91723000Y-110842000D01*
X77880000Y-100152500D02*
X75318500Y-100152500D01*
D22*
X99724000Y-101422500D02*
X99872500Y-101422500D01*
D24*
X90580000Y-112620000D02*
X90262500Y-112302500D01*
X89310000Y-111350000D02*
X83595000Y-111350000D01*
D22*
X125505000Y-97014000D02*
X124855000Y-96364000D01*
D25*
X75086000Y-99920000D02*
X75086000Y-95771500D01*
%TO.N,/C0*%
X98713000Y-92469500D02*
X98713000Y-94242500D01*
%TO.N,/C2*%
X93633000Y-92469500D02*
X93633000Y-94242500D01*
%TO.N,/C4*%
X88553000Y-92469500D02*
X88553000Y-94242500D01*
%TO.N,/C6*%
X83473000Y-92469500D02*
X83473000Y-94242500D01*
D23*
%TO.N,/Din*%
X77245000Y-107159000D02*
X77245000Y-113255000D01*
X79785000Y-115795000D02*
X91850000Y-115795000D01*
X93120000Y-114525000D02*
X93120000Y-113551500D01*
X91850000Y-115795000D02*
X93120000Y-114525000D01*
X77245000Y-113255000D02*
X79785000Y-115795000D01*
X75086000Y-105000000D02*
X77245000Y-107159000D01*
%TO.N,/Latch*%
X90580000Y-109445000D02*
X109630000Y-109445000D01*
X90580000Y-109445000D02*
X88040000Y-109445000D01*
X109630000Y-109445000D02*
X111535000Y-107540000D01*
%TO.N,/CLK*%
X108345000Y-105650000D02*
X108345000Y-103984000D01*
X129935000Y-103984000D02*
X132475000Y-103984000D01*
X105820000Y-108175000D02*
X108345000Y-105650000D01*
X108345000Y-103984000D02*
X110885000Y-103984000D01*
X85500000Y-109445000D02*
X86770000Y-108175000D01*
X110885000Y-104985000D02*
X113440000Y-107540000D01*
X110885000Y-103984000D02*
X110885000Y-104985000D01*
X113440000Y-107540000D02*
X127410000Y-107540000D01*
X86770000Y-108175000D02*
X105820000Y-108175000D01*
X127410000Y-107540000D02*
X129935000Y-105015000D01*
X129935000Y-105015000D02*
X129935000Y-103984000D01*
D22*
%TO.N,/R0*%
X145190000Y-99007500D02*
X145190000Y-92935000D01*
X145190000Y-92935000D02*
X144555000Y-92300000D01*
%TO.N,/R1*%
X142650000Y-99007500D02*
X142650000Y-92935000D01*
X142650000Y-92935000D02*
X142015000Y-92300000D01*
%TO.N,/R2*%
X140110000Y-99007500D02*
X140110000Y-92935000D01*
X140110000Y-92935000D02*
X139475000Y-92300000D01*
%TO.N,/R3*%
X137570000Y-92935000D02*
X136935000Y-92300000D01*
X137570000Y-99007500D02*
X137570000Y-92935000D01*
%TO.N,/R4*%
X135030000Y-92935000D02*
X134395000Y-92300000D01*
X135030000Y-99007500D02*
X135030000Y-92935000D01*
%TO.N,/R5*%
X132490000Y-92935000D02*
X131855000Y-92300000D01*
X132490000Y-99007500D02*
X132490000Y-92935000D01*
%TO.N,/R6*%
X129935000Y-92920000D02*
X129315000Y-92300000D01*
X129935000Y-96364000D02*
X129935000Y-92920000D01*
X129950000Y-99007500D02*
X129950000Y-96379000D01*
X129950000Y-96379000D02*
X129935000Y-96364000D01*
%TO.N,/R7*%
X127410000Y-96379000D02*
X127395000Y-96364000D01*
X127410000Y-99007500D02*
X127410000Y-96379000D01*
X127395000Y-96364000D02*
X127395000Y-92920000D01*
X127395000Y-92920000D02*
X126775000Y-92300000D01*
%TO.N,/R8*%
X122965000Y-94840000D02*
X124235000Y-93570000D01*
X123600000Y-98650000D02*
X122965000Y-98015000D01*
X122965000Y-98015000D02*
X122965000Y-94840000D01*
X124235000Y-93570000D02*
X124235000Y-92300000D01*
%TO.N,/R9*%
X121060000Y-92935000D02*
X121695000Y-92300000D01*
X121060000Y-99007500D02*
X121060000Y-92935000D01*
%TO.N,/R10*%
X118520000Y-92935000D02*
X119155000Y-92300000D01*
X118520000Y-99007500D02*
X118520000Y-92935000D01*
%TO.N,/R11*%
X115980000Y-99007500D02*
X115980000Y-92935000D01*
X115980000Y-92935000D02*
X116615000Y-92300000D01*
%TO.N,/R12*%
X113440000Y-92935000D02*
X114075000Y-92300000D01*
X113440000Y-99007500D02*
X113440000Y-92935000D01*
%TO.N,/R13*%
X110900000Y-92935000D02*
X111535000Y-92300000D01*
X110900000Y-99007500D02*
X110900000Y-92935000D01*
%TO.N,/R14*%
X108360000Y-92935000D02*
X108995000Y-92300000D01*
X108360000Y-99007500D02*
X108360000Y-92935000D01*
%TO.N,/R15*%
X105820000Y-92935000D02*
X106455000Y-92300000D01*
X105820000Y-99007500D02*
X105820000Y-92935000D01*
D24*
%TO.N,Net-(Q1-G)*%
X100232000Y-99327500D02*
X100232000Y-98253500D01*
X100232000Y-98253500D02*
X100208000Y-98229500D01*
%TO.N,Net-(Q3-G)*%
X95128000Y-98229500D02*
X95128000Y-100113500D01*
X95128000Y-100113500D02*
X93628000Y-101613500D01*
%TO.N,Net-(Q5-G)*%
X90048000Y-98229500D02*
X90048000Y-100113500D01*
X88548000Y-101613500D02*
X90048000Y-100113500D01*
%TO.N,Net-(Q7-G)*%
X84968000Y-98229500D02*
X84968000Y-100113500D01*
X84968000Y-100113500D02*
X83468000Y-101613500D01*
D23*
%TO.N,/Dout_1*%
X117250000Y-106270000D02*
X115965000Y-104985000D01*
X115965000Y-104985000D02*
X115965000Y-103984000D01*
X124855000Y-105015000D02*
X123600000Y-106270000D01*
X123600000Y-106270000D02*
X117250000Y-106270000D01*
X124855000Y-103984000D02*
X124855000Y-105015000D01*
D22*
%TO.N,Net-(D9-A)*%
X144555000Y-88212500D02*
X144555000Y-87220000D01*
%TO.N,Net-(D10-A)*%
X142015000Y-88212500D02*
X142015000Y-87220000D01*
%TO.N,Net-(D11-A)*%
X139475000Y-88212500D02*
X139475000Y-87220000D01*
%TO.N,Net-(D12-A)*%
X136935000Y-88212500D02*
X136935000Y-87220000D01*
%TO.N,Net-(D13-A)*%
X134395000Y-88212500D02*
X134395000Y-87220000D01*
%TO.N,Net-(D14-A)*%
X131855000Y-88212500D02*
X131855000Y-87220000D01*
%TO.N,Net-(D15-A)*%
X129315000Y-88212500D02*
X129315000Y-87220000D01*
%TO.N,Net-(D16-A)*%
X126775000Y-88212500D02*
X126775000Y-87220000D01*
%TO.N,Net-(D17-A)*%
X124235000Y-88212500D02*
X124235000Y-87220000D01*
%TO.N,Net-(D18-A)*%
X121695000Y-88212500D02*
X121695000Y-87220000D01*
%TO.N,Net-(D19-A)*%
X119155000Y-88212500D02*
X119155000Y-87220000D01*
%TO.N,Net-(D20-A)*%
X116615000Y-88212500D02*
X116615000Y-87220000D01*
%TO.N,Net-(D21-A)*%
X114110000Y-87255000D02*
X114075000Y-87220000D01*
X114110000Y-88212500D02*
X114110000Y-87255000D01*
%TO.N,Net-(D22-A)*%
X111570000Y-87255000D02*
X111535000Y-87220000D01*
X111570000Y-88212500D02*
X111570000Y-87255000D01*
%TO.N,Net-(D23-A)*%
X109030000Y-88212500D02*
X109030000Y-87255000D01*
X109030000Y-87255000D02*
X108995000Y-87220000D01*
%TO.N,Net-(D24-A)*%
X106455000Y-88212500D02*
X106455000Y-87220000D01*
%TD*%
M02*
