%TF.GenerationSoftware,KiCad,Pcbnew,7.0.1-3b83917a11~172~ubuntu22.10.1*%
%TF.CreationDate,2023-10-02T08:25:50+02:00*%
%TF.ProjectId,hall_sensor_matrix_v2,68616c6c-5f73-4656-9e73-6f725f6d6174,revA*%
%TF.SameCoordinates,Original*%
%TF.FileFunction,Legend,Bot*%
%TF.FilePolarity,Positive*%
%FSLAX46Y46*%
G04 Gerber Fmt 4.6, Leading zero omitted, Abs format (unit mm)*
G04 Created by KiCad (PCBNEW 7.0.1-3b83917a11~172~ubuntu22.10.1) date 2023-10-02 08:25:50*
%MOMM*%
%LPD*%
G01*
G04 APERTURE LIST*
G04 Aperture macros list*
%AMRoundRect*
0 Rectangle with rounded corners*
0 $1 Rounding radius*
0 $2 $3 $4 $5 $6 $7 $8 $9 X,Y pos of 4 corners*
0 Add a 4 corners polygon primitive as box body*
4,1,4,$2,$3,$4,$5,$6,$7,$8,$9,$2,$3,0*
0 Add four circle primitives for the rounded corners*
1,1,$1+$1,$2,$3*
1,1,$1+$1,$4,$5*
1,1,$1+$1,$6,$7*
1,1,$1+$1,$8,$9*
0 Add four rect primitives between the rounded corners*
20,1,$1+$1,$2,$3,$4,$5,0*
20,1,$1+$1,$4,$5,$6,$7,0*
20,1,$1+$1,$6,$7,$8,$9,0*
20,1,$1+$1,$8,$9,$2,$3,0*%
%AMFreePoly0*
4,1,9,3.862500,-0.866500,0.737500,-0.866500,0.737500,-0.450000,-0.737500,-0.450000,-0.737500,0.450000,0.737500,0.450000,0.737500,0.866500,3.862500,0.866500,3.862500,-0.866500,3.862500,-0.866500,$1*%
G04 Aperture macros list end*
%ADD10C,0.150000*%
%ADD11C,0.120000*%
%ADD12C,3.200000*%
%ADD13R,1.600000X2.400000*%
%ADD14O,1.600000X2.400000*%
%ADD15R,1.700000X1.700000*%
%ADD16O,1.700000X1.700000*%
%ADD17RoundRect,0.237500X0.237500X-0.300000X0.237500X0.300000X-0.237500X0.300000X-0.237500X-0.300000X0*%
%ADD18RoundRect,0.250000X0.450000X-0.262500X0.450000X0.262500X-0.450000X0.262500X-0.450000X-0.262500X0*%
%ADD19RoundRect,0.250000X-0.450000X0.262500X-0.450000X-0.262500X0.450000X-0.262500X0.450000X0.262500X0*%
%ADD20RoundRect,0.250000X0.475000X-0.337500X0.475000X0.337500X-0.475000X0.337500X-0.475000X-0.337500X0*%
%ADD21R,0.900000X1.300000*%
%ADD22FreePoly0,90.000000*%
%ADD23RoundRect,0.237500X0.300000X0.237500X-0.300000X0.237500X-0.300000X-0.237500X0.300000X-0.237500X0*%
G04 APERTURE END LIST*
D10*
%TO.C,C1*%
X70630380Y-80164333D02*
X70678000Y-80116714D01*
X70678000Y-80116714D02*
X70725619Y-79973857D01*
X70725619Y-79973857D02*
X70725619Y-79878619D01*
X70725619Y-79878619D02*
X70678000Y-79735762D01*
X70678000Y-79735762D02*
X70582761Y-79640524D01*
X70582761Y-79640524D02*
X70487523Y-79592905D01*
X70487523Y-79592905D02*
X70297047Y-79545286D01*
X70297047Y-79545286D02*
X70154190Y-79545286D01*
X70154190Y-79545286D02*
X69963714Y-79592905D01*
X69963714Y-79592905D02*
X69868476Y-79640524D01*
X69868476Y-79640524D02*
X69773238Y-79735762D01*
X69773238Y-79735762D02*
X69725619Y-79878619D01*
X69725619Y-79878619D02*
X69725619Y-79973857D01*
X69725619Y-79973857D02*
X69773238Y-80116714D01*
X69773238Y-80116714D02*
X69820857Y-80164333D01*
X70725619Y-81116714D02*
X70725619Y-80545286D01*
X70725619Y-80831000D02*
X69725619Y-80831000D01*
X69725619Y-80831000D02*
X69868476Y-80735762D01*
X69868476Y-80735762D02*
X69963714Y-80640524D01*
X69963714Y-80640524D02*
X70011333Y-80545286D01*
%TO.C,R20*%
X105235619Y-79688142D02*
X104759428Y-79354809D01*
X105235619Y-79116714D02*
X104235619Y-79116714D01*
X104235619Y-79116714D02*
X104235619Y-79497666D01*
X104235619Y-79497666D02*
X104283238Y-79592904D01*
X104283238Y-79592904D02*
X104330857Y-79640523D01*
X104330857Y-79640523D02*
X104426095Y-79688142D01*
X104426095Y-79688142D02*
X104568952Y-79688142D01*
X104568952Y-79688142D02*
X104664190Y-79640523D01*
X104664190Y-79640523D02*
X104711809Y-79592904D01*
X104711809Y-79592904D02*
X104759428Y-79497666D01*
X104759428Y-79497666D02*
X104759428Y-79116714D01*
X104330857Y-80069095D02*
X104283238Y-80116714D01*
X104283238Y-80116714D02*
X104235619Y-80211952D01*
X104235619Y-80211952D02*
X104235619Y-80450047D01*
X104235619Y-80450047D02*
X104283238Y-80545285D01*
X104283238Y-80545285D02*
X104330857Y-80592904D01*
X104330857Y-80592904D02*
X104426095Y-80640523D01*
X104426095Y-80640523D02*
X104521333Y-80640523D01*
X104521333Y-80640523D02*
X104664190Y-80592904D01*
X104664190Y-80592904D02*
X105235619Y-80021476D01*
X105235619Y-80021476D02*
X105235619Y-80640523D01*
X104235619Y-81259571D02*
X104235619Y-81354809D01*
X104235619Y-81354809D02*
X104283238Y-81450047D01*
X104283238Y-81450047D02*
X104330857Y-81497666D01*
X104330857Y-81497666D02*
X104426095Y-81545285D01*
X104426095Y-81545285D02*
X104616571Y-81592904D01*
X104616571Y-81592904D02*
X104854666Y-81592904D01*
X104854666Y-81592904D02*
X105045142Y-81545285D01*
X105045142Y-81545285D02*
X105140380Y-81497666D01*
X105140380Y-81497666D02*
X105188000Y-81450047D01*
X105188000Y-81450047D02*
X105235619Y-81354809D01*
X105235619Y-81354809D02*
X105235619Y-81259571D01*
X105235619Y-81259571D02*
X105188000Y-81164333D01*
X105188000Y-81164333D02*
X105140380Y-81116714D01*
X105140380Y-81116714D02*
X105045142Y-81069095D01*
X105045142Y-81069095D02*
X104854666Y-81021476D01*
X104854666Y-81021476D02*
X104616571Y-81021476D01*
X104616571Y-81021476D02*
X104426095Y-81069095D01*
X104426095Y-81069095D02*
X104330857Y-81116714D01*
X104330857Y-81116714D02*
X104283238Y-81164333D01*
X104283238Y-81164333D02*
X104235619Y-81259571D01*
%TO.C,C2*%
X47032380Y-74039333D02*
X47080000Y-73991714D01*
X47080000Y-73991714D02*
X47127619Y-73848857D01*
X47127619Y-73848857D02*
X47127619Y-73753619D01*
X47127619Y-73753619D02*
X47080000Y-73610762D01*
X47080000Y-73610762D02*
X46984761Y-73515524D01*
X46984761Y-73515524D02*
X46889523Y-73467905D01*
X46889523Y-73467905D02*
X46699047Y-73420286D01*
X46699047Y-73420286D02*
X46556190Y-73420286D01*
X46556190Y-73420286D02*
X46365714Y-73467905D01*
X46365714Y-73467905D02*
X46270476Y-73515524D01*
X46270476Y-73515524D02*
X46175238Y-73610762D01*
X46175238Y-73610762D02*
X46127619Y-73753619D01*
X46127619Y-73753619D02*
X46127619Y-73848857D01*
X46127619Y-73848857D02*
X46175238Y-73991714D01*
X46175238Y-73991714D02*
X46222857Y-74039333D01*
X46222857Y-74420286D02*
X46175238Y-74467905D01*
X46175238Y-74467905D02*
X46127619Y-74563143D01*
X46127619Y-74563143D02*
X46127619Y-74801238D01*
X46127619Y-74801238D02*
X46175238Y-74896476D01*
X46175238Y-74896476D02*
X46222857Y-74944095D01*
X46222857Y-74944095D02*
X46318095Y-74991714D01*
X46318095Y-74991714D02*
X46413333Y-74991714D01*
X46413333Y-74991714D02*
X46556190Y-74944095D01*
X46556190Y-74944095D02*
X47127619Y-74372667D01*
X47127619Y-74372667D02*
X47127619Y-74991714D01*
%TO.C,R29*%
X81105619Y-79688142D02*
X80629428Y-79354809D01*
X81105619Y-79116714D02*
X80105619Y-79116714D01*
X80105619Y-79116714D02*
X80105619Y-79497666D01*
X80105619Y-79497666D02*
X80153238Y-79592904D01*
X80153238Y-79592904D02*
X80200857Y-79640523D01*
X80200857Y-79640523D02*
X80296095Y-79688142D01*
X80296095Y-79688142D02*
X80438952Y-79688142D01*
X80438952Y-79688142D02*
X80534190Y-79640523D01*
X80534190Y-79640523D02*
X80581809Y-79592904D01*
X80581809Y-79592904D02*
X80629428Y-79497666D01*
X80629428Y-79497666D02*
X80629428Y-79116714D01*
X80200857Y-80069095D02*
X80153238Y-80116714D01*
X80153238Y-80116714D02*
X80105619Y-80211952D01*
X80105619Y-80211952D02*
X80105619Y-80450047D01*
X80105619Y-80450047D02*
X80153238Y-80545285D01*
X80153238Y-80545285D02*
X80200857Y-80592904D01*
X80200857Y-80592904D02*
X80296095Y-80640523D01*
X80296095Y-80640523D02*
X80391333Y-80640523D01*
X80391333Y-80640523D02*
X80534190Y-80592904D01*
X80534190Y-80592904D02*
X81105619Y-80021476D01*
X81105619Y-80021476D02*
X81105619Y-80640523D01*
X81105619Y-81116714D02*
X81105619Y-81307190D01*
X81105619Y-81307190D02*
X81058000Y-81402428D01*
X81058000Y-81402428D02*
X81010380Y-81450047D01*
X81010380Y-81450047D02*
X80867523Y-81545285D01*
X80867523Y-81545285D02*
X80677047Y-81592904D01*
X80677047Y-81592904D02*
X80296095Y-81592904D01*
X80296095Y-81592904D02*
X80200857Y-81545285D01*
X80200857Y-81545285D02*
X80153238Y-81497666D01*
X80153238Y-81497666D02*
X80105619Y-81402428D01*
X80105619Y-81402428D02*
X80105619Y-81211952D01*
X80105619Y-81211952D02*
X80153238Y-81116714D01*
X80153238Y-81116714D02*
X80200857Y-81069095D01*
X80200857Y-81069095D02*
X80296095Y-81021476D01*
X80296095Y-81021476D02*
X80534190Y-81021476D01*
X80534190Y-81021476D02*
X80629428Y-81069095D01*
X80629428Y-81069095D02*
X80677047Y-81116714D01*
X80677047Y-81116714D02*
X80724666Y-81211952D01*
X80724666Y-81211952D02*
X80724666Y-81402428D01*
X80724666Y-81402428D02*
X80677047Y-81497666D01*
X80677047Y-81497666D02*
X80629428Y-81545285D01*
X80629428Y-81545285D02*
X80534190Y-81592904D01*
%TO.C,R48*%
X72469619Y-61400142D02*
X71993428Y-61066809D01*
X72469619Y-60828714D02*
X71469619Y-60828714D01*
X71469619Y-60828714D02*
X71469619Y-61209666D01*
X71469619Y-61209666D02*
X71517238Y-61304904D01*
X71517238Y-61304904D02*
X71564857Y-61352523D01*
X71564857Y-61352523D02*
X71660095Y-61400142D01*
X71660095Y-61400142D02*
X71802952Y-61400142D01*
X71802952Y-61400142D02*
X71898190Y-61352523D01*
X71898190Y-61352523D02*
X71945809Y-61304904D01*
X71945809Y-61304904D02*
X71993428Y-61209666D01*
X71993428Y-61209666D02*
X71993428Y-60828714D01*
X71802952Y-62257285D02*
X72469619Y-62257285D01*
X71422000Y-62019190D02*
X72136285Y-61781095D01*
X72136285Y-61781095D02*
X72136285Y-62400142D01*
X71898190Y-62923952D02*
X71850571Y-62828714D01*
X71850571Y-62828714D02*
X71802952Y-62781095D01*
X71802952Y-62781095D02*
X71707714Y-62733476D01*
X71707714Y-62733476D02*
X71660095Y-62733476D01*
X71660095Y-62733476D02*
X71564857Y-62781095D01*
X71564857Y-62781095D02*
X71517238Y-62828714D01*
X71517238Y-62828714D02*
X71469619Y-62923952D01*
X71469619Y-62923952D02*
X71469619Y-63114428D01*
X71469619Y-63114428D02*
X71517238Y-63209666D01*
X71517238Y-63209666D02*
X71564857Y-63257285D01*
X71564857Y-63257285D02*
X71660095Y-63304904D01*
X71660095Y-63304904D02*
X71707714Y-63304904D01*
X71707714Y-63304904D02*
X71802952Y-63257285D01*
X71802952Y-63257285D02*
X71850571Y-63209666D01*
X71850571Y-63209666D02*
X71898190Y-63114428D01*
X71898190Y-63114428D02*
X71898190Y-62923952D01*
X71898190Y-62923952D02*
X71945809Y-62828714D01*
X71945809Y-62828714D02*
X71993428Y-62781095D01*
X71993428Y-62781095D02*
X72088666Y-62733476D01*
X72088666Y-62733476D02*
X72279142Y-62733476D01*
X72279142Y-62733476D02*
X72374380Y-62781095D01*
X72374380Y-62781095D02*
X72422000Y-62828714D01*
X72422000Y-62828714D02*
X72469619Y-62923952D01*
X72469619Y-62923952D02*
X72469619Y-63114428D01*
X72469619Y-63114428D02*
X72422000Y-63209666D01*
X72422000Y-63209666D02*
X72374380Y-63257285D01*
X72374380Y-63257285D02*
X72279142Y-63304904D01*
X72279142Y-63304904D02*
X72088666Y-63304904D01*
X72088666Y-63304904D02*
X71993428Y-63257285D01*
X71993428Y-63257285D02*
X71945809Y-63209666D01*
X71945809Y-63209666D02*
X71898190Y-63114428D01*
%TO.C,R33*%
X113998619Y-61654142D02*
X113522428Y-61320809D01*
X113998619Y-61082714D02*
X112998619Y-61082714D01*
X112998619Y-61082714D02*
X112998619Y-61463666D01*
X112998619Y-61463666D02*
X113046238Y-61558904D01*
X113046238Y-61558904D02*
X113093857Y-61606523D01*
X113093857Y-61606523D02*
X113189095Y-61654142D01*
X113189095Y-61654142D02*
X113331952Y-61654142D01*
X113331952Y-61654142D02*
X113427190Y-61606523D01*
X113427190Y-61606523D02*
X113474809Y-61558904D01*
X113474809Y-61558904D02*
X113522428Y-61463666D01*
X113522428Y-61463666D02*
X113522428Y-61082714D01*
X112998619Y-61987476D02*
X112998619Y-62606523D01*
X112998619Y-62606523D02*
X113379571Y-62273190D01*
X113379571Y-62273190D02*
X113379571Y-62416047D01*
X113379571Y-62416047D02*
X113427190Y-62511285D01*
X113427190Y-62511285D02*
X113474809Y-62558904D01*
X113474809Y-62558904D02*
X113570047Y-62606523D01*
X113570047Y-62606523D02*
X113808142Y-62606523D01*
X113808142Y-62606523D02*
X113903380Y-62558904D01*
X113903380Y-62558904D02*
X113951000Y-62511285D01*
X113951000Y-62511285D02*
X113998619Y-62416047D01*
X113998619Y-62416047D02*
X113998619Y-62130333D01*
X113998619Y-62130333D02*
X113951000Y-62035095D01*
X113951000Y-62035095D02*
X113903380Y-61987476D01*
X112998619Y-62939857D02*
X112998619Y-63558904D01*
X112998619Y-63558904D02*
X113379571Y-63225571D01*
X113379571Y-63225571D02*
X113379571Y-63368428D01*
X113379571Y-63368428D02*
X113427190Y-63463666D01*
X113427190Y-63463666D02*
X113474809Y-63511285D01*
X113474809Y-63511285D02*
X113570047Y-63558904D01*
X113570047Y-63558904D02*
X113808142Y-63558904D01*
X113808142Y-63558904D02*
X113903380Y-63511285D01*
X113903380Y-63511285D02*
X113951000Y-63463666D01*
X113951000Y-63463666D02*
X113998619Y-63368428D01*
X113998619Y-63368428D02*
X113998619Y-63082714D01*
X113998619Y-63082714D02*
X113951000Y-62987476D01*
X113951000Y-62987476D02*
X113903380Y-62939857D01*
%TO.C,R18*%
X110315619Y-79688142D02*
X109839428Y-79354809D01*
X110315619Y-79116714D02*
X109315619Y-79116714D01*
X109315619Y-79116714D02*
X109315619Y-79497666D01*
X109315619Y-79497666D02*
X109363238Y-79592904D01*
X109363238Y-79592904D02*
X109410857Y-79640523D01*
X109410857Y-79640523D02*
X109506095Y-79688142D01*
X109506095Y-79688142D02*
X109648952Y-79688142D01*
X109648952Y-79688142D02*
X109744190Y-79640523D01*
X109744190Y-79640523D02*
X109791809Y-79592904D01*
X109791809Y-79592904D02*
X109839428Y-79497666D01*
X109839428Y-79497666D02*
X109839428Y-79116714D01*
X110315619Y-80640523D02*
X110315619Y-80069095D01*
X110315619Y-80354809D02*
X109315619Y-80354809D01*
X109315619Y-80354809D02*
X109458476Y-80259571D01*
X109458476Y-80259571D02*
X109553714Y-80164333D01*
X109553714Y-80164333D02*
X109601333Y-80069095D01*
X109744190Y-81211952D02*
X109696571Y-81116714D01*
X109696571Y-81116714D02*
X109648952Y-81069095D01*
X109648952Y-81069095D02*
X109553714Y-81021476D01*
X109553714Y-81021476D02*
X109506095Y-81021476D01*
X109506095Y-81021476D02*
X109410857Y-81069095D01*
X109410857Y-81069095D02*
X109363238Y-81116714D01*
X109363238Y-81116714D02*
X109315619Y-81211952D01*
X109315619Y-81211952D02*
X109315619Y-81402428D01*
X109315619Y-81402428D02*
X109363238Y-81497666D01*
X109363238Y-81497666D02*
X109410857Y-81545285D01*
X109410857Y-81545285D02*
X109506095Y-81592904D01*
X109506095Y-81592904D02*
X109553714Y-81592904D01*
X109553714Y-81592904D02*
X109648952Y-81545285D01*
X109648952Y-81545285D02*
X109696571Y-81497666D01*
X109696571Y-81497666D02*
X109744190Y-81402428D01*
X109744190Y-81402428D02*
X109744190Y-81211952D01*
X109744190Y-81211952D02*
X109791809Y-81116714D01*
X109791809Y-81116714D02*
X109839428Y-81069095D01*
X109839428Y-81069095D02*
X109934666Y-81021476D01*
X109934666Y-81021476D02*
X110125142Y-81021476D01*
X110125142Y-81021476D02*
X110220380Y-81069095D01*
X110220380Y-81069095D02*
X110268000Y-81116714D01*
X110268000Y-81116714D02*
X110315619Y-81211952D01*
X110315619Y-81211952D02*
X110315619Y-81402428D01*
X110315619Y-81402428D02*
X110268000Y-81497666D01*
X110268000Y-81497666D02*
X110220380Y-81545285D01*
X110220380Y-81545285D02*
X110125142Y-81592904D01*
X110125142Y-81592904D02*
X109934666Y-81592904D01*
X109934666Y-81592904D02*
X109839428Y-81545285D01*
X109839428Y-81545285D02*
X109791809Y-81497666D01*
X109791809Y-81497666D02*
X109744190Y-81402428D01*
%TO.C,R24*%
X95075619Y-79688142D02*
X94599428Y-79354809D01*
X95075619Y-79116714D02*
X94075619Y-79116714D01*
X94075619Y-79116714D02*
X94075619Y-79497666D01*
X94075619Y-79497666D02*
X94123238Y-79592904D01*
X94123238Y-79592904D02*
X94170857Y-79640523D01*
X94170857Y-79640523D02*
X94266095Y-79688142D01*
X94266095Y-79688142D02*
X94408952Y-79688142D01*
X94408952Y-79688142D02*
X94504190Y-79640523D01*
X94504190Y-79640523D02*
X94551809Y-79592904D01*
X94551809Y-79592904D02*
X94599428Y-79497666D01*
X94599428Y-79497666D02*
X94599428Y-79116714D01*
X94170857Y-80069095D02*
X94123238Y-80116714D01*
X94123238Y-80116714D02*
X94075619Y-80211952D01*
X94075619Y-80211952D02*
X94075619Y-80450047D01*
X94075619Y-80450047D02*
X94123238Y-80545285D01*
X94123238Y-80545285D02*
X94170857Y-80592904D01*
X94170857Y-80592904D02*
X94266095Y-80640523D01*
X94266095Y-80640523D02*
X94361333Y-80640523D01*
X94361333Y-80640523D02*
X94504190Y-80592904D01*
X94504190Y-80592904D02*
X95075619Y-80021476D01*
X95075619Y-80021476D02*
X95075619Y-80640523D01*
X94408952Y-81497666D02*
X95075619Y-81497666D01*
X94028000Y-81259571D02*
X94742285Y-81021476D01*
X94742285Y-81021476D02*
X94742285Y-81640523D01*
%TO.C,R22*%
X100155619Y-79688142D02*
X99679428Y-79354809D01*
X100155619Y-79116714D02*
X99155619Y-79116714D01*
X99155619Y-79116714D02*
X99155619Y-79497666D01*
X99155619Y-79497666D02*
X99203238Y-79592904D01*
X99203238Y-79592904D02*
X99250857Y-79640523D01*
X99250857Y-79640523D02*
X99346095Y-79688142D01*
X99346095Y-79688142D02*
X99488952Y-79688142D01*
X99488952Y-79688142D02*
X99584190Y-79640523D01*
X99584190Y-79640523D02*
X99631809Y-79592904D01*
X99631809Y-79592904D02*
X99679428Y-79497666D01*
X99679428Y-79497666D02*
X99679428Y-79116714D01*
X99250857Y-80069095D02*
X99203238Y-80116714D01*
X99203238Y-80116714D02*
X99155619Y-80211952D01*
X99155619Y-80211952D02*
X99155619Y-80450047D01*
X99155619Y-80450047D02*
X99203238Y-80545285D01*
X99203238Y-80545285D02*
X99250857Y-80592904D01*
X99250857Y-80592904D02*
X99346095Y-80640523D01*
X99346095Y-80640523D02*
X99441333Y-80640523D01*
X99441333Y-80640523D02*
X99584190Y-80592904D01*
X99584190Y-80592904D02*
X100155619Y-80021476D01*
X100155619Y-80021476D02*
X100155619Y-80640523D01*
X99250857Y-81021476D02*
X99203238Y-81069095D01*
X99203238Y-81069095D02*
X99155619Y-81164333D01*
X99155619Y-81164333D02*
X99155619Y-81402428D01*
X99155619Y-81402428D02*
X99203238Y-81497666D01*
X99203238Y-81497666D02*
X99250857Y-81545285D01*
X99250857Y-81545285D02*
X99346095Y-81592904D01*
X99346095Y-81592904D02*
X99441333Y-81592904D01*
X99441333Y-81592904D02*
X99584190Y-81545285D01*
X99584190Y-81545285D02*
X100155619Y-80973857D01*
X100155619Y-80973857D02*
X100155619Y-81592904D01*
%TO.C,C5*%
X92855380Y-80164333D02*
X92903000Y-80116714D01*
X92903000Y-80116714D02*
X92950619Y-79973857D01*
X92950619Y-79973857D02*
X92950619Y-79878619D01*
X92950619Y-79878619D02*
X92903000Y-79735762D01*
X92903000Y-79735762D02*
X92807761Y-79640524D01*
X92807761Y-79640524D02*
X92712523Y-79592905D01*
X92712523Y-79592905D02*
X92522047Y-79545286D01*
X92522047Y-79545286D02*
X92379190Y-79545286D01*
X92379190Y-79545286D02*
X92188714Y-79592905D01*
X92188714Y-79592905D02*
X92093476Y-79640524D01*
X92093476Y-79640524D02*
X91998238Y-79735762D01*
X91998238Y-79735762D02*
X91950619Y-79878619D01*
X91950619Y-79878619D02*
X91950619Y-79973857D01*
X91950619Y-79973857D02*
X91998238Y-80116714D01*
X91998238Y-80116714D02*
X92045857Y-80164333D01*
X91950619Y-81069095D02*
X91950619Y-80592905D01*
X91950619Y-80592905D02*
X92426809Y-80545286D01*
X92426809Y-80545286D02*
X92379190Y-80592905D01*
X92379190Y-80592905D02*
X92331571Y-80688143D01*
X92331571Y-80688143D02*
X92331571Y-80926238D01*
X92331571Y-80926238D02*
X92379190Y-81021476D01*
X92379190Y-81021476D02*
X92426809Y-81069095D01*
X92426809Y-81069095D02*
X92522047Y-81116714D01*
X92522047Y-81116714D02*
X92760142Y-81116714D01*
X92760142Y-81116714D02*
X92855380Y-81069095D01*
X92855380Y-81069095D02*
X92903000Y-81021476D01*
X92903000Y-81021476D02*
X92950619Y-80926238D01*
X92950619Y-80926238D02*
X92950619Y-80688143D01*
X92950619Y-80688143D02*
X92903000Y-80592905D01*
X92903000Y-80592905D02*
X92855380Y-80545286D01*
%TO.C,R25*%
X91265619Y-79688142D02*
X90789428Y-79354809D01*
X91265619Y-79116714D02*
X90265619Y-79116714D01*
X90265619Y-79116714D02*
X90265619Y-79497666D01*
X90265619Y-79497666D02*
X90313238Y-79592904D01*
X90313238Y-79592904D02*
X90360857Y-79640523D01*
X90360857Y-79640523D02*
X90456095Y-79688142D01*
X90456095Y-79688142D02*
X90598952Y-79688142D01*
X90598952Y-79688142D02*
X90694190Y-79640523D01*
X90694190Y-79640523D02*
X90741809Y-79592904D01*
X90741809Y-79592904D02*
X90789428Y-79497666D01*
X90789428Y-79497666D02*
X90789428Y-79116714D01*
X90360857Y-80069095D02*
X90313238Y-80116714D01*
X90313238Y-80116714D02*
X90265619Y-80211952D01*
X90265619Y-80211952D02*
X90265619Y-80450047D01*
X90265619Y-80450047D02*
X90313238Y-80545285D01*
X90313238Y-80545285D02*
X90360857Y-80592904D01*
X90360857Y-80592904D02*
X90456095Y-80640523D01*
X90456095Y-80640523D02*
X90551333Y-80640523D01*
X90551333Y-80640523D02*
X90694190Y-80592904D01*
X90694190Y-80592904D02*
X91265619Y-80021476D01*
X91265619Y-80021476D02*
X91265619Y-80640523D01*
X90265619Y-81545285D02*
X90265619Y-81069095D01*
X90265619Y-81069095D02*
X90741809Y-81021476D01*
X90741809Y-81021476D02*
X90694190Y-81069095D01*
X90694190Y-81069095D02*
X90646571Y-81164333D01*
X90646571Y-81164333D02*
X90646571Y-81402428D01*
X90646571Y-81402428D02*
X90694190Y-81497666D01*
X90694190Y-81497666D02*
X90741809Y-81545285D01*
X90741809Y-81545285D02*
X90837047Y-81592904D01*
X90837047Y-81592904D02*
X91075142Y-81592904D01*
X91075142Y-81592904D02*
X91170380Y-81545285D01*
X91170380Y-81545285D02*
X91218000Y-81497666D01*
X91218000Y-81497666D02*
X91265619Y-81402428D01*
X91265619Y-81402428D02*
X91265619Y-81164333D01*
X91265619Y-81164333D02*
X91218000Y-81069095D01*
X91218000Y-81069095D02*
X91170380Y-81021476D01*
%TO.C,R32*%
X73485619Y-79688142D02*
X73009428Y-79354809D01*
X73485619Y-79116714D02*
X72485619Y-79116714D01*
X72485619Y-79116714D02*
X72485619Y-79497666D01*
X72485619Y-79497666D02*
X72533238Y-79592904D01*
X72533238Y-79592904D02*
X72580857Y-79640523D01*
X72580857Y-79640523D02*
X72676095Y-79688142D01*
X72676095Y-79688142D02*
X72818952Y-79688142D01*
X72818952Y-79688142D02*
X72914190Y-79640523D01*
X72914190Y-79640523D02*
X72961809Y-79592904D01*
X72961809Y-79592904D02*
X73009428Y-79497666D01*
X73009428Y-79497666D02*
X73009428Y-79116714D01*
X72485619Y-80021476D02*
X72485619Y-80640523D01*
X72485619Y-80640523D02*
X72866571Y-80307190D01*
X72866571Y-80307190D02*
X72866571Y-80450047D01*
X72866571Y-80450047D02*
X72914190Y-80545285D01*
X72914190Y-80545285D02*
X72961809Y-80592904D01*
X72961809Y-80592904D02*
X73057047Y-80640523D01*
X73057047Y-80640523D02*
X73295142Y-80640523D01*
X73295142Y-80640523D02*
X73390380Y-80592904D01*
X73390380Y-80592904D02*
X73438000Y-80545285D01*
X73438000Y-80545285D02*
X73485619Y-80450047D01*
X73485619Y-80450047D02*
X73485619Y-80164333D01*
X73485619Y-80164333D02*
X73438000Y-80069095D01*
X73438000Y-80069095D02*
X73390380Y-80021476D01*
X72580857Y-81021476D02*
X72533238Y-81069095D01*
X72533238Y-81069095D02*
X72485619Y-81164333D01*
X72485619Y-81164333D02*
X72485619Y-81402428D01*
X72485619Y-81402428D02*
X72533238Y-81497666D01*
X72533238Y-81497666D02*
X72580857Y-81545285D01*
X72580857Y-81545285D02*
X72676095Y-81592904D01*
X72676095Y-81592904D02*
X72771333Y-81592904D01*
X72771333Y-81592904D02*
X72914190Y-81545285D01*
X72914190Y-81545285D02*
X73485619Y-80973857D01*
X73485619Y-80973857D02*
X73485619Y-81592904D01*
%TO.C,R23*%
X97615619Y-79688142D02*
X97139428Y-79354809D01*
X97615619Y-79116714D02*
X96615619Y-79116714D01*
X96615619Y-79116714D02*
X96615619Y-79497666D01*
X96615619Y-79497666D02*
X96663238Y-79592904D01*
X96663238Y-79592904D02*
X96710857Y-79640523D01*
X96710857Y-79640523D02*
X96806095Y-79688142D01*
X96806095Y-79688142D02*
X96948952Y-79688142D01*
X96948952Y-79688142D02*
X97044190Y-79640523D01*
X97044190Y-79640523D02*
X97091809Y-79592904D01*
X97091809Y-79592904D02*
X97139428Y-79497666D01*
X97139428Y-79497666D02*
X97139428Y-79116714D01*
X96710857Y-80069095D02*
X96663238Y-80116714D01*
X96663238Y-80116714D02*
X96615619Y-80211952D01*
X96615619Y-80211952D02*
X96615619Y-80450047D01*
X96615619Y-80450047D02*
X96663238Y-80545285D01*
X96663238Y-80545285D02*
X96710857Y-80592904D01*
X96710857Y-80592904D02*
X96806095Y-80640523D01*
X96806095Y-80640523D02*
X96901333Y-80640523D01*
X96901333Y-80640523D02*
X97044190Y-80592904D01*
X97044190Y-80592904D02*
X97615619Y-80021476D01*
X97615619Y-80021476D02*
X97615619Y-80640523D01*
X96615619Y-80973857D02*
X96615619Y-81592904D01*
X96615619Y-81592904D02*
X96996571Y-81259571D01*
X96996571Y-81259571D02*
X96996571Y-81402428D01*
X96996571Y-81402428D02*
X97044190Y-81497666D01*
X97044190Y-81497666D02*
X97091809Y-81545285D01*
X97091809Y-81545285D02*
X97187047Y-81592904D01*
X97187047Y-81592904D02*
X97425142Y-81592904D01*
X97425142Y-81592904D02*
X97520380Y-81545285D01*
X97520380Y-81545285D02*
X97568000Y-81497666D01*
X97568000Y-81497666D02*
X97615619Y-81402428D01*
X97615619Y-81402428D02*
X97615619Y-81116714D01*
X97615619Y-81116714D02*
X97568000Y-81021476D01*
X97568000Y-81021476D02*
X97520380Y-80973857D01*
%TO.C,Q1*%
X65706857Y-73758761D02*
X65659238Y-73663523D01*
X65659238Y-73663523D02*
X65564000Y-73568285D01*
X65564000Y-73568285D02*
X65421142Y-73425428D01*
X65421142Y-73425428D02*
X65373523Y-73330190D01*
X65373523Y-73330190D02*
X65373523Y-73234952D01*
X65611619Y-73282571D02*
X65564000Y-73187333D01*
X65564000Y-73187333D02*
X65468761Y-73092095D01*
X65468761Y-73092095D02*
X65278285Y-73044476D01*
X65278285Y-73044476D02*
X64944952Y-73044476D01*
X64944952Y-73044476D02*
X64754476Y-73092095D01*
X64754476Y-73092095D02*
X64659238Y-73187333D01*
X64659238Y-73187333D02*
X64611619Y-73282571D01*
X64611619Y-73282571D02*
X64611619Y-73473047D01*
X64611619Y-73473047D02*
X64659238Y-73568285D01*
X64659238Y-73568285D02*
X64754476Y-73663523D01*
X64754476Y-73663523D02*
X64944952Y-73711142D01*
X64944952Y-73711142D02*
X65278285Y-73711142D01*
X65278285Y-73711142D02*
X65468761Y-73663523D01*
X65468761Y-73663523D02*
X65564000Y-73568285D01*
X65564000Y-73568285D02*
X65611619Y-73473047D01*
X65611619Y-73473047D02*
X65611619Y-73282571D01*
X65611619Y-74663523D02*
X65611619Y-74092095D01*
X65611619Y-74377809D02*
X64611619Y-74377809D01*
X64611619Y-74377809D02*
X64754476Y-74282571D01*
X64754476Y-74282571D02*
X64849714Y-74187333D01*
X64849714Y-74187333D02*
X64897333Y-74092095D01*
%TO.C,R19*%
X107775619Y-79688142D02*
X107299428Y-79354809D01*
X107775619Y-79116714D02*
X106775619Y-79116714D01*
X106775619Y-79116714D02*
X106775619Y-79497666D01*
X106775619Y-79497666D02*
X106823238Y-79592904D01*
X106823238Y-79592904D02*
X106870857Y-79640523D01*
X106870857Y-79640523D02*
X106966095Y-79688142D01*
X106966095Y-79688142D02*
X107108952Y-79688142D01*
X107108952Y-79688142D02*
X107204190Y-79640523D01*
X107204190Y-79640523D02*
X107251809Y-79592904D01*
X107251809Y-79592904D02*
X107299428Y-79497666D01*
X107299428Y-79497666D02*
X107299428Y-79116714D01*
X107775619Y-80640523D02*
X107775619Y-80069095D01*
X107775619Y-80354809D02*
X106775619Y-80354809D01*
X106775619Y-80354809D02*
X106918476Y-80259571D01*
X106918476Y-80259571D02*
X107013714Y-80164333D01*
X107013714Y-80164333D02*
X107061333Y-80069095D01*
X107775619Y-81116714D02*
X107775619Y-81307190D01*
X107775619Y-81307190D02*
X107728000Y-81402428D01*
X107728000Y-81402428D02*
X107680380Y-81450047D01*
X107680380Y-81450047D02*
X107537523Y-81545285D01*
X107537523Y-81545285D02*
X107347047Y-81592904D01*
X107347047Y-81592904D02*
X106966095Y-81592904D01*
X106966095Y-81592904D02*
X106870857Y-81545285D01*
X106870857Y-81545285D02*
X106823238Y-81497666D01*
X106823238Y-81497666D02*
X106775619Y-81402428D01*
X106775619Y-81402428D02*
X106775619Y-81211952D01*
X106775619Y-81211952D02*
X106823238Y-81116714D01*
X106823238Y-81116714D02*
X106870857Y-81069095D01*
X106870857Y-81069095D02*
X106966095Y-81021476D01*
X106966095Y-81021476D02*
X107204190Y-81021476D01*
X107204190Y-81021476D02*
X107299428Y-81069095D01*
X107299428Y-81069095D02*
X107347047Y-81116714D01*
X107347047Y-81116714D02*
X107394666Y-81211952D01*
X107394666Y-81211952D02*
X107394666Y-81402428D01*
X107394666Y-81402428D02*
X107347047Y-81497666D01*
X107347047Y-81497666D02*
X107299428Y-81545285D01*
X107299428Y-81545285D02*
X107204190Y-81592904D01*
%TO.C,Q3*%
X61388857Y-72996761D02*
X61341238Y-72901523D01*
X61341238Y-72901523D02*
X61246000Y-72806285D01*
X61246000Y-72806285D02*
X61103142Y-72663428D01*
X61103142Y-72663428D02*
X61055523Y-72568190D01*
X61055523Y-72568190D02*
X61055523Y-72472952D01*
X61293619Y-72520571D02*
X61246000Y-72425333D01*
X61246000Y-72425333D02*
X61150761Y-72330095D01*
X61150761Y-72330095D02*
X60960285Y-72282476D01*
X60960285Y-72282476D02*
X60626952Y-72282476D01*
X60626952Y-72282476D02*
X60436476Y-72330095D01*
X60436476Y-72330095D02*
X60341238Y-72425333D01*
X60341238Y-72425333D02*
X60293619Y-72520571D01*
X60293619Y-72520571D02*
X60293619Y-72711047D01*
X60293619Y-72711047D02*
X60341238Y-72806285D01*
X60341238Y-72806285D02*
X60436476Y-72901523D01*
X60436476Y-72901523D02*
X60626952Y-72949142D01*
X60626952Y-72949142D02*
X60960285Y-72949142D01*
X60960285Y-72949142D02*
X61150761Y-72901523D01*
X61150761Y-72901523D02*
X61246000Y-72806285D01*
X61246000Y-72806285D02*
X61293619Y-72711047D01*
X61293619Y-72711047D02*
X61293619Y-72520571D01*
X60293619Y-73282476D02*
X60293619Y-73901523D01*
X60293619Y-73901523D02*
X60674571Y-73568190D01*
X60674571Y-73568190D02*
X60674571Y-73711047D01*
X60674571Y-73711047D02*
X60722190Y-73806285D01*
X60722190Y-73806285D02*
X60769809Y-73853904D01*
X60769809Y-73853904D02*
X60865047Y-73901523D01*
X60865047Y-73901523D02*
X61103142Y-73901523D01*
X61103142Y-73901523D02*
X61198380Y-73853904D01*
X61198380Y-73853904D02*
X61246000Y-73806285D01*
X61246000Y-73806285D02*
X61293619Y-73711047D01*
X61293619Y-73711047D02*
X61293619Y-73425333D01*
X61293619Y-73425333D02*
X61246000Y-73330095D01*
X61246000Y-73330095D02*
X61198380Y-73282476D01*
%TO.C,R27*%
X86185619Y-79688142D02*
X85709428Y-79354809D01*
X86185619Y-79116714D02*
X85185619Y-79116714D01*
X85185619Y-79116714D02*
X85185619Y-79497666D01*
X85185619Y-79497666D02*
X85233238Y-79592904D01*
X85233238Y-79592904D02*
X85280857Y-79640523D01*
X85280857Y-79640523D02*
X85376095Y-79688142D01*
X85376095Y-79688142D02*
X85518952Y-79688142D01*
X85518952Y-79688142D02*
X85614190Y-79640523D01*
X85614190Y-79640523D02*
X85661809Y-79592904D01*
X85661809Y-79592904D02*
X85709428Y-79497666D01*
X85709428Y-79497666D02*
X85709428Y-79116714D01*
X85280857Y-80069095D02*
X85233238Y-80116714D01*
X85233238Y-80116714D02*
X85185619Y-80211952D01*
X85185619Y-80211952D02*
X85185619Y-80450047D01*
X85185619Y-80450047D02*
X85233238Y-80545285D01*
X85233238Y-80545285D02*
X85280857Y-80592904D01*
X85280857Y-80592904D02*
X85376095Y-80640523D01*
X85376095Y-80640523D02*
X85471333Y-80640523D01*
X85471333Y-80640523D02*
X85614190Y-80592904D01*
X85614190Y-80592904D02*
X86185619Y-80021476D01*
X86185619Y-80021476D02*
X86185619Y-80640523D01*
X85185619Y-80973857D02*
X85185619Y-81640523D01*
X85185619Y-81640523D02*
X86185619Y-81211952D01*
%TO.C,R31*%
X76025619Y-79688142D02*
X75549428Y-79354809D01*
X76025619Y-79116714D02*
X75025619Y-79116714D01*
X75025619Y-79116714D02*
X75025619Y-79497666D01*
X75025619Y-79497666D02*
X75073238Y-79592904D01*
X75073238Y-79592904D02*
X75120857Y-79640523D01*
X75120857Y-79640523D02*
X75216095Y-79688142D01*
X75216095Y-79688142D02*
X75358952Y-79688142D01*
X75358952Y-79688142D02*
X75454190Y-79640523D01*
X75454190Y-79640523D02*
X75501809Y-79592904D01*
X75501809Y-79592904D02*
X75549428Y-79497666D01*
X75549428Y-79497666D02*
X75549428Y-79116714D01*
X75025619Y-80021476D02*
X75025619Y-80640523D01*
X75025619Y-80640523D02*
X75406571Y-80307190D01*
X75406571Y-80307190D02*
X75406571Y-80450047D01*
X75406571Y-80450047D02*
X75454190Y-80545285D01*
X75454190Y-80545285D02*
X75501809Y-80592904D01*
X75501809Y-80592904D02*
X75597047Y-80640523D01*
X75597047Y-80640523D02*
X75835142Y-80640523D01*
X75835142Y-80640523D02*
X75930380Y-80592904D01*
X75930380Y-80592904D02*
X75978000Y-80545285D01*
X75978000Y-80545285D02*
X76025619Y-80450047D01*
X76025619Y-80450047D02*
X76025619Y-80164333D01*
X76025619Y-80164333D02*
X75978000Y-80069095D01*
X75978000Y-80069095D02*
X75930380Y-80021476D01*
X76025619Y-81592904D02*
X76025619Y-81021476D01*
X76025619Y-81307190D02*
X75025619Y-81307190D01*
X75025619Y-81307190D02*
X75168476Y-81211952D01*
X75168476Y-81211952D02*
X75263714Y-81116714D01*
X75263714Y-81116714D02*
X75311333Y-81021476D01*
%TO.C,C4*%
X67548380Y-78386333D02*
X67596000Y-78338714D01*
X67596000Y-78338714D02*
X67643619Y-78195857D01*
X67643619Y-78195857D02*
X67643619Y-78100619D01*
X67643619Y-78100619D02*
X67596000Y-77957762D01*
X67596000Y-77957762D02*
X67500761Y-77862524D01*
X67500761Y-77862524D02*
X67405523Y-77814905D01*
X67405523Y-77814905D02*
X67215047Y-77767286D01*
X67215047Y-77767286D02*
X67072190Y-77767286D01*
X67072190Y-77767286D02*
X66881714Y-77814905D01*
X66881714Y-77814905D02*
X66786476Y-77862524D01*
X66786476Y-77862524D02*
X66691238Y-77957762D01*
X66691238Y-77957762D02*
X66643619Y-78100619D01*
X66643619Y-78100619D02*
X66643619Y-78195857D01*
X66643619Y-78195857D02*
X66691238Y-78338714D01*
X66691238Y-78338714D02*
X66738857Y-78386333D01*
X66976952Y-79243476D02*
X67643619Y-79243476D01*
X66596000Y-79005381D02*
X67310285Y-78767286D01*
X67310285Y-78767286D02*
X67310285Y-79386333D01*
%TO.C,R17*%
X112855619Y-79688142D02*
X112379428Y-79354809D01*
X112855619Y-79116714D02*
X111855619Y-79116714D01*
X111855619Y-79116714D02*
X111855619Y-79497666D01*
X111855619Y-79497666D02*
X111903238Y-79592904D01*
X111903238Y-79592904D02*
X111950857Y-79640523D01*
X111950857Y-79640523D02*
X112046095Y-79688142D01*
X112046095Y-79688142D02*
X112188952Y-79688142D01*
X112188952Y-79688142D02*
X112284190Y-79640523D01*
X112284190Y-79640523D02*
X112331809Y-79592904D01*
X112331809Y-79592904D02*
X112379428Y-79497666D01*
X112379428Y-79497666D02*
X112379428Y-79116714D01*
X112855619Y-80640523D02*
X112855619Y-80069095D01*
X112855619Y-80354809D02*
X111855619Y-80354809D01*
X111855619Y-80354809D02*
X111998476Y-80259571D01*
X111998476Y-80259571D02*
X112093714Y-80164333D01*
X112093714Y-80164333D02*
X112141333Y-80069095D01*
X111855619Y-80973857D02*
X111855619Y-81640523D01*
X111855619Y-81640523D02*
X112855619Y-81211952D01*
%TO.C,R1*%
X68024619Y-61622333D02*
X67548428Y-61289000D01*
X68024619Y-61050905D02*
X67024619Y-61050905D01*
X67024619Y-61050905D02*
X67024619Y-61431857D01*
X67024619Y-61431857D02*
X67072238Y-61527095D01*
X67072238Y-61527095D02*
X67119857Y-61574714D01*
X67119857Y-61574714D02*
X67215095Y-61622333D01*
X67215095Y-61622333D02*
X67357952Y-61622333D01*
X67357952Y-61622333D02*
X67453190Y-61574714D01*
X67453190Y-61574714D02*
X67500809Y-61527095D01*
X67500809Y-61527095D02*
X67548428Y-61431857D01*
X67548428Y-61431857D02*
X67548428Y-61050905D01*
X68024619Y-62574714D02*
X68024619Y-62003286D01*
X68024619Y-62289000D02*
X67024619Y-62289000D01*
X67024619Y-62289000D02*
X67167476Y-62193762D01*
X67167476Y-62193762D02*
X67262714Y-62098524D01*
X67262714Y-62098524D02*
X67310333Y-62003286D01*
%TO.C,Q7*%
X51228857Y-72996761D02*
X51181238Y-72901523D01*
X51181238Y-72901523D02*
X51086000Y-72806285D01*
X51086000Y-72806285D02*
X50943142Y-72663428D01*
X50943142Y-72663428D02*
X50895523Y-72568190D01*
X50895523Y-72568190D02*
X50895523Y-72472952D01*
X51133619Y-72520571D02*
X51086000Y-72425333D01*
X51086000Y-72425333D02*
X50990761Y-72330095D01*
X50990761Y-72330095D02*
X50800285Y-72282476D01*
X50800285Y-72282476D02*
X50466952Y-72282476D01*
X50466952Y-72282476D02*
X50276476Y-72330095D01*
X50276476Y-72330095D02*
X50181238Y-72425333D01*
X50181238Y-72425333D02*
X50133619Y-72520571D01*
X50133619Y-72520571D02*
X50133619Y-72711047D01*
X50133619Y-72711047D02*
X50181238Y-72806285D01*
X50181238Y-72806285D02*
X50276476Y-72901523D01*
X50276476Y-72901523D02*
X50466952Y-72949142D01*
X50466952Y-72949142D02*
X50800285Y-72949142D01*
X50800285Y-72949142D02*
X50990761Y-72901523D01*
X50990761Y-72901523D02*
X51086000Y-72806285D01*
X51086000Y-72806285D02*
X51133619Y-72711047D01*
X51133619Y-72711047D02*
X51133619Y-72520571D01*
X50133619Y-73282476D02*
X50133619Y-73949142D01*
X50133619Y-73949142D02*
X51133619Y-73520571D01*
%TO.C,R30*%
X78565619Y-79688142D02*
X78089428Y-79354809D01*
X78565619Y-79116714D02*
X77565619Y-79116714D01*
X77565619Y-79116714D02*
X77565619Y-79497666D01*
X77565619Y-79497666D02*
X77613238Y-79592904D01*
X77613238Y-79592904D02*
X77660857Y-79640523D01*
X77660857Y-79640523D02*
X77756095Y-79688142D01*
X77756095Y-79688142D02*
X77898952Y-79688142D01*
X77898952Y-79688142D02*
X77994190Y-79640523D01*
X77994190Y-79640523D02*
X78041809Y-79592904D01*
X78041809Y-79592904D02*
X78089428Y-79497666D01*
X78089428Y-79497666D02*
X78089428Y-79116714D01*
X77565619Y-80021476D02*
X77565619Y-80640523D01*
X77565619Y-80640523D02*
X77946571Y-80307190D01*
X77946571Y-80307190D02*
X77946571Y-80450047D01*
X77946571Y-80450047D02*
X77994190Y-80545285D01*
X77994190Y-80545285D02*
X78041809Y-80592904D01*
X78041809Y-80592904D02*
X78137047Y-80640523D01*
X78137047Y-80640523D02*
X78375142Y-80640523D01*
X78375142Y-80640523D02*
X78470380Y-80592904D01*
X78470380Y-80592904D02*
X78518000Y-80545285D01*
X78518000Y-80545285D02*
X78565619Y-80450047D01*
X78565619Y-80450047D02*
X78565619Y-80164333D01*
X78565619Y-80164333D02*
X78518000Y-80069095D01*
X78518000Y-80069095D02*
X78470380Y-80021476D01*
X77565619Y-81259571D02*
X77565619Y-81354809D01*
X77565619Y-81354809D02*
X77613238Y-81450047D01*
X77613238Y-81450047D02*
X77660857Y-81497666D01*
X77660857Y-81497666D02*
X77756095Y-81545285D01*
X77756095Y-81545285D02*
X77946571Y-81592904D01*
X77946571Y-81592904D02*
X78184666Y-81592904D01*
X78184666Y-81592904D02*
X78375142Y-81545285D01*
X78375142Y-81545285D02*
X78470380Y-81497666D01*
X78470380Y-81497666D02*
X78518000Y-81450047D01*
X78518000Y-81450047D02*
X78565619Y-81354809D01*
X78565619Y-81354809D02*
X78565619Y-81259571D01*
X78565619Y-81259571D02*
X78518000Y-81164333D01*
X78518000Y-81164333D02*
X78470380Y-81116714D01*
X78470380Y-81116714D02*
X78375142Y-81069095D01*
X78375142Y-81069095D02*
X78184666Y-81021476D01*
X78184666Y-81021476D02*
X77946571Y-81021476D01*
X77946571Y-81021476D02*
X77756095Y-81069095D01*
X77756095Y-81069095D02*
X77660857Y-81116714D01*
X77660857Y-81116714D02*
X77613238Y-81164333D01*
X77613238Y-81164333D02*
X77565619Y-81259571D01*
%TO.C,R26*%
X88725619Y-79688142D02*
X88249428Y-79354809D01*
X88725619Y-79116714D02*
X87725619Y-79116714D01*
X87725619Y-79116714D02*
X87725619Y-79497666D01*
X87725619Y-79497666D02*
X87773238Y-79592904D01*
X87773238Y-79592904D02*
X87820857Y-79640523D01*
X87820857Y-79640523D02*
X87916095Y-79688142D01*
X87916095Y-79688142D02*
X88058952Y-79688142D01*
X88058952Y-79688142D02*
X88154190Y-79640523D01*
X88154190Y-79640523D02*
X88201809Y-79592904D01*
X88201809Y-79592904D02*
X88249428Y-79497666D01*
X88249428Y-79497666D02*
X88249428Y-79116714D01*
X87820857Y-80069095D02*
X87773238Y-80116714D01*
X87773238Y-80116714D02*
X87725619Y-80211952D01*
X87725619Y-80211952D02*
X87725619Y-80450047D01*
X87725619Y-80450047D02*
X87773238Y-80545285D01*
X87773238Y-80545285D02*
X87820857Y-80592904D01*
X87820857Y-80592904D02*
X87916095Y-80640523D01*
X87916095Y-80640523D02*
X88011333Y-80640523D01*
X88011333Y-80640523D02*
X88154190Y-80592904D01*
X88154190Y-80592904D02*
X88725619Y-80021476D01*
X88725619Y-80021476D02*
X88725619Y-80640523D01*
X87725619Y-81497666D02*
X87725619Y-81307190D01*
X87725619Y-81307190D02*
X87773238Y-81211952D01*
X87773238Y-81211952D02*
X87820857Y-81164333D01*
X87820857Y-81164333D02*
X87963714Y-81069095D01*
X87963714Y-81069095D02*
X88154190Y-81021476D01*
X88154190Y-81021476D02*
X88535142Y-81021476D01*
X88535142Y-81021476D02*
X88630380Y-81069095D01*
X88630380Y-81069095D02*
X88678000Y-81116714D01*
X88678000Y-81116714D02*
X88725619Y-81211952D01*
X88725619Y-81211952D02*
X88725619Y-81402428D01*
X88725619Y-81402428D02*
X88678000Y-81497666D01*
X88678000Y-81497666D02*
X88630380Y-81545285D01*
X88630380Y-81545285D02*
X88535142Y-81592904D01*
X88535142Y-81592904D02*
X88297047Y-81592904D01*
X88297047Y-81592904D02*
X88201809Y-81545285D01*
X88201809Y-81545285D02*
X88154190Y-81497666D01*
X88154190Y-81497666D02*
X88106571Y-81402428D01*
X88106571Y-81402428D02*
X88106571Y-81211952D01*
X88106571Y-81211952D02*
X88154190Y-81116714D01*
X88154190Y-81116714D02*
X88201809Y-81069095D01*
X88201809Y-81069095D02*
X88297047Y-81021476D01*
%TO.C,C6*%
X44942380Y-69242333D02*
X44990000Y-69194714D01*
X44990000Y-69194714D02*
X45037619Y-69051857D01*
X45037619Y-69051857D02*
X45037619Y-68956619D01*
X45037619Y-68956619D02*
X44990000Y-68813762D01*
X44990000Y-68813762D02*
X44894761Y-68718524D01*
X44894761Y-68718524D02*
X44799523Y-68670905D01*
X44799523Y-68670905D02*
X44609047Y-68623286D01*
X44609047Y-68623286D02*
X44466190Y-68623286D01*
X44466190Y-68623286D02*
X44275714Y-68670905D01*
X44275714Y-68670905D02*
X44180476Y-68718524D01*
X44180476Y-68718524D02*
X44085238Y-68813762D01*
X44085238Y-68813762D02*
X44037619Y-68956619D01*
X44037619Y-68956619D02*
X44037619Y-69051857D01*
X44037619Y-69051857D02*
X44085238Y-69194714D01*
X44085238Y-69194714D02*
X44132857Y-69242333D01*
X44037619Y-70099476D02*
X44037619Y-69909000D01*
X44037619Y-69909000D02*
X44085238Y-69813762D01*
X44085238Y-69813762D02*
X44132857Y-69766143D01*
X44132857Y-69766143D02*
X44275714Y-69670905D01*
X44275714Y-69670905D02*
X44466190Y-69623286D01*
X44466190Y-69623286D02*
X44847142Y-69623286D01*
X44847142Y-69623286D02*
X44942380Y-69670905D01*
X44942380Y-69670905D02*
X44990000Y-69718524D01*
X44990000Y-69718524D02*
X45037619Y-69813762D01*
X45037619Y-69813762D02*
X45037619Y-70004238D01*
X45037619Y-70004238D02*
X44990000Y-70099476D01*
X44990000Y-70099476D02*
X44942380Y-70147095D01*
X44942380Y-70147095D02*
X44847142Y-70194714D01*
X44847142Y-70194714D02*
X44609047Y-70194714D01*
X44609047Y-70194714D02*
X44513809Y-70147095D01*
X44513809Y-70147095D02*
X44466190Y-70099476D01*
X44466190Y-70099476D02*
X44418571Y-70004238D01*
X44418571Y-70004238D02*
X44418571Y-69813762D01*
X44418571Y-69813762D02*
X44466190Y-69718524D01*
X44466190Y-69718524D02*
X44513809Y-69670905D01*
X44513809Y-69670905D02*
X44609047Y-69623286D01*
%TO.C,Q5*%
X56308857Y-72996761D02*
X56261238Y-72901523D01*
X56261238Y-72901523D02*
X56166000Y-72806285D01*
X56166000Y-72806285D02*
X56023142Y-72663428D01*
X56023142Y-72663428D02*
X55975523Y-72568190D01*
X55975523Y-72568190D02*
X55975523Y-72472952D01*
X56213619Y-72520571D02*
X56166000Y-72425333D01*
X56166000Y-72425333D02*
X56070761Y-72330095D01*
X56070761Y-72330095D02*
X55880285Y-72282476D01*
X55880285Y-72282476D02*
X55546952Y-72282476D01*
X55546952Y-72282476D02*
X55356476Y-72330095D01*
X55356476Y-72330095D02*
X55261238Y-72425333D01*
X55261238Y-72425333D02*
X55213619Y-72520571D01*
X55213619Y-72520571D02*
X55213619Y-72711047D01*
X55213619Y-72711047D02*
X55261238Y-72806285D01*
X55261238Y-72806285D02*
X55356476Y-72901523D01*
X55356476Y-72901523D02*
X55546952Y-72949142D01*
X55546952Y-72949142D02*
X55880285Y-72949142D01*
X55880285Y-72949142D02*
X56070761Y-72901523D01*
X56070761Y-72901523D02*
X56166000Y-72806285D01*
X56166000Y-72806285D02*
X56213619Y-72711047D01*
X56213619Y-72711047D02*
X56213619Y-72520571D01*
X55213619Y-73853904D02*
X55213619Y-73377714D01*
X55213619Y-73377714D02*
X55689809Y-73330095D01*
X55689809Y-73330095D02*
X55642190Y-73377714D01*
X55642190Y-73377714D02*
X55594571Y-73472952D01*
X55594571Y-73472952D02*
X55594571Y-73711047D01*
X55594571Y-73711047D02*
X55642190Y-73806285D01*
X55642190Y-73806285D02*
X55689809Y-73853904D01*
X55689809Y-73853904D02*
X55785047Y-73901523D01*
X55785047Y-73901523D02*
X56023142Y-73901523D01*
X56023142Y-73901523D02*
X56118380Y-73853904D01*
X56118380Y-73853904D02*
X56166000Y-73806285D01*
X56166000Y-73806285D02*
X56213619Y-73711047D01*
X56213619Y-73711047D02*
X56213619Y-73472952D01*
X56213619Y-73472952D02*
X56166000Y-73377714D01*
X56166000Y-73377714D02*
X56118380Y-73330095D01*
%TO.C,C3*%
X62931666Y-82795380D02*
X62979285Y-82843000D01*
X62979285Y-82843000D02*
X63122142Y-82890619D01*
X63122142Y-82890619D02*
X63217380Y-82890619D01*
X63217380Y-82890619D02*
X63360237Y-82843000D01*
X63360237Y-82843000D02*
X63455475Y-82747761D01*
X63455475Y-82747761D02*
X63503094Y-82652523D01*
X63503094Y-82652523D02*
X63550713Y-82462047D01*
X63550713Y-82462047D02*
X63550713Y-82319190D01*
X63550713Y-82319190D02*
X63503094Y-82128714D01*
X63503094Y-82128714D02*
X63455475Y-82033476D01*
X63455475Y-82033476D02*
X63360237Y-81938238D01*
X63360237Y-81938238D02*
X63217380Y-81890619D01*
X63217380Y-81890619D02*
X63122142Y-81890619D01*
X63122142Y-81890619D02*
X62979285Y-81938238D01*
X62979285Y-81938238D02*
X62931666Y-81985857D01*
X62598332Y-81890619D02*
X61979285Y-81890619D01*
X61979285Y-81890619D02*
X62312618Y-82271571D01*
X62312618Y-82271571D02*
X62169761Y-82271571D01*
X62169761Y-82271571D02*
X62074523Y-82319190D01*
X62074523Y-82319190D02*
X62026904Y-82366809D01*
X62026904Y-82366809D02*
X61979285Y-82462047D01*
X61979285Y-82462047D02*
X61979285Y-82700142D01*
X61979285Y-82700142D02*
X62026904Y-82795380D01*
X62026904Y-82795380D02*
X62074523Y-82843000D01*
X62074523Y-82843000D02*
X62169761Y-82890619D01*
X62169761Y-82890619D02*
X62455475Y-82890619D01*
X62455475Y-82890619D02*
X62550713Y-82843000D01*
X62550713Y-82843000D02*
X62598332Y-82795380D01*
%TO.C,R21*%
X102695619Y-79688142D02*
X102219428Y-79354809D01*
X102695619Y-79116714D02*
X101695619Y-79116714D01*
X101695619Y-79116714D02*
X101695619Y-79497666D01*
X101695619Y-79497666D02*
X101743238Y-79592904D01*
X101743238Y-79592904D02*
X101790857Y-79640523D01*
X101790857Y-79640523D02*
X101886095Y-79688142D01*
X101886095Y-79688142D02*
X102028952Y-79688142D01*
X102028952Y-79688142D02*
X102124190Y-79640523D01*
X102124190Y-79640523D02*
X102171809Y-79592904D01*
X102171809Y-79592904D02*
X102219428Y-79497666D01*
X102219428Y-79497666D02*
X102219428Y-79116714D01*
X101790857Y-80069095D02*
X101743238Y-80116714D01*
X101743238Y-80116714D02*
X101695619Y-80211952D01*
X101695619Y-80211952D02*
X101695619Y-80450047D01*
X101695619Y-80450047D02*
X101743238Y-80545285D01*
X101743238Y-80545285D02*
X101790857Y-80592904D01*
X101790857Y-80592904D02*
X101886095Y-80640523D01*
X101886095Y-80640523D02*
X101981333Y-80640523D01*
X101981333Y-80640523D02*
X102124190Y-80592904D01*
X102124190Y-80592904D02*
X102695619Y-80021476D01*
X102695619Y-80021476D02*
X102695619Y-80640523D01*
X102695619Y-81592904D02*
X102695619Y-81021476D01*
X102695619Y-81307190D02*
X101695619Y-81307190D01*
X101695619Y-81307190D02*
X101838476Y-81211952D01*
X101838476Y-81211952D02*
X101933714Y-81116714D01*
X101933714Y-81116714D02*
X101981333Y-81021476D01*
%TO.C,R15*%
X46845619Y-61133142D02*
X46369428Y-60799809D01*
X46845619Y-60561714D02*
X45845619Y-60561714D01*
X45845619Y-60561714D02*
X45845619Y-60942666D01*
X45845619Y-60942666D02*
X45893238Y-61037904D01*
X45893238Y-61037904D02*
X45940857Y-61085523D01*
X45940857Y-61085523D02*
X46036095Y-61133142D01*
X46036095Y-61133142D02*
X46178952Y-61133142D01*
X46178952Y-61133142D02*
X46274190Y-61085523D01*
X46274190Y-61085523D02*
X46321809Y-61037904D01*
X46321809Y-61037904D02*
X46369428Y-60942666D01*
X46369428Y-60942666D02*
X46369428Y-60561714D01*
X46845619Y-62085523D02*
X46845619Y-61514095D01*
X46845619Y-61799809D02*
X45845619Y-61799809D01*
X45845619Y-61799809D02*
X45988476Y-61704571D01*
X45988476Y-61704571D02*
X46083714Y-61609333D01*
X46083714Y-61609333D02*
X46131333Y-61514095D01*
X45845619Y-62990285D02*
X45845619Y-62514095D01*
X45845619Y-62514095D02*
X46321809Y-62466476D01*
X46321809Y-62466476D02*
X46274190Y-62514095D01*
X46274190Y-62514095D02*
X46226571Y-62609333D01*
X46226571Y-62609333D02*
X46226571Y-62847428D01*
X46226571Y-62847428D02*
X46274190Y-62942666D01*
X46274190Y-62942666D02*
X46321809Y-62990285D01*
X46321809Y-62990285D02*
X46417047Y-63037904D01*
X46417047Y-63037904D02*
X46655142Y-63037904D01*
X46655142Y-63037904D02*
X46750380Y-62990285D01*
X46750380Y-62990285D02*
X46798000Y-62942666D01*
X46798000Y-62942666D02*
X46845619Y-62847428D01*
X46845619Y-62847428D02*
X46845619Y-62609333D01*
X46845619Y-62609333D02*
X46798000Y-62514095D01*
X46798000Y-62514095D02*
X46750380Y-62466476D01*
%TO.C,R28*%
X83645619Y-79688142D02*
X83169428Y-79354809D01*
X83645619Y-79116714D02*
X82645619Y-79116714D01*
X82645619Y-79116714D02*
X82645619Y-79497666D01*
X82645619Y-79497666D02*
X82693238Y-79592904D01*
X82693238Y-79592904D02*
X82740857Y-79640523D01*
X82740857Y-79640523D02*
X82836095Y-79688142D01*
X82836095Y-79688142D02*
X82978952Y-79688142D01*
X82978952Y-79688142D02*
X83074190Y-79640523D01*
X83074190Y-79640523D02*
X83121809Y-79592904D01*
X83121809Y-79592904D02*
X83169428Y-79497666D01*
X83169428Y-79497666D02*
X83169428Y-79116714D01*
X82740857Y-80069095D02*
X82693238Y-80116714D01*
X82693238Y-80116714D02*
X82645619Y-80211952D01*
X82645619Y-80211952D02*
X82645619Y-80450047D01*
X82645619Y-80450047D02*
X82693238Y-80545285D01*
X82693238Y-80545285D02*
X82740857Y-80592904D01*
X82740857Y-80592904D02*
X82836095Y-80640523D01*
X82836095Y-80640523D02*
X82931333Y-80640523D01*
X82931333Y-80640523D02*
X83074190Y-80592904D01*
X83074190Y-80592904D02*
X83645619Y-80021476D01*
X83645619Y-80021476D02*
X83645619Y-80640523D01*
X83074190Y-81211952D02*
X83026571Y-81116714D01*
X83026571Y-81116714D02*
X82978952Y-81069095D01*
X82978952Y-81069095D02*
X82883714Y-81021476D01*
X82883714Y-81021476D02*
X82836095Y-81021476D01*
X82836095Y-81021476D02*
X82740857Y-81069095D01*
X82740857Y-81069095D02*
X82693238Y-81116714D01*
X82693238Y-81116714D02*
X82645619Y-81211952D01*
X82645619Y-81211952D02*
X82645619Y-81402428D01*
X82645619Y-81402428D02*
X82693238Y-81497666D01*
X82693238Y-81497666D02*
X82740857Y-81545285D01*
X82740857Y-81545285D02*
X82836095Y-81592904D01*
X82836095Y-81592904D02*
X82883714Y-81592904D01*
X82883714Y-81592904D02*
X82978952Y-81545285D01*
X82978952Y-81545285D02*
X83026571Y-81497666D01*
X83026571Y-81497666D02*
X83074190Y-81402428D01*
X83074190Y-81402428D02*
X83074190Y-81211952D01*
X83074190Y-81211952D02*
X83121809Y-81116714D01*
X83121809Y-81116714D02*
X83169428Y-81069095D01*
X83169428Y-81069095D02*
X83264666Y-81021476D01*
X83264666Y-81021476D02*
X83455142Y-81021476D01*
X83455142Y-81021476D02*
X83550380Y-81069095D01*
X83550380Y-81069095D02*
X83598000Y-81116714D01*
X83598000Y-81116714D02*
X83645619Y-81211952D01*
X83645619Y-81211952D02*
X83645619Y-81402428D01*
X83645619Y-81402428D02*
X83598000Y-81497666D01*
X83598000Y-81497666D02*
X83550380Y-81545285D01*
X83550380Y-81545285D02*
X83455142Y-81592904D01*
X83455142Y-81592904D02*
X83264666Y-81592904D01*
X83264666Y-81592904D02*
X83169428Y-81545285D01*
X83169428Y-81545285D02*
X83121809Y-81497666D01*
X83121809Y-81497666D02*
X83074190Y-81402428D01*
D11*
%TO.C,C1*%
X69875000Y-73082267D02*
X69875000Y-72789733D01*
X70895000Y-73082267D02*
X70895000Y-72789733D01*
%TO.C,R20*%
X103940000Y-73163064D02*
X103940000Y-72708936D01*
X105410000Y-73163064D02*
X105410000Y-72708936D01*
%TO.C,R43*%
X85525000Y-62368064D02*
X85525000Y-61913936D01*
X86995000Y-62368064D02*
X86995000Y-61913936D01*
%TO.C,R11*%
X53848000Y-61548936D02*
X53848000Y-62003064D01*
X52378000Y-61548936D02*
X52378000Y-62003064D01*
%TO.C,R39*%
X95685000Y-62368064D02*
X95685000Y-61913936D01*
X97155000Y-62368064D02*
X97155000Y-61913936D01*
%TO.C,R46*%
X77940000Y-62368064D02*
X77940000Y-61913936D01*
X79410000Y-62368064D02*
X79410000Y-61913936D01*
%TO.C,C2*%
X44250000Y-74467252D02*
X44250000Y-73944748D01*
X45720000Y-74467252D02*
X45720000Y-73944748D01*
%TO.C,R29*%
X79810000Y-73163064D02*
X79810000Y-72708936D01*
X81280000Y-73163064D02*
X81280000Y-72708936D01*
%TO.C,R3*%
X64008000Y-61548936D02*
X64008000Y-62003064D01*
X62538000Y-61548936D02*
X62538000Y-62003064D01*
%TO.C,R48*%
X72825000Y-62368064D02*
X72825000Y-61913936D01*
X74295000Y-62368064D02*
X74295000Y-61913936D01*
%TO.C,R7*%
X58928000Y-61548936D02*
X58928000Y-62003064D01*
X57458000Y-61548936D02*
X57458000Y-62003064D01*
%TO.C,R42*%
X88065000Y-62368064D02*
X88065000Y-61913936D01*
X89535000Y-62368064D02*
X89535000Y-61913936D01*
%TO.C,R33*%
X110925000Y-62368064D02*
X110925000Y-61913936D01*
X112395000Y-62368064D02*
X112395000Y-61913936D01*
%TO.C,R18*%
X109020000Y-73163064D02*
X109020000Y-72708936D01*
X110490000Y-73163064D02*
X110490000Y-72708936D01*
%TO.C,R24*%
X93780000Y-73163064D02*
X93780000Y-72708936D01*
X95250000Y-73163064D02*
X95250000Y-72708936D01*
%TO.C,R40*%
X93145000Y-62368064D02*
X93145000Y-61913936D01*
X94615000Y-62368064D02*
X94615000Y-61913936D01*
%TO.C,R37*%
X100765000Y-62368064D02*
X100765000Y-61913936D01*
X102235000Y-62368064D02*
X102235000Y-61913936D01*
%TO.C,R22*%
X98860000Y-73163064D02*
X98860000Y-72708936D01*
X100330000Y-73163064D02*
X100330000Y-72708936D01*
%TO.C,C5*%
X92100000Y-73082267D02*
X92100000Y-72789733D01*
X93120000Y-73082267D02*
X93120000Y-72789733D01*
%TO.C,R25*%
X89970000Y-73163064D02*
X89970000Y-72708936D01*
X91440000Y-73163064D02*
X91440000Y-72708936D01*
%TO.C,R32*%
X72190000Y-73163064D02*
X72190000Y-72708936D01*
X73660000Y-73163064D02*
X73660000Y-72708936D01*
%TO.C,R23*%
X96320000Y-73163064D02*
X96320000Y-72708936D01*
X97790000Y-73163064D02*
X97790000Y-72708936D01*
%TO.C,R45*%
X80480000Y-62368064D02*
X80480000Y-61913936D01*
X81950000Y-62368064D02*
X81950000Y-61913936D01*
%TO.C,R34*%
X108385000Y-62368064D02*
X108385000Y-61913936D01*
X109855000Y-62368064D02*
X109855000Y-61913936D01*
%TO.C,Q1*%
X67943000Y-71795500D02*
X67943000Y-70655500D01*
X63453000Y-70655500D02*
X63683000Y-70655500D01*
X68173000Y-70655500D02*
X67943000Y-70655500D01*
X68173000Y-70655500D02*
X68173000Y-67935500D01*
X63453000Y-67935500D02*
X63453000Y-70655500D01*
X64763000Y-67935500D02*
X63453000Y-67935500D01*
X68173000Y-67935500D02*
X66863000Y-67935500D01*
%TO.C,R19*%
X106480000Y-73163064D02*
X106480000Y-72708936D01*
X107950000Y-73163064D02*
X107950000Y-72708936D01*
%TO.C,Q3*%
X62863000Y-71795500D02*
X62863000Y-70655500D01*
X58373000Y-70655500D02*
X58603000Y-70655500D01*
X63093000Y-70655500D02*
X62863000Y-70655500D01*
X63093000Y-70655500D02*
X63093000Y-67935500D01*
X58373000Y-67935500D02*
X58373000Y-70655500D01*
X59683000Y-67935500D02*
X58373000Y-67935500D01*
X63093000Y-67935500D02*
X61783000Y-67935500D01*
%TO.C,R27*%
X84890000Y-73163064D02*
X84890000Y-72708936D01*
X86360000Y-73163064D02*
X86360000Y-72708936D01*
%TO.C,R31*%
X74730000Y-73163064D02*
X74730000Y-72708936D01*
X76200000Y-73163064D02*
X76200000Y-72708936D01*
%TO.C,C4*%
X66094000Y-75737252D02*
X66094000Y-75214748D01*
X67564000Y-75737252D02*
X67564000Y-75214748D01*
%TO.C,R47*%
X75400000Y-62368064D02*
X75400000Y-61913936D01*
X76870000Y-62368064D02*
X76870000Y-61913936D01*
%TO.C,R17*%
X111560000Y-73163064D02*
X111560000Y-72708936D01*
X113030000Y-73163064D02*
X113030000Y-72708936D01*
%TO.C,R13*%
X51308000Y-61548936D02*
X51308000Y-62003064D01*
X49838000Y-61548936D02*
X49838000Y-62003064D01*
%TO.C,R38*%
X98225000Y-62368064D02*
X98225000Y-61913936D01*
X99695000Y-62368064D02*
X99695000Y-61913936D01*
%TO.C,R1*%
X66548000Y-61548936D02*
X66548000Y-62003064D01*
X65078000Y-61548936D02*
X65078000Y-62003064D01*
%TO.C,Q7*%
X52703000Y-71795500D02*
X52703000Y-70655500D01*
X48213000Y-70655500D02*
X48443000Y-70655500D01*
X52933000Y-70655500D02*
X52703000Y-70655500D01*
X52933000Y-70655500D02*
X52933000Y-67935500D01*
X48213000Y-67935500D02*
X48213000Y-70655500D01*
X49523000Y-67935500D02*
X48213000Y-67935500D01*
X52933000Y-67935500D02*
X51623000Y-67935500D01*
%TO.C,R44*%
X82985000Y-62368064D02*
X82985000Y-61913936D01*
X84455000Y-62368064D02*
X84455000Y-61913936D01*
%TO.C,R30*%
X77270000Y-73163064D02*
X77270000Y-72708936D01*
X78740000Y-73163064D02*
X78740000Y-72708936D01*
%TO.C,R26*%
X87430000Y-73163064D02*
X87430000Y-72708936D01*
X88900000Y-73163064D02*
X88900000Y-72708936D01*
%TO.C,R5*%
X61468000Y-61548936D02*
X61468000Y-62003064D01*
X59998000Y-61548936D02*
X59998000Y-62003064D01*
%TO.C,R41*%
X90605000Y-62368064D02*
X90605000Y-61913936D01*
X92075000Y-62368064D02*
X92075000Y-61913936D01*
%TO.C,C6*%
X45520000Y-69641252D02*
X45520000Y-69118748D01*
X46990000Y-69641252D02*
X46990000Y-69118748D01*
%TO.C,Q5*%
X57783000Y-71795500D02*
X57783000Y-70655500D01*
X53293000Y-70655500D02*
X53523000Y-70655500D01*
X58013000Y-70655500D02*
X57783000Y-70655500D01*
X58013000Y-70655500D02*
X58013000Y-67935500D01*
X53293000Y-67935500D02*
X53293000Y-70655500D01*
X54603000Y-67935500D02*
X53293000Y-67935500D01*
X58013000Y-67935500D02*
X56703000Y-67935500D01*
%TO.C,C3*%
X62911267Y-84368000D02*
X62618733Y-84368000D01*
X62911267Y-83348000D02*
X62618733Y-83348000D01*
%TO.C,R35*%
X105845000Y-62368064D02*
X105845000Y-61913936D01*
X107315000Y-62368064D02*
X107315000Y-61913936D01*
%TO.C,R21*%
X101400000Y-73163064D02*
X101400000Y-72708936D01*
X102870000Y-73163064D02*
X102870000Y-72708936D01*
%TO.C,R36*%
X103305000Y-62368064D02*
X103305000Y-61913936D01*
X104775000Y-62368064D02*
X104775000Y-61913936D01*
%TO.C,R9*%
X56388000Y-61548936D02*
X56388000Y-62003064D01*
X54918000Y-61548936D02*
X54918000Y-62003064D01*
%TO.C,R15*%
X48768000Y-61548936D02*
X48768000Y-62003064D01*
X47298000Y-61548936D02*
X47298000Y-62003064D01*
%TO.C,R28*%
X82350000Y-73163064D02*
X82350000Y-72708936D01*
X83820000Y-73163064D02*
X83820000Y-72708936D01*
%TD*%
%LPC*%
D10*
X102000000Y-82000000D02*
X106000000Y-82000000D01*
X106000000Y-84000000D01*
X102000000Y-84000000D01*
X102000000Y-82000000D01*
G36*
X102000000Y-82000000D02*
G01*
X106000000Y-82000000D01*
X106000000Y-84000000D01*
X102000000Y-84000000D01*
X102000000Y-82000000D01*
G37*
D12*
%TO.C,H2*%
X111500000Y-86500000D03*
%TD*%
%TO.C,H1*%
X41000000Y-63000000D03*
%TD*%
D13*
%TO.C,U1*%
X65305000Y-78947500D03*
D14*
X62765000Y-78947500D03*
X60225000Y-78947500D03*
X57685000Y-78947500D03*
X55145000Y-78947500D03*
X52605000Y-78947500D03*
X50065000Y-78947500D03*
X47525000Y-78947500D03*
X47525000Y-86567500D03*
X50065000Y-86567500D03*
X52605000Y-86567500D03*
X55145000Y-86567500D03*
X57685000Y-86567500D03*
X60225000Y-86567500D03*
X62765000Y-86567500D03*
X65305000Y-86567500D03*
%TD*%
D15*
%TO.C,J3*%
X111660000Y-65316000D03*
D16*
X109120000Y-65316000D03*
X106580000Y-65316000D03*
X104040000Y-65316000D03*
X101500000Y-65316000D03*
X98960000Y-65316000D03*
X96420000Y-65316000D03*
X93880000Y-65316000D03*
X91340000Y-65316000D03*
X88800000Y-65316000D03*
X86260000Y-65316000D03*
X83720000Y-65316000D03*
X81180000Y-65316000D03*
X78640000Y-65316000D03*
X76100000Y-65316000D03*
X73560000Y-65316000D03*
%TD*%
D13*
%TO.C,U3*%
X88150000Y-69380000D03*
D14*
X85610000Y-69380000D03*
X83070000Y-69380000D03*
X80530000Y-69380000D03*
X77990000Y-69380000D03*
X75450000Y-69380000D03*
X72910000Y-69380000D03*
X70370000Y-69380000D03*
X70370000Y-77000000D03*
X72910000Y-77000000D03*
X75450000Y-77000000D03*
X77990000Y-77000000D03*
X80530000Y-77000000D03*
X83070000Y-77000000D03*
X85610000Y-77000000D03*
X88150000Y-77000000D03*
%TD*%
D13*
%TO.C,U2*%
X109740000Y-69380000D03*
D14*
X107200000Y-69380000D03*
X104660000Y-69380000D03*
X102120000Y-69380000D03*
X99580000Y-69380000D03*
X97040000Y-69380000D03*
X94500000Y-69380000D03*
X91960000Y-69380000D03*
X91960000Y-77000000D03*
X94500000Y-77000000D03*
X97040000Y-77000000D03*
X99580000Y-77000000D03*
X102120000Y-77000000D03*
X104660000Y-77000000D03*
X107200000Y-77000000D03*
X109740000Y-77000000D03*
%TD*%
D15*
%TO.C,J1*%
X42191000Y-72936000D03*
D16*
X42191000Y-75476000D03*
X42191000Y-78016000D03*
X42191000Y-80556000D03*
X42191000Y-83096000D03*
X42191000Y-85636000D03*
%TD*%
D15*
%TO.C,J2*%
X68353000Y-65485500D03*
D16*
X65813000Y-65485500D03*
X63273000Y-65485500D03*
X60733000Y-65485500D03*
X58193000Y-65485500D03*
X55653000Y-65485500D03*
X53113000Y-65485500D03*
X50573000Y-65485500D03*
X48033000Y-65485500D03*
X45493000Y-65485500D03*
%TD*%
D17*
%TO.C,C1*%
X70385000Y-73798500D03*
X70385000Y-72073500D03*
%TD*%
D18*
%TO.C,R20*%
X104675000Y-73848500D03*
X104675000Y-72023500D03*
%TD*%
%TO.C,R43*%
X86260000Y-63053500D03*
X86260000Y-61228500D03*
%TD*%
D19*
%TO.C,R11*%
X53113000Y-60863500D03*
X53113000Y-62688500D03*
%TD*%
D18*
%TO.C,R39*%
X96420000Y-63053500D03*
X96420000Y-61228500D03*
%TD*%
%TO.C,R46*%
X78675000Y-63053500D03*
X78675000Y-61228500D03*
%TD*%
D20*
%TO.C,C2*%
X44985000Y-75243500D03*
X44985000Y-73168500D03*
%TD*%
D18*
%TO.C,R29*%
X80545000Y-73848500D03*
X80545000Y-72023500D03*
%TD*%
D19*
%TO.C,R3*%
X63273000Y-60863500D03*
X63273000Y-62688500D03*
%TD*%
D18*
%TO.C,R48*%
X73560000Y-63053500D03*
X73560000Y-61228500D03*
%TD*%
D19*
%TO.C,R7*%
X58193000Y-60863500D03*
X58193000Y-62688500D03*
%TD*%
D18*
%TO.C,R42*%
X88800000Y-63053500D03*
X88800000Y-61228500D03*
%TD*%
%TO.C,R33*%
X111660000Y-63053500D03*
X111660000Y-61228500D03*
%TD*%
%TO.C,R18*%
X109755000Y-73848500D03*
X109755000Y-72023500D03*
%TD*%
%TO.C,R24*%
X94515000Y-73848500D03*
X94515000Y-72023500D03*
%TD*%
%TO.C,R40*%
X93880000Y-63053500D03*
X93880000Y-61228500D03*
%TD*%
%TO.C,R37*%
X101500000Y-63053500D03*
X101500000Y-61228500D03*
%TD*%
%TO.C,R22*%
X99595000Y-73848500D03*
X99595000Y-72023500D03*
%TD*%
D17*
%TO.C,C5*%
X92610000Y-73798500D03*
X92610000Y-72073500D03*
%TD*%
D18*
%TO.C,R25*%
X90705000Y-73848500D03*
X90705000Y-72023500D03*
%TD*%
%TO.C,R32*%
X72925000Y-73848500D03*
X72925000Y-72023500D03*
%TD*%
%TO.C,R23*%
X97055000Y-73848500D03*
X97055000Y-72023500D03*
%TD*%
%TO.C,R45*%
X81215000Y-63053500D03*
X81215000Y-61228500D03*
%TD*%
%TO.C,R34*%
X109120000Y-63053500D03*
X109120000Y-61228500D03*
%TD*%
D21*
%TO.C,Q1*%
X67313000Y-71245500D03*
D22*
X65813000Y-71158000D03*
D21*
X64313000Y-71245500D03*
%TD*%
D18*
%TO.C,R19*%
X107215000Y-73848500D03*
X107215000Y-72023500D03*
%TD*%
D21*
%TO.C,Q3*%
X62233000Y-71245500D03*
D22*
X60733000Y-71158000D03*
D21*
X59233000Y-71245500D03*
%TD*%
D18*
%TO.C,R27*%
X85625000Y-73848500D03*
X85625000Y-72023500D03*
%TD*%
%TO.C,R31*%
X75465000Y-73848500D03*
X75465000Y-72023500D03*
%TD*%
D20*
%TO.C,C4*%
X66829000Y-76513500D03*
X66829000Y-74438500D03*
%TD*%
D18*
%TO.C,R47*%
X76135000Y-63053500D03*
X76135000Y-61228500D03*
%TD*%
%TO.C,R17*%
X112295000Y-73848500D03*
X112295000Y-72023500D03*
%TD*%
D19*
%TO.C,R13*%
X50573000Y-60863500D03*
X50573000Y-62688500D03*
%TD*%
D18*
%TO.C,R38*%
X98960000Y-63053500D03*
X98960000Y-61228500D03*
%TD*%
D19*
%TO.C,R1*%
X65813000Y-60863500D03*
X65813000Y-62688500D03*
%TD*%
D21*
%TO.C,Q7*%
X52073000Y-71245500D03*
D22*
X50573000Y-71158000D03*
D21*
X49073000Y-71245500D03*
%TD*%
D18*
%TO.C,R44*%
X83720000Y-63053500D03*
X83720000Y-61228500D03*
%TD*%
%TO.C,R30*%
X78005000Y-73848500D03*
X78005000Y-72023500D03*
%TD*%
%TO.C,R26*%
X88165000Y-73848500D03*
X88165000Y-72023500D03*
%TD*%
D19*
%TO.C,R5*%
X60733000Y-60863500D03*
X60733000Y-62688500D03*
%TD*%
D18*
%TO.C,R41*%
X91340000Y-63053500D03*
X91340000Y-61228500D03*
%TD*%
D20*
%TO.C,C6*%
X46255000Y-70417500D03*
X46255000Y-68342500D03*
%TD*%
D21*
%TO.C,Q5*%
X57153000Y-71245500D03*
D22*
X55653000Y-71158000D03*
D21*
X54153000Y-71245500D03*
%TD*%
D23*
%TO.C,C3*%
X63627500Y-83858000D03*
X61902500Y-83858000D03*
%TD*%
D18*
%TO.C,R35*%
X106580000Y-63053500D03*
X106580000Y-61228500D03*
%TD*%
%TO.C,R21*%
X102135000Y-73848500D03*
X102135000Y-72023500D03*
%TD*%
%TO.C,R36*%
X104040000Y-63053500D03*
X104040000Y-61228500D03*
%TD*%
D19*
%TO.C,R9*%
X55653000Y-60863500D03*
X55653000Y-62688500D03*
%TD*%
%TO.C,R15*%
X48033000Y-60863500D03*
X48033000Y-62688500D03*
%TD*%
D18*
%TO.C,R28*%
X83085000Y-73848500D03*
X83085000Y-72023500D03*
%TD*%
M02*
