%TF.GenerationSoftware,KiCad,Pcbnew,7.0.1-3b83917a11~172~ubuntu22.10.1*%
%TF.CreationDate,2023-10-02T08:25:49+02:00*%
%TF.ProjectId,hall_sensor_matrix_v2,68616c6c-5f73-4656-9e73-6f725f6d6174,revA*%
%TF.SameCoordinates,Original*%
%TF.FileFunction,Copper,L1,Top*%
%TF.FilePolarity,Positive*%
%FSLAX46Y46*%
G04 Gerber Fmt 4.6, Leading zero omitted, Abs format (unit mm)*
G04 Created by KiCad (PCBNEW 7.0.1-3b83917a11~172~ubuntu22.10.1) date 2023-10-02 08:25:49*
%MOMM*%
%LPD*%
G01*
G04 APERTURE LIST*
G04 Aperture macros list*
%AMRoundRect*
0 Rectangle with rounded corners*
0 $1 Rounding radius*
0 $2 $3 $4 $5 $6 $7 $8 $9 X,Y pos of 4 corners*
0 Add a 4 corners polygon primitive as box body*
4,1,4,$2,$3,$4,$5,$6,$7,$8,$9,$2,$3,0*
0 Add four circle primitives for the rounded corners*
1,1,$1+$1,$2,$3*
1,1,$1+$1,$4,$5*
1,1,$1+$1,$6,$7*
1,1,$1+$1,$8,$9*
0 Add four rect primitives between the rounded corners*
20,1,$1+$1,$2,$3,$4,$5,0*
20,1,$1+$1,$4,$5,$6,$7,0*
20,1,$1+$1,$6,$7,$8,$9,0*
20,1,$1+$1,$8,$9,$2,$3,0*%
%AMFreePoly0*
4,1,9,3.862500,-0.866500,0.737500,-0.866500,0.737500,-0.450000,-0.737500,-0.450000,-0.737500,0.450000,0.737500,0.450000,0.737500,0.866500,3.862500,0.866500,3.862500,-0.866500,3.862500,-0.866500,$1*%
G04 Aperture macros list end*
%ADD10C,0.240000*%
%TA.AperFunction,NonConductor*%
%ADD11C,0.240000*%
%TD*%
%TA.AperFunction,NonConductor*%
%ADD12C,0.200000*%
%TD*%
%TA.AperFunction,SMDPad,CuDef*%
%ADD13RoundRect,0.237500X-0.237500X0.287500X-0.237500X-0.287500X0.237500X-0.287500X0.237500X0.287500X0*%
%TD*%
%TA.AperFunction,SMDPad,CuDef*%
%ADD14RoundRect,0.237500X0.237500X-0.287500X0.237500X0.287500X-0.237500X0.287500X-0.237500X-0.287500X0*%
%TD*%
%TA.AperFunction,ComponentPad*%
%ADD15R,1.600000X2.400000*%
%TD*%
%TA.AperFunction,ComponentPad*%
%ADD16O,1.600000X2.400000*%
%TD*%
%TA.AperFunction,SMDPad,CuDef*%
%ADD17RoundRect,0.250000X0.262500X0.450000X-0.262500X0.450000X-0.262500X-0.450000X0.262500X-0.450000X0*%
%TD*%
%TA.AperFunction,SMDPad,CuDef*%
%ADD18R,0.900000X1.300000*%
%TD*%
%TA.AperFunction,SMDPad,CuDef*%
%ADD19FreePoly0,90.000000*%
%TD*%
%TA.AperFunction,SMDPad,CuDef*%
%ADD20RoundRect,0.250000X0.450000X-0.262500X0.450000X0.262500X-0.450000X0.262500X-0.450000X-0.262500X0*%
%TD*%
%TA.AperFunction,ComponentPad*%
%ADD21R,1.700000X1.700000*%
%TD*%
%TA.AperFunction,ComponentPad*%
%ADD22O,1.700000X1.700000*%
%TD*%
%TA.AperFunction,ViaPad*%
%ADD23C,0.800000*%
%TD*%
%TA.AperFunction,Conductor*%
%ADD24C,0.500000*%
%TD*%
%TA.AperFunction,Conductor*%
%ADD25C,1.000000*%
%TD*%
%TA.AperFunction,Conductor*%
%ADD26C,1.500000*%
%TD*%
%TA.AperFunction,Conductor*%
%ADD27C,0.800000*%
%TD*%
G04 APERTURE END LIST*
D10*
D11*
X103414285Y-83653142D02*
X102728571Y-83653142D01*
X103071428Y-83653142D02*
X103071428Y-82453142D01*
X103071428Y-82453142D02*
X102957142Y-82624571D01*
X102957142Y-82624571D02*
X102842857Y-82738857D01*
X102842857Y-82738857D02*
X102728571Y-82796000D01*
D12*
X102000000Y-82000000D02*
X104000000Y-82000000D01*
X104000000Y-84000000D01*
X102000000Y-84000000D01*
X102000000Y-82000000D01*
D13*
%TO.P,D4,1,K*%
%TO.N,Net-(D4-K)*%
X58193000Y-60800500D03*
%TO.P,D4,2,A*%
%TO.N,/C3*%
X58193000Y-62550500D03*
%TD*%
D14*
%TO.P,D19,1,K*%
%TO.N,/R10*%
X86260000Y-62381000D03*
%TO.P,D19,2,A*%
%TO.N,Net-(D19-A)*%
X86260000Y-60631000D03*
%TD*%
D13*
%TO.P,D2,1,K*%
%TO.N,Net-(D2-K)*%
X63273000Y-60800500D03*
%TO.P,D2,2,A*%
%TO.N,/C1*%
X63273000Y-62550500D03*
%TD*%
%TO.P,D8,1,K*%
%TO.N,Net-(D8-K)*%
X48033000Y-60800500D03*
%TO.P,D8,2,A*%
%TO.N,/C7*%
X48033000Y-62550500D03*
%TD*%
D15*
%TO.P,U1,1,QB*%
%TO.N,/d_C1*%
X65305000Y-78947500D03*
D16*
%TO.P,U1,2,QC*%
%TO.N,/d_C2*%
X62765000Y-78947500D03*
%TO.P,U1,3,QD*%
%TO.N,/d_C3*%
X60225000Y-78947500D03*
%TO.P,U1,4,QE*%
%TO.N,/d_C4*%
X57685000Y-78947500D03*
%TO.P,U1,5,QF*%
%TO.N,/d_C5*%
X55145000Y-78947500D03*
%TO.P,U1,6,QG*%
%TO.N,/d_C6*%
X52605000Y-78947500D03*
%TO.P,U1,7,QH*%
%TO.N,/d_C7*%
X50065000Y-78947500D03*
%TO.P,U1,8,GND*%
%TO.N,GND*%
X47525000Y-78947500D03*
%TO.P,U1,9,QHser*%
%TO.N,/Din_o*%
X47525000Y-86567500D03*
%TO.P,U1,10,~{SCLR}*%
%TO.N,+5V*%
X50065000Y-86567500D03*
%TO.P,U1,11,SCLK*%
%TO.N,/CLK*%
X52605000Y-86567500D03*
%TO.P,U1,12,RCLK*%
%TO.N,/Latch*%
X55145000Y-86567500D03*
%TO.P,U1,13,~{G}*%
%TO.N,GND*%
X57685000Y-86567500D03*
%TO.P,U1,14,SER*%
%TO.N,/Din*%
X60225000Y-86567500D03*
%TO.P,U1,15,QA*%
%TO.N,/d_C0*%
X62765000Y-86567500D03*
%TO.P,U1,16,VCC*%
%TO.N,+5V*%
X65305000Y-86567500D03*
%TD*%
D13*
%TO.P,D7,1,K*%
%TO.N,Net-(D7-K)*%
X50573000Y-60800500D03*
%TO.P,D7,2,A*%
%TO.N,/C6*%
X50573000Y-62550500D03*
%TD*%
D14*
%TO.P,D15,1,K*%
%TO.N,/R6*%
X96420000Y-62381000D03*
%TO.P,D15,2,A*%
%TO.N,Net-(D15-A)*%
X96420000Y-60631000D03*
%TD*%
D17*
%TO.P,R10,1*%
%TO.N,/d_C4*%
X57835500Y-76280500D03*
%TO.P,R10,2*%
%TO.N,Net-(Q5-G)*%
X56010500Y-76280500D03*
%TD*%
D14*
%TO.P,D23,1,K*%
%TO.N,/R14*%
X76100000Y-62381000D03*
%TO.P,D23,2,A*%
%TO.N,Net-(D23-A)*%
X76100000Y-60631000D03*
%TD*%
%TO.P,D22,1,K*%
%TO.N,/R13*%
X78640000Y-62381000D03*
%TO.P,D22,2,A*%
%TO.N,Net-(D22-A)*%
X78640000Y-60631000D03*
%TD*%
%TO.P,D20,1,K*%
%TO.N,/R11*%
X83720000Y-62381000D03*
%TO.P,D20,2,A*%
%TO.N,Net-(D20-A)*%
X83720000Y-60631000D03*
%TD*%
%TO.P,D14,1,K*%
%TO.N,/R5*%
X98960000Y-62381000D03*
%TO.P,D14,2,A*%
%TO.N,Net-(D14-A)*%
X98960000Y-60631000D03*
%TD*%
D18*
%TO.P,Q6,1,G*%
%TO.N,Net-(Q6-G)*%
X51613000Y-72515500D03*
D19*
%TO.P,Q6,2,D*%
%TO.N,/C5*%
X53113000Y-72428000D03*
D18*
%TO.P,Q6,3,S*%
%TO.N,+5V*%
X54613000Y-72515500D03*
%TD*%
%TO.P,Q8,1,G*%
%TO.N,Net-(Q8-G)*%
X46533000Y-72515500D03*
D19*
%TO.P,Q8,2,D*%
%TO.N,/C7*%
X48033000Y-72428000D03*
D18*
%TO.P,Q8,3,S*%
%TO.N,+5V*%
X49533000Y-72515500D03*
%TD*%
D14*
%TO.P,D11,1,K*%
%TO.N,/R2*%
X106580000Y-62381000D03*
%TO.P,D11,2,A*%
%TO.N,Net-(D11-A)*%
X106580000Y-60631000D03*
%TD*%
D17*
%TO.P,R4,1*%
%TO.N,/d_C1*%
X64185500Y-74375500D03*
%TO.P,R4,2*%
%TO.N,Net-(Q2-G)*%
X62360500Y-74375500D03*
%TD*%
D14*
%TO.P,D21,1,K*%
%TO.N,/R12*%
X81180000Y-62381000D03*
%TO.P,D21,2,A*%
%TO.N,Net-(D21-A)*%
X81180000Y-60631000D03*
%TD*%
D20*
%TO.P,R2,1*%
%TO.N,/d_C0*%
X66829000Y-76388500D03*
%TO.P,R2,2*%
%TO.N,Net-(Q1-G)*%
X66829000Y-74563500D03*
%TD*%
D21*
%TO.P,J3,1,Pin_1*%
%TO.N,/R0*%
X111660000Y-65316000D03*
D22*
%TO.P,J3,2,Pin_2*%
%TO.N,/R1*%
X109120000Y-65316000D03*
%TO.P,J3,3,Pin_3*%
%TO.N,/R2*%
X106580000Y-65316000D03*
%TO.P,J3,4,Pin_4*%
%TO.N,/R3*%
X104040000Y-65316000D03*
%TO.P,J3,5,Pin_5*%
%TO.N,/R4*%
X101500000Y-65316000D03*
%TO.P,J3,6,Pin_6*%
%TO.N,/R5*%
X98960000Y-65316000D03*
%TO.P,J3,7,Pin_7*%
%TO.N,/R6*%
X96420000Y-65316000D03*
%TO.P,J3,8,Pin_8*%
%TO.N,/R7*%
X93880000Y-65316000D03*
%TO.P,J3,9,Pin_9*%
%TO.N,/R8*%
X91340000Y-65316000D03*
%TO.P,J3,10,Pin_10*%
%TO.N,/R9*%
X88800000Y-65316000D03*
%TO.P,J3,11,Pin_11*%
%TO.N,/R10*%
X86260000Y-65316000D03*
%TO.P,J3,12,Pin_12*%
%TO.N,/R11*%
X83720000Y-65316000D03*
%TO.P,J3,13,Pin_13*%
%TO.N,/R12*%
X81180000Y-65316000D03*
%TO.P,J3,14,Pin_14*%
%TO.N,/R13*%
X78640000Y-65316000D03*
%TO.P,J3,15,Pin_15*%
%TO.N,/R14*%
X76100000Y-65316000D03*
%TO.P,J3,16,Pin_16*%
%TO.N,/R15*%
X73560000Y-65316000D03*
%TD*%
D13*
%TO.P,D1,1,K*%
%TO.N,Net-(D1-K)*%
X65813000Y-60800500D03*
%TO.P,D1,2,A*%
%TO.N,/C0*%
X65813000Y-62550500D03*
%TD*%
D15*
%TO.P,U3,1,B*%
%TO.N,/R9*%
X88150000Y-69380000D03*
D16*
%TO.P,U3,2,C*%
%TO.N,/R10*%
X85610000Y-69380000D03*
%TO.P,U3,3,D*%
%TO.N,/R11*%
X83070000Y-69380000D03*
%TO.P,U3,4,E*%
%TO.N,/R12*%
X80530000Y-69380000D03*
%TO.P,U3,5,F*%
%TO.N,/R13*%
X77990000Y-69380000D03*
%TO.P,U3,6,G*%
%TO.N,/R14*%
X75450000Y-69380000D03*
%TO.P,U3,7,H*%
%TO.N,/R15*%
X72910000Y-69380000D03*
%TO.P,U3,8,GND*%
%TO.N,GND*%
X70370000Y-69380000D03*
%TO.P,U3,9,QH*%
%TO.N,/Dout*%
X70370000Y-77000000D03*
%TO.P,U3,10,~{R}*%
%TO.N,+5V*%
X72910000Y-77000000D03*
%TO.P,U3,11,SCK*%
%TO.N,/CLK*%
X75450000Y-77000000D03*
%TO.P,U3,12,CLK*%
X77990000Y-77000000D03*
%TO.P,U3,13,~{SLoad}*%
%TO.N,/Latch*%
X80530000Y-77000000D03*
%TO.P,U3,14,SER*%
%TO.N,/Dout_1*%
X83070000Y-77000000D03*
%TO.P,U3,15,A*%
%TO.N,/R8*%
X85610000Y-77000000D03*
%TO.P,U3,16,VCC*%
%TO.N,+5V*%
X88150000Y-77000000D03*
%TD*%
D17*
%TO.P,R6,1*%
%TO.N,/d_C2*%
X62915500Y-76280500D03*
%TO.P,R6,2*%
%TO.N,Net-(Q3-G)*%
X61090500Y-76280500D03*
%TD*%
D13*
%TO.P,D6,1,K*%
%TO.N,Net-(D6-K)*%
X53113000Y-60800500D03*
%TO.P,D6,2,A*%
%TO.N,/C5*%
X53113000Y-62550500D03*
%TD*%
D18*
%TO.P,Q2,1,G*%
%TO.N,Net-(Q2-G)*%
X61773000Y-72515500D03*
D19*
%TO.P,Q2,2,D*%
%TO.N,/C1*%
X63273000Y-72428000D03*
D18*
%TO.P,Q2,3,S*%
%TO.N,+5V*%
X64773000Y-72515500D03*
%TD*%
D15*
%TO.P,U2,1,B*%
%TO.N,/R1*%
X109740000Y-69380000D03*
D16*
%TO.P,U2,2,C*%
%TO.N,/R2*%
X107200000Y-69380000D03*
%TO.P,U2,3,D*%
%TO.N,/R3*%
X104660000Y-69380000D03*
%TO.P,U2,4,E*%
%TO.N,/R4*%
X102120000Y-69380000D03*
%TO.P,U2,5,F*%
%TO.N,/R5*%
X99580000Y-69380000D03*
%TO.P,U2,6,G*%
%TO.N,/R6*%
X97040000Y-69380000D03*
%TO.P,U2,7,H*%
%TO.N,/R7*%
X94500000Y-69380000D03*
%TO.P,U2,8,GND*%
%TO.N,GND*%
X91960000Y-69380000D03*
%TO.P,U2,9,QH*%
%TO.N,/Dout_1*%
X91960000Y-77000000D03*
%TO.P,U2,10,~{R}*%
%TO.N,+5V*%
X94500000Y-77000000D03*
%TO.P,U2,11,SCK*%
%TO.N,/CLK*%
X97040000Y-77000000D03*
%TO.P,U2,12,CLK*%
X99580000Y-77000000D03*
%TO.P,U2,13,~{SLoad}*%
%TO.N,/Latch*%
X102120000Y-77000000D03*
%TO.P,U2,14,SER*%
%TO.N,GND*%
X104660000Y-77000000D03*
%TO.P,U2,15,A*%
%TO.N,/R0*%
X107200000Y-77000000D03*
%TO.P,U2,16,VCC*%
%TO.N,+5V*%
X109740000Y-77000000D03*
%TD*%
D17*
%TO.P,R8,1*%
%TO.N,/d_C3*%
X59105500Y-74375500D03*
%TO.P,R8,2*%
%TO.N,Net-(Q4-G)*%
X57280500Y-74375500D03*
%TD*%
D14*
%TO.P,D16,1,K*%
%TO.N,/R7*%
X93880000Y-62381000D03*
%TO.P,D16,2,A*%
%TO.N,Net-(D16-A)*%
X93880000Y-60631000D03*
%TD*%
%TO.P,D18,1,K*%
%TO.N,/R9*%
X88800000Y-62381000D03*
%TO.P,D18,2,A*%
%TO.N,Net-(D18-A)*%
X88800000Y-60631000D03*
%TD*%
D21*
%TO.P,J1,1,Pin_1*%
%TO.N,GND*%
X42191000Y-72936000D03*
D22*
%TO.P,J1,2,Pin_2*%
%TO.N,+5V*%
X42191000Y-75476000D03*
%TO.P,J1,3,Pin_3*%
%TO.N,/Din*%
X42191000Y-78016000D03*
%TO.P,J1,4,Pin_4*%
%TO.N,/Latch*%
X42191000Y-80556000D03*
%TO.P,J1,5,Pin_5*%
%TO.N,/CLK*%
X42191000Y-83096000D03*
%TO.P,J1,6,Pin_6*%
%TO.N,/Dout*%
X42191000Y-85636000D03*
%TD*%
D14*
%TO.P,D24,1,K*%
%TO.N,/R15*%
X73525000Y-62381000D03*
%TO.P,D24,2,A*%
%TO.N,Net-(D24-A)*%
X73525000Y-60631000D03*
%TD*%
D13*
%TO.P,D3,1,K*%
%TO.N,Net-(D3-K)*%
X60733000Y-60800500D03*
%TO.P,D3,2,A*%
%TO.N,/C2*%
X60733000Y-62550500D03*
%TD*%
D14*
%TO.P,D13,1,K*%
%TO.N,/R4*%
X101550000Y-62381000D03*
%TO.P,D13,2,A*%
%TO.N,Net-(D13-A)*%
X101550000Y-60631000D03*
%TD*%
D17*
%TO.P,R12,1*%
%TO.N,/d_C5*%
X54025500Y-74375500D03*
%TO.P,R12,2*%
%TO.N,Net-(Q6-G)*%
X52200500Y-74375500D03*
%TD*%
D13*
%TO.P,D5,1,K*%
%TO.N,Net-(D5-K)*%
X55653000Y-60800500D03*
%TO.P,D5,2,A*%
%TO.N,/C4*%
X55653000Y-62550500D03*
%TD*%
D21*
%TO.P,J2,1,Pin_1*%
%TO.N,GND*%
X68353000Y-65485500D03*
D22*
%TO.P,J2,2,Pin_2*%
%TO.N,/C0*%
X65813000Y-65485500D03*
%TO.P,J2,3,Pin_3*%
%TO.N,/C1*%
X63273000Y-65485500D03*
%TO.P,J2,4,Pin_4*%
%TO.N,/C2*%
X60733000Y-65485500D03*
%TO.P,J2,5,Pin_5*%
%TO.N,/C3*%
X58193000Y-65485500D03*
%TO.P,J2,6,Pin_6*%
%TO.N,/C4*%
X55653000Y-65485500D03*
%TO.P,J2,7,Pin_7*%
%TO.N,/C5*%
X53113000Y-65485500D03*
%TO.P,J2,8,Pin_8*%
%TO.N,/C6*%
X50573000Y-65485500D03*
%TO.P,J2,9,Pin_9*%
%TO.N,/C7*%
X48033000Y-65485500D03*
%TO.P,J2,10,Pin_10*%
%TO.N,GND*%
X45493000Y-65485500D03*
%TD*%
D14*
%TO.P,D9,1,K*%
%TO.N,/R0*%
X111660000Y-62381000D03*
%TO.P,D9,2,A*%
%TO.N,Net-(D9-A)*%
X111660000Y-60631000D03*
%TD*%
D17*
%TO.P,R16,1*%
%TO.N,/d_C7*%
X48945500Y-74375500D03*
%TO.P,R16,2*%
%TO.N,Net-(Q8-G)*%
X47120500Y-74375500D03*
%TD*%
D14*
%TO.P,D10,1,K*%
%TO.N,/R1*%
X109120000Y-62381000D03*
%TO.P,D10,2,A*%
%TO.N,Net-(D10-A)*%
X109120000Y-60631000D03*
%TD*%
%TO.P,D17,1,K*%
%TO.N,/R8*%
X91340000Y-62381000D03*
%TO.P,D17,2,A*%
%TO.N,Net-(D17-A)*%
X91340000Y-60631000D03*
%TD*%
%TO.P,D12,1,K*%
%TO.N,/R3*%
X104040000Y-62381000D03*
%TO.P,D12,2,A*%
%TO.N,Net-(D12-A)*%
X104040000Y-60631000D03*
%TD*%
D18*
%TO.P,Q4,1,G*%
%TO.N,Net-(Q4-G)*%
X56693000Y-72515500D03*
D19*
%TO.P,Q4,2,D*%
%TO.N,/C3*%
X58193000Y-72428000D03*
D18*
%TO.P,Q4,3,S*%
%TO.N,+5V*%
X59693000Y-72515500D03*
%TD*%
D17*
%TO.P,R14,1*%
%TO.N,/d_C6*%
X52755500Y-76280500D03*
%TO.P,R14,2*%
%TO.N,Net-(Q7-G)*%
X50930500Y-76280500D03*
%TD*%
D23*
%TO.N,+5V*%
X59717000Y-72597500D03*
X64797000Y-72597500D03*
X54637000Y-72597500D03*
X49557000Y-72597500D03*
X68480000Y-75476000D03*
%TO.N,Net-(D1-K)*%
X65813000Y-60490000D03*
%TO.N,Net-(D2-K)*%
X63273000Y-60490000D03*
%TO.N,Net-(D3-K)*%
X60733000Y-60490000D03*
%TO.N,Net-(D4-K)*%
X58193000Y-60490000D03*
%TO.N,Net-(D5-K)*%
X55653000Y-60490000D03*
%TO.N,Net-(D6-K)*%
X53113000Y-60490000D03*
%TO.N,Net-(D7-K)*%
X50573000Y-60490000D03*
%TO.N,Net-(D8-K)*%
X48033000Y-60490000D03*
%TO.N,/Latch*%
X78640000Y-80556000D03*
X55145000Y-82461000D03*
%TO.N,/CLK*%
X52605000Y-82461000D03*
%TO.N,/R8*%
X90705000Y-71666000D03*
%TO.N,Net-(Q1-G)*%
X67337000Y-72343500D03*
%TO.N,Net-(Q3-G)*%
X60733000Y-74629500D03*
%TO.N,Net-(Q5-G)*%
X55653000Y-74629500D03*
%TO.N,Net-(Q7-G)*%
X50573000Y-74629500D03*
%TO.N,Net-(D9-A)*%
X111660000Y-60236000D03*
%TO.N,Net-(D10-A)*%
X109120000Y-60236000D03*
%TO.N,Net-(D11-A)*%
X106580000Y-60236000D03*
%TO.N,Net-(D12-A)*%
X104040000Y-60236000D03*
%TO.N,Net-(D13-A)*%
X101500000Y-60236000D03*
%TO.N,Net-(D14-A)*%
X98960000Y-60236000D03*
%TO.N,Net-(D15-A)*%
X96420000Y-60236000D03*
%TO.N,Net-(D16-A)*%
X93880000Y-60236000D03*
%TO.N,Net-(D17-A)*%
X91340000Y-60236000D03*
%TO.N,Net-(D18-A)*%
X88800000Y-60236000D03*
%TO.N,Net-(D19-A)*%
X86260000Y-60236000D03*
%TO.N,Net-(D20-A)*%
X83720000Y-60236000D03*
%TO.N,Net-(D21-A)*%
X81180000Y-60236000D03*
%TO.N,Net-(D22-A)*%
X78640000Y-60236000D03*
%TO.N,Net-(D23-A)*%
X76100000Y-60236000D03*
%TO.N,Net-(D24-A)*%
X73560000Y-60236000D03*
%TD*%
D24*
%TO.N,+5V*%
X68480000Y-75476000D02*
X68480000Y-83392500D01*
X68480000Y-83392500D02*
X65305000Y-86567500D01*
D25*
%TO.N,GND*%
X91960000Y-69746000D02*
X95785000Y-73571000D01*
X91086000Y-69380000D02*
X91086000Y-69629000D01*
X88414000Y-72301000D02*
X72290000Y-72301000D01*
X91960000Y-69380000D02*
X91960000Y-69746000D01*
D26*
X44985000Y-65993500D02*
X45493000Y-65485500D01*
X47525000Y-78947500D02*
X46551500Y-78947500D01*
X44985000Y-77381000D02*
X44985000Y-72936000D01*
D25*
X104660000Y-75461000D02*
X104660000Y-77000000D01*
X70370000Y-70381000D02*
X70370000Y-69380000D01*
X102770000Y-73571000D02*
X104660000Y-75461000D01*
D26*
X46551500Y-78947500D02*
X44985000Y-77381000D01*
D25*
X95785000Y-73571000D02*
X102770000Y-73571000D01*
X72290000Y-72301000D02*
X70370000Y-70381000D01*
X91960000Y-69380000D02*
X91086000Y-69380000D01*
D26*
X44985000Y-72936000D02*
X44985000Y-65993500D01*
X42191000Y-72936000D02*
X44985000Y-72936000D01*
D25*
X91086000Y-69629000D02*
X88414000Y-72301000D01*
D26*
%TO.N,/C0*%
X65818000Y-62705500D02*
X65813000Y-62700500D01*
X65818000Y-65485500D02*
X65818000Y-62705500D01*
D25*
%TO.N,/C1*%
X63273000Y-65480500D02*
X63278000Y-65485500D01*
D26*
X63278000Y-65485500D02*
X63278000Y-68528500D01*
D25*
X63273000Y-62700500D02*
X63273000Y-65480500D01*
D26*
%TO.N,/C2*%
X60738000Y-65485500D02*
X60738000Y-62705500D01*
X60738000Y-62705500D02*
X60733000Y-62700500D01*
D25*
%TO.N,/C3*%
X58193000Y-62700500D02*
X58193000Y-65480500D01*
X58193000Y-65480500D02*
X58198000Y-65485500D01*
D26*
X58198000Y-65485500D02*
X58198000Y-68528500D01*
%TO.N,/C4*%
X55658000Y-65485500D02*
X55658000Y-62705500D01*
X55658000Y-62705500D02*
X55653000Y-62700500D01*
%TO.N,/C5*%
X53118000Y-65485500D02*
X53118000Y-68528500D01*
D25*
X53113000Y-65480500D02*
X53118000Y-65485500D01*
X53113000Y-62700500D02*
X53113000Y-65480500D01*
D26*
%TO.N,/C6*%
X50578000Y-65485500D02*
X50578000Y-62705500D01*
X50578000Y-62705500D02*
X50573000Y-62700500D01*
D25*
%TO.N,/C7*%
X48033000Y-65480500D02*
X48038000Y-65485500D01*
X48033000Y-62700500D02*
X48033000Y-65480500D01*
D26*
X48038000Y-65485500D02*
X48038000Y-68528500D01*
D24*
%TO.N,/Dout*%
X70370000Y-77000000D02*
X70370000Y-85651000D01*
X70370000Y-85651000D02*
X67210000Y-88811000D01*
X42191000Y-85636000D02*
X45366000Y-88811000D01*
X45366000Y-88811000D02*
X67210000Y-88811000D01*
%TO.N,/Latch*%
X100865000Y-79286000D02*
X81815000Y-79286000D01*
X80530000Y-78666000D02*
X78640000Y-80556000D01*
X102120000Y-77000000D02*
X102120000Y-78031000D01*
X53875000Y-81191000D02*
X55145000Y-82461000D01*
X102120000Y-78031000D02*
X100865000Y-79286000D01*
X80530000Y-77000000D02*
X80530000Y-78666000D01*
X42826000Y-81191000D02*
X53875000Y-81191000D01*
X80530000Y-78001000D02*
X80530000Y-77000000D01*
X42191000Y-80556000D02*
X42826000Y-81191000D01*
X81815000Y-79286000D02*
X80530000Y-78001000D01*
X55145000Y-82461000D02*
X55145000Y-86567500D01*
%TO.N,/CLK*%
X51970000Y-83096000D02*
X52605000Y-82461000D01*
X42191000Y-83096000D02*
X51970000Y-83096000D01*
X52605000Y-82461000D02*
X52605000Y-86567500D01*
D25*
%TO.N,/R0*%
X112295000Y-70396000D02*
X112295000Y-65951000D01*
X107200000Y-75491000D02*
X112295000Y-70396000D01*
X111660000Y-65316000D02*
X111660000Y-62381000D01*
X107200000Y-77000000D02*
X107200000Y-75491000D01*
X112295000Y-65951000D02*
X111660000Y-65316000D01*
%TO.N,/R1*%
X109120000Y-62381000D02*
X109120000Y-65316000D01*
%TO.N,/R2*%
X106580000Y-62381000D02*
X106580000Y-64681000D01*
%TO.N,/R3*%
X104040000Y-65316000D02*
X104040000Y-62381000D01*
%TO.N,/R4*%
X101550000Y-65266000D02*
X101500000Y-65316000D01*
X101550000Y-62381000D02*
X101550000Y-65266000D01*
%TO.N,/R5*%
X98960000Y-62381000D02*
X98960000Y-65316000D01*
%TO.N,/R6*%
X96420000Y-65316000D02*
X96420000Y-62381000D01*
%TO.N,/R7*%
X93880000Y-62381000D02*
X93880000Y-65316000D01*
D27*
%TO.N,/R8*%
X85610000Y-76761000D02*
X90705000Y-71666000D01*
D25*
X91340000Y-65316000D02*
X91340000Y-62381000D01*
D27*
X85610000Y-77000000D02*
X85610000Y-76761000D01*
D25*
%TO.N,/R9*%
X88800000Y-62381000D02*
X88800000Y-65316000D01*
%TO.N,/R10*%
X86260000Y-65316000D02*
X86260000Y-62381000D01*
%TO.N,/R11*%
X83720000Y-62381000D02*
X83720000Y-65316000D01*
%TO.N,/R12*%
X81180000Y-62381000D02*
X81180000Y-65316000D01*
%TO.N,/R13*%
X78640000Y-62381000D02*
X78640000Y-65316000D01*
%TO.N,/R14*%
X76100000Y-62381000D02*
X76100000Y-65316000D01*
%TO.N,/R15*%
X73525000Y-65281000D02*
X73560000Y-65316000D01*
X73525000Y-62381000D02*
X73525000Y-65281000D01*
D27*
%TO.N,/d_C0*%
X62765000Y-85128000D02*
X67083000Y-80810000D01*
X62765000Y-86567500D02*
X62765000Y-85128000D01*
X67083000Y-76730000D02*
X66829000Y-76476000D01*
X67083000Y-80810000D02*
X67083000Y-76730000D01*
%TO.N,Net-(Q1-G)*%
X66829000Y-72851500D02*
X67337000Y-72343500D01*
X66829000Y-74476000D02*
X66829000Y-72851500D01*
%TO.N,/d_C1*%
X64273000Y-77915500D02*
X65305000Y-78947500D01*
X64273000Y-74375500D02*
X64273000Y-77915500D01*
%TO.N,Net-(Q2-G)*%
X61773000Y-73875500D02*
X62273000Y-74375500D01*
X61773000Y-72515500D02*
X61773000Y-73875500D01*
%TO.N,/d_C2*%
X63003000Y-76280500D02*
X63003000Y-78709500D01*
X63003000Y-78709500D02*
X62765000Y-78947500D01*
%TO.N,Net-(Q3-G)*%
X60733000Y-74629500D02*
X60733000Y-76010500D01*
X60733000Y-76010500D02*
X61003000Y-76280500D01*
%TO.N,/d_C3*%
X59193000Y-77915500D02*
X60225000Y-78947500D01*
X59193000Y-74375500D02*
X59193000Y-77915500D01*
%TO.N,Net-(Q4-G)*%
X56693000Y-72515500D02*
X56693000Y-73875500D01*
X56693000Y-73875500D02*
X57193000Y-74375500D01*
%TO.N,/d_C4*%
X57923000Y-76280500D02*
X57923000Y-78709500D01*
X57923000Y-78709500D02*
X57685000Y-78947500D01*
%TO.N,Net-(Q5-G)*%
X55653000Y-74629500D02*
X55653000Y-76010500D01*
X55653000Y-76010500D02*
X55923000Y-76280500D01*
%TO.N,/d_C5*%
X54113000Y-77915500D02*
X55145000Y-78947500D01*
X54113000Y-74375500D02*
X54113000Y-77915500D01*
%TO.N,Net-(Q6-G)*%
X51613000Y-73875500D02*
X52113000Y-74375500D01*
X51613000Y-72515500D02*
X51613000Y-73875500D01*
%TO.N,/d_C6*%
X52843000Y-76280500D02*
X52843000Y-78709500D01*
X52843000Y-78709500D02*
X52605000Y-78947500D01*
%TO.N,Net-(Q7-G)*%
X50843000Y-76169500D02*
X50573000Y-75899500D01*
X50573000Y-75899500D02*
X50573000Y-74629500D01*
X50843000Y-76280500D02*
X50843000Y-76169500D01*
%TO.N,/d_C7*%
X49033000Y-74375500D02*
X49033000Y-77915500D01*
X49033000Y-77915500D02*
X50065000Y-78947500D01*
%TO.N,Net-(Q8-G)*%
X46533000Y-73875500D02*
X47033000Y-74375500D01*
X46533000Y-72515500D02*
X46533000Y-73875500D01*
D25*
%TO.N,Net-(D9-A)*%
X111660000Y-60631000D02*
X111660000Y-60236000D01*
%TO.N,Net-(D10-A)*%
X109120000Y-60631000D02*
X109120000Y-60236000D01*
%TO.N,Net-(D12-A)*%
X104040000Y-60631000D02*
X104040000Y-60236000D01*
%TO.N,Net-(D13-A)*%
X101550000Y-60631000D02*
X101550000Y-60286000D01*
X101550000Y-60286000D02*
X101500000Y-60236000D01*
%TO.N,Net-(D14-A)*%
X98960000Y-60631000D02*
X98960000Y-60236000D01*
%TO.N,Net-(D15-A)*%
X96420000Y-60631000D02*
X96420000Y-60236000D01*
%TO.N,Net-(D16-A)*%
X93880000Y-60631000D02*
X93880000Y-60236000D01*
%TO.N,Net-(D17-A)*%
X91340000Y-60631000D02*
X91340000Y-60236000D01*
%TO.N,Net-(D18-A)*%
X88800000Y-60631000D02*
X88800000Y-60236000D01*
%TO.N,Net-(D20-A)*%
X83720000Y-60631000D02*
X83720000Y-60236000D01*
%TO.N,Net-(D21-A)*%
X81180000Y-60631000D02*
X81180000Y-60236000D01*
%TO.N,Net-(D22-A)*%
X78640000Y-60631000D02*
X78640000Y-60236000D01*
%TO.N,Net-(D23-A)*%
X76100000Y-60631000D02*
X76100000Y-60236000D01*
%TO.N,Net-(D24-A)*%
X73525000Y-60631000D02*
X73525000Y-60271000D01*
X73525000Y-60271000D02*
X73560000Y-60236000D01*
%TD*%
%TA.AperFunction,Conductor*%
%TO.N,GND*%
G36*
X47541012Y-59515838D02*
G01*
X47585972Y-59558057D01*
X47605030Y-59616714D01*
X47593474Y-59677297D01*
X47554160Y-59724818D01*
X47427129Y-59817110D01*
X47300463Y-59957788D01*
X47299664Y-59959173D01*
X47279967Y-59984841D01*
X47212660Y-60052149D01*
X47122091Y-60198985D01*
X47067825Y-60362746D01*
X47057500Y-60463823D01*
X47057500Y-61137176D01*
X47067825Y-61238252D01*
X47122091Y-61402015D01*
X47212661Y-61548852D01*
X47251628Y-61587819D01*
X47283722Y-61643406D01*
X47283722Y-61707594D01*
X47251628Y-61763181D01*
X47212661Y-61802147D01*
X47122091Y-61948984D01*
X47067825Y-62112746D01*
X47057500Y-62213823D01*
X47057500Y-62464494D01*
X47054962Y-62489454D01*
X47032500Y-62598759D01*
X47032500Y-64524742D01*
X47023061Y-64572195D01*
X46996181Y-64612423D01*
X46994508Y-64614095D01*
X46994507Y-64614097D01*
X46994505Y-64614099D01*
X46971782Y-64646551D01*
X46864269Y-64800096D01*
X46819951Y-64838961D01*
X46762694Y-64852972D01*
X46705437Y-64838961D01*
X46661119Y-64800095D01*
X46531109Y-64614421D01*
X46364081Y-64447393D01*
X46170576Y-64311899D01*
X45956492Y-64212069D01*
X45743000Y-64154864D01*
X45743000Y-66816135D01*
X45956492Y-66758930D01*
X46170576Y-66659100D01*
X46364081Y-66523606D01*
X46531110Y-66356577D01*
X46561926Y-66312569D01*
X46609143Y-66272242D01*
X46669990Y-66259863D01*
X46729210Y-66278535D01*
X46771953Y-66323577D01*
X46787500Y-66383693D01*
X46787500Y-68193821D01*
X46780919Y-68233680D01*
X46761875Y-68269308D01*
X46728596Y-68312677D01*
X46678083Y-68434627D01*
X46660853Y-68565499D01*
X46660853Y-71241000D01*
X46644240Y-71303000D01*
X46598853Y-71348387D01*
X46536853Y-71365000D01*
X46035130Y-71365000D01*
X45975515Y-71371409D01*
X45840669Y-71421704D01*
X45725454Y-71507954D01*
X45639204Y-71623168D01*
X45588909Y-71758016D01*
X45582500Y-71817630D01*
X45582500Y-73213369D01*
X45588909Y-73272983D01*
X45624682Y-73368896D01*
X45632500Y-73412229D01*
X45632500Y-73794874D01*
X45630973Y-73814273D01*
X45628781Y-73828111D01*
X45632330Y-73895837D01*
X45632500Y-73902326D01*
X45632500Y-73922698D01*
X45634627Y-73942945D01*
X45635136Y-73949409D01*
X45638686Y-74017145D01*
X45642315Y-74030687D01*
X45645860Y-74049815D01*
X45647325Y-74063754D01*
X45668282Y-74128254D01*
X45670125Y-74134476D01*
X45687679Y-74199987D01*
X45694042Y-74212474D01*
X45701489Y-74230453D01*
X45705820Y-74243783D01*
X45739725Y-74302508D01*
X45742823Y-74308213D01*
X45773615Y-74368646D01*
X45773617Y-74368649D01*
X45782439Y-74379543D01*
X45793458Y-74395576D01*
X45800466Y-74407715D01*
X45845855Y-74458126D01*
X45850066Y-74463056D01*
X45862883Y-74478882D01*
X45877274Y-74493273D01*
X45881743Y-74497982D01*
X45927129Y-74548388D01*
X45938466Y-74556624D01*
X45953262Y-74569261D01*
X46071182Y-74687182D01*
X46098061Y-74727410D01*
X46107500Y-74774862D01*
X46107500Y-74875508D01*
X46118000Y-74978296D01*
X46173186Y-75144834D01*
X46265288Y-75294157D01*
X46389342Y-75418211D01*
X46431001Y-75443906D01*
X46538666Y-75510314D01*
X46648324Y-75546651D01*
X46705202Y-75565499D01*
X46714729Y-75566472D01*
X46807991Y-75576000D01*
X47433008Y-75575999D01*
X47535797Y-75565499D01*
X47702334Y-75510314D01*
X47851656Y-75418212D01*
X47920820Y-75349047D01*
X47970181Y-75318799D01*
X48027897Y-75314257D01*
X48081385Y-75336412D01*
X48118985Y-75380435D01*
X48132500Y-75436730D01*
X48132500Y-77202820D01*
X48119712Y-77257664D01*
X48083986Y-77301196D01*
X48032691Y-77324437D01*
X47976406Y-77322595D01*
X47775000Y-77268628D01*
X47775000Y-79073500D01*
X47758387Y-79135500D01*
X47713000Y-79180887D01*
X47651000Y-79197500D01*
X46225000Y-79197500D01*
X46225000Y-79404265D01*
X46239858Y-79574102D01*
X46298733Y-79793826D01*
X46394865Y-79999980D01*
X46525341Y-80186319D01*
X46567841Y-80228819D01*
X46598091Y-80278182D01*
X46602633Y-80335898D01*
X46580478Y-80389385D01*
X46536455Y-80426985D01*
X46480160Y-80440500D01*
X43650179Y-80440500D01*
X43591328Y-80425645D01*
X43546578Y-80384639D01*
X43526651Y-80327307D01*
X43526063Y-80320592D01*
X43510893Y-80263975D01*
X43464903Y-80092337D01*
X43365035Y-79878171D01*
X43229495Y-79684599D01*
X43062401Y-79517505D01*
X42876839Y-79387573D01*
X42837975Y-79343257D01*
X42823964Y-79286000D01*
X42837975Y-79228743D01*
X42876839Y-79184426D01*
X43062401Y-79054495D01*
X43229495Y-78887401D01*
X43362465Y-78697500D01*
X46225000Y-78697500D01*
X47275000Y-78697500D01*
X47275000Y-77268628D01*
X47274999Y-77268628D01*
X47078673Y-77321233D01*
X46872519Y-77417365D01*
X46686180Y-77547841D01*
X46525341Y-77708680D01*
X46394865Y-77895019D01*
X46298733Y-78101173D01*
X46239858Y-78320897D01*
X46225000Y-78490735D01*
X46225000Y-78697500D01*
X43362465Y-78697500D01*
X43365035Y-78693830D01*
X43464903Y-78479663D01*
X43526063Y-78251408D01*
X43546659Y-78016000D01*
X43526063Y-77780592D01*
X43464903Y-77552337D01*
X43365035Y-77338171D01*
X43229495Y-77144599D01*
X43062401Y-76977505D01*
X42876839Y-76847573D01*
X42837975Y-76803257D01*
X42823964Y-76746000D01*
X42837975Y-76688743D01*
X42876839Y-76644426D01*
X43062401Y-76514495D01*
X43229495Y-76347401D01*
X43365035Y-76153830D01*
X43464903Y-75939663D01*
X43526063Y-75711408D01*
X43546659Y-75476000D01*
X43526063Y-75240592D01*
X43464903Y-75012337D01*
X43365035Y-74798171D01*
X43229495Y-74604599D01*
X43107181Y-74482285D01*
X43075885Y-74429539D01*
X43073696Y-74368246D01*
X43101149Y-74313401D01*
X43151528Y-74278422D01*
X43283089Y-74229352D01*
X43398188Y-74143188D01*
X43484352Y-74028089D01*
X43534597Y-73893375D01*
X43541000Y-73833824D01*
X43541000Y-73186000D01*
X40841000Y-73186000D01*
X40841000Y-73833824D01*
X40847402Y-73893375D01*
X40897647Y-74028089D01*
X40983811Y-74143188D01*
X41098911Y-74229352D01*
X41230471Y-74278422D01*
X41280850Y-74313401D01*
X41308303Y-74368246D01*
X41306114Y-74429539D01*
X41274819Y-74482285D01*
X41152503Y-74604601D01*
X41016965Y-74798170D01*
X40917097Y-75012336D01*
X40855936Y-75240592D01*
X40835340Y-75476000D01*
X40855936Y-75711407D01*
X40892041Y-75846152D01*
X40917097Y-75939663D01*
X41016965Y-76153830D01*
X41152505Y-76347401D01*
X41319599Y-76514495D01*
X41505160Y-76644426D01*
X41544024Y-76688743D01*
X41558035Y-76746000D01*
X41544024Y-76803257D01*
X41505158Y-76847575D01*
X41329841Y-76970334D01*
X41319595Y-76977508D01*
X41152505Y-77144598D01*
X41016965Y-77338170D01*
X40917097Y-77552336D01*
X40855936Y-77780592D01*
X40835340Y-78016000D01*
X40855936Y-78251407D01*
X40895497Y-78399049D01*
X40917097Y-78479663D01*
X41016965Y-78693830D01*
X41152505Y-78887401D01*
X41319599Y-79054495D01*
X41505160Y-79184426D01*
X41544024Y-79228743D01*
X41558035Y-79286000D01*
X41544024Y-79343257D01*
X41505158Y-79387575D01*
X41369525Y-79482547D01*
X41319595Y-79517508D01*
X41152505Y-79684598D01*
X41016965Y-79878170D01*
X40917097Y-80092336D01*
X40855936Y-80320592D01*
X40835340Y-80555999D01*
X40855936Y-80791407D01*
X40900709Y-80958502D01*
X40917097Y-81019663D01*
X41016965Y-81233830D01*
X41152505Y-81427401D01*
X41319599Y-81594495D01*
X41505160Y-81724426D01*
X41544024Y-81768743D01*
X41558035Y-81826000D01*
X41544024Y-81883257D01*
X41505158Y-81927575D01*
X41333907Y-82047487D01*
X41319595Y-82057508D01*
X41152505Y-82224598D01*
X41016965Y-82418170D01*
X40917097Y-82632336D01*
X40855936Y-82860592D01*
X40835340Y-83095999D01*
X40855936Y-83331407D01*
X40889952Y-83458356D01*
X40917097Y-83559663D01*
X41016965Y-83773830D01*
X41152505Y-83967401D01*
X41319599Y-84134495D01*
X41505160Y-84264426D01*
X41544024Y-84308743D01*
X41558035Y-84366000D01*
X41544024Y-84423257D01*
X41505158Y-84467575D01*
X41423682Y-84524626D01*
X41319595Y-84597508D01*
X41152505Y-84764598D01*
X41016965Y-84958170D01*
X40917097Y-85172336D01*
X40855936Y-85400592D01*
X40835340Y-85635999D01*
X40855936Y-85871407D01*
X40884084Y-85976457D01*
X40917097Y-86099663D01*
X41016965Y-86313830D01*
X41152505Y-86507401D01*
X41319599Y-86674495D01*
X41513170Y-86810035D01*
X41727337Y-86909903D01*
X41925396Y-86962972D01*
X41955592Y-86971063D01*
X42190999Y-86991659D01*
X42190999Y-86991658D01*
X42191000Y-86991659D01*
X42404014Y-86973022D01*
X42457230Y-86980028D01*
X42502501Y-87008869D01*
X44790269Y-89296637D01*
X44802051Y-89310270D01*
X44816389Y-89329529D01*
X44854337Y-89361372D01*
X44862311Y-89368680D01*
X44866221Y-89372590D01*
X44890537Y-89391816D01*
X44893336Y-89394096D01*
X44951752Y-89443113D01*
X44968179Y-89453578D01*
X45037320Y-89485819D01*
X45040567Y-89487391D01*
X45108699Y-89521609D01*
X45127087Y-89528000D01*
X45128323Y-89528255D01*
X45128327Y-89528257D01*
X45201895Y-89543447D01*
X45205242Y-89544189D01*
X45278279Y-89561500D01*
X45278281Y-89561500D01*
X45279509Y-89561791D01*
X45298878Y-89563770D01*
X45300140Y-89563733D01*
X45300144Y-89563734D01*
X45372533Y-89561627D01*
X45375131Y-89561552D01*
X45378737Y-89561500D01*
X67146294Y-89561500D01*
X67164264Y-89562809D01*
X67168320Y-89563402D01*
X67188023Y-89566289D01*
X67237368Y-89561972D01*
X67248176Y-89561500D01*
X67253706Y-89561500D01*
X67253709Y-89561500D01*
X67284550Y-89557894D01*
X67288031Y-89557539D01*
X67362797Y-89550999D01*
X67362797Y-89550998D01*
X67364052Y-89550889D01*
X67383062Y-89546674D01*
X67384250Y-89546241D01*
X67384255Y-89546241D01*
X67454820Y-89520557D01*
X67458095Y-89519419D01*
X67529334Y-89495814D01*
X67529336Y-89495812D01*
X67530536Y-89495415D01*
X67548063Y-89486929D01*
X67549112Y-89486238D01*
X67549117Y-89486237D01*
X67611806Y-89445005D01*
X67614798Y-89443099D01*
X67678656Y-89403712D01*
X67678656Y-89403711D01*
X67679729Y-89403050D01*
X67694824Y-89390753D01*
X67695692Y-89389832D01*
X67695696Y-89389830D01*
X67747184Y-89335254D01*
X67749630Y-89332736D01*
X70514602Y-86567764D01*
X109645787Y-86567764D01*
X109675413Y-86837016D01*
X109743928Y-87099087D01*
X109849871Y-87348392D01*
X109990982Y-87579611D01*
X110080253Y-87686881D01*
X110164255Y-87787820D01*
X110365998Y-87968582D01*
X110591910Y-88118044D01*
X110698211Y-88167875D01*
X110837177Y-88233021D01*
X111096562Y-88311058D01*
X111096569Y-88311060D01*
X111364561Y-88350500D01*
X111567631Y-88350500D01*
X111567634Y-88350500D01*
X111770156Y-88335677D01*
X111770155Y-88335677D01*
X112034553Y-88276780D01*
X112287558Y-88180014D01*
X112523777Y-88047441D01*
X112738177Y-87881888D01*
X112926186Y-87686881D01*
X113083799Y-87466579D01*
X113207656Y-87225675D01*
X113295118Y-86969305D01*
X113344319Y-86702933D01*
X113354212Y-86432235D01*
X113324586Y-86162982D01*
X113256072Y-85900912D01*
X113150130Y-85651610D01*
X113066769Y-85515019D01*
X113009017Y-85420388D01*
X112835746Y-85212181D01*
X112794682Y-85175388D01*
X112634002Y-85031418D01*
X112408090Y-84881956D01*
X112380489Y-84869017D01*
X112162822Y-84766978D01*
X111903437Y-84688941D01*
X111903431Y-84688940D01*
X111635439Y-84649500D01*
X111432369Y-84649500D01*
X111432366Y-84649500D01*
X111229843Y-84664322D01*
X110965449Y-84723219D01*
X110712441Y-84819986D01*
X110476223Y-84952559D01*
X110261825Y-85118109D01*
X110073813Y-85313120D01*
X109916201Y-85533420D01*
X109792342Y-85774329D01*
X109704881Y-86030695D01*
X109655680Y-86297066D01*
X109645787Y-86567764D01*
X70514602Y-86567764D01*
X70855642Y-86226724D01*
X70869260Y-86214954D01*
X70888530Y-86200610D01*
X70920376Y-86162656D01*
X70927662Y-86154704D01*
X70931591Y-86150777D01*
X70950833Y-86126439D01*
X70953090Y-86123670D01*
X70973235Y-86099662D01*
X71001302Y-86066214D01*
X71001303Y-86066211D01*
X71002115Y-86065244D01*
X71012573Y-86048827D01*
X71013106Y-86047682D01*
X71013111Y-86047677D01*
X71044833Y-85979646D01*
X71046362Y-85976488D01*
X71080040Y-85909433D01*
X71080040Y-85909432D01*
X71080612Y-85908294D01*
X71087000Y-85889914D01*
X71087255Y-85888675D01*
X71087257Y-85888673D01*
X71102447Y-85815103D01*
X71103186Y-85811770D01*
X71120500Y-85738721D01*
X71120500Y-85738717D01*
X71120791Y-85737489D01*
X71122770Y-85718121D01*
X71122733Y-85716859D01*
X71122734Y-85716856D01*
X71120552Y-85641869D01*
X71120500Y-85638263D01*
X71120500Y-84000000D01*
X101394317Y-84000000D01*
X101399500Y-84039360D01*
X101399500Y-84039361D01*
X101414956Y-84156762D01*
X101476599Y-84305582D01*
X101493419Y-84337049D01*
X101500000Y-84376909D01*
X101500000Y-84500000D01*
X101623091Y-84500000D01*
X101662951Y-84506581D01*
X101694417Y-84523400D01*
X101697158Y-84524535D01*
X101697159Y-84524536D01*
X101843238Y-84585044D01*
X101968698Y-84601561D01*
X101999999Y-84605682D01*
X101999999Y-84605681D01*
X102000000Y-84605682D01*
X102031302Y-84601560D01*
X102047487Y-84600500D01*
X103952513Y-84600500D01*
X103968697Y-84601560D01*
X104000000Y-84605682D01*
X104156762Y-84585044D01*
X104302841Y-84524536D01*
X104302842Y-84524534D01*
X104305582Y-84523400D01*
X104337049Y-84506581D01*
X104376909Y-84500000D01*
X106500000Y-84500000D01*
X106500000Y-81500000D01*
X104798786Y-81500000D01*
X104736786Y-81483387D01*
X104691399Y-81438000D01*
X104674786Y-81376000D01*
X104674786Y-81328071D01*
X101828071Y-81328071D01*
X101828071Y-81338384D01*
X101818632Y-81385837D01*
X101791752Y-81426065D01*
X101751524Y-81452945D01*
X101694414Y-81476600D01*
X101662951Y-81493419D01*
X101623091Y-81500000D01*
X101500000Y-81500000D01*
X101500000Y-81623091D01*
X101493419Y-81662951D01*
X101476599Y-81694417D01*
X101414956Y-81843237D01*
X101394317Y-81999999D01*
X101398439Y-82031301D01*
X101399500Y-82047487D01*
X101399500Y-83952513D01*
X101398439Y-83968699D01*
X101394317Y-84000000D01*
X71120500Y-84000000D01*
X71120500Y-78526663D01*
X71134511Y-78469406D01*
X71173377Y-78425088D01*
X71209140Y-78400046D01*
X71370046Y-78239140D01*
X71464842Y-78103756D01*
X71500568Y-78052734D01*
X71527618Y-77994724D01*
X71573375Y-77942549D01*
X71640000Y-77923129D01*
X71706625Y-77942549D01*
X71752382Y-77994725D01*
X71779431Y-78052733D01*
X71909953Y-78239140D01*
X72070859Y-78400046D01*
X72257264Y-78530567D01*
X72257265Y-78530567D01*
X72257266Y-78530568D01*
X72463504Y-78626739D01*
X72683308Y-78685635D01*
X72834436Y-78698857D01*
X72909999Y-78705468D01*
X72909999Y-78705467D01*
X72910000Y-78705468D01*
X73136692Y-78685635D01*
X73356496Y-78626739D01*
X73562734Y-78530568D01*
X73749139Y-78400047D01*
X73910047Y-78239139D01*
X74040568Y-78052734D01*
X74067618Y-77994724D01*
X74113375Y-77942549D01*
X74180000Y-77923129D01*
X74246625Y-77942549D01*
X74292382Y-77994725D01*
X74319431Y-78052733D01*
X74449953Y-78239140D01*
X74610859Y-78400046D01*
X74797264Y-78530567D01*
X74797265Y-78530567D01*
X74797266Y-78530568D01*
X75003504Y-78626739D01*
X75223308Y-78685635D01*
X75374436Y-78698857D01*
X75449999Y-78705468D01*
X75449999Y-78705467D01*
X75450000Y-78705468D01*
X75676692Y-78685635D01*
X75896496Y-78626739D01*
X76102734Y-78530568D01*
X76289139Y-78400047D01*
X76450047Y-78239139D01*
X76580568Y-78052734D01*
X76607618Y-77994724D01*
X76653375Y-77942549D01*
X76720000Y-77923129D01*
X76786625Y-77942549D01*
X76832382Y-77994725D01*
X76859431Y-78052733D01*
X76989953Y-78239140D01*
X77150859Y-78400046D01*
X77337264Y-78530567D01*
X77337265Y-78530567D01*
X77337266Y-78530568D01*
X77543504Y-78626739D01*
X77763308Y-78685635D01*
X77914436Y-78698857D01*
X77989999Y-78705468D01*
X77989999Y-78705467D01*
X77990000Y-78705468D01*
X78216692Y-78685635D01*
X78436496Y-78626739D01*
X78642734Y-78530568D01*
X78829139Y-78400047D01*
X78990047Y-78239139D01*
X79120568Y-78052734D01*
X79147618Y-77994724D01*
X79193375Y-77942549D01*
X79260000Y-77923129D01*
X79326625Y-77942549D01*
X79372382Y-77994725D01*
X79399431Y-78052733D01*
X79529953Y-78239140D01*
X79625041Y-78334228D01*
X79657135Y-78389815D01*
X79657135Y-78454003D01*
X79625041Y-78509590D01*
X78487228Y-79647402D01*
X78458715Y-79668694D01*
X78425330Y-79681011D01*
X78360197Y-79694856D01*
X78187267Y-79771849D01*
X78034129Y-79883110D01*
X77907466Y-80023783D01*
X77812820Y-80187715D01*
X77754326Y-80367742D01*
X77734540Y-80556000D01*
X77754326Y-80744257D01*
X77812820Y-80924284D01*
X77907466Y-81088216D01*
X78034129Y-81228889D01*
X78187269Y-81340151D01*
X78360197Y-81417144D01*
X78545352Y-81456500D01*
X78545354Y-81456500D01*
X78734646Y-81456500D01*
X78734648Y-81456500D01*
X78871547Y-81427401D01*
X78919803Y-81417144D01*
X79092730Y-81340151D01*
X79245871Y-81228888D01*
X79372533Y-81088216D01*
X79467179Y-80924284D01*
X79522522Y-80753955D01*
X79552769Y-80704597D01*
X80774820Y-79482545D01*
X80830405Y-79450453D01*
X80894593Y-79450453D01*
X80950178Y-79482545D01*
X81100175Y-79632542D01*
X81239267Y-79771634D01*
X81251048Y-79785266D01*
X81265387Y-79804526D01*
X81265390Y-79804530D01*
X81303355Y-79836386D01*
X81311317Y-79843684D01*
X81315224Y-79847591D01*
X81339537Y-79866815D01*
X81342337Y-79869096D01*
X81400754Y-79918115D01*
X81417165Y-79928569D01*
X81418319Y-79929107D01*
X81418323Y-79929110D01*
X81486328Y-79960821D01*
X81489451Y-79962333D01*
X81555667Y-79995588D01*
X81557704Y-79996611D01*
X81576084Y-80002998D01*
X81577321Y-80003253D01*
X81577327Y-80003256D01*
X81650862Y-80018439D01*
X81654209Y-80019181D01*
X81727279Y-80036500D01*
X81727281Y-80036500D01*
X81728505Y-80036790D01*
X81747876Y-80038769D01*
X81749140Y-80038732D01*
X81749144Y-80038733D01*
X81824110Y-80036552D01*
X81827716Y-80036500D01*
X100801294Y-80036500D01*
X100819264Y-80037809D01*
X100823320Y-80038402D01*
X100843023Y-80041289D01*
X100892368Y-80036972D01*
X100903176Y-80036500D01*
X100908706Y-80036500D01*
X100908709Y-80036500D01*
X100939550Y-80032894D01*
X100943031Y-80032539D01*
X101017797Y-80025999D01*
X101017797Y-80025998D01*
X101019052Y-80025889D01*
X101038062Y-80021674D01*
X101039250Y-80021241D01*
X101039255Y-80021241D01*
X101109820Y-79995557D01*
X101113095Y-79994419D01*
X101184334Y-79970814D01*
X101184336Y-79970812D01*
X101185536Y-79970415D01*
X101203063Y-79961929D01*
X101204112Y-79961238D01*
X101204117Y-79961237D01*
X101266806Y-79920005D01*
X101269798Y-79918099D01*
X101333656Y-79878712D01*
X101333656Y-79878711D01*
X101334729Y-79878050D01*
X101349824Y-79865753D01*
X101350692Y-79864832D01*
X101350696Y-79864830D01*
X101402184Y-79810254D01*
X101404630Y-79807736D01*
X102586887Y-78625479D01*
X102622156Y-78600783D01*
X102772734Y-78530568D01*
X102959139Y-78400047D01*
X103120047Y-78239139D01*
X103250568Y-78052734D01*
X103277893Y-77994134D01*
X103323649Y-77941959D01*
X103390274Y-77922539D01*
X103456899Y-77941958D01*
X103502657Y-77994133D01*
X103529866Y-78052482D01*
X103660341Y-78238819D01*
X103821180Y-78399658D01*
X104007519Y-78530134D01*
X104213673Y-78626266D01*
X104409999Y-78678871D01*
X104410000Y-78678872D01*
X104410000Y-75321128D01*
X104409999Y-75321128D01*
X104213673Y-75373733D01*
X104007519Y-75469865D01*
X103821180Y-75600341D01*
X103660341Y-75761180D01*
X103529863Y-75947522D01*
X103502656Y-76005866D01*
X103456899Y-76058041D01*
X103390274Y-76077460D01*
X103323650Y-76058040D01*
X103277893Y-76005865D01*
X103250567Y-75947264D01*
X103120046Y-75760859D01*
X102959140Y-75599953D01*
X102772735Y-75469432D01*
X102566497Y-75373261D01*
X102346689Y-75314364D01*
X102119999Y-75294531D01*
X101893310Y-75314364D01*
X101673502Y-75373261D01*
X101467264Y-75469432D01*
X101280859Y-75599953D01*
X101119953Y-75760859D01*
X100989433Y-75947263D01*
X100962382Y-76005275D01*
X100916625Y-76057450D01*
X100850000Y-76076869D01*
X100783375Y-76057450D01*
X100737618Y-76005275D01*
X100710568Y-75947266D01*
X100638460Y-75844284D01*
X100580046Y-75760859D01*
X100419140Y-75599953D01*
X100232735Y-75469432D01*
X100026497Y-75373261D01*
X99806689Y-75314364D01*
X99579999Y-75294531D01*
X99353310Y-75314364D01*
X99133502Y-75373261D01*
X98927264Y-75469432D01*
X98740859Y-75599953D01*
X98579953Y-75760859D01*
X98449433Y-75947263D01*
X98422382Y-76005275D01*
X98376625Y-76057450D01*
X98310000Y-76076869D01*
X98243375Y-76057450D01*
X98197618Y-76005275D01*
X98170568Y-75947266D01*
X98098460Y-75844284D01*
X98040046Y-75760859D01*
X97879140Y-75599953D01*
X97692735Y-75469432D01*
X97486497Y-75373261D01*
X97266689Y-75314364D01*
X97039999Y-75294531D01*
X96813310Y-75314364D01*
X96593502Y-75373261D01*
X96387264Y-75469432D01*
X96200859Y-75599953D01*
X96039953Y-75760859D01*
X95909433Y-75947263D01*
X95882382Y-76005275D01*
X95836625Y-76057450D01*
X95770000Y-76076869D01*
X95703375Y-76057450D01*
X95657618Y-76005275D01*
X95630568Y-75947266D01*
X95558460Y-75844284D01*
X95500046Y-75760859D01*
X95339140Y-75599953D01*
X95152735Y-75469432D01*
X94946497Y-75373261D01*
X94726689Y-75314364D01*
X94499999Y-75294531D01*
X94273310Y-75314364D01*
X94053502Y-75373261D01*
X93847264Y-75469432D01*
X93660859Y-75599953D01*
X93499953Y-75760859D01*
X93369433Y-75947263D01*
X93342382Y-76005275D01*
X93296625Y-76057450D01*
X93230000Y-76076869D01*
X93163375Y-76057450D01*
X93117618Y-76005275D01*
X93090568Y-75947266D01*
X93018460Y-75844284D01*
X92960046Y-75760859D01*
X92799140Y-75599953D01*
X92612735Y-75469432D01*
X92406497Y-75373261D01*
X92186689Y-75314364D01*
X91959999Y-75294531D01*
X91733310Y-75314364D01*
X91513502Y-75373261D01*
X91307264Y-75469432D01*
X91120859Y-75599953D01*
X90959953Y-75760859D01*
X90829432Y-75947264D01*
X90733261Y-76153502D01*
X90674364Y-76373310D01*
X90659500Y-76543214D01*
X90659500Y-77456786D01*
X90674364Y-77626689D01*
X90733261Y-77846497D01*
X90829432Y-78052735D01*
X90959953Y-78239140D01*
X91044632Y-78323819D01*
X91074882Y-78373182D01*
X91079424Y-78430898D01*
X91057269Y-78484385D01*
X91013246Y-78521985D01*
X90956951Y-78535500D01*
X89153049Y-78535500D01*
X89096754Y-78521985D01*
X89052731Y-78484385D01*
X89030576Y-78430898D01*
X89035118Y-78373182D01*
X89065368Y-78323819D01*
X89150046Y-78239140D01*
X89277478Y-78057146D01*
X89280568Y-78052734D01*
X89376739Y-77846496D01*
X89435635Y-77626692D01*
X89447269Y-77493717D01*
X89450500Y-77456786D01*
X89450500Y-76543214D01*
X89435635Y-76373310D01*
X89435635Y-76373308D01*
X89376739Y-76153504D01*
X89280568Y-75947266D01*
X89275244Y-75939663D01*
X89150046Y-75760859D01*
X88989140Y-75599953D01*
X88802735Y-75469432D01*
X88596497Y-75373261D01*
X88547427Y-75360113D01*
X88491840Y-75328019D01*
X88459746Y-75272431D01*
X88459746Y-75208244D01*
X88491838Y-75152659D01*
X91284737Y-72359760D01*
X91299526Y-72347129D01*
X91310871Y-72338888D01*
X91356264Y-72288472D01*
X91360696Y-72283801D01*
X91375119Y-72269380D01*
X91387961Y-72253521D01*
X91392135Y-72248635D01*
X91409682Y-72229147D01*
X91437533Y-72198216D01*
X91444542Y-72186074D01*
X91455560Y-72170042D01*
X91464383Y-72159149D01*
X91495193Y-72098677D01*
X91498248Y-72093051D01*
X91532179Y-72034284D01*
X91536509Y-72020953D01*
X91543956Y-72002974D01*
X91550320Y-71990488D01*
X91567880Y-71924951D01*
X91569706Y-71918786D01*
X91590674Y-71854256D01*
X91592139Y-71840309D01*
X91595682Y-71821193D01*
X91599313Y-71807646D01*
X91602862Y-71739900D01*
X91603367Y-71733476D01*
X91610460Y-71666000D01*
X91608993Y-71652051D01*
X91608484Y-71632619D01*
X91609219Y-71618612D01*
X91598608Y-71551621D01*
X91597766Y-71545230D01*
X91590674Y-71477744D01*
X91586340Y-71464405D01*
X91581798Y-71445486D01*
X91581377Y-71442830D01*
X91579607Y-71431650D01*
X91555295Y-71368316D01*
X91553137Y-71362219D01*
X91533896Y-71303001D01*
X91532179Y-71297716D01*
X91525170Y-71285577D01*
X91516791Y-71268008D01*
X91511772Y-71254932D01*
X91511771Y-71254930D01*
X91491802Y-71224180D01*
X91472347Y-71168317D01*
X91480989Y-71109795D01*
X91515760Y-71061936D01*
X91568747Y-71035632D01*
X91627891Y-71036871D01*
X91709999Y-71058871D01*
X91710000Y-71058872D01*
X91710000Y-69630000D01*
X90660000Y-69630000D01*
X90660000Y-69836765D01*
X90674858Y-70006602D01*
X90733733Y-70226326D01*
X90829865Y-70432480D01*
X90928548Y-70573414D01*
X90949884Y-70628138D01*
X90943643Y-70686541D01*
X90911225Y-70735519D01*
X90859904Y-70764085D01*
X90812679Y-70765488D01*
X90812679Y-70765500D01*
X90812269Y-70765500D01*
X90801194Y-70765829D01*
X90799646Y-70765500D01*
X90785626Y-70765500D01*
X90766228Y-70763973D01*
X90752388Y-70761781D01*
X90684663Y-70765330D01*
X90678174Y-70765500D01*
X90610353Y-70765500D01*
X90596640Y-70768414D01*
X90577361Y-70770952D01*
X90563353Y-70771686D01*
X90497843Y-70789239D01*
X90491536Y-70790754D01*
X90425191Y-70804857D01*
X90412388Y-70810558D01*
X90394056Y-70817050D01*
X90389023Y-70818399D01*
X90380511Y-70820680D01*
X90320081Y-70851470D01*
X90314226Y-70854262D01*
X90252270Y-70881848D01*
X90240930Y-70890087D01*
X90224349Y-70900248D01*
X90211853Y-70906615D01*
X90159145Y-70949297D01*
X90153996Y-70953247D01*
X90099132Y-70993108D01*
X90053743Y-71043517D01*
X90049275Y-71048224D01*
X85828330Y-75269169D01*
X85783060Y-75298010D01*
X85729842Y-75305016D01*
X85610000Y-75294531D01*
X85383310Y-75314364D01*
X85163502Y-75373261D01*
X84957264Y-75469432D01*
X84770859Y-75599953D01*
X84609953Y-75760859D01*
X84479433Y-75947263D01*
X84452382Y-76005275D01*
X84406625Y-76057450D01*
X84340000Y-76076869D01*
X84273375Y-76057450D01*
X84227618Y-76005275D01*
X84200568Y-75947266D01*
X84128460Y-75844284D01*
X84070046Y-75760859D01*
X83909140Y-75599953D01*
X83722735Y-75469432D01*
X83516497Y-75373261D01*
X83296689Y-75314364D01*
X83069999Y-75294531D01*
X82843310Y-75314364D01*
X82623502Y-75373261D01*
X82417264Y-75469432D01*
X82230859Y-75599953D01*
X82069953Y-75760859D01*
X81939433Y-75947263D01*
X81912382Y-76005275D01*
X81866625Y-76057450D01*
X81800000Y-76076869D01*
X81733375Y-76057450D01*
X81687618Y-76005275D01*
X81660568Y-75947266D01*
X81588460Y-75844284D01*
X81530046Y-75760859D01*
X81369140Y-75599953D01*
X81182735Y-75469432D01*
X80976497Y-75373261D01*
X80756689Y-75314364D01*
X80529999Y-75294531D01*
X80303310Y-75314364D01*
X80083502Y-75373261D01*
X79877264Y-75469432D01*
X79690859Y-75599953D01*
X79529953Y-75760859D01*
X79399433Y-75947263D01*
X79372382Y-76005275D01*
X79326625Y-76057450D01*
X79260000Y-76076869D01*
X79193375Y-76057450D01*
X79147618Y-76005275D01*
X79120568Y-75947266D01*
X79048460Y-75844284D01*
X78990046Y-75760859D01*
X78829140Y-75599953D01*
X78642735Y-75469432D01*
X78436497Y-75373261D01*
X78216689Y-75314364D01*
X77989999Y-75294531D01*
X77763310Y-75314364D01*
X77543502Y-75373261D01*
X77337264Y-75469432D01*
X77150859Y-75599953D01*
X76989953Y-75760859D01*
X76859433Y-75947263D01*
X76832382Y-76005275D01*
X76786625Y-76057450D01*
X76720000Y-76076869D01*
X76653375Y-76057450D01*
X76607618Y-76005275D01*
X76580568Y-75947266D01*
X76508460Y-75844284D01*
X76450046Y-75760859D01*
X76289140Y-75599953D01*
X76102735Y-75469432D01*
X75896497Y-75373261D01*
X75676689Y-75314364D01*
X75449999Y-75294531D01*
X75223310Y-75314364D01*
X75003502Y-75373261D01*
X74797264Y-75469432D01*
X74610859Y-75599953D01*
X74449953Y-75760859D01*
X74319433Y-75947263D01*
X74292382Y-76005275D01*
X74246625Y-76057450D01*
X74180000Y-76076869D01*
X74113375Y-76057450D01*
X74067618Y-76005275D01*
X74040568Y-75947266D01*
X73968460Y-75844284D01*
X73910046Y-75760859D01*
X73749140Y-75599953D01*
X73562735Y-75469432D01*
X73356497Y-75373261D01*
X73136689Y-75314364D01*
X72909999Y-75294531D01*
X72683310Y-75314364D01*
X72463502Y-75373261D01*
X72257264Y-75469432D01*
X72070859Y-75599953D01*
X71909953Y-75760859D01*
X71779433Y-75947263D01*
X71752382Y-76005275D01*
X71706625Y-76057450D01*
X71640000Y-76076869D01*
X71573375Y-76057450D01*
X71527618Y-76005275D01*
X71500568Y-75947266D01*
X71428460Y-75844284D01*
X71370046Y-75760859D01*
X71209140Y-75599953D01*
X71022735Y-75469432D01*
X70816497Y-75373261D01*
X70596689Y-75314364D01*
X70369999Y-75294531D01*
X70143310Y-75314364D01*
X69923502Y-75373261D01*
X69717269Y-75469430D01*
X69580001Y-75565545D01*
X69520223Y-75587449D01*
X69457455Y-75576804D01*
X69408242Y-75536415D01*
X69385557Y-75476930D01*
X69385459Y-75476003D01*
X69385460Y-75476000D01*
X69365674Y-75287744D01*
X69319402Y-75145334D01*
X69307179Y-75107715D01*
X69212533Y-74943783D01*
X69085870Y-74803110D01*
X68932730Y-74691848D01*
X68759802Y-74614855D01*
X68574648Y-74575500D01*
X68574646Y-74575500D01*
X68385354Y-74575500D01*
X68385352Y-74575500D01*
X68187449Y-74617565D01*
X68187133Y-74616078D01*
X68143769Y-74623530D01*
X68085963Y-74603907D01*
X68044526Y-74559079D01*
X68029499Y-74499912D01*
X68029499Y-74250991D01*
X68018999Y-74148203D01*
X68013411Y-74131341D01*
X67963814Y-73981666D01*
X67914877Y-73902326D01*
X67871713Y-73832345D01*
X67834242Y-73794874D01*
X67765816Y-73726448D01*
X67738939Y-73686223D01*
X67729500Y-73638770D01*
X67729500Y-73275861D01*
X67738939Y-73228409D01*
X67765816Y-73188182D01*
X67916743Y-73037254D01*
X67931526Y-73024629D01*
X67942871Y-73016388D01*
X67988264Y-72965972D01*
X67992696Y-72961301D01*
X68007119Y-72946880D01*
X68019961Y-72931021D01*
X68024135Y-72926135D01*
X68027526Y-72922369D01*
X68069533Y-72875716D01*
X68076542Y-72863574D01*
X68087560Y-72847542D01*
X68096383Y-72836649D01*
X68127193Y-72776177D01*
X68130248Y-72770551D01*
X68164179Y-72711784D01*
X68168509Y-72698456D01*
X68175960Y-72680468D01*
X68182320Y-72667988D01*
X68199882Y-72602437D01*
X68201703Y-72596294D01*
X68222674Y-72531756D01*
X68224139Y-72517805D01*
X68227683Y-72498686D01*
X68231312Y-72485146D01*
X68234862Y-72417401D01*
X68235365Y-72410997D01*
X68242460Y-72343500D01*
X68240995Y-72329564D01*
X68240485Y-72310107D01*
X68241219Y-72296112D01*
X68230608Y-72229121D01*
X68229766Y-72222730D01*
X68222674Y-72155244D01*
X68218340Y-72141905D01*
X68213798Y-72122986D01*
X68211607Y-72109151D01*
X68207599Y-72098710D01*
X68187295Y-72045816D01*
X68185137Y-72039719D01*
X68164179Y-71975217D01*
X68164179Y-71975216D01*
X68157170Y-71963077D01*
X68148795Y-71945520D01*
X68143771Y-71932430D01*
X68106835Y-71875554D01*
X68103457Y-71870042D01*
X68069533Y-71811284D01*
X68060146Y-71800859D01*
X68048304Y-71785426D01*
X68040674Y-71773676D01*
X67992733Y-71725735D01*
X67988265Y-71721027D01*
X67972629Y-71703662D01*
X67942871Y-71670612D01*
X67931516Y-71662362D01*
X67916733Y-71649735D01*
X67906824Y-71639826D01*
X67906821Y-71639824D01*
X67906820Y-71639823D01*
X67849941Y-71602885D01*
X67844612Y-71599223D01*
X67789730Y-71559349D01*
X67789729Y-71559348D01*
X67789727Y-71559347D01*
X67776915Y-71553642D01*
X67759828Y-71544364D01*
X67748069Y-71536728D01*
X67684758Y-71512426D01*
X67678769Y-71509945D01*
X67616803Y-71482356D01*
X67616801Y-71482355D01*
X67603076Y-71479437D01*
X67584431Y-71473914D01*
X67571350Y-71468893D01*
X67571347Y-71468892D01*
X67571346Y-71468892D01*
X67504373Y-71458284D01*
X67497992Y-71457102D01*
X67481596Y-71453617D01*
X67431646Y-71443000D01*
X67431644Y-71443000D01*
X67417626Y-71443000D01*
X67398228Y-71441473D01*
X67384388Y-71439281D01*
X67316670Y-71442830D01*
X67310180Y-71443000D01*
X67242352Y-71443000D01*
X67228633Y-71445915D01*
X67209360Y-71448452D01*
X67195356Y-71449187D01*
X67129851Y-71466738D01*
X67123542Y-71468253D01*
X67057195Y-71482355D01*
X67044387Y-71488058D01*
X67026058Y-71494549D01*
X67012511Y-71498179D01*
X66952081Y-71528970D01*
X66946225Y-71531764D01*
X66884267Y-71559350D01*
X66872930Y-71567587D01*
X66856349Y-71577748D01*
X66843853Y-71584115D01*
X66791145Y-71626797D01*
X66785996Y-71630747D01*
X66731132Y-71670608D01*
X66685743Y-71721017D01*
X66681275Y-71725724D01*
X66249264Y-72157735D01*
X66234472Y-72170369D01*
X66223130Y-72178610D01*
X66177751Y-72229008D01*
X66173288Y-72233712D01*
X66158874Y-72248126D01*
X66146058Y-72263951D01*
X66141852Y-72268876D01*
X66096466Y-72319284D01*
X66089458Y-72331422D01*
X66078442Y-72347450D01*
X66069619Y-72358345D01*
X66038818Y-72418795D01*
X66035722Y-72424496D01*
X66001822Y-72483213D01*
X65997488Y-72496552D01*
X65990044Y-72514522D01*
X65983680Y-72527012D01*
X65967273Y-72588238D01*
X65938920Y-72639916D01*
X65889907Y-72672664D01*
X65831312Y-72679080D01*
X65776375Y-72657715D01*
X65737509Y-72613397D01*
X65723499Y-72556143D01*
X65723499Y-71817628D01*
X65717091Y-71758017D01*
X65666796Y-71623169D01*
X65580546Y-71507954D01*
X65465331Y-71421704D01*
X65330483Y-71371409D01*
X65270873Y-71365000D01*
X65270869Y-71365000D01*
X65270852Y-71365000D01*
X64769146Y-71365000D01*
X64707147Y-71348388D01*
X64661760Y-71303001D01*
X64645147Y-71241001D01*
X64645147Y-69630000D01*
X69070000Y-69630000D01*
X69070000Y-69836765D01*
X69084858Y-70006602D01*
X69143733Y-70226326D01*
X69239865Y-70432480D01*
X69370341Y-70618819D01*
X69531180Y-70779658D01*
X69717519Y-70910134D01*
X69923673Y-71006266D01*
X70119999Y-71058871D01*
X70120000Y-71058872D01*
X70120000Y-71058871D01*
X70620000Y-71058871D01*
X70816326Y-71006266D01*
X71022480Y-70910134D01*
X71208819Y-70779658D01*
X71369658Y-70618819D01*
X71500135Y-70432479D01*
X71527342Y-70374135D01*
X71573098Y-70321959D01*
X71639723Y-70302539D01*
X71706348Y-70321958D01*
X71752106Y-70374133D01*
X71779433Y-70432736D01*
X71909953Y-70619140D01*
X72070859Y-70780046D01*
X72257264Y-70910567D01*
X72257265Y-70910567D01*
X72257266Y-70910568D01*
X72463504Y-71006739D01*
X72683308Y-71065635D01*
X72834435Y-71078856D01*
X72909999Y-71085468D01*
X72909999Y-71085467D01*
X72910000Y-71085468D01*
X73136692Y-71065635D01*
X73356496Y-71006739D01*
X73562734Y-70910568D01*
X73749139Y-70780047D01*
X73910047Y-70619139D01*
X74040568Y-70432734D01*
X74067618Y-70374724D01*
X74113375Y-70322549D01*
X74180000Y-70303129D01*
X74246625Y-70322549D01*
X74292382Y-70374725D01*
X74319431Y-70432733D01*
X74449953Y-70619140D01*
X74610859Y-70780046D01*
X74797264Y-70910567D01*
X74797265Y-70910567D01*
X74797266Y-70910568D01*
X75003504Y-71006739D01*
X75223308Y-71065635D01*
X75374435Y-71078856D01*
X75449999Y-71085468D01*
X75449999Y-71085467D01*
X75450000Y-71085468D01*
X75676692Y-71065635D01*
X75896496Y-71006739D01*
X76102734Y-70910568D01*
X76289139Y-70780047D01*
X76450047Y-70619139D01*
X76580568Y-70432734D01*
X76607618Y-70374724D01*
X76653375Y-70322549D01*
X76720000Y-70303129D01*
X76786625Y-70322549D01*
X76832382Y-70374725D01*
X76859431Y-70432733D01*
X76989953Y-70619140D01*
X77150859Y-70780046D01*
X77337264Y-70910567D01*
X77337265Y-70910567D01*
X77337266Y-70910568D01*
X77543504Y-71006739D01*
X77763308Y-71065635D01*
X77914435Y-71078856D01*
X77989999Y-71085468D01*
X77989999Y-71085467D01*
X77990000Y-71085468D01*
X78216692Y-71065635D01*
X78436496Y-71006739D01*
X78642734Y-70910568D01*
X78829139Y-70780047D01*
X78990047Y-70619139D01*
X79120568Y-70432734D01*
X79147618Y-70374724D01*
X79193375Y-70322549D01*
X79260000Y-70303129D01*
X79326625Y-70322549D01*
X79372382Y-70374725D01*
X79399431Y-70432733D01*
X79529953Y-70619140D01*
X79690859Y-70780046D01*
X79877264Y-70910567D01*
X79877265Y-70910567D01*
X79877266Y-70910568D01*
X80083504Y-71006739D01*
X80303308Y-71065635D01*
X80454435Y-71078856D01*
X80529999Y-71085468D01*
X80529999Y-71085467D01*
X80530000Y-71085468D01*
X80756692Y-71065635D01*
X80976496Y-71006739D01*
X81182734Y-70910568D01*
X81369139Y-70780047D01*
X81530047Y-70619139D01*
X81660568Y-70432734D01*
X81687618Y-70374724D01*
X81733375Y-70322549D01*
X81800000Y-70303129D01*
X81866625Y-70322549D01*
X81912382Y-70374725D01*
X81939431Y-70432733D01*
X82069953Y-70619140D01*
X82230859Y-70780046D01*
X82417264Y-70910567D01*
X82417265Y-70910567D01*
X82417266Y-70910568D01*
X82623504Y-71006739D01*
X82843308Y-71065635D01*
X82994435Y-71078856D01*
X83069999Y-71085468D01*
X83069999Y-71085467D01*
X83070000Y-71085468D01*
X83296692Y-71065635D01*
X83516496Y-71006739D01*
X83722734Y-70910568D01*
X83909139Y-70780047D01*
X84070047Y-70619139D01*
X84200568Y-70432734D01*
X84227618Y-70374724D01*
X84273375Y-70322549D01*
X84340000Y-70303129D01*
X84406625Y-70322549D01*
X84452382Y-70374725D01*
X84479431Y-70432733D01*
X84609953Y-70619140D01*
X84770859Y-70780046D01*
X84957264Y-70910567D01*
X84957265Y-70910567D01*
X84957266Y-70910568D01*
X85163504Y-71006739D01*
X85383308Y-71065635D01*
X85534435Y-71078856D01*
X85609999Y-71085468D01*
X85609999Y-71085467D01*
X85610000Y-71085468D01*
X85836692Y-71065635D01*
X86056496Y-71006739D01*
X86262734Y-70910568D01*
X86449139Y-70780047D01*
X86610047Y-70619139D01*
X86627273Y-70594536D01*
X86672113Y-70555400D01*
X86730027Y-70541666D01*
X86787669Y-70556499D01*
X86831758Y-70596483D01*
X86852138Y-70652405D01*
X86855909Y-70687484D01*
X86872604Y-70732244D01*
X86906204Y-70822331D01*
X86992454Y-70937546D01*
X87107669Y-71023796D01*
X87242517Y-71074091D01*
X87302127Y-71080500D01*
X88997872Y-71080499D01*
X89057483Y-71074091D01*
X89192331Y-71023796D01*
X89307546Y-70937546D01*
X89393796Y-70822331D01*
X89444091Y-70687483D01*
X89450500Y-70627873D01*
X89450499Y-69130000D01*
X90660000Y-69130000D01*
X91710000Y-69130000D01*
X91710000Y-67701128D01*
X91709999Y-67701128D01*
X91513673Y-67753733D01*
X91307519Y-67849865D01*
X91121180Y-67980341D01*
X90960341Y-68141180D01*
X90829865Y-68327519D01*
X90733733Y-68533673D01*
X90674858Y-68753397D01*
X90660000Y-68923235D01*
X90660000Y-69130000D01*
X89450499Y-69130000D01*
X89450499Y-68132128D01*
X89444091Y-68072517D01*
X89393796Y-67937669D01*
X89307546Y-67822454D01*
X89192331Y-67736204D01*
X89057483Y-67685909D01*
X88997873Y-67679500D01*
X88997869Y-67679500D01*
X87302130Y-67679500D01*
X87242515Y-67685909D01*
X87107669Y-67736204D01*
X86992454Y-67822454D01*
X86906204Y-67937668D01*
X86855909Y-68072516D01*
X86852138Y-68107593D01*
X86831759Y-68163515D01*
X86787670Y-68203498D01*
X86730029Y-68218332D01*
X86672116Y-68204599D01*
X86627273Y-68165462D01*
X86610044Y-68140857D01*
X86449140Y-67979953D01*
X86262735Y-67849432D01*
X86056497Y-67753261D01*
X85836689Y-67694364D01*
X85610000Y-67674531D01*
X85383310Y-67694364D01*
X85163502Y-67753261D01*
X84957264Y-67849432D01*
X84770859Y-67979953D01*
X84609953Y-68140859D01*
X84479433Y-68327263D01*
X84452382Y-68385275D01*
X84406625Y-68437450D01*
X84340000Y-68456869D01*
X84273375Y-68437450D01*
X84227618Y-68385275D01*
X84200568Y-68327266D01*
X84135039Y-68233680D01*
X84070046Y-68140859D01*
X83909140Y-67979953D01*
X83722735Y-67849432D01*
X83516497Y-67753261D01*
X83296689Y-67694364D01*
X83070000Y-67674531D01*
X82843310Y-67694364D01*
X82623502Y-67753261D01*
X82417264Y-67849432D01*
X82230859Y-67979953D01*
X82069953Y-68140859D01*
X81939433Y-68327263D01*
X81912382Y-68385275D01*
X81866625Y-68437450D01*
X81800000Y-68456869D01*
X81733375Y-68437450D01*
X81687618Y-68385275D01*
X81660568Y-68327266D01*
X81595039Y-68233680D01*
X81530046Y-68140859D01*
X81369140Y-67979953D01*
X81182735Y-67849432D01*
X80976497Y-67753261D01*
X80756689Y-67694364D01*
X80530000Y-67674531D01*
X80303310Y-67694364D01*
X80083502Y-67753261D01*
X79877264Y-67849432D01*
X79690859Y-67979953D01*
X79529953Y-68140859D01*
X79399433Y-68327263D01*
X79372382Y-68385275D01*
X79326625Y-68437450D01*
X79260000Y-68456869D01*
X79193375Y-68437450D01*
X79147618Y-68385275D01*
X79120568Y-68327266D01*
X79055039Y-68233680D01*
X78990046Y-68140859D01*
X78829140Y-67979953D01*
X78642735Y-67849432D01*
X78436497Y-67753261D01*
X78216689Y-67694364D01*
X77990000Y-67674531D01*
X77763310Y-67694364D01*
X77543502Y-67753261D01*
X77337264Y-67849432D01*
X77150859Y-67979953D01*
X76989953Y-68140859D01*
X76859433Y-68327263D01*
X76832382Y-68385275D01*
X76786625Y-68437450D01*
X76720000Y-68456869D01*
X76653375Y-68437450D01*
X76607618Y-68385275D01*
X76580568Y-68327266D01*
X76515039Y-68233680D01*
X76450046Y-68140859D01*
X76289140Y-67979953D01*
X76102735Y-67849432D01*
X75896497Y-67753261D01*
X75676689Y-67694364D01*
X75450000Y-67674531D01*
X75223310Y-67694364D01*
X75003502Y-67753261D01*
X74797264Y-67849432D01*
X74610859Y-67979953D01*
X74449953Y-68140859D01*
X74319433Y-68327263D01*
X74292382Y-68385275D01*
X74246625Y-68437450D01*
X74180000Y-68456869D01*
X74113375Y-68437450D01*
X74067618Y-68385275D01*
X74040568Y-68327266D01*
X73975039Y-68233680D01*
X73910046Y-68140859D01*
X73749140Y-67979953D01*
X73562735Y-67849432D01*
X73356497Y-67753261D01*
X73136689Y-67694364D01*
X72910000Y-67674531D01*
X72683310Y-67694364D01*
X72463502Y-67753261D01*
X72257264Y-67849432D01*
X72070859Y-67979953D01*
X71909953Y-68140859D01*
X71779430Y-68327267D01*
X71752105Y-68385866D01*
X71706348Y-68438041D01*
X71639723Y-68457460D01*
X71573099Y-68438040D01*
X71527342Y-68385865D01*
X71500134Y-68327519D01*
X71369658Y-68141180D01*
X71208819Y-67980341D01*
X71022480Y-67849865D01*
X70816326Y-67753733D01*
X70620000Y-67701128D01*
X70620000Y-71058871D01*
X70120000Y-71058871D01*
X70120000Y-69630000D01*
X69070000Y-69630000D01*
X64645147Y-69630000D01*
X64645147Y-69130000D01*
X69070000Y-69130000D01*
X70120000Y-69130000D01*
X70120000Y-67701128D01*
X70119999Y-67701128D01*
X69923673Y-67753733D01*
X69717519Y-67849865D01*
X69531180Y-67980341D01*
X69370341Y-68141180D01*
X69239865Y-68327519D01*
X69143733Y-68533673D01*
X69084858Y-68753397D01*
X69070000Y-68923235D01*
X69070000Y-69130000D01*
X64645147Y-69130000D01*
X64645147Y-68565499D01*
X64640957Y-68533673D01*
X64627917Y-68434629D01*
X64577403Y-68312677D01*
X64554122Y-68282338D01*
X64535081Y-68246713D01*
X64528500Y-68206854D01*
X64528500Y-66398847D01*
X64544047Y-66338731D01*
X64586790Y-66293689D01*
X64646010Y-66275017D01*
X64706858Y-66287396D01*
X64754074Y-66327723D01*
X64772820Y-66354495D01*
X64774505Y-66356901D01*
X64941599Y-66523995D01*
X65135170Y-66659535D01*
X65349337Y-66759403D01*
X65577592Y-66820563D01*
X65813000Y-66841159D01*
X66048408Y-66820563D01*
X66276663Y-66759403D01*
X66490830Y-66659535D01*
X66684401Y-66523995D01*
X66806717Y-66401678D01*
X66859460Y-66370385D01*
X66920752Y-66368196D01*
X66975597Y-66395649D01*
X67010577Y-66446028D01*
X67059647Y-66577588D01*
X67145811Y-66692688D01*
X67260910Y-66778852D01*
X67395624Y-66829097D01*
X67455176Y-66835500D01*
X68103000Y-66835500D01*
X68103000Y-65735500D01*
X68603000Y-65735500D01*
X68603000Y-66835500D01*
X69250824Y-66835500D01*
X69310375Y-66829097D01*
X69445089Y-66778852D01*
X69560188Y-66692688D01*
X69646352Y-66577589D01*
X69696597Y-66442875D01*
X69703000Y-66383324D01*
X69703000Y-65735500D01*
X68603000Y-65735500D01*
X68103000Y-65735500D01*
X68103000Y-64135500D01*
X68603000Y-64135500D01*
X68603000Y-65235500D01*
X69703000Y-65235500D01*
X69703000Y-64587676D01*
X69696597Y-64528124D01*
X69646352Y-64393410D01*
X69560188Y-64278311D01*
X69445089Y-64192147D01*
X69310375Y-64141902D01*
X69250824Y-64135500D01*
X68603000Y-64135500D01*
X68103000Y-64135500D01*
X67455176Y-64135500D01*
X67395624Y-64141902D01*
X67244207Y-64198378D01*
X67243558Y-64196640D01*
X67203553Y-64211970D01*
X67136996Y-64199348D01*
X67087005Y-64153631D01*
X67068500Y-64088464D01*
X67068500Y-62782686D01*
X67069280Y-62768802D01*
X67073238Y-62733673D01*
X67068781Y-62667568D01*
X67068500Y-62659226D01*
X67068500Y-62649350D01*
X67068500Y-62649345D01*
X67064839Y-62608678D01*
X67064630Y-62606016D01*
X67058096Y-62509088D01*
X67057028Y-62504852D01*
X67053768Y-62485669D01*
X67053377Y-62481312D01*
X67027533Y-62387669D01*
X67026839Y-62385043D01*
X67003096Y-62290816D01*
X67001290Y-62286840D01*
X66994655Y-62268540D01*
X66993493Y-62264330D01*
X66951346Y-62176811D01*
X66950189Y-62174339D01*
X66922213Y-62112746D01*
X66910008Y-62085875D01*
X66909062Y-62084510D01*
X66907517Y-62082280D01*
X66897724Y-62065462D01*
X66897343Y-62064672D01*
X66895829Y-62061527D01*
X66838740Y-61982950D01*
X66837162Y-61980728D01*
X66781820Y-61900846D01*
X66778734Y-61897760D01*
X66766091Y-61882958D01*
X66763522Y-61879422D01*
X66693299Y-61812282D01*
X66691310Y-61810336D01*
X66657525Y-61776551D01*
X66648126Y-61768704D01*
X66641905Y-61763145D01*
X66622567Y-61744656D01*
X66619634Y-61741851D01*
X66586045Y-61686108D01*
X66585315Y-61621028D01*
X66617644Y-61564545D01*
X66633340Y-61548850D01*
X66723908Y-61402016D01*
X66778174Y-61238253D01*
X66788500Y-61137177D01*
X66788499Y-60463824D01*
X66778174Y-60362747D01*
X66723908Y-60198984D01*
X66633340Y-60052150D01*
X66633339Y-60052149D01*
X66633338Y-60052147D01*
X66566036Y-59984845D01*
X66546331Y-59959166D01*
X66545535Y-59957788D01*
X66545533Y-59957784D01*
X66464435Y-59867716D01*
X66418870Y-59817110D01*
X66291840Y-59724818D01*
X66252526Y-59677297D01*
X66240970Y-59616714D01*
X66260028Y-59558057D01*
X66304988Y-59515838D01*
X66364725Y-59500500D01*
X72601213Y-59500500D01*
X72667470Y-59519686D01*
X72713224Y-59571307D01*
X72724316Y-59639388D01*
X72697314Y-59702860D01*
X72696562Y-59703784D01*
X72685299Y-59717596D01*
X72671210Y-59744566D01*
X72663082Y-59757983D01*
X72645705Y-59782950D01*
X72622439Y-59837165D01*
X72618399Y-59845671D01*
X72591090Y-59897952D01*
X72582720Y-59927201D01*
X72577459Y-59941978D01*
X72565460Y-59969942D01*
X72553587Y-60027713D01*
X72551342Y-60036860D01*
X72535113Y-60093580D01*
X72532802Y-60123925D01*
X72530622Y-60139466D01*
X72524500Y-60169259D01*
X72524500Y-60228242D01*
X72524142Y-60237656D01*
X72519663Y-60296477D01*
X72523506Y-60326651D01*
X72524500Y-60342317D01*
X72524500Y-60681740D01*
X72539926Y-60833439D01*
X72543814Y-60845831D01*
X72549500Y-60882948D01*
X72549500Y-60967676D01*
X72559825Y-61068752D01*
X72614091Y-61232515D01*
X72704661Y-61379352D01*
X72743628Y-61418319D01*
X72775722Y-61473906D01*
X72775722Y-61538094D01*
X72743628Y-61593681D01*
X72704661Y-61632647D01*
X72614091Y-61779484D01*
X72559825Y-61943246D01*
X72549500Y-62044323D01*
X72549500Y-62144994D01*
X72546962Y-62169954D01*
X72524500Y-62279259D01*
X72524500Y-64401225D01*
X72518761Y-64438512D01*
X72502075Y-64472348D01*
X72385965Y-64638170D01*
X72286097Y-64852336D01*
X72224936Y-65080592D01*
X72204340Y-65316000D01*
X72224936Y-65551407D01*
X72257877Y-65674345D01*
X72286097Y-65779663D01*
X72385965Y-65993830D01*
X72521505Y-66187401D01*
X72688599Y-66354495D01*
X72882170Y-66490035D01*
X73096337Y-66589903D01*
X73324592Y-66651063D01*
X73560000Y-66671659D01*
X73795408Y-66651063D01*
X74023663Y-66589903D01*
X74237830Y-66490035D01*
X74431401Y-66354495D01*
X74598495Y-66187401D01*
X74728426Y-66001839D01*
X74772743Y-65962975D01*
X74830000Y-65948964D01*
X74887257Y-65962975D01*
X74931573Y-66001839D01*
X75061505Y-66187401D01*
X75228599Y-66354495D01*
X75422170Y-66490035D01*
X75636337Y-66589903D01*
X75864592Y-66651063D01*
X76100000Y-66671659D01*
X76335408Y-66651063D01*
X76563663Y-66589903D01*
X76777830Y-66490035D01*
X76971401Y-66354495D01*
X77138495Y-66187401D01*
X77268426Y-66001839D01*
X77312743Y-65962975D01*
X77370000Y-65948964D01*
X77427257Y-65962975D01*
X77471573Y-66001839D01*
X77601505Y-66187401D01*
X77768599Y-66354495D01*
X77962170Y-66490035D01*
X78176337Y-66589903D01*
X78404592Y-66651063D01*
X78640000Y-66671659D01*
X78875408Y-66651063D01*
X79103663Y-66589903D01*
X79317830Y-66490035D01*
X79511401Y-66354495D01*
X79678495Y-66187401D01*
X79808426Y-66001839D01*
X79852743Y-65962975D01*
X79910000Y-65948964D01*
X79967257Y-65962975D01*
X80011573Y-66001839D01*
X80141505Y-66187401D01*
X80308599Y-66354495D01*
X80502170Y-66490035D01*
X80716337Y-66589903D01*
X80944592Y-66651063D01*
X81180000Y-66671659D01*
X81415408Y-66651063D01*
X81643663Y-66589903D01*
X81857830Y-66490035D01*
X82051401Y-66354495D01*
X82218495Y-66187401D01*
X82348426Y-66001839D01*
X82392743Y-65962975D01*
X82450000Y-65948964D01*
X82507257Y-65962975D01*
X82551573Y-66001839D01*
X82681505Y-66187401D01*
X82848599Y-66354495D01*
X83042170Y-66490035D01*
X83256337Y-66589903D01*
X83484592Y-66651063D01*
X83720000Y-66671659D01*
X83955408Y-66651063D01*
X84183663Y-66589903D01*
X84397830Y-66490035D01*
X84591401Y-66354495D01*
X84758495Y-66187401D01*
X84888426Y-66001839D01*
X84932743Y-65962975D01*
X84990000Y-65948964D01*
X85047257Y-65962975D01*
X85091573Y-66001839D01*
X85221505Y-66187401D01*
X85388599Y-66354495D01*
X85582170Y-66490035D01*
X85796337Y-66589903D01*
X86024592Y-66651063D01*
X86260000Y-66671659D01*
X86495408Y-66651063D01*
X86723663Y-66589903D01*
X86937830Y-66490035D01*
X87131401Y-66354495D01*
X87298495Y-66187401D01*
X87428426Y-66001839D01*
X87472743Y-65962975D01*
X87530000Y-65948964D01*
X87587257Y-65962975D01*
X87631573Y-66001839D01*
X87761505Y-66187401D01*
X87928599Y-66354495D01*
X88122170Y-66490035D01*
X88336337Y-66589903D01*
X88564592Y-66651063D01*
X88800000Y-66671659D01*
X89035408Y-66651063D01*
X89263663Y-66589903D01*
X89477830Y-66490035D01*
X89671401Y-66354495D01*
X89838495Y-66187401D01*
X89968426Y-66001839D01*
X90012743Y-65962975D01*
X90070000Y-65948964D01*
X90127257Y-65962975D01*
X90171573Y-66001839D01*
X90301505Y-66187401D01*
X90468599Y-66354495D01*
X90662170Y-66490035D01*
X90876337Y-66589903D01*
X91104592Y-66651063D01*
X91340000Y-66671659D01*
X91575408Y-66651063D01*
X91803663Y-66589903D01*
X92017830Y-66490035D01*
X92211401Y-66354495D01*
X92378495Y-66187401D01*
X92508426Y-66001839D01*
X92552743Y-65962975D01*
X92610000Y-65948964D01*
X92667257Y-65962975D01*
X92711573Y-66001839D01*
X92841505Y-66187401D01*
X93008599Y-66354495D01*
X93202170Y-66490035D01*
X93416337Y-66589903D01*
X93644592Y-66651063D01*
X93880000Y-66671659D01*
X94115408Y-66651063D01*
X94343663Y-66589903D01*
X94557830Y-66490035D01*
X94751401Y-66354495D01*
X94918495Y-66187401D01*
X95048426Y-66001839D01*
X95092743Y-65962975D01*
X95150000Y-65948964D01*
X95207257Y-65962975D01*
X95251573Y-66001839D01*
X95381505Y-66187401D01*
X95548599Y-66354495D01*
X95742170Y-66490035D01*
X95956337Y-66589903D01*
X96184592Y-66651063D01*
X96420000Y-66671659D01*
X96655408Y-66651063D01*
X96883663Y-66589903D01*
X97097830Y-66490035D01*
X97291401Y-66354495D01*
X97458495Y-66187401D01*
X97588426Y-66001839D01*
X97632743Y-65962975D01*
X97690000Y-65948964D01*
X97747257Y-65962975D01*
X97791573Y-66001839D01*
X97921505Y-66187401D01*
X98088599Y-66354495D01*
X98282170Y-66490035D01*
X98496337Y-66589903D01*
X98724592Y-66651063D01*
X98960000Y-66671659D01*
X99195408Y-66651063D01*
X99423663Y-66589903D01*
X99637830Y-66490035D01*
X99831401Y-66354495D01*
X99998495Y-66187401D01*
X100128426Y-66001839D01*
X100172743Y-65962975D01*
X100230000Y-65948964D01*
X100287257Y-65962975D01*
X100331573Y-66001839D01*
X100461505Y-66187401D01*
X100628599Y-66354495D01*
X100822170Y-66490035D01*
X101036337Y-66589903D01*
X101264592Y-66651063D01*
X101500000Y-66671659D01*
X101735408Y-66651063D01*
X101963663Y-66589903D01*
X102177830Y-66490035D01*
X102371401Y-66354495D01*
X102538495Y-66187401D01*
X102668426Y-66001839D01*
X102712743Y-65962975D01*
X102770000Y-65948964D01*
X102827257Y-65962975D01*
X102871573Y-66001839D01*
X103001505Y-66187401D01*
X103168599Y-66354495D01*
X103362170Y-66490035D01*
X103576337Y-66589903D01*
X103804592Y-66651063D01*
X104040000Y-66671659D01*
X104275408Y-66651063D01*
X104503663Y-66589903D01*
X104717830Y-66490035D01*
X104911401Y-66354495D01*
X105078495Y-66187401D01*
X105208426Y-66001839D01*
X105252743Y-65962975D01*
X105310000Y-65948964D01*
X105367257Y-65962975D01*
X105411573Y-66001839D01*
X105541505Y-66187401D01*
X105708599Y-66354495D01*
X105902170Y-66490035D01*
X106116337Y-66589903D01*
X106344592Y-66651063D01*
X106580000Y-66671659D01*
X106815408Y-66651063D01*
X107043663Y-66589903D01*
X107257830Y-66490035D01*
X107451401Y-66354495D01*
X107618495Y-66187401D01*
X107748426Y-66001839D01*
X107792743Y-65962975D01*
X107850000Y-65948964D01*
X107907257Y-65962975D01*
X107951573Y-66001839D01*
X108081505Y-66187401D01*
X108248599Y-66354495D01*
X108442170Y-66490035D01*
X108656337Y-66589903D01*
X108884592Y-66651063D01*
X109120000Y-66671659D01*
X109355408Y-66651063D01*
X109583663Y-66589903D01*
X109797830Y-66490035D01*
X109991401Y-66354495D01*
X110113329Y-66232566D01*
X110166072Y-66201273D01*
X110227365Y-66199084D01*
X110282209Y-66226537D01*
X110317189Y-66276916D01*
X110321098Y-66287396D01*
X110366204Y-66408331D01*
X110452454Y-66523546D01*
X110567669Y-66609796D01*
X110702517Y-66660091D01*
X110762127Y-66666500D01*
X111170500Y-66666500D01*
X111232500Y-66683113D01*
X111277887Y-66728500D01*
X111294500Y-66790500D01*
X111294500Y-69930217D01*
X111285061Y-69977670D01*
X111258181Y-70017898D01*
X111252180Y-70023899D01*
X111202817Y-70054149D01*
X111145101Y-70058691D01*
X111091614Y-70036536D01*
X111054014Y-69992513D01*
X111040499Y-69936218D01*
X111040499Y-68132130D01*
X111040499Y-68132127D01*
X111034091Y-68072517D01*
X110983796Y-67937669D01*
X110897546Y-67822454D01*
X110782331Y-67736204D01*
X110647483Y-67685909D01*
X110587873Y-67679500D01*
X110587869Y-67679500D01*
X108892130Y-67679500D01*
X108832515Y-67685909D01*
X108697669Y-67736204D01*
X108582454Y-67822454D01*
X108496204Y-67937668D01*
X108445909Y-68072516D01*
X108442138Y-68107593D01*
X108421759Y-68163515D01*
X108377670Y-68203498D01*
X108320029Y-68218332D01*
X108262116Y-68204599D01*
X108217273Y-68165462D01*
X108200044Y-68140857D01*
X108039140Y-67979953D01*
X107852735Y-67849432D01*
X107646497Y-67753261D01*
X107426689Y-67694364D01*
X107200000Y-67674531D01*
X106973310Y-67694364D01*
X106753502Y-67753261D01*
X106547264Y-67849432D01*
X106360859Y-67979953D01*
X106199953Y-68140859D01*
X106069433Y-68327263D01*
X106042382Y-68385275D01*
X105996625Y-68437450D01*
X105930000Y-68456869D01*
X105863375Y-68437450D01*
X105817618Y-68385275D01*
X105790568Y-68327266D01*
X105725039Y-68233680D01*
X105660046Y-68140859D01*
X105499140Y-67979953D01*
X105312735Y-67849432D01*
X105106497Y-67753261D01*
X104886689Y-67694364D01*
X104660000Y-67674531D01*
X104433310Y-67694364D01*
X104213502Y-67753261D01*
X104007264Y-67849432D01*
X103820859Y-67979953D01*
X103659953Y-68140859D01*
X103529433Y-68327263D01*
X103502382Y-68385275D01*
X103456625Y-68437450D01*
X103390000Y-68456869D01*
X103323375Y-68437450D01*
X103277618Y-68385275D01*
X103250568Y-68327266D01*
X103185039Y-68233680D01*
X103120046Y-68140859D01*
X102959140Y-67979953D01*
X102772735Y-67849432D01*
X102566497Y-67753261D01*
X102346689Y-67694364D01*
X102120000Y-67674531D01*
X101893310Y-67694364D01*
X101673502Y-67753261D01*
X101467264Y-67849432D01*
X101280859Y-67979953D01*
X101119953Y-68140859D01*
X100989433Y-68327263D01*
X100962382Y-68385275D01*
X100916625Y-68437450D01*
X100850000Y-68456869D01*
X100783375Y-68437450D01*
X100737618Y-68385275D01*
X100710568Y-68327266D01*
X100645039Y-68233680D01*
X100580046Y-68140859D01*
X100419140Y-67979953D01*
X100232735Y-67849432D01*
X100026497Y-67753261D01*
X99806689Y-67694364D01*
X99580000Y-67674531D01*
X99353310Y-67694364D01*
X99133502Y-67753261D01*
X98927264Y-67849432D01*
X98740859Y-67979953D01*
X98579953Y-68140859D01*
X98449433Y-68327263D01*
X98422382Y-68385275D01*
X98376625Y-68437450D01*
X98310000Y-68456869D01*
X98243375Y-68437450D01*
X98197618Y-68385275D01*
X98170568Y-68327266D01*
X98105039Y-68233680D01*
X98040046Y-68140859D01*
X97879140Y-67979953D01*
X97692735Y-67849432D01*
X97486497Y-67753261D01*
X97266689Y-67694364D01*
X97040000Y-67674531D01*
X96813310Y-67694364D01*
X96593502Y-67753261D01*
X96387264Y-67849432D01*
X96200859Y-67979953D01*
X96039953Y-68140859D01*
X95909433Y-68327263D01*
X95882382Y-68385275D01*
X95836625Y-68437450D01*
X95770000Y-68456869D01*
X95703375Y-68437450D01*
X95657618Y-68385275D01*
X95630568Y-68327266D01*
X95565039Y-68233680D01*
X95500046Y-68140859D01*
X95339140Y-67979953D01*
X95152735Y-67849432D01*
X94946497Y-67753261D01*
X94726689Y-67694364D01*
X94500000Y-67674531D01*
X94273310Y-67694364D01*
X94053502Y-67753261D01*
X93847264Y-67849432D01*
X93660859Y-67979953D01*
X93499953Y-68140859D01*
X93369430Y-68327267D01*
X93342105Y-68385866D01*
X93296348Y-68438041D01*
X93229723Y-68457460D01*
X93163099Y-68438040D01*
X93117342Y-68385865D01*
X93090134Y-68327519D01*
X92959658Y-68141180D01*
X92798819Y-67980341D01*
X92612480Y-67849865D01*
X92406326Y-67753733D01*
X92210000Y-67701128D01*
X92210000Y-71058871D01*
X92406326Y-71006266D01*
X92612480Y-70910134D01*
X92798819Y-70779658D01*
X92959658Y-70618819D01*
X93090135Y-70432479D01*
X93117342Y-70374135D01*
X93163098Y-70321959D01*
X93229723Y-70302539D01*
X93296348Y-70321958D01*
X93342106Y-70374133D01*
X93369433Y-70432736D01*
X93499953Y-70619140D01*
X93660859Y-70780046D01*
X93847264Y-70910567D01*
X93847265Y-70910567D01*
X93847266Y-70910568D01*
X94053504Y-71006739D01*
X94273308Y-71065635D01*
X94424435Y-71078856D01*
X94499999Y-71085468D01*
X94499999Y-71085467D01*
X94500000Y-71085468D01*
X94726692Y-71065635D01*
X94946496Y-71006739D01*
X95152734Y-70910568D01*
X95339139Y-70780047D01*
X95500047Y-70619139D01*
X95630568Y-70432734D01*
X95657618Y-70374724D01*
X95703375Y-70322549D01*
X95770000Y-70303129D01*
X95836625Y-70322549D01*
X95882382Y-70374725D01*
X95909431Y-70432733D01*
X96039953Y-70619140D01*
X96200859Y-70780046D01*
X96387264Y-70910567D01*
X96387265Y-70910567D01*
X96387266Y-70910568D01*
X96593504Y-71006739D01*
X96813308Y-71065635D01*
X96964435Y-71078856D01*
X97039999Y-71085468D01*
X97039999Y-71085467D01*
X97040000Y-71085468D01*
X97266692Y-71065635D01*
X97486496Y-71006739D01*
X97692734Y-70910568D01*
X97879139Y-70780047D01*
X98040047Y-70619139D01*
X98170568Y-70432734D01*
X98197618Y-70374724D01*
X98243375Y-70322549D01*
X98310000Y-70303129D01*
X98376625Y-70322549D01*
X98422382Y-70374725D01*
X98449431Y-70432733D01*
X98579953Y-70619140D01*
X98740859Y-70780046D01*
X98927264Y-70910567D01*
X98927265Y-70910567D01*
X98927266Y-70910568D01*
X99133504Y-71006739D01*
X99353308Y-71065635D01*
X99504435Y-71078856D01*
X99579999Y-71085468D01*
X99579999Y-71085467D01*
X99580000Y-71085468D01*
X99806692Y-71065635D01*
X100026496Y-71006739D01*
X100232734Y-70910568D01*
X100419139Y-70780047D01*
X100580047Y-70619139D01*
X100710568Y-70432734D01*
X100737618Y-70374724D01*
X100783375Y-70322549D01*
X100850000Y-70303129D01*
X100916625Y-70322549D01*
X100962382Y-70374725D01*
X100989431Y-70432733D01*
X101119953Y-70619140D01*
X101280859Y-70780046D01*
X101467264Y-70910567D01*
X101467265Y-70910567D01*
X101467266Y-70910568D01*
X101673504Y-71006739D01*
X101893308Y-71065635D01*
X102044435Y-71078856D01*
X102119999Y-71085468D01*
X102119999Y-71085467D01*
X102120000Y-71085468D01*
X102346692Y-71065635D01*
X102566496Y-71006739D01*
X102772734Y-70910568D01*
X102959139Y-70780047D01*
X103120047Y-70619139D01*
X103250568Y-70432734D01*
X103277618Y-70374724D01*
X103323375Y-70322549D01*
X103390000Y-70303129D01*
X103456625Y-70322549D01*
X103502382Y-70374725D01*
X103529431Y-70432733D01*
X103659953Y-70619140D01*
X103820859Y-70780046D01*
X104007264Y-70910567D01*
X104007265Y-70910567D01*
X104007266Y-70910568D01*
X104213504Y-71006739D01*
X104433308Y-71065635D01*
X104584435Y-71078856D01*
X104659999Y-71085468D01*
X104659999Y-71085467D01*
X104660000Y-71085468D01*
X104886692Y-71065635D01*
X105106496Y-71006739D01*
X105312734Y-70910568D01*
X105499139Y-70780047D01*
X105660047Y-70619139D01*
X105790568Y-70432734D01*
X105817618Y-70374724D01*
X105863375Y-70322549D01*
X105930000Y-70303129D01*
X105996625Y-70322549D01*
X106042382Y-70374725D01*
X106069431Y-70432733D01*
X106199953Y-70619140D01*
X106360859Y-70780046D01*
X106547264Y-70910567D01*
X106547265Y-70910567D01*
X106547266Y-70910568D01*
X106753504Y-71006739D01*
X106973308Y-71065635D01*
X107124435Y-71078856D01*
X107199999Y-71085468D01*
X107199999Y-71085467D01*
X107200000Y-71085468D01*
X107426692Y-71065635D01*
X107646496Y-71006739D01*
X107852734Y-70910568D01*
X108039139Y-70780047D01*
X108200047Y-70619139D01*
X108217273Y-70594536D01*
X108262113Y-70555400D01*
X108320027Y-70541666D01*
X108377669Y-70556499D01*
X108421758Y-70596483D01*
X108442138Y-70652405D01*
X108445909Y-70687484D01*
X108462604Y-70732244D01*
X108496204Y-70822331D01*
X108582454Y-70937546D01*
X108697669Y-71023796D01*
X108832517Y-71074091D01*
X108892127Y-71080500D01*
X109896217Y-71080499D01*
X109952512Y-71094014D01*
X109996535Y-71131614D01*
X110018690Y-71185101D01*
X110014148Y-71242817D01*
X109983898Y-71292180D01*
X106502646Y-74773432D01*
X106500399Y-74775623D01*
X106436948Y-74835939D01*
X106403244Y-74884362D01*
X106397573Y-74891882D01*
X106360301Y-74937593D01*
X106346210Y-74964566D01*
X106338082Y-74977983D01*
X106320705Y-75002950D01*
X106297439Y-75057165D01*
X106293399Y-75065671D01*
X106266090Y-75117952D01*
X106257720Y-75147201D01*
X106252459Y-75161978D01*
X106240460Y-75189942D01*
X106228587Y-75247713D01*
X106226342Y-75256860D01*
X106210113Y-75313580D01*
X106210053Y-75314364D01*
X106208378Y-75336368D01*
X106207802Y-75343925D01*
X106205622Y-75359466D01*
X106199500Y-75389259D01*
X106199500Y-75448242D01*
X106199142Y-75457656D01*
X106194663Y-75516477D01*
X106198506Y-75546651D01*
X106199500Y-75562317D01*
X106199500Y-75722412D01*
X106193761Y-75759699D01*
X106177075Y-75793533D01*
X106157664Y-75821257D01*
X106069430Y-75947267D01*
X106042105Y-76005866D01*
X105996348Y-76058041D01*
X105929723Y-76077460D01*
X105863099Y-76058040D01*
X105817342Y-76005865D01*
X105790134Y-75947519D01*
X105659658Y-75761180D01*
X105498819Y-75600341D01*
X105312480Y-75469865D01*
X105106326Y-75373733D01*
X104910000Y-75321128D01*
X104910000Y-78678871D01*
X105106326Y-78626266D01*
X105312480Y-78530134D01*
X105498819Y-78399658D01*
X105659658Y-78238819D01*
X105790135Y-78052479D01*
X105817342Y-77994135D01*
X105863098Y-77941959D01*
X105929723Y-77922539D01*
X105996348Y-77941958D01*
X106042105Y-77994132D01*
X106069432Y-78052733D01*
X106069433Y-78052736D01*
X106199953Y-78239140D01*
X106360859Y-78400046D01*
X106547264Y-78530567D01*
X106547265Y-78530567D01*
X106547266Y-78530568D01*
X106753504Y-78626739D01*
X106973308Y-78685635D01*
X107124436Y-78698857D01*
X107199999Y-78705468D01*
X107199999Y-78705467D01*
X107200000Y-78705468D01*
X107426692Y-78685635D01*
X107646496Y-78626739D01*
X107852734Y-78530568D01*
X108039139Y-78400047D01*
X108200047Y-78239139D01*
X108330568Y-78052734D01*
X108357618Y-77994724D01*
X108403375Y-77942549D01*
X108470000Y-77923129D01*
X108536625Y-77942549D01*
X108582382Y-77994725D01*
X108609431Y-78052733D01*
X108739953Y-78239140D01*
X108900859Y-78400046D01*
X109087264Y-78530567D01*
X109087265Y-78530567D01*
X109087266Y-78530568D01*
X109293504Y-78626739D01*
X109513308Y-78685635D01*
X109664436Y-78698857D01*
X109739999Y-78705468D01*
X109739999Y-78705467D01*
X109740000Y-78705468D01*
X109966692Y-78685635D01*
X110186496Y-78626739D01*
X110392734Y-78530568D01*
X110579139Y-78400047D01*
X110740047Y-78239139D01*
X110870568Y-78052734D01*
X110966739Y-77846496D01*
X111025635Y-77626692D01*
X111037269Y-77493717D01*
X111040500Y-77456786D01*
X111040500Y-76543214D01*
X111025635Y-76373310D01*
X111025635Y-76373308D01*
X110966739Y-76153504D01*
X110870568Y-75947266D01*
X110865244Y-75939663D01*
X110740046Y-75760859D01*
X110579140Y-75599953D01*
X110392735Y-75469432D01*
X110186497Y-75373261D01*
X109966689Y-75314364D01*
X109739999Y-75294531D01*
X109513310Y-75314364D01*
X109293502Y-75373261D01*
X109087264Y-75469432D01*
X108900859Y-75599953D01*
X108739953Y-75760859D01*
X108609433Y-75947263D01*
X108582382Y-76005275D01*
X108536625Y-76057450D01*
X108470000Y-76076869D01*
X108403375Y-76057450D01*
X108357618Y-76005275D01*
X108330568Y-75947266D01*
X108319445Y-75931381D01*
X108298330Y-75878233D01*
X108303315Y-75821257D01*
X108333338Y-75772581D01*
X112992389Y-71113529D01*
X112994559Y-71111413D01*
X113058053Y-71051059D01*
X113091759Y-71002630D01*
X113097428Y-70995113D01*
X113099063Y-70993108D01*
X113134698Y-70949407D01*
X113148783Y-70922439D01*
X113156918Y-70909015D01*
X113170092Y-70890087D01*
X113174295Y-70884049D01*
X113197568Y-70829815D01*
X113201588Y-70821350D01*
X113228909Y-70769049D01*
X113229925Y-70765500D01*
X113237275Y-70739808D01*
X113242539Y-70725019D01*
X113254540Y-70697058D01*
X113266417Y-70639256D01*
X113268652Y-70630148D01*
X113284886Y-70573418D01*
X113287196Y-70543078D01*
X113289376Y-70527540D01*
X113295500Y-70497742D01*
X113295500Y-70438756D01*
X113295858Y-70429341D01*
X113296154Y-70425449D01*
X113300337Y-70370524D01*
X113296494Y-70340348D01*
X113295500Y-70324683D01*
X113295500Y-65965279D01*
X113295540Y-65962137D01*
X113297757Y-65874640D01*
X113297756Y-65874639D01*
X113297757Y-65874637D01*
X113287344Y-65816545D01*
X113286042Y-65807260D01*
X113280074Y-65748562D01*
X113270962Y-65719524D01*
X113267224Y-65704291D01*
X113261858Y-65674348D01*
X113239975Y-65619563D01*
X113236815Y-65610686D01*
X113219159Y-65554412D01*
X113204398Y-65527817D01*
X113197663Y-65513636D01*
X113186378Y-65485383D01*
X113153901Y-65436106D01*
X113149040Y-65428082D01*
X113120409Y-65376498D01*
X113120408Y-65376496D01*
X113100593Y-65353415D01*
X113091144Y-65340883D01*
X113074402Y-65315482D01*
X113046819Y-65287899D01*
X113019938Y-65247671D01*
X113010499Y-65200217D01*
X113010499Y-64418130D01*
X113008682Y-64401225D01*
X113004091Y-64358517D01*
X112953796Y-64223669D01*
X112867546Y-64108454D01*
X112752331Y-64022204D01*
X112749307Y-64021076D01*
X112741165Y-64018039D01*
X112698929Y-63991600D01*
X112670512Y-63950670D01*
X112660500Y-63901858D01*
X112660500Y-62330260D01*
X112656489Y-62290816D01*
X112645074Y-62178562D01*
X112641185Y-62166168D01*
X112635499Y-62129049D01*
X112635499Y-62044323D01*
X112625174Y-61943247D01*
X112570908Y-61779484D01*
X112529395Y-61712181D01*
X112480340Y-61632650D01*
X112480339Y-61632649D01*
X112480338Y-61632647D01*
X112441371Y-61593680D01*
X112409277Y-61538092D01*
X112409278Y-61473904D01*
X112441371Y-61418318D01*
X112480340Y-61379350D01*
X112570908Y-61232516D01*
X112625174Y-61068753D01*
X112635500Y-60967677D01*
X112635499Y-60867004D01*
X112638037Y-60842044D01*
X112639806Y-60833439D01*
X112660500Y-60732741D01*
X112660500Y-60185258D01*
X112645074Y-60033562D01*
X112584159Y-59839412D01*
X112502166Y-59691689D01*
X112486638Y-59627915D01*
X112505842Y-59565147D01*
X112554396Y-59520976D01*
X112618692Y-59507779D01*
X112802818Y-59519847D01*
X112817032Y-59521610D01*
X112948459Y-59545695D01*
X112950007Y-59545991D01*
X113112440Y-59578301D01*
X113125102Y-59581523D01*
X113235552Y-59615941D01*
X113259678Y-59623459D01*
X113262645Y-59624425D01*
X113268163Y-59626298D01*
X113412220Y-59675199D01*
X113423244Y-59679538D01*
X113554556Y-59738637D01*
X113558416Y-59740457D01*
X113697458Y-59809025D01*
X113706762Y-59814119D01*
X113795422Y-59867716D01*
X113831185Y-59889335D01*
X113835926Y-59892350D01*
X113963643Y-59977689D01*
X113971225Y-59983180D01*
X114003765Y-60008673D01*
X114086211Y-60073265D01*
X114091487Y-60077640D01*
X114206550Y-60178547D01*
X114212472Y-60184094D01*
X114315904Y-60287526D01*
X114321451Y-60293448D01*
X114422358Y-60408511D01*
X114426741Y-60413797D01*
X114516818Y-60528773D01*
X114522309Y-60536355D01*
X114607648Y-60664072D01*
X114610663Y-60668813D01*
X114685878Y-60793234D01*
X114690973Y-60802540D01*
X114759519Y-60941536D01*
X114761383Y-60945489D01*
X114820458Y-61076750D01*
X114824801Y-61087783D01*
X114875573Y-61237353D01*
X114876539Y-61240320D01*
X114918470Y-61374878D01*
X114921702Y-61387578D01*
X114953976Y-61549832D01*
X114954328Y-61551672D01*
X114978386Y-61682954D01*
X114980151Y-61697195D01*
X114993498Y-61900828D01*
X114993538Y-61901450D01*
X114999274Y-61996264D01*
X114999500Y-62003752D01*
X114999500Y-87496248D01*
X114999274Y-87503736D01*
X114993538Y-87598548D01*
X114993498Y-87599170D01*
X114980151Y-87802803D01*
X114978386Y-87817044D01*
X114954328Y-87948326D01*
X114953976Y-87950166D01*
X114921702Y-88112420D01*
X114918470Y-88125120D01*
X114876539Y-88259678D01*
X114875573Y-88262645D01*
X114824801Y-88412215D01*
X114820458Y-88423248D01*
X114761383Y-88554509D01*
X114759519Y-88558462D01*
X114690973Y-88697458D01*
X114685878Y-88706764D01*
X114610663Y-88831185D01*
X114607648Y-88835926D01*
X114522309Y-88963643D01*
X114516818Y-88971225D01*
X114426741Y-89086201D01*
X114422358Y-89091487D01*
X114321451Y-89206550D01*
X114315904Y-89212472D01*
X114212472Y-89315904D01*
X114206550Y-89321451D01*
X114091487Y-89422358D01*
X114086201Y-89426741D01*
X113971225Y-89516818D01*
X113963643Y-89522309D01*
X113835926Y-89607648D01*
X113831185Y-89610663D01*
X113706764Y-89685878D01*
X113697458Y-89690973D01*
X113558462Y-89759519D01*
X113554509Y-89761383D01*
X113423248Y-89820458D01*
X113412215Y-89824801D01*
X113262645Y-89875573D01*
X113259678Y-89876539D01*
X113125120Y-89918470D01*
X113112420Y-89921702D01*
X112950166Y-89953976D01*
X112948326Y-89954328D01*
X112817044Y-89978386D01*
X112802803Y-89980151D01*
X112599170Y-89993498D01*
X112598548Y-89993538D01*
X112503736Y-89999274D01*
X112496248Y-89999500D01*
X40003752Y-89999500D01*
X39996264Y-89999274D01*
X39901450Y-89993538D01*
X39900828Y-89993498D01*
X39697195Y-89980151D01*
X39682954Y-89978386D01*
X39551672Y-89954328D01*
X39549832Y-89953976D01*
X39387578Y-89921702D01*
X39374878Y-89918470D01*
X39240320Y-89876539D01*
X39237353Y-89875573D01*
X39087783Y-89824801D01*
X39076750Y-89820458D01*
X38945489Y-89761383D01*
X38941536Y-89759519D01*
X38802540Y-89690973D01*
X38793234Y-89685878D01*
X38668813Y-89610663D01*
X38664072Y-89607648D01*
X38536355Y-89522309D01*
X38528773Y-89516818D01*
X38413797Y-89426741D01*
X38408511Y-89422358D01*
X38293448Y-89321451D01*
X38287526Y-89315904D01*
X38184094Y-89212472D01*
X38178547Y-89206550D01*
X38077640Y-89091487D01*
X38073257Y-89086201D01*
X37983180Y-88971225D01*
X37977689Y-88963643D01*
X37892350Y-88835926D01*
X37889335Y-88831185D01*
X37814120Y-88706764D01*
X37809025Y-88697458D01*
X37740457Y-88558416D01*
X37738637Y-88554556D01*
X37679538Y-88423244D01*
X37675197Y-88412215D01*
X37624425Y-88262645D01*
X37623459Y-88259678D01*
X37615152Y-88233020D01*
X37581523Y-88125102D01*
X37578301Y-88112440D01*
X37545991Y-87950007D01*
X37545695Y-87948459D01*
X37521610Y-87817032D01*
X37519847Y-87802818D01*
X37506493Y-87599066D01*
X37506460Y-87598535D01*
X37505315Y-87579611D01*
X37500726Y-87503735D01*
X37500500Y-87496249D01*
X37500500Y-72686000D01*
X40841000Y-72686000D01*
X41941000Y-72686000D01*
X41941000Y-71586000D01*
X42441000Y-71586000D01*
X42441000Y-72686000D01*
X43541000Y-72686000D01*
X43541000Y-72038176D01*
X43534597Y-71978624D01*
X43484352Y-71843910D01*
X43398188Y-71728811D01*
X43283089Y-71642647D01*
X43148375Y-71592402D01*
X43088824Y-71586000D01*
X42441000Y-71586000D01*
X41941000Y-71586000D01*
X41293176Y-71586000D01*
X41233624Y-71592402D01*
X41098910Y-71642647D01*
X40983811Y-71728811D01*
X40897647Y-71843910D01*
X40847402Y-71978624D01*
X40841000Y-72038176D01*
X40841000Y-72686000D01*
X37500500Y-72686000D01*
X37500500Y-65735500D01*
X44162364Y-65735500D01*
X44219569Y-65948992D01*
X44319399Y-66163076D01*
X44454893Y-66356581D01*
X44621918Y-66523606D01*
X44815423Y-66659100D01*
X45029507Y-66758930D01*
X45242999Y-66816135D01*
X45243000Y-66816136D01*
X45243000Y-65735500D01*
X44162364Y-65735500D01*
X37500500Y-65735500D01*
X37500500Y-65235500D01*
X44162364Y-65235500D01*
X45243000Y-65235500D01*
X45243000Y-64154864D01*
X45242999Y-64154864D01*
X45029507Y-64212069D01*
X44815421Y-64311900D01*
X44621921Y-64447390D01*
X44454890Y-64614421D01*
X44319400Y-64807921D01*
X44219569Y-65022007D01*
X44162364Y-65235499D01*
X44162364Y-65235500D01*
X37500500Y-65235500D01*
X37500500Y-63067764D01*
X39145787Y-63067764D01*
X39175413Y-63337016D01*
X39243928Y-63599087D01*
X39349871Y-63848392D01*
X39490982Y-64079611D01*
X39664253Y-64287818D01*
X39664255Y-64287820D01*
X39865998Y-64468582D01*
X40091910Y-64618044D01*
X40134843Y-64638170D01*
X40337177Y-64733021D01*
X40560126Y-64800096D01*
X40596569Y-64811060D01*
X40864561Y-64850500D01*
X41067631Y-64850500D01*
X41067634Y-64850500D01*
X41270156Y-64835677D01*
X41270156Y-64835676D01*
X41534553Y-64776780D01*
X41787558Y-64680014D01*
X42023777Y-64547441D01*
X42238177Y-64381888D01*
X42426186Y-64186881D01*
X42583799Y-63966579D01*
X42707656Y-63725675D01*
X42795118Y-63469305D01*
X42844319Y-63202933D01*
X42854212Y-62932235D01*
X42824586Y-62662982D01*
X42756072Y-62400912D01*
X42650130Y-62151610D01*
X42557909Y-62000500D01*
X42509017Y-61920388D01*
X42335746Y-61712181D01*
X42320721Y-61698719D01*
X42134002Y-61531418D01*
X41908090Y-61381956D01*
X41902531Y-61379350D01*
X41662822Y-61266978D01*
X41403437Y-61188941D01*
X41403431Y-61188940D01*
X41135439Y-61149500D01*
X40932369Y-61149500D01*
X40932366Y-61149500D01*
X40729843Y-61164322D01*
X40465449Y-61223219D01*
X40212441Y-61319986D01*
X39976223Y-61452559D01*
X39761825Y-61618109D01*
X39573813Y-61813120D01*
X39416201Y-62033420D01*
X39292342Y-62274329D01*
X39204881Y-62530695D01*
X39155680Y-62797066D01*
X39145787Y-63067764D01*
X37500500Y-63067764D01*
X37500500Y-62003750D01*
X37500726Y-61996263D01*
X37506461Y-61901451D01*
X37506500Y-61900829D01*
X37507903Y-61879422D01*
X37519848Y-61697178D01*
X37521609Y-61682971D01*
X37545705Y-61551486D01*
X37545981Y-61550042D01*
X37578303Y-61387550D01*
X37581520Y-61374905D01*
X37623474Y-61240273D01*
X37624409Y-61237401D01*
X37675204Y-61087765D01*
X37679532Y-61076769D01*
X37738657Y-60945398D01*
X37740435Y-60941627D01*
X37809036Y-60802518D01*
X37814107Y-60793256D01*
X37889363Y-60668767D01*
X37892321Y-60664116D01*
X37977694Y-60536346D01*
X37983164Y-60528794D01*
X38073294Y-60413751D01*
X38077615Y-60408540D01*
X38178576Y-60293416D01*
X38184064Y-60287557D01*
X38287557Y-60184064D01*
X38293416Y-60178576D01*
X38408540Y-60077615D01*
X38413751Y-60073294D01*
X38528794Y-59983164D01*
X38536346Y-59977694D01*
X38664116Y-59892321D01*
X38668767Y-59889363D01*
X38793256Y-59814107D01*
X38802518Y-59809036D01*
X38941627Y-59740435D01*
X38945398Y-59738657D01*
X39076769Y-59679532D01*
X39087765Y-59675204D01*
X39237401Y-59624409D01*
X39240273Y-59623474D01*
X39374905Y-59581520D01*
X39387550Y-59578303D01*
X39550042Y-59545981D01*
X39551486Y-59545705D01*
X39682971Y-59521609D01*
X39697176Y-59519848D01*
X39901056Y-59506485D01*
X39901080Y-59506483D01*
X39996263Y-59500726D01*
X40003750Y-59500500D01*
X47481275Y-59500500D01*
X47541012Y-59515838D01*
G37*
%TD.AperFunction*%
%TA.AperFunction,Conductor*%
G36*
X61561623Y-79890048D02*
G01*
X61607380Y-79942222D01*
X61620527Y-79970415D01*
X61634433Y-80000236D01*
X61764953Y-80186640D01*
X61925859Y-80347546D01*
X62112264Y-80478067D01*
X62112265Y-80478067D01*
X62112266Y-80478068D01*
X62318504Y-80574239D01*
X62538308Y-80633135D01*
X62765000Y-80652968D01*
X62991692Y-80633135D01*
X63211496Y-80574239D01*
X63417734Y-80478068D01*
X63604139Y-80347547D01*
X63765047Y-80186639D01*
X63782273Y-80162036D01*
X63827113Y-80122900D01*
X63885027Y-80109166D01*
X63942669Y-80123999D01*
X63986758Y-80163983D01*
X64007138Y-80219905D01*
X64010909Y-80254984D01*
X64034477Y-80318171D01*
X64061204Y-80389831D01*
X64147454Y-80505046D01*
X64262669Y-80591296D01*
X64397517Y-80641591D01*
X64457127Y-80648000D01*
X65672138Y-80647999D01*
X65728433Y-80661514D01*
X65772456Y-80699114D01*
X65794611Y-80752601D01*
X65790069Y-80810317D01*
X65759819Y-80859680D01*
X62185264Y-84434235D01*
X62170472Y-84446869D01*
X62159130Y-84455110D01*
X62113751Y-84505508D01*
X62109288Y-84510212D01*
X62094874Y-84524626D01*
X62082058Y-84540451D01*
X62077852Y-84545376D01*
X62032466Y-84595784D01*
X62025458Y-84607922D01*
X62014442Y-84623950D01*
X62005619Y-84634845D01*
X61974818Y-84695295D01*
X61971722Y-84700996D01*
X61937822Y-84759713D01*
X61937821Y-84759715D01*
X61937821Y-84759716D01*
X61935462Y-84766978D01*
X61933488Y-84773052D01*
X61926044Y-84791022D01*
X61919680Y-84803512D01*
X61902126Y-84869017D01*
X61900284Y-84875234D01*
X61879325Y-84939743D01*
X61877860Y-84953686D01*
X61874315Y-84972814D01*
X61870686Y-84986355D01*
X61867136Y-85054091D01*
X61866627Y-85060554D01*
X61864500Y-85080802D01*
X61864500Y-85101174D01*
X61864330Y-85107664D01*
X61860111Y-85188159D01*
X61849561Y-85232104D01*
X61823963Y-85269350D01*
X61764951Y-85328362D01*
X61634431Y-85514766D01*
X61607380Y-85572776D01*
X61561622Y-85624951D01*
X61494997Y-85644369D01*
X61428373Y-85624949D01*
X61382617Y-85572773D01*
X61364266Y-85533420D01*
X61355568Y-85514766D01*
X61355567Y-85514764D01*
X61225046Y-85328359D01*
X61064140Y-85167453D01*
X60877735Y-85036932D01*
X60671497Y-84940761D01*
X60451689Y-84881864D01*
X60225000Y-84862031D01*
X59998310Y-84881864D01*
X59778502Y-84940761D01*
X59572264Y-85036932D01*
X59385859Y-85167453D01*
X59224953Y-85328359D01*
X59094430Y-85514767D01*
X59067105Y-85573366D01*
X59021348Y-85625541D01*
X58954723Y-85644960D01*
X58888099Y-85625540D01*
X58842342Y-85573365D01*
X58815134Y-85515019D01*
X58684658Y-85328680D01*
X58523819Y-85167841D01*
X58337480Y-85037365D01*
X58131326Y-84941233D01*
X57935000Y-84888628D01*
X57935000Y-86693500D01*
X57918387Y-86755500D01*
X57873000Y-86800887D01*
X57811000Y-86817500D01*
X57559000Y-86817500D01*
X57497000Y-86800887D01*
X57451613Y-86755500D01*
X57435000Y-86693500D01*
X57435000Y-84888628D01*
X57434999Y-84888628D01*
X57238673Y-84941233D01*
X57032519Y-85037365D01*
X56846180Y-85167841D01*
X56685341Y-85328680D01*
X56554863Y-85515022D01*
X56527656Y-85573366D01*
X56481899Y-85625541D01*
X56415274Y-85644960D01*
X56348650Y-85625540D01*
X56302893Y-85573365D01*
X56302618Y-85572776D01*
X56275568Y-85514766D01*
X56234827Y-85456582D01*
X56145046Y-85328359D01*
X55984140Y-85167453D01*
X55948377Y-85142412D01*
X55909511Y-85098094D01*
X55895500Y-85040837D01*
X55895500Y-82995322D01*
X55912113Y-82933322D01*
X55972179Y-82829284D01*
X55972179Y-82829283D01*
X56030674Y-82649256D01*
X56050460Y-82461000D01*
X56030674Y-82272744D01*
X55991825Y-82153181D01*
X55972179Y-82092715D01*
X55877533Y-81928783D01*
X55750870Y-81788110D01*
X55597730Y-81676848D01*
X55424802Y-81599855D01*
X55359670Y-81586011D01*
X55326283Y-81573694D01*
X55297770Y-81552402D01*
X54485814Y-80740446D01*
X54452673Y-80680659D01*
X54456251Y-80612394D01*
X54495460Y-80556399D01*
X54558384Y-80529689D01*
X54625900Y-80540383D01*
X54698504Y-80574239D01*
X54918308Y-80633135D01*
X55145000Y-80652968D01*
X55371692Y-80633135D01*
X55591496Y-80574239D01*
X55797734Y-80478068D01*
X55984139Y-80347547D01*
X56145047Y-80186639D01*
X56275568Y-80000234D01*
X56302619Y-79942221D01*
X56348372Y-79890049D01*
X56414997Y-79870629D01*
X56481623Y-79890048D01*
X56527380Y-79942222D01*
X56540527Y-79970415D01*
X56554433Y-80000236D01*
X56684953Y-80186640D01*
X56845859Y-80347546D01*
X57032264Y-80478067D01*
X57032265Y-80478067D01*
X57032266Y-80478068D01*
X57238504Y-80574239D01*
X57458308Y-80633135D01*
X57685000Y-80652968D01*
X57911692Y-80633135D01*
X58131496Y-80574239D01*
X58337734Y-80478068D01*
X58524139Y-80347547D01*
X58685047Y-80186639D01*
X58815568Y-80000234D01*
X58842619Y-79942221D01*
X58888372Y-79890049D01*
X58954997Y-79870629D01*
X59021623Y-79890048D01*
X59067380Y-79942222D01*
X59080527Y-79970415D01*
X59094433Y-80000236D01*
X59224953Y-80186640D01*
X59385859Y-80347546D01*
X59572264Y-80478067D01*
X59572265Y-80478067D01*
X59572266Y-80478068D01*
X59778504Y-80574239D01*
X59998308Y-80633135D01*
X60225000Y-80652968D01*
X60451692Y-80633135D01*
X60671496Y-80574239D01*
X60877734Y-80478068D01*
X61064139Y-80347547D01*
X61225047Y-80186639D01*
X61355568Y-80000234D01*
X61382619Y-79942221D01*
X61428372Y-79890049D01*
X61494997Y-79870629D01*
X61561623Y-79890048D01*
G37*
%TD.AperFunction*%
%TD*%
M02*
