G04 #@! TF.GenerationSoftware,KiCad,Pcbnew,5.1.5+dfsg1-2build2*
G04 #@! TF.CreationDate,2021-06-30T22:55:55+02:00*
G04 #@! TF.ProjectId,solar_mppt1,736f6c61-725f-46d7-9070-74312e6b6963,rev?*
G04 #@! TF.SameCoordinates,Original*
G04 #@! TF.FileFunction,Paste,Top*
G04 #@! TF.FilePolarity,Positive*
%FSLAX46Y46*%
G04 Gerber Fmt 4.6, Leading zero omitted, Abs format (unit mm)*
G04 Created by KiCad (PCBNEW 5.1.5+dfsg1-2build2) date 2021-06-30 22:55:55*
%MOMM*%
%LPD*%
G04 APERTURE LIST*
%ADD10R,0.787400X1.447800*%
%ADD11R,1.270000X0.889000*%
%ADD12R,1.000000X0.800000*%
%ADD13R,1.500000X0.550000*%
%ADD14R,0.550000X1.500000*%
%ADD15C,0.100000*%
%ADD16R,1.700000X2.000000*%
%ADD17R,2.000000X0.500000*%
G04 APERTURE END LIST*
D10*
X4004700Y9121800D03*
X4004700Y15878200D03*
D11*
X5897000Y10404500D03*
X5897000Y14595500D03*
D10*
X4228700Y-38500700D03*
X4228700Y-31744300D03*
D11*
X6121000Y-37218000D03*
X6121000Y-33027000D03*
D10*
X4304700Y-54378200D03*
X4304700Y-47621800D03*
D11*
X6197000Y-53095500D03*
X6197000Y-48904500D03*
D12*
X15809000Y-40033000D03*
X18309000Y-40033000D03*
X18309000Y-38633000D03*
X15809000Y-38633000D03*
X15750000Y-44096000D03*
X18250000Y-44096000D03*
X18250000Y-42696000D03*
X15750000Y-42696000D03*
D13*
X33208000Y-9160000D03*
X33208000Y-9960000D03*
X33208000Y-10760000D03*
X33208000Y-11560000D03*
X33208000Y-12360000D03*
X33208000Y-13160000D03*
X33208000Y-13960000D03*
X33208000Y-14760000D03*
X33208000Y-15560000D03*
X33208000Y-16360000D03*
X33208000Y-17160000D03*
D14*
X31508000Y-18860000D03*
X30708000Y-18860000D03*
X29908000Y-18860000D03*
X29108000Y-18860000D03*
X28308000Y-18860000D03*
X27508000Y-18860000D03*
X26708000Y-18860000D03*
X25908000Y-18860000D03*
X25108000Y-18860000D03*
X24308000Y-18860000D03*
X23508000Y-18860000D03*
D13*
X21808000Y-17160000D03*
X21808000Y-16360000D03*
X21808000Y-15560000D03*
X21808000Y-14760000D03*
X21808000Y-13960000D03*
X21808000Y-13160000D03*
X21808000Y-12360000D03*
X21808000Y-11560000D03*
X21808000Y-10760000D03*
X21808000Y-9960000D03*
X21808000Y-9160000D03*
D14*
X23508000Y-7460000D03*
X24308000Y-7460000D03*
X25108000Y-7460000D03*
X25908000Y-7460000D03*
X26708000Y-7460000D03*
X27508000Y-7460000D03*
X28308000Y-7460000D03*
X29108000Y-7460000D03*
X29908000Y-7460000D03*
X30708000Y-7460000D03*
X31508000Y-7460000D03*
D15*
G36*
X15549505Y-1101204D02*
G01*
X15573773Y-1104804D01*
X15597572Y-1110765D01*
X15620671Y-1119030D01*
X15642850Y-1129520D01*
X15663893Y-1142132D01*
X15683599Y-1156747D01*
X15701777Y-1173223D01*
X15718253Y-1191401D01*
X15732868Y-1211107D01*
X15745480Y-1232150D01*
X15755970Y-1254329D01*
X15764235Y-1277428D01*
X15770196Y-1301227D01*
X15773796Y-1325495D01*
X15775000Y-1349999D01*
X15775000Y-2250001D01*
X15773796Y-2274505D01*
X15770196Y-2298773D01*
X15764235Y-2322572D01*
X15755970Y-2345671D01*
X15745480Y-2367850D01*
X15732868Y-2388893D01*
X15718253Y-2408599D01*
X15701777Y-2426777D01*
X15683599Y-2443253D01*
X15663893Y-2457868D01*
X15642850Y-2470480D01*
X15620671Y-2480970D01*
X15597572Y-2489235D01*
X15573773Y-2495196D01*
X15549505Y-2498796D01*
X15525001Y-2500000D01*
X14874999Y-2500000D01*
X14850495Y-2498796D01*
X14826227Y-2495196D01*
X14802428Y-2489235D01*
X14779329Y-2480970D01*
X14757150Y-2470480D01*
X14736107Y-2457868D01*
X14716401Y-2443253D01*
X14698223Y-2426777D01*
X14681747Y-2408599D01*
X14667132Y-2388893D01*
X14654520Y-2367850D01*
X14644030Y-2345671D01*
X14635765Y-2322572D01*
X14629804Y-2298773D01*
X14626204Y-2274505D01*
X14625000Y-2250001D01*
X14625000Y-1349999D01*
X14626204Y-1325495D01*
X14629804Y-1301227D01*
X14635765Y-1277428D01*
X14644030Y-1254329D01*
X14654520Y-1232150D01*
X14667132Y-1211107D01*
X14681747Y-1191401D01*
X14698223Y-1173223D01*
X14716401Y-1156747D01*
X14736107Y-1142132D01*
X14757150Y-1129520D01*
X14779329Y-1119030D01*
X14802428Y-1110765D01*
X14826227Y-1104804D01*
X14850495Y-1101204D01*
X14874999Y-1100000D01*
X15525001Y-1100000D01*
X15549505Y-1101204D01*
G37*
G36*
X17599505Y-1101204D02*
G01*
X17623773Y-1104804D01*
X17647572Y-1110765D01*
X17670671Y-1119030D01*
X17692850Y-1129520D01*
X17713893Y-1142132D01*
X17733599Y-1156747D01*
X17751777Y-1173223D01*
X17768253Y-1191401D01*
X17782868Y-1211107D01*
X17795480Y-1232150D01*
X17805970Y-1254329D01*
X17814235Y-1277428D01*
X17820196Y-1301227D01*
X17823796Y-1325495D01*
X17825000Y-1349999D01*
X17825000Y-2250001D01*
X17823796Y-2274505D01*
X17820196Y-2298773D01*
X17814235Y-2322572D01*
X17805970Y-2345671D01*
X17795480Y-2367850D01*
X17782868Y-2388893D01*
X17768253Y-2408599D01*
X17751777Y-2426777D01*
X17733599Y-2443253D01*
X17713893Y-2457868D01*
X17692850Y-2470480D01*
X17670671Y-2480970D01*
X17647572Y-2489235D01*
X17623773Y-2495196D01*
X17599505Y-2498796D01*
X17575001Y-2500000D01*
X16924999Y-2500000D01*
X16900495Y-2498796D01*
X16876227Y-2495196D01*
X16852428Y-2489235D01*
X16829329Y-2480970D01*
X16807150Y-2470480D01*
X16786107Y-2457868D01*
X16766401Y-2443253D01*
X16748223Y-2426777D01*
X16731747Y-2408599D01*
X16717132Y-2388893D01*
X16704520Y-2367850D01*
X16694030Y-2345671D01*
X16685765Y-2322572D01*
X16679804Y-2298773D01*
X16676204Y-2274505D01*
X16675000Y-2250001D01*
X16675000Y-1349999D01*
X16676204Y-1325495D01*
X16679804Y-1301227D01*
X16685765Y-1277428D01*
X16694030Y-1254329D01*
X16704520Y-1232150D01*
X16717132Y-1211107D01*
X16731747Y-1191401D01*
X16748223Y-1173223D01*
X16766401Y-1156747D01*
X16786107Y-1142132D01*
X16807150Y-1129520D01*
X16829329Y-1119030D01*
X16852428Y-1110765D01*
X16876227Y-1104804D01*
X16900495Y-1101204D01*
X16924999Y-1100000D01*
X17575001Y-1100000D01*
X17599505Y-1101204D01*
G37*
G36*
X15549505Y-3101204D02*
G01*
X15573773Y-3104804D01*
X15597572Y-3110765D01*
X15620671Y-3119030D01*
X15642850Y-3129520D01*
X15663893Y-3142132D01*
X15683599Y-3156747D01*
X15701777Y-3173223D01*
X15718253Y-3191401D01*
X15732868Y-3211107D01*
X15745480Y-3232150D01*
X15755970Y-3254329D01*
X15764235Y-3277428D01*
X15770196Y-3301227D01*
X15773796Y-3325495D01*
X15775000Y-3349999D01*
X15775000Y-4250001D01*
X15773796Y-4274505D01*
X15770196Y-4298773D01*
X15764235Y-4322572D01*
X15755970Y-4345671D01*
X15745480Y-4367850D01*
X15732868Y-4388893D01*
X15718253Y-4408599D01*
X15701777Y-4426777D01*
X15683599Y-4443253D01*
X15663893Y-4457868D01*
X15642850Y-4470480D01*
X15620671Y-4480970D01*
X15597572Y-4489235D01*
X15573773Y-4495196D01*
X15549505Y-4498796D01*
X15525001Y-4500000D01*
X14874999Y-4500000D01*
X14850495Y-4498796D01*
X14826227Y-4495196D01*
X14802428Y-4489235D01*
X14779329Y-4480970D01*
X14757150Y-4470480D01*
X14736107Y-4457868D01*
X14716401Y-4443253D01*
X14698223Y-4426777D01*
X14681747Y-4408599D01*
X14667132Y-4388893D01*
X14654520Y-4367850D01*
X14644030Y-4345671D01*
X14635765Y-4322572D01*
X14629804Y-4298773D01*
X14626204Y-4274505D01*
X14625000Y-4250001D01*
X14625000Y-3349999D01*
X14626204Y-3325495D01*
X14629804Y-3301227D01*
X14635765Y-3277428D01*
X14644030Y-3254329D01*
X14654520Y-3232150D01*
X14667132Y-3211107D01*
X14681747Y-3191401D01*
X14698223Y-3173223D01*
X14716401Y-3156747D01*
X14736107Y-3142132D01*
X14757150Y-3129520D01*
X14779329Y-3119030D01*
X14802428Y-3110765D01*
X14826227Y-3104804D01*
X14850495Y-3101204D01*
X14874999Y-3100000D01*
X15525001Y-3100000D01*
X15549505Y-3101204D01*
G37*
G36*
X17599505Y-3101204D02*
G01*
X17623773Y-3104804D01*
X17647572Y-3110765D01*
X17670671Y-3119030D01*
X17692850Y-3129520D01*
X17713893Y-3142132D01*
X17733599Y-3156747D01*
X17751777Y-3173223D01*
X17768253Y-3191401D01*
X17782868Y-3211107D01*
X17795480Y-3232150D01*
X17805970Y-3254329D01*
X17814235Y-3277428D01*
X17820196Y-3301227D01*
X17823796Y-3325495D01*
X17825000Y-3349999D01*
X17825000Y-4250001D01*
X17823796Y-4274505D01*
X17820196Y-4298773D01*
X17814235Y-4322572D01*
X17805970Y-4345671D01*
X17795480Y-4367850D01*
X17782868Y-4388893D01*
X17768253Y-4408599D01*
X17751777Y-4426777D01*
X17733599Y-4443253D01*
X17713893Y-4457868D01*
X17692850Y-4470480D01*
X17670671Y-4480970D01*
X17647572Y-4489235D01*
X17623773Y-4495196D01*
X17599505Y-4498796D01*
X17575001Y-4500000D01*
X16924999Y-4500000D01*
X16900495Y-4498796D01*
X16876227Y-4495196D01*
X16852428Y-4489235D01*
X16829329Y-4480970D01*
X16807150Y-4470480D01*
X16786107Y-4457868D01*
X16766401Y-4443253D01*
X16748223Y-4426777D01*
X16731747Y-4408599D01*
X16717132Y-4388893D01*
X16704520Y-4367850D01*
X16694030Y-4345671D01*
X16685765Y-4322572D01*
X16679804Y-4298773D01*
X16676204Y-4274505D01*
X16675000Y-4250001D01*
X16675000Y-3349999D01*
X16676204Y-3325495D01*
X16679804Y-3301227D01*
X16685765Y-3277428D01*
X16694030Y-3254329D01*
X16704520Y-3232150D01*
X16717132Y-3211107D01*
X16731747Y-3191401D01*
X16748223Y-3173223D01*
X16766401Y-3156747D01*
X16786107Y-3142132D01*
X16807150Y-3129520D01*
X16829329Y-3119030D01*
X16852428Y-3110765D01*
X16876227Y-3104804D01*
X16900495Y-3101204D01*
X16924999Y-3100000D01*
X17575001Y-3100000D01*
X17599505Y-3101204D01*
G37*
D16*
X4150000Y-7650000D03*
X9600000Y-7650000D03*
X4150000Y1250000D03*
X9600000Y1250000D03*
D17*
X9700000Y-4800000D03*
X9700000Y-4000000D03*
X9700000Y-3200000D03*
X9700000Y-2400000D03*
X9700000Y-1600000D03*
D15*
G36*
X27874505Y-2201204D02*
G01*
X27898773Y-2204804D01*
X27922572Y-2210765D01*
X27945671Y-2219030D01*
X27967850Y-2229520D01*
X27988893Y-2242132D01*
X28008599Y-2256747D01*
X28026777Y-2273223D01*
X28043253Y-2291401D01*
X28057868Y-2311107D01*
X28070480Y-2332150D01*
X28080970Y-2354329D01*
X28089235Y-2377428D01*
X28095196Y-2401227D01*
X28098796Y-2425495D01*
X28100000Y-2449999D01*
X28100000Y-3100001D01*
X28098796Y-3124505D01*
X28095196Y-3148773D01*
X28089235Y-3172572D01*
X28080970Y-3195671D01*
X28070480Y-3217850D01*
X28057868Y-3238893D01*
X28043253Y-3258599D01*
X28026777Y-3276777D01*
X28008599Y-3293253D01*
X27988893Y-3307868D01*
X27967850Y-3320480D01*
X27945671Y-3330970D01*
X27922572Y-3339235D01*
X27898773Y-3345196D01*
X27874505Y-3348796D01*
X27850001Y-3350000D01*
X26949999Y-3350000D01*
X26925495Y-3348796D01*
X26901227Y-3345196D01*
X26877428Y-3339235D01*
X26854329Y-3330970D01*
X26832150Y-3320480D01*
X26811107Y-3307868D01*
X26791401Y-3293253D01*
X26773223Y-3276777D01*
X26756747Y-3258599D01*
X26742132Y-3238893D01*
X26729520Y-3217850D01*
X26719030Y-3195671D01*
X26710765Y-3172572D01*
X26704804Y-3148773D01*
X26701204Y-3124505D01*
X26700000Y-3100001D01*
X26700000Y-2449999D01*
X26701204Y-2425495D01*
X26704804Y-2401227D01*
X26710765Y-2377428D01*
X26719030Y-2354329D01*
X26729520Y-2332150D01*
X26742132Y-2311107D01*
X26756747Y-2291401D01*
X26773223Y-2273223D01*
X26791401Y-2256747D01*
X26811107Y-2242132D01*
X26832150Y-2229520D01*
X26854329Y-2219030D01*
X26877428Y-2210765D01*
X26901227Y-2204804D01*
X26925495Y-2201204D01*
X26949999Y-2200000D01*
X27850001Y-2200000D01*
X27874505Y-2201204D01*
G37*
G36*
X27874505Y-4251204D02*
G01*
X27898773Y-4254804D01*
X27922572Y-4260765D01*
X27945671Y-4269030D01*
X27967850Y-4279520D01*
X27988893Y-4292132D01*
X28008599Y-4306747D01*
X28026777Y-4323223D01*
X28043253Y-4341401D01*
X28057868Y-4361107D01*
X28070480Y-4382150D01*
X28080970Y-4404329D01*
X28089235Y-4427428D01*
X28095196Y-4451227D01*
X28098796Y-4475495D01*
X28100000Y-4499999D01*
X28100000Y-5150001D01*
X28098796Y-5174505D01*
X28095196Y-5198773D01*
X28089235Y-5222572D01*
X28080970Y-5245671D01*
X28070480Y-5267850D01*
X28057868Y-5288893D01*
X28043253Y-5308599D01*
X28026777Y-5326777D01*
X28008599Y-5343253D01*
X27988893Y-5357868D01*
X27967850Y-5370480D01*
X27945671Y-5380970D01*
X27922572Y-5389235D01*
X27898773Y-5395196D01*
X27874505Y-5398796D01*
X27850001Y-5400000D01*
X26949999Y-5400000D01*
X26925495Y-5398796D01*
X26901227Y-5395196D01*
X26877428Y-5389235D01*
X26854329Y-5380970D01*
X26832150Y-5370480D01*
X26811107Y-5357868D01*
X26791401Y-5343253D01*
X26773223Y-5326777D01*
X26756747Y-5308599D01*
X26742132Y-5288893D01*
X26729520Y-5267850D01*
X26719030Y-5245671D01*
X26710765Y-5222572D01*
X26704804Y-5198773D01*
X26701204Y-5174505D01*
X26700000Y-5150001D01*
X26700000Y-4499999D01*
X26701204Y-4475495D01*
X26704804Y-4451227D01*
X26710765Y-4427428D01*
X26719030Y-4404329D01*
X26729520Y-4382150D01*
X26742132Y-4361107D01*
X26756747Y-4341401D01*
X26773223Y-4323223D01*
X26791401Y-4306747D01*
X26811107Y-4292132D01*
X26832150Y-4279520D01*
X26854329Y-4269030D01*
X26877428Y-4260765D01*
X26901227Y-4254804D01*
X26925495Y-4251204D01*
X26949999Y-4250000D01*
X27850001Y-4250000D01*
X27874505Y-4251204D01*
G37*
G36*
X35660779Y-16276144D02*
G01*
X35683834Y-16279563D01*
X35706443Y-16285227D01*
X35728387Y-16293079D01*
X35749457Y-16303044D01*
X35769448Y-16315026D01*
X35788168Y-16328910D01*
X35805438Y-16344562D01*
X35821090Y-16361832D01*
X35834974Y-16380552D01*
X35846956Y-16400543D01*
X35856921Y-16421613D01*
X35864773Y-16443557D01*
X35870437Y-16466166D01*
X35873856Y-16489221D01*
X35875000Y-16512500D01*
X35875000Y-17087500D01*
X35873856Y-17110779D01*
X35870437Y-17133834D01*
X35864773Y-17156443D01*
X35856921Y-17178387D01*
X35846956Y-17199457D01*
X35834974Y-17219448D01*
X35821090Y-17238168D01*
X35805438Y-17255438D01*
X35788168Y-17271090D01*
X35769448Y-17284974D01*
X35749457Y-17296956D01*
X35728387Y-17306921D01*
X35706443Y-17314773D01*
X35683834Y-17320437D01*
X35660779Y-17323856D01*
X35637500Y-17325000D01*
X35162500Y-17325000D01*
X35139221Y-17323856D01*
X35116166Y-17320437D01*
X35093557Y-17314773D01*
X35071613Y-17306921D01*
X35050543Y-17296956D01*
X35030552Y-17284974D01*
X35011832Y-17271090D01*
X34994562Y-17255438D01*
X34978910Y-17238168D01*
X34965026Y-17219448D01*
X34953044Y-17199457D01*
X34943079Y-17178387D01*
X34935227Y-17156443D01*
X34929563Y-17133834D01*
X34926144Y-17110779D01*
X34925000Y-17087500D01*
X34925000Y-16512500D01*
X34926144Y-16489221D01*
X34929563Y-16466166D01*
X34935227Y-16443557D01*
X34943079Y-16421613D01*
X34953044Y-16400543D01*
X34965026Y-16380552D01*
X34978910Y-16361832D01*
X34994562Y-16344562D01*
X35011832Y-16328910D01*
X35030552Y-16315026D01*
X35050543Y-16303044D01*
X35071613Y-16293079D01*
X35093557Y-16285227D01*
X35116166Y-16279563D01*
X35139221Y-16276144D01*
X35162500Y-16275000D01*
X35637500Y-16275000D01*
X35660779Y-16276144D01*
G37*
G36*
X35660779Y-18026144D02*
G01*
X35683834Y-18029563D01*
X35706443Y-18035227D01*
X35728387Y-18043079D01*
X35749457Y-18053044D01*
X35769448Y-18065026D01*
X35788168Y-18078910D01*
X35805438Y-18094562D01*
X35821090Y-18111832D01*
X35834974Y-18130552D01*
X35846956Y-18150543D01*
X35856921Y-18171613D01*
X35864773Y-18193557D01*
X35870437Y-18216166D01*
X35873856Y-18239221D01*
X35875000Y-18262500D01*
X35875000Y-18837500D01*
X35873856Y-18860779D01*
X35870437Y-18883834D01*
X35864773Y-18906443D01*
X35856921Y-18928387D01*
X35846956Y-18949457D01*
X35834974Y-18969448D01*
X35821090Y-18988168D01*
X35805438Y-19005438D01*
X35788168Y-19021090D01*
X35769448Y-19034974D01*
X35749457Y-19046956D01*
X35728387Y-19056921D01*
X35706443Y-19064773D01*
X35683834Y-19070437D01*
X35660779Y-19073856D01*
X35637500Y-19075000D01*
X35162500Y-19075000D01*
X35139221Y-19073856D01*
X35116166Y-19070437D01*
X35093557Y-19064773D01*
X35071613Y-19056921D01*
X35050543Y-19046956D01*
X35030552Y-19034974D01*
X35011832Y-19021090D01*
X34994562Y-19005438D01*
X34978910Y-18988168D01*
X34965026Y-18969448D01*
X34953044Y-18949457D01*
X34943079Y-18928387D01*
X34935227Y-18906443D01*
X34929563Y-18883834D01*
X34926144Y-18860779D01*
X34925000Y-18837500D01*
X34925000Y-18262500D01*
X34926144Y-18239221D01*
X34929563Y-18216166D01*
X34935227Y-18193557D01*
X34943079Y-18171613D01*
X34953044Y-18150543D01*
X34965026Y-18130552D01*
X34978910Y-18111832D01*
X34994562Y-18094562D01*
X35011832Y-18078910D01*
X35030552Y-18065026D01*
X35050543Y-18053044D01*
X35071613Y-18043079D01*
X35093557Y-18035227D01*
X35116166Y-18029563D01*
X35139221Y-18026144D01*
X35162500Y-18025000D01*
X35637500Y-18025000D01*
X35660779Y-18026144D01*
G37*
G36*
X22448779Y-20326144D02*
G01*
X22471834Y-20329563D01*
X22494443Y-20335227D01*
X22516387Y-20343079D01*
X22537457Y-20353044D01*
X22557448Y-20365026D01*
X22576168Y-20378910D01*
X22593438Y-20394562D01*
X22609090Y-20411832D01*
X22622974Y-20430552D01*
X22634956Y-20450543D01*
X22644921Y-20471613D01*
X22652773Y-20493557D01*
X22658437Y-20516166D01*
X22661856Y-20539221D01*
X22663000Y-20562500D01*
X22663000Y-21037500D01*
X22661856Y-21060779D01*
X22658437Y-21083834D01*
X22652773Y-21106443D01*
X22644921Y-21128387D01*
X22634956Y-21149457D01*
X22622974Y-21169448D01*
X22609090Y-21188168D01*
X22593438Y-21205438D01*
X22576168Y-21221090D01*
X22557448Y-21234974D01*
X22537457Y-21246956D01*
X22516387Y-21256921D01*
X22494443Y-21264773D01*
X22471834Y-21270437D01*
X22448779Y-21273856D01*
X22425500Y-21275000D01*
X21850500Y-21275000D01*
X21827221Y-21273856D01*
X21804166Y-21270437D01*
X21781557Y-21264773D01*
X21759613Y-21256921D01*
X21738543Y-21246956D01*
X21718552Y-21234974D01*
X21699832Y-21221090D01*
X21682562Y-21205438D01*
X21666910Y-21188168D01*
X21653026Y-21169448D01*
X21641044Y-21149457D01*
X21631079Y-21128387D01*
X21623227Y-21106443D01*
X21617563Y-21083834D01*
X21614144Y-21060779D01*
X21613000Y-21037500D01*
X21613000Y-20562500D01*
X21614144Y-20539221D01*
X21617563Y-20516166D01*
X21623227Y-20493557D01*
X21631079Y-20471613D01*
X21641044Y-20450543D01*
X21653026Y-20430552D01*
X21666910Y-20411832D01*
X21682562Y-20394562D01*
X21699832Y-20378910D01*
X21718552Y-20365026D01*
X21738543Y-20353044D01*
X21759613Y-20343079D01*
X21781557Y-20335227D01*
X21804166Y-20329563D01*
X21827221Y-20326144D01*
X21850500Y-20325000D01*
X22425500Y-20325000D01*
X22448779Y-20326144D01*
G37*
G36*
X24198779Y-20326144D02*
G01*
X24221834Y-20329563D01*
X24244443Y-20335227D01*
X24266387Y-20343079D01*
X24287457Y-20353044D01*
X24307448Y-20365026D01*
X24326168Y-20378910D01*
X24343438Y-20394562D01*
X24359090Y-20411832D01*
X24372974Y-20430552D01*
X24384956Y-20450543D01*
X24394921Y-20471613D01*
X24402773Y-20493557D01*
X24408437Y-20516166D01*
X24411856Y-20539221D01*
X24413000Y-20562500D01*
X24413000Y-21037500D01*
X24411856Y-21060779D01*
X24408437Y-21083834D01*
X24402773Y-21106443D01*
X24394921Y-21128387D01*
X24384956Y-21149457D01*
X24372974Y-21169448D01*
X24359090Y-21188168D01*
X24343438Y-21205438D01*
X24326168Y-21221090D01*
X24307448Y-21234974D01*
X24287457Y-21246956D01*
X24266387Y-21256921D01*
X24244443Y-21264773D01*
X24221834Y-21270437D01*
X24198779Y-21273856D01*
X24175500Y-21275000D01*
X23600500Y-21275000D01*
X23577221Y-21273856D01*
X23554166Y-21270437D01*
X23531557Y-21264773D01*
X23509613Y-21256921D01*
X23488543Y-21246956D01*
X23468552Y-21234974D01*
X23449832Y-21221090D01*
X23432562Y-21205438D01*
X23416910Y-21188168D01*
X23403026Y-21169448D01*
X23391044Y-21149457D01*
X23381079Y-21128387D01*
X23373227Y-21106443D01*
X23367563Y-21083834D01*
X23364144Y-21060779D01*
X23363000Y-21037500D01*
X23363000Y-20562500D01*
X23364144Y-20539221D01*
X23367563Y-20516166D01*
X23373227Y-20493557D01*
X23381079Y-20471613D01*
X23391044Y-20450543D01*
X23403026Y-20430552D01*
X23416910Y-20411832D01*
X23432562Y-20394562D01*
X23449832Y-20378910D01*
X23468552Y-20365026D01*
X23488543Y-20353044D01*
X23509613Y-20343079D01*
X23531557Y-20335227D01*
X23554166Y-20329563D01*
X23577221Y-20326144D01*
X23600500Y-20325000D01*
X24175500Y-20325000D01*
X24198779Y-20326144D01*
G37*
G36*
X8994779Y-49448144D02*
G01*
X9017834Y-49451563D01*
X9040443Y-49457227D01*
X9062387Y-49465079D01*
X9083457Y-49475044D01*
X9103448Y-49487026D01*
X9122168Y-49500910D01*
X9139438Y-49516562D01*
X9155090Y-49533832D01*
X9168974Y-49552552D01*
X9180956Y-49572543D01*
X9190921Y-49593613D01*
X9198773Y-49615557D01*
X9204437Y-49638166D01*
X9207856Y-49661221D01*
X9209000Y-49684500D01*
X9209000Y-50259500D01*
X9207856Y-50282779D01*
X9204437Y-50305834D01*
X9198773Y-50328443D01*
X9190921Y-50350387D01*
X9180956Y-50371457D01*
X9168974Y-50391448D01*
X9155090Y-50410168D01*
X9139438Y-50427438D01*
X9122168Y-50443090D01*
X9103448Y-50456974D01*
X9083457Y-50468956D01*
X9062387Y-50478921D01*
X9040443Y-50486773D01*
X9017834Y-50492437D01*
X8994779Y-50495856D01*
X8971500Y-50497000D01*
X8496500Y-50497000D01*
X8473221Y-50495856D01*
X8450166Y-50492437D01*
X8427557Y-50486773D01*
X8405613Y-50478921D01*
X8384543Y-50468956D01*
X8364552Y-50456974D01*
X8345832Y-50443090D01*
X8328562Y-50427438D01*
X8312910Y-50410168D01*
X8299026Y-50391448D01*
X8287044Y-50371457D01*
X8277079Y-50350387D01*
X8269227Y-50328443D01*
X8263563Y-50305834D01*
X8260144Y-50282779D01*
X8259000Y-50259500D01*
X8259000Y-49684500D01*
X8260144Y-49661221D01*
X8263563Y-49638166D01*
X8269227Y-49615557D01*
X8277079Y-49593613D01*
X8287044Y-49572543D01*
X8299026Y-49552552D01*
X8312910Y-49533832D01*
X8328562Y-49516562D01*
X8345832Y-49500910D01*
X8364552Y-49487026D01*
X8384543Y-49475044D01*
X8405613Y-49465079D01*
X8427557Y-49457227D01*
X8450166Y-49451563D01*
X8473221Y-49448144D01*
X8496500Y-49447000D01*
X8971500Y-49447000D01*
X8994779Y-49448144D01*
G37*
G36*
X8994779Y-47698144D02*
G01*
X9017834Y-47701563D01*
X9040443Y-47707227D01*
X9062387Y-47715079D01*
X9083457Y-47725044D01*
X9103448Y-47737026D01*
X9122168Y-47750910D01*
X9139438Y-47766562D01*
X9155090Y-47783832D01*
X9168974Y-47802552D01*
X9180956Y-47822543D01*
X9190921Y-47843613D01*
X9198773Y-47865557D01*
X9204437Y-47888166D01*
X9207856Y-47911221D01*
X9209000Y-47934500D01*
X9209000Y-48509500D01*
X9207856Y-48532779D01*
X9204437Y-48555834D01*
X9198773Y-48578443D01*
X9190921Y-48600387D01*
X9180956Y-48621457D01*
X9168974Y-48641448D01*
X9155090Y-48660168D01*
X9139438Y-48677438D01*
X9122168Y-48693090D01*
X9103448Y-48706974D01*
X9083457Y-48718956D01*
X9062387Y-48728921D01*
X9040443Y-48736773D01*
X9017834Y-48742437D01*
X8994779Y-48745856D01*
X8971500Y-48747000D01*
X8496500Y-48747000D01*
X8473221Y-48745856D01*
X8450166Y-48742437D01*
X8427557Y-48736773D01*
X8405613Y-48728921D01*
X8384543Y-48718956D01*
X8364552Y-48706974D01*
X8345832Y-48693090D01*
X8328562Y-48677438D01*
X8312910Y-48660168D01*
X8299026Y-48641448D01*
X8287044Y-48621457D01*
X8277079Y-48600387D01*
X8269227Y-48578443D01*
X8263563Y-48555834D01*
X8260144Y-48532779D01*
X8259000Y-48509500D01*
X8259000Y-47934500D01*
X8260144Y-47911221D01*
X8263563Y-47888166D01*
X8269227Y-47865557D01*
X8277079Y-47843613D01*
X8287044Y-47822543D01*
X8299026Y-47802552D01*
X8312910Y-47783832D01*
X8328562Y-47766562D01*
X8345832Y-47750910D01*
X8364552Y-47737026D01*
X8384543Y-47725044D01*
X8405613Y-47715079D01*
X8427557Y-47707227D01*
X8450166Y-47701563D01*
X8473221Y-47698144D01*
X8496500Y-47697000D01*
X8971500Y-47697000D01*
X8994779Y-47698144D01*
G37*
G36*
X8994779Y-35252144D02*
G01*
X9017834Y-35255563D01*
X9040443Y-35261227D01*
X9062387Y-35269079D01*
X9083457Y-35279044D01*
X9103448Y-35291026D01*
X9122168Y-35304910D01*
X9139438Y-35320562D01*
X9155090Y-35337832D01*
X9168974Y-35356552D01*
X9180956Y-35376543D01*
X9190921Y-35397613D01*
X9198773Y-35419557D01*
X9204437Y-35442166D01*
X9207856Y-35465221D01*
X9209000Y-35488500D01*
X9209000Y-36063500D01*
X9207856Y-36086779D01*
X9204437Y-36109834D01*
X9198773Y-36132443D01*
X9190921Y-36154387D01*
X9180956Y-36175457D01*
X9168974Y-36195448D01*
X9155090Y-36214168D01*
X9139438Y-36231438D01*
X9122168Y-36247090D01*
X9103448Y-36260974D01*
X9083457Y-36272956D01*
X9062387Y-36282921D01*
X9040443Y-36290773D01*
X9017834Y-36296437D01*
X8994779Y-36299856D01*
X8971500Y-36301000D01*
X8496500Y-36301000D01*
X8473221Y-36299856D01*
X8450166Y-36296437D01*
X8427557Y-36290773D01*
X8405613Y-36282921D01*
X8384543Y-36272956D01*
X8364552Y-36260974D01*
X8345832Y-36247090D01*
X8328562Y-36231438D01*
X8312910Y-36214168D01*
X8299026Y-36195448D01*
X8287044Y-36175457D01*
X8277079Y-36154387D01*
X8269227Y-36132443D01*
X8263563Y-36109834D01*
X8260144Y-36086779D01*
X8259000Y-36063500D01*
X8259000Y-35488500D01*
X8260144Y-35465221D01*
X8263563Y-35442166D01*
X8269227Y-35419557D01*
X8277079Y-35397613D01*
X8287044Y-35376543D01*
X8299026Y-35356552D01*
X8312910Y-35337832D01*
X8328562Y-35320562D01*
X8345832Y-35304910D01*
X8364552Y-35291026D01*
X8384543Y-35279044D01*
X8405613Y-35269079D01*
X8427557Y-35261227D01*
X8450166Y-35255563D01*
X8473221Y-35252144D01*
X8496500Y-35251000D01*
X8971500Y-35251000D01*
X8994779Y-35252144D01*
G37*
G36*
X8994779Y-37002144D02*
G01*
X9017834Y-37005563D01*
X9040443Y-37011227D01*
X9062387Y-37019079D01*
X9083457Y-37029044D01*
X9103448Y-37041026D01*
X9122168Y-37054910D01*
X9139438Y-37070562D01*
X9155090Y-37087832D01*
X9168974Y-37106552D01*
X9180956Y-37126543D01*
X9190921Y-37147613D01*
X9198773Y-37169557D01*
X9204437Y-37192166D01*
X9207856Y-37215221D01*
X9209000Y-37238500D01*
X9209000Y-37813500D01*
X9207856Y-37836779D01*
X9204437Y-37859834D01*
X9198773Y-37882443D01*
X9190921Y-37904387D01*
X9180956Y-37925457D01*
X9168974Y-37945448D01*
X9155090Y-37964168D01*
X9139438Y-37981438D01*
X9122168Y-37997090D01*
X9103448Y-38010974D01*
X9083457Y-38022956D01*
X9062387Y-38032921D01*
X9040443Y-38040773D01*
X9017834Y-38046437D01*
X8994779Y-38049856D01*
X8971500Y-38051000D01*
X8496500Y-38051000D01*
X8473221Y-38049856D01*
X8450166Y-38046437D01*
X8427557Y-38040773D01*
X8405613Y-38032921D01*
X8384543Y-38022956D01*
X8364552Y-38010974D01*
X8345832Y-37997090D01*
X8328562Y-37981438D01*
X8312910Y-37964168D01*
X8299026Y-37945448D01*
X8287044Y-37925457D01*
X8277079Y-37904387D01*
X8269227Y-37882443D01*
X8263563Y-37859834D01*
X8260144Y-37836779D01*
X8259000Y-37813500D01*
X8259000Y-37238500D01*
X8260144Y-37215221D01*
X8263563Y-37192166D01*
X8269227Y-37169557D01*
X8277079Y-37147613D01*
X8287044Y-37126543D01*
X8299026Y-37106552D01*
X8312910Y-37087832D01*
X8328562Y-37070562D01*
X8345832Y-37054910D01*
X8364552Y-37041026D01*
X8384543Y-37029044D01*
X8405613Y-37019079D01*
X8427557Y-37011227D01*
X8450166Y-37005563D01*
X8473221Y-37002144D01*
X8496500Y-37001000D01*
X8971500Y-37001000D01*
X8994779Y-37002144D01*
G37*
G36*
X11541779Y-37970144D02*
G01*
X11564834Y-37973563D01*
X11587443Y-37979227D01*
X11609387Y-37987079D01*
X11630457Y-37997044D01*
X11650448Y-38009026D01*
X11669168Y-38022910D01*
X11686438Y-38038562D01*
X11702090Y-38055832D01*
X11715974Y-38074552D01*
X11727956Y-38094543D01*
X11737921Y-38115613D01*
X11745773Y-38137557D01*
X11751437Y-38160166D01*
X11754856Y-38183221D01*
X11756000Y-38206500D01*
X11756000Y-38681500D01*
X11754856Y-38704779D01*
X11751437Y-38727834D01*
X11745773Y-38750443D01*
X11737921Y-38772387D01*
X11727956Y-38793457D01*
X11715974Y-38813448D01*
X11702090Y-38832168D01*
X11686438Y-38849438D01*
X11669168Y-38865090D01*
X11650448Y-38878974D01*
X11630457Y-38890956D01*
X11609387Y-38900921D01*
X11587443Y-38908773D01*
X11564834Y-38914437D01*
X11541779Y-38917856D01*
X11518500Y-38919000D01*
X10943500Y-38919000D01*
X10920221Y-38917856D01*
X10897166Y-38914437D01*
X10874557Y-38908773D01*
X10852613Y-38900921D01*
X10831543Y-38890956D01*
X10811552Y-38878974D01*
X10792832Y-38865090D01*
X10775562Y-38849438D01*
X10759910Y-38832168D01*
X10746026Y-38813448D01*
X10734044Y-38793457D01*
X10724079Y-38772387D01*
X10716227Y-38750443D01*
X10710563Y-38727834D01*
X10707144Y-38704779D01*
X10706000Y-38681500D01*
X10706000Y-38206500D01*
X10707144Y-38183221D01*
X10710563Y-38160166D01*
X10716227Y-38137557D01*
X10724079Y-38115613D01*
X10734044Y-38094543D01*
X10746026Y-38074552D01*
X10759910Y-38055832D01*
X10775562Y-38038562D01*
X10792832Y-38022910D01*
X10811552Y-38009026D01*
X10831543Y-37997044D01*
X10852613Y-37987079D01*
X10874557Y-37979227D01*
X10897166Y-37973563D01*
X10920221Y-37970144D01*
X10943500Y-37969000D01*
X11518500Y-37969000D01*
X11541779Y-37970144D01*
G37*
G36*
X13291779Y-37970144D02*
G01*
X13314834Y-37973563D01*
X13337443Y-37979227D01*
X13359387Y-37987079D01*
X13380457Y-37997044D01*
X13400448Y-38009026D01*
X13419168Y-38022910D01*
X13436438Y-38038562D01*
X13452090Y-38055832D01*
X13465974Y-38074552D01*
X13477956Y-38094543D01*
X13487921Y-38115613D01*
X13495773Y-38137557D01*
X13501437Y-38160166D01*
X13504856Y-38183221D01*
X13506000Y-38206500D01*
X13506000Y-38681500D01*
X13504856Y-38704779D01*
X13501437Y-38727834D01*
X13495773Y-38750443D01*
X13487921Y-38772387D01*
X13477956Y-38793457D01*
X13465974Y-38813448D01*
X13452090Y-38832168D01*
X13436438Y-38849438D01*
X13419168Y-38865090D01*
X13400448Y-38878974D01*
X13380457Y-38890956D01*
X13359387Y-38900921D01*
X13337443Y-38908773D01*
X13314834Y-38914437D01*
X13291779Y-38917856D01*
X13268500Y-38919000D01*
X12693500Y-38919000D01*
X12670221Y-38917856D01*
X12647166Y-38914437D01*
X12624557Y-38908773D01*
X12602613Y-38900921D01*
X12581543Y-38890956D01*
X12561552Y-38878974D01*
X12542832Y-38865090D01*
X12525562Y-38849438D01*
X12509910Y-38832168D01*
X12496026Y-38813448D01*
X12484044Y-38793457D01*
X12474079Y-38772387D01*
X12466227Y-38750443D01*
X12460563Y-38727834D01*
X12457144Y-38704779D01*
X12456000Y-38681500D01*
X12456000Y-38206500D01*
X12457144Y-38183221D01*
X12460563Y-38160166D01*
X12466227Y-38137557D01*
X12474079Y-38115613D01*
X12484044Y-38094543D01*
X12496026Y-38074552D01*
X12509910Y-38055832D01*
X12525562Y-38038562D01*
X12542832Y-38022910D01*
X12561552Y-38009026D01*
X12581543Y-37997044D01*
X12602613Y-37987079D01*
X12624557Y-37979227D01*
X12647166Y-37973563D01*
X12670221Y-37970144D01*
X12693500Y-37969000D01*
X13268500Y-37969000D01*
X13291779Y-37970144D01*
G37*
G36*
X11541779Y-40002144D02*
G01*
X11564834Y-40005563D01*
X11587443Y-40011227D01*
X11609387Y-40019079D01*
X11630457Y-40029044D01*
X11650448Y-40041026D01*
X11669168Y-40054910D01*
X11686438Y-40070562D01*
X11702090Y-40087832D01*
X11715974Y-40106552D01*
X11727956Y-40126543D01*
X11737921Y-40147613D01*
X11745773Y-40169557D01*
X11751437Y-40192166D01*
X11754856Y-40215221D01*
X11756000Y-40238500D01*
X11756000Y-40713500D01*
X11754856Y-40736779D01*
X11751437Y-40759834D01*
X11745773Y-40782443D01*
X11737921Y-40804387D01*
X11727956Y-40825457D01*
X11715974Y-40845448D01*
X11702090Y-40864168D01*
X11686438Y-40881438D01*
X11669168Y-40897090D01*
X11650448Y-40910974D01*
X11630457Y-40922956D01*
X11609387Y-40932921D01*
X11587443Y-40940773D01*
X11564834Y-40946437D01*
X11541779Y-40949856D01*
X11518500Y-40951000D01*
X10943500Y-40951000D01*
X10920221Y-40949856D01*
X10897166Y-40946437D01*
X10874557Y-40940773D01*
X10852613Y-40932921D01*
X10831543Y-40922956D01*
X10811552Y-40910974D01*
X10792832Y-40897090D01*
X10775562Y-40881438D01*
X10759910Y-40864168D01*
X10746026Y-40845448D01*
X10734044Y-40825457D01*
X10724079Y-40804387D01*
X10716227Y-40782443D01*
X10710563Y-40759834D01*
X10707144Y-40736779D01*
X10706000Y-40713500D01*
X10706000Y-40238500D01*
X10707144Y-40215221D01*
X10710563Y-40192166D01*
X10716227Y-40169557D01*
X10724079Y-40147613D01*
X10734044Y-40126543D01*
X10746026Y-40106552D01*
X10759910Y-40087832D01*
X10775562Y-40070562D01*
X10792832Y-40054910D01*
X10811552Y-40041026D01*
X10831543Y-40029044D01*
X10852613Y-40019079D01*
X10874557Y-40011227D01*
X10897166Y-40005563D01*
X10920221Y-40002144D01*
X10943500Y-40001000D01*
X11518500Y-40001000D01*
X11541779Y-40002144D01*
G37*
G36*
X13291779Y-40002144D02*
G01*
X13314834Y-40005563D01*
X13337443Y-40011227D01*
X13359387Y-40019079D01*
X13380457Y-40029044D01*
X13400448Y-40041026D01*
X13419168Y-40054910D01*
X13436438Y-40070562D01*
X13452090Y-40087832D01*
X13465974Y-40106552D01*
X13477956Y-40126543D01*
X13487921Y-40147613D01*
X13495773Y-40169557D01*
X13501437Y-40192166D01*
X13504856Y-40215221D01*
X13506000Y-40238500D01*
X13506000Y-40713500D01*
X13504856Y-40736779D01*
X13501437Y-40759834D01*
X13495773Y-40782443D01*
X13487921Y-40804387D01*
X13477956Y-40825457D01*
X13465974Y-40845448D01*
X13452090Y-40864168D01*
X13436438Y-40881438D01*
X13419168Y-40897090D01*
X13400448Y-40910974D01*
X13380457Y-40922956D01*
X13359387Y-40932921D01*
X13337443Y-40940773D01*
X13314834Y-40946437D01*
X13291779Y-40949856D01*
X13268500Y-40951000D01*
X12693500Y-40951000D01*
X12670221Y-40949856D01*
X12647166Y-40946437D01*
X12624557Y-40940773D01*
X12602613Y-40932921D01*
X12581543Y-40922956D01*
X12561552Y-40910974D01*
X12542832Y-40897090D01*
X12525562Y-40881438D01*
X12509910Y-40864168D01*
X12496026Y-40845448D01*
X12484044Y-40825457D01*
X12474079Y-40804387D01*
X12466227Y-40782443D01*
X12460563Y-40759834D01*
X12457144Y-40736779D01*
X12456000Y-40713500D01*
X12456000Y-40238500D01*
X12457144Y-40215221D01*
X12460563Y-40192166D01*
X12466227Y-40169557D01*
X12474079Y-40147613D01*
X12484044Y-40126543D01*
X12496026Y-40106552D01*
X12509910Y-40087832D01*
X12525562Y-40070562D01*
X12542832Y-40054910D01*
X12561552Y-40041026D01*
X12581543Y-40029044D01*
X12602613Y-40019079D01*
X12624557Y-40011227D01*
X12647166Y-40005563D01*
X12670221Y-40002144D01*
X12693500Y-40001000D01*
X13268500Y-40001000D01*
X13291779Y-40002144D01*
G37*
G36*
X11541779Y-41906144D02*
G01*
X11564834Y-41909563D01*
X11587443Y-41915227D01*
X11609387Y-41923079D01*
X11630457Y-41933044D01*
X11650448Y-41945026D01*
X11669168Y-41958910D01*
X11686438Y-41974562D01*
X11702090Y-41991832D01*
X11715974Y-42010552D01*
X11727956Y-42030543D01*
X11737921Y-42051613D01*
X11745773Y-42073557D01*
X11751437Y-42096166D01*
X11754856Y-42119221D01*
X11756000Y-42142500D01*
X11756000Y-42617500D01*
X11754856Y-42640779D01*
X11751437Y-42663834D01*
X11745773Y-42686443D01*
X11737921Y-42708387D01*
X11727956Y-42729457D01*
X11715974Y-42749448D01*
X11702090Y-42768168D01*
X11686438Y-42785438D01*
X11669168Y-42801090D01*
X11650448Y-42814974D01*
X11630457Y-42826956D01*
X11609387Y-42836921D01*
X11587443Y-42844773D01*
X11564834Y-42850437D01*
X11541779Y-42853856D01*
X11518500Y-42855000D01*
X10943500Y-42855000D01*
X10920221Y-42853856D01*
X10897166Y-42850437D01*
X10874557Y-42844773D01*
X10852613Y-42836921D01*
X10831543Y-42826956D01*
X10811552Y-42814974D01*
X10792832Y-42801090D01*
X10775562Y-42785438D01*
X10759910Y-42768168D01*
X10746026Y-42749448D01*
X10734044Y-42729457D01*
X10724079Y-42708387D01*
X10716227Y-42686443D01*
X10710563Y-42663834D01*
X10707144Y-42640779D01*
X10706000Y-42617500D01*
X10706000Y-42142500D01*
X10707144Y-42119221D01*
X10710563Y-42096166D01*
X10716227Y-42073557D01*
X10724079Y-42051613D01*
X10734044Y-42030543D01*
X10746026Y-42010552D01*
X10759910Y-41991832D01*
X10775562Y-41974562D01*
X10792832Y-41958910D01*
X10811552Y-41945026D01*
X10831543Y-41933044D01*
X10852613Y-41923079D01*
X10874557Y-41915227D01*
X10897166Y-41909563D01*
X10920221Y-41906144D01*
X10943500Y-41905000D01*
X11518500Y-41905000D01*
X11541779Y-41906144D01*
G37*
G36*
X13291779Y-41906144D02*
G01*
X13314834Y-41909563D01*
X13337443Y-41915227D01*
X13359387Y-41923079D01*
X13380457Y-41933044D01*
X13400448Y-41945026D01*
X13419168Y-41958910D01*
X13436438Y-41974562D01*
X13452090Y-41991832D01*
X13465974Y-42010552D01*
X13477956Y-42030543D01*
X13487921Y-42051613D01*
X13495773Y-42073557D01*
X13501437Y-42096166D01*
X13504856Y-42119221D01*
X13506000Y-42142500D01*
X13506000Y-42617500D01*
X13504856Y-42640779D01*
X13501437Y-42663834D01*
X13495773Y-42686443D01*
X13487921Y-42708387D01*
X13477956Y-42729457D01*
X13465974Y-42749448D01*
X13452090Y-42768168D01*
X13436438Y-42785438D01*
X13419168Y-42801090D01*
X13400448Y-42814974D01*
X13380457Y-42826956D01*
X13359387Y-42836921D01*
X13337443Y-42844773D01*
X13314834Y-42850437D01*
X13291779Y-42853856D01*
X13268500Y-42855000D01*
X12693500Y-42855000D01*
X12670221Y-42853856D01*
X12647166Y-42850437D01*
X12624557Y-42844773D01*
X12602613Y-42836921D01*
X12581543Y-42826956D01*
X12561552Y-42814974D01*
X12542832Y-42801090D01*
X12525562Y-42785438D01*
X12509910Y-42768168D01*
X12496026Y-42749448D01*
X12484044Y-42729457D01*
X12474079Y-42708387D01*
X12466227Y-42686443D01*
X12460563Y-42663834D01*
X12457144Y-42640779D01*
X12456000Y-42617500D01*
X12456000Y-42142500D01*
X12457144Y-42119221D01*
X12460563Y-42096166D01*
X12466227Y-42073557D01*
X12474079Y-42051613D01*
X12484044Y-42030543D01*
X12496026Y-42010552D01*
X12509910Y-41991832D01*
X12525562Y-41974562D01*
X12542832Y-41958910D01*
X12561552Y-41945026D01*
X12581543Y-41933044D01*
X12602613Y-41923079D01*
X12624557Y-41915227D01*
X12647166Y-41909563D01*
X12670221Y-41906144D01*
X12693500Y-41905000D01*
X13268500Y-41905000D01*
X13291779Y-41906144D01*
G37*
G36*
X11541779Y-43938144D02*
G01*
X11564834Y-43941563D01*
X11587443Y-43947227D01*
X11609387Y-43955079D01*
X11630457Y-43965044D01*
X11650448Y-43977026D01*
X11669168Y-43990910D01*
X11686438Y-44006562D01*
X11702090Y-44023832D01*
X11715974Y-44042552D01*
X11727956Y-44062543D01*
X11737921Y-44083613D01*
X11745773Y-44105557D01*
X11751437Y-44128166D01*
X11754856Y-44151221D01*
X11756000Y-44174500D01*
X11756000Y-44649500D01*
X11754856Y-44672779D01*
X11751437Y-44695834D01*
X11745773Y-44718443D01*
X11737921Y-44740387D01*
X11727956Y-44761457D01*
X11715974Y-44781448D01*
X11702090Y-44800168D01*
X11686438Y-44817438D01*
X11669168Y-44833090D01*
X11650448Y-44846974D01*
X11630457Y-44858956D01*
X11609387Y-44868921D01*
X11587443Y-44876773D01*
X11564834Y-44882437D01*
X11541779Y-44885856D01*
X11518500Y-44887000D01*
X10943500Y-44887000D01*
X10920221Y-44885856D01*
X10897166Y-44882437D01*
X10874557Y-44876773D01*
X10852613Y-44868921D01*
X10831543Y-44858956D01*
X10811552Y-44846974D01*
X10792832Y-44833090D01*
X10775562Y-44817438D01*
X10759910Y-44800168D01*
X10746026Y-44781448D01*
X10734044Y-44761457D01*
X10724079Y-44740387D01*
X10716227Y-44718443D01*
X10710563Y-44695834D01*
X10707144Y-44672779D01*
X10706000Y-44649500D01*
X10706000Y-44174500D01*
X10707144Y-44151221D01*
X10710563Y-44128166D01*
X10716227Y-44105557D01*
X10724079Y-44083613D01*
X10734044Y-44062543D01*
X10746026Y-44042552D01*
X10759910Y-44023832D01*
X10775562Y-44006562D01*
X10792832Y-43990910D01*
X10811552Y-43977026D01*
X10831543Y-43965044D01*
X10852613Y-43955079D01*
X10874557Y-43947227D01*
X10897166Y-43941563D01*
X10920221Y-43938144D01*
X10943500Y-43937000D01*
X11518500Y-43937000D01*
X11541779Y-43938144D01*
G37*
G36*
X13291779Y-43938144D02*
G01*
X13314834Y-43941563D01*
X13337443Y-43947227D01*
X13359387Y-43955079D01*
X13380457Y-43965044D01*
X13400448Y-43977026D01*
X13419168Y-43990910D01*
X13436438Y-44006562D01*
X13452090Y-44023832D01*
X13465974Y-44042552D01*
X13477956Y-44062543D01*
X13487921Y-44083613D01*
X13495773Y-44105557D01*
X13501437Y-44128166D01*
X13504856Y-44151221D01*
X13506000Y-44174500D01*
X13506000Y-44649500D01*
X13504856Y-44672779D01*
X13501437Y-44695834D01*
X13495773Y-44718443D01*
X13487921Y-44740387D01*
X13477956Y-44761457D01*
X13465974Y-44781448D01*
X13452090Y-44800168D01*
X13436438Y-44817438D01*
X13419168Y-44833090D01*
X13400448Y-44846974D01*
X13380457Y-44858956D01*
X13359387Y-44868921D01*
X13337443Y-44876773D01*
X13314834Y-44882437D01*
X13291779Y-44885856D01*
X13268500Y-44887000D01*
X12693500Y-44887000D01*
X12670221Y-44885856D01*
X12647166Y-44882437D01*
X12624557Y-44876773D01*
X12602613Y-44868921D01*
X12581543Y-44858956D01*
X12561552Y-44846974D01*
X12542832Y-44833090D01*
X12525562Y-44817438D01*
X12509910Y-44800168D01*
X12496026Y-44781448D01*
X12484044Y-44761457D01*
X12474079Y-44740387D01*
X12466227Y-44718443D01*
X12460563Y-44695834D01*
X12457144Y-44672779D01*
X12456000Y-44649500D01*
X12456000Y-44174500D01*
X12457144Y-44151221D01*
X12460563Y-44128166D01*
X12466227Y-44105557D01*
X12474079Y-44083613D01*
X12484044Y-44062543D01*
X12496026Y-44042552D01*
X12509910Y-44023832D01*
X12525562Y-44006562D01*
X12542832Y-43990910D01*
X12561552Y-43977026D01*
X12581543Y-43965044D01*
X12602613Y-43955079D01*
X12624557Y-43947227D01*
X12647166Y-43941563D01*
X12670221Y-43938144D01*
X12693500Y-43937000D01*
X13268500Y-43937000D01*
X13291779Y-43938144D01*
G37*
G36*
X8994779Y-31696144D02*
G01*
X9017834Y-31699563D01*
X9040443Y-31705227D01*
X9062387Y-31713079D01*
X9083457Y-31723044D01*
X9103448Y-31735026D01*
X9122168Y-31748910D01*
X9139438Y-31764562D01*
X9155090Y-31781832D01*
X9168974Y-31800552D01*
X9180956Y-31820543D01*
X9190921Y-31841613D01*
X9198773Y-31863557D01*
X9204437Y-31886166D01*
X9207856Y-31909221D01*
X9209000Y-31932500D01*
X9209000Y-32507500D01*
X9207856Y-32530779D01*
X9204437Y-32553834D01*
X9198773Y-32576443D01*
X9190921Y-32598387D01*
X9180956Y-32619457D01*
X9168974Y-32639448D01*
X9155090Y-32658168D01*
X9139438Y-32675438D01*
X9122168Y-32691090D01*
X9103448Y-32704974D01*
X9083457Y-32716956D01*
X9062387Y-32726921D01*
X9040443Y-32734773D01*
X9017834Y-32740437D01*
X8994779Y-32743856D01*
X8971500Y-32745000D01*
X8496500Y-32745000D01*
X8473221Y-32743856D01*
X8450166Y-32740437D01*
X8427557Y-32734773D01*
X8405613Y-32726921D01*
X8384543Y-32716956D01*
X8364552Y-32704974D01*
X8345832Y-32691090D01*
X8328562Y-32675438D01*
X8312910Y-32658168D01*
X8299026Y-32639448D01*
X8287044Y-32619457D01*
X8277079Y-32598387D01*
X8269227Y-32576443D01*
X8263563Y-32553834D01*
X8260144Y-32530779D01*
X8259000Y-32507500D01*
X8259000Y-31932500D01*
X8260144Y-31909221D01*
X8263563Y-31886166D01*
X8269227Y-31863557D01*
X8277079Y-31841613D01*
X8287044Y-31820543D01*
X8299026Y-31800552D01*
X8312910Y-31781832D01*
X8328562Y-31764562D01*
X8345832Y-31748910D01*
X8364552Y-31735026D01*
X8384543Y-31723044D01*
X8405613Y-31713079D01*
X8427557Y-31705227D01*
X8450166Y-31699563D01*
X8473221Y-31696144D01*
X8496500Y-31695000D01*
X8971500Y-31695000D01*
X8994779Y-31696144D01*
G37*
G36*
X8994779Y-33446144D02*
G01*
X9017834Y-33449563D01*
X9040443Y-33455227D01*
X9062387Y-33463079D01*
X9083457Y-33473044D01*
X9103448Y-33485026D01*
X9122168Y-33498910D01*
X9139438Y-33514562D01*
X9155090Y-33531832D01*
X9168974Y-33550552D01*
X9180956Y-33570543D01*
X9190921Y-33591613D01*
X9198773Y-33613557D01*
X9204437Y-33636166D01*
X9207856Y-33659221D01*
X9209000Y-33682500D01*
X9209000Y-34257500D01*
X9207856Y-34280779D01*
X9204437Y-34303834D01*
X9198773Y-34326443D01*
X9190921Y-34348387D01*
X9180956Y-34369457D01*
X9168974Y-34389448D01*
X9155090Y-34408168D01*
X9139438Y-34425438D01*
X9122168Y-34441090D01*
X9103448Y-34454974D01*
X9083457Y-34466956D01*
X9062387Y-34476921D01*
X9040443Y-34484773D01*
X9017834Y-34490437D01*
X8994779Y-34493856D01*
X8971500Y-34495000D01*
X8496500Y-34495000D01*
X8473221Y-34493856D01*
X8450166Y-34490437D01*
X8427557Y-34484773D01*
X8405613Y-34476921D01*
X8384543Y-34466956D01*
X8364552Y-34454974D01*
X8345832Y-34441090D01*
X8328562Y-34425438D01*
X8312910Y-34408168D01*
X8299026Y-34389448D01*
X8287044Y-34369457D01*
X8277079Y-34348387D01*
X8269227Y-34326443D01*
X8263563Y-34303834D01*
X8260144Y-34280779D01*
X8259000Y-34257500D01*
X8259000Y-33682500D01*
X8260144Y-33659221D01*
X8263563Y-33636166D01*
X8269227Y-33613557D01*
X8277079Y-33591613D01*
X8287044Y-33570543D01*
X8299026Y-33550552D01*
X8312910Y-33531832D01*
X8328562Y-33514562D01*
X8345832Y-33498910D01*
X8364552Y-33485026D01*
X8384543Y-33473044D01*
X8405613Y-33463079D01*
X8427557Y-33455227D01*
X8450166Y-33449563D01*
X8473221Y-33446144D01*
X8496500Y-33445000D01*
X8971500Y-33445000D01*
X8994779Y-33446144D01*
G37*
G36*
X8994779Y-53230144D02*
G01*
X9017834Y-53233563D01*
X9040443Y-53239227D01*
X9062387Y-53247079D01*
X9083457Y-53257044D01*
X9103448Y-53269026D01*
X9122168Y-53282910D01*
X9139438Y-53298562D01*
X9155090Y-53315832D01*
X9168974Y-53334552D01*
X9180956Y-53354543D01*
X9190921Y-53375613D01*
X9198773Y-53397557D01*
X9204437Y-53420166D01*
X9207856Y-53443221D01*
X9209000Y-53466500D01*
X9209000Y-54041500D01*
X9207856Y-54064779D01*
X9204437Y-54087834D01*
X9198773Y-54110443D01*
X9190921Y-54132387D01*
X9180956Y-54153457D01*
X9168974Y-54173448D01*
X9155090Y-54192168D01*
X9139438Y-54209438D01*
X9122168Y-54225090D01*
X9103448Y-54238974D01*
X9083457Y-54250956D01*
X9062387Y-54260921D01*
X9040443Y-54268773D01*
X9017834Y-54274437D01*
X8994779Y-54277856D01*
X8971500Y-54279000D01*
X8496500Y-54279000D01*
X8473221Y-54277856D01*
X8450166Y-54274437D01*
X8427557Y-54268773D01*
X8405613Y-54260921D01*
X8384543Y-54250956D01*
X8364552Y-54238974D01*
X8345832Y-54225090D01*
X8328562Y-54209438D01*
X8312910Y-54192168D01*
X8299026Y-54173448D01*
X8287044Y-54153457D01*
X8277079Y-54132387D01*
X8269227Y-54110443D01*
X8263563Y-54087834D01*
X8260144Y-54064779D01*
X8259000Y-54041500D01*
X8259000Y-53466500D01*
X8260144Y-53443221D01*
X8263563Y-53420166D01*
X8269227Y-53397557D01*
X8277079Y-53375613D01*
X8287044Y-53354543D01*
X8299026Y-53334552D01*
X8312910Y-53315832D01*
X8328562Y-53298562D01*
X8345832Y-53282910D01*
X8364552Y-53269026D01*
X8384543Y-53257044D01*
X8405613Y-53247079D01*
X8427557Y-53239227D01*
X8450166Y-53233563D01*
X8473221Y-53230144D01*
X8496500Y-53229000D01*
X8971500Y-53229000D01*
X8994779Y-53230144D01*
G37*
G36*
X8994779Y-51480144D02*
G01*
X9017834Y-51483563D01*
X9040443Y-51489227D01*
X9062387Y-51497079D01*
X9083457Y-51507044D01*
X9103448Y-51519026D01*
X9122168Y-51532910D01*
X9139438Y-51548562D01*
X9155090Y-51565832D01*
X9168974Y-51584552D01*
X9180956Y-51604543D01*
X9190921Y-51625613D01*
X9198773Y-51647557D01*
X9204437Y-51670166D01*
X9207856Y-51693221D01*
X9209000Y-51716500D01*
X9209000Y-52291500D01*
X9207856Y-52314779D01*
X9204437Y-52337834D01*
X9198773Y-52360443D01*
X9190921Y-52382387D01*
X9180956Y-52403457D01*
X9168974Y-52423448D01*
X9155090Y-52442168D01*
X9139438Y-52459438D01*
X9122168Y-52475090D01*
X9103448Y-52488974D01*
X9083457Y-52500956D01*
X9062387Y-52510921D01*
X9040443Y-52518773D01*
X9017834Y-52524437D01*
X8994779Y-52527856D01*
X8971500Y-52529000D01*
X8496500Y-52529000D01*
X8473221Y-52527856D01*
X8450166Y-52524437D01*
X8427557Y-52518773D01*
X8405613Y-52510921D01*
X8384543Y-52500956D01*
X8364552Y-52488974D01*
X8345832Y-52475090D01*
X8328562Y-52459438D01*
X8312910Y-52442168D01*
X8299026Y-52423448D01*
X8287044Y-52403457D01*
X8277079Y-52382387D01*
X8269227Y-52360443D01*
X8263563Y-52337834D01*
X8260144Y-52314779D01*
X8259000Y-52291500D01*
X8259000Y-51716500D01*
X8260144Y-51693221D01*
X8263563Y-51670166D01*
X8269227Y-51647557D01*
X8277079Y-51625613D01*
X8287044Y-51604543D01*
X8299026Y-51584552D01*
X8312910Y-51565832D01*
X8328562Y-51548562D01*
X8345832Y-51532910D01*
X8364552Y-51519026D01*
X8384543Y-51507044D01*
X8405613Y-51497079D01*
X8427557Y-51489227D01*
X8450166Y-51483563D01*
X8473221Y-51480144D01*
X8496500Y-51479000D01*
X8971500Y-51479000D01*
X8994779Y-51480144D01*
G37*
G36*
X9208505Y-41016204D02*
G01*
X9232773Y-41019804D01*
X9256572Y-41025765D01*
X9279671Y-41034030D01*
X9301850Y-41044520D01*
X9322893Y-41057132D01*
X9342599Y-41071747D01*
X9360777Y-41088223D01*
X9377253Y-41106401D01*
X9391868Y-41126107D01*
X9404480Y-41147150D01*
X9414970Y-41169329D01*
X9423235Y-41192428D01*
X9429196Y-41216227D01*
X9432796Y-41240495D01*
X9434000Y-41264999D01*
X9434000Y-41915001D01*
X9432796Y-41939505D01*
X9429196Y-41963773D01*
X9423235Y-41987572D01*
X9414970Y-42010671D01*
X9404480Y-42032850D01*
X9391868Y-42053893D01*
X9377253Y-42073599D01*
X9360777Y-42091777D01*
X9342599Y-42108253D01*
X9322893Y-42122868D01*
X9301850Y-42135480D01*
X9279671Y-42145970D01*
X9256572Y-42154235D01*
X9232773Y-42160196D01*
X9208505Y-42163796D01*
X9184001Y-42165000D01*
X8283999Y-42165000D01*
X8259495Y-42163796D01*
X8235227Y-42160196D01*
X8211428Y-42154235D01*
X8188329Y-42145970D01*
X8166150Y-42135480D01*
X8145107Y-42122868D01*
X8125401Y-42108253D01*
X8107223Y-42091777D01*
X8090747Y-42073599D01*
X8076132Y-42053893D01*
X8063520Y-42032850D01*
X8053030Y-42010671D01*
X8044765Y-41987572D01*
X8038804Y-41963773D01*
X8035204Y-41939505D01*
X8034000Y-41915001D01*
X8034000Y-41264999D01*
X8035204Y-41240495D01*
X8038804Y-41216227D01*
X8044765Y-41192428D01*
X8053030Y-41169329D01*
X8063520Y-41147150D01*
X8076132Y-41126107D01*
X8090747Y-41106401D01*
X8107223Y-41088223D01*
X8125401Y-41071747D01*
X8145107Y-41057132D01*
X8166150Y-41044520D01*
X8188329Y-41034030D01*
X8211428Y-41025765D01*
X8235227Y-41019804D01*
X8259495Y-41016204D01*
X8283999Y-41015000D01*
X9184001Y-41015000D01*
X9208505Y-41016204D01*
G37*
G36*
X9208505Y-38966204D02*
G01*
X9232773Y-38969804D01*
X9256572Y-38975765D01*
X9279671Y-38984030D01*
X9301850Y-38994520D01*
X9322893Y-39007132D01*
X9342599Y-39021747D01*
X9360777Y-39038223D01*
X9377253Y-39056401D01*
X9391868Y-39076107D01*
X9404480Y-39097150D01*
X9414970Y-39119329D01*
X9423235Y-39142428D01*
X9429196Y-39166227D01*
X9432796Y-39190495D01*
X9434000Y-39214999D01*
X9434000Y-39865001D01*
X9432796Y-39889505D01*
X9429196Y-39913773D01*
X9423235Y-39937572D01*
X9414970Y-39960671D01*
X9404480Y-39982850D01*
X9391868Y-40003893D01*
X9377253Y-40023599D01*
X9360777Y-40041777D01*
X9342599Y-40058253D01*
X9322893Y-40072868D01*
X9301850Y-40085480D01*
X9279671Y-40095970D01*
X9256572Y-40104235D01*
X9232773Y-40110196D01*
X9208505Y-40113796D01*
X9184001Y-40115000D01*
X8283999Y-40115000D01*
X8259495Y-40113796D01*
X8235227Y-40110196D01*
X8211428Y-40104235D01*
X8188329Y-40095970D01*
X8166150Y-40085480D01*
X8145107Y-40072868D01*
X8125401Y-40058253D01*
X8107223Y-40041777D01*
X8090747Y-40023599D01*
X8076132Y-40003893D01*
X8063520Y-39982850D01*
X8053030Y-39960671D01*
X8044765Y-39937572D01*
X8038804Y-39913773D01*
X8035204Y-39889505D01*
X8034000Y-39865001D01*
X8034000Y-39214999D01*
X8035204Y-39190495D01*
X8038804Y-39166227D01*
X8044765Y-39142428D01*
X8053030Y-39119329D01*
X8063520Y-39097150D01*
X8076132Y-39076107D01*
X8090747Y-39056401D01*
X8107223Y-39038223D01*
X8125401Y-39021747D01*
X8145107Y-39007132D01*
X8166150Y-38994520D01*
X8188329Y-38984030D01*
X8211428Y-38975765D01*
X8235227Y-38969804D01*
X8259495Y-38966204D01*
X8283999Y-38965000D01*
X9184001Y-38965000D01*
X9208505Y-38966204D01*
G37*
G36*
X9208505Y-43293204D02*
G01*
X9232773Y-43296804D01*
X9256572Y-43302765D01*
X9279671Y-43311030D01*
X9301850Y-43321520D01*
X9322893Y-43334132D01*
X9342599Y-43348747D01*
X9360777Y-43365223D01*
X9377253Y-43383401D01*
X9391868Y-43403107D01*
X9404480Y-43424150D01*
X9414970Y-43446329D01*
X9423235Y-43469428D01*
X9429196Y-43493227D01*
X9432796Y-43517495D01*
X9434000Y-43541999D01*
X9434000Y-44192001D01*
X9432796Y-44216505D01*
X9429196Y-44240773D01*
X9423235Y-44264572D01*
X9414970Y-44287671D01*
X9404480Y-44309850D01*
X9391868Y-44330893D01*
X9377253Y-44350599D01*
X9360777Y-44368777D01*
X9342599Y-44385253D01*
X9322893Y-44399868D01*
X9301850Y-44412480D01*
X9279671Y-44422970D01*
X9256572Y-44431235D01*
X9232773Y-44437196D01*
X9208505Y-44440796D01*
X9184001Y-44442000D01*
X8283999Y-44442000D01*
X8259495Y-44440796D01*
X8235227Y-44437196D01*
X8211428Y-44431235D01*
X8188329Y-44422970D01*
X8166150Y-44412480D01*
X8145107Y-44399868D01*
X8125401Y-44385253D01*
X8107223Y-44368777D01*
X8090747Y-44350599D01*
X8076132Y-44330893D01*
X8063520Y-44309850D01*
X8053030Y-44287671D01*
X8044765Y-44264572D01*
X8038804Y-44240773D01*
X8035204Y-44216505D01*
X8034000Y-44192001D01*
X8034000Y-43541999D01*
X8035204Y-43517495D01*
X8038804Y-43493227D01*
X8044765Y-43469428D01*
X8053030Y-43446329D01*
X8063520Y-43424150D01*
X8076132Y-43403107D01*
X8090747Y-43383401D01*
X8107223Y-43365223D01*
X8125401Y-43348747D01*
X8145107Y-43334132D01*
X8166150Y-43321520D01*
X8188329Y-43311030D01*
X8211428Y-43302765D01*
X8235227Y-43296804D01*
X8259495Y-43293204D01*
X8283999Y-43292000D01*
X9184001Y-43292000D01*
X9208505Y-43293204D01*
G37*
G36*
X9208505Y-45343204D02*
G01*
X9232773Y-45346804D01*
X9256572Y-45352765D01*
X9279671Y-45361030D01*
X9301850Y-45371520D01*
X9322893Y-45384132D01*
X9342599Y-45398747D01*
X9360777Y-45415223D01*
X9377253Y-45433401D01*
X9391868Y-45453107D01*
X9404480Y-45474150D01*
X9414970Y-45496329D01*
X9423235Y-45519428D01*
X9429196Y-45543227D01*
X9432796Y-45567495D01*
X9434000Y-45591999D01*
X9434000Y-46242001D01*
X9432796Y-46266505D01*
X9429196Y-46290773D01*
X9423235Y-46314572D01*
X9414970Y-46337671D01*
X9404480Y-46359850D01*
X9391868Y-46380893D01*
X9377253Y-46400599D01*
X9360777Y-46418777D01*
X9342599Y-46435253D01*
X9322893Y-46449868D01*
X9301850Y-46462480D01*
X9279671Y-46472970D01*
X9256572Y-46481235D01*
X9232773Y-46487196D01*
X9208505Y-46490796D01*
X9184001Y-46492000D01*
X8283999Y-46492000D01*
X8259495Y-46490796D01*
X8235227Y-46487196D01*
X8211428Y-46481235D01*
X8188329Y-46472970D01*
X8166150Y-46462480D01*
X8145107Y-46449868D01*
X8125401Y-46435253D01*
X8107223Y-46418777D01*
X8090747Y-46400599D01*
X8076132Y-46380893D01*
X8063520Y-46359850D01*
X8053030Y-46337671D01*
X8044765Y-46314572D01*
X8038804Y-46290773D01*
X8035204Y-46266505D01*
X8034000Y-46242001D01*
X8034000Y-45591999D01*
X8035204Y-45567495D01*
X8038804Y-45543227D01*
X8044765Y-45519428D01*
X8053030Y-45496329D01*
X8063520Y-45474150D01*
X8076132Y-45453107D01*
X8090747Y-45433401D01*
X8107223Y-45415223D01*
X8125401Y-45398747D01*
X8145107Y-45384132D01*
X8166150Y-45371520D01*
X8188329Y-45361030D01*
X8211428Y-45352765D01*
X8235227Y-45346804D01*
X8259495Y-45343204D01*
X8283999Y-45342000D01*
X9184001Y-45342000D01*
X9208505Y-45343204D01*
G37*
G36*
X54474505Y-22701204D02*
G01*
X54498773Y-22704804D01*
X54522572Y-22710765D01*
X54545671Y-22719030D01*
X54567850Y-22729520D01*
X54588893Y-22742132D01*
X54608599Y-22756747D01*
X54626777Y-22773223D01*
X54643253Y-22791401D01*
X54657868Y-22811107D01*
X54670480Y-22832150D01*
X54680970Y-22854329D01*
X54689235Y-22877428D01*
X54695196Y-22901227D01*
X54698796Y-22925495D01*
X54700000Y-22949999D01*
X54700000Y-23600001D01*
X54698796Y-23624505D01*
X54695196Y-23648773D01*
X54689235Y-23672572D01*
X54680970Y-23695671D01*
X54670480Y-23717850D01*
X54657868Y-23738893D01*
X54643253Y-23758599D01*
X54626777Y-23776777D01*
X54608599Y-23793253D01*
X54588893Y-23807868D01*
X54567850Y-23820480D01*
X54545671Y-23830970D01*
X54522572Y-23839235D01*
X54498773Y-23845196D01*
X54474505Y-23848796D01*
X54450001Y-23850000D01*
X53549999Y-23850000D01*
X53525495Y-23848796D01*
X53501227Y-23845196D01*
X53477428Y-23839235D01*
X53454329Y-23830970D01*
X53432150Y-23820480D01*
X53411107Y-23807868D01*
X53391401Y-23793253D01*
X53373223Y-23776777D01*
X53356747Y-23758599D01*
X53342132Y-23738893D01*
X53329520Y-23717850D01*
X53319030Y-23695671D01*
X53310765Y-23672572D01*
X53304804Y-23648773D01*
X53301204Y-23624505D01*
X53300000Y-23600001D01*
X53300000Y-22949999D01*
X53301204Y-22925495D01*
X53304804Y-22901227D01*
X53310765Y-22877428D01*
X53319030Y-22854329D01*
X53329520Y-22832150D01*
X53342132Y-22811107D01*
X53356747Y-22791401D01*
X53373223Y-22773223D01*
X53391401Y-22756747D01*
X53411107Y-22742132D01*
X53432150Y-22729520D01*
X53454329Y-22719030D01*
X53477428Y-22710765D01*
X53501227Y-22704804D01*
X53525495Y-22701204D01*
X53549999Y-22700000D01*
X54450001Y-22700000D01*
X54474505Y-22701204D01*
G37*
G36*
X54474505Y-20651204D02*
G01*
X54498773Y-20654804D01*
X54522572Y-20660765D01*
X54545671Y-20669030D01*
X54567850Y-20679520D01*
X54588893Y-20692132D01*
X54608599Y-20706747D01*
X54626777Y-20723223D01*
X54643253Y-20741401D01*
X54657868Y-20761107D01*
X54670480Y-20782150D01*
X54680970Y-20804329D01*
X54689235Y-20827428D01*
X54695196Y-20851227D01*
X54698796Y-20875495D01*
X54700000Y-20899999D01*
X54700000Y-21550001D01*
X54698796Y-21574505D01*
X54695196Y-21598773D01*
X54689235Y-21622572D01*
X54680970Y-21645671D01*
X54670480Y-21667850D01*
X54657868Y-21688893D01*
X54643253Y-21708599D01*
X54626777Y-21726777D01*
X54608599Y-21743253D01*
X54588893Y-21757868D01*
X54567850Y-21770480D01*
X54545671Y-21780970D01*
X54522572Y-21789235D01*
X54498773Y-21795196D01*
X54474505Y-21798796D01*
X54450001Y-21800000D01*
X53549999Y-21800000D01*
X53525495Y-21798796D01*
X53501227Y-21795196D01*
X53477428Y-21789235D01*
X53454329Y-21780970D01*
X53432150Y-21770480D01*
X53411107Y-21757868D01*
X53391401Y-21743253D01*
X53373223Y-21726777D01*
X53356747Y-21708599D01*
X53342132Y-21688893D01*
X53329520Y-21667850D01*
X53319030Y-21645671D01*
X53310765Y-21622572D01*
X53304804Y-21598773D01*
X53301204Y-21574505D01*
X53300000Y-21550001D01*
X53300000Y-20899999D01*
X53301204Y-20875495D01*
X53304804Y-20851227D01*
X53310765Y-20827428D01*
X53319030Y-20804329D01*
X53329520Y-20782150D01*
X53342132Y-20761107D01*
X53356747Y-20741401D01*
X53373223Y-20723223D01*
X53391401Y-20706747D01*
X53411107Y-20692132D01*
X53432150Y-20679520D01*
X53454329Y-20669030D01*
X53477428Y-20660765D01*
X53501227Y-20654804D01*
X53525495Y-20651204D01*
X53549999Y-20650000D01*
X54450001Y-20650000D01*
X54474505Y-20651204D01*
G37*
G36*
X63224505Y-21726204D02*
G01*
X63248773Y-21729804D01*
X63272572Y-21735765D01*
X63295671Y-21744030D01*
X63317850Y-21754520D01*
X63338893Y-21767132D01*
X63358599Y-21781747D01*
X63376777Y-21798223D01*
X63393253Y-21816401D01*
X63407868Y-21836107D01*
X63420480Y-21857150D01*
X63430970Y-21879329D01*
X63439235Y-21902428D01*
X63445196Y-21926227D01*
X63448796Y-21950495D01*
X63450000Y-21974999D01*
X63450000Y-22625001D01*
X63448796Y-22649505D01*
X63445196Y-22673773D01*
X63439235Y-22697572D01*
X63430970Y-22720671D01*
X63420480Y-22742850D01*
X63407868Y-22763893D01*
X63393253Y-22783599D01*
X63376777Y-22801777D01*
X63358599Y-22818253D01*
X63338893Y-22832868D01*
X63317850Y-22845480D01*
X63295671Y-22855970D01*
X63272572Y-22864235D01*
X63248773Y-22870196D01*
X63224505Y-22873796D01*
X63200001Y-22875000D01*
X62299999Y-22875000D01*
X62275495Y-22873796D01*
X62251227Y-22870196D01*
X62227428Y-22864235D01*
X62204329Y-22855970D01*
X62182150Y-22845480D01*
X62161107Y-22832868D01*
X62141401Y-22818253D01*
X62123223Y-22801777D01*
X62106747Y-22783599D01*
X62092132Y-22763893D01*
X62079520Y-22742850D01*
X62069030Y-22720671D01*
X62060765Y-22697572D01*
X62054804Y-22673773D01*
X62051204Y-22649505D01*
X62050000Y-22625001D01*
X62050000Y-21974999D01*
X62051204Y-21950495D01*
X62054804Y-21926227D01*
X62060765Y-21902428D01*
X62069030Y-21879329D01*
X62079520Y-21857150D01*
X62092132Y-21836107D01*
X62106747Y-21816401D01*
X62123223Y-21798223D01*
X62141401Y-21781747D01*
X62161107Y-21767132D01*
X62182150Y-21754520D01*
X62204329Y-21744030D01*
X62227428Y-21735765D01*
X62251227Y-21729804D01*
X62275495Y-21726204D01*
X62299999Y-21725000D01*
X63200001Y-21725000D01*
X63224505Y-21726204D01*
G37*
G36*
X63224505Y-19676204D02*
G01*
X63248773Y-19679804D01*
X63272572Y-19685765D01*
X63295671Y-19694030D01*
X63317850Y-19704520D01*
X63338893Y-19717132D01*
X63358599Y-19731747D01*
X63376777Y-19748223D01*
X63393253Y-19766401D01*
X63407868Y-19786107D01*
X63420480Y-19807150D01*
X63430970Y-19829329D01*
X63439235Y-19852428D01*
X63445196Y-19876227D01*
X63448796Y-19900495D01*
X63450000Y-19924999D01*
X63450000Y-20575001D01*
X63448796Y-20599505D01*
X63445196Y-20623773D01*
X63439235Y-20647572D01*
X63430970Y-20670671D01*
X63420480Y-20692850D01*
X63407868Y-20713893D01*
X63393253Y-20733599D01*
X63376777Y-20751777D01*
X63358599Y-20768253D01*
X63338893Y-20782868D01*
X63317850Y-20795480D01*
X63295671Y-20805970D01*
X63272572Y-20814235D01*
X63248773Y-20820196D01*
X63224505Y-20823796D01*
X63200001Y-20825000D01*
X62299999Y-20825000D01*
X62275495Y-20823796D01*
X62251227Y-20820196D01*
X62227428Y-20814235D01*
X62204329Y-20805970D01*
X62182150Y-20795480D01*
X62161107Y-20782868D01*
X62141401Y-20768253D01*
X62123223Y-20751777D01*
X62106747Y-20733599D01*
X62092132Y-20713893D01*
X62079520Y-20692850D01*
X62069030Y-20670671D01*
X62060765Y-20647572D01*
X62054804Y-20623773D01*
X62051204Y-20599505D01*
X62050000Y-20575001D01*
X62050000Y-19924999D01*
X62051204Y-19900495D01*
X62054804Y-19876227D01*
X62060765Y-19852428D01*
X62069030Y-19829329D01*
X62079520Y-19807150D01*
X62092132Y-19786107D01*
X62106747Y-19766401D01*
X62123223Y-19748223D01*
X62141401Y-19731747D01*
X62161107Y-19717132D01*
X62182150Y-19704520D01*
X62204329Y-19694030D01*
X62227428Y-19685765D01*
X62251227Y-19679804D01*
X62275495Y-19676204D01*
X62299999Y-19675000D01*
X63200001Y-19675000D01*
X63224505Y-19676204D01*
G37*
G36*
X20099505Y-6701204D02*
G01*
X20123773Y-6704804D01*
X20147572Y-6710765D01*
X20170671Y-6719030D01*
X20192850Y-6729520D01*
X20213893Y-6742132D01*
X20233599Y-6756747D01*
X20251777Y-6773223D01*
X20268253Y-6791401D01*
X20282868Y-6811107D01*
X20295480Y-6832150D01*
X20305970Y-6854329D01*
X20314235Y-6877428D01*
X20320196Y-6901227D01*
X20323796Y-6925495D01*
X20325000Y-6949999D01*
X20325000Y-7850001D01*
X20323796Y-7874505D01*
X20320196Y-7898773D01*
X20314235Y-7922572D01*
X20305970Y-7945671D01*
X20295480Y-7967850D01*
X20282868Y-7988893D01*
X20268253Y-8008599D01*
X20251777Y-8026777D01*
X20233599Y-8043253D01*
X20213893Y-8057868D01*
X20192850Y-8070480D01*
X20170671Y-8080970D01*
X20147572Y-8089235D01*
X20123773Y-8095196D01*
X20099505Y-8098796D01*
X20075001Y-8100000D01*
X19424999Y-8100000D01*
X19400495Y-8098796D01*
X19376227Y-8095196D01*
X19352428Y-8089235D01*
X19329329Y-8080970D01*
X19307150Y-8070480D01*
X19286107Y-8057868D01*
X19266401Y-8043253D01*
X19248223Y-8026777D01*
X19231747Y-8008599D01*
X19217132Y-7988893D01*
X19204520Y-7967850D01*
X19194030Y-7945671D01*
X19185765Y-7922572D01*
X19179804Y-7898773D01*
X19176204Y-7874505D01*
X19175000Y-7850001D01*
X19175000Y-6949999D01*
X19176204Y-6925495D01*
X19179804Y-6901227D01*
X19185765Y-6877428D01*
X19194030Y-6854329D01*
X19204520Y-6832150D01*
X19217132Y-6811107D01*
X19231747Y-6791401D01*
X19248223Y-6773223D01*
X19266401Y-6756747D01*
X19286107Y-6742132D01*
X19307150Y-6729520D01*
X19329329Y-6719030D01*
X19352428Y-6710765D01*
X19376227Y-6704804D01*
X19400495Y-6701204D01*
X19424999Y-6700000D01*
X20075001Y-6700000D01*
X20099505Y-6701204D01*
G37*
G36*
X22149505Y-6701204D02*
G01*
X22173773Y-6704804D01*
X22197572Y-6710765D01*
X22220671Y-6719030D01*
X22242850Y-6729520D01*
X22263893Y-6742132D01*
X22283599Y-6756747D01*
X22301777Y-6773223D01*
X22318253Y-6791401D01*
X22332868Y-6811107D01*
X22345480Y-6832150D01*
X22355970Y-6854329D01*
X22364235Y-6877428D01*
X22370196Y-6901227D01*
X22373796Y-6925495D01*
X22375000Y-6949999D01*
X22375000Y-7850001D01*
X22373796Y-7874505D01*
X22370196Y-7898773D01*
X22364235Y-7922572D01*
X22355970Y-7945671D01*
X22345480Y-7967850D01*
X22332868Y-7988893D01*
X22318253Y-8008599D01*
X22301777Y-8026777D01*
X22283599Y-8043253D01*
X22263893Y-8057868D01*
X22242850Y-8070480D01*
X22220671Y-8080970D01*
X22197572Y-8089235D01*
X22173773Y-8095196D01*
X22149505Y-8098796D01*
X22125001Y-8100000D01*
X21474999Y-8100000D01*
X21450495Y-8098796D01*
X21426227Y-8095196D01*
X21402428Y-8089235D01*
X21379329Y-8080970D01*
X21357150Y-8070480D01*
X21336107Y-8057868D01*
X21316401Y-8043253D01*
X21298223Y-8026777D01*
X21281747Y-8008599D01*
X21267132Y-7988893D01*
X21254520Y-7967850D01*
X21244030Y-7945671D01*
X21235765Y-7922572D01*
X21229804Y-7898773D01*
X21226204Y-7874505D01*
X21225000Y-7850001D01*
X21225000Y-6949999D01*
X21226204Y-6925495D01*
X21229804Y-6901227D01*
X21235765Y-6877428D01*
X21244030Y-6854329D01*
X21254520Y-6832150D01*
X21267132Y-6811107D01*
X21281747Y-6791401D01*
X21298223Y-6773223D01*
X21316401Y-6756747D01*
X21336107Y-6742132D01*
X21357150Y-6729520D01*
X21379329Y-6719030D01*
X21402428Y-6710765D01*
X21426227Y-6704804D01*
X21450495Y-6701204D01*
X21474999Y-6700000D01*
X22125001Y-6700000D01*
X22149505Y-6701204D01*
G37*
M02*
