M48
; DRILL file {KiCad 5.1.5+dfsg1-2build2} date mer. 30 juin 2021 22:49:48
; FORMAT={-:-/ absolute / metric / decimal}
; #@! TF.CreationDate,2021-06-30T22:49:48+02:00
; #@! TF.GenerationSoftware,Kicad,Pcbnew,5.1.5+dfsg1-2build2
FMAT,2
METRIC
T1C0.400
T2C0.500
T3C0.750
T4C0.800
T5C1.000
T6C1.016
T7C1.100
T8C1.200
T9C1.295
T10C1.300
T11C1.500
T12C1.520
T13C1.600
T14C1.800
T15C3.200
T16C1.000
%
G90
G05
T1
X4.2Y-0.6
X4.2Y-5.8
X6.0Y16.0
X7.38Y-32.22
X7.4Y-42.6
X7.446Y-53.754
X7.5Y14.5
X9.6Y-5.8
X9.8Y-0.4
X11.2Y-45.8
X11.231Y-37.231
X11.6Y-4.8
X11.75Y-1.25
X12.4Y-13.2
X12.4Y-14.2
X12.75Y-1.25
X13.0Y0.5
X14.2Y-14.9
X15.75Y-9.25
X16.25Y-10.75
X16.8Y-14.9
X18.0Y-5.75
X18.675Y-6.325
X19.8Y-8.8
X20.8Y-20.8
X22.7Y-2.9
X23.5Y-9.0
X23.75Y-11.75
X23.75Y-13.75
X24.308Y-2.6
X24.5Y-12.5
X24.75Y-14.75
X25.1Y-4.6
X26.0Y-5.8
X26.75Y-9.0
X27.2Y-1.4
X27.5Y-15.0
X27.75Y-27.94
X28.0Y-20.75
X28.75Y1.0
X28.75Y-22.0
X29.4Y-15.6
X30.5Y-5.75
X30.5Y-14.0
X31.5Y5.25
X31.5Y-16.5
X33.0Y4.75
X33.5Y-6.0
X33.6Y-5.0
X34.149Y-18.101
X34.99Y-9.96
X35.3Y-19.7
X36.75Y-16.75
X37.0Y-55.0
X37.5Y-12.25
X40.25Y-24.5
X40.25Y-26.0
X40.85Y-52.15
X41.502Y-54.998
X41.502Y-54.998
X42.75Y-27.25
X42.75Y-28.25
X42.8Y-17.6
X43.5Y-23.5
X45.002Y-54.998
X45.8Y-19.4
X47.4Y-27.4
X47.4Y-29.2
X50.002Y-54.998
X51.5Y-24.5
X54.002Y-54.998
X54.35Y-52.15
X56.0Y-3.5
X56.0Y-4.5
X56.0Y-5.5
X56.0Y-6.5
X56.0Y-7.5
X57.0Y-3.5
X57.0Y-7.5
X58.0Y-3.5
X58.0Y-7.5
X58.002Y-54.998
X59.0Y-3.5
X59.0Y-7.5
X60.0Y28.0
X60.0Y-3.5
X60.0Y-4.5
X60.0Y-5.5
X60.0Y-6.5
X60.0Y-7.5
X60.0Y-27.4
X60.0Y-45.0
X60.0Y-50.0
X60.001Y-54.999
X61.0Y28.0
X61.75Y-23.75
X62.0Y28.0
X62.6Y-27.4
X63.0Y28.0
X63.615Y-29.175
X64.0Y28.0
X65.0Y28.0
X65.0Y-50.0
X65.0Y-55.0
X65.6Y33.6
X66.0Y28.0
X66.6Y33.6
X67.6Y33.6
X68.6Y33.6
X69.6Y33.6
X70.0Y-12.2
X70.0Y-50.0
X70.001Y-54.999
X70.6Y33.6
X71.0Y28.0
X71.2Y-23.0
X71.2Y-24.0
X71.2Y-25.0
X71.2Y-26.0
X71.2Y-27.0
X71.2Y-28.2
X71.6Y33.6
X71.6Y-12.2
X72.0Y28.0
X72.5Y-23.0
X72.5Y-28.4
X72.6Y33.6
X73.0Y28.0
X73.4Y-12.2
X73.6Y33.6
X73.8Y-23.0
X73.8Y-24.0
X73.8Y-25.0
X73.8Y-26.0
X73.8Y-27.0
X73.8Y-28.2
X74.0Y28.0
X74.6Y33.6
X75.0Y28.0
X75.0Y-45.0
X75.0Y-50.0
X75.002Y-54.998
X75.6Y33.6
X76.0Y28.0
X76.6Y33.6
X76.6Y-15.0
X76.6Y-19.8
X77.6Y33.6
X78.6Y33.6
X79.0Y-20.6
X79.6Y33.6
X79.6Y-15.4
X80.002Y-54.998
X80.6Y33.6
X80.6Y-22.0
X81.0Y28.0
X81.6Y33.6
X82.0Y28.0
X82.0Y-15.4
X82.6Y33.6
X83.0Y28.0
X83.5Y-26.0
X83.53Y-30.97
X83.6Y33.6
X84.0Y28.0
X84.0Y-35.0
X84.0Y-36.0
X84.0Y-37.0
X84.0Y-38.0
X84.0Y-39.0
X84.1Y-49.4
X84.2Y-18.4
X84.2Y-20.4
X84.4Y-16.4
X84.5Y-26.0
X84.6Y33.6
X84.675Y-54.175
X85.0Y28.0
X85.0Y-35.0
X85.0Y-39.0
X85.5Y-26.0
X85.6Y33.6
X86.0Y-27.5
X86.0Y-28.5
X86.0Y-35.0
X86.0Y-39.0
X86.0Y-50.5
X86.6Y33.6
X87.0Y-35.0
X87.0Y-39.0
X87.6Y33.6
X87.7Y-5.88
X88.0Y-14.4
X88.0Y-35.0
X88.0Y-36.0
X88.0Y-37.0
X88.0Y-38.0
X88.0Y-39.0
X88.15Y-52.85
X88.35Y-4.43
X88.6Y33.6
X88.837Y-5.842
X89.2Y-17.6
X89.6Y33.6
X90.2Y6.4
X90.4Y-17.6
X90.6Y33.6
X91.05Y-7.28
X91.05Y-8.28
X91.05Y-9.28
X91.2Y6.4
X91.391Y-6.321
X91.5Y3.75
X91.6Y33.6
X91.8Y-16.2
X91.8Y-17.6
X91.9Y10.7
X92.2Y6.4
X92.6Y33.6
X93.062Y-9.518
X93.2Y9.4
X94.65Y-52.85
X95.0Y-35.0
X95.0Y-36.0
X95.0Y-37.0
X95.0Y-38.0
X95.0Y-39.0
X96.0Y-35.0
X96.0Y-39.0
X96.75Y-26.25
X97.0Y-35.0
X97.0Y-39.0
X97.2Y-21.6
X97.2Y-23.4
X98.0Y-35.0
X98.0Y-39.0
X98.4Y-26.4
X98.4Y-29.0
X98.5Y-36.0
X98.5Y-37.0
X98.5Y-38.0
X99.0Y-32.6
X99.0Y-52.0
X99.0Y-53.0
X100.0Y-29.0
X100.6Y-20.0
X101.4Y-33.0
X101.6Y-23.4
T2
X5.1Y-60.0
X5.803Y-58.303
X5.803Y-61.697
X7.5Y-57.6
X7.5Y-62.4
X9.197Y-58.303
X9.197Y-61.697
X9.9Y-60.0
X5.1Y30.0
X5.803Y31.697
X5.803Y28.303
X7.5Y32.4
X7.5Y27.6
X9.197Y31.697
X9.197Y28.303
X9.9Y30.0
X95.1Y-60.0
X95.803Y-58.303
X95.803Y-61.697
X97.5Y-57.6
X97.5Y-62.4
X99.197Y-58.303
X99.197Y-61.697
X99.9Y-60.0
X95.1Y30.0
X95.803Y31.697
X95.803Y28.303
X97.5Y32.4
X97.5Y27.6
X99.197Y31.697
X99.197Y28.303
X99.9Y30.0
T3
X23.43Y2.8
X24.7Y2.8
X25.97Y2.8
T4
X39.2Y-50.3
X39.2Y-52.3
X17.556Y-12.6
X17.556Y-17.48
X84.45Y-4.43
X86.45Y-4.43
X57.95Y-34.8
X62.95Y-34.8
X90.15Y-4.43
X92.15Y-4.43
X55.95Y-50.3
X55.95Y-52.3
X87.4Y-31.4
X89.4Y-31.4
X39.286Y-6.686
X39.286Y-9.226
X39.286Y-11.766
X54.6Y21.0
X56.6Y21.0
X82.912Y-12.618
X86.412Y-12.618
X44.4Y-17.6
X46.4Y-17.6
X56.95Y-27.4
X56.95Y-29.4
T5
X96.75Y-47.85
X96.75Y-52.85
X96.7Y-37.05
X96.7Y-42.05
X32.75Y-24.5
X18.5Y-27.94
X21.04Y-27.94
X23.58Y-27.94
X38.75Y0.0
X86.0Y-47.85
X86.0Y-52.85
X6.2Y-24.6
X85.95Y-37.05
X85.95Y-42.05
X56.75Y-23.75
X40.25Y-16.0
X94.75Y4.5
X60.0Y-20.5
X94.75Y7.5
X59.0Y-16.5
X18.46Y-24.0
X21.0Y-24.0
X23.54Y-24.0
X94.75Y10.5
X56.75Y-20.5
X10.0Y-24.6
T6
X15.8Y15.28
X15.8Y12.74
X15.8Y10.2
X15.8Y7.66
X15.8Y5.12
X18.34Y15.28
X18.34Y12.74
X18.34Y10.2
X18.34Y7.66
X18.34Y5.12
T7
X6.248Y-12.457
X6.248Y-14.997
X6.248Y-17.537
X6.248Y-20.077
T8
X39.262Y-47.498
X39.262Y-54.998
X56.05Y-47.498
X56.05Y-54.998
X45.59Y9.446
X45.59Y-5.554
X58.09Y9.446
X58.09Y-5.554
T9
X23.8Y22.5
X23.8Y7.26
X31.4Y19.96
X31.4Y7.26
T10
X52.88Y30.0
X57.96Y30.0
X63.04Y30.0
X68.12Y30.0
X73.2Y30.0
X78.28Y30.0
X83.36Y30.0
X88.44Y30.0
T11
X67.31Y21.6
X67.31Y-1.0
X86.823Y11.91
X86.823Y0.51
X94.0Y-20.6
X94.0Y-32.0
X51.094Y-18.562
X51.094Y-29.962
X78.74Y21.33
X78.74Y-1.27
T12
X20.511Y30.359
X25.591Y30.359
X30.671Y30.359
X35.751Y30.359
T13
X45.212Y30.48
X45.212Y22.86
X78.45Y-28.55
X83.53Y-28.55
T14
X67.7Y-45.3
X77.86Y-45.3
T15
X7.5Y-60.0
X7.5Y30.0
X97.5Y-60.0
X97.5Y30.0
T16
X7.0Y-1.0
X7.0Y-5.4
T0
M30
