G04 #@! TF.GenerationSoftware,KiCad,Pcbnew,5.1.5+dfsg1-2build2*
G04 #@! TF.CreationDate,2021-06-30T22:55:55+02:00*
G04 #@! TF.ProjectId,solar_mppt1,736f6c61-725f-46d7-9070-74312e6b6963,rev?*
G04 #@! TF.SameCoordinates,Original*
G04 #@! TF.FileFunction,Soldermask,Top*
G04 #@! TF.FilePolarity,Negative*
%FSLAX46Y46*%
G04 Gerber Fmt 4.6, Leading zero omitted, Abs format (unit mm)*
G04 Created by KiCad (PCBNEW 5.1.5+dfsg1-2build2) date 2021-06-30 22:55:55*
%MOMM*%
%LPD*%
G04 APERTURE LIST*
%ADD10C,0.100000*%
G04 APERTURE END LIST*
D10*
G36*
X98134239Y-56811467D02*
G01*
X98448282Y-56873934D01*
X99039926Y-57119001D01*
X99572392Y-57474784D01*
X100025216Y-57927608D01*
X100380999Y-58460074D01*
X100626066Y-59051718D01*
X100626066Y-59051719D01*
X100751000Y-59679803D01*
X100751000Y-60320197D01*
X100688533Y-60634239D01*
X100626066Y-60948282D01*
X100380999Y-61539926D01*
X100025216Y-62072392D01*
X99572392Y-62525216D01*
X99039926Y-62880999D01*
X98448282Y-63126066D01*
X98134239Y-63188533D01*
X97820197Y-63251000D01*
X97179803Y-63251000D01*
X96865761Y-63188533D01*
X96551718Y-63126066D01*
X95960074Y-62880999D01*
X95427608Y-62525216D01*
X94974784Y-62072392D01*
X94619001Y-61539926D01*
X94373934Y-60948282D01*
X94311467Y-60634239D01*
X94249000Y-60320197D01*
X94249000Y-59679803D01*
X94373934Y-59051719D01*
X94373934Y-59051718D01*
X94619001Y-58460074D01*
X94974784Y-57927608D01*
X95427608Y-57474784D01*
X95960074Y-57119001D01*
X96551718Y-56873934D01*
X96865761Y-56811467D01*
X97179803Y-56749000D01*
X97820197Y-56749000D01*
X98134239Y-56811467D01*
G37*
G36*
X8134239Y-56811467D02*
G01*
X8448282Y-56873934D01*
X9039926Y-57119001D01*
X9572392Y-57474784D01*
X10025216Y-57927608D01*
X10380999Y-58460074D01*
X10626066Y-59051718D01*
X10626066Y-59051719D01*
X10751000Y-59679803D01*
X10751000Y-60320197D01*
X10688533Y-60634239D01*
X10626066Y-60948282D01*
X10380999Y-61539926D01*
X10025216Y-62072392D01*
X9572392Y-62525216D01*
X9039926Y-62880999D01*
X8448282Y-63126066D01*
X8134239Y-63188533D01*
X7820197Y-63251000D01*
X7179803Y-63251000D01*
X6865761Y-63188533D01*
X6551718Y-63126066D01*
X5960074Y-62880999D01*
X5427608Y-62525216D01*
X4974784Y-62072392D01*
X4619001Y-61539926D01*
X4373934Y-60948282D01*
X4311467Y-60634239D01*
X4249000Y-60320197D01*
X4249000Y-59679803D01*
X4373934Y-59051719D01*
X4373934Y-59051718D01*
X4619001Y-58460074D01*
X4974784Y-57927608D01*
X5427608Y-57474784D01*
X5960074Y-57119001D01*
X6551718Y-56873934D01*
X6865761Y-56811467D01*
X7179803Y-56749000D01*
X7820197Y-56749000D01*
X8134239Y-56811467D01*
G37*
G36*
X56346074Y-53781384D02*
G01*
X56414903Y-53795075D01*
X56642571Y-53889378D01*
X56847466Y-54026285D01*
X57021715Y-54200534D01*
X57158622Y-54405429D01*
X57252925Y-54633097D01*
X57301000Y-54874787D01*
X57301000Y-55121213D01*
X57252925Y-55362903D01*
X57158622Y-55590571D01*
X57021715Y-55795466D01*
X56847466Y-55969715D01*
X56642571Y-56106622D01*
X56642570Y-56106623D01*
X56642569Y-56106623D01*
X56414903Y-56200925D01*
X56173214Y-56249000D01*
X55926786Y-56249000D01*
X55685097Y-56200925D01*
X55457431Y-56106623D01*
X55457430Y-56106623D01*
X55457429Y-56106622D01*
X55252534Y-55969715D01*
X55078285Y-55795466D01*
X54941378Y-55590571D01*
X54847075Y-55362903D01*
X54799000Y-55121213D01*
X54799000Y-54874787D01*
X54847075Y-54633097D01*
X54941378Y-54405429D01*
X55078285Y-54200534D01*
X55252534Y-54026285D01*
X55457429Y-53889378D01*
X55685097Y-53795075D01*
X55753926Y-53781384D01*
X55926786Y-53747000D01*
X56173214Y-53747000D01*
X56346074Y-53781384D01*
G37*
G36*
X39558074Y-53781384D02*
G01*
X39626903Y-53795075D01*
X39854571Y-53889378D01*
X40059466Y-54026285D01*
X40233715Y-54200534D01*
X40370622Y-54405429D01*
X40464925Y-54633097D01*
X40513000Y-54874787D01*
X40513000Y-55121213D01*
X40464925Y-55362903D01*
X40370622Y-55590571D01*
X40233715Y-55795466D01*
X40059466Y-55969715D01*
X39854571Y-56106622D01*
X39854570Y-56106623D01*
X39854569Y-56106623D01*
X39626903Y-56200925D01*
X39385214Y-56249000D01*
X39138786Y-56249000D01*
X38897097Y-56200925D01*
X38669431Y-56106623D01*
X38669430Y-56106623D01*
X38669429Y-56106622D01*
X38464534Y-55969715D01*
X38290285Y-55795466D01*
X38153378Y-55590571D01*
X38059075Y-55362903D01*
X38011000Y-55121213D01*
X38011000Y-54874787D01*
X38059075Y-54633097D01*
X38153378Y-54405429D01*
X38290285Y-54200534D01*
X38464534Y-54026285D01*
X38669429Y-53889378D01*
X38897097Y-53795075D01*
X38965926Y-53781384D01*
X39138786Y-53747000D01*
X39385214Y-53747000D01*
X39558074Y-53781384D01*
G37*
G36*
X4749400Y-55153100D02*
G01*
X3860000Y-55153100D01*
X3860000Y-53603300D01*
X4749400Y-53603300D01*
X4749400Y-55153100D01*
G37*
G36*
X9098499Y-53182445D02*
G01*
X9135995Y-53193820D01*
X9170554Y-53212292D01*
X9200847Y-53237153D01*
X9225708Y-53267446D01*
X9244180Y-53302005D01*
X9255555Y-53339501D01*
X9260000Y-53384638D01*
X9260000Y-54123362D01*
X9255555Y-54168499D01*
X9244180Y-54205995D01*
X9225708Y-54240554D01*
X9200847Y-54270847D01*
X9170554Y-54295708D01*
X9135995Y-54314180D01*
X9098499Y-54325555D01*
X9053362Y-54330000D01*
X8414638Y-54330000D01*
X8369501Y-54325555D01*
X8332005Y-54314180D01*
X8297446Y-54295708D01*
X8267153Y-54270847D01*
X8242292Y-54240554D01*
X8223820Y-54205995D01*
X8212445Y-54168499D01*
X8208000Y-54123362D01*
X8208000Y-53384638D01*
X8212445Y-53339501D01*
X8223820Y-53302005D01*
X8242292Y-53267446D01*
X8267153Y-53237153D01*
X8297446Y-53212292D01*
X8332005Y-53193820D01*
X8369501Y-53182445D01*
X8414638Y-53178000D01*
X9053362Y-53178000D01*
X9098499Y-53182445D01*
G37*
G36*
X86306564Y-51839389D02*
G01*
X86445408Y-51896900D01*
X86497835Y-51918616D01*
X86669973Y-52033635D01*
X86816365Y-52180027D01*
X86931385Y-52352167D01*
X87010611Y-52543436D01*
X87051000Y-52746484D01*
X87051000Y-52953516D01*
X87010611Y-53156564D01*
X86934836Y-53339501D01*
X86931384Y-53347835D01*
X86816365Y-53519973D01*
X86669973Y-53666365D01*
X86497835Y-53781384D01*
X86497834Y-53781385D01*
X86497833Y-53781385D01*
X86306564Y-53860611D01*
X86103516Y-53901000D01*
X85896484Y-53901000D01*
X85693436Y-53860611D01*
X85502167Y-53781385D01*
X85502166Y-53781385D01*
X85502165Y-53781384D01*
X85330027Y-53666365D01*
X85183635Y-53519973D01*
X85068616Y-53347835D01*
X85065164Y-53339501D01*
X84989389Y-53156564D01*
X84949000Y-52953516D01*
X84949000Y-52746484D01*
X84989389Y-52543436D01*
X85068615Y-52352167D01*
X85183635Y-52180027D01*
X85330027Y-52033635D01*
X85502165Y-51918616D01*
X85554592Y-51896900D01*
X85693436Y-51839389D01*
X85896484Y-51799000D01*
X86103516Y-51799000D01*
X86306564Y-51839389D01*
G37*
G36*
X97056564Y-51839389D02*
G01*
X97195408Y-51896900D01*
X97247835Y-51918616D01*
X97419973Y-52033635D01*
X97566365Y-52180027D01*
X97681385Y-52352167D01*
X97760611Y-52543436D01*
X97801000Y-52746484D01*
X97801000Y-52953516D01*
X97760611Y-53156564D01*
X97684836Y-53339501D01*
X97681384Y-53347835D01*
X97566365Y-53519973D01*
X97419973Y-53666365D01*
X97247835Y-53781384D01*
X97247834Y-53781385D01*
X97247833Y-53781385D01*
X97056564Y-53860611D01*
X96853516Y-53901000D01*
X96646484Y-53901000D01*
X96443436Y-53860611D01*
X96252167Y-53781385D01*
X96252166Y-53781385D01*
X96252165Y-53781384D01*
X96080027Y-53666365D01*
X95933635Y-53519973D01*
X95818616Y-53347835D01*
X95815164Y-53339501D01*
X95739389Y-53156564D01*
X95699000Y-52953516D01*
X95699000Y-52746484D01*
X95739389Y-52543436D01*
X95818615Y-52352167D01*
X95933635Y-52180027D01*
X96080027Y-52033635D01*
X96252165Y-51918616D01*
X96304592Y-51896900D01*
X96443436Y-51839389D01*
X96646484Y-51799000D01*
X96853516Y-51799000D01*
X97056564Y-51839389D01*
G37*
G36*
X6883000Y-53591000D02*
G01*
X5511000Y-53591000D01*
X5511000Y-52600000D01*
X6883000Y-52600000D01*
X6883000Y-53591000D01*
G37*
G36*
X56198228Y-51481703D02*
G01*
X56353100Y-51545853D01*
X56492481Y-51638985D01*
X56611015Y-51757519D01*
X56704147Y-51896900D01*
X56768297Y-52051772D01*
X56801000Y-52216184D01*
X56801000Y-52383816D01*
X56768297Y-52548228D01*
X56704147Y-52703100D01*
X56611015Y-52842481D01*
X56492481Y-52961015D01*
X56353100Y-53054147D01*
X56198228Y-53118297D01*
X56033816Y-53151000D01*
X55866184Y-53151000D01*
X55701772Y-53118297D01*
X55546900Y-53054147D01*
X55407519Y-52961015D01*
X55288985Y-52842481D01*
X55195853Y-52703100D01*
X55131703Y-52548228D01*
X55099000Y-52383816D01*
X55099000Y-52216184D01*
X55131703Y-52051772D01*
X55195853Y-51896900D01*
X55288985Y-51757519D01*
X55407519Y-51638985D01*
X55546900Y-51545853D01*
X55701772Y-51481703D01*
X55866184Y-51449000D01*
X56033816Y-51449000D01*
X56198228Y-51481703D01*
G37*
G36*
X39448228Y-51481703D02*
G01*
X39603100Y-51545853D01*
X39742481Y-51638985D01*
X39861015Y-51757519D01*
X39954147Y-51896900D01*
X40018297Y-52051772D01*
X40051000Y-52216184D01*
X40051000Y-52383816D01*
X40018297Y-52548228D01*
X39954147Y-52703100D01*
X39861015Y-52842481D01*
X39742481Y-52961015D01*
X39603100Y-53054147D01*
X39448228Y-53118297D01*
X39283816Y-53151000D01*
X39116184Y-53151000D01*
X38951772Y-53118297D01*
X38796900Y-53054147D01*
X38657519Y-52961015D01*
X38538985Y-52842481D01*
X38445853Y-52703100D01*
X38381703Y-52548228D01*
X38349000Y-52383816D01*
X38349000Y-52216184D01*
X38381703Y-52051772D01*
X38445853Y-51896900D01*
X38538985Y-51757519D01*
X38657519Y-51638985D01*
X38796900Y-51545853D01*
X38951772Y-51481703D01*
X39116184Y-51449000D01*
X39283816Y-51449000D01*
X39448228Y-51481703D01*
G37*
G36*
X9098499Y-51432445D02*
G01*
X9135995Y-51443820D01*
X9170554Y-51462292D01*
X9200847Y-51487153D01*
X9225708Y-51517446D01*
X9244180Y-51552005D01*
X9255555Y-51589501D01*
X9260000Y-51634638D01*
X9260000Y-52373362D01*
X9255555Y-52418499D01*
X9244180Y-52455995D01*
X9225708Y-52490554D01*
X9200847Y-52520847D01*
X9170554Y-52545708D01*
X9135995Y-52564180D01*
X9098499Y-52575555D01*
X9053362Y-52580000D01*
X8414638Y-52580000D01*
X8369501Y-52575555D01*
X8332005Y-52564180D01*
X8297446Y-52545708D01*
X8267153Y-52520847D01*
X8242292Y-52490554D01*
X8223820Y-52455995D01*
X8212445Y-52418499D01*
X8208000Y-52373362D01*
X8208000Y-51634638D01*
X8212445Y-51589501D01*
X8223820Y-51552005D01*
X8242292Y-51517446D01*
X8267153Y-51487153D01*
X8297446Y-51462292D01*
X8332005Y-51443820D01*
X8369501Y-51432445D01*
X8414638Y-51428000D01*
X9053362Y-51428000D01*
X9098499Y-51432445D01*
G37*
G36*
X40051000Y-51151000D02*
G01*
X38349000Y-51151000D01*
X38349000Y-49449000D01*
X40051000Y-49449000D01*
X40051000Y-51151000D01*
G37*
G36*
X56801000Y-51151000D02*
G01*
X55099000Y-51151000D01*
X55099000Y-49449000D01*
X56801000Y-49449000D01*
X56801000Y-51151000D01*
G37*
G36*
X9098499Y-49400445D02*
G01*
X9135995Y-49411820D01*
X9170554Y-49430292D01*
X9200847Y-49455153D01*
X9225708Y-49485446D01*
X9244180Y-49520005D01*
X9255555Y-49557501D01*
X9260000Y-49602638D01*
X9260000Y-50341362D01*
X9255555Y-50386499D01*
X9244180Y-50423995D01*
X9225708Y-50458554D01*
X9200847Y-50488847D01*
X9170554Y-50513708D01*
X9135995Y-50532180D01*
X9098499Y-50543555D01*
X9053362Y-50548000D01*
X8414638Y-50548000D01*
X8369501Y-50543555D01*
X8332005Y-50532180D01*
X8297446Y-50513708D01*
X8267153Y-50488847D01*
X8242292Y-50458554D01*
X8223820Y-50423995D01*
X8212445Y-50386499D01*
X8208000Y-50341362D01*
X8208000Y-49602638D01*
X8212445Y-49557501D01*
X8223820Y-49520005D01*
X8242292Y-49485446D01*
X8267153Y-49455153D01*
X8297446Y-49430292D01*
X8332005Y-49411820D01*
X8369501Y-49400445D01*
X8414638Y-49396000D01*
X9053362Y-49396000D01*
X9098499Y-49400445D01*
G37*
G36*
X6883000Y-49400000D02*
G01*
X5511000Y-49400000D01*
X5511000Y-48409000D01*
X6883000Y-48409000D01*
X6883000Y-49400000D01*
G37*
G36*
X87051000Y-48901000D02*
G01*
X84949000Y-48901000D01*
X84949000Y-46799000D01*
X87051000Y-46799000D01*
X87051000Y-48901000D01*
G37*
G36*
X97801000Y-48901000D02*
G01*
X95699000Y-48901000D01*
X95699000Y-46799000D01*
X97801000Y-46799000D01*
X97801000Y-48901000D01*
G37*
G36*
X9098499Y-47650445D02*
G01*
X9135995Y-47661820D01*
X9170554Y-47680292D01*
X9200847Y-47705153D01*
X9225708Y-47735446D01*
X9244180Y-47770005D01*
X9255555Y-47807501D01*
X9260000Y-47852638D01*
X9260000Y-48591362D01*
X9255555Y-48636499D01*
X9244180Y-48673995D01*
X9225708Y-48708554D01*
X9200847Y-48738847D01*
X9170554Y-48763708D01*
X9135995Y-48782180D01*
X9098499Y-48793555D01*
X9053362Y-48798000D01*
X8414638Y-48798000D01*
X8369501Y-48793555D01*
X8332005Y-48782180D01*
X8297446Y-48763708D01*
X8267153Y-48738847D01*
X8242292Y-48708554D01*
X8223820Y-48673995D01*
X8212445Y-48636499D01*
X8208000Y-48591362D01*
X8208000Y-47852638D01*
X8212445Y-47807501D01*
X8223820Y-47770005D01*
X8242292Y-47735446D01*
X8267153Y-47705153D01*
X8297446Y-47680292D01*
X8332005Y-47661820D01*
X8369501Y-47650445D01*
X8414638Y-47646000D01*
X9053362Y-47646000D01*
X9098499Y-47650445D01*
G37*
G36*
X57301000Y-48749000D02*
G01*
X54799000Y-48749000D01*
X54799000Y-46247000D01*
X57301000Y-46247000D01*
X57301000Y-48749000D01*
G37*
G36*
X40513000Y-48749000D02*
G01*
X38011000Y-48749000D01*
X38011000Y-46247000D01*
X40513000Y-46247000D01*
X40513000Y-48749000D01*
G37*
G36*
X4749400Y-48396700D02*
G01*
X3860000Y-48396700D01*
X3860000Y-46846900D01*
X4749400Y-46846900D01*
X4749400Y-48396700D01*
G37*
G36*
X78097986Y-43460075D02*
G01*
X78399917Y-43520133D01*
X78539448Y-43577929D01*
X78736776Y-43659664D01*
X79039943Y-43862234D01*
X79297766Y-44120057D01*
X79500336Y-44423224D01*
X79529238Y-44493000D01*
X79639867Y-44760083D01*
X79663491Y-44878847D01*
X79711000Y-45117691D01*
X79711000Y-45482309D01*
X79639867Y-45839916D01*
X79500336Y-46176776D01*
X79297766Y-46479943D01*
X79039943Y-46737766D01*
X78736776Y-46940336D01*
X78539448Y-47022071D01*
X78399917Y-47079867D01*
X78221112Y-47115434D01*
X78042309Y-47151000D01*
X77677691Y-47151000D01*
X77498887Y-47115433D01*
X77320083Y-47079867D01*
X77180552Y-47022071D01*
X76983224Y-46940336D01*
X76680057Y-46737766D01*
X76422234Y-46479943D01*
X76219664Y-46176776D01*
X76080133Y-45839916D01*
X76009000Y-45482309D01*
X76009000Y-45117691D01*
X76056509Y-44878847D01*
X76080133Y-44760083D01*
X76190762Y-44493000D01*
X76219664Y-44423224D01*
X76422234Y-44120057D01*
X76680057Y-43862234D01*
X76983224Y-43659664D01*
X77180552Y-43577929D01*
X77320083Y-43520133D01*
X77622014Y-43460075D01*
X77677691Y-43449000D01*
X78042309Y-43449000D01*
X78097986Y-43460075D01*
G37*
G36*
X67937986Y-43460075D02*
G01*
X68239917Y-43520133D01*
X68379448Y-43577929D01*
X68576776Y-43659664D01*
X68879943Y-43862234D01*
X69137766Y-44120057D01*
X69340336Y-44423224D01*
X69369238Y-44493000D01*
X69479867Y-44760083D01*
X69503491Y-44878847D01*
X69551000Y-45117691D01*
X69551000Y-45482309D01*
X69479867Y-45839916D01*
X69340336Y-46176776D01*
X69137766Y-46479943D01*
X68879943Y-46737766D01*
X68576776Y-46940336D01*
X68379448Y-47022071D01*
X68239917Y-47079867D01*
X68061112Y-47115434D01*
X67882309Y-47151000D01*
X67517691Y-47151000D01*
X67338887Y-47115433D01*
X67160083Y-47079867D01*
X67020552Y-47022071D01*
X66823224Y-46940336D01*
X66520057Y-46737766D01*
X66262234Y-46479943D01*
X66059664Y-46176776D01*
X65920133Y-45839916D01*
X65849000Y-45482309D01*
X65849000Y-45117691D01*
X65896509Y-44878847D01*
X65920133Y-44760083D01*
X66030762Y-44493000D01*
X66059664Y-44423224D01*
X66262234Y-44120057D01*
X66520057Y-43862234D01*
X66823224Y-43659664D01*
X67020552Y-43577929D01*
X67160083Y-43520133D01*
X67462014Y-43460075D01*
X67517691Y-43449000D01*
X67882309Y-43449000D01*
X67937986Y-43460075D01*
G37*
G36*
X9322674Y-45295465D02*
G01*
X9360367Y-45306899D01*
X9395103Y-45325466D01*
X9425548Y-45350452D01*
X9450534Y-45380897D01*
X9469101Y-45415633D01*
X9480535Y-45453326D01*
X9485000Y-45498661D01*
X9485000Y-46335339D01*
X9480535Y-46380674D01*
X9469101Y-46418367D01*
X9450534Y-46453103D01*
X9425548Y-46483548D01*
X9395103Y-46508534D01*
X9360367Y-46527101D01*
X9322674Y-46538535D01*
X9277339Y-46543000D01*
X8190661Y-46543000D01*
X8145326Y-46538535D01*
X8107633Y-46527101D01*
X8072897Y-46508534D01*
X8042452Y-46483548D01*
X8017466Y-46453103D01*
X7998899Y-46418367D01*
X7987465Y-46380674D01*
X7983000Y-46335339D01*
X7983000Y-45498661D01*
X7987465Y-45453326D01*
X7998899Y-45415633D01*
X8017466Y-45380897D01*
X8042452Y-45350452D01*
X8072897Y-45325466D01*
X8107633Y-45306899D01*
X8145326Y-45295465D01*
X8190661Y-45291000D01*
X9277339Y-45291000D01*
X9322674Y-45295465D01*
G37*
G36*
X13395499Y-43890445D02*
G01*
X13432995Y-43901820D01*
X13467554Y-43920292D01*
X13497847Y-43945153D01*
X13522708Y-43975446D01*
X13541180Y-44010005D01*
X13552555Y-44047501D01*
X13557000Y-44092638D01*
X13557000Y-44731362D01*
X13552555Y-44776499D01*
X13541180Y-44813995D01*
X13522708Y-44848554D01*
X13497847Y-44878847D01*
X13467554Y-44903708D01*
X13432995Y-44922180D01*
X13395499Y-44933555D01*
X13350362Y-44938000D01*
X12611638Y-44938000D01*
X12566501Y-44933555D01*
X12529005Y-44922180D01*
X12494446Y-44903708D01*
X12464153Y-44878847D01*
X12439292Y-44848554D01*
X12420820Y-44813995D01*
X12409445Y-44776499D01*
X12405000Y-44731362D01*
X12405000Y-44092638D01*
X12409445Y-44047501D01*
X12420820Y-44010005D01*
X12439292Y-43975446D01*
X12464153Y-43945153D01*
X12494446Y-43920292D01*
X12529005Y-43901820D01*
X12566501Y-43890445D01*
X12611638Y-43886000D01*
X13350362Y-43886000D01*
X13395499Y-43890445D01*
G37*
G36*
X11645499Y-43890445D02*
G01*
X11682995Y-43901820D01*
X11717554Y-43920292D01*
X11747847Y-43945153D01*
X11772708Y-43975446D01*
X11791180Y-44010005D01*
X11802555Y-44047501D01*
X11807000Y-44092638D01*
X11807000Y-44731362D01*
X11802555Y-44776499D01*
X11791180Y-44813995D01*
X11772708Y-44848554D01*
X11747847Y-44878847D01*
X11717554Y-44903708D01*
X11682995Y-44922180D01*
X11645499Y-44933555D01*
X11600362Y-44938000D01*
X10861638Y-44938000D01*
X10816501Y-44933555D01*
X10779005Y-44922180D01*
X10744446Y-44903708D01*
X10714153Y-44878847D01*
X10689292Y-44848554D01*
X10670820Y-44813995D01*
X10659445Y-44776499D01*
X10655000Y-44731362D01*
X10655000Y-44092638D01*
X10659445Y-44047501D01*
X10670820Y-44010005D01*
X10689292Y-43975446D01*
X10714153Y-43945153D01*
X10744446Y-43920292D01*
X10779005Y-43901820D01*
X10816501Y-43890445D01*
X10861638Y-43886000D01*
X11600362Y-43886000D01*
X11645499Y-43890445D01*
G37*
G36*
X18801000Y-44547000D02*
G01*
X17699000Y-44547000D01*
X17699000Y-43645000D01*
X18801000Y-43645000D01*
X18801000Y-44547000D01*
G37*
G36*
X16301000Y-44547000D02*
G01*
X15199000Y-44547000D01*
X15199000Y-43645000D01*
X16301000Y-43645000D01*
X16301000Y-44547000D01*
G37*
G36*
X9322674Y-43245465D02*
G01*
X9360367Y-43256899D01*
X9395103Y-43275466D01*
X9425548Y-43300452D01*
X9450534Y-43330897D01*
X9469101Y-43365633D01*
X9480535Y-43403326D01*
X9485000Y-43448661D01*
X9485000Y-44285339D01*
X9480535Y-44330674D01*
X9469101Y-44368367D01*
X9450534Y-44403103D01*
X9425548Y-44433548D01*
X9395103Y-44458534D01*
X9360367Y-44477101D01*
X9322674Y-44488535D01*
X9277339Y-44493000D01*
X8190661Y-44493000D01*
X8145326Y-44488535D01*
X8107633Y-44477101D01*
X8072897Y-44458534D01*
X8042452Y-44433548D01*
X8017466Y-44403103D01*
X7998899Y-44368367D01*
X7987465Y-44330674D01*
X7983000Y-44285339D01*
X7983000Y-43448661D01*
X7987465Y-43403326D01*
X7998899Y-43365633D01*
X8017466Y-43330897D01*
X8042452Y-43300452D01*
X8072897Y-43275466D01*
X8107633Y-43256899D01*
X8145326Y-43245465D01*
X8190661Y-43241000D01*
X9277339Y-43241000D01*
X9322674Y-43245465D01*
G37*
G36*
X18801000Y-43147000D02*
G01*
X17699000Y-43147000D01*
X17699000Y-42245000D01*
X18801000Y-42245000D01*
X18801000Y-43147000D01*
G37*
G36*
X16301000Y-43147000D02*
G01*
X15199000Y-43147000D01*
X15199000Y-42245000D01*
X16301000Y-42245000D01*
X16301000Y-43147000D01*
G37*
G36*
X87001000Y-43101000D02*
G01*
X84899000Y-43101000D01*
X84899000Y-40999000D01*
X87001000Y-40999000D01*
X87001000Y-43101000D01*
G37*
G36*
X97751000Y-43101000D02*
G01*
X95649000Y-43101000D01*
X95649000Y-40999000D01*
X97751000Y-40999000D01*
X97751000Y-43101000D01*
G37*
G36*
X11645499Y-41858445D02*
G01*
X11682995Y-41869820D01*
X11717554Y-41888292D01*
X11747847Y-41913153D01*
X11772708Y-41943446D01*
X11791180Y-41978005D01*
X11802555Y-42015501D01*
X11807000Y-42060638D01*
X11807000Y-42699362D01*
X11802555Y-42744499D01*
X11791180Y-42781995D01*
X11772708Y-42816554D01*
X11747847Y-42846847D01*
X11717554Y-42871708D01*
X11682995Y-42890180D01*
X11645499Y-42901555D01*
X11600362Y-42906000D01*
X10861638Y-42906000D01*
X10816501Y-42901555D01*
X10779005Y-42890180D01*
X10744446Y-42871708D01*
X10714153Y-42846847D01*
X10689292Y-42816554D01*
X10670820Y-42781995D01*
X10659445Y-42744499D01*
X10655000Y-42699362D01*
X10655000Y-42060638D01*
X10659445Y-42015501D01*
X10670820Y-41978005D01*
X10689292Y-41943446D01*
X10714153Y-41913153D01*
X10744446Y-41888292D01*
X10779005Y-41869820D01*
X10816501Y-41858445D01*
X10861638Y-41854000D01*
X11600362Y-41854000D01*
X11645499Y-41858445D01*
G37*
G36*
X13395499Y-41858445D02*
G01*
X13432995Y-41869820D01*
X13467554Y-41888292D01*
X13497847Y-41913153D01*
X13522708Y-41943446D01*
X13541180Y-41978005D01*
X13552555Y-42015501D01*
X13557000Y-42060638D01*
X13557000Y-42699362D01*
X13552555Y-42744499D01*
X13541180Y-42781995D01*
X13522708Y-42816554D01*
X13497847Y-42846847D01*
X13467554Y-42871708D01*
X13432995Y-42890180D01*
X13395499Y-42901555D01*
X13350362Y-42906000D01*
X12611638Y-42906000D01*
X12566501Y-42901555D01*
X12529005Y-42890180D01*
X12494446Y-42871708D01*
X12464153Y-42846847D01*
X12439292Y-42816554D01*
X12420820Y-42781995D01*
X12409445Y-42744499D01*
X12405000Y-42699362D01*
X12405000Y-42060638D01*
X12409445Y-42015501D01*
X12420820Y-41978005D01*
X12439292Y-41943446D01*
X12464153Y-41913153D01*
X12494446Y-41888292D01*
X12529005Y-41869820D01*
X12566501Y-41858445D01*
X12611638Y-41854000D01*
X13350362Y-41854000D01*
X13395499Y-41858445D01*
G37*
G36*
X9322674Y-40968465D02*
G01*
X9360367Y-40979899D01*
X9395103Y-40998466D01*
X9425548Y-41023452D01*
X9450534Y-41053897D01*
X9469101Y-41088633D01*
X9480535Y-41126326D01*
X9485000Y-41171661D01*
X9485000Y-42008339D01*
X9480535Y-42053674D01*
X9469101Y-42091367D01*
X9450534Y-42126103D01*
X9425548Y-42156548D01*
X9395103Y-42181534D01*
X9360367Y-42200101D01*
X9322674Y-42211535D01*
X9277339Y-42216000D01*
X8190661Y-42216000D01*
X8145326Y-42211535D01*
X8107633Y-42200101D01*
X8072897Y-42181534D01*
X8042452Y-42156548D01*
X8017466Y-42126103D01*
X7998899Y-42091367D01*
X7987465Y-42053674D01*
X7983000Y-42008339D01*
X7983000Y-41171661D01*
X7987465Y-41126326D01*
X7998899Y-41088633D01*
X8017466Y-41053897D01*
X8042452Y-41023452D01*
X8072897Y-40998466D01*
X8107633Y-40979899D01*
X8145326Y-40968465D01*
X8190661Y-40964000D01*
X9277339Y-40964000D01*
X9322674Y-40968465D01*
G37*
G36*
X13395499Y-39954445D02*
G01*
X13432995Y-39965820D01*
X13467554Y-39984292D01*
X13497847Y-40009153D01*
X13522708Y-40039446D01*
X13541180Y-40074005D01*
X13552555Y-40111501D01*
X13557000Y-40156638D01*
X13557000Y-40795362D01*
X13552555Y-40840499D01*
X13541180Y-40877995D01*
X13522708Y-40912554D01*
X13497847Y-40942847D01*
X13467554Y-40967708D01*
X13432995Y-40986180D01*
X13395499Y-40997555D01*
X13350362Y-41002000D01*
X12611638Y-41002000D01*
X12566501Y-40997555D01*
X12529005Y-40986180D01*
X12494446Y-40967708D01*
X12464153Y-40942847D01*
X12439292Y-40912554D01*
X12420820Y-40877995D01*
X12409445Y-40840499D01*
X12405000Y-40795362D01*
X12405000Y-40156638D01*
X12409445Y-40111501D01*
X12420820Y-40074005D01*
X12439292Y-40039446D01*
X12464153Y-40009153D01*
X12494446Y-39984292D01*
X12529005Y-39965820D01*
X12566501Y-39954445D01*
X12611638Y-39950000D01*
X13350362Y-39950000D01*
X13395499Y-39954445D01*
G37*
G36*
X11645499Y-39954445D02*
G01*
X11682995Y-39965820D01*
X11717554Y-39984292D01*
X11747847Y-40009153D01*
X11772708Y-40039446D01*
X11791180Y-40074005D01*
X11802555Y-40111501D01*
X11807000Y-40156638D01*
X11807000Y-40795362D01*
X11802555Y-40840499D01*
X11791180Y-40877995D01*
X11772708Y-40912554D01*
X11747847Y-40942847D01*
X11717554Y-40967708D01*
X11682995Y-40986180D01*
X11645499Y-40997555D01*
X11600362Y-41002000D01*
X10861638Y-41002000D01*
X10816501Y-40997555D01*
X10779005Y-40986180D01*
X10744446Y-40967708D01*
X10714153Y-40942847D01*
X10689292Y-40912554D01*
X10670820Y-40877995D01*
X10659445Y-40840499D01*
X10655000Y-40795362D01*
X10655000Y-40156638D01*
X10659445Y-40111501D01*
X10670820Y-40074005D01*
X10689292Y-40039446D01*
X10714153Y-40009153D01*
X10744446Y-39984292D01*
X10779005Y-39965820D01*
X10816501Y-39954445D01*
X10861638Y-39950000D01*
X11600362Y-39950000D01*
X11645499Y-39954445D01*
G37*
G36*
X18860000Y-40484000D02*
G01*
X17758000Y-40484000D01*
X17758000Y-39582000D01*
X18860000Y-39582000D01*
X18860000Y-40484000D01*
G37*
G36*
X16360000Y-40484000D02*
G01*
X15258000Y-40484000D01*
X15258000Y-39582000D01*
X16360000Y-39582000D01*
X16360000Y-40484000D01*
G37*
G36*
X9322674Y-38918465D02*
G01*
X9360367Y-38929899D01*
X9395103Y-38948466D01*
X9425548Y-38973452D01*
X9450534Y-39003897D01*
X9469101Y-39038633D01*
X9480535Y-39076326D01*
X9485000Y-39121661D01*
X9485000Y-39958339D01*
X9480535Y-40003674D01*
X9469101Y-40041367D01*
X9450534Y-40076103D01*
X9425548Y-40106548D01*
X9395103Y-40131534D01*
X9360367Y-40150101D01*
X9322674Y-40161535D01*
X9277339Y-40166000D01*
X8190661Y-40166000D01*
X8145326Y-40161535D01*
X8107633Y-40150101D01*
X8072897Y-40131534D01*
X8042452Y-40106548D01*
X8017466Y-40076103D01*
X7998899Y-40041367D01*
X7987465Y-40003674D01*
X7983000Y-39958339D01*
X7983000Y-39121661D01*
X7987465Y-39076326D01*
X7998899Y-39038633D01*
X8017466Y-39003897D01*
X8042452Y-38973452D01*
X8072897Y-38948466D01*
X8107633Y-38929899D01*
X8145326Y-38918465D01*
X8190661Y-38914000D01*
X9277339Y-38914000D01*
X9322674Y-38918465D01*
G37*
G36*
X4673400Y-39275600D02*
G01*
X3784000Y-39275600D01*
X3784000Y-37725800D01*
X4673400Y-37725800D01*
X4673400Y-39275600D01*
G37*
G36*
X16360000Y-39084000D02*
G01*
X15258000Y-39084000D01*
X15258000Y-38182000D01*
X16360000Y-38182000D01*
X16360000Y-39084000D01*
G37*
G36*
X18860000Y-39084000D02*
G01*
X17758000Y-39084000D01*
X17758000Y-38182000D01*
X18860000Y-38182000D01*
X18860000Y-39084000D01*
G37*
G36*
X11645499Y-37922445D02*
G01*
X11682995Y-37933820D01*
X11717554Y-37952292D01*
X11747847Y-37977153D01*
X11772708Y-38007446D01*
X11791180Y-38042005D01*
X11802555Y-38079501D01*
X11807000Y-38124638D01*
X11807000Y-38763362D01*
X11802555Y-38808499D01*
X11791180Y-38845995D01*
X11772708Y-38880554D01*
X11747847Y-38910847D01*
X11717554Y-38935708D01*
X11682995Y-38954180D01*
X11645499Y-38965555D01*
X11600362Y-38970000D01*
X10861638Y-38970000D01*
X10816501Y-38965555D01*
X10779005Y-38954180D01*
X10744446Y-38935708D01*
X10714153Y-38910847D01*
X10689292Y-38880554D01*
X10670820Y-38845995D01*
X10659445Y-38808499D01*
X10655000Y-38763362D01*
X10655000Y-38124638D01*
X10659445Y-38079501D01*
X10670820Y-38042005D01*
X10689292Y-38007446D01*
X10714153Y-37977153D01*
X10744446Y-37952292D01*
X10779005Y-37933820D01*
X10816501Y-37922445D01*
X10861638Y-37918000D01*
X11600362Y-37918000D01*
X11645499Y-37922445D01*
G37*
G36*
X13395499Y-37922445D02*
G01*
X13432995Y-37933820D01*
X13467554Y-37952292D01*
X13497847Y-37977153D01*
X13522708Y-38007446D01*
X13541180Y-38042005D01*
X13552555Y-38079501D01*
X13557000Y-38124638D01*
X13557000Y-38763362D01*
X13552555Y-38808499D01*
X13541180Y-38845995D01*
X13522708Y-38880554D01*
X13497847Y-38910847D01*
X13467554Y-38935708D01*
X13432995Y-38954180D01*
X13395499Y-38965555D01*
X13350362Y-38970000D01*
X12611638Y-38970000D01*
X12566501Y-38965555D01*
X12529005Y-38954180D01*
X12494446Y-38935708D01*
X12464153Y-38910847D01*
X12439292Y-38880554D01*
X12420820Y-38845995D01*
X12409445Y-38808499D01*
X12405000Y-38763362D01*
X12405000Y-38124638D01*
X12409445Y-38079501D01*
X12420820Y-38042005D01*
X12439292Y-38007446D01*
X12464153Y-37977153D01*
X12494446Y-37952292D01*
X12529005Y-37933820D01*
X12566501Y-37922445D01*
X12611638Y-37918000D01*
X13350362Y-37918000D01*
X13395499Y-37922445D01*
G37*
G36*
X9098499Y-36954445D02*
G01*
X9135995Y-36965820D01*
X9170554Y-36984292D01*
X9200847Y-37009153D01*
X9225708Y-37039446D01*
X9244180Y-37074005D01*
X9255555Y-37111501D01*
X9260000Y-37156638D01*
X9260000Y-37895362D01*
X9255555Y-37940499D01*
X9244180Y-37977995D01*
X9225708Y-38012554D01*
X9200847Y-38042847D01*
X9170554Y-38067708D01*
X9135995Y-38086180D01*
X9098499Y-38097555D01*
X9053362Y-38102000D01*
X8414638Y-38102000D01*
X8369501Y-38097555D01*
X8332005Y-38086180D01*
X8297446Y-38067708D01*
X8267153Y-38042847D01*
X8242292Y-38012554D01*
X8223820Y-37977995D01*
X8212445Y-37940499D01*
X8208000Y-37895362D01*
X8208000Y-37156638D01*
X8212445Y-37111501D01*
X8223820Y-37074005D01*
X8242292Y-37039446D01*
X8267153Y-37009153D01*
X8297446Y-36984292D01*
X8332005Y-36965820D01*
X8369501Y-36954445D01*
X8414638Y-36950000D01*
X9053362Y-36950000D01*
X9098499Y-36954445D01*
G37*
G36*
X86256564Y-36039389D02*
G01*
X86447833Y-36118615D01*
X86447835Y-36118616D01*
X86487863Y-36145362D01*
X86619973Y-36233635D01*
X86766365Y-36380027D01*
X86881385Y-36552167D01*
X86960611Y-36743436D01*
X87001000Y-36946484D01*
X87001000Y-37153516D01*
X86960611Y-37356564D01*
X86881385Y-37547833D01*
X86881384Y-37547835D01*
X86766365Y-37719973D01*
X86619973Y-37866365D01*
X86447835Y-37981384D01*
X86447834Y-37981385D01*
X86447833Y-37981385D01*
X86256564Y-38060611D01*
X86053516Y-38101000D01*
X85846484Y-38101000D01*
X85643436Y-38060611D01*
X85452167Y-37981385D01*
X85452166Y-37981385D01*
X85452165Y-37981384D01*
X85280027Y-37866365D01*
X85133635Y-37719973D01*
X85018616Y-37547835D01*
X85018615Y-37547833D01*
X84939389Y-37356564D01*
X84899000Y-37153516D01*
X84899000Y-36946484D01*
X84939389Y-36743436D01*
X85018615Y-36552167D01*
X85133635Y-36380027D01*
X85280027Y-36233635D01*
X85412137Y-36145362D01*
X85452165Y-36118616D01*
X85452167Y-36118615D01*
X85643436Y-36039389D01*
X85846484Y-35999000D01*
X86053516Y-35999000D01*
X86256564Y-36039389D01*
G37*
G36*
X97006564Y-36039389D02*
G01*
X97197833Y-36118615D01*
X97197835Y-36118616D01*
X97237863Y-36145362D01*
X97369973Y-36233635D01*
X97516365Y-36380027D01*
X97631385Y-36552167D01*
X97710611Y-36743436D01*
X97751000Y-36946484D01*
X97751000Y-37153516D01*
X97710611Y-37356564D01*
X97631385Y-37547833D01*
X97631384Y-37547835D01*
X97516365Y-37719973D01*
X97369973Y-37866365D01*
X97197835Y-37981384D01*
X97197834Y-37981385D01*
X97197833Y-37981385D01*
X97006564Y-38060611D01*
X96803516Y-38101000D01*
X96596484Y-38101000D01*
X96393436Y-38060611D01*
X96202167Y-37981385D01*
X96202166Y-37981385D01*
X96202165Y-37981384D01*
X96030027Y-37866365D01*
X95883635Y-37719973D01*
X95768616Y-37547835D01*
X95768615Y-37547833D01*
X95689389Y-37356564D01*
X95649000Y-37153516D01*
X95649000Y-36946484D01*
X95689389Y-36743436D01*
X95768615Y-36552167D01*
X95883635Y-36380027D01*
X96030027Y-36233635D01*
X96162137Y-36145362D01*
X96202165Y-36118616D01*
X96202167Y-36118615D01*
X96393436Y-36039389D01*
X96596484Y-35999000D01*
X96803516Y-35999000D01*
X97006564Y-36039389D01*
G37*
G36*
X6807000Y-37713500D02*
G01*
X5435000Y-37713500D01*
X5435000Y-36722500D01*
X6807000Y-36722500D01*
X6807000Y-37713500D01*
G37*
G36*
X9098499Y-35204445D02*
G01*
X9135995Y-35215820D01*
X9170554Y-35234292D01*
X9200847Y-35259153D01*
X9225708Y-35289446D01*
X9244180Y-35324005D01*
X9255555Y-35361501D01*
X9260000Y-35406638D01*
X9260000Y-36145362D01*
X9255555Y-36190499D01*
X9244180Y-36227995D01*
X9225708Y-36262554D01*
X9200847Y-36292847D01*
X9170554Y-36317708D01*
X9135995Y-36336180D01*
X9098499Y-36347555D01*
X9053362Y-36352000D01*
X8414638Y-36352000D01*
X8369501Y-36347555D01*
X8332005Y-36336180D01*
X8297446Y-36317708D01*
X8267153Y-36292847D01*
X8242292Y-36262554D01*
X8223820Y-36227995D01*
X8212445Y-36190499D01*
X8208000Y-36145362D01*
X8208000Y-35406638D01*
X8212445Y-35361501D01*
X8223820Y-35324005D01*
X8242292Y-35289446D01*
X8267153Y-35259153D01*
X8297446Y-35234292D01*
X8332005Y-35215820D01*
X8369501Y-35204445D01*
X8414638Y-35200000D01*
X9053362Y-35200000D01*
X9098499Y-35204445D01*
G37*
G36*
X58198228Y-33981703D02*
G01*
X58353100Y-34045853D01*
X58492481Y-34138985D01*
X58611015Y-34257519D01*
X58704147Y-34396900D01*
X58768297Y-34551772D01*
X58801000Y-34716184D01*
X58801000Y-34883816D01*
X58768297Y-35048228D01*
X58704147Y-35203100D01*
X58611015Y-35342481D01*
X58492481Y-35461015D01*
X58353100Y-35554147D01*
X58198228Y-35618297D01*
X58033816Y-35651000D01*
X57866184Y-35651000D01*
X57701772Y-35618297D01*
X57546900Y-35554147D01*
X57407519Y-35461015D01*
X57288985Y-35342481D01*
X57195853Y-35203100D01*
X57131703Y-35048228D01*
X57099000Y-34883816D01*
X57099000Y-34716184D01*
X57131703Y-34551772D01*
X57195853Y-34396900D01*
X57288985Y-34257519D01*
X57407519Y-34138985D01*
X57546900Y-34045853D01*
X57701772Y-33981703D01*
X57866184Y-33949000D01*
X58033816Y-33949000D01*
X58198228Y-33981703D01*
G37*
G36*
X63198228Y-33981703D02*
G01*
X63353100Y-34045853D01*
X63492481Y-34138985D01*
X63611015Y-34257519D01*
X63704147Y-34396900D01*
X63768297Y-34551772D01*
X63801000Y-34716184D01*
X63801000Y-34883816D01*
X63768297Y-35048228D01*
X63704147Y-35203100D01*
X63611015Y-35342481D01*
X63492481Y-35461015D01*
X63353100Y-35554147D01*
X63198228Y-35618297D01*
X63033816Y-35651000D01*
X62866184Y-35651000D01*
X62701772Y-35618297D01*
X62546900Y-35554147D01*
X62407519Y-35461015D01*
X62288985Y-35342481D01*
X62195853Y-35203100D01*
X62131703Y-35048228D01*
X62099000Y-34883816D01*
X62099000Y-34716184D01*
X62131703Y-34551772D01*
X62195853Y-34396900D01*
X62288985Y-34257519D01*
X62407519Y-34138985D01*
X62546900Y-34045853D01*
X62701772Y-33981703D01*
X62866184Y-33949000D01*
X63033816Y-33949000D01*
X63198228Y-33981703D01*
G37*
G36*
X9098499Y-33398445D02*
G01*
X9135995Y-33409820D01*
X9170554Y-33428292D01*
X9200847Y-33453153D01*
X9225708Y-33483446D01*
X9244180Y-33518005D01*
X9255555Y-33555501D01*
X9260000Y-33600638D01*
X9260000Y-34339362D01*
X9255555Y-34384499D01*
X9244180Y-34421995D01*
X9225708Y-34456554D01*
X9200847Y-34486847D01*
X9170554Y-34511708D01*
X9135995Y-34530180D01*
X9098499Y-34541555D01*
X9053362Y-34546000D01*
X8414638Y-34546000D01*
X8369501Y-34541555D01*
X8332005Y-34530180D01*
X8297446Y-34511708D01*
X8267153Y-34486847D01*
X8242292Y-34456554D01*
X8223820Y-34421995D01*
X8212445Y-34384499D01*
X8208000Y-34339362D01*
X8208000Y-33600638D01*
X8212445Y-33555501D01*
X8223820Y-33518005D01*
X8242292Y-33483446D01*
X8267153Y-33453153D01*
X8297446Y-33428292D01*
X8332005Y-33409820D01*
X8369501Y-33398445D01*
X8414638Y-33394000D01*
X9053362Y-33394000D01*
X9098499Y-33398445D01*
G37*
G36*
X94302585Y-30478802D02*
G01*
X94452410Y-30508604D01*
X94734674Y-30625521D01*
X94988705Y-30795259D01*
X95204741Y-31011295D01*
X95374479Y-31265326D01*
X95464980Y-31483816D01*
X95491396Y-31547591D01*
X95542220Y-31803097D01*
X95551000Y-31847240D01*
X95551000Y-32152760D01*
X95491396Y-32452410D01*
X95374479Y-32734674D01*
X95204741Y-32988705D01*
X94988705Y-33204741D01*
X94734674Y-33374479D01*
X94452410Y-33491396D01*
X94354432Y-33510885D01*
X94152761Y-33551000D01*
X93847239Y-33551000D01*
X93645568Y-33510885D01*
X93547590Y-33491396D01*
X93265326Y-33374479D01*
X93011295Y-33204741D01*
X92795259Y-32988705D01*
X92625521Y-32734674D01*
X92508604Y-32452410D01*
X92449000Y-32152760D01*
X92449000Y-31847240D01*
X92457781Y-31803097D01*
X92508604Y-31547591D01*
X92535020Y-31483816D01*
X92625521Y-31265326D01*
X92795259Y-31011295D01*
X93011295Y-30795259D01*
X93265326Y-30625521D01*
X93547590Y-30508604D01*
X93697415Y-30478802D01*
X93847239Y-30449000D01*
X94152761Y-30449000D01*
X94302585Y-30478802D01*
G37*
G36*
X6807000Y-33522500D02*
G01*
X5435000Y-33522500D01*
X5435000Y-32531500D01*
X6807000Y-32531500D01*
X6807000Y-33522500D01*
G37*
G36*
X9098499Y-31648445D02*
G01*
X9135995Y-31659820D01*
X9170554Y-31678292D01*
X9200847Y-31703153D01*
X9225708Y-31733446D01*
X9244180Y-31768005D01*
X9255555Y-31805501D01*
X9260000Y-31850638D01*
X9260000Y-32589362D01*
X9255555Y-32634499D01*
X9244180Y-32671995D01*
X9225708Y-32706554D01*
X9200847Y-32736847D01*
X9170554Y-32761708D01*
X9135995Y-32780180D01*
X9098499Y-32791555D01*
X9053362Y-32796000D01*
X8414638Y-32796000D01*
X8369501Y-32791555D01*
X8332005Y-32780180D01*
X8297446Y-32761708D01*
X8267153Y-32736847D01*
X8242292Y-32706554D01*
X8223820Y-32671995D01*
X8212445Y-32634499D01*
X8208000Y-32589362D01*
X8208000Y-31850638D01*
X8212445Y-31805501D01*
X8223820Y-31768005D01*
X8242292Y-31733446D01*
X8267153Y-31703153D01*
X8297446Y-31678292D01*
X8332005Y-31659820D01*
X8369501Y-31648445D01*
X8414638Y-31644000D01*
X9053362Y-31644000D01*
X9098499Y-31648445D01*
G37*
G36*
X4673400Y-32519200D02*
G01*
X3784000Y-32519200D01*
X3784000Y-30969400D01*
X4673400Y-30969400D01*
X4673400Y-32519200D01*
G37*
G36*
X90251000Y-32251000D02*
G01*
X88549000Y-32251000D01*
X88549000Y-30549000D01*
X90251000Y-30549000D01*
X90251000Y-32251000D01*
G37*
G36*
X87648228Y-30581703D02*
G01*
X87803100Y-30645853D01*
X87942481Y-30738985D01*
X88061015Y-30857519D01*
X88154147Y-30996900D01*
X88218297Y-31151772D01*
X88251000Y-31316184D01*
X88251000Y-31483816D01*
X88218297Y-31648228D01*
X88154147Y-31803100D01*
X88061015Y-31942481D01*
X87942481Y-32061015D01*
X87803100Y-32154147D01*
X87648228Y-32218297D01*
X87483816Y-32251000D01*
X87316184Y-32251000D01*
X87151772Y-32218297D01*
X86996900Y-32154147D01*
X86857519Y-32061015D01*
X86738985Y-31942481D01*
X86645853Y-31803100D01*
X86581703Y-31648228D01*
X86549000Y-31483816D01*
X86549000Y-31316184D01*
X86581703Y-31151772D01*
X86645853Y-30996900D01*
X86738985Y-30857519D01*
X86857519Y-30738985D01*
X86996900Y-30645853D01*
X87151772Y-30581703D01*
X87316184Y-30549000D01*
X87483816Y-30549000D01*
X87648228Y-30581703D01*
G37*
G36*
X51396585Y-28440802D02*
G01*
X51546410Y-28470604D01*
X51828674Y-28587521D01*
X52082705Y-28757259D01*
X52298741Y-28973295D01*
X52468479Y-29227326D01*
X52585396Y-29509590D01*
X52645000Y-29809240D01*
X52645000Y-30114760D01*
X52585396Y-30414410D01*
X52468479Y-30696674D01*
X52298741Y-30950705D01*
X52082705Y-31166741D01*
X51828674Y-31336479D01*
X51546410Y-31453396D01*
X51396585Y-31483198D01*
X51246761Y-31513000D01*
X50941239Y-31513000D01*
X50791415Y-31483198D01*
X50641590Y-31453396D01*
X50359326Y-31336479D01*
X50105295Y-31166741D01*
X49889259Y-30950705D01*
X49719521Y-30696674D01*
X49602604Y-30414410D01*
X49543000Y-30114760D01*
X49543000Y-29809240D01*
X49602604Y-29509590D01*
X49719521Y-29227326D01*
X49889259Y-28973295D01*
X50105295Y-28757259D01*
X50359326Y-28587521D01*
X50641590Y-28470604D01*
X50791415Y-28440802D01*
X50941239Y-28411000D01*
X51246761Y-28411000D01*
X51396585Y-28440802D01*
G37*
G36*
X57801000Y-30251000D02*
G01*
X56099000Y-30251000D01*
X56099000Y-28549000D01*
X57801000Y-28549000D01*
X57801000Y-30251000D01*
G37*
G36*
X83905256Y-26941298D02*
G01*
X84011579Y-26962447D01*
X84312042Y-27086903D01*
X84582451Y-27267585D01*
X84812415Y-27497549D01*
X84913096Y-27648229D01*
X84993098Y-27767960D01*
X85117553Y-28068422D01*
X85181000Y-28387389D01*
X85181000Y-28712611D01*
X85138702Y-28925256D01*
X85117553Y-29031579D01*
X84993097Y-29332042D01*
X84812415Y-29602451D01*
X84582451Y-29832415D01*
X84312042Y-30013097D01*
X84011579Y-30137553D01*
X83905256Y-30158702D01*
X83692611Y-30201000D01*
X83367389Y-30201000D01*
X83154744Y-30158702D01*
X83048421Y-30137553D01*
X82747958Y-30013097D01*
X82477549Y-29832415D01*
X82247585Y-29602451D01*
X82066903Y-29332042D01*
X81942447Y-29031579D01*
X81921298Y-28925256D01*
X81879000Y-28712611D01*
X81879000Y-28387389D01*
X81942447Y-28068422D01*
X82066902Y-27767960D01*
X82146904Y-27648229D01*
X82247585Y-27497549D01*
X82477549Y-27267585D01*
X82747958Y-27086903D01*
X83048421Y-26962447D01*
X83154744Y-26941298D01*
X83367389Y-26899000D01*
X83692611Y-26899000D01*
X83905256Y-26941298D01*
G37*
G36*
X80101000Y-30201000D02*
G01*
X76799000Y-30201000D01*
X76799000Y-26899000D01*
X80101000Y-26899000D01*
X80101000Y-30201000D01*
G37*
G36*
X18613512Y-27043927D02*
G01*
X18762812Y-27073624D01*
X18926784Y-27141544D01*
X19074354Y-27240147D01*
X19199853Y-27365646D01*
X19298456Y-27513216D01*
X19366376Y-27677188D01*
X19401000Y-27851259D01*
X19401000Y-28028741D01*
X19366376Y-28202812D01*
X19298456Y-28366784D01*
X19199853Y-28514354D01*
X19074354Y-28639853D01*
X18926784Y-28738456D01*
X18762812Y-28806376D01*
X18613512Y-28836073D01*
X18588742Y-28841000D01*
X18411258Y-28841000D01*
X18386488Y-28836073D01*
X18237188Y-28806376D01*
X18073216Y-28738456D01*
X17925646Y-28639853D01*
X17800147Y-28514354D01*
X17701544Y-28366784D01*
X17633624Y-28202812D01*
X17599000Y-28028741D01*
X17599000Y-27851259D01*
X17633624Y-27677188D01*
X17701544Y-27513216D01*
X17800147Y-27365646D01*
X17925646Y-27240147D01*
X18073216Y-27141544D01*
X18237188Y-27073624D01*
X18386488Y-27043927D01*
X18411258Y-27039000D01*
X18588742Y-27039000D01*
X18613512Y-27043927D01*
G37*
G36*
X24481000Y-28841000D02*
G01*
X22679000Y-28841000D01*
X22679000Y-27039000D01*
X24481000Y-27039000D01*
X24481000Y-28841000D01*
G37*
G36*
X21153512Y-27043927D02*
G01*
X21302812Y-27073624D01*
X21466784Y-27141544D01*
X21614354Y-27240147D01*
X21739853Y-27365646D01*
X21838456Y-27513216D01*
X21906376Y-27677188D01*
X21941000Y-27851259D01*
X21941000Y-28028741D01*
X21906376Y-28202812D01*
X21838456Y-28366784D01*
X21739853Y-28514354D01*
X21614354Y-28639853D01*
X21466784Y-28738456D01*
X21302812Y-28806376D01*
X21153512Y-28836073D01*
X21128742Y-28841000D01*
X20951258Y-28841000D01*
X20926488Y-28836073D01*
X20777188Y-28806376D01*
X20613216Y-28738456D01*
X20465646Y-28639853D01*
X20340147Y-28514354D01*
X20241544Y-28366784D01*
X20173624Y-28202812D01*
X20139000Y-28028741D01*
X20139000Y-27851259D01*
X20173624Y-27677188D01*
X20241544Y-27513216D01*
X20340147Y-27365646D01*
X20465646Y-27240147D01*
X20613216Y-27141544D01*
X20777188Y-27073624D01*
X20926488Y-27043927D01*
X20951258Y-27039000D01*
X21128742Y-27039000D01*
X21153512Y-27043927D01*
G37*
G36*
X57198228Y-26581703D02*
G01*
X57353100Y-26645853D01*
X57492481Y-26738985D01*
X57611015Y-26857519D01*
X57704147Y-26996900D01*
X57768297Y-27151772D01*
X57801000Y-27316184D01*
X57801000Y-27483816D01*
X57768297Y-27648228D01*
X57704147Y-27803100D01*
X57611015Y-27942481D01*
X57492481Y-28061015D01*
X57353100Y-28154147D01*
X57198228Y-28218297D01*
X57033816Y-28251000D01*
X56866184Y-28251000D01*
X56701772Y-28218297D01*
X56546900Y-28154147D01*
X56407519Y-28061015D01*
X56288985Y-27942481D01*
X56195853Y-27803100D01*
X56131703Y-27648228D01*
X56099000Y-27483816D01*
X56099000Y-27316184D01*
X56131703Y-27151772D01*
X56195853Y-26996900D01*
X56288985Y-26857519D01*
X56407519Y-26738985D01*
X56546900Y-26645853D01*
X56701772Y-26581703D01*
X56866184Y-26549000D01*
X57033816Y-26549000D01*
X57198228Y-26581703D01*
G37*
G36*
X7251000Y-25651000D02*
G01*
X5149000Y-25651000D01*
X5149000Y-23549000D01*
X7251000Y-23549000D01*
X7251000Y-25651000D01*
G37*
G36*
X11051000Y-25651000D02*
G01*
X8949000Y-25651000D01*
X8949000Y-23549000D01*
X11051000Y-23549000D01*
X11051000Y-25651000D01*
G37*
G36*
X33801000Y-25551000D02*
G01*
X31699000Y-25551000D01*
X31699000Y-23449000D01*
X33801000Y-23449000D01*
X33801000Y-25551000D01*
G37*
G36*
X24441000Y-24901000D02*
G01*
X22639000Y-24901000D01*
X22639000Y-23099000D01*
X24441000Y-23099000D01*
X24441000Y-24901000D01*
G37*
G36*
X18573512Y-23103927D02*
G01*
X18722812Y-23133624D01*
X18886784Y-23201544D01*
X19034354Y-23300147D01*
X19159853Y-23425646D01*
X19258456Y-23573216D01*
X19326376Y-23737188D01*
X19352104Y-23866534D01*
X19358960Y-23901000D01*
X19361000Y-23911259D01*
X19361000Y-24088741D01*
X19326376Y-24262812D01*
X19258456Y-24426784D01*
X19159853Y-24574354D01*
X19034354Y-24699853D01*
X18886784Y-24798456D01*
X18722812Y-24866376D01*
X18573512Y-24896073D01*
X18548742Y-24901000D01*
X18371258Y-24901000D01*
X18346488Y-24896073D01*
X18197188Y-24866376D01*
X18033216Y-24798456D01*
X17885646Y-24699853D01*
X17760147Y-24574354D01*
X17661544Y-24426784D01*
X17593624Y-24262812D01*
X17559000Y-24088741D01*
X17559000Y-23911259D01*
X17561041Y-23901000D01*
X17567896Y-23866534D01*
X17593624Y-23737188D01*
X17661544Y-23573216D01*
X17760147Y-23425646D01*
X17885646Y-23300147D01*
X18033216Y-23201544D01*
X18197188Y-23133624D01*
X18346488Y-23103927D01*
X18371258Y-23099000D01*
X18548742Y-23099000D01*
X18573512Y-23103927D01*
G37*
G36*
X21113512Y-23103927D02*
G01*
X21262812Y-23133624D01*
X21426784Y-23201544D01*
X21574354Y-23300147D01*
X21699853Y-23425646D01*
X21798456Y-23573216D01*
X21866376Y-23737188D01*
X21892104Y-23866534D01*
X21898960Y-23901000D01*
X21901000Y-23911259D01*
X21901000Y-24088741D01*
X21866376Y-24262812D01*
X21798456Y-24426784D01*
X21699853Y-24574354D01*
X21574354Y-24699853D01*
X21426784Y-24798456D01*
X21262812Y-24866376D01*
X21113512Y-24896073D01*
X21088742Y-24901000D01*
X20911258Y-24901000D01*
X20886488Y-24896073D01*
X20737188Y-24866376D01*
X20573216Y-24798456D01*
X20425646Y-24699853D01*
X20300147Y-24574354D01*
X20201544Y-24426784D01*
X20133624Y-24262812D01*
X20099000Y-24088741D01*
X20099000Y-23911259D01*
X20101041Y-23901000D01*
X20107896Y-23866534D01*
X20133624Y-23737188D01*
X20201544Y-23573216D01*
X20300147Y-23425646D01*
X20425646Y-23300147D01*
X20573216Y-23201544D01*
X20737188Y-23133624D01*
X20886488Y-23103927D01*
X20911258Y-23099000D01*
X21088742Y-23099000D01*
X21113512Y-23103927D01*
G37*
G36*
X57801000Y-24801000D02*
G01*
X55699000Y-24801000D01*
X55699000Y-22699000D01*
X57801000Y-22699000D01*
X57801000Y-24801000D01*
G37*
G36*
X54588674Y-22653465D02*
G01*
X54626367Y-22664899D01*
X54661103Y-22683466D01*
X54691548Y-22708452D01*
X54716534Y-22738897D01*
X54735101Y-22773633D01*
X54746535Y-22811326D01*
X54751000Y-22856661D01*
X54751000Y-23693339D01*
X54746535Y-23738674D01*
X54735101Y-23776367D01*
X54716534Y-23811103D01*
X54691548Y-23841548D01*
X54661103Y-23866534D01*
X54626367Y-23885101D01*
X54588674Y-23896535D01*
X54543339Y-23901000D01*
X53456661Y-23901000D01*
X53411326Y-23896535D01*
X53373633Y-23885101D01*
X53338897Y-23866534D01*
X53308452Y-23841548D01*
X53283466Y-23811103D01*
X53264899Y-23776367D01*
X53253465Y-23738674D01*
X53249000Y-23693339D01*
X53249000Y-22856661D01*
X53253465Y-22811326D01*
X53264899Y-22773633D01*
X53283466Y-22738897D01*
X53308452Y-22708452D01*
X53338897Y-22683466D01*
X53373633Y-22664899D01*
X53411326Y-22653465D01*
X53456661Y-22649000D01*
X54543339Y-22649000D01*
X54588674Y-22653465D01*
G37*
G36*
X63338674Y-21678465D02*
G01*
X63376367Y-21689899D01*
X63411103Y-21708466D01*
X63441548Y-21733452D01*
X63466534Y-21763897D01*
X63485101Y-21798633D01*
X63496535Y-21836326D01*
X63501000Y-21881661D01*
X63501000Y-22718339D01*
X63496535Y-22763674D01*
X63485101Y-22801367D01*
X63466534Y-22836103D01*
X63441548Y-22866548D01*
X63411103Y-22891534D01*
X63376367Y-22910101D01*
X63338674Y-22921535D01*
X63293339Y-22926000D01*
X62206661Y-22926000D01*
X62161326Y-22921535D01*
X62123633Y-22910101D01*
X62088897Y-22891534D01*
X62058452Y-22866548D01*
X62033466Y-22836103D01*
X62014899Y-22801367D01*
X62003465Y-22763674D01*
X61999000Y-22718339D01*
X61999000Y-21881661D01*
X62003465Y-21836326D01*
X62014899Y-21798633D01*
X62033466Y-21763897D01*
X62058452Y-21733452D01*
X62088897Y-21708466D01*
X62123633Y-21689899D01*
X62161326Y-21678465D01*
X62206661Y-21674000D01*
X63293339Y-21674000D01*
X63338674Y-21678465D01*
G37*
G36*
X33259999Y-20599737D02*
G01*
X33274528Y-20604145D01*
X33287711Y-20609606D01*
X33311745Y-20614388D01*
X33336249Y-20614389D01*
X33360282Y-20609609D01*
X33382921Y-20600232D01*
X33384765Y-20599000D01*
X34616050Y-20599000D01*
X34628164Y-20605475D01*
X34651613Y-20612588D01*
X34675999Y-20614990D01*
X34700385Y-20612588D01*
X34723834Y-20605475D01*
X34728746Y-20603152D01*
X34740001Y-20599737D01*
X34756140Y-20598148D01*
X35293861Y-20598148D01*
X35312199Y-20599954D01*
X35324450Y-20600556D01*
X35342869Y-20600556D01*
X35365149Y-20602750D01*
X35449233Y-20619476D01*
X35470660Y-20625976D01*
X35549858Y-20658780D01*
X35555303Y-20661691D01*
X35555309Y-20661693D01*
X35564169Y-20666429D01*
X35564173Y-20666432D01*
X35569614Y-20669340D01*
X35640899Y-20716971D01*
X35658204Y-20731172D01*
X35718828Y-20791796D01*
X35733029Y-20809101D01*
X35780660Y-20880386D01*
X35783568Y-20885827D01*
X35783571Y-20885831D01*
X35788307Y-20894691D01*
X35788309Y-20894697D01*
X35791220Y-20900142D01*
X35824024Y-20979340D01*
X35830524Y-21000767D01*
X35847250Y-21084851D01*
X35849444Y-21107131D01*
X35849444Y-21125550D01*
X35850046Y-21137801D01*
X35851852Y-21156139D01*
X35851852Y-21643862D01*
X35850046Y-21662199D01*
X35849444Y-21674450D01*
X35849444Y-21692869D01*
X35847250Y-21715149D01*
X35830524Y-21799233D01*
X35824024Y-21820660D01*
X35791220Y-21899858D01*
X35788309Y-21905303D01*
X35788307Y-21905309D01*
X35783571Y-21914169D01*
X35783568Y-21914173D01*
X35780660Y-21919614D01*
X35733029Y-21990899D01*
X35718828Y-22008204D01*
X35658204Y-22068828D01*
X35640899Y-22083029D01*
X35569614Y-22130660D01*
X35564173Y-22133568D01*
X35564169Y-22133571D01*
X35555309Y-22138307D01*
X35555303Y-22138309D01*
X35549858Y-22141220D01*
X35470660Y-22174024D01*
X35449233Y-22180524D01*
X35365149Y-22197250D01*
X35342869Y-22199444D01*
X35324450Y-22199444D01*
X35312199Y-22200046D01*
X35293862Y-22201852D01*
X34756140Y-22201852D01*
X34740001Y-22200263D01*
X34725472Y-22195855D01*
X34712289Y-22190394D01*
X34688255Y-22185612D01*
X34663751Y-22185611D01*
X34639718Y-22190391D01*
X34617079Y-22199768D01*
X34615235Y-22201000D01*
X33383950Y-22201000D01*
X33371836Y-22194525D01*
X33348387Y-22187412D01*
X33324001Y-22185010D01*
X33299615Y-22187412D01*
X33276166Y-22194525D01*
X33271254Y-22196848D01*
X33259999Y-22200263D01*
X33243860Y-22201852D01*
X32706138Y-22201852D01*
X32687801Y-22200046D01*
X32675550Y-22199444D01*
X32657131Y-22199444D01*
X32634851Y-22197250D01*
X32550767Y-22180524D01*
X32529340Y-22174024D01*
X32450142Y-22141220D01*
X32444697Y-22138309D01*
X32444691Y-22138307D01*
X32435831Y-22133571D01*
X32435827Y-22133568D01*
X32430386Y-22130660D01*
X32359101Y-22083029D01*
X32341796Y-22068828D01*
X32281172Y-22008204D01*
X32266971Y-21990899D01*
X32219340Y-21919614D01*
X32216432Y-21914173D01*
X32216429Y-21914169D01*
X32211693Y-21905309D01*
X32211691Y-21905303D01*
X32208780Y-21899858D01*
X32175976Y-21820660D01*
X32169476Y-21799233D01*
X32152750Y-21715149D01*
X32150556Y-21692869D01*
X32150556Y-21674450D01*
X32149954Y-21662199D01*
X32148148Y-21643862D01*
X32148148Y-21156139D01*
X32149954Y-21137801D01*
X32150556Y-21125550D01*
X32150556Y-21107131D01*
X32152750Y-21084851D01*
X32169476Y-21000767D01*
X32175976Y-20979340D01*
X32208780Y-20900142D01*
X32211691Y-20894697D01*
X32211693Y-20894691D01*
X32216429Y-20885831D01*
X32216432Y-20885827D01*
X32219340Y-20880386D01*
X32266971Y-20809101D01*
X32281172Y-20791796D01*
X32341796Y-20731172D01*
X32359101Y-20716971D01*
X32430386Y-20669340D01*
X32435827Y-20666432D01*
X32435831Y-20666429D01*
X32444691Y-20661693D01*
X32444697Y-20661691D01*
X32450142Y-20658780D01*
X32529340Y-20625976D01*
X32550767Y-20619476D01*
X32634851Y-20602750D01*
X32657131Y-20600556D01*
X32675550Y-20600556D01*
X32687801Y-20599954D01*
X32706139Y-20598148D01*
X33243860Y-20598148D01*
X33259999Y-20599737D01*
G37*
G36*
X94242483Y-19066847D02*
G01*
X94452410Y-19108604D01*
X94734674Y-19225521D01*
X94988705Y-19395259D01*
X95204741Y-19611295D01*
X95374479Y-19865326D01*
X95491396Y-20147590D01*
X95498925Y-20185440D01*
X95551000Y-20447239D01*
X95551000Y-20752761D01*
X95539793Y-20809101D01*
X95491396Y-21052410D01*
X95374479Y-21334674D01*
X95204741Y-21588705D01*
X94988705Y-21804741D01*
X94734674Y-21974479D01*
X94452410Y-22091396D01*
X94302585Y-22121198D01*
X94152761Y-22151000D01*
X93847239Y-22151000D01*
X93697415Y-22121198D01*
X93547590Y-22091396D01*
X93265326Y-21974479D01*
X93011295Y-21804741D01*
X92795259Y-21588705D01*
X92625521Y-21334674D01*
X92508604Y-21052410D01*
X92460207Y-20809101D01*
X92449000Y-20752761D01*
X92449000Y-20447239D01*
X92501075Y-20185440D01*
X92508604Y-20147590D01*
X92625521Y-19865326D01*
X92795259Y-19611295D01*
X93011295Y-19395259D01*
X93265326Y-19225521D01*
X93547590Y-19108604D01*
X93757517Y-19066847D01*
X93847239Y-19049000D01*
X94152761Y-19049000D01*
X94242483Y-19066847D01*
G37*
G36*
X54588674Y-20603465D02*
G01*
X54626367Y-20614899D01*
X54661103Y-20633466D01*
X54691548Y-20658452D01*
X54716534Y-20688897D01*
X54735101Y-20723633D01*
X54746535Y-20761326D01*
X54751000Y-20806661D01*
X54751000Y-21643339D01*
X54746535Y-21688674D01*
X54735101Y-21726367D01*
X54716534Y-21761103D01*
X54691548Y-21791548D01*
X54661103Y-21816534D01*
X54626367Y-21835101D01*
X54588674Y-21846535D01*
X54543339Y-21851000D01*
X53456661Y-21851000D01*
X53411326Y-21846535D01*
X53373633Y-21835101D01*
X53338897Y-21816534D01*
X53308452Y-21791548D01*
X53283466Y-21761103D01*
X53264899Y-21726367D01*
X53253465Y-21688674D01*
X53249000Y-21643339D01*
X53249000Y-20806661D01*
X53253465Y-20761326D01*
X53264899Y-20723633D01*
X53283466Y-20688897D01*
X53308452Y-20658452D01*
X53338897Y-20633466D01*
X53373633Y-20614899D01*
X53411326Y-20603465D01*
X53456661Y-20599000D01*
X54543339Y-20599000D01*
X54588674Y-20603465D01*
G37*
G36*
X57801000Y-21551000D02*
G01*
X55699000Y-21551000D01*
X55699000Y-19449000D01*
X57801000Y-19449000D01*
X57801000Y-21551000D01*
G37*
G36*
X61051000Y-21551000D02*
G01*
X58949000Y-21551000D01*
X58949000Y-19449000D01*
X61051000Y-19449000D01*
X61051000Y-21551000D01*
G37*
G36*
X22552499Y-20278445D02*
G01*
X22589995Y-20289820D01*
X22624554Y-20308292D01*
X22654847Y-20333153D01*
X22679708Y-20363446D01*
X22698180Y-20398005D01*
X22709555Y-20435501D01*
X22714000Y-20480638D01*
X22714000Y-21119362D01*
X22709555Y-21164499D01*
X22698180Y-21201995D01*
X22679708Y-21236554D01*
X22654847Y-21266847D01*
X22624554Y-21291708D01*
X22589995Y-21310180D01*
X22552499Y-21321555D01*
X22507362Y-21326000D01*
X21768638Y-21326000D01*
X21723501Y-21321555D01*
X21686005Y-21310180D01*
X21651446Y-21291708D01*
X21621153Y-21266847D01*
X21596292Y-21236554D01*
X21577820Y-21201995D01*
X21566445Y-21164499D01*
X21562000Y-21119362D01*
X21562000Y-20480638D01*
X21566445Y-20435501D01*
X21577820Y-20398005D01*
X21596292Y-20363446D01*
X21621153Y-20333153D01*
X21651446Y-20308292D01*
X21686005Y-20289820D01*
X21723501Y-20278445D01*
X21768638Y-20274000D01*
X22507362Y-20274000D01*
X22552499Y-20278445D01*
G37*
G36*
X24302499Y-20278445D02*
G01*
X24339995Y-20289820D01*
X24374554Y-20308292D01*
X24404847Y-20333153D01*
X24429708Y-20363446D01*
X24448180Y-20398005D01*
X24459555Y-20435501D01*
X24464000Y-20480638D01*
X24464000Y-21119362D01*
X24459555Y-21164499D01*
X24448180Y-21201995D01*
X24429708Y-21236554D01*
X24404847Y-21266847D01*
X24374554Y-21291708D01*
X24339995Y-21310180D01*
X24302499Y-21321555D01*
X24257362Y-21326000D01*
X23518638Y-21326000D01*
X23473501Y-21321555D01*
X23436005Y-21310180D01*
X23401446Y-21291708D01*
X23371153Y-21266847D01*
X23346292Y-21236554D01*
X23327820Y-21201995D01*
X23316445Y-21164499D01*
X23312000Y-21119362D01*
X23312000Y-20480638D01*
X23316445Y-20435501D01*
X23327820Y-20398005D01*
X23346292Y-20363446D01*
X23371153Y-20333153D01*
X23401446Y-20308292D01*
X23436005Y-20289820D01*
X23473501Y-20278445D01*
X23518638Y-20274000D01*
X24257362Y-20274000D01*
X24302499Y-20278445D01*
G37*
G36*
X6462794Y-18997155D02*
G01*
X6569150Y-19018311D01*
X6643239Y-19049000D01*
X6769520Y-19101307D01*
X6949844Y-19221795D01*
X7103205Y-19375156D01*
X7223693Y-19555480D01*
X7252075Y-19624000D01*
X7303700Y-19748633D01*
X7306689Y-19755851D01*
X7342619Y-19936479D01*
X7349000Y-19968561D01*
X7349000Y-20185439D01*
X7306689Y-20398150D01*
X7286355Y-20447240D01*
X7223693Y-20598520D01*
X7103205Y-20778844D01*
X6949844Y-20932205D01*
X6769520Y-21052693D01*
X6691883Y-21084851D01*
X6569150Y-21135689D01*
X6497204Y-21150000D01*
X6356440Y-21178000D01*
X6139560Y-21178000D01*
X5998796Y-21150000D01*
X5926850Y-21135689D01*
X5804117Y-21084851D01*
X5726480Y-21052693D01*
X5546156Y-20932205D01*
X5392795Y-20778844D01*
X5272307Y-20598520D01*
X5209645Y-20447240D01*
X5189311Y-20398150D01*
X5147000Y-20185439D01*
X5147000Y-19968561D01*
X5153382Y-19936479D01*
X5189311Y-19755851D01*
X5192301Y-19748633D01*
X5243925Y-19624000D01*
X5272307Y-19555480D01*
X5392795Y-19375156D01*
X5546156Y-19221795D01*
X5726480Y-19101307D01*
X5852761Y-19049000D01*
X5926850Y-19018311D01*
X6033206Y-18997155D01*
X6139560Y-18976000D01*
X6356440Y-18976000D01*
X6462794Y-18997155D01*
G37*
G36*
X63338674Y-19628465D02*
G01*
X63376367Y-19639899D01*
X63411103Y-19658466D01*
X63441548Y-19683452D01*
X63466534Y-19713897D01*
X63485101Y-19748633D01*
X63496535Y-19786326D01*
X63501000Y-19831661D01*
X63501000Y-20668339D01*
X63496535Y-20713674D01*
X63485101Y-20751367D01*
X63466534Y-20786103D01*
X63441548Y-20816548D01*
X63411103Y-20841534D01*
X63376367Y-20860101D01*
X63338674Y-20871535D01*
X63293339Y-20876000D01*
X62206661Y-20876000D01*
X62161326Y-20871535D01*
X62123633Y-20860101D01*
X62088897Y-20841534D01*
X62058452Y-20816548D01*
X62033466Y-20786103D01*
X62014899Y-20751367D01*
X62003465Y-20713674D01*
X61999000Y-20668339D01*
X61999000Y-19831661D01*
X62003465Y-19786326D01*
X62014899Y-19748633D01*
X62033466Y-19713897D01*
X62058452Y-19683452D01*
X62088897Y-19658466D01*
X62123633Y-19639899D01*
X62161326Y-19628465D01*
X62206661Y-19624000D01*
X63293339Y-19624000D01*
X63338674Y-19628465D01*
G37*
G36*
X51269283Y-17015480D02*
G01*
X51546410Y-17070604D01*
X51828674Y-17187521D01*
X52082705Y-17357259D01*
X52298741Y-17573295D01*
X52468479Y-17827326D01*
X52585396Y-18109590D01*
X52645000Y-18409240D01*
X52645000Y-18714760D01*
X52585396Y-19014410D01*
X52468479Y-19296674D01*
X52298741Y-19550705D01*
X52082705Y-19766741D01*
X51828674Y-19936479D01*
X51546410Y-20053396D01*
X51396585Y-20083198D01*
X51246761Y-20113000D01*
X50941239Y-20113000D01*
X50791415Y-20083198D01*
X50641590Y-20053396D01*
X50359326Y-19936479D01*
X50105295Y-19766741D01*
X49889259Y-19550705D01*
X49719521Y-19296674D01*
X49602604Y-19014410D01*
X49543000Y-18714760D01*
X49543000Y-18409240D01*
X49602604Y-18109590D01*
X49719521Y-17827326D01*
X49889259Y-17573295D01*
X50105295Y-17357259D01*
X50359326Y-17187521D01*
X50641590Y-17070604D01*
X50918717Y-17015480D01*
X50941239Y-17011000D01*
X51246761Y-17011000D01*
X51269283Y-17015480D01*
G37*
G36*
X31834000Y-19661000D02*
G01*
X23182000Y-19661000D01*
X23182000Y-18059000D01*
X31834000Y-18059000D01*
X31834000Y-19661000D01*
G37*
G36*
X35764499Y-17978445D02*
G01*
X35801995Y-17989820D01*
X35836554Y-18008292D01*
X35866847Y-18033153D01*
X35891708Y-18063446D01*
X35910180Y-18098005D01*
X35921555Y-18135501D01*
X35926000Y-18180638D01*
X35926000Y-18919362D01*
X35921555Y-18964499D01*
X35910180Y-19001995D01*
X35891708Y-19036554D01*
X35866847Y-19066847D01*
X35836554Y-19091708D01*
X35801995Y-19110180D01*
X35764499Y-19121555D01*
X35719362Y-19126000D01*
X35080638Y-19126000D01*
X35035501Y-19121555D01*
X34998005Y-19110180D01*
X34963446Y-19091708D01*
X34933153Y-19066847D01*
X34908292Y-19036554D01*
X34889820Y-19001995D01*
X34878445Y-18964499D01*
X34874000Y-18919362D01*
X34874000Y-18180638D01*
X34878445Y-18135501D01*
X34889820Y-18098005D01*
X34908292Y-18063446D01*
X34933153Y-18033153D01*
X34963446Y-18008292D01*
X34998005Y-17989820D01*
X35035501Y-17978445D01*
X35080638Y-17974000D01*
X35719362Y-17974000D01*
X35764499Y-17978445D01*
G37*
G36*
X6462794Y-16457155D02*
G01*
X6569150Y-16478311D01*
X6769520Y-16561307D01*
X6949844Y-16681795D01*
X7103205Y-16835156D01*
X7223693Y-17015480D01*
X7223693Y-17015481D01*
X7298840Y-17196900D01*
X7306689Y-17215851D01*
X7333726Y-17351771D01*
X7349000Y-17428561D01*
X7349000Y-17645439D01*
X7306689Y-17858150D01*
X7265191Y-17958334D01*
X7223693Y-18058520D01*
X7103205Y-18238844D01*
X6949844Y-18392205D01*
X6769520Y-18512693D01*
X6569150Y-18595689D01*
X6462795Y-18616844D01*
X6356440Y-18638000D01*
X6139560Y-18638000D01*
X6033205Y-18616844D01*
X5926850Y-18595689D01*
X5726480Y-18512693D01*
X5546156Y-18392205D01*
X5392795Y-18238844D01*
X5272307Y-18058520D01*
X5189311Y-17858150D01*
X5147000Y-17645439D01*
X5147000Y-17428561D01*
X5162275Y-17351771D01*
X5189311Y-17215851D01*
X5197161Y-17196900D01*
X5272307Y-17015481D01*
X5272307Y-17015480D01*
X5392795Y-16835156D01*
X5546156Y-16681795D01*
X5726480Y-16561307D01*
X5926850Y-16478311D01*
X6033206Y-16457155D01*
X6139560Y-16436000D01*
X6356440Y-16436000D01*
X6462794Y-16457155D01*
G37*
G36*
X44648228Y-16781703D02*
G01*
X44803100Y-16845853D01*
X44942481Y-16938985D01*
X45061015Y-17057519D01*
X45154147Y-17196900D01*
X45218297Y-17351772D01*
X45251000Y-17516184D01*
X45251000Y-17683816D01*
X45218297Y-17848228D01*
X45154147Y-18003100D01*
X45061015Y-18142481D01*
X44942481Y-18261015D01*
X44803100Y-18354147D01*
X44648228Y-18418297D01*
X44483816Y-18451000D01*
X44316184Y-18451000D01*
X44151772Y-18418297D01*
X43996900Y-18354147D01*
X43857519Y-18261015D01*
X43738985Y-18142481D01*
X43645853Y-18003100D01*
X43581703Y-17848228D01*
X43549000Y-17683816D01*
X43549000Y-17516184D01*
X43581703Y-17351772D01*
X43645853Y-17196900D01*
X43738985Y-17057519D01*
X43857519Y-16938985D01*
X43996900Y-16845853D01*
X44151772Y-16781703D01*
X44316184Y-16749000D01*
X44483816Y-16749000D01*
X44648228Y-16781703D01*
G37*
G36*
X47251000Y-18451000D02*
G01*
X45549000Y-18451000D01*
X45549000Y-16749000D01*
X47251000Y-16749000D01*
X47251000Y-18451000D01*
G37*
G36*
X17789642Y-16709781D02*
G01*
X17935414Y-16770162D01*
X17935416Y-16770163D01*
X18066608Y-16857822D01*
X18178178Y-16969392D01*
X18245805Y-17070604D01*
X18265838Y-17100586D01*
X18326219Y-17246358D01*
X18357000Y-17401107D01*
X18357000Y-17558893D01*
X18326219Y-17713642D01*
X18265838Y-17859414D01*
X18265837Y-17859416D01*
X18178178Y-17990608D01*
X18066608Y-18102178D01*
X17935416Y-18189837D01*
X17935415Y-18189838D01*
X17935414Y-18189838D01*
X17789642Y-18250219D01*
X17634893Y-18281000D01*
X17477107Y-18281000D01*
X17322358Y-18250219D01*
X17176586Y-18189838D01*
X17176585Y-18189838D01*
X17176584Y-18189837D01*
X17045392Y-18102178D01*
X16933822Y-17990608D01*
X16846163Y-17859416D01*
X16846162Y-17859414D01*
X16785781Y-17713642D01*
X16755000Y-17558893D01*
X16755000Y-17401107D01*
X16785781Y-17246358D01*
X16846162Y-17100586D01*
X16866195Y-17070604D01*
X16933822Y-16969392D01*
X17045392Y-16857822D01*
X17176584Y-16770163D01*
X17176586Y-16770162D01*
X17322358Y-16709781D01*
X17477107Y-16679000D01*
X17634893Y-16679000D01*
X17789642Y-16709781D01*
G37*
G36*
X60051000Y-17551000D02*
G01*
X57949000Y-17551000D01*
X57949000Y-15449000D01*
X60051000Y-15449000D01*
X60051000Y-17551000D01*
G37*
G36*
X22609000Y-17486000D02*
G01*
X21007000Y-17486000D01*
X21007000Y-8834000D01*
X22609000Y-8834000D01*
X22609000Y-17486000D01*
G37*
G36*
X34009000Y-17486000D02*
G01*
X32407000Y-17486000D01*
X32407000Y-8834000D01*
X34009000Y-8834000D01*
X34009000Y-17486000D01*
G37*
G36*
X35764499Y-16228445D02*
G01*
X35801995Y-16239820D01*
X35836554Y-16258292D01*
X35866847Y-16283153D01*
X35891708Y-16313446D01*
X35910180Y-16348005D01*
X35921555Y-16385501D01*
X35926000Y-16430638D01*
X35926000Y-17169362D01*
X35921555Y-17214499D01*
X35910180Y-17251995D01*
X35891708Y-17286554D01*
X35866847Y-17316847D01*
X35836554Y-17341708D01*
X35801995Y-17360180D01*
X35764499Y-17371555D01*
X35719362Y-17376000D01*
X35080638Y-17376000D01*
X35035501Y-17371555D01*
X34998005Y-17360180D01*
X34963446Y-17341708D01*
X34933153Y-17316847D01*
X34908292Y-17286554D01*
X34889820Y-17251995D01*
X34878445Y-17214499D01*
X34874000Y-17169362D01*
X34874000Y-16430638D01*
X34878445Y-16385501D01*
X34889820Y-16348005D01*
X34908292Y-16313446D01*
X34933153Y-16283153D01*
X34963446Y-16258292D01*
X34998005Y-16239820D01*
X35035501Y-16228445D01*
X35080638Y-16224000D01*
X35719362Y-16224000D01*
X35764499Y-16228445D01*
G37*
G36*
X41301000Y-17051000D02*
G01*
X39199000Y-17051000D01*
X39199000Y-14949000D01*
X41301000Y-14949000D01*
X41301000Y-17051000D01*
G37*
G36*
X6462795Y-13917156D02*
G01*
X6569150Y-13938311D01*
X6669334Y-13979809D01*
X6769520Y-14021307D01*
X6949844Y-14141795D01*
X7103205Y-14295156D01*
X7223693Y-14475480D01*
X7223693Y-14475481D01*
X7306689Y-14675850D01*
X7349000Y-14888561D01*
X7349000Y-15105439D01*
X7323428Y-15234000D01*
X7306689Y-15318149D01*
X7223693Y-15518520D01*
X7103205Y-15698844D01*
X6949844Y-15852205D01*
X6769520Y-15972693D01*
X6669334Y-16014191D01*
X6569150Y-16055689D01*
X6462794Y-16076845D01*
X6356440Y-16098000D01*
X6139560Y-16098000D01*
X6033206Y-16076845D01*
X5926850Y-16055689D01*
X5826666Y-16014191D01*
X5726480Y-15972693D01*
X5546156Y-15852205D01*
X5392795Y-15698844D01*
X5272307Y-15518520D01*
X5189311Y-15318149D01*
X5172573Y-15234000D01*
X5147000Y-15105439D01*
X5147000Y-14888561D01*
X5189311Y-14675850D01*
X5272307Y-14475481D01*
X5272307Y-14475480D01*
X5392795Y-14295156D01*
X5546156Y-14141795D01*
X5726480Y-14021307D01*
X5826666Y-13979809D01*
X5926850Y-13938311D01*
X6033205Y-13917156D01*
X6139560Y-13896000D01*
X6356440Y-13896000D01*
X6462795Y-13917156D01*
G37*
G36*
X7349000Y-13558000D02*
G01*
X5147000Y-13558000D01*
X5147000Y-11356000D01*
X7349000Y-11356000D01*
X7349000Y-13558000D01*
G37*
G36*
X83145642Y-11847781D02*
G01*
X83291414Y-11908162D01*
X83291416Y-11908163D01*
X83422608Y-11995822D01*
X83534178Y-12107392D01*
X83609811Y-12220586D01*
X83621838Y-12238586D01*
X83682219Y-12384358D01*
X83713000Y-12539107D01*
X83713000Y-12696893D01*
X83682219Y-12851642D01*
X83629294Y-12979414D01*
X83621837Y-12997416D01*
X83534178Y-13128608D01*
X83422608Y-13240178D01*
X83291416Y-13327837D01*
X83291415Y-13327838D01*
X83291414Y-13327838D01*
X83145642Y-13388219D01*
X82990893Y-13419000D01*
X82833107Y-13419000D01*
X82678358Y-13388219D01*
X82532586Y-13327838D01*
X82532585Y-13327838D01*
X82532584Y-13327837D01*
X82401392Y-13240178D01*
X82289822Y-13128608D01*
X82202163Y-12997416D01*
X82194706Y-12979414D01*
X82141781Y-12851642D01*
X82111000Y-12696893D01*
X82111000Y-12539107D01*
X82141781Y-12384358D01*
X82202162Y-12238586D01*
X82214189Y-12220586D01*
X82289822Y-12107392D01*
X82401392Y-11995822D01*
X82532584Y-11908163D01*
X82532586Y-11908162D01*
X82678358Y-11847781D01*
X82833107Y-11817000D01*
X82990893Y-11817000D01*
X83145642Y-11847781D01*
G37*
G36*
X86645642Y-11847781D02*
G01*
X86791414Y-11908162D01*
X86791416Y-11908163D01*
X86922608Y-11995822D01*
X87034178Y-12107392D01*
X87109811Y-12220586D01*
X87121838Y-12238586D01*
X87182219Y-12384358D01*
X87213000Y-12539107D01*
X87213000Y-12696893D01*
X87182219Y-12851642D01*
X87129294Y-12979414D01*
X87121837Y-12997416D01*
X87034178Y-13128608D01*
X86922608Y-13240178D01*
X86791416Y-13327837D01*
X86791415Y-13327838D01*
X86791414Y-13327838D01*
X86645642Y-13388219D01*
X86490893Y-13419000D01*
X86333107Y-13419000D01*
X86178358Y-13388219D01*
X86032586Y-13327838D01*
X86032585Y-13327838D01*
X86032584Y-13327837D01*
X85901392Y-13240178D01*
X85789822Y-13128608D01*
X85702163Y-12997416D01*
X85694706Y-12979414D01*
X85641781Y-12851642D01*
X85611000Y-12696893D01*
X85611000Y-12539107D01*
X85641781Y-12384358D01*
X85702162Y-12238586D01*
X85714189Y-12220586D01*
X85789822Y-12107392D01*
X85901392Y-11995822D01*
X86032584Y-11908163D01*
X86032586Y-11908162D01*
X86178358Y-11847781D01*
X86333107Y-11817000D01*
X86490893Y-11817000D01*
X86645642Y-11847781D01*
G37*
G36*
X17789642Y-11829781D02*
G01*
X17925366Y-11886000D01*
X17935416Y-11890163D01*
X18066608Y-11977822D01*
X18178178Y-12089392D01*
X18265837Y-12220584D01*
X18265838Y-12220586D01*
X18326219Y-12366358D01*
X18357000Y-12521107D01*
X18357000Y-12678893D01*
X18326219Y-12833642D01*
X18265838Y-12979414D01*
X18265837Y-12979416D01*
X18178178Y-13110608D01*
X18066608Y-13222178D01*
X17935416Y-13309837D01*
X17935415Y-13309838D01*
X17935414Y-13309838D01*
X17789642Y-13370219D01*
X17634893Y-13401000D01*
X17477107Y-13401000D01*
X17322358Y-13370219D01*
X17176586Y-13309838D01*
X17176585Y-13309838D01*
X17176584Y-13309837D01*
X17045392Y-13222178D01*
X16933822Y-13110608D01*
X16846163Y-12979416D01*
X16846162Y-12979414D01*
X16785781Y-12833642D01*
X16755000Y-12678893D01*
X16755000Y-12521107D01*
X16785781Y-12366358D01*
X16846162Y-12220586D01*
X16846163Y-12220584D01*
X16933822Y-12089392D01*
X17045392Y-11977822D01*
X17176584Y-11890163D01*
X17186634Y-11886000D01*
X17322358Y-11829781D01*
X17477107Y-11799000D01*
X17634893Y-11799000D01*
X17789642Y-11829781D01*
G37*
G36*
X39411589Y-11004876D02*
G01*
X39510893Y-11024629D01*
X39651206Y-11082748D01*
X39777484Y-11167125D01*
X39884875Y-11274516D01*
X39969252Y-11400794D01*
X40027371Y-11541107D01*
X40027371Y-11541109D01*
X40057000Y-11690062D01*
X40057000Y-11841938D01*
X40048235Y-11886000D01*
X40027371Y-11990893D01*
X39969252Y-12131206D01*
X39884875Y-12257484D01*
X39777484Y-12364875D01*
X39651206Y-12449252D01*
X39510893Y-12507371D01*
X39411589Y-12527124D01*
X39361938Y-12537000D01*
X39210062Y-12537000D01*
X39160411Y-12527124D01*
X39061107Y-12507371D01*
X38920794Y-12449252D01*
X38794516Y-12364875D01*
X38687125Y-12257484D01*
X38602748Y-12131206D01*
X38544629Y-11990893D01*
X38523765Y-11886000D01*
X38515000Y-11841938D01*
X38515000Y-11690062D01*
X38544629Y-11541109D01*
X38544629Y-11541107D01*
X38602748Y-11400794D01*
X38687125Y-11274516D01*
X38794516Y-11167125D01*
X38920794Y-11082748D01*
X39061107Y-11024629D01*
X39160411Y-11004876D01*
X39210062Y-10995000D01*
X39361938Y-10995000D01*
X39411589Y-11004876D01*
G37*
G36*
X39411589Y-8464876D02*
G01*
X39510893Y-8484629D01*
X39651206Y-8542748D01*
X39777484Y-8627125D01*
X39884875Y-8734516D01*
X39969252Y-8860794D01*
X40027371Y-9001107D01*
X40057000Y-9150063D01*
X40057000Y-9301937D01*
X40027371Y-9450893D01*
X39969252Y-9591206D01*
X39884875Y-9717484D01*
X39777484Y-9824875D01*
X39651206Y-9909252D01*
X39510893Y-9967371D01*
X39411589Y-9987124D01*
X39361938Y-9997000D01*
X39210062Y-9997000D01*
X39160411Y-9987124D01*
X39061107Y-9967371D01*
X38920794Y-9909252D01*
X38794516Y-9824875D01*
X38687125Y-9717484D01*
X38602748Y-9591206D01*
X38544629Y-9450893D01*
X38515000Y-9301937D01*
X38515000Y-9150063D01*
X38544629Y-9001107D01*
X38602748Y-8860794D01*
X38687125Y-8734516D01*
X38794516Y-8627125D01*
X38920794Y-8542748D01*
X39061107Y-8484629D01*
X39160411Y-8464876D01*
X39210062Y-8455000D01*
X39361938Y-8455000D01*
X39411589Y-8464876D01*
G37*
G36*
X5051000Y-8701000D02*
G01*
X3249000Y-8701000D01*
X3249000Y-6599000D01*
X5051000Y-6599000D01*
X5051000Y-8701000D01*
G37*
G36*
X10501000Y-8701000D02*
G01*
X8699000Y-8701000D01*
X8699000Y-6599000D01*
X10501000Y-6599000D01*
X10501000Y-8701000D01*
G37*
G36*
X31834000Y-8261000D02*
G01*
X23182000Y-8261000D01*
X23182000Y-6659000D01*
X31834000Y-6659000D01*
X31834000Y-8261000D01*
G37*
G36*
X22263674Y-6653465D02*
G01*
X22301367Y-6664899D01*
X22336103Y-6683466D01*
X22366548Y-6708452D01*
X22391534Y-6738897D01*
X22410101Y-6773633D01*
X22421535Y-6811326D01*
X22426000Y-6856661D01*
X22426000Y-7943339D01*
X22421535Y-7988674D01*
X22410101Y-8026367D01*
X22391534Y-8061103D01*
X22366548Y-8091548D01*
X22336103Y-8116534D01*
X22301367Y-8135101D01*
X22263674Y-8146535D01*
X22218339Y-8151000D01*
X21381661Y-8151000D01*
X21336326Y-8146535D01*
X21298633Y-8135101D01*
X21263897Y-8116534D01*
X21233452Y-8091548D01*
X21208466Y-8061103D01*
X21189899Y-8026367D01*
X21178465Y-7988674D01*
X21174000Y-7943339D01*
X21174000Y-6856661D01*
X21178465Y-6811326D01*
X21189899Y-6773633D01*
X21208466Y-6738897D01*
X21233452Y-6708452D01*
X21263897Y-6683466D01*
X21298633Y-6664899D01*
X21336326Y-6653465D01*
X21381661Y-6649000D01*
X22218339Y-6649000D01*
X22263674Y-6653465D01*
G37*
G36*
X20213674Y-6653465D02*
G01*
X20251367Y-6664899D01*
X20286103Y-6683466D01*
X20316548Y-6708452D01*
X20341534Y-6738897D01*
X20360101Y-6773633D01*
X20371535Y-6811326D01*
X20376000Y-6856661D01*
X20376000Y-7943339D01*
X20371535Y-7988674D01*
X20360101Y-8026367D01*
X20341534Y-8061103D01*
X20316548Y-8091548D01*
X20286103Y-8116534D01*
X20251367Y-8135101D01*
X20213674Y-8146535D01*
X20168339Y-8151000D01*
X19331661Y-8151000D01*
X19286326Y-8146535D01*
X19248633Y-8135101D01*
X19213897Y-8116534D01*
X19183452Y-8091548D01*
X19158466Y-8061103D01*
X19139899Y-8026367D01*
X19128465Y-7988674D01*
X19124000Y-7943339D01*
X19124000Y-6856661D01*
X19128465Y-6811326D01*
X19139899Y-6773633D01*
X19158466Y-6738897D01*
X19183452Y-6708452D01*
X19213897Y-6683466D01*
X19248633Y-6664899D01*
X19286326Y-6653465D01*
X19331661Y-6649000D01*
X20168339Y-6649000D01*
X20213674Y-6653465D01*
G37*
G36*
X39411589Y-5924876D02*
G01*
X39510893Y-5944629D01*
X39651206Y-6002748D01*
X39777484Y-6087125D01*
X39884875Y-6194516D01*
X39969252Y-6320794D01*
X40027371Y-6461107D01*
X40027371Y-6461109D01*
X40054800Y-6599000D01*
X40057000Y-6610063D01*
X40057000Y-6761937D01*
X40027371Y-6910893D01*
X39969252Y-7051206D01*
X39884875Y-7177484D01*
X39777484Y-7284875D01*
X39651206Y-7369252D01*
X39510893Y-7427371D01*
X39411589Y-7447124D01*
X39361938Y-7457000D01*
X39210062Y-7457000D01*
X39160411Y-7447124D01*
X39061107Y-7427371D01*
X38920794Y-7369252D01*
X38794516Y-7284875D01*
X38687125Y-7177484D01*
X38602748Y-7051206D01*
X38544629Y-6910893D01*
X38515000Y-6761937D01*
X38515000Y-6610063D01*
X38517201Y-6599000D01*
X38544629Y-6461109D01*
X38544629Y-6461107D01*
X38602748Y-6320794D01*
X38687125Y-6194516D01*
X38794516Y-6087125D01*
X38920794Y-6002748D01*
X39061107Y-5944629D01*
X39160411Y-5924876D01*
X39210062Y-5915000D01*
X39361938Y-5915000D01*
X39411589Y-5924876D01*
G37*
G36*
X45896564Y-4543389D02*
G01*
X46087833Y-4622615D01*
X46087835Y-4622616D01*
X46259973Y-4737635D01*
X46406365Y-4884027D01*
X46516435Y-5048758D01*
X46521385Y-5056167D01*
X46600611Y-5247436D01*
X46641000Y-5450484D01*
X46641000Y-5657516D01*
X46600611Y-5860564D01*
X46521385Y-6051833D01*
X46521384Y-6051835D01*
X46406365Y-6223973D01*
X46259973Y-6370365D01*
X46087835Y-6485384D01*
X46087834Y-6485385D01*
X46087833Y-6485385D01*
X45896564Y-6564611D01*
X45693516Y-6605000D01*
X45486484Y-6605000D01*
X45283436Y-6564611D01*
X45092167Y-6485385D01*
X45092166Y-6485385D01*
X45092165Y-6485384D01*
X44920027Y-6370365D01*
X44773635Y-6223973D01*
X44658616Y-6051835D01*
X44658615Y-6051833D01*
X44579389Y-5860564D01*
X44539000Y-5657516D01*
X44539000Y-5450484D01*
X44579389Y-5247436D01*
X44658615Y-5056167D01*
X44663566Y-5048758D01*
X44773635Y-4884027D01*
X44920027Y-4737635D01*
X45092165Y-4622616D01*
X45092167Y-4622615D01*
X45283436Y-4543389D01*
X45486484Y-4503000D01*
X45693516Y-4503000D01*
X45896564Y-4543389D01*
G37*
G36*
X58396564Y-4543389D02*
G01*
X58587833Y-4622615D01*
X58587835Y-4622616D01*
X58759973Y-4737635D01*
X58906365Y-4884027D01*
X59016435Y-5048758D01*
X59021385Y-5056167D01*
X59100611Y-5247436D01*
X59141000Y-5450484D01*
X59141000Y-5657516D01*
X59100611Y-5860564D01*
X59021385Y-6051833D01*
X59021384Y-6051835D01*
X58906365Y-6223973D01*
X58759973Y-6370365D01*
X58587835Y-6485384D01*
X58587834Y-6485385D01*
X58587833Y-6485385D01*
X58396564Y-6564611D01*
X58193516Y-6605000D01*
X57986484Y-6605000D01*
X57783436Y-6564611D01*
X57592167Y-6485385D01*
X57592166Y-6485385D01*
X57592165Y-6485384D01*
X57420027Y-6370365D01*
X57273635Y-6223973D01*
X57158616Y-6051835D01*
X57158615Y-6051833D01*
X57079389Y-5860564D01*
X57039000Y-5657516D01*
X57039000Y-5450484D01*
X57079389Y-5247436D01*
X57158615Y-5056167D01*
X57163566Y-5048758D01*
X57273635Y-4884027D01*
X57420027Y-4737635D01*
X57592165Y-4622616D01*
X57592167Y-4622615D01*
X57783436Y-4543389D01*
X57986484Y-4503000D01*
X58193516Y-4503000D01*
X58396564Y-4543389D01*
G37*
G36*
X7160721Y-4870174D02*
G01*
X7260995Y-4911709D01*
X7260996Y-4911710D01*
X7351242Y-4972010D01*
X7427990Y-5048758D01*
X7427991Y-5048760D01*
X7488291Y-5139005D01*
X7529826Y-5239279D01*
X7551000Y-5345730D01*
X7551000Y-5454270D01*
X7529826Y-5560721D01*
X7488291Y-5660995D01*
X7488290Y-5660996D01*
X7427990Y-5751242D01*
X7351242Y-5827990D01*
X7305812Y-5858345D01*
X7260995Y-5888291D01*
X7160721Y-5929826D01*
X7054270Y-5951000D01*
X6945730Y-5951000D01*
X6839279Y-5929826D01*
X6739005Y-5888291D01*
X6694188Y-5858345D01*
X6648758Y-5827990D01*
X6572010Y-5751242D01*
X6511710Y-5660996D01*
X6511709Y-5660995D01*
X6470174Y-5560721D01*
X6449000Y-5454270D01*
X6449000Y-5345730D01*
X6470174Y-5239279D01*
X6511709Y-5139005D01*
X6572009Y-5048760D01*
X6572010Y-5048758D01*
X6648758Y-4972010D01*
X6739004Y-4911710D01*
X6739005Y-4911709D01*
X6839279Y-4870174D01*
X6945730Y-4849000D01*
X7054270Y-4849000D01*
X7160721Y-4870174D01*
G37*
G36*
X27988674Y-4203465D02*
G01*
X28026367Y-4214899D01*
X28061103Y-4233466D01*
X28091548Y-4258452D01*
X28116534Y-4288897D01*
X28135101Y-4323633D01*
X28146535Y-4361326D01*
X28151000Y-4406661D01*
X28151000Y-5243339D01*
X28146535Y-5288674D01*
X28135101Y-5326367D01*
X28116534Y-5361103D01*
X28091548Y-5391548D01*
X28061103Y-5416534D01*
X28026367Y-5435101D01*
X27988674Y-5446535D01*
X27943339Y-5451000D01*
X26856661Y-5451000D01*
X26811326Y-5446535D01*
X26773633Y-5435101D01*
X26738897Y-5416534D01*
X26708452Y-5391548D01*
X26683466Y-5361103D01*
X26664899Y-5326367D01*
X26653465Y-5288674D01*
X26649000Y-5243339D01*
X26649000Y-4406661D01*
X26653465Y-4361326D01*
X26664899Y-4323633D01*
X26683466Y-4288897D01*
X26708452Y-4258452D01*
X26738897Y-4233466D01*
X26773633Y-4214899D01*
X26811326Y-4203465D01*
X26856661Y-4199000D01*
X27943339Y-4199000D01*
X27988674Y-4203465D01*
G37*
G36*
X92398228Y-3611703D02*
G01*
X92553100Y-3675853D01*
X92692481Y-3768985D01*
X92811015Y-3887519D01*
X92904147Y-4026900D01*
X92968297Y-4181772D01*
X93001000Y-4346184D01*
X93001000Y-4513816D01*
X92968297Y-4678228D01*
X92904147Y-4833100D01*
X92811015Y-4972481D01*
X92692481Y-5091015D01*
X92553100Y-5184147D01*
X92398228Y-5248297D01*
X92233816Y-5281000D01*
X92066184Y-5281000D01*
X91901772Y-5248297D01*
X91746900Y-5184147D01*
X91607519Y-5091015D01*
X91488985Y-4972481D01*
X91395853Y-4833100D01*
X91331703Y-4678228D01*
X91299000Y-4513816D01*
X91299000Y-4346184D01*
X91331703Y-4181772D01*
X91395853Y-4026900D01*
X91488985Y-3887519D01*
X91607519Y-3768985D01*
X91746900Y-3675853D01*
X91901772Y-3611703D01*
X92066184Y-3579000D01*
X92233816Y-3579000D01*
X92398228Y-3611703D01*
G37*
G36*
X84698228Y-3611703D02*
G01*
X84853100Y-3675853D01*
X84992481Y-3768985D01*
X85111015Y-3887519D01*
X85204147Y-4026900D01*
X85268297Y-4181772D01*
X85301000Y-4346184D01*
X85301000Y-4513816D01*
X85268297Y-4678228D01*
X85204147Y-4833100D01*
X85111015Y-4972481D01*
X84992481Y-5091015D01*
X84853100Y-5184147D01*
X84698228Y-5248297D01*
X84533816Y-5281000D01*
X84366184Y-5281000D01*
X84201772Y-5248297D01*
X84046900Y-5184147D01*
X83907519Y-5091015D01*
X83788985Y-4972481D01*
X83695853Y-4833100D01*
X83631703Y-4678228D01*
X83599000Y-4513816D01*
X83599000Y-4346184D01*
X83631703Y-4181772D01*
X83695853Y-4026900D01*
X83788985Y-3887519D01*
X83907519Y-3768985D01*
X84046900Y-3675853D01*
X84201772Y-3611703D01*
X84366184Y-3579000D01*
X84533816Y-3579000D01*
X84698228Y-3611703D01*
G37*
G36*
X91001000Y-5281000D02*
G01*
X89299000Y-5281000D01*
X89299000Y-3579000D01*
X91001000Y-3579000D01*
X91001000Y-5281000D01*
G37*
G36*
X87301000Y-5281000D02*
G01*
X85599000Y-5281000D01*
X85599000Y-3579000D01*
X87301000Y-3579000D01*
X87301000Y-5281000D01*
G37*
G36*
X10751000Y-5101000D02*
G01*
X8649000Y-5101000D01*
X8649000Y-1299000D01*
X10751000Y-1299000D01*
X10751000Y-5101000D01*
G37*
G36*
X15663674Y-3053465D02*
G01*
X15701367Y-3064899D01*
X15736103Y-3083466D01*
X15766548Y-3108452D01*
X15791534Y-3138897D01*
X15810101Y-3173633D01*
X15821535Y-3211326D01*
X15826000Y-3256661D01*
X15826000Y-4343339D01*
X15821535Y-4388674D01*
X15810101Y-4426367D01*
X15791534Y-4461103D01*
X15766548Y-4491548D01*
X15736103Y-4516534D01*
X15701367Y-4535101D01*
X15663674Y-4546535D01*
X15618339Y-4551000D01*
X14781661Y-4551000D01*
X14736326Y-4546535D01*
X14698633Y-4535101D01*
X14663897Y-4516534D01*
X14633452Y-4491548D01*
X14608466Y-4461103D01*
X14589899Y-4426367D01*
X14578465Y-4388674D01*
X14574000Y-4343339D01*
X14574000Y-3256661D01*
X14578465Y-3211326D01*
X14589899Y-3173633D01*
X14608466Y-3138897D01*
X14633452Y-3108452D01*
X14663897Y-3083466D01*
X14698633Y-3064899D01*
X14736326Y-3053465D01*
X14781661Y-3049000D01*
X15618339Y-3049000D01*
X15663674Y-3053465D01*
G37*
G36*
X17713674Y-3053465D02*
G01*
X17751367Y-3064899D01*
X17786103Y-3083466D01*
X17816548Y-3108452D01*
X17841534Y-3138897D01*
X17860101Y-3173633D01*
X17871535Y-3211326D01*
X17876000Y-3256661D01*
X17876000Y-4343339D01*
X17871535Y-4388674D01*
X17860101Y-4426367D01*
X17841534Y-4461103D01*
X17816548Y-4491548D01*
X17786103Y-4516534D01*
X17751367Y-4535101D01*
X17713674Y-4546535D01*
X17668339Y-4551000D01*
X16831661Y-4551000D01*
X16786326Y-4546535D01*
X16748633Y-4535101D01*
X16713897Y-4516534D01*
X16683452Y-4491548D01*
X16658466Y-4461103D01*
X16639899Y-4426367D01*
X16628465Y-4388674D01*
X16624000Y-4343339D01*
X16624000Y-3256661D01*
X16628465Y-3211326D01*
X16639899Y-3173633D01*
X16658466Y-3138897D01*
X16683452Y-3108452D01*
X16713897Y-3083466D01*
X16748633Y-3064899D01*
X16786326Y-3053465D01*
X16831661Y-3049000D01*
X17668339Y-3049000D01*
X17713674Y-3053465D01*
G37*
G36*
X27988674Y-2153465D02*
G01*
X28026367Y-2164899D01*
X28061103Y-2183466D01*
X28091548Y-2208452D01*
X28116534Y-2238897D01*
X28135101Y-2273633D01*
X28146535Y-2311326D01*
X28151000Y-2356661D01*
X28151000Y-3193339D01*
X28146535Y-3238674D01*
X28135101Y-3276367D01*
X28116534Y-3311103D01*
X28091548Y-3341548D01*
X28061103Y-3366534D01*
X28026367Y-3385101D01*
X27988674Y-3396535D01*
X27943339Y-3401000D01*
X26856661Y-3401000D01*
X26811326Y-3396535D01*
X26773633Y-3385101D01*
X26738897Y-3366534D01*
X26708452Y-3341548D01*
X26683466Y-3311103D01*
X26664899Y-3276367D01*
X26653465Y-3238674D01*
X26649000Y-3193339D01*
X26649000Y-2356661D01*
X26653465Y-2311326D01*
X26664899Y-2273633D01*
X26683466Y-2238897D01*
X26708452Y-2208452D01*
X26738897Y-2183466D01*
X26773633Y-2164899D01*
X26811326Y-2153465D01*
X26856661Y-2149000D01*
X27943339Y-2149000D01*
X27988674Y-2153465D01*
G37*
G36*
X79042585Y251198D02*
G01*
X79192410Y221396D01*
X79474674Y104479D01*
X79728705Y-65259D01*
X79944741Y-281295D01*
X80114479Y-535326D01*
X80231396Y-817590D01*
X80237294Y-847240D01*
X80291000Y-1117239D01*
X80291000Y-1422761D01*
X80269703Y-1529826D01*
X80231396Y-1722410D01*
X80114479Y-2004674D01*
X79944741Y-2258705D01*
X79728705Y-2474741D01*
X79474674Y-2644479D01*
X79192410Y-2761396D01*
X79042585Y-2791198D01*
X78892761Y-2821000D01*
X78587239Y-2821000D01*
X78437415Y-2791198D01*
X78287590Y-2761396D01*
X78005326Y-2644479D01*
X77751295Y-2474741D01*
X77535259Y-2258705D01*
X77365521Y-2004674D01*
X77248604Y-1722410D01*
X77210297Y-1529826D01*
X77189000Y-1422761D01*
X77189000Y-1117239D01*
X77242706Y-847240D01*
X77248604Y-817590D01*
X77365521Y-535326D01*
X77535259Y-281295D01*
X77751295Y-65259D01*
X78005326Y104479D01*
X78287590Y221396D01*
X78437415Y251198D01*
X78587239Y281000D01*
X78892761Y281000D01*
X79042585Y251198D01*
G37*
G36*
X17713674Y-1053465D02*
G01*
X17751367Y-1064899D01*
X17786103Y-1083466D01*
X17816548Y-1108452D01*
X17841534Y-1138897D01*
X17860101Y-1173633D01*
X17871535Y-1211326D01*
X17876000Y-1256661D01*
X17876000Y-2343339D01*
X17871535Y-2388674D01*
X17860101Y-2426367D01*
X17841534Y-2461103D01*
X17816548Y-2491548D01*
X17786103Y-2516534D01*
X17751367Y-2535101D01*
X17713674Y-2546535D01*
X17668339Y-2551000D01*
X16831661Y-2551000D01*
X16786326Y-2546535D01*
X16748633Y-2535101D01*
X16713897Y-2516534D01*
X16683452Y-2491548D01*
X16658466Y-2461103D01*
X16639899Y-2426367D01*
X16628465Y-2388674D01*
X16624000Y-2343339D01*
X16624000Y-1256661D01*
X16628465Y-1211326D01*
X16639899Y-1173633D01*
X16658466Y-1138897D01*
X16683452Y-1108452D01*
X16713897Y-1083466D01*
X16748633Y-1064899D01*
X16786326Y-1053465D01*
X16831661Y-1049000D01*
X17668339Y-1049000D01*
X17713674Y-1053465D01*
G37*
G36*
X15663674Y-1053465D02*
G01*
X15701367Y-1064899D01*
X15736103Y-1083466D01*
X15766548Y-1108452D01*
X15791534Y-1138897D01*
X15810101Y-1173633D01*
X15821535Y-1211326D01*
X15826000Y-1256661D01*
X15826000Y-2343339D01*
X15821535Y-2388674D01*
X15810101Y-2426367D01*
X15791534Y-2461103D01*
X15766548Y-2491548D01*
X15736103Y-2516534D01*
X15701367Y-2535101D01*
X15663674Y-2546535D01*
X15618339Y-2551000D01*
X14781661Y-2551000D01*
X14736326Y-2546535D01*
X14698633Y-2535101D01*
X14663897Y-2516534D01*
X14633452Y-2491548D01*
X14608466Y-2461103D01*
X14589899Y-2426367D01*
X14578465Y-2388674D01*
X14574000Y-2343339D01*
X14574000Y-1256661D01*
X14578465Y-1211326D01*
X14589899Y-1173633D01*
X14608466Y-1138897D01*
X14633452Y-1108452D01*
X14663897Y-1083466D01*
X14698633Y-1064899D01*
X14736326Y-1053465D01*
X14781661Y-1049000D01*
X15618339Y-1049000D01*
X15663674Y-1053465D01*
G37*
G36*
X67612585Y521198D02*
G01*
X67762410Y491396D01*
X68044674Y374479D01*
X68298705Y204741D01*
X68514741Y-11295D01*
X68684479Y-265326D01*
X68801396Y-547590D01*
X68821520Y-648760D01*
X68861000Y-847239D01*
X68861000Y-1152761D01*
X68831911Y-1299000D01*
X68801396Y-1452410D01*
X68684479Y-1734674D01*
X68514741Y-1988705D01*
X68298705Y-2204741D01*
X68044674Y-2374479D01*
X67762410Y-2491396D01*
X67612585Y-2521198D01*
X67462761Y-2551000D01*
X67157239Y-2551000D01*
X67007415Y-2521198D01*
X66857590Y-2491396D01*
X66575326Y-2374479D01*
X66321295Y-2204741D01*
X66105259Y-1988705D01*
X65935521Y-1734674D01*
X65818604Y-1452410D01*
X65788089Y-1299000D01*
X65759000Y-1152761D01*
X65759000Y-847239D01*
X65798480Y-648760D01*
X65818604Y-547590D01*
X65935521Y-265326D01*
X66105259Y-11295D01*
X66321295Y204741D01*
X66575326Y374479D01*
X66857590Y491396D01*
X67007415Y521198D01*
X67157239Y551000D01*
X67462761Y551000D01*
X67612585Y521198D01*
G37*
G36*
X7160721Y-470174D02*
G01*
X7260995Y-511709D01*
X7260996Y-511710D01*
X7351242Y-572010D01*
X7427990Y-648758D01*
X7427991Y-648760D01*
X7488291Y-739005D01*
X7529826Y-839279D01*
X7551000Y-945730D01*
X7551000Y-1054270D01*
X7529826Y-1160721D01*
X7488291Y-1260995D01*
X7488290Y-1260996D01*
X7427990Y-1351242D01*
X7351242Y-1427990D01*
X7314696Y-1452409D01*
X7260995Y-1488291D01*
X7160721Y-1529826D01*
X7054270Y-1551000D01*
X6945730Y-1551000D01*
X6839279Y-1529826D01*
X6739005Y-1488291D01*
X6685304Y-1452409D01*
X6648758Y-1427990D01*
X6572010Y-1351242D01*
X6511710Y-1260996D01*
X6511709Y-1260995D01*
X6470174Y-1160721D01*
X6449000Y-1054270D01*
X6449000Y-945730D01*
X6470174Y-839279D01*
X6511709Y-739005D01*
X6572009Y-648760D01*
X6572010Y-648758D01*
X6648758Y-572010D01*
X6739004Y-511710D01*
X6739005Y-511709D01*
X6839279Y-470174D01*
X6945730Y-449000D01*
X7054270Y-449000D01*
X7160721Y-470174D01*
G37*
G36*
X39801000Y-1051000D02*
G01*
X37699000Y-1051000D01*
X37699000Y1051000D01*
X39801000Y1051000D01*
X39801000Y-1051000D01*
G37*
G36*
X87079967Y2040272D02*
G01*
X87275410Y2001396D01*
X87557674Y1884479D01*
X87811705Y1714741D01*
X88027741Y1498705D01*
X88197479Y1244674D01*
X88314396Y962410D01*
X88374000Y662760D01*
X88374000Y357240D01*
X88314396Y57590D01*
X88197479Y-224674D01*
X88027741Y-478705D01*
X87811705Y-694741D01*
X87557674Y-864479D01*
X87275410Y-981396D01*
X87125585Y-1011198D01*
X86975761Y-1041000D01*
X86670239Y-1041000D01*
X86520415Y-1011198D01*
X86370590Y-981396D01*
X86088326Y-864479D01*
X85834295Y-694741D01*
X85618259Y-478705D01*
X85448521Y-224674D01*
X85331604Y57590D01*
X85272000Y357240D01*
X85272000Y662760D01*
X85331604Y962410D01*
X85448521Y1244674D01*
X85618259Y1498705D01*
X85834295Y1714741D01*
X86088326Y1884479D01*
X86370590Y2001396D01*
X86566033Y2040272D01*
X86670239Y2061000D01*
X86975761Y2061000D01*
X87079967Y2040272D01*
G37*
G36*
X5051000Y199000D02*
G01*
X3249000Y199000D01*
X3249000Y2301000D01*
X5051000Y2301000D01*
X5051000Y199000D01*
G37*
G36*
X10501000Y199000D02*
G01*
X8699000Y199000D01*
X8699000Y2301000D01*
X10501000Y2301000D01*
X10501000Y199000D01*
G37*
G36*
X24812916Y3592666D02*
G01*
X24921492Y3559729D01*
X24921495Y3559728D01*
X24957601Y3540429D01*
X25021557Y3506244D01*
X25109264Y3434264D01*
X25172383Y3357354D01*
X25189702Y3340035D01*
X25210077Y3326421D01*
X25232716Y3317043D01*
X25256749Y3312263D01*
X25281253Y3312263D01*
X25305286Y3317043D01*
X25327925Y3326421D01*
X25348299Y3340034D01*
X25365626Y3357361D01*
X25379240Y3377736D01*
X25388618Y3400375D01*
X25393398Y3424408D01*
X25394000Y3436660D01*
X25394000Y3601000D01*
X26546000Y3601000D01*
X26546000Y1999000D01*
X25394000Y1999000D01*
X25394000Y2163340D01*
X25391598Y2187726D01*
X25384485Y2211175D01*
X25372934Y2232786D01*
X25357389Y2251728D01*
X25338447Y2267273D01*
X25316836Y2278824D01*
X25293387Y2285937D01*
X25269001Y2288339D01*
X25244615Y2285937D01*
X25221166Y2278824D01*
X25199555Y2267273D01*
X25172381Y2242644D01*
X25109264Y2165736D01*
X25021556Y2093756D01*
X24960273Y2061000D01*
X24921494Y2040272D01*
X24921491Y2040271D01*
X24812915Y2007334D01*
X24700000Y1996213D01*
X24587084Y2007334D01*
X24478508Y2040271D01*
X24478505Y2040272D01*
X24439726Y2061000D01*
X24378443Y2093756D01*
X24290736Y2165736D01*
X24218756Y2253444D01*
X24175239Y2334860D01*
X24161625Y2355234D01*
X24144298Y2372561D01*
X24123924Y2386175D01*
X24101285Y2395552D01*
X24077251Y2400332D01*
X24052747Y2400332D01*
X24028714Y2395551D01*
X24006075Y2386174D01*
X23985701Y2372560D01*
X23968374Y2355233D01*
X23954762Y2334860D01*
X23911244Y2253443D01*
X23839264Y2165736D01*
X23751556Y2093756D01*
X23690273Y2061000D01*
X23651494Y2040272D01*
X23651491Y2040271D01*
X23542915Y2007334D01*
X23430000Y1996213D01*
X23317084Y2007334D01*
X23208508Y2040271D01*
X23208505Y2040272D01*
X23169726Y2061000D01*
X23108443Y2093756D01*
X23020736Y2165736D01*
X22948756Y2253444D01*
X22905239Y2334860D01*
X22895272Y2353506D01*
X22889492Y2372560D01*
X22862334Y2462085D01*
X22854000Y2546703D01*
X22854000Y3053298D01*
X22862334Y3137916D01*
X22895271Y3246492D01*
X22895272Y3246495D01*
X22948756Y3346555D01*
X22948757Y3346557D01*
X23020737Y3434264D01*
X23108444Y3506244D01*
X23172400Y3540429D01*
X23208506Y3559728D01*
X23208509Y3559729D01*
X23317085Y3592666D01*
X23430000Y3603787D01*
X23542916Y3592666D01*
X23651492Y3559729D01*
X23651495Y3559728D01*
X23687601Y3540429D01*
X23751557Y3506244D01*
X23839264Y3434264D01*
X23911244Y3346557D01*
X23927019Y3317043D01*
X23954761Y3265141D01*
X23968375Y3244766D01*
X23985702Y3227439D01*
X24006076Y3213826D01*
X24028715Y3204448D01*
X24052748Y3199668D01*
X24077252Y3199668D01*
X24101285Y3204448D01*
X24123924Y3213826D01*
X24144299Y3227440D01*
X24161626Y3244767D01*
X24175239Y3265141D01*
X24218756Y3346555D01*
X24218757Y3346557D01*
X24290737Y3434264D01*
X24378444Y3506244D01*
X24442400Y3540429D01*
X24478506Y3559728D01*
X24478509Y3559729D01*
X24587085Y3592666D01*
X24700000Y3603787D01*
X24812916Y3592666D01*
G37*
G36*
X95801000Y3449000D02*
G01*
X93699000Y3449000D01*
X93699000Y5551000D01*
X95801000Y5551000D01*
X95801000Y3449000D01*
G37*
G36*
X18606778Y5999453D02*
G01*
X18773224Y5930509D01*
X18923022Y5830417D01*
X19050417Y5703022D01*
X19150509Y5553224D01*
X19219453Y5386778D01*
X19254600Y5210082D01*
X19254600Y5029918D01*
X19219453Y4853222D01*
X19150509Y4686776D01*
X19050417Y4536978D01*
X18923022Y4409583D01*
X18773224Y4309491D01*
X18606778Y4240547D01*
X18430082Y4205400D01*
X18249918Y4205400D01*
X18073222Y4240547D01*
X17906776Y4309491D01*
X17756978Y4409583D01*
X17629583Y4536978D01*
X17529491Y4686776D01*
X17460547Y4853222D01*
X17425400Y5029918D01*
X17425400Y5210082D01*
X17460547Y5386778D01*
X17529491Y5553224D01*
X17629583Y5703022D01*
X17756978Y5830417D01*
X17906776Y5930509D01*
X18073222Y5999453D01*
X18249918Y6034600D01*
X18430082Y6034600D01*
X18606778Y5999453D01*
G37*
G36*
X16066778Y5999453D02*
G01*
X16233224Y5930509D01*
X16383022Y5830417D01*
X16510417Y5703022D01*
X16610509Y5553224D01*
X16679453Y5386778D01*
X16714600Y5210082D01*
X16714600Y5029918D01*
X16679453Y4853222D01*
X16610509Y4686776D01*
X16510417Y4536978D01*
X16383022Y4409583D01*
X16233224Y4309491D01*
X16066778Y4240547D01*
X15890082Y4205400D01*
X15709918Y4205400D01*
X15533222Y4240547D01*
X15366776Y4309491D01*
X15216978Y4409583D01*
X15089583Y4536978D01*
X14989491Y4686776D01*
X14920547Y4853222D01*
X14885400Y5029918D01*
X14885400Y5210082D01*
X14920547Y5386778D01*
X14989491Y5553224D01*
X15089583Y5703022D01*
X15216978Y5830417D01*
X15366776Y5930509D01*
X15533222Y5999453D01*
X15709918Y6034600D01*
X15890082Y6034600D01*
X16066778Y5999453D01*
G37*
G36*
X31677892Y8176089D02*
G01*
X31851273Y8104272D01*
X32007311Y8000011D01*
X32140011Y7867311D01*
X32218342Y7750080D01*
X32244273Y7711271D01*
X32316089Y7537892D01*
X32352700Y7353834D01*
X32352700Y7166166D01*
X32316089Y6982108D01*
X32261158Y6849492D01*
X32244272Y6808727D01*
X32140011Y6652689D01*
X32007311Y6519989D01*
X31851273Y6415728D01*
X31851272Y6415727D01*
X31851271Y6415727D01*
X31677892Y6343911D01*
X31493834Y6307300D01*
X31306166Y6307300D01*
X31122108Y6343911D01*
X30948729Y6415727D01*
X30948728Y6415727D01*
X30948727Y6415728D01*
X30792689Y6519989D01*
X30659989Y6652689D01*
X30555728Y6808727D01*
X30538843Y6849492D01*
X30483911Y6982108D01*
X30447300Y7166166D01*
X30447300Y7353834D01*
X30483911Y7537892D01*
X30555727Y7711271D01*
X30581658Y7750080D01*
X30659989Y7867311D01*
X30792689Y8000011D01*
X30948727Y8104272D01*
X31122108Y8176089D01*
X31306166Y8212700D01*
X31493834Y8212700D01*
X31677892Y8176089D01*
G37*
G36*
X24077892Y8176089D02*
G01*
X24251273Y8104272D01*
X24407311Y8000011D01*
X24540011Y7867311D01*
X24618342Y7750080D01*
X24644273Y7711271D01*
X24716089Y7537892D01*
X24752700Y7353834D01*
X24752700Y7166166D01*
X24716089Y6982108D01*
X24661158Y6849492D01*
X24644272Y6808727D01*
X24540011Y6652689D01*
X24407311Y6519989D01*
X24251273Y6415728D01*
X24251272Y6415727D01*
X24251271Y6415727D01*
X24077892Y6343911D01*
X23893834Y6307300D01*
X23706166Y6307300D01*
X23522108Y6343911D01*
X23348729Y6415727D01*
X23348728Y6415727D01*
X23348727Y6415728D01*
X23192689Y6519989D01*
X23059989Y6652689D01*
X22955728Y6808727D01*
X22938843Y6849492D01*
X22883911Y6982108D01*
X22847300Y7166166D01*
X22847300Y7353834D01*
X22883911Y7537892D01*
X22955727Y7711271D01*
X22981658Y7750080D01*
X23059989Y7867311D01*
X23192689Y8000011D01*
X23348727Y8104272D01*
X23522108Y8176089D01*
X23706166Y8212700D01*
X23893834Y8212700D01*
X24077892Y8176089D01*
G37*
G36*
X95801000Y6449000D02*
G01*
X93699000Y6449000D01*
X93699000Y8551000D01*
X95801000Y8551000D01*
X95801000Y6449000D01*
G37*
G36*
X18606778Y8539453D02*
G01*
X18773224Y8470509D01*
X18923022Y8370417D01*
X19050417Y8243022D01*
X19150509Y8093224D01*
X19219453Y7926778D01*
X19254600Y7750082D01*
X19254600Y7569918D01*
X19219453Y7393222D01*
X19150509Y7226776D01*
X19050417Y7076978D01*
X18923022Y6949583D01*
X18773224Y6849491D01*
X18606778Y6780547D01*
X18430082Y6745400D01*
X18249918Y6745400D01*
X18073222Y6780547D01*
X17906776Y6849491D01*
X17756978Y6949583D01*
X17629583Y7076978D01*
X17529491Y7226776D01*
X17460547Y7393222D01*
X17425400Y7569918D01*
X17425400Y7750082D01*
X17460547Y7926778D01*
X17529491Y8093224D01*
X17629583Y8243022D01*
X17756978Y8370417D01*
X17906776Y8470509D01*
X18073222Y8539453D01*
X18249918Y8574600D01*
X18430082Y8574600D01*
X18606778Y8539453D01*
G37*
G36*
X16066778Y8539453D02*
G01*
X16233224Y8470509D01*
X16383022Y8370417D01*
X16510417Y8243022D01*
X16610509Y8093224D01*
X16679453Y7926778D01*
X16714600Y7750082D01*
X16714600Y7569918D01*
X16679453Y7393222D01*
X16610509Y7226776D01*
X16510417Y7076978D01*
X16383022Y6949583D01*
X16233224Y6849491D01*
X16066778Y6780547D01*
X15890082Y6745400D01*
X15709918Y6745400D01*
X15533222Y6780547D01*
X15366776Y6849491D01*
X15216978Y6949583D01*
X15089583Y7076978D01*
X14989491Y7226776D01*
X14920547Y7393222D01*
X14885400Y7569918D01*
X14885400Y7750082D01*
X14920547Y7926778D01*
X14989491Y8093224D01*
X15089583Y8243022D01*
X15216978Y8370417D01*
X15366776Y8470509D01*
X15533222Y8539453D01*
X15709918Y8574600D01*
X15890082Y8574600D01*
X16066778Y8539453D01*
G37*
G36*
X4449400Y8346900D02*
G01*
X3560000Y8346900D01*
X3560000Y9896700D01*
X4449400Y9896700D01*
X4449400Y8346900D01*
G37*
G36*
X45896564Y10456611D02*
G01*
X46087833Y10377385D01*
X46087835Y10377384D01*
X46259973Y10262365D01*
X46406365Y10115973D01*
X46521385Y9943833D01*
X46600611Y9752564D01*
X46641000Y9549516D01*
X46641000Y9342484D01*
X46600611Y9139436D01*
X46521385Y8948167D01*
X46521384Y8948165D01*
X46406365Y8776027D01*
X46259973Y8629635D01*
X46087835Y8514616D01*
X46087834Y8514615D01*
X46087833Y8514615D01*
X45896564Y8435389D01*
X45693516Y8395000D01*
X45486484Y8395000D01*
X45283436Y8435389D01*
X45092167Y8514615D01*
X45092166Y8514615D01*
X45092165Y8514616D01*
X44920027Y8629635D01*
X44773635Y8776027D01*
X44658616Y8948165D01*
X44658615Y8948167D01*
X44579389Y9139436D01*
X44539000Y9342484D01*
X44539000Y9549516D01*
X44579389Y9752564D01*
X44658615Y9943833D01*
X44773635Y10115973D01*
X44920027Y10262365D01*
X45092165Y10377384D01*
X45092167Y10377385D01*
X45283436Y10456611D01*
X45486484Y10497000D01*
X45693516Y10497000D01*
X45896564Y10456611D01*
G37*
G36*
X58396564Y10456611D02*
G01*
X58587833Y10377385D01*
X58587835Y10377384D01*
X58759973Y10262365D01*
X58906365Y10115973D01*
X59021385Y9943833D01*
X59100611Y9752564D01*
X59141000Y9549516D01*
X59141000Y9342484D01*
X59100611Y9139436D01*
X59021385Y8948167D01*
X59021384Y8948165D01*
X58906365Y8776027D01*
X58759973Y8629635D01*
X58587835Y8514616D01*
X58587834Y8514615D01*
X58587833Y8514615D01*
X58396564Y8435389D01*
X58193516Y8395000D01*
X57986484Y8395000D01*
X57783436Y8435389D01*
X57592167Y8514615D01*
X57592166Y8514615D01*
X57592165Y8514616D01*
X57420027Y8629635D01*
X57273635Y8776027D01*
X57158616Y8948165D01*
X57158615Y8948167D01*
X57079389Y9139436D01*
X57039000Y9342484D01*
X57039000Y9549516D01*
X57079389Y9752564D01*
X57158615Y9943833D01*
X57273635Y10115973D01*
X57420027Y10262365D01*
X57592165Y10377384D01*
X57592167Y10377385D01*
X57783436Y10456611D01*
X57986484Y10497000D01*
X58193516Y10497000D01*
X58396564Y10456611D01*
G37*
G36*
X18606778Y11079453D02*
G01*
X18773224Y11010509D01*
X18923022Y10910417D01*
X19050417Y10783022D01*
X19150509Y10633224D01*
X19219453Y10466778D01*
X19254600Y10290082D01*
X19254600Y10109918D01*
X19219453Y9933222D01*
X19150509Y9766776D01*
X19050417Y9616978D01*
X18923022Y9489583D01*
X18773224Y9389491D01*
X18606778Y9320547D01*
X18430082Y9285400D01*
X18249918Y9285400D01*
X18073222Y9320547D01*
X17906776Y9389491D01*
X17756978Y9489583D01*
X17629583Y9616978D01*
X17529491Y9766776D01*
X17460547Y9933222D01*
X17425400Y10109918D01*
X17425400Y10290082D01*
X17460547Y10466778D01*
X17529491Y10633224D01*
X17629583Y10783022D01*
X17756978Y10910417D01*
X17906776Y11010509D01*
X18073222Y11079453D01*
X18249918Y11114600D01*
X18430082Y11114600D01*
X18606778Y11079453D01*
G37*
G36*
X16066778Y11079453D02*
G01*
X16233224Y11010509D01*
X16383022Y10910417D01*
X16510417Y10783022D01*
X16610509Y10633224D01*
X16679453Y10466778D01*
X16714600Y10290082D01*
X16714600Y10109918D01*
X16679453Y9933222D01*
X16610509Y9766776D01*
X16510417Y9616978D01*
X16383022Y9489583D01*
X16233224Y9389491D01*
X16066778Y9320547D01*
X15890082Y9285400D01*
X15709918Y9285400D01*
X15533222Y9320547D01*
X15366776Y9389491D01*
X15216978Y9489583D01*
X15089583Y9616978D01*
X14989491Y9766776D01*
X14920547Y9933222D01*
X14885400Y10109918D01*
X14885400Y10290082D01*
X14920547Y10466778D01*
X14989491Y10633224D01*
X15089583Y10783022D01*
X15216978Y10910417D01*
X15366776Y11010509D01*
X15533222Y11079453D01*
X15709918Y11114600D01*
X15890082Y11114600D01*
X16066778Y11079453D01*
G37*
G36*
X95801000Y9449000D02*
G01*
X93699000Y9449000D01*
X93699000Y11551000D01*
X95801000Y11551000D01*
X95801000Y9449000D01*
G37*
G36*
X6583000Y9909000D02*
G01*
X5211000Y9909000D01*
X5211000Y10900000D01*
X6583000Y10900000D01*
X6583000Y9909000D01*
G37*
G36*
X87125585Y13431198D02*
G01*
X87275410Y13401396D01*
X87557674Y13284479D01*
X87811705Y13114741D01*
X88027741Y12898705D01*
X88197479Y12644674D01*
X88314396Y12362410D01*
X88374000Y12062760D01*
X88374000Y11757240D01*
X88314396Y11457590D01*
X88197479Y11175326D01*
X88027741Y10921295D01*
X87811705Y10705259D01*
X87557674Y10535521D01*
X87275410Y10418604D01*
X87125585Y10388802D01*
X86975761Y10359000D01*
X86670239Y10359000D01*
X86520415Y10388802D01*
X86370590Y10418604D01*
X86088326Y10535521D01*
X85834295Y10705259D01*
X85618259Y10921295D01*
X85448521Y11175326D01*
X85331604Y11457590D01*
X85272000Y11757240D01*
X85272000Y12062760D01*
X85331604Y12362410D01*
X85448521Y12644674D01*
X85618259Y12898705D01*
X85834295Y13114741D01*
X86088326Y13284479D01*
X86370590Y13401396D01*
X86520415Y13431198D01*
X86670239Y13461000D01*
X86975761Y13461000D01*
X87125585Y13431198D01*
G37*
G36*
X18606778Y13619453D02*
G01*
X18773224Y13550509D01*
X18923022Y13450417D01*
X19050417Y13323022D01*
X19150509Y13173224D01*
X19219453Y13006778D01*
X19254600Y12830082D01*
X19254600Y12649918D01*
X19219453Y12473222D01*
X19150509Y12306776D01*
X19050417Y12156978D01*
X18923022Y12029583D01*
X18773224Y11929491D01*
X18606778Y11860547D01*
X18430082Y11825400D01*
X18249918Y11825400D01*
X18073222Y11860547D01*
X17906776Y11929491D01*
X17756978Y12029583D01*
X17629583Y12156978D01*
X17529491Y12306776D01*
X17460547Y12473222D01*
X17425400Y12649918D01*
X17425400Y12830082D01*
X17460547Y13006778D01*
X17529491Y13173224D01*
X17629583Y13323022D01*
X17756978Y13450417D01*
X17906776Y13550509D01*
X18073222Y13619453D01*
X18249918Y13654600D01*
X18430082Y13654600D01*
X18606778Y13619453D01*
G37*
G36*
X16066778Y13619453D02*
G01*
X16233224Y13550509D01*
X16383022Y13450417D01*
X16510417Y13323022D01*
X16610509Y13173224D01*
X16679453Y13006778D01*
X16714600Y12830082D01*
X16714600Y12649918D01*
X16679453Y12473222D01*
X16610509Y12306776D01*
X16510417Y12156978D01*
X16383022Y12029583D01*
X16233224Y11929491D01*
X16066778Y11860547D01*
X15890082Y11825400D01*
X15709918Y11825400D01*
X15533222Y11860547D01*
X15366776Y11929491D01*
X15216978Y12029583D01*
X15089583Y12156978D01*
X14989491Y12306776D01*
X14920547Y12473222D01*
X14885400Y12649918D01*
X14885400Y12830082D01*
X14920547Y13006778D01*
X14989491Y13173224D01*
X15089583Y13323022D01*
X15216978Y13450417D01*
X15366776Y13550509D01*
X15533222Y13619453D01*
X15709918Y13654600D01*
X15890082Y13654600D01*
X16066778Y13619453D01*
G37*
G36*
X6583000Y14100000D02*
G01*
X5211000Y14100000D01*
X5211000Y15091000D01*
X6583000Y15091000D01*
X6583000Y14100000D01*
G37*
G36*
X18606778Y16159453D02*
G01*
X18773224Y16090509D01*
X18923022Y15990417D01*
X19050417Y15863022D01*
X19150509Y15713224D01*
X19219453Y15546778D01*
X19254600Y15370082D01*
X19254600Y15189918D01*
X19219453Y15013222D01*
X19150509Y14846776D01*
X19050417Y14696978D01*
X18923022Y14569583D01*
X18773224Y14469491D01*
X18606778Y14400547D01*
X18430082Y14365400D01*
X18249918Y14365400D01*
X18073222Y14400547D01*
X17906776Y14469491D01*
X17756978Y14569583D01*
X17629583Y14696978D01*
X17529491Y14846776D01*
X17460547Y15013222D01*
X17425400Y15189918D01*
X17425400Y15370082D01*
X17460547Y15546778D01*
X17529491Y15713224D01*
X17629583Y15863022D01*
X17756978Y15990417D01*
X17906776Y16090509D01*
X18073222Y16159453D01*
X18249918Y16194600D01*
X18430082Y16194600D01*
X18606778Y16159453D01*
G37*
G36*
X16714600Y14365400D02*
G01*
X14885400Y14365400D01*
X14885400Y16194600D01*
X16714600Y16194600D01*
X16714600Y14365400D01*
G37*
G36*
X4449400Y15103300D02*
G01*
X3560000Y15103300D01*
X3560000Y16653100D01*
X4449400Y16653100D01*
X4449400Y15103300D01*
G37*
G36*
X31670341Y20877591D02*
G01*
X31677892Y20876089D01*
X31851273Y20804272D01*
X32007311Y20700011D01*
X32140011Y20567311D01*
X32213371Y20457519D01*
X32244273Y20411271D01*
X32316089Y20237892D01*
X32352700Y20053834D01*
X32352700Y19866166D01*
X32335362Y19779000D01*
X32316089Y19682108D01*
X32244272Y19508727D01*
X32140011Y19352689D01*
X32007311Y19219989D01*
X31851273Y19115728D01*
X31851272Y19115727D01*
X31851271Y19115727D01*
X31677892Y19043911D01*
X31493834Y19007300D01*
X31306166Y19007300D01*
X31122108Y19043911D01*
X30948729Y19115727D01*
X30948728Y19115727D01*
X30948727Y19115728D01*
X30792689Y19219989D01*
X30659989Y19352689D01*
X30555728Y19508727D01*
X30483911Y19682108D01*
X30464638Y19779000D01*
X30447300Y19866166D01*
X30447300Y20053834D01*
X30483911Y20237892D01*
X30555727Y20411271D01*
X30586629Y20457519D01*
X30659989Y20567311D01*
X30792689Y20700011D01*
X30948727Y20804272D01*
X31122108Y20876089D01*
X31129659Y20877591D01*
X31306166Y20912700D01*
X31493834Y20912700D01*
X31670341Y20877591D01*
G37*
G36*
X79042585Y22851198D02*
G01*
X79192410Y22821396D01*
X79474674Y22704479D01*
X79728705Y22534741D01*
X79944741Y22318705D01*
X80114479Y22064674D01*
X80231396Y21782410D01*
X80237294Y21752760D01*
X80291000Y21482761D01*
X80291000Y21177239D01*
X80285102Y21147590D01*
X80231396Y20877590D01*
X80114479Y20595326D01*
X79944741Y20341295D01*
X79728705Y20125259D01*
X79474674Y19955521D01*
X79192410Y19838604D01*
X79042585Y19808802D01*
X78892761Y19779000D01*
X78587239Y19779000D01*
X78437415Y19808802D01*
X78287590Y19838604D01*
X78005326Y19955521D01*
X77751295Y20125259D01*
X77535259Y20341295D01*
X77365521Y20595326D01*
X77248604Y20877590D01*
X77194898Y21147590D01*
X77189000Y21177239D01*
X77189000Y21482761D01*
X77242706Y21752760D01*
X77248604Y21782410D01*
X77365521Y22064674D01*
X77535259Y22318705D01*
X77751295Y22534741D01*
X78005326Y22704479D01*
X78287590Y22821396D01*
X78437415Y22851198D01*
X78587239Y22881000D01*
X78892761Y22881000D01*
X79042585Y22851198D01*
G37*
G36*
X67612585Y23121198D02*
G01*
X67762410Y23091396D01*
X68044674Y22974479D01*
X68298705Y22804741D01*
X68514741Y22588705D01*
X68684479Y22334674D01*
X68801396Y22052410D01*
X68831198Y21902585D01*
X68861000Y21752761D01*
X68861000Y21447239D01*
X68850987Y21396903D01*
X68801396Y21147590D01*
X68684479Y20865326D01*
X68514741Y20611295D01*
X68298705Y20395259D01*
X68044674Y20225521D01*
X67762410Y20108604D01*
X67612585Y20078802D01*
X67462761Y20049000D01*
X67157239Y20049000D01*
X67007415Y20078802D01*
X66857590Y20108604D01*
X66575326Y20225521D01*
X66321295Y20395259D01*
X66105259Y20611295D01*
X65935521Y20865326D01*
X65818604Y21147590D01*
X65769013Y21396903D01*
X65759000Y21447239D01*
X65759000Y21752761D01*
X65788802Y21902585D01*
X65818604Y22052410D01*
X65935521Y22334674D01*
X66105259Y22588705D01*
X66321295Y22804741D01*
X66575326Y22974479D01*
X66857590Y23091396D01*
X67007415Y23121198D01*
X67157239Y23151000D01*
X67462761Y23151000D01*
X67612585Y23121198D01*
G37*
G36*
X57451000Y20149000D02*
G01*
X55749000Y20149000D01*
X55749000Y21851000D01*
X57451000Y21851000D01*
X57451000Y20149000D01*
G37*
G36*
X54848228Y21818297D02*
G01*
X55003100Y21754147D01*
X55142481Y21661015D01*
X55261015Y21542481D01*
X55354147Y21403100D01*
X55418297Y21248228D01*
X55451000Y21083816D01*
X55451000Y20916184D01*
X55418297Y20751772D01*
X55354147Y20596900D01*
X55261015Y20457519D01*
X55142481Y20338985D01*
X55003100Y20245853D01*
X54848228Y20181703D01*
X54683816Y20149000D01*
X54516184Y20149000D01*
X54351772Y20181703D01*
X54196900Y20245853D01*
X54057519Y20338985D01*
X53938985Y20457519D01*
X53845853Y20596900D01*
X53781703Y20751772D01*
X53749000Y20916184D01*
X53749000Y21083816D01*
X53781703Y21248228D01*
X53845853Y21403100D01*
X53938985Y21542481D01*
X54057519Y21661015D01*
X54196900Y21754147D01*
X54351772Y21818297D01*
X54516184Y21851000D01*
X54683816Y21851000D01*
X54848228Y21818297D01*
G37*
G36*
X45587256Y24468702D02*
G01*
X45693579Y24447553D01*
X45994042Y24323097D01*
X46264451Y24142415D01*
X46494415Y23912451D01*
X46675097Y23642042D01*
X46798438Y23344272D01*
X46799553Y23341578D01*
X46849318Y23091396D01*
X46863000Y23022609D01*
X46863000Y22697391D01*
X46799553Y22378421D01*
X46675097Y22077958D01*
X46494415Y21807549D01*
X46264451Y21577585D01*
X45994042Y21396903D01*
X45693579Y21272447D01*
X45587256Y21251298D01*
X45374611Y21209000D01*
X45049389Y21209000D01*
X44836744Y21251298D01*
X44730421Y21272447D01*
X44429958Y21396903D01*
X44159549Y21577585D01*
X43929585Y21807549D01*
X43748903Y22077958D01*
X43624447Y22378421D01*
X43561000Y22697391D01*
X43561000Y23022609D01*
X43574683Y23091396D01*
X43624447Y23341578D01*
X43625563Y23344272D01*
X43748903Y23642042D01*
X43929585Y23912451D01*
X44159549Y24142415D01*
X44429958Y24323097D01*
X44730421Y24447553D01*
X44836744Y24468702D01*
X45049389Y24511000D01*
X45374611Y24511000D01*
X45587256Y24468702D01*
G37*
G36*
X24077892Y23416089D02*
G01*
X24251273Y23344272D01*
X24407311Y23240011D01*
X24540011Y23107311D01*
X24628766Y22974479D01*
X24644273Y22951271D01*
X24716089Y22777892D01*
X24752700Y22593834D01*
X24752700Y22406166D01*
X24716089Y22222108D01*
X24650878Y22064674D01*
X24644272Y22048727D01*
X24540011Y21892689D01*
X24407311Y21759989D01*
X24251273Y21655728D01*
X24251272Y21655727D01*
X24251271Y21655727D01*
X24077892Y21583911D01*
X23893834Y21547300D01*
X23706166Y21547300D01*
X23522108Y21583911D01*
X23348729Y21655727D01*
X23348728Y21655727D01*
X23348727Y21655728D01*
X23192689Y21759989D01*
X23059989Y21892689D01*
X22955728Y22048727D01*
X22949123Y22064674D01*
X22883911Y22222108D01*
X22847300Y22406166D01*
X22847300Y22593834D01*
X22883911Y22777892D01*
X22955727Y22951271D01*
X22971234Y22974479D01*
X23059989Y23107311D01*
X23192689Y23240011D01*
X23348727Y23344272D01*
X23522108Y23416089D01*
X23706166Y23452700D01*
X23893834Y23452700D01*
X24077892Y23416089D01*
G37*
G36*
X8134239Y33188533D02*
G01*
X8448282Y33126066D01*
X9039926Y32880999D01*
X9572392Y32525216D01*
X10025216Y32072392D01*
X10380999Y31539926D01*
X10626066Y30948282D01*
X10653292Y30811409D01*
X10751000Y30320197D01*
X10751000Y29679803D01*
X10689435Y29370296D01*
X10626066Y29051718D01*
X10380999Y28460074D01*
X10025216Y27927608D01*
X9572392Y27474784D01*
X9039926Y27119001D01*
X8448282Y26873934D01*
X8134239Y26811467D01*
X7820197Y26749000D01*
X7179803Y26749000D01*
X6865761Y26811467D01*
X6551718Y26873934D01*
X5960074Y27119001D01*
X5427608Y27474784D01*
X4974784Y27927608D01*
X4619001Y28460074D01*
X4373934Y29051718D01*
X4310565Y29370296D01*
X4249000Y29679803D01*
X4249000Y30320197D01*
X4346708Y30811409D01*
X4373934Y30948282D01*
X4619001Y31539926D01*
X4974784Y32072392D01*
X5427608Y32525216D01*
X5960074Y32880999D01*
X6551718Y33126066D01*
X6865761Y33188533D01*
X7179803Y33251000D01*
X7820197Y33251000D01*
X8134239Y33188533D01*
G37*
G36*
X98134239Y33188533D02*
G01*
X98448282Y33126066D01*
X99039926Y32880999D01*
X99572392Y32525216D01*
X100025216Y32072392D01*
X100380999Y31539926D01*
X100626066Y30948282D01*
X100653292Y30811409D01*
X100751000Y30320197D01*
X100751000Y29679803D01*
X100689435Y29370296D01*
X100626066Y29051718D01*
X100380999Y28460074D01*
X100025216Y27927608D01*
X99572392Y27474784D01*
X99039926Y27119001D01*
X98448282Y26873934D01*
X98134239Y26811467D01*
X97820197Y26749000D01*
X97179803Y26749000D01*
X96865761Y26811467D01*
X96551718Y26873934D01*
X95960074Y27119001D01*
X95427608Y27474784D01*
X94974784Y27927608D01*
X94619001Y28460074D01*
X94373934Y29051718D01*
X94310565Y29370296D01*
X94249000Y29679803D01*
X94249000Y30320197D01*
X94346708Y30811409D01*
X94373934Y30948282D01*
X94619001Y31539926D01*
X94974784Y32072392D01*
X95427608Y32525216D01*
X95960074Y32880999D01*
X96551718Y33126066D01*
X96865761Y33188533D01*
X97179803Y33251000D01*
X97820197Y33251000D01*
X98134239Y33188533D01*
G37*
G36*
X89791000Y28649000D02*
G01*
X87089000Y28649000D01*
X87089000Y31351000D01*
X89791000Y31351000D01*
X89791000Y28649000D01*
G37*
G36*
X68514072Y31299082D02*
G01*
X68759939Y31197241D01*
X68871328Y31122813D01*
X68981211Y31049391D01*
X69169391Y30861211D01*
X69317242Y30639937D01*
X69419082Y30394072D01*
X69471000Y30133063D01*
X69471000Y29866937D01*
X69419082Y29605928D01*
X69317242Y29360063D01*
X69179728Y29154259D01*
X69169390Y29138788D01*
X68981212Y28950610D01*
X68759939Y28802759D01*
X68759938Y28802758D01*
X68759937Y28802758D01*
X68514072Y28700918D01*
X68253063Y28649000D01*
X67986937Y28649000D01*
X67725928Y28700918D01*
X67480063Y28802758D01*
X67480062Y28802758D01*
X67480061Y28802759D01*
X67258788Y28950610D01*
X67070610Y29138788D01*
X67060273Y29154259D01*
X66922758Y29360063D01*
X66820918Y29605928D01*
X66769000Y29866937D01*
X66769000Y30133063D01*
X66820918Y30394072D01*
X66922758Y30639937D01*
X67070609Y30861211D01*
X67258789Y31049391D01*
X67368672Y31122813D01*
X67480061Y31197241D01*
X67725928Y31299082D01*
X67986937Y31351000D01*
X68253063Y31351000D01*
X68514072Y31299082D01*
G37*
G36*
X63434072Y31299082D02*
G01*
X63679939Y31197241D01*
X63791328Y31122813D01*
X63901211Y31049391D01*
X64089391Y30861211D01*
X64237242Y30639937D01*
X64339082Y30394072D01*
X64391000Y30133063D01*
X64391000Y29866937D01*
X64339082Y29605928D01*
X64237242Y29360063D01*
X64099728Y29154259D01*
X64089390Y29138788D01*
X63901212Y28950610D01*
X63679939Y28802759D01*
X63679938Y28802758D01*
X63679937Y28802758D01*
X63434072Y28700918D01*
X63173063Y28649000D01*
X62906937Y28649000D01*
X62645928Y28700918D01*
X62400063Y28802758D01*
X62400062Y28802758D01*
X62400061Y28802759D01*
X62178788Y28950610D01*
X61990610Y29138788D01*
X61980273Y29154259D01*
X61842758Y29360063D01*
X61740918Y29605928D01*
X61689000Y29866937D01*
X61689000Y30133063D01*
X61740918Y30394072D01*
X61842758Y30639937D01*
X61990609Y30861211D01*
X62178789Y31049391D01*
X62288672Y31122813D01*
X62400061Y31197241D01*
X62645928Y31299082D01*
X62906937Y31351000D01*
X63173063Y31351000D01*
X63434072Y31299082D01*
G37*
G36*
X73594072Y31299082D02*
G01*
X73839939Y31197241D01*
X73951328Y31122813D01*
X74061211Y31049391D01*
X74249391Y30861211D01*
X74397242Y30639937D01*
X74499082Y30394072D01*
X74551000Y30133063D01*
X74551000Y29866937D01*
X74499082Y29605928D01*
X74397242Y29360063D01*
X74259728Y29154259D01*
X74249390Y29138788D01*
X74061212Y28950610D01*
X73839939Y28802759D01*
X73839938Y28802758D01*
X73839937Y28802758D01*
X73594072Y28700918D01*
X73333063Y28649000D01*
X73066937Y28649000D01*
X72805928Y28700918D01*
X72560063Y28802758D01*
X72560062Y28802758D01*
X72560061Y28802759D01*
X72338788Y28950610D01*
X72150610Y29138788D01*
X72140273Y29154259D01*
X72002758Y29360063D01*
X71900918Y29605928D01*
X71849000Y29866937D01*
X71849000Y30133063D01*
X71900918Y30394072D01*
X72002758Y30639937D01*
X72150609Y30861211D01*
X72338789Y31049391D01*
X72448672Y31122813D01*
X72560061Y31197241D01*
X72805928Y31299082D01*
X73066937Y31351000D01*
X73333063Y31351000D01*
X73594072Y31299082D01*
G37*
G36*
X78674072Y31299082D02*
G01*
X78919939Y31197241D01*
X79031328Y31122813D01*
X79141211Y31049391D01*
X79329391Y30861211D01*
X79477242Y30639937D01*
X79579082Y30394072D01*
X79631000Y30133063D01*
X79631000Y29866937D01*
X79579082Y29605928D01*
X79477242Y29360063D01*
X79339728Y29154259D01*
X79329390Y29138788D01*
X79141212Y28950610D01*
X78919939Y28802759D01*
X78919938Y28802758D01*
X78919937Y28802758D01*
X78674072Y28700918D01*
X78413063Y28649000D01*
X78146937Y28649000D01*
X77885928Y28700918D01*
X77640063Y28802758D01*
X77640062Y28802758D01*
X77640061Y28802759D01*
X77418788Y28950610D01*
X77230610Y29138788D01*
X77220273Y29154259D01*
X77082758Y29360063D01*
X76980918Y29605928D01*
X76929000Y29866937D01*
X76929000Y30133063D01*
X76980918Y30394072D01*
X77082758Y30639937D01*
X77230609Y30861211D01*
X77418789Y31049391D01*
X77528672Y31122813D01*
X77640061Y31197241D01*
X77885928Y31299082D01*
X78146937Y31351000D01*
X78413063Y31351000D01*
X78674072Y31299082D01*
G37*
G36*
X83754072Y31299082D02*
G01*
X83999939Y31197241D01*
X84111328Y31122813D01*
X84221211Y31049391D01*
X84409391Y30861211D01*
X84557242Y30639937D01*
X84659082Y30394072D01*
X84711000Y30133063D01*
X84711000Y29866937D01*
X84659082Y29605928D01*
X84557242Y29360063D01*
X84419728Y29154259D01*
X84409390Y29138788D01*
X84221212Y28950610D01*
X83999939Y28802759D01*
X83999938Y28802758D01*
X83999937Y28802758D01*
X83754072Y28700918D01*
X83493063Y28649000D01*
X83226937Y28649000D01*
X82965928Y28700918D01*
X82720063Y28802758D01*
X82720062Y28802758D01*
X82720061Y28802759D01*
X82498788Y28950610D01*
X82310610Y29138788D01*
X82300273Y29154259D01*
X82162758Y29360063D01*
X82060918Y29605928D01*
X82009000Y29866937D01*
X82009000Y30133063D01*
X82060918Y30394072D01*
X82162758Y30639937D01*
X82310609Y30861211D01*
X82498789Y31049391D01*
X82608672Y31122813D01*
X82720061Y31197241D01*
X82965928Y31299082D01*
X83226937Y31351000D01*
X83493063Y31351000D01*
X83754072Y31299082D01*
G37*
G36*
X53274072Y31299082D02*
G01*
X53519939Y31197241D01*
X53631328Y31122813D01*
X53741211Y31049391D01*
X53929391Y30861211D01*
X54077242Y30639937D01*
X54179082Y30394072D01*
X54231000Y30133063D01*
X54231000Y29866937D01*
X54179082Y29605928D01*
X54077242Y29360063D01*
X53939728Y29154259D01*
X53929390Y29138788D01*
X53741212Y28950610D01*
X53519939Y28802759D01*
X53519938Y28802758D01*
X53519937Y28802758D01*
X53274072Y28700918D01*
X53013063Y28649000D01*
X52746937Y28649000D01*
X52485928Y28700918D01*
X52240063Y28802758D01*
X52240062Y28802758D01*
X52240061Y28802759D01*
X52018788Y28950610D01*
X51830610Y29138788D01*
X51820273Y29154259D01*
X51682758Y29360063D01*
X51580918Y29605928D01*
X51529000Y29866937D01*
X51529000Y30133063D01*
X51580918Y30394072D01*
X51682758Y30639937D01*
X51830609Y30861211D01*
X52018789Y31049391D01*
X52128672Y31122813D01*
X52240061Y31197241D01*
X52485928Y31299082D01*
X52746937Y31351000D01*
X53013063Y31351000D01*
X53274072Y31299082D01*
G37*
G36*
X58354072Y31299082D02*
G01*
X58599939Y31197241D01*
X58711328Y31122813D01*
X58821211Y31049391D01*
X59009391Y30861211D01*
X59157242Y30639937D01*
X59259082Y30394072D01*
X59311000Y30133063D01*
X59311000Y29866937D01*
X59259082Y29605928D01*
X59157242Y29360063D01*
X59019728Y29154259D01*
X59009390Y29138788D01*
X58821212Y28950610D01*
X58599939Y28802759D01*
X58599938Y28802758D01*
X58599937Y28802758D01*
X58354072Y28700918D01*
X58093063Y28649000D01*
X57826937Y28649000D01*
X57565928Y28700918D01*
X57320063Y28802758D01*
X57320062Y28802758D01*
X57320061Y28802759D01*
X57098788Y28950610D01*
X56910610Y29138788D01*
X56900273Y29154259D01*
X56762758Y29360063D01*
X56660918Y29605928D01*
X56609000Y29866937D01*
X56609000Y30133063D01*
X56660918Y30394072D01*
X56762758Y30639937D01*
X56910609Y30861211D01*
X57098789Y31049391D01*
X57208672Y31122813D01*
X57320061Y31197241D01*
X57565928Y31299082D01*
X57826937Y31351000D01*
X58093063Y31351000D01*
X58354072Y31299082D01*
G37*
G36*
X20813585Y31880198D02*
G01*
X20963410Y31850396D01*
X21245674Y31733479D01*
X21499705Y31563741D01*
X21715741Y31347705D01*
X21885479Y31093674D01*
X22002396Y30811410D01*
X22062000Y30511760D01*
X22062000Y30206240D01*
X22002396Y29906590D01*
X21885479Y29624326D01*
X21715741Y29370295D01*
X21499705Y29154259D01*
X21245674Y28984521D01*
X20963410Y28867604D01*
X20813585Y28837802D01*
X20663761Y28808000D01*
X20358239Y28808000D01*
X20208415Y28837802D01*
X20058590Y28867604D01*
X19776326Y28984521D01*
X19522295Y29154259D01*
X19306259Y29370295D01*
X19136521Y29624326D01*
X19019604Y29906590D01*
X18960000Y30206240D01*
X18960000Y30511760D01*
X19019604Y30811410D01*
X19136521Y31093674D01*
X19306259Y31347705D01*
X19522295Y31563741D01*
X19776326Y31733479D01*
X20058590Y31850396D01*
X20208415Y31880198D01*
X20358239Y31910000D01*
X20663761Y31910000D01*
X20813585Y31880198D01*
G37*
G36*
X37302000Y28808000D02*
G01*
X34200000Y28808000D01*
X34200000Y31910000D01*
X37302000Y31910000D01*
X37302000Y28808000D01*
G37*
G36*
X25893585Y31880198D02*
G01*
X26043410Y31850396D01*
X26325674Y31733479D01*
X26579705Y31563741D01*
X26795741Y31347705D01*
X26965479Y31093674D01*
X27082396Y30811410D01*
X27142000Y30511760D01*
X27142000Y30206240D01*
X27082396Y29906590D01*
X26965479Y29624326D01*
X26795741Y29370295D01*
X26579705Y29154259D01*
X26325674Y28984521D01*
X26043410Y28867604D01*
X25893585Y28837802D01*
X25743761Y28808000D01*
X25438239Y28808000D01*
X25288415Y28837802D01*
X25138590Y28867604D01*
X24856326Y28984521D01*
X24602295Y29154259D01*
X24386259Y29370295D01*
X24216521Y29624326D01*
X24099604Y29906590D01*
X24040000Y30206240D01*
X24040000Y30511760D01*
X24099604Y30811410D01*
X24216521Y31093674D01*
X24386259Y31347705D01*
X24602295Y31563741D01*
X24856326Y31733479D01*
X25138590Y31850396D01*
X25288415Y31880198D01*
X25438239Y31910000D01*
X25743761Y31910000D01*
X25893585Y31880198D01*
G37*
G36*
X30973585Y31880198D02*
G01*
X31123410Y31850396D01*
X31405674Y31733479D01*
X31659705Y31563741D01*
X31875741Y31347705D01*
X32045479Y31093674D01*
X32162396Y30811410D01*
X32222000Y30511760D01*
X32222000Y30206240D01*
X32162396Y29906590D01*
X32045479Y29624326D01*
X31875741Y29370295D01*
X31659705Y29154259D01*
X31405674Y28984521D01*
X31123410Y28867604D01*
X30973585Y28837802D01*
X30823761Y28808000D01*
X30518239Y28808000D01*
X30368415Y28837802D01*
X30218590Y28867604D01*
X29936326Y28984521D01*
X29682295Y29154259D01*
X29466259Y29370295D01*
X29296521Y29624326D01*
X29179604Y29906590D01*
X29120000Y30206240D01*
X29120000Y30511760D01*
X29179604Y30811410D01*
X29296521Y31093674D01*
X29466259Y31347705D01*
X29682295Y31563741D01*
X29936326Y31733479D01*
X30218590Y31850396D01*
X30368415Y31880198D01*
X30518239Y31910000D01*
X30823761Y31910000D01*
X30973585Y31880198D01*
G37*
G36*
X46863000Y28829000D02*
G01*
X43561000Y28829000D01*
X43561000Y32131000D01*
X46863000Y32131000D01*
X46863000Y28829000D01*
G37*
M02*
