G04 #@! TF.GenerationSoftware,KiCad,Pcbnew,5.1.5+dfsg1-2build2*
G04 #@! TF.CreationDate,2021-06-30T22:55:55+02:00*
G04 #@! TF.ProjectId,solar_mppt1,736f6c61-725f-46d7-9070-74312e6b6963,rev?*
G04 #@! TF.SameCoordinates,Original*
G04 #@! TF.FileFunction,Legend,Top*
G04 #@! TF.FilePolarity,Positive*
%FSLAX46Y46*%
G04 Gerber Fmt 4.6, Leading zero omitted, Abs format (unit mm)*
G04 Created by KiCad (PCBNEW 5.1.5+dfsg1-2build2) date 2021-06-30 22:55:55*
%MOMM*%
%LPD*%
G04 APERTURE LIST*
%ADD10C,0.150000*%
%ADD11C,0.120000*%
%ADD12C,0.152400*%
G04 APERTURE END LIST*
D10*
X3547619Y19547619D02*
X4023809Y19880952D01*
X3547619Y20119047D02*
X4547619Y20119047D01*
X4547619Y19738095D01*
X4500000Y19642857D01*
X4452380Y19595238D01*
X4357142Y19547619D01*
X4214285Y19547619D01*
X4119047Y19595238D01*
X4071428Y19642857D01*
X4023809Y19738095D01*
X4023809Y20119047D01*
X3595238Y19166666D02*
X3547619Y19023809D01*
X3547619Y18785714D01*
X3595238Y18690476D01*
X3642857Y18642857D01*
X3738095Y18595238D01*
X3833333Y18595238D01*
X3928571Y18642857D01*
X3976190Y18690476D01*
X4023809Y18785714D01*
X4071428Y18976190D01*
X4119047Y19071428D01*
X4166666Y19119047D01*
X4261904Y19166666D01*
X4357142Y19166666D01*
X4452380Y19119047D01*
X4500000Y19071428D01*
X4547619Y18976190D01*
X4547619Y18738095D01*
X4500000Y18595238D01*
X4547619Y18309523D02*
X4547619Y17738095D01*
X3547619Y18023809D02*
X4547619Y18023809D01*
X10366666Y12566666D02*
X11766666Y12566666D01*
X10500000Y11100000D02*
X10433333Y11166666D01*
X10366666Y11366666D01*
X10366666Y11500000D01*
X10433333Y11700000D01*
X10566666Y11833333D01*
X10700000Y11900000D01*
X10966666Y11966666D01*
X11166666Y11966666D01*
X11433333Y11900000D01*
X11566666Y11833333D01*
X11700000Y11700000D01*
X11766666Y11500000D01*
X11766666Y11366666D01*
X11700000Y11166666D01*
X11633333Y11100000D01*
X10433333Y10566666D02*
X10366666Y10366666D01*
X10366666Y10033333D01*
X10433333Y9900000D01*
X10500000Y9833333D01*
X10633333Y9766666D01*
X10766666Y9766666D01*
X10900000Y9833333D01*
X10966666Y9900000D01*
X11033333Y10033333D01*
X11100000Y10300000D01*
X11166666Y10433333D01*
X11233333Y10500000D01*
X11366666Y10566666D01*
X11500000Y10566666D01*
X11633333Y10500000D01*
X11700000Y10433333D01*
X11766666Y10300000D01*
X11766666Y9966666D01*
X11700000Y9766666D01*
X10366666Y9166666D02*
X11766666Y9166666D01*
X11766666Y8633333D01*
X11700000Y8500000D01*
X11633333Y8433333D01*
X11500000Y8366666D01*
X11300000Y8366666D01*
X11166666Y8433333D01*
X11100000Y8500000D01*
X11033333Y8633333D01*
X11033333Y9166666D01*
D11*
X39950000Y-1200000D02*
X37550000Y-1200000D01*
X39950000Y1200000D02*
X39950000Y-1200000D01*
X37550000Y1200000D02*
X39950000Y1200000D01*
X37550000Y-1200000D02*
X37550000Y1200000D01*
X31550000Y-23300000D02*
X33950000Y-23300000D01*
X31550000Y-25700000D02*
X31550000Y-23300000D01*
X33950000Y-25700000D02*
X31550000Y-25700000D01*
X33950000Y-23300000D02*
X33950000Y-25700000D01*
X7400000Y-23400000D02*
X7400000Y-25800000D01*
X5000000Y-23400000D02*
X7400000Y-23400000D01*
X5000000Y-25800000D02*
X5000000Y-23400000D01*
X7400000Y-25800000D02*
X5000000Y-25800000D01*
X93550000Y9300000D02*
X93550000Y11700000D01*
X95950000Y9300000D02*
X93550000Y9300000D01*
X95950000Y11700000D02*
X95950000Y9300000D01*
X93550000Y11700000D02*
X95950000Y11700000D01*
X55550000Y-22550000D02*
X57950000Y-22550000D01*
X55550000Y-24950000D02*
X55550000Y-22550000D01*
X57950000Y-24950000D02*
X55550000Y-24950000D01*
X57950000Y-22550000D02*
X57950000Y-24950000D01*
X93550000Y5700000D02*
X95950000Y5700000D01*
X93550000Y3300000D02*
X93550000Y5700000D01*
X95950000Y3300000D02*
X93550000Y3300000D01*
X95950000Y5700000D02*
X95950000Y3300000D01*
X93550000Y8700000D02*
X95950000Y8700000D01*
X93550000Y6300000D02*
X93550000Y8700000D01*
X95950000Y6300000D02*
X93550000Y6300000D01*
X95950000Y8700000D02*
X95950000Y6300000D01*
X8800000Y-23400000D02*
X11200000Y-23400000D01*
X8800000Y-25800000D02*
X8800000Y-23400000D01*
X11200000Y-25800000D02*
X8800000Y-25800000D01*
X11200000Y-23400000D02*
X11200000Y-25800000D01*
X60200000Y-15300000D02*
X60200000Y-17700000D01*
X57800000Y-15300000D02*
X60200000Y-15300000D01*
X57800000Y-17700000D02*
X57800000Y-15300000D01*
X60200000Y-17700000D02*
X57800000Y-17700000D01*
X41450000Y-17200000D02*
X39050000Y-17200000D01*
X41450000Y-14800000D02*
X41450000Y-17200000D01*
X39050000Y-14800000D02*
X41450000Y-14800000D01*
X39050000Y-17200000D02*
X39050000Y-14800000D01*
X55550000Y-19300000D02*
X57950000Y-19300000D01*
X55550000Y-21700000D02*
X55550000Y-19300000D01*
X57950000Y-21700000D02*
X55550000Y-21700000D01*
X57950000Y-19300000D02*
X57950000Y-21700000D01*
X58800000Y-19300000D02*
X61200000Y-19300000D01*
X58800000Y-21700000D02*
X58800000Y-19300000D01*
X61200000Y-21700000D02*
X58800000Y-21700000D01*
X61200000Y-19300000D02*
X61200000Y-21700000D01*
D12*
X33073700Y5383001D02*
X33073700Y24331401D01*
X22126300Y5383001D02*
X33073700Y5383001D01*
X22126300Y24331401D02*
X22126300Y5383001D01*
X33073700Y24331401D02*
X22126300Y24331401D01*
X4731140Y8474100D02*
X6379600Y8474100D01*
X3278260Y16525900D02*
X2620400Y16525900D01*
X6379600Y11181740D02*
X6379600Y13818260D01*
X6379600Y15372740D02*
X6379600Y16525900D01*
X6379600Y16525900D02*
X4731140Y16525900D01*
X6379600Y8474100D02*
X6379600Y9627260D01*
X2620400Y8474100D02*
X3278260Y8474100D01*
X2620400Y16525900D02*
X2620400Y8474100D01*
X4955140Y-39148400D02*
X6603600Y-39148400D01*
X3502260Y-31096600D02*
X2844400Y-31096600D01*
X6603600Y-36440760D02*
X6603600Y-33804240D01*
X6603600Y-32249760D02*
X6603600Y-31096600D01*
X6603600Y-31096600D02*
X4955140Y-31096600D01*
X6603600Y-39148400D02*
X6603600Y-37995240D01*
X2844400Y-39148400D02*
X3502260Y-39148400D01*
X2844400Y-31096600D02*
X2844400Y-39148400D01*
X5031140Y-55025900D02*
X6679600Y-55025900D01*
X3578260Y-46974100D02*
X2920400Y-46974100D01*
X6679600Y-52318260D02*
X6679600Y-49681740D01*
X6679600Y-48127260D02*
X6679600Y-46974100D01*
X6679600Y-46974100D02*
X5031140Y-46974100D01*
X6679600Y-55025900D02*
X6679600Y-53872740D01*
X2920400Y-55025900D02*
X3578260Y-55025900D01*
X2920400Y-46974100D02*
X2920400Y-55025900D01*
D11*
X65675000Y-58755000D02*
X65675000Y-46025000D01*
X65675000Y-44575000D02*
X65675000Y-31845000D01*
X79885000Y-58755000D02*
X79885000Y-46025000D01*
X79885000Y-44575000D02*
X79885000Y-31845000D01*
X65675000Y-58755000D02*
X79885000Y-58755000D01*
X65675000Y-31845000D02*
X79885000Y-31845000D01*
X15031000Y-18165000D02*
G75*
G03X20081000Y-18165000I2525000J0D01*
G01*
X15031000Y-11915000D02*
G75*
G02X20081000Y-11915000I2525000J0D01*
G01*
X15031000Y-11915000D02*
X15031000Y-18165000D01*
X20081000Y-11915000D02*
X20081000Y-18165000D01*
X88595225Y-2705000D02*
X88595225Y-3205000D01*
X88345225Y-2955000D02*
X88845225Y-2955000D01*
X93751000Y-4146000D02*
X93751000Y-4714000D01*
X93711000Y-3912000D02*
X93711000Y-4948000D01*
X93671000Y-3753000D02*
X93671000Y-5107000D01*
X93631000Y-3625000D02*
X93631000Y-5235000D01*
X93591000Y-3515000D02*
X93591000Y-5345000D01*
X93551000Y-3419000D02*
X93551000Y-5441000D01*
X93511000Y-3332000D02*
X93511000Y-5528000D01*
X93471000Y-3252000D02*
X93471000Y-5608000D01*
X93431000Y-3179000D02*
X93431000Y-5681000D01*
X93391000Y-3111000D02*
X93391000Y-5749000D01*
X93351000Y-3047000D02*
X93351000Y-5813000D01*
X93311000Y-2987000D02*
X93311000Y-5873000D01*
X93271000Y-2930000D02*
X93271000Y-5930000D01*
X93231000Y-2876000D02*
X93231000Y-5984000D01*
X93191000Y-2825000D02*
X93191000Y-6035000D01*
X93151000Y-5470000D02*
X93151000Y-6083000D01*
X93151000Y-2777000D02*
X93151000Y-3390000D01*
X93111000Y-5470000D02*
X93111000Y-6129000D01*
X93111000Y-2731000D02*
X93111000Y-3390000D01*
X93071000Y-5470000D02*
X93071000Y-6173000D01*
X93071000Y-2687000D02*
X93071000Y-3390000D01*
X93031000Y-5470000D02*
X93031000Y-6215000D01*
X93031000Y-2645000D02*
X93031000Y-3390000D01*
X92991000Y-5470000D02*
X92991000Y-6256000D01*
X92991000Y-2604000D02*
X92991000Y-3390000D01*
X92951000Y-5470000D02*
X92951000Y-6294000D01*
X92951000Y-2566000D02*
X92951000Y-3390000D01*
X92911000Y-5470000D02*
X92911000Y-6331000D01*
X92911000Y-2529000D02*
X92911000Y-3390000D01*
X92871000Y-5470000D02*
X92871000Y-6367000D01*
X92871000Y-2493000D02*
X92871000Y-3390000D01*
X92831000Y-5470000D02*
X92831000Y-6401000D01*
X92831000Y-2459000D02*
X92831000Y-3390000D01*
X92791000Y-5470000D02*
X92791000Y-6434000D01*
X92791000Y-2426000D02*
X92791000Y-3390000D01*
X92751000Y-5470000D02*
X92751000Y-6465000D01*
X92751000Y-2395000D02*
X92751000Y-3390000D01*
X92711000Y-5470000D02*
X92711000Y-6495000D01*
X92711000Y-2365000D02*
X92711000Y-3390000D01*
X92671000Y-5470000D02*
X92671000Y-6525000D01*
X92671000Y-2335000D02*
X92671000Y-3390000D01*
X92631000Y-5470000D02*
X92631000Y-6552000D01*
X92631000Y-2308000D02*
X92631000Y-3390000D01*
X92591000Y-5470000D02*
X92591000Y-6579000D01*
X92591000Y-2281000D02*
X92591000Y-3390000D01*
X92551000Y-5470000D02*
X92551000Y-6605000D01*
X92551000Y-2255000D02*
X92551000Y-3390000D01*
X92511000Y-5470000D02*
X92511000Y-6630000D01*
X92511000Y-2230000D02*
X92511000Y-3390000D01*
X92471000Y-5470000D02*
X92471000Y-6654000D01*
X92471000Y-2206000D02*
X92471000Y-3390000D01*
X92431000Y-5470000D02*
X92431000Y-6677000D01*
X92431000Y-2183000D02*
X92431000Y-3390000D01*
X92391000Y-5470000D02*
X92391000Y-6698000D01*
X92391000Y-2162000D02*
X92391000Y-3390000D01*
X92351000Y-5470000D02*
X92351000Y-6720000D01*
X92351000Y-2140000D02*
X92351000Y-3390000D01*
X92311000Y-5470000D02*
X92311000Y-6740000D01*
X92311000Y-2120000D02*
X92311000Y-3390000D01*
X92271000Y-5470000D02*
X92271000Y-6759000D01*
X92271000Y-2101000D02*
X92271000Y-3390000D01*
X92231000Y-5470000D02*
X92231000Y-6778000D01*
X92231000Y-2082000D02*
X92231000Y-3390000D01*
X92191000Y-5470000D02*
X92191000Y-6795000D01*
X92191000Y-2065000D02*
X92191000Y-3390000D01*
X92151000Y-5470000D02*
X92151000Y-6812000D01*
X92151000Y-2048000D02*
X92151000Y-3390000D01*
X92111000Y-5470000D02*
X92111000Y-6828000D01*
X92111000Y-2032000D02*
X92111000Y-3390000D01*
X92071000Y-5470000D02*
X92071000Y-6844000D01*
X92071000Y-2016000D02*
X92071000Y-3390000D01*
X92031000Y-5470000D02*
X92031000Y-6858000D01*
X92031000Y-2002000D02*
X92031000Y-3390000D01*
X91991000Y-5470000D02*
X91991000Y-6872000D01*
X91991000Y-1988000D02*
X91991000Y-3390000D01*
X91951000Y-5470000D02*
X91951000Y-6885000D01*
X91951000Y-1975000D02*
X91951000Y-3390000D01*
X91911000Y-5470000D02*
X91911000Y-6898000D01*
X91911000Y-1962000D02*
X91911000Y-3390000D01*
X91871000Y-5470000D02*
X91871000Y-6910000D01*
X91871000Y-1950000D02*
X91871000Y-3390000D01*
X91830000Y-5470000D02*
X91830000Y-6921000D01*
X91830000Y-1939000D02*
X91830000Y-3390000D01*
X91790000Y-5470000D02*
X91790000Y-6931000D01*
X91790000Y-1929000D02*
X91790000Y-3390000D01*
X91750000Y-5470000D02*
X91750000Y-6941000D01*
X91750000Y-1919000D02*
X91750000Y-3390000D01*
X91710000Y-5470000D02*
X91710000Y-6950000D01*
X91710000Y-1910000D02*
X91710000Y-3390000D01*
X91670000Y-5470000D02*
X91670000Y-6958000D01*
X91670000Y-1902000D02*
X91670000Y-3390000D01*
X91630000Y-5470000D02*
X91630000Y-6966000D01*
X91630000Y-1894000D02*
X91630000Y-3390000D01*
X91590000Y-5470000D02*
X91590000Y-6973000D01*
X91590000Y-1887000D02*
X91590000Y-3390000D01*
X91550000Y-5470000D02*
X91550000Y-6980000D01*
X91550000Y-1880000D02*
X91550000Y-3390000D01*
X91510000Y-5470000D02*
X91510000Y-6986000D01*
X91510000Y-1874000D02*
X91510000Y-3390000D01*
X91470000Y-5470000D02*
X91470000Y-6991000D01*
X91470000Y-1869000D02*
X91470000Y-3390000D01*
X91430000Y-5470000D02*
X91430000Y-6995000D01*
X91430000Y-1865000D02*
X91430000Y-3390000D01*
X91390000Y-5470000D02*
X91390000Y-6999000D01*
X91390000Y-1861000D02*
X91390000Y-3390000D01*
X91350000Y-5470000D02*
X91350000Y-7003000D01*
X91350000Y-1857000D02*
X91350000Y-3390000D01*
X91310000Y-5470000D02*
X91310000Y-7006000D01*
X91310000Y-1854000D02*
X91310000Y-3390000D01*
X91270000Y-5470000D02*
X91270000Y-7008000D01*
X91270000Y-1852000D02*
X91270000Y-3390000D01*
X91230000Y-5470000D02*
X91230000Y-7009000D01*
X91230000Y-1851000D02*
X91230000Y-3390000D01*
X91190000Y-1850000D02*
X91190000Y-3390000D01*
X91190000Y-5470000D02*
X91190000Y-7010000D01*
X91150000Y-1850000D02*
X91150000Y-3390000D01*
X91150000Y-5470000D02*
X91150000Y-7010000D01*
X93770000Y-4430000D02*
G75*
G03X93770000Y-4430000I-2620000J0D01*
G01*
X38291000Y26549000D02*
X38291000Y34169000D01*
X17971000Y34169000D02*
X17971000Y26549000D01*
X17971000Y32899000D02*
X38291000Y32899000D01*
X38291000Y26549000D02*
X17971000Y26549000D01*
X38291000Y34169000D02*
X17971000Y34169000D01*
X40925000Y-48745225D02*
X40425000Y-48745225D01*
X40675000Y-48495225D02*
X40675000Y-48995225D01*
X39484000Y-53901000D02*
X38916000Y-53901000D01*
X39718000Y-53861000D02*
X38682000Y-53861000D01*
X39877000Y-53821000D02*
X38523000Y-53821000D01*
X40005000Y-53781000D02*
X38395000Y-53781000D01*
X40115000Y-53741000D02*
X38285000Y-53741000D01*
X40211000Y-53701000D02*
X38189000Y-53701000D01*
X40298000Y-53661000D02*
X38102000Y-53661000D01*
X40378000Y-53621000D02*
X38022000Y-53621000D01*
X40451000Y-53581000D02*
X37949000Y-53581000D01*
X40519000Y-53541000D02*
X37881000Y-53541000D01*
X40583000Y-53501000D02*
X37817000Y-53501000D01*
X40643000Y-53461000D02*
X37757000Y-53461000D01*
X40700000Y-53421000D02*
X37700000Y-53421000D01*
X40754000Y-53381000D02*
X37646000Y-53381000D01*
X40805000Y-53341000D02*
X37595000Y-53341000D01*
X38160000Y-53301000D02*
X37547000Y-53301000D01*
X40853000Y-53301000D02*
X40240000Y-53301000D01*
X38160000Y-53261000D02*
X37501000Y-53261000D01*
X40899000Y-53261000D02*
X40240000Y-53261000D01*
X38160000Y-53221000D02*
X37457000Y-53221000D01*
X40943000Y-53221000D02*
X40240000Y-53221000D01*
X38160000Y-53181000D02*
X37415000Y-53181000D01*
X40985000Y-53181000D02*
X40240000Y-53181000D01*
X38160000Y-53141000D02*
X37374000Y-53141000D01*
X41026000Y-53141000D02*
X40240000Y-53141000D01*
X38160000Y-53101000D02*
X37336000Y-53101000D01*
X41064000Y-53101000D02*
X40240000Y-53101000D01*
X38160000Y-53061000D02*
X37299000Y-53061000D01*
X41101000Y-53061000D02*
X40240000Y-53061000D01*
X38160000Y-53021000D02*
X37263000Y-53021000D01*
X41137000Y-53021000D02*
X40240000Y-53021000D01*
X38160000Y-52981000D02*
X37229000Y-52981000D01*
X41171000Y-52981000D02*
X40240000Y-52981000D01*
X38160000Y-52941000D02*
X37196000Y-52941000D01*
X41204000Y-52941000D02*
X40240000Y-52941000D01*
X38160000Y-52901000D02*
X37165000Y-52901000D01*
X41235000Y-52901000D02*
X40240000Y-52901000D01*
X38160000Y-52861000D02*
X37135000Y-52861000D01*
X41265000Y-52861000D02*
X40240000Y-52861000D01*
X38160000Y-52821000D02*
X37105000Y-52821000D01*
X41295000Y-52821000D02*
X40240000Y-52821000D01*
X38160000Y-52781000D02*
X37078000Y-52781000D01*
X41322000Y-52781000D02*
X40240000Y-52781000D01*
X38160000Y-52741000D02*
X37051000Y-52741000D01*
X41349000Y-52741000D02*
X40240000Y-52741000D01*
X38160000Y-52701000D02*
X37025000Y-52701000D01*
X41375000Y-52701000D02*
X40240000Y-52701000D01*
X38160000Y-52661000D02*
X37000000Y-52661000D01*
X41400000Y-52661000D02*
X40240000Y-52661000D01*
X38160000Y-52621000D02*
X36976000Y-52621000D01*
X41424000Y-52621000D02*
X40240000Y-52621000D01*
X38160000Y-52581000D02*
X36953000Y-52581000D01*
X41447000Y-52581000D02*
X40240000Y-52581000D01*
X38160000Y-52541000D02*
X36932000Y-52541000D01*
X41468000Y-52541000D02*
X40240000Y-52541000D01*
X38160000Y-52501000D02*
X36910000Y-52501000D01*
X41490000Y-52501000D02*
X40240000Y-52501000D01*
X38160000Y-52461000D02*
X36890000Y-52461000D01*
X41510000Y-52461000D02*
X40240000Y-52461000D01*
X38160000Y-52421000D02*
X36871000Y-52421000D01*
X41529000Y-52421000D02*
X40240000Y-52421000D01*
X38160000Y-52381000D02*
X36852000Y-52381000D01*
X41548000Y-52381000D02*
X40240000Y-52381000D01*
X38160000Y-52341000D02*
X36835000Y-52341000D01*
X41565000Y-52341000D02*
X40240000Y-52341000D01*
X38160000Y-52301000D02*
X36818000Y-52301000D01*
X41582000Y-52301000D02*
X40240000Y-52301000D01*
X38160000Y-52261000D02*
X36802000Y-52261000D01*
X41598000Y-52261000D02*
X40240000Y-52261000D01*
X38160000Y-52221000D02*
X36786000Y-52221000D01*
X41614000Y-52221000D02*
X40240000Y-52221000D01*
X38160000Y-52181000D02*
X36772000Y-52181000D01*
X41628000Y-52181000D02*
X40240000Y-52181000D01*
X38160000Y-52141000D02*
X36758000Y-52141000D01*
X41642000Y-52141000D02*
X40240000Y-52141000D01*
X38160000Y-52101000D02*
X36745000Y-52101000D01*
X41655000Y-52101000D02*
X40240000Y-52101000D01*
X38160000Y-52061000D02*
X36732000Y-52061000D01*
X41668000Y-52061000D02*
X40240000Y-52061000D01*
X38160000Y-52021000D02*
X36720000Y-52021000D01*
X41680000Y-52021000D02*
X40240000Y-52021000D01*
X38160000Y-51980000D02*
X36709000Y-51980000D01*
X41691000Y-51980000D02*
X40240000Y-51980000D01*
X38160000Y-51940000D02*
X36699000Y-51940000D01*
X41701000Y-51940000D02*
X40240000Y-51940000D01*
X38160000Y-51900000D02*
X36689000Y-51900000D01*
X41711000Y-51900000D02*
X40240000Y-51900000D01*
X38160000Y-51860000D02*
X36680000Y-51860000D01*
X41720000Y-51860000D02*
X40240000Y-51860000D01*
X38160000Y-51820000D02*
X36672000Y-51820000D01*
X41728000Y-51820000D02*
X40240000Y-51820000D01*
X38160000Y-51780000D02*
X36664000Y-51780000D01*
X41736000Y-51780000D02*
X40240000Y-51780000D01*
X38160000Y-51740000D02*
X36657000Y-51740000D01*
X41743000Y-51740000D02*
X40240000Y-51740000D01*
X38160000Y-51700000D02*
X36650000Y-51700000D01*
X41750000Y-51700000D02*
X40240000Y-51700000D01*
X38160000Y-51660000D02*
X36644000Y-51660000D01*
X41756000Y-51660000D02*
X40240000Y-51660000D01*
X38160000Y-51620000D02*
X36639000Y-51620000D01*
X41761000Y-51620000D02*
X40240000Y-51620000D01*
X38160000Y-51580000D02*
X36635000Y-51580000D01*
X41765000Y-51580000D02*
X40240000Y-51580000D01*
X38160000Y-51540000D02*
X36631000Y-51540000D01*
X41769000Y-51540000D02*
X40240000Y-51540000D01*
X38160000Y-51500000D02*
X36627000Y-51500000D01*
X41773000Y-51500000D02*
X40240000Y-51500000D01*
X38160000Y-51460000D02*
X36624000Y-51460000D01*
X41776000Y-51460000D02*
X40240000Y-51460000D01*
X38160000Y-51420000D02*
X36622000Y-51420000D01*
X41778000Y-51420000D02*
X40240000Y-51420000D01*
X38160000Y-51380000D02*
X36621000Y-51380000D01*
X41779000Y-51380000D02*
X40240000Y-51380000D01*
X41780000Y-51340000D02*
X40240000Y-51340000D01*
X38160000Y-51340000D02*
X36620000Y-51340000D01*
X41780000Y-51300000D02*
X40240000Y-51300000D01*
X38160000Y-51300000D02*
X36620000Y-51300000D01*
X41820000Y-51300000D02*
G75*
G03X41820000Y-51300000I-2620000J0D01*
G01*
X100125000Y-45370354D02*
X99125000Y-45370354D01*
X99625000Y-44870354D02*
X99625000Y-45870354D01*
X97349000Y-55431000D02*
X96151000Y-55431000D01*
X97612000Y-55391000D02*
X95888000Y-55391000D01*
X97812000Y-55351000D02*
X95688000Y-55351000D01*
X97980000Y-55311000D02*
X95520000Y-55311000D01*
X98128000Y-55271000D02*
X95372000Y-55271000D01*
X98260000Y-55231000D02*
X95240000Y-55231000D01*
X98380000Y-55191000D02*
X95120000Y-55191000D01*
X98492000Y-55151000D02*
X95008000Y-55151000D01*
X98596000Y-55111000D02*
X94904000Y-55111000D01*
X98694000Y-55071000D02*
X94806000Y-55071000D01*
X98787000Y-55031000D02*
X94713000Y-55031000D01*
X98875000Y-54991000D02*
X94625000Y-54991000D01*
X98959000Y-54951000D02*
X94541000Y-54951000D01*
X99039000Y-54911000D02*
X94461000Y-54911000D01*
X99115000Y-54871000D02*
X94385000Y-54871000D01*
X99189000Y-54831000D02*
X94311000Y-54831000D01*
X99260000Y-54791000D02*
X94240000Y-54791000D01*
X99329000Y-54751000D02*
X94171000Y-54751000D01*
X99395000Y-54711000D02*
X94105000Y-54711000D01*
X99459000Y-54671000D02*
X94041000Y-54671000D01*
X99520000Y-54631000D02*
X93980000Y-54631000D01*
X99580000Y-54591000D02*
X93920000Y-54591000D01*
X99639000Y-54551000D02*
X93861000Y-54551000D01*
X99695000Y-54511000D02*
X93805000Y-54511000D01*
X99750000Y-54471000D02*
X93750000Y-54471000D01*
X99804000Y-54431000D02*
X93696000Y-54431000D01*
X99856000Y-54391000D02*
X93644000Y-54391000D01*
X99906000Y-54351000D02*
X93594000Y-54351000D01*
X99956000Y-54311000D02*
X93544000Y-54311000D01*
X100004000Y-54271000D02*
X93496000Y-54271000D01*
X100051000Y-54231000D02*
X93449000Y-54231000D01*
X100097000Y-54191000D02*
X93403000Y-54191000D01*
X100142000Y-54151000D02*
X93358000Y-54151000D01*
X100186000Y-54111000D02*
X93314000Y-54111000D01*
X95509000Y-54071000D02*
X93272000Y-54071000D01*
X100228000Y-54071000D02*
X97991000Y-54071000D01*
X95509000Y-54031000D02*
X93230000Y-54031000D01*
X100270000Y-54031000D02*
X97991000Y-54031000D01*
X95509000Y-53991000D02*
X93189000Y-53991000D01*
X100311000Y-53991000D02*
X97991000Y-53991000D01*
X95509000Y-53951000D02*
X93149000Y-53951000D01*
X100351000Y-53951000D02*
X97991000Y-53951000D01*
X95509000Y-53911000D02*
X93110000Y-53911000D01*
X100390000Y-53911000D02*
X97991000Y-53911000D01*
X95509000Y-53871000D02*
X93071000Y-53871000D01*
X100429000Y-53871000D02*
X97991000Y-53871000D01*
X95509000Y-53831000D02*
X93034000Y-53831000D01*
X100466000Y-53831000D02*
X97991000Y-53831000D01*
X95509000Y-53791000D02*
X92997000Y-53791000D01*
X100503000Y-53791000D02*
X97991000Y-53791000D01*
X95509000Y-53751000D02*
X92961000Y-53751000D01*
X100539000Y-53751000D02*
X97991000Y-53751000D01*
X95509000Y-53711000D02*
X92926000Y-53711000D01*
X100574000Y-53711000D02*
X97991000Y-53711000D01*
X95509000Y-53671000D02*
X92892000Y-53671000D01*
X100608000Y-53671000D02*
X97991000Y-53671000D01*
X95509000Y-53631000D02*
X92858000Y-53631000D01*
X100642000Y-53631000D02*
X97991000Y-53631000D01*
X95509000Y-53591000D02*
X92825000Y-53591000D01*
X100675000Y-53591000D02*
X97991000Y-53591000D01*
X95509000Y-53551000D02*
X92793000Y-53551000D01*
X100707000Y-53551000D02*
X97991000Y-53551000D01*
X95509000Y-53511000D02*
X92761000Y-53511000D01*
X100739000Y-53511000D02*
X97991000Y-53511000D01*
X95509000Y-53471000D02*
X92730000Y-53471000D01*
X100770000Y-53471000D02*
X97991000Y-53471000D01*
X95509000Y-53431000D02*
X92700000Y-53431000D01*
X100800000Y-53431000D02*
X97991000Y-53431000D01*
X95509000Y-53391000D02*
X92670000Y-53391000D01*
X100830000Y-53391000D02*
X97991000Y-53391000D01*
X95509000Y-53351000D02*
X92640000Y-53351000D01*
X100860000Y-53351000D02*
X97991000Y-53351000D01*
X95509000Y-53311000D02*
X92612000Y-53311000D01*
X100888000Y-53311000D02*
X97991000Y-53311000D01*
X95509000Y-53271000D02*
X92584000Y-53271000D01*
X100916000Y-53271000D02*
X97991000Y-53271000D01*
X95509000Y-53231000D02*
X92556000Y-53231000D01*
X100944000Y-53231000D02*
X97991000Y-53231000D01*
X95509000Y-53191000D02*
X92529000Y-53191000D01*
X100971000Y-53191000D02*
X97991000Y-53191000D01*
X95509000Y-53151000D02*
X92503000Y-53151000D01*
X100997000Y-53151000D02*
X97991000Y-53151000D01*
X95509000Y-53111000D02*
X92477000Y-53111000D01*
X101023000Y-53111000D02*
X97991000Y-53111000D01*
X95509000Y-53071000D02*
X92452000Y-53071000D01*
X101048000Y-53071000D02*
X97991000Y-53071000D01*
X95509000Y-53031000D02*
X92427000Y-53031000D01*
X101073000Y-53031000D02*
X97991000Y-53031000D01*
X95509000Y-52991000D02*
X92403000Y-52991000D01*
X101097000Y-52991000D02*
X97991000Y-52991000D01*
X95509000Y-52951000D02*
X92379000Y-52951000D01*
X101121000Y-52951000D02*
X97991000Y-52951000D01*
X95509000Y-52911000D02*
X92355000Y-52911000D01*
X101145000Y-52911000D02*
X97991000Y-52911000D01*
X95509000Y-52871000D02*
X92333000Y-52871000D01*
X101167000Y-52871000D02*
X97991000Y-52871000D01*
X95509000Y-52831000D02*
X92310000Y-52831000D01*
X101190000Y-52831000D02*
X97991000Y-52831000D01*
X95509000Y-52791000D02*
X92288000Y-52791000D01*
X101212000Y-52791000D02*
X97991000Y-52791000D01*
X95509000Y-52751000D02*
X92267000Y-52751000D01*
X101233000Y-52751000D02*
X97991000Y-52751000D01*
X95509000Y-52711000D02*
X92246000Y-52711000D01*
X101254000Y-52711000D02*
X97991000Y-52711000D01*
X95509000Y-52671000D02*
X92225000Y-52671000D01*
X101275000Y-52671000D02*
X97991000Y-52671000D01*
X95509000Y-52631000D02*
X92205000Y-52631000D01*
X101295000Y-52631000D02*
X97991000Y-52631000D01*
X95509000Y-52591000D02*
X92186000Y-52591000D01*
X101314000Y-52591000D02*
X97991000Y-52591000D01*
X95509000Y-52551000D02*
X92166000Y-52551000D01*
X101334000Y-52551000D02*
X97991000Y-52551000D01*
X95509000Y-52511000D02*
X92147000Y-52511000D01*
X101353000Y-52511000D02*
X97991000Y-52511000D01*
X95509000Y-52471000D02*
X92129000Y-52471000D01*
X101371000Y-52471000D02*
X97991000Y-52471000D01*
X95509000Y-52431000D02*
X92111000Y-52431000D01*
X101389000Y-52431000D02*
X97991000Y-52431000D01*
X95509000Y-52391000D02*
X92093000Y-52391000D01*
X101407000Y-52391000D02*
X97991000Y-52391000D01*
X95509000Y-52351000D02*
X92076000Y-52351000D01*
X101424000Y-52351000D02*
X97991000Y-52351000D01*
X95509000Y-52311000D02*
X92060000Y-52311000D01*
X101440000Y-52311000D02*
X97991000Y-52311000D01*
X95509000Y-52271000D02*
X92043000Y-52271000D01*
X101457000Y-52271000D02*
X97991000Y-52271000D01*
X95509000Y-52231000D02*
X92027000Y-52231000D01*
X101473000Y-52231000D02*
X97991000Y-52231000D01*
X95509000Y-52191000D02*
X92012000Y-52191000D01*
X101488000Y-52191000D02*
X97991000Y-52191000D01*
X95509000Y-52151000D02*
X91996000Y-52151000D01*
X101504000Y-52151000D02*
X97991000Y-52151000D01*
X95509000Y-52111000D02*
X91982000Y-52111000D01*
X101518000Y-52111000D02*
X97991000Y-52111000D01*
X95509000Y-52071000D02*
X91967000Y-52071000D01*
X101533000Y-52071000D02*
X97991000Y-52071000D01*
X95509000Y-52031000D02*
X91953000Y-52031000D01*
X101547000Y-52031000D02*
X97991000Y-52031000D01*
X95509000Y-51991000D02*
X91939000Y-51991000D01*
X101561000Y-51991000D02*
X97991000Y-51991000D01*
X95509000Y-51951000D02*
X91926000Y-51951000D01*
X101574000Y-51951000D02*
X97991000Y-51951000D01*
X95509000Y-51911000D02*
X91913000Y-51911000D01*
X101587000Y-51911000D02*
X97991000Y-51911000D01*
X95509000Y-51871000D02*
X91900000Y-51871000D01*
X101600000Y-51871000D02*
X97991000Y-51871000D01*
X95509000Y-51831000D02*
X91888000Y-51831000D01*
X101612000Y-51831000D02*
X97991000Y-51831000D01*
X95509000Y-51791000D02*
X91876000Y-51791000D01*
X101624000Y-51791000D02*
X97991000Y-51791000D01*
X95509000Y-51751000D02*
X91865000Y-51751000D01*
X101635000Y-51751000D02*
X97991000Y-51751000D01*
X95509000Y-51711000D02*
X91853000Y-51711000D01*
X101647000Y-51711000D02*
X97991000Y-51711000D01*
X95509000Y-51671000D02*
X91843000Y-51671000D01*
X101657000Y-51671000D02*
X97991000Y-51671000D01*
X95509000Y-51631000D02*
X91832000Y-51631000D01*
X101668000Y-51631000D02*
X97991000Y-51631000D01*
X101678000Y-51591000D02*
X91822000Y-51591000D01*
X101688000Y-51551000D02*
X91812000Y-51551000D01*
X101697000Y-51511000D02*
X91803000Y-51511000D01*
X101706000Y-51471000D02*
X91794000Y-51471000D01*
X101715000Y-51431000D02*
X91785000Y-51431000D01*
X101724000Y-51391000D02*
X91776000Y-51391000D01*
X101732000Y-51351000D02*
X91768000Y-51351000D01*
X101740000Y-51311000D02*
X91760000Y-51311000D01*
X101747000Y-51271000D02*
X91753000Y-51271000D01*
X101754000Y-51231000D02*
X91746000Y-51231000D01*
X101761000Y-51191000D02*
X91739000Y-51191000D01*
X101768000Y-51151000D02*
X91732000Y-51151000D01*
X101774000Y-51111000D02*
X91726000Y-51111000D01*
X101780000Y-51071000D02*
X91720000Y-51071000D01*
X101785000Y-51030000D02*
X91715000Y-51030000D01*
X101790000Y-50990000D02*
X91710000Y-50990000D01*
X101795000Y-50950000D02*
X91705000Y-50950000D01*
X101800000Y-50910000D02*
X91700000Y-50910000D01*
X101804000Y-50870000D02*
X91696000Y-50870000D01*
X101808000Y-50830000D02*
X91692000Y-50830000D01*
X101812000Y-50790000D02*
X91688000Y-50790000D01*
X101815000Y-50750000D02*
X91685000Y-50750000D01*
X101818000Y-50710000D02*
X91682000Y-50710000D01*
X101820000Y-50670000D02*
X91680000Y-50670000D01*
X101823000Y-50630000D02*
X91677000Y-50630000D01*
X101825000Y-50590000D02*
X91675000Y-50590000D01*
X101827000Y-50550000D02*
X91673000Y-50550000D01*
X101828000Y-50510000D02*
X91672000Y-50510000D01*
X101829000Y-50470000D02*
X91671000Y-50470000D01*
X101830000Y-50430000D02*
X91670000Y-50430000D01*
X101830000Y-50390000D02*
X91670000Y-50390000D01*
X101830000Y-50350000D02*
X91670000Y-50350000D01*
X101870000Y-50350000D02*
G75*
G03X101870000Y-50350000I-5120000J0D01*
G01*
X82575000Y-44529646D02*
X83575000Y-44529646D01*
X83075000Y-45029646D02*
X83075000Y-44029646D01*
X85351000Y-34469000D02*
X86549000Y-34469000D01*
X85088000Y-34509000D02*
X86812000Y-34509000D01*
X84888000Y-34549000D02*
X87012000Y-34549000D01*
X84720000Y-34589000D02*
X87180000Y-34589000D01*
X84572000Y-34629000D02*
X87328000Y-34629000D01*
X84440000Y-34669000D02*
X87460000Y-34669000D01*
X84320000Y-34709000D02*
X87580000Y-34709000D01*
X84208000Y-34749000D02*
X87692000Y-34749000D01*
X84104000Y-34789000D02*
X87796000Y-34789000D01*
X84006000Y-34829000D02*
X87894000Y-34829000D01*
X83913000Y-34869000D02*
X87987000Y-34869000D01*
X83825000Y-34909000D02*
X88075000Y-34909000D01*
X83741000Y-34949000D02*
X88159000Y-34949000D01*
X83661000Y-34989000D02*
X88239000Y-34989000D01*
X83585000Y-35029000D02*
X88315000Y-35029000D01*
X83511000Y-35069000D02*
X88389000Y-35069000D01*
X83440000Y-35109000D02*
X88460000Y-35109000D01*
X83371000Y-35149000D02*
X88529000Y-35149000D01*
X83305000Y-35189000D02*
X88595000Y-35189000D01*
X83241000Y-35229000D02*
X88659000Y-35229000D01*
X83180000Y-35269000D02*
X88720000Y-35269000D01*
X83120000Y-35309000D02*
X88780000Y-35309000D01*
X83061000Y-35349000D02*
X88839000Y-35349000D01*
X83005000Y-35389000D02*
X88895000Y-35389000D01*
X82950000Y-35429000D02*
X88950000Y-35429000D01*
X82896000Y-35469000D02*
X89004000Y-35469000D01*
X82844000Y-35509000D02*
X89056000Y-35509000D01*
X82794000Y-35549000D02*
X89106000Y-35549000D01*
X82744000Y-35589000D02*
X89156000Y-35589000D01*
X82696000Y-35629000D02*
X89204000Y-35629000D01*
X82649000Y-35669000D02*
X89251000Y-35669000D01*
X82603000Y-35709000D02*
X89297000Y-35709000D01*
X82558000Y-35749000D02*
X89342000Y-35749000D01*
X82514000Y-35789000D02*
X89386000Y-35789000D01*
X87191000Y-35829000D02*
X89428000Y-35829000D01*
X82472000Y-35829000D02*
X84709000Y-35829000D01*
X87191000Y-35869000D02*
X89470000Y-35869000D01*
X82430000Y-35869000D02*
X84709000Y-35869000D01*
X87191000Y-35909000D02*
X89511000Y-35909000D01*
X82389000Y-35909000D02*
X84709000Y-35909000D01*
X87191000Y-35949000D02*
X89551000Y-35949000D01*
X82349000Y-35949000D02*
X84709000Y-35949000D01*
X87191000Y-35989000D02*
X89590000Y-35989000D01*
X82310000Y-35989000D02*
X84709000Y-35989000D01*
X87191000Y-36029000D02*
X89629000Y-36029000D01*
X82271000Y-36029000D02*
X84709000Y-36029000D01*
X87191000Y-36069000D02*
X89666000Y-36069000D01*
X82234000Y-36069000D02*
X84709000Y-36069000D01*
X87191000Y-36109000D02*
X89703000Y-36109000D01*
X82197000Y-36109000D02*
X84709000Y-36109000D01*
X87191000Y-36149000D02*
X89739000Y-36149000D01*
X82161000Y-36149000D02*
X84709000Y-36149000D01*
X87191000Y-36189000D02*
X89774000Y-36189000D01*
X82126000Y-36189000D02*
X84709000Y-36189000D01*
X87191000Y-36229000D02*
X89808000Y-36229000D01*
X82092000Y-36229000D02*
X84709000Y-36229000D01*
X87191000Y-36269000D02*
X89842000Y-36269000D01*
X82058000Y-36269000D02*
X84709000Y-36269000D01*
X87191000Y-36309000D02*
X89875000Y-36309000D01*
X82025000Y-36309000D02*
X84709000Y-36309000D01*
X87191000Y-36349000D02*
X89907000Y-36349000D01*
X81993000Y-36349000D02*
X84709000Y-36349000D01*
X87191000Y-36389000D02*
X89939000Y-36389000D01*
X81961000Y-36389000D02*
X84709000Y-36389000D01*
X87191000Y-36429000D02*
X89970000Y-36429000D01*
X81930000Y-36429000D02*
X84709000Y-36429000D01*
X87191000Y-36469000D02*
X90000000Y-36469000D01*
X81900000Y-36469000D02*
X84709000Y-36469000D01*
X87191000Y-36509000D02*
X90030000Y-36509000D01*
X81870000Y-36509000D02*
X84709000Y-36509000D01*
X87191000Y-36549000D02*
X90060000Y-36549000D01*
X81840000Y-36549000D02*
X84709000Y-36549000D01*
X87191000Y-36589000D02*
X90088000Y-36589000D01*
X81812000Y-36589000D02*
X84709000Y-36589000D01*
X87191000Y-36629000D02*
X90116000Y-36629000D01*
X81784000Y-36629000D02*
X84709000Y-36629000D01*
X87191000Y-36669000D02*
X90144000Y-36669000D01*
X81756000Y-36669000D02*
X84709000Y-36669000D01*
X87191000Y-36709000D02*
X90171000Y-36709000D01*
X81729000Y-36709000D02*
X84709000Y-36709000D01*
X87191000Y-36749000D02*
X90197000Y-36749000D01*
X81703000Y-36749000D02*
X84709000Y-36749000D01*
X87191000Y-36789000D02*
X90223000Y-36789000D01*
X81677000Y-36789000D02*
X84709000Y-36789000D01*
X87191000Y-36829000D02*
X90248000Y-36829000D01*
X81652000Y-36829000D02*
X84709000Y-36829000D01*
X87191000Y-36869000D02*
X90273000Y-36869000D01*
X81627000Y-36869000D02*
X84709000Y-36869000D01*
X87191000Y-36909000D02*
X90297000Y-36909000D01*
X81603000Y-36909000D02*
X84709000Y-36909000D01*
X87191000Y-36949000D02*
X90321000Y-36949000D01*
X81579000Y-36949000D02*
X84709000Y-36949000D01*
X87191000Y-36989000D02*
X90345000Y-36989000D01*
X81555000Y-36989000D02*
X84709000Y-36989000D01*
X87191000Y-37029000D02*
X90367000Y-37029000D01*
X81533000Y-37029000D02*
X84709000Y-37029000D01*
X87191000Y-37069000D02*
X90390000Y-37069000D01*
X81510000Y-37069000D02*
X84709000Y-37069000D01*
X87191000Y-37109000D02*
X90412000Y-37109000D01*
X81488000Y-37109000D02*
X84709000Y-37109000D01*
X87191000Y-37149000D02*
X90433000Y-37149000D01*
X81467000Y-37149000D02*
X84709000Y-37149000D01*
X87191000Y-37189000D02*
X90454000Y-37189000D01*
X81446000Y-37189000D02*
X84709000Y-37189000D01*
X87191000Y-37229000D02*
X90475000Y-37229000D01*
X81425000Y-37229000D02*
X84709000Y-37229000D01*
X87191000Y-37269000D02*
X90495000Y-37269000D01*
X81405000Y-37269000D02*
X84709000Y-37269000D01*
X87191000Y-37309000D02*
X90514000Y-37309000D01*
X81386000Y-37309000D02*
X84709000Y-37309000D01*
X87191000Y-37349000D02*
X90534000Y-37349000D01*
X81366000Y-37349000D02*
X84709000Y-37349000D01*
X87191000Y-37389000D02*
X90553000Y-37389000D01*
X81347000Y-37389000D02*
X84709000Y-37389000D01*
X87191000Y-37429000D02*
X90571000Y-37429000D01*
X81329000Y-37429000D02*
X84709000Y-37429000D01*
X87191000Y-37469000D02*
X90589000Y-37469000D01*
X81311000Y-37469000D02*
X84709000Y-37469000D01*
X87191000Y-37509000D02*
X90607000Y-37509000D01*
X81293000Y-37509000D02*
X84709000Y-37509000D01*
X87191000Y-37549000D02*
X90624000Y-37549000D01*
X81276000Y-37549000D02*
X84709000Y-37549000D01*
X87191000Y-37589000D02*
X90640000Y-37589000D01*
X81260000Y-37589000D02*
X84709000Y-37589000D01*
X87191000Y-37629000D02*
X90657000Y-37629000D01*
X81243000Y-37629000D02*
X84709000Y-37629000D01*
X87191000Y-37669000D02*
X90673000Y-37669000D01*
X81227000Y-37669000D02*
X84709000Y-37669000D01*
X87191000Y-37709000D02*
X90688000Y-37709000D01*
X81212000Y-37709000D02*
X84709000Y-37709000D01*
X87191000Y-37749000D02*
X90704000Y-37749000D01*
X81196000Y-37749000D02*
X84709000Y-37749000D01*
X87191000Y-37789000D02*
X90718000Y-37789000D01*
X81182000Y-37789000D02*
X84709000Y-37789000D01*
X87191000Y-37829000D02*
X90733000Y-37829000D01*
X81167000Y-37829000D02*
X84709000Y-37829000D01*
X87191000Y-37869000D02*
X90747000Y-37869000D01*
X81153000Y-37869000D02*
X84709000Y-37869000D01*
X87191000Y-37909000D02*
X90761000Y-37909000D01*
X81139000Y-37909000D02*
X84709000Y-37909000D01*
X87191000Y-37949000D02*
X90774000Y-37949000D01*
X81126000Y-37949000D02*
X84709000Y-37949000D01*
X87191000Y-37989000D02*
X90787000Y-37989000D01*
X81113000Y-37989000D02*
X84709000Y-37989000D01*
X87191000Y-38029000D02*
X90800000Y-38029000D01*
X81100000Y-38029000D02*
X84709000Y-38029000D01*
X87191000Y-38069000D02*
X90812000Y-38069000D01*
X81088000Y-38069000D02*
X84709000Y-38069000D01*
X87191000Y-38109000D02*
X90824000Y-38109000D01*
X81076000Y-38109000D02*
X84709000Y-38109000D01*
X87191000Y-38149000D02*
X90835000Y-38149000D01*
X81065000Y-38149000D02*
X84709000Y-38149000D01*
X87191000Y-38189000D02*
X90847000Y-38189000D01*
X81053000Y-38189000D02*
X84709000Y-38189000D01*
X87191000Y-38229000D02*
X90857000Y-38229000D01*
X81043000Y-38229000D02*
X84709000Y-38229000D01*
X87191000Y-38269000D02*
X90868000Y-38269000D01*
X81032000Y-38269000D02*
X84709000Y-38269000D01*
X81022000Y-38309000D02*
X90878000Y-38309000D01*
X81012000Y-38349000D02*
X90888000Y-38349000D01*
X81003000Y-38389000D02*
X90897000Y-38389000D01*
X80994000Y-38429000D02*
X90906000Y-38429000D01*
X80985000Y-38469000D02*
X90915000Y-38469000D01*
X80976000Y-38509000D02*
X90924000Y-38509000D01*
X80968000Y-38549000D02*
X90932000Y-38549000D01*
X80960000Y-38589000D02*
X90940000Y-38589000D01*
X80953000Y-38629000D02*
X90947000Y-38629000D01*
X80946000Y-38669000D02*
X90954000Y-38669000D01*
X80939000Y-38709000D02*
X90961000Y-38709000D01*
X80932000Y-38749000D02*
X90968000Y-38749000D01*
X80926000Y-38789000D02*
X90974000Y-38789000D01*
X80920000Y-38829000D02*
X90980000Y-38829000D01*
X80915000Y-38870000D02*
X90985000Y-38870000D01*
X80910000Y-38910000D02*
X90990000Y-38910000D01*
X80905000Y-38950000D02*
X90995000Y-38950000D01*
X80900000Y-38990000D02*
X91000000Y-38990000D01*
X80896000Y-39030000D02*
X91004000Y-39030000D01*
X80892000Y-39070000D02*
X91008000Y-39070000D01*
X80888000Y-39110000D02*
X91012000Y-39110000D01*
X80885000Y-39150000D02*
X91015000Y-39150000D01*
X80882000Y-39190000D02*
X91018000Y-39190000D01*
X80880000Y-39230000D02*
X91020000Y-39230000D01*
X80877000Y-39270000D02*
X91023000Y-39270000D01*
X80875000Y-39310000D02*
X91025000Y-39310000D01*
X80873000Y-39350000D02*
X91027000Y-39350000D01*
X80872000Y-39390000D02*
X91028000Y-39390000D01*
X80871000Y-39430000D02*
X91029000Y-39430000D01*
X80870000Y-39470000D02*
X91030000Y-39470000D01*
X80870000Y-39510000D02*
X91030000Y-39510000D01*
X80870000Y-39550000D02*
X91030000Y-39550000D01*
X91070000Y-39550000D02*
G75*
G03X91070000Y-39550000I-5120000J0D01*
G01*
X89375000Y-45370354D02*
X88375000Y-45370354D01*
X88875000Y-44870354D02*
X88875000Y-45870354D01*
X86599000Y-55431000D02*
X85401000Y-55431000D01*
X86862000Y-55391000D02*
X85138000Y-55391000D01*
X87062000Y-55351000D02*
X84938000Y-55351000D01*
X87230000Y-55311000D02*
X84770000Y-55311000D01*
X87378000Y-55271000D02*
X84622000Y-55271000D01*
X87510000Y-55231000D02*
X84490000Y-55231000D01*
X87630000Y-55191000D02*
X84370000Y-55191000D01*
X87742000Y-55151000D02*
X84258000Y-55151000D01*
X87846000Y-55111000D02*
X84154000Y-55111000D01*
X87944000Y-55071000D02*
X84056000Y-55071000D01*
X88037000Y-55031000D02*
X83963000Y-55031000D01*
X88125000Y-54991000D02*
X83875000Y-54991000D01*
X88209000Y-54951000D02*
X83791000Y-54951000D01*
X88289000Y-54911000D02*
X83711000Y-54911000D01*
X88365000Y-54871000D02*
X83635000Y-54871000D01*
X88439000Y-54831000D02*
X83561000Y-54831000D01*
X88510000Y-54791000D02*
X83490000Y-54791000D01*
X88579000Y-54751000D02*
X83421000Y-54751000D01*
X88645000Y-54711000D02*
X83355000Y-54711000D01*
X88709000Y-54671000D02*
X83291000Y-54671000D01*
X88770000Y-54631000D02*
X83230000Y-54631000D01*
X88830000Y-54591000D02*
X83170000Y-54591000D01*
X88889000Y-54551000D02*
X83111000Y-54551000D01*
X88945000Y-54511000D02*
X83055000Y-54511000D01*
X89000000Y-54471000D02*
X83000000Y-54471000D01*
X89054000Y-54431000D02*
X82946000Y-54431000D01*
X89106000Y-54391000D02*
X82894000Y-54391000D01*
X89156000Y-54351000D02*
X82844000Y-54351000D01*
X89206000Y-54311000D02*
X82794000Y-54311000D01*
X89254000Y-54271000D02*
X82746000Y-54271000D01*
X89301000Y-54231000D02*
X82699000Y-54231000D01*
X89347000Y-54191000D02*
X82653000Y-54191000D01*
X89392000Y-54151000D02*
X82608000Y-54151000D01*
X89436000Y-54111000D02*
X82564000Y-54111000D01*
X84759000Y-54071000D02*
X82522000Y-54071000D01*
X89478000Y-54071000D02*
X87241000Y-54071000D01*
X84759000Y-54031000D02*
X82480000Y-54031000D01*
X89520000Y-54031000D02*
X87241000Y-54031000D01*
X84759000Y-53991000D02*
X82439000Y-53991000D01*
X89561000Y-53991000D02*
X87241000Y-53991000D01*
X84759000Y-53951000D02*
X82399000Y-53951000D01*
X89601000Y-53951000D02*
X87241000Y-53951000D01*
X84759000Y-53911000D02*
X82360000Y-53911000D01*
X89640000Y-53911000D02*
X87241000Y-53911000D01*
X84759000Y-53871000D02*
X82321000Y-53871000D01*
X89679000Y-53871000D02*
X87241000Y-53871000D01*
X84759000Y-53831000D02*
X82284000Y-53831000D01*
X89716000Y-53831000D02*
X87241000Y-53831000D01*
X84759000Y-53791000D02*
X82247000Y-53791000D01*
X89753000Y-53791000D02*
X87241000Y-53791000D01*
X84759000Y-53751000D02*
X82211000Y-53751000D01*
X89789000Y-53751000D02*
X87241000Y-53751000D01*
X84759000Y-53711000D02*
X82176000Y-53711000D01*
X89824000Y-53711000D02*
X87241000Y-53711000D01*
X84759000Y-53671000D02*
X82142000Y-53671000D01*
X89858000Y-53671000D02*
X87241000Y-53671000D01*
X84759000Y-53631000D02*
X82108000Y-53631000D01*
X89892000Y-53631000D02*
X87241000Y-53631000D01*
X84759000Y-53591000D02*
X82075000Y-53591000D01*
X89925000Y-53591000D02*
X87241000Y-53591000D01*
X84759000Y-53551000D02*
X82043000Y-53551000D01*
X89957000Y-53551000D02*
X87241000Y-53551000D01*
X84759000Y-53511000D02*
X82011000Y-53511000D01*
X89989000Y-53511000D02*
X87241000Y-53511000D01*
X84759000Y-53471000D02*
X81980000Y-53471000D01*
X90020000Y-53471000D02*
X87241000Y-53471000D01*
X84759000Y-53431000D02*
X81950000Y-53431000D01*
X90050000Y-53431000D02*
X87241000Y-53431000D01*
X84759000Y-53391000D02*
X81920000Y-53391000D01*
X90080000Y-53391000D02*
X87241000Y-53391000D01*
X84759000Y-53351000D02*
X81890000Y-53351000D01*
X90110000Y-53351000D02*
X87241000Y-53351000D01*
X84759000Y-53311000D02*
X81862000Y-53311000D01*
X90138000Y-53311000D02*
X87241000Y-53311000D01*
X84759000Y-53271000D02*
X81834000Y-53271000D01*
X90166000Y-53271000D02*
X87241000Y-53271000D01*
X84759000Y-53231000D02*
X81806000Y-53231000D01*
X90194000Y-53231000D02*
X87241000Y-53231000D01*
X84759000Y-53191000D02*
X81779000Y-53191000D01*
X90221000Y-53191000D02*
X87241000Y-53191000D01*
X84759000Y-53151000D02*
X81753000Y-53151000D01*
X90247000Y-53151000D02*
X87241000Y-53151000D01*
X84759000Y-53111000D02*
X81727000Y-53111000D01*
X90273000Y-53111000D02*
X87241000Y-53111000D01*
X84759000Y-53071000D02*
X81702000Y-53071000D01*
X90298000Y-53071000D02*
X87241000Y-53071000D01*
X84759000Y-53031000D02*
X81677000Y-53031000D01*
X90323000Y-53031000D02*
X87241000Y-53031000D01*
X84759000Y-52991000D02*
X81653000Y-52991000D01*
X90347000Y-52991000D02*
X87241000Y-52991000D01*
X84759000Y-52951000D02*
X81629000Y-52951000D01*
X90371000Y-52951000D02*
X87241000Y-52951000D01*
X84759000Y-52911000D02*
X81605000Y-52911000D01*
X90395000Y-52911000D02*
X87241000Y-52911000D01*
X84759000Y-52871000D02*
X81583000Y-52871000D01*
X90417000Y-52871000D02*
X87241000Y-52871000D01*
X84759000Y-52831000D02*
X81560000Y-52831000D01*
X90440000Y-52831000D02*
X87241000Y-52831000D01*
X84759000Y-52791000D02*
X81538000Y-52791000D01*
X90462000Y-52791000D02*
X87241000Y-52791000D01*
X84759000Y-52751000D02*
X81517000Y-52751000D01*
X90483000Y-52751000D02*
X87241000Y-52751000D01*
X84759000Y-52711000D02*
X81496000Y-52711000D01*
X90504000Y-52711000D02*
X87241000Y-52711000D01*
X84759000Y-52671000D02*
X81475000Y-52671000D01*
X90525000Y-52671000D02*
X87241000Y-52671000D01*
X84759000Y-52631000D02*
X81455000Y-52631000D01*
X90545000Y-52631000D02*
X87241000Y-52631000D01*
X84759000Y-52591000D02*
X81436000Y-52591000D01*
X90564000Y-52591000D02*
X87241000Y-52591000D01*
X84759000Y-52551000D02*
X81416000Y-52551000D01*
X90584000Y-52551000D02*
X87241000Y-52551000D01*
X84759000Y-52511000D02*
X81397000Y-52511000D01*
X90603000Y-52511000D02*
X87241000Y-52511000D01*
X84759000Y-52471000D02*
X81379000Y-52471000D01*
X90621000Y-52471000D02*
X87241000Y-52471000D01*
X84759000Y-52431000D02*
X81361000Y-52431000D01*
X90639000Y-52431000D02*
X87241000Y-52431000D01*
X84759000Y-52391000D02*
X81343000Y-52391000D01*
X90657000Y-52391000D02*
X87241000Y-52391000D01*
X84759000Y-52351000D02*
X81326000Y-52351000D01*
X90674000Y-52351000D02*
X87241000Y-52351000D01*
X84759000Y-52311000D02*
X81310000Y-52311000D01*
X90690000Y-52311000D02*
X87241000Y-52311000D01*
X84759000Y-52271000D02*
X81293000Y-52271000D01*
X90707000Y-52271000D02*
X87241000Y-52271000D01*
X84759000Y-52231000D02*
X81277000Y-52231000D01*
X90723000Y-52231000D02*
X87241000Y-52231000D01*
X84759000Y-52191000D02*
X81262000Y-52191000D01*
X90738000Y-52191000D02*
X87241000Y-52191000D01*
X84759000Y-52151000D02*
X81246000Y-52151000D01*
X90754000Y-52151000D02*
X87241000Y-52151000D01*
X84759000Y-52111000D02*
X81232000Y-52111000D01*
X90768000Y-52111000D02*
X87241000Y-52111000D01*
X84759000Y-52071000D02*
X81217000Y-52071000D01*
X90783000Y-52071000D02*
X87241000Y-52071000D01*
X84759000Y-52031000D02*
X81203000Y-52031000D01*
X90797000Y-52031000D02*
X87241000Y-52031000D01*
X84759000Y-51991000D02*
X81189000Y-51991000D01*
X90811000Y-51991000D02*
X87241000Y-51991000D01*
X84759000Y-51951000D02*
X81176000Y-51951000D01*
X90824000Y-51951000D02*
X87241000Y-51951000D01*
X84759000Y-51911000D02*
X81163000Y-51911000D01*
X90837000Y-51911000D02*
X87241000Y-51911000D01*
X84759000Y-51871000D02*
X81150000Y-51871000D01*
X90850000Y-51871000D02*
X87241000Y-51871000D01*
X84759000Y-51831000D02*
X81138000Y-51831000D01*
X90862000Y-51831000D02*
X87241000Y-51831000D01*
X84759000Y-51791000D02*
X81126000Y-51791000D01*
X90874000Y-51791000D02*
X87241000Y-51791000D01*
X84759000Y-51751000D02*
X81115000Y-51751000D01*
X90885000Y-51751000D02*
X87241000Y-51751000D01*
X84759000Y-51711000D02*
X81103000Y-51711000D01*
X90897000Y-51711000D02*
X87241000Y-51711000D01*
X84759000Y-51671000D02*
X81093000Y-51671000D01*
X90907000Y-51671000D02*
X87241000Y-51671000D01*
X84759000Y-51631000D02*
X81082000Y-51631000D01*
X90918000Y-51631000D02*
X87241000Y-51631000D01*
X90928000Y-51591000D02*
X81072000Y-51591000D01*
X90938000Y-51551000D02*
X81062000Y-51551000D01*
X90947000Y-51511000D02*
X81053000Y-51511000D01*
X90956000Y-51471000D02*
X81044000Y-51471000D01*
X90965000Y-51431000D02*
X81035000Y-51431000D01*
X90974000Y-51391000D02*
X81026000Y-51391000D01*
X90982000Y-51351000D02*
X81018000Y-51351000D01*
X90990000Y-51311000D02*
X81010000Y-51311000D01*
X90997000Y-51271000D02*
X81003000Y-51271000D01*
X91004000Y-51231000D02*
X80996000Y-51231000D01*
X91011000Y-51191000D02*
X80989000Y-51191000D01*
X91018000Y-51151000D02*
X80982000Y-51151000D01*
X91024000Y-51111000D02*
X80976000Y-51111000D01*
X91030000Y-51071000D02*
X80970000Y-51071000D01*
X91035000Y-51030000D02*
X80965000Y-51030000D01*
X91040000Y-50990000D02*
X80960000Y-50990000D01*
X91045000Y-50950000D02*
X80955000Y-50950000D01*
X91050000Y-50910000D02*
X80950000Y-50910000D01*
X91054000Y-50870000D02*
X80946000Y-50870000D01*
X91058000Y-50830000D02*
X80942000Y-50830000D01*
X91062000Y-50790000D02*
X80938000Y-50790000D01*
X91065000Y-50750000D02*
X80935000Y-50750000D01*
X91068000Y-50710000D02*
X80932000Y-50710000D01*
X91070000Y-50670000D02*
X80930000Y-50670000D01*
X91073000Y-50630000D02*
X80927000Y-50630000D01*
X91075000Y-50590000D02*
X80925000Y-50590000D01*
X91077000Y-50550000D02*
X80923000Y-50550000D01*
X91078000Y-50510000D02*
X80922000Y-50510000D01*
X91079000Y-50470000D02*
X80921000Y-50470000D01*
X91080000Y-50430000D02*
X80920000Y-50430000D01*
X91080000Y-50390000D02*
X80920000Y-50390000D01*
X91080000Y-50350000D02*
X80920000Y-50350000D01*
X91120000Y-50350000D02*
G75*
G03X91120000Y-50350000I-5120000J0D01*
G01*
X93325000Y-44529646D02*
X94325000Y-44529646D01*
X93825000Y-45029646D02*
X93825000Y-44029646D01*
X96101000Y-34469000D02*
X97299000Y-34469000D01*
X95838000Y-34509000D02*
X97562000Y-34509000D01*
X95638000Y-34549000D02*
X97762000Y-34549000D01*
X95470000Y-34589000D02*
X97930000Y-34589000D01*
X95322000Y-34629000D02*
X98078000Y-34629000D01*
X95190000Y-34669000D02*
X98210000Y-34669000D01*
X95070000Y-34709000D02*
X98330000Y-34709000D01*
X94958000Y-34749000D02*
X98442000Y-34749000D01*
X94854000Y-34789000D02*
X98546000Y-34789000D01*
X94756000Y-34829000D02*
X98644000Y-34829000D01*
X94663000Y-34869000D02*
X98737000Y-34869000D01*
X94575000Y-34909000D02*
X98825000Y-34909000D01*
X94491000Y-34949000D02*
X98909000Y-34949000D01*
X94411000Y-34989000D02*
X98989000Y-34989000D01*
X94335000Y-35029000D02*
X99065000Y-35029000D01*
X94261000Y-35069000D02*
X99139000Y-35069000D01*
X94190000Y-35109000D02*
X99210000Y-35109000D01*
X94121000Y-35149000D02*
X99279000Y-35149000D01*
X94055000Y-35189000D02*
X99345000Y-35189000D01*
X93991000Y-35229000D02*
X99409000Y-35229000D01*
X93930000Y-35269000D02*
X99470000Y-35269000D01*
X93870000Y-35309000D02*
X99530000Y-35309000D01*
X93811000Y-35349000D02*
X99589000Y-35349000D01*
X93755000Y-35389000D02*
X99645000Y-35389000D01*
X93700000Y-35429000D02*
X99700000Y-35429000D01*
X93646000Y-35469000D02*
X99754000Y-35469000D01*
X93594000Y-35509000D02*
X99806000Y-35509000D01*
X93544000Y-35549000D02*
X99856000Y-35549000D01*
X93494000Y-35589000D02*
X99906000Y-35589000D01*
X93446000Y-35629000D02*
X99954000Y-35629000D01*
X93399000Y-35669000D02*
X100001000Y-35669000D01*
X93353000Y-35709000D02*
X100047000Y-35709000D01*
X93308000Y-35749000D02*
X100092000Y-35749000D01*
X93264000Y-35789000D02*
X100136000Y-35789000D01*
X97941000Y-35829000D02*
X100178000Y-35829000D01*
X93222000Y-35829000D02*
X95459000Y-35829000D01*
X97941000Y-35869000D02*
X100220000Y-35869000D01*
X93180000Y-35869000D02*
X95459000Y-35869000D01*
X97941000Y-35909000D02*
X100261000Y-35909000D01*
X93139000Y-35909000D02*
X95459000Y-35909000D01*
X97941000Y-35949000D02*
X100301000Y-35949000D01*
X93099000Y-35949000D02*
X95459000Y-35949000D01*
X97941000Y-35989000D02*
X100340000Y-35989000D01*
X93060000Y-35989000D02*
X95459000Y-35989000D01*
X97941000Y-36029000D02*
X100379000Y-36029000D01*
X93021000Y-36029000D02*
X95459000Y-36029000D01*
X97941000Y-36069000D02*
X100416000Y-36069000D01*
X92984000Y-36069000D02*
X95459000Y-36069000D01*
X97941000Y-36109000D02*
X100453000Y-36109000D01*
X92947000Y-36109000D02*
X95459000Y-36109000D01*
X97941000Y-36149000D02*
X100489000Y-36149000D01*
X92911000Y-36149000D02*
X95459000Y-36149000D01*
X97941000Y-36189000D02*
X100524000Y-36189000D01*
X92876000Y-36189000D02*
X95459000Y-36189000D01*
X97941000Y-36229000D02*
X100558000Y-36229000D01*
X92842000Y-36229000D02*
X95459000Y-36229000D01*
X97941000Y-36269000D02*
X100592000Y-36269000D01*
X92808000Y-36269000D02*
X95459000Y-36269000D01*
X97941000Y-36309000D02*
X100625000Y-36309000D01*
X92775000Y-36309000D02*
X95459000Y-36309000D01*
X97941000Y-36349000D02*
X100657000Y-36349000D01*
X92743000Y-36349000D02*
X95459000Y-36349000D01*
X97941000Y-36389000D02*
X100689000Y-36389000D01*
X92711000Y-36389000D02*
X95459000Y-36389000D01*
X97941000Y-36429000D02*
X100720000Y-36429000D01*
X92680000Y-36429000D02*
X95459000Y-36429000D01*
X97941000Y-36469000D02*
X100750000Y-36469000D01*
X92650000Y-36469000D02*
X95459000Y-36469000D01*
X97941000Y-36509000D02*
X100780000Y-36509000D01*
X92620000Y-36509000D02*
X95459000Y-36509000D01*
X97941000Y-36549000D02*
X100810000Y-36549000D01*
X92590000Y-36549000D02*
X95459000Y-36549000D01*
X97941000Y-36589000D02*
X100838000Y-36589000D01*
X92562000Y-36589000D02*
X95459000Y-36589000D01*
X97941000Y-36629000D02*
X100866000Y-36629000D01*
X92534000Y-36629000D02*
X95459000Y-36629000D01*
X97941000Y-36669000D02*
X100894000Y-36669000D01*
X92506000Y-36669000D02*
X95459000Y-36669000D01*
X97941000Y-36709000D02*
X100921000Y-36709000D01*
X92479000Y-36709000D02*
X95459000Y-36709000D01*
X97941000Y-36749000D02*
X100947000Y-36749000D01*
X92453000Y-36749000D02*
X95459000Y-36749000D01*
X97941000Y-36789000D02*
X100973000Y-36789000D01*
X92427000Y-36789000D02*
X95459000Y-36789000D01*
X97941000Y-36829000D02*
X100998000Y-36829000D01*
X92402000Y-36829000D02*
X95459000Y-36829000D01*
X97941000Y-36869000D02*
X101023000Y-36869000D01*
X92377000Y-36869000D02*
X95459000Y-36869000D01*
X97941000Y-36909000D02*
X101047000Y-36909000D01*
X92353000Y-36909000D02*
X95459000Y-36909000D01*
X97941000Y-36949000D02*
X101071000Y-36949000D01*
X92329000Y-36949000D02*
X95459000Y-36949000D01*
X97941000Y-36989000D02*
X101095000Y-36989000D01*
X92305000Y-36989000D02*
X95459000Y-36989000D01*
X97941000Y-37029000D02*
X101117000Y-37029000D01*
X92283000Y-37029000D02*
X95459000Y-37029000D01*
X97941000Y-37069000D02*
X101140000Y-37069000D01*
X92260000Y-37069000D02*
X95459000Y-37069000D01*
X97941000Y-37109000D02*
X101162000Y-37109000D01*
X92238000Y-37109000D02*
X95459000Y-37109000D01*
X97941000Y-37149000D02*
X101183000Y-37149000D01*
X92217000Y-37149000D02*
X95459000Y-37149000D01*
X97941000Y-37189000D02*
X101204000Y-37189000D01*
X92196000Y-37189000D02*
X95459000Y-37189000D01*
X97941000Y-37229000D02*
X101225000Y-37229000D01*
X92175000Y-37229000D02*
X95459000Y-37229000D01*
X97941000Y-37269000D02*
X101245000Y-37269000D01*
X92155000Y-37269000D02*
X95459000Y-37269000D01*
X97941000Y-37309000D02*
X101264000Y-37309000D01*
X92136000Y-37309000D02*
X95459000Y-37309000D01*
X97941000Y-37349000D02*
X101284000Y-37349000D01*
X92116000Y-37349000D02*
X95459000Y-37349000D01*
X97941000Y-37389000D02*
X101303000Y-37389000D01*
X92097000Y-37389000D02*
X95459000Y-37389000D01*
X97941000Y-37429000D02*
X101321000Y-37429000D01*
X92079000Y-37429000D02*
X95459000Y-37429000D01*
X97941000Y-37469000D02*
X101339000Y-37469000D01*
X92061000Y-37469000D02*
X95459000Y-37469000D01*
X97941000Y-37509000D02*
X101357000Y-37509000D01*
X92043000Y-37509000D02*
X95459000Y-37509000D01*
X97941000Y-37549000D02*
X101374000Y-37549000D01*
X92026000Y-37549000D02*
X95459000Y-37549000D01*
X97941000Y-37589000D02*
X101390000Y-37589000D01*
X92010000Y-37589000D02*
X95459000Y-37589000D01*
X97941000Y-37629000D02*
X101407000Y-37629000D01*
X91993000Y-37629000D02*
X95459000Y-37629000D01*
X97941000Y-37669000D02*
X101423000Y-37669000D01*
X91977000Y-37669000D02*
X95459000Y-37669000D01*
X97941000Y-37709000D02*
X101438000Y-37709000D01*
X91962000Y-37709000D02*
X95459000Y-37709000D01*
X97941000Y-37749000D02*
X101454000Y-37749000D01*
X91946000Y-37749000D02*
X95459000Y-37749000D01*
X97941000Y-37789000D02*
X101468000Y-37789000D01*
X91932000Y-37789000D02*
X95459000Y-37789000D01*
X97941000Y-37829000D02*
X101483000Y-37829000D01*
X91917000Y-37829000D02*
X95459000Y-37829000D01*
X97941000Y-37869000D02*
X101497000Y-37869000D01*
X91903000Y-37869000D02*
X95459000Y-37869000D01*
X97941000Y-37909000D02*
X101511000Y-37909000D01*
X91889000Y-37909000D02*
X95459000Y-37909000D01*
X97941000Y-37949000D02*
X101524000Y-37949000D01*
X91876000Y-37949000D02*
X95459000Y-37949000D01*
X97941000Y-37989000D02*
X101537000Y-37989000D01*
X91863000Y-37989000D02*
X95459000Y-37989000D01*
X97941000Y-38029000D02*
X101550000Y-38029000D01*
X91850000Y-38029000D02*
X95459000Y-38029000D01*
X97941000Y-38069000D02*
X101562000Y-38069000D01*
X91838000Y-38069000D02*
X95459000Y-38069000D01*
X97941000Y-38109000D02*
X101574000Y-38109000D01*
X91826000Y-38109000D02*
X95459000Y-38109000D01*
X97941000Y-38149000D02*
X101585000Y-38149000D01*
X91815000Y-38149000D02*
X95459000Y-38149000D01*
X97941000Y-38189000D02*
X101597000Y-38189000D01*
X91803000Y-38189000D02*
X95459000Y-38189000D01*
X97941000Y-38229000D02*
X101607000Y-38229000D01*
X91793000Y-38229000D02*
X95459000Y-38229000D01*
X97941000Y-38269000D02*
X101618000Y-38269000D01*
X91782000Y-38269000D02*
X95459000Y-38269000D01*
X91772000Y-38309000D02*
X101628000Y-38309000D01*
X91762000Y-38349000D02*
X101638000Y-38349000D01*
X91753000Y-38389000D02*
X101647000Y-38389000D01*
X91744000Y-38429000D02*
X101656000Y-38429000D01*
X91735000Y-38469000D02*
X101665000Y-38469000D01*
X91726000Y-38509000D02*
X101674000Y-38509000D01*
X91718000Y-38549000D02*
X101682000Y-38549000D01*
X91710000Y-38589000D02*
X101690000Y-38589000D01*
X91703000Y-38629000D02*
X101697000Y-38629000D01*
X91696000Y-38669000D02*
X101704000Y-38669000D01*
X91689000Y-38709000D02*
X101711000Y-38709000D01*
X91682000Y-38749000D02*
X101718000Y-38749000D01*
X91676000Y-38789000D02*
X101724000Y-38789000D01*
X91670000Y-38829000D02*
X101730000Y-38829000D01*
X91665000Y-38870000D02*
X101735000Y-38870000D01*
X91660000Y-38910000D02*
X101740000Y-38910000D01*
X91655000Y-38950000D02*
X101745000Y-38950000D01*
X91650000Y-38990000D02*
X101750000Y-38990000D01*
X91646000Y-39030000D02*
X101754000Y-39030000D01*
X91642000Y-39070000D02*
X101758000Y-39070000D01*
X91638000Y-39110000D02*
X101762000Y-39110000D01*
X91635000Y-39150000D02*
X101765000Y-39150000D01*
X91632000Y-39190000D02*
X101768000Y-39190000D01*
X91630000Y-39230000D02*
X101770000Y-39230000D01*
X91627000Y-39270000D02*
X101773000Y-39270000D01*
X91625000Y-39310000D02*
X101775000Y-39310000D01*
X91623000Y-39350000D02*
X101777000Y-39350000D01*
X91622000Y-39390000D02*
X101778000Y-39390000D01*
X91621000Y-39430000D02*
X101779000Y-39430000D01*
X91620000Y-39470000D02*
X101780000Y-39470000D01*
X91620000Y-39510000D02*
X101780000Y-39510000D01*
X91620000Y-39550000D02*
X101780000Y-39550000D01*
X101820000Y-39550000D02*
G75*
G03X101820000Y-39550000I-5120000J0D01*
G01*
X50094000Y-20422000D02*
X52014000Y-20422000D01*
X50094000Y-28102000D02*
X52014000Y-28102000D01*
X52014000Y-28102000D02*
X52014000Y-20422000D01*
X51894000Y-28102000D02*
X51894000Y-20422000D01*
X51774000Y-28102000D02*
X51774000Y-20422000D01*
X51654000Y-28102000D02*
X51654000Y-20422000D01*
X51534000Y-28102000D02*
X51534000Y-20422000D01*
X51414000Y-28102000D02*
X51414000Y-20422000D01*
X51294000Y-28102000D02*
X51294000Y-20422000D01*
X51174000Y-28102000D02*
X51174000Y-20422000D01*
X51054000Y-28102000D02*
X51054000Y-20422000D01*
X50934000Y-28102000D02*
X50934000Y-20422000D01*
X50814000Y-28102000D02*
X50814000Y-20422000D01*
X50694000Y-28102000D02*
X50694000Y-20422000D01*
X50574000Y-28102000D02*
X50574000Y-20422000D01*
X50454000Y-28102000D02*
X50454000Y-20422000D01*
X50334000Y-28102000D02*
X50334000Y-20422000D01*
X50214000Y-28102000D02*
X50214000Y-20422000D01*
X50094000Y-28102000D02*
X50094000Y-20422000D01*
X53614000Y-17942000D02*
X52834000Y-17942000D01*
X53614000Y-30582000D02*
X53614000Y-17942000D01*
X52834000Y-30582000D02*
X53614000Y-30582000D01*
X48574000Y-17942000D02*
X49354000Y-17942000D01*
X48574000Y-30582000D02*
X48574000Y-17942000D01*
X49354000Y-30582000D02*
X48574000Y-30582000D01*
X72110000Y-1000000D02*
X69310000Y-1000000D01*
X72110000Y-1000000D02*
X72110000Y21600000D01*
X62510000Y-1000000D02*
X62510000Y21600000D01*
X65310000Y-1000000D02*
X62510000Y-1000000D01*
X65310000Y21600000D02*
X62510000Y21600000D01*
X72110000Y21600000D02*
X69310000Y21600000D01*
X83540000Y-1270000D02*
X80740000Y-1270000D01*
X83540000Y-1270000D02*
X83540000Y21330000D01*
X73940000Y-1270000D02*
X73940000Y21330000D01*
X76740000Y-1270000D02*
X73940000Y-1270000D01*
X76740000Y21330000D02*
X73940000Y21330000D01*
X83540000Y21330000D02*
X80740000Y21330000D01*
X15109000Y-40833000D02*
X19009000Y-40833000D01*
X15109000Y-37833000D02*
X19009000Y-37833000D01*
X15109000Y-38633000D02*
X15109000Y-37833000D01*
X15050000Y-44896000D02*
X18950000Y-44896000D01*
X15050000Y-41896000D02*
X18950000Y-41896000D01*
X15050000Y-42696000D02*
X15050000Y-41896000D01*
X2638000Y-10597000D02*
X2638000Y-10997000D01*
X3278000Y-10597000D02*
X2638000Y-10597000D01*
X9618000Y-21698000D02*
X2878000Y-21698000D01*
X9618000Y-10837000D02*
X2878000Y-10837000D01*
X2878000Y-10837000D02*
X2878000Y-21698000D01*
X9618000Y-10837000D02*
X9618000Y-21698000D01*
X8498000Y-10837000D02*
X8498000Y-21698000D01*
X3398000Y-10837000D02*
X3398000Y-21698000D01*
X41840000Y-13554000D02*
X41840000Y17446000D01*
X61840000Y-13554000D02*
X41840000Y-13554000D01*
X61840000Y17446000D02*
X61840000Y-13554000D01*
X41840000Y17446000D02*
X61840000Y17446000D01*
X81170000Y-28550000D02*
X81630000Y-28550000D01*
X81170000Y-28550000D02*
G75*
G03X81170000Y-28550000I-2720000J0D01*
G01*
X12145000Y20880000D02*
X14685000Y20880000D01*
X12145000Y20880000D02*
X12145000Y18340000D01*
X12395000Y20630000D02*
X21745000Y20630000D01*
X12395000Y-230000D02*
X12395000Y20630000D01*
X21745000Y-230000D02*
X12395000Y-230000D01*
X21745000Y20630000D02*
X21745000Y-230000D01*
X36050000Y-21700000D02*
G75*
G02X35350000Y-22400000I-700000J0D01*
G01*
X35350000Y-20400000D02*
G75*
G02X36050000Y-21100000I0J-700000D01*
G01*
X31950000Y-21100000D02*
G75*
G02X32650000Y-20400000I700000J0D01*
G01*
X32650000Y-22400000D02*
G75*
G02X31950000Y-21700000I0J700000D01*
G01*
X35400000Y-22400000D02*
X32600000Y-22400000D01*
X31950000Y-21700000D02*
X31950000Y-21100000D01*
X32600000Y-20400000D02*
X35400000Y-20400000D01*
X36050000Y-21100000D02*
X36050000Y-21700000D01*
X35200000Y-20200000D02*
X35500000Y-19900000D01*
X35500000Y-19900000D02*
X34900000Y-19900000D01*
X35200000Y-20200000D02*
X34900000Y-19900000D01*
D10*
X32108000Y-7985000D02*
X32108000Y-6710000D01*
X32683000Y-18335000D02*
X32683000Y-17660000D01*
X22333000Y-18335000D02*
X22333000Y-17660000D01*
X22333000Y-7985000D02*
X22333000Y-8660000D01*
X32683000Y-7985000D02*
X32683000Y-8660000D01*
X22333000Y-7985000D02*
X23008000Y-7985000D01*
X22333000Y-18335000D02*
X23008000Y-18335000D01*
X32683000Y-18335000D02*
X32008000Y-18335000D01*
X32683000Y-7985000D02*
X32108000Y-7985000D01*
D11*
X16486252Y-1090000D02*
X15963748Y-1090000D01*
X16486252Y-2510000D02*
X15963748Y-2510000D01*
X16486252Y-3090000D02*
X15963748Y-3090000D01*
X16486252Y-4510000D02*
X15963748Y-4510000D01*
X1090000Y710000D02*
X3040000Y710000D01*
X5260000Y710000D02*
X8490000Y710000D01*
X10410000Y-10000D02*
X10410000Y-1090000D01*
X10410000Y-5310000D02*
X10410000Y-6390000D01*
X5260000Y-7110000D02*
X8490000Y-7110000D01*
X1090000Y-7110000D02*
X3040000Y-7110000D01*
X10410000Y-1090000D02*
X10840000Y-1090000D01*
X1090000Y-7110000D02*
X1090000Y710000D01*
X28110000Y-4061252D02*
X28110000Y-3538748D01*
X26690000Y-4061252D02*
X26690000Y-3538748D01*
X35910000Y-17846267D02*
X35910000Y-17503733D01*
X34890000Y-17846267D02*
X34890000Y-17503733D01*
X23184267Y-20290000D02*
X22841733Y-20290000D01*
X23184267Y-21310000D02*
X22841733Y-21310000D01*
X8224000Y-48925733D02*
X8224000Y-49268267D01*
X9244000Y-48925733D02*
X9244000Y-49268267D01*
X9244000Y-36822267D02*
X9244000Y-36479733D01*
X8224000Y-36822267D02*
X8224000Y-36479733D01*
X12277267Y-37934000D02*
X11934733Y-37934000D01*
X12277267Y-38954000D02*
X11934733Y-38954000D01*
X12277267Y-39966000D02*
X11934733Y-39966000D01*
X12277267Y-40986000D02*
X11934733Y-40986000D01*
X12277267Y-41870000D02*
X11934733Y-41870000D01*
X12277267Y-42890000D02*
X11934733Y-42890000D01*
X12277267Y-43902000D02*
X11934733Y-43902000D01*
X12277267Y-44922000D02*
X11934733Y-44922000D01*
X45212000Y26360000D02*
X45212000Y24760000D01*
X49332000Y30480000D02*
G75*
G03X49332000Y30480000I-4120000J0D01*
G01*
X58154775Y19275000D02*
X58154775Y19775000D01*
X58404775Y19525000D02*
X57904775Y19525000D01*
X52999000Y20716000D02*
X52999000Y21284000D01*
X53039000Y20482000D02*
X53039000Y21518000D01*
X53079000Y20323000D02*
X53079000Y21677000D01*
X53119000Y20195000D02*
X53119000Y21805000D01*
X53159000Y20085000D02*
X53159000Y21915000D01*
X53199000Y19989000D02*
X53199000Y22011000D01*
X53239000Y19902000D02*
X53239000Y22098000D01*
X53279000Y19822000D02*
X53279000Y22178000D01*
X53319000Y19749000D02*
X53319000Y22251000D01*
X53359000Y19681000D02*
X53359000Y22319000D01*
X53399000Y19617000D02*
X53399000Y22383000D01*
X53439000Y19557000D02*
X53439000Y22443000D01*
X53479000Y19500000D02*
X53479000Y22500000D01*
X53519000Y19446000D02*
X53519000Y22554000D01*
X53559000Y19395000D02*
X53559000Y22605000D01*
X53599000Y22040000D02*
X53599000Y22653000D01*
X53599000Y19347000D02*
X53599000Y19960000D01*
X53639000Y22040000D02*
X53639000Y22699000D01*
X53639000Y19301000D02*
X53639000Y19960000D01*
X53679000Y22040000D02*
X53679000Y22743000D01*
X53679000Y19257000D02*
X53679000Y19960000D01*
X53719000Y22040000D02*
X53719000Y22785000D01*
X53719000Y19215000D02*
X53719000Y19960000D01*
X53759000Y22040000D02*
X53759000Y22826000D01*
X53759000Y19174000D02*
X53759000Y19960000D01*
X53799000Y22040000D02*
X53799000Y22864000D01*
X53799000Y19136000D02*
X53799000Y19960000D01*
X53839000Y22040000D02*
X53839000Y22901000D01*
X53839000Y19099000D02*
X53839000Y19960000D01*
X53879000Y22040000D02*
X53879000Y22937000D01*
X53879000Y19063000D02*
X53879000Y19960000D01*
X53919000Y22040000D02*
X53919000Y22971000D01*
X53919000Y19029000D02*
X53919000Y19960000D01*
X53959000Y22040000D02*
X53959000Y23004000D01*
X53959000Y18996000D02*
X53959000Y19960000D01*
X53999000Y22040000D02*
X53999000Y23035000D01*
X53999000Y18965000D02*
X53999000Y19960000D01*
X54039000Y22040000D02*
X54039000Y23065000D01*
X54039000Y18935000D02*
X54039000Y19960000D01*
X54079000Y22040000D02*
X54079000Y23095000D01*
X54079000Y18905000D02*
X54079000Y19960000D01*
X54119000Y22040000D02*
X54119000Y23122000D01*
X54119000Y18878000D02*
X54119000Y19960000D01*
X54159000Y22040000D02*
X54159000Y23149000D01*
X54159000Y18851000D02*
X54159000Y19960000D01*
X54199000Y22040000D02*
X54199000Y23175000D01*
X54199000Y18825000D02*
X54199000Y19960000D01*
X54239000Y22040000D02*
X54239000Y23200000D01*
X54239000Y18800000D02*
X54239000Y19960000D01*
X54279000Y22040000D02*
X54279000Y23224000D01*
X54279000Y18776000D02*
X54279000Y19960000D01*
X54319000Y22040000D02*
X54319000Y23247000D01*
X54319000Y18753000D02*
X54319000Y19960000D01*
X54359000Y22040000D02*
X54359000Y23268000D01*
X54359000Y18732000D02*
X54359000Y19960000D01*
X54399000Y22040000D02*
X54399000Y23290000D01*
X54399000Y18710000D02*
X54399000Y19960000D01*
X54439000Y22040000D02*
X54439000Y23310000D01*
X54439000Y18690000D02*
X54439000Y19960000D01*
X54479000Y22040000D02*
X54479000Y23329000D01*
X54479000Y18671000D02*
X54479000Y19960000D01*
X54519000Y22040000D02*
X54519000Y23348000D01*
X54519000Y18652000D02*
X54519000Y19960000D01*
X54559000Y22040000D02*
X54559000Y23365000D01*
X54559000Y18635000D02*
X54559000Y19960000D01*
X54599000Y22040000D02*
X54599000Y23382000D01*
X54599000Y18618000D02*
X54599000Y19960000D01*
X54639000Y22040000D02*
X54639000Y23398000D01*
X54639000Y18602000D02*
X54639000Y19960000D01*
X54679000Y22040000D02*
X54679000Y23414000D01*
X54679000Y18586000D02*
X54679000Y19960000D01*
X54719000Y22040000D02*
X54719000Y23428000D01*
X54719000Y18572000D02*
X54719000Y19960000D01*
X54759000Y22040000D02*
X54759000Y23442000D01*
X54759000Y18558000D02*
X54759000Y19960000D01*
X54799000Y22040000D02*
X54799000Y23455000D01*
X54799000Y18545000D02*
X54799000Y19960000D01*
X54839000Y22040000D02*
X54839000Y23468000D01*
X54839000Y18532000D02*
X54839000Y19960000D01*
X54879000Y22040000D02*
X54879000Y23480000D01*
X54879000Y18520000D02*
X54879000Y19960000D01*
X54920000Y22040000D02*
X54920000Y23491000D01*
X54920000Y18509000D02*
X54920000Y19960000D01*
X54960000Y22040000D02*
X54960000Y23501000D01*
X54960000Y18499000D02*
X54960000Y19960000D01*
X55000000Y22040000D02*
X55000000Y23511000D01*
X55000000Y18489000D02*
X55000000Y19960000D01*
X55040000Y22040000D02*
X55040000Y23520000D01*
X55040000Y18480000D02*
X55040000Y19960000D01*
X55080000Y22040000D02*
X55080000Y23528000D01*
X55080000Y18472000D02*
X55080000Y19960000D01*
X55120000Y22040000D02*
X55120000Y23536000D01*
X55120000Y18464000D02*
X55120000Y19960000D01*
X55160000Y22040000D02*
X55160000Y23543000D01*
X55160000Y18457000D02*
X55160000Y19960000D01*
X55200000Y22040000D02*
X55200000Y23550000D01*
X55200000Y18450000D02*
X55200000Y19960000D01*
X55240000Y22040000D02*
X55240000Y23556000D01*
X55240000Y18444000D02*
X55240000Y19960000D01*
X55280000Y22040000D02*
X55280000Y23561000D01*
X55280000Y18439000D02*
X55280000Y19960000D01*
X55320000Y22040000D02*
X55320000Y23565000D01*
X55320000Y18435000D02*
X55320000Y19960000D01*
X55360000Y22040000D02*
X55360000Y23569000D01*
X55360000Y18431000D02*
X55360000Y19960000D01*
X55400000Y22040000D02*
X55400000Y23573000D01*
X55400000Y18427000D02*
X55400000Y19960000D01*
X55440000Y22040000D02*
X55440000Y23576000D01*
X55440000Y18424000D02*
X55440000Y19960000D01*
X55480000Y22040000D02*
X55480000Y23578000D01*
X55480000Y18422000D02*
X55480000Y19960000D01*
X55520000Y22040000D02*
X55520000Y23579000D01*
X55520000Y18421000D02*
X55520000Y19960000D01*
X55560000Y18420000D02*
X55560000Y19960000D01*
X55560000Y22040000D02*
X55560000Y23580000D01*
X55600000Y18420000D02*
X55600000Y19960000D01*
X55600000Y22040000D02*
X55600000Y23580000D01*
X58220000Y21000000D02*
G75*
G03X58220000Y21000000I-2620000J0D01*
G01*
X9244000Y-33266267D02*
X9244000Y-32923733D01*
X8224000Y-33266267D02*
X8224000Y-32923733D01*
X8224000Y-52707733D02*
X8224000Y-53050267D01*
X9244000Y-52707733D02*
X9244000Y-53050267D01*
X47954775Y-19325000D02*
X47954775Y-18825000D01*
X48204775Y-19075000D02*
X47704775Y-19075000D01*
X42799000Y-17884000D02*
X42799000Y-17316000D01*
X42839000Y-18118000D02*
X42839000Y-17082000D01*
X42879000Y-18277000D02*
X42879000Y-16923000D01*
X42919000Y-18405000D02*
X42919000Y-16795000D01*
X42959000Y-18515000D02*
X42959000Y-16685000D01*
X42999000Y-18611000D02*
X42999000Y-16589000D01*
X43039000Y-18698000D02*
X43039000Y-16502000D01*
X43079000Y-18778000D02*
X43079000Y-16422000D01*
X43119000Y-18851000D02*
X43119000Y-16349000D01*
X43159000Y-18919000D02*
X43159000Y-16281000D01*
X43199000Y-18983000D02*
X43199000Y-16217000D01*
X43239000Y-19043000D02*
X43239000Y-16157000D01*
X43279000Y-19100000D02*
X43279000Y-16100000D01*
X43319000Y-19154000D02*
X43319000Y-16046000D01*
X43359000Y-19205000D02*
X43359000Y-15995000D01*
X43399000Y-16560000D02*
X43399000Y-15947000D01*
X43399000Y-19253000D02*
X43399000Y-18640000D01*
X43439000Y-16560000D02*
X43439000Y-15901000D01*
X43439000Y-19299000D02*
X43439000Y-18640000D01*
X43479000Y-16560000D02*
X43479000Y-15857000D01*
X43479000Y-19343000D02*
X43479000Y-18640000D01*
X43519000Y-16560000D02*
X43519000Y-15815000D01*
X43519000Y-19385000D02*
X43519000Y-18640000D01*
X43559000Y-16560000D02*
X43559000Y-15774000D01*
X43559000Y-19426000D02*
X43559000Y-18640000D01*
X43599000Y-16560000D02*
X43599000Y-15736000D01*
X43599000Y-19464000D02*
X43599000Y-18640000D01*
X43639000Y-16560000D02*
X43639000Y-15699000D01*
X43639000Y-19501000D02*
X43639000Y-18640000D01*
X43679000Y-16560000D02*
X43679000Y-15663000D01*
X43679000Y-19537000D02*
X43679000Y-18640000D01*
X43719000Y-16560000D02*
X43719000Y-15629000D01*
X43719000Y-19571000D02*
X43719000Y-18640000D01*
X43759000Y-16560000D02*
X43759000Y-15596000D01*
X43759000Y-19604000D02*
X43759000Y-18640000D01*
X43799000Y-16560000D02*
X43799000Y-15565000D01*
X43799000Y-19635000D02*
X43799000Y-18640000D01*
X43839000Y-16560000D02*
X43839000Y-15535000D01*
X43839000Y-19665000D02*
X43839000Y-18640000D01*
X43879000Y-16560000D02*
X43879000Y-15505000D01*
X43879000Y-19695000D02*
X43879000Y-18640000D01*
X43919000Y-16560000D02*
X43919000Y-15478000D01*
X43919000Y-19722000D02*
X43919000Y-18640000D01*
X43959000Y-16560000D02*
X43959000Y-15451000D01*
X43959000Y-19749000D02*
X43959000Y-18640000D01*
X43999000Y-16560000D02*
X43999000Y-15425000D01*
X43999000Y-19775000D02*
X43999000Y-18640000D01*
X44039000Y-16560000D02*
X44039000Y-15400000D01*
X44039000Y-19800000D02*
X44039000Y-18640000D01*
X44079000Y-16560000D02*
X44079000Y-15376000D01*
X44079000Y-19824000D02*
X44079000Y-18640000D01*
X44119000Y-16560000D02*
X44119000Y-15353000D01*
X44119000Y-19847000D02*
X44119000Y-18640000D01*
X44159000Y-16560000D02*
X44159000Y-15332000D01*
X44159000Y-19868000D02*
X44159000Y-18640000D01*
X44199000Y-16560000D02*
X44199000Y-15310000D01*
X44199000Y-19890000D02*
X44199000Y-18640000D01*
X44239000Y-16560000D02*
X44239000Y-15290000D01*
X44239000Y-19910000D02*
X44239000Y-18640000D01*
X44279000Y-16560000D02*
X44279000Y-15271000D01*
X44279000Y-19929000D02*
X44279000Y-18640000D01*
X44319000Y-16560000D02*
X44319000Y-15252000D01*
X44319000Y-19948000D02*
X44319000Y-18640000D01*
X44359000Y-16560000D02*
X44359000Y-15235000D01*
X44359000Y-19965000D02*
X44359000Y-18640000D01*
X44399000Y-16560000D02*
X44399000Y-15218000D01*
X44399000Y-19982000D02*
X44399000Y-18640000D01*
X44439000Y-16560000D02*
X44439000Y-15202000D01*
X44439000Y-19998000D02*
X44439000Y-18640000D01*
X44479000Y-16560000D02*
X44479000Y-15186000D01*
X44479000Y-20014000D02*
X44479000Y-18640000D01*
X44519000Y-16560000D02*
X44519000Y-15172000D01*
X44519000Y-20028000D02*
X44519000Y-18640000D01*
X44559000Y-16560000D02*
X44559000Y-15158000D01*
X44559000Y-20042000D02*
X44559000Y-18640000D01*
X44599000Y-16560000D02*
X44599000Y-15145000D01*
X44599000Y-20055000D02*
X44599000Y-18640000D01*
X44639000Y-16560000D02*
X44639000Y-15132000D01*
X44639000Y-20068000D02*
X44639000Y-18640000D01*
X44679000Y-16560000D02*
X44679000Y-15120000D01*
X44679000Y-20080000D02*
X44679000Y-18640000D01*
X44720000Y-16560000D02*
X44720000Y-15109000D01*
X44720000Y-20091000D02*
X44720000Y-18640000D01*
X44760000Y-16560000D02*
X44760000Y-15099000D01*
X44760000Y-20101000D02*
X44760000Y-18640000D01*
X44800000Y-16560000D02*
X44800000Y-15089000D01*
X44800000Y-20111000D02*
X44800000Y-18640000D01*
X44840000Y-16560000D02*
X44840000Y-15080000D01*
X44840000Y-20120000D02*
X44840000Y-18640000D01*
X44880000Y-16560000D02*
X44880000Y-15072000D01*
X44880000Y-20128000D02*
X44880000Y-18640000D01*
X44920000Y-16560000D02*
X44920000Y-15064000D01*
X44920000Y-20136000D02*
X44920000Y-18640000D01*
X44960000Y-16560000D02*
X44960000Y-15057000D01*
X44960000Y-20143000D02*
X44960000Y-18640000D01*
X45000000Y-16560000D02*
X45000000Y-15050000D01*
X45000000Y-20150000D02*
X45000000Y-18640000D01*
X45040000Y-16560000D02*
X45040000Y-15044000D01*
X45040000Y-20156000D02*
X45040000Y-18640000D01*
X45080000Y-16560000D02*
X45080000Y-15039000D01*
X45080000Y-20161000D02*
X45080000Y-18640000D01*
X45120000Y-16560000D02*
X45120000Y-15035000D01*
X45120000Y-20165000D02*
X45120000Y-18640000D01*
X45160000Y-16560000D02*
X45160000Y-15031000D01*
X45160000Y-20169000D02*
X45160000Y-18640000D01*
X45200000Y-16560000D02*
X45200000Y-15027000D01*
X45200000Y-20173000D02*
X45200000Y-18640000D01*
X45240000Y-16560000D02*
X45240000Y-15024000D01*
X45240000Y-20176000D02*
X45240000Y-18640000D01*
X45280000Y-16560000D02*
X45280000Y-15022000D01*
X45280000Y-20178000D02*
X45280000Y-18640000D01*
X45320000Y-16560000D02*
X45320000Y-15021000D01*
X45320000Y-20179000D02*
X45320000Y-18640000D01*
X45360000Y-20180000D02*
X45360000Y-18640000D01*
X45360000Y-16560000D02*
X45360000Y-15020000D01*
X45400000Y-20180000D02*
X45400000Y-18640000D01*
X45400000Y-16560000D02*
X45400000Y-15020000D01*
X48020000Y-17600000D02*
G75*
G03X48020000Y-17600000I-2620000J0D01*
G01*
X55225000Y-30954775D02*
X55725000Y-30954775D01*
X55475000Y-31204775D02*
X55475000Y-30704775D01*
X56666000Y-25799000D02*
X57234000Y-25799000D01*
X56432000Y-25839000D02*
X57468000Y-25839000D01*
X56273000Y-25879000D02*
X57627000Y-25879000D01*
X56145000Y-25919000D02*
X57755000Y-25919000D01*
X56035000Y-25959000D02*
X57865000Y-25959000D01*
X55939000Y-25999000D02*
X57961000Y-25999000D01*
X55852000Y-26039000D02*
X58048000Y-26039000D01*
X55772000Y-26079000D02*
X58128000Y-26079000D01*
X55699000Y-26119000D02*
X58201000Y-26119000D01*
X55631000Y-26159000D02*
X58269000Y-26159000D01*
X55567000Y-26199000D02*
X58333000Y-26199000D01*
X55507000Y-26239000D02*
X58393000Y-26239000D01*
X55450000Y-26279000D02*
X58450000Y-26279000D01*
X55396000Y-26319000D02*
X58504000Y-26319000D01*
X55345000Y-26359000D02*
X58555000Y-26359000D01*
X57990000Y-26399000D02*
X58603000Y-26399000D01*
X55297000Y-26399000D02*
X55910000Y-26399000D01*
X57990000Y-26439000D02*
X58649000Y-26439000D01*
X55251000Y-26439000D02*
X55910000Y-26439000D01*
X57990000Y-26479000D02*
X58693000Y-26479000D01*
X55207000Y-26479000D02*
X55910000Y-26479000D01*
X57990000Y-26519000D02*
X58735000Y-26519000D01*
X55165000Y-26519000D02*
X55910000Y-26519000D01*
X57990000Y-26559000D02*
X58776000Y-26559000D01*
X55124000Y-26559000D02*
X55910000Y-26559000D01*
X57990000Y-26599000D02*
X58814000Y-26599000D01*
X55086000Y-26599000D02*
X55910000Y-26599000D01*
X57990000Y-26639000D02*
X58851000Y-26639000D01*
X55049000Y-26639000D02*
X55910000Y-26639000D01*
X57990000Y-26679000D02*
X58887000Y-26679000D01*
X55013000Y-26679000D02*
X55910000Y-26679000D01*
X57990000Y-26719000D02*
X58921000Y-26719000D01*
X54979000Y-26719000D02*
X55910000Y-26719000D01*
X57990000Y-26759000D02*
X58954000Y-26759000D01*
X54946000Y-26759000D02*
X55910000Y-26759000D01*
X57990000Y-26799000D02*
X58985000Y-26799000D01*
X54915000Y-26799000D02*
X55910000Y-26799000D01*
X57990000Y-26839000D02*
X59015000Y-26839000D01*
X54885000Y-26839000D02*
X55910000Y-26839000D01*
X57990000Y-26879000D02*
X59045000Y-26879000D01*
X54855000Y-26879000D02*
X55910000Y-26879000D01*
X57990000Y-26919000D02*
X59072000Y-26919000D01*
X54828000Y-26919000D02*
X55910000Y-26919000D01*
X57990000Y-26959000D02*
X59099000Y-26959000D01*
X54801000Y-26959000D02*
X55910000Y-26959000D01*
X57990000Y-26999000D02*
X59125000Y-26999000D01*
X54775000Y-26999000D02*
X55910000Y-26999000D01*
X57990000Y-27039000D02*
X59150000Y-27039000D01*
X54750000Y-27039000D02*
X55910000Y-27039000D01*
X57990000Y-27079000D02*
X59174000Y-27079000D01*
X54726000Y-27079000D02*
X55910000Y-27079000D01*
X57990000Y-27119000D02*
X59197000Y-27119000D01*
X54703000Y-27119000D02*
X55910000Y-27119000D01*
X57990000Y-27159000D02*
X59218000Y-27159000D01*
X54682000Y-27159000D02*
X55910000Y-27159000D01*
X57990000Y-27199000D02*
X59240000Y-27199000D01*
X54660000Y-27199000D02*
X55910000Y-27199000D01*
X57990000Y-27239000D02*
X59260000Y-27239000D01*
X54640000Y-27239000D02*
X55910000Y-27239000D01*
X57990000Y-27279000D02*
X59279000Y-27279000D01*
X54621000Y-27279000D02*
X55910000Y-27279000D01*
X57990000Y-27319000D02*
X59298000Y-27319000D01*
X54602000Y-27319000D02*
X55910000Y-27319000D01*
X57990000Y-27359000D02*
X59315000Y-27359000D01*
X54585000Y-27359000D02*
X55910000Y-27359000D01*
X57990000Y-27399000D02*
X59332000Y-27399000D01*
X54568000Y-27399000D02*
X55910000Y-27399000D01*
X57990000Y-27439000D02*
X59348000Y-27439000D01*
X54552000Y-27439000D02*
X55910000Y-27439000D01*
X57990000Y-27479000D02*
X59364000Y-27479000D01*
X54536000Y-27479000D02*
X55910000Y-27479000D01*
X57990000Y-27519000D02*
X59378000Y-27519000D01*
X54522000Y-27519000D02*
X55910000Y-27519000D01*
X57990000Y-27559000D02*
X59392000Y-27559000D01*
X54508000Y-27559000D02*
X55910000Y-27559000D01*
X57990000Y-27599000D02*
X59405000Y-27599000D01*
X54495000Y-27599000D02*
X55910000Y-27599000D01*
X57990000Y-27639000D02*
X59418000Y-27639000D01*
X54482000Y-27639000D02*
X55910000Y-27639000D01*
X57990000Y-27679000D02*
X59430000Y-27679000D01*
X54470000Y-27679000D02*
X55910000Y-27679000D01*
X57990000Y-27720000D02*
X59441000Y-27720000D01*
X54459000Y-27720000D02*
X55910000Y-27720000D01*
X57990000Y-27760000D02*
X59451000Y-27760000D01*
X54449000Y-27760000D02*
X55910000Y-27760000D01*
X57990000Y-27800000D02*
X59461000Y-27800000D01*
X54439000Y-27800000D02*
X55910000Y-27800000D01*
X57990000Y-27840000D02*
X59470000Y-27840000D01*
X54430000Y-27840000D02*
X55910000Y-27840000D01*
X57990000Y-27880000D02*
X59478000Y-27880000D01*
X54422000Y-27880000D02*
X55910000Y-27880000D01*
X57990000Y-27920000D02*
X59486000Y-27920000D01*
X54414000Y-27920000D02*
X55910000Y-27920000D01*
X57990000Y-27960000D02*
X59493000Y-27960000D01*
X54407000Y-27960000D02*
X55910000Y-27960000D01*
X57990000Y-28000000D02*
X59500000Y-28000000D01*
X54400000Y-28000000D02*
X55910000Y-28000000D01*
X57990000Y-28040000D02*
X59506000Y-28040000D01*
X54394000Y-28040000D02*
X55910000Y-28040000D01*
X57990000Y-28080000D02*
X59511000Y-28080000D01*
X54389000Y-28080000D02*
X55910000Y-28080000D01*
X57990000Y-28120000D02*
X59515000Y-28120000D01*
X54385000Y-28120000D02*
X55910000Y-28120000D01*
X57990000Y-28160000D02*
X59519000Y-28160000D01*
X54381000Y-28160000D02*
X55910000Y-28160000D01*
X57990000Y-28200000D02*
X59523000Y-28200000D01*
X54377000Y-28200000D02*
X55910000Y-28200000D01*
X57990000Y-28240000D02*
X59526000Y-28240000D01*
X54374000Y-28240000D02*
X55910000Y-28240000D01*
X57990000Y-28280000D02*
X59528000Y-28280000D01*
X54372000Y-28280000D02*
X55910000Y-28280000D01*
X57990000Y-28320000D02*
X59529000Y-28320000D01*
X54371000Y-28320000D02*
X55910000Y-28320000D01*
X54370000Y-28360000D02*
X55910000Y-28360000D01*
X57990000Y-28360000D02*
X59530000Y-28360000D01*
X54370000Y-28400000D02*
X55910000Y-28400000D01*
X57990000Y-28400000D02*
X59530000Y-28400000D01*
X59570000Y-28400000D02*
G75*
G03X59570000Y-28400000I-2620000J0D01*
G01*
X90954775Y-33125000D02*
X90954775Y-32625000D01*
X91204775Y-32875000D02*
X90704775Y-32875000D01*
X85799000Y-31684000D02*
X85799000Y-31116000D01*
X85839000Y-31918000D02*
X85839000Y-30882000D01*
X85879000Y-32077000D02*
X85879000Y-30723000D01*
X85919000Y-32205000D02*
X85919000Y-30595000D01*
X85959000Y-32315000D02*
X85959000Y-30485000D01*
X85999000Y-32411000D02*
X85999000Y-30389000D01*
X86039000Y-32498000D02*
X86039000Y-30302000D01*
X86079000Y-32578000D02*
X86079000Y-30222000D01*
X86119000Y-32651000D02*
X86119000Y-30149000D01*
X86159000Y-32719000D02*
X86159000Y-30081000D01*
X86199000Y-32783000D02*
X86199000Y-30017000D01*
X86239000Y-32843000D02*
X86239000Y-29957000D01*
X86279000Y-32900000D02*
X86279000Y-29900000D01*
X86319000Y-32954000D02*
X86319000Y-29846000D01*
X86359000Y-33005000D02*
X86359000Y-29795000D01*
X86399000Y-30360000D02*
X86399000Y-29747000D01*
X86399000Y-33053000D02*
X86399000Y-32440000D01*
X86439000Y-30360000D02*
X86439000Y-29701000D01*
X86439000Y-33099000D02*
X86439000Y-32440000D01*
X86479000Y-30360000D02*
X86479000Y-29657000D01*
X86479000Y-33143000D02*
X86479000Y-32440000D01*
X86519000Y-30360000D02*
X86519000Y-29615000D01*
X86519000Y-33185000D02*
X86519000Y-32440000D01*
X86559000Y-30360000D02*
X86559000Y-29574000D01*
X86559000Y-33226000D02*
X86559000Y-32440000D01*
X86599000Y-30360000D02*
X86599000Y-29536000D01*
X86599000Y-33264000D02*
X86599000Y-32440000D01*
X86639000Y-30360000D02*
X86639000Y-29499000D01*
X86639000Y-33301000D02*
X86639000Y-32440000D01*
X86679000Y-30360000D02*
X86679000Y-29463000D01*
X86679000Y-33337000D02*
X86679000Y-32440000D01*
X86719000Y-30360000D02*
X86719000Y-29429000D01*
X86719000Y-33371000D02*
X86719000Y-32440000D01*
X86759000Y-30360000D02*
X86759000Y-29396000D01*
X86759000Y-33404000D02*
X86759000Y-32440000D01*
X86799000Y-30360000D02*
X86799000Y-29365000D01*
X86799000Y-33435000D02*
X86799000Y-32440000D01*
X86839000Y-30360000D02*
X86839000Y-29335000D01*
X86839000Y-33465000D02*
X86839000Y-32440000D01*
X86879000Y-30360000D02*
X86879000Y-29305000D01*
X86879000Y-33495000D02*
X86879000Y-32440000D01*
X86919000Y-30360000D02*
X86919000Y-29278000D01*
X86919000Y-33522000D02*
X86919000Y-32440000D01*
X86959000Y-30360000D02*
X86959000Y-29251000D01*
X86959000Y-33549000D02*
X86959000Y-32440000D01*
X86999000Y-30360000D02*
X86999000Y-29225000D01*
X86999000Y-33575000D02*
X86999000Y-32440000D01*
X87039000Y-30360000D02*
X87039000Y-29200000D01*
X87039000Y-33600000D02*
X87039000Y-32440000D01*
X87079000Y-30360000D02*
X87079000Y-29176000D01*
X87079000Y-33624000D02*
X87079000Y-32440000D01*
X87119000Y-30360000D02*
X87119000Y-29153000D01*
X87119000Y-33647000D02*
X87119000Y-32440000D01*
X87159000Y-30360000D02*
X87159000Y-29132000D01*
X87159000Y-33668000D02*
X87159000Y-32440000D01*
X87199000Y-30360000D02*
X87199000Y-29110000D01*
X87199000Y-33690000D02*
X87199000Y-32440000D01*
X87239000Y-30360000D02*
X87239000Y-29090000D01*
X87239000Y-33710000D02*
X87239000Y-32440000D01*
X87279000Y-30360000D02*
X87279000Y-29071000D01*
X87279000Y-33729000D02*
X87279000Y-32440000D01*
X87319000Y-30360000D02*
X87319000Y-29052000D01*
X87319000Y-33748000D02*
X87319000Y-32440000D01*
X87359000Y-30360000D02*
X87359000Y-29035000D01*
X87359000Y-33765000D02*
X87359000Y-32440000D01*
X87399000Y-30360000D02*
X87399000Y-29018000D01*
X87399000Y-33782000D02*
X87399000Y-32440000D01*
X87439000Y-30360000D02*
X87439000Y-29002000D01*
X87439000Y-33798000D02*
X87439000Y-32440000D01*
X87479000Y-30360000D02*
X87479000Y-28986000D01*
X87479000Y-33814000D02*
X87479000Y-32440000D01*
X87519000Y-30360000D02*
X87519000Y-28972000D01*
X87519000Y-33828000D02*
X87519000Y-32440000D01*
X87559000Y-30360000D02*
X87559000Y-28958000D01*
X87559000Y-33842000D02*
X87559000Y-32440000D01*
X87599000Y-30360000D02*
X87599000Y-28945000D01*
X87599000Y-33855000D02*
X87599000Y-32440000D01*
X87639000Y-30360000D02*
X87639000Y-28932000D01*
X87639000Y-33868000D02*
X87639000Y-32440000D01*
X87679000Y-30360000D02*
X87679000Y-28920000D01*
X87679000Y-33880000D02*
X87679000Y-32440000D01*
X87720000Y-30360000D02*
X87720000Y-28909000D01*
X87720000Y-33891000D02*
X87720000Y-32440000D01*
X87760000Y-30360000D02*
X87760000Y-28899000D01*
X87760000Y-33901000D02*
X87760000Y-32440000D01*
X87800000Y-30360000D02*
X87800000Y-28889000D01*
X87800000Y-33911000D02*
X87800000Y-32440000D01*
X87840000Y-30360000D02*
X87840000Y-28880000D01*
X87840000Y-33920000D02*
X87840000Y-32440000D01*
X87880000Y-30360000D02*
X87880000Y-28872000D01*
X87880000Y-33928000D02*
X87880000Y-32440000D01*
X87920000Y-30360000D02*
X87920000Y-28864000D01*
X87920000Y-33936000D02*
X87920000Y-32440000D01*
X87960000Y-30360000D02*
X87960000Y-28857000D01*
X87960000Y-33943000D02*
X87960000Y-32440000D01*
X88000000Y-30360000D02*
X88000000Y-28850000D01*
X88000000Y-33950000D02*
X88000000Y-32440000D01*
X88040000Y-30360000D02*
X88040000Y-28844000D01*
X88040000Y-33956000D02*
X88040000Y-32440000D01*
X88080000Y-30360000D02*
X88080000Y-28839000D01*
X88080000Y-33961000D02*
X88080000Y-32440000D01*
X88120000Y-30360000D02*
X88120000Y-28835000D01*
X88120000Y-33965000D02*
X88120000Y-32440000D01*
X88160000Y-30360000D02*
X88160000Y-28831000D01*
X88160000Y-33969000D02*
X88160000Y-32440000D01*
X88200000Y-30360000D02*
X88200000Y-28827000D01*
X88200000Y-33973000D02*
X88200000Y-32440000D01*
X88240000Y-30360000D02*
X88240000Y-28824000D01*
X88240000Y-33976000D02*
X88240000Y-32440000D01*
X88280000Y-30360000D02*
X88280000Y-28822000D01*
X88280000Y-33978000D02*
X88280000Y-32440000D01*
X88320000Y-30360000D02*
X88320000Y-28821000D01*
X88320000Y-33979000D02*
X88320000Y-32440000D01*
X88360000Y-33980000D02*
X88360000Y-32440000D01*
X88360000Y-30360000D02*
X88360000Y-28820000D01*
X88400000Y-33980000D02*
X88400000Y-32440000D01*
X88400000Y-30360000D02*
X88400000Y-28820000D01*
X91020000Y-31400000D02*
G75*
G03X91020000Y-31400000I-2620000J0D01*
G01*
X64070000Y-33430000D02*
X64070000Y-36170000D01*
X56830000Y-33430000D02*
X56830000Y-36170000D01*
X56830000Y-36170000D02*
X64070000Y-36170000D01*
X56830000Y-33430000D02*
X64070000Y-33430000D01*
X44617000Y-43358509D02*
X43017000Y-43358509D01*
X43817000Y-42558509D02*
X43817000Y-44158509D01*
X40027000Y-59329000D02*
X38497000Y-59329000D01*
X40360000Y-59289000D02*
X38164000Y-59289000D01*
X40613000Y-59249000D02*
X37911000Y-59249000D01*
X40826000Y-59209000D02*
X37698000Y-59209000D01*
X41014000Y-59169000D02*
X37510000Y-59169000D01*
X41182000Y-59129000D02*
X37342000Y-59129000D01*
X41336000Y-59089000D02*
X37188000Y-59089000D01*
X41480000Y-59049000D02*
X37044000Y-59049000D01*
X41613000Y-59009000D02*
X36911000Y-59009000D01*
X41740000Y-58969000D02*
X36784000Y-58969000D01*
X41859000Y-58929000D02*
X36665000Y-58929000D01*
X41973000Y-58889000D02*
X36551000Y-58889000D01*
X42082000Y-58849000D02*
X36442000Y-58849000D01*
X42186000Y-58809000D02*
X36338000Y-58809000D01*
X42286000Y-58769000D02*
X36238000Y-58769000D01*
X42382000Y-58729000D02*
X36142000Y-58729000D01*
X42475000Y-58689000D02*
X36049000Y-58689000D01*
X42565000Y-58649000D02*
X35959000Y-58649000D01*
X42652000Y-58609000D02*
X35872000Y-58609000D01*
X42737000Y-58569000D02*
X35787000Y-58569000D01*
X42819000Y-58529000D02*
X35705000Y-58529000D01*
X42899000Y-58489000D02*
X35625000Y-58489000D01*
X42977000Y-58449000D02*
X35547000Y-58449000D01*
X43052000Y-58409000D02*
X35472000Y-58409000D01*
X43126000Y-58369000D02*
X35398000Y-58369000D01*
X43198000Y-58329000D02*
X35326000Y-58329000D01*
X43269000Y-58289000D02*
X35255000Y-58289000D01*
X43338000Y-58249000D02*
X35186000Y-58249000D01*
X43405000Y-58209000D02*
X35119000Y-58209000D01*
X43471000Y-58169000D02*
X35053000Y-58169000D01*
X43535000Y-58129000D02*
X34989000Y-58129000D01*
X43598000Y-58089000D02*
X34926000Y-58089000D01*
X43660000Y-58049000D02*
X34864000Y-58049000D01*
X43721000Y-58009000D02*
X34803000Y-58009000D01*
X43781000Y-57969000D02*
X34743000Y-57969000D01*
X43839000Y-57929000D02*
X34685000Y-57929000D01*
X43896000Y-57889000D02*
X34628000Y-57889000D01*
X43953000Y-57849000D02*
X34571000Y-57849000D01*
X44008000Y-57809000D02*
X34516000Y-57809000D01*
X44062000Y-57769000D02*
X34462000Y-57769000D01*
X44116000Y-57729000D02*
X34408000Y-57729000D01*
X44168000Y-57689000D02*
X34356000Y-57689000D01*
X44220000Y-57649000D02*
X34304000Y-57649000D01*
X44271000Y-57609000D02*
X34253000Y-57609000D01*
X44321000Y-57569000D02*
X34203000Y-57569000D01*
X44370000Y-57529000D02*
X34154000Y-57529000D01*
X44418000Y-57489000D02*
X34106000Y-57489000D01*
X44466000Y-57449000D02*
X34058000Y-57449000D01*
X44513000Y-57409000D02*
X34011000Y-57409000D01*
X44559000Y-57369000D02*
X33965000Y-57369000D01*
X44605000Y-57329000D02*
X33919000Y-57329000D01*
X44650000Y-57289000D02*
X33874000Y-57289000D01*
X44694000Y-57249000D02*
X33830000Y-57249000D01*
X44737000Y-57209000D02*
X33787000Y-57209000D01*
X44780000Y-57169000D02*
X33744000Y-57169000D01*
X44822000Y-57129000D02*
X33702000Y-57129000D01*
X44864000Y-57089000D02*
X33660000Y-57089000D01*
X44905000Y-57049000D02*
X33619000Y-57049000D01*
X44946000Y-57009000D02*
X33578000Y-57009000D01*
X44986000Y-56969000D02*
X33538000Y-56969000D01*
X45025000Y-56929000D02*
X33499000Y-56929000D01*
X45064000Y-56889000D02*
X33460000Y-56889000D01*
X45102000Y-56849000D02*
X33422000Y-56849000D01*
X45140000Y-56809000D02*
X33384000Y-56809000D01*
X45178000Y-56769000D02*
X33346000Y-56769000D01*
X45214000Y-56729000D02*
X33310000Y-56729000D01*
X45251000Y-56689000D02*
X33273000Y-56689000D01*
X45287000Y-56649000D02*
X33237000Y-56649000D01*
X45322000Y-56609000D02*
X33202000Y-56609000D01*
X45357000Y-56569000D02*
X33167000Y-56569000D01*
X45391000Y-56529000D02*
X33133000Y-56529000D01*
X45425000Y-56489000D02*
X33099000Y-56489000D01*
X45459000Y-56449000D02*
X33065000Y-56449000D01*
X37822000Y-56409000D02*
X33032000Y-56409000D01*
X45492000Y-56409000D02*
X40702000Y-56409000D01*
X37822000Y-56369000D02*
X32999000Y-56369000D01*
X45525000Y-56369000D02*
X40702000Y-56369000D01*
X37822000Y-56329000D02*
X32967000Y-56329000D01*
X45557000Y-56329000D02*
X40702000Y-56329000D01*
X37822000Y-56289000D02*
X32935000Y-56289000D01*
X45589000Y-56289000D02*
X40702000Y-56289000D01*
X37822000Y-56249000D02*
X32904000Y-56249000D01*
X45620000Y-56249000D02*
X40702000Y-56249000D01*
X37822000Y-56209000D02*
X32872000Y-56209000D01*
X45652000Y-56209000D02*
X40702000Y-56209000D01*
X37822000Y-56169000D02*
X32842000Y-56169000D01*
X45682000Y-56169000D02*
X40702000Y-56169000D01*
X37822000Y-56129000D02*
X32812000Y-56129000D01*
X45712000Y-56129000D02*
X40702000Y-56129000D01*
X37822000Y-56089000D02*
X32782000Y-56089000D01*
X45742000Y-56089000D02*
X40702000Y-56089000D01*
X37822000Y-56049000D02*
X32752000Y-56049000D01*
X45772000Y-56049000D02*
X40702000Y-56049000D01*
X37822000Y-56009000D02*
X32723000Y-56009000D01*
X45801000Y-56009000D02*
X40702000Y-56009000D01*
X37822000Y-55969000D02*
X32694000Y-55969000D01*
X45830000Y-55969000D02*
X40702000Y-55969000D01*
X37822000Y-55929000D02*
X32666000Y-55929000D01*
X45858000Y-55929000D02*
X40702000Y-55929000D01*
X37822000Y-55889000D02*
X32638000Y-55889000D01*
X45886000Y-55889000D02*
X40702000Y-55889000D01*
X37822000Y-55849000D02*
X32610000Y-55849000D01*
X45914000Y-55849000D02*
X40702000Y-55849000D01*
X37822000Y-55809000D02*
X32583000Y-55809000D01*
X45941000Y-55809000D02*
X40702000Y-55809000D01*
X37822000Y-55769000D02*
X32556000Y-55769000D01*
X45968000Y-55769000D02*
X40702000Y-55769000D01*
X37822000Y-55729000D02*
X32529000Y-55729000D01*
X45995000Y-55729000D02*
X40702000Y-55729000D01*
X37822000Y-55689000D02*
X32503000Y-55689000D01*
X46021000Y-55689000D02*
X40702000Y-55689000D01*
X37822000Y-55649000D02*
X32477000Y-55649000D01*
X46047000Y-55649000D02*
X40702000Y-55649000D01*
X37822000Y-55609000D02*
X32451000Y-55609000D01*
X46073000Y-55609000D02*
X40702000Y-55609000D01*
X37822000Y-55569000D02*
X32426000Y-55569000D01*
X46098000Y-55569000D02*
X40702000Y-55569000D01*
X37822000Y-55529000D02*
X32401000Y-55529000D01*
X46123000Y-55529000D02*
X40702000Y-55529000D01*
X37822000Y-55489000D02*
X32376000Y-55489000D01*
X46148000Y-55489000D02*
X40702000Y-55489000D01*
X37822000Y-55449000D02*
X32352000Y-55449000D01*
X46172000Y-55449000D02*
X40702000Y-55449000D01*
X37822000Y-55409000D02*
X32328000Y-55409000D01*
X46196000Y-55409000D02*
X40702000Y-55409000D01*
X37822000Y-55369000D02*
X32304000Y-55369000D01*
X46220000Y-55369000D02*
X40702000Y-55369000D01*
X37822000Y-55329000D02*
X32281000Y-55329000D01*
X46243000Y-55329000D02*
X40702000Y-55329000D01*
X37822000Y-55289000D02*
X32258000Y-55289000D01*
X46266000Y-55289000D02*
X40702000Y-55289000D01*
X37822000Y-55249000D02*
X32235000Y-55249000D01*
X46289000Y-55249000D02*
X40702000Y-55249000D01*
X37822000Y-55209000D02*
X32213000Y-55209000D01*
X46311000Y-55209000D02*
X40702000Y-55209000D01*
X37822000Y-55169000D02*
X32190000Y-55169000D01*
X46334000Y-55169000D02*
X40702000Y-55169000D01*
X37822000Y-55129000D02*
X32168000Y-55129000D01*
X46356000Y-55129000D02*
X40702000Y-55129000D01*
X37822000Y-55089000D02*
X32147000Y-55089000D01*
X46377000Y-55089000D02*
X40702000Y-55089000D01*
X37822000Y-55049000D02*
X32126000Y-55049000D01*
X46398000Y-55049000D02*
X40702000Y-55049000D01*
X37822000Y-55009000D02*
X32105000Y-55009000D01*
X46419000Y-55009000D02*
X40702000Y-55009000D01*
X37822000Y-54969000D02*
X32084000Y-54969000D01*
X46440000Y-54969000D02*
X40702000Y-54969000D01*
X37822000Y-54929000D02*
X32063000Y-54929000D01*
X46461000Y-54929000D02*
X40702000Y-54929000D01*
X37822000Y-54889000D02*
X32043000Y-54889000D01*
X46481000Y-54889000D02*
X40702000Y-54889000D01*
X37822000Y-54849000D02*
X32023000Y-54849000D01*
X46501000Y-54849000D02*
X40702000Y-54849000D01*
X37822000Y-54809000D02*
X32004000Y-54809000D01*
X46520000Y-54809000D02*
X40702000Y-54809000D01*
X37822000Y-54769000D02*
X31984000Y-54769000D01*
X46540000Y-54769000D02*
X40702000Y-54769000D01*
X37822000Y-54729000D02*
X31965000Y-54729000D01*
X46559000Y-54729000D02*
X40702000Y-54729000D01*
X37822000Y-54689000D02*
X31946000Y-54689000D01*
X46578000Y-54689000D02*
X40702000Y-54689000D01*
X37822000Y-54649000D02*
X31928000Y-54649000D01*
X46596000Y-54649000D02*
X40702000Y-54649000D01*
X37822000Y-54609000D02*
X31909000Y-54609000D01*
X46615000Y-54609000D02*
X40702000Y-54609000D01*
X37822000Y-54569000D02*
X31891000Y-54569000D01*
X46633000Y-54569000D02*
X40702000Y-54569000D01*
X37822000Y-54529000D02*
X31873000Y-54529000D01*
X46651000Y-54529000D02*
X40702000Y-54529000D01*
X37822000Y-54489000D02*
X31856000Y-54489000D01*
X46668000Y-54489000D02*
X40702000Y-54489000D01*
X37822000Y-54449000D02*
X31839000Y-54449000D01*
X46685000Y-54449000D02*
X40702000Y-54449000D01*
X37822000Y-54409000D02*
X31822000Y-54409000D01*
X46702000Y-54409000D02*
X40702000Y-54409000D01*
X37822000Y-54369000D02*
X31805000Y-54369000D01*
X46719000Y-54369000D02*
X40702000Y-54369000D01*
X37822000Y-54329000D02*
X31788000Y-54329000D01*
X46736000Y-54329000D02*
X40702000Y-54329000D01*
X37822000Y-54289000D02*
X31772000Y-54289000D01*
X46752000Y-54289000D02*
X40702000Y-54289000D01*
X37822000Y-54249000D02*
X31756000Y-54249000D01*
X46768000Y-54249000D02*
X40702000Y-54249000D01*
X37822000Y-54209000D02*
X31740000Y-54209000D01*
X46784000Y-54209000D02*
X40702000Y-54209000D01*
X37822000Y-54169000D02*
X31725000Y-54169000D01*
X46799000Y-54169000D02*
X40702000Y-54169000D01*
X37822000Y-54129000D02*
X31709000Y-54129000D01*
X46815000Y-54129000D02*
X40702000Y-54129000D01*
X37822000Y-54089000D02*
X31694000Y-54089000D01*
X46830000Y-54089000D02*
X40702000Y-54089000D01*
X37822000Y-54049000D02*
X31680000Y-54049000D01*
X46844000Y-54049000D02*
X40702000Y-54049000D01*
X37822000Y-54009000D02*
X31665000Y-54009000D01*
X46859000Y-54009000D02*
X40702000Y-54009000D01*
X37822000Y-53969000D02*
X31651000Y-53969000D01*
X46873000Y-53969000D02*
X40702000Y-53969000D01*
X37822000Y-53929000D02*
X31637000Y-53929000D01*
X46887000Y-53929000D02*
X40702000Y-53929000D01*
X37822000Y-53889000D02*
X31623000Y-53889000D01*
X46901000Y-53889000D02*
X40702000Y-53889000D01*
X37822000Y-53849000D02*
X31609000Y-53849000D01*
X46915000Y-53849000D02*
X40702000Y-53849000D01*
X37822000Y-53809000D02*
X31596000Y-53809000D01*
X46928000Y-53809000D02*
X40702000Y-53809000D01*
X37822000Y-53769000D02*
X31582000Y-53769000D01*
X46942000Y-53769000D02*
X40702000Y-53769000D01*
X37822000Y-53729000D02*
X31569000Y-53729000D01*
X46955000Y-53729000D02*
X40702000Y-53729000D01*
X37822000Y-53689000D02*
X31557000Y-53689000D01*
X46967000Y-53689000D02*
X40702000Y-53689000D01*
X37822000Y-53649000D02*
X31544000Y-53649000D01*
X46980000Y-53649000D02*
X40702000Y-53649000D01*
X37822000Y-53609000D02*
X31532000Y-53609000D01*
X46992000Y-53609000D02*
X40702000Y-53609000D01*
X37822000Y-53569000D02*
X31520000Y-53569000D01*
X47004000Y-53569000D02*
X40702000Y-53569000D01*
X47016000Y-53529000D02*
X31508000Y-53529000D01*
X47027000Y-53489000D02*
X31497000Y-53489000D01*
X47039000Y-53449000D02*
X31485000Y-53449000D01*
X47050000Y-53409000D02*
X31474000Y-53409000D01*
X47061000Y-53369000D02*
X31463000Y-53369000D01*
X47072000Y-53329000D02*
X31452000Y-53329000D01*
X47082000Y-53289000D02*
X31442000Y-53289000D01*
X47092000Y-53249000D02*
X31432000Y-53249000D01*
X47102000Y-53209000D02*
X31422000Y-53209000D01*
X47112000Y-53169000D02*
X31412000Y-53169000D01*
X47122000Y-53129000D02*
X31402000Y-53129000D01*
X47131000Y-53089000D02*
X31393000Y-53089000D01*
X47140000Y-53049000D02*
X31384000Y-53049000D01*
X47149000Y-53009000D02*
X31375000Y-53009000D01*
X47158000Y-52969000D02*
X31366000Y-52969000D01*
X47167000Y-52929000D02*
X31357000Y-52929000D01*
X47175000Y-52889000D02*
X31349000Y-52889000D01*
X47183000Y-52849000D02*
X31341000Y-52849000D01*
X47191000Y-52809000D02*
X31333000Y-52809000D01*
X47199000Y-52769000D02*
X31325000Y-52769000D01*
X47206000Y-52729000D02*
X31318000Y-52729000D01*
X47214000Y-52689000D02*
X31310000Y-52689000D01*
X47221000Y-52649000D02*
X31303000Y-52649000D01*
X47228000Y-52609000D02*
X31296000Y-52609000D01*
X47234000Y-52569000D02*
X31290000Y-52569000D01*
X47241000Y-52529000D02*
X31283000Y-52529000D01*
X47247000Y-52489000D02*
X31277000Y-52489000D01*
X47253000Y-52449000D02*
X31271000Y-52449000D01*
X47259000Y-52409000D02*
X31265000Y-52409000D01*
X47265000Y-52369000D02*
X31259000Y-52369000D01*
X47270000Y-52329000D02*
X31254000Y-52329000D01*
X47276000Y-52289000D02*
X31248000Y-52289000D01*
X47281000Y-52249000D02*
X31243000Y-52249000D01*
X47286000Y-52209000D02*
X31238000Y-52209000D01*
X47290000Y-52169000D02*
X31234000Y-52169000D01*
X47295000Y-52129000D02*
X31229000Y-52129000D01*
X47299000Y-52089000D02*
X31225000Y-52089000D01*
X47303000Y-52049000D02*
X31221000Y-52049000D01*
X47307000Y-52009000D02*
X31217000Y-52009000D01*
X47311000Y-51969000D02*
X31213000Y-51969000D01*
X47314000Y-51928000D02*
X31210000Y-51928000D01*
X47317000Y-51888000D02*
X31207000Y-51888000D01*
X47320000Y-51848000D02*
X31204000Y-51848000D01*
X47323000Y-51808000D02*
X31201000Y-51808000D01*
X47326000Y-51768000D02*
X31198000Y-51768000D01*
X47328000Y-51728000D02*
X31196000Y-51728000D01*
X47331000Y-51688000D02*
X31193000Y-51688000D01*
X47333000Y-51648000D02*
X31191000Y-51648000D01*
X47335000Y-51608000D02*
X31189000Y-51608000D01*
X47336000Y-51568000D02*
X31188000Y-51568000D01*
X47338000Y-51528000D02*
X31186000Y-51528000D01*
X47339000Y-51488000D02*
X31185000Y-51488000D01*
X47340000Y-51448000D02*
X31184000Y-51448000D01*
X47341000Y-51408000D02*
X31183000Y-51408000D01*
X47342000Y-51368000D02*
X31182000Y-51368000D01*
X47342000Y-51328000D02*
X31182000Y-51328000D01*
X47342000Y-51288000D02*
X31182000Y-51288000D01*
X47343000Y-51248000D02*
X31181000Y-51248000D01*
X47382000Y-51248000D02*
G75*
G03X47382000Y-51248000I-8120000J0D01*
G01*
X61405000Y-43358509D02*
X59805000Y-43358509D01*
X60605000Y-42558509D02*
X60605000Y-44158509D01*
X56815000Y-59329000D02*
X55285000Y-59329000D01*
X57148000Y-59289000D02*
X54952000Y-59289000D01*
X57401000Y-59249000D02*
X54699000Y-59249000D01*
X57614000Y-59209000D02*
X54486000Y-59209000D01*
X57802000Y-59169000D02*
X54298000Y-59169000D01*
X57970000Y-59129000D02*
X54130000Y-59129000D01*
X58124000Y-59089000D02*
X53976000Y-59089000D01*
X58268000Y-59049000D02*
X53832000Y-59049000D01*
X58401000Y-59009000D02*
X53699000Y-59009000D01*
X58528000Y-58969000D02*
X53572000Y-58969000D01*
X58647000Y-58929000D02*
X53453000Y-58929000D01*
X58761000Y-58889000D02*
X53339000Y-58889000D01*
X58870000Y-58849000D02*
X53230000Y-58849000D01*
X58974000Y-58809000D02*
X53126000Y-58809000D01*
X59074000Y-58769000D02*
X53026000Y-58769000D01*
X59170000Y-58729000D02*
X52930000Y-58729000D01*
X59263000Y-58689000D02*
X52837000Y-58689000D01*
X59353000Y-58649000D02*
X52747000Y-58649000D01*
X59440000Y-58609000D02*
X52660000Y-58609000D01*
X59525000Y-58569000D02*
X52575000Y-58569000D01*
X59607000Y-58529000D02*
X52493000Y-58529000D01*
X59687000Y-58489000D02*
X52413000Y-58489000D01*
X59765000Y-58449000D02*
X52335000Y-58449000D01*
X59840000Y-58409000D02*
X52260000Y-58409000D01*
X59914000Y-58369000D02*
X52186000Y-58369000D01*
X59986000Y-58329000D02*
X52114000Y-58329000D01*
X60057000Y-58289000D02*
X52043000Y-58289000D01*
X60126000Y-58249000D02*
X51974000Y-58249000D01*
X60193000Y-58209000D02*
X51907000Y-58209000D01*
X60259000Y-58169000D02*
X51841000Y-58169000D01*
X60323000Y-58129000D02*
X51777000Y-58129000D01*
X60386000Y-58089000D02*
X51714000Y-58089000D01*
X60448000Y-58049000D02*
X51652000Y-58049000D01*
X60509000Y-58009000D02*
X51591000Y-58009000D01*
X60569000Y-57969000D02*
X51531000Y-57969000D01*
X60627000Y-57929000D02*
X51473000Y-57929000D01*
X60684000Y-57889000D02*
X51416000Y-57889000D01*
X60741000Y-57849000D02*
X51359000Y-57849000D01*
X60796000Y-57809000D02*
X51304000Y-57809000D01*
X60850000Y-57769000D02*
X51250000Y-57769000D01*
X60904000Y-57729000D02*
X51196000Y-57729000D01*
X60956000Y-57689000D02*
X51144000Y-57689000D01*
X61008000Y-57649000D02*
X51092000Y-57649000D01*
X61059000Y-57609000D02*
X51041000Y-57609000D01*
X61109000Y-57569000D02*
X50991000Y-57569000D01*
X61158000Y-57529000D02*
X50942000Y-57529000D01*
X61206000Y-57489000D02*
X50894000Y-57489000D01*
X61254000Y-57449000D02*
X50846000Y-57449000D01*
X61301000Y-57409000D02*
X50799000Y-57409000D01*
X61347000Y-57369000D02*
X50753000Y-57369000D01*
X61393000Y-57329000D02*
X50707000Y-57329000D01*
X61438000Y-57289000D02*
X50662000Y-57289000D01*
X61482000Y-57249000D02*
X50618000Y-57249000D01*
X61525000Y-57209000D02*
X50575000Y-57209000D01*
X61568000Y-57169000D02*
X50532000Y-57169000D01*
X61610000Y-57129000D02*
X50490000Y-57129000D01*
X61652000Y-57089000D02*
X50448000Y-57089000D01*
X61693000Y-57049000D02*
X50407000Y-57049000D01*
X61734000Y-57009000D02*
X50366000Y-57009000D01*
X61774000Y-56969000D02*
X50326000Y-56969000D01*
X61813000Y-56929000D02*
X50287000Y-56929000D01*
X61852000Y-56889000D02*
X50248000Y-56889000D01*
X61890000Y-56849000D02*
X50210000Y-56849000D01*
X61928000Y-56809000D02*
X50172000Y-56809000D01*
X61966000Y-56769000D02*
X50134000Y-56769000D01*
X62002000Y-56729000D02*
X50098000Y-56729000D01*
X62039000Y-56689000D02*
X50061000Y-56689000D01*
X62075000Y-56649000D02*
X50025000Y-56649000D01*
X62110000Y-56609000D02*
X49990000Y-56609000D01*
X62145000Y-56569000D02*
X49955000Y-56569000D01*
X62179000Y-56529000D02*
X49921000Y-56529000D01*
X62213000Y-56489000D02*
X49887000Y-56489000D01*
X62247000Y-56449000D02*
X49853000Y-56449000D01*
X54610000Y-56409000D02*
X49820000Y-56409000D01*
X62280000Y-56409000D02*
X57490000Y-56409000D01*
X54610000Y-56369000D02*
X49787000Y-56369000D01*
X62313000Y-56369000D02*
X57490000Y-56369000D01*
X54610000Y-56329000D02*
X49755000Y-56329000D01*
X62345000Y-56329000D02*
X57490000Y-56329000D01*
X54610000Y-56289000D02*
X49723000Y-56289000D01*
X62377000Y-56289000D02*
X57490000Y-56289000D01*
X54610000Y-56249000D02*
X49692000Y-56249000D01*
X62408000Y-56249000D02*
X57490000Y-56249000D01*
X54610000Y-56209000D02*
X49660000Y-56209000D01*
X62440000Y-56209000D02*
X57490000Y-56209000D01*
X54610000Y-56169000D02*
X49630000Y-56169000D01*
X62470000Y-56169000D02*
X57490000Y-56169000D01*
X54610000Y-56129000D02*
X49600000Y-56129000D01*
X62500000Y-56129000D02*
X57490000Y-56129000D01*
X54610000Y-56089000D02*
X49570000Y-56089000D01*
X62530000Y-56089000D02*
X57490000Y-56089000D01*
X54610000Y-56049000D02*
X49540000Y-56049000D01*
X62560000Y-56049000D02*
X57490000Y-56049000D01*
X54610000Y-56009000D02*
X49511000Y-56009000D01*
X62589000Y-56009000D02*
X57490000Y-56009000D01*
X54610000Y-55969000D02*
X49482000Y-55969000D01*
X62618000Y-55969000D02*
X57490000Y-55969000D01*
X54610000Y-55929000D02*
X49454000Y-55929000D01*
X62646000Y-55929000D02*
X57490000Y-55929000D01*
X54610000Y-55889000D02*
X49426000Y-55889000D01*
X62674000Y-55889000D02*
X57490000Y-55889000D01*
X54610000Y-55849000D02*
X49398000Y-55849000D01*
X62702000Y-55849000D02*
X57490000Y-55849000D01*
X54610000Y-55809000D02*
X49371000Y-55809000D01*
X62729000Y-55809000D02*
X57490000Y-55809000D01*
X54610000Y-55769000D02*
X49344000Y-55769000D01*
X62756000Y-55769000D02*
X57490000Y-55769000D01*
X54610000Y-55729000D02*
X49317000Y-55729000D01*
X62783000Y-55729000D02*
X57490000Y-55729000D01*
X54610000Y-55689000D02*
X49291000Y-55689000D01*
X62809000Y-55689000D02*
X57490000Y-55689000D01*
X54610000Y-55649000D02*
X49265000Y-55649000D01*
X62835000Y-55649000D02*
X57490000Y-55649000D01*
X54610000Y-55609000D02*
X49239000Y-55609000D01*
X62861000Y-55609000D02*
X57490000Y-55609000D01*
X54610000Y-55569000D02*
X49214000Y-55569000D01*
X62886000Y-55569000D02*
X57490000Y-55569000D01*
X54610000Y-55529000D02*
X49189000Y-55529000D01*
X62911000Y-55529000D02*
X57490000Y-55529000D01*
X54610000Y-55489000D02*
X49164000Y-55489000D01*
X62936000Y-55489000D02*
X57490000Y-55489000D01*
X54610000Y-55449000D02*
X49140000Y-55449000D01*
X62960000Y-55449000D02*
X57490000Y-55449000D01*
X54610000Y-55409000D02*
X49116000Y-55409000D01*
X62984000Y-55409000D02*
X57490000Y-55409000D01*
X54610000Y-55369000D02*
X49092000Y-55369000D01*
X63008000Y-55369000D02*
X57490000Y-55369000D01*
X54610000Y-55329000D02*
X49069000Y-55329000D01*
X63031000Y-55329000D02*
X57490000Y-55329000D01*
X54610000Y-55289000D02*
X49046000Y-55289000D01*
X63054000Y-55289000D02*
X57490000Y-55289000D01*
X54610000Y-55249000D02*
X49023000Y-55249000D01*
X63077000Y-55249000D02*
X57490000Y-55249000D01*
X54610000Y-55209000D02*
X49001000Y-55209000D01*
X63099000Y-55209000D02*
X57490000Y-55209000D01*
X54610000Y-55169000D02*
X48978000Y-55169000D01*
X63122000Y-55169000D02*
X57490000Y-55169000D01*
X54610000Y-55129000D02*
X48956000Y-55129000D01*
X63144000Y-55129000D02*
X57490000Y-55129000D01*
X54610000Y-55089000D02*
X48935000Y-55089000D01*
X63165000Y-55089000D02*
X57490000Y-55089000D01*
X54610000Y-55049000D02*
X48914000Y-55049000D01*
X63186000Y-55049000D02*
X57490000Y-55049000D01*
X54610000Y-55009000D02*
X48893000Y-55009000D01*
X63207000Y-55009000D02*
X57490000Y-55009000D01*
X54610000Y-54969000D02*
X48872000Y-54969000D01*
X63228000Y-54969000D02*
X57490000Y-54969000D01*
X54610000Y-54929000D02*
X48851000Y-54929000D01*
X63249000Y-54929000D02*
X57490000Y-54929000D01*
X54610000Y-54889000D02*
X48831000Y-54889000D01*
X63269000Y-54889000D02*
X57490000Y-54889000D01*
X54610000Y-54849000D02*
X48811000Y-54849000D01*
X63289000Y-54849000D02*
X57490000Y-54849000D01*
X54610000Y-54809000D02*
X48792000Y-54809000D01*
X63308000Y-54809000D02*
X57490000Y-54809000D01*
X54610000Y-54769000D02*
X48772000Y-54769000D01*
X63328000Y-54769000D02*
X57490000Y-54769000D01*
X54610000Y-54729000D02*
X48753000Y-54729000D01*
X63347000Y-54729000D02*
X57490000Y-54729000D01*
X54610000Y-54689000D02*
X48734000Y-54689000D01*
X63366000Y-54689000D02*
X57490000Y-54689000D01*
X54610000Y-54649000D02*
X48716000Y-54649000D01*
X63384000Y-54649000D02*
X57490000Y-54649000D01*
X54610000Y-54609000D02*
X48697000Y-54609000D01*
X63403000Y-54609000D02*
X57490000Y-54609000D01*
X54610000Y-54569000D02*
X48679000Y-54569000D01*
X63421000Y-54569000D02*
X57490000Y-54569000D01*
X54610000Y-54529000D02*
X48661000Y-54529000D01*
X63439000Y-54529000D02*
X57490000Y-54529000D01*
X54610000Y-54489000D02*
X48644000Y-54489000D01*
X63456000Y-54489000D02*
X57490000Y-54489000D01*
X54610000Y-54449000D02*
X48627000Y-54449000D01*
X63473000Y-54449000D02*
X57490000Y-54449000D01*
X54610000Y-54409000D02*
X48610000Y-54409000D01*
X63490000Y-54409000D02*
X57490000Y-54409000D01*
X54610000Y-54369000D02*
X48593000Y-54369000D01*
X63507000Y-54369000D02*
X57490000Y-54369000D01*
X54610000Y-54329000D02*
X48576000Y-54329000D01*
X63524000Y-54329000D02*
X57490000Y-54329000D01*
X54610000Y-54289000D02*
X48560000Y-54289000D01*
X63540000Y-54289000D02*
X57490000Y-54289000D01*
X54610000Y-54249000D02*
X48544000Y-54249000D01*
X63556000Y-54249000D02*
X57490000Y-54249000D01*
X54610000Y-54209000D02*
X48528000Y-54209000D01*
X63572000Y-54209000D02*
X57490000Y-54209000D01*
X54610000Y-54169000D02*
X48513000Y-54169000D01*
X63587000Y-54169000D02*
X57490000Y-54169000D01*
X54610000Y-54129000D02*
X48497000Y-54129000D01*
X63603000Y-54129000D02*
X57490000Y-54129000D01*
X54610000Y-54089000D02*
X48482000Y-54089000D01*
X63618000Y-54089000D02*
X57490000Y-54089000D01*
X54610000Y-54049000D02*
X48468000Y-54049000D01*
X63632000Y-54049000D02*
X57490000Y-54049000D01*
X54610000Y-54009000D02*
X48453000Y-54009000D01*
X63647000Y-54009000D02*
X57490000Y-54009000D01*
X54610000Y-53969000D02*
X48439000Y-53969000D01*
X63661000Y-53969000D02*
X57490000Y-53969000D01*
X54610000Y-53929000D02*
X48425000Y-53929000D01*
X63675000Y-53929000D02*
X57490000Y-53929000D01*
X54610000Y-53889000D02*
X48411000Y-53889000D01*
X63689000Y-53889000D02*
X57490000Y-53889000D01*
X54610000Y-53849000D02*
X48397000Y-53849000D01*
X63703000Y-53849000D02*
X57490000Y-53849000D01*
X54610000Y-53809000D02*
X48384000Y-53809000D01*
X63716000Y-53809000D02*
X57490000Y-53809000D01*
X54610000Y-53769000D02*
X48370000Y-53769000D01*
X63730000Y-53769000D02*
X57490000Y-53769000D01*
X54610000Y-53729000D02*
X48357000Y-53729000D01*
X63743000Y-53729000D02*
X57490000Y-53729000D01*
X54610000Y-53689000D02*
X48345000Y-53689000D01*
X63755000Y-53689000D02*
X57490000Y-53689000D01*
X54610000Y-53649000D02*
X48332000Y-53649000D01*
X63768000Y-53649000D02*
X57490000Y-53649000D01*
X54610000Y-53609000D02*
X48320000Y-53609000D01*
X63780000Y-53609000D02*
X57490000Y-53609000D01*
X54610000Y-53569000D02*
X48308000Y-53569000D01*
X63792000Y-53569000D02*
X57490000Y-53569000D01*
X63804000Y-53529000D02*
X48296000Y-53529000D01*
X63815000Y-53489000D02*
X48285000Y-53489000D01*
X63827000Y-53449000D02*
X48273000Y-53449000D01*
X63838000Y-53409000D02*
X48262000Y-53409000D01*
X63849000Y-53369000D02*
X48251000Y-53369000D01*
X63860000Y-53329000D02*
X48240000Y-53329000D01*
X63870000Y-53289000D02*
X48230000Y-53289000D01*
X63880000Y-53249000D02*
X48220000Y-53249000D01*
X63890000Y-53209000D02*
X48210000Y-53209000D01*
X63900000Y-53169000D02*
X48200000Y-53169000D01*
X63910000Y-53129000D02*
X48190000Y-53129000D01*
X63919000Y-53089000D02*
X48181000Y-53089000D01*
X63928000Y-53049000D02*
X48172000Y-53049000D01*
X63937000Y-53009000D02*
X48163000Y-53009000D01*
X63946000Y-52969000D02*
X48154000Y-52969000D01*
X63955000Y-52929000D02*
X48145000Y-52929000D01*
X63963000Y-52889000D02*
X48137000Y-52889000D01*
X63971000Y-52849000D02*
X48129000Y-52849000D01*
X63979000Y-52809000D02*
X48121000Y-52809000D01*
X63987000Y-52769000D02*
X48113000Y-52769000D01*
X63994000Y-52729000D02*
X48106000Y-52729000D01*
X64002000Y-52689000D02*
X48098000Y-52689000D01*
X64009000Y-52649000D02*
X48091000Y-52649000D01*
X64016000Y-52609000D02*
X48084000Y-52609000D01*
X64022000Y-52569000D02*
X48078000Y-52569000D01*
X64029000Y-52529000D02*
X48071000Y-52529000D01*
X64035000Y-52489000D02*
X48065000Y-52489000D01*
X64041000Y-52449000D02*
X48059000Y-52449000D01*
X64047000Y-52409000D02*
X48053000Y-52409000D01*
X64053000Y-52369000D02*
X48047000Y-52369000D01*
X64058000Y-52329000D02*
X48042000Y-52329000D01*
X64064000Y-52289000D02*
X48036000Y-52289000D01*
X64069000Y-52249000D02*
X48031000Y-52249000D01*
X64074000Y-52209000D02*
X48026000Y-52209000D01*
X64078000Y-52169000D02*
X48022000Y-52169000D01*
X64083000Y-52129000D02*
X48017000Y-52129000D01*
X64087000Y-52089000D02*
X48013000Y-52089000D01*
X64091000Y-52049000D02*
X48009000Y-52049000D01*
X64095000Y-52009000D02*
X48005000Y-52009000D01*
X64099000Y-51969000D02*
X48001000Y-51969000D01*
X64102000Y-51928000D02*
X47998000Y-51928000D01*
X64105000Y-51888000D02*
X47995000Y-51888000D01*
X64108000Y-51848000D02*
X47992000Y-51848000D01*
X64111000Y-51808000D02*
X47989000Y-51808000D01*
X64114000Y-51768000D02*
X47986000Y-51768000D01*
X64116000Y-51728000D02*
X47984000Y-51728000D01*
X64119000Y-51688000D02*
X47981000Y-51688000D01*
X64121000Y-51648000D02*
X47979000Y-51648000D01*
X64123000Y-51608000D02*
X47977000Y-51608000D01*
X64124000Y-51568000D02*
X47976000Y-51568000D01*
X64126000Y-51528000D02*
X47974000Y-51528000D01*
X64127000Y-51488000D02*
X47973000Y-51488000D01*
X64128000Y-51448000D02*
X47972000Y-51448000D01*
X64129000Y-51408000D02*
X47971000Y-51408000D01*
X64130000Y-51368000D02*
X47970000Y-51368000D01*
X64130000Y-51328000D02*
X47970000Y-51328000D01*
X64130000Y-51288000D02*
X47970000Y-51288000D01*
X64131000Y-51248000D02*
X47969000Y-51248000D01*
X64170000Y-51248000D02*
G75*
G03X64170000Y-51248000I-8120000J0D01*
G01*
X57675000Y-48745225D02*
X57175000Y-48745225D01*
X57425000Y-48495225D02*
X57425000Y-48995225D01*
X56234000Y-53901000D02*
X55666000Y-53901000D01*
X56468000Y-53861000D02*
X55432000Y-53861000D01*
X56627000Y-53821000D02*
X55273000Y-53821000D01*
X56755000Y-53781000D02*
X55145000Y-53781000D01*
X56865000Y-53741000D02*
X55035000Y-53741000D01*
X56961000Y-53701000D02*
X54939000Y-53701000D01*
X57048000Y-53661000D02*
X54852000Y-53661000D01*
X57128000Y-53621000D02*
X54772000Y-53621000D01*
X57201000Y-53581000D02*
X54699000Y-53581000D01*
X57269000Y-53541000D02*
X54631000Y-53541000D01*
X57333000Y-53501000D02*
X54567000Y-53501000D01*
X57393000Y-53461000D02*
X54507000Y-53461000D01*
X57450000Y-53421000D02*
X54450000Y-53421000D01*
X57504000Y-53381000D02*
X54396000Y-53381000D01*
X57555000Y-53341000D02*
X54345000Y-53341000D01*
X54910000Y-53301000D02*
X54297000Y-53301000D01*
X57603000Y-53301000D02*
X56990000Y-53301000D01*
X54910000Y-53261000D02*
X54251000Y-53261000D01*
X57649000Y-53261000D02*
X56990000Y-53261000D01*
X54910000Y-53221000D02*
X54207000Y-53221000D01*
X57693000Y-53221000D02*
X56990000Y-53221000D01*
X54910000Y-53181000D02*
X54165000Y-53181000D01*
X57735000Y-53181000D02*
X56990000Y-53181000D01*
X54910000Y-53141000D02*
X54124000Y-53141000D01*
X57776000Y-53141000D02*
X56990000Y-53141000D01*
X54910000Y-53101000D02*
X54086000Y-53101000D01*
X57814000Y-53101000D02*
X56990000Y-53101000D01*
X54910000Y-53061000D02*
X54049000Y-53061000D01*
X57851000Y-53061000D02*
X56990000Y-53061000D01*
X54910000Y-53021000D02*
X54013000Y-53021000D01*
X57887000Y-53021000D02*
X56990000Y-53021000D01*
X54910000Y-52981000D02*
X53979000Y-52981000D01*
X57921000Y-52981000D02*
X56990000Y-52981000D01*
X54910000Y-52941000D02*
X53946000Y-52941000D01*
X57954000Y-52941000D02*
X56990000Y-52941000D01*
X54910000Y-52901000D02*
X53915000Y-52901000D01*
X57985000Y-52901000D02*
X56990000Y-52901000D01*
X54910000Y-52861000D02*
X53885000Y-52861000D01*
X58015000Y-52861000D02*
X56990000Y-52861000D01*
X54910000Y-52821000D02*
X53855000Y-52821000D01*
X58045000Y-52821000D02*
X56990000Y-52821000D01*
X54910000Y-52781000D02*
X53828000Y-52781000D01*
X58072000Y-52781000D02*
X56990000Y-52781000D01*
X54910000Y-52741000D02*
X53801000Y-52741000D01*
X58099000Y-52741000D02*
X56990000Y-52741000D01*
X54910000Y-52701000D02*
X53775000Y-52701000D01*
X58125000Y-52701000D02*
X56990000Y-52701000D01*
X54910000Y-52661000D02*
X53750000Y-52661000D01*
X58150000Y-52661000D02*
X56990000Y-52661000D01*
X54910000Y-52621000D02*
X53726000Y-52621000D01*
X58174000Y-52621000D02*
X56990000Y-52621000D01*
X54910000Y-52581000D02*
X53703000Y-52581000D01*
X58197000Y-52581000D02*
X56990000Y-52581000D01*
X54910000Y-52541000D02*
X53682000Y-52541000D01*
X58218000Y-52541000D02*
X56990000Y-52541000D01*
X54910000Y-52501000D02*
X53660000Y-52501000D01*
X58240000Y-52501000D02*
X56990000Y-52501000D01*
X54910000Y-52461000D02*
X53640000Y-52461000D01*
X58260000Y-52461000D02*
X56990000Y-52461000D01*
X54910000Y-52421000D02*
X53621000Y-52421000D01*
X58279000Y-52421000D02*
X56990000Y-52421000D01*
X54910000Y-52381000D02*
X53602000Y-52381000D01*
X58298000Y-52381000D02*
X56990000Y-52381000D01*
X54910000Y-52341000D02*
X53585000Y-52341000D01*
X58315000Y-52341000D02*
X56990000Y-52341000D01*
X54910000Y-52301000D02*
X53568000Y-52301000D01*
X58332000Y-52301000D02*
X56990000Y-52301000D01*
X54910000Y-52261000D02*
X53552000Y-52261000D01*
X58348000Y-52261000D02*
X56990000Y-52261000D01*
X54910000Y-52221000D02*
X53536000Y-52221000D01*
X58364000Y-52221000D02*
X56990000Y-52221000D01*
X54910000Y-52181000D02*
X53522000Y-52181000D01*
X58378000Y-52181000D02*
X56990000Y-52181000D01*
X54910000Y-52141000D02*
X53508000Y-52141000D01*
X58392000Y-52141000D02*
X56990000Y-52141000D01*
X54910000Y-52101000D02*
X53495000Y-52101000D01*
X58405000Y-52101000D02*
X56990000Y-52101000D01*
X54910000Y-52061000D02*
X53482000Y-52061000D01*
X58418000Y-52061000D02*
X56990000Y-52061000D01*
X54910000Y-52021000D02*
X53470000Y-52021000D01*
X58430000Y-52021000D02*
X56990000Y-52021000D01*
X54910000Y-51980000D02*
X53459000Y-51980000D01*
X58441000Y-51980000D02*
X56990000Y-51980000D01*
X54910000Y-51940000D02*
X53449000Y-51940000D01*
X58451000Y-51940000D02*
X56990000Y-51940000D01*
X54910000Y-51900000D02*
X53439000Y-51900000D01*
X58461000Y-51900000D02*
X56990000Y-51900000D01*
X54910000Y-51860000D02*
X53430000Y-51860000D01*
X58470000Y-51860000D02*
X56990000Y-51860000D01*
X54910000Y-51820000D02*
X53422000Y-51820000D01*
X58478000Y-51820000D02*
X56990000Y-51820000D01*
X54910000Y-51780000D02*
X53414000Y-51780000D01*
X58486000Y-51780000D02*
X56990000Y-51780000D01*
X54910000Y-51740000D02*
X53407000Y-51740000D01*
X58493000Y-51740000D02*
X56990000Y-51740000D01*
X54910000Y-51700000D02*
X53400000Y-51700000D01*
X58500000Y-51700000D02*
X56990000Y-51700000D01*
X54910000Y-51660000D02*
X53394000Y-51660000D01*
X58506000Y-51660000D02*
X56990000Y-51660000D01*
X54910000Y-51620000D02*
X53389000Y-51620000D01*
X58511000Y-51620000D02*
X56990000Y-51620000D01*
X54910000Y-51580000D02*
X53385000Y-51580000D01*
X58515000Y-51580000D02*
X56990000Y-51580000D01*
X54910000Y-51540000D02*
X53381000Y-51540000D01*
X58519000Y-51540000D02*
X56990000Y-51540000D01*
X54910000Y-51500000D02*
X53377000Y-51500000D01*
X58523000Y-51500000D02*
X56990000Y-51500000D01*
X54910000Y-51460000D02*
X53374000Y-51460000D01*
X58526000Y-51460000D02*
X56990000Y-51460000D01*
X54910000Y-51420000D02*
X53372000Y-51420000D01*
X58528000Y-51420000D02*
X56990000Y-51420000D01*
X54910000Y-51380000D02*
X53371000Y-51380000D01*
X58529000Y-51380000D02*
X56990000Y-51380000D01*
X58530000Y-51340000D02*
X56990000Y-51340000D01*
X54910000Y-51340000D02*
X53370000Y-51340000D01*
X58530000Y-51300000D02*
X56990000Y-51300000D01*
X54910000Y-51300000D02*
X53370000Y-51300000D01*
X58570000Y-51300000D02*
G75*
G03X58570000Y-51300000I-2620000J0D01*
G01*
X88004775Y-6155000D02*
X88004775Y-5655000D01*
X88254775Y-5905000D02*
X87754775Y-5905000D01*
X82849000Y-4714000D02*
X82849000Y-4146000D01*
X82889000Y-4948000D02*
X82889000Y-3912000D01*
X82929000Y-5107000D02*
X82929000Y-3753000D01*
X82969000Y-5235000D02*
X82969000Y-3625000D01*
X83009000Y-5345000D02*
X83009000Y-3515000D01*
X83049000Y-5441000D02*
X83049000Y-3419000D01*
X83089000Y-5528000D02*
X83089000Y-3332000D01*
X83129000Y-5608000D02*
X83129000Y-3252000D01*
X83169000Y-5681000D02*
X83169000Y-3179000D01*
X83209000Y-5749000D02*
X83209000Y-3111000D01*
X83249000Y-5813000D02*
X83249000Y-3047000D01*
X83289000Y-5873000D02*
X83289000Y-2987000D01*
X83329000Y-5930000D02*
X83329000Y-2930000D01*
X83369000Y-5984000D02*
X83369000Y-2876000D01*
X83409000Y-6035000D02*
X83409000Y-2825000D01*
X83449000Y-3390000D02*
X83449000Y-2777000D01*
X83449000Y-6083000D02*
X83449000Y-5470000D01*
X83489000Y-3390000D02*
X83489000Y-2731000D01*
X83489000Y-6129000D02*
X83489000Y-5470000D01*
X83529000Y-3390000D02*
X83529000Y-2687000D01*
X83529000Y-6173000D02*
X83529000Y-5470000D01*
X83569000Y-3390000D02*
X83569000Y-2645000D01*
X83569000Y-6215000D02*
X83569000Y-5470000D01*
X83609000Y-3390000D02*
X83609000Y-2604000D01*
X83609000Y-6256000D02*
X83609000Y-5470000D01*
X83649000Y-3390000D02*
X83649000Y-2566000D01*
X83649000Y-6294000D02*
X83649000Y-5470000D01*
X83689000Y-3390000D02*
X83689000Y-2529000D01*
X83689000Y-6331000D02*
X83689000Y-5470000D01*
X83729000Y-3390000D02*
X83729000Y-2493000D01*
X83729000Y-6367000D02*
X83729000Y-5470000D01*
X83769000Y-3390000D02*
X83769000Y-2459000D01*
X83769000Y-6401000D02*
X83769000Y-5470000D01*
X83809000Y-3390000D02*
X83809000Y-2426000D01*
X83809000Y-6434000D02*
X83809000Y-5470000D01*
X83849000Y-3390000D02*
X83849000Y-2395000D01*
X83849000Y-6465000D02*
X83849000Y-5470000D01*
X83889000Y-3390000D02*
X83889000Y-2365000D01*
X83889000Y-6495000D02*
X83889000Y-5470000D01*
X83929000Y-3390000D02*
X83929000Y-2335000D01*
X83929000Y-6525000D02*
X83929000Y-5470000D01*
X83969000Y-3390000D02*
X83969000Y-2308000D01*
X83969000Y-6552000D02*
X83969000Y-5470000D01*
X84009000Y-3390000D02*
X84009000Y-2281000D01*
X84009000Y-6579000D02*
X84009000Y-5470000D01*
X84049000Y-3390000D02*
X84049000Y-2255000D01*
X84049000Y-6605000D02*
X84049000Y-5470000D01*
X84089000Y-3390000D02*
X84089000Y-2230000D01*
X84089000Y-6630000D02*
X84089000Y-5470000D01*
X84129000Y-3390000D02*
X84129000Y-2206000D01*
X84129000Y-6654000D02*
X84129000Y-5470000D01*
X84169000Y-3390000D02*
X84169000Y-2183000D01*
X84169000Y-6677000D02*
X84169000Y-5470000D01*
X84209000Y-3390000D02*
X84209000Y-2162000D01*
X84209000Y-6698000D02*
X84209000Y-5470000D01*
X84249000Y-3390000D02*
X84249000Y-2140000D01*
X84249000Y-6720000D02*
X84249000Y-5470000D01*
X84289000Y-3390000D02*
X84289000Y-2120000D01*
X84289000Y-6740000D02*
X84289000Y-5470000D01*
X84329000Y-3390000D02*
X84329000Y-2101000D01*
X84329000Y-6759000D02*
X84329000Y-5470000D01*
X84369000Y-3390000D02*
X84369000Y-2082000D01*
X84369000Y-6778000D02*
X84369000Y-5470000D01*
X84409000Y-3390000D02*
X84409000Y-2065000D01*
X84409000Y-6795000D02*
X84409000Y-5470000D01*
X84449000Y-3390000D02*
X84449000Y-2048000D01*
X84449000Y-6812000D02*
X84449000Y-5470000D01*
X84489000Y-3390000D02*
X84489000Y-2032000D01*
X84489000Y-6828000D02*
X84489000Y-5470000D01*
X84529000Y-3390000D02*
X84529000Y-2016000D01*
X84529000Y-6844000D02*
X84529000Y-5470000D01*
X84569000Y-3390000D02*
X84569000Y-2002000D01*
X84569000Y-6858000D02*
X84569000Y-5470000D01*
X84609000Y-3390000D02*
X84609000Y-1988000D01*
X84609000Y-6872000D02*
X84609000Y-5470000D01*
X84649000Y-3390000D02*
X84649000Y-1975000D01*
X84649000Y-6885000D02*
X84649000Y-5470000D01*
X84689000Y-3390000D02*
X84689000Y-1962000D01*
X84689000Y-6898000D02*
X84689000Y-5470000D01*
X84729000Y-3390000D02*
X84729000Y-1950000D01*
X84729000Y-6910000D02*
X84729000Y-5470000D01*
X84770000Y-3390000D02*
X84770000Y-1939000D01*
X84770000Y-6921000D02*
X84770000Y-5470000D01*
X84810000Y-3390000D02*
X84810000Y-1929000D01*
X84810000Y-6931000D02*
X84810000Y-5470000D01*
X84850000Y-3390000D02*
X84850000Y-1919000D01*
X84850000Y-6941000D02*
X84850000Y-5470000D01*
X84890000Y-3390000D02*
X84890000Y-1910000D01*
X84890000Y-6950000D02*
X84890000Y-5470000D01*
X84930000Y-3390000D02*
X84930000Y-1902000D01*
X84930000Y-6958000D02*
X84930000Y-5470000D01*
X84970000Y-3390000D02*
X84970000Y-1894000D01*
X84970000Y-6966000D02*
X84970000Y-5470000D01*
X85010000Y-3390000D02*
X85010000Y-1887000D01*
X85010000Y-6973000D02*
X85010000Y-5470000D01*
X85050000Y-3390000D02*
X85050000Y-1880000D01*
X85050000Y-6980000D02*
X85050000Y-5470000D01*
X85090000Y-3390000D02*
X85090000Y-1874000D01*
X85090000Y-6986000D02*
X85090000Y-5470000D01*
X85130000Y-3390000D02*
X85130000Y-1869000D01*
X85130000Y-6991000D02*
X85130000Y-5470000D01*
X85170000Y-3390000D02*
X85170000Y-1865000D01*
X85170000Y-6995000D02*
X85170000Y-5470000D01*
X85210000Y-3390000D02*
X85210000Y-1861000D01*
X85210000Y-6999000D02*
X85210000Y-5470000D01*
X85250000Y-3390000D02*
X85250000Y-1857000D01*
X85250000Y-7003000D02*
X85250000Y-5470000D01*
X85290000Y-3390000D02*
X85290000Y-1854000D01*
X85290000Y-7006000D02*
X85290000Y-5470000D01*
X85330000Y-3390000D02*
X85330000Y-1852000D01*
X85330000Y-7008000D02*
X85330000Y-5470000D01*
X85370000Y-3390000D02*
X85370000Y-1851000D01*
X85370000Y-7009000D02*
X85370000Y-5470000D01*
X85410000Y-7010000D02*
X85410000Y-5470000D01*
X85410000Y-3390000D02*
X85410000Y-1850000D01*
X85450000Y-7010000D02*
X85450000Y-5470000D01*
X85450000Y-3390000D02*
X85450000Y-1850000D01*
X88070000Y-4430000D02*
G75*
G03X88070000Y-4430000I-2620000J0D01*
G01*
X89532000Y-12618000D02*
G75*
G03X89532000Y-12618000I-4870000J0D01*
G01*
X91280000Y34900000D02*
X90780000Y34900000D01*
X91280000Y34160000D02*
X91280000Y34900000D01*
X54107000Y31023000D02*
X54154000Y31069000D01*
X51810000Y28725000D02*
X51845000Y28761000D01*
X53914000Y31239000D02*
X53949000Y31274000D01*
X51605000Y28931000D02*
X51652000Y28977000D01*
X59187000Y31023000D02*
X59234000Y31069000D01*
X56890000Y28725000D02*
X56925000Y28761000D01*
X58994000Y31239000D02*
X59029000Y31274000D01*
X56685000Y28931000D02*
X56732000Y28977000D01*
X64267000Y31023000D02*
X64314000Y31069000D01*
X61970000Y28725000D02*
X62005000Y28761000D01*
X64074000Y31239000D02*
X64109000Y31274000D01*
X61765000Y28931000D02*
X61812000Y28977000D01*
X69347000Y31023000D02*
X69394000Y31069000D01*
X67050000Y28725000D02*
X67085000Y28761000D01*
X69154000Y31239000D02*
X69189000Y31274000D01*
X66845000Y28931000D02*
X66892000Y28977000D01*
X74427000Y31023000D02*
X74474000Y31069000D01*
X72130000Y28725000D02*
X72165000Y28761000D01*
X74234000Y31239000D02*
X74269000Y31274000D01*
X71925000Y28931000D02*
X71972000Y28977000D01*
X79507000Y31023000D02*
X79554000Y31069000D01*
X77210000Y28725000D02*
X77245000Y28761000D01*
X79314000Y31239000D02*
X79349000Y31274000D01*
X77005000Y28931000D02*
X77052000Y28977000D01*
X84587000Y31023000D02*
X84634000Y31069000D01*
X82290000Y28725000D02*
X82325000Y28761000D01*
X84394000Y31239000D02*
X84429000Y31274000D01*
X82085000Y28931000D02*
X82132000Y28977000D01*
X50280000Y24739000D02*
X50280000Y34660000D01*
X91040000Y24739000D02*
X91040000Y34660000D01*
X91040000Y34660000D02*
X50280000Y34660000D01*
X91040000Y24739000D02*
X50280000Y24739000D01*
X91040000Y27699000D02*
X50280000Y27699000D01*
X91040000Y32600000D02*
X50280000Y32600000D01*
X91040000Y34100000D02*
X50280000Y34100000D01*
X54560000Y30000000D02*
G75*
G03X54560000Y30000000I-1680000J0D01*
G01*
X59640000Y30000000D02*
G75*
G03X59640000Y30000000I-1680000J0D01*
G01*
X64720000Y30000000D02*
G75*
G03X64720000Y30000000I-1680000J0D01*
G01*
X69800000Y30000000D02*
G75*
G03X69800000Y30000000I-1680000J0D01*
G01*
X74880000Y30000000D02*
G75*
G03X74880000Y30000000I-1680000J0D01*
G01*
X79960000Y30000000D02*
G75*
G03X79960000Y30000000I-1680000J0D01*
G01*
X85040000Y30000000D02*
G75*
G03X85040000Y30000000I-1680000J0D01*
G01*
X88411195Y31680253D02*
G75*
G02X89124000Y31535000I28805J-1680253D01*
G01*
X89975426Y30683042D02*
G75*
G02X89975000Y29316000I-1535426J-683042D01*
G01*
X89123042Y28464574D02*
G75*
G02X87756000Y28465000I-683042J1535426D01*
G01*
X86904574Y29316958D02*
G75*
G02X86905000Y30684000I1535426J683042D01*
G01*
X87756682Y31534756D02*
G75*
G02X88440000Y31680000I683318J-1534756D01*
G01*
X24870000Y-22670000D02*
X24870000Y-24000000D01*
X23540000Y-22670000D02*
X24870000Y-22670000D01*
X22270000Y-22670000D02*
X22270000Y-25330000D01*
X22270000Y-25330000D02*
X17130000Y-25330000D01*
X22270000Y-22670000D02*
X17130000Y-22670000D01*
X17130000Y-22670000D02*
X17130000Y-25330000D01*
X24910000Y-26610000D02*
X24910000Y-27940000D01*
X23580000Y-26610000D02*
X24910000Y-26610000D01*
X22310000Y-26610000D02*
X22310000Y-29270000D01*
X22310000Y-29270000D02*
X17170000Y-29270000D01*
X22310000Y-26610000D02*
X17170000Y-26610000D01*
X17170000Y-26610000D02*
X17170000Y-29270000D01*
X22861522Y4638478D02*
G75*
G03X24700000Y200000I1838478J-1838478D01*
G01*
X26538478Y4638478D02*
G75*
G02X24700000Y200000I-1838478J-1838478D01*
G01*
X26500000Y4650000D02*
X22900000Y4650000D01*
X8024000Y-40303748D02*
X8024000Y-40826252D01*
X9444000Y-40303748D02*
X9444000Y-40826252D01*
X9444000Y-45153252D02*
X9444000Y-44630748D01*
X8024000Y-45153252D02*
X8024000Y-44630748D01*
X53290000Y-21988748D02*
X53290000Y-22511252D01*
X54710000Y-21988748D02*
X54710000Y-22511252D01*
X62040000Y-21013748D02*
X62040000Y-21536252D01*
X63460000Y-21013748D02*
X63460000Y-21536252D01*
X95000000Y-30140000D02*
X93080000Y-30140000D01*
X95000000Y-22460000D02*
X93080000Y-22460000D01*
X93080000Y-22460000D02*
X93080000Y-30140000D01*
X93200000Y-22460000D02*
X93200000Y-30140000D01*
X93320000Y-22460000D02*
X93320000Y-30140000D01*
X93440000Y-22460000D02*
X93440000Y-30140000D01*
X93560000Y-22460000D02*
X93560000Y-30140000D01*
X93680000Y-22460000D02*
X93680000Y-30140000D01*
X93800000Y-22460000D02*
X93800000Y-30140000D01*
X93920000Y-22460000D02*
X93920000Y-30140000D01*
X94040000Y-22460000D02*
X94040000Y-30140000D01*
X94160000Y-22460000D02*
X94160000Y-30140000D01*
X94280000Y-22460000D02*
X94280000Y-30140000D01*
X94400000Y-22460000D02*
X94400000Y-30140000D01*
X94520000Y-22460000D02*
X94520000Y-30140000D01*
X94640000Y-22460000D02*
X94640000Y-30140000D01*
X94760000Y-22460000D02*
X94760000Y-30140000D01*
X94880000Y-22460000D02*
X94880000Y-30140000D01*
X95000000Y-22460000D02*
X95000000Y-30140000D01*
X91480000Y-32620000D02*
X92260000Y-32620000D01*
X91480000Y-19980000D02*
X91480000Y-32620000D01*
X92260000Y-19980000D02*
X91480000Y-19980000D01*
X96520000Y-32620000D02*
X95740000Y-32620000D01*
X96520000Y-19980000D02*
X96520000Y-32620000D01*
X95740000Y-19980000D02*
X96520000Y-19980000D01*
X85823000Y10050000D02*
X87743000Y10050000D01*
X85823000Y2370000D02*
X87743000Y2370000D01*
X87743000Y2370000D02*
X87743000Y10050000D01*
X87623000Y2370000D02*
X87623000Y10050000D01*
X87503000Y2370000D02*
X87503000Y10050000D01*
X87383000Y2370000D02*
X87383000Y10050000D01*
X87263000Y2370000D02*
X87263000Y10050000D01*
X87143000Y2370000D02*
X87143000Y10050000D01*
X87023000Y2370000D02*
X87023000Y10050000D01*
X86903000Y2370000D02*
X86903000Y10050000D01*
X86783000Y2370000D02*
X86783000Y10050000D01*
X86663000Y2370000D02*
X86663000Y10050000D01*
X86543000Y2370000D02*
X86543000Y10050000D01*
X86423000Y2370000D02*
X86423000Y10050000D01*
X86303000Y2370000D02*
X86303000Y10050000D01*
X86183000Y2370000D02*
X86183000Y10050000D01*
X86063000Y2370000D02*
X86063000Y10050000D01*
X85943000Y2370000D02*
X85943000Y10050000D01*
X85823000Y2370000D02*
X85823000Y10050000D01*
X89343000Y12530000D02*
X88563000Y12530000D01*
X89343000Y-110000D02*
X89343000Y12530000D01*
X88563000Y-110000D02*
X89343000Y-110000D01*
X84303000Y12530000D02*
X85083000Y12530000D01*
X84303000Y-110000D02*
X84303000Y12530000D01*
X85083000Y-110000D02*
X84303000Y-110000D01*
X21036252Y-6690000D02*
X20513748Y-6690000D01*
X21036252Y-8110000D02*
X20513748Y-8110000D01*
X41316000Y-14111000D02*
X34976000Y-14111000D01*
X41316000Y-4341000D02*
X34976000Y-4341000D01*
X34976000Y-4341000D02*
X34976000Y-14111000D01*
X41316000Y-4341000D02*
X41316000Y-14111000D01*
D10*
X37750000Y2047619D02*
X37750000Y3047619D01*
X38130952Y3047619D01*
X38226190Y3000000D01*
X38273809Y2952380D01*
X38321428Y2857142D01*
X38321428Y2714285D01*
X38273809Y2619047D01*
X38226190Y2571428D01*
X38130952Y2523809D01*
X37750000Y2523809D01*
X38892857Y2047619D02*
X38797619Y2095238D01*
X38750000Y2142857D01*
X38702380Y2238095D01*
X38702380Y2523809D01*
X38750000Y2619047D01*
X38797619Y2666666D01*
X38892857Y2714285D01*
X39035714Y2714285D01*
X39130952Y2666666D01*
X39178571Y2619047D01*
X39226190Y2523809D01*
X39226190Y2238095D01*
X39178571Y2142857D01*
X39130952Y2095238D01*
X39035714Y2047619D01*
X38892857Y2047619D01*
X39511904Y2714285D02*
X39892857Y2714285D01*
X39654761Y3047619D02*
X39654761Y2190476D01*
X39702380Y2095238D01*
X39797619Y2047619D01*
X39892857Y2047619D01*
X31738095Y-26000000D02*
X31642857Y-25952380D01*
X31500000Y-25952380D01*
X31357142Y-26000000D01*
X31261904Y-26095238D01*
X31214285Y-26190476D01*
X31166666Y-26380952D01*
X31166666Y-26523809D01*
X31214285Y-26714285D01*
X31261904Y-26809523D01*
X31357142Y-26904761D01*
X31500000Y-26952380D01*
X31595238Y-26952380D01*
X31738095Y-26904761D01*
X31785714Y-26857142D01*
X31785714Y-26523809D01*
X31595238Y-26523809D01*
X32214285Y-26952380D02*
X32214285Y-25952380D01*
X32785714Y-26952380D01*
X32785714Y-25952380D01*
X33261904Y-26952380D02*
X33261904Y-25952380D01*
X33500000Y-25952380D01*
X33642857Y-26000000D01*
X33738095Y-26095238D01*
X33785714Y-26190476D01*
X33833333Y-26380952D01*
X33833333Y-26523809D01*
X33785714Y-26714285D01*
X33738095Y-26809523D01*
X33642857Y-26904761D01*
X33500000Y-26952380D01*
X33261904Y-26952380D01*
X5438095Y-26500000D02*
X5342857Y-26452380D01*
X5199999Y-26452380D01*
X5057142Y-26500000D01*
X4961904Y-26595238D01*
X4914285Y-26690476D01*
X4866666Y-26880952D01*
X4866666Y-27023809D01*
X4914285Y-27214285D01*
X4961904Y-27309523D01*
X5057142Y-27404761D01*
X5199999Y-27452380D01*
X5295238Y-27452380D01*
X5438095Y-27404761D01*
X5485714Y-27357142D01*
X5485714Y-27023809D01*
X5295238Y-27023809D01*
X5914285Y-27452380D02*
X5914285Y-26452380D01*
X6485714Y-27452380D01*
X6485714Y-26452380D01*
X6961904Y-27452380D02*
X6961904Y-26452380D01*
X7200000Y-26452380D01*
X7342857Y-26500000D01*
X7438095Y-26595238D01*
X7485714Y-26690476D01*
X7533333Y-26880952D01*
X7533333Y-27023809D01*
X7485714Y-27214285D01*
X7438095Y-27309523D01*
X7342857Y-27404761D01*
X7200000Y-27452380D01*
X6961904Y-27452380D01*
X97238095Y11000000D02*
X97142857Y11047619D01*
X97000000Y11047619D01*
X96857142Y11000000D01*
X96761904Y10904761D01*
X96714285Y10809523D01*
X96666666Y10619047D01*
X96666666Y10476190D01*
X96714285Y10285714D01*
X96761904Y10190476D01*
X96857142Y10095238D01*
X97000000Y10047619D01*
X97095238Y10047619D01*
X97238095Y10095238D01*
X97285714Y10142857D01*
X97285714Y10476190D01*
X97095238Y10476190D01*
X97714285Y10047619D02*
X97714285Y11047619D01*
X98285714Y10047619D01*
X98285714Y11047619D01*
X98761904Y10047619D02*
X98761904Y11047619D01*
X99000000Y11047619D01*
X99142857Y11000000D01*
X99238095Y10904761D01*
X99285714Y10809523D01*
X99333333Y10619047D01*
X99333333Y10476190D01*
X99285714Y10285714D01*
X99238095Y10190476D01*
X99142857Y10095238D01*
X99000000Y10047619D01*
X98761904Y10047619D01*
X58738095Y-23250000D02*
X58642857Y-23202380D01*
X58500000Y-23202380D01*
X58357142Y-23250000D01*
X58261904Y-23345238D01*
X58214285Y-23440476D01*
X58166666Y-23630952D01*
X58166666Y-23773809D01*
X58214285Y-23964285D01*
X58261904Y-24059523D01*
X58357142Y-24154761D01*
X58500000Y-24202380D01*
X58595238Y-24202380D01*
X58738095Y-24154761D01*
X58785714Y-24107142D01*
X58785714Y-23773809D01*
X58595238Y-23773809D01*
X59214285Y-24202380D02*
X59214285Y-23202380D01*
X59785714Y-24202380D01*
X59785714Y-23202380D01*
X60261904Y-24202380D02*
X60261904Y-23202380D01*
X60500000Y-23202380D01*
X60642857Y-23250000D01*
X60738095Y-23345238D01*
X60785714Y-23440476D01*
X60833333Y-23630952D01*
X60833333Y-23773809D01*
X60785714Y-23964285D01*
X60738095Y-24059523D01*
X60642857Y-24154761D01*
X60500000Y-24202380D01*
X60261904Y-24202380D01*
X96785714Y4095238D02*
X96928571Y4047619D01*
X97166666Y4047619D01*
X97261904Y4095238D01*
X97309523Y4142857D01*
X97357142Y4238095D01*
X97357142Y4333333D01*
X97309523Y4428571D01*
X97261904Y4476190D01*
X97166666Y4523809D01*
X96976190Y4571428D01*
X96880952Y4619047D01*
X96833333Y4666666D01*
X96785714Y4761904D01*
X96785714Y4857142D01*
X96833333Y4952380D01*
X96880952Y5000000D01*
X96976190Y5047619D01*
X97214285Y5047619D01*
X97357142Y5000000D01*
X97785714Y4047619D02*
X97785714Y5047619D01*
X98023809Y5047619D01*
X98166666Y5000000D01*
X98261904Y4904761D01*
X98309523Y4809523D01*
X98357142Y4619047D01*
X98357142Y4476190D01*
X98309523Y4285714D01*
X98261904Y4190476D01*
X98166666Y4095238D01*
X98023809Y4047619D01*
X97785714Y4047619D01*
X98738095Y4333333D02*
X99214285Y4333333D01*
X98642857Y4047619D02*
X98976190Y5047619D01*
X99309523Y4047619D01*
X96809523Y7095238D02*
X96952380Y7047619D01*
X97190476Y7047619D01*
X97285714Y7095238D01*
X97333333Y7142857D01*
X97380952Y7238095D01*
X97380952Y7333333D01*
X97333333Y7428571D01*
X97285714Y7476190D01*
X97190476Y7523809D01*
X97000000Y7571428D01*
X96904761Y7619047D01*
X96857142Y7666666D01*
X96809523Y7761904D01*
X96809523Y7857142D01*
X96857142Y7952380D01*
X96904761Y8000000D01*
X97000000Y8047619D01*
X97238095Y8047619D01*
X97380952Y8000000D01*
X98380952Y7142857D02*
X98333333Y7095238D01*
X98190476Y7047619D01*
X98095238Y7047619D01*
X97952380Y7095238D01*
X97857142Y7190476D01*
X97809523Y7285714D01*
X97761904Y7476190D01*
X97761904Y7619047D01*
X97809523Y7809523D01*
X97857142Y7904761D01*
X97952380Y8000000D01*
X98095238Y8047619D01*
X98190476Y8047619D01*
X98333333Y8000000D01*
X98380952Y7952380D01*
X99285714Y7047619D02*
X98809523Y7047619D01*
X98809523Y8047619D01*
X9238095Y-26452380D02*
X9809523Y-26452380D01*
X9523809Y-27452380D02*
X9523809Y-26452380D01*
X10047619Y-26452380D02*
X10714285Y-27452380D01*
X10714285Y-26452380D02*
X10047619Y-27452380D01*
X57571428Y-14902380D02*
X57571428Y-13902380D01*
X58238095Y-13902380D02*
X58428571Y-13902380D01*
X58523809Y-13950000D01*
X58619047Y-14045238D01*
X58666666Y-14235714D01*
X58666666Y-14569047D01*
X58619047Y-14759523D01*
X58523809Y-14854761D01*
X58428571Y-14902380D01*
X58238095Y-14902380D01*
X58142857Y-14854761D01*
X58047619Y-14759523D01*
X58000000Y-14569047D01*
X58000000Y-14235714D01*
X58047619Y-14045238D01*
X58142857Y-13950000D01*
X58238095Y-13902380D01*
X59095238Y-13902380D02*
X59095238Y-14711904D01*
X59142857Y-14807142D01*
X59190476Y-14854761D01*
X59285714Y-14902380D01*
X59476190Y-14902380D01*
X59571428Y-14854761D01*
X59619047Y-14807142D01*
X59666666Y-14711904D01*
X59666666Y-13902380D01*
X60000000Y-13902380D02*
X60571428Y-13902380D01*
X60285714Y-14902380D02*
X60285714Y-13902380D01*
X39238095Y-18952380D02*
X39238095Y-17952380D01*
X39714285Y-18952380D02*
X39714285Y-17952380D01*
X40190476Y-18952380D02*
X40190476Y-17952380D01*
X40761904Y-18952380D01*
X40761904Y-17952380D01*
X56952380Y-18928571D02*
X55952380Y-18928571D01*
X55952380Y-18547619D01*
X56000000Y-18452380D01*
X56047619Y-18404761D01*
X56142857Y-18357142D01*
X56285714Y-18357142D01*
X56380952Y-18404761D01*
X56428571Y-18452380D01*
X56476190Y-18547619D01*
X56476190Y-18928571D01*
X55952380Y-18023809D02*
X56952380Y-17785714D01*
X56238095Y-17595238D01*
X56952380Y-17404761D01*
X55952380Y-17166666D01*
X56952380Y-16785714D02*
X55952380Y-16785714D01*
X56666666Y-16452380D01*
X55952380Y-16119047D01*
X56952380Y-16119047D01*
X56952380Y-15642857D02*
X55952380Y-15642857D01*
X56428571Y-15642857D02*
X56428571Y-15071428D01*
X56952380Y-15071428D02*
X55952380Y-15071428D01*
X61952380Y-18809523D02*
X60952380Y-18809523D01*
X60952380Y-18428571D01*
X61000000Y-18333333D01*
X61047619Y-18285714D01*
X61142857Y-18238095D01*
X61285714Y-18238095D01*
X61380952Y-18285714D01*
X61428571Y-18333333D01*
X61476190Y-18428571D01*
X61476190Y-18809523D01*
X60952380Y-17904761D02*
X61952380Y-17666666D01*
X61238095Y-17476190D01*
X61952380Y-17285714D01*
X60952380Y-17047619D01*
X61952380Y-16666666D02*
X60952380Y-16666666D01*
X61666666Y-16333333D01*
X60952380Y-16000000D01*
X61952380Y-16000000D01*
X61952380Y-15047619D02*
X61952380Y-15523809D01*
X60952380Y-15523809D01*
X33738095Y16047619D02*
X33738095Y15238095D01*
X33785714Y15142857D01*
X33833333Y15095238D01*
X33928571Y15047619D01*
X34119047Y15047619D01*
X34214285Y15095238D01*
X34261904Y15142857D01*
X34309523Y15238095D01*
X34309523Y16047619D01*
X34690476Y16047619D02*
X35309523Y16047619D01*
X34976190Y15666666D01*
X35119047Y15666666D01*
X35214285Y15619047D01*
X35261904Y15571428D01*
X35309523Y15476190D01*
X35309523Y15238095D01*
X35261904Y15142857D01*
X35214285Y15095238D01*
X35119047Y15047619D01*
X34833333Y15047619D01*
X34738095Y15095238D01*
X34690476Y15142857D01*
X3166666Y6595238D02*
X3309523Y6547619D01*
X3547619Y6547619D01*
X3642857Y6595238D01*
X3690476Y6642857D01*
X3738095Y6738095D01*
X3738095Y6833333D01*
X3690476Y6928571D01*
X3642857Y6976190D01*
X3547619Y7023809D01*
X3357142Y7071428D01*
X3261904Y7119047D01*
X3214285Y7166666D01*
X3166666Y7261904D01*
X3166666Y7357142D01*
X3214285Y7452380D01*
X3261904Y7500000D01*
X3357142Y7547619D01*
X3595238Y7547619D01*
X3738095Y7500000D01*
X4071428Y7547619D02*
X4309523Y6547619D01*
X4500000Y7261904D01*
X4690476Y6547619D01*
X4928571Y7547619D01*
X5214285Y7547619D02*
X5833333Y7547619D01*
X5500000Y7166666D01*
X5642857Y7166666D01*
X5738095Y7119047D01*
X5785714Y7071428D01*
X5833333Y6976190D01*
X5833333Y6738095D01*
X5785714Y6642857D01*
X5738095Y6595238D01*
X5642857Y6547619D01*
X5357142Y6547619D01*
X5261904Y6595238D01*
X5214285Y6642857D01*
X4904761Y-42333333D02*
X4952380Y-42190476D01*
X4952380Y-41952380D01*
X4904761Y-41857142D01*
X4857142Y-41809523D01*
X4761904Y-41761904D01*
X4666666Y-41761904D01*
X4571428Y-41809523D01*
X4523809Y-41857142D01*
X4476190Y-41952380D01*
X4428571Y-42142857D01*
X4380952Y-42238095D01*
X4333333Y-42285714D01*
X4238095Y-42333333D01*
X4142857Y-42333333D01*
X4047619Y-42285714D01*
X4000000Y-42238095D01*
X3952380Y-42142857D01*
X3952380Y-41904761D01*
X4000000Y-41761904D01*
X3952380Y-41428571D02*
X4952380Y-41190476D01*
X4238095Y-41000000D01*
X4952380Y-40809523D01*
X3952380Y-40571428D01*
X4952380Y-39666666D02*
X4952380Y-40238095D01*
X4952380Y-39952380D02*
X3952380Y-39952380D01*
X4095238Y-40047619D01*
X4190476Y-40142857D01*
X4238095Y-40238095D01*
X4904761Y-45833333D02*
X4952380Y-45690476D01*
X4952380Y-45452380D01*
X4904761Y-45357142D01*
X4857142Y-45309523D01*
X4761904Y-45261904D01*
X4666666Y-45261904D01*
X4571428Y-45309523D01*
X4523809Y-45357142D01*
X4476190Y-45452380D01*
X4428571Y-45642857D01*
X4380952Y-45738095D01*
X4333333Y-45785714D01*
X4238095Y-45833333D01*
X4142857Y-45833333D01*
X4047619Y-45785714D01*
X4000000Y-45738095D01*
X3952380Y-45642857D01*
X3952380Y-45404761D01*
X4000000Y-45261904D01*
X3952380Y-44928571D02*
X4952380Y-44690476D01*
X4238095Y-44500000D01*
X4952380Y-44309523D01*
X3952380Y-44071428D01*
X4047619Y-43738095D02*
X4000000Y-43690476D01*
X3952380Y-43595238D01*
X3952380Y-43357142D01*
X4000000Y-43261904D01*
X4047619Y-43214285D01*
X4142857Y-43166666D01*
X4238095Y-43166666D01*
X4380952Y-43214285D01*
X4952380Y-43785714D01*
X4952380Y-43166666D01*
X72833333Y-60452380D02*
X72357142Y-60452380D01*
X72357142Y-59452380D01*
X73119047Y-59547619D02*
X73166666Y-59500000D01*
X73261904Y-59452380D01*
X73500000Y-59452380D01*
X73595238Y-59500000D01*
X73642857Y-59547619D01*
X73690476Y-59642857D01*
X73690476Y-59738095D01*
X73642857Y-59880952D01*
X73071428Y-60452380D01*
X73690476Y-60452380D01*
X13976190Y-15476190D02*
X14452380Y-15476190D01*
X13452380Y-15809523D02*
X13976190Y-15476190D01*
X13452380Y-15142857D01*
X14452380Y-14285714D02*
X14452380Y-14857142D01*
X14452380Y-14571428D02*
X13452380Y-14571428D01*
X13595238Y-14666666D01*
X13690476Y-14761904D01*
X13738095Y-14857142D01*
X95357142Y-4857142D02*
X95309523Y-4904761D01*
X95166666Y-4952380D01*
X95071428Y-4952380D01*
X94928571Y-4904761D01*
X94833333Y-4809523D01*
X94785714Y-4714285D01*
X94738095Y-4523809D01*
X94738095Y-4380952D01*
X94785714Y-4190476D01*
X94833333Y-4095238D01*
X94928571Y-4000000D01*
X95071428Y-3952380D01*
X95166666Y-3952380D01*
X95309523Y-4000000D01*
X95357142Y-4047619D01*
X96214285Y-4285714D02*
X96214285Y-4952380D01*
X95976190Y-3904761D02*
X95738095Y-4619047D01*
X96357142Y-4619047D01*
X96928571Y-3952380D02*
X97023809Y-3952380D01*
X97119047Y-4000000D01*
X97166666Y-4047619D01*
X97214285Y-4142857D01*
X97261904Y-4333333D01*
X97261904Y-4571428D01*
X97214285Y-4761904D01*
X97166666Y-4857142D01*
X97119047Y-4904761D01*
X97023809Y-4952380D01*
X96928571Y-4952380D01*
X96833333Y-4904761D01*
X96785714Y-4857142D01*
X96738095Y-4761904D01*
X96690476Y-4571428D01*
X96690476Y-4333333D01*
X96738095Y-4142857D01*
X96785714Y-4047619D01*
X96833333Y-4000000D01*
X96928571Y-3952380D01*
X16166666Y31047619D02*
X16166666Y30333333D01*
X16119047Y30190476D01*
X16023809Y30095238D01*
X15880952Y30047619D01*
X15785714Y30047619D01*
X17119047Y31047619D02*
X16642857Y31047619D01*
X16595238Y30571428D01*
X16642857Y30619047D01*
X16738095Y30666666D01*
X16976190Y30666666D01*
X17071428Y30619047D01*
X17119047Y30571428D01*
X17166666Y30476190D01*
X17166666Y30238095D01*
X17119047Y30142857D01*
X17071428Y30095238D01*
X16976190Y30047619D01*
X16738095Y30047619D01*
X16642857Y30095238D01*
X16595238Y30142857D01*
X38357142Y-50857142D02*
X38309523Y-50904761D01*
X38166666Y-50952380D01*
X38071428Y-50952380D01*
X37928571Y-50904761D01*
X37833333Y-50809523D01*
X37785714Y-50714285D01*
X37738095Y-50523809D01*
X37738095Y-50380952D01*
X37785714Y-50190476D01*
X37833333Y-50095238D01*
X37928571Y-50000000D01*
X38071428Y-49952380D01*
X38166666Y-49952380D01*
X38309523Y-50000000D01*
X38357142Y-50047619D01*
X39261904Y-49952380D02*
X38785714Y-49952380D01*
X38738095Y-50428571D01*
X38785714Y-50380952D01*
X38880952Y-50333333D01*
X39119047Y-50333333D01*
X39214285Y-50380952D01*
X39261904Y-50428571D01*
X39309523Y-50523809D01*
X39309523Y-50761904D01*
X39261904Y-50857142D01*
X39214285Y-50904761D01*
X39119047Y-50952380D01*
X38880952Y-50952380D01*
X38785714Y-50904761D01*
X38738095Y-50857142D01*
X40166666Y-49952380D02*
X39976190Y-49952380D01*
X39880952Y-50000000D01*
X39833333Y-50047619D01*
X39738095Y-50190476D01*
X39690476Y-50380952D01*
X39690476Y-50761904D01*
X39738095Y-50857142D01*
X39785714Y-50904761D01*
X39880952Y-50952380D01*
X40071428Y-50952380D01*
X40166666Y-50904761D01*
X40214285Y-50857142D01*
X40261904Y-50761904D01*
X40261904Y-50523809D01*
X40214285Y-50428571D01*
X40166666Y-50380952D01*
X40071428Y-50333333D01*
X39880952Y-50333333D01*
X39785714Y-50380952D01*
X39738095Y-50428571D01*
X39690476Y-50523809D01*
X101357142Y-45642857D02*
X101404761Y-45690476D01*
X101452380Y-45833333D01*
X101452380Y-45928571D01*
X101404761Y-46071428D01*
X101309523Y-46166666D01*
X101214285Y-46214285D01*
X101023809Y-46261904D01*
X100880952Y-46261904D01*
X100690476Y-46214285D01*
X100595238Y-46166666D01*
X100500000Y-46071428D01*
X100452380Y-45928571D01*
X100452380Y-45833333D01*
X100500000Y-45690476D01*
X100547619Y-45642857D01*
X100547619Y-45261904D02*
X100500000Y-45214285D01*
X100452380Y-45119047D01*
X100452380Y-44880952D01*
X100500000Y-44785714D01*
X100547619Y-44738095D01*
X100642857Y-44690476D01*
X100738095Y-44690476D01*
X100880952Y-44738095D01*
X101452380Y-45309523D01*
X101452380Y-44690476D01*
X100880952Y-44119047D02*
X100833333Y-44214285D01*
X100785714Y-44261904D01*
X100690476Y-44309523D01*
X100642857Y-44309523D01*
X100547619Y-44261904D01*
X100500000Y-44214285D01*
X100452380Y-44119047D01*
X100452380Y-43928571D01*
X100500000Y-43833333D01*
X100547619Y-43785714D01*
X100642857Y-43738095D01*
X100690476Y-43738095D01*
X100785714Y-43785714D01*
X100833333Y-43833333D01*
X100880952Y-43928571D01*
X100880952Y-44119047D01*
X100928571Y-44214285D01*
X100976190Y-44261904D01*
X101071428Y-44309523D01*
X101261904Y-44309523D01*
X101357142Y-44261904D01*
X101404761Y-44214285D01*
X101452380Y-44119047D01*
X101452380Y-43928571D01*
X101404761Y-43833333D01*
X101357142Y-43785714D01*
X101261904Y-43738095D01*
X101071428Y-43738095D01*
X100976190Y-43785714D01*
X100928571Y-43833333D01*
X100880952Y-43928571D01*
X82357142Y-45642857D02*
X82404761Y-45690476D01*
X82452380Y-45833333D01*
X82452380Y-45928571D01*
X82404761Y-46071428D01*
X82309523Y-46166666D01*
X82214285Y-46214285D01*
X82023809Y-46261904D01*
X81880952Y-46261904D01*
X81690476Y-46214285D01*
X81595238Y-46166666D01*
X81500000Y-46071428D01*
X81452380Y-45928571D01*
X81452380Y-45833333D01*
X81500000Y-45690476D01*
X81547619Y-45642857D01*
X81452380Y-45309523D02*
X81452380Y-44690476D01*
X81833333Y-45023809D01*
X81833333Y-44880952D01*
X81880952Y-44785714D01*
X81928571Y-44738095D01*
X82023809Y-44690476D01*
X82261904Y-44690476D01*
X82357142Y-44738095D01*
X82404761Y-44785714D01*
X82452380Y-44880952D01*
X82452380Y-45166666D01*
X82404761Y-45261904D01*
X82357142Y-45309523D01*
X82452380Y-43738095D02*
X82452380Y-44309523D01*
X82452380Y-44023809D02*
X81452380Y-44023809D01*
X81595238Y-44119047D01*
X81690476Y-44214285D01*
X81738095Y-44309523D01*
X90857142Y-45642857D02*
X90904761Y-45690476D01*
X90952380Y-45833333D01*
X90952380Y-45928571D01*
X90904761Y-46071428D01*
X90809523Y-46166666D01*
X90714285Y-46214285D01*
X90523809Y-46261904D01*
X90380952Y-46261904D01*
X90190476Y-46214285D01*
X90095238Y-46166666D01*
X90000000Y-46071428D01*
X89952380Y-45928571D01*
X89952380Y-45833333D01*
X90000000Y-45690476D01*
X90047619Y-45642857D01*
X89952380Y-45309523D02*
X89952380Y-44690476D01*
X90333333Y-45023809D01*
X90333333Y-44880952D01*
X90380952Y-44785714D01*
X90428571Y-44738095D01*
X90523809Y-44690476D01*
X90761904Y-44690476D01*
X90857142Y-44738095D01*
X90904761Y-44785714D01*
X90952380Y-44880952D01*
X90952380Y-45166666D01*
X90904761Y-45261904D01*
X90857142Y-45309523D01*
X89952380Y-44071428D02*
X89952380Y-43976190D01*
X90000000Y-43880952D01*
X90047619Y-43833333D01*
X90142857Y-43785714D01*
X90333333Y-43738095D01*
X90571428Y-43738095D01*
X90761904Y-43785714D01*
X90857142Y-43833333D01*
X90904761Y-43880952D01*
X90952380Y-43976190D01*
X90952380Y-44071428D01*
X90904761Y-44166666D01*
X90857142Y-44214285D01*
X90761904Y-44261904D01*
X90571428Y-44309523D01*
X90333333Y-44309523D01*
X90142857Y-44261904D01*
X90047619Y-44214285D01*
X90000000Y-44166666D01*
X89952380Y-44071428D01*
X93357142Y-45166666D02*
X93404761Y-45214285D01*
X93452380Y-45357142D01*
X93452380Y-45452380D01*
X93404761Y-45595238D01*
X93309523Y-45690476D01*
X93214285Y-45738095D01*
X93023809Y-45785714D01*
X92880952Y-45785714D01*
X92690476Y-45738095D01*
X92595238Y-45690476D01*
X92500000Y-45595238D01*
X92452380Y-45452380D01*
X92452380Y-45357142D01*
X92500000Y-45214285D01*
X92547619Y-45166666D01*
X93452380Y-44690476D02*
X93452380Y-44500000D01*
X93404761Y-44404761D01*
X93357142Y-44357142D01*
X93214285Y-44261904D01*
X93023809Y-44214285D01*
X92642857Y-44214285D01*
X92547619Y-44261904D01*
X92500000Y-44309523D01*
X92452380Y-44404761D01*
X92452380Y-44595238D01*
X92500000Y-44690476D01*
X92547619Y-44738095D01*
X92642857Y-44785714D01*
X92880952Y-44785714D01*
X92976190Y-44738095D01*
X93023809Y-44690476D01*
X93071428Y-44595238D01*
X93071428Y-44404761D01*
X93023809Y-44309523D01*
X92976190Y-44261904D01*
X92880952Y-44214285D01*
X48026380Y-24904857D02*
X47550190Y-25238190D01*
X48026380Y-25476285D02*
X47026380Y-25476285D01*
X47026380Y-25095333D01*
X47074000Y-25000095D01*
X47121619Y-24952476D01*
X47216857Y-24904857D01*
X47359714Y-24904857D01*
X47454952Y-24952476D01*
X47502571Y-25000095D01*
X47550190Y-25095333D01*
X47550190Y-25476285D01*
X47026380Y-24571523D02*
X47026380Y-23952476D01*
X47407333Y-24285809D01*
X47407333Y-24142952D01*
X47454952Y-24047714D01*
X47502571Y-24000095D01*
X47597809Y-23952476D01*
X47835904Y-23952476D01*
X47931142Y-24000095D01*
X47978761Y-24047714D01*
X48026380Y-24142952D01*
X48026380Y-24428666D01*
X47978761Y-24523904D01*
X47931142Y-24571523D01*
X47026380Y-23047714D02*
X47026380Y-23523904D01*
X47502571Y-23571523D01*
X47454952Y-23523904D01*
X47407333Y-23428666D01*
X47407333Y-23190571D01*
X47454952Y-23095333D01*
X47502571Y-23047714D01*
X47597809Y-23000095D01*
X47835904Y-23000095D01*
X47931142Y-23047714D01*
X47978761Y-23095333D01*
X48026380Y-23190571D01*
X48026380Y-23428666D01*
X47978761Y-23523904D01*
X47931142Y-23571523D01*
X67166666Y-2428571D02*
X66833333Y-2428571D01*
X66833333Y-2952380D02*
X66833333Y-1952380D01*
X67309523Y-1952380D01*
X67642857Y-2047619D02*
X67690476Y-2000000D01*
X67785714Y-1952380D01*
X68023809Y-1952380D01*
X68119047Y-2000000D01*
X68166666Y-2047619D01*
X68214285Y-2142857D01*
X68214285Y-2238095D01*
X68166666Y-2380952D01*
X67595238Y-2952380D01*
X68214285Y-2952380D01*
X78666666Y-2428571D02*
X78333333Y-2428571D01*
X78333333Y-2952380D02*
X78333333Y-1952380D01*
X78809523Y-1952380D01*
X79714285Y-2952380D02*
X79142857Y-2952380D01*
X79428571Y-2952380D02*
X79428571Y-1952380D01*
X79333333Y-2095238D01*
X79238095Y-2190476D01*
X79142857Y-2238095D01*
X20452380Y-39738095D02*
X19452380Y-39738095D01*
X19452380Y-39500000D01*
X19500000Y-39357142D01*
X19595238Y-39261904D01*
X19690476Y-39214285D01*
X19880952Y-39166666D01*
X20023809Y-39166666D01*
X20214285Y-39214285D01*
X20309523Y-39261904D01*
X20404761Y-39357142D01*
X20452380Y-39500000D01*
X20452380Y-39738095D01*
X19452380Y-38833333D02*
X19452380Y-38214285D01*
X19833333Y-38547619D01*
X19833333Y-38404761D01*
X19880952Y-38309523D01*
X19928571Y-38261904D01*
X20023809Y-38214285D01*
X20261904Y-38214285D01*
X20357142Y-38261904D01*
X20404761Y-38309523D01*
X20452380Y-38404761D01*
X20452380Y-38690476D01*
X20404761Y-38785714D01*
X20357142Y-38833333D01*
X20452380Y-43738095D02*
X19452380Y-43738095D01*
X19452380Y-43500000D01*
X19500000Y-43357142D01*
X19595238Y-43261904D01*
X19690476Y-43214285D01*
X19880952Y-43166666D01*
X20023809Y-43166666D01*
X20214285Y-43214285D01*
X20309523Y-43261904D01*
X20404761Y-43357142D01*
X20452380Y-43500000D01*
X20452380Y-43738095D01*
X20452380Y-42214285D02*
X20452380Y-42785714D01*
X20452380Y-42500000D02*
X19452380Y-42500000D01*
X19595238Y-42595238D01*
X19690476Y-42690476D01*
X19738095Y-42785714D01*
X10452380Y-16833333D02*
X11166666Y-16833333D01*
X11309523Y-16880952D01*
X11404761Y-16976190D01*
X11452380Y-17119047D01*
X11452380Y-17214285D01*
X10452380Y-16452380D02*
X10452380Y-15785714D01*
X11452380Y-16214285D01*
X51673333Y1993619D02*
X51197142Y1993619D01*
X51197142Y2993619D01*
X52530476Y1993619D02*
X51959047Y1993619D01*
X52244761Y1993619D02*
X52244761Y2993619D01*
X52149523Y2850761D01*
X52054285Y2755523D01*
X51959047Y2707904D01*
X77761904Y-25452380D02*
X77761904Y-24452380D01*
X78000000Y-24452380D01*
X78142857Y-24500000D01*
X78238095Y-24595238D01*
X78285714Y-24690476D01*
X78333333Y-24880952D01*
X78333333Y-25023809D01*
X78285714Y-25214285D01*
X78238095Y-25309523D01*
X78142857Y-25404761D01*
X78000000Y-25452380D01*
X77761904Y-25452380D01*
X78666666Y-24452380D02*
X79333333Y-24452380D01*
X78904761Y-25452380D01*
X83291904Y-31316666D02*
X83768095Y-31316666D01*
X83196666Y-31602380D02*
X83530000Y-30602380D01*
X83863333Y-31602380D01*
X16736666Y22431619D02*
X16736666Y21717333D01*
X16689047Y21574476D01*
X16593809Y21479238D01*
X16450952Y21431619D01*
X16355714Y21431619D01*
X17641428Y22431619D02*
X17450952Y22431619D01*
X17355714Y22384000D01*
X17308095Y22336380D01*
X17212857Y22193523D01*
X17165238Y22003047D01*
X17165238Y21622095D01*
X17212857Y21526857D01*
X17260476Y21479238D01*
X17355714Y21431619D01*
X17546190Y21431619D01*
X17641428Y21479238D01*
X17689047Y21526857D01*
X17736666Y21622095D01*
X17736666Y21860190D01*
X17689047Y21955428D01*
X17641428Y22003047D01*
X17546190Y22050666D01*
X17355714Y22050666D01*
X17260476Y22003047D01*
X17212857Y21955428D01*
X17165238Y21860190D01*
X37166666Y-20952380D02*
X37166666Y-21666666D01*
X37119047Y-21809523D01*
X37023809Y-21904761D01*
X36880952Y-21952380D01*
X36785714Y-21952380D01*
X37642857Y-21952380D02*
X37642857Y-20952380D01*
X38023809Y-20952380D01*
X38119047Y-21000000D01*
X38166666Y-21047619D01*
X38214285Y-21142857D01*
X38214285Y-21285714D01*
X38166666Y-21380952D01*
X38119047Y-21428571D01*
X38023809Y-21476190D01*
X37642857Y-21476190D01*
X39071428Y-21285714D02*
X39071428Y-21952380D01*
X38833333Y-20904761D02*
X38595238Y-21619047D01*
X39214285Y-21619047D01*
X32238095Y-4952380D02*
X32238095Y-5761904D01*
X32285714Y-5857142D01*
X32333333Y-5904761D01*
X32428571Y-5952380D01*
X32619047Y-5952380D01*
X32714285Y-5904761D01*
X32761904Y-5857142D01*
X32809523Y-5761904D01*
X32809523Y-4952380D01*
X33809523Y-5952380D02*
X33238095Y-5952380D01*
X33523809Y-5952380D02*
X33523809Y-4952380D01*
X33428571Y-5095238D01*
X33333333Y-5190476D01*
X33238095Y-5238095D01*
X18957142Y-2252380D02*
X18623809Y-1776190D01*
X18385714Y-2252380D02*
X18385714Y-1252380D01*
X18766666Y-1252380D01*
X18861904Y-1300000D01*
X18909523Y-1347619D01*
X18957142Y-1442857D01*
X18957142Y-1585714D01*
X18909523Y-1680952D01*
X18861904Y-1728571D01*
X18766666Y-1776190D01*
X18385714Y-1776190D01*
X19290476Y-1252380D02*
X19909523Y-1252380D01*
X19576190Y-1633333D01*
X19719047Y-1633333D01*
X19814285Y-1680952D01*
X19861904Y-1728571D01*
X19909523Y-1823809D01*
X19909523Y-2061904D01*
X19861904Y-2157142D01*
X19814285Y-2204761D01*
X19719047Y-2252380D01*
X19433333Y-2252380D01*
X19338095Y-2204761D01*
X19290476Y-2157142D01*
X20242857Y-1252380D02*
X20861904Y-1252380D01*
X20528571Y-1633333D01*
X20671428Y-1633333D01*
X20766666Y-1680952D01*
X20814285Y-1728571D01*
X20861904Y-1823809D01*
X20861904Y-2061904D01*
X20814285Y-2157142D01*
X20766666Y-2204761D01*
X20671428Y-2252380D01*
X20385714Y-2252380D01*
X20290476Y-2204761D01*
X20242857Y-2157142D01*
X18957142Y-4452380D02*
X18623809Y-3976190D01*
X18385714Y-4452380D02*
X18385714Y-3452380D01*
X18766666Y-3452380D01*
X18861904Y-3500000D01*
X18909523Y-3547619D01*
X18957142Y-3642857D01*
X18957142Y-3785714D01*
X18909523Y-3880952D01*
X18861904Y-3928571D01*
X18766666Y-3976190D01*
X18385714Y-3976190D01*
X19290476Y-3452380D02*
X19909523Y-3452380D01*
X19576190Y-3833333D01*
X19719047Y-3833333D01*
X19814285Y-3880952D01*
X19861904Y-3928571D01*
X19909523Y-4023809D01*
X19909523Y-4261904D01*
X19861904Y-4357142D01*
X19814285Y-4404761D01*
X19719047Y-4452380D01*
X19433333Y-4452380D01*
X19338095Y-4404761D01*
X19290476Y-4357142D01*
X20290476Y-3547619D02*
X20338095Y-3500000D01*
X20433333Y-3452380D01*
X20671428Y-3452380D01*
X20766666Y-3500000D01*
X20814285Y-3547619D01*
X20861904Y-3642857D01*
X20861904Y-3738095D01*
X20814285Y-3880952D01*
X20242857Y-4452380D01*
X20861904Y-4452380D01*
X3666666Y4547619D02*
X3666666Y3833333D01*
X3619047Y3690476D01*
X3523809Y3595238D01*
X3380952Y3547619D01*
X3285714Y3547619D01*
X4095238Y4452380D02*
X4142857Y4500000D01*
X4238095Y4547619D01*
X4476190Y4547619D01*
X4571428Y4500000D01*
X4619047Y4452380D01*
X4666666Y4357142D01*
X4666666Y4261904D01*
X4619047Y4119047D01*
X4047619Y3547619D01*
X4666666Y3547619D01*
X29357142Y-4617857D02*
X29404761Y-4665476D01*
X29452380Y-4808333D01*
X29452380Y-4903571D01*
X29404761Y-5046428D01*
X29309523Y-5141666D01*
X29214285Y-5189285D01*
X29023809Y-5236904D01*
X28880952Y-5236904D01*
X28690476Y-5189285D01*
X28595238Y-5141666D01*
X28500000Y-5046428D01*
X28452380Y-4903571D01*
X28452380Y-4808333D01*
X28500000Y-4665476D01*
X28547619Y-4617857D01*
X28452380Y-3713095D02*
X28452380Y-4189285D01*
X28928571Y-4236904D01*
X28880952Y-4189285D01*
X28833333Y-4094047D01*
X28833333Y-3855952D01*
X28880952Y-3760714D01*
X28928571Y-3713095D01*
X29023809Y-3665476D01*
X29261904Y-3665476D01*
X29357142Y-3713095D01*
X29404761Y-3760714D01*
X29452380Y-3855952D01*
X29452380Y-4094047D01*
X29404761Y-4189285D01*
X29357142Y-4236904D01*
X28452380Y-3332142D02*
X28452380Y-2713095D01*
X28833333Y-3046428D01*
X28833333Y-2903571D01*
X28880952Y-2808333D01*
X28928571Y-2760714D01*
X29023809Y-2713095D01*
X29261904Y-2713095D01*
X29357142Y-2760714D01*
X29404761Y-2808333D01*
X29452380Y-2903571D01*
X29452380Y-3189285D01*
X29404761Y-3284523D01*
X29357142Y-3332142D01*
X37357142Y-18317857D02*
X37404761Y-18365476D01*
X37452380Y-18508333D01*
X37452380Y-18603571D01*
X37404761Y-18746428D01*
X37309523Y-18841666D01*
X37214285Y-18889285D01*
X37023809Y-18936904D01*
X36880952Y-18936904D01*
X36690476Y-18889285D01*
X36595238Y-18841666D01*
X36500000Y-18746428D01*
X36452380Y-18603571D01*
X36452380Y-18508333D01*
X36500000Y-18365476D01*
X36547619Y-18317857D01*
X36785714Y-17460714D02*
X37452380Y-17460714D01*
X36404761Y-17698809D02*
X37119047Y-17936904D01*
X37119047Y-17317857D01*
X37452380Y-16889285D02*
X37452380Y-16698809D01*
X37404761Y-16603571D01*
X37357142Y-16555952D01*
X37214285Y-16460714D01*
X37023809Y-16413095D01*
X36642857Y-16413095D01*
X36547619Y-16460714D01*
X36500000Y-16508333D01*
X36452380Y-16603571D01*
X36452380Y-16794047D01*
X36500000Y-16889285D01*
X36547619Y-16936904D01*
X36642857Y-16984523D01*
X36880952Y-16984523D01*
X36976190Y-16936904D01*
X37023809Y-16889285D01*
X37071428Y-16794047D01*
X37071428Y-16603571D01*
X37023809Y-16508333D01*
X36976190Y-16460714D01*
X36880952Y-16413095D01*
X25857142Y-21357142D02*
X25809523Y-21404761D01*
X25666666Y-21452380D01*
X25571428Y-21452380D01*
X25428571Y-21404761D01*
X25333333Y-21309523D01*
X25285714Y-21214285D01*
X25238095Y-21023809D01*
X25238095Y-20880952D01*
X25285714Y-20690476D01*
X25333333Y-20595238D01*
X25428571Y-20500000D01*
X25571428Y-20452380D01*
X25666666Y-20452380D01*
X25809523Y-20500000D01*
X25857142Y-20547619D01*
X26714285Y-20785714D02*
X26714285Y-21452380D01*
X26476190Y-20404761D02*
X26238095Y-21119047D01*
X26857142Y-21119047D01*
X27380952Y-20880952D02*
X27285714Y-20833333D01*
X27238095Y-20785714D01*
X27190476Y-20690476D01*
X27190476Y-20642857D01*
X27238095Y-20547619D01*
X27285714Y-20500000D01*
X27380952Y-20452380D01*
X27571428Y-20452380D01*
X27666666Y-20500000D01*
X27714285Y-20547619D01*
X27761904Y-20642857D01*
X27761904Y-20690476D01*
X27714285Y-20785714D01*
X27666666Y-20833333D01*
X27571428Y-20880952D01*
X27380952Y-20880952D01*
X27285714Y-20928571D01*
X27238095Y-20976190D01*
X27190476Y-21071428D01*
X27190476Y-21261904D01*
X27238095Y-21357142D01*
X27285714Y-21404761D01*
X27380952Y-21452380D01*
X27571428Y-21452380D01*
X27666666Y-21404761D01*
X27714285Y-21357142D01*
X27761904Y-21261904D01*
X27761904Y-21071428D01*
X27714285Y-20976190D01*
X27666666Y-20928571D01*
X27571428Y-20880952D01*
X10952380Y-49739857D02*
X10476190Y-50073190D01*
X10952380Y-50311285D02*
X9952380Y-50311285D01*
X9952380Y-49930333D01*
X10000000Y-49835095D01*
X10047619Y-49787476D01*
X10142857Y-49739857D01*
X10285714Y-49739857D01*
X10380952Y-49787476D01*
X10428571Y-49835095D01*
X10476190Y-49930333D01*
X10476190Y-50311285D01*
X10952380Y-48787476D02*
X10952380Y-49358904D01*
X10952380Y-49073190D02*
X9952380Y-49073190D01*
X10095238Y-49168428D01*
X10190476Y-49263666D01*
X10238095Y-49358904D01*
X9952380Y-48454142D02*
X9952380Y-47835095D01*
X10333333Y-48168428D01*
X10333333Y-48025571D01*
X10380952Y-47930333D01*
X10428571Y-47882714D01*
X10523809Y-47835095D01*
X10761904Y-47835095D01*
X10857142Y-47882714D01*
X10904761Y-47930333D01*
X10952380Y-48025571D01*
X10952380Y-48311285D01*
X10904761Y-48406523D01*
X10857142Y-48454142D01*
X10952380Y-36642857D02*
X10476190Y-36976190D01*
X10952380Y-37214285D02*
X9952380Y-37214285D01*
X9952380Y-36833333D01*
X10000000Y-36738095D01*
X10047619Y-36690476D01*
X10142857Y-36642857D01*
X10285714Y-36642857D01*
X10380952Y-36690476D01*
X10428571Y-36738095D01*
X10476190Y-36833333D01*
X10476190Y-37214285D01*
X10952380Y-35690476D02*
X10952380Y-36261904D01*
X10952380Y-35976190D02*
X9952380Y-35976190D01*
X10095238Y-36071428D01*
X10190476Y-36166666D01*
X10238095Y-36261904D01*
X9952380Y-35071428D02*
X9952380Y-34976190D01*
X10000000Y-34880952D01*
X10047619Y-34833333D01*
X10142857Y-34785714D01*
X10333333Y-34738095D01*
X10571428Y-34738095D01*
X10761904Y-34785714D01*
X10857142Y-34833333D01*
X10904761Y-34880952D01*
X10952380Y-34976190D01*
X10952380Y-35071428D01*
X10904761Y-35166666D01*
X10857142Y-35214285D01*
X10761904Y-35261904D01*
X10571428Y-35309523D01*
X10333333Y-35309523D01*
X10142857Y-35261904D01*
X10047619Y-35214285D01*
X10000000Y-35166666D01*
X9952380Y-35071428D01*
X12833333Y-35952380D02*
X12500000Y-35476190D01*
X12261904Y-35952380D02*
X12261904Y-34952380D01*
X12642857Y-34952380D01*
X12738095Y-35000000D01*
X12785714Y-35047619D01*
X12833333Y-35142857D01*
X12833333Y-35285714D01*
X12785714Y-35380952D01*
X12738095Y-35428571D01*
X12642857Y-35476190D01*
X12261904Y-35476190D01*
X13690476Y-34952380D02*
X13500000Y-34952380D01*
X13404761Y-35000000D01*
X13357142Y-35047619D01*
X13261904Y-35190476D01*
X13214285Y-35380952D01*
X13214285Y-35761904D01*
X13261904Y-35857142D01*
X13309523Y-35904761D01*
X13404761Y-35952380D01*
X13595238Y-35952380D01*
X13690476Y-35904761D01*
X13738095Y-35857142D01*
X13785714Y-35761904D01*
X13785714Y-35523809D01*
X13738095Y-35428571D01*
X13690476Y-35380952D01*
X13595238Y-35333333D01*
X13404761Y-35333333D01*
X13309523Y-35380952D01*
X13261904Y-35428571D01*
X13214285Y-35523809D01*
X12833333Y-37452380D02*
X12500000Y-36976190D01*
X12261904Y-37452380D02*
X12261904Y-36452380D01*
X12642857Y-36452380D01*
X12738095Y-36500000D01*
X12785714Y-36547619D01*
X12833333Y-36642857D01*
X12833333Y-36785714D01*
X12785714Y-36880952D01*
X12738095Y-36928571D01*
X12642857Y-36976190D01*
X12261904Y-36976190D01*
X13738095Y-36452380D02*
X13261904Y-36452380D01*
X13214285Y-36928571D01*
X13261904Y-36880952D01*
X13357142Y-36833333D01*
X13595238Y-36833333D01*
X13690476Y-36880952D01*
X13738095Y-36928571D01*
X13785714Y-37023809D01*
X13785714Y-37261904D01*
X13738095Y-37357142D01*
X13690476Y-37404761D01*
X13595238Y-37452380D01*
X13357142Y-37452380D01*
X13261904Y-37404761D01*
X13214285Y-37357142D01*
X12833333Y-46452380D02*
X12500000Y-45976190D01*
X12261904Y-46452380D02*
X12261904Y-45452380D01*
X12642857Y-45452380D01*
X12738095Y-45500000D01*
X12785714Y-45547619D01*
X12833333Y-45642857D01*
X12833333Y-45785714D01*
X12785714Y-45880952D01*
X12738095Y-45928571D01*
X12642857Y-45976190D01*
X12261904Y-45976190D01*
X13214285Y-45547619D02*
X13261904Y-45500000D01*
X13357142Y-45452380D01*
X13595238Y-45452380D01*
X13690476Y-45500000D01*
X13738095Y-45547619D01*
X13785714Y-45642857D01*
X13785714Y-45738095D01*
X13738095Y-45880952D01*
X13166666Y-46452380D01*
X13785714Y-46452380D01*
X12833333Y-47952380D02*
X12500000Y-47476190D01*
X12261904Y-47952380D02*
X12261904Y-46952380D01*
X12642857Y-46952380D01*
X12738095Y-47000000D01*
X12785714Y-47047619D01*
X12833333Y-47142857D01*
X12833333Y-47285714D01*
X12785714Y-47380952D01*
X12738095Y-47428571D01*
X12642857Y-47476190D01*
X12261904Y-47476190D01*
X13785714Y-47952380D02*
X13214285Y-47952380D01*
X13500000Y-47952380D02*
X13500000Y-46952380D01*
X13404761Y-47095238D01*
X13309523Y-47190476D01*
X13214285Y-47238095D01*
X41261904Y25047619D02*
X41261904Y26047619D01*
X41500000Y26047619D01*
X41642857Y26000000D01*
X41738095Y25904761D01*
X41785714Y25809523D01*
X41833333Y25619047D01*
X41833333Y25476190D01*
X41785714Y25285714D01*
X41738095Y25190476D01*
X41642857Y25095238D01*
X41500000Y25047619D01*
X41261904Y25047619D01*
X42214285Y25952380D02*
X42261904Y26000000D01*
X42357142Y26047619D01*
X42595238Y26047619D01*
X42690476Y26000000D01*
X42738095Y25952380D01*
X42785714Y25857142D01*
X42785714Y25761904D01*
X42738095Y25619047D01*
X42166666Y25047619D01*
X42785714Y25047619D01*
X45166666Y30261904D02*
X45166666Y30738095D01*
X45452380Y30166666D02*
X44452380Y30500000D01*
X45452380Y30833333D01*
X51333333Y20642857D02*
X51285714Y20595238D01*
X51142857Y20547619D01*
X51047619Y20547619D01*
X50904761Y20595238D01*
X50809523Y20690476D01*
X50761904Y20785714D01*
X50714285Y20976190D01*
X50714285Y21119047D01*
X50761904Y21309523D01*
X50809523Y21404761D01*
X50904761Y21500000D01*
X51047619Y21547619D01*
X51142857Y21547619D01*
X51285714Y21500000D01*
X51333333Y21452380D01*
X52238095Y21547619D02*
X51761904Y21547619D01*
X51714285Y21071428D01*
X51761904Y21119047D01*
X51857142Y21166666D01*
X52095238Y21166666D01*
X52190476Y21119047D01*
X52238095Y21071428D01*
X52285714Y20976190D01*
X52285714Y20738095D01*
X52238095Y20642857D01*
X52190476Y20595238D01*
X52095238Y20547619D01*
X51857142Y20547619D01*
X51761904Y20595238D01*
X51714285Y20642857D01*
X10857142Y-33261666D02*
X10904761Y-33309285D01*
X10952380Y-33452142D01*
X10952380Y-33547380D01*
X10904761Y-33690238D01*
X10809523Y-33785476D01*
X10714285Y-33833095D01*
X10523809Y-33880714D01*
X10380952Y-33880714D01*
X10190476Y-33833095D01*
X10095238Y-33785476D01*
X10000000Y-33690238D01*
X9952380Y-33547380D01*
X9952380Y-33452142D01*
X10000000Y-33309285D01*
X10047619Y-33261666D01*
X9952380Y-32928333D02*
X9952380Y-32261666D01*
X10952380Y-32690238D01*
X10857142Y-53142857D02*
X10904761Y-53190476D01*
X10952380Y-53333333D01*
X10952380Y-53428571D01*
X10904761Y-53571428D01*
X10809523Y-53666666D01*
X10714285Y-53714285D01*
X10523809Y-53761904D01*
X10380952Y-53761904D01*
X10190476Y-53714285D01*
X10095238Y-53666666D01*
X10000000Y-53571428D01*
X9952380Y-53428571D01*
X9952380Y-53333333D01*
X10000000Y-53190476D01*
X10047619Y-53142857D01*
X10952380Y-52190476D02*
X10952380Y-52761904D01*
X10952380Y-52476190D02*
X9952380Y-52476190D01*
X10095238Y-52571428D01*
X10190476Y-52666666D01*
X10238095Y-52761904D01*
X10952380Y-51238095D02*
X10952380Y-51809523D01*
X10952380Y-51523809D02*
X9952380Y-51523809D01*
X10095238Y-51619047D01*
X10190476Y-51714285D01*
X10238095Y-51809523D01*
X44757142Y-21707142D02*
X44709523Y-21754761D01*
X44566666Y-21802380D01*
X44471428Y-21802380D01*
X44328571Y-21754761D01*
X44233333Y-21659523D01*
X44185714Y-21564285D01*
X44138095Y-21373809D01*
X44138095Y-21230952D01*
X44185714Y-21040476D01*
X44233333Y-20945238D01*
X44328571Y-20850000D01*
X44471428Y-20802380D01*
X44566666Y-20802380D01*
X44709523Y-20850000D01*
X44757142Y-20897619D01*
X45709523Y-21802380D02*
X45138095Y-21802380D01*
X45423809Y-21802380D02*
X45423809Y-20802380D01*
X45328571Y-20945238D01*
X45233333Y-21040476D01*
X45138095Y-21088095D01*
X46042857Y-20802380D02*
X46661904Y-20802380D01*
X46328571Y-21183333D01*
X46471428Y-21183333D01*
X46566666Y-21230952D01*
X46614285Y-21278571D01*
X46661904Y-21373809D01*
X46661904Y-21611904D01*
X46614285Y-21707142D01*
X46566666Y-21754761D01*
X46471428Y-21802380D01*
X46185714Y-21802380D01*
X46090476Y-21754761D01*
X46042857Y-21707142D01*
X60857142Y-28857142D02*
X60809523Y-28904761D01*
X60666666Y-28952380D01*
X60571428Y-28952380D01*
X60428571Y-28904761D01*
X60333333Y-28809523D01*
X60285714Y-28714285D01*
X60238095Y-28523809D01*
X60238095Y-28380952D01*
X60285714Y-28190476D01*
X60333333Y-28095238D01*
X60428571Y-28000000D01*
X60571428Y-27952380D01*
X60666666Y-27952380D01*
X60809523Y-28000000D01*
X60857142Y-28047619D01*
X61809523Y-28952380D02*
X61238095Y-28952380D01*
X61523809Y-28952380D02*
X61523809Y-27952380D01*
X61428571Y-28095238D01*
X61333333Y-28190476D01*
X61238095Y-28238095D01*
X62142857Y-27952380D02*
X62809523Y-27952380D01*
X62380952Y-28952380D01*
X87857142Y-27857142D02*
X87809523Y-27904761D01*
X87666666Y-27952380D01*
X87571428Y-27952380D01*
X87428571Y-27904761D01*
X87333333Y-27809523D01*
X87285714Y-27714285D01*
X87238095Y-27523809D01*
X87238095Y-27380952D01*
X87285714Y-27190476D01*
X87333333Y-27095238D01*
X87428571Y-27000000D01*
X87571428Y-26952380D01*
X87666666Y-26952380D01*
X87809523Y-27000000D01*
X87857142Y-27047619D01*
X88238095Y-27047619D02*
X88285714Y-27000000D01*
X88380952Y-26952380D01*
X88619047Y-26952380D01*
X88714285Y-27000000D01*
X88761904Y-27047619D01*
X88809523Y-27142857D01*
X88809523Y-27238095D01*
X88761904Y-27380952D01*
X88190476Y-27952380D01*
X88809523Y-27952380D01*
X89761904Y-27952380D02*
X89190476Y-27952380D01*
X89476190Y-27952380D02*
X89476190Y-26952380D01*
X89380952Y-27095238D01*
X89285714Y-27190476D01*
X89190476Y-27238095D01*
X59807142Y-32657142D02*
X59759523Y-32704761D01*
X59616666Y-32752380D01*
X59521428Y-32752380D01*
X59378571Y-32704761D01*
X59283333Y-32609523D01*
X59235714Y-32514285D01*
X59188095Y-32323809D01*
X59188095Y-32180952D01*
X59235714Y-31990476D01*
X59283333Y-31895238D01*
X59378571Y-31800000D01*
X59521428Y-31752380D01*
X59616666Y-31752380D01*
X59759523Y-31800000D01*
X59807142Y-31847619D01*
X60188095Y-31847619D02*
X60235714Y-31800000D01*
X60330952Y-31752380D01*
X60569047Y-31752380D01*
X60664285Y-31800000D01*
X60711904Y-31847619D01*
X60759523Y-31942857D01*
X60759523Y-32038095D01*
X60711904Y-32180952D01*
X60140476Y-32752380D01*
X60759523Y-32752380D01*
X61140476Y-31847619D02*
X61188095Y-31800000D01*
X61283333Y-31752380D01*
X61521428Y-31752380D01*
X61616666Y-31800000D01*
X61664285Y-31847619D01*
X61711904Y-31942857D01*
X61711904Y-32038095D01*
X61664285Y-32180952D01*
X61092857Y-32752380D01*
X61711904Y-32752380D01*
X38357142Y-42357142D02*
X38309523Y-42404761D01*
X38166666Y-42452380D01*
X38071428Y-42452380D01*
X37928571Y-42404761D01*
X37833333Y-42309523D01*
X37785714Y-42214285D01*
X37738095Y-42023809D01*
X37738095Y-41880952D01*
X37785714Y-41690476D01*
X37833333Y-41595238D01*
X37928571Y-41500000D01*
X38071428Y-41452380D01*
X38166666Y-41452380D01*
X38309523Y-41500000D01*
X38357142Y-41547619D01*
X38738095Y-41547619D02*
X38785714Y-41500000D01*
X38880952Y-41452380D01*
X39119047Y-41452380D01*
X39214285Y-41500000D01*
X39261904Y-41547619D01*
X39309523Y-41642857D01*
X39309523Y-41738095D01*
X39261904Y-41880952D01*
X38690476Y-42452380D01*
X39309523Y-42452380D01*
X39642857Y-41452380D02*
X40261904Y-41452380D01*
X39928571Y-41833333D01*
X40071428Y-41833333D01*
X40166666Y-41880952D01*
X40214285Y-41928571D01*
X40261904Y-42023809D01*
X40261904Y-42261904D01*
X40214285Y-42357142D01*
X40166666Y-42404761D01*
X40071428Y-42452380D01*
X39785714Y-42452380D01*
X39690476Y-42404761D01*
X39642857Y-42357142D01*
X55357142Y-42357142D02*
X55309523Y-42404761D01*
X55166666Y-42452380D01*
X55071428Y-42452380D01*
X54928571Y-42404761D01*
X54833333Y-42309523D01*
X54785714Y-42214285D01*
X54738095Y-42023809D01*
X54738095Y-41880952D01*
X54785714Y-41690476D01*
X54833333Y-41595238D01*
X54928571Y-41500000D01*
X55071428Y-41452380D01*
X55166666Y-41452380D01*
X55309523Y-41500000D01*
X55357142Y-41547619D01*
X55738095Y-41547619D02*
X55785714Y-41500000D01*
X55880952Y-41452380D01*
X56119047Y-41452380D01*
X56214285Y-41500000D01*
X56261904Y-41547619D01*
X56309523Y-41642857D01*
X56309523Y-41738095D01*
X56261904Y-41880952D01*
X55690476Y-42452380D01*
X56309523Y-42452380D01*
X57214285Y-41452380D02*
X56738095Y-41452380D01*
X56690476Y-41928571D01*
X56738095Y-41880952D01*
X56833333Y-41833333D01*
X57071428Y-41833333D01*
X57166666Y-41880952D01*
X57214285Y-41928571D01*
X57261904Y-42023809D01*
X57261904Y-42261904D01*
X57214285Y-42357142D01*
X57166666Y-42404761D01*
X57071428Y-42452380D01*
X56833333Y-42452380D01*
X56738095Y-42404761D01*
X56690476Y-42357142D01*
X55357142Y-50857142D02*
X55309523Y-50904761D01*
X55166666Y-50952380D01*
X55071428Y-50952380D01*
X54928571Y-50904761D01*
X54833333Y-50809523D01*
X54785714Y-50714285D01*
X54738095Y-50523809D01*
X54738095Y-50380952D01*
X54785714Y-50190476D01*
X54833333Y-50095238D01*
X54928571Y-50000000D01*
X55071428Y-49952380D01*
X55166666Y-49952380D01*
X55309523Y-50000000D01*
X55357142Y-50047619D01*
X55738095Y-50047619D02*
X55785714Y-50000000D01*
X55880952Y-49952380D01*
X56119047Y-49952380D01*
X56214285Y-50000000D01*
X56261904Y-50047619D01*
X56309523Y-50142857D01*
X56309523Y-50238095D01*
X56261904Y-50380952D01*
X55690476Y-50952380D01*
X56309523Y-50952380D01*
X56642857Y-49952380D02*
X57309523Y-49952380D01*
X56880952Y-50952380D01*
X80357142Y-4857142D02*
X80309523Y-4904761D01*
X80166666Y-4952380D01*
X80071428Y-4952380D01*
X79928571Y-4904761D01*
X79833333Y-4809523D01*
X79785714Y-4714285D01*
X79738095Y-4523809D01*
X79738095Y-4380952D01*
X79785714Y-4190476D01*
X79833333Y-4095238D01*
X79928571Y-4000000D01*
X80071428Y-3952380D01*
X80166666Y-3952380D01*
X80309523Y-4000000D01*
X80357142Y-4047619D01*
X80690476Y-3952380D02*
X81309523Y-3952380D01*
X80976190Y-4333333D01*
X81119047Y-4333333D01*
X81214285Y-4380952D01*
X81261904Y-4428571D01*
X81309523Y-4523809D01*
X81309523Y-4761904D01*
X81261904Y-4857142D01*
X81214285Y-4904761D01*
X81119047Y-4952380D01*
X80833333Y-4952380D01*
X80738095Y-4904761D01*
X80690476Y-4857142D01*
X82166666Y-3952380D02*
X81976190Y-3952380D01*
X81880952Y-4000000D01*
X81833333Y-4047619D01*
X81738095Y-4190476D01*
X81690476Y-4380952D01*
X81690476Y-4761904D01*
X81738095Y-4857142D01*
X81785714Y-4904761D01*
X81880952Y-4952380D01*
X82071428Y-4952380D01*
X82166666Y-4904761D01*
X82214285Y-4857142D01*
X82261904Y-4761904D01*
X82261904Y-4523809D01*
X82214285Y-4428571D01*
X82166666Y-4380952D01*
X82071428Y-4333333D01*
X81880952Y-4333333D01*
X81785714Y-4380952D01*
X81738095Y-4428571D01*
X81690476Y-4523809D01*
X78795571Y-13451333D02*
X78795571Y-13784666D01*
X79319380Y-13784666D02*
X78319380Y-13784666D01*
X78319380Y-13308476D01*
X78795571Y-12594190D02*
X78843190Y-12451333D01*
X78890809Y-12403714D01*
X78986047Y-12356095D01*
X79128904Y-12356095D01*
X79224142Y-12403714D01*
X79271761Y-12451333D01*
X79319380Y-12546571D01*
X79319380Y-12927523D01*
X78319380Y-12927523D01*
X78319380Y-12594190D01*
X78367000Y-12498952D01*
X78414619Y-12451333D01*
X78509857Y-12403714D01*
X78605095Y-12403714D01*
X78700333Y-12451333D01*
X78747952Y-12498952D01*
X78795571Y-12594190D01*
X78795571Y-12927523D01*
X79319380Y-11403714D02*
X79319380Y-11975142D01*
X79319380Y-11689428D02*
X78319380Y-11689428D01*
X78462238Y-11784666D01*
X78557476Y-11879904D01*
X78605095Y-11975142D01*
X70326666Y24287619D02*
X70326666Y23573333D01*
X70279047Y23430476D01*
X70183809Y23335238D01*
X70040952Y23287619D01*
X69945714Y23287619D01*
X71326666Y23287619D02*
X70755238Y23287619D01*
X71040952Y23287619D02*
X71040952Y24287619D01*
X70945714Y24144761D01*
X70850476Y24049523D01*
X70755238Y24001904D01*
X26166666Y-23452380D02*
X26166666Y-24166666D01*
X26119047Y-24309523D01*
X26023809Y-24404761D01*
X25880952Y-24452380D01*
X25785714Y-24452380D01*
X26547619Y-23452380D02*
X27166666Y-23452380D01*
X26833333Y-23833333D01*
X26976190Y-23833333D01*
X27071428Y-23880952D01*
X27119047Y-23928571D01*
X27166666Y-24023809D01*
X27166666Y-24261904D01*
X27119047Y-24357142D01*
X27071428Y-24404761D01*
X26976190Y-24452380D01*
X26690476Y-24452380D01*
X26595238Y-24404761D01*
X26547619Y-24357142D01*
X26166666Y-27392380D02*
X26166666Y-28106666D01*
X26119047Y-28249523D01*
X26023809Y-28344761D01*
X25880952Y-28392380D01*
X25785714Y-28392380D01*
X27071428Y-27725714D02*
X27071428Y-28392380D01*
X26833333Y-27344761D02*
X26595238Y-28059047D01*
X27214285Y-28059047D01*
X28404761Y1952380D02*
X28309523Y2000000D01*
X28214285Y2095238D01*
X28071428Y2238095D01*
X27976190Y2285714D01*
X27880952Y2285714D01*
X27928571Y2047619D02*
X27833333Y2095238D01*
X27738095Y2190476D01*
X27690476Y2380952D01*
X27690476Y2714285D01*
X27738095Y2904761D01*
X27833333Y3000000D01*
X27928571Y3047619D01*
X28119047Y3047619D01*
X28214285Y3000000D01*
X28309523Y2904761D01*
X28357142Y2714285D01*
X28357142Y2380952D01*
X28309523Y2190476D01*
X28214285Y2095238D01*
X28119047Y2047619D01*
X27928571Y2047619D01*
X29309523Y2047619D02*
X28738095Y2047619D01*
X29023809Y2047619D02*
X29023809Y3047619D01*
X28928571Y2904761D01*
X28833333Y2809523D01*
X28738095Y2761904D01*
X7452380Y-41166666D02*
X6976190Y-41500000D01*
X7452380Y-41738095D02*
X6452380Y-41738095D01*
X6452380Y-41357142D01*
X6500000Y-41261904D01*
X6547619Y-41214285D01*
X6642857Y-41166666D01*
X6785714Y-41166666D01*
X6880952Y-41214285D01*
X6928571Y-41261904D01*
X6976190Y-41357142D01*
X6976190Y-41738095D01*
X7452380Y-40690476D02*
X7452380Y-40500000D01*
X7404761Y-40404761D01*
X7357142Y-40357142D01*
X7214285Y-40261904D01*
X7023809Y-40214285D01*
X6642857Y-40214285D01*
X6547619Y-40261904D01*
X6500000Y-40309523D01*
X6452380Y-40404761D01*
X6452380Y-40595238D01*
X6500000Y-40690476D01*
X6547619Y-40738095D01*
X6642857Y-40785714D01*
X6880952Y-40785714D01*
X6976190Y-40738095D01*
X7023809Y-40690476D01*
X7071428Y-40595238D01*
X7071428Y-40404761D01*
X7023809Y-40309523D01*
X6976190Y-40261904D01*
X6880952Y-40214285D01*
X7452380Y-45142857D02*
X6976190Y-45476190D01*
X7452380Y-45714285D02*
X6452380Y-45714285D01*
X6452380Y-45333333D01*
X6500000Y-45238095D01*
X6547619Y-45190476D01*
X6642857Y-45142857D01*
X6785714Y-45142857D01*
X6880952Y-45190476D01*
X6928571Y-45238095D01*
X6976190Y-45333333D01*
X6976190Y-45714285D01*
X7452380Y-44190476D02*
X7452380Y-44761904D01*
X7452380Y-44476190D02*
X6452380Y-44476190D01*
X6595238Y-44571428D01*
X6690476Y-44666666D01*
X6738095Y-44761904D01*
X7452380Y-43238095D02*
X7452380Y-43809523D01*
X7452380Y-43523809D02*
X6452380Y-43523809D01*
X6595238Y-43619047D01*
X6690476Y-43714285D01*
X6738095Y-43809523D01*
X54952380Y-19142857D02*
X54476190Y-19476190D01*
X54952380Y-19714285D02*
X53952380Y-19714285D01*
X53952380Y-19333333D01*
X54000000Y-19238095D01*
X54047619Y-19190476D01*
X54142857Y-19142857D01*
X54285714Y-19142857D01*
X54380952Y-19190476D01*
X54428571Y-19238095D01*
X54476190Y-19333333D01*
X54476190Y-19714285D01*
X54952380Y-18190476D02*
X54952380Y-18761904D01*
X54952380Y-18476190D02*
X53952380Y-18476190D01*
X54095238Y-18571428D01*
X54190476Y-18666666D01*
X54238095Y-18761904D01*
X53952380Y-17285714D02*
X53952380Y-17761904D01*
X54428571Y-17809523D01*
X54380952Y-17761904D01*
X54333333Y-17666666D01*
X54333333Y-17428571D01*
X54380952Y-17333333D01*
X54428571Y-17285714D01*
X54523809Y-17238095D01*
X54761904Y-17238095D01*
X54857142Y-17285714D01*
X54904761Y-17333333D01*
X54952380Y-17428571D01*
X54952380Y-17666666D01*
X54904761Y-17761904D01*
X54857142Y-17809523D01*
X65202380Y-21892857D02*
X64726190Y-22226190D01*
X65202380Y-22464285D02*
X64202380Y-22464285D01*
X64202380Y-22083333D01*
X64250000Y-21988095D01*
X64297619Y-21940476D01*
X64392857Y-21892857D01*
X64535714Y-21892857D01*
X64630952Y-21940476D01*
X64678571Y-21988095D01*
X64726190Y-22083333D01*
X64726190Y-22464285D01*
X65202380Y-20940476D02*
X65202380Y-21511904D01*
X65202380Y-21226190D02*
X64202380Y-21226190D01*
X64345238Y-21321428D01*
X64440476Y-21416666D01*
X64488095Y-21511904D01*
X64202380Y-20083333D02*
X64202380Y-20273809D01*
X64250000Y-20369047D01*
X64297619Y-20416666D01*
X64440476Y-20511904D01*
X64630952Y-20559523D01*
X65011904Y-20559523D01*
X65107142Y-20511904D01*
X65154761Y-20464285D01*
X65202380Y-20369047D01*
X65202380Y-20178571D01*
X65154761Y-20083333D01*
X65107142Y-20035714D01*
X65011904Y-19988095D01*
X64773809Y-19988095D01*
X64678571Y-20035714D01*
X64630952Y-20083333D01*
X64583333Y-20178571D01*
X64583333Y-20369047D01*
X64630952Y-20464285D01*
X64678571Y-20511904D01*
X64773809Y-20559523D01*
X97972380Y-27142857D02*
X97496190Y-27476190D01*
X97972380Y-27714285D02*
X96972380Y-27714285D01*
X96972380Y-27333333D01*
X97020000Y-27238095D01*
X97067619Y-27190476D01*
X97162857Y-27142857D01*
X97305714Y-27142857D01*
X97400952Y-27190476D01*
X97448571Y-27238095D01*
X97496190Y-27333333D01*
X97496190Y-27714285D01*
X97067619Y-26761904D02*
X97020000Y-26714285D01*
X96972380Y-26619047D01*
X96972380Y-26380952D01*
X97020000Y-26285714D01*
X97067619Y-26238095D01*
X97162857Y-26190476D01*
X97258095Y-26190476D01*
X97400952Y-26238095D01*
X97972380Y-26809523D01*
X97972380Y-26190476D01*
X97972380Y-25238095D02*
X97972380Y-25809523D01*
X97972380Y-25523809D02*
X96972380Y-25523809D01*
X97115238Y-25619047D01*
X97210476Y-25714285D01*
X97258095Y-25809523D01*
X90952380Y6357142D02*
X90476190Y6023809D01*
X90952380Y5785714D02*
X89952380Y5785714D01*
X89952380Y6166666D01*
X90000000Y6261904D01*
X90047619Y6309523D01*
X90142857Y6357142D01*
X90285714Y6357142D01*
X90380952Y6309523D01*
X90428571Y6261904D01*
X90476190Y6166666D01*
X90476190Y5785714D01*
X90047619Y6738095D02*
X90000000Y6785714D01*
X89952380Y6880952D01*
X89952380Y7119047D01*
X90000000Y7214285D01*
X90047619Y7261904D01*
X90142857Y7309523D01*
X90238095Y7309523D01*
X90380952Y7261904D01*
X90952380Y6690476D01*
X90952380Y7309523D01*
X90285714Y8166666D02*
X90952380Y8166666D01*
X89904761Y7928571D02*
X90619047Y7690476D01*
X90619047Y8309523D01*
X16357142Y-7952380D02*
X16023809Y-7476190D01*
X15785714Y-7952380D02*
X15785714Y-6952380D01*
X16166666Y-6952380D01*
X16261904Y-7000000D01*
X16309523Y-7047619D01*
X16357142Y-7142857D01*
X16357142Y-7285714D01*
X16309523Y-7380952D01*
X16261904Y-7428571D01*
X16166666Y-7476190D01*
X15785714Y-7476190D01*
X16738095Y-7047619D02*
X16785714Y-7000000D01*
X16880952Y-6952380D01*
X17119047Y-6952380D01*
X17214285Y-7000000D01*
X17261904Y-7047619D01*
X17309523Y-7142857D01*
X17309523Y-7238095D01*
X17261904Y-7380952D01*
X16690476Y-7952380D01*
X17309523Y-7952380D01*
X18166666Y-6952380D02*
X17976190Y-6952380D01*
X17880952Y-7000000D01*
X17833333Y-7047619D01*
X17738095Y-7190476D01*
X17690476Y-7380952D01*
X17690476Y-7761904D01*
X17738095Y-7857142D01*
X17785714Y-7904761D01*
X17880952Y-7952380D01*
X18071428Y-7952380D01*
X18166666Y-7904761D01*
X18214285Y-7857142D01*
X18261904Y-7761904D01*
X18261904Y-7523809D01*
X18214285Y-7428571D01*
X18166666Y-7380952D01*
X18071428Y-7333333D01*
X17880952Y-7333333D01*
X17785714Y-7380952D01*
X17738095Y-7428571D01*
X17690476Y-7523809D01*
X37904761Y-3452380D02*
X37571428Y-2976190D01*
X37333333Y-3452380D02*
X37333333Y-2452380D01*
X37714285Y-2452380D01*
X37809523Y-2500000D01*
X37857142Y-2547619D01*
X37904761Y-2642857D01*
X37904761Y-2785714D01*
X37857142Y-2880952D01*
X37809523Y-2928571D01*
X37714285Y-2976190D01*
X37333333Y-2976190D01*
X38190476Y-2452380D02*
X38523809Y-3452380D01*
X38857142Y-2452380D01*
X39714285Y-3452380D02*
X39142857Y-3452380D01*
X39428571Y-3452380D02*
X39428571Y-2452380D01*
X39333333Y-2595238D01*
X39238095Y-2690476D01*
X39142857Y-2738095D01*
M02*
